<?xml version="1.0" encoding="UTF-8"?>
<!DOCTYPE svg PUBLIC "-//W3C//DTD SVG 1.1//EN" "http://www.w3.org/Graphics/SVG/1.1/DTD/svg11.dtd">
<!-- Creator: CorelDRAW X6 -->
<svg xmlns="http://www.w3.org/2000/svg" xml:space="preserve" width="200mm" height="200mm" version="1.1" shape-rendering="geometricPrecision" text-rendering="geometricPrecision" image-rendering="optimizeQuality" fill-rule="evenodd" clip-rule="evenodd"
viewBox="0 0 20000 20000"
 xmlns:xlink="http://www.w3.org/1999/xlink">
 <g id="Layer_x0020_1">
  <metadata id="CorelCorpID_0Corel-Layer"/>
  <g id="_870518688">
   <circle fill="none" stroke="black" stroke-width="52.92" stroke-linecap="round" stroke-linejoin="round" transform="matrix(1.6266E-014 -0.614169 0.614169 1.6266E-014 -0.03 20000)" r="529"/>
   <circle fill="none" stroke="black" stroke-width="52.92" stroke-linecap="round" stroke-linejoin="round" transform="matrix(1.6266E-014 -0.614169 0.614169 1.6266E-014 1499.97 20000)" r="529"/>
   <path fill="none" fill-rule="nonzero" stroke="blue" stroke-width="52.92" stroke-linecap="round" stroke-linejoin="round" d="M-2766 22277c0,280 -227,508 -508,508 -280,0 -508,-227 -508,-508 0,-280 227,-508 508,-508 280,0 508,227 508,508z"/>
   <path fill="none" fill-rule="nonzero" stroke="blue" stroke-width="52.92" stroke-linecap="round" stroke-linejoin="round" d="M-3054 22277c0,121 -98,220 -219,220 -121,0 -220,-98 -220,-220 0,-121 98,-219 220,-219 121,0 219,98 219,219"/>
   <path fill="none" fill-rule="nonzero" stroke="blue" stroke-width="52.92" stroke-linecap="round" stroke-linejoin="round" d="M3478 22277c0,280 -227,508 -508,508 -280,0 -508,-227 -508,-508 0,-280 227,-508 508,-508 280,0 508,227 508,508z"/>
   <path fill="none" fill-rule="nonzero" stroke="blue" stroke-width="52.92" stroke-linecap="round" stroke-linejoin="round" d="M3190 22277c0,121 -98,220 -219,220 -121,0 -220,-98 -220,-220 0,-121 98,-219 220,-219 121,0 219,98 219,219"/>
   <path fill="none" fill-rule="nonzero" stroke="blue" stroke-width="52.92" stroke-linecap="round" stroke-linejoin="round" d="M-6292 20420c527,315 1027,568 1487,722"/>
   <line fill="none" fill-rule="nonzero" stroke="blue" stroke-width="52.92" stroke-linecap="round" stroke-linejoin="round" x1="-4805" y1="21142" x2="4526" y2= "21142" />
   <path fill="none" fill-rule="nonzero" stroke="blue" stroke-width="52.92" stroke-linecap="round" stroke-linejoin="round" d="M4526 21142c418,-150 834,-415 1248,-750"/>
   <polygon fill="none" stroke="black" stroke-width="52.92" stroke-linecap="round" stroke-linejoin="round" points="597,20488 -571,20488 -571,20891 597,20891 "/>
   <path fill="none" stroke="black" stroke-width="52.92" stroke-linecap="round" stroke-linejoin="round" d="M1700 20700l-133 0 0 190 2561 0c165,0 419,-65 564,-143l741 -403c145,-79 328,-25 418,140 90,165 36,348 -109,427l-867 472c-145,79 -264,146 -264,148 0,3 -135,5 -300,5l-992 0 0 171 -582 0 0 119c70,-37 150,-57 234,-57 280,0 508,227 508,508 0,280 -227,508 -508,508 -280,0 -508,-227 -508,-508 0,-61 11,-119 30,-173l-242 0 0 -397 -370 0 0 -171 -4172 0 0 171 -370 0 0 397 -135 0c20,54 30,112 30,173 0,280 -227,508 -508,508 -280,0 -508,-227 -508,-508 0,-280 227,-508 508,-508 44,0 87,6 127,16l0 -78 -582 0 0 -171 -1045 0c-165,0 -300,-6 -300,-14 0,-8 -2,-10 -5,-4 -3,5 -124,-55 -269,-134l-870 -473c-145,-79 -199,-262 -109,-427 90,-165 273,-219 418,-140l741 403c145,79 399,143 564,143l3059 0 0 -190 -154 0c-276,0 -500,-224 -500,-500l0 -400c0,-276 224,-500 500,-500l3400 0c276,0 500,224 500,500l0 400c0,276 -224,500 -500,500z"/>
   <circle fill="none" stroke="black" stroke-width="52.92" stroke-linecap="round" stroke-linejoin="round" transform="matrix(1.6266E-014 -0.614169 0.614169 1.6266E-014 -1500.03 20000)" r="529"/>
  </g>
  <circle fill="none" stroke="black" stroke-width="52.92" stroke-linecap="round" stroke-linejoin="round" transform="matrix(9.00886E-015 -0.340155 0.340155 9.00886E-015 -750.03 20000)" r="529"/>
  <circle fill="none" stroke="black" stroke-width="52.92" stroke-linecap="round" stroke-linejoin="round" transform="matrix(9.00886E-015 -0.340155 0.340155 9.00886E-015 749.97 20000)" r="529"/>
 </g>
</svg>
