  0
SECTION
  2
HEADER
  9
$ACADVER
  1
AC1021
  9
$ACADMAINTVER
 70
    25
  9
$DWGCODEPAGE
  3
ANSI_1252
  9
$INSBASE
 10
0.0
 20
0.0
 30
0.0
  9
$EXTMIN
 10
-11.98123
 20
-8.7856
 30
0.0
  9
$EXTMAX
 10
-8.09332
 20
-3.56964
 30
0.0
  9
$LIMMIN
 10
0.0
 20
0.0
  9
$LIMMAX
 10
12.0
 20
9.0
  9
$ORTHOMODE
 70
     0
  9
$REGENMODE
 70
     1
  9
$FILLMODE
 70
     1
  9
$QTEXTMODE
 70
     0
  9
$MIRRTEXT
 70
     1
  9
$LTSCALE
 40
1.0
  9
$ATTMODE
 70
     1
  9
$TEXTSIZE
 40
0.2
  9
$TRACEWID
 40
0.05
  9
$TEXTSTYLE
  7
Standard
  9
$CLAYER
  8
0
  9
$CELTYPE
  6
ByLayer
  9
$CECOLOR
 62
   256
  9
$CELTSCALE
 40
1.0
  9
$DISPSILH
 70
     0
  9
$DIMSCALE
 40
1.0
  9
$DIMASZ
 40
0.18
  9
$DIMEXO
 40
0.0625
  9
$DIMDLI
 40
0.38
  9
$DIMRND
 40
0.0
  9
$DIMDLE
 40
0.0
  9
$DIMEXE
 40
0.18
  9
$DIMTP
 40
0.0
  9
$DIMTM
 40
0.0
  9
$DIMTXT
 40
0.18
  9
$DIMCEN
 40
0.09
  9
$DIMTSZ
 40
0.0
  9
$DIMTOL
 70
     0
  9
$DIMLIM
 70
     0
  9
$DIMTIH
 70
     1
  9
$DIMTOH
 70
     1
  9
$DIMSE1
 70
     0
  9
$DIMSE2
 70
     0
  9
$DIMTAD
 70
     0
  9
$DIMZIN
 70
     0
  9
$DIMBLK
  1

  9
$DIMASO
 70
     1
  9
$DIMSHO
 70
     1
  9
$DIMPOST
  1

  9
$DIMAPOST
  1

  9
$DIMALT
 70
     0
  9
$DIMALTD
 70
     2
  9
$DIMALTF
 40
25.4
  9
$DIMLFAC
 40
1.0
  9
$DIMTOFL
 70
     0
  9
$DIMTVP
 40
0.0
  9
$DIMTIX
 70
     0
  9
$DIMSOXD
 70
     0
  9
$DIMSAH
 70
     0
  9
$DIMBLK1
  1

  9
$DIMBLK2
  1

  9
$DIMSTYLE
  2
Standard
  9
$DIMCLRD
 70
     0
  9
$DIMCLRE
 70
     0
  9
$DIMCLRT
 70
     0
  9
$DIMTFAC
 40
1.0
  9
$DIMGAP
 40
0.09
  9
$DIMJUST
 70
     0
  9
$DIMSD1
 70
     0
  9
$DIMSD2
 70
     0
  9
$DIMTOLJ
 70
     1
  9
$DIMTZIN
 70
     0
  9
$DIMALTZ
 70
     0
  9
$DIMALTTZ
 70
     0
  9
$DIMUPT
 70
     0
  9
$DIMDEC
 70
     4
  9
$DIMTDEC
 70
     4
  9
$DIMALTU
 70
     2
  9
$DIMALTTD
 70
     2
  9
$DIMTXSTY
  7
Standard
  9
$DIMAUNIT
 70
     0
  9
$DIMADEC
 70
     0
  9
$DIMALTRND
 40
0.0
  9
$DIMAZIN
 70
     0
  9
$DIMDSEP
 70
    46
  9
$DIMATFIT
 70
     3
  9
$DIMFRAC
 70
     0
  9
$DIMLDRBLK
  1

  9
$DIMLUNIT
 70
     2
  9
$DIMLWD
 70
    -2
  9
$DIMLWE
 70
    -2
  9
$DIMTMOVE
 70
     0
  9
$DIMFXL
 40
1.0
  9
$DIMFXLON
 70
     0
  9
$DIMJOGANG
 40
0.7853981633974483
  9
$DIMTFILL
 70
     0
  9
$DIMTFILLCLR
 70
     0
  9
$DIMARCSYM
 70
     0
  9
$DIMLTYPE
  6

  9
$DIMLTEX1
  6

  9
$DIMLTEX2
  6

  9
$LUNITS
 70
     2
  9
$LUPREC
 70
     4
  9
$SKETCHINC
 40
0.1
  9
$FILLETRAD
 40
0.5
  9
$AUNITS
 70
     0
  9
$AUPREC
 70
     0
  9
$MENU
  1
.
  9
$ELEVATION
 40
0.0
  9
$PELEVATION
 40
0.0
  9
$THICKNESS
 40
0.0
  9
$LIMCHECK
 70
     0
  9
$CHAMFERA
 40
0.5
  9
$CHAMFERB
 40
0.5
  9
$CHAMFERC
 40
1.0
  9
$CHAMFERD
 40
0.0
  9
$SKPOLY
 70
     0
  9
$TDCREATE
 40
2460555.019463472
  9
$TDUCREATE
 40
2460554.977796806
  9
$TDUPDATE
 40
2460555.019463507
  9
$TDUUPDATE
 40
2460554.97779684
  9
$TDINDWG
 40
0.0000000116
  9
$TDUSRTIMER
 40
0.0000000116
  9
$USRTIMER
 70
     1
  9
$ANGBASE
 50
0.0
  9
$ANGDIR
 70
     0
  9
$PDMODE
 70
     0
  9
$PDSIZE
 40
0.0
  9
$PLINEWID
 40
0.0
  9
$SPLFRAME
 70
     0
  9
$SPLINETYPE
 70
     6
  9
$SPLINESEGS
 70
     8
  9
$HANDSEED
  5
73
  9
$SURFTAB1
 70
     6
  9
$SURFTAB2
 70
     6
  9
$SURFTYPE
 70
     6
  9
$SURFU
 70
     6
  9
$SURFV
 70
     6
  9
$UCSBASE
  2

  9
$UCSNAME
  2

  9
$UCSORG
 10
0.0
 20
0.0
 30
0.0
  9
$UCSXDIR
 10
1.0
 20
0.0
 30
0.0
  9
$UCSYDIR
 10
0.0
 20
1.0
 30
0.0
  9
$UCSORTHOREF
  2

  9
$UCSORTHOVIEW
 70
     0
  9
$UCSORGTOP
 10
0.0
 20
0.0
 30
0.0
  9
$UCSORGBOTTOM
 10
0.0
 20
0.0
 30
0.0
  9
$UCSORGLEFT
 10
0.0
 20
0.0
 30
0.0
  9
$UCSORGRIGHT
 10
0.0
 20
0.0
 30
0.0
  9
$UCSORGFRONT
 10
0.0
 20
0.0
 30
0.0
  9
$UCSORGBACK
 10
0.0
 20
0.0
 30
0.0
  9
$PUCSBASE
  2

  9
$PUCSNAME
  2

  9
$PUCSORG
 10
0.0
 20
0.0
 30
0.0
  9
$PUCSXDIR
 10
1.0
 20
0.0
 30
0.0
  9
$PUCSYDIR
 10
0.0
 20
1.0
 30
0.0
  9
$PUCSORTHOREF
  2

  9
$PUCSORTHOVIEW
 70
     0
  9
$PUCSORGTOP
 10
0.0
 20
0.0
 30
0.0
  9
$PUCSORGBOTTOM
 10
0.0
 20
0.0
 30
0.0
  9
$PUCSORGLEFT
 10
0.0
 20
0.0
 30
0.0
  9
$PUCSORGRIGHT
 10
0.0
 20
0.0
 30
0.0
  9
$PUCSORGFRONT
 10
0.0
 20
0.0
 30
0.0
  9
$PUCSORGBACK
 10
0.0
 20
0.0
 30
0.0
  9
$USERI1
 70
     0
  9
$USERI2
 70
     0
  9
$USERI3
 70
     0
  9
$USERI4
 70
     0
  9
$USERI5
 70
     0
  9
$USERR1
 40
0.0
  9
$USERR2
 40
0.0
  9
$USERR3
 40
0.0
  9
$USERR4
 40
0.0
  9
$USERR5
 40
0.0
  9
$WORLDVIEW
 70
     1
  9
$SHADEDGE
 70
     3
  9
$SHADEDIF
 70
    70
  9
$TILEMODE
 70
     1
  9
$MAXACTVP
 70
    64
  9
$PINSBASE
 10
0.0
 20
0.0
 30
0.0
  9
$PLIMCHECK
 70
     0
  9
$PEXTMIN
 10
1.000000000000000E+20
 20
1.000000000000000E+20
 30
1.000000000000000E+20
  9
$PEXTMAX
 10
-1.000000000000000E+20
 20
-1.000000000000000E+20
 30
-1.000000000000000E+20
  9
$PLIMMIN
 10
0.0
 20
0.0
  9
$PLIMMAX
 10
12.0
 20
9.0
  9
$UNITMODE
 70
     0
  9
$VISRETAIN
 70
     1
  9
$PLINEGEN
 70
     0
  9
$PSLTSCALE
 70
     1
  9
$TREEDEPTH
 70
  3020
  9
$CMLSTYLE
  2
Standard
  9
$CMLJUST
 70
     0
  9
$CMLSCALE
 40
1.0
  9
$PROXYGRAPHICS
 70
     1
  9
$MEASUREMENT
 70
     0
  9
$CELWEIGHT
370
    -1
  9
$ENDCAPS
280
     0
  9
$JOINSTYLE
280
     0
  9
$LWDISPLAY
290
     0
  9
$INSUNITS
 70
     5
  9
$HYPERLINKBASE
  1

  9
$STYLESHEET
  1

  9
$XEDIT
290
     1
  9
$CEPSNTYPE
380
     0
  9
$PSTYLEMODE
290
     1
  9
$FINGERPRINTGUID
  2
{AC462E41-F33A-4CD2-80BF-787F1B0B3F35}
  9
$VERSIONGUID
  2
{FAEB1C32-E019-11D5-929B-00C0DF256EC4}
  9
$EXTNAMES
290
     1
  9
$PSVPSCALE
 40
0.0
  9
$OLESTARTUP
290
     0
  9
$SORTENTS
280
   127
  9
$INDEXCTL
280
     0
  9
$HIDETEXT
280
     1
  9
$XCLIPFRAME
290
     0
  9
$HALOGAP
280
     0
  9
$OBSCOLOR
 70
   257
  9
$OBSLTYPE
280
     0
  9
$INTERSECTIONDISPLAY
280
     0
  9
$INTERSECTIONCOLOR
 70
   257
  9
$DIMASSOC
280
     2
  9
$PROJECTNAME
  1

  9
$CAMERADISPLAY
290
     0
  9
$LENSLENGTH
 40
50.0
  9
$CAMERAHEIGHT
 40
0.0
  9
$STEPSPERSEC
 40
2.0
  9
$STEPSIZE
 40
6.0
  9
$3DDWFPREC
 40
2.0
  9
$PSOLWIDTH
 40
0.25
  9
$PSOLHEIGHT
 40
4.0
  9
$LOFTANG1
 40
1.570796326794897
  9
$LOFTANG2
 40
1.570796326794897
  9
$LOFTMAG1
 40
0.0
  9
$LOFTMAG2
 40
0.0
  9
$LOFTPARAM
 70
     7
  9
$LOFTNORMALS
280
     1
  9
$LATITUDE
 40
37.795
  9
$LONGITUDE
 40
-122.394
  9
$NORTHDIRECTION
 40
0.0
  9
$TIMEZONE
 70
 -8000
  9
$LIGHTGLYPHDISPLAY
280
     1
  9
$TILEMODELIGHTSYNCH
280
     1
  9
$SOLIDHIST
280
     1
  9
$SHOWHIST
280
     1
  9
$DWFFRAME
280
     2
  9
$DGNFRAME
280
     2
  9
$REALWORLDSCALE
290
     1
  9
$INTERFERECOLOR
 62
   256
  9
$CSHADOW
280
     0
  9
$SHADOWPLANELOCATION
 40
0.0
  0
ENDSEC
  0
SECTION
  2
CLASSES
  0
CLASS
  1
ACDBDICTIONARYWDFLT
  2
AcDbDictionaryWithDefault
  3
ObjectDBX Classes
 90
        0
 91
        4
280
     0
281
     0
  0
CLASS
  1
VISUALSTYLE
  2
AcDbVisualStyle
  3
ObjectDBX Classes
 90
     4095
 91
        4
280
     0
281
     0
  0
CLASS
  1
MATERIAL
  2
AcDbMaterial
  3
ObjectDBX Classes
 90
     1153
 91
        4
280
     0
281
     0
  0
ENDSEC
  0
SECTION
  2
TABLES
  0
TABLE
  2
VPORT
  5
8
330
0
100
AcDbSymbolTable
 70
     1
  0
VPORT
  5
29
330
8
100
AcDbSymbolTableRecord
100
AcDbViewportTableRecord
  2
*Active
 70
     0
 10
0.0
 20
0.0
 11
1.0
 21
1.0
 12
10.42990654205607
 22
4.5
 13
0.0
 23
0.0
 14
0.5
 24
0.5
 15
0.5
 25
0.5
 16
0.0
 26
0.0
 36
1.0
 17
0.0
 27
0.0
 37
0.0
 40
9.0
 41
1.972972972850329
 42
50.0
 43
0.0
 44
0.0
 50
0.0
 51
0.0
 71
     0
 72
   100
 73
     1
 74
     3
 75
     0
 76
     0
 77
     0
 78
     0
281
     0
 65
     1
110
0.0
120
0.0
130
0.0
111
1.0
121
0.0
131
0.0
112
0.0
122
1.0
132
0.0
 79
     0
146
0.0
 60
     3
 61
     5
292
     1
282
     1
141
0.0
142
0.0
 63
   250
  0
ENDTAB
  0
TABLE
  2
LTYPE
  5
5
330
0
100
AcDbSymbolTable
 70
     1
  0
LTYPE
  5
14
330
5
100
AcDbSymbolTableRecord
100
AcDbLinetypeTableRecord
  2
ByBlock
 70
     0
  3

 72
    65
 73
     0
 40
0.0
  0
LTYPE
  5
15
330
5
100
AcDbSymbolTableRecord
100
AcDbLinetypeTableRecord
  2
ByLayer
 70
     0
  3

 72
    65
 73
     0
 40
0.0
  0
LTYPE
  5
16
330
5
100
AcDbSymbolTableRecord
100
AcDbLinetypeTableRecord
  2
Continuous
 70
     0
  3
Solid line
 72
    65
 73
     0
 40
0.0
  0
ENDTAB
  0
TABLE
  2
LAYER
  5
2
330
0
100
AcDbSymbolTable
 70
     2
  0
LAYER
  5
10
330
2
100
AcDbSymbolTableRecord
100
AcDbLayerTableRecord
  2
0
 70
     0
 62
     7
  6
Continuous
370
    -3
390
F
347
3E
  0
LAYER
  5
40
330
2
100
AcDbSymbolTableRecord
100
AcDbLayerTableRecord
  2
Layer 1
 70
     0
 62
     7
  6
Continuous
370
    -3
390
F
347
3E
  0
ENDTAB
  0
TABLE
  2
STYLE
  5
3
330
0
100
AcDbSymbolTable
 70
     1
  0
STYLE
  5
11
330
3
100
AcDbSymbolTableRecord
100
AcDbTextStyleTableRecord
  2
Standard
 70
     0
 40
0.0
 41
1.0
 50
0.0
 71
     0
 42
0.2
  3
txt
  4

  0
ENDTAB
  0
TABLE
  2
VIEW
  5
6
330
0
100
AcDbSymbolTable
 70
     0
  0
ENDTAB
  0
TABLE
  2
UCS
  5
7
330
0
100
AcDbSymbolTable
 70
     0
  0
ENDTAB
  0
TABLE
  2
APPID
  5
9
330
0
100
AcDbSymbolTable
 70
     2
  0
APPID
  5
12
330
9
100
AcDbSymbolTableRecord
100
AcDbRegAppTableRecord
  2
ACAD
 70
     0
  0
APPID
  5
3F
330
9
100
AcDbSymbolTableRecord
100
AcDbRegAppTableRecord
  2
ODA
 70
     0
  0
ENDTAB
  0
TABLE
  2
DIMSTYLE
  5
A
330
0
100
AcDbSymbolTable
 70
     1
100
AcDbDimStyleTable
  0
DIMSTYLE
105
27
330
A
100
AcDbSymbolTableRecord
100
AcDbDimStyleTableRecord
  2
Standard
 70
     0
178
     0
340
11
  0
ENDTAB
  0
TABLE
  2
BLOCK_RECORD
  5
1
330
0
100
AcDbSymbolTable
 70
     1
  0
BLOCK_RECORD
  5
1F
330
1
100
AcDbSymbolTableRecord
100
AcDbBlockTableRecord
  2
*Model_Space
340
22
 70
     0
280
     1
281
     0
  0
BLOCK_RECORD
  5
1B
330
1
100
AcDbSymbolTableRecord
100
AcDbBlockTableRecord
  2
*Paper_Space
340
1E
 70
     0
280
     1
281
     0
  0
BLOCK_RECORD
  5
23
330
1
100
AcDbSymbolTableRecord
100
AcDbBlockTableRecord
  2
*Paper_Space0
340
26
 70
     0
280
     1
281
     0
  0
ENDTAB
  0
ENDSEC
  0
SECTION
  2
BLOCKS
  0
BLOCK
  5
20
330
1F
100
AcDbEntity
  8
0
100
AcDbBlockBegin
  2
*Model_Space
 70
     0
 10
0.0
 20
0.0
 30
0.0
  3
*Model_Space
  1

  0
ENDBLK
  5
21
330
1F
100
AcDbEntity
  8
0
100
AcDbBlockEnd
  0
BLOCK
  5
1C
330
1B
100
AcDbEntity
 67
     1
  8
0
100
AcDbBlockBegin
  2
*Paper_Space
 70
     0
 10
0.0
 20
0.0
 30
0.0
  3
*Paper_Space
  1

  0
ENDBLK
  5
1D
330
1B
100
AcDbEntity
 67
     1
  8
0
100
AcDbBlockEnd
  0
BLOCK
  5
24
330
23
100
AcDbEntity
  8
0
100
AcDbBlockBegin
  2
*Paper_Space0
 70
     0
 10
0.0
 20
0.0
 30
0.0
  3
*Paper_Space0
  1

  0
ENDBLK
  5
25
330
23
100
AcDbEntity
  8
0
100
AcDbBlockEnd
  0
ENDSEC
  0
SECTION
  2
ENTITIES
  0
SPLINE
  5
41
330
1F
100
AcDbEntity
  8
Layer 1
 62
     5
100
AcDbSpline
210
0.0
220
0.0
230
1.0
 70
    11
 71
     3
 72
    64
 73
    60
 74
     0
 42
0.0000000001
 43
0.0000000001
 12
1.0
 22
0.0
 32
0.0
 13
1.0
 23
0.0
 33
0.0
 40
0.0
 40
0.0
 40
0.0
 40
0.0
 40
0.0625
 40
0.0625
 40
0.0625
 40
0.0625
 40
0.125
 40
0.125
 40
0.125
 40
0.125
 40
0.1875
 40
0.1875
 40
0.1875
 40
0.1875
 40
0.25
 40
0.25
 40
0.25
 40
0.25
 40
0.3125
 40
0.3125
 40
0.3125
 40
0.3125
 40
0.375
 40
0.375
 40
0.375
 40
0.375
 40
0.4375
 40
0.4375
 40
0.4375
 40
0.4375
 40
0.5
 40
0.5
 40
0.5
 40
0.5
 40
0.5625
 40
0.5625
 40
0.5625
 40
0.5625
 40
0.625
 40
0.625
 40
0.625
 40
0.625
 40
0.6875
 40
0.6875
 40
0.6875
 40
0.6875
 40
0.75
 40
0.75
 40
0.75
 40
0.75
 40
0.8125
 40
0.8125
 40
0.8125
 40
0.8125
 40
0.875
 40
0.875
 40
0.875
 40
0.875
 40
1.0
 40
1.0
 40
1.0
 40
1.0
 10
-10.77004
 20
-3.79419
 30
0.0
 10
-10.76699
 20
-3.76445
 30
0.0
 10
-10.77381
 20
-3.73783
 30
0.0
 10
-10.78839
 20
-3.71718
 30
0.0
 10
-10.78839
 20
-3.71718
 30
0.0
 10
-10.80298
 20
-3.69653
 30
0.0
 10
-10.82582
 20
-3.68124
 30
0.0
 10
-10.85473
 20
-3.6742
 30
0.0
 10
-10.85473
 20
-3.6742
 30
0.0
 10
-10.88581
 20
-3.66664
 30
0.0
 10
-10.90998
 20
-3.66845
 30
0.0
 10
-10.9291
 20
-3.67677
 30
0.0
 10
-10.9291
 20
-3.67677
 30
0.0
 10
-10.94853
 20
-3.68524
 30
0.0
 10
-10.96489
 20
-3.70125
 30
0.0
 10
-10.97919
 20
-3.72149
 30
0.0
 10
-10.97919
 20
-3.72149
 30
0.0
 10
-10.98
 20
-3.72264
 30
0.0
 10
-10.98085
 20
-3.72375
 30
0.0
 10
-10.98174
 20
-3.72481
 30
0.0
 10
-10.98174
 20
-3.72481
 30
0.0
 10
-10.9921
 20
-3.74105
 30
0.0
 10
-10.99094
 20
-3.7719
 30
0.0
 10
-10.98324
 20
-3.80311
 30
0.0
 10
-10.98324
 20
-3.80311
 30
0.0
 10
-10.97508
 20
-3.83619
 30
0.0
 10
-10.96027
 20
-3.86619
 30
0.0
 10
-10.94409
 20
-3.8788
 30
0.0
 10
-10.94409
 20
-3.8788
 30
0.0
 10
-10.94341
 20
-3.87933
 30
0.0
 10
-10.94286
 20
-3.87974
 30
0.0
 10
-10.94249
 20
-3.87997
 30
0.0
 10
-10.94249
 20
-3.87997
 30
0.0
 10
-10.93206
 20
-3.88663
 30
0.0
 10
-10.9207
 20
-3.89153
 30
0.0
 10
-10.90892
 20
-3.89469
 30
0.0
 10
-10.90892
 20
-3.89469
 30
0.0
 10
-10.88584
 20
-3.90088
 30
0.0
 10
-10.86193
 20
-3.89988
 30
0.0
 10
-10.84068
 20
-3.8922
 30
0.0
 10
-10.84068
 20
-3.8922
 30
0.0
 10
-10.84068
 20
-3.8922
 30
0.0
 10
-10.83869
 20
-3.89153
 30
0.0
 10
-10.83869
 20
-3.89153
 30
0.0
 10
-10.83869
 20
-3.89153
 30
0.0
 10
-10.81865
 20
-3.88388
 30
0.0
 10
-10.80093
 20
-3.87015
 30
0.0
 10
-10.78861
 20
-3.85086
 30
0.0
 10
-10.78861
 20
-3.85086
 30
0.0
 10
-10.78275
 20
-3.84168
 30
0.0
 10
-10.77797
 20
-3.83083
 30
0.0
 10
-10.77463
 20
-3.81837
 30
0.0
 10
-10.77463
 20
-3.81837
 30
0.0
 10
-10.77329
 20
-3.81339
 30
0.0
 10
-10.77232
 20
-3.80931
 30
0.0
 10
-10.77174
 20
-3.80615
 30
0.0
 10
-10.77174
 20
-3.80615
 30
0.0
 10
-10.77105
 20
-3.80237
 30
0.0
 10
-10.77047
 20
-3.79835
 30
0.0
 10
-10.77004
 20
-3.79419
 30
0.0
  0
SPLINE
  5
42
330
1F
100
AcDbEntity
  8
Layer 1
 62
     5
100
AcDbSpline
210
0.0
220
0.0
230
1.0
 70
    11
 71
     3
 72
    68
 73
    64
 74
     0
 42
0.0000000001
 43
0.0000000001
 12
1.0
 22
0.0
 32
0.0
 13
1.0
 23
0.0
 33
0.0
 40
0.0
 40
0.0
 40
0.0
 40
0.0
 40
0.0588235294117647
 40
0.0588235294117647
 40
0.0588235294117647
 40
0.0588235294117647
 40
0.1176470588235294
 40
0.1176470588235294
 40
0.1176470588235294
 40
0.1176470588235294
 40
0.1764705882352941
 40
0.1764705882352941
 40
0.1764705882352941
 40
0.1764705882352941
 40
0.2352941176470588
 40
0.2352941176470588
 40
0.2352941176470588
 40
0.2352941176470588
 40
0.2941176470588235
 40
0.2941176470588235
 40
0.2941176470588235
 40
0.2941176470588235
 40
0.3529411764705883
 40
0.3529411764705883
 40
0.3529411764705883
 40
0.3529411764705883
 40
0.4117647058823529
 40
0.4117647058823529
 40
0.4117647058823529
 40
0.4117647058823529
 40
0.4705882352941176
 40
0.4705882352941176
 40
0.4705882352941176
 40
0.4705882352941176
 40
0.5294117647058824
 40
0.5294117647058824
 40
0.5294117647058824
 40
0.5294117647058824
 40
0.5882352941176471
 40
0.5882352941176471
 40
0.5882352941176471
 40
0.5882352941176471
 40
0.6470588235294118
 40
0.6470588235294118
 40
0.6470588235294118
 40
0.6470588235294118
 40
0.7058823529411765
 40
0.7058823529411765
 40
0.7058823529411765
 40
0.7058823529411765
 40
0.7647058823529411
 40
0.7647058823529411
 40
0.7647058823529411
 40
0.7647058823529411
 40
0.8235294117647058
 40
0.8235294117647058
 40
0.8235294117647058
 40
0.8235294117647058
 40
0.8823529411764706
 40
0.8823529411764706
 40
0.8823529411764706
 40
0.8823529411764706
 40
1.0
 40
1.0
 40
1.0
 40
1.0
 10
-10.70675
 20
-3.65976
 30
0.0
 10
-10.67856
 20
-3.69968
 30
0.0
 10
-10.66521
 20
-3.74972
 30
0.0
 10
-10.67082
 20
-3.80435
 30
0.0
 10
-10.67082
 20
-3.80435
 30
0.0
 10
-10.67148
 20
-3.81064
 30
0.0
 10
-10.67244
 20
-3.81725
 30
0.0
 10
-10.6737
 20
-3.82411
 30
0.0
 10
-10.6737
 20
-3.82411
 30
0.0
 10
-10.67508
 20
-3.83159
 30
0.0
 10
-10.67658
 20
-3.8383
 30
0.0
 10
-10.67815
 20
-3.84415
 30
0.0
 10
-10.67815
 20
-3.84415
 30
0.0
 10
-10.68408
 20
-3.86622
 30
0.0
 10
-10.69313
 20
-3.88636
 30
0.0
 10
-10.70463
 20
-3.90438
 30
0.0
 10
-10.70463
 20
-3.90438
 30
0.0
 10
-10.72913
 20
-3.94274
 30
0.0
 10
-10.76431
 20
-3.9699
 30
0.0
 10
-10.80406
 20
-3.98491
 30
0.0
 10
-10.80406
 20
-3.98491
 30
0.0
 10
-10.80492
 20
-3.98528
 30
0.0
 10
-10.8058
 20
-3.98564
 30
0.0
 10
-10.8067
 20
-3.98596
 30
0.0
 10
-10.8067
 20
-3.98596
 30
0.0
 10
-10.84712
 20
-4.00057
 30
0.0
 10
-10.89197
 20
-4.00264
 30
0.0
 10
-10.9347
 20
-3.99117
 30
0.0
 10
-10.9347
 20
-3.99117
 30
0.0
 10
-10.95564
 20
-3.98556
 30
0.0
 10
-10.97634
 20
-3.97651
 30
0.0
 10
-10.99601
 20
-3.96395
 30
0.0
 10
-10.99601
 20
-3.96395
 30
0.0
 10
-10.99934
 20
-3.96183
 30
0.0
 10
-11.00247
 20
-3.95961
 30
0.0
 10
-11.00541
 20
-3.95732
 30
0.0
 10
-11.00541
 20
-3.95732
 30
0.0
 10
-11.03905
 20
-3.93111
 30
0.0
 10
-11.06709
 20
-3.87978
 30
0.0
 10
-11.08012
 20
-3.82693
 30
0.0
 10
-11.08012
 20
-3.82693
 30
0.0
 10
-11.09361
 20
-3.77221
 30
0.0
 10
-11.09201
 20
-3.71245
 30
0.0
 10
-11.06571
 20
-3.67127
 30
0.0
 10
-11.06571
 20
-3.67127
 30
0.0
 10
-11.06442
 20
-3.66925
 30
0.0
 10
-11.0631
 20
-3.6673
 30
0.0
 10
-11.06176
 20
-3.66545
 30
0.0
 10
-11.06176
 20
-3.66545
 30
0.0
 10
-11.06176
 20
-3.66545
 30
0.0
 10
-11.06083
 20
-3.66407
 30
0.0
 10
-11.06083
 20
-3.66407
 30
0.0
 10
-11.06083
 20
-3.66407
 30
0.0
 10
-11.03667
 20
-3.62988
 30
0.0
 10
-11.00707
 20
-3.60199
 30
0.0
 10
-10.96894
 20
-3.58537
 30
0.0
 10
-10.96894
 20
-3.58537
 30
0.0
 10
-10.93049
 20
-3.56863
 30
0.0
 10
-10.88537
 20
-3.56415
 30
0.0
 10
-10.83129
 20
-3.57732
 30
0.0
 10
-10.83129
 20
-3.57732
 30
0.0
 10
-10.77801
 20
-3.59029
 30
0.0
 10
-10.7351
 20
-3.61963
 30
0.0
 10
-10.70675
 20
-3.65976
 30
0.0
  0
SPLINE
  5
43
330
1F
100
AcDbEntity
  8
Layer 1
 62
     5
100
AcDbSpline
210
0.0
220
0.0
230
1.0
 70
    11
 71
     3
 72
   116
 73
   112
 74
     0
 42
0.0000000001
 43
0.0000000001
 12
1.0
 22
0.0
 32
0.0
 13
1.0
 23
0.0
 33
0.0
 40
0.0
 40
0.0
 40
0.0
 40
0.0
 40
0.0344827586206897
 40
0.0344827586206897
 40
0.0344827586206897
 40
0.0344827586206897
 40
0.0689655172413793
 40
0.0689655172413793
 40
0.0689655172413793
 40
0.0689655172413793
 40
0.103448275862069
 40
0.103448275862069
 40
0.103448275862069
 40
0.103448275862069
 40
0.1379310344827586
 40
0.1379310344827586
 40
0.1379310344827586
 40
0.1379310344827586
 40
0.1724137931034483
 40
0.1724137931034483
 40
0.1724137931034483
 40
0.1724137931034483
 40
0.2068965517241379
 40
0.2068965517241379
 40
0.2068965517241379
 40
0.2068965517241379
 40
0.2413793103448276
 40
0.2413793103448276
 40
0.2413793103448276
 40
0.2413793103448276
 40
0.2758620689655172
 40
0.2758620689655172
 40
0.2758620689655172
 40
0.2758620689655172
 40
0.3103448275862069
 40
0.3103448275862069
 40
0.3103448275862069
 40
0.3103448275862069
 40
0.3448275862068966
 40
0.3448275862068966
 40
0.3448275862068966
 40
0.3448275862068966
 40
0.3793103448275862
 40
0.3793103448275862
 40
0.3793103448275862
 40
0.3793103448275862
 40
0.4137931034482759
 40
0.4137931034482759
 40
0.4137931034482759
 40
0.4137931034482759
 40
0.4482758620689655
 40
0.4482758620689655
 40
0.4482758620689655
 40
0.4482758620689655
 40
0.4827586206896552
 40
0.4827586206896552
 40
0.4827586206896552
 40
0.4827586206896552
 40
0.5172413793103449
 40
0.5172413793103449
 40
0.5172413793103449
 40
0.5172413793103449
 40
0.5517241379310345
 40
0.5517241379310345
 40
0.5517241379310345
 40
0.5517241379310345
 40
0.5862068965517241
 40
0.5862068965517241
 40
0.5862068965517241
 40
0.5862068965517241
 40
0.6206896551724138
 40
0.6206896551724138
 40
0.6206896551724138
 40
0.6206896551724138
 40
0.6551724137931034
 40
0.6551724137931034
 40
0.6551724137931034
 40
0.6551724137931034
 40
0.6896551724137931
 40
0.6896551724137931
 40
0.6896551724137931
 40
0.6896551724137931
 40
0.7241379310344828
 40
0.7241379310344828
 40
0.7241379310344828
 40
0.7241379310344828
 40
0.7586206896551724
 40
0.7586206896551724
 40
0.7586206896551724
 40
0.7586206896551724
 40
0.7931034482758621
 40
0.7931034482758621
 40
0.7931034482758621
 40
0.7931034482758621
 40
0.8275862068965517
 40
0.8275862068965517
 40
0.8275862068965517
 40
0.8275862068965517
 40
0.8620689655172413
 40
0.8620689655172413
 40
0.8620689655172413
 40
0.8620689655172413
 40
0.896551724137931
 40
0.896551724137931
 40
0.896551724137931
 40
0.896551724137931
 40
0.9310344827586207
 40
0.9310344827586207
 40
0.9310344827586207
 40
0.9310344827586207
 40
1.0
 40
1.0
 40
1.0
 40
1.0
 10
-11.97893
 20
-5.23474
 30
0.0
 10
-11.97893
 20
-5.23474
 30
0.0
 10
-11.97826
 20
-5.22978
 30
0.0
 10
-11.97826
 20
-5.22978
 30
0.0
 10
-11.97826
 20
-5.22978
 30
0.0
 10
-11.97802
 20
-5.2284
 30
0.0
 10
-11.97772
 20
-5.22705
 30
0.0
 10
-11.97738
 20
-5.22571
 30
0.0
 10
-11.97738
 20
-5.22571
 30
0.0
 10
-11.97738
 20
-5.22571
 30
0.0
 10
-11.97707
 20
-5.22406
 30
0.0
 10
-11.97707
 20
-5.22406
 30
0.0
 10
-11.97707
 20
-5.22406
 30
0.0
 10
-11.97691
 20
-5.22316
 30
0.0
 10
-11.97671
 20
-5.22227
 30
0.0
 10
-11.9765
 20
-5.22139
 30
0.0
 10
-11.9765
 20
-5.22139
 30
0.0
 10
-11.96605
 20
-5.17005
 30
0.0
 10
-11.95201
 20
-5.11375
 30
0.0
 10
-11.93641
 20
-5.05855
 30
0.0
 10
-11.93641
 20
-5.05855
 30
0.0
 10
-11.91942
 20
-4.99838
 30
0.0
 10
-11.90036
 20
-4.9384
 30
0.0
 10
-11.88185
 20
-4.88638
 30
0.0
 10
-11.88185
 20
-4.88638
 30
0.0
 10
-11.85573
 20
-4.81295
 30
0.0
 10
-11.83015
 20
-4.74128
 30
0.0
 10
-11.80033
 20
-4.66616
 30
0.0
 10
-11.80033
 20
-4.66616
 30
0.0
 10
-11.77121
 20
-4.59277
 30
0.0
 10
-11.73963
 20
-4.5207
 30
0.0
 10
-11.70257
 20
-4.44929
 30
0.0
 10
-11.70257
 20
-4.44929
 30
0.0
 10
-11.70257
 20
-4.44929
 30
0.0
 10
-11.6882
 20
-4.42151
 30
0.0
 10
-11.6882
 20
-4.42151
 30
0.0
 10
-11.6882
 20
-4.42151
 30
0.0
 10
-11.61344
 20
-4.27682
 30
0.0
 10
-11.52452
 20
-4.10471
 30
0.0
 10
-11.39655
 20
-3.99773
 30
0.0
 10
-11.39655
 20
-3.99773
 30
0.0
 10
-11.349
 20
-3.958
 30
0.0
 10
-11.26982
 20
-3.93703
 30
0.0
 10
-11.20289
 20
-3.94159
 30
0.0
 10
-11.20289
 20
-3.94159
 30
0.0
 10
-11.17279
 20
-3.94365
 30
0.0
 10
-11.14402
 20
-3.95081
 30
0.0
 10
-11.12003
 20
-3.96363
 30
0.0
 10
-11.12003
 20
-3.96363
 30
0.0
 10
-11.09162
 20
-3.97883
 30
0.0
 10
-11.07005
 20
-4.00144
 30
0.0
 10
-11.05974
 20
-4.03232
 30
0.0
 10
-11.05974
 20
-4.03232
 30
0.0
 10
-11.04905
 20
-4.06437
 30
0.0
 10
-11.05157
 20
-4.10299
 30
0.0
 10
-11.07314
 20
-4.14807
 30
0.0
 10
-11.07314
 20
-4.14807
 30
0.0
 10
-11.09451
 20
-4.19275
 30
0.0
 10
-11.13225
 20
-4.21807
 30
0.0
 10
-11.17057
 20
-4.24376
 30
0.0
 10
-11.17057
 20
-4.24376
 30
0.0
 10
-11.1944
 20
-4.25974
 30
0.0
 10
-11.21858
 20
-4.27597
 30
0.0
 10
-11.23211
 20
-4.29485
 30
0.0
 10
-11.23211
 20
-4.29485
 30
0.0
 10
-11.28674
 20
-4.37112
 30
0.0
 10
-11.33634
 20
-4.46461
 30
0.0
 10
-11.3811
 20
-4.549
 30
0.0
 10
-11.3811
 20
-4.549
 30
0.0
 10
-11.3811
 20
-4.549
 30
0.0
 10
-11.38716
 20
-4.56043
 30
0.0
 10
-11.38716
 20
-4.56043
 30
0.0
 10
-11.38716
 20
-4.56043
 30
0.0
 10
-11.47578
 20
-4.72747
 30
0.0
 10
-11.52342
 20
-4.90106
 30
0.0
 10
-11.57226
 20
-5.07913
 30
0.0
 10
-11.57226
 20
-5.07913
 30
0.0
 10
-11.58554
 20
-5.12758
 30
0.0
 10
-11.59894
 20
-5.17636
 30
0.0
 10
-11.61273
 20
-5.22379
 30
0.0
 10
-11.61273
 20
-5.22379
 30
0.0
 10
-11.62573
 20
-5.26838
 30
0.0
 10
-11.63917
 20
-5.31117
 30
0.0
 10
-11.66437
 20
-5.34643
 30
0.0
 10
-11.66437
 20
-5.34643
 30
0.0
 10
-11.69358
 20
-5.3873
 30
0.0
 10
-11.73463
 20
-5.41489
 30
0.0
 10
-11.79901
 20
-5.41844
 30
0.0
 10
-11.79901
 20
-5.41844
 30
0.0
 10
-11.79901
 20
-5.41844
 30
0.0
 10
-11.79966
 20
-5.41847
 30
0.0
 10
-11.79966
 20
-5.41847
 30
0.0
 10
-11.79966
 20
-5.41847
 30
0.0
 10
-11.81508
 20
-5.41929
 30
0.0
 10
-11.82992
 20
-5.41866
 30
0.0
 10
-11.84394
 20
-5.41671
 30
0.0
 10
-11.84394
 20
-5.41671
 30
0.0
 10
-11.88193
 20
-5.4114
 30
0.0
 10
-11.91445
 20
-5.3962
 30
0.0
 10
-11.9386
 20
-5.37226
 30
0.0
 10
-11.9386
 20
-5.37226
 30
0.0
 10
-11.96364
 20
-5.34747
 30
0.0
 10
-11.97878
 20
-5.31436
 30
0.0
 10
-11.98097
 20
-5.27421
 30
0.0
 10
-11.98097
 20
-5.27421
 30
0.0
 10
-11.98161
 20
-5.26227
 30
0.0
 10
-11.98107
 20
-5.24976
 30
0.0
 10
-11.97926
 20
-5.23676
 30
0.0
 10
-11.97926
 20
-5.23676
 30
0.0
 10
-11.97926
 20
-5.23676
 30
0.0
 10
-11.97893
 20
-5.23474
 30
0.0
 10
-11.97893
 20
-5.23474
 30
0.0
  0
SPLINE
  5
44
330
1F
100
AcDbEntity
  8
Layer 1
 62
     5
100
AcDbSpline
210
0.0
220
0.0
230
1.0
 70
    11
 71
     3
 72
   116
 73
   112
 74
     0
 42
0.0000000001
 43
0.0000000001
 12
1.0
 22
0.0
 32
0.0
 13
1.0
 23
0.0
 33
0.0
 40
0.0
 40
0.0
 40
0.0
 40
0.0
 40
0.0344827586206897
 40
0.0344827586206897
 40
0.0344827586206897
 40
0.0344827586206897
 40
0.0689655172413793
 40
0.0689655172413793
 40
0.0689655172413793
 40
0.0689655172413793
 40
0.103448275862069
 40
0.103448275862069
 40
0.103448275862069
 40
0.103448275862069
 40
0.1379310344827586
 40
0.1379310344827586
 40
0.1379310344827586
 40
0.1379310344827586
 40
0.1724137931034483
 40
0.1724137931034483
 40
0.1724137931034483
 40
0.1724137931034483
 40
0.2068965517241379
 40
0.2068965517241379
 40
0.2068965517241379
 40
0.2068965517241379
 40
0.2413793103448276
 40
0.2413793103448276
 40
0.2413793103448276
 40
0.2413793103448276
 40
0.2758620689655172
 40
0.2758620689655172
 40
0.2758620689655172
 40
0.2758620689655172
 40
0.3103448275862069
 40
0.3103448275862069
 40
0.3103448275862069
 40
0.3103448275862069
 40
0.3448275862068966
 40
0.3448275862068966
 40
0.3448275862068966
 40
0.3448275862068966
 40
0.3793103448275862
 40
0.3793103448275862
 40
0.3793103448275862
 40
0.3793103448275862
 40
0.4137931034482759
 40
0.4137931034482759
 40
0.4137931034482759
 40
0.4137931034482759
 40
0.4482758620689655
 40
0.4482758620689655
 40
0.4482758620689655
 40
0.4482758620689655
 40
0.4827586206896552
 40
0.4827586206896552
 40
0.4827586206896552
 40
0.4827586206896552
 40
0.5172413793103449
 40
0.5172413793103449
 40
0.5172413793103449
 40
0.5172413793103449
 40
0.5517241379310345
 40
0.5517241379310345
 40
0.5517241379310345
 40
0.5517241379310345
 40
0.5862068965517241
 40
0.5862068965517241
 40
0.5862068965517241
 40
0.5862068965517241
 40
0.6206896551724138
 40
0.6206896551724138
 40
0.6206896551724138
 40
0.6206896551724138
 40
0.6551724137931034
 40
0.6551724137931034
 40
0.6551724137931034
 40
0.6551724137931034
 40
0.6896551724137931
 40
0.6896551724137931
 40
0.6896551724137931
 40
0.6896551724137931
 40
0.7241379310344828
 40
0.7241379310344828
 40
0.7241379310344828
 40
0.7241379310344828
 40
0.7586206896551724
 40
0.7586206896551724
 40
0.7586206896551724
 40
0.7586206896551724
 40
0.7931034482758621
 40
0.7931034482758621
 40
0.7931034482758621
 40
0.7931034482758621
 40
0.8275862068965517
 40
0.8275862068965517
 40
0.8275862068965517
 40
0.8275862068965517
 40
0.8620689655172413
 40
0.8620689655172413
 40
0.8620689655172413
 40
0.8620689655172413
 40
0.896551724137931
 40
0.896551724137931
 40
0.896551724137931
 40
0.896551724137931
 40
0.9310344827586207
 40
0.9310344827586207
 40
0.9310344827586207
 40
0.9310344827586207
 40
1.0
 40
1.0
 40
1.0
 40
1.0
 10
-11.87982
 20
-5.24696
 30
0.0
 10
-11.88012
 20
-5.24866
 30
0.0
 10
-11.88024
 20
-5.2491
 30
0.0
 10
-11.8803
 20
-5.24931
 30
0.0
 10
-11.8803
 20
-5.24931
 30
0.0
 10
-11.8803
 20
-5.24931
 30
0.0
 10
-11.88044
 20
-5.25044
 30
0.0
 10
-11.88044
 20
-5.25044
 30
0.0
 10
-11.88044
 20
-5.25044
 30
0.0
 10
-11.88138
 20
-5.25718
 30
0.0
 10
-11.88167
 20
-5.26343
 30
0.0
 10
-11.88137
 20
-5.26913
 30
0.0
 10
-11.88137
 20
-5.26913
 30
0.0
 10
-11.88061
 20
-5.28305
 30
0.0
 10
-11.87593
 20
-5.29399
 30
0.0
 10
-11.86828
 20
-5.30156
 30
0.0
 10
-11.86828
 20
-5.30156
 30
0.0
 10
-11.85977
 20
-5.31
 30
0.0
 10
-11.84668
 20
-5.3156
 30
0.0
 10
-11.83026
 20
-5.31789
 30
0.0
 10
-11.83026
 20
-5.31789
 30
0.0
 10
-11.82239
 20
-5.31898
 30
0.0
 10
-11.81387
 20
-5.31933
 30
0.0
 10
-11.80484
 20
-5.31887
 30
0.0
 10
-11.80484
 20
-5.31887
 30
0.0
 10
-11.80484
 20
-5.31887
 30
0.0
 10
-11.80447
 20
-5.31884
 30
0.0
 10
-11.80447
 20
-5.31884
 30
0.0
 10
-11.80447
 20
-5.31884
 30
0.0
 10
-11.77566
 20
-5.31726
 30
0.0
 10
-11.75783
 20
-5.30568
 30
0.0
 10
-11.74563
 20
-5.28861
 30
0.0
 10
-11.74563
 20
-5.28861
 30
0.0
 10
-11.72942
 20
-5.26593
 30
0.0
 10
-11.71888
 20
-5.2319
 30
0.0
 10
-11.70843
 20
-5.19605
 30
0.0
 10
-11.70843
 20
-5.19605
 30
0.0
 10
-11.69415
 20
-5.14694
 30
0.0
 10
-11.6812
 20
-5.09978
 30
0.0
 10
-11.66836
 20
-5.05295
 30
0.0
 10
-11.66836
 20
-5.05295
 30
0.0
 10
-11.61792
 20
-4.86905
 30
0.0
 10
-11.56872
 20
-4.68977
 30
0.0
 10
-11.47544
 20
-4.51395
 30
0.0
 10
-11.47544
 20
-4.51395
 30
0.0
 10
-11.47544
 20
-4.51395
 30
0.0
 10
-11.46938
 20
-4.50252
 30
0.0
 10
-11.46938
 20
-4.50252
 30
0.0
 10
-11.46938
 20
-4.50252
 30
0.0
 10
-11.42276
 20
-4.41463
 30
0.0
 10
-11.37109
 20
-4.31723
 30
0.0
 10
-11.31337
 20
-4.23665
 30
0.0
 10
-11.31337
 20
-4.23665
 30
0.0
 10
-11.28976
 20
-4.20369
 30
0.0
 10
-11.25766
 20
-4.18216
 30
0.0
 10
-11.22603
 20
-4.16094
 30
0.0
 10
-11.22603
 20
-4.16094
 30
0.0
 10
-11.19907
 20
-4.14286
 30
0.0
 10
-11.17251
 20
-4.12504
 30
0.0
 10
-11.16298
 20
-4.10511
 30
0.0
 10
-11.16298
 20
-4.10511
 30
0.0
 10
-11.15368
 20
-4.08568
 30
0.0
 10
-11.15149
 20
-4.07234
 30
0.0
 10
-11.15428
 20
-4.06396
 30
0.0
 10
-11.15428
 20
-4.06396
 30
0.0
 10
-11.15588
 20
-4.05916
 30
0.0
 10
-11.16047
 20
-4.05497
 30
0.0
 10
-11.16691
 20
-4.05153
 30
0.0
 10
-11.16691
 20
-4.05153
 30
0.0
 10
-11.17778
 20
-4.04572
 30
0.0
 10
-11.1927
 20
-4.04234
 30
0.0
 10
-11.20953
 20
-4.04119
 30
0.0
 10
-11.20953
 20
-4.04119
 30
0.0
 10
-11.25363
 20
-4.03818
 30
0.0
 10
-11.30405
 20
-4.05053
 30
0.0
 10
-11.33249
 20
-4.07429
 30
0.0
 10
-11.33249
 20
-4.07429
 30
0.0
 10
-11.44518
 20
-4.1685
 30
0.0
 10
-11.52903
 20
-4.33078
 30
0.0
 10
-11.59952
 20
-4.46721
 30
0.0
 10
-11.59952
 20
-4.46721
 30
0.0
 10
-11.59952
 20
-4.46721
 30
0.0
 10
-11.61389
 20
-4.49499
 30
0.0
 10
-11.61389
 20
-4.49499
 30
0.0
 10
-11.61389
 20
-4.49499
 30
0.0
 10
-11.64988
 20
-4.56435
 30
0.0
 10
-11.68013
 20
-4.63327
 30
0.0
 10
-11.70775
 20
-4.70288
 30
0.0
 10
-11.70775
 20
-4.70288
 30
0.0
 10
-11.73469
 20
-4.77074
 30
0.0
 10
-11.76088
 20
-4.84415
 30
0.0
 10
-11.78771
 20
-4.91958
 30
0.0
 10
-11.78771
 20
-4.91958
 30
0.0
 10
-11.80561
 20
-4.96986
 30
0.0
 10
-11.82398
 20
-5.02767
 30
0.0
 10
-11.84031
 20
-5.08551
 30
0.0
 10
-11.84031
 20
-5.08551
 30
0.0
 10
-11.85577
 20
-5.14023
 30
0.0
 10
-11.86932
 20
-5.19417
 30
0.0
 10
-11.87885
 20
-5.24101
 30
0.0
 10
-11.87885
 20
-5.24101
 30
0.0
 10
-11.87885
 20
-5.24101
 30
0.0
 10
-11.87903
 20
-5.24202
 30
0.0
 10
-11.87903
 20
-5.24202
 30
0.0
 10
-11.87903
 20
-5.24202
 30
0.0
 10
-11.87903
 20
-5.24202
 30
0.0
 10
-11.87939
 20
-5.24395
 30
0.0
 10
-11.87939
 20
-5.24395
 30
0.0
 10
-11.87939
 20
-5.24395
 30
0.0
 10
-11.87951
 20
-5.24496
 30
0.0
 10
-11.87964
 20
-5.24595
 30
0.0
 10
-11.87982
 20
-5.24696
 30
0.0
  0
SPLINE
  5
45
330
1F
100
AcDbEntity
  8
Layer 1
 62
     5
100
AcDbSpline
210
0.0
220
0.0
230
1.0
 70
    11
 71
     3
 72
    36
 73
    32
 74
     0
 42
0.0000000001
 43
0.0000000001
 12
1.0
 22
0.0
 32
0.0
 13
1.0
 23
0.0
 33
0.0
 40
0.0
 40
0.0
 40
0.0
 40
0.0
 40
0.1111111111111111
 40
0.1111111111111111
 40
0.1111111111111111
 40
0.1111111111111111
 40
0.2222222222222222
 40
0.2222222222222222
 40
0.2222222222222222
 40
0.2222222222222222
 40
0.3333333333333333
 40
0.3333333333333333
 40
0.3333333333333333
 40
0.3333333333333333
 40
0.4444444444444444
 40
0.4444444444444444
 40
0.4444444444444444
 40
0.4444444444444444
 40
0.5555555555555556
 40
0.5555555555555556
 40
0.5555555555555556
 40
0.5555555555555556
 40
0.6666666666666666
 40
0.6666666666666666
 40
0.6666666666666666
 40
0.6666666666666666
 40
0.7777777777777778
 40
0.7777777777777778
 40
0.7777777777777778
 40
0.7777777777777778
 40
1.0
 40
1.0
 40
1.0
 40
1.0
 10
-9.73289
 20
-8.40222
 30
0.0
 10
-9.73289
 20
-8.37461
 30
0.0
 10
-9.7105
 20
-8.35222
 30
0.0
 10
-9.68289
 20
-8.35222
 30
0.0
 10
-9.68289
 20
-8.35222
 30
0.0
 10
-9.65528
 20
-8.35222
 30
0.0
 10
-9.63289
 20
-8.37461
 30
0.0
 10
-9.63289
 20
-8.40222
 30
0.0
 10
-9.63289
 20
-8.40222
 30
0.0
 10
-9.63289
 20
-8.50808
 30
0.0
 10
-9.67582
 20
-8.60393
 30
0.0
 10
-9.74519
 20
-8.6733
 30
0.0
 10
-9.74519
 20
-8.6733
 30
0.0
 10
-9.81456
 20
-8.74267
 30
0.0
 10
-9.91041
 20
-8.7856
 30
0.0
 10
-10.01627
 20
-8.7856
 30
0.0
 10
-10.01627
 20
-8.7856
 30
0.0
 10
-10.04388
 20
-8.7856
 30
0.0
 10
-10.06627
 20
-8.76321
 30
0.0
 10
-10.06627
 20
-8.7356
 30
0.0
 10
-10.06627
 20
-8.7356
 30
0.0
 10
-10.06627
 20
-8.70799
 30
0.0
 10
-10.04388
 20
-8.6856
 30
0.0
 10
-10.01627
 20
-8.6856
 30
0.0
 10
-10.01627
 20
-8.6856
 30
0.0
 10
-9.93802
 20
-8.6856
 30
0.0
 10
-9.86716
 20
-8.65387
 30
0.0
 10
-9.81589
 20
-8.6026
 30
0.0
 10
-9.81589
 20
-8.6026
 30
0.0
 10
-9.76462
 20
-8.55133
 30
0.0
 10
-9.73289
 20
-8.48047
 30
0.0
 10
-9.73289
 20
-8.40222
 30
0.0
  0
SPLINE
  5
46
330
1F
100
AcDbEntity
  8
Layer 1
 62
     5
100
AcDbSpline
210
0.0
220
0.0
230
1.0
 70
    11
 71
     3
 72
    36
 73
    32
 74
     0
 42
0.0000000001
 43
0.0000000001
 12
1.0
 22
0.0
 32
0.0
 13
1.0
 23
0.0
 33
0.0
 40
0.0
 40
0.0
 40
0.0
 40
0.0
 40
0.1111111111111111
 40
0.1111111111111111
 40
0.1111111111111111
 40
0.1111111111111111
 40
0.2222222222222222
 40
0.2222222222222222
 40
0.2222222222222222
 40
0.2222222222222222
 40
0.3333333333333333
 40
0.3333333333333333
 40
0.3333333333333333
 40
0.3333333333333333
 40
0.4444444444444444
 40
0.4444444444444444
 40
0.4444444444444444
 40
0.4444444444444444
 40
0.5555555555555556
 40
0.5555555555555556
 40
0.5555555555555556
 40
0.5555555555555556
 40
0.6666666666666666
 40
0.6666666666666666
 40
0.6666666666666666
 40
0.6666666666666666
 40
0.7777777777777778
 40
0.7777777777777778
 40
0.7777777777777778
 40
0.7777777777777778
 40
1.0
 40
1.0
 40
1.0
 40
1.0
 10
-10.01569
 20
-8.6856
 30
0.0
 10
-9.98808
 20
-8.6856
 30
0.0
 10
-9.96569
 20
-8.70799
 30
0.0
 10
-9.96569
 20
-8.7356
 30
0.0
 10
-9.96569
 20
-8.7356
 30
0.0
 10
-9.96569
 20
-8.76321
 30
0.0
 10
-9.98808
 20
-8.7856
 30
0.0
 10
-10.01569
 20
-8.7856
 30
0.0
 10
-10.01569
 20
-8.7856
 30
0.0
 10
-10.12155
 20
-8.7856
 30
0.0
 10
-10.21739
 20
-8.74269
 30
0.0
 10
-10.28677
 20
-8.67331
 30
0.0
 10
-10.28677
 20
-8.67331
 30
0.0
 10
-10.35615
 20
-8.60393
 30
0.0
 10
-10.39906
 20
-8.50807
 30
0.0
 10
-10.39906
 20
-8.40222
 30
0.0
 10
-10.39906
 20
-8.40222
 30
0.0
 10
-10.39906
 20
-8.37461
 30
0.0
 10
-10.37667
 20
-8.35222
 30
0.0
 10
-10.34906
 20
-8.35222
 30
0.0
 10
-10.34906
 20
-8.35222
 30
0.0
 10
-10.32145
 20
-8.35222
 30
0.0
 10
-10.29906
 20
-8.37461
 30
0.0
 10
-10.29906
 20
-8.40222
 30
0.0
 10
-10.29906
 20
-8.40222
 30
0.0
 10
-10.29906
 20
-8.48047
 30
0.0
 10
-10.26734
 20
-8.55134
 30
0.0
 10
-10.21607
 20
-8.60261
 30
0.0
 10
-10.21607
 20
-8.60261
 30
0.0
 10
-10.1648
 20
-8.65388
 30
0.0
 10
-10.09394
 20
-8.6856
 30
0.0
 10
-10.01569
 20
-8.6856
 30
0.0
  0
SPLINE
  5
47
330
1F
100
AcDbEntity
  8
Layer 1
 62
     5
100
AcDbSpline
210
0.0
220
0.0
230
1.0
 70
    11
 71
     3
 72
    60
 73
    56
 74
     0
 42
0.0000000001
 43
0.0000000001
 12
1.0
 22
0.0
 32
0.0
 13
1.0
 23
0.0
 33
0.0
 40
0.0
 40
0.0
 40
0.0
 40
0.0
 40
0.0666666666666667
 40
0.0666666666666667
 40
0.0666666666666667
 40
0.0666666666666667
 40
0.1333333333333333
 40
0.1333333333333333
 40
0.1333333333333333
 40
0.1333333333333333
 40
0.2
 40
0.2
 40
0.2
 40
0.2
 40
0.2666666666666667
 40
0.2666666666666667
 40
0.2666666666666667
 40
0.2666666666666667
 40
0.3333333333333333
 40
0.3333333333333333
 40
0.3333333333333333
 40
0.3333333333333333
 40
0.4
 40
0.4
 40
0.4
 40
0.4
 40
0.4666666666666667
 40
0.4666666666666667
 40
0.4666666666666667
 40
0.4666666666666667
 40
0.5333333333333333
 40
0.5333333333333333
 40
0.5333333333333333
 40
0.5333333333333333
 40
0.6
 40
0.6
 40
0.6
 40
0.6
 40
0.6666666666666666
 40
0.6666666666666666
 40
0.6666666666666666
 40
0.6666666666666666
 40
0.7333333333333333
 40
0.7333333333333333
 40
0.7333333333333333
 40
0.7333333333333333
 40
0.8
 40
0.8
 40
0.8
 40
0.8
 40
0.8666666666666667
 40
0.8666666666666667
 40
0.8666666666666667
 40
0.8666666666666667
 40
1.0
 40
1.0
 40
1.0
 40
1.0
 10
-10.90973
 20
-6.37421
 30
0.0
 10
-10.99312
 20
-6.28147
 30
0.0
 10
-11.09636
 20
-6.1888
 30
0.0
 10
-11.20848
 20
-6.11088
 30
0.0
 10
-11.20848
 20
-6.11088
 30
0.0
 10
-11.3083
 20
-6.04153
 30
0.0
 10
-11.41481
 20
-5.98412
 30
0.0
 10
-11.52002
 20
-5.94926
 30
0.0
 10
-11.52002
 20
-5.94926
 30
0.0
 10
-11.68485
 20
-5.89464
 30
0.0
 10
-11.77085
 20
-5.9179
 30
0.0
 10
-11.81021
 20
-5.986
 30
0.0
 10
-11.81021
 20
-5.986
 30
0.0
 10
-11.85542
 20
-6.06419
 30
0.0
 10
-11.85389
 20
-6.20007
 30
0.0
 10
-11.83782
 20
-6.3512
 30
0.0
 10
-11.83782
 20
-6.3512
 30
0.0
 10
-11.82769
 20
-6.44661
 30
0.0
 10
-11.81233
 20
-6.54325
 30
0.0
 10
-11.79134
 20
-6.6393
 30
0.0
 10
-11.79134
 20
-6.6393
 30
0.0
 10
-11.77126
 20
-6.73124
 30
0.0
 10
-11.74633
 20
-6.82144
 30
0.0
 10
-11.71628
 20
-6.9081
 30
0.0
 10
-11.71628
 20
-6.9081
 30
0.0
 10
-11.6255
 20
-7.16976
 30
0.0
 10
-11.45348
 20
-7.43812
 30
0.0
 10
-11.22946
 20
-7.63461
 30
0.0
 10
-11.22946
 20
-7.63461
 30
0.0
 10
-11.03745
 20
-7.80301
 30
0.0
 10
-10.80759
 20
-7.91799
 30
0.0
 10
-10.55903
 20
-7.92888
 30
0.0
 10
-10.55903
 20
-7.92888
 30
0.0
 10
-10.48574
 20
-7.93209
 30
0.0
 10
-10.42306
 20
-7.93339
 30
0.0
 10
-10.37709
 20
-7.92002
 30
0.0
 10
-10.37709
 20
-7.92002
 30
0.0
 10
-10.33929
 20
-7.90903
 30
0.0
 10
-10.31108
 20
-7.88576
 30
0.0
 10
-10.2944
 20
-7.83963
 30
0.0
 10
-10.2944
 20
-7.83963
 30
0.0
 10
-10.2678
 20
-7.76612
 30
0.0
 10
-10.29362
 20
-7.63285
 30
0.0
 10
-10.31176
 20
-7.53924
 30
0.0
 10
-10.31176
 20
-7.53924
 30
0.0
 10
-10.31336
 20
-7.53094
 30
0.0
 10
-10.31481
 20
-7.52355
 30
0.0
 10
-10.31861
 20
-7.50295
 30
0.0
 10
-10.31861
 20
-7.50295
 30
0.0
 10
-10.35458
 20
-7.30788
 30
0.0
 10
-10.42758
 20
-7.11238
 30
0.0
 10
-10.52409
 20
-6.92785
 30
0.0
 10
-10.52409
 20
-6.92785
 30
0.0
 10
-10.63007
 20
-6.72518
 30
0.0
 10
-10.76459
 20
-6.53563
 30
0.0
 10
-10.90973
 20
-6.37421
 30
0.0
  0
SPLINE
  5
48
330
1F
100
AcDbEntity
  8
Layer 1
 62
     5
100
AcDbSpline
210
0.0
220
0.0
230
1.0
 70
    11
 71
     3
 72
    60
 73
    56
 74
     0
 42
0.0000000001
 43
0.0000000001
 12
1.0
 22
0.0
 32
0.0
 13
1.0
 23
0.0
 33
0.0
 40
0.0
 40
0.0
 40
0.0
 40
0.0
 40
0.0666666666666667
 40
0.0666666666666667
 40
0.0666666666666667
 40
0.0666666666666667
 40
0.1333333333333333
 40
0.1333333333333333
 40
0.1333333333333333
 40
0.1333333333333333
 40
0.2
 40
0.2
 40
0.2
 40
0.2
 40
0.2666666666666667
 40
0.2666666666666667
 40
0.2666666666666667
 40
0.2666666666666667
 40
0.3333333333333333
 40
0.3333333333333333
 40
0.3333333333333333
 40
0.3333333333333333
 40
0.4
 40
0.4
 40
0.4
 40
0.4
 40
0.4666666666666667
 40
0.4666666666666667
 40
0.4666666666666667
 40
0.4666666666666667
 40
0.5333333333333333
 40
0.5333333333333333
 40
0.5333333333333333
 40
0.5333333333333333
 40
0.6
 40
0.6
 40
0.6
 40
0.6
 40
0.6666666666666666
 40
0.6666666666666666
 40
0.6666666666666666
 40
0.6666666666666666
 40
0.7333333333333333
 40
0.7333333333333333
 40
0.7333333333333333
 40
0.7333333333333333
 40
0.8
 40
0.8
 40
0.8
 40
0.8
 40
0.8666666666666667
 40
0.8666666666666667
 40
0.8666666666666667
 40
0.8666666666666667
 40
1.0
 40
1.0
 40
1.0
 40
1.0
 10
-11.15144
 20
-6.02884
 30
0.0
 10
-11.03303
 20
-6.11113
 30
0.0
 10
-10.92384
 20
-6.20917
 30
0.0
 10
-10.83551
 20
-6.30741
 30
0.0
 10
-10.83551
 20
-6.30741
 30
0.0
 10
-10.68549
 20
-6.47425
 30
0.0
 10
-10.5461
 20
-6.67085
 30
0.0
 10
-10.43581
 20
-6.88175
 30
0.0
 10
-10.43581
 20
-6.88175
 30
0.0
 10
-10.33487
 20
-7.07476
 30
0.0
 10
-10.25841
 20
-7.27978
 30
0.0
 10
-10.22057
 20
-7.48499
 30
0.0
 10
-10.22057
 20
-7.48499
 30
0.0
 10
-10.22057
 20
-7.48499
 30
0.0
 10
-10.21372
 20
-7.52048
 30
0.0
 10
-10.21372
 20
-7.52048
 30
0.0
 10
-10.21372
 20
-7.52048
 30
0.0
 10
-10.19345
 20
-7.62509
 30
0.0
 10
-10.1646
 20
-7.77401
 30
0.0
 10
-10.20064
 20
-7.87361
 30
0.0
 10
-10.20064
 20
-7.87361
 30
0.0
 10
-10.22991
 20
-7.95456
 30
0.0
 10
-10.28073
 20
-7.99576
 30
0.0
 10
-10.34935
 20
-8.01572
 30
0.0
 10
-10.34935
 20
-8.01572
 30
0.0
 10
-10.40981
 20
-8.0333
 30
0.0
 10
-10.48102
 20
-8.03208
 30
0.0
 10
-10.56333
 20
-8.02848
 30
0.0
 10
-10.56333
 20
-8.02848
 30
0.0
 10
-10.83657
 20
-8.0165
 30
0.0
 10
-11.08718
 20
-7.89194
 30
0.0
 10
-11.29508
 20
-7.70961
 30
0.0
 10
-11.29508
 20
-7.70961
 30
0.0
 10
-11.53222
 20
-7.50161
 30
0.0
 10
-11.71431
 20
-7.21753
 30
0.0
 10
-11.81042
 20
-6.94052
 30
0.0
 10
-11.81042
 20
-6.94052
 30
0.0
 10
-11.8424
 20
-6.8483
 30
0.0
 10
-11.86847
 20
-6.75439
 30
0.0
 10
-11.889
 20
-6.6604
 30
0.0
 10
-11.889
 20
-6.6604
 30
0.0
 10
-11.91056
 20
-6.5617
 30
0.0
 10
-11.92645
 20
-6.46147
 30
0.0
 10
-11.93704
 20
-6.36174
 30
0.0
 10
-11.93704
 20
-6.36174
 30
0.0
 10
-11.95504
 20
-6.19241
 30
0.0
 10
-11.9549
 20
-6.03695
 30
0.0
 10
-11.89653
 20
-5.936
 30
0.0
 10
-11.89653
 20
-5.936
 30
0.0
 10
-11.83232
 20
-5.82493
 30
0.0
 10
-11.70974
 20
-5.78111
 30
0.0
 10
-11.48876
 20
-5.85434
 30
0.0
 10
-11.48876
 20
-5.85434
 30
0.0
 10
-11.37389
 20
-5.8924
 30
0.0
 10
-11.25866
 20
-5.95434
 30
0.0
 10
-11.15144
 20
-6.02884
 30
0.0
  0
SPLINE
  5
49
330
1F
100
AcDbEntity
  8
Layer 1
 62
     5
100
AcDbSpline
210
0.0
220
0.0
230
1.0
 70
    11
 71
     3
 72
    80
 73
    76
 74
     0
 42
0.0000000001
 43
0.0000000001
 12
1.0
 22
0.0
 32
0.0
 13
1.0
 23
0.0
 33
0.0
 40
0.0
 40
0.0
 40
0.0
 40
0.0
 40
0.05
 40
0.05
 40
0.05
 40
0.05
 40
0.1
 40
0.1
 40
0.1
 40
0.1
 40
0.15
 40
0.15
 40
0.15
 40
0.15
 40
0.2
 40
0.2
 40
0.2
 40
0.2
 40
0.25
 40
0.25
 40
0.25
 40
0.25
 40
0.3
 40
0.3
 40
0.3
 40
0.3
 40
0.35
 40
0.35
 40
0.35
 40
0.35
 40
0.4
 40
0.4
 40
0.4
 40
0.4
 40
0.45
 40
0.45
 40
0.45
 40
0.45
 40
0.5
 40
0.5
 40
0.5
 40
0.5
 40
0.55
 40
0.55
 40
0.55
 40
0.55
 40
0.6
 40
0.6
 40
0.6
 40
0.6
 40
0.65
 40
0.65
 40
0.65
 40
0.65
 40
0.7
 40
0.7
 40
0.7
 40
0.7
 40
0.75
 40
0.75
 40
0.75
 40
0.75
 40
0.8
 40
0.8
 40
0.8
 40
0.8
 40
0.85
 40
0.85
 40
0.85
 40
0.85
 40
0.9
 40
0.9
 40
0.9
 40
0.9
 40
1.0
 40
1.0
 40
1.0
 40
1.0
 10
-10.98587
 20
-7.05108
 30
0.0
 10
-10.98475
 20
-7.06681
 30
0.0
 10
-10.98173
 20
-7.08286
 30
0.0
 10
-10.97745
 20
-7.09831
 30
0.0
 10
-10.97745
 20
-7.09831
 30
0.0
 10
-10.97269
 20
-7.11552
 30
0.0
 10
-10.96612
 20
-7.13259
 30
0.0
 10
-10.95869
 20
-7.14821
 30
0.0
 10
-10.95869
 20
-7.14821
 30
0.0
 10
-10.94884
 20
-7.16888
 30
0.0
 10
-10.93727
 20
-7.18822
 30
0.0
 10
-10.92448
 20
-7.20601
 30
0.0
 10
-10.92448
 20
-7.20601
 30
0.0
 10
-10.91063
 20
-7.22527
 30
0.0
 10
-10.89497
 20
-7.24345
 30
0.0
 10
-10.87814
 20
-7.26021
 30
0.0
 10
-10.87814
 20
-7.26021
 30
0.0
 10
-10.87814
 20
-7.26021
 30
0.0
 10
-10.87805
 20
-7.26031
 30
0.0
 10
-10.87805
 20
-7.26031
 30
0.0
 10
-10.87805
 20
-7.26031
 30
0.0
 10
-10.87805
 20
-7.26031
 30
0.0
 10
-10.87795
 20
-7.26021
 30
0.0
 10
-10.87795
 20
-7.26021
 30
0.0
 10
-10.87795
 20
-7.26021
 30
0.0
 10
-10.87795
 20
-7.26021
 30
0.0
 10
-10.87045
 20
-7.26771
 30
0.0
 10
-10.87045
 20
-7.26771
 30
0.0
 10
-10.87045
 20
-7.26771
 30
0.0
 10
-10.86956
 20
-7.2686
 30
0.0
 10
-10.86872
 20
-7.26951
 30
0.0
 10
-10.86791
 20
-7.27044
 30
0.0
 10
-10.86791
 20
-7.27044
 30
0.0
 10
-10.8252
 20
-7.31316
 30
0.0
 10
-10.76188
 20
-7.37501
 30
0.0
 10
-10.72012
 20
-7.34018
 30
0.0
 10
-10.72012
 20
-7.34018
 30
0.0
 10
-10.71022
 20
-7.33192
 30
0.0
 10
-10.70572
 20
-7.31933
 30
0.0
 10
-10.70435
 20
-7.30535
 30
0.0
 10
-10.70435
 20
-7.30535
 30
0.0
 10
-10.70244
 20
-7.28601
 30
0.0
 10
-10.70604
 20
-7.26388
 30
0.0
 10
-10.71097
 20
-7.24372
 30
0.0
 10
-10.71097
 20
-7.24372
 30
0.0
 10
-10.72112
 20
-7.20228
 30
0.0
 10
-10.73857
 20
-7.16057
 30
0.0
 10
-10.76239
 20
-7.123
 30
0.0
 10
-10.76239
 20
-7.123
 30
0.0
 10
-10.78416
 20
-7.08864
 30
0.0
 10
-10.811
 20
-7.05828
 30
0.0
 10
-10.84204
 20
-7.03553
 30
0.0
 10
-10.84204
 20
-7.03553
 30
0.0
 10
-10.86882
 20
-7.01592
 30
0.0
 10
-10.90887
 20
-6.99314
 30
0.0
 10
-10.94363
 20
-6.98712
 30
0.0
 10
-10.94363
 20
-6.98712
 30
0.0
 10
-10.95329
 20
-6.98545
 30
0.0
 10
-10.96173
 20
-6.98514
 30
0.0
 10
-10.9679
 20
-6.98682
 30
0.0
 10
-10.9679
 20
-6.98682
 30
0.0
 10
-10.97114
 20
-6.9877
 30
0.0
 10
-10.97402
 20
-6.98954
 30
0.0
 10
-10.97628
 20
-6.99263
 30
0.0
 10
-10.97628
 20
-6.99263
 30
0.0
 10
-10.97978
 20
-6.99741
 30
0.0
 10
-10.98262
 20
-7.00501
 30
0.0
 10
-10.98452
 20
-7.01597
 30
0.0
 10
-10.98452
 20
-7.01597
 30
0.0
 10
-10.9855
 20
-7.0217
 30
0.0
 10
-10.9861
 20
-7.02712
 30
0.0
 10
-10.9863
 20
-7.03216
 30
0.0
 10
-10.9863
 20
-7.03216
 30
0.0
 10
-10.98653
 20
-7.03778
 30
0.0
 10
-10.98637
 20
-7.04415
 30
0.0
 10
-10.98587
 20
-7.05108
 30
0.0
  0
SPLINE
  5
4A
330
1F
100
AcDbEntity
  8
Layer 1
 62
     5
100
AcDbSpline
210
0.0
220
0.0
230
1.0
 70
    11
 71
     3
 72
    76
 73
    72
 74
     0
 42
0.0000000001
 43
0.0000000001
 12
1.0
 22
0.0
 32
0.0
 13
1.0
 23
0.0
 33
0.0
 40
0.0
 40
0.0
 40
0.0
 40
0.0
 40
0.0526315789473684
 40
0.0526315789473684
 40
0.0526315789473684
 40
0.0526315789473684
 40
0.1052631578947368
 40
0.1052631578947368
 40
0.1052631578947368
 40
0.1052631578947368
 40
0.1578947368421053
 40
0.1578947368421053
 40
0.1578947368421053
 40
0.1578947368421053
 40
0.2105263157894737
 40
0.2105263157894737
 40
0.2105263157894737
 40
0.2105263157894737
 40
0.2631578947368421
 40
0.2631578947368421
 40
0.2631578947368421
 40
0.2631578947368421
 40
0.3157894736842105
 40
0.3157894736842105
 40
0.3157894736842105
 40
0.3157894736842105
 40
0.3684210526315789
 40
0.3684210526315789
 40
0.3684210526315789
 40
0.3684210526315789
 40
0.4210526315789473
 40
0.4210526315789473
 40
0.4210526315789473
 40
0.4210526315789473
 40
0.4736842105263158
 40
0.4736842105263158
 40
0.4736842105263158
 40
0.4736842105263158
 40
0.5263157894736842
 40
0.5263157894736842
 40
0.5263157894736842
 40
0.5263157894736842
 40
0.5789473684210527
 40
0.5789473684210527
 40
0.5789473684210527
 40
0.5789473684210527
 40
0.631578947368421
 40
0.631578947368421
 40
0.631578947368421
 40
0.631578947368421
 40
0.6842105263157895
 40
0.6842105263157895
 40
0.6842105263157895
 40
0.6842105263157895
 40
0.7368421052631579
 40
0.7368421052631579
 40
0.7368421052631579
 40
0.7368421052631579
 40
0.7894736842105263
 40
0.7894736842105263
 40
0.7894736842105263
 40
0.7894736842105263
 40
0.8421052631578947
 40
0.8421052631578947
 40
0.8421052631578947
 40
0.8421052631578947
 40
0.8947368421052632
 40
0.8947368421052632
 40
0.8947368421052632
 40
0.8947368421052632
 40
1.0
 40
1.0
 40
1.0
 40
1.0
 10
-11.07355
 20
-7.12487
 30
0.0
 10
-11.07962
 20
-7.10296
 30
0.0
 10
-11.08388
 20
-7.0803
 30
0.0
 10
-11.08547
 20
-7.05812
 30
0.0
 10
-11.08547
 20
-7.05812
 30
0.0
 10
-11.08616
 20
-7.04861
 30
0.0
 10
-11.08632
 20
-7.03863
 30
0.0
 10
-11.0859
 20
-7.02826
 30
0.0
 10
-11.0859
 20
-7.02826
 30
0.0
 10
-11.08548
 20
-7.01791
 30
0.0
 10
-11.0845
 20
-7.00814
 30
0.0
 10
-11.08296
 20
-6.99917
 30
0.0
 10
-11.08296
 20
-6.99917
 30
0.0
 10
-11.07829
 20
-6.9722
 30
0.0
 10
-11.06916
 20
-6.95061
 30
0.0
 10
-11.05674
 20
-6.93365
 30
0.0
 10
-11.05674
 20
-6.93365
 30
0.0
 10
-11.04019
 20
-6.91105
 30
0.0
 10
-11.01864
 20
-6.89743
 30
0.0
 10
-10.99408
 20
-6.89072
 30
0.0
 10
-10.99408
 20
-6.89072
 30
0.0
 10
-10.97245
 20
-6.88481
 30
0.0
 10
-10.94961
 20
-6.88473
 30
0.0
 10
-10.92683
 20
-6.88868
 30
0.0
 10
-10.92683
 20
-6.88868
 30
0.0
 10
-10.87479
 20
-6.89769
 30
0.0
 10
-10.81912
 20
-6.92866
 30
0.0
 10
-10.78306
 20
-6.95507
 30
0.0
 10
-10.78306
 20
-6.95507
 30
0.0
 10
-10.74134
 20
-6.98564
 30
0.0
 10
-10.70601
 20
-7.02529
 30
0.0
 10
-10.67801
 20
-7.06948
 30
0.0
 10
-10.67801
 20
-7.06948
 30
0.0
 10
-10.6486
 20
-7.11588
 30
0.0
 10
-10.6269
 20
-7.16799
 30
0.0
 10
-10.61409
 20
-7.22028
 30
0.0
 10
-10.61409
 20
-7.22028
 30
0.0
 10
-10.60698
 20
-7.24936
 30
0.0
 10
-10.60191
 20
-7.28254
 30
0.0
 10
-10.60513
 20
-7.31511
 30
0.0
 10
-10.60513
 20
-7.31511
 30
0.0
 10
-10.60887
 20
-7.35306
 30
0.0
 10
-10.62329
 20
-7.38909
 30
0.0
 10
-10.65644
 20
-7.41674
 30
0.0
 10
-10.65644
 20
-7.41674
 30
0.0
 10
-10.76745
 20
-7.50935
 30
0.0
 10
-10.8701
 20
-7.4093
 30
0.0
 10
-10.93842
 20
-7.34095
 30
0.0
 10
-10.93842
 20
-7.34095
 30
0.0
 10
-10.93935
 20
-7.34014
 30
0.0
 10
-10.94026
 20
-7.3393
 30
0.0
 10
-10.94115
 20
-7.33841
 30
0.0
 10
-10.94115
 20
-7.33841
 30
0.0
 10
-10.94115
 20
-7.33841
 30
0.0
 10
-10.94865
 20
-7.33091
 30
0.0
 10
-10.94865
 20
-7.33091
 30
0.0
 10
-10.94865
 20
-7.33091
 30
0.0
 10
-10.94865
 20
-7.33091
 30
0.0
 10
-10.94856
 20
-7.33082
 30
0.0
 10
-10.94856
 20
-7.33082
 30
0.0
 10
-10.94856
 20
-7.33082
 30
0.0
 10
-10.9689
 20
-7.31056
 30
0.0
 10
-10.98807
 20
-7.28823
 30
0.0
 10
-11.00534
 20
-7.26421
 30
0.0
 10
-11.00534
 20
-7.26421
 30
0.0
 10
-11.0222
 20
-7.24076
 30
0.0
 10
-11.03697
 20
-7.21627
 30
0.0
 10
-11.04893
 20
-7.19117
 30
0.0
 10
-11.04893
 20
-7.19117
 30
0.0
 10
-11.05835
 20
-7.17138
 30
0.0
 10
-11.06693
 20
-7.14879
 30
0.0
 10
-11.07355
 20
-7.12487
 30
0.0
  0
SPLINE
  5
4B
330
1F
100
AcDbEntity
  8
Layer 1
 62
     5
100
AcDbSpline
210
0.0
220
0.0
230
1.0
 70
    11
 71
     3
 72
    64
 73
    60
 74
     0
 42
0.0000000001
 43
0.0000000001
 12
1.0
 22
0.0
 32
0.0
 13
1.0
 23
0.0
 33
0.0
 40
0.0
 40
0.0
 40
0.0
 40
0.0
 40
0.0625
 40
0.0625
 40
0.0625
 40
0.0625
 40
0.125
 40
0.125
 40
0.125
 40
0.125
 40
0.1875
 40
0.1875
 40
0.1875
 40
0.1875
 40
0.25
 40
0.25
 40
0.25
 40
0.25
 40
0.3125
 40
0.3125
 40
0.3125
 40
0.3125
 40
0.375
 40
0.375
 40
0.375
 40
0.375
 40
0.4375
 40
0.4375
 40
0.4375
 40
0.4375
 40
0.5
 40
0.5
 40
0.5
 40
0.5
 40
0.5625
 40
0.5625
 40
0.5625
 40
0.5625
 40
0.625
 40
0.625
 40
0.625
 40
0.625
 40
0.6875
 40
0.6875
 40
0.6875
 40
0.6875
 40
0.75
 40
0.75
 40
0.75
 40
0.75
 40
0.8125
 40
0.8125
 40
0.8125
 40
0.8125
 40
0.875
 40
0.875
 40
0.875
 40
0.875
 40
1.0
 40
1.0
 40
1.0
 40
1.0
 10
-10.87248
 20
-7.02042
 30
0.0
 10
-10.85633
 20
-7.04785
 30
0.0
 10
-10.84692
 20
-7.08265
 30
0.0
 10
-10.85154
 20
-7.1123
 30
0.0
 10
-10.85154
 20
-7.1123
 30
0.0
 10
-10.85329
 20
-7.1235
 30
0.0
 10
-10.85673
 20
-7.13401
 30
0.0
 10
-10.86208
 20
-7.14336
 30
0.0
 10
-10.86208
 20
-7.14336
 30
0.0
 10
-10.86208
 20
-7.14336
 30
0.0
 10
-10.86216
 20
-7.14331
 30
0.0
 10
-10.86216
 20
-7.14331
 30
0.0
 10
-10.86216
 20
-7.14331
 30
0.0
 10
-10.86734
 20
-7.15237
 30
0.0
 10
-10.87424
 20
-7.16049
 30
0.0
 10
-10.88303
 20
-7.1673
 30
0.0
 10
-10.88303
 20
-7.1673
 30
0.0
 10
-10.88303
 20
-7.1673
 30
0.0
 10
-10.88412
 20
-7.16815
 30
0.0
 10
-10.88412
 20
-7.16815
 30
0.0
 10
-10.88412
 20
-7.16815
 30
0.0
 10
-10.88519
 20
-7.16901
 30
0.0
 10
-10.88631
 20
-7.16982
 30
0.0
 10
-10.88747
 20
-7.1706
 30
0.0
 10
-10.88747
 20
-7.1706
 30
0.0
 10
-10.91712
 20
-7.19055
 30
0.0
 10
-10.94957
 20
-7.18564
 30
0.0
 10
-10.9775
 20
-7.17052
 30
0.0
 10
-10.9775
 20
-7.17052
 30
0.0
 10
-10.99646
 20
-7.16027
 30
0.0
 10
-11.01414
 20
-7.14392
 30
0.0
 10
-11.02462
 20
-7.13016
 30
0.0
 10
-11.02462
 20
-7.13016
 30
0.0
 10
-11.02462
 20
-7.13016
 30
0.0
 10
-11.02489
 20
-7.12981
 30
0.0
 10
-11.02489
 20
-7.12981
 30
0.0
 10
-11.02489
 20
-7.12981
 30
0.0
 10
-11.02611
 20
-7.12839
 30
0.0
 10
-11.02727
 20
-7.12687
 30
0.0
 10
-11.02834
 20
-7.12528
 30
0.0
 10
-11.02834
 20
-7.12528
 30
0.0
 10
-11.04265
 20
-7.10411
 30
0.0
 10
-11.04959
 20
-7.06729
 30
0.0
 10
-11.04458
 20
-7.03677
 30
0.0
 10
-11.04458
 20
-7.03677
 30
0.0
 10
-11.04271
 20
-7.02533
 30
0.0
 10
-11.03925
 20
-7.01412
 30
0.0
 10
-11.03407
 20
-7.00404
 30
0.0
 10
-11.03407
 20
-7.00404
 30
0.0
 10
-11.02764
 20
-6.99155
 30
0.0
 10
-11.01863
 20
-6.98066
 30
0.0
 10
-11.00677
 20
-6.97267
 30
0.0
 10
-11.00677
 20
-6.97267
 30
0.0
 10
-10.99079
 20
-6.96187
 30
0.0
 10
-10.97144
 20
-6.95695
 30
0.0
 10
-10.94855
 20
-6.96071
 30
0.0
 10
-10.94855
 20
-6.96071
 30
0.0
 10
-10.91833
 20
-6.96569
 30
0.0
 10
-10.89031
 20
-6.99015
 30
0.0
 10
-10.87248
 20
-7.02042
 30
0.0
  0
SPLINE
  5
4C
330
1F
100
AcDbEntity
  8
Layer 1
 62
     5
100
AcDbSpline
210
0.0
220
0.0
230
1.0
 70
    11
 71
     3
 72
    60
 73
    56
 74
     0
 42
0.0000000001
 43
0.0000000001
 12
1.0
 22
0.0
 32
0.0
 13
1.0
 23
0.0
 33
0.0
 40
0.0
 40
0.0
 40
0.0
 40
0.0
 40
0.0666666666666667
 40
0.0666666666666667
 40
0.0666666666666667
 40
0.0666666666666667
 40
0.1333333333333333
 40
0.1333333333333333
 40
0.1333333333333333
 40
0.1333333333333333
 40
0.2
 40
0.2
 40
0.2
 40
0.2
 40
0.2666666666666667
 40
0.2666666666666667
 40
0.2666666666666667
 40
0.2666666666666667
 40
0.3333333333333333
 40
0.3333333333333333
 40
0.3333333333333333
 40
0.3333333333333333
 40
0.4
 40
0.4
 40
0.4
 40
0.4
 40
0.4666666666666667
 40
0.4666666666666667
 40
0.4666666666666667
 40
0.4666666666666667
 40
0.5333333333333333
 40
0.5333333333333333
 40
0.5333333333333333
 40
0.5333333333333333
 40
0.6
 40
0.6
 40
0.6
 40
0.6
 40
0.6666666666666666
 40
0.6666666666666666
 40
0.6666666666666666
 40
0.6666666666666666
 40
0.7333333333333333
 40
0.7333333333333333
 40
0.7333333333333333
 40
0.7333333333333333
 40
0.8
 40
0.8
 40
0.8
 40
0.8
 40
0.8666666666666667
 40
0.8666666666666667
 40
0.8666666666666667
 40
0.8666666666666667
 40
1.0
 40
1.0
 40
1.0
 40
1.0
 10
-9.20538
 20
-6.30741
 30
0.0
 10
-9.11705
 20
-6.20917
 30
0.0
 10
-9.00787
 20
-6.11113
 30
0.0
 10
-8.88945
 20
-6.02885
 30
0.0
 10
-8.88945
 20
-6.02885
 30
0.0
 10
-8.78223
 20
-5.95434
 30
0.0
 10
-8.667
 20
-5.8924
 30
0.0
 10
-8.55213
 20
-5.85434
 30
0.0
 10
-8.55213
 20
-5.85434
 30
0.0
 10
-8.33117
 20
-5.78112
 30
0.0
 10
-8.20857
 20
-5.82493
 30
0.0
 10
-8.14436
 20
-5.936
 30
0.0
 10
-8.14436
 20
-5.936
 30
0.0
 10
-8.08599
 20
-6.03696
 30
0.0
 10
-8.08584
 20
-6.19241
 30
0.0
 10
-8.10384
 20
-6.36174
 30
0.0
 10
-8.10384
 20
-6.36174
 30
0.0
 10
-8.11444
 20
-6.46149
 30
0.0
 10
-8.13033
 20
-6.56175
 30
0.0
 10
-8.1519
 20
-6.66046
 30
0.0
 10
-8.1519
 20
-6.66046
 30
0.0
 10
-8.17244
 20
-6.75444
 30
0.0
 10
-8.1985
 20
-6.84833
 30
0.0
 10
-8.23049
 20
-6.94052
 30
0.0
 10
-8.23049
 20
-6.94052
 30
0.0
 10
-8.32657
 20
-7.21752
 30
0.0
 10
-8.50867
 20
-7.50161
 30
0.0
 10
-8.7458
 20
-7.7096
 30
0.0
 10
-8.7458
 20
-7.7096
 30
0.0
 10
-8.9537
 20
-7.89193
 30
0.0
 10
-9.20432
 20
-8.0165
 30
0.0
 10
-9.47755
 20
-8.02848
 30
0.0
 10
-9.47755
 20
-8.02848
 30
0.0
 10
-9.55987
 20
-8.03208
 30
0.0
 10
-9.63107
 20
-8.0333
 30
0.0
 10
-9.69153
 20
-8.01572
 30
0.0
 10
-9.69153
 20
-8.01572
 30
0.0
 10
-9.76015
 20
-7.99576
 30
0.0
 10
-9.81099
 20
-7.95455
 30
0.0
 10
-9.84026
 20
-7.87362
 30
0.0
 10
-9.84026
 20
-7.87362
 30
0.0
 10
-9.87628
 20
-7.77405
 30
0.0
 10
-9.84747
 20
-7.62524
 30
0.0
 10
-9.82722
 20
-7.52063
 30
0.0
 10
-9.82722
 20
-7.52063
 30
0.0
 10
-9.82398
 20
-7.50393
 30
0.0
 10
-9.82099
 20
-7.48853
 30
0.0
 10
-9.82034
 20
-7.48499
 30
0.0
 10
-9.82034
 20
-7.48499
 30
0.0
 10
-9.78249
 20
-7.27977
 30
0.0
 10
-9.70602
 20
-7.07475
 30
0.0
 10
-9.60508
 20
-6.88173
 30
0.0
 10
-9.60508
 20
-6.88173
 30
0.0
 10
-9.4948
 20
-6.67084
 30
0.0
 10
-9.35541
 20
-6.47426
 30
0.0
 10
-9.20538
 20
-6.30741
 30
0.0
  0
SPLINE
  5
4D
330
1F
100
AcDbEntity
  8
Layer 1
 62
     5
100
AcDbSpline
210
0.0
220
0.0
230
1.0
 70
    11
 71
     3
 72
    60
 73
    56
 74
     0
 42
0.0000000001
 43
0.0000000001
 12
1.0
 22
0.0
 32
0.0
 13
1.0
 23
0.0
 33
0.0
 40
0.0
 40
0.0
 40
0.0
 40
0.0
 40
0.0666666666666667
 40
0.0666666666666667
 40
0.0666666666666667
 40
0.0666666666666667
 40
0.1333333333333333
 40
0.1333333333333333
 40
0.1333333333333333
 40
0.1333333333333333
 40
0.2
 40
0.2
 40
0.2
 40
0.2
 40
0.2666666666666667
 40
0.2666666666666667
 40
0.2666666666666667
 40
0.2666666666666667
 40
0.3333333333333333
 40
0.3333333333333333
 40
0.3333333333333333
 40
0.3333333333333333
 40
0.4
 40
0.4
 40
0.4
 40
0.4
 40
0.4666666666666667
 40
0.4666666666666667
 40
0.4666666666666667
 40
0.4666666666666667
 40
0.5333333333333333
 40
0.5333333333333333
 40
0.5333333333333333
 40
0.5333333333333333
 40
0.6
 40
0.6
 40
0.6
 40
0.6
 40
0.6666666666666666
 40
0.6666666666666666
 40
0.6666666666666666
 40
0.6666666666666666
 40
0.7333333333333333
 40
0.7333333333333333
 40
0.7333333333333333
 40
0.7333333333333333
 40
0.8
 40
0.8
 40
0.8
 40
0.8
 40
0.8666666666666667
 40
0.8666666666666667
 40
0.8666666666666667
 40
0.8666666666666667
 40
1.0
 40
1.0
 40
1.0
 40
1.0
 10
-8.83241
 20
-6.11089
 30
0.0
 10
-8.94453
 20
-6.1888
 30
0.0
 10
-9.04777
 20
-6.28147
 30
0.0
 10
-9.13116
 20
-6.37421
 30
0.0
 10
-9.13116
 20
-6.37421
 30
0.0
 10
-9.2763
 20
-6.53563
 30
0.0
 10
-9.41082
 20
-6.72516
 30
0.0
 10
-9.5168
 20
-6.92783
 30
0.0
 10
-9.5168
 20
-6.92783
 30
0.0
 10
-9.61331
 20
-7.11237
 30
0.0
 10
-9.68632
 20
-7.30788
 30
0.0
 10
-9.7223
 20
-7.50295
 30
0.0
 10
-9.7223
 20
-7.50295
 30
0.0
 10
-9.72576
 20
-7.52176
 30
0.0
 10
-9.72747
 20
-7.53055
 30
0.0
 10
-9.72918
 20
-7.53939
 30
0.0
 10
-9.72918
 20
-7.53939
 30
0.0
 10
-9.7473
 20
-7.633
 30
0.0
 10
-9.77309
 20
-7.76616
 30
0.0
 10
-9.7465
 20
-7.83964
 30
0.0
 10
-9.7465
 20
-7.83964
 30
0.0
 10
-9.72982
 20
-7.88576
 30
0.0
 10
-9.7016
 20
-7.90903
 30
0.0
 10
-9.66379
 20
-7.92002
 30
0.0
 10
-9.66379
 20
-7.92002
 30
0.0
 10
-9.61782
 20
-7.93339
 30
0.0
 10
-9.55514
 20
-7.93209
 30
0.0
 10
-9.48185
 20
-7.92888
 30
0.0
 10
-9.48185
 20
-7.92888
 30
0.0
 10
-9.2333
 20
-7.91799
 30
0.0
 10
-9.00343
 20
-7.803
 30
0.0
 10
-8.81142
 20
-7.6346
 30
0.0
 10
-8.81142
 20
-7.6346
 30
0.0
 10
-8.5874
 20
-7.43811
 30
0.0
 10
-8.41539
 20
-7.16975
 30
0.0
 10
-8.32463
 20
-6.9081
 30
0.0
 10
-8.32463
 20
-6.9081
 30
0.0
 10
-8.29457
 20
-6.82145
 30
0.0
 10
-8.26965
 20
-6.73126
 30
0.0
 10
-8.24956
 20
-6.63936
 30
0.0
 10
-8.24956
 20
-6.63936
 30
0.0
 10
-8.22857
 20
-6.54329
 30
0.0
 10
-8.2132
 20
-6.44663
 30
0.0
 10
-8.20306
 20
-6.3512
 30
0.0
 10
-8.20306
 20
-6.3512
 30
0.0
 10
-8.18699
 20
-6.20008
 30
0.0
 10
-8.18547
 20
-6.0642
 30
0.0
 10
-8.23068
 20
-5.986
 30
0.0
 10
-8.23068
 20
-5.986
 30
0.0
 10
-8.27004
 20
-5.9179
 30
0.0
 10
-8.35606
 20
-5.89464
 30
0.0
 10
-8.52087
 20
-5.94926
 30
0.0
 10
-8.52087
 20
-5.94926
 30
0.0
 10
-8.62609
 20
-5.98413
 30
0.0
 10
-8.73261
 20
-6.04154
 30
0.0
 10
-8.83241
 20
-6.11089
 30
0.0
  0
SPLINE
  5
4E
330
1F
100
AcDbEntity
  8
Layer 1
 62
     5
100
AcDbSpline
210
0.0
220
0.0
230
1.0
 70
    11
 71
     3
 72
    88
 73
    84
 74
     0
 42
0.0000000001
 43
0.0000000001
 12
1.0
 22
0.0
 32
0.0
 13
1.0
 23
0.0
 33
0.0
 40
0.0
 40
0.0
 40
0.0
 40
0.0
 40
0.0454545454545455
 40
0.0454545454545455
 40
0.0454545454545455
 40
0.0454545454545455
 40
0.0909090909090909
 40
0.0909090909090909
 40
0.0909090909090909
 40
0.0909090909090909
 40
0.1363636363636364
 40
0.1363636363636364
 40
0.1363636363636364
 40
0.1363636363636364
 40
0.1818181818181818
 40
0.1818181818181818
 40
0.1818181818181818
 40
0.1818181818181818
 40
0.2272727272727273
 40
0.2272727272727273
 40
0.2272727272727273
 40
0.2272727272727273
 40
0.2727272727272727
 40
0.2727272727272727
 40
0.2727272727272727
 40
0.2727272727272727
 40
0.3181818181818182
 40
0.3181818181818182
 40
0.3181818181818182
 40
0.3181818181818182
 40
0.3636363636363636
 40
0.3636363636363636
 40
0.3636363636363636
 40
0.3636363636363636
 40
0.4090909090909091
 40
0.4090909090909091
 40
0.4090909090909091
 40
0.4090909090909091
 40
0.4545454545454545
 40
0.4545454545454545
 40
0.4545454545454545
 40
0.4545454545454545
 40
0.5
 40
0.5
 40
0.5
 40
0.5
 40
0.5454545454545454
 40
0.5454545454545454
 40
0.5454545454545454
 40
0.5454545454545454
 40
0.5909090909090909
 40
0.5909090909090909
 40
0.5909090909090909
 40
0.5909090909090909
 40
0.6363636363636364
 40
0.6363636363636364
 40
0.6363636363636364
 40
0.6363636363636364
 40
0.6818181818181818
 40
0.6818181818181818
 40
0.6818181818181818
 40
0.6818181818181818
 40
0.7272727272727273
 40
0.7272727272727273
 40
0.7272727272727273
 40
0.7272727272727273
 40
0.7727272727272727
 40
0.7727272727272727
 40
0.7727272727272727
 40
0.7727272727272727
 40
0.8181818181818182
 40
0.8181818181818182
 40
0.8181818181818182
 40
0.8181818181818182
 40
0.8636363636363636
 40
0.8636363636363636
 40
0.8636363636363636
 40
0.8636363636363636
 40
0.9090909090909091
 40
0.9090909090909091
 40
0.9090909090909091
 40
0.9090909090909091
 40
1.0
 40
1.0
 40
1.0
 40
1.0
 10
-8.95541
 20
-7.05812
 30
0.0
 10
-8.95701
 20
-7.08032
 30
0.0
 10
-8.96128
 20
-7.10298
 30
0.0
 10
-8.96735
 20
-7.12489
 30
0.0
 10
-8.96735
 20
-7.12489
 30
0.0
 10
-8.97387
 20
-7.1485
 30
0.0
 10
-8.98247
 20
-7.17104
 30
0.0
 10
-8.99195
 20
-7.19098
 30
0.0
 10
-8.99195
 20
-7.19098
 30
0.0
 10
-8.99195
 20
-7.19098
 30
0.0
 10
-8.99202
 20
-7.19113
 30
0.0
 10
-8.99202
 20
-7.19113
 30
0.0
 10
-8.99202
 20
-7.19113
 30
0.0
 10
-8.99202
 20
-7.19113
 30
0.0
 10
-8.99195
 20
-7.19117
 30
0.0
 10
-8.99195
 20
-7.19117
 30
0.0
 10
-8.99195
 20
-7.19117
 30
0.0
 10
-9.0039
 20
-7.21626
 30
0.0
 10
-9.01868
 20
-7.24076
 30
0.0
 10
-9.03553
 20
-7.2642
 30
0.0
 10
-9.03553
 20
-7.2642
 30
0.0
 10
-9.0528
 20
-7.28822
 30
0.0
 10
-9.07199
 20
-7.31056
 30
0.0
 10
-9.09233
 20
-7.33082
 30
0.0
 10
-9.09233
 20
-7.33082
 30
0.0
 10
-9.09233
 20
-7.33082
 30
0.0
 10
-9.09223
 20
-7.33091
 30
0.0
 10
-9.09223
 20
-7.33091
 30
0.0
 10
-9.09223
 20
-7.33091
 30
0.0
 10
-9.09223
 20
-7.33091
 30
0.0
 10
-9.09972
 20
-7.3384
 30
0.0
 10
-9.09972
 20
-7.3384
 30
0.0
 10
-9.09972
 20
-7.3384
 30
0.0
 10
-9.10061
 20
-7.33929
 30
0.0
 10
-9.10152
 20
-7.34013
 30
0.0
 10
-9.10245
 20
-7.34094
 30
0.0
 10
-9.10245
 20
-7.34094
 30
0.0
 10
-9.17081
 20
-7.40931
 30
0.0
 10
-9.27353
 20
-7.50944
 30
0.0
 10
-9.38464
 20
-7.41674
 30
0.0
 10
-9.38464
 20
-7.41674
 30
0.0
 10
-9.38576
 20
-7.4158
 30
0.0
 10
-9.38683
 20
-7.41482
 30
0.0
 10
-9.38785
 20
-7.41381
 30
0.0
 10
-9.38785
 20
-7.41381
 30
0.0
 10
-9.41861
 20
-7.38656
 30
0.0
 10
-9.43216
 20
-7.35173
 30
0.0
 10
-9.43577
 20
-7.31511
 30
0.0
 10
-9.43577
 20
-7.31511
 30
0.0
 10
-9.43899
 20
-7.28254
 30
0.0
 10
-9.43392
 20
-7.24936
 30
0.0
 10
-9.42681
 20
-7.22028
 30
0.0
 10
-9.42681
 20
-7.22028
 30
0.0
 10
-9.41401
 20
-7.16801
 30
0.0
 10
-9.39231
 20
-7.1159
 30
0.0
 10
-9.36291
 20
-7.06951
 30
0.0
 10
-9.36291
 20
-7.06951
 30
0.0
 10
-9.33489
 20
-7.02531
 30
0.0
 10
-9.29956
 20
-6.98566
 30
0.0
 10
-9.25784
 20
-6.95507
 30
0.0
 10
-9.25784
 20
-6.95507
 30
0.0
 10
-9.22178
 20
-6.92866
 30
0.0
 10
-9.16611
 20
-6.89769
 30
0.0
 10
-9.11406
 20
-6.88868
 30
0.0
 10
-9.11406
 20
-6.88868
 30
0.0
 10
-9.09126
 20
-6.88472
 30
0.0
 10
-9.06844
 20
-6.88481
 30
0.0
 10
-9.04681
 20
-6.89072
 30
0.0
 10
-9.04681
 20
-6.89072
 30
0.0
 10
-9.02225
 20
-6.89744
 30
0.0
 10
-9.0007
 20
-6.91105
 30
0.0
 10
-8.98415
 20
-6.93365
 30
0.0
 10
-8.98415
 20
-6.93365
 30
0.0
 10
-8.97173
 20
-6.95061
 30
0.0
 10
-8.9626
 20
-6.9722
 30
0.0
 10
-8.95793
 20
-6.99917
 30
0.0
 10
-8.95793
 20
-6.99917
 30
0.0
 10
-8.95639
 20
-7.00813
 30
0.0
 10
-8.95542
 20
-7.01789
 30
0.0
 10
-8.95499
 20
-7.02825
 30
0.0
 10
-8.95499
 20
-7.02825
 30
0.0
 10
-8.95457
 20
-7.03861
 30
0.0
 10
-8.95473
 20
-7.04861
 30
0.0
 10
-8.95541
 20
-7.05812
 30
0.0
  0
SPLINE
  5
4F
330
1F
100
AcDbEntity
  8
Layer 1
 62
     5
100
AcDbSpline
210
0.0
220
0.0
230
1.0
 70
    11
 71
     3
 72
    88
 73
    84
 74
     0
 42
0.0000000001
 43
0.0000000001
 12
1.0
 22
0.0
 32
0.0
 13
1.0
 23
0.0
 33
0.0
 40
0.0
 40
0.0
 40
0.0
 40
0.0
 40
0.0454545454545455
 40
0.0454545454545455
 40
0.0454545454545455
 40
0.0454545454545455
 40
0.0909090909090909
 40
0.0909090909090909
 40
0.0909090909090909
 40
0.0909090909090909
 40
0.1363636363636364
 40
0.1363636363636364
 40
0.1363636363636364
 40
0.1363636363636364
 40
0.1818181818181818
 40
0.1818181818181818
 40
0.1818181818181818
 40
0.1818181818181818
 40
0.2272727272727273
 40
0.2272727272727273
 40
0.2272727272727273
 40
0.2272727272727273
 40
0.2727272727272727
 40
0.2727272727272727
 40
0.2727272727272727
 40
0.2727272727272727
 40
0.3181818181818182
 40
0.3181818181818182
 40
0.3181818181818182
 40
0.3181818181818182
 40
0.3636363636363636
 40
0.3636363636363636
 40
0.3636363636363636
 40
0.3636363636363636
 40
0.4090909090909091
 40
0.4090909090909091
 40
0.4090909090909091
 40
0.4090909090909091
 40
0.4545454545454545
 40
0.4545454545454545
 40
0.4545454545454545
 40
0.4545454545454545
 40
0.5
 40
0.5
 40
0.5
 40
0.5
 40
0.5454545454545454
 40
0.5454545454545454
 40
0.5454545454545454
 40
0.5454545454545454
 40
0.5909090909090909
 40
0.5909090909090909
 40
0.5909090909090909
 40
0.5909090909090909
 40
0.6363636363636364
 40
0.6363636363636364
 40
0.6363636363636364
 40
0.6363636363636364
 40
0.6818181818181818
 40
0.6818181818181818
 40
0.6818181818181818
 40
0.6818181818181818
 40
0.7272727272727273
 40
0.7272727272727273
 40
0.7272727272727273
 40
0.7272727272727273
 40
0.7727272727272727
 40
0.7727272727272727
 40
0.7727272727272727
 40
0.7727272727272727
 40
0.8181818181818182
 40
0.8181818181818182
 40
0.8181818181818182
 40
0.8181818181818182
 40
0.8636363636363636
 40
0.8636363636363636
 40
0.8636363636363636
 40
0.8636363636363636
 40
0.9090909090909091
 40
0.9090909090909091
 40
0.9090909090909091
 40
0.9090909090909091
 40
1.0
 40
1.0
 40
1.0
 40
1.0
 10
-9.06345
 20
-7.09833
 30
0.0
 10
-9.05917
 20
-7.08286
 30
0.0
 10
-9.05614
 20
-7.0668
 30
0.0
 10
-9.05501
 20
-7.05108
 30
0.0
 10
-9.05501
 20
-7.05108
 30
0.0
 10
-9.05452
 20
-7.04416
 30
0.0
 10
-9.05436
 20
-7.03778
 30
0.0
 10
-9.05459
 20
-7.03215
 30
0.0
 10
-9.05459
 20
-7.03215
 30
0.0
 10
-9.05479
 20
-7.02711
 30
0.0
 10
-9.05539
 20
-7.02169
 30
0.0
 10
-9.05637
 20
-7.01597
 30
0.0
 10
-9.05637
 20
-7.01597
 30
0.0
 10
-9.05827
 20
-7.00501
 30
0.0
 10
-9.06111
 20
-6.99741
 30
0.0
 10
-9.06461
 20
-6.99263
 30
0.0
 10
-9.06461
 20
-6.99263
 30
0.0
 10
-9.06686
 20
-6.98955
 30
0.0
 10
-9.06974
 20
-6.98771
 30
0.0
 10
-9.07299
 20
-6.98682
 30
0.0
 10
-9.07299
 20
-6.98682
 30
0.0
 10
-9.07916
 20
-6.98514
 30
0.0
 10
-9.08759
 20
-6.98544
 30
0.0
 10
-9.09726
 20
-6.98712
 30
0.0
 10
-9.09726
 20
-6.98712
 30
0.0
 10
-9.13203
 20
-6.99314
 30
0.0
 10
-9.17208
 20
-7.01592
 30
0.0
 10
-9.19886
 20
-7.03553
 30
0.0
 10
-9.19886
 20
-7.03553
 30
0.0
 10
-9.2299
 20
-7.05828
 30
0.0
 10
-9.25674
 20
-7.08866
 30
0.0
 10
-9.27853
 20
-7.12303
 30
0.0
 10
-9.27853
 20
-7.12303
 30
0.0
 10
-9.30233
 20
-7.1606
 30
0.0
 10
-9.31978
 20
-7.20229
 30
0.0
 10
-9.32993
 20
-7.24372
 30
0.0
 10
-9.32993
 20
-7.24372
 30
0.0
 10
-9.33486
 20
-7.26388
 30
0.0
 10
-9.33846
 20
-7.28601
 30
0.0
 10
-9.33655
 20
-7.30535
 30
0.0
 10
-9.33655
 20
-7.30535
 30
0.0
 10
-9.33526
 20
-7.3185
 30
0.0
 10
-9.33121
 20
-7.33043
 30
0.0
 10
-9.32247
 20
-7.33868
 30
0.0
 10
-9.32247
 20
-7.33868
 30
0.0
 10
-9.32247
 20
-7.33868
 30
0.0
 10
-9.32058
 20
-7.34018
 30
0.0
 10
-9.32058
 20
-7.34018
 30
0.0
 10
-9.32058
 20
-7.34018
 30
0.0
 10
-9.27891
 20
-7.37494
 30
0.0
 10
-9.21564
 20
-7.31312
 30
0.0
 10
-9.17296
 20
-7.27043
 30
0.0
 10
-9.17296
 20
-7.27043
 30
0.0
 10
-9.17215
 20
-7.2695
 30
0.0
 10
-9.17131
 20
-7.26859
 30
0.0
 10
-9.17042
 20
-7.2677
 30
0.0
 10
-9.17042
 20
-7.2677
 30
0.0
 10
-9.17042
 20
-7.2677
 30
0.0
 10
-9.16293
 20
-7.26021
 30
0.0
 10
-9.16293
 20
-7.26021
 30
0.0
 10
-9.16293
 20
-7.26021
 30
0.0
 10
-9.16293
 20
-7.26021
 30
0.0
 10
-9.16283
 20
-7.26031
 30
0.0
 10
-9.16283
 20
-7.26031
 30
0.0
 10
-9.16283
 20
-7.26031
 30
0.0
 10
-9.16283
 20
-7.26031
 30
0.0
 10
-9.16274
 20
-7.26021
 30
0.0
 10
-9.16274
 20
-7.26021
 30
0.0
 10
-9.16274
 20
-7.26021
 30
0.0
 10
-9.14591
 20
-7.24345
 30
0.0
 10
-9.13024
 20
-7.22526
 30
0.0
 10
-9.11639
 20
-7.206
 30
0.0
 10
-9.11639
 20
-7.206
 30
0.0
 10
-9.1036
 20
-7.18821
 30
0.0
 10
-9.09203
 20
-7.16886
 30
0.0
 10
-9.08219
 20
-7.14821
 30
0.0
 10
-9.08219
 20
-7.14821
 30
0.0
 10
-9.08219
 20
-7.14821
 30
0.0
 10
-9.08212
 20
-7.14824
 30
0.0
 10
-9.08212
 20
-7.14824
 30
0.0
 10
-9.08212
 20
-7.14824
 30
0.0
 10
-9.07481
 20
-7.13284
 30
0.0
 10
-9.06827
 20
-7.1158
 30
0.0
 10
-9.06345
 20
-7.09833
 30
0.0
  0
SPLINE
  5
50
330
1F
100
AcDbEntity
  8
Layer 1
 62
     5
100
AcDbSpline
210
0.0
220
0.0
230
1.0
 70
    11
 71
     3
 72
    60
 73
    56
 74
     0
 42
0.0000000001
 43
0.0000000001
 12
1.0
 22
0.0
 32
0.0
 13
1.0
 23
0.0
 33
0.0
 40
0.0
 40
0.0
 40
0.0
 40
0.0
 40
0.0666666666666667
 40
0.0666666666666667
 40
0.0666666666666667
 40
0.0666666666666667
 40
0.1333333333333333
 40
0.1333333333333333
 40
0.1333333333333333
 40
0.1333333333333333
 40
0.2
 40
0.2
 40
0.2
 40
0.2
 40
0.2666666666666667
 40
0.2666666666666667
 40
0.2666666666666667
 40
0.2666666666666667
 40
0.3333333333333333
 40
0.3333333333333333
 40
0.3333333333333333
 40
0.3333333333333333
 40
0.4
 40
0.4
 40
0.4
 40
0.4
 40
0.4666666666666667
 40
0.4666666666666667
 40
0.4666666666666667
 40
0.4666666666666667
 40
0.5333333333333333
 40
0.5333333333333333
 40
0.5333333333333333
 40
0.5333333333333333
 40
0.6
 40
0.6
 40
0.6
 40
0.6
 40
0.6666666666666666
 40
0.6666666666666666
 40
0.6666666666666666
 40
0.6666666666666666
 40
0.7333333333333333
 40
0.7333333333333333
 40
0.7333333333333333
 40
0.7333333333333333
 40
0.8
 40
0.8
 40
0.8
 40
0.8
 40
0.8666666666666667
 40
0.8666666666666667
 40
0.8666666666666667
 40
0.8666666666666667
 40
1.0
 40
1.0
 40
1.0
 40
1.0
 10
-9.18936
 20
-7.1123
 30
0.0
 10
-9.19396
 20
-7.08265
 30
0.0
 10
-9.18456
 20
-7.04786
 30
0.0
 10
-9.1684
 20
-7.02041
 30
0.0
 10
-9.1684
 20
-7.02041
 30
0.0
 10
-9.15058
 20
-6.99016
 30
0.0
 10
-9.12256
 20
-6.96569
 30
0.0
 10
-9.09233
 20
-6.96071
 30
0.0
 10
-9.09233
 20
-6.96071
 30
0.0
 10
-9.06945
 20
-6.95695
 30
0.0
 10
-9.05011
 20
-6.96188
 30
0.0
 10
-9.03412
 20
-6.97266
 30
0.0
 10
-9.03412
 20
-6.97266
 30
0.0
 10
-9.02225
 20
-6.98068
 30
0.0
 10
-9.01325
 20
-6.99153
 30
0.0
 10
-9.00682
 20
-7.00404
 30
0.0
 10
-9.00682
 20
-7.00404
 30
0.0
 10
-9.00163
 20
-7.01413
 30
0.0
 10
-8.9982
 20
-7.02533
 30
0.0
 10
-8.99631
 20
-7.03677
 30
0.0
 10
-8.99631
 20
-7.03677
 30
0.0
 10
-8.99131
 20
-7.06727
 30
0.0
 10
-8.99824
 20
-7.1041
 30
0.0
 10
-9.01255
 20
-7.12528
 30
0.0
 10
-9.01255
 20
-7.12528
 30
0.0
 10
-9.0136
 20
-7.12684
 30
0.0
 10
-9.01473
 20
-7.12832
 30
0.0
 10
-9.01592
 20
-7.12972
 30
0.0
 10
-9.01592
 20
-7.12972
 30
0.0
 10
-9.01592
 20
-7.12972
 30
0.0
 10
-9.01628
 20
-7.13018
 30
0.0
 10
-9.01628
 20
-7.13018
 30
0.0
 10
-9.01628
 20
-7.13018
 30
0.0
 10
-9.02679
 20
-7.14394
 30
0.0
 10
-9.04446
 20
-7.16028
 30
0.0
 10
-9.06339
 20
-7.17053
 30
0.0
 10
-9.06339
 20
-7.17053
 30
0.0
 10
-9.09139
 20
-7.18569
 30
0.0
 10
-9.12394
 20
-7.19059
 30
0.0
 10
-9.15359
 20
-7.17061
 30
0.0
 10
-9.15359
 20
-7.17061
 30
0.0
 10
-9.15359
 20
-7.17061
 30
0.0
 10
-9.15574
 20
-7.16908
 30
0.0
 10
-9.15574
 20
-7.16908
 30
0.0
 10
-9.15574
 20
-7.16908
 30
0.0
 10
-9.16555
 20
-7.16196
 30
0.0
 10
-9.17318
 20
-7.15325
 30
0.0
 10
-9.17883
 20
-7.14337
 30
0.0
 10
-9.17883
 20
-7.14337
 30
0.0
 10
-9.17964
 20
-7.14196
 30
0.0
 10
-9.18036
 20
-7.14053
 30
0.0
 10
-9.18102
 20
-7.13908
 30
0.0
 10
-9.18102
 20
-7.13908
 30
0.0
 10
-9.18517
 20
-7.13074
 30
0.0
 10
-9.18791
 20
-7.12172
 30
0.0
 10
-9.18936
 20
-7.1123
 30
0.0
  0
ENDSEC
  0
SECTION
  2
OBJECTS
  0
DICTIONARY
  5
C
330
0
100
AcDbDictionary
281
     1
  3
ACAD_GROUP
350
D
  3
ACAD_LAYOUT
350
1A
  3
ACAD_MATERIAL
350
3B
  3
ACAD_MLEADERSTYLE
350
72
  3
ACAD_MLINESTYLE
350
17
  3
ACAD_PLOTSETTINGS
350
19
  3
ACAD_PLOTSTYLENAME
350
E
  3
ACAD_TABLESTYLE
350
71
  3
ACAD_VISUALSTYLE
350
2A
  0
DICTIONARY
  5
D
102
{ACAD_REACTORS
330
C
102
}
330
C
100
AcDbDictionary
281
     1
  0
DICTIONARY
  5
1A
102
{ACAD_REACTORS
330
C
102
}
330
C
100
AcDbDictionary
281
     1
  3
Layout1
350
1E
  3
Layout2
350
26
  3
Model
350
22
  0
DICTIONARY
  5
3B
102
{ACAD_REACTORS
330
C
102
}
330
C
100
AcDbDictionary
281
     1
  3
ByBlock
350
3D
  3
ByLayer
350
3C
  3
Global
350
3E
  0
DICTIONARY
  5
72
102
{ACAD_REACTORS
330
C
102
}
330
C
100
AcDbDictionary
281
     1
  0
DICTIONARY
  5
17
102
{ACAD_REACTORS
330
C
102
}
330
C
100
AcDbDictionary
281
     1
  3
Standard
350
18
  0
DICTIONARY
  5
19
102
{ACAD_REACTORS
330
C
102
}
330
C
100
AcDbDictionary
281
     1
  0
ACDBDICTIONARYWDFLT
  5
E
102
{ACAD_REACTORS
330
C
102
}
330
C
100
AcDbDictionary
281
     1
  3
Normal
350
F
100
AcDbDictionaryWithDefault
340
F
  0
DICTIONARY
  5
71
102
{ACAD_REACTORS
330
C
102
}
330
C
100
AcDbDictionary
281
     1
  0
DICTIONARY
  5
2A
102
{ACAD_REACTORS
330
C
102
}
330
C
100
AcDbDictionary
281
     1
  3
2dWireframe
350
2F
  3
3D Hidden
350
31
  3
3dWireframe
350
30
  3
Basic
350
32
  3
Brighten
350
36
  3
ColorChange
350
3A
  3
Conceptual
350
34
  3
Dim
350
35
  3
Facepattern
350
39
  3
Flat
350
2B
  3
FlatWithEdges
350
2C
  3
Gouraud
350
2D
  3
GouraudWithEdges
350
2E
  3
Linepattern
350
38
  3
Realistic
350
33
  3
Thicken
350
37
  0
LAYOUT
  5
1E
102
{ACAD_REACTORS
330
1A
102
}
330
1A
100
AcDbPlotSettings
  1

  2
none_device
  4

  6

 40
0.0
 41
0.0
 42
0.0
 43
0.0
 44
0.0
 45
0.0
 46
0.0
 47
0.0
 48
0.0
 49
0.0
140
0.0
141
0.0
142
1.0
143
1.0
 70
   688
 72
     0
 73
     0
 74
     5
  7

 75
    16
 76
     0
 77
     2
 78
   300
147
1.0
148
0.0
149
0.0
100
AcDbLayout
  1
Layout1
 70
     1
 71
     1
 10
0.0
 20
0.0
 11
12.0
 21
9.0
 12
0.0
 22
0.0
 32
0.0
 14
1.000000000000000E+20
 24
1.000000000000000E+20
 34
1.000000000000000E+20
 15
-1.000000000000000E+20
 25
-1.000000000000000E+20
 35
-1.000000000000000E+20
146
0.0
 13
0.0
 23
0.0
 33
0.0
 16
1.0
 26
0.0
 36
0.0
 17
0.0
 27
1.0
 37
0.0
 76
     0
330
1B
  0
LAYOUT
  5
26
102
{ACAD_REACTORS
330
1A
102
}
330
1A
100
AcDbPlotSettings
  1

  2
none_device
  4

  6

 40
0.0
 41
0.0
 42
0.0
 43
0.0
 44
0.0
 45
0.0
 46
0.0
 47
0.0
 48
0.0
 49
0.0
140
0.0
141
0.0
142
1.0
143
1.0
 70
   688
 72
     0
 73
     0
 74
     5
  7

 75
    16
 76
     0
 77
     2
 78
   300
147
1.0
148
0.0
149
0.0
100
AcDbLayout
  1
Layout2
 70
     1
 71
     2
 10
0.0
 20
0.0
 11
0.0
 21
0.0
 12
0.0
 22
0.0
 32
0.0
 14
0.0
 24
0.0
 34
0.0
 15
0.0
 25
0.0
 35
0.0
146
0.0
 13
0.0
 23
0.0
 33
0.0
 16
1.0
 26
0.0
 36
0.0
 17
0.0
 27
1.0
 37
0.0
 76
     0
330
23
  0
LAYOUT
  5
22
102
{ACAD_REACTORS
330
1A
102
}
330
1A
100
AcDbPlotSettings
  1

  2
none_device
  4

  6

 40
0.0
 41
0.0
 42
0.0
 43
0.0
 44
0.0
 45
0.0
 46
0.0
 47
0.0
 48
0.0
 49
0.0
140
0.0
141
0.0
142
1.0
143
1.0
 70
  1712
 72
     0
 73
     0
 74
     0
  7

 75
     0
 76
     0
 77
     2
 78
   300
147
1.0
148
0.0
149
0.0
100
AcDbLayout
  1
Model
 70
     1
 71
     0
 10
0.0
 20
0.0
 11
12.0
 21
9.0
 12
0.0
 22
0.0
 32
0.0
 14
-11.98123
 24
-8.7856
 34
0.0
 15
-8.09332
 25
-3.56964
 35
0.0
146
0.0
 13
0.0
 23
0.0
 33
0.0
 16
1.0
 26
0.0
 36
0.0
 17
0.0
 27
1.0
 37
0.0
 76
     0
330
1F
331
29
  0
MATERIAL
  5
3D
102
{ACAD_REACTORS
330
3B
102
}
330
3B
100
AcDbMaterial
  1
ByBlock
 72
     1
 94
      127
  0
MATERIAL
  5
3C
102
{ACAD_REACTORS
330
3B
102
}
330
3B
100
AcDbMaterial
  1
ByLayer
 72
     1
 94
      127
  0
MATERIAL
  5
3E
102
{ACAD_REACTORS
330
3B
102
}
330
3B
100
AcDbMaterial
  1
Global
 72
     1
 94
      127
  0
MLINESTYLE
  5
18
102
{ACAD_REACTORS
330
17
102
}
330
17
100
AcDbMlineStyle
  2
Standard
 70
     0
  3

 62
   256
 51
90.0
 52
90.0
 71
     2
 49
0.5
 62
   256
  6
BYLAYER
 49
-0.5
 62
   256
  6
BYLAYER
  0
ACDBPLACEHOLDER
  5
F
102
{ACAD_REACTORS
330
E
102
}
330
E
  0
VISUALSTYLE
  5
2F
102
{ACAD_REACTORS
330
2A
102
}
102
{ACAD_XDICTIONARY
360
59
102
}
330
2A
100
AcDbVisualStyle
  2
2dWireframe
 70
     4
 71
     0
 72
     2
 73
     0
 90
        0
 40
-0.6
 41
-30.0
 62
     5
 63
     7
421
 16777215
 74
     1
 91
        4
 64
     7
 65
   257
 75
     1
175
     1
 42
1.0
 92
        0
 66
   257
 43
1.0
 76
     1
 77
     6
 78
     2
 67
     7
 79
     5
170
     0
171
     0
290
     0
174
     0
 93
        1
 44
0.0
173
     0
291
     0
 45
0.0
  0
VISUALSTYLE
  5
31
102
{ACAD_REACTORS
330
2A
102
}
102
{ACAD_XDICTIONARY
360
5D
102
}
330
2A
100
AcDbVisualStyle
  2
3D Hidden
 70
     6
 71
     1
 72
     2
 73
     2
 90
        0
 40
-0.6
 41
-30.0
 62
     5
 63
     7
421
 16777215
 74
     2
 91
        2
 64
     7
 65
   257
 75
     2
175
     1
 42
40.0
 92
        0
 66
   257
 43
1.0
 76
     1
 77
     6
 78
     2
 67
     7
 79
     3
170
     0
171
     0
290
     0
174
     0
 93
        1
 44
0.0
173
     0
291
     0
 45
0.0
  0
VISUALSTYLE
  5
30
102
{ACAD_REACTORS
330
2A
102
}
102
{ACAD_XDICTIONARY
360
5B
102
}
330
2A
100
AcDbVisualStyle
  2
3dWireframe
 70
     5
 71
     0
 72
     2
 73
     0
 90
        0
 40
-0.6
 41
-30.0
 62
     5
 63
     7
421
 16777215
 74
     1
 91
        4
 64
     7
 65
   257
 75
     1
175
     1
 42
1.0
 92
        0
 66
   257
 43
1.0
 76
     1
 77
     6
 78
     2
 67
     7
 79
     5
170
     0
171
     0
290
     0
174
     0
 93
        1
 44
0.0
173
     0
291
     0
 45
0.0
  0
VISUALSTYLE
  5
32
102
{ACAD_REACTORS
330
2A
102
}
102
{ACAD_XDICTIONARY
360
5F
102
}
330
2A
100
AcDbVisualStyle
  2
Basic
 70
     7
 71
     1
 72
     0
 73
     1
 90
        0
 40
-0.6
 41
-30.0
 62
     5
 63
     7
421
 16777215
 74
     0
 91
        4
 64
     7
 65
   257
 75
     1
175
     1
 42
1.0
 92
        8
 66
     7
 43
1.0
 76
     1
 77
     6
 78
     2
 67
     7
 79
     5
170
     0
171
     0
290
     0
174
     0
 93
        1
 44
0.0
173
     0
291
     1
 45
0.0
  0
VISUALSTYLE
  5
36
102
{ACAD_REACTORS
330
2A
102
}
102
{ACAD_XDICTIONARY
360
67
102
}
330
2A
100
AcDbVisualStyle
  2
Brighten
 70
    12
 71
     2
 72
     2
 73
     0
 90
        0
 40
-0.6
 41
-30.0
 62
     5
 63
     7
421
 16777215
 74
     1
 91
        4
 64
     7
 65
   257
 75
     1
175
     1
 42
1.0
 92
        8
 66
     7
 43
1.0
 76
     1
 77
     6
 78
     2
 67
     7
 79
     5
170
     0
171
     0
290
     0
174
     0
 93
        1
 44
50.0
173
     0
291
     1
 45
0.0
  0
VISUALSTYLE
  5
3A
102
{ACAD_REACTORS
330
2A
102
}
102
{ACAD_XDICTIONARY
360
6F
102
}
330
2A
100
AcDbVisualStyle
  2
ColorChange
 70
    16
 71
     2
 72
     2
 73
     3
 90
        0
 40
-0.6
 41
-30.0
 62
     5
 63
     8
421
  8421504
 74
     1
 91
        4
 64
     7
 65
   257
 75
     1
175
     1
 42
1.0
 92
        8
 66
     8
424
  8421504
 43
1.0
 76
     1
 77
     6
 78
     2
 67
     7
 79
     5
170
     0
171
     0
290
     0
174
     0
 93
        1
 44
0.0
173
     0
291
     1
 45
0.0
  0
VISUALSTYLE
  5
34
102
{ACAD_REACTORS
330
2A
102
}
102
{ACAD_XDICTIONARY
360
63
102
}
330
2A
100
AcDbVisualStyle
  2
Conceptual
 70
     9
 71
     3
 72
     2
 73
     0
 90
        0
 40
-0.6
 41
-30.0
 62
     5
 63
     7
421
 16777215
 74
     2
 91
        2
 64
     7
 65
   257
 75
     1
175
     1
 42
40.0
 92
        8
 66
     7
 43
1.0
 76
     1
 77
     6
 78
     2
 67
     7
 79
     3
170
     0
171
     0
290
     0
174
     0
 93
        1
 44
0.0
173
     0
291
     0
 45
0.0
  0
VISUALSTYLE
  5
35
102
{ACAD_REACTORS
330
2A
102
}
102
{ACAD_XDICTIONARY
360
65
102
}
330
2A
100
AcDbVisualStyle
  2
Dim
 70
    11
 71
     2
 72
     2
 73
     0
 90
        0
 40
-0.6
 41
-30.0
 62
     5
 63
     7
421
 16777215
 74
     1
 91
        4
 64
     7
 65
   257
 75
     1
175
     1
 42
1.0
 92
        8
 66
     7
 43
1.0
 76
     1
 77
     6
 78
     2
 67
     7
 79
     5
170
     0
171
     0
290
     0
174
     0
 93
        1
 44
-50.0
173
     0
291
     1
 45
0.0
  0
VISUALSTYLE
  5
39
102
{ACAD_REACTORS
330
2A
102
}
102
{ACAD_XDICTIONARY
360
6D
102
}
330
2A
100
AcDbVisualStyle
  2
Facepattern
 70
    15
 71
     2
 72
     2
 73
     0
 90
        0
 40
-0.6
 41
-30.0
 62
     5
 63
     7
421
 16777215
 74
     1
 91
        4
 64
     7
 65
   257
 75
     1
175
     1
 42
1.0
 92
        8
 66
     7
 43
1.0
 76
     1
 77
     6
 78
     2
 67
     7
 79
     5
170
     0
171
     0
290
     0
174
     0
 93
        1
 44
0.0
173
     0
291
     1
 45
0.0
  0
VISUALSTYLE
  5
2B
102
{ACAD_REACTORS
330
2A
102
}
102
{ACAD_XDICTIONARY
360
51
102
}
330
2A
100
AcDbVisualStyle
  2
Flat
 70
     0
 71
     2
 72
     1
 73
     1
 90
        2
 40
-0.6
 41
30.0
 62
     5
 63
     7
421
 16777215
 74
     0
 91
        4
 64
     7
 65
   257
 75
     1
175
     1
 42
1.0
 92
        8
 66
     7
 43
1.0
 76
     1
 77
     6
 78
     2
 67
     7
 79
     5
170
     0
171
     0
290
     0
174
     0
 93
       13
 44
0.0
173
     0
291
     1
 45
0.0
  0
VISUALSTYLE
  5
2C
102
{ACAD_REACTORS
330
2A
102
}
102
{ACAD_XDICTIONARY
360
53
102
}
330
2A
100
AcDbVisualStyle
  2
FlatWithEdges
 70
     1
 71
     2
 72
     1
 73
     1
 90
        2
 40
-0.6
 41
30.0
 62
     5
 63
     7
421
 16777215
 74
     1
 91
        4
 64
     7
 65
   257
 75
     1
175
     1
 42
1.0
 92
        0
 66
   257
 43
1.0
 76
     1
 77
     6
 78
     2
 67
     7
 79
     5
170
     0
171
     0
290
     0
174
     0
 93
       13
 44
0.0
173
     0
291
     1
 45
0.0
  0
VISUALSTYLE
  5
2D
102
{ACAD_REACTORS
330
2A
102
}
102
{ACAD_XDICTIONARY
360
55
102
}
330
2A
100
AcDbVisualStyle
  2
Gouraud
 70
     2
 71
     2
 72
     2
 73
     1
 90
        2
 40
-0.6
 41
30.0
 62
     5
 63
     7
421
 16777215
 74
     0
 91
        4
 64
     7
 65
   257
 75
     1
175
     1
 42
1.0
 92
        0
 66
     7
 43
1.0
 76
     1
 77
     6
 78
     2
 67
     7
 79
     5
170
     0
171
     0
290
     0
174
     0
 93
       13
 44
0.0
173
     0
291
     1
 45
0.0
  0
VISUALSTYLE
  5
2E
102
{ACAD_REACTORS
330
2A
102
}
102
{ACAD_XDICTIONARY
360
57
102
}
330
2A
100
AcDbVisualStyle
  2
GouraudWithEdges
 70
     3
 71
     2
 72
     2
 73
     1
 90
        2
 40
-0.6
 41
30.0
 62
     5
 63
     7
421
 16777215
 74
     1
 91
        4
 64
     7
 65
   257
 75
     1
175
     1
 42
1.0
 92
        0
 66
   257
 43
1.0
 76
     1
 77
     6
 78
     2
 67
     7
 79
     5
170
     0
171
     0
290
     0
174
     0
 93
       13
 44
0.0
173
     0
291
     1
 45
0.0
  0
VISUALSTYLE
  5
38
102
{ACAD_REACTORS
330
2A
102
}
102
{ACAD_XDICTIONARY
360
6B
102
}
330
2A
100
AcDbVisualStyle
  2
Linepattern
 70
    14
 71
     2
 72
     2
 73
     0
 90
        0
 40
-0.6
 41
-30.0
 62
     5
 63
     7
421
 16777215
 74
     1
 91
        4
 64
     7
 65
   257
 75
     7
175
     7
 42
1.0
 92
        8
 66
     7
 43
1.0
 76
     1
 77
     6
 78
     2
 67
     7
 79
     5
170
     0
171
     0
290
     0
174
     0
 93
        1
 44
0.0
173
     0
291
     1
 45
0.0
  0
VISUALSTYLE
  5
33
102
{ACAD_REACTORS
330
2A
102
}
102
{ACAD_XDICTIONARY
360
61
102
}
330
2A
100
AcDbVisualStyle
  2
Realistic
 70
     8
 71
     2
 72
     2
 73
     0
 90
        0
 40
-0.6
 41
-30.0
 62
     5
 63
     7
421
 16777215
 74
     1
 91
        0
 64
     7
 65
   257
 75
     1
175
     1
 42
1.0
 92
        8
 66
     8
424
  7895160
 43
1.0
 76
     1
 77
     6
 78
     2
 67
     7
 79
     5
170
     0
171
     0
290
     0
174
     0
 93
       13
 44
0.0
173
     0
291
     0
 45
0.0
  0
VISUALSTYLE
  5
37
102
{ACAD_REACTORS
330
2A
102
}
102
{ACAD_XDICTIONARY
360
69
102
}
330
2A
100
AcDbVisualStyle
  2
Thicken
 70
    13
 71
     2
 72
     2
 73
     0
 90
        0
 40
-0.6
 41
-30.0
 62
     5
 63
     7
421
 16777215
 74
     1
 91
        4
 64
     7
 65
   257
 75
     1
175
     1
 42
1.0
 92
       12
 66
     7
 43
1.0
 76
     1
 77
     6
 78
     2
 67
     7
 79
     5
170
     0
171
     0
290
     0
174
     0
 93
        1
 44
0.0
173
     0
291
     1
 45
0.0
  0
DICTIONARY
  5
59
330
2F
100
AcDbDictionary
280
     1
281
     1
  3
ACAD_XREC_ROUNDTRIP
360
5A
  0
DICTIONARY
  5
5D
330
31
100
AcDbDictionary
280
     1
281
     1
  3
ACAD_XREC_ROUNDTRIP
360
5E
  0
DICTIONARY
  5
5B
330
30
100
AcDbDictionary
280
     1
281
     1
  3
ACAD_XREC_ROUNDTRIP
360
5C
  0
DICTIONARY
  5
5F
330
32
100
AcDbDictionary
280
     1
281
     1
  3
ACAD_XREC_ROUNDTRIP
360
60
  0
DICTIONARY
  5
67
330
36
100
AcDbDictionary
280
     1
281
     1
  3
ACAD_XREC_ROUNDTRIP
360
68
  0
DICTIONARY
  5
6F
330
3A
100
AcDbDictionary
280
     1
281
     1
  3
ACAD_XREC_ROUNDTRIP
360
70
  0
DICTIONARY
  5
63
330
34
100
AcDbDictionary
280
     1
281
     1
  3
ACAD_XREC_ROUNDTRIP
360
64
  0
DICTIONARY
  5
65
330
35
100
AcDbDictionary
280
     1
281
     1
  3
ACAD_XREC_ROUNDTRIP
360
66
  0
DICTIONARY
  5
6D
330
39
100
AcDbDictionary
280
     1
281
     1
  3
ACAD_XREC_ROUNDTRIP
360
6E
  0
DICTIONARY
  5
51
330
2B
100
AcDbDictionary
280
     1
281
     1
  3
ACAD_XREC_ROUNDTRIP
360
52
  0
DICTIONARY
  5
53
330
2C
100
AcDbDictionary
280
     1
281
     1
  3
ACAD_XREC_ROUNDTRIP
360
54
  0
DICTIONARY
  5
55
330
2D
100
AcDbDictionary
280
     1
281
     1
  3
ACAD_XREC_ROUNDTRIP
360
56
  0
DICTIONARY
  5
57
330
2E
100
AcDbDictionary
280
     1
281
     1
  3
ACAD_XREC_ROUNDTRIP
360
58
  0
DICTIONARY
  5
6B
330
38
100
AcDbDictionary
280
     1
281
     1
  3
ACAD_XREC_ROUNDTRIP
360
6C
  0
DICTIONARY
  5
61
330
33
100
AcDbDictionary
280
     1
281
     1
  3
ACAD_XREC_ROUNDTRIP
360
62
  0
DICTIONARY
  5
69
330
37
100
AcDbDictionary
280
     1
281
     1
  3
ACAD_XREC_ROUNDTRIP
360
6A
  0
XRECORD
  5
5A
102
{ACAD_REACTORS
330
59
102
}
330
59
100
AcDbXrecord
280
     1
102
RTVSPropertyOp0
 70
     1
102
RTVSPropertyOp1
 70
     1
102
RTVSPropertyOp2
 70
     1
102
RTVSPropertyOp3
 70
     1
102
RTVSPropertyOp4
 70
     1
102
RTVSPropertyOp5
 70
     1
102
RTVSPropertyOp6
 70
     1
102
RTVSPropertyOp7
 70
     1
102
RTVSPropertyOp8
 70
     1
102
RTVSPropertyOp9
 70
     1
102
RTVSPropertyOp10
 70
     1
102
RTVSPropertyOp11
 70
     1
102
RTVSPropertyOp12
 70
     1
102
RTVSPropertyOp13
 70
     1
102
RTVSPropertyOp14
 70
     1
102
RTVSPropertyOp15
 70
     1
102
RTVSPropertyOp16
 70
     1
102
RTVSPropertyOp17
 70
     1
102
RTVSPropertyOp18
 70
     1
102
RTVSPropertyOp19
 70
     1
102
RTVSPropertyOp20
 70
     1
102
RTVSPropertyOp21
 70
     1
102
RTVSPropertyOp22
 70
     1
102
RTVSPropertyOp23
 70
     1
102
RTVSPropertyOp24
 70
     1
102
RTVSPropertyOp25
 70
     1
102
RTVSPropertyOp26
 70
     1
102
RTVSPropertyOp27
 70
     1
102
RTVSPropertyOp28
 70
     1
102
RTVSPropertyOp29
 70
     1
102
RTVSPropertyOp30
 70
     1
102
RTVSPropertyOp31
 70
     1
102
RTVSPropertyOp32
 70
     1
  0
XRECORD
  5
5E
102
{ACAD_REACTORS
330
5D
102
}
330
5D
100
AcDbXrecord
280
     1
102
RTVSPropertyOp0
 70
     1
102
RTVSPropertyOp1
 70
     1
102
RTVSPropertyOp2
 70
     1
102
RTVSPropertyOp3
 70
     1
102
RTVSPropertyOp4
 70
     1
102
RTVSPropertyOp5
 70
     1
102
RTVSPropertyOp6
 70
     1
102
RTVSPropertyOp7
 70
     1
102
RTVSPropertyOp8
 70
     1
102
RTVSPropertyOp9
 70
     1
102
RTVSPropertyOp10
 70
     1
102
RTVSPropertyOp11
 70
     1
102
RTVSPropertyOp12
 70
     1
102
RTVSPropertyOp13
 70
     1
102
RTVSPropertyOp14
 70
     1
102
RTVSPropertyOp15
 70
     1
102
RTVSPropertyOp16
 70
     1
102
RTVSPropertyOp17
 70
     1
102
RTVSPropertyOp18
 70
     1
102
RTVSPropertyOp19
 70
     1
102
RTVSPropertyOp20
 70
     1
102
RTVSPropertyOp21
 70
     1
102
RTVSPropertyOp22
 70
     1
102
RTVSPropertyOp23
 70
     1
102
RTVSPropertyOp24
 70
     1
102
RTVSPropertyOp25
 70
     1
102
RTVSPropertyOp26
 70
     1
102
RTVSPropertyOp27
 70
     1
102
RTVSPropertyOp28
 70
     1
102
RTVSPropertyOp29
 70
     1
102
RTVSPropertyOp30
 70
     1
102
RTVSPropertyOp31
 70
     1
102
RTVSPropertyOp32
 70
     1
  0
XRECORD
  5
5C
102
{ACAD_REACTORS
330
5B
102
}
330
5B
100
AcDbXrecord
280
     1
102
RTVSPropertyOp0
 70
     1
102
RTVSPropertyOp1
 70
     1
102
RTVSPropertyOp2
 70
     1
102
RTVSPropertyOp3
 70
     1
102
RTVSPropertyOp4
 70
     1
102
RTVSPropertyOp5
 70
     1
102
RTVSPropertyOp6
 70
     1
102
RTVSPropertyOp7
 70
     1
102
RTVSPropertyOp8
 70
     1
102
RTVSPropertyOp9
 70
     1
102
RTVSPropertyOp10
 70
     1
102
RTVSPropertyOp11
 70
     1
102
RTVSPropertyOp12
 70
     1
102
RTVSPropertyOp13
 70
     1
102
RTVSPropertyOp14
 70
     1
102
RTVSPropertyOp15
 70
     1
102
RTVSPropertyOp16
 70
     1
102
RTVSPropertyOp17
 70
     1
102
RTVSPropertyOp18
 70
     1
102
RTVSPropertyOp19
 70
     1
102
RTVSPropertyOp20
 70
     1
102
RTVSPropertyOp21
 70
     1
102
RTVSPropertyOp22
 70
     1
102
RTVSPropertyOp23
 70
     1
102
RTVSPropertyOp24
 70
     1
102
RTVSPropertyOp25
 70
     1
102
RTVSPropertyOp26
 70
     1
102
RTVSPropertyOp27
 70
     1
102
RTVSPropertyOp28
 70
     1
102
RTVSPropertyOp29
 70
     1
102
RTVSPropertyOp30
 70
     1
102
RTVSPropertyOp31
 70
     1
102
RTVSPropertyOp32
 70
     1
  0
XRECORD
  5
60
102
{ACAD_REACTORS
330
5F
102
}
330
5F
100
AcDbXrecord
280
     1
102
RTVSPropertyOp0
 70
     1
102
RTVSPropertyOp1
 70
     1
102
RTVSPropertyOp2
 70
     1
102
RTVSPropertyOp3
 70
     1
102
RTVSPropertyOp4
 70
     1
102
RTVSPropertyOp5
 70
     1
102
RTVSPropertyOp6
 70
     1
102
RTVSPropertyOp7
 70
     1
102
RTVSPropertyOp8
 70
     1
102
RTVSPropertyOp9
 70
     1
102
RTVSPropertyOp10
 70
     1
102
RTVSPropertyOp11
 70
     1
102
RTVSPropertyOp12
 70
     1
102
RTVSPropertyOp13
 70
     1
102
RTVSPropertyOp14
 70
     1
102
RTVSPropertyOp15
 70
     1
102
RTVSPropertyOp16
 70
     1
102
RTVSPropertyOp17
 70
     1
102
RTVSPropertyOp18
 70
     1
102
RTVSPropertyOp19
 70
     1
102
RTVSPropertyOp20
 70
     1
102
RTVSPropertyOp21
 70
     1
102
RTVSPropertyOp22
 70
     1
102
RTVSPropertyOp23
 70
     1
102
RTVSPropertyOp24
 70
     1
102
RTVSPropertyOp25
 70
     1
102
RTVSPropertyOp26
 70
     1
102
RTVSPropertyOp27
 70
     1
102
RTVSPropertyOp28
 70
     1
102
RTVSPropertyOp29
 70
     1
102
RTVSPropertyOp30
 70
     1
102
RTVSPropertyOp31
 70
     1
102
RTVSPropertyOp32
 70
     1
  0
XRECORD
  5
68
102
{ACAD_REACTORS
330
67
102
}
330
67
100
AcDbXrecord
280
     1
102
RTVSPropertyOp0
 70
     1
102
RTVSPropertyOp1
 70
     1
102
RTVSPropertyOp2
 70
     1
102
RTVSPropertyOp3
 70
     1
102
RTVSPropertyOp4
 70
     1
102
RTVSPropertyOp5
 70
     1
102
RTVSPropertyOp6
 70
     1
102
RTVSPropertyOp7
 70
     1
102
RTVSPropertyOp8
 70
     1
102
RTVSPropertyOp9
 70
     1
102
RTVSPropertyOp10
 70
     1
102
RTVSPropertyOp11
 70
     1
102
RTVSPropertyOp12
 70
     1
102
RTVSPropertyOp13
 70
     1
102
RTVSPropertyOp14
 70
     1
102
RTVSPropertyOp15
 70
     1
102
RTVSPropertyOp16
 70
     1
102
RTVSPropertyOp17
 70
     1
102
RTVSPropertyOp18
 70
     1
102
RTVSPropertyOp19
 70
     1
102
RTVSPropertyOp20
 70
     1
102
RTVSPropertyOp21
 70
     1
102
RTVSPropertyOp22
 70
     1
102
RTVSPropertyOp23
 70
     1
102
RTVSPropertyOp24
 70
     1
102
RTVSPropertyOp25
 70
     1
102
RTVSPropertyOp26
 70
     1
102
RTVSPropertyOp27
 70
     1
102
RTVSPropertyOp28
 70
     1
102
RTVSPropertyOp29
 70
     1
102
RTVSPropertyOp30
 70
     1
102
RTVSPropertyOp31
 70
     1
102
RTVSPropertyOp32
 70
     1
  0
XRECORD
  5
70
102
{ACAD_REACTORS
330
6F
102
}
330
6F
100
AcDbXrecord
280
     1
102
RTVSPropertyOp0
 70
     1
102
RTVSPropertyOp1
 70
     1
102
RTVSPropertyOp2
 70
     1
102
RTVSPropertyOp3
 70
     1
102
RTVSPropertyOp4
 70
     1
102
RTVSPropertyOp5
 70
     1
102
RTVSPropertyOp6
 70
     1
102
RTVSPropertyOp7
 70
     1
102
RTVSPropertyOp8
 70
     1
102
RTVSPropertyOp9
 70
     1
102
RTVSPropertyOp10
 70
     1
102
RTVSPropertyOp11
 70
     1
102
RTVSPropertyOp12
 70
     1
102
RTVSPropertyOp13
 70
     1
102
RTVSPropertyOp14
 70
     1
102
RTVSPropertyOp15
 70
     1
102
RTVSPropertyOp16
 70
     1
102
RTVSPropertyOp17
 70
     1
102
RTVSPropertyOp18
 70
     1
102
RTVSPropertyOp19
 70
     1
102
RTVSPropertyOp20
 70
     1
102
RTVSPropertyOp21
 70
     1
102
RTVSPropertyOp22
 70
     1
102
RTVSPropertyOp23
 70
     1
102
RTVSPropertyOp24
 70
     1
102
RTVSPropertyOp25
 70
     1
102
RTVSPropertyOp26
 70
     1
102
RTVSPropertyOp27
 70
     1
102
RTVSPropertyOp28
 70
     1
102
RTVSPropertyOp29
 70
     1
102
RTVSPropertyOp30
 70
     1
102
RTVSPropertyOp31
 70
     1
102
RTVSPropertyOp32
 70
     1
  0
XRECORD
  5
64
102
{ACAD_REACTORS
330
63
102
}
330
63
100
AcDbXrecord
280
     1
102
RTVSPropertyOp0
 70
     1
102
RTVSPropertyOp1
 70
     1
102
RTVSPropertyOp2
 70
     1
102
RTVSPropertyOp3
 70
     1
102
RTVSPropertyOp4
 70
     1
102
RTVSPropertyOp5
 70
     1
102
RTVSPropertyOp6
 70
     1
102
RTVSPropertyOp7
 70
     1
102
RTVSPropertyOp8
 70
     1
102
RTVSPropertyOp9
 70
     1
102
RTVSPropertyOp10
 70
     1
102
RTVSPropertyOp11
 70
     1
102
RTVSPropertyOp12
 70
     1
102
RTVSPropertyOp13
 70
     1
102
RTVSPropertyOp14
 70
     1
102
RTVSPropertyOp15
 70
     1
102
RTVSPropertyOp16
 70
     1
102
RTVSPropertyOp17
 70
     1
102
RTVSPropertyOp18
 70
     1
102
RTVSPropertyOp19
 70
     1
102
RTVSPropertyOp20
 70
     1
102
RTVSPropertyOp21
 70
     1
102
RTVSPropertyOp22
 70
     1
102
RTVSPropertyOp23
 70
     1
102
RTVSPropertyOp24
 70
     1
102
RTVSPropertyOp25
 70
     1
102
RTVSPropertyOp26
 70
     1
102
RTVSPropertyOp27
 70
     1
102
RTVSPropertyOp28
 70
     1
102
RTVSPropertyOp29
 70
     1
102
RTVSPropertyOp30
 70
     1
102
RTVSPropertyOp31
 70
     1
102
RTVSPropertyOp32
 70
     1
  0
XRECORD
  5
66
102
{ACAD_REACTORS
330
65
102
}
330
65
100
AcDbXrecord
280
     1
102
RTVSPropertyOp0
 70
     1
102
RTVSPropertyOp1
 70
     1
102
RTVSPropertyOp2
 70
     1
102
RTVSPropertyOp3
 70
     1
102
RTVSPropertyOp4
 70
     1
102
RTVSPropertyOp5
 70
     1
102
RTVSPropertyOp6
 70
     1
102
RTVSPropertyOp7
 70
     1
102
RTVSPropertyOp8
 70
     1
102
RTVSPropertyOp9
 70
     1
102
RTVSPropertyOp10
 70
     1
102
RTVSPropertyOp11
 70
     1
102
RTVSPropertyOp12
 70
     1
102
RTVSPropertyOp13
 70
     1
102
RTVSPropertyOp14
 70
     1
102
RTVSPropertyOp15
 70
     1
102
RTVSPropertyOp16
 70
     1
102
RTVSPropertyOp17
 70
     1
102
RTVSPropertyOp18
 70
     1
102
RTVSPropertyOp19
 70
     1
102
RTVSPropertyOp20
 70
     1
102
RTVSPropertyOp21
 70
     1
102
RTVSPropertyOp22
 70
     1
102
RTVSPropertyOp23
 70
     1
102
RTVSPropertyOp24
 70
     1
102
RTVSPropertyOp25
 70
     1
102
RTVSPropertyOp26
 70
     1
102
RTVSPropertyOp27
 70
     1
102
RTVSPropertyOp28
 70
     1
102
RTVSPropertyOp29
 70
     1
102
RTVSPropertyOp30
 70
     1
102
RTVSPropertyOp31
 70
     1
102
RTVSPropertyOp32
 70
     1
  0
XRECORD
  5
6E
102
{ACAD_REACTORS
330
6D
102
}
330
6D
100
AcDbXrecord
280
     1
102
RTVSPropertyOp0
 70
     1
102
RTVSPropertyOp1
 70
     1
102
RTVSPropertyOp2
 70
     1
102
RTVSPropertyOp3
 70
     1
102
RTVSPropertyOp4
 70
     1
102
RTVSPropertyOp5
 70
     1
102
RTVSPropertyOp6
 70
     1
102
RTVSPropertyOp7
 70
     1
102
RTVSPropertyOp8
 70
     1
102
RTVSPropertyOp9
 70
     1
102
RTVSPropertyOp10
 70
     1
102
RTVSPropertyOp11
 70
     1
102
RTVSPropertyOp12
 70
     1
102
RTVSPropertyOp13
 70
     1
102
RTVSPropertyOp14
 70
     1
102
RTVSPropertyOp15
 70
     1
102
RTVSPropertyOp16
 70
     1
102
RTVSPropertyOp17
 70
     1
102
RTVSPropertyOp18
 70
     1
102
RTVSPropertyOp19
 70
     1
102
RTVSPropertyOp20
 70
     1
102
RTVSPropertyOp21
 70
     1
102
RTVSPropertyOp22
 70
     1
102
RTVSPropertyOp23
 70
     1
102
RTVSPropertyOp24
 70
     1
102
RTVSPropertyOp25
 70
     1
102
RTVSPropertyOp26
 70
     1
102
RTVSPropertyOp27
 70
     1
102
RTVSPropertyOp28
 70
     1
102
RTVSPropertyOp29
 70
     1
102
RTVSPropertyOp30
 70
     1
102
RTVSPropertyOp31
 70
     1
102
RTVSPropertyOp32
 70
     1
  0
XRECORD
  5
52
102
{ACAD_REACTORS
330
51
102
}
330
51
100
AcDbXrecord
280
     1
102
RTVSPropertyOp0
 70
     1
102
RTVSPropertyOp1
 70
     1
102
RTVSPropertyOp2
 70
     1
102
RTVSPropertyOp3
 70
     1
102
RTVSPropertyOp4
 70
     1
102
RTVSPropertyOp5
 70
     1
102
RTVSPropertyOp6
 70
     1
102
RTVSPropertyOp7
 70
     1
102
RTVSPropertyOp8
 70
     1
102
RTVSPropertyOp9
 70
     1
102
RTVSPropertyOp10
 70
     1
102
RTVSPropertyOp11
 70
     1
102
RTVSPropertyOp12
 70
     1
102
RTVSPropertyOp13
 70
     1
102
RTVSPropertyOp14
 70
     1
102
RTVSPropertyOp15
 70
     1
102
RTVSPropertyOp16
 70
     1
102
RTVSPropertyOp17
 70
     1
102
RTVSPropertyOp18
 70
     1
102
RTVSPropertyOp19
 70
     1
102
RTVSPropertyOp20
 70
     1
102
RTVSPropertyOp21
 70
     1
102
RTVSPropertyOp22
 70
     1
102
RTVSPropertyOp23
 70
     1
102
RTVSPropertyOp24
 70
     1
102
RTVSPropertyOp25
 70
     1
102
RTVSPropertyOp26
 70
     1
102
RTVSPropertyOp27
 70
     1
102
RTVSPropertyOp28
 70
     1
102
RTVSPropertyOp29
 70
     1
102
RTVSPropertyOp30
 70
     1
102
RTVSPropertyOp31
 70
     1
102
RTVSPropertyOp32
 70
     1
  0
XRECORD
  5
54
102
{ACAD_REACTORS
330
53
102
}
330
53
100
AcDbXrecord
280
     1
102
RTVSPropertyOp0
 70
     1
102
RTVSPropertyOp1
 70
     1
102
RTVSPropertyOp2
 70
     1
102
RTVSPropertyOp3
 70
     1
102
RTVSPropertyOp4
 70
     1
102
RTVSPropertyOp5
 70
     1
102
RTVSPropertyOp6
 70
     1
102
RTVSPropertyOp7
 70
     1
102
RTVSPropertyOp8
 70
     1
102
RTVSPropertyOp9
 70
     1
102
RTVSPropertyOp10
 70
     1
102
RTVSPropertyOp11
 70
     1
102
RTVSPropertyOp12
 70
     1
102
RTVSPropertyOp13
 70
     1
102
RTVSPropertyOp14
 70
     1
102
RTVSPropertyOp15
 70
     1
102
RTVSPropertyOp16
 70
     1
102
RTVSPropertyOp17
 70
     1
102
RTVSPropertyOp18
 70
     1
102
RTVSPropertyOp19
 70
     1
102
RTVSPropertyOp20
 70
     1
102
RTVSPropertyOp21
 70
     1
102
RTVSPropertyOp22
 70
     1
102
RTVSPropertyOp23
 70
     1
102
RTVSPropertyOp24
 70
     1
102
RTVSPropertyOp25
 70
     1
102
RTVSPropertyOp26
 70
     1
102
RTVSPropertyOp27
 70
     1
102
RTVSPropertyOp28
 70
     1
102
RTVSPropertyOp29
 70
     1
102
RTVSPropertyOp30
 70
     1
102
RTVSPropertyOp31
 70
     1
102
RTVSPropertyOp32
 70
     1
  0
XRECORD
  5
56
102
{ACAD_REACTORS
330
55
102
}
330
55
100
AcDbXrecord
280
     1
102
RTVSPropertyOp0
 70
     1
102
RTVSPropertyOp1
 70
     1
102
RTVSPropertyOp2
 70
     1
102
RTVSPropertyOp3
 70
     1
102
RTVSPropertyOp4
 70
     1
102
RTVSPropertyOp5
 70
     1
102
RTVSPropertyOp6
 70
     1
102
RTVSPropertyOp7
 70
     1
102
RTVSPropertyOp8
 70
     1
102
RTVSPropertyOp9
 70
     1
102
RTVSPropertyOp10
 70
     1
102
RTVSPropertyOp11
 70
     1
102
RTVSPropertyOp12
 70
     1
102
RTVSPropertyOp13
 70
     1
102
RTVSPropertyOp14
 70
     1
102
RTVSPropertyOp15
 70
     1
102
RTVSPropertyOp16
 70
     1
102
RTVSPropertyOp17
 70
     1
102
RTVSPropertyOp18
 70
     1
102
RTVSPropertyOp19
 70
     1
102
RTVSPropertyOp20
 70
     1
102
RTVSPropertyOp21
 70
     1
102
RTVSPropertyOp22
 70
     1
102
RTVSPropertyOp23
 70
     1
102
RTVSPropertyOp24
 70
     1
102
RTVSPropertyOp25
 70
     1
102
RTVSPropertyOp26
 70
     1
102
RTVSPropertyOp27
 70
     1
102
RTVSPropertyOp28
 70
     1
102
RTVSPropertyOp29
 70
     1
102
RTVSPropertyOp30
 70
     1
102
RTVSPropertyOp31
 70
     1
102
RTVSPropertyOp32
 70
     1
  0
XRECORD
  5
58
102
{ACAD_REACTORS
330
57
102
}
330
57
100
AcDbXrecord
280
     1
102
RTVSPropertyOp0
 70
     1
102
RTVSPropertyOp1
 70
     1
102
RTVSPropertyOp2
 70
     1
102
RTVSPropertyOp3
 70
     1
102
RTVSPropertyOp4
 70
     1
102
RTVSPropertyOp5
 70
     1
102
RTVSPropertyOp6
 70
     1
102
RTVSPropertyOp7
 70
     1
102
RTVSPropertyOp8
 70
     1
102
RTVSPropertyOp9
 70
     1
102
RTVSPropertyOp10
 70
     1
102
RTVSPropertyOp11
 70
     1
102
RTVSPropertyOp12
 70
     1
102
RTVSPropertyOp13
 70
     1
102
RTVSPropertyOp14
 70
     1
102
RTVSPropertyOp15
 70
     1
102
RTVSPropertyOp16
 70
     1
102
RTVSPropertyOp17
 70
     1
102
RTVSPropertyOp18
 70
     1
102
RTVSPropertyOp19
 70
     1
102
RTVSPropertyOp20
 70
     1
102
RTVSPropertyOp21
 70
     1
102
RTVSPropertyOp22
 70
     1
102
RTVSPropertyOp23
 70
     1
102
RTVSPropertyOp24
 70
     1
102
RTVSPropertyOp25
 70
     1
102
RTVSPropertyOp26
 70
     1
102
RTVSPropertyOp27
 70
     1
102
RTVSPropertyOp28
 70
     1
102
RTVSPropertyOp29
 70
     1
102
RTVSPropertyOp30
 70
     1
102
RTVSPropertyOp31
 70
     1
102
RTVSPropertyOp32
 70
     1
  0
XRECORD
  5
6C
102
{ACAD_REACTORS
330
6B
102
}
330
6B
100
AcDbXrecord
280
     1
102
RTVSPropertyOp0
 70
     1
102
RTVSPropertyOp1
 70
     1
102
RTVSPropertyOp2
 70
     1
102
RTVSPropertyOp3
 70
     1
102
RTVSPropertyOp4
 70
     1
102
RTVSPropertyOp5
 70
     1
102
RTVSPropertyOp6
 70
     1
102
RTVSPropertyOp7
 70
     1
102
RTVSPropertyOp8
 70
     1
102
RTVSPropertyOp9
 70
     1
102
RTVSPropertyOp10
 70
     1
102
RTVSPropertyOp11
 70
     1
102
RTVSPropertyOp12
 70
     1
102
RTVSPropertyOp13
 70
     1
102
RTVSPropertyOp14
 70
     1
102
RTVSPropertyOp15
 70
     1
102
RTVSPropertyOp16
 70
     1
102
RTVSPropertyOp17
 70
     1
102
RTVSPropertyOp18
 70
     1
102
RTVSPropertyOp19
 70
     1
102
RTVSPropertyOp20
 70
     1
102
RTVSPropertyOp21
 70
     1
102
RTVSPropertyOp22
 70
     1
102
RTVSPropertyOp23
 70
     1
102
RTVSPropertyOp24
 70
     1
102
RTVSPropertyOp25
 70
     1
102
RTVSPropertyOp26
 70
     1
102
RTVSPropertyOp27
 70
     1
102
RTVSPropertyOp28
 70
     1
102
RTVSPropertyOp29
 70
     1
102
RTVSPropertyOp30
 70
     1
102
RTVSPropertyOp31
 70
     1
102
RTVSPropertyOp32
 70
     1
  0
XRECORD
  5
62
102
{ACAD_REACTORS
330
61
102
}
330
61
100
AcDbXrecord
280
     1
102
RTVSPropertyOp0
 70
     1
102
RTVSPropertyOp1
 70
     1
102
RTVSPropertyOp2
 70
     1
102
RTVSPropertyOp3
 70
     1
102
RTVSPropertyOp4
 70
     1
102
RTVSPropertyOp5
 70
     1
102
RTVSPropertyOp6
 70
     1
102
RTVSPropertyOp7
 70
     1
102
RTVSPropertyOp8
 70
     1
102
RTVSPropertyOp9
 70
     1
102
RTVSPropertyOp10
 70
     1
102
RTVSPropertyOp11
 70
     1
102
RTVSPropertyOp12
 70
     1
102
RTVSPropertyOp13
 70
     1
102
RTVSPropertyOp14
 70
     1
102
RTVSPropertyOp15
 70
     1
102
RTVSPropertyOp16
 70
     1
102
RTVSPropertyOp17
 70
     1
102
RTVSPropertyOp18
 70
     1
102
RTVSPropertyOp19
 70
     1
102
RTVSPropertyOp20
 70
     1
102
RTVSPropertyOp21
 70
     1
102
RTVSPropertyOp22
 70
     1
102
RTVSPropertyOp23
 70
     1
102
RTVSPropertyOp24
 70
     1
102
RTVSPropertyOp25
 70
     1
102
RTVSPropertyOp26
 70
     1
102
RTVSPropertyOp27
 70
     1
102
RTVSPropertyOp28
 70
     1
102
RTVSPropertyOp29
 70
     1
102
RTVSPropertyOp30
 70
     1
102
RTVSPropertyOp31
 70
     1
102
RTVSPropertyOp32
 70
     1
  0
XRECORD
  5
6A
102
{ACAD_REACTORS
330
69
102
}
330
69
100
AcDbXrecord
280
     1
102
RTVSPropertyOp0
 70
     1
102
RTVSPropertyOp1
 70
     1
102
RTVSPropertyOp2
 70
     1
102
RTVSPropertyOp3
 70
     1
102
RTVSPropertyOp4
 70
     1
102
RTVSPropertyOp5
 70
     1
102
RTVSPropertyOp6
 70
     1
102
RTVSPropertyOp7
 70
     1
102
RTVSPropertyOp8
 70
     1
102
RTVSPropertyOp9
 70
     1
102
RTVSPropertyOp10
 70
     1
102
RTVSPropertyOp11
 70
     1
102
RTVSPropertyOp12
 70
     1
102
RTVSPropertyOp13
 70
     1
102
RTVSPropertyOp14
 70
     1
102
RTVSPropertyOp15
 70
     1
102
RTVSPropertyOp16
 70
     1
102
RTVSPropertyOp17
 70
     1
102
RTVSPropertyOp18
 70
     1
102
RTVSPropertyOp19
 70
     1
102
RTVSPropertyOp20
 70
     1
102
RTVSPropertyOp21
 70
     1
102
RTVSPropertyOp22
 70
     1
102
RTVSPropertyOp23
 70
     1
102
RTVSPropertyOp24
 70
     1
102
RTVSPropertyOp25
 70
     1
102
RTVSPropertyOp26
 70
     1
102
RTVSPropertyOp27
 70
     1
102
RTVSPropertyOp28
 70
     1
102
RTVSPropertyOp29
 70
     1
102
RTVSPropertyOp30
 70
     1
102
RTVSPropertyOp31
 70
     1
102
RTVSPropertyOp32
 70
     1
  0
ENDSEC
  0
EOF
