<?xml version="1.0" encoding="UTF-8"?>
<!DOCTYPE svg PUBLIC "-//W3C//DTD SVG 1.1//EN" "http://www.w3.org/Graphics/SVG/1.1/DTD/svg11.dtd">
<!-- Creator: CorelDRAW X6 -->
<svg xmlns="http://www.w3.org/2000/svg" xml:space="preserve" width="200mm" height="200mm" version="1.1" shape-rendering="geometricPrecision" text-rendering="geometricPrecision" image-rendering="optimizeQuality" fill-rule="evenodd" clip-rule="evenodd"
viewBox="0 0 20000 20000"
 xmlns:xlink="http://www.w3.org/1999/xlink">
 <g id="Layer_x0020_1">
  <metadata id="CorelCorpID_0Corel-Layer"/>
  <g id="_879179520">
   <circle fill="none" stroke="black" stroke-width="52.92" stroke-linecap="round" stroke-linejoin="round" transform="matrix(1.6266E-014 -0.614169 0.614169 1.6266E-014 -0 20000)" r="529"/>
   <circle fill="none" stroke="black" stroke-width="52.92" stroke-linecap="round" stroke-linejoin="round" transform="matrix(1.6266E-014 -0.614169 0.614169 1.6266E-014 1500 20000)" r="529"/>
   <circle fill="none" stroke="black" stroke-width="52.92" stroke-linecap="round" stroke-linejoin="round" transform="matrix(1.6266E-014 -0.614169 0.614169 1.6266E-014 -1500 20000)" r="529"/>
   <path fill="none" fill-rule="nonzero" stroke="blue" stroke-width="52.92" stroke-linecap="round" stroke-linejoin="round" d="M-720 13799c9,-85 -41,-154 -123,-174 -85,-21 -139,13 -177,67 -44,57 -3,195 51,229 90,57 213,20 243,-91 3,-11 5,-22 6,-32"/>
   <path fill="none" fill-rule="nonzero" stroke="blue" stroke-width="52.92" stroke-linecap="round" stroke-linejoin="round" d="M-1930 15244c0,-3 1,-7 2,-11 21,-102 58,-231 93,-330 53,-149 103,-290 177,-431 76,-146 165,-329 294,-436 88,-74 321,-66 246,91 -29,60 -114,83 -155,139 -59,82 -111,182 -159,271 -115,217 -162,441 -229,673 -23,80 -48,154 -141,159 -83,5 -140,-42 -128,-125"/>
   <path fill="none" fill-rule="nonzero" stroke="blue" stroke-width="52.92" stroke-linecap="round" stroke-linejoin="round" d="M317 18402c0,184 -149,333 -333,333"/>
   <path fill="none" fill-rule="nonzero" stroke="blue" stroke-width="52.92" stroke-linecap="round" stroke-linejoin="round" d="M-16 18736c-184,0 -333,-149 -333,-333"/>
   <path fill="none" fill-rule="nonzero" stroke="blue" stroke-width="52.92" stroke-linecap="round" stroke-linejoin="round" d="M-873 16341c-163,-181 -399,-362 -632,-439 -386,-128 -417,134 -383,455 20,191 61,385 124,568 174,503 640,1030 1202,1054 156,7 268,5 314,-122 35,-98 -4,-265 -22,-363 -77,-419 -321,-839 -603,-1153"/>
   <path fill="none" fill-rule="nonzero" stroke="blue" stroke-width="52.92" stroke-linecap="round" stroke-linejoin="round" d="M-1036 17055c3,40 16,81 32,115 22,47 54,90 91,126 55,55 144,151 225,83 43,-36 38,-97 26,-146 -22,-91 -75,-182 -150,-237 -65,-48 -200,-111 -221,12 -3,15 -3,31 -2,47"/>
   <path fill="none" fill-rule="nonzero" stroke="blue" stroke-width="52.92" stroke-linecap="round" stroke-linejoin="round" d="M-901 17105c6,-36 -26,-90 -56,-95 -45,-7 -47,63 -30,87 12,18 50,48 73,31 8,-6 12,-14 14,-24z"/>
   <path fill="none" fill-rule="nonzero" stroke="blue" stroke-width="52.92" stroke-linecap="round" stroke-linejoin="round" d="M832 16341c163,-181 399,-362 632,-439 386,-128 417,134 383,455 -20,191 -61,385 -124,568 -174,503 -640,1030 -1202,1054 -156,7 -268,5 -314,-122 -35,-98 4,-265 22,-363 77,-419 321,-839 603,-1153"/>
   <path fill="none" fill-rule="nonzero" stroke="blue" stroke-width="52.92" stroke-linecap="round" stroke-linejoin="round" d="M995 17055c-3,40 -16,81 -32,115 -22,47 -54,90 -91,126 -55,55 -144,151 -225,83 -43,-36 -38,-97 -26,-146 22,-91 75,-182 150,-237 65,-48 200,-111 221,12 3,15 3,31 2,47"/>
   <path fill="none" fill-rule="nonzero" stroke="blue" stroke-width="52.92" stroke-linecap="round" stroke-linejoin="round" d="M860 17105c-6,-36 26,-90 56,-95 45,-7 47,63 30,87 -12,18 -50,48 -72,31 -8,-6 -12,-14 -14,-24z"/>
   <path fill="none" stroke="black" stroke-width="52.92" stroke-linecap="round" stroke-linejoin="round" d="M487 19300l0 -395c804,-469 1290,-1575 1510,-2426 39,-151 70,-304 91,-458 110,-804 -40,-1631 -636,-2234 -288,-291 -658,-511 -1061,-582 -425,-75 -871,19 -1255,217 -1180,607 -1523,1792 -1192,3023 98,365 286,670 456,1002 86,168 174,310 286,463 217,295 486,733 826,974l0 416 -1213 0c-276,0 -500,224 -500,500l0 400c0,276 224,500 500,500l3400 0c276,0 500,-224 500,-500l0 -400c0,-276 -224,-500 -500,-500l-1213 0z"/>
  </g>
  <circle fill="none" stroke="black" stroke-width="52.92" stroke-linecap="round" stroke-linejoin="round" transform="matrix(9.00886E-015 -0.340155 0.340155 9.00886E-015 -750 20000)" r="529"/>
  <circle fill="none" stroke="black" stroke-width="52.92" stroke-linecap="round" stroke-linejoin="round" transform="matrix(9.00886E-015 -0.340155 0.340155 9.00886E-015 750 20000)" r="529"/>
 </g>
</svg>
