  0
SECTION
  2
HEADER
  9
$ACADVER
  1
AC1021
  9
$ACADMAINTVER
 70
    25
  9
$DWGCODEPAGE
  3
ANSI_1252
  9
$INSBASE
 10
0.0
 20
0.0
 30
0.0
  9
$EXTMIN
 10
-4.24349
 20
-2.99242
 30
0.0
  9
$EXTMAX
 10
3.76101
 20
1.97646
 30
0.0
  9
$LIMMIN
 10
0.0
 20
0.0
  9
$LIMMAX
 10
12.0
 20
9.0
  9
$ORTHOMODE
 70
     0
  9
$REGENMODE
 70
     1
  9
$FILLMODE
 70
     1
  9
$QTEXTMODE
 70
     0
  9
$MIRRTEXT
 70
     1
  9
$LTSCALE
 40
1.0
  9
$ATTMODE
 70
     1
  9
$TEXTSIZE
 40
0.2
  9
$TRACEWID
 40
0.05
  9
$TEXTSTYLE
  7
Standard
  9
$CLAYER
  8
0
  9
$CELTYPE
  6
ByLayer
  9
$CECOLOR
 62
   256
  9
$CELTSCALE
 40
1.0
  9
$DISPSILH
 70
     0
  9
$DIMSCALE
 40
1.0
  9
$DIMASZ
 40
0.18
  9
$DIMEXO
 40
0.0625
  9
$DIMDLI
 40
0.38
  9
$DIMRND
 40
0.0
  9
$DIMDLE
 40
0.0
  9
$DIMEXE
 40
0.18
  9
$DIMTP
 40
0.0
  9
$DIMTM
 40
0.0
  9
$DIMTXT
 40
0.18
  9
$DIMCEN
 40
0.09
  9
$DIMTSZ
 40
0.0
  9
$DIMTOL
 70
     0
  9
$DIMLIM
 70
     0
  9
$DIMTIH
 70
     1
  9
$DIMTOH
 70
     1
  9
$DIMSE1
 70
     0
  9
$DIMSE2
 70
     0
  9
$DIMTAD
 70
     0
  9
$DIMZIN
 70
     0
  9
$DIMBLK
  1

  9
$DIMASO
 70
     1
  9
$DIMSHO
 70
     1
  9
$DIMPOST
  1

  9
$DIMAPOST
  1

  9
$DIMALT
 70
     0
  9
$DIMALTD
 70
     2
  9
$DIMALTF
 40
25.4
  9
$DIMLFAC
 40
1.0
  9
$DIMTOFL
 70
     0
  9
$DIMTVP
 40
0.0
  9
$DIMTIX
 70
     0
  9
$DIMSOXD
 70
     0
  9
$DIMSAH
 70
     0
  9
$DIMBLK1
  1

  9
$DIMBLK2
  1

  9
$DIMSTYLE
  2
Standard
  9
$DIMCLRD
 70
     0
  9
$DIMCLRE
 70
     0
  9
$DIMCLRT
 70
     0
  9
$DIMTFAC
 40
1.0
  9
$DIMGAP
 40
0.09
  9
$DIMJUST
 70
     0
  9
$DIMSD1
 70
     0
  9
$DIMSD2
 70
     0
  9
$DIMTOLJ
 70
     1
  9
$DIMTZIN
 70
     0
  9
$DIMALTZ
 70
     0
  9
$DIMALTTZ
 70
     0
  9
$DIMUPT
 70
     0
  9
$DIMDEC
 70
     4
  9
$DIMTDEC
 70
     4
  9
$DIMALTU
 70
     2
  9
$DIMALTTD
 70
     2
  9
$DIMTXSTY
  7
Standard
  9
$DIMAUNIT
 70
     0
  9
$DIMADEC
 70
     0
  9
$DIMALTRND
 40
0.0
  9
$DIMAZIN
 70
     0
  9
$DIMDSEP
 70
    46
  9
$DIMATFIT
 70
     3
  9
$DIMFRAC
 70
     0
  9
$DIMLDRBLK
  1

  9
$DIMLUNIT
 70
     2
  9
$DIMLWD
 70
    -2
  9
$DIMLWE
 70
    -2
  9
$DIMTMOVE
 70
     0
  9
$DIMFXL
 40
1.0
  9
$DIMFXLON
 70
     0
  9
$DIMJOGANG
 40
0.7853981633974483
  9
$DIMTFILL
 70
     0
  9
$DIMTFILLCLR
 70
     0
  9
$DIMARCSYM
 70
     0
  9
$DIMLTYPE
  6

  9
$DIMLTEX1
  6

  9
$DIMLTEX2
  6

  9
$LUNITS
 70
     2
  9
$LUPREC
 70
     4
  9
$SKETCHINC
 40
0.1
  9
$FILLETRAD
 40
0.5
  9
$AUNITS
 70
     0
  9
$AUPREC
 70
     0
  9
$MENU
  1
.
  9
$ELEVATION
 40
0.0
  9
$PELEVATION
 40
0.0
  9
$THICKNESS
 40
0.0
  9
$LIMCHECK
 70
     0
  9
$CHAMFERA
 40
0.5
  9
$CHAMFERB
 40
0.5
  9
$CHAMFERC
 40
1.0
  9
$CHAMFERD
 40
0.0
  9
$SKPOLY
 70
     0
  9
$TDCREATE
 40
2460554.900346158
  9
$TDUCREATE
 40
2460554.858679491
  9
$TDUPDATE
 40
2460554.900346192
  9
$TDUUPDATE
 40
2460554.858679526
  9
$TDINDWG
 40
0.0000000116
  9
$TDUSRTIMER
 40
0.0000000116
  9
$USRTIMER
 70
     1
  9
$ANGBASE
 50
0.0
  9
$ANGDIR
 70
     0
  9
$PDMODE
 70
     0
  9
$PDSIZE
 40
0.0
  9
$PLINEWID
 40
0.0
  9
$SPLFRAME
 70
     0
  9
$SPLINETYPE
 70
     6
  9
$SPLINESEGS
 70
     8
  9
$HANDSEED
  5
6F
  9
$SURFTAB1
 70
     6
  9
$SURFTAB2
 70
     6
  9
$SURFTYPE
 70
     6
  9
$SURFU
 70
     6
  9
$SURFV
 70
     6
  9
$UCSBASE
  2

  9
$UCSNAME
  2

  9
$UCSORG
 10
0.0
 20
0.0
 30
0.0
  9
$UCSXDIR
 10
1.0
 20
0.0
 30
0.0
  9
$UCSYDIR
 10
0.0
 20
1.0
 30
0.0
  9
$UCSORTHOREF
  2

  9
$UCSORTHOVIEW
 70
     0
  9
$UCSORGTOP
 10
0.0
 20
0.0
 30
0.0
  9
$UCSORGBOTTOM
 10
0.0
 20
0.0
 30
0.0
  9
$UCSORGLEFT
 10
0.0
 20
0.0
 30
0.0
  9
$UCSORGRIGHT
 10
0.0
 20
0.0
 30
0.0
  9
$UCSORGFRONT
 10
0.0
 20
0.0
 30
0.0
  9
$UCSORGBACK
 10
0.0
 20
0.0
 30
0.0
  9
$PUCSBASE
  2

  9
$PUCSNAME
  2

  9
$PUCSORG
 10
0.0
 20
0.0
 30
0.0
  9
$PUCSXDIR
 10
1.0
 20
0.0
 30
0.0
  9
$PUCSYDIR
 10
0.0
 20
1.0
 30
0.0
  9
$PUCSORTHOREF
  2

  9
$PUCSORTHOVIEW
 70
     0
  9
$PUCSORGTOP
 10
0.0
 20
0.0
 30
0.0
  9
$PUCSORGBOTTOM
 10
0.0
 20
0.0
 30
0.0
  9
$PUCSORGLEFT
 10
0.0
 20
0.0
 30
0.0
  9
$PUCSORGRIGHT
 10
0.0
 20
0.0
 30
0.0
  9
$PUCSORGFRONT
 10
0.0
 20
0.0
 30
0.0
  9
$PUCSORGBACK
 10
0.0
 20
0.0
 30
0.0
  9
$USERI1
 70
     0
  9
$USERI2
 70
     0
  9
$USERI3
 70
     0
  9
$USERI4
 70
     0
  9
$USERI5
 70
     0
  9
$USERR1
 40
0.0
  9
$USERR2
 40
0.0
  9
$USERR3
 40
0.0
  9
$USERR4
 40
0.0
  9
$USERR5
 40
0.0
  9
$WORLDVIEW
 70
     1
  9
$SHADEDGE
 70
     3
  9
$SHADEDIF
 70
    70
  9
$TILEMODE
 70
     1
  9
$MAXACTVP
 70
    64
  9
$PINSBASE
 10
0.0
 20
0.0
 30
0.0
  9
$PLIMCHECK
 70
     0
  9
$PEXTMIN
 10
1.000000000000000E+20
 20
1.000000000000000E+20
 30
1.000000000000000E+20
  9
$PEXTMAX
 10
-1.000000000000000E+20
 20
-1.000000000000000E+20
 30
-1.000000000000000E+20
  9
$PLIMMIN
 10
0.0
 20
0.0
  9
$PLIMMAX
 10
12.0
 20
9.0
  9
$UNITMODE
 70
     0
  9
$VISRETAIN
 70
     1
  9
$PLINEGEN
 70
     0
  9
$PSLTSCALE
 70
     1
  9
$TREEDEPTH
 70
  3020
  9
$CMLSTYLE
  2
Standard
  9
$CMLJUST
 70
     0
  9
$CMLSCALE
 40
1.0
  9
$PROXYGRAPHICS
 70
     1
  9
$MEASUREMENT
 70
     0
  9
$CELWEIGHT
370
    -1
  9
$ENDCAPS
280
     0
  9
$JOINSTYLE
280
     0
  9
$LWDISPLAY
290
     0
  9
$INSUNITS
 70
     5
  9
$HYPERLINKBASE
  1

  9
$STYLESHEET
  1

  9
$XEDIT
290
     1
  9
$CEPSNTYPE
380
     0
  9
$PSTYLEMODE
290
     1
  9
$FINGERPRINTGUID
  2
{C6277CAE-DD91-4078-ABC4-2363D58AAF71}
  9
$VERSIONGUID
  2
{FAEB1C32-E019-11D5-929B-00C0DF256EC4}
  9
$EXTNAMES
290
     1
  9
$PSVPSCALE
 40
0.0
  9
$OLESTARTUP
290
     0
  9
$SORTENTS
280
   127
  9
$INDEXCTL
280
     0
  9
$HIDETEXT
280
     1
  9
$XCLIPFRAME
290
     0
  9
$HALOGAP
280
     0
  9
$OBSCOLOR
 70
   257
  9
$OBSLTYPE
280
     0
  9
$INTERSECTIONDISPLAY
280
     0
  9
$INTERSECTIONCOLOR
 70
   257
  9
$DIMASSOC
280
     2
  9
$PROJECTNAME
  1

  9
$CAMERADISPLAY
290
     0
  9
$LENSLENGTH
 40
50.0
  9
$CAMERAHEIGHT
 40
0.0
  9
$STEPSPERSEC
 40
2.0
  9
$STEPSIZE
 40
6.0
  9
$3DDWFPREC
 40
2.0
  9
$PSOLWIDTH
 40
0.25
  9
$PSOLHEIGHT
 40
4.0
  9
$LOFTANG1
 40
1.570796326794897
  9
$LOFTANG2
 40
1.570796326794897
  9
$LOFTMAG1
 40
0.0
  9
$LOFTMAG2
 40
0.0
  9
$LOFTPARAM
 70
     7
  9
$LOFTNORMALS
280
     1
  9
$LATITUDE
 40
37.795
  9
$LONGITUDE
 40
-122.394
  9
$NORTHDIRECTION
 40
0.0
  9
$TIMEZONE
 70
 -8000
  9
$LIGHTGLYPHDISPLAY
280
     1
  9
$TILEMODELIGHTSYNCH
280
     1
  9
$SOLIDHIST
280
     1
  9
$SHOWHIST
280
     1
  9
$DWFFRAME
280
     2
  9
$DGNFRAME
280
     2
  9
$REALWORLDSCALE
290
     1
  9
$INTERFERECOLOR
 62
   256
  9
$CSHADOW
280
     0
  9
$SHADOWPLANELOCATION
 40
0.0
  0
ENDSEC
  0
SECTION
  2
CLASSES
  0
CLASS
  1
ACDBDICTIONARYWDFLT
  2
AcDbDictionaryWithDefault
  3
ObjectDBX Classes
 90
        0
 91
        4
280
     0
281
     0
  0
CLASS
  1
VISUALSTYLE
  2
AcDbVisualStyle
  3
ObjectDBX Classes
 90
     4095
 91
        4
280
     0
281
     0
  0
CLASS
  1
MATERIAL
  2
AcDbMaterial
  3
ObjectDBX Classes
 90
     1153
 91
        4
280
     0
281
     0
  0
ENDSEC
  0
SECTION
  2
TABLES
  0
TABLE
  2
VPORT
  5
8
330
0
100
AcDbSymbolTable
 70
     1
  0
VPORT
  5
29
330
8
100
AcDbSymbolTableRecord
100
AcDbViewportTableRecord
  2
*Active
 70
     0
 10
0.0
 20
0.0
 11
1.0
 21
1.0
 12
10.42990654205607
 22
4.5
 13
0.0
 23
0.0
 14
0.5
 24
0.5
 15
0.5
 25
0.5
 16
0.0
 26
0.0
 36
1.0
 17
0.0
 27
0.0
 37
0.0
 40
9.0
 41
1.972972972850329
 42
50.0
 43
0.0
 44
0.0
 50
0.0
 51
0.0
 71
     0
 72
   100
 73
     1
 74
     3
 75
     0
 76
     0
 77
     0
 78
     0
281
     0
 65
     1
110
0.0
120
0.0
130
0.0
111
1.0
121
0.0
131
0.0
112
0.0
122
1.0
132
0.0
 79
     0
146
0.0
 60
     3
 61
     5
292
     1
282
     1
141
0.0
142
0.0
 63
   250
  0
ENDTAB
  0
TABLE
  2
LTYPE
  5
5
330
0
100
AcDbSymbolTable
 70
     1
  0
LTYPE
  5
14
330
5
100
AcDbSymbolTableRecord
100
AcDbLinetypeTableRecord
  2
ByBlock
 70
     0
  3

 72
    65
 73
     0
 40
0.0
  0
LTYPE
  5
15
330
5
100
AcDbSymbolTableRecord
100
AcDbLinetypeTableRecord
  2
ByLayer
 70
     0
  3

 72
    65
 73
     0
 40
0.0
  0
LTYPE
  5
16
330
5
100
AcDbSymbolTableRecord
100
AcDbLinetypeTableRecord
  2
Continuous
 70
     0
  3
Solid line
 72
    65
 73
     0
 40
0.0
  0
ENDTAB
  0
TABLE
  2
LAYER
  5
2
330
0
100
AcDbSymbolTable
 70
     2
  0
LAYER
  5
10
330
2
100
AcDbSymbolTableRecord
100
AcDbLayerTableRecord
  2
0
 70
     0
 62
     7
  6
Continuous
370
    -3
390
F
347
3E
  0
LAYER
  5
40
330
2
100
AcDbSymbolTableRecord
100
AcDbLayerTableRecord
  2
Layer 1
 70
     0
 62
     7
  6
Continuous
370
    -3
390
F
347
3E
  0
ENDTAB
  0
TABLE
  2
STYLE
  5
3
330
0
100
AcDbSymbolTable
 70
     1
  0
STYLE
  5
11
330
3
100
AcDbSymbolTableRecord
100
AcDbTextStyleTableRecord
  2
Standard
 70
     0
 40
0.0
 41
1.0
 50
0.0
 71
     0
 42
0.2
  3
txt
  4

  0
ENDTAB
  0
TABLE
  2
VIEW
  5
6
330
0
100
AcDbSymbolTable
 70
     0
  0
ENDTAB
  0
TABLE
  2
UCS
  5
7
330
0
100
AcDbSymbolTable
 70
     0
  0
ENDTAB
  0
TABLE
  2
APPID
  5
9
330
0
100
AcDbSymbolTable
 70
     2
  0
APPID
  5
12
330
9
100
AcDbSymbolTableRecord
100
AcDbRegAppTableRecord
  2
ACAD
 70
     0
  0
APPID
  5
3F
330
9
100
AcDbSymbolTableRecord
100
AcDbRegAppTableRecord
  2
ODA
 70
     0
  0
ENDTAB
  0
TABLE
  2
DIMSTYLE
  5
A
330
0
100
AcDbSymbolTable
 70
     1
100
AcDbDimStyleTable
  0
DIMSTYLE
105
27
330
A
100
AcDbSymbolTableRecord
100
AcDbDimStyleTableRecord
  2
Standard
 70
     0
178
     0
340
11
  0
ENDTAB
  0
TABLE
  2
BLOCK_RECORD
  5
1
330
0
100
AcDbSymbolTable
 70
     1
  0
BLOCK_RECORD
  5
1F
330
1
100
AcDbSymbolTableRecord
100
AcDbBlockTableRecord
  2
*Model_Space
340
22
 70
     0
280
     1
281
     0
  0
BLOCK_RECORD
  5
1B
330
1
100
AcDbSymbolTableRecord
100
AcDbBlockTableRecord
  2
*Paper_Space
340
1E
 70
     0
280
     1
281
     0
  0
BLOCK_RECORD
  5
23
330
1
100
AcDbSymbolTableRecord
100
AcDbBlockTableRecord
  2
*Paper_Space0
340
26
 70
     0
280
     1
281
     0
  0
ENDTAB
  0
ENDSEC
  0
SECTION
  2
BLOCKS
  0
BLOCK
  5
20
330
1F
100
AcDbEntity
  8
0
100
AcDbBlockBegin
  2
*Model_Space
 70
     0
 10
0.0
 20
0.0
 30
0.0
  3
*Model_Space
  1

  0
ENDBLK
  5
21
330
1F
100
AcDbEntity
  8
0
100
AcDbBlockEnd
  0
BLOCK
  5
1C
330
1B
100
AcDbEntity
 67
     1
  8
0
100
AcDbBlockBegin
  2
*Paper_Space
 70
     0
 10
0.0
 20
0.0
 30
0.0
  3
*Paper_Space
  1

  0
ENDBLK
  5
1D
330
1B
100
AcDbEntity
 67
     1
  8
0
100
AcDbBlockEnd
  0
BLOCK
  5
24
330
23
100
AcDbEntity
  8
0
100
AcDbBlockBegin
  2
*Paper_Space0
 70
     0
 10
0.0
 20
0.0
 30
0.0
  3
*Paper_Space0
  1

  0
ENDBLK
  5
25
330
23
100
AcDbEntity
  8
0
100
AcDbBlockEnd
  0
ENDSEC
  0
SECTION
  2
ENTITIES
  0
SPLINE
  5
41
330
1F
100
AcDbEntity
  8
Layer 1
370
    53
100
AcDbSpline
210
0.0
220
0.0
230
1.0
 70
    11
 71
     3
 72
    20
 73
    16
 74
     0
 42
0.0000000001
 43
0.0000000001
 12
1.0
 22
0.0
 32
0.0
 13
1.0
 23
0.0
 33
0.0
 40
0.0
 40
0.0
 40
0.0
 40
0.0
 40
0.2
 40
0.2
 40
0.2
 40
0.2
 40
0.4
 40
0.4
 40
0.4
 40
0.4
 40
0.6
 40
0.6
 40
0.6
 40
0.6
 40
1.0
 40
1.0
 40
1.0
 40
1.0
 10
-0.55
 20
1.25
 30
0.0
 10
-0.55
 20
1.41568
 30
0.0
 10
-0.41568
 20
1.55
 30
0.0
 10
-0.25
 20
1.55
 30
0.0
 10
-0.25
 20
1.55
 30
0.0
 10
-0.08432
 20
1.55
 30
0.0
 10
0.05
 20
1.41568
 30
0.0
 10
0.05
 20
1.25
 30
0.0
 10
0.05
 20
1.25
 30
0.0
 10
0.05
 20
1.08432
 30
0.0
 10
-0.08432
 20
0.95
 30
0.0
 10
-0.25
 20
0.95
 30
0.0
 10
-0.25
 20
0.95
 30
0.0
 10
-0.41568
 20
0.95
 30
0.0
 10
-0.55
 20
1.08432
 30
0.0
 10
-0.55
 20
1.25
 30
0.0
  0
SPLINE
  5
42
330
1F
100
AcDbEntity
  8
Layer 1
370
    53
100
AcDbSpline
210
0.0
220
0.0
230
1.0
 70
    11
 71
     3
 72
    20
 73
    16
 74
     0
 42
0.0000000001
 43
0.0000000001
 12
1.0
 22
0.0
 32
0.0
 13
1.0
 23
0.0
 33
0.0
 40
0.0
 40
0.0
 40
0.0
 40
0.0
 40
0.2
 40
0.2
 40
0.2
 40
0.2
 40
0.4
 40
0.4
 40
0.4
 40
0.4
 40
0.6
 40
0.6
 40
0.6
 40
0.6
 40
1.0
 40
1.0
 40
1.0
 40
1.0
 10
0.95
 20
1.25
 30
0.0
 10
0.95
 20
1.41568
 30
0.0
 10
1.08432
 20
1.55
 30
0.0
 10
1.25
 20
1.55
 30
0.0
 10
1.25
 20
1.55
 30
0.0
 10
1.41568
 20
1.55
 30
0.0
 10
1.55
 20
1.41568
 30
0.0
 10
1.55
 20
1.25
 30
0.0
 10
1.55
 20
1.25
 30
0.0
 10
1.55
 20
1.08432
 30
0.0
 10
1.41568
 20
0.95
 30
0.0
 10
1.25
 20
0.95
 30
0.0
 10
1.25
 20
0.95
 30
0.0
 10
1.08432
 20
0.95
 30
0.0
 10
0.95
 20
1.08432
 30
0.0
 10
0.95
 20
1.25
 30
0.0
  0
SPLINE
  5
43
330
1F
100
AcDbEntity
  8
Layer 1
 62
     5
370
    53
100
AcDbSpline
210
0.0
220
0.0
230
1.0
 70
     8
 71
     3
 72
    20
 73
    16
 74
     0
 42
0.0000000001
 43
0.0000000001
 12
1.0
 22
0.0
 32
0.0
 13
1.0
 23
0.0
 33
0.0
 40
0.0
 40
0.0
 40
0.0
 40
0.0
 40
0.2
 40
0.2
 40
0.2
 40
0.2
 40
0.4
 40
0.4
 40
0.4
 40
0.4
 40
0.6
 40
0.6
 40
0.6
 40
0.6
 40
1.0
 40
1.0
 40
1.0
 40
1.0
 10
2.46456
 20
-1.60885
 30
0.0
 10
2.31412
 20
-1.57655
 30
0.0
 10
2.16742
 20
-1.52624
 30
0.0
 10
2.04643
 20
-1.48044
 30
0.0
 10
2.04643
 20
-1.48044
 30
0.0
 10
1.99195
 20
-1.45981
 30
0.0
 10
1.88512
 20
-1.42328
 30
0.0
 10
1.89388
 20
-1.35117
 30
0.0
 10
1.89388
 20
-1.35117
 30
0.0
 10
2.02723
 20
-1.29484
 30
0.0
 10
2.17762
 20
-1.36755
 30
0.0
 10
2.3134
 20
-1.37726
 30
0.0
 10
2.3134
 20
-1.37726
 30
0.0
 10
2.37367
 20
-1.38156
 30
0.0
 10
2.43524
 20
-1.38
 30
0.0
 10
2.49655
 20
-1.37295
 30
0.0
  0
SPLINE
  5
44
330
1F
100
AcDbEntity
  8
Layer 1
 62
     5
370
    53
100
AcDbSpline
210
0.0
220
0.0
230
1.0
 70
     8
 71
     3
 72
    20
 73
    16
 74
     0
 42
0.0000000001
 43
0.0000000001
 12
1.0
 22
0.0
 32
0.0
 13
1.0
 23
0.0
 33
0.0
 40
0.0
 40
0.0
 40
0.0
 40
0.0
 40
0.2
 40
0.2
 40
0.2
 40
0.2
 40
0.4
 40
0.4
 40
0.4
 40
0.4
 40
0.6
 40
0.6
 40
0.6
 40
0.6
 40
1.0
 40
1.0
 40
1.0
 40
1.0
 10
2.1773
 20
-2.15399
 30
0.0
 10
2.05983
 20
-2.10711
 30
0.0
 10
1.94911
 20
-2.03631
 30
0.0
 10
1.86488
 20
-1.96749
 30
0.0
 10
1.86488
 20
-1.96749
 30
0.0
 10
1.79776
 20
-1.91264
 30
0.0
 10
1.53174
 20
-1.6911
 30
0.0
 10
1.60127
 20
-1.57877
 30
0.0
 10
1.60127
 20
-1.57877
 30
0.0
 10
1.65794
 20
-1.4871
 30
0.0
 10
1.96343
 20
-1.71238
 30
0.0
 10
2.0281
 20
-1.75247
 30
0.0
 10
2.0281
 20
-1.75247
 30
0.0
 10
2.11365
 20
-1.80549
 30
0.0
 10
2.20657
 20
-1.84608
 30
0.0
 10
2.30308
 20
-1.87482
 30
0.0
  0
SPLINE
  5
45
330
1F
100
AcDbEntity
  8
Layer 1
 62
     5
370
    53
100
AcDbSpline
210
0.0
220
0.0
230
1.0
 70
     8
 71
     3
 72
    20
 73
    16
 74
     0
 42
0.0000000001
 43
0.0000000001
 12
1.0
 22
0.0
 32
0.0
 13
1.0
 23
0.0
 33
0.0
 40
0.0
 40
0.0
 40
0.0
 40
0.0
 40
0.2
 40
0.2
 40
0.2
 40
0.2
 40
0.4
 40
0.4
 40
0.4
 40
0.4
 40
0.6
 40
0.6
 40
0.6
 40
0.6
 40
1.0
 40
1.0
 40
1.0
 40
1.0
 10
1.13535
 20
-2.20234
 30
0.0
 10
1.12322
 20
-2.19168
 30
0.0
 10
1.1107
 20
-2.17782
 30
0.0
 10
1.09722
 20
-2.15965
 30
0.0
 10
1.09722
 20
-2.15965
 30
0.0
 10
1.04034
 20
-2.08302
 30
0.0
 10
0.60647
 20
-1.58382
 30
0.0
 10
0.75366
 20
-1.52129
 30
0.0
 10
0.75366
 20
-1.52129
 30
0.0
 10
0.83557
 20
-1.4865
 30
0.0
 10
1.03501
 20
-1.59125
 30
0.0
 10
1.10356
 20
-1.6378
 30
0.0
 10
1.10356
 20
-1.6378
 30
0.0
 10
1.25867
 20
-1.74317
 30
0.0
 10
1.37729
 20
-1.8891
 30
0.0
 10
1.50889
 20
-2.02026
 30
0.0
  0
SPLINE
  5
46
330
1F
100
AcDbEntity
  8
Layer 1
 62
     5
370
    53
100
AcDbSpline
210
0.0
220
0.0
230
1.0
 70
     8
 71
     3
 72
    20
 73
    16
 74
     0
 42
0.0000000001
 43
0.0000000001
 12
1.0
 22
0.0
 32
0.0
 13
1.0
 23
0.0
 33
0.0
 40
0.0
 40
0.0
 40
0.0
 40
0.0
 40
0.2
 40
0.2
 40
0.2
 40
0.2
 40
0.4
 40
0.4
 40
0.4
 40
0.4
 40
0.6
 40
0.6
 40
0.6
 40
0.6
 40
1.0
 40
1.0
 40
1.0
 40
1.0
 10
-2.96235
 20
-1.61208
 30
0.0
 10
-2.80658
 20
-1.57996
 30
0.0
 10
-2.65401
 20
-1.52779
 30
0.0
 10
-2.52894
 20
-1.48044
 30
0.0
 10
-2.52894
 20
-1.48044
 30
0.0
 10
-2.47443
 20
-1.45981
 30
0.0
 10
-2.36759
 20
-1.42328
 30
0.0
 10
-2.37635
 20
-1.35117
 30
0.0
 10
-2.37635
 20
-1.35117
 30
0.0
 10
-2.5097
 20
-1.29484
 30
0.0
 10
-2.66009
 20
-1.36755
 30
0.0
 10
-2.79591
 20
-1.37726
 30
0.0
 10
-2.79591
 20
-1.37726
 30
0.0
 10
-2.85617
 20
-1.38156
 30
0.0
 10
-2.91774
 20
-1.38
 30
0.0
 10
-2.97905
 20
-1.37295
 30
0.0
  0
SPLINE
  5
47
330
1F
100
AcDbEntity
  8
Layer 1
 62
     5
370
    53
100
AcDbSpline
210
0.0
220
0.0
230
1.0
 70
     8
 71
     3
 72
    20
 73
    16
 74
     0
 42
0.0000000001
 43
0.0000000001
 12
1.0
 22
0.0
 32
0.0
 13
1.0
 23
0.0
 33
0.0
 40
0.0
 40
0.0
 40
0.0
 40
0.0
 40
0.2
 40
0.2
 40
0.2
 40
0.2
 40
0.4
 40
0.4
 40
0.4
 40
0.4
 40
0.6
 40
0.6
 40
0.6
 40
0.6
 40
1.0
 40
1.0
 40
1.0
 40
1.0
 10
-2.63953
 20
-2.14565
 30
0.0
 10
-2.52962
 20
-2.09895
 30
0.0
 10
-2.42673
 20
-2.03234
 30
0.0
 10
-2.34735
 20
-1.96749
 30
0.0
 10
-2.34735
 20
-1.96749
 30
0.0
 10
-2.28023
 20
-1.91264
 30
0.0
 10
-2.01421
 20
-1.6911
 30
0.0
 10
-2.08375
 20
-1.57877
 30
0.0
 10
-2.08375
 20
-1.57877
 30
0.0
 10
-2.14044
 20
-1.4871
 30
0.0
 10
-2.44592
 20
-1.71238
 30
0.0
 10
-2.51058
 20
-1.75247
 30
0.0
 10
-2.51058
 20
-1.75247
 30
0.0
 10
-2.5878
 20
-1.80034
 30
0.0
 10
-2.67105
 20
-1.83807
 30
0.0
 10
-2.75751
 20
-1.8661
 30
0.0
  0
SPLINE
  5
48
330
1F
100
AcDbEntity
  8
Layer 1
 62
     5
370
    53
100
AcDbSpline
210
0.0
220
0.0
230
1.0
 70
     8
 71
     3
 72
    20
 73
    16
 74
     0
 42
0.0000000001
 43
0.0000000001
 12
1.0
 22
0.0
 32
0.0
 13
1.0
 23
0.0
 33
0.0
 40
0.0
 40
0.0
 40
0.0
 40
0.0
 40
0.2
 40
0.2
 40
0.2
 40
0.2
 40
0.4
 40
0.4
 40
0.4
 40
0.4
 40
0.6
 40
0.6
 40
0.6
 40
0.6
 40
1.0
 40
1.0
 40
1.0
 40
1.0
 10
-1.62388
 20
-2.20741
 30
0.0
 10
-1.60986
 20
-2.19618
 30
0.0
 10
-1.59543
 20
-2.18084
 30
0.0
 10
-1.57969
 20
-2.15965
 30
0.0
 10
-1.57969
 20
-2.15965
 30
0.0
 10
-1.52281
 20
-2.08302
 30
0.0
 10
-1.08894
 20
-1.58382
 30
0.0
 10
-1.23613
 20
-1.52129
 30
0.0
 10
-1.23613
 20
-1.52129
 30
0.0
 10
-1.31804
 20
-1.4865
 30
0.0
 10
-1.51751
 20
-1.59125
 30
0.0
 10
-1.58604
 20
-1.6378
 30
0.0
 10
-1.58604
 20
-1.6378
 30
0.0
 10
-1.74114
 20
-1.74317
 30
0.0
 10
-1.85976
 20
-1.8891
 30
0.0
 10
-1.99137
 20
-2.02026
 30
0.0
  0
SPLINE
  5
49
330
1F
100
AcDbEntity
  8
Layer 1
370
    53
100
AcDbSpline
210
0.0
220
0.0
230
1.0
 70
    11
 71
     3
 72
   396
 73
   392
 74
     0
 42
0.0000000001
 43
0.0000000001
 12
1.0
 22
0.0
 32
0.0
 13
1.0
 23
0.0
 33
0.0
 40
0.0
 40
0.0
 40
0.0
 40
0.0
 40
0.0101010101010101
 40
0.0101010101010101
 40
0.0101010101010101
 40
0.0101010101010101
 40
0.0202020202020202
 40
0.0202020202020202
 40
0.0202020202020202
 40
0.0202020202020202
 40
0.0303030303030303
 40
0.0303030303030303
 40
0.0303030303030303
 40
0.0303030303030303
 40
0.0404040404040404
 40
0.0404040404040404
 40
0.0404040404040404
 40
0.0404040404040404
 40
0.0505050505050505
 40
0.0505050505050505
 40
0.0505050505050505
 40
0.0505050505050505
 40
0.0606060606060606
 40
0.0606060606060606
 40
0.0606060606060606
 40
0.0606060606060606
 40
0.0707070707070707
 40
0.0707070707070707
 40
0.0707070707070707
 40
0.0707070707070707
 40
0.0808080808080808
 40
0.0808080808080808
 40
0.0808080808080808
 40
0.0808080808080808
 40
0.0909090909090909
 40
0.0909090909090909
 40
0.0909090909090909
 40
0.0909090909090909
 40
0.101010101010101
 40
0.101010101010101
 40
0.101010101010101
 40
0.101010101010101
 40
0.1111111111111111
 40
0.1111111111111111
 40
0.1111111111111111
 40
0.1111111111111111
 40
0.1212121212121212
 40
0.1212121212121212
 40
0.1212121212121212
 40
0.1212121212121212
 40
0.1313131313131313
 40
0.1313131313131313
 40
0.1313131313131313
 40
0.1313131313131313
 40
0.1414141414141414
 40
0.1414141414141414
 40
0.1414141414141414
 40
0.1414141414141414
 40
0.1515151515151515
 40
0.1515151515151515
 40
0.1515151515151515
 40
0.1515151515151515
 40
0.1616161616161616
 40
0.1616161616161616
 40
0.1616161616161616
 40
0.1616161616161616
 40
0.1717171717171717
 40
0.1717171717171717
 40
0.1717171717171717
 40
0.1717171717171717
 40
0.1818181818181818
 40
0.1818181818181818
 40
0.1818181818181818
 40
0.1818181818181818
 40
0.1919191919191919
 40
0.1919191919191919
 40
0.1919191919191919
 40
0.1919191919191919
 40
0.202020202020202
 40
0.202020202020202
 40
0.202020202020202
 40
0.202020202020202
 40
0.2121212121212121
 40
0.2121212121212121
 40
0.2121212121212121
 40
0.2121212121212121
 40
0.2222222222222222
 40
0.2222222222222222
 40
0.2222222222222222
 40
0.2222222222222222
 40
0.2323232323232323
 40
0.2323232323232323
 40
0.2323232323232323
 40
0.2323232323232323
 40
0.2424242424242424
 40
0.2424242424242424
 40
0.2424242424242424
 40
0.2424242424242424
 40
0.2525252525252525
 40
0.2525252525252525
 40
0.2525252525252525
 40
0.2525252525252525
 40
0.2626262626262627
 40
0.2626262626262627
 40
0.2626262626262627
 40
0.2626262626262627
 40
0.2727272727272727
 40
0.2727272727272727
 40
0.2727272727272727
 40
0.2727272727272727
 40
0.2828282828282828
 40
0.2828282828282828
 40
0.2828282828282828
 40
0.2828282828282828
 40
0.2929292929292929
 40
0.2929292929292929
 40
0.2929292929292929
 40
0.2929292929292929
 40
0.303030303030303
 40
0.303030303030303
 40
0.303030303030303
 40
0.303030303030303
 40
0.3131313131313131
 40
0.3131313131313131
 40
0.3131313131313131
 40
0.3131313131313131
 40
0.3232323232323233
 40
0.3232323232323233
 40
0.3232323232323233
 40
0.3232323232323233
 40
0.3333333333333333
 40
0.3333333333333333
 40
0.3333333333333333
 40
0.3333333333333333
 40
0.3434343434343434
 40
0.3434343434343434
 40
0.3434343434343434
 40
0.3434343434343434
 40
0.3535353535353535
 40
0.3535353535353535
 40
0.3535353535353535
 40
0.3535353535353535
 40
0.3636363636363636
 40
0.3636363636363636
 40
0.3636363636363636
 40
0.3636363636363636
 40
0.3737373737373738
 40
0.3737373737373738
 40
0.3737373737373738
 40
0.3737373737373738
 40
0.3838383838383838
 40
0.3838383838383838
 40
0.3838383838383838
 40
0.3838383838383838
 40
0.3939393939393939
 40
0.3939393939393939
 40
0.3939393939393939
 40
0.3939393939393939
 40
0.404040404040404
 40
0.404040404040404
 40
0.404040404040404
 40
0.404040404040404
 40
0.4141414141414141
 40
0.4141414141414141
 40
0.4141414141414141
 40
0.4141414141414141
 40
0.4242424242424243
 40
0.4242424242424243
 40
0.4242424242424243
 40
0.4242424242424243
 40
0.4343434343434344
 40
0.4343434343434344
 40
0.4343434343434344
 40
0.4343434343434344
 40
0.4444444444444444
 40
0.4444444444444444
 40
0.4444444444444444
 40
0.4444444444444444
 40
0.4545454545454545
 40
0.4545454545454545
 40
0.4545454545454545
 40
0.4545454545454545
 40
0.4646464646464646
 40
0.4646464646464646
 40
0.4646464646464646
 40
0.4646464646464646
 40
0.4747474747474748
 40
0.4747474747474748
 40
0.4747474747474748
 40
0.4747474747474748
 40
0.4848484848484849
 40
0.4848484848484849
 40
0.4848484848484849
 40
0.4848484848484849
 40
0.494949494949495
 40
0.494949494949495
 40
0.494949494949495
 40
0.494949494949495
 40
0.5050505050505051
 40
0.5050505050505051
 40
0.5050505050505051
 40
0.5050505050505051
 40
0.5151515151515151
 40
0.5151515151515151
 40
0.5151515151515151
 40
0.5151515151515151
 40
0.5252525252525253
 40
0.5252525252525253
 40
0.5252525252525253
 40
0.5252525252525253
 40
0.5353535353535354
 40
0.5353535353535354
 40
0.5353535353535354
 40
0.5353535353535354
 40
0.5454545454545454
 40
0.5454545454545454
 40
0.5454545454545454
 40
0.5454545454545454
 40
0.5555555555555556
 40
0.5555555555555556
 40
0.5555555555555556
 40
0.5555555555555556
 40
0.5656565656565656
 40
0.5656565656565656
 40
0.5656565656565656
 40
0.5656565656565656
 40
0.5757575757575758
 40
0.5757575757575758
 40
0.5757575757575758
 40
0.5757575757575758
 40
0.5858585858585859
 40
0.5858585858585859
 40
0.5858585858585859
 40
0.5858585858585859
 40
0.5959595959595959
 40
0.5959595959595959
 40
0.5959595959595959
 40
0.5959595959595959
 40
0.6060606060606061
 40
0.6060606060606061
 40
0.6060606060606061
 40
0.6060606060606061
 40
0.6161616161616161
 40
0.6161616161616161
 40
0.6161616161616161
 40
0.6161616161616161
 40
0.6262626262626263
 40
0.6262626262626263
 40
0.6262626262626263
 40
0.6262626262626263
 40
0.6363636363636364
 40
0.6363636363636364
 40
0.6363636363636364
 40
0.6363636363636364
 40
0.6464646464646465
 40
0.6464646464646465
 40
0.6464646464646465
 40
0.6464646464646465
 40
0.6565656565656566
 40
0.6565656565656566
 40
0.6565656565656566
 40
0.6565656565656566
 40
0.6666666666666666
 40
0.6666666666666666
 40
0.6666666666666666
 40
0.6666666666666666
 40
0.6767676767676768
 40
0.6767676767676768
 40
0.6767676767676768
 40
0.6767676767676768
 40
0.6868686868686869
 40
0.6868686868686869
 40
0.6868686868686869
 40
0.6868686868686869
 40
0.696969696969697
 40
0.696969696969697
 40
0.696969696969697
 40
0.696969696969697
 40
0.7070707070707071
 40
0.7070707070707071
 40
0.7070707070707071
 40
0.7070707070707071
 40
0.7171717171717171
 40
0.7171717171717171
 40
0.7171717171717171
 40
0.7171717171717171
 40
0.7272727272727273
 40
0.7272727272727273
 40
0.7272727272727273
 40
0.7272727272727273
 40
0.7373737373737373
 40
0.7373737373737373
 40
0.7373737373737373
 40
0.7373737373737373
 40
0.7474747474747475
 40
0.7474747474747475
 40
0.7474747474747475
 40
0.7474747474747475
 40
0.7575757575757576
 40
0.7575757575757576
 40
0.7575757575757576
 40
0.7575757575757576
 40
0.7676767676767676
 40
0.7676767676767676
 40
0.7676767676767676
 40
0.7676767676767676
 40
0.7777777777777778
 40
0.7777777777777778
 40
0.7777777777777778
 40
0.7777777777777778
 40
0.7878787878787878
 40
0.7878787878787878
 40
0.7878787878787878
 40
0.7878787878787878
 40
0.797979797979798
 40
0.797979797979798
 40
0.797979797979798
 40
0.797979797979798
 40
0.8080808080808081
 40
0.8080808080808081
 40
0.8080808080808081
 40
0.8080808080808081
 40
0.8181818181818182
 40
0.8181818181818182
 40
0.8181818181818182
 40
0.8181818181818182
 40
0.8282828282828283
 40
0.8282828282828283
 40
0.8282828282828283
 40
0.8282828282828283
 40
0.8383838383838383
 40
0.8383838383838383
 40
0.8383838383838383
 40
0.8383838383838383
 40
0.8484848484848485
 40
0.8484848484848485
 40
0.8484848484848485
 40
0.8484848484848485
 40
0.8585858585858586
 40
0.8585858585858586
 40
0.8585858585858586
 40
0.8585858585858586
 40
0.8686868686868687
 40
0.8686868686868687
 40
0.8686868686868687
 40
0.8686868686868687
 40
0.8787878787878788
 40
0.8787878787878788
 40
0.8787878787878788
 40
0.8787878787878788
 40
0.8888888888888888
 40
0.8888888888888888
 40
0.8888888888888888
 40
0.8888888888888888
 40
0.898989898989899
 40
0.898989898989899
 40
0.898989898989899
 40
0.898989898989899
 40
0.9090909090909091
 40
0.9090909090909091
 40
0.9090909090909091
 40
0.9090909090909091
 40
0.9191919191919192
 40
0.9191919191919192
 40
0.9191919191919192
 40
0.9191919191919192
 40
0.9292929292929293
 40
0.9292929292929293
 40
0.9292929292929293
 40
0.9292929292929293
 40
0.9393939393939394
 40
0.9393939393939394
 40
0.9393939393939394
 40
0.9393939393939394
 40
0.9494949494949495
 40
0.9494949494949495
 40
0.9494949494949495
 40
0.9494949494949495
 40
0.9595959595959596
 40
0.9595959595959596
 40
0.9595959595959596
 40
0.9595959595959596
 40
0.9696969696969697
 40
0.9696969696969697
 40
0.9696969696969697
 40
0.9696969696969697
 40
0.9797979797979798
 40
0.9797979797979798
 40
0.9797979797979798
 40
0.9797979797979798
 40
1.0
 40
1.0
 40
1.0
 40
1.0
 10
1.45
 20
0.55
 30
0.0
 10
1.45
 20
0.55
 30
0.0
 10
1.32359
 20
0.55
 30
0.0
 10
1.32359
 20
0.55
 30
0.0
 10
1.32359
 20
0.55
 30
0.0
 10
1.32683
 20
0.25434
 30
0.0
 10
1.33024
 20
-0.00014
 30
0.0
 10
1.33191
 20
-0.022
 30
0.0
 10
1.33191
 20
-0.022
 30
0.0
 10
1.35357
 20
-0.30498
 30
0.0
 10
1.42802
 20
-0.58636
 30
0.0
 10
1.63573
 20
-0.79136
 30
0.0
 10
1.63573
 20
-0.79136
 30
0.0
 10
1.84435
 20
-0.99729
 30
0.0
 10
2.06506
 20
-1.08576
 30
0.0
 10
2.35917
 20
-1.08412
 30
0.0
 10
2.35917
 20
-1.08412
 30
0.0
 10
2.49479
 20
-1.08336
 30
0.0
 10
2.62645
 20
-1.03602
 30
0.0
 10
2.74687
 20
-0.977
 30
0.0
 10
2.74687
 20
-0.977
 30
0.0
 10
2.84443
 20
-0.92915
 30
0.0
 10
3.02143
 20
-0.85386
 30
0.0
 10
3.08579
 20
-0.76283
 30
0.0
 10
3.08579
 20
-0.76283
 30
0.0
 10
3.19906
 20
-0.60263
 30
0.0
 10
3.19904
 20
-0.3757
 30
0.0
 10
3.45367
 20
-0.39433
 30
0.0
 10
3.45367
 20
-0.39433
 30
0.0
 10
3.57463
 20
-0.40317
 30
0.0
 10
3.68377
 20
-0.46873
 30
0.0
 10
3.71773
 20
-0.58262
 30
0.0
 10
3.71773
 20
-0.58262
 30
0.0
 10
3.75164
 20
-0.69646
 30
0.0
 10
3.73316
 20
-0.82004
 30
0.0
 10
3.67261
 20
-0.92244
 30
0.0
 10
3.67261
 20
-0.92244
 30
0.0
 10
3.62103
 20
-1.0097
 30
0.0
 10
3.54765
 20
-1.04335
 30
0.0
 10
3.45343
 20
-1.06713
 30
0.0
 10
3.45343
 20
-1.06713
 30
0.0
 10
3.35213
 20
-1.09272
 30
0.0
 10
3.26354
 20
-1.04401
 30
0.0
 10
3.16909
 20
-1.06675
 30
0.0
 10
3.16909
 20
-1.06675
 30
0.0
 10
3.06394
 20
-1.09204
 30
0.0
 10
2.96342
 20
-1.20515
 30
0.0
 10
2.86849
 20
-1.25682
 30
0.0
 10
2.86849
 20
-1.25682
 30
0.0
 10
2.85712
 20
-1.26301
 30
0.0
 10
2.84558
 20
-1.26896
 30
0.0
 10
2.83392
 20
-1.2747
 30
0.0
 10
2.83392
 20
-1.2747
 30
0.0
 10
2.7297
 20
-1.32594
 30
0.0
 10
2.6136
 20
-1.35948
 30
0.0
 10
2.51311
 20
-1.3707
 30
0.0
 10
2.51311
 20
-1.3707
 30
0.0
 10
2.49439
 20
-1.3739
 30
0.0
 10
2.44135
 20
-1.40086
 30
0.0
 10
2.42695
 20
-1.43526
 30
0.0
 10
2.42695
 20
-1.43526
 30
0.0
 10
2.4007
 20
-1.4981
 30
0.0
 10
2.45179
 20
-1.54388
 30
0.0
 10
2.46459
 20
-1.60484
 30
0.0
 10
2.46459
 20
-1.60484
 30
0.0
 10
2.6405
 20
-1.64663
 30
0.0
 10
2.82158
 20
-1.6598
 30
0.0
 10
2.97263
 20
-1.61234
 30
0.0
 10
2.97263
 20
-1.61234
 30
0.0
 10
3.04958
 20
-1.58816
 30
0.0
 10
3.05473
 20
-1.55286
 30
0.0
 10
3.10003
 20
-1.4928
 30
0.0
 10
3.10003
 20
-1.4928
 30
0.0
 10
3.24426
 20
-1.30157
 30
0.0
 10
3.52432
 20
-1.30066
 30
0.0
 10
3.64467
 20
-1.52124
 30
0.0
 10
3.64467
 20
-1.52124
 30
0.0
 10
3.69127
 20
-1.60664
 30
0.0
 10
3.71294
 20
-1.77551
 30
0.0
 10
3.67529
 20
-1.86428
 30
0.0
 10
3.67529
 20
-1.86428
 30
0.0
 10
3.62536
 20
-1.98199
 30
0.0
 10
3.4831
 20
-2.02313
 30
0.0
 10
3.36549
 20
-2.01554
 30
0.0
 10
3.36549
 20
-2.01554
 30
0.0
 10
3.30386
 20
-2.01155
 30
0.0
 10
3.2392
 20
-1.99524
 30
0.0
 10
3.18718
 20
-1.9609
 30
0.0
 10
3.18718
 20
-1.9609
 30
0.0
 10
3.13564
 20
-1.92685
 30
0.0
 10
3.11548
 20
-1.87103
 30
0.0
 10
3.06448
 20
-1.86305
 30
0.0
 10
3.06448
 20
-1.86305
 30
0.0
 10
2.99719
 20
-1.85258
 30
0.0
 10
2.86939
 20
-1.91478
 30
0.0
 10
2.79535
 20
-1.92212
 30
0.0
 10
2.79535
 20
-1.92212
 30
0.0
 10
2.70818
 20
-1.93071
 30
0.0
 10
2.62009
 20
-1.93005
 30
0.0
 10
2.53301
 20
-1.92071
 30
0.0
 10
2.53301
 20
-1.92071
 30
0.0
 10
2.45539
 20
-1.91238
 30
0.0
 10
2.37814
 20
-1.89718
 30
0.0
 10
2.30428
 20
-1.87517
 30
0.0
 10
2.30428
 20
-1.87517
 30
0.0
 10
2.10855
 20
-1.88557
 30
0.0
 10
2.13781
 20
-1.98548
 30
0.0
 10
2.17104
 20
-2.15081
 30
0.0
 10
2.17104
 20
-2.15081
 30
0.0
 10
2.31287
 20
-2.20808
 30
0.0
 10
2.45746
 20
-2.23035
 30
0.0
 10
2.58076
 20
-2.18098
 30
0.0
 10
2.58076
 20
-2.18098
 30
0.0
 10
2.64321
 20
-2.15598
 30
0.0
 10
2.67892
 20
-2.15532
 30
0.0
 10
2.7445
 20
-2.17148
 30
0.0
 10
2.7445
 20
-2.17148
 30
0.0
 10
2.95435
 20
-2.22314
 30
0.0
 10
3.04549
 20
-2.4317
 30
0.0
 10
2.98515
 20
-2.63508
 30
0.0
 10
2.98515
 20
-2.63508
 30
0.0
 10
2.89866
 20
-2.92661
 30
0.0
 10
2.36396
 20
-2.93036
 30
0.0
 10
2.2703
 20
-2.645
 30
0.0
 10
2.2703
 20
-2.645
 30
0.0
 10
2.23533
 20
-2.53827
 30
0.0
 10
2.30276
 20
-2.51163
 30
0.0
 10
2.18216
 20
-2.45609
 30
0.0
 10
2.18216
 20
-2.45609
 30
0.0
 10
2.00407
 20
-2.37405
 30
0.0
 10
1.82995
 20
-2.28148
 30
0.0
 10
1.67231
 20
-2.16413
 30
0.0
 10
1.67231
 20
-2.16413
 30
0.0
 10
1.61387
 20
-2.12064
 30
0.0
 10
1.56039
 20
-2.07158
 30
0.0
 10
1.52794
 20
-2.03879
 30
0.0
 10
1.52794
 20
-2.03879
 30
0.0
 10
1.48457
 20
-2.00435
 30
0.0
 10
1.40707
 20
-2.00588
 30
0.0
 10
1.35564
 20
-2.01086
 30
0.0
 10
1.35564
 20
-2.01086
 30
0.0
 10
1.20863
 20
-2.0251
 30
0.0
 10
1.18741
 20
-2.07568
 30
0.0
 10
1.13632
 20
-2.19924
 30
0.0
 10
1.13632
 20
-2.19924
 30
0.0
 10
1.18791
 20
-2.24856
 30
0.0
 10
1.23312
 20
-2.23485
 30
0.0
 10
1.31668
 20
-2.25182
 30
0.0
 10
1.31668
 20
-2.25182
 30
0.0
 10
1.40744
 20
-2.27022
 30
0.0
 10
1.49382
 20
-2.33642
 30
0.0
 10
1.53148
 20
-2.42147
 30
0.0
 10
1.53148
 20
-2.42147
 30
0.0
 10
1.55529
 20
-2.4752
 30
0.0
 10
1.55307
 20
-2.5419
 30
0.0
 10
1.5555
 20
-2.60006
 30
0.0
 10
1.5555
 20
-2.60006
 30
0.0
 10
1.56648
 20
-2.8622
 30
0.0
 10
1.28713
 20
-3.02186
 30
0.0
 10
1.05533
 20
-2.9479
 30
0.0
 10
1.05533
 20
-2.9479
 30
0.0
 10
0.79855
 20
-2.86599
 30
0.0
 10
0.79406
 20
-2.51798
 30
0.0
 10
0.95852
 20
-2.34524
 30
0.0
 10
0.95852
 20
-2.34524
 30
0.0
 10
0.71455
 20
-2.05057
 30
0.0
 10
0.44213
 20
-1.7522
 30
0.0
 10
0.31823
 20
-1.38276
 30
0.0
 10
0.31823
 20
-1.38276
 30
0.0
 10
0.19625
 20
-1.01918
 30
0.0
 10
0.27855
 20
-0.5762
 30
0.0
 10
0.32413
 20
-0.20319
 30
0.0
 10
0.32413
 20
-0.20319
 30
0.0
 10
0.34929
 20
0.0027
 30
0.0
 10
0.32847
 20
0.19884
 30
0.0
 10
0.34714
 20
0.40048
 30
0.0
 10
0.34714
 20
0.40048
 30
0.0
 10
0.34714
 20
0.40048
 30
0.0
 10
0.34714
 20
0.55
 30
0.0
 10
0.34714
 20
0.55
 30
0.0
 10
0.34714
 20
0.55
 30
0.0
 10
0.34714
 20
0.55
 30
0.0
 10
-0.82962
 20
0.55
 30
0.0
 10
-0.82962
 20
0.55
 30
0.0
 10
-0.82962
 20
0.55
 30
0.0
 10
-0.82962
 20
0.55
 30
0.0
 10
-0.82962
 20
0.40048
 30
0.0
 10
-0.82962
 20
0.40048
 30
0.0
 10
-0.82962
 20
0.40048
 30
0.0
 10
-0.81098
 20
0.19884
 30
0.0
 10
-0.83176
 20
0.0027
 30
0.0
 10
-0.80661
 20
-0.20319
 30
0.0
 10
-0.80661
 20
-0.20319
 30
0.0
 10
-0.76102
 20
-0.5762
 30
0.0
 10
-0.67874
 20
-1.01918
 30
0.0
 10
-0.8007
 20
-1.38276
 30
0.0
 10
-0.8007
 20
-1.38276
 30
0.0
 10
-0.92464
 20
-1.7522
 30
0.0
 10
-1.19703
 20
-2.05057
 30
0.0
 10
-1.44099
 20
-2.34524
 30
0.0
 10
-1.44099
 20
-2.34524
 30
0.0
 10
-1.27653
 20
-2.51798
 30
0.0
 10
-1.28103
 20
-2.86599
 30
0.0
 10
-1.5378
 20
-2.9479
 30
0.0
 10
-1.5378
 20
-2.9479
 30
0.0
 10
-1.76961
 20
-3.02186
 30
0.0
 10
-2.04895
 20
-2.8622
 30
0.0
 10
-2.03798
 20
-2.60006
 30
0.0
 10
-2.03798
 20
-2.60006
 30
0.0
 10
-2.03554
 20
-2.5419
 30
0.0
 10
-2.03776
 20
-2.4752
 30
0.0
 10
-2.01398
 20
-2.42147
 30
0.0
 10
-2.01398
 20
-2.42147
 30
0.0
 10
-1.97631
 20
-2.33642
 30
0.0
 10
-1.88991
 20
-2.27022
 30
0.0
 10
-1.79916
 20
-2.25182
 30
0.0
 10
-1.79916
 20
-2.25182
 30
0.0
 10
-1.71884
 20
-2.2355
 30
0.0
 10
-1.67395
 20
-2.24755
 30
0.0
 10
-1.62408
 20
-2.20178
 30
0.0
 10
-1.62408
 20
-2.20178
 30
0.0
 10
-1.6744
 20
-2.07568
 30
0.0
 10
-1.69563
 20
-2.0251
 30
0.0
 10
-1.84263
 20
-2.01086
 30
0.0
 10
-1.84263
 20
-2.01086
 30
0.0
 10
-1.89406
 20
-2.00588
 30
0.0
 10
-1.97155
 20
-2.00435
 30
0.0
 10
-2.01267
 20
-2.03879
 30
0.0
 10
-2.01267
 20
-2.03879
 30
0.0
 10
-2.04286
 20
-2.07158
 30
0.0
 10
-2.09634
 20
-2.12064
 30
0.0
 10
-2.15478
 20
-2.16413
 30
0.0
 10
-2.15478
 20
-2.16413
 30
0.0
 10
-2.31242
 20
-2.28148
 30
0.0
 10
-2.48655
 20
-2.37405
 30
0.0
 10
-2.66463
 20
-2.45609
 30
0.0
 10
-2.66463
 20
-2.45609
 30
0.0
 10
-2.78523
 20
-2.51163
 30
0.0
 10
-2.71782
 20
-2.53827
 30
0.0
 10
-2.75277
 20
-2.645
 30
0.0
 10
-2.75277
 20
-2.645
 30
0.0
 10
-2.84643
 20
-2.93036
 30
0.0
 10
-3.38113
 20
-2.92661
 30
0.0
 10
-3.46762
 20
-2.63508
 30
0.0
 10
-3.46762
 20
-2.63508
 30
0.0
 10
-3.52801
 20
-2.4317
 30
0.0
 10
-3.43685
 20
-2.22314
 30
0.0
 10
-3.22699
 20
-2.17148
 30
0.0
 10
-3.22699
 20
-2.17148
 30
0.0
 10
-3.1614
 20
-2.15532
 30
0.0
 10
-3.12568
 20
-2.15598
 30
0.0
 10
-3.06324
 20
-2.18098
 30
0.0
 10
-3.06324
 20
-2.18098
 30
0.0
 10
-2.93377
 20
-2.23281
 30
0.0
 10
-2.78085
 20
-2.20568
 30
0.0
 10
-2.64564
 20
-2.14664
 30
0.0
 10
-2.64564
 20
-2.14664
 30
0.0
 10
-2.62479
 20
-1.98548
 30
0.0
 10
-2.59553
 20
-1.88557
 30
0.0
 10
-2.77498
 20
-1.87081
 30
0.0
 10
-2.77498
 20
-1.87081
 30
0.0
 10
-2.84132
 20
-1.89327
 30
0.0
 10
-2.92815
 20
-1.91134
 30
0.0
 10
-3.01548
 20
-1.92071
 30
0.0
 10
-3.01548
 20
-1.92071
 30
0.0
 10
-3.10256
 20
-1.93005
 30
0.0
 10
-3.19066
 20
-1.93071
 30
0.0
 10
-3.27782
 20
-1.92212
 30
0.0
 10
-3.27782
 20
-1.92212
 30
0.0
 10
-3.35187
 20
-1.91478
 30
0.0
 10
-3.47967
 20
-1.85258
 30
0.0
 10
-3.54697
 20
-1.86305
 30
0.0
 10
-3.54697
 20
-1.86305
 30
0.0
 10
-3.59796
 20
-1.87103
 30
0.0
 10
-3.61812
 20
-1.92685
 30
0.0
 10
-3.66966
 20
-1.9609
 30
0.0
 10
-3.66966
 20
-1.9609
 30
0.0
 10
-3.72171
 20
-1.99524
 30
0.0
 10
-3.78633
 20
-2.01155
 30
0.0
 10
-3.84796
 20
-2.01554
 30
0.0
 10
-3.84796
 20
-2.01554
 30
0.0
 10
-3.96557
 20
-2.02313
 30
0.0
 10
-4.10784
 20
-1.98199
 30
0.0
 10
-4.15776
 20
-1.86428
 30
0.0
 10
-4.15776
 20
-1.86428
 30
0.0
 10
-4.19541
 20
-1.77551
 30
0.0
 10
-4.17374
 20
-1.60664
 30
0.0
 10
-4.12716
 20
-1.52124
 30
0.0
 10
-4.12716
 20
-1.52124
 30
0.0
 10
-4.00679
 20
-1.30066
 30
0.0
 10
-3.72673
 20
-1.30157
 30
0.0
 10
-3.58251
 20
-1.4928
 30
0.0
 10
-3.58251
 20
-1.4928
 30
0.0
 10
-3.53721
 20
-1.55286
 30
0.0
 10
-3.53205
 20
-1.58816
 30
0.0
 10
-3.4551
 20
-1.61234
 30
0.0
 10
-3.4551
 20
-1.61234
 30
0.0
 10
-3.30843
 20
-1.65843
 30
0.0
 10
-3.13345
 20
-1.64734
 30
0.0
 10
-2.95698
 20
-1.60645
 30
0.0
 10
-2.95698
 20
-1.60645
 30
0.0
 10
-2.93878
 20
-1.54388
 30
0.0
 10
-2.8877
 20
-1.4981
 30
0.0
 10
-2.91393
 20
-1.43526
 30
0.0
 10
-2.91393
 20
-1.43526
 30
0.0
 10
-2.92833
 20
-1.40086
 30
0.0
 10
-2.98139
 20
-1.3739
 30
0.0
 10
-2.99785
 20
-1.3707
 30
0.0
 10
-2.99785
 20
-1.3707
 30
0.0
 10
-3.09609
 20
-1.35948
 30
0.0
 10
-3.21218
 20
-1.32594
 30
0.0
 10
-3.31639
 20
-1.2747
 30
0.0
 10
-3.31639
 20
-1.2747
 30
0.0
 10
-3.32805
 20
-1.26896
 30
0.0
 10
-3.3396
 20
-1.26301
 30
0.0
 10
-3.35097
 20
-1.25682
 30
0.0
 10
-3.35097
 20
-1.25682
 30
0.0
 10
-3.44591
 20
-1.20515
 30
0.0
 10
-3.54642
 20
-1.09204
 30
0.0
 10
-3.65157
 20
-1.06675
 30
0.0
 10
-3.65157
 20
-1.06675
 30
0.0
 10
-3.74601
 20
-1.04401
 30
0.0
 10
-3.8346
 20
-1.09272
 30
0.0
 10
-3.93591
 20
-1.06713
 30
0.0
 10
-3.93591
 20
-1.06713
 30
0.0
 10
-4.03014
 20
-1.04335
 30
0.0
 10
-4.10352
 20
-1.0097
 30
0.0
 10
-4.15512
 20
-0.92244
 30
0.0
 10
-4.15512
 20
-0.92244
 30
0.0
 10
-4.21563
 20
-0.82004
 30
0.0
 10
-4.23413
 20
-0.69646
 30
0.0
 10
-4.2002
 20
-0.58262
 30
0.0
 10
-4.2002
 20
-0.58262
 30
0.0
 10
-4.16626
 20
-0.46873
 30
0.0
 10
-4.05712
 20
-0.40317
 30
0.0
 10
-3.93615
 20
-0.39433
 30
0.0
 10
-3.93615
 20
-0.39433
 30
0.0
 10
-3.68154
 20
-0.3757
 30
0.0
 10
-3.68157
 20
-0.60263
 30
0.0
 10
-3.56828
 20
-0.76283
 30
0.0
 10
-3.56828
 20
-0.76283
 30
0.0
 10
-3.5039
 20
-0.85386
 30
0.0
 10
-3.3269
 20
-0.92915
 30
0.0
 10
-3.22935
 20
-0.977
 30
0.0
 10
-3.22935
 20
-0.977
 30
0.0
 10
-3.10893
 20
-1.03602
 30
0.0
 10
-2.97728
 20
-1.08336
 30
0.0
 10
-2.84165
 20
-1.08412
 30
0.0
 10
-2.84165
 20
-1.08412
 30
0.0
 10
-2.54754
 20
-1.08576
 30
0.0
 10
-2.32683
 20
-0.99729
 30
0.0
 10
-2.1182
 20
-0.79136
 30
0.0
 10
-2.1182
 20
-0.79136
 30
0.0
 10
-1.91049
 20
-0.58636
 30
0.0
 10
-1.83604
 20
-0.30498
 30
0.0
 10
-1.81438
 20
-0.022
 30
0.0
 10
-1.81438
 20
-0.022
 30
0.0
 10
-1.81271
 20
-0.00014
 30
0.0
 10
-1.8093
 20
0.25434
 30
0.0
 10
-1.80607
 20
0.55
 30
0.0
 10
-1.80607
 20
0.55
 30
0.0
 10
-1.80607
 20
0.55
 30
0.0
 10
-1.95
 20
0.55
 30
0.0
 10
-1.95
 20
0.55
 30
0.0
 10
-1.95
 20
0.55
 30
0.0
 10
-2.22614
 20
0.55
 30
0.0
 10
-2.45
 20
0.77386
 30
0.0
 10
-2.45
 20
1.05
 30
0.0
 10
-2.45
 20
1.05
 30
0.0
 10
-2.45
 20
1.05
 30
0.0
 10
-2.45
 20
1.45
 30
0.0
 10
-2.45
 20
1.45
 30
0.0
 10
-2.45
 20
1.45
 30
0.0
 10
-2.45
 20
1.72614
 30
0.0
 10
-2.22614
 20
1.95
 30
0.0
 10
-1.95
 20
1.95
 30
0.0
 10
-1.95
 20
1.95
 30
0.0
 10
-1.95
 20
1.95
 30
0.0
 10
1.45
 20
1.95
 30
0.0
 10
1.45
 20
1.95
 30
0.0
 10
1.45
 20
1.95
 30
0.0
 10
1.72614
 20
1.95
 30
0.0
 10
1.95
 20
1.72614
 30
0.0
 10
1.95
 20
1.45
 30
0.0
 10
1.95
 20
1.45
 30
0.0
 10
1.95
 20
1.45
 30
0.0
 10
1.95
 20
1.05
 30
0.0
 10
1.95
 20
1.05
 30
0.0
 10
1.95
 20
1.05
 30
0.0
 10
1.95
 20
0.77386
 30
0.0
 10
1.72614
 20
0.55
 30
0.0
 10
1.45
 20
0.55
 30
0.0
  0
SPLINE
  5
4A
330
1F
100
AcDbEntity
  8
Layer 1
370
    53
100
AcDbSpline
210
0.0
220
0.0
230
1.0
 70
    11
 71
     3
 72
    20
 73
    16
 74
     0
 42
0.0000000001
 43
0.0000000001
 12
1.0
 22
0.0
 32
0.0
 13
1.0
 23
0.0
 33
0.0
 40
0.0
 40
0.0
 40
0.0
 40
0.0
 40
0.2
 40
0.2
 40
0.2
 40
0.2
 40
0.4
 40
0.4
 40
0.4
 40
0.4
 40
0.6
 40
0.6
 40
0.6
 40
0.6
 40
1.0
 40
1.0
 40
1.0
 40
1.0
 10
-2.05
 20
1.25
 30
0.0
 10
-2.05
 20
1.41568
 30
0.0
 10
-1.91568
 20
1.55
 30
0.0
 10
-1.75
 20
1.55
 30
0.0
 10
-1.75
 20
1.55
 30
0.0
 10
-1.58432
 20
1.55
 30
0.0
 10
-1.45
 20
1.41568
 30
0.0
 10
-1.45
 20
1.25
 30
0.0
 10
-1.45
 20
1.25
 30
0.0
 10
-1.45
 20
1.08432
 30
0.0
 10
-1.58432
 20
0.95
 30
0.0
 10
-1.75
 20
0.95
 30
0.0
 10
-1.75
 20
0.95
 30
0.0
 10
-1.91568
 20
0.95
 30
0.0
 10
-2.05
 20
1.08432
 30
0.0
 10
-2.05
 20
1.25
 30
0.0
  0
SPLINE
  5
4B
330
1F
100
AcDbEntity
  8
Layer 1
370
    53
100
AcDbSpline
210
0.0
220
0.0
230
1.0
 70
    11
 71
     3
 72
    20
 73
    16
 74
     0
 42
0.0000000001
 43
0.0000000001
 12
1.0
 22
0.0
 32
0.0
 13
1.0
 23
0.0
 33
0.0
 40
0.0
 40
0.0
 40
0.0
 40
0.0
 40
0.2
 40
0.2
 40
0.2
 40
0.2
 40
0.4
 40
0.4
 40
0.4
 40
0.4
 40
0.6
 40
0.6
 40
0.6
 40
0.6
 40
1.0
 40
1.0
 40
1.0
 40
1.0
 10
-1.15
 20
1.25
 30
0.0
 10
-1.15
 20
1.33284
 30
0.0
 10
-1.08284
 20
1.4
 30
0.0
 10
-1.0
 20
1.4
 30
0.0
 10
-1.0
 20
1.4
 30
0.0
 10
-0.91716
 20
1.4
 30
0.0
 10
-0.85
 20
1.33284
 30
0.0
 10
-0.85
 20
1.25
 30
0.0
 10
-0.85
 20
1.25
 30
0.0
 10
-0.85
 20
1.16716
 30
0.0
 10
-0.91716
 20
1.1
 30
0.0
 10
-1.0
 20
1.1
 30
0.0
 10
-1.0
 20
1.1
 30
0.0
 10
-1.08284
 20
1.1
 30
0.0
 10
-1.15
 20
1.16716
 30
0.0
 10
-1.15
 20
1.25
 30
0.0
  0
SPLINE
  5
4C
330
1F
100
AcDbEntity
  8
Layer 1
370
    53
100
AcDbSpline
210
0.0
220
0.0
230
1.0
 70
    11
 71
     3
 72
    20
 73
    16
 74
     0
 42
0.0000000001
 43
0.0000000001
 12
1.0
 22
0.0
 32
0.0
 13
1.0
 23
0.0
 33
0.0
 40
0.0
 40
0.0
 40
0.0
 40
0.0
 40
0.2
 40
0.2
 40
0.2
 40
0.2
 40
0.4
 40
0.4
 40
0.4
 40
0.4
 40
0.6
 40
0.6
 40
0.6
 40
0.6
 40
1.0
 40
1.0
 40
1.0
 40
1.0
 10
0.35
 20
1.25
 30
0.0
 10
0.35
 20
1.33284
 30
0.0
 10
0.41716
 20
1.4
 30
0.0
 10
0.5
 20
1.4
 30
0.0
 10
0.5
 20
1.4
 30
0.0
 10
0.58284
 20
1.4
 30
0.0
 10
0.65
 20
1.33284
 30
0.0
 10
0.65
 20
1.25
 30
0.0
 10
0.65
 20
1.25
 30
0.0
 10
0.65
 20
1.16716
 30
0.0
 10
0.58284
 20
1.1
 30
0.0
 10
0.5
 20
1.1
 30
0.0
 10
0.5
 20
1.1
 30
0.0
 10
0.41716
 20
1.1
 30
0.0
 10
0.35
 20
1.16716
 30
0.0
 10
0.35
 20
1.25
 30
0.0
  0
ENDSEC
  0
SECTION
  2
OBJECTS
  0
DICTIONARY
  5
C
330
0
100
AcDbDictionary
281
     1
  3
ACAD_GROUP
350
D
  3
ACAD_LAYOUT
350
1A
  3
ACAD_MATERIAL
350
3B
  3
ACAD_MLEADERSTYLE
350
6E
  3
ACAD_MLINESTYLE
350
17
  3
ACAD_PLOTSETTINGS
350
19
  3
ACAD_PLOTSTYLENAME
350
E
  3
ACAD_TABLESTYLE
350
6D
  3
ACAD_VISUALSTYLE
350
2A
  0
DICTIONARY
  5
D
102
{ACAD_REACTORS
330
C
102
}
330
C
100
AcDbDictionary
281
     1
  0
DICTIONARY
  5
1A
102
{ACAD_REACTORS
330
C
102
}
330
C
100
AcDbDictionary
281
     1
  3
Layout1
350
1E
  3
Layout2
350
26
  3
Model
350
22
  0
DICTIONARY
  5
3B
102
{ACAD_REACTORS
330
C
102
}
330
C
100
AcDbDictionary
281
     1
  3
ByBlock
350
3D
  3
ByLayer
350
3C
  3
Global
350
3E
  0
DICTIONARY
  5
6E
102
{ACAD_REACTORS
330
C
102
}
330
C
100
AcDbDictionary
281
     1
  0
DICTIONARY
  5
17
102
{ACAD_REACTORS
330
C
102
}
330
C
100
AcDbDictionary
281
     1
  3
Standard
350
18
  0
DICTIONARY
  5
19
102
{ACAD_REACTORS
330
C
102
}
330
C
100
AcDbDictionary
281
     1
  0
ACDBDICTIONARYWDFLT
  5
E
102
{ACAD_REACTORS
330
C
102
}
330
C
100
AcDbDictionary
281
     1
  3
Normal
350
F
100
AcDbDictionaryWithDefault
340
F
  0
DICTIONARY
  5
6D
102
{ACAD_REACTORS
330
C
102
}
330
C
100
AcDbDictionary
281
     1
  0
DICTIONARY
  5
2A
102
{ACAD_REACTORS
330
C
102
}
330
C
100
AcDbDictionary
281
     1
  3
2dWireframe
350
2F
  3
3D Hidden
350
31
  3
3dWireframe
350
30
  3
Basic
350
32
  3
Brighten
350
36
  3
ColorChange
350
3A
  3
Conceptual
350
34
  3
Dim
350
35
  3
Facepattern
350
39
  3
Flat
350
2B
  3
FlatWithEdges
350
2C
  3
Gouraud
350
2D
  3
GouraudWithEdges
350
2E
  3
Linepattern
350
38
  3
Realistic
350
33
  3
Thicken
350
37
  0
LAYOUT
  5
1E
102
{ACAD_REACTORS
330
1A
102
}
330
1A
100
AcDbPlotSettings
  1

  2
none_device
  4

  6

 40
0.0
 41
0.0
 42
0.0
 43
0.0
 44
0.0
 45
0.0
 46
0.0
 47
0.0
 48
0.0
 49
0.0
140
0.0
141
0.0
142
1.0
143
1.0
 70
   688
 72
     0
 73
     0
 74
     5
  7

 75
    16
 76
     0
 77
     2
 78
   300
147
1.0
148
0.0
149
0.0
100
AcDbLayout
  1
Layout1
 70
     1
 71
     1
 10
0.0
 20
0.0
 11
12.0
 21
9.0
 12
0.0
 22
0.0
 32
0.0
 14
1.000000000000000E+20
 24
1.000000000000000E+20
 34
1.000000000000000E+20
 15
-1.000000000000000E+20
 25
-1.000000000000000E+20
 35
-1.000000000000000E+20
146
0.0
 13
0.0
 23
0.0
 33
0.0
 16
1.0
 26
0.0
 36
0.0
 17
0.0
 27
1.0
 37
0.0
 76
     0
330
1B
  0
LAYOUT
  5
26
102
{ACAD_REACTORS
330
1A
102
}
330
1A
100
AcDbPlotSettings
  1

  2
none_device
  4

  6

 40
0.0
 41
0.0
 42
0.0
 43
0.0
 44
0.0
 45
0.0
 46
0.0
 47
0.0
 48
0.0
 49
0.0
140
0.0
141
0.0
142
1.0
143
1.0
 70
   688
 72
     0
 73
     0
 74
     5
  7

 75
    16
 76
     0
 77
     2
 78
   300
147
1.0
148
0.0
149
0.0
100
AcDbLayout
  1
Layout2
 70
     1
 71
     2
 10
0.0
 20
0.0
 11
0.0
 21
0.0
 12
0.0
 22
0.0
 32
0.0
 14
0.0
 24
0.0
 34
0.0
 15
0.0
 25
0.0
 35
0.0
146
0.0
 13
0.0
 23
0.0
 33
0.0
 16
1.0
 26
0.0
 36
0.0
 17
0.0
 27
1.0
 37
0.0
 76
     0
330
23
  0
LAYOUT
  5
22
102
{ACAD_REACTORS
330
1A
102
}
330
1A
100
AcDbPlotSettings
  1

  2
none_device
  4

  6

 40
0.0
 41
0.0
 42
0.0
 43
0.0
 44
0.0
 45
0.0
 46
0.0
 47
0.0
 48
0.0
 49
0.0
140
0.0
141
0.0
142
1.0
143
1.0
 70
  1712
 72
     0
 73
     0
 74
     0
  7

 75
     0
 76
     0
 77
     2
 78
   300
147
1.0
148
0.0
149
0.0
100
AcDbLayout
  1
Model
 70
     1
 71
     0
 10
0.0
 20
0.0
 11
12.0
 21
9.0
 12
0.0
 22
0.0
 32
0.0
 14
-4.24349
 24
-2.99242
 34
0.0
 15
3.76101
 25
1.97646
 35
0.0
146
0.0
 13
0.0
 23
0.0
 33
0.0
 16
1.0
 26
0.0
 36
0.0
 17
0.0
 27
1.0
 37
0.0
 76
     0
330
1F
331
29
  0
MATERIAL
  5
3D
102
{ACAD_REACTORS
330
3B
102
}
330
3B
100
AcDbMaterial
  1
ByBlock
 72
     1
 94
      127
  0
MATERIAL
  5
3C
102
{ACAD_REACTORS
330
3B
102
}
330
3B
100
AcDbMaterial
  1
ByLayer
 72
     1
 94
      127
  0
MATERIAL
  5
3E
102
{ACAD_REACTORS
330
3B
102
}
330
3B
100
AcDbMaterial
  1
Global
 72
     1
 94
      127
  0
MLINESTYLE
  5
18
102
{ACAD_REACTORS
330
17
102
}
330
17
100
AcDbMlineStyle
  2
Standard
 70
     0
  3

 62
   256
 51
90.0
 52
90.0
 71
     2
 49
0.5
 62
   256
  6
BYLAYER
 49
-0.5
 62
   256
  6
BYLAYER
  0
ACDBPLACEHOLDER
  5
F
102
{ACAD_REACTORS
330
E
102
}
330
E
  0
VISUALSTYLE
  5
2F
102
{ACAD_REACTORS
330
2A
102
}
102
{ACAD_XDICTIONARY
360
55
102
}
330
2A
100
AcDbVisualStyle
  2
2dWireframe
 70
     4
 71
     0
 72
     2
 73
     0
 90
        0
 40
-0.6
 41
-30.0
 62
     5
 63
     7
421
 16777215
 74
     1
 91
        4
 64
     7
 65
   257
 75
     1
175
     1
 42
1.0
 92
        0
 66
   257
 43
1.0
 76
     1
 77
     6
 78
     2
 67
     7
 79
     5
170
     0
171
     0
290
     0
174
     0
 93
        1
 44
0.0
173
     0
291
     0
 45
0.0
  0
VISUALSTYLE
  5
31
102
{ACAD_REACTORS
330
2A
102
}
102
{ACAD_XDICTIONARY
360
59
102
}
330
2A
100
AcDbVisualStyle
  2
3D Hidden
 70
     6
 71
     1
 72
     2
 73
     2
 90
        0
 40
-0.6
 41
-30.0
 62
     5
 63
     7
421
 16777215
 74
     2
 91
        2
 64
     7
 65
   257
 75
     2
175
     1
 42
40.0
 92
        0
 66
   257
 43
1.0
 76
     1
 77
     6
 78
     2
 67
     7
 79
     3
170
     0
171
     0
290
     0
174
     0
 93
        1
 44
0.0
173
     0
291
     0
 45
0.0
  0
VISUALSTYLE
  5
30
102
{ACAD_REACTORS
330
2A
102
}
102
{ACAD_XDICTIONARY
360
57
102
}
330
2A
100
AcDbVisualStyle
  2
3dWireframe
 70
     5
 71
     0
 72
     2
 73
     0
 90
        0
 40
-0.6
 41
-30.0
 62
     5
 63
     7
421
 16777215
 74
     1
 91
        4
 64
     7
 65
   257
 75
     1
175
     1
 42
1.0
 92
        0
 66
   257
 43
1.0
 76
     1
 77
     6
 78
     2
 67
     7
 79
     5
170
     0
171
     0
290
     0
174
     0
 93
        1
 44
0.0
173
     0
291
     0
 45
0.0
  0
VISUALSTYLE
  5
32
102
{ACAD_REACTORS
330
2A
102
}
102
{ACAD_XDICTIONARY
360
5B
102
}
330
2A
100
AcDbVisualStyle
  2
Basic
 70
     7
 71
     1
 72
     0
 73
     1
 90
        0
 40
-0.6
 41
-30.0
 62
     5
 63
     7
421
 16777215
 74
     0
 91
        4
 64
     7
 65
   257
 75
     1
175
     1
 42
1.0
 92
        8
 66
     7
 43
1.0
 76
     1
 77
     6
 78
     2
 67
     7
 79
     5
170
     0
171
     0
290
     0
174
     0
 93
        1
 44
0.0
173
     0
291
     1
 45
0.0
  0
VISUALSTYLE
  5
36
102
{ACAD_REACTORS
330
2A
102
}
102
{ACAD_XDICTIONARY
360
63
102
}
330
2A
100
AcDbVisualStyle
  2
Brighten
 70
    12
 71
     2
 72
     2
 73
     0
 90
        0
 40
-0.6
 41
-30.0
 62
     5
 63
     7
421
 16777215
 74
     1
 91
        4
 64
     7
 65
   257
 75
     1
175
     1
 42
1.0
 92
        8
 66
     7
 43
1.0
 76
     1
 77
     6
 78
     2
 67
     7
 79
     5
170
     0
171
     0
290
     0
174
     0
 93
        1
 44
50.0
173
     0
291
     1
 45
0.0
  0
VISUALSTYLE
  5
3A
102
{ACAD_REACTORS
330
2A
102
}
102
{ACAD_XDICTIONARY
360
6B
102
}
330
2A
100
AcDbVisualStyle
  2
ColorChange
 70
    16
 71
     2
 72
     2
 73
     3
 90
        0
 40
-0.6
 41
-30.0
 62
     5
 63
     8
421
  8421504
 74
     1
 91
        4
 64
     7
 65
   257
 75
     1
175
     1
 42
1.0
 92
        8
 66
     8
424
  8421504
 43
1.0
 76
     1
 77
     6
 78
     2
 67
     7
 79
     5
170
     0
171
     0
290
     0
174
     0
 93
        1
 44
0.0
173
     0
291
     1
 45
0.0
  0
VISUALSTYLE
  5
34
102
{ACAD_REACTORS
330
2A
102
}
102
{ACAD_XDICTIONARY
360
5F
102
}
330
2A
100
AcDbVisualStyle
  2
Conceptual
 70
     9
 71
     3
 72
     2
 73
     0
 90
        0
 40
-0.6
 41
-30.0
 62
     5
 63
     7
421
 16777215
 74
     2
 91
        2
 64
     7
 65
   257
 75
     1
175
     1
 42
40.0
 92
        8
 66
     7
 43
1.0
 76
     1
 77
     6
 78
     2
 67
     7
 79
     3
170
     0
171
     0
290
     0
174
     0
 93
        1
 44
0.0
173
     0
291
     0
 45
0.0
  0
VISUALSTYLE
  5
35
102
{ACAD_REACTORS
330
2A
102
}
102
{ACAD_XDICTIONARY
360
61
102
}
330
2A
100
AcDbVisualStyle
  2
Dim
 70
    11
 71
     2
 72
     2
 73
     0
 90
        0
 40
-0.6
 41
-30.0
 62
     5
 63
     7
421
 16777215
 74
     1
 91
        4
 64
     7
 65
   257
 75
     1
175
     1
 42
1.0
 92
        8
 66
     7
 43
1.0
 76
     1
 77
     6
 78
     2
 67
     7
 79
     5
170
     0
171
     0
290
     0
174
     0
 93
        1
 44
-50.0
173
     0
291
     1
 45
0.0
  0
VISUALSTYLE
  5
39
102
{ACAD_REACTORS
330
2A
102
}
102
{ACAD_XDICTIONARY
360
69
102
}
330
2A
100
AcDbVisualStyle
  2
Facepattern
 70
    15
 71
     2
 72
     2
 73
     0
 90
        0
 40
-0.6
 41
-30.0
 62
     5
 63
     7
421
 16777215
 74
     1
 91
        4
 64
     7
 65
   257
 75
     1
175
     1
 42
1.0
 92
        8
 66
     7
 43
1.0
 76
     1
 77
     6
 78
     2
 67
     7
 79
     5
170
     0
171
     0
290
     0
174
     0
 93
        1
 44
0.0
173
     0
291
     1
 45
0.0
  0
VISUALSTYLE
  5
2B
102
{ACAD_REACTORS
330
2A
102
}
102
{ACAD_XDICTIONARY
360
4D
102
}
330
2A
100
AcDbVisualStyle
  2
Flat
 70
     0
 71
     2
 72
     1
 73
     1
 90
        2
 40
-0.6
 41
30.0
 62
     5
 63
     7
421
 16777215
 74
     0
 91
        4
 64
     7
 65
   257
 75
     1
175
     1
 42
1.0
 92
        8
 66
     7
 43
1.0
 76
     1
 77
     6
 78
     2
 67
     7
 79
     5
170
     0
171
     0
290
     0
174
     0
 93
       13
 44
0.0
173
     0
291
     1
 45
0.0
  0
VISUALSTYLE
  5
2C
102
{ACAD_REACTORS
330
2A
102
}
102
{ACAD_XDICTIONARY
360
4F
102
}
330
2A
100
AcDbVisualStyle
  2
FlatWithEdges
 70
     1
 71
     2
 72
     1
 73
     1
 90
        2
 40
-0.6
 41
30.0
 62
     5
 63
     7
421
 16777215
 74
     1
 91
        4
 64
     7
 65
   257
 75
     1
175
     1
 42
1.0
 92
        0
 66
   257
 43
1.0
 76
     1
 77
     6
 78
     2
 67
     7
 79
     5
170
     0
171
     0
290
     0
174
     0
 93
       13
 44
0.0
173
     0
291
     1
 45
0.0
  0
VISUALSTYLE
  5
2D
102
{ACAD_REACTORS
330
2A
102
}
102
{ACAD_XDICTIONARY
360
51
102
}
330
2A
100
AcDbVisualStyle
  2
Gouraud
 70
     2
 71
     2
 72
     2
 73
     1
 90
        2
 40
-0.6
 41
30.0
 62
     5
 63
     7
421
 16777215
 74
     0
 91
        4
 64
     7
 65
   257
 75
     1
175
     1
 42
1.0
 92
        0
 66
     7
 43
1.0
 76
     1
 77
     6
 78
     2
 67
     7
 79
     5
170
     0
171
     0
290
     0
174
     0
 93
       13
 44
0.0
173
     0
291
     1
 45
0.0
  0
VISUALSTYLE
  5
2E
102
{ACAD_REACTORS
330
2A
102
}
102
{ACAD_XDICTIONARY
360
53
102
}
330
2A
100
AcDbVisualStyle
  2
GouraudWithEdges
 70
     3
 71
     2
 72
     2
 73
     1
 90
        2
 40
-0.6
 41
30.0
 62
     5
 63
     7
421
 16777215
 74
     1
 91
        4
 64
     7
 65
   257
 75
     1
175
     1
 42
1.0
 92
        0
 66
   257
 43
1.0
 76
     1
 77
     6
 78
     2
 67
     7
 79
     5
170
     0
171
     0
290
     0
174
     0
 93
       13
 44
0.0
173
     0
291
     1
 45
0.0
  0
VISUALSTYLE
  5
38
102
{ACAD_REACTORS
330
2A
102
}
102
{ACAD_XDICTIONARY
360
67
102
}
330
2A
100
AcDbVisualStyle
  2
Linepattern
 70
    14
 71
     2
 72
     2
 73
     0
 90
        0
 40
-0.6
 41
-30.0
 62
     5
 63
     7
421
 16777215
 74
     1
 91
        4
 64
     7
 65
   257
 75
     7
175
     7
 42
1.0
 92
        8
 66
     7
 43
1.0
 76
     1
 77
     6
 78
     2
 67
     7
 79
     5
170
     0
171
     0
290
     0
174
     0
 93
        1
 44
0.0
173
     0
291
     1
 45
0.0
  0
VISUALSTYLE
  5
33
102
{ACAD_REACTORS
330
2A
102
}
102
{ACAD_XDICTIONARY
360
5D
102
}
330
2A
100
AcDbVisualStyle
  2
Realistic
 70
     8
 71
     2
 72
     2
 73
     0
 90
        0
 40
-0.6
 41
-30.0
 62
     5
 63
     7
421
 16777215
 74
     1
 91
        0
 64
     7
 65
   257
 75
     1
175
     1
 42
1.0
 92
        8
 66
     8
424
  7895160
 43
1.0
 76
     1
 77
     6
 78
     2
 67
     7
 79
     5
170
     0
171
     0
290
     0
174
     0
 93
       13
 44
0.0
173
     0
291
     0
 45
0.0
  0
VISUALSTYLE
  5
37
102
{ACAD_REACTORS
330
2A
102
}
102
{ACAD_XDICTIONARY
360
65
102
}
330
2A
100
AcDbVisualStyle
  2
Thicken
 70
    13
 71
     2
 72
     2
 73
     0
 90
        0
 40
-0.6
 41
-30.0
 62
     5
 63
     7
421
 16777215
 74
     1
 91
        4
 64
     7
 65
   257
 75
     1
175
     1
 42
1.0
 92
       12
 66
     7
 43
1.0
 76
     1
 77
     6
 78
     2
 67
     7
 79
     5
170
     0
171
     0
290
     0
174
     0
 93
        1
 44
0.0
173
     0
291
     1
 45
0.0
  0
DICTIONARY
  5
55
330
2F
100
AcDbDictionary
280
     1
281
     1
  3
ACAD_XREC_ROUNDTRIP
360
56
  0
DICTIONARY
  5
59
330
31
100
AcDbDictionary
280
     1
281
     1
  3
ACAD_XREC_ROUNDTRIP
360
5A
  0
DICTIONARY
  5
57
330
30
100
AcDbDictionary
280
     1
281
     1
  3
ACAD_XREC_ROUNDTRIP
360
58
  0
DICTIONARY
  5
5B
330
32
100
AcDbDictionary
280
     1
281
     1
  3
ACAD_XREC_ROUNDTRIP
360
5C
  0
DICTIONARY
  5
63
330
36
100
AcDbDictionary
280
     1
281
     1
  3
ACAD_XREC_ROUNDTRIP
360
64
  0
DICTIONARY
  5
6B
330
3A
100
AcDbDictionary
280
     1
281
     1
  3
ACAD_XREC_ROUNDTRIP
360
6C
  0
DICTIONARY
  5
5F
330
34
100
AcDbDictionary
280
     1
281
     1
  3
ACAD_XREC_ROUNDTRIP
360
60
  0
DICTIONARY
  5
61
330
35
100
AcDbDictionary
280
     1
281
     1
  3
ACAD_XREC_ROUNDTRIP
360
62
  0
DICTIONARY
  5
69
330
39
100
AcDbDictionary
280
     1
281
     1
  3
ACAD_XREC_ROUNDTRIP
360
6A
  0
DICTIONARY
  5
4D
330
2B
100
AcDbDictionary
280
     1
281
     1
  3
ACAD_XREC_ROUNDTRIP
360
4E
  0
DICTIONARY
  5
4F
330
2C
100
AcDbDictionary
280
     1
281
     1
  3
ACAD_XREC_ROUNDTRIP
360
50
  0
DICTIONARY
  5
51
330
2D
100
AcDbDictionary
280
     1
281
     1
  3
ACAD_XREC_ROUNDTRIP
360
52
  0
DICTIONARY
  5
53
330
2E
100
AcDbDictionary
280
     1
281
     1
  3
ACAD_XREC_ROUNDTRIP
360
54
  0
DICTIONARY
  5
67
330
38
100
AcDbDictionary
280
     1
281
     1
  3
ACAD_XREC_ROUNDTRIP
360
68
  0
DICTIONARY
  5
5D
330
33
100
AcDbDictionary
280
     1
281
     1
  3
ACAD_XREC_ROUNDTRIP
360
5E
  0
DICTIONARY
  5
65
330
37
100
AcDbDictionary
280
     1
281
     1
  3
ACAD_XREC_ROUNDTRIP
360
66
  0
XRECORD
  5
56
102
{ACAD_REACTORS
330
55
102
}
330
55
100
AcDbXrecord
280
     1
102
RTVSPropertyOp0
 70
     1
102
RTVSPropertyOp1
 70
     1
102
RTVSPropertyOp2
 70
     1
102
RTVSPropertyOp3
 70
     1
102
RTVSPropertyOp4
 70
     1
102
RTVSPropertyOp5
 70
     1
102
RTVSPropertyOp6
 70
     1
102
RTVSPropertyOp7
 70
     1
102
RTVSPropertyOp8
 70
     1
102
RTVSPropertyOp9
 70
     1
102
RTVSPropertyOp10
 70
     1
102
RTVSPropertyOp11
 70
     1
102
RTVSPropertyOp12
 70
     1
102
RTVSPropertyOp13
 70
     1
102
RTVSPropertyOp14
 70
     1
102
RTVSPropertyOp15
 70
     1
102
RTVSPropertyOp16
 70
     1
102
RTVSPropertyOp17
 70
     1
102
RTVSPropertyOp18
 70
     1
102
RTVSPropertyOp19
 70
     1
102
RTVSPropertyOp20
 70
     1
102
RTVSPropertyOp21
 70
     1
102
RTVSPropertyOp22
 70
     1
102
RTVSPropertyOp23
 70
     1
102
RTVSPropertyOp24
 70
     1
102
RTVSPropertyOp25
 70
     1
102
RTVSPropertyOp26
 70
     1
102
RTVSPropertyOp27
 70
     1
102
RTVSPropertyOp28
 70
     1
102
RTVSPropertyOp29
 70
     1
102
RTVSPropertyOp30
 70
     1
102
RTVSPropertyOp31
 70
     1
102
RTVSPropertyOp32
 70
     1
  0
XRECORD
  5
5A
102
{ACAD_REACTORS
330
59
102
}
330
59
100
AcDbXrecord
280
     1
102
RTVSPropertyOp0
 70
     1
102
RTVSPropertyOp1
 70
     1
102
RTVSPropertyOp2
 70
     1
102
RTVSPropertyOp3
 70
     1
102
RTVSPropertyOp4
 70
     1
102
RTVSPropertyOp5
 70
     1
102
RTVSPropertyOp6
 70
     1
102
RTVSPropertyOp7
 70
     1
102
RTVSPropertyOp8
 70
     1
102
RTVSPropertyOp9
 70
     1
102
RTVSPropertyOp10
 70
     1
102
RTVSPropertyOp11
 70
     1
102
RTVSPropertyOp12
 70
     1
102
RTVSPropertyOp13
 70
     1
102
RTVSPropertyOp14
 70
     1
102
RTVSPropertyOp15
 70
     1
102
RTVSPropertyOp16
 70
     1
102
RTVSPropertyOp17
 70
     1
102
RTVSPropertyOp18
 70
     1
102
RTVSPropertyOp19
 70
     1
102
RTVSPropertyOp20
 70
     1
102
RTVSPropertyOp21
 70
     1
102
RTVSPropertyOp22
 70
     1
102
RTVSPropertyOp23
 70
     1
102
RTVSPropertyOp24
 70
     1
102
RTVSPropertyOp25
 70
     1
102
RTVSPropertyOp26
 70
     1
102
RTVSPropertyOp27
 70
     1
102
RTVSPropertyOp28
 70
     1
102
RTVSPropertyOp29
 70
     1
102
RTVSPropertyOp30
 70
     1
102
RTVSPropertyOp31
 70
     1
102
RTVSPropertyOp32
 70
     1
  0
XRECORD
  5
58
102
{ACAD_REACTORS
330
57
102
}
330
57
100
AcDbXrecord
280
     1
102
RTVSPropertyOp0
 70
     1
102
RTVSPropertyOp1
 70
     1
102
RTVSPropertyOp2
 70
     1
102
RTVSPropertyOp3
 70
     1
102
RTVSPropertyOp4
 70
     1
102
RTVSPropertyOp5
 70
     1
102
RTVSPropertyOp6
 70
     1
102
RTVSPropertyOp7
 70
     1
102
RTVSPropertyOp8
 70
     1
102
RTVSPropertyOp9
 70
     1
102
RTVSPropertyOp10
 70
     1
102
RTVSPropertyOp11
 70
     1
102
RTVSPropertyOp12
 70
     1
102
RTVSPropertyOp13
 70
     1
102
RTVSPropertyOp14
 70
     1
102
RTVSPropertyOp15
 70
     1
102
RTVSPropertyOp16
 70
     1
102
RTVSPropertyOp17
 70
     1
102
RTVSPropertyOp18
 70
     1
102
RTVSPropertyOp19
 70
     1
102
RTVSPropertyOp20
 70
     1
102
RTVSPropertyOp21
 70
     1
102
RTVSPropertyOp22
 70
     1
102
RTVSPropertyOp23
 70
     1
102
RTVSPropertyOp24
 70
     1
102
RTVSPropertyOp25
 70
     1
102
RTVSPropertyOp26
 70
     1
102
RTVSPropertyOp27
 70
     1
102
RTVSPropertyOp28
 70
     1
102
RTVSPropertyOp29
 70
     1
102
RTVSPropertyOp30
 70
     1
102
RTVSPropertyOp31
 70
     1
102
RTVSPropertyOp32
 70
     1
  0
XRECORD
  5
5C
102
{ACAD_REACTORS
330
5B
102
}
330
5B
100
AcDbXrecord
280
     1
102
RTVSPropertyOp0
 70
     1
102
RTVSPropertyOp1
 70
     1
102
RTVSPropertyOp2
 70
     1
102
RTVSPropertyOp3
 70
     1
102
RTVSPropertyOp4
 70
     1
102
RTVSPropertyOp5
 70
     1
102
RTVSPropertyOp6
 70
     1
102
RTVSPropertyOp7
 70
     1
102
RTVSPropertyOp8
 70
     1
102
RTVSPropertyOp9
 70
     1
102
RTVSPropertyOp10
 70
     1
102
RTVSPropertyOp11
 70
     1
102
RTVSPropertyOp12
 70
     1
102
RTVSPropertyOp13
 70
     1
102
RTVSPropertyOp14
 70
     1
102
RTVSPropertyOp15
 70
     1
102
RTVSPropertyOp16
 70
     1
102
RTVSPropertyOp17
 70
     1
102
RTVSPropertyOp18
 70
     1
102
RTVSPropertyOp19
 70
     1
102
RTVSPropertyOp20
 70
     1
102
RTVSPropertyOp21
 70
     1
102
RTVSPropertyOp22
 70
     1
102
RTVSPropertyOp23
 70
     1
102
RTVSPropertyOp24
 70
     1
102
RTVSPropertyOp25
 70
     1
102
RTVSPropertyOp26
 70
     1
102
RTVSPropertyOp27
 70
     1
102
RTVSPropertyOp28
 70
     1
102
RTVSPropertyOp29
 70
     1
102
RTVSPropertyOp30
 70
     1
102
RTVSPropertyOp31
 70
     1
102
RTVSPropertyOp32
 70
     1
  0
XRECORD
  5
64
102
{ACAD_REACTORS
330
63
102
}
330
63
100
AcDbXrecord
280
     1
102
RTVSPropertyOp0
 70
     1
102
RTVSPropertyOp1
 70
     1
102
RTVSPropertyOp2
 70
     1
102
RTVSPropertyOp3
 70
     1
102
RTVSPropertyOp4
 70
     1
102
RTVSPropertyOp5
 70
     1
102
RTVSPropertyOp6
 70
     1
102
RTVSPropertyOp7
 70
     1
102
RTVSPropertyOp8
 70
     1
102
RTVSPropertyOp9
 70
     1
102
RTVSPropertyOp10
 70
     1
102
RTVSPropertyOp11
 70
     1
102
RTVSPropertyOp12
 70
     1
102
RTVSPropertyOp13
 70
     1
102
RTVSPropertyOp14
 70
     1
102
RTVSPropertyOp15
 70
     1
102
RTVSPropertyOp16
 70
     1
102
RTVSPropertyOp17
 70
     1
102
RTVSPropertyOp18
 70
     1
102
RTVSPropertyOp19
 70
     1
102
RTVSPropertyOp20
 70
     1
102
RTVSPropertyOp21
 70
     1
102
RTVSPropertyOp22
 70
     1
102
RTVSPropertyOp23
 70
     1
102
RTVSPropertyOp24
 70
     1
102
RTVSPropertyOp25
 70
     1
102
RTVSPropertyOp26
 70
     1
102
RTVSPropertyOp27
 70
     1
102
RTVSPropertyOp28
 70
     1
102
RTVSPropertyOp29
 70
     1
102
RTVSPropertyOp30
 70
     1
102
RTVSPropertyOp31
 70
     1
102
RTVSPropertyOp32
 70
     1
  0
XRECORD
  5
6C
102
{ACAD_REACTORS
330
6B
102
}
330
6B
100
AcDbXrecord
280
     1
102
RTVSPropertyOp0
 70
     1
102
RTVSPropertyOp1
 70
     1
102
RTVSPropertyOp2
 70
     1
102
RTVSPropertyOp3
 70
     1
102
RTVSPropertyOp4
 70
     1
102
RTVSPropertyOp5
 70
     1
102
RTVSPropertyOp6
 70
     1
102
RTVSPropertyOp7
 70
     1
102
RTVSPropertyOp8
 70
     1
102
RTVSPropertyOp9
 70
     1
102
RTVSPropertyOp10
 70
     1
102
RTVSPropertyOp11
 70
     1
102
RTVSPropertyOp12
 70
     1
102
RTVSPropertyOp13
 70
     1
102
RTVSPropertyOp14
 70
     1
102
RTVSPropertyOp15
 70
     1
102
RTVSPropertyOp16
 70
     1
102
RTVSPropertyOp17
 70
     1
102
RTVSPropertyOp18
 70
     1
102
RTVSPropertyOp19
 70
     1
102
RTVSPropertyOp20
 70
     1
102
RTVSPropertyOp21
 70
     1
102
RTVSPropertyOp22
 70
     1
102
RTVSPropertyOp23
 70
     1
102
RTVSPropertyOp24
 70
     1
102
RTVSPropertyOp25
 70
     1
102
RTVSPropertyOp26
 70
     1
102
RTVSPropertyOp27
 70
     1
102
RTVSPropertyOp28
 70
     1
102
RTVSPropertyOp29
 70
     1
102
RTVSPropertyOp30
 70
     1
102
RTVSPropertyOp31
 70
     1
102
RTVSPropertyOp32
 70
     1
  0
XRECORD
  5
60
102
{ACAD_REACTORS
330
5F
102
}
330
5F
100
AcDbXrecord
280
     1
102
RTVSPropertyOp0
 70
     1
102
RTVSPropertyOp1
 70
     1
102
RTVSPropertyOp2
 70
     1
102
RTVSPropertyOp3
 70
     1
102
RTVSPropertyOp4
 70
     1
102
RTVSPropertyOp5
 70
     1
102
RTVSPropertyOp6
 70
     1
102
RTVSPropertyOp7
 70
     1
102
RTVSPropertyOp8
 70
     1
102
RTVSPropertyOp9
 70
     1
102
RTVSPropertyOp10
 70
     1
102
RTVSPropertyOp11
 70
     1
102
RTVSPropertyOp12
 70
     1
102
RTVSPropertyOp13
 70
     1
102
RTVSPropertyOp14
 70
     1
102
RTVSPropertyOp15
 70
     1
102
RTVSPropertyOp16
 70
     1
102
RTVSPropertyOp17
 70
     1
102
RTVSPropertyOp18
 70
     1
102
RTVSPropertyOp19
 70
     1
102
RTVSPropertyOp20
 70
     1
102
RTVSPropertyOp21
 70
     1
102
RTVSPropertyOp22
 70
     1
102
RTVSPropertyOp23
 70
     1
102
RTVSPropertyOp24
 70
     1
102
RTVSPropertyOp25
 70
     1
102
RTVSPropertyOp26
 70
     1
102
RTVSPropertyOp27
 70
     1
102
RTVSPropertyOp28
 70
     1
102
RTVSPropertyOp29
 70
     1
102
RTVSPropertyOp30
 70
     1
102
RTVSPropertyOp31
 70
     1
102
RTVSPropertyOp32
 70
     1
  0
XRECORD
  5
62
102
{ACAD_REACTORS
330
61
102
}
330
61
100
AcDbXrecord
280
     1
102
RTVSPropertyOp0
 70
     1
102
RTVSPropertyOp1
 70
     1
102
RTVSPropertyOp2
 70
     1
102
RTVSPropertyOp3
 70
     1
102
RTVSPropertyOp4
 70
     1
102
RTVSPropertyOp5
 70
     1
102
RTVSPropertyOp6
 70
     1
102
RTVSPropertyOp7
 70
     1
102
RTVSPropertyOp8
 70
     1
102
RTVSPropertyOp9
 70
     1
102
RTVSPropertyOp10
 70
     1
102
RTVSPropertyOp11
 70
     1
102
RTVSPropertyOp12
 70
     1
102
RTVSPropertyOp13
 70
     1
102
RTVSPropertyOp14
 70
     1
102
RTVSPropertyOp15
 70
     1
102
RTVSPropertyOp16
 70
     1
102
RTVSPropertyOp17
 70
     1
102
RTVSPropertyOp18
 70
     1
102
RTVSPropertyOp19
 70
     1
102
RTVSPropertyOp20
 70
     1
102
RTVSPropertyOp21
 70
     1
102
RTVSPropertyOp22
 70
     1
102
RTVSPropertyOp23
 70
     1
102
RTVSPropertyOp24
 70
     1
102
RTVSPropertyOp25
 70
     1
102
RTVSPropertyOp26
 70
     1
102
RTVSPropertyOp27
 70
     1
102
RTVSPropertyOp28
 70
     1
102
RTVSPropertyOp29
 70
     1
102
RTVSPropertyOp30
 70
     1
102
RTVSPropertyOp31
 70
     1
102
RTVSPropertyOp32
 70
     1
  0
XRECORD
  5
6A
102
{ACAD_REACTORS
330
69
102
}
330
69
100
AcDbXrecord
280
     1
102
RTVSPropertyOp0
 70
     1
102
RTVSPropertyOp1
 70
     1
102
RTVSPropertyOp2
 70
     1
102
RTVSPropertyOp3
 70
     1
102
RTVSPropertyOp4
 70
     1
102
RTVSPropertyOp5
 70
     1
102
RTVSPropertyOp6
 70
     1
102
RTVSPropertyOp7
 70
     1
102
RTVSPropertyOp8
 70
     1
102
RTVSPropertyOp9
 70
     1
102
RTVSPropertyOp10
 70
     1
102
RTVSPropertyOp11
 70
     1
102
RTVSPropertyOp12
 70
     1
102
RTVSPropertyOp13
 70
     1
102
RTVSPropertyOp14
 70
     1
102
RTVSPropertyOp15
 70
     1
102
RTVSPropertyOp16
 70
     1
102
RTVSPropertyOp17
 70
     1
102
RTVSPropertyOp18
 70
     1
102
RTVSPropertyOp19
 70
     1
102
RTVSPropertyOp20
 70
     1
102
RTVSPropertyOp21
 70
     1
102
RTVSPropertyOp22
 70
     1
102
RTVSPropertyOp23
 70
     1
102
RTVSPropertyOp24
 70
     1
102
RTVSPropertyOp25
 70
     1
102
RTVSPropertyOp26
 70
     1
102
RTVSPropertyOp27
 70
     1
102
RTVSPropertyOp28
 70
     1
102
RTVSPropertyOp29
 70
     1
102
RTVSPropertyOp30
 70
     1
102
RTVSPropertyOp31
 70
     1
102
RTVSPropertyOp32
 70
     1
  0
XRECORD
  5
4E
102
{ACAD_REACTORS
330
4D
102
}
330
4D
100
AcDbXrecord
280
     1
102
RTVSPropertyOp0
 70
     1
102
RTVSPropertyOp1
 70
     1
102
RTVSPropertyOp2
 70
     1
102
RTVSPropertyOp3
 70
     1
102
RTVSPropertyOp4
 70
     1
102
RTVSPropertyOp5
 70
     1
102
RTVSPropertyOp6
 70
     1
102
RTVSPropertyOp7
 70
     1
102
RTVSPropertyOp8
 70
     1
102
RTVSPropertyOp9
 70
     1
102
RTVSPropertyOp10
 70
     1
102
RTVSPropertyOp11
 70
     1
102
RTVSPropertyOp12
 70
     1
102
RTVSPropertyOp13
 70
     1
102
RTVSPropertyOp14
 70
     1
102
RTVSPropertyOp15
 70
     1
102
RTVSPropertyOp16
 70
     1
102
RTVSPropertyOp17
 70
     1
102
RTVSPropertyOp18
 70
     1
102
RTVSPropertyOp19
 70
     1
102
RTVSPropertyOp20
 70
     1
102
RTVSPropertyOp21
 70
     1
102
RTVSPropertyOp22
 70
     1
102
RTVSPropertyOp23
 70
     1
102
RTVSPropertyOp24
 70
     1
102
RTVSPropertyOp25
 70
     1
102
RTVSPropertyOp26
 70
     1
102
RTVSPropertyOp27
 70
     1
102
RTVSPropertyOp28
 70
     1
102
RTVSPropertyOp29
 70
     1
102
RTVSPropertyOp30
 70
     1
102
RTVSPropertyOp31
 70
     1
102
RTVSPropertyOp32
 70
     1
  0
XRECORD
  5
50
102
{ACAD_REACTORS
330
4F
102
}
330
4F
100
AcDbXrecord
280
     1
102
RTVSPropertyOp0
 70
     1
102
RTVSPropertyOp1
 70
     1
102
RTVSPropertyOp2
 70
     1
102
RTVSPropertyOp3
 70
     1
102
RTVSPropertyOp4
 70
     1
102
RTVSPropertyOp5
 70
     1
102
RTVSPropertyOp6
 70
     1
102
RTVSPropertyOp7
 70
     1
102
RTVSPropertyOp8
 70
     1
102
RTVSPropertyOp9
 70
     1
102
RTVSPropertyOp10
 70
     1
102
RTVSPropertyOp11
 70
     1
102
RTVSPropertyOp12
 70
     1
102
RTVSPropertyOp13
 70
     1
102
RTVSPropertyOp14
 70
     1
102
RTVSPropertyOp15
 70
     1
102
RTVSPropertyOp16
 70
     1
102
RTVSPropertyOp17
 70
     1
102
RTVSPropertyOp18
 70
     1
102
RTVSPropertyOp19
 70
     1
102
RTVSPropertyOp20
 70
     1
102
RTVSPropertyOp21
 70
     1
102
RTVSPropertyOp22
 70
     1
102
RTVSPropertyOp23
 70
     1
102
RTVSPropertyOp24
 70
     1
102
RTVSPropertyOp25
 70
     1
102
RTVSPropertyOp26
 70
     1
102
RTVSPropertyOp27
 70
     1
102
RTVSPropertyOp28
 70
     1
102
RTVSPropertyOp29
 70
     1
102
RTVSPropertyOp30
 70
     1
102
RTVSPropertyOp31
 70
     1
102
RTVSPropertyOp32
 70
     1
  0
XRECORD
  5
52
102
{ACAD_REACTORS
330
51
102
}
330
51
100
AcDbXrecord
280
     1
102
RTVSPropertyOp0
 70
     1
102
RTVSPropertyOp1
 70
     1
102
RTVSPropertyOp2
 70
     1
102
RTVSPropertyOp3
 70
     1
102
RTVSPropertyOp4
 70
     1
102
RTVSPropertyOp5
 70
     1
102
RTVSPropertyOp6
 70
     1
102
RTVSPropertyOp7
 70
     1
102
RTVSPropertyOp8
 70
     1
102
RTVSPropertyOp9
 70
     1
102
RTVSPropertyOp10
 70
     1
102
RTVSPropertyOp11
 70
     1
102
RTVSPropertyOp12
 70
     1
102
RTVSPropertyOp13
 70
     1
102
RTVSPropertyOp14
 70
     1
102
RTVSPropertyOp15
 70
     1
102
RTVSPropertyOp16
 70
     1
102
RTVSPropertyOp17
 70
     1
102
RTVSPropertyOp18
 70
     1
102
RTVSPropertyOp19
 70
     1
102
RTVSPropertyOp20
 70
     1
102
RTVSPropertyOp21
 70
     1
102
RTVSPropertyOp22
 70
     1
102
RTVSPropertyOp23
 70
     1
102
RTVSPropertyOp24
 70
     1
102
RTVSPropertyOp25
 70
     1
102
RTVSPropertyOp26
 70
     1
102
RTVSPropertyOp27
 70
     1
102
RTVSPropertyOp28
 70
     1
102
RTVSPropertyOp29
 70
     1
102
RTVSPropertyOp30
 70
     1
102
RTVSPropertyOp31
 70
     1
102
RTVSPropertyOp32
 70
     1
  0
XRECORD
  5
54
102
{ACAD_REACTORS
330
53
102
}
330
53
100
AcDbXrecord
280
     1
102
RTVSPropertyOp0
 70
     1
102
RTVSPropertyOp1
 70
     1
102
RTVSPropertyOp2
 70
     1
102
RTVSPropertyOp3
 70
     1
102
RTVSPropertyOp4
 70
     1
102
RTVSPropertyOp5
 70
     1
102
RTVSPropertyOp6
 70
     1
102
RTVSPropertyOp7
 70
     1
102
RTVSPropertyOp8
 70
     1
102
RTVSPropertyOp9
 70
     1
102
RTVSPropertyOp10
 70
     1
102
RTVSPropertyOp11
 70
     1
102
RTVSPropertyOp12
 70
     1
102
RTVSPropertyOp13
 70
     1
102
RTVSPropertyOp14
 70
     1
102
RTVSPropertyOp15
 70
     1
102
RTVSPropertyOp16
 70
     1
102
RTVSPropertyOp17
 70
     1
102
RTVSPropertyOp18
 70
     1
102
RTVSPropertyOp19
 70
     1
102
RTVSPropertyOp20
 70
     1
102
RTVSPropertyOp21
 70
     1
102
RTVSPropertyOp22
 70
     1
102
RTVSPropertyOp23
 70
     1
102
RTVSPropertyOp24
 70
     1
102
RTVSPropertyOp25
 70
     1
102
RTVSPropertyOp26
 70
     1
102
RTVSPropertyOp27
 70
     1
102
RTVSPropertyOp28
 70
     1
102
RTVSPropertyOp29
 70
     1
102
RTVSPropertyOp30
 70
     1
102
RTVSPropertyOp31
 70
     1
102
RTVSPropertyOp32
 70
     1
  0
XRECORD
  5
68
102
{ACAD_REACTORS
330
67
102
}
330
67
100
AcDbXrecord
280
     1
102
RTVSPropertyOp0
 70
     1
102
RTVSPropertyOp1
 70
     1
102
RTVSPropertyOp2
 70
     1
102
RTVSPropertyOp3
 70
     1
102
RTVSPropertyOp4
 70
     1
102
RTVSPropertyOp5
 70
     1
102
RTVSPropertyOp6
 70
     1
102
RTVSPropertyOp7
 70
     1
102
RTVSPropertyOp8
 70
     1
102
RTVSPropertyOp9
 70
     1
102
RTVSPropertyOp10
 70
     1
102
RTVSPropertyOp11
 70
     1
102
RTVSPropertyOp12
 70
     1
102
RTVSPropertyOp13
 70
     1
102
RTVSPropertyOp14
 70
     1
102
RTVSPropertyOp15
 70
     1
102
RTVSPropertyOp16
 70
     1
102
RTVSPropertyOp17
 70
     1
102
RTVSPropertyOp18
 70
     1
102
RTVSPropertyOp19
 70
     1
102
RTVSPropertyOp20
 70
     1
102
RTVSPropertyOp21
 70
     1
102
RTVSPropertyOp22
 70
     1
102
RTVSPropertyOp23
 70
     1
102
RTVSPropertyOp24
 70
     1
102
RTVSPropertyOp25
 70
     1
102
RTVSPropertyOp26
 70
     1
102
RTVSPropertyOp27
 70
     1
102
RTVSPropertyOp28
 70
     1
102
RTVSPropertyOp29
 70
     1
102
RTVSPropertyOp30
 70
     1
102
RTVSPropertyOp31
 70
     1
102
RTVSPropertyOp32
 70
     1
  0
XRECORD
  5
5E
102
{ACAD_REACTORS
330
5D
102
}
330
5D
100
AcDbXrecord
280
     1
102
RTVSPropertyOp0
 70
     1
102
RTVSPropertyOp1
 70
     1
102
RTVSPropertyOp2
 70
     1
102
RTVSPropertyOp3
 70
     1
102
RTVSPropertyOp4
 70
     1
102
RTVSPropertyOp5
 70
     1
102
RTVSPropertyOp6
 70
     1
102
RTVSPropertyOp7
 70
     1
102
RTVSPropertyOp8
 70
     1
102
RTVSPropertyOp9
 70
     1
102
RTVSPropertyOp10
 70
     1
102
RTVSPropertyOp11
 70
     1
102
RTVSPropertyOp12
 70
     1
102
RTVSPropertyOp13
 70
     1
102
RTVSPropertyOp14
 70
     1
102
RTVSPropertyOp15
 70
     1
102
RTVSPropertyOp16
 70
     1
102
RTVSPropertyOp17
 70
     1
102
RTVSPropertyOp18
 70
     1
102
RTVSPropertyOp19
 70
     1
102
RTVSPropertyOp20
 70
     1
102
RTVSPropertyOp21
 70
     1
102
RTVSPropertyOp22
 70
     1
102
RTVSPropertyOp23
 70
     1
102
RTVSPropertyOp24
 70
     1
102
RTVSPropertyOp25
 70
     1
102
RTVSPropertyOp26
 70
     1
102
RTVSPropertyOp27
 70
     1
102
RTVSPropertyOp28
 70
     1
102
RTVSPropertyOp29
 70
     1
102
RTVSPropertyOp30
 70
     1
102
RTVSPropertyOp31
 70
     1
102
RTVSPropertyOp32
 70
     1
  0
XRECORD
  5
66
102
{ACAD_REACTORS
330
65
102
}
330
65
100
AcDbXrecord
280
     1
102
RTVSPropertyOp0
 70
     1
102
RTVSPropertyOp1
 70
     1
102
RTVSPropertyOp2
 70
     1
102
RTVSPropertyOp3
 70
     1
102
RTVSPropertyOp4
 70
     1
102
RTVSPropertyOp5
 70
     1
102
RTVSPropertyOp6
 70
     1
102
RTVSPropertyOp7
 70
     1
102
RTVSPropertyOp8
 70
     1
102
RTVSPropertyOp9
 70
     1
102
RTVSPropertyOp10
 70
     1
102
RTVSPropertyOp11
 70
     1
102
RTVSPropertyOp12
 70
     1
102
RTVSPropertyOp13
 70
     1
102
RTVSPropertyOp14
 70
     1
102
RTVSPropertyOp15
 70
     1
102
RTVSPropertyOp16
 70
     1
102
RTVSPropertyOp17
 70
     1
102
RTVSPropertyOp18
 70
     1
102
RTVSPropertyOp19
 70
     1
102
RTVSPropertyOp20
 70
     1
102
RTVSPropertyOp21
 70
     1
102
RTVSPropertyOp22
 70
     1
102
RTVSPropertyOp23
 70
     1
102
RTVSPropertyOp24
 70
     1
102
RTVSPropertyOp25
 70
     1
102
RTVSPropertyOp26
 70
     1
102
RTVSPropertyOp27
 70
     1
102
RTVSPropertyOp28
 70
     1
102
RTVSPropertyOp29
 70
     1
102
RTVSPropertyOp30
 70
     1
102
RTVSPropertyOp31
 70
     1
102
RTVSPropertyOp32
 70
     1
  0
ENDSEC
  0
EOF
