  0
SECTION
  2
HEADER
  9
$ACADVER
  1
AC1021
  9
$ACADMAINTVER
 70
    25
  9
$DWGCODEPAGE
  3
ANSI_1252
  9
$INSBASE
 10
0.0
 20
0.0
 30
0.0
  9
$EXTMIN
 10
-14.00225
 20
-12.48441
 30
0.0
  9
$EXTMAX
 10
-5.99775
 20
-7.51553
 30
0.0
  9
$LIMMIN
 10
0.0
 20
0.0
  9
$LIMMAX
 10
12.0
 20
9.0
  9
$ORTHOMODE
 70
     0
  9
$REGENMODE
 70
     1
  9
$FILLMODE
 70
     1
  9
$QTEXTMODE
 70
     0
  9
$MIRRTEXT
 70
     1
  9
$LTSCALE
 40
1.0
  9
$ATTMODE
 70
     1
  9
$TEXTSIZE
 40
0.2
  9
$TRACEWID
 40
0.05
  9
$TEXTSTYLE
  7
Standard
  9
$CLAYER
  8
0
  9
$CELTYPE
  6
ByLayer
  9
$CECOLOR
 62
   256
  9
$CELTSCALE
 40
1.0
  9
$DISPSILH
 70
     0
  9
$DIMSCALE
 40
1.0
  9
$DIMASZ
 40
0.18
  9
$DIMEXO
 40
0.0625
  9
$DIMDLI
 40
0.38
  9
$DIMRND
 40
0.0
  9
$DIMDLE
 40
0.0
  9
$DIMEXE
 40
0.18
  9
$DIMTP
 40
0.0
  9
$DIMTM
 40
0.0
  9
$DIMTXT
 40
0.18
  9
$DIMCEN
 40
0.09
  9
$DIMTSZ
 40
0.0
  9
$DIMTOL
 70
     0
  9
$DIMLIM
 70
     0
  9
$DIMTIH
 70
     1
  9
$DIMTOH
 70
     1
  9
$DIMSE1
 70
     0
  9
$DIMSE2
 70
     0
  9
$DIMTAD
 70
     0
  9
$DIMZIN
 70
     0
  9
$DIMBLK
  1

  9
$DIMASO
 70
     1
  9
$DIMSHO
 70
     1
  9
$DIMPOST
  1

  9
$DIMAPOST
  1

  9
$DIMALT
 70
     0
  9
$DIMALTD
 70
     2
  9
$DIMALTF
 40
25.4
  9
$DIMLFAC
 40
1.0
  9
$DIMTOFL
 70
     0
  9
$DIMTVP
 40
0.0
  9
$DIMTIX
 70
     0
  9
$DIMSOXD
 70
     0
  9
$DIMSAH
 70
     0
  9
$DIMBLK1
  1

  9
$DIMBLK2
  1

  9
$DIMSTYLE
  2
Standard
  9
$DIMCLRD
 70
     0
  9
$DIMCLRE
 70
     0
  9
$DIMCLRT
 70
     0
  9
$DIMTFAC
 40
1.0
  9
$DIMGAP
 40
0.09
  9
$DIMJUST
 70
     0
  9
$DIMSD1
 70
     0
  9
$DIMSD2
 70
     0
  9
$DIMTOLJ
 70
     1
  9
$DIMTZIN
 70
     0
  9
$DIMALTZ
 70
     0
  9
$DIMALTTZ
 70
     0
  9
$DIMUPT
 70
     0
  9
$DIMDEC
 70
     4
  9
$DIMTDEC
 70
     4
  9
$DIMALTU
 70
     2
  9
$DIMALTTD
 70
     2
  9
$DIMTXSTY
  7
Standard
  9
$DIMAUNIT
 70
     0
  9
$DIMADEC
 70
     0
  9
$DIMALTRND
 40
0.0
  9
$DIMAZIN
 70
     0
  9
$DIMDSEP
 70
    46
  9
$DIMATFIT
 70
     3
  9
$DIMFRAC
 70
     0
  9
$DIMLDRBLK
  1

  9
$DIMLUNIT
 70
     2
  9
$DIMLWD
 70
    -2
  9
$DIMLWE
 70
    -2
  9
$DIMTMOVE
 70
     0
  9
$DIMFXL
 40
1.0
  9
$DIMFXLON
 70
     0
  9
$DIMJOGANG
 40
0.7853981633974483
  9
$DIMTFILL
 70
     0
  9
$DIMTFILLCLR
 70
     0
  9
$DIMARCSYM
 70
     0
  9
$DIMLTYPE
  6

  9
$DIMLTEX1
  6

  9
$DIMLTEX2
  6

  9
$LUNITS
 70
     2
  9
$LUPREC
 70
     4
  9
$SKETCHINC
 40
0.1
  9
$FILLETRAD
 40
0.5
  9
$AUNITS
 70
     0
  9
$AUPREC
 70
     0
  9
$MENU
  1
.
  9
$ELEVATION
 40
0.0
  9
$PELEVATION
 40
0.0
  9
$THICKNESS
 40
0.0
  9
$LIMCHECK
 70
     0
  9
$CHAMFERA
 40
0.5
  9
$CHAMFERB
 40
0.5
  9
$CHAMFERC
 40
1.0
  9
$CHAMFERD
 40
0.0
  9
$SKPOLY
 70
     0
  9
$TDCREATE
 40
2460554.904387604
  9
$TDUCREATE
 40
2460554.862720937
  9
$TDUPDATE
 40
2460554.904387651
  9
$TDUUPDATE
 40
2460554.862720984
  9
$TDINDWG
 40
0.0000000116
  9
$TDUSRTIMER
 40
0.0000000116
  9
$USRTIMER
 70
     1
  9
$ANGBASE
 50
0.0
  9
$ANGDIR
 70
     0
  9
$PDMODE
 70
     0
  9
$PDSIZE
 40
0.0
  9
$PLINEWID
 40
0.0
  9
$SPLFRAME
 70
     0
  9
$SPLINETYPE
 70
     6
  9
$SPLINESEGS
 70
     8
  9
$HANDSEED
  5
6F
  9
$SURFTAB1
 70
     6
  9
$SURFTAB2
 70
     6
  9
$SURFTYPE
 70
     6
  9
$SURFU
 70
     6
  9
$SURFV
 70
     6
  9
$UCSBASE
  2

  9
$UCSNAME
  2

  9
$UCSORG
 10
0.0
 20
0.0
 30
0.0
  9
$UCSXDIR
 10
1.0
 20
0.0
 30
0.0
  9
$UCSYDIR
 10
0.0
 20
1.0
 30
0.0
  9
$UCSORTHOREF
  2

  9
$UCSORTHOVIEW
 70
     0
  9
$UCSORGTOP
 10
0.0
 20
0.0
 30
0.0
  9
$UCSORGBOTTOM
 10
0.0
 20
0.0
 30
0.0
  9
$UCSORGLEFT
 10
0.0
 20
0.0
 30
0.0
  9
$UCSORGRIGHT
 10
0.0
 20
0.0
 30
0.0
  9
$UCSORGFRONT
 10
0.0
 20
0.0
 30
0.0
  9
$UCSORGBACK
 10
0.0
 20
0.0
 30
0.0
  9
$PUCSBASE
  2

  9
$PUCSNAME
  2

  9
$PUCSORG
 10
0.0
 20
0.0
 30
0.0
  9
$PUCSXDIR
 10
1.0
 20
0.0
 30
0.0
  9
$PUCSYDIR
 10
0.0
 20
1.0
 30
0.0
  9
$PUCSORTHOREF
  2

  9
$PUCSORTHOVIEW
 70
     0
  9
$PUCSORGTOP
 10
0.0
 20
0.0
 30
0.0
  9
$PUCSORGBOTTOM
 10
0.0
 20
0.0
 30
0.0
  9
$PUCSORGLEFT
 10
0.0
 20
0.0
 30
0.0
  9
$PUCSORGRIGHT
 10
0.0
 20
0.0
 30
0.0
  9
$PUCSORGFRONT
 10
0.0
 20
0.0
 30
0.0
  9
$PUCSORGBACK
 10
0.0
 20
0.0
 30
0.0
  9
$USERI1
 70
     0
  9
$USERI2
 70
     0
  9
$USERI3
 70
     0
  9
$USERI4
 70
     0
  9
$USERI5
 70
     0
  9
$USERR1
 40
0.0
  9
$USERR2
 40
0.0
  9
$USERR3
 40
0.0
  9
$USERR4
 40
0.0
  9
$USERR5
 40
0.0
  9
$WORLDVIEW
 70
     1
  9
$SHADEDGE
 70
     3
  9
$SHADEDIF
 70
    70
  9
$TILEMODE
 70
     1
  9
$MAXACTVP
 70
    64
  9
$PINSBASE
 10
0.0
 20
0.0
 30
0.0
  9
$PLIMCHECK
 70
     0
  9
$PEXTMIN
 10
1.000000000000000E+20
 20
1.000000000000000E+20
 30
1.000000000000000E+20
  9
$PEXTMAX
 10
-1.000000000000000E+20
 20
-1.000000000000000E+20
 30
-1.000000000000000E+20
  9
$PLIMMIN
 10
0.0
 20
0.0
  9
$PLIMMAX
 10
12.0
 20
9.0
  9
$UNITMODE
 70
     0
  9
$VISRETAIN
 70
     1
  9
$PLINEGEN
 70
     0
  9
$PSLTSCALE
 70
     1
  9
$TREEDEPTH
 70
  3020
  9
$CMLSTYLE
  2
Standard
  9
$CMLJUST
 70
     0
  9
$CMLSCALE
 40
1.0
  9
$PROXYGRAPHICS
 70
     1
  9
$MEASUREMENT
 70
     0
  9
$CELWEIGHT
370
    -1
  9
$ENDCAPS
280
     0
  9
$JOINSTYLE
280
     0
  9
$LWDISPLAY
290
     0
  9
$INSUNITS
 70
     5
  9
$HYPERLINKBASE
  1

  9
$STYLESHEET
  1

  9
$XEDIT
290
     1
  9
$CEPSNTYPE
380
     0
  9
$PSTYLEMODE
290
     1
  9
$FINGERPRINTGUID
  2
{2AEED42E-C2EE-4D4E-935C-ACF754443F11}
  9
$VERSIONGUID
  2
{FAEB1C32-E019-11D5-929B-00C0DF256EC4}
  9
$EXTNAMES
290
     1
  9
$PSVPSCALE
 40
0.0
  9
$OLESTARTUP
290
     0
  9
$SORTENTS
280
   127
  9
$INDEXCTL
280
     0
  9
$HIDETEXT
280
     1
  9
$XCLIPFRAME
290
     0
  9
$HALOGAP
280
     0
  9
$OBSCOLOR
 70
   257
  9
$OBSLTYPE
280
     0
  9
$INTERSECTIONDISPLAY
280
     0
  9
$INTERSECTIONCOLOR
 70
   257
  9
$DIMASSOC
280
     2
  9
$PROJECTNAME
  1

  9
$CAMERADISPLAY
290
     0
  9
$LENSLENGTH
 40
50.0
  9
$CAMERAHEIGHT
 40
0.0
  9
$STEPSPERSEC
 40
2.0
  9
$STEPSIZE
 40
6.0
  9
$3DDWFPREC
 40
2.0
  9
$PSOLWIDTH
 40
0.25
  9
$PSOLHEIGHT
 40
4.0
  9
$LOFTANG1
 40
1.570796326794897
  9
$LOFTANG2
 40
1.570796326794897
  9
$LOFTMAG1
 40
0.0
  9
$LOFTMAG2
 40
0.0
  9
$LOFTPARAM
 70
     7
  9
$LOFTNORMALS
280
     1
  9
$LATITUDE
 40
37.795
  9
$LONGITUDE
 40
-122.394
  9
$NORTHDIRECTION
 40
0.0
  9
$TIMEZONE
 70
 -8000
  9
$LIGHTGLYPHDISPLAY
280
     1
  9
$TILEMODELIGHTSYNCH
280
     1
  9
$SOLIDHIST
280
     1
  9
$SHOWHIST
280
     1
  9
$DWFFRAME
280
     2
  9
$DGNFRAME
280
     2
  9
$REALWORLDSCALE
290
     1
  9
$INTERFERECOLOR
 62
   256
  9
$CSHADOW
280
     0
  9
$SHADOWPLANELOCATION
 40
0.0
  0
ENDSEC
  0
SECTION
  2
CLASSES
  0
CLASS
  1
ACDBDICTIONARYWDFLT
  2
AcDbDictionaryWithDefault
  3
ObjectDBX Classes
 90
        0
 91
        4
280
     0
281
     0
  0
CLASS
  1
VISUALSTYLE
  2
AcDbVisualStyle
  3
ObjectDBX Classes
 90
     4095
 91
        4
280
     0
281
     0
  0
CLASS
  1
MATERIAL
  2
AcDbMaterial
  3
ObjectDBX Classes
 90
     1153
 91
        4
280
     0
281
     0
  0
ENDSEC
  0
SECTION
  2
TABLES
  0
TABLE
  2
VPORT
  5
8
330
0
100
AcDbSymbolTable
 70
     1
  0
VPORT
  5
29
330
8
100
AcDbSymbolTableRecord
100
AcDbViewportTableRecord
  2
*Active
 70
     0
 10
0.0
 20
0.0
 11
1.0
 21
1.0
 12
10.42990654205607
 22
4.5
 13
0.0
 23
0.0
 14
0.5
 24
0.5
 15
0.5
 25
0.5
 16
0.0
 26
0.0
 36
1.0
 17
0.0
 27
0.0
 37
0.0
 40
9.0
 41
1.972972972850329
 42
50.0
 43
0.0
 44
0.0
 50
0.0
 51
0.0
 71
     0
 72
   100
 73
     1
 74
     3
 75
     0
 76
     0
 77
     0
 78
     0
281
     0
 65
     1
110
0.0
120
0.0
130
0.0
111
1.0
121
0.0
131
0.0
112
0.0
122
1.0
132
0.0
 79
     0
146
0.0
 60
     3
 61
     5
292
     1
282
     1
141
0.0
142
0.0
 63
   250
  0
ENDTAB
  0
TABLE
  2
LTYPE
  5
5
330
0
100
AcDbSymbolTable
 70
     1
  0
LTYPE
  5
14
330
5
100
AcDbSymbolTableRecord
100
AcDbLinetypeTableRecord
  2
ByBlock
 70
     0
  3

 72
    65
 73
     0
 40
0.0
  0
LTYPE
  5
15
330
5
100
AcDbSymbolTableRecord
100
AcDbLinetypeTableRecord
  2
ByLayer
 70
     0
  3

 72
    65
 73
     0
 40
0.0
  0
LTYPE
  5
16
330
5
100
AcDbSymbolTableRecord
100
AcDbLinetypeTableRecord
  2
Continuous
 70
     0
  3
Solid line
 72
    65
 73
     0
 40
0.0
  0
ENDTAB
  0
TABLE
  2
LAYER
  5
2
330
0
100
AcDbSymbolTable
 70
     2
  0
LAYER
  5
10
330
2
100
AcDbSymbolTableRecord
100
AcDbLayerTableRecord
  2
0
 70
     0
 62
     7
  6
Continuous
370
    -3
390
F
347
3E
  0
LAYER
  5
40
330
2
100
AcDbSymbolTableRecord
100
AcDbLayerTableRecord
  2
Layer 1
 70
     0
 62
     7
  6
Continuous
370
    -3
390
F
347
3E
  0
ENDTAB
  0
TABLE
  2
STYLE
  5
3
330
0
100
AcDbSymbolTable
 70
     1
  0
STYLE
  5
11
330
3
100
AcDbSymbolTableRecord
100
AcDbTextStyleTableRecord
  2
Standard
 70
     0
 40
0.0
 41
1.0
 50
0.0
 71
     0
 42
0.2
  3
txt
  4

  0
ENDTAB
  0
TABLE
  2
VIEW
  5
6
330
0
100
AcDbSymbolTable
 70
     0
  0
ENDTAB
  0
TABLE
  2
UCS
  5
7
330
0
100
AcDbSymbolTable
 70
     0
  0
ENDTAB
  0
TABLE
  2
APPID
  5
9
330
0
100
AcDbSymbolTable
 70
     2
  0
APPID
  5
12
330
9
100
AcDbSymbolTableRecord
100
AcDbRegAppTableRecord
  2
ACAD
 70
     0
  0
APPID
  5
3F
330
9
100
AcDbSymbolTableRecord
100
AcDbRegAppTableRecord
  2
ODA
 70
     0
  0
ENDTAB
  0
TABLE
  2
DIMSTYLE
  5
A
330
0
100
AcDbSymbolTable
 70
     1
100
AcDbDimStyleTable
  0
DIMSTYLE
105
27
330
A
100
AcDbSymbolTableRecord
100
AcDbDimStyleTableRecord
  2
Standard
 70
     0
178
     0
340
11
  0
ENDTAB
  0
TABLE
  2
BLOCK_RECORD
  5
1
330
0
100
AcDbSymbolTable
 70
     1
  0
BLOCK_RECORD
  5
1F
330
1
100
AcDbSymbolTableRecord
100
AcDbBlockTableRecord
  2
*Model_Space
340
22
 70
     0
280
     1
281
     0
  0
BLOCK_RECORD
  5
1B
330
1
100
AcDbSymbolTableRecord
100
AcDbBlockTableRecord
  2
*Paper_Space
340
1E
 70
     0
280
     1
281
     0
  0
BLOCK_RECORD
  5
23
330
1
100
AcDbSymbolTableRecord
100
AcDbBlockTableRecord
  2
*Paper_Space0
340
26
 70
     0
280
     1
281
     0
  0
ENDTAB
  0
ENDSEC
  0
SECTION
  2
BLOCKS
  0
BLOCK
  5
20
330
1F
100
AcDbEntity
  8
0
100
AcDbBlockBegin
  2
*Model_Space
 70
     0
 10
0.0
 20
0.0
 30
0.0
  3
*Model_Space
  1

  0
ENDBLK
  5
21
330
1F
100
AcDbEntity
  8
0
100
AcDbBlockEnd
  0
BLOCK
  5
1C
330
1B
100
AcDbEntity
 67
     1
  8
0
100
AcDbBlockBegin
  2
*Paper_Space
 70
     0
 10
0.0
 20
0.0
 30
0.0
  3
*Paper_Space
  1

  0
ENDBLK
  5
1D
330
1B
100
AcDbEntity
 67
     1
  8
0
100
AcDbBlockEnd
  0
BLOCK
  5
24
330
23
100
AcDbEntity
  8
0
100
AcDbBlockBegin
  2
*Paper_Space0
 70
     0
 10
0.0
 20
0.0
 30
0.0
  3
*Paper_Space0
  1

  0
ENDBLK
  5
25
330
23
100
AcDbEntity
  8
0
100
AcDbBlockEnd
  0
ENDSEC
  0
SECTION
  2
ENTITIES
  0
SPLINE
  5
41
330
1F
100
AcDbEntity
  8
Layer 1
370
    53
100
AcDbSpline
210
0.0
220
0.0
230
1.0
 70
    11
 71
     3
 72
    20
 73
    16
 74
     0
 42
0.0000000001
 43
0.0000000001
 12
1.0
 22
0.0
 32
0.0
 13
1.0
 23
0.0
 33
0.0
 40
0.0
 40
0.0
 40
0.0
 40
0.0
 40
0.2
 40
0.2
 40
0.2
 40
0.2
 40
0.4
 40
0.4
 40
0.4
 40
0.4
 40
0.6
 40
0.6
 40
0.6
 40
0.6
 40
1.0
 40
1.0
 40
1.0
 40
1.0
 10
-10.33376
 20
-8.24199
 30
0.0
 10
-10.33376
 20
-8.0625
 30
0.0
 10
-10.18825
 20
-7.91699
 30
0.0
 10
-10.00876
 20
-7.91699
 30
0.0
 10
-10.00876
 20
-7.91699
 30
0.0
 10
-9.82927
 20
-7.91699
 30
0.0
 10
-9.68376
 20
-8.0625
 30
0.0
 10
-9.68376
 20
-8.24199
 30
0.0
 10
-9.68376
 20
-8.24199
 30
0.0
 10
-9.68376
 20
-8.42148
 30
0.0
 10
-9.82927
 20
-8.56699
 30
0.0
 10
-10.00876
 20
-8.56699
 30
0.0
 10
-10.00876
 20
-8.56699
 30
0.0
 10
-10.18825
 20
-8.56699
 30
0.0
 10
-10.33376
 20
-8.42148
 30
0.0
 10
-10.33376
 20
-8.24199
 30
0.0
  0
SPLINE
  5
42
330
1F
100
AcDbEntity
  8
Layer 1
370
    53
100
AcDbSpline
210
0.0
220
0.0
230
1.0
 70
    11
 71
     3
 72
    20
 73
    16
 74
     0
 42
0.0000000001
 43
0.0000000001
 12
1.0
 22
0.0
 32
0.0
 13
1.0
 23
0.0
 33
0.0
 40
0.0
 40
0.0
 40
0.0
 40
0.0
 40
0.2
 40
0.2
 40
0.2
 40
0.2
 40
0.4
 40
0.4
 40
0.4
 40
0.4
 40
0.6
 40
0.6
 40
0.6
 40
0.6
 40
1.0
 40
1.0
 40
1.0
 40
1.0
 10
-8.83376
 20
-8.24199
 30
0.0
 10
-8.83376
 20
-8.0625
 30
0.0
 10
-8.68825
 20
-7.91699
 30
0.0
 10
-8.50876
 20
-7.91699
 30
0.0
 10
-8.50876
 20
-7.91699
 30
0.0
 10
-8.32927
 20
-7.91699
 30
0.0
 10
-8.18376
 20
-8.0625
 30
0.0
 10
-8.18376
 20
-8.24199
 30
0.0
 10
-8.18376
 20
-8.24199
 30
0.0
 10
-8.18376
 20
-8.42148
 30
0.0
 10
-8.32927
 20
-8.56699
 30
0.0
 10
-8.50876
 20
-8.56699
 30
0.0
 10
-8.50876
 20
-8.56699
 30
0.0
 10
-8.68825
 20
-8.56699
 30
0.0
 10
-8.83376
 20
-8.42148
 30
0.0
 10
-8.83376
 20
-8.24199
 30
0.0
  0
SPLINE
  5
43
330
1F
100
AcDbEntity
  8
Layer 1
 62
     5
370
    53
100
AcDbSpline
210
0.0
220
0.0
230
1.0
 70
     8
 71
     3
 72
    20
 73
    16
 74
     0
 42
0.0000000001
 43
0.0000000001
 12
1.0
 22
0.0
 32
0.0
 13
1.0
 23
0.0
 33
0.0
 40
0.0
 40
0.0
 40
0.0
 40
0.0
 40
0.2
 40
0.2
 40
0.2
 40
0.2
 40
0.4
 40
0.4
 40
0.4
 40
0.4
 40
0.6
 40
0.6
 40
0.6
 40
0.6
 40
1.0
 40
1.0
 40
1.0
 40
1.0
 10
-7.2942
 20
-11.10084
 30
0.0
 10
-7.44464
 20
-11.06854
 30
0.0
 10
-7.59134
 20
-11.01823
 30
0.0
 10
-7.71233
 20
-10.97243
 30
0.0
 10
-7.71233
 20
-10.97243
 30
0.0
 10
-7.76681
 20
-10.9518
 30
0.0
 10
-7.87364
 20
-10.91527
 30
0.0
 10
-7.86488
 20
-10.84316
 30
0.0
 10
-7.86488
 20
-10.84316
 30
0.0
 10
-7.73153
 20
-10.78683
 30
0.0
 10
-7.58114
 20
-10.85954
 30
0.0
 10
-7.44536
 20
-10.86925
 30
0.0
 10
-7.44536
 20
-10.86925
 30
0.0
 10
-7.38509
 20
-10.87355
 30
0.0
 10
-7.32352
 20
-10.87199
 30
0.0
 10
-7.26221
 20
-10.86494
 30
0.0
  0
SPLINE
  5
44
330
1F
100
AcDbEntity
  8
Layer 1
 62
     5
370
    53
100
AcDbSpline
210
0.0
220
0.0
230
1.0
 70
     8
 71
     3
 72
    20
 73
    16
 74
     0
 42
0.0000000001
 43
0.0000000001
 12
1.0
 22
0.0
 32
0.0
 13
1.0
 23
0.0
 33
0.0
 40
0.0
 40
0.0
 40
0.0
 40
0.0
 40
0.2
 40
0.2
 40
0.2
 40
0.2
 40
0.4
 40
0.4
 40
0.4
 40
0.4
 40
0.6
 40
0.6
 40
0.6
 40
0.6
 40
1.0
 40
1.0
 40
1.0
 40
1.0
 10
-7.58146
 20
-11.64598
 30
0.0
 10
-7.69893
 20
-11.5991
 30
0.0
 10
-7.80965
 20
-11.5283
 30
0.0
 10
-7.89388
 20
-11.45948
 30
0.0
 10
-7.89388
 20
-11.45948
 30
0.0
 10
-7.961
 20
-11.40463
 30
0.0
 10
-8.22702
 20
-11.18309
 30
0.0
 10
-8.15749
 20
-11.07076
 30
0.0
 10
-8.15749
 20
-11.07076
 30
0.0
 10
-8.10082
 20
-10.97909
 30
0.0
 10
-7.79533
 20
-11.20437
 30
0.0
 10
-7.73066
 20
-11.24446
 30
0.0
 10
-7.73066
 20
-11.24446
 30
0.0
 10
-7.64511
 20
-11.29748
 30
0.0
 10
-7.55219
 20
-11.33807
 30
0.0
 10
-7.45568
 20
-11.36681
 30
0.0
  0
SPLINE
  5
45
330
1F
100
AcDbEntity
  8
Layer 1
 62
     5
370
    53
100
AcDbSpline
210
0.0
220
0.0
230
1.0
 70
     8
 71
     3
 72
    20
 73
    16
 74
     0
 42
0.0000000001
 43
0.0000000001
 12
1.0
 22
0.0
 32
0.0
 13
1.0
 23
0.0
 33
0.0
 40
0.0
 40
0.0
 40
0.0
 40
0.0
 40
0.2
 40
0.2
 40
0.2
 40
0.2
 40
0.4
 40
0.4
 40
0.4
 40
0.4
 40
0.6
 40
0.6
 40
0.6
 40
0.6
 40
1.0
 40
1.0
 40
1.0
 40
1.0
 10
-8.62341
 20
-11.69433
 30
0.0
 10
-8.63554
 20
-11.68367
 30
0.0
 10
-8.64806
 20
-11.66981
 30
0.0
 10
-8.66154
 20
-11.65164
 30
0.0
 10
-8.66154
 20
-11.65164
 30
0.0
 10
-8.71842
 20
-11.57501
 30
0.0
 10
-9.15229
 20
-11.07581
 30
0.0
 10
-9.0051
 20
-11.01328
 30
0.0
 10
-9.0051
 20
-11.01328
 30
0.0
 10
-8.92319
 20
-10.97849
 30
0.0
 10
-8.72375
 20
-11.08324
 30
0.0
 10
-8.6552
 20
-11.12979
 30
0.0
 10
-8.6552
 20
-11.12979
 30
0.0
 10
-8.50009
 20
-11.23516
 30
0.0
 10
-8.38147
 20
-11.38109
 30
0.0
 10
-8.24987
 20
-11.51225
 30
0.0
  0
SPLINE
  5
46
330
1F
100
AcDbEntity
  8
Layer 1
 62
     5
370
    53
100
AcDbSpline
210
0.0
220
0.0
230
1.0
 70
     8
 71
     3
 72
    20
 73
    16
 74
     0
 42
0.0000000001
 43
0.0000000001
 12
1.0
 22
0.0
 32
0.0
 13
1.0
 23
0.0
 33
0.0
 40
0.0
 40
0.0
 40
0.0
 40
0.0
 40
0.2
 40
0.2
 40
0.2
 40
0.2
 40
0.4
 40
0.4
 40
0.4
 40
0.4
 40
0.6
 40
0.6
 40
0.6
 40
0.6
 40
1.0
 40
1.0
 40
1.0
 40
1.0
 10
-12.72111
 20
-11.10407
 30
0.0
 10
-12.56534
 20
-11.07195
 30
0.0
 10
-12.41277
 20
-11.01978
 30
0.0
 10
-12.2877
 20
-10.97243
 30
0.0
 10
-12.2877
 20
-10.97243
 30
0.0
 10
-12.23319
 20
-10.9518
 30
0.0
 10
-12.12635
 20
-10.91527
 30
0.0
 10
-12.13511
 20
-10.84316
 30
0.0
 10
-12.13511
 20
-10.84316
 30
0.0
 10
-12.26846
 20
-10.78683
 30
0.0
 10
-12.41885
 20
-10.85954
 30
0.0
 10
-12.55467
 20
-10.86925
 30
0.0
 10
-12.55467
 20
-10.86925
 30
0.0
 10
-12.61493
 20
-10.87355
 30
0.0
 10
-12.6765
 20
-10.87199
 30
0.0
 10
-12.73781
 20
-10.86494
 30
0.0
  0
SPLINE
  5
47
330
1F
100
AcDbEntity
  8
Layer 1
 62
     5
370
    53
100
AcDbSpline
210
0.0
220
0.0
230
1.0
 70
     8
 71
     3
 72
    20
 73
    16
 74
     0
 42
0.0000000001
 43
0.0000000001
 12
1.0
 22
0.0
 32
0.0
 13
1.0
 23
0.0
 33
0.0
 40
0.0
 40
0.0
 40
0.0
 40
0.0
 40
0.2
 40
0.2
 40
0.2
 40
0.2
 40
0.4
 40
0.4
 40
0.4
 40
0.4
 40
0.6
 40
0.6
 40
0.6
 40
0.6
 40
1.0
 40
1.0
 40
1.0
 40
1.0
 10
-12.39829
 20
-11.63764
 30
0.0
 10
-12.28838
 20
-11.59094
 30
0.0
 10
-12.18549
 20
-11.52433
 30
0.0
 10
-12.10611
 20
-11.45948
 30
0.0
 10
-12.10611
 20
-11.45948
 30
0.0
 10
-12.03899
 20
-11.40463
 30
0.0
 10
-11.77297
 20
-11.18309
 30
0.0
 10
-11.84251
 20
-11.07076
 30
0.0
 10
-11.84251
 20
-11.07076
 30
0.0
 10
-11.8992
 20
-10.97909
 30
0.0
 10
-12.20468
 20
-11.20437
 30
0.0
 10
-12.26934
 20
-11.24446
 30
0.0
 10
-12.26934
 20
-11.24446
 30
0.0
 10
-12.34656
 20
-11.29233
 30
0.0
 10
-12.42981
 20
-11.33006
 30
0.0
 10
-12.51627
 20
-11.35809
 30
0.0
  0
SPLINE
  5
48
330
1F
100
AcDbEntity
  8
Layer 1
 62
     5
370
    53
100
AcDbSpline
210
0.0
220
0.0
230
1.0
 70
     8
 71
     3
 72
    20
 73
    16
 74
     0
 42
0.0000000001
 43
0.0000000001
 12
1.0
 22
0.0
 32
0.0
 13
1.0
 23
0.0
 33
0.0
 40
0.0
 40
0.0
 40
0.0
 40
0.0
 40
0.2
 40
0.2
 40
0.2
 40
0.2
 40
0.4
 40
0.4
 40
0.4
 40
0.4
 40
0.6
 40
0.6
 40
0.6
 40
0.6
 40
1.0
 40
1.0
 40
1.0
 40
1.0
 10
-11.38264
 20
-11.6994
 30
0.0
 10
-11.36862
 20
-11.68817
 30
0.0
 10
-11.35419
 20
-11.67283
 30
0.0
 10
-11.33845
 20
-11.65164
 30
0.0
 10
-11.33845
 20
-11.65164
 30
0.0
 10
-11.28157
 20
-11.57501
 30
0.0
 10
-10.8477
 20
-11.07581
 30
0.0
 10
-10.99489
 20
-11.01328
 30
0.0
 10
-10.99489
 20
-11.01328
 30
0.0
 10
-11.0768
 20
-10.97849
 30
0.0
 10
-11.27627
 20
-11.08324
 30
0.0
 10
-11.3448
 20
-11.12979
 30
0.0
 10
-11.3448
 20
-11.12979
 30
0.0
 10
-11.4999
 20
-11.23516
 30
0.0
 10
-11.61852
 20
-11.38109
 30
0.0
 10
-11.75013
 20
-11.51225
 30
0.0
  0
SPLINE
  5
49
330
1F
100
AcDbEntity
  8
Layer 1
370
    53
100
AcDbSpline
210
0.0
220
0.0
230
1.0
 70
    11
 71
     3
 72
   396
 73
   392
 74
     0
 42
0.0000000001
 43
0.0000000001
 12
1.0
 22
0.0
 32
0.0
 13
1.0
 23
0.0
 33
0.0
 40
0.0
 40
0.0
 40
0.0
 40
0.0
 40
0.0101010101010101
 40
0.0101010101010101
 40
0.0101010101010101
 40
0.0101010101010101
 40
0.0202020202020202
 40
0.0202020202020202
 40
0.0202020202020202
 40
0.0202020202020202
 40
0.0303030303030303
 40
0.0303030303030303
 40
0.0303030303030303
 40
0.0303030303030303
 40
0.0404040404040404
 40
0.0404040404040404
 40
0.0404040404040404
 40
0.0404040404040404
 40
0.0505050505050505
 40
0.0505050505050505
 40
0.0505050505050505
 40
0.0505050505050505
 40
0.0606060606060606
 40
0.0606060606060606
 40
0.0606060606060606
 40
0.0606060606060606
 40
0.0707070707070707
 40
0.0707070707070707
 40
0.0707070707070707
 40
0.0707070707070707
 40
0.0808080808080808
 40
0.0808080808080808
 40
0.0808080808080808
 40
0.0808080808080808
 40
0.0909090909090909
 40
0.0909090909090909
 40
0.0909090909090909
 40
0.0909090909090909
 40
0.101010101010101
 40
0.101010101010101
 40
0.101010101010101
 40
0.101010101010101
 40
0.1111111111111111
 40
0.1111111111111111
 40
0.1111111111111111
 40
0.1111111111111111
 40
0.1212121212121212
 40
0.1212121212121212
 40
0.1212121212121212
 40
0.1212121212121212
 40
0.1313131313131313
 40
0.1313131313131313
 40
0.1313131313131313
 40
0.1313131313131313
 40
0.1414141414141414
 40
0.1414141414141414
 40
0.1414141414141414
 40
0.1414141414141414
 40
0.1515151515151515
 40
0.1515151515151515
 40
0.1515151515151515
 40
0.1515151515151515
 40
0.1616161616161616
 40
0.1616161616161616
 40
0.1616161616161616
 40
0.1616161616161616
 40
0.1717171717171717
 40
0.1717171717171717
 40
0.1717171717171717
 40
0.1717171717171717
 40
0.1818181818181818
 40
0.1818181818181818
 40
0.1818181818181818
 40
0.1818181818181818
 40
0.1919191919191919
 40
0.1919191919191919
 40
0.1919191919191919
 40
0.1919191919191919
 40
0.202020202020202
 40
0.202020202020202
 40
0.202020202020202
 40
0.202020202020202
 40
0.2121212121212121
 40
0.2121212121212121
 40
0.2121212121212121
 40
0.2121212121212121
 40
0.2222222222222222
 40
0.2222222222222222
 40
0.2222222222222222
 40
0.2222222222222222
 40
0.2323232323232323
 40
0.2323232323232323
 40
0.2323232323232323
 40
0.2323232323232323
 40
0.2424242424242424
 40
0.2424242424242424
 40
0.2424242424242424
 40
0.2424242424242424
 40
0.2525252525252525
 40
0.2525252525252525
 40
0.2525252525252525
 40
0.2525252525252525
 40
0.2626262626262627
 40
0.2626262626262627
 40
0.2626262626262627
 40
0.2626262626262627
 40
0.2727272727272727
 40
0.2727272727272727
 40
0.2727272727272727
 40
0.2727272727272727
 40
0.2828282828282828
 40
0.2828282828282828
 40
0.2828282828282828
 40
0.2828282828282828
 40
0.2929292929292929
 40
0.2929292929292929
 40
0.2929292929292929
 40
0.2929292929292929
 40
0.303030303030303
 40
0.303030303030303
 40
0.303030303030303
 40
0.303030303030303
 40
0.3131313131313131
 40
0.3131313131313131
 40
0.3131313131313131
 40
0.3131313131313131
 40
0.3232323232323233
 40
0.3232323232323233
 40
0.3232323232323233
 40
0.3232323232323233
 40
0.3333333333333333
 40
0.3333333333333333
 40
0.3333333333333333
 40
0.3333333333333333
 40
0.3434343434343434
 40
0.3434343434343434
 40
0.3434343434343434
 40
0.3434343434343434
 40
0.3535353535353535
 40
0.3535353535353535
 40
0.3535353535353535
 40
0.3535353535353535
 40
0.3636363636363636
 40
0.3636363636363636
 40
0.3636363636363636
 40
0.3636363636363636
 40
0.3737373737373738
 40
0.3737373737373738
 40
0.3737373737373738
 40
0.3737373737373738
 40
0.3838383838383838
 40
0.3838383838383838
 40
0.3838383838383838
 40
0.3838383838383838
 40
0.3939393939393939
 40
0.3939393939393939
 40
0.3939393939393939
 40
0.3939393939393939
 40
0.404040404040404
 40
0.404040404040404
 40
0.404040404040404
 40
0.404040404040404
 40
0.4141414141414141
 40
0.4141414141414141
 40
0.4141414141414141
 40
0.4141414141414141
 40
0.4242424242424243
 40
0.4242424242424243
 40
0.4242424242424243
 40
0.4242424242424243
 40
0.4343434343434344
 40
0.4343434343434344
 40
0.4343434343434344
 40
0.4343434343434344
 40
0.4444444444444444
 40
0.4444444444444444
 40
0.4444444444444444
 40
0.4444444444444444
 40
0.4545454545454545
 40
0.4545454545454545
 40
0.4545454545454545
 40
0.4545454545454545
 40
0.4646464646464646
 40
0.4646464646464646
 40
0.4646464646464646
 40
0.4646464646464646
 40
0.4747474747474748
 40
0.4747474747474748
 40
0.4747474747474748
 40
0.4747474747474748
 40
0.4848484848484849
 40
0.4848484848484849
 40
0.4848484848484849
 40
0.4848484848484849
 40
0.494949494949495
 40
0.494949494949495
 40
0.494949494949495
 40
0.494949494949495
 40
0.5050505050505051
 40
0.5050505050505051
 40
0.5050505050505051
 40
0.5050505050505051
 40
0.5151515151515151
 40
0.5151515151515151
 40
0.5151515151515151
 40
0.5151515151515151
 40
0.5252525252525253
 40
0.5252525252525253
 40
0.5252525252525253
 40
0.5252525252525253
 40
0.5353535353535354
 40
0.5353535353535354
 40
0.5353535353535354
 40
0.5353535353535354
 40
0.5454545454545454
 40
0.5454545454545454
 40
0.5454545454545454
 40
0.5454545454545454
 40
0.5555555555555556
 40
0.5555555555555556
 40
0.5555555555555556
 40
0.5555555555555556
 40
0.5656565656565656
 40
0.5656565656565656
 40
0.5656565656565656
 40
0.5656565656565656
 40
0.5757575757575758
 40
0.5757575757575758
 40
0.5757575757575758
 40
0.5757575757575758
 40
0.5858585858585859
 40
0.5858585858585859
 40
0.5858585858585859
 40
0.5858585858585859
 40
0.5959595959595959
 40
0.5959595959595959
 40
0.5959595959595959
 40
0.5959595959595959
 40
0.6060606060606061
 40
0.6060606060606061
 40
0.6060606060606061
 40
0.6060606060606061
 40
0.6161616161616161
 40
0.6161616161616161
 40
0.6161616161616161
 40
0.6161616161616161
 40
0.6262626262626263
 40
0.6262626262626263
 40
0.6262626262626263
 40
0.6262626262626263
 40
0.6363636363636364
 40
0.6363636363636364
 40
0.6363636363636364
 40
0.6363636363636364
 40
0.6464646464646465
 40
0.6464646464646465
 40
0.6464646464646465
 40
0.6464646464646465
 40
0.6565656565656566
 40
0.6565656565656566
 40
0.6565656565656566
 40
0.6565656565656566
 40
0.6666666666666666
 40
0.6666666666666666
 40
0.6666666666666666
 40
0.6666666666666666
 40
0.6767676767676768
 40
0.6767676767676768
 40
0.6767676767676768
 40
0.6767676767676768
 40
0.6868686868686869
 40
0.6868686868686869
 40
0.6868686868686869
 40
0.6868686868686869
 40
0.696969696969697
 40
0.696969696969697
 40
0.696969696969697
 40
0.696969696969697
 40
0.7070707070707071
 40
0.7070707070707071
 40
0.7070707070707071
 40
0.7070707070707071
 40
0.7171717171717171
 40
0.7171717171717171
 40
0.7171717171717171
 40
0.7171717171717171
 40
0.7272727272727273
 40
0.7272727272727273
 40
0.7272727272727273
 40
0.7272727272727273
 40
0.7373737373737373
 40
0.7373737373737373
 40
0.7373737373737373
 40
0.7373737373737373
 40
0.7474747474747475
 40
0.7474747474747475
 40
0.7474747474747475
 40
0.7474747474747475
 40
0.7575757575757576
 40
0.7575757575757576
 40
0.7575757575757576
 40
0.7575757575757576
 40
0.7676767676767676
 40
0.7676767676767676
 40
0.7676767676767676
 40
0.7676767676767676
 40
0.7777777777777778
 40
0.7777777777777778
 40
0.7777777777777778
 40
0.7777777777777778
 40
0.7878787878787878
 40
0.7878787878787878
 40
0.7878787878787878
 40
0.7878787878787878
 40
0.797979797979798
 40
0.797979797979798
 40
0.797979797979798
 40
0.797979797979798
 40
0.8080808080808081
 40
0.8080808080808081
 40
0.8080808080808081
 40
0.8080808080808081
 40
0.8181818181818182
 40
0.8181818181818182
 40
0.8181818181818182
 40
0.8181818181818182
 40
0.8282828282828283
 40
0.8282828282828283
 40
0.8282828282828283
 40
0.8282828282828283
 40
0.8383838383838383
 40
0.8383838383838383
 40
0.8383838383838383
 40
0.8383838383838383
 40
0.8484848484848485
 40
0.8484848484848485
 40
0.8484848484848485
 40
0.8484848484848485
 40
0.8585858585858586
 40
0.8585858585858586
 40
0.8585858585858586
 40
0.8585858585858586
 40
0.8686868686868687
 40
0.8686868686868687
 40
0.8686868686868687
 40
0.8686868686868687
 40
0.8787878787878788
 40
0.8787878787878788
 40
0.8787878787878788
 40
0.8787878787878788
 40
0.8888888888888888
 40
0.8888888888888888
 40
0.8888888888888888
 40
0.8888888888888888
 40
0.898989898989899
 40
0.898989898989899
 40
0.898989898989899
 40
0.898989898989899
 40
0.9090909090909091
 40
0.9090909090909091
 40
0.9090909090909091
 40
0.9090909090909091
 40
0.9191919191919192
 40
0.9191919191919192
 40
0.9191919191919192
 40
0.9191919191919192
 40
0.9292929292929293
 40
0.9292929292929293
 40
0.9292929292929293
 40
0.9292929292929293
 40
0.9393939393939394
 40
0.9393939393939394
 40
0.9393939393939394
 40
0.9393939393939394
 40
0.9494949494949495
 40
0.9494949494949495
 40
0.9494949494949495
 40
0.9494949494949495
 40
0.9595959595959596
 40
0.9595959595959596
 40
0.9595959595959596
 40
0.9595959595959596
 40
0.9696969696969697
 40
0.9696969696969697
 40
0.9696969696969697
 40
0.9696969696969697
 40
0.9797979797979798
 40
0.9797979797979798
 40
0.9797979797979798
 40
0.9797979797979798
 40
1.0
 40
1.0
 40
1.0
 40
1.0
 10
-8.30876
 20
-8.94199
 30
0.0
 10
-8.30876
 20
-8.94199
 30
0.0
 10
-8.43517
 20
-8.94199
 30
0.0
 10
-8.43517
 20
-8.94199
 30
0.0
 10
-8.43517
 20
-8.94199
 30
0.0
 10
-8.43193
 20
-9.23765
 30
0.0
 10
-8.42852
 20
-9.49213
 30
0.0
 10
-8.42685
 20
-9.51399
 30
0.0
 10
-8.42685
 20
-9.51399
 30
0.0
 10
-8.40519
 20
-9.79697
 30
0.0
 10
-8.33074
 20
-10.07835
 30
0.0
 10
-8.12303
 20
-10.28335
 30
0.0
 10
-8.12303
 20
-10.28335
 30
0.0
 10
-7.91441
 20
-10.48928
 30
0.0
 10
-7.6937
 20
-10.57775
 30
0.0
 10
-7.39959
 20
-10.57611
 30
0.0
 10
-7.39959
 20
-10.57611
 30
0.0
 10
-7.26397
 20
-10.57535
 30
0.0
 10
-7.13231
 20
-10.52801
 30
0.0
 10
-7.01189
 20
-10.46899
 30
0.0
 10
-7.01189
 20
-10.46899
 30
0.0
 10
-6.91433
 20
-10.42114
 30
0.0
 10
-6.73733
 20
-10.34585
 30
0.0
 10
-6.67297
 20
-10.25482
 30
0.0
 10
-6.67297
 20
-10.25482
 30
0.0
 10
-6.5597
 20
-10.09462
 30
0.0
 10
-6.55972
 20
-9.86769
 30
0.0
 10
-6.30509
 20
-9.88632
 30
0.0
 10
-6.30509
 20
-9.88632
 30
0.0
 10
-6.18413
 20
-9.89516
 30
0.0
 10
-6.07499
 20
-9.96072
 30
0.0
 10
-6.04103
 20
-10.07461
 30
0.0
 10
-6.04103
 20
-10.07461
 30
0.0
 10
-6.00712
 20
-10.18845
 30
0.0
 10
-6.0256
 20
-10.31203
 30
0.0
 10
-6.08615
 20
-10.41443
 30
0.0
 10
-6.08615
 20
-10.41443
 30
0.0
 10
-6.13773
 20
-10.50169
 30
0.0
 10
-6.21111
 20
-10.53534
 30
0.0
 10
-6.30533
 20
-10.55912
 30
0.0
 10
-6.30533
 20
-10.55912
 30
0.0
 10
-6.40663
 20
-10.58471
 30
0.0
 10
-6.49522
 20
-10.536
 30
0.0
 10
-6.58967
 20
-10.55874
 30
0.0
 10
-6.58967
 20
-10.55874
 30
0.0
 10
-6.69482
 20
-10.58403
 30
0.0
 10
-6.79534
 20
-10.69714
 30
0.0
 10
-6.89027
 20
-10.74881
 30
0.0
 10
-6.89027
 20
-10.74881
 30
0.0
 10
-6.90164
 20
-10.755
 30
0.0
 10
-6.91318
 20
-10.76095
 30
0.0
 10
-6.92484
 20
-10.76669
 30
0.0
 10
-6.92484
 20
-10.76669
 30
0.0
 10
-7.02906
 20
-10.81793
 30
0.0
 10
-7.14516
 20
-10.85147
 30
0.0
 10
-7.24565
 20
-10.86269
 30
0.0
 10
-7.24565
 20
-10.86269
 30
0.0
 10
-7.26437
 20
-10.86589
 30
0.0
 10
-7.31741
 20
-10.89285
 30
0.0
 10
-7.33181
 20
-10.92725
 30
0.0
 10
-7.33181
 20
-10.92725
 30
0.0
 10
-7.35806
 20
-10.99009
 30
0.0
 10
-7.30697
 20
-11.03587
 30
0.0
 10
-7.29417
 20
-11.09683
 30
0.0
 10
-7.29417
 20
-11.09683
 30
0.0
 10
-7.11826
 20
-11.13862
 30
0.0
 10
-6.93718
 20
-11.15179
 30
0.0
 10
-6.78613
 20
-11.10433
 30
0.0
 10
-6.78613
 20
-11.10433
 30
0.0
 10
-6.70918
 20
-11.08015
 30
0.0
 10
-6.70403
 20
-11.04485
 30
0.0
 10
-6.65873
 20
-10.98479
 30
0.0
 10
-6.65873
 20
-10.98479
 30
0.0
 10
-6.5145
 20
-10.79356
 30
0.0
 10
-6.23444
 20
-10.79265
 30
0.0
 10
-6.11409
 20
-11.01323
 30
0.0
 10
-6.11409
 20
-11.01323
 30
0.0
 10
-6.06749
 20
-11.09863
 30
0.0
 10
-6.04582
 20
-11.2675
 30
0.0
 10
-6.08347
 20
-11.35627
 30
0.0
 10
-6.08347
 20
-11.35627
 30
0.0
 10
-6.1334
 20
-11.47398
 30
0.0
 10
-6.27566
 20
-11.51512
 30
0.0
 10
-6.39327
 20
-11.50753
 30
0.0
 10
-6.39327
 20
-11.50753
 30
0.0
 10
-6.4549
 20
-11.50354
 30
0.0
 10
-6.51956
 20
-11.48723
 30
0.0
 10
-6.57158
 20
-11.45289
 30
0.0
 10
-6.57158
 20
-11.45289
 30
0.0
 10
-6.62312
 20
-11.41884
 30
0.0
 10
-6.64328
 20
-11.36302
 30
0.0
 10
-6.69428
 20
-11.35504
 30
0.0
 10
-6.69428
 20
-11.35504
 30
0.0
 10
-6.76157
 20
-11.34457
 30
0.0
 10
-6.88937
 20
-11.40677
 30
0.0
 10
-6.96341
 20
-11.41411
 30
0.0
 10
-6.96341
 20
-11.41411
 30
0.0
 10
-7.05058
 20
-11.4227
 30
0.0
 10
-7.13867
 20
-11.42204
 30
0.0
 10
-7.22575
 20
-11.4127
 30
0.0
 10
-7.22575
 20
-11.4127
 30
0.0
 10
-7.30337
 20
-11.40437
 30
0.0
 10
-7.38062
 20
-11.38917
 30
0.0
 10
-7.45448
 20
-11.36716
 30
0.0
 10
-7.45448
 20
-11.36716
 30
0.0
 10
-7.65021
 20
-11.37756
 30
0.0
 10
-7.62095
 20
-11.47747
 30
0.0
 10
-7.58772
 20
-11.6428
 30
0.0
 10
-7.58772
 20
-11.6428
 30
0.0
 10
-7.44589
 20
-11.70007
 30
0.0
 10
-7.3013
 20
-11.72234
 30
0.0
 10
-7.178
 20
-11.67297
 30
0.0
 10
-7.178
 20
-11.67297
 30
0.0
 10
-7.11555
 20
-11.64797
 30
0.0
 10
-7.07984
 20
-11.64731
 30
0.0
 10
-7.01426
 20
-11.66347
 30
0.0
 10
-7.01426
 20
-11.66347
 30
0.0
 10
-6.80441
 20
-11.71513
 30
0.0
 10
-6.71327
 20
-11.92369
 30
0.0
 10
-6.77361
 20
-12.12707
 30
0.0
 10
-6.77361
 20
-12.12707
 30
0.0
 10
-6.8601
 20
-12.4186
 30
0.0
 10
-7.3948
 20
-12.42235
 30
0.0
 10
-7.48846
 20
-12.13699
 30
0.0
 10
-7.48846
 20
-12.13699
 30
0.0
 10
-7.52343
 20
-12.03026
 30
0.0
 10
-7.456
 20
-12.00362
 30
0.0
 10
-7.5766
 20
-11.94808
 30
0.0
 10
-7.5766
 20
-11.94808
 30
0.0
 10
-7.75469
 20
-11.86604
 30
0.0
 10
-7.92881
 20
-11.77347
 30
0.0
 10
-8.08645
 20
-11.65612
 30
0.0
 10
-8.08645
 20
-11.65612
 30
0.0
 10
-8.14489
 20
-11.61263
 30
0.0
 10
-8.19837
 20
-11.56357
 30
0.0
 10
-8.23082
 20
-11.53078
 30
0.0
 10
-8.23082
 20
-11.53078
 30
0.0
 10
-8.27419
 20
-11.49634
 30
0.0
 10
-8.35169
 20
-11.49787
 30
0.0
 10
-8.40312
 20
-11.50285
 30
0.0
 10
-8.40312
 20
-11.50285
 30
0.0
 10
-8.55013
 20
-11.51709
 30
0.0
 10
-8.57135
 20
-11.56767
 30
0.0
 10
-8.62244
 20
-11.69123
 30
0.0
 10
-8.62244
 20
-11.69123
 30
0.0
 10
-8.57085
 20
-11.74055
 30
0.0
 10
-8.52564
 20
-11.72684
 30
0.0
 10
-8.44208
 20
-11.74381
 30
0.0
 10
-8.44208
 20
-11.74381
 30
0.0
 10
-8.35132
 20
-11.76221
 30
0.0
 10
-8.26494
 20
-11.82841
 30
0.0
 10
-8.22728
 20
-11.91346
 30
0.0
 10
-8.22728
 20
-11.91346
 30
0.0
 10
-8.20347
 20
-11.96719
 30
0.0
 10
-8.20569
 20
-12.03389
 30
0.0
 10
-8.20326
 20
-12.09205
 30
0.0
 10
-8.20326
 20
-12.09205
 30
0.0
 10
-8.19228
 20
-12.35419
 30
0.0
 10
-8.47163
 20
-12.51385
 30
0.0
 10
-8.70343
 20
-12.43989
 30
0.0
 10
-8.70343
 20
-12.43989
 30
0.0
 10
-8.96021
 20
-12.35798
 30
0.0
 10
-8.9647
 20
-12.00997
 30
0.0
 10
-8.80024
 20
-11.83723
 30
0.0
 10
-8.80024
 20
-11.83723
 30
0.0
 10
-9.04421
 20
-11.54256
 30
0.0
 10
-9.31663
 20
-11.24419
 30
0.0
 10
-9.44053
 20
-10.87475
 30
0.0
 10
-9.44053
 20
-10.87475
 30
0.0
 10
-9.56251
 20
-10.51117
 30
0.0
 10
-9.48021
 20
-10.06819
 30
0.0
 10
-9.43463
 20
-9.69518
 30
0.0
 10
-9.43463
 20
-9.69518
 30
0.0
 10
-9.40947
 20
-9.48929
 30
0.0
 10
-9.43029
 20
-9.29315
 30
0.0
 10
-9.41162
 20
-9.09151
 30
0.0
 10
-9.41162
 20
-9.09151
 30
0.0
 10
-9.41162
 20
-9.09151
 30
0.0
 10
-9.41162
 20
-8.94199
 30
0.0
 10
-9.41162
 20
-8.94199
 30
0.0
 10
-9.41162
 20
-8.94199
 30
0.0
 10
-9.41162
 20
-8.94199
 30
0.0
 10
-10.58838
 20
-8.94199
 30
0.0
 10
-10.58838
 20
-8.94199
 30
0.0
 10
-10.58838
 20
-8.94199
 30
0.0
 10
-10.58838
 20
-8.94199
 30
0.0
 10
-10.58838
 20
-9.09151
 30
0.0
 10
-10.58838
 20
-9.09151
 30
0.0
 10
-10.58838
 20
-9.09151
 30
0.0
 10
-10.56974
 20
-9.29315
 30
0.0
 10
-10.59052
 20
-9.48929
 30
0.0
 10
-10.56537
 20
-9.69518
 30
0.0
 10
-10.56537
 20
-9.69518
 30
0.0
 10
-10.51978
 20
-10.06819
 30
0.0
 10
-10.4375
 20
-10.51117
 30
0.0
 10
-10.55946
 20
-10.87475
 30
0.0
 10
-10.55946
 20
-10.87475
 30
0.0
 10
-10.6834
 20
-11.24419
 30
0.0
 10
-10.95579
 20
-11.54256
 30
0.0
 10
-11.19975
 20
-11.83723
 30
0.0
 10
-11.19975
 20
-11.83723
 30
0.0
 10
-11.03529
 20
-12.00997
 30
0.0
 10
-11.03979
 20
-12.35798
 30
0.0
 10
-11.29656
 20
-12.43989
 30
0.0
 10
-11.29656
 20
-12.43989
 30
0.0
 10
-11.52837
 20
-12.51385
 30
0.0
 10
-11.80771
 20
-12.35419
 30
0.0
 10
-11.79674
 20
-12.09205
 30
0.0
 10
-11.79674
 20
-12.09205
 30
0.0
 10
-11.7943
 20
-12.03389
 30
0.0
 10
-11.79652
 20
-11.96719
 30
0.0
 10
-11.77274
 20
-11.91346
 30
0.0
 10
-11.77274
 20
-11.91346
 30
0.0
 10
-11.73507
 20
-11.82841
 30
0.0
 10
-11.64867
 20
-11.76221
 30
0.0
 10
-11.55792
 20
-11.74381
 30
0.0
 10
-11.55792
 20
-11.74381
 30
0.0
 10
-11.4776
 20
-11.72749
 30
0.0
 10
-11.43271
 20
-11.73954
 30
0.0
 10
-11.38284
 20
-11.69377
 30
0.0
 10
-11.38284
 20
-11.69377
 30
0.0
 10
-11.43316
 20
-11.56767
 30
0.0
 10
-11.45439
 20
-11.51709
 30
0.0
 10
-11.60139
 20
-11.50285
 30
0.0
 10
-11.60139
 20
-11.50285
 30
0.0
 10
-11.65282
 20
-11.49787
 30
0.0
 10
-11.73031
 20
-11.49634
 30
0.0
 10
-11.77143
 20
-11.53078
 30
0.0
 10
-11.77143
 20
-11.53078
 30
0.0
 10
-11.80162
 20
-11.56357
 30
0.0
 10
-11.8551
 20
-11.61263
 30
0.0
 10
-11.91354
 20
-11.65612
 30
0.0
 10
-11.91354
 20
-11.65612
 30
0.0
 10
-12.07118
 20
-11.77347
 30
0.0
 10
-12.24531
 20
-11.86604
 30
0.0
 10
-12.42339
 20
-11.94808
 30
0.0
 10
-12.42339
 20
-11.94808
 30
0.0
 10
-12.54399
 20
-12.00362
 30
0.0
 10
-12.47658
 20
-12.03026
 30
0.0
 10
-12.51153
 20
-12.13699
 30
0.0
 10
-12.51153
 20
-12.13699
 30
0.0
 10
-12.60519
 20
-12.42235
 30
0.0
 10
-13.13989
 20
-12.4186
 30
0.0
 10
-13.22638
 20
-12.12707
 30
0.0
 10
-13.22638
 20
-12.12707
 30
0.0
 10
-13.28677
 20
-11.92369
 30
0.0
 10
-13.19561
 20
-11.71513
 30
0.0
 10
-12.98575
 20
-11.66347
 30
0.0
 10
-12.98575
 20
-11.66347
 30
0.0
 10
-12.92016
 20
-11.64731
 30
0.0
 10
-12.88444
 20
-11.64797
 30
0.0
 10
-12.822
 20
-11.67297
 30
0.0
 10
-12.822
 20
-11.67297
 30
0.0
 10
-12.69253
 20
-11.7248
 30
0.0
 10
-12.53961
 20
-11.69767
 30
0.0
 10
-12.4044
 20
-11.63863
 30
0.0
 10
-12.4044
 20
-11.63863
 30
0.0
 10
-12.38355
 20
-11.47747
 30
0.0
 10
-12.35429
 20
-11.37756
 30
0.0
 10
-12.53374
 20
-11.3628
 30
0.0
 10
-12.53374
 20
-11.3628
 30
0.0
 10
-12.60008
 20
-11.38526
 30
0.0
 10
-12.68691
 20
-11.40333
 30
0.0
 10
-12.77424
 20
-11.4127
 30
0.0
 10
-12.77424
 20
-11.4127
 30
0.0
 10
-12.86132
 20
-11.42204
 30
0.0
 10
-12.94942
 20
-11.4227
 30
0.0
 10
-13.03658
 20
-11.41411
 30
0.0
 10
-13.03658
 20
-11.41411
 30
0.0
 10
-13.11063
 20
-11.40677
 30
0.0
 10
-13.23843
 20
-11.34457
 30
0.0
 10
-13.30573
 20
-11.35504
 30
0.0
 10
-13.30573
 20
-11.35504
 30
0.0
 10
-13.35672
 20
-11.36302
 30
0.0
 10
-13.37688
 20
-11.41884
 30
0.0
 10
-13.42842
 20
-11.45289
 30
0.0
 10
-13.42842
 20
-11.45289
 30
0.0
 10
-13.48047
 20
-11.48723
 30
0.0
 10
-13.54509
 20
-11.50354
 30
0.0
 10
-13.60672
 20
-11.50753
 30
0.0
 10
-13.60672
 20
-11.50753
 30
0.0
 10
-13.72433
 20
-11.51512
 30
0.0
 10
-13.8666
 20
-11.47398
 30
0.0
 10
-13.91652
 20
-11.35627
 30
0.0
 10
-13.91652
 20
-11.35627
 30
0.0
 10
-13.95417
 20
-11.2675
 30
0.0
 10
-13.9325
 20
-11.09863
 30
0.0
 10
-13.88592
 20
-11.01323
 30
0.0
 10
-13.88592
 20
-11.01323
 30
0.0
 10
-13.76555
 20
-10.79265
 30
0.0
 10
-13.48549
 20
-10.79356
 30
0.0
 10
-13.34127
 20
-10.98479
 30
0.0
 10
-13.34127
 20
-10.98479
 30
0.0
 10
-13.29597
 20
-11.04485
 30
0.0
 10
-13.29081
 20
-11.08015
 30
0.0
 10
-13.21386
 20
-11.10433
 30
0.0
 10
-13.21386
 20
-11.10433
 30
0.0
 10
-13.06719
 20
-11.15042
 30
0.0
 10
-12.89221
 20
-11.13933
 30
0.0
 10
-12.71574
 20
-11.09844
 30
0.0
 10
-12.71574
 20
-11.09844
 30
0.0
 10
-12.69754
 20
-11.03587
 30
0.0
 10
-12.64646
 20
-10.99009
 30
0.0
 10
-12.67269
 20
-10.92725
 30
0.0
 10
-12.67269
 20
-10.92725
 30
0.0
 10
-12.68709
 20
-10.89285
 30
0.0
 10
-12.74015
 20
-10.86589
 30
0.0
 10
-12.75661
 20
-10.86269
 30
0.0
 10
-12.75661
 20
-10.86269
 30
0.0
 10
-12.85485
 20
-10.85147
 30
0.0
 10
-12.97094
 20
-10.81793
 30
0.0
 10
-13.07515
 20
-10.76669
 30
0.0
 10
-13.07515
 20
-10.76669
 30
0.0
 10
-13.08681
 20
-10.76095
 30
0.0
 10
-13.09836
 20
-10.755
 30
0.0
 10
-13.10973
 20
-10.74881
 30
0.0
 10
-13.10973
 20
-10.74881
 30
0.0
 10
-13.20467
 20
-10.69714
 30
0.0
 10
-13.30518
 20
-10.58403
 30
0.0
 10
-13.41033
 20
-10.55874
 30
0.0
 10
-13.41033
 20
-10.55874
 30
0.0
 10
-13.50477
 20
-10.536
 30
0.0
 10
-13.59336
 20
-10.58471
 30
0.0
 10
-13.69467
 20
-10.55912
 30
0.0
 10
-13.69467
 20
-10.55912
 30
0.0
 10
-13.7889
 20
-10.53534
 30
0.0
 10
-13.86228
 20
-10.50169
 30
0.0
 10
-13.91388
 20
-10.41443
 30
0.0
 10
-13.91388
 20
-10.41443
 30
0.0
 10
-13.97439
 20
-10.31203
 30
0.0
 10
-13.99289
 20
-10.18845
 30
0.0
 10
-13.95896
 20
-10.07461
 30
0.0
 10
-13.95896
 20
-10.07461
 30
0.0
 10
-13.92502
 20
-9.96072
 30
0.0
 10
-13.81588
 20
-9.89516
 30
0.0
 10
-13.69491
 20
-9.88632
 30
0.0
 10
-13.69491
 20
-9.88632
 30
0.0
 10
-13.4403
 20
-9.86769
 30
0.0
 10
-13.44033
 20
-10.09462
 30
0.0
 10
-13.32704
 20
-10.25482
 30
0.0
 10
-13.32704
 20
-10.25482
 30
0.0
 10
-13.26266
 20
-10.34585
 30
0.0
 10
-13.08566
 20
-10.42114
 30
0.0
 10
-12.98811
 20
-10.46899
 30
0.0
 10
-12.98811
 20
-10.46899
 30
0.0
 10
-12.86769
 20
-10.52801
 30
0.0
 10
-12.73604
 20
-10.57535
 30
0.0
 10
-12.60041
 20
-10.57611
 30
0.0
 10
-12.60041
 20
-10.57611
 30
0.0
 10
-12.3063
 20
-10.57775
 30
0.0
 10
-12.08559
 20
-10.48928
 30
0.0
 10
-11.87696
 20
-10.28335
 30
0.0
 10
-11.87696
 20
-10.28335
 30
0.0
 10
-11.66925
 20
-10.07835
 30
0.0
 10
-11.5948
 20
-9.79697
 30
0.0
 10
-11.57314
 20
-9.51399
 30
0.0
 10
-11.57314
 20
-9.51399
 30
0.0
 10
-11.57147
 20
-9.49213
 30
0.0
 10
-11.56806
 20
-9.23765
 30
0.0
 10
-11.56483
 20
-8.94199
 30
0.0
 10
-11.56483
 20
-8.94199
 30
0.0
 10
-11.56483
 20
-8.94199
 30
0.0
 10
-11.70876
 20
-8.94199
 30
0.0
 10
-11.70876
 20
-8.94199
 30
0.0
 10
-11.70876
 20
-8.94199
 30
0.0
 10
-11.9849
 20
-8.94199
 30
0.0
 10
-12.20876
 20
-8.71813
 30
0.0
 10
-12.20876
 20
-8.44199
 30
0.0
 10
-12.20876
 20
-8.44199
 30
0.0
 10
-12.20876
 20
-8.44199
 30
0.0
 10
-12.20876
 20
-8.04199
 30
0.0
 10
-12.20876
 20
-8.04199
 30
0.0
 10
-12.20876
 20
-8.04199
 30
0.0
 10
-12.20876
 20
-7.76585
 30
0.0
 10
-11.9849
 20
-7.54199
 30
0.0
 10
-11.70876
 20
-7.54199
 30
0.0
 10
-11.70876
 20
-7.54199
 30
0.0
 10
-11.70876
 20
-7.54199
 30
0.0
 10
-8.30876
 20
-7.54199
 30
0.0
 10
-8.30876
 20
-7.54199
 30
0.0
 10
-8.30876
 20
-7.54199
 30
0.0
 10
-8.03262
 20
-7.54199
 30
0.0
 10
-7.80876
 20
-7.76585
 30
0.0
 10
-7.80876
 20
-8.04199
 30
0.0
 10
-7.80876
 20
-8.04199
 30
0.0
 10
-7.80876
 20
-8.04199
 30
0.0
 10
-7.80876
 20
-8.44199
 30
0.0
 10
-7.80876
 20
-8.44199
 30
0.0
 10
-7.80876
 20
-8.44199
 30
0.0
 10
-7.80876
 20
-8.71813
 30
0.0
 10
-8.03262
 20
-8.94199
 30
0.0
 10
-8.30876
 20
-8.94199
 30
0.0
  0
SPLINE
  5
4A
330
1F
100
AcDbEntity
  8
Layer 1
370
    53
100
AcDbSpline
210
0.0
220
0.0
230
1.0
 70
    11
 71
     3
 72
    20
 73
    16
 74
     0
 42
0.0000000001
 43
0.0000000001
 12
1.0
 22
0.0
 32
0.0
 13
1.0
 23
0.0
 33
0.0
 40
0.0
 40
0.0
 40
0.0
 40
0.0
 40
0.2
 40
0.2
 40
0.2
 40
0.2
 40
0.4
 40
0.4
 40
0.4
 40
0.4
 40
0.6
 40
0.6
 40
0.6
 40
0.6
 40
1.0
 40
1.0
 40
1.0
 40
1.0
 10
-11.83376
 20
-8.24199
 30
0.0
 10
-11.83376
 20
-8.0625
 30
0.0
 10
-11.68825
 20
-7.91699
 30
0.0
 10
-11.50876
 20
-7.91699
 30
0.0
 10
-11.50876
 20
-7.91699
 30
0.0
 10
-11.32927
 20
-7.91699
 30
0.0
 10
-11.18376
 20
-8.0625
 30
0.0
 10
-11.18376
 20
-8.24199
 30
0.0
 10
-11.18376
 20
-8.24199
 30
0.0
 10
-11.18376
 20
-8.42148
 30
0.0
 10
-11.32927
 20
-8.56699
 30
0.0
 10
-11.50876
 20
-8.56699
 30
0.0
 10
-11.50876
 20
-8.56699
 30
0.0
 10
-11.68825
 20
-8.56699
 30
0.0
 10
-11.83376
 20
-8.42148
 30
0.0
 10
-11.83376
 20
-8.24199
 30
0.0
  0
SPLINE
  5
4B
330
1F
100
AcDbEntity
  8
Layer 1
370
    53
100
AcDbSpline
210
0.0
220
0.0
230
1.0
 70
    11
 71
     3
 72
    20
 73
    16
 74
     0
 42
0.0000000001
 43
0.0000000001
 12
1.0
 22
0.0
 32
0.0
 13
1.0
 23
0.0
 33
0.0
 40
0.0
 40
0.0
 40
0.0
 40
0.0
 40
0.2
 40
0.2
 40
0.2
 40
0.2
 40
0.4
 40
0.4
 40
0.4
 40
0.4
 40
0.6
 40
0.6
 40
0.6
 40
0.6
 40
1.0
 40
1.0
 40
1.0
 40
1.0
 10
-10.93876
 20
-8.24199
 30
0.0
 10
-10.93876
 20
-8.14258
 30
0.0
 10
-10.85817
 20
-8.06199
 30
0.0
 10
-10.75876
 20
-8.06199
 30
0.0
 10
-10.75876
 20
-8.06199
 30
0.0
 10
-10.65935
 20
-8.06199
 30
0.0
 10
-10.57876
 20
-8.14258
 30
0.0
 10
-10.57876
 20
-8.24199
 30
0.0
 10
-10.57876
 20
-8.24199
 30
0.0
 10
-10.57876
 20
-8.3414
 30
0.0
 10
-10.65935
 20
-8.42199
 30
0.0
 10
-10.75876
 20
-8.42199
 30
0.0
 10
-10.75876
 20
-8.42199
 30
0.0
 10
-10.85817
 20
-8.42199
 30
0.0
 10
-10.93876
 20
-8.3414
 30
0.0
 10
-10.93876
 20
-8.24199
 30
0.0
  0
SPLINE
  5
4C
330
1F
100
AcDbEntity
  8
Layer 1
370
    53
100
AcDbSpline
210
0.0
220
0.0
230
1.0
 70
    11
 71
     3
 72
    20
 73
    16
 74
     0
 42
0.0000000001
 43
0.0000000001
 12
1.0
 22
0.0
 32
0.0
 13
1.0
 23
0.0
 33
0.0
 40
0.0
 40
0.0
 40
0.0
 40
0.0
 40
0.2
 40
0.2
 40
0.2
 40
0.2
 40
0.4
 40
0.4
 40
0.4
 40
0.4
 40
0.6
 40
0.6
 40
0.6
 40
0.6
 40
1.0
 40
1.0
 40
1.0
 40
1.0
 10
-9.43876
 20
-8.24199
 30
0.0
 10
-9.43876
 20
-8.14258
 30
0.0
 10
-9.35817
 20
-8.06199
 30
0.0
 10
-9.25876
 20
-8.06199
 30
0.0
 10
-9.25876
 20
-8.06199
 30
0.0
 10
-9.15935
 20
-8.06199
 30
0.0
 10
-9.07876
 20
-8.14258
 30
0.0
 10
-9.07876
 20
-8.24199
 30
0.0
 10
-9.07876
 20
-8.24199
 30
0.0
 10
-9.07876
 20
-8.3414
 30
0.0
 10
-9.15935
 20
-8.42199
 30
0.0
 10
-9.25876
 20
-8.42199
 30
0.0
 10
-9.25876
 20
-8.42199
 30
0.0
 10
-9.35817
 20
-8.42199
 30
0.0
 10
-9.43876
 20
-8.3414
 30
0.0
 10
-9.43876
 20
-8.24199
 30
0.0
  0
ENDSEC
  0
SECTION
  2
OBJECTS
  0
DICTIONARY
  5
C
330
0
100
AcDbDictionary
281
     1
  3
ACAD_GROUP
350
D
  3
ACAD_LAYOUT
350
1A
  3
ACAD_MATERIAL
350
3B
  3
ACAD_MLEADERSTYLE
350
6E
  3
ACAD_MLINESTYLE
350
17
  3
ACAD_PLOTSETTINGS
350
19
  3
ACAD_PLOTSTYLENAME
350
E
  3
ACAD_TABLESTYLE
350
6D
  3
ACAD_VISUALSTYLE
350
2A
  0
DICTIONARY
  5
D
102
{ACAD_REACTORS
330
C
102
}
330
C
100
AcDbDictionary
281
     1
  0
DICTIONARY
  5
1A
102
{ACAD_REACTORS
330
C
102
}
330
C
100
AcDbDictionary
281
     1
  3
Layout1
350
1E
  3
Layout2
350
26
  3
Model
350
22
  0
DICTIONARY
  5
3B
102
{ACAD_REACTORS
330
C
102
}
330
C
100
AcDbDictionary
281
     1
  3
ByBlock
350
3D
  3
ByLayer
350
3C
  3
Global
350
3E
  0
DICTIONARY
  5
6E
102
{ACAD_REACTORS
330
C
102
}
330
C
100
AcDbDictionary
281
     1
  0
DICTIONARY
  5
17
102
{ACAD_REACTORS
330
C
102
}
330
C
100
AcDbDictionary
281
     1
  3
Standard
350
18
  0
DICTIONARY
  5
19
102
{ACAD_REACTORS
330
C
102
}
330
C
100
AcDbDictionary
281
     1
  0
ACDBDICTIONARYWDFLT
  5
E
102
{ACAD_REACTORS
330
C
102
}
330
C
100
AcDbDictionary
281
     1
  3
Normal
350
F
100
AcDbDictionaryWithDefault
340
F
  0
DICTIONARY
  5
6D
102
{ACAD_REACTORS
330
C
102
}
330
C
100
AcDbDictionary
281
     1
  0
DICTIONARY
  5
2A
102
{ACAD_REACTORS
330
C
102
}
330
C
100
AcDbDictionary
281
     1
  3
2dWireframe
350
2F
  3
3D Hidden
350
31
  3
3dWireframe
350
30
  3
Basic
350
32
  3
Brighten
350
36
  3
ColorChange
350
3A
  3
Conceptual
350
34
  3
Dim
350
35
  3
Facepattern
350
39
  3
Flat
350
2B
  3
FlatWithEdges
350
2C
  3
Gouraud
350
2D
  3
GouraudWithEdges
350
2E
  3
Linepattern
350
38
  3
Realistic
350
33
  3
Thicken
350
37
  0
LAYOUT
  5
1E
102
{ACAD_REACTORS
330
1A
102
}
330
1A
100
AcDbPlotSettings
  1

  2
none_device
  4

  6

 40
0.0
 41
0.0
 42
0.0
 43
0.0
 44
0.0
 45
0.0
 46
0.0
 47
0.0
 48
0.0
 49
0.0
140
0.0
141
0.0
142
1.0
143
1.0
 70
   688
 72
     0
 73
     0
 74
     5
  7

 75
    16
 76
     0
 77
     2
 78
   300
147
1.0
148
0.0
149
0.0
100
AcDbLayout
  1
Layout1
 70
     1
 71
     1
 10
0.0
 20
0.0
 11
12.0
 21
9.0
 12
0.0
 22
0.0
 32
0.0
 14
1.000000000000000E+20
 24
1.000000000000000E+20
 34
1.000000000000000E+20
 15
-1.000000000000000E+20
 25
-1.000000000000000E+20
 35
-1.000000000000000E+20
146
0.0
 13
0.0
 23
0.0
 33
0.0
 16
1.0
 26
0.0
 36
0.0
 17
0.0
 27
1.0
 37
0.0
 76
     0
330
1B
  0
LAYOUT
  5
26
102
{ACAD_REACTORS
330
1A
102
}
330
1A
100
AcDbPlotSettings
  1

  2
none_device
  4

  6

 40
0.0
 41
0.0
 42
0.0
 43
0.0
 44
0.0
 45
0.0
 46
0.0
 47
0.0
 48
0.0
 49
0.0
140
0.0
141
0.0
142
1.0
143
1.0
 70
   688
 72
     0
 73
     0
 74
     5
  7

 75
    16
 76
     0
 77
     2
 78
   300
147
1.0
148
0.0
149
0.0
100
AcDbLayout
  1
Layout2
 70
     1
 71
     2
 10
0.0
 20
0.0
 11
0.0
 21
0.0
 12
0.0
 22
0.0
 32
0.0
 14
0.0
 24
0.0
 34
0.0
 15
0.0
 25
0.0
 35
0.0
146
0.0
 13
0.0
 23
0.0
 33
0.0
 16
1.0
 26
0.0
 36
0.0
 17
0.0
 27
1.0
 37
0.0
 76
     0
330
23
  0
LAYOUT
  5
22
102
{ACAD_REACTORS
330
1A
102
}
330
1A
100
AcDbPlotSettings
  1

  2
none_device
  4

  6

 40
0.0
 41
0.0
 42
0.0
 43
0.0
 44
0.0
 45
0.0
 46
0.0
 47
0.0
 48
0.0
 49
0.0
140
0.0
141
0.0
142
1.0
143
1.0
 70
  1712
 72
     0
 73
     0
 74
     0
  7

 75
     0
 76
     0
 77
     2
 78
   300
147
1.0
148
0.0
149
0.0
100
AcDbLayout
  1
Model
 70
     1
 71
     0
 10
0.0
 20
0.0
 11
12.0
 21
9.0
 12
0.0
 22
0.0
 32
0.0
 14
-14.00225
 24
-12.48441
 34
0.0
 15
-5.99775
 25
-7.51553
 35
0.0
146
0.0
 13
0.0
 23
0.0
 33
0.0
 16
1.0
 26
0.0
 36
0.0
 17
0.0
 27
1.0
 37
0.0
 76
     0
330
1F
331
29
  0
MATERIAL
  5
3D
102
{ACAD_REACTORS
330
3B
102
}
330
3B
100
AcDbMaterial
  1
ByBlock
 72
     1
 94
      127
  0
MATERIAL
  5
3C
102
{ACAD_REACTORS
330
3B
102
}
330
3B
100
AcDbMaterial
  1
ByLayer
 72
     1
 94
      127
  0
MATERIAL
  5
3E
102
{ACAD_REACTORS
330
3B
102
}
330
3B
100
AcDbMaterial
  1
Global
 72
     1
 94
      127
  0
MLINESTYLE
  5
18
102
{ACAD_REACTORS
330
17
102
}
330
17
100
AcDbMlineStyle
  2
Standard
 70
     0
  3

 62
   256
 51
90.0
 52
90.0
 71
     2
 49
0.5
 62
   256
  6
BYLAYER
 49
-0.5
 62
   256
  6
BYLAYER
  0
ACDBPLACEHOLDER
  5
F
102
{ACAD_REACTORS
330
E
102
}
330
E
  0
VISUALSTYLE
  5
2F
102
{ACAD_REACTORS
330
2A
102
}
102
{ACAD_XDICTIONARY
360
55
102
}
330
2A
100
AcDbVisualStyle
  2
2dWireframe
 70
     4
 71
     0
 72
     2
 73
     0
 90
        0
 40
-0.6
 41
-30.0
 62
     5
 63
     7
421
 16777215
 74
     1
 91
        4
 64
     7
 65
   257
 75
     1
175
     1
 42
1.0
 92
        0
 66
   257
 43
1.0
 76
     1
 77
     6
 78
     2
 67
     7
 79
     5
170
     0
171
     0
290
     0
174
     0
 93
        1
 44
0.0
173
     0
291
     0
 45
0.0
  0
VISUALSTYLE
  5
31
102
{ACAD_REACTORS
330
2A
102
}
102
{ACAD_XDICTIONARY
360
59
102
}
330
2A
100
AcDbVisualStyle
  2
3D Hidden
 70
     6
 71
     1
 72
     2
 73
     2
 90
        0
 40
-0.6
 41
-30.0
 62
     5
 63
     7
421
 16777215
 74
     2
 91
        2
 64
     7
 65
   257
 75
     2
175
     1
 42
40.0
 92
        0
 66
   257
 43
1.0
 76
     1
 77
     6
 78
     2
 67
     7
 79
     3
170
     0
171
     0
290
     0
174
     0
 93
        1
 44
0.0
173
     0
291
     0
 45
0.0
  0
VISUALSTYLE
  5
30
102
{ACAD_REACTORS
330
2A
102
}
102
{ACAD_XDICTIONARY
360
57
102
}
330
2A
100
AcDbVisualStyle
  2
3dWireframe
 70
     5
 71
     0
 72
     2
 73
     0
 90
        0
 40
-0.6
 41
-30.0
 62
     5
 63
     7
421
 16777215
 74
     1
 91
        4
 64
     7
 65
   257
 75
     1
175
     1
 42
1.0
 92
        0
 66
   257
 43
1.0
 76
     1
 77
     6
 78
     2
 67
     7
 79
     5
170
     0
171
     0
290
     0
174
     0
 93
        1
 44
0.0
173
     0
291
     0
 45
0.0
  0
VISUALSTYLE
  5
32
102
{ACAD_REACTORS
330
2A
102
}
102
{ACAD_XDICTIONARY
360
5B
102
}
330
2A
100
AcDbVisualStyle
  2
Basic
 70
     7
 71
     1
 72
     0
 73
     1
 90
        0
 40
-0.6
 41
-30.0
 62
     5
 63
     7
421
 16777215
 74
     0
 91
        4
 64
     7
 65
   257
 75
     1
175
     1
 42
1.0
 92
        8
 66
     7
 43
1.0
 76
     1
 77
     6
 78
     2
 67
     7
 79
     5
170
     0
171
     0
290
     0
174
     0
 93
        1
 44
0.0
173
     0
291
     1
 45
0.0
  0
VISUALSTYLE
  5
36
102
{ACAD_REACTORS
330
2A
102
}
102
{ACAD_XDICTIONARY
360
63
102
}
330
2A
100
AcDbVisualStyle
  2
Brighten
 70
    12
 71
     2
 72
     2
 73
     0
 90
        0
 40
-0.6
 41
-30.0
 62
     5
 63
     7
421
 16777215
 74
     1
 91
        4
 64
     7
 65
   257
 75
     1
175
     1
 42
1.0
 92
        8
 66
     7
 43
1.0
 76
     1
 77
     6
 78
     2
 67
     7
 79
     5
170
     0
171
     0
290
     0
174
     0
 93
        1
 44
50.0
173
     0
291
     1
 45
0.0
  0
VISUALSTYLE
  5
3A
102
{ACAD_REACTORS
330
2A
102
}
102
{ACAD_XDICTIONARY
360
6B
102
}
330
2A
100
AcDbVisualStyle
  2
ColorChange
 70
    16
 71
     2
 72
     2
 73
     3
 90
        0
 40
-0.6
 41
-30.0
 62
     5
 63
     8
421
  8421504
 74
     1
 91
        4
 64
     7
 65
   257
 75
     1
175
     1
 42
1.0
 92
        8
 66
     8
424
  8421504
 43
1.0
 76
     1
 77
     6
 78
     2
 67
     7
 79
     5
170
     0
171
     0
290
     0
174
     0
 93
        1
 44
0.0
173
     0
291
     1
 45
0.0
  0
VISUALSTYLE
  5
34
102
{ACAD_REACTORS
330
2A
102
}
102
{ACAD_XDICTIONARY
360
5F
102
}
330
2A
100
AcDbVisualStyle
  2
Conceptual
 70
     9
 71
     3
 72
     2
 73
     0
 90
        0
 40
-0.6
 41
-30.0
 62
     5
 63
     7
421
 16777215
 74
     2
 91
        2
 64
     7
 65
   257
 75
     1
175
     1
 42
40.0
 92
        8
 66
     7
 43
1.0
 76
     1
 77
     6
 78
     2
 67
     7
 79
     3
170
     0
171
     0
290
     0
174
     0
 93
        1
 44
0.0
173
     0
291
     0
 45
0.0
  0
VISUALSTYLE
  5
35
102
{ACAD_REACTORS
330
2A
102
}
102
{ACAD_XDICTIONARY
360
61
102
}
330
2A
100
AcDbVisualStyle
  2
Dim
 70
    11
 71
     2
 72
     2
 73
     0
 90
        0
 40
-0.6
 41
-30.0
 62
     5
 63
     7
421
 16777215
 74
     1
 91
        4
 64
     7
 65
   257
 75
     1
175
     1
 42
1.0
 92
        8
 66
     7
 43
1.0
 76
     1
 77
     6
 78
     2
 67
     7
 79
     5
170
     0
171
     0
290
     0
174
     0
 93
        1
 44
-50.0
173
     0
291
     1
 45
0.0
  0
VISUALSTYLE
  5
39
102
{ACAD_REACTORS
330
2A
102
}
102
{ACAD_XDICTIONARY
360
69
102
}
330
2A
100
AcDbVisualStyle
  2
Facepattern
 70
    15
 71
     2
 72
     2
 73
     0
 90
        0
 40
-0.6
 41
-30.0
 62
     5
 63
     7
421
 16777215
 74
     1
 91
        4
 64
     7
 65
   257
 75
     1
175
     1
 42
1.0
 92
        8
 66
     7
 43
1.0
 76
     1
 77
     6
 78
     2
 67
     7
 79
     5
170
     0
171
     0
290
     0
174
     0
 93
        1
 44
0.0
173
     0
291
     1
 45
0.0
  0
VISUALSTYLE
  5
2B
102
{ACAD_REACTORS
330
2A
102
}
102
{ACAD_XDICTIONARY
360
4D
102
}
330
2A
100
AcDbVisualStyle
  2
Flat
 70
     0
 71
     2
 72
     1
 73
     1
 90
        2
 40
-0.6
 41
30.0
 62
     5
 63
     7
421
 16777215
 74
     0
 91
        4
 64
     7
 65
   257
 75
     1
175
     1
 42
1.0
 92
        8
 66
     7
 43
1.0
 76
     1
 77
     6
 78
     2
 67
     7
 79
     5
170
     0
171
     0
290
     0
174
     0
 93
       13
 44
0.0
173
     0
291
     1
 45
0.0
  0
VISUALSTYLE
  5
2C
102
{ACAD_REACTORS
330
2A
102
}
102
{ACAD_XDICTIONARY
360
4F
102
}
330
2A
100
AcDbVisualStyle
  2
FlatWithEdges
 70
     1
 71
     2
 72
     1
 73
     1
 90
        2
 40
-0.6
 41
30.0
 62
     5
 63
     7
421
 16777215
 74
     1
 91
        4
 64
     7
 65
   257
 75
     1
175
     1
 42
1.0
 92
        0
 66
   257
 43
1.0
 76
     1
 77
     6
 78
     2
 67
     7
 79
     5
170
     0
171
     0
290
     0
174
     0
 93
       13
 44
0.0
173
     0
291
     1
 45
0.0
  0
VISUALSTYLE
  5
2D
102
{ACAD_REACTORS
330
2A
102
}
102
{ACAD_XDICTIONARY
360
51
102
}
330
2A
100
AcDbVisualStyle
  2
Gouraud
 70
     2
 71
     2
 72
     2
 73
     1
 90
        2
 40
-0.6
 41
30.0
 62
     5
 63
     7
421
 16777215
 74
     0
 91
        4
 64
     7
 65
   257
 75
     1
175
     1
 42
1.0
 92
        0
 66
     7
 43
1.0
 76
     1
 77
     6
 78
     2
 67
     7
 79
     5
170
     0
171
     0
290
     0
174
     0
 93
       13
 44
0.0
173
     0
291
     1
 45
0.0
  0
VISUALSTYLE
  5
2E
102
{ACAD_REACTORS
330
2A
102
}
102
{ACAD_XDICTIONARY
360
53
102
}
330
2A
100
AcDbVisualStyle
  2
GouraudWithEdges
 70
     3
 71
     2
 72
     2
 73
     1
 90
        2
 40
-0.6
 41
30.0
 62
     5
 63
     7
421
 16777215
 74
     1
 91
        4
 64
     7
 65
   257
 75
     1
175
     1
 42
1.0
 92
        0
 66
   257
 43
1.0
 76
     1
 77
     6
 78
     2
 67
     7
 79
     5
170
     0
171
     0
290
     0
174
     0
 93
       13
 44
0.0
173
     0
291
     1
 45
0.0
  0
VISUALSTYLE
  5
38
102
{ACAD_REACTORS
330
2A
102
}
102
{ACAD_XDICTIONARY
360
67
102
}
330
2A
100
AcDbVisualStyle
  2
Linepattern
 70
    14
 71
     2
 72
     2
 73
     0
 90
        0
 40
-0.6
 41
-30.0
 62
     5
 63
     7
421
 16777215
 74
     1
 91
        4
 64
     7
 65
   257
 75
     7
175
     7
 42
1.0
 92
        8
 66
     7
 43
1.0
 76
     1
 77
     6
 78
     2
 67
     7
 79
     5
170
     0
171
     0
290
     0
174
     0
 93
        1
 44
0.0
173
     0
291
     1
 45
0.0
  0
VISUALSTYLE
  5
33
102
{ACAD_REACTORS
330
2A
102
}
102
{ACAD_XDICTIONARY
360
5D
102
}
330
2A
100
AcDbVisualStyle
  2
Realistic
 70
     8
 71
     2
 72
     2
 73
     0
 90
        0
 40
-0.6
 41
-30.0
 62
     5
 63
     7
421
 16777215
 74
     1
 91
        0
 64
     7
 65
   257
 75
     1
175
     1
 42
1.0
 92
        8
 66
     8
424
  7895160
 43
1.0
 76
     1
 77
     6
 78
     2
 67
     7
 79
     5
170
     0
171
     0
290
     0
174
     0
 93
       13
 44
0.0
173
     0
291
     0
 45
0.0
  0
VISUALSTYLE
  5
37
102
{ACAD_REACTORS
330
2A
102
}
102
{ACAD_XDICTIONARY
360
65
102
}
330
2A
100
AcDbVisualStyle
  2
Thicken
 70
    13
 71
     2
 72
     2
 73
     0
 90
        0
 40
-0.6
 41
-30.0
 62
     5
 63
     7
421
 16777215
 74
     1
 91
        4
 64
     7
 65
   257
 75
     1
175
     1
 42
1.0
 92
       12
 66
     7
 43
1.0
 76
     1
 77
     6
 78
     2
 67
     7
 79
     5
170
     0
171
     0
290
     0
174
     0
 93
        1
 44
0.0
173
     0
291
     1
 45
0.0
  0
DICTIONARY
  5
55
330
2F
100
AcDbDictionary
280
     1
281
     1
  3
ACAD_XREC_ROUNDTRIP
360
56
  0
DICTIONARY
  5
59
330
31
100
AcDbDictionary
280
     1
281
     1
  3
ACAD_XREC_ROUNDTRIP
360
5A
  0
DICTIONARY
  5
57
330
30
100
AcDbDictionary
280
     1
281
     1
  3
ACAD_XREC_ROUNDTRIP
360
58
  0
DICTIONARY
  5
5B
330
32
100
AcDbDictionary
280
     1
281
     1
  3
ACAD_XREC_ROUNDTRIP
360
5C
  0
DICTIONARY
  5
63
330
36
100
AcDbDictionary
280
     1
281
     1
  3
ACAD_XREC_ROUNDTRIP
360
64
  0
DICTIONARY
  5
6B
330
3A
100
AcDbDictionary
280
     1
281
     1
  3
ACAD_XREC_ROUNDTRIP
360
6C
  0
DICTIONARY
  5
5F
330
34
100
AcDbDictionary
280
     1
281
     1
  3
ACAD_XREC_ROUNDTRIP
360
60
  0
DICTIONARY
  5
61
330
35
100
AcDbDictionary
280
     1
281
     1
  3
ACAD_XREC_ROUNDTRIP
360
62
  0
DICTIONARY
  5
69
330
39
100
AcDbDictionary
280
     1
281
     1
  3
ACAD_XREC_ROUNDTRIP
360
6A
  0
DICTIONARY
  5
4D
330
2B
100
AcDbDictionary
280
     1
281
     1
  3
ACAD_XREC_ROUNDTRIP
360
4E
  0
DICTIONARY
  5
4F
330
2C
100
AcDbDictionary
280
     1
281
     1
  3
ACAD_XREC_ROUNDTRIP
360
50
  0
DICTIONARY
  5
51
330
2D
100
AcDbDictionary
280
     1
281
     1
  3
ACAD_XREC_ROUNDTRIP
360
52
  0
DICTIONARY
  5
53
330
2E
100
AcDbDictionary
280
     1
281
     1
  3
ACAD_XREC_ROUNDTRIP
360
54
  0
DICTIONARY
  5
67
330
38
100
AcDbDictionary
280
     1
281
     1
  3
ACAD_XREC_ROUNDTRIP
360
68
  0
DICTIONARY
  5
5D
330
33
100
AcDbDictionary
280
     1
281
     1
  3
ACAD_XREC_ROUNDTRIP
360
5E
  0
DICTIONARY
  5
65
330
37
100
AcDbDictionary
280
     1
281
     1
  3
ACAD_XREC_ROUNDTRIP
360
66
  0
XRECORD
  5
56
102
{ACAD_REACTORS
330
55
102
}
330
55
100
AcDbXrecord
280
     1
102
RTVSPropertyOp0
 70
     1
102
RTVSPropertyOp1
 70
     1
102
RTVSPropertyOp2
 70
     1
102
RTVSPropertyOp3
 70
     1
102
RTVSPropertyOp4
 70
     1
102
RTVSPropertyOp5
 70
     1
102
RTVSPropertyOp6
 70
     1
102
RTVSPropertyOp7
 70
     1
102
RTVSPropertyOp8
 70
     1
102
RTVSPropertyOp9
 70
     1
102
RTVSPropertyOp10
 70
     1
102
RTVSPropertyOp11
 70
     1
102
RTVSPropertyOp12
 70
     1
102
RTVSPropertyOp13
 70
     1
102
RTVSPropertyOp14
 70
     1
102
RTVSPropertyOp15
 70
     1
102
RTVSPropertyOp16
 70
     1
102
RTVSPropertyOp17
 70
     1
102
RTVSPropertyOp18
 70
     1
102
RTVSPropertyOp19
 70
     1
102
RTVSPropertyOp20
 70
     1
102
RTVSPropertyOp21
 70
     1
102
RTVSPropertyOp22
 70
     1
102
RTVSPropertyOp23
 70
     1
102
RTVSPropertyOp24
 70
     1
102
RTVSPropertyOp25
 70
     1
102
RTVSPropertyOp26
 70
     1
102
RTVSPropertyOp27
 70
     1
102
RTVSPropertyOp28
 70
     1
102
RTVSPropertyOp29
 70
     1
102
RTVSPropertyOp30
 70
     1
102
RTVSPropertyOp31
 70
     1
102
RTVSPropertyOp32
 70
     1
  0
XRECORD
  5
5A
102
{ACAD_REACTORS
330
59
102
}
330
59
100
AcDbXrecord
280
     1
102
RTVSPropertyOp0
 70
     1
102
RTVSPropertyOp1
 70
     1
102
RTVSPropertyOp2
 70
     1
102
RTVSPropertyOp3
 70
     1
102
RTVSPropertyOp4
 70
     1
102
RTVSPropertyOp5
 70
     1
102
RTVSPropertyOp6
 70
     1
102
RTVSPropertyOp7
 70
     1
102
RTVSPropertyOp8
 70
     1
102
RTVSPropertyOp9
 70
     1
102
RTVSPropertyOp10
 70
     1
102
RTVSPropertyOp11
 70
     1
102
RTVSPropertyOp12
 70
     1
102
RTVSPropertyOp13
 70
     1
102
RTVSPropertyOp14
 70
     1
102
RTVSPropertyOp15
 70
     1
102
RTVSPropertyOp16
 70
     1
102
RTVSPropertyOp17
 70
     1
102
RTVSPropertyOp18
 70
     1
102
RTVSPropertyOp19
 70
     1
102
RTVSPropertyOp20
 70
     1
102
RTVSPropertyOp21
 70
     1
102
RTVSPropertyOp22
 70
     1
102
RTVSPropertyOp23
 70
     1
102
RTVSPropertyOp24
 70
     1
102
RTVSPropertyOp25
 70
     1
102
RTVSPropertyOp26
 70
     1
102
RTVSPropertyOp27
 70
     1
102
RTVSPropertyOp28
 70
     1
102
RTVSPropertyOp29
 70
     1
102
RTVSPropertyOp30
 70
     1
102
RTVSPropertyOp31
 70
     1
102
RTVSPropertyOp32
 70
     1
  0
XRECORD
  5
58
102
{ACAD_REACTORS
330
57
102
}
330
57
100
AcDbXrecord
280
     1
102
RTVSPropertyOp0
 70
     1
102
RTVSPropertyOp1
 70
     1
102
RTVSPropertyOp2
 70
     1
102
RTVSPropertyOp3
 70
     1
102
RTVSPropertyOp4
 70
     1
102
RTVSPropertyOp5
 70
     1
102
RTVSPropertyOp6
 70
     1
102
RTVSPropertyOp7
 70
     1
102
RTVSPropertyOp8
 70
     1
102
RTVSPropertyOp9
 70
     1
102
RTVSPropertyOp10
 70
     1
102
RTVSPropertyOp11
 70
     1
102
RTVSPropertyOp12
 70
     1
102
RTVSPropertyOp13
 70
     1
102
RTVSPropertyOp14
 70
     1
102
RTVSPropertyOp15
 70
     1
102
RTVSPropertyOp16
 70
     1
102
RTVSPropertyOp17
 70
     1
102
RTVSPropertyOp18
 70
     1
102
RTVSPropertyOp19
 70
     1
102
RTVSPropertyOp20
 70
     1
102
RTVSPropertyOp21
 70
     1
102
RTVSPropertyOp22
 70
     1
102
RTVSPropertyOp23
 70
     1
102
RTVSPropertyOp24
 70
     1
102
RTVSPropertyOp25
 70
     1
102
RTVSPropertyOp26
 70
     1
102
RTVSPropertyOp27
 70
     1
102
RTVSPropertyOp28
 70
     1
102
RTVSPropertyOp29
 70
     1
102
RTVSPropertyOp30
 70
     1
102
RTVSPropertyOp31
 70
     1
102
RTVSPropertyOp32
 70
     1
  0
XRECORD
  5
5C
102
{ACAD_REACTORS
330
5B
102
}
330
5B
100
AcDbXrecord
280
     1
102
RTVSPropertyOp0
 70
     1
102
RTVSPropertyOp1
 70
     1
102
RTVSPropertyOp2
 70
     1
102
RTVSPropertyOp3
 70
     1
102
RTVSPropertyOp4
 70
     1
102
RTVSPropertyOp5
 70
     1
102
RTVSPropertyOp6
 70
     1
102
RTVSPropertyOp7
 70
     1
102
RTVSPropertyOp8
 70
     1
102
RTVSPropertyOp9
 70
     1
102
RTVSPropertyOp10
 70
     1
102
RTVSPropertyOp11
 70
     1
102
RTVSPropertyOp12
 70
     1
102
RTVSPropertyOp13
 70
     1
102
RTVSPropertyOp14
 70
     1
102
RTVSPropertyOp15
 70
     1
102
RTVSPropertyOp16
 70
     1
102
RTVSPropertyOp17
 70
     1
102
RTVSPropertyOp18
 70
     1
102
RTVSPropertyOp19
 70
     1
102
RTVSPropertyOp20
 70
     1
102
RTVSPropertyOp21
 70
     1
102
RTVSPropertyOp22
 70
     1
102
RTVSPropertyOp23
 70
     1
102
RTVSPropertyOp24
 70
     1
102
RTVSPropertyOp25
 70
     1
102
RTVSPropertyOp26
 70
     1
102
RTVSPropertyOp27
 70
     1
102
RTVSPropertyOp28
 70
     1
102
RTVSPropertyOp29
 70
     1
102
RTVSPropertyOp30
 70
     1
102
RTVSPropertyOp31
 70
     1
102
RTVSPropertyOp32
 70
     1
  0
XRECORD
  5
64
102
{ACAD_REACTORS
330
63
102
}
330
63
100
AcDbXrecord
280
     1
102
RTVSPropertyOp0
 70
     1
102
RTVSPropertyOp1
 70
     1
102
RTVSPropertyOp2
 70
     1
102
RTVSPropertyOp3
 70
     1
102
RTVSPropertyOp4
 70
     1
102
RTVSPropertyOp5
 70
     1
102
RTVSPropertyOp6
 70
     1
102
RTVSPropertyOp7
 70
     1
102
RTVSPropertyOp8
 70
     1
102
RTVSPropertyOp9
 70
     1
102
RTVSPropertyOp10
 70
     1
102
RTVSPropertyOp11
 70
     1
102
RTVSPropertyOp12
 70
     1
102
RTVSPropertyOp13
 70
     1
102
RTVSPropertyOp14
 70
     1
102
RTVSPropertyOp15
 70
     1
102
RTVSPropertyOp16
 70
     1
102
RTVSPropertyOp17
 70
     1
102
RTVSPropertyOp18
 70
     1
102
RTVSPropertyOp19
 70
     1
102
RTVSPropertyOp20
 70
     1
102
RTVSPropertyOp21
 70
     1
102
RTVSPropertyOp22
 70
     1
102
RTVSPropertyOp23
 70
     1
102
RTVSPropertyOp24
 70
     1
102
RTVSPropertyOp25
 70
     1
102
RTVSPropertyOp26
 70
     1
102
RTVSPropertyOp27
 70
     1
102
RTVSPropertyOp28
 70
     1
102
RTVSPropertyOp29
 70
     1
102
RTVSPropertyOp30
 70
     1
102
RTVSPropertyOp31
 70
     1
102
RTVSPropertyOp32
 70
     1
  0
XRECORD
  5
6C
102
{ACAD_REACTORS
330
6B
102
}
330
6B
100
AcDbXrecord
280
     1
102
RTVSPropertyOp0
 70
     1
102
RTVSPropertyOp1
 70
     1
102
RTVSPropertyOp2
 70
     1
102
RTVSPropertyOp3
 70
     1
102
RTVSPropertyOp4
 70
     1
102
RTVSPropertyOp5
 70
     1
102
RTVSPropertyOp6
 70
     1
102
RTVSPropertyOp7
 70
     1
102
RTVSPropertyOp8
 70
     1
102
RTVSPropertyOp9
 70
     1
102
RTVSPropertyOp10
 70
     1
102
RTVSPropertyOp11
 70
     1
102
RTVSPropertyOp12
 70
     1
102
RTVSPropertyOp13
 70
     1
102
RTVSPropertyOp14
 70
     1
102
RTVSPropertyOp15
 70
     1
102
RTVSPropertyOp16
 70
     1
102
RTVSPropertyOp17
 70
     1
102
RTVSPropertyOp18
 70
     1
102
RTVSPropertyOp19
 70
     1
102
RTVSPropertyOp20
 70
     1
102
RTVSPropertyOp21
 70
     1
102
RTVSPropertyOp22
 70
     1
102
RTVSPropertyOp23
 70
     1
102
RTVSPropertyOp24
 70
     1
102
RTVSPropertyOp25
 70
     1
102
RTVSPropertyOp26
 70
     1
102
RTVSPropertyOp27
 70
     1
102
RTVSPropertyOp28
 70
     1
102
RTVSPropertyOp29
 70
     1
102
RTVSPropertyOp30
 70
     1
102
RTVSPropertyOp31
 70
     1
102
RTVSPropertyOp32
 70
     1
  0
XRECORD
  5
60
102
{ACAD_REACTORS
330
5F
102
}
330
5F
100
AcDbXrecord
280
     1
102
RTVSPropertyOp0
 70
     1
102
RTVSPropertyOp1
 70
     1
102
RTVSPropertyOp2
 70
     1
102
RTVSPropertyOp3
 70
     1
102
RTVSPropertyOp4
 70
     1
102
RTVSPropertyOp5
 70
     1
102
RTVSPropertyOp6
 70
     1
102
RTVSPropertyOp7
 70
     1
102
RTVSPropertyOp8
 70
     1
102
RTVSPropertyOp9
 70
     1
102
RTVSPropertyOp10
 70
     1
102
RTVSPropertyOp11
 70
     1
102
RTVSPropertyOp12
 70
     1
102
RTVSPropertyOp13
 70
     1
102
RTVSPropertyOp14
 70
     1
102
RTVSPropertyOp15
 70
     1
102
RTVSPropertyOp16
 70
     1
102
RTVSPropertyOp17
 70
     1
102
RTVSPropertyOp18
 70
     1
102
RTVSPropertyOp19
 70
     1
102
RTVSPropertyOp20
 70
     1
102
RTVSPropertyOp21
 70
     1
102
RTVSPropertyOp22
 70
     1
102
RTVSPropertyOp23
 70
     1
102
RTVSPropertyOp24
 70
     1
102
RTVSPropertyOp25
 70
     1
102
RTVSPropertyOp26
 70
     1
102
RTVSPropertyOp27
 70
     1
102
RTVSPropertyOp28
 70
     1
102
RTVSPropertyOp29
 70
     1
102
RTVSPropertyOp30
 70
     1
102
RTVSPropertyOp31
 70
     1
102
RTVSPropertyOp32
 70
     1
  0
XRECORD
  5
62
102
{ACAD_REACTORS
330
61
102
}
330
61
100
AcDbXrecord
280
     1
102
RTVSPropertyOp0
 70
     1
102
RTVSPropertyOp1
 70
     1
102
RTVSPropertyOp2
 70
     1
102
RTVSPropertyOp3
 70
     1
102
RTVSPropertyOp4
 70
     1
102
RTVSPropertyOp5
 70
     1
102
RTVSPropertyOp6
 70
     1
102
RTVSPropertyOp7
 70
     1
102
RTVSPropertyOp8
 70
     1
102
RTVSPropertyOp9
 70
     1
102
RTVSPropertyOp10
 70
     1
102
RTVSPropertyOp11
 70
     1
102
RTVSPropertyOp12
 70
     1
102
RTVSPropertyOp13
 70
     1
102
RTVSPropertyOp14
 70
     1
102
RTVSPropertyOp15
 70
     1
102
RTVSPropertyOp16
 70
     1
102
RTVSPropertyOp17
 70
     1
102
RTVSPropertyOp18
 70
     1
102
RTVSPropertyOp19
 70
     1
102
RTVSPropertyOp20
 70
     1
102
RTVSPropertyOp21
 70
     1
102
RTVSPropertyOp22
 70
     1
102
RTVSPropertyOp23
 70
     1
102
RTVSPropertyOp24
 70
     1
102
RTVSPropertyOp25
 70
     1
102
RTVSPropertyOp26
 70
     1
102
RTVSPropertyOp27
 70
     1
102
RTVSPropertyOp28
 70
     1
102
RTVSPropertyOp29
 70
     1
102
RTVSPropertyOp30
 70
     1
102
RTVSPropertyOp31
 70
     1
102
RTVSPropertyOp32
 70
     1
  0
XRECORD
  5
6A
102
{ACAD_REACTORS
330
69
102
}
330
69
100
AcDbXrecord
280
     1
102
RTVSPropertyOp0
 70
     1
102
RTVSPropertyOp1
 70
     1
102
RTVSPropertyOp2
 70
     1
102
RTVSPropertyOp3
 70
     1
102
RTVSPropertyOp4
 70
     1
102
RTVSPropertyOp5
 70
     1
102
RTVSPropertyOp6
 70
     1
102
RTVSPropertyOp7
 70
     1
102
RTVSPropertyOp8
 70
     1
102
RTVSPropertyOp9
 70
     1
102
RTVSPropertyOp10
 70
     1
102
RTVSPropertyOp11
 70
     1
102
RTVSPropertyOp12
 70
     1
102
RTVSPropertyOp13
 70
     1
102
RTVSPropertyOp14
 70
     1
102
RTVSPropertyOp15
 70
     1
102
RTVSPropertyOp16
 70
     1
102
RTVSPropertyOp17
 70
     1
102
RTVSPropertyOp18
 70
     1
102
RTVSPropertyOp19
 70
     1
102
RTVSPropertyOp20
 70
     1
102
RTVSPropertyOp21
 70
     1
102
RTVSPropertyOp22
 70
     1
102
RTVSPropertyOp23
 70
     1
102
RTVSPropertyOp24
 70
     1
102
RTVSPropertyOp25
 70
     1
102
RTVSPropertyOp26
 70
     1
102
RTVSPropertyOp27
 70
     1
102
RTVSPropertyOp28
 70
     1
102
RTVSPropertyOp29
 70
     1
102
RTVSPropertyOp30
 70
     1
102
RTVSPropertyOp31
 70
     1
102
RTVSPropertyOp32
 70
     1
  0
XRECORD
  5
4E
102
{ACAD_REACTORS
330
4D
102
}
330
4D
100
AcDbXrecord
280
     1
102
RTVSPropertyOp0
 70
     1
102
RTVSPropertyOp1
 70
     1
102
RTVSPropertyOp2
 70
     1
102
RTVSPropertyOp3
 70
     1
102
RTVSPropertyOp4
 70
     1
102
RTVSPropertyOp5
 70
     1
102
RTVSPropertyOp6
 70
     1
102
RTVSPropertyOp7
 70
     1
102
RTVSPropertyOp8
 70
     1
102
RTVSPropertyOp9
 70
     1
102
RTVSPropertyOp10
 70
     1
102
RTVSPropertyOp11
 70
     1
102
RTVSPropertyOp12
 70
     1
102
RTVSPropertyOp13
 70
     1
102
RTVSPropertyOp14
 70
     1
102
RTVSPropertyOp15
 70
     1
102
RTVSPropertyOp16
 70
     1
102
RTVSPropertyOp17
 70
     1
102
RTVSPropertyOp18
 70
     1
102
RTVSPropertyOp19
 70
     1
102
RTVSPropertyOp20
 70
     1
102
RTVSPropertyOp21
 70
     1
102
RTVSPropertyOp22
 70
     1
102
RTVSPropertyOp23
 70
     1
102
RTVSPropertyOp24
 70
     1
102
RTVSPropertyOp25
 70
     1
102
RTVSPropertyOp26
 70
     1
102
RTVSPropertyOp27
 70
     1
102
RTVSPropertyOp28
 70
     1
102
RTVSPropertyOp29
 70
     1
102
RTVSPropertyOp30
 70
     1
102
RTVSPropertyOp31
 70
     1
102
RTVSPropertyOp32
 70
     1
  0
XRECORD
  5
50
102
{ACAD_REACTORS
330
4F
102
}
330
4F
100
AcDbXrecord
280
     1
102
RTVSPropertyOp0
 70
     1
102
RTVSPropertyOp1
 70
     1
102
RTVSPropertyOp2
 70
     1
102
RTVSPropertyOp3
 70
     1
102
RTVSPropertyOp4
 70
     1
102
RTVSPropertyOp5
 70
     1
102
RTVSPropertyOp6
 70
     1
102
RTVSPropertyOp7
 70
     1
102
RTVSPropertyOp8
 70
     1
102
RTVSPropertyOp9
 70
     1
102
RTVSPropertyOp10
 70
     1
102
RTVSPropertyOp11
 70
     1
102
RTVSPropertyOp12
 70
     1
102
RTVSPropertyOp13
 70
     1
102
RTVSPropertyOp14
 70
     1
102
RTVSPropertyOp15
 70
     1
102
RTVSPropertyOp16
 70
     1
102
RTVSPropertyOp17
 70
     1
102
RTVSPropertyOp18
 70
     1
102
RTVSPropertyOp19
 70
     1
102
RTVSPropertyOp20
 70
     1
102
RTVSPropertyOp21
 70
     1
102
RTVSPropertyOp22
 70
     1
102
RTVSPropertyOp23
 70
     1
102
RTVSPropertyOp24
 70
     1
102
RTVSPropertyOp25
 70
     1
102
RTVSPropertyOp26
 70
     1
102
RTVSPropertyOp27
 70
     1
102
RTVSPropertyOp28
 70
     1
102
RTVSPropertyOp29
 70
     1
102
RTVSPropertyOp30
 70
     1
102
RTVSPropertyOp31
 70
     1
102
RTVSPropertyOp32
 70
     1
  0
XRECORD
  5
52
102
{ACAD_REACTORS
330
51
102
}
330
51
100
AcDbXrecord
280
     1
102
RTVSPropertyOp0
 70
     1
102
RTVSPropertyOp1
 70
     1
102
RTVSPropertyOp2
 70
     1
102
RTVSPropertyOp3
 70
     1
102
RTVSPropertyOp4
 70
     1
102
RTVSPropertyOp5
 70
     1
102
RTVSPropertyOp6
 70
     1
102
RTVSPropertyOp7
 70
     1
102
RTVSPropertyOp8
 70
     1
102
RTVSPropertyOp9
 70
     1
102
RTVSPropertyOp10
 70
     1
102
RTVSPropertyOp11
 70
     1
102
RTVSPropertyOp12
 70
     1
102
RTVSPropertyOp13
 70
     1
102
RTVSPropertyOp14
 70
     1
102
RTVSPropertyOp15
 70
     1
102
RTVSPropertyOp16
 70
     1
102
RTVSPropertyOp17
 70
     1
102
RTVSPropertyOp18
 70
     1
102
RTVSPropertyOp19
 70
     1
102
RTVSPropertyOp20
 70
     1
102
RTVSPropertyOp21
 70
     1
102
RTVSPropertyOp22
 70
     1
102
RTVSPropertyOp23
 70
     1
102
RTVSPropertyOp24
 70
     1
102
RTVSPropertyOp25
 70
     1
102
RTVSPropertyOp26
 70
     1
102
RTVSPropertyOp27
 70
     1
102
RTVSPropertyOp28
 70
     1
102
RTVSPropertyOp29
 70
     1
102
RTVSPropertyOp30
 70
     1
102
RTVSPropertyOp31
 70
     1
102
RTVSPropertyOp32
 70
     1
  0
XRECORD
  5
54
102
{ACAD_REACTORS
330
53
102
}
330
53
100
AcDbXrecord
280
     1
102
RTVSPropertyOp0
 70
     1
102
RTVSPropertyOp1
 70
     1
102
RTVSPropertyOp2
 70
     1
102
RTVSPropertyOp3
 70
     1
102
RTVSPropertyOp4
 70
     1
102
RTVSPropertyOp5
 70
     1
102
RTVSPropertyOp6
 70
     1
102
RTVSPropertyOp7
 70
     1
102
RTVSPropertyOp8
 70
     1
102
RTVSPropertyOp9
 70
     1
102
RTVSPropertyOp10
 70
     1
102
RTVSPropertyOp11
 70
     1
102
RTVSPropertyOp12
 70
     1
102
RTVSPropertyOp13
 70
     1
102
RTVSPropertyOp14
 70
     1
102
RTVSPropertyOp15
 70
     1
102
RTVSPropertyOp16
 70
     1
102
RTVSPropertyOp17
 70
     1
102
RTVSPropertyOp18
 70
     1
102
RTVSPropertyOp19
 70
     1
102
RTVSPropertyOp20
 70
     1
102
RTVSPropertyOp21
 70
     1
102
RTVSPropertyOp22
 70
     1
102
RTVSPropertyOp23
 70
     1
102
RTVSPropertyOp24
 70
     1
102
RTVSPropertyOp25
 70
     1
102
RTVSPropertyOp26
 70
     1
102
RTVSPropertyOp27
 70
     1
102
RTVSPropertyOp28
 70
     1
102
RTVSPropertyOp29
 70
     1
102
RTVSPropertyOp30
 70
     1
102
RTVSPropertyOp31
 70
     1
102
RTVSPropertyOp32
 70
     1
  0
XRECORD
  5
68
102
{ACAD_REACTORS
330
67
102
}
330
67
100
AcDbXrecord
280
     1
102
RTVSPropertyOp0
 70
     1
102
RTVSPropertyOp1
 70
     1
102
RTVSPropertyOp2
 70
     1
102
RTVSPropertyOp3
 70
     1
102
RTVSPropertyOp4
 70
     1
102
RTVSPropertyOp5
 70
     1
102
RTVSPropertyOp6
 70
     1
102
RTVSPropertyOp7
 70
     1
102
RTVSPropertyOp8
 70
     1
102
RTVSPropertyOp9
 70
     1
102
RTVSPropertyOp10
 70
     1
102
RTVSPropertyOp11
 70
     1
102
RTVSPropertyOp12
 70
     1
102
RTVSPropertyOp13
 70
     1
102
RTVSPropertyOp14
 70
     1
102
RTVSPropertyOp15
 70
     1
102
RTVSPropertyOp16
 70
     1
102
RTVSPropertyOp17
 70
     1
102
RTVSPropertyOp18
 70
     1
102
RTVSPropertyOp19
 70
     1
102
RTVSPropertyOp20
 70
     1
102
RTVSPropertyOp21
 70
     1
102
RTVSPropertyOp22
 70
     1
102
RTVSPropertyOp23
 70
     1
102
RTVSPropertyOp24
 70
     1
102
RTVSPropertyOp25
 70
     1
102
RTVSPropertyOp26
 70
     1
102
RTVSPropertyOp27
 70
     1
102
RTVSPropertyOp28
 70
     1
102
RTVSPropertyOp29
 70
     1
102
RTVSPropertyOp30
 70
     1
102
RTVSPropertyOp31
 70
     1
102
RTVSPropertyOp32
 70
     1
  0
XRECORD
  5
5E
102
{ACAD_REACTORS
330
5D
102
}
330
5D
100
AcDbXrecord
280
     1
102
RTVSPropertyOp0
 70
     1
102
RTVSPropertyOp1
 70
     1
102
RTVSPropertyOp2
 70
     1
102
RTVSPropertyOp3
 70
     1
102
RTVSPropertyOp4
 70
     1
102
RTVSPropertyOp5
 70
     1
102
RTVSPropertyOp6
 70
     1
102
RTVSPropertyOp7
 70
     1
102
RTVSPropertyOp8
 70
     1
102
RTVSPropertyOp9
 70
     1
102
RTVSPropertyOp10
 70
     1
102
RTVSPropertyOp11
 70
     1
102
RTVSPropertyOp12
 70
     1
102
RTVSPropertyOp13
 70
     1
102
RTVSPropertyOp14
 70
     1
102
RTVSPropertyOp15
 70
     1
102
RTVSPropertyOp16
 70
     1
102
RTVSPropertyOp17
 70
     1
102
RTVSPropertyOp18
 70
     1
102
RTVSPropertyOp19
 70
     1
102
RTVSPropertyOp20
 70
     1
102
RTVSPropertyOp21
 70
     1
102
RTVSPropertyOp22
 70
     1
102
RTVSPropertyOp23
 70
     1
102
RTVSPropertyOp24
 70
     1
102
RTVSPropertyOp25
 70
     1
102
RTVSPropertyOp26
 70
     1
102
RTVSPropertyOp27
 70
     1
102
RTVSPropertyOp28
 70
     1
102
RTVSPropertyOp29
 70
     1
102
RTVSPropertyOp30
 70
     1
102
RTVSPropertyOp31
 70
     1
102
RTVSPropertyOp32
 70
     1
  0
XRECORD
  5
66
102
{ACAD_REACTORS
330
65
102
}
330
65
100
AcDbXrecord
280
     1
102
RTVSPropertyOp0
 70
     1
102
RTVSPropertyOp1
 70
     1
102
RTVSPropertyOp2
 70
     1
102
RTVSPropertyOp3
 70
     1
102
RTVSPropertyOp4
 70
     1
102
RTVSPropertyOp5
 70
     1
102
RTVSPropertyOp6
 70
     1
102
RTVSPropertyOp7
 70
     1
102
RTVSPropertyOp8
 70
     1
102
RTVSPropertyOp9
 70
     1
102
RTVSPropertyOp10
 70
     1
102
RTVSPropertyOp11
 70
     1
102
RTVSPropertyOp12
 70
     1
102
RTVSPropertyOp13
 70
     1
102
RTVSPropertyOp14
 70
     1
102
RTVSPropertyOp15
 70
     1
102
RTVSPropertyOp16
 70
     1
102
RTVSPropertyOp17
 70
     1
102
RTVSPropertyOp18
 70
     1
102
RTVSPropertyOp19
 70
     1
102
RTVSPropertyOp20
 70
     1
102
RTVSPropertyOp21
 70
     1
102
RTVSPropertyOp22
 70
     1
102
RTVSPropertyOp23
 70
     1
102
RTVSPropertyOp24
 70
     1
102
RTVSPropertyOp25
 70
     1
102
RTVSPropertyOp26
 70
     1
102
RTVSPropertyOp27
 70
     1
102
RTVSPropertyOp28
 70
     1
102
RTVSPropertyOp29
 70
     1
102
RTVSPropertyOp30
 70
     1
102
RTVSPropertyOp31
 70
     1
102
RTVSPropertyOp32
 70
     1
  0
ENDSEC
  0
EOF
