<?xml version="1.0" encoding="UTF-8"?>
<!DOCTYPE svg PUBLIC "-//W3C//DTD SVG 1.1//EN" "http://www.w3.org/Graphics/SVG/1.1/DTD/svg11.dtd">
<!-- Creator: CorelDRAW X6 -->
<svg xmlns="http://www.w3.org/2000/svg" xml:space="preserve" width="200mm" height="200mm" version="1.1" shape-rendering="geometricPrecision" text-rendering="geometricPrecision" image-rendering="optimizeQuality" fill-rule="evenodd" clip-rule="evenodd"
viewBox="0 0 20000 20000"
 xmlns:xlink="http://www.w3.org/1999/xlink">
 <g id="Layer_x0020_1">
  <metadata id="CorelCorpID_0Corel-Layer"/>
  <g id="_879207776">
   <circle fill="none" stroke="black" stroke-width="52.92" stroke-linecap="round" stroke-linejoin="round" transform="matrix(1.50148E-014 -0.566926 0.566926 1.50148E-014 10500 8000)" r="529"/>
   <circle fill="none" stroke="black" stroke-width="52.92" stroke-linecap="round" stroke-linejoin="round" transform="matrix(1.50148E-014 -0.566926 0.566926 1.50148E-014 12000 8000)" r="529"/>
   <path fill="none" stroke="black" stroke-width="52.92" stroke-linecap="round" stroke-linejoin="round" d="M12200 8700l-133 0 0 188 300 -3c207,0 375,168 375,375l0 683 420 0c414,0 750,336 750,750l0 750 4 234c-99,7 -99,60 -202,60 -103,0 -103,-53 -206,-53 -103,0 -103,53 -206,53 -103,0 -103,-53 -206,-53 -103,0 -103,53 -206,53 -103,0 -103,-53 -206,-53 -103,0 -103,53 -206,53 -103,0 -103,-53 -206,-53 -103,0 -103,53 -206,53 -103,0 -103,-53 -206,-53 -103,0 -103,53 -206,53 -103,0 -103,-53 -206,-53 -103,0 -103,53 -206,53 -103,0 -103,-53 -206,-53 -103,0 -103,53 -206,53 -103,0 -103,-53 -206,-53l-5 -2425c0,-206 166,-373 371,-375l102 -1 0 -185 -1168 0 0 200c206,2 371,169 371,375l0 2183 0 227c-103,0 -103,53 -206,53 -103,0 -103,-53 -206,-53 -103,0 -103,53 -206,53 -103,0 -103,-53 -206,-53 -103,0 -103,53 -206,53 -103,0 -103,-53 -206,-53 -103,0 -103,53 -206,53 -103,0 -103,-53 -206,-53 -103,0 -103,53 -206,53 -103,0 -103,-53 -206,-53 -103,0 -103,53 -206,53 -103,0 -103,-53 -206,-53 -103,0 -103,53 -206,53 -103,0 -103,-53 -206,-53 -103,0 -103,53 -206,53 -103,0 -103,-53 -204,-53l1 -227 0 -750c0,-414 336,-750 750,-750l420 0 0 -683c0,-207 168,-375 375,-375l397 0 0 -200 -154 0c-276,0 -500,-224 -500,-500l0 -400c0,-276 224,-500 500,-500l3400 0c276,0 500,224 500,500l0 400c0,276 -224,500 -500,500z"/>
   <line fill="none" fill-rule="nonzero" stroke="blue" stroke-width="52.92" stroke-linecap="round" stroke-linejoin="round" x1="8956" y1="8900" x2="9927" y2= "8900" />
   <line fill="none" fill-rule="nonzero" stroke="blue" stroke-width="52.92" stroke-linecap="round" stroke-linejoin="round" x1="9242" y1="11458" x2="7013" y2= "11458" />
   <line fill="none" fill-rule="nonzero" stroke="blue" stroke-width="52.92" stroke-linecap="round" stroke-linejoin="round" x1="8183" y1="9958" x2="10301" y2= "9958" />
   <line fill="none" fill-rule="nonzero" stroke="blue" stroke-width="52.92" stroke-linecap="round" stroke-linejoin="round" x1="10301" y1="10730" x2="9579" y2= "10730" />
   <path fill="none" fill-rule="nonzero" stroke="blue" stroke-width="52.92" stroke-linecap="round" stroke-linejoin="round" d="M9579 10730c-187,0 -338,151 -338,338"/>
   <polyline fill="none" fill-rule="nonzero" stroke="blue" stroke-width="52.92" stroke-linecap="round" stroke-linejoin="round" points="9242,11068 9242,11458 10301,11458 10301,10730 "/>
   <line fill="none" fill-rule="nonzero" stroke="blue" stroke-width="52.92" stroke-linecap="round" stroke-linejoin="round" x1="8183" y1="9275" x2="10301" y2= "9275" />
   <line fill="none" fill-rule="nonzero" stroke="blue" stroke-width="52.92" stroke-linecap="round" stroke-linejoin="round" x1="11683" y1="11444" x2="13912" y2= "11444" />
   <line fill="none" fill-rule="nonzero" stroke="blue" stroke-width="52.92" stroke-linecap="round" stroke-linejoin="round" x1="12742" y1="9944" x2="10624" y2= "9944" />
   <line fill="none" fill-rule="nonzero" stroke="blue" stroke-width="52.92" stroke-linecap="round" stroke-linejoin="round" x1="10624" y1="10716" x2="11345" y2= "10716" />
   <path fill="none" fill-rule="nonzero" stroke="blue" stroke-width="52.92" stroke-linecap="round" stroke-linejoin="round" d="M11345 10716c187,0 338,151 338,338"/>
   <polyline fill="none" fill-rule="nonzero" stroke="blue" stroke-width="52.92" stroke-linecap="round" stroke-linejoin="round" points="11683,11054 11683,11444 10624,11444 10624,10716 "/>
   <line fill="none" fill-rule="nonzero" stroke="blue" stroke-width="52.92" stroke-linecap="round" stroke-linejoin="round" x1="12742" y1="9261" x2="10624" y2= "9261" />
   <line fill="none" stroke="blue" stroke-width="52.92" stroke-linecap="round" stroke-linejoin="round" x1="11097" y1="8885" x2="12067" y2= "8888" />
   <circle fill="none" stroke="black" stroke-width="52.92" stroke-linecap="round" stroke-linejoin="round" transform="matrix(1.50148E-014 -0.566926 0.566926 1.50148E-014 9000 8000)" r="529"/>
  </g>
  <circle fill="none" stroke="black" stroke-width="52.92" stroke-linecap="round" stroke-linejoin="round" transform="matrix(7.50738E-015 -0.283463 0.283463 7.50738E-015 9750 8000)" r="529"/>
  <circle fill="none" stroke="black" stroke-width="52.92" stroke-linecap="round" stroke-linejoin="round" transform="matrix(7.50738E-015 -0.283463 0.283463 7.50738E-015 11250 8000)" r="529"/>
 </g>
</svg>
