<?xml version="1.0" encoding="UTF-8"?>
<!DOCTYPE svg PUBLIC "-//W3C//DTD SVG 1.1//EN" "http://www.w3.org/Graphics/SVG/1.1/DTD/svg11.dtd">
<!-- Creator: CorelDRAW X6 -->
<svg xmlns="http://www.w3.org/2000/svg" xml:space="preserve" width="200mm" height="200mm" version="1.1" shape-rendering="geometricPrecision" text-rendering="geometricPrecision" image-rendering="optimizeQuality" fill-rule="evenodd" clip-rule="evenodd"
viewBox="0 0 20000 20000"
 xmlns:xlink="http://www.w3.org/1999/xlink">
 <g id="Layer_x0020_1">
  <metadata id="CorelCorpID_0Corel-Layer"/>
  <g id="_874217664">
   <circle fill="none" stroke="black" stroke-width="52.92" stroke-linecap="round" stroke-linejoin="round" transform="matrix(1.6266E-014 -0.614169 0.614169 1.6266E-014 36.42 18480.9)" r="529"/>
   <circle fill="none" stroke="black" stroke-width="52.92" stroke-linecap="round" stroke-linejoin="round" transform="matrix(1.6266E-014 -0.614169 0.614169 1.6266E-014 1536.42 18480.9)" r="529"/>
   <path fill="none" stroke="black" stroke-width="52.92" stroke-linecap="round" stroke-linejoin="round" d="M1736 19181l-133 0 0 188 300 -3c207,0 375,168 375,375l0 683 420 0c414,0 750,336 750,750l0 750 4 234c-99,7 -99,60 -202,60 -103,0 -103,-53 -206,-53 -103,0 -103,53 -206,53 -103,0 -103,-53 -206,-53 -103,0 -103,53 -206,53 -103,0 -103,-53 -206,-53 -103,0 -103,53 -206,53 -103,0 -103,-53 -206,-53 -103,0 -103,53 -206,53 -103,0 -103,-53 -206,-53 -103,0 -103,53 -206,53 -103,0 -103,-53 -206,-53 -103,0 -103,53 -206,53 -103,0 -103,-53 -206,-53 -103,0 -103,53 -206,53 -103,0 -103,-53 -206,-53l-5 -2425c0,-206 166,-373 371,-375l102 -1 0 -185 -1168 0 0 200c206,2 371,169 371,375l0 2183 0 227c-103,0 -103,53 -206,53 -103,0 -103,-53 -206,-53 -103,0 -103,53 -206,53 -103,0 -103,-53 -206,-53 -103,0 -103,53 -206,53 -103,0 -103,-53 -206,-53 -103,0 -103,53 -206,53 -103,0 -103,-53 -206,-53 -103,0 -103,53 -206,53 -103,0 -103,-53 -206,-53 -103,0 -103,53 -206,53 -103,0 -103,-53 -206,-53 -103,0 -103,53 -206,53 -103,0 -103,-53 -206,-53 -103,0 -103,53 -206,53 -103,0 -103,-53 -204,-53l1 -227 0 -750c0,-414 336,-750 750,-750l420 0 0 -683c0,-207 168,-375 375,-375l397 0 0 -200 -154 0c-276,0 -500,-224 -500,-500l0 -400c0,-276 224,-500 500,-500l3400 0c276,0 500,224 500,500l0 400c0,276 -224,500 -500,500z"/>
   <line fill="none" fill-rule="nonzero" stroke="blue" stroke-width="52.92" stroke-linecap="round" stroke-linejoin="round" x1="-1508" y1="19381" x2="-536" y2= "19381" />
   <line fill="none" fill-rule="nonzero" stroke="blue" stroke-width="52.92" stroke-linecap="round" stroke-linejoin="round" x1="-1222" y1="21939" x2="-3451" y2= "21939" />
   <line fill="none" fill-rule="nonzero" stroke="blue" stroke-width="52.92" stroke-linecap="round" stroke-linejoin="round" x1="-2281" y1="20439" x2="-163" y2= "20439" />
   <line fill="none" fill-rule="nonzero" stroke="blue" stroke-width="52.92" stroke-linecap="round" stroke-linejoin="round" x1="-163" y1="21211" x2="-884" y2= "21211" />
   <path fill="none" fill-rule="nonzero" stroke="blue" stroke-width="52.92" stroke-linecap="round" stroke-linejoin="round" d="M-884 21211c-187,0 -338,151 -338,338"/>
   <polyline fill="none" fill-rule="nonzero" stroke="blue" stroke-width="52.92" stroke-linecap="round" stroke-linejoin="round" points="-1222,21549 -1222,21939 -163,21939 -163,21211 "/>
   <line fill="none" fill-rule="nonzero" stroke="blue" stroke-width="52.92" stroke-linecap="round" stroke-linejoin="round" x1="-2281" y1="19756" x2="-163" y2= "19756" />
   <line fill="none" fill-rule="nonzero" stroke="blue" stroke-width="52.92" stroke-linecap="round" stroke-linejoin="round" x1="1219" y1="21925" x2="3448" y2= "21925" />
   <line fill="none" fill-rule="nonzero" stroke="blue" stroke-width="52.92" stroke-linecap="round" stroke-linejoin="round" x1="2278" y1="20425" x2="160" y2= "20425" />
   <line fill="none" fill-rule="nonzero" stroke="blue" stroke-width="52.92" stroke-linecap="round" stroke-linejoin="round" x1="160" y1="21197" x2="882" y2= "21197" />
   <path fill="none" fill-rule="nonzero" stroke="blue" stroke-width="52.92" stroke-linecap="round" stroke-linejoin="round" d="M882 21197c187,0 338,151 338,338"/>
   <polyline fill="none" fill-rule="nonzero" stroke="blue" stroke-width="52.92" stroke-linecap="round" stroke-linejoin="round" points="1219,21535 1219,21925 160,21925 160,21197 "/>
   <line fill="none" fill-rule="nonzero" stroke="blue" stroke-width="52.92" stroke-linecap="round" stroke-linejoin="round" x1="2278" y1="19741" x2="160" y2= "19741" />
   <line fill="none" stroke="blue" stroke-width="52.92" stroke-linecap="round" stroke-linejoin="round" x1="634" y1="19365" x2="1603" y2= "19369" />
   <circle fill="none" stroke="black" stroke-width="52.92" stroke-linecap="round" stroke-linejoin="round" transform="matrix(1.6266E-014 -0.614169 0.614169 1.6266E-014 -1463.58 18480.9)" r="529"/>
  </g>
  <circle fill="none" stroke="black" stroke-width="52.92" stroke-linecap="round" stroke-linejoin="round" transform="matrix(9.00886E-015 -0.340155 0.340155 9.00886E-015 -713.58 18480.9)" r="529"/>
  <circle fill="none" stroke="black" stroke-width="52.92" stroke-linecap="round" stroke-linejoin="round" transform="matrix(9.00886E-015 -0.340155 0.340155 9.00886E-015 786.42 18480.9)" r="529"/>
 </g>
</svg>
