  0
SECTION
  2
HEADER
  9
$ACADVER
  1
AC1021
  9
$ACADMAINTVER
 70
    25
  9
$DWGCODEPAGE
  3
ANSI_1252
  9
$INSBASE
 10
0.0
 20
0.0
 30
0.0
  9
$EXTMIN
 10
-13.00861
 20
-9.08114
 30
0.0
  9
$EXTMAX
 10
-7.17199
 20
-3.26514
 30
0.0
  9
$LIMMIN
 10
0.0
 20
0.0
  9
$LIMMAX
 10
12.0
 20
9.0
  9
$ORTHOMODE
 70
     0
  9
$REGENMODE
 70
     1
  9
$FILLMODE
 70
     1
  9
$QTEXTMODE
 70
     0
  9
$MIRRTEXT
 70
     1
  9
$LTSCALE
 40
1.0
  9
$ATTMODE
 70
     1
  9
$TEXTSIZE
 40
0.2
  9
$TRACEWID
 40
0.05
  9
$TEXTSTYLE
  7
Standard
  9
$CLAYER
  8
0
  9
$CELTYPE
  6
ByLayer
  9
$CECOLOR
 62
   256
  9
$CELTSCALE
 40
1.0
  9
$DISPSILH
 70
     0
  9
$DIMSCALE
 40
1.0
  9
$DIMASZ
 40
0.18
  9
$DIMEXO
 40
0.0625
  9
$DIMDLI
 40
0.38
  9
$DIMRND
 40
0.0
  9
$DIMDLE
 40
0.0
  9
$DIMEXE
 40
0.18
  9
$DIMTP
 40
0.0
  9
$DIMTM
 40
0.0
  9
$DIMTXT
 40
0.18
  9
$DIMCEN
 40
0.09
  9
$DIMTSZ
 40
0.0
  9
$DIMTOL
 70
     0
  9
$DIMLIM
 70
     0
  9
$DIMTIH
 70
     1
  9
$DIMTOH
 70
     1
  9
$DIMSE1
 70
     0
  9
$DIMSE2
 70
     0
  9
$DIMTAD
 70
     0
  9
$DIMZIN
 70
     0
  9
$DIMBLK
  1

  9
$DIMASO
 70
     1
  9
$DIMSHO
 70
     1
  9
$DIMPOST
  1

  9
$DIMAPOST
  1

  9
$DIMALT
 70
     0
  9
$DIMALTD
 70
     2
  9
$DIMALTF
 40
25.4
  9
$DIMLFAC
 40
1.0
  9
$DIMTOFL
 70
     0
  9
$DIMTVP
 40
0.0
  9
$DIMTIX
 70
     0
  9
$DIMSOXD
 70
     0
  9
$DIMSAH
 70
     0
  9
$DIMBLK1
  1

  9
$DIMBLK2
  1

  9
$DIMSTYLE
  2
Standard
  9
$DIMCLRD
 70
     0
  9
$DIMCLRE
 70
     0
  9
$DIMCLRT
 70
     0
  9
$DIMTFAC
 40
1.0
  9
$DIMGAP
 40
0.09
  9
$DIMJUST
 70
     0
  9
$DIMSD1
 70
     0
  9
$DIMSD2
 70
     0
  9
$DIMTOLJ
 70
     1
  9
$DIMTZIN
 70
     0
  9
$DIMALTZ
 70
     0
  9
$DIMALTTZ
 70
     0
  9
$DIMUPT
 70
     0
  9
$DIMDEC
 70
     4
  9
$DIMTDEC
 70
     4
  9
$DIMALTU
 70
     2
  9
$DIMALTTD
 70
     2
  9
$DIMTXSTY
  7
Standard
  9
$DIMAUNIT
 70
     0
  9
$DIMADEC
 70
     0
  9
$DIMALTRND
 40
0.0
  9
$DIMAZIN
 70
     0
  9
$DIMDSEP
 70
    46
  9
$DIMATFIT
 70
     3
  9
$DIMFRAC
 70
     0
  9
$DIMLDRBLK
  1

  9
$DIMLUNIT
 70
     2
  9
$DIMLWD
 70
    -2
  9
$DIMLWE
 70
    -2
  9
$DIMTMOVE
 70
     0
  9
$DIMFXL
 40
1.0
  9
$DIMFXLON
 70
     0
  9
$DIMJOGANG
 40
0.7853981633974483
  9
$DIMTFILL
 70
     0
  9
$DIMTFILLCLR
 70
     0
  9
$DIMARCSYM
 70
     0
  9
$DIMLTYPE
  6

  9
$DIMLTEX1
  6

  9
$DIMLTEX2
  6

  9
$LUNITS
 70
     2
  9
$LUPREC
 70
     4
  9
$SKETCHINC
 40
0.1
  9
$FILLETRAD
 40
0.5
  9
$AUNITS
 70
     0
  9
$AUPREC
 70
     0
  9
$MENU
  1
.
  9
$ELEVATION
 40
0.0
  9
$PELEVATION
 40
0.0
  9
$THICKNESS
 40
0.0
  9
$LIMCHECK
 70
     0
  9
$CHAMFERA
 40
0.5
  9
$CHAMFERB
 40
0.5
  9
$CHAMFERC
 40
1.0
  9
$CHAMFERD
 40
0.0
  9
$SKPOLY
 70
     0
  9
$TDCREATE
 40
2460555.054271157
  9
$TDUCREATE
 40
2460555.012604491
  9
$TDUPDATE
 40
2460555.054271181
  9
$TDUUPDATE
 40
2460555.012604514
  9
$TDINDWG
 40
0.0000000116
  9
$TDUSRTIMER
 40
0.0000000116
  9
$USRTIMER
 70
     1
  9
$ANGBASE
 50
0.0
  9
$ANGDIR
 70
     0
  9
$PDMODE
 70
     0
  9
$PDSIZE
 40
0.0
  9
$PLINEWID
 40
0.0
  9
$SPLFRAME
 70
     0
  9
$SPLINETYPE
 70
     6
  9
$SPLINESEGS
 70
     8
  9
$HANDSEED
  5
6C
  9
$SURFTAB1
 70
     6
  9
$SURFTAB2
 70
     6
  9
$SURFTYPE
 70
     6
  9
$SURFU
 70
     6
  9
$SURFV
 70
     6
  9
$UCSBASE
  2

  9
$UCSNAME
  2

  9
$UCSORG
 10
0.0
 20
0.0
 30
0.0
  9
$UCSXDIR
 10
1.0
 20
0.0
 30
0.0
  9
$UCSYDIR
 10
0.0
 20
1.0
 30
0.0
  9
$UCSORTHOREF
  2

  9
$UCSORTHOVIEW
 70
     0
  9
$UCSORGTOP
 10
0.0
 20
0.0
 30
0.0
  9
$UCSORGBOTTOM
 10
0.0
 20
0.0
 30
0.0
  9
$UCSORGLEFT
 10
0.0
 20
0.0
 30
0.0
  9
$UCSORGRIGHT
 10
0.0
 20
0.0
 30
0.0
  9
$UCSORGFRONT
 10
0.0
 20
0.0
 30
0.0
  9
$UCSORGBACK
 10
0.0
 20
0.0
 30
0.0
  9
$PUCSBASE
  2

  9
$PUCSNAME
  2

  9
$PUCSORG
 10
0.0
 20
0.0
 30
0.0
  9
$PUCSXDIR
 10
1.0
 20
0.0
 30
0.0
  9
$PUCSYDIR
 10
0.0
 20
1.0
 30
0.0
  9
$PUCSORTHOREF
  2

  9
$PUCSORTHOVIEW
 70
     0
  9
$PUCSORGTOP
 10
0.0
 20
0.0
 30
0.0
  9
$PUCSORGBOTTOM
 10
0.0
 20
0.0
 30
0.0
  9
$PUCSORGLEFT
 10
0.0
 20
0.0
 30
0.0
  9
$PUCSORGRIGHT
 10
0.0
 20
0.0
 30
0.0
  9
$PUCSORGFRONT
 10
0.0
 20
0.0
 30
0.0
  9
$PUCSORGBACK
 10
0.0
 20
0.0
 30
0.0
  9
$USERI1
 70
     0
  9
$USERI2
 70
     0
  9
$USERI3
 70
     0
  9
$USERI4
 70
     0
  9
$USERI5
 70
     0
  9
$USERR1
 40
0.0
  9
$USERR2
 40
0.0
  9
$USERR3
 40
0.0
  9
$USERR4
 40
0.0
  9
$USERR5
 40
0.0
  9
$WORLDVIEW
 70
     1
  9
$SHADEDGE
 70
     3
  9
$SHADEDIF
 70
    70
  9
$TILEMODE
 70
     1
  9
$MAXACTVP
 70
    64
  9
$PINSBASE
 10
0.0
 20
0.0
 30
0.0
  9
$PLIMCHECK
 70
     0
  9
$PEXTMIN
 10
1.000000000000000E+20
 20
1.000000000000000E+20
 30
1.000000000000000E+20
  9
$PEXTMAX
 10
-1.000000000000000E+20
 20
-1.000000000000000E+20
 30
-1.000000000000000E+20
  9
$PLIMMIN
 10
0.0
 20
0.0
  9
$PLIMMAX
 10
12.0
 20
9.0
  9
$UNITMODE
 70
     0
  9
$VISRETAIN
 70
     1
  9
$PLINEGEN
 70
     0
  9
$PSLTSCALE
 70
     1
  9
$TREEDEPTH
 70
  3020
  9
$CMLSTYLE
  2
Standard
  9
$CMLJUST
 70
     0
  9
$CMLSCALE
 40
1.0
  9
$PROXYGRAPHICS
 70
     1
  9
$MEASUREMENT
 70
     0
  9
$CELWEIGHT
370
    -1
  9
$ENDCAPS
280
     0
  9
$JOINSTYLE
280
     0
  9
$LWDISPLAY
290
     0
  9
$INSUNITS
 70
     5
  9
$HYPERLINKBASE
  1

  9
$STYLESHEET
  1

  9
$XEDIT
290
     1
  9
$CEPSNTYPE
380
     0
  9
$PSTYLEMODE
290
     1
  9
$FINGERPRINTGUID
  2
{7BC7670C-D4A1-4C11-8CD5-7EF8BDB2CC9F}
  9
$VERSIONGUID
  2
{FAEB1C32-E019-11D5-929B-00C0DF256EC4}
  9
$EXTNAMES
290
     1
  9
$PSVPSCALE
 40
0.0
  9
$OLESTARTUP
290
     0
  9
$SORTENTS
280
   127
  9
$INDEXCTL
280
     0
  9
$HIDETEXT
280
     1
  9
$XCLIPFRAME
290
     0
  9
$HALOGAP
280
     0
  9
$OBSCOLOR
 70
   257
  9
$OBSLTYPE
280
     0
  9
$INTERSECTIONDISPLAY
280
     0
  9
$INTERSECTIONCOLOR
 70
   257
  9
$DIMASSOC
280
     2
  9
$PROJECTNAME
  1

  9
$CAMERADISPLAY
290
     0
  9
$LENSLENGTH
 40
50.0
  9
$CAMERAHEIGHT
 40
0.0
  9
$STEPSPERSEC
 40
2.0
  9
$STEPSIZE
 40
6.0
  9
$3DDWFPREC
 40
2.0
  9
$PSOLWIDTH
 40
0.25
  9
$PSOLHEIGHT
 40
4.0
  9
$LOFTANG1
 40
1.570796326794897
  9
$LOFTANG2
 40
1.570796326794897
  9
$LOFTMAG1
 40
0.0
  9
$LOFTMAG2
 40
0.0
  9
$LOFTPARAM
 70
     7
  9
$LOFTNORMALS
280
     1
  9
$LATITUDE
 40
37.795
  9
$LONGITUDE
 40
-122.394
  9
$NORTHDIRECTION
 40
0.0
  9
$TIMEZONE
 70
 -8000
  9
$LIGHTGLYPHDISPLAY
280
     1
  9
$TILEMODELIGHTSYNCH
280
     1
  9
$SOLIDHIST
280
     1
  9
$SHOWHIST
280
     1
  9
$DWFFRAME
280
     2
  9
$DGNFRAME
280
     2
  9
$REALWORLDSCALE
290
     1
  9
$INTERFERECOLOR
 62
   256
  9
$CSHADOW
280
     0
  9
$SHADOWPLANELOCATION
 40
0.0
  0
ENDSEC
  0
SECTION
  2
CLASSES
  0
CLASS
  1
ACDBDICTIONARYWDFLT
  2
AcDbDictionaryWithDefault
  3
ObjectDBX Classes
 90
        0
 91
        4
280
     0
281
     0
  0
CLASS
  1
VISUALSTYLE
  2
AcDbVisualStyle
  3
ObjectDBX Classes
 90
     4095
 91
        4
280
     0
281
     0
  0
CLASS
  1
MATERIAL
  2
AcDbMaterial
  3
ObjectDBX Classes
 90
     1153
 91
        4
280
     0
281
     0
  0
ENDSEC
  0
SECTION
  2
TABLES
  0
TABLE
  2
VPORT
  5
8
330
0
100
AcDbSymbolTable
 70
     1
  0
VPORT
  5
29
330
8
100
AcDbSymbolTableRecord
100
AcDbViewportTableRecord
  2
*Active
 70
     0
 10
0.0
 20
0.0
 11
1.0
 21
1.0
 12
10.42990654205607
 22
4.5
 13
0.0
 23
0.0
 14
0.5
 24
0.5
 15
0.5
 25
0.5
 16
0.0
 26
0.0
 36
1.0
 17
0.0
 27
0.0
 37
0.0
 40
9.0
 41
1.972972972850329
 42
50.0
 43
0.0
 44
0.0
 50
0.0
 51
0.0
 71
     0
 72
   100
 73
     1
 74
     3
 75
     0
 76
     0
 77
     0
 78
     0
281
     0
 65
     1
110
0.0
120
0.0
130
0.0
111
1.0
121
0.0
131
0.0
112
0.0
122
1.0
132
0.0
 79
     0
146
0.0
 60
     3
 61
     5
292
     1
282
     1
141
0.0
142
0.0
 63
   250
  0
ENDTAB
  0
TABLE
  2
LTYPE
  5
5
330
0
100
AcDbSymbolTable
 70
     1
  0
LTYPE
  5
14
330
5
100
AcDbSymbolTableRecord
100
AcDbLinetypeTableRecord
  2
ByBlock
 70
     0
  3

 72
    65
 73
     0
 40
0.0
  0
LTYPE
  5
15
330
5
100
AcDbSymbolTableRecord
100
AcDbLinetypeTableRecord
  2
ByLayer
 70
     0
  3

 72
    65
 73
     0
 40
0.0
  0
LTYPE
  5
16
330
5
100
AcDbSymbolTableRecord
100
AcDbLinetypeTableRecord
  2
Continuous
 70
     0
  3
Solid line
 72
    65
 73
     0
 40
0.0
  0
ENDTAB
  0
TABLE
  2
LAYER
  5
2
330
0
100
AcDbSymbolTable
 70
     2
  0
LAYER
  5
10
330
2
100
AcDbSymbolTableRecord
100
AcDbLayerTableRecord
  2
0
 70
     0
 62
     7
  6
Continuous
370
    -3
390
F
347
3E
  0
LAYER
  5
40
330
2
100
AcDbSymbolTableRecord
100
AcDbLayerTableRecord
  2
Layer 1
 70
     0
 62
     7
  6
Continuous
370
    -3
390
F
347
3E
  0
ENDTAB
  0
TABLE
  2
STYLE
  5
3
330
0
100
AcDbSymbolTable
 70
     1
  0
STYLE
  5
11
330
3
100
AcDbSymbolTableRecord
100
AcDbTextStyleTableRecord
  2
Standard
 70
     0
 40
0.0
 41
1.0
 50
0.0
 71
     0
 42
0.2
  3
txt
  4

  0
ENDTAB
  0
TABLE
  2
VIEW
  5
6
330
0
100
AcDbSymbolTable
 70
     0
  0
ENDTAB
  0
TABLE
  2
UCS
  5
7
330
0
100
AcDbSymbolTable
 70
     0
  0
ENDTAB
  0
TABLE
  2
APPID
  5
9
330
0
100
AcDbSymbolTable
 70
     2
  0
APPID
  5
12
330
9
100
AcDbSymbolTableRecord
100
AcDbRegAppTableRecord
  2
ACAD
 70
     0
  0
APPID
  5
3F
330
9
100
AcDbSymbolTableRecord
100
AcDbRegAppTableRecord
  2
ODA
 70
     0
  0
ENDTAB
  0
TABLE
  2
DIMSTYLE
  5
A
330
0
100
AcDbSymbolTable
 70
     1
100
AcDbDimStyleTable
  0
DIMSTYLE
105
27
330
A
100
AcDbSymbolTableRecord
100
AcDbDimStyleTableRecord
  2
Standard
 70
     0
178
     0
340
11
  0
ENDTAB
  0
TABLE
  2
BLOCK_RECORD
  5
1
330
0
100
AcDbSymbolTable
 70
     1
  0
BLOCK_RECORD
  5
1F
330
1
100
AcDbSymbolTableRecord
100
AcDbBlockTableRecord
  2
*Model_Space
340
22
 70
     0
280
     1
281
     0
  0
BLOCK_RECORD
  5
1B
330
1
100
AcDbSymbolTableRecord
100
AcDbBlockTableRecord
  2
*Paper_Space
340
1E
 70
     0
280
     1
281
     0
  0
BLOCK_RECORD
  5
23
330
1
100
AcDbSymbolTableRecord
100
AcDbBlockTableRecord
  2
*Paper_Space0
340
26
 70
     0
280
     1
281
     0
  0
ENDTAB
  0
ENDSEC
  0
SECTION
  2
BLOCKS
  0
BLOCK
  5
20
330
1F
100
AcDbEntity
  8
0
100
AcDbBlockBegin
  2
*Model_Space
 70
     0
 10
0.0
 20
0.0
 30
0.0
  3
*Model_Space
  1

  0
ENDBLK
  5
21
330
1F
100
AcDbEntity
  8
0
100
AcDbBlockEnd
  0
BLOCK
  5
1C
330
1B
100
AcDbEntity
 67
     1
  8
0
100
AcDbBlockBegin
  2
*Paper_Space
 70
     0
 10
0.0
 20
0.0
 30
0.0
  3
*Paper_Space
  1

  0
ENDBLK
  5
1D
330
1B
100
AcDbEntity
 67
     1
  8
0
100
AcDbBlockEnd
  0
BLOCK
  5
24
330
23
100
AcDbEntity
  8
0
100
AcDbBlockBegin
  2
*Paper_Space0
 70
     0
 10
0.0
 20
0.0
 30
0.0
  3
*Paper_Space0
  1

  0
ENDBLK
  5
25
330
23
100
AcDbEntity
  8
0
100
AcDbBlockEnd
  0
ENDSEC
  0
SECTION
  2
ENTITIES
  0
SPLINE
  5
41
330
1F
100
AcDbEntity
  8
Layer 1
100
AcDbSpline
210
0.0
220
0.0
230
1.0
 70
    11
 71
     3
 72
   108
 73
   104
 74
     0
 42
0.0000000001
 43
0.0000000001
 12
1.0
 22
0.0
 32
0.0
 13
1.0
 23
0.0
 33
0.0
 40
0.0
 40
0.0
 40
0.0
 40
0.0
 40
0.037037037037037
 40
0.037037037037037
 40
0.037037037037037
 40
0.037037037037037
 40
0.0740740740740741
 40
0.0740740740740741
 40
0.0740740740740741
 40
0.0740740740740741
 40
0.1111111111111111
 40
0.1111111111111111
 40
0.1111111111111111
 40
0.1111111111111111
 40
0.1481481481481481
 40
0.1481481481481481
 40
0.1481481481481481
 40
0.1481481481481481
 40
0.1851851851851852
 40
0.1851851851851852
 40
0.1851851851851852
 40
0.1851851851851852
 40
0.2222222222222222
 40
0.2222222222222222
 40
0.2222222222222222
 40
0.2222222222222222
 40
0.2592592592592592
 40
0.2592592592592592
 40
0.2592592592592592
 40
0.2592592592592592
 40
0.2962962962962963
 40
0.2962962962962963
 40
0.2962962962962963
 40
0.2962962962962963
 40
0.3333333333333333
 40
0.3333333333333333
 40
0.3333333333333333
 40
0.3333333333333333
 40
0.3703703703703703
 40
0.3703703703703703
 40
0.3703703703703703
 40
0.3703703703703703
 40
0.4074074074074074
 40
0.4074074074074074
 40
0.4074074074074074
 40
0.4074074074074074
 40
0.4444444444444444
 40
0.4444444444444444
 40
0.4444444444444444
 40
0.4444444444444444
 40
0.4814814814814815
 40
0.4814814814814815
 40
0.4814814814814815
 40
0.4814814814814815
 40
0.5185185185185185
 40
0.5185185185185185
 40
0.5185185185185185
 40
0.5185185185185185
 40
0.5555555555555556
 40
0.5555555555555556
 40
0.5555555555555556
 40
0.5555555555555556
 40
0.5925925925925926
 40
0.5925925925925926
 40
0.5925925925925926
 40
0.5925925925925926
 40
0.6296296296296297
 40
0.6296296296296297
 40
0.6296296296296297
 40
0.6296296296296297
 40
0.6666666666666666
 40
0.6666666666666666
 40
0.6666666666666666
 40
0.6666666666666666
 40
0.7037037037037037
 40
0.7037037037037037
 40
0.7037037037037037
 40
0.7037037037037037
 40
0.7407407407407407
 40
0.7407407407407407
 40
0.7407407407407407
 40
0.7407407407407407
 40
0.7777777777777778
 40
0.7777777777777778
 40
0.7777777777777778
 40
0.7777777777777778
 40
0.8148148148148148
 40
0.8148148148148148
 40
0.8148148148148148
 40
0.8148148148148148
 40
0.8518518518518519
 40
0.8518518518518519
 40
0.8518518518518519
 40
0.8518518518518519
 40
0.8888888888888888
 40
0.8888888888888888
 40
0.8888888888888888
 40
0.8888888888888888
 40
0.9259259259259259
 40
0.9259259259259259
 40
0.9259259259259259
 40
0.9259259259259259
 40
1.0
 40
1.0
 40
1.0
 40
1.0
 10
-9.04773
 20
-5.79189
 30
0.0
 10
-8.99622
 20
-5.87311
 30
0.0
 10
-8.95568
 20
-5.96196
 30
0.0
 10
-8.9282
 20
-6.05632
 30
0.0
 10
-8.9282
 20
-6.05632
 30
0.0
 10
-8.90128
 20
-6.14883
 30
0.0
 10
-8.88683
 20
-6.24627
 30
0.0
 10
-8.88683
 20
-6.3466
 30
0.0
 10
-8.88683
 20
-6.3466
 30
0.0
 10
-8.88683
 20
-6.43669
 30
0.0
 10
-8.89852
 20
-6.52453
 30
0.0
 10
-8.92045
 20
-6.60861
 30
0.0
 10
-8.92045
 20
-6.60861
 30
0.0
 10
-8.94307
 20
-6.69533
 30
0.0
 10
-8.97648
 20
-6.77743
 30
0.0
 10
-9.01909
 20
-6.85334
 30
0.0
 10
-9.01909
 20
-6.85334
 30
0.0
 10
-9.02505
 20
-6.86398
 30
0.0
 10
-9.03433
 20
-6.87158
 30
0.0
 10
-9.0449
 20
-6.8756
 30
0.0
 10
-9.0449
 20
-6.8756
 30
0.0
 10
-9.08307
 20
-6.89315
 30
0.0
 10
-9.12345
 20
-6.90684
 30
0.0
 10
-9.16547
 20
-6.91614
 30
0.0
 10
-9.16547
 20
-6.91614
 30
0.0
 10
-9.18496
 20
-6.92045
 30
0.0
 10
-9.20468
 20
-6.92383
 30
0.0
 10
-9.22458
 20
-6.92623
 30
0.0
 10
-9.22458
 20
-6.92623
 30
0.0
 10
-9.2152
 20
-6.92052
 30
0.0
 10
-9.20661
 20
-6.91368
 30
0.0
 10
-9.19893
 20
-6.90596
 30
0.0
 10
-9.19893
 20
-6.90596
 30
0.0
 10
-9.18269
 20
-6.88966
 30
0.0
 10
-9.17043
 20
-6.86924
 30
0.0
 10
-9.16303
 20
-6.84732
 30
0.0
 10
-9.16303
 20
-6.84732
 30
0.0
 10
-9.1557
 20
-6.82562
 30
0.0
 10
-9.15312
 20
-6.80205
 30
0.0
 10
-9.15615
 20
-6.77926
 30
0.0
 10
-9.15615
 20
-6.77926
 30
0.0
 10
-9.15919
 20
-6.75643
 30
0.0
 10
-9.16762
 20
-6.73446
 30
0.0
 10
-9.1822
 20
-6.71572
 30
0.0
 10
-9.1822
 20
-6.71572
 30
0.0
 10
-9.1822
 20
-6.71572
 30
0.0
 10
-9.18229
 20
-6.71579
 30
0.0
 10
-9.18229
 20
-6.71579
 30
0.0
 10
-9.18229
 20
-6.71579
 30
0.0
 10
-9.19991
 20
-6.69315
 30
0.0
 10
-9.22371
 20
-6.67814
 30
0.0
 10
-9.24965
 20
-6.67038
 30
0.0
 10
-9.24965
 20
-6.67038
 30
0.0
 10
-9.27217
 20
-6.66365
 30
0.0
 10
-9.29654
 20
-6.66239
 30
0.0
 10
-9.31972
 20
-6.66635
 30
0.0
 10
-9.31972
 20
-6.66635
 30
0.0
 10
-9.34339
 20
-6.6704
 30
0.0
 10
-9.36624
 20
-6.67993
 30
0.0
 10
-9.38525
 20
-6.69469
 30
0.0
 10
-9.38525
 20
-6.69469
 30
0.0
 10
-9.40545
 20
-6.71038
 30
0.0
 10
-9.42131
 20
-6.73182
 30
0.0
 10
-9.4295
 20
-6.7587
 30
0.0
 10
-9.4295
 20
-6.7587
 30
0.0
 10
-9.43855
 20
-6.78435
 30
0.0
 10
-9.43872
 20
-6.81022
 30
0.0
 10
-9.43233
 20
-6.83429
 30
0.0
 10
-9.43233
 20
-6.83429
 30
0.0
 10
-9.42613
 20
-6.85764
 30
0.0
 10
-9.41372
 20
-6.87907
 30
0.0
 10
-9.39743
 20
-6.89654
 30
0.0
 10
-9.39743
 20
-6.89654
 30
0.0
 10
-9.38596
 20
-6.90883
 30
0.0
 10
-9.37241
 20
-6.91935
 30
0.0
 10
-9.3576
 20
-6.92739
 30
0.0
 10
-9.3576
 20
-6.92739
 30
0.0
 10
-9.49907
 20
-6.91295
 30
0.0
 10
-9.62606
 20
-6.84949
 30
0.0
 10
-9.72126
 20
-6.75428
 30
0.0
 10
-9.72126
 20
-6.75428
 30
0.0
 10
-9.83014
 20
-6.6454
 30
0.0
 10
-9.8975
 20
-6.49495
 30
0.0
 10
-9.8975
 20
-6.32881
 30
0.0
 10
-9.8975
 20
-6.32881
 30
0.0
 10
-9.8975
 20
-6.16266
 30
0.0
 10
-9.83014
 20
-6.01223
 30
0.0
 10
-9.72126
 20
-5.90334
 30
0.0
 10
-9.72126
 20
-5.90334
 30
0.0
 10
-9.61238
 20
-5.79446
 30
0.0
 10
-9.46193
 20
-5.7271
 30
0.0
 10
-9.2958
 20
-5.7271
 30
0.0
 10
-9.2958
 20
-5.7271
 30
0.0
 10
-9.25726
 20
-5.7271
 30
0.0
 10
-9.21922
 20
-5.73083
 30
0.0
 10
-9.18208
 20
-5.73795
 30
0.0
 10
-9.18208
 20
-5.73795
 30
0.0
 10
-9.14438
 20
-5.74517
 30
0.0
 10
-9.10776
 20
-5.756
 30
0.0
 10
-9.07265
 20
-5.77003
 30
0.0
 10
-9.07265
 20
-5.77003
 30
0.0
 10
-9.06166
 20
-5.77443
 30
0.0
 10
-9.0531
 20
-5.78231
 30
0.0
 10
-9.04773
 20
-5.79189
 30
0.0
  0
SPLINE
  5
42
330
1F
100
AcDbEntity
  8
Layer 1
100
AcDbSpline
210
0.0
220
0.0
230
1.0
 70
    11
 71
     3
 72
   140
 73
   136
 74
     0
 42
0.0000000001
 43
0.0000000001
 12
1.0
 22
0.0
 32
0.0
 13
1.0
 23
0.0
 33
0.0
 40
0.0
 40
0.0
 40
0.0
 40
0.0
 40
0.0285714285714286
 40
0.0285714285714286
 40
0.0285714285714286
 40
0.0285714285714286
 40
0.0571428571428571
 40
0.0571428571428571
 40
0.0571428571428571
 40
0.0571428571428571
 40
0.0857142857142857
 40
0.0857142857142857
 40
0.0857142857142857
 40
0.0857142857142857
 40
0.1142857142857143
 40
0.1142857142857143
 40
0.1142857142857143
 40
0.1142857142857143
 40
0.1428571428571428
 40
0.1428571428571428
 40
0.1428571428571428
 40
0.1428571428571428
 40
0.1714285714285714
 40
0.1714285714285714
 40
0.1714285714285714
 40
0.1714285714285714
 40
0.2
 40
0.2
 40
0.2
 40
0.2
 40
0.2285714285714286
 40
0.2285714285714286
 40
0.2285714285714286
 40
0.2285714285714286
 40
0.2571428571428571
 40
0.2571428571428571
 40
0.2571428571428571
 40
0.2571428571428571
 40
0.2857142857142857
 40
0.2857142857142857
 40
0.2857142857142857
 40
0.2857142857142857
 40
0.3142857142857143
 40
0.3142857142857143
 40
0.3142857142857143
 40
0.3142857142857143
 40
0.3428571428571429
 40
0.3428571428571429
 40
0.3428571428571429
 40
0.3428571428571429
 40
0.3714285714285714
 40
0.3714285714285714
 40
0.3714285714285714
 40
0.3714285714285714
 40
0.4
 40
0.4
 40
0.4
 40
0.4
 40
0.4285714285714285
 40
0.4285714285714285
 40
0.4285714285714285
 40
0.4285714285714285
 40
0.4571428571428571
 40
0.4571428571428571
 40
0.4571428571428571
 40
0.4571428571428571
 40
0.4857142857142857
 40
0.4857142857142857
 40
0.4857142857142857
 40
0.4857142857142857
 40
0.5142857142857142
 40
0.5142857142857142
 40
0.5142857142857142
 40
0.5142857142857142
 40
0.5428571428571428
 40
0.5428571428571428
 40
0.5428571428571428
 40
0.5428571428571428
 40
0.5714285714285714
 40
0.5714285714285714
 40
0.5714285714285714
 40
0.5714285714285714
 40
0.6
 40
0.6
 40
0.6
 40
0.6
 40
0.6285714285714286
 40
0.6285714285714286
 40
0.6285714285714286
 40
0.6285714285714286
 40
0.6571428571428571
 40
0.6571428571428571
 40
0.6571428571428571
 40
0.6571428571428571
 40
0.6857142857142857
 40
0.6857142857142857
 40
0.6857142857142857
 40
0.6857142857142857
 40
0.7142857142857143
 40
0.7142857142857143
 40
0.7142857142857143
 40
0.7142857142857143
 40
0.7428571428571429
 40
0.7428571428571429
 40
0.7428571428571429
 40
0.7428571428571429
 40
0.7714285714285715
 40
0.7714285714285715
 40
0.7714285714285715
 40
0.7714285714285715
 40
0.8
 40
0.8
 40
0.8
 40
0.8
 40
0.8285714285714286
 40
0.8285714285714286
 40
0.8285714285714286
 40
0.8285714285714286
 40
0.8571428571428571
 40
0.8571428571428571
 40
0.8571428571428571
 40
0.8571428571428571
 40
0.8857142857142857
 40
0.8857142857142857
 40
0.8857142857142857
 40
0.8857142857142857
 40
0.9142857142857143
 40
0.9142857142857143
 40
0.9142857142857143
 40
0.9142857142857143
 40
0.9428571428571428
 40
0.9428571428571428
 40
0.9428571428571428
 40
0.9428571428571428
 40
1.0
 40
1.0
 40
1.0
 40
1.0
 10
-10.82056
 20
-6.86815
 30
0.0
 10
-10.8659
 20
-6.79041
 30
0.0
 10
-10.90143
 20
-6.70647
 30
0.0
 10
-10.92539
 20
-6.61807
 30
0.0
 10
-10.92539
 20
-6.61807
 30
0.0
 10
-10.94887
 20
-6.53143
 30
0.0
 10
-10.96142
 20
-6.44039
 30
0.0
 10
-10.96142
 20
-6.3466
 30
0.0
 10
-10.96142
 20
-6.3466
 30
0.0
 10
-10.96142
 20
-6.24301
 30
0.0
 10
-10.94614
 20
-6.1428
 30
0.0
 10
-10.91773
 20
-6.04816
 30
0.0
 10
-10.91773
 20
-6.04816
 30
0.0
 10
-10.88835
 20
-5.95031
 30
0.0
 10
-10.84488
 20
-5.85849
 30
0.0
 10
-10.78969
 20
-5.77506
 30
0.0
 10
-10.78969
 20
-5.77506
 30
0.0
 10
-10.78313
 20
-5.76514
 30
0.0
 10
-10.77363
 20
-5.75835
 30
0.0
 10
-10.7631
 20
-5.75503
 30
0.0
 10
-10.7631
 20
-5.75503
 30
0.0
 10
-10.7631
 20
-5.75503
 30
0.0
 10
-10.76313
 20
-5.75494
 30
0.0
 10
-10.76313
 20
-5.75494
 30
0.0
 10
-10.76313
 20
-5.75494
 30
0.0
 10
-10.73427
 20
-5.74583
 30
0.0
 10
-10.70433
 20
-5.73881
 30
0.0
 10
-10.67357
 20
-5.73409
 30
0.0
 10
-10.67357
 20
-5.73409
 30
0.0
 10
-10.64358
 20
-5.7295
 30
0.0
 10
-10.61294
 20
-5.7271
 30
0.0
 10
-10.5819
 20
-5.7271
 30
0.0
 10
-10.5819
 20
-5.7271
 30
0.0
 10
-10.41576
 20
-5.7271
 30
0.0
 10
-10.26531
 20
-5.79446
 30
0.0
 10
-10.15643
 20
-5.90334
 30
0.0
 10
-10.15643
 20
-5.90334
 30
0.0
 10
-10.04755
 20
-6.01223
 30
0.0
 10
-9.98019
 20
-6.16266
 30
0.0
 10
-9.98019
 20
-6.32881
 30
0.0
 10
-9.98019
 20
-6.32881
 30
0.0
 10
-9.98019
 20
-6.49495
 30
0.0
 10
-10.04755
 20
-6.6454
 30
0.0
 10
-10.15643
 20
-6.75428
 30
0.0
 10
-10.15643
 20
-6.75428
 30
0.0
 10
-10.24239
 20
-6.84025
 30
0.0
 10
-10.35427
 20
-6.90032
 30
0.0
 10
-10.47932
 20
-6.92181
 30
0.0
 10
-10.47932
 20
-6.92181
 30
0.0
 10
-10.47932
 20
-6.92181
 30
0.0
 10
-10.47643
 20
-6.91979
 30
0.0
 10
-10.47643
 20
-6.91979
 30
0.0
 10
-10.47643
 20
-6.91979
 30
0.0
 10
-10.47643
 20
-6.91979
 30
0.0
 10
-10.47611
 20
-6.91955
 30
0.0
 10
-10.47611
 20
-6.91955
 30
0.0
 10
-10.47611
 20
-6.91955
 30
0.0
 10
-10.47611
 20
-6.91955
 30
0.0
 10
-10.47607
 20
-6.91952
 30
0.0
 10
-10.47607
 20
-6.91952
 30
0.0
 10
-10.47607
 20
-6.91952
 30
0.0
 10
-10.47607
 20
-6.91952
 30
0.0
 10
-10.47552
 20
-6.91913
 30
0.0
 10
-10.47552
 20
-6.91913
 30
0.0
 10
-10.47552
 20
-6.91913
 30
0.0
 10
-10.47552
 20
-6.91913
 30
0.0
 10
-10.47536
 20
-6.919
 30
0.0
 10
-10.47536
 20
-6.919
 30
0.0
 10
-10.47536
 20
-6.919
 30
0.0
 10
-10.47315
 20
-6.91736
 30
0.0
 10
-10.47053
 20
-6.91522
 30
0.0
 10
-10.46762
 20
-6.91273
 30
0.0
 10
-10.46762
 20
-6.91273
 30
0.0
 10
-10.46762
 20
-6.91273
 30
0.0
 10
-10.46763
 20
-6.91272
 30
0.0
 10
-10.46763
 20
-6.91272
 30
0.0
 10
-10.46763
 20
-6.91272
 30
0.0
 10
-10.46763
 20
-6.91272
 30
0.0
 10
-10.46742
 20
-6.91254
 30
0.0
 10
-10.46742
 20
-6.91254
 30
0.0
 10
-10.46742
 20
-6.91254
 30
0.0
 10
-10.44095
 20
-6.88973
 30
0.0
 10
-10.42492
 20
-6.85696
 30
0.0
 10
-10.42064
 20
-6.82316
 30
0.0
 10
-10.42064
 20
-6.82316
 30
0.0
 10
-10.41632
 20
-6.78919
 30
0.0
 10
-10.42382
 20
-6.7534
 30
0.0
 10
-10.44437
 20
-6.72477
 30
0.0
 10
-10.44437
 20
-6.72477
 30
0.0
 10
-10.44671
 20
-6.72151
 30
0.0
 10
-10.44896
 20
-6.71861
 30
0.0
 10
-10.45106
 20
-6.71617
 30
0.0
 10
-10.45106
 20
-6.71617
 30
0.0
 10
-10.45106
 20
-6.71617
 30
0.0
 10
-10.45107
 20
-6.71618
 30
0.0
 10
-10.45107
 20
-6.71618
 30
0.0
 10
-10.45107
 20
-6.71618
 30
0.0
 10
-10.45107
 20
-6.71618
 30
0.0
 10
-10.45125
 20
-6.71597
 30
0.0
 10
-10.45125
 20
-6.71597
 30
0.0
 10
-10.45125
 20
-6.71597
 30
0.0
 10
-10.4757
 20
-6.68759
 30
0.0
 10
-10.50805
 20
-6.67332
 30
0.0
 10
-10.54124
 20
-6.67053
 30
0.0
 10
-10.54124
 20
-6.67053
 30
0.0
 10
-10.56627
 20
-6.66843
 30
0.0
 10
-10.59195
 20
-6.67315
 30
0.0
 10
-10.61481
 20
-6.68342
 30
0.0
 10
-10.61481
 20
-6.68342
 30
0.0
 10
-10.63828
 20
-6.69396
 30
0.0
 10
-10.65906
 20
-6.7105
 30
0.0
 10
-10.6736
 20
-6.73169
 30
0.0
 10
-10.6736
 20
-6.73169
 30
0.0
 10
-10.69104
 20
-6.75712
 30
0.0
 10
-10.69956
 20
-6.78858
 30
0.0
 10
-10.69356
 20
-6.82389
 30
0.0
 10
-10.69356
 20
-6.82389
 30
0.0
 10
-10.68971
 20
-6.84665
 30
0.0
 10
-10.6808
 20
-6.86721
 30
0.0
 10
-10.6684
 20
-6.88453
 30
0.0
 10
-10.6684
 20
-6.88453
 30
0.0
 10
-10.65476
 20
-6.90358
 30
0.0
 10
-10.6366
 20
-6.91904
 30
0.0
 10
-10.61603
 20
-6.92953
 30
0.0
 10
-10.61603
 20
-6.92953
 30
0.0
 10
-10.64067
 20
-6.92809
 30
0.0
 10
-10.66523
 20
-6.92511
 30
0.0
 10
-10.6896
 20
-6.92069
 30
0.0
 10
-10.6896
 20
-6.92069
 30
0.0
 10
-10.72586
 20
-6.91412
 30
0.0
 10
-10.7607
 20
-6.90442
 30
0.0
 10
-10.79381
 20
-6.89196
 30
0.0
 10
-10.79381
 20
-6.89196
 30
0.0
 10
-10.80585
 20
-6.88743
 30
0.0
 10
-10.8151
 20
-6.87874
 30
0.0
 10
-10.82056
 20
-6.86815
 30
0.0
  0
SPLINE
  5
43
330
1F
100
AcDbEntity
  8
Layer 1
100
AcDbSpline
210
0.0
220
0.0
230
1.0
 70
    11
 71
     3
 72
    84
 73
    80
 74
     0
 42
0.0000000001
 43
0.0000000001
 12
1.0
 22
0.0
 32
0.0
 13
1.0
 23
0.0
 33
0.0
 40
0.0
 40
0.0
 40
0.0
 40
0.0
 40
0.0476190476190476
 40
0.0476190476190476
 40
0.0476190476190476
 40
0.0476190476190476
 40
0.0952380952380952
 40
0.0952380952380952
 40
0.0952380952380952
 40
0.0952380952380952
 40
0.1428571428571428
 40
0.1428571428571428
 40
0.1428571428571428
 40
0.1428571428571428
 40
0.1904761904761905
 40
0.1904761904761905
 40
0.1904761904761905
 40
0.1904761904761905
 40
0.2380952380952381
 40
0.2380952380952381
 40
0.2380952380952381
 40
0.2380952380952381
 40
0.2857142857142857
 40
0.2857142857142857
 40
0.2857142857142857
 40
0.2857142857142857
 40
0.3333333333333333
 40
0.3333333333333333
 40
0.3333333333333333
 40
0.3333333333333333
 40
0.3809523809523809
 40
0.3809523809523809
 40
0.3809523809523809
 40
0.3809523809523809
 40
0.4285714285714285
 40
0.4285714285714285
 40
0.4285714285714285
 40
0.4285714285714285
 40
0.4761904761904762
 40
0.4761904761904762
 40
0.4761904761904762
 40
0.4761904761904762
 40
0.5238095238095238
 40
0.5238095238095238
 40
0.5238095238095238
 40
0.5238095238095238
 40
0.5714285714285714
 40
0.5714285714285714
 40
0.5714285714285714
 40
0.5714285714285714
 40
0.6190476190476191
 40
0.6190476190476191
 40
0.6190476190476191
 40
0.6190476190476191
 40
0.6666666666666666
 40
0.6666666666666666
 40
0.6666666666666666
 40
0.6666666666666666
 40
0.7142857142857143
 40
0.7142857142857143
 40
0.7142857142857143
 40
0.7142857142857143
 40
0.7619047619047619
 40
0.7619047619047619
 40
0.7619047619047619
 40
0.7619047619047619
 40
0.8095238095238095
 40
0.8095238095238095
 40
0.8095238095238095
 40
0.8095238095238095
 40
0.8571428571428571
 40
0.8571428571428571
 40
0.8571428571428571
 40
0.8571428571428571
 40
0.9047619047619048
 40
0.9047619047619048
 40
0.9047619047619048
 40
0.9047619047619048
 40
1.0
 40
1.0
 40
1.0
 40
1.0
 10
-9.9285
 20
-7.16306
 30
0.0
 10
-10.00559
 20
-7.16289
 30
0.0
 10
-10.07555
 20
-7.13146
 30
0.0
 10
-10.12635
 20
-7.08075
 30
0.0
 10
-10.12635
 20
-7.08075
 30
0.0
 10
-10.12635
 20
-7.08075
 30
0.0
 10
-10.12644
 20
-7.08065
 30
0.0
 10
-10.12644
 20
-7.08065
 30
0.0
 10
-10.12644
 20
-7.08065
 30
0.0
 10
-10.12644
 20
-7.08065
 30
0.0
 10
-10.12654
 20
-7.08056
 30
0.0
 10
-10.12654
 20
-7.08056
 30
0.0
 10
-10.12654
 20
-7.08056
 30
0.0
 10
-10.12654
 20
-7.08056
 30
0.0
 10
-10.12679
 20
-7.0803
 30
0.0
 10
-10.12679
 20
-7.0803
 30
0.0
 10
-10.12679
 20
-7.0803
 30
0.0
 10
-10.17749
 20
-7.02939
 30
0.0
 10
-10.20885
 20
-6.95928
 30
0.0
 10
-10.20885
 20
-6.88206
 30
0.0
 10
-10.20885
 20
-6.88206
 30
0.0
 10
-10.20885
 20
-6.85445
 30
0.0
 10
-10.18646
 20
-6.83206
 30
0.0
 10
-10.15885
 20
-6.83206
 30
0.0
 10
-10.15885
 20
-6.83206
 30
0.0
 10
-10.13124
 20
-6.83206
 30
0.0
 10
-10.10885
 20
-6.85445
 30
0.0
 10
-10.10885
 20
-6.88206
 30
0.0
 10
-10.10885
 20
-6.88206
 30
0.0
 10
-10.10885
 20
-6.93217
 30
0.0
 10
-10.08866
 20
-6.97743
 30
0.0
 10
-10.05603
 20
-7.01005
 30
0.0
 10
-10.05603
 20
-7.01005
 30
0.0
 10
-10.05603
 20
-7.01005
 30
0.0
 10
-10.05584
 20
-7.01024
 30
0.0
 10
-10.05584
 20
-7.01024
 30
0.0
 10
-10.05584
 20
-7.01024
 30
0.0
 10
-10.02331
 20
-7.04278
 30
0.0
 10
-9.97821
 20
-7.06295
 30
0.0
 10
-9.92827
 20
-7.06306
 30
0.0
 10
-9.92827
 20
-7.06306
 30
0.0
 10
-9.92827
 20
-7.06306
 30
0.0
 10
-9.92785
 20
-7.06306
 30
0.0
 10
-9.92785
 20
-7.06306
 30
0.0
 10
-9.92785
 20
-7.06306
 30
0.0
 10
-9.87804
 20
-7.06295
 30
0.0
 10
-9.83293
 20
-7.0427
 30
0.0
 10
-9.80028
 20
-7.01005
 30
0.0
 10
-9.80028
 20
-7.01005
 30
0.0
 10
-9.76754
 20
-6.97731
 30
0.0
 10
-9.74727
 20
-6.93204
 30
0.0
 10
-9.74727
 20
-6.88206
 30
0.0
 10
-9.74727
 20
-6.88206
 30
0.0
 10
-9.74727
 20
-6.85445
 30
0.0
 10
-9.72488
 20
-6.83206
 30
0.0
 10
-9.69727
 20
-6.83206
 30
0.0
 10
-9.69727
 20
-6.83206
 30
0.0
 10
-9.66966
 20
-6.83206
 30
0.0
 10
-9.64727
 20
-6.85445
 30
0.0
 10
-9.64727
 20
-6.88206
 30
0.0
 10
-9.64727
 20
-6.88206
 30
0.0
 10
-9.64727
 20
-6.95964
 30
0.0
 10
-9.67874
 20
-7.02991
 30
0.0
 10
-9.72958
 20
-7.08075
 30
0.0
 10
-9.72958
 20
-7.08075
 30
0.0
 10
-9.78028
 20
-7.13145
 30
0.0
 10
-9.8503
 20
-7.16288
 30
0.0
 10
-9.92762
 20
-7.16306
 30
0.0
 10
-9.92762
 20
-7.16306
 30
0.0
 10
-9.92762
 20
-7.16306
 30
0.0
 10
-9.92785
 20
-7.16306
 30
0.0
 10
-9.92785
 20
-7.16306
 30
0.0
 10
-9.92785
 20
-7.16306
 30
0.0
 10
-9.92785
 20
-7.16306
 30
0.0
 10
-9.92827
 20
-7.16306
 30
0.0
 10
-9.92827
 20
-7.16306
 30
0.0
 10
-9.92827
 20
-7.16306
 30
0.0
 10
-9.92827
 20
-7.16306
 30
0.0
 10
-9.9285
 20
-7.16306
 30
0.0
 10
-9.9285
 20
-7.16306
 30
0.0
  0
SPLINE
  5
44
330
1F
100
AcDbEntity
  8
Layer 1
100
AcDbSpline
210
0.0
220
0.0
230
1.0
 70
    11
 71
     3
 72
    72
 73
    68
 74
     0
 42
0.0000000001
 43
0.0000000001
 12
1.0
 22
0.0
 32
0.0
 13
1.0
 23
0.0
 33
0.0
 40
0.0
 40
0.0
 40
0.0
 40
0.0
 40
0.0555555555555556
 40
0.0555555555555556
 40
0.0555555555555556
 40
0.0555555555555556
 40
0.1111111111111111
 40
0.1111111111111111
 40
0.1111111111111111
 40
0.1111111111111111
 40
0.1666666666666667
 40
0.1666666666666667
 40
0.1666666666666667
 40
0.1666666666666667
 40
0.2222222222222222
 40
0.2222222222222222
 40
0.2222222222222222
 40
0.2222222222222222
 40
0.2777777777777778
 40
0.2777777777777778
 40
0.2777777777777778
 40
0.2777777777777778
 40
0.3333333333333333
 40
0.3333333333333333
 40
0.3333333333333333
 40
0.3333333333333333
 40
0.3888888888888889
 40
0.3888888888888889
 40
0.3888888888888889
 40
0.3888888888888889
 40
0.4444444444444444
 40
0.4444444444444444
 40
0.4444444444444444
 40
0.4444444444444444
 40
0.5
 40
0.5
 40
0.5
 40
0.5
 40
0.5555555555555556
 40
0.5555555555555556
 40
0.5555555555555556
 40
0.5555555555555556
 40
0.6111111111111112
 40
0.6111111111111112
 40
0.6111111111111112
 40
0.6111111111111112
 40
0.6666666666666666
 40
0.6666666666666666
 40
0.6666666666666666
 40
0.6666666666666666
 40
0.7222222222222222
 40
0.7222222222222222
 40
0.7222222222222222
 40
0.7222222222222222
 40
0.7777777777777778
 40
0.7777777777777778
 40
0.7777777777777778
 40
0.7777777777777778
 40
0.8333333333333334
 40
0.8333333333333334
 40
0.8333333333333334
 40
0.8333333333333334
 40
0.8888888888888888
 40
0.8888888888888888
 40
0.8888888888888888
 40
0.8888888888888888
 40
1.0
 40
1.0
 40
1.0
 40
1.0
 10
-7.49547
 20
-5.28259
 30
0.0
 10
-7.46525
 20
-5.27071
 30
0.0
 10
-7.43488
 20
-5.26689
 30
0.0
 10
-7.40486
 20
-5.27203
 30
0.0
 10
-7.40486
 20
-5.27203
 30
0.0
 10
-7.29493
 20
-5.29088
 30
0.0
 10
-7.22075
 20
-5.42434
 30
0.0
 10
-7.1897
 20
-5.62483
 30
0.0
 10
-7.1897
 20
-5.62483
 30
0.0
 10
-7.16124
 20
-5.80855
 30
0.0
 10
-7.16617
 20
-6.05359
 30
0.0
 10
-7.21121
 20
-6.31629
 30
0.0
 10
-7.21121
 20
-6.31629
 30
0.0
 10
-7.21121
 20
-6.31629
 30
0.0
 10
-7.21122
 20
-6.31629
 30
0.0
 10
-7.21122
 20
-6.31629
 30
0.0
 10
-7.21122
 20
-6.31629
 30
0.0
 10
-7.21122
 20
-6.31629
 30
0.0
 10
-7.21125
 20
-6.3165
 30
0.0
 10
-7.21125
 20
-6.3165
 30
0.0
 10
-7.21125
 20
-6.3165
 30
0.0
 10
-7.25634
 20
-6.5794
 30
0.0
 10
-7.3333
 20
-6.81202
 30
0.0
 10
-7.42126
 20
-6.97558
 30
0.0
 10
-7.42126
 20
-6.97558
 30
0.0
 10
-7.51685
 20
-7.15333
 30
0.0
 10
-7.6306
 20
-7.25426
 30
0.0
 10
-7.74003
 20
-7.23667
 30
0.0
 10
-7.74003
 20
-7.23667
 30
0.0
 10
-7.74003
 20
-7.23667
 30
0.0
 10
-7.74167
 20
-7.23642
 30
0.0
 10
-7.74167
 20
-7.23642
 30
0.0
 10
-7.74167
 20
-7.23642
 30
0.0
 10
-7.78991
 20
-7.22815
 30
0.0
 10
-7.83126
 20
-7.19779
 30
0.0
 10
-7.86511
 20
-7.14938
 30
0.0
 10
-7.86511
 20
-7.14938
 30
0.0
 10
-7.91845
 20
-7.16388
 30
0.0
 10
-8.02613
 20
-7.17444
 30
0.0
 10
-8.04116
 20
-7.15846
 30
0.0
 10
-8.04116
 20
-7.15846
 30
0.0
 10
-8.0892
 20
-7.1075
 30
0.0
 10
-8.13083
 20
-7.05221
 30
0.0
 10
-8.16643
 20
-6.99362
 30
0.0
 10
-8.16643
 20
-6.99362
 30
0.0
 10
-8.32771
 20
-6.72816
 30
0.0
 10
-8.35967
 20
-6.40012
 30
0.0
 10
-8.30883
 20
-6.09897
 30
0.0
 10
-8.30883
 20
-6.09897
 30
0.0
 10
-8.25802
 20
-5.7979
 30
0.0
 10
-8.12384
 20
-5.5218
 30
0.0
 10
-7.95307
 20
-5.36077
 30
0.0
 10
-7.95307
 20
-5.36077
 30
0.0
 10
-7.91861
 20
-5.32828
 30
0.0
 10
-7.88223
 20
-5.30015
 30
0.0
 10
-7.84431
 20
-5.27711
 30
0.0
 10
-7.84431
 20
-5.27711
 30
0.0
 10
-7.83767
 20
-5.27309
 30
0.0
 10
-7.83047
 20
-5.27081
 30
0.0
 10
-7.82322
 20
-5.27013
 30
0.0
 10
-7.82322
 20
-5.27013
 30
0.0
 10
-7.82322
 20
-5.27013
 30
0.0
 10
-7.82322
 20
-5.27008
 30
0.0
 10
-7.82322
 20
-5.27008
 30
0.0
 10
-7.82322
 20
-5.27008
 30
0.0
 10
-7.8226
 20
-5.27002
 30
0.0
 10
-7.64669
 20
-5.25115
 30
0.0
 10
-7.49547
 20
-5.28259
 30
0.0
  0
SPLINE
  5
45
330
1F
100
AcDbEntity
  8
Layer 1
100
AcDbSpline
210
0.0
220
0.0
230
1.0
 70
    11
 71
     3
 72
    76
 73
    72
 74
     0
 42
0.0000000001
 43
0.0000000001
 12
1.0
 22
0.0
 32
0.0
 13
1.0
 23
0.0
 33
0.0
 40
0.0
 40
0.0
 40
0.0
 40
0.0
 40
0.0526315789473684
 40
0.0526315789473684
 40
0.0526315789473684
 40
0.0526315789473684
 40
0.1052631578947368
 40
0.1052631578947368
 40
0.1052631578947368
 40
0.1052631578947368
 40
0.1578947368421053
 40
0.1578947368421053
 40
0.1578947368421053
 40
0.1578947368421053
 40
0.2105263157894737
 40
0.2105263157894737
 40
0.2105263157894737
 40
0.2105263157894737
 40
0.2631578947368421
 40
0.2631578947368421
 40
0.2631578947368421
 40
0.2631578947368421
 40
0.3157894736842105
 40
0.3157894736842105
 40
0.3157894736842105
 40
0.3157894736842105
 40
0.3684210526315789
 40
0.3684210526315789
 40
0.3684210526315789
 40
0.3684210526315789
 40
0.4210526315789473
 40
0.4210526315789473
 40
0.4210526315789473
 40
0.4210526315789473
 40
0.4736842105263158
 40
0.4736842105263158
 40
0.4736842105263158
 40
0.4736842105263158
 40
0.5263157894736842
 40
0.5263157894736842
 40
0.5263157894736842
 40
0.5263157894736842
 40
0.5789473684210527
 40
0.5789473684210527
 40
0.5789473684210527
 40
0.5789473684210527
 40
0.631578947368421
 40
0.631578947368421
 40
0.631578947368421
 40
0.631578947368421
 40
0.6842105263157895
 40
0.6842105263157895
 40
0.6842105263157895
 40
0.6842105263157895
 40
0.7368421052631579
 40
0.7368421052631579
 40
0.7368421052631579
 40
0.7368421052631579
 40
0.7894736842105263
 40
0.7894736842105263
 40
0.7894736842105263
 40
0.7894736842105263
 40
0.8421052631578947
 40
0.8421052631578947
 40
0.8421052631578947
 40
0.8421052631578947
 40
0.8947368421052632
 40
0.8947368421052632
 40
0.8947368421052632
 40
0.8947368421052632
 40
1.0
 40
1.0
 40
1.0
 40
1.0
 10
-12.48513
 20
-5.29992
 30
0.0
 10
-12.51535
 20
-5.28804
 30
0.0
 10
-12.54572
 20
-5.28422
 30
0.0
 10
-12.57574
 20
-5.28936
 30
0.0
 10
-12.57574
 20
-5.28936
 30
0.0
 10
-12.68567
 20
-5.30821
 30
0.0
 10
-12.95985
 20
-5.44167
 30
0.0
 10
-12.9909
 20
-5.64216
 30
0.0
 10
-12.9909
 20
-5.64216
 30
0.0
 10
-13.01936
 20
-5.82588
 30
0.0
 10
-13.01443
 20
-6.07092
 30
0.0
 10
-12.96939
 20
-6.33362
 30
0.0
 10
-12.96939
 20
-6.33362
 30
0.0
 10
-12.96939
 20
-6.33362
 30
0.0
 10
-12.96938
 20
-6.33362
 30
0.0
 10
-12.96938
 20
-6.33362
 30
0.0
 10
-12.96938
 20
-6.33362
 30
0.0
 10
-12.96938
 20
-6.33362
 30
0.0
 10
-12.96935
 20
-6.33383
 30
0.0
 10
-12.96935
 20
-6.33383
 30
0.0
 10
-12.96935
 20
-6.33383
 30
0.0
 10
-12.92426
 20
-6.59673
 30
0.0
 10
-12.8473
 20
-6.82935
 30
0.0
 10
-12.75934
 20
-6.99291
 30
0.0
 10
-12.75934
 20
-6.99291
 30
0.0
 10
-12.66375
 20
-7.17066
 30
0.0
 10
-12.35
 20
-7.27159
 30
0.0
 10
-12.24057
 20
-7.254
 30
0.0
 10
-12.24057
 20
-7.254
 30
0.0
 10
-12.24057
 20
-7.254
 30
0.0
 10
-12.23893
 20
-7.25375
 30
0.0
 10
-12.23893
 20
-7.25375
 30
0.0
 10
-12.23893
 20
-7.25375
 30
0.0
 10
-12.20536
 20
-7.24799
 30
0.0
 10
-12.17512
 20
-7.23154
 30
0.0
 10
-12.14843
 20
-7.20575
 30
0.0
 10
-12.14843
 20
-7.20575
 30
0.0
 10
-12.14843
 20
-7.20575
 30
0.0
 10
-11.97186
 20
-7.19141
 30
0.0
 10
-11.97186
 20
-7.19141
 30
0.0
 10
-11.97186
 20
-7.19141
 30
0.0
 10
-11.95806
 20
-7.19033
 30
0.0
 10
-11.94602
 20
-7.18373
 30
0.0
 10
-11.93771
 20
-7.17395
 30
0.0
 10
-11.93771
 20
-7.17395
 30
0.0
 10
-11.8904
 20
-7.1235
 30
0.0
 10
-11.84934
 20
-7.06884
 30
0.0
 10
-11.81417
 20
-7.01095
 30
0.0
 10
-11.81417
 20
-7.01095
 30
0.0
 10
-11.65289
 20
-6.74549
 30
0.0
 10
-11.62093
 20
-6.41745
 30
0.0
 10
-11.67177
 20
-6.1163
 30
0.0
 10
-11.67177
 20
-6.1163
 30
0.0
 10
-11.72258
 20
-5.81523
 30
0.0
 10
-11.85676
 20
-5.53913
 30
0.0
 10
-12.02753
 20
-5.3781
 30
0.0
 10
-12.02753
 20
-5.3781
 30
0.0
 10
-12.06199
 20
-5.34561
 30
0.0
 10
-12.09837
 20
-5.31748
 30
0.0
 10
-12.13629
 20
-5.29444
 30
0.0
 10
-12.13629
 20
-5.29444
 30
0.0
 10
-12.14293
 20
-5.29042
 30
0.0
 10
-12.15013
 20
-5.28814
 30
0.0
 10
-12.15738
 20
-5.28746
 30
0.0
 10
-12.15738
 20
-5.28746
 30
0.0
 10
-12.15738
 20
-5.28746
 30
0.0
 10
-12.15738
 20
-5.28741
 30
0.0
 10
-12.15738
 20
-5.28741
 30
0.0
 10
-12.15738
 20
-5.28741
 30
0.0
 10
-12.158
 20
-5.28735
 30
0.0
 10
-12.33391
 20
-5.26848
 30
0.0
 10
-12.48513
 20
-5.29992
 30
0.0
  0
SPLINE
  5
46
330
1F
100
AcDbEntity
  8
Layer 1
100
AcDbSpline
210
0.0
220
0.0
230
1.0
 70
    11
 71
     3
 72
    36
 73
    32
 74
     0
 42
0.0000000001
 43
0.0000000001
 12
1.0
 22
0.0
 32
0.0
 13
1.0
 23
0.0
 33
0.0
 40
0.0
 40
0.0
 40
0.0
 40
0.0
 40
0.1111111111111111
 40
0.1111111111111111
 40
0.1111111111111111
 40
0.1111111111111111
 40
0.2222222222222222
 40
0.2222222222222222
 40
0.2222222222222222
 40
0.2222222222222222
 40
0.3333333333333333
 40
0.3333333333333333
 40
0.3333333333333333
 40
0.3333333333333333
 40
0.4444444444444444
 40
0.4444444444444444
 40
0.4444444444444444
 40
0.4444444444444444
 40
0.5555555555555556
 40
0.5555555555555556
 40
0.5555555555555556
 40
0.5555555555555556
 40
0.6666666666666666
 40
0.6666666666666666
 40
0.6666666666666666
 40
0.6666666666666666
 40
0.7777777777777778
 40
0.7777777777777778
 40
0.7777777777777778
 40
0.7777777777777778
 40
1.0
 40
1.0
 40
1.0
 40
1.0
 10
-9.50527
 20
-3.39545
 30
0.0
 10
-9.36912
 20
-3.48035
 30
0.0
 10
-9.28489
 20
-3.59993
 30
0.0
 10
-9.28489
 20
-3.734
 30
0.0
 10
-9.28489
 20
-3.734
 30
0.0
 10
-9.28489
 20
-3.86807
 30
0.0
 10
-9.36912
 20
-3.98766
 30
0.0
 10
-9.50527
 20
-4.07256
 30
0.0
 10
-9.50527
 20
-4.07256
 30
0.0
 10
-9.63437
 20
-4.15306
 30
0.0
 10
-9.8117
 20
-4.20287
 30
0.0
 10
-10.00661
 20
-4.20287
 30
0.0
 10
-10.00661
 20
-4.20287
 30
0.0
 10
-10.20153
 20
-4.20287
 30
0.0
 10
-10.37886
 20
-4.15306
 30
0.0
 10
-10.50796
 20
-4.07256
 30
0.0
 10
-10.50796
 20
-4.07256
 30
0.0
 10
-10.64411
 20
-3.98766
 30
0.0
 10
-10.72834
 20
-3.86807
 30
0.0
 10
-10.72834
 20
-3.734
 30
0.0
 10
-10.72834
 20
-3.734
 30
0.0
 10
-10.72834
 20
-3.59993
 30
0.0
 10
-10.64411
 20
-3.48035
 30
0.0
 10
-10.50796
 20
-3.39545
 30
0.0
 10
-10.50796
 20
-3.39545
 30
0.0
 10
-10.37886
 20
-3.31495
 30
0.0
 10
-10.20153
 20
-3.26514
 30
0.0
 10
-10.00661
 20
-3.26514
 30
0.0
 10
-10.00661
 20
-3.26514
 30
0.0
 10
-9.8117
 20
-3.26514
 30
0.0
 10
-9.63437
 20
-3.31495
 30
0.0
 10
-9.50527
 20
-3.39545
 30
0.0
  0
SPLINE
  5
47
330
1F
100
AcDbEntity
  8
Layer 1
100
AcDbSpline
210
0.0
220
0.0
230
1.0
 70
    11
 71
     3
 72
    48
 73
    44
 74
     0
 42
0.0000000001
 43
0.0000000001
 12
1.0
 22
0.0
 32
0.0
 13
1.0
 23
0.0
 33
0.0
 40
0.0
 40
0.0
 40
0.0
 40
0.0
 40
0.0833333333333333
 40
0.0833333333333333
 40
0.0833333333333333
 40
0.0833333333333333
 40
0.1666666666666667
 40
0.1666666666666667
 40
0.1666666666666667
 40
0.1666666666666667
 40
0.25
 40
0.25
 40
0.25
 40
0.25
 40
0.3333333333333333
 40
0.3333333333333333
 40
0.3333333333333333
 40
0.3333333333333333
 40
0.4166666666666667
 40
0.4166666666666667
 40
0.4166666666666667
 40
0.4166666666666667
 40
0.5
 40
0.5
 40
0.5
 40
0.5
 40
0.5833333333333334
 40
0.5833333333333334
 40
0.5833333333333334
 40
0.5833333333333334
 40
0.6666666666666666
 40
0.6666666666666666
 40
0.6666666666666666
 40
0.6666666666666666
 40
0.75
 40
0.75
 40
0.75
 40
0.75
 40
0.8333333333333334
 40
0.8333333333333334
 40
0.8333333333333334
 40
0.8333333333333334
 40
1.0
 40
1.0
 40
1.0
 40
1.0
 10
-8.72836
 20
-4.91196
 30
0.0
 10
-8.75404
 20
-4.81738
 30
0.0
 10
-8.74629
 20
-4.72264
 30
0.0
 10
-8.71302
 20
-4.64599
 30
0.0
 10
-8.71302
 20
-4.64599
 30
0.0
 10
-8.67812
 20
-4.56559
 30
0.0
 10
-8.61548
 20
-4.5047
 30
0.0
 10
-8.53336
 20
-4.48239
 30
0.0
 10
-8.53336
 20
-4.48239
 30
0.0
 10
-8.53336
 20
-4.48239
 30
0.0
 10
-8.5333
 20
-4.48237
 30
0.0
 10
-8.5333
 20
-4.48237
 30
0.0
 10
-8.5333
 20
-4.48237
 30
0.0
 10
-8.45122
 20
-4.46008
 30
0.0
 10
-8.3664
 20
-4.48087
 30
0.0
 10
-8.2957
 20
-4.53248
 30
0.0
 10
-8.2957
 20
-4.53248
 30
0.0
 10
-8.22812
 20
-4.58182
 30
0.0
 10
-8.17345
 20
-4.65966
 30
0.0
 10
-8.14775
 20
-4.75426
 30
0.0
 10
-8.14775
 20
-4.75426
 30
0.0
 10
-8.14775
 20
-4.75426
 30
0.0
 10
-8.14773
 20
-4.75432
 30
0.0
 10
-8.14773
 20
-4.75432
 30
0.0
 10
-8.14773
 20
-4.75432
 30
0.0
 10
-8.12204
 20
-4.84891
 30
0.0
 10
-8.12978
 20
-4.94366
 30
0.0
 10
-8.16306
 20
-5.02033
 30
0.0
 10
-8.16306
 20
-5.02033
 30
0.0
 10
-8.19795
 20
-5.10073
 30
0.0
 10
-8.26062
 20
-5.16163
 30
0.0
 10
-8.34274
 20
-5.18394
 30
0.0
 10
-8.34274
 20
-5.18394
 30
0.0
 10
-8.42484
 20
-5.20624
 30
0.0
 10
-8.50966
 20
-5.18545
 30
0.0
 10
-8.58037
 20
-5.13382
 30
0.0
 10
-8.58037
 20
-5.13382
 30
0.0
 10
-8.64795
 20
-5.08447
 30
0.0
 10
-8.70264
 20
-5.00661
 30
0.0
 10
-8.72834
 20
-4.91202
 30
0.0
 10
-8.72834
 20
-4.91202
 30
0.0
 10
-8.72834
 20
-4.91202
 30
0.0
 10
-8.72836
 20
-4.91196
 30
0.0
 10
-8.72836
 20
-4.91196
 30
0.0
  0
SPLINE
  5
48
330
1F
100
AcDbEntity
  8
Layer 1
100
AcDbSpline
210
0.0
220
0.0
230
1.0
 70
    11
 71
     3
 72
    48
 73
    44
 74
     0
 42
0.0000000001
 43
0.0000000001
 12
1.0
 22
0.0
 32
0.0
 13
1.0
 23
0.0
 33
0.0
 40
0.0
 40
0.0
 40
0.0
 40
0.0
 40
0.0833333333333333
 40
0.0833333333333333
 40
0.0833333333333333
 40
0.0833333333333333
 40
0.1666666666666667
 40
0.1666666666666667
 40
0.1666666666666667
 40
0.1666666666666667
 40
0.25
 40
0.25
 40
0.25
 40
0.25
 40
0.3333333333333333
 40
0.3333333333333333
 40
0.3333333333333333
 40
0.3333333333333333
 40
0.4166666666666667
 40
0.4166666666666667
 40
0.4166666666666667
 40
0.4166666666666667
 40
0.5
 40
0.5
 40
0.5
 40
0.5
 40
0.5833333333333334
 40
0.5833333333333334
 40
0.5833333333333334
 40
0.5833333333333334
 40
0.6666666666666666
 40
0.6666666666666666
 40
0.6666666666666666
 40
0.6666666666666666
 40
0.75
 40
0.75
 40
0.75
 40
0.75
 40
0.8333333333333334
 40
0.8333333333333334
 40
0.8333333333333334
 40
0.8333333333333334
 40
1.0
 40
1.0
 40
1.0
 40
1.0
 10
-11.23935
 20
-4.68386
 30
0.0
 10
-11.20607
 20
-4.76052
 30
0.0
 10
-11.19835
 20
-4.85525
 30
0.0
 10
-11.22401
 20
-4.94981
 30
0.0
 10
-11.22401
 20
-4.94981
 30
0.0
 10
-11.22401
 20
-4.94981
 30
0.0
 10
-11.22403
 20
-4.94988
 30
0.0
 10
-11.22403
 20
-4.94988
 30
0.0
 10
-11.22403
 20
-4.94988
 30
0.0
 10
-11.24973
 20
-5.04447
 30
0.0
 10
-11.30442
 20
-5.12233
 30
0.0
 10
-11.372
 20
-5.17168
 30
0.0
 10
-11.372
 20
-5.17168
 30
0.0
 10
-11.44272
 20
-5.22332
 30
0.0
 10
-11.52753
 20
-5.24411
 30
0.0
 10
-11.60963
 20
-5.22181
 30
0.0
 10
-11.60963
 20
-5.22181
 30
0.0
 10
-11.69175
 20
-5.19949
 30
0.0
 10
-11.75442
 20
-5.13859
 30
0.0
 10
-11.78932
 20
-5.05818
 30
0.0
 10
-11.78932
 20
-5.05818
 30
0.0
 10
-11.82259
 20
-4.98152
 30
0.0
 10
-11.83034
 20
-4.88677
 30
0.0
 10
-11.80465
 20
-4.79217
 30
0.0
 10
-11.80465
 20
-4.79217
 30
0.0
 10
-11.80465
 20
-4.79217
 30
0.0
 10
-11.80464
 20
-4.79214
 30
0.0
 10
-11.80464
 20
-4.79214
 30
0.0
 10
-11.80464
 20
-4.79214
 30
0.0
 10
-11.77894
 20
-4.69753
 30
0.0
 10
-11.72426
 20
-4.61969
 30
0.0
 10
-11.65667
 20
-4.57035
 30
0.0
 10
-11.65667
 20
-4.57035
 30
0.0
 10
-11.58609
 20
-4.51882
 30
0.0
 10
-11.50145
 20
-4.49802
 30
0.0
 10
-11.41951
 20
-4.52013
 30
0.0
 10
-11.41951
 20
-4.52013
 30
0.0
 10
-11.41951
 20
-4.52013
 30
0.0
 10
-11.41902
 20
-4.52026
 30
0.0
 10
-11.41902
 20
-4.52026
 30
0.0
 10
-11.41902
 20
-4.52026
 30
0.0
 10
-11.33689
 20
-4.54257
 30
0.0
 10
-11.27425
 20
-4.60346
 30
0.0
 10
-11.23935
 20
-4.68386
 30
0.0
  0
SPLINE
  5
49
330
1F
100
AcDbEntity
  8
Layer 1
100
AcDbSpline
210
0.0
220
0.0
230
1.0
 70
    11
 71
     3
 72
   144
 73
   140
 74
     0
 42
0.0000000001
 43
0.0000000001
 12
1.0
 22
0.0
 32
0.0
 13
1.0
 23
0.0
 33
0.0
 40
0.0
 40
0.0
 40
0.0
 40
0.0
 40
0.0277777777777778
 40
0.0277777777777778
 40
0.0277777777777778
 40
0.0277777777777778
 40
0.0555555555555556
 40
0.0555555555555556
 40
0.0555555555555556
 40
0.0555555555555556
 40
0.0833333333333333
 40
0.0833333333333333
 40
0.0833333333333333
 40
0.0833333333333333
 40
0.1111111111111111
 40
0.1111111111111111
 40
0.1111111111111111
 40
0.1111111111111111
 40
0.1388888888888889
 40
0.1388888888888889
 40
0.1388888888888889
 40
0.1388888888888889
 40
0.1666666666666667
 40
0.1666666666666667
 40
0.1666666666666667
 40
0.1666666666666667
 40
0.1944444444444444
 40
0.1944444444444444
 40
0.1944444444444444
 40
0.1944444444444444
 40
0.2222222222222222
 40
0.2222222222222222
 40
0.2222222222222222
 40
0.2222222222222222
 40
0.25
 40
0.25
 40
0.25
 40
0.25
 40
0.2777777777777778
 40
0.2777777777777778
 40
0.2777777777777778
 40
0.2777777777777778
 40
0.3055555555555556
 40
0.3055555555555556
 40
0.3055555555555556
 40
0.3055555555555556
 40
0.3333333333333333
 40
0.3333333333333333
 40
0.3333333333333333
 40
0.3333333333333333
 40
0.3611111111111111
 40
0.3611111111111111
 40
0.3611111111111111
 40
0.3611111111111111
 40
0.3888888888888889
 40
0.3888888888888889
 40
0.3888888888888889
 40
0.3888888888888889
 40
0.4166666666666667
 40
0.4166666666666667
 40
0.4166666666666667
 40
0.4166666666666667
 40
0.4444444444444444
 40
0.4444444444444444
 40
0.4444444444444444
 40
0.4444444444444444
 40
0.4722222222222222
 40
0.4722222222222222
 40
0.4722222222222222
 40
0.4722222222222222
 40
0.5
 40
0.5
 40
0.5
 40
0.5
 40
0.5277777777777778
 40
0.5277777777777778
 40
0.5277777777777778
 40
0.5277777777777778
 40
0.5555555555555556
 40
0.5555555555555556
 40
0.5555555555555556
 40
0.5555555555555556
 40
0.5833333333333334
 40
0.5833333333333334
 40
0.5833333333333334
 40
0.5833333333333334
 40
0.6111111111111112
 40
0.6111111111111112
 40
0.6111111111111112
 40
0.6111111111111112
 40
0.6388888888888888
 40
0.6388888888888888
 40
0.6388888888888888
 40
0.6388888888888888
 40
0.6666666666666666
 40
0.6666666666666666
 40
0.6666666666666666
 40
0.6666666666666666
 40
0.6944444444444444
 40
0.6944444444444444
 40
0.6944444444444444
 40
0.6944444444444444
 40
0.7222222222222222
 40
0.7222222222222222
 40
0.7222222222222222
 40
0.7222222222222222
 40
0.75
 40
0.75
 40
0.75
 40
0.75
 40
0.7777777777777778
 40
0.7777777777777778
 40
0.7777777777777778
 40
0.7777777777777778
 40
0.8055555555555556
 40
0.8055555555555556
 40
0.8055555555555556
 40
0.8055555555555556
 40
0.8333333333333334
 40
0.8333333333333334
 40
0.8333333333333334
 40
0.8333333333333334
 40
0.8611111111111112
 40
0.8611111111111112
 40
0.8611111111111112
 40
0.8611111111111112
 40
0.8888888888888888
 40
0.8888888888888888
 40
0.8888888888888888
 40
0.8888888888888888
 40
0.9166666666666666
 40
0.9166666666666666
 40
0.9166666666666666
 40
0.9166666666666666
 40
0.9444444444444444
 40
0.9444444444444444
 40
0.9444444444444444
 40
0.9444444444444444
 40
1.0
 40
1.0
 40
1.0
 40
1.0
 10
-7.98729
 20
-8.26029
 30
0.0
 10
-7.96822
 20
-8.27045
 30
0.0
 10
-7.95083
 20
-8.28227
 30
0.0
 10
-7.93625
 20
-8.29606
 30
0.0
 10
-7.93625
 20
-8.29606
 30
0.0
 10
-7.91543
 20
-8.31575
 30
0.0
 10
-7.90061
 20
-8.33897
 30
0.0
 10
-7.89465
 20
-8.3663
 30
0.0
 10
-7.89465
 20
-8.3663
 30
0.0
 10
-7.8889
 20
-8.39261
 30
0.0
 10
-7.89289
 20
-8.41115
 30
0.0
 10
-7.89649
 20
-8.42788
 30
0.0
 10
-7.89649
 20
-8.42788
 30
0.0
 10
-7.89649
 20
-8.42788
 30
0.0
 10
-7.89653
 20
-8.42807
 30
0.0
 10
-7.89653
 20
-8.42807
 30
0.0
 10
-7.89653
 20
-8.42807
 30
0.0
 10
-7.89653
 20
-8.42807
 30
0.0
 10
-7.89649
 20
-8.42808
 30
0.0
 10
-7.89649
 20
-8.42808
 30
0.0
 10
-7.89649
 20
-8.42808
 30
0.0
 10
-7.89649
 20
-8.42808
 30
0.0
 10
-7.89663
 20
-8.42852
 30
0.0
 10
-7.89663
 20
-8.42852
 30
0.0
 10
-7.89663
 20
-8.42852
 30
0.0
 10
-7.89663
 20
-8.42852
 30
0.0
 10
-7.89717
 20
-8.43066
 30
0.0
 10
-7.89717
 20
-8.43066
 30
0.0
 10
-7.89717
 20
-8.43066
 30
0.0
 10
-7.89534
 20
-8.42986
 30
0.0
 10
-7.89277
 20
-8.4283
 30
0.0
 10
-7.8888
 20
-8.42904
 30
0.0
 10
-7.8888
 20
-8.42904
 30
0.0
 10
-7.8888
 20
-8.42904
 30
0.0
 10
-7.88702
 20
-8.42941
 30
0.0
 10
-7.88702
 20
-8.42941
 30
0.0
 10
-7.88702
 20
-8.42941
 30
0.0
 10
-7.86326
 20
-8.43386
 30
0.0
 10
-7.83853
 20
-8.43901
 30
0.0
 10
-7.81541
 20
-8.46278
 30
0.0
 10
-7.81541
 20
-8.46278
 30
0.0
 10
-7.79969
 20
-8.47901
 30
0.0
 10
-7.78606
 20
-8.50354
 30
0.0
 10
-7.78481
 20
-8.54257
 30
0.0
 10
-7.78481
 20
-8.54257
 30
0.0
 10
-7.78386
 20
-8.57231
 30
0.0
 10
-7.79035
 20
-8.61253
 30
0.0
 10
-7.81048
 20
-8.66746
 30
0.0
 10
-7.81048
 20
-8.66746
 30
0.0
 10
-7.81508
 20
-8.68001
 30
0.0
 10
-7.82419
 20
-8.6896
 30
0.0
 10
-7.83531
 20
-8.69507
 30
0.0
 10
-7.83531
 20
-8.69507
 30
0.0
 10
-8.08559
 20
-8.84145
 30
0.0
 10
-8.40118
 20
-8.93396
 30
0.0
 10
-8.77055
 20
-8.99166
 30
0.0
 10
-8.77055
 20
-8.99166
 30
0.0
 10
-9.13805
 20
-9.04907
 30
0.0
 10
-9.55929
 20
-9.07213
 30
0.0
 10
-10.02273
 20
-9.07977
 30
0.0
 10
-10.02273
 20
-9.07977
 30
0.0
 10
-10.48147
 20
-9.08734
 30
0.0
 10
-10.8923
 20
-9.06338
 30
0.0
 10
-11.25436
 20
-9.01166
 30
0.0
 10
-11.25436
 20
-9.01166
 30
0.0
 10
-11.6314
 20
-8.95781
 30
0.0
 10
-11.95648
 20
-8.8738
 30
0.0
 10
-12.22861
 20
-8.76392
 30
0.0
 10
-12.22861
 20
-8.76392
 30
0.0
 10
-12.24227
 20
-8.75845
 30
0.0
 10
-12.25217
 20
-8.74761
 30
0.0
 10
-12.25687
 20
-8.7348
 30
0.0
 10
-12.25687
 20
-8.7348
 30
0.0
 10
-12.25687
 20
-8.7348
 30
0.0
 10
-12.25694
 20
-8.73482
 30
0.0
 10
-12.25694
 20
-8.73482
 30
0.0
 10
-12.25694
 20
-8.73482
 30
0.0
 10
-12.27752
 20
-8.6788
 30
0.0
 10
-12.28508
 20
-8.6369
 30
0.0
 10
-12.28468
 20
-8.60533
 30
0.0
 10
-12.28468
 20
-8.60533
 30
0.0
 10
-12.28416
 20
-8.56414
 30
0.0
 10
-12.27058
 20
-8.5372
 30
0.0
 10
-12.2523
 20
-8.51899
 30
0.0
 10
-12.2523
 20
-8.51899
 30
0.0
 10
-12.23053
 20
-8.49727
 30
0.0
 10
-12.20829
 20
-8.49221
 30
0.0
 10
-12.18664
 20
-8.48727
 30
0.0
 10
-12.18664
 20
-8.48727
 30
0.0
 10
-12.18006
 20
-8.48578
 30
0.0
 10
-12.17543
 20
-8.48719
 30
0.0
 10
-12.17456
 20
-8.48576
 30
0.0
 10
-12.17456
 20
-8.48576
 30
0.0
 10
-12.17341
 20
-8.48388
 30
0.0
 10
-12.17673
 20
-8.48242
 30
0.0
 10
-12.17794
 20
-8.47612
 30
0.0
 10
-12.17794
 20
-8.47612
 30
0.0
 10
-12.18118
 20
-8.45928
 30
0.0
 10
-12.18487
 20
-8.44014
 30
0.0
 10
-12.18139
 20
-8.41319
 30
0.0
 10
-12.18139
 20
-8.41319
 30
0.0
 10
-12.17866
 20
-8.39207
 30
0.0
 10
-12.17138
 20
-8.36745
 30
0.0
 10
-12.15451
 20
-8.3413
 30
0.0
 10
-12.15451
 20
-8.3413
 30
0.0
 10
-12.13911
 20
-8.31741
 30
0.0
 10
-12.11547
 20
-8.29179
 30
0.0
 10
-12.07939
 20
-8.266
 30
0.0
 10
-12.07939
 20
-8.266
 30
0.0
 10
-12.06725
 20
-8.25736
 30
0.0
 10
-12.05256
 20
-8.25495
 30
0.0
 10
-12.03911
 20
-8.25809
 30
0.0
 10
-12.03911
 20
-8.25809
 30
0.0
 10
-11.77551
 20
-8.31247
 30
0.0
 10
-11.47652
 20
-8.36248
 30
0.0
 10
-11.14635
 20
-8.39851
 30
0.0
 10
-11.14635
 20
-8.39851
 30
0.0
 10
-10.81534
 20
-8.43464
 30
0.0
 10
-10.45376
 20
-8.45665
 30
0.0
 10
-10.0663
 20
-8.45485
 30
0.0
 10
-10.0663
 20
-8.45485
 30
0.0
 10
-9.66836
 20
-8.45299
 30
0.0
 10
-9.29732
 20
-8.42614
 30
0.0
 10
-8.95826
 20
-8.38487
 30
0.0
 10
-8.95826
 20
-8.38487
 30
0.0
 10
-8.61909
 20
-8.34359
 30
0.0
 10
-8.31383
 20
-8.28811
 30
0.0
 10
-8.04648
 20
-8.22884
 30
0.0
 10
-8.04648
 20
-8.22884
 30
0.0
 10
-8.02588
 20
-8.22429
 30
0.0
 10
-8.00543
 20
-8.23322
 30
0.0
 10
-7.99435
 20
-8.24975
 30
0.0
 10
-7.99435
 20
-8.24975
 30
0.0
 10
-7.99435
 20
-8.24975
 30
0.0
 10
-7.99433
 20
-8.24974
 30
0.0
 10
-7.99433
 20
-8.24974
 30
0.0
 10
-7.99433
 20
-8.24974
 30
0.0
 10
-7.99433
 20
-8.24974
 30
0.0
 10
-7.98729
 20
-8.26029
 30
0.0
 10
-7.98729
 20
-8.26029
 30
0.0
  0
ENDSEC
  0
SECTION
  2
OBJECTS
  0
DICTIONARY
  5
C
330
0
100
AcDbDictionary
281
     1
  3
ACAD_GROUP
350
D
  3
ACAD_LAYOUT
350
1A
  3
ACAD_MATERIAL
350
3B
  3
ACAD_MLEADERSTYLE
350
6B
  3
ACAD_MLINESTYLE
350
17
  3
ACAD_PLOTSETTINGS
350
19
  3
ACAD_PLOTSTYLENAME
350
E
  3
ACAD_TABLESTYLE
350
6A
  3
ACAD_VISUALSTYLE
350
2A
  0
DICTIONARY
  5
D
102
{ACAD_REACTORS
330
C
102
}
330
C
100
AcDbDictionary
281
     1
  0
DICTIONARY
  5
1A
102
{ACAD_REACTORS
330
C
102
}
330
C
100
AcDbDictionary
281
     1
  3
Layout1
350
1E
  3
Layout2
350
26
  3
Model
350
22
  0
DICTIONARY
  5
3B
102
{ACAD_REACTORS
330
C
102
}
330
C
100
AcDbDictionary
281
     1
  3
ByBlock
350
3D
  3
ByLayer
350
3C
  3
Global
350
3E
  0
DICTIONARY
  5
6B
102
{ACAD_REACTORS
330
C
102
}
330
C
100
AcDbDictionary
281
     1
  0
DICTIONARY
  5
17
102
{ACAD_REACTORS
330
C
102
}
330
C
100
AcDbDictionary
281
     1
  3
Standard
350
18
  0
DICTIONARY
  5
19
102
{ACAD_REACTORS
330
C
102
}
330
C
100
AcDbDictionary
281
     1
  0
ACDBDICTIONARYWDFLT
  5
E
102
{ACAD_REACTORS
330
C
102
}
330
C
100
AcDbDictionary
281
     1
  3
Normal
350
F
100
AcDbDictionaryWithDefault
340
F
  0
DICTIONARY
  5
6A
102
{ACAD_REACTORS
330
C
102
}
330
C
100
AcDbDictionary
281
     1
  0
DICTIONARY
  5
2A
102
{ACAD_REACTORS
330
C
102
}
330
C
100
AcDbDictionary
281
     1
  3
2dWireframe
350
2F
  3
3D Hidden
350
31
  3
3dWireframe
350
30
  3
Basic
350
32
  3
Brighten
350
36
  3
ColorChange
350
3A
  3
Conceptual
350
34
  3
Dim
350
35
  3
Facepattern
350
39
  3
Flat
350
2B
  3
FlatWithEdges
350
2C
  3
Gouraud
350
2D
  3
GouraudWithEdges
350
2E
  3
Linepattern
350
38
  3
Realistic
350
33
  3
Thicken
350
37
  0
LAYOUT
  5
1E
102
{ACAD_REACTORS
330
1A
102
}
330
1A
100
AcDbPlotSettings
  1

  2
none_device
  4

  6

 40
0.0
 41
0.0
 42
0.0
 43
0.0
 44
0.0
 45
0.0
 46
0.0
 47
0.0
 48
0.0
 49
0.0
140
0.0
141
0.0
142
1.0
143
1.0
 70
   688
 72
     0
 73
     0
 74
     5
  7

 75
    16
 76
     0
 77
     2
 78
   300
147
1.0
148
0.0
149
0.0
100
AcDbLayout
  1
Layout1
 70
     1
 71
     1
 10
0.0
 20
0.0
 11
12.0
 21
9.0
 12
0.0
 22
0.0
 32
0.0
 14
1.000000000000000E+20
 24
1.000000000000000E+20
 34
1.000000000000000E+20
 15
-1.000000000000000E+20
 25
-1.000000000000000E+20
 35
-1.000000000000000E+20
146
0.0
 13
0.0
 23
0.0
 33
0.0
 16
1.0
 26
0.0
 36
0.0
 17
0.0
 27
1.0
 37
0.0
 76
     0
330
1B
  0
LAYOUT
  5
26
102
{ACAD_REACTORS
330
1A
102
}
330
1A
100
AcDbPlotSettings
  1

  2
none_device
  4

  6

 40
0.0
 41
0.0
 42
0.0
 43
0.0
 44
0.0
 45
0.0
 46
0.0
 47
0.0
 48
0.0
 49
0.0
140
0.0
141
0.0
142
1.0
143
1.0
 70
   688
 72
     0
 73
     0
 74
     5
  7

 75
    16
 76
     0
 77
     2
 78
   300
147
1.0
148
0.0
149
0.0
100
AcDbLayout
  1
Layout2
 70
     1
 71
     2
 10
0.0
 20
0.0
 11
0.0
 21
0.0
 12
0.0
 22
0.0
 32
0.0
 14
0.0
 24
0.0
 34
0.0
 15
0.0
 25
0.0
 35
0.0
146
0.0
 13
0.0
 23
0.0
 33
0.0
 16
1.0
 26
0.0
 36
0.0
 17
0.0
 27
1.0
 37
0.0
 76
     0
330
23
  0
LAYOUT
  5
22
102
{ACAD_REACTORS
330
1A
102
}
330
1A
100
AcDbPlotSettings
  1

  2
none_device
  4

  6

 40
0.0
 41
0.0
 42
0.0
 43
0.0
 44
0.0
 45
0.0
 46
0.0
 47
0.0
 48
0.0
 49
0.0
140
0.0
141
0.0
142
1.0
143
1.0
 70
  1712
 72
     0
 73
     0
 74
     0
  7

 75
     0
 76
     0
 77
     2
 78
   300
147
1.0
148
0.0
149
0.0
100
AcDbLayout
  1
Model
 70
     1
 71
     0
 10
0.0
 20
0.0
 11
12.0
 21
9.0
 12
0.0
 22
0.0
 32
0.0
 14
-13.00861
 24
-9.08114
 34
0.0
 15
-7.17199
 25
-3.26514
 35
0.0
146
0.0
 13
0.0
 23
0.0
 33
0.0
 16
1.0
 26
0.0
 36
0.0
 17
0.0
 27
1.0
 37
0.0
 76
     0
330
1F
331
29
  0
MATERIAL
  5
3D
102
{ACAD_REACTORS
330
3B
102
}
330
3B
100
AcDbMaterial
  1
ByBlock
 72
     1
 94
      127
  0
MATERIAL
  5
3C
102
{ACAD_REACTORS
330
3B
102
}
330
3B
100
AcDbMaterial
  1
ByLayer
 72
     1
 94
      127
  0
MATERIAL
  5
3E
102
{ACAD_REACTORS
330
3B
102
}
330
3B
100
AcDbMaterial
  1
Global
 72
     1
 94
      127
  0
MLINESTYLE
  5
18
102
{ACAD_REACTORS
330
17
102
}
330
17
100
AcDbMlineStyle
  2
Standard
 70
     0
  3

 62
   256
 51
90.0
 52
90.0
 71
     2
 49
0.5
 62
   256
  6
BYLAYER
 49
-0.5
 62
   256
  6
BYLAYER
  0
ACDBPLACEHOLDER
  5
F
102
{ACAD_REACTORS
330
E
102
}
330
E
  0
VISUALSTYLE
  5
2F
102
{ACAD_REACTORS
330
2A
102
}
102
{ACAD_XDICTIONARY
360
52
102
}
330
2A
100
AcDbVisualStyle
  2
2dWireframe
 70
     4
 71
     0
 72
     2
 73
     0
 90
        0
 40
-0.6
 41
-30.0
 62
     5
 63
     7
421
 16777215
 74
     1
 91
        4
 64
     7
 65
   257
 75
     1
175
     1
 42
1.0
 92
        0
 66
   257
 43
1.0
 76
     1
 77
     6
 78
     2
 67
     7
 79
     5
170
     0
171
     0
290
     0
174
     0
 93
        1
 44
0.0
173
     0
291
     0
 45
0.0
  0
VISUALSTYLE
  5
31
102
{ACAD_REACTORS
330
2A
102
}
102
{ACAD_XDICTIONARY
360
56
102
}
330
2A
100
AcDbVisualStyle
  2
3D Hidden
 70
     6
 71
     1
 72
     2
 73
     2
 90
        0
 40
-0.6
 41
-30.0
 62
     5
 63
     7
421
 16777215
 74
     2
 91
        2
 64
     7
 65
   257
 75
     2
175
     1
 42
40.0
 92
        0
 66
   257
 43
1.0
 76
     1
 77
     6
 78
     2
 67
     7
 79
     3
170
     0
171
     0
290
     0
174
     0
 93
        1
 44
0.0
173
     0
291
     0
 45
0.0
  0
VISUALSTYLE
  5
30
102
{ACAD_REACTORS
330
2A
102
}
102
{ACAD_XDICTIONARY
360
54
102
}
330
2A
100
AcDbVisualStyle
  2
3dWireframe
 70
     5
 71
     0
 72
     2
 73
     0
 90
        0
 40
-0.6
 41
-30.0
 62
     5
 63
     7
421
 16777215
 74
     1
 91
        4
 64
     7
 65
   257
 75
     1
175
     1
 42
1.0
 92
        0
 66
   257
 43
1.0
 76
     1
 77
     6
 78
     2
 67
     7
 79
     5
170
     0
171
     0
290
     0
174
     0
 93
        1
 44
0.0
173
     0
291
     0
 45
0.0
  0
VISUALSTYLE
  5
32
102
{ACAD_REACTORS
330
2A
102
}
102
{ACAD_XDICTIONARY
360
58
102
}
330
2A
100
AcDbVisualStyle
  2
Basic
 70
     7
 71
     1
 72
     0
 73
     1
 90
        0
 40
-0.6
 41
-30.0
 62
     5
 63
     7
421
 16777215
 74
     0
 91
        4
 64
     7
 65
   257
 75
     1
175
     1
 42
1.0
 92
        8
 66
     7
 43
1.0
 76
     1
 77
     6
 78
     2
 67
     7
 79
     5
170
     0
171
     0
290
     0
174
     0
 93
        1
 44
0.0
173
     0
291
     1
 45
0.0
  0
VISUALSTYLE
  5
36
102
{ACAD_REACTORS
330
2A
102
}
102
{ACAD_XDICTIONARY
360
60
102
}
330
2A
100
AcDbVisualStyle
  2
Brighten
 70
    12
 71
     2
 72
     2
 73
     0
 90
        0
 40
-0.6
 41
-30.0
 62
     5
 63
     7
421
 16777215
 74
     1
 91
        4
 64
     7
 65
   257
 75
     1
175
     1
 42
1.0
 92
        8
 66
     7
 43
1.0
 76
     1
 77
     6
 78
     2
 67
     7
 79
     5
170
     0
171
     0
290
     0
174
     0
 93
        1
 44
50.0
173
     0
291
     1
 45
0.0
  0
VISUALSTYLE
  5
3A
102
{ACAD_REACTORS
330
2A
102
}
102
{ACAD_XDICTIONARY
360
68
102
}
330
2A
100
AcDbVisualStyle
  2
ColorChange
 70
    16
 71
     2
 72
     2
 73
     3
 90
        0
 40
-0.6
 41
-30.0
 62
     5
 63
     8
421
  8421504
 74
     1
 91
        4
 64
     7
 65
   257
 75
     1
175
     1
 42
1.0
 92
        8
 66
     8
424
  8421504
 43
1.0
 76
     1
 77
     6
 78
     2
 67
     7
 79
     5
170
     0
171
     0
290
     0
174
     0
 93
        1
 44
0.0
173
     0
291
     1
 45
0.0
  0
VISUALSTYLE
  5
34
102
{ACAD_REACTORS
330
2A
102
}
102
{ACAD_XDICTIONARY
360
5C
102
}
330
2A
100
AcDbVisualStyle
  2
Conceptual
 70
     9
 71
     3
 72
     2
 73
     0
 90
        0
 40
-0.6
 41
-30.0
 62
     5
 63
     7
421
 16777215
 74
     2
 91
        2
 64
     7
 65
   257
 75
     1
175
     1
 42
40.0
 92
        8
 66
     7
 43
1.0
 76
     1
 77
     6
 78
     2
 67
     7
 79
     3
170
     0
171
     0
290
     0
174
     0
 93
        1
 44
0.0
173
     0
291
     0
 45
0.0
  0
VISUALSTYLE
  5
35
102
{ACAD_REACTORS
330
2A
102
}
102
{ACAD_XDICTIONARY
360
5E
102
}
330
2A
100
AcDbVisualStyle
  2
Dim
 70
    11
 71
     2
 72
     2
 73
     0
 90
        0
 40
-0.6
 41
-30.0
 62
     5
 63
     7
421
 16777215
 74
     1
 91
        4
 64
     7
 65
   257
 75
     1
175
     1
 42
1.0
 92
        8
 66
     7
 43
1.0
 76
     1
 77
     6
 78
     2
 67
     7
 79
     5
170
     0
171
     0
290
     0
174
     0
 93
        1
 44
-50.0
173
     0
291
     1
 45
0.0
  0
VISUALSTYLE
  5
39
102
{ACAD_REACTORS
330
2A
102
}
102
{ACAD_XDICTIONARY
360
66
102
}
330
2A
100
AcDbVisualStyle
  2
Facepattern
 70
    15
 71
     2
 72
     2
 73
     0
 90
        0
 40
-0.6
 41
-30.0
 62
     5
 63
     7
421
 16777215
 74
     1
 91
        4
 64
     7
 65
   257
 75
     1
175
     1
 42
1.0
 92
        8
 66
     7
 43
1.0
 76
     1
 77
     6
 78
     2
 67
     7
 79
     5
170
     0
171
     0
290
     0
174
     0
 93
        1
 44
0.0
173
     0
291
     1
 45
0.0
  0
VISUALSTYLE
  5
2B
102
{ACAD_REACTORS
330
2A
102
}
102
{ACAD_XDICTIONARY
360
4A
102
}
330
2A
100
AcDbVisualStyle
  2
Flat
 70
     0
 71
     2
 72
     1
 73
     1
 90
        2
 40
-0.6
 41
30.0
 62
     5
 63
     7
421
 16777215
 74
     0
 91
        4
 64
     7
 65
   257
 75
     1
175
     1
 42
1.0
 92
        8
 66
     7
 43
1.0
 76
     1
 77
     6
 78
     2
 67
     7
 79
     5
170
     0
171
     0
290
     0
174
     0
 93
       13
 44
0.0
173
     0
291
     1
 45
0.0
  0
VISUALSTYLE
  5
2C
102
{ACAD_REACTORS
330
2A
102
}
102
{ACAD_XDICTIONARY
360
4C
102
}
330
2A
100
AcDbVisualStyle
  2
FlatWithEdges
 70
     1
 71
     2
 72
     1
 73
     1
 90
        2
 40
-0.6
 41
30.0
 62
     5
 63
     7
421
 16777215
 74
     1
 91
        4
 64
     7
 65
   257
 75
     1
175
     1
 42
1.0
 92
        0
 66
   257
 43
1.0
 76
     1
 77
     6
 78
     2
 67
     7
 79
     5
170
     0
171
     0
290
     0
174
     0
 93
       13
 44
0.0
173
     0
291
     1
 45
0.0
  0
VISUALSTYLE
  5
2D
102
{ACAD_REACTORS
330
2A
102
}
102
{ACAD_XDICTIONARY
360
4E
102
}
330
2A
100
AcDbVisualStyle
  2
Gouraud
 70
     2
 71
     2
 72
     2
 73
     1
 90
        2
 40
-0.6
 41
30.0
 62
     5
 63
     7
421
 16777215
 74
     0
 91
        4
 64
     7
 65
   257
 75
     1
175
     1
 42
1.0
 92
        0
 66
     7
 43
1.0
 76
     1
 77
     6
 78
     2
 67
     7
 79
     5
170
     0
171
     0
290
     0
174
     0
 93
       13
 44
0.0
173
     0
291
     1
 45
0.0
  0
VISUALSTYLE
  5
2E
102
{ACAD_REACTORS
330
2A
102
}
102
{ACAD_XDICTIONARY
360
50
102
}
330
2A
100
AcDbVisualStyle
  2
GouraudWithEdges
 70
     3
 71
     2
 72
     2
 73
     1
 90
        2
 40
-0.6
 41
30.0
 62
     5
 63
     7
421
 16777215
 74
     1
 91
        4
 64
     7
 65
   257
 75
     1
175
     1
 42
1.0
 92
        0
 66
   257
 43
1.0
 76
     1
 77
     6
 78
     2
 67
     7
 79
     5
170
     0
171
     0
290
     0
174
     0
 93
       13
 44
0.0
173
     0
291
     1
 45
0.0
  0
VISUALSTYLE
  5
38
102
{ACAD_REACTORS
330
2A
102
}
102
{ACAD_XDICTIONARY
360
64
102
}
330
2A
100
AcDbVisualStyle
  2
Linepattern
 70
    14
 71
     2
 72
     2
 73
     0
 90
        0
 40
-0.6
 41
-30.0
 62
     5
 63
     7
421
 16777215
 74
     1
 91
        4
 64
     7
 65
   257
 75
     7
175
     7
 42
1.0
 92
        8
 66
     7
 43
1.0
 76
     1
 77
     6
 78
     2
 67
     7
 79
     5
170
     0
171
     0
290
     0
174
     0
 93
        1
 44
0.0
173
     0
291
     1
 45
0.0
  0
VISUALSTYLE
  5
33
102
{ACAD_REACTORS
330
2A
102
}
102
{ACAD_XDICTIONARY
360
5A
102
}
330
2A
100
AcDbVisualStyle
  2
Realistic
 70
     8
 71
     2
 72
     2
 73
     0
 90
        0
 40
-0.6
 41
-30.0
 62
     5
 63
     7
421
 16777215
 74
     1
 91
        0
 64
     7
 65
   257
 75
     1
175
     1
 42
1.0
 92
        8
 66
     8
424
  7895160
 43
1.0
 76
     1
 77
     6
 78
     2
 67
     7
 79
     5
170
     0
171
     0
290
     0
174
     0
 93
       13
 44
0.0
173
     0
291
     0
 45
0.0
  0
VISUALSTYLE
  5
37
102
{ACAD_REACTORS
330
2A
102
}
102
{ACAD_XDICTIONARY
360
62
102
}
330
2A
100
AcDbVisualStyle
  2
Thicken
 70
    13
 71
     2
 72
     2
 73
     0
 90
        0
 40
-0.6
 41
-30.0
 62
     5
 63
     7
421
 16777215
 74
     1
 91
        4
 64
     7
 65
   257
 75
     1
175
     1
 42
1.0
 92
       12
 66
     7
 43
1.0
 76
     1
 77
     6
 78
     2
 67
     7
 79
     5
170
     0
171
     0
290
     0
174
     0
 93
        1
 44
0.0
173
     0
291
     1
 45
0.0
  0
DICTIONARY
  5
52
330
2F
100
AcDbDictionary
280
     1
281
     1
  3
ACAD_XREC_ROUNDTRIP
360
53
  0
DICTIONARY
  5
56
330
31
100
AcDbDictionary
280
     1
281
     1
  3
ACAD_XREC_ROUNDTRIP
360
57
  0
DICTIONARY
  5
54
330
30
100
AcDbDictionary
280
     1
281
     1
  3
ACAD_XREC_ROUNDTRIP
360
55
  0
DICTIONARY
  5
58
330
32
100
AcDbDictionary
280
     1
281
     1
  3
ACAD_XREC_ROUNDTRIP
360
59
  0
DICTIONARY
  5
60
330
36
100
AcDbDictionary
280
     1
281
     1
  3
ACAD_XREC_ROUNDTRIP
360
61
  0
DICTIONARY
  5
68
330
3A
100
AcDbDictionary
280
     1
281
     1
  3
ACAD_XREC_ROUNDTRIP
360
69
  0
DICTIONARY
  5
5C
330
34
100
AcDbDictionary
280
     1
281
     1
  3
ACAD_XREC_ROUNDTRIP
360
5D
  0
DICTIONARY
  5
5E
330
35
100
AcDbDictionary
280
     1
281
     1
  3
ACAD_XREC_ROUNDTRIP
360
5F
  0
DICTIONARY
  5
66
330
39
100
AcDbDictionary
280
     1
281
     1
  3
ACAD_XREC_ROUNDTRIP
360
67
  0
DICTIONARY
  5
4A
330
2B
100
AcDbDictionary
280
     1
281
     1
  3
ACAD_XREC_ROUNDTRIP
360
4B
  0
DICTIONARY
  5
4C
330
2C
100
AcDbDictionary
280
     1
281
     1
  3
ACAD_XREC_ROUNDTRIP
360
4D
  0
DICTIONARY
  5
4E
330
2D
100
AcDbDictionary
280
     1
281
     1
  3
ACAD_XREC_ROUNDTRIP
360
4F
  0
DICTIONARY
  5
50
330
2E
100
AcDbDictionary
280
     1
281
     1
  3
ACAD_XREC_ROUNDTRIP
360
51
  0
DICTIONARY
  5
64
330
38
100
AcDbDictionary
280
     1
281
     1
  3
ACAD_XREC_ROUNDTRIP
360
65
  0
DICTIONARY
  5
5A
330
33
100
AcDbDictionary
280
     1
281
     1
  3
ACAD_XREC_ROUNDTRIP
360
5B
  0
DICTIONARY
  5
62
330
37
100
AcDbDictionary
280
     1
281
     1
  3
ACAD_XREC_ROUNDTRIP
360
63
  0
XRECORD
  5
53
102
{ACAD_REACTORS
330
52
102
}
330
52
100
AcDbXrecord
280
     1
102
RTVSPropertyOp0
 70
     1
102
RTVSPropertyOp1
 70
     1
102
RTVSPropertyOp2
 70
     1
102
RTVSPropertyOp3
 70
     1
102
RTVSPropertyOp4
 70
     1
102
RTVSPropertyOp5
 70
     1
102
RTVSPropertyOp6
 70
     1
102
RTVSPropertyOp7
 70
     1
102
RTVSPropertyOp8
 70
     1
102
RTVSPropertyOp9
 70
     1
102
RTVSPropertyOp10
 70
     1
102
RTVSPropertyOp11
 70
     1
102
RTVSPropertyOp12
 70
     1
102
RTVSPropertyOp13
 70
     1
102
RTVSPropertyOp14
 70
     1
102
RTVSPropertyOp15
 70
     1
102
RTVSPropertyOp16
 70
     1
102
RTVSPropertyOp17
 70
     1
102
RTVSPropertyOp18
 70
     1
102
RTVSPropertyOp19
 70
     1
102
RTVSPropertyOp20
 70
     1
102
RTVSPropertyOp21
 70
     1
102
RTVSPropertyOp22
 70
     1
102
RTVSPropertyOp23
 70
     1
102
RTVSPropertyOp24
 70
     1
102
RTVSPropertyOp25
 70
     1
102
RTVSPropertyOp26
 70
     1
102
RTVSPropertyOp27
 70
     1
102
RTVSPropertyOp28
 70
     1
102
RTVSPropertyOp29
 70
     1
102
RTVSPropertyOp30
 70
     1
102
RTVSPropertyOp31
 70
     1
102
RTVSPropertyOp32
 70
     1
  0
XRECORD
  5
57
102
{ACAD_REACTORS
330
56
102
}
330
56
100
AcDbXrecord
280
     1
102
RTVSPropertyOp0
 70
     1
102
RTVSPropertyOp1
 70
     1
102
RTVSPropertyOp2
 70
     1
102
RTVSPropertyOp3
 70
     1
102
RTVSPropertyOp4
 70
     1
102
RTVSPropertyOp5
 70
     1
102
RTVSPropertyOp6
 70
     1
102
RTVSPropertyOp7
 70
     1
102
RTVSPropertyOp8
 70
     1
102
RTVSPropertyOp9
 70
     1
102
RTVSPropertyOp10
 70
     1
102
RTVSPropertyOp11
 70
     1
102
RTVSPropertyOp12
 70
     1
102
RTVSPropertyOp13
 70
     1
102
RTVSPropertyOp14
 70
     1
102
RTVSPropertyOp15
 70
     1
102
RTVSPropertyOp16
 70
     1
102
RTVSPropertyOp17
 70
     1
102
RTVSPropertyOp18
 70
     1
102
RTVSPropertyOp19
 70
     1
102
RTVSPropertyOp20
 70
     1
102
RTVSPropertyOp21
 70
     1
102
RTVSPropertyOp22
 70
     1
102
RTVSPropertyOp23
 70
     1
102
RTVSPropertyOp24
 70
     1
102
RTVSPropertyOp25
 70
     1
102
RTVSPropertyOp26
 70
     1
102
RTVSPropertyOp27
 70
     1
102
RTVSPropertyOp28
 70
     1
102
RTVSPropertyOp29
 70
     1
102
RTVSPropertyOp30
 70
     1
102
RTVSPropertyOp31
 70
     1
102
RTVSPropertyOp32
 70
     1
  0
XRECORD
  5
55
102
{ACAD_REACTORS
330
54
102
}
330
54
100
AcDbXrecord
280
     1
102
RTVSPropertyOp0
 70
     1
102
RTVSPropertyOp1
 70
     1
102
RTVSPropertyOp2
 70
     1
102
RTVSPropertyOp3
 70
     1
102
RTVSPropertyOp4
 70
     1
102
RTVSPropertyOp5
 70
     1
102
RTVSPropertyOp6
 70
     1
102
RTVSPropertyOp7
 70
     1
102
RTVSPropertyOp8
 70
     1
102
RTVSPropertyOp9
 70
     1
102
RTVSPropertyOp10
 70
     1
102
RTVSPropertyOp11
 70
     1
102
RTVSPropertyOp12
 70
     1
102
RTVSPropertyOp13
 70
     1
102
RTVSPropertyOp14
 70
     1
102
RTVSPropertyOp15
 70
     1
102
RTVSPropertyOp16
 70
     1
102
RTVSPropertyOp17
 70
     1
102
RTVSPropertyOp18
 70
     1
102
RTVSPropertyOp19
 70
     1
102
RTVSPropertyOp20
 70
     1
102
RTVSPropertyOp21
 70
     1
102
RTVSPropertyOp22
 70
     1
102
RTVSPropertyOp23
 70
     1
102
RTVSPropertyOp24
 70
     1
102
RTVSPropertyOp25
 70
     1
102
RTVSPropertyOp26
 70
     1
102
RTVSPropertyOp27
 70
     1
102
RTVSPropertyOp28
 70
     1
102
RTVSPropertyOp29
 70
     1
102
RTVSPropertyOp30
 70
     1
102
RTVSPropertyOp31
 70
     1
102
RTVSPropertyOp32
 70
     1
  0
XRECORD
  5
59
102
{ACAD_REACTORS
330
58
102
}
330
58
100
AcDbXrecord
280
     1
102
RTVSPropertyOp0
 70
     1
102
RTVSPropertyOp1
 70
     1
102
RTVSPropertyOp2
 70
     1
102
RTVSPropertyOp3
 70
     1
102
RTVSPropertyOp4
 70
     1
102
RTVSPropertyOp5
 70
     1
102
RTVSPropertyOp6
 70
     1
102
RTVSPropertyOp7
 70
     1
102
RTVSPropertyOp8
 70
     1
102
RTVSPropertyOp9
 70
     1
102
RTVSPropertyOp10
 70
     1
102
RTVSPropertyOp11
 70
     1
102
RTVSPropertyOp12
 70
     1
102
RTVSPropertyOp13
 70
     1
102
RTVSPropertyOp14
 70
     1
102
RTVSPropertyOp15
 70
     1
102
RTVSPropertyOp16
 70
     1
102
RTVSPropertyOp17
 70
     1
102
RTVSPropertyOp18
 70
     1
102
RTVSPropertyOp19
 70
     1
102
RTVSPropertyOp20
 70
     1
102
RTVSPropertyOp21
 70
     1
102
RTVSPropertyOp22
 70
     1
102
RTVSPropertyOp23
 70
     1
102
RTVSPropertyOp24
 70
     1
102
RTVSPropertyOp25
 70
     1
102
RTVSPropertyOp26
 70
     1
102
RTVSPropertyOp27
 70
     1
102
RTVSPropertyOp28
 70
     1
102
RTVSPropertyOp29
 70
     1
102
RTVSPropertyOp30
 70
     1
102
RTVSPropertyOp31
 70
     1
102
RTVSPropertyOp32
 70
     1
  0
XRECORD
  5
61
102
{ACAD_REACTORS
330
60
102
}
330
60
100
AcDbXrecord
280
     1
102
RTVSPropertyOp0
 70
     1
102
RTVSPropertyOp1
 70
     1
102
RTVSPropertyOp2
 70
     1
102
RTVSPropertyOp3
 70
     1
102
RTVSPropertyOp4
 70
     1
102
RTVSPropertyOp5
 70
     1
102
RTVSPropertyOp6
 70
     1
102
RTVSPropertyOp7
 70
     1
102
RTVSPropertyOp8
 70
     1
102
RTVSPropertyOp9
 70
     1
102
RTVSPropertyOp10
 70
     1
102
RTVSPropertyOp11
 70
     1
102
RTVSPropertyOp12
 70
     1
102
RTVSPropertyOp13
 70
     1
102
RTVSPropertyOp14
 70
     1
102
RTVSPropertyOp15
 70
     1
102
RTVSPropertyOp16
 70
     1
102
RTVSPropertyOp17
 70
     1
102
RTVSPropertyOp18
 70
     1
102
RTVSPropertyOp19
 70
     1
102
RTVSPropertyOp20
 70
     1
102
RTVSPropertyOp21
 70
     1
102
RTVSPropertyOp22
 70
     1
102
RTVSPropertyOp23
 70
     1
102
RTVSPropertyOp24
 70
     1
102
RTVSPropertyOp25
 70
     1
102
RTVSPropertyOp26
 70
     1
102
RTVSPropertyOp27
 70
     1
102
RTVSPropertyOp28
 70
     1
102
RTVSPropertyOp29
 70
     1
102
RTVSPropertyOp30
 70
     1
102
RTVSPropertyOp31
 70
     1
102
RTVSPropertyOp32
 70
     1
  0
XRECORD
  5
69
102
{ACAD_REACTORS
330
68
102
}
330
68
100
AcDbXrecord
280
     1
102
RTVSPropertyOp0
 70
     1
102
RTVSPropertyOp1
 70
     1
102
RTVSPropertyOp2
 70
     1
102
RTVSPropertyOp3
 70
     1
102
RTVSPropertyOp4
 70
     1
102
RTVSPropertyOp5
 70
     1
102
RTVSPropertyOp6
 70
     1
102
RTVSPropertyOp7
 70
     1
102
RTVSPropertyOp8
 70
     1
102
RTVSPropertyOp9
 70
     1
102
RTVSPropertyOp10
 70
     1
102
RTVSPropertyOp11
 70
     1
102
RTVSPropertyOp12
 70
     1
102
RTVSPropertyOp13
 70
     1
102
RTVSPropertyOp14
 70
     1
102
RTVSPropertyOp15
 70
     1
102
RTVSPropertyOp16
 70
     1
102
RTVSPropertyOp17
 70
     1
102
RTVSPropertyOp18
 70
     1
102
RTVSPropertyOp19
 70
     1
102
RTVSPropertyOp20
 70
     1
102
RTVSPropertyOp21
 70
     1
102
RTVSPropertyOp22
 70
     1
102
RTVSPropertyOp23
 70
     1
102
RTVSPropertyOp24
 70
     1
102
RTVSPropertyOp25
 70
     1
102
RTVSPropertyOp26
 70
     1
102
RTVSPropertyOp27
 70
     1
102
RTVSPropertyOp28
 70
     1
102
RTVSPropertyOp29
 70
     1
102
RTVSPropertyOp30
 70
     1
102
RTVSPropertyOp31
 70
     1
102
RTVSPropertyOp32
 70
     1
  0
XRECORD
  5
5D
102
{ACAD_REACTORS
330
5C
102
}
330
5C
100
AcDbXrecord
280
     1
102
RTVSPropertyOp0
 70
     1
102
RTVSPropertyOp1
 70
     1
102
RTVSPropertyOp2
 70
     1
102
RTVSPropertyOp3
 70
     1
102
RTVSPropertyOp4
 70
     1
102
RTVSPropertyOp5
 70
     1
102
RTVSPropertyOp6
 70
     1
102
RTVSPropertyOp7
 70
     1
102
RTVSPropertyOp8
 70
     1
102
RTVSPropertyOp9
 70
     1
102
RTVSPropertyOp10
 70
     1
102
RTVSPropertyOp11
 70
     1
102
RTVSPropertyOp12
 70
     1
102
RTVSPropertyOp13
 70
     1
102
RTVSPropertyOp14
 70
     1
102
RTVSPropertyOp15
 70
     1
102
RTVSPropertyOp16
 70
     1
102
RTVSPropertyOp17
 70
     1
102
RTVSPropertyOp18
 70
     1
102
RTVSPropertyOp19
 70
     1
102
RTVSPropertyOp20
 70
     1
102
RTVSPropertyOp21
 70
     1
102
RTVSPropertyOp22
 70
     1
102
RTVSPropertyOp23
 70
     1
102
RTVSPropertyOp24
 70
     1
102
RTVSPropertyOp25
 70
     1
102
RTVSPropertyOp26
 70
     1
102
RTVSPropertyOp27
 70
     1
102
RTVSPropertyOp28
 70
     1
102
RTVSPropertyOp29
 70
     1
102
RTVSPropertyOp30
 70
     1
102
RTVSPropertyOp31
 70
     1
102
RTVSPropertyOp32
 70
     1
  0
XRECORD
  5
5F
102
{ACAD_REACTORS
330
5E
102
}
330
5E
100
AcDbXrecord
280
     1
102
RTVSPropertyOp0
 70
     1
102
RTVSPropertyOp1
 70
     1
102
RTVSPropertyOp2
 70
     1
102
RTVSPropertyOp3
 70
     1
102
RTVSPropertyOp4
 70
     1
102
RTVSPropertyOp5
 70
     1
102
RTVSPropertyOp6
 70
     1
102
RTVSPropertyOp7
 70
     1
102
RTVSPropertyOp8
 70
     1
102
RTVSPropertyOp9
 70
     1
102
RTVSPropertyOp10
 70
     1
102
RTVSPropertyOp11
 70
     1
102
RTVSPropertyOp12
 70
     1
102
RTVSPropertyOp13
 70
     1
102
RTVSPropertyOp14
 70
     1
102
RTVSPropertyOp15
 70
     1
102
RTVSPropertyOp16
 70
     1
102
RTVSPropertyOp17
 70
     1
102
RTVSPropertyOp18
 70
     1
102
RTVSPropertyOp19
 70
     1
102
RTVSPropertyOp20
 70
     1
102
RTVSPropertyOp21
 70
     1
102
RTVSPropertyOp22
 70
     1
102
RTVSPropertyOp23
 70
     1
102
RTVSPropertyOp24
 70
     1
102
RTVSPropertyOp25
 70
     1
102
RTVSPropertyOp26
 70
     1
102
RTVSPropertyOp27
 70
     1
102
RTVSPropertyOp28
 70
     1
102
RTVSPropertyOp29
 70
     1
102
RTVSPropertyOp30
 70
     1
102
RTVSPropertyOp31
 70
     1
102
RTVSPropertyOp32
 70
     1
  0
XRECORD
  5
67
102
{ACAD_REACTORS
330
66
102
}
330
66
100
AcDbXrecord
280
     1
102
RTVSPropertyOp0
 70
     1
102
RTVSPropertyOp1
 70
     1
102
RTVSPropertyOp2
 70
     1
102
RTVSPropertyOp3
 70
     1
102
RTVSPropertyOp4
 70
     1
102
RTVSPropertyOp5
 70
     1
102
RTVSPropertyOp6
 70
     1
102
RTVSPropertyOp7
 70
     1
102
RTVSPropertyOp8
 70
     1
102
RTVSPropertyOp9
 70
     1
102
RTVSPropertyOp10
 70
     1
102
RTVSPropertyOp11
 70
     1
102
RTVSPropertyOp12
 70
     1
102
RTVSPropertyOp13
 70
     1
102
RTVSPropertyOp14
 70
     1
102
RTVSPropertyOp15
 70
     1
102
RTVSPropertyOp16
 70
     1
102
RTVSPropertyOp17
 70
     1
102
RTVSPropertyOp18
 70
     1
102
RTVSPropertyOp19
 70
     1
102
RTVSPropertyOp20
 70
     1
102
RTVSPropertyOp21
 70
     1
102
RTVSPropertyOp22
 70
     1
102
RTVSPropertyOp23
 70
     1
102
RTVSPropertyOp24
 70
     1
102
RTVSPropertyOp25
 70
     1
102
RTVSPropertyOp26
 70
     1
102
RTVSPropertyOp27
 70
     1
102
RTVSPropertyOp28
 70
     1
102
RTVSPropertyOp29
 70
     1
102
RTVSPropertyOp30
 70
     1
102
RTVSPropertyOp31
 70
     1
102
RTVSPropertyOp32
 70
     1
  0
XRECORD
  5
4B
102
{ACAD_REACTORS
330
4A
102
}
330
4A
100
AcDbXrecord
280
     1
102
RTVSPropertyOp0
 70
     1
102
RTVSPropertyOp1
 70
     1
102
RTVSPropertyOp2
 70
     1
102
RTVSPropertyOp3
 70
     1
102
RTVSPropertyOp4
 70
     1
102
RTVSPropertyOp5
 70
     1
102
RTVSPropertyOp6
 70
     1
102
RTVSPropertyOp7
 70
     1
102
RTVSPropertyOp8
 70
     1
102
RTVSPropertyOp9
 70
     1
102
RTVSPropertyOp10
 70
     1
102
RTVSPropertyOp11
 70
     1
102
RTVSPropertyOp12
 70
     1
102
RTVSPropertyOp13
 70
     1
102
RTVSPropertyOp14
 70
     1
102
RTVSPropertyOp15
 70
     1
102
RTVSPropertyOp16
 70
     1
102
RTVSPropertyOp17
 70
     1
102
RTVSPropertyOp18
 70
     1
102
RTVSPropertyOp19
 70
     1
102
RTVSPropertyOp20
 70
     1
102
RTVSPropertyOp21
 70
     1
102
RTVSPropertyOp22
 70
     1
102
RTVSPropertyOp23
 70
     1
102
RTVSPropertyOp24
 70
     1
102
RTVSPropertyOp25
 70
     1
102
RTVSPropertyOp26
 70
     1
102
RTVSPropertyOp27
 70
     1
102
RTVSPropertyOp28
 70
     1
102
RTVSPropertyOp29
 70
     1
102
RTVSPropertyOp30
 70
     1
102
RTVSPropertyOp31
 70
     1
102
RTVSPropertyOp32
 70
     1
  0
XRECORD
  5
4D
102
{ACAD_REACTORS
330
4C
102
}
330
4C
100
AcDbXrecord
280
     1
102
RTVSPropertyOp0
 70
     1
102
RTVSPropertyOp1
 70
     1
102
RTVSPropertyOp2
 70
     1
102
RTVSPropertyOp3
 70
     1
102
RTVSPropertyOp4
 70
     1
102
RTVSPropertyOp5
 70
     1
102
RTVSPropertyOp6
 70
     1
102
RTVSPropertyOp7
 70
     1
102
RTVSPropertyOp8
 70
     1
102
RTVSPropertyOp9
 70
     1
102
RTVSPropertyOp10
 70
     1
102
RTVSPropertyOp11
 70
     1
102
RTVSPropertyOp12
 70
     1
102
RTVSPropertyOp13
 70
     1
102
RTVSPropertyOp14
 70
     1
102
RTVSPropertyOp15
 70
     1
102
RTVSPropertyOp16
 70
     1
102
RTVSPropertyOp17
 70
     1
102
RTVSPropertyOp18
 70
     1
102
RTVSPropertyOp19
 70
     1
102
RTVSPropertyOp20
 70
     1
102
RTVSPropertyOp21
 70
     1
102
RTVSPropertyOp22
 70
     1
102
RTVSPropertyOp23
 70
     1
102
RTVSPropertyOp24
 70
     1
102
RTVSPropertyOp25
 70
     1
102
RTVSPropertyOp26
 70
     1
102
RTVSPropertyOp27
 70
     1
102
RTVSPropertyOp28
 70
     1
102
RTVSPropertyOp29
 70
     1
102
RTVSPropertyOp30
 70
     1
102
RTVSPropertyOp31
 70
     1
102
RTVSPropertyOp32
 70
     1
  0
XRECORD
  5
4F
102
{ACAD_REACTORS
330
4E
102
}
330
4E
100
AcDbXrecord
280
     1
102
RTVSPropertyOp0
 70
     1
102
RTVSPropertyOp1
 70
     1
102
RTVSPropertyOp2
 70
     1
102
RTVSPropertyOp3
 70
     1
102
RTVSPropertyOp4
 70
     1
102
RTVSPropertyOp5
 70
     1
102
RTVSPropertyOp6
 70
     1
102
RTVSPropertyOp7
 70
     1
102
RTVSPropertyOp8
 70
     1
102
RTVSPropertyOp9
 70
     1
102
RTVSPropertyOp10
 70
     1
102
RTVSPropertyOp11
 70
     1
102
RTVSPropertyOp12
 70
     1
102
RTVSPropertyOp13
 70
     1
102
RTVSPropertyOp14
 70
     1
102
RTVSPropertyOp15
 70
     1
102
RTVSPropertyOp16
 70
     1
102
RTVSPropertyOp17
 70
     1
102
RTVSPropertyOp18
 70
     1
102
RTVSPropertyOp19
 70
     1
102
RTVSPropertyOp20
 70
     1
102
RTVSPropertyOp21
 70
     1
102
RTVSPropertyOp22
 70
     1
102
RTVSPropertyOp23
 70
     1
102
RTVSPropertyOp24
 70
     1
102
RTVSPropertyOp25
 70
     1
102
RTVSPropertyOp26
 70
     1
102
RTVSPropertyOp27
 70
     1
102
RTVSPropertyOp28
 70
     1
102
RTVSPropertyOp29
 70
     1
102
RTVSPropertyOp30
 70
     1
102
RTVSPropertyOp31
 70
     1
102
RTVSPropertyOp32
 70
     1
  0
XRECORD
  5
51
102
{ACAD_REACTORS
330
50
102
}
330
50
100
AcDbXrecord
280
     1
102
RTVSPropertyOp0
 70
     1
102
RTVSPropertyOp1
 70
     1
102
RTVSPropertyOp2
 70
     1
102
RTVSPropertyOp3
 70
     1
102
RTVSPropertyOp4
 70
     1
102
RTVSPropertyOp5
 70
     1
102
RTVSPropertyOp6
 70
     1
102
RTVSPropertyOp7
 70
     1
102
RTVSPropertyOp8
 70
     1
102
RTVSPropertyOp9
 70
     1
102
RTVSPropertyOp10
 70
     1
102
RTVSPropertyOp11
 70
     1
102
RTVSPropertyOp12
 70
     1
102
RTVSPropertyOp13
 70
     1
102
RTVSPropertyOp14
 70
     1
102
RTVSPropertyOp15
 70
     1
102
RTVSPropertyOp16
 70
     1
102
RTVSPropertyOp17
 70
     1
102
RTVSPropertyOp18
 70
     1
102
RTVSPropertyOp19
 70
     1
102
RTVSPropertyOp20
 70
     1
102
RTVSPropertyOp21
 70
     1
102
RTVSPropertyOp22
 70
     1
102
RTVSPropertyOp23
 70
     1
102
RTVSPropertyOp24
 70
     1
102
RTVSPropertyOp25
 70
     1
102
RTVSPropertyOp26
 70
     1
102
RTVSPropertyOp27
 70
     1
102
RTVSPropertyOp28
 70
     1
102
RTVSPropertyOp29
 70
     1
102
RTVSPropertyOp30
 70
     1
102
RTVSPropertyOp31
 70
     1
102
RTVSPropertyOp32
 70
     1
  0
XRECORD
  5
65
102
{ACAD_REACTORS
330
64
102
}
330
64
100
AcDbXrecord
280
     1
102
RTVSPropertyOp0
 70
     1
102
RTVSPropertyOp1
 70
     1
102
RTVSPropertyOp2
 70
     1
102
RTVSPropertyOp3
 70
     1
102
RTVSPropertyOp4
 70
     1
102
RTVSPropertyOp5
 70
     1
102
RTVSPropertyOp6
 70
     1
102
RTVSPropertyOp7
 70
     1
102
RTVSPropertyOp8
 70
     1
102
RTVSPropertyOp9
 70
     1
102
RTVSPropertyOp10
 70
     1
102
RTVSPropertyOp11
 70
     1
102
RTVSPropertyOp12
 70
     1
102
RTVSPropertyOp13
 70
     1
102
RTVSPropertyOp14
 70
     1
102
RTVSPropertyOp15
 70
     1
102
RTVSPropertyOp16
 70
     1
102
RTVSPropertyOp17
 70
     1
102
RTVSPropertyOp18
 70
     1
102
RTVSPropertyOp19
 70
     1
102
RTVSPropertyOp20
 70
     1
102
RTVSPropertyOp21
 70
     1
102
RTVSPropertyOp22
 70
     1
102
RTVSPropertyOp23
 70
     1
102
RTVSPropertyOp24
 70
     1
102
RTVSPropertyOp25
 70
     1
102
RTVSPropertyOp26
 70
     1
102
RTVSPropertyOp27
 70
     1
102
RTVSPropertyOp28
 70
     1
102
RTVSPropertyOp29
 70
     1
102
RTVSPropertyOp30
 70
     1
102
RTVSPropertyOp31
 70
     1
102
RTVSPropertyOp32
 70
     1
  0
XRECORD
  5
5B
102
{ACAD_REACTORS
330
5A
102
}
330
5A
100
AcDbXrecord
280
     1
102
RTVSPropertyOp0
 70
     1
102
RTVSPropertyOp1
 70
     1
102
RTVSPropertyOp2
 70
     1
102
RTVSPropertyOp3
 70
     1
102
RTVSPropertyOp4
 70
     1
102
RTVSPropertyOp5
 70
     1
102
RTVSPropertyOp6
 70
     1
102
RTVSPropertyOp7
 70
     1
102
RTVSPropertyOp8
 70
     1
102
RTVSPropertyOp9
 70
     1
102
RTVSPropertyOp10
 70
     1
102
RTVSPropertyOp11
 70
     1
102
RTVSPropertyOp12
 70
     1
102
RTVSPropertyOp13
 70
     1
102
RTVSPropertyOp14
 70
     1
102
RTVSPropertyOp15
 70
     1
102
RTVSPropertyOp16
 70
     1
102
RTVSPropertyOp17
 70
     1
102
RTVSPropertyOp18
 70
     1
102
RTVSPropertyOp19
 70
     1
102
RTVSPropertyOp20
 70
     1
102
RTVSPropertyOp21
 70
     1
102
RTVSPropertyOp22
 70
     1
102
RTVSPropertyOp23
 70
     1
102
RTVSPropertyOp24
 70
     1
102
RTVSPropertyOp25
 70
     1
102
RTVSPropertyOp26
 70
     1
102
RTVSPropertyOp27
 70
     1
102
RTVSPropertyOp28
 70
     1
102
RTVSPropertyOp29
 70
     1
102
RTVSPropertyOp30
 70
     1
102
RTVSPropertyOp31
 70
     1
102
RTVSPropertyOp32
 70
     1
  0
XRECORD
  5
63
102
{ACAD_REACTORS
330
62
102
}
330
62
100
AcDbXrecord
280
     1
102
RTVSPropertyOp0
 70
     1
102
RTVSPropertyOp1
 70
     1
102
RTVSPropertyOp2
 70
     1
102
RTVSPropertyOp3
 70
     1
102
RTVSPropertyOp4
 70
     1
102
RTVSPropertyOp5
 70
     1
102
RTVSPropertyOp6
 70
     1
102
RTVSPropertyOp7
 70
     1
102
RTVSPropertyOp8
 70
     1
102
RTVSPropertyOp9
 70
     1
102
RTVSPropertyOp10
 70
     1
102
RTVSPropertyOp11
 70
     1
102
RTVSPropertyOp12
 70
     1
102
RTVSPropertyOp13
 70
     1
102
RTVSPropertyOp14
 70
     1
102
RTVSPropertyOp15
 70
     1
102
RTVSPropertyOp16
 70
     1
102
RTVSPropertyOp17
 70
     1
102
RTVSPropertyOp18
 70
     1
102
RTVSPropertyOp19
 70
     1
102
RTVSPropertyOp20
 70
     1
102
RTVSPropertyOp21
 70
     1
102
RTVSPropertyOp22
 70
     1
102
RTVSPropertyOp23
 70
     1
102
RTVSPropertyOp24
 70
     1
102
RTVSPropertyOp25
 70
     1
102
RTVSPropertyOp26
 70
     1
102
RTVSPropertyOp27
 70
     1
102
RTVSPropertyOp28
 70
     1
102
RTVSPropertyOp29
 70
     1
102
RTVSPropertyOp30
 70
     1
102
RTVSPropertyOp31
 70
     1
102
RTVSPropertyOp32
 70
     1
  0
ENDSEC
  0
EOF
