<?xml version="1.0" encoding="UTF-8"?>
<!DOCTYPE svg PUBLIC "-//W3C//DTD SVG 1.1//EN" "http://www.w3.org/Graphics/SVG/1.1/DTD/svg11.dtd">
<!-- Creator: CorelDRAW X6 -->
<svg xmlns="http://www.w3.org/2000/svg" xml:space="preserve" width="200mm" height="200mm" version="1.1" shape-rendering="geometricPrecision" text-rendering="geometricPrecision" image-rendering="optimizeQuality" fill-rule="evenodd" clip-rule="evenodd"
viewBox="0 0 20000 20000"
 xmlns:xlink="http://www.w3.org/1999/xlink">
 <g id="Layer_x0020_1">
  <metadata id="CorelCorpID_0Corel-Layer"/>
  <g id="_872853728">
   <circle fill="none" stroke="black" stroke-width="52.92" stroke-linecap="round" stroke-linejoin="round" transform="matrix(1.6266E-014 -0.614169 0.614169 1.6266E-014 -0.01 20000)" r="529"/>
   <circle fill="none" stroke="black" stroke-width="52.92" stroke-linecap="round" stroke-linejoin="round" transform="matrix(1.6266E-014 -0.614169 0.614169 1.6266E-014 1499.99 20000)" r="529"/>
   <circle fill="none" stroke="black" stroke-width="52.92" stroke-linecap="round" stroke-linejoin="round" transform="matrix(1.6266E-014 -0.614169 0.614169 1.6266E-014 -1500.01 20000)" r="529"/>
   <path fill="none" stroke="black" stroke-width="52.92" stroke-linecap="round" stroke-linejoin="round" d="M1700 20700l-3400 0c-276,0 -500,-224 -500,-500l0 -400c0,-276 224,-500 500,-500l1213 0 0 -274c-711,-24 -1286,-133 -1723,-309 -37,-100 -27,-143 -7,-163 25,-25 66,-12 85,-43 16,-26 -5,-50 0,-92 4,-29 21,-70 81,-113 30,6 60,12 90,18l-80 -33c-65,-378 -179,-753 -286,-1121 -214,14 -442,-356 -515,-841 -75,-496 41,-925 259,-958 11,-2 22,-2 32,-2 33,-159 88,-317 170,-471 47,-89 538,-979 1459,-1368 142,-234 498,-400 915,-400 433,0 800,179 930,427 829,371 1290,1123 1325,1242 50,170 84,335 106,497 64,-5 146,-3 225,23l-6 18c8,0 16,0 24,1 173,30 241,471 153,987 -88,515 -300,909 -473,879 -30,-5 -56,-22 -80,-50 -73,340 -156,704 -233,1109l-53 37c20,-4 40,-8 60,-12 47,30 78,55 85,89 7,34 -14,54 0,78 18,31 65,15 92,43 17,17 29,56 -6,153 -396,233 -964,327 -1655,363l0 287 1213 0c276,0 500,224 500,500l0 400c0,276 -224,500 -500,500z"/>
   <path fill="none" fill-rule="nonzero" stroke="blue" stroke-width="52.92" stroke-linecap="round" stroke-linejoin="round" d="M-506 16442c-55,39 -128,1 -139,-63 -14,-83 102,-129 155,-67 32,37 24,102 -17,131"/>
   <path fill="none" fill-rule="nonzero" stroke="blue" stroke-width="52.92" stroke-linecap="round" stroke-linejoin="round" d="M-558 16339c0,-1 0,-3 -1,-4 -5,-12 -20,-18 -32,-14 -15,4 -24,21 -20,36 3,15 16,22 29,27 12,4 27,-4 31,-15 4,-11 1,-22 -7,-30z"/>
   <path fill="none" fill-rule="nonzero" stroke="blue" stroke-width="52.92" stroke-linecap="round" stroke-linejoin="round" d="M790 16394c-10,29 -31,53 -61,61 -64,17 -136,-53 -111,-119 20,-67 120,-80 160,-27 19,24 21,57 11,85"/>
   <path fill="none" fill-rule="nonzero" stroke="blue" stroke-width="52.92" stroke-linecap="round" stroke-linejoin="round" d="M686 16316c-15,-1 -25,8 -29,21 -3,7 0,15 5,21 4,6 11,10 17,10 9,0 16,-4 21,-10 0,0 0,0 0,0 3,-4 6,-8 8,-13 6,-15 -9,-28 -22,-29z"/>
   <path fill="none" fill-rule="nonzero" stroke="blue" stroke-width="52.92" stroke-linecap="round" stroke-linejoin="round" d="M303 16882c0,128 -103,231 -231,231"/>
   <path fill="none" fill-rule="nonzero" stroke="blue" stroke-width="52.92" stroke-linecap="round" stroke-linejoin="round" d="M72 17113c-128,0 -231,-103 -231,-231"/>
   <line fill="none" fill-rule="nonzero" stroke="blue" stroke-width="52.92" stroke-linecap="round" stroke-linejoin="round" x1="974" y1="13755" x2="974" y2= "14153" />
   <path fill="none" fill-rule="nonzero" stroke="blue" stroke-width="52.92" stroke-linecap="round" stroke-linejoin="round" d="M974 14153c-59,73 -418,436 -959,452 -322,9 -800,-137 -964,-453 0,0 -15,-265 -25,-356"/>
   <path fill="none" fill-rule="nonzero" stroke="blue" stroke-width="52.92" stroke-linecap="round" stroke-linejoin="round" d="M1978 18299c40,19 71,44 78,78 7,34 -14,54 0,78 18,31 65,15 92,43 17,17 29,56 -6,153 -490,288 -1243,364 -2166,380 -928,15 -1659,-99 -2187,-312 -37,-100 -27,-143 -7,-163 25,-25 66,-12 85,-43 16,-26 -5,-50 0,-92 4,-29 21,-70 82,-113 531,110 1204,202 1984,198 802,-4 1491,-108 2030,-227l14 21z"/>
   <path fill="none" fill-rule="nonzero" stroke="blue" stroke-width="52.92" stroke-linecap="round" stroke-linejoin="round" d="M-2175 18547c525,245 1237,340 2080,334 879,-6 1832,-135 2179,-383"/>
   <path fill="none" fill-rule="nonzero" stroke="blue" stroke-width="52.92" stroke-linecap="round" stroke-linejoin="round" d="M-2118 18469c589,177 1273,264 2151,248 818,-15 1569,-85 2016,-291"/>
   <path fill="none" fill-rule="nonzero" stroke="blue" stroke-width="52.92" stroke-linecap="round" stroke-linejoin="round" d="M974 13755c0,-345 -439,-625 -980,-625 -541,0 -980,280 -980,625 0,345 439,625 980,625 541,0 980,-280 980,-625z"/>
   <line fill="none" fill-rule="nonzero" stroke="blue" stroke-width="52.92" stroke-linecap="round" stroke-linejoin="round" x1="-2311" y1="17169" x2="-1976" y2= "17142" />
   <path fill="none" fill-rule="nonzero" stroke="blue" stroke-width="52.92" stroke-linecap="round" stroke-linejoin="round" d="M-1976 17142c509,-540 237,-1548 -186,-1805 0,0 -248,-27 -396,37"/>
   <path fill="none" fill-rule="nonzero" stroke="blue" stroke-width="52.92" stroke-linecap="round" stroke-linejoin="round" d="M-2052 16211c75,496 -41,925 -259,958 -218,33 -455,-343 -530,-839 -75,-496 41,-925 259,-958 218,-33 455,343 530,839z"/>
   <path fill="none" fill-rule="nonzero" stroke="blue" stroke-width="52.92" stroke-linecap="round" stroke-linejoin="round" d="M-2715 16315c-61,-386 20,-720 182,-746 162,-26 343,266 404,652 61,386 -20,720 -182,746 -162,26 -343,-266 -404,-652"/>
   <path fill="none" fill-rule="nonzero" stroke="blue" stroke-width="52.92" stroke-linecap="round" stroke-linejoin="round" d="M-1272 14937c45,-167 -26,-332 -160,-368 -134,-36 -279,70 -324,237 -45,167 26,332 160,368 134,36 279,-70 324,-237"/>
   <path fill="none" fill-rule="nonzero" stroke="blue" stroke-width="52.92" stroke-linecap="round" stroke-linejoin="round" d="M1320 14899c-45,-167 26,-332 160,-368 134,-36 279,70 324,237 45,167 -26,332 -160,368 -134,36 -279,-70 -324,-237"/>
   <path fill="none" fill-rule="nonzero" stroke="blue" stroke-width="52.92" stroke-linecap="round" stroke-linejoin="round" d="M76 14956c-768,0 -1390,623 -1390,1390 0,768 622,1390 1390,1390 768,0 1390,-622 1390,-1390 0,-768 -622,-1390 -1390,-1390"/>
   <path fill="none" fill-rule="nonzero" stroke="blue" stroke-width="52.92" stroke-linecap="round" stroke-linejoin="round" d="M76 17334c-545,0 -987,-442 -987,-987 0,-545 442,-987 987,-987 545,0 987,442 987,987 0,545 -442,987 -987,987"/>
   <path fill="none" fill-rule="nonzero" stroke="blue" stroke-width="52.92" stroke-linecap="round" stroke-linejoin="round" d="M2248 17199l-303 -81c-289,-487 -49,-1654 293,-1803 0,0 177,-49 341,5"/>
   <path fill="none" fill-rule="nonzero" stroke="blue" stroke-width="52.92" stroke-linecap="round" stroke-linejoin="round" d="M2124 16218c-88,515 -20,957 153,987 173,30 384,-364 473,-879 88,-515 20,-957 -153,-987 -173,-30 -384,364 -473,879z"/>
   <path fill="none" fill-rule="nonzero" stroke="blue" stroke-width="52.92" stroke-linecap="round" stroke-linejoin="round" d="M2195 16230c-67,390 -21,724 103,745 124,21 278,-278 345,-668 67,-390 21,-724 -103,-745 -124,-21 -278,278 -345,668"/>
   <path fill="none" fill-rule="nonzero" stroke="blue" stroke-width="52.92" stroke-linecap="round" stroke-linejoin="round" d="M-485 15336c0,-81 -66,-147 -147,-147 -81,0 -147,66 -147,147 0,81 66,147 147,147 81,0 147,-66 147,-147"/>
   <path fill="none" fill-rule="nonzero" stroke="blue" stroke-width="52.92" stroke-linecap="round" stroke-linejoin="round" d="M764 17424c0,-81 -66,-147 -147,-147 -81,0 -147,66 -147,147 0,81 66,147 147,147 81,0 147,-66 147,-147"/>
   <path fill="none" fill-rule="nonzero" stroke="blue" stroke-width="52.92" stroke-linecap="round" stroke-linejoin="round" d="M665 13734c0,-231 -301,-419 -672,-419 -371,0 -672,188 -672,419 0,231 301,419 672,419 371,0 672,-188 672,-419"/>
   <path fill="none" fill-rule="nonzero" stroke="blue" stroke-width="52.92" stroke-linecap="round" stroke-linejoin="round" d="M-776 16845c-86,-146 -135,-317 -135,-499 0,-201 60,-388 163,-544 52,-17 108,-26 166,-26 305,0 552,247 552,552 0,305 -247,552 -552,552 -68,0 -134,-12 -194,-35z"/>
   <path fill="none" fill-rule="nonzero" stroke="blue" stroke-width="52.92" stroke-linecap="round" stroke-linejoin="round" d="M909 15816c98,153 154,335 154,530 0,175 -46,340 -126,482 -71,33 -150,52 -233,52 -305,0 -552,-247 -552,-552 0,-305 247,-552 552,-552 72,0 141,14 205,39z"/>
  </g>
  <circle fill="none" stroke="black" stroke-width="52.92" stroke-linecap="round" stroke-linejoin="round" transform="matrix(9.00886E-015 -0.340155 0.340155 9.00886E-015 -750.01 20000)" r="529"/>
  <circle fill="none" stroke="black" stroke-width="52.92" stroke-linecap="round" stroke-linejoin="round" transform="matrix(9.00886E-015 -0.340155 0.340155 9.00886E-015 749.99 20000)" r="529"/>
 </g>
</svg>
