  0
SECTION
  2
HEADER
  9
$ACADVER
  1
AC1021
  9
$ACADMAINTVER
 70
    25
  9
$DWGCODEPAGE
  3
ANSI_1252
  9
$INSBASE
 10
0.0
 20
0.0
 30
0.0
  9
$EXTMIN
 10
-14.58532
 20
-15.05738
 30
0.0
  9
$EXTMAX
 10
-6.06761
 20
-11.94119
 30
0.0
  9
$LIMMIN
 10
0.0
 20
0.0
  9
$LIMMAX
 10
12.0
 20
9.0
  9
$ORTHOMODE
 70
     0
  9
$REGENMODE
 70
     1
  9
$FILLMODE
 70
     1
  9
$QTEXTMODE
 70
     0
  9
$MIRRTEXT
 70
     1
  9
$LTSCALE
 40
1.0
  9
$ATTMODE
 70
     1
  9
$TEXTSIZE
 40
0.2
  9
$TRACEWID
 40
0.05
  9
$TEXTSTYLE
  7
Standard
  9
$CLAYER
  8
0
  9
$CELTYPE
  6
ByLayer
  9
$CECOLOR
 62
   256
  9
$CELTSCALE
 40
1.0
  9
$DISPSILH
 70
     0
  9
$DIMSCALE
 40
1.0
  9
$DIMASZ
 40
0.18
  9
$DIMEXO
 40
0.0625
  9
$DIMDLI
 40
0.38
  9
$DIMRND
 40
0.0
  9
$DIMDLE
 40
0.0
  9
$DIMEXE
 40
0.18
  9
$DIMTP
 40
0.0
  9
$DIMTM
 40
0.0
  9
$DIMTXT
 40
0.18
  9
$DIMCEN
 40
0.09
  9
$DIMTSZ
 40
0.0
  9
$DIMTOL
 70
     0
  9
$DIMLIM
 70
     0
  9
$DIMTIH
 70
     1
  9
$DIMTOH
 70
     1
  9
$DIMSE1
 70
     0
  9
$DIMSE2
 70
     0
  9
$DIMTAD
 70
     0
  9
$DIMZIN
 70
     0
  9
$DIMBLK
  1

  9
$DIMASO
 70
     1
  9
$DIMSHO
 70
     1
  9
$DIMPOST
  1

  9
$DIMAPOST
  1

  9
$DIMALT
 70
     0
  9
$DIMALTD
 70
     2
  9
$DIMALTF
 40
25.4
  9
$DIMLFAC
 40
1.0
  9
$DIMTOFL
 70
     0
  9
$DIMTVP
 40
0.0
  9
$DIMTIX
 70
     0
  9
$DIMSOXD
 70
     0
  9
$DIMSAH
 70
     0
  9
$DIMBLK1
  1

  9
$DIMBLK2
  1

  9
$DIMSTYLE
  2
Standard
  9
$DIMCLRD
 70
     0
  9
$DIMCLRE
 70
     0
  9
$DIMCLRT
 70
     0
  9
$DIMTFAC
 40
1.0
  9
$DIMGAP
 40
0.09
  9
$DIMJUST
 70
     0
  9
$DIMSD1
 70
     0
  9
$DIMSD2
 70
     0
  9
$DIMTOLJ
 70
     1
  9
$DIMTZIN
 70
     0
  9
$DIMALTZ
 70
     0
  9
$DIMALTTZ
 70
     0
  9
$DIMUPT
 70
     0
  9
$DIMDEC
 70
     4
  9
$DIMTDEC
 70
     4
  9
$DIMALTU
 70
     2
  9
$DIMALTTD
 70
     2
  9
$DIMTXSTY
  7
Standard
  9
$DIMAUNIT
 70
     0
  9
$DIMADEC
 70
     0
  9
$DIMALTRND
 40
0.0
  9
$DIMAZIN
 70
     0
  9
$DIMDSEP
 70
    46
  9
$DIMATFIT
 70
     3
  9
$DIMFRAC
 70
     0
  9
$DIMLDRBLK
  1

  9
$DIMLUNIT
 70
     2
  9
$DIMLWD
 70
    -2
  9
$DIMLWE
 70
    -2
  9
$DIMTMOVE
 70
     0
  9
$DIMFXL
 40
1.0
  9
$DIMFXLON
 70
     0
  9
$DIMJOGANG
 40
0.7853981633974483
  9
$DIMTFILL
 70
     0
  9
$DIMTFILLCLR
 70
     0
  9
$DIMARCSYM
 70
     0
  9
$DIMLTYPE
  6

  9
$DIMLTEX1
  6

  9
$DIMLTEX2
  6

  9
$LUNITS
 70
     2
  9
$LUPREC
 70
     4
  9
$SKETCHINC
 40
0.1
  9
$FILLETRAD
 40
0.5
  9
$AUNITS
 70
     0
  9
$AUPREC
 70
     0
  9
$MENU
  1
.
  9
$ELEVATION
 40
0.0
  9
$PELEVATION
 40
0.0
  9
$THICKNESS
 40
0.0
  9
$LIMCHECK
 70
     0
  9
$CHAMFERA
 40
0.5
  9
$CHAMFERB
 40
0.5
  9
$CHAMFERC
 40
1.0
  9
$CHAMFERD
 40
0.0
  9
$SKPOLY
 70
     0
  9
$TDCREATE
 40
2460554.932197616
  9
$TDUCREATE
 40
2460554.890530949
  9
$TDUPDATE
 40
2460554.932197627
  9
$TDUUPDATE
 40
2460554.890530961
  9
$TDINDWG
 40
0.0000000116
  9
$TDUSRTIMER
 40
0.0000000116
  9
$USRTIMER
 70
     1
  9
$ANGBASE
 50
0.0
  9
$ANGDIR
 70
     0
  9
$PDMODE
 70
     0
  9
$PDSIZE
 40
0.0
  9
$PLINEWID
 40
0.0
  9
$SPLFRAME
 70
     0
  9
$SPLINETYPE
 70
     6
  9
$SPLINESEGS
 70
     8
  9
$HANDSEED
  5
69
  9
$SURFTAB1
 70
     6
  9
$SURFTAB2
 70
     6
  9
$SURFTYPE
 70
     6
  9
$SURFU
 70
     6
  9
$SURFV
 70
     6
  9
$UCSBASE
  2

  9
$UCSNAME
  2

  9
$UCSORG
 10
0.0
 20
0.0
 30
0.0
  9
$UCSXDIR
 10
1.0
 20
0.0
 30
0.0
  9
$UCSYDIR
 10
0.0
 20
1.0
 30
0.0
  9
$UCSORTHOREF
  2

  9
$UCSORTHOVIEW
 70
     0
  9
$UCSORGTOP
 10
0.0
 20
0.0
 30
0.0
  9
$UCSORGBOTTOM
 10
0.0
 20
0.0
 30
0.0
  9
$UCSORGLEFT
 10
0.0
 20
0.0
 30
0.0
  9
$UCSORGRIGHT
 10
0.0
 20
0.0
 30
0.0
  9
$UCSORGFRONT
 10
0.0
 20
0.0
 30
0.0
  9
$UCSORGBACK
 10
0.0
 20
0.0
 30
0.0
  9
$PUCSBASE
  2

  9
$PUCSNAME
  2

  9
$PUCSORG
 10
0.0
 20
0.0
 30
0.0
  9
$PUCSXDIR
 10
1.0
 20
0.0
 30
0.0
  9
$PUCSYDIR
 10
0.0
 20
1.0
 30
0.0
  9
$PUCSORTHOREF
  2

  9
$PUCSORTHOVIEW
 70
     0
  9
$PUCSORGTOP
 10
0.0
 20
0.0
 30
0.0
  9
$PUCSORGBOTTOM
 10
0.0
 20
0.0
 30
0.0
  9
$PUCSORGLEFT
 10
0.0
 20
0.0
 30
0.0
  9
$PUCSORGRIGHT
 10
0.0
 20
0.0
 30
0.0
  9
$PUCSORGFRONT
 10
0.0
 20
0.0
 30
0.0
  9
$PUCSORGBACK
 10
0.0
 20
0.0
 30
0.0
  9
$USERI1
 70
     0
  9
$USERI2
 70
     0
  9
$USERI3
 70
     0
  9
$USERI4
 70
     0
  9
$USERI5
 70
     0
  9
$USERR1
 40
0.0
  9
$USERR2
 40
0.0
  9
$USERR3
 40
0.0
  9
$USERR4
 40
0.0
  9
$USERR5
 40
0.0
  9
$WORLDVIEW
 70
     1
  9
$SHADEDGE
 70
     3
  9
$SHADEDIF
 70
    70
  9
$TILEMODE
 70
     1
  9
$MAXACTVP
 70
    64
  9
$PINSBASE
 10
0.0
 20
0.0
 30
0.0
  9
$PLIMCHECK
 70
     0
  9
$PEXTMIN
 10
1.000000000000000E+20
 20
1.000000000000000E+20
 30
1.000000000000000E+20
  9
$PEXTMAX
 10
-1.000000000000000E+20
 20
-1.000000000000000E+20
 30
-1.000000000000000E+20
  9
$PLIMMIN
 10
0.0
 20
0.0
  9
$PLIMMAX
 10
12.0
 20
9.0
  9
$UNITMODE
 70
     0
  9
$VISRETAIN
 70
     1
  9
$PLINEGEN
 70
     0
  9
$PSLTSCALE
 70
     1
  9
$TREEDEPTH
 70
  3020
  9
$CMLSTYLE
  2
Standard
  9
$CMLJUST
 70
     0
  9
$CMLSCALE
 40
1.0
  9
$PROXYGRAPHICS
 70
     1
  9
$MEASUREMENT
 70
     0
  9
$CELWEIGHT
370
    -1
  9
$ENDCAPS
280
     0
  9
$JOINSTYLE
280
     0
  9
$LWDISPLAY
290
     0
  9
$INSUNITS
 70
     5
  9
$HYPERLINKBASE
  1

  9
$STYLESHEET
  1

  9
$XEDIT
290
     1
  9
$CEPSNTYPE
380
     0
  9
$PSTYLEMODE
290
     1
  9
$FINGERPRINTGUID
  2
{2627F644-D995-4582-9986-B74E7986EB2C}
  9
$VERSIONGUID
  2
{FAEB1C32-E019-11D5-929B-00C0DF256EC4}
  9
$EXTNAMES
290
     1
  9
$PSVPSCALE
 40
0.0
  9
$OLESTARTUP
290
     0
  9
$SORTENTS
280
   127
  9
$INDEXCTL
280
     0
  9
$HIDETEXT
280
     1
  9
$XCLIPFRAME
290
     0
  9
$HALOGAP
280
     0
  9
$OBSCOLOR
 70
   257
  9
$OBSLTYPE
280
     0
  9
$INTERSECTIONDISPLAY
280
     0
  9
$INTERSECTIONCOLOR
 70
   257
  9
$DIMASSOC
280
     2
  9
$PROJECTNAME
  1

  9
$CAMERADISPLAY
290
     0
  9
$LENSLENGTH
 40
50.0
  9
$CAMERAHEIGHT
 40
0.0
  9
$STEPSPERSEC
 40
2.0
  9
$STEPSIZE
 40
6.0
  9
$3DDWFPREC
 40
2.0
  9
$PSOLWIDTH
 40
0.25
  9
$PSOLHEIGHT
 40
4.0
  9
$LOFTANG1
 40
1.570796326794897
  9
$LOFTANG2
 40
1.570796326794897
  9
$LOFTMAG1
 40
0.0
  9
$LOFTMAG2
 40
0.0
  9
$LOFTPARAM
 70
     7
  9
$LOFTNORMALS
280
     1
  9
$LATITUDE
 40
37.795
  9
$LONGITUDE
 40
-122.394
  9
$NORTHDIRECTION
 40
0.0
  9
$TIMEZONE
 70
 -8000
  9
$LIGHTGLYPHDISPLAY
280
     1
  9
$TILEMODELIGHTSYNCH
280
     1
  9
$SOLIDHIST
280
     1
  9
$SHOWHIST
280
     1
  9
$DWFFRAME
280
     2
  9
$DGNFRAME
280
     2
  9
$REALWORLDSCALE
290
     1
  9
$INTERFERECOLOR
 62
   256
  9
$CSHADOW
280
     0
  9
$SHADOWPLANELOCATION
 40
0.0
  0
ENDSEC
  0
SECTION
  2
CLASSES
  0
CLASS
  1
ACDBDICTIONARYWDFLT
  2
AcDbDictionaryWithDefault
  3
ObjectDBX Classes
 90
        0
 91
        4
280
     0
281
     0
  0
CLASS
  1
VISUALSTYLE
  2
AcDbVisualStyle
  3
ObjectDBX Classes
 90
     4095
 91
        4
280
     0
281
     0
  0
CLASS
  1
MATERIAL
  2
AcDbMaterial
  3
ObjectDBX Classes
 90
     1153
 91
        4
280
     0
281
     0
  0
ENDSEC
  0
SECTION
  2
TABLES
  0
TABLE
  2
VPORT
  5
8
330
0
100
AcDbSymbolTable
 70
     1
  0
VPORT
  5
29
330
8
100
AcDbSymbolTableRecord
100
AcDbViewportTableRecord
  2
*Active
 70
     0
 10
0.0
 20
0.0
 11
1.0
 21
1.0
 12
10.42990654205607
 22
4.5
 13
0.0
 23
0.0
 14
0.5
 24
0.5
 15
0.5
 25
0.5
 16
0.0
 26
0.0
 36
1.0
 17
0.0
 27
0.0
 37
0.0
 40
9.0
 41
1.972972972850329
 42
50.0
 43
0.0
 44
0.0
 50
0.0
 51
0.0
 71
     0
 72
   100
 73
     1
 74
     3
 75
     0
 76
     0
 77
     0
 78
     0
281
     0
 65
     1
110
0.0
120
0.0
130
0.0
111
1.0
121
0.0
131
0.0
112
0.0
122
1.0
132
0.0
 79
     0
146
0.0
 60
     3
 61
     5
292
     1
282
     1
141
0.0
142
0.0
 63
   250
  0
ENDTAB
  0
TABLE
  2
LTYPE
  5
5
330
0
100
AcDbSymbolTable
 70
     1
  0
LTYPE
  5
14
330
5
100
AcDbSymbolTableRecord
100
AcDbLinetypeTableRecord
  2
ByBlock
 70
     0
  3

 72
    65
 73
     0
 40
0.0
  0
LTYPE
  5
15
330
5
100
AcDbSymbolTableRecord
100
AcDbLinetypeTableRecord
  2
ByLayer
 70
     0
  3

 72
    65
 73
     0
 40
0.0
  0
LTYPE
  5
16
330
5
100
AcDbSymbolTableRecord
100
AcDbLinetypeTableRecord
  2
Continuous
 70
     0
  3
Solid line
 72
    65
 73
     0
 40
0.0
  0
ENDTAB
  0
TABLE
  2
LAYER
  5
2
330
0
100
AcDbSymbolTable
 70
     2
  0
LAYER
  5
10
330
2
100
AcDbSymbolTableRecord
100
AcDbLayerTableRecord
  2
0
 70
     0
 62
     7
  6
Continuous
370
    -3
390
F
347
3E
  0
LAYER
  5
40
330
2
100
AcDbSymbolTableRecord
100
AcDbLayerTableRecord
  2
Layer 1
 70
     0
 62
     7
  6
Continuous
370
    -3
390
F
347
3E
  0
ENDTAB
  0
TABLE
  2
STYLE
  5
3
330
0
100
AcDbSymbolTable
 70
     1
  0
STYLE
  5
11
330
3
100
AcDbSymbolTableRecord
100
AcDbTextStyleTableRecord
  2
Standard
 70
     0
 40
0.0
 41
1.0
 50
0.0
 71
     0
 42
0.2
  3
txt
  4

  0
ENDTAB
  0
TABLE
  2
VIEW
  5
6
330
0
100
AcDbSymbolTable
 70
     0
  0
ENDTAB
  0
TABLE
  2
UCS
  5
7
330
0
100
AcDbSymbolTable
 70
     0
  0
ENDTAB
  0
TABLE
  2
APPID
  5
9
330
0
100
AcDbSymbolTable
 70
     2
  0
APPID
  5
12
330
9
100
AcDbSymbolTableRecord
100
AcDbRegAppTableRecord
  2
ACAD
 70
     0
  0
APPID
  5
3F
330
9
100
AcDbSymbolTableRecord
100
AcDbRegAppTableRecord
  2
ODA
 70
     0
  0
ENDTAB
  0
TABLE
  2
DIMSTYLE
  5
A
330
0
100
AcDbSymbolTable
 70
     1
100
AcDbDimStyleTable
  0
DIMSTYLE
105
27
330
A
100
AcDbSymbolTableRecord
100
AcDbDimStyleTableRecord
  2
Standard
 70
     0
178
     0
340
11
  0
ENDTAB
  0
TABLE
  2
BLOCK_RECORD
  5
1
330
0
100
AcDbSymbolTable
 70
     1
  0
BLOCK_RECORD
  5
1F
330
1
100
AcDbSymbolTableRecord
100
AcDbBlockTableRecord
  2
*Model_Space
340
22
 70
     0
280
     1
281
     0
  0
BLOCK_RECORD
  5
1B
330
1
100
AcDbSymbolTableRecord
100
AcDbBlockTableRecord
  2
*Paper_Space
340
1E
 70
     0
280
     1
281
     0
  0
BLOCK_RECORD
  5
23
330
1
100
AcDbSymbolTableRecord
100
AcDbBlockTableRecord
  2
*Paper_Space0
340
26
 70
     0
280
     1
281
     0
  0
ENDTAB
  0
ENDSEC
  0
SECTION
  2
BLOCKS
  0
BLOCK
  5
20
330
1F
100
AcDbEntity
  8
0
100
AcDbBlockBegin
  2
*Model_Space
 70
     0
 10
0.0
 20
0.0
 30
0.0
  3
*Model_Space
  1

  0
ENDBLK
  5
21
330
1F
100
AcDbEntity
  8
0
100
AcDbBlockEnd
  0
BLOCK
  5
1C
330
1B
100
AcDbEntity
 67
     1
  8
0
100
AcDbBlockBegin
  2
*Paper_Space
 70
     0
 10
0.0
 20
0.0
 30
0.0
  3
*Paper_Space
  1

  0
ENDBLK
  5
1D
330
1B
100
AcDbEntity
 67
     1
  8
0
100
AcDbBlockEnd
  0
BLOCK
  5
24
330
23
100
AcDbEntity
  8
0
100
AcDbBlockBegin
  2
*Paper_Space0
 70
     0
 10
0.0
 20
0.0
 30
0.0
  3
*Paper_Space0
  1

  0
ENDBLK
  5
25
330
23
100
AcDbEntity
  8
0
100
AcDbBlockEnd
  0
ENDSEC
  0
SECTION
  2
ENTITIES
  0
SPLINE
  5
41
330
1F
100
AcDbEntity
  8
Layer 1
 62
     5
100
AcDbSpline
210
0.0
220
0.0
230
1.0
 70
    11
 71
     3
 72
   192
 73
   188
 74
     0
 42
0.0000000001
 43
0.0000000001
 12
1.0
 22
0.0
 32
0.0
 13
1.0
 23
0.0
 33
0.0
 40
0.0
 40
0.0
 40
0.0
 40
0.0
 40
0.0208333333333333
 40
0.0208333333333333
 40
0.0208333333333333
 40
0.0208333333333333
 40
0.0416666666666667
 40
0.0416666666666667
 40
0.0416666666666667
 40
0.0416666666666667
 40
0.0625
 40
0.0625
 40
0.0625
 40
0.0625
 40
0.0833333333333333
 40
0.0833333333333333
 40
0.0833333333333333
 40
0.0833333333333333
 40
0.1041666666666667
 40
0.1041666666666667
 40
0.1041666666666667
 40
0.1041666666666667
 40
0.125
 40
0.125
 40
0.125
 40
0.125
 40
0.1458333333333333
 40
0.1458333333333333
 40
0.1458333333333333
 40
0.1458333333333333
 40
0.1666666666666667
 40
0.1666666666666667
 40
0.1666666666666667
 40
0.1666666666666667
 40
0.1875
 40
0.1875
 40
0.1875
 40
0.1875
 40
0.2083333333333333
 40
0.2083333333333333
 40
0.2083333333333333
 40
0.2083333333333333
 40
0.2291666666666667
 40
0.2291666666666667
 40
0.2291666666666667
 40
0.2291666666666667
 40
0.25
 40
0.25
 40
0.25
 40
0.25
 40
0.2708333333333333
 40
0.2708333333333333
 40
0.2708333333333333
 40
0.2708333333333333
 40
0.2916666666666667
 40
0.2916666666666667
 40
0.2916666666666667
 40
0.2916666666666667
 40
0.3125
 40
0.3125
 40
0.3125
 40
0.3125
 40
0.3333333333333333
 40
0.3333333333333333
 40
0.3333333333333333
 40
0.3333333333333333
 40
0.3541666666666667
 40
0.3541666666666667
 40
0.3541666666666667
 40
0.3541666666666667
 40
0.375
 40
0.375
 40
0.375
 40
0.375
 40
0.3958333333333333
 40
0.3958333333333333
 40
0.3958333333333333
 40
0.3958333333333333
 40
0.4166666666666667
 40
0.4166666666666667
 40
0.4166666666666667
 40
0.4166666666666667
 40
0.4375
 40
0.4375
 40
0.4375
 40
0.4375
 40
0.4583333333333333
 40
0.4583333333333333
 40
0.4583333333333333
 40
0.4583333333333333
 40
0.4791666666666667
 40
0.4791666666666667
 40
0.4791666666666667
 40
0.4791666666666667
 40
0.5
 40
0.5
 40
0.5
 40
0.5
 40
0.5208333333333334
 40
0.5208333333333334
 40
0.5208333333333334
 40
0.5208333333333334
 40
0.5416666666666666
 40
0.5416666666666666
 40
0.5416666666666666
 40
0.5416666666666666
 40
0.5625
 40
0.5625
 40
0.5625
 40
0.5625
 40
0.5833333333333334
 40
0.5833333333333334
 40
0.5833333333333334
 40
0.5833333333333334
 40
0.6041666666666666
 40
0.6041666666666666
 40
0.6041666666666666
 40
0.6041666666666666
 40
0.625
 40
0.625
 40
0.625
 40
0.625
 40
0.6458333333333334
 40
0.6458333333333334
 40
0.6458333333333334
 40
0.6458333333333334
 40
0.6666666666666666
 40
0.6666666666666666
 40
0.6666666666666666
 40
0.6666666666666666
 40
0.6875
 40
0.6875
 40
0.6875
 40
0.6875
 40
0.7083333333333334
 40
0.7083333333333334
 40
0.7083333333333334
 40
0.7083333333333334
 40
0.7291666666666666
 40
0.7291666666666666
 40
0.7291666666666666
 40
0.7291666666666666
 40
0.75
 40
0.75
 40
0.75
 40
0.75
 40
0.7708333333333334
 40
0.7708333333333334
 40
0.7708333333333334
 40
0.7708333333333334
 40
0.7916666666666666
 40
0.7916666666666666
 40
0.7916666666666666
 40
0.7916666666666666
 40
0.8125
 40
0.8125
 40
0.8125
 40
0.8125
 40
0.8333333333333334
 40
0.8333333333333334
 40
0.8333333333333334
 40
0.8333333333333334
 40
0.8541666666666666
 40
0.8541666666666666
 40
0.8541666666666666
 40
0.8541666666666666
 40
0.875
 40
0.875
 40
0.875
 40
0.875
 40
0.8958333333333334
 40
0.8958333333333334
 40
0.8958333333333334
 40
0.8958333333333334
 40
0.9166666666666666
 40
0.9166666666666666
 40
0.9166666666666666
 40
0.9166666666666666
 40
0.9375
 40
0.9375
 40
0.9375
 40
0.9375
 40
0.9583333333333334
 40
0.9583333333333334
 40
0.9583333333333334
 40
0.9583333333333334
 40
1.0
 40
1.0
 40
1.0
 40
1.0
 10
-7.8258
 20
-12.19802
 30
0.0
 10
-7.82289
 20
-12.17063
 30
0.0
 10
-7.79831
 20
-12.15077
 30
0.0
 10
-7.77092
 20
-12.15368
 30
0.0
 10
-7.77092
 20
-12.15368
 30
0.0
 10
-7.74353
 20
-12.15659
 30
0.0
 10
-7.72367
 20
-12.18117
 30
0.0
 10
-7.72658
 20
-12.20856
 30
0.0
 10
-7.72658
 20
-12.20856
 30
0.0
 10
-7.72658
 20
-12.20856
 30
0.0
 10
-7.72849
 20
-12.22654
 30
0.0
 10
-7.72849
 20
-12.22654
 30
0.0
 10
-7.72849
 20
-12.22654
 30
0.0
 10
-7.73743
 20
-12.30966
 30
0.0
 10
-7.74678
 20
-12.39663
 30
0.0
 10
-7.68965
 20
-12.52997
 30
0.0
 10
-7.68965
 20
-12.52997
 30
0.0
 10
-7.63633
 20
-12.65444
 30
0.0
 10
-7.54176
 20
-12.76233
 30
0.0
 10
-7.4311
 20
-12.85446
 30
0.0
 10
-7.4311
 20
-12.85446
 30
0.0
 10
-7.31831
 20
-12.94838
 30
0.0
 10
-7.18841
 20
-13.02614
 30
0.0
 10
-7.06758
 20
-13.08869
 30
0.0
 10
-7.06758
 20
-13.08869
 30
0.0
 10
-7.02564
 20
-13.11039
 30
0.0
 10
-6.98072
 20
-13.13259
 30
0.0
 10
-6.93409
 20
-13.15563
 30
0.0
 10
-6.93409
 20
-13.15563
 30
0.0
 10
-6.60896
 20
-13.31627
 30
0.0
 10
-6.20185
 20
-13.51744
 30
0.0
 10
-6.11052
 20
-13.88404
 30
0.0
 10
-6.11052
 20
-13.88404
 30
0.0
 10
-6.08646
 20
-13.9807
 30
0.0
 10
-6.07067
 20
-14.09517
 30
0.0
 10
-6.06801
 20
-14.2139
 30
0.0
 10
-6.06801
 20
-14.2139
 30
0.0
 10
-6.06415
 20
-14.38644
 30
0.0
 10
-6.08829
 20
-14.56831
 30
0.0
 10
-6.15537
 20
-14.71833
 30
0.0
 10
-6.15537
 20
-14.71833
 30
0.0
 10
-6.22514
 20
-14.87441
 30
0.0
 10
-6.34048
 20
-14.99622
 30
0.0
 10
-6.51736
 20
-15.04026
 30
0.0
 10
-6.51736
 20
-15.04026
 30
0.0
 10
-6.55799
 20
-15.05037
 30
0.0
 10
-6.60208
 20
-15.05624
 30
0.0
 10
-6.64978
 20
-15.05731
 30
0.0
 10
-6.64978
 20
-15.05731
 30
0.0
 10
-6.74318
 20
-15.05938
 30
0.0
 10
-6.85716
 20
-15.01528
 30
0.0
 10
-6.9532
 20
-14.94805
 30
0.0
 10
-6.9532
 20
-14.94805
 30
0.0
 10
-7.04634
 20
-14.88285
 30
0.0
 10
-7.12473
 20
-14.79455
 30
0.0
 10
-7.15377
 20
-14.70385
 30
0.0
 10
-7.15377
 20
-14.70385
 30
0.0
 10
-7.16368
 20
-14.67289
 30
0.0
 10
-7.16727
 20
-14.63723
 30
0.0
 10
-7.16525
 20
-14.59987
 30
0.0
 10
-7.16525
 20
-14.59987
 30
0.0
 10
-7.16156
 20
-14.53161
 30
0.0
 10
-7.13892
 20
-14.45501
 30
0.0
 10
-7.10202
 20
-14.39072
 30
0.0
 10
-7.10202
 20
-14.39072
 30
0.0
 10
-7.10202
 20
-14.39072
 30
0.0
 10
-7.10217
 20
-14.39063
 30
0.0
 10
-7.10217
 20
-14.39063
 30
0.0
 10
-7.10217
 20
-14.39063
 30
0.0
 10
-7.06338
 20
-14.32308
 30
0.0
 10
-7.00801
 20
-14.26777
 30
0.0
 10
-6.9404
 20
-14.24613
 30
0.0
 10
-6.9404
 20
-14.24613
 30
0.0
 10
-6.91714
 20
-14.23868
 30
0.0
 10
-6.8927
 20
-14.23524
 30
0.0
 10
-6.86733
 20
-14.23661
 30
0.0
 10
-6.86733
 20
-14.23661
 30
0.0
 10
-6.83743
 20
-14.23823
 30
0.0
 10
-6.81619
 20
-14.2503
 30
0.0
 10
-6.79422
 20
-14.26277
 30
0.0
 10
-6.79422
 20
-14.26277
 30
0.0
 10
-6.78571
 20
-14.26761
 30
0.0
 10
-6.77698
 20
-14.27258
 30
0.0
 10
-6.76966
 20
-14.27541
 30
0.0
 10
-6.76966
 20
-14.27541
 30
0.0
 10
-6.76662
 20
-14.27658
 30
0.0
 10
-6.76183
 20
-14.27715
 30
0.0
 10
-6.75662
 20
-14.27736
 30
0.0
 10
-6.75662
 20
-14.27736
 30
0.0
 10
-6.74996
 20
-14.27764
 30
0.0
 10
-6.74161
 20
-14.2771
 30
0.0
 10
-6.73439
 20
-14.27651
 30
0.0
 10
-6.73439
 20
-14.27651
 30
0.0
 10
-6.70689
 20
-14.27425
 30
0.0
 10
-6.68275
 20
-14.29471
 30
0.0
 10
-6.68049
 20
-14.32221
 30
0.0
 10
-6.68049
 20
-14.32221
 30
0.0
 10
-6.67823
 20
-14.34971
 30
0.0
 10
-6.69869
 20
-14.37385
 30
0.0
 10
-6.72619
 20
-14.37611
 30
0.0
 10
-6.72619
 20
-14.37611
 30
0.0
 10
-6.73548
 20
-14.37687
 30
0.0
 10
-6.74707
 20
-14.37753
 30
0.0
 10
-6.76052
 20
-14.37696
 30
0.0
 10
-6.76052
 20
-14.37696
 30
0.0
 10
-6.77544
 20
-14.37634
 30
0.0
 10
-6.79109
 20
-14.37399
 30
0.0
 10
-6.8056
 20
-14.36837
 30
0.0
 10
-6.8056
 20
-14.36837
 30
0.0
 10
-6.82016
 20
-14.36273
 30
0.0
 10
-6.83194
 20
-14.35603
 30
0.0
 10
-6.84344
 20
-14.34949
 30
0.0
 10
-6.84344
 20
-14.34949
 30
0.0
 10
-6.85503
 20
-14.34291
 30
0.0
 10
-6.86624
 20
-14.33654
 30
0.0
 10
-6.87241
 20
-14.33621
 30
0.0
 10
-6.87241
 20
-14.33621
 30
0.0
 10
-6.88552
 20
-14.33551
 30
0.0
 10
-6.89808
 20
-14.33725
 30
0.0
 10
-6.90994
 20
-14.34105
 30
0.0
 10
-6.90994
 20
-14.34105
 30
0.0
 10
-6.9516
 20
-14.35438
 30
0.0
 10
-6.98809
 20
-14.39258
 30
0.0
 10
-7.01545
 20
-14.44023
 30
0.0
 10
-7.01545
 20
-14.44023
 30
0.0
 10
-7.01545
 20
-14.44023
 30
0.0
 10
-7.0156
 20
-14.44014
 30
0.0
 10
-7.0156
 20
-14.44014
 30
0.0
 10
-7.0156
 20
-14.44014
 30
0.0
 10
-7.0156
 20
-14.44014
 30
0.0
 10
-7.01565
 20
-14.44023
 30
0.0
 10
-7.01565
 20
-14.44023
 30
0.0
 10
-7.01565
 20
-14.44023
 30
0.0
 10
-7.04486
 20
-14.49109
 30
0.0
 10
-7.06275
 20
-14.55141
 30
0.0
 10
-7.06565
 20
-14.60495
 30
0.0
 10
-7.06565
 20
-14.60495
 30
0.0
 10
-7.06704
 20
-14.63083
 30
0.0
 10
-7.06493
 20
-14.65439
 30
0.0
 10
-7.05885
 20
-14.67339
 30
0.0
 10
-7.05885
 20
-14.67339
 30
0.0
 10
-7.03671
 20
-14.74253
 30
0.0
 10
-6.97294
 20
-14.81266
 30
0.0
 10
-6.89616
 20
-14.86641
 30
0.0
 10
-6.89616
 20
-14.86641
 30
0.0
 10
-6.81608
 20
-14.92247
 30
0.0
 10
-6.724
 20
-14.95931
 30
0.0
 10
-6.65174
 20
-14.95771
 30
0.0
 10
-6.65174
 20
-14.95771
 30
0.0
 10
-6.61219
 20
-14.95683
 30
0.0
 10
-6.57536
 20
-14.95188
 30
0.0
 10
-6.54118
 20
-14.94338
 30
0.0
 10
-6.54118
 20
-14.94338
 30
0.0
 10
-6.3984
 20
-14.90783
 30
0.0
 10
-6.30427
 20
-14.80718
 30
0.0
 10
-6.24639
 20
-14.67771
 30
0.0
 10
-6.24639
 20
-14.67771
 30
0.0
 10
-6.1858
 20
-14.54219
 30
0.0
 10
-6.16404
 20
-14.37534
 30
0.0
 10
-6.16761
 20
-14.21586
 30
0.0
 10
-6.16761
 20
-14.21586
 30
0.0
 10
-6.17008
 20
-14.1053
 30
0.0
 10
-6.18487
 20
-13.99838
 30
0.0
 10
-6.2074
 20
-13.90786
 30
0.0
 10
-6.2074
 20
-13.90786
 30
0.0
 10
-6.28749
 20
-13.58639
 30
0.0
 10
-6.67152
 20
-13.39663
 30
0.0
 10
-6.97823
 20
-13.24509
 30
0.0
 10
-6.97823
 20
-13.24509
 30
0.0
 10
-7.02546
 20
-13.22176
 30
0.0
 10
-7.07095
 20
-13.19927
 30
0.0
 10
-7.11328
 20
-13.17737
 30
0.0
 10
-7.11328
 20
-13.17737
 30
0.0
 10
-7.23915
 20
-13.11221
 30
0.0
 10
-7.3751
 20
-13.03068
 30
0.0
 10
-7.49478
 20
-12.93102
 30
0.0
 10
-7.49478
 20
-12.93102
 30
0.0
 10
-7.6166
 20
-12.82959
 30
0.0
 10
-7.72126
 20
-12.70954
 30
0.0
 10
-7.78145
 20
-12.56903
 30
0.0
 10
-7.78145
 20
-12.56903
 30
0.0
 10
-7.84877
 20
-12.41189
 30
0.0
 10
-7.838
 20
-12.31172
 30
0.0
 10
-7.82771
 20
-12.216
 30
0.0
 10
-7.82771
 20
-12.216
 30
0.0
 10
-7.82771
 20
-12.216
 30
0.0
 10
-7.8258
 20
-12.19802
 30
0.0
 10
-7.8258
 20
-12.19802
 30
0.0
  0
SPLINE
  5
42
330
1F
100
AcDbEntity
  8
Layer 1
 62
     5
100
AcDbSpline
210
0.0
220
0.0
230
1.0
 70
    11
 71
     3
 72
   176
 73
   172
 74
     0
 42
0.0000000001
 43
0.0000000001
 12
1.0
 22
0.0
 32
0.0
 13
1.0
 23
0.0
 33
0.0
 40
0.0
 40
0.0
 40
0.0
 40
0.0
 40
0.0227272727272727
 40
0.0227272727272727
 40
0.0227272727272727
 40
0.0227272727272727
 40
0.0454545454545455
 40
0.0454545454545455
 40
0.0454545454545455
 40
0.0454545454545455
 40
0.0681818181818182
 40
0.0681818181818182
 40
0.0681818181818182
 40
0.0681818181818182
 40
0.0909090909090909
 40
0.0909090909090909
 40
0.0909090909090909
 40
0.0909090909090909
 40
0.1136363636363636
 40
0.1136363636363636
 40
0.1136363636363636
 40
0.1136363636363636
 40
0.1363636363636364
 40
0.1363636363636364
 40
0.1363636363636364
 40
0.1363636363636364
 40
0.1590909090909091
 40
0.1590909090909091
 40
0.1590909090909091
 40
0.1590909090909091
 40
0.1818181818181818
 40
0.1818181818181818
 40
0.1818181818181818
 40
0.1818181818181818
 40
0.2045454545454546
 40
0.2045454545454546
 40
0.2045454545454546
 40
0.2045454545454546
 40
0.2272727272727273
 40
0.2272727272727273
 40
0.2272727272727273
 40
0.2272727272727273
 40
0.25
 40
0.25
 40
0.25
 40
0.25
 40
0.2727272727272727
 40
0.2727272727272727
 40
0.2727272727272727
 40
0.2727272727272727
 40
0.2954545454545455
 40
0.2954545454545455
 40
0.2954545454545455
 40
0.2954545454545455
 40
0.3181818181818182
 40
0.3181818181818182
 40
0.3181818181818182
 40
0.3181818181818182
 40
0.3409090909090909
 40
0.3409090909090909
 40
0.3409090909090909
 40
0.3409090909090909
 40
0.3636363636363636
 40
0.3636363636363636
 40
0.3636363636363636
 40
0.3636363636363636
 40
0.3863636363636364
 40
0.3863636363636364
 40
0.3863636363636364
 40
0.3863636363636364
 40
0.4090909090909091
 40
0.4090909090909091
 40
0.4090909090909091
 40
0.4090909090909091
 40
0.4318181818181818
 40
0.4318181818181818
 40
0.4318181818181818
 40
0.4318181818181818
 40
0.4545454545454545
 40
0.4545454545454545
 40
0.4545454545454545
 40
0.4545454545454545
 40
0.4772727272727273
 40
0.4772727272727273
 40
0.4772727272727273
 40
0.4772727272727273
 40
0.5
 40
0.5
 40
0.5
 40
0.5
 40
0.5227272727272727
 40
0.5227272727272727
 40
0.5227272727272727
 40
0.5227272727272727
 40
0.5454545454545454
 40
0.5454545454545454
 40
0.5454545454545454
 40
0.5454545454545454
 40
0.5681818181818182
 40
0.5681818181818182
 40
0.5681818181818182
 40
0.5681818181818182
 40
0.5909090909090909
 40
0.5909090909090909
 40
0.5909090909090909
 40
0.5909090909090909
 40
0.6136363636363636
 40
0.6136363636363636
 40
0.6136363636363636
 40
0.6136363636363636
 40
0.6363636363636364
 40
0.6363636363636364
 40
0.6363636363636364
 40
0.6363636363636364
 40
0.6590909090909091
 40
0.6590909090909091
 40
0.6590909090909091
 40
0.6590909090909091
 40
0.6818181818181818
 40
0.6818181818181818
 40
0.6818181818181818
 40
0.6818181818181818
 40
0.7045454545454546
 40
0.7045454545454546
 40
0.7045454545454546
 40
0.7045454545454546
 40
0.7272727272727273
 40
0.7272727272727273
 40
0.7272727272727273
 40
0.7272727272727273
 40
0.75
 40
0.75
 40
0.75
 40
0.75
 40
0.7727272727272727
 40
0.7727272727272727
 40
0.7727272727272727
 40
0.7727272727272727
 40
0.7954545454545454
 40
0.7954545454545454
 40
0.7954545454545454
 40
0.7954545454545454
 40
0.8181818181818182
 40
0.8181818181818182
 40
0.8181818181818182
 40
0.8181818181818182
 40
0.8409090909090909
 40
0.8409090909090909
 40
0.8409090909090909
 40
0.8409090909090909
 40
0.8636363636363636
 40
0.8636363636363636
 40
0.8636363636363636
 40
0.8636363636363636
 40
0.8863636363636364
 40
0.8863636363636364
 40
0.8863636363636364
 40
0.8863636363636364
 40
0.9090909090909091
 40
0.9090909090909091
 40
0.9090909090909091
 40
0.9090909090909091
 40
0.9318181818181818
 40
0.9318181818181818
 40
0.9318181818181818
 40
0.9318181818181818
 40
0.9545454545454546
 40
0.9545454545454546
 40
0.9545454545454546
 40
0.9545454545454546
 40
1.0
 40
1.0
 40
1.0
 40
1.0
 10
-9.74898
 20
-11.99339
 30
0.0
 10
-9.75027
 20
-11.96589
 30
0.0
 10
-9.72902
 20
-11.94254
 30
0.0
 10
-9.70152
 20
-11.94125
 30
0.0
 10
-9.70152
 20
-11.94125
 30
0.0
 10
-9.67402
 20
-11.93996
 30
0.0
 10
-9.65067
 20
-11.96121
 30
0.0
 10
-9.64938
 20
-11.98871
 30
0.0
 10
-9.64938
 20
-11.98871
 30
0.0
 10
-9.64435
 20
-12.09303
 30
0.0
 10
-9.66943
 20
-12.19992
 30
0.0
 10
-9.6938
 20
-12.30379
 30
0.0
 10
-9.6938
 20
-12.30379
 30
0.0
 10
-9.71174
 20
-12.38026
 30
0.0
 10
-9.7293
 20
-12.45503
 30
0.0
 10
-9.73258
 20
-12.52039
 30
0.0
 10
-9.73258
 20
-12.52039
 30
0.0
 10
-9.73806
 20
-12.62959
 30
0.0
 10
-9.7342
 20
-12.74361
 30
0.0
 10
-9.70921
 20
-12.85027
 30
0.0
 10
-9.70921
 20
-12.85027
 30
0.0
 10
-9.68496
 20
-12.95379
 30
0.0
 10
-9.64063
 20
-13.05045
 30
0.0
 10
-9.56507
 20
-13.12854
 30
0.0
 10
-9.56507
 20
-13.12854
 30
0.0
 10
-9.47729
 20
-13.21926
 30
0.0
 10
-9.38074
 20
-13.28964
 30
0.0
 10
-9.28682
 20
-13.35811
 30
0.0
 10
-9.28682
 20
-13.35811
 30
0.0
 10
-9.09985
 20
-13.49442
 30
0.0
 10
-8.92264
 20
-13.6236
 30
0.0
 10
-8.82875
 20
-13.88592
 30
0.0
 10
-8.82875
 20
-13.88592
 30
0.0
 10
-8.76822
 20
-14.05496
 30
0.0
 10
-8.74243
 20
-14.28177
 30
0.0
 10
-8.79254
 20
-14.47615
 30
0.0
 10
-8.79254
 20
-14.47615
 30
0.0
 10
-8.83354
 20
-14.63518
 30
0.0
 10
-8.92446
 20
-14.77306
 30
0.0
 10
-9.08674
 20
-14.84376
 30
0.0
 10
-9.08674
 20
-14.84376
 30
0.0
 10
-9.1291
 20
-14.86221
 30
0.0
 10
-9.17045
 20
-14.87345
 30
0.0
 10
-9.21033
 20
-14.8783
 30
0.0
 10
-9.21033
 20
-14.8783
 30
0.0
 10
-9.30853
 20
-14.89026
 30
0.0
 10
-9.39793
 20
-14.86418
 30
0.0
 10
-9.47248
 20
-14.81283
 30
0.0
 10
-9.47248
 20
-14.81283
 30
0.0
 10
-9.54506
 20
-14.76283
 30
0.0
 10
-9.60293
 20
-14.68876
 30
0.0
 10
-9.64034
 20
-14.60291
 30
0.0
 10
-9.64034
 20
-14.60291
 30
0.0
 10
-9.66232
 20
-14.55245
 30
0.0
 10
-9.67733
 20
-14.49795
 30
0.0
 10
-9.68414
 20
-14.44201
 30
0.0
 10
-9.68414
 20
-14.44201
 30
0.0
 10
-9.69018
 20
-14.39241
 30
0.0
 10
-9.68815
 20
-14.3512
 30
0.0
 10
-9.67925
 20
-14.31761
 30
0.0
 10
-9.67925
 20
-14.31761
 30
0.0
 10
-9.66625
 20
-14.26849
 30
0.0
 10
-9.63925
 20
-14.2354
 30
0.0
 10
-9.60136
 20
-14.21615
 30
0.0
 10
-9.60136
 20
-14.21615
 30
0.0
 10
-9.56664
 20
-14.19851
 30
0.0
 10
-9.52463
 20
-14.19431
 30
0.0
 10
-9.47762
 20
-14.2013
 30
0.0
 10
-9.47762
 20
-14.2013
 30
0.0
 10
-9.42119
 20
-14.2097
 30
0.0
 10
-9.35547
 20
-14.23477
 30
0.0
 10
-9.28584
 20
-14.27185
 30
0.0
 10
-9.28584
 20
-14.27185
 30
0.0
 10
-9.26193
 20
-14.28459
 30
0.0
 10
-9.2445
 20
-14.30291
 30
0.0
 10
-9.2276
 20
-14.32099
 30
0.0
 10
-9.2276
 20
-14.32099
 30
0.0
 10
-9.2276
 20
-14.32099
 30
0.0
 10
-9.22755
 20
-14.32094
 30
0.0
 10
-9.22755
 20
-14.32094
 30
0.0
 10
-9.22755
 20
-14.32094
 30
0.0
 10
-9.22755
 20
-14.32094
 30
0.0
 10
-9.2275
 20
-14.32099
 30
0.0
 10
-9.2275
 20
-14.32099
 30
0.0
 10
-9.2275
 20
-14.32099
 30
0.0
 10
-9.20798
 20
-14.34051
 30
0.0
 10
-9.20798
 20
-14.37217
 30
0.0
 10
-9.2275
 20
-14.39169
 30
0.0
 10
-9.2275
 20
-14.39169
 30
0.0
 10
-9.24702
 20
-14.41121
 30
0.0
 10
-9.27868
 20
-14.41121
 30
0.0
 10
-9.2982
 20
-14.39169
 30
0.0
 10
-9.2982
 20
-14.39169
 30
0.0
 10
-9.2982
 20
-14.39169
 30
0.0
 10
-9.29825
 20
-14.39164
 30
0.0
 10
-9.29825
 20
-14.39164
 30
0.0
 10
-9.29825
 20
-14.39164
 30
0.0
 10
-9.29825
 20
-14.39164
 30
0.0
 10
-9.29817
 20
-14.39156
 30
0.0
 10
-9.29817
 20
-14.39156
 30
0.0
 10
-9.29817
 20
-14.39156
 30
0.0
 10
-9.29817
 20
-14.39156
 30
0.0
 10
-9.29942
 20
-14.39027
 30
0.0
 10
-9.29942
 20
-14.39027
 30
0.0
 10
-9.29942
 20
-14.39027
 30
0.0
 10
-9.31118
 20
-14.37769
 30
0.0
 10
-9.32321
 20
-14.36481
 30
0.0
 10
-9.33272
 20
-14.35975
 30
0.0
 10
-9.33272
 20
-14.35975
 30
0.0
 10
-9.39225
 20
-14.32805
 30
0.0
 10
-9.44699
 20
-14.30683
 30
0.0
 10
-9.49208
 20
-14.30012
 30
0.0
 10
-9.49208
 20
-14.30012
 30
0.0
 10
-9.51911
 20
-14.2961
 30
0.0
 10
-9.54113
 20
-14.29743
 30
0.0
 10
-9.55644
 20
-14.30521
 30
0.0
 10
-9.55644
 20
-14.30521
 30
0.0
 10
-9.56855
 20
-14.31136
 30
0.0
 10
-9.57764
 20
-14.32363
 30
0.0
 10
-9.58277
 20
-14.34301
 30
0.0
 10
-9.58277
 20
-14.34301
 30
0.0
 10
-9.58844
 20
-14.36443
 30
0.0
 10
-9.58943
 20
-14.39323
 30
0.0
 10
-9.58492
 20
-14.43029
 30
0.0
 10
-9.58492
 20
-14.43029
 30
0.0
 10
-9.57926
 20
-14.4768
 30
0.0
 10
-9.56693
 20
-14.52177
 30
0.0
 10
-9.54894
 20
-14.56307
 30
0.0
 10
-9.54894
 20
-14.56307
 30
0.0
 10
-9.51878
 20
-14.63229
 30
0.0
 10
-9.47286
 20
-14.69151
 30
0.0
 10
-9.41584
 20
-14.73079
 30
0.0
 10
-9.41584
 20
-14.73079
 30
0.0
 10
-9.36081
 20
-14.7687
 30
0.0
 10
-9.29473
 20
-14.78793
 30
0.0
 10
-9.22205
 20
-14.77908
 30
0.0
 10
-9.22205
 20
-14.77908
 30
0.0
 10
-9.19133
 20
-14.77534
 30
0.0
 10
-9.15939
 20
-14.76665
 30
0.0
 10
-9.12658
 20
-14.75236
 30
0.0
 10
-9.12658
 20
-14.75236
 30
0.0
 10
-8.99638
 20
-14.69563
 30
0.0
 10
-8.92281
 20
-14.5826
 30
0.0
 10
-8.88902
 20
-14.45155
 30
0.0
 10
-8.88902
 20
-14.45155
 30
0.0
 10
-8.8442
 20
-14.27771
 30
0.0
 10
-8.86793
 20
-14.073
 30
0.0
 10
-8.92289
 20
-13.91952
 30
0.0
 10
-8.92289
 20
-13.91952
 30
0.0
 10
-9.00663
 20
-13.68555
 30
0.0
 10
-9.17149
 20
-13.56537
 30
0.0
 10
-9.34542
 20
-13.43857
 30
0.0
 10
-9.34542
 20
-13.43857
 30
0.0
 10
-9.44322
 20
-13.36728
 30
0.0
 10
-9.54375
 20
-13.294
 30
0.0
 10
-9.63655
 20
-13.19808
 30
0.0
 10
-9.63655
 20
-13.19808
 30
0.0
 10
-9.72627
 20
-13.10535
 30
0.0
 10
-9.77843
 20
-12.99265
 30
0.0
 10
-9.80647
 20
-12.87293
 30
0.0
 10
-9.80647
 20
-12.87293
 30
0.0
 10
-9.83379
 20
-12.75635
 30
0.0
 10
-9.83807
 20
-12.63314
 30
0.0
 10
-9.83218
 20
-12.51571
 30
0.0
 10
-9.83218
 20
-12.51571
 30
0.0
 10
-9.82839
 20
-12.44016
 30
0.0
 10
-9.80993
 20
-12.36153
 30
0.0
 10
-9.79106
 20
-12.28113
 30
0.0
 10
-9.79106
 20
-12.28113
 30
0.0
 10
-9.76818
 20
-12.18363
 30
0.0
 10
-9.74464
 20
-12.0833
 30
0.0
 10
-9.74898
 20
-11.99339
 30
0.0
  0
SPLINE
  5
43
330
1F
100
AcDbEntity
  8
Layer 1
 62
     5
100
AcDbSpline
210
0.0
220
0.0
230
1.0
 70
    11
 71
     3
 72
   216
 73
   212
 74
     0
 42
0.0000000001
 43
0.0000000001
 12
1.0
 22
0.0
 32
0.0
 13
1.0
 23
0.0
 33
0.0
 40
0.0
 40
0.0
 40
0.0
 40
0.0
 40
0.0185185185185185
 40
0.0185185185185185
 40
0.0185185185185185
 40
0.0185185185185185
 40
0.037037037037037
 40
0.037037037037037
 40
0.037037037037037
 40
0.037037037037037
 40
0.0555555555555556
 40
0.0555555555555556
 40
0.0555555555555556
 40
0.0555555555555556
 40
0.0740740740740741
 40
0.0740740740740741
 40
0.0740740740740741
 40
0.0740740740740741
 40
0.0925925925925926
 40
0.0925925925925926
 40
0.0925925925925926
 40
0.0925925925925926
 40
0.1111111111111111
 40
0.1111111111111111
 40
0.1111111111111111
 40
0.1111111111111111
 40
0.1296296296296296
 40
0.1296296296296296
 40
0.1296296296296296
 40
0.1296296296296296
 40
0.1481481481481481
 40
0.1481481481481481
 40
0.1481481481481481
 40
0.1481481481481481
 40
0.1666666666666667
 40
0.1666666666666667
 40
0.1666666666666667
 40
0.1666666666666667
 40
0.1851851851851852
 40
0.1851851851851852
 40
0.1851851851851852
 40
0.1851851851851852
 40
0.2037037037037037
 40
0.2037037037037037
 40
0.2037037037037037
 40
0.2037037037037037
 40
0.2222222222222222
 40
0.2222222222222222
 40
0.2222222222222222
 40
0.2222222222222222
 40
0.2407407407407407
 40
0.2407407407407407
 40
0.2407407407407407
 40
0.2407407407407407
 40
0.2592592592592592
 40
0.2592592592592592
 40
0.2592592592592592
 40
0.2592592592592592
 40
0.2777777777777778
 40
0.2777777777777778
 40
0.2777777777777778
 40
0.2777777777777778
 40
0.2962962962962963
 40
0.2962962962962963
 40
0.2962962962962963
 40
0.2962962962962963
 40
0.3148148148148148
 40
0.3148148148148148
 40
0.3148148148148148
 40
0.3148148148148148
 40
0.3333333333333333
 40
0.3333333333333333
 40
0.3333333333333333
 40
0.3333333333333333
 40
0.3518518518518519
 40
0.3518518518518519
 40
0.3518518518518519
 40
0.3518518518518519
 40
0.3703703703703703
 40
0.3703703703703703
 40
0.3703703703703703
 40
0.3703703703703703
 40
0.3888888888888889
 40
0.3888888888888889
 40
0.3888888888888889
 40
0.3888888888888889
 40
0.4074074074074074
 40
0.4074074074074074
 40
0.4074074074074074
 40
0.4074074074074074
 40
0.4259259259259259
 40
0.4259259259259259
 40
0.4259259259259259
 40
0.4259259259259259
 40
0.4444444444444444
 40
0.4444444444444444
 40
0.4444444444444444
 40
0.4444444444444444
 40
0.462962962962963
 40
0.462962962962963
 40
0.462962962962963
 40
0.462962962962963
 40
0.4814814814814815
 40
0.4814814814814815
 40
0.4814814814814815
 40
0.4814814814814815
 40
0.5
 40
0.5
 40
0.5
 40
0.5
 40
0.5185185185185185
 40
0.5185185185185185
 40
0.5185185185185185
 40
0.5185185185185185
 40
0.5370370370370371
 40
0.5370370370370371
 40
0.5370370370370371
 40
0.5370370370370371
 40
0.5555555555555556
 40
0.5555555555555556
 40
0.5555555555555556
 40
0.5555555555555556
 40
0.5740740740740741
 40
0.5740740740740741
 40
0.5740740740740741
 40
0.5740740740740741
 40
0.5925925925925926
 40
0.5925925925925926
 40
0.5925925925925926
 40
0.5925925925925926
 40
0.6111111111111112
 40
0.6111111111111112
 40
0.6111111111111112
 40
0.6111111111111112
 40
0.6296296296296297
 40
0.6296296296296297
 40
0.6296296296296297
 40
0.6296296296296297
 40
0.6481481481481481
 40
0.6481481481481481
 40
0.6481481481481481
 40
0.6481481481481481
 40
0.6666666666666666
 40
0.6666666666666666
 40
0.6666666666666666
 40
0.6666666666666666
 40
0.6851851851851852
 40
0.6851851851851852
 40
0.6851851851851852
 40
0.6851851851851852
 40
0.7037037037037037
 40
0.7037037037037037
 40
0.7037037037037037
 40
0.7037037037037037
 40
0.7222222222222222
 40
0.7222222222222222
 40
0.7222222222222222
 40
0.7222222222222222
 40
0.7407407407407407
 40
0.7407407407407407
 40
0.7407407407407407
 40
0.7407407407407407
 40
0.7592592592592593
 40
0.7592592592592593
 40
0.7592592592592593
 40
0.7592592592592593
 40
0.7777777777777778
 40
0.7777777777777778
 40
0.7777777777777778
 40
0.7777777777777778
 40
0.7962962962962963
 40
0.7962962962962963
 40
0.7962962962962963
 40
0.7962962962962963
 40
0.8148148148148148
 40
0.8148148148148148
 40
0.8148148148148148
 40
0.8148148148148148
 40
0.8333333333333334
 40
0.8333333333333334
 40
0.8333333333333334
 40
0.8333333333333334
 40
0.8518518518518519
 40
0.8518518518518519
 40
0.8518518518518519
 40
0.8518518518518519
 40
0.8703703703703703
 40
0.8703703703703703
 40
0.8703703703703703
 40
0.8703703703703703
 40
0.8888888888888888
 40
0.8888888888888888
 40
0.8888888888888888
 40
0.8888888888888888
 40
0.9074074074074074
 40
0.9074074074074074
 40
0.9074074074074074
 40
0.9074074074074074
 40
0.9259259259259259
 40
0.9259259259259259
 40
0.9259259259259259
 40
0.9259259259259259
 40
0.9444444444444444
 40
0.9444444444444444
 40
0.9444444444444444
 40
0.9444444444444444
 40
0.9629629629629629
 40
0.9629629629629629
 40
0.9629629629629629
 40
0.9629629629629629
 40
1.0
 40
1.0
 40
1.0
 40
1.0
 10
-11.48871
 20
-14.14712
 30
0.0
 10
-11.46919
 20
-14.16653
 30
0.0
 10
-11.46911
 20
-14.19811
 30
0.0
 10
-11.48852
 20
-14.21763
 30
0.0
 10
-11.48852
 20
-14.21763
 30
0.0
 10
-11.50793
 20
-14.23715
 30
0.0
 10
-11.53951
 20
-14.23723
 30
0.0
 10
-11.55903
 20
-14.21782
 30
0.0
 10
-11.55903
 20
-14.21782
 30
0.0
 10
-11.56999
 20
-14.20692
 30
0.0
 10
-11.58013
 20
-14.19496
 30
0.0
 10
-11.58892
 20
-14.1819
 30
0.0
 10
-11.58892
 20
-14.1819
 30
0.0
 10
-11.59819
 20
-14.16811
 30
0.0
 10
-11.60581
 20
-14.15344
 30
0.0
 10
-11.61113
 20
-14.13796
 30
0.0
 10
-11.61113
 20
-14.13796
 30
0.0
 10
-11.61147
 20
-14.13696
 30
0.0
 10
-11.61177
 20
-14.13596
 30
0.0
 10
-11.61205
 20
-14.13496
 30
0.0
 10
-11.61205
 20
-14.13496
 30
0.0
 10
-11.63027
 20
-14.07783
 30
0.0
 10
-11.60759
 20
-14.02424
 30
0.0
 10
-11.56841
 20
-13.98141
 30
0.0
 10
-11.56841
 20
-13.98141
 30
0.0
 10
-11.53418
 20
-13.94401
 30
0.0
 10
-11.48614
 20
-13.91452
 30
0.0
 10
-11.44567
 20
-13.9006
 30
0.0
 10
-11.44567
 20
-13.9006
 30
0.0
 10
-11.44448
 20
-13.90019
 30
0.0
 10
-11.44329
 20
-13.89983
 30
0.0
 10
-11.44209
 20
-13.89952
 30
0.0
 10
-11.44209
 20
-13.89952
 30
0.0
 10
-11.44209
 20
-13.89952
 30
0.0
 10
-11.44169
 20
-13.89941
 30
0.0
 10
-11.44169
 20
-13.89941
 30
0.0
 10
-11.44169
 20
-13.89941
 30
0.0
 10
-11.38167
 20
-13.87988
 30
0.0
 10
-11.32411
 20
-13.88709
 30
0.0
 10
-11.27258
 20
-13.91061
 30
0.0
 10
-11.27258
 20
-13.91061
 30
0.0
 10
-11.21441
 20
-13.93715
 30
0.0
 10
-11.16475
 20
-13.98498
 30
0.0
 10
-11.12924
 20
-14.03736
 30
0.0
 10
-11.12924
 20
-14.03736
 30
0.0
 10
-11.0544
 20
-14.14775
 30
0.0
 10
-11.02224
 20
-14.26436
 30
0.0
 10
-11.02396
 20
-14.3762
 30
0.0
 10
-11.02396
 20
-14.3762
 30
0.0
 10
-11.02544
 20
-14.4726
 30
0.0
 10
-11.0519
 20
-14.56498
 30
0.0
 10
-11.09776
 20
-14.64648
 30
0.0
 10
-11.09776
 20
-14.64648
 30
0.0
 10
-11.14344
 20
-14.72765
 30
0.0
 10
-11.20857
 20
-14.79846
 30
0.0
 10
-11.28758
 20
-14.85202
 30
0.0
 10
-11.28758
 20
-14.85202
 30
0.0
 10
-11.38797
 20
-14.92007
 30
0.0
 10
-11.51065
 20
-14.96011
 30
0.0
 10
-11.64413
 20
-14.95806
 30
0.0
 10
-11.64413
 20
-14.95806
 30
0.0
 10
-11.80525
 20
-14.95558
 30
0.0
 10
-11.92738
 20
-14.91037
 30
0.0
 10
-12.01618
 20
-14.83698
 30
0.0
 10
-12.01618
 20
-14.83698
 30
0.0
 10
-12.08441
 20
-14.78059
 30
0.0
 10
-12.13238
 20
-14.70804
 30
0.0
 10
-12.16282
 20
-14.62578
 30
0.0
 10
-12.16282
 20
-14.62578
 30
0.0
 10
-12.19237
 20
-14.54592
 30
0.0
 10
-12.20512
 20
-14.45671
 30
0.0
 10
-12.2037
 20
-14.36432
 30
0.0
 10
-12.2037
 20
-14.36432
 30
0.0
 10
-12.20009
 20
-14.12981
 30
0.0
 10
-12.10399
 20
-13.87291
 30
0.0
 10
-11.95969
 20
-13.69831
 30
0.0
 10
-11.95969
 20
-13.69831
 30
0.0
 10
-11.88965
 20
-13.61357
 30
0.0
 10
-11.81037
 20
-13.55184
 30
0.0
 10
-11.72362
 20
-13.50212
 30
0.0
 10
-11.72362
 20
-13.50212
 30
0.0
 10
-11.63878
 20
-13.45348
 30
0.0
 10
-11.54739
 20
-13.41676
 30
0.0
 10
-11.45062
 20
-13.38106
 30
0.0
 10
-11.45062
 20
-13.38106
 30
0.0
 10
-11.32169
 20
-13.33353
 30
0.0
 10
-11.18938
 20
-13.26026
 30
0.0
 10
-11.07242
 20
-13.16908
 30
0.0
 10
-11.07242
 20
-13.16908
 30
0.0
 10
-10.9641
 20
-13.08464
 30
0.0
 10
-10.86905
 20
-12.98507
 30
0.0
 10
-10.80229
 20
-12.87674
 30
0.0
 10
-10.80229
 20
-12.87674
 30
0.0
 10
-10.76187
 20
-12.81115
 30
0.0
 10
-10.73197
 20
-12.73931
 30
0.0
 10
-10.71293
 20
-12.66433
 30
0.0
 10
-10.71293
 20
-12.66433
 30
0.0
 10
-10.69359
 20
-12.58817
 30
0.0
 10
-10.68561
 20
-12.50931
 30
0.0
 10
-10.68927
 20
-12.43091
 30
0.0
 10
-10.68927
 20
-12.43091
 30
0.0
 10
-10.69226
 20
-12.367
 30
0.0
 10
-10.70777
 20
-12.32804
 30
0.0
 10
-10.72171
 20
-12.29302
 30
0.0
 10
-10.72171
 20
-12.29302
 30
0.0
 10
-10.74565
 20
-12.2329
 30
0.0
 10
-10.76601
 20
-12.18173
 30
0.0
 10
-10.73934
 20
-12.06949
 30
0.0
 10
-10.73934
 20
-12.06949
 30
0.0
 10
-10.73298
 20
-12.04264
 30
0.0
 10
-10.70604
 20
-12.02602
 30
0.0
 10
-10.67919
 20
-12.03238
 30
0.0
 10
-10.67919
 20
-12.03238
 30
0.0
 10
-10.65234
 20
-12.03874
 30
0.0
 10
-10.63572
 20
-12.06568
 30
0.0
 10
-10.64208
 20
-12.09253
 30
0.0
 10
-10.64208
 20
-12.09253
 30
0.0
 10
-10.6616
 20
-12.17471
 30
0.0
 10
-10.64668
 20
-12.21222
 30
0.0
 10
-10.62913
 20
-12.2563
 30
0.0
 10
-10.62913
 20
-12.2563
 30
0.0
 10
-10.61224
 20
-12.29874
 30
0.0
 10
-10.59345
 20
-12.34592
 30
0.0
 10
-10.58967
 20
-12.42661
 30
0.0
 10
-10.58967
 20
-12.42661
 30
0.0
 10
-10.58554
 20
-12.51518
 30
0.0
 10
-10.59443
 20
-12.60381
 30
0.0
 10
-10.61605
 20
-12.68893
 30
0.0
 10
-10.61605
 20
-12.68893
 30
0.0
 10
-10.63737
 20
-12.7729
 30
0.0
 10
-10.67131
 20
-12.8541
 30
0.0
 10
-10.71753
 20
-12.92908
 30
0.0
 10
-10.71753
 20
-12.92908
 30
0.0
 10
-10.79075
 20
-13.04789
 30
0.0
 10
-10.89399
 20
-13.1563
 30
0.0
 10
-11.0111
 20
-13.2476
 30
0.0
 10
-11.0111
 20
-13.2476
 30
0.0
 10
-11.13662
 20
-13.34545
 30
0.0
 10
-11.27835
 20
-13.42398
 30
0.0
 10
-11.41624
 20
-13.47482
 30
0.0
 10
-11.41624
 20
-13.47482
 30
0.0
 10
-11.5084
 20
-13.50882
 30
0.0
 10
-11.59512
 20
-13.54361
 30
0.0
 10
-11.67402
 20
-13.58884
 30
0.0
 10
-11.67402
 20
-13.58884
 30
0.0
 10
-11.75101
 20
-13.63296
 30
0.0
 10
-11.82116
 20
-13.6875
 30
0.0
 10
-11.88273
 20
-13.76199
 30
0.0
 10
-11.88273
 20
-13.76199
 30
0.0
 10
-12.01365
 20
-13.92039
 30
0.0
 10
-12.10084
 20
-14.1532
 30
0.0
 10
-12.1041
 20
-14.3655
 30
0.0
 10
-12.1041
 20
-14.3655
 30
0.0
 10
-12.10533
 20
-14.44579
 30
0.0
 10
-12.0944
 20
-14.5229
 30
0.0
 10
-12.06906
 20
-14.5914
 30
0.0
 10
-12.06906
 20
-14.5914
 30
0.0
 10
-12.04462
 20
-14.65747
 30
0.0
 10
-12.00646
 20
-14.71542
 30
0.0
 10
-11.9525
 20
-14.76002
 30
0.0
 10
-11.9525
 20
-14.76002
 30
0.0
 10
-11.8804
 20
-14.81961
 30
0.0
 10
-11.77899
 20
-14.85637
 30
0.0
 10
-11.64295
 20
-14.85846
 30
0.0
 10
-11.64295
 20
-14.85846
 30
0.0
 10
-11.53061
 20
-14.86018
 30
0.0
 10
-11.42757
 20
-14.82663
 30
0.0
 10
-11.34344
 20
-14.7696
 30
0.0
 10
-11.34344
 20
-14.7696
 30
0.0
 10
-11.27757
 20
-14.72494
 30
0.0
 10
-11.22315
 20
-14.66571
 30
0.0
 10
-11.18486
 20
-14.59766
 30
0.0
 10
-11.18486
 20
-14.59766
 30
0.0
 10
-11.14675
 20
-14.52993
 30
0.0
 10
-11.12477
 20
-14.45381
 30
0.0
 10
-11.12356
 20
-14.37502
 30
0.0
 10
-11.12356
 20
-14.37502
 30
0.0
 10
-11.12213
 20
-14.2825
 30
0.0
 10
-11.14906
 20
-14.18556
 30
0.0
 10
-11.21166
 20
-14.09322
 30
0.0
 10
-11.21166
 20
-14.09322
 30
0.0
 10
-11.23789
 20
-14.05454
 30
0.0
 10
-11.2735
 20
-14.0197
 30
0.0
 10
-11.31398
 20
-14.00123
 30
0.0
 10
-11.31398
 20
-14.00123
 30
0.0
 10
-11.34374
 20
-13.98765
 30
0.0
 10
-11.37661
 20
-13.9833
 30
0.0
 10
-11.41044
 20
-13.99408
 30
0.0
 10
-11.41044
 20
-13.99408
 30
0.0
 10
-11.41136
 20
-13.99446
 30
0.0
 10
-11.41229
 20
-13.99481
 30
0.0
 10
-11.41325
 20
-13.99514
 30
0.0
 10
-11.41325
 20
-13.99514
 30
0.0
 10
-11.44046
 20
-14.0045
 30
0.0
 10
-11.47249
 20
-14.02403
 30
0.0
 10
-11.49497
 20
-14.04859
 30
0.0
 10
-11.49497
 20
-14.04859
 30
0.0
 10
-11.5116
 20
-14.06677
 30
0.0
 10
-11.52217
 20
-14.08688
 30
0.0
 10
-11.5171
 20
-14.10412
 30
0.0
 10
-11.5171
 20
-14.10412
 30
0.0
 10
-11.5171
 20
-14.10412
 30
0.0
 10
-11.51659
 20
-14.10554
 30
0.0
 10
-11.51659
 20
-14.10554
 30
0.0
 10
-11.51659
 20
-14.10554
 30
0.0
 10
-11.51401
 20
-14.11305
 30
0.0
 10
-11.51041
 20
-14.12003
 30
0.0
 10
-11.5061
 20
-14.12644
 30
0.0
 10
-11.5061
 20
-14.12644
 30
0.0
 10
-11.5013
 20
-14.13358
 30
0.0
 10
-11.49536
 20
-14.1405
 30
0.0
 10
-11.48871
 20
-14.14712
 30
0.0
  0
SPLINE
  5
44
330
1F
100
AcDbEntity
  8
Layer 1
 62
     5
100
AcDbSpline
210
0.0
220
0.0
230
1.0
 70
    11
 71
     3
 72
   156
 73
   152
 74
     0
 42
0.0000000001
 43
0.0000000001
 12
1.0
 22
0.0
 32
0.0
 13
1.0
 23
0.0
 33
0.0
 40
0.0
 40
0.0
 40
0.0
 40
0.0
 40
0.0256410256410256
 40
0.0256410256410256
 40
0.0256410256410256
 40
0.0256410256410256
 40
0.0512820512820513
 40
0.0512820512820513
 40
0.0512820512820513
 40
0.0512820512820513
 40
0.0769230769230769
 40
0.0769230769230769
 40
0.0769230769230769
 40
0.0769230769230769
 40
0.1025641025641026
 40
0.1025641025641026
 40
0.1025641025641026
 40
0.1025641025641026
 40
0.1282051282051282
 40
0.1282051282051282
 40
0.1282051282051282
 40
0.1282051282051282
 40
0.1538461538461539
 40
0.1538461538461539
 40
0.1538461538461539
 40
0.1538461538461539
 40
0.1794871794871795
 40
0.1794871794871795
 40
0.1794871794871795
 40
0.1794871794871795
 40
0.2051282051282051
 40
0.2051282051282051
 40
0.2051282051282051
 40
0.2051282051282051
 40
0.2307692307692308
 40
0.2307692307692308
 40
0.2307692307692308
 40
0.2307692307692308
 40
0.2564102564102564
 40
0.2564102564102564
 40
0.2564102564102564
 40
0.2564102564102564
 40
0.282051282051282
 40
0.282051282051282
 40
0.282051282051282
 40
0.282051282051282
 40
0.3076923076923077
 40
0.3076923076923077
 40
0.3076923076923077
 40
0.3076923076923077
 40
0.3333333333333333
 40
0.3333333333333333
 40
0.3333333333333333
 40
0.3333333333333333
 40
0.358974358974359
 40
0.358974358974359
 40
0.358974358974359
 40
0.358974358974359
 40
0.3846153846153846
 40
0.3846153846153846
 40
0.3846153846153846
 40
0.3846153846153846
 40
0.4102564102564102
 40
0.4102564102564102
 40
0.4102564102564102
 40
0.4102564102564102
 40
0.4358974358974359
 40
0.4358974358974359
 40
0.4358974358974359
 40
0.4358974358974359
 40
0.4615384615384616
 40
0.4615384615384616
 40
0.4615384615384616
 40
0.4615384615384616
 40
0.4871794871794872
 40
0.4871794871794872
 40
0.4871794871794872
 40
0.4871794871794872
 40
0.5128205128205128
 40
0.5128205128205128
 40
0.5128205128205128
 40
0.5128205128205128
 40
0.5384615384615384
 40
0.5384615384615384
 40
0.5384615384615384
 40
0.5384615384615384
 40
0.5641025641025641
 40
0.5641025641025641
 40
0.5641025641025641
 40
0.5641025641025641
 40
0.5897435897435898
 40
0.5897435897435898
 40
0.5897435897435898
 40
0.5897435897435898
 40
0.6153846153846154
 40
0.6153846153846154
 40
0.6153846153846154
 40
0.6153846153846154
 40
0.6410256410256411
 40
0.6410256410256411
 40
0.6410256410256411
 40
0.6410256410256411
 40
0.6666666666666666
 40
0.6666666666666666
 40
0.6666666666666666
 40
0.6666666666666666
 40
0.6923076923076923
 40
0.6923076923076923
 40
0.6923076923076923
 40
0.6923076923076923
 40
0.717948717948718
 40
0.717948717948718
 40
0.717948717948718
 40
0.717948717948718
 40
0.7435897435897436
 40
0.7435897435897436
 40
0.7435897435897436
 40
0.7435897435897436
 40
0.7692307692307693
 40
0.7692307692307693
 40
0.7692307692307693
 40
0.7692307692307693
 40
0.7948717948717948
 40
0.7948717948717948
 40
0.7948717948717948
 40
0.7948717948717948
 40
0.8205128205128205
 40
0.8205128205128205
 40
0.8205128205128205
 40
0.8205128205128205
 40
0.8461538461538461
 40
0.8461538461538461
 40
0.8461538461538461
 40
0.8461538461538461
 40
0.8717948717948718
 40
0.8717948717948718
 40
0.8717948717948718
 40
0.8717948717948718
 40
0.8974358974358975
 40
0.8974358974358975
 40
0.8974358974358975
 40
0.8974358974358975
 40
0.9230769230769231
 40
0.9230769230769231
 40
0.9230769230769231
 40
0.9230769230769231
 40
0.9487179487179487
 40
0.9487179487179487
 40
0.9487179487179487
 40
0.9487179487179487
 40
1.0
 40
1.0
 40
1.0
 40
1.0
 10
-13.89508
 20
-14.57314
 30
0.0
 10
-13.92107
 20
-14.5823
 30
0.0
 10
-13.94959
 20
-14.56866
 30
0.0
 10
-13.95875
 20
-14.54267
 30
0.0
 10
-13.95875
 20
-14.54267
 30
0.0
 10
-13.96791
 20
-14.51668
 30
0.0
 10
-13.95427
 20
-14.48816
 30
0.0
 10
-13.92828
 20
-14.479
 30
0.0
 10
-13.92828
 20
-14.479
 30
0.0
 10
-13.91323
 20
-14.47367
 30
0.0
 10
-13.89758
 20
-14.46582
 30
0.0
 10
-13.88222
 20
-14.45813
 30
0.0
 10
-13.88222
 20
-14.45813
 30
0.0
 10
-13.85403
 20
-14.444
 30
0.0
 10
-13.82647
 20
-14.43018
 30
0.0
 10
-13.79703
 20
-14.42554
 30
0.0
 10
-13.79703
 20
-14.42554
 30
0.0
 10
-13.7335
 20
-14.41551
 30
0.0
 10
-13.67716
 20
-14.42591
 30
0.0
 10
-13.6322
 20
-14.45047
 30
0.0
 10
-13.6322
 20
-14.45047
 30
0.0
 10
-13.60295
 20
-14.46646
 30
0.0
 10
-13.57861
 20
-14.48841
 30
0.0
 10
-13.56024
 20
-14.51465
 30
0.0
 10
-13.56024
 20
-14.51465
 30
0.0
 10
-13.54197
 20
-14.54078
 30
0.0
 10
-13.5297
 20
-14.5711
 30
0.0
 10
-13.52451
 20
-14.60397
 30
0.0
 10
-13.52451
 20
-14.60397
 30
0.0
 10
-13.51639
 20
-14.6554
 30
0.0
 10
-13.52574
 20
-14.71283
 30
0.0
 10
-13.55667
 20
-14.76942
 30
0.0
 10
-13.55667
 20
-14.76942
 30
0.0
 10
-13.58732
 20
-14.82548
 30
0.0
 10
-13.64015
 20
-14.87201
 30
0.0
 10
-13.70061
 20
-14.90941
 30
0.0
 10
-13.70061
 20
-14.90941
 30
0.0
 10
-13.77657
 20
-14.9564
 30
0.0
 10
-13.86549
 20
-14.98966
 30
0.0
 10
-13.93512
 20
-15.00893
 30
0.0
 10
-13.93512
 20
-15.00893
 30
0.0
 10
-13.97351
 20
-15.01955
 30
0.0
 10
-14.01216
 20
-15.02702
 30
0.0
 10
-14.05035
 20
-15.03119
 30
0.0
 10
-14.05035
 20
-15.03119
 30
0.0
 10
-14.16369
 20
-15.04356
 30
0.0
 10
-14.27456
 20
-15.02709
 30
0.0
 10
-14.36588
 20
-14.97839
 30
0.0
 10
-14.36588
 20
-14.97839
 30
0.0
 10
-14.4597
 20
-14.92835
 30
0.0
 10
-14.5321
 20
-14.8453
 30
0.0
 10
-14.56516
 20
-14.72581
 30
0.0
 10
-14.56516
 20
-14.72581
 30
0.0
 10
-14.57237
 20
-14.69976
 30
0.0
 10
-14.57768
 20
-14.67211
 30
0.0
 10
-14.58086
 20
-14.64288
 30
0.0
 10
-14.58086
 20
-14.64288
 30
0.0
 10
-14.62981
 20
-14.19488
 30
0.0
 10
-14.26607
 20
-13.97478
 30
0.0
 10
-13.94068
 20
-13.77791
 30
0.0
 10
-13.94068
 20
-13.77791
 30
0.0
 10
-13.93955
 20
-13.77723
 30
0.0
 10
-13.9384
 20
-13.7766
 30
0.0
 10
-13.93724
 20
-13.77602
 30
0.0
 10
-13.93724
 20
-13.77602
 30
0.0
 10
-13.92389
 20
-13.76795
 30
0.0
 10
-13.91018
 20
-13.75963
 30
0.0
 10
-13.87357
 20
-13.7372
 30
0.0
 10
-13.87357
 20
-13.7372
 30
0.0
 10
-13.49102
 20
-13.50264
 30
0.0
 10
-13.27757
 20
-13.10508
 30
0.0
 10
-13.06496
 20
-12.70905
 30
0.0
 10
-13.06496
 20
-12.70905
 30
0.0
 10
-12.96345
 20
-12.51998
 30
0.0
 10
-12.8621
 20
-12.33121
 30
0.0
 10
-12.74244
 20
-12.15896
 30
0.0
 10
-12.74244
 20
-12.15896
 30
0.0
 10
-12.72669
 20
-12.13631
 30
0.0
 10
-12.69555
 20
-12.13071
 30
0.0
 10
-12.6729
 20
-12.14646
 30
0.0
 10
-12.6729
 20
-12.14646
 30
0.0
 10
-12.65025
 20
-12.16221
 30
0.0
 10
-12.64465
 20
-12.19335
 30
0.0
 10
-12.6604
 20
-12.216
 30
0.0
 10
-12.6604
 20
-12.216
 30
0.0
 10
-12.77738
 20
-12.38439
 30
0.0
 10
-12.87714
 20
-12.5702
 30
0.0
 10
-12.97706
 20
-12.75631
 30
0.0
 10
-12.97706
 20
-12.75631
 30
0.0
 10
-13.196
 20
-13.16414
 30
0.0
 10
-13.41581
 20
-13.57355
 30
0.0
 10
-13.82161
 20
-13.82236
 30
0.0
 10
-13.82161
 20
-13.82236
 30
0.0
 10
-13.82161
 20
-13.82236
 30
0.0
 10
-13.88566
 20
-13.86117
 30
0.0
 10
-13.88566
 20
-13.86117
 30
0.0
 10
-13.88566
 20
-13.86117
 30
0.0
 10
-13.88677
 20
-13.86197
 30
0.0
 10
-13.88793
 20
-13.86273
 30
0.0
 10
-13.88912
 20
-13.86345
 30
0.0
 10
-13.88912
 20
-13.86345
 30
0.0
 10
-14.18876
 20
-14.04474
 30
0.0
 10
-14.5237
 20
-14.24741
 30
0.0
 10
-14.48164
 20
-14.63234
 30
0.0
 10
-14.48164
 20
-14.63234
 30
0.0
 10
-14.47903
 20
-14.65627
 30
0.0
 10
-14.47478
 20
-14.67857
 30
0.0
 10
-14.46906
 20
-14.69925
 30
0.0
 10
-14.46906
 20
-14.69925
 30
0.0
 10
-14.44393
 20
-14.79008
 30
0.0
 10
-14.38944
 20
-14.85292
 30
0.0
 10
-14.319
 20
-14.89049
 30
0.0
 10
-14.319
 20
-14.89049
 30
0.0
 10
-14.24609
 20
-14.92937
 30
0.0
 10
-14.15527
 20
-14.94227
 30
0.0
 10
-14.06089
 20
-14.93197
 30
0.0
 10
-14.06089
 20
-14.93197
 30
0.0
 10
-14.02791
 20
-14.92837
 30
0.0
 10
-13.99463
 20
-14.92194
 30
0.0
 10
-13.96168
 20
-14.91283
 30
0.0
 10
-13.96168
 20
-14.91283
 30
0.0
 10
-13.8991
 20
-14.89551
 30
0.0
 10
-13.81968
 20
-14.86594
 30
0.0
 10
-13.75295
 20
-14.82465
 30
0.0
 10
-13.75295
 20
-14.82465
 30
0.0
 10
-13.70584
 20
-14.79551
 30
0.0
 10
-13.66558
 20
-14.76093
 30
0.0
 10
-13.64417
 20
-14.72176
 30
0.0
 10
-13.64417
 20
-14.72176
 30
0.0
 10
-13.62432
 20
-14.68544
 30
0.0
 10
-13.6181
 20
-14.64994
 30
0.0
 10
-13.62295
 20
-14.61921
 30
0.0
 10
-13.62295
 20
-14.61921
 30
0.0
 10
-13.62573
 20
-14.60163
 30
0.0
 10
-13.63223
 20
-14.58548
 30
0.0
 10
-13.64188
 20
-14.57169
 30
0.0
 10
-13.64188
 20
-14.57169
 30
0.0
 10
-13.65146
 20
-14.55801
 30
0.0
 10
-13.66431
 20
-14.54647
 30
0.0
 10
-13.67986
 20
-14.53797
 30
0.0
 10
-13.67986
 20
-14.53797
 30
0.0
 10
-13.7064
 20
-14.52347
 30
0.0
 10
-13.74112
 20
-14.51756
 30
0.0
 10
-13.78179
 20
-14.52398
 30
0.0
 10
-13.78179
 20
-14.52398
 30
0.0
 10
-13.79577
 20
-14.52618
 30
0.0
 10
-13.8165
 20
-14.53658
 30
0.0
 10
-13.83768
 20
-14.54719
 30
0.0
 10
-13.83768
 20
-14.54719
 30
0.0
 10
-13.85664
 20
-14.55668
 30
0.0
 10
-13.87593
 20
-14.56635
 30
0.0
 10
-13.89508
 20
-14.57314
 30
0.0
  0
SPLINE
  5
45
330
1F
100
AcDbEntity
  8
Layer 1
100
AcDbSpline
210
0.0
220
0.0
230
1.0
 70
    11
 71
     3
 72
    28
 73
    24
 74
     0
 42
0.0000000001
 43
0.0000000001
 12
1.0
 22
0.0
 32
0.0
 13
1.0
 23
0.0
 33
0.0
 40
0.0
 40
0.0
 40
0.0
 40
0.0
 40
0.1428571428571428
 40
0.1428571428571428
 40
0.1428571428571428
 40
0.1428571428571428
 40
0.2857142857142857
 40
0.2857142857142857
 40
0.2857142857142857
 40
0.2857142857142857
 40
0.4285714285714285
 40
0.4285714285714285
 40
0.4285714285714285
 40
0.4285714285714285
 40
0.5714285714285714
 40
0.5714285714285714
 40
0.5714285714285714
 40
0.5714285714285714
 40
0.7142857142857143
 40
0.7142857142857143
 40
0.7142857142857143
 40
0.7142857142857143
 40
1.0
 40
1.0
 40
1.0
 40
1.0
 10
-6.57885
 20
-14.99025
 30
0.0
 10
-6.57885
 20
-15.01786
 30
0.0
 10
-6.60124
 20
-15.04025
 30
0.0
 10
-6.62885
 20
-15.04025
 30
0.0
 10
-6.62885
 20
-15.04025
 30
0.0
 10
-6.65646
 20
-15.04025
 30
0.0
 10
-6.67885
 20
-15.01786
 30
0.0
 10
-6.67885
 20
-14.99025
 30
0.0
 10
-6.67885
 20
-14.99025
 30
0.0
 10
-6.67885
 20
-14.99025
 30
0.0
 10
-6.67885
 20
-14.97452
 30
0.0
 10
-6.67885
 20
-14.97452
 30
0.0
 10
-6.67885
 20
-14.97452
 30
0.0
 10
-6.67885
 20
-14.94691
 30
0.0
 10
-6.65646
 20
-14.92452
 30
0.0
 10
-6.62885
 20
-14.92452
 30
0.0
 10
-6.62885
 20
-14.92452
 30
0.0
 10
-6.60124
 20
-14.92452
 30
0.0
 10
-6.57885
 20
-14.94691
 30
0.0
 10
-6.57885
 20
-14.97452
 30
0.0
 10
-6.57885
 20
-14.97452
 30
0.0
 10
-6.57885
 20
-14.97452
 30
0.0
 10
-6.57885
 20
-14.99025
 30
0.0
 10
-6.57885
 20
-14.99025
 30
0.0
  0
SPLINE
  5
46
330
1F
100
AcDbEntity
  8
Layer 1
370
   100
100
AcDbSpline
210
0.0
220
0.0
230
1.0
 70
    27
 71
     3
 72
     8
 73
     4
 74
     0
 42
0.0000000001
 43
0.0000000001
 12
1.0
 22
0.0
 32
0.0
 13
1.0
 23
0.0
 33
0.0
 40
0.0
 40
0.0
 40
0.0
 40
0.0
 40
1.0
 40
1.0
 40
1.0
 40
1.0
 10
-10.83633
 20
-13.00974
 30
0.0
 10
-10.83633
 20
-13.00974
 30
0.0
 10
-10.83633
 20
-13.00974
 30
0.0
 10
-10.83633
 20
-13.00974
 30
0.0
  0
ENDSEC
  0
SECTION
  2
OBJECTS
  0
DICTIONARY
  5
C
330
0
100
AcDbDictionary
281
     1
  3
ACAD_GROUP
350
D
  3
ACAD_LAYOUT
350
1A
  3
ACAD_MATERIAL
350
3B
  3
ACAD_MLEADERSTYLE
350
68
  3
ACAD_MLINESTYLE
350
17
  3
ACAD_PLOTSETTINGS
350
19
  3
ACAD_PLOTSTYLENAME
350
E
  3
ACAD_TABLESTYLE
350
67
  3
ACAD_VISUALSTYLE
350
2A
  0
DICTIONARY
  5
D
102
{ACAD_REACTORS
330
C
102
}
330
C
100
AcDbDictionary
281
     1
  0
DICTIONARY
  5
1A
102
{ACAD_REACTORS
330
C
102
}
330
C
100
AcDbDictionary
281
     1
  3
Layout1
350
1E
  3
Layout2
350
26
  3
Model
350
22
  0
DICTIONARY
  5
3B
102
{ACAD_REACTORS
330
C
102
}
330
C
100
AcDbDictionary
281
     1
  3
ByBlock
350
3D
  3
ByLayer
350
3C
  3
Global
350
3E
  0
DICTIONARY
  5
68
102
{ACAD_REACTORS
330
C
102
}
330
C
100
AcDbDictionary
281
     1
  0
DICTIONARY
  5
17
102
{ACAD_REACTORS
330
C
102
}
330
C
100
AcDbDictionary
281
     1
  3
Standard
350
18
  0
DICTIONARY
  5
19
102
{ACAD_REACTORS
330
C
102
}
330
C
100
AcDbDictionary
281
     1
  0
ACDBDICTIONARYWDFLT
  5
E
102
{ACAD_REACTORS
330
C
102
}
330
C
100
AcDbDictionary
281
     1
  3
Normal
350
F
100
AcDbDictionaryWithDefault
340
F
  0
DICTIONARY
  5
67
102
{ACAD_REACTORS
330
C
102
}
330
C
100
AcDbDictionary
281
     1
  0
DICTIONARY
  5
2A
102
{ACAD_REACTORS
330
C
102
}
330
C
100
AcDbDictionary
281
     1
  3
2dWireframe
350
2F
  3
3D Hidden
350
31
  3
3dWireframe
350
30
  3
Basic
350
32
  3
Brighten
350
36
  3
ColorChange
350
3A
  3
Conceptual
350
34
  3
Dim
350
35
  3
Facepattern
350
39
  3
Flat
350
2B
  3
FlatWithEdges
350
2C
  3
Gouraud
350
2D
  3
GouraudWithEdges
350
2E
  3
Linepattern
350
38
  3
Realistic
350
33
  3
Thicken
350
37
  0
LAYOUT
  5
1E
102
{ACAD_REACTORS
330
1A
102
}
330
1A
100
AcDbPlotSettings
  1

  2
none_device
  4

  6

 40
0.0
 41
0.0
 42
0.0
 43
0.0
 44
0.0
 45
0.0
 46
0.0
 47
0.0
 48
0.0
 49
0.0
140
0.0
141
0.0
142
1.0
143
1.0
 70
   688
 72
     0
 73
     0
 74
     5
  7

 75
    16
 76
     0
 77
     2
 78
   300
147
1.0
148
0.0
149
0.0
100
AcDbLayout
  1
Layout1
 70
     1
 71
     1
 10
0.0
 20
0.0
 11
12.0
 21
9.0
 12
0.0
 22
0.0
 32
0.0
 14
1.000000000000000E+20
 24
1.000000000000000E+20
 34
1.000000000000000E+20
 15
-1.000000000000000E+20
 25
-1.000000000000000E+20
 35
-1.000000000000000E+20
146
0.0
 13
0.0
 23
0.0
 33
0.0
 16
1.0
 26
0.0
 36
0.0
 17
0.0
 27
1.0
 37
0.0
 76
     0
330
1B
  0
LAYOUT
  5
26
102
{ACAD_REACTORS
330
1A
102
}
330
1A
100
AcDbPlotSettings
  1

  2
none_device
  4

  6

 40
0.0
 41
0.0
 42
0.0
 43
0.0
 44
0.0
 45
0.0
 46
0.0
 47
0.0
 48
0.0
 49
0.0
140
0.0
141
0.0
142
1.0
143
1.0
 70
   688
 72
     0
 73
     0
 74
     5
  7

 75
    16
 76
     0
 77
     2
 78
   300
147
1.0
148
0.0
149
0.0
100
AcDbLayout
  1
Layout2
 70
     1
 71
     2
 10
0.0
 20
0.0
 11
0.0
 21
0.0
 12
0.0
 22
0.0
 32
0.0
 14
0.0
 24
0.0
 34
0.0
 15
0.0
 25
0.0
 35
0.0
146
0.0
 13
0.0
 23
0.0
 33
0.0
 16
1.0
 26
0.0
 36
0.0
 17
0.0
 27
1.0
 37
0.0
 76
     0
330
23
  0
LAYOUT
  5
22
102
{ACAD_REACTORS
330
1A
102
}
330
1A
100
AcDbPlotSettings
  1

  2
none_device
  4

  6

 40
0.0
 41
0.0
 42
0.0
 43
0.0
 44
0.0
 45
0.0
 46
0.0
 47
0.0
 48
0.0
 49
0.0
140
0.0
141
0.0
142
1.0
143
1.0
 70
  1712
 72
     0
 73
     0
 74
     0
  7

 75
     0
 76
     0
 77
     2
 78
   300
147
1.0
148
0.0
149
0.0
100
AcDbLayout
  1
Model
 70
     1
 71
     0
 10
0.0
 20
0.0
 11
12.0
 21
9.0
 12
0.0
 22
0.0
 32
0.0
 14
-14.58532
 24
-15.05738
 34
0.0
 15
-6.06761
 25
-11.94119
 35
0.0
146
0.0
 13
0.0
 23
0.0
 33
0.0
 16
1.0
 26
0.0
 36
0.0
 17
0.0
 27
1.0
 37
0.0
 76
     0
330
1F
331
29
  0
MATERIAL
  5
3D
102
{ACAD_REACTORS
330
3B
102
}
330
3B
100
AcDbMaterial
  1
ByBlock
 72
     1
 94
      127
  0
MATERIAL
  5
3C
102
{ACAD_REACTORS
330
3B
102
}
330
3B
100
AcDbMaterial
  1
ByLayer
 72
     1
 94
      127
  0
MATERIAL
  5
3E
102
{ACAD_REACTORS
330
3B
102
}
330
3B
100
AcDbMaterial
  1
Global
 72
     1
 94
      127
  0
MLINESTYLE
  5
18
102
{ACAD_REACTORS
330
17
102
}
330
17
100
AcDbMlineStyle
  2
Standard
 70
     0
  3

 62
   256
 51
90.0
 52
90.0
 71
     2
 49
0.5
 62
   256
  6
BYLAYER
 49
-0.5
 62
   256
  6
BYLAYER
  0
ACDBPLACEHOLDER
  5
F
102
{ACAD_REACTORS
330
E
102
}
330
E
  0
VISUALSTYLE
  5
2F
102
{ACAD_REACTORS
330
2A
102
}
102
{ACAD_XDICTIONARY
360
4F
102
}
330
2A
100
AcDbVisualStyle
  2
2dWireframe
 70
     4
 71
     0
 72
     2
 73
     0
 90
        0
 40
-0.6
 41
-30.0
 62
     5
 63
     7
421
 16777215
 74
     1
 91
        4
 64
     7
 65
   257
 75
     1
175
     1
 42
1.0
 92
        0
 66
   257
 43
1.0
 76
     1
 77
     6
 78
     2
 67
     7
 79
     5
170
     0
171
     0
290
     0
174
     0
 93
        1
 44
0.0
173
     0
291
     0
 45
0.0
  0
VISUALSTYLE
  5
31
102
{ACAD_REACTORS
330
2A
102
}
102
{ACAD_XDICTIONARY
360
53
102
}
330
2A
100
AcDbVisualStyle
  2
3D Hidden
 70
     6
 71
     1
 72
     2
 73
     2
 90
        0
 40
-0.6
 41
-30.0
 62
     5
 63
     7
421
 16777215
 74
     2
 91
        2
 64
     7
 65
   257
 75
     2
175
     1
 42
40.0
 92
        0
 66
   257
 43
1.0
 76
     1
 77
     6
 78
     2
 67
     7
 79
     3
170
     0
171
     0
290
     0
174
     0
 93
        1
 44
0.0
173
     0
291
     0
 45
0.0
  0
VISUALSTYLE
  5
30
102
{ACAD_REACTORS
330
2A
102
}
102
{ACAD_XDICTIONARY
360
51
102
}
330
2A
100
AcDbVisualStyle
  2
3dWireframe
 70
     5
 71
     0
 72
     2
 73
     0
 90
        0
 40
-0.6
 41
-30.0
 62
     5
 63
     7
421
 16777215
 74
     1
 91
        4
 64
     7
 65
   257
 75
     1
175
     1
 42
1.0
 92
        0
 66
   257
 43
1.0
 76
     1
 77
     6
 78
     2
 67
     7
 79
     5
170
     0
171
     0
290
     0
174
     0
 93
        1
 44
0.0
173
     0
291
     0
 45
0.0
  0
VISUALSTYLE
  5
32
102
{ACAD_REACTORS
330
2A
102
}
102
{ACAD_XDICTIONARY
360
55
102
}
330
2A
100
AcDbVisualStyle
  2
Basic
 70
     7
 71
     1
 72
     0
 73
     1
 90
        0
 40
-0.6
 41
-30.0
 62
     5
 63
     7
421
 16777215
 74
     0
 91
        4
 64
     7
 65
   257
 75
     1
175
     1
 42
1.0
 92
        8
 66
     7
 43
1.0
 76
     1
 77
     6
 78
     2
 67
     7
 79
     5
170
     0
171
     0
290
     0
174
     0
 93
        1
 44
0.0
173
     0
291
     1
 45
0.0
  0
VISUALSTYLE
  5
36
102
{ACAD_REACTORS
330
2A
102
}
102
{ACAD_XDICTIONARY
360
5D
102
}
330
2A
100
AcDbVisualStyle
  2
Brighten
 70
    12
 71
     2
 72
     2
 73
     0
 90
        0
 40
-0.6
 41
-30.0
 62
     5
 63
     7
421
 16777215
 74
     1
 91
        4
 64
     7
 65
   257
 75
     1
175
     1
 42
1.0
 92
        8
 66
     7
 43
1.0
 76
     1
 77
     6
 78
     2
 67
     7
 79
     5
170
     0
171
     0
290
     0
174
     0
 93
        1
 44
50.0
173
     0
291
     1
 45
0.0
  0
VISUALSTYLE
  5
3A
102
{ACAD_REACTORS
330
2A
102
}
102
{ACAD_XDICTIONARY
360
65
102
}
330
2A
100
AcDbVisualStyle
  2
ColorChange
 70
    16
 71
     2
 72
     2
 73
     3
 90
        0
 40
-0.6
 41
-30.0
 62
     5
 63
     8
421
  8421504
 74
     1
 91
        4
 64
     7
 65
   257
 75
     1
175
     1
 42
1.0
 92
        8
 66
     8
424
  8421504
 43
1.0
 76
     1
 77
     6
 78
     2
 67
     7
 79
     5
170
     0
171
     0
290
     0
174
     0
 93
        1
 44
0.0
173
     0
291
     1
 45
0.0
  0
VISUALSTYLE
  5
34
102
{ACAD_REACTORS
330
2A
102
}
102
{ACAD_XDICTIONARY
360
59
102
}
330
2A
100
AcDbVisualStyle
  2
Conceptual
 70
     9
 71
     3
 72
     2
 73
     0
 90
        0
 40
-0.6
 41
-30.0
 62
     5
 63
     7
421
 16777215
 74
     2
 91
        2
 64
     7
 65
   257
 75
     1
175
     1
 42
40.0
 92
        8
 66
     7
 43
1.0
 76
     1
 77
     6
 78
     2
 67
     7
 79
     3
170
     0
171
     0
290
     0
174
     0
 93
        1
 44
0.0
173
     0
291
     0
 45
0.0
  0
VISUALSTYLE
  5
35
102
{ACAD_REACTORS
330
2A
102
}
102
{ACAD_XDICTIONARY
360
5B
102
}
330
2A
100
AcDbVisualStyle
  2
Dim
 70
    11
 71
     2
 72
     2
 73
     0
 90
        0
 40
-0.6
 41
-30.0
 62
     5
 63
     7
421
 16777215
 74
     1
 91
        4
 64
     7
 65
   257
 75
     1
175
     1
 42
1.0
 92
        8
 66
     7
 43
1.0
 76
     1
 77
     6
 78
     2
 67
     7
 79
     5
170
     0
171
     0
290
     0
174
     0
 93
        1
 44
-50.0
173
     0
291
     1
 45
0.0
  0
VISUALSTYLE
  5
39
102
{ACAD_REACTORS
330
2A
102
}
102
{ACAD_XDICTIONARY
360
63
102
}
330
2A
100
AcDbVisualStyle
  2
Facepattern
 70
    15
 71
     2
 72
     2
 73
     0
 90
        0
 40
-0.6
 41
-30.0
 62
     5
 63
     7
421
 16777215
 74
     1
 91
        4
 64
     7
 65
   257
 75
     1
175
     1
 42
1.0
 92
        8
 66
     7
 43
1.0
 76
     1
 77
     6
 78
     2
 67
     7
 79
     5
170
     0
171
     0
290
     0
174
     0
 93
        1
 44
0.0
173
     0
291
     1
 45
0.0
  0
VISUALSTYLE
  5
2B
102
{ACAD_REACTORS
330
2A
102
}
102
{ACAD_XDICTIONARY
360
47
102
}
330
2A
100
AcDbVisualStyle
  2
Flat
 70
     0
 71
     2
 72
     1
 73
     1
 90
        2
 40
-0.6
 41
30.0
 62
     5
 63
     7
421
 16777215
 74
     0
 91
        4
 64
     7
 65
   257
 75
     1
175
     1
 42
1.0
 92
        8
 66
     7
 43
1.0
 76
     1
 77
     6
 78
     2
 67
     7
 79
     5
170
     0
171
     0
290
     0
174
     0
 93
       13
 44
0.0
173
     0
291
     1
 45
0.0
  0
VISUALSTYLE
  5
2C
102
{ACAD_REACTORS
330
2A
102
}
102
{ACAD_XDICTIONARY
360
49
102
}
330
2A
100
AcDbVisualStyle
  2
FlatWithEdges
 70
     1
 71
     2
 72
     1
 73
     1
 90
        2
 40
-0.6
 41
30.0
 62
     5
 63
     7
421
 16777215
 74
     1
 91
        4
 64
     7
 65
   257
 75
     1
175
     1
 42
1.0
 92
        0
 66
   257
 43
1.0
 76
     1
 77
     6
 78
     2
 67
     7
 79
     5
170
     0
171
     0
290
     0
174
     0
 93
       13
 44
0.0
173
     0
291
     1
 45
0.0
  0
VISUALSTYLE
  5
2D
102
{ACAD_REACTORS
330
2A
102
}
102
{ACAD_XDICTIONARY
360
4B
102
}
330
2A
100
AcDbVisualStyle
  2
Gouraud
 70
     2
 71
     2
 72
     2
 73
     1
 90
        2
 40
-0.6
 41
30.0
 62
     5
 63
     7
421
 16777215
 74
     0
 91
        4
 64
     7
 65
   257
 75
     1
175
     1
 42
1.0
 92
        0
 66
     7
 43
1.0
 76
     1
 77
     6
 78
     2
 67
     7
 79
     5
170
     0
171
     0
290
     0
174
     0
 93
       13
 44
0.0
173
     0
291
     1
 45
0.0
  0
VISUALSTYLE
  5
2E
102
{ACAD_REACTORS
330
2A
102
}
102
{ACAD_XDICTIONARY
360
4D
102
}
330
2A
100
AcDbVisualStyle
  2
GouraudWithEdges
 70
     3
 71
     2
 72
     2
 73
     1
 90
        2
 40
-0.6
 41
30.0
 62
     5
 63
     7
421
 16777215
 74
     1
 91
        4
 64
     7
 65
   257
 75
     1
175
     1
 42
1.0
 92
        0
 66
   257
 43
1.0
 76
     1
 77
     6
 78
     2
 67
     7
 79
     5
170
     0
171
     0
290
     0
174
     0
 93
       13
 44
0.0
173
     0
291
     1
 45
0.0
  0
VISUALSTYLE
  5
38
102
{ACAD_REACTORS
330
2A
102
}
102
{ACAD_XDICTIONARY
360
61
102
}
330
2A
100
AcDbVisualStyle
  2
Linepattern
 70
    14
 71
     2
 72
     2
 73
     0
 90
        0
 40
-0.6
 41
-30.0
 62
     5
 63
     7
421
 16777215
 74
     1
 91
        4
 64
     7
 65
   257
 75
     7
175
     7
 42
1.0
 92
        8
 66
     7
 43
1.0
 76
     1
 77
     6
 78
     2
 67
     7
 79
     5
170
     0
171
     0
290
     0
174
     0
 93
        1
 44
0.0
173
     0
291
     1
 45
0.0
  0
VISUALSTYLE
  5
33
102
{ACAD_REACTORS
330
2A
102
}
102
{ACAD_XDICTIONARY
360
57
102
}
330
2A
100
AcDbVisualStyle
  2
Realistic
 70
     8
 71
     2
 72
     2
 73
     0
 90
        0
 40
-0.6
 41
-30.0
 62
     5
 63
     7
421
 16777215
 74
     1
 91
        0
 64
     7
 65
   257
 75
     1
175
     1
 42
1.0
 92
        8
 66
     8
424
  7895160
 43
1.0
 76
     1
 77
     6
 78
     2
 67
     7
 79
     5
170
     0
171
     0
290
     0
174
     0
 93
       13
 44
0.0
173
     0
291
     0
 45
0.0
  0
VISUALSTYLE
  5
37
102
{ACAD_REACTORS
330
2A
102
}
102
{ACAD_XDICTIONARY
360
5F
102
}
330
2A
100
AcDbVisualStyle
  2
Thicken
 70
    13
 71
     2
 72
     2
 73
     0
 90
        0
 40
-0.6
 41
-30.0
 62
     5
 63
     7
421
 16777215
 74
     1
 91
        4
 64
     7
 65
   257
 75
     1
175
     1
 42
1.0
 92
       12
 66
     7
 43
1.0
 76
     1
 77
     6
 78
     2
 67
     7
 79
     5
170
     0
171
     0
290
     0
174
     0
 93
        1
 44
0.0
173
     0
291
     1
 45
0.0
  0
DICTIONARY
  5
4F
330
2F
100
AcDbDictionary
280
     1
281
     1
  3
ACAD_XREC_ROUNDTRIP
360
50
  0
DICTIONARY
  5
53
330
31
100
AcDbDictionary
280
     1
281
     1
  3
ACAD_XREC_ROUNDTRIP
360
54
  0
DICTIONARY
  5
51
330
30
100
AcDbDictionary
280
     1
281
     1
  3
ACAD_XREC_ROUNDTRIP
360
52
  0
DICTIONARY
  5
55
330
32
100
AcDbDictionary
280
     1
281
     1
  3
ACAD_XREC_ROUNDTRIP
360
56
  0
DICTIONARY
  5
5D
330
36
100
AcDbDictionary
280
     1
281
     1
  3
ACAD_XREC_ROUNDTRIP
360
5E
  0
DICTIONARY
  5
65
330
3A
100
AcDbDictionary
280
     1
281
     1
  3
ACAD_XREC_ROUNDTRIP
360
66
  0
DICTIONARY
  5
59
330
34
100
AcDbDictionary
280
     1
281
     1
  3
ACAD_XREC_ROUNDTRIP
360
5A
  0
DICTIONARY
  5
5B
330
35
100
AcDbDictionary
280
     1
281
     1
  3
ACAD_XREC_ROUNDTRIP
360
5C
  0
DICTIONARY
  5
63
330
39
100
AcDbDictionary
280
     1
281
     1
  3
ACAD_XREC_ROUNDTRIP
360
64
  0
DICTIONARY
  5
47
330
2B
100
AcDbDictionary
280
     1
281
     1
  3
ACAD_XREC_ROUNDTRIP
360
48
  0
DICTIONARY
  5
49
330
2C
100
AcDbDictionary
280
     1
281
     1
  3
ACAD_XREC_ROUNDTRIP
360
4A
  0
DICTIONARY
  5
4B
330
2D
100
AcDbDictionary
280
     1
281
     1
  3
ACAD_XREC_ROUNDTRIP
360
4C
  0
DICTIONARY
  5
4D
330
2E
100
AcDbDictionary
280
     1
281
     1
  3
ACAD_XREC_ROUNDTRIP
360
4E
  0
DICTIONARY
  5
61
330
38
100
AcDbDictionary
280
     1
281
     1
  3
ACAD_XREC_ROUNDTRIP
360
62
  0
DICTIONARY
  5
57
330
33
100
AcDbDictionary
280
     1
281
     1
  3
ACAD_XREC_ROUNDTRIP
360
58
  0
DICTIONARY
  5
5F
330
37
100
AcDbDictionary
280
     1
281
     1
  3
ACAD_XREC_ROUNDTRIP
360
60
  0
XRECORD
  5
50
102
{ACAD_REACTORS
330
4F
102
}
330
4F
100
AcDbXrecord
280
     1
102
RTVSPropertyOp0
 70
     1
102
RTVSPropertyOp1
 70
     1
102
RTVSPropertyOp2
 70
     1
102
RTVSPropertyOp3
 70
     1
102
RTVSPropertyOp4
 70
     1
102
RTVSPropertyOp5
 70
     1
102
RTVSPropertyOp6
 70
     1
102
RTVSPropertyOp7
 70
     1
102
RTVSPropertyOp8
 70
     1
102
RTVSPropertyOp9
 70
     1
102
RTVSPropertyOp10
 70
     1
102
RTVSPropertyOp11
 70
     1
102
RTVSPropertyOp12
 70
     1
102
RTVSPropertyOp13
 70
     1
102
RTVSPropertyOp14
 70
     1
102
RTVSPropertyOp15
 70
     1
102
RTVSPropertyOp16
 70
     1
102
RTVSPropertyOp17
 70
     1
102
RTVSPropertyOp18
 70
     1
102
RTVSPropertyOp19
 70
     1
102
RTVSPropertyOp20
 70
     1
102
RTVSPropertyOp21
 70
     1
102
RTVSPropertyOp22
 70
     1
102
RTVSPropertyOp23
 70
     1
102
RTVSPropertyOp24
 70
     1
102
RTVSPropertyOp25
 70
     1
102
RTVSPropertyOp26
 70
     1
102
RTVSPropertyOp27
 70
     1
102
RTVSPropertyOp28
 70
     1
102
RTVSPropertyOp29
 70
     1
102
RTVSPropertyOp30
 70
     1
102
RTVSPropertyOp31
 70
     1
102
RTVSPropertyOp32
 70
     1
  0
XRECORD
  5
54
102
{ACAD_REACTORS
330
53
102
}
330
53
100
AcDbXrecord
280
     1
102
RTVSPropertyOp0
 70
     1
102
RTVSPropertyOp1
 70
     1
102
RTVSPropertyOp2
 70
     1
102
RTVSPropertyOp3
 70
     1
102
RTVSPropertyOp4
 70
     1
102
RTVSPropertyOp5
 70
     1
102
RTVSPropertyOp6
 70
     1
102
RTVSPropertyOp7
 70
     1
102
RTVSPropertyOp8
 70
     1
102
RTVSPropertyOp9
 70
     1
102
RTVSPropertyOp10
 70
     1
102
RTVSPropertyOp11
 70
     1
102
RTVSPropertyOp12
 70
     1
102
RTVSPropertyOp13
 70
     1
102
RTVSPropertyOp14
 70
     1
102
RTVSPropertyOp15
 70
     1
102
RTVSPropertyOp16
 70
     1
102
RTVSPropertyOp17
 70
     1
102
RTVSPropertyOp18
 70
     1
102
RTVSPropertyOp19
 70
     1
102
RTVSPropertyOp20
 70
     1
102
RTVSPropertyOp21
 70
     1
102
RTVSPropertyOp22
 70
     1
102
RTVSPropertyOp23
 70
     1
102
RTVSPropertyOp24
 70
     1
102
RTVSPropertyOp25
 70
     1
102
RTVSPropertyOp26
 70
     1
102
RTVSPropertyOp27
 70
     1
102
RTVSPropertyOp28
 70
     1
102
RTVSPropertyOp29
 70
     1
102
RTVSPropertyOp30
 70
     1
102
RTVSPropertyOp31
 70
     1
102
RTVSPropertyOp32
 70
     1
  0
XRECORD
  5
52
102
{ACAD_REACTORS
330
51
102
}
330
51
100
AcDbXrecord
280
     1
102
RTVSPropertyOp0
 70
     1
102
RTVSPropertyOp1
 70
     1
102
RTVSPropertyOp2
 70
     1
102
RTVSPropertyOp3
 70
     1
102
RTVSPropertyOp4
 70
     1
102
RTVSPropertyOp5
 70
     1
102
RTVSPropertyOp6
 70
     1
102
RTVSPropertyOp7
 70
     1
102
RTVSPropertyOp8
 70
     1
102
RTVSPropertyOp9
 70
     1
102
RTVSPropertyOp10
 70
     1
102
RTVSPropertyOp11
 70
     1
102
RTVSPropertyOp12
 70
     1
102
RTVSPropertyOp13
 70
     1
102
RTVSPropertyOp14
 70
     1
102
RTVSPropertyOp15
 70
     1
102
RTVSPropertyOp16
 70
     1
102
RTVSPropertyOp17
 70
     1
102
RTVSPropertyOp18
 70
     1
102
RTVSPropertyOp19
 70
     1
102
RTVSPropertyOp20
 70
     1
102
RTVSPropertyOp21
 70
     1
102
RTVSPropertyOp22
 70
     1
102
RTVSPropertyOp23
 70
     1
102
RTVSPropertyOp24
 70
     1
102
RTVSPropertyOp25
 70
     1
102
RTVSPropertyOp26
 70
     1
102
RTVSPropertyOp27
 70
     1
102
RTVSPropertyOp28
 70
     1
102
RTVSPropertyOp29
 70
     1
102
RTVSPropertyOp30
 70
     1
102
RTVSPropertyOp31
 70
     1
102
RTVSPropertyOp32
 70
     1
  0
XRECORD
  5
56
102
{ACAD_REACTORS
330
55
102
}
330
55
100
AcDbXrecord
280
     1
102
RTVSPropertyOp0
 70
     1
102
RTVSPropertyOp1
 70
     1
102
RTVSPropertyOp2
 70
     1
102
RTVSPropertyOp3
 70
     1
102
RTVSPropertyOp4
 70
     1
102
RTVSPropertyOp5
 70
     1
102
RTVSPropertyOp6
 70
     1
102
RTVSPropertyOp7
 70
     1
102
RTVSPropertyOp8
 70
     1
102
RTVSPropertyOp9
 70
     1
102
RTVSPropertyOp10
 70
     1
102
RTVSPropertyOp11
 70
     1
102
RTVSPropertyOp12
 70
     1
102
RTVSPropertyOp13
 70
     1
102
RTVSPropertyOp14
 70
     1
102
RTVSPropertyOp15
 70
     1
102
RTVSPropertyOp16
 70
     1
102
RTVSPropertyOp17
 70
     1
102
RTVSPropertyOp18
 70
     1
102
RTVSPropertyOp19
 70
     1
102
RTVSPropertyOp20
 70
     1
102
RTVSPropertyOp21
 70
     1
102
RTVSPropertyOp22
 70
     1
102
RTVSPropertyOp23
 70
     1
102
RTVSPropertyOp24
 70
     1
102
RTVSPropertyOp25
 70
     1
102
RTVSPropertyOp26
 70
     1
102
RTVSPropertyOp27
 70
     1
102
RTVSPropertyOp28
 70
     1
102
RTVSPropertyOp29
 70
     1
102
RTVSPropertyOp30
 70
     1
102
RTVSPropertyOp31
 70
     1
102
RTVSPropertyOp32
 70
     1
  0
XRECORD
  5
5E
102
{ACAD_REACTORS
330
5D
102
}
330
5D
100
AcDbXrecord
280
     1
102
RTVSPropertyOp0
 70
     1
102
RTVSPropertyOp1
 70
     1
102
RTVSPropertyOp2
 70
     1
102
RTVSPropertyOp3
 70
     1
102
RTVSPropertyOp4
 70
     1
102
RTVSPropertyOp5
 70
     1
102
RTVSPropertyOp6
 70
     1
102
RTVSPropertyOp7
 70
     1
102
RTVSPropertyOp8
 70
     1
102
RTVSPropertyOp9
 70
     1
102
RTVSPropertyOp10
 70
     1
102
RTVSPropertyOp11
 70
     1
102
RTVSPropertyOp12
 70
     1
102
RTVSPropertyOp13
 70
     1
102
RTVSPropertyOp14
 70
     1
102
RTVSPropertyOp15
 70
     1
102
RTVSPropertyOp16
 70
     1
102
RTVSPropertyOp17
 70
     1
102
RTVSPropertyOp18
 70
     1
102
RTVSPropertyOp19
 70
     1
102
RTVSPropertyOp20
 70
     1
102
RTVSPropertyOp21
 70
     1
102
RTVSPropertyOp22
 70
     1
102
RTVSPropertyOp23
 70
     1
102
RTVSPropertyOp24
 70
     1
102
RTVSPropertyOp25
 70
     1
102
RTVSPropertyOp26
 70
     1
102
RTVSPropertyOp27
 70
     1
102
RTVSPropertyOp28
 70
     1
102
RTVSPropertyOp29
 70
     1
102
RTVSPropertyOp30
 70
     1
102
RTVSPropertyOp31
 70
     1
102
RTVSPropertyOp32
 70
     1
  0
XRECORD
  5
66
102
{ACAD_REACTORS
330
65
102
}
330
65
100
AcDbXrecord
280
     1
102
RTVSPropertyOp0
 70
     1
102
RTVSPropertyOp1
 70
     1
102
RTVSPropertyOp2
 70
     1
102
RTVSPropertyOp3
 70
     1
102
RTVSPropertyOp4
 70
     1
102
RTVSPropertyOp5
 70
     1
102
RTVSPropertyOp6
 70
     1
102
RTVSPropertyOp7
 70
     1
102
RTVSPropertyOp8
 70
     1
102
RTVSPropertyOp9
 70
     1
102
RTVSPropertyOp10
 70
     1
102
RTVSPropertyOp11
 70
     1
102
RTVSPropertyOp12
 70
     1
102
RTVSPropertyOp13
 70
     1
102
RTVSPropertyOp14
 70
     1
102
RTVSPropertyOp15
 70
     1
102
RTVSPropertyOp16
 70
     1
102
RTVSPropertyOp17
 70
     1
102
RTVSPropertyOp18
 70
     1
102
RTVSPropertyOp19
 70
     1
102
RTVSPropertyOp20
 70
     1
102
RTVSPropertyOp21
 70
     1
102
RTVSPropertyOp22
 70
     1
102
RTVSPropertyOp23
 70
     1
102
RTVSPropertyOp24
 70
     1
102
RTVSPropertyOp25
 70
     1
102
RTVSPropertyOp26
 70
     1
102
RTVSPropertyOp27
 70
     1
102
RTVSPropertyOp28
 70
     1
102
RTVSPropertyOp29
 70
     1
102
RTVSPropertyOp30
 70
     1
102
RTVSPropertyOp31
 70
     1
102
RTVSPropertyOp32
 70
     1
  0
XRECORD
  5
5A
102
{ACAD_REACTORS
330
59
102
}
330
59
100
AcDbXrecord
280
     1
102
RTVSPropertyOp0
 70
     1
102
RTVSPropertyOp1
 70
     1
102
RTVSPropertyOp2
 70
     1
102
RTVSPropertyOp3
 70
     1
102
RTVSPropertyOp4
 70
     1
102
RTVSPropertyOp5
 70
     1
102
RTVSPropertyOp6
 70
     1
102
RTVSPropertyOp7
 70
     1
102
RTVSPropertyOp8
 70
     1
102
RTVSPropertyOp9
 70
     1
102
RTVSPropertyOp10
 70
     1
102
RTVSPropertyOp11
 70
     1
102
RTVSPropertyOp12
 70
     1
102
RTVSPropertyOp13
 70
     1
102
RTVSPropertyOp14
 70
     1
102
RTVSPropertyOp15
 70
     1
102
RTVSPropertyOp16
 70
     1
102
RTVSPropertyOp17
 70
     1
102
RTVSPropertyOp18
 70
     1
102
RTVSPropertyOp19
 70
     1
102
RTVSPropertyOp20
 70
     1
102
RTVSPropertyOp21
 70
     1
102
RTVSPropertyOp22
 70
     1
102
RTVSPropertyOp23
 70
     1
102
RTVSPropertyOp24
 70
     1
102
RTVSPropertyOp25
 70
     1
102
RTVSPropertyOp26
 70
     1
102
RTVSPropertyOp27
 70
     1
102
RTVSPropertyOp28
 70
     1
102
RTVSPropertyOp29
 70
     1
102
RTVSPropertyOp30
 70
     1
102
RTVSPropertyOp31
 70
     1
102
RTVSPropertyOp32
 70
     1
  0
XRECORD
  5
5C
102
{ACAD_REACTORS
330
5B
102
}
330
5B
100
AcDbXrecord
280
     1
102
RTVSPropertyOp0
 70
     1
102
RTVSPropertyOp1
 70
     1
102
RTVSPropertyOp2
 70
     1
102
RTVSPropertyOp3
 70
     1
102
RTVSPropertyOp4
 70
     1
102
RTVSPropertyOp5
 70
     1
102
RTVSPropertyOp6
 70
     1
102
RTVSPropertyOp7
 70
     1
102
RTVSPropertyOp8
 70
     1
102
RTVSPropertyOp9
 70
     1
102
RTVSPropertyOp10
 70
     1
102
RTVSPropertyOp11
 70
     1
102
RTVSPropertyOp12
 70
     1
102
RTVSPropertyOp13
 70
     1
102
RTVSPropertyOp14
 70
     1
102
RTVSPropertyOp15
 70
     1
102
RTVSPropertyOp16
 70
     1
102
RTVSPropertyOp17
 70
     1
102
RTVSPropertyOp18
 70
     1
102
RTVSPropertyOp19
 70
     1
102
RTVSPropertyOp20
 70
     1
102
RTVSPropertyOp21
 70
     1
102
RTVSPropertyOp22
 70
     1
102
RTVSPropertyOp23
 70
     1
102
RTVSPropertyOp24
 70
     1
102
RTVSPropertyOp25
 70
     1
102
RTVSPropertyOp26
 70
     1
102
RTVSPropertyOp27
 70
     1
102
RTVSPropertyOp28
 70
     1
102
RTVSPropertyOp29
 70
     1
102
RTVSPropertyOp30
 70
     1
102
RTVSPropertyOp31
 70
     1
102
RTVSPropertyOp32
 70
     1
  0
XRECORD
  5
64
102
{ACAD_REACTORS
330
63
102
}
330
63
100
AcDbXrecord
280
     1
102
RTVSPropertyOp0
 70
     1
102
RTVSPropertyOp1
 70
     1
102
RTVSPropertyOp2
 70
     1
102
RTVSPropertyOp3
 70
     1
102
RTVSPropertyOp4
 70
     1
102
RTVSPropertyOp5
 70
     1
102
RTVSPropertyOp6
 70
     1
102
RTVSPropertyOp7
 70
     1
102
RTVSPropertyOp8
 70
     1
102
RTVSPropertyOp9
 70
     1
102
RTVSPropertyOp10
 70
     1
102
RTVSPropertyOp11
 70
     1
102
RTVSPropertyOp12
 70
     1
102
RTVSPropertyOp13
 70
     1
102
RTVSPropertyOp14
 70
     1
102
RTVSPropertyOp15
 70
     1
102
RTVSPropertyOp16
 70
     1
102
RTVSPropertyOp17
 70
     1
102
RTVSPropertyOp18
 70
     1
102
RTVSPropertyOp19
 70
     1
102
RTVSPropertyOp20
 70
     1
102
RTVSPropertyOp21
 70
     1
102
RTVSPropertyOp22
 70
     1
102
RTVSPropertyOp23
 70
     1
102
RTVSPropertyOp24
 70
     1
102
RTVSPropertyOp25
 70
     1
102
RTVSPropertyOp26
 70
     1
102
RTVSPropertyOp27
 70
     1
102
RTVSPropertyOp28
 70
     1
102
RTVSPropertyOp29
 70
     1
102
RTVSPropertyOp30
 70
     1
102
RTVSPropertyOp31
 70
     1
102
RTVSPropertyOp32
 70
     1
  0
XRECORD
  5
48
102
{ACAD_REACTORS
330
47
102
}
330
47
100
AcDbXrecord
280
     1
102
RTVSPropertyOp0
 70
     1
102
RTVSPropertyOp1
 70
     1
102
RTVSPropertyOp2
 70
     1
102
RTVSPropertyOp3
 70
     1
102
RTVSPropertyOp4
 70
     1
102
RTVSPropertyOp5
 70
     1
102
RTVSPropertyOp6
 70
     1
102
RTVSPropertyOp7
 70
     1
102
RTVSPropertyOp8
 70
     1
102
RTVSPropertyOp9
 70
     1
102
RTVSPropertyOp10
 70
     1
102
RTVSPropertyOp11
 70
     1
102
RTVSPropertyOp12
 70
     1
102
RTVSPropertyOp13
 70
     1
102
RTVSPropertyOp14
 70
     1
102
RTVSPropertyOp15
 70
     1
102
RTVSPropertyOp16
 70
     1
102
RTVSPropertyOp17
 70
     1
102
RTVSPropertyOp18
 70
     1
102
RTVSPropertyOp19
 70
     1
102
RTVSPropertyOp20
 70
     1
102
RTVSPropertyOp21
 70
     1
102
RTVSPropertyOp22
 70
     1
102
RTVSPropertyOp23
 70
     1
102
RTVSPropertyOp24
 70
     1
102
RTVSPropertyOp25
 70
     1
102
RTVSPropertyOp26
 70
     1
102
RTVSPropertyOp27
 70
     1
102
RTVSPropertyOp28
 70
     1
102
RTVSPropertyOp29
 70
     1
102
RTVSPropertyOp30
 70
     1
102
RTVSPropertyOp31
 70
     1
102
RTVSPropertyOp32
 70
     1
  0
XRECORD
  5
4A
102
{ACAD_REACTORS
330
49
102
}
330
49
100
AcDbXrecord
280
     1
102
RTVSPropertyOp0
 70
     1
102
RTVSPropertyOp1
 70
     1
102
RTVSPropertyOp2
 70
     1
102
RTVSPropertyOp3
 70
     1
102
RTVSPropertyOp4
 70
     1
102
RTVSPropertyOp5
 70
     1
102
RTVSPropertyOp6
 70
     1
102
RTVSPropertyOp7
 70
     1
102
RTVSPropertyOp8
 70
     1
102
RTVSPropertyOp9
 70
     1
102
RTVSPropertyOp10
 70
     1
102
RTVSPropertyOp11
 70
     1
102
RTVSPropertyOp12
 70
     1
102
RTVSPropertyOp13
 70
     1
102
RTVSPropertyOp14
 70
     1
102
RTVSPropertyOp15
 70
     1
102
RTVSPropertyOp16
 70
     1
102
RTVSPropertyOp17
 70
     1
102
RTVSPropertyOp18
 70
     1
102
RTVSPropertyOp19
 70
     1
102
RTVSPropertyOp20
 70
     1
102
RTVSPropertyOp21
 70
     1
102
RTVSPropertyOp22
 70
     1
102
RTVSPropertyOp23
 70
     1
102
RTVSPropertyOp24
 70
     1
102
RTVSPropertyOp25
 70
     1
102
RTVSPropertyOp26
 70
     1
102
RTVSPropertyOp27
 70
     1
102
RTVSPropertyOp28
 70
     1
102
RTVSPropertyOp29
 70
     1
102
RTVSPropertyOp30
 70
     1
102
RTVSPropertyOp31
 70
     1
102
RTVSPropertyOp32
 70
     1
  0
XRECORD
  5
4C
102
{ACAD_REACTORS
330
4B
102
}
330
4B
100
AcDbXrecord
280
     1
102
RTVSPropertyOp0
 70
     1
102
RTVSPropertyOp1
 70
     1
102
RTVSPropertyOp2
 70
     1
102
RTVSPropertyOp3
 70
     1
102
RTVSPropertyOp4
 70
     1
102
RTVSPropertyOp5
 70
     1
102
RTVSPropertyOp6
 70
     1
102
RTVSPropertyOp7
 70
     1
102
RTVSPropertyOp8
 70
     1
102
RTVSPropertyOp9
 70
     1
102
RTVSPropertyOp10
 70
     1
102
RTVSPropertyOp11
 70
     1
102
RTVSPropertyOp12
 70
     1
102
RTVSPropertyOp13
 70
     1
102
RTVSPropertyOp14
 70
     1
102
RTVSPropertyOp15
 70
     1
102
RTVSPropertyOp16
 70
     1
102
RTVSPropertyOp17
 70
     1
102
RTVSPropertyOp18
 70
     1
102
RTVSPropertyOp19
 70
     1
102
RTVSPropertyOp20
 70
     1
102
RTVSPropertyOp21
 70
     1
102
RTVSPropertyOp22
 70
     1
102
RTVSPropertyOp23
 70
     1
102
RTVSPropertyOp24
 70
     1
102
RTVSPropertyOp25
 70
     1
102
RTVSPropertyOp26
 70
     1
102
RTVSPropertyOp27
 70
     1
102
RTVSPropertyOp28
 70
     1
102
RTVSPropertyOp29
 70
     1
102
RTVSPropertyOp30
 70
     1
102
RTVSPropertyOp31
 70
     1
102
RTVSPropertyOp32
 70
     1
  0
XRECORD
  5
4E
102
{ACAD_REACTORS
330
4D
102
}
330
4D
100
AcDbXrecord
280
     1
102
RTVSPropertyOp0
 70
     1
102
RTVSPropertyOp1
 70
     1
102
RTVSPropertyOp2
 70
     1
102
RTVSPropertyOp3
 70
     1
102
RTVSPropertyOp4
 70
     1
102
RTVSPropertyOp5
 70
     1
102
RTVSPropertyOp6
 70
     1
102
RTVSPropertyOp7
 70
     1
102
RTVSPropertyOp8
 70
     1
102
RTVSPropertyOp9
 70
     1
102
RTVSPropertyOp10
 70
     1
102
RTVSPropertyOp11
 70
     1
102
RTVSPropertyOp12
 70
     1
102
RTVSPropertyOp13
 70
     1
102
RTVSPropertyOp14
 70
     1
102
RTVSPropertyOp15
 70
     1
102
RTVSPropertyOp16
 70
     1
102
RTVSPropertyOp17
 70
     1
102
RTVSPropertyOp18
 70
     1
102
RTVSPropertyOp19
 70
     1
102
RTVSPropertyOp20
 70
     1
102
RTVSPropertyOp21
 70
     1
102
RTVSPropertyOp22
 70
     1
102
RTVSPropertyOp23
 70
     1
102
RTVSPropertyOp24
 70
     1
102
RTVSPropertyOp25
 70
     1
102
RTVSPropertyOp26
 70
     1
102
RTVSPropertyOp27
 70
     1
102
RTVSPropertyOp28
 70
     1
102
RTVSPropertyOp29
 70
     1
102
RTVSPropertyOp30
 70
     1
102
RTVSPropertyOp31
 70
     1
102
RTVSPropertyOp32
 70
     1
  0
XRECORD
  5
62
102
{ACAD_REACTORS
330
61
102
}
330
61
100
AcDbXrecord
280
     1
102
RTVSPropertyOp0
 70
     1
102
RTVSPropertyOp1
 70
     1
102
RTVSPropertyOp2
 70
     1
102
RTVSPropertyOp3
 70
     1
102
RTVSPropertyOp4
 70
     1
102
RTVSPropertyOp5
 70
     1
102
RTVSPropertyOp6
 70
     1
102
RTVSPropertyOp7
 70
     1
102
RTVSPropertyOp8
 70
     1
102
RTVSPropertyOp9
 70
     1
102
RTVSPropertyOp10
 70
     1
102
RTVSPropertyOp11
 70
     1
102
RTVSPropertyOp12
 70
     1
102
RTVSPropertyOp13
 70
     1
102
RTVSPropertyOp14
 70
     1
102
RTVSPropertyOp15
 70
     1
102
RTVSPropertyOp16
 70
     1
102
RTVSPropertyOp17
 70
     1
102
RTVSPropertyOp18
 70
     1
102
RTVSPropertyOp19
 70
     1
102
RTVSPropertyOp20
 70
     1
102
RTVSPropertyOp21
 70
     1
102
RTVSPropertyOp22
 70
     1
102
RTVSPropertyOp23
 70
     1
102
RTVSPropertyOp24
 70
     1
102
RTVSPropertyOp25
 70
     1
102
RTVSPropertyOp26
 70
     1
102
RTVSPropertyOp27
 70
     1
102
RTVSPropertyOp28
 70
     1
102
RTVSPropertyOp29
 70
     1
102
RTVSPropertyOp30
 70
     1
102
RTVSPropertyOp31
 70
     1
102
RTVSPropertyOp32
 70
     1
  0
XRECORD
  5
58
102
{ACAD_REACTORS
330
57
102
}
330
57
100
AcDbXrecord
280
     1
102
RTVSPropertyOp0
 70
     1
102
RTVSPropertyOp1
 70
     1
102
RTVSPropertyOp2
 70
     1
102
RTVSPropertyOp3
 70
     1
102
RTVSPropertyOp4
 70
     1
102
RTVSPropertyOp5
 70
     1
102
RTVSPropertyOp6
 70
     1
102
RTVSPropertyOp7
 70
     1
102
RTVSPropertyOp8
 70
     1
102
RTVSPropertyOp9
 70
     1
102
RTVSPropertyOp10
 70
     1
102
RTVSPropertyOp11
 70
     1
102
RTVSPropertyOp12
 70
     1
102
RTVSPropertyOp13
 70
     1
102
RTVSPropertyOp14
 70
     1
102
RTVSPropertyOp15
 70
     1
102
RTVSPropertyOp16
 70
     1
102
RTVSPropertyOp17
 70
     1
102
RTVSPropertyOp18
 70
     1
102
RTVSPropertyOp19
 70
     1
102
RTVSPropertyOp20
 70
     1
102
RTVSPropertyOp21
 70
     1
102
RTVSPropertyOp22
 70
     1
102
RTVSPropertyOp23
 70
     1
102
RTVSPropertyOp24
 70
     1
102
RTVSPropertyOp25
 70
     1
102
RTVSPropertyOp26
 70
     1
102
RTVSPropertyOp27
 70
     1
102
RTVSPropertyOp28
 70
     1
102
RTVSPropertyOp29
 70
     1
102
RTVSPropertyOp30
 70
     1
102
RTVSPropertyOp31
 70
     1
102
RTVSPropertyOp32
 70
     1
  0
XRECORD
  5
60
102
{ACAD_REACTORS
330
5F
102
}
330
5F
100
AcDbXrecord
280
     1
102
RTVSPropertyOp0
 70
     1
102
RTVSPropertyOp1
 70
     1
102
RTVSPropertyOp2
 70
     1
102
RTVSPropertyOp3
 70
     1
102
RTVSPropertyOp4
 70
     1
102
RTVSPropertyOp5
 70
     1
102
RTVSPropertyOp6
 70
     1
102
RTVSPropertyOp7
 70
     1
102
RTVSPropertyOp8
 70
     1
102
RTVSPropertyOp9
 70
     1
102
RTVSPropertyOp10
 70
     1
102
RTVSPropertyOp11
 70
     1
102
RTVSPropertyOp12
 70
     1
102
RTVSPropertyOp13
 70
     1
102
RTVSPropertyOp14
 70
     1
102
RTVSPropertyOp15
 70
     1
102
RTVSPropertyOp16
 70
     1
102
RTVSPropertyOp17
 70
     1
102
RTVSPropertyOp18
 70
     1
102
RTVSPropertyOp19
 70
     1
102
RTVSPropertyOp20
 70
     1
102
RTVSPropertyOp21
 70
     1
102
RTVSPropertyOp22
 70
     1
102
RTVSPropertyOp23
 70
     1
102
RTVSPropertyOp24
 70
     1
102
RTVSPropertyOp25
 70
     1
102
RTVSPropertyOp26
 70
     1
102
RTVSPropertyOp27
 70
     1
102
RTVSPropertyOp28
 70
     1
102
RTVSPropertyOp29
 70
     1
102
RTVSPropertyOp30
 70
     1
102
RTVSPropertyOp31
 70
     1
102
RTVSPropertyOp32
 70
     1
  0
ENDSEC
  0
EOF
