  0
SECTION
  2
HEADER
  9
$ACADVER
  1
AC1021
  9
$ACADMAINTVER
 70
    25
  9
$DWGCODEPAGE
  3
ANSI_1252
  9
$INSBASE
 10
0.0
 20
0.0
 30
0.0
  9
$EXTMIN
 10
-5.79539
 20
-4.35698
 30
0.0
  9
$EXTMAX
 10
4.52376
 20
1.97646
 30
0.0
  9
$LIMMIN
 10
0.0
 20
0.0
  9
$LIMMAX
 10
12.0
 20
9.0
  9
$ORTHOMODE
 70
     0
  9
$REGENMODE
 70
     1
  9
$FILLMODE
 70
     1
  9
$QTEXTMODE
 70
     0
  9
$MIRRTEXT
 70
     1
  9
$LTSCALE
 40
1.0
  9
$ATTMODE
 70
     1
  9
$TEXTSIZE
 40
0.2
  9
$TRACEWID
 40
0.05
  9
$TEXTSTYLE
  7
Standard
  9
$CLAYER
  8
0
  9
$CELTYPE
  6
ByLayer
  9
$CECOLOR
 62
   256
  9
$CELTSCALE
 40
1.0
  9
$DISPSILH
 70
     0
  9
$DIMSCALE
 40
1.0
  9
$DIMASZ
 40
0.18
  9
$DIMEXO
 40
0.0625
  9
$DIMDLI
 40
0.38
  9
$DIMRND
 40
0.0
  9
$DIMDLE
 40
0.0
  9
$DIMEXE
 40
0.18
  9
$DIMTP
 40
0.0
  9
$DIMTM
 40
0.0
  9
$DIMTXT
 40
0.18
  9
$DIMCEN
 40
0.09
  9
$DIMTSZ
 40
0.0
  9
$DIMTOL
 70
     0
  9
$DIMLIM
 70
     0
  9
$DIMTIH
 70
     1
  9
$DIMTOH
 70
     1
  9
$DIMSE1
 70
     0
  9
$DIMSE2
 70
     0
  9
$DIMTAD
 70
     0
  9
$DIMZIN
 70
     0
  9
$DIMBLK
  1

  9
$DIMASO
 70
     1
  9
$DIMSHO
 70
     1
  9
$DIMPOST
  1

  9
$DIMAPOST
  1

  9
$DIMALT
 70
     0
  9
$DIMALTD
 70
     2
  9
$DIMALTF
 40
25.4
  9
$DIMLFAC
 40
1.0
  9
$DIMTOFL
 70
     0
  9
$DIMTVP
 40
0.0
  9
$DIMTIX
 70
     0
  9
$DIMSOXD
 70
     0
  9
$DIMSAH
 70
     0
  9
$DIMBLK1
  1

  9
$DIMBLK2
  1

  9
$DIMSTYLE
  2
Standard
  9
$DIMCLRD
 70
     0
  9
$DIMCLRE
 70
     0
  9
$DIMCLRT
 70
     0
  9
$DIMTFAC
 40
1.0
  9
$DIMGAP
 40
0.09
  9
$DIMJUST
 70
     0
  9
$DIMSD1
 70
     0
  9
$DIMSD2
 70
     0
  9
$DIMTOLJ
 70
     1
  9
$DIMTZIN
 70
     0
  9
$DIMALTZ
 70
     0
  9
$DIMALTTZ
 70
     0
  9
$DIMUPT
 70
     0
  9
$DIMDEC
 70
     4
  9
$DIMTDEC
 70
     4
  9
$DIMALTU
 70
     2
  9
$DIMALTTD
 70
     2
  9
$DIMTXSTY
  7
Standard
  9
$DIMAUNIT
 70
     0
  9
$DIMADEC
 70
     0
  9
$DIMALTRND
 40
0.0
  9
$DIMAZIN
 70
     0
  9
$DIMDSEP
 70
    46
  9
$DIMATFIT
 70
     3
  9
$DIMFRAC
 70
     0
  9
$DIMLDRBLK
  1

  9
$DIMLUNIT
 70
     2
  9
$DIMLWD
 70
    -2
  9
$DIMLWE
 70
    -2
  9
$DIMTMOVE
 70
     0
  9
$DIMFXL
 40
1.0
  9
$DIMFXLON
 70
     0
  9
$DIMJOGANG
 40
0.7853981633974483
  9
$DIMTFILL
 70
     0
  9
$DIMTFILLCLR
 70
     0
  9
$DIMARCSYM
 70
     0
  9
$DIMLTYPE
  6

  9
$DIMLTEX1
  6

  9
$DIMLTEX2
  6

  9
$LUNITS
 70
     2
  9
$LUPREC
 70
     4
  9
$SKETCHINC
 40
0.1
  9
$FILLETRAD
 40
0.5
  9
$AUNITS
 70
     0
  9
$AUPREC
 70
     0
  9
$MENU
  1
.
  9
$ELEVATION
 40
0.0
  9
$PELEVATION
 40
0.0
  9
$THICKNESS
 40
0.0
  9
$LIMCHECK
 70
     0
  9
$CHAMFERA
 40
0.5
  9
$CHAMFERB
 40
0.5
  9
$CHAMFERC
 40
1.0
  9
$CHAMFERD
 40
0.0
  9
$SKPOLY
 70
     0
  9
$TDCREATE
 40
2460554.935326342
  9
$TDUCREATE
 40
2460554.893659676
  9
$TDUPDATE
 40
2460554.935326377
  9
$TDUUPDATE
 40
2460554.89365971
  9
$TDINDWG
 40
0.0000000116
  9
$TDUSRTIMER
 40
0.0000000116
  9
$USRTIMER
 70
     1
  9
$ANGBASE
 50
0.0
  9
$ANGDIR
 70
     0
  9
$PDMODE
 70
     0
  9
$PDSIZE
 40
0.0
  9
$PLINEWID
 40
0.0
  9
$SPLFRAME
 70
     0
  9
$SPLINETYPE
 70
     6
  9
$SPLINESEGS
 70
     8
  9
$HANDSEED
  5
70
  9
$SURFTAB1
 70
     6
  9
$SURFTAB2
 70
     6
  9
$SURFTYPE
 70
     6
  9
$SURFU
 70
     6
  9
$SURFV
 70
     6
  9
$UCSBASE
  2

  9
$UCSNAME
  2

  9
$UCSORG
 10
0.0
 20
0.0
 30
0.0
  9
$UCSXDIR
 10
1.0
 20
0.0
 30
0.0
  9
$UCSYDIR
 10
0.0
 20
1.0
 30
0.0
  9
$UCSORTHOREF
  2

  9
$UCSORTHOVIEW
 70
     0
  9
$UCSORGTOP
 10
0.0
 20
0.0
 30
0.0
  9
$UCSORGBOTTOM
 10
0.0
 20
0.0
 30
0.0
  9
$UCSORGLEFT
 10
0.0
 20
0.0
 30
0.0
  9
$UCSORGRIGHT
 10
0.0
 20
0.0
 30
0.0
  9
$UCSORGFRONT
 10
0.0
 20
0.0
 30
0.0
  9
$UCSORGBACK
 10
0.0
 20
0.0
 30
0.0
  9
$PUCSBASE
  2

  9
$PUCSNAME
  2

  9
$PUCSORG
 10
0.0
 20
0.0
 30
0.0
  9
$PUCSXDIR
 10
1.0
 20
0.0
 30
0.0
  9
$PUCSYDIR
 10
0.0
 20
1.0
 30
0.0
  9
$PUCSORTHOREF
  2

  9
$PUCSORTHOVIEW
 70
     0
  9
$PUCSORGTOP
 10
0.0
 20
0.0
 30
0.0
  9
$PUCSORGBOTTOM
 10
0.0
 20
0.0
 30
0.0
  9
$PUCSORGLEFT
 10
0.0
 20
0.0
 30
0.0
  9
$PUCSORGRIGHT
 10
0.0
 20
0.0
 30
0.0
  9
$PUCSORGFRONT
 10
0.0
 20
0.0
 30
0.0
  9
$PUCSORGBACK
 10
0.0
 20
0.0
 30
0.0
  9
$USERI1
 70
     0
  9
$USERI2
 70
     0
  9
$USERI3
 70
     0
  9
$USERI4
 70
     0
  9
$USERI5
 70
     0
  9
$USERR1
 40
0.0
  9
$USERR2
 40
0.0
  9
$USERR3
 40
0.0
  9
$USERR4
 40
0.0
  9
$USERR5
 40
0.0
  9
$WORLDVIEW
 70
     1
  9
$SHADEDGE
 70
     3
  9
$SHADEDIF
 70
    70
  9
$TILEMODE
 70
     1
  9
$MAXACTVP
 70
    64
  9
$PINSBASE
 10
0.0
 20
0.0
 30
0.0
  9
$PLIMCHECK
 70
     0
  9
$PEXTMIN
 10
1.000000000000000E+20
 20
1.000000000000000E+20
 30
1.000000000000000E+20
  9
$PEXTMAX
 10
-1.000000000000000E+20
 20
-1.000000000000000E+20
 30
-1.000000000000000E+20
  9
$PLIMMIN
 10
0.0
 20
0.0
  9
$PLIMMAX
 10
12.0
 20
9.0
  9
$UNITMODE
 70
     0
  9
$VISRETAIN
 70
     1
  9
$PLINEGEN
 70
     0
  9
$PSLTSCALE
 70
     1
  9
$TREEDEPTH
 70
  3020
  9
$CMLSTYLE
  2
Standard
  9
$CMLJUST
 70
     0
  9
$CMLSCALE
 40
1.0
  9
$PROXYGRAPHICS
 70
     1
  9
$MEASUREMENT
 70
     0
  9
$CELWEIGHT
370
    -1
  9
$ENDCAPS
280
     0
  9
$JOINSTYLE
280
     0
  9
$LWDISPLAY
290
     0
  9
$INSUNITS
 70
     5
  9
$HYPERLINKBASE
  1

  9
$STYLESHEET
  1

  9
$XEDIT
290
     1
  9
$CEPSNTYPE
380
     0
  9
$PSTYLEMODE
290
     1
  9
$FINGERPRINTGUID
  2
{A441C3B9-4F9E-4493-B51C-BFFC0F446B6C}
  9
$VERSIONGUID
  2
{FAEB1C32-E019-11D5-929B-00C0DF256EC4}
  9
$EXTNAMES
290
     1
  9
$PSVPSCALE
 40
0.0
  9
$OLESTARTUP
290
     0
  9
$SORTENTS
280
   127
  9
$INDEXCTL
280
     0
  9
$HIDETEXT
280
     1
  9
$XCLIPFRAME
290
     0
  9
$HALOGAP
280
     0
  9
$OBSCOLOR
 70
   257
  9
$OBSLTYPE
280
     0
  9
$INTERSECTIONDISPLAY
280
     0
  9
$INTERSECTIONCOLOR
 70
   257
  9
$DIMASSOC
280
     2
  9
$PROJECTNAME
  1

  9
$CAMERADISPLAY
290
     0
  9
$LENSLENGTH
 40
50.0
  9
$CAMERAHEIGHT
 40
0.0
  9
$STEPSPERSEC
 40
2.0
  9
$STEPSIZE
 40
6.0
  9
$3DDWFPREC
 40
2.0
  9
$PSOLWIDTH
 40
0.25
  9
$PSOLHEIGHT
 40
4.0
  9
$LOFTANG1
 40
1.570796326794897
  9
$LOFTANG2
 40
1.570796326794897
  9
$LOFTMAG1
 40
0.0
  9
$LOFTMAG2
 40
0.0
  9
$LOFTPARAM
 70
     7
  9
$LOFTNORMALS
280
     1
  9
$LATITUDE
 40
37.795
  9
$LONGITUDE
 40
-122.394
  9
$NORTHDIRECTION
 40
0.0
  9
$TIMEZONE
 70
 -8000
  9
$LIGHTGLYPHDISPLAY
280
     1
  9
$TILEMODELIGHTSYNCH
280
     1
  9
$SOLIDHIST
280
     1
  9
$SHOWHIST
280
     1
  9
$DWFFRAME
280
     2
  9
$DGNFRAME
280
     2
  9
$REALWORLDSCALE
290
     1
  9
$INTERFERECOLOR
 62
   256
  9
$CSHADOW
280
     0
  9
$SHADOWPLANELOCATION
 40
0.0
  0
ENDSEC
  0
SECTION
  2
CLASSES
  0
CLASS
  1
ACDBDICTIONARYWDFLT
  2
AcDbDictionaryWithDefault
  3
ObjectDBX Classes
 90
        0
 91
        4
280
     0
281
     0
  0
CLASS
  1
VISUALSTYLE
  2
AcDbVisualStyle
  3
ObjectDBX Classes
 90
     4095
 91
        4
280
     0
281
     0
  0
CLASS
  1
MATERIAL
  2
AcDbMaterial
  3
ObjectDBX Classes
 90
     1153
 91
        4
280
     0
281
     0
  0
ENDSEC
  0
SECTION
  2
TABLES
  0
TABLE
  2
VPORT
  5
8
330
0
100
AcDbSymbolTable
 70
     1
  0
VPORT
  5
29
330
8
100
AcDbSymbolTableRecord
100
AcDbViewportTableRecord
  2
*Active
 70
     0
 10
0.0
 20
0.0
 11
1.0
 21
1.0
 12
10.42990654205607
 22
4.5
 13
0.0
 23
0.0
 14
0.5
 24
0.5
 15
0.5
 25
0.5
 16
0.0
 26
0.0
 36
1.0
 17
0.0
 27
0.0
 37
0.0
 40
9.0
 41
1.972972972850329
 42
50.0
 43
0.0
 44
0.0
 50
0.0
 51
0.0
 71
     0
 72
   100
 73
     1
 74
     3
 75
     0
 76
     0
 77
     0
 78
     0
281
     0
 65
     1
110
0.0
120
0.0
130
0.0
111
1.0
121
0.0
131
0.0
112
0.0
122
1.0
132
0.0
 79
     0
146
0.0
 60
     3
 61
     5
292
     1
282
     1
141
0.0
142
0.0
 63
   250
  0
ENDTAB
  0
TABLE
  2
LTYPE
  5
5
330
0
100
AcDbSymbolTable
 70
     1
  0
LTYPE
  5
14
330
5
100
AcDbSymbolTableRecord
100
AcDbLinetypeTableRecord
  2
ByBlock
 70
     0
  3

 72
    65
 73
     0
 40
0.0
  0
LTYPE
  5
15
330
5
100
AcDbSymbolTableRecord
100
AcDbLinetypeTableRecord
  2
ByLayer
 70
     0
  3

 72
    65
 73
     0
 40
0.0
  0
LTYPE
  5
16
330
5
100
AcDbSymbolTableRecord
100
AcDbLinetypeTableRecord
  2
Continuous
 70
     0
  3
Solid line
 72
    65
 73
     0
 40
0.0
  0
ENDTAB
  0
TABLE
  2
LAYER
  5
2
330
0
100
AcDbSymbolTable
 70
     2
  0
LAYER
  5
10
330
2
100
AcDbSymbolTableRecord
100
AcDbLayerTableRecord
  2
0
 70
     0
 62
     7
  6
Continuous
370
    -3
390
F
347
3E
  0
LAYER
  5
40
330
2
100
AcDbSymbolTableRecord
100
AcDbLayerTableRecord
  2
Layer 1
 70
     0
 62
     7
  6
Continuous
370
    -3
390
F
347
3E
  0
ENDTAB
  0
TABLE
  2
STYLE
  5
3
330
0
100
AcDbSymbolTable
 70
     1
  0
STYLE
  5
11
330
3
100
AcDbSymbolTableRecord
100
AcDbTextStyleTableRecord
  2
Standard
 70
     0
 40
0.0
 41
1.0
 50
0.0
 71
     0
 42
0.2
  3
txt
  4

  0
ENDTAB
  0
TABLE
  2
VIEW
  5
6
330
0
100
AcDbSymbolTable
 70
     0
  0
ENDTAB
  0
TABLE
  2
UCS
  5
7
330
0
100
AcDbSymbolTable
 70
     0
  0
ENDTAB
  0
TABLE
  2
APPID
  5
9
330
0
100
AcDbSymbolTable
 70
     2
  0
APPID
  5
12
330
9
100
AcDbSymbolTableRecord
100
AcDbRegAppTableRecord
  2
ACAD
 70
     0
  0
APPID
  5
3F
330
9
100
AcDbSymbolTableRecord
100
AcDbRegAppTableRecord
  2
ODA
 70
     0
  0
ENDTAB
  0
TABLE
  2
DIMSTYLE
  5
A
330
0
100
AcDbSymbolTable
 70
     1
100
AcDbDimStyleTable
  0
DIMSTYLE
105
27
330
A
100
AcDbSymbolTableRecord
100
AcDbDimStyleTableRecord
  2
Standard
 70
     0
178
     0
340
11
  0
ENDTAB
  0
TABLE
  2
BLOCK_RECORD
  5
1
330
0
100
AcDbSymbolTable
 70
     1
  0
BLOCK_RECORD
  5
1F
330
1
100
AcDbSymbolTableRecord
100
AcDbBlockTableRecord
  2
*Model_Space
340
22
 70
     0
280
     1
281
     0
  0
BLOCK_RECORD
  5
1B
330
1
100
AcDbSymbolTableRecord
100
AcDbBlockTableRecord
  2
*Paper_Space
340
1E
 70
     0
280
     1
281
     0
  0
BLOCK_RECORD
  5
23
330
1
100
AcDbSymbolTableRecord
100
AcDbBlockTableRecord
  2
*Paper_Space0
340
26
 70
     0
280
     1
281
     0
  0
ENDTAB
  0
ENDSEC
  0
SECTION
  2
BLOCKS
  0
BLOCK
  5
20
330
1F
100
AcDbEntity
  8
0
100
AcDbBlockBegin
  2
*Model_Space
 70
     0
 10
0.0
 20
0.0
 30
0.0
  3
*Model_Space
  1

  0
ENDBLK
  5
21
330
1F
100
AcDbEntity
  8
0
100
AcDbBlockEnd
  0
BLOCK
  5
1C
330
1B
100
AcDbEntity
 67
     1
  8
0
100
AcDbBlockBegin
  2
*Paper_Space
 70
     0
 10
0.0
 20
0.0
 30
0.0
  3
*Paper_Space
  1

  0
ENDBLK
  5
1D
330
1B
100
AcDbEntity
 67
     1
  8
0
100
AcDbBlockEnd
  0
BLOCK
  5
24
330
23
100
AcDbEntity
  8
0
100
AcDbBlockBegin
  2
*Paper_Space0
 70
     0
 10
0.0
 20
0.0
 30
0.0
  3
*Paper_Space0
  1

  0
ENDBLK
  5
25
330
23
100
AcDbEntity
  8
0
100
AcDbBlockEnd
  0
ENDSEC
  0
SECTION
  2
ENTITIES
  0
SPLINE
  5
41
330
1F
100
AcDbEntity
  8
Layer 1
370
    53
100
AcDbSpline
210
0.0
220
0.0
230
1.0
 70
    11
 71
     3
 72
    20
 73
    16
 74
     0
 42
0.0000000001
 43
0.0000000001
 12
1.0
 22
0.0
 32
0.0
 13
1.0
 23
0.0
 33
0.0
 40
0.0
 40
0.0
 40
0.0
 40
0.0
 40
0.2
 40
0.2
 40
0.2
 40
0.2
 40
0.4
 40
0.4
 40
0.4
 40
0.4
 40
0.6
 40
0.6
 40
0.6
 40
0.6
 40
1.0
 40
1.0
 40
1.0
 40
1.0
 10
-0.55
 20
1.25
 30
0.0
 10
-0.55
 20
1.41568
 30
0.0
 10
-0.41568
 20
1.55
 30
0.0
 10
-0.25
 20
1.55
 30
0.0
 10
-0.25
 20
1.55
 30
0.0
 10
-0.08432
 20
1.55
 30
0.0
 10
0.05
 20
1.41568
 30
0.0
 10
0.05
 20
1.25
 30
0.0
 10
0.05
 20
1.25
 30
0.0
 10
0.05
 20
1.08432
 30
0.0
 10
-0.08432
 20
0.95
 30
0.0
 10
-0.25
 20
0.95
 30
0.0
 10
-0.25
 20
0.95
 30
0.0
 10
-0.41568
 20
0.95
 30
0.0
 10
-0.55
 20
1.08432
 30
0.0
 10
-0.55
 20
1.25
 30
0.0
  0
SPLINE
  5
42
330
1F
100
AcDbEntity
  8
Layer 1
370
    53
100
AcDbSpline
210
0.0
220
0.0
230
1.0
 70
    11
 71
     3
 72
    20
 73
    16
 74
     0
 42
0.0000000001
 43
0.0000000001
 12
1.0
 22
0.0
 32
0.0
 13
1.0
 23
0.0
 33
0.0
 40
0.0
 40
0.0
 40
0.0
 40
0.0
 40
0.2
 40
0.2
 40
0.2
 40
0.2
 40
0.4
 40
0.4
 40
0.4
 40
0.4
 40
0.6
 40
0.6
 40
0.6
 40
0.6
 40
1.0
 40
1.0
 40
1.0
 40
1.0
 10
0.95
 20
1.25
 30
0.0
 10
0.95
 20
1.41568
 30
0.0
 10
1.08432
 20
1.55
 30
0.0
 10
1.25
 20
1.55
 30
0.0
 10
1.25
 20
1.55
 30
0.0
 10
1.41568
 20
1.55
 30
0.0
 10
1.55
 20
1.41568
 30
0.0
 10
1.55
 20
1.25
 30
0.0
 10
1.55
 20
1.25
 30
0.0
 10
1.55
 20
1.08432
 30
0.0
 10
1.41568
 20
0.95
 30
0.0
 10
1.25
 20
0.95
 30
0.0
 10
1.25
 20
0.95
 30
0.0
 10
1.08432
 20
0.95
 30
0.0
 10
0.95
 20
1.08432
 30
0.0
 10
0.95
 20
1.25
 30
0.0
  0
SPLINE
  5
43
330
1F
100
AcDbEntity
  8
Layer 1
 62
     5
370
    53
100
AcDbSpline
210
0.0
220
0.0
230
1.0
 70
     8
 71
     3
 72
    36
 73
    32
 74
     0
 42
0.0000000001
 43
0.0000000001
 12
1.0
 22
0.0
 32
0.0
 13
1.0
 23
0.0
 33
0.0
 40
0.0
 40
0.0
 40
0.0
 40
0.0
 40
0.1111111111111111
 40
0.1111111111111111
 40
0.1111111111111111
 40
0.1111111111111111
 40
0.2222222222222222
 40
0.2222222222222222
 40
0.2222222222222222
 40
0.2222222222222222
 40
0.3333333333333333
 40
0.3333333333333333
 40
0.3333333333333333
 40
0.3333333333333333
 40
0.4444444444444444
 40
0.4444444444444444
 40
0.4444444444444444
 40
0.4444444444444444
 40
0.5555555555555556
 40
0.5555555555555556
 40
0.5555555555555556
 40
0.5555555555555556
 40
0.6666666666666666
 40
0.6666666666666666
 40
0.6666666666666666
 40
0.6666666666666666
 40
0.7777777777777778
 40
0.7777777777777778
 40
0.7777777777777778
 40
0.7777777777777778
 40
1.0
 40
1.0
 40
1.0
 40
1.0
 10
1.97379
 20
-0.95325
 30
0.0
 10
1.96394
 20
-1.04832
 30
0.0
 10
1.94802
 20
-1.14445
 30
0.0
 10
2.01443
 20
-1.29946
 30
0.0
 10
2.01443
 20
-1.29946
 30
0.0
 10
2.12796
 20
-1.56445
 30
0.0
 10
2.41283
 20
-1.75527
 30
0.0
 10
2.65955
 20
-1.88299
 30
0.0
 10
2.65955
 20
-1.88299
 30
0.0
 10
2.98538
 20
-2.05163
 30
0.0
 10
3.49256
 20
-2.25074
 30
0.0
 10
3.59102
 20
-2.64591
 30
0.0
 10
3.59102
 20
-2.64591
 30
0.0
 10
3.68972
 20
-3.04234
 30
0.0
 10
3.64443
 20
-3.74527
 30
0.0
 10
3.09922
 20
-3.75747
 30
0.0
 10
3.09922
 20
-3.75747
 30
0.0
 10
2.93646
 20
-3.76108
 30
0.0
 10
2.69581
 20
-3.60136
 30
0.0
 10
2.64367
 20
-3.43858
 30
0.0
 10
2.64367
 20
-3.43858
 30
0.0
 10
2.5999
 20
-3.30184
 30
0.0
 10
2.71017
 20
-3.02716
 30
0.0
 10
2.88011
 20
-3.03637
 30
0.0
 10
2.88011
 20
-3.03637
 30
0.0
 10
2.90894
 20
-3.03793
 30
0.0
 10
2.93307
 20
-3.0605
 30
0.0
 10
2.96235
 20
-3.07185
 30
0.0
 10
2.96235
 20
-3.07185
 30
0.0
 10
2.97991
 20
-3.07865
 30
0.0
 10
3.00317
 20
-3.07763
 30
0.0
 10
3.01969
 20
-3.07627
 30
0.0
  0
SPLINE
  5
44
330
1F
100
AcDbEntity
  8
Layer 1
 62
     5
370
    53
100
AcDbSpline
210
0.0
220
0.0
230
1.0
 70
     8
 71
     3
 72
    32
 73
    28
 74
     0
 42
0.0000000001
 43
0.0000000001
 12
1.0
 22
0.0
 32
0.0
 13
1.0
 23
0.0
 33
0.0
 40
0.0
 40
0.0
 40
0.0
 40
0.0
 40
0.125
 40
0.125
 40
0.125
 40
0.125
 40
0.25
 40
0.25
 40
0.25
 40
0.25
 40
0.375
 40
0.375
 40
0.375
 40
0.375
 40
0.5
 40
0.5
 40
0.5
 40
0.5
 40
0.625
 40
0.625
 40
0.625
 40
0.625
 40
0.75
 40
0.75
 40
0.75
 40
0.75
 40
1.0
 40
1.0
 40
1.0
 40
1.0
 10
0.0508
 20
-0.74101
 30
0.0
 10
0.05915
 20
-0.91381
 30
0.0
 10
-0.02432
 20
-1.10709
 30
0.0
 10
-0.0324
 20
-1.26801
 30
0.0
 10
-0.0324
 20
-1.26801
 30
0.0
 10
-0.04377
 20
-1.49464
 30
0.0
 10
-0.01612
 20
-1.74242
 30
0.0
 10
0.14917
 20
-1.91327
 30
0.0
 10
0.14917
 20
-1.91327
 30
0.0
 10
0.40941
 20
-2.18224
 30
0.0
 10
0.73815
 20
-2.2727
 30
0.0
 10
0.87416
 20
-2.65268
 30
0.0
 10
0.87416
 20
-2.65268
 30
0.0
 10
0.97741
 20
-2.94101
 30
0.0
 10
0.97521
 20
-3.40341
 30
0.0
 10
0.64332
 20
-3.54802
 30
0.0
 10
0.64332
 20
-3.54802
 30
0.0
 10
0.36998
 20
-3.66712
 30
0.0
 10
0.14715
 20
-3.44627
 30
0.0
 10
0.11545
 20
-3.18611
 30
0.0
 10
0.11545
 20
-3.18611
 30
0.0
 10
0.08801
 20
-2.96085
 30
0.0
 10
0.24404
 20
-2.96101
 30
0.0
 10
0.4407
 20
-3.06576
 30
0.0
 10
0.4407
 20
-3.06576
 30
0.0
 10
0.45774
 20
-3.07484
 30
0.0
 10
0.47258
 20
-3.09073
 30
0.0
 10
0.48713
 20
-3.1063
 30
0.0
  0
SPLINE
  5
45
330
1F
100
AcDbEntity
  8
Layer 1
 62
     5
370
    53
100
AcDbSpline
210
0.0
220
0.0
230
1.0
 70
     8
 71
     3
 72
    40
 73
    36
 74
     0
 42
0.0000000001
 43
0.0000000001
 12
1.0
 22
0.0
 32
0.0
 13
1.0
 23
0.0
 33
0.0
 40
0.0
 40
0.0
 40
0.0
 40
0.0
 40
0.1
 40
0.1
 40
0.1
 40
0.1
 40
0.2
 40
0.2
 40
0.2
 40
0.2
 40
0.3
 40
0.3
 40
0.3
 40
0.3
 40
0.4
 40
0.4
 40
0.4
 40
0.4
 40
0.5
 40
0.5
 40
0.5
 40
0.5
 40
0.6
 40
0.6
 40
0.6
 40
0.6
 40
0.7
 40
0.7
 40
0.7
 40
0.7
 40
0.8
 40
0.8
 40
0.8
 40
0.8
 40
1.0
 40
1.0
 40
1.0
 40
1.0
 10
-1.77389
 20
-2.93243
 30
0.0
 10
-1.79153
 20
-2.91489
 30
0.0
 10
-1.80596
 20
-2.89473
 30
0.0
 10
-1.81388
 20
-2.87171
 30
0.0
 10
-1.81388
 20
-2.87171
 30
0.0
 10
-1.84006
 20
-2.79567
 30
0.0
 10
-1.7464
 20
-2.72045
 30
0.0
 10
-1.67848
 20
-2.69749
 30
0.0
 10
-1.67848
 20
-2.69749
 30
0.0
 10
-1.57367
 20
-2.66209
 30
0.0
 10
-1.47723
 20
-2.73154
 30
0.0
 10
-1.42047
 20
-2.81525
 30
0.0
 10
-1.42047
 20
-2.81525
 30
0.0
 10
-1.15889
 20
-3.2011
 30
0.0
 10
-1.46498
 20
-3.66482
 30
0.0
 10
-1.89356
 20
-3.65822
 30
0.0
 10
-1.89356
 20
-3.65822
 30
0.0
 10
-2.5598
 20
-3.64795
 30
0.0
 10
-2.48527
 20
-2.86006
 30
0.0
 10
-2.17123
 20
-2.48011
 30
0.0
 10
-2.17123
 20
-2.48011
 30
0.0
 10
-2.03961
 20
-2.32087
 30
0.0
 10
-1.87241
 20
-2.24762
 30
0.0
 10
-1.68345
 20
-2.1779
 30
0.0
 10
-1.68345
 20
-2.1779
 30
0.0
 10
-1.42598
 20
-2.08298
 30
0.0
 10
-1.15523
 20
-1.88862
 30
0.0
 10
-1.00993
 20
-1.65287
 30
0.0
 10
-1.00993
 20
-1.65287
 30
0.0
 10
-0.92264
 20
-1.51125
 30
0.0
 10
-0.88174
 20
-1.34452
 30
0.0
 10
-0.88949
 20
-1.17872
 30
0.0
 10
-0.88949
 20
-1.17872
 30
0.0
 10
-0.89743
 20
-1.00916
 30
0.0
 10
-0.98101
 20
-1.00047
 30
0.0
 10
-0.94073
 20
-0.83097
 30
0.0
  0
SPLINE
  5
46
330
1F
100
AcDbEntity
  8
Layer 1
 62
     5
370
    53
100
AcDbSpline
210
0.0
220
0.0
230
1.0
 70
     8
 71
     3
 72
    28
 73
    24
 74
     0
 42
0.0000000001
 43
0.0000000001
 12
1.0
 22
0.0
 32
0.0
 13
1.0
 23
0.0
 33
0.0
 40
0.0
 40
0.0
 40
0.0
 40
0.0
 40
0.1428571428571428
 40
0.1428571428571428
 40
0.1428571428571428
 40
0.1428571428571428
 40
0.2857142857142857
 40
0.2857142857142857
 40
0.2857142857142857
 40
0.2857142857142857
 40
0.4285714285714285
 40
0.4285714285714285
 40
0.4285714285714285
 40
0.4285714285714285
 40
0.5714285714285714
 40
0.5714285714285714
 40
0.5714285714285714
 40
0.5714285714285714
 40
0.7142857142857143
 40
0.7142857142857143
 40
0.7142857142857143
 40
0.7142857142857143
 40
1.0
 40
1.0
 40
1.0
 40
1.0
 10
-4.1617
 20
-3.27603
 30
0.0
 10
-4.11998
 20
-3.26123
 30
0.0
 10
-4.07625
 20
-3.23054
 30
0.0
 10
-4.03943
 20
-3.22472
 30
0.0
 10
-4.03943
 20
-3.22472
 30
0.0
 10
-3.86882
 20
-3.19776
 30
0.0
 10
-3.76895
 20
-3.34646
 30
0.0
 10
-3.85044
 20
-3.49555
 30
0.0
 10
-3.85044
 20
-3.49555
 30
0.0
 10
-3.91103
 20
-3.60637
 30
0.0
 10
-4.08248
 20
-3.67874
 30
0.0
 10
-4.19842
 20
-3.71084
 30
0.0
 10
-4.19842
 20
-3.71084
 30
0.0
 10
-4.46547
 20
-3.78473
 30
0.0
 10
-4.74776
 20
-3.69446
 30
0.0
 10
-4.78127
 20
-3.38757
 30
0.0
 10
-4.78127
 20
-3.38757
 30
0.0
 10
-4.83008
 20
-2.94086
 30
0.0
 10
-4.42464
 20
-2.73012
 30
0.0
 10
-4.09761
 20
-2.52974
 30
0.0
 10
-4.09761
 20
-2.52974
 30
0.0
 10
-3.51944
 20
-2.17523
 30
0.0
 10
-3.3233
 20
-1.47271
 30
0.0
 10
-2.95144
 20
-0.93744
 30
0.0
  0
SPLINE
  5
47
330
1F
100
AcDbEntity
  8
Layer 1
370
    53
100
AcDbSpline
210
0.0
220
0.0
230
1.0
 70
    24
 71
     3
 72
     8
 73
     4
 74
     0
 42
0.0000000001
 43
0.0000000001
 12
1.0
 22
0.0
 32
0.0
 13
1.0
 23
0.0
 33
0.0
 40
0.0
 40
0.0
 40
0.0
 40
0.0
 40
1.0
 40
1.0
 40
1.0
 40
1.0
 10
3.12113
 20
-3.74021
 30
0.0
 10
3.12113
 20
-3.74021
 30
0.0
 10
3.12113
 20
-3.72448
 30
0.0
 10
3.12113
 20
-3.72448
 30
0.0
  0
SPLINE
  5
48
330
1F
100
AcDbEntity
  8
Layer 1
370
    53
100
AcDbSpline
210
0.0
220
0.0
230
1.0
 70
    27
 71
     3
 72
     8
 73
     4
 74
     0
 42
0.0000000001
 43
0.0000000001
 12
1.0
 22
0.0
 32
0.0
 13
1.0
 23
0.0
 33
0.0
 40
0.0
 40
0.0
 40
0.0
 40
0.0
 40
1.0
 40
1.0
 40
1.0
 40
1.0
 10
-1.08635
 20
-1.7597
 30
0.0
 10
-1.08635
 20
-1.7597
 30
0.0
 10
-1.08635
 20
-1.7597
 30
0.0
 10
-1.08635
 20
-1.7597
 30
0.0
  0
SPLINE
  5
49
330
1F
100
AcDbEntity
  8
Layer 1
370
    53
100
AcDbSpline
210
0.0
220
0.0
230
1.0
 70
     8
 71
     3
 72
    12
 73
     8
 74
     0
 42
0.0000000001
 43
0.0000000001
 12
1.0
 22
0.0
 32
0.0
 13
1.0
 23
0.0
 33
0.0
 40
0.0
 40
0.0
 40
0.0
 40
0.0
 40
0.3333333333333333
 40
0.3333333333333333
 40
0.3333333333333333
 40
0.3333333333333333
 40
1.0
 40
1.0
 40
1.0
 40
1.0
 10
-1.07694
 20
-1.77539
 30
0.0
 10
-1.01669
 20
-1.82837
 30
0.0
 10
-0.97742
 20
-1.79568
 30
0.0
 10
-0.94515
 20
-1.72922
 30
0.0
 10
-0.94515
 20
-1.72922
 30
0.0
 10
-0.92051
 20
-1.67846
 30
0.0
 10
-0.93788
 20
-1.63776
 30
0.0
 10
-0.98848
 20
-1.61585
 30
0.0
  0
SPLINE
  5
4A
330
1F
100
AcDbEntity
  8
Layer 1
370
    53
100
AcDbSpline
210
0.0
220
0.0
230
1.0
 70
    11
 71
     3
 72
  1804
 73
  1800
 74
     0
 42
0.0000000001
 43
0.0000000001
 12
1.0
 22
0.0
 32
0.0
 13
1.0
 23
0.0
 33
0.0
 40
0.0
 40
0.0
 40
0.0
 40
0.0
 40
0.0022172949002217
 40
0.0022172949002217
 40
0.0022172949002217
 40
0.0022172949002217
 40
0.0044345898004435
 40
0.0044345898004435
 40
0.0044345898004435
 40
0.0044345898004435
 40
0.0066518847006652
 40
0.0066518847006652
 40
0.0066518847006652
 40
0.0066518847006652
 40
0.0088691796008869
 40
0.0088691796008869
 40
0.0088691796008869
 40
0.0088691796008869
 40
0.0110864745011086
 40
0.0110864745011086
 40
0.0110864745011086
 40
0.0110864745011086
 40
0.0133037694013304
 40
0.0133037694013304
 40
0.0133037694013304
 40
0.0133037694013304
 40
0.0155210643015521
 40
0.0155210643015521
 40
0.0155210643015521
 40
0.0155210643015521
 40
0.0177383592017738
 40
0.0177383592017738
 40
0.0177383592017738
 40
0.0177383592017738
 40
0.0199556541019956
 40
0.0199556541019956
 40
0.0199556541019956
 40
0.0199556541019956
 40
0.0221729490022173
 40
0.0221729490022173
 40
0.0221729490022173
 40
0.0221729490022173
 40
0.024390243902439
 40
0.024390243902439
 40
0.024390243902439
 40
0.024390243902439
 40
0.0266075388026608
 40
0.0266075388026608
 40
0.0266075388026608
 40
0.0266075388026608
 40
0.0288248337028825
 40
0.0288248337028825
 40
0.0288248337028825
 40
0.0288248337028825
 40
0.0310421286031042
 40
0.0310421286031042
 40
0.0310421286031042
 40
0.0310421286031042
 40
0.0332594235033259
 40
0.0332594235033259
 40
0.0332594235033259
 40
0.0332594235033259
 40
0.0354767184035477
 40
0.0354767184035477
 40
0.0354767184035477
 40
0.0354767184035477
 40
0.0376940133037694
 40
0.0376940133037694
 40
0.0376940133037694
 40
0.0376940133037694
 40
0.0399113082039911
 40
0.0399113082039911
 40
0.0399113082039911
 40
0.0399113082039911
 40
0.0421286031042129
 40
0.0421286031042129
 40
0.0421286031042129
 40
0.0421286031042129
 40
0.0443458980044346
 40
0.0443458980044346
 40
0.0443458980044346
 40
0.0443458980044346
 40
0.0465631929046563
 40
0.0465631929046563
 40
0.0465631929046563
 40
0.0465631929046563
 40
0.0487804878048781
 40
0.0487804878048781
 40
0.0487804878048781
 40
0.0487804878048781
 40
0.0509977827050998
 40
0.0509977827050998
 40
0.0509977827050998
 40
0.0509977827050998
 40
0.0532150776053215
 40
0.0532150776053215
 40
0.0532150776053215
 40
0.0532150776053215
 40
0.0554323725055432
 40
0.0554323725055432
 40
0.0554323725055432
 40
0.0554323725055432
 40
0.057649667405765
 40
0.057649667405765
 40
0.057649667405765
 40
0.057649667405765
 40
0.0598669623059867
 40
0.0598669623059867
 40
0.0598669623059867
 40
0.0598669623059867
 40
0.0620842572062084
 40
0.0620842572062084
 40
0.0620842572062084
 40
0.0620842572062084
 40
0.0643015521064302
 40
0.0643015521064302
 40
0.0643015521064302
 40
0.0643015521064302
 40
0.0665188470066519
 40
0.0665188470066519
 40
0.0665188470066519
 40
0.0665188470066519
 40
0.0687361419068736
 40
0.0687361419068736
 40
0.0687361419068736
 40
0.0687361419068736
 40
0.0709534368070953
 40
0.0709534368070953
 40
0.0709534368070953
 40
0.0709534368070953
 40
0.0731707317073171
 40
0.0731707317073171
 40
0.0731707317073171
 40
0.0731707317073171
 40
0.0753880266075388
 40
0.0753880266075388
 40
0.0753880266075388
 40
0.0753880266075388
 40
0.0776053215077605
 40
0.0776053215077605
 40
0.0776053215077605
 40
0.0776053215077605
 40
0.0798226164079823
 40
0.0798226164079823
 40
0.0798226164079823
 40
0.0798226164079823
 40
0.082039911308204
 40
0.082039911308204
 40
0.082039911308204
 40
0.082039911308204
 40
0.0842572062084257
 40
0.0842572062084257
 40
0.0842572062084257
 40
0.0842572062084257
 40
0.0864745011086474
 40
0.0864745011086474
 40
0.0864745011086474
 40
0.0864745011086474
 40
0.0886917960088692
 40
0.0886917960088692
 40
0.0886917960088692
 40
0.0886917960088692
 40
0.0909090909090909
 40
0.0909090909090909
 40
0.0909090909090909
 40
0.0909090909090909
 40
0.0931263858093126
 40
0.0931263858093126
 40
0.0931263858093126
 40
0.0931263858093126
 40
0.0953436807095344
 40
0.0953436807095344
 40
0.0953436807095344
 40
0.0953436807095344
 40
0.0975609756097561
 40
0.0975609756097561
 40
0.0975609756097561
 40
0.0975609756097561
 40
0.0997782705099778
 40
0.0997782705099778
 40
0.0997782705099778
 40
0.0997782705099778
 40
0.1019955654101996
 40
0.1019955654101996
 40
0.1019955654101996
 40
0.1019955654101996
 40
0.1042128603104213
 40
0.1042128603104213
 40
0.1042128603104213
 40
0.1042128603104213
 40
0.106430155210643
 40
0.106430155210643
 40
0.106430155210643
 40
0.106430155210643
 40
0.1086474501108647
 40
0.1086474501108647
 40
0.1086474501108647
 40
0.1086474501108647
 40
0.1108647450110865
 40
0.1108647450110865
 40
0.1108647450110865
 40
0.1108647450110865
 40
0.1130820399113082
 40
0.1130820399113082
 40
0.1130820399113082
 40
0.1130820399113082
 40
0.1152993348115299
 40
0.1152993348115299
 40
0.1152993348115299
 40
0.1152993348115299
 40
0.1175166297117517
 40
0.1175166297117517
 40
0.1175166297117517
 40
0.1175166297117517
 40
0.1197339246119734
 40
0.1197339246119734
 40
0.1197339246119734
 40
0.1197339246119734
 40
0.1219512195121951
 40
0.1219512195121951
 40
0.1219512195121951
 40
0.1219512195121951
 40
0.1241685144124169
 40
0.1241685144124169
 40
0.1241685144124169
 40
0.1241685144124169
 40
0.1263858093126386
 40
0.1263858093126386
 40
0.1263858093126386
 40
0.1263858093126386
 40
0.1286031042128603
 40
0.1286031042128603
 40
0.1286031042128603
 40
0.1286031042128603
 40
0.130820399113082
 40
0.130820399113082
 40
0.130820399113082
 40
0.130820399113082
 40
0.1330376940133038
 40
0.1330376940133038
 40
0.1330376940133038
 40
0.1330376940133038
 40
0.1352549889135255
 40
0.1352549889135255
 40
0.1352549889135255
 40
0.1352549889135255
 40
0.1374722838137472
 40
0.1374722838137472
 40
0.1374722838137472
 40
0.1374722838137472
 40
0.1396895787139689
 40
0.1396895787139689
 40
0.1396895787139689
 40
0.1396895787139689
 40
0.1419068736141907
 40
0.1419068736141907
 40
0.1419068736141907
 40
0.1419068736141907
 40
0.1441241685144124
 40
0.1441241685144124
 40
0.1441241685144124
 40
0.1441241685144124
 40
0.1463414634146341
 40
0.1463414634146341
 40
0.1463414634146341
 40
0.1463414634146341
 40
0.1485587583148559
 40
0.1485587583148559
 40
0.1485587583148559
 40
0.1485587583148559
 40
0.1507760532150776
 40
0.1507760532150776
 40
0.1507760532150776
 40
0.1507760532150776
 40
0.1529933481152993
 40
0.1529933481152993
 40
0.1529933481152993
 40
0.1529933481152993
 40
0.1552106430155211
 40
0.1552106430155211
 40
0.1552106430155211
 40
0.1552106430155211
 40
0.1574279379157428
 40
0.1574279379157428
 40
0.1574279379157428
 40
0.1574279379157428
 40
0.1596452328159645
 40
0.1596452328159645
 40
0.1596452328159645
 40
0.1596452328159645
 40
0.1618625277161863
 40
0.1618625277161863
 40
0.1618625277161863
 40
0.1618625277161863
 40
0.164079822616408
 40
0.164079822616408
 40
0.164079822616408
 40
0.164079822616408
 40
0.1662971175166297
 40
0.1662971175166297
 40
0.1662971175166297
 40
0.1662971175166297
 40
0.1685144124168514
 40
0.1685144124168514
 40
0.1685144124168514
 40
0.1685144124168514
 40
0.1707317073170732
 40
0.1707317073170732
 40
0.1707317073170732
 40
0.1707317073170732
 40
0.1729490022172949
 40
0.1729490022172949
 40
0.1729490022172949
 40
0.1729490022172949
 40
0.1751662971175166
 40
0.1751662971175166
 40
0.1751662971175166
 40
0.1751662971175166
 40
0.1773835920177384
 40
0.1773835920177384
 40
0.1773835920177384
 40
0.1773835920177384
 40
0.1796008869179601
 40
0.1796008869179601
 40
0.1796008869179601
 40
0.1796008869179601
 40
0.1818181818181818
 40
0.1818181818181818
 40
0.1818181818181818
 40
0.1818181818181818
 40
0.1840354767184035
 40
0.1840354767184035
 40
0.1840354767184035
 40
0.1840354767184035
 40
0.1862527716186253
 40
0.1862527716186253
 40
0.1862527716186253
 40
0.1862527716186253
 40
0.188470066518847
 40
0.188470066518847
 40
0.188470066518847
 40
0.188470066518847
 40
0.1906873614190687
 40
0.1906873614190687
 40
0.1906873614190687
 40
0.1906873614190687
 40
0.1929046563192905
 40
0.1929046563192905
 40
0.1929046563192905
 40
0.1929046563192905
 40
0.1951219512195122
 40
0.1951219512195122
 40
0.1951219512195122
 40
0.1951219512195122
 40
0.1973392461197339
 40
0.1973392461197339
 40
0.1973392461197339
 40
0.1973392461197339
 40
0.1995565410199557
 40
0.1995565410199557
 40
0.1995565410199557
 40
0.1995565410199557
 40
0.2017738359201774
 40
0.2017738359201774
 40
0.2017738359201774
 40
0.2017738359201774
 40
0.2039911308203991
 40
0.2039911308203991
 40
0.2039911308203991
 40
0.2039911308203991
 40
0.2062084257206208
 40
0.2062084257206208
 40
0.2062084257206208
 40
0.2062084257206208
 40
0.2084257206208426
 40
0.2084257206208426
 40
0.2084257206208426
 40
0.2084257206208426
 40
0.2106430155210643
 40
0.2106430155210643
 40
0.2106430155210643
 40
0.2106430155210643
 40
0.212860310421286
 40
0.212860310421286
 40
0.212860310421286
 40
0.212860310421286
 40
0.2150776053215078
 40
0.2150776053215078
 40
0.2150776053215078
 40
0.2150776053215078
 40
0.2172949002217295
 40
0.2172949002217295
 40
0.2172949002217295
 40
0.2172949002217295
 40
0.2195121951219512
 40
0.2195121951219512
 40
0.2195121951219512
 40
0.2195121951219512
 40
0.221729490022173
 40
0.221729490022173
 40
0.221729490022173
 40
0.221729490022173
 40
0.2239467849223947
 40
0.2239467849223947
 40
0.2239467849223947
 40
0.2239467849223947
 40
0.2261640798226164
 40
0.2261640798226164
 40
0.2261640798226164
 40
0.2261640798226164
 40
0.2283813747228381
 40
0.2283813747228381
 40
0.2283813747228381
 40
0.2283813747228381
 40
0.2305986696230599
 40
0.2305986696230599
 40
0.2305986696230599
 40
0.2305986696230599
 40
0.2328159645232816
 40
0.2328159645232816
 40
0.2328159645232816
 40
0.2328159645232816
 40
0.2350332594235033
 40
0.2350332594235033
 40
0.2350332594235033
 40
0.2350332594235033
 40
0.237250554323725
 40
0.237250554323725
 40
0.237250554323725
 40
0.237250554323725
 40
0.2394678492239468
 40
0.2394678492239468
 40
0.2394678492239468
 40
0.2394678492239468
 40
0.2416851441241685
 40
0.2416851441241685
 40
0.2416851441241685
 40
0.2416851441241685
 40
0.2439024390243902
 40
0.2439024390243902
 40
0.2439024390243902
 40
0.2439024390243902
 40
0.246119733924612
 40
0.246119733924612
 40
0.246119733924612
 40
0.246119733924612
 40
0.2483370288248337
 40
0.2483370288248337
 40
0.2483370288248337
 40
0.2483370288248337
 40
0.2505543237250554
 40
0.2505543237250554
 40
0.2505543237250554
 40
0.2505543237250554
 40
0.2527716186252771
 40
0.2527716186252771
 40
0.2527716186252771
 40
0.2527716186252771
 40
0.2549889135254989
 40
0.2549889135254989
 40
0.2549889135254989
 40
0.2549889135254989
 40
0.2572062084257206
 40
0.2572062084257206
 40
0.2572062084257206
 40
0.2572062084257206
 40
0.2594235033259423
 40
0.2594235033259423
 40
0.2594235033259423
 40
0.2594235033259423
 40
0.2616407982261641
 40
0.2616407982261641
 40
0.2616407982261641
 40
0.2616407982261641
 40
0.2638580931263858
 40
0.2638580931263858
 40
0.2638580931263858
 40
0.2638580931263858
 40
0.2660753880266075
 40
0.2660753880266075
 40
0.2660753880266075
 40
0.2660753880266075
 40
0.2682926829268293
 40
0.2682926829268293
 40
0.2682926829268293
 40
0.2682926829268293
 40
0.270509977827051
 40
0.270509977827051
 40
0.270509977827051
 40
0.270509977827051
 40
0.2727272727272727
 40
0.2727272727272727
 40
0.2727272727272727
 40
0.2727272727272727
 40
0.2749445676274945
 40
0.2749445676274945
 40
0.2749445676274945
 40
0.2749445676274945
 40
0.2771618625277162
 40
0.2771618625277162
 40
0.2771618625277162
 40
0.2771618625277162
 40
0.2793791574279379
 40
0.2793791574279379
 40
0.2793791574279379
 40
0.2793791574279379
 40
0.2815964523281597
 40
0.2815964523281597
 40
0.2815964523281597
 40
0.2815964523281597
 40
0.2838137472283814
 40
0.2838137472283814
 40
0.2838137472283814
 40
0.2838137472283814
 40
0.2860310421286031
 40
0.2860310421286031
 40
0.2860310421286031
 40
0.2860310421286031
 40
0.2882483370288249
 40
0.2882483370288249
 40
0.2882483370288249
 40
0.2882483370288249
 40
0.2904656319290466
 40
0.2904656319290466
 40
0.2904656319290466
 40
0.2904656319290466
 40
0.2926829268292683
 40
0.2926829268292683
 40
0.2926829268292683
 40
0.2926829268292683
 40
0.29490022172949
 40
0.29490022172949
 40
0.29490022172949
 40
0.29490022172949
 40
0.2971175166297118
 40
0.2971175166297118
 40
0.2971175166297118
 40
0.2971175166297118
 40
0.2993348115299335
 40
0.2993348115299335
 40
0.2993348115299335
 40
0.2993348115299335
 40
0.3015521064301552
 40
0.3015521064301552
 40
0.3015521064301552
 40
0.3015521064301552
 40
0.3037694013303769
 40
0.3037694013303769
 40
0.3037694013303769
 40
0.3037694013303769
 40
0.3059866962305987
 40
0.3059866962305987
 40
0.3059866962305987
 40
0.3059866962305987
 40
0.3082039911308204
 40
0.3082039911308204
 40
0.3082039911308204
 40
0.3082039911308204
 40
0.3104212860310421
 40
0.3104212860310421
 40
0.3104212860310421
 40
0.3104212860310421
 40
0.3126385809312638
 40
0.3126385809312638
 40
0.3126385809312638
 40
0.3126385809312638
 40
0.3148558758314856
 40
0.3148558758314856
 40
0.3148558758314856
 40
0.3148558758314856
 40
0.3170731707317073
 40
0.3170731707317073
 40
0.3170731707317073
 40
0.3170731707317073
 40
0.319290465631929
 40
0.319290465631929
 40
0.319290465631929
 40
0.319290465631929
 40
0.3215077605321508
 40
0.3215077605321508
 40
0.3215077605321508
 40
0.3215077605321508
 40
0.3237250554323725
 40
0.3237250554323725
 40
0.3237250554323725
 40
0.3237250554323725
 40
0.3259423503325942
 40
0.3259423503325942
 40
0.3259423503325942
 40
0.3259423503325942
 40
0.328159645232816
 40
0.328159645232816
 40
0.328159645232816
 40
0.328159645232816
 40
0.3303769401330377
 40
0.3303769401330377
 40
0.3303769401330377
 40
0.3303769401330377
 40
0.3325942350332594
 40
0.3325942350332594
 40
0.3325942350332594
 40
0.3325942350332594
 40
0.3348115299334812
 40
0.3348115299334812
 40
0.3348115299334812
 40
0.3348115299334812
 40
0.3370288248337029
 40
0.3370288248337029
 40
0.3370288248337029
 40
0.3370288248337029
 40
0.3392461197339246
 40
0.3392461197339246
 40
0.3392461197339246
 40
0.3392461197339246
 40
0.3414634146341464
 40
0.3414634146341464
 40
0.3414634146341464
 40
0.3414634146341464
 40
0.3436807095343681
 40
0.3436807095343681
 40
0.3436807095343681
 40
0.3436807095343681
 40
0.3458980044345898
 40
0.3458980044345898
 40
0.3458980044345898
 40
0.3458980044345898
 40
0.3481152993348116
 40
0.3481152993348116
 40
0.3481152993348116
 40
0.3481152993348116
 40
0.3503325942350333
 40
0.3503325942350333
 40
0.3503325942350333
 40
0.3503325942350333
 40
0.352549889135255
 40
0.352549889135255
 40
0.352549889135255
 40
0.352549889135255
 40
0.3547671840354767
 40
0.3547671840354767
 40
0.3547671840354767
 40
0.3547671840354767
 40
0.3569844789356985
 40
0.3569844789356985
 40
0.3569844789356985
 40
0.3569844789356985
 40
0.3592017738359202
 40
0.3592017738359202
 40
0.3592017738359202
 40
0.3592017738359202
 40
0.3614190687361419
 40
0.3614190687361419
 40
0.3614190687361419
 40
0.3614190687361419
 40
0.3636363636363636
 40
0.3636363636363636
 40
0.3636363636363636
 40
0.3636363636363636
 40
0.3658536585365854
 40
0.3658536585365854
 40
0.3658536585365854
 40
0.3658536585365854
 40
0.3680709534368071
 40
0.3680709534368071
 40
0.3680709534368071
 40
0.3680709534368071
 40
0.3702882483370288
 40
0.3702882483370288
 40
0.3702882483370288
 40
0.3702882483370288
 40
0.3725055432372505
 40
0.3725055432372505
 40
0.3725055432372505
 40
0.3725055432372505
 40
0.3747228381374723
 40
0.3747228381374723
 40
0.3747228381374723
 40
0.3747228381374723
 40
0.376940133037694
 40
0.376940133037694
 40
0.376940133037694
 40
0.376940133037694
 40
0.3791574279379157
 40
0.3791574279379157
 40
0.3791574279379157
 40
0.3791574279379157
 40
0.3813747228381374
 40
0.3813747228381374
 40
0.3813747228381374
 40
0.3813747228381374
 40
0.3835920177383592
 40
0.3835920177383592
 40
0.3835920177383592
 40
0.3835920177383592
 40
0.3858093126385809
 40
0.3858093126385809
 40
0.3858093126385809
 40
0.3858093126385809
 40
0.3880266075388026
 40
0.3880266075388026
 40
0.3880266075388026
 40
0.3880266075388026
 40
0.3902439024390244
 40
0.3902439024390244
 40
0.3902439024390244
 40
0.3902439024390244
 40
0.3924611973392461
 40
0.3924611973392461
 40
0.3924611973392461
 40
0.3924611973392461
 40
0.3946784922394678
 40
0.3946784922394678
 40
0.3946784922394678
 40
0.3946784922394678
 40
0.3968957871396896
 40
0.3968957871396896
 40
0.3968957871396896
 40
0.3968957871396896
 40
0.3991130820399113
 40
0.3991130820399113
 40
0.3991130820399113
 40
0.3991130820399113
 40
0.401330376940133
 40
0.401330376940133
 40
0.401330376940133
 40
0.401330376940133
 40
0.4035476718403548
 40
0.4035476718403548
 40
0.4035476718403548
 40
0.4035476718403548
 40
0.4057649667405765
 40
0.4057649667405765
 40
0.4057649667405765
 40
0.4057649667405765
 40
0.4079822616407982
 40
0.4079822616407982
 40
0.4079822616407982
 40
0.4079822616407982
 40
0.41019955654102
 40
0.41019955654102
 40
0.41019955654102
 40
0.41019955654102
 40
0.4124168514412417
 40
0.4124168514412417
 40
0.4124168514412417
 40
0.4124168514412417
 40
0.4146341463414634
 40
0.4146341463414634
 40
0.4146341463414634
 40
0.4146341463414634
 40
0.4168514412416852
 40
0.4168514412416852
 40
0.4168514412416852
 40
0.4168514412416852
 40
0.4190687361419069
 40
0.4190687361419069
 40
0.4190687361419069
 40
0.4190687361419069
 40
0.4212860310421286
 40
0.4212860310421286
 40
0.4212860310421286
 40
0.4212860310421286
 40
0.4235033259423504
 40
0.4235033259423504
 40
0.4235033259423504
 40
0.4235033259423504
 40
0.4257206208425721
 40
0.4257206208425721
 40
0.4257206208425721
 40
0.4257206208425721
 40
0.4279379157427938
 40
0.4279379157427938
 40
0.4279379157427938
 40
0.4279379157427938
 40
0.4301552106430155
 40
0.4301552106430155
 40
0.4301552106430155
 40
0.4301552106430155
 40
0.4323725055432373
 40
0.4323725055432373
 40
0.4323725055432373
 40
0.4323725055432373
 40
0.434589800443459
 40
0.434589800443459
 40
0.434589800443459
 40
0.434589800443459
 40
0.4368070953436807
 40
0.4368070953436807
 40
0.4368070953436807
 40
0.4368070953436807
 40
0.4390243902439024
 40
0.4390243902439024
 40
0.4390243902439024
 40
0.4390243902439024
 40
0.4412416851441242
 40
0.4412416851441242
 40
0.4412416851441242
 40
0.4412416851441242
 40
0.4434589800443459
 40
0.4434589800443459
 40
0.4434589800443459
 40
0.4434589800443459
 40
0.4456762749445676
 40
0.4456762749445676
 40
0.4456762749445676
 40
0.4456762749445676
 40
0.4478935698447893
 40
0.4478935698447893
 40
0.4478935698447893
 40
0.4478935698447893
 40
0.4501108647450111
 40
0.4501108647450111
 40
0.4501108647450111
 40
0.4501108647450111
 40
0.4523281596452328
 40
0.4523281596452328
 40
0.4523281596452328
 40
0.4523281596452328
 40
0.4545454545454545
 40
0.4545454545454545
 40
0.4545454545454545
 40
0.4545454545454545
 40
0.4567627494456763
 40
0.4567627494456763
 40
0.4567627494456763
 40
0.4567627494456763
 40
0.458980044345898
 40
0.458980044345898
 40
0.458980044345898
 40
0.458980044345898
 40
0.4611973392461197
 40
0.4611973392461197
 40
0.4611973392461197
 40
0.4611973392461197
 40
0.4634146341463415
 40
0.4634146341463415
 40
0.4634146341463415
 40
0.4634146341463415
 40
0.4656319290465632
 40
0.4656319290465632
 40
0.4656319290465632
 40
0.4656319290465632
 40
0.4678492239467849
 40
0.4678492239467849
 40
0.4678492239467849
 40
0.4678492239467849
 40
0.4700665188470067
 40
0.4700665188470067
 40
0.4700665188470067
 40
0.4700665188470067
 40
0.4722838137472284
 40
0.4722838137472284
 40
0.4722838137472284
 40
0.4722838137472284
 40
0.4745011086474501
 40
0.4745011086474501
 40
0.4745011086474501
 40
0.4745011086474501
 40
0.4767184035476719
 40
0.4767184035476719
 40
0.4767184035476719
 40
0.4767184035476719
 40
0.4789356984478936
 40
0.4789356984478936
 40
0.4789356984478936
 40
0.4789356984478936
 40
0.4811529933481153
 40
0.4811529933481153
 40
0.4811529933481153
 40
0.4811529933481153
 40
0.4833702882483371
 40
0.4833702882483371
 40
0.4833702882483371
 40
0.4833702882483371
 40
0.4855875831485588
 40
0.4855875831485588
 40
0.4855875831485588
 40
0.4855875831485588
 40
0.4878048780487805
 40
0.4878048780487805
 40
0.4878048780487805
 40
0.4878048780487805
 40
0.4900221729490022
 40
0.4900221729490022
 40
0.4900221729490022
 40
0.4900221729490022
 40
0.492239467849224
 40
0.492239467849224
 40
0.492239467849224
 40
0.492239467849224
 40
0.4944567627494457
 40
0.4944567627494457
 40
0.4944567627494457
 40
0.4944567627494457
 40
0.4966740576496674
 40
0.4966740576496674
 40
0.4966740576496674
 40
0.4966740576496674
 40
0.4988913525498891
 40
0.4988913525498891
 40
0.4988913525498891
 40
0.4988913525498891
 40
0.5011086474501109
 40
0.5011086474501109
 40
0.5011086474501109
 40
0.5011086474501109
 40
0.5033259423503326
 40
0.5033259423503326
 40
0.5033259423503326
 40
0.5033259423503326
 40
0.5055432372505543
 40
0.5055432372505543
 40
0.5055432372505543
 40
0.5055432372505543
 40
0.5077605321507761
 40
0.5077605321507761
 40
0.5077605321507761
 40
0.5077605321507761
 40
0.5099778270509978
 40
0.5099778270509978
 40
0.5099778270509978
 40
0.5099778270509978
 40
0.5121951219512195
 40
0.5121951219512195
 40
0.5121951219512195
 40
0.5121951219512195
 40
0.5144124168514412
 40
0.5144124168514412
 40
0.5144124168514412
 40
0.5144124168514412
 40
0.516629711751663
 40
0.516629711751663
 40
0.516629711751663
 40
0.516629711751663
 40
0.5188470066518847
 40
0.5188470066518847
 40
0.5188470066518847
 40
0.5188470066518847
 40
0.5210643015521065
 40
0.5210643015521065
 40
0.5210643015521065
 40
0.5210643015521065
 40
0.5232815964523282
 40
0.5232815964523282
 40
0.5232815964523282
 40
0.5232815964523282
 40
0.5254988913525499
 40
0.5254988913525499
 40
0.5254988913525499
 40
0.5254988913525499
 40
0.5277161862527716
 40
0.5277161862527716
 40
0.5277161862527716
 40
0.5277161862527716
 40
0.5299334811529933
 40
0.5299334811529933
 40
0.5299334811529933
 40
0.5299334811529933
 40
0.532150776053215
 40
0.532150776053215
 40
0.532150776053215
 40
0.532150776053215
 40
0.5343680709534369
 40
0.5343680709534369
 40
0.5343680709534369
 40
0.5343680709534369
 40
0.5365853658536586
 40
0.5365853658536586
 40
0.5365853658536586
 40
0.5365853658536586
 40
0.5388026607538803
 40
0.5388026607538803
 40
0.5388026607538803
 40
0.5388026607538803
 40
0.541019955654102
 40
0.541019955654102
 40
0.541019955654102
 40
0.541019955654102
 40
0.5432372505543237
 40
0.5432372505543237
 40
0.5432372505543237
 40
0.5432372505543237
 40
0.5454545454545454
 40
0.5454545454545454
 40
0.5454545454545454
 40
0.5454545454545454
 40
0.5476718403547672
 40
0.5476718403547672
 40
0.5476718403547672
 40
0.5476718403547672
 40
0.549889135254989
 40
0.549889135254989
 40
0.549889135254989
 40
0.549889135254989
 40
0.5521064301552107
 40
0.5521064301552107
 40
0.5521064301552107
 40
0.5521064301552107
 40
0.5543237250554324
 40
0.5543237250554324
 40
0.5543237250554324
 40
0.5543237250554324
 40
0.5565410199556541
 40
0.5565410199556541
 40
0.5565410199556541
 40
0.5565410199556541
 40
0.5587583148558758
 40
0.5587583148558758
 40
0.5587583148558758
 40
0.5587583148558758
 40
0.5609756097560976
 40
0.5609756097560976
 40
0.5609756097560976
 40
0.5609756097560976
 40
0.5631929046563193
 40
0.5631929046563193
 40
0.5631929046563193
 40
0.5631929046563193
 40
0.565410199556541
 40
0.565410199556541
 40
0.565410199556541
 40
0.565410199556541
 40
0.5676274944567627
 40
0.5676274944567627
 40
0.5676274944567627
 40
0.5676274944567627
 40
0.5698447893569845
 40
0.5698447893569845
 40
0.5698447893569845
 40
0.5698447893569845
 40
0.5720620842572062
 40
0.5720620842572062
 40
0.5720620842572062
 40
0.5720620842572062
 40
0.5742793791574279
 40
0.5742793791574279
 40
0.5742793791574279
 40
0.5742793791574279
 40
0.5764966740576497
 40
0.5764966740576497
 40
0.5764966740576497
 40
0.5764966740576497
 40
0.5787139689578714
 40
0.5787139689578714
 40
0.5787139689578714
 40
0.5787139689578714
 40
0.5809312638580931
 40
0.5809312638580931
 40
0.5809312638580931
 40
0.5809312638580931
 40
0.5831485587583148
 40
0.5831485587583148
 40
0.5831485587583148
 40
0.5831485587583148
 40
0.5853658536585366
 40
0.5853658536585366
 40
0.5853658536585366
 40
0.5853658536585366
 40
0.5875831485587583
 40
0.5875831485587583
 40
0.5875831485587583
 40
0.5875831485587583
 40
0.5898004434589801
 40
0.5898004434589801
 40
0.5898004434589801
 40
0.5898004434589801
 40
0.5920177383592018
 40
0.5920177383592018
 40
0.5920177383592018
 40
0.5920177383592018
 40
0.5942350332594235
 40
0.5942350332594235
 40
0.5942350332594235
 40
0.5942350332594235
 40
0.5964523281596452
 40
0.5964523281596452
 40
0.5964523281596452
 40
0.5964523281596452
 40
0.5986696230598669
 40
0.5986696230598669
 40
0.5986696230598669
 40
0.5986696230598669
 40
0.6008869179600886
 40
0.6008869179600886
 40
0.6008869179600886
 40
0.6008869179600886
 40
0.6031042128603105
 40
0.6031042128603105
 40
0.6031042128603105
 40
0.6031042128603105
 40
0.6053215077605322
 40
0.6053215077605322
 40
0.6053215077605322
 40
0.6053215077605322
 40
0.6075388026607539
 40
0.6075388026607539
 40
0.6075388026607539
 40
0.6075388026607539
 40
0.6097560975609756
 40
0.6097560975609756
 40
0.6097560975609756
 40
0.6097560975609756
 40
0.6119733924611973
 40
0.6119733924611973
 40
0.6119733924611973
 40
0.6119733924611973
 40
0.614190687361419
 40
0.614190687361419
 40
0.614190687361419
 40
0.614190687361419
 40
0.6164079822616408
 40
0.6164079822616408
 40
0.6164079822616408
 40
0.6164079822616408
 40
0.6186252771618626
 40
0.6186252771618626
 40
0.6186252771618626
 40
0.6186252771618626
 40
0.6208425720620843
 40
0.6208425720620843
 40
0.6208425720620843
 40
0.6208425720620843
 40
0.623059866962306
 40
0.623059866962306
 40
0.623059866962306
 40
0.623059866962306
 40
0.6252771618625277
 40
0.6252771618625277
 40
0.6252771618625277
 40
0.6252771618625277
 40
0.6274944567627494
 40
0.6274944567627494
 40
0.6274944567627494
 40
0.6274944567627494
 40
0.6297117516629712
 40
0.6297117516629712
 40
0.6297117516629712
 40
0.6297117516629712
 40
0.6319290465631929
 40
0.6319290465631929
 40
0.6319290465631929
 40
0.6319290465631929
 40
0.6341463414634146
 40
0.6341463414634146
 40
0.6341463414634146
 40
0.6341463414634146
 40
0.6363636363636364
 40
0.6363636363636364
 40
0.6363636363636364
 40
0.6363636363636364
 40
0.6385809312638581
 40
0.6385809312638581
 40
0.6385809312638581
 40
0.6385809312638581
 40
0.6407982261640798
 40
0.6407982261640798
 40
0.6407982261640798
 40
0.6407982261640798
 40
0.6430155210643016
 40
0.6430155210643016
 40
0.6430155210643016
 40
0.6430155210643016
 40
0.6452328159645233
 40
0.6452328159645233
 40
0.6452328159645233
 40
0.6452328159645233
 40
0.647450110864745
 40
0.647450110864745
 40
0.647450110864745
 40
0.647450110864745
 40
0.6496674057649667
 40
0.6496674057649667
 40
0.6496674057649667
 40
0.6496674057649667
 40
0.6518847006651884
 40
0.6518847006651884
 40
0.6518847006651884
 40
0.6518847006651884
 40
0.6541019955654102
 40
0.6541019955654102
 40
0.6541019955654102
 40
0.6541019955654102
 40
0.656319290465632
 40
0.656319290465632
 40
0.656319290465632
 40
0.656319290465632
 40
0.6585365853658537
 40
0.6585365853658537
 40
0.6585365853658537
 40
0.6585365853658537
 40
0.6607538802660754
 40
0.6607538802660754
 40
0.6607538802660754
 40
0.6607538802660754
 40
0.6629711751662971
 40
0.6629711751662971
 40
0.6629711751662971
 40
0.6629711751662971
 40
0.6651884700665188
 40
0.6651884700665188
 40
0.6651884700665188
 40
0.6651884700665188
 40
0.6674057649667405
 40
0.6674057649667405
 40
0.6674057649667405
 40
0.6674057649667405
 40
0.6696230598669624
 40
0.6696230598669624
 40
0.6696230598669624
 40
0.6696230598669624
 40
0.6718403547671841
 40
0.6718403547671841
 40
0.6718403547671841
 40
0.6718403547671841
 40
0.6740576496674058
 40
0.6740576496674058
 40
0.6740576496674058
 40
0.6740576496674058
 40
0.6762749445676275
 40
0.6762749445676275
 40
0.6762749445676275
 40
0.6762749445676275
 40
0.6784922394678492
 40
0.6784922394678492
 40
0.6784922394678492
 40
0.6784922394678492
 40
0.6807095343680709
 40
0.6807095343680709
 40
0.6807095343680709
 40
0.6807095343680709
 40
0.6829268292682927
 40
0.6829268292682927
 40
0.6829268292682927
 40
0.6829268292682927
 40
0.6851441241685144
 40
0.6851441241685144
 40
0.6851441241685144
 40
0.6851441241685144
 40
0.6873614190687362
 40
0.6873614190687362
 40
0.6873614190687362
 40
0.6873614190687362
 40
0.6895787139689579
 40
0.6895787139689579
 40
0.6895787139689579
 40
0.6895787139689579
 40
0.6917960088691796
 40
0.6917960088691796
 40
0.6917960088691796
 40
0.6917960088691796
 40
0.6940133037694013
 40
0.6940133037694013
 40
0.6940133037694013
 40
0.6940133037694013
 40
0.6962305986696231
 40
0.6962305986696231
 40
0.6962305986696231
 40
0.6962305986696231
 40
0.6984478935698448
 40
0.6984478935698448
 40
0.6984478935698448
 40
0.6984478935698448
 40
0.7006651884700665
 40
0.7006651884700665
 40
0.7006651884700665
 40
0.7006651884700665
 40
0.7028824833702882
 40
0.7028824833702882
 40
0.7028824833702882
 40
0.7028824833702882
 40
0.70509977827051
 40
0.70509977827051
 40
0.70509977827051
 40
0.70509977827051
 40
0.7073170731707317
 40
0.7073170731707317
 40
0.7073170731707317
 40
0.7073170731707317
 40
0.7095343680709535
 40
0.7095343680709535
 40
0.7095343680709535
 40
0.7095343680709535
 40
0.7117516629711752
 40
0.7117516629711752
 40
0.7117516629711752
 40
0.7117516629711752
 40
0.7139689578713969
 40
0.7139689578713969
 40
0.7139689578713969
 40
0.7139689578713969
 40
0.7161862527716186
 40
0.7161862527716186
 40
0.7161862527716186
 40
0.7161862527716186
 40
0.7184035476718403
 40
0.7184035476718403
 40
0.7184035476718403
 40
0.7184035476718403
 40
0.720620842572062
 40
0.720620842572062
 40
0.720620842572062
 40
0.720620842572062
 40
0.7228381374722838
 40
0.7228381374722838
 40
0.7228381374722838
 40
0.7228381374722838
 40
0.7250554323725056
 40
0.7250554323725056
 40
0.7250554323725056
 40
0.7250554323725056
 40
0.7272727272727273
 40
0.7272727272727273
 40
0.7272727272727273
 40
0.7272727272727273
 40
0.729490022172949
 40
0.729490022172949
 40
0.729490022172949
 40
0.729490022172949
 40
0.7317073170731707
 40
0.7317073170731707
 40
0.7317073170731707
 40
0.7317073170731707
 40
0.7339246119733924
 40
0.7339246119733924
 40
0.7339246119733924
 40
0.7339246119733924
 40
0.7361419068736141
 40
0.7361419068736141
 40
0.7361419068736141
 40
0.7361419068736141
 40
0.738359201773836
 40
0.738359201773836
 40
0.738359201773836
 40
0.738359201773836
 40
0.7405764966740577
 40
0.7405764966740577
 40
0.7405764966740577
 40
0.7405764966740577
 40
0.7427937915742794
 40
0.7427937915742794
 40
0.7427937915742794
 40
0.7427937915742794
 40
0.7450110864745011
 40
0.7450110864745011
 40
0.7450110864745011
 40
0.7450110864745011
 40
0.7472283813747228
 40
0.7472283813747228
 40
0.7472283813747228
 40
0.7472283813747228
 40
0.7494456762749445
 40
0.7494456762749445
 40
0.7494456762749445
 40
0.7494456762749445
 40
0.7516629711751663
 40
0.7516629711751663
 40
0.7516629711751663
 40
0.7516629711751663
 40
0.753880266075388
 40
0.753880266075388
 40
0.753880266075388
 40
0.753880266075388
 40
0.7560975609756098
 40
0.7560975609756098
 40
0.7560975609756098
 40
0.7560975609756098
 40
0.7583148558758315
 40
0.7583148558758315
 40
0.7583148558758315
 40
0.7583148558758315
 40
0.7605321507760532
 40
0.7605321507760532
 40
0.7605321507760532
 40
0.7605321507760532
 40
0.7627494456762749
 40
0.7627494456762749
 40
0.7627494456762749
 40
0.7627494456762749
 40
0.7649667405764967
 40
0.7649667405764967
 40
0.7649667405764967
 40
0.7649667405764967
 40
0.7671840354767184
 40
0.7671840354767184
 40
0.7671840354767184
 40
0.7671840354767184
 40
0.7694013303769401
 40
0.7694013303769401
 40
0.7694013303769401
 40
0.7694013303769401
 40
0.7716186252771619
 40
0.7716186252771619
 40
0.7716186252771619
 40
0.7716186252771619
 40
0.7738359201773836
 40
0.7738359201773836
 40
0.7738359201773836
 40
0.7738359201773836
 40
0.7760532150776053
 40
0.7760532150776053
 40
0.7760532150776053
 40
0.7760532150776053
 40
0.7782705099778271
 40
0.7782705099778271
 40
0.7782705099778271
 40
0.7782705099778271
 40
0.7804878048780488
 40
0.7804878048780488
 40
0.7804878048780488
 40
0.7804878048780488
 40
0.7827050997782705
 40
0.7827050997782705
 40
0.7827050997782705
 40
0.7827050997782705
 40
0.7849223946784922
 40
0.7849223946784922
 40
0.7849223946784922
 40
0.7849223946784922
 40
0.7871396895787139
 40
0.7871396895787139
 40
0.7871396895787139
 40
0.7871396895787139
 40
0.7893569844789357
 40
0.7893569844789357
 40
0.7893569844789357
 40
0.7893569844789357
 40
0.7915742793791575
 40
0.7915742793791575
 40
0.7915742793791575
 40
0.7915742793791575
 40
0.7937915742793792
 40
0.7937915742793792
 40
0.7937915742793792
 40
0.7937915742793792
 40
0.7960088691796009
 40
0.7960088691796009
 40
0.7960088691796009
 40
0.7960088691796009
 40
0.7982261640798226
 40
0.7982261640798226
 40
0.7982261640798226
 40
0.7982261640798226
 40
0.8004434589800443
 40
0.8004434589800443
 40
0.8004434589800443
 40
0.8004434589800443
 40
0.802660753880266
 40
0.802660753880266
 40
0.802660753880266
 40
0.802660753880266
 40
0.8048780487804879
 40
0.8048780487804879
 40
0.8048780487804879
 40
0.8048780487804879
 40
0.8070953436807096
 40
0.8070953436807096
 40
0.8070953436807096
 40
0.8070953436807096
 40
0.8093126385809313
 40
0.8093126385809313
 40
0.8093126385809313
 40
0.8093126385809313
 40
0.811529933481153
 40
0.811529933481153
 40
0.811529933481153
 40
0.811529933481153
 40
0.8137472283813747
 40
0.8137472283813747
 40
0.8137472283813747
 40
0.8137472283813747
 40
0.8159645232815964
 40
0.8159645232815964
 40
0.8159645232815964
 40
0.8159645232815964
 40
0.8181818181818182
 40
0.8181818181818182
 40
0.8181818181818182
 40
0.8181818181818182
 40
0.8203991130820399
 40
0.8203991130820399
 40
0.8203991130820399
 40
0.8203991130820399
 40
0.8226164079822617
 40
0.8226164079822617
 40
0.8226164079822617
 40
0.8226164079822617
 40
0.8248337028824834
 40
0.8248337028824834
 40
0.8248337028824834
 40
0.8248337028824834
 40
0.8270509977827051
 40
0.8270509977827051
 40
0.8270509977827051
 40
0.8270509977827051
 40
0.8292682926829268
 40
0.8292682926829268
 40
0.8292682926829268
 40
0.8292682926829268
 40
0.8314855875831486
 40
0.8314855875831486
 40
0.8314855875831486
 40
0.8314855875831486
 40
0.8337028824833703
 40
0.8337028824833703
 40
0.8337028824833703
 40
0.8337028824833703
 40
0.835920177383592
 40
0.835920177383592
 40
0.835920177383592
 40
0.835920177383592
 40
0.8381374722838137
 40
0.8381374722838137
 40
0.8381374722838137
 40
0.8381374722838137
 40
0.8403547671840355
 40
0.8403547671840355
 40
0.8403547671840355
 40
0.8403547671840355
 40
0.8425720620842572
 40
0.8425720620842572
 40
0.8425720620842572
 40
0.8425720620842572
 40
0.844789356984479
 40
0.844789356984479
 40
0.844789356984479
 40
0.844789356984479
 40
0.8470066518847007
 40
0.8470066518847007
 40
0.8470066518847007
 40
0.8470066518847007
 40
0.8492239467849224
 40
0.8492239467849224
 40
0.8492239467849224
 40
0.8492239467849224
 40
0.8514412416851441
 40
0.8514412416851441
 40
0.8514412416851441
 40
0.8514412416851441
 40
0.8536585365853658
 40
0.8536585365853658
 40
0.8536585365853658
 40
0.8536585365853658
 40
0.8558758314855875
 40
0.8558758314855875
 40
0.8558758314855875
 40
0.8558758314855875
 40
0.8580931263858093
 40
0.8580931263858093
 40
0.8580931263858093
 40
0.8580931263858093
 40
0.8603104212860311
 40
0.8603104212860311
 40
0.8603104212860311
 40
0.8603104212860311
 40
0.8625277161862528
 40
0.8625277161862528
 40
0.8625277161862528
 40
0.8625277161862528
 40
0.8647450110864745
 40
0.8647450110864745
 40
0.8647450110864745
 40
0.8647450110864745
 40
0.8669623059866962
 40
0.8669623059866962
 40
0.8669623059866962
 40
0.8669623059866962
 40
0.8691796008869179
 40
0.8691796008869179
 40
0.8691796008869179
 40
0.8691796008869179
 40
0.8713968957871396
 40
0.8713968957871396
 40
0.8713968957871396
 40
0.8713968957871396
 40
0.8736141906873615
 40
0.8736141906873615
 40
0.8736141906873615
 40
0.8736141906873615
 40
0.8758314855875832
 40
0.8758314855875832
 40
0.8758314855875832
 40
0.8758314855875832
 40
0.8780487804878049
 40
0.8780487804878049
 40
0.8780487804878049
 40
0.8780487804878049
 40
0.8802660753880266
 40
0.8802660753880266
 40
0.8802660753880266
 40
0.8802660753880266
 40
0.8824833702882483
 40
0.8824833702882483
 40
0.8824833702882483
 40
0.8824833702882483
 40
0.88470066518847
 40
0.88470066518847
 40
0.88470066518847
 40
0.88470066518847
 40
0.8869179600886918
 40
0.8869179600886918
 40
0.8869179600886918
 40
0.8869179600886918
 40
0.8891352549889135
 40
0.8891352549889135
 40
0.8891352549889135
 40
0.8891352549889135
 40
0.8913525498891353
 40
0.8913525498891353
 40
0.8913525498891353
 40
0.8913525498891353
 40
0.893569844789357
 40
0.893569844789357
 40
0.893569844789357
 40
0.893569844789357
 40
0.8957871396895787
 40
0.8957871396895787
 40
0.8957871396895787
 40
0.8957871396895787
 40
0.8980044345898004
 40
0.8980044345898004
 40
0.8980044345898004
 40
0.8980044345898004
 40
0.9002217294900222
 40
0.9002217294900222
 40
0.9002217294900222
 40
0.9002217294900222
 40
0.9024390243902439
 40
0.9024390243902439
 40
0.9024390243902439
 40
0.9024390243902439
 40
0.9046563192904656
 40
0.9046563192904656
 40
0.9046563192904656
 40
0.9046563192904656
 40
0.9068736141906873
 40
0.9068736141906873
 40
0.9068736141906873
 40
0.9068736141906873
 40
0.9090909090909091
 40
0.9090909090909091
 40
0.9090909090909091
 40
0.9090909090909091
 40
0.9113082039911308
 40
0.9113082039911308
 40
0.9113082039911308
 40
0.9113082039911308
 40
0.9135254988913526
 40
0.9135254988913526
 40
0.9135254988913526
 40
0.9135254988913526
 40
0.9157427937915743
 40
0.9157427937915743
 40
0.9157427937915743
 40
0.9157427937915743
 40
0.917960088691796
 40
0.917960088691796
 40
0.917960088691796
 40
0.917960088691796
 40
0.9201773835920177
 40
0.9201773835920177
 40
0.9201773835920177
 40
0.9201773835920177
 40
0.9223946784922394
 40
0.9223946784922394
 40
0.9223946784922394
 40
0.9223946784922394
 40
0.9246119733924612
 40
0.9246119733924612
 40
0.9246119733924612
 40
0.9246119733924612
 40
0.926829268292683
 40
0.926829268292683
 40
0.926829268292683
 40
0.926829268292683
 40
0.9290465631929047
 40
0.9290465631929047
 40
0.9290465631929047
 40
0.9290465631929047
 40
0.9312638580931264
 40
0.9312638580931264
 40
0.9312638580931264
 40
0.9312638580931264
 40
0.9334811529933481
 40
0.9334811529933481
 40
0.9334811529933481
 40
0.9334811529933481
 40
0.9356984478935698
 40
0.9356984478935698
 40
0.9356984478935698
 40
0.9356984478935698
 40
0.9379157427937915
 40
0.9379157427937915
 40
0.9379157427937915
 40
0.9379157427937915
 40
0.9401330376940134
 40
0.9401330376940134
 40
0.9401330376940134
 40
0.9401330376940134
 40
0.9423503325942351
 40
0.9423503325942351
 40
0.9423503325942351
 40
0.9423503325942351
 40
0.9445676274944568
 40
0.9445676274944568
 40
0.9445676274944568
 40
0.9445676274944568
 40
0.9467849223946785
 40
0.9467849223946785
 40
0.9467849223946785
 40
0.9467849223946785
 40
0.9490022172949002
 40
0.9490022172949002
 40
0.9490022172949002
 40
0.9490022172949002
 40
0.9512195121951219
 40
0.9512195121951219
 40
0.9512195121951219
 40
0.9512195121951219
 40
0.9534368070953437
 40
0.9534368070953437
 40
0.9534368070953437
 40
0.9534368070953437
 40
0.9556541019955654
 40
0.9556541019955654
 40
0.9556541019955654
 40
0.9556541019955654
 40
0.9578713968957872
 40
0.9578713968957872
 40
0.9578713968957872
 40
0.9578713968957872
 40
0.9600886917960089
 40
0.9600886917960089
 40
0.9600886917960089
 40
0.9600886917960089
 40
0.9623059866962306
 40
0.9623059866962306
 40
0.9623059866962306
 40
0.9623059866962306
 40
0.9645232815964523
 40
0.9645232815964523
 40
0.9645232815964523
 40
0.9645232815964523
 40
0.9667405764966741
 40
0.9667405764966741
 40
0.9667405764966741
 40
0.9667405764966741
 40
0.9689578713968958
 40
0.9689578713968958
 40
0.9689578713968958
 40
0.9689578713968958
 40
0.9711751662971175
 40
0.9711751662971175
 40
0.9711751662971175
 40
0.9711751662971175
 40
0.9733924611973392
 40
0.9733924611973392
 40
0.9733924611973392
 40
0.9733924611973392
 40
0.975609756097561
 40
0.975609756097561
 40
0.975609756097561
 40
0.975609756097561
 40
0.9778270509977827
 40
0.9778270509977827
 40
0.9778270509977827
 40
0.9778270509977827
 40
0.9800443458980045
 40
0.9800443458980045
 40
0.9800443458980045
 40
0.9800443458980045
 40
0.9822616407982262
 40
0.9822616407982262
 40
0.9822616407982262
 40
0.9822616407982262
 40
0.9844789356984479
 40
0.9844789356984479
 40
0.9844789356984479
 40
0.9844789356984479
 40
0.9866962305986696
 40
0.9866962305986696
 40
0.9866962305986696
 40
0.9866962305986696
 40
0.9889135254988913
 40
0.9889135254988913
 40
0.9889135254988913
 40
0.9889135254988913
 40
0.991130820399113
 40
0.991130820399113
 40
0.991130820399113
 40
0.991130820399113
 40
0.9933481152993349
 40
0.9933481152993349
 40
0.9933481152993349
 40
0.9933481152993349
 40
0.9955654101995566
 40
0.9955654101995566
 40
0.9955654101995566
 40
0.9955654101995566
 40
1.0
 40
1.0
 40
1.0
 40
1.0
 10
-2.04111
 20
0.55831
 30
0.0
 10
-2.27375
 20
0.60115
 30
0.0
 10
-2.45
 20
0.80498
 30
0.0
 10
-2.45
 20
1.05
 30
0.0
 10
-2.45
 20
1.05
 30
0.0
 10
-2.45
 20
1.05
 30
0.0
 10
-2.45
 20
1.45
 30
0.0
 10
-2.45
 20
1.45
 30
0.0
 10
-2.45
 20
1.45
 30
0.0
 10
-2.45
 20
1.72614
 30
0.0
 10
-2.22614
 20
1.95
 30
0.0
 10
-1.95
 20
1.95
 30
0.0
 10
-1.95
 20
1.95
 30
0.0
 10
-1.95
 20
1.95
 30
0.0
 10
1.45
 20
1.95
 30
0.0
 10
1.45
 20
1.95
 30
0.0
 10
1.45
 20
1.95
 30
0.0
 10
1.72614
 20
1.95
 30
0.0
 10
1.95
 20
1.72614
 30
0.0
 10
1.95
 20
1.45
 30
0.0
 10
1.95
 20
1.45
 30
0.0
 10
1.95
 20
1.45
 30
0.0
 10
1.95
 20
1.05
 30
0.0
 10
1.95
 20
1.05
 30
0.0
 10
1.95
 20
1.05
 30
0.0
 10
1.95
 20
0.84036
 30
0.0
 10
1.82095
 20
0.66088
 30
0.0
 10
1.63798
 20
0.58658
 30
0.0
 10
1.63798
 20
0.58658
 30
0.0
 10
2.0021
 20
0.39046
 30
0.0
 10
2.4774
 20
0.38288
 30
0.0
 10
2.67498
 20
0.03648
 30
0.0
 10
2.67498
 20
0.03648
 30
0.0
 10
2.91378
 20
-0.3822
 30
0.0
 10
2.47753
 20
-0.75887
 30
0.0
 10
3.03098
 20
-1.06516
 30
0.0
 10
3.03098
 20
-1.06516
 30
0.0
 10
3.2822
 20
-1.20419
 30
0.0
 10
3.57668
 20
-1.23592
 30
0.0
 10
3.82279
 20
-1.38232
 30
0.0
 10
3.82279
 20
-1.38232
 30
0.0
 10
4.32596
 20
-1.68158
 30
0.0
 10
4.49673
 20
-2.45014
 30
0.0
 10
4.4973
 20
-2.99434
 30
0.0
 10
4.4973
 20
-2.99434
 30
0.0
 10
4.49774
 20
-3.47682
 30
0.0
 10
4.31765
 20
-3.9247
 30
0.0
 10
3.87953
 20
-4.15458
 30
0.0
 10
3.87953
 20
-4.15458
 30
0.0
 10
3.5585
 20
-4.32305
 30
0.0
 10
3.19273
 20
-4.404
 30
0.0
 10
2.85605
 20
-4.24434
 30
0.0
 10
2.85605
 20
-4.24434
 30
0.0
 10
2.63715
 20
-4.14055
 30
0.0
 10
2.4189
 20
-3.97883
 30
0.0
 10
2.30673
 20
-3.75872
 30
0.0
 10
2.30673
 20
-3.75872
 30
0.0
 10
2.19452
 20
-3.53852
 30
0.0
 10
2.23061
 20
-3.22616
 30
0.0
 10
2.37092
 20
-3.02581
 30
0.0
 10
2.37092
 20
-3.02581
 30
0.0
 10
2.44484
 20
-2.92026
 30
0.0
 10
2.54897
 20
-2.86179
 30
0.0
 10
2.67175
 20
-2.83045
 30
0.0
 10
2.67175
 20
-2.83045
 30
0.0
 10
2.75893
 20
-2.80817
 30
0.0
 10
2.86236
 20
-2.82112
 30
0.0
 10
2.93939
 20
-2.86848
 30
0.0
 10
2.93939
 20
-2.86848
 30
0.0
 10
2.97855
 20
-2.89259
 30
0.0
 10
3.10757
 20
-3.06902
 30
0.0
 10
3.01969
 20
-3.07628
 30
0.0
 10
3.01969
 20
-3.07628
 30
0.0
 10
2.99666
 20
-3.07817
 30
0.0
 10
2.97217
 20
-3.06785
 30
0.0
 10
2.94746
 20
-3.05723
 30
0.0
 10
2.94746
 20
-3.05723
 30
0.0
 10
2.94746
 20
-3.05723
 30
0.0
 10
2.96235
 20
-3.07185
 30
0.0
 10
2.96235
 20
-3.07185
 30
0.0
 10
2.96235
 20
-3.07185
 30
0.0
 10
2.94365
 20
-3.13151
 30
0.0
 10
2.92959
 20
-3.12167
 30
0.0
 10
2.87318
 20
-3.11046
 30
0.0
 10
2.87318
 20
-3.11046
 30
0.0
 10
2.85857
 20
-3.10754
 30
0.0
 10
2.83337
 20
-3.10839
 30
0.0
 10
2.82102
 20
-3.09963
 30
0.0
 10
2.82102
 20
-3.09963
 30
0.0
 10
2.80748
 20
-3.09002
 30
0.0
 10
2.78921
 20
-3.05444
 30
0.0
 10
2.80361
 20
-3.05863
 30
0.0
 10
2.80361
 20
-3.05863
 30
0.0
 10
2.80361
 20
-3.05863
 30
0.0
 10
2.80412
 20
-3.05176
 30
0.0
 10
2.80412
 20
-3.05176
 30
0.0
 10
2.80412
 20
-3.05176
 30
0.0
 10
2.77779
 20
-3.0642
 30
0.0
 10
2.75381
 20
-3.08348
 30
0.0
 10
2.73269
 20
-3.10719
 30
0.0
 10
2.73269
 20
-3.10719
 30
0.0
 10
2.73269
 20
-3.10719
 30
0.0
 10
2.74187
 20
-3.10712
 30
0.0
 10
2.74187
 20
-3.10712
 30
0.0
 10
2.74187
 20
-3.10712
 30
0.0
 10
2.80712
 20
-3.10485
 30
0.0
 10
2.7787
 20
-3.20226
 30
0.0
 10
2.75301
 20
-3.23275
 30
0.0
 10
2.75301
 20
-3.23275
 30
0.0
 10
2.73423
 20
-3.25508
 30
0.0
 10
2.74076
 20
-3.2512
 30
0.0
 10
2.7111
 20
-3.25706
 30
0.0
 10
2.7111
 20
-3.25706
 30
0.0
 10
2.68923
 20
-3.26141
 30
0.0
 10
2.66243
 20
-3.24786
 30
0.0
 10
2.64929
 20
-3.26583
 30
0.0
 10
2.64929
 20
-3.26583
 30
0.0
 10
2.6438
 20
-3.28544
 30
0.0
 10
2.63972
 20
-3.30511
 30
0.0
 10
2.63717
 20
-3.32435
 30
0.0
 10
2.63717
 20
-3.32435
 30
0.0
 10
2.63717
 20
-3.32435
 30
0.0
 10
2.64046
 20
-3.32321
 30
0.0
 10
2.64046
 20
-3.32321
 30
0.0
 10
2.64046
 20
-3.32321
 30
0.0
 10
2.71924
 20
-3.29928
 30
0.0
 10
2.71206
 20
-3.34902
 30
0.0
 10
2.72855
 20
-3.4115
 30
0.0
 10
2.72855
 20
-3.4115
 30
0.0
 10
2.73368
 20
-3.43109
 30
0.0
 10
2.74818
 20
-3.45307
 30
0.0
 10
2.73699
 20
-3.47216
 30
0.0
 10
2.73699
 20
-3.47216
 30
0.0
 10
2.72446
 20
-3.49358
 30
0.0
 10
2.67974
 20
-3.49247
 30
0.0
 10
2.68015
 20
-3.49961
 30
0.0
 10
2.68015
 20
-3.49961
 30
0.0
 10
2.68015
 20
-3.49961
 30
0.0
 10
2.66771
 20
-3.49255
 30
0.0
 10
2.66771
 20
-3.49255
 30
0.0
 10
2.66771
 20
-3.49255
 30
0.0
 10
2.68048
 20
-3.51508
 30
0.0
 10
2.69639
 20
-3.5372
 30
0.0
 10
2.71471
 20
-3.55845
 30
0.0
 10
2.71471
 20
-3.55845
 30
0.0
 10
2.71471
 20
-3.55845
 30
0.0
 10
2.71542
 20
-3.55691
 30
0.0
 10
2.71542
 20
-3.55691
 30
0.0
 10
2.71542
 20
-3.55691
 30
0.0
 10
2.75759
 20
-3.48909
 30
0.0
 10
2.79567
 20
-3.52925
 30
0.0
 10
2.84319
 20
-3.56916
 30
0.0
 10
2.84319
 20
-3.56916
 30
0.0
 10
2.88053
 20
-3.6005
 30
0.0
 10
2.91995
 20
-3.63867
 30
0.0
 10
2.85743
 20
-3.67145
 30
0.0
 10
2.85743
 20
-3.67145
 30
0.0
 10
2.85595
 20
-3.66719
 30
0.0
 10
2.85567
 20
-3.66283
 30
0.0
 10
2.85652
 20
-3.65833
 30
0.0
 10
2.85652
 20
-3.65833
 30
0.0
 10
2.85652
 20
-3.65833
 30
0.0
 10
2.83661
 20
-3.66492
 30
0.0
 10
2.83661
 20
-3.66492
 30
0.0
 10
2.83661
 20
-3.66492
 30
0.0
 10
2.86706
 20
-3.68532
 30
0.0
 10
2.89907
 20
-3.70316
 30
0.0
 10
2.93126
 20
-3.71759
 30
0.0
 10
2.93126
 20
-3.71759
 30
0.0
 10
2.93126
 20
-3.71759
 30
0.0
 10
2.9315
 20
-3.71567
 30
0.0
 10
2.9315
 20
-3.71567
 30
0.0
 10
2.9315
 20
-3.71567
 30
0.0
 10
2.92217
 20
-3.63614
 30
0.0
 10
2.97687
 20
-3.64193
 30
0.0
 10
3.03173
 20
-3.65394
 30
0.0
 10
3.03173
 20
-3.65394
 30
0.0
 10
3.09033
 20
-3.66678
 30
0.0
 10
3.12374
 20
-3.67102
 30
0.0
 10
3.12113
 20
-3.74021
 30
0.0
 10
3.12113
 20
-3.74021
 30
0.0
 10
3.12113
 20
-3.74021
 30
0.0
 10
3.10091
 20
-3.7574
 30
0.0
 10
3.10091
 20
-3.7574
 30
0.0
 10
3.10091
 20
-3.7574
 30
0.0
 10
3.13319
 20
-3.75659
 30
0.0
 10
3.16368
 20
-3.75332
 30
0.0
 10
3.19251
 20
-3.74788
 30
0.0
 10
3.19251
 20
-3.74788
 30
0.0
 10
3.19251
 20
-3.74788
 30
0.0
 10
3.18725
 20
-3.73331
 30
0.0
 10
3.18725
 20
-3.73331
 30
0.0
 10
3.18725
 20
-3.73331
 30
0.0
 10
3.20864
 20
-3.67841
 30
0.0
 10
3.15211
 20
-3.66536
 30
0.0
 10
3.22781
 20
-3.6375
 30
0.0
 10
3.22781
 20
-3.6375
 30
0.0
 10
3.24453
 20
-3.63133
 30
0.0
 10
3.27399
 20
-3.61334
 30
0.0
 10
3.29223
 20
-3.61516
 30
0.0
 10
3.29223
 20
-3.61516
 30
0.0
 10
3.31414
 20
-3.61735
 30
0.0
 10
3.33631
 20
-3.64939
 30
0.0
 10
3.34158
 20
-3.64513
 30
0.0
 10
3.34158
 20
-3.64513
 30
0.0
 10
3.34773
 20
-3.65427
 30
0.0
 10
3.36246
 20
-3.66461
 30
0.0
 10
3.37246
 20
-3.67159
 30
0.0
 10
3.37246
 20
-3.67159
 30
0.0
 10
3.37246
 20
-3.67159
 30
0.0
 10
3.37232
 20
-3.67307
 30
0.0
 10
3.37232
 20
-3.67307
 30
0.0
 10
3.37232
 20
-3.67307
 30
0.0
 10
3.39337
 20
-3.65824
 30
0.0
 10
3.41288
 20
-3.64167
 30
0.0
 10
3.43103
 20
-3.62365
 30
0.0
 10
3.43103
 20
-3.62365
 30
0.0
 10
3.43103
 20
-3.62365
 30
0.0
 10
3.4298
 20
-3.62306
 30
0.0
 10
3.4298
 20
-3.62306
 30
0.0
 10
3.4298
 20
-3.62306
 30
0.0
 10
3.38189
 20
-3.56138
 30
0.0
 10
3.38718
 20
-3.56485
 30
0.0
 10
3.43457
 20
-3.49927
 30
0.0
 10
3.43457
 20
-3.49927
 30
0.0
 10
3.44889
 20
-3.47945
 30
0.0
 10
3.46452
 20
-3.43602
 30
0.0
 10
3.48713
 20
-3.42434
 30
0.0
 10
3.48713
 20
-3.42434
 30
0.0
 10
3.50563
 20
-3.41473
 30
0.0
 10
3.52834
 20
-3.42473
 30
0.0
 10
3.54886
 20
-3.42462
 30
0.0
 10
3.54886
 20
-3.42462
 30
0.0
 10
3.54886
 20
-3.42462
 30
0.0
 10
3.55494
 20
-3.43441
 30
0.0
 10
3.55494
 20
-3.43441
 30
0.0
 10
3.55494
 20
-3.43441
 30
0.0
 10
3.56261
 20
-3.41628
 30
0.0
 10
3.56964
 20
-3.39768
 30
0.0
 10
3.57608
 20
-3.37869
 30
0.0
 10
3.57608
 20
-3.37869
 30
0.0
 10
3.57608
 20
-3.37869
 30
0.0
 10
3.56651
 20
-3.37613
 30
0.0
 10
3.56651
 20
-3.37613
 30
0.0
 10
3.56651
 20
-3.37613
 30
0.0
 10
3.49222
 20
-3.34481
 30
0.0
 10
3.51416
 20
-3.29354
 30
0.0
 10
3.53111
 20
-3.22523
 30
0.0
 10
3.53111
 20
-3.22523
 30
0.0
 10
3.54234
 20
-3.17986
 30
0.0
 10
3.56079
 20
-3.15125
 30
0.0
 10
3.615
 20
-3.15565
 30
0.0
 10
3.615
 20
-3.15565
 30
0.0
 10
3.615
 20
-3.15565
 30
0.0
 10
3.62277
 20
-3.16663
 30
0.0
 10
3.62277
 20
-3.16663
 30
0.0
 10
3.62277
 20
-3.16663
 30
0.0
 10
3.6257
 20
-3.14238
 30
0.0
 10
3.62791
 20
-3.11796
 30
0.0
 10
3.62949
 20
-3.09351
 30
0.0
 10
3.62949
 20
-3.09351
 30
0.0
 10
3.62949
 20
-3.09351
 30
0.0
 10
3.62823
 20
-3.09389
 30
0.0
 10
3.62823
 20
-3.09389
 30
0.0
 10
3.62823
 20
-3.09389
 30
0.0
 10
3.60012
 20
-3.08434
 30
0.0
 10
3.58451
 20
-3.09188
 30
0.0
 10
3.56981
 20
-3.06741
 30
0.0
 10
3.56981
 20
-3.06741
 30
0.0
 10
3.55839
 20
-3.04837
 30
0.0
 10
3.56353
 20
-2.99111
 30
0.0
 10
3.56245
 20
-2.96816
 30
0.0
 10
3.56245
 20
-2.96816
 30
0.0
 10
3.55943
 20
-2.90282
 30
0.0
 10
3.56456
 20
-2.88838
 30
0.0
 10
3.61942
 20
-2.86019
 30
0.0
 10
3.61942
 20
-2.86019
 30
0.0
 10
3.61942
 20
-2.86019
 30
0.0
 10
3.62654
 20
-2.86334
 30
0.0
 10
3.62654
 20
-2.86334
 30
0.0
 10
3.62654
 20
-2.86334
 30
0.0
 10
3.62391
 20
-2.83343
 30
0.0
 10
3.62046
 20
-2.80412
 30
0.0
 10
3.6163
 20
-2.77561
 30
0.0
 10
3.6163
 20
-2.77561
 30
0.0
 10
3.6163
 20
-2.77561
 30
0.0
 10
3.61058
 20
-2.7764
 30
0.0
 10
3.61058
 20
-2.7764
 30
0.0
 10
3.61058
 20
-2.7764
 30
0.0
 10
3.5585
 20
-2.80536
 30
0.0
 10
3.53568
 20
-2.79471
 30
0.0
 10
3.52361
 20
-2.73278
 30
0.0
 10
3.52361
 20
-2.73278
 30
0.0
 10
3.51262
 20
-2.67624
 30
0.0
 10
3.5103
 20
-2.61641
 30
0.0
 10
3.58298
 20
-2.6172
 30
0.0
 10
3.58298
 20
-2.6172
 30
0.0
 10
3.57557
 20
-2.59304
 30
0.0
 10
3.56662
 20
-2.56964
 30
0.0
 10
3.55628
 20
-2.54695
 30
0.0
 10
3.55628
 20
-2.54695
 30
0.0
 10
3.55628
 20
-2.54695
 30
0.0
 10
3.54886
 20
-2.5515
 30
0.0
 10
3.54886
 20
-2.5515
 30
0.0
 10
3.54886
 20
-2.5515
 30
0.0
 10
3.53012
 20
-2.55349
 30
0.0
 10
3.5015
 20
-2.57783
 30
0.0
 10
3.48367
 20
-2.57251
 30
0.0
 10
3.48367
 20
-2.57251
 30
0.0
 10
3.46808
 20
-2.56788
 30
0.0
 10
3.4423
 20
-2.52284
 30
0.0
 10
3.43196
 20
-2.5092
 30
0.0
 10
3.43196
 20
-2.5092
 30
0.0
 10
3.41657
 20
-2.48892
 30
0.0
 10
3.37137
 20
-2.37929
 30
0.0
 10
3.4386
 20
-2.40156
 30
0.0
 10
3.4386
 20
-2.40156
 30
0.0
 10
3.4386
 20
-2.40156
 30
0.0
 10
3.46207
 20
-2.39828
 30
0.0
 10
3.46207
 20
-2.39828
 30
0.0
 10
3.46207
 20
-2.39828
 30
0.0
 10
3.44705
 20
-2.38007
 30
0.0
 10
3.43108
 20
-2.3624
 30
0.0
 10
3.41433
 20
-2.34523
 30
0.0
 10
3.41433
 20
-2.34523
 30
0.0
 10
3.41433
 20
-2.34523
 30
0.0
 10
3.41141
 20
-2.35023
 30
0.0
 10
3.41141
 20
-2.35023
 30
0.0
 10
3.41141
 20
-2.35023
 30
0.0
 10
3.36299
 20
-2.41413
 30
0.0
 10
3.31471
 20
-2.38492
 30
0.0
 10
3.2488
 20
-2.33807
 30
0.0
 10
3.2488
 20
-2.33807
 30
0.0
 10
3.2378
 20
-2.33025
 30
0.0
 10
3.26115
 20
-2.29235
 30
0.0
 10
3.3001
 20
-2.24396
 30
0.0
 10
3.3001
 20
-2.24396
 30
0.0
 10
3.25414
 20
-2.20822
 30
0.0
 10
3.20511
 20
-2.17486
 30
0.0
 10
3.15451
 20
-2.14346
 30
0.0
 10
3.15451
 20
-2.14346
 30
0.0
 10
3.15451
 20
-2.14346
 30
0.0
 10
3.15198
 20
-2.15021
 30
0.0
 10
3.15198
 20
-2.15021
 30
0.0
 10
3.15198
 20
-2.15021
 30
0.0
 10
3.15224
 20
-2.15101
 30
0.0
 10
3.14678
 20
-2.20196
 30
0.0
 10
3.12563
 20
-2.21105
 30
0.0
 10
3.12563
 20
-2.21105
 30
0.0
 10
3.10346
 20
-2.22053
 30
0.0
 10
3.05475
 20
-2.18852
 30
0.0
 10
3.03589
 20
-2.17928
 30
0.0
 10
3.03589
 20
-2.17928
 30
0.0
 10
3.02054
 20
-2.1717
 30
0.0
 10
2.9847
 20
-2.1584
 30
0.0
 10
2.9754
 20
-2.14385
 30
0.0
 10
2.9754
 20
-2.14385
 30
0.0
 10
2.96204
 20
-2.123
 30
0.0
 10
2.97173
 20
-2.0523
 30
0.0
 10
3.00204
 20
-2.06641
 30
0.0
 10
3.00204
 20
-2.06641
 30
0.0
 10
3.00204
 20
-2.06641
 30
0.0
 10
3.00863
 20
-2.05964
 30
0.0
 10
3.00863
 20
-2.05964
 30
0.0
 10
3.00863
 20
-2.05964
 30
0.0
 10
2.97683
 20
-2.04254
 30
0.0
 10
2.94497
 20
-2.02601
 30
0.0
 10
2.91341
 20
-2.00998
 30
0.0
 10
2.91341
 20
-2.00998
 30
0.0
 10
2.91341
 20
-2.00998
 30
0.0
 10
2.90944
 20
-2.02233
 30
0.0
 10
2.90944
 20
-2.02233
 30
0.0
 10
2.90944
 20
-2.02233
 30
0.0
 10
2.9123
 20
-2.10737
 30
0.0
 10
2.82551
 20
-2.05781
 30
0.0
 10
2.78834
 20
-2.04176
 30
0.0
 10
2.78834
 20
-2.04176
 30
0.0
 10
2.75412
 20
-2.02698
 30
0.0
 10
2.63974
 20
-1.97301
 30
0.0
 10
2.73371
 20
-1.92911
 30
0.0
 10
2.73371
 20
-1.92911
 30
0.0
 10
2.7373
 20
-1.9364
 30
0.0
 10
2.73777
 20
-1.92128
 30
0.0
 10
2.73371
 20
-1.92911
 30
0.0
 10
2.73371
 20
-1.92911
 30
0.0
 10
2.73371
 20
-1.92911
 30
0.0
 10
2.73984
 20
-1.92359
 30
0.0
 10
2.73984
 20
-1.92359
 30
0.0
 10
2.73984
 20
-1.92359
 30
0.0
 10
2.71214
 20
-1.90982
 30
0.0
 10
2.68528
 20
-1.89631
 30
0.0
 10
2.65955
 20
-1.88299
 30
0.0
 10
2.65955
 20
-1.88299
 30
0.0
 10
2.65955
 20
-1.88299
 30
0.0
 10
2.65568
 20
-1.88097
 30
0.0
 10
2.65568
 20
-1.88097
 30
0.0
 10
2.65568
 20
-1.88097
 30
0.0
 10
2.65568
 20
-1.88097
 30
0.0
 10
2.64927
 20
-1.89446
 30
0.0
 10
2.64927
 20
-1.89446
 30
0.0
 10
2.64927
 20
-1.89446
 30
0.0
 10
2.62154
 20
-1.94756
 30
0.0
 10
2.61744
 20
-1.96123
 30
0.0
 10
2.56096
 20
-1.92864
 30
0.0
 10
2.56096
 20
-1.92864
 30
0.0
 10
2.51344
 20
-1.90121
 30
0.0
 10
2.43959
 20
-1.87294
 30
0.0
 10
2.50055
 20
-1.80664
 30
0.0
 10
2.50055
 20
-1.80664
 30
0.0
 10
2.49866
 20
-1.8124
 30
0.0
 10
2.50244
 20
-1.8009
 30
0.0
 10
2.50055
 20
-1.80664
 30
0.0
 10
2.50055
 20
-1.80664
 30
0.0
 10
2.50055
 20
-1.80664
 30
0.0
 10
2.51008
 20
-1.79957
 30
0.0
 10
2.51008
 20
-1.79957
 30
0.0
 10
2.51008
 20
-1.79957
 30
0.0
 10
2.48535
 20
-1.78463
 30
0.0
 10
2.46066
 20
-1.76909
 30
0.0
 10
2.4362
 20
-1.75291
 30
0.0
 10
2.4362
 20
-1.75291
 30
0.0
 10
2.4362
 20
-1.75291
 30
0.0
 10
2.42879
 20
-1.76216
 30
0.0
 10
2.42879
 20
-1.76216
 30
0.0
 10
2.42879
 20
-1.76216
 30
0.0
 10
2.42906
 20
-1.76255
 30
0.0
 10
2.4219
 20
-1.80371
 30
0.0
 10
2.40469
 20
-1.81087
 30
0.0
 10
2.40469
 20
-1.81087
 30
0.0
 10
2.37714
 20
-1.82227
 30
0.0
 10
2.33921
 20
-1.78896
 30
0.0
 10
2.31847
 20
-1.77614
 30
0.0
 10
2.31847
 20
-1.77614
 30
0.0
 10
2.27165
 20
-1.74734
 30
0.0
 10
2.25917
 20
-1.71633
 30
0.0
 10
2.30505
 20
-1.67258
 30
0.0
 10
2.30505
 20
-1.67258
 30
0.0
 10
2.30663
 20
-1.676
 30
0.0
 10
2.30353
 20
-1.66915
 30
0.0
 10
2.30505
 20
-1.67258
 30
0.0
 10
2.30505
 20
-1.67258
 30
0.0
 10
2.30505
 20
-1.67258
 30
0.0
 10
2.31635
 20
-1.66646
 30
0.0
 10
2.31635
 20
-1.66646
 30
0.0
 10
2.31635
 20
-1.66646
 30
0.0
 10
2.29424
 20
-1.64898
 30
0.0
 10
2.27264
 20
-1.63091
 30
0.0
 10
2.2517
 20
-1.61224
 30
0.0
 10
2.2517
 20
-1.61224
 30
0.0
 10
2.24843
 20
-1.69759
 30
0.0
 10
2.13236
 20
-1.63564
 30
0.0
 10
2.10032
 20
-1.60954
 30
0.0
 10
2.10032
 20
-1.60954
 30
0.0
 10
2.05533
 20
-1.5729
 30
0.0
 10
2.02541
 20
-1.53278
 30
0.0
 10
2.08925
 20
-1.49319
 30
0.0
 10
2.08925
 20
-1.49319
 30
0.0
 10
2.09334
 20
-1.49676
 30
0.0
 10
2.12274
 20
-1.47469
 30
0.0
 10
2.12453
 20
-1.47994
 30
0.0
 10
2.12453
 20
-1.47994
 30
0.0
 10
2.12453
 20
-1.47994
 30
0.0
 10
2.12471
 20
-1.47983
 30
0.0
 10
2.12471
 20
-1.47983
 30
0.0
 10
2.12471
 20
-1.47983
 30
0.0
 10
2.10751
 20
-1.45844
 30
0.0
 10
2.09137
 20
-1.43642
 30
0.0
 10
2.07643
 20
-1.41377
 30
0.0
 10
2.07643
 20
-1.41377
 30
0.0
 10
2.07643
 20
-1.41377
 30
0.0
 10
2.06719
 20
-1.41821
 30
0.0
 10
2.06719
 20
-1.41821
 30
0.0
 10
2.06719
 20
-1.41821
 30
0.0
 10
2.00804
 20
-1.48629
 30
0.0
 10
1.96913
 20
-1.40844
 30
0.0
 10
1.95071
 20
-1.35475
 30
0.0
 10
1.95071
 20
-1.35475
 30
0.0
 10
1.94663
 20
-1.34284
 30
0.0
 10
1.93141
 20
-1.30457
 30
0.0
 10
1.93469
 20
-1.29253
 30
0.0
 10
1.93469
 20
-1.29253
 30
0.0
 10
1.94301
 20
-1.26215
 30
0.0
 10
1.98068
 20
-1.26874
 30
0.0
 10
1.99223
 20
-1.24181
 30
0.0
 10
1.99223
 20
-1.24181
 30
0.0
 10
1.99223
 20
-1.24181
 30
0.0
 10
1.99252
 20
-1.24183
 30
0.0
 10
1.99252
 20
-1.24183
 30
0.0
 10
1.99252
 20
-1.24183
 30
0.0
 10
1.98496
 20
-1.21896
 30
0.0
 10
1.97929
 20
-1.19746
 30
0.0
 10
1.9751
 20
-1.17705
 30
0.0
 10
1.9751
 20
-1.17705
 30
0.0
 10
1.9751
 20
-1.17705
 30
0.0
 10
1.96577
 20
-1.18008
 30
0.0
 10
1.96577
 20
-1.18008
 30
0.0
 10
1.96577
 20
-1.18008
 30
0.0
 10
1.94675
 20
-1.15967
 30
0.0
 10
1.91707
 20
-1.18931
 30
0.0
 10
1.89488
 20
-1.15923
 30
0.0
 10
1.89488
 20
-1.15923
 30
0.0
 10
1.88281
 20
-1.14283
 30
0.0
 10
1.88291
 20
-1.08792
 30
0.0
 10
1.88183
 20
-1.06751
 30
0.0
 10
1.88183
 20
-1.06751
 30
0.0
 10
1.87839
 20
-1.00472
 30
0.0
 10
1.89343
 20
-0.9587
 30
0.0
 10
1.96642
 20
-0.95762
 30
0.0
 10
1.96642
 20
-0.95762
 30
0.0
 10
1.96879
 20
-0.95911
 30
0.0
 10
1.97091
 20
-0.96077
 30
0.0
 10
1.9728
 20
-0.96263
 30
0.0
 10
1.9728
 20
-0.96263
 30
0.0
 10
1.98329
 20
-0.86429
 30
0.0
 10
1.99042
 20
-0.76913
 30
0.0
 10
1.89679
 20
-0.61343
 30
0.0
 10
1.89679
 20
-0.61343
 30
0.0
 10
1.72643
 20
-0.33017
 30
0.0
 10
1.3648
 20
-0.24022
 30
0.0
 10
1.11864
 20
-0.48646
 30
0.0
 10
1.11864
 20
-0.48646
 30
0.0
 10
0.99617
 20
-0.60899
 30
0.0
 10
0.9977
 20
-0.75918
 30
0.0
 10
0.94901
 20
-0.91354
 30
0.0
 10
0.94901
 20
-0.91354
 30
0.0
 10
0.88447
 20
-1.11828
 30
0.0
 10
0.81809
 20
-1.26352
 30
0.0
 10
0.93323
 20
-1.47027
 30
0.0
 10
0.93323
 20
-1.47027
 30
0.0
 10
1.09508
 20
-1.7609
 30
0.0
 10
1.40777
 20
-1.91461
 30
0.0
 10
1.57787
 20
-2.20317
 30
0.0
 10
1.57787
 20
-2.20317
 30
0.0
 10
1.85658
 20
-2.67612
 30
0.0
 10
1.7807
 20
-3.4216
 30
0.0
 10
1.46828
 20
-3.85576
 30
0.0
 10
1.46828
 20
-3.85576
 30
0.0
 10
1.22282
 20
-4.1969
 30
0.0
 10
0.51139
 20
-4.47025
 30
0.0
 10
0.14591
 20
-4.18319
 30
0.0
 10
0.14591
 20
-4.18319
 30
0.0
 10
-0.25814
 20
-3.86584
 30
0.0
 10
-0.6384
 20
-3.12797
 30
0.0
 10
-0.09449
 20
-2.75834
 30
0.0
 10
-0.09449
 20
-2.75834
 30
0.0
 10
0.11723
 20
-2.61446
 30
0.0
 10
0.40491
 20
-2.61498
 30
0.0
 10
0.54612
 20
-2.84742
 30
0.0
 10
0.54612
 20
-2.84742
 30
0.0
 10
0.57808
 20
-2.90003
 30
0.0
 10
0.66007
 20
-3.07439
 30
0.0
 10
0.59955
 20
-3.12865
 30
0.0
 10
0.59955
 20
-3.12865
 30
0.0
 10
0.54275
 20
-3.17957
 30
0.0
 10
0.51088
 20
-3.1298
 30
0.0
 10
0.47345
 20
-3.09194
 30
0.0
 10
0.47345
 20
-3.09194
 30
0.0
 10
0.47085
 20
-3.09995
 30
0.0
 10
0.46902
 20
-3.12532
 30
0.0
 10
0.45553
 20
-3.13687
 30
0.0
 10
0.45553
 20
-3.13687
 30
0.0
 10
0.44406
 20
-3.14673
 30
0.0
 10
0.41786
 20
-3.14821
 30
0.0
 10
0.40346
 20
-3.14705
 30
0.0
 10
0.40346
 20
-3.14705
 30
0.0
 10
0.38657
 20
-3.14565
 30
0.0
 10
0.34088
 20
-3.13421
 30
0.0
 10
0.33161
 20
-3.11846
 30
0.0
 10
0.33161
 20
-3.11846
 30
0.0
 10
0.31851
 20
-3.0963
 30
0.0
 10
0.3383
 20
-3.03865
 30
0.0
 10
0.35621
 20
-3.03656
 30
0.0
 10
0.35621
 20
-3.03656
 30
0.0
 10
0.35621
 20
-3.03656
 30
0.0
 10
0.35937
 20
-3.02765
 30
0.0
 10
0.35937
 20
-3.02765
 30
0.0
 10
0.35937
 20
-3.02765
 30
0.0
 10
0.28594
 20
-2.99846
 30
0.0
 10
0.22241
 20
-2.98905
 30
0.0
 10
0.17818
 20
-3.00739
 30
0.0
 10
0.17818
 20
-3.00739
 30
0.0
 10
0.17818
 20
-3.00739
 30
0.0
 10
0.21068
 20
-3.01452
 30
0.0
 10
0.21068
 20
-3.01452
 30
0.0
 10
0.21068
 20
-3.01452
 30
0.0
 10
0.21676
 20
-3.0125
 30
0.0
 10
0.21606
 20
-3.00806
 30
0.0
 10
0.22293
 20
-3.01059
 30
0.0
 10
0.22293
 20
-3.01059
 30
0.0
 10
0.24787
 20
-3.057
 30
0.0
 10
0.25779
 20
-3.06539
 30
0.0
 10
0.21617
 20
-3.10728
 30
0.0
 10
0.21617
 20
-3.10728
 30
0.0
 10
0.20753
 20
-3.11594
 30
0.0
 10
0.17529
 20
-3.1527
 30
0.0
 10
0.16457
 20
-3.15583
 30
0.0
 10
0.16457
 20
-3.15583
 30
0.0
 10
0.1445
 20
-3.16171
 30
0.0
 10
0.12677
 20
-3.14291
 30
0.0
 10
0.11237
 20
-3.14225
 30
0.0
 10
0.11237
 20
-3.14225
 30
0.0
 10
0.11254
 20
-3.15581
 30
0.0
 10
0.11354
 20
-3.17039
 30
0.0
 10
0.11545
 20
-3.18611
 30
0.0
 10
0.11545
 20
-3.18611
 30
0.0
 10
0.11807
 20
-3.20756
 30
0.0
 10
0.122
 20
-3.22873
 30
0.0
 10
0.12713
 20
-3.24947
 30
0.0
 10
0.12713
 20
-3.24947
 30
0.0
 10
0.12713
 20
-3.24947
 30
0.0
 10
0.13573
 20
-3.24383
 30
0.0
 10
0.13573
 20
-3.24383
 30
0.0
 10
0.13573
 20
-3.24383
 30
0.0
 10
0.20774
 20
-3.20001
 30
0.0
 10
0.22743
 20
-3.25331
 30
0.0
 10
0.24167
 20
-3.3146
 30
0.0
 10
0.24167
 20
-3.3146
 30
0.0
 10
0.25337
 20
-3.36488
 30
0.0
 10
0.24797
 20
-3.3746
 30
0.0
 10
0.19738
 20
-3.39256
 30
0.0
 10
0.19738
 20
-3.39256
 30
0.0
 10
0.19877
 20
-3.3876
 30
0.0
 10
0.20177
 20
-3.38362
 30
0.0
 10
0.2063
 20
-3.38054
 30
0.0
 10
0.2063
 20
-3.38054
 30
0.0
 10
0.2063
 20
-3.38054
 30
0.0
 10
0.17673
 20
-3.3762
 30
0.0
 10
0.17673
 20
-3.3762
 30
0.0
 10
0.17673
 20
-3.3762
 30
0.0
 10
0.19769
 20
-3.41393
 30
0.0
 10
0.22322
 20
-3.44818
 30
0.0
 10
0.25262
 20
-3.4774
 30
0.0
 10
0.25262
 20
-3.4774
 30
0.0
 10
0.25262
 20
-3.4774
 30
0.0
 10
0.25479
 20
-3.45989
 30
0.0
 10
0.25479
 20
-3.45989
 30
0.0
 10
0.25479
 20
-3.45989
 30
0.0
 10
0.28231
 20
-3.38292
 30
0.0
 10
0.31957
 20
-3.41139
 30
0.0
 10
0.36977
 20
-3.44558
 30
0.0
 10
0.36977
 20
-3.44558
 30
0.0
 10
0.4124
 20
-3.47457
 30
0.0
 10
0.4422
 20
-3.49421
 30
0.0
 10
0.41264
 20
-3.54586
 30
0.0
 10
0.41264
 20
-3.54586
 30
0.0
 10
0.41447
 20
-3.53992
 30
0.0
 10
0.41771
 20
-3.53477
 30
0.0
 10
0.42236
 20
-3.53045
 30
0.0
 10
0.42236
 20
-3.53045
 30
0.0
 10
0.42236
 20
-3.53045
 30
0.0
 10
0.36881
 20
-3.55622
 30
0.0
 10
0.36881
 20
-3.55622
 30
0.0
 10
0.36881
 20
-3.55622
 30
0.0
 10
0.41904
 20
-3.57719
 30
0.0
 10
0.47476
 20
-3.58586
 30
0.0
 10
0.53422
 20
-3.57856
 30
0.0
 10
0.53422
 20
-3.57856
 30
0.0
 10
0.53422
 20
-3.57856
 30
0.0
 10
0.52819
 20
-3.57456
 30
0.0
 10
0.52819
 20
-3.57456
 30
0.0
 10
0.52819
 20
-3.57456
 30
0.0
 10
0.50811
 20
-3.4964
 30
0.0
 10
0.52025
 20
-3.47992
 30
0.0
 10
0.59801
 20
-3.45651
 30
0.0
 10
0.59801
 20
-3.45651
 30
0.0
 10
0.65751
 20
-3.43855
 30
0.0
 10
0.65105
 20
-3.46183
 30
0.0
 10
0.68252
 20
-3.49077
 30
0.0
 10
0.68252
 20
-3.49077
 30
0.0
 10
0.68252
 20
-3.49077
 30
0.0
 10
0.68777
 20
-3.52568
 30
0.0
 10
0.68777
 20
-3.52568
 30
0.0
 10
0.68777
 20
-3.52568
 30
0.0
 10
0.72427
 20
-3.50471
 30
0.0
 10
0.75605
 20
-3.47939
 30
0.0
 10
0.78358
 20
-3.45066
 30
0.0
 10
0.78358
 20
-3.45066
 30
0.0
 10
0.78358
 20
-3.45066
 30
0.0
 10
0.77073
 20
-3.45108
 30
0.0
 10
0.77073
 20
-3.45108
 30
0.0
 10
0.77073
 20
-3.45108
 30
0.0
 10
0.72836
 20
-3.39152
 30
0.0
 10
0.7289
 20
-3.37752
 30
0.0
 10
0.77171
 20
-3.31535
 30
0.0
 10
0.77171
 20
-3.31535
 30
0.0
 10
0.80365
 20
-3.269
 30
0.0
 10
0.8189
 20
-3.25924
 30
0.0
 10
0.87238
 20
-3.27008
 30
0.0
 10
0.87238
 20
-3.27008
 30
0.0
 10
0.87377
 20
-3.27455
 30
0.0
 10
0.87517
 20
-3.27902
 30
0.0
 10
0.87656
 20
-3.28352
 30
0.0
 10
0.87656
 20
-3.28352
 30
0.0
 10
0.87656
 20
-3.28352
 30
0.0
 10
0.88324
 20
-3.29319
 30
0.0
 10
0.88324
 20
-3.29319
 30
0.0
 10
0.88324
 20
-3.29319
 30
0.0
 10
0.89551
 20
-3.26277
 30
0.0
 10
0.90535
 20
-3.23097
 30
0.0
 10
0.91299
 20
-3.19827
 30
0.0
 10
0.91299
 20
-3.19827
 30
0.0
 10
0.91299
 20
-3.19827
 30
0.0
 10
0.90302
 20
-3.19973
 30
0.0
 10
0.90302
 20
-3.19973
 30
0.0
 10
0.90302
 20
-3.19973
 30
0.0
 10
0.83938
 20
-3.15544
 30
0.0
 10
0.83721
 20
-3.13793
 30
0.0
 10
0.84912
 20
-3.05114
 30
0.0
 10
0.84912
 20
-3.05114
 30
0.0
 10
0.85707
 20
-2.99336
 30
0.0
 10
0.87732
 20
-2.95951
 30
0.0
 10
0.93344
 20
-2.96483
 30
0.0
 10
0.93344
 20
-2.96483
 30
0.0
 10
0.93231
 20
-2.93559
 30
0.0
 10
0.92996
 20
-2.90648
 30
0.0
 10
0.92649
 20
-2.87777
 30
0.0
 10
0.92649
 20
-2.87777
 30
0.0
 10
0.92649
 20
-2.87777
 30
0.0
 10
0.91625
 20
-2.88223
 30
0.0
 10
0.91625
 20
-2.88223
 30
0.0
 10
0.91625
 20
-2.88223
 30
0.0
 10
0.85424
 20
-2.88205
 30
0.0
 10
0.82742
 20
-2.87525
 30
0.0
 10
0.82349
 20
-2.80544
 30
0.0
 10
0.82349
 20
-2.80544
 30
0.0
 10
0.82076
 20
-2.75743
 30
0.0
 10
0.83951
 20
-2.71709
 30
0.0
 10
0.89024
 20
-2.70552
 30
0.0
 10
0.89024
 20
-2.70552
 30
0.0
 10
0.89024
 20
-2.70552
 30
0.0
 10
0.8915
 20
-2.7062
 30
0.0
 10
0.8915
 20
-2.7062
 30
0.0
 10
0.8915
 20
-2.7062
 30
0.0
 10
0.88613
 20
-2.68781
 30
0.0
 10
0.88034
 20
-2.66993
 30
0.0
 10
0.87416
 20
-2.65268
 30
0.0
 10
0.87416
 20
-2.65268
 30
0.0
 10
0.86931
 20
-2.63913
 30
0.0
 10
0.8642
 20
-2.62598
 30
0.0
 10
0.85886
 20
-2.61315
 30
0.0
 10
0.85886
 20
-2.61315
 30
0.0
 10
0.85886
 20
-2.61315
 30
0.0
 10
0.8413
 20
-2.63087
 30
0.0
 10
0.8413
 20
-2.63087
 30
0.0
 10
0.8413
 20
-2.63087
 30
0.0
 10
0.77735
 20
-2.65875
 30
0.0
 10
0.75861
 20
-2.62202
 30
0.0
 10
0.72926
 20
-2.5624
 30
0.0
 10
0.72926
 20
-2.5624
 30
0.0
 10
0.71389
 20
-2.53117
 30
0.0
 10
0.70141
 20
-2.44755
 30
0.0
 10
0.74869
 20
-2.45009
 30
0.0
 10
0.74869
 20
-2.45009
 30
0.0
 10
0.74869
 20
-2.45009
 30
0.0
 10
0.76873
 20
-2.45185
 30
0.0
 10
0.76873
 20
-2.45185
 30
0.0
 10
0.76873
 20
-2.45185
 30
0.0
 10
0.7412
 20
-2.4139
 30
0.0
 10
0.71112
 20
-2.37949
 30
0.0
 10
0.67916
 20
-2.34745
 30
0.0
 10
0.67916
 20
-2.34745
 30
0.0
 10
0.67916
 20
-2.34745
 30
0.0
 10
0.67371
 20
-2.36187
 30
0.0
 10
0.67371
 20
-2.36187
 30
0.0
 10
0.67371
 20
-2.36187
 30
0.0
 10
0.60423
 20
-2.43856
 30
0.0
 10
0.46525
 20
-2.30764
 30
0.0
 10
0.52646
 20
-2.22289
 30
0.0
 10
0.52646
 20
-2.22289
 30
0.0
 10
0.53018
 20
-2.23907
 30
0.0
 10
0.52638
 20
-2.25454
 30
0.0
 10
0.51496
 20
-2.26927
 30
0.0
 10
0.51496
 20
-2.26927
 30
0.0
 10
0.51496
 20
-2.26927
 30
0.0
 10
0.55994
 20
-2.2427
 30
0.0
 10
0.55994
 20
-2.2427
 30
0.0
 10
0.55994
 20
-2.2427
 30
0.0
 10
0.52409
 20
-2.2144
 30
0.0
 10
0.48709
 20
-2.18715
 30
0.0
 10
0.44957
 20
-2.15977
 30
0.0
 10
0.44957
 20
-2.15977
 30
0.0
 10
0.44957
 20
-2.15977
 30
0.0
 10
0.44
 20
-2.17667
 30
0.0
 10
0.44
 20
-2.17667
 30
0.0
 10
0.44
 20
-2.17667
 30
0.0
 10
0.44108
 20
-2.18023
 30
0.0
 10
0.42613
 20
-2.21318
 30
0.0
 10
0.40589
 20
-2.21741
 30
0.0
 10
0.40589
 20
-2.21741
 30
0.0
 10
0.38233
 20
-2.2224
 30
0.0
 10
0.35298
 20
-2.19353
 30
0.0
 10
0.33396
 20
-2.17667
 30
0.0
 10
0.33396
 20
-2.17667
 30
0.0
 10
0.29174
 20
-2.1392
 30
0.0
 10
0.27828
 20
-2.11259
 30
0.0
 10
0.31213
 20
-2.06202
 30
0.0
 10
0.31213
 20
-2.06202
 30
0.0
 10
0.31213
 20
-2.06202
 30
0.0
 10
0.3159
 20
-2.06045
 30
0.0
 10
0.3159
 20
-2.06045
 30
0.0
 10
0.3159
 20
-2.06045
 30
0.0
 10
0.29327
 20
-2.04287
 30
0.0
 10
0.27075
 20
-2.02475
 30
0.0
 10
0.24846
 20
-2.00583
 30
0.0
 10
0.24846
 20
-2.00583
 30
0.0
 10
0.24846
 20
-2.00583
 30
0.0
 10
0.24156
 20
-2.01352
 30
0.0
 10
0.24156
 20
-2.01352
 30
0.0
 10
0.24156
 20
-2.01352
 30
0.0
 10
0.14888
 20
-2.10773
 30
0.0
 10
0.03876
 20
-1.91208
 30
0.0
 10
0.11808
 20
-1.88565
 30
0.0
 10
0.11808
 20
-1.88565
 30
0.0
 10
0.11808
 20
-1.88565
 30
0.0
 10
0.12331
 20
-1.88457
 30
0.0
 10
0.12331
 20
-1.88457
 30
0.0
 10
0.12331
 20
-1.88457
 30
0.0
 10
0.10909
 20
-1.86767
 30
0.0
 10
0.09605
 20
-1.85012
 30
0.0
 10
0.08411
 20
-1.83203
 30
0.0
 10
0.08411
 20
-1.83203
 30
0.0
 10
0.08411
 20
-1.83203
 30
0.0
 10
0.08282
 20
-1.83271
 30
0.0
 10
0.08282
 20
-1.83271
 30
0.0
 10
0.08282
 20
-1.83271
 30
0.0
 10
0.01148
 20
-1.84007
 30
0.0
 10
0.01217
 20
-1.89332
 30
0.0
 10
-0.03909
 20
-1.79729
 30
0.0
 10
-0.03909
 20
-1.79729
 30
0.0
 10
-0.05098
 20
-1.77496
 30
0.0
 10
-0.07072
 20
-1.7385
 30
0.0
 10
-0.0673
 20
-1.71225
 30
0.0
 10
-0.0673
 20
-1.71225
 30
0.0
 10
-0.06397
 20
-1.6868
 30
0.0
 10
-0.01462
 20
-1.64096
 30
0.0
 10
-0.01421
 20
-1.66073
 30
0.0
 10
-0.01421
 20
-1.66073
 30
0.0
 10
-0.01421
 20
-1.66073
 30
0.0
 10
0.00608
 20
-1.66339
 30
0.0
 10
0.00608
 20
-1.66339
 30
0.0
 10
0.00608
 20
-1.66339
 30
0.0
 10
-0.0037
 20
-1.63141
 30
0.0
 10
-0.0114
 20
-1.59866
 30
0.0
 10
-0.01736
 20
-1.56545
 30
0.0
 10
-0.01736
 20
-1.56545
 30
0.0
 10
-0.01736
 20
-1.56545
 30
0.0
 10
-0.03183
 20
-1.57254
 30
0.0
 10
-0.03183
 20
-1.57254
 30
0.0
 10
-0.03183
 20
-1.57254
 30
0.0
 10
-0.0646
 20
-1.56311
 30
0.0
 10
-0.08909
 20
-1.57063
 30
0.0
 10
-0.10927
 20
-1.53895
 30
0.0
 10
-0.10927
 20
-1.53895
 30
0.0
 10
-0.12957
 20
-1.50699
 30
0.0
 10
-0.12595
 20
-1.45299
 30
0.0
 10
-0.121
 20
-1.41806
 30
0.0
 10
-0.121
 20
-1.41806
 30
0.0
 10
-0.114
 20
-1.36839
 30
0.0
 10
-0.09733
 20
-1.35893
 30
0.0
 10
-0.04948
 20
-1.34323
 30
0.0
 10
-0.04948
 20
-1.34323
 30
0.0
 10
-0.04948
 20
-1.34323
 30
0.0
 10
-0.03462
 20
-1.3475
 30
0.0
 10
-0.03462
 20
-1.3475
 30
0.0
 10
-0.03462
 20
-1.3475
 30
0.0
 10
-0.0345
 20
-1.32094
 30
0.0
 10
-0.03373
 20
-1.2945
 30
0.0
 10
-0.03241
 20
-1.26834
 30
0.0
 10
-0.03241
 20
-1.26834
 30
0.0
 10
-0.09963
 20
-1.27796
 30
0.0
 10
-0.10953
 20
-1.21902
 30
0.0
 10
-0.10152
 20
-1.16564
 30
0.0
 10
-0.10152
 20
-1.16564
 30
0.0
 10
-0.09221
 20
-1.10371
 30
0.0
 10
-0.06814
 20
-1.07108
 30
0.0
 10
-0.01418
 20
-1.04779
 30
0.0
 10
-0.01418
 20
-1.04779
 30
0.0
 10
-0.01418
 20
-1.04779
 30
0.0
 10
0.00354
 20
-1.05683
 30
0.0
 10
0.00354
 20
-1.05683
 30
0.0
 10
0.00354
 20
-1.05683
 30
0.0
 10
0.01055
 20
-1.02628
 30
0.0
 10
0.01775
 20
-0.99539
 30
0.0
 10
0.02437
 20
-0.96447
 30
0.0
 10
0.02437
 20
-0.96447
 30
0.0
 10
0.02437
 20
-0.96447
 30
0.0
 10
0.01667
 20
-0.964
 30
0.0
 10
0.01667
 20
-0.964
 30
0.0
 10
0.01667
 20
-0.964
 30
0.0
 10
-0.06596
 20
-0.96387
 30
0.0
 10
-0.07051
 20
-0.88525
 30
0.0
 10
-0.05395
 20
-0.82494
 30
0.0
 10
-0.05395
 20
-0.82494
 30
0.0
 10
-0.03829
 20
-0.76796
 30
0.0
 10
-0.00011
 20
-0.75782
 30
0.0
 10
0.0508
 20
-0.74102
 30
0.0
 10
0.0508
 20
-0.74102
 30
0.0
 10
0.04901
 20
-0.69032
 30
0.0
 10
0.03959
 20
-0.64184
 30
0.0
 10
0.01832
 20
-0.59723
 30
0.0
 10
0.01832
 20
-0.59723
 30
0.0
 10
-0.12235
 20
-0.30203
 30
0.0
 10
-0.57392
 20
-0.24208
 30
0.0
 10
-0.80546
 20
-0.449
 30
0.0
 10
-0.80546
 20
-0.449
 30
0.0
 10
-0.86525
 20
-0.50243
 30
0.0
 10
-0.91039
 20
-0.57369
 30
0.0
 10
-0.93169
 20
-0.66327
 30
0.0
 10
-0.93169
 20
-0.66327
 30
0.0
 10
-0.94484
 20
-0.7186
 30
0.0
 10
-0.94574
 20
-0.77466
 30
0.0
 10
-0.94073
 20
-0.83097
 30
0.0
 10
-0.94073
 20
-0.83097
 30
0.0
 10
-0.90082
 20
-0.82811
 30
0.0
 10
-0.8732
 20
-0.83687
 30
0.0
 10
-0.85866
 20
-0.87199
 30
0.0
 10
-0.85866
 20
-0.87199
 30
0.0
 10
-0.83215
 20
-0.93605
 30
0.0
 10
-0.84254
 20
-0.98803
 30
0.0
 10
-0.90497
 20
-1.00369
 30
0.0
 10
-0.90497
 20
-1.00369
 30
0.0
 10
-0.90497
 20
-1.00369
 30
0.0
 10
-0.91369
 20
-1.00322
 30
0.0
 10
-0.91369
 20
-1.00322
 30
0.0
 10
-0.91369
 20
-1.00322
 30
0.0
 10
-0.90891
 20
-1.02877
 30
0.0
 10
-0.90425
 20
-1.05427
 30
0.0
 10
-0.90026
 20
-1.07968
 30
0.0
 10
-0.90026
 20
-1.07968
 30
0.0
 10
-0.90026
 20
-1.07968
 30
0.0
 10
-0.89612
 20
-1.07864
 30
0.0
 10
-0.89612
 20
-1.07864
 30
0.0
 10
-0.89612
 20
-1.07864
 30
0.0
 10
-0.82255
 20
-1.07657
 30
0.0
 10
-0.82395
 20
-1.10237
 30
0.0
 10
-0.81675
 20
-1.172
 30
0.0
 10
-0.81675
 20
-1.172
 30
0.0
 10
-0.81215
 20
-1.21677
 30
0.0
 10
-0.81403
 20
-1.30333
 30
0.0
 10
-0.88732
 20
-1.26827
 30
0.0
 10
-0.88732
 20
-1.26827
 30
0.0
 10
-0.88732
 20
-1.26827
 30
0.0
 10
-0.88994
 20
-1.26675
 30
0.0
 10
-0.88994
 20
-1.26675
 30
0.0
 10
-0.88994
 20
-1.26675
 30
0.0
 10
-0.89165
 20
-1.29682
 30
0.0
 10
-0.89495
 20
-1.32676
 30
0.0
 10
-0.89984
 20
-1.35642
 30
0.0
 10
-0.89984
 20
-1.35642
 30
0.0
 10
-0.89984
 20
-1.35642
 30
0.0
 10
-0.89614
 20
-1.35648
 30
0.0
 10
-0.89614
 20
-1.35648
 30
0.0
 10
-0.89614
 20
-1.35648
 30
0.0
 10
-0.82687
 20
-1.3271
 30
0.0
 10
-0.82457
 20
-1.42165
 30
0.0
 10
-0.83232
 20
-1.46076
 30
0.0
 10
-0.83232
 20
-1.46076
 30
0.0
 10
-0.84618
 20
-1.53063
 30
0.0
 10
-0.86264
 20
-1.55394
 30
0.0
 10
-0.93583
 20
-1.5505
 30
0.0
 10
-0.93583
 20
-1.5505
 30
0.0
 10
-0.93583
 20
-1.5505
 30
0.0
 10
-0.95199
 20
-1.53946
 30
0.0
 10
-0.95199
 20
-1.53946
 30
0.0
 10
-0.95199
 20
-1.53946
 30
0.0
 10
-0.96279
 20
-1.5655
 30
0.0
 10
-0.97496
 20
-1.59101
 30
0.0
 10
-0.98848
 20
-1.61585
 30
0.0
 10
-0.98848
 20
-1.61585
 30
0.0
 10
-0.99529
 20
-1.62836
 30
0.0
 10
-1.00243
 20
-1.64071
 30
0.0
 10
-1.00993
 20
-1.65287
 30
0.0
 10
-1.00993
 20
-1.65287
 30
0.0
 10
-1.03254
 20
-1.68956
 30
0.0
 10
-1.05819
 20
-1.72524
 30
0.0
 10
-1.08635
 20
-1.7597
 30
0.0
 10
-1.08635
 20
-1.7597
 30
0.0
 10
-1.10364
 20
-1.78085
 30
0.0
 10
-1.12187
 20
-1.80154
 30
0.0
 10
-1.14092
 20
-1.82172
 30
0.0
 10
-1.14092
 20
-1.82172
 30
0.0
 10
-1.14092
 20
-1.82172
 30
0.0
 10
-1.12985
 20
-1.8239
 30
0.0
 10
-1.12985
 20
-1.8239
 30
0.0
 10
-1.12985
 20
-1.8239
 30
0.0
 10
-1.13063
 20
-1.80981
 30
0.0
 10
-1.09238
 20
-1.85837
 30
0.0
 10
-1.0967
 20
-1.88309
 30
0.0
 10
-1.0967
 20
-1.88309
 30
0.0
 10
-1.10021
 20
-1.90327
 30
0.0
 10
-1.12416
 20
-1.92368
 30
0.0
 10
-1.13863
 20
-1.9364
 30
0.0
 10
-1.13863
 20
-1.9364
 30
0.0
 10
-1.18794
 20
-1.97975
 30
0.0
 10
-1.22099
 20
-2.00921
 30
0.0
 10
-1.26656
 20
-1.95619
 30
0.0
 10
-1.26656
 20
-1.95619
 30
0.0
 10
-1.26656
 20
-1.95619
 30
0.0
 10
-1.27727
 20
-1.94682
 30
0.0
 10
-1.27727
 20
-1.94682
 30
0.0
 10
-1.27727
 20
-1.94682
 30
0.0
 10
-1.29905
 20
-1.96424
 30
0.0
 10
-1.32135
 20
-1.98105
 30
0.0
 10
-1.34409
 20
-1.99722
 30
0.0
 10
-1.34409
 20
-1.99722
 30
0.0
 10
-1.29089
 20
-2.03648
 30
0.0
 10
-1.31863
 20
-2.07276
 30
0.0
 10
-1.36259
 20
-2.1017
 30
0.0
 10
-1.36259
 20
-2.1017
 30
0.0
 10
-1.38462
 20
-2.11623
 30
0.0
 10
-1.41058
 20
-2.13638
 30
0.0
 10
-1.43852
 20
-2.13819
 30
0.0
 10
-1.43852
 20
-2.13819
 30
0.0
 10
-1.48034
 20
-2.14088
 30
0.0
 10
-1.47794
 20
-2.11726
 30
0.0
 10
-1.50028
 20
-2.09729
 30
0.0
 10
-1.50028
 20
-2.09729
 30
0.0
 10
-1.50028
 20
-2.09729
 30
0.0
 10
-1.5012
 20
-2.09507
 30
0.0
 10
-1.5012
 20
-2.09507
 30
0.0
 10
-1.5012
 20
-2.09507
 30
0.0
 10
-1.51885
 20
-2.10462
 30
0.0
 10
-1.5366
 20
-2.11376
 30
0.0
 10
-1.55438
 20
-2.12247
 30
0.0
 10
-1.55438
 20
-2.12247
 30
0.0
 10
-1.55438
 20
-2.12247
 30
0.0
 10
-1.54438
 20
-2.13258
 30
0.0
 10
-1.54438
 20
-2.13258
 30
0.0
 10
-1.54438
 20
-2.13258
 30
0.0
 10
-1.54547
 20
-2.1246
 30
0.0
 10
-1.54411
 20
-2.12323
 30
0.0
 10
-1.54028
 20
-2.1285
 30
0.0
 10
-1.54028
 20
-2.1285
 30
0.0
 10
-1.51532
 20
-2.19026
 30
0.0
 10
-1.5361
 20
-2.20754
 30
0.0
 10
-1.59462
 20
-2.22947
 30
0.0
 10
-1.59462
 20
-2.22947
 30
0.0
 10
-1.61227
 20
-2.23609
 30
0.0
 10
-1.64315
 20
-2.25155
 30
0.0
 10
-1.66264
 20
-2.24213
 30
0.0
 10
-1.66264
 20
-2.24213
 30
0.0
 10
-1.6814
 20
-2.2331
 30
0.0
 10
-1.68802
 20
-2.1899
 30
0.0
 10
-1.69871
 20
-2.1855
 30
0.0
 10
-1.69871
 20
-2.1855
 30
0.0
 10
-1.69871
 20
-2.1855
 30
0.0
 10
-1.69913
 20
-2.18372
 30
0.0
 10
-1.69913
 20
-2.18372
 30
0.0
 10
-1.69913
 20
-2.18372
 30
0.0
 10
-1.71988
 20
-2.19146
 30
0.0
 10
-1.74036
 20
-2.19926
 30
0.0
 10
-1.76054
 20
-2.20724
 30
0.0
 10
-1.76054
 20
-2.20724
 30
0.0
 10
-1.76054
 20
-2.20724
 30
0.0
 10
-1.75604
 20
-2.21196
 30
0.0
 10
-1.75604
 20
-2.21196
 30
0.0
 10
-1.75604
 20
-2.21196
 30
0.0
 10
-1.75802
 20
-2.2133
 30
0.0
 10
-1.73072
 20
-2.26265
 30
0.0
 10
-1.74248
 20
-2.28645
 30
0.0
 10
-1.74248
 20
-2.28645
 30
0.0
 10
-1.75247
 20
-2.30666
 30
0.0
 10
-1.78355
 20
-2.31035
 30
0.0
 10
-1.80443
 20
-2.31878
 30
0.0
 10
-1.80443
 20
-2.31878
 30
0.0
 10
-1.85513
 20
-2.33921
 30
0.0
 10
-1.92468
 20
-2.36986
 30
0.0
 10
-1.94124
 20
-2.29133
 30
0.0
 10
-1.94124
 20
-2.29133
 30
0.0
 10
-1.94124
 20
-2.29133
 30
0.0
 10
-1.94123
 20
-2.29112
 30
0.0
 10
-1.94123
 20
-2.29112
 30
0.0
 10
-1.94123
 20
-2.29112
 30
0.0
 10
-1.96832
 20
-2.30633
 30
0.0
 10
-1.99463
 20
-2.32274
 30
0.0
 10
-2.02013
 20
-2.34069
 30
0.0
 10
-2.02013
 20
-2.34069
 30
0.0
 10
-1.98995
 20
-2.39322
 30
0.0
 10
-1.98825
 20
-2.42693
 30
0.0
 10
-2.03837
 20
-2.46375
 30
0.0
 10
-2.03837
 20
-2.46375
 30
0.0
 10
-2.0544
 20
-2.47553
 30
0.0
 10
-2.09164
 20
-2.50442
 30
0.0
 10
-2.11124
 20
-2.5076
 30
0.0
 10
-2.11124
 20
-2.5076
 30
0.0
 10
-2.13962
 20
-2.51221
 30
0.0
 10
-2.15417
 20
-2.49252
 30
0.0
 10
-2.17182
 20
-2.48084
 30
0.0
 10
-2.17182
 20
-2.48084
 30
0.0
 10
-2.19205
 20
-2.50538
 30
0.0
 10
-2.21126
 20
-2.53163
 30
0.0
 10
-2.22936
 20
-2.55923
 30
0.0
 10
-2.22936
 20
-2.55923
 30
0.0
 10
-2.18284
 20
-2.58428
 30
0.0
 10
-2.16502
 20
-2.62209
 30
0.0
 10
-2.1903
 20
-2.6747
 30
0.0
 10
-2.1903
 20
-2.6747
 30
0.0
 10
-2.20022
 20
-2.69529
 30
0.0
 10
-2.22549
 20
-2.74221
 30
0.0
 10
-2.24981
 20
-2.75123
 30
0.0
 10
-2.24981
 20
-2.75123
 30
0.0
 10
-2.27298
 20
-2.75984
 30
0.0
 10
-2.30042
 20
-2.73795
 30
0.0
 10
-2.32049
 20
-2.74112
 30
0.0
 10
-2.32049
 20
-2.74112
 30
0.0
 10
-2.32049
 20
-2.74112
 30
0.0
 10
-2.32309
 20
-2.73832
 30
0.0
 10
-2.32309
 20
-2.73832
 30
0.0
 10
-2.32309
 20
-2.73832
 30
0.0
 10
-2.33121
 20
-2.75811
 30
0.0
 10
-2.33884
 20
-2.77817
 30
0.0
 10
-2.34584
 20
-2.79846
 30
0.0
 10
-2.34584
 20
-2.79846
 30
0.0
 10
-2.34584
 20
-2.79846
 30
0.0
 10
-2.34252
 20
-2.79843
 30
0.0
 10
-2.34252
 20
-2.79843
 30
0.0
 10
-2.34252
 20
-2.79843
 30
0.0
 10
-2.31242
 20
-2.8405
 30
0.0
 10
-2.28101
 20
-2.81732
 30
0.0
 10
-2.29049
 20
-2.8828
 30
0.0
 10
-2.29049
 20
-2.8828
 30
0.0
 10
-2.29435
 20
-2.90944
 30
0.0
 10
-2.29776
 20
-2.9708
 30
0.0
 10
-2.31773
 20
-2.99065
 30
0.0
 10
-2.31773
 20
-2.99065
 30
0.0
 10
-2.33808
 20
-3.01091
 30
0.0
 10
-2.37296
 20
-2.99832
 30
0.0
 10
-2.39544
 20
-3.01452
 30
0.0
 10
-2.39544
 20
-3.01452
 30
0.0
 10
-2.39544
 20
-3.01452
 30
0.0
 10
-2.39654
 20
-3.01339
 30
0.0
 10
-2.39654
 20
-3.01339
 30
0.0
 10
-2.39654
 20
-3.01339
 30
0.0
 10
-2.39981
 20
-3.03918
 30
0.0
 10
-2.40208
 20
-3.06491
 30
0.0
 10
-2.40319
 20
-3.09039
 30
0.0
 10
-2.40319
 20
-3.09039
 30
0.0
 10
-2.40319
 20
-3.09039
 30
0.0
 10
-2.39546
 20
-3.08508
 30
0.0
 10
-2.39546
 20
-3.08508
 30
0.0
 10
-2.39546
 20
-3.08508
 30
0.0
 10
-2.32142
 20
-3.07697
 30
0.0
 10
-2.32587
 20
-3.1411
 30
0.0
 10
-2.31994
 20
-3.19942
 30
0.0
 10
-2.31994
 20
-3.19942
 30
0.0
 10
-2.31211
 20
-3.27644
 30
0.0
 10
-2.3332
 20
-3.26248
 30
0.0
 10
-2.38553
 20
-3.29341
 30
0.0
 10
-2.38553
 20
-3.29341
 30
0.0
 10
-2.37984
 20
-3.31727
 30
0.0
 10
-2.37281
 20
-3.34048
 30
0.0
 10
-2.36431
 20
-3.36284
 30
0.0
 10
-2.36431
 20
-3.36284
 30
0.0
 10
-2.30831
 20
-3.35488
 30
0.0
 10
-2.2967
 20
-3.3422
 30
0.0
 10
-2.26089
 20
-3.39374
 30
0.0
 10
-2.26089
 20
-3.39374
 30
0.0
 10
-2.25344
 20
-3.40447
 30
0.0
 10
-2.22607
 20
-3.437
 30
0.0
 10
-2.22424
 20
-3.44765
 30
0.0
 10
-2.22424
 20
-3.44765
 30
0.0
 10
-2.22001
 20
-3.47248
 30
0.0
 10
-2.24729
 20
-3.49612
 30
0.0
 10
-2.24552
 20
-3.51281
 30
0.0
 10
-2.24552
 20
-3.51281
 30
0.0
 10
-2.24552
 20
-3.51281
 30
0.0
 10
-2.27291
 20
-3.51201
 30
0.0
 10
-2.27291
 20
-3.51201
 30
0.0
 10
-2.27291
 20
-3.51201
 30
0.0
 10
-2.25013
 20
-3.5364
 30
0.0
 10
-2.2242
 20
-3.55837
 30
0.0
 10
-2.19479
 20
-3.57737
 30
0.0
 10
-2.19479
 20
-3.57737
 30
0.0
 10
-2.19479
 20
-3.57737
 30
0.0
 10
-2.19258
 20
-3.57456
 30
0.0
 10
-2.19258
 20
-3.57456
 30
0.0
 10
-2.19258
 20
-3.57456
 30
0.0
 10
-2.1614
 20
-3.54284
 30
0.0
 10
-2.1543
 20
-3.50527
 30
0.0
 10
-2.10437
 20
-3.51382
 30
0.0
 10
-2.10437
 20
-3.51382
 30
0.0
 10
-2.02842
 20
-3.52676
 30
0.0
 10
-2.00606
 20
-3.56994
 30
0.0
 10
-2.02502
 20
-3.64071
 30
0.0
 10
-2.02502
 20
-3.64071
 30
0.0
 10
-2.02502
 20
-3.64071
 30
0.0
 10
-2.0325
 20
-3.64292
 30
0.0
 10
-2.0325
 20
-3.64292
 30
0.0
 10
-2.0325
 20
-3.64292
 30
0.0
 10
-2.00639
 20
-3.64861
 30
0.0
 10
-1.97873
 20
-3.65279
 30
0.0
 10
-1.94948
 20
-3.65534
 30
0.0
 10
-1.94948
 20
-3.65534
 30
0.0
 10
-1.94948
 20
-3.65534
 30
0.0
 10
-1.95007
 20
-3.65394
 30
0.0
 10
-1.95007
 20
-3.65394
 30
0.0
 10
-1.95007
 20
-3.65394
 30
0.0
 10
-1.93226
 20
-3.59562
 30
0.0
 10
-1.94887
 20
-3.57014
 30
0.0
 10
-1.87701
 20
-3.56576
 30
0.0
 10
-1.87701
 20
-3.56576
 30
0.0
 10
-1.81844
 20
-3.56219
 30
0.0
 10
-1.72226
 20
-3.55755
 30
0.0
 10
-1.73815
 20
-3.63935
 30
0.0
 10
-1.73815
 20
-3.63935
 30
0.0
 10
-1.7159
 20
-3.63346
 30
0.0
 10
-1.69424
 20
-3.62624
 30
0.0
 10
-1.67322
 20
-3.61785
 30
0.0
 10
-1.67322
 20
-3.61785
 30
0.0
 10
-1.67322
 20
-3.61785
 30
0.0
 10
-1.68107
 20
-3.61425
 30
0.0
 10
-1.68107
 20
-3.61425
 30
0.0
 10
-1.68107
 20
-3.61425
 30
0.0
 10
-1.67189
 20
-3.61125
 30
0.0
 10
-1.66286
 20
-3.60787
 30
0.0
 10
-1.65398
 20
-3.60412
 30
0.0
 10
-1.65398
 20
-3.60412
 30
0.0
 10
-1.67179
 20
-3.5396
 30
0.0
 10
-1.67606
 20
-3.53159
 30
0.0
 10
-1.61934
 20
-3.49421
 30
0.0
 10
-1.61934
 20
-3.49421
 30
0.0
 10
-1.57548
 20
-3.46532
 30
0.0
 10
-1.53511
 20
-3.44013
 30
0.0
 10
-1.49585
 20
-3.49519
 30
0.0
 10
-1.49585
 20
-3.49519
 30
0.0
 10
-1.49585
 20
-3.49519
 30
0.0
 10
-1.49389
 20
-3.5031
 30
0.0
 10
-1.49389
 20
-3.5031
 30
0.0
 10
-1.49389
 20
-3.5031
 30
0.0
 10
-1.47411
 20
-3.48437
 30
0.0
 10
-1.45572
 20
-3.46433
 30
0.0
 10
-1.43897
 20
-3.44309
 30
0.0
 10
-1.43897
 20
-3.44309
 30
0.0
 10
-1.43897
 20
-3.44309
 30
0.0
 10
-1.46057
 20
-3.43785
 30
0.0
 10
-1.46057
 20
-3.43785
 30
0.0
 10
-1.46057
 20
-3.43785
 30
0.0
 10
-1.45676
 20
-3.43361
 30
0.0
 10
-1.4538
 20
-3.4347
 30
0.0
 10
-1.45211
 20
-3.43013
 30
0.0
 10
-1.45211
 20
-3.43013
 30
0.0
 10
-1.47317
 20
-3.4193
 30
0.0
 10
-1.491
 20
-3.40166
 30
0.0
 10
-1.50314
 20
-3.38127
 30
0.0
 10
-1.50314
 20
-3.38127
 30
0.0
 10
-1.48618
 20
-3.35036
 30
0.0
 10
-1.4664
 20
-3.31742
 30
0.0
 10
-1.44296
 20
-3.28996
 30
0.0
 10
-1.44296
 20
-3.28996
 30
0.0
 10
-1.43282
 20
-3.27809
 30
0.0
 10
-1.43118
 20
-3.26533
 30
0.0
 10
-1.4166
 20
-3.26135
 30
0.0
 10
-1.4166
 20
-3.26135
 30
0.0
 10
-1.39756
 20
-3.25619
 30
0.0
 10
-1.3558
 20
-3.27497
 30
0.0
 10
-1.35916
 20
-3.28791
 30
0.0
 10
-1.35916
 20
-3.28791
 30
0.0
 10
-1.35916
 20
-3.28791
 30
0.0
 10
-1.35545
 20
-3.2942
 30
0.0
 10
-1.35545
 20
-3.2942
 30
0.0
 10
-1.35545
 20
-3.2942
 30
0.0
 10
-1.34415
 20
-3.26348
 30
0.0
 10
-1.33566
 20
-3.23168
 30
0.0
 10
-1.33035
 20
-3.19912
 30
0.0
 10
-1.33035
 20
-3.19912
 30
0.0
 10
-1.33035
 20
-3.19912
 30
0.0
 10
-1.35034
 20
-3.20854
 30
0.0
 10
-1.35034
 20
-3.20854
 30
0.0
 10
-1.35034
 20
-3.20854
 30
0.0
 10
-1.40111
 20
-3.18371
 30
0.0
 10
-1.41237
 20
-3.19376
 30
0.0
 10
-1.40422
 20
-3.13025
 30
0.0
 10
-1.40422
 20
-3.13025
 30
0.0
 10
-1.39801
 20
-3.08173
 30
0.0
 10
-1.41227
 20
-3.01279
 30
0.0
 10
-1.34153
 20
-3.02333
 30
0.0
 10
-1.34153
 20
-3.02333
 30
0.0
 10
-1.34153
 20
-3.02333
 30
0.0
 10
-1.33237
 20
-3.02534
 30
0.0
 10
-1.33237
 20
-3.02534
 30
0.0
 10
-1.33237
 20
-3.02534
 30
0.0
 10
-1.33896
 20
-2.98999
 30
0.0
 10
-1.34942
 20
-2.95448
 30
0.0
 10
-1.36411
 20
-2.91921
 30
0.0
 10
-1.36411
 20
-2.91921
 30
0.0
 10
-1.36411
 20
-2.91921
 30
0.0
 10
-1.3724
 20
-2.93957
 30
0.0
 10
-1.3724
 20
-2.93957
 30
0.0
 10
-1.3724
 20
-2.93957
 30
0.0
 10
-1.37079
 20
-2.93197
 30
0.0
 10
-1.37324
 20
-2.92716
 30
0.0
 10
-1.37981
 20
-2.92512
 30
0.0
 10
-1.37981
 20
-2.92512
 30
0.0
 10
-1.42508
 20
-2.94186
 30
0.0
 10
-1.43963
 20
-2.94093
 30
0.0
 10
-1.4714
 20
-2.90456
 30
0.0
 10
-1.4714
 20
-2.90456
 30
0.0
 10
-1.50755
 20
-2.86319
 30
0.0
 10
-1.5529
 20
-2.79766
 30
0.0
 10
-1.47382
 20
-2.7764
 30
0.0
 10
-1.47382
 20
-2.7764
 30
0.0
 10
-1.47382
 20
-2.7764
 30
0.0
 10
-1.45625
 20
-2.7704
 30
0.0
 10
-1.45625
 20
-2.7704
 30
0.0
 10
-1.45625
 20
-2.7704
 30
0.0
 10
-1.49417
 20
-2.72996
 30
0.0
 10
-1.54186
 20
-2.69854
 30
0.0
 10
-1.59446
 20
-2.69022
 30
0.0
 10
-1.59446
 20
-2.69022
 30
0.0
 10
-1.59446
 20
-2.69022
 30
0.0
 10
-1.54877
 20
-2.73229
 30
0.0
 10
-1.54877
 20
-2.73229
 30
0.0
 10
-1.54877
 20
-2.73229
 30
0.0
 10
-1.55097
 20
-2.72291
 30
0.0
 10
-1.55523
 20
-2.71979
 30
0.0
 10
-1.56156
 20
-2.72291
 30
0.0
 10
-1.56156
 20
-2.72291
 30
0.0
 10
-1.55341
 20
-2.786
 30
0.0
 10
-1.69616
 20
-2.77963
 30
0.0
 10
-1.70753
 20
-2.71906
 30
0.0
 10
-1.70753
 20
-2.71906
 30
0.0
 10
-1.70753
 20
-2.71906
 30
0.0
 10
-1.70945
 20
-2.71076
 30
0.0
 10
-1.70945
 20
-2.71076
 30
0.0
 10
-1.70945
 20
-2.71076
 30
0.0
 10
-1.75514
 20
-2.73422
 30
0.0
 10
-1.8026
 20
-2.77551
 30
0.0
 10
-1.81517
 20
-2.82171
 30
0.0
 10
-1.81517
 20
-2.82171
 30
0.0
 10
-1.81517
 20
-2.82171
 30
0.0
 10
-1.80013
 20
-2.81166
 30
0.0
 10
-1.80013
 20
-2.81166
 30
0.0
 10
-1.80013
 20
-2.81166
 30
0.0
 10
-1.77403
 20
-2.78009
 30
0.0
 10
-1.73575
 20
-2.80994
 30
0.0
 10
-1.72078
 20
-2.83494
 30
0.0
 10
-1.72078
 20
-2.83494
 30
0.0
 10
-1.69612
 20
-2.87608
 30
0.0
 10
-1.69643
 20
-2.90624
 30
0.0
 10
-1.72517
 20
-2.94395
 30
0.0
 10
-1.72517
 20
-2.94395
 30
0.0
 10
-1.72517
 20
-2.94395
 30
0.0
 10
-1.76825
 20
-2.93725
 30
0.0
 10
-1.76825
 20
-2.93725
 30
0.0
 10
-1.76825
 20
-2.93725
 30
0.0
 10
-1.74851
 20
-2.95238
 30
0.0
 10
-1.70618
 20
-2.97231
 30
0.0
 10
-1.70088
 20
-2.99044
 30
0.0
 10
-1.70088
 20
-2.99044
 30
0.0
 10
-1.68488
 20
-3.0454
 30
0.0
 10
-1.80821
 20
-3.07371
 30
0.0
 10
-1.84334
 20
-3.07648
 30
0.0
 10
-1.84334
 20
-3.07648
 30
0.0
 10
-1.98862
 20
-3.08777
 30
0.0
 10
-2.09569
 20
-2.96775
 30
0.0
 10
-2.0863
 20
-2.82743
 30
0.0
 10
-2.0863
 20
-2.82743
 30
0.0
 10
-2.07673
 20
-2.68487
 30
0.0
 10
-1.97039
 20
-2.54757
 30
0.0
 10
-1.85393
 20
-2.47181
 30
0.0
 10
-1.85393
 20
-2.47181
 30
0.0
 10
-1.36248
 20
-2.15207
 30
0.0
 10
-0.67668
 20
-2.69426
 30
0.0
 10
-0.75293
 20
-3.23931
 30
0.0
 10
-0.75293
 20
-3.23931
 30
0.0
 10
-0.86138
 20
-4.01453
 30
0.0
 10
-1.67798
 20
-4.56677
 30
0.0
 10
-2.39727
 20
-4.15184
 30
0.0
 10
-2.39727
 20
-4.15184
 30
0.0
 10
-2.85563
 20
-3.88749
 30
0.0
 10
-2.97393
 20
-3.28861
 30
0.0
 10
-2.90935
 20
-2.79857
 30
0.0
 10
-2.90935
 20
-2.79857
 30
0.0
 10
-2.87674
 20
-2.55124
 30
0.0
 10
-2.8106
 20
-2.30655
 30
0.0
 10
-2.68494
 20
-2.08946
 30
0.0
 10
-2.68494
 20
-2.08946
 30
0.0
 10
-2.62328
 20
-1.98293
 30
0.0
 10
-2.55737
 20
-1.89017
 30
0.0
 10
-2.45747
 20
-1.81746
 30
0.0
 10
-2.45747
 20
-1.81746
 30
0.0
 10
-2.34321
 20
-1.73426
 30
0.0
 10
-2.21722
 20
-1.66843
 30
0.0
 10
-2.0898
 20
-1.60804
 30
0.0
 10
-2.0898
 20
-1.60804
 30
0.0
 10
-1.94943
 20
-1.54154
 30
0.0
 10
-1.796
 20
-1.46056
 30
0.0
 10
-1.72364
 20
-1.31548
 30
0.0
 10
-1.72364
 20
-1.31548
 30
0.0
 10
-1.67675
 20
-1.22148
 30
0.0
 10
-1.66061
 20
-1.09779
 30
0.0
 10
-1.67107
 20
-0.99431
 30
0.0
 10
-1.67107
 20
-0.99431
 30
0.0
 10
-1.68908
 20
-0.81581
 30
0.0
 10
-1.7942
 20
-0.66107
 30
0.0
 10
-1.91525
 20
-0.53258
 30
0.0
 10
-1.91525
 20
-0.53258
 30
0.0
 10
-2.14189
 20
-0.29195
 30
0.0
 10
-2.35769
 20
-0.35556
 30
0.0
 10
-2.60029
 20
-0.55015
 30
0.0
 10
-2.60029
 20
-0.55015
 30
0.0
 10
-2.74113
 20
-0.66314
 30
0.0
 10
-2.85686
 20
-0.7997
 30
0.0
 10
-2.95935
 20
-0.94889
 30
0.0
 10
-2.95935
 20
-0.94889
 30
0.0
 10
-2.95935
 20
-0.94889
 30
0.0
 10
-2.94668
 20
-0.95516
 30
0.0
 10
-2.94668
 20
-0.95516
 30
0.0
 10
-2.94668
 20
-0.95516
 30
0.0
 10
-2.95238
 20
-0.94782
 30
0.0
 10
-2.95271
 20
-0.94442
 30
0.0
 10
-2.94764
 20
-0.94493
 30
0.0
 10
-2.94764
 20
-0.94493
 30
0.0
 10
-2.88979
 20
-0.98234
 30
0.0
 10
-2.90116
 20
-1.01537
 30
0.0
 10
-2.94019
 20
-1.06007
 30
0.0
 10
-2.94019
 20
-1.06007
 30
0.0
 10
-2.95273
 20
-1.07444
 30
0.0
 10
-2.97569
 20
-1.11169
 30
0.0
 10
-2.993
 20
-1.11843
 30
0.0
 10
-2.993
 20
-1.11843
 30
0.0
 10
-3.01575
 20
-1.12727
 30
0.0
 10
-3.02305
 20
-1.1165
 30
0.0
 10
-3.04809
 20
-1.1051
 30
0.0
 10
-3.04809
 20
-1.1051
 30
0.0
 10
-3.04809
 20
-1.1051
 30
0.0
 10
-3.05438
 20
-1.0962
 30
0.0
 10
-3.05438
 20
-1.0962
 30
0.0
 10
-3.05438
 20
-1.0962
 30
0.0
 10
-3.06891
 20
-1.12004
 30
0.0
 10
-3.08324
 20
-1.14408
 30
0.0
 10
-3.09739
 20
-1.16831
 30
0.0
 10
-3.09739
 20
-1.16831
 30
0.0
 10
-3.04289
 20
-1.19135
 30
0.0
 10
-3.05915
 20
-1.23507
 30
0.0
 10
-3.07971
 20
-1.28222
 30
0.0
 10
-3.07971
 20
-1.28222
 30
0.0
 10
-3.10745
 20
-1.34589
 30
0.0
 10
-3.13124
 20
-1.40413
 30
0.0
 10
-3.19802
 20
-1.35206
 30
0.0
 10
-3.19802
 20
-1.35206
 30
0.0
 10
-3.19802
 20
-1.35206
 30
0.0
 10
-3.19955
 20
-1.3502
 30
0.0
 10
-3.19955
 20
-1.3502
 30
0.0
 10
-3.19955
 20
-1.3502
 30
0.0
 10
-3.21255
 20
-1.37405
 30
0.0
 10
-3.22549
 20
-1.39797
 30
0.0
 10
-3.23839
 20
-1.42193
 30
0.0
 10
-3.23839
 20
-1.42193
 30
0.0
 10
-3.18659
 20
-1.44074
 30
0.0
 10
-3.19709
 20
-1.4874
 30
0.0
 10
-3.21985
 20
-1.53265
 30
0.0
 10
-3.21985
 20
-1.53265
 30
0.0
 10
-3.24635
 20
-1.58536
 30
0.0
 10
-3.2762
 20
-1.66598
 30
0.0
 10
-3.33913
 20
-1.61223
 30
0.0
 10
-3.33913
 20
-1.61223
 30
0.0
 10
-3.33913
 20
-1.61223
 30
0.0
 10
-3.34012
 20
-1.61072
 30
0.0
 10
-3.34012
 20
-1.61072
 30
0.0
 10
-3.34012
 20
-1.61072
 30
0.0
 10
-3.35557
 20
-1.63909
 30
0.0
 10
-3.37111
 20
-1.66738
 30
0.0
 10
-3.38681
 20
-1.69553
 30
0.0
 10
-3.38681
 20
-1.69553
 30
0.0
 10
-3.32928
 20
-1.66232
 30
0.0
 10
-3.33913
 20
-1.76044
 30
0.0
 10
-3.35224
 20
-1.78767
 30
0.0
 10
-3.35224
 20
-1.78767
 30
0.0
 10
-3.37451
 20
-1.83395
 30
0.0
 10
-3.41231
 20
-1.93208
 30
0.0
 10
-3.47582
 20
-1.87239
 30
0.0
 10
-3.47582
 20
-1.87239
 30
0.0
 10
-3.47582
 20
-1.87239
 30
0.0
 10
-3.48493
 20
-1.86469
 30
0.0
 10
-3.48493
 20
-1.86469
 30
0.0
 10
-3.48493
 20
-1.86469
 30
0.0
 10
-3.50258
 20
-1.89374
 30
0.0
 10
-3.52056
 20
-1.92253
 30
0.0
 10
-3.53894
 20
-1.95094
 30
0.0
 10
-3.53894
 20
-1.95094
 30
0.0
 10
-3.53894
 20
-1.95094
 30
0.0
 10
-3.53315
 20
-1.95177
 30
0.0
 10
-3.53315
 20
-1.95177
 30
0.0
 10
-3.53315
 20
-1.95177
 30
0.0
 10
-3.46632
 20
-1.92242
 30
0.0
 10
-3.49624
 20
-2.02621
 30
0.0
 10
-3.51209
 20
-2.05419
 30
0.0
 10
-3.51209
 20
-2.05419
 30
0.0
 10
-3.5212
 20
-2.07024
 30
0.0
 10
-3.54773
 20
-2.12033
 30
0.0
 10
-3.56501
 20
-2.12747
 30
0.0
 10
-3.56501
 20
-2.12747
 30
0.0
 10
-3.59385
 20
-2.13943
 30
0.0
 10
-3.61914
 20
-2.10646
 30
0.0
 10
-3.63898
 20
-2.1017
 30
0.0
 10
-3.63898
 20
-2.1017
 30
0.0
 10
-3.63898
 20
-2.1017
 30
0.0
 10
-3.64146
 20
-2.09907
 30
0.0
 10
-3.64146
 20
-2.09907
 30
0.0
 10
-3.64146
 20
-2.09907
 30
0.0
 10
-3.65882
 20
-2.12238
 30
0.0
 10
-3.67658
 20
-2.14532
 30
0.0
 10
-3.69479
 20
-2.16786
 30
0.0
 10
-3.69479
 20
-2.16786
 30
0.0
 10
-3.61981
 20
-2.17642
 30
0.0
 10
-3.67092
 20
-2.26166
 30
0.0
 10
-3.70064
 20
-2.29952
 30
0.0
 10
-3.70064
 20
-2.29952
 30
0.0
 10
-3.71413
 20
-2.31671
 30
0.0
 10
-3.75092
 20
-2.36546
 30
0.0
 10
-3.77615
 20
-2.36704
 30
0.0
 10
-3.77615
 20
-2.36704
 30
0.0
 10
-3.80288
 20
-2.36867
 30
0.0
 10
-3.81962
 20
-2.32922
 30
0.0
 10
-3.83742
 20
-2.32661
 30
0.0
 10
-3.83742
 20
-2.32661
 30
0.0
 10
-3.83742
 20
-2.32661
 30
0.0
 10
-3.83789
 20
-2.32583
 30
0.0
 10
-3.83789
 20
-2.32583
 30
0.0
 10
-3.83789
 20
-2.32583
 30
0.0
 10
-3.86155
 20
-2.34896
 30
0.0
 10
-3.88592
 20
-2.37146
 30
0.0
 10
-3.91113
 20
-2.39318
 30
0.0
 10
-3.91113
 20
-2.39318
 30
0.0
 10
-3.91113
 20
-2.39318
 30
0.0
 10
-3.88592
 20
-2.40156
 30
0.0
 10
-3.88592
 20
-2.40156
 30
0.0
 10
-3.88592
 20
-2.40156
 30
0.0
 10
-3.88934
 20
-2.39375
 30
0.0
 10
-3.88987
 20
-2.38608
 30
0.0
 10
-3.88756
 20
-2.37857
 30
0.0
 10
-3.88756
 20
-2.37857
 30
0.0
 10
-3.84473
 20
-2.43432
 30
0.0
 10
-3.85582
 20
-2.45939
 30
0.0
 10
-3.90518
 20
-2.50246
 30
0.0
 10
-3.90518
 20
-2.50246
 30
0.0
 10
-3.92214
 20
-2.51721
 30
0.0
 10
-3.94926
 20
-2.53961
 30
0.0
 10
-3.97292
 20
-2.54181
 30
0.0
 10
-3.97292
 20
-2.54181
 30
0.0
 10
-4.00823
 20
-2.54512
 30
0.0
 10
-4.00998
 20
-2.52488
 30
0.0
 10
-4.03586
 20
-2.50739
 30
0.0
 10
-4.03586
 20
-2.50739
 30
0.0
 10
-4.03586
 20
-2.50739
 30
0.0
 10
-4.04611
 20
-2.49641
 30
0.0
 10
-4.04611
 20
-2.49641
 30
0.0
 10
-4.04611
 20
-2.49641
 30
0.0
 10
-4.06297
 20
-2.50781
 30
0.0
 10
-4.08006
 20
-2.51898
 30
0.0
 10
-4.09761
 20
-2.52974
 30
0.0
 10
-4.09761
 20
-2.52974
 30
0.0
 10
-4.09761
 20
-2.52974
 30
0.0
 10
-4.11699
 20
-2.54157
 30
0.0
 10
-4.11699
 20
-2.54157
 30
0.0
 10
-4.11699
 20
-2.54157
 30
0.0
 10
-4.11699
 20
-2.54157
 30
0.0
 10
-4.10641
 20
-2.54711
 30
0.0
 10
-4.10641
 20
-2.54711
 30
0.0
 10
-4.10641
 20
-2.54711
 30
0.0
 10
-4.05367
 20
-2.58209
 30
0.0
 10
-4.21097
 20
-2.78405
 30
0.0
 10
-4.28281
 20
-2.66175
 30
0.0
 10
-4.28281
 20
-2.66175
 30
0.0
 10
-4.28281
 20
-2.66175
 30
0.0
 10
-4.28951
 20
-2.64704
 30
0.0
 10
-4.28951
 20
-2.64704
 30
0.0
 10
-4.28951
 20
-2.64704
 30
0.0
 10
-4.31635
 20
-2.66394
 30
0.0
 10
-4.34303
 20
-2.68118
 30
0.0
 10
-4.36931
 20
-2.69887
 30
0.0
 10
-4.36931
 20
-2.69887
 30
0.0
 10
-4.36931
 20
-2.69887
 30
0.0
 10
-4.36217
 20
-2.70144
 30
0.0
 10
-4.36217
 20
-2.70144
 30
0.0
 10
-4.36217
 20
-2.70144
 30
0.0
 10
-4.31982
 20
-2.75521
 30
0.0
 10
-4.35381
 20
-2.78779
 30
0.0
 10
-4.39675
 20
-2.82494
 30
0.0
 10
-4.39675
 20
-2.82494
 30
0.0
 10
-4.45364
 20
-2.87417
 30
0.0
 10
-4.48605
 20
-2.88305
 30
0.0
 10
-4.53857
 20
-2.82931
 30
0.0
 10
-4.53857
 20
-2.82931
 30
0.0
 10
-4.53857
 20
-2.82931
 30
0.0
 10
-4.53916
 20
-2.82798
 30
0.0
 10
-4.53916
 20
-2.82798
 30
0.0
 10
-4.53916
 20
-2.82798
 30
0.0
 10
-4.56503
 20
-2.85084
 30
0.0
 10
-4.58959
 20
-2.8746
 30
0.0
 10
-4.61249
 20
-2.89942
 30
0.0
 10
-4.61249
 20
-2.89942
 30
0.0
 10
-4.61249
 20
-2.89942
 30
0.0
 10
-4.60121
 20
-2.9012
 30
0.0
 10
-4.60121
 20
-2.9012
 30
0.0
 10
-4.60121
 20
-2.9012
 30
0.0
 10
-4.60657
 20
-2.89326
 30
0.0
 10
-4.60599
 20
-2.90706
 30
0.0
 10
-4.60121
 20
-2.9012
 30
0.0
 10
-4.60121
 20
-2.9012
 30
0.0
 10
-4.53789
 20
-2.93615
 30
0.0
 10
-4.56698
 20
-2.98238
 30
0.0
 10
-4.59998
 20
-3.02754
 30
0.0
 10
-4.59998
 20
-3.02754
 30
0.0
 10
-4.61552
 20
-3.0488
 30
0.0
 10
-4.64375
 20
-3.09389
 30
0.0
 10
-4.66865
 20
-3.10457
 30
0.0
 10
-4.66865
 20
-3.10457
 30
0.0
 10
-4.69346
 20
-3.11521
 30
0.0
 10
-4.70966
 20
-3.10074
 30
0.0
 10
-4.7326
 20
-3.09831
 30
0.0
 10
-4.7326
 20
-3.09831
 30
0.0
 10
-4.7326
 20
-3.09831
 30
0.0
 10
-4.7387
 20
-3.08798
 30
0.0
 10
-4.7387
 20
-3.08798
 30
0.0
 10
-4.7387
 20
-3.08798
 30
0.0
 10
-4.75232
 20
-3.1193
 30
0.0
 10
-4.76325
 20
-3.15212
 30
0.0
 10
-4.77109
 20
-3.18662
 30
0.0
 10
-4.77109
 20
-3.18662
 30
0.0
 10
-4.77109
 20
-3.18662
 30
0.0
 10
-4.76788
 20
-3.1865
 30
0.0
 10
-4.76788
 20
-3.1865
 30
0.0
 10
-4.76788
 20
-3.1865
 30
0.0
 10
-4.70095
 20
-3.19606
 30
0.0
 10
-4.71054
 20
-3.23993
 30
0.0
 10
-4.71054
 20
-3.29556
 30
0.0
 10
-4.71054
 20
-3.29556
 30
0.0
 10
-4.71054
 20
-3.31998
 30
0.0
 10
-4.70238
 20
-3.36199
 30
0.0
 10
-4.71594
 20
-3.38403
 30
0.0
 10
-4.71594
 20
-3.38403
 30
0.0
 10
-4.72848
 20
-3.40442
 30
0.0
 10
-4.75889
 20
-3.40821
 30
0.0
 10
-4.77593
 20
-3.4239
 30
0.0
 10
-4.77593
 20
-3.4239
 30
0.0
 10
-4.77101
 20
-3.45053
 30
0.0
 10
-4.76409
 20
-3.47537
 30
0.0
 10
-4.75535
 20
-3.49842
 30
0.0
 10
-4.75535
 20
-3.49842
 30
0.0
 10
-4.70438
 20
-3.48237
 30
0.0
 10
-4.69254
 20
-3.47688
 30
0.0
 10
-4.65311
 20
-3.51527
 30
0.0
 10
-4.65311
 20
-3.51527
 30
0.0
 10
-4.59176
 20
-3.57506
 30
0.0
 10
-4.62183
 20
-3.58001
 30
0.0
 10
-4.61794
 20
-3.64952
 30
0.0
 10
-4.61794
 20
-3.64952
 30
0.0
 10
-4.61794
 20
-3.64952
 30
0.0
 10
-4.64404
 20
-3.65102
 30
0.0
 10
-4.64404
 20
-3.65102
 30
0.0
 10
-4.64404
 20
-3.65102
 30
0.0
 10
-4.62038
 20
-3.66943
 30
0.0
 10
-4.59439
 20
-3.68471
 30
0.0
 10
-4.56661
 20
-3.69696
 30
0.0
 10
-4.56661
 20
-3.69696
 30
0.0
 10
-4.56661
 20
-3.69696
 30
0.0
 10
-4.56881
 20
-3.68425
 30
0.0
 10
-4.56881
 20
-3.68425
 30
0.0
 10
-4.56881
 20
-3.68425
 30
0.0
 10
-4.54175
 20
-3.61312
 30
0.0
 10
-4.56199
 20
-3.61967
 30
0.0
 10
-4.47822
 20
-3.63299
 30
0.0
 10
-4.47822
 20
-3.63299
 30
0.0
 10
-4.45475
 20
-3.63673
 30
0.0
 10
-4.40297
 20
-3.63908
 30
0.0
 10
-4.38496
 20
-3.65441
 30
0.0
 10
-4.38496
 20
-3.65441
 30
0.0
 10
-4.36259
 20
-3.6734
 30
0.0
 10
-4.37612
 20
-3.70079
 30
0.0
 10
-4.36658
 20
-3.72448
 30
0.0
 10
-4.36658
 20
-3.72448
 30
0.0
 10
-4.36658
 20
-3.72448
 30
0.0
 10
-4.37684
 20
-3.73517
 30
0.0
 10
-4.37684
 20
-3.73517
 30
0.0
 10
-4.37684
 20
-3.73517
 30
0.0
 10
-4.34469
 20
-3.73542
 30
0.0
 10
-4.31187
 20
-3.73301
 30
0.0
 10
-4.27889
 20
-3.72802
 30
0.0
 10
-4.27889
 20
-3.72802
 30
0.0
 10
-4.27889
 20
-3.72802
 30
0.0
 10
-4.28281
 20
-3.72008
 30
0.0
 10
-4.28281
 20
-3.72008
 30
0.0
 10
-4.28281
 20
-3.72008
 30
0.0
 10
-4.27357
 20
-3.68626
 30
0.0
 10
-4.29413
 20
-3.65711
 30
0.0
 10
-4.26695
 20
-3.62895
 30
0.0
 10
-4.26695
 20
-3.62895
 30
0.0
 10
-4.25384
 20
-3.61536
 30
0.0
 10
-4.22726
 20
-3.61058
 30
0.0
 10
-4.2101
 20
-3.60593
 30
0.0
 10
-4.2101
 20
-3.60593
 30
0.0
 10
-4.13456
 20
-3.58536
 30
0.0
 10
-4.1126
 20
-3.59603
 30
0.0
 10
-4.08437
 20
-3.66716
 30
0.0
 10
-4.08437
 20
-3.66716
 30
0.0
 10
-4.08437
 20
-3.66716
 30
0.0
 10
-4.08772
 20
-3.67283
 30
0.0
 10
-4.08772
 20
-3.67283
 30
0.0
 10
-4.08772
 20
-3.67283
 30
0.0
 10
-4.06167
 20
-3.6621
 30
0.0
 10
-4.03535
 20
-3.64988
 30
0.0
 10
-4.00997
 20
-3.63617
 30
0.0
 10
-4.00997
 20
-3.63617
 30
0.0
 10
-4.00997
 20
-3.63617
 30
0.0
 10
-4.02263
 20
-3.63187
 30
0.0
 10
-4.02263
 20
-3.63187
 30
0.0
 10
-4.02263
 20
-3.63187
 30
0.0
 10
-4.01567
 20
-3.61314
 30
0.0
 10
-4.0466
 20
-3.58226
 30
0.0
 10
-4.01162
 20
-3.54368
 30
0.0
 10
-4.01162
 20
-3.54368
 30
0.0
 10
-3.99577
 20
-3.52622
 30
0.0
 10
-3.96275
 20
-3.49687
 30
0.0
 10
-3.93854
 20
-3.49599
 30
0.0
 10
-3.93854
 20
-3.49599
 30
0.0
 10
-3.9165
 20
-3.49519
 30
0.0
 10
-3.89084
 20
-3.52397
 30
0.0
 10
-3.88153
 20
-3.52604
 30
0.0
 10
-3.88153
 20
-3.52604
 30
0.0
 10
-3.88153
 20
-3.52604
 30
0.0
 10
-3.8793
 20
-3.53676
 30
0.0
 10
-3.8793
 20
-3.53676
 30
0.0
 10
-3.8793
 20
-3.53676
 30
0.0
 10
-3.86806
 20
-3.52367
 30
0.0
 10
-3.85831
 20
-3.50994
 30
0.0
 10
-3.85044
 20
-3.49555
 30
0.0
 10
-3.85044
 20
-3.49555
 30
0.0
 10
-3.84183
 20
-3.4798
 30
0.0
 10
-3.83527
 20
-3.46406
 30
0.0
 10
-3.83058
 20
-3.44852
 30
0.0
 10
-3.83058
 20
-3.44852
 30
0.0
 10
-3.87928
 20
-3.43343
 30
0.0
 10
-3.8976
 20
-3.44597
 30
0.0
 10
-3.91447
 20
-3.39152
 30
0.0
 10
-3.91447
 20
-3.39152
 30
0.0
 10
-3.92386
 20
-3.3613
 30
0.0
 10
-3.94691
 20
-3.28262
 30
0.0
 10
-3.89033
 20
-3.28791
 30
0.0
 10
-3.89033
 20
-3.28791
 30
0.0
 10
-3.89033
 20
-3.28791
 30
0.0
 10
-3.84886
 20
-3.29645
 30
0.0
 10
-3.84886
 20
-3.29645
 30
0.0
 10
-3.84886
 20
-3.29645
 30
0.0
 10
-3.87582
 20
-3.25577
 30
0.0
 10
-3.9214
 20
-3.22781
 30
0.0
 10
-3.9794
 20
-3.22247
 30
0.0
 10
-3.9794
 20
-3.22247
 30
0.0
 10
-4.0191
 20
-3.25439
 30
0.0
 10
-3.96993
 20
-3.29047
 30
0.0
 10
-4.03802
 20
-3.30784
 30
0.0
 10
-4.03802
 20
-3.30784
 30
0.0
 10
-4.10351
 20
-3.32451
 30
0.0
 10
-4.12964
 20
-3.3234
 30
0.0
 10
-4.17241
 20
-3.27946
 30
0.0
 10
-4.17241
 20
-3.27946
 30
0.0
 10
-4.19901
 20
-3.28703
 30
0.0
 10
-4.22447
 20
-3.28658
 30
0.0
 10
-4.24641
 20
-3.26722
 30
0.0
 10
-4.24641
 20
-3.26722
 30
0.0
 10
-4.31677
 20
-3.20513
 30
0.0
 10
-4.23863
 20
-3.08681
 30
0.0
 10
-4.19024
 20
-3.0408
 30
0.0
 10
-4.19024
 20
-3.0408
 30
0.0
 10
-4.10174
 20
-2.95662
 30
0.0
 10
-3.96893
 20
-2.89585
 30
0.0
 10
-3.84819
 20
-2.89096
 30
0.0
 10
-3.84819
 20
-2.89096
 30
0.0
 10
-3.69803
 20
-2.88489
 30
0.0
 10
-3.56448
 20
-2.99005
 30
0.0
 10
-3.49325
 20
-3.11803
 30
0.0
 10
-3.49325
 20
-3.11803
 30
0.0
 10
-3.26293
 20
-3.5317
 30
0.0
 10
-3.62417
 20
-4.09515
 30
0.0
 10
-4.03927
 20
-4.21489
 30
0.0
 10
-4.03927
 20
-4.21489
 30
0.0
 10
-4.72582
 20
-4.41291
 30
0.0
 10
-5.57531
 20
-4.22822
 30
0.0
 10
-5.74486
 20
-3.43375
 30
0.0
 10
-5.74486
 20
-3.43375
 30
0.0
 10
-5.87252
 20
-2.83541
 30
0.0
 10
-5.47619
 20
-2.16726
 30
0.0
 10
-4.94675
 20
-1.9143
 30
0.0
 10
-4.94675
 20
-1.9143
 30
0.0
 10
-4.70648
 20
-1.79951
 30
0.0
 10
-4.40196
 20
-1.7564
 30
0.0
 10
-4.20384
 20
-1.56722
 30
0.0
 10
-4.20384
 20
-1.56722
 30
0.0
 10
-3.97397
 20
-1.34772
 30
0.0
 10
-3.98067
 20
-1.06748
 30
0.0
 10
-3.88105
 20
-0.78858
 30
0.0
 10
-3.88105
 20
-0.78858
 30
0.0
 10
-3.81255
 20
-0.59687
 30
0.0
 10
-3.72878
 20
-0.3974
 30
0.0
 10
-3.60699
 20
-0.23498
 30
0.0
 10
-3.60699
 20
-0.23498
 30
0.0
 10
-3.24377
 20
0.24953
 30
0.0
 10
-2.46131
 20
0.1677
 30
0.0
 10
-2.04111
 20
0.55831
 30
0.0
  0
SPLINE
  5
4B
330
1F
100
AcDbEntity
  8
Layer 1
370
    53
100
AcDbSpline
210
0.0
220
0.0
230
1.0
 70
    11
 71
     3
 72
    20
 73
    16
 74
     0
 42
0.0000000001
 43
0.0000000001
 12
1.0
 22
0.0
 32
0.0
 13
1.0
 23
0.0
 33
0.0
 40
0.0
 40
0.0
 40
0.0
 40
0.0
 40
0.2
 40
0.2
 40
0.2
 40
0.2
 40
0.4
 40
0.4
 40
0.4
 40
0.4
 40
0.6
 40
0.6
 40
0.6
 40
0.6
 40
1.0
 40
1.0
 40
1.0
 40
1.0
 10
-2.05
 20
1.25
 30
0.0
 10
-2.05
 20
1.41568
 30
0.0
 10
-1.91568
 20
1.55
 30
0.0
 10
-1.75
 20
1.55
 30
0.0
 10
-1.75
 20
1.55
 30
0.0
 10
-1.58432
 20
1.55
 30
0.0
 10
-1.45
 20
1.41568
 30
0.0
 10
-1.45
 20
1.25
 30
0.0
 10
-1.45
 20
1.25
 30
0.0
 10
-1.45
 20
1.08432
 30
0.0
 10
-1.58432
 20
0.95
 30
0.0
 10
-1.75
 20
0.95
 30
0.0
 10
-1.75
 20
0.95
 30
0.0
 10
-1.91568
 20
0.95
 30
0.0
 10
-2.05
 20
1.08432
 30
0.0
 10
-2.05
 20
1.25
 30
0.0
  0
SPLINE
  5
4C
330
1F
100
AcDbEntity
  8
Layer 1
370
    53
100
AcDbSpline
210
0.0
220
0.0
230
1.0
 70
    11
 71
     3
 72
    20
 73
    16
 74
     0
 42
0.0000000001
 43
0.0000000001
 12
1.0
 22
0.0
 32
0.0
 13
1.0
 23
0.0
 33
0.0
 40
0.0
 40
0.0
 40
0.0
 40
0.0
 40
0.2
 40
0.2
 40
0.2
 40
0.2
 40
0.4
 40
0.4
 40
0.4
 40
0.4
 40
0.6
 40
0.6
 40
0.6
 40
0.6
 40
1.0
 40
1.0
 40
1.0
 40
1.0
 10
-1.15
 20
1.25
 30
0.0
 10
-1.15
 20
1.33284
 30
0.0
 10
-1.08284
 20
1.4
 30
0.0
 10
-1.0
 20
1.4
 30
0.0
 10
-1.0
 20
1.4
 30
0.0
 10
-0.91716
 20
1.4
 30
0.0
 10
-0.85
 20
1.33284
 30
0.0
 10
-0.85
 20
1.25
 30
0.0
 10
-0.85
 20
1.25
 30
0.0
 10
-0.85
 20
1.16716
 30
0.0
 10
-0.91716
 20
1.1
 30
0.0
 10
-1.0
 20
1.1
 30
0.0
 10
-1.0
 20
1.1
 30
0.0
 10
-1.08284
 20
1.1
 30
0.0
 10
-1.15
 20
1.16716
 30
0.0
 10
-1.15
 20
1.25
 30
0.0
  0
SPLINE
  5
4D
330
1F
100
AcDbEntity
  8
Layer 1
370
    53
100
AcDbSpline
210
0.0
220
0.0
230
1.0
 70
    11
 71
     3
 72
    20
 73
    16
 74
     0
 42
0.0000000001
 43
0.0000000001
 12
1.0
 22
0.0
 32
0.0
 13
1.0
 23
0.0
 33
0.0
 40
0.0
 40
0.0
 40
0.0
 40
0.0
 40
0.2
 40
0.2
 40
0.2
 40
0.2
 40
0.4
 40
0.4
 40
0.4
 40
0.4
 40
0.6
 40
0.6
 40
0.6
 40
0.6
 40
1.0
 40
1.0
 40
1.0
 40
1.0
 10
0.35
 20
1.25
 30
0.0
 10
0.35
 20
1.33284
 30
0.0
 10
0.41716
 20
1.4
 30
0.0
 10
0.5
 20
1.4
 30
0.0
 10
0.5
 20
1.4
 30
0.0
 10
0.58284
 20
1.4
 30
0.0
 10
0.65
 20
1.33284
 30
0.0
 10
0.65
 20
1.25
 30
0.0
 10
0.65
 20
1.25
 30
0.0
 10
0.65
 20
1.16716
 30
0.0
 10
0.58284
 20
1.1
 30
0.0
 10
0.5
 20
1.1
 30
0.0
 10
0.5
 20
1.1
 30
0.0
 10
0.41716
 20
1.1
 30
0.0
 10
0.35
 20
1.16716
 30
0.0
 10
0.35
 20
1.25
 30
0.0
  0
ENDSEC
  0
SECTION
  2
OBJECTS
  0
DICTIONARY
  5
C
330
0
100
AcDbDictionary
281
     1
  3
ACAD_GROUP
350
D
  3
ACAD_LAYOUT
350
1A
  3
ACAD_MATERIAL
350
3B
  3
ACAD_MLEADERSTYLE
350
6F
  3
ACAD_MLINESTYLE
350
17
  3
ACAD_PLOTSETTINGS
350
19
  3
ACAD_PLOTSTYLENAME
350
E
  3
ACAD_TABLESTYLE
350
6E
  3
ACAD_VISUALSTYLE
350
2A
  0
DICTIONARY
  5
D
102
{ACAD_REACTORS
330
C
102
}
330
C
100
AcDbDictionary
281
     1
  0
DICTIONARY
  5
1A
102
{ACAD_REACTORS
330
C
102
}
330
C
100
AcDbDictionary
281
     1
  3
Layout1
350
1E
  3
Layout2
350
26
  3
Model
350
22
  0
DICTIONARY
  5
3B
102
{ACAD_REACTORS
330
C
102
}
330
C
100
AcDbDictionary
281
     1
  3
ByBlock
350
3D
  3
ByLayer
350
3C
  3
Global
350
3E
  0
DICTIONARY
  5
6F
102
{ACAD_REACTORS
330
C
102
}
330
C
100
AcDbDictionary
281
     1
  0
DICTIONARY
  5
17
102
{ACAD_REACTORS
330
C
102
}
330
C
100
AcDbDictionary
281
     1
  3
Standard
350
18
  0
DICTIONARY
  5
19
102
{ACAD_REACTORS
330
C
102
}
330
C
100
AcDbDictionary
281
     1
  0
ACDBDICTIONARYWDFLT
  5
E
102
{ACAD_REACTORS
330
C
102
}
330
C
100
AcDbDictionary
281
     1
  3
Normal
350
F
100
AcDbDictionaryWithDefault
340
F
  0
DICTIONARY
  5
6E
102
{ACAD_REACTORS
330
C
102
}
330
C
100
AcDbDictionary
281
     1
  0
DICTIONARY
  5
2A
102
{ACAD_REACTORS
330
C
102
}
330
C
100
AcDbDictionary
281
     1
  3
2dWireframe
350
2F
  3
3D Hidden
350
31
  3
3dWireframe
350
30
  3
Basic
350
32
  3
Brighten
350
36
  3
ColorChange
350
3A
  3
Conceptual
350
34
  3
Dim
350
35
  3
Facepattern
350
39
  3
Flat
350
2B
  3
FlatWithEdges
350
2C
  3
Gouraud
350
2D
  3
GouraudWithEdges
350
2E
  3
Linepattern
350
38
  3
Realistic
350
33
  3
Thicken
350
37
  0
LAYOUT
  5
1E
102
{ACAD_REACTORS
330
1A
102
}
330
1A
100
AcDbPlotSettings
  1

  2
none_device
  4

  6

 40
0.0
 41
0.0
 42
0.0
 43
0.0
 44
0.0
 45
0.0
 46
0.0
 47
0.0
 48
0.0
 49
0.0
140
0.0
141
0.0
142
1.0
143
1.0
 70
   688
 72
     0
 73
     0
 74
     5
  7

 75
    16
 76
     0
 77
     2
 78
   300
147
1.0
148
0.0
149
0.0
100
AcDbLayout
  1
Layout1
 70
     1
 71
     1
 10
0.0
 20
0.0
 11
12.0
 21
9.0
 12
0.0
 22
0.0
 32
0.0
 14
1.000000000000000E+20
 24
1.000000000000000E+20
 34
1.000000000000000E+20
 15
-1.000000000000000E+20
 25
-1.000000000000000E+20
 35
-1.000000000000000E+20
146
0.0
 13
0.0
 23
0.0
 33
0.0
 16
1.0
 26
0.0
 36
0.0
 17
0.0
 27
1.0
 37
0.0
 76
     0
330
1B
  0
LAYOUT
  5
26
102
{ACAD_REACTORS
330
1A
102
}
330
1A
100
AcDbPlotSettings
  1

  2
none_device
  4

  6

 40
0.0
 41
0.0
 42
0.0
 43
0.0
 44
0.0
 45
0.0
 46
0.0
 47
0.0
 48
0.0
 49
0.0
140
0.0
141
0.0
142
1.0
143
1.0
 70
   688
 72
     0
 73
     0
 74
     5
  7

 75
    16
 76
     0
 77
     2
 78
   300
147
1.0
148
0.0
149
0.0
100
AcDbLayout
  1
Layout2
 70
     1
 71
     2
 10
0.0
 20
0.0
 11
0.0
 21
0.0
 12
0.0
 22
0.0
 32
0.0
 14
0.0
 24
0.0
 34
0.0
 15
0.0
 25
0.0
 35
0.0
146
0.0
 13
0.0
 23
0.0
 33
0.0
 16
1.0
 26
0.0
 36
0.0
 17
0.0
 27
1.0
 37
0.0
 76
     0
330
23
  0
LAYOUT
  5
22
102
{ACAD_REACTORS
330
1A
102
}
330
1A
100
AcDbPlotSettings
  1

  2
none_device
  4

  6

 40
0.0
 41
0.0
 42
0.0
 43
0.0
 44
0.0
 45
0.0
 46
0.0
 47
0.0
 48
0.0
 49
0.0
140
0.0
141
0.0
142
1.0
143
1.0
 70
  1712
 72
     0
 73
     0
 74
     0
  7

 75
     0
 76
     0
 77
     2
 78
   300
147
1.0
148
0.0
149
0.0
100
AcDbLayout
  1
Model
 70
     1
 71
     0
 10
0.0
 20
0.0
 11
12.0
 21
9.0
 12
0.0
 22
0.0
 32
0.0
 14
-5.79539
 24
-4.35698
 34
0.0
 15
4.52376
 25
1.97646
 35
0.0
146
0.0
 13
0.0
 23
0.0
 33
0.0
 16
1.0
 26
0.0
 36
0.0
 17
0.0
 27
1.0
 37
0.0
 76
     0
330
1F
331
29
  0
MATERIAL
  5
3D
102
{ACAD_REACTORS
330
3B
102
}
330
3B
100
AcDbMaterial
  1
ByBlock
 72
     1
 94
      127
  0
MATERIAL
  5
3C
102
{ACAD_REACTORS
330
3B
102
}
330
3B
100
AcDbMaterial
  1
ByLayer
 72
     1
 94
      127
  0
MATERIAL
  5
3E
102
{ACAD_REACTORS
330
3B
102
}
330
3B
100
AcDbMaterial
  1
Global
 72
     1
 94
      127
  0
MLINESTYLE
  5
18
102
{ACAD_REACTORS
330
17
102
}
330
17
100
AcDbMlineStyle
  2
Standard
 70
     0
  3

 62
   256
 51
90.0
 52
90.0
 71
     2
 49
0.5
 62
   256
  6
BYLAYER
 49
-0.5
 62
   256
  6
BYLAYER
  0
ACDBPLACEHOLDER
  5
F
102
{ACAD_REACTORS
330
E
102
}
330
E
  0
VISUALSTYLE
  5
2F
102
{ACAD_REACTORS
330
2A
102
}
102
{ACAD_XDICTIONARY
360
56
102
}
330
2A
100
AcDbVisualStyle
  2
2dWireframe
 70
     4
 71
     0
 72
     2
 73
     0
 90
        0
 40
-0.6
 41
-30.0
 62
     5
 63
     7
421
 16777215
 74
     1
 91
        4
 64
     7
 65
   257
 75
     1
175
     1
 42
1.0
 92
        0
 66
   257
 43
1.0
 76
     1
 77
     6
 78
     2
 67
     7
 79
     5
170
     0
171
     0
290
     0
174
     0
 93
        1
 44
0.0
173
     0
291
     0
 45
0.0
  0
VISUALSTYLE
  5
31
102
{ACAD_REACTORS
330
2A
102
}
102
{ACAD_XDICTIONARY
360
5A
102
}
330
2A
100
AcDbVisualStyle
  2
3D Hidden
 70
     6
 71
     1
 72
     2
 73
     2
 90
        0
 40
-0.6
 41
-30.0
 62
     5
 63
     7
421
 16777215
 74
     2
 91
        2
 64
     7
 65
   257
 75
     2
175
     1
 42
40.0
 92
        0
 66
   257
 43
1.0
 76
     1
 77
     6
 78
     2
 67
     7
 79
     3
170
     0
171
     0
290
     0
174
     0
 93
        1
 44
0.0
173
     0
291
     0
 45
0.0
  0
VISUALSTYLE
  5
30
102
{ACAD_REACTORS
330
2A
102
}
102
{ACAD_XDICTIONARY
360
58
102
}
330
2A
100
AcDbVisualStyle
  2
3dWireframe
 70
     5
 71
     0
 72
     2
 73
     0
 90
        0
 40
-0.6
 41
-30.0
 62
     5
 63
     7
421
 16777215
 74
     1
 91
        4
 64
     7
 65
   257
 75
     1
175
     1
 42
1.0
 92
        0
 66
   257
 43
1.0
 76
     1
 77
     6
 78
     2
 67
     7
 79
     5
170
     0
171
     0
290
     0
174
     0
 93
        1
 44
0.0
173
     0
291
     0
 45
0.0
  0
VISUALSTYLE
  5
32
102
{ACAD_REACTORS
330
2A
102
}
102
{ACAD_XDICTIONARY
360
5C
102
}
330
2A
100
AcDbVisualStyle
  2
Basic
 70
     7
 71
     1
 72
     0
 73
     1
 90
        0
 40
-0.6
 41
-30.0
 62
     5
 63
     7
421
 16777215
 74
     0
 91
        4
 64
     7
 65
   257
 75
     1
175
     1
 42
1.0
 92
        8
 66
     7
 43
1.0
 76
     1
 77
     6
 78
     2
 67
     7
 79
     5
170
     0
171
     0
290
     0
174
     0
 93
        1
 44
0.0
173
     0
291
     1
 45
0.0
  0
VISUALSTYLE
  5
36
102
{ACAD_REACTORS
330
2A
102
}
102
{ACAD_XDICTIONARY
360
64
102
}
330
2A
100
AcDbVisualStyle
  2
Brighten
 70
    12
 71
     2
 72
     2
 73
     0
 90
        0
 40
-0.6
 41
-30.0
 62
     5
 63
     7
421
 16777215
 74
     1
 91
        4
 64
     7
 65
   257
 75
     1
175
     1
 42
1.0
 92
        8
 66
     7
 43
1.0
 76
     1
 77
     6
 78
     2
 67
     7
 79
     5
170
     0
171
     0
290
     0
174
     0
 93
        1
 44
50.0
173
     0
291
     1
 45
0.0
  0
VISUALSTYLE
  5
3A
102
{ACAD_REACTORS
330
2A
102
}
102
{ACAD_XDICTIONARY
360
6C
102
}
330
2A
100
AcDbVisualStyle
  2
ColorChange
 70
    16
 71
     2
 72
     2
 73
     3
 90
        0
 40
-0.6
 41
-30.0
 62
     5
 63
     8
421
  8421504
 74
     1
 91
        4
 64
     7
 65
   257
 75
     1
175
     1
 42
1.0
 92
        8
 66
     8
424
  8421504
 43
1.0
 76
     1
 77
     6
 78
     2
 67
     7
 79
     5
170
     0
171
     0
290
     0
174
     0
 93
        1
 44
0.0
173
     0
291
     1
 45
0.0
  0
VISUALSTYLE
  5
34
102
{ACAD_REACTORS
330
2A
102
}
102
{ACAD_XDICTIONARY
360
60
102
}
330
2A
100
AcDbVisualStyle
  2
Conceptual
 70
     9
 71
     3
 72
     2
 73
     0
 90
        0
 40
-0.6
 41
-30.0
 62
     5
 63
     7
421
 16777215
 74
     2
 91
        2
 64
     7
 65
   257
 75
     1
175
     1
 42
40.0
 92
        8
 66
     7
 43
1.0
 76
     1
 77
     6
 78
     2
 67
     7
 79
     3
170
     0
171
     0
290
     0
174
     0
 93
        1
 44
0.0
173
     0
291
     0
 45
0.0
  0
VISUALSTYLE
  5
35
102
{ACAD_REACTORS
330
2A
102
}
102
{ACAD_XDICTIONARY
360
62
102
}
330
2A
100
AcDbVisualStyle
  2
Dim
 70
    11
 71
     2
 72
     2
 73
     0
 90
        0
 40
-0.6
 41
-30.0
 62
     5
 63
     7
421
 16777215
 74
     1
 91
        4
 64
     7
 65
   257
 75
     1
175
     1
 42
1.0
 92
        8
 66
     7
 43
1.0
 76
     1
 77
     6
 78
     2
 67
     7
 79
     5
170
     0
171
     0
290
     0
174
     0
 93
        1
 44
-50.0
173
     0
291
     1
 45
0.0
  0
VISUALSTYLE
  5
39
102
{ACAD_REACTORS
330
2A
102
}
102
{ACAD_XDICTIONARY
360
6A
102
}
330
2A
100
AcDbVisualStyle
  2
Facepattern
 70
    15
 71
     2
 72
     2
 73
     0
 90
        0
 40
-0.6
 41
-30.0
 62
     5
 63
     7
421
 16777215
 74
     1
 91
        4
 64
     7
 65
   257
 75
     1
175
     1
 42
1.0
 92
        8
 66
     7
 43
1.0
 76
     1
 77
     6
 78
     2
 67
     7
 79
     5
170
     0
171
     0
290
     0
174
     0
 93
        1
 44
0.0
173
     0
291
     1
 45
0.0
  0
VISUALSTYLE
  5
2B
102
{ACAD_REACTORS
330
2A
102
}
102
{ACAD_XDICTIONARY
360
4E
102
}
330
2A
100
AcDbVisualStyle
  2
Flat
 70
     0
 71
     2
 72
     1
 73
     1
 90
        2
 40
-0.6
 41
30.0
 62
     5
 63
     7
421
 16777215
 74
     0
 91
        4
 64
     7
 65
   257
 75
     1
175
     1
 42
1.0
 92
        8
 66
     7
 43
1.0
 76
     1
 77
     6
 78
     2
 67
     7
 79
     5
170
     0
171
     0
290
     0
174
     0
 93
       13
 44
0.0
173
     0
291
     1
 45
0.0
  0
VISUALSTYLE
  5
2C
102
{ACAD_REACTORS
330
2A
102
}
102
{ACAD_XDICTIONARY
360
50
102
}
330
2A
100
AcDbVisualStyle
  2
FlatWithEdges
 70
     1
 71
     2
 72
     1
 73
     1
 90
        2
 40
-0.6
 41
30.0
 62
     5
 63
     7
421
 16777215
 74
     1
 91
        4
 64
     7
 65
   257
 75
     1
175
     1
 42
1.0
 92
        0
 66
   257
 43
1.0
 76
     1
 77
     6
 78
     2
 67
     7
 79
     5
170
     0
171
     0
290
     0
174
     0
 93
       13
 44
0.0
173
     0
291
     1
 45
0.0
  0
VISUALSTYLE
  5
2D
102
{ACAD_REACTORS
330
2A
102
}
102
{ACAD_XDICTIONARY
360
52
102
}
330
2A
100
AcDbVisualStyle
  2
Gouraud
 70
     2
 71
     2
 72
     2
 73
     1
 90
        2
 40
-0.6
 41
30.0
 62
     5
 63
     7
421
 16777215
 74
     0
 91
        4
 64
     7
 65
   257
 75
     1
175
     1
 42
1.0
 92
        0
 66
     7
 43
1.0
 76
     1
 77
     6
 78
     2
 67
     7
 79
     5
170
     0
171
     0
290
     0
174
     0
 93
       13
 44
0.0
173
     0
291
     1
 45
0.0
  0
VISUALSTYLE
  5
2E
102
{ACAD_REACTORS
330
2A
102
}
102
{ACAD_XDICTIONARY
360
54
102
}
330
2A
100
AcDbVisualStyle
  2
GouraudWithEdges
 70
     3
 71
     2
 72
     2
 73
     1
 90
        2
 40
-0.6
 41
30.0
 62
     5
 63
     7
421
 16777215
 74
     1
 91
        4
 64
     7
 65
   257
 75
     1
175
     1
 42
1.0
 92
        0
 66
   257
 43
1.0
 76
     1
 77
     6
 78
     2
 67
     7
 79
     5
170
     0
171
     0
290
     0
174
     0
 93
       13
 44
0.0
173
     0
291
     1
 45
0.0
  0
VISUALSTYLE
  5
38
102
{ACAD_REACTORS
330
2A
102
}
102
{ACAD_XDICTIONARY
360
68
102
}
330
2A
100
AcDbVisualStyle
  2
Linepattern
 70
    14
 71
     2
 72
     2
 73
     0
 90
        0
 40
-0.6
 41
-30.0
 62
     5
 63
     7
421
 16777215
 74
     1
 91
        4
 64
     7
 65
   257
 75
     7
175
     7
 42
1.0
 92
        8
 66
     7
 43
1.0
 76
     1
 77
     6
 78
     2
 67
     7
 79
     5
170
     0
171
     0
290
     0
174
     0
 93
        1
 44
0.0
173
     0
291
     1
 45
0.0
  0
VISUALSTYLE
  5
33
102
{ACAD_REACTORS
330
2A
102
}
102
{ACAD_XDICTIONARY
360
5E
102
}
330
2A
100
AcDbVisualStyle
  2
Realistic
 70
     8
 71
     2
 72
     2
 73
     0
 90
        0
 40
-0.6
 41
-30.0
 62
     5
 63
     7
421
 16777215
 74
     1
 91
        0
 64
     7
 65
   257
 75
     1
175
     1
 42
1.0
 92
        8
 66
     8
424
  7895160
 43
1.0
 76
     1
 77
     6
 78
     2
 67
     7
 79
     5
170
     0
171
     0
290
     0
174
     0
 93
       13
 44
0.0
173
     0
291
     0
 45
0.0
  0
VISUALSTYLE
  5
37
102
{ACAD_REACTORS
330
2A
102
}
102
{ACAD_XDICTIONARY
360
66
102
}
330
2A
100
AcDbVisualStyle
  2
Thicken
 70
    13
 71
     2
 72
     2
 73
     0
 90
        0
 40
-0.6
 41
-30.0
 62
     5
 63
     7
421
 16777215
 74
     1
 91
        4
 64
     7
 65
   257
 75
     1
175
     1
 42
1.0
 92
       12
 66
     7
 43
1.0
 76
     1
 77
     6
 78
     2
 67
     7
 79
     5
170
     0
171
     0
290
     0
174
     0
 93
        1
 44
0.0
173
     0
291
     1
 45
0.0
  0
DICTIONARY
  5
56
330
2F
100
AcDbDictionary
280
     1
281
     1
  3
ACAD_XREC_ROUNDTRIP
360
57
  0
DICTIONARY
  5
5A
330
31
100
AcDbDictionary
280
     1
281
     1
  3
ACAD_XREC_ROUNDTRIP
360
5B
  0
DICTIONARY
  5
58
330
30
100
AcDbDictionary
280
     1
281
     1
  3
ACAD_XREC_ROUNDTRIP
360
59
  0
DICTIONARY
  5
5C
330
32
100
AcDbDictionary
280
     1
281
     1
  3
ACAD_XREC_ROUNDTRIP
360
5D
  0
DICTIONARY
  5
64
330
36
100
AcDbDictionary
280
     1
281
     1
  3
ACAD_XREC_ROUNDTRIP
360
65
  0
DICTIONARY
  5
6C
330
3A
100
AcDbDictionary
280
     1
281
     1
  3
ACAD_XREC_ROUNDTRIP
360
6D
  0
DICTIONARY
  5
60
330
34
100
AcDbDictionary
280
     1
281
     1
  3
ACAD_XREC_ROUNDTRIP
360
61
  0
DICTIONARY
  5
62
330
35
100
AcDbDictionary
280
     1
281
     1
  3
ACAD_XREC_ROUNDTRIP
360
63
  0
DICTIONARY
  5
6A
330
39
100
AcDbDictionary
280
     1
281
     1
  3
ACAD_XREC_ROUNDTRIP
360
6B
  0
DICTIONARY
  5
4E
330
2B
100
AcDbDictionary
280
     1
281
     1
  3
ACAD_XREC_ROUNDTRIP
360
4F
  0
DICTIONARY
  5
50
330
2C
100
AcDbDictionary
280
     1
281
     1
  3
ACAD_XREC_ROUNDTRIP
360
51
  0
DICTIONARY
  5
52
330
2D
100
AcDbDictionary
280
     1
281
     1
  3
ACAD_XREC_ROUNDTRIP
360
53
  0
DICTIONARY
  5
54
330
2E
100
AcDbDictionary
280
     1
281
     1
  3
ACAD_XREC_ROUNDTRIP
360
55
  0
DICTIONARY
  5
68
330
38
100
AcDbDictionary
280
     1
281
     1
  3
ACAD_XREC_ROUNDTRIP
360
69
  0
DICTIONARY
  5
5E
330
33
100
AcDbDictionary
280
     1
281
     1
  3
ACAD_XREC_ROUNDTRIP
360
5F
  0
DICTIONARY
  5
66
330
37
100
AcDbDictionary
280
     1
281
     1
  3
ACAD_XREC_ROUNDTRIP
360
67
  0
XRECORD
  5
57
102
{ACAD_REACTORS
330
56
102
}
330
56
100
AcDbXrecord
280
     1
102
RTVSPropertyOp0
 70
     1
102
RTVSPropertyOp1
 70
     1
102
RTVSPropertyOp2
 70
     1
102
RTVSPropertyOp3
 70
     1
102
RTVSPropertyOp4
 70
     1
102
RTVSPropertyOp5
 70
     1
102
RTVSPropertyOp6
 70
     1
102
RTVSPropertyOp7
 70
     1
102
RTVSPropertyOp8
 70
     1
102
RTVSPropertyOp9
 70
     1
102
RTVSPropertyOp10
 70
     1
102
RTVSPropertyOp11
 70
     1
102
RTVSPropertyOp12
 70
     1
102
RTVSPropertyOp13
 70
     1
102
RTVSPropertyOp14
 70
     1
102
RTVSPropertyOp15
 70
     1
102
RTVSPropertyOp16
 70
     1
102
RTVSPropertyOp17
 70
     1
102
RTVSPropertyOp18
 70
     1
102
RTVSPropertyOp19
 70
     1
102
RTVSPropertyOp20
 70
     1
102
RTVSPropertyOp21
 70
     1
102
RTVSPropertyOp22
 70
     1
102
RTVSPropertyOp23
 70
     1
102
RTVSPropertyOp24
 70
     1
102
RTVSPropertyOp25
 70
     1
102
RTVSPropertyOp26
 70
     1
102
RTVSPropertyOp27
 70
     1
102
RTVSPropertyOp28
 70
     1
102
RTVSPropertyOp29
 70
     1
102
RTVSPropertyOp30
 70
     1
102
RTVSPropertyOp31
 70
     1
102
RTVSPropertyOp32
 70
     1
  0
XRECORD
  5
5B
102
{ACAD_REACTORS
330
5A
102
}
330
5A
100
AcDbXrecord
280
     1
102
RTVSPropertyOp0
 70
     1
102
RTVSPropertyOp1
 70
     1
102
RTVSPropertyOp2
 70
     1
102
RTVSPropertyOp3
 70
     1
102
RTVSPropertyOp4
 70
     1
102
RTVSPropertyOp5
 70
     1
102
RTVSPropertyOp6
 70
     1
102
RTVSPropertyOp7
 70
     1
102
RTVSPropertyOp8
 70
     1
102
RTVSPropertyOp9
 70
     1
102
RTVSPropertyOp10
 70
     1
102
RTVSPropertyOp11
 70
     1
102
RTVSPropertyOp12
 70
     1
102
RTVSPropertyOp13
 70
     1
102
RTVSPropertyOp14
 70
     1
102
RTVSPropertyOp15
 70
     1
102
RTVSPropertyOp16
 70
     1
102
RTVSPropertyOp17
 70
     1
102
RTVSPropertyOp18
 70
     1
102
RTVSPropertyOp19
 70
     1
102
RTVSPropertyOp20
 70
     1
102
RTVSPropertyOp21
 70
     1
102
RTVSPropertyOp22
 70
     1
102
RTVSPropertyOp23
 70
     1
102
RTVSPropertyOp24
 70
     1
102
RTVSPropertyOp25
 70
     1
102
RTVSPropertyOp26
 70
     1
102
RTVSPropertyOp27
 70
     1
102
RTVSPropertyOp28
 70
     1
102
RTVSPropertyOp29
 70
     1
102
RTVSPropertyOp30
 70
     1
102
RTVSPropertyOp31
 70
     1
102
RTVSPropertyOp32
 70
     1
  0
XRECORD
  5
59
102
{ACAD_REACTORS
330
58
102
}
330
58
100
AcDbXrecord
280
     1
102
RTVSPropertyOp0
 70
     1
102
RTVSPropertyOp1
 70
     1
102
RTVSPropertyOp2
 70
     1
102
RTVSPropertyOp3
 70
     1
102
RTVSPropertyOp4
 70
     1
102
RTVSPropertyOp5
 70
     1
102
RTVSPropertyOp6
 70
     1
102
RTVSPropertyOp7
 70
     1
102
RTVSPropertyOp8
 70
     1
102
RTVSPropertyOp9
 70
     1
102
RTVSPropertyOp10
 70
     1
102
RTVSPropertyOp11
 70
     1
102
RTVSPropertyOp12
 70
     1
102
RTVSPropertyOp13
 70
     1
102
RTVSPropertyOp14
 70
     1
102
RTVSPropertyOp15
 70
     1
102
RTVSPropertyOp16
 70
     1
102
RTVSPropertyOp17
 70
     1
102
RTVSPropertyOp18
 70
     1
102
RTVSPropertyOp19
 70
     1
102
RTVSPropertyOp20
 70
     1
102
RTVSPropertyOp21
 70
     1
102
RTVSPropertyOp22
 70
     1
102
RTVSPropertyOp23
 70
     1
102
RTVSPropertyOp24
 70
     1
102
RTVSPropertyOp25
 70
     1
102
RTVSPropertyOp26
 70
     1
102
RTVSPropertyOp27
 70
     1
102
RTVSPropertyOp28
 70
     1
102
RTVSPropertyOp29
 70
     1
102
RTVSPropertyOp30
 70
     1
102
RTVSPropertyOp31
 70
     1
102
RTVSPropertyOp32
 70
     1
  0
XRECORD
  5
5D
102
{ACAD_REACTORS
330
5C
102
}
330
5C
100
AcDbXrecord
280
     1
102
RTVSPropertyOp0
 70
     1
102
RTVSPropertyOp1
 70
     1
102
RTVSPropertyOp2
 70
     1
102
RTVSPropertyOp3
 70
     1
102
RTVSPropertyOp4
 70
     1
102
RTVSPropertyOp5
 70
     1
102
RTVSPropertyOp6
 70
     1
102
RTVSPropertyOp7
 70
     1
102
RTVSPropertyOp8
 70
     1
102
RTVSPropertyOp9
 70
     1
102
RTVSPropertyOp10
 70
     1
102
RTVSPropertyOp11
 70
     1
102
RTVSPropertyOp12
 70
     1
102
RTVSPropertyOp13
 70
     1
102
RTVSPropertyOp14
 70
     1
102
RTVSPropertyOp15
 70
     1
102
RTVSPropertyOp16
 70
     1
102
RTVSPropertyOp17
 70
     1
102
RTVSPropertyOp18
 70
     1
102
RTVSPropertyOp19
 70
     1
102
RTVSPropertyOp20
 70
     1
102
RTVSPropertyOp21
 70
     1
102
RTVSPropertyOp22
 70
     1
102
RTVSPropertyOp23
 70
     1
102
RTVSPropertyOp24
 70
     1
102
RTVSPropertyOp25
 70
     1
102
RTVSPropertyOp26
 70
     1
102
RTVSPropertyOp27
 70
     1
102
RTVSPropertyOp28
 70
     1
102
RTVSPropertyOp29
 70
     1
102
RTVSPropertyOp30
 70
     1
102
RTVSPropertyOp31
 70
     1
102
RTVSPropertyOp32
 70
     1
  0
XRECORD
  5
65
102
{ACAD_REACTORS
330
64
102
}
330
64
100
AcDbXrecord
280
     1
102
RTVSPropertyOp0
 70
     1
102
RTVSPropertyOp1
 70
     1
102
RTVSPropertyOp2
 70
     1
102
RTVSPropertyOp3
 70
     1
102
RTVSPropertyOp4
 70
     1
102
RTVSPropertyOp5
 70
     1
102
RTVSPropertyOp6
 70
     1
102
RTVSPropertyOp7
 70
     1
102
RTVSPropertyOp8
 70
     1
102
RTVSPropertyOp9
 70
     1
102
RTVSPropertyOp10
 70
     1
102
RTVSPropertyOp11
 70
     1
102
RTVSPropertyOp12
 70
     1
102
RTVSPropertyOp13
 70
     1
102
RTVSPropertyOp14
 70
     1
102
RTVSPropertyOp15
 70
     1
102
RTVSPropertyOp16
 70
     1
102
RTVSPropertyOp17
 70
     1
102
RTVSPropertyOp18
 70
     1
102
RTVSPropertyOp19
 70
     1
102
RTVSPropertyOp20
 70
     1
102
RTVSPropertyOp21
 70
     1
102
RTVSPropertyOp22
 70
     1
102
RTVSPropertyOp23
 70
     1
102
RTVSPropertyOp24
 70
     1
102
RTVSPropertyOp25
 70
     1
102
RTVSPropertyOp26
 70
     1
102
RTVSPropertyOp27
 70
     1
102
RTVSPropertyOp28
 70
     1
102
RTVSPropertyOp29
 70
     1
102
RTVSPropertyOp30
 70
     1
102
RTVSPropertyOp31
 70
     1
102
RTVSPropertyOp32
 70
     1
  0
XRECORD
  5
6D
102
{ACAD_REACTORS
330
6C
102
}
330
6C
100
AcDbXrecord
280
     1
102
RTVSPropertyOp0
 70
     1
102
RTVSPropertyOp1
 70
     1
102
RTVSPropertyOp2
 70
     1
102
RTVSPropertyOp3
 70
     1
102
RTVSPropertyOp4
 70
     1
102
RTVSPropertyOp5
 70
     1
102
RTVSPropertyOp6
 70
     1
102
RTVSPropertyOp7
 70
     1
102
RTVSPropertyOp8
 70
     1
102
RTVSPropertyOp9
 70
     1
102
RTVSPropertyOp10
 70
     1
102
RTVSPropertyOp11
 70
     1
102
RTVSPropertyOp12
 70
     1
102
RTVSPropertyOp13
 70
     1
102
RTVSPropertyOp14
 70
     1
102
RTVSPropertyOp15
 70
     1
102
RTVSPropertyOp16
 70
     1
102
RTVSPropertyOp17
 70
     1
102
RTVSPropertyOp18
 70
     1
102
RTVSPropertyOp19
 70
     1
102
RTVSPropertyOp20
 70
     1
102
RTVSPropertyOp21
 70
     1
102
RTVSPropertyOp22
 70
     1
102
RTVSPropertyOp23
 70
     1
102
RTVSPropertyOp24
 70
     1
102
RTVSPropertyOp25
 70
     1
102
RTVSPropertyOp26
 70
     1
102
RTVSPropertyOp27
 70
     1
102
RTVSPropertyOp28
 70
     1
102
RTVSPropertyOp29
 70
     1
102
RTVSPropertyOp30
 70
     1
102
RTVSPropertyOp31
 70
     1
102
RTVSPropertyOp32
 70
     1
  0
XRECORD
  5
61
102
{ACAD_REACTORS
330
60
102
}
330
60
100
AcDbXrecord
280
     1
102
RTVSPropertyOp0
 70
     1
102
RTVSPropertyOp1
 70
     1
102
RTVSPropertyOp2
 70
     1
102
RTVSPropertyOp3
 70
     1
102
RTVSPropertyOp4
 70
     1
102
RTVSPropertyOp5
 70
     1
102
RTVSPropertyOp6
 70
     1
102
RTVSPropertyOp7
 70
     1
102
RTVSPropertyOp8
 70
     1
102
RTVSPropertyOp9
 70
     1
102
RTVSPropertyOp10
 70
     1
102
RTVSPropertyOp11
 70
     1
102
RTVSPropertyOp12
 70
     1
102
RTVSPropertyOp13
 70
     1
102
RTVSPropertyOp14
 70
     1
102
RTVSPropertyOp15
 70
     1
102
RTVSPropertyOp16
 70
     1
102
RTVSPropertyOp17
 70
     1
102
RTVSPropertyOp18
 70
     1
102
RTVSPropertyOp19
 70
     1
102
RTVSPropertyOp20
 70
     1
102
RTVSPropertyOp21
 70
     1
102
RTVSPropertyOp22
 70
     1
102
RTVSPropertyOp23
 70
     1
102
RTVSPropertyOp24
 70
     1
102
RTVSPropertyOp25
 70
     1
102
RTVSPropertyOp26
 70
     1
102
RTVSPropertyOp27
 70
     1
102
RTVSPropertyOp28
 70
     1
102
RTVSPropertyOp29
 70
     1
102
RTVSPropertyOp30
 70
     1
102
RTVSPropertyOp31
 70
     1
102
RTVSPropertyOp32
 70
     1
  0
XRECORD
  5
63
102
{ACAD_REACTORS
330
62
102
}
330
62
100
AcDbXrecord
280
     1
102
RTVSPropertyOp0
 70
     1
102
RTVSPropertyOp1
 70
     1
102
RTVSPropertyOp2
 70
     1
102
RTVSPropertyOp3
 70
     1
102
RTVSPropertyOp4
 70
     1
102
RTVSPropertyOp5
 70
     1
102
RTVSPropertyOp6
 70
     1
102
RTVSPropertyOp7
 70
     1
102
RTVSPropertyOp8
 70
     1
102
RTVSPropertyOp9
 70
     1
102
RTVSPropertyOp10
 70
     1
102
RTVSPropertyOp11
 70
     1
102
RTVSPropertyOp12
 70
     1
102
RTVSPropertyOp13
 70
     1
102
RTVSPropertyOp14
 70
     1
102
RTVSPropertyOp15
 70
     1
102
RTVSPropertyOp16
 70
     1
102
RTVSPropertyOp17
 70
     1
102
RTVSPropertyOp18
 70
     1
102
RTVSPropertyOp19
 70
     1
102
RTVSPropertyOp20
 70
     1
102
RTVSPropertyOp21
 70
     1
102
RTVSPropertyOp22
 70
     1
102
RTVSPropertyOp23
 70
     1
102
RTVSPropertyOp24
 70
     1
102
RTVSPropertyOp25
 70
     1
102
RTVSPropertyOp26
 70
     1
102
RTVSPropertyOp27
 70
     1
102
RTVSPropertyOp28
 70
     1
102
RTVSPropertyOp29
 70
     1
102
RTVSPropertyOp30
 70
     1
102
RTVSPropertyOp31
 70
     1
102
RTVSPropertyOp32
 70
     1
  0
XRECORD
  5
6B
102
{ACAD_REACTORS
330
6A
102
}
330
6A
100
AcDbXrecord
280
     1
102
RTVSPropertyOp0
 70
     1
102
RTVSPropertyOp1
 70
     1
102
RTVSPropertyOp2
 70
     1
102
RTVSPropertyOp3
 70
     1
102
RTVSPropertyOp4
 70
     1
102
RTVSPropertyOp5
 70
     1
102
RTVSPropertyOp6
 70
     1
102
RTVSPropertyOp7
 70
     1
102
RTVSPropertyOp8
 70
     1
102
RTVSPropertyOp9
 70
     1
102
RTVSPropertyOp10
 70
     1
102
RTVSPropertyOp11
 70
     1
102
RTVSPropertyOp12
 70
     1
102
RTVSPropertyOp13
 70
     1
102
RTVSPropertyOp14
 70
     1
102
RTVSPropertyOp15
 70
     1
102
RTVSPropertyOp16
 70
     1
102
RTVSPropertyOp17
 70
     1
102
RTVSPropertyOp18
 70
     1
102
RTVSPropertyOp19
 70
     1
102
RTVSPropertyOp20
 70
     1
102
RTVSPropertyOp21
 70
     1
102
RTVSPropertyOp22
 70
     1
102
RTVSPropertyOp23
 70
     1
102
RTVSPropertyOp24
 70
     1
102
RTVSPropertyOp25
 70
     1
102
RTVSPropertyOp26
 70
     1
102
RTVSPropertyOp27
 70
     1
102
RTVSPropertyOp28
 70
     1
102
RTVSPropertyOp29
 70
     1
102
RTVSPropertyOp30
 70
     1
102
RTVSPropertyOp31
 70
     1
102
RTVSPropertyOp32
 70
     1
  0
XRECORD
  5
4F
102
{ACAD_REACTORS
330
4E
102
}
330
4E
100
AcDbXrecord
280
     1
102
RTVSPropertyOp0
 70
     1
102
RTVSPropertyOp1
 70
     1
102
RTVSPropertyOp2
 70
     1
102
RTVSPropertyOp3
 70
     1
102
RTVSPropertyOp4
 70
     1
102
RTVSPropertyOp5
 70
     1
102
RTVSPropertyOp6
 70
     1
102
RTVSPropertyOp7
 70
     1
102
RTVSPropertyOp8
 70
     1
102
RTVSPropertyOp9
 70
     1
102
RTVSPropertyOp10
 70
     1
102
RTVSPropertyOp11
 70
     1
102
RTVSPropertyOp12
 70
     1
102
RTVSPropertyOp13
 70
     1
102
RTVSPropertyOp14
 70
     1
102
RTVSPropertyOp15
 70
     1
102
RTVSPropertyOp16
 70
     1
102
RTVSPropertyOp17
 70
     1
102
RTVSPropertyOp18
 70
     1
102
RTVSPropertyOp19
 70
     1
102
RTVSPropertyOp20
 70
     1
102
RTVSPropertyOp21
 70
     1
102
RTVSPropertyOp22
 70
     1
102
RTVSPropertyOp23
 70
     1
102
RTVSPropertyOp24
 70
     1
102
RTVSPropertyOp25
 70
     1
102
RTVSPropertyOp26
 70
     1
102
RTVSPropertyOp27
 70
     1
102
RTVSPropertyOp28
 70
     1
102
RTVSPropertyOp29
 70
     1
102
RTVSPropertyOp30
 70
     1
102
RTVSPropertyOp31
 70
     1
102
RTVSPropertyOp32
 70
     1
  0
XRECORD
  5
51
102
{ACAD_REACTORS
330
50
102
}
330
50
100
AcDbXrecord
280
     1
102
RTVSPropertyOp0
 70
     1
102
RTVSPropertyOp1
 70
     1
102
RTVSPropertyOp2
 70
     1
102
RTVSPropertyOp3
 70
     1
102
RTVSPropertyOp4
 70
     1
102
RTVSPropertyOp5
 70
     1
102
RTVSPropertyOp6
 70
     1
102
RTVSPropertyOp7
 70
     1
102
RTVSPropertyOp8
 70
     1
102
RTVSPropertyOp9
 70
     1
102
RTVSPropertyOp10
 70
     1
102
RTVSPropertyOp11
 70
     1
102
RTVSPropertyOp12
 70
     1
102
RTVSPropertyOp13
 70
     1
102
RTVSPropertyOp14
 70
     1
102
RTVSPropertyOp15
 70
     1
102
RTVSPropertyOp16
 70
     1
102
RTVSPropertyOp17
 70
     1
102
RTVSPropertyOp18
 70
     1
102
RTVSPropertyOp19
 70
     1
102
RTVSPropertyOp20
 70
     1
102
RTVSPropertyOp21
 70
     1
102
RTVSPropertyOp22
 70
     1
102
RTVSPropertyOp23
 70
     1
102
RTVSPropertyOp24
 70
     1
102
RTVSPropertyOp25
 70
     1
102
RTVSPropertyOp26
 70
     1
102
RTVSPropertyOp27
 70
     1
102
RTVSPropertyOp28
 70
     1
102
RTVSPropertyOp29
 70
     1
102
RTVSPropertyOp30
 70
     1
102
RTVSPropertyOp31
 70
     1
102
RTVSPropertyOp32
 70
     1
  0
XRECORD
  5
53
102
{ACAD_REACTORS
330
52
102
}
330
52
100
AcDbXrecord
280
     1
102
RTVSPropertyOp0
 70
     1
102
RTVSPropertyOp1
 70
     1
102
RTVSPropertyOp2
 70
     1
102
RTVSPropertyOp3
 70
     1
102
RTVSPropertyOp4
 70
     1
102
RTVSPropertyOp5
 70
     1
102
RTVSPropertyOp6
 70
     1
102
RTVSPropertyOp7
 70
     1
102
RTVSPropertyOp8
 70
     1
102
RTVSPropertyOp9
 70
     1
102
RTVSPropertyOp10
 70
     1
102
RTVSPropertyOp11
 70
     1
102
RTVSPropertyOp12
 70
     1
102
RTVSPropertyOp13
 70
     1
102
RTVSPropertyOp14
 70
     1
102
RTVSPropertyOp15
 70
     1
102
RTVSPropertyOp16
 70
     1
102
RTVSPropertyOp17
 70
     1
102
RTVSPropertyOp18
 70
     1
102
RTVSPropertyOp19
 70
     1
102
RTVSPropertyOp20
 70
     1
102
RTVSPropertyOp21
 70
     1
102
RTVSPropertyOp22
 70
     1
102
RTVSPropertyOp23
 70
     1
102
RTVSPropertyOp24
 70
     1
102
RTVSPropertyOp25
 70
     1
102
RTVSPropertyOp26
 70
     1
102
RTVSPropertyOp27
 70
     1
102
RTVSPropertyOp28
 70
     1
102
RTVSPropertyOp29
 70
     1
102
RTVSPropertyOp30
 70
     1
102
RTVSPropertyOp31
 70
     1
102
RTVSPropertyOp32
 70
     1
  0
XRECORD
  5
55
102
{ACAD_REACTORS
330
54
102
}
330
54
100
AcDbXrecord
280
     1
102
RTVSPropertyOp0
 70
     1
102
RTVSPropertyOp1
 70
     1
102
RTVSPropertyOp2
 70
     1
102
RTVSPropertyOp3
 70
     1
102
RTVSPropertyOp4
 70
     1
102
RTVSPropertyOp5
 70
     1
102
RTVSPropertyOp6
 70
     1
102
RTVSPropertyOp7
 70
     1
102
RTVSPropertyOp8
 70
     1
102
RTVSPropertyOp9
 70
     1
102
RTVSPropertyOp10
 70
     1
102
RTVSPropertyOp11
 70
     1
102
RTVSPropertyOp12
 70
     1
102
RTVSPropertyOp13
 70
     1
102
RTVSPropertyOp14
 70
     1
102
RTVSPropertyOp15
 70
     1
102
RTVSPropertyOp16
 70
     1
102
RTVSPropertyOp17
 70
     1
102
RTVSPropertyOp18
 70
     1
102
RTVSPropertyOp19
 70
     1
102
RTVSPropertyOp20
 70
     1
102
RTVSPropertyOp21
 70
     1
102
RTVSPropertyOp22
 70
     1
102
RTVSPropertyOp23
 70
     1
102
RTVSPropertyOp24
 70
     1
102
RTVSPropertyOp25
 70
     1
102
RTVSPropertyOp26
 70
     1
102
RTVSPropertyOp27
 70
     1
102
RTVSPropertyOp28
 70
     1
102
RTVSPropertyOp29
 70
     1
102
RTVSPropertyOp30
 70
     1
102
RTVSPropertyOp31
 70
     1
102
RTVSPropertyOp32
 70
     1
  0
XRECORD
  5
69
102
{ACAD_REACTORS
330
68
102
}
330
68
100
AcDbXrecord
280
     1
102
RTVSPropertyOp0
 70
     1
102
RTVSPropertyOp1
 70
     1
102
RTVSPropertyOp2
 70
     1
102
RTVSPropertyOp3
 70
     1
102
RTVSPropertyOp4
 70
     1
102
RTVSPropertyOp5
 70
     1
102
RTVSPropertyOp6
 70
     1
102
RTVSPropertyOp7
 70
     1
102
RTVSPropertyOp8
 70
     1
102
RTVSPropertyOp9
 70
     1
102
RTVSPropertyOp10
 70
     1
102
RTVSPropertyOp11
 70
     1
102
RTVSPropertyOp12
 70
     1
102
RTVSPropertyOp13
 70
     1
102
RTVSPropertyOp14
 70
     1
102
RTVSPropertyOp15
 70
     1
102
RTVSPropertyOp16
 70
     1
102
RTVSPropertyOp17
 70
     1
102
RTVSPropertyOp18
 70
     1
102
RTVSPropertyOp19
 70
     1
102
RTVSPropertyOp20
 70
     1
102
RTVSPropertyOp21
 70
     1
102
RTVSPropertyOp22
 70
     1
102
RTVSPropertyOp23
 70
     1
102
RTVSPropertyOp24
 70
     1
102
RTVSPropertyOp25
 70
     1
102
RTVSPropertyOp26
 70
     1
102
RTVSPropertyOp27
 70
     1
102
RTVSPropertyOp28
 70
     1
102
RTVSPropertyOp29
 70
     1
102
RTVSPropertyOp30
 70
     1
102
RTVSPropertyOp31
 70
     1
102
RTVSPropertyOp32
 70
     1
  0
XRECORD
  5
5F
102
{ACAD_REACTORS
330
5E
102
}
330
5E
100
AcDbXrecord
280
     1
102
RTVSPropertyOp0
 70
     1
102
RTVSPropertyOp1
 70
     1
102
RTVSPropertyOp2
 70
     1
102
RTVSPropertyOp3
 70
     1
102
RTVSPropertyOp4
 70
     1
102
RTVSPropertyOp5
 70
     1
102
RTVSPropertyOp6
 70
     1
102
RTVSPropertyOp7
 70
     1
102
RTVSPropertyOp8
 70
     1
102
RTVSPropertyOp9
 70
     1
102
RTVSPropertyOp10
 70
     1
102
RTVSPropertyOp11
 70
     1
102
RTVSPropertyOp12
 70
     1
102
RTVSPropertyOp13
 70
     1
102
RTVSPropertyOp14
 70
     1
102
RTVSPropertyOp15
 70
     1
102
RTVSPropertyOp16
 70
     1
102
RTVSPropertyOp17
 70
     1
102
RTVSPropertyOp18
 70
     1
102
RTVSPropertyOp19
 70
     1
102
RTVSPropertyOp20
 70
     1
102
RTVSPropertyOp21
 70
     1
102
RTVSPropertyOp22
 70
     1
102
RTVSPropertyOp23
 70
     1
102
RTVSPropertyOp24
 70
     1
102
RTVSPropertyOp25
 70
     1
102
RTVSPropertyOp26
 70
     1
102
RTVSPropertyOp27
 70
     1
102
RTVSPropertyOp28
 70
     1
102
RTVSPropertyOp29
 70
     1
102
RTVSPropertyOp30
 70
     1
102
RTVSPropertyOp31
 70
     1
102
RTVSPropertyOp32
 70
     1
  0
XRECORD
  5
67
102
{ACAD_REACTORS
330
66
102
}
330
66
100
AcDbXrecord
280
     1
102
RTVSPropertyOp0
 70
     1
102
RTVSPropertyOp1
 70
     1
102
RTVSPropertyOp2
 70
     1
102
RTVSPropertyOp3
 70
     1
102
RTVSPropertyOp4
 70
     1
102
RTVSPropertyOp5
 70
     1
102
RTVSPropertyOp6
 70
     1
102
RTVSPropertyOp7
 70
     1
102
RTVSPropertyOp8
 70
     1
102
RTVSPropertyOp9
 70
     1
102
RTVSPropertyOp10
 70
     1
102
RTVSPropertyOp11
 70
     1
102
RTVSPropertyOp12
 70
     1
102
RTVSPropertyOp13
 70
     1
102
RTVSPropertyOp14
 70
     1
102
RTVSPropertyOp15
 70
     1
102
RTVSPropertyOp16
 70
     1
102
RTVSPropertyOp17
 70
     1
102
RTVSPropertyOp18
 70
     1
102
RTVSPropertyOp19
 70
     1
102
RTVSPropertyOp20
 70
     1
102
RTVSPropertyOp21
 70
     1
102
RTVSPropertyOp22
 70
     1
102
RTVSPropertyOp23
 70
     1
102
RTVSPropertyOp24
 70
     1
102
RTVSPropertyOp25
 70
     1
102
RTVSPropertyOp26
 70
     1
102
RTVSPropertyOp27
 70
     1
102
RTVSPropertyOp28
 70
     1
102
RTVSPropertyOp29
 70
     1
102
RTVSPropertyOp30
 70
     1
102
RTVSPropertyOp31
 70
     1
102
RTVSPropertyOp32
 70
     1
  0
ENDSEC
  0
EOF
