  0
SECTION
  2
HEADER
  9
$ACADVER
  1
AC1021
  9
$ACADMAINTVER
 70
    25
  9
$DWGCODEPAGE
  3
ANSI_1252
  9
$INSBASE
 10
0.0
 20
0.0
 30
0.0
  9
$EXTMIN
 10
-15.54537
 20
-15.60702
 30
0.0
  9
$EXTMAX
 10
-5.2218
 20
-9.27358
 30
0.0
  9
$LIMMIN
 10
0.0
 20
0.0
  9
$LIMMAX
 10
12.0
 20
9.0
  9
$ORTHOMODE
 70
     0
  9
$REGENMODE
 70
     1
  9
$FILLMODE
 70
     1
  9
$QTEXTMODE
 70
     0
  9
$MIRRTEXT
 70
     1
  9
$LTSCALE
 40
1.0
  9
$ATTMODE
 70
     1
  9
$TEXTSIZE
 40
0.2
  9
$TRACEWID
 40
0.05
  9
$TEXTSTYLE
  7
Standard
  9
$CLAYER
  8
0
  9
$CELTYPE
  6
ByLayer
  9
$CECOLOR
 62
   256
  9
$CELTSCALE
 40
1.0
  9
$DISPSILH
 70
     0
  9
$DIMSCALE
 40
1.0
  9
$DIMASZ
 40
0.18
  9
$DIMEXO
 40
0.0625
  9
$DIMDLI
 40
0.38
  9
$DIMRND
 40
0.0
  9
$DIMDLE
 40
0.0
  9
$DIMEXE
 40
0.18
  9
$DIMTP
 40
0.0
  9
$DIMTM
 40
0.0
  9
$DIMTXT
 40
0.18
  9
$DIMCEN
 40
0.09
  9
$DIMTSZ
 40
0.0
  9
$DIMTOL
 70
     0
  9
$DIMLIM
 70
     0
  9
$DIMTIH
 70
     1
  9
$DIMTOH
 70
     1
  9
$DIMSE1
 70
     0
  9
$DIMSE2
 70
     0
  9
$DIMTAD
 70
     0
  9
$DIMZIN
 70
     0
  9
$DIMBLK
  1

  9
$DIMASO
 70
     1
  9
$DIMSHO
 70
     1
  9
$DIMPOST
  1

  9
$DIMAPOST
  1

  9
$DIMALT
 70
     0
  9
$DIMALTD
 70
     2
  9
$DIMALTF
 40
25.4
  9
$DIMLFAC
 40
1.0
  9
$DIMTOFL
 70
     0
  9
$DIMTVP
 40
0.0
  9
$DIMTIX
 70
     0
  9
$DIMSOXD
 70
     0
  9
$DIMSAH
 70
     0
  9
$DIMBLK1
  1

  9
$DIMBLK2
  1

  9
$DIMSTYLE
  2
Standard
  9
$DIMCLRD
 70
     0
  9
$DIMCLRE
 70
     0
  9
$DIMCLRT
 70
     0
  9
$DIMTFAC
 40
1.0
  9
$DIMGAP
 40
0.09
  9
$DIMJUST
 70
     0
  9
$DIMSD1
 70
     0
  9
$DIMSD2
 70
     0
  9
$DIMTOLJ
 70
     1
  9
$DIMTZIN
 70
     0
  9
$DIMALTZ
 70
     0
  9
$DIMALTTZ
 70
     0
  9
$DIMUPT
 70
     0
  9
$DIMDEC
 70
     4
  9
$DIMTDEC
 70
     4
  9
$DIMALTU
 70
     2
  9
$DIMALTTD
 70
     2
  9
$DIMTXSTY
  7
Standard
  9
$DIMAUNIT
 70
     0
  9
$DIMADEC
 70
     0
  9
$DIMALTRND
 40
0.0
  9
$DIMAZIN
 70
     0
  9
$DIMDSEP
 70
    46
  9
$DIMATFIT
 70
     3
  9
$DIMFRAC
 70
     0
  9
$DIMLDRBLK
  1

  9
$DIMLUNIT
 70
     2
  9
$DIMLWD
 70
    -2
  9
$DIMLWE
 70
    -2
  9
$DIMTMOVE
 70
     0
  9
$DIMFXL
 40
1.0
  9
$DIMFXLON
 70
     0
  9
$DIMJOGANG
 40
0.7853981633974483
  9
$DIMTFILL
 70
     0
  9
$DIMTFILLCLR
 70
     0
  9
$DIMARCSYM
 70
     0
  9
$DIMLTYPE
  6

  9
$DIMLTEX1
  6

  9
$DIMLTEX2
  6

  9
$LUNITS
 70
     2
  9
$LUPREC
 70
     4
  9
$SKETCHINC
 40
0.1
  9
$FILLETRAD
 40
0.5
  9
$AUNITS
 70
     0
  9
$AUPREC
 70
     0
  9
$MENU
  1
.
  9
$ELEVATION
 40
0.0
  9
$PELEVATION
 40
0.0
  9
$THICKNESS
 40
0.0
  9
$LIMCHECK
 70
     0
  9
$CHAMFERA
 40
0.5
  9
$CHAMFERB
 40
0.5
  9
$CHAMFERC
 40
1.0
  9
$CHAMFERD
 40
0.0
  9
$SKPOLY
 70
     0
  9
$TDCREATE
 40
2460554.946519595
  9
$TDUCREATE
 40
2460554.904852928
  9
$TDUPDATE
 40
2460554.946519618
  9
$TDUUPDATE
 40
2460554.904852951
  9
$TDINDWG
 40
0.0000000116
  9
$TDUSRTIMER
 40
0.0000000116
  9
$USRTIMER
 70
     1
  9
$ANGBASE
 50
0.0
  9
$ANGDIR
 70
     0
  9
$PDMODE
 70
     0
  9
$PDSIZE
 40
0.0
  9
$PLINEWID
 40
0.0
  9
$SPLFRAME
 70
     0
  9
$SPLINETYPE
 70
     6
  9
$SPLINESEGS
 70
     8
  9
$HANDSEED
  5
68
  9
$SURFTAB1
 70
     6
  9
$SURFTAB2
 70
     6
  9
$SURFTYPE
 70
     6
  9
$SURFU
 70
     6
  9
$SURFV
 70
     6
  9
$UCSBASE
  2

  9
$UCSNAME
  2

  9
$UCSORG
 10
0.0
 20
0.0
 30
0.0
  9
$UCSXDIR
 10
1.0
 20
0.0
 30
0.0
  9
$UCSYDIR
 10
0.0
 20
1.0
 30
0.0
  9
$UCSORTHOREF
  2

  9
$UCSORTHOVIEW
 70
     0
  9
$UCSORGTOP
 10
0.0
 20
0.0
 30
0.0
  9
$UCSORGBOTTOM
 10
0.0
 20
0.0
 30
0.0
  9
$UCSORGLEFT
 10
0.0
 20
0.0
 30
0.0
  9
$UCSORGRIGHT
 10
0.0
 20
0.0
 30
0.0
  9
$UCSORGFRONT
 10
0.0
 20
0.0
 30
0.0
  9
$UCSORGBACK
 10
0.0
 20
0.0
 30
0.0
  9
$PUCSBASE
  2

  9
$PUCSNAME
  2

  9
$PUCSORG
 10
0.0
 20
0.0
 30
0.0
  9
$PUCSXDIR
 10
1.0
 20
0.0
 30
0.0
  9
$PUCSYDIR
 10
0.0
 20
1.0
 30
0.0
  9
$PUCSORTHOREF
  2

  9
$PUCSORTHOVIEW
 70
     0
  9
$PUCSORGTOP
 10
0.0
 20
0.0
 30
0.0
  9
$PUCSORGBOTTOM
 10
0.0
 20
0.0
 30
0.0
  9
$PUCSORGLEFT
 10
0.0
 20
0.0
 30
0.0
  9
$PUCSORGRIGHT
 10
0.0
 20
0.0
 30
0.0
  9
$PUCSORGFRONT
 10
0.0
 20
0.0
 30
0.0
  9
$PUCSORGBACK
 10
0.0
 20
0.0
 30
0.0
  9
$USERI1
 70
     0
  9
$USERI2
 70
     0
  9
$USERI3
 70
     0
  9
$USERI4
 70
     0
  9
$USERI5
 70
     0
  9
$USERR1
 40
0.0
  9
$USERR2
 40
0.0
  9
$USERR3
 40
0.0
  9
$USERR4
 40
0.0
  9
$USERR5
 40
0.0
  9
$WORLDVIEW
 70
     1
  9
$SHADEDGE
 70
     3
  9
$SHADEDIF
 70
    70
  9
$TILEMODE
 70
     1
  9
$MAXACTVP
 70
    64
  9
$PINSBASE
 10
0.0
 20
0.0
 30
0.0
  9
$PLIMCHECK
 70
     0
  9
$PEXTMIN
 10
1.000000000000000E+20
 20
1.000000000000000E+20
 30
1.000000000000000E+20
  9
$PEXTMAX
 10
-1.000000000000000E+20
 20
-1.000000000000000E+20
 30
-1.000000000000000E+20
  9
$PLIMMIN
 10
0.0
 20
0.0
  9
$PLIMMAX
 10
12.0
 20
9.0
  9
$UNITMODE
 70
     0
  9
$VISRETAIN
 70
     1
  9
$PLINEGEN
 70
     0
  9
$PSLTSCALE
 70
     1
  9
$TREEDEPTH
 70
  3020
  9
$CMLSTYLE
  2
Standard
  9
$CMLJUST
 70
     0
  9
$CMLSCALE
 40
1.0
  9
$PROXYGRAPHICS
 70
     1
  9
$MEASUREMENT
 70
     0
  9
$CELWEIGHT
370
    -1
  9
$ENDCAPS
280
     0
  9
$JOINSTYLE
280
     0
  9
$LWDISPLAY
290
     0
  9
$INSUNITS
 70
     5
  9
$HYPERLINKBASE
  1

  9
$STYLESHEET
  1

  9
$XEDIT
290
     1
  9
$CEPSNTYPE
380
     0
  9
$PSTYLEMODE
290
     1
  9
$FINGERPRINTGUID
  2
{E9579E9A-5CC2-44AA-946B-442D47F28C9B}
  9
$VERSIONGUID
  2
{FAEB1C32-E019-11D5-929B-00C0DF256EC4}
  9
$EXTNAMES
290
     1
  9
$PSVPSCALE
 40
0.0
  9
$OLESTARTUP
290
     0
  9
$SORTENTS
280
   127
  9
$INDEXCTL
280
     0
  9
$HIDETEXT
280
     1
  9
$XCLIPFRAME
290
     0
  9
$HALOGAP
280
     0
  9
$OBSCOLOR
 70
   257
  9
$OBSLTYPE
280
     0
  9
$INTERSECTIONDISPLAY
280
     0
  9
$INTERSECTIONCOLOR
 70
   257
  9
$DIMASSOC
280
     2
  9
$PROJECTNAME
  1

  9
$CAMERADISPLAY
290
     0
  9
$LENSLENGTH
 40
50.0
  9
$CAMERAHEIGHT
 40
0.0
  9
$STEPSPERSEC
 40
2.0
  9
$STEPSIZE
 40
6.0
  9
$3DDWFPREC
 40
2.0
  9
$PSOLWIDTH
 40
0.25
  9
$PSOLHEIGHT
 40
4.0
  9
$LOFTANG1
 40
1.570796326794897
  9
$LOFTANG2
 40
1.570796326794897
  9
$LOFTMAG1
 40
0.0
  9
$LOFTMAG2
 40
0.0
  9
$LOFTPARAM
 70
     7
  9
$LOFTNORMALS
280
     1
  9
$LATITUDE
 40
37.795
  9
$LONGITUDE
 40
-122.394
  9
$NORTHDIRECTION
 40
0.0
  9
$TIMEZONE
 70
 -8000
  9
$LIGHTGLYPHDISPLAY
280
     1
  9
$TILEMODELIGHTSYNCH
280
     1
  9
$SOLIDHIST
280
     1
  9
$SHOWHIST
280
     1
  9
$DWFFRAME
280
     2
  9
$DGNFRAME
280
     2
  9
$REALWORLDSCALE
290
     1
  9
$INTERFERECOLOR
 62
   256
  9
$CSHADOW
280
     0
  9
$SHADOWPLANELOCATION
 40
0.0
  0
ENDSEC
  0
SECTION
  2
CLASSES
  0
CLASS
  1
ACDBDICTIONARYWDFLT
  2
AcDbDictionaryWithDefault
  3
ObjectDBX Classes
 90
        0
 91
        4
280
     0
281
     0
  0
CLASS
  1
VISUALSTYLE
  2
AcDbVisualStyle
  3
ObjectDBX Classes
 90
     4095
 91
        4
280
     0
281
     0
  0
CLASS
  1
MATERIAL
  2
AcDbMaterial
  3
ObjectDBX Classes
 90
     1153
 91
        4
280
     0
281
     0
  0
ENDSEC
  0
SECTION
  2
TABLES
  0
TABLE
  2
VPORT
  5
8
330
0
100
AcDbSymbolTable
 70
     1
  0
VPORT
  5
29
330
8
100
AcDbSymbolTableRecord
100
AcDbViewportTableRecord
  2
*Active
 70
     0
 10
0.0
 20
0.0
 11
1.0
 21
1.0
 12
10.42990654205607
 22
4.5
 13
0.0
 23
0.0
 14
0.5
 24
0.5
 15
0.5
 25
0.5
 16
0.0
 26
0.0
 36
1.0
 17
0.0
 27
0.0
 37
0.0
 40
9.0
 41
1.972972972850329
 42
50.0
 43
0.0
 44
0.0
 50
0.0
 51
0.0
 71
     0
 72
   100
 73
     1
 74
     3
 75
     0
 76
     0
 77
     0
 78
     0
281
     0
 65
     1
110
0.0
120
0.0
130
0.0
111
1.0
121
0.0
131
0.0
112
0.0
122
1.0
132
0.0
 79
     0
146
0.0
 60
     3
 61
     5
292
     1
282
     1
141
0.0
142
0.0
 63
   250
  0
ENDTAB
  0
TABLE
  2
LTYPE
  5
5
330
0
100
AcDbSymbolTable
 70
     1
  0
LTYPE
  5
14
330
5
100
AcDbSymbolTableRecord
100
AcDbLinetypeTableRecord
  2
ByBlock
 70
     0
  3

 72
    65
 73
     0
 40
0.0
  0
LTYPE
  5
15
330
5
100
AcDbSymbolTableRecord
100
AcDbLinetypeTableRecord
  2
ByLayer
 70
     0
  3

 72
    65
 73
     0
 40
0.0
  0
LTYPE
  5
16
330
5
100
AcDbSymbolTableRecord
100
AcDbLinetypeTableRecord
  2
Continuous
 70
     0
  3
Solid line
 72
    65
 73
     0
 40
0.0
  0
ENDTAB
  0
TABLE
  2
LAYER
  5
2
330
0
100
AcDbSymbolTable
 70
     2
  0
LAYER
  5
10
330
2
100
AcDbSymbolTableRecord
100
AcDbLayerTableRecord
  2
0
 70
     0
 62
     7
  6
Continuous
370
    -3
390
F
347
3E
  0
LAYER
  5
40
330
2
100
AcDbSymbolTableRecord
100
AcDbLayerTableRecord
  2
Layer 1
 70
     0
 62
     7
  6
Continuous
370
    -3
390
F
347
3E
  0
ENDTAB
  0
TABLE
  2
STYLE
  5
3
330
0
100
AcDbSymbolTable
 70
     1
  0
STYLE
  5
11
330
3
100
AcDbSymbolTableRecord
100
AcDbTextStyleTableRecord
  2
Standard
 70
     0
 40
0.0
 41
1.0
 50
0.0
 71
     0
 42
0.2
  3
txt
  4

  0
ENDTAB
  0
TABLE
  2
VIEW
  5
6
330
0
100
AcDbSymbolTable
 70
     0
  0
ENDTAB
  0
TABLE
  2
UCS
  5
7
330
0
100
AcDbSymbolTable
 70
     0
  0
ENDTAB
  0
TABLE
  2
APPID
  5
9
330
0
100
AcDbSymbolTable
 70
     2
  0
APPID
  5
12
330
9
100
AcDbSymbolTableRecord
100
AcDbRegAppTableRecord
  2
ACAD
 70
     0
  0
APPID
  5
3F
330
9
100
AcDbSymbolTableRecord
100
AcDbRegAppTableRecord
  2
ODA
 70
     0
  0
ENDTAB
  0
TABLE
  2
DIMSTYLE
  5
A
330
0
100
AcDbSymbolTable
 70
     1
100
AcDbDimStyleTable
  0
DIMSTYLE
105
27
330
A
100
AcDbSymbolTableRecord
100
AcDbDimStyleTableRecord
  2
Standard
 70
     0
178
     0
340
11
  0
ENDTAB
  0
TABLE
  2
BLOCK_RECORD
  5
1
330
0
100
AcDbSymbolTable
 70
     1
  0
BLOCK_RECORD
  5
1F
330
1
100
AcDbSymbolTableRecord
100
AcDbBlockTableRecord
  2
*Model_Space
340
22
 70
     0
280
     1
281
     0
  0
BLOCK_RECORD
  5
1B
330
1
100
AcDbSymbolTableRecord
100
AcDbBlockTableRecord
  2
*Paper_Space
340
1E
 70
     0
280
     1
281
     0
  0
BLOCK_RECORD
  5
23
330
1
100
AcDbSymbolTableRecord
100
AcDbBlockTableRecord
  2
*Paper_Space0
340
26
 70
     0
280
     1
281
     0
  0
ENDTAB
  0
ENDSEC
  0
SECTION
  2
BLOCKS
  0
BLOCK
  5
20
330
1F
100
AcDbEntity
  8
0
100
AcDbBlockBegin
  2
*Model_Space
 70
     0
 10
0.0
 20
0.0
 30
0.0
  3
*Model_Space
  1

  0
ENDBLK
  5
21
330
1F
100
AcDbEntity
  8
0
100
AcDbBlockEnd
  0
BLOCK
  5
1C
330
1B
100
AcDbEntity
 67
     1
  8
0
100
AcDbBlockBegin
  2
*Paper_Space
 70
     0
 10
0.0
 20
0.0
 30
0.0
  3
*Paper_Space
  1

  0
ENDBLK
  5
1D
330
1B
100
AcDbEntity
 67
     1
  8
0
100
AcDbBlockEnd
  0
BLOCK
  5
24
330
23
100
AcDbEntity
  8
0
100
AcDbBlockBegin
  2
*Paper_Space0
 70
     0
 10
0.0
 20
0.0
 30
0.0
  3
*Paper_Space0
  1

  0
ENDBLK
  5
25
330
23
100
AcDbEntity
  8
0
100
AcDbBlockEnd
  0
ENDSEC
  0
SECTION
  2
ENTITIES
  0
SPLINE
  5
41
330
1F
100
AcDbEntity
  8
Layer 1
370
    53
100
AcDbSpline
210
0.0
220
0.0
230
1.0
 70
    11
 71
     3
 72
  1156
 73
  1152
 74
     0
 42
0.0000000001
 43
0.0000000001
 12
1.0
 22
0.0
 32
0.0
 13
1.0
 23
0.0
 33
0.0
 40
0.0
 40
0.0
 40
0.0
 40
0.0
 40
0.0034602076124567
 40
0.0034602076124567
 40
0.0034602076124567
 40
0.0034602076124567
 40
0.0069204152249135
 40
0.0069204152249135
 40
0.0069204152249135
 40
0.0069204152249135
 40
0.0103806228373702
 40
0.0103806228373702
 40
0.0103806228373702
 40
0.0103806228373702
 40
0.013840830449827
 40
0.013840830449827
 40
0.013840830449827
 40
0.013840830449827
 40
0.0173010380622837
 40
0.0173010380622837
 40
0.0173010380622837
 40
0.0173010380622837
 40
0.0207612456747405
 40
0.0207612456747405
 40
0.0207612456747405
 40
0.0207612456747405
 40
0.0242214532871972
 40
0.0242214532871972
 40
0.0242214532871972
 40
0.0242214532871972
 40
0.027681660899654
 40
0.027681660899654
 40
0.027681660899654
 40
0.027681660899654
 40
0.0311418685121107
 40
0.0311418685121107
 40
0.0311418685121107
 40
0.0311418685121107
 40
0.0346020761245675
 40
0.0346020761245675
 40
0.0346020761245675
 40
0.0346020761245675
 40
0.0380622837370242
 40
0.0380622837370242
 40
0.0380622837370242
 40
0.0380622837370242
 40
0.041522491349481
 40
0.041522491349481
 40
0.041522491349481
 40
0.041522491349481
 40
0.0449826989619377
 40
0.0449826989619377
 40
0.0449826989619377
 40
0.0449826989619377
 40
0.0484429065743945
 40
0.0484429065743945
 40
0.0484429065743945
 40
0.0484429065743945
 40
0.0519031141868512
 40
0.0519031141868512
 40
0.0519031141868512
 40
0.0519031141868512
 40
0.055363321799308
 40
0.055363321799308
 40
0.055363321799308
 40
0.055363321799308
 40
0.0588235294117647
 40
0.0588235294117647
 40
0.0588235294117647
 40
0.0588235294117647
 40
0.0622837370242214
 40
0.0622837370242214
 40
0.0622837370242214
 40
0.0622837370242214
 40
0.0657439446366782
 40
0.0657439446366782
 40
0.0657439446366782
 40
0.0657439446366782
 40
0.069204152249135
 40
0.069204152249135
 40
0.069204152249135
 40
0.069204152249135
 40
0.0726643598615917
 40
0.0726643598615917
 40
0.0726643598615917
 40
0.0726643598615917
 40
0.0761245674740484
 40
0.0761245674740484
 40
0.0761245674740484
 40
0.0761245674740484
 40
0.0795847750865052
 40
0.0795847750865052
 40
0.0795847750865052
 40
0.0795847750865052
 40
0.0830449826989619
 40
0.0830449826989619
 40
0.0830449826989619
 40
0.0830449826989619
 40
0.0865051903114187
 40
0.0865051903114187
 40
0.0865051903114187
 40
0.0865051903114187
 40
0.0899653979238754
 40
0.0899653979238754
 40
0.0899653979238754
 40
0.0899653979238754
 40
0.0934256055363322
 40
0.0934256055363322
 40
0.0934256055363322
 40
0.0934256055363322
 40
0.0968858131487889
 40
0.0968858131487889
 40
0.0968858131487889
 40
0.0968858131487889
 40
0.1003460207612457
 40
0.1003460207612457
 40
0.1003460207612457
 40
0.1003460207612457
 40
0.1038062283737024
 40
0.1038062283737024
 40
0.1038062283737024
 40
0.1038062283737024
 40
0.1072664359861592
 40
0.1072664359861592
 40
0.1072664359861592
 40
0.1072664359861592
 40
0.1107266435986159
 40
0.1107266435986159
 40
0.1107266435986159
 40
0.1107266435986159
 40
0.1141868512110727
 40
0.1141868512110727
 40
0.1141868512110727
 40
0.1141868512110727
 40
0.1176470588235294
 40
0.1176470588235294
 40
0.1176470588235294
 40
0.1176470588235294
 40
0.1211072664359862
 40
0.1211072664359862
 40
0.1211072664359862
 40
0.1211072664359862
 40
0.1245674740484429
 40
0.1245674740484429
 40
0.1245674740484429
 40
0.1245674740484429
 40
0.1280276816608996
 40
0.1280276816608996
 40
0.1280276816608996
 40
0.1280276816608996
 40
0.1314878892733564
 40
0.1314878892733564
 40
0.1314878892733564
 40
0.1314878892733564
 40
0.1349480968858132
 40
0.1349480968858132
 40
0.1349480968858132
 40
0.1349480968858132
 40
0.1384083044982699
 40
0.1384083044982699
 40
0.1384083044982699
 40
0.1384083044982699
 40
0.1418685121107267
 40
0.1418685121107267
 40
0.1418685121107267
 40
0.1418685121107267
 40
0.1453287197231834
 40
0.1453287197231834
 40
0.1453287197231834
 40
0.1453287197231834
 40
0.1487889273356401
 40
0.1487889273356401
 40
0.1487889273356401
 40
0.1487889273356401
 40
0.1522491349480969
 40
0.1522491349480969
 40
0.1522491349480969
 40
0.1522491349480969
 40
0.1557093425605536
 40
0.1557093425605536
 40
0.1557093425605536
 40
0.1557093425605536
 40
0.1591695501730104
 40
0.1591695501730104
 40
0.1591695501730104
 40
0.1591695501730104
 40
0.1626297577854671
 40
0.1626297577854671
 40
0.1626297577854671
 40
0.1626297577854671
 40
0.1660899653979239
 40
0.1660899653979239
 40
0.1660899653979239
 40
0.1660899653979239
 40
0.1695501730103806
 40
0.1695501730103806
 40
0.1695501730103806
 40
0.1695501730103806
 40
0.1730103806228374
 40
0.1730103806228374
 40
0.1730103806228374
 40
0.1730103806228374
 40
0.1764705882352941
 40
0.1764705882352941
 40
0.1764705882352941
 40
0.1764705882352941
 40
0.1799307958477509
 40
0.1799307958477509
 40
0.1799307958477509
 40
0.1799307958477509
 40
0.1833910034602076
 40
0.1833910034602076
 40
0.1833910034602076
 40
0.1833910034602076
 40
0.1868512110726644
 40
0.1868512110726644
 40
0.1868512110726644
 40
0.1868512110726644
 40
0.1903114186851211
 40
0.1903114186851211
 40
0.1903114186851211
 40
0.1903114186851211
 40
0.1937716262975779
 40
0.1937716262975779
 40
0.1937716262975779
 40
0.1937716262975779
 40
0.1972318339100346
 40
0.1972318339100346
 40
0.1972318339100346
 40
0.1972318339100346
 40
0.2006920415224913
 40
0.2006920415224913
 40
0.2006920415224913
 40
0.2006920415224913
 40
0.2041522491349481
 40
0.2041522491349481
 40
0.2041522491349481
 40
0.2041522491349481
 40
0.2076124567474048
 40
0.2076124567474048
 40
0.2076124567474048
 40
0.2076124567474048
 40
0.2110726643598616
 40
0.2110726643598616
 40
0.2110726643598616
 40
0.2110726643598616
 40
0.2145328719723184
 40
0.2145328719723184
 40
0.2145328719723184
 40
0.2145328719723184
 40
0.2179930795847751
 40
0.2179930795847751
 40
0.2179930795847751
 40
0.2179930795847751
 40
0.2214532871972318
 40
0.2214532871972318
 40
0.2214532871972318
 40
0.2214532871972318
 40
0.2249134948096886
 40
0.2249134948096886
 40
0.2249134948096886
 40
0.2249134948096886
 40
0.2283737024221453
 40
0.2283737024221453
 40
0.2283737024221453
 40
0.2283737024221453
 40
0.2318339100346021
 40
0.2318339100346021
 40
0.2318339100346021
 40
0.2318339100346021
 40
0.2352941176470588
 40
0.2352941176470588
 40
0.2352941176470588
 40
0.2352941176470588
 40
0.2387543252595156
 40
0.2387543252595156
 40
0.2387543252595156
 40
0.2387543252595156
 40
0.2422145328719723
 40
0.2422145328719723
 40
0.2422145328719723
 40
0.2422145328719723
 40
0.2456747404844291
 40
0.2456747404844291
 40
0.2456747404844291
 40
0.2456747404844291
 40
0.2491349480968858
 40
0.2491349480968858
 40
0.2491349480968858
 40
0.2491349480968858
 40
0.2525951557093425
 40
0.2525951557093425
 40
0.2525951557093425
 40
0.2525951557093425
 40
0.2560553633217993
 40
0.2560553633217993
 40
0.2560553633217993
 40
0.2560553633217993
 40
0.259515570934256
 40
0.259515570934256
 40
0.259515570934256
 40
0.259515570934256
 40
0.2629757785467128
 40
0.2629757785467128
 40
0.2629757785467128
 40
0.2629757785467128
 40
0.2664359861591695
 40
0.2664359861591695
 40
0.2664359861591695
 40
0.2664359861591695
 40
0.2698961937716263
 40
0.2698961937716263
 40
0.2698961937716263
 40
0.2698961937716263
 40
0.2733564013840831
 40
0.2733564013840831
 40
0.2733564013840831
 40
0.2733564013840831
 40
0.2768166089965398
 40
0.2768166089965398
 40
0.2768166089965398
 40
0.2768166089965398
 40
0.2802768166089966
 40
0.2802768166089966
 40
0.2802768166089966
 40
0.2802768166089966
 40
0.2837370242214533
 40
0.2837370242214533
 40
0.2837370242214533
 40
0.2837370242214533
 40
0.28719723183391
 40
0.28719723183391
 40
0.28719723183391
 40
0.28719723183391
 40
0.2906574394463668
 40
0.2906574394463668
 40
0.2906574394463668
 40
0.2906574394463668
 40
0.2941176470588235
 40
0.2941176470588235
 40
0.2941176470588235
 40
0.2941176470588235
 40
0.2975778546712803
 40
0.2975778546712803
 40
0.2975778546712803
 40
0.2975778546712803
 40
0.301038062283737
 40
0.301038062283737
 40
0.301038062283737
 40
0.301038062283737
 40
0.3044982698961938
 40
0.3044982698961938
 40
0.3044982698961938
 40
0.3044982698961938
 40
0.3079584775086505
 40
0.3079584775086505
 40
0.3079584775086505
 40
0.3079584775086505
 40
0.3114186851211073
 40
0.3114186851211073
 40
0.3114186851211073
 40
0.3114186851211073
 40
0.314878892733564
 40
0.314878892733564
 40
0.314878892733564
 40
0.314878892733564
 40
0.3183391003460208
 40
0.3183391003460208
 40
0.3183391003460208
 40
0.3183391003460208
 40
0.3217993079584775
 40
0.3217993079584775
 40
0.3217993079584775
 40
0.3217993079584775
 40
0.3252595155709342
 40
0.3252595155709342
 40
0.3252595155709342
 40
0.3252595155709342
 40
0.328719723183391
 40
0.328719723183391
 40
0.328719723183391
 40
0.328719723183391
 40
0.3321799307958477
 40
0.3321799307958477
 40
0.3321799307958477
 40
0.3321799307958477
 40
0.3356401384083045
 40
0.3356401384083045
 40
0.3356401384083045
 40
0.3356401384083045
 40
0.3391003460207612
 40
0.3391003460207612
 40
0.3391003460207612
 40
0.3391003460207612
 40
0.342560553633218
 40
0.342560553633218
 40
0.342560553633218
 40
0.342560553633218
 40
0.3460207612456747
 40
0.3460207612456747
 40
0.3460207612456747
 40
0.3460207612456747
 40
0.3494809688581315
 40
0.3494809688581315
 40
0.3494809688581315
 40
0.3494809688581315
 40
0.3529411764705883
 40
0.3529411764705883
 40
0.3529411764705883
 40
0.3529411764705883
 40
0.356401384083045
 40
0.356401384083045
 40
0.356401384083045
 40
0.356401384083045
 40
0.3598615916955017
 40
0.3598615916955017
 40
0.3598615916955017
 40
0.3598615916955017
 40
0.3633217993079585
 40
0.3633217993079585
 40
0.3633217993079585
 40
0.3633217993079585
 40
0.3667820069204152
 40
0.3667820069204152
 40
0.3667820069204152
 40
0.3667820069204152
 40
0.370242214532872
 40
0.370242214532872
 40
0.370242214532872
 40
0.370242214532872
 40
0.3737024221453287
 40
0.3737024221453287
 40
0.3737024221453287
 40
0.3737024221453287
 40
0.3771626297577855
 40
0.3771626297577855
 40
0.3771626297577855
 40
0.3771626297577855
 40
0.3806228373702422
 40
0.3806228373702422
 40
0.3806228373702422
 40
0.3806228373702422
 40
0.384083044982699
 40
0.384083044982699
 40
0.384083044982699
 40
0.384083044982699
 40
0.3875432525951557
 40
0.3875432525951557
 40
0.3875432525951557
 40
0.3875432525951557
 40
0.3910034602076125
 40
0.3910034602076125
 40
0.3910034602076125
 40
0.3910034602076125
 40
0.3944636678200692
 40
0.3944636678200692
 40
0.3944636678200692
 40
0.3944636678200692
 40
0.3979238754325259
 40
0.3979238754325259
 40
0.3979238754325259
 40
0.3979238754325259
 40
0.4013840830449827
 40
0.4013840830449827
 40
0.4013840830449827
 40
0.4013840830449827
 40
0.4048442906574394
 40
0.4048442906574394
 40
0.4048442906574394
 40
0.4048442906574394
 40
0.4083044982698962
 40
0.4083044982698962
 40
0.4083044982698962
 40
0.4083044982698962
 40
0.4117647058823529
 40
0.4117647058823529
 40
0.4117647058823529
 40
0.4117647058823529
 40
0.4152249134948097
 40
0.4152249134948097
 40
0.4152249134948097
 40
0.4152249134948097
 40
0.4186851211072664
 40
0.4186851211072664
 40
0.4186851211072664
 40
0.4186851211072664
 40
0.4221453287197232
 40
0.4221453287197232
 40
0.4221453287197232
 40
0.4221453287197232
 40
0.42560553633218
 40
0.42560553633218
 40
0.42560553633218
 40
0.42560553633218
 40
0.4290657439446367
 40
0.4290657439446367
 40
0.4290657439446367
 40
0.4290657439446367
 40
0.4325259515570934
 40
0.4325259515570934
 40
0.4325259515570934
 40
0.4325259515570934
 40
0.4359861591695502
 40
0.4359861591695502
 40
0.4359861591695502
 40
0.4359861591695502
 40
0.4394463667820069
 40
0.4394463667820069
 40
0.4394463667820069
 40
0.4394463667820069
 40
0.4429065743944637
 40
0.4429065743944637
 40
0.4429065743944637
 40
0.4429065743944637
 40
0.4463667820069204
 40
0.4463667820069204
 40
0.4463667820069204
 40
0.4463667820069204
 40
0.4498269896193772
 40
0.4498269896193772
 40
0.4498269896193772
 40
0.4498269896193772
 40
0.4532871972318339
 40
0.4532871972318339
 40
0.4532871972318339
 40
0.4532871972318339
 40
0.4567474048442907
 40
0.4567474048442907
 40
0.4567474048442907
 40
0.4567474048442907
 40
0.4602076124567474
 40
0.4602076124567474
 40
0.4602076124567474
 40
0.4602076124567474
 40
0.4636678200692042
 40
0.4636678200692042
 40
0.4636678200692042
 40
0.4636678200692042
 40
0.4671280276816609
 40
0.4671280276816609
 40
0.4671280276816609
 40
0.4671280276816609
 40
0.4705882352941176
 40
0.4705882352941176
 40
0.4705882352941176
 40
0.4705882352941176
 40
0.4740484429065744
 40
0.4740484429065744
 40
0.4740484429065744
 40
0.4740484429065744
 40
0.4775086505190311
 40
0.4775086505190311
 40
0.4775086505190311
 40
0.4775086505190311
 40
0.4809688581314879
 40
0.4809688581314879
 40
0.4809688581314879
 40
0.4809688581314879
 40
0.4844290657439446
 40
0.4844290657439446
 40
0.4844290657439446
 40
0.4844290657439446
 40
0.4878892733564014
 40
0.4878892733564014
 40
0.4878892733564014
 40
0.4878892733564014
 40
0.4913494809688581
 40
0.4913494809688581
 40
0.4913494809688581
 40
0.4913494809688581
 40
0.4948096885813149
 40
0.4948096885813149
 40
0.4948096885813149
 40
0.4948096885813149
 40
0.4982698961937716
 40
0.4982698961937716
 40
0.4982698961937716
 40
0.4982698961937716
 40
0.5017301038062284
 40
0.5017301038062284
 40
0.5017301038062284
 40
0.5017301038062284
 40
0.5051903114186851
 40
0.5051903114186851
 40
0.5051903114186851
 40
0.5051903114186851
 40
0.5086505190311419
 40
0.5086505190311419
 40
0.5086505190311419
 40
0.5086505190311419
 40
0.5121107266435986
 40
0.5121107266435986
 40
0.5121107266435986
 40
0.5121107266435986
 40
0.5155709342560554
 40
0.5155709342560554
 40
0.5155709342560554
 40
0.5155709342560554
 40
0.5190311418685121
 40
0.5190311418685121
 40
0.5190311418685121
 40
0.5190311418685121
 40
0.5224913494809689
 40
0.5224913494809689
 40
0.5224913494809689
 40
0.5224913494809689
 40
0.5259515570934256
 40
0.5259515570934256
 40
0.5259515570934256
 40
0.5259515570934256
 40
0.5294117647058824
 40
0.5294117647058824
 40
0.5294117647058824
 40
0.5294117647058824
 40
0.532871972318339
 40
0.532871972318339
 40
0.532871972318339
 40
0.532871972318339
 40
0.5363321799307958
 40
0.5363321799307958
 40
0.5363321799307958
 40
0.5363321799307958
 40
0.5397923875432526
 40
0.5397923875432526
 40
0.5397923875432526
 40
0.5397923875432526
 40
0.5432525951557093
 40
0.5432525951557093
 40
0.5432525951557093
 40
0.5432525951557093
 40
0.5467128027681661
 40
0.5467128027681661
 40
0.5467128027681661
 40
0.5467128027681661
 40
0.5501730103806228
 40
0.5501730103806228
 40
0.5501730103806228
 40
0.5501730103806228
 40
0.5536332179930796
 40
0.5536332179930796
 40
0.5536332179930796
 40
0.5536332179930796
 40
0.5570934256055363
 40
0.5570934256055363
 40
0.5570934256055363
 40
0.5570934256055363
 40
0.5605536332179931
 40
0.5605536332179931
 40
0.5605536332179931
 40
0.5605536332179931
 40
0.5640138408304498
 40
0.5640138408304498
 40
0.5640138408304498
 40
0.5640138408304498
 40
0.5674740484429066
 40
0.5674740484429066
 40
0.5674740484429066
 40
0.5674740484429066
 40
0.5709342560553633
 40
0.5709342560553633
 40
0.5709342560553633
 40
0.5709342560553633
 40
0.5743944636678201
 40
0.5743944636678201
 40
0.5743944636678201
 40
0.5743944636678201
 40
0.5778546712802768
 40
0.5778546712802768
 40
0.5778546712802768
 40
0.5778546712802768
 40
0.5813148788927336
 40
0.5813148788927336
 40
0.5813148788927336
 40
0.5813148788927336
 40
0.5847750865051903
 40
0.5847750865051903
 40
0.5847750865051903
 40
0.5847750865051903
 40
0.5882352941176471
 40
0.5882352941176471
 40
0.5882352941176471
 40
0.5882352941176471
 40
0.5916955017301038
 40
0.5916955017301038
 40
0.5916955017301038
 40
0.5916955017301038
 40
0.5951557093425606
 40
0.5951557093425606
 40
0.5951557093425606
 40
0.5951557093425606
 40
0.5986159169550173
 40
0.5986159169550173
 40
0.5986159169550173
 40
0.5986159169550173
 40
0.6020761245674741
 40
0.6020761245674741
 40
0.6020761245674741
 40
0.6020761245674741
 40
0.6055363321799307
 40
0.6055363321799307
 40
0.6055363321799307
 40
0.6055363321799307
 40
0.6089965397923875
 40
0.6089965397923875
 40
0.6089965397923875
 40
0.6089965397923875
 40
0.6124567474048442
 40
0.6124567474048442
 40
0.6124567474048442
 40
0.6124567474048442
 40
0.615916955017301
 40
0.615916955017301
 40
0.615916955017301
 40
0.615916955017301
 40
0.6193771626297578
 40
0.6193771626297578
 40
0.6193771626297578
 40
0.6193771626297578
 40
0.6228373702422145
 40
0.6228373702422145
 40
0.6228373702422145
 40
0.6228373702422145
 40
0.6262975778546713
 40
0.6262975778546713
 40
0.6262975778546713
 40
0.6262975778546713
 40
0.629757785467128
 40
0.629757785467128
 40
0.629757785467128
 40
0.629757785467128
 40
0.6332179930795848
 40
0.6332179930795848
 40
0.6332179930795848
 40
0.6332179930795848
 40
0.6366782006920415
 40
0.6366782006920415
 40
0.6366782006920415
 40
0.6366782006920415
 40
0.6401384083044983
 40
0.6401384083044983
 40
0.6401384083044983
 40
0.6401384083044983
 40
0.643598615916955
 40
0.643598615916955
 40
0.643598615916955
 40
0.643598615916955
 40
0.6470588235294118
 40
0.6470588235294118
 40
0.6470588235294118
 40
0.6470588235294118
 40
0.6505190311418685
 40
0.6505190311418685
 40
0.6505190311418685
 40
0.6505190311418685
 40
0.6539792387543253
 40
0.6539792387543253
 40
0.6539792387543253
 40
0.6539792387543253
 40
0.657439446366782
 40
0.657439446366782
 40
0.657439446366782
 40
0.657439446366782
 40
0.6608996539792388
 40
0.6608996539792388
 40
0.6608996539792388
 40
0.6608996539792388
 40
0.6643598615916955
 40
0.6643598615916955
 40
0.6643598615916955
 40
0.6643598615916955
 40
0.6678200692041523
 40
0.6678200692041523
 40
0.6678200692041523
 40
0.6678200692041523
 40
0.671280276816609
 40
0.671280276816609
 40
0.671280276816609
 40
0.671280276816609
 40
0.6747404844290658
 40
0.6747404844290658
 40
0.6747404844290658
 40
0.6747404844290658
 40
0.6782006920415224
 40
0.6782006920415224
 40
0.6782006920415224
 40
0.6782006920415224
 40
0.6816608996539792
 40
0.6816608996539792
 40
0.6816608996539792
 40
0.6816608996539792
 40
0.6851211072664359
 40
0.6851211072664359
 40
0.6851211072664359
 40
0.6851211072664359
 40
0.6885813148788927
 40
0.6885813148788927
 40
0.6885813148788927
 40
0.6885813148788927
 40
0.6920415224913494
 40
0.6920415224913494
 40
0.6920415224913494
 40
0.6920415224913494
 40
0.6955017301038062
 40
0.6955017301038062
 40
0.6955017301038062
 40
0.6955017301038062
 40
0.698961937716263
 40
0.698961937716263
 40
0.698961937716263
 40
0.698961937716263
 40
0.7024221453287197
 40
0.7024221453287197
 40
0.7024221453287197
 40
0.7024221453287197
 40
0.7058823529411765
 40
0.7058823529411765
 40
0.7058823529411765
 40
0.7058823529411765
 40
0.7093425605536332
 40
0.7093425605536332
 40
0.7093425605536332
 40
0.7093425605536332
 40
0.71280276816609
 40
0.71280276816609
 40
0.71280276816609
 40
0.71280276816609
 40
0.7162629757785467
 40
0.7162629757785467
 40
0.7162629757785467
 40
0.7162629757785467
 40
0.7197231833910035
 40
0.7197231833910035
 40
0.7197231833910035
 40
0.7197231833910035
 40
0.7231833910034602
 40
0.7231833910034602
 40
0.7231833910034602
 40
0.7231833910034602
 40
0.726643598615917
 40
0.726643598615917
 40
0.726643598615917
 40
0.726643598615917
 40
0.7301038062283737
 40
0.7301038062283737
 40
0.7301038062283737
 40
0.7301038062283737
 40
0.7335640138408305
 40
0.7335640138408305
 40
0.7335640138408305
 40
0.7335640138408305
 40
0.7370242214532872
 40
0.7370242214532872
 40
0.7370242214532872
 40
0.7370242214532872
 40
0.740484429065744
 40
0.740484429065744
 40
0.740484429065744
 40
0.740484429065744
 40
0.7439446366782007
 40
0.7439446366782007
 40
0.7439446366782007
 40
0.7439446366782007
 40
0.7474048442906575
 40
0.7474048442906575
 40
0.7474048442906575
 40
0.7474048442906575
 40
0.7508650519031141
 40
0.7508650519031141
 40
0.7508650519031141
 40
0.7508650519031141
 40
0.754325259515571
 40
0.754325259515571
 40
0.754325259515571
 40
0.754325259515571
 40
0.7577854671280276
 40
0.7577854671280276
 40
0.7577854671280276
 40
0.7577854671280276
 40
0.7612456747404844
 40
0.7612456747404844
 40
0.7612456747404844
 40
0.7612456747404844
 40
0.7647058823529411
 40
0.7647058823529411
 40
0.7647058823529411
 40
0.7647058823529411
 40
0.7681660899653979
 40
0.7681660899653979
 40
0.7681660899653979
 40
0.7681660899653979
 40
0.7716262975778547
 40
0.7716262975778547
 40
0.7716262975778547
 40
0.7716262975778547
 40
0.7750865051903114
 40
0.7750865051903114
 40
0.7750865051903114
 40
0.7750865051903114
 40
0.7785467128027682
 40
0.7785467128027682
 40
0.7785467128027682
 40
0.7785467128027682
 40
0.7820069204152249
 40
0.7820069204152249
 40
0.7820069204152249
 40
0.7820069204152249
 40
0.7854671280276817
 40
0.7854671280276817
 40
0.7854671280276817
 40
0.7854671280276817
 40
0.7889273356401384
 40
0.7889273356401384
 40
0.7889273356401384
 40
0.7889273356401384
 40
0.7923875432525952
 40
0.7923875432525952
 40
0.7923875432525952
 40
0.7923875432525952
 40
0.7958477508650519
 40
0.7958477508650519
 40
0.7958477508650519
 40
0.7958477508650519
 40
0.7993079584775087
 40
0.7993079584775087
 40
0.7993079584775087
 40
0.7993079584775087
 40
0.8027681660899654
 40
0.8027681660899654
 40
0.8027681660899654
 40
0.8027681660899654
 40
0.8062283737024222
 40
0.8062283737024222
 40
0.8062283737024222
 40
0.8062283737024222
 40
0.8096885813148789
 40
0.8096885813148789
 40
0.8096885813148789
 40
0.8096885813148789
 40
0.8131487889273357
 40
0.8131487889273357
 40
0.8131487889273357
 40
0.8131487889273357
 40
0.8166089965397924
 40
0.8166089965397924
 40
0.8166089965397924
 40
0.8166089965397924
 40
0.8200692041522492
 40
0.8200692041522492
 40
0.8200692041522492
 40
0.8200692041522492
 40
0.8235294117647058
 40
0.8235294117647058
 40
0.8235294117647058
 40
0.8235294117647058
 40
0.8269896193771626
 40
0.8269896193771626
 40
0.8269896193771626
 40
0.8269896193771626
 40
0.8304498269896193
 40
0.8304498269896193
 40
0.8304498269896193
 40
0.8304498269896193
 40
0.8339100346020761
 40
0.8339100346020761
 40
0.8339100346020761
 40
0.8339100346020761
 40
0.8373702422145328
 40
0.8373702422145328
 40
0.8373702422145328
 40
0.8373702422145328
 40
0.8408304498269896
 40
0.8408304498269896
 40
0.8408304498269896
 40
0.8408304498269896
 40
0.8442906574394463
 40
0.8442906574394463
 40
0.8442906574394463
 40
0.8442906574394463
 40
0.8477508650519031
 40
0.8477508650519031
 40
0.8477508650519031
 40
0.8477508650519031
 40
0.8512110726643599
 40
0.8512110726643599
 40
0.8512110726643599
 40
0.8512110726643599
 40
0.8546712802768166
 40
0.8546712802768166
 40
0.8546712802768166
 40
0.8546712802768166
 40
0.8581314878892734
 40
0.8581314878892734
 40
0.8581314878892734
 40
0.8581314878892734
 40
0.8615916955017301
 40
0.8615916955017301
 40
0.8615916955017301
 40
0.8615916955017301
 40
0.8650519031141869
 40
0.8650519031141869
 40
0.8650519031141869
 40
0.8650519031141869
 40
0.8685121107266436
 40
0.8685121107266436
 40
0.8685121107266436
 40
0.8685121107266436
 40
0.8719723183391004
 40
0.8719723183391004
 40
0.8719723183391004
 40
0.8719723183391004
 40
0.8754325259515571
 40
0.8754325259515571
 40
0.8754325259515571
 40
0.8754325259515571
 40
0.8788927335640139
 40
0.8788927335640139
 40
0.8788927335640139
 40
0.8788927335640139
 40
0.8823529411764706
 40
0.8823529411764706
 40
0.8823529411764706
 40
0.8823529411764706
 40
0.8858131487889274
 40
0.8858131487889274
 40
0.8858131487889274
 40
0.8858131487889274
 40
0.889273356401384
 40
0.889273356401384
 40
0.889273356401384
 40
0.889273356401384
 40
0.8927335640138409
 40
0.8927335640138409
 40
0.8927335640138409
 40
0.8927335640138409
 40
0.8961937716262975
 40
0.8961937716262975
 40
0.8961937716262975
 40
0.8961937716262975
 40
0.8996539792387543
 40
0.8996539792387543
 40
0.8996539792387543
 40
0.8996539792387543
 40
0.903114186851211
 40
0.903114186851211
 40
0.903114186851211
 40
0.903114186851211
 40
0.9065743944636678
 40
0.9065743944636678
 40
0.9065743944636678
 40
0.9065743944636678
 40
0.9100346020761245
 40
0.9100346020761245
 40
0.9100346020761245
 40
0.9100346020761245
 40
0.9134948096885813
 40
0.9134948096885813
 40
0.9134948096885813
 40
0.9134948096885813
 40
0.916955017301038
 40
0.916955017301038
 40
0.916955017301038
 40
0.916955017301038
 40
0.9204152249134948
 40
0.9204152249134948
 40
0.9204152249134948
 40
0.9204152249134948
 40
0.9238754325259516
 40
0.9238754325259516
 40
0.9238754325259516
 40
0.9238754325259516
 40
0.9273356401384083
 40
0.9273356401384083
 40
0.9273356401384083
 40
0.9273356401384083
 40
0.9307958477508651
 40
0.9307958477508651
 40
0.9307958477508651
 40
0.9307958477508651
 40
0.9342560553633218
 40
0.9342560553633218
 40
0.9342560553633218
 40
0.9342560553633218
 40
0.9377162629757786
 40
0.9377162629757786
 40
0.9377162629757786
 40
0.9377162629757786
 40
0.9411764705882353
 40
0.9411764705882353
 40
0.9411764705882353
 40
0.9411764705882353
 40
0.9446366782006921
 40
0.9446366782006921
 40
0.9446366782006921
 40
0.9446366782006921
 40
0.9480968858131488
 40
0.9480968858131488
 40
0.9480968858131488
 40
0.9480968858131488
 40
0.9515570934256056
 40
0.9515570934256056
 40
0.9515570934256056
 40
0.9515570934256056
 40
0.9550173010380623
 40
0.9550173010380623
 40
0.9550173010380623
 40
0.9550173010380623
 40
0.9584775086505191
 40
0.9584775086505191
 40
0.9584775086505191
 40
0.9584775086505191
 40
0.9619377162629758
 40
0.9619377162629758
 40
0.9619377162629758
 40
0.9619377162629758
 40
0.9653979238754326
 40
0.9653979238754326
 40
0.9653979238754326
 40
0.9653979238754326
 40
0.9688581314878892
 40
0.9688581314878892
 40
0.9688581314878892
 40
0.9688581314878892
 40
0.972318339100346
 40
0.972318339100346
 40
0.972318339100346
 40
0.972318339100346
 40
0.9757785467128027
 40
0.9757785467128027
 40
0.9757785467128027
 40
0.9757785467128027
 40
0.9792387543252595
 40
0.9792387543252595
 40
0.9792387543252595
 40
0.9792387543252595
 40
0.9826989619377162
 40
0.9826989619377162
 40
0.9826989619377162
 40
0.9826989619377162
 40
0.986159169550173
 40
0.986159169550173
 40
0.986159169550173
 40
0.986159169550173
 40
0.9896193771626297
 40
0.9896193771626297
 40
0.9896193771626297
 40
0.9896193771626297
 40
0.9930795847750865
 40
0.9930795847750865
 40
0.9930795847750865
 40
0.9930795847750865
 40
1.0
 40
1.0
 40
1.0
 40
1.0
 10
-11.79109
 20
-10.69173
 30
0.0
 10
-12.258
 20
-10.60575
 30
0.0
 10
-12.19998
 20
-10.15628
 30
0.0
 10
-12.19998
 20
-9.80004
 30
0.0
 10
-12.19998
 20
-9.80004
 30
0.0
 10
-12.19998
 20
-9.5239
 30
0.0
 10
-11.97612
 20
-9.30004
 30
0.0
 10
-11.69998
 20
-9.30004
 30
0.0
 10
-11.69998
 20
-9.30004
 30
0.0
 10
-11.69998
 20
-9.30004
 30
0.0
 10
-8.29998
 20
-9.30004
 30
0.0
 10
-8.29998
 20
-9.30004
 30
0.0
 10
-8.29998
 20
-9.30004
 30
0.0
 10
-8.02384
 20
-9.30004
 30
0.0
 10
-7.79998
 20
-9.5239
 30
0.0
 10
-7.79998
 20
-9.80004
 30
0.0
 10
-7.79998
 20
-9.80004
 30
0.0
 10
-7.79998
 20
-10.12729
 30
0.0
 10
-7.742
 20
-10.51321
 30
0.0
 10
-8.112
 20
-10.66346
 30
0.0
 10
-8.112
 20
-10.66346
 30
0.0
 10
-7.74788
 20
-10.85958
 30
0.0
 10
-7.27258
 20
-10.86716
 30
0.0
 10
-7.075
 20
-11.21356
 30
0.0
 10
-7.075
 20
-11.21356
 30
0.0
 10
-6.8362
 20
-11.63224
 30
0.0
 10
-7.27245
 20
-12.00891
 30
0.0
 10
-6.719
 20
-12.3152
 30
0.0
 10
-6.719
 20
-12.3152
 30
0.0
 10
-6.46778
 20
-12.45423
 30
0.0
 10
-6.1733
 20
-12.48596
 30
0.0
 10
-5.92719
 20
-12.63236
 30
0.0
 10
-5.92719
 20
-12.63236
 30
0.0
 10
-5.22665
 20
-13.04904
 30
0.0
 10
-4.86151
 20
-14.87519
 30
0.0
 10
-5.87045
 20
-15.40462
 30
0.0
 10
-5.87045
 20
-15.40462
 30
0.0
 10
-6.19148
 20
-15.57309
 30
0.0
 10
-6.55725
 20
-15.65404
 30
0.0
 10
-6.89393
 20
-15.49438
 30
0.0
 10
-6.89393
 20
-15.49438
 30
0.0
 10
-8.04788
 20
-14.9472
 30
0.0
 10
-7.3258
 20
-13.80153
 30
0.0
 10
-6.81059
 20
-14.11852
 30
0.0
 10
-6.81059
 20
-14.11852
 30
0.0
 10
-6.77143
 20
-14.14263
 30
0.0
 10
-6.64241
 20
-14.31906
 30
0.0
 10
-6.73029
 20
-14.32632
 30
0.0
 10
-6.73029
 20
-14.32632
 30
0.0
 10
-6.76656
 20
-14.3293
 30
0.0
 10
-6.76648
 20
-14.29822
 30
0.0
 10
-6.78763
 20
-14.32189
 30
0.0
 10
-6.78763
 20
-14.32189
 30
0.0
 10
-6.80633
 20
-14.38155
 30
0.0
 10
-6.82039
 20
-14.37171
 30
0.0
 10
-6.8768
 20
-14.3605
 30
0.0
 10
-6.8768
 20
-14.3605
 30
0.0
 10
-6.94666
 20
-14.34658
 30
0.0
 10
-6.96095
 20
-14.30443
 30
0.0
 10
-6.94637
 20
-14.30867
 30
0.0
 10
-6.94637
 20
-14.30867
 30
0.0
 10
-6.94637
 20
-14.30867
 30
0.0
 10
-6.94586
 20
-14.3018
 30
0.0
 10
-6.94586
 20
-14.3018
 30
0.0
 10
-6.94586
 20
-14.3018
 30
0.0
 10
-6.97219
 20
-14.31424
 30
0.0
 10
-6.99617
 20
-14.33352
 30
0.0
 10
-7.01729
 20
-14.35723
 30
0.0
 10
-7.01729
 20
-14.35723
 30
0.0
 10
-6.92893
 20
-14.35656
 30
0.0
 10
-6.97436
 20
-14.49431
 30
0.0
 10
-7.03888
 20
-14.5071
 30
0.0
 10
-7.03888
 20
-14.5071
 30
0.0
 10
-7.10269
 20
-14.51975
 30
0.0
 10
-7.10284
 20
-14.49916
 30
0.0
 10
-7.11281
 20
-14.57439
 30
0.0
 10
-7.11281
 20
-14.57439
 30
0.0
 10
-7.01743
 20
-14.54134
 30
0.0
 10
-7.00243
 20
-14.70417
 30
0.0
 10
-7.01299
 20
-14.7222
 30
0.0
 10
-7.01299
 20
-14.7222
 30
0.0
 10
-7.02552
 20
-14.74362
 30
0.0
 10
-7.07024
 20
-14.74251
 30
0.0
 10
-7.06983
 20
-14.74965
 30
0.0
 10
-7.06983
 20
-14.74965
 30
0.0
 10
-7.06983
 20
-14.74965
 30
0.0
 10
-7.08227
 20
-14.74259
 30
0.0
 10
-7.08227
 20
-14.74259
 30
0.0
 10
-7.08227
 20
-14.74259
 30
0.0
 10
-7.0695
 20
-14.76512
 30
0.0
 10
-7.05359
 20
-14.78724
 30
0.0
 10
-7.03527
 20
-14.80849
 30
0.0
 10
-7.03527
 20
-14.80849
 30
0.0
 10
-6.98626
 20
-14.70218
 30
0.0
 10
-6.79873
 20
-14.8723
 30
0.0
 10
-6.89255
 20
-14.92149
 30
0.0
 10
-6.89255
 20
-14.92149
 30
0.0
 10
-6.89403
 20
-14.91723
 30
0.0
 10
-6.89431
 20
-14.91287
 30
0.0
 10
-6.89346
 20
-14.90837
 30
0.0
 10
-6.89346
 20
-14.90837
 30
0.0
 10
-6.89346
 20
-14.90837
 30
0.0
 10
-6.91337
 20
-14.91496
 30
0.0
 10
-6.91337
 20
-14.91496
 30
0.0
 10
-6.91337
 20
-14.91496
 30
0.0
 10
-6.88292
 20
-14.93536
 30
0.0
 10
-6.85091
 20
-14.9532
 30
0.0
 10
-6.81872
 20
-14.96763
 30
0.0
 10
-6.81872
 20
-14.96763
 30
0.0
 10
-6.80908
 20
-14.8905
 30
0.0
 10
-6.78869
 20
-14.88855
 30
0.0
 10
-6.71825
 20
-14.90398
 30
0.0
 10
-6.71825
 20
-14.90398
 30
0.0
 10
-6.65965
 20
-14.91682
 30
0.0
 10
-6.62624
 20
-14.92106
 30
0.0
 10
-6.62885
 20
-14.99025
 30
0.0
 10
-6.62885
 20
-14.99025
 30
0.0
 10
-6.62885
 20
-14.99025
 30
0.0
 10
-6.64907
 20
-15.00744
 30
0.0
 10
-6.64907
 20
-15.00744
 30
0.0
 10
-6.64907
 20
-15.00744
 30
0.0
 10
-6.61679
 20
-15.00663
 30
0.0
 10
-6.5863
 20
-15.00336
 30
0.0
 10
-6.55747
 20
-14.99792
 30
0.0
 10
-6.55747
 20
-14.99792
 30
0.0
 10
-6.59255
 20
-14.90075
 30
0.0
 10
-6.49717
 20
-14.86126
 30
0.0
 10
-6.45775
 20
-14.8652
 30
0.0
 10
-6.45775
 20
-14.8652
 30
0.0
 10
-6.43584
 20
-14.86739
 30
0.0
 10
-6.41367
 20
-14.89943
 30
0.0
 10
-6.4084
 20
-14.89517
 30
0.0
 10
-6.4084
 20
-14.89517
 30
0.0
 10
-6.40225
 20
-14.90431
 30
0.0
 10
-6.38752
 20
-14.91465
 30
0.0
 10
-6.37752
 20
-14.92163
 30
0.0
 10
-6.37752
 20
-14.92163
 30
0.0
 10
-6.37752
 20
-14.92163
 30
0.0
 10
-6.37766
 20
-14.92311
 30
0.0
 10
-6.37766
 20
-14.92311
 30
0.0
 10
-6.37766
 20
-14.92311
 30
0.0
 10
-6.35661
 20
-14.90828
 30
0.0
 10
-6.3371
 20
-14.89171
 30
0.0
 10
-6.31895
 20
-14.87369
 30
0.0
 10
-6.31895
 20
-14.87369
 30
0.0
 10
-6.39107
 20
-14.83909
 30
0.0
 10
-6.30302
 20
-14.69519
 30
0.0
 10
-6.26285
 20
-14.67438
 30
0.0
 10
-6.26285
 20
-14.67438
 30
0.0
 10
-6.24435
 20
-14.66477
 30
0.0
 10
-6.22164
 20
-14.67477
 30
0.0
 10
-6.20112
 20
-14.67466
 30
0.0
 10
-6.20112
 20
-14.67466
 30
0.0
 10
-6.20112
 20
-14.67466
 30
0.0
 10
-6.19504
 20
-14.68445
 30
0.0
 10
-6.19504
 20
-14.68445
 30
0.0
 10
-6.19504
 20
-14.68445
 30
0.0
 10
-6.18737
 20
-14.66632
 30
0.0
 10
-6.18034
 20
-14.64772
 30
0.0
 10
-6.1739
 20
-14.62873
 30
0.0
 10
-6.1739
 20
-14.62873
 30
0.0
 10
-6.27765
 20
-14.60098
 30
0.0
 10
-6.24056
 20
-14.39712
 30
0.0
 10
-6.13498
 20
-14.40569
 30
0.0
 10
-6.13498
 20
-14.40569
 30
0.0
 10
-6.13498
 20
-14.40569
 30
0.0
 10
-6.12721
 20
-14.41667
 30
0.0
 10
-6.12721
 20
-14.41667
 30
0.0
 10
-6.12721
 20
-14.41667
 30
0.0
 10
-6.12428
 20
-14.39242
 30
0.0
 10
-6.12207
 20
-14.368
 30
0.0
 10
-6.12049
 20
-14.34355
 30
0.0
 10
-6.12049
 20
-14.34355
 30
0.0
 10
-6.20202
 20
-14.36814
 30
0.0
 10
-6.22728
 20
-14.15993
 30
0.0
 10
-6.13056
 20
-14.11023
 30
0.0
 10
-6.13056
 20
-14.11023
 30
0.0
 10
-6.13056
 20
-14.11023
 30
0.0
 10
-6.12344
 20
-14.11338
 30
0.0
 10
-6.12344
 20
-14.11338
 30
0.0
 10
-6.12344
 20
-14.11338
 30
0.0
 10
-6.12607
 20
-14.08347
 30
0.0
 10
-6.12952
 20
-14.05416
 30
0.0
 10
-6.13368
 20
-14.02565
 30
0.0
 10
-6.13368
 20
-14.02565
 30
0.0
 10
-6.19125
 20
-14.0336
 30
0.0
 10
-6.21071
 20
-14.06327
 30
0.0
 10
-6.22637
 20
-13.98282
 30
0.0
 10
-6.22637
 20
-13.98282
 30
0.0
 10
-6.23736
 20
-13.92628
 30
0.0
 10
-6.23968
 20
-13.86645
 30
0.0
 10
-6.167
 20
-13.86724
 30
0.0
 10
-6.167
 20
-13.86724
 30
0.0
 10
-6.17441
 20
-13.84308
 30
0.0
 10
-6.18336
 20
-13.81968
 30
0.0
 10
-6.1937
 20
-13.79699
 30
0.0
 10
-6.1937
 20
-13.79699
 30
0.0
 10
-6.26039
 20
-13.83788
 30
0.0
 10
-6.27549
 20
-13.81531
 30
0.0
 10
-6.31802
 20
-13.75924
 30
0.0
 10
-6.31802
 20
-13.75924
 30
0.0
 10
-6.395
 20
-13.65775
 30
0.0
 10
-6.32851
 20
-13.65399
 30
0.0
 10
-6.28791
 20
-13.64832
 30
0.0
 10
-6.28791
 20
-13.64832
 30
0.0
 10
-6.30293
 20
-13.63011
 30
0.0
 10
-6.3189
 20
-13.61244
 30
0.0
 10
-6.33565
 20
-13.59527
 30
0.0
 10
-6.33565
 20
-13.59527
 30
0.0
 10
-6.3781
 20
-13.66795
 30
0.0
 10
-6.43677
 20
-13.63389
 30
0.0
 10
-6.50118
 20
-13.58811
 30
0.0
 10
-6.50118
 20
-13.58811
 30
0.0
 10
-6.51218
 20
-13.58029
 30
0.0
 10
-6.48883
 20
-13.54239
 30
0.0
 10
-6.44988
 20
-13.494
 30
0.0
 10
-6.44988
 20
-13.494
 30
0.0
 10
-6.49584
 20
-13.45826
 30
0.0
 10
-6.54487
 20
-13.4249
 30
0.0
 10
-6.59547
 20
-13.3935
 30
0.0
 10
-6.59547
 20
-13.3935
 30
0.0
 10
-6.6255
 20
-13.47361
 30
0.0
 10
-6.6233
 20
-13.47398
 30
0.0
 10
-6.71409
 20
-13.42932
 30
0.0
 10
-6.71409
 20
-13.42932
 30
0.0
 10
-6.82484
 20
-13.37485
 30
0.0
 10
-6.77074
 20
-13.30584
 30
0.0
 10
-6.74794
 20
-13.31645
 30
0.0
 10
-6.74794
 20
-13.31645
 30
0.0
 10
-6.74794
 20
-13.31645
 30
0.0
 10
-6.74135
 20
-13.30968
 30
0.0
 10
-6.74135
 20
-13.30968
 30
0.0
 10
-6.74135
 20
-13.30968
 30
0.0
 10
-6.77315
 20
-13.29258
 30
0.0
 10
-6.80501
 20
-13.27605
 30
0.0
 10
-6.83657
 20
-13.26002
 30
0.0
 10
-6.83657
 20
-13.26002
 30
0.0
 10
-6.86602
 20
-13.35164
 30
0.0
 10
-6.88531
 20
-13.32476
 30
0.0
 10
-6.96164
 20
-13.2918
 30
0.0
 10
-6.96164
 20
-13.2918
 30
0.0
 10
-6.99586
 20
-13.27702
 30
0.0
 10
-7.11024
 20
-13.22305
 30
0.0
 10
-7.01627
 20
-13.17915
 30
0.0
 10
-7.01627
 20
-13.17915
 30
0.0
 10
-7.0137
 20
-13.18437
 30
0.0
 10
-7.01274
 20
-13.1781
 30
0.0
 10
-7.01388
 20
-13.17699
 30
0.0
 10
-7.01388
 20
-13.17699
 30
0.0
 10
-7.01388
 20
-13.17699
 30
0.0
 10
-7.01014
 20
-13.17363
 30
0.0
 10
-7.01014
 20
-13.17363
 30
0.0
 10
-7.01014
 20
-13.17363
 30
0.0
 10
-7.01014
 20
-13.17363
 30
0.0
 10
-7.0943
 20
-13.13101
 30
0.0
 10
-7.0943
 20
-13.13101
 30
0.0
 10
-7.0943
 20
-13.13101
 30
0.0
 10
-7.12099
 20
-13.18719
 30
0.0
 10
-7.12737
 20
-13.21426
 30
0.0
 10
-7.18902
 20
-13.17868
 30
0.0
 10
-7.18902
 20
-13.17868
 30
0.0
 10
-7.23654
 20
-13.15125
 30
0.0
 10
-7.31039
 20
-13.12298
 30
0.0
 10
-7.24943
 20
-13.05668
 30
0.0
 10
-7.24943
 20
-13.05668
 30
0.0
 10
-7.25132
 20
-13.06244
 30
0.0
 10
-7.24754
 20
-13.05094
 30
0.0
 10
-7.24943
 20
-13.05668
 30
0.0
 10
-7.24943
 20
-13.05668
 30
0.0
 10
-7.24943
 20
-13.05668
 30
0.0
 10
-7.2399
 20
-13.04961
 30
0.0
 10
-7.2399
 20
-13.04961
 30
0.0
 10
-7.2399
 20
-13.04961
 30
0.0
 10
-7.26463
 20
-13.03467
 30
0.0
 10
-7.28932
 20
-13.01913
 30
0.0
 10
-7.31378
 20
-13.00295
 30
0.0
 10
-7.31378
 20
-13.00295
 30
0.0
 10
-7.31378
 20
-13.00295
 30
0.0
 10
-7.32119
 20
-13.0122
 30
0.0
 10
-7.32119
 20
-13.0122
 30
0.0
 10
-7.32119
 20
-13.0122
 30
0.0
 10
-7.31069
 20
-13.02736
 30
0.0
 10
-7.32382
 20
-13.09258
 30
0.0
 10
-7.43151
 20
-13.02618
 30
0.0
 10
-7.43151
 20
-13.02618
 30
0.0
 10
-7.47833
 20
-12.99738
 30
0.0
 10
-7.49081
 20
-12.96637
 30
0.0
 10
-7.44493
 20
-12.92262
 30
0.0
 10
-7.44493
 20
-12.92262
 30
0.0
 10
-7.44414
 20
-12.92434
 30
0.0
 10
-7.44452
 20
-12.92347
 30
0.0
 10
-7.44491
 20
-12.92261
 30
0.0
 10
-7.44491
 20
-12.92261
 30
0.0
 10
-7.44491
 20
-12.92261
 30
0.0
 10
-7.43363
 20
-12.9165
 30
0.0
 10
-7.43363
 20
-12.9165
 30
0.0
 10
-7.43363
 20
-12.9165
 30
0.0
 10
-7.45574
 20
-12.89902
 30
0.0
 10
-7.47734
 20
-12.88095
 30
0.0
 10
-7.49828
 20
-12.86228
 30
0.0
 10
-7.49828
 20
-12.86228
 30
0.0
 10
-7.50235
 20
-12.96856
 30
0.0
 10
-7.79848
 20
-12.82865
 30
0.0
 10
-7.66073
 20
-12.74323
 30
0.0
 10
-7.66073
 20
-12.74323
 30
0.0
 10
-7.65664
 20
-12.7468
 30
0.0
 10
-7.62724
 20
-12.72473
 30
0.0
 10
-7.62545
 20
-12.72998
 30
0.0
 10
-7.62545
 20
-12.72998
 30
0.0
 10
-7.62545
 20
-12.72998
 30
0.0
 10
-7.62527
 20
-12.72987
 30
0.0
 10
-7.62527
 20
-12.72987
 30
0.0
 10
-7.62527
 20
-12.72987
 30
0.0
 10
-7.64247
 20
-12.70848
 30
0.0
 10
-7.65861
 20
-12.68646
 30
0.0
 10
-7.67355
 20
-12.66381
 30
0.0
 10
-7.67355
 20
-12.66381
 30
0.0
 10
-7.74588
 20
-12.69857
 30
0.0
 10
-7.76016
 20
-12.71887
 30
0.0
 10
-7.79927
 20
-12.60479
 30
0.0
 10
-7.79927
 20
-12.60479
 30
0.0
 10
-7.83439
 20
-12.50234
 30
0.0
 10
-7.78366
 20
-12.55226
 30
0.0
 10
-7.75775
 20
-12.49185
 30
0.0
 10
-7.75775
 20
-12.49185
 30
0.0
 10
-7.75775
 20
-12.49185
 30
0.0
 10
-7.75746
 20
-12.49187
 30
0.0
 10
-7.75746
 20
-12.49187
 30
0.0
 10
-7.75746
 20
-12.49187
 30
0.0
 10
-7.76502
 20
-12.469
 30
0.0
 10
-7.77069
 20
-12.4475
 30
0.0
 10
-7.77488
 20
-12.42709
 30
0.0
 10
-7.77488
 20
-12.42709
 30
0.0
 10
-7.77488
 20
-12.42709
 30
0.0
 10
-7.78421
 20
-12.43012
 30
0.0
 10
-7.78421
 20
-12.43012
 30
0.0
 10
-7.78421
 20
-12.43012
 30
0.0
 10
-7.82474
 20
-12.38663
 30
0.0
 10
-7.85961
 20
-12.4762
 30
0.0
 10
-7.86815
 20
-12.31755
 30
0.0
 10
-7.86815
 20
-12.31755
 30
0.0
 10
-7.8703
 20
-12.27767
 30
0.0
 10
-7.82928
 20
-12.16139
 30
0.0
 10
-7.77718
 20
-12.21267
 30
0.0
 10
-7.77718
 20
-12.21267
 30
0.0
 10
-7.72941
 20
-11.76486
 30
0.0
 10
-8.25786
 20
-11.36287
 30
0.0
 10
-8.63134
 20
-11.7365
 30
0.0
 10
-8.63134
 20
-11.7365
 30
0.0
 10
-8.75381
 20
-11.85903
 30
0.0
 10
-8.75228
 20
-12.00922
 30
0.0
 10
-8.80097
 20
-12.16358
 30
0.0
 10
-8.80097
 20
-12.16358
 30
0.0
 10
-8.86551
 20
-12.36832
 30
0.0
 10
-8.93189
 20
-12.51356
 30
0.0
 10
-8.81675
 20
-12.72031
 30
0.0
 10
-8.81675
 20
-12.72031
 30
0.0
 10
-8.6549
 20
-13.01094
 30
0.0
 10
-8.34221
 20
-13.16465
 30
0.0
 10
-8.17211
 20
-13.45321
 30
0.0
 10
-8.17211
 20
-13.45321
 30
0.0
 10
-7.8934
 20
-13.92616
 30
0.0
 10
-7.96928
 20
-14.67164
 30
0.0
 10
-8.2817
 20
-15.1058
 30
0.0
 10
-8.2817
 20
-15.1058
 30
0.0
 10
-8.52716
 20
-15.44694
 30
0.0
 10
-9.23859
 20
-15.72029
 30
0.0
 10
-9.60407
 20
-15.43323
 30
0.0
 10
-9.60407
 20
-15.43323
 30
0.0
 10
-10.00812
 20
-15.11588
 30
0.0
 10
-10.38838
 20
-14.37801
 30
0.0
 10
-9.84447
 20
-14.00838
 30
0.0
 10
-9.84447
 20
-14.00838
 30
0.0
 10
-9.34283
 20
-13.66748
 30
0.0
 10
-9.03658
 20
-14.27662
 30
0.0
 10
-9.15043
 20
-14.37869
 30
0.0
 10
-9.15043
 20
-14.37869
 30
0.0
 10
-9.20723
 20
-14.42961
 30
0.0
 10
-9.2391
 20
-14.37984
 30
0.0
 10
-9.27653
 20
-14.34198
 30
0.0
 10
-9.27653
 20
-14.34198
 30
0.0
 10
-9.30562
 20
-14.43159
 30
0.0
 10
-9.40224
 20
-14.39585
 30
0.0
 10
-9.41837
 20
-14.3685
 30
0.0
 10
-9.41837
 20
-14.3685
 30
0.0
 10
-9.43147
 20
-14.34634
 30
0.0
 10
-9.41168
 20
-14.28869
 30
0.0
 10
-9.39377
 20
-14.2866
 30
0.0
 10
-9.39377
 20
-14.2866
 30
0.0
 10
-9.39377
 20
-14.2866
 30
0.0
 10
-9.39061
 20
-14.27769
 30
0.0
 10
-9.39061
 20
-14.27769
 30
0.0
 10
-9.39061
 20
-14.27769
 30
0.0
 10
-9.46404
 20
-14.2485
 30
0.0
 10
-9.52757
 20
-14.23909
 30
0.0
 10
-9.5718
 20
-14.25743
 30
0.0
 10
-9.5718
 20
-14.25743
 30
0.0
 10
-9.5718
 20
-14.25743
 30
0.0
 10
-9.52705
 20
-14.26063
 30
0.0
 10
-9.52705
 20
-14.26063
 30
0.0
 10
-9.52705
 20
-14.26063
 30
0.0
 10
-9.47956
 20
-14.30188
 30
0.0
 10
-9.53345
 20
-14.39067
 30
0.0
 10
-9.58541
 20
-14.40587
 30
0.0
 10
-9.58541
 20
-14.40587
 30
0.0
 10
-9.60548
 20
-14.41175
 30
0.0
 10
-9.62321
 20
-14.39295
 30
0.0
 10
-9.63761
 20
-14.39229
 30
0.0
 10
-9.63761
 20
-14.39229
 30
0.0
 10
-9.63761
 20
-14.39229
 30
0.0
 10
-9.62285
 20
-14.49951
 30
0.0
 10
-9.62285
 20
-14.49951
 30
0.0
 10
-9.62285
 20
-14.49951
 30
0.0
 10
-9.5163
 20
-14.42963
 30
0.0
 10
-9.45352
 20
-14.60743
 30
0.0
 10
-9.5526
 20
-14.6426
 30
0.0
 10
-9.5526
 20
-14.6426
 30
0.0
 10
-9.55121
 20
-14.63764
 30
0.0
 10
-9.54821
 20
-14.63366
 30
0.0
 10
-9.54368
 20
-14.63058
 30
0.0
 10
-9.54368
 20
-14.63058
 30
0.0
 10
-9.54368
 20
-14.63058
 30
0.0
 10
-9.57325
 20
-14.62624
 30
0.0
 10
-9.57325
 20
-14.62624
 30
0.0
 10
-9.57325
 20
-14.62624
 30
0.0
 10
-9.55229
 20
-14.66397
 30
0.0
 10
-9.52676
 20
-14.69822
 30
0.0
 10
-9.49736
 20
-14.72744
 30
0.0
 10
-9.49736
 20
-14.72744
 30
0.0
 10
-9.48095
 20
-14.59495
 30
0.0
 10
-9.31121
 20
-14.70258
 30
0.0
 10
-9.33193
 20
-14.78257
 30
0.0
 10
-9.33193
 20
-14.78257
 30
0.0
 10
-9.33193
 20
-14.78257
 30
0.0
 10
-9.38117
 20
-14.80626
 30
0.0
 10
-9.38117
 20
-14.80626
 30
0.0
 10
-9.38117
 20
-14.80626
 30
0.0
 10
-9.33094
 20
-14.82723
 30
0.0
 10
-9.27522
 20
-14.8359
 30
0.0
 10
-9.21576
 20
-14.8286
 30
0.0
 10
-9.21576
 20
-14.8286
 30
0.0
 10
-9.30388
 20
-14.77015
 30
0.0
 10
-9.08787
 20
-14.60507
 30
0.0
 10
-9.06221
 20
-14.77572
 30
0.0
 10
-9.06221
 20
-14.77572
 30
0.0
 10
-9.02571
 20
-14.75475
 30
0.0
 10
-8.99393
 20
-14.72943
 30
0.0
 10
-8.9664
 20
-14.7007
 30
0.0
 10
-8.9664
 20
-14.7007
 30
0.0
 10
-8.9664
 20
-14.7007
 30
0.0
 10
-8.97925
 20
-14.70112
 30
0.0
 10
-8.97925
 20
-14.70112
 30
0.0
 10
-8.97925
 20
-14.70112
 30
0.0
 10
-9.0383
 20
-14.61811
 30
0.0
 10
-8.98029
 20
-14.49931
 30
0.0
 10
-8.8776
 20
-14.52012
 30
0.0
 10
-8.8776
 20
-14.52012
 30
0.0
 10
-8.8776
 20
-14.52012
 30
0.0
 10
-8.86674
 20
-14.54323
 30
0.0
 10
-8.86674
 20
-14.54323
 30
0.0
 10
-8.86674
 20
-14.54323
 30
0.0
 10
-8.85447
 20
-14.51281
 30
0.0
 10
-8.84463
 20
-14.48101
 30
0.0
 10
-8.83699
 20
-14.44831
 30
0.0
 10
-8.83699
 20
-14.44831
 30
0.0
 10
-8.93502
 20
-14.46267
 30
0.0
 10
-8.93412
 20
-14.20372
 30
0.0
 10
-8.81654
 20
-14.21487
 30
0.0
 10
-8.81654
 20
-14.21487
 30
0.0
 10
-8.81767
 20
-14.18563
 30
0.0
 10
-8.82002
 20
-14.15652
 30
0.0
 10
-8.82349
 20
-14.12781
 30
0.0
 10
-8.82349
 20
-14.12781
 30
0.0
 10
-8.97912
 20
-14.1956
 30
0.0
 10
-8.92555
 20
-13.92004
 30
0.0
 10
-8.85848
 20
-13.95624
 30
0.0
 10
-8.85848
 20
-13.95624
 30
0.0
 10
-8.85848
 20
-13.95624
 30
0.0
 10
-8.89112
 20
-13.86319
 30
0.0
 10
-8.89112
 20
-13.86319
 30
0.0
 10
-8.89112
 20
-13.86319
 30
0.0
 10
-9.00071
 20
-13.97378
 30
0.0
 10
-9.09693
 20
-13.69173
 30
0.0
 10
-8.98125
 20
-13.70189
 30
0.0
 10
-8.98125
 20
-13.70189
 30
0.0
 10
-9.00878
 20
-13.66394
 30
0.0
 10
-9.03886
 20
-13.62953
 30
0.0
 10
-9.07082
 20
-13.59749
 30
0.0
 10
-9.07082
 20
-13.59749
 30
0.0
 10
-9.11047
 20
-13.70239
 30
0.0
 10
-9.29272
 20
-13.56874
 30
0.0
 10
-9.22352
 20
-13.47293
 30
0.0
 10
-9.22352
 20
-13.47293
 30
0.0
 10
-9.2198
 20
-13.48911
 30
0.0
 10
-9.2236
 20
-13.50458
 30
0.0
 10
-9.23502
 20
-13.51931
 30
0.0
 10
-9.23502
 20
-13.51931
 30
0.0
 10
-9.23502
 20
-13.51931
 30
0.0
 10
-9.19004
 20
-13.49274
 30
0.0
 10
-9.19004
 20
-13.49274
 30
0.0
 10
-9.19004
 20
-13.49274
 30
0.0
 10
-9.22589
 20
-13.46444
 30
0.0
 10
-9.26289
 20
-13.43719
 30
0.0
 10
-9.30041
 20
-13.40981
 30
0.0
 10
-9.30041
 20
-13.40981
 30
0.0
 10
-9.30041
 20
-13.40981
 30
0.0
 10
-9.30998
 20
-13.42671
 30
0.0
 10
-9.30998
 20
-13.42671
 30
0.0
 10
-9.30998
 20
-13.42671
 30
0.0
 10
-9.29415
 20
-13.47889
 30
0.0
 10
-9.36647
 20
-13.47066
 30
0.0
 10
-9.41602
 20
-13.42671
 30
0.0
 10
-9.41602
 20
-13.42671
 30
0.0
 10
-9.44233
 20
-13.40338
 30
0.0
 10
-9.49111
 20
-13.33424
 30
0.0
 10
-9.43408
 20
-13.31049
 30
0.0
 10
-9.43408
 20
-13.31049
 30
0.0
 10
-9.45671
 20
-13.29291
 30
0.0
 10
-9.47923
 20
-13.27479
 30
0.0
 10
-9.50152
 20
-13.25587
 30
0.0
 10
-9.50152
 20
-13.25587
 30
0.0
 10
-9.60144
 20
-13.36723
 30
0.0
 10
-9.71397
 20
-13.15264
 30
0.0
 10
-9.62667
 20
-13.13461
 30
0.0
 10
-9.62667
 20
-13.13461
 30
0.0
 10
-9.64089
 20
-13.11771
 30
0.0
 10
-9.65393
 20
-13.10016
 30
0.0
 10
-9.66587
 20
-13.08207
 30
0.0
 10
-9.66587
 20
-13.08207
 30
0.0
 10
-9.79259
 20
-13.14887
 30
0.0
 10
-9.82015
 20
-12.98431
 30
0.0
 10
-9.81728
 20
-12.96229
 30
0.0
 10
-9.81728
 20
-12.96229
 30
0.0
 10
-9.81395
 20
-12.93684
 30
0.0
 10
-9.7646
 20
-12.891
 30
0.0
 10
-9.76419
 20
-12.91077
 30
0.0
 10
-9.76419
 20
-12.91077
 30
0.0
 10
-9.76419
 20
-12.91077
 30
0.0
 10
-9.7439
 20
-12.91343
 30
0.0
 10
-9.7439
 20
-12.91343
 30
0.0
 10
-9.7439
 20
-12.91343
 30
0.0
 10
-9.75368
 20
-12.88145
 30
0.0
 10
-9.76138
 20
-12.8487
 30
0.0
 10
-9.76734
 20
-12.81549
 30
0.0
 10
-9.76734
 20
-12.81549
 30
0.0
 10
-9.90259
 20
-12.88176
 30
0.0
 10
-9.91806
 20
-12.55919
 30
0.0
 10
-9.7846
 20
-12.59754
 30
0.0
 10
-9.7846
 20
-12.59754
 30
0.0
 10
-9.78448
 20
-12.57098
 30
0.0
 10
-9.78371
 20
-12.54454
 30
0.0
 10
-9.78239
 20
-12.51838
 30
0.0
 10
-9.78239
 20
-12.51838
 30
0.0
 10
-9.91024
 20
-12.53668
 30
0.0
 10
-9.84713
 20
-12.33364
 30
0.0
 10
-9.76416
 20
-12.29783
 30
0.0
 10
-9.76416
 20
-12.29783
 30
0.0
 10
-9.76416
 20
-12.29783
 30
0.0
 10
-9.74644
 20
-12.30687
 30
0.0
 10
-9.74644
 20
-12.30687
 30
0.0
 10
-9.74644
 20
-12.30687
 30
0.0
 10
-9.73943
 20
-12.27632
 30
0.0
 10
-9.73223
 20
-12.24543
 30
0.0
 10
-9.72561
 20
-12.21451
 30
0.0
 10
-9.72561
 20
-12.21451
 30
0.0
 10
-9.85766
 20
-12.20645
 30
0.0
 10
-9.84184
 20
-12.03814
 30
0.0
 10
-9.69918
 20
-11.99106
 30
0.0
 10
-9.69918
 20
-11.99106
 30
0.0
 10
-9.71919
 20
-11.42436
 30
0.0
 10
-10.74866
 20
-11.4297
 30
0.0
 10
-10.69071
 20
-12.08101
 30
0.0
 10
-10.69071
 20
-12.08101
 30
0.0
 10
-10.58044
 20
-12.07311
 30
0.0
 10
-10.55931
 20
-12.25888
 30
0.0
 10
-10.66367
 20
-12.25326
 30
0.0
 10
-10.66367
 20
-12.25326
 30
0.0
 10
-10.65889
 20
-12.27881
 30
0.0
 10
-10.65423
 20
-12.30431
 30
0.0
 10
-10.65024
 20
-12.32972
 30
0.0
 10
-10.65024
 20
-12.32972
 30
0.0
 10
-10.51943
 20
-12.29686
 30
0.0
 10
-10.54716
 20
-12.5706
 30
0.0
 10
-10.63992
 20
-12.51679
 30
0.0
 10
-10.63992
 20
-12.51679
 30
0.0
 10
-10.64163
 20
-12.54686
 30
0.0
 10
-10.64493
 20
-12.5768
 30
0.0
 10
-10.64982
 20
-12.60646
 30
0.0
 10
-10.64982
 20
-12.60646
 30
0.0
 10
-10.57609
 20
-12.60766
 30
0.0
 10
-10.56757
 20
-12.63651
 30
0.0
 10
-10.5823
 20
-12.7108
 30
0.0
 10
-10.5823
 20
-12.7108
 30
0.0
 10
-10.59441
 20
-12.77187
 30
0.0
 10
-10.63619
 20
-12.83444
 30
0.0
 10
-10.70197
 20
-12.7895
 30
0.0
 10
-10.70197
 20
-12.7895
 30
0.0
 10
-10.74572
 20
-12.895
 30
0.0
 10
-10.81232
 20
-12.98852
 30
0.0
 10
-10.8909
 20
-13.07176
 30
0.0
 10
-10.8909
 20
-13.07176
 30
0.0
 10
-10.8909
 20
-13.07176
 30
0.0
 10
-10.87983
 20
-13.07394
 30
0.0
 10
-10.87983
 20
-13.07394
 30
0.0
 10
-10.87983
 20
-13.07394
 30
0.0
 10
-10.88061
 20
-13.05985
 30
0.0
 10
-10.84236
 20
-13.10841
 30
0.0
 10
-10.84668
 20
-13.13313
 30
0.0
 10
-10.84668
 20
-13.13313
 30
0.0
 10
-10.85686
 20
-13.19153
 30
0.0
 10
-10.96167
 20
-13.26158
 30
0.0
 10
-11.01654
 20
-13.20623
 30
0.0
 10
-11.01654
 20
-13.20623
 30
0.0
 10
-11.01654
 20
-13.20623
 30
0.0
 10
-11.02725
 20
-13.19686
 30
0.0
 10
-11.02725
 20
-13.19686
 30
0.0
 10
-11.02725
 20
-13.19686
 30
0.0
 10
-11.04903
 20
-13.21428
 30
0.0
 10
-11.07133
 20
-13.23109
 30
0.0
 10
-11.09407
 20
-13.24726
 30
0.0
 10
-11.09407
 20
-13.24726
 30
0.0
 10
-11.00004
 20
-13.31665
 30
0.0
 10
-11.207
 20
-13.45171
 30
0.0
 10
-11.25118
 20
-13.34511
 30
0.0
 10
-11.25118
 20
-13.34511
 30
0.0
 10
-11.26883
 20
-13.35466
 30
0.0
 10
-11.28658
 20
-13.3638
 30
0.0
 10
-11.30436
 20
-13.37251
 30
0.0
 10
-11.30436
 20
-13.37251
 30
0.0
 10
-11.30436
 20
-13.37251
 30
0.0
 10
-11.29436
 20
-13.38262
 30
0.0
 10
-11.29436
 20
-13.38262
 30
0.0
 10
-11.29436
 20
-13.38262
 30
0.0
 10
-11.29436
 20
-13.38262
 30
0.0
 10
-11.29026
 20
-13.37854
 30
0.0
 10
-11.29026
 20
-13.37854
 30
0.0
 10
-11.29026
 20
-13.37854
 30
0.0
 10
-11.25788
 20
-13.45865
 30
0.0
 10
-11.369
 20
-13.51321
 30
0.0
 10
-11.41262
 20
-13.49217
 30
0.0
 10
-11.41262
 20
-13.49217
 30
0.0
 10
-11.43138
 20
-13.48314
 30
0.0
 10
-11.438
 20
-13.43994
 30
0.0
 10
-11.44869
 20
-13.43554
 30
0.0
 10
-11.44869
 20
-13.43554
 30
0.0
 10
-11.44869
 20
-13.43554
 30
0.0
 10
-11.44911
 20
-13.43376
 30
0.0
 10
-11.44911
 20
-13.43376
 30
0.0
 10
-11.44911
 20
-13.43376
 30
0.0
 10
-11.46986
 20
-13.4415
 30
0.0
 10
-11.49034
 20
-13.4493
 30
0.0
 10
-11.51052
 20
-13.45728
 30
0.0
 10
-11.51052
 20
-13.45728
 30
0.0
 10
-11.51052
 20
-13.45728
 30
0.0
 10
-11.50602
 20
-13.462
 30
0.0
 10
-11.50602
 20
-13.462
 30
0.0
 10
-11.50602
 20
-13.462
 30
0.0
 10
-11.5192
 20
-13.47092
 30
0.0
 10
-11.43648
 20
-13.52126
 30
0.0
 10
-11.55441
 20
-13.56882
 30
0.0
 10
-11.55441
 20
-13.56882
 30
0.0
 10
-11.59104
 20
-13.58359
 30
0.0
 10
-11.69514
 20
-13.62374
 30
0.0
 10
-11.69121
 20
-13.54116
 30
0.0
 10
-11.69121
 20
-13.54116
 30
0.0
 10
-11.7183
 20
-13.55637
 30
0.0
 10
-11.74461
 20
-13.57278
 30
0.0
 10
-11.77011
 20
-13.59073
 30
0.0
 10
-11.77011
 20
-13.59073
 30
0.0
 10
-11.72917
 20
-13.66199
 30
0.0
 10
-11.77924
 20
-13.74433
 30
0.0
 10
-11.86122
 20
-13.75764
 30
0.0
 10
-11.86122
 20
-13.75764
 30
0.0
 10
-11.8896
 20
-13.76225
 30
0.0
 10
-11.90415
 20
-13.74256
 30
0.0
 10
-11.9218
 20
-13.73088
 30
0.0
 10
-11.9218
 20
-13.73088
 30
0.0
 10
-11.94203
 20
-13.75542
 30
0.0
 10
-11.96124
 20
-13.78167
 30
0.0
 10
-11.97934
 20
-13.80927
 30
0.0
 10
-11.97934
 20
-13.80927
 30
0.0
 10
-11.91057
 20
-13.8463
 30
0.0
 10
-11.92047
 20
-13.97182
 30
0.0
 10
-11.99979
 20
-14.00127
 30
0.0
 10
-11.99979
 20
-14.00127
 30
0.0
 10
-12.02296
 20
-14.00988
 30
0.0
 10
-12.0504
 20
-13.98799
 30
0.0
 10
-12.07047
 20
-13.99116
 30
0.0
 10
-12.07047
 20
-13.99116
 30
0.0
 10
-12.07047
 20
-13.99116
 30
0.0
 10
-12.07307
 20
-13.98836
 30
0.0
 10
-12.07307
 20
-13.98836
 30
0.0
 10
-12.07307
 20
-13.98836
 30
0.0
 10
-12.08119
 20
-14.00815
 30
0.0
 10
-12.08882
 20
-14.02821
 30
0.0
 10
-12.09582
 20
-14.0485
 30
0.0
 10
-12.09582
 20
-14.0485
 30
0.0
 10
-12.09582
 20
-14.0485
 30
0.0
 10
-12.0925
 20
-14.04847
 30
0.0
 10
-12.0925
 20
-14.04847
 30
0.0
 10
-12.0925
 20
-14.04847
 30
0.0
 10
-12.0624
 20
-14.09054
 30
0.0
 10
-12.03099
 20
-14.06736
 30
0.0
 10
-12.04047
 20
-14.13284
 30
0.0
 10
-12.04047
 20
-14.13284
 30
0.0
 10
-12.0657
 20
-14.30706
 30
0.0
 10
-12.07072
 20
-14.21073
 30
0.0
 10
-12.14542
 20
-14.26456
 30
0.0
 10
-12.14542
 20
-14.26456
 30
0.0
 10
-12.14542
 20
-14.26456
 30
0.0
 10
-12.14652
 20
-14.26343
 30
0.0
 10
-12.14652
 20
-14.26343
 30
0.0
 10
-12.14652
 20
-14.26343
 30
0.0
 10
-12.14979
 20
-14.28922
 30
0.0
 10
-12.15206
 20
-14.31495
 30
0.0
 10
-12.15317
 20
-14.34043
 30
0.0
 10
-12.15317
 20
-14.34043
 30
0.0
 10
-12.08414
 20
-14.29301
 30
0.0
 10
-12.07421
 20
-14.40725
 30
0.0
 10
-12.06992
 20
-14.44946
 30
0.0
 10
-12.06992
 20
-14.44946
 30
0.0
 10
-12.06209
 20
-14.52648
 30
0.0
 10
-12.08318
 20
-14.51252
 30
0.0
 10
-12.13551
 20
-14.54345
 30
0.0
 10
-12.13551
 20
-14.54345
 30
0.0
 10
-12.12982
 20
-14.56731
 30
0.0
 10
-12.12279
 20
-14.59052
 30
0.0
 10
-12.11429
 20
-14.61288
 30
0.0
 10
-12.11429
 20
-14.61288
 30
0.0
 10
-12.05829
 20
-14.60492
 30
0.0
 10
-12.04668
 20
-14.59224
 30
0.0
 10
-12.01087
 20
-14.64378
 30
0.0
 10
-12.01087
 20
-14.64378
 30
0.0
 10
-11.94391
 20
-14.74018
 30
0.0
 10
-12.00207
 20
-14.70093
 30
0.0
 10
-11.9955
 20
-14.76285
 30
0.0
 10
-11.9955
 20
-14.76285
 30
0.0
 10
-11.9955
 20
-14.76285
 30
0.0
 10
-12.02289
 20
-14.76205
 30
0.0
 10
-12.02289
 20
-14.76205
 30
0.0
 10
-12.02289
 20
-14.76205
 30
0.0
 10
-12.00011
 20
-14.78644
 30
0.0
 10
-11.97418
 20
-14.80841
 30
0.0
 10
-11.94477
 20
-14.82741
 30
0.0
 10
-11.94477
 20
-14.82741
 30
0.0
 10
-11.84212
 20
-14.69689
 30
0.0
 10
-11.7474
 20
-14.78773
 30
0.0
 10
-11.775
 20
-14.89075
 30
0.0
 10
-11.775
 20
-14.89075
 30
0.0
 10
-11.775
 20
-14.89075
 30
0.0
 10
-11.78248
 20
-14.89296
 30
0.0
 10
-11.78248
 20
-14.89296
 30
0.0
 10
-11.78248
 20
-14.89296
 30
0.0
 10
-11.75637
 20
-14.89865
 30
0.0
 10
-11.72871
 20
-14.90283
 30
0.0
 10
-11.69946
 20
-14.90538
 30
0.0
 10
-11.69946
 20
-14.90538
 30
0.0
 10
-11.7156
 20
-14.86708
 30
0.0
 10
-11.67288
 20
-14.8186
 30
0.0
 10
-11.62699
 20
-14.8158
 30
0.0
 10
-11.62699
 20
-14.8158
 30
0.0
 10
-11.56842
 20
-14.81223
 30
0.0
 10
-11.47224
 20
-14.80759
 30
0.0
 10
-11.48813
 20
-14.88939
 30
0.0
 10
-11.48813
 20
-14.88939
 30
0.0
 10
-11.46588
 20
-14.8835
 30
0.0
 10
-11.44422
 20
-14.87628
 30
0.0
 10
-11.4232
 20
-14.86789
 30
0.0
 10
-11.4232
 20
-14.86789
 30
0.0
 10
-11.4232
 20
-14.86789
 30
0.0
 10
-11.43105
 20
-14.86429
 30
0.0
 10
-11.43105
 20
-14.86429
 30
0.0
 10
-11.43105
 20
-14.86429
 30
0.0
 10
-11.42187
 20
-14.86129
 30
0.0
 10
-11.41284
 20
-14.85791
 30
0.0
 10
-11.40396
 20
-14.85416
 30
0.0
 10
-11.40396
 20
-14.85416
 30
0.0
 10
-11.44199
 20
-14.71638
 30
0.0
 10
-11.27314
 20
-14.68586
 30
0.0
 10
-11.24583
 20
-14.74523
 30
0.0
 10
-11.24583
 20
-14.74523
 30
0.0
 10
-11.24583
 20
-14.74523
 30
0.0
 10
-11.24387
 20
-14.75314
 30
0.0
 10
-11.24387
 20
-14.75314
 30
0.0
 10
-11.24387
 20
-14.75314
 30
0.0
 10
-11.22409
 20
-14.73441
 30
0.0
 10
-11.2057
 20
-14.71437
 30
0.0
 10
-11.18895
 20
-14.69313
 30
0.0
 10
-11.18895
 20
-14.69313
 30
0.0
 10
-11.18895
 20
-14.69313
 30
0.0
 10
-11.21055
 20
-14.68789
 30
0.0
 10
-11.21055
 20
-14.68789
 30
0.0
 10
-11.21055
 20
-14.68789
 30
0.0
 10
-11.20674
 20
-14.68365
 30
0.0
 10
-11.20378
 20
-14.68474
 30
0.0
 10
-11.20209
 20
-14.68017
 30
0.0
 10
-11.20209
 20
-14.68017
 30
0.0
 10
-11.22315
 20
-14.66934
 30
0.0
 10
-11.24098
 20
-14.6517
 30
0.0
 10
-11.25312
 20
-14.63131
 30
0.0
 10
-11.25312
 20
-14.63131
 30
0.0
 10
-11.14967
 20
-14.44277
 30
0.0
 10
-11.1071
 20
-14.53011
 30
0.0
 10
-11.10914
 20
-14.53795
 30
0.0
 10
-11.10914
 20
-14.53795
 30
0.0
 10
-11.10914
 20
-14.53795
 30
0.0
 10
-11.10543
 20
-14.54424
 30
0.0
 10
-11.10543
 20
-14.54424
 30
0.0
 10
-11.10543
 20
-14.54424
 30
0.0
 10
-11.09413
 20
-14.51352
 30
0.0
 10
-11.08564
 20
-14.48172
 30
0.0
 10
-11.08033
 20
-14.44916
 30
0.0
 10
-11.08033
 20
-14.44916
 30
0.0
 10
-11.08033
 20
-14.44916
 30
0.0
 10
-11.10032
 20
-14.45858
 30
0.0
 10
-11.10032
 20
-14.45858
 30
0.0
 10
-11.10032
 20
-14.45858
 30
0.0
 10
-11.15109
 20
-14.43375
 30
0.0
 10
-11.16235
 20
-14.4438
 30
0.0
 10
-11.1542
 20
-14.38029
 30
0.0
 10
-11.1542
 20
-14.38029
 30
0.0
 10
-11.14724
 20
-14.326
 30
0.0
 10
-11.15979
 20
-14.25839
 30
0.0
 10
-11.08235
 20
-14.27538
 30
0.0
 10
-11.08235
 20
-14.27538
 30
0.0
 10
-11.08235
 20
-14.27538
 30
0.0
 10
-11.11409
 20
-14.16925
 30
0.0
 10
-11.11409
 20
-14.16925
 30
0.0
 10
-11.11409
 20
-14.16925
 30
0.0
 10
-11.24388
 20
-14.21811
 30
0.0
 10
-11.31289
 20
-14.0536
 30
0.0
 10
-11.2238
 20
-14.02644
 30
0.0
 10
-11.2238
 20
-14.02644
 30
0.0
 10
-11.2238
 20
-14.02644
 30
0.0
 10
-11.20623
 20
-14.02044
 30
0.0
 10
-11.20623
 20
-14.02044
 30
0.0
 10
-11.20623
 20
-14.02044
 30
0.0
 10
-11.24415
 20
-13.98
 30
0.0
 10
-11.29184
 20
-13.94858
 30
0.0
 10
-11.34444
 20
-13.94026
 30
0.0
 10
-11.34444
 20
-13.94026
 30
0.0
 10
-11.32586
 20
-13.97115
 30
0.0
 10
-11.32622
 20
-13.95667
 30
0.0
 10
-11.31154
 20
-13.97295
 30
0.0
 10
-11.31154
 20
-13.97295
 30
0.0
 10
-11.28911
 20
-14.02172
 30
0.0
 10
-11.44213
 20
-14.03558
 30
0.0
 10
-11.45943
 20
-13.9608
 30
0.0
 10
-11.45943
 20
-13.9608
 30
0.0
 10
-11.50512
 20
-13.98426
 30
0.0
 10
-11.55258
 20
-14.02555
 30
0.0
 10
-11.56515
 20
-14.07175
 30
0.0
 10
-11.56515
 20
-14.07175
 30
0.0
 10
-11.47827
 20
-14.01369
 30
0.0
 10
-11.4223
 20
-14.12465
 30
0.0
 10
-11.47515
 20
-14.19399
 30
0.0
 10
-11.47515
 20
-14.19399
 30
0.0
 10
-11.47515
 20
-14.19399
 30
0.0
 10
-11.51823
 20
-14.18729
 30
0.0
 10
-11.51823
 20
-14.18729
 30
0.0
 10
-11.51823
 20
-14.18729
 30
0.0
 10
-11.49849
 20
-14.20242
 30
0.0
 10
-11.45616
 20
-14.22235
 30
0.0
 10
-11.45086
 20
-14.24048
 30
0.0
 10
-11.45086
 20
-14.24048
 30
0.0
 10
-11.41943
 20
-14.34823
 30
0.0
 10
-11.85749
 20
-14.39393
 30
0.0
 10
-11.83628
 20
-14.07747
 30
0.0
 10
-11.83628
 20
-14.07747
 30
0.0
 10
-11.82671
 20
-13.93491
 30
0.0
 10
-11.72037
 20
-13.79761
 30
0.0
 10
-11.60391
 20
-13.72185
 30
0.0
 10
-11.60391
 20
-13.72185
 30
0.0
 10
-11.11246
 20
-13.40211
 30
0.0
 10
-10.42666
 20
-13.9443
 30
0.0
 10
-10.50291
 20
-14.48935
 30
0.0
 10
-10.50291
 20
-14.48935
 30
0.0
 10
-10.61136
 20
-15.26457
 30
0.0
 10
-11.42796
 20
-15.81681
 30
0.0
 10
-12.14725
 20
-15.40188
 30
0.0
 10
-12.14725
 20
-15.40188
 30
0.0
 10
-12.90386
 20
-14.96547
 30
0.0
 10
-12.7667
 20
-13.47463
 30
0.0
 10
-12.20745
 20
-13.0675
 30
0.0
 10
-12.20745
 20
-13.0675
 30
0.0
 10
-11.87762
 20
-12.82738
 30
0.0
 10
-11.36843
 20
-12.76535
 30
0.0
 10
-11.42105
 20
-12.24435
 30
0.0
 10
-11.42105
 20
-12.24435
 30
0.0
 10
-11.43906
 20
-12.06585
 30
0.0
 10
-11.54418
 20
-11.91111
 30
0.0
 10
-11.66523
 20
-11.78262
 30
0.0
 10
-11.66523
 20
-11.78262
 30
0.0
 10
-12.03816
 20
-11.38672
 30
0.0
 10
-12.48569
 20
-11.87339
 30
0.0
 10
-12.70933
 20
-12.19893
 30
0.0
 10
-12.70933
 20
-12.19893
 30
0.0
 10
-12.70933
 20
-12.19893
 30
0.0
 10
-12.69666
 20
-12.2052
 30
0.0
 10
-12.69666
 20
-12.2052
 30
0.0
 10
-12.69666
 20
-12.2052
 30
0.0
 10
-12.70677
 20
-12.19218
 30
0.0
 10
-12.61286
 20
-12.22155
 30
0.0
 10
-12.69017
 20
-12.31011
 30
0.0
 10
-12.69017
 20
-12.31011
 30
0.0
 10
-12.72018
 20
-12.34449
 30
0.0
 10
-12.76067
 20
-12.40806
 30
0.0
 10
-12.80436
 20
-12.34624
 30
0.0
 10
-12.80436
 20
-12.34624
 30
0.0
 10
-12.81889
 20
-12.37008
 30
0.0
 10
-12.83322
 20
-12.39412
 30
0.0
 10
-12.84737
 20
-12.41835
 30
0.0
 10
-12.84737
 20
-12.41835
 30
0.0
 10
-12.75381
 20
-12.4579
 30
0.0
 10
-12.87433
 20
-12.69166
 30
0.0
 10
-12.94953
 20
-12.60024
 30
0.0
 10
-12.94953
 20
-12.60024
 30
0.0
 10
-12.96253
 20
-12.62409
 30
0.0
 10
-12.97547
 20
-12.64801
 30
0.0
 10
-12.98837
 20
-12.67197
 30
0.0
 10
-12.98837
 20
-12.67197
 30
0.0
 10
-12.88174
 20
-12.71069
 30
0.0
 10
-13.03612
 20
-12.94309
 30
0.0
 10
-13.0901
 20
-12.86076
 30
0.0
 10
-13.0901
 20
-12.86076
 30
0.0
 10
-13.10555
 20
-12.88913
 30
0.0
 10
-13.12109
 20
-12.91742
 30
0.0
 10
-13.13679
 20
-12.94557
 30
0.0
 10
-13.13679
 20
-12.94557
 30
0.0
 10
-13.05829
 20
-12.90026
 30
0.0
 10
-13.1023
 20
-13.22681
 30
0.0
 10
-13.23491
 20
-13.11473
 30
0.0
 10
-13.23491
 20
-13.11473
 30
0.0
 10
-13.25256
 20
-13.14378
 30
0.0
 10
-13.27054
 20
-13.17257
 30
0.0
 10
-13.28892
 20
-13.20098
 30
0.0
 10
-13.28892
 20
-13.20098
 30
0.0
 10
-13.2601
 20
-13.20511
 30
0.0
 10
-13.20211
 20
-13.19848
 30
0.0
 10
-13.26207
 20
-13.30423
 30
0.0
 10
-13.26207
 20
-13.30423
 30
0.0
 10
-13.29414
 20
-13.36078
 30
0.0
 10
-13.33476
 20
-13.40921
 30
0.0
 10
-13.39144
 20
-13.34911
 30
0.0
 10
-13.39144
 20
-13.34911
 30
0.0
 10
-13.4088
 20
-13.37242
 30
0.0
 10
-13.42656
 20
-13.39536
 30
0.0
 10
-13.44477
 20
-13.4179
 30
0.0
 10
-13.44477
 20
-13.4179
 30
0.0
 10
-13.35046
 20
-13.42867
 30
0.0
 10
-13.46413
 20
-13.61325
 30
0.0
 10
-13.52613
 20
-13.61708
 30
0.0
 10
-13.52613
 20
-13.61708
 30
0.0
 10
-13.55286
 20
-13.61871
 30
0.0
 10
-13.5696
 20
-13.57926
 30
0.0
 10
-13.5874
 20
-13.57665
 30
0.0
 10
-13.5874
 20
-13.57665
 30
0.0
 10
-13.5874
 20
-13.57665
 30
0.0
 10
-13.58787
 20
-13.57587
 30
0.0
 10
-13.58787
 20
-13.57587
 30
0.0
 10
-13.58787
 20
-13.57587
 30
0.0
 10
-13.61153
 20
-13.599
 30
0.0
 10
-13.6359
 20
-13.6215
 30
0.0
 10
-13.66111
 20
-13.64322
 30
0.0
 10
-13.66111
 20
-13.64322
 30
0.0
 10
-13.66111
 20
-13.64322
 30
0.0
 10
-13.6359
 20
-13.6516
 30
0.0
 10
-13.6359
 20
-13.6516
 30
0.0
 10
-13.6359
 20
-13.6516
 30
0.0
 10
-13.63932
 20
-13.64379
 30
0.0
 10
-13.63985
 20
-13.63612
 30
0.0
 10
-13.63754
 20
-13.62861
 30
0.0
 10
-13.63754
 20
-13.62861
 30
0.0
 10
-13.57167
 20
-13.71435
 30
0.0
 10
-13.69501
 20
-13.85473
 30
0.0
 10
-13.79609
 20
-13.74645
 30
0.0
 10
-13.79609
 20
-13.74645
 30
0.0
 10
-13.79609
 20
-13.74645
 30
0.0
 10
-13.86697
 20
-13.79161
 30
0.0
 10
-13.86697
 20
-13.79161
 30
0.0
 10
-13.86697
 20
-13.79161
 30
0.0
 10
-13.78832
 20
-13.83279
 30
0.0
 10
-13.97356
 20
-14.04183
 30
0.0
 10
-14.03949
 20
-13.89708
 30
0.0
 10
-14.03949
 20
-13.89708
 30
0.0
 10
-14.06633
 20
-13.91398
 30
0.0
 10
-14.09301
 20
-13.93122
 30
0.0
 10
-14.11929
 20
-13.94891
 30
0.0
 10
-14.11929
 20
-13.94891
 30
0.0
 10
-14.02295
 20
-13.98359
 30
0.0
 10
-14.22815
 20
-14.2155
 30
0.0
 10
-14.28914
 20
-14.07802
 30
0.0
 10
-14.28914
 20
-14.07802
 30
0.0
 10
-14.31501
 20
-14.10088
 30
0.0
 10
-14.33957
 20
-14.12464
 30
0.0
 10
-14.36247
 20
-14.14946
 30
0.0
 10
-14.36247
 20
-14.14946
 30
0.0
 10
-14.36247
 20
-14.14946
 30
0.0
 10
-14.35498
 20
-14.15064
 30
0.0
 10
-14.35498
 20
-14.15064
 30
0.0
 10
-14.35498
 20
-14.15064
 30
0.0
 10
-14.35482
 20
-14.15232
 30
0.0
 10
-14.3535
 20
-14.15407
 30
0.0
 10
-14.35119
 20
-14.15124
 30
0.0
 10
-14.35119
 20
-14.15124
 30
0.0
 10
-14.35396
 20
-14.14713
 30
0.0
 10
-14.35515
 20
-14.14885
 30
0.0
 10
-14.35498
 20
-14.15064
 30
0.0
 10
-14.35498
 20
-14.15064
 30
0.0
 10
-14.35498
 20
-14.15064
 30
0.0
 10
-14.35119
 20
-14.15124
 30
0.0
 10
-14.35119
 20
-14.15124
 30
0.0
 10
-14.35119
 20
-14.15124
 30
0.0
 10
-14.27254
 20
-14.19465
 30
0.0
 10
-14.35554
 20
-14.32755
 30
0.0
 10
-14.41863
 20
-14.35461
 30
0.0
 10
-14.41863
 20
-14.35461
 30
0.0
 10
-14.44344
 20
-14.36525
 30
0.0
 10
-14.45964
 20
-14.35078
 30
0.0
 10
-14.48258
 20
-14.34835
 30
0.0
 10
-14.48258
 20
-14.34835
 30
0.0
 10
-14.48258
 20
-14.34835
 30
0.0
 10
-14.48868
 20
-14.33802
 30
0.0
 10
-14.48868
 20
-14.33802
 30
0.0
 10
-14.48868
 20
-14.33802
 30
0.0
 10
-14.5023
 20
-14.36934
 30
0.0
 10
-14.51323
 20
-14.40216
 30
0.0
 10
-14.52107
 20
-14.43666
 30
0.0
 10
-14.52107
 20
-14.43666
 30
0.0
 10
-14.45174
 20
-14.43407
 30
0.0
 10
-14.43798
 20
-14.58866
 30
0.0
 10
-14.46592
 20
-14.63407
 30
0.0
 10
-14.46592
 20
-14.63407
 30
0.0
 10
-14.47846
 20
-14.65446
 30
0.0
 10
-14.50887
 20
-14.65825
 30
0.0
 10
-14.52591
 20
-14.67394
 30
0.0
 10
-14.52591
 20
-14.67394
 30
0.0
 10
-14.52099
 20
-14.70057
 30
0.0
 10
-14.51407
 20
-14.72541
 30
0.0
 10
-14.50533
 20
-14.74846
 30
0.0
 10
-14.50533
 20
-14.74846
 30
0.0
 10
-14.36295
 20
-14.70362
 30
0.0
 10
-14.37192
 20
-14.82803
 30
0.0
 10
-14.36792
 20
-14.89956
 30
0.0
 10
-14.36792
 20
-14.89956
 30
0.0
 10
-14.36792
 20
-14.89956
 30
0.0
 10
-14.39402
 20
-14.90106
 30
0.0
 10
-14.39402
 20
-14.90106
 30
0.0
 10
-14.39402
 20
-14.90106
 30
0.0
 10
-14.37036
 20
-14.91947
 30
0.0
 10
-14.34437
 20
-14.93475
 30
0.0
 10
-14.31659
 20
-14.947
 30
0.0
 10
-14.31659
 20
-14.947
 30
0.0
 10
-14.33569
 20
-14.83664
 30
0.0
 10
-14.16461
 20
-14.87923
 30
0.0
 10
-14.13494
 20
-14.90445
 30
0.0
 10
-14.13494
 20
-14.90445
 30
0.0
 10
-14.11257
 20
-14.92344
 30
0.0
 10
-14.1261
 20
-14.95083
 30
0.0
 10
-14.11656
 20
-14.97452
 30
0.0
 10
-14.11656
 20
-14.97452
 30
0.0
 10
-14.11656
 20
-14.97452
 30
0.0
 10
-14.12682
 20
-14.98521
 30
0.0
 10
-14.12682
 20
-14.98521
 30
0.0
 10
-14.12682
 20
-14.98521
 30
0.0
 10
-14.09467
 20
-14.98546
 30
0.0
 10
-14.06185
 20
-14.98305
 30
0.0
 10
-14.02887
 20
-14.97806
 30
0.0
 10
-14.02887
 20
-14.97806
 30
0.0
 10
-14.08302
 20
-14.86837
 30
0.0
 10
-13.88875
 20
-14.78012
 30
0.0
 10
-13.83435
 20
-14.9172
 30
0.0
 10
-13.83435
 20
-14.9172
 30
0.0
 10
-13.83435
 20
-14.9172
 30
0.0
 10
-13.8377
 20
-14.92287
 30
0.0
 10
-13.8377
 20
-14.92287
 30
0.0
 10
-13.8377
 20
-14.92287
 30
0.0
 10
-13.81165
 20
-14.91214
 30
0.0
 10
-13.78533
 20
-14.89992
 30
0.0
 10
-13.75995
 20
-14.88621
 30
0.0
 10
-13.75995
 20
-14.88621
 30
0.0
 10
-13.75995
 20
-14.88621
 30
0.0
 10
-13.77261
 20
-14.88191
 30
0.0
 10
-13.77261
 20
-14.88191
 30
0.0
 10
-13.77261
 20
-14.88191
 30
0.0
 10
-13.76838
 20
-14.87052
 30
0.0
 10
-13.79013
 20
-14.74972
 30
0.0
 10
-13.68852
 20
-14.74603
 30
0.0
 10
-13.68852
 20
-14.74603
 30
0.0
 10
-13.66648
 20
-14.74523
 30
0.0
 10
-13.64082
 20
-14.77401
 30
0.0
 10
-13.63151
 20
-14.77608
 30
0.0
 10
-13.63151
 20
-14.77608
 30
0.0
 10
-13.63151
 20
-14.77608
 30
0.0
 10
-13.62928
 20
-14.7868
 30
0.0
 10
-13.62928
 20
-14.7868
 30
0.0
 10
-13.62928
 20
-14.7868
 30
0.0
 10
-13.62928
 20
-14.7868
 30
0.0
 10
-13.58056
 20
-14.69856
 30
0.0
 10
-13.58056
 20
-14.69856
 30
0.0
 10
-13.58056
 20
-14.69856
 30
0.0
 10
-13.62926
 20
-14.68347
 30
0.0
 10
-13.64758
 20
-14.69601
 30
0.0
 10
-13.66445
 20
-14.64156
 30
0.0
 10
-13.66445
 20
-14.64156
 30
0.0
 10
-13.689
 20
-14.56242
 30
0.0
 10
-13.68293
 20
-14.52917
 30
0.0
 10
-13.59884
 20
-14.54649
 30
0.0
 10
-13.59884
 20
-14.54649
 30
0.0
 10
-13.6258
 20
-14.50581
 30
0.0
 10
-13.67138
 20
-14.47785
 30
0.0
 10
-13.72938
 20
-14.47251
 30
0.0
 10
-13.72938
 20
-14.47251
 30
0.0
 10
-13.76908
 20
-14.50443
 30
0.0
 10
-13.71991
 20
-14.54051
 30
0.0
 10
-13.788
 20
-14.55788
 30
0.0
 10
-13.788
 20
-14.55788
 30
0.0
 10
-13.85349
 20
-14.57455
 30
0.0
 10
-13.87962
 20
-14.57344
 30
0.0
 10
-13.92239
 20
-14.5295
 30
0.0
 10
-13.92239
 20
-14.5295
 30
0.0
 10
-14.13846
 20
-14.59099
 30
0.0
 10
-13.98854
 20
-14.15679
 30
0.0
 10
-13.59817
 20
-14.141
 30
0.0
 10
-13.59817
 20
-14.141
 30
0.0
 10
-13.44801
 20
-14.13493
 30
0.0
 10
-13.31446
 20
-14.24009
 30
0.0
 10
-13.24323
 20
-14.36807
 30
0.0
 10
-13.24323
 20
-14.36807
 30
0.0
 10
-13.01291
 20
-14.78174
 30
0.0
 10
-13.37415
 20
-15.34519
 30
0.0
 10
-13.78925
 20
-15.46493
 30
0.0
 10
-13.78925
 20
-15.46493
 30
0.0
 10
-14.4758
 20
-15.66295
 30
0.0
 10
-15.32529
 20
-15.47826
 30
0.0
 10
-15.49484
 20
-14.68379
 30
0.0
 10
-15.49484
 20
-14.68379
 30
0.0
 10
-15.6225
 20
-14.08545
 30
0.0
 10
-15.22617
 20
-13.4173
 30
0.0
 10
-14.69673
 20
-13.16434
 30
0.0
 10
-14.69673
 20
-13.16434
 30
0.0
 10
-14.45646
 20
-13.04955
 30
0.0
 10
-14.15194
 20
-13.00644
 30
0.0
 10
-13.95382
 20
-12.81726
 30
0.0
 10
-13.95382
 20
-12.81726
 30
0.0
 10
-13.67032
 20
-12.54655
 30
0.0
 10
-13.69991
 20
-11.94242
 30
0.0
 10
-13.35697
 20
-11.48502
 30
0.0
 10
-13.35697
 20
-11.48502
 30
0.0
 10
-12.99375
 20
-11.00051
 30
0.0
 10
-12.21129
 20
-11.08234
 30
0.0
 10
-11.79109
 20
-10.69173
 30
0.0
  0
SPLINE
  5
42
330
1F
100
AcDbEntity
  8
Layer 1
370
    53
100
AcDbSpline
210
0.0
220
0.0
230
1.0
 70
    11
 71
     3
 72
    12
 73
     8
 74
     0
 42
0.0000000001
 43
0.0000000001
 12
1.0
 22
0.0
 32
0.0
 13
1.0
 23
0.0
 33
0.0
 40
0.0
 40
0.0
 40
0.0
 40
0.0
 40
0.3333333333333333
 40
0.3333333333333333
 40
0.3333333333333333
 40
0.3333333333333333
 40
1.0
 40
1.0
 40
1.0
 40
1.0
 10
-7.01388
 20
-13.17699
 30
0.0
 10
-7.01434
 20
-13.17655
 30
0.0
 10
-7.01512
 20
-13.17693
 30
0.0
 10
-7.01627
 20
-13.17915
 30
0.0
 10
-7.01627
 20
-13.17915
 30
0.0
 10
-7.01627
 20
-13.17915
 30
0.0
 10
-7.01388
 20
-13.17699
 30
0.0
 10
-7.01388
 20
-13.17699
 30
0.0
  0
SPLINE
  5
43
330
1F
100
AcDbEntity
  8
Layer 1
370
    53
100
AcDbSpline
210
0.0
220
0.0
230
1.0
 70
    11
 71
     3
 72
    12
 73
     8
 74
     0
 42
0.0000000001
 43
0.0000000001
 12
1.0
 22
0.0
 32
0.0
 13
1.0
 23
0.0
 33
0.0
 40
0.0
 40
0.0
 40
0.0
 40
0.0
 40
0.3333333333333333
 40
0.3333333333333333
 40
0.3333333333333333
 40
0.3333333333333333
 40
1.0
 40
1.0
 40
1.0
 40
1.0
 10
-7.44491
 20
-12.92261
 30
0.0
 10
-7.4453
 20
-12.92175
 30
0.0
 10
-7.44569
 20
-12.92091
 30
0.0
 10
-7.44493
 20
-12.92262
 30
0.0
 10
-7.44493
 20
-12.92262
 30
0.0
 10
-7.44493
 20
-12.92262
 30
0.0
 10
-7.44491
 20
-12.92261
 30
0.0
 10
-7.44491
 20
-12.92261
 30
0.0
  0
SPLINE
  5
44
330
1F
100
AcDbEntity
  8
Layer 1
370
    53
100
AcDbSpline
210
0.0
220
0.0
230
1.0
 70
    11
 71
     3
 72
    16
 73
    12
 74
     0
 42
0.0000000001
 43
0.0000000001
 12
1.0
 22
0.0
 32
0.0
 13
1.0
 23
0.0
 33
0.0
 40
0.0
 40
0.0
 40
0.0
 40
0.0
 40
0.25
 40
0.25
 40
0.25
 40
0.25
 40
0.5
 40
0.5
 40
0.5
 40
0.5
 40
1.0
 40
1.0
 40
1.0
 40
1.0
 10
-9.33193
 20
-14.78257
 30
0.0
 10
-9.33235
 20
-14.78421
 30
0.0
 10
-9.33285
 20
-14.78583
 30
0.0
 10
-9.33344
 20
-14.78744
 30
0.0
 10
-9.33344
 20
-14.78744
 30
0.0
 10
-9.33184
 20
-14.78493
 30
0.0
 10
-9.3299
 20
-14.78261
 30
0.0
 10
-9.32762
 20
-14.78049
 30
0.0
 10
-9.32762
 20
-14.78049
 30
0.0
 10
-9.32762
 20
-14.78049
 30
0.0
 10
-9.33193
 20
-14.78257
 30
0.0
 10
-9.33193
 20
-14.78257
 30
0.0
  0
SPLINE
  5
45
330
1F
100
AcDbEntity
  8
Layer 1
370
    53
100
AcDbSpline
210
0.0
220
0.0
230
1.0
 70
    11
 71
     3
 72
    12
 73
     8
 74
     0
 42
0.0000000001
 43
0.0000000001
 12
1.0
 22
0.0
 32
0.0
 13
1.0
 23
0.0
 33
0.0
 40
0.0
 40
0.0
 40
0.0
 40
0.0
 40
0.3333333333333333
 40
0.3333333333333333
 40
0.3333333333333333
 40
0.3333333333333333
 40
1.0
 40
1.0
 40
1.0
 40
1.0
 10
-9.33344
 20
-14.78744
 30
0.0
 10
-9.33448
 20
-14.79031
 30
0.0
 10
-9.33576
 20
-14.79313
 30
0.0
 10
-9.33734
 20
-14.7959
 30
0.0
 10
-9.33734
 20
-14.7959
 30
0.0
 10
-9.33641
 20
-14.79287
 30
0.0
 10
-9.33511
 20
-14.79006
 30
0.0
 10
-9.33344
 20
-14.78744
 30
0.0
  0
ENDSEC
  0
SECTION
  2
OBJECTS
  0
DICTIONARY
  5
C
330
0
100
AcDbDictionary
281
     1
  3
ACAD_GROUP
350
D
  3
ACAD_LAYOUT
350
1A
  3
ACAD_MATERIAL
350
3B
  3
ACAD_MLEADERSTYLE
350
67
  3
ACAD_MLINESTYLE
350
17
  3
ACAD_PLOTSETTINGS
350
19
  3
ACAD_PLOTSTYLENAME
350
E
  3
ACAD_TABLESTYLE
350
66
  3
ACAD_VISUALSTYLE
350
2A
  0
DICTIONARY
  5
D
102
{ACAD_REACTORS
330
C
102
}
330
C
100
AcDbDictionary
281
     1
  0
DICTIONARY
  5
1A
102
{ACAD_REACTORS
330
C
102
}
330
C
100
AcDbDictionary
281
     1
  3
Layout1
350
1E
  3
Layout2
350
26
  3
Model
350
22
  0
DICTIONARY
  5
3B
102
{ACAD_REACTORS
330
C
102
}
330
C
100
AcDbDictionary
281
     1
  3
ByBlock
350
3D
  3
ByLayer
350
3C
  3
Global
350
3E
  0
DICTIONARY
  5
67
102
{ACAD_REACTORS
330
C
102
}
330
C
100
AcDbDictionary
281
     1
  0
DICTIONARY
  5
17
102
{ACAD_REACTORS
330
C
102
}
330
C
100
AcDbDictionary
281
     1
  3
Standard
350
18
  0
DICTIONARY
  5
19
102
{ACAD_REACTORS
330
C
102
}
330
C
100
AcDbDictionary
281
     1
  0
ACDBDICTIONARYWDFLT
  5
E
102
{ACAD_REACTORS
330
C
102
}
330
C
100
AcDbDictionary
281
     1
  3
Normal
350
F
100
AcDbDictionaryWithDefault
340
F
  0
DICTIONARY
  5
66
102
{ACAD_REACTORS
330
C
102
}
330
C
100
AcDbDictionary
281
     1
  0
DICTIONARY
  5
2A
102
{ACAD_REACTORS
330
C
102
}
330
C
100
AcDbDictionary
281
     1
  3
2dWireframe
350
2F
  3
3D Hidden
350
31
  3
3dWireframe
350
30
  3
Basic
350
32
  3
Brighten
350
36
  3
ColorChange
350
3A
  3
Conceptual
350
34
  3
Dim
350
35
  3
Facepattern
350
39
  3
Flat
350
2B
  3
FlatWithEdges
350
2C
  3
Gouraud
350
2D
  3
GouraudWithEdges
350
2E
  3
Linepattern
350
38
  3
Realistic
350
33
  3
Thicken
350
37
  0
LAYOUT
  5
1E
102
{ACAD_REACTORS
330
1A
102
}
330
1A
100
AcDbPlotSettings
  1

  2
none_device
  4

  6

 40
0.0
 41
0.0
 42
0.0
 43
0.0
 44
0.0
 45
0.0
 46
0.0
 47
0.0
 48
0.0
 49
0.0
140
0.0
141
0.0
142
1.0
143
1.0
 70
   688
 72
     0
 73
     0
 74
     5
  7

 75
    16
 76
     0
 77
     2
 78
   300
147
1.0
148
0.0
149
0.0
100
AcDbLayout
  1
Layout1
 70
     1
 71
     1
 10
0.0
 20
0.0
 11
12.0
 21
9.0
 12
0.0
 22
0.0
 32
0.0
 14
1.000000000000000E+20
 24
1.000000000000000E+20
 34
1.000000000000000E+20
 15
-1.000000000000000E+20
 25
-1.000000000000000E+20
 35
-1.000000000000000E+20
146
0.0
 13
0.0
 23
0.0
 33
0.0
 16
1.0
 26
0.0
 36
0.0
 17
0.0
 27
1.0
 37
0.0
 76
     0
330
1B
  0
LAYOUT
  5
26
102
{ACAD_REACTORS
330
1A
102
}
330
1A
100
AcDbPlotSettings
  1

  2
none_device
  4

  6

 40
0.0
 41
0.0
 42
0.0
 43
0.0
 44
0.0
 45
0.0
 46
0.0
 47
0.0
 48
0.0
 49
0.0
140
0.0
141
0.0
142
1.0
143
1.0
 70
   688
 72
     0
 73
     0
 74
     5
  7

 75
    16
 76
     0
 77
     2
 78
   300
147
1.0
148
0.0
149
0.0
100
AcDbLayout
  1
Layout2
 70
     1
 71
     2
 10
0.0
 20
0.0
 11
0.0
 21
0.0
 12
0.0
 22
0.0
 32
0.0
 14
0.0
 24
0.0
 34
0.0
 15
0.0
 25
0.0
 35
0.0
146
0.0
 13
0.0
 23
0.0
 33
0.0
 16
1.0
 26
0.0
 36
0.0
 17
0.0
 27
1.0
 37
0.0
 76
     0
330
23
  0
LAYOUT
  5
22
102
{ACAD_REACTORS
330
1A
102
}
330
1A
100
AcDbPlotSettings
  1

  2
none_device
  4

  6

 40
0.0
 41
0.0
 42
0.0
 43
0.0
 44
0.0
 45
0.0
 46
0.0
 47
0.0
 48
0.0
 49
0.0
140
0.0
141
0.0
142
1.0
143
1.0
 70
  1712
 72
     0
 73
     0
 74
     0
  7

 75
     0
 76
     0
 77
     2
 78
   300
147
1.0
148
0.0
149
0.0
100
AcDbLayout
  1
Model
 70
     1
 71
     0
 10
0.0
 20
0.0
 11
12.0
 21
9.0
 12
0.0
 22
0.0
 32
0.0
 14
-15.54537
 24
-15.60702
 34
0.0
 15
-5.2218
 25
-9.27358
 35
0.0
146
0.0
 13
0.0
 23
0.0
 33
0.0
 16
1.0
 26
0.0
 36
0.0
 17
0.0
 27
1.0
 37
0.0
 76
     0
330
1F
331
29
  0
MATERIAL
  5
3D
102
{ACAD_REACTORS
330
3B
102
}
330
3B
100
AcDbMaterial
  1
ByBlock
 72
     1
 94
      127
  0
MATERIAL
  5
3C
102
{ACAD_REACTORS
330
3B
102
}
330
3B
100
AcDbMaterial
  1
ByLayer
 72
     1
 94
      127
  0
MATERIAL
  5
3E
102
{ACAD_REACTORS
330
3B
102
}
330
3B
100
AcDbMaterial
  1
Global
 72
     1
 94
      127
  0
MLINESTYLE
  5
18
102
{ACAD_REACTORS
330
17
102
}
330
17
100
AcDbMlineStyle
  2
Standard
 70
     0
  3

 62
   256
 51
90.0
 52
90.0
 71
     2
 49
0.5
 62
   256
  6
BYLAYER
 49
-0.5
 62
   256
  6
BYLAYER
  0
ACDBPLACEHOLDER
  5
F
102
{ACAD_REACTORS
330
E
102
}
330
E
  0
VISUALSTYLE
  5
2F
102
{ACAD_REACTORS
330
2A
102
}
102
{ACAD_XDICTIONARY
360
4E
102
}
330
2A
100
AcDbVisualStyle
  2
2dWireframe
 70
     4
 71
     0
 72
     2
 73
     0
 90
        0
 40
-0.6
 41
-30.0
 62
     5
 63
     7
421
 16777215
 74
     1
 91
        4
 64
     7
 65
   257
 75
     1
175
     1
 42
1.0
 92
        0
 66
   257
 43
1.0
 76
     1
 77
     6
 78
     2
 67
     7
 79
     5
170
     0
171
     0
290
     0
174
     0
 93
        1
 44
0.0
173
     0
291
     0
 45
0.0
  0
VISUALSTYLE
  5
31
102
{ACAD_REACTORS
330
2A
102
}
102
{ACAD_XDICTIONARY
360
52
102
}
330
2A
100
AcDbVisualStyle
  2
3D Hidden
 70
     6
 71
     1
 72
     2
 73
     2
 90
        0
 40
-0.6
 41
-30.0
 62
     5
 63
     7
421
 16777215
 74
     2
 91
        2
 64
     7
 65
   257
 75
     2
175
     1
 42
40.0
 92
        0
 66
   257
 43
1.0
 76
     1
 77
     6
 78
     2
 67
     7
 79
     3
170
     0
171
     0
290
     0
174
     0
 93
        1
 44
0.0
173
     0
291
     0
 45
0.0
  0
VISUALSTYLE
  5
30
102
{ACAD_REACTORS
330
2A
102
}
102
{ACAD_XDICTIONARY
360
50
102
}
330
2A
100
AcDbVisualStyle
  2
3dWireframe
 70
     5
 71
     0
 72
     2
 73
     0
 90
        0
 40
-0.6
 41
-30.0
 62
     5
 63
     7
421
 16777215
 74
     1
 91
        4
 64
     7
 65
   257
 75
     1
175
     1
 42
1.0
 92
        0
 66
   257
 43
1.0
 76
     1
 77
     6
 78
     2
 67
     7
 79
     5
170
     0
171
     0
290
     0
174
     0
 93
        1
 44
0.0
173
     0
291
     0
 45
0.0
  0
VISUALSTYLE
  5
32
102
{ACAD_REACTORS
330
2A
102
}
102
{ACAD_XDICTIONARY
360
54
102
}
330
2A
100
AcDbVisualStyle
  2
Basic
 70
     7
 71
     1
 72
     0
 73
     1
 90
        0
 40
-0.6
 41
-30.0
 62
     5
 63
     7
421
 16777215
 74
     0
 91
        4
 64
     7
 65
   257
 75
     1
175
     1
 42
1.0
 92
        8
 66
     7
 43
1.0
 76
     1
 77
     6
 78
     2
 67
     7
 79
     5
170
     0
171
     0
290
     0
174
     0
 93
        1
 44
0.0
173
     0
291
     1
 45
0.0
  0
VISUALSTYLE
  5
36
102
{ACAD_REACTORS
330
2A
102
}
102
{ACAD_XDICTIONARY
360
5C
102
}
330
2A
100
AcDbVisualStyle
  2
Brighten
 70
    12
 71
     2
 72
     2
 73
     0
 90
        0
 40
-0.6
 41
-30.0
 62
     5
 63
     7
421
 16777215
 74
     1
 91
        4
 64
     7
 65
   257
 75
     1
175
     1
 42
1.0
 92
        8
 66
     7
 43
1.0
 76
     1
 77
     6
 78
     2
 67
     7
 79
     5
170
     0
171
     0
290
     0
174
     0
 93
        1
 44
50.0
173
     0
291
     1
 45
0.0
  0
VISUALSTYLE
  5
3A
102
{ACAD_REACTORS
330
2A
102
}
102
{ACAD_XDICTIONARY
360
64
102
}
330
2A
100
AcDbVisualStyle
  2
ColorChange
 70
    16
 71
     2
 72
     2
 73
     3
 90
        0
 40
-0.6
 41
-30.0
 62
     5
 63
     8
421
  8421504
 74
     1
 91
        4
 64
     7
 65
   257
 75
     1
175
     1
 42
1.0
 92
        8
 66
     8
424
  8421504
 43
1.0
 76
     1
 77
     6
 78
     2
 67
     7
 79
     5
170
     0
171
     0
290
     0
174
     0
 93
        1
 44
0.0
173
     0
291
     1
 45
0.0
  0
VISUALSTYLE
  5
34
102
{ACAD_REACTORS
330
2A
102
}
102
{ACAD_XDICTIONARY
360
58
102
}
330
2A
100
AcDbVisualStyle
  2
Conceptual
 70
     9
 71
     3
 72
     2
 73
     0
 90
        0
 40
-0.6
 41
-30.0
 62
     5
 63
     7
421
 16777215
 74
     2
 91
        2
 64
     7
 65
   257
 75
     1
175
     1
 42
40.0
 92
        8
 66
     7
 43
1.0
 76
     1
 77
     6
 78
     2
 67
     7
 79
     3
170
     0
171
     0
290
     0
174
     0
 93
        1
 44
0.0
173
     0
291
     0
 45
0.0
  0
VISUALSTYLE
  5
35
102
{ACAD_REACTORS
330
2A
102
}
102
{ACAD_XDICTIONARY
360
5A
102
}
330
2A
100
AcDbVisualStyle
  2
Dim
 70
    11
 71
     2
 72
     2
 73
     0
 90
        0
 40
-0.6
 41
-30.0
 62
     5
 63
     7
421
 16777215
 74
     1
 91
        4
 64
     7
 65
   257
 75
     1
175
     1
 42
1.0
 92
        8
 66
     7
 43
1.0
 76
     1
 77
     6
 78
     2
 67
     7
 79
     5
170
     0
171
     0
290
     0
174
     0
 93
        1
 44
-50.0
173
     0
291
     1
 45
0.0
  0
VISUALSTYLE
  5
39
102
{ACAD_REACTORS
330
2A
102
}
102
{ACAD_XDICTIONARY
360
62
102
}
330
2A
100
AcDbVisualStyle
  2
Facepattern
 70
    15
 71
     2
 72
     2
 73
     0
 90
        0
 40
-0.6
 41
-30.0
 62
     5
 63
     7
421
 16777215
 74
     1
 91
        4
 64
     7
 65
   257
 75
     1
175
     1
 42
1.0
 92
        8
 66
     7
 43
1.0
 76
     1
 77
     6
 78
     2
 67
     7
 79
     5
170
     0
171
     0
290
     0
174
     0
 93
        1
 44
0.0
173
     0
291
     1
 45
0.0
  0
VISUALSTYLE
  5
2B
102
{ACAD_REACTORS
330
2A
102
}
102
{ACAD_XDICTIONARY
360
46
102
}
330
2A
100
AcDbVisualStyle
  2
Flat
 70
     0
 71
     2
 72
     1
 73
     1
 90
        2
 40
-0.6
 41
30.0
 62
     5
 63
     7
421
 16777215
 74
     0
 91
        4
 64
     7
 65
   257
 75
     1
175
     1
 42
1.0
 92
        8
 66
     7
 43
1.0
 76
     1
 77
     6
 78
     2
 67
     7
 79
     5
170
     0
171
     0
290
     0
174
     0
 93
       13
 44
0.0
173
     0
291
     1
 45
0.0
  0
VISUALSTYLE
  5
2C
102
{ACAD_REACTORS
330
2A
102
}
102
{ACAD_XDICTIONARY
360
48
102
}
330
2A
100
AcDbVisualStyle
  2
FlatWithEdges
 70
     1
 71
     2
 72
     1
 73
     1
 90
        2
 40
-0.6
 41
30.0
 62
     5
 63
     7
421
 16777215
 74
     1
 91
        4
 64
     7
 65
   257
 75
     1
175
     1
 42
1.0
 92
        0
 66
   257
 43
1.0
 76
     1
 77
     6
 78
     2
 67
     7
 79
     5
170
     0
171
     0
290
     0
174
     0
 93
       13
 44
0.0
173
     0
291
     1
 45
0.0
  0
VISUALSTYLE
  5
2D
102
{ACAD_REACTORS
330
2A
102
}
102
{ACAD_XDICTIONARY
360
4A
102
}
330
2A
100
AcDbVisualStyle
  2
Gouraud
 70
     2
 71
     2
 72
     2
 73
     1
 90
        2
 40
-0.6
 41
30.0
 62
     5
 63
     7
421
 16777215
 74
     0
 91
        4
 64
     7
 65
   257
 75
     1
175
     1
 42
1.0
 92
        0
 66
     7
 43
1.0
 76
     1
 77
     6
 78
     2
 67
     7
 79
     5
170
     0
171
     0
290
     0
174
     0
 93
       13
 44
0.0
173
     0
291
     1
 45
0.0
  0
VISUALSTYLE
  5
2E
102
{ACAD_REACTORS
330
2A
102
}
102
{ACAD_XDICTIONARY
360
4C
102
}
330
2A
100
AcDbVisualStyle
  2
GouraudWithEdges
 70
     3
 71
     2
 72
     2
 73
     1
 90
        2
 40
-0.6
 41
30.0
 62
     5
 63
     7
421
 16777215
 74
     1
 91
        4
 64
     7
 65
   257
 75
     1
175
     1
 42
1.0
 92
        0
 66
   257
 43
1.0
 76
     1
 77
     6
 78
     2
 67
     7
 79
     5
170
     0
171
     0
290
     0
174
     0
 93
       13
 44
0.0
173
     0
291
     1
 45
0.0
  0
VISUALSTYLE
  5
38
102
{ACAD_REACTORS
330
2A
102
}
102
{ACAD_XDICTIONARY
360
60
102
}
330
2A
100
AcDbVisualStyle
  2
Linepattern
 70
    14
 71
     2
 72
     2
 73
     0
 90
        0
 40
-0.6
 41
-30.0
 62
     5
 63
     7
421
 16777215
 74
     1
 91
        4
 64
     7
 65
   257
 75
     7
175
     7
 42
1.0
 92
        8
 66
     7
 43
1.0
 76
     1
 77
     6
 78
     2
 67
     7
 79
     5
170
     0
171
     0
290
     0
174
     0
 93
        1
 44
0.0
173
     0
291
     1
 45
0.0
  0
VISUALSTYLE
  5
33
102
{ACAD_REACTORS
330
2A
102
}
102
{ACAD_XDICTIONARY
360
56
102
}
330
2A
100
AcDbVisualStyle
  2
Realistic
 70
     8
 71
     2
 72
     2
 73
     0
 90
        0
 40
-0.6
 41
-30.0
 62
     5
 63
     7
421
 16777215
 74
     1
 91
        0
 64
     7
 65
   257
 75
     1
175
     1
 42
1.0
 92
        8
 66
     8
424
  7895160
 43
1.0
 76
     1
 77
     6
 78
     2
 67
     7
 79
     5
170
     0
171
     0
290
     0
174
     0
 93
       13
 44
0.0
173
     0
291
     0
 45
0.0
  0
VISUALSTYLE
  5
37
102
{ACAD_REACTORS
330
2A
102
}
102
{ACAD_XDICTIONARY
360
5E
102
}
330
2A
100
AcDbVisualStyle
  2
Thicken
 70
    13
 71
     2
 72
     2
 73
     0
 90
        0
 40
-0.6
 41
-30.0
 62
     5
 63
     7
421
 16777215
 74
     1
 91
        4
 64
     7
 65
   257
 75
     1
175
     1
 42
1.0
 92
       12
 66
     7
 43
1.0
 76
     1
 77
     6
 78
     2
 67
     7
 79
     5
170
     0
171
     0
290
     0
174
     0
 93
        1
 44
0.0
173
     0
291
     1
 45
0.0
  0
DICTIONARY
  5
4E
330
2F
100
AcDbDictionary
280
     1
281
     1
  3
ACAD_XREC_ROUNDTRIP
360
4F
  0
DICTIONARY
  5
52
330
31
100
AcDbDictionary
280
     1
281
     1
  3
ACAD_XREC_ROUNDTRIP
360
53
  0
DICTIONARY
  5
50
330
30
100
AcDbDictionary
280
     1
281
     1
  3
ACAD_XREC_ROUNDTRIP
360
51
  0
DICTIONARY
  5
54
330
32
100
AcDbDictionary
280
     1
281
     1
  3
ACAD_XREC_ROUNDTRIP
360
55
  0
DICTIONARY
  5
5C
330
36
100
AcDbDictionary
280
     1
281
     1
  3
ACAD_XREC_ROUNDTRIP
360
5D
  0
DICTIONARY
  5
64
330
3A
100
AcDbDictionary
280
     1
281
     1
  3
ACAD_XREC_ROUNDTRIP
360
65
  0
DICTIONARY
  5
58
330
34
100
AcDbDictionary
280
     1
281
     1
  3
ACAD_XREC_ROUNDTRIP
360
59
  0
DICTIONARY
  5
5A
330
35
100
AcDbDictionary
280
     1
281
     1
  3
ACAD_XREC_ROUNDTRIP
360
5B
  0
DICTIONARY
  5
62
330
39
100
AcDbDictionary
280
     1
281
     1
  3
ACAD_XREC_ROUNDTRIP
360
63
  0
DICTIONARY
  5
46
330
2B
100
AcDbDictionary
280
     1
281
     1
  3
ACAD_XREC_ROUNDTRIP
360
47
  0
DICTIONARY
  5
48
330
2C
100
AcDbDictionary
280
     1
281
     1
  3
ACAD_XREC_ROUNDTRIP
360
49
  0
DICTIONARY
  5
4A
330
2D
100
AcDbDictionary
280
     1
281
     1
  3
ACAD_XREC_ROUNDTRIP
360
4B
  0
DICTIONARY
  5
4C
330
2E
100
AcDbDictionary
280
     1
281
     1
  3
ACAD_XREC_ROUNDTRIP
360
4D
  0
DICTIONARY
  5
60
330
38
100
AcDbDictionary
280
     1
281
     1
  3
ACAD_XREC_ROUNDTRIP
360
61
  0
DICTIONARY
  5
56
330
33
100
AcDbDictionary
280
     1
281
     1
  3
ACAD_XREC_ROUNDTRIP
360
57
  0
DICTIONARY
  5
5E
330
37
100
AcDbDictionary
280
     1
281
     1
  3
ACAD_XREC_ROUNDTRIP
360
5F
  0
XRECORD
  5
4F
102
{ACAD_REACTORS
330
4E
102
}
330
4E
100
AcDbXrecord
280
     1
102
RTVSPropertyOp0
 70
     1
102
RTVSPropertyOp1
 70
     1
102
RTVSPropertyOp2
 70
     1
102
RTVSPropertyOp3
 70
     1
102
RTVSPropertyOp4
 70
     1
102
RTVSPropertyOp5
 70
     1
102
RTVSPropertyOp6
 70
     1
102
RTVSPropertyOp7
 70
     1
102
RTVSPropertyOp8
 70
     1
102
RTVSPropertyOp9
 70
     1
102
RTVSPropertyOp10
 70
     1
102
RTVSPropertyOp11
 70
     1
102
RTVSPropertyOp12
 70
     1
102
RTVSPropertyOp13
 70
     1
102
RTVSPropertyOp14
 70
     1
102
RTVSPropertyOp15
 70
     1
102
RTVSPropertyOp16
 70
     1
102
RTVSPropertyOp17
 70
     1
102
RTVSPropertyOp18
 70
     1
102
RTVSPropertyOp19
 70
     1
102
RTVSPropertyOp20
 70
     1
102
RTVSPropertyOp21
 70
     1
102
RTVSPropertyOp22
 70
     1
102
RTVSPropertyOp23
 70
     1
102
RTVSPropertyOp24
 70
     1
102
RTVSPropertyOp25
 70
     1
102
RTVSPropertyOp26
 70
     1
102
RTVSPropertyOp27
 70
     1
102
RTVSPropertyOp28
 70
     1
102
RTVSPropertyOp29
 70
     1
102
RTVSPropertyOp30
 70
     1
102
RTVSPropertyOp31
 70
     1
102
RTVSPropertyOp32
 70
     1
  0
XRECORD
  5
53
102
{ACAD_REACTORS
330
52
102
}
330
52
100
AcDbXrecord
280
     1
102
RTVSPropertyOp0
 70
     1
102
RTVSPropertyOp1
 70
     1
102
RTVSPropertyOp2
 70
     1
102
RTVSPropertyOp3
 70
     1
102
RTVSPropertyOp4
 70
     1
102
RTVSPropertyOp5
 70
     1
102
RTVSPropertyOp6
 70
     1
102
RTVSPropertyOp7
 70
     1
102
RTVSPropertyOp8
 70
     1
102
RTVSPropertyOp9
 70
     1
102
RTVSPropertyOp10
 70
     1
102
RTVSPropertyOp11
 70
     1
102
RTVSPropertyOp12
 70
     1
102
RTVSPropertyOp13
 70
     1
102
RTVSPropertyOp14
 70
     1
102
RTVSPropertyOp15
 70
     1
102
RTVSPropertyOp16
 70
     1
102
RTVSPropertyOp17
 70
     1
102
RTVSPropertyOp18
 70
     1
102
RTVSPropertyOp19
 70
     1
102
RTVSPropertyOp20
 70
     1
102
RTVSPropertyOp21
 70
     1
102
RTVSPropertyOp22
 70
     1
102
RTVSPropertyOp23
 70
     1
102
RTVSPropertyOp24
 70
     1
102
RTVSPropertyOp25
 70
     1
102
RTVSPropertyOp26
 70
     1
102
RTVSPropertyOp27
 70
     1
102
RTVSPropertyOp28
 70
     1
102
RTVSPropertyOp29
 70
     1
102
RTVSPropertyOp30
 70
     1
102
RTVSPropertyOp31
 70
     1
102
RTVSPropertyOp32
 70
     1
  0
XRECORD
  5
51
102
{ACAD_REACTORS
330
50
102
}
330
50
100
AcDbXrecord
280
     1
102
RTVSPropertyOp0
 70
     1
102
RTVSPropertyOp1
 70
     1
102
RTVSPropertyOp2
 70
     1
102
RTVSPropertyOp3
 70
     1
102
RTVSPropertyOp4
 70
     1
102
RTVSPropertyOp5
 70
     1
102
RTVSPropertyOp6
 70
     1
102
RTVSPropertyOp7
 70
     1
102
RTVSPropertyOp8
 70
     1
102
RTVSPropertyOp9
 70
     1
102
RTVSPropertyOp10
 70
     1
102
RTVSPropertyOp11
 70
     1
102
RTVSPropertyOp12
 70
     1
102
RTVSPropertyOp13
 70
     1
102
RTVSPropertyOp14
 70
     1
102
RTVSPropertyOp15
 70
     1
102
RTVSPropertyOp16
 70
     1
102
RTVSPropertyOp17
 70
     1
102
RTVSPropertyOp18
 70
     1
102
RTVSPropertyOp19
 70
     1
102
RTVSPropertyOp20
 70
     1
102
RTVSPropertyOp21
 70
     1
102
RTVSPropertyOp22
 70
     1
102
RTVSPropertyOp23
 70
     1
102
RTVSPropertyOp24
 70
     1
102
RTVSPropertyOp25
 70
     1
102
RTVSPropertyOp26
 70
     1
102
RTVSPropertyOp27
 70
     1
102
RTVSPropertyOp28
 70
     1
102
RTVSPropertyOp29
 70
     1
102
RTVSPropertyOp30
 70
     1
102
RTVSPropertyOp31
 70
     1
102
RTVSPropertyOp32
 70
     1
  0
XRECORD
  5
55
102
{ACAD_REACTORS
330
54
102
}
330
54
100
AcDbXrecord
280
     1
102
RTVSPropertyOp0
 70
     1
102
RTVSPropertyOp1
 70
     1
102
RTVSPropertyOp2
 70
     1
102
RTVSPropertyOp3
 70
     1
102
RTVSPropertyOp4
 70
     1
102
RTVSPropertyOp5
 70
     1
102
RTVSPropertyOp6
 70
     1
102
RTVSPropertyOp7
 70
     1
102
RTVSPropertyOp8
 70
     1
102
RTVSPropertyOp9
 70
     1
102
RTVSPropertyOp10
 70
     1
102
RTVSPropertyOp11
 70
     1
102
RTVSPropertyOp12
 70
     1
102
RTVSPropertyOp13
 70
     1
102
RTVSPropertyOp14
 70
     1
102
RTVSPropertyOp15
 70
     1
102
RTVSPropertyOp16
 70
     1
102
RTVSPropertyOp17
 70
     1
102
RTVSPropertyOp18
 70
     1
102
RTVSPropertyOp19
 70
     1
102
RTVSPropertyOp20
 70
     1
102
RTVSPropertyOp21
 70
     1
102
RTVSPropertyOp22
 70
     1
102
RTVSPropertyOp23
 70
     1
102
RTVSPropertyOp24
 70
     1
102
RTVSPropertyOp25
 70
     1
102
RTVSPropertyOp26
 70
     1
102
RTVSPropertyOp27
 70
     1
102
RTVSPropertyOp28
 70
     1
102
RTVSPropertyOp29
 70
     1
102
RTVSPropertyOp30
 70
     1
102
RTVSPropertyOp31
 70
     1
102
RTVSPropertyOp32
 70
     1
  0
XRECORD
  5
5D
102
{ACAD_REACTORS
330
5C
102
}
330
5C
100
AcDbXrecord
280
     1
102
RTVSPropertyOp0
 70
     1
102
RTVSPropertyOp1
 70
     1
102
RTVSPropertyOp2
 70
     1
102
RTVSPropertyOp3
 70
     1
102
RTVSPropertyOp4
 70
     1
102
RTVSPropertyOp5
 70
     1
102
RTVSPropertyOp6
 70
     1
102
RTVSPropertyOp7
 70
     1
102
RTVSPropertyOp8
 70
     1
102
RTVSPropertyOp9
 70
     1
102
RTVSPropertyOp10
 70
     1
102
RTVSPropertyOp11
 70
     1
102
RTVSPropertyOp12
 70
     1
102
RTVSPropertyOp13
 70
     1
102
RTVSPropertyOp14
 70
     1
102
RTVSPropertyOp15
 70
     1
102
RTVSPropertyOp16
 70
     1
102
RTVSPropertyOp17
 70
     1
102
RTVSPropertyOp18
 70
     1
102
RTVSPropertyOp19
 70
     1
102
RTVSPropertyOp20
 70
     1
102
RTVSPropertyOp21
 70
     1
102
RTVSPropertyOp22
 70
     1
102
RTVSPropertyOp23
 70
     1
102
RTVSPropertyOp24
 70
     1
102
RTVSPropertyOp25
 70
     1
102
RTVSPropertyOp26
 70
     1
102
RTVSPropertyOp27
 70
     1
102
RTVSPropertyOp28
 70
     1
102
RTVSPropertyOp29
 70
     1
102
RTVSPropertyOp30
 70
     1
102
RTVSPropertyOp31
 70
     1
102
RTVSPropertyOp32
 70
     1
  0
XRECORD
  5
65
102
{ACAD_REACTORS
330
64
102
}
330
64
100
AcDbXrecord
280
     1
102
RTVSPropertyOp0
 70
     1
102
RTVSPropertyOp1
 70
     1
102
RTVSPropertyOp2
 70
     1
102
RTVSPropertyOp3
 70
     1
102
RTVSPropertyOp4
 70
     1
102
RTVSPropertyOp5
 70
     1
102
RTVSPropertyOp6
 70
     1
102
RTVSPropertyOp7
 70
     1
102
RTVSPropertyOp8
 70
     1
102
RTVSPropertyOp9
 70
     1
102
RTVSPropertyOp10
 70
     1
102
RTVSPropertyOp11
 70
     1
102
RTVSPropertyOp12
 70
     1
102
RTVSPropertyOp13
 70
     1
102
RTVSPropertyOp14
 70
     1
102
RTVSPropertyOp15
 70
     1
102
RTVSPropertyOp16
 70
     1
102
RTVSPropertyOp17
 70
     1
102
RTVSPropertyOp18
 70
     1
102
RTVSPropertyOp19
 70
     1
102
RTVSPropertyOp20
 70
     1
102
RTVSPropertyOp21
 70
     1
102
RTVSPropertyOp22
 70
     1
102
RTVSPropertyOp23
 70
     1
102
RTVSPropertyOp24
 70
     1
102
RTVSPropertyOp25
 70
     1
102
RTVSPropertyOp26
 70
     1
102
RTVSPropertyOp27
 70
     1
102
RTVSPropertyOp28
 70
     1
102
RTVSPropertyOp29
 70
     1
102
RTVSPropertyOp30
 70
     1
102
RTVSPropertyOp31
 70
     1
102
RTVSPropertyOp32
 70
     1
  0
XRECORD
  5
59
102
{ACAD_REACTORS
330
58
102
}
330
58
100
AcDbXrecord
280
     1
102
RTVSPropertyOp0
 70
     1
102
RTVSPropertyOp1
 70
     1
102
RTVSPropertyOp2
 70
     1
102
RTVSPropertyOp3
 70
     1
102
RTVSPropertyOp4
 70
     1
102
RTVSPropertyOp5
 70
     1
102
RTVSPropertyOp6
 70
     1
102
RTVSPropertyOp7
 70
     1
102
RTVSPropertyOp8
 70
     1
102
RTVSPropertyOp9
 70
     1
102
RTVSPropertyOp10
 70
     1
102
RTVSPropertyOp11
 70
     1
102
RTVSPropertyOp12
 70
     1
102
RTVSPropertyOp13
 70
     1
102
RTVSPropertyOp14
 70
     1
102
RTVSPropertyOp15
 70
     1
102
RTVSPropertyOp16
 70
     1
102
RTVSPropertyOp17
 70
     1
102
RTVSPropertyOp18
 70
     1
102
RTVSPropertyOp19
 70
     1
102
RTVSPropertyOp20
 70
     1
102
RTVSPropertyOp21
 70
     1
102
RTVSPropertyOp22
 70
     1
102
RTVSPropertyOp23
 70
     1
102
RTVSPropertyOp24
 70
     1
102
RTVSPropertyOp25
 70
     1
102
RTVSPropertyOp26
 70
     1
102
RTVSPropertyOp27
 70
     1
102
RTVSPropertyOp28
 70
     1
102
RTVSPropertyOp29
 70
     1
102
RTVSPropertyOp30
 70
     1
102
RTVSPropertyOp31
 70
     1
102
RTVSPropertyOp32
 70
     1
  0
XRECORD
  5
5B
102
{ACAD_REACTORS
330
5A
102
}
330
5A
100
AcDbXrecord
280
     1
102
RTVSPropertyOp0
 70
     1
102
RTVSPropertyOp1
 70
     1
102
RTVSPropertyOp2
 70
     1
102
RTVSPropertyOp3
 70
     1
102
RTVSPropertyOp4
 70
     1
102
RTVSPropertyOp5
 70
     1
102
RTVSPropertyOp6
 70
     1
102
RTVSPropertyOp7
 70
     1
102
RTVSPropertyOp8
 70
     1
102
RTVSPropertyOp9
 70
     1
102
RTVSPropertyOp10
 70
     1
102
RTVSPropertyOp11
 70
     1
102
RTVSPropertyOp12
 70
     1
102
RTVSPropertyOp13
 70
     1
102
RTVSPropertyOp14
 70
     1
102
RTVSPropertyOp15
 70
     1
102
RTVSPropertyOp16
 70
     1
102
RTVSPropertyOp17
 70
     1
102
RTVSPropertyOp18
 70
     1
102
RTVSPropertyOp19
 70
     1
102
RTVSPropertyOp20
 70
     1
102
RTVSPropertyOp21
 70
     1
102
RTVSPropertyOp22
 70
     1
102
RTVSPropertyOp23
 70
     1
102
RTVSPropertyOp24
 70
     1
102
RTVSPropertyOp25
 70
     1
102
RTVSPropertyOp26
 70
     1
102
RTVSPropertyOp27
 70
     1
102
RTVSPropertyOp28
 70
     1
102
RTVSPropertyOp29
 70
     1
102
RTVSPropertyOp30
 70
     1
102
RTVSPropertyOp31
 70
     1
102
RTVSPropertyOp32
 70
     1
  0
XRECORD
  5
63
102
{ACAD_REACTORS
330
62
102
}
330
62
100
AcDbXrecord
280
     1
102
RTVSPropertyOp0
 70
     1
102
RTVSPropertyOp1
 70
     1
102
RTVSPropertyOp2
 70
     1
102
RTVSPropertyOp3
 70
     1
102
RTVSPropertyOp4
 70
     1
102
RTVSPropertyOp5
 70
     1
102
RTVSPropertyOp6
 70
     1
102
RTVSPropertyOp7
 70
     1
102
RTVSPropertyOp8
 70
     1
102
RTVSPropertyOp9
 70
     1
102
RTVSPropertyOp10
 70
     1
102
RTVSPropertyOp11
 70
     1
102
RTVSPropertyOp12
 70
     1
102
RTVSPropertyOp13
 70
     1
102
RTVSPropertyOp14
 70
     1
102
RTVSPropertyOp15
 70
     1
102
RTVSPropertyOp16
 70
     1
102
RTVSPropertyOp17
 70
     1
102
RTVSPropertyOp18
 70
     1
102
RTVSPropertyOp19
 70
     1
102
RTVSPropertyOp20
 70
     1
102
RTVSPropertyOp21
 70
     1
102
RTVSPropertyOp22
 70
     1
102
RTVSPropertyOp23
 70
     1
102
RTVSPropertyOp24
 70
     1
102
RTVSPropertyOp25
 70
     1
102
RTVSPropertyOp26
 70
     1
102
RTVSPropertyOp27
 70
     1
102
RTVSPropertyOp28
 70
     1
102
RTVSPropertyOp29
 70
     1
102
RTVSPropertyOp30
 70
     1
102
RTVSPropertyOp31
 70
     1
102
RTVSPropertyOp32
 70
     1
  0
XRECORD
  5
47
102
{ACAD_REACTORS
330
46
102
}
330
46
100
AcDbXrecord
280
     1
102
RTVSPropertyOp0
 70
     1
102
RTVSPropertyOp1
 70
     1
102
RTVSPropertyOp2
 70
     1
102
RTVSPropertyOp3
 70
     1
102
RTVSPropertyOp4
 70
     1
102
RTVSPropertyOp5
 70
     1
102
RTVSPropertyOp6
 70
     1
102
RTVSPropertyOp7
 70
     1
102
RTVSPropertyOp8
 70
     1
102
RTVSPropertyOp9
 70
     1
102
RTVSPropertyOp10
 70
     1
102
RTVSPropertyOp11
 70
     1
102
RTVSPropertyOp12
 70
     1
102
RTVSPropertyOp13
 70
     1
102
RTVSPropertyOp14
 70
     1
102
RTVSPropertyOp15
 70
     1
102
RTVSPropertyOp16
 70
     1
102
RTVSPropertyOp17
 70
     1
102
RTVSPropertyOp18
 70
     1
102
RTVSPropertyOp19
 70
     1
102
RTVSPropertyOp20
 70
     1
102
RTVSPropertyOp21
 70
     1
102
RTVSPropertyOp22
 70
     1
102
RTVSPropertyOp23
 70
     1
102
RTVSPropertyOp24
 70
     1
102
RTVSPropertyOp25
 70
     1
102
RTVSPropertyOp26
 70
     1
102
RTVSPropertyOp27
 70
     1
102
RTVSPropertyOp28
 70
     1
102
RTVSPropertyOp29
 70
     1
102
RTVSPropertyOp30
 70
     1
102
RTVSPropertyOp31
 70
     1
102
RTVSPropertyOp32
 70
     1
  0
XRECORD
  5
49
102
{ACAD_REACTORS
330
48
102
}
330
48
100
AcDbXrecord
280
     1
102
RTVSPropertyOp0
 70
     1
102
RTVSPropertyOp1
 70
     1
102
RTVSPropertyOp2
 70
     1
102
RTVSPropertyOp3
 70
     1
102
RTVSPropertyOp4
 70
     1
102
RTVSPropertyOp5
 70
     1
102
RTVSPropertyOp6
 70
     1
102
RTVSPropertyOp7
 70
     1
102
RTVSPropertyOp8
 70
     1
102
RTVSPropertyOp9
 70
     1
102
RTVSPropertyOp10
 70
     1
102
RTVSPropertyOp11
 70
     1
102
RTVSPropertyOp12
 70
     1
102
RTVSPropertyOp13
 70
     1
102
RTVSPropertyOp14
 70
     1
102
RTVSPropertyOp15
 70
     1
102
RTVSPropertyOp16
 70
     1
102
RTVSPropertyOp17
 70
     1
102
RTVSPropertyOp18
 70
     1
102
RTVSPropertyOp19
 70
     1
102
RTVSPropertyOp20
 70
     1
102
RTVSPropertyOp21
 70
     1
102
RTVSPropertyOp22
 70
     1
102
RTVSPropertyOp23
 70
     1
102
RTVSPropertyOp24
 70
     1
102
RTVSPropertyOp25
 70
     1
102
RTVSPropertyOp26
 70
     1
102
RTVSPropertyOp27
 70
     1
102
RTVSPropertyOp28
 70
     1
102
RTVSPropertyOp29
 70
     1
102
RTVSPropertyOp30
 70
     1
102
RTVSPropertyOp31
 70
     1
102
RTVSPropertyOp32
 70
     1
  0
XRECORD
  5
4B
102
{ACAD_REACTORS
330
4A
102
}
330
4A
100
AcDbXrecord
280
     1
102
RTVSPropertyOp0
 70
     1
102
RTVSPropertyOp1
 70
     1
102
RTVSPropertyOp2
 70
     1
102
RTVSPropertyOp3
 70
     1
102
RTVSPropertyOp4
 70
     1
102
RTVSPropertyOp5
 70
     1
102
RTVSPropertyOp6
 70
     1
102
RTVSPropertyOp7
 70
     1
102
RTVSPropertyOp8
 70
     1
102
RTVSPropertyOp9
 70
     1
102
RTVSPropertyOp10
 70
     1
102
RTVSPropertyOp11
 70
     1
102
RTVSPropertyOp12
 70
     1
102
RTVSPropertyOp13
 70
     1
102
RTVSPropertyOp14
 70
     1
102
RTVSPropertyOp15
 70
     1
102
RTVSPropertyOp16
 70
     1
102
RTVSPropertyOp17
 70
     1
102
RTVSPropertyOp18
 70
     1
102
RTVSPropertyOp19
 70
     1
102
RTVSPropertyOp20
 70
     1
102
RTVSPropertyOp21
 70
     1
102
RTVSPropertyOp22
 70
     1
102
RTVSPropertyOp23
 70
     1
102
RTVSPropertyOp24
 70
     1
102
RTVSPropertyOp25
 70
     1
102
RTVSPropertyOp26
 70
     1
102
RTVSPropertyOp27
 70
     1
102
RTVSPropertyOp28
 70
     1
102
RTVSPropertyOp29
 70
     1
102
RTVSPropertyOp30
 70
     1
102
RTVSPropertyOp31
 70
     1
102
RTVSPropertyOp32
 70
     1
  0
XRECORD
  5
4D
102
{ACAD_REACTORS
330
4C
102
}
330
4C
100
AcDbXrecord
280
     1
102
RTVSPropertyOp0
 70
     1
102
RTVSPropertyOp1
 70
     1
102
RTVSPropertyOp2
 70
     1
102
RTVSPropertyOp3
 70
     1
102
RTVSPropertyOp4
 70
     1
102
RTVSPropertyOp5
 70
     1
102
RTVSPropertyOp6
 70
     1
102
RTVSPropertyOp7
 70
     1
102
RTVSPropertyOp8
 70
     1
102
RTVSPropertyOp9
 70
     1
102
RTVSPropertyOp10
 70
     1
102
RTVSPropertyOp11
 70
     1
102
RTVSPropertyOp12
 70
     1
102
RTVSPropertyOp13
 70
     1
102
RTVSPropertyOp14
 70
     1
102
RTVSPropertyOp15
 70
     1
102
RTVSPropertyOp16
 70
     1
102
RTVSPropertyOp17
 70
     1
102
RTVSPropertyOp18
 70
     1
102
RTVSPropertyOp19
 70
     1
102
RTVSPropertyOp20
 70
     1
102
RTVSPropertyOp21
 70
     1
102
RTVSPropertyOp22
 70
     1
102
RTVSPropertyOp23
 70
     1
102
RTVSPropertyOp24
 70
     1
102
RTVSPropertyOp25
 70
     1
102
RTVSPropertyOp26
 70
     1
102
RTVSPropertyOp27
 70
     1
102
RTVSPropertyOp28
 70
     1
102
RTVSPropertyOp29
 70
     1
102
RTVSPropertyOp30
 70
     1
102
RTVSPropertyOp31
 70
     1
102
RTVSPropertyOp32
 70
     1
  0
XRECORD
  5
61
102
{ACAD_REACTORS
330
60
102
}
330
60
100
AcDbXrecord
280
     1
102
RTVSPropertyOp0
 70
     1
102
RTVSPropertyOp1
 70
     1
102
RTVSPropertyOp2
 70
     1
102
RTVSPropertyOp3
 70
     1
102
RTVSPropertyOp4
 70
     1
102
RTVSPropertyOp5
 70
     1
102
RTVSPropertyOp6
 70
     1
102
RTVSPropertyOp7
 70
     1
102
RTVSPropertyOp8
 70
     1
102
RTVSPropertyOp9
 70
     1
102
RTVSPropertyOp10
 70
     1
102
RTVSPropertyOp11
 70
     1
102
RTVSPropertyOp12
 70
     1
102
RTVSPropertyOp13
 70
     1
102
RTVSPropertyOp14
 70
     1
102
RTVSPropertyOp15
 70
     1
102
RTVSPropertyOp16
 70
     1
102
RTVSPropertyOp17
 70
     1
102
RTVSPropertyOp18
 70
     1
102
RTVSPropertyOp19
 70
     1
102
RTVSPropertyOp20
 70
     1
102
RTVSPropertyOp21
 70
     1
102
RTVSPropertyOp22
 70
     1
102
RTVSPropertyOp23
 70
     1
102
RTVSPropertyOp24
 70
     1
102
RTVSPropertyOp25
 70
     1
102
RTVSPropertyOp26
 70
     1
102
RTVSPropertyOp27
 70
     1
102
RTVSPropertyOp28
 70
     1
102
RTVSPropertyOp29
 70
     1
102
RTVSPropertyOp30
 70
     1
102
RTVSPropertyOp31
 70
     1
102
RTVSPropertyOp32
 70
     1
  0
XRECORD
  5
57
102
{ACAD_REACTORS
330
56
102
}
330
56
100
AcDbXrecord
280
     1
102
RTVSPropertyOp0
 70
     1
102
RTVSPropertyOp1
 70
     1
102
RTVSPropertyOp2
 70
     1
102
RTVSPropertyOp3
 70
     1
102
RTVSPropertyOp4
 70
     1
102
RTVSPropertyOp5
 70
     1
102
RTVSPropertyOp6
 70
     1
102
RTVSPropertyOp7
 70
     1
102
RTVSPropertyOp8
 70
     1
102
RTVSPropertyOp9
 70
     1
102
RTVSPropertyOp10
 70
     1
102
RTVSPropertyOp11
 70
     1
102
RTVSPropertyOp12
 70
     1
102
RTVSPropertyOp13
 70
     1
102
RTVSPropertyOp14
 70
     1
102
RTVSPropertyOp15
 70
     1
102
RTVSPropertyOp16
 70
     1
102
RTVSPropertyOp17
 70
     1
102
RTVSPropertyOp18
 70
     1
102
RTVSPropertyOp19
 70
     1
102
RTVSPropertyOp20
 70
     1
102
RTVSPropertyOp21
 70
     1
102
RTVSPropertyOp22
 70
     1
102
RTVSPropertyOp23
 70
     1
102
RTVSPropertyOp24
 70
     1
102
RTVSPropertyOp25
 70
     1
102
RTVSPropertyOp26
 70
     1
102
RTVSPropertyOp27
 70
     1
102
RTVSPropertyOp28
 70
     1
102
RTVSPropertyOp29
 70
     1
102
RTVSPropertyOp30
 70
     1
102
RTVSPropertyOp31
 70
     1
102
RTVSPropertyOp32
 70
     1
  0
XRECORD
  5
5F
102
{ACAD_REACTORS
330
5E
102
}
330
5E
100
AcDbXrecord
280
     1
102
RTVSPropertyOp0
 70
     1
102
RTVSPropertyOp1
 70
     1
102
RTVSPropertyOp2
 70
     1
102
RTVSPropertyOp3
 70
     1
102
RTVSPropertyOp4
 70
     1
102
RTVSPropertyOp5
 70
     1
102
RTVSPropertyOp6
 70
     1
102
RTVSPropertyOp7
 70
     1
102
RTVSPropertyOp8
 70
     1
102
RTVSPropertyOp9
 70
     1
102
RTVSPropertyOp10
 70
     1
102
RTVSPropertyOp11
 70
     1
102
RTVSPropertyOp12
 70
     1
102
RTVSPropertyOp13
 70
     1
102
RTVSPropertyOp14
 70
     1
102
RTVSPropertyOp15
 70
     1
102
RTVSPropertyOp16
 70
     1
102
RTVSPropertyOp17
 70
     1
102
RTVSPropertyOp18
 70
     1
102
RTVSPropertyOp19
 70
     1
102
RTVSPropertyOp20
 70
     1
102
RTVSPropertyOp21
 70
     1
102
RTVSPropertyOp22
 70
     1
102
RTVSPropertyOp23
 70
     1
102
RTVSPropertyOp24
 70
     1
102
RTVSPropertyOp25
 70
     1
102
RTVSPropertyOp26
 70
     1
102
RTVSPropertyOp27
 70
     1
102
RTVSPropertyOp28
 70
     1
102
RTVSPropertyOp29
 70
     1
102
RTVSPropertyOp30
 70
     1
102
RTVSPropertyOp31
 70
     1
102
RTVSPropertyOp32
 70
     1
  0
ENDSEC
  0
EOF
