  0
SECTION
  2
HEADER
  9
$ACADVER
  1
AC1021
  9
$ACADMAINTVER
 70
    25
  9
$DWGCODEPAGE
  3
ANSI_1252
  9
$INSBASE
 10
0.0
 20
0.0
 30
0.0
  9
$EXTMIN
 10
-15.54537
 20
-15.60702
 30
0.0
  9
$EXTMAX
 10
-5.22622
 20
-9.27358
 30
0.0
  9
$LIMMIN
 10
0.0
 20
0.0
  9
$LIMMAX
 10
12.0
 20
9.0
  9
$ORTHOMODE
 70
     0
  9
$REGENMODE
 70
     1
  9
$FILLMODE
 70
     1
  9
$QTEXTMODE
 70
     0
  9
$MIRRTEXT
 70
     1
  9
$LTSCALE
 40
1.0
  9
$ATTMODE
 70
     1
  9
$TEXTSIZE
 40
0.2
  9
$TRACEWID
 40
0.05
  9
$TEXTSTYLE
  7
Standard
  9
$CLAYER
  8
0
  9
$CELTYPE
  6
ByLayer
  9
$CECOLOR
 62
   256
  9
$CELTSCALE
 40
1.0
  9
$DISPSILH
 70
     0
  9
$DIMSCALE
 40
1.0
  9
$DIMASZ
 40
0.18
  9
$DIMEXO
 40
0.0625
  9
$DIMDLI
 40
0.38
  9
$DIMRND
 40
0.0
  9
$DIMDLE
 40
0.0
  9
$DIMEXE
 40
0.18
  9
$DIMTP
 40
0.0
  9
$DIMTM
 40
0.0
  9
$DIMTXT
 40
0.18
  9
$DIMCEN
 40
0.09
  9
$DIMTSZ
 40
0.0
  9
$DIMTOL
 70
     0
  9
$DIMLIM
 70
     0
  9
$DIMTIH
 70
     1
  9
$DIMTOH
 70
     1
  9
$DIMSE1
 70
     0
  9
$DIMSE2
 70
     0
  9
$DIMTAD
 70
     0
  9
$DIMZIN
 70
     0
  9
$DIMBLK
  1

  9
$DIMASO
 70
     1
  9
$DIMSHO
 70
     1
  9
$DIMPOST
  1

  9
$DIMAPOST
  1

  9
$DIMALT
 70
     0
  9
$DIMALTD
 70
     2
  9
$DIMALTF
 40
25.4
  9
$DIMLFAC
 40
1.0
  9
$DIMTOFL
 70
     0
  9
$DIMTVP
 40
0.0
  9
$DIMTIX
 70
     0
  9
$DIMSOXD
 70
     0
  9
$DIMSAH
 70
     0
  9
$DIMBLK1
  1

  9
$DIMBLK2
  1

  9
$DIMSTYLE
  2
Standard
  9
$DIMCLRD
 70
     0
  9
$DIMCLRE
 70
     0
  9
$DIMCLRT
 70
     0
  9
$DIMTFAC
 40
1.0
  9
$DIMGAP
 40
0.09
  9
$DIMJUST
 70
     0
  9
$DIMSD1
 70
     0
  9
$DIMSD2
 70
     0
  9
$DIMTOLJ
 70
     1
  9
$DIMTZIN
 70
     0
  9
$DIMALTZ
 70
     0
  9
$DIMALTTZ
 70
     0
  9
$DIMUPT
 70
     0
  9
$DIMDEC
 70
     4
  9
$DIMTDEC
 70
     4
  9
$DIMALTU
 70
     2
  9
$DIMALTTD
 70
     2
  9
$DIMTXSTY
  7
Standard
  9
$DIMAUNIT
 70
     0
  9
$DIMADEC
 70
     0
  9
$DIMALTRND
 40
0.0
  9
$DIMAZIN
 70
     0
  9
$DIMDSEP
 70
    46
  9
$DIMATFIT
 70
     3
  9
$DIMFRAC
 70
     0
  9
$DIMLDRBLK
  1

  9
$DIMLUNIT
 70
     2
  9
$DIMLWD
 70
    -2
  9
$DIMLWE
 70
    -2
  9
$DIMTMOVE
 70
     0
  9
$DIMFXL
 40
1.0
  9
$DIMFXLON
 70
     0
  9
$DIMJOGANG
 40
0.7853981633974483
  9
$DIMTFILL
 70
     0
  9
$DIMTFILLCLR
 70
     0
  9
$DIMARCSYM
 70
     0
  9
$DIMLTYPE
  6

  9
$DIMLTEX1
  6

  9
$DIMLTEX2
  6

  9
$LUNITS
 70
     2
  9
$LUPREC
 70
     4
  9
$SKETCHINC
 40
0.1
  9
$FILLETRAD
 40
0.5
  9
$AUNITS
 70
     0
  9
$AUPREC
 70
     0
  9
$MENU
  1
.
  9
$ELEVATION
 40
0.0
  9
$PELEVATION
 40
0.0
  9
$THICKNESS
 40
0.0
  9
$LIMCHECK
 70
     0
  9
$CHAMFERA
 40
0.5
  9
$CHAMFERB
 40
0.5
  9
$CHAMFERC
 40
1.0
  9
$CHAMFERD
 40
0.0
  9
$SKPOLY
 70
     0
  9
$TDCREATE
 40
2460554.93934493
  9
$TDUCREATE
 40
2460554.897678264
  9
$TDUPDATE
 40
2460554.939344965
  9
$TDUUPDATE
 40
2460554.897678298
  9
$TDINDWG
 40
0.0000000116
  9
$TDUSRTIMER
 40
0.0000000116
  9
$USRTIMER
 70
     1
  9
$ANGBASE
 50
0.0
  9
$ANGDIR
 70
     0
  9
$PDMODE
 70
     0
  9
$PDSIZE
 40
0.0
  9
$PLINEWID
 40
0.0
  9
$SPLFRAME
 70
     0
  9
$SPLINETYPE
 70
     6
  9
$SPLINESEGS
 70
     8
  9
$HANDSEED
  5
70
  9
$SURFTAB1
 70
     6
  9
$SURFTAB2
 70
     6
  9
$SURFTYPE
 70
     6
  9
$SURFU
 70
     6
  9
$SURFV
 70
     6
  9
$UCSBASE
  2

  9
$UCSNAME
  2

  9
$UCSORG
 10
0.0
 20
0.0
 30
0.0
  9
$UCSXDIR
 10
1.0
 20
0.0
 30
0.0
  9
$UCSYDIR
 10
0.0
 20
1.0
 30
0.0
  9
$UCSORTHOREF
  2

  9
$UCSORTHOVIEW
 70
     0
  9
$UCSORGTOP
 10
0.0
 20
0.0
 30
0.0
  9
$UCSORGBOTTOM
 10
0.0
 20
0.0
 30
0.0
  9
$UCSORGLEFT
 10
0.0
 20
0.0
 30
0.0
  9
$UCSORGRIGHT
 10
0.0
 20
0.0
 30
0.0
  9
$UCSORGFRONT
 10
0.0
 20
0.0
 30
0.0
  9
$UCSORGBACK
 10
0.0
 20
0.0
 30
0.0
  9
$PUCSBASE
  2

  9
$PUCSNAME
  2

  9
$PUCSORG
 10
0.0
 20
0.0
 30
0.0
  9
$PUCSXDIR
 10
1.0
 20
0.0
 30
0.0
  9
$PUCSYDIR
 10
0.0
 20
1.0
 30
0.0
  9
$PUCSORTHOREF
  2

  9
$PUCSORTHOVIEW
 70
     0
  9
$PUCSORGTOP
 10
0.0
 20
0.0
 30
0.0
  9
$PUCSORGBOTTOM
 10
0.0
 20
0.0
 30
0.0
  9
$PUCSORGLEFT
 10
0.0
 20
0.0
 30
0.0
  9
$PUCSORGRIGHT
 10
0.0
 20
0.0
 30
0.0
  9
$PUCSORGFRONT
 10
0.0
 20
0.0
 30
0.0
  9
$PUCSORGBACK
 10
0.0
 20
0.0
 30
0.0
  9
$USERI1
 70
     0
  9
$USERI2
 70
     0
  9
$USERI3
 70
     0
  9
$USERI4
 70
     0
  9
$USERI5
 70
     0
  9
$USERR1
 40
0.0
  9
$USERR2
 40
0.0
  9
$USERR3
 40
0.0
  9
$USERR4
 40
0.0
  9
$USERR5
 40
0.0
  9
$WORLDVIEW
 70
     1
  9
$SHADEDGE
 70
     3
  9
$SHADEDIF
 70
    70
  9
$TILEMODE
 70
     1
  9
$MAXACTVP
 70
    64
  9
$PINSBASE
 10
0.0
 20
0.0
 30
0.0
  9
$PLIMCHECK
 70
     0
  9
$PEXTMIN
 10
1.000000000000000E+20
 20
1.000000000000000E+20
 30
1.000000000000000E+20
  9
$PEXTMAX
 10
-1.000000000000000E+20
 20
-1.000000000000000E+20
 30
-1.000000000000000E+20
  9
$PLIMMIN
 10
0.0
 20
0.0
  9
$PLIMMAX
 10
12.0
 20
9.0
  9
$UNITMODE
 70
     0
  9
$VISRETAIN
 70
     1
  9
$PLINEGEN
 70
     0
  9
$PSLTSCALE
 70
     1
  9
$TREEDEPTH
 70
  3020
  9
$CMLSTYLE
  2
Standard
  9
$CMLJUST
 70
     0
  9
$CMLSCALE
 40
1.0
  9
$PROXYGRAPHICS
 70
     1
  9
$MEASUREMENT
 70
     0
  9
$CELWEIGHT
370
    -1
  9
$ENDCAPS
280
     0
  9
$JOINSTYLE
280
     0
  9
$LWDISPLAY
290
     0
  9
$INSUNITS
 70
     5
  9
$HYPERLINKBASE
  1

  9
$STYLESHEET
  1

  9
$XEDIT
290
     1
  9
$CEPSNTYPE
380
     0
  9
$PSTYLEMODE
290
     1
  9
$FINGERPRINTGUID
  2
{C2D30453-CCB4-4947-97E0-930DE134BA34}
  9
$VERSIONGUID
  2
{FAEB1C32-E019-11D5-929B-00C0DF256EC4}
  9
$EXTNAMES
290
     1
  9
$PSVPSCALE
 40
0.0
  9
$OLESTARTUP
290
     0
  9
$SORTENTS
280
   127
  9
$INDEXCTL
280
     0
  9
$HIDETEXT
280
     1
  9
$XCLIPFRAME
290
     0
  9
$HALOGAP
280
     0
  9
$OBSCOLOR
 70
   257
  9
$OBSLTYPE
280
     0
  9
$INTERSECTIONDISPLAY
280
     0
  9
$INTERSECTIONCOLOR
 70
   257
  9
$DIMASSOC
280
     2
  9
$PROJECTNAME
  1

  9
$CAMERADISPLAY
290
     0
  9
$LENSLENGTH
 40
50.0
  9
$CAMERAHEIGHT
 40
0.0
  9
$STEPSPERSEC
 40
2.0
  9
$STEPSIZE
 40
6.0
  9
$3DDWFPREC
 40
2.0
  9
$PSOLWIDTH
 40
0.25
  9
$PSOLHEIGHT
 40
4.0
  9
$LOFTANG1
 40
1.570796326794897
  9
$LOFTANG2
 40
1.570796326794897
  9
$LOFTMAG1
 40
0.0
  9
$LOFTMAG2
 40
0.0
  9
$LOFTPARAM
 70
     7
  9
$LOFTNORMALS
280
     1
  9
$LATITUDE
 40
37.795
  9
$LONGITUDE
 40
-122.394
  9
$NORTHDIRECTION
 40
0.0
  9
$TIMEZONE
 70
 -8000
  9
$LIGHTGLYPHDISPLAY
280
     1
  9
$TILEMODELIGHTSYNCH
280
     1
  9
$SOLIDHIST
280
     1
  9
$SHOWHIST
280
     1
  9
$DWFFRAME
280
     2
  9
$DGNFRAME
280
     2
  9
$REALWORLDSCALE
290
     1
  9
$INTERFERECOLOR
 62
   256
  9
$CSHADOW
280
     0
  9
$SHADOWPLANELOCATION
 40
0.0
  0
ENDSEC
  0
SECTION
  2
CLASSES
  0
CLASS
  1
ACDBDICTIONARYWDFLT
  2
AcDbDictionaryWithDefault
  3
ObjectDBX Classes
 90
        0
 91
        4
280
     0
281
     0
  0
CLASS
  1
VISUALSTYLE
  2
AcDbVisualStyle
  3
ObjectDBX Classes
 90
     4095
 91
        4
280
     0
281
     0
  0
CLASS
  1
MATERIAL
  2
AcDbMaterial
  3
ObjectDBX Classes
 90
     1153
 91
        4
280
     0
281
     0
  0
ENDSEC
  0
SECTION
  2
TABLES
  0
TABLE
  2
VPORT
  5
8
330
0
100
AcDbSymbolTable
 70
     1
  0
VPORT
  5
29
330
8
100
AcDbSymbolTableRecord
100
AcDbViewportTableRecord
  2
*Active
 70
     0
 10
0.0
 20
0.0
 11
1.0
 21
1.0
 12
10.42990654205607
 22
4.5
 13
0.0
 23
0.0
 14
0.5
 24
0.5
 15
0.5
 25
0.5
 16
0.0
 26
0.0
 36
1.0
 17
0.0
 27
0.0
 37
0.0
 40
9.0
 41
1.972972972850329
 42
50.0
 43
0.0
 44
0.0
 50
0.0
 51
0.0
 71
     0
 72
   100
 73
     1
 74
     3
 75
     0
 76
     0
 77
     0
 78
     0
281
     0
 65
     1
110
0.0
120
0.0
130
0.0
111
1.0
121
0.0
131
0.0
112
0.0
122
1.0
132
0.0
 79
     0
146
0.0
 60
     3
 61
     5
292
     1
282
     1
141
0.0
142
0.0
 63
   250
  0
ENDTAB
  0
TABLE
  2
LTYPE
  5
5
330
0
100
AcDbSymbolTable
 70
     1
  0
LTYPE
  5
14
330
5
100
AcDbSymbolTableRecord
100
AcDbLinetypeTableRecord
  2
ByBlock
 70
     0
  3

 72
    65
 73
     0
 40
0.0
  0
LTYPE
  5
15
330
5
100
AcDbSymbolTableRecord
100
AcDbLinetypeTableRecord
  2
ByLayer
 70
     0
  3

 72
    65
 73
     0
 40
0.0
  0
LTYPE
  5
16
330
5
100
AcDbSymbolTableRecord
100
AcDbLinetypeTableRecord
  2
Continuous
 70
     0
  3
Solid line
 72
    65
 73
     0
 40
0.0
  0
ENDTAB
  0
TABLE
  2
LAYER
  5
2
330
0
100
AcDbSymbolTable
 70
     2
  0
LAYER
  5
10
330
2
100
AcDbSymbolTableRecord
100
AcDbLayerTableRecord
  2
0
 70
     0
 62
     7
  6
Continuous
370
    -3
390
F
347
3E
  0
LAYER
  5
40
330
2
100
AcDbSymbolTableRecord
100
AcDbLayerTableRecord
  2
Layer 1
 70
     0
 62
     7
  6
Continuous
370
    -3
390
F
347
3E
  0
ENDTAB
  0
TABLE
  2
STYLE
  5
3
330
0
100
AcDbSymbolTable
 70
     1
  0
STYLE
  5
11
330
3
100
AcDbSymbolTableRecord
100
AcDbTextStyleTableRecord
  2
Standard
 70
     0
 40
0.0
 41
1.0
 50
0.0
 71
     0
 42
0.2
  3
txt
  4

  0
ENDTAB
  0
TABLE
  2
VIEW
  5
6
330
0
100
AcDbSymbolTable
 70
     0
  0
ENDTAB
  0
TABLE
  2
UCS
  5
7
330
0
100
AcDbSymbolTable
 70
     0
  0
ENDTAB
  0
TABLE
  2
APPID
  5
9
330
0
100
AcDbSymbolTable
 70
     2
  0
APPID
  5
12
330
9
100
AcDbSymbolTableRecord
100
AcDbRegAppTableRecord
  2
ACAD
 70
     0
  0
APPID
  5
3F
330
9
100
AcDbSymbolTableRecord
100
AcDbRegAppTableRecord
  2
ODA
 70
     0
  0
ENDTAB
  0
TABLE
  2
DIMSTYLE
  5
A
330
0
100
AcDbSymbolTable
 70
     1
100
AcDbDimStyleTable
  0
DIMSTYLE
105
27
330
A
100
AcDbSymbolTableRecord
100
AcDbDimStyleTableRecord
  2
Standard
 70
     0
178
     0
340
11
  0
ENDTAB
  0
TABLE
  2
BLOCK_RECORD
  5
1
330
0
100
AcDbSymbolTable
 70
     1
  0
BLOCK_RECORD
  5
1F
330
1
100
AcDbSymbolTableRecord
100
AcDbBlockTableRecord
  2
*Model_Space
340
22
 70
     0
280
     1
281
     0
  0
BLOCK_RECORD
  5
1B
330
1
100
AcDbSymbolTableRecord
100
AcDbBlockTableRecord
  2
*Paper_Space
340
1E
 70
     0
280
     1
281
     0
  0
BLOCK_RECORD
  5
23
330
1
100
AcDbSymbolTableRecord
100
AcDbBlockTableRecord
  2
*Paper_Space0
340
26
 70
     0
280
     1
281
     0
  0
ENDTAB
  0
ENDSEC
  0
SECTION
  2
BLOCKS
  0
BLOCK
  5
20
330
1F
100
AcDbEntity
  8
0
100
AcDbBlockBegin
  2
*Model_Space
 70
     0
 10
0.0
 20
0.0
 30
0.0
  3
*Model_Space
  1

  0
ENDBLK
  5
21
330
1F
100
AcDbEntity
  8
0
100
AcDbBlockEnd
  0
BLOCK
  5
1C
330
1B
100
AcDbEntity
 67
     1
  8
0
100
AcDbBlockBegin
  2
*Paper_Space
 70
     0
 10
0.0
 20
0.0
 30
0.0
  3
*Paper_Space
  1

  0
ENDBLK
  5
1D
330
1B
100
AcDbEntity
 67
     1
  8
0
100
AcDbBlockEnd
  0
BLOCK
  5
24
330
23
100
AcDbEntity
  8
0
100
AcDbBlockBegin
  2
*Paper_Space0
 70
     0
 10
0.0
 20
0.0
 30
0.0
  3
*Paper_Space0
  1

  0
ENDBLK
  5
25
330
23
100
AcDbEntity
  8
0
100
AcDbBlockEnd
  0
ENDSEC
  0
SECTION
  2
ENTITIES
  0
SPLINE
  5
41
330
1F
100
AcDbEntity
  8
Layer 1
370
    53
100
AcDbSpline
210
0.0
220
0.0
230
1.0
 70
    11
 71
     3
 72
    20
 73
    16
 74
     0
 42
0.0000000001
 43
0.0000000001
 12
1.0
 22
0.0
 32
0.0
 13
1.0
 23
0.0
 33
0.0
 40
0.0
 40
0.0
 40
0.0
 40
0.0
 40
0.2
 40
0.2
 40
0.2
 40
0.2
 40
0.4
 40
0.4
 40
0.4
 40
0.4
 40
0.6
 40
0.6
 40
0.6
 40
0.6
 40
1.0
 40
1.0
 40
1.0
 40
1.0
 10
-10.32498
 20
-10.00004
 30
0.0
 10
-10.32498
 20
-9.82055
 30
0.0
 10
-10.17947
 20
-9.67504
 30
0.0
 10
-9.99998
 20
-9.67504
 30
0.0
 10
-9.99998
 20
-9.67504
 30
0.0
 10
-9.82049
 20
-9.67504
 30
0.0
 10
-9.67498
 20
-9.82055
 30
0.0
 10
-9.67498
 20
-10.00004
 30
0.0
 10
-9.67498
 20
-10.00004
 30
0.0
 10
-9.67498
 20
-10.17953
 30
0.0
 10
-9.82049
 20
-10.32504
 30
0.0
 10
-9.99998
 20
-10.32504
 30
0.0
 10
-9.99998
 20
-10.32504
 30
0.0
 10
-10.17947
 20
-10.32504
 30
0.0
 10
-10.32498
 20
-10.17953
 30
0.0
 10
-10.32498
 20
-10.00004
 30
0.0
  0
SPLINE
  5
42
330
1F
100
AcDbEntity
  8
Layer 1
370
    53
100
AcDbSpline
210
0.0
220
0.0
230
1.0
 70
    11
 71
     3
 72
    20
 73
    16
 74
     0
 42
0.0000000001
 43
0.0000000001
 12
1.0
 22
0.0
 32
0.0
 13
1.0
 23
0.0
 33
0.0
 40
0.0
 40
0.0
 40
0.0
 40
0.0
 40
0.2
 40
0.2
 40
0.2
 40
0.2
 40
0.4
 40
0.4
 40
0.4
 40
0.4
 40
0.6
 40
0.6
 40
0.6
 40
0.6
 40
1.0
 40
1.0
 40
1.0
 40
1.0
 10
-8.82498
 20
-10.00004
 30
0.0
 10
-8.82498
 20
-9.82055
 30
0.0
 10
-8.67947
 20
-9.67504
 30
0.0
 10
-8.49998
 20
-9.67504
 30
0.0
 10
-8.49998
 20
-9.67504
 30
0.0
 10
-8.32049
 20
-9.67504
 30
0.0
 10
-8.17498
 20
-9.82055
 30
0.0
 10
-8.17498
 20
-10.00004
 30
0.0
 10
-8.17498
 20
-10.00004
 30
0.0
 10
-8.17498
 20
-10.17953
 30
0.0
 10
-8.32049
 20
-10.32504
 30
0.0
 10
-8.49998
 20
-10.32504
 30
0.0
 10
-8.49998
 20
-10.32504
 30
0.0
 10
-8.67947
 20
-10.32504
 30
0.0
 10
-8.82498
 20
-10.17953
 30
0.0
 10
-8.82498
 20
-10.00004
 30
0.0
  0
SPLINE
  5
43
330
1F
100
AcDbEntity
  8
Layer 1
 62
     5
370
    53
100
AcDbSpline
210
0.0
220
0.0
230
1.0
 70
     8
 71
     3
 72
    36
 73
    32
 74
     0
 42
0.0000000001
 43
0.0000000001
 12
1.0
 22
0.0
 32
0.0
 13
1.0
 23
0.0
 33
0.0
 40
0.0
 40
0.0
 40
0.0
 40
0.0
 40
0.1111111111111111
 40
0.1111111111111111
 40
0.1111111111111111
 40
0.1111111111111111
 40
0.2222222222222222
 40
0.2222222222222222
 40
0.2222222222222222
 40
0.2222222222222222
 40
0.3333333333333333
 40
0.3333333333333333
 40
0.3333333333333333
 40
0.3333333333333333
 40
0.4444444444444444
 40
0.4444444444444444
 40
0.4444444444444444
 40
0.4444444444444444
 40
0.5555555555555556
 40
0.5555555555555556
 40
0.5555555555555556
 40
0.5555555555555556
 40
0.6666666666666666
 40
0.6666666666666666
 40
0.6666666666666666
 40
0.6666666666666666
 40
0.7777777777777778
 40
0.7777777777777778
 40
0.7777777777777778
 40
0.7777777777777778
 40
1.0
 40
1.0
 40
1.0
 40
1.0
 10
-7.77619
 20
-12.20329
 30
0.0
 10
-7.78604
 20
-12.29836
 30
0.0
 10
-7.80196
 20
-12.39449
 30
0.0
 10
-7.73555
 20
-12.5495
 30
0.0
 10
-7.73555
 20
-12.5495
 30
0.0
 10
-7.62202
 20
-12.81449
 30
0.0
 10
-7.33715
 20
-13.00531
 30
0.0
 10
-7.09043
 20
-13.13303
 30
0.0
 10
-7.09043
 20
-13.13303
 30
0.0
 10
-6.7646
 20
-13.30167
 30
0.0
 10
-6.25742
 20
-13.50078
 30
0.0
 10
-6.15896
 20
-13.89595
 30
0.0
 10
-6.15896
 20
-13.89595
 30
0.0
 10
-6.06026
 20
-14.29238
 30
0.0
 10
-6.10555
 20
-14.99531
 30
0.0
 10
-6.65076
 20
-15.00751
 30
0.0
 10
-6.65076
 20
-15.00751
 30
0.0
 10
-6.81352
 20
-15.01112
 30
0.0
 10
-7.05417
 20
-14.8514
 30
0.0
 10
-7.10631
 20
-14.68862
 30
0.0
 10
-7.10631
 20
-14.68862
 30
0.0
 10
-7.15008
 20
-14.55188
 30
0.0
 10
-7.03981
 20
-14.2772
 30
0.0
 10
-6.86987
 20
-14.28641
 30
0.0
 10
-6.86987
 20
-14.28641
 30
0.0
 10
-6.84104
 20
-14.28797
 30
0.0
 10
-6.81691
 20
-14.31054
 30
0.0
 10
-6.78763
 20
-14.32189
 30
0.0
 10
-6.78763
 20
-14.32189
 30
0.0
 10
-6.77007
 20
-14.32869
 30
0.0
 10
-6.74681
 20
-14.32767
 30
0.0
 10
-6.73029
 20
-14.32631
 30
0.0
  0
SPLINE
  5
44
330
1F
100
AcDbEntity
  8
Layer 1
 62
     5
370
    53
100
AcDbSpline
210
0.0
220
0.0
230
1.0
 70
     8
 71
     3
 72
    32
 73
    28
 74
     0
 42
0.0000000001
 43
0.0000000001
 12
1.0
 22
0.0
 32
0.0
 13
1.0
 23
0.0
 33
0.0
 40
0.0
 40
0.0
 40
0.0
 40
0.0
 40
0.125
 40
0.125
 40
0.125
 40
0.125
 40
0.25
 40
0.25
 40
0.25
 40
0.25
 40
0.375
 40
0.375
 40
0.375
 40
0.375
 40
0.5
 40
0.5
 40
0.5
 40
0.5
 40
0.625
 40
0.625
 40
0.625
 40
0.625
 40
0.75
 40
0.75
 40
0.75
 40
0.75
 40
1.0
 40
1.0
 40
1.0
 40
1.0
 10
-9.69918
 20
-11.99105
 30
0.0
 10
-9.69083
 20
-12.16385
 30
0.0
 10
-9.7743
 20
-12.35713
 30
0.0
 10
-9.78238
 20
-12.51805
 30
0.0
 10
-9.78238
 20
-12.51805
 30
0.0
 10
-9.79375
 20
-12.74468
 30
0.0
 10
-9.7661
 20
-12.99246
 30
0.0
 10
-9.60081
 20
-13.16331
 30
0.0
 10
-9.60081
 20
-13.16331
 30
0.0
 10
-9.34057
 20
-13.43228
 30
0.0
 10
-9.01183
 20
-13.52274
 30
0.0
 10
-8.87582
 20
-13.90272
 30
0.0
 10
-8.87582
 20
-13.90272
 30
0.0
 10
-8.77257
 20
-14.19105
 30
0.0
 10
-8.77477
 20
-14.65345
 30
0.0
 10
-9.10666
 20
-14.79806
 30
0.0
 10
-9.10666
 20
-14.79806
 30
0.0
 10
-9.38
 20
-14.91716
 30
0.0
 10
-9.60283
 20
-14.69631
 30
0.0
 10
-9.63453
 20
-14.43615
 30
0.0
 10
-9.63453
 20
-14.43615
 30
0.0
 10
-9.66197
 20
-14.21089
 30
0.0
 10
-9.50594
 20
-14.21105
 30
0.0
 10
-9.30928
 20
-14.3158
 30
0.0
 10
-9.30928
 20
-14.3158
 30
0.0
 10
-9.29224
 20
-14.32488
 30
0.0
 10
-9.2774
 20
-14.34077
 30
0.0
 10
-9.26285
 20
-14.35634
 30
0.0
  0
SPLINE
  5
45
330
1F
100
AcDbEntity
  8
Layer 1
 62
     5
370
    53
100
AcDbSpline
210
0.0
220
0.0
230
1.0
 70
     8
 71
     3
 72
    40
 73
    36
 74
     0
 42
0.0000000001
 43
0.0000000001
 12
1.0
 22
0.0
 32
0.0
 13
1.0
 23
0.0
 33
0.0
 40
0.0
 40
0.0
 40
0.0
 40
0.0
 40
0.1
 40
0.1
 40
0.1
 40
0.1
 40
0.2
 40
0.2
 40
0.2
 40
0.2
 40
0.3
 40
0.3
 40
0.3
 40
0.3
 40
0.4
 40
0.4
 40
0.4
 40
0.4
 40
0.5
 40
0.5
 40
0.5
 40
0.5
 40
0.6
 40
0.6
 40
0.6
 40
0.6
 40
0.7
 40
0.7
 40
0.7
 40
0.7
 40
0.8
 40
0.8
 40
0.8
 40
0.8
 40
1.0
 40
1.0
 40
1.0
 40
1.0
 10
-11.52387
 20
-14.18247
 30
0.0
 10
-11.54151
 20
-14.16493
 30
0.0
 10
-11.55594
 20
-14.14477
 30
0.0
 10
-11.56386
 20
-14.12175
 30
0.0
 10
-11.56386
 20
-14.12175
 30
0.0
 10
-11.59004
 20
-14.04571
 30
0.0
 10
-11.49638
 20
-13.97049
 30
0.0
 10
-11.42846
 20
-13.94753
 30
0.0
 10
-11.42846
 20
-13.94753
 30
0.0
 10
-11.32365
 20
-13.91213
 30
0.0
 10
-11.22721
 20
-13.98158
 30
0.0
 10
-11.17045
 20
-14.06529
 30
0.0
 10
-11.17045
 20
-14.06529
 30
0.0
 10
-10.90887
 20
-14.45114
 30
0.0
 10
-11.21496
 20
-14.91486
 30
0.0
 10
-11.64354
 20
-14.90826
 30
0.0
 10
-11.64354
 20
-14.90826
 30
0.0
 10
-12.30978
 20
-14.89799
 30
0.0
 10
-12.23525
 20
-14.1101
 30
0.0
 10
-11.92121
 20
-13.73015
 30
0.0
 10
-11.92121
 20
-13.73015
 30
0.0
 10
-11.78959
 20
-13.57091
 30
0.0
 10
-11.62239
 20
-13.49766
 30
0.0
 10
-11.43343
 20
-13.42794
 30
0.0
 10
-11.43343
 20
-13.42794
 30
0.0
 10
-11.17596
 20
-13.33302
 30
0.0
 10
-10.90521
 20
-13.13866
 30
0.0
 10
-10.75991
 20
-12.90291
 30
0.0
 10
-10.75991
 20
-12.90291
 30
0.0
 10
-10.67262
 20
-12.76129
 30
0.0
 10
-10.63172
 20
-12.59456
 30
0.0
 10
-10.63947
 20
-12.42876
 30
0.0
 10
-10.63947
 20
-12.42876
 30
0.0
 10
-10.64741
 20
-12.2592
 30
0.0
 10
-10.73099
 20
-12.25051
 30
0.0
 10
-10.69071
 20
-12.08101
 30
0.0
  0
SPLINE
  5
46
330
1F
100
AcDbEntity
  8
Layer 1
 62
     5
370
    53
100
AcDbSpline
210
0.0
220
0.0
230
1.0
 70
     8
 71
     3
 72
    28
 73
    24
 74
     0
 42
0.0000000001
 43
0.0000000001
 12
1.0
 22
0.0
 32
0.0
 13
1.0
 23
0.0
 33
0.0
 40
0.0
 40
0.0
 40
0.0
 40
0.0
 40
0.1428571428571428
 40
0.1428571428571428
 40
0.1428571428571428
 40
0.1428571428571428
 40
0.2857142857142857
 40
0.2857142857142857
 40
0.2857142857142857
 40
0.2857142857142857
 40
0.4285714285714285
 40
0.4285714285714285
 40
0.4285714285714285
 40
0.4285714285714285
 40
0.5714285714285714
 40
0.5714285714285714
 40
0.5714285714285714
 40
0.5714285714285714
 40
0.7142857142857143
 40
0.7142857142857143
 40
0.7142857142857143
 40
0.7142857142857143
 40
1.0
 40
1.0
 40
1.0
 40
1.0
 10
-13.91168
 20
-14.52607
 30
0.0
 10
-13.86996
 20
-14.51127
 30
0.0
 10
-13.82623
 20
-14.48058
 30
0.0
 10
-13.78941
 20
-14.47476
 30
0.0
 10
-13.78941
 20
-14.47476
 30
0.0
 10
-13.6188
 20
-14.4478
 30
0.0
 10
-13.51893
 20
-14.5965
 30
0.0
 10
-13.60042
 20
-14.74559
 30
0.0
 10
-13.60042
 20
-14.74559
 30
0.0
 10
-13.66101
 20
-14.85641
 30
0.0
 10
-13.83246
 20
-14.92878
 30
0.0
 10
-13.9484
 20
-14.96088
 30
0.0
 10
-13.9484
 20
-14.96088
 30
0.0
 10
-14.21545
 20
-15.03477
 30
0.0
 10
-14.49774
 20
-14.9445
 30
0.0
 10
-14.53125
 20
-14.63761
 30
0.0
 10
-14.53125
 20
-14.63761
 30
0.0
 10
-14.58006
 20
-14.1909
 30
0.0
 10
-14.17462
 20
-13.98016
 30
0.0
 10
-13.84759
 20
-13.77978
 30
0.0
 10
-13.84759
 20
-13.77978
 30
0.0
 10
-13.26942
 20
-13.42527
 30
0.0
 10
-13.07328
 20
-12.72275
 30
0.0
 10
-12.70142
 20
-12.18748
 30
0.0
  0
SPLINE
  5
47
330
1F
100
AcDbEntity
  8
Layer 1
370
    53
100
AcDbSpline
210
0.0
220
0.0
230
1.0
 70
    24
 71
     3
 72
     8
 73
     4
 74
     0
 42
0.0000000001
 43
0.0000000001
 12
1.0
 22
0.0
 32
0.0
 13
1.0
 23
0.0
 33
0.0
 40
0.0
 40
0.0
 40
0.0
 40
0.0
 40
1.0
 40
1.0
 40
1.0
 40
1.0
 10
-6.62885
 20
-14.99025
 30
0.0
 10
-6.62885
 20
-14.99025
 30
0.0
 10
-6.62885
 20
-14.97452
 30
0.0
 10
-6.62885
 20
-14.97452
 30
0.0
  0
SPLINE
  5
48
330
1F
100
AcDbEntity
  8
Layer 1
370
    53
100
AcDbSpline
210
0.0
220
0.0
230
1.0
 70
    27
 71
     3
 72
     8
 73
     4
 74
     0
 42
0.0000000001
 43
0.0000000001
 12
1.0
 22
0.0
 32
0.0
 13
1.0
 23
0.0
 33
0.0
 40
0.0
 40
0.0
 40
0.0
 40
0.0
 40
1.0
 40
1.0
 40
1.0
 40
1.0
 10
-10.83633
 20
-13.00974
 30
0.0
 10
-10.83633
 20
-13.00974
 30
0.0
 10
-10.83633
 20
-13.00974
 30
0.0
 10
-10.83633
 20
-13.00974
 30
0.0
  0
SPLINE
  5
49
330
1F
100
AcDbEntity
  8
Layer 1
370
    53
100
AcDbSpline
210
0.0
220
0.0
230
1.0
 70
     8
 71
     3
 72
    12
 73
     8
 74
     0
 42
0.0000000001
 43
0.0000000001
 12
1.0
 22
0.0
 32
0.0
 13
1.0
 23
0.0
 33
0.0
 40
0.0
 40
0.0
 40
0.0
 40
0.0
 40
0.3333333333333333
 40
0.3333333333333333
 40
0.3333333333333333
 40
0.3333333333333333
 40
1.0
 40
1.0
 40
1.0
 40
1.0
 10
-10.82692
 20
-13.02543
 30
0.0
 10
-10.76667
 20
-13.07841
 30
0.0
 10
-10.7274
 20
-13.04572
 30
0.0
 10
-10.69513
 20
-12.97926
 30
0.0
 10
-10.69513
 20
-12.97926
 30
0.0
 10
-10.67049
 20
-12.9285
 30
0.0
 10
-10.68786
 20
-12.8878
 30
0.0
 10
-10.73846
 20
-12.86589
 30
0.0
  0
SPLINE
  5
4A
330
1F
100
AcDbEntity
  8
Layer 1
370
    53
100
AcDbSpline
210
0.0
220
0.0
230
1.0
 70
    11
 71
     3
 72
  1804
 73
  1800
 74
     0
 42
0.0000000001
 43
0.0000000001
 12
1.0
 22
0.0
 32
0.0
 13
1.0
 23
0.0
 33
0.0
 40
0.0
 40
0.0
 40
0.0
 40
0.0
 40
0.0022172949002217
 40
0.0022172949002217
 40
0.0022172949002217
 40
0.0022172949002217
 40
0.0044345898004435
 40
0.0044345898004435
 40
0.0044345898004435
 40
0.0044345898004435
 40
0.0066518847006652
 40
0.0066518847006652
 40
0.0066518847006652
 40
0.0066518847006652
 40
0.0088691796008869
 40
0.0088691796008869
 40
0.0088691796008869
 40
0.0088691796008869
 40
0.0110864745011086
 40
0.0110864745011086
 40
0.0110864745011086
 40
0.0110864745011086
 40
0.0133037694013304
 40
0.0133037694013304
 40
0.0133037694013304
 40
0.0133037694013304
 40
0.0155210643015521
 40
0.0155210643015521
 40
0.0155210643015521
 40
0.0155210643015521
 40
0.0177383592017738
 40
0.0177383592017738
 40
0.0177383592017738
 40
0.0177383592017738
 40
0.0199556541019956
 40
0.0199556541019956
 40
0.0199556541019956
 40
0.0199556541019956
 40
0.0221729490022173
 40
0.0221729490022173
 40
0.0221729490022173
 40
0.0221729490022173
 40
0.024390243902439
 40
0.024390243902439
 40
0.024390243902439
 40
0.024390243902439
 40
0.0266075388026608
 40
0.0266075388026608
 40
0.0266075388026608
 40
0.0266075388026608
 40
0.0288248337028825
 40
0.0288248337028825
 40
0.0288248337028825
 40
0.0288248337028825
 40
0.0310421286031042
 40
0.0310421286031042
 40
0.0310421286031042
 40
0.0310421286031042
 40
0.0332594235033259
 40
0.0332594235033259
 40
0.0332594235033259
 40
0.0332594235033259
 40
0.0354767184035477
 40
0.0354767184035477
 40
0.0354767184035477
 40
0.0354767184035477
 40
0.0376940133037694
 40
0.0376940133037694
 40
0.0376940133037694
 40
0.0376940133037694
 40
0.0399113082039911
 40
0.0399113082039911
 40
0.0399113082039911
 40
0.0399113082039911
 40
0.0421286031042129
 40
0.0421286031042129
 40
0.0421286031042129
 40
0.0421286031042129
 40
0.0443458980044346
 40
0.0443458980044346
 40
0.0443458980044346
 40
0.0443458980044346
 40
0.0465631929046563
 40
0.0465631929046563
 40
0.0465631929046563
 40
0.0465631929046563
 40
0.0487804878048781
 40
0.0487804878048781
 40
0.0487804878048781
 40
0.0487804878048781
 40
0.0509977827050998
 40
0.0509977827050998
 40
0.0509977827050998
 40
0.0509977827050998
 40
0.0532150776053215
 40
0.0532150776053215
 40
0.0532150776053215
 40
0.0532150776053215
 40
0.0554323725055432
 40
0.0554323725055432
 40
0.0554323725055432
 40
0.0554323725055432
 40
0.057649667405765
 40
0.057649667405765
 40
0.057649667405765
 40
0.057649667405765
 40
0.0598669623059867
 40
0.0598669623059867
 40
0.0598669623059867
 40
0.0598669623059867
 40
0.0620842572062084
 40
0.0620842572062084
 40
0.0620842572062084
 40
0.0620842572062084
 40
0.0643015521064302
 40
0.0643015521064302
 40
0.0643015521064302
 40
0.0643015521064302
 40
0.0665188470066519
 40
0.0665188470066519
 40
0.0665188470066519
 40
0.0665188470066519
 40
0.0687361419068736
 40
0.0687361419068736
 40
0.0687361419068736
 40
0.0687361419068736
 40
0.0709534368070953
 40
0.0709534368070953
 40
0.0709534368070953
 40
0.0709534368070953
 40
0.0731707317073171
 40
0.0731707317073171
 40
0.0731707317073171
 40
0.0731707317073171
 40
0.0753880266075388
 40
0.0753880266075388
 40
0.0753880266075388
 40
0.0753880266075388
 40
0.0776053215077605
 40
0.0776053215077605
 40
0.0776053215077605
 40
0.0776053215077605
 40
0.0798226164079823
 40
0.0798226164079823
 40
0.0798226164079823
 40
0.0798226164079823
 40
0.082039911308204
 40
0.082039911308204
 40
0.082039911308204
 40
0.082039911308204
 40
0.0842572062084257
 40
0.0842572062084257
 40
0.0842572062084257
 40
0.0842572062084257
 40
0.0864745011086474
 40
0.0864745011086474
 40
0.0864745011086474
 40
0.0864745011086474
 40
0.0886917960088692
 40
0.0886917960088692
 40
0.0886917960088692
 40
0.0886917960088692
 40
0.0909090909090909
 40
0.0909090909090909
 40
0.0909090909090909
 40
0.0909090909090909
 40
0.0931263858093126
 40
0.0931263858093126
 40
0.0931263858093126
 40
0.0931263858093126
 40
0.0953436807095344
 40
0.0953436807095344
 40
0.0953436807095344
 40
0.0953436807095344
 40
0.0975609756097561
 40
0.0975609756097561
 40
0.0975609756097561
 40
0.0975609756097561
 40
0.0997782705099778
 40
0.0997782705099778
 40
0.0997782705099778
 40
0.0997782705099778
 40
0.1019955654101996
 40
0.1019955654101996
 40
0.1019955654101996
 40
0.1019955654101996
 40
0.1042128603104213
 40
0.1042128603104213
 40
0.1042128603104213
 40
0.1042128603104213
 40
0.106430155210643
 40
0.106430155210643
 40
0.106430155210643
 40
0.106430155210643
 40
0.1086474501108647
 40
0.1086474501108647
 40
0.1086474501108647
 40
0.1086474501108647
 40
0.1108647450110865
 40
0.1108647450110865
 40
0.1108647450110865
 40
0.1108647450110865
 40
0.1130820399113082
 40
0.1130820399113082
 40
0.1130820399113082
 40
0.1130820399113082
 40
0.1152993348115299
 40
0.1152993348115299
 40
0.1152993348115299
 40
0.1152993348115299
 40
0.1175166297117517
 40
0.1175166297117517
 40
0.1175166297117517
 40
0.1175166297117517
 40
0.1197339246119734
 40
0.1197339246119734
 40
0.1197339246119734
 40
0.1197339246119734
 40
0.1219512195121951
 40
0.1219512195121951
 40
0.1219512195121951
 40
0.1219512195121951
 40
0.1241685144124169
 40
0.1241685144124169
 40
0.1241685144124169
 40
0.1241685144124169
 40
0.1263858093126386
 40
0.1263858093126386
 40
0.1263858093126386
 40
0.1263858093126386
 40
0.1286031042128603
 40
0.1286031042128603
 40
0.1286031042128603
 40
0.1286031042128603
 40
0.130820399113082
 40
0.130820399113082
 40
0.130820399113082
 40
0.130820399113082
 40
0.1330376940133038
 40
0.1330376940133038
 40
0.1330376940133038
 40
0.1330376940133038
 40
0.1352549889135255
 40
0.1352549889135255
 40
0.1352549889135255
 40
0.1352549889135255
 40
0.1374722838137472
 40
0.1374722838137472
 40
0.1374722838137472
 40
0.1374722838137472
 40
0.1396895787139689
 40
0.1396895787139689
 40
0.1396895787139689
 40
0.1396895787139689
 40
0.1419068736141907
 40
0.1419068736141907
 40
0.1419068736141907
 40
0.1419068736141907
 40
0.1441241685144124
 40
0.1441241685144124
 40
0.1441241685144124
 40
0.1441241685144124
 40
0.1463414634146341
 40
0.1463414634146341
 40
0.1463414634146341
 40
0.1463414634146341
 40
0.1485587583148559
 40
0.1485587583148559
 40
0.1485587583148559
 40
0.1485587583148559
 40
0.1507760532150776
 40
0.1507760532150776
 40
0.1507760532150776
 40
0.1507760532150776
 40
0.1529933481152993
 40
0.1529933481152993
 40
0.1529933481152993
 40
0.1529933481152993
 40
0.1552106430155211
 40
0.1552106430155211
 40
0.1552106430155211
 40
0.1552106430155211
 40
0.1574279379157428
 40
0.1574279379157428
 40
0.1574279379157428
 40
0.1574279379157428
 40
0.1596452328159645
 40
0.1596452328159645
 40
0.1596452328159645
 40
0.1596452328159645
 40
0.1618625277161863
 40
0.1618625277161863
 40
0.1618625277161863
 40
0.1618625277161863
 40
0.164079822616408
 40
0.164079822616408
 40
0.164079822616408
 40
0.164079822616408
 40
0.1662971175166297
 40
0.1662971175166297
 40
0.1662971175166297
 40
0.1662971175166297
 40
0.1685144124168514
 40
0.1685144124168514
 40
0.1685144124168514
 40
0.1685144124168514
 40
0.1707317073170732
 40
0.1707317073170732
 40
0.1707317073170732
 40
0.1707317073170732
 40
0.1729490022172949
 40
0.1729490022172949
 40
0.1729490022172949
 40
0.1729490022172949
 40
0.1751662971175166
 40
0.1751662971175166
 40
0.1751662971175166
 40
0.1751662971175166
 40
0.1773835920177384
 40
0.1773835920177384
 40
0.1773835920177384
 40
0.1773835920177384
 40
0.1796008869179601
 40
0.1796008869179601
 40
0.1796008869179601
 40
0.1796008869179601
 40
0.1818181818181818
 40
0.1818181818181818
 40
0.1818181818181818
 40
0.1818181818181818
 40
0.1840354767184035
 40
0.1840354767184035
 40
0.1840354767184035
 40
0.1840354767184035
 40
0.1862527716186253
 40
0.1862527716186253
 40
0.1862527716186253
 40
0.1862527716186253
 40
0.188470066518847
 40
0.188470066518847
 40
0.188470066518847
 40
0.188470066518847
 40
0.1906873614190687
 40
0.1906873614190687
 40
0.1906873614190687
 40
0.1906873614190687
 40
0.1929046563192905
 40
0.1929046563192905
 40
0.1929046563192905
 40
0.1929046563192905
 40
0.1951219512195122
 40
0.1951219512195122
 40
0.1951219512195122
 40
0.1951219512195122
 40
0.1973392461197339
 40
0.1973392461197339
 40
0.1973392461197339
 40
0.1973392461197339
 40
0.1995565410199557
 40
0.1995565410199557
 40
0.1995565410199557
 40
0.1995565410199557
 40
0.2017738359201774
 40
0.2017738359201774
 40
0.2017738359201774
 40
0.2017738359201774
 40
0.2039911308203991
 40
0.2039911308203991
 40
0.2039911308203991
 40
0.2039911308203991
 40
0.2062084257206208
 40
0.2062084257206208
 40
0.2062084257206208
 40
0.2062084257206208
 40
0.2084257206208426
 40
0.2084257206208426
 40
0.2084257206208426
 40
0.2084257206208426
 40
0.2106430155210643
 40
0.2106430155210643
 40
0.2106430155210643
 40
0.2106430155210643
 40
0.212860310421286
 40
0.212860310421286
 40
0.212860310421286
 40
0.212860310421286
 40
0.2150776053215078
 40
0.2150776053215078
 40
0.2150776053215078
 40
0.2150776053215078
 40
0.2172949002217295
 40
0.2172949002217295
 40
0.2172949002217295
 40
0.2172949002217295
 40
0.2195121951219512
 40
0.2195121951219512
 40
0.2195121951219512
 40
0.2195121951219512
 40
0.221729490022173
 40
0.221729490022173
 40
0.221729490022173
 40
0.221729490022173
 40
0.2239467849223947
 40
0.2239467849223947
 40
0.2239467849223947
 40
0.2239467849223947
 40
0.2261640798226164
 40
0.2261640798226164
 40
0.2261640798226164
 40
0.2261640798226164
 40
0.2283813747228381
 40
0.2283813747228381
 40
0.2283813747228381
 40
0.2283813747228381
 40
0.2305986696230599
 40
0.2305986696230599
 40
0.2305986696230599
 40
0.2305986696230599
 40
0.2328159645232816
 40
0.2328159645232816
 40
0.2328159645232816
 40
0.2328159645232816
 40
0.2350332594235033
 40
0.2350332594235033
 40
0.2350332594235033
 40
0.2350332594235033
 40
0.237250554323725
 40
0.237250554323725
 40
0.237250554323725
 40
0.237250554323725
 40
0.2394678492239468
 40
0.2394678492239468
 40
0.2394678492239468
 40
0.2394678492239468
 40
0.2416851441241685
 40
0.2416851441241685
 40
0.2416851441241685
 40
0.2416851441241685
 40
0.2439024390243902
 40
0.2439024390243902
 40
0.2439024390243902
 40
0.2439024390243902
 40
0.246119733924612
 40
0.246119733924612
 40
0.246119733924612
 40
0.246119733924612
 40
0.2483370288248337
 40
0.2483370288248337
 40
0.2483370288248337
 40
0.2483370288248337
 40
0.2505543237250554
 40
0.2505543237250554
 40
0.2505543237250554
 40
0.2505543237250554
 40
0.2527716186252771
 40
0.2527716186252771
 40
0.2527716186252771
 40
0.2527716186252771
 40
0.2549889135254989
 40
0.2549889135254989
 40
0.2549889135254989
 40
0.2549889135254989
 40
0.2572062084257206
 40
0.2572062084257206
 40
0.2572062084257206
 40
0.2572062084257206
 40
0.2594235033259423
 40
0.2594235033259423
 40
0.2594235033259423
 40
0.2594235033259423
 40
0.2616407982261641
 40
0.2616407982261641
 40
0.2616407982261641
 40
0.2616407982261641
 40
0.2638580931263858
 40
0.2638580931263858
 40
0.2638580931263858
 40
0.2638580931263858
 40
0.2660753880266075
 40
0.2660753880266075
 40
0.2660753880266075
 40
0.2660753880266075
 40
0.2682926829268293
 40
0.2682926829268293
 40
0.2682926829268293
 40
0.2682926829268293
 40
0.270509977827051
 40
0.270509977827051
 40
0.270509977827051
 40
0.270509977827051
 40
0.2727272727272727
 40
0.2727272727272727
 40
0.2727272727272727
 40
0.2727272727272727
 40
0.2749445676274945
 40
0.2749445676274945
 40
0.2749445676274945
 40
0.2749445676274945
 40
0.2771618625277162
 40
0.2771618625277162
 40
0.2771618625277162
 40
0.2771618625277162
 40
0.2793791574279379
 40
0.2793791574279379
 40
0.2793791574279379
 40
0.2793791574279379
 40
0.2815964523281597
 40
0.2815964523281597
 40
0.2815964523281597
 40
0.2815964523281597
 40
0.2838137472283814
 40
0.2838137472283814
 40
0.2838137472283814
 40
0.2838137472283814
 40
0.2860310421286031
 40
0.2860310421286031
 40
0.2860310421286031
 40
0.2860310421286031
 40
0.2882483370288249
 40
0.2882483370288249
 40
0.2882483370288249
 40
0.2882483370288249
 40
0.2904656319290466
 40
0.2904656319290466
 40
0.2904656319290466
 40
0.2904656319290466
 40
0.2926829268292683
 40
0.2926829268292683
 40
0.2926829268292683
 40
0.2926829268292683
 40
0.29490022172949
 40
0.29490022172949
 40
0.29490022172949
 40
0.29490022172949
 40
0.2971175166297118
 40
0.2971175166297118
 40
0.2971175166297118
 40
0.2971175166297118
 40
0.2993348115299335
 40
0.2993348115299335
 40
0.2993348115299335
 40
0.2993348115299335
 40
0.3015521064301552
 40
0.3015521064301552
 40
0.3015521064301552
 40
0.3015521064301552
 40
0.3037694013303769
 40
0.3037694013303769
 40
0.3037694013303769
 40
0.3037694013303769
 40
0.3059866962305987
 40
0.3059866962305987
 40
0.3059866962305987
 40
0.3059866962305987
 40
0.3082039911308204
 40
0.3082039911308204
 40
0.3082039911308204
 40
0.3082039911308204
 40
0.3104212860310421
 40
0.3104212860310421
 40
0.3104212860310421
 40
0.3104212860310421
 40
0.3126385809312638
 40
0.3126385809312638
 40
0.3126385809312638
 40
0.3126385809312638
 40
0.3148558758314856
 40
0.3148558758314856
 40
0.3148558758314856
 40
0.3148558758314856
 40
0.3170731707317073
 40
0.3170731707317073
 40
0.3170731707317073
 40
0.3170731707317073
 40
0.319290465631929
 40
0.319290465631929
 40
0.319290465631929
 40
0.319290465631929
 40
0.3215077605321508
 40
0.3215077605321508
 40
0.3215077605321508
 40
0.3215077605321508
 40
0.3237250554323725
 40
0.3237250554323725
 40
0.3237250554323725
 40
0.3237250554323725
 40
0.3259423503325942
 40
0.3259423503325942
 40
0.3259423503325942
 40
0.3259423503325942
 40
0.328159645232816
 40
0.328159645232816
 40
0.328159645232816
 40
0.328159645232816
 40
0.3303769401330377
 40
0.3303769401330377
 40
0.3303769401330377
 40
0.3303769401330377
 40
0.3325942350332594
 40
0.3325942350332594
 40
0.3325942350332594
 40
0.3325942350332594
 40
0.3348115299334812
 40
0.3348115299334812
 40
0.3348115299334812
 40
0.3348115299334812
 40
0.3370288248337029
 40
0.3370288248337029
 40
0.3370288248337029
 40
0.3370288248337029
 40
0.3392461197339246
 40
0.3392461197339246
 40
0.3392461197339246
 40
0.3392461197339246
 40
0.3414634146341464
 40
0.3414634146341464
 40
0.3414634146341464
 40
0.3414634146341464
 40
0.3436807095343681
 40
0.3436807095343681
 40
0.3436807095343681
 40
0.3436807095343681
 40
0.3458980044345898
 40
0.3458980044345898
 40
0.3458980044345898
 40
0.3458980044345898
 40
0.3481152993348116
 40
0.3481152993348116
 40
0.3481152993348116
 40
0.3481152993348116
 40
0.3503325942350333
 40
0.3503325942350333
 40
0.3503325942350333
 40
0.3503325942350333
 40
0.352549889135255
 40
0.352549889135255
 40
0.352549889135255
 40
0.352549889135255
 40
0.3547671840354767
 40
0.3547671840354767
 40
0.3547671840354767
 40
0.3547671840354767
 40
0.3569844789356985
 40
0.3569844789356985
 40
0.3569844789356985
 40
0.3569844789356985
 40
0.3592017738359202
 40
0.3592017738359202
 40
0.3592017738359202
 40
0.3592017738359202
 40
0.3614190687361419
 40
0.3614190687361419
 40
0.3614190687361419
 40
0.3614190687361419
 40
0.3636363636363636
 40
0.3636363636363636
 40
0.3636363636363636
 40
0.3636363636363636
 40
0.3658536585365854
 40
0.3658536585365854
 40
0.3658536585365854
 40
0.3658536585365854
 40
0.3680709534368071
 40
0.3680709534368071
 40
0.3680709534368071
 40
0.3680709534368071
 40
0.3702882483370288
 40
0.3702882483370288
 40
0.3702882483370288
 40
0.3702882483370288
 40
0.3725055432372505
 40
0.3725055432372505
 40
0.3725055432372505
 40
0.3725055432372505
 40
0.3747228381374723
 40
0.3747228381374723
 40
0.3747228381374723
 40
0.3747228381374723
 40
0.376940133037694
 40
0.376940133037694
 40
0.376940133037694
 40
0.376940133037694
 40
0.3791574279379157
 40
0.3791574279379157
 40
0.3791574279379157
 40
0.3791574279379157
 40
0.3813747228381374
 40
0.3813747228381374
 40
0.3813747228381374
 40
0.3813747228381374
 40
0.3835920177383592
 40
0.3835920177383592
 40
0.3835920177383592
 40
0.3835920177383592
 40
0.3858093126385809
 40
0.3858093126385809
 40
0.3858093126385809
 40
0.3858093126385809
 40
0.3880266075388026
 40
0.3880266075388026
 40
0.3880266075388026
 40
0.3880266075388026
 40
0.3902439024390244
 40
0.3902439024390244
 40
0.3902439024390244
 40
0.3902439024390244
 40
0.3924611973392461
 40
0.3924611973392461
 40
0.3924611973392461
 40
0.3924611973392461
 40
0.3946784922394678
 40
0.3946784922394678
 40
0.3946784922394678
 40
0.3946784922394678
 40
0.3968957871396896
 40
0.3968957871396896
 40
0.3968957871396896
 40
0.3968957871396896
 40
0.3991130820399113
 40
0.3991130820399113
 40
0.3991130820399113
 40
0.3991130820399113
 40
0.401330376940133
 40
0.401330376940133
 40
0.401330376940133
 40
0.401330376940133
 40
0.4035476718403548
 40
0.4035476718403548
 40
0.4035476718403548
 40
0.4035476718403548
 40
0.4057649667405765
 40
0.4057649667405765
 40
0.4057649667405765
 40
0.4057649667405765
 40
0.4079822616407982
 40
0.4079822616407982
 40
0.4079822616407982
 40
0.4079822616407982
 40
0.41019955654102
 40
0.41019955654102
 40
0.41019955654102
 40
0.41019955654102
 40
0.4124168514412417
 40
0.4124168514412417
 40
0.4124168514412417
 40
0.4124168514412417
 40
0.4146341463414634
 40
0.4146341463414634
 40
0.4146341463414634
 40
0.4146341463414634
 40
0.4168514412416852
 40
0.4168514412416852
 40
0.4168514412416852
 40
0.4168514412416852
 40
0.4190687361419069
 40
0.4190687361419069
 40
0.4190687361419069
 40
0.4190687361419069
 40
0.4212860310421286
 40
0.4212860310421286
 40
0.4212860310421286
 40
0.4212860310421286
 40
0.4235033259423504
 40
0.4235033259423504
 40
0.4235033259423504
 40
0.4235033259423504
 40
0.4257206208425721
 40
0.4257206208425721
 40
0.4257206208425721
 40
0.4257206208425721
 40
0.4279379157427938
 40
0.4279379157427938
 40
0.4279379157427938
 40
0.4279379157427938
 40
0.4301552106430155
 40
0.4301552106430155
 40
0.4301552106430155
 40
0.4301552106430155
 40
0.4323725055432373
 40
0.4323725055432373
 40
0.4323725055432373
 40
0.4323725055432373
 40
0.434589800443459
 40
0.434589800443459
 40
0.434589800443459
 40
0.434589800443459
 40
0.4368070953436807
 40
0.4368070953436807
 40
0.4368070953436807
 40
0.4368070953436807
 40
0.4390243902439024
 40
0.4390243902439024
 40
0.4390243902439024
 40
0.4390243902439024
 40
0.4412416851441242
 40
0.4412416851441242
 40
0.4412416851441242
 40
0.4412416851441242
 40
0.4434589800443459
 40
0.4434589800443459
 40
0.4434589800443459
 40
0.4434589800443459
 40
0.4456762749445676
 40
0.4456762749445676
 40
0.4456762749445676
 40
0.4456762749445676
 40
0.4478935698447893
 40
0.4478935698447893
 40
0.4478935698447893
 40
0.4478935698447893
 40
0.4501108647450111
 40
0.4501108647450111
 40
0.4501108647450111
 40
0.4501108647450111
 40
0.4523281596452328
 40
0.4523281596452328
 40
0.4523281596452328
 40
0.4523281596452328
 40
0.4545454545454545
 40
0.4545454545454545
 40
0.4545454545454545
 40
0.4545454545454545
 40
0.4567627494456763
 40
0.4567627494456763
 40
0.4567627494456763
 40
0.4567627494456763
 40
0.458980044345898
 40
0.458980044345898
 40
0.458980044345898
 40
0.458980044345898
 40
0.4611973392461197
 40
0.4611973392461197
 40
0.4611973392461197
 40
0.4611973392461197
 40
0.4634146341463415
 40
0.4634146341463415
 40
0.4634146341463415
 40
0.4634146341463415
 40
0.4656319290465632
 40
0.4656319290465632
 40
0.4656319290465632
 40
0.4656319290465632
 40
0.4678492239467849
 40
0.4678492239467849
 40
0.4678492239467849
 40
0.4678492239467849
 40
0.4700665188470067
 40
0.4700665188470067
 40
0.4700665188470067
 40
0.4700665188470067
 40
0.4722838137472284
 40
0.4722838137472284
 40
0.4722838137472284
 40
0.4722838137472284
 40
0.4745011086474501
 40
0.4745011086474501
 40
0.4745011086474501
 40
0.4745011086474501
 40
0.4767184035476719
 40
0.4767184035476719
 40
0.4767184035476719
 40
0.4767184035476719
 40
0.4789356984478936
 40
0.4789356984478936
 40
0.4789356984478936
 40
0.4789356984478936
 40
0.4811529933481153
 40
0.4811529933481153
 40
0.4811529933481153
 40
0.4811529933481153
 40
0.4833702882483371
 40
0.4833702882483371
 40
0.4833702882483371
 40
0.4833702882483371
 40
0.4855875831485588
 40
0.4855875831485588
 40
0.4855875831485588
 40
0.4855875831485588
 40
0.4878048780487805
 40
0.4878048780487805
 40
0.4878048780487805
 40
0.4878048780487805
 40
0.4900221729490022
 40
0.4900221729490022
 40
0.4900221729490022
 40
0.4900221729490022
 40
0.492239467849224
 40
0.492239467849224
 40
0.492239467849224
 40
0.492239467849224
 40
0.4944567627494457
 40
0.4944567627494457
 40
0.4944567627494457
 40
0.4944567627494457
 40
0.4966740576496674
 40
0.4966740576496674
 40
0.4966740576496674
 40
0.4966740576496674
 40
0.4988913525498891
 40
0.4988913525498891
 40
0.4988913525498891
 40
0.4988913525498891
 40
0.5011086474501109
 40
0.5011086474501109
 40
0.5011086474501109
 40
0.5011086474501109
 40
0.5033259423503326
 40
0.5033259423503326
 40
0.5033259423503326
 40
0.5033259423503326
 40
0.5055432372505543
 40
0.5055432372505543
 40
0.5055432372505543
 40
0.5055432372505543
 40
0.5077605321507761
 40
0.5077605321507761
 40
0.5077605321507761
 40
0.5077605321507761
 40
0.5099778270509978
 40
0.5099778270509978
 40
0.5099778270509978
 40
0.5099778270509978
 40
0.5121951219512195
 40
0.5121951219512195
 40
0.5121951219512195
 40
0.5121951219512195
 40
0.5144124168514412
 40
0.5144124168514412
 40
0.5144124168514412
 40
0.5144124168514412
 40
0.516629711751663
 40
0.516629711751663
 40
0.516629711751663
 40
0.516629711751663
 40
0.5188470066518847
 40
0.5188470066518847
 40
0.5188470066518847
 40
0.5188470066518847
 40
0.5210643015521065
 40
0.5210643015521065
 40
0.5210643015521065
 40
0.5210643015521065
 40
0.5232815964523282
 40
0.5232815964523282
 40
0.5232815964523282
 40
0.5232815964523282
 40
0.5254988913525499
 40
0.5254988913525499
 40
0.5254988913525499
 40
0.5254988913525499
 40
0.5277161862527716
 40
0.5277161862527716
 40
0.5277161862527716
 40
0.5277161862527716
 40
0.5299334811529933
 40
0.5299334811529933
 40
0.5299334811529933
 40
0.5299334811529933
 40
0.532150776053215
 40
0.532150776053215
 40
0.532150776053215
 40
0.532150776053215
 40
0.5343680709534369
 40
0.5343680709534369
 40
0.5343680709534369
 40
0.5343680709534369
 40
0.5365853658536586
 40
0.5365853658536586
 40
0.5365853658536586
 40
0.5365853658536586
 40
0.5388026607538803
 40
0.5388026607538803
 40
0.5388026607538803
 40
0.5388026607538803
 40
0.541019955654102
 40
0.541019955654102
 40
0.541019955654102
 40
0.541019955654102
 40
0.5432372505543237
 40
0.5432372505543237
 40
0.5432372505543237
 40
0.5432372505543237
 40
0.5454545454545454
 40
0.5454545454545454
 40
0.5454545454545454
 40
0.5454545454545454
 40
0.5476718403547672
 40
0.5476718403547672
 40
0.5476718403547672
 40
0.5476718403547672
 40
0.549889135254989
 40
0.549889135254989
 40
0.549889135254989
 40
0.549889135254989
 40
0.5521064301552107
 40
0.5521064301552107
 40
0.5521064301552107
 40
0.5521064301552107
 40
0.5543237250554324
 40
0.5543237250554324
 40
0.5543237250554324
 40
0.5543237250554324
 40
0.5565410199556541
 40
0.5565410199556541
 40
0.5565410199556541
 40
0.5565410199556541
 40
0.5587583148558758
 40
0.5587583148558758
 40
0.5587583148558758
 40
0.5587583148558758
 40
0.5609756097560976
 40
0.5609756097560976
 40
0.5609756097560976
 40
0.5609756097560976
 40
0.5631929046563193
 40
0.5631929046563193
 40
0.5631929046563193
 40
0.5631929046563193
 40
0.565410199556541
 40
0.565410199556541
 40
0.565410199556541
 40
0.565410199556541
 40
0.5676274944567627
 40
0.5676274944567627
 40
0.5676274944567627
 40
0.5676274944567627
 40
0.5698447893569845
 40
0.5698447893569845
 40
0.5698447893569845
 40
0.5698447893569845
 40
0.5720620842572062
 40
0.5720620842572062
 40
0.5720620842572062
 40
0.5720620842572062
 40
0.5742793791574279
 40
0.5742793791574279
 40
0.5742793791574279
 40
0.5742793791574279
 40
0.5764966740576497
 40
0.5764966740576497
 40
0.5764966740576497
 40
0.5764966740576497
 40
0.5787139689578714
 40
0.5787139689578714
 40
0.5787139689578714
 40
0.5787139689578714
 40
0.5809312638580931
 40
0.5809312638580931
 40
0.5809312638580931
 40
0.5809312638580931
 40
0.5831485587583148
 40
0.5831485587583148
 40
0.5831485587583148
 40
0.5831485587583148
 40
0.5853658536585366
 40
0.5853658536585366
 40
0.5853658536585366
 40
0.5853658536585366
 40
0.5875831485587583
 40
0.5875831485587583
 40
0.5875831485587583
 40
0.5875831485587583
 40
0.5898004434589801
 40
0.5898004434589801
 40
0.5898004434589801
 40
0.5898004434589801
 40
0.5920177383592018
 40
0.5920177383592018
 40
0.5920177383592018
 40
0.5920177383592018
 40
0.5942350332594235
 40
0.5942350332594235
 40
0.5942350332594235
 40
0.5942350332594235
 40
0.5964523281596452
 40
0.5964523281596452
 40
0.5964523281596452
 40
0.5964523281596452
 40
0.5986696230598669
 40
0.5986696230598669
 40
0.5986696230598669
 40
0.5986696230598669
 40
0.6008869179600886
 40
0.6008869179600886
 40
0.6008869179600886
 40
0.6008869179600886
 40
0.6031042128603105
 40
0.6031042128603105
 40
0.6031042128603105
 40
0.6031042128603105
 40
0.6053215077605322
 40
0.6053215077605322
 40
0.6053215077605322
 40
0.6053215077605322
 40
0.6075388026607539
 40
0.6075388026607539
 40
0.6075388026607539
 40
0.6075388026607539
 40
0.6097560975609756
 40
0.6097560975609756
 40
0.6097560975609756
 40
0.6097560975609756
 40
0.6119733924611973
 40
0.6119733924611973
 40
0.6119733924611973
 40
0.6119733924611973
 40
0.614190687361419
 40
0.614190687361419
 40
0.614190687361419
 40
0.614190687361419
 40
0.6164079822616408
 40
0.6164079822616408
 40
0.6164079822616408
 40
0.6164079822616408
 40
0.6186252771618626
 40
0.6186252771618626
 40
0.6186252771618626
 40
0.6186252771618626
 40
0.6208425720620843
 40
0.6208425720620843
 40
0.6208425720620843
 40
0.6208425720620843
 40
0.623059866962306
 40
0.623059866962306
 40
0.623059866962306
 40
0.623059866962306
 40
0.6252771618625277
 40
0.6252771618625277
 40
0.6252771618625277
 40
0.6252771618625277
 40
0.6274944567627494
 40
0.6274944567627494
 40
0.6274944567627494
 40
0.6274944567627494
 40
0.6297117516629712
 40
0.6297117516629712
 40
0.6297117516629712
 40
0.6297117516629712
 40
0.6319290465631929
 40
0.6319290465631929
 40
0.6319290465631929
 40
0.6319290465631929
 40
0.6341463414634146
 40
0.6341463414634146
 40
0.6341463414634146
 40
0.6341463414634146
 40
0.6363636363636364
 40
0.6363636363636364
 40
0.6363636363636364
 40
0.6363636363636364
 40
0.6385809312638581
 40
0.6385809312638581
 40
0.6385809312638581
 40
0.6385809312638581
 40
0.6407982261640798
 40
0.6407982261640798
 40
0.6407982261640798
 40
0.6407982261640798
 40
0.6430155210643016
 40
0.6430155210643016
 40
0.6430155210643016
 40
0.6430155210643016
 40
0.6452328159645233
 40
0.6452328159645233
 40
0.6452328159645233
 40
0.6452328159645233
 40
0.647450110864745
 40
0.647450110864745
 40
0.647450110864745
 40
0.647450110864745
 40
0.6496674057649667
 40
0.6496674057649667
 40
0.6496674057649667
 40
0.6496674057649667
 40
0.6518847006651884
 40
0.6518847006651884
 40
0.6518847006651884
 40
0.6518847006651884
 40
0.6541019955654102
 40
0.6541019955654102
 40
0.6541019955654102
 40
0.6541019955654102
 40
0.656319290465632
 40
0.656319290465632
 40
0.656319290465632
 40
0.656319290465632
 40
0.6585365853658537
 40
0.6585365853658537
 40
0.6585365853658537
 40
0.6585365853658537
 40
0.6607538802660754
 40
0.6607538802660754
 40
0.6607538802660754
 40
0.6607538802660754
 40
0.6629711751662971
 40
0.6629711751662971
 40
0.6629711751662971
 40
0.6629711751662971
 40
0.6651884700665188
 40
0.6651884700665188
 40
0.6651884700665188
 40
0.6651884700665188
 40
0.6674057649667405
 40
0.6674057649667405
 40
0.6674057649667405
 40
0.6674057649667405
 40
0.6696230598669624
 40
0.6696230598669624
 40
0.6696230598669624
 40
0.6696230598669624
 40
0.6718403547671841
 40
0.6718403547671841
 40
0.6718403547671841
 40
0.6718403547671841
 40
0.6740576496674058
 40
0.6740576496674058
 40
0.6740576496674058
 40
0.6740576496674058
 40
0.6762749445676275
 40
0.6762749445676275
 40
0.6762749445676275
 40
0.6762749445676275
 40
0.6784922394678492
 40
0.6784922394678492
 40
0.6784922394678492
 40
0.6784922394678492
 40
0.6807095343680709
 40
0.6807095343680709
 40
0.6807095343680709
 40
0.6807095343680709
 40
0.6829268292682927
 40
0.6829268292682927
 40
0.6829268292682927
 40
0.6829268292682927
 40
0.6851441241685144
 40
0.6851441241685144
 40
0.6851441241685144
 40
0.6851441241685144
 40
0.6873614190687362
 40
0.6873614190687362
 40
0.6873614190687362
 40
0.6873614190687362
 40
0.6895787139689579
 40
0.6895787139689579
 40
0.6895787139689579
 40
0.6895787139689579
 40
0.6917960088691796
 40
0.6917960088691796
 40
0.6917960088691796
 40
0.6917960088691796
 40
0.6940133037694013
 40
0.6940133037694013
 40
0.6940133037694013
 40
0.6940133037694013
 40
0.6962305986696231
 40
0.6962305986696231
 40
0.6962305986696231
 40
0.6962305986696231
 40
0.6984478935698448
 40
0.6984478935698448
 40
0.6984478935698448
 40
0.6984478935698448
 40
0.7006651884700665
 40
0.7006651884700665
 40
0.7006651884700665
 40
0.7006651884700665
 40
0.7028824833702882
 40
0.7028824833702882
 40
0.7028824833702882
 40
0.7028824833702882
 40
0.70509977827051
 40
0.70509977827051
 40
0.70509977827051
 40
0.70509977827051
 40
0.7073170731707317
 40
0.7073170731707317
 40
0.7073170731707317
 40
0.7073170731707317
 40
0.7095343680709535
 40
0.7095343680709535
 40
0.7095343680709535
 40
0.7095343680709535
 40
0.7117516629711752
 40
0.7117516629711752
 40
0.7117516629711752
 40
0.7117516629711752
 40
0.7139689578713969
 40
0.7139689578713969
 40
0.7139689578713969
 40
0.7139689578713969
 40
0.7161862527716186
 40
0.7161862527716186
 40
0.7161862527716186
 40
0.7161862527716186
 40
0.7184035476718403
 40
0.7184035476718403
 40
0.7184035476718403
 40
0.7184035476718403
 40
0.720620842572062
 40
0.720620842572062
 40
0.720620842572062
 40
0.720620842572062
 40
0.7228381374722838
 40
0.7228381374722838
 40
0.7228381374722838
 40
0.7228381374722838
 40
0.7250554323725056
 40
0.7250554323725056
 40
0.7250554323725056
 40
0.7250554323725056
 40
0.7272727272727273
 40
0.7272727272727273
 40
0.7272727272727273
 40
0.7272727272727273
 40
0.729490022172949
 40
0.729490022172949
 40
0.729490022172949
 40
0.729490022172949
 40
0.7317073170731707
 40
0.7317073170731707
 40
0.7317073170731707
 40
0.7317073170731707
 40
0.7339246119733924
 40
0.7339246119733924
 40
0.7339246119733924
 40
0.7339246119733924
 40
0.7361419068736141
 40
0.7361419068736141
 40
0.7361419068736141
 40
0.7361419068736141
 40
0.738359201773836
 40
0.738359201773836
 40
0.738359201773836
 40
0.738359201773836
 40
0.7405764966740577
 40
0.7405764966740577
 40
0.7405764966740577
 40
0.7405764966740577
 40
0.7427937915742794
 40
0.7427937915742794
 40
0.7427937915742794
 40
0.7427937915742794
 40
0.7450110864745011
 40
0.7450110864745011
 40
0.7450110864745011
 40
0.7450110864745011
 40
0.7472283813747228
 40
0.7472283813747228
 40
0.7472283813747228
 40
0.7472283813747228
 40
0.7494456762749445
 40
0.7494456762749445
 40
0.7494456762749445
 40
0.7494456762749445
 40
0.7516629711751663
 40
0.7516629711751663
 40
0.7516629711751663
 40
0.7516629711751663
 40
0.753880266075388
 40
0.753880266075388
 40
0.753880266075388
 40
0.753880266075388
 40
0.7560975609756098
 40
0.7560975609756098
 40
0.7560975609756098
 40
0.7560975609756098
 40
0.7583148558758315
 40
0.7583148558758315
 40
0.7583148558758315
 40
0.7583148558758315
 40
0.7605321507760532
 40
0.7605321507760532
 40
0.7605321507760532
 40
0.7605321507760532
 40
0.7627494456762749
 40
0.7627494456762749
 40
0.7627494456762749
 40
0.7627494456762749
 40
0.7649667405764967
 40
0.7649667405764967
 40
0.7649667405764967
 40
0.7649667405764967
 40
0.7671840354767184
 40
0.7671840354767184
 40
0.7671840354767184
 40
0.7671840354767184
 40
0.7694013303769401
 40
0.7694013303769401
 40
0.7694013303769401
 40
0.7694013303769401
 40
0.7716186252771619
 40
0.7716186252771619
 40
0.7716186252771619
 40
0.7716186252771619
 40
0.7738359201773836
 40
0.7738359201773836
 40
0.7738359201773836
 40
0.7738359201773836
 40
0.7760532150776053
 40
0.7760532150776053
 40
0.7760532150776053
 40
0.7760532150776053
 40
0.7782705099778271
 40
0.7782705099778271
 40
0.7782705099778271
 40
0.7782705099778271
 40
0.7804878048780488
 40
0.7804878048780488
 40
0.7804878048780488
 40
0.7804878048780488
 40
0.7827050997782705
 40
0.7827050997782705
 40
0.7827050997782705
 40
0.7827050997782705
 40
0.7849223946784922
 40
0.7849223946784922
 40
0.7849223946784922
 40
0.7849223946784922
 40
0.7871396895787139
 40
0.7871396895787139
 40
0.7871396895787139
 40
0.7871396895787139
 40
0.7893569844789357
 40
0.7893569844789357
 40
0.7893569844789357
 40
0.7893569844789357
 40
0.7915742793791575
 40
0.7915742793791575
 40
0.7915742793791575
 40
0.7915742793791575
 40
0.7937915742793792
 40
0.7937915742793792
 40
0.7937915742793792
 40
0.7937915742793792
 40
0.7960088691796009
 40
0.7960088691796009
 40
0.7960088691796009
 40
0.7960088691796009
 40
0.7982261640798226
 40
0.7982261640798226
 40
0.7982261640798226
 40
0.7982261640798226
 40
0.8004434589800443
 40
0.8004434589800443
 40
0.8004434589800443
 40
0.8004434589800443
 40
0.802660753880266
 40
0.802660753880266
 40
0.802660753880266
 40
0.802660753880266
 40
0.8048780487804879
 40
0.8048780487804879
 40
0.8048780487804879
 40
0.8048780487804879
 40
0.8070953436807096
 40
0.8070953436807096
 40
0.8070953436807096
 40
0.8070953436807096
 40
0.8093126385809313
 40
0.8093126385809313
 40
0.8093126385809313
 40
0.8093126385809313
 40
0.811529933481153
 40
0.811529933481153
 40
0.811529933481153
 40
0.811529933481153
 40
0.8137472283813747
 40
0.8137472283813747
 40
0.8137472283813747
 40
0.8137472283813747
 40
0.8159645232815964
 40
0.8159645232815964
 40
0.8159645232815964
 40
0.8159645232815964
 40
0.8181818181818182
 40
0.8181818181818182
 40
0.8181818181818182
 40
0.8181818181818182
 40
0.8203991130820399
 40
0.8203991130820399
 40
0.8203991130820399
 40
0.8203991130820399
 40
0.8226164079822617
 40
0.8226164079822617
 40
0.8226164079822617
 40
0.8226164079822617
 40
0.8248337028824834
 40
0.8248337028824834
 40
0.8248337028824834
 40
0.8248337028824834
 40
0.8270509977827051
 40
0.8270509977827051
 40
0.8270509977827051
 40
0.8270509977827051
 40
0.8292682926829268
 40
0.8292682926829268
 40
0.8292682926829268
 40
0.8292682926829268
 40
0.8314855875831486
 40
0.8314855875831486
 40
0.8314855875831486
 40
0.8314855875831486
 40
0.8337028824833703
 40
0.8337028824833703
 40
0.8337028824833703
 40
0.8337028824833703
 40
0.835920177383592
 40
0.835920177383592
 40
0.835920177383592
 40
0.835920177383592
 40
0.8381374722838137
 40
0.8381374722838137
 40
0.8381374722838137
 40
0.8381374722838137
 40
0.8403547671840355
 40
0.8403547671840355
 40
0.8403547671840355
 40
0.8403547671840355
 40
0.8425720620842572
 40
0.8425720620842572
 40
0.8425720620842572
 40
0.8425720620842572
 40
0.844789356984479
 40
0.844789356984479
 40
0.844789356984479
 40
0.844789356984479
 40
0.8470066518847007
 40
0.8470066518847007
 40
0.8470066518847007
 40
0.8470066518847007
 40
0.8492239467849224
 40
0.8492239467849224
 40
0.8492239467849224
 40
0.8492239467849224
 40
0.8514412416851441
 40
0.8514412416851441
 40
0.8514412416851441
 40
0.8514412416851441
 40
0.8536585365853658
 40
0.8536585365853658
 40
0.8536585365853658
 40
0.8536585365853658
 40
0.8558758314855875
 40
0.8558758314855875
 40
0.8558758314855875
 40
0.8558758314855875
 40
0.8580931263858093
 40
0.8580931263858093
 40
0.8580931263858093
 40
0.8580931263858093
 40
0.8603104212860311
 40
0.8603104212860311
 40
0.8603104212860311
 40
0.8603104212860311
 40
0.8625277161862528
 40
0.8625277161862528
 40
0.8625277161862528
 40
0.8625277161862528
 40
0.8647450110864745
 40
0.8647450110864745
 40
0.8647450110864745
 40
0.8647450110864745
 40
0.8669623059866962
 40
0.8669623059866962
 40
0.8669623059866962
 40
0.8669623059866962
 40
0.8691796008869179
 40
0.8691796008869179
 40
0.8691796008869179
 40
0.8691796008869179
 40
0.8713968957871396
 40
0.8713968957871396
 40
0.8713968957871396
 40
0.8713968957871396
 40
0.8736141906873615
 40
0.8736141906873615
 40
0.8736141906873615
 40
0.8736141906873615
 40
0.8758314855875832
 40
0.8758314855875832
 40
0.8758314855875832
 40
0.8758314855875832
 40
0.8780487804878049
 40
0.8780487804878049
 40
0.8780487804878049
 40
0.8780487804878049
 40
0.8802660753880266
 40
0.8802660753880266
 40
0.8802660753880266
 40
0.8802660753880266
 40
0.8824833702882483
 40
0.8824833702882483
 40
0.8824833702882483
 40
0.8824833702882483
 40
0.88470066518847
 40
0.88470066518847
 40
0.88470066518847
 40
0.88470066518847
 40
0.8869179600886918
 40
0.8869179600886918
 40
0.8869179600886918
 40
0.8869179600886918
 40
0.8891352549889135
 40
0.8891352549889135
 40
0.8891352549889135
 40
0.8891352549889135
 40
0.8913525498891353
 40
0.8913525498891353
 40
0.8913525498891353
 40
0.8913525498891353
 40
0.893569844789357
 40
0.893569844789357
 40
0.893569844789357
 40
0.893569844789357
 40
0.8957871396895787
 40
0.8957871396895787
 40
0.8957871396895787
 40
0.8957871396895787
 40
0.8980044345898004
 40
0.8980044345898004
 40
0.8980044345898004
 40
0.8980044345898004
 40
0.9002217294900222
 40
0.9002217294900222
 40
0.9002217294900222
 40
0.9002217294900222
 40
0.9024390243902439
 40
0.9024390243902439
 40
0.9024390243902439
 40
0.9024390243902439
 40
0.9046563192904656
 40
0.9046563192904656
 40
0.9046563192904656
 40
0.9046563192904656
 40
0.9068736141906873
 40
0.9068736141906873
 40
0.9068736141906873
 40
0.9068736141906873
 40
0.9090909090909091
 40
0.9090909090909091
 40
0.9090909090909091
 40
0.9090909090909091
 40
0.9113082039911308
 40
0.9113082039911308
 40
0.9113082039911308
 40
0.9113082039911308
 40
0.9135254988913526
 40
0.9135254988913526
 40
0.9135254988913526
 40
0.9135254988913526
 40
0.9157427937915743
 40
0.9157427937915743
 40
0.9157427937915743
 40
0.9157427937915743
 40
0.917960088691796
 40
0.917960088691796
 40
0.917960088691796
 40
0.917960088691796
 40
0.9201773835920177
 40
0.9201773835920177
 40
0.9201773835920177
 40
0.9201773835920177
 40
0.9223946784922394
 40
0.9223946784922394
 40
0.9223946784922394
 40
0.9223946784922394
 40
0.9246119733924612
 40
0.9246119733924612
 40
0.9246119733924612
 40
0.9246119733924612
 40
0.926829268292683
 40
0.926829268292683
 40
0.926829268292683
 40
0.926829268292683
 40
0.9290465631929047
 40
0.9290465631929047
 40
0.9290465631929047
 40
0.9290465631929047
 40
0.9312638580931264
 40
0.9312638580931264
 40
0.9312638580931264
 40
0.9312638580931264
 40
0.9334811529933481
 40
0.9334811529933481
 40
0.9334811529933481
 40
0.9334811529933481
 40
0.9356984478935698
 40
0.9356984478935698
 40
0.9356984478935698
 40
0.9356984478935698
 40
0.9379157427937915
 40
0.9379157427937915
 40
0.9379157427937915
 40
0.9379157427937915
 40
0.9401330376940134
 40
0.9401330376940134
 40
0.9401330376940134
 40
0.9401330376940134
 40
0.9423503325942351
 40
0.9423503325942351
 40
0.9423503325942351
 40
0.9423503325942351
 40
0.9445676274944568
 40
0.9445676274944568
 40
0.9445676274944568
 40
0.9445676274944568
 40
0.9467849223946785
 40
0.9467849223946785
 40
0.9467849223946785
 40
0.9467849223946785
 40
0.9490022172949002
 40
0.9490022172949002
 40
0.9490022172949002
 40
0.9490022172949002
 40
0.9512195121951219
 40
0.9512195121951219
 40
0.9512195121951219
 40
0.9512195121951219
 40
0.9534368070953437
 40
0.9534368070953437
 40
0.9534368070953437
 40
0.9534368070953437
 40
0.9556541019955654
 40
0.9556541019955654
 40
0.9556541019955654
 40
0.9556541019955654
 40
0.9578713968957872
 40
0.9578713968957872
 40
0.9578713968957872
 40
0.9578713968957872
 40
0.9600886917960089
 40
0.9600886917960089
 40
0.9600886917960089
 40
0.9600886917960089
 40
0.9623059866962306
 40
0.9623059866962306
 40
0.9623059866962306
 40
0.9623059866962306
 40
0.9645232815964523
 40
0.9645232815964523
 40
0.9645232815964523
 40
0.9645232815964523
 40
0.9667405764966741
 40
0.9667405764966741
 40
0.9667405764966741
 40
0.9667405764966741
 40
0.9689578713968958
 40
0.9689578713968958
 40
0.9689578713968958
 40
0.9689578713968958
 40
0.9711751662971175
 40
0.9711751662971175
 40
0.9711751662971175
 40
0.9711751662971175
 40
0.9733924611973392
 40
0.9733924611973392
 40
0.9733924611973392
 40
0.9733924611973392
 40
0.975609756097561
 40
0.975609756097561
 40
0.975609756097561
 40
0.975609756097561
 40
0.9778270509977827
 40
0.9778270509977827
 40
0.9778270509977827
 40
0.9778270509977827
 40
0.9800443458980045
 40
0.9800443458980045
 40
0.9800443458980045
 40
0.9800443458980045
 40
0.9822616407982262
 40
0.9822616407982262
 40
0.9822616407982262
 40
0.9822616407982262
 40
0.9844789356984479
 40
0.9844789356984479
 40
0.9844789356984479
 40
0.9844789356984479
 40
0.9866962305986696
 40
0.9866962305986696
 40
0.9866962305986696
 40
0.9866962305986696
 40
0.9889135254988913
 40
0.9889135254988913
 40
0.9889135254988913
 40
0.9889135254988913
 40
0.991130820399113
 40
0.991130820399113
 40
0.991130820399113
 40
0.991130820399113
 40
0.9933481152993349
 40
0.9933481152993349
 40
0.9933481152993349
 40
0.9933481152993349
 40
0.9955654101995566
 40
0.9955654101995566
 40
0.9955654101995566
 40
0.9955654101995566
 40
1.0
 40
1.0
 40
1.0
 40
1.0
 10
-11.79109
 20
-10.69173
 30
0.0
 10
-12.02373
 20
-10.64889
 30
0.0
 10
-12.19998
 20
-10.44506
 30
0.0
 10
-12.19998
 20
-10.20004
 30
0.0
 10
-12.19998
 20
-10.20004
 30
0.0
 10
-12.19998
 20
-10.20004
 30
0.0
 10
-12.19998
 20
-9.80004
 30
0.0
 10
-12.19998
 20
-9.80004
 30
0.0
 10
-12.19998
 20
-9.80004
 30
0.0
 10
-12.19998
 20
-9.5239
 30
0.0
 10
-11.97612
 20
-9.30004
 30
0.0
 10
-11.69998
 20
-9.30004
 30
0.0
 10
-11.69998
 20
-9.30004
 30
0.0
 10
-11.69998
 20
-9.30004
 30
0.0
 10
-8.29998
 20
-9.30004
 30
0.0
 10
-8.29998
 20
-9.30004
 30
0.0
 10
-8.29998
 20
-9.30004
 30
0.0
 10
-8.02384
 20
-9.30004
 30
0.0
 10
-7.79998
 20
-9.5239
 30
0.0
 10
-7.79998
 20
-9.80004
 30
0.0
 10
-7.79998
 20
-9.80004
 30
0.0
 10
-7.79998
 20
-9.80004
 30
0.0
 10
-7.79998
 20
-10.20004
 30
0.0
 10
-7.79998
 20
-10.20004
 30
0.0
 10
-7.79998
 20
-10.20004
 30
0.0
 10
-7.79998
 20
-10.40968
 30
0.0
 10
-7.92903
 20
-10.58916
 30
0.0
 10
-8.112
 20
-10.66346
 30
0.0
 10
-8.112
 20
-10.66346
 30
0.0
 10
-7.74788
 20
-10.85958
 30
0.0
 10
-7.27258
 20
-10.86716
 30
0.0
 10
-7.075
 20
-11.21356
 30
0.0
 10
-7.075
 20
-11.21356
 30
0.0
 10
-6.8362
 20
-11.63224
 30
0.0
 10
-7.27245
 20
-12.00891
 30
0.0
 10
-6.719
 20
-12.3152
 30
0.0
 10
-6.719
 20
-12.3152
 30
0.0
 10
-6.46778
 20
-12.45423
 30
0.0
 10
-6.1733
 20
-12.48596
 30
0.0
 10
-5.92719
 20
-12.63236
 30
0.0
 10
-5.92719
 20
-12.63236
 30
0.0
 10
-5.42402
 20
-12.93162
 30
0.0
 10
-5.25325
 20
-13.70018
 30
0.0
 10
-5.25268
 20
-14.24438
 30
0.0
 10
-5.25268
 20
-14.24438
 30
0.0
 10
-5.25224
 20
-14.72686
 30
0.0
 10
-5.43233
 20
-15.17474
 30
0.0
 10
-5.87045
 20
-15.40462
 30
0.0
 10
-5.87045
 20
-15.40462
 30
0.0
 10
-6.19148
 20
-15.57309
 30
0.0
 10
-6.55725
 20
-15.65404
 30
0.0
 10
-6.89393
 20
-15.49438
 30
0.0
 10
-6.89393
 20
-15.49438
 30
0.0
 10
-7.11283
 20
-15.39059
 30
0.0
 10
-7.33108
 20
-15.22887
 30
0.0
 10
-7.44325
 20
-15.00876
 30
0.0
 10
-7.44325
 20
-15.00876
 30
0.0
 10
-7.55546
 20
-14.78856
 30
0.0
 10
-7.51937
 20
-14.4762
 30
0.0
 10
-7.37906
 20
-14.27585
 30
0.0
 10
-7.37906
 20
-14.27585
 30
0.0
 10
-7.30514
 20
-14.1703
 30
0.0
 10
-7.20101
 20
-14.11183
 30
0.0
 10
-7.07823
 20
-14.08049
 30
0.0
 10
-7.07823
 20
-14.08049
 30
0.0
 10
-6.99105
 20
-14.05821
 30
0.0
 10
-6.88762
 20
-14.07116
 30
0.0
 10
-6.81059
 20
-14.11852
 30
0.0
 10
-6.81059
 20
-14.11852
 30
0.0
 10
-6.77143
 20
-14.14263
 30
0.0
 10
-6.64241
 20
-14.31906
 30
0.0
 10
-6.73029
 20
-14.32632
 30
0.0
 10
-6.73029
 20
-14.32632
 30
0.0
 10
-6.75332
 20
-14.32821
 30
0.0
 10
-6.77781
 20
-14.31789
 30
0.0
 10
-6.80252
 20
-14.30727
 30
0.0
 10
-6.80252
 20
-14.30727
 30
0.0
 10
-6.80252
 20
-14.30727
 30
0.0
 10
-6.78763
 20
-14.32189
 30
0.0
 10
-6.78763
 20
-14.32189
 30
0.0
 10
-6.78763
 20
-14.32189
 30
0.0
 10
-6.80633
 20
-14.38155
 30
0.0
 10
-6.82039
 20
-14.37171
 30
0.0
 10
-6.8768
 20
-14.3605
 30
0.0
 10
-6.8768
 20
-14.3605
 30
0.0
 10
-6.89141
 20
-14.35758
 30
0.0
 10
-6.91661
 20
-14.35843
 30
0.0
 10
-6.92896
 20
-14.34967
 30
0.0
 10
-6.92896
 20
-14.34967
 30
0.0
 10
-6.9425
 20
-14.34006
 30
0.0
 10
-6.96077
 20
-14.30448
 30
0.0
 10
-6.94637
 20
-14.30867
 30
0.0
 10
-6.94637
 20
-14.30867
 30
0.0
 10
-6.94637
 20
-14.30867
 30
0.0
 10
-6.94586
 20
-14.3018
 30
0.0
 10
-6.94586
 20
-14.3018
 30
0.0
 10
-6.94586
 20
-14.3018
 30
0.0
 10
-6.97219
 20
-14.31424
 30
0.0
 10
-6.99617
 20
-14.33352
 30
0.0
 10
-7.01729
 20
-14.35723
 30
0.0
 10
-7.01729
 20
-14.35723
 30
0.0
 10
-7.01729
 20
-14.35723
 30
0.0
 10
-7.00811
 20
-14.35716
 30
0.0
 10
-7.00811
 20
-14.35716
 30
0.0
 10
-7.00811
 20
-14.35716
 30
0.0
 10
-6.94286
 20
-14.35489
 30
0.0
 10
-6.97128
 20
-14.4523
 30
0.0
 10
-6.99697
 20
-14.48279
 30
0.0
 10
-6.99697
 20
-14.48279
 30
0.0
 10
-7.01575
 20
-14.50512
 30
0.0
 10
-7.00922
 20
-14.50124
 30
0.0
 10
-7.03888
 20
-14.5071
 30
0.0
 10
-7.03888
 20
-14.5071
 30
0.0
 10
-7.06075
 20
-14.51145
 30
0.0
 10
-7.08755
 20
-14.4979
 30
0.0
 10
-7.10069
 20
-14.51587
 30
0.0
 10
-7.10069
 20
-14.51587
 30
0.0
 10
-7.10618
 20
-14.53548
 30
0.0
 10
-7.11026
 20
-14.55515
 30
0.0
 10
-7.11281
 20
-14.57439
 30
0.0
 10
-7.11281
 20
-14.57439
 30
0.0
 10
-7.11281
 20
-14.57439
 30
0.0
 10
-7.10952
 20
-14.57325
 30
0.0
 10
-7.10952
 20
-14.57325
 30
0.0
 10
-7.10952
 20
-14.57325
 30
0.0
 10
-7.03074
 20
-14.54932
 30
0.0
 10
-7.03792
 20
-14.59906
 30
0.0
 10
-7.02143
 20
-14.66154
 30
0.0
 10
-7.02143
 20
-14.66154
 30
0.0
 10
-7.0163
 20
-14.68113
 30
0.0
 10
-7.0018
 20
-14.70311
 30
0.0
 10
-7.01299
 20
-14.7222
 30
0.0
 10
-7.01299
 20
-14.7222
 30
0.0
 10
-7.02552
 20
-14.74362
 30
0.0
 10
-7.07024
 20
-14.74251
 30
0.0
 10
-7.06983
 20
-14.74965
 30
0.0
 10
-7.06983
 20
-14.74965
 30
0.0
 10
-7.06983
 20
-14.74965
 30
0.0
 10
-7.08227
 20
-14.74259
 30
0.0
 10
-7.08227
 20
-14.74259
 30
0.0
 10
-7.08227
 20
-14.74259
 30
0.0
 10
-7.0695
 20
-14.76512
 30
0.0
 10
-7.05359
 20
-14.78724
 30
0.0
 10
-7.03527
 20
-14.80849
 30
0.0
 10
-7.03527
 20
-14.80849
 30
0.0
 10
-7.03527
 20
-14.80849
 30
0.0
 10
-7.03456
 20
-14.80695
 30
0.0
 10
-7.03456
 20
-14.80695
 30
0.0
 10
-7.03456
 20
-14.80695
 30
0.0
 10
-6.99239
 20
-14.73913
 30
0.0
 10
-6.95431
 20
-14.77929
 30
0.0
 10
-6.90679
 20
-14.8192
 30
0.0
 10
-6.90679
 20
-14.8192
 30
0.0
 10
-6.86945
 20
-14.85054
 30
0.0
 10
-6.83003
 20
-14.88871
 30
0.0
 10
-6.89255
 20
-14.92149
 30
0.0
 10
-6.89255
 20
-14.92149
 30
0.0
 10
-6.89403
 20
-14.91723
 30
0.0
 10
-6.89431
 20
-14.91287
 30
0.0
 10
-6.89346
 20
-14.90837
 30
0.0
 10
-6.89346
 20
-14.90837
 30
0.0
 10
-6.89346
 20
-14.90837
 30
0.0
 10
-6.91337
 20
-14.91496
 30
0.0
 10
-6.91337
 20
-14.91496
 30
0.0
 10
-6.91337
 20
-14.91496
 30
0.0
 10
-6.88292
 20
-14.93536
 30
0.0
 10
-6.85091
 20
-14.9532
 30
0.0
 10
-6.81872
 20
-14.96763
 30
0.0
 10
-6.81872
 20
-14.96763
 30
0.0
 10
-6.81872
 20
-14.96763
 30
0.0
 10
-6.81848
 20
-14.96571
 30
0.0
 10
-6.81848
 20
-14.96571
 30
0.0
 10
-6.81848
 20
-14.96571
 30
0.0
 10
-6.82781
 20
-14.88618
 30
0.0
 10
-6.77311
 20
-14.89197
 30
0.0
 10
-6.71825
 20
-14.90398
 30
0.0
 10
-6.71825
 20
-14.90398
 30
0.0
 10
-6.65965
 20
-14.91682
 30
0.0
 10
-6.62624
 20
-14.92106
 30
0.0
 10
-6.62885
 20
-14.99025
 30
0.0
 10
-6.62885
 20
-14.99025
 30
0.0
 10
-6.62885
 20
-14.99025
 30
0.0
 10
-6.64907
 20
-15.00744
 30
0.0
 10
-6.64907
 20
-15.00744
 30
0.0
 10
-6.64907
 20
-15.00744
 30
0.0
 10
-6.61679
 20
-15.00663
 30
0.0
 10
-6.5863
 20
-15.00336
 30
0.0
 10
-6.55747
 20
-14.99792
 30
0.0
 10
-6.55747
 20
-14.99792
 30
0.0
 10
-6.55747
 20
-14.99792
 30
0.0
 10
-6.56273
 20
-14.98335
 30
0.0
 10
-6.56273
 20
-14.98335
 30
0.0
 10
-6.56273
 20
-14.98335
 30
0.0
 10
-6.54134
 20
-14.92845
 30
0.0
 10
-6.59787
 20
-14.9154
 30
0.0
 10
-6.52217
 20
-14.88754
 30
0.0
 10
-6.52217
 20
-14.88754
 30
0.0
 10
-6.50545
 20
-14.88137
 30
0.0
 10
-6.47599
 20
-14.86338
 30
0.0
 10
-6.45775
 20
-14.8652
 30
0.0
 10
-6.45775
 20
-14.8652
 30
0.0
 10
-6.43584
 20
-14.86739
 30
0.0
 10
-6.41367
 20
-14.89943
 30
0.0
 10
-6.4084
 20
-14.89517
 30
0.0
 10
-6.4084
 20
-14.89517
 30
0.0
 10
-6.40225
 20
-14.90431
 30
0.0
 10
-6.38752
 20
-14.91465
 30
0.0
 10
-6.37752
 20
-14.92163
 30
0.0
 10
-6.37752
 20
-14.92163
 30
0.0
 10
-6.37752
 20
-14.92163
 30
0.0
 10
-6.37766
 20
-14.92311
 30
0.0
 10
-6.37766
 20
-14.92311
 30
0.0
 10
-6.37766
 20
-14.92311
 30
0.0
 10
-6.35661
 20
-14.90828
 30
0.0
 10
-6.3371
 20
-14.89171
 30
0.0
 10
-6.31895
 20
-14.87369
 30
0.0
 10
-6.31895
 20
-14.87369
 30
0.0
 10
-6.31895
 20
-14.87369
 30
0.0
 10
-6.32018
 20
-14.8731
 30
0.0
 10
-6.32018
 20
-14.8731
 30
0.0
 10
-6.32018
 20
-14.8731
 30
0.0
 10
-6.36809
 20
-14.81142
 30
0.0
 10
-6.3628
 20
-14.81489
 30
0.0
 10
-6.31541
 20
-14.74931
 30
0.0
 10
-6.31541
 20
-14.74931
 30
0.0
 10
-6.30109
 20
-14.72949
 30
0.0
 10
-6.28546
 20
-14.68606
 30
0.0
 10
-6.26285
 20
-14.67438
 30
0.0
 10
-6.26285
 20
-14.67438
 30
0.0
 10
-6.24435
 20
-14.66477
 30
0.0
 10
-6.22164
 20
-14.67477
 30
0.0
 10
-6.20112
 20
-14.67466
 30
0.0
 10
-6.20112
 20
-14.67466
 30
0.0
 10
-6.20112
 20
-14.67466
 30
0.0
 10
-6.19504
 20
-14.68445
 30
0.0
 10
-6.19504
 20
-14.68445
 30
0.0
 10
-6.19504
 20
-14.68445
 30
0.0
 10
-6.18737
 20
-14.66632
 30
0.0
 10
-6.18034
 20
-14.64772
 30
0.0
 10
-6.1739
 20
-14.62873
 30
0.0
 10
-6.1739
 20
-14.62873
 30
0.0
 10
-6.1739
 20
-14.62873
 30
0.0
 10
-6.18347
 20
-14.62617
 30
0.0
 10
-6.18347
 20
-14.62617
 30
0.0
 10
-6.18347
 20
-14.62617
 30
0.0
 10
-6.25776
 20
-14.59485
 30
0.0
 10
-6.23582
 20
-14.54358
 30
0.0
 10
-6.21887
 20
-14.47527
 30
0.0
 10
-6.21887
 20
-14.47527
 30
0.0
 10
-6.20764
 20
-14.4299
 30
0.0
 10
-6.18919
 20
-14.40129
 30
0.0
 10
-6.13498
 20
-14.40569
 30
0.0
 10
-6.13498
 20
-14.40569
 30
0.0
 10
-6.13498
 20
-14.40569
 30
0.0
 10
-6.12721
 20
-14.41667
 30
0.0
 10
-6.12721
 20
-14.41667
 30
0.0
 10
-6.12721
 20
-14.41667
 30
0.0
 10
-6.12428
 20
-14.39242
 30
0.0
 10
-6.12207
 20
-14.368
 30
0.0
 10
-6.12049
 20
-14.34355
 30
0.0
 10
-6.12049
 20
-14.34355
 30
0.0
 10
-6.12049
 20
-14.34355
 30
0.0
 10
-6.12175
 20
-14.34393
 30
0.0
 10
-6.12175
 20
-14.34393
 30
0.0
 10
-6.12175
 20
-14.34393
 30
0.0
 10
-6.14986
 20
-14.33438
 30
0.0
 10
-6.16547
 20
-14.34192
 30
0.0
 10
-6.18017
 20
-14.31745
 30
0.0
 10
-6.18017
 20
-14.31745
 30
0.0
 10
-6.19159
 20
-14.29841
 30
0.0
 10
-6.18645
 20
-14.24115
 30
0.0
 10
-6.18753
 20
-14.2182
 30
0.0
 10
-6.18753
 20
-14.2182
 30
0.0
 10
-6.19055
 20
-14.15286
 30
0.0
 10
-6.18542
 20
-14.13842
 30
0.0
 10
-6.13056
 20
-14.11023
 30
0.0
 10
-6.13056
 20
-14.11023
 30
0.0
 10
-6.13056
 20
-14.11023
 30
0.0
 10
-6.12344
 20
-14.11338
 30
0.0
 10
-6.12344
 20
-14.11338
 30
0.0
 10
-6.12344
 20
-14.11338
 30
0.0
 10
-6.12607
 20
-14.08347
 30
0.0
 10
-6.12952
 20
-14.05416
 30
0.0
 10
-6.13368
 20
-14.02565
 30
0.0
 10
-6.13368
 20
-14.02565
 30
0.0
 10
-6.13368
 20
-14.02565
 30
0.0
 10
-6.1394
 20
-14.02644
 30
0.0
 10
-6.1394
 20
-14.02644
 30
0.0
 10
-6.1394
 20
-14.02644
 30
0.0
 10
-6.19148
 20
-14.0554
 30
0.0
 10
-6.2143
 20
-14.04475
 30
0.0
 10
-6.22637
 20
-13.98282
 30
0.0
 10
-6.22637
 20
-13.98282
 30
0.0
 10
-6.23736
 20
-13.92628
 30
0.0
 10
-6.23968
 20
-13.86645
 30
0.0
 10
-6.167
 20
-13.86724
 30
0.0
 10
-6.167
 20
-13.86724
 30
0.0
 10
-6.17441
 20
-13.84308
 30
0.0
 10
-6.18336
 20
-13.81968
 30
0.0
 10
-6.1937
 20
-13.79699
 30
0.0
 10
-6.1937
 20
-13.79699
 30
0.0
 10
-6.1937
 20
-13.79699
 30
0.0
 10
-6.20112
 20
-13.80154
 30
0.0
 10
-6.20112
 20
-13.80154
 30
0.0
 10
-6.20112
 20
-13.80154
 30
0.0
 10
-6.21986
 20
-13.80353
 30
0.0
 10
-6.24848
 20
-13.82787
 30
0.0
 10
-6.26631
 20
-13.82255
 30
0.0
 10
-6.26631
 20
-13.82255
 30
0.0
 10
-6.2819
 20
-13.81792
 30
0.0
 10
-6.30768
 20
-13.77288
 30
0.0
 10
-6.31802
 20
-13.75924
 30
0.0
 10
-6.31802
 20
-13.75924
 30
0.0
 10
-6.33341
 20
-13.73896
 30
0.0
 10
-6.37861
 20
-13.62933
 30
0.0
 10
-6.31138
 20
-13.6516
 30
0.0
 10
-6.31138
 20
-13.6516
 30
0.0
 10
-6.31138
 20
-13.6516
 30
0.0
 10
-6.28791
 20
-13.64832
 30
0.0
 10
-6.28791
 20
-13.64832
 30
0.0
 10
-6.28791
 20
-13.64832
 30
0.0
 10
-6.30293
 20
-13.63011
 30
0.0
 10
-6.3189
 20
-13.61244
 30
0.0
 10
-6.33565
 20
-13.59527
 30
0.0
 10
-6.33565
 20
-13.59527
 30
0.0
 10
-6.33565
 20
-13.59527
 30
0.0
 10
-6.33857
 20
-13.60027
 30
0.0
 10
-6.33857
 20
-13.60027
 30
0.0
 10
-6.33857
 20
-13.60027
 30
0.0
 10
-6.38699
 20
-13.66417
 30
0.0
 10
-6.43527
 20
-13.63496
 30
0.0
 10
-6.50118
 20
-13.58811
 30
0.0
 10
-6.50118
 20
-13.58811
 30
0.0
 10
-6.51218
 20
-13.58029
 30
0.0
 10
-6.48883
 20
-13.54239
 30
0.0
 10
-6.44988
 20
-13.494
 30
0.0
 10
-6.44988
 20
-13.494
 30
0.0
 10
-6.49584
 20
-13.45826
 30
0.0
 10
-6.54487
 20
-13.4249
 30
0.0
 10
-6.59547
 20
-13.3935
 30
0.0
 10
-6.59547
 20
-13.3935
 30
0.0
 10
-6.59547
 20
-13.3935
 30
0.0
 10
-6.598
 20
-13.40025
 30
0.0
 10
-6.598
 20
-13.40025
 30
0.0
 10
-6.598
 20
-13.40025
 30
0.0
 10
-6.59774
 20
-13.40105
 30
0.0
 10
-6.6032
 20
-13.452
 30
0.0
 10
-6.62435
 20
-13.46109
 30
0.0
 10
-6.62435
 20
-13.46109
 30
0.0
 10
-6.64652
 20
-13.47057
 30
0.0
 10
-6.69523
 20
-13.43856
 30
0.0
 10
-6.71409
 20
-13.42932
 30
0.0
 10
-6.71409
 20
-13.42932
 30
0.0
 10
-6.72944
 20
-13.42174
 30
0.0
 10
-6.76528
 20
-13.40844
 30
0.0
 10
-6.77458
 20
-13.39389
 30
0.0
 10
-6.77458
 20
-13.39389
 30
0.0
 10
-6.78794
 20
-13.37304
 30
0.0
 10
-6.77825
 20
-13.30234
 30
0.0
 10
-6.74794
 20
-13.31645
 30
0.0
 10
-6.74794
 20
-13.31645
 30
0.0
 10
-6.74794
 20
-13.31645
 30
0.0
 10
-6.74135
 20
-13.30968
 30
0.0
 10
-6.74135
 20
-13.30968
 30
0.0
 10
-6.74135
 20
-13.30968
 30
0.0
 10
-6.77315
 20
-13.29258
 30
0.0
 10
-6.80501
 20
-13.27605
 30
0.0
 10
-6.83657
 20
-13.26002
 30
0.0
 10
-6.83657
 20
-13.26002
 30
0.0
 10
-6.83657
 20
-13.26002
 30
0.0
 10
-6.84054
 20
-13.27237
 30
0.0
 10
-6.84054
 20
-13.27237
 30
0.0
 10
-6.84054
 20
-13.27237
 30
0.0
 10
-6.83768
 20
-13.35741
 30
0.0
 10
-6.92447
 20
-13.30785
 30
0.0
 10
-6.96164
 20
-13.2918
 30
0.0
 10
-6.96164
 20
-13.2918
 30
0.0
 10
-6.99586
 20
-13.27702
 30
0.0
 10
-7.11024
 20
-13.22305
 30
0.0
 10
-7.01627
 20
-13.17915
 30
0.0
 10
-7.01627
 20
-13.17915
 30
0.0
 10
-7.01268
 20
-13.18644
 30
0.0
 10
-7.01221
 20
-13.17132
 30
0.0
 10
-7.01627
 20
-13.17915
 30
0.0
 10
-7.01627
 20
-13.17915
 30
0.0
 10
-7.01627
 20
-13.17915
 30
0.0
 10
-7.01014
 20
-13.17363
 30
0.0
 10
-7.01014
 20
-13.17363
 30
0.0
 10
-7.01014
 20
-13.17363
 30
0.0
 10
-7.03784
 20
-13.15986
 30
0.0
 10
-7.0647
 20
-13.14635
 30
0.0
 10
-7.09043
 20
-13.13303
 30
0.0
 10
-7.09043
 20
-13.13303
 30
0.0
 10
-7.09043
 20
-13.13303
 30
0.0
 10
-7.0943
 20
-13.13101
 30
0.0
 10
-7.0943
 20
-13.13101
 30
0.0
 10
-7.0943
 20
-13.13101
 30
0.0
 10
-7.0943
 20
-13.13101
 30
0.0
 10
-7.10071
 20
-13.1445
 30
0.0
 10
-7.10071
 20
-13.1445
 30
0.0
 10
-7.10071
 20
-13.1445
 30
0.0
 10
-7.12844
 20
-13.1976
 30
0.0
 10
-7.13254
 20
-13.21127
 30
0.0
 10
-7.18902
 20
-13.17868
 30
0.0
 10
-7.18902
 20
-13.17868
 30
0.0
 10
-7.23654
 20
-13.15125
 30
0.0
 10
-7.31039
 20
-13.12298
 30
0.0
 10
-7.24943
 20
-13.05668
 30
0.0
 10
-7.24943
 20
-13.05668
 30
0.0
 10
-7.25132
 20
-13.06244
 30
0.0
 10
-7.24754
 20
-13.05094
 30
0.0
 10
-7.24943
 20
-13.05668
 30
0.0
 10
-7.24943
 20
-13.05668
 30
0.0
 10
-7.24943
 20
-13.05668
 30
0.0
 10
-7.2399
 20
-13.04961
 30
0.0
 10
-7.2399
 20
-13.04961
 30
0.0
 10
-7.2399
 20
-13.04961
 30
0.0
 10
-7.26463
 20
-13.03467
 30
0.0
 10
-7.28932
 20
-13.01913
 30
0.0
 10
-7.31378
 20
-13.00295
 30
0.0
 10
-7.31378
 20
-13.00295
 30
0.0
 10
-7.31378
 20
-13.00295
 30
0.0
 10
-7.32119
 20
-13.0122
 30
0.0
 10
-7.32119
 20
-13.0122
 30
0.0
 10
-7.32119
 20
-13.0122
 30
0.0
 10
-7.32092
 20
-13.01259
 30
0.0
 10
-7.32808
 20
-13.05375
 30
0.0
 10
-7.34529
 20
-13.06091
 30
0.0
 10
-7.34529
 20
-13.06091
 30
0.0
 10
-7.37284
 20
-13.07231
 30
0.0
 10
-7.41077
 20
-13.039
 30
0.0
 10
-7.43151
 20
-13.02618
 30
0.0
 10
-7.43151
 20
-13.02618
 30
0.0
 10
-7.47833
 20
-12.99738
 30
0.0
 10
-7.49081
 20
-12.96637
 30
0.0
 10
-7.44493
 20
-12.92262
 30
0.0
 10
-7.44493
 20
-12.92262
 30
0.0
 10
-7.44335
 20
-12.92604
 30
0.0
 10
-7.44645
 20
-12.91919
 30
0.0
 10
-7.44493
 20
-12.92262
 30
0.0
 10
-7.44493
 20
-12.92262
 30
0.0
 10
-7.44493
 20
-12.92262
 30
0.0
 10
-7.43363
 20
-12.9165
 30
0.0
 10
-7.43363
 20
-12.9165
 30
0.0
 10
-7.43363
 20
-12.9165
 30
0.0
 10
-7.45574
 20
-12.89902
 30
0.0
 10
-7.47734
 20
-12.88095
 30
0.0
 10
-7.49828
 20
-12.86228
 30
0.0
 10
-7.49828
 20
-12.86228
 30
0.0
 10
-7.50155
 20
-12.94763
 30
0.0
 10
-7.61762
 20
-12.88568
 30
0.0
 10
-7.64966
 20
-12.85958
 30
0.0
 10
-7.64966
 20
-12.85958
 30
0.0
 10
-7.69465
 20
-12.82294
 30
0.0
 10
-7.72457
 20
-12.78282
 30
0.0
 10
-7.66073
 20
-12.74323
 30
0.0
 10
-7.66073
 20
-12.74323
 30
0.0
 10
-7.65664
 20
-12.7468
 30
0.0
 10
-7.62724
 20
-12.72473
 30
0.0
 10
-7.62545
 20
-12.72998
 30
0.0
 10
-7.62545
 20
-12.72998
 30
0.0
 10
-7.62545
 20
-12.72998
 30
0.0
 10
-7.62527
 20
-12.72987
 30
0.0
 10
-7.62527
 20
-12.72987
 30
0.0
 10
-7.62527
 20
-12.72987
 30
0.0
 10
-7.64247
 20
-12.70848
 30
0.0
 10
-7.65861
 20
-12.68646
 30
0.0
 10
-7.67355
 20
-12.66381
 30
0.0
 10
-7.67355
 20
-12.66381
 30
0.0
 10
-7.67355
 20
-12.66381
 30
0.0
 10
-7.68279
 20
-12.66825
 30
0.0
 10
-7.68279
 20
-12.66825
 30
0.0
 10
-7.68279
 20
-12.66825
 30
0.0
 10
-7.74194
 20
-12.73633
 30
0.0
 10
-7.78085
 20
-12.65848
 30
0.0
 10
-7.79927
 20
-12.60479
 30
0.0
 10
-7.79927
 20
-12.60479
 30
0.0
 10
-7.80335
 20
-12.59288
 30
0.0
 10
-7.81857
 20
-12.55461
 30
0.0
 10
-7.81529
 20
-12.54257
 30
0.0
 10
-7.81529
 20
-12.54257
 30
0.0
 10
-7.80697
 20
-12.51219
 30
0.0
 10
-7.7693
 20
-12.51878
 30
0.0
 10
-7.75775
 20
-12.49185
 30
0.0
 10
-7.75775
 20
-12.49185
 30
0.0
 10
-7.75775
 20
-12.49185
 30
0.0
 10
-7.75746
 20
-12.49187
 30
0.0
 10
-7.75746
 20
-12.49187
 30
0.0
 10
-7.75746
 20
-12.49187
 30
0.0
 10
-7.76502
 20
-12.469
 30
0.0
 10
-7.77069
 20
-12.4475
 30
0.0
 10
-7.77488
 20
-12.42709
 30
0.0
 10
-7.77488
 20
-12.42709
 30
0.0
 10
-7.77488
 20
-12.42709
 30
0.0
 10
-7.78421
 20
-12.43012
 30
0.0
 10
-7.78421
 20
-12.43012
 30
0.0
 10
-7.78421
 20
-12.43012
 30
0.0
 10
-7.80323
 20
-12.40971
 30
0.0
 10
-7.83291
 20
-12.43935
 30
0.0
 10
-7.8551
 20
-12.40927
 30
0.0
 10
-7.8551
 20
-12.40927
 30
0.0
 10
-7.86717
 20
-12.39287
 30
0.0
 10
-7.86707
 20
-12.33796
 30
0.0
 10
-7.86815
 20
-12.31755
 30
0.0
 10
-7.86815
 20
-12.31755
 30
0.0
 10
-7.87159
 20
-12.25476
 30
0.0
 10
-7.85655
 20
-12.20874
 30
0.0
 10
-7.78356
 20
-12.20766
 30
0.0
 10
-7.78356
 20
-12.20766
 30
0.0
 10
-7.78119
 20
-12.20915
 30
0.0
 10
-7.77907
 20
-12.21081
 30
0.0
 10
-7.77718
 20
-12.21267
 30
0.0
 10
-7.77718
 20
-12.21267
 30
0.0
 10
-7.76669
 20
-12.11433
 30
0.0
 10
-7.75956
 20
-12.01917
 30
0.0
 10
-7.85319
 20
-11.86347
 30
0.0
 10
-7.85319
 20
-11.86347
 30
0.0
 10
-8.02355
 20
-11.58021
 30
0.0
 10
-8.38518
 20
-11.49026
 30
0.0
 10
-8.63134
 20
-11.7365
 30
0.0
 10
-8.63134
 20
-11.7365
 30
0.0
 10
-8.75381
 20
-11.85903
 30
0.0
 10
-8.75228
 20
-12.00922
 30
0.0
 10
-8.80097
 20
-12.16358
 30
0.0
 10
-8.80097
 20
-12.16358
 30
0.0
 10
-8.86551
 20
-12.36832
 30
0.0
 10
-8.93189
 20
-12.51356
 30
0.0
 10
-8.81675
 20
-12.72031
 30
0.0
 10
-8.81675
 20
-12.72031
 30
0.0
 10
-8.6549
 20
-13.01094
 30
0.0
 10
-8.34221
 20
-13.16465
 30
0.0
 10
-8.17211
 20
-13.45321
 30
0.0
 10
-8.17211
 20
-13.45321
 30
0.0
 10
-7.8934
 20
-13.92616
 30
0.0
 10
-7.96928
 20
-14.67164
 30
0.0
 10
-8.2817
 20
-15.1058
 30
0.0
 10
-8.2817
 20
-15.1058
 30
0.0
 10
-8.52716
 20
-15.44694
 30
0.0
 10
-9.23859
 20
-15.72029
 30
0.0
 10
-9.60407
 20
-15.43323
 30
0.0
 10
-9.60407
 20
-15.43323
 30
0.0
 10
-10.00812
 20
-15.11588
 30
0.0
 10
-10.38838
 20
-14.37801
 30
0.0
 10
-9.84447
 20
-14.00838
 30
0.0
 10
-9.84447
 20
-14.00838
 30
0.0
 10
-9.63275
 20
-13.8645
 30
0.0
 10
-9.34507
 20
-13.86502
 30
0.0
 10
-9.20386
 20
-14.09746
 30
0.0
 10
-9.20386
 20
-14.09746
 30
0.0
 10
-9.1719
 20
-14.15007
 30
0.0
 10
-9.08991
 20
-14.32443
 30
0.0
 10
-9.15043
 20
-14.37869
 30
0.0
 10
-9.15043
 20
-14.37869
 30
0.0
 10
-9.20723
 20
-14.42961
 30
0.0
 10
-9.2391
 20
-14.37984
 30
0.0
 10
-9.27653
 20
-14.34198
 30
0.0
 10
-9.27653
 20
-14.34198
 30
0.0
 10
-9.27913
 20
-14.34999
 30
0.0
 10
-9.28096
 20
-14.37536
 30
0.0
 10
-9.29445
 20
-14.38691
 30
0.0
 10
-9.29445
 20
-14.38691
 30
0.0
 10
-9.30592
 20
-14.39677
 30
0.0
 10
-9.33212
 20
-14.39825
 30
0.0
 10
-9.34652
 20
-14.39709
 30
0.0
 10
-9.34652
 20
-14.39709
 30
0.0
 10
-9.36341
 20
-14.39569
 30
0.0
 10
-9.4091
 20
-14.38425
 30
0.0
 10
-9.41837
 20
-14.3685
 30
0.0
 10
-9.41837
 20
-14.3685
 30
0.0
 10
-9.43147
 20
-14.34634
 30
0.0
 10
-9.41168
 20
-14.28869
 30
0.0
 10
-9.39377
 20
-14.2866
 30
0.0
 10
-9.39377
 20
-14.2866
 30
0.0
 10
-9.39377
 20
-14.2866
 30
0.0
 10
-9.39061
 20
-14.27769
 30
0.0
 10
-9.39061
 20
-14.27769
 30
0.0
 10
-9.39061
 20
-14.27769
 30
0.0
 10
-9.46404
 20
-14.2485
 30
0.0
 10
-9.52757
 20
-14.23909
 30
0.0
 10
-9.5718
 20
-14.25743
 30
0.0
 10
-9.5718
 20
-14.25743
 30
0.0
 10
-9.5718
 20
-14.25743
 30
0.0
 10
-9.5393
 20
-14.26456
 30
0.0
 10
-9.5393
 20
-14.26456
 30
0.0
 10
-9.5393
 20
-14.26456
 30
0.0
 10
-9.53322
 20
-14.26254
 30
0.0
 10
-9.53392
 20
-14.2581
 30
0.0
 10
-9.52705
 20
-14.26063
 30
0.0
 10
-9.52705
 20
-14.26063
 30
0.0
 10
-9.50211
 20
-14.30704
 30
0.0
 10
-9.49219
 20
-14.31543
 30
0.0
 10
-9.53381
 20
-14.35732
 30
0.0
 10
-9.53381
 20
-14.35732
 30
0.0
 10
-9.54245
 20
-14.36598
 30
0.0
 10
-9.57469
 20
-14.40274
 30
0.0
 10
-9.58541
 20
-14.40587
 30
0.0
 10
-9.58541
 20
-14.40587
 30
0.0
 10
-9.60548
 20
-14.41175
 30
0.0
 10
-9.62321
 20
-14.39295
 30
0.0
 10
-9.63761
 20
-14.39229
 30
0.0
 10
-9.63761
 20
-14.39229
 30
0.0
 10
-9.63744
 20
-14.40585
 30
0.0
 10
-9.63644
 20
-14.42043
 30
0.0
 10
-9.63453
 20
-14.43615
 30
0.0
 10
-9.63453
 20
-14.43615
 30
0.0
 10
-9.63191
 20
-14.4576
 30
0.0
 10
-9.62798
 20
-14.47877
 30
0.0
 10
-9.62285
 20
-14.49951
 30
0.0
 10
-9.62285
 20
-14.49951
 30
0.0
 10
-9.62285
 20
-14.49951
 30
0.0
 10
-9.61425
 20
-14.49387
 30
0.0
 10
-9.61425
 20
-14.49387
 30
0.0
 10
-9.61425
 20
-14.49387
 30
0.0
 10
-9.54224
 20
-14.45005
 30
0.0
 10
-9.52255
 20
-14.50335
 30
0.0
 10
-9.50831
 20
-14.56464
 30
0.0
 10
-9.50831
 20
-14.56464
 30
0.0
 10
-9.49661
 20
-14.61492
 30
0.0
 10
-9.50201
 20
-14.62464
 30
0.0
 10
-9.5526
 20
-14.6426
 30
0.0
 10
-9.5526
 20
-14.6426
 30
0.0
 10
-9.55121
 20
-14.63764
 30
0.0
 10
-9.54821
 20
-14.63366
 30
0.0
 10
-9.54368
 20
-14.63058
 30
0.0
 10
-9.54368
 20
-14.63058
 30
0.0
 10
-9.54368
 20
-14.63058
 30
0.0
 10
-9.57325
 20
-14.62624
 30
0.0
 10
-9.57325
 20
-14.62624
 30
0.0
 10
-9.57325
 20
-14.62624
 30
0.0
 10
-9.55229
 20
-14.66397
 30
0.0
 10
-9.52676
 20
-14.69822
 30
0.0
 10
-9.49736
 20
-14.72744
 30
0.0
 10
-9.49736
 20
-14.72744
 30
0.0
 10
-9.49736
 20
-14.72744
 30
0.0
 10
-9.49519
 20
-14.70993
 30
0.0
 10
-9.49519
 20
-14.70993
 30
0.0
 10
-9.49519
 20
-14.70993
 30
0.0
 10
-9.46767
 20
-14.63296
 30
0.0
 10
-9.43041
 20
-14.66143
 30
0.0
 10
-9.38021
 20
-14.69562
 30
0.0
 10
-9.38021
 20
-14.69562
 30
0.0
 10
-9.33758
 20
-14.72461
 30
0.0
 10
-9.30778
 20
-14.74425
 30
0.0
 10
-9.33734
 20
-14.7959
 30
0.0
 10
-9.33734
 20
-14.7959
 30
0.0
 10
-9.33551
 20
-14.78996
 30
0.0
 10
-9.33227
 20
-14.78481
 30
0.0
 10
-9.32762
 20
-14.78049
 30
0.0
 10
-9.32762
 20
-14.78049
 30
0.0
 10
-9.32762
 20
-14.78049
 30
0.0
 10
-9.38117
 20
-14.80626
 30
0.0
 10
-9.38117
 20
-14.80626
 30
0.0
 10
-9.38117
 20
-14.80626
 30
0.0
 10
-9.33094
 20
-14.82723
 30
0.0
 10
-9.27522
 20
-14.8359
 30
0.0
 10
-9.21576
 20
-14.8286
 30
0.0
 10
-9.21576
 20
-14.8286
 30
0.0
 10
-9.21576
 20
-14.8286
 30
0.0
 10
-9.22179
 20
-14.8246
 30
0.0
 10
-9.22179
 20
-14.8246
 30
0.0
 10
-9.22179
 20
-14.8246
 30
0.0
 10
-9.24187
 20
-14.74644
 30
0.0
 10
-9.22973
 20
-14.72996
 30
0.0
 10
-9.15197
 20
-14.70655
 30
0.0
 10
-9.15197
 20
-14.70655
 30
0.0
 10
-9.09247
 20
-14.68859
 30
0.0
 10
-9.09893
 20
-14.71187
 30
0.0
 10
-9.06746
 20
-14.74081
 30
0.0
 10
-9.06746
 20
-14.74081
 30
0.0
 10
-9.06746
 20
-14.74081
 30
0.0
 10
-9.06221
 20
-14.77572
 30
0.0
 10
-9.06221
 20
-14.77572
 30
0.0
 10
-9.06221
 20
-14.77572
 30
0.0
 10
-9.02571
 20
-14.75475
 30
0.0
 10
-8.99393
 20
-14.72943
 30
0.0
 10
-8.9664
 20
-14.7007
 30
0.0
 10
-8.9664
 20
-14.7007
 30
0.0
 10
-8.9664
 20
-14.7007
 30
0.0
 10
-8.97925
 20
-14.70112
 30
0.0
 10
-8.97925
 20
-14.70112
 30
0.0
 10
-8.97925
 20
-14.70112
 30
0.0
 10
-9.02162
 20
-14.64156
 30
0.0
 10
-9.02108
 20
-14.62756
 30
0.0
 10
-8.97827
 20
-14.56539
 30
0.0
 10
-8.97827
 20
-14.56539
 30
0.0
 10
-8.94633
 20
-14.51904
 30
0.0
 10
-8.93108
 20
-14.50928
 30
0.0
 10
-8.8776
 20
-14.52012
 30
0.0
 10
-8.8776
 20
-14.52012
 30
0.0
 10
-8.87621
 20
-14.52459
 30
0.0
 10
-8.87481
 20
-14.52906
 30
0.0
 10
-8.87342
 20
-14.53356
 30
0.0
 10
-8.87342
 20
-14.53356
 30
0.0
 10
-8.87342
 20
-14.53356
 30
0.0
 10
-8.86674
 20
-14.54323
 30
0.0
 10
-8.86674
 20
-14.54323
 30
0.0
 10
-8.86674
 20
-14.54323
 30
0.0
 10
-8.85447
 20
-14.51281
 30
0.0
 10
-8.84463
 20
-14.48101
 30
0.0
 10
-8.83699
 20
-14.44831
 30
0.0
 10
-8.83699
 20
-14.44831
 30
0.0
 10
-8.83699
 20
-14.44831
 30
0.0
 10
-8.84696
 20
-14.44977
 30
0.0
 10
-8.84696
 20
-14.44977
 30
0.0
 10
-8.84696
 20
-14.44977
 30
0.0
 10
-8.9106
 20
-14.40548
 30
0.0
 10
-8.91277
 20
-14.38797
 30
0.0
 10
-8.90086
 20
-14.30118
 30
0.0
 10
-8.90086
 20
-14.30118
 30
0.0
 10
-8.89291
 20
-14.2434
 30
0.0
 10
-8.87266
 20
-14.20955
 30
0.0
 10
-8.81654
 20
-14.21487
 30
0.0
 10
-8.81654
 20
-14.21487
 30
0.0
 10
-8.81767
 20
-14.18563
 30
0.0
 10
-8.82002
 20
-14.15652
 30
0.0
 10
-8.82349
 20
-14.12781
 30
0.0
 10
-8.82349
 20
-14.12781
 30
0.0
 10
-8.82349
 20
-14.12781
 30
0.0
 10
-8.83373
 20
-14.13227
 30
0.0
 10
-8.83373
 20
-14.13227
 30
0.0
 10
-8.83373
 20
-14.13227
 30
0.0
 10
-8.89574
 20
-14.13209
 30
0.0
 10
-8.92256
 20
-14.12529
 30
0.0
 10
-8.92649
 20
-14.05548
 30
0.0
 10
-8.92649
 20
-14.05548
 30
0.0
 10
-8.92922
 20
-14.00747
 30
0.0
 10
-8.91047
 20
-13.96713
 30
0.0
 10
-8.85974
 20
-13.95556
 30
0.0
 10
-8.85974
 20
-13.95556
 30
0.0
 10
-8.85974
 20
-13.95556
 30
0.0
 10
-8.85848
 20
-13.95624
 30
0.0
 10
-8.85848
 20
-13.95624
 30
0.0
 10
-8.85848
 20
-13.95624
 30
0.0
 10
-8.86385
 20
-13.93785
 30
0.0
 10
-8.86964
 20
-13.91997
 30
0.0
 10
-8.87582
 20
-13.90272
 30
0.0
 10
-8.87582
 20
-13.90272
 30
0.0
 10
-8.88067
 20
-13.88917
 30
0.0
 10
-8.88578
 20
-13.87602
 30
0.0
 10
-8.89112
 20
-13.86319
 30
0.0
 10
-8.89112
 20
-13.86319
 30
0.0
 10
-8.89112
 20
-13.86319
 30
0.0
 10
-8.90868
 20
-13.88091
 30
0.0
 10
-8.90868
 20
-13.88091
 30
0.0
 10
-8.90868
 20
-13.88091
 30
0.0
 10
-8.97263
 20
-13.90879
 30
0.0
 10
-8.99137
 20
-13.87206
 30
0.0
 10
-9.02072
 20
-13.81244
 30
0.0
 10
-9.02072
 20
-13.81244
 30
0.0
 10
-9.03609
 20
-13.78121
 30
0.0
 10
-9.04857
 20
-13.69759
 30
0.0
 10
-9.00129
 20
-13.70013
 30
0.0
 10
-9.00129
 20
-13.70013
 30
0.0
 10
-9.00129
 20
-13.70013
 30
0.0
 10
-8.98125
 20
-13.70189
 30
0.0
 10
-8.98125
 20
-13.70189
 30
0.0
 10
-8.98125
 20
-13.70189
 30
0.0
 10
-9.00878
 20
-13.66394
 30
0.0
 10
-9.03886
 20
-13.62953
 30
0.0
 10
-9.07082
 20
-13.59749
 30
0.0
 10
-9.07082
 20
-13.59749
 30
0.0
 10
-9.07082
 20
-13.59749
 30
0.0
 10
-9.07627
 20
-13.61191
 30
0.0
 10
-9.07627
 20
-13.61191
 30
0.0
 10
-9.07627
 20
-13.61191
 30
0.0
 10
-9.14575
 20
-13.6886
 30
0.0
 10
-9.28473
 20
-13.55768
 30
0.0
 10
-9.22352
 20
-13.47293
 30
0.0
 10
-9.22352
 20
-13.47293
 30
0.0
 10
-9.2198
 20
-13.48911
 30
0.0
 10
-9.2236
 20
-13.50458
 30
0.0
 10
-9.23502
 20
-13.51931
 30
0.0
 10
-9.23502
 20
-13.51931
 30
0.0
 10
-9.23502
 20
-13.51931
 30
0.0
 10
-9.19004
 20
-13.49274
 30
0.0
 10
-9.19004
 20
-13.49274
 30
0.0
 10
-9.19004
 20
-13.49274
 30
0.0
 10
-9.22589
 20
-13.46444
 30
0.0
 10
-9.26289
 20
-13.43719
 30
0.0
 10
-9.30041
 20
-13.40981
 30
0.0
 10
-9.30041
 20
-13.40981
 30
0.0
 10
-9.30041
 20
-13.40981
 30
0.0
 10
-9.30998
 20
-13.42671
 30
0.0
 10
-9.30998
 20
-13.42671
 30
0.0
 10
-9.30998
 20
-13.42671
 30
0.0
 10
-9.3089
 20
-13.43027
 30
0.0
 10
-9.32385
 20
-13.46322
 30
0.0
 10
-9.34409
 20
-13.46745
 30
0.0
 10
-9.34409
 20
-13.46745
 30
0.0
 10
-9.36765
 20
-13.47244
 30
0.0
 10
-9.397
 20
-13.44357
 30
0.0
 10
-9.41602
 20
-13.42671
 30
0.0
 10
-9.41602
 20
-13.42671
 30
0.0
 10
-9.45824
 20
-13.38924
 30
0.0
 10
-9.4717
 20
-13.36263
 30
0.0
 10
-9.43785
 20
-13.31206
 30
0.0
 10
-9.43785
 20
-13.31206
 30
0.0
 10
-9.43785
 20
-13.31206
 30
0.0
 10
-9.43408
 20
-13.31049
 30
0.0
 10
-9.43408
 20
-13.31049
 30
0.0
 10
-9.43408
 20
-13.31049
 30
0.0
 10
-9.45671
 20
-13.29291
 30
0.0
 10
-9.47923
 20
-13.27479
 30
0.0
 10
-9.50152
 20
-13.25587
 30
0.0
 10
-9.50152
 20
-13.25587
 30
0.0
 10
-9.50152
 20
-13.25587
 30
0.0
 10
-9.50842
 20
-13.26356
 30
0.0
 10
-9.50842
 20
-13.26356
 30
0.0
 10
-9.50842
 20
-13.26356
 30
0.0
 10
-9.6011
 20
-13.35777
 30
0.0
 10
-9.71122
 20
-13.16212
 30
0.0
 10
-9.6319
 20
-13.13569
 30
0.0
 10
-9.6319
 20
-13.13569
 30
0.0
 10
-9.6319
 20
-13.13569
 30
0.0
 10
-9.62667
 20
-13.13461
 30
0.0
 10
-9.62667
 20
-13.13461
 30
0.0
 10
-9.62667
 20
-13.13461
 30
0.0
 10
-9.64089
 20
-13.11771
 30
0.0
 10
-9.65393
 20
-13.10016
 30
0.0
 10
-9.66587
 20
-13.08207
 30
0.0
 10
-9.66587
 20
-13.08207
 30
0.0
 10
-9.66587
 20
-13.08207
 30
0.0
 10
-9.66716
 20
-13.08275
 30
0.0
 10
-9.66716
 20
-13.08275
 30
0.0
 10
-9.66716
 20
-13.08275
 30
0.0
 10
-9.7385
 20
-13.09011
 30
0.0
 10
-9.73781
 20
-13.14336
 30
0.0
 10
-9.78907
 20
-13.04733
 30
0.0
 10
-9.78907
 20
-13.04733
 30
0.0
 10
-9.80096
 20
-13.025
 30
0.0
 10
-9.8207
 20
-12.98854
 30
0.0
 10
-9.81728
 20
-12.96229
 30
0.0
 10
-9.81728
 20
-12.96229
 30
0.0
 10
-9.81395
 20
-12.93684
 30
0.0
 10
-9.7646
 20
-12.891
 30
0.0
 10
-9.76419
 20
-12.91077
 30
0.0
 10
-9.76419
 20
-12.91077
 30
0.0
 10
-9.76419
 20
-12.91077
 30
0.0
 10
-9.7439
 20
-12.91343
 30
0.0
 10
-9.7439
 20
-12.91343
 30
0.0
 10
-9.7439
 20
-12.91343
 30
0.0
 10
-9.75368
 20
-12.88145
 30
0.0
 10
-9.76138
 20
-12.8487
 30
0.0
 10
-9.76734
 20
-12.81549
 30
0.0
 10
-9.76734
 20
-12.81549
 30
0.0
 10
-9.76734
 20
-12.81549
 30
0.0
 10
-9.78181
 20
-12.82258
 30
0.0
 10
-9.78181
 20
-12.82258
 30
0.0
 10
-9.78181
 20
-12.82258
 30
0.0
 10
-9.81458
 20
-12.81315
 30
0.0
 10
-9.83907
 20
-12.82067
 30
0.0
 10
-9.85925
 20
-12.78899
 30
0.0
 10
-9.85925
 20
-12.78899
 30
0.0
 10
-9.87955
 20
-12.75703
 30
0.0
 10
-9.87593
 20
-12.70303
 30
0.0
 10
-9.87098
 20
-12.6681
 30
0.0
 10
-9.87098
 20
-12.6681
 30
0.0
 10
-9.86398
 20
-12.61843
 30
0.0
 10
-9.84731
 20
-12.60897
 30
0.0
 10
-9.79946
 20
-12.59327
 30
0.0
 10
-9.79946
 20
-12.59327
 30
0.0
 10
-9.79946
 20
-12.59327
 30
0.0
 10
-9.7846
 20
-12.59754
 30
0.0
 10
-9.7846
 20
-12.59754
 30
0.0
 10
-9.7846
 20
-12.59754
 30
0.0
 10
-9.78448
 20
-12.57098
 30
0.0
 10
-9.78371
 20
-12.54454
 30
0.0
 10
-9.78239
 20
-12.51838
 30
0.0
 10
-9.78239
 20
-12.51838
 30
0.0
 10
-9.84961
 20
-12.528
 30
0.0
 10
-9.85951
 20
-12.46906
 30
0.0
 10
-9.8515
 20
-12.41568
 30
0.0
 10
-9.8515
 20
-12.41568
 30
0.0
 10
-9.84219
 20
-12.35375
 30
0.0
 10
-9.81812
 20
-12.32112
 30
0.0
 10
-9.76416
 20
-12.29783
 30
0.0
 10
-9.76416
 20
-12.29783
 30
0.0
 10
-9.76416
 20
-12.29783
 30
0.0
 10
-9.74644
 20
-12.30687
 30
0.0
 10
-9.74644
 20
-12.30687
 30
0.0
 10
-9.74644
 20
-12.30687
 30
0.0
 10
-9.73943
 20
-12.27632
 30
0.0
 10
-9.73223
 20
-12.24543
 30
0.0
 10
-9.72561
 20
-12.21451
 30
0.0
 10
-9.72561
 20
-12.21451
 30
0.0
 10
-9.72561
 20
-12.21451
 30
0.0
 10
-9.73331
 20
-12.21404
 30
0.0
 10
-9.73331
 20
-12.21404
 30
0.0
 10
-9.73331
 20
-12.21404
 30
0.0
 10
-9.81594
 20
-12.21391
 30
0.0
 10
-9.82049
 20
-12.13529
 30
0.0
 10
-9.80393
 20
-12.07498
 30
0.0
 10
-9.80393
 20
-12.07498
 30
0.0
 10
-9.78827
 20
-12.018
 30
0.0
 10
-9.75009
 20
-12.00786
 30
0.0
 10
-9.69918
 20
-11.99106
 30
0.0
 10
-9.69918
 20
-11.99106
 30
0.0
 10
-9.70097
 20
-11.94036
 30
0.0
 10
-9.71039
 20
-11.89188
 30
0.0
 10
-9.73166
 20
-11.84727
 30
0.0
 10
-9.73166
 20
-11.84727
 30
0.0
 10
-9.87233
 20
-11.55207
 30
0.0
 10
-10.3239
 20
-11.49212
 30
0.0
 10
-10.55544
 20
-11.69904
 30
0.0
 10
-10.55544
 20
-11.69904
 30
0.0
 10
-10.61523
 20
-11.75247
 30
0.0
 10
-10.66037
 20
-11.82373
 30
0.0
 10
-10.68167
 20
-11.91331
 30
0.0
 10
-10.68167
 20
-11.91331
 30
0.0
 10
-10.69482
 20
-11.96864
 30
0.0
 10
-10.69572
 20
-12.0247
 30
0.0
 10
-10.69071
 20
-12.08101
 30
0.0
 10
-10.69071
 20
-12.08101
 30
0.0
 10
-10.6508
 20
-12.07815
 30
0.0
 10
-10.62318
 20
-12.08691
 30
0.0
 10
-10.60864
 20
-12.12203
 30
0.0
 10
-10.60864
 20
-12.12203
 30
0.0
 10
-10.58213
 20
-12.18609
 30
0.0
 10
-10.59252
 20
-12.23807
 30
0.0
 10
-10.65495
 20
-12.25373
 30
0.0
 10
-10.65495
 20
-12.25373
 30
0.0
 10
-10.65495
 20
-12.25373
 30
0.0
 10
-10.66367
 20
-12.25326
 30
0.0
 10
-10.66367
 20
-12.25326
 30
0.0
 10
-10.66367
 20
-12.25326
 30
0.0
 10
-10.65889
 20
-12.27881
 30
0.0
 10
-10.65423
 20
-12.30431
 30
0.0
 10
-10.65024
 20
-12.32972
 30
0.0
 10
-10.65024
 20
-12.32972
 30
0.0
 10
-10.65024
 20
-12.32972
 30
0.0
 10
-10.6461
 20
-12.32868
 30
0.0
 10
-10.6461
 20
-12.32868
 30
0.0
 10
-10.6461
 20
-12.32868
 30
0.0
 10
-10.57253
 20
-12.32661
 30
0.0
 10
-10.57393
 20
-12.35241
 30
0.0
 10
-10.56673
 20
-12.42204
 30
0.0
 10
-10.56673
 20
-12.42204
 30
0.0
 10
-10.56213
 20
-12.46681
 30
0.0
 10
-10.56401
 20
-12.55337
 30
0.0
 10
-10.6373
 20
-12.51831
 30
0.0
 10
-10.6373
 20
-12.51831
 30
0.0
 10
-10.6373
 20
-12.51831
 30
0.0
 10
-10.63992
 20
-12.51679
 30
0.0
 10
-10.63992
 20
-12.51679
 30
0.0
 10
-10.63992
 20
-12.51679
 30
0.0
 10
-10.64163
 20
-12.54686
 30
0.0
 10
-10.64493
 20
-12.5768
 30
0.0
 10
-10.64982
 20
-12.60646
 30
0.0
 10
-10.64982
 20
-12.60646
 30
0.0
 10
-10.64982
 20
-12.60646
 30
0.0
 10
-10.64612
 20
-12.60652
 30
0.0
 10
-10.64612
 20
-12.60652
 30
0.0
 10
-10.64612
 20
-12.60652
 30
0.0
 10
-10.57685
 20
-12.57714
 30
0.0
 10
-10.57455
 20
-12.67169
 30
0.0
 10
-10.5823
 20
-12.7108
 30
0.0
 10
-10.5823
 20
-12.7108
 30
0.0
 10
-10.59616
 20
-12.78067
 30
0.0
 10
-10.61262
 20
-12.80398
 30
0.0
 10
-10.68581
 20
-12.80054
 30
0.0
 10
-10.68581
 20
-12.80054
 30
0.0
 10
-10.68581
 20
-12.80054
 30
0.0
 10
-10.70197
 20
-12.7895
 30
0.0
 10
-10.70197
 20
-12.7895
 30
0.0
 10
-10.70197
 20
-12.7895
 30
0.0
 10
-10.71277
 20
-12.81554
 30
0.0
 10
-10.72494
 20
-12.84105
 30
0.0
 10
-10.73846
 20
-12.86589
 30
0.0
 10
-10.73846
 20
-12.86589
 30
0.0
 10
-10.74527
 20
-12.8784
 30
0.0
 10
-10.75241
 20
-12.89075
 30
0.0
 10
-10.75991
 20
-12.90291
 30
0.0
 10
-10.75991
 20
-12.90291
 30
0.0
 10
-10.78252
 20
-12.9396
 30
0.0
 10
-10.80817
 20
-12.97528
 30
0.0
 10
-10.83633
 20
-13.00974
 30
0.0
 10
-10.83633
 20
-13.00974
 30
0.0
 10
-10.85362
 20
-13.03089
 30
0.0
 10
-10.87185
 20
-13.05158
 30
0.0
 10
-10.8909
 20
-13.07176
 30
0.0
 10
-10.8909
 20
-13.07176
 30
0.0
 10
-10.8909
 20
-13.07176
 30
0.0
 10
-10.87983
 20
-13.07394
 30
0.0
 10
-10.87983
 20
-13.07394
 30
0.0
 10
-10.87983
 20
-13.07394
 30
0.0
 10
-10.88061
 20
-13.05985
 30
0.0
 10
-10.84236
 20
-13.10841
 30
0.0
 10
-10.84668
 20
-13.13313
 30
0.0
 10
-10.84668
 20
-13.13313
 30
0.0
 10
-10.85019
 20
-13.15331
 30
0.0
 10
-10.87414
 20
-13.17372
 30
0.0
 10
-10.88861
 20
-13.18644
 30
0.0
 10
-10.88861
 20
-13.18644
 30
0.0
 10
-10.93792
 20
-13.22979
 30
0.0
 10
-10.97097
 20
-13.25925
 30
0.0
 10
-11.01654
 20
-13.20623
 30
0.0
 10
-11.01654
 20
-13.20623
 30
0.0
 10
-11.01654
 20
-13.20623
 30
0.0
 10
-11.02725
 20
-13.19686
 30
0.0
 10
-11.02725
 20
-13.19686
 30
0.0
 10
-11.02725
 20
-13.19686
 30
0.0
 10
-11.04903
 20
-13.21428
 30
0.0
 10
-11.07133
 20
-13.23109
 30
0.0
 10
-11.09407
 20
-13.24726
 30
0.0
 10
-11.09407
 20
-13.24726
 30
0.0
 10
-11.04087
 20
-13.28652
 30
0.0
 10
-11.06861
 20
-13.3228
 30
0.0
 10
-11.11257
 20
-13.35174
 30
0.0
 10
-11.11257
 20
-13.35174
 30
0.0
 10
-11.1346
 20
-13.36627
 30
0.0
 10
-11.16056
 20
-13.38642
 30
0.0
 10
-11.1885
 20
-13.38823
 30
0.0
 10
-11.1885
 20
-13.38823
 30
0.0
 10
-11.23032
 20
-13.39092
 30
0.0
 10
-11.22792
 20
-13.3673
 30
0.0
 10
-11.25026
 20
-13.34733
 30
0.0
 10
-11.25026
 20
-13.34733
 30
0.0
 10
-11.25026
 20
-13.34733
 30
0.0
 10
-11.25118
 20
-13.34511
 30
0.0
 10
-11.25118
 20
-13.34511
 30
0.0
 10
-11.25118
 20
-13.34511
 30
0.0
 10
-11.26883
 20
-13.35466
 30
0.0
 10
-11.28658
 20
-13.3638
 30
0.0
 10
-11.30436
 20
-13.37251
 30
0.0
 10
-11.30436
 20
-13.37251
 30
0.0
 10
-11.30436
 20
-13.37251
 30
0.0
 10
-11.29436
 20
-13.38262
 30
0.0
 10
-11.29436
 20
-13.38262
 30
0.0
 10
-11.29436
 20
-13.38262
 30
0.0
 10
-11.29545
 20
-13.37464
 30
0.0
 10
-11.29409
 20
-13.37327
 30
0.0
 10
-11.29026
 20
-13.37854
 30
0.0
 10
-11.29026
 20
-13.37854
 30
0.0
 10
-11.2653
 20
-13.4403
 30
0.0
 10
-11.28608
 20
-13.45758
 30
0.0
 10
-11.3446
 20
-13.47951
 30
0.0
 10
-11.3446
 20
-13.47951
 30
0.0
 10
-11.36225
 20
-13.48613
 30
0.0
 10
-11.39313
 20
-13.50159
 30
0.0
 10
-11.41262
 20
-13.49217
 30
0.0
 10
-11.41262
 20
-13.49217
 30
0.0
 10
-11.43138
 20
-13.48314
 30
0.0
 10
-11.438
 20
-13.43994
 30
0.0
 10
-11.44869
 20
-13.43554
 30
0.0
 10
-11.44869
 20
-13.43554
 30
0.0
 10
-11.44869
 20
-13.43554
 30
0.0
 10
-11.44911
 20
-13.43376
 30
0.0
 10
-11.44911
 20
-13.43376
 30
0.0
 10
-11.44911
 20
-13.43376
 30
0.0
 10
-11.46986
 20
-13.4415
 30
0.0
 10
-11.49034
 20
-13.4493
 30
0.0
 10
-11.51052
 20
-13.45728
 30
0.0
 10
-11.51052
 20
-13.45728
 30
0.0
 10
-11.51052
 20
-13.45728
 30
0.0
 10
-11.50602
 20
-13.462
 30
0.0
 10
-11.50602
 20
-13.462
 30
0.0
 10
-11.50602
 20
-13.462
 30
0.0
 10
-11.508
 20
-13.46334
 30
0.0
 10
-11.4807
 20
-13.51269
 30
0.0
 10
-11.49246
 20
-13.53649
 30
0.0
 10
-11.49246
 20
-13.53649
 30
0.0
 10
-11.50245
 20
-13.5567
 30
0.0
 10
-11.53353
 20
-13.56039
 30
0.0
 10
-11.55441
 20
-13.56882
 30
0.0
 10
-11.55441
 20
-13.56882
 30
0.0
 10
-11.60511
 20
-13.58925
 30
0.0
 10
-11.67466
 20
-13.6199
 30
0.0
 10
-11.69122
 20
-13.54137
 30
0.0
 10
-11.69122
 20
-13.54137
 30
0.0
 10
-11.69122
 20
-13.54137
 30
0.0
 10
-11.69121
 20
-13.54116
 30
0.0
 10
-11.69121
 20
-13.54116
 30
0.0
 10
-11.69121
 20
-13.54116
 30
0.0
 10
-11.7183
 20
-13.55637
 30
0.0
 10
-11.74461
 20
-13.57278
 30
0.0
 10
-11.77011
 20
-13.59073
 30
0.0
 10
-11.77011
 20
-13.59073
 30
0.0
 10
-11.73993
 20
-13.64326
 30
0.0
 10
-11.73823
 20
-13.67697
 30
0.0
 10
-11.78835
 20
-13.71379
 30
0.0
 10
-11.78835
 20
-13.71379
 30
0.0
 10
-11.80438
 20
-13.72557
 30
0.0
 10
-11.84162
 20
-13.75446
 30
0.0
 10
-11.86122
 20
-13.75764
 30
0.0
 10
-11.86122
 20
-13.75764
 30
0.0
 10
-11.8896
 20
-13.76225
 30
0.0
 10
-11.90415
 20
-13.74256
 30
0.0
 10
-11.9218
 20
-13.73088
 30
0.0
 10
-11.9218
 20
-13.73088
 30
0.0
 10
-11.94203
 20
-13.75542
 30
0.0
 10
-11.96124
 20
-13.78167
 30
0.0
 10
-11.97934
 20
-13.80927
 30
0.0
 10
-11.97934
 20
-13.80927
 30
0.0
 10
-11.93282
 20
-13.83432
 30
0.0
 10
-11.915
 20
-13.87213
 30
0.0
 10
-11.94028
 20
-13.92474
 30
0.0
 10
-11.94028
 20
-13.92474
 30
0.0
 10
-11.9502
 20
-13.94533
 30
0.0
 10
-11.97547
 20
-13.99225
 30
0.0
 10
-11.99979
 20
-14.00127
 30
0.0
 10
-11.99979
 20
-14.00127
 30
0.0
 10
-12.02296
 20
-14.00988
 30
0.0
 10
-12.0504
 20
-13.98799
 30
0.0
 10
-12.07047
 20
-13.99116
 30
0.0
 10
-12.07047
 20
-13.99116
 30
0.0
 10
-12.07047
 20
-13.99116
 30
0.0
 10
-12.07307
 20
-13.98836
 30
0.0
 10
-12.07307
 20
-13.98836
 30
0.0
 10
-12.07307
 20
-13.98836
 30
0.0
 10
-12.08119
 20
-14.00815
 30
0.0
 10
-12.08882
 20
-14.02821
 30
0.0
 10
-12.09582
 20
-14.0485
 30
0.0
 10
-12.09582
 20
-14.0485
 30
0.0
 10
-12.09582
 20
-14.0485
 30
0.0
 10
-12.0925
 20
-14.04847
 30
0.0
 10
-12.0925
 20
-14.04847
 30
0.0
 10
-12.0925
 20
-14.04847
 30
0.0
 10
-12.0624
 20
-14.09054
 30
0.0
 10
-12.03099
 20
-14.06736
 30
0.0
 10
-12.04047
 20
-14.13284
 30
0.0
 10
-12.04047
 20
-14.13284
 30
0.0
 10
-12.04433
 20
-14.15948
 30
0.0
 10
-12.04774
 20
-14.22084
 30
0.0
 10
-12.06771
 20
-14.24069
 30
0.0
 10
-12.06771
 20
-14.24069
 30
0.0
 10
-12.08806
 20
-14.26095
 30
0.0
 10
-12.12294
 20
-14.24836
 30
0.0
 10
-12.14542
 20
-14.26456
 30
0.0
 10
-12.14542
 20
-14.26456
 30
0.0
 10
-12.14542
 20
-14.26456
 30
0.0
 10
-12.14652
 20
-14.26343
 30
0.0
 10
-12.14652
 20
-14.26343
 30
0.0
 10
-12.14652
 20
-14.26343
 30
0.0
 10
-12.14979
 20
-14.28922
 30
0.0
 10
-12.15206
 20
-14.31495
 30
0.0
 10
-12.15317
 20
-14.34043
 30
0.0
 10
-12.15317
 20
-14.34043
 30
0.0
 10
-12.15317
 20
-14.34043
 30
0.0
 10
-12.14544
 20
-14.33512
 30
0.0
 10
-12.14544
 20
-14.33512
 30
0.0
 10
-12.14544
 20
-14.33512
 30
0.0
 10
-12.0714
 20
-14.32701
 30
0.0
 10
-12.07585
 20
-14.39114
 30
0.0
 10
-12.06992
 20
-14.44946
 30
0.0
 10
-12.06992
 20
-14.44946
 30
0.0
 10
-12.06209
 20
-14.52648
 30
0.0
 10
-12.08318
 20
-14.51252
 30
0.0
 10
-12.13551
 20
-14.54345
 30
0.0
 10
-12.13551
 20
-14.54345
 30
0.0
 10
-12.12982
 20
-14.56731
 30
0.0
 10
-12.12279
 20
-14.59052
 30
0.0
 10
-12.11429
 20
-14.61288
 30
0.0
 10
-12.11429
 20
-14.61288
 30
0.0
 10
-12.05829
 20
-14.60492
 30
0.0
 10
-12.04668
 20
-14.59224
 30
0.0
 10
-12.01087
 20
-14.64378
 30
0.0
 10
-12.01087
 20
-14.64378
 30
0.0
 10
-12.00342
 20
-14.65451
 30
0.0
 10
-11.97605
 20
-14.68704
 30
0.0
 10
-11.97422
 20
-14.69769
 30
0.0
 10
-11.97422
 20
-14.69769
 30
0.0
 10
-11.96999
 20
-14.72252
 30
0.0
 10
-11.99727
 20
-14.74616
 30
0.0
 10
-11.9955
 20
-14.76285
 30
0.0
 10
-11.9955
 20
-14.76285
 30
0.0
 10
-11.9955
 20
-14.76285
 30
0.0
 10
-12.02289
 20
-14.76205
 30
0.0
 10
-12.02289
 20
-14.76205
 30
0.0
 10
-12.02289
 20
-14.76205
 30
0.0
 10
-12.00011
 20
-14.78644
 30
0.0
 10
-11.97418
 20
-14.80841
 30
0.0
 10
-11.94477
 20
-14.82741
 30
0.0
 10
-11.94477
 20
-14.82741
 30
0.0
 10
-11.94477
 20
-14.82741
 30
0.0
 10
-11.94256
 20
-14.8246
 30
0.0
 10
-11.94256
 20
-14.8246
 30
0.0
 10
-11.94256
 20
-14.8246
 30
0.0
 10
-11.91138
 20
-14.79288
 30
0.0
 10
-11.90428
 20
-14.75531
 30
0.0
 10
-11.85435
 20
-14.76386
 30
0.0
 10
-11.85435
 20
-14.76386
 30
0.0
 10
-11.7784
 20
-14.7768
 30
0.0
 10
-11.75604
 20
-14.81998
 30
0.0
 10
-11.775
 20
-14.89075
 30
0.0
 10
-11.775
 20
-14.89075
 30
0.0
 10
-11.775
 20
-14.89075
 30
0.0
 10
-11.78248
 20
-14.89296
 30
0.0
 10
-11.78248
 20
-14.89296
 30
0.0
 10
-11.78248
 20
-14.89296
 30
0.0
 10
-11.75637
 20
-14.89865
 30
0.0
 10
-11.72871
 20
-14.90283
 30
0.0
 10
-11.69946
 20
-14.90538
 30
0.0
 10
-11.69946
 20
-14.90538
 30
0.0
 10
-11.69946
 20
-14.90538
 30
0.0
 10
-11.70005
 20
-14.90398
 30
0.0
 10
-11.70005
 20
-14.90398
 30
0.0
 10
-11.70005
 20
-14.90398
 30
0.0
 10
-11.68224
 20
-14.84566
 30
0.0
 10
-11.69885
 20
-14.82018
 30
0.0
 10
-11.62699
 20
-14.8158
 30
0.0
 10
-11.62699
 20
-14.8158
 30
0.0
 10
-11.56842
 20
-14.81223
 30
0.0
 10
-11.47224
 20
-14.80759
 30
0.0
 10
-11.48813
 20
-14.88939
 30
0.0
 10
-11.48813
 20
-14.88939
 30
0.0
 10
-11.46588
 20
-14.8835
 30
0.0
 10
-11.44422
 20
-14.87628
 30
0.0
 10
-11.4232
 20
-14.86789
 30
0.0
 10
-11.4232
 20
-14.86789
 30
0.0
 10
-11.4232
 20
-14.86789
 30
0.0
 10
-11.43105
 20
-14.86429
 30
0.0
 10
-11.43105
 20
-14.86429
 30
0.0
 10
-11.43105
 20
-14.86429
 30
0.0
 10
-11.42187
 20
-14.86129
 30
0.0
 10
-11.41284
 20
-14.85791
 30
0.0
 10
-11.40396
 20
-14.85416
 30
0.0
 10
-11.40396
 20
-14.85416
 30
0.0
 10
-11.42177
 20
-14.78964
 30
0.0
 10
-11.42604
 20
-14.78163
 30
0.0
 10
-11.36932
 20
-14.74425
 30
0.0
 10
-11.36932
 20
-14.74425
 30
0.0
 10
-11.32546
 20
-14.71536
 30
0.0
 10
-11.28509
 20
-14.69017
 30
0.0
 10
-11.24583
 20
-14.74523
 30
0.0
 10
-11.24583
 20
-14.74523
 30
0.0
 10
-11.24583
 20
-14.74523
 30
0.0
 10
-11.24387
 20
-14.75314
 30
0.0
 10
-11.24387
 20
-14.75314
 30
0.0
 10
-11.24387
 20
-14.75314
 30
0.0
 10
-11.22409
 20
-14.73441
 30
0.0
 10
-11.2057
 20
-14.71437
 30
0.0
 10
-11.18895
 20
-14.69313
 30
0.0
 10
-11.18895
 20
-14.69313
 30
0.0
 10
-11.18895
 20
-14.69313
 30
0.0
 10
-11.21055
 20
-14.68789
 30
0.0
 10
-11.21055
 20
-14.68789
 30
0.0
 10
-11.21055
 20
-14.68789
 30
0.0
 10
-11.20674
 20
-14.68365
 30
0.0
 10
-11.20378
 20
-14.68474
 30
0.0
 10
-11.20209
 20
-14.68017
 30
0.0
 10
-11.20209
 20
-14.68017
 30
0.0
 10
-11.22315
 20
-14.66934
 30
0.0
 10
-11.24098
 20
-14.6517
 30
0.0
 10
-11.25312
 20
-14.63131
 30
0.0
 10
-11.25312
 20
-14.63131
 30
0.0
 10
-11.23616
 20
-14.6004
 30
0.0
 10
-11.21638
 20
-14.56746
 30
0.0
 10
-11.19294
 20
-14.54
 30
0.0
 10
-11.19294
 20
-14.54
 30
0.0
 10
-11.1828
 20
-14.52813
 30
0.0
 10
-11.18116
 20
-14.51537
 30
0.0
 10
-11.16658
 20
-14.51139
 30
0.0
 10
-11.16658
 20
-14.51139
 30
0.0
 10
-11.14754
 20
-14.50623
 30
0.0
 10
-11.10578
 20
-14.52501
 30
0.0
 10
-11.10914
 20
-14.53795
 30
0.0
 10
-11.10914
 20
-14.53795
 30
0.0
 10
-11.10914
 20
-14.53795
 30
0.0
 10
-11.10543
 20
-14.54424
 30
0.0
 10
-11.10543
 20
-14.54424
 30
0.0
 10
-11.10543
 20
-14.54424
 30
0.0
 10
-11.09413
 20
-14.51352
 30
0.0
 10
-11.08564
 20
-14.48172
 30
0.0
 10
-11.08033
 20
-14.44916
 30
0.0
 10
-11.08033
 20
-14.44916
 30
0.0
 10
-11.08033
 20
-14.44916
 30
0.0
 10
-11.10032
 20
-14.45858
 30
0.0
 10
-11.10032
 20
-14.45858
 30
0.0
 10
-11.10032
 20
-14.45858
 30
0.0
 10
-11.15109
 20
-14.43375
 30
0.0
 10
-11.16235
 20
-14.4438
 30
0.0
 10
-11.1542
 20
-14.38029
 30
0.0
 10
-11.1542
 20
-14.38029
 30
0.0
 10
-11.14799
 20
-14.33177
 30
0.0
 10
-11.16225
 20
-14.26283
 30
0.0
 10
-11.09151
 20
-14.27337
 30
0.0
 10
-11.09151
 20
-14.27337
 30
0.0
 10
-11.09151
 20
-14.27337
 30
0.0
 10
-11.08235
 20
-14.27538
 30
0.0
 10
-11.08235
 20
-14.27538
 30
0.0
 10
-11.08235
 20
-14.27538
 30
0.0
 10
-11.08894
 20
-14.24003
 30
0.0
 10
-11.0994
 20
-14.20452
 30
0.0
 10
-11.11409
 20
-14.16925
 30
0.0
 10
-11.11409
 20
-14.16925
 30
0.0
 10
-11.11409
 20
-14.16925
 30
0.0
 10
-11.12238
 20
-14.18961
 30
0.0
 10
-11.12238
 20
-14.18961
 30
0.0
 10
-11.12238
 20
-14.18961
 30
0.0
 10
-11.12077
 20
-14.18201
 30
0.0
 10
-11.12322
 20
-14.1772
 30
0.0
 10
-11.12979
 20
-14.17516
 30
0.0
 10
-11.12979
 20
-14.17516
 30
0.0
 10
-11.17506
 20
-14.1919
 30
0.0
 10
-11.18961
 20
-14.19097
 30
0.0
 10
-11.22138
 20
-14.1546
 30
0.0
 10
-11.22138
 20
-14.1546
 30
0.0
 10
-11.25753
 20
-14.11323
 30
0.0
 10
-11.30288
 20
-14.0477
 30
0.0
 10
-11.2238
 20
-14.02644
 30
0.0
 10
-11.2238
 20
-14.02644
 30
0.0
 10
-11.2238
 20
-14.02644
 30
0.0
 10
-11.20623
 20
-14.02044
 30
0.0
 10
-11.20623
 20
-14.02044
 30
0.0
 10
-11.20623
 20
-14.02044
 30
0.0
 10
-11.24415
 20
-13.98
 30
0.0
 10
-11.29184
 20
-13.94858
 30
0.0
 10
-11.34444
 20
-13.94026
 30
0.0
 10
-11.34444
 20
-13.94026
 30
0.0
 10
-11.34444
 20
-13.94026
 30
0.0
 10
-11.29875
 20
-13.98233
 30
0.0
 10
-11.29875
 20
-13.98233
 30
0.0
 10
-11.29875
 20
-13.98233
 30
0.0
 10
-11.30095
 20
-13.97295
 30
0.0
 10
-11.30521
 20
-13.96983
 30
0.0
 10
-11.31154
 20
-13.97295
 30
0.0
 10
-11.31154
 20
-13.97295
 30
0.0
 10
-11.30339
 20
-14.03604
 30
0.0
 10
-11.44614
 20
-14.02967
 30
0.0
 10
-11.45751
 20
-13.9691
 30
0.0
 10
-11.45751
 20
-13.9691
 30
0.0
 10
-11.45751
 20
-13.9691
 30
0.0
 10
-11.45943
 20
-13.9608
 30
0.0
 10
-11.45943
 20
-13.9608
 30
0.0
 10
-11.45943
 20
-13.9608
 30
0.0
 10
-11.50512
 20
-13.98426
 30
0.0
 10
-11.55258
 20
-14.02555
 30
0.0
 10
-11.56515
 20
-14.07175
 30
0.0
 10
-11.56515
 20
-14.07175
 30
0.0
 10
-11.56515
 20
-14.07175
 30
0.0
 10
-11.55011
 20
-14.0617
 30
0.0
 10
-11.55011
 20
-14.0617
 30
0.0
 10
-11.55011
 20
-14.0617
 30
0.0
 10
-11.52401
 20
-14.03013
 30
0.0
 10
-11.48573
 20
-14.05998
 30
0.0
 10
-11.47076
 20
-14.08498
 30
0.0
 10
-11.47076
 20
-14.08498
 30
0.0
 10
-11.4461
 20
-14.12612
 30
0.0
 10
-11.44641
 20
-14.15628
 30
0.0
 10
-11.47515
 20
-14.19399
 30
0.0
 10
-11.47515
 20
-14.19399
 30
0.0
 10
-11.47515
 20
-14.19399
 30
0.0
 10
-11.51823
 20
-14.18729
 30
0.0
 10
-11.51823
 20
-14.18729
 30
0.0
 10
-11.51823
 20
-14.18729
 30
0.0
 10
-11.49849
 20
-14.20242
 30
0.0
 10
-11.45616
 20
-14.22235
 30
0.0
 10
-11.45086
 20
-14.24048
 30
0.0
 10
-11.45086
 20
-14.24048
 30
0.0
 10
-11.43486
 20
-14.29544
 30
0.0
 10
-11.55819
 20
-14.32375
 30
0.0
 10
-11.59332
 20
-14.32652
 30
0.0
 10
-11.59332
 20
-14.32652
 30
0.0
 10
-11.7386
 20
-14.33781
 30
0.0
 10
-11.84567
 20
-14.21779
 30
0.0
 10
-11.83628
 20
-14.07747
 30
0.0
 10
-11.83628
 20
-14.07747
 30
0.0
 10
-11.82671
 20
-13.93491
 30
0.0
 10
-11.72037
 20
-13.79761
 30
0.0
 10
-11.60391
 20
-13.72185
 30
0.0
 10
-11.60391
 20
-13.72185
 30
0.0
 10
-11.11246
 20
-13.40211
 30
0.0
 10
-10.42666
 20
-13.9443
 30
0.0
 10
-10.50291
 20
-14.48935
 30
0.0
 10
-10.50291
 20
-14.48935
 30
0.0
 10
-10.61136
 20
-15.26457
 30
0.0
 10
-11.42796
 20
-15.81681
 30
0.0
 10
-12.14725
 20
-15.40188
 30
0.0
 10
-12.14725
 20
-15.40188
 30
0.0
 10
-12.60561
 20
-15.13753
 30
0.0
 10
-12.72391
 20
-14.53865
 30
0.0
 10
-12.65933
 20
-14.04861
 30
0.0
 10
-12.65933
 20
-14.04861
 30
0.0
 10
-12.62672
 20
-13.80128
 30
0.0
 10
-12.56058
 20
-13.55659
 30
0.0
 10
-12.43492
 20
-13.3395
 30
0.0
 10
-12.43492
 20
-13.3395
 30
0.0
 10
-12.37326
 20
-13.23297
 30
0.0
 10
-12.30735
 20
-13.14021
 30
0.0
 10
-12.20745
 20
-13.0675
 30
0.0
 10
-12.20745
 20
-13.0675
 30
0.0
 10
-12.09319
 20
-12.9843
 30
0.0
 10
-11.9672
 20
-12.91847
 30
0.0
 10
-11.83978
 20
-12.85808
 30
0.0
 10
-11.83978
 20
-12.85808
 30
0.0
 10
-11.69941
 20
-12.79158
 30
0.0
 10
-11.54598
 20
-12.7106
 30
0.0
 10
-11.47362
 20
-12.56552
 30
0.0
 10
-11.47362
 20
-12.56552
 30
0.0
 10
-11.42673
 20
-12.47152
 30
0.0
 10
-11.41059
 20
-12.34783
 30
0.0
 10
-11.42105
 20
-12.24435
 30
0.0
 10
-11.42105
 20
-12.24435
 30
0.0
 10
-11.43906
 20
-12.06585
 30
0.0
 10
-11.54418
 20
-11.91111
 30
0.0
 10
-11.66523
 20
-11.78262
 30
0.0
 10
-11.66523
 20
-11.78262
 30
0.0
 10
-11.89187
 20
-11.54199
 30
0.0
 10
-12.10767
 20
-11.6056
 30
0.0
 10
-12.35027
 20
-11.80019
 30
0.0
 10
-12.35027
 20
-11.80019
 30
0.0
 10
-12.49111
 20
-11.91318
 30
0.0
 10
-12.60684
 20
-12.04974
 30
0.0
 10
-12.70933
 20
-12.19893
 30
0.0
 10
-12.70933
 20
-12.19893
 30
0.0
 10
-12.70933
 20
-12.19893
 30
0.0
 10
-12.69666
 20
-12.2052
 30
0.0
 10
-12.69666
 20
-12.2052
 30
0.0
 10
-12.69666
 20
-12.2052
 30
0.0
 10
-12.70236
 20
-12.19786
 30
0.0
 10
-12.70269
 20
-12.19446
 30
0.0
 10
-12.69762
 20
-12.19497
 30
0.0
 10
-12.69762
 20
-12.19497
 30
0.0
 10
-12.63977
 20
-12.23238
 30
0.0
 10
-12.65114
 20
-12.26541
 30
0.0
 10
-12.69017
 20
-12.31011
 30
0.0
 10
-12.69017
 20
-12.31011
 30
0.0
 10
-12.70271
 20
-12.32448
 30
0.0
 10
-12.72567
 20
-12.36173
 30
0.0
 10
-12.74298
 20
-12.36847
 30
0.0
 10
-12.74298
 20
-12.36847
 30
0.0
 10
-12.76573
 20
-12.37731
 30
0.0
 10
-12.77303
 20
-12.36654
 30
0.0
 10
-12.79807
 20
-12.35514
 30
0.0
 10
-12.79807
 20
-12.35514
 30
0.0
 10
-12.79807
 20
-12.35514
 30
0.0
 10
-12.80436
 20
-12.34624
 30
0.0
 10
-12.80436
 20
-12.34624
 30
0.0
 10
-12.80436
 20
-12.34624
 30
0.0
 10
-12.81889
 20
-12.37008
 30
0.0
 10
-12.83322
 20
-12.39412
 30
0.0
 10
-12.84737
 20
-12.41835
 30
0.0
 10
-12.84737
 20
-12.41835
 30
0.0
 10
-12.79287
 20
-12.44139
 30
0.0
 10
-12.80913
 20
-12.48511
 30
0.0
 10
-12.82969
 20
-12.53226
 30
0.0
 10
-12.82969
 20
-12.53226
 30
0.0
 10
-12.85743
 20
-12.59593
 30
0.0
 10
-12.88122
 20
-12.65417
 30
0.0
 10
-12.948
 20
-12.6021
 30
0.0
 10
-12.948
 20
-12.6021
 30
0.0
 10
-12.948
 20
-12.6021
 30
0.0
 10
-12.94953
 20
-12.60024
 30
0.0
 10
-12.94953
 20
-12.60024
 30
0.0
 10
-12.94953
 20
-12.60024
 30
0.0
 10
-12.96253
 20
-12.62409
 30
0.0
 10
-12.97547
 20
-12.64801
 30
0.0
 10
-12.98837
 20
-12.67197
 30
0.0
 10
-12.98837
 20
-12.67197
 30
0.0
 10
-12.93657
 20
-12.69078
 30
0.0
 10
-12.94707
 20
-12.73744
 30
0.0
 10
-12.96983
 20
-12.78269
 30
0.0
 10
-12.96983
 20
-12.78269
 30
0.0
 10
-12.99633
 20
-12.8354
 30
0.0
 10
-13.02618
 20
-12.91602
 30
0.0
 10
-13.08911
 20
-12.86227
 30
0.0
 10
-13.08911
 20
-12.86227
 30
0.0
 10
-13.08911
 20
-12.86227
 30
0.0
 10
-13.0901
 20
-12.86076
 30
0.0
 10
-13.0901
 20
-12.86076
 30
0.0
 10
-13.0901
 20
-12.86076
 30
0.0
 10
-13.10555
 20
-12.88913
 30
0.0
 10
-13.12109
 20
-12.91742
 30
0.0
 10
-13.13679
 20
-12.94557
 30
0.0
 10
-13.13679
 20
-12.94557
 30
0.0
 10
-13.07926
 20
-12.91236
 30
0.0
 10
-13.08911
 20
-13.01048
 30
0.0
 10
-13.10222
 20
-13.03771
 30
0.0
 10
-13.10222
 20
-13.03771
 30
0.0
 10
-13.12449
 20
-13.08399
 30
0.0
 10
-13.16229
 20
-13.18212
 30
0.0
 10
-13.2258
 20
-13.12243
 30
0.0
 10
-13.2258
 20
-13.12243
 30
0.0
 10
-13.2258
 20
-13.12243
 30
0.0
 10
-13.23491
 20
-13.11473
 30
0.0
 10
-13.23491
 20
-13.11473
 30
0.0
 10
-13.23491
 20
-13.11473
 30
0.0
 10
-13.25256
 20
-13.14378
 30
0.0
 10
-13.27054
 20
-13.17257
 30
0.0
 10
-13.28892
 20
-13.20098
 30
0.0
 10
-13.28892
 20
-13.20098
 30
0.0
 10
-13.28892
 20
-13.20098
 30
0.0
 10
-13.28313
 20
-13.20181
 30
0.0
 10
-13.28313
 20
-13.20181
 30
0.0
 10
-13.28313
 20
-13.20181
 30
0.0
 10
-13.2163
 20
-13.17246
 30
0.0
 10
-13.24622
 20
-13.27625
 30
0.0
 10
-13.26207
 20
-13.30423
 30
0.0
 10
-13.26207
 20
-13.30423
 30
0.0
 10
-13.27118
 20
-13.32028
 30
0.0
 10
-13.29771
 20
-13.37037
 30
0.0
 10
-13.31499
 20
-13.37751
 30
0.0
 10
-13.31499
 20
-13.37751
 30
0.0
 10
-13.34383
 20
-13.38947
 30
0.0
 10
-13.36912
 20
-13.3565
 30
0.0
 10
-13.38896
 20
-13.35174
 30
0.0
 10
-13.38896
 20
-13.35174
 30
0.0
 10
-13.38896
 20
-13.35174
 30
0.0
 10
-13.39144
 20
-13.34911
 30
0.0
 10
-13.39144
 20
-13.34911
 30
0.0
 10
-13.39144
 20
-13.34911
 30
0.0
 10
-13.4088
 20
-13.37242
 30
0.0
 10
-13.42656
 20
-13.39536
 30
0.0
 10
-13.44477
 20
-13.4179
 30
0.0
 10
-13.44477
 20
-13.4179
 30
0.0
 10
-13.36979
 20
-13.42646
 30
0.0
 10
-13.4209
 20
-13.5117
 30
0.0
 10
-13.45062
 20
-13.54956
 30
0.0
 10
-13.45062
 20
-13.54956
 30
0.0
 10
-13.46411
 20
-13.56675
 30
0.0
 10
-13.5009
 20
-13.6155
 30
0.0
 10
-13.52613
 20
-13.61708
 30
0.0
 10
-13.52613
 20
-13.61708
 30
0.0
 10
-13.55286
 20
-13.61871
 30
0.0
 10
-13.5696
 20
-13.57926
 30
0.0
 10
-13.5874
 20
-13.57665
 30
0.0
 10
-13.5874
 20
-13.57665
 30
0.0
 10
-13.5874
 20
-13.57665
 30
0.0
 10
-13.58787
 20
-13.57587
 30
0.0
 10
-13.58787
 20
-13.57587
 30
0.0
 10
-13.58787
 20
-13.57587
 30
0.0
 10
-13.61153
 20
-13.599
 30
0.0
 10
-13.6359
 20
-13.6215
 30
0.0
 10
-13.66111
 20
-13.64322
 30
0.0
 10
-13.66111
 20
-13.64322
 30
0.0
 10
-13.66111
 20
-13.64322
 30
0.0
 10
-13.6359
 20
-13.6516
 30
0.0
 10
-13.6359
 20
-13.6516
 30
0.0
 10
-13.6359
 20
-13.6516
 30
0.0
 10
-13.63932
 20
-13.64379
 30
0.0
 10
-13.63985
 20
-13.63612
 30
0.0
 10
-13.63754
 20
-13.62861
 30
0.0
 10
-13.63754
 20
-13.62861
 30
0.0
 10
-13.59471
 20
-13.68436
 30
0.0
 10
-13.6058
 20
-13.70943
 30
0.0
 10
-13.65516
 20
-13.7525
 30
0.0
 10
-13.65516
 20
-13.7525
 30
0.0
 10
-13.67212
 20
-13.76725
 30
0.0
 10
-13.69924
 20
-13.78965
 30
0.0
 10
-13.7229
 20
-13.79185
 30
0.0
 10
-13.7229
 20
-13.79185
 30
0.0
 10
-13.75821
 20
-13.79516
 30
0.0
 10
-13.75996
 20
-13.77492
 30
0.0
 10
-13.78584
 20
-13.75743
 30
0.0
 10
-13.78584
 20
-13.75743
 30
0.0
 10
-13.78584
 20
-13.75743
 30
0.0
 10
-13.79609
 20
-13.74645
 30
0.0
 10
-13.79609
 20
-13.74645
 30
0.0
 10
-13.79609
 20
-13.74645
 30
0.0
 10
-13.81295
 20
-13.75785
 30
0.0
 10
-13.83004
 20
-13.76902
 30
0.0
 10
-13.84759
 20
-13.77978
 30
0.0
 10
-13.84759
 20
-13.77978
 30
0.0
 10
-13.84759
 20
-13.77978
 30
0.0
 10
-13.86697
 20
-13.79161
 30
0.0
 10
-13.86697
 20
-13.79161
 30
0.0
 10
-13.86697
 20
-13.79161
 30
0.0
 10
-13.86697
 20
-13.79161
 30
0.0
 10
-13.85639
 20
-13.79715
 30
0.0
 10
-13.85639
 20
-13.79715
 30
0.0
 10
-13.85639
 20
-13.79715
 30
0.0
 10
-13.80365
 20
-13.83213
 30
0.0
 10
-13.96095
 20
-14.03409
 30
0.0
 10
-14.03279
 20
-13.91179
 30
0.0
 10
-14.03279
 20
-13.91179
 30
0.0
 10
-14.03279
 20
-13.91179
 30
0.0
 10
-14.03949
 20
-13.89708
 30
0.0
 10
-14.03949
 20
-13.89708
 30
0.0
 10
-14.03949
 20
-13.89708
 30
0.0
 10
-14.06633
 20
-13.91398
 30
0.0
 10
-14.09301
 20
-13.93122
 30
0.0
 10
-14.11929
 20
-13.94891
 30
0.0
 10
-14.11929
 20
-13.94891
 30
0.0
 10
-14.11929
 20
-13.94891
 30
0.0
 10
-14.11215
 20
-13.95148
 30
0.0
 10
-14.11215
 20
-13.95148
 30
0.0
 10
-14.11215
 20
-13.95148
 30
0.0
 10
-14.0698
 20
-14.00525
 30
0.0
 10
-14.10379
 20
-14.03783
 30
0.0
 10
-14.14673
 20
-14.07498
 30
0.0
 10
-14.14673
 20
-14.07498
 30
0.0
 10
-14.20362
 20
-14.12421
 30
0.0
 10
-14.23603
 20
-14.13309
 30
0.0
 10
-14.28855
 20
-14.07935
 30
0.0
 10
-14.28855
 20
-14.07935
 30
0.0
 10
-14.28855
 20
-14.07935
 30
0.0
 10
-14.28914
 20
-14.07802
 30
0.0
 10
-14.28914
 20
-14.07802
 30
0.0
 10
-14.28914
 20
-14.07802
 30
0.0
 10
-14.31501
 20
-14.10088
 30
0.0
 10
-14.33957
 20
-14.12464
 30
0.0
 10
-14.36247
 20
-14.14946
 30
0.0
 10
-14.36247
 20
-14.14946
 30
0.0
 10
-14.36247
 20
-14.14946
 30
0.0
 10
-14.35119
 20
-14.15124
 30
0.0
 10
-14.35119
 20
-14.15124
 30
0.0
 10
-14.35119
 20
-14.15124
 30
0.0
 10
-14.35655
 20
-14.1433
 30
0.0
 10
-14.35597
 20
-14.1571
 30
0.0
 10
-14.35119
 20
-14.15124
 30
0.0
 10
-14.35119
 20
-14.15124
 30
0.0
 10
-14.28787
 20
-14.18619
 30
0.0
 10
-14.31696
 20
-14.23242
 30
0.0
 10
-14.34996
 20
-14.27758
 30
0.0
 10
-14.34996
 20
-14.27758
 30
0.0
 10
-14.3655
 20
-14.29884
 30
0.0
 10
-14.39373
 20
-14.34393
 30
0.0
 10
-14.41863
 20
-14.35461
 30
0.0
 10
-14.41863
 20
-14.35461
 30
0.0
 10
-14.44344
 20
-14.36525
 30
0.0
 10
-14.45964
 20
-14.35078
 30
0.0
 10
-14.48258
 20
-14.34835
 30
0.0
 10
-14.48258
 20
-14.34835
 30
0.0
 10
-14.48258
 20
-14.34835
 30
0.0
 10
-14.48868
 20
-14.33802
 30
0.0
 10
-14.48868
 20
-14.33802
 30
0.0
 10
-14.48868
 20
-14.33802
 30
0.0
 10
-14.5023
 20
-14.36934
 30
0.0
 10
-14.51323
 20
-14.40216
 30
0.0
 10
-14.52107
 20
-14.43666
 30
0.0
 10
-14.52107
 20
-14.43666
 30
0.0
 10
-14.52107
 20
-14.43666
 30
0.0
 10
-14.51786
 20
-14.43654
 30
0.0
 10
-14.51786
 20
-14.43654
 30
0.0
 10
-14.51786
 20
-14.43654
 30
0.0
 10
-14.45093
 20
-14.4461
 30
0.0
 10
-14.46052
 20
-14.48997
 30
0.0
 10
-14.46052
 20
-14.5456
 30
0.0
 10
-14.46052
 20
-14.5456
 30
0.0
 10
-14.46052
 20
-14.57002
 30
0.0
 10
-14.45236
 20
-14.61203
 30
0.0
 10
-14.46592
 20
-14.63407
 30
0.0
 10
-14.46592
 20
-14.63407
 30
0.0
 10
-14.47846
 20
-14.65446
 30
0.0
 10
-14.50887
 20
-14.65825
 30
0.0
 10
-14.52591
 20
-14.67394
 30
0.0
 10
-14.52591
 20
-14.67394
 30
0.0
 10
-14.52099
 20
-14.70057
 30
0.0
 10
-14.51407
 20
-14.72541
 30
0.0
 10
-14.50533
 20
-14.74846
 30
0.0
 10
-14.50533
 20
-14.74846
 30
0.0
 10
-14.45436
 20
-14.73241
 30
0.0
 10
-14.44252
 20
-14.72692
 30
0.0
 10
-14.40309
 20
-14.76531
 30
0.0
 10
-14.40309
 20
-14.76531
 30
0.0
 10
-14.34174
 20
-14.8251
 30
0.0
 10
-14.37181
 20
-14.83005
 30
0.0
 10
-14.36792
 20
-14.89956
 30
0.0
 10
-14.36792
 20
-14.89956
 30
0.0
 10
-14.36792
 20
-14.89956
 30
0.0
 10
-14.39402
 20
-14.90106
 30
0.0
 10
-14.39402
 20
-14.90106
 30
0.0
 10
-14.39402
 20
-14.90106
 30
0.0
 10
-14.37036
 20
-14.91947
 30
0.0
 10
-14.34437
 20
-14.93475
 30
0.0
 10
-14.31659
 20
-14.947
 30
0.0
 10
-14.31659
 20
-14.947
 30
0.0
 10
-14.31659
 20
-14.947
 30
0.0
 10
-14.31879
 20
-14.93429
 30
0.0
 10
-14.31879
 20
-14.93429
 30
0.0
 10
-14.31879
 20
-14.93429
 30
0.0
 10
-14.29173
 20
-14.86316
 30
0.0
 10
-14.31197
 20
-14.86971
 30
0.0
 10
-14.2282
 20
-14.88303
 30
0.0
 10
-14.2282
 20
-14.88303
 30
0.0
 10
-14.20473
 20
-14.88677
 30
0.0
 10
-14.15295
 20
-14.88912
 30
0.0
 10
-14.13494
 20
-14.90445
 30
0.0
 10
-14.13494
 20
-14.90445
 30
0.0
 10
-14.11257
 20
-14.92344
 30
0.0
 10
-14.1261
 20
-14.95083
 30
0.0
 10
-14.11656
 20
-14.97452
 30
0.0
 10
-14.11656
 20
-14.97452
 30
0.0
 10
-14.11656
 20
-14.97452
 30
0.0
 10
-14.12682
 20
-14.98521
 30
0.0
 10
-14.12682
 20
-14.98521
 30
0.0
 10
-14.12682
 20
-14.98521
 30
0.0
 10
-14.09467
 20
-14.98546
 30
0.0
 10
-14.06185
 20
-14.98305
 30
0.0
 10
-14.02887
 20
-14.97806
 30
0.0
 10
-14.02887
 20
-14.97806
 30
0.0
 10
-14.02887
 20
-14.97806
 30
0.0
 10
-14.03279
 20
-14.97012
 30
0.0
 10
-14.03279
 20
-14.97012
 30
0.0
 10
-14.03279
 20
-14.97012
 30
0.0
 10
-14.02355
 20
-14.9363
 30
0.0
 10
-14.04411
 20
-14.90715
 30
0.0
 10
-14.01693
 20
-14.87899
 30
0.0
 10
-14.01693
 20
-14.87899
 30
0.0
 10
-14.00382
 20
-14.8654
 30
0.0
 10
-13.97724
 20
-14.86062
 30
0.0
 10
-13.96008
 20
-14.85597
 30
0.0
 10
-13.96008
 20
-14.85597
 30
0.0
 10
-13.88454
 20
-14.8354
 30
0.0
 10
-13.86258
 20
-14.84607
 30
0.0
 10
-13.83435
 20
-14.9172
 30
0.0
 10
-13.83435
 20
-14.9172
 30
0.0
 10
-13.83435
 20
-14.9172
 30
0.0
 10
-13.8377
 20
-14.92287
 30
0.0
 10
-13.8377
 20
-14.92287
 30
0.0
 10
-13.8377
 20
-14.92287
 30
0.0
 10
-13.81165
 20
-14.91214
 30
0.0
 10
-13.78533
 20
-14.89992
 30
0.0
 10
-13.75995
 20
-14.88621
 30
0.0
 10
-13.75995
 20
-14.88621
 30
0.0
 10
-13.75995
 20
-14.88621
 30
0.0
 10
-13.77261
 20
-14.88191
 30
0.0
 10
-13.77261
 20
-14.88191
 30
0.0
 10
-13.77261
 20
-14.88191
 30
0.0
 10
-13.76565
 20
-14.86318
 30
0.0
 10
-13.79658
 20
-14.8323
 30
0.0
 10
-13.7616
 20
-14.79372
 30
0.0
 10
-13.7616
 20
-14.79372
 30
0.0
 10
-13.74575
 20
-14.77626
 30
0.0
 10
-13.71273
 20
-14.74691
 30
0.0
 10
-13.68852
 20
-14.74603
 30
0.0
 10
-13.68852
 20
-14.74603
 30
0.0
 10
-13.66648
 20
-14.74523
 30
0.0
 10
-13.64082
 20
-14.77401
 30
0.0
 10
-13.63151
 20
-14.77608
 30
0.0
 10
-13.63151
 20
-14.77608
 30
0.0
 10
-13.63151
 20
-14.77608
 30
0.0
 10
-13.62928
 20
-14.7868
 30
0.0
 10
-13.62928
 20
-14.7868
 30
0.0
 10
-13.62928
 20
-14.7868
 30
0.0
 10
-13.61804
 20
-14.77371
 30
0.0
 10
-13.60829
 20
-14.75998
 30
0.0
 10
-13.60042
 20
-14.74559
 30
0.0
 10
-13.60042
 20
-14.74559
 30
0.0
 10
-13.59181
 20
-14.72984
 30
0.0
 10
-13.58525
 20
-14.7141
 30
0.0
 10
-13.58056
 20
-14.69856
 30
0.0
 10
-13.58056
 20
-14.69856
 30
0.0
 10
-13.62926
 20
-14.68347
 30
0.0
 10
-13.64758
 20
-14.69601
 30
0.0
 10
-13.66445
 20
-14.64156
 30
0.0
 10
-13.66445
 20
-14.64156
 30
0.0
 10
-13.67384
 20
-14.61134
 30
0.0
 10
-13.69689
 20
-14.53266
 30
0.0
 10
-13.64031
 20
-14.53795
 30
0.0
 10
-13.64031
 20
-14.53795
 30
0.0
 10
-13.64031
 20
-14.53795
 30
0.0
 10
-13.59884
 20
-14.54649
 30
0.0
 10
-13.59884
 20
-14.54649
 30
0.0
 10
-13.59884
 20
-14.54649
 30
0.0
 10
-13.6258
 20
-14.50581
 30
0.0
 10
-13.67138
 20
-14.47785
 30
0.0
 10
-13.72938
 20
-14.47251
 30
0.0
 10
-13.72938
 20
-14.47251
 30
0.0
 10
-13.76908
 20
-14.50443
 30
0.0
 10
-13.71991
 20
-14.54051
 30
0.0
 10
-13.788
 20
-14.55788
 30
0.0
 10
-13.788
 20
-14.55788
 30
0.0
 10
-13.85349
 20
-14.57455
 30
0.0
 10
-13.87962
 20
-14.57344
 30
0.0
 10
-13.92239
 20
-14.5295
 30
0.0
 10
-13.92239
 20
-14.5295
 30
0.0
 10
-13.94899
 20
-14.53707
 30
0.0
 10
-13.97445
 20
-14.53662
 30
0.0
 10
-13.99639
 20
-14.51726
 30
0.0
 10
-13.99639
 20
-14.51726
 30
0.0
 10
-14.06675
 20
-14.45517
 30
0.0
 10
-13.98861
 20
-14.33685
 30
0.0
 10
-13.94022
 20
-14.29084
 30
0.0
 10
-13.94022
 20
-14.29084
 30
0.0
 10
-13.85172
 20
-14.20666
 30
0.0
 10
-13.71891
 20
-14.14589
 30
0.0
 10
-13.59817
 20
-14.141
 30
0.0
 10
-13.59817
 20
-14.141
 30
0.0
 10
-13.44801
 20
-14.13493
 30
0.0
 10
-13.31446
 20
-14.24009
 30
0.0
 10
-13.24323
 20
-14.36807
 30
0.0
 10
-13.24323
 20
-14.36807
 30
0.0
 10
-13.01291
 20
-14.78174
 30
0.0
 10
-13.37415
 20
-15.34519
 30
0.0
 10
-13.78925
 20
-15.46493
 30
0.0
 10
-13.78925
 20
-15.46493
 30
0.0
 10
-14.4758
 20
-15.66295
 30
0.0
 10
-15.32529
 20
-15.47826
 30
0.0
 10
-15.49484
 20
-14.68379
 30
0.0
 10
-15.49484
 20
-14.68379
 30
0.0
 10
-15.6225
 20
-14.08545
 30
0.0
 10
-15.22617
 20
-13.4173
 30
0.0
 10
-14.69673
 20
-13.16434
 30
0.0
 10
-14.69673
 20
-13.16434
 30
0.0
 10
-14.45646
 20
-13.04955
 30
0.0
 10
-14.15194
 20
-13.00644
 30
0.0
 10
-13.95382
 20
-12.81726
 30
0.0
 10
-13.95382
 20
-12.81726
 30
0.0
 10
-13.72395
 20
-12.59776
 30
0.0
 10
-13.73065
 20
-12.31752
 30
0.0
 10
-13.63103
 20
-12.03862
 30
0.0
 10
-13.63103
 20
-12.03862
 30
0.0
 10
-13.56253
 20
-11.84691
 30
0.0
 10
-13.47876
 20
-11.64744
 30
0.0
 10
-13.35697
 20
-11.48502
 30
0.0
 10
-13.35697
 20
-11.48502
 30
0.0
 10
-12.99375
 20
-11.00051
 30
0.0
 10
-12.21129
 20
-11.08234
 30
0.0
 10
-11.79109
 20
-10.69173
 30
0.0
  0
SPLINE
  5
4B
330
1F
100
AcDbEntity
  8
Layer 1
370
    53
100
AcDbSpline
210
0.0
220
0.0
230
1.0
 70
    11
 71
     3
 72
    20
 73
    16
 74
     0
 42
0.0000000001
 43
0.0000000001
 12
1.0
 22
0.0
 32
0.0
 13
1.0
 23
0.0
 33
0.0
 40
0.0
 40
0.0
 40
0.0
 40
0.0
 40
0.2
 40
0.2
 40
0.2
 40
0.2
 40
0.4
 40
0.4
 40
0.4
 40
0.4
 40
0.6
 40
0.6
 40
0.6
 40
0.6
 40
1.0
 40
1.0
 40
1.0
 40
1.0
 10
-11.82498
 20
-10.00004
 30
0.0
 10
-11.82498
 20
-9.82055
 30
0.0
 10
-11.67947
 20
-9.67504
 30
0.0
 10
-11.49998
 20
-9.67504
 30
0.0
 10
-11.49998
 20
-9.67504
 30
0.0
 10
-11.32049
 20
-9.67504
 30
0.0
 10
-11.17498
 20
-9.82055
 30
0.0
 10
-11.17498
 20
-10.00004
 30
0.0
 10
-11.17498
 20
-10.00004
 30
0.0
 10
-11.17498
 20
-10.17953
 30
0.0
 10
-11.32049
 20
-10.32504
 30
0.0
 10
-11.49998
 20
-10.32504
 30
0.0
 10
-11.49998
 20
-10.32504
 30
0.0
 10
-11.67947
 20
-10.32504
 30
0.0
 10
-11.82498
 20
-10.17953
 30
0.0
 10
-11.82498
 20
-10.00004
 30
0.0
  0
SPLINE
  5
4C
330
1F
100
AcDbEntity
  8
Layer 1
370
    53
100
AcDbSpline
210
0.0
220
0.0
230
1.0
 70
    11
 71
     3
 72
    20
 73
    16
 74
     0
 42
0.0000000001
 43
0.0000000001
 12
1.0
 22
0.0
 32
0.0
 13
1.0
 23
0.0
 33
0.0
 40
0.0
 40
0.0
 40
0.0
 40
0.0
 40
0.2
 40
0.2
 40
0.2
 40
0.2
 40
0.4
 40
0.4
 40
0.4
 40
0.4
 40
0.6
 40
0.6
 40
0.6
 40
0.6
 40
1.0
 40
1.0
 40
1.0
 40
1.0
 10
-10.92998
 20
-10.00004
 30
0.0
 10
-10.92998
 20
-9.90063
 30
0.0
 10
-10.84939
 20
-9.82004
 30
0.0
 10
-10.74998
 20
-9.82004
 30
0.0
 10
-10.74998
 20
-9.82004
 30
0.0
 10
-10.65057
 20
-9.82004
 30
0.0
 10
-10.56998
 20
-9.90063
 30
0.0
 10
-10.56998
 20
-10.00004
 30
0.0
 10
-10.56998
 20
-10.00004
 30
0.0
 10
-10.56998
 20
-10.09945
 30
0.0
 10
-10.65057
 20
-10.18004
 30
0.0
 10
-10.74998
 20
-10.18004
 30
0.0
 10
-10.74998
 20
-10.18004
 30
0.0
 10
-10.84939
 20
-10.18004
 30
0.0
 10
-10.92998
 20
-10.09945
 30
0.0
 10
-10.92998
 20
-10.00004
 30
0.0
  0
SPLINE
  5
4D
330
1F
100
AcDbEntity
  8
Layer 1
370
    53
100
AcDbSpline
210
0.0
220
0.0
230
1.0
 70
    11
 71
     3
 72
    20
 73
    16
 74
     0
 42
0.0000000001
 43
0.0000000001
 12
1.0
 22
0.0
 32
0.0
 13
1.0
 23
0.0
 33
0.0
 40
0.0
 40
0.0
 40
0.0
 40
0.0
 40
0.2
 40
0.2
 40
0.2
 40
0.2
 40
0.4
 40
0.4
 40
0.4
 40
0.4
 40
0.6
 40
0.6
 40
0.6
 40
0.6
 40
1.0
 40
1.0
 40
1.0
 40
1.0
 10
-9.42998
 20
-10.00004
 30
0.0
 10
-9.42998
 20
-9.90063
 30
0.0
 10
-9.34939
 20
-9.82004
 30
0.0
 10
-9.24998
 20
-9.82004
 30
0.0
 10
-9.24998
 20
-9.82004
 30
0.0
 10
-9.15057
 20
-9.82004
 30
0.0
 10
-9.06998
 20
-9.90063
 30
0.0
 10
-9.06998
 20
-10.00004
 30
0.0
 10
-9.06998
 20
-10.00004
 30
0.0
 10
-9.06998
 20
-10.09945
 30
0.0
 10
-9.15057
 20
-10.18004
 30
0.0
 10
-9.24998
 20
-10.18004
 30
0.0
 10
-9.24998
 20
-10.18004
 30
0.0
 10
-9.34939
 20
-10.18004
 30
0.0
 10
-9.42998
 20
-10.09945
 30
0.0
 10
-9.42998
 20
-10.00004
 30
0.0
  0
ENDSEC
  0
SECTION
  2
OBJECTS
  0
DICTIONARY
  5
C
330
0
100
AcDbDictionary
281
     1
  3
ACAD_GROUP
350
D
  3
ACAD_LAYOUT
350
1A
  3
ACAD_MATERIAL
350
3B
  3
ACAD_MLEADERSTYLE
350
6F
  3
ACAD_MLINESTYLE
350
17
  3
ACAD_PLOTSETTINGS
350
19
  3
ACAD_PLOTSTYLENAME
350
E
  3
ACAD_TABLESTYLE
350
6E
  3
ACAD_VISUALSTYLE
350
2A
  0
DICTIONARY
  5
D
102
{ACAD_REACTORS
330
C
102
}
330
C
100
AcDbDictionary
281
     1
  0
DICTIONARY
  5
1A
102
{ACAD_REACTORS
330
C
102
}
330
C
100
AcDbDictionary
281
     1
  3
Layout1
350
1E
  3
Layout2
350
26
  3
Model
350
22
  0
DICTIONARY
  5
3B
102
{ACAD_REACTORS
330
C
102
}
330
C
100
AcDbDictionary
281
     1
  3
ByBlock
350
3D
  3
ByLayer
350
3C
  3
Global
350
3E
  0
DICTIONARY
  5
6F
102
{ACAD_REACTORS
330
C
102
}
330
C
100
AcDbDictionary
281
     1
  0
DICTIONARY
  5
17
102
{ACAD_REACTORS
330
C
102
}
330
C
100
AcDbDictionary
281
     1
  3
Standard
350
18
  0
DICTIONARY
  5
19
102
{ACAD_REACTORS
330
C
102
}
330
C
100
AcDbDictionary
281
     1
  0
ACDBDICTIONARYWDFLT
  5
E
102
{ACAD_REACTORS
330
C
102
}
330
C
100
AcDbDictionary
281
     1
  3
Normal
350
F
100
AcDbDictionaryWithDefault
340
F
  0
DICTIONARY
  5
6E
102
{ACAD_REACTORS
330
C
102
}
330
C
100
AcDbDictionary
281
     1
  0
DICTIONARY
  5
2A
102
{ACAD_REACTORS
330
C
102
}
330
C
100
AcDbDictionary
281
     1
  3
2dWireframe
350
2F
  3
3D Hidden
350
31
  3
3dWireframe
350
30
  3
Basic
350
32
  3
Brighten
350
36
  3
ColorChange
350
3A
  3
Conceptual
350
34
  3
Dim
350
35
  3
Facepattern
350
39
  3
Flat
350
2B
  3
FlatWithEdges
350
2C
  3
Gouraud
350
2D
  3
GouraudWithEdges
350
2E
  3
Linepattern
350
38
  3
Realistic
350
33
  3
Thicken
350
37
  0
LAYOUT
  5
1E
102
{ACAD_REACTORS
330
1A
102
}
330
1A
100
AcDbPlotSettings
  1

  2
none_device
  4

  6

 40
0.0
 41
0.0
 42
0.0
 43
0.0
 44
0.0
 45
0.0
 46
0.0
 47
0.0
 48
0.0
 49
0.0
140
0.0
141
0.0
142
1.0
143
1.0
 70
   688
 72
     0
 73
     0
 74
     5
  7

 75
    16
 76
     0
 77
     2
 78
   300
147
1.0
148
0.0
149
0.0
100
AcDbLayout
  1
Layout1
 70
     1
 71
     1
 10
0.0
 20
0.0
 11
12.0
 21
9.0
 12
0.0
 22
0.0
 32
0.0
 14
1.000000000000000E+20
 24
1.000000000000000E+20
 34
1.000000000000000E+20
 15
-1.000000000000000E+20
 25
-1.000000000000000E+20
 35
-1.000000000000000E+20
146
0.0
 13
0.0
 23
0.0
 33
0.0
 16
1.0
 26
0.0
 36
0.0
 17
0.0
 27
1.0
 37
0.0
 76
     0
330
1B
  0
LAYOUT
  5
26
102
{ACAD_REACTORS
330
1A
102
}
330
1A
100
AcDbPlotSettings
  1

  2
none_device
  4

  6

 40
0.0
 41
0.0
 42
0.0
 43
0.0
 44
0.0
 45
0.0
 46
0.0
 47
0.0
 48
0.0
 49
0.0
140
0.0
141
0.0
142
1.0
143
1.0
 70
   688
 72
     0
 73
     0
 74
     5
  7

 75
    16
 76
     0
 77
     2
 78
   300
147
1.0
148
0.0
149
0.0
100
AcDbLayout
  1
Layout2
 70
     1
 71
     2
 10
0.0
 20
0.0
 11
0.0
 21
0.0
 12
0.0
 22
0.0
 32
0.0
 14
0.0
 24
0.0
 34
0.0
 15
0.0
 25
0.0
 35
0.0
146
0.0
 13
0.0
 23
0.0
 33
0.0
 16
1.0
 26
0.0
 36
0.0
 17
0.0
 27
1.0
 37
0.0
 76
     0
330
23
  0
LAYOUT
  5
22
102
{ACAD_REACTORS
330
1A
102
}
330
1A
100
AcDbPlotSettings
  1

  2
none_device
  4

  6

 40
0.0
 41
0.0
 42
0.0
 43
0.0
 44
0.0
 45
0.0
 46
0.0
 47
0.0
 48
0.0
 49
0.0
140
0.0
141
0.0
142
1.0
143
1.0
 70
  1712
 72
     0
 73
     0
 74
     0
  7

 75
     0
 76
     0
 77
     2
 78
   300
147
1.0
148
0.0
149
0.0
100
AcDbLayout
  1
Model
 70
     1
 71
     0
 10
0.0
 20
0.0
 11
12.0
 21
9.0
 12
0.0
 22
0.0
 32
0.0
 14
-15.54537
 24
-15.60702
 34
0.0
 15
-5.22622
 25
-9.27358
 35
0.0
146
0.0
 13
0.0
 23
0.0
 33
0.0
 16
1.0
 26
0.0
 36
0.0
 17
0.0
 27
1.0
 37
0.0
 76
     0
330
1F
331
29
  0
MATERIAL
  5
3D
102
{ACAD_REACTORS
330
3B
102
}
330
3B
100
AcDbMaterial
  1
ByBlock
 72
     1
 94
      127
  0
MATERIAL
  5
3C
102
{ACAD_REACTORS
330
3B
102
}
330
3B
100
AcDbMaterial
  1
ByLayer
 72
     1
 94
      127
  0
MATERIAL
  5
3E
102
{ACAD_REACTORS
330
3B
102
}
330
3B
100
AcDbMaterial
  1
Global
 72
     1
 94
      127
  0
MLINESTYLE
  5
18
102
{ACAD_REACTORS
330
17
102
}
330
17
100
AcDbMlineStyle
  2
Standard
 70
     0
  3

 62
   256
 51
90.0
 52
90.0
 71
     2
 49
0.5
 62
   256
  6
BYLAYER
 49
-0.5
 62
   256
  6
BYLAYER
  0
ACDBPLACEHOLDER
  5
F
102
{ACAD_REACTORS
330
E
102
}
330
E
  0
VISUALSTYLE
  5
2F
102
{ACAD_REACTORS
330
2A
102
}
102
{ACAD_XDICTIONARY
360
56
102
}
330
2A
100
AcDbVisualStyle
  2
2dWireframe
 70
     4
 71
     0
 72
     2
 73
     0
 90
        0
 40
-0.6
 41
-30.0
 62
     5
 63
     7
421
 16777215
 74
     1
 91
        4
 64
     7
 65
   257
 75
     1
175
     1
 42
1.0
 92
        0
 66
   257
 43
1.0
 76
     1
 77
     6
 78
     2
 67
     7
 79
     5
170
     0
171
     0
290
     0
174
     0
 93
        1
 44
0.0
173
     0
291
     0
 45
0.0
  0
VISUALSTYLE
  5
31
102
{ACAD_REACTORS
330
2A
102
}
102
{ACAD_XDICTIONARY
360
5A
102
}
330
2A
100
AcDbVisualStyle
  2
3D Hidden
 70
     6
 71
     1
 72
     2
 73
     2
 90
        0
 40
-0.6
 41
-30.0
 62
     5
 63
     7
421
 16777215
 74
     2
 91
        2
 64
     7
 65
   257
 75
     2
175
     1
 42
40.0
 92
        0
 66
   257
 43
1.0
 76
     1
 77
     6
 78
     2
 67
     7
 79
     3
170
     0
171
     0
290
     0
174
     0
 93
        1
 44
0.0
173
     0
291
     0
 45
0.0
  0
VISUALSTYLE
  5
30
102
{ACAD_REACTORS
330
2A
102
}
102
{ACAD_XDICTIONARY
360
58
102
}
330
2A
100
AcDbVisualStyle
  2
3dWireframe
 70
     5
 71
     0
 72
     2
 73
     0
 90
        0
 40
-0.6
 41
-30.0
 62
     5
 63
     7
421
 16777215
 74
     1
 91
        4
 64
     7
 65
   257
 75
     1
175
     1
 42
1.0
 92
        0
 66
   257
 43
1.0
 76
     1
 77
     6
 78
     2
 67
     7
 79
     5
170
     0
171
     0
290
     0
174
     0
 93
        1
 44
0.0
173
     0
291
     0
 45
0.0
  0
VISUALSTYLE
  5
32
102
{ACAD_REACTORS
330
2A
102
}
102
{ACAD_XDICTIONARY
360
5C
102
}
330
2A
100
AcDbVisualStyle
  2
Basic
 70
     7
 71
     1
 72
     0
 73
     1
 90
        0
 40
-0.6
 41
-30.0
 62
     5
 63
     7
421
 16777215
 74
     0
 91
        4
 64
     7
 65
   257
 75
     1
175
     1
 42
1.0
 92
        8
 66
     7
 43
1.0
 76
     1
 77
     6
 78
     2
 67
     7
 79
     5
170
     0
171
     0
290
     0
174
     0
 93
        1
 44
0.0
173
     0
291
     1
 45
0.0
  0
VISUALSTYLE
  5
36
102
{ACAD_REACTORS
330
2A
102
}
102
{ACAD_XDICTIONARY
360
64
102
}
330
2A
100
AcDbVisualStyle
  2
Brighten
 70
    12
 71
     2
 72
     2
 73
     0
 90
        0
 40
-0.6
 41
-30.0
 62
     5
 63
     7
421
 16777215
 74
     1
 91
        4
 64
     7
 65
   257
 75
     1
175
     1
 42
1.0
 92
        8
 66
     7
 43
1.0
 76
     1
 77
     6
 78
     2
 67
     7
 79
     5
170
     0
171
     0
290
     0
174
     0
 93
        1
 44
50.0
173
     0
291
     1
 45
0.0
  0
VISUALSTYLE
  5
3A
102
{ACAD_REACTORS
330
2A
102
}
102
{ACAD_XDICTIONARY
360
6C
102
}
330
2A
100
AcDbVisualStyle
  2
ColorChange
 70
    16
 71
     2
 72
     2
 73
     3
 90
        0
 40
-0.6
 41
-30.0
 62
     5
 63
     8
421
  8421504
 74
     1
 91
        4
 64
     7
 65
   257
 75
     1
175
     1
 42
1.0
 92
        8
 66
     8
424
  8421504
 43
1.0
 76
     1
 77
     6
 78
     2
 67
     7
 79
     5
170
     0
171
     0
290
     0
174
     0
 93
        1
 44
0.0
173
     0
291
     1
 45
0.0
  0
VISUALSTYLE
  5
34
102
{ACAD_REACTORS
330
2A
102
}
102
{ACAD_XDICTIONARY
360
60
102
}
330
2A
100
AcDbVisualStyle
  2
Conceptual
 70
     9
 71
     3
 72
     2
 73
     0
 90
        0
 40
-0.6
 41
-30.0
 62
     5
 63
     7
421
 16777215
 74
     2
 91
        2
 64
     7
 65
   257
 75
     1
175
     1
 42
40.0
 92
        8
 66
     7
 43
1.0
 76
     1
 77
     6
 78
     2
 67
     7
 79
     3
170
     0
171
     0
290
     0
174
     0
 93
        1
 44
0.0
173
     0
291
     0
 45
0.0
  0
VISUALSTYLE
  5
35
102
{ACAD_REACTORS
330
2A
102
}
102
{ACAD_XDICTIONARY
360
62
102
}
330
2A
100
AcDbVisualStyle
  2
Dim
 70
    11
 71
     2
 72
     2
 73
     0
 90
        0
 40
-0.6
 41
-30.0
 62
     5
 63
     7
421
 16777215
 74
     1
 91
        4
 64
     7
 65
   257
 75
     1
175
     1
 42
1.0
 92
        8
 66
     7
 43
1.0
 76
     1
 77
     6
 78
     2
 67
     7
 79
     5
170
     0
171
     0
290
     0
174
     0
 93
        1
 44
-50.0
173
     0
291
     1
 45
0.0
  0
VISUALSTYLE
  5
39
102
{ACAD_REACTORS
330
2A
102
}
102
{ACAD_XDICTIONARY
360
6A
102
}
330
2A
100
AcDbVisualStyle
  2
Facepattern
 70
    15
 71
     2
 72
     2
 73
     0
 90
        0
 40
-0.6
 41
-30.0
 62
     5
 63
     7
421
 16777215
 74
     1
 91
        4
 64
     7
 65
   257
 75
     1
175
     1
 42
1.0
 92
        8
 66
     7
 43
1.0
 76
     1
 77
     6
 78
     2
 67
     7
 79
     5
170
     0
171
     0
290
     0
174
     0
 93
        1
 44
0.0
173
     0
291
     1
 45
0.0
  0
VISUALSTYLE
  5
2B
102
{ACAD_REACTORS
330
2A
102
}
102
{ACAD_XDICTIONARY
360
4E
102
}
330
2A
100
AcDbVisualStyle
  2
Flat
 70
     0
 71
     2
 72
     1
 73
     1
 90
        2
 40
-0.6
 41
30.0
 62
     5
 63
     7
421
 16777215
 74
     0
 91
        4
 64
     7
 65
   257
 75
     1
175
     1
 42
1.0
 92
        8
 66
     7
 43
1.0
 76
     1
 77
     6
 78
     2
 67
     7
 79
     5
170
     0
171
     0
290
     0
174
     0
 93
       13
 44
0.0
173
     0
291
     1
 45
0.0
  0
VISUALSTYLE
  5
2C
102
{ACAD_REACTORS
330
2A
102
}
102
{ACAD_XDICTIONARY
360
50
102
}
330
2A
100
AcDbVisualStyle
  2
FlatWithEdges
 70
     1
 71
     2
 72
     1
 73
     1
 90
        2
 40
-0.6
 41
30.0
 62
     5
 63
     7
421
 16777215
 74
     1
 91
        4
 64
     7
 65
   257
 75
     1
175
     1
 42
1.0
 92
        0
 66
   257
 43
1.0
 76
     1
 77
     6
 78
     2
 67
     7
 79
     5
170
     0
171
     0
290
     0
174
     0
 93
       13
 44
0.0
173
     0
291
     1
 45
0.0
  0
VISUALSTYLE
  5
2D
102
{ACAD_REACTORS
330
2A
102
}
102
{ACAD_XDICTIONARY
360
52
102
}
330
2A
100
AcDbVisualStyle
  2
Gouraud
 70
     2
 71
     2
 72
     2
 73
     1
 90
        2
 40
-0.6
 41
30.0
 62
     5
 63
     7
421
 16777215
 74
     0
 91
        4
 64
     7
 65
   257
 75
     1
175
     1
 42
1.0
 92
        0
 66
     7
 43
1.0
 76
     1
 77
     6
 78
     2
 67
     7
 79
     5
170
     0
171
     0
290
     0
174
     0
 93
       13
 44
0.0
173
     0
291
     1
 45
0.0
  0
VISUALSTYLE
  5
2E
102
{ACAD_REACTORS
330
2A
102
}
102
{ACAD_XDICTIONARY
360
54
102
}
330
2A
100
AcDbVisualStyle
  2
GouraudWithEdges
 70
     3
 71
     2
 72
     2
 73
     1
 90
        2
 40
-0.6
 41
30.0
 62
     5
 63
     7
421
 16777215
 74
     1
 91
        4
 64
     7
 65
   257
 75
     1
175
     1
 42
1.0
 92
        0
 66
   257
 43
1.0
 76
     1
 77
     6
 78
     2
 67
     7
 79
     5
170
     0
171
     0
290
     0
174
     0
 93
       13
 44
0.0
173
     0
291
     1
 45
0.0
  0
VISUALSTYLE
  5
38
102
{ACAD_REACTORS
330
2A
102
}
102
{ACAD_XDICTIONARY
360
68
102
}
330
2A
100
AcDbVisualStyle
  2
Linepattern
 70
    14
 71
     2
 72
     2
 73
     0
 90
        0
 40
-0.6
 41
-30.0
 62
     5
 63
     7
421
 16777215
 74
     1
 91
        4
 64
     7
 65
   257
 75
     7
175
     7
 42
1.0
 92
        8
 66
     7
 43
1.0
 76
     1
 77
     6
 78
     2
 67
     7
 79
     5
170
     0
171
     0
290
     0
174
     0
 93
        1
 44
0.0
173
     0
291
     1
 45
0.0
  0
VISUALSTYLE
  5
33
102
{ACAD_REACTORS
330
2A
102
}
102
{ACAD_XDICTIONARY
360
5E
102
}
330
2A
100
AcDbVisualStyle
  2
Realistic
 70
     8
 71
     2
 72
     2
 73
     0
 90
        0
 40
-0.6
 41
-30.0
 62
     5
 63
     7
421
 16777215
 74
     1
 91
        0
 64
     7
 65
   257
 75
     1
175
     1
 42
1.0
 92
        8
 66
     8
424
  7895160
 43
1.0
 76
     1
 77
     6
 78
     2
 67
     7
 79
     5
170
     0
171
     0
290
     0
174
     0
 93
       13
 44
0.0
173
     0
291
     0
 45
0.0
  0
VISUALSTYLE
  5
37
102
{ACAD_REACTORS
330
2A
102
}
102
{ACAD_XDICTIONARY
360
66
102
}
330
2A
100
AcDbVisualStyle
  2
Thicken
 70
    13
 71
     2
 72
     2
 73
     0
 90
        0
 40
-0.6
 41
-30.0
 62
     5
 63
     7
421
 16777215
 74
     1
 91
        4
 64
     7
 65
   257
 75
     1
175
     1
 42
1.0
 92
       12
 66
     7
 43
1.0
 76
     1
 77
     6
 78
     2
 67
     7
 79
     5
170
     0
171
     0
290
     0
174
     0
 93
        1
 44
0.0
173
     0
291
     1
 45
0.0
  0
DICTIONARY
  5
56
330
2F
100
AcDbDictionary
280
     1
281
     1
  3
ACAD_XREC_ROUNDTRIP
360
57
  0
DICTIONARY
  5
5A
330
31
100
AcDbDictionary
280
     1
281
     1
  3
ACAD_XREC_ROUNDTRIP
360
5B
  0
DICTIONARY
  5
58
330
30
100
AcDbDictionary
280
     1
281
     1
  3
ACAD_XREC_ROUNDTRIP
360
59
  0
DICTIONARY
  5
5C
330
32
100
AcDbDictionary
280
     1
281
     1
  3
ACAD_XREC_ROUNDTRIP
360
5D
  0
DICTIONARY
  5
64
330
36
100
AcDbDictionary
280
     1
281
     1
  3
ACAD_XREC_ROUNDTRIP
360
65
  0
DICTIONARY
  5
6C
330
3A
100
AcDbDictionary
280
     1
281
     1
  3
ACAD_XREC_ROUNDTRIP
360
6D
  0
DICTIONARY
  5
60
330
34
100
AcDbDictionary
280
     1
281
     1
  3
ACAD_XREC_ROUNDTRIP
360
61
  0
DICTIONARY
  5
62
330
35
100
AcDbDictionary
280
     1
281
     1
  3
ACAD_XREC_ROUNDTRIP
360
63
  0
DICTIONARY
  5
6A
330
39
100
AcDbDictionary
280
     1
281
     1
  3
ACAD_XREC_ROUNDTRIP
360
6B
  0
DICTIONARY
  5
4E
330
2B
100
AcDbDictionary
280
     1
281
     1
  3
ACAD_XREC_ROUNDTRIP
360
4F
  0
DICTIONARY
  5
50
330
2C
100
AcDbDictionary
280
     1
281
     1
  3
ACAD_XREC_ROUNDTRIP
360
51
  0
DICTIONARY
  5
52
330
2D
100
AcDbDictionary
280
     1
281
     1
  3
ACAD_XREC_ROUNDTRIP
360
53
  0
DICTIONARY
  5
54
330
2E
100
AcDbDictionary
280
     1
281
     1
  3
ACAD_XREC_ROUNDTRIP
360
55
  0
DICTIONARY
  5
68
330
38
100
AcDbDictionary
280
     1
281
     1
  3
ACAD_XREC_ROUNDTRIP
360
69
  0
DICTIONARY
  5
5E
330
33
100
AcDbDictionary
280
     1
281
     1
  3
ACAD_XREC_ROUNDTRIP
360
5F
  0
DICTIONARY
  5
66
330
37
100
AcDbDictionary
280
     1
281
     1
  3
ACAD_XREC_ROUNDTRIP
360
67
  0
XRECORD
  5
57
102
{ACAD_REACTORS
330
56
102
}
330
56
100
AcDbXrecord
280
     1
102
RTVSPropertyOp0
 70
     1
102
RTVSPropertyOp1
 70
     1
102
RTVSPropertyOp2
 70
     1
102
RTVSPropertyOp3
 70
     1
102
RTVSPropertyOp4
 70
     1
102
RTVSPropertyOp5
 70
     1
102
RTVSPropertyOp6
 70
     1
102
RTVSPropertyOp7
 70
     1
102
RTVSPropertyOp8
 70
     1
102
RTVSPropertyOp9
 70
     1
102
RTVSPropertyOp10
 70
     1
102
RTVSPropertyOp11
 70
     1
102
RTVSPropertyOp12
 70
     1
102
RTVSPropertyOp13
 70
     1
102
RTVSPropertyOp14
 70
     1
102
RTVSPropertyOp15
 70
     1
102
RTVSPropertyOp16
 70
     1
102
RTVSPropertyOp17
 70
     1
102
RTVSPropertyOp18
 70
     1
102
RTVSPropertyOp19
 70
     1
102
RTVSPropertyOp20
 70
     1
102
RTVSPropertyOp21
 70
     1
102
RTVSPropertyOp22
 70
     1
102
RTVSPropertyOp23
 70
     1
102
RTVSPropertyOp24
 70
     1
102
RTVSPropertyOp25
 70
     1
102
RTVSPropertyOp26
 70
     1
102
RTVSPropertyOp27
 70
     1
102
RTVSPropertyOp28
 70
     1
102
RTVSPropertyOp29
 70
     1
102
RTVSPropertyOp30
 70
     1
102
RTVSPropertyOp31
 70
     1
102
RTVSPropertyOp32
 70
     1
  0
XRECORD
  5
5B
102
{ACAD_REACTORS
330
5A
102
}
330
5A
100
AcDbXrecord
280
     1
102
RTVSPropertyOp0
 70
     1
102
RTVSPropertyOp1
 70
     1
102
RTVSPropertyOp2
 70
     1
102
RTVSPropertyOp3
 70
     1
102
RTVSPropertyOp4
 70
     1
102
RTVSPropertyOp5
 70
     1
102
RTVSPropertyOp6
 70
     1
102
RTVSPropertyOp7
 70
     1
102
RTVSPropertyOp8
 70
     1
102
RTVSPropertyOp9
 70
     1
102
RTVSPropertyOp10
 70
     1
102
RTVSPropertyOp11
 70
     1
102
RTVSPropertyOp12
 70
     1
102
RTVSPropertyOp13
 70
     1
102
RTVSPropertyOp14
 70
     1
102
RTVSPropertyOp15
 70
     1
102
RTVSPropertyOp16
 70
     1
102
RTVSPropertyOp17
 70
     1
102
RTVSPropertyOp18
 70
     1
102
RTVSPropertyOp19
 70
     1
102
RTVSPropertyOp20
 70
     1
102
RTVSPropertyOp21
 70
     1
102
RTVSPropertyOp22
 70
     1
102
RTVSPropertyOp23
 70
     1
102
RTVSPropertyOp24
 70
     1
102
RTVSPropertyOp25
 70
     1
102
RTVSPropertyOp26
 70
     1
102
RTVSPropertyOp27
 70
     1
102
RTVSPropertyOp28
 70
     1
102
RTVSPropertyOp29
 70
     1
102
RTVSPropertyOp30
 70
     1
102
RTVSPropertyOp31
 70
     1
102
RTVSPropertyOp32
 70
     1
  0
XRECORD
  5
59
102
{ACAD_REACTORS
330
58
102
}
330
58
100
AcDbXrecord
280
     1
102
RTVSPropertyOp0
 70
     1
102
RTVSPropertyOp1
 70
     1
102
RTVSPropertyOp2
 70
     1
102
RTVSPropertyOp3
 70
     1
102
RTVSPropertyOp4
 70
     1
102
RTVSPropertyOp5
 70
     1
102
RTVSPropertyOp6
 70
     1
102
RTVSPropertyOp7
 70
     1
102
RTVSPropertyOp8
 70
     1
102
RTVSPropertyOp9
 70
     1
102
RTVSPropertyOp10
 70
     1
102
RTVSPropertyOp11
 70
     1
102
RTVSPropertyOp12
 70
     1
102
RTVSPropertyOp13
 70
     1
102
RTVSPropertyOp14
 70
     1
102
RTVSPropertyOp15
 70
     1
102
RTVSPropertyOp16
 70
     1
102
RTVSPropertyOp17
 70
     1
102
RTVSPropertyOp18
 70
     1
102
RTVSPropertyOp19
 70
     1
102
RTVSPropertyOp20
 70
     1
102
RTVSPropertyOp21
 70
     1
102
RTVSPropertyOp22
 70
     1
102
RTVSPropertyOp23
 70
     1
102
RTVSPropertyOp24
 70
     1
102
RTVSPropertyOp25
 70
     1
102
RTVSPropertyOp26
 70
     1
102
RTVSPropertyOp27
 70
     1
102
RTVSPropertyOp28
 70
     1
102
RTVSPropertyOp29
 70
     1
102
RTVSPropertyOp30
 70
     1
102
RTVSPropertyOp31
 70
     1
102
RTVSPropertyOp32
 70
     1
  0
XRECORD
  5
5D
102
{ACAD_REACTORS
330
5C
102
}
330
5C
100
AcDbXrecord
280
     1
102
RTVSPropertyOp0
 70
     1
102
RTVSPropertyOp1
 70
     1
102
RTVSPropertyOp2
 70
     1
102
RTVSPropertyOp3
 70
     1
102
RTVSPropertyOp4
 70
     1
102
RTVSPropertyOp5
 70
     1
102
RTVSPropertyOp6
 70
     1
102
RTVSPropertyOp7
 70
     1
102
RTVSPropertyOp8
 70
     1
102
RTVSPropertyOp9
 70
     1
102
RTVSPropertyOp10
 70
     1
102
RTVSPropertyOp11
 70
     1
102
RTVSPropertyOp12
 70
     1
102
RTVSPropertyOp13
 70
     1
102
RTVSPropertyOp14
 70
     1
102
RTVSPropertyOp15
 70
     1
102
RTVSPropertyOp16
 70
     1
102
RTVSPropertyOp17
 70
     1
102
RTVSPropertyOp18
 70
     1
102
RTVSPropertyOp19
 70
     1
102
RTVSPropertyOp20
 70
     1
102
RTVSPropertyOp21
 70
     1
102
RTVSPropertyOp22
 70
     1
102
RTVSPropertyOp23
 70
     1
102
RTVSPropertyOp24
 70
     1
102
RTVSPropertyOp25
 70
     1
102
RTVSPropertyOp26
 70
     1
102
RTVSPropertyOp27
 70
     1
102
RTVSPropertyOp28
 70
     1
102
RTVSPropertyOp29
 70
     1
102
RTVSPropertyOp30
 70
     1
102
RTVSPropertyOp31
 70
     1
102
RTVSPropertyOp32
 70
     1
  0
XRECORD
  5
65
102
{ACAD_REACTORS
330
64
102
}
330
64
100
AcDbXrecord
280
     1
102
RTVSPropertyOp0
 70
     1
102
RTVSPropertyOp1
 70
     1
102
RTVSPropertyOp2
 70
     1
102
RTVSPropertyOp3
 70
     1
102
RTVSPropertyOp4
 70
     1
102
RTVSPropertyOp5
 70
     1
102
RTVSPropertyOp6
 70
     1
102
RTVSPropertyOp7
 70
     1
102
RTVSPropertyOp8
 70
     1
102
RTVSPropertyOp9
 70
     1
102
RTVSPropertyOp10
 70
     1
102
RTVSPropertyOp11
 70
     1
102
RTVSPropertyOp12
 70
     1
102
RTVSPropertyOp13
 70
     1
102
RTVSPropertyOp14
 70
     1
102
RTVSPropertyOp15
 70
     1
102
RTVSPropertyOp16
 70
     1
102
RTVSPropertyOp17
 70
     1
102
RTVSPropertyOp18
 70
     1
102
RTVSPropertyOp19
 70
     1
102
RTVSPropertyOp20
 70
     1
102
RTVSPropertyOp21
 70
     1
102
RTVSPropertyOp22
 70
     1
102
RTVSPropertyOp23
 70
     1
102
RTVSPropertyOp24
 70
     1
102
RTVSPropertyOp25
 70
     1
102
RTVSPropertyOp26
 70
     1
102
RTVSPropertyOp27
 70
     1
102
RTVSPropertyOp28
 70
     1
102
RTVSPropertyOp29
 70
     1
102
RTVSPropertyOp30
 70
     1
102
RTVSPropertyOp31
 70
     1
102
RTVSPropertyOp32
 70
     1
  0
XRECORD
  5
6D
102
{ACAD_REACTORS
330
6C
102
}
330
6C
100
AcDbXrecord
280
     1
102
RTVSPropertyOp0
 70
     1
102
RTVSPropertyOp1
 70
     1
102
RTVSPropertyOp2
 70
     1
102
RTVSPropertyOp3
 70
     1
102
RTVSPropertyOp4
 70
     1
102
RTVSPropertyOp5
 70
     1
102
RTVSPropertyOp6
 70
     1
102
RTVSPropertyOp7
 70
     1
102
RTVSPropertyOp8
 70
     1
102
RTVSPropertyOp9
 70
     1
102
RTVSPropertyOp10
 70
     1
102
RTVSPropertyOp11
 70
     1
102
RTVSPropertyOp12
 70
     1
102
RTVSPropertyOp13
 70
     1
102
RTVSPropertyOp14
 70
     1
102
RTVSPropertyOp15
 70
     1
102
RTVSPropertyOp16
 70
     1
102
RTVSPropertyOp17
 70
     1
102
RTVSPropertyOp18
 70
     1
102
RTVSPropertyOp19
 70
     1
102
RTVSPropertyOp20
 70
     1
102
RTVSPropertyOp21
 70
     1
102
RTVSPropertyOp22
 70
     1
102
RTVSPropertyOp23
 70
     1
102
RTVSPropertyOp24
 70
     1
102
RTVSPropertyOp25
 70
     1
102
RTVSPropertyOp26
 70
     1
102
RTVSPropertyOp27
 70
     1
102
RTVSPropertyOp28
 70
     1
102
RTVSPropertyOp29
 70
     1
102
RTVSPropertyOp30
 70
     1
102
RTVSPropertyOp31
 70
     1
102
RTVSPropertyOp32
 70
     1
  0
XRECORD
  5
61
102
{ACAD_REACTORS
330
60
102
}
330
60
100
AcDbXrecord
280
     1
102
RTVSPropertyOp0
 70
     1
102
RTVSPropertyOp1
 70
     1
102
RTVSPropertyOp2
 70
     1
102
RTVSPropertyOp3
 70
     1
102
RTVSPropertyOp4
 70
     1
102
RTVSPropertyOp5
 70
     1
102
RTVSPropertyOp6
 70
     1
102
RTVSPropertyOp7
 70
     1
102
RTVSPropertyOp8
 70
     1
102
RTVSPropertyOp9
 70
     1
102
RTVSPropertyOp10
 70
     1
102
RTVSPropertyOp11
 70
     1
102
RTVSPropertyOp12
 70
     1
102
RTVSPropertyOp13
 70
     1
102
RTVSPropertyOp14
 70
     1
102
RTVSPropertyOp15
 70
     1
102
RTVSPropertyOp16
 70
     1
102
RTVSPropertyOp17
 70
     1
102
RTVSPropertyOp18
 70
     1
102
RTVSPropertyOp19
 70
     1
102
RTVSPropertyOp20
 70
     1
102
RTVSPropertyOp21
 70
     1
102
RTVSPropertyOp22
 70
     1
102
RTVSPropertyOp23
 70
     1
102
RTVSPropertyOp24
 70
     1
102
RTVSPropertyOp25
 70
     1
102
RTVSPropertyOp26
 70
     1
102
RTVSPropertyOp27
 70
     1
102
RTVSPropertyOp28
 70
     1
102
RTVSPropertyOp29
 70
     1
102
RTVSPropertyOp30
 70
     1
102
RTVSPropertyOp31
 70
     1
102
RTVSPropertyOp32
 70
     1
  0
XRECORD
  5
63
102
{ACAD_REACTORS
330
62
102
}
330
62
100
AcDbXrecord
280
     1
102
RTVSPropertyOp0
 70
     1
102
RTVSPropertyOp1
 70
     1
102
RTVSPropertyOp2
 70
     1
102
RTVSPropertyOp3
 70
     1
102
RTVSPropertyOp4
 70
     1
102
RTVSPropertyOp5
 70
     1
102
RTVSPropertyOp6
 70
     1
102
RTVSPropertyOp7
 70
     1
102
RTVSPropertyOp8
 70
     1
102
RTVSPropertyOp9
 70
     1
102
RTVSPropertyOp10
 70
     1
102
RTVSPropertyOp11
 70
     1
102
RTVSPropertyOp12
 70
     1
102
RTVSPropertyOp13
 70
     1
102
RTVSPropertyOp14
 70
     1
102
RTVSPropertyOp15
 70
     1
102
RTVSPropertyOp16
 70
     1
102
RTVSPropertyOp17
 70
     1
102
RTVSPropertyOp18
 70
     1
102
RTVSPropertyOp19
 70
     1
102
RTVSPropertyOp20
 70
     1
102
RTVSPropertyOp21
 70
     1
102
RTVSPropertyOp22
 70
     1
102
RTVSPropertyOp23
 70
     1
102
RTVSPropertyOp24
 70
     1
102
RTVSPropertyOp25
 70
     1
102
RTVSPropertyOp26
 70
     1
102
RTVSPropertyOp27
 70
     1
102
RTVSPropertyOp28
 70
     1
102
RTVSPropertyOp29
 70
     1
102
RTVSPropertyOp30
 70
     1
102
RTVSPropertyOp31
 70
     1
102
RTVSPropertyOp32
 70
     1
  0
XRECORD
  5
6B
102
{ACAD_REACTORS
330
6A
102
}
330
6A
100
AcDbXrecord
280
     1
102
RTVSPropertyOp0
 70
     1
102
RTVSPropertyOp1
 70
     1
102
RTVSPropertyOp2
 70
     1
102
RTVSPropertyOp3
 70
     1
102
RTVSPropertyOp4
 70
     1
102
RTVSPropertyOp5
 70
     1
102
RTVSPropertyOp6
 70
     1
102
RTVSPropertyOp7
 70
     1
102
RTVSPropertyOp8
 70
     1
102
RTVSPropertyOp9
 70
     1
102
RTVSPropertyOp10
 70
     1
102
RTVSPropertyOp11
 70
     1
102
RTVSPropertyOp12
 70
     1
102
RTVSPropertyOp13
 70
     1
102
RTVSPropertyOp14
 70
     1
102
RTVSPropertyOp15
 70
     1
102
RTVSPropertyOp16
 70
     1
102
RTVSPropertyOp17
 70
     1
102
RTVSPropertyOp18
 70
     1
102
RTVSPropertyOp19
 70
     1
102
RTVSPropertyOp20
 70
     1
102
RTVSPropertyOp21
 70
     1
102
RTVSPropertyOp22
 70
     1
102
RTVSPropertyOp23
 70
     1
102
RTVSPropertyOp24
 70
     1
102
RTVSPropertyOp25
 70
     1
102
RTVSPropertyOp26
 70
     1
102
RTVSPropertyOp27
 70
     1
102
RTVSPropertyOp28
 70
     1
102
RTVSPropertyOp29
 70
     1
102
RTVSPropertyOp30
 70
     1
102
RTVSPropertyOp31
 70
     1
102
RTVSPropertyOp32
 70
     1
  0
XRECORD
  5
4F
102
{ACAD_REACTORS
330
4E
102
}
330
4E
100
AcDbXrecord
280
     1
102
RTVSPropertyOp0
 70
     1
102
RTVSPropertyOp1
 70
     1
102
RTVSPropertyOp2
 70
     1
102
RTVSPropertyOp3
 70
     1
102
RTVSPropertyOp4
 70
     1
102
RTVSPropertyOp5
 70
     1
102
RTVSPropertyOp6
 70
     1
102
RTVSPropertyOp7
 70
     1
102
RTVSPropertyOp8
 70
     1
102
RTVSPropertyOp9
 70
     1
102
RTVSPropertyOp10
 70
     1
102
RTVSPropertyOp11
 70
     1
102
RTVSPropertyOp12
 70
     1
102
RTVSPropertyOp13
 70
     1
102
RTVSPropertyOp14
 70
     1
102
RTVSPropertyOp15
 70
     1
102
RTVSPropertyOp16
 70
     1
102
RTVSPropertyOp17
 70
     1
102
RTVSPropertyOp18
 70
     1
102
RTVSPropertyOp19
 70
     1
102
RTVSPropertyOp20
 70
     1
102
RTVSPropertyOp21
 70
     1
102
RTVSPropertyOp22
 70
     1
102
RTVSPropertyOp23
 70
     1
102
RTVSPropertyOp24
 70
     1
102
RTVSPropertyOp25
 70
     1
102
RTVSPropertyOp26
 70
     1
102
RTVSPropertyOp27
 70
     1
102
RTVSPropertyOp28
 70
     1
102
RTVSPropertyOp29
 70
     1
102
RTVSPropertyOp30
 70
     1
102
RTVSPropertyOp31
 70
     1
102
RTVSPropertyOp32
 70
     1
  0
XRECORD
  5
51
102
{ACAD_REACTORS
330
50
102
}
330
50
100
AcDbXrecord
280
     1
102
RTVSPropertyOp0
 70
     1
102
RTVSPropertyOp1
 70
     1
102
RTVSPropertyOp2
 70
     1
102
RTVSPropertyOp3
 70
     1
102
RTVSPropertyOp4
 70
     1
102
RTVSPropertyOp5
 70
     1
102
RTVSPropertyOp6
 70
     1
102
RTVSPropertyOp7
 70
     1
102
RTVSPropertyOp8
 70
     1
102
RTVSPropertyOp9
 70
     1
102
RTVSPropertyOp10
 70
     1
102
RTVSPropertyOp11
 70
     1
102
RTVSPropertyOp12
 70
     1
102
RTVSPropertyOp13
 70
     1
102
RTVSPropertyOp14
 70
     1
102
RTVSPropertyOp15
 70
     1
102
RTVSPropertyOp16
 70
     1
102
RTVSPropertyOp17
 70
     1
102
RTVSPropertyOp18
 70
     1
102
RTVSPropertyOp19
 70
     1
102
RTVSPropertyOp20
 70
     1
102
RTVSPropertyOp21
 70
     1
102
RTVSPropertyOp22
 70
     1
102
RTVSPropertyOp23
 70
     1
102
RTVSPropertyOp24
 70
     1
102
RTVSPropertyOp25
 70
     1
102
RTVSPropertyOp26
 70
     1
102
RTVSPropertyOp27
 70
     1
102
RTVSPropertyOp28
 70
     1
102
RTVSPropertyOp29
 70
     1
102
RTVSPropertyOp30
 70
     1
102
RTVSPropertyOp31
 70
     1
102
RTVSPropertyOp32
 70
     1
  0
XRECORD
  5
53
102
{ACAD_REACTORS
330
52
102
}
330
52
100
AcDbXrecord
280
     1
102
RTVSPropertyOp0
 70
     1
102
RTVSPropertyOp1
 70
     1
102
RTVSPropertyOp2
 70
     1
102
RTVSPropertyOp3
 70
     1
102
RTVSPropertyOp4
 70
     1
102
RTVSPropertyOp5
 70
     1
102
RTVSPropertyOp6
 70
     1
102
RTVSPropertyOp7
 70
     1
102
RTVSPropertyOp8
 70
     1
102
RTVSPropertyOp9
 70
     1
102
RTVSPropertyOp10
 70
     1
102
RTVSPropertyOp11
 70
     1
102
RTVSPropertyOp12
 70
     1
102
RTVSPropertyOp13
 70
     1
102
RTVSPropertyOp14
 70
     1
102
RTVSPropertyOp15
 70
     1
102
RTVSPropertyOp16
 70
     1
102
RTVSPropertyOp17
 70
     1
102
RTVSPropertyOp18
 70
     1
102
RTVSPropertyOp19
 70
     1
102
RTVSPropertyOp20
 70
     1
102
RTVSPropertyOp21
 70
     1
102
RTVSPropertyOp22
 70
     1
102
RTVSPropertyOp23
 70
     1
102
RTVSPropertyOp24
 70
     1
102
RTVSPropertyOp25
 70
     1
102
RTVSPropertyOp26
 70
     1
102
RTVSPropertyOp27
 70
     1
102
RTVSPropertyOp28
 70
     1
102
RTVSPropertyOp29
 70
     1
102
RTVSPropertyOp30
 70
     1
102
RTVSPropertyOp31
 70
     1
102
RTVSPropertyOp32
 70
     1
  0
XRECORD
  5
55
102
{ACAD_REACTORS
330
54
102
}
330
54
100
AcDbXrecord
280
     1
102
RTVSPropertyOp0
 70
     1
102
RTVSPropertyOp1
 70
     1
102
RTVSPropertyOp2
 70
     1
102
RTVSPropertyOp3
 70
     1
102
RTVSPropertyOp4
 70
     1
102
RTVSPropertyOp5
 70
     1
102
RTVSPropertyOp6
 70
     1
102
RTVSPropertyOp7
 70
     1
102
RTVSPropertyOp8
 70
     1
102
RTVSPropertyOp9
 70
     1
102
RTVSPropertyOp10
 70
     1
102
RTVSPropertyOp11
 70
     1
102
RTVSPropertyOp12
 70
     1
102
RTVSPropertyOp13
 70
     1
102
RTVSPropertyOp14
 70
     1
102
RTVSPropertyOp15
 70
     1
102
RTVSPropertyOp16
 70
     1
102
RTVSPropertyOp17
 70
     1
102
RTVSPropertyOp18
 70
     1
102
RTVSPropertyOp19
 70
     1
102
RTVSPropertyOp20
 70
     1
102
RTVSPropertyOp21
 70
     1
102
RTVSPropertyOp22
 70
     1
102
RTVSPropertyOp23
 70
     1
102
RTVSPropertyOp24
 70
     1
102
RTVSPropertyOp25
 70
     1
102
RTVSPropertyOp26
 70
     1
102
RTVSPropertyOp27
 70
     1
102
RTVSPropertyOp28
 70
     1
102
RTVSPropertyOp29
 70
     1
102
RTVSPropertyOp30
 70
     1
102
RTVSPropertyOp31
 70
     1
102
RTVSPropertyOp32
 70
     1
  0
XRECORD
  5
69
102
{ACAD_REACTORS
330
68
102
}
330
68
100
AcDbXrecord
280
     1
102
RTVSPropertyOp0
 70
     1
102
RTVSPropertyOp1
 70
     1
102
RTVSPropertyOp2
 70
     1
102
RTVSPropertyOp3
 70
     1
102
RTVSPropertyOp4
 70
     1
102
RTVSPropertyOp5
 70
     1
102
RTVSPropertyOp6
 70
     1
102
RTVSPropertyOp7
 70
     1
102
RTVSPropertyOp8
 70
     1
102
RTVSPropertyOp9
 70
     1
102
RTVSPropertyOp10
 70
     1
102
RTVSPropertyOp11
 70
     1
102
RTVSPropertyOp12
 70
     1
102
RTVSPropertyOp13
 70
     1
102
RTVSPropertyOp14
 70
     1
102
RTVSPropertyOp15
 70
     1
102
RTVSPropertyOp16
 70
     1
102
RTVSPropertyOp17
 70
     1
102
RTVSPropertyOp18
 70
     1
102
RTVSPropertyOp19
 70
     1
102
RTVSPropertyOp20
 70
     1
102
RTVSPropertyOp21
 70
     1
102
RTVSPropertyOp22
 70
     1
102
RTVSPropertyOp23
 70
     1
102
RTVSPropertyOp24
 70
     1
102
RTVSPropertyOp25
 70
     1
102
RTVSPropertyOp26
 70
     1
102
RTVSPropertyOp27
 70
     1
102
RTVSPropertyOp28
 70
     1
102
RTVSPropertyOp29
 70
     1
102
RTVSPropertyOp30
 70
     1
102
RTVSPropertyOp31
 70
     1
102
RTVSPropertyOp32
 70
     1
  0
XRECORD
  5
5F
102
{ACAD_REACTORS
330
5E
102
}
330
5E
100
AcDbXrecord
280
     1
102
RTVSPropertyOp0
 70
     1
102
RTVSPropertyOp1
 70
     1
102
RTVSPropertyOp2
 70
     1
102
RTVSPropertyOp3
 70
     1
102
RTVSPropertyOp4
 70
     1
102
RTVSPropertyOp5
 70
     1
102
RTVSPropertyOp6
 70
     1
102
RTVSPropertyOp7
 70
     1
102
RTVSPropertyOp8
 70
     1
102
RTVSPropertyOp9
 70
     1
102
RTVSPropertyOp10
 70
     1
102
RTVSPropertyOp11
 70
     1
102
RTVSPropertyOp12
 70
     1
102
RTVSPropertyOp13
 70
     1
102
RTVSPropertyOp14
 70
     1
102
RTVSPropertyOp15
 70
     1
102
RTVSPropertyOp16
 70
     1
102
RTVSPropertyOp17
 70
     1
102
RTVSPropertyOp18
 70
     1
102
RTVSPropertyOp19
 70
     1
102
RTVSPropertyOp20
 70
     1
102
RTVSPropertyOp21
 70
     1
102
RTVSPropertyOp22
 70
     1
102
RTVSPropertyOp23
 70
     1
102
RTVSPropertyOp24
 70
     1
102
RTVSPropertyOp25
 70
     1
102
RTVSPropertyOp26
 70
     1
102
RTVSPropertyOp27
 70
     1
102
RTVSPropertyOp28
 70
     1
102
RTVSPropertyOp29
 70
     1
102
RTVSPropertyOp30
 70
     1
102
RTVSPropertyOp31
 70
     1
102
RTVSPropertyOp32
 70
     1
  0
XRECORD
  5
67
102
{ACAD_REACTORS
330
66
102
}
330
66
100
AcDbXrecord
280
     1
102
RTVSPropertyOp0
 70
     1
102
RTVSPropertyOp1
 70
     1
102
RTVSPropertyOp2
 70
     1
102
RTVSPropertyOp3
 70
     1
102
RTVSPropertyOp4
 70
     1
102
RTVSPropertyOp5
 70
     1
102
RTVSPropertyOp6
 70
     1
102
RTVSPropertyOp7
 70
     1
102
RTVSPropertyOp8
 70
     1
102
RTVSPropertyOp9
 70
     1
102
RTVSPropertyOp10
 70
     1
102
RTVSPropertyOp11
 70
     1
102
RTVSPropertyOp12
 70
     1
102
RTVSPropertyOp13
 70
     1
102
RTVSPropertyOp14
 70
     1
102
RTVSPropertyOp15
 70
     1
102
RTVSPropertyOp16
 70
     1
102
RTVSPropertyOp17
 70
     1
102
RTVSPropertyOp18
 70
     1
102
RTVSPropertyOp19
 70
     1
102
RTVSPropertyOp20
 70
     1
102
RTVSPropertyOp21
 70
     1
102
RTVSPropertyOp22
 70
     1
102
RTVSPropertyOp23
 70
     1
102
RTVSPropertyOp24
 70
     1
102
RTVSPropertyOp25
 70
     1
102
RTVSPropertyOp26
 70
     1
102
RTVSPropertyOp27
 70
     1
102
RTVSPropertyOp28
 70
     1
102
RTVSPropertyOp29
 70
     1
102
RTVSPropertyOp30
 70
     1
102
RTVSPropertyOp31
 70
     1
102
RTVSPropertyOp32
 70
     1
  0
ENDSEC
  0
EOF
