  0
SECTION
  2
HEADER
  9
$ACADVER
  1
AC1021
  9
$ACADMAINTVER
 70
    25
  9
$DWGCODEPAGE
  3
ANSI_1252
  9
$INSBASE
 10
0.0
 20
0.0
 30
0.0
  9
$EXTMIN
 10
-12.28325
 20
-8.96955
 30
0.0
  9
$EXTMAX
 10
-7.67051
 20
-4.99427
 30
0.0
  9
$LIMMIN
 10
0.0
 20
0.0
  9
$LIMMAX
 10
12.0
 20
9.0
  9
$ORTHOMODE
 70
     0
  9
$REGENMODE
 70
     1
  9
$FILLMODE
 70
     1
  9
$QTEXTMODE
 70
     0
  9
$MIRRTEXT
 70
     1
  9
$LTSCALE
 40
1.0
  9
$ATTMODE
 70
     1
  9
$TEXTSIZE
 40
0.2
  9
$TRACEWID
 40
0.05
  9
$TEXTSTYLE
  7
Standard
  9
$CLAYER
  8
0
  9
$CELTYPE
  6
ByLayer
  9
$CECOLOR
 62
   256
  9
$CELTSCALE
 40
1.0
  9
$DISPSILH
 70
     0
  9
$DIMSCALE
 40
1.0
  9
$DIMASZ
 40
0.18
  9
$DIMEXO
 40
0.0625
  9
$DIMDLI
 40
0.38
  9
$DIMRND
 40
0.0
  9
$DIMDLE
 40
0.0
  9
$DIMEXE
 40
0.18
  9
$DIMTP
 40
0.0
  9
$DIMTM
 40
0.0
  9
$DIMTXT
 40
0.18
  9
$DIMCEN
 40
0.09
  9
$DIMTSZ
 40
0.0
  9
$DIMTOL
 70
     0
  9
$DIMLIM
 70
     0
  9
$DIMTIH
 70
     1
  9
$DIMTOH
 70
     1
  9
$DIMSE1
 70
     0
  9
$DIMSE2
 70
     0
  9
$DIMTAD
 70
     0
  9
$DIMZIN
 70
     0
  9
$DIMBLK
  1

  9
$DIMASO
 70
     1
  9
$DIMSHO
 70
     1
  9
$DIMPOST
  1

  9
$DIMAPOST
  1

  9
$DIMALT
 70
     0
  9
$DIMALTD
 70
     2
  9
$DIMALTF
 40
25.4
  9
$DIMLFAC
 40
1.0
  9
$DIMTOFL
 70
     0
  9
$DIMTVP
 40
0.0
  9
$DIMTIX
 70
     0
  9
$DIMSOXD
 70
     0
  9
$DIMSAH
 70
     0
  9
$DIMBLK1
  1

  9
$DIMBLK2
  1

  9
$DIMSTYLE
  2
Standard
  9
$DIMCLRD
 70
     0
  9
$DIMCLRE
 70
     0
  9
$DIMCLRT
 70
     0
  9
$DIMTFAC
 40
1.0
  9
$DIMGAP
 40
0.09
  9
$DIMJUST
 70
     0
  9
$DIMSD1
 70
     0
  9
$DIMSD2
 70
     0
  9
$DIMTOLJ
 70
     1
  9
$DIMTZIN
 70
     0
  9
$DIMALTZ
 70
     0
  9
$DIMALTTZ
 70
     0
  9
$DIMUPT
 70
     0
  9
$DIMDEC
 70
     4
  9
$DIMTDEC
 70
     4
  9
$DIMALTU
 70
     2
  9
$DIMALTTD
 70
     2
  9
$DIMTXSTY
  7
Standard
  9
$DIMAUNIT
 70
     0
  9
$DIMADEC
 70
     0
  9
$DIMALTRND
 40
0.0
  9
$DIMAZIN
 70
     0
  9
$DIMDSEP
 70
    46
  9
$DIMATFIT
 70
     3
  9
$DIMFRAC
 70
     0
  9
$DIMLDRBLK
  1

  9
$DIMLUNIT
 70
     2
  9
$DIMLWD
 70
    -2
  9
$DIMLWE
 70
    -2
  9
$DIMTMOVE
 70
     0
  9
$DIMFXL
 40
1.0
  9
$DIMFXLON
 70
     0
  9
$DIMJOGANG
 40
0.7853981633974483
  9
$DIMTFILL
 70
     0
  9
$DIMTFILLCLR
 70
     0
  9
$DIMARCSYM
 70
     0
  9
$DIMLTYPE
  6

  9
$DIMLTEX1
  6

  9
$DIMLTEX2
  6

  9
$LUNITS
 70
     2
  9
$LUPREC
 70
     4
  9
$SKETCHINC
 40
0.1
  9
$FILLETRAD
 40
0.5
  9
$AUNITS
 70
     0
  9
$AUPREC
 70
     0
  9
$MENU
  1
.
  9
$ELEVATION
 40
0.0
  9
$PELEVATION
 40
0.0
  9
$THICKNESS
 40
0.0
  9
$LIMCHECK
 70
     0
  9
$CHAMFERA
 40
0.5
  9
$CHAMFERB
 40
0.5
  9
$CHAMFERC
 40
1.0
  9
$CHAMFERD
 40
0.0
  9
$SKPOLY
 70
     0
  9
$TDCREATE
 40
2460555.158573819
  9
$TDUCREATE
 40
2460555.116907153
  9
$TDUPDATE
 40
2460555.158573831
  9
$TDUUPDATE
 40
2460555.116907164
  9
$TDINDWG
 40
0.0000000116
  9
$TDUSRTIMER
 40
0.0000000116
  9
$USRTIMER
 70
     1
  9
$ANGBASE
 50
0.0
  9
$ANGDIR
 70
     0
  9
$PDMODE
 70
     0
  9
$PDSIZE
 40
0.0
  9
$PLINEWID
 40
0.0
  9
$SPLFRAME
 70
     0
  9
$SPLINETYPE
 70
     6
  9
$SPLINESEGS
 70
     8
  9
$HANDSEED
  5
69
  9
$SURFTAB1
 70
     6
  9
$SURFTAB2
 70
     6
  9
$SURFTYPE
 70
     6
  9
$SURFU
 70
     6
  9
$SURFV
 70
     6
  9
$UCSBASE
  2

  9
$UCSNAME
  2

  9
$UCSORG
 10
0.0
 20
0.0
 30
0.0
  9
$UCSXDIR
 10
1.0
 20
0.0
 30
0.0
  9
$UCSYDIR
 10
0.0
 20
1.0
 30
0.0
  9
$UCSORTHOREF
  2

  9
$UCSORTHOVIEW
 70
     0
  9
$UCSORGTOP
 10
0.0
 20
0.0
 30
0.0
  9
$UCSORGBOTTOM
 10
0.0
 20
0.0
 30
0.0
  9
$UCSORGLEFT
 10
0.0
 20
0.0
 30
0.0
  9
$UCSORGRIGHT
 10
0.0
 20
0.0
 30
0.0
  9
$UCSORGFRONT
 10
0.0
 20
0.0
 30
0.0
  9
$UCSORGBACK
 10
0.0
 20
0.0
 30
0.0
  9
$PUCSBASE
  2

  9
$PUCSNAME
  2

  9
$PUCSORG
 10
0.0
 20
0.0
 30
0.0
  9
$PUCSXDIR
 10
1.0
 20
0.0
 30
0.0
  9
$PUCSYDIR
 10
0.0
 20
1.0
 30
0.0
  9
$PUCSORTHOREF
  2

  9
$PUCSORTHOVIEW
 70
     0
  9
$PUCSORGTOP
 10
0.0
 20
0.0
 30
0.0
  9
$PUCSORGBOTTOM
 10
0.0
 20
0.0
 30
0.0
  9
$PUCSORGLEFT
 10
0.0
 20
0.0
 30
0.0
  9
$PUCSORGRIGHT
 10
0.0
 20
0.0
 30
0.0
  9
$PUCSORGFRONT
 10
0.0
 20
0.0
 30
0.0
  9
$PUCSORGBACK
 10
0.0
 20
0.0
 30
0.0
  9
$USERI1
 70
     0
  9
$USERI2
 70
     0
  9
$USERI3
 70
     0
  9
$USERI4
 70
     0
  9
$USERI5
 70
     0
  9
$USERR1
 40
0.0
  9
$USERR2
 40
0.0
  9
$USERR3
 40
0.0
  9
$USERR4
 40
0.0
  9
$USERR5
 40
0.0
  9
$WORLDVIEW
 70
     1
  9
$SHADEDGE
 70
     3
  9
$SHADEDIF
 70
    70
  9
$TILEMODE
 70
     1
  9
$MAXACTVP
 70
    64
  9
$PINSBASE
 10
0.0
 20
0.0
 30
0.0
  9
$PLIMCHECK
 70
     0
  9
$PEXTMIN
 10
1.000000000000000E+20
 20
1.000000000000000E+20
 30
1.000000000000000E+20
  9
$PEXTMAX
 10
-1.000000000000000E+20
 20
-1.000000000000000E+20
 30
-1.000000000000000E+20
  9
$PLIMMIN
 10
0.0
 20
0.0
  9
$PLIMMAX
 10
12.0
 20
9.0
  9
$UNITMODE
 70
     0
  9
$VISRETAIN
 70
     1
  9
$PLINEGEN
 70
     0
  9
$PSLTSCALE
 70
     1
  9
$TREEDEPTH
 70
  3020
  9
$CMLSTYLE
  2
Standard
  9
$CMLJUST
 70
     0
  9
$CMLSCALE
 40
1.0
  9
$PROXYGRAPHICS
 70
     1
  9
$MEASUREMENT
 70
     0
  9
$CELWEIGHT
370
    -1
  9
$ENDCAPS
280
     0
  9
$JOINSTYLE
280
     0
  9
$LWDISPLAY
290
     0
  9
$INSUNITS
 70
     5
  9
$HYPERLINKBASE
  1

  9
$STYLESHEET
  1

  9
$XEDIT
290
     1
  9
$CEPSNTYPE
380
     0
  9
$PSTYLEMODE
290
     1
  9
$FINGERPRINTGUID
  2
{3E2188C9-0BB2-462F-A119-5D08163B90FE}
  9
$VERSIONGUID
  2
{FAEB1C32-E019-11D5-929B-00C0DF256EC4}
  9
$EXTNAMES
290
     1
  9
$PSVPSCALE
 40
0.0
  9
$OLESTARTUP
290
     0
  9
$SORTENTS
280
   127
  9
$INDEXCTL
280
     0
  9
$HIDETEXT
280
     1
  9
$XCLIPFRAME
290
     0
  9
$HALOGAP
280
     0
  9
$OBSCOLOR
 70
   257
  9
$OBSLTYPE
280
     0
  9
$INTERSECTIONDISPLAY
280
     0
  9
$INTERSECTIONCOLOR
 70
   257
  9
$DIMASSOC
280
     2
  9
$PROJECTNAME
  1

  9
$CAMERADISPLAY
290
     0
  9
$LENSLENGTH
 40
50.0
  9
$CAMERAHEIGHT
 40
0.0
  9
$STEPSPERSEC
 40
2.0
  9
$STEPSIZE
 40
6.0
  9
$3DDWFPREC
 40
2.0
  9
$PSOLWIDTH
 40
0.25
  9
$PSOLHEIGHT
 40
4.0
  9
$LOFTANG1
 40
1.570796326794897
  9
$LOFTANG2
 40
1.570796326794897
  9
$LOFTMAG1
 40
0.0
  9
$LOFTMAG2
 40
0.0
  9
$LOFTPARAM
 70
     7
  9
$LOFTNORMALS
280
     1
  9
$LATITUDE
 40
37.795
  9
$LONGITUDE
 40
-122.394
  9
$NORTHDIRECTION
 40
0.0
  9
$TIMEZONE
 70
 -8000
  9
$LIGHTGLYPHDISPLAY
280
     1
  9
$TILEMODELIGHTSYNCH
280
     1
  9
$SOLIDHIST
280
     1
  9
$SHOWHIST
280
     1
  9
$DWFFRAME
280
     2
  9
$DGNFRAME
280
     2
  9
$REALWORLDSCALE
290
     1
  9
$INTERFERECOLOR
 62
   256
  9
$CSHADOW
280
     0
  9
$SHADOWPLANELOCATION
 40
0.0
  0
ENDSEC
  0
SECTION
  2
CLASSES
  0
CLASS
  1
ACDBDICTIONARYWDFLT
  2
AcDbDictionaryWithDefault
  3
ObjectDBX Classes
 90
        0
 91
        4
280
     0
281
     0
  0
CLASS
  1
VISUALSTYLE
  2
AcDbVisualStyle
  3
ObjectDBX Classes
 90
     4095
 91
        4
280
     0
281
     0
  0
CLASS
  1
MATERIAL
  2
AcDbMaterial
  3
ObjectDBX Classes
 90
     1153
 91
        4
280
     0
281
     0
  0
ENDSEC
  0
SECTION
  2
TABLES
  0
TABLE
  2
VPORT
  5
8
330
0
100
AcDbSymbolTable
 70
     1
  0
VPORT
  5
29
330
8
100
AcDbSymbolTableRecord
100
AcDbViewportTableRecord
  2
*Active
 70
     0
 10
0.0
 20
0.0
 11
1.0
 21
1.0
 12
10.42990654205607
 22
4.5
 13
0.0
 23
0.0
 14
0.5
 24
0.5
 15
0.5
 25
0.5
 16
0.0
 26
0.0
 36
1.0
 17
0.0
 27
0.0
 37
0.0
 40
9.0
 41
1.972972972850329
 42
50.0
 43
0.0
 44
0.0
 50
0.0
 51
0.0
 71
     0
 72
   100
 73
     1
 74
     3
 75
     0
 76
     0
 77
     0
 78
     0
281
     0
 65
     1
110
0.0
120
0.0
130
0.0
111
1.0
121
0.0
131
0.0
112
0.0
122
1.0
132
0.0
 79
     0
146
0.0
 60
     3
 61
     5
292
     1
282
     1
141
0.0
142
0.0
 63
   250
  0
ENDTAB
  0
TABLE
  2
LTYPE
  5
5
330
0
100
AcDbSymbolTable
 70
     1
  0
LTYPE
  5
14
330
5
100
AcDbSymbolTableRecord
100
AcDbLinetypeTableRecord
  2
ByBlock
 70
     0
  3

 72
    65
 73
     0
 40
0.0
  0
LTYPE
  5
15
330
5
100
AcDbSymbolTableRecord
100
AcDbLinetypeTableRecord
  2
ByLayer
 70
     0
  3

 72
    65
 73
     0
 40
0.0
  0
LTYPE
  5
16
330
5
100
AcDbSymbolTableRecord
100
AcDbLinetypeTableRecord
  2
Continuous
 70
     0
  3
Solid line
 72
    65
 73
     0
 40
0.0
  0
ENDTAB
  0
TABLE
  2
LAYER
  5
2
330
0
100
AcDbSymbolTable
 70
     2
  0
LAYER
  5
10
330
2
100
AcDbSymbolTableRecord
100
AcDbLayerTableRecord
  2
0
 70
     0
 62
     7
  6
Continuous
370
    -3
390
F
347
3E
  0
LAYER
  5
40
330
2
100
AcDbSymbolTableRecord
100
AcDbLayerTableRecord
  2
Layer 1
 70
     0
 62
     7
  6
Continuous
370
    -3
390
F
347
3E
  0
ENDTAB
  0
TABLE
  2
STYLE
  5
3
330
0
100
AcDbSymbolTable
 70
     1
  0
STYLE
  5
11
330
3
100
AcDbSymbolTableRecord
100
AcDbTextStyleTableRecord
  2
Standard
 70
     0
 40
0.0
 41
1.0
 50
0.0
 71
     0
 42
0.2
  3
txt
  4

  0
ENDTAB
  0
TABLE
  2
VIEW
  5
6
330
0
100
AcDbSymbolTable
 70
     0
  0
ENDTAB
  0
TABLE
  2
UCS
  5
7
330
0
100
AcDbSymbolTable
 70
     0
  0
ENDTAB
  0
TABLE
  2
APPID
  5
9
330
0
100
AcDbSymbolTable
 70
     2
  0
APPID
  5
12
330
9
100
AcDbSymbolTableRecord
100
AcDbRegAppTableRecord
  2
ACAD
 70
     0
  0
APPID
  5
3F
330
9
100
AcDbSymbolTableRecord
100
AcDbRegAppTableRecord
  2
ODA
 70
     0
  0
ENDTAB
  0
TABLE
  2
DIMSTYLE
  5
A
330
0
100
AcDbSymbolTable
 70
     1
100
AcDbDimStyleTable
  0
DIMSTYLE
105
27
330
A
100
AcDbSymbolTableRecord
100
AcDbDimStyleTableRecord
  2
Standard
 70
     0
178
     0
340
11
  0
ENDTAB
  0
TABLE
  2
BLOCK_RECORD
  5
1
330
0
100
AcDbSymbolTable
 70
     1
  0
BLOCK_RECORD
  5
1F
330
1
100
AcDbSymbolTableRecord
100
AcDbBlockTableRecord
  2
*Model_Space
340
22
 70
     0
280
     1
281
     0
  0
BLOCK_RECORD
  5
1B
330
1
100
AcDbSymbolTableRecord
100
AcDbBlockTableRecord
  2
*Paper_Space
340
1E
 70
     0
280
     1
281
     0
  0
BLOCK_RECORD
  5
23
330
1
100
AcDbSymbolTableRecord
100
AcDbBlockTableRecord
  2
*Paper_Space0
340
26
 70
     0
280
     1
281
     0
  0
ENDTAB
  0
ENDSEC
  0
SECTION
  2
BLOCKS
  0
BLOCK
  5
20
330
1F
100
AcDbEntity
  8
0
100
AcDbBlockBegin
  2
*Model_Space
 70
     0
 10
0.0
 20
0.0
 30
0.0
  3
*Model_Space
  1

  0
ENDBLK
  5
21
330
1F
100
AcDbEntity
  8
0
100
AcDbBlockEnd
  0
BLOCK
  5
1C
330
1B
100
AcDbEntity
 67
     1
  8
0
100
AcDbBlockBegin
  2
*Paper_Space
 70
     0
 10
0.0
 20
0.0
 30
0.0
  3
*Paper_Space
  1

  0
ENDBLK
  5
1D
330
1B
100
AcDbEntity
 67
     1
  8
0
100
AcDbBlockEnd
  0
BLOCK
  5
24
330
23
100
AcDbEntity
  8
0
100
AcDbBlockBegin
  2
*Paper_Space0
 70
     0
 10
0.0
 20
0.0
 30
0.0
  3
*Paper_Space0
  1

  0
ENDBLK
  5
25
330
23
100
AcDbEntity
  8
0
100
AcDbBlockEnd
  0
ENDSEC
  0
SECTION
  2
ENTITIES
  0
SPLINE
  5
41
330
1F
100
AcDbEntity
  8
Layer 1
 62
     5
100
AcDbSpline
210
0.0
220
0.0
230
1.0
 70
    11
 71
     3
 72
   568
 73
   564
 74
     0
 42
0.0000000001
 43
0.0000000001
 12
1.0
 22
0.0
 32
0.0
 13
1.0
 23
0.0
 33
0.0
 40
0.0
 40
0.0
 40
0.0
 40
0.0
 40
0.0070422535211268
 40
0.0070422535211268
 40
0.0070422535211268
 40
0.0070422535211268
 40
0.0140845070422535
 40
0.0140845070422535
 40
0.0140845070422535
 40
0.0140845070422535
 40
0.0211267605633803
 40
0.0211267605633803
 40
0.0211267605633803
 40
0.0211267605633803
 40
0.028169014084507
 40
0.028169014084507
 40
0.028169014084507
 40
0.028169014084507
 40
0.0352112676056338
 40
0.0352112676056338
 40
0.0352112676056338
 40
0.0352112676056338
 40
0.0422535211267606
 40
0.0422535211267606
 40
0.0422535211267606
 40
0.0422535211267606
 40
0.0492957746478873
 40
0.0492957746478873
 40
0.0492957746478873
 40
0.0492957746478873
 40
0.0563380281690141
 40
0.0563380281690141
 40
0.0563380281690141
 40
0.0563380281690141
 40
0.0633802816901408
 40
0.0633802816901408
 40
0.0633802816901408
 40
0.0633802816901408
 40
0.0704225352112676
 40
0.0704225352112676
 40
0.0704225352112676
 40
0.0704225352112676
 40
0.0774647887323944
 40
0.0774647887323944
 40
0.0774647887323944
 40
0.0774647887323944
 40
0.0845070422535211
 40
0.0845070422535211
 40
0.0845070422535211
 40
0.0845070422535211
 40
0.0915492957746479
 40
0.0915492957746479
 40
0.0915492957746479
 40
0.0915492957746479
 40
0.0985915492957746
 40
0.0985915492957746
 40
0.0985915492957746
 40
0.0985915492957746
 40
0.1056338028169014
 40
0.1056338028169014
 40
0.1056338028169014
 40
0.1056338028169014
 40
0.1126760563380282
 40
0.1126760563380282
 40
0.1126760563380282
 40
0.1126760563380282
 40
0.1197183098591549
 40
0.1197183098591549
 40
0.1197183098591549
 40
0.1197183098591549
 40
0.1267605633802817
 40
0.1267605633802817
 40
0.1267605633802817
 40
0.1267605633802817
 40
0.1338028169014084
 40
0.1338028169014084
 40
0.1338028169014084
 40
0.1338028169014084
 40
0.1408450704225352
 40
0.1408450704225352
 40
0.1408450704225352
 40
0.1408450704225352
 40
0.147887323943662
 40
0.147887323943662
 40
0.147887323943662
 40
0.147887323943662
 40
0.1549295774647887
 40
0.1549295774647887
 40
0.1549295774647887
 40
0.1549295774647887
 40
0.1619718309859155
 40
0.1619718309859155
 40
0.1619718309859155
 40
0.1619718309859155
 40
0.1690140845070423
 40
0.1690140845070423
 40
0.1690140845070423
 40
0.1690140845070423
 40
0.176056338028169
 40
0.176056338028169
 40
0.176056338028169
 40
0.176056338028169
 40
0.1830985915492958
 40
0.1830985915492958
 40
0.1830985915492958
 40
0.1830985915492958
 40
0.1901408450704225
 40
0.1901408450704225
 40
0.1901408450704225
 40
0.1901408450704225
 40
0.1971830985915493
 40
0.1971830985915493
 40
0.1971830985915493
 40
0.1971830985915493
 40
0.2042253521126761
 40
0.2042253521126761
 40
0.2042253521126761
 40
0.2042253521126761
 40
0.2112676056338028
 40
0.2112676056338028
 40
0.2112676056338028
 40
0.2112676056338028
 40
0.2183098591549296
 40
0.2183098591549296
 40
0.2183098591549296
 40
0.2183098591549296
 40
0.2253521126760563
 40
0.2253521126760563
 40
0.2253521126760563
 40
0.2253521126760563
 40
0.2323943661971831
 40
0.2323943661971831
 40
0.2323943661971831
 40
0.2323943661971831
 40
0.2394366197183098
 40
0.2394366197183098
 40
0.2394366197183098
 40
0.2394366197183098
 40
0.2464788732394366
 40
0.2464788732394366
 40
0.2464788732394366
 40
0.2464788732394366
 40
0.2535211267605634
 40
0.2535211267605634
 40
0.2535211267605634
 40
0.2535211267605634
 40
0.2605633802816901
 40
0.2605633802816901
 40
0.2605633802816901
 40
0.2605633802816901
 40
0.2676056338028169
 40
0.2676056338028169
 40
0.2676056338028169
 40
0.2676056338028169
 40
0.2746478873239437
 40
0.2746478873239437
 40
0.2746478873239437
 40
0.2746478873239437
 40
0.2816901408450704
 40
0.2816901408450704
 40
0.2816901408450704
 40
0.2816901408450704
 40
0.2887323943661972
 40
0.2887323943661972
 40
0.2887323943661972
 40
0.2887323943661972
 40
0.2957746478873239
 40
0.2957746478873239
 40
0.2957746478873239
 40
0.2957746478873239
 40
0.3028169014084507
 40
0.3028169014084507
 40
0.3028169014084507
 40
0.3028169014084507
 40
0.3098591549295774
 40
0.3098591549295774
 40
0.3098591549295774
 40
0.3098591549295774
 40
0.3169014084507042
 40
0.3169014084507042
 40
0.3169014084507042
 40
0.3169014084507042
 40
0.323943661971831
 40
0.323943661971831
 40
0.323943661971831
 40
0.323943661971831
 40
0.3309859154929577
 40
0.3309859154929577
 40
0.3309859154929577
 40
0.3309859154929577
 40
0.3380281690140845
 40
0.3380281690140845
 40
0.3380281690140845
 40
0.3380281690140845
 40
0.3450704225352113
 40
0.3450704225352113
 40
0.3450704225352113
 40
0.3450704225352113
 40
0.352112676056338
 40
0.352112676056338
 40
0.352112676056338
 40
0.352112676056338
 40
0.3591549295774648
 40
0.3591549295774648
 40
0.3591549295774648
 40
0.3591549295774648
 40
0.3661971830985916
 40
0.3661971830985916
 40
0.3661971830985916
 40
0.3661971830985916
 40
0.3732394366197183
 40
0.3732394366197183
 40
0.3732394366197183
 40
0.3732394366197183
 40
0.3802816901408451
 40
0.3802816901408451
 40
0.3802816901408451
 40
0.3802816901408451
 40
0.3873239436619718
 40
0.3873239436619718
 40
0.3873239436619718
 40
0.3873239436619718
 40
0.3943661971830986
 40
0.3943661971830986
 40
0.3943661971830986
 40
0.3943661971830986
 40
0.4014084507042254
 40
0.4014084507042254
 40
0.4014084507042254
 40
0.4014084507042254
 40
0.4084507042253521
 40
0.4084507042253521
 40
0.4084507042253521
 40
0.4084507042253521
 40
0.4154929577464789
 40
0.4154929577464789
 40
0.4154929577464789
 40
0.4154929577464789
 40
0.4225352112676056
 40
0.4225352112676056
 40
0.4225352112676056
 40
0.4225352112676056
 40
0.4295774647887324
 40
0.4295774647887324
 40
0.4295774647887324
 40
0.4295774647887324
 40
0.4366197183098591
 40
0.4366197183098591
 40
0.4366197183098591
 40
0.4366197183098591
 40
0.4436619718309859
 40
0.4436619718309859
 40
0.4436619718309859
 40
0.4436619718309859
 40
0.4507042253521127
 40
0.4507042253521127
 40
0.4507042253521127
 40
0.4507042253521127
 40
0.4577464788732394
 40
0.4577464788732394
 40
0.4577464788732394
 40
0.4577464788732394
 40
0.4647887323943662
 40
0.4647887323943662
 40
0.4647887323943662
 40
0.4647887323943662
 40
0.4718309859154929
 40
0.4718309859154929
 40
0.4718309859154929
 40
0.4718309859154929
 40
0.4788732394366197
 40
0.4788732394366197
 40
0.4788732394366197
 40
0.4788732394366197
 40
0.4859154929577465
 40
0.4859154929577465
 40
0.4859154929577465
 40
0.4859154929577465
 40
0.4929577464788732
 40
0.4929577464788732
 40
0.4929577464788732
 40
0.4929577464788732
 40
0.5
 40
0.5
 40
0.5
 40
0.5
 40
0.5070422535211268
 40
0.5070422535211268
 40
0.5070422535211268
 40
0.5070422535211268
 40
0.5140845070422535
 40
0.5140845070422535
 40
0.5140845070422535
 40
0.5140845070422535
 40
0.5211267605633803
 40
0.5211267605633803
 40
0.5211267605633803
 40
0.5211267605633803
 40
0.528169014084507
 40
0.528169014084507
 40
0.528169014084507
 40
0.528169014084507
 40
0.5352112676056338
 40
0.5352112676056338
 40
0.5352112676056338
 40
0.5352112676056338
 40
0.5422535211267606
 40
0.5422535211267606
 40
0.5422535211267606
 40
0.5422535211267606
 40
0.5492957746478874
 40
0.5492957746478874
 40
0.5492957746478874
 40
0.5492957746478874
 40
0.5563380281690141
 40
0.5563380281690141
 40
0.5563380281690141
 40
0.5563380281690141
 40
0.5633802816901409
 40
0.5633802816901409
 40
0.5633802816901409
 40
0.5633802816901409
 40
0.5704225352112676
 40
0.5704225352112676
 40
0.5704225352112676
 40
0.5704225352112676
 40
0.5774647887323944
 40
0.5774647887323944
 40
0.5774647887323944
 40
0.5774647887323944
 40
0.5845070422535211
 40
0.5845070422535211
 40
0.5845070422535211
 40
0.5845070422535211
 40
0.5915492957746479
 40
0.5915492957746479
 40
0.5915492957746479
 40
0.5915492957746479
 40
0.5985915492957746
 40
0.5985915492957746
 40
0.5985915492957746
 40
0.5985915492957746
 40
0.6056338028169014
 40
0.6056338028169014
 40
0.6056338028169014
 40
0.6056338028169014
 40
0.6126760563380281
 40
0.6126760563380281
 40
0.6126760563380281
 40
0.6126760563380281
 40
0.6197183098591549
 40
0.6197183098591549
 40
0.6197183098591549
 40
0.6197183098591549
 40
0.6267605633802817
 40
0.6267605633802817
 40
0.6267605633802817
 40
0.6267605633802817
 40
0.6338028169014085
 40
0.6338028169014085
 40
0.6338028169014085
 40
0.6338028169014085
 40
0.6408450704225352
 40
0.6408450704225352
 40
0.6408450704225352
 40
0.6408450704225352
 40
0.647887323943662
 40
0.647887323943662
 40
0.647887323943662
 40
0.647887323943662
 40
0.6549295774647887
 40
0.6549295774647887
 40
0.6549295774647887
 40
0.6549295774647887
 40
0.6619718309859155
 40
0.6619718309859155
 40
0.6619718309859155
 40
0.6619718309859155
 40
0.6690140845070423
 40
0.6690140845070423
 40
0.6690140845070423
 40
0.6690140845070423
 40
0.676056338028169
 40
0.676056338028169
 40
0.676056338028169
 40
0.676056338028169
 40
0.6830985915492958
 40
0.6830985915492958
 40
0.6830985915492958
 40
0.6830985915492958
 40
0.6901408450704225
 40
0.6901408450704225
 40
0.6901408450704225
 40
0.6901408450704225
 40
0.6971830985915493
 40
0.6971830985915493
 40
0.6971830985915493
 40
0.6971830985915493
 40
0.704225352112676
 40
0.704225352112676
 40
0.704225352112676
 40
0.704225352112676
 40
0.7112676056338029
 40
0.7112676056338029
 40
0.7112676056338029
 40
0.7112676056338029
 40
0.7183098591549296
 40
0.7183098591549296
 40
0.7183098591549296
 40
0.7183098591549296
 40
0.7253521126760564
 40
0.7253521126760564
 40
0.7253521126760564
 40
0.7253521126760564
 40
0.7323943661971831
 40
0.7323943661971831
 40
0.7323943661971831
 40
0.7323943661971831
 40
0.7394366197183099
 40
0.7394366197183099
 40
0.7394366197183099
 40
0.7394366197183099
 40
0.7464788732394366
 40
0.7464788732394366
 40
0.7464788732394366
 40
0.7464788732394366
 40
0.7535211267605634
 40
0.7535211267605634
 40
0.7535211267605634
 40
0.7535211267605634
 40
0.7605633802816901
 40
0.7605633802816901
 40
0.7605633802816901
 40
0.7605633802816901
 40
0.7676056338028169
 40
0.7676056338028169
 40
0.7676056338028169
 40
0.7676056338028169
 40
0.7746478873239436
 40
0.7746478873239436
 40
0.7746478873239436
 40
0.7746478873239436
 40
0.7816901408450704
 40
0.7816901408450704
 40
0.7816901408450704
 40
0.7816901408450704
 40
0.7887323943661971
 40
0.7887323943661971
 40
0.7887323943661971
 40
0.7887323943661971
 40
0.795774647887324
 40
0.795774647887324
 40
0.795774647887324
 40
0.795774647887324
 40
0.8028169014084507
 40
0.8028169014084507
 40
0.8028169014084507
 40
0.8028169014084507
 40
0.8098591549295775
 40
0.8098591549295775
 40
0.8098591549295775
 40
0.8098591549295775
 40
0.8169014084507042
 40
0.8169014084507042
 40
0.8169014084507042
 40
0.8169014084507042
 40
0.823943661971831
 40
0.823943661971831
 40
0.823943661971831
 40
0.823943661971831
 40
0.8309859154929577
 40
0.8309859154929577
 40
0.8309859154929577
 40
0.8309859154929577
 40
0.8380281690140845
 40
0.8380281690140845
 40
0.8380281690140845
 40
0.8380281690140845
 40
0.8450704225352113
 40
0.8450704225352113
 40
0.8450704225352113
 40
0.8450704225352113
 40
0.852112676056338
 40
0.852112676056338
 40
0.852112676056338
 40
0.852112676056338
 40
0.8591549295774648
 40
0.8591549295774648
 40
0.8591549295774648
 40
0.8591549295774648
 40
0.8661971830985915
 40
0.8661971830985915
 40
0.8661971830985915
 40
0.8661971830985915
 40
0.8732394366197183
 40
0.8732394366197183
 40
0.8732394366197183
 40
0.8732394366197183
 40
0.8802816901408451
 40
0.8802816901408451
 40
0.8802816901408451
 40
0.8802816901408451
 40
0.8873239436619719
 40
0.8873239436619719
 40
0.8873239436619719
 40
0.8873239436619719
 40
0.8943661971830986
 40
0.8943661971830986
 40
0.8943661971830986
 40
0.8943661971830986
 40
0.9014084507042254
 40
0.9014084507042254
 40
0.9014084507042254
 40
0.9014084507042254
 40
0.9084507042253521
 40
0.9084507042253521
 40
0.9084507042253521
 40
0.9084507042253521
 40
0.9154929577464789
 40
0.9154929577464789
 40
0.9154929577464789
 40
0.9154929577464789
 40
0.9225352112676056
 40
0.9225352112676056
 40
0.9225352112676056
 40
0.9225352112676056
 40
0.9295774647887324
 40
0.9295774647887324
 40
0.9295774647887324
 40
0.9295774647887324
 40
0.9366197183098591
 40
0.9366197183098591
 40
0.9366197183098591
 40
0.9366197183098591
 40
0.9436619718309859
 40
0.9436619718309859
 40
0.9436619718309859
 40
0.9436619718309859
 40
0.9507042253521126
 40
0.9507042253521126
 40
0.9507042253521126
 40
0.9507042253521126
 40
0.9577464788732394
 40
0.9577464788732394
 40
0.9577464788732394
 40
0.9577464788732394
 40
0.9647887323943662
 40
0.9647887323943662
 40
0.9647887323943662
 40
0.9647887323943662
 40
0.971830985915493
 40
0.971830985915493
 40
0.971830985915493
 40
0.971830985915493
 40
0.9788732394366197
 40
0.9788732394366197
 40
0.9788732394366197
 40
0.9788732394366197
 40
0.9859154929577465
 40
0.9859154929577465
 40
0.9859154929577465
 40
0.9859154929577465
 40
1.0
 40
1.0
 40
1.0
 40
1.0
 10
-9.35531
 20
-6.72957
 30
0.0
 10
-9.40459
 20
-6.72957
 30
0.0
 10
-9.45266
 20
-6.73464
 30
0.0
 10
-9.49906
 20
-6.74423
 30
0.0
 10
-9.49906
 20
-6.74423
 30
0.0
 10
-9.5017
 20
-6.74075
 30
0.0
 10
-9.50478
 20
-6.73766
 30
0.0
 10
-9.50819
 20
-6.73501
 30
0.0
 10
-9.50819
 20
-6.73501
 30
0.0
 10
-9.50819
 20
-6.73501
 30
0.0
 10
-9.50816
 20
-6.73497
 30
0.0
 10
-9.50816
 20
-6.73497
 30
0.0
 10
-9.50816
 20
-6.73497
 30
0.0
 10
-9.54195
 20
-6.70871
 30
0.0
 10
-9.57237
 20
-6.6823
 30
0.0
 10
-9.59958
 20
-6.65513
 30
0.0
 10
-9.59958
 20
-6.65513
 30
0.0
 10
-9.62672
 20
-6.62802
 30
0.0
 10
-9.65133
 20
-6.59957
 30
0.0
 10
-9.67359
 20
-6.56912
 30
0.0
 10
-9.67359
 20
-6.56912
 30
0.0
 10
-9.67359
 20
-6.56912
 30
0.0
 10
-9.67508
 20
-6.56719
 30
0.0
 10
-9.67508
 20
-6.56719
 30
0.0
 10
-9.67508
 20
-6.56719
 30
0.0
 10
-9.68594
 20
-6.55129
 30
0.0
 10
-9.70429
 20
-6.51443
 30
0.0
 10
-9.72167
 20
-6.47756
 30
0.0
 10
-9.72167
 20
-6.47756
 30
0.0
 10
-9.62817
 20
-6.50465
 30
0.0
 10
-9.50061
 20
-6.54187
 30
0.0
 10
-9.46789
 20
-6.55274
 30
0.0
 10
-9.46789
 20
-6.55274
 30
0.0
 10
-9.33222
 20
-6.59783
 30
0.0
 10
-9.18967
 20
-6.63813
 30
0.0
 10
-9.04583
 20
-6.66569
 30
0.0
 10
-9.04583
 20
-6.66569
 30
0.0
 10
-8.90048
 20
-6.69353
 30
0.0
 10
-8.75288
 20
-6.70868
 30
0.0
 10
-8.6082
 20
-6.70322
 30
0.0
 10
-8.6082
 20
-6.70322
 30
0.0
 10
-8.5807
 20
-6.70225
 30
0.0
 10
-8.55919
 20
-6.67916
 30
0.0
 10
-8.56016
 20
-6.65166
 30
0.0
 10
-8.56016
 20
-6.65166
 30
0.0
 10
-8.56032
 20
-6.64712
 30
0.0
 10
-8.56108
 20
-6.64274
 30
0.0
 10
-8.56237
 20
-6.6386
 30
0.0
 10
-8.56237
 20
-6.6386
 30
0.0
 10
-8.56237
 20
-6.6386
 30
0.0
 10
-8.5623
 20
-6.63858
 30
0.0
 10
-8.5623
 20
-6.63858
 30
0.0
 10
-8.5623
 20
-6.63858
 30
0.0
 10
-8.56957
 20
-6.61532
 30
0.0
 10
-8.57867
 20
-6.59207
 30
0.0
 10
-8.5891
 20
-6.56939
 30
0.0
 10
-8.5891
 20
-6.56939
 30
0.0
 10
-8.5891
 20
-6.56939
 30
0.0
 10
-8.59039
 20
-6.5668
 30
0.0
 10
-8.59039
 20
-6.5668
 30
0.0
 10
-8.59039
 20
-6.5668
 30
0.0
 10
-8.60126
 20
-6.54342
 30
0.0
 10
-8.61311
 20
-6.52129
 30
0.0
 10
-8.62543
 20
-6.50092
 30
0.0
 10
-8.62543
 20
-6.50092
 30
0.0
 10
-8.63221
 20
-6.48969
 30
0.0
 10
-8.64181
 20
-6.47488
 30
0.0
 10
-8.65139
 20
-6.46008
 30
0.0
 10
-8.65139
 20
-6.46008
 30
0.0
 10
-8.672
 20
-6.42827
 30
0.0
 10
-8.69293
 20
-6.39596
 30
0.0
 10
-8.70515
 20
-6.36414
 30
0.0
 10
-8.70515
 20
-6.36414
 30
0.0
 10
-8.71402
 20
-6.34107
 30
0.0
 10
-8.71618
 20
-6.32292
 30
0.0
 10
-8.71329
 20
-6.30894
 30
0.0
 10
-8.71329
 20
-6.30894
 30
0.0
 10
-8.71134
 20
-6.2995
 30
0.0
 10
-8.70648
 20
-6.29147
 30
0.0
 10
-8.69958
 20
-6.28476
 30
0.0
 10
-8.69958
 20
-6.28476
 30
0.0
 10
-8.69073
 20
-6.27614
 30
0.0
 10
-8.67865
 20
-6.26922
 30
0.0
 10
-8.66463
 20
-6.26383
 30
0.0
 10
-8.66463
 20
-6.26383
 30
0.0
 10
-8.63692
 20
-6.25318
 30
0.0
 10
-8.60344
 20
-6.24842
 30
0.0
 10
-8.57027
 20
-6.24798
 30
0.0
 10
-8.57027
 20
-6.24798
 30
0.0
 10
-8.55035
 20
-6.33316
 30
0.0
 10
-8.49112
 20
-6.42651
 30
0.0
 10
-8.44797
 20
-6.4945
 30
0.0
 10
-8.44797
 20
-6.4945
 30
0.0
 10
-8.44797
 20
-6.4945
 30
0.0
 10
-8.42837
 20
-6.52535
 30
0.0
 10
-8.42837
 20
-6.52535
 30
0.0
 10
-8.42837
 20
-6.52535
 30
0.0
 10
-8.34546
 20
-6.65956
 30
0.0
 10
-8.32958
 20
-6.76119
 30
0.0
 10
-8.32517
 20
-6.78953
 30
0.0
 10
-8.32517
 20
-6.78953
 30
0.0
 10
-8.32517
 20
-6.78953
 30
0.0
 10
-8.32406
 20
-6.7964
 30
0.0
 10
-8.32406
 20
-6.7964
 30
0.0
 10
-8.32406
 20
-6.7964
 30
0.0
 10
-8.32406
 20
-6.7964
 30
0.0
 10
-8.32406
 20
-7.54441
 30
0.0
 10
-8.32406
 20
-7.54441
 30
0.0
 10
-8.32406
 20
-7.54441
 30
0.0
 10
-8.32406
 20
-7.60496
 30
0.0
 10
-8.32474
 20
-7.64799
 30
0.0
 10
-8.32541
 20
-7.69089
 30
0.0
 10
-8.32541
 20
-7.69089
 30
0.0
 10
-8.32723
 20
-7.80706
 30
0.0
 10
-8.32907
 20
-7.92383
 30
0.0
 10
-8.32115
 20
-8.03734
 30
0.0
 10
-8.32115
 20
-8.03734
 30
0.0
 10
-8.31932
 20
-8.06484
 30
0.0
 10
-8.29553
 20
-8.08565
 30
0.0
 10
-8.26803
 20
-8.08382
 30
0.0
 10
-8.26803
 20
-8.08382
 30
0.0
 10
-8.24809
 20
-8.08249
 30
0.0
 10
-8.23167
 20
-8.06962
 30
0.0
 10
-8.22484
 20
-8.05216
 30
0.0
 10
-8.22484
 20
-8.05216
 30
0.0
 10
-8.20216
 20
-8.00411
 30
0.0
 10
-8.17558
 20
-7.9534
 30
0.0
 10
-8.14612
 20
-7.90474
 30
0.0
 10
-8.14612
 20
-7.90474
 30
0.0
 10
-8.14612
 20
-7.90474
 30
0.0
 10
-8.14607
 20
-7.90466
 30
0.0
 10
-8.14607
 20
-7.90466
 30
0.0
 10
-8.14607
 20
-7.90466
 30
0.0
 10
-8.14607
 20
-7.90466
 30
0.0
 10
-8.14593
 20
-7.90474
 30
0.0
 10
-8.14593
 20
-7.90474
 30
0.0
 10
-8.14593
 20
-7.90474
 30
0.0
 10
-8.1388
 20
-7.89296
 30
0.0
 10
-8.13151
 20
-7.88132
 30
0.0
 10
-8.12409
 20
-7.86987
 30
0.0
 10
-8.12409
 20
-7.86987
 30
0.0
 10
-8.11448
 20
-7.91585
 30
0.0
 10
-8.10632
 20
-7.96246
 30
0.0
 10
-8.09821
 20
-8.00889
 30
0.0
 10
-8.09821
 20
-8.00889
 30
0.0
 10
-8.08941
 20
-8.05924
 30
0.0
 10
-8.08063
 20
-8.10941
 30
0.0
 10
-8.06958
 20
-8.16076
 30
0.0
 10
-8.06958
 20
-8.16076
 30
0.0
 10
-8.06387
 20
-8.18772
 30
0.0
 10
-8.03736
 20
-8.20495
 30
0.0
 10
-8.0104
 20
-8.19924
 30
0.0
 10
-8.0104
 20
-8.19924
 30
0.0
 10
-7.99642
 20
-8.19628
 30
0.0
 10
-7.98505
 20
-8.18772
 30
0.0
 10
-7.97815
 20
-8.17641
 30
0.0
 10
-7.97815
 20
-8.17641
 30
0.0
 10
-7.94044
 20
-8.11768
 30
0.0
 10
-7.90795
 20
-8.04344
 30
0.0
 10
-7.88391
 20
-7.96653
 30
0.0
 10
-7.88391
 20
-7.96653
 30
0.0
 10
-7.87002
 20
-7.9221
 30
0.0
 10
-7.85886
 20
-7.87645
 30
0.0
 10
-7.85107
 20
-7.8321
 30
0.0
 10
-7.85107
 20
-7.8321
 30
0.0
 10
-7.84697
 20
-7.83709
 30
0.0
 10
-7.84298
 20
-7.84221
 30
0.0
 10
-7.83912
 20
-7.84743
 30
0.0
 10
-7.83912
 20
-7.84743
 30
0.0
 10
-7.81674
 20
-7.87767
 30
0.0
 10
-7.7989
 20
-7.91089
 30
0.0
 10
-7.78959
 20
-7.9423
 30
0.0
 10
-7.78959
 20
-7.9423
 30
0.0
 10
-7.78183
 20
-7.96872
 30
0.0
 10
-7.7541
 20
-7.98385
 30
0.0
 10
-7.72768
 20
-7.97609
 30
0.0
 10
-7.72768
 20
-7.97609
 30
0.0
 10
-7.70996
 20
-7.97089
 30
0.0
 10
-7.69731
 20
-7.9567
 30
0.0
 10
-7.69325
 20
-7.93995
 30
0.0
 10
-7.69325
 20
-7.93995
 30
0.0
 10
-7.65768
 20
-7.82391
 30
0.0
 10
-7.67143
 20
-7.65334
 30
0.0
 10
-7.68384
 20
-7.49929
 30
0.0
 10
-7.68384
 20
-7.49929
 30
0.0
 10
-7.68951
 20
-7.42888
 30
0.0
 10
-7.6949
 20
-7.36206
 30
0.0
 10
-7.6949
 20
-7.30742
 30
0.0
 10
-7.6949
 20
-7.30742
 30
0.0
 10
-7.6949
 20
-7.30742
 30
0.0
 10
-7.6951
 20
-7.30742
 30
0.0
 10
-7.6951
 20
-7.30742
 30
0.0
 10
-7.6951
 20
-7.30742
 30
0.0
 10
-7.6951
 20
-7.30742
 30
0.0
 10
-7.69506
 20
-7.26877
 30
0.0
 10
-7.69506
 20
-7.26877
 30
0.0
 10
-7.69506
 20
-7.26877
 30
0.0
 10
-7.6948
 20
-7.11084
 30
0.0
 10
-7.69453
 20
-6.94911
 30
0.0
 10
-7.73283
 20
-6.79429
 30
0.0
 10
-7.73283
 20
-6.79429
 30
0.0
 10
-7.75571
 20
-6.70197
 30
0.0
 10
-7.78398
 20
-6.60522
 30
0.0
 10
-7.82244
 20
-6.51334
 30
0.0
 10
-7.82244
 20
-6.51334
 30
0.0
 10
-7.86179
 20
-6.4193
 30
0.0
 10
-7.91176
 20
-6.33023
 30
0.0
 10
-7.97732
 20
-6.25566
 30
0.0
 10
-7.97732
 20
-6.25566
 30
0.0
 10
-8.02398
 20
-6.20262
 30
0.0
 10
-8.10273
 20
-6.13751
 30
0.0
 10
-8.18623
 20
-6.09208
 30
0.0
 10
-8.18623
 20
-6.09208
 30
0.0
 10
-8.2555
 20
-6.05439
 30
0.0
 10
-8.32935
 20
-6.02962
 30
0.0
 10
-8.39445
 20
-6.03422
 30
0.0
 10
-8.39445
 20
-6.03422
 30
0.0
 10
-8.39924
 20
-6.03456
 30
0.0
 10
-8.40391
 20
-6.03497
 30
0.0
 10
-8.40848
 20
-6.03544
 30
0.0
 10
-8.40848
 20
-6.03544
 30
0.0
 10
-8.41443
 20
-6.00205
 30
0.0
 10
-8.42191
 20
-5.96864
 30
0.0
 10
-8.42914
 20
-5.93976
 30
0.0
 10
-8.42914
 20
-5.93976
 30
0.0
 10
-8.43582
 20
-5.91301
 30
0.0
 10
-8.46294
 20
-5.89675
 30
0.0
 10
-8.48969
 20
-5.90343
 30
0.0
 10
-8.48969
 20
-5.90343
 30
0.0
 10
-8.49673
 20
-5.90519
 30
0.0
 10
-8.50303
 20
-5.90836
 30
0.0
 10
-8.50839
 20
-5.91257
 30
0.0
 10
-8.50839
 20
-5.91257
 30
0.0
 10
-8.57897
 20
-5.96122
 30
0.0
 10
-8.65349
 20
-6.00387
 30
0.0
 10
-8.73137
 20
-6.04085
 30
0.0
 10
-8.73137
 20
-6.04085
 30
0.0
 10
-8.81321
 20
-6.07971
 30
0.0
 10
-8.8983
 20
-6.11222
 30
0.0
 10
-8.98604
 20
-6.13881
 30
0.0
 10
-8.98604
 20
-6.13881
 30
0.0
 10
-9.30387
 20
-6.23518
 30
0.0
 10
-9.62253
 20
-6.28346
 30
0.0
 10
-9.94107
 20
-6.28362
 30
0.0
 10
-9.94107
 20
-6.28362
 30
0.0
 10
-10.25925
 20
-6.28378
 30
0.0
 10
-10.57799
 20
-6.23578
 30
0.0
 10
-10.89637
 20
-6.13963
 30
0.0
 10
-10.89637
 20
-6.13963
 30
0.0
 10
-10.99944
 20
-6.10851
 30
0.0
 10
-11.09806
 20
-6.06952
 30
0.0
 10
-11.19138
 20
-6.0221
 30
0.0
 10
-11.19138
 20
-6.0221
 30
0.0
 10
-11.28167
 20
-5.97622
 30
0.0
 10
-11.36768
 20
-5.92207
 30
0.0
 10
-11.44874
 20
-5.8591
 30
0.0
 10
-11.44874
 20
-5.8591
 30
0.0
 10
-11.47052
 20
-5.84217
 30
0.0
 10
-11.50192
 20
-5.84611
 30
0.0
 10
-11.51885
 20
-5.86789
 30
0.0
 10
-11.51885
 20
-5.86789
 30
0.0
 10
-11.52096
 20
-5.8706
 30
0.0
 10
-11.52275
 20
-5.87345
 30
0.0
 10
-11.52421
 20
-5.87641
 30
0.0
 10
-11.52421
 20
-5.87641
 30
0.0
 10
-11.52832
 20
-5.88363
 30
0.0
 10
-11.53213
 20
-5.89084
 30
0.0
 10
-11.53564
 20
-5.89798
 30
0.0
 10
-11.53564
 20
-5.89798
 30
0.0
 10
-11.56363
 20
-5.95483
 30
0.0
 10
-11.57438
 20
-6.00997
 30
0.0
 10
-11.57158
 20
-6.06261
 30
0.0
 10
-11.57158
 20
-6.06261
 30
0.0
 10
-11.63942
 20
-6.05316
 30
0.0
 10
-11.72719
 20
-6.0701
 30
0.0
 10
-11.7937
 20
-6.08713
 30
0.0
 10
-11.7937
 20
-6.08713
 30
0.0
 10
-12.00377
 20
-6.14095
 30
0.0
 10
-12.1235
 20
-6.29619
 30
0.0
 10
-12.19199
 20
-6.48224
 30
0.0
 10
-12.19199
 20
-6.48224
 30
0.0
 10
-12.25753
 20
-6.66027
 30
0.0
 10
-12.27514
 20
-6.86633
 30
0.0
 10
-12.28112
 20
-7.03439
 30
0.0
 10
-12.28112
 20
-7.03439
 30
0.0
 10
-12.28796
 20
-7.22672
 30
0.0
 10
-12.27706
 20
-7.41712
 30
0.0
 10
-12.26619
 20
-7.60721
 30
0.0
 10
-12.26619
 20
-7.60721
 30
0.0
 10
-12.26619
 20
-7.60721
 30
0.0
 10
-12.26481
 20
-7.63131
 30
0.0
 10
-12.26481
 20
-7.63131
 30
0.0
 10
-12.26481
 20
-7.63131
 30
0.0
 10
-12.26261
 20
-7.66972
 30
0.0
 10
-12.25976
 20
-7.70538
 30
0.0
 10
-12.25679
 20
-7.74281
 30
0.0
 10
-12.25679
 20
-7.74281
 30
0.0
 10
-12.2435
 20
-7.90988
 30
0.0
 10
-12.22748
 20
-8.11144
 30
0.0
 10
-12.2773
 20
-8.23965
 30
0.0
 10
-12.2773
 20
-8.23965
 30
0.0
 10
-12.2773
 20
-8.23965
 30
0.0
 10
-12.18434
 20
-8.27559
 30
0.0
 10
-12.18434
 20
-8.27559
 30
0.0
 10
-12.18434
 20
-8.27559
 30
0.0
 10
-12.15849
 20
-8.20906
 30
0.0
 10
-12.11692
 20
-8.14842
 30
0.0
 10
-12.0754
 20
-8.08783
 30
0.0
 10
-12.0754
 20
-8.08783
 30
0.0
 10
-12.06306
 20
-8.06983
 30
0.0
 10
-12.05072
 20
-8.05182
 30
0.0
 10
-12.03867
 20
-8.03352
 30
0.0
 10
-12.03867
 20
-8.03352
 30
0.0
 10
-12.03208
 20
-8.05263
 30
0.0
 10
-12.02557
 20
-8.07183
 30
0.0
 10
-12.01909
 20
-8.09092
 30
0.0
 10
-12.01909
 20
-8.09092
 30
0.0
 10
-12.00019
 20
-8.14665
 30
0.0
 10
-11.98158
 20
-8.20151
 30
0.0
 10
-11.9625
 20
-8.25039
 30
0.0
 10
-11.9625
 20
-8.25039
 30
0.0
 10
-11.95248
 20
-8.27606
 30
0.0
 10
-11.92353
 20
-8.28873
 30
0.0
 10
-11.89786
 20
-8.27871
 30
0.0
 10
-11.89786
 20
-8.27871
 30
0.0
 10
-11.88338
 20
-8.27306
 30
0.0
 10
-11.87304
 20
-8.26138
 30
0.0
 10
-11.86857
 20
-8.24766
 30
0.0
 10
-11.86857
 20
-8.24766
 30
0.0
 10
-11.86857
 20
-8.24766
 30
0.0
 10
-11.85465
 20
-8.20922
 30
0.0
 10
-11.85465
 20
-8.20922
 30
0.0
 10
-11.85465
 20
-8.20922
 30
0.0
 10
-11.83368
 20
-8.20732
 30
0.0
 10
-11.8154
 20
-8.19215
 30
0.0
 10
-11.81053
 20
-8.17051
 30
0.0
 10
-11.81053
 20
-8.17051
 30
0.0
 10
-11.8057
 20
-8.14926
 30
0.0
 10
-11.80545
 20
-8.13132
 30
0.0
 10
-11.8098
 20
-8.11532
 30
0.0
 10
-11.8098
 20
-8.11532
 30
0.0
 10
-11.81255
 20
-8.10518
 30
0.0
 10
-11.81677
 20
-8.09638
 30
0.0
 10
-11.82245
 20
-8.08865
 30
0.0
 10
-11.82245
 20
-8.08865
 30
0.0
 10
-11.8358
 20
-7.9936
 30
0.0
 10
-11.82699
 20
-7.88766
 30
0.0
 10
-11.81805
 20
-7.78352
 30
0.0
 10
-11.81805
 20
-7.78352
 30
0.0
 10
-11.7966
 20
-7.82917
 30
0.0
 10
-11.7746
 20
-7.87481
 30
0.0
 10
-11.74586
 20
-7.91602
 30
0.0
 10
-11.74586
 20
-7.91602
 30
0.0
 10
-11.73011
 20
-7.93856
 30
0.0
 10
-11.69906
 20
-7.94407
 30
0.0
 10
-11.67652
 20
-7.92832
 30
0.0
 10
-11.67652
 20
-7.92832
 30
0.0
 10
-11.65963
 20
-7.91652
 30
0.0
 10
-11.65232
 20
-7.89613
 30
0.0
 10
-11.65632
 20
-7.87717
 30
0.0
 10
-11.65632
 20
-7.87717
 30
0.0
 10
-11.65632
 20
-7.87717
 30
0.0
 10
-11.65621
 20
-7.87715
 30
0.0
 10
-11.65621
 20
-7.87715
 30
0.0
 10
-11.65621
 20
-7.87715
 30
0.0
 10
-11.68706
 20
-7.73232
 30
0.0
 10
-11.70141
 20
-7.57918
 30
0.0
 10
-11.70383
 20
-7.42528
 30
0.0
 10
-11.70383
 20
-7.42528
 30
0.0
 10
-11.70664
 20
-7.24607
 30
0.0
 10
-11.69343
 20
-7.06541
 30
0.0
 10
-11.67135
 20
-6.89519
 30
0.0
 10
-11.67135
 20
-6.89519
 30
0.0
 10
-11.66667
 20
-6.85911
 30
0.0
 10
-11.66406
 20
-6.83668
 30
0.0
 10
-11.6614
 20
-6.81378
 30
0.0
 10
-11.6614
 20
-6.81378
 30
0.0
 10
-11.64871
 20
-6.70457
 30
0.0
 10
-11.63528
 20
-6.58899
 30
0.0
 10
-11.60077
 20
-6.4918
 30
0.0
 10
-11.60077
 20
-6.4918
 30
0.0
 10
-11.58865
 20
-6.45769
 30
0.0
 10
-11.56157
 20
-6.42232
 30
0.0
 10
-11.5349
 20
-6.38751
 30
0.0
 10
-11.5349
 20
-6.38751
 30
0.0
 10
-11.51084
 20
-6.35611
 30
0.0
 10
-11.48705
 20
-6.32505
 30
0.0
 10
-11.47018
 20
-6.29114
 30
0.0
 10
-11.47018
 20
-6.29114
 30
0.0
 10
-11.41916
 20
-6.34994
 30
0.0
 10
-11.35324
 20
-6.40066
 30
0.0
 10
-11.28327
 20
-6.44114
 30
0.0
 10
-11.28327
 20
-6.44114
 30
0.0
 10
-11.26525
 20
-6.45156
 30
0.0
 10
-11.24695
 20
-6.46132
 30
0.0
 10
-11.22861
 20
-6.47035
 30
0.0
 10
-11.22861
 20
-6.47035
 30
0.0
 10
-11.14505
 20
-6.51148
 30
0.0
 10
-11.05796
 20
-6.54506
 30
0.0
 10
-10.98411
 20
-6.57354
 30
0.0
 10
-10.98411
 20
-6.57354
 30
0.0
 10
-10.96113
 20
-6.58239
 30
0.0
 10
-10.93945
 20
-6.59076
 30
0.0
 10
-10.92388
 20
-6.59695
 30
0.0
 10
-10.92388
 20
-6.59695
 30
0.0
 10
-10.83984
 20
-6.63036
 30
0.0
 10
-10.75879
 20
-6.65442
 30
0.0
 10
-10.67728
 20
-6.67272
 30
0.0
 10
-10.67728
 20
-6.67272
 30
0.0
 10
-10.59534
 20
-6.69112
 30
0.0
 10
-10.51393
 20
-6.70367
 30
0.0
 10
-10.42908
 20
-6.71398
 30
0.0
 10
-10.42908
 20
-6.71398
 30
0.0
 10
-10.40169
 20
-6.71721
 30
0.0
 10
-10.37684
 20
-6.69762
 30
0.0
 10
-10.37361
 20
-6.67023
 30
0.0
 10
-10.37361
 20
-6.67023
 30
0.0
 10
-10.37206
 20
-6.65708
 30
0.0
 10
-10.37577
 20
-6.64453
 30
0.0
 10
-10.38307
 20
-6.63466
 30
0.0
 10
-10.38307
 20
-6.63466
 30
0.0
 10
-10.38666
 20
-6.62895
 30
0.0
 10
-10.3904
 20
-6.62346
 30
0.0
 10
-10.39426
 20
-6.61816
 30
0.0
 10
-10.39426
 20
-6.61816
 30
0.0
 10
-10.36182
 20
-6.63188
 30
0.0
 10
-10.33568
 20
-6.64261
 30
0.0
 10
-10.32743
 20
-6.64547
 30
0.0
 10
-10.32743
 20
-6.64547
 30
0.0
 10
-10.26199
 20
-6.66813
 30
0.0
 10
-10.19537
 20
-6.69658
 30
0.0
 10
-10.12884
 20
-6.72499
 30
0.0
 10
-10.12884
 20
-6.72499
 30
0.0
 10
-10.11765
 20
-6.72977
 30
0.0
 10
-10.10411
 20
-6.73554
 30
0.0
 10
-10.07449
 20
-6.74801
 30
0.0
 10
-10.07449
 20
-6.74801
 30
0.0
 10
-9.99069
 20
-6.78326
 30
0.0
 10
-9.88993
 20
-6.81323
 30
0.0
 10
-9.78802
 20
-6.82749
 30
0.0
 10
-9.78802
 20
-6.82749
 30
0.0
 10
-9.76715
 20
-6.83041
 30
0.0
 10
-9.74618
 20
-6.83269
 30
0.0
 10
-9.72527
 20
-6.83423
 30
0.0
 10
-9.72527
 20
-6.83423
 30
0.0
 10
-9.86097
 20
-6.91805
 30
0.0
 10
-9.96558
 20
-7.0466
 30
0.0
 10
-10.01805
 20
-7.19904
 30
0.0
 10
-10.01805
 20
-7.19904
 30
0.0
 10
-10.11201
 20
-6.92599
 30
0.0
 10
-10.37324
 20
-6.72957
 30
0.0
 10
-10.6808
 20
-6.72957
 30
0.0
 10
-10.6808
 20
-6.72957
 30
0.0
 10
-11.06739
 20
-6.72957
 30
0.0
 10
-11.3808
 20
-7.03988
 30
0.0
 10
-11.3808
 20
-7.42267
 30
0.0
 10
-11.3808
 20
-7.42267
 30
0.0
 10
-11.3808
 20
-7.80546
 30
0.0
 10
-11.06739
 20
-8.11577
 30
0.0
 10
-10.6808
 20
-8.11577
 30
0.0
 10
-10.6808
 20
-8.11577
 30
0.0
 10
-10.59179
 20
-8.11577
 30
0.0
 10
-10.50667
 20
-8.09929
 30
0.0
 10
-10.42835
 20
-8.06928
 30
0.0
 10
-10.42835
 20
-8.06928
 30
0.0
 10
-10.43635
 20
-8.07493
 30
0.0
 10
-10.44442
 20
-8.08022
 30
0.0
 10
-10.4526
 20
-8.08497
 30
0.0
 10
-10.4526
 20
-8.08497
 30
0.0
 10
-10.4526
 20
-8.08497
 30
0.0
 10
-10.46471
 20
-8.09201
 30
0.0
 10
-10.46471
 20
-8.09201
 30
0.0
 10
-10.46471
 20
-8.09201
 30
0.0
 10
-10.52298
 20
-8.12591
 30
0.0
 10
-10.58332
 20
-8.16104
 30
0.0
 10
-10.64328
 20
-8.17569
 30
0.0
 10
-10.64328
 20
-8.17569
 30
0.0
 10
-10.69556
 20
-8.18847
 30
0.0
 10
-10.74544
 20
-8.18345
 30
0.0
 10
-10.79371
 20
-8.16687
 30
0.0
 10
-10.79371
 20
-8.16687
 30
0.0
 10
-10.8452
 20
-8.1492
 30
0.0
 10
-10.89534
 20
-8.11855
 30
0.0
 10
-10.94482
 20
-8.08196
 30
0.0
 10
-10.94482
 20
-8.08196
 30
0.0
 10
-10.94482
 20
-8.08196
 30
0.0
 10
-10.94485
 20
-8.082
 30
0.0
 10
-10.94485
 20
-8.082
 30
0.0
 10
-10.94485
 20
-8.082
 30
0.0
 10
-10.95577
 20
-8.07392
 30
0.0
 10
-10.96992
 20
-8.0703
 30
0.0
 10
-10.98428
 20
-8.07317
 30
0.0
 10
-10.98428
 20
-8.07317
 30
0.0
 10
-11.01124
 20
-8.07856
 30
0.0
 10
-11.02873
 20
-8.10481
 30
0.0
 10
-11.02334
 20
-8.13177
 30
0.0
 10
-11.02334
 20
-8.13177
 30
0.0
 10
-11.00537
 20
-8.22026
 30
0.0
 10
-10.97256
 20
-8.29387
 30
0.0
 10
-10.92248
 20
-8.35326
 30
0.0
 10
-10.92248
 20
-8.35326
 30
0.0
 10
-10.87219
 20
-8.4129
 30
0.0
 10
-10.80519
 20
-8.45735
 30
0.0
 10
-10.71907
 20
-8.48717
 30
0.0
 10
-10.71907
 20
-8.48717
 30
0.0
 10
-10.58378
 20
-8.53401
 30
0.0
 10
-10.45372
 20
-8.54462
 30
0.0
 10
-10.32967
 20
-8.52124
 30
0.0
 10
-10.32967
 20
-8.52124
 30
0.0
 10
-10.21498
 20
-8.49962
 30
0.0
 10
-10.10607
 20
-8.44908
 30
0.0
 10
-10.00347
 20
-8.37141
 30
0.0
 10
-10.00347
 20
-8.37141
 30
0.0
 10
-9.91083
 20
-8.4395
 30
0.0
 10
-9.81812
 20
-8.48589
 30
0.0
 10
-9.72228
 20
-8.51112
 30
0.0
 10
-9.72228
 20
-8.51112
 30
0.0
 10
-9.61485
 20
-8.5394
 30
0.0
 10
-9.50453
 20
-8.54085
 30
0.0
 10
-9.38704
 20
-8.51625
 30
0.0
 10
-9.38704
 20
-8.51625
 30
0.0
 10
-9.30683
 20
-8.49945
 30
0.0
 10
-9.23437
 20
-8.46982
 30
0.0
 10
-9.1718
 20
-8.42544
 30
0.0
 10
-9.1718
 20
-8.42544
 30
0.0
 10
-9.11188
 20
-8.38294
 30
0.0
 10
-9.06149
 20
-8.32724
 30
0.0
 10
-9.02257
 20
-8.25672
 30
0.0
 10
-9.02257
 20
-8.25672
 30
0.0
 10
-9.00984
 20
-8.23363
 30
0.0
 10
-9.00499
 20
-8.21086
 30
0.0
 10
-8.99912
 20
-8.18325
 30
0.0
 10
-8.99912
 20
-8.18325
 30
0.0
 10
-8.99667
 20
-8.17174
 30
0.0
 10
-8.994
 20
-8.15919
 30
0.0
 10
-8.99071
 20
-8.14664
 30
0.0
 10
-8.99071
 20
-8.14664
 30
0.0
 10
-8.98707
 20
-8.13433
 30
0.0
 10
-8.98816
 20
-8.12062
 30
0.0
 10
-8.99482
 20
-8.10848
 30
0.0
 10
-8.99482
 20
-8.10848
 30
0.0
 10
-9.00808
 20
-8.08432
 30
0.0
 10
-9.03843
 20
-8.07549
 30
0.0
 10
-9.06259
 20
-8.08875
 30
0.0
 10
-9.06259
 20
-8.08875
 30
0.0
 10
-9.18439
 20
-8.15548
 30
0.0
 10
-9.26986
 20
-8.18647
 30
0.0
 10
-9.34738
 20
-8.18049
 30
0.0
 10
-9.34738
 20
-8.18049
 30
0.0
 10
-9.41155
 20
-8.17554
 30
0.0
 10
-9.4751
 20
-8.14471
 30
0.0
 10
-9.55422
 20
-8.08734
 30
0.0
 10
-9.55422
 20
-8.08734
 30
0.0
 10
-9.49117
 20
-8.10582
 30
0.0
 10
-9.42442
 20
-8.11577
 30
0.0
 10
-9.35531
 20
-8.11577
 30
0.0
 10
-9.35531
 20
-8.11577
 30
0.0
 10
-8.96871
 20
-8.11577
 30
0.0
 10
-8.65531
 20
-7.80546
 30
0.0
 10
-8.65531
 20
-7.42267
 30
0.0
 10
-8.65531
 20
-7.42267
 30
0.0
 10
-8.65531
 20
-7.03988
 30
0.0
 10
-8.96871
 20
-6.72957
 30
0.0
 10
-9.35531
 20
-6.72957
 30
0.0
  0
SPLINE
  5
42
330
1F
100
AcDbEntity
  8
Layer 1
 62
     5
100
AcDbSpline
210
0.0
220
0.0
230
1.0
 70
    11
 71
     3
 72
    28
 73
    24
 74
     0
 42
0.0000000001
 43
0.0000000001
 12
1.0
 22
0.0
 32
0.0
 13
1.0
 23
0.0
 33
0.0
 40
0.0
 40
0.0
 40
0.0
 40
0.0
 40
0.1428571428571428
 40
0.1428571428571428
 40
0.1428571428571428
 40
0.1428571428571428
 40
0.2857142857142857
 40
0.2857142857142857
 40
0.2857142857142857
 40
0.2857142857142857
 40
0.4285714285714285
 40
0.4285714285714285
 40
0.4285714285714285
 40
0.4285714285714285
 40
0.5714285714285714
 40
0.5714285714285714
 40
0.5714285714285714
 40
0.5714285714285714
 40
0.7142857142857143
 40
0.7142857142857143
 40
0.7142857142857143
 40
0.7142857142857143
 40
1.0
 40
1.0
 40
1.0
 40
1.0
 10
-10.01805
 20
-7.64629
 30
0.0
 10
-9.98208
 20
-7.75079
 30
0.0
 10
-9.92161
 20
-7.84406
 30
0.0
 10
-9.84342
 20
-7.9194
 30
0.0
 10
-9.84342
 20
-7.9194
 30
0.0
 10
-9.84987
 20
-7.91847
 30
0.0
 10
-9.85633
 20
-7.9178
 30
0.0
 10
-9.86282
 20
-7.91741
 30
0.0
 10
-9.86282
 20
-7.91741
 30
0.0
 10
-9.91218
 20
-7.91447
 30
0.0
 10
-9.96064
 20
-7.92738
 30
0.0
 10
-10.00746
 20
-7.96272
 30
0.0
 10
-10.00746
 20
-7.96272
 30
0.0
 10
-10.0617
 20
-7.93319
 30
0.0
 10
-10.10338
 20
-7.91815
 30
0.0
 10
-10.14701
 20
-7.91788
 30
0.0
 10
-10.14701
 20
-7.91788
 30
0.0
 10
-10.16429
 20
-7.91777
 30
0.0
 10
-10.18097
 20
-7.91994
 30
0.0
 10
-10.19788
 20
-7.9244
 30
0.0
 10
-10.19788
 20
-7.9244
 30
0.0
 10
-10.11717
 20
-7.8482
 30
0.0
 10
-10.05481
 20
-7.75312
 30
0.0
 10
-10.01805
 20
-7.64629
 30
0.0
  0
SPLINE
  5
43
330
1F
100
AcDbEntity
  8
Layer 1
 62
     5
100
AcDbSpline
210
0.0
220
0.0
230
1.0
 70
    11
 71
     3
 72
    20
 73
    16
 74
     0
 42
0.0000000001
 43
0.0000000001
 12
1.0
 22
0.0
 32
0.0
 13
1.0
 23
0.0
 33
0.0
 40
0.0
 40
0.0
 40
0.0
 40
0.0
 40
0.2
 40
0.2
 40
0.2
 40
0.2
 40
0.4
 40
0.4
 40
0.4
 40
0.4
 40
0.6
 40
0.6
 40
0.6
 40
0.6
 40
1.0
 40
1.0
 40
1.0
 40
1.0
 10
-10.64979
 20
-7.33596
 30
0.0
 10
-10.57598
 20
-7.33596
 30
0.0
 10
-10.51616
 20
-7.39392
 30
0.0
 10
-10.51616
 20
-7.4654
 30
0.0
 10
-10.51616
 20
-7.4654
 30
0.0
 10
-10.51616
 20
-7.53689
 30
0.0
 10
-10.57598
 20
-7.59484
 30
0.0
 10
-10.64979
 20
-7.59484
 30
0.0
 10
-10.64979
 20
-7.59484
 30
0.0
 10
-10.72359
 20
-7.59484
 30
0.0
 10
-10.78342
 20
-7.53689
 30
0.0
 10
-10.78342
 20
-7.4654
 30
0.0
 10
-10.78342
 20
-7.4654
 30
0.0
 10
-10.78342
 20
-7.39392
 30
0.0
 10
-10.72359
 20
-7.33596
 30
0.0
 10
-10.64979
 20
-7.33596
 30
0.0
  0
SPLINE
  5
44
330
1F
100
AcDbEntity
  8
Layer 1
 62
     5
100
AcDbSpline
210
0.0
220
0.0
230
1.0
 70
    11
 71
     3
 72
    64
 73
    60
 74
     0
 42
0.0000000001
 43
0.0000000001
 12
1.0
 22
0.0
 32
0.0
 13
1.0
 23
0.0
 33
0.0
 40
0.0
 40
0.0
 40
0.0
 40
0.0
 40
0.0625
 40
0.0625
 40
0.0625
 40
0.0625
 40
0.125
 40
0.125
 40
0.125
 40
0.125
 40
0.1875
 40
0.1875
 40
0.1875
 40
0.1875
 40
0.25
 40
0.25
 40
0.25
 40
0.25
 40
0.3125
 40
0.3125
 40
0.3125
 40
0.3125
 40
0.375
 40
0.375
 40
0.375
 40
0.375
 40
0.4375
 40
0.4375
 40
0.4375
 40
0.4375
 40
0.5
 40
0.5
 40
0.5
 40
0.5
 40
0.5625
 40
0.5625
 40
0.5625
 40
0.5625
 40
0.625
 40
0.625
 40
0.625
 40
0.625
 40
0.6875
 40
0.6875
 40
0.6875
 40
0.6875
 40
0.75
 40
0.75
 40
0.75
 40
0.75
 40
0.8125
 40
0.8125
 40
0.8125
 40
0.8125
 40
0.875
 40
0.875
 40
0.875
 40
0.875
 40
1.0
 40
1.0
 40
1.0
 40
1.0
 10
-10.98226
 20
-5.49571
 30
0.0
 10
-10.98226
 20
-5.49571
 30
0.0
 10
-11.02415
 20
-5.04858
 30
0.0
 10
-11.02415
 20
-5.04858
 30
0.0
 10
-11.02415
 20
-5.04858
 30
0.0
 10
-11.02662
 20
-5.02119
 30
0.0
 10
-11.00642
 20
-4.99695
 30
0.0
 10
-10.97903
 20
-4.99448
 30
0.0
 10
-10.97903
 20
-4.99448
 30
0.0
 10
-10.97592
 20
-4.9942
 30
0.0
 10
-10.97285
 20
-4.99421
 30
0.0
 10
-10.96985
 20
-4.99449
 30
0.0
 10
-10.96985
 20
-4.99449
 30
0.0
 10
-10.96985
 20
-4.99449
 30
0.0
 10
-10.96985
 20
-4.99448
 30
0.0
 10
-10.96985
 20
-4.99448
 30
0.0
 10
-10.96985
 20
-4.99448
 30
0.0
 10
-10.62339
 20
-5.02736
 30
0.0
 10
-10.27897
 20
-5.04313
 30
0.0
 10
-9.93653
 20
-5.0428
 30
0.0
 10
-9.93653
 20
-5.0428
 30
0.0
 10
-9.594
 20
-5.04248
 30
0.0
 10
-9.25302
 20
-5.02603
 30
0.0
 10
-8.91355
 20
-4.99448
 30
0.0
 10
-8.91355
 20
-4.99448
 30
0.0
 10
-8.88616
 20
-4.99201
 30
0.0
 10
-8.86192
 20
-5.01221
 30
0.0
 10
-8.85945
 20
-5.0396
 30
0.0
 10
-8.85945
 20
-5.0396
 30
0.0
 10
-8.85915
 20
-5.04291
 30
0.0
 10
-8.85918
 20
-5.04617
 30
0.0
 10
-8.85952
 20
-5.04935
 30
0.0
 10
-8.85952
 20
-5.04935
 30
0.0
 10
-8.85952
 20
-5.04935
 30
0.0
 10
-8.85945
 20
-5.04936
 30
0.0
 10
-8.85945
 20
-5.04936
 30
0.0
 10
-8.85945
 20
-5.04936
 30
0.0
 10
-8.85945
 20
-5.04936
 30
0.0
 10
-8.90891
 20
-5.50044
 30
0.0
 10
-8.90891
 20
-5.50044
 30
0.0
 10
-8.90891
 20
-5.50044
 30
0.0
 10
-8.91148
 20
-5.52459
 30
0.0
 10
-8.9309
 20
-5.54289
 30
0.0
 10
-8.95423
 20
-5.54488
 30
0.0
 10
-8.95423
 20
-5.54488
 30
0.0
 10
-8.95423
 20
-5.54488
 30
0.0
 10
-8.95422
 20
-5.54497
 30
0.0
 10
-8.95422
 20
-5.54497
 30
0.0
 10
-8.95422
 20
-5.54497
 30
0.0
 10
-9.29107
 20
-5.57403
 30
0.0
 10
-9.62531
 20
-5.58804
 30
0.0
 10
-9.95701
 20
-5.58779
 30
0.0
 10
-9.95701
 20
-5.58779
 30
0.0
 10
-10.2888
 20
-5.58753
 30
0.0
 10
-10.61526
 20
-5.573
 30
0.0
 10
-10.93658
 20
-5.54497
 30
0.0
 10
-10.93658
 20
-5.54497
 30
0.0
 10
-10.96245
 20
-5.54274
 30
0.0
 10
-10.982
 20
-5.52116
 30
0.0
 10
-10.98226
 20
-5.49571
 30
0.0
  0
SPLINE
  5
45
330
1F
100
AcDbEntity
  8
Layer 1
 62
     5
100
AcDbSpline
210
0.0
220
0.0
230
1.0
 70
    11
 71
     3
 72
    68
 73
    64
 74
     0
 42
0.0000000001
 43
0.0000000001
 12
1.0
 22
0.0
 32
0.0
 13
1.0
 23
0.0
 33
0.0
 40
0.0
 40
0.0
 40
0.0
 40
0.0
 40
0.0588235294117647
 40
0.0588235294117647
 40
0.0588235294117647
 40
0.0588235294117647
 40
0.1176470588235294
 40
0.1176470588235294
 40
0.1176470588235294
 40
0.1176470588235294
 40
0.1764705882352941
 40
0.1764705882352941
 40
0.1764705882352941
 40
0.1764705882352941
 40
0.2352941176470588
 40
0.2352941176470588
 40
0.2352941176470588
 40
0.2352941176470588
 40
0.2941176470588235
 40
0.2941176470588235
 40
0.2941176470588235
 40
0.2941176470588235
 40
0.3529411764705883
 40
0.3529411764705883
 40
0.3529411764705883
 40
0.3529411764705883
 40
0.4117647058823529
 40
0.4117647058823529
 40
0.4117647058823529
 40
0.4117647058823529
 40
0.4705882352941176
 40
0.4705882352941176
 40
0.4705882352941176
 40
0.4705882352941176
 40
0.5294117647058824
 40
0.5294117647058824
 40
0.5294117647058824
 40
0.5294117647058824
 40
0.5882352941176471
 40
0.5882352941176471
 40
0.5882352941176471
 40
0.5882352941176471
 40
0.6470588235294118
 40
0.6470588235294118
 40
0.6470588235294118
 40
0.6470588235294118
 40
0.7058823529411765
 40
0.7058823529411765
 40
0.7058823529411765
 40
0.7058823529411765
 40
0.7647058823529411
 40
0.7647058823529411
 40
0.7647058823529411
 40
0.7647058823529411
 40
0.8235294117647058
 40
0.8235294117647058
 40
0.8235294117647058
 40
0.8235294117647058
 40
0.8823529411764706
 40
0.8823529411764706
 40
0.8823529411764706
 40
0.8823529411764706
 40
1.0
 40
1.0
 40
1.0
 40
1.0
 10
-9.74603
 20
-8.58617
 30
0.0
 10
-9.74603
 20
-8.55856
 30
0.0
 10
-9.72364
 20
-8.53617
 30
0.0
 10
-9.69603
 20
-8.53617
 30
0.0
 10
-9.69603
 20
-8.53617
 30
0.0
 10
-9.66842
 20
-8.53617
 30
0.0
 10
-9.64603
 20
-8.55856
 30
0.0
 10
-9.64603
 20
-8.58617
 30
0.0
 10
-9.64603
 20
-8.58617
 30
0.0
 10
-9.64603
 20
-8.69203
 30
0.0
 10
-9.68896
 20
-8.78789
 30
0.0
 10
-9.75833
 20
-8.85726
 30
0.0
 10
-9.75833
 20
-8.85726
 30
0.0
 10
-9.8273
 20
-8.92623
 30
0.0
 10
-9.92244
 20
-8.96902
 30
0.0
 10
-10.02755
 20
-8.96953
 30
0.0
 10
-10.02755
 20
-8.96953
 30
0.0
 10
-10.02755
 20
-8.96953
 30
0.0
 10
-10.02884
 20
-8.96955
 30
0.0
 10
-10.02884
 20
-8.96955
 30
0.0
 10
-10.02884
 20
-8.96955
 30
0.0
 10
-10.02884
 20
-8.96955
 30
0.0
 10
-10.02942
 20
-8.96955
 30
0.0
 10
-10.02942
 20
-8.96955
 30
0.0
 10
-10.02942
 20
-8.96955
 30
0.0
 10
-10.02942
 20
-8.96955
 30
0.0
 10
-10.03071
 20
-8.96953
 30
0.0
 10
-10.03071
 20
-8.96953
 30
0.0
 10
-10.03071
 20
-8.96953
 30
0.0
 10
-10.13583
 20
-8.96902
 30
0.0
 10
-10.23095
 20
-8.92623
 30
0.0
 10
-10.29992
 20
-8.85726
 30
0.0
 10
-10.29992
 20
-8.85726
 30
0.0
 10
-10.3693
 20
-8.78788
 30
0.0
 10
-10.41221
 20
-8.69202
 30
0.0
 10
-10.41221
 20
-8.58617
 30
0.0
 10
-10.41221
 20
-8.58617
 30
0.0
 10
-10.41221
 20
-8.55856
 30
0.0
 10
-10.38982
 20
-8.53617
 30
0.0
 10
-10.36221
 20
-8.53617
 30
0.0
 10
-10.36221
 20
-8.53617
 30
0.0
 10
-10.3346
 20
-8.53617
 30
0.0
 10
-10.31221
 20
-8.55856
 30
0.0
 10
-10.31221
 20
-8.58617
 30
0.0
 10
-10.31221
 20
-8.58617
 30
0.0
 10
-10.31221
 20
-8.66442
 30
0.0
 10
-10.28049
 20
-8.73529
 30
0.0
 10
-10.22922
 20
-8.78656
 30
0.0
 10
-10.22922
 20
-8.78656
 30
0.0
 10
-10.17808
 20
-8.8377
 30
0.0
 10
-10.10744
 20
-8.86939
 30
0.0
 10
-10.02942
 20
-8.86955
 30
0.0
 10
-10.02942
 20
-8.86955
 30
0.0
 10
-10.02942
 20
-8.86955
 30
0.0
 10
-10.02884
 20
-8.86955
 30
0.0
 10
-10.02884
 20
-8.86955
 30
0.0
 10
-10.02884
 20
-8.86955
 30
0.0
 10
-9.95082
 20
-8.86939
 30
0.0
 10
-9.88017
 20
-8.8377
 30
0.0
 10
-9.82903
 20
-8.78656
 30
0.0
 10
-9.82903
 20
-8.78656
 30
0.0
 10
-9.77776
 20
-8.73529
 30
0.0
 10
-9.74603
 20
-8.66442
 30
0.0
 10
-9.74603
 20
-8.58617
 30
0.0
  0
SPLINE
  5
46
330
1F
100
AcDbEntity
  8
Layer 1
 62
     5
100
AcDbSpline
210
0.0
220
0.0
230
1.0
 70
    11
 71
     3
 72
    20
 73
    16
 74
     0
 42
0.0000000001
 43
0.0000000001
 12
1.0
 22
0.0
 32
0.0
 13
1.0
 23
0.0
 33
0.0
 40
0.0
 40
0.0
 40
0.0
 40
0.0
 40
0.2
 40
0.2
 40
0.2
 40
0.2
 40
0.4
 40
0.4
 40
0.4
 40
0.4
 40
0.6
 40
0.6
 40
0.6
 40
0.6
 40
1.0
 40
1.0
 40
1.0
 40
1.0
 10
-9.35748
 20
-7.33243
 30
0.0
 10
-9.28368
 20
-7.33243
 30
0.0
 10
-9.22385
 20
-7.39038
 30
0.0
 10
-9.22385
 20
-7.46186
 30
0.0
 10
-9.22385
 20
-7.46186
 30
0.0
 10
-9.22385
 20
-7.53335
 30
0.0
 10
-9.28368
 20
-7.59131
 30
0.0
 10
-9.35748
 20
-7.59131
 30
0.0
 10
-9.35748
 20
-7.59131
 30
0.0
 10
-9.43128
 20
-7.59131
 30
0.0
 10
-9.4911
 20
-7.53335
 30
0.0
 10
-9.4911
 20
-7.46186
 30
0.0
 10
-9.4911
 20
-7.46186
 30
0.0
 10
-9.4911
 20
-7.39038
 30
0.0
 10
-9.43128
 20
-7.33243
 30
0.0
 10
-9.35748
 20
-7.33243
 30
0.0
  0
ENDSEC
  0
SECTION
  2
OBJECTS
  0
DICTIONARY
  5
C
330
0
100
AcDbDictionary
281
     1
  3
ACAD_GROUP
350
D
  3
ACAD_LAYOUT
350
1A
  3
ACAD_MATERIAL
350
3B
  3
ACAD_MLEADERSTYLE
350
68
  3
ACAD_MLINESTYLE
350
17
  3
ACAD_PLOTSETTINGS
350
19
  3
ACAD_PLOTSTYLENAME
350
E
  3
ACAD_TABLESTYLE
350
67
  3
ACAD_VISUALSTYLE
350
2A
  0
DICTIONARY
  5
D
102
{ACAD_REACTORS
330
C
102
}
330
C
100
AcDbDictionary
281
     1
  0
DICTIONARY
  5
1A
102
{ACAD_REACTORS
330
C
102
}
330
C
100
AcDbDictionary
281
     1
  3
Layout1
350
1E
  3
Layout2
350
26
  3
Model
350
22
  0
DICTIONARY
  5
3B
102
{ACAD_REACTORS
330
C
102
}
330
C
100
AcDbDictionary
281
     1
  3
ByBlock
350
3D
  3
ByLayer
350
3C
  3
Global
350
3E
  0
DICTIONARY
  5
68
102
{ACAD_REACTORS
330
C
102
}
330
C
100
AcDbDictionary
281
     1
  0
DICTIONARY
  5
17
102
{ACAD_REACTORS
330
C
102
}
330
C
100
AcDbDictionary
281
     1
  3
Standard
350
18
  0
DICTIONARY
  5
19
102
{ACAD_REACTORS
330
C
102
}
330
C
100
AcDbDictionary
281
     1
  0
ACDBDICTIONARYWDFLT
  5
E
102
{ACAD_REACTORS
330
C
102
}
330
C
100
AcDbDictionary
281
     1
  3
Normal
350
F
100
AcDbDictionaryWithDefault
340
F
  0
DICTIONARY
  5
67
102
{ACAD_REACTORS
330
C
102
}
330
C
100
AcDbDictionary
281
     1
  0
DICTIONARY
  5
2A
102
{ACAD_REACTORS
330
C
102
}
330
C
100
AcDbDictionary
281
     1
  3
2dWireframe
350
2F
  3
3D Hidden
350
31
  3
3dWireframe
350
30
  3
Basic
350
32
  3
Brighten
350
36
  3
ColorChange
350
3A
  3
Conceptual
350
34
  3
Dim
350
35
  3
Facepattern
350
39
  3
Flat
350
2B
  3
FlatWithEdges
350
2C
  3
Gouraud
350
2D
  3
GouraudWithEdges
350
2E
  3
Linepattern
350
38
  3
Realistic
350
33
  3
Thicken
350
37
  0
LAYOUT
  5
1E
102
{ACAD_REACTORS
330
1A
102
}
330
1A
100
AcDbPlotSettings
  1

  2
none_device
  4

  6

 40
0.0
 41
0.0
 42
0.0
 43
0.0
 44
0.0
 45
0.0
 46
0.0
 47
0.0
 48
0.0
 49
0.0
140
0.0
141
0.0
142
1.0
143
1.0
 70
   688
 72
     0
 73
     0
 74
     5
  7

 75
    16
 76
     0
 77
     2
 78
   300
147
1.0
148
0.0
149
0.0
100
AcDbLayout
  1
Layout1
 70
     1
 71
     1
 10
0.0
 20
0.0
 11
12.0
 21
9.0
 12
0.0
 22
0.0
 32
0.0
 14
1.000000000000000E+20
 24
1.000000000000000E+20
 34
1.000000000000000E+20
 15
-1.000000000000000E+20
 25
-1.000000000000000E+20
 35
-1.000000000000000E+20
146
0.0
 13
0.0
 23
0.0
 33
0.0
 16
1.0
 26
0.0
 36
0.0
 17
0.0
 27
1.0
 37
0.0
 76
     0
330
1B
  0
LAYOUT
  5
26
102
{ACAD_REACTORS
330
1A
102
}
330
1A
100
AcDbPlotSettings
  1

  2
none_device
  4

  6

 40
0.0
 41
0.0
 42
0.0
 43
0.0
 44
0.0
 45
0.0
 46
0.0
 47
0.0
 48
0.0
 49
0.0
140
0.0
141
0.0
142
1.0
143
1.0
 70
   688
 72
     0
 73
     0
 74
     5
  7

 75
    16
 76
     0
 77
     2
 78
   300
147
1.0
148
0.0
149
0.0
100
AcDbLayout
  1
Layout2
 70
     1
 71
     2
 10
0.0
 20
0.0
 11
0.0
 21
0.0
 12
0.0
 22
0.0
 32
0.0
 14
0.0
 24
0.0
 34
0.0
 15
0.0
 25
0.0
 35
0.0
146
0.0
 13
0.0
 23
0.0
 33
0.0
 16
1.0
 26
0.0
 36
0.0
 17
0.0
 27
1.0
 37
0.0
 76
     0
330
23
  0
LAYOUT
  5
22
102
{ACAD_REACTORS
330
1A
102
}
330
1A
100
AcDbPlotSettings
  1

  2
none_device
  4

  6

 40
0.0
 41
0.0
 42
0.0
 43
0.0
 44
0.0
 45
0.0
 46
0.0
 47
0.0
 48
0.0
 49
0.0
140
0.0
141
0.0
142
1.0
143
1.0
 70
  1712
 72
     0
 73
     0
 74
     0
  7

 75
     0
 76
     0
 77
     2
 78
   300
147
1.0
148
0.0
149
0.0
100
AcDbLayout
  1
Model
 70
     1
 71
     0
 10
0.0
 20
0.0
 11
12.0
 21
9.0
 12
0.0
 22
0.0
 32
0.0
 14
-12.28325
 24
-8.96955
 34
0.0
 15
-7.67051
 25
-4.99427
 35
0.0
146
0.0
 13
0.0
 23
0.0
 33
0.0
 16
1.0
 26
0.0
 36
0.0
 17
0.0
 27
1.0
 37
0.0
 76
     0
330
1F
331
29
  0
MATERIAL
  5
3D
102
{ACAD_REACTORS
330
3B
102
}
330
3B
100
AcDbMaterial
  1
ByBlock
 72
     1
 94
      127
  0
MATERIAL
  5
3C
102
{ACAD_REACTORS
330
3B
102
}
330
3B
100
AcDbMaterial
  1
ByLayer
 72
     1
 94
      127
  0
MATERIAL
  5
3E
102
{ACAD_REACTORS
330
3B
102
}
330
3B
100
AcDbMaterial
  1
Global
 72
     1
 94
      127
  0
MLINESTYLE
  5
18
102
{ACAD_REACTORS
330
17
102
}
330
17
100
AcDbMlineStyle
  2
Standard
 70
     0
  3

 62
   256
 51
90.0
 52
90.0
 71
     2
 49
0.5
 62
   256
  6
BYLAYER
 49
-0.5
 62
   256
  6
BYLAYER
  0
ACDBPLACEHOLDER
  5
F
102
{ACAD_REACTORS
330
E
102
}
330
E
  0
VISUALSTYLE
  5
2F
102
{ACAD_REACTORS
330
2A
102
}
102
{ACAD_XDICTIONARY
360
4F
102
}
330
2A
100
AcDbVisualStyle
  2
2dWireframe
 70
     4
 71
     0
 72
     2
 73
     0
 90
        0
 40
-0.6
 41
-30.0
 62
     5
 63
     7
421
 16777215
 74
     1
 91
        4
 64
     7
 65
   257
 75
     1
175
     1
 42
1.0
 92
        0
 66
   257
 43
1.0
 76
     1
 77
     6
 78
     2
 67
     7
 79
     5
170
     0
171
     0
290
     0
174
     0
 93
        1
 44
0.0
173
     0
291
     0
 45
0.0
  0
VISUALSTYLE
  5
31
102
{ACAD_REACTORS
330
2A
102
}
102
{ACAD_XDICTIONARY
360
53
102
}
330
2A
100
AcDbVisualStyle
  2
3D Hidden
 70
     6
 71
     1
 72
     2
 73
     2
 90
        0
 40
-0.6
 41
-30.0
 62
     5
 63
     7
421
 16777215
 74
     2
 91
        2
 64
     7
 65
   257
 75
     2
175
     1
 42
40.0
 92
        0
 66
   257
 43
1.0
 76
     1
 77
     6
 78
     2
 67
     7
 79
     3
170
     0
171
     0
290
     0
174
     0
 93
        1
 44
0.0
173
     0
291
     0
 45
0.0
  0
VISUALSTYLE
  5
30
102
{ACAD_REACTORS
330
2A
102
}
102
{ACAD_XDICTIONARY
360
51
102
}
330
2A
100
AcDbVisualStyle
  2
3dWireframe
 70
     5
 71
     0
 72
     2
 73
     0
 90
        0
 40
-0.6
 41
-30.0
 62
     5
 63
     7
421
 16777215
 74
     1
 91
        4
 64
     7
 65
   257
 75
     1
175
     1
 42
1.0
 92
        0
 66
   257
 43
1.0
 76
     1
 77
     6
 78
     2
 67
     7
 79
     5
170
     0
171
     0
290
     0
174
     0
 93
        1
 44
0.0
173
     0
291
     0
 45
0.0
  0
VISUALSTYLE
  5
32
102
{ACAD_REACTORS
330
2A
102
}
102
{ACAD_XDICTIONARY
360
55
102
}
330
2A
100
AcDbVisualStyle
  2
Basic
 70
     7
 71
     1
 72
     0
 73
     1
 90
        0
 40
-0.6
 41
-30.0
 62
     5
 63
     7
421
 16777215
 74
     0
 91
        4
 64
     7
 65
   257
 75
     1
175
     1
 42
1.0
 92
        8
 66
     7
 43
1.0
 76
     1
 77
     6
 78
     2
 67
     7
 79
     5
170
     0
171
     0
290
     0
174
     0
 93
        1
 44
0.0
173
     0
291
     1
 45
0.0
  0
VISUALSTYLE
  5
36
102
{ACAD_REACTORS
330
2A
102
}
102
{ACAD_XDICTIONARY
360
5D
102
}
330
2A
100
AcDbVisualStyle
  2
Brighten
 70
    12
 71
     2
 72
     2
 73
     0
 90
        0
 40
-0.6
 41
-30.0
 62
     5
 63
     7
421
 16777215
 74
     1
 91
        4
 64
     7
 65
   257
 75
     1
175
     1
 42
1.0
 92
        8
 66
     7
 43
1.0
 76
     1
 77
     6
 78
     2
 67
     7
 79
     5
170
     0
171
     0
290
     0
174
     0
 93
        1
 44
50.0
173
     0
291
     1
 45
0.0
  0
VISUALSTYLE
  5
3A
102
{ACAD_REACTORS
330
2A
102
}
102
{ACAD_XDICTIONARY
360
65
102
}
330
2A
100
AcDbVisualStyle
  2
ColorChange
 70
    16
 71
     2
 72
     2
 73
     3
 90
        0
 40
-0.6
 41
-30.0
 62
     5
 63
     8
421
  8421504
 74
     1
 91
        4
 64
     7
 65
   257
 75
     1
175
     1
 42
1.0
 92
        8
 66
     8
424
  8421504
 43
1.0
 76
     1
 77
     6
 78
     2
 67
     7
 79
     5
170
     0
171
     0
290
     0
174
     0
 93
        1
 44
0.0
173
     0
291
     1
 45
0.0
  0
VISUALSTYLE
  5
34
102
{ACAD_REACTORS
330
2A
102
}
102
{ACAD_XDICTIONARY
360
59
102
}
330
2A
100
AcDbVisualStyle
  2
Conceptual
 70
     9
 71
     3
 72
     2
 73
     0
 90
        0
 40
-0.6
 41
-30.0
 62
     5
 63
     7
421
 16777215
 74
     2
 91
        2
 64
     7
 65
   257
 75
     1
175
     1
 42
40.0
 92
        8
 66
     7
 43
1.0
 76
     1
 77
     6
 78
     2
 67
     7
 79
     3
170
     0
171
     0
290
     0
174
     0
 93
        1
 44
0.0
173
     0
291
     0
 45
0.0
  0
VISUALSTYLE
  5
35
102
{ACAD_REACTORS
330
2A
102
}
102
{ACAD_XDICTIONARY
360
5B
102
}
330
2A
100
AcDbVisualStyle
  2
Dim
 70
    11
 71
     2
 72
     2
 73
     0
 90
        0
 40
-0.6
 41
-30.0
 62
     5
 63
     7
421
 16777215
 74
     1
 91
        4
 64
     7
 65
   257
 75
     1
175
     1
 42
1.0
 92
        8
 66
     7
 43
1.0
 76
     1
 77
     6
 78
     2
 67
     7
 79
     5
170
     0
171
     0
290
     0
174
     0
 93
        1
 44
-50.0
173
     0
291
     1
 45
0.0
  0
VISUALSTYLE
  5
39
102
{ACAD_REACTORS
330
2A
102
}
102
{ACAD_XDICTIONARY
360
63
102
}
330
2A
100
AcDbVisualStyle
  2
Facepattern
 70
    15
 71
     2
 72
     2
 73
     0
 90
        0
 40
-0.6
 41
-30.0
 62
     5
 63
     7
421
 16777215
 74
     1
 91
        4
 64
     7
 65
   257
 75
     1
175
     1
 42
1.0
 92
        8
 66
     7
 43
1.0
 76
     1
 77
     6
 78
     2
 67
     7
 79
     5
170
     0
171
     0
290
     0
174
     0
 93
        1
 44
0.0
173
     0
291
     1
 45
0.0
  0
VISUALSTYLE
  5
2B
102
{ACAD_REACTORS
330
2A
102
}
102
{ACAD_XDICTIONARY
360
47
102
}
330
2A
100
AcDbVisualStyle
  2
Flat
 70
     0
 71
     2
 72
     1
 73
     1
 90
        2
 40
-0.6
 41
30.0
 62
     5
 63
     7
421
 16777215
 74
     0
 91
        4
 64
     7
 65
   257
 75
     1
175
     1
 42
1.0
 92
        8
 66
     7
 43
1.0
 76
     1
 77
     6
 78
     2
 67
     7
 79
     5
170
     0
171
     0
290
     0
174
     0
 93
       13
 44
0.0
173
     0
291
     1
 45
0.0
  0
VISUALSTYLE
  5
2C
102
{ACAD_REACTORS
330
2A
102
}
102
{ACAD_XDICTIONARY
360
49
102
}
330
2A
100
AcDbVisualStyle
  2
FlatWithEdges
 70
     1
 71
     2
 72
     1
 73
     1
 90
        2
 40
-0.6
 41
30.0
 62
     5
 63
     7
421
 16777215
 74
     1
 91
        4
 64
     7
 65
   257
 75
     1
175
     1
 42
1.0
 92
        0
 66
   257
 43
1.0
 76
     1
 77
     6
 78
     2
 67
     7
 79
     5
170
     0
171
     0
290
     0
174
     0
 93
       13
 44
0.0
173
     0
291
     1
 45
0.0
  0
VISUALSTYLE
  5
2D
102
{ACAD_REACTORS
330
2A
102
}
102
{ACAD_XDICTIONARY
360
4B
102
}
330
2A
100
AcDbVisualStyle
  2
Gouraud
 70
     2
 71
     2
 72
     2
 73
     1
 90
        2
 40
-0.6
 41
30.0
 62
     5
 63
     7
421
 16777215
 74
     0
 91
        4
 64
     7
 65
   257
 75
     1
175
     1
 42
1.0
 92
        0
 66
     7
 43
1.0
 76
     1
 77
     6
 78
     2
 67
     7
 79
     5
170
     0
171
     0
290
     0
174
     0
 93
       13
 44
0.0
173
     0
291
     1
 45
0.0
  0
VISUALSTYLE
  5
2E
102
{ACAD_REACTORS
330
2A
102
}
102
{ACAD_XDICTIONARY
360
4D
102
}
330
2A
100
AcDbVisualStyle
  2
GouraudWithEdges
 70
     3
 71
     2
 72
     2
 73
     1
 90
        2
 40
-0.6
 41
30.0
 62
     5
 63
     7
421
 16777215
 74
     1
 91
        4
 64
     7
 65
   257
 75
     1
175
     1
 42
1.0
 92
        0
 66
   257
 43
1.0
 76
     1
 77
     6
 78
     2
 67
     7
 79
     5
170
     0
171
     0
290
     0
174
     0
 93
       13
 44
0.0
173
     0
291
     1
 45
0.0
  0
VISUALSTYLE
  5
38
102
{ACAD_REACTORS
330
2A
102
}
102
{ACAD_XDICTIONARY
360
61
102
}
330
2A
100
AcDbVisualStyle
  2
Linepattern
 70
    14
 71
     2
 72
     2
 73
     0
 90
        0
 40
-0.6
 41
-30.0
 62
     5
 63
     7
421
 16777215
 74
     1
 91
        4
 64
     7
 65
   257
 75
     7
175
     7
 42
1.0
 92
        8
 66
     7
 43
1.0
 76
     1
 77
     6
 78
     2
 67
     7
 79
     5
170
     0
171
     0
290
     0
174
     0
 93
        1
 44
0.0
173
     0
291
     1
 45
0.0
  0
VISUALSTYLE
  5
33
102
{ACAD_REACTORS
330
2A
102
}
102
{ACAD_XDICTIONARY
360
57
102
}
330
2A
100
AcDbVisualStyle
  2
Realistic
 70
     8
 71
     2
 72
     2
 73
     0
 90
        0
 40
-0.6
 41
-30.0
 62
     5
 63
     7
421
 16777215
 74
     1
 91
        0
 64
     7
 65
   257
 75
     1
175
     1
 42
1.0
 92
        8
 66
     8
424
  7895160
 43
1.0
 76
     1
 77
     6
 78
     2
 67
     7
 79
     5
170
     0
171
     0
290
     0
174
     0
 93
       13
 44
0.0
173
     0
291
     0
 45
0.0
  0
VISUALSTYLE
  5
37
102
{ACAD_REACTORS
330
2A
102
}
102
{ACAD_XDICTIONARY
360
5F
102
}
330
2A
100
AcDbVisualStyle
  2
Thicken
 70
    13
 71
     2
 72
     2
 73
     0
 90
        0
 40
-0.6
 41
-30.0
 62
     5
 63
     7
421
 16777215
 74
     1
 91
        4
 64
     7
 65
   257
 75
     1
175
     1
 42
1.0
 92
       12
 66
     7
 43
1.0
 76
     1
 77
     6
 78
     2
 67
     7
 79
     5
170
     0
171
     0
290
     0
174
     0
 93
        1
 44
0.0
173
     0
291
     1
 45
0.0
  0
DICTIONARY
  5
4F
330
2F
100
AcDbDictionary
280
     1
281
     1
  3
ACAD_XREC_ROUNDTRIP
360
50
  0
DICTIONARY
  5
53
330
31
100
AcDbDictionary
280
     1
281
     1
  3
ACAD_XREC_ROUNDTRIP
360
54
  0
DICTIONARY
  5
51
330
30
100
AcDbDictionary
280
     1
281
     1
  3
ACAD_XREC_ROUNDTRIP
360
52
  0
DICTIONARY
  5
55
330
32
100
AcDbDictionary
280
     1
281
     1
  3
ACAD_XREC_ROUNDTRIP
360
56
  0
DICTIONARY
  5
5D
330
36
100
AcDbDictionary
280
     1
281
     1
  3
ACAD_XREC_ROUNDTRIP
360
5E
  0
DICTIONARY
  5
65
330
3A
100
AcDbDictionary
280
     1
281
     1
  3
ACAD_XREC_ROUNDTRIP
360
66
  0
DICTIONARY
  5
59
330
34
100
AcDbDictionary
280
     1
281
     1
  3
ACAD_XREC_ROUNDTRIP
360
5A
  0
DICTIONARY
  5
5B
330
35
100
AcDbDictionary
280
     1
281
     1
  3
ACAD_XREC_ROUNDTRIP
360
5C
  0
DICTIONARY
  5
63
330
39
100
AcDbDictionary
280
     1
281
     1
  3
ACAD_XREC_ROUNDTRIP
360
64
  0
DICTIONARY
  5
47
330
2B
100
AcDbDictionary
280
     1
281
     1
  3
ACAD_XREC_ROUNDTRIP
360
48
  0
DICTIONARY
  5
49
330
2C
100
AcDbDictionary
280
     1
281
     1
  3
ACAD_XREC_ROUNDTRIP
360
4A
  0
DICTIONARY
  5
4B
330
2D
100
AcDbDictionary
280
     1
281
     1
  3
ACAD_XREC_ROUNDTRIP
360
4C
  0
DICTIONARY
  5
4D
330
2E
100
AcDbDictionary
280
     1
281
     1
  3
ACAD_XREC_ROUNDTRIP
360
4E
  0
DICTIONARY
  5
61
330
38
100
AcDbDictionary
280
     1
281
     1
  3
ACAD_XREC_ROUNDTRIP
360
62
  0
DICTIONARY
  5
57
330
33
100
AcDbDictionary
280
     1
281
     1
  3
ACAD_XREC_ROUNDTRIP
360
58
  0
DICTIONARY
  5
5F
330
37
100
AcDbDictionary
280
     1
281
     1
  3
ACAD_XREC_ROUNDTRIP
360
60
  0
XRECORD
  5
50
102
{ACAD_REACTORS
330
4F
102
}
330
4F
100
AcDbXrecord
280
     1
102
RTVSPropertyOp0
 70
     1
102
RTVSPropertyOp1
 70
     1
102
RTVSPropertyOp2
 70
     1
102
RTVSPropertyOp3
 70
     1
102
RTVSPropertyOp4
 70
     1
102
RTVSPropertyOp5
 70
     1
102
RTVSPropertyOp6
 70
     1
102
RTVSPropertyOp7
 70
     1
102
RTVSPropertyOp8
 70
     1
102
RTVSPropertyOp9
 70
     1
102
RTVSPropertyOp10
 70
     1
102
RTVSPropertyOp11
 70
     1
102
RTVSPropertyOp12
 70
     1
102
RTVSPropertyOp13
 70
     1
102
RTVSPropertyOp14
 70
     1
102
RTVSPropertyOp15
 70
     1
102
RTVSPropertyOp16
 70
     1
102
RTVSPropertyOp17
 70
     1
102
RTVSPropertyOp18
 70
     1
102
RTVSPropertyOp19
 70
     1
102
RTVSPropertyOp20
 70
     1
102
RTVSPropertyOp21
 70
     1
102
RTVSPropertyOp22
 70
     1
102
RTVSPropertyOp23
 70
     1
102
RTVSPropertyOp24
 70
     1
102
RTVSPropertyOp25
 70
     1
102
RTVSPropertyOp26
 70
     1
102
RTVSPropertyOp27
 70
     1
102
RTVSPropertyOp28
 70
     1
102
RTVSPropertyOp29
 70
     1
102
RTVSPropertyOp30
 70
     1
102
RTVSPropertyOp31
 70
     1
102
RTVSPropertyOp32
 70
     1
  0
XRECORD
  5
54
102
{ACAD_REACTORS
330
53
102
}
330
53
100
AcDbXrecord
280
     1
102
RTVSPropertyOp0
 70
     1
102
RTVSPropertyOp1
 70
     1
102
RTVSPropertyOp2
 70
     1
102
RTVSPropertyOp3
 70
     1
102
RTVSPropertyOp4
 70
     1
102
RTVSPropertyOp5
 70
     1
102
RTVSPropertyOp6
 70
     1
102
RTVSPropertyOp7
 70
     1
102
RTVSPropertyOp8
 70
     1
102
RTVSPropertyOp9
 70
     1
102
RTVSPropertyOp10
 70
     1
102
RTVSPropertyOp11
 70
     1
102
RTVSPropertyOp12
 70
     1
102
RTVSPropertyOp13
 70
     1
102
RTVSPropertyOp14
 70
     1
102
RTVSPropertyOp15
 70
     1
102
RTVSPropertyOp16
 70
     1
102
RTVSPropertyOp17
 70
     1
102
RTVSPropertyOp18
 70
     1
102
RTVSPropertyOp19
 70
     1
102
RTVSPropertyOp20
 70
     1
102
RTVSPropertyOp21
 70
     1
102
RTVSPropertyOp22
 70
     1
102
RTVSPropertyOp23
 70
     1
102
RTVSPropertyOp24
 70
     1
102
RTVSPropertyOp25
 70
     1
102
RTVSPropertyOp26
 70
     1
102
RTVSPropertyOp27
 70
     1
102
RTVSPropertyOp28
 70
     1
102
RTVSPropertyOp29
 70
     1
102
RTVSPropertyOp30
 70
     1
102
RTVSPropertyOp31
 70
     1
102
RTVSPropertyOp32
 70
     1
  0
XRECORD
  5
52
102
{ACAD_REACTORS
330
51
102
}
330
51
100
AcDbXrecord
280
     1
102
RTVSPropertyOp0
 70
     1
102
RTVSPropertyOp1
 70
     1
102
RTVSPropertyOp2
 70
     1
102
RTVSPropertyOp3
 70
     1
102
RTVSPropertyOp4
 70
     1
102
RTVSPropertyOp5
 70
     1
102
RTVSPropertyOp6
 70
     1
102
RTVSPropertyOp7
 70
     1
102
RTVSPropertyOp8
 70
     1
102
RTVSPropertyOp9
 70
     1
102
RTVSPropertyOp10
 70
     1
102
RTVSPropertyOp11
 70
     1
102
RTVSPropertyOp12
 70
     1
102
RTVSPropertyOp13
 70
     1
102
RTVSPropertyOp14
 70
     1
102
RTVSPropertyOp15
 70
     1
102
RTVSPropertyOp16
 70
     1
102
RTVSPropertyOp17
 70
     1
102
RTVSPropertyOp18
 70
     1
102
RTVSPropertyOp19
 70
     1
102
RTVSPropertyOp20
 70
     1
102
RTVSPropertyOp21
 70
     1
102
RTVSPropertyOp22
 70
     1
102
RTVSPropertyOp23
 70
     1
102
RTVSPropertyOp24
 70
     1
102
RTVSPropertyOp25
 70
     1
102
RTVSPropertyOp26
 70
     1
102
RTVSPropertyOp27
 70
     1
102
RTVSPropertyOp28
 70
     1
102
RTVSPropertyOp29
 70
     1
102
RTVSPropertyOp30
 70
     1
102
RTVSPropertyOp31
 70
     1
102
RTVSPropertyOp32
 70
     1
  0
XRECORD
  5
56
102
{ACAD_REACTORS
330
55
102
}
330
55
100
AcDbXrecord
280
     1
102
RTVSPropertyOp0
 70
     1
102
RTVSPropertyOp1
 70
     1
102
RTVSPropertyOp2
 70
     1
102
RTVSPropertyOp3
 70
     1
102
RTVSPropertyOp4
 70
     1
102
RTVSPropertyOp5
 70
     1
102
RTVSPropertyOp6
 70
     1
102
RTVSPropertyOp7
 70
     1
102
RTVSPropertyOp8
 70
     1
102
RTVSPropertyOp9
 70
     1
102
RTVSPropertyOp10
 70
     1
102
RTVSPropertyOp11
 70
     1
102
RTVSPropertyOp12
 70
     1
102
RTVSPropertyOp13
 70
     1
102
RTVSPropertyOp14
 70
     1
102
RTVSPropertyOp15
 70
     1
102
RTVSPropertyOp16
 70
     1
102
RTVSPropertyOp17
 70
     1
102
RTVSPropertyOp18
 70
     1
102
RTVSPropertyOp19
 70
     1
102
RTVSPropertyOp20
 70
     1
102
RTVSPropertyOp21
 70
     1
102
RTVSPropertyOp22
 70
     1
102
RTVSPropertyOp23
 70
     1
102
RTVSPropertyOp24
 70
     1
102
RTVSPropertyOp25
 70
     1
102
RTVSPropertyOp26
 70
     1
102
RTVSPropertyOp27
 70
     1
102
RTVSPropertyOp28
 70
     1
102
RTVSPropertyOp29
 70
     1
102
RTVSPropertyOp30
 70
     1
102
RTVSPropertyOp31
 70
     1
102
RTVSPropertyOp32
 70
     1
  0
XRECORD
  5
5E
102
{ACAD_REACTORS
330
5D
102
}
330
5D
100
AcDbXrecord
280
     1
102
RTVSPropertyOp0
 70
     1
102
RTVSPropertyOp1
 70
     1
102
RTVSPropertyOp2
 70
     1
102
RTVSPropertyOp3
 70
     1
102
RTVSPropertyOp4
 70
     1
102
RTVSPropertyOp5
 70
     1
102
RTVSPropertyOp6
 70
     1
102
RTVSPropertyOp7
 70
     1
102
RTVSPropertyOp8
 70
     1
102
RTVSPropertyOp9
 70
     1
102
RTVSPropertyOp10
 70
     1
102
RTVSPropertyOp11
 70
     1
102
RTVSPropertyOp12
 70
     1
102
RTVSPropertyOp13
 70
     1
102
RTVSPropertyOp14
 70
     1
102
RTVSPropertyOp15
 70
     1
102
RTVSPropertyOp16
 70
     1
102
RTVSPropertyOp17
 70
     1
102
RTVSPropertyOp18
 70
     1
102
RTVSPropertyOp19
 70
     1
102
RTVSPropertyOp20
 70
     1
102
RTVSPropertyOp21
 70
     1
102
RTVSPropertyOp22
 70
     1
102
RTVSPropertyOp23
 70
     1
102
RTVSPropertyOp24
 70
     1
102
RTVSPropertyOp25
 70
     1
102
RTVSPropertyOp26
 70
     1
102
RTVSPropertyOp27
 70
     1
102
RTVSPropertyOp28
 70
     1
102
RTVSPropertyOp29
 70
     1
102
RTVSPropertyOp30
 70
     1
102
RTVSPropertyOp31
 70
     1
102
RTVSPropertyOp32
 70
     1
  0
XRECORD
  5
66
102
{ACAD_REACTORS
330
65
102
}
330
65
100
AcDbXrecord
280
     1
102
RTVSPropertyOp0
 70
     1
102
RTVSPropertyOp1
 70
     1
102
RTVSPropertyOp2
 70
     1
102
RTVSPropertyOp3
 70
     1
102
RTVSPropertyOp4
 70
     1
102
RTVSPropertyOp5
 70
     1
102
RTVSPropertyOp6
 70
     1
102
RTVSPropertyOp7
 70
     1
102
RTVSPropertyOp8
 70
     1
102
RTVSPropertyOp9
 70
     1
102
RTVSPropertyOp10
 70
     1
102
RTVSPropertyOp11
 70
     1
102
RTVSPropertyOp12
 70
     1
102
RTVSPropertyOp13
 70
     1
102
RTVSPropertyOp14
 70
     1
102
RTVSPropertyOp15
 70
     1
102
RTVSPropertyOp16
 70
     1
102
RTVSPropertyOp17
 70
     1
102
RTVSPropertyOp18
 70
     1
102
RTVSPropertyOp19
 70
     1
102
RTVSPropertyOp20
 70
     1
102
RTVSPropertyOp21
 70
     1
102
RTVSPropertyOp22
 70
     1
102
RTVSPropertyOp23
 70
     1
102
RTVSPropertyOp24
 70
     1
102
RTVSPropertyOp25
 70
     1
102
RTVSPropertyOp26
 70
     1
102
RTVSPropertyOp27
 70
     1
102
RTVSPropertyOp28
 70
     1
102
RTVSPropertyOp29
 70
     1
102
RTVSPropertyOp30
 70
     1
102
RTVSPropertyOp31
 70
     1
102
RTVSPropertyOp32
 70
     1
  0
XRECORD
  5
5A
102
{ACAD_REACTORS
330
59
102
}
330
59
100
AcDbXrecord
280
     1
102
RTVSPropertyOp0
 70
     1
102
RTVSPropertyOp1
 70
     1
102
RTVSPropertyOp2
 70
     1
102
RTVSPropertyOp3
 70
     1
102
RTVSPropertyOp4
 70
     1
102
RTVSPropertyOp5
 70
     1
102
RTVSPropertyOp6
 70
     1
102
RTVSPropertyOp7
 70
     1
102
RTVSPropertyOp8
 70
     1
102
RTVSPropertyOp9
 70
     1
102
RTVSPropertyOp10
 70
     1
102
RTVSPropertyOp11
 70
     1
102
RTVSPropertyOp12
 70
     1
102
RTVSPropertyOp13
 70
     1
102
RTVSPropertyOp14
 70
     1
102
RTVSPropertyOp15
 70
     1
102
RTVSPropertyOp16
 70
     1
102
RTVSPropertyOp17
 70
     1
102
RTVSPropertyOp18
 70
     1
102
RTVSPropertyOp19
 70
     1
102
RTVSPropertyOp20
 70
     1
102
RTVSPropertyOp21
 70
     1
102
RTVSPropertyOp22
 70
     1
102
RTVSPropertyOp23
 70
     1
102
RTVSPropertyOp24
 70
     1
102
RTVSPropertyOp25
 70
     1
102
RTVSPropertyOp26
 70
     1
102
RTVSPropertyOp27
 70
     1
102
RTVSPropertyOp28
 70
     1
102
RTVSPropertyOp29
 70
     1
102
RTVSPropertyOp30
 70
     1
102
RTVSPropertyOp31
 70
     1
102
RTVSPropertyOp32
 70
     1
  0
XRECORD
  5
5C
102
{ACAD_REACTORS
330
5B
102
}
330
5B
100
AcDbXrecord
280
     1
102
RTVSPropertyOp0
 70
     1
102
RTVSPropertyOp1
 70
     1
102
RTVSPropertyOp2
 70
     1
102
RTVSPropertyOp3
 70
     1
102
RTVSPropertyOp4
 70
     1
102
RTVSPropertyOp5
 70
     1
102
RTVSPropertyOp6
 70
     1
102
RTVSPropertyOp7
 70
     1
102
RTVSPropertyOp8
 70
     1
102
RTVSPropertyOp9
 70
     1
102
RTVSPropertyOp10
 70
     1
102
RTVSPropertyOp11
 70
     1
102
RTVSPropertyOp12
 70
     1
102
RTVSPropertyOp13
 70
     1
102
RTVSPropertyOp14
 70
     1
102
RTVSPropertyOp15
 70
     1
102
RTVSPropertyOp16
 70
     1
102
RTVSPropertyOp17
 70
     1
102
RTVSPropertyOp18
 70
     1
102
RTVSPropertyOp19
 70
     1
102
RTVSPropertyOp20
 70
     1
102
RTVSPropertyOp21
 70
     1
102
RTVSPropertyOp22
 70
     1
102
RTVSPropertyOp23
 70
     1
102
RTVSPropertyOp24
 70
     1
102
RTVSPropertyOp25
 70
     1
102
RTVSPropertyOp26
 70
     1
102
RTVSPropertyOp27
 70
     1
102
RTVSPropertyOp28
 70
     1
102
RTVSPropertyOp29
 70
     1
102
RTVSPropertyOp30
 70
     1
102
RTVSPropertyOp31
 70
     1
102
RTVSPropertyOp32
 70
     1
  0
XRECORD
  5
64
102
{ACAD_REACTORS
330
63
102
}
330
63
100
AcDbXrecord
280
     1
102
RTVSPropertyOp0
 70
     1
102
RTVSPropertyOp1
 70
     1
102
RTVSPropertyOp2
 70
     1
102
RTVSPropertyOp3
 70
     1
102
RTVSPropertyOp4
 70
     1
102
RTVSPropertyOp5
 70
     1
102
RTVSPropertyOp6
 70
     1
102
RTVSPropertyOp7
 70
     1
102
RTVSPropertyOp8
 70
     1
102
RTVSPropertyOp9
 70
     1
102
RTVSPropertyOp10
 70
     1
102
RTVSPropertyOp11
 70
     1
102
RTVSPropertyOp12
 70
     1
102
RTVSPropertyOp13
 70
     1
102
RTVSPropertyOp14
 70
     1
102
RTVSPropertyOp15
 70
     1
102
RTVSPropertyOp16
 70
     1
102
RTVSPropertyOp17
 70
     1
102
RTVSPropertyOp18
 70
     1
102
RTVSPropertyOp19
 70
     1
102
RTVSPropertyOp20
 70
     1
102
RTVSPropertyOp21
 70
     1
102
RTVSPropertyOp22
 70
     1
102
RTVSPropertyOp23
 70
     1
102
RTVSPropertyOp24
 70
     1
102
RTVSPropertyOp25
 70
     1
102
RTVSPropertyOp26
 70
     1
102
RTVSPropertyOp27
 70
     1
102
RTVSPropertyOp28
 70
     1
102
RTVSPropertyOp29
 70
     1
102
RTVSPropertyOp30
 70
     1
102
RTVSPropertyOp31
 70
     1
102
RTVSPropertyOp32
 70
     1
  0
XRECORD
  5
48
102
{ACAD_REACTORS
330
47
102
}
330
47
100
AcDbXrecord
280
     1
102
RTVSPropertyOp0
 70
     1
102
RTVSPropertyOp1
 70
     1
102
RTVSPropertyOp2
 70
     1
102
RTVSPropertyOp3
 70
     1
102
RTVSPropertyOp4
 70
     1
102
RTVSPropertyOp5
 70
     1
102
RTVSPropertyOp6
 70
     1
102
RTVSPropertyOp7
 70
     1
102
RTVSPropertyOp8
 70
     1
102
RTVSPropertyOp9
 70
     1
102
RTVSPropertyOp10
 70
     1
102
RTVSPropertyOp11
 70
     1
102
RTVSPropertyOp12
 70
     1
102
RTVSPropertyOp13
 70
     1
102
RTVSPropertyOp14
 70
     1
102
RTVSPropertyOp15
 70
     1
102
RTVSPropertyOp16
 70
     1
102
RTVSPropertyOp17
 70
     1
102
RTVSPropertyOp18
 70
     1
102
RTVSPropertyOp19
 70
     1
102
RTVSPropertyOp20
 70
     1
102
RTVSPropertyOp21
 70
     1
102
RTVSPropertyOp22
 70
     1
102
RTVSPropertyOp23
 70
     1
102
RTVSPropertyOp24
 70
     1
102
RTVSPropertyOp25
 70
     1
102
RTVSPropertyOp26
 70
     1
102
RTVSPropertyOp27
 70
     1
102
RTVSPropertyOp28
 70
     1
102
RTVSPropertyOp29
 70
     1
102
RTVSPropertyOp30
 70
     1
102
RTVSPropertyOp31
 70
     1
102
RTVSPropertyOp32
 70
     1
  0
XRECORD
  5
4A
102
{ACAD_REACTORS
330
49
102
}
330
49
100
AcDbXrecord
280
     1
102
RTVSPropertyOp0
 70
     1
102
RTVSPropertyOp1
 70
     1
102
RTVSPropertyOp2
 70
     1
102
RTVSPropertyOp3
 70
     1
102
RTVSPropertyOp4
 70
     1
102
RTVSPropertyOp5
 70
     1
102
RTVSPropertyOp6
 70
     1
102
RTVSPropertyOp7
 70
     1
102
RTVSPropertyOp8
 70
     1
102
RTVSPropertyOp9
 70
     1
102
RTVSPropertyOp10
 70
     1
102
RTVSPropertyOp11
 70
     1
102
RTVSPropertyOp12
 70
     1
102
RTVSPropertyOp13
 70
     1
102
RTVSPropertyOp14
 70
     1
102
RTVSPropertyOp15
 70
     1
102
RTVSPropertyOp16
 70
     1
102
RTVSPropertyOp17
 70
     1
102
RTVSPropertyOp18
 70
     1
102
RTVSPropertyOp19
 70
     1
102
RTVSPropertyOp20
 70
     1
102
RTVSPropertyOp21
 70
     1
102
RTVSPropertyOp22
 70
     1
102
RTVSPropertyOp23
 70
     1
102
RTVSPropertyOp24
 70
     1
102
RTVSPropertyOp25
 70
     1
102
RTVSPropertyOp26
 70
     1
102
RTVSPropertyOp27
 70
     1
102
RTVSPropertyOp28
 70
     1
102
RTVSPropertyOp29
 70
     1
102
RTVSPropertyOp30
 70
     1
102
RTVSPropertyOp31
 70
     1
102
RTVSPropertyOp32
 70
     1
  0
XRECORD
  5
4C
102
{ACAD_REACTORS
330
4B
102
}
330
4B
100
AcDbXrecord
280
     1
102
RTVSPropertyOp0
 70
     1
102
RTVSPropertyOp1
 70
     1
102
RTVSPropertyOp2
 70
     1
102
RTVSPropertyOp3
 70
     1
102
RTVSPropertyOp4
 70
     1
102
RTVSPropertyOp5
 70
     1
102
RTVSPropertyOp6
 70
     1
102
RTVSPropertyOp7
 70
     1
102
RTVSPropertyOp8
 70
     1
102
RTVSPropertyOp9
 70
     1
102
RTVSPropertyOp10
 70
     1
102
RTVSPropertyOp11
 70
     1
102
RTVSPropertyOp12
 70
     1
102
RTVSPropertyOp13
 70
     1
102
RTVSPropertyOp14
 70
     1
102
RTVSPropertyOp15
 70
     1
102
RTVSPropertyOp16
 70
     1
102
RTVSPropertyOp17
 70
     1
102
RTVSPropertyOp18
 70
     1
102
RTVSPropertyOp19
 70
     1
102
RTVSPropertyOp20
 70
     1
102
RTVSPropertyOp21
 70
     1
102
RTVSPropertyOp22
 70
     1
102
RTVSPropertyOp23
 70
     1
102
RTVSPropertyOp24
 70
     1
102
RTVSPropertyOp25
 70
     1
102
RTVSPropertyOp26
 70
     1
102
RTVSPropertyOp27
 70
     1
102
RTVSPropertyOp28
 70
     1
102
RTVSPropertyOp29
 70
     1
102
RTVSPropertyOp30
 70
     1
102
RTVSPropertyOp31
 70
     1
102
RTVSPropertyOp32
 70
     1
  0
XRECORD
  5
4E
102
{ACAD_REACTORS
330
4D
102
}
330
4D
100
AcDbXrecord
280
     1
102
RTVSPropertyOp0
 70
     1
102
RTVSPropertyOp1
 70
     1
102
RTVSPropertyOp2
 70
     1
102
RTVSPropertyOp3
 70
     1
102
RTVSPropertyOp4
 70
     1
102
RTVSPropertyOp5
 70
     1
102
RTVSPropertyOp6
 70
     1
102
RTVSPropertyOp7
 70
     1
102
RTVSPropertyOp8
 70
     1
102
RTVSPropertyOp9
 70
     1
102
RTVSPropertyOp10
 70
     1
102
RTVSPropertyOp11
 70
     1
102
RTVSPropertyOp12
 70
     1
102
RTVSPropertyOp13
 70
     1
102
RTVSPropertyOp14
 70
     1
102
RTVSPropertyOp15
 70
     1
102
RTVSPropertyOp16
 70
     1
102
RTVSPropertyOp17
 70
     1
102
RTVSPropertyOp18
 70
     1
102
RTVSPropertyOp19
 70
     1
102
RTVSPropertyOp20
 70
     1
102
RTVSPropertyOp21
 70
     1
102
RTVSPropertyOp22
 70
     1
102
RTVSPropertyOp23
 70
     1
102
RTVSPropertyOp24
 70
     1
102
RTVSPropertyOp25
 70
     1
102
RTVSPropertyOp26
 70
     1
102
RTVSPropertyOp27
 70
     1
102
RTVSPropertyOp28
 70
     1
102
RTVSPropertyOp29
 70
     1
102
RTVSPropertyOp30
 70
     1
102
RTVSPropertyOp31
 70
     1
102
RTVSPropertyOp32
 70
     1
  0
XRECORD
  5
62
102
{ACAD_REACTORS
330
61
102
}
330
61
100
AcDbXrecord
280
     1
102
RTVSPropertyOp0
 70
     1
102
RTVSPropertyOp1
 70
     1
102
RTVSPropertyOp2
 70
     1
102
RTVSPropertyOp3
 70
     1
102
RTVSPropertyOp4
 70
     1
102
RTVSPropertyOp5
 70
     1
102
RTVSPropertyOp6
 70
     1
102
RTVSPropertyOp7
 70
     1
102
RTVSPropertyOp8
 70
     1
102
RTVSPropertyOp9
 70
     1
102
RTVSPropertyOp10
 70
     1
102
RTVSPropertyOp11
 70
     1
102
RTVSPropertyOp12
 70
     1
102
RTVSPropertyOp13
 70
     1
102
RTVSPropertyOp14
 70
     1
102
RTVSPropertyOp15
 70
     1
102
RTVSPropertyOp16
 70
     1
102
RTVSPropertyOp17
 70
     1
102
RTVSPropertyOp18
 70
     1
102
RTVSPropertyOp19
 70
     1
102
RTVSPropertyOp20
 70
     1
102
RTVSPropertyOp21
 70
     1
102
RTVSPropertyOp22
 70
     1
102
RTVSPropertyOp23
 70
     1
102
RTVSPropertyOp24
 70
     1
102
RTVSPropertyOp25
 70
     1
102
RTVSPropertyOp26
 70
     1
102
RTVSPropertyOp27
 70
     1
102
RTVSPropertyOp28
 70
     1
102
RTVSPropertyOp29
 70
     1
102
RTVSPropertyOp30
 70
     1
102
RTVSPropertyOp31
 70
     1
102
RTVSPropertyOp32
 70
     1
  0
XRECORD
  5
58
102
{ACAD_REACTORS
330
57
102
}
330
57
100
AcDbXrecord
280
     1
102
RTVSPropertyOp0
 70
     1
102
RTVSPropertyOp1
 70
     1
102
RTVSPropertyOp2
 70
     1
102
RTVSPropertyOp3
 70
     1
102
RTVSPropertyOp4
 70
     1
102
RTVSPropertyOp5
 70
     1
102
RTVSPropertyOp6
 70
     1
102
RTVSPropertyOp7
 70
     1
102
RTVSPropertyOp8
 70
     1
102
RTVSPropertyOp9
 70
     1
102
RTVSPropertyOp10
 70
     1
102
RTVSPropertyOp11
 70
     1
102
RTVSPropertyOp12
 70
     1
102
RTVSPropertyOp13
 70
     1
102
RTVSPropertyOp14
 70
     1
102
RTVSPropertyOp15
 70
     1
102
RTVSPropertyOp16
 70
     1
102
RTVSPropertyOp17
 70
     1
102
RTVSPropertyOp18
 70
     1
102
RTVSPropertyOp19
 70
     1
102
RTVSPropertyOp20
 70
     1
102
RTVSPropertyOp21
 70
     1
102
RTVSPropertyOp22
 70
     1
102
RTVSPropertyOp23
 70
     1
102
RTVSPropertyOp24
 70
     1
102
RTVSPropertyOp25
 70
     1
102
RTVSPropertyOp26
 70
     1
102
RTVSPropertyOp27
 70
     1
102
RTVSPropertyOp28
 70
     1
102
RTVSPropertyOp29
 70
     1
102
RTVSPropertyOp30
 70
     1
102
RTVSPropertyOp31
 70
     1
102
RTVSPropertyOp32
 70
     1
  0
XRECORD
  5
60
102
{ACAD_REACTORS
330
5F
102
}
330
5F
100
AcDbXrecord
280
     1
102
RTVSPropertyOp0
 70
     1
102
RTVSPropertyOp1
 70
     1
102
RTVSPropertyOp2
 70
     1
102
RTVSPropertyOp3
 70
     1
102
RTVSPropertyOp4
 70
     1
102
RTVSPropertyOp5
 70
     1
102
RTVSPropertyOp6
 70
     1
102
RTVSPropertyOp7
 70
     1
102
RTVSPropertyOp8
 70
     1
102
RTVSPropertyOp9
 70
     1
102
RTVSPropertyOp10
 70
     1
102
RTVSPropertyOp11
 70
     1
102
RTVSPropertyOp12
 70
     1
102
RTVSPropertyOp13
 70
     1
102
RTVSPropertyOp14
 70
     1
102
RTVSPropertyOp15
 70
     1
102
RTVSPropertyOp16
 70
     1
102
RTVSPropertyOp17
 70
     1
102
RTVSPropertyOp18
 70
     1
102
RTVSPropertyOp19
 70
     1
102
RTVSPropertyOp20
 70
     1
102
RTVSPropertyOp21
 70
     1
102
RTVSPropertyOp22
 70
     1
102
RTVSPropertyOp23
 70
     1
102
RTVSPropertyOp24
 70
     1
102
RTVSPropertyOp25
 70
     1
102
RTVSPropertyOp26
 70
     1
102
RTVSPropertyOp27
 70
     1
102
RTVSPropertyOp28
 70
     1
102
RTVSPropertyOp29
 70
     1
102
RTVSPropertyOp30
 70
     1
102
RTVSPropertyOp31
 70
     1
102
RTVSPropertyOp32
 70
     1
  0
ENDSEC
  0
EOF
