<?xml version="1.0" encoding="UTF-8"?>
<!DOCTYPE svg PUBLIC "-//W3C//DTD SVG 1.1//EN" "http://www.w3.org/Graphics/SVG/1.1/DTD/svg11.dtd">
<!-- Creator: CorelDRAW X6 -->
<svg xmlns="http://www.w3.org/2000/svg" xml:space="preserve" width="200mm" height="200mm" version="1.1" shape-rendering="geometricPrecision" text-rendering="geometricPrecision" image-rendering="optimizeQuality" fill-rule="evenodd" clip-rule="evenodd"
viewBox="0 0 20000 20000"
 xmlns:xlink="http://www.w3.org/1999/xlink">
 <g id="Layer_x0020_1">
  <metadata id="CorelCorpID_0Corel-Layer"/>
  <g id="_867651520">
   <circle fill="none" stroke="black" stroke-width="52.92" stroke-linecap="round" stroke-linejoin="round" transform="matrix(1.6266E-014 -0.614169 0.614169 1.6266E-014 -0.02 20000)" r="529"/>
   <circle fill="none" stroke="black" stroke-width="52.92" stroke-linecap="round" stroke-linejoin="round" transform="matrix(1.6266E-014 -0.614169 0.614169 1.6266E-014 1499.98 20000)" r="529"/>
   <circle fill="none" stroke="black" stroke-width="52.92" stroke-linecap="round" stroke-linejoin="round" transform="matrix(1.6266E-014 -0.614169 0.614169 1.6266E-014 -1500.02 20000)" r="529"/>
   <path fill="none" fill-rule="nonzero" stroke="blue" stroke-width="52.92" stroke-linecap="round" stroke-linejoin="round" d="M-730 17660c-79,57 -185,1 -200,-92 -20,-120 147,-186 224,-97 46,54 34,147 -24,188"/>
   <path fill="none" fill-rule="nonzero" stroke="blue" stroke-width="52.92" stroke-linecap="round" stroke-linejoin="round" d="M-806 17510c-5,-18 -23,-31 -48,-25 -49,13 -32,86 19,76 23,-4 34,-31 29,-51z"/>
   <path fill="none" fill-rule="nonzero" stroke="blue" stroke-width="52.92" stroke-linecap="round" stroke-linejoin="round" d="M954 17591c-14,41 -45,77 -87,88 -92,25 -196,-77 -160,-171 29,-97 173,-115 231,-39 27,35 30,82 16,123"/>
   <path fill="none" fill-rule="nonzero" stroke="blue" stroke-width="52.92" stroke-linecap="round" stroke-linejoin="round" d="M776 17488c13,-10 32,-13 45,-3 19,13 22,42 6,58 -12,13 -34,16 -49,6 -10,-6 -16,-17 -18,-29 -2,-13 4,-24 15,-32z"/>
   <path fill="none" fill-rule="nonzero" stroke="blue" stroke-width="52.92" stroke-linecap="round" stroke-linejoin="round" d="M-44 17497c0,-440 -356,-796 -796,-796 -440,0 -796,356 -796,796 0,417 321,759 729,793m700 -310c103,-134 164,-302 164,-484"/>
   <path fill="none" fill-rule="nonzero" stroke="blue" stroke-width="52.92" stroke-linecap="round" stroke-linejoin="round" d="M200 17982c-104,-134 -165,-303 -165,-486 0,-440 357,-796 796,-796 440,0 796,356 796,796 0,105 -20,205 -57,296m-576 483c-32,7 -64,11 -97,14"/>
   <path fill="none" fill-rule="nonzero" stroke="blue" stroke-width="52.92" stroke-linecap="round" stroke-linejoin="round" d="M304 18586c0,184 -149,333 -333,333"/>
   <path fill="none" fill-rule="nonzero" stroke="blue" stroke-width="52.92" stroke-linecap="round" stroke-linejoin="round" d="M-29 18920c-184,0 -333,-149 -333,-333"/>
   <path fill="none" fill-rule="nonzero" stroke="blue" stroke-width="52.92" stroke-linecap="round" stroke-linejoin="round" d="M-1859 18160c-44,-169 -2,-371 3,-550 60,79 92,193 151,278 -68,-319 -57,-677 -16,-999 17,-134 28,-286 73,-414 31,-86 124,-159 147,-241 44,-163 -156,-131 -280,-99 -382,98 -438,573 -450,901 -7,198 5,395 16,592 11,185 50,459 -16,629 49,-125 143,-223 203,-340 39,101 75,221 111,315 15,-41 32,-90 44,-123 15,10 19,24 13,50z"/>
   <path fill="none" fill-rule="nonzero" stroke="blue" stroke-width="52.92" stroke-linecap="round" stroke-linejoin="round" d="M1726 17544c0,162 -9,328 3,490 44,-94 103,-198 170,-281 37,130 52,267 80,398 72,-112 125,-286 132,-421 63,43 125,124 147,199 50,-157 -3,-447 -3,-621 0,-167 4,-339 -36,-501 -45,-180 -110,-377 -234,-518 -78,-89 -252,-213 -376,-205 -268,19 -71,293 5,415 106,172 109,296 112,291l0 754z"/>
   <path fill="none" fill-rule="nonzero" stroke="blue" stroke-width="52.92" stroke-linecap="round" stroke-linejoin="round" d="M286 16599c-27,-37 -98,-199 -98,-199 0,0 302,87 360,106 267,89 561,159 842,148 -14,-44 -34,-87 -58,-127 -28,-47 -64,-93 -83,-145 -67,-175 150,-201 272,-175 57,12 28,-151 2,-255 -150,104 -316,181 -494,235 -645,196 -1294,196 -1939,1 -208,-63 -399,-157 -569,-289 -131,226 64,424 273,527 106,52 219,92 301,125 163,65 314,93 482,114 -40,-65 -115,-108 -138,-177 2,6 225,102 250,111 87,30 171,68 256,104 148,62 352,107 516,72 -70,-54 -128,-111 -175,-176z"/>
   <path fill="none" fill-rule="nonzero" stroke="blue" stroke-width="52.92" stroke-linecap="round" stroke-linejoin="round" d="M1748 18122c0,217 -176,393 -393,393 -217,0 -393,-176 -393,-393 0,-217 176,-393 393,-393 217,0 393,176 393,393"/>
   <path fill="none" fill-rule="nonzero" stroke="blue" stroke-width="52.92" stroke-linecap="round" stroke-linejoin="round" d="M-2 18023c89,-86 182,-63 274,-2 32,21 63,44 92,67 223,176 335,187 596,44 -11,43 -14,75 -28,100 -72,131 -187,205 -331,235 -220,46 -411,-5 -607,-159 -208,171 -443,221 -699,132 -154,-53 -239,-158 -272,-318 107,79 218,133 343,102 72,-18 139,-58 204,-96 51,-30 93,-74 143,-106 114,-74 158,-73 283,1z"/>
   <path fill="none" fill-rule="nonzero" stroke="blue" stroke-width="52.92" stroke-linecap="round" stroke-linejoin="round" d="M-932 15495l-42 -451c696,66 1384,63 2065,0l-49 451c-674,58 -1331,56 -1974,0z"/>
   <path fill="none" stroke="black" stroke-width="52.92" stroke-linecap="round" stroke-linejoin="round" d="M-1875 18072l0 -205c-5,70 -7,139 0,205z"/>
   <path fill="none" stroke="black" stroke-width="52.92" stroke-linecap="round" stroke-linejoin="round" d="M487 19300l0 -160 733 0c334,0 607,-273 607,-607l0 -681c22,-35 46,-69 71,-100 37,130 52,267 80,398 72,-112 125,-286 132,-421 63,43 125,124 147,199 50,-157 -3,-447 -3,-621 0,-167 4,-339 -36,-501 -45,-180 -110,-377 -234,-518 -78,-89 -252,-213 -376,-205 -23,2 -43,5 -59,10 -6,-47 -17,-99 -28,-142 96,-67 186,-144 267,-234 147,-162 256,-344 285,-565 11,-86 19,-172 -70,-246 -188,345 -368,695 -883,583 112,-1046 223,-2080 333,-3107 -558,-233 -2253,-226 -2788,23 108,1023 216,2049 324,3082 -516,119 -691,-244 -886,-584 -101,112 -77,224 -50,331 49,200 157,368 300,515 53,54 108,103 166,149 -59,101 -52,197 -8,281l-8 3c-10,-103 -177,-75 -286,-47 -382,98 -438,573 -450,901 -7,198 5,395 16,592 11,185 50,459 -16,629 49,-125 143,-223 203,-340 39,101 75,221 111,315 14,-38 30,-83 41,-116l0 417c0,334 273,607 607,607l781 0 0 160 -1213 0c-276,0 -500,224 -500,500l0 400c0,276 224,500 500,500l3400 0c276,0 500,-224 500,-500l0 -400c0,-276 -224,-500 -500,-500l-1213 0z"/>
   <path fill="none" fill-rule="nonzero" stroke="blue" stroke-width="52.92" stroke-linecap="round" stroke-linejoin="round" d="M1655 18122c0,166 -134,300 -300,300 -166,0 -300,-134 -300,-300 0,-166 134,-300 300,-300 166,0 300,134 300,300"/>
  </g>
  <circle fill="none" stroke="black" stroke-width="52.92" stroke-linecap="round" stroke-linejoin="round" transform="matrix(9.00886E-015 -0.340155 0.340155 9.00886E-015 -750.02 20000)" r="529"/>
  <circle fill="none" stroke="black" stroke-width="52.92" stroke-linecap="round" stroke-linejoin="round" transform="matrix(9.00886E-015 -0.340155 0.340155 9.00886E-015 749.98 20000)" r="529"/>
 </g>
</svg>
