  0
SECTION
  2
HEADER
  9
$ACADVER
  1
AC1021
  9
$ACADMAINTVER
 70
    25
  9
$DWGCODEPAGE
  3
ANSI_1252
  9
$INSBASE
 10
0.0
 20
0.0
 30
0.0
  9
$EXTMIN
 10
-11.97993
 20
-13.42958
 30
0.0
  9
$EXTMAX
 10
-8.02995
 20
-8.44458
 30
0.0
  9
$LIMMIN
 10
0.0
 20
0.0
  9
$LIMMAX
 10
12.0
 20
9.0
  9
$ORTHOMODE
 70
     0
  9
$REGENMODE
 70
     1
  9
$FILLMODE
 70
     1
  9
$QTEXTMODE
 70
     0
  9
$MIRRTEXT
 70
     1
  9
$LTSCALE
 40
1.0
  9
$ATTMODE
 70
     1
  9
$TEXTSIZE
 40
0.2
  9
$TRACEWID
 40
0.05
  9
$TEXTSTYLE
  7
Standard
  9
$CLAYER
  8
0
  9
$CELTYPE
  6
ByLayer
  9
$CECOLOR
 62
   256
  9
$CELTSCALE
 40
1.0
  9
$DISPSILH
 70
     0
  9
$DIMSCALE
 40
1.0
  9
$DIMASZ
 40
0.18
  9
$DIMEXO
 40
0.0625
  9
$DIMDLI
 40
0.38
  9
$DIMRND
 40
0.0
  9
$DIMDLE
 40
0.0
  9
$DIMEXE
 40
0.18
  9
$DIMTP
 40
0.0
  9
$DIMTM
 40
0.0
  9
$DIMTXT
 40
0.18
  9
$DIMCEN
 40
0.09
  9
$DIMTSZ
 40
0.0
  9
$DIMTOL
 70
     0
  9
$DIMLIM
 70
     0
  9
$DIMTIH
 70
     1
  9
$DIMTOH
 70
     1
  9
$DIMSE1
 70
     0
  9
$DIMSE2
 70
     0
  9
$DIMTAD
 70
     0
  9
$DIMZIN
 70
     0
  9
$DIMBLK
  1

  9
$DIMASO
 70
     1
  9
$DIMSHO
 70
     1
  9
$DIMPOST
  1

  9
$DIMAPOST
  1

  9
$DIMALT
 70
     0
  9
$DIMALTD
 70
     2
  9
$DIMALTF
 40
25.4
  9
$DIMLFAC
 40
1.0
  9
$DIMTOFL
 70
     0
  9
$DIMTVP
 40
0.0
  9
$DIMTIX
 70
     0
  9
$DIMSOXD
 70
     0
  9
$DIMSAH
 70
     0
  9
$DIMBLK1
  1

  9
$DIMBLK2
  1

  9
$DIMSTYLE
  2
Standard
  9
$DIMCLRD
 70
     0
  9
$DIMCLRE
 70
     0
  9
$DIMCLRT
 70
     0
  9
$DIMTFAC
 40
1.0
  9
$DIMGAP
 40
0.09
  9
$DIMJUST
 70
     0
  9
$DIMSD1
 70
     0
  9
$DIMSD2
 70
     0
  9
$DIMTOLJ
 70
     1
  9
$DIMTZIN
 70
     0
  9
$DIMALTZ
 70
     0
  9
$DIMALTTZ
 70
     0
  9
$DIMUPT
 70
     0
  9
$DIMDEC
 70
     4
  9
$DIMTDEC
 70
     4
  9
$DIMALTU
 70
     2
  9
$DIMALTTD
 70
     2
  9
$DIMTXSTY
  7
Standard
  9
$DIMAUNIT
 70
     0
  9
$DIMADEC
 70
     0
  9
$DIMALTRND
 40
0.0
  9
$DIMAZIN
 70
     0
  9
$DIMDSEP
 70
    46
  9
$DIMATFIT
 70
     3
  9
$DIMFRAC
 70
     0
  9
$DIMLDRBLK
  1

  9
$DIMLUNIT
 70
     2
  9
$DIMLWD
 70
    -2
  9
$DIMLWE
 70
    -2
  9
$DIMTMOVE
 70
     0
  9
$DIMFXL
 40
1.0
  9
$DIMFXLON
 70
     0
  9
$DIMJOGANG
 40
0.7853981633974483
  9
$DIMTFILL
 70
     0
  9
$DIMTFILLCLR
 70
     0
  9
$DIMARCSYM
 70
     0
  9
$DIMLTYPE
  6

  9
$DIMLTEX1
  6

  9
$DIMLTEX2
  6

  9
$LUNITS
 70
     2
  9
$LUPREC
 70
     4
  9
$SKETCHINC
 40
0.1
  9
$FILLETRAD
 40
0.5
  9
$AUNITS
 70
     0
  9
$AUPREC
 70
     0
  9
$MENU
  1
.
  9
$ELEVATION
 40
0.0
  9
$PELEVATION
 40
0.0
  9
$THICKNESS
 40
0.0
  9
$LIMCHECK
 70
     0
  9
$CHAMFERA
 40
0.5
  9
$CHAMFERB
 40
0.5
  9
$CHAMFERC
 40
1.0
  9
$CHAMFERD
 40
0.0
  9
$SKPOLY
 70
     0
  9
$TDCREATE
 40
2460555.193440023
  9
$TDUCREATE
 40
2460555.151773356
  9
$TDUPDATE
 40
2460555.193440046
  9
$TDUUPDATE
 40
2460555.15177338
  9
$TDINDWG
 40
0.0000000116
  9
$TDUSRTIMER
 40
0.0000000116
  9
$USRTIMER
 70
     1
  9
$ANGBASE
 50
0.0
  9
$ANGDIR
 70
     0
  9
$PDMODE
 70
     0
  9
$PDSIZE
 40
0.0
  9
$PLINEWID
 40
0.0
  9
$SPLFRAME
 70
     0
  9
$SPLINETYPE
 70
     6
  9
$SPLINESEGS
 70
     8
  9
$HANDSEED
  5
69
  9
$SURFTAB1
 70
     6
  9
$SURFTAB2
 70
     6
  9
$SURFTYPE
 70
     6
  9
$SURFU
 70
     6
  9
$SURFV
 70
     6
  9
$UCSBASE
  2

  9
$UCSNAME
  2

  9
$UCSORG
 10
0.0
 20
0.0
 30
0.0
  9
$UCSXDIR
 10
1.0
 20
0.0
 30
0.0
  9
$UCSYDIR
 10
0.0
 20
1.0
 30
0.0
  9
$UCSORTHOREF
  2

  9
$UCSORTHOVIEW
 70
     0
  9
$UCSORGTOP
 10
0.0
 20
0.0
 30
0.0
  9
$UCSORGBOTTOM
 10
0.0
 20
0.0
 30
0.0
  9
$UCSORGLEFT
 10
0.0
 20
0.0
 30
0.0
  9
$UCSORGRIGHT
 10
0.0
 20
0.0
 30
0.0
  9
$UCSORGFRONT
 10
0.0
 20
0.0
 30
0.0
  9
$UCSORGBACK
 10
0.0
 20
0.0
 30
0.0
  9
$PUCSBASE
  2

  9
$PUCSNAME
  2

  9
$PUCSORG
 10
0.0
 20
0.0
 30
0.0
  9
$PUCSXDIR
 10
1.0
 20
0.0
 30
0.0
  9
$PUCSYDIR
 10
0.0
 20
1.0
 30
0.0
  9
$PUCSORTHOREF
  2

  9
$PUCSORTHOVIEW
 70
     0
  9
$PUCSORGTOP
 10
0.0
 20
0.0
 30
0.0
  9
$PUCSORGBOTTOM
 10
0.0
 20
0.0
 30
0.0
  9
$PUCSORGLEFT
 10
0.0
 20
0.0
 30
0.0
  9
$PUCSORGRIGHT
 10
0.0
 20
0.0
 30
0.0
  9
$PUCSORGFRONT
 10
0.0
 20
0.0
 30
0.0
  9
$PUCSORGBACK
 10
0.0
 20
0.0
 30
0.0
  9
$USERI1
 70
     0
  9
$USERI2
 70
     0
  9
$USERI3
 70
     0
  9
$USERI4
 70
     0
  9
$USERI5
 70
     0
  9
$USERR1
 40
0.0
  9
$USERR2
 40
0.0
  9
$USERR3
 40
0.0
  9
$USERR4
 40
0.0
  9
$USERR5
 40
0.0
  9
$WORLDVIEW
 70
     1
  9
$SHADEDGE
 70
     3
  9
$SHADEDIF
 70
    70
  9
$TILEMODE
 70
     1
  9
$MAXACTVP
 70
    64
  9
$PINSBASE
 10
0.0
 20
0.0
 30
0.0
  9
$PLIMCHECK
 70
     0
  9
$PEXTMIN
 10
1.000000000000000E+20
 20
1.000000000000000E+20
 30
1.000000000000000E+20
  9
$PEXTMAX
 10
-1.000000000000000E+20
 20
-1.000000000000000E+20
 30
-1.000000000000000E+20
  9
$PLIMMIN
 10
0.0
 20
0.0
  9
$PLIMMAX
 10
12.0
 20
9.0
  9
$UNITMODE
 70
     0
  9
$VISRETAIN
 70
     1
  9
$PLINEGEN
 70
     0
  9
$PSLTSCALE
 70
     1
  9
$TREEDEPTH
 70
  3020
  9
$CMLSTYLE
  2
Standard
  9
$CMLJUST
 70
     0
  9
$CMLSCALE
 40
1.0
  9
$PROXYGRAPHICS
 70
     1
  9
$MEASUREMENT
 70
     0
  9
$CELWEIGHT
370
    -1
  9
$ENDCAPS
280
     0
  9
$JOINSTYLE
280
     0
  9
$LWDISPLAY
290
     0
  9
$INSUNITS
 70
     5
  9
$HYPERLINKBASE
  1

  9
$STYLESHEET
  1

  9
$XEDIT
290
     1
  9
$CEPSNTYPE
380
     0
  9
$PSTYLEMODE
290
     1
  9
$FINGERPRINTGUID
  2
{F4B3976E-1E7E-454D-BF87-ECCEA56AE6F6}
  9
$VERSIONGUID
  2
{FAEB1C32-E019-11D5-929B-00C0DF256EC4}
  9
$EXTNAMES
290
     1
  9
$PSVPSCALE
 40
0.0
  9
$OLESTARTUP
290
     0
  9
$SORTENTS
280
   127
  9
$INDEXCTL
280
     0
  9
$HIDETEXT
280
     1
  9
$XCLIPFRAME
290
     0
  9
$HALOGAP
280
     0
  9
$OBSCOLOR
 70
   257
  9
$OBSLTYPE
280
     0
  9
$INTERSECTIONDISPLAY
280
     0
  9
$INTERSECTIONCOLOR
 70
   257
  9
$DIMASSOC
280
     2
  9
$PROJECTNAME
  1

  9
$CAMERADISPLAY
290
     0
  9
$LENSLENGTH
 40
50.0
  9
$CAMERAHEIGHT
 40
0.0
  9
$STEPSPERSEC
 40
2.0
  9
$STEPSIZE
 40
6.0
  9
$3DDWFPREC
 40
2.0
  9
$PSOLWIDTH
 40
0.25
  9
$PSOLHEIGHT
 40
4.0
  9
$LOFTANG1
 40
1.570796326794897
  9
$LOFTANG2
 40
1.570796326794897
  9
$LOFTMAG1
 40
0.0
  9
$LOFTMAG2
 40
0.0
  9
$LOFTPARAM
 70
     7
  9
$LOFTNORMALS
280
     1
  9
$LATITUDE
 40
37.795
  9
$LONGITUDE
 40
-122.394
  9
$NORTHDIRECTION
 40
0.0
  9
$TIMEZONE
 70
 -8000
  9
$LIGHTGLYPHDISPLAY
280
     1
  9
$TILEMODELIGHTSYNCH
280
     1
  9
$SOLIDHIST
280
     1
  9
$SHOWHIST
280
     1
  9
$DWFFRAME
280
     2
  9
$DGNFRAME
280
     2
  9
$REALWORLDSCALE
290
     1
  9
$INTERFERECOLOR
 62
   256
  9
$CSHADOW
280
     0
  9
$SHADOWPLANELOCATION
 40
0.0
  0
ENDSEC
  0
SECTION
  2
CLASSES
  0
CLASS
  1
ACDBDICTIONARYWDFLT
  2
AcDbDictionaryWithDefault
  3
ObjectDBX Classes
 90
        0
 91
        4
280
     0
281
     0
  0
CLASS
  1
VISUALSTYLE
  2
AcDbVisualStyle
  3
ObjectDBX Classes
 90
     4095
 91
        4
280
     0
281
     0
  0
CLASS
  1
MATERIAL
  2
AcDbMaterial
  3
ObjectDBX Classes
 90
     1153
 91
        4
280
     0
281
     0
  0
ENDSEC
  0
SECTION
  2
TABLES
  0
TABLE
  2
VPORT
  5
8
330
0
100
AcDbSymbolTable
 70
     1
  0
VPORT
  5
29
330
8
100
AcDbSymbolTableRecord
100
AcDbViewportTableRecord
  2
*Active
 70
     0
 10
0.0
 20
0.0
 11
1.0
 21
1.0
 12
10.42990654205607
 22
4.5
 13
0.0
 23
0.0
 14
0.5
 24
0.5
 15
0.5
 25
0.5
 16
0.0
 26
0.0
 36
1.0
 17
0.0
 27
0.0
 37
0.0
 40
9.0
 41
1.972972972850329
 42
50.0
 43
0.0
 44
0.0
 50
0.0
 51
0.0
 71
     0
 72
   100
 73
     1
 74
     3
 75
     0
 76
     0
 77
     0
 78
     0
281
     0
 65
     1
110
0.0
120
0.0
130
0.0
111
1.0
121
0.0
131
0.0
112
0.0
122
1.0
132
0.0
 79
     0
146
0.0
 60
     3
 61
     5
292
     1
282
     1
141
0.0
142
0.0
 63
   250
  0
ENDTAB
  0
TABLE
  2
LTYPE
  5
5
330
0
100
AcDbSymbolTable
 70
     1
  0
LTYPE
  5
14
330
5
100
AcDbSymbolTableRecord
100
AcDbLinetypeTableRecord
  2
ByBlock
 70
     0
  3

 72
    65
 73
     0
 40
0.0
  0
LTYPE
  5
15
330
5
100
AcDbSymbolTableRecord
100
AcDbLinetypeTableRecord
  2
ByLayer
 70
     0
  3

 72
    65
 73
     0
 40
0.0
  0
LTYPE
  5
16
330
5
100
AcDbSymbolTableRecord
100
AcDbLinetypeTableRecord
  2
Continuous
 70
     0
  3
Solid line
 72
    65
 73
     0
 40
0.0
  0
ENDTAB
  0
TABLE
  2
LAYER
  5
2
330
0
100
AcDbSymbolTable
 70
     2
  0
LAYER
  5
10
330
2
100
AcDbSymbolTableRecord
100
AcDbLayerTableRecord
  2
0
 70
     0
 62
     7
  6
Continuous
370
    -3
390
F
347
3E
  0
LAYER
  5
40
330
2
100
AcDbSymbolTableRecord
100
AcDbLayerTableRecord
  2
Layer 1
 70
     0
 62
     7
  6
Continuous
370
    -3
390
F
347
3E
  0
ENDTAB
  0
TABLE
  2
STYLE
  5
3
330
0
100
AcDbSymbolTable
 70
     1
  0
STYLE
  5
11
330
3
100
AcDbSymbolTableRecord
100
AcDbTextStyleTableRecord
  2
Standard
 70
     0
 40
0.0
 41
1.0
 50
0.0
 71
     0
 42
0.2
  3
txt
  4

  0
ENDTAB
  0
TABLE
  2
VIEW
  5
6
330
0
100
AcDbSymbolTable
 70
     0
  0
ENDTAB
  0
TABLE
  2
UCS
  5
7
330
0
100
AcDbSymbolTable
 70
     0
  0
ENDTAB
  0
TABLE
  2
APPID
  5
9
330
0
100
AcDbSymbolTable
 70
     2
  0
APPID
  5
12
330
9
100
AcDbSymbolTableRecord
100
AcDbRegAppTableRecord
  2
ACAD
 70
     0
  0
APPID
  5
3F
330
9
100
AcDbSymbolTableRecord
100
AcDbRegAppTableRecord
  2
ODA
 70
     0
  0
ENDTAB
  0
TABLE
  2
DIMSTYLE
  5
A
330
0
100
AcDbSymbolTable
 70
     1
100
AcDbDimStyleTable
  0
DIMSTYLE
105
27
330
A
100
AcDbSymbolTableRecord
100
AcDbDimStyleTableRecord
  2
Standard
 70
     0
178
     0
340
11
  0
ENDTAB
  0
TABLE
  2
BLOCK_RECORD
  5
1
330
0
100
AcDbSymbolTable
 70
     1
  0
BLOCK_RECORD
  5
1F
330
1
100
AcDbSymbolTableRecord
100
AcDbBlockTableRecord
  2
*Model_Space
340
22
 70
     0
280
     1
281
     0
  0
BLOCK_RECORD
  5
1B
330
1
100
AcDbSymbolTableRecord
100
AcDbBlockTableRecord
  2
*Paper_Space
340
1E
 70
     0
280
     1
281
     0
  0
BLOCK_RECORD
  5
23
330
1
100
AcDbSymbolTableRecord
100
AcDbBlockTableRecord
  2
*Paper_Space0
340
26
 70
     0
280
     1
281
     0
  0
ENDTAB
  0
ENDSEC
  0
SECTION
  2
BLOCKS
  0
BLOCK
  5
20
330
1F
100
AcDbEntity
  8
0
100
AcDbBlockBegin
  2
*Model_Space
 70
     0
 10
0.0
 20
0.0
 30
0.0
  3
*Model_Space
  1

  0
ENDBLK
  5
21
330
1F
100
AcDbEntity
  8
0
100
AcDbBlockEnd
  0
BLOCK
  5
1C
330
1B
100
AcDbEntity
 67
     1
  8
0
100
AcDbBlockBegin
  2
*Paper_Space
 70
     0
 10
0.0
 20
0.0
 30
0.0
  3
*Paper_Space
  1

  0
ENDBLK
  5
1D
330
1B
100
AcDbEntity
 67
     1
  8
0
100
AcDbBlockEnd
  0
BLOCK
  5
24
330
23
100
AcDbEntity
  8
0
100
AcDbBlockBegin
  2
*Paper_Space0
 70
     0
 10
0.0
 20
0.0
 30
0.0
  3
*Paper_Space0
  1

  0
ENDBLK
  5
25
330
23
100
AcDbEntity
  8
0
100
AcDbBlockEnd
  0
ENDSEC
  0
SECTION
  2
ENTITIES
  0
SPLINE
  5
41
330
1F
100
AcDbEntity
  8
Layer 1
 62
     5
100
AcDbSpline
210
0.0
220
0.0
230
1.0
 70
    11
 71
     3
 72
   216
 73
   212
 74
     0
 42
0.0000000001
 43
0.0000000001
 12
1.0
 22
0.0
 32
0.0
 13
1.0
 23
0.0
 33
0.0
 40
0.0
 40
0.0
 40
0.0
 40
0.0
 40
0.0185185185185185
 40
0.0185185185185185
 40
0.0185185185185185
 40
0.0185185185185185
 40
0.037037037037037
 40
0.037037037037037
 40
0.037037037037037
 40
0.037037037037037
 40
0.0555555555555556
 40
0.0555555555555556
 40
0.0555555555555556
 40
0.0555555555555556
 40
0.0740740740740741
 40
0.0740740740740741
 40
0.0740740740740741
 40
0.0740740740740741
 40
0.0925925925925926
 40
0.0925925925925926
 40
0.0925925925925926
 40
0.0925925925925926
 40
0.1111111111111111
 40
0.1111111111111111
 40
0.1111111111111111
 40
0.1111111111111111
 40
0.1296296296296296
 40
0.1296296296296296
 40
0.1296296296296296
 40
0.1296296296296296
 40
0.1481481481481481
 40
0.1481481481481481
 40
0.1481481481481481
 40
0.1481481481481481
 40
0.1666666666666667
 40
0.1666666666666667
 40
0.1666666666666667
 40
0.1666666666666667
 40
0.1851851851851852
 40
0.1851851851851852
 40
0.1851851851851852
 40
0.1851851851851852
 40
0.2037037037037037
 40
0.2037037037037037
 40
0.2037037037037037
 40
0.2037037037037037
 40
0.2222222222222222
 40
0.2222222222222222
 40
0.2222222222222222
 40
0.2222222222222222
 40
0.2407407407407407
 40
0.2407407407407407
 40
0.2407407407407407
 40
0.2407407407407407
 40
0.2592592592592592
 40
0.2592592592592592
 40
0.2592592592592592
 40
0.2592592592592592
 40
0.2777777777777778
 40
0.2777777777777778
 40
0.2777777777777778
 40
0.2777777777777778
 40
0.2962962962962963
 40
0.2962962962962963
 40
0.2962962962962963
 40
0.2962962962962963
 40
0.3148148148148148
 40
0.3148148148148148
 40
0.3148148148148148
 40
0.3148148148148148
 40
0.3333333333333333
 40
0.3333333333333333
 40
0.3333333333333333
 40
0.3333333333333333
 40
0.3518518518518519
 40
0.3518518518518519
 40
0.3518518518518519
 40
0.3518518518518519
 40
0.3703703703703703
 40
0.3703703703703703
 40
0.3703703703703703
 40
0.3703703703703703
 40
0.3888888888888889
 40
0.3888888888888889
 40
0.3888888888888889
 40
0.3888888888888889
 40
0.4074074074074074
 40
0.4074074074074074
 40
0.4074074074074074
 40
0.4074074074074074
 40
0.4259259259259259
 40
0.4259259259259259
 40
0.4259259259259259
 40
0.4259259259259259
 40
0.4444444444444444
 40
0.4444444444444444
 40
0.4444444444444444
 40
0.4444444444444444
 40
0.462962962962963
 40
0.462962962962963
 40
0.462962962962963
 40
0.462962962962963
 40
0.4814814814814815
 40
0.4814814814814815
 40
0.4814814814814815
 40
0.4814814814814815
 40
0.5
 40
0.5
 40
0.5
 40
0.5
 40
0.5185185185185185
 40
0.5185185185185185
 40
0.5185185185185185
 40
0.5185185185185185
 40
0.5370370370370371
 40
0.5370370370370371
 40
0.5370370370370371
 40
0.5370370370370371
 40
0.5555555555555556
 40
0.5555555555555556
 40
0.5555555555555556
 40
0.5555555555555556
 40
0.5740740740740741
 40
0.5740740740740741
 40
0.5740740740740741
 40
0.5740740740740741
 40
0.5925925925925926
 40
0.5925925925925926
 40
0.5925925925925926
 40
0.5925925925925926
 40
0.6111111111111112
 40
0.6111111111111112
 40
0.6111111111111112
 40
0.6111111111111112
 40
0.6296296296296297
 40
0.6296296296296297
 40
0.6296296296296297
 40
0.6296296296296297
 40
0.6481481481481481
 40
0.6481481481481481
 40
0.6481481481481481
 40
0.6481481481481481
 40
0.6666666666666666
 40
0.6666666666666666
 40
0.6666666666666666
 40
0.6666666666666666
 40
0.6851851851851852
 40
0.6851851851851852
 40
0.6851851851851852
 40
0.6851851851851852
 40
0.7037037037037037
 40
0.7037037037037037
 40
0.7037037037037037
 40
0.7037037037037037
 40
0.7222222222222222
 40
0.7222222222222222
 40
0.7222222222222222
 40
0.7222222222222222
 40
0.7407407407407407
 40
0.7407407407407407
 40
0.7407407407407407
 40
0.7407407407407407
 40
0.7592592592592593
 40
0.7592592592592593
 40
0.7592592592592593
 40
0.7592592592592593
 40
0.7777777777777778
 40
0.7777777777777778
 40
0.7777777777777778
 40
0.7777777777777778
 40
0.7962962962962963
 40
0.7962962962962963
 40
0.7962962962962963
 40
0.7962962962962963
 40
0.8148148148148148
 40
0.8148148148148148
 40
0.8148148148148148
 40
0.8148148148148148
 40
0.8333333333333334
 40
0.8333333333333334
 40
0.8333333333333334
 40
0.8333333333333334
 40
0.8518518518518519
 40
0.8518518518518519
 40
0.8518518518518519
 40
0.8518518518518519
 40
0.8703703703703703
 40
0.8703703703703703
 40
0.8703703703703703
 40
0.8703703703703703
 40
0.8888888888888888
 40
0.8888888888888888
 40
0.8888888888888888
 40
0.8888888888888888
 40
0.9074074074074074
 40
0.9074074074074074
 40
0.9074074074074074
 40
0.9074074074074074
 40
0.9259259259259259
 40
0.9259259259259259
 40
0.9259259259259259
 40
0.9259259259259259
 40
0.9444444444444444
 40
0.9444444444444444
 40
0.9444444444444444
 40
0.9444444444444444
 40
0.9629629629629629
 40
0.9629629629629629
 40
0.9629629629629629
 40
0.9629629629629629
 40
1.0
 40
1.0
 40
1.0
 40
1.0
 10
-8.45017
 20
-8.9333
 30
0.0
 10
-8.4388
 20
-8.9717
 30
0.0
 10
-8.42364
 20
-9.03428
 30
0.0
 10
-8.41783
 20
-9.08853
 30
0.0
 10
-8.41783
 20
-9.08853
 30
0.0
 10
-8.4146
 20
-9.11863
 30
0.0
 10
-8.41396
 20
-9.1476
 30
0.0
 10
-8.41779
 20
-9.17123
 30
0.0
 10
-8.41779
 20
-9.17123
 30
0.0
 10
-8.424
 20
-9.20936
 30
0.0
 10
-8.44161
 20
-9.23701
 30
0.0
 10
-8.47566
 20
-9.2465
 30
0.0
 10
-8.47566
 20
-9.2465
 30
0.0
 10
-8.48709
 20
-9.24969
 30
0.0
 10
-8.49932
 20
-9.25012
 30
0.0
 10
-8.51239
 20
-9.24741
 30
0.0
 10
-8.51239
 20
-9.24741
 30
0.0
 10
-8.51239
 20
-9.24741
 30
0.0
 10
-8.51238
 20
-9.24737
 30
0.0
 10
-8.51238
 20
-9.24737
 30
0.0
 10
-8.51238
 20
-9.24737
 30
0.0
 10
-8.56481
 20
-9.23654
 30
0.0
 10
-8.63622
 20
-9.236
 30
0.0
 10
-8.6877
 20
-9.25579
 30
0.0
 10
-8.6877
 20
-9.25579
 30
0.0
 10
-8.70172
 20
-9.26118
 30
0.0
 10
-8.7138
 20
-9.2681
 30
0.0
 10
-8.72265
 20
-9.27671
 30
0.0
 10
-8.72265
 20
-9.27671
 30
0.0
 10
-8.72956
 20
-9.28343
 30
0.0
 10
-8.73442
 20
-9.29146
 30
0.0
 10
-8.73637
 20
-9.30089
 30
0.0
 10
-8.73637
 20
-9.30089
 30
0.0
 10
-8.73926
 20
-9.31488
 30
0.0
 10
-8.73711
 20
-9.33303
 30
0.0
 10
-8.72824
 20
-9.3561
 30
0.0
 10
-8.72824
 20
-9.3561
 30
0.0
 10
-8.71601
 20
-9.38793
 30
0.0
 10
-8.69505
 20
-9.42027
 30
0.0
 10
-8.67442
 20
-9.45213
 30
0.0
 10
-8.67442
 20
-9.45213
 30
0.0
 10
-8.66484
 20
-9.46691
 30
0.0
 10
-8.65532
 20
-9.48161
 30
0.0
 10
-8.64852
 20
-9.49287
 30
0.0
 10
-8.64852
 20
-9.49287
 30
0.0
 10
-8.6357
 20
-9.51406
 30
0.0
 10
-8.6234
 20
-9.53713
 30
0.0
 10
-8.61219
 20
-9.56155
 30
0.0
 10
-8.61219
 20
-9.56155
 30
0.0
 10
-8.60164
 20
-9.58452
 30
0.0
 10
-8.59252
 20
-9.60772
 30
0.0
 10
-8.5854
 20
-9.63055
 30
0.0
 10
-8.5854
 20
-9.63055
 30
0.0
 10
-8.5854
 20
-9.63055
 30
0.0
 10
-8.58547
 20
-9.63057
 30
0.0
 10
-8.58547
 20
-9.63057
 30
0.0
 10
-8.58547
 20
-9.63057
 30
0.0
 10
-8.58418
 20
-9.63471
 30
0.0
 10
-8.58342
 20
-9.63909
 30
0.0
 10
-8.58326
 20
-9.64363
 30
0.0
 10
-8.58326
 20
-9.64363
 30
0.0
 10
-8.58229
 20
-9.67113
 30
0.0
 10
-8.6038
 20
-9.69422
 30
0.0
 10
-8.6313
 20
-9.69519
 30
0.0
 10
-8.6313
 20
-9.69519
 30
0.0
 10
-8.77598
 20
-9.70065
 30
0.0
 10
-8.92358
 20
-9.6855
 30
0.0
 10
-9.06893
 20
-9.65765
 30
0.0
 10
-9.06893
 20
-9.65765
 30
0.0
 10
-9.21277
 20
-9.63009
 30
0.0
 10
-9.35532
 20
-9.58979
 30
0.0
 10
-9.49098
 20
-9.5447
 30
0.0
 10
-9.49098
 20
-9.5447
 30
0.0
 10
-9.52377
 20
-9.53381
 30
0.0
 10
-9.64185
 20
-9.52002
 30
0.0
 10
-9.72517
 20
-9.51126
 30
0.0
 10
-9.72517
 20
-9.51126
 30
0.0
 10
-9.71576
 20
-9.52998
 30
0.0
 10
-9.70609
 20
-9.54775
 30
0.0
 10
-9.69826
 20
-9.55903
 30
0.0
 10
-9.69826
 20
-9.55903
 30
0.0
 10
-9.69826
 20
-9.55903
 30
0.0
 10
-9.69668
 20
-9.56107
 30
0.0
 10
-9.69668
 20
-9.56107
 30
0.0
 10
-9.69668
 20
-9.56107
 30
0.0
 10
-9.67442
 20
-9.59153
 30
0.0
 10
-9.64982
 20
-9.61997
 30
0.0
 10
-9.62267
 20
-9.64709
 30
0.0
 10
-9.62267
 20
-9.64709
 30
0.0
 10
-9.59547
 20
-9.67426
 30
0.0
 10
-9.56504
 20
-9.70067
 30
0.0
 10
-9.53126
 20
-9.72693
 30
0.0
 10
-9.53126
 20
-9.72693
 30
0.0
 10
-9.53126
 20
-9.72693
 30
0.0
 10
-9.53129
 20
-9.72697
 30
0.0
 10
-9.53129
 20
-9.72697
 30
0.0
 10
-9.53129
 20
-9.72697
 30
0.0
 10
-9.5223
 20
-9.73395
 30
0.0
 10
-9.51563
 20
-9.74403
 30
0.0
 10
-9.51309
 20
-9.75603
 30
0.0
 10
-9.51309
 20
-9.75603
 30
0.0
 10
-9.50738
 20
-9.78299
 30
0.0
 10
-9.52461
 20
-9.8095
 30
0.0
 10
-9.55157
 20
-9.81521
 30
0.0
 10
-9.55157
 20
-9.81521
 30
0.0
 10
-9.63313
 20
-9.83256
 30
0.0
 10
-9.72288
 20
-9.8318
 30
0.0
 10
-9.81114
 20
-9.81945
 30
0.0
 10
-9.81114
 20
-9.81945
 30
0.0
 10
-9.91305
 20
-9.80518
 30
0.0
 10
-10.0138
 20
-9.77522
 30
0.0
 10
-10.0976
 20
-9.73997
 30
0.0
 10
-10.0976
 20
-9.73997
 30
0.0
 10
-10.1285
 20
-9.72698
 30
0.0
 10
-10.14051
 20
-9.72184
 30
0.0
 10
-10.15249
 20
-9.71673
 30
0.0
 10
-10.15249
 20
-9.71673
 30
0.0
 10
-10.21885
 20
-9.68839
 30
0.0
 10
-10.28526
 20
-9.66002
 30
0.0
 10
-10.35053
 20
-9.63742
 30
0.0
 10
-10.35053
 20
-9.63742
 30
0.0
 10
-10.35879
 20
-9.63456
 30
0.0
 10
-10.38493
 20
-9.62383
 30
0.0
 10
-10.41737
 20
-9.61012
 30
0.0
 10
-10.41737
 20
-9.61012
 30
0.0
 10
-10.41351
 20
-9.61542
 30
0.0
 10
-10.40976
 20
-9.62091
 30
0.0
 10
-10.40617
 20
-9.62662
 30
0.0
 10
-10.40617
 20
-9.62662
 30
0.0
 10
-10.39887
 20
-9.63649
 30
0.0
 10
-10.39516
 20
-9.64904
 30
0.0
 10
-10.39671
 20
-9.66219
 30
0.0
 10
-10.39671
 20
-9.66219
 30
0.0
 10
-10.39994
 20
-9.68958
 30
0.0
 10
-10.42479
 20
-9.70917
 30
0.0
 10
-10.45218
 20
-9.70594
 30
0.0
 10
-10.45218
 20
-9.70594
 30
0.0
 10
-10.53703
 20
-9.69563
 30
0.0
 10
-10.61845
 20
-9.68308
 30
0.0
 10
-10.70039
 20
-9.66468
 30
0.0
 10
-10.70039
 20
-9.66468
 30
0.0
 10
-10.7819
 20
-9.64638
 30
0.0
 10
-10.86296
 20
-9.6223
 30
0.0
 10
-10.94699
 20
-9.58888
 30
0.0
 10
-10.94699
 20
-9.58888
 30
0.0
 10
-10.96224
 20
-9.58283
 30
0.0
 10
-10.98391
 20
-9.57447
 30
0.0
 10
-11.00678
 20
-9.56565
 30
0.0
 10
-11.00678
 20
-9.56565
 30
0.0
 10
-11.08073
 20
-9.53715
 30
0.0
 10
-11.16799
 20
-9.50353
 30
0.0
 10
-11.25171
 20
-9.4623
 30
0.0
 10
-11.25171
 20
-9.4623
 30
0.0
 10
-11.36184
 20
-9.40809
 30
0.0
 10
-11.47546
 20
-9.34092
 30
0.0
 10
-11.5457
 20
-9.25495
 30
0.0
 10
-11.5457
 20
-9.25495
 30
0.0
 10
-11.61865
 20
-9.16566
 30
0.0
 10
-11.64565
 20
-9.05995
 30
0.0
 10
-11.58069
 20
-8.93407
 30
0.0
 10
-11.58069
 20
-8.93407
 30
0.0
 10
-11.59713
 20
-8.89665
 30
0.0
 10
-11.60894
 20
-8.85498
 30
0.0
 10
-11.61272
 20
-8.8138
 30
0.0
 10
-11.61272
 20
-8.8138
 30
0.0
 10
-11.6187
 20
-8.74867
 30
0.0
 10
-11.60517
 20
-8.6837
 30
0.0
 10
-11.56014
 20
-8.63446
 30
0.0
 10
-11.56014
 20
-8.63446
 30
0.0
 10
-11.37652
 20
-8.43376
 30
0.0
 10
-11.14484
 20
-8.5792
 30
0.0
 10
-10.95695
 20
-8.69716
 30
0.0
 10
-10.95695
 20
-8.69716
 30
0.0
 10
-10.90969
 20
-8.72683
 30
0.0
 10
-10.86549
 20
-8.75458
 30
0.0
 10
-10.82875
 20
-8.77219
 30
0.0
 10
-10.82875
 20
-8.77219
 30
0.0
 10
-10.73908
 20
-8.81518
 30
0.0
 10
-10.64934
 20
-8.85213
 30
0.0
 10
-10.5577
 20
-8.88133
 30
0.0
 10
-10.5577
 20
-8.88133
 30
0.0
 10
-10.46645
 20
-8.91042
 30
0.0
 10
-10.37303
 20
-8.93197
 30
0.0
 10
-10.27556
 20
-8.94432
 30
0.0
 10
-10.27556
 20
-8.94432
 30
0.0
 10
-10.03301
 20
-8.97505
 30
0.0
 10
-9.82334
 20
-8.9498
 30
0.0
 10
-9.62357
 20
-8.88694
 30
0.0
 10
-9.62357
 20
-8.88694
 30
0.0
 10
-9.42209
 20
-8.82355
 30
0.0
 10
-9.22935
 20
-8.72141
 30
0.0
 10
-9.02289
 20
-8.59958
 30
0.0
 10
-9.02289
 20
-8.59958
 30
0.0
 10
-8.99228
 20
-8.58152
 30
0.0
 10
-8.96527
 20
-8.56262
 30
0.0
 10
-8.93941
 20
-8.54452
 30
0.0
 10
-8.93941
 20
-8.54452
 30
0.0
 10
-8.83558
 20
-8.47183
 30
0.0
 10
-8.74689
 20
-8.40978
 30
0.0
 10
-8.60237
 20
-8.46699
 30
0.0
 10
-8.60237
 20
-8.46699
 30
0.0
 10
-8.5509
 20
-8.48736
 30
0.0
 10
-8.49061
 20
-8.55013
 30
0.0
 10
-8.44939
 20
-8.62112
 30
0.0
 10
-8.44939
 20
-8.62112
 30
0.0
 10
-8.41176
 20
-8.68593
 30
0.0
 10
-8.38806
 20
-8.76039
 30
0.0
 10
-8.39832
 20
-8.82011
 30
0.0
 10
-8.39832
 20
-8.82011
 30
0.0
 10
-8.40557
 20
-8.86232
 30
0.0
 10
-8.42448
 20
-8.89989
 30
0.0
 10
-8.45017
 20
-8.9333
 30
0.0
  0
SPLINE
  5
42
330
1F
100
AcDbEntity
  8
Layer 1
 62
     5
100
AcDbSpline
210
0.0
220
0.0
230
1.0
 70
    11
 71
     3
 72
   404
 73
   400
 74
     0
 42
0.0000000001
 43
0.0000000001
 12
1.0
 22
0.0
 32
0.0
 13
1.0
 23
0.0
 33
0.0
 40
0.0
 40
0.0
 40
0.0
 40
0.0
 40
0.0099009900990099
 40
0.0099009900990099
 40
0.0099009900990099
 40
0.0099009900990099
 40
0.0198019801980198
 40
0.0198019801980198
 40
0.0198019801980198
 40
0.0198019801980198
 40
0.0297029702970297
 40
0.0297029702970297
 40
0.0297029702970297
 40
0.0297029702970297
 40
0.0396039603960396
 40
0.0396039603960396
 40
0.0396039603960396
 40
0.0396039603960396
 40
0.0495049504950495
 40
0.0495049504950495
 40
0.0495049504950495
 40
0.0495049504950495
 40
0.0594059405940594
 40
0.0594059405940594
 40
0.0594059405940594
 40
0.0594059405940594
 40
0.0693069306930693
 40
0.0693069306930693
 40
0.0693069306930693
 40
0.0693069306930693
 40
0.0792079207920792
 40
0.0792079207920792
 40
0.0792079207920792
 40
0.0792079207920792
 40
0.0891089108910891
 40
0.0891089108910891
 40
0.0891089108910891
 40
0.0891089108910891
 40
0.099009900990099
 40
0.099009900990099
 40
0.099009900990099
 40
0.099009900990099
 40
0.1089108910891089
 40
0.1089108910891089
 40
0.1089108910891089
 40
0.1089108910891089
 40
0.1188118811881188
 40
0.1188118811881188
 40
0.1188118811881188
 40
0.1188118811881188
 40
0.1287128712871287
 40
0.1287128712871287
 40
0.1287128712871287
 40
0.1287128712871287
 40
0.1386138613861386
 40
0.1386138613861386
 40
0.1386138613861386
 40
0.1386138613861386
 40
0.1485148514851485
 40
0.1485148514851485
 40
0.1485148514851485
 40
0.1485148514851485
 40
0.1584158415841584
 40
0.1584158415841584
 40
0.1584158415841584
 40
0.1584158415841584
 40
0.1683168316831683
 40
0.1683168316831683
 40
0.1683168316831683
 40
0.1683168316831683
 40
0.1782178217821782
 40
0.1782178217821782
 40
0.1782178217821782
 40
0.1782178217821782
 40
0.1881188118811881
 40
0.1881188118811881
 40
0.1881188118811881
 40
0.1881188118811881
 40
0.198019801980198
 40
0.198019801980198
 40
0.198019801980198
 40
0.198019801980198
 40
0.2079207920792079
 40
0.2079207920792079
 40
0.2079207920792079
 40
0.2079207920792079
 40
0.2178217821782178
 40
0.2178217821782178
 40
0.2178217821782178
 40
0.2178217821782178
 40
0.2277227722772277
 40
0.2277227722772277
 40
0.2277227722772277
 40
0.2277227722772277
 40
0.2376237623762376
 40
0.2376237623762376
 40
0.2376237623762376
 40
0.2376237623762376
 40
0.2475247524752475
 40
0.2475247524752475
 40
0.2475247524752475
 40
0.2475247524752475
 40
0.2574257425742574
 40
0.2574257425742574
 40
0.2574257425742574
 40
0.2574257425742574
 40
0.2673267326732673
 40
0.2673267326732673
 40
0.2673267326732673
 40
0.2673267326732673
 40
0.2772277227722773
 40
0.2772277227722773
 40
0.2772277227722773
 40
0.2772277227722773
 40
0.2871287128712871
 40
0.2871287128712871
 40
0.2871287128712871
 40
0.2871287128712871
 40
0.297029702970297
 40
0.297029702970297
 40
0.297029702970297
 40
0.297029702970297
 40
0.3069306930693069
 40
0.3069306930693069
 40
0.3069306930693069
 40
0.3069306930693069
 40
0.3168316831683168
 40
0.3168316831683168
 40
0.3168316831683168
 40
0.3168316831683168
 40
0.3267326732673267
 40
0.3267326732673267
 40
0.3267326732673267
 40
0.3267326732673267
 40
0.3366336633663367
 40
0.3366336633663367
 40
0.3366336633663367
 40
0.3366336633663367
 40
0.3465346534653465
 40
0.3465346534653465
 40
0.3465346534653465
 40
0.3465346534653465
 40
0.3564356435643564
 40
0.3564356435643564
 40
0.3564356435643564
 40
0.3564356435643564
 40
0.3663366336633663
 40
0.3663366336633663
 40
0.3663366336633663
 40
0.3663366336633663
 40
0.3762376237623762
 40
0.3762376237623762
 40
0.3762376237623762
 40
0.3762376237623762
 40
0.3861386138613861
 40
0.3861386138613861
 40
0.3861386138613861
 40
0.3861386138613861
 40
0.3960396039603961
 40
0.3960396039603961
 40
0.3960396039603961
 40
0.3960396039603961
 40
0.405940594059406
 40
0.405940594059406
 40
0.405940594059406
 40
0.405940594059406
 40
0.4158415841584158
 40
0.4158415841584158
 40
0.4158415841584158
 40
0.4158415841584158
 40
0.4257425742574257
 40
0.4257425742574257
 40
0.4257425742574257
 40
0.4257425742574257
 40
0.4356435643564356
 40
0.4356435643564356
 40
0.4356435643564356
 40
0.4356435643564356
 40
0.4455445544554456
 40
0.4455445544554456
 40
0.4455445544554456
 40
0.4455445544554456
 40
0.4554455445544555
 40
0.4554455445544555
 40
0.4554455445544555
 40
0.4554455445544555
 40
0.4653465346534654
 40
0.4653465346534654
 40
0.4653465346534654
 40
0.4653465346534654
 40
0.4752475247524752
 40
0.4752475247524752
 40
0.4752475247524752
 40
0.4752475247524752
 40
0.4851485148514851
 40
0.4851485148514851
 40
0.4851485148514851
 40
0.4851485148514851
 40
0.495049504950495
 40
0.495049504950495
 40
0.495049504950495
 40
0.495049504950495
 40
0.504950495049505
 40
0.504950495049505
 40
0.504950495049505
 40
0.504950495049505
 40
0.5148514851485149
 40
0.5148514851485149
 40
0.5148514851485149
 40
0.5148514851485149
 40
0.5247524752475248
 40
0.5247524752475248
 40
0.5247524752475248
 40
0.5247524752475248
 40
0.5346534653465347
 40
0.5346534653465347
 40
0.5346534653465347
 40
0.5346534653465347
 40
0.5445544554455446
 40
0.5445544554455446
 40
0.5445544554455446
 40
0.5445544554455446
 40
0.5544554455445545
 40
0.5544554455445545
 40
0.5544554455445545
 40
0.5544554455445545
 40
0.5643564356435643
 40
0.5643564356435643
 40
0.5643564356435643
 40
0.5643564356435643
 40
0.5742574257425742
 40
0.5742574257425742
 40
0.5742574257425742
 40
0.5742574257425742
 40
0.5841584158415841
 40
0.5841584158415841
 40
0.5841584158415841
 40
0.5841584158415841
 40
0.594059405940594
 40
0.594059405940594
 40
0.594059405940594
 40
0.594059405940594
 40
0.6039603960396039
 40
0.6039603960396039
 40
0.6039603960396039
 40
0.6039603960396039
 40
0.6138613861386139
 40
0.6138613861386139
 40
0.6138613861386139
 40
0.6138613861386139
 40
0.6237623762376238
 40
0.6237623762376238
 40
0.6237623762376238
 40
0.6237623762376238
 40
0.6336633663366337
 40
0.6336633663366337
 40
0.6336633663366337
 40
0.6336633663366337
 40
0.6435643564356436
 40
0.6435643564356436
 40
0.6435643564356436
 40
0.6435643564356436
 40
0.6534653465346535
 40
0.6534653465346535
 40
0.6534653465346535
 40
0.6534653465346535
 40
0.6633663366336634
 40
0.6633663366336634
 40
0.6633663366336634
 40
0.6633663366336634
 40
0.6732673267326733
 40
0.6732673267326733
 40
0.6732673267326733
 40
0.6732673267326733
 40
0.6831683168316832
 40
0.6831683168316832
 40
0.6831683168316832
 40
0.6831683168316832
 40
0.693069306930693
 40
0.693069306930693
 40
0.693069306930693
 40
0.693069306930693
 40
0.7029702970297029
 40
0.7029702970297029
 40
0.7029702970297029
 40
0.7029702970297029
 40
0.7128712871287128
 40
0.7128712871287128
 40
0.7128712871287128
 40
0.7128712871287128
 40
0.7227722772277227
 40
0.7227722772277227
 40
0.7227722772277227
 40
0.7227722772277227
 40
0.7326732673267327
 40
0.7326732673267327
 40
0.7326732673267327
 40
0.7326732673267327
 40
0.7425742574257426
 40
0.7425742574257426
 40
0.7425742574257426
 40
0.7425742574257426
 40
0.7524752475247525
 40
0.7524752475247525
 40
0.7524752475247525
 40
0.7524752475247525
 40
0.7623762376237624
 40
0.7623762376237624
 40
0.7623762376237624
 40
0.7623762376237624
 40
0.7722772277227723
 40
0.7722772277227723
 40
0.7722772277227723
 40
0.7722772277227723
 40
0.7821782178217822
 40
0.7821782178217822
 40
0.7821782178217822
 40
0.7821782178217822
 40
0.7920792079207921
 40
0.7920792079207921
 40
0.7920792079207921
 40
0.7920792079207921
 40
0.801980198019802
 40
0.801980198019802
 40
0.801980198019802
 40
0.801980198019802
 40
0.8118811881188119
 40
0.8118811881188119
 40
0.8118811881188119
 40
0.8118811881188119
 40
0.8217821782178217
 40
0.8217821782178217
 40
0.8217821782178217
 40
0.8217821782178217
 40
0.8316831683168316
 40
0.8316831683168316
 40
0.8316831683168316
 40
0.8316831683168316
 40
0.8415841584158416
 40
0.8415841584158416
 40
0.8415841584158416
 40
0.8415841584158416
 40
0.8514851485148515
 40
0.8514851485148515
 40
0.8514851485148515
 40
0.8514851485148515
 40
0.8613861386138614
 40
0.8613861386138614
 40
0.8613861386138614
 40
0.8613861386138614
 40
0.8712871287128713
 40
0.8712871287128713
 40
0.8712871287128713
 40
0.8712871287128713
 40
0.8811881188118812
 40
0.8811881188118812
 40
0.8811881188118812
 40
0.8811881188118812
 40
0.8910891089108911
 40
0.8910891089108911
 40
0.8910891089108911
 40
0.8910891089108911
 40
0.900990099009901
 40
0.900990099009901
 40
0.900990099009901
 40
0.900990099009901
 40
0.9108910891089109
 40
0.9108910891089109
 40
0.9108910891089109
 40
0.9108910891089109
 40
0.9207920792079208
 40
0.9207920792079208
 40
0.9207920792079208
 40
0.9207920792079208
 40
0.9306930693069307
 40
0.9306930693069307
 40
0.9306930693069307
 40
0.9306930693069307
 40
0.9405940594059405
 40
0.9405940594059405
 40
0.9405940594059405
 40
0.9405940594059405
 40
0.9504950495049505
 40
0.9504950495049505
 40
0.9504950495049505
 40
0.9504950495049505
 40
0.9603960396039604
 40
0.9603960396039604
 40
0.9603960396039604
 40
0.9603960396039604
 40
0.9702970297029703
 40
0.9702970297029703
 40
0.9702970297029703
 40
0.9702970297029703
 40
0.9801980198019802
 40
0.9801980198019802
 40
0.9801980198019802
 40
0.9801980198019802
 40
1.0
 40
1.0
 40
1.0
 40
1.0
 10
-11.64078
 20
-12.70328
 30
0.0
 10
-11.64876
 20
-12.69122
 30
0.0
 10
-11.65695
 20
-12.67873
 30
0.0
 10
-11.66522
 20
-12.66596
 30
0.0
 10
-11.66522
 20
-12.66596
 30
0.0
 10
-11.67264
 20
-12.65452
 30
0.0
 10
-11.67779
 20
-12.64637
 30
0.0
 10
-11.67978
 20
-12.64281
 30
0.0
 10
-11.67978
 20
-12.64281
 30
0.0
 10
-11.70865
 20
-12.5915
 30
0.0
 10
-11.73475
 20
-12.53891
 30
0.0
 10
-11.75784
 20
-12.48529
 30
0.0
 10
-11.75784
 20
-12.48529
 30
0.0
 10
-11.78052
 20
-12.43262
 30
0.0
 10
-11.80061
 20
-12.37811
 30
0.0
 10
-11.81789
 20
-12.32193
 30
0.0
 10
-11.81789
 20
-12.32193
 30
0.0
 10
-11.83229
 20
-12.2751
 30
0.0
 10
-11.8476
 20
-12.22919
 30
0.0
 10
-11.86287
 20
-12.18341
 30
0.0
 10
-11.86287
 20
-12.18341
 30
0.0
 10
-11.86287
 20
-12.18341
 30
0.0
 10
-11.8636
 20
-12.18102
 30
0.0
 10
-11.8636
 20
-12.18102
 30
0.0
 10
-11.8636
 20
-12.18102
 30
0.0
 10
-11.92209
 20
-12.00555
 30
0.0
 10
-11.98
 20
-11.8311
 30
0.0
 10
-11.97992
 20
-11.63775
 30
0.0
 10
-11.97992
 20
-11.63775
 30
0.0
 10
-11.97987
 20
-11.52847
 30
0.0
 10
-11.97157
 20
-11.35418
 30
0.0
 10
-11.92908
 20
-11.20463
 30
0.0
 10
-11.92908
 20
-11.20463
 30
0.0
 10
-11.89862
 20
-11.09743
 30
0.0
 10
-11.85026
 20
-11.00162
 30
0.0
 10
-11.7745
 20
-10.94614
 30
0.0
 10
-11.7745
 20
-10.94614
 30
0.0
 10
-11.75363
 20
-10.93084
 30
0.0
 10
-11.72479
 20
-10.93417
 30
0.0
 10
-11.70788
 20
-10.95306
 30
0.0
 10
-11.70788
 20
-10.95306
 30
0.0
 10
-11.64153
 20
-11.02352
 30
0.0
 10
-11.6081
 20
-11.11476
 30
0.0
 10
-11.57453
 20
-11.20647
 30
0.0
 10
-11.57453
 20
-11.20647
 30
0.0
 10
-11.57453
 20
-11.20647
 30
0.0
 10
-11.57447
 20
-11.20645
 30
0.0
 10
-11.57447
 20
-11.20645
 30
0.0
 10
-11.57447
 20
-11.20645
 30
0.0
 10
-11.54897
 20
-11.2761
 30
0.0
 10
-11.52335
 20
-11.34607
 30
0.0
 10
-11.48329
 20
-11.40124
 30
0.0
 10
-11.48329
 20
-11.40124
 30
0.0
 10
-11.48249
 20
-11.35324
 30
0.0
 10
-11.47726
 20
-11.30647
 30
0.0
 10
-11.43212
 20
-11.27099
 30
0.0
 10
-11.43212
 20
-11.27099
 30
0.0
 10
-11.41253
 20
-11.25559
 30
0.0
 10
-11.385
 20
-11.25718
 30
0.0
 10
-11.3673
 20
-11.27363
 30
0.0
 10
-11.3673
 20
-11.27363
 30
0.0
 10
-11.2789
 20
-11.35252
 30
0.0
 10
-11.21499
 20
-11.4517
 30
0.0
 10
-11.15092
 20
-11.55111
 30
0.0
 10
-11.15092
 20
-11.55111
 30
0.0
 10
-11.08994
 20
-11.64573
 30
0.0
 10
-11.02878
 20
-11.74063
 30
0.0
 10
-10.94784
 20
-11.81233
 30
0.0
 10
-10.94784
 20
-11.81233
 30
0.0
 10
-10.94324
 20
-11.80432
 30
0.0
 10
-10.93827
 20
-11.79557
 30
0.0
 10
-10.93309
 20
-11.78644
 30
0.0
 10
-10.93309
 20
-11.78644
 30
0.0
 10
-10.92799
 20
-11.77746
 30
0.0
 10
-10.92271
 20
-11.76816
 30
0.0
 10
-10.9173
 20
-11.75874
 30
0.0
 10
-10.9173
 20
-11.75874
 30
0.0
 10
-10.93279
 20
-11.7609
 30
0.0
 10
-10.94745
 20
-11.7554
 30
0.0
 10
-10.96115
 20
-11.74086
 30
0.0
 10
-10.96115
 20
-11.74086
 30
0.0
 10
-10.96756
 20
-11.73406
 30
0.0
 10
-10.97467
 20
-11.72227
 30
0.0
 10
-10.98236
 20
-11.70372
 30
0.0
 10
-10.98236
 20
-11.70372
 30
0.0
 10
-10.98592
 20
-11.69685
 30
0.0
 10
-10.98793
 20
-11.68904
 30
0.0
 10
-10.98793
 20
-11.68077
 30
0.0
 10
-10.98793
 20
-11.68077
 30
0.0
 10
-10.98793
 20
-11.65316
 30
0.0
 10
-10.96554
 20
-11.63077
 30
0.0
 10
-10.93793
 20
-11.63077
 30
0.0
 10
-10.93793
 20
-11.63077
 30
0.0
 10
-10.93793
 20
-11.63077
 30
0.0
 10
-10.92905
 20
-11.63071
 30
0.0
 10
-10.92905
 20
-11.63071
 30
0.0
 10
-10.92905
 20
-11.63071
 30
0.0
 10
-10.92905
 20
-11.63071
 30
0.0
 10
-10.92663
 20
-11.63027
 30
0.0
 10
-10.92663
 20
-11.63027
 30
0.0
 10
-10.92663
 20
-11.63027
 30
0.0
 10
-10.90951
 20
-11.62569
 30
0.0
 10
-10.89207
 20
-11.61448
 30
0.0
 10
-10.87554
 20
-11.60061
 30
0.0
 10
-10.87554
 20
-11.60061
 30
0.0
 10
-10.85556
 20
-11.58384
 30
0.0
 10
-10.83706
 20
-11.56309
 30
0.0
 10
-10.82133
 20
-11.54428
 30
0.0
 10
-10.82133
 20
-11.54428
 30
0.0
 10
-10.79218
 20
-11.50946
 30
0.0
 10
-10.76658
 20
-11.47324
 30
0.0
 10
-10.74124
 20
-11.43736
 30
0.0
 10
-10.74124
 20
-11.43736
 30
0.0
 10
-10.69632
 20
-11.37376
 30
0.0
 10
-10.65206
 20
-11.3111
 30
0.0
 10
-10.58702
 20
-11.25277
 30
0.0
 10
-10.58702
 20
-11.25277
 30
0.0
 10
-10.51291
 20
-11.18631
 30
0.0
 10
-10.4302
 20
-11.1301
 30
0.0
 10
-10.34007
 20
-11.09155
 30
0.0
 10
-10.34007
 20
-11.09155
 30
0.0
 10
-10.25796
 20
-11.05644
 30
0.0
 10
-10.16958
 20
-11.03591
 30
0.0
 10
-10.0758
 20
-11.03553
 30
0.0
 10
-10.0758
 20
-11.03553
 30
0.0
 10
-9.97768
 20
-11.03512
 30
0.0
 10
-9.86241
 20
-11.05614
 30
0.0
 10
-9.75548
 20
-11.09412
 30
0.0
 10
-9.75548
 20
-11.09412
 30
0.0
 10
-9.65485
 20
-11.12986
 30
0.0
 10
-9.56032
 20
-11.18095
 30
0.0
 10
-9.49228
 20
-11.24382
 30
0.0
 10
-9.49228
 20
-11.24382
 30
0.0
 10
-9.45113
 20
-11.28185
 30
0.0
 10
-9.41151
 20
-11.33273
 30
0.0
 10
-9.37018
 20
-11.3858
 30
0.0
 10
-9.37018
 20
-11.3858
 30
0.0
 10
-9.31249
 20
-11.45988
 30
0.0
 10
-9.25111
 20
-11.53869
 30
0.0
 10
-9.18401
 20
-11.58185
 30
0.0
 10
-9.18401
 20
-11.58185
 30
0.0
 10
-9.17585
 20
-11.56963
 30
0.0
 10
-9.16756
 20
-11.55757
 30
0.0
 10
-9.15922
 20
-11.54544
 30
0.0
 10
-9.15922
 20
-11.54544
 30
0.0
 10
-9.12239
 20
-11.49188
 30
0.0
 10
-9.08433
 20
-11.43653
 30
0.0
 10
-9.06822
 20
-11.38286
 30
0.0
 10
-9.06822
 20
-11.38286
 30
0.0
 10
-9.06035
 20
-11.35644
 30
0.0
 10
-9.03253
 20
-11.3414
 30
0.0
 10
-9.00611
 20
-11.34927
 30
0.0
 10
-9.00611
 20
-11.34927
 30
0.0
 10
-8.9969
 20
-11.35201
 30
0.0
 10
-8.98907
 20
-11.35718
 30
0.0
 10
-8.98312
 20
-11.36387
 30
0.0
 10
-8.98312
 20
-11.36387
 30
0.0
 10
-8.94543
 20
-11.40185
 30
0.0
 10
-8.91086
 20
-11.43998
 30
0.0
 10
-8.87922
 20
-11.48074
 30
0.0
 10
-8.87922
 20
-11.48074
 30
0.0
 10
-8.86488
 20
-11.49921
 30
0.0
 10
-8.85118
 20
-11.51818
 30
0.0
 10
-8.83812
 20
-11.53784
 30
0.0
 10
-8.83812
 20
-11.53784
 30
0.0
 10
-8.81605
 20
-11.50054
 30
0.0
 10
-8.78944
 20
-11.46479
 30
0.0
 10
-8.76385
 20
-11.43043
 30
0.0
 10
-8.76385
 20
-11.43043
 30
0.0
 10
-8.74759
 20
-11.40858
 30
0.0
 10
-8.73176
 20
-11.38733
 30
0.0
 10
-8.71804
 20
-11.36664
 30
0.0
 10
-8.71804
 20
-11.36664
 30
0.0
 10
-8.71075
 20
-11.35565
 30
0.0
 10
-8.70406
 20
-11.34425
 30
0.0
 10
-8.69714
 20
-11.33245
 30
0.0
 10
-8.69714
 20
-11.33245
 30
0.0
 10
-8.67343
 20
-11.292
 30
0.0
 10
-8.64743
 20
-11.24769
 30
0.0
 10
-8.60887
 20
-11.22233
 30
0.0
 10
-8.60887
 20
-11.22233
 30
0.0
 10
-8.58899
 20
-11.20927
 30
0.0
 10
-8.56318
 20
-11.21229
 30
0.0
 10
-8.54681
 20
-11.22824
 30
0.0
 10
-8.54681
 20
-11.22824
 30
0.0
 10
-8.54681
 20
-11.22824
 30
0.0
 10
-8.54676
 20
-11.22819
 30
0.0
 10
-8.54676
 20
-11.22819
 30
0.0
 10
-8.54676
 20
-11.22819
 30
0.0
 10
-8.5168
 20
-11.25743
 30
0.0
 10
-8.4866
 20
-11.29851
 30
0.0
 10
-8.46204
 20
-11.34171
 30
0.0
 10
-8.46204
 20
-11.34171
 30
0.0
 10
-8.45571
 20
-11.35283
 30
0.0
 10
-8.44971
 20
-11.36418
 30
0.0
 10
-8.44415
 20
-11.37558
 30
0.0
 10
-8.44415
 20
-11.37558
 30
0.0
 10
-8.43117
 20
-11.35605
 30
0.0
 10
-8.41832
 20
-11.33603
 30
0.0
 10
-8.40548
 20
-11.31602
 30
0.0
 10
-8.40548
 20
-11.31602
 30
0.0
 10
-8.36691
 20
-11.25593
 30
0.0
 10
-8.32843
 20
-11.19597
 30
0.0
 10
-8.28254
 20
-11.14358
 30
0.0
 10
-8.28254
 20
-11.14358
 30
0.0
 10
-8.26442
 20
-11.12287
 30
0.0
 10
-8.23294
 20
-11.12077
 30
0.0
 10
-8.21223
 20
-11.13889
 30
0.0
 10
-8.21223
 20
-11.13889
 30
0.0
 10
-8.211
 20
-11.13996
 30
0.0
 10
-8.20984
 20
-11.14108
 30
0.0
 10
-8.20875
 20
-11.14225
 30
0.0
 10
-8.20875
 20
-11.14225
 30
0.0
 10
-8.20875
 20
-11.14225
 30
0.0
 10
-8.20871
 20
-11.14221
 30
0.0
 10
-8.20871
 20
-11.14221
 30
0.0
 10
-8.20871
 20
-11.14221
 30
0.0
 10
-8.12569
 20
-11.23044
 30
0.0
 10
-8.078
 20
-11.32457
 30
0.0
 10
-8.05297
 20
-11.4268
 30
0.0
 10
-8.05297
 20
-11.4268
 30
0.0
 10
-8.02855
 20
-11.52659
 30
0.0
 10
-8.02626
 20
-11.63262
 30
0.0
 10
-8.0337
 20
-11.7479
 30
0.0
 10
-8.0337
 20
-11.7479
 30
0.0
 10
-8.03877
 20
-11.82658
 30
0.0
 10
-8.04841
 20
-11.90036
 30
0.0
 10
-8.06395
 20
-11.9728
 30
0.0
 10
-8.06395
 20
-11.9728
 30
0.0
 10
-8.07957
 20
-12.04559
 30
0.0
 10
-8.10113
 20
-12.11704
 30
0.0
 10
-8.12996
 20
-12.19071
 30
0.0
 10
-8.12996
 20
-12.19071
 30
0.0
 10
-8.15013
 20
-12.24225
 30
0.0
 10
-8.17491
 20
-12.29272
 30
0.0
 10
-8.19967
 20
-12.34316
 30
0.0
 10
-8.19967
 20
-12.34316
 30
0.0
 10
-8.22828
 20
-12.40144
 30
0.0
 10
-8.25691
 20
-12.45973
 30
0.0
 10
-8.27758
 20
-12.51949
 30
0.0
 10
-8.27758
 20
-12.51949
 30
0.0
 10
-8.28357
 20
-12.53684
 30
0.0
 10
-8.30135
 20
-12.56853
 30
0.0
 10
-8.32147
 20
-12.60438
 30
0.0
 10
-8.32147
 20
-12.60438
 30
0.0
 10
-8.34858
 20
-12.65269
 30
0.0
 10
-8.39081
 20
-12.69014
 30
0.0
 10
-8.38598
 20
-12.70042
 30
0.0
 10
-8.38598
 20
-12.70042
 30
0.0
 10
-8.37434
 20
-12.72533
 30
0.0
 10
-8.3851
 20
-12.75499
 30
0.0
 10
-8.41001
 20
-12.76663
 30
0.0
 10
-8.41001
 20
-12.76663
 30
0.0
 10
-8.43407
 20
-12.77787
 30
0.0
 10
-8.46256
 20
-12.76822
 30
0.0
 10
-8.47497
 20
-12.7451
 30
0.0
 10
-8.47497
 20
-12.7451
 30
0.0
 10
-8.47497
 20
-12.7451
 30
0.0
 10
-8.47505
 20
-12.74514
 30
0.0
 10
-8.47505
 20
-12.74514
 30
0.0
 10
-8.47505
 20
-12.74514
 30
0.0
 10
-8.50178
 20
-12.69554
 30
0.0
 10
-8.51692
 20
-12.63945
 30
0.0
 10
-8.53227
 20
-12.58252
 30
0.0
 10
-8.53227
 20
-12.58252
 30
0.0
 10
-8.53957
 20
-12.55543
 30
0.0
 10
-8.54695
 20
-12.52811
 30
0.0
 10
-8.55559
 20
-12.502
 30
0.0
 10
-8.55559
 20
-12.502
 30
0.0
 10
-8.58785
 20
-12.64207
 30
0.0
 10
-8.63171
 20
-12.79395
 30
0.0
 10
-8.70044
 20
-12.92695
 30
0.0
 10
-8.70044
 20
-12.92695
 30
0.0
 10
-8.79605
 20
-13.11198
 30
0.0
 10
-8.93851
 20
-13.25995
 30
0.0
 10
-9.16135
 20
-13.29256
 30
0.0
 10
-9.16135
 20
-13.29256
 30
0.0
 10
-9.18863
 20
-13.29655
 30
0.0
 10
-9.214
 20
-13.27766
 30
0.0
 10
-9.21799
 20
-13.25038
 30
0.0
 10
-9.21799
 20
-13.25038
 30
0.0
 10
-9.21899
 20
-13.24354
 30
0.0
 10
-9.21855
 20
-13.23682
 30
0.0
 10
-9.2169
 20
-13.23052
 30
0.0
 10
-9.2169
 20
-13.23052
 30
0.0
 10
-9.203
 20
-13.17122
 30
0.0
 10
-9.19211
 20
-13.11711
 30
0.0
 10
-9.18124
 20
-13.06301
 30
0.0
 10
-9.18124
 20
-13.06301
 30
0.0
 10
-9.18124
 20
-13.06301
 30
0.0
 10
-9.18115
 20
-13.06255
 30
0.0
 10
-9.18115
 20
-13.06255
 30
0.0
 10
-9.18115
 20
-13.06255
 30
0.0
 10
-9.28131
 20
-13.23002
 30
0.0
 10
-9.39019
 20
-13.39722
 30
0.0
 10
-9.61444
 20
-13.3976
 30
0.0
 10
-9.61444
 20
-13.3976
 30
0.0
 10
-9.64116
 20
-13.3976
 30
0.0
 10
-9.66296
 20
-13.37655
 30
0.0
 10
-9.66419
 20
-13.35014
 30
0.0
 10
-9.66419
 20
-13.35014
 30
0.0
 10
-9.66419
 20
-13.35014
 30
0.0
 10
-9.66424
 20
-13.35014
 30
0.0
 10
-9.66424
 20
-13.35014
 30
0.0
 10
-9.66424
 20
-13.35014
 30
0.0
 10
-9.66546
 20
-13.32489
 30
0.0
 10
-9.66617
 20
-13.29624
 30
0.0
 10
-9.66687
 20
-13.26693
 30
0.0
 10
-9.66687
 20
-13.26693
 30
0.0
 10
-9.66977
 20
-13.14753
 30
0.0
 10
-9.67299
 20
-13.01624
 30
0.0
 10
-9.72624
 20
-12.91804
 30
0.0
 10
-9.72624
 20
-12.91804
 30
0.0
 10
-9.77063
 20
-12.97799
 30
0.0
 10
-9.80117
 20
-13.05046
 30
0.0
 10
-9.83175
 20
-13.12306
 30
0.0
 10
-9.83175
 20
-13.12306
 30
0.0
 10
-9.87349
 20
-13.22215
 30
0.0
 10
-9.91535
 20
-13.32151
 30
0.0
 10
-9.9933
 20
-13.40173
 30
0.0
 10
-9.9933
 20
-13.40173
 30
0.0
 10
-10.01126
 20
-13.42019
 30
0.0
 10
-10.04006
 20
-13.42175
 30
0.0
 10
-10.05986
 20
-13.40616
 30
0.0
 10
-10.05986
 20
-13.40616
 30
0.0
 10
-10.05986
 20
-13.40616
 30
0.0
 10
-10.0599
 20
-13.40622
 30
0.0
 10
-10.0599
 20
-13.40622
 30
0.0
 10
-10.0599
 20
-13.40622
 30
0.0
 10
-10.14919
 20
-13.33608
 30
0.0
 10
-10.22184
 20
-13.25289
 30
0.0
 10
-10.29452
 20
-13.16965
 30
0.0
 10
-10.29452
 20
-13.16965
 30
0.0
 10
-10.35996
 20
-13.0947
 30
0.0
 10
-10.42547
 20
-13.0197
 30
0.0
 10
-10.50261
 20
-12.95654
 30
0.0
 10
-10.50261
 20
-12.95654
 30
0.0
 10
-10.49969
 20
-13.0129
 30
0.0
 10
-10.49281
 20
-13.06964
 30
0.0
 10
-10.48593
 20
-13.12632
 30
0.0
 10
-10.48593
 20
-13.12632
 30
0.0
 10
-10.47579
 20
-13.2098
 30
0.0
 10
-10.46566
 20
-13.2932
 30
0.0
 10
-10.46761
 20
-13.38075
 30
0.0
 10
-10.46761
 20
-13.38075
 30
0.0
 10
-10.46815
 20
-13.40825
 30
0.0
 10
-10.49089
 20
-13.43011
 30
0.0
 10
-10.51839
 20
-13.42957
 30
0.0
 10
-10.51839
 20
-13.42957
 30
0.0
 10
-10.52626
 20
-13.42942
 30
0.0
 10
-10.53368
 20
-13.42744
 30
0.0
 10
-10.54023
 20
-13.42405
 30
0.0
 10
-10.54023
 20
-13.42405
 30
0.0
 10
-10.54023
 20
-13.42405
 30
0.0
 10
-10.54026
 20
-13.42411
 30
0.0
 10
-10.54026
 20
-13.42411
 30
0.0
 10
-10.54026
 20
-13.42411
 30
0.0
 10
-10.70388
 20
-13.33991
 30
0.0
 10
-10.86695
 20
-13.2047
 30
0.0
 10
-11.01303
 20
-13.05025
 30
0.0
 10
-11.01303
 20
-13.05025
 30
0.0
 10
-11.14218
 20
-12.9137
 30
0.0
 10
-11.25829
 20
-12.76184
 30
0.0
 10
-11.34981
 20
-12.61695
 30
0.0
 10
-11.34981
 20
-12.61695
 30
0.0
 10
-11.34965
 20
-12.62848
 30
0.0
 10
-11.34934
 20
-12.64009
 30
0.0
 10
-11.34903
 20
-12.6517
 30
0.0
 10
-11.34903
 20
-12.6517
 30
0.0
 10
-11.34638
 20
-12.75136
 30
0.0
 10
-11.34376
 20
-12.85043
 30
0.0
 10
-11.41803
 20
-12.92623
 30
0.0
 10
-11.41803
 20
-12.92623
 30
0.0
 10
-11.42076
 20
-12.92901
 30
0.0
 10
-11.42372
 20
-12.93139
 30
0.0
 10
-11.42688
 20
-12.93339
 30
0.0
 10
-11.42688
 20
-12.93339
 30
0.0
 10
-11.44903
 20
-12.94859
 30
0.0
 10
-11.46746
 20
-12.94621
 30
0.0
 10
-11.48458
 20
-12.93032
 30
0.0
 10
-11.48458
 20
-12.93032
 30
0.0
 10
-11.48595
 20
-12.92923
 30
0.0
 10
-11.48727
 20
-12.92807
 30
0.0
 10
-11.48854
 20
-12.92682
 30
0.0
 10
-11.48854
 20
-12.92682
 30
0.0
 10
-11.49135
 20
-12.92406
 30
0.0
 10
-11.49376
 20
-12.92105
 30
0.0
 10
-11.49577
 20
-12.91786
 30
0.0
 10
-11.49577
 20
-12.91786
 30
0.0
 10
-11.49722
 20
-12.91598
 30
0.0
 10
-11.49866
 20
-12.91401
 30
0.0
 10
-11.50009
 20
-12.91194
 30
0.0
 10
-11.50009
 20
-12.91194
 30
0.0
 10
-11.5059
 20
-12.90357
 30
0.0
 10
-11.5109
 20
-12.89632
 30
0.0
 10
-11.51474
 20
-12.89069
 30
0.0
 10
-11.51474
 20
-12.89069
 30
0.0
 10
-11.54476
 20
-12.84671
 30
0.0
 10
-11.60233
 20
-12.76136
 30
0.0
 10
-11.64078
 20
-12.70328
 30
0.0
  0
SPLINE
  5
43
330
1F
100
AcDbEntity
  8
Layer 1
 62
     5
100
AcDbSpline
210
0.0
220
0.0
230
1.0
 70
    11
 71
     3
 72
    20
 73
    16
 74
     0
 42
0.0000000001
 43
0.0000000001
 12
1.0
 22
0.0
 32
0.0
 13
1.0
 23
0.0
 33
0.0
 40
0.0
 40
0.0
 40
0.0
 40
0.0
 40
0.2
 40
0.2
 40
0.2
 40
0.2
 40
0.4
 40
0.4
 40
0.4
 40
0.4
 40
0.6
 40
0.6
 40
0.6
 40
0.6
 40
1.0
 40
1.0
 40
1.0
 40
1.0
 10
-10.8808
 20
-9.87907
 30
0.0
 10
-10.52182
 20
-9.87907
 30
0.0
 10
-10.2308
 20
-10.16722
 30
0.0
 10
-10.2308
 20
-10.52267
 30
0.0
 10
-10.2308
 20
-10.52267
 30
0.0
 10
-10.2308
 20
-10.87812
 30
0.0
 10
-10.52182
 20
-11.16627
 30
0.0
 10
-10.8808
 20
-11.16627
 30
0.0
 10
-10.8808
 20
-11.16627
 30
0.0
 10
-11.23978
 20
-11.16627
 30
0.0
 10
-11.5308
 20
-10.87812
 30
0.0
 10
-11.5308
 20
-10.52267
 30
0.0
 10
-11.5308
 20
-10.52267
 30
0.0
 10
-11.5308
 20
-10.16722
 30
0.0
 10
-11.23978
 20
-9.87907
 30
0.0
 10
-10.8808
 20
-9.87907
 30
0.0
  0
SPLINE
  5
44
330
1F
100
AcDbEntity
  8
Layer 1
 62
     5
100
AcDbSpline
210
0.0
220
0.0
230
1.0
 70
    11
 71
     3
 72
    20
 73
    16
 74
     0
 42
0.0000000001
 43
0.0000000001
 12
1.0
 22
0.0
 32
0.0
 13
1.0
 23
0.0
 33
0.0
 40
0.0
 40
0.0
 40
0.0
 40
0.0
 40
0.2
 40
0.2
 40
0.2
 40
0.2
 40
0.4
 40
0.4
 40
0.4
 40
0.4
 40
0.6
 40
0.6
 40
0.6
 40
0.6
 40
1.0
 40
1.0
 40
1.0
 40
1.0
 10
-10.852
 20
-10.44215
 30
0.0
 10
-10.78347
 20
-10.44215
 30
0.0
 10
-10.72792
 20
-10.49597
 30
0.0
 10
-10.72792
 20
-10.56235
 30
0.0
 10
-10.72792
 20
-10.56235
 30
0.0
 10
-10.72792
 20
-10.62873
 30
0.0
 10
-10.78347
 20
-10.68255
 30
0.0
 10
-10.852
 20
-10.68255
 30
0.0
 10
-10.852
 20
-10.68255
 30
0.0
 10
-10.92053
 20
-10.68255
 30
0.0
 10
-10.97608
 20
-10.62873
 30
0.0
 10
-10.97608
 20
-10.56235
 30
0.0
 10
-10.97608
 20
-10.56235
 30
0.0
 10
-10.97608
 20
-10.49597
 30
0.0
 10
-10.92053
 20
-10.44215
 30
0.0
 10
-10.852
 20
-10.44215
 30
0.0
  0
SPLINE
  5
45
330
1F
100
AcDbEntity
  8
Layer 1
 62
     5
100
AcDbSpline
210
0.0
220
0.0
230
1.0
 70
    11
 71
     3
 72
    20
 73
    16
 74
     0
 42
0.0000000001
 43
0.0000000001
 12
1.0
 22
0.0
 32
0.0
 13
1.0
 23
0.0
 33
0.0
 40
0.0
 40
0.0
 40
0.0
 40
0.0
 40
0.2
 40
0.2
 40
0.2
 40
0.2
 40
0.4
 40
0.4
 40
0.4
 40
0.4
 40
0.6
 40
0.6
 40
0.6
 40
0.6
 40
1.0
 40
1.0
 40
1.0
 40
1.0
 10
-9.15531
 20
-9.87907
 30
0.0
 10
-9.51429
 20
-9.87907
 30
0.0
 10
-9.80531
 20
-10.16722
 30
0.0
 10
-9.80531
 20
-10.52267
 30
0.0
 10
-9.80531
 20
-10.52267
 30
0.0
 10
-9.80531
 20
-10.87812
 30
0.0
 10
-9.51429
 20
-11.16627
 30
0.0
 10
-9.15531
 20
-11.16627
 30
0.0
 10
-9.15531
 20
-11.16627
 30
0.0
 10
-8.79633
 20
-11.16627
 30
0.0
 10
-8.50531
 20
-10.87812
 30
0.0
 10
-8.50531
 20
-10.52267
 30
0.0
 10
-8.50531
 20
-10.52267
 30
0.0
 10
-8.50531
 20
-10.16722
 30
0.0
 10
-8.79633
 20
-9.87907
 30
0.0
 10
-9.15531
 20
-9.87907
 30
0.0
  0
SPLINE
  5
46
330
1F
100
AcDbEntity
  8
Layer 1
 62
     5
100
AcDbSpline
210
0.0
220
0.0
230
1.0
 70
    11
 71
     3
 72
    20
 73
    16
 74
     0
 42
0.0000000001
 43
0.0000000001
 12
1.0
 22
0.0
 32
0.0
 13
1.0
 23
0.0
 33
0.0
 40
0.0
 40
0.0
 40
0.0
 40
0.0
 40
0.2
 40
0.2
 40
0.2
 40
0.2
 40
0.4
 40
0.4
 40
0.4
 40
0.4
 40
0.6
 40
0.6
 40
0.6
 40
0.6
 40
1.0
 40
1.0
 40
1.0
 40
1.0
 10
-9.15732
 20
-10.43887
 30
0.0
 10
-9.08879
 20
-10.43887
 30
0.0
 10
-9.03324
 20
-10.49268
 30
0.0
 10
-9.03324
 20
-10.55906
 30
0.0
 10
-9.03324
 20
-10.55906
 30
0.0
 10
-9.03324
 20
-10.62545
 30
0.0
 10
-9.08879
 20
-10.67926
 30
0.0
 10
-9.15732
 20
-10.67926
 30
0.0
 10
-9.15732
 20
-10.67926
 30
0.0
 10
-9.22585
 20
-10.67926
 30
0.0
 10
-9.2814
 20
-10.62545
 30
0.0
 10
-9.2814
 20
-10.55906
 30
0.0
 10
-9.2814
 20
-10.55906
 30
0.0
 10
-9.2814
 20
-10.49268
 30
0.0
 10
-9.22585
 20
-10.43887
 30
0.0
 10
-9.15732
 20
-10.43887
 30
0.0
  0
ENDSEC
  0
SECTION
  2
OBJECTS
  0
DICTIONARY
  5
C
330
0
100
AcDbDictionary
281
     1
  3
ACAD_GROUP
350
D
  3
ACAD_LAYOUT
350
1A
  3
ACAD_MATERIAL
350
3B
  3
ACAD_MLEADERSTYLE
350
68
  3
ACAD_MLINESTYLE
350
17
  3
ACAD_PLOTSETTINGS
350
19
  3
ACAD_PLOTSTYLENAME
350
E
  3
ACAD_TABLESTYLE
350
67
  3
ACAD_VISUALSTYLE
350
2A
  0
DICTIONARY
  5
D
102
{ACAD_REACTORS
330
C
102
}
330
C
100
AcDbDictionary
281
     1
  0
DICTIONARY
  5
1A
102
{ACAD_REACTORS
330
C
102
}
330
C
100
AcDbDictionary
281
     1
  3
Layout1
350
1E
  3
Layout2
350
26
  3
Model
350
22
  0
DICTIONARY
  5
3B
102
{ACAD_REACTORS
330
C
102
}
330
C
100
AcDbDictionary
281
     1
  3
ByBlock
350
3D
  3
ByLayer
350
3C
  3
Global
350
3E
  0
DICTIONARY
  5
68
102
{ACAD_REACTORS
330
C
102
}
330
C
100
AcDbDictionary
281
     1
  0
DICTIONARY
  5
17
102
{ACAD_REACTORS
330
C
102
}
330
C
100
AcDbDictionary
281
     1
  3
Standard
350
18
  0
DICTIONARY
  5
19
102
{ACAD_REACTORS
330
C
102
}
330
C
100
AcDbDictionary
281
     1
  0
ACDBDICTIONARYWDFLT
  5
E
102
{ACAD_REACTORS
330
C
102
}
330
C
100
AcDbDictionary
281
     1
  3
Normal
350
F
100
AcDbDictionaryWithDefault
340
F
  0
DICTIONARY
  5
67
102
{ACAD_REACTORS
330
C
102
}
330
C
100
AcDbDictionary
281
     1
  0
DICTIONARY
  5
2A
102
{ACAD_REACTORS
330
C
102
}
330
C
100
AcDbDictionary
281
     1
  3
2dWireframe
350
2F
  3
3D Hidden
350
31
  3
3dWireframe
350
30
  3
Basic
350
32
  3
Brighten
350
36
  3
ColorChange
350
3A
  3
Conceptual
350
34
  3
Dim
350
35
  3
Facepattern
350
39
  3
Flat
350
2B
  3
FlatWithEdges
350
2C
  3
Gouraud
350
2D
  3
GouraudWithEdges
350
2E
  3
Linepattern
350
38
  3
Realistic
350
33
  3
Thicken
350
37
  0
LAYOUT
  5
1E
102
{ACAD_REACTORS
330
1A
102
}
330
1A
100
AcDbPlotSettings
  1

  2
none_device
  4

  6

 40
0.0
 41
0.0
 42
0.0
 43
0.0
 44
0.0
 45
0.0
 46
0.0
 47
0.0
 48
0.0
 49
0.0
140
0.0
141
0.0
142
1.0
143
1.0
 70
   688
 72
     0
 73
     0
 74
     5
  7

 75
    16
 76
     0
 77
     2
 78
   300
147
1.0
148
0.0
149
0.0
100
AcDbLayout
  1
Layout1
 70
     1
 71
     1
 10
0.0
 20
0.0
 11
12.0
 21
9.0
 12
0.0
 22
0.0
 32
0.0
 14
1.000000000000000E+20
 24
1.000000000000000E+20
 34
1.000000000000000E+20
 15
-1.000000000000000E+20
 25
-1.000000000000000E+20
 35
-1.000000000000000E+20
146
0.0
 13
0.0
 23
0.0
 33
0.0
 16
1.0
 26
0.0
 36
0.0
 17
0.0
 27
1.0
 37
0.0
 76
     0
330
1B
  0
LAYOUT
  5
26
102
{ACAD_REACTORS
330
1A
102
}
330
1A
100
AcDbPlotSettings
  1

  2
none_device
  4

  6

 40
0.0
 41
0.0
 42
0.0
 43
0.0
 44
0.0
 45
0.0
 46
0.0
 47
0.0
 48
0.0
 49
0.0
140
0.0
141
0.0
142
1.0
143
1.0
 70
   688
 72
     0
 73
     0
 74
     5
  7

 75
    16
 76
     0
 77
     2
 78
   300
147
1.0
148
0.0
149
0.0
100
AcDbLayout
  1
Layout2
 70
     1
 71
     2
 10
0.0
 20
0.0
 11
0.0
 21
0.0
 12
0.0
 22
0.0
 32
0.0
 14
0.0
 24
0.0
 34
0.0
 15
0.0
 25
0.0
 35
0.0
146
0.0
 13
0.0
 23
0.0
 33
0.0
 16
1.0
 26
0.0
 36
0.0
 17
0.0
 27
1.0
 37
0.0
 76
     0
330
23
  0
LAYOUT
  5
22
102
{ACAD_REACTORS
330
1A
102
}
330
1A
100
AcDbPlotSettings
  1

  2
none_device
  4

  6

 40
0.0
 41
0.0
 42
0.0
 43
0.0
 44
0.0
 45
0.0
 46
0.0
 47
0.0
 48
0.0
 49
0.0
140
0.0
141
0.0
142
1.0
143
1.0
 70
  1712
 72
     0
 73
     0
 74
     0
  7

 75
     0
 76
     0
 77
     2
 78
   300
147
1.0
148
0.0
149
0.0
100
AcDbLayout
  1
Model
 70
     1
 71
     0
 10
0.0
 20
0.0
 11
12.0
 21
9.0
 12
0.0
 22
0.0
 32
0.0
 14
-11.97993
 24
-13.42958
 34
0.0
 15
-8.02995
 25
-8.44458
 35
0.0
146
0.0
 13
0.0
 23
0.0
 33
0.0
 16
1.0
 26
0.0
 36
0.0
 17
0.0
 27
1.0
 37
0.0
 76
     0
330
1F
331
29
  0
MATERIAL
  5
3D
102
{ACAD_REACTORS
330
3B
102
}
330
3B
100
AcDbMaterial
  1
ByBlock
 72
     1
 94
      127
  0
MATERIAL
  5
3C
102
{ACAD_REACTORS
330
3B
102
}
330
3B
100
AcDbMaterial
  1
ByLayer
 72
     1
 94
      127
  0
MATERIAL
  5
3E
102
{ACAD_REACTORS
330
3B
102
}
330
3B
100
AcDbMaterial
  1
Global
 72
     1
 94
      127
  0
MLINESTYLE
  5
18
102
{ACAD_REACTORS
330
17
102
}
330
17
100
AcDbMlineStyle
  2
Standard
 70
     0
  3

 62
   256
 51
90.0
 52
90.0
 71
     2
 49
0.5
 62
   256
  6
BYLAYER
 49
-0.5
 62
   256
  6
BYLAYER
  0
ACDBPLACEHOLDER
  5
F
102
{ACAD_REACTORS
330
E
102
}
330
E
  0
VISUALSTYLE
  5
2F
102
{ACAD_REACTORS
330
2A
102
}
102
{ACAD_XDICTIONARY
360
4F
102
}
330
2A
100
AcDbVisualStyle
  2
2dWireframe
 70
     4
 71
     0
 72
     2
 73
     0
 90
        0
 40
-0.6
 41
-30.0
 62
     5
 63
     7
421
 16777215
 74
     1
 91
        4
 64
     7
 65
   257
 75
     1
175
     1
 42
1.0
 92
        0
 66
   257
 43
1.0
 76
     1
 77
     6
 78
     2
 67
     7
 79
     5
170
     0
171
     0
290
     0
174
     0
 93
        1
 44
0.0
173
     0
291
     0
 45
0.0
  0
VISUALSTYLE
  5
31
102
{ACAD_REACTORS
330
2A
102
}
102
{ACAD_XDICTIONARY
360
53
102
}
330
2A
100
AcDbVisualStyle
  2
3D Hidden
 70
     6
 71
     1
 72
     2
 73
     2
 90
        0
 40
-0.6
 41
-30.0
 62
     5
 63
     7
421
 16777215
 74
     2
 91
        2
 64
     7
 65
   257
 75
     2
175
     1
 42
40.0
 92
        0
 66
   257
 43
1.0
 76
     1
 77
     6
 78
     2
 67
     7
 79
     3
170
     0
171
     0
290
     0
174
     0
 93
        1
 44
0.0
173
     0
291
     0
 45
0.0
  0
VISUALSTYLE
  5
30
102
{ACAD_REACTORS
330
2A
102
}
102
{ACAD_XDICTIONARY
360
51
102
}
330
2A
100
AcDbVisualStyle
  2
3dWireframe
 70
     5
 71
     0
 72
     2
 73
     0
 90
        0
 40
-0.6
 41
-30.0
 62
     5
 63
     7
421
 16777215
 74
     1
 91
        4
 64
     7
 65
   257
 75
     1
175
     1
 42
1.0
 92
        0
 66
   257
 43
1.0
 76
     1
 77
     6
 78
     2
 67
     7
 79
     5
170
     0
171
     0
290
     0
174
     0
 93
        1
 44
0.0
173
     0
291
     0
 45
0.0
  0
VISUALSTYLE
  5
32
102
{ACAD_REACTORS
330
2A
102
}
102
{ACAD_XDICTIONARY
360
55
102
}
330
2A
100
AcDbVisualStyle
  2
Basic
 70
     7
 71
     1
 72
     0
 73
     1
 90
        0
 40
-0.6
 41
-30.0
 62
     5
 63
     7
421
 16777215
 74
     0
 91
        4
 64
     7
 65
   257
 75
     1
175
     1
 42
1.0
 92
        8
 66
     7
 43
1.0
 76
     1
 77
     6
 78
     2
 67
     7
 79
     5
170
     0
171
     0
290
     0
174
     0
 93
        1
 44
0.0
173
     0
291
     1
 45
0.0
  0
VISUALSTYLE
  5
36
102
{ACAD_REACTORS
330
2A
102
}
102
{ACAD_XDICTIONARY
360
5D
102
}
330
2A
100
AcDbVisualStyle
  2
Brighten
 70
    12
 71
     2
 72
     2
 73
     0
 90
        0
 40
-0.6
 41
-30.0
 62
     5
 63
     7
421
 16777215
 74
     1
 91
        4
 64
     7
 65
   257
 75
     1
175
     1
 42
1.0
 92
        8
 66
     7
 43
1.0
 76
     1
 77
     6
 78
     2
 67
     7
 79
     5
170
     0
171
     0
290
     0
174
     0
 93
        1
 44
50.0
173
     0
291
     1
 45
0.0
  0
VISUALSTYLE
  5
3A
102
{ACAD_REACTORS
330
2A
102
}
102
{ACAD_XDICTIONARY
360
65
102
}
330
2A
100
AcDbVisualStyle
  2
ColorChange
 70
    16
 71
     2
 72
     2
 73
     3
 90
        0
 40
-0.6
 41
-30.0
 62
     5
 63
     8
421
  8421504
 74
     1
 91
        4
 64
     7
 65
   257
 75
     1
175
     1
 42
1.0
 92
        8
 66
     8
424
  8421504
 43
1.0
 76
     1
 77
     6
 78
     2
 67
     7
 79
     5
170
     0
171
     0
290
     0
174
     0
 93
        1
 44
0.0
173
     0
291
     1
 45
0.0
  0
VISUALSTYLE
  5
34
102
{ACAD_REACTORS
330
2A
102
}
102
{ACAD_XDICTIONARY
360
59
102
}
330
2A
100
AcDbVisualStyle
  2
Conceptual
 70
     9
 71
     3
 72
     2
 73
     0
 90
        0
 40
-0.6
 41
-30.0
 62
     5
 63
     7
421
 16777215
 74
     2
 91
        2
 64
     7
 65
   257
 75
     1
175
     1
 42
40.0
 92
        8
 66
     7
 43
1.0
 76
     1
 77
     6
 78
     2
 67
     7
 79
     3
170
     0
171
     0
290
     0
174
     0
 93
        1
 44
0.0
173
     0
291
     0
 45
0.0
  0
VISUALSTYLE
  5
35
102
{ACAD_REACTORS
330
2A
102
}
102
{ACAD_XDICTIONARY
360
5B
102
}
330
2A
100
AcDbVisualStyle
  2
Dim
 70
    11
 71
     2
 72
     2
 73
     0
 90
        0
 40
-0.6
 41
-30.0
 62
     5
 63
     7
421
 16777215
 74
     1
 91
        4
 64
     7
 65
   257
 75
     1
175
     1
 42
1.0
 92
        8
 66
     7
 43
1.0
 76
     1
 77
     6
 78
     2
 67
     7
 79
     5
170
     0
171
     0
290
     0
174
     0
 93
        1
 44
-50.0
173
     0
291
     1
 45
0.0
  0
VISUALSTYLE
  5
39
102
{ACAD_REACTORS
330
2A
102
}
102
{ACAD_XDICTIONARY
360
63
102
}
330
2A
100
AcDbVisualStyle
  2
Facepattern
 70
    15
 71
     2
 72
     2
 73
     0
 90
        0
 40
-0.6
 41
-30.0
 62
     5
 63
     7
421
 16777215
 74
     1
 91
        4
 64
     7
 65
   257
 75
     1
175
     1
 42
1.0
 92
        8
 66
     7
 43
1.0
 76
     1
 77
     6
 78
     2
 67
     7
 79
     5
170
     0
171
     0
290
     0
174
     0
 93
        1
 44
0.0
173
     0
291
     1
 45
0.0
  0
VISUALSTYLE
  5
2B
102
{ACAD_REACTORS
330
2A
102
}
102
{ACAD_XDICTIONARY
360
47
102
}
330
2A
100
AcDbVisualStyle
  2
Flat
 70
     0
 71
     2
 72
     1
 73
     1
 90
        2
 40
-0.6
 41
30.0
 62
     5
 63
     7
421
 16777215
 74
     0
 91
        4
 64
     7
 65
   257
 75
     1
175
     1
 42
1.0
 92
        8
 66
     7
 43
1.0
 76
     1
 77
     6
 78
     2
 67
     7
 79
     5
170
     0
171
     0
290
     0
174
     0
 93
       13
 44
0.0
173
     0
291
     1
 45
0.0
  0
VISUALSTYLE
  5
2C
102
{ACAD_REACTORS
330
2A
102
}
102
{ACAD_XDICTIONARY
360
49
102
}
330
2A
100
AcDbVisualStyle
  2
FlatWithEdges
 70
     1
 71
     2
 72
     1
 73
     1
 90
        2
 40
-0.6
 41
30.0
 62
     5
 63
     7
421
 16777215
 74
     1
 91
        4
 64
     7
 65
   257
 75
     1
175
     1
 42
1.0
 92
        0
 66
   257
 43
1.0
 76
     1
 77
     6
 78
     2
 67
     7
 79
     5
170
     0
171
     0
290
     0
174
     0
 93
       13
 44
0.0
173
     0
291
     1
 45
0.0
  0
VISUALSTYLE
  5
2D
102
{ACAD_REACTORS
330
2A
102
}
102
{ACAD_XDICTIONARY
360
4B
102
}
330
2A
100
AcDbVisualStyle
  2
Gouraud
 70
     2
 71
     2
 72
     2
 73
     1
 90
        2
 40
-0.6
 41
30.0
 62
     5
 63
     7
421
 16777215
 74
     0
 91
        4
 64
     7
 65
   257
 75
     1
175
     1
 42
1.0
 92
        0
 66
     7
 43
1.0
 76
     1
 77
     6
 78
     2
 67
     7
 79
     5
170
     0
171
     0
290
     0
174
     0
 93
       13
 44
0.0
173
     0
291
     1
 45
0.0
  0
VISUALSTYLE
  5
2E
102
{ACAD_REACTORS
330
2A
102
}
102
{ACAD_XDICTIONARY
360
4D
102
}
330
2A
100
AcDbVisualStyle
  2
GouraudWithEdges
 70
     3
 71
     2
 72
     2
 73
     1
 90
        2
 40
-0.6
 41
30.0
 62
     5
 63
     7
421
 16777215
 74
     1
 91
        4
 64
     7
 65
   257
 75
     1
175
     1
 42
1.0
 92
        0
 66
   257
 43
1.0
 76
     1
 77
     6
 78
     2
 67
     7
 79
     5
170
     0
171
     0
290
     0
174
     0
 93
       13
 44
0.0
173
     0
291
     1
 45
0.0
  0
VISUALSTYLE
  5
38
102
{ACAD_REACTORS
330
2A
102
}
102
{ACAD_XDICTIONARY
360
61
102
}
330
2A
100
AcDbVisualStyle
  2
Linepattern
 70
    14
 71
     2
 72
     2
 73
     0
 90
        0
 40
-0.6
 41
-30.0
 62
     5
 63
     7
421
 16777215
 74
     1
 91
        4
 64
     7
 65
   257
 75
     7
175
     7
 42
1.0
 92
        8
 66
     7
 43
1.0
 76
     1
 77
     6
 78
     2
 67
     7
 79
     5
170
     0
171
     0
290
     0
174
     0
 93
        1
 44
0.0
173
     0
291
     1
 45
0.0
  0
VISUALSTYLE
  5
33
102
{ACAD_REACTORS
330
2A
102
}
102
{ACAD_XDICTIONARY
360
57
102
}
330
2A
100
AcDbVisualStyle
  2
Realistic
 70
     8
 71
     2
 72
     2
 73
     0
 90
        0
 40
-0.6
 41
-30.0
 62
     5
 63
     7
421
 16777215
 74
     1
 91
        0
 64
     7
 65
   257
 75
     1
175
     1
 42
1.0
 92
        8
 66
     8
424
  7895160
 43
1.0
 76
     1
 77
     6
 78
     2
 67
     7
 79
     5
170
     0
171
     0
290
     0
174
     0
 93
       13
 44
0.0
173
     0
291
     0
 45
0.0
  0
VISUALSTYLE
  5
37
102
{ACAD_REACTORS
330
2A
102
}
102
{ACAD_XDICTIONARY
360
5F
102
}
330
2A
100
AcDbVisualStyle
  2
Thicken
 70
    13
 71
     2
 72
     2
 73
     0
 90
        0
 40
-0.6
 41
-30.0
 62
     5
 63
     7
421
 16777215
 74
     1
 91
        4
 64
     7
 65
   257
 75
     1
175
     1
 42
1.0
 92
       12
 66
     7
 43
1.0
 76
     1
 77
     6
 78
     2
 67
     7
 79
     5
170
     0
171
     0
290
     0
174
     0
 93
        1
 44
0.0
173
     0
291
     1
 45
0.0
  0
DICTIONARY
  5
4F
330
2F
100
AcDbDictionary
280
     1
281
     1
  3
ACAD_XREC_ROUNDTRIP
360
50
  0
DICTIONARY
  5
53
330
31
100
AcDbDictionary
280
     1
281
     1
  3
ACAD_XREC_ROUNDTRIP
360
54
  0
DICTIONARY
  5
51
330
30
100
AcDbDictionary
280
     1
281
     1
  3
ACAD_XREC_ROUNDTRIP
360
52
  0
DICTIONARY
  5
55
330
32
100
AcDbDictionary
280
     1
281
     1
  3
ACAD_XREC_ROUNDTRIP
360
56
  0
DICTIONARY
  5
5D
330
36
100
AcDbDictionary
280
     1
281
     1
  3
ACAD_XREC_ROUNDTRIP
360
5E
  0
DICTIONARY
  5
65
330
3A
100
AcDbDictionary
280
     1
281
     1
  3
ACAD_XREC_ROUNDTRIP
360
66
  0
DICTIONARY
  5
59
330
34
100
AcDbDictionary
280
     1
281
     1
  3
ACAD_XREC_ROUNDTRIP
360
5A
  0
DICTIONARY
  5
5B
330
35
100
AcDbDictionary
280
     1
281
     1
  3
ACAD_XREC_ROUNDTRIP
360
5C
  0
DICTIONARY
  5
63
330
39
100
AcDbDictionary
280
     1
281
     1
  3
ACAD_XREC_ROUNDTRIP
360
64
  0
DICTIONARY
  5
47
330
2B
100
AcDbDictionary
280
     1
281
     1
  3
ACAD_XREC_ROUNDTRIP
360
48
  0
DICTIONARY
  5
49
330
2C
100
AcDbDictionary
280
     1
281
     1
  3
ACAD_XREC_ROUNDTRIP
360
4A
  0
DICTIONARY
  5
4B
330
2D
100
AcDbDictionary
280
     1
281
     1
  3
ACAD_XREC_ROUNDTRIP
360
4C
  0
DICTIONARY
  5
4D
330
2E
100
AcDbDictionary
280
     1
281
     1
  3
ACAD_XREC_ROUNDTRIP
360
4E
  0
DICTIONARY
  5
61
330
38
100
AcDbDictionary
280
     1
281
     1
  3
ACAD_XREC_ROUNDTRIP
360
62
  0
DICTIONARY
  5
57
330
33
100
AcDbDictionary
280
     1
281
     1
  3
ACAD_XREC_ROUNDTRIP
360
58
  0
DICTIONARY
  5
5F
330
37
100
AcDbDictionary
280
     1
281
     1
  3
ACAD_XREC_ROUNDTRIP
360
60
  0
XRECORD
  5
50
102
{ACAD_REACTORS
330
4F
102
}
330
4F
100
AcDbXrecord
280
     1
102
RTVSPropertyOp0
 70
     1
102
RTVSPropertyOp1
 70
     1
102
RTVSPropertyOp2
 70
     1
102
RTVSPropertyOp3
 70
     1
102
RTVSPropertyOp4
 70
     1
102
RTVSPropertyOp5
 70
     1
102
RTVSPropertyOp6
 70
     1
102
RTVSPropertyOp7
 70
     1
102
RTVSPropertyOp8
 70
     1
102
RTVSPropertyOp9
 70
     1
102
RTVSPropertyOp10
 70
     1
102
RTVSPropertyOp11
 70
     1
102
RTVSPropertyOp12
 70
     1
102
RTVSPropertyOp13
 70
     1
102
RTVSPropertyOp14
 70
     1
102
RTVSPropertyOp15
 70
     1
102
RTVSPropertyOp16
 70
     1
102
RTVSPropertyOp17
 70
     1
102
RTVSPropertyOp18
 70
     1
102
RTVSPropertyOp19
 70
     1
102
RTVSPropertyOp20
 70
     1
102
RTVSPropertyOp21
 70
     1
102
RTVSPropertyOp22
 70
     1
102
RTVSPropertyOp23
 70
     1
102
RTVSPropertyOp24
 70
     1
102
RTVSPropertyOp25
 70
     1
102
RTVSPropertyOp26
 70
     1
102
RTVSPropertyOp27
 70
     1
102
RTVSPropertyOp28
 70
     1
102
RTVSPropertyOp29
 70
     1
102
RTVSPropertyOp30
 70
     1
102
RTVSPropertyOp31
 70
     1
102
RTVSPropertyOp32
 70
     1
  0
XRECORD
  5
54
102
{ACAD_REACTORS
330
53
102
}
330
53
100
AcDbXrecord
280
     1
102
RTVSPropertyOp0
 70
     1
102
RTVSPropertyOp1
 70
     1
102
RTVSPropertyOp2
 70
     1
102
RTVSPropertyOp3
 70
     1
102
RTVSPropertyOp4
 70
     1
102
RTVSPropertyOp5
 70
     1
102
RTVSPropertyOp6
 70
     1
102
RTVSPropertyOp7
 70
     1
102
RTVSPropertyOp8
 70
     1
102
RTVSPropertyOp9
 70
     1
102
RTVSPropertyOp10
 70
     1
102
RTVSPropertyOp11
 70
     1
102
RTVSPropertyOp12
 70
     1
102
RTVSPropertyOp13
 70
     1
102
RTVSPropertyOp14
 70
     1
102
RTVSPropertyOp15
 70
     1
102
RTVSPropertyOp16
 70
     1
102
RTVSPropertyOp17
 70
     1
102
RTVSPropertyOp18
 70
     1
102
RTVSPropertyOp19
 70
     1
102
RTVSPropertyOp20
 70
     1
102
RTVSPropertyOp21
 70
     1
102
RTVSPropertyOp22
 70
     1
102
RTVSPropertyOp23
 70
     1
102
RTVSPropertyOp24
 70
     1
102
RTVSPropertyOp25
 70
     1
102
RTVSPropertyOp26
 70
     1
102
RTVSPropertyOp27
 70
     1
102
RTVSPropertyOp28
 70
     1
102
RTVSPropertyOp29
 70
     1
102
RTVSPropertyOp30
 70
     1
102
RTVSPropertyOp31
 70
     1
102
RTVSPropertyOp32
 70
     1
  0
XRECORD
  5
52
102
{ACAD_REACTORS
330
51
102
}
330
51
100
AcDbXrecord
280
     1
102
RTVSPropertyOp0
 70
     1
102
RTVSPropertyOp1
 70
     1
102
RTVSPropertyOp2
 70
     1
102
RTVSPropertyOp3
 70
     1
102
RTVSPropertyOp4
 70
     1
102
RTVSPropertyOp5
 70
     1
102
RTVSPropertyOp6
 70
     1
102
RTVSPropertyOp7
 70
     1
102
RTVSPropertyOp8
 70
     1
102
RTVSPropertyOp9
 70
     1
102
RTVSPropertyOp10
 70
     1
102
RTVSPropertyOp11
 70
     1
102
RTVSPropertyOp12
 70
     1
102
RTVSPropertyOp13
 70
     1
102
RTVSPropertyOp14
 70
     1
102
RTVSPropertyOp15
 70
     1
102
RTVSPropertyOp16
 70
     1
102
RTVSPropertyOp17
 70
     1
102
RTVSPropertyOp18
 70
     1
102
RTVSPropertyOp19
 70
     1
102
RTVSPropertyOp20
 70
     1
102
RTVSPropertyOp21
 70
     1
102
RTVSPropertyOp22
 70
     1
102
RTVSPropertyOp23
 70
     1
102
RTVSPropertyOp24
 70
     1
102
RTVSPropertyOp25
 70
     1
102
RTVSPropertyOp26
 70
     1
102
RTVSPropertyOp27
 70
     1
102
RTVSPropertyOp28
 70
     1
102
RTVSPropertyOp29
 70
     1
102
RTVSPropertyOp30
 70
     1
102
RTVSPropertyOp31
 70
     1
102
RTVSPropertyOp32
 70
     1
  0
XRECORD
  5
56
102
{ACAD_REACTORS
330
55
102
}
330
55
100
AcDbXrecord
280
     1
102
RTVSPropertyOp0
 70
     1
102
RTVSPropertyOp1
 70
     1
102
RTVSPropertyOp2
 70
     1
102
RTVSPropertyOp3
 70
     1
102
RTVSPropertyOp4
 70
     1
102
RTVSPropertyOp5
 70
     1
102
RTVSPropertyOp6
 70
     1
102
RTVSPropertyOp7
 70
     1
102
RTVSPropertyOp8
 70
     1
102
RTVSPropertyOp9
 70
     1
102
RTVSPropertyOp10
 70
     1
102
RTVSPropertyOp11
 70
     1
102
RTVSPropertyOp12
 70
     1
102
RTVSPropertyOp13
 70
     1
102
RTVSPropertyOp14
 70
     1
102
RTVSPropertyOp15
 70
     1
102
RTVSPropertyOp16
 70
     1
102
RTVSPropertyOp17
 70
     1
102
RTVSPropertyOp18
 70
     1
102
RTVSPropertyOp19
 70
     1
102
RTVSPropertyOp20
 70
     1
102
RTVSPropertyOp21
 70
     1
102
RTVSPropertyOp22
 70
     1
102
RTVSPropertyOp23
 70
     1
102
RTVSPropertyOp24
 70
     1
102
RTVSPropertyOp25
 70
     1
102
RTVSPropertyOp26
 70
     1
102
RTVSPropertyOp27
 70
     1
102
RTVSPropertyOp28
 70
     1
102
RTVSPropertyOp29
 70
     1
102
RTVSPropertyOp30
 70
     1
102
RTVSPropertyOp31
 70
     1
102
RTVSPropertyOp32
 70
     1
  0
XRECORD
  5
5E
102
{ACAD_REACTORS
330
5D
102
}
330
5D
100
AcDbXrecord
280
     1
102
RTVSPropertyOp0
 70
     1
102
RTVSPropertyOp1
 70
     1
102
RTVSPropertyOp2
 70
     1
102
RTVSPropertyOp3
 70
     1
102
RTVSPropertyOp4
 70
     1
102
RTVSPropertyOp5
 70
     1
102
RTVSPropertyOp6
 70
     1
102
RTVSPropertyOp7
 70
     1
102
RTVSPropertyOp8
 70
     1
102
RTVSPropertyOp9
 70
     1
102
RTVSPropertyOp10
 70
     1
102
RTVSPropertyOp11
 70
     1
102
RTVSPropertyOp12
 70
     1
102
RTVSPropertyOp13
 70
     1
102
RTVSPropertyOp14
 70
     1
102
RTVSPropertyOp15
 70
     1
102
RTVSPropertyOp16
 70
     1
102
RTVSPropertyOp17
 70
     1
102
RTVSPropertyOp18
 70
     1
102
RTVSPropertyOp19
 70
     1
102
RTVSPropertyOp20
 70
     1
102
RTVSPropertyOp21
 70
     1
102
RTVSPropertyOp22
 70
     1
102
RTVSPropertyOp23
 70
     1
102
RTVSPropertyOp24
 70
     1
102
RTVSPropertyOp25
 70
     1
102
RTVSPropertyOp26
 70
     1
102
RTVSPropertyOp27
 70
     1
102
RTVSPropertyOp28
 70
     1
102
RTVSPropertyOp29
 70
     1
102
RTVSPropertyOp30
 70
     1
102
RTVSPropertyOp31
 70
     1
102
RTVSPropertyOp32
 70
     1
  0
XRECORD
  5
66
102
{ACAD_REACTORS
330
65
102
}
330
65
100
AcDbXrecord
280
     1
102
RTVSPropertyOp0
 70
     1
102
RTVSPropertyOp1
 70
     1
102
RTVSPropertyOp2
 70
     1
102
RTVSPropertyOp3
 70
     1
102
RTVSPropertyOp4
 70
     1
102
RTVSPropertyOp5
 70
     1
102
RTVSPropertyOp6
 70
     1
102
RTVSPropertyOp7
 70
     1
102
RTVSPropertyOp8
 70
     1
102
RTVSPropertyOp9
 70
     1
102
RTVSPropertyOp10
 70
     1
102
RTVSPropertyOp11
 70
     1
102
RTVSPropertyOp12
 70
     1
102
RTVSPropertyOp13
 70
     1
102
RTVSPropertyOp14
 70
     1
102
RTVSPropertyOp15
 70
     1
102
RTVSPropertyOp16
 70
     1
102
RTVSPropertyOp17
 70
     1
102
RTVSPropertyOp18
 70
     1
102
RTVSPropertyOp19
 70
     1
102
RTVSPropertyOp20
 70
     1
102
RTVSPropertyOp21
 70
     1
102
RTVSPropertyOp22
 70
     1
102
RTVSPropertyOp23
 70
     1
102
RTVSPropertyOp24
 70
     1
102
RTVSPropertyOp25
 70
     1
102
RTVSPropertyOp26
 70
     1
102
RTVSPropertyOp27
 70
     1
102
RTVSPropertyOp28
 70
     1
102
RTVSPropertyOp29
 70
     1
102
RTVSPropertyOp30
 70
     1
102
RTVSPropertyOp31
 70
     1
102
RTVSPropertyOp32
 70
     1
  0
XRECORD
  5
5A
102
{ACAD_REACTORS
330
59
102
}
330
59
100
AcDbXrecord
280
     1
102
RTVSPropertyOp0
 70
     1
102
RTVSPropertyOp1
 70
     1
102
RTVSPropertyOp2
 70
     1
102
RTVSPropertyOp3
 70
     1
102
RTVSPropertyOp4
 70
     1
102
RTVSPropertyOp5
 70
     1
102
RTVSPropertyOp6
 70
     1
102
RTVSPropertyOp7
 70
     1
102
RTVSPropertyOp8
 70
     1
102
RTVSPropertyOp9
 70
     1
102
RTVSPropertyOp10
 70
     1
102
RTVSPropertyOp11
 70
     1
102
RTVSPropertyOp12
 70
     1
102
RTVSPropertyOp13
 70
     1
102
RTVSPropertyOp14
 70
     1
102
RTVSPropertyOp15
 70
     1
102
RTVSPropertyOp16
 70
     1
102
RTVSPropertyOp17
 70
     1
102
RTVSPropertyOp18
 70
     1
102
RTVSPropertyOp19
 70
     1
102
RTVSPropertyOp20
 70
     1
102
RTVSPropertyOp21
 70
     1
102
RTVSPropertyOp22
 70
     1
102
RTVSPropertyOp23
 70
     1
102
RTVSPropertyOp24
 70
     1
102
RTVSPropertyOp25
 70
     1
102
RTVSPropertyOp26
 70
     1
102
RTVSPropertyOp27
 70
     1
102
RTVSPropertyOp28
 70
     1
102
RTVSPropertyOp29
 70
     1
102
RTVSPropertyOp30
 70
     1
102
RTVSPropertyOp31
 70
     1
102
RTVSPropertyOp32
 70
     1
  0
XRECORD
  5
5C
102
{ACAD_REACTORS
330
5B
102
}
330
5B
100
AcDbXrecord
280
     1
102
RTVSPropertyOp0
 70
     1
102
RTVSPropertyOp1
 70
     1
102
RTVSPropertyOp2
 70
     1
102
RTVSPropertyOp3
 70
     1
102
RTVSPropertyOp4
 70
     1
102
RTVSPropertyOp5
 70
     1
102
RTVSPropertyOp6
 70
     1
102
RTVSPropertyOp7
 70
     1
102
RTVSPropertyOp8
 70
     1
102
RTVSPropertyOp9
 70
     1
102
RTVSPropertyOp10
 70
     1
102
RTVSPropertyOp11
 70
     1
102
RTVSPropertyOp12
 70
     1
102
RTVSPropertyOp13
 70
     1
102
RTVSPropertyOp14
 70
     1
102
RTVSPropertyOp15
 70
     1
102
RTVSPropertyOp16
 70
     1
102
RTVSPropertyOp17
 70
     1
102
RTVSPropertyOp18
 70
     1
102
RTVSPropertyOp19
 70
     1
102
RTVSPropertyOp20
 70
     1
102
RTVSPropertyOp21
 70
     1
102
RTVSPropertyOp22
 70
     1
102
RTVSPropertyOp23
 70
     1
102
RTVSPropertyOp24
 70
     1
102
RTVSPropertyOp25
 70
     1
102
RTVSPropertyOp26
 70
     1
102
RTVSPropertyOp27
 70
     1
102
RTVSPropertyOp28
 70
     1
102
RTVSPropertyOp29
 70
     1
102
RTVSPropertyOp30
 70
     1
102
RTVSPropertyOp31
 70
     1
102
RTVSPropertyOp32
 70
     1
  0
XRECORD
  5
64
102
{ACAD_REACTORS
330
63
102
}
330
63
100
AcDbXrecord
280
     1
102
RTVSPropertyOp0
 70
     1
102
RTVSPropertyOp1
 70
     1
102
RTVSPropertyOp2
 70
     1
102
RTVSPropertyOp3
 70
     1
102
RTVSPropertyOp4
 70
     1
102
RTVSPropertyOp5
 70
     1
102
RTVSPropertyOp6
 70
     1
102
RTVSPropertyOp7
 70
     1
102
RTVSPropertyOp8
 70
     1
102
RTVSPropertyOp9
 70
     1
102
RTVSPropertyOp10
 70
     1
102
RTVSPropertyOp11
 70
     1
102
RTVSPropertyOp12
 70
     1
102
RTVSPropertyOp13
 70
     1
102
RTVSPropertyOp14
 70
     1
102
RTVSPropertyOp15
 70
     1
102
RTVSPropertyOp16
 70
     1
102
RTVSPropertyOp17
 70
     1
102
RTVSPropertyOp18
 70
     1
102
RTVSPropertyOp19
 70
     1
102
RTVSPropertyOp20
 70
     1
102
RTVSPropertyOp21
 70
     1
102
RTVSPropertyOp22
 70
     1
102
RTVSPropertyOp23
 70
     1
102
RTVSPropertyOp24
 70
     1
102
RTVSPropertyOp25
 70
     1
102
RTVSPropertyOp26
 70
     1
102
RTVSPropertyOp27
 70
     1
102
RTVSPropertyOp28
 70
     1
102
RTVSPropertyOp29
 70
     1
102
RTVSPropertyOp30
 70
     1
102
RTVSPropertyOp31
 70
     1
102
RTVSPropertyOp32
 70
     1
  0
XRECORD
  5
48
102
{ACAD_REACTORS
330
47
102
}
330
47
100
AcDbXrecord
280
     1
102
RTVSPropertyOp0
 70
     1
102
RTVSPropertyOp1
 70
     1
102
RTVSPropertyOp2
 70
     1
102
RTVSPropertyOp3
 70
     1
102
RTVSPropertyOp4
 70
     1
102
RTVSPropertyOp5
 70
     1
102
RTVSPropertyOp6
 70
     1
102
RTVSPropertyOp7
 70
     1
102
RTVSPropertyOp8
 70
     1
102
RTVSPropertyOp9
 70
     1
102
RTVSPropertyOp10
 70
     1
102
RTVSPropertyOp11
 70
     1
102
RTVSPropertyOp12
 70
     1
102
RTVSPropertyOp13
 70
     1
102
RTVSPropertyOp14
 70
     1
102
RTVSPropertyOp15
 70
     1
102
RTVSPropertyOp16
 70
     1
102
RTVSPropertyOp17
 70
     1
102
RTVSPropertyOp18
 70
     1
102
RTVSPropertyOp19
 70
     1
102
RTVSPropertyOp20
 70
     1
102
RTVSPropertyOp21
 70
     1
102
RTVSPropertyOp22
 70
     1
102
RTVSPropertyOp23
 70
     1
102
RTVSPropertyOp24
 70
     1
102
RTVSPropertyOp25
 70
     1
102
RTVSPropertyOp26
 70
     1
102
RTVSPropertyOp27
 70
     1
102
RTVSPropertyOp28
 70
     1
102
RTVSPropertyOp29
 70
     1
102
RTVSPropertyOp30
 70
     1
102
RTVSPropertyOp31
 70
     1
102
RTVSPropertyOp32
 70
     1
  0
XRECORD
  5
4A
102
{ACAD_REACTORS
330
49
102
}
330
49
100
AcDbXrecord
280
     1
102
RTVSPropertyOp0
 70
     1
102
RTVSPropertyOp1
 70
     1
102
RTVSPropertyOp2
 70
     1
102
RTVSPropertyOp3
 70
     1
102
RTVSPropertyOp4
 70
     1
102
RTVSPropertyOp5
 70
     1
102
RTVSPropertyOp6
 70
     1
102
RTVSPropertyOp7
 70
     1
102
RTVSPropertyOp8
 70
     1
102
RTVSPropertyOp9
 70
     1
102
RTVSPropertyOp10
 70
     1
102
RTVSPropertyOp11
 70
     1
102
RTVSPropertyOp12
 70
     1
102
RTVSPropertyOp13
 70
     1
102
RTVSPropertyOp14
 70
     1
102
RTVSPropertyOp15
 70
     1
102
RTVSPropertyOp16
 70
     1
102
RTVSPropertyOp17
 70
     1
102
RTVSPropertyOp18
 70
     1
102
RTVSPropertyOp19
 70
     1
102
RTVSPropertyOp20
 70
     1
102
RTVSPropertyOp21
 70
     1
102
RTVSPropertyOp22
 70
     1
102
RTVSPropertyOp23
 70
     1
102
RTVSPropertyOp24
 70
     1
102
RTVSPropertyOp25
 70
     1
102
RTVSPropertyOp26
 70
     1
102
RTVSPropertyOp27
 70
     1
102
RTVSPropertyOp28
 70
     1
102
RTVSPropertyOp29
 70
     1
102
RTVSPropertyOp30
 70
     1
102
RTVSPropertyOp31
 70
     1
102
RTVSPropertyOp32
 70
     1
  0
XRECORD
  5
4C
102
{ACAD_REACTORS
330
4B
102
}
330
4B
100
AcDbXrecord
280
     1
102
RTVSPropertyOp0
 70
     1
102
RTVSPropertyOp1
 70
     1
102
RTVSPropertyOp2
 70
     1
102
RTVSPropertyOp3
 70
     1
102
RTVSPropertyOp4
 70
     1
102
RTVSPropertyOp5
 70
     1
102
RTVSPropertyOp6
 70
     1
102
RTVSPropertyOp7
 70
     1
102
RTVSPropertyOp8
 70
     1
102
RTVSPropertyOp9
 70
     1
102
RTVSPropertyOp10
 70
     1
102
RTVSPropertyOp11
 70
     1
102
RTVSPropertyOp12
 70
     1
102
RTVSPropertyOp13
 70
     1
102
RTVSPropertyOp14
 70
     1
102
RTVSPropertyOp15
 70
     1
102
RTVSPropertyOp16
 70
     1
102
RTVSPropertyOp17
 70
     1
102
RTVSPropertyOp18
 70
     1
102
RTVSPropertyOp19
 70
     1
102
RTVSPropertyOp20
 70
     1
102
RTVSPropertyOp21
 70
     1
102
RTVSPropertyOp22
 70
     1
102
RTVSPropertyOp23
 70
     1
102
RTVSPropertyOp24
 70
     1
102
RTVSPropertyOp25
 70
     1
102
RTVSPropertyOp26
 70
     1
102
RTVSPropertyOp27
 70
     1
102
RTVSPropertyOp28
 70
     1
102
RTVSPropertyOp29
 70
     1
102
RTVSPropertyOp30
 70
     1
102
RTVSPropertyOp31
 70
     1
102
RTVSPropertyOp32
 70
     1
  0
XRECORD
  5
4E
102
{ACAD_REACTORS
330
4D
102
}
330
4D
100
AcDbXrecord
280
     1
102
RTVSPropertyOp0
 70
     1
102
RTVSPropertyOp1
 70
     1
102
RTVSPropertyOp2
 70
     1
102
RTVSPropertyOp3
 70
     1
102
RTVSPropertyOp4
 70
     1
102
RTVSPropertyOp5
 70
     1
102
RTVSPropertyOp6
 70
     1
102
RTVSPropertyOp7
 70
     1
102
RTVSPropertyOp8
 70
     1
102
RTVSPropertyOp9
 70
     1
102
RTVSPropertyOp10
 70
     1
102
RTVSPropertyOp11
 70
     1
102
RTVSPropertyOp12
 70
     1
102
RTVSPropertyOp13
 70
     1
102
RTVSPropertyOp14
 70
     1
102
RTVSPropertyOp15
 70
     1
102
RTVSPropertyOp16
 70
     1
102
RTVSPropertyOp17
 70
     1
102
RTVSPropertyOp18
 70
     1
102
RTVSPropertyOp19
 70
     1
102
RTVSPropertyOp20
 70
     1
102
RTVSPropertyOp21
 70
     1
102
RTVSPropertyOp22
 70
     1
102
RTVSPropertyOp23
 70
     1
102
RTVSPropertyOp24
 70
     1
102
RTVSPropertyOp25
 70
     1
102
RTVSPropertyOp26
 70
     1
102
RTVSPropertyOp27
 70
     1
102
RTVSPropertyOp28
 70
     1
102
RTVSPropertyOp29
 70
     1
102
RTVSPropertyOp30
 70
     1
102
RTVSPropertyOp31
 70
     1
102
RTVSPropertyOp32
 70
     1
  0
XRECORD
  5
62
102
{ACAD_REACTORS
330
61
102
}
330
61
100
AcDbXrecord
280
     1
102
RTVSPropertyOp0
 70
     1
102
RTVSPropertyOp1
 70
     1
102
RTVSPropertyOp2
 70
     1
102
RTVSPropertyOp3
 70
     1
102
RTVSPropertyOp4
 70
     1
102
RTVSPropertyOp5
 70
     1
102
RTVSPropertyOp6
 70
     1
102
RTVSPropertyOp7
 70
     1
102
RTVSPropertyOp8
 70
     1
102
RTVSPropertyOp9
 70
     1
102
RTVSPropertyOp10
 70
     1
102
RTVSPropertyOp11
 70
     1
102
RTVSPropertyOp12
 70
     1
102
RTVSPropertyOp13
 70
     1
102
RTVSPropertyOp14
 70
     1
102
RTVSPropertyOp15
 70
     1
102
RTVSPropertyOp16
 70
     1
102
RTVSPropertyOp17
 70
     1
102
RTVSPropertyOp18
 70
     1
102
RTVSPropertyOp19
 70
     1
102
RTVSPropertyOp20
 70
     1
102
RTVSPropertyOp21
 70
     1
102
RTVSPropertyOp22
 70
     1
102
RTVSPropertyOp23
 70
     1
102
RTVSPropertyOp24
 70
     1
102
RTVSPropertyOp25
 70
     1
102
RTVSPropertyOp26
 70
     1
102
RTVSPropertyOp27
 70
     1
102
RTVSPropertyOp28
 70
     1
102
RTVSPropertyOp29
 70
     1
102
RTVSPropertyOp30
 70
     1
102
RTVSPropertyOp31
 70
     1
102
RTVSPropertyOp32
 70
     1
  0
XRECORD
  5
58
102
{ACAD_REACTORS
330
57
102
}
330
57
100
AcDbXrecord
280
     1
102
RTVSPropertyOp0
 70
     1
102
RTVSPropertyOp1
 70
     1
102
RTVSPropertyOp2
 70
     1
102
RTVSPropertyOp3
 70
     1
102
RTVSPropertyOp4
 70
     1
102
RTVSPropertyOp5
 70
     1
102
RTVSPropertyOp6
 70
     1
102
RTVSPropertyOp7
 70
     1
102
RTVSPropertyOp8
 70
     1
102
RTVSPropertyOp9
 70
     1
102
RTVSPropertyOp10
 70
     1
102
RTVSPropertyOp11
 70
     1
102
RTVSPropertyOp12
 70
     1
102
RTVSPropertyOp13
 70
     1
102
RTVSPropertyOp14
 70
     1
102
RTVSPropertyOp15
 70
     1
102
RTVSPropertyOp16
 70
     1
102
RTVSPropertyOp17
 70
     1
102
RTVSPropertyOp18
 70
     1
102
RTVSPropertyOp19
 70
     1
102
RTVSPropertyOp20
 70
     1
102
RTVSPropertyOp21
 70
     1
102
RTVSPropertyOp22
 70
     1
102
RTVSPropertyOp23
 70
     1
102
RTVSPropertyOp24
 70
     1
102
RTVSPropertyOp25
 70
     1
102
RTVSPropertyOp26
 70
     1
102
RTVSPropertyOp27
 70
     1
102
RTVSPropertyOp28
 70
     1
102
RTVSPropertyOp29
 70
     1
102
RTVSPropertyOp30
 70
     1
102
RTVSPropertyOp31
 70
     1
102
RTVSPropertyOp32
 70
     1
  0
XRECORD
  5
60
102
{ACAD_REACTORS
330
5F
102
}
330
5F
100
AcDbXrecord
280
     1
102
RTVSPropertyOp0
 70
     1
102
RTVSPropertyOp1
 70
     1
102
RTVSPropertyOp2
 70
     1
102
RTVSPropertyOp3
 70
     1
102
RTVSPropertyOp4
 70
     1
102
RTVSPropertyOp5
 70
     1
102
RTVSPropertyOp6
 70
     1
102
RTVSPropertyOp7
 70
     1
102
RTVSPropertyOp8
 70
     1
102
RTVSPropertyOp9
 70
     1
102
RTVSPropertyOp10
 70
     1
102
RTVSPropertyOp11
 70
     1
102
RTVSPropertyOp12
 70
     1
102
RTVSPropertyOp13
 70
     1
102
RTVSPropertyOp14
 70
     1
102
RTVSPropertyOp15
 70
     1
102
RTVSPropertyOp16
 70
     1
102
RTVSPropertyOp17
 70
     1
102
RTVSPropertyOp18
 70
     1
102
RTVSPropertyOp19
 70
     1
102
RTVSPropertyOp20
 70
     1
102
RTVSPropertyOp21
 70
     1
102
RTVSPropertyOp22
 70
     1
102
RTVSPropertyOp23
 70
     1
102
RTVSPropertyOp24
 70
     1
102
RTVSPropertyOp25
 70
     1
102
RTVSPropertyOp26
 70
     1
102
RTVSPropertyOp27
 70
     1
102
RTVSPropertyOp28
 70
     1
102
RTVSPropertyOp29
 70
     1
102
RTVSPropertyOp30
 70
     1
102
RTVSPropertyOp31
 70
     1
102
RTVSPropertyOp32
 70
     1
  0
ENDSEC
  0
EOF
