  0
SECTION
  2
HEADER
  9
$ACADVER
  1
AC1021
  9
$ACADMAINTVER
 70
    25
  9
$DWGCODEPAGE
  3
ANSI_1252
  9
$INSBASE
 10
0.0
 20
0.0
 30
0.0
  9
$EXTMIN
 10
-3.23337
 20
-4.72646
 30
0.0
  9
$EXTMAX
 10
1.33256
 20
4.8271
 30
0.0
  9
$LIMMIN
 10
0.0
 20
0.0
  9
$LIMMAX
 10
12.0
 20
9.0
  9
$ORTHOMODE
 70
     0
  9
$REGENMODE
 70
     1
  9
$FILLMODE
 70
     1
  9
$QTEXTMODE
 70
     0
  9
$MIRRTEXT
 70
     1
  9
$LTSCALE
 40
1.0
  9
$ATTMODE
 70
     1
  9
$TEXTSIZE
 40
0.2
  9
$TRACEWID
 40
0.05
  9
$TEXTSTYLE
  7
Standard
  9
$CLAYER
  8
0
  9
$CELTYPE
  6
ByLayer
  9
$CECOLOR
 62
   256
  9
$CELTSCALE
 40
1.0
  9
$DISPSILH
 70
     0
  9
$DIMSCALE
 40
1.0
  9
$DIMASZ
 40
0.18
  9
$DIMEXO
 40
0.0625
  9
$DIMDLI
 40
0.38
  9
$DIMRND
 40
0.0
  9
$DIMDLE
 40
0.0
  9
$DIMEXE
 40
0.18
  9
$DIMTP
 40
0.0
  9
$DIMTM
 40
0.0
  9
$DIMTXT
 40
0.18
  9
$DIMCEN
 40
0.09
  9
$DIMTSZ
 40
0.0
  9
$DIMTOL
 70
     0
  9
$DIMLIM
 70
     0
  9
$DIMTIH
 70
     1
  9
$DIMTOH
 70
     1
  9
$DIMSE1
 70
     0
  9
$DIMSE2
 70
     0
  9
$DIMTAD
 70
     0
  9
$DIMZIN
 70
     0
  9
$DIMBLK
  1

  9
$DIMASO
 70
     1
  9
$DIMSHO
 70
     1
  9
$DIMPOST
  1

  9
$DIMAPOST
  1

  9
$DIMALT
 70
     0
  9
$DIMALTD
 70
     2
  9
$DIMALTF
 40
25.4
  9
$DIMLFAC
 40
1.0
  9
$DIMTOFL
 70
     0
  9
$DIMTVP
 40
0.0
  9
$DIMTIX
 70
     0
  9
$DIMSOXD
 70
     0
  9
$DIMSAH
 70
     0
  9
$DIMBLK1
  1

  9
$DIMBLK2
  1

  9
$DIMSTYLE
  2
Standard
  9
$DIMCLRD
 70
     0
  9
$DIMCLRE
 70
     0
  9
$DIMCLRT
 70
     0
  9
$DIMTFAC
 40
1.0
  9
$DIMGAP
 40
0.09
  9
$DIMJUST
 70
     0
  9
$DIMSD1
 70
     0
  9
$DIMSD2
 70
     0
  9
$DIMTOLJ
 70
     1
  9
$DIMTZIN
 70
     0
  9
$DIMALTZ
 70
     0
  9
$DIMALTTZ
 70
     0
  9
$DIMUPT
 70
     0
  9
$DIMDEC
 70
     4
  9
$DIMTDEC
 70
     4
  9
$DIMALTU
 70
     2
  9
$DIMALTTD
 70
     2
  9
$DIMTXSTY
  7
Standard
  9
$DIMAUNIT
 70
     0
  9
$DIMADEC
 70
     0
  9
$DIMALTRND
 40
0.0
  9
$DIMAZIN
 70
     0
  9
$DIMDSEP
 70
    46
  9
$DIMATFIT
 70
     3
  9
$DIMFRAC
 70
     0
  9
$DIMLDRBLK
  1

  9
$DIMLUNIT
 70
     2
  9
$DIMLWD
 70
    -2
  9
$DIMLWE
 70
    -2
  9
$DIMTMOVE
 70
     0
  9
$DIMFXL
 40
1.0
  9
$DIMFXLON
 70
     0
  9
$DIMJOGANG
 40
0.7853981633974483
  9
$DIMTFILL
 70
     0
  9
$DIMTFILLCLR
 70
     0
  9
$DIMARCSYM
 70
     0
  9
$DIMLTYPE
  6

  9
$DIMLTEX1
  6

  9
$DIMLTEX2
  6

  9
$LUNITS
 70
     2
  9
$LUPREC
 70
     4
  9
$SKETCHINC
 40
0.1
  9
$FILLETRAD
 40
0.5
  9
$AUNITS
 70
     0
  9
$AUPREC
 70
     0
  9
$MENU
  1
.
  9
$ELEVATION
 40
0.0
  9
$PELEVATION
 40
0.0
  9
$THICKNESS
 40
0.0
  9
$LIMCHECK
 70
     0
  9
$CHAMFERA
 40
0.5
  9
$CHAMFERB
 40
0.5
  9
$CHAMFERC
 40
1.0
  9
$CHAMFERD
 40
0.0
  9
$SKPOLY
 70
     0
  9
$TDCREATE
 40
2460555.196561528
  9
$TDUCREATE
 40
2460555.154894861
  9
$TDUPDATE
 40
2460555.196561562
  9
$TDUUPDATE
 40
2460555.154894896
  9
$TDINDWG
 40
0.0000000116
  9
$TDUSRTIMER
 40
0.0000000116
  9
$USRTIMER
 70
     1
  9
$ANGBASE
 50
0.0
  9
$ANGDIR
 70
     0
  9
$PDMODE
 70
     0
  9
$PDSIZE
 40
0.0
  9
$PLINEWID
 40
0.0
  9
$SPLFRAME
 70
     0
  9
$SPLINETYPE
 70
     6
  9
$SPLINESEGS
 70
     8
  9
$HANDSEED
  5
77
  9
$SURFTAB1
 70
     6
  9
$SURFTAB2
 70
     6
  9
$SURFTYPE
 70
     6
  9
$SURFU
 70
     6
  9
$SURFV
 70
     6
  9
$UCSBASE
  2

  9
$UCSNAME
  2

  9
$UCSORG
 10
0.0
 20
0.0
 30
0.0
  9
$UCSXDIR
 10
1.0
 20
0.0
 30
0.0
  9
$UCSYDIR
 10
0.0
 20
1.0
 30
0.0
  9
$UCSORTHOREF
  2

  9
$UCSORTHOVIEW
 70
     0
  9
$UCSORGTOP
 10
0.0
 20
0.0
 30
0.0
  9
$UCSORGBOTTOM
 10
0.0
 20
0.0
 30
0.0
  9
$UCSORGLEFT
 10
0.0
 20
0.0
 30
0.0
  9
$UCSORGRIGHT
 10
0.0
 20
0.0
 30
0.0
  9
$UCSORGFRONT
 10
0.0
 20
0.0
 30
0.0
  9
$UCSORGBACK
 10
0.0
 20
0.0
 30
0.0
  9
$PUCSBASE
  2

  9
$PUCSNAME
  2

  9
$PUCSORG
 10
0.0
 20
0.0
 30
0.0
  9
$PUCSXDIR
 10
1.0
 20
0.0
 30
0.0
  9
$PUCSYDIR
 10
0.0
 20
1.0
 30
0.0
  9
$PUCSORTHOREF
  2

  9
$PUCSORTHOVIEW
 70
     0
  9
$PUCSORGTOP
 10
0.0
 20
0.0
 30
0.0
  9
$PUCSORGBOTTOM
 10
0.0
 20
0.0
 30
0.0
  9
$PUCSORGLEFT
 10
0.0
 20
0.0
 30
0.0
  9
$PUCSORGRIGHT
 10
0.0
 20
0.0
 30
0.0
  9
$PUCSORGFRONT
 10
0.0
 20
0.0
 30
0.0
  9
$PUCSORGBACK
 10
0.0
 20
0.0
 30
0.0
  9
$USERI1
 70
     0
  9
$USERI2
 70
     0
  9
$USERI3
 70
     0
  9
$USERI4
 70
     0
  9
$USERI5
 70
     0
  9
$USERR1
 40
0.0
  9
$USERR2
 40
0.0
  9
$USERR3
 40
0.0
  9
$USERR4
 40
0.0
  9
$USERR5
 40
0.0
  9
$WORLDVIEW
 70
     1
  9
$SHADEDGE
 70
     3
  9
$SHADEDIF
 70
    70
  9
$TILEMODE
 70
     1
  9
$MAXACTVP
 70
    64
  9
$PINSBASE
 10
0.0
 20
0.0
 30
0.0
  9
$PLIMCHECK
 70
     0
  9
$PEXTMIN
 10
1.000000000000000E+20
 20
1.000000000000000E+20
 30
1.000000000000000E+20
  9
$PEXTMAX
 10
-1.000000000000000E+20
 20
-1.000000000000000E+20
 30
-1.000000000000000E+20
  9
$PLIMMIN
 10
0.0
 20
0.0
  9
$PLIMMAX
 10
12.0
 20
9.0
  9
$UNITMODE
 70
     0
  9
$VISRETAIN
 70
     1
  9
$PLINEGEN
 70
     0
  9
$PSLTSCALE
 70
     1
  9
$TREEDEPTH
 70
  3020
  9
$CMLSTYLE
  2
Standard
  9
$CMLJUST
 70
     0
  9
$CMLSCALE
 40
1.0
  9
$PROXYGRAPHICS
 70
     1
  9
$MEASUREMENT
 70
     0
  9
$CELWEIGHT
370
    -1
  9
$ENDCAPS
280
     0
  9
$JOINSTYLE
280
     0
  9
$LWDISPLAY
290
     0
  9
$INSUNITS
 70
     5
  9
$HYPERLINKBASE
  1

  9
$STYLESHEET
  1

  9
$XEDIT
290
     1
  9
$CEPSNTYPE
380
     0
  9
$PSTYLEMODE
290
     1
  9
$FINGERPRINTGUID
  2
{ECA183F8-A7D4-4C83-983B-E4431E9FA5EF}
  9
$VERSIONGUID
  2
{FAEB1C32-E019-11D5-929B-00C0DF256EC4}
  9
$EXTNAMES
290
     1
  9
$PSVPSCALE
 40
0.0
  9
$OLESTARTUP
290
     0
  9
$SORTENTS
280
   127
  9
$INDEXCTL
280
     0
  9
$HIDETEXT
280
     1
  9
$XCLIPFRAME
290
     0
  9
$HALOGAP
280
     0
  9
$OBSCOLOR
 70
   257
  9
$OBSLTYPE
280
     0
  9
$INTERSECTIONDISPLAY
280
     0
  9
$INTERSECTIONCOLOR
 70
   257
  9
$DIMASSOC
280
     2
  9
$PROJECTNAME
  1

  9
$CAMERADISPLAY
290
     0
  9
$LENSLENGTH
 40
50.0
  9
$CAMERAHEIGHT
 40
0.0
  9
$STEPSPERSEC
 40
2.0
  9
$STEPSIZE
 40
6.0
  9
$3DDWFPREC
 40
2.0
  9
$PSOLWIDTH
 40
0.25
  9
$PSOLHEIGHT
 40
4.0
  9
$LOFTANG1
 40
1.570796326794897
  9
$LOFTANG2
 40
1.570796326794897
  9
$LOFTMAG1
 40
0.0
  9
$LOFTMAG2
 40
0.0
  9
$LOFTPARAM
 70
     7
  9
$LOFTNORMALS
280
     1
  9
$LATITUDE
 40
37.795
  9
$LONGITUDE
 40
-122.394
  9
$NORTHDIRECTION
 40
0.0
  9
$TIMEZONE
 70
 -8000
  9
$LIGHTGLYPHDISPLAY
280
     1
  9
$TILEMODELIGHTSYNCH
280
     1
  9
$SOLIDHIST
280
     1
  9
$SHOWHIST
280
     1
  9
$DWFFRAME
280
     2
  9
$DGNFRAME
280
     2
  9
$REALWORLDSCALE
290
     1
  9
$INTERFERECOLOR
 62
   256
  9
$CSHADOW
280
     0
  9
$SHADOWPLANELOCATION
 40
0.0
  0
ENDSEC
  0
SECTION
  2
CLASSES
  0
CLASS
  1
ACDBDICTIONARYWDFLT
  2
AcDbDictionaryWithDefault
  3
ObjectDBX Classes
 90
        0
 91
        4
280
     0
281
     0
  0
CLASS
  1
VISUALSTYLE
  2
AcDbVisualStyle
  3
ObjectDBX Classes
 90
     4095
 91
        4
280
     0
281
     0
  0
CLASS
  1
MATERIAL
  2
AcDbMaterial
  3
ObjectDBX Classes
 90
     1153
 91
        4
280
     0
281
     0
  0
ENDSEC
  0
SECTION
  2
TABLES
  0
TABLE
  2
VPORT
  5
8
330
0
100
AcDbSymbolTable
 70
     1
  0
VPORT
  5
29
330
8
100
AcDbSymbolTableRecord
100
AcDbViewportTableRecord
  2
*Active
 70
     0
 10
0.0
 20
0.0
 11
1.0
 21
1.0
 12
10.42990654205607
 22
4.5
 13
0.0
 23
0.0
 14
0.5
 24
0.5
 15
0.5
 25
0.5
 16
0.0
 26
0.0
 36
1.0
 17
0.0
 27
0.0
 37
0.0
 40
9.0
 41
1.972972972850329
 42
50.0
 43
0.0
 44
0.0
 50
0.0
 51
0.0
 71
     0
 72
   100
 73
     1
 74
     3
 75
     0
 76
     0
 77
     0
 78
     0
281
     0
 65
     1
110
0.0
120
0.0
130
0.0
111
1.0
121
0.0
131
0.0
112
0.0
122
1.0
132
0.0
 79
     0
146
0.0
 60
     3
 61
     5
292
     1
282
     1
141
0.0
142
0.0
 63
   250
  0
ENDTAB
  0
TABLE
  2
LTYPE
  5
5
330
0
100
AcDbSymbolTable
 70
     1
  0
LTYPE
  5
14
330
5
100
AcDbSymbolTableRecord
100
AcDbLinetypeTableRecord
  2
ByBlock
 70
     0
  3

 72
    65
 73
     0
 40
0.0
  0
LTYPE
  5
15
330
5
100
AcDbSymbolTableRecord
100
AcDbLinetypeTableRecord
  2
ByLayer
 70
     0
  3

 72
    65
 73
     0
 40
0.0
  0
LTYPE
  5
16
330
5
100
AcDbSymbolTableRecord
100
AcDbLinetypeTableRecord
  2
Continuous
 70
     0
  3
Solid line
 72
    65
 73
     0
 40
0.0
  0
ENDTAB
  0
TABLE
  2
LAYER
  5
2
330
0
100
AcDbSymbolTable
 70
     2
  0
LAYER
  5
10
330
2
100
AcDbSymbolTableRecord
100
AcDbLayerTableRecord
  2
0
 70
     0
 62
     7
  6
Continuous
370
    -3
390
F
347
3E
  0
LAYER
  5
40
330
2
100
AcDbSymbolTableRecord
100
AcDbLayerTableRecord
  2
Layer 1
 70
     0
 62
     7
  6
Continuous
370
    -3
390
F
347
3E
  0
ENDTAB
  0
TABLE
  2
STYLE
  5
3
330
0
100
AcDbSymbolTable
 70
     1
  0
STYLE
  5
11
330
3
100
AcDbSymbolTableRecord
100
AcDbTextStyleTableRecord
  2
Standard
 70
     0
 40
0.0
 41
1.0
 50
0.0
 71
     0
 42
0.2
  3
txt
  4

  0
ENDTAB
  0
TABLE
  2
VIEW
  5
6
330
0
100
AcDbSymbolTable
 70
     0
  0
ENDTAB
  0
TABLE
  2
UCS
  5
7
330
0
100
AcDbSymbolTable
 70
     0
  0
ENDTAB
  0
TABLE
  2
APPID
  5
9
330
0
100
AcDbSymbolTable
 70
     2
  0
APPID
  5
12
330
9
100
AcDbSymbolTableRecord
100
AcDbRegAppTableRecord
  2
ACAD
 70
     0
  0
APPID
  5
3F
330
9
100
AcDbSymbolTableRecord
100
AcDbRegAppTableRecord
  2
ODA
 70
     0
  0
ENDTAB
  0
TABLE
  2
DIMSTYLE
  5
A
330
0
100
AcDbSymbolTable
 70
     1
100
AcDbDimStyleTable
  0
DIMSTYLE
105
27
330
A
100
AcDbSymbolTableRecord
100
AcDbDimStyleTableRecord
  2
Standard
 70
     0
178
     0
340
11
  0
ENDTAB
  0
TABLE
  2
BLOCK_RECORD
  5
1
330
0
100
AcDbSymbolTable
 70
     1
  0
BLOCK_RECORD
  5
1F
330
1
100
AcDbSymbolTableRecord
100
AcDbBlockTableRecord
  2
*Model_Space
340
22
 70
     0
280
     1
281
     0
  0
BLOCK_RECORD
  5
1B
330
1
100
AcDbSymbolTableRecord
100
AcDbBlockTableRecord
  2
*Paper_Space
340
1E
 70
     0
280
     1
281
     0
  0
BLOCK_RECORD
  5
23
330
1
100
AcDbSymbolTableRecord
100
AcDbBlockTableRecord
  2
*Paper_Space0
340
26
 70
     0
280
     1
281
     0
  0
ENDTAB
  0
ENDSEC
  0
SECTION
  2
BLOCKS
  0
BLOCK
  5
20
330
1F
100
AcDbEntity
  8
0
100
AcDbBlockBegin
  2
*Model_Space
 70
     0
 10
0.0
 20
0.0
 30
0.0
  3
*Model_Space
  1

  0
ENDBLK
  5
21
330
1F
100
AcDbEntity
  8
0
100
AcDbBlockEnd
  0
BLOCK
  5
1C
330
1B
100
AcDbEntity
 67
     1
  8
0
100
AcDbBlockBegin
  2
*Paper_Space
 70
     0
 10
0.0
 20
0.0
 30
0.0
  3
*Paper_Space
  1

  0
ENDBLK
  5
1D
330
1B
100
AcDbEntity
 67
     1
  8
0
100
AcDbBlockEnd
  0
BLOCK
  5
24
330
23
100
AcDbEntity
  8
0
100
AcDbBlockBegin
  2
*Paper_Space0
 70
     0
 10
0.0
 20
0.0
 30
0.0
  3
*Paper_Space0
  1

  0
ENDBLK
  5
25
330
23
100
AcDbEntity
  8
0
100
AcDbBlockEnd
  0
ENDSEC
  0
SECTION
  2
ENTITIES
  0
SPLINE
  5
41
330
1F
100
AcDbEntity
  8
Layer 1
370
    53
100
AcDbSpline
210
0.0
220
0.0
230
1.0
 70
    11
 71
     3
 72
    20
 73
    16
 74
     0
 42
0.0000000001
 43
0.0000000001
 12
1.0
 22
0.0
 32
0.0
 13
1.0
 23
0.0
 33
0.0
 40
0.0
 40
0.0
 40
0.0
 40
0.0
 40
0.2
 40
0.2
 40
0.2
 40
0.2
 40
0.4
 40
0.4
 40
0.4
 40
0.4
 40
0.6
 40
0.6
 40
0.6
 40
0.6
 40
1.0
 40
1.0
 40
1.0
 40
1.0
 10
-1.3
 20
-4.0
 30
0.0
 10
-1.3
 20
-3.83432
 30
0.0
 10
-1.16568
 20
-3.7
 30
0.0
 10
-1.0
 20
-3.7
 30
0.0
 10
-1.0
 20
-3.7
 30
0.0
 10
-0.83432
 20
-3.7
 30
0.0
 10
-0.7
 20
-3.83432
 30
0.0
 10
-0.7
 20
-4.0
 30
0.0
 10
-0.7
 20
-4.0
 30
0.0
 10
-0.7
 20
-4.16568
 30
0.0
 10
-0.83432
 20
-4.3
 30
0.0
 10
-1.0
 20
-4.3
 30
0.0
 10
-1.0
 20
-4.3
 30
0.0
 10
-1.16568
 20
-4.3
 30
0.0
 10
-1.3
 20
-4.16568
 30
0.0
 10
-1.3
 20
-4.0
 30
0.0
  0
SPLINE
  5
42
330
1F
100
AcDbEntity
  8
Layer 1
370
    53
100
AcDbSpline
210
0.0
220
0.0
230
1.0
 70
    11
 71
     3
 72
    20
 73
    16
 74
     0
 42
0.0000000001
 43
0.0000000001
 12
1.0
 22
0.0
 32
0.0
 13
1.0
 23
0.0
 33
0.0
 40
0.0
 40
0.0
 40
0.0
 40
0.0
 40
0.2
 40
0.2
 40
0.2
 40
0.2
 40
0.4
 40
0.4
 40
0.4
 40
0.4
 40
0.6
 40
0.6
 40
0.6
 40
0.6
 40
1.0
 40
1.0
 40
1.0
 40
1.0
 10
0.2
 20
-4.0
 30
0.0
 10
0.2
 20
-3.83432
 30
0.0
 10
0.33432
 20
-3.7
 30
0.0
 10
0.5
 20
-3.7
 30
0.0
 10
0.5
 20
-3.7
 30
0.0
 10
0.66568
 20
-3.7
 30
0.0
 10
0.8
 20
-3.83432
 30
0.0
 10
0.8
 20
-4.0
 30
0.0
 10
0.8
 20
-4.0
 30
0.0
 10
0.8
 20
-4.16568
 30
0.0
 10
0.66568
 20
-4.3
 30
0.0
 10
0.5
 20
-4.3
 30
0.0
 10
0.5
 20
-4.3
 30
0.0
 10
0.33432
 20
-4.3
 30
0.0
 10
0.2
 20
-4.16568
 30
0.0
 10
0.2
 20
-4.0
 30
0.0
  0
SPLINE
  5
43
330
1F
100
AcDbEntity
  8
Layer 1
370
    53
100
AcDbSpline
210
0.0
220
0.0
230
1.0
 70
    11
 71
     3
 72
    20
 73
    16
 74
     0
 42
0.0000000001
 43
0.0000000001
 12
1.0
 22
0.0
 32
0.0
 13
1.0
 23
0.0
 33
0.0
 40
0.0
 40
0.0
 40
0.0
 40
0.0
 40
0.2
 40
0.2
 40
0.2
 40
0.2
 40
0.4
 40
0.4
 40
0.4
 40
0.4
 40
0.6
 40
0.6
 40
0.6
 40
0.6
 40
1.0
 40
1.0
 40
1.0
 40
1.0
 10
-2.8
 20
-4.0
 30
0.0
 10
-2.8
 20
-3.83432
 30
0.0
 10
-2.66568
 20
-3.7
 30
0.0
 10
-2.5
 20
-3.7
 30
0.0
 10
-2.5
 20
-3.7
 30
0.0
 10
-2.33432
 20
-3.7
 30
0.0
 10
-2.2
 20
-3.83432
 30
0.0
 10
-2.2
 20
-4.0
 30
0.0
 10
-2.2
 20
-4.0
 30
0.0
 10
-2.2
 20
-4.16568
 30
0.0
 10
-2.33432
 20
-4.3
 30
0.0
 10
-2.5
 20
-4.3
 30
0.0
 10
-2.5
 20
-4.3
 30
0.0
 10
-2.66568
 20
-4.3
 30
0.0
 10
-2.8
 20
-4.16568
 30
0.0
 10
-2.8
 20
-4.0
 30
0.0
  0
SPLINE
  5
44
330
1F
100
AcDbEntity
  8
Layer 1
 62
     5
370
    53
100
AcDbSpline
210
0.0
220
0.0
230
1.0
 70
    11
 71
     3
 72
    16
 73
    12
 74
     0
 42
0.0000000001
 43
0.0000000001
 12
1.0
 22
0.0
 32
0.0
 13
1.0
 23
0.0
 33
0.0
 40
0.0
 40
0.0
 40
0.0
 40
0.0
 40
0.25
 40
0.25
 40
0.25
 40
0.25
 40
0.5
 40
0.5
 40
0.5
 40
0.5
 40
1.0
 40
1.0
 40
1.0
 40
1.0
 10
-1.70377
 20
-0.70701
 30
0.0
 10
-1.78273
 20
-0.76361
 30
0.0
 10
-1.8884
 20
-0.70776
 30
0.0
 10
-1.90408
 20
-0.61539
 30
0.0
 10
-1.90408
 20
-0.61539
 30
0.0
 10
-1.92442
 20
-0.49566
 30
0.0
 10
-1.75675
 20
-0.42924
 30
0.0
 10
-1.67981
 20
-0.51855
 30
0.0
 10
-1.67981
 20
-0.51855
 30
0.0
 10
-1.63343
 20
-0.57242
 30
0.0
 10
-1.64552
 20
-0.66525
 30
0.0
 10
-1.70377
 20
-0.70701
 30
0.0
  0
SPLINE
  5
45
330
1F
100
AcDbEntity
  8
Layer 1
 62
     5
370
    53
100
AcDbSpline
210
0.0
220
0.0
230
1.0
 70
    11
 71
     3
 72
    16
 73
    12
 74
     0
 42
0.0000000001
 43
0.0000000001
 12
1.0
 22
0.0
 32
0.0
 13
1.0
 23
0.0
 33
0.0
 40
0.0
 40
0.0
 40
0.0
 40
0.0
 40
0.25
 40
0.25
 40
0.25
 40
0.25
 40
0.5
 40
0.5
 40
0.5
 40
0.5
 40
1.0
 40
1.0
 40
1.0
 40
1.0
 10
-1.77939
 20
-0.55716
 30
0.0
 10
-1.7843
 20
-0.53941
 30
0.0
 10
-1.80267
 20
-0.52599
 30
0.0
 10
-1.82696
 20
-0.53265
 30
0.0
 10
-1.82696
 20
-0.53265
 30
0.0
 10
-1.876
 20
-0.54612
 30
0.0
 10
-1.8592
 20
-0.61828
 30
0.0
 10
-1.80823
 20
-0.60846
 30
0.0
 10
-1.80823
 20
-0.60846
 30
0.0
 10
-1.78505
 20
-0.60396
 30
0.0
 10
-1.77379
 20
-0.57738
 30
0.0
 10
-1.77939
 20
-0.55716
 30
0.0
  0
SPLINE
  5
46
330
1F
100
AcDbEntity
  8
Layer 1
 62
     5
370
    53
100
AcDbSpline
210
0.0
220
0.0
230
1.0
 70
    11
 71
     3
 72
    20
 73
    16
 74
     0
 42
0.0000000001
 43
0.0000000001
 12
1.0
 22
0.0
 32
0.0
 13
1.0
 23
0.0
 33
0.0
 40
0.0
 40
0.0
 40
0.0
 40
0.0
 40
0.2
 40
0.2
 40
0.2
 40
0.2
 40
0.4
 40
0.4
 40
0.4
 40
0.4
 40
0.6
 40
0.6
 40
0.6
 40
0.6
 40
1.0
 40
1.0
 40
1.0
 40
1.0
 10
-0.01966
 20
-0.63822
 30
0.0
 10
-0.03355
 20
-0.67943
 30
0.0
 10
-0.06477
 20
-0.7148
 30
0.0
 10
-0.10711
 20
-0.72604
 30
0.0
 10
-0.10711
 20
-0.72604
 30
0.0
 10
-0.19951
 20
-0.7506
 30
0.0
 10
-0.30284
 20
-0.64916
 30
0.0
 10
-0.26726
 20
-0.55476
 30
0.0
 10
-0.26726
 20
-0.55476
 30
0.0
 10
-0.2384
 20
-0.45802
 30
0.0
 10
-0.09472
 20
-0.43989
 30
0.0
 10
-0.03604
 20
-0.5154
 30
0.0
 10
-0.03604
 20
-0.5154
 30
0.0
 10
-0.00919
 20
-0.54999
 30
0.0
 10
-0.00578
 20
-0.59703
 30
0.0
 10
-0.01966
 20
-0.63822
 30
0.0
  0
SPLINE
  5
47
330
1F
100
AcDbEntity
  8
Layer 1
 62
     5
370
    53
100
AcDbSpline
210
0.0
220
0.0
230
1.0
 70
    11
 71
     3
 72
    24
 73
    20
 74
     0
 42
0.0000000001
 43
0.0000000001
 12
1.0
 22
0.0
 32
0.0
 13
1.0
 23
0.0
 33
0.0
 40
0.0
 40
0.0
 40
0.0
 40
0.0
 40
0.1666666666666667
 40
0.1666666666666667
 40
0.1666666666666667
 40
0.1666666666666667
 40
0.3333333333333333
 40
0.3333333333333333
 40
0.3333333333333333
 40
0.3333333333333333
 40
0.5
 40
0.5
 40
0.5
 40
0.5
 40
0.6666666666666666
 40
0.6666666666666666
 40
0.6666666666666666
 40
0.6666666666666666
 40
1.0
 40
1.0
 40
1.0
 40
1.0
 10
-0.19799
 20
-0.5352
 30
0.0
 10
-0.18496
 20
-0.52542
 30
0.0
 10
-0.16644
 20
-0.52255
 30
0.0
 10
-0.15251
 20
-0.53184
 30
0.0
 10
-0.15251
 20
-0.53184
 30
0.0
 10
-0.13332
 20
-0.54462
 30
0.0
 10
-0.13076
 20
-0.57367
 30
0.0
 10
-0.1465
 20
-0.59023
 30
0.0
 10
-0.1465
 20
-0.59023
 30
0.0
 10
-0.15867
 20
-0.60303
 30
0.0
 10
-0.18006
 20
-0.60579
 30
0.0
 10
-0.19507
 20
-0.5965
 30
0.0
 10
-0.19507
 20
-0.5965
 30
0.0
 10
-0.20507
 20
-0.59031
 30
0.0
 10
-0.21153
 20
-0.5792
 30
0.0
 10
-0.21298
 20
-0.56763
 30
0.0
 10
-0.21298
 20
-0.56763
 30
0.0
 10
-0.2146
 20
-0.55436
 30
0.0
 10
-0.20858
 20
-0.54317
 30
0.0
 10
-0.19799
 20
-0.5352
 30
0.0
  0
SPLINE
  5
48
330
1F
100
AcDbEntity
  8
Layer 1
 62
     5
370
    53
100
AcDbSpline
210
0.0
220
0.0
230
1.0
 70
    11
 71
     3
 72
    20
 73
    16
 74
     0
 42
0.0000000001
 43
0.0000000001
 12
1.0
 22
0.0
 32
0.0
 13
1.0
 23
0.0
 33
0.0
 40
0.0
 40
0.0
 40
0.0
 40
0.0
 40
0.2
 40
0.2
 40
0.2
 40
0.2
 40
0.4
 40
0.4
 40
0.4
 40
0.4
 40
0.6
 40
0.6
 40
0.6
 40
0.6
 40
1.0
 40
1.0
 40
1.0
 40
1.0
 10
-1.01773
 20
-0.54415
 30
0.0
 10
-1.01773
 20
-0.10441
 30
0.0
 10
-1.3742
 20
0.25206
 30
0.0
 10
-1.81394
 20
0.25206
 30
0.0
 10
-1.81394
 20
0.25206
 30
0.0
 10
-2.25368
 20
0.25206
 30
0.0
 10
-2.6102
 20
-0.10441
 30
0.0
 10
-2.6102
 20
-0.54415
 30
0.0
 10
-2.6102
 20
-0.54415
 30
0.0
 10
-2.6102
 20
-0.98389
 30
0.0
 10
-2.25368
 20
-1.34037
 30
0.0
 10
-1.81394
 20
-1.34037
 30
0.0
 10
-1.81394
 20
-1.34037
 30
0.0
 10
-1.3742
 20
-1.34037
 30
0.0
 10
-1.01773
 20
-0.98389
 30
0.0
 10
-1.01773
 20
-0.54415
 30
0.0
  0
SPLINE
  5
49
330
1F
100
AcDbEntity
  8
Layer 1
 62
     5
370
    53
100
AcDbSpline
210
0.0
220
0.0
230
1.0
 70
    11
 71
     3
 72
    20
 73
    16
 74
     0
 42
0.0000000001
 43
0.0000000001
 12
1.0
 22
0.0
 32
0.0
 13
1.0
 23
0.0
 33
0.0
 40
0.0
 40
0.0
 40
0.0
 40
0.0
 40
0.2
 40
0.2
 40
0.2
 40
0.2
 40
0.4
 40
0.4
 40
0.4
 40
0.4
 40
0.6
 40
0.6
 40
0.6
 40
0.6
 40
1.0
 40
1.0
 40
1.0
 40
1.0
 10
0.65317
 20
-0.54415
 30
0.0
 10
0.65317
 20
-0.10441
 30
0.0
 10
0.29669
 20
0.25206
 30
0.0
 10
-0.14305
 20
0.25206
 30
0.0
 10
-0.14305
 20
0.25206
 30
0.0
 10
-0.5828
 20
0.25206
 30
0.0
 10
-0.93929
 20
-0.10441
 30
0.0
 10
-0.93929
 20
-0.54415
 30
0.0
 10
-0.93929
 20
-0.54415
 30
0.0
 10
-0.93929
 20
-0.98389
 30
0.0
 10
-0.5828
 20
-1.34037
 30
0.0
 10
-0.14305
 20
-1.34037
 30
0.0
 10
-0.14305
 20
-1.34037
 30
0.0
 10
0.29669
 20
-1.34037
 30
0.0
 10
0.65317
 20
-0.98389
 30
0.0
 10
0.65317
 20
-0.54415
 30
0.0
  0
SPLINE
  5
4A
330
1F
100
AcDbEntity
  8
Layer 1
 62
     5
370
    53
100
AcDbSpline
210
0.0
220
0.0
230
1.0
 70
     8
 71
     3
 72
    36
 73
    32
 74
     0
 42
0.0000000001
 43
0.0000000001
 12
1.0
 22
0.0
 32
0.0
 13
1.0
 23
0.0
 33
0.0
 40
0.0
 40
0.0
 40
0.0
 40
0.0
 40
0.1111111111111111
 40
0.1111111111111111
 40
0.1111111111111111
 40
0.1111111111111111
 40
0.2222222222222222
 40
0.2222222222222222
 40
0.2222222222222222
 40
0.2222222222222222
 40
0.3333333333333333
 40
0.3333333333333333
 40
0.3333333333333333
 40
0.3333333333333333
 40
0.4444444444444444
 40
0.4444444444444444
 40
0.4444444444444444
 40
0.4444444444444444
 40
0.5555555555555556
 40
0.5555555555555556
 40
0.5555555555555556
 40
0.5555555555555556
 40
0.6666666666666666
 40
0.6666666666666666
 40
0.6666666666666666
 40
0.6666666666666666
 40
0.7777777777777778
 40
0.7777777777777778
 40
0.7777777777777778
 40
0.7777777777777778
 40
1.0
 40
1.0
 40
1.0
 40
1.0
 10
-2.88953
 20
-1.17385
 30
0.0
 10
-2.87475
 20
-1.13331
 30
0.0
 10
-2.85721
 20
-1.08397
 30
0.0
 10
-2.84584
 20
-1.05103
 30
0.0
 10
-2.84584
 20
-1.05103
 30
0.0
 10
-2.83119
 20
-1.06074
 30
0.0
 10
-2.82677
 20
-1.07526
 30
0.0
 10
-2.83266
 20
-1.09458
 30
0.0
 10
-2.83266
 20
-1.09458
 30
0.0
 10
-2.83266
 20
-1.09458
 30
0.0
 10
-2.83266
 20
-1.10781
 30
0.0
 10
-2.83266
 20
-1.10781
 30
0.0
 10
-2.83266
 20
-1.10781
 30
0.0
 10
-2.87716
 20
-0.93184
 30
0.0
 10
-2.83457
 20
-0.7303
 30
0.0
 10
-2.83003
 20
-0.55136
 30
0.0
 10
-2.83003
 20
-0.55136
 30
0.0
 10
-2.76985
 20
-0.63063
 30
0.0
 10
-2.73758
 20
-0.74446
 30
0.0
 10
-2.67854
 20
-0.82912
 30
0.0
 10
-2.67854
 20
-0.82912
 30
0.0
 10
-2.74641
 20
-0.51056
 30
0.0
 10
-2.73595
 20
-0.15198
 30
0.0
 10
-2.69427
 20
0.16944
 30
0.0
 10
-2.69427
 20
0.16944
 30
0.0
 10
-2.67691
 20
0.30316
 30
0.0
 10
-2.66668
 20
0.45553
 30
0.0
 10
-2.62133
 20
0.58317
 30
0.0
 10
-2.62133
 20
0.58317
 30
0.0
 10
-2.59079
 20
0.66916
 30
0.0
 10
-2.49721
 20
0.74205
 30
0.0
 10
-2.47486
 20
0.82397
 30
0.0
  0
SPLINE
  5
4B
330
1F
100
AcDbEntity
  8
Layer 1
 62
     5
370
    53
100
AcDbSpline
210
0.0
220
0.0
230
1.0
 70
     8
 71
     3
 72
    24
 73
    20
 74
     0
 42
0.0000000001
 43
0.0000000001
 12
1.0
 22
0.0
 32
0.0
 13
1.0
 23
0.0
 33
0.0
 40
0.0
 40
0.0
 40
0.0
 40
0.0
 40
0.1666666666666667
 40
0.1666666666666667
 40
0.1666666666666667
 40
0.1666666666666667
 40
0.3333333333333333
 40
0.3333333333333333
 40
0.3333333333333333
 40
0.3333333333333333
 40
0.5
 40
0.5
 40
0.5
 40
0.5
 40
0.6666666666666666
 40
0.6666666666666666
 40
0.6666666666666666
 40
0.6666666666666666
 40
1.0
 40
1.0
 40
1.0
 40
1.0
 10
0.63557
 20
0.92145
 30
0.0
 10
0.36722
 20
0.90246
 30
0.0
 10
0.56494
 20
0.62859
 30
0.0
 10
0.64051
 20
0.50628
 30
0.0
 10
0.64051
 20
0.50628
 30
0.0
 10
0.74684
 20
0.3342
 30
0.0
 10
0.74978
 20
0.21054
 30
0.0
 10
0.75245
 20
0.2151
 30
0.0
 10
0.75245
 20
0.2151
 30
0.0
 10
0.77528
 20
0.18118
 30
0.0
 10
0.75245
 20
-0.05286
 30
0.0
 10
0.75245
 20
-0.14327
 30
0.0
 10
0.75245
 20
-0.14327
 30
0.0
 10
0.75245
 20
-0.14327
 30
0.0
 10
0.75245
 20
-0.53895
 30
0.0
 10
0.75245
 20
-0.53895
 30
0.0
 10
0.75245
 20
-0.53895
 30
0.0
 10
0.75245
 20
-0.70125
 30
0.0
 10
0.74389
 20
-0.86728
 30
0.0
 10
0.75515
 20
-1.02859
 30
0.0
  0
SPLINE
  5
4C
330
1F
100
AcDbEntity
  8
Layer 1
 62
     5
370
    53
100
AcDbSpline
210
0.0
220
0.0
230
1.0
 70
     8
 71
     3
 72
    64
 73
    60
 74
     0
 42
0.0000000001
 43
0.0000000001
 12
1.0
 22
0.0
 32
0.0
 13
1.0
 23
0.0
 33
0.0
 40
0.0
 40
0.0
 40
0.0
 40
0.0
 40
0.0625
 40
0.0625
 40
0.0625
 40
0.0625
 40
0.125
 40
0.125
 40
0.125
 40
0.125
 40
0.1875
 40
0.1875
 40
0.1875
 40
0.1875
 40
0.25
 40
0.25
 40
0.25
 40
0.25
 40
0.3125
 40
0.3125
 40
0.3125
 40
0.3125
 40
0.375
 40
0.375
 40
0.375
 40
0.375
 40
0.4375
 40
0.4375
 40
0.4375
 40
0.4375
 40
0.5
 40
0.5
 40
0.5
 40
0.5
 40
0.5625
 40
0.5625
 40
0.5625
 40
0.5625
 40
0.625
 40
0.625
 40
0.625
 40
0.625
 40
0.6875
 40
0.6875
 40
0.6875
 40
0.6875
 40
0.75
 40
0.75
 40
0.75
 40
0.75
 40
0.8125
 40
0.8125
 40
0.8125
 40
0.8125
 40
0.875
 40
0.875
 40
0.875
 40
0.875
 40
1.0
 40
1.0
 40
1.0
 40
1.0
 10
-2.47505
 20
1.11453
 30
0.0
 10
-2.6113
 20
0.88625
 30
0.0
 10
-2.39015
 20
0.73621
 30
0.0
 10
-2.18004
 20
0.63276
 30
0.0
 10
-2.18004
 20
0.63276
 30
0.0
 10
-2.07385
 20
0.58047
 30
0.0
 10
-1.9614
 20
0.54046
 30
0.0
 10
-1.87903
 20
0.50774
 30
0.0
 10
-1.87903
 20
0.50774
 30
0.0
 10
-1.71648
 20
0.4431
 30
0.0
 10
-1.56454
 20
0.4144
 30
0.0
 10
-1.39672
 20
0.394
 30
0.0
 10
-1.39672
 20
0.394
 30
0.0
 10
-1.43623
 20
0.45929
 30
0.0
 10
-1.51165
 20
0.50186
 30
0.0
 10
-1.53445
 20
0.57055
 30
0.0
 10
-1.53445
 20
0.57055
 30
0.0
 10
-1.53241
 20
0.56433
 30
0.0
 10
-1.30932
 20
0.46851
 30
0.0
 10
-1.28472
 20
0.45998
 30
0.0
 10
-1.28472
 20
0.45998
 30
0.0
 10
-1.19764
 20
0.42982
 30
0.0
 10
-1.11354
 20
0.39198
 30
0.0
 10
-1.02866
 20
0.35626
 30
0.0
 10
-1.02866
 20
0.35626
 30
0.0
 10
-0.88054
 20
0.29395
 30
0.0
 10
-0.67677
 20
0.24895
 30
0.0
 10
-0.51232
 20
0.28395
 30
0.0
 10
-0.51232
 20
0.28395
 30
0.0
 10
-0.58223
 20
0.33831
 30
0.0
 10
-0.63985
 20
0.39483
 30
0.0
 10
-0.68731
 20
0.45977
 30
0.0
 10
-0.68731
 20
0.45977
 30
0.0
 10
-0.71442
 20
0.49689
 30
0.0
 10
-0.75777
 20
0.59748
 30
0.0
 10
-0.75777
 20
0.59748
 30
0.0
 10
-0.75777
 20
0.59748
 30
0.0
 10
-0.75777
 20
0.59748
 30
0.0
 10
-0.48373
 20
0.57216
 30
0.0
 10
-0.42575
 20
0.5529
 30
0.0
 10
-0.42575
 20
0.5529
 30
0.0
 10
-0.15908
 20
0.46426
 30
0.0
 10
0.13563
 20
0.39433
 30
0.0
 10
0.41654
 20
0.40494
 30
0.0
 10
0.41654
 20
0.40494
 30
0.0
 10
0.40288
 20
0.44871
 30
0.0
 10
0.38216
 20
0.49226
 30
0.0
 10
0.35831
 20
0.53168
 30
0.0
 10
0.35831
 20
0.53168
 30
0.0
 10
0.32993
 20
0.57865
 30
0.0
 10
0.29469
 20
0.6249
 30
0.0
 10
0.27488
 20
0.67646
 30
0.0
 10
0.27488
 20
0.67646
 30
0.0
 10
0.20747
 20
0.85177
 30
0.0
 10
0.42494
 20
0.87712
 30
0.0
 10
0.54737
 20
0.85175
 30
0.0
 10
0.54737
 20
0.85175
 30
0.0
 10
0.62734
 20
0.83516
 30
0.0
 10
0.55538
 20
1.10528
 30
0.0
 10
0.54341
 20
1.12785
 30
0.0
  0
SPLINE
  5
4D
330
1F
100
AcDbEntity
  8
Layer 1
 62
     5
370
    53
100
AcDbSpline
210
0.0
220
0.0
230
1.0
 70
    11
 71
     3
 72
    48
 73
    44
 74
     0
 42
0.0000000001
 43
0.0000000001
 12
1.0
 22
0.0
 32
0.0
 13
1.0
 23
0.0
 33
0.0
 40
0.0
 40
0.0
 40
0.0
 40
0.0
 40
0.0833333333333333
 40
0.0833333333333333
 40
0.0833333333333333
 40
0.0833333333333333
 40
0.1666666666666667
 40
0.1666666666666667
 40
0.1666666666666667
 40
0.1666666666666667
 40
0.25
 40
0.25
 40
0.25
 40
0.25
 40
0.3333333333333333
 40
0.3333333333333333
 40
0.3333333333333333
 40
0.3333333333333333
 40
0.4166666666666667
 40
0.4166666666666667
 40
0.4166666666666667
 40
0.4166666666666667
 40
0.5
 40
0.5
 40
0.5
 40
0.5
 40
0.5833333333333334
 40
0.5833333333333334
 40
0.5833333333333334
 40
0.5833333333333334
 40
0.6666666666666666
 40
0.6666666666666666
 40
0.6666666666666666
 40
0.6666666666666666
 40
0.75
 40
0.75
 40
0.75
 40
0.75
 40
0.8333333333333334
 40
0.8333333333333334
 40
0.8333333333333334
 40
0.8333333333333334
 40
1.0
 40
1.0
 40
1.0
 40
1.0
 10
0.60206
 20
1.23862
 30
0.0
 10
0.58367
 20
1.13151
 30
0.0
 10
0.46595
 20
1.05571
 30
0.0
 10
0.37831
 20
1.00611
 30
0.0
 10
0.37831
 20
1.00611
 30
0.0
 10
0.22842
 20
0.9213
 30
0.0
 10
0.05339
 20
0.87137
 30
0.0
 10
-0.10259
 20
0.79608
 30
0.0
 10
-0.10259
 20
0.79608
 30
0.0
 10
-0.43585
 20
0.63513
 30
0.0
 10
-0.91339
 20
0.53922
 30
0.0
 10
-1.27823
 20
0.57303
 30
0.0
 10
-1.27823
 20
0.57303
 30
0.0
 10
-1.5146
 20
0.59494
 30
0.0
 10
-1.74702
 20
0.67093
 30
0.0
 10
-1.95876
 20
0.77563
 30
0.0
 10
-1.95876
 20
0.77563
 30
0.0
 10
-2.10733
 20
0.84907
 30
0.0
 10
-2.33913
 20
0.93327
 30
0.0
 10
-2.44488
 20
1.06743
 30
0.0
 10
-2.44488
 20
1.06743
 30
0.0
 10
-2.50653
 20
1.14562
 30
0.0
 10
-2.55053
 20
1.29841
 30
0.0
 10
-2.47382
 20
1.38228
 30
0.0
 10
-2.47382
 20
1.38228
 30
0.0
 10
-2.27464
 20
1.59999
 30
0.0
 10
-1.9825
 20
1.32042
 30
0.0
 10
-1.80063
 20
1.23322
 30
0.0
 10
-1.80063
 20
1.23322
 30
0.0
 10
-1.61743
 20
1.14539
 30
0.0
 10
-1.43334
 20
1.0821
 30
0.0
 10
-1.23221
 20
1.0566
 30
0.0
 10
-1.23221
 20
1.0566
 30
0.0
 10
-0.73105
 20
0.99311
 30
0.0
 10
-0.36658
 20
1.16072
 30
0.0
 10
0.0521
 20
1.40778
 30
0.0
 10
0.0521
 20
1.40778
 30
0.0
 10
0.18777
 20
1.48783
 30
0.0
 10
0.27366
 20
1.59831
 30
0.0
 10
0.42887
 20
1.53686
 30
0.0
 10
0.42887
 20
1.53686
 30
0.0
 10
0.50765
 20
1.50569
 30
0.0
 10
0.61925
 20
1.33873
 30
0.0
 10
0.60206
 20
1.23862
 30
0.0
  0
SPLINE
  5
4E
330
1F
100
AcDbEntity
  8
Layer 1
 62
     5
370
    53
100
AcDbSpline
210
0.0
220
0.0
230
1.0
 70
    11
 71
     3
 72
   152
 73
   148
 74
     0
 42
0.0000000001
 43
0.0000000001
 12
1.0
 22
0.0
 32
0.0
 13
1.0
 23
0.0
 33
0.0
 40
0.0
 40
0.0
 40
0.0
 40
0.0
 40
0.0263157894736842
 40
0.0263157894736842
 40
0.0263157894736842
 40
0.0263157894736842
 40
0.0526315789473684
 40
0.0526315789473684
 40
0.0526315789473684
 40
0.0526315789473684
 40
0.0789473684210526
 40
0.0789473684210526
 40
0.0789473684210526
 40
0.0789473684210526
 40
0.1052631578947368
 40
0.1052631578947368
 40
0.1052631578947368
 40
0.1052631578947368
 40
0.131578947368421
 40
0.131578947368421
 40
0.131578947368421
 40
0.131578947368421
 40
0.1578947368421053
 40
0.1578947368421053
 40
0.1578947368421053
 40
0.1578947368421053
 40
0.1842105263157895
 40
0.1842105263157895
 40
0.1842105263157895
 40
0.1842105263157895
 40
0.2105263157894737
 40
0.2105263157894737
 40
0.2105263157894737
 40
0.2105263157894737
 40
0.2368421052631579
 40
0.2368421052631579
 40
0.2368421052631579
 40
0.2368421052631579
 40
0.2631578947368421
 40
0.2631578947368421
 40
0.2631578947368421
 40
0.2631578947368421
 40
0.2894736842105263
 40
0.2894736842105263
 40
0.2894736842105263
 40
0.2894736842105263
 40
0.3157894736842105
 40
0.3157894736842105
 40
0.3157894736842105
 40
0.3157894736842105
 40
0.3421052631578947
 40
0.3421052631578947
 40
0.3421052631578947
 40
0.3421052631578947
 40
0.3684210526315789
 40
0.3684210526315789
 40
0.3684210526315789
 40
0.3684210526315789
 40
0.3947368421052632
 40
0.3947368421052632
 40
0.3947368421052632
 40
0.3947368421052632
 40
0.4210526315789473
 40
0.4210526315789473
 40
0.4210526315789473
 40
0.4210526315789473
 40
0.4473684210526316
 40
0.4473684210526316
 40
0.4473684210526316
 40
0.4473684210526316
 40
0.4736842105263158
 40
0.4736842105263158
 40
0.4736842105263158
 40
0.4736842105263158
 40
0.5
 40
0.5
 40
0.5
 40
0.5
 40
0.5263157894736842
 40
0.5263157894736842
 40
0.5263157894736842
 40
0.5263157894736842
 40
0.5526315789473685
 40
0.5526315789473685
 40
0.5526315789473685
 40
0.5526315789473685
 40
0.5789473684210527
 40
0.5789473684210527
 40
0.5789473684210527
 40
0.5789473684210527
 40
0.6052631578947368
 40
0.6052631578947368
 40
0.6052631578947368
 40
0.6052631578947368
 40
0.631578947368421
 40
0.631578947368421
 40
0.631578947368421
 40
0.631578947368421
 40
0.6578947368421053
 40
0.6578947368421053
 40
0.6578947368421053
 40
0.6578947368421053
 40
0.6842105263157895
 40
0.6842105263157895
 40
0.6842105263157895
 40
0.6842105263157895
 40
0.7105263157894737
 40
0.7105263157894737
 40
0.7105263157894737
 40
0.7105263157894737
 40
0.7368421052631579
 40
0.7368421052631579
 40
0.7368421052631579
 40
0.7368421052631579
 40
0.7631578947368421
 40
0.7631578947368421
 40
0.7631578947368421
 40
0.7631578947368421
 40
0.7894736842105263
 40
0.7894736842105263
 40
0.7894736842105263
 40
0.7894736842105263
 40
0.8157894736842105
 40
0.8157894736842105
 40
0.8157894736842105
 40
0.8157894736842105
 40
0.8421052631578947
 40
0.8421052631578947
 40
0.8421052631578947
 40
0.8421052631578947
 40
0.868421052631579
 40
0.868421052631579
 40
0.868421052631579
 40
0.868421052631579
 40
0.8947368421052632
 40
0.8947368421052632
 40
0.8947368421052632
 40
0.8947368421052632
 40
0.9210526315789473
 40
0.9210526315789473
 40
0.9210526315789473
 40
0.9210526315789473
 40
0.9473684210526315
 40
0.9473684210526315
 40
0.9473684210526315
 40
0.9473684210526315
 40
1.0
 40
1.0
 40
1.0
 40
1.0
 10
-2.54958
 20
-2.62541
 30
0.0
 10
-2.56859
 20
-2.59667
 30
0.0
 10
-2.58286
 20
-2.57478
 30
0.0
 10
-2.58663
 20
-2.56807
 30
0.0
 10
-2.58663
 20
-2.56807
 30
0.0
 10
-2.64218
 20
-2.46934
 30
0.0
 10
-2.6873
 20
-2.36527
 30
0.0
 10
-2.72063
 20
-2.25695
 30
0.0
 10
-2.72063
 20
-2.25695
 30
0.0
 10
-2.78861
 20
-2.03595
 30
0.0
 10
-2.88062
 20
-1.82362
 30
0.0
 10
-2.88052
 20
-1.58742
 30
0.0
 10
-2.88052
 20
-1.58742
 30
0.0
 10
-2.88044
 20
-1.4096
 30
0.0
 10
-2.85801
 20
-1.05511
 30
0.0
 10
-2.69541
 20
-0.93604
 30
0.0
 10
-2.69541
 20
-0.93604
 30
0.0
 10
-2.56106
 20
-1.07762
 30
0.0
 10
-2.56814
 20
-1.33829
 30
0.0
 10
-2.39765
 20
-1.45619
 30
0.0
 10
-2.39765
 20
-1.45619
 30
0.0
 10
-2.36654
 20
-1.39909
 30
0.0
 10
-2.40744
 20
-1.30377
 30
0.0
 10
-2.35166
 20
-1.25992
 30
0.0
 10
-2.35166
 20
-1.25992
 30
0.0
 10
-2.16906
 20
-1.42238
 30
0.0
 10
-2.08917
 20
-1.68879
 30
0.0
 10
-1.88652
 20
-1.83539
 30
0.0
 10
-1.88652
 20
-1.83539
 30
0.0
 10
-1.85885
 20
-1.80539
 30
0.0
 10
-1.78876
 20
-1.65103
 30
0.0
 10
-1.73807
 20
-1.61206
 30
0.0
 10
-1.73807
 20
-1.61206
 30
0.0
 10
-1.78445
 20
-1.62377
 30
0.0
 10
-1.83408
 20
-1.63043
 30
0.0
 10
-1.88833
 20
-1.63044
 30
0.0
 10
-1.88833
 20
-1.63044
 30
0.0
 10
-1.8692
 20
-1.67869
 30
0.0
 10
-1.86727
 20
-1.65407
 30
0.0
 10
-1.86931
 20
-1.62931
 30
0.0
 10
-1.86931
 20
-1.62931
 30
0.0
 10
-1.815
 20
-1.61729
 30
0.0
 10
-1.76785
 20
-1.5671
 30
0.0
 10
-1.73345
 20
-1.52598
 30
0.0
 10
-1.73345
 20
-1.52598
 30
0.0
 10
-1.65227
 20
-1.42903
 30
0.0
 10
-1.60085
 20
-1.32622
 30
0.0
 10
-1.50422
 20
-1.23955
 30
0.0
 10
-1.50422
 20
-1.23955
 30
0.0
 10
-1.37087
 20
-1.11998
 30
0.0
 10
-1.20889
 20
-1.03576
 30
0.0
 10
-1.026
 20
-1.035
 30
0.0
 10
-1.026
 20
-1.035
 30
0.0
 10
-0.84782
 20
-1.03425
 30
0.0
 10
-0.60712
 20
-1.10948
 30
0.0
 10
-0.47647
 20
-1.23021
 30
0.0
 10
-0.47647
 20
-1.23021
 30
0.0
 10
-0.36873
 20
-1.32978
 30
0.0
 10
-0.26276
 20
-1.53567
 30
0.0
 10
-0.11718
 20
-1.59693
 30
0.0
 10
-0.11718
 20
-1.59693
 30
0.0
 10
-0.06897
 20
-1.51741
 30
0.0
 10
0.00293
 20
-1.43443
 30
0.0
 10
0.02923
 20
-1.34679
 30
0.0
 10
0.02923
 20
-1.34679
 30
0.0
 10
0.10352
 20
-1.4214
 30
0.0
 10
0.1646
 20
-1.49567
 30
0.0
 10
0.21384
 20
-1.58904
 30
0.0
 10
0.21384
 20
-1.58904
 30
0.0
 10
0.22736
 20
-1.59171
 30
0.0
 10
0.20981
 20
-1.57576
 30
0.0
 10
0.21821
 20
-1.59335
 30
0.0
 10
0.21821
 20
-1.59335
 30
0.0
 10
0.24289
 20
-1.50588
 30
0.0
 10
0.32301
 20
-1.41945
 30
0.0
 10
0.37316
 20
-1.34385
 30
0.0
 10
0.37316
 20
-1.34385
 30
0.0
 10
0.40045
 20
-1.30276
 30
0.0
 10
0.42879
 20
-1.23942
 30
0.0
 10
0.46807
 20
-1.2136
 30
0.0
 10
0.46807
 20
-1.2136
 30
0.0
 10
0.52088
 20
-1.26514
 30
0.0
 10
0.57576
 20
-1.36033
 30
0.0
 10
0.59147
 20
-1.43059
 30
0.0
 10
0.59147
 20
-1.43059
 30
0.0
 10
0.66661
 20
-1.3348
 30
0.0
 10
0.72647
 20
-1.21521
 30
0.0
 10
0.80456
 20
-1.12606
 30
0.0
 10
0.80456
 20
-1.12606
 30
0.0
 10
0.95786
 20
-1.28898
 30
0.0
 10
0.98042
 20
-1.47268
 30
0.0
 10
0.9661
 20
-1.69444
 30
0.0
 10
0.9661
 20
-1.69444
 30
0.0
 10
0.95628
 20
-1.84675
 30
0.0
 10
0.92882
 20
-1.98001
 30
0.0
 10
0.87316
 20
-2.12222
 30
0.0
 10
0.87316
 20
-2.12222
 30
0.0
 10
0.82908
 20
-2.23481
 30
0.0
 10
0.76456
 20
-2.3385
 30
0.0
 10
0.72495
 20
-2.45295
 30
0.0
 10
0.72495
 20
-2.45295
 30
0.0
 10
0.71338
 20
-2.48645
 30
0.0
 10
0.60886
 20
-2.65068
 30
0.0
 10
0.6185
 20
-2.67118
 30
0.0
 10
0.6185
 20
-2.67118
 30
0.0
 10
0.56054
 20
-2.56366
 30
0.0
 10
0.55865
 20
-2.40417
 30
0.0
 10
0.47406
 20
-2.30694
 30
0.0
 10
0.47406
 20
-2.30694
 30
0.0
 10
0.40608
 20
-2.64361
 30
0.0
 10
0.28841
 20
-3.13319
 30
0.0
 10
-0.11898
 20
-3.19282
 30
0.0
 10
-0.11898
 20
-3.19282
 30
0.0
 10
-0.08578
 20
-3.05152
 30
0.0
 10
-0.06402
 20
-2.90751
 30
0.0
 10
-0.02493
 20
-2.76681
 30
0.0
 10
-0.02493
 20
-2.76681
 30
0.0
 10
-0.18879
 20
-2.94199
 30
0.0
 10
-0.26734
 20
-3.29695
 30
0.0
 10
-0.56484
 20
-3.29747
 30
0.0
 10
-0.56484
 20
-3.29747
 30
0.0
 10
-0.57288
 20
-3.13111
 30
0.0
 10
-0.55686
 20
-2.92135
 30
0.0
 10
-0.67212
 20
-2.78635
 30
0.0
 10
-0.67212
 20
-2.78635
 30
0.0
 10
-0.81909
 20
-2.93137
 30
0.0
 10
-0.83475
 20
-3.16773
 30
0.0
 10
-0.97944
 20
-3.31663
 30
0.0
 10
-0.97944
 20
-3.31663
 30
0.0
 10
-1.17305
 20
-3.16455
 30
0.0
 10
-1.28991
 20
-2.94373
 30
0.0
 10
-1.50321
 20
-2.80808
 30
0.0
 10
-1.50321
 20
-2.80808
 30
0.0
 10
-1.51231
 20
-2.98413
 30
0.0
 10
-1.46391
 20
-3.15479
 30
0.0
 10
-1.46781
 20
-3.32944
 30
0.0
 10
-1.46781
 20
-3.32944
 30
0.0
 10
-1.80911
 20
-3.15381
 30
0.0
 10
-2.15009
 20
-2.74684
 30
0.0
 10
-2.33052
 20
-2.41735
 30
0.0
 10
-2.33052
 20
-2.41735
 30
0.0
 10
-2.38313
 20
-2.54778
 30
0.0
 10
-2.30117
 20
-2.73601
 30
0.0
 10
-2.40398
 20
-2.84094
 30
0.0
 10
-2.40398
 20
-2.84094
 30
0.0
 10
-2.40447
 20
-2.84144
 30
0.0
 10
-2.49596
 20
-2.7064
 30
0.0
 10
-2.54958
 20
-2.62541
 30
0.0
  0
SPLINE
  5
4F
330
1F
100
AcDbEntity
  8
Layer 1
 62
     5
370
    53
100
AcDbSpline
210
0.0
220
0.0
230
1.0
 70
    11
 71
     3
 72
    76
 73
    72
 74
     0
 42
0.0000000001
 43
0.0000000001
 12
1.0
 22
0.0
 32
0.0
 13
1.0
 23
0.0
 33
0.0
 40
0.0
 40
0.0
 40
0.0
 40
0.0
 40
0.0526315789473684
 40
0.0526315789473684
 40
0.0526315789473684
 40
0.0526315789473684
 40
0.1052631578947368
 40
0.1052631578947368
 40
0.1052631578947368
 40
0.1052631578947368
 40
0.1578947368421053
 40
0.1578947368421053
 40
0.1578947368421053
 40
0.1578947368421053
 40
0.2105263157894737
 40
0.2105263157894737
 40
0.2105263157894737
 40
0.2105263157894737
 40
0.2631578947368421
 40
0.2631578947368421
 40
0.2631578947368421
 40
0.2631578947368421
 40
0.3157894736842105
 40
0.3157894736842105
 40
0.3157894736842105
 40
0.3157894736842105
 40
0.3684210526315789
 40
0.3684210526315789
 40
0.3684210526315789
 40
0.3684210526315789
 40
0.4210526315789473
 40
0.4210526315789473
 40
0.4210526315789473
 40
0.4210526315789473
 40
0.4736842105263158
 40
0.4736842105263158
 40
0.4736842105263158
 40
0.4736842105263158
 40
0.5263157894736842
 40
0.5263157894736842
 40
0.5263157894736842
 40
0.5263157894736842
 40
0.5789473684210527
 40
0.5789473684210527
 40
0.5789473684210527
 40
0.5789473684210527
 40
0.631578947368421
 40
0.631578947368421
 40
0.631578947368421
 40
0.631578947368421
 40
0.6842105263157895
 40
0.6842105263157895
 40
0.6842105263157895
 40
0.6842105263157895
 40
0.7368421052631579
 40
0.7368421052631579
 40
0.7368421052631579
 40
0.7368421052631579
 40
0.7894736842105263
 40
0.7894736842105263
 40
0.7894736842105263
 40
0.7894736842105263
 40
0.8421052631578947
 40
0.8421052631578947
 40
0.8421052631578947
 40
0.8421052631578947
 40
0.8947368421052632
 40
0.8947368421052632
 40
0.8947368421052632
 40
0.8947368421052632
 40
1.0
 40
1.0
 40
1.0
 40
1.0
 10
-1.70834
 20
-1.60375
 30
0.0
 10
-1.65372
 20
-1.61402
 30
0.0
 10
-1.57985
 20
-1.73295
 30
0.0
 10
-1.5583
 20
-1.75847
 30
0.0
 10
-1.5583
 20
-1.75847
 30
0.0
 10
-1.49465
 20
-1.83391
 30
0.0
 10
-1.44153
 20
-1.91587
 30
0.0
 10
-1.38319
 20
-1.99513
 30
0.0
 10
-1.38319
 20
-1.99513
 30
0.0
 10
-1.36118
 20
-1.95127
 30
0.0
 10
-1.33607
 20
-1.91128
 30
0.0
 10
-1.32536
 20
-1.86243
 30
0.0
 10
-1.32536
 20
-1.86243
 30
0.0
 10
-1.19455
 20
-1.89151
 30
0.0
 10
-1.09401
 20
-2.07997
 30
0.0
 10
-0.9953
 20
-2.16496
 30
0.0
 10
-0.9953
 20
-2.16496
 30
0.0
 10
-0.97086
 20
-2.12797
 30
0.0
 10
-0.91766
 20
-1.97464
 30
0.0
 10
-0.86705
 20
-1.95758
 30
0.0
 10
-0.86705
 20
-1.95758
 30
0.0
 10
-0.80816
 20
-1.93774
 30
0.0
 10
-0.69253
 20
-2.09902
 30
0.0
 10
-0.64603
 20
-2.13231
 30
0.0
 10
-0.64603
 20
-2.13231
 30
0.0
 10
-0.58696
 20
-2.02335
 30
0.0
 10
-0.55409
 20
-1.8763
 30
0.0
 10
-0.47872
 20
-1.78068
 30
0.0
 10
-0.47872
 20
-1.78068
 30
0.0
 10
-0.40697
 20
-1.82949
 30
0.0
 10
-0.32498
 20
-1.87371
 30
0.0
 10
-0.2671
 20
-1.93916
 30
0.0
 10
-0.2671
 20
-1.93916
 30
0.0
 10
-0.26646
 20
-1.9385
 30
0.0
 10
-0.26574
 20
-1.93797
 30
0.0
 10
-0.26491
 20
-1.93752
 30
0.0
 10
-0.26491
 20
-1.93752
 30
0.0
 10
-0.23161
 20
-1.82693
 30
0.0
 10
-0.18541
 20
-1.72012
 30
0.0
 10
-0.12988
 20
-1.61888
 30
0.0
 10
-0.12988
 20
-1.61888
 30
0.0
 10
-0.12988
 20
-1.61888
 30
0.0
 10
-0.12844
 20
-1.61627
 30
0.0
 10
-0.12844
 20
-1.61627
 30
0.0
 10
-0.12844
 20
-1.61627
 30
0.0
 10
-0.1972
 20
-1.62103
 30
0.0
 10
-0.26842
 20
-1.62019
 30
0.0
 10
-0.33424
 20
-1.60353
 30
0.0
 10
-0.33424
 20
-1.60353
 30
0.0
 10
-0.50497
 20
-1.56031
 30
0.0
 10
-0.62525
 20
-1.42105
 30
0.0
 10
-0.74827
 20
-1.30804
 30
0.0
 10
-0.74827
 20
-1.30804
 30
0.0
 10
-0.74242
 20
-1.36136
 30
0.0
 10
-0.73537
 20
-1.41634
 30
0.0
 10
-0.73795
 20
-1.47225
 30
0.0
 10
-0.73795
 20
-1.47225
 30
0.0
 10
-0.81074
 20
-1.47212
 30
0.0
 10
-0.91484
 20
-1.35617
 30
0.0
 10
-0.94389
 20
-1.29514
 30
0.0
 10
-0.94389
 20
-1.29514
 30
0.0
 10
-1.05554
 20
-1.35419
 30
0.0
 10
-1.1414
 20
-1.46351
 30
0.0
 10
-1.28234
 20
-1.4595
 30
0.0
 10
-1.28234
 20
-1.4595
 30
0.0
 10
-1.2611
 20
-1.41891
 30
0.0
 10
-1.23925
 20
-1.37518
 30
0.0
 10
-1.24886
 20
-1.32751
 30
0.0
 10
-1.24886
 20
-1.32751
 30
0.0
 10
-1.40878
 20
-1.43041
 30
0.0
 10
-1.53717
 20
-1.55119
 30
0.0
 10
-1.70834
 20
-1.60375
 30
0.0
  0
SPLINE
  5
50
330
1F
100
AcDbEntity
  8
Layer 1
370
    53
100
AcDbSpline
210
0.0
220
0.0
230
1.0
 70
    11
 71
     3
 72
    12
 73
     8
 74
     0
 42
0.0000000001
 43
0.0000000001
 12
1.0
 22
0.0
 32
0.0
 13
1.0
 23
0.0
 33
0.0
 40
0.0
 40
0.0
 40
0.0
 40
0.0
 40
0.3333333333333333
 40
0.3333333333333333
 40
0.3333333333333333
 40
0.3333333333333333
 40
1.0
 40
1.0
 40
1.0
 40
1.0
 10
-2.84832
 20
-1.01317
 30
0.0
 10
-2.85525
 20
-0.94703
 30
0.0
 10
-2.85314
 20
-0.87776
 30
0.0
 10
-2.84832
 20
-0.80812
 30
0.0
 10
-2.84832
 20
-0.80812
 30
0.0
 10
-2.84832
 20
-0.80812
 30
0.0
 10
-2.84832
 20
-1.01317
 30
0.0
 10
-2.84832
 20
-1.01317
 30
0.0
  0
SPLINE
  5
51
330
1F
100
AcDbEntity
  8
Layer 1
370
    53
100
AcDbSpline
210
0.0
220
0.0
230
1.0
 70
    11
 71
     3
 72
    16
 73
    12
 74
     0
 42
0.0000000001
 43
0.0000000001
 12
1.0
 22
0.0
 32
0.0
 13
1.0
 23
0.0
 33
0.0
 40
0.0
 40
0.0
 40
0.0
 40
0.0
 40
0.25
 40
0.25
 40
0.25
 40
0.25
 40
0.5
 40
0.5
 40
0.5
 40
0.5
 40
1.0
 40
1.0
 40
1.0
 40
1.0
 10
0.50372
 20
0.85818
 30
0.0
 10
0.50372
 20
0.85818
 30
0.0
 10
0.50834
 20
0.85771
 30
0.0
 10
0.50834
 20
0.85771
 30
0.0
 10
0.50834
 20
0.85771
 30
0.0
 10
0.50834
 20
0.85771
 30
0.0
 10
0.50768
 20
0.85623
 30
0.0
 10
0.50768
 20
0.85623
 30
0.0
 10
0.50768
 20
0.85623
 30
0.0
 10
0.50768
 20
0.85623
 30
0.0
 10
0.50372
 20
0.85818
 30
0.0
 10
0.50372
 20
0.85818
 30
0.0
  0
SPLINE
  5
52
330
1F
100
AcDbEntity
  8
Layer 1
370
    53
100
AcDbSpline
210
0.0
220
0.0
230
1.0
 70
    11
 71
     3
 72
   264
 73
   260
 74
     0
 42
0.0000000001
 43
0.0000000001
 12
1.0
 22
0.0
 32
0.0
 13
1.0
 23
0.0
 33
0.0
 40
0.0
 40
0.0
 40
0.0
 40
0.0
 40
0.0151515151515152
 40
0.0151515151515152
 40
0.0151515151515152
 40
0.0151515151515152
 40
0.0303030303030303
 40
0.0303030303030303
 40
0.0303030303030303
 40
0.0303030303030303
 40
0.0454545454545455
 40
0.0454545454545455
 40
0.0454545454545455
 40
0.0454545454545455
 40
0.0606060606060606
 40
0.0606060606060606
 40
0.0606060606060606
 40
0.0606060606060606
 40
0.0757575757575758
 40
0.0757575757575758
 40
0.0757575757575758
 40
0.0757575757575758
 40
0.0909090909090909
 40
0.0909090909090909
 40
0.0909090909090909
 40
0.0909090909090909
 40
0.1060606060606061
 40
0.1060606060606061
 40
0.1060606060606061
 40
0.1060606060606061
 40
0.1212121212121212
 40
0.1212121212121212
 40
0.1212121212121212
 40
0.1212121212121212
 40
0.1363636363636364
 40
0.1363636363636364
 40
0.1363636363636364
 40
0.1363636363636364
 40
0.1515151515151515
 40
0.1515151515151515
 40
0.1515151515151515
 40
0.1515151515151515
 40
0.1666666666666667
 40
0.1666666666666667
 40
0.1666666666666667
 40
0.1666666666666667
 40
0.1818181818181818
 40
0.1818181818181818
 40
0.1818181818181818
 40
0.1818181818181818
 40
0.196969696969697
 40
0.196969696969697
 40
0.196969696969697
 40
0.196969696969697
 40
0.2121212121212121
 40
0.2121212121212121
 40
0.2121212121212121
 40
0.2121212121212121
 40
0.2272727272727273
 40
0.2272727272727273
 40
0.2272727272727273
 40
0.2272727272727273
 40
0.2424242424242424
 40
0.2424242424242424
 40
0.2424242424242424
 40
0.2424242424242424
 40
0.2575757575757576
 40
0.2575757575757576
 40
0.2575757575757576
 40
0.2575757575757576
 40
0.2727272727272727
 40
0.2727272727272727
 40
0.2727272727272727
 40
0.2727272727272727
 40
0.2878787878787879
 40
0.2878787878787879
 40
0.2878787878787879
 40
0.2878787878787879
 40
0.303030303030303
 40
0.303030303030303
 40
0.303030303030303
 40
0.303030303030303
 40
0.3181818181818182
 40
0.3181818181818182
 40
0.3181818181818182
 40
0.3181818181818182
 40
0.3333333333333333
 40
0.3333333333333333
 40
0.3333333333333333
 40
0.3333333333333333
 40
0.3484848484848485
 40
0.3484848484848485
 40
0.3484848484848485
 40
0.3484848484848485
 40
0.3636363636363636
 40
0.3636363636363636
 40
0.3636363636363636
 40
0.3636363636363636
 40
0.3787878787878788
 40
0.3787878787878788
 40
0.3787878787878788
 40
0.3787878787878788
 40
0.3939393939393939
 40
0.3939393939393939
 40
0.3939393939393939
 40
0.3939393939393939
 40
0.4090909090909091
 40
0.4090909090909091
 40
0.4090909090909091
 40
0.4090909090909091
 40
0.4242424242424243
 40
0.4242424242424243
 40
0.4242424242424243
 40
0.4242424242424243
 40
0.4393939393939394
 40
0.4393939393939394
 40
0.4393939393939394
 40
0.4393939393939394
 40
0.4545454545454545
 40
0.4545454545454545
 40
0.4545454545454545
 40
0.4545454545454545
 40
0.4696969696969697
 40
0.4696969696969697
 40
0.4696969696969697
 40
0.4696969696969697
 40
0.4848484848484849
 40
0.4848484848484849
 40
0.4848484848484849
 40
0.4848484848484849
 40
0.5
 40
0.5
 40
0.5
 40
0.5
 40
0.5151515151515151
 40
0.5151515151515151
 40
0.5151515151515151
 40
0.5151515151515151
 40
0.5303030303030303
 40
0.5303030303030303
 40
0.5303030303030303
 40
0.5303030303030303
 40
0.5454545454545454
 40
0.5454545454545454
 40
0.5454545454545454
 40
0.5454545454545454
 40
0.5606060606060606
 40
0.5606060606060606
 40
0.5606060606060606
 40
0.5606060606060606
 40
0.5757575757575758
 40
0.5757575757575758
 40
0.5757575757575758
 40
0.5757575757575758
 40
0.5909090909090909
 40
0.5909090909090909
 40
0.5909090909090909
 40
0.5909090909090909
 40
0.6060606060606061
 40
0.6060606060606061
 40
0.6060606060606061
 40
0.6060606060606061
 40
0.6212121212121212
 40
0.6212121212121212
 40
0.6212121212121212
 40
0.6212121212121212
 40
0.6363636363636364
 40
0.6363636363636364
 40
0.6363636363636364
 40
0.6363636363636364
 40
0.6515151515151515
 40
0.6515151515151515
 40
0.6515151515151515
 40
0.6515151515151515
 40
0.6666666666666666
 40
0.6666666666666666
 40
0.6666666666666666
 40
0.6666666666666666
 40
0.6818181818181818
 40
0.6818181818181818
 40
0.6818181818181818
 40
0.6818181818181818
 40
0.696969696969697
 40
0.696969696969697
 40
0.696969696969697
 40
0.696969696969697
 40
0.7121212121212122
 40
0.7121212121212122
 40
0.7121212121212122
 40
0.7121212121212122
 40
0.7272727272727273
 40
0.7272727272727273
 40
0.7272727272727273
 40
0.7272727272727273
 40
0.7424242424242424
 40
0.7424242424242424
 40
0.7424242424242424
 40
0.7424242424242424
 40
0.7575757575757576
 40
0.7575757575757576
 40
0.7575757575757576
 40
0.7575757575757576
 40
0.7727272727272727
 40
0.7727272727272727
 40
0.7727272727272727
 40
0.7727272727272727
 40
0.7878787878787878
 40
0.7878787878787878
 40
0.7878787878787878
 40
0.7878787878787878
 40
0.803030303030303
 40
0.803030303030303
 40
0.803030303030303
 40
0.803030303030303
 40
0.8181818181818182
 40
0.8181818181818182
 40
0.8181818181818182
 40
0.8181818181818182
 40
0.8333333333333334
 40
0.8333333333333334
 40
0.8333333333333334
 40
0.8333333333333334
 40
0.8484848484848485
 40
0.8484848484848485
 40
0.8484848484848485
 40
0.8484848484848485
 40
0.8636363636363636
 40
0.8636363636363636
 40
0.8636363636363636
 40
0.8636363636363636
 40
0.8787878787878788
 40
0.8787878787878788
 40
0.8787878787878788
 40
0.8787878787878788
 40
0.8939393939393939
 40
0.8939393939393939
 40
0.8939393939393939
 40
0.8939393939393939
 40
0.9090909090909091
 40
0.9090909090909091
 40
0.9090909090909091
 40
0.9090909090909091
 40
0.9242424242424242
 40
0.9242424242424242
 40
0.9242424242424242
 40
0.9242424242424242
 40
0.9393939393939394
 40
0.9393939393939394
 40
0.9393939393939394
 40
0.9393939393939394
 40
0.9545454545454546
 40
0.9545454545454546
 40
0.9545454545454546
 40
0.9545454545454546
 40
0.9696969696969697
 40
0.9696969696969697
 40
0.9696969696969697
 40
0.9696969696969697
 40
1.0
 40
1.0
 40
1.0
 40
1.0
 10
-0.51251
 20
-3.3
 30
0.0
 10
-0.51251
 20
-3.3
 30
0.0
 10
-0.51251
 20
-3.29349
 30
0.0
 10
-0.51251
 20
-3.29349
 30
0.0
 10
-0.51251
 20
-3.29349
 30
0.0
 10
-0.2574
 20
-3.25408
 30
0.0
 10
-0.17874
 20
-2.93124
 30
0.0
 10
-0.02493
 20
-2.76681
 30
0.0
 10
-0.02493
 20
-2.76681
 30
0.0
 10
-0.06402
 20
-2.90751
 30
0.0
 10
-0.08578
 20
-3.05152
 30
0.0
 10
-0.11898
 20
-3.19282
 30
0.0
 10
-0.11898
 20
-3.19282
 30
0.0
 10
0.28841
 20
-3.13319
 30
0.0
 10
0.40608
 20
-2.64361
 30
0.0
 10
0.47406
 20
-2.30694
 30
0.0
 10
0.47406
 20
-2.30694
 30
0.0
 10
0.55865
 20
-2.40417
 30
0.0
 10
0.56054
 20
-2.56366
 30
0.0
 10
0.6185
 20
-2.67118
 30
0.0
 10
0.6185
 20
-2.67118
 30
0.0
 10
0.60886
 20
-2.65068
 30
0.0
 10
0.71338
 20
-2.48645
 30
0.0
 10
0.72495
 20
-2.45295
 30
0.0
 10
0.72495
 20
-2.45295
 30
0.0
 10
0.76456
 20
-2.3385
 30
0.0
 10
0.82908
 20
-2.23481
 30
0.0
 10
0.87316
 20
-2.12222
 30
0.0
 10
0.87316
 20
-2.12222
 30
0.0
 10
0.92882
 20
-1.98001
 30
0.0
 10
0.95628
 20
-1.84675
 30
0.0
 10
0.9661
 20
-1.69444
 30
0.0
 10
0.9661
 20
-1.69444
 30
0.0
 10
0.97871
 20
-1.4992
 30
0.0
 10
0.9627
 20
-1.33348
 30
0.0
 10
0.85409
 20
-1.18545
 30
0.0
 10
0.85409
 20
-1.18545
 30
0.0
 10
0.85409
 20
-1.18545
 30
0.0
 10
0.85409
 20
-0.84724
 30
0.0
 10
0.85409
 20
-0.84724
 30
0.0
 10
0.85409
 20
-0.84724
 30
0.0
 10
0.87648
 20
-0.81205
 30
0.0
 10
0.90036
 20
-0.77821
 30
0.0
 10
0.92538
 20
-0.74737
 30
0.0
 10
0.92538
 20
-0.74737
 30
0.0
 10
0.9624
 20
-0.87754
 30
0.0
 10
0.97768
 20
-1.01458
 30
0.0
 10
1.00576
 20
-1.14496
 30
0.0
 10
1.00576
 20
-1.14496
 30
0.0
 10
1.07783
 20
-1.03317
 30
0.0
 10
1.13033
 20
-0.85847
 30
0.0
 10
1.13744
 20
-0.72369
 30
0.0
 10
1.13744
 20
-0.72369
 30
0.0
 10
1.20089
 20
-0.76645
 30
0.0
 10
1.26249
 20
-0.84767
 30
0.0
 10
1.28476
 20
-0.92278
 30
0.0
 10
1.28476
 20
-0.92278
 30
0.0
 10
1.33457
 20
-0.76595
 30
0.0
 10
1.28161
 20
-0.47627
 30
0.0
 10
1.28161
 20
-0.30197
 30
0.0
 10
1.28161
 20
-0.30197
 30
0.0
 10
1.28161
 20
-0.13501
 30
0.0
 10
1.28525
 20
0.03752
 30
0.0
 10
1.24523
 20
0.19925
 30
0.0
 10
1.24523
 20
0.19925
 30
0.0
 10
1.20058
 20
0.37946
 30
0.0
 10
1.13505
 20
0.57647
 30
0.0
 10
1.01165
 20
0.71678
 30
0.0
 10
1.01165
 20
0.71678
 30
0.0
 10
0.9337
 20
0.80544
 30
0.0
 10
0.7596
 20
0.93019
 30
0.0
 10
0.63557
 20
0.92144
 30
0.0
 10
0.63557
 20
0.92144
 30
0.0
 10
0.61416
 20
0.91993
 30
0.0
 10
0.59573
 20
0.91679
 30
0.0
 10
0.57995
 20
0.91223
 30
0.0
 10
0.57995
 20
0.91223
 30
0.0
 10
0.58009
 20
0.97323
 30
0.0
 10
0.55976
 20
1.06652
 30
0.0
 10
0.54341
 20
1.12785
 30
0.0
 10
0.54341
 20
1.12785
 30
0.0
 10
0.57287
 20
1.16027
 30
0.0
 10
0.59493
 20
1.19709
 30
0.0
 10
0.60206
 20
1.23862
 30
0.0
 10
0.60206
 20
1.23862
 30
0.0
 10
0.61925
 20
1.33873
 30
0.0
 10
0.50765
 20
1.50569
 30
0.0
 10
0.42887
 20
1.53686
 30
0.0
 10
0.42887
 20
1.53686
 30
0.0
 10
0.40537
 20
1.54616
 30
0.0
 10
0.38346
 20
1.5515
 30
0.0
 10
0.36272
 20
1.55363
 30
0.0
 10
0.36272
 20
1.55363
 30
0.0
 10
0.30406
 20
1.61424
 30
0.0
 10
0.25554
 20
1.71092
 30
0.0
 10
0.218
 20
1.78312
 30
0.0
 10
0.218
 20
1.78312
 30
0.0
 10
0.16754
 20
1.88015
 30
0.0
 10
0.11235
 20
1.97547
 30
0.0
 10
0.06419
 20
2.07318
 30
0.0
 10
0.06419
 20
2.07318
 30
0.0
 10
-0.03782
 20
2.28012
 30
0.0
 10
-0.1221
 20
2.49911
 30
0.0
 10
-0.23724
 20
2.69991
 30
0.0
 10
-0.23724
 20
2.69991
 30
0.0
 10
-0.34198
 20
2.8826
 30
0.0
 10
-0.41056
 20
3.07808
 30
0.0
 10
-0.47064
 20
3.27784
 30
0.0
 10
-0.47064
 20
3.27784
 30
0.0
 10
-0.53593
 20
3.49501
 30
0.0
 10
-0.57088
 20
3.72221
 30
0.0
 10
-0.47647
 20
3.93808
 30
0.0
 10
-0.47647
 20
3.93808
 30
0.0
 10
-0.38976
 20
4.13624
 30
0.0
 10
-0.0927
 20
4.22238
 30
0.0
 10
0.10856
 20
4.12498
 30
0.0
 10
0.10856
 20
4.12498
 30
0.0
 10
0.23188
 20
4.06532
 30
0.0
 10
0.32823
 20
3.70091
 30
0.0
 10
0.42283
 20
3.9797
 30
0.0
 10
0.42283
 20
3.9797
 30
0.0
 10
0.5353
 20
4.3112
 30
0.0
 10
0.20684
 20
4.62047
 30
0.0
 10
-0.08363
 20
4.73504
 30
0.0
 10
-0.08363
 20
4.73504
 30
0.0
 10
-0.45479
 20
4.88142
 30
0.0
 10
-0.80878
 20
4.76705
 30
0.0
 10
-1.12664
 20
4.54807
 30
0.0
 10
-1.12664
 20
4.54807
 30
0.0
 10
-1.58126
 20
4.23488
 30
0.0
 10
-1.85324
 20
3.69556
 30
0.0
 10
-2.05917
 20
3.21146
 30
0.0
 10
-2.05917
 20
3.21146
 30
0.0
 10
-2.19397
 20
2.89445
 30
0.0
 10
-2.27021
 20
2.52842
 30
0.0
 10
-2.29908
 20
2.18711
 30
0.0
 10
-2.29908
 20
2.18711
 30
0.0
 10
-2.31161
 20
2.03887
 30
0.0
 10
-2.3204
 20
1.88906
 30
0.0
 10
-2.33352
 20
1.74199
 30
0.0
 10
-2.33352
 20
1.74199
 30
0.0
 10
-2.33975
 20
1.67234
 30
0.0
 10
-2.2899
 20
1.52273
 30
0.0
 10
-2.33822
 20
1.46528
 30
0.0
 10
-2.33822
 20
1.46528
 30
0.0
 10
-2.33822
 20
1.46528
 30
0.0
 10
-2.33592
 20
1.4603
 30
0.0
 10
-2.33592
 20
1.4603
 30
0.0
 10
-2.33592
 20
1.4603
 30
0.0
 10
-2.38479
 20
1.45238
 30
0.0
 10
-2.43142
 20
1.42863
 30
0.0
 10
-2.47382
 20
1.38228
 30
0.0
 10
-2.47382
 20
1.38228
 30
0.0
 10
-2.53712
 20
1.31308
 30
0.0
 10
-2.51822
 20
1.19695
 30
0.0
 10
-2.47505
 20
1.11453
 30
0.0
 10
-2.47505
 20
1.11453
 30
0.0
 10
-2.50923
 20
1.02867
 30
0.0
 10
-2.49788
 20
0.94775
 30
0.0
 10
-2.45902
 20
0.87557
 30
0.0
 10
-2.45902
 20
0.87557
 30
0.0
 10
-2.46227
 20
0.87425
 30
0.0
 10
-2.46551
 20
0.87292
 30
0.0
 10
-2.46873
 20
0.87155
 30
0.0
 10
-2.46873
 20
0.87155
 30
0.0
 10
-2.47448
 20
0.97934
 30
0.0
 10
-2.64486
 20
0.95119
 30
0.0
 10
-2.75492
 20
0.923
 30
0.0
 10
-2.75492
 20
0.923
 30
0.0
 10
-3.1366
 20
0.82521
 30
0.0
 10
-3.19313
 20
0.35023
 30
0.0
 10
-3.20483
 20
0.02222
 30
0.0
 10
-3.20483
 20
0.02222
 30
0.0
 10
-3.21186
 20
-0.17539
 30
0.0
 10
-3.19977
 20
-0.37296
 30
0.0
 10
-3.18851
 20
-0.57021
 30
0.0
 10
-3.18851
 20
-0.57021
 30
0.0
 10
-3.17792
 20
-0.75502
 30
0.0
 10
-3.13805
 20
-1.02869
 30
0.0
 10
-3.20432
 20
-1.19926
 30
0.0
 10
-3.20432
 20
-1.19926
 30
0.0
 10
-3.15559
 20
-1.07383
 30
0.0
 10
-3.06164
 20
-0.97674
 30
0.0
 10
-3.00103
 20
-0.85886
 30
0.0
 10
-3.00103
 20
-0.85886
 30
0.0
 10
-2.96216
 20
-0.96022
 30
0.0
 10
-2.9261
 20
-1.08014
 30
0.0
 10
-2.88953
 20
-1.17385
 30
0.0
 10
-2.88953
 20
-1.17385
 30
0.0
 10
-2.87579
 20
-1.13616
 30
0.0
 10
-2.85965
 20
-1.09085
 30
0.0
 10
-2.84832
 20
-1.0582
 30
0.0
 10
-2.84832
 20
-1.0582
 30
0.0
 10
-2.84832
 20
-1.0582
 30
0.0
 10
-2.84832
 20
-1.23694
 30
0.0
 10
-2.84832
 20
-1.23694
 30
0.0
 10
-2.84832
 20
-1.23694
 30
0.0
 10
-2.87475
 20
-1.36348
 30
0.0
 10
-2.88047
 20
-1.49785
 30
0.0
 10
-2.88052
 20
-1.58742
 30
0.0
 10
-2.88052
 20
-1.58742
 30
0.0
 10
-2.88062
 20
-1.82362
 30
0.0
 10
-2.78861
 20
-2.03595
 30
0.0
 10
-2.72063
 20
-2.25695
 30
0.0
 10
-2.72063
 20
-2.25695
 30
0.0
 10
-2.6873
 20
-2.36527
 30
0.0
 10
-2.64218
 20
-2.46934
 30
0.0
 10
-2.58663
 20
-2.56807
 30
0.0
 10
-2.58663
 20
-2.56807
 30
0.0
 10
-2.58286
 20
-2.57478
 30
0.0
 10
-2.56859
 20
-2.59667
 30
0.0
 10
-2.54958
 20
-2.62541
 30
0.0
 10
-2.54958
 20
-2.62541
 30
0.0
 10
-2.49596
 20
-2.7064
 30
0.0
 10
-2.40447
 20
-2.84144
 30
0.0
 10
-2.40398
 20
-2.84094
 30
0.0
 10
-2.40398
 20
-2.84094
 30
0.0
 10
-2.30117
 20
-2.73601
 30
0.0
 10
-2.38313
 20
-2.54778
 30
0.0
 10
-2.33052
 20
-2.41735
 30
0.0
 10
-2.33052
 20
-2.41735
 30
0.0
 10
-2.15953
 20
-2.72962
 30
0.0
 10
-1.84431
 20
-3.11143
 30
0.0
 10
-1.52131
 20
-3.3
 30
0.0
 10
-1.52131
 20
-3.3
 30
0.0
 10
-1.52131
 20
-3.3
 30
0.0
 10
-2.7
 20
-3.3
 30
0.0
 10
-2.7
 20
-3.3
 30
0.0
 10
-2.7
 20
-3.3
 30
0.0
 10
-2.97614
 20
-3.3
 30
0.0
 10
-3.2
 20
-3.52386
 30
0.0
 10
-3.2
 20
-3.8
 30
0.0
 10
-3.2
 20
-3.8
 30
0.0
 10
-3.2
 20
-3.8
 30
0.0
 10
-3.2
 20
-4.2
 30
0.0
 10
-3.2
 20
-4.2
 30
0.0
 10
-3.2
 20
-4.2
 30
0.0
 10
-3.2
 20
-4.47614
 30
0.0
 10
-2.97614
 20
-4.7
 30
0.0
 10
-2.7
 20
-4.7
 30
0.0
 10
-2.7
 20
-4.7
 30
0.0
 10
-2.7
 20
-4.7
 30
0.0
 10
0.7
 20
-4.7
 30
0.0
 10
0.7
 20
-4.7
 30
0.0
 10
0.7
 20
-4.7
 30
0.0
 10
0.97614
 20
-4.7
 30
0.0
 10
1.2
 20
-4.47614
 30
0.0
 10
1.2
 20
-4.2
 30
0.0
 10
1.2
 20
-4.2
 30
0.0
 10
1.2
 20
-4.2
 30
0.0
 10
1.2
 20
-3.8
 30
0.0
 10
1.2
 20
-3.8
 30
0.0
 10
1.2
 20
-3.8
 30
0.0
 10
1.2
 20
-3.52386
 30
0.0
 10
0.97614
 20
-3.3
 30
0.0
 10
0.7
 20
-3.3
 30
0.0
 10
0.7
 20
-3.3
 30
0.0
 10
0.7
 20
-3.3
 30
0.0
 10
-0.51251
 20
-3.3
 30
0.0
 10
-0.51251
 20
-3.3
 30
0.0
  0
SPLINE
  5
53
330
1F
100
AcDbEntity
  8
Layer 1
370
    53
100
AcDbSpline
210
0.0
220
0.0
230
1.0
 70
    11
 71
     3
 72
    20
 73
    16
 74
     0
 42
0.0000000001
 43
0.0000000001
 12
1.0
 22
0.0
 32
0.0
 13
1.0
 23
0.0
 33
0.0
 40
0.0
 40
0.0
 40
0.0
 40
0.0
 40
0.2
 40
0.2
 40
0.2
 40
0.2
 40
0.4
 40
0.4
 40
0.4
 40
0.4
 40
0.6
 40
0.6
 40
0.6
 40
0.6
 40
1.0
 40
1.0
 40
1.0
 40
1.0
 10
-1.9
 20
-4.0
 30
0.0
 10
-1.9
 20
-3.91716
 30
0.0
 10
-1.83284
 20
-3.85
 30
0.0
 10
-1.75
 20
-3.85
 30
0.0
 10
-1.75
 20
-3.85
 30
0.0
 10
-1.66716
 20
-3.85
 30
0.0
 10
-1.6
 20
-3.91716
 30
0.0
 10
-1.6
 20
-4.0
 30
0.0
 10
-1.6
 20
-4.0
 30
0.0
 10
-1.6
 20
-4.08284
 30
0.0
 10
-1.66716
 20
-4.15
 30
0.0
 10
-1.75
 20
-4.15
 30
0.0
 10
-1.75
 20
-4.15
 30
0.0
 10
-1.83284
 20
-4.15
 30
0.0
 10
-1.9
 20
-4.08284
 30
0.0
 10
-1.9
 20
-4.0
 30
0.0
  0
SPLINE
  5
54
330
1F
100
AcDbEntity
  8
Layer 1
370
    53
100
AcDbSpline
210
0.0
220
0.0
230
1.0
 70
    11
 71
     3
 72
    20
 73
    16
 74
     0
 42
0.0000000001
 43
0.0000000001
 12
1.0
 22
0.0
 32
0.0
 13
1.0
 23
0.0
 33
0.0
 40
0.0
 40
0.0
 40
0.0
 40
0.0
 40
0.2
 40
0.2
 40
0.2
 40
0.2
 40
0.4
 40
0.4
 40
0.4
 40
0.4
 40
0.6
 40
0.6
 40
0.6
 40
0.6
 40
1.0
 40
1.0
 40
1.0
 40
1.0
 10
-0.4
 20
-4.0
 30
0.0
 10
-0.4
 20
-3.91716
 30
0.0
 10
-0.33284
 20
-3.85
 30
0.0
 10
-0.25
 20
-3.85
 30
0.0
 10
-0.25
 20
-3.85
 30
0.0
 10
-0.16716
 20
-3.85
 30
0.0
 10
-0.1
 20
-3.91716
 30
0.0
 10
-0.1
 20
-4.0
 30
0.0
 10
-0.1
 20
-4.0
 30
0.0
 10
-0.1
 20
-4.08284
 30
0.0
 10
-0.16716
 20
-4.15
 30
0.0
 10
-0.25
 20
-4.15
 30
0.0
 10
-0.25
 20
-4.15
 30
0.0
 10
-0.33284
 20
-4.15
 30
0.0
 10
-0.4
 20
-4.08284
 30
0.0
 10
-0.4
 20
-4.0
 30
0.0
  0
ENDSEC
  0
SECTION
  2
OBJECTS
  0
DICTIONARY
  5
C
330
0
100
AcDbDictionary
281
     1
  3
ACAD_GROUP
350
D
  3
ACAD_LAYOUT
350
1A
  3
ACAD_MATERIAL
350
3B
  3
ACAD_MLEADERSTYLE
350
76
  3
ACAD_MLINESTYLE
350
17
  3
ACAD_PLOTSETTINGS
350
19
  3
ACAD_PLOTSTYLENAME
350
E
  3
ACAD_TABLESTYLE
350
75
  3
ACAD_VISUALSTYLE
350
2A
  0
DICTIONARY
  5
D
102
{ACAD_REACTORS
330
C
102
}
330
C
100
AcDbDictionary
281
     1
  0
DICTIONARY
  5
1A
102
{ACAD_REACTORS
330
C
102
}
330
C
100
AcDbDictionary
281
     1
  3
Layout1
350
1E
  3
Layout2
350
26
  3
Model
350
22
  0
DICTIONARY
  5
3B
102
{ACAD_REACTORS
330
C
102
}
330
C
100
AcDbDictionary
281
     1
  3
ByBlock
350
3D
  3
ByLayer
350
3C
  3
Global
350
3E
  0
DICTIONARY
  5
76
102
{ACAD_REACTORS
330
C
102
}
330
C
100
AcDbDictionary
281
     1
  0
DICTIONARY
  5
17
102
{ACAD_REACTORS
330
C
102
}
330
C
100
AcDbDictionary
281
     1
  3
Standard
350
18
  0
DICTIONARY
  5
19
102
{ACAD_REACTORS
330
C
102
}
330
C
100
AcDbDictionary
281
     1
  0
ACDBDICTIONARYWDFLT
  5
E
102
{ACAD_REACTORS
330
C
102
}
330
C
100
AcDbDictionary
281
     1
  3
Normal
350
F
100
AcDbDictionaryWithDefault
340
F
  0
DICTIONARY
  5
75
102
{ACAD_REACTORS
330
C
102
}
330
C
100
AcDbDictionary
281
     1
  0
DICTIONARY
  5
2A
102
{ACAD_REACTORS
330
C
102
}
330
C
100
AcDbDictionary
281
     1
  3
2dWireframe
350
2F
  3
3D Hidden
350
31
  3
3dWireframe
350
30
  3
Basic
350
32
  3
Brighten
350
36
  3
ColorChange
350
3A
  3
Conceptual
350
34
  3
Dim
350
35
  3
Facepattern
350
39
  3
Flat
350
2B
  3
FlatWithEdges
350
2C
  3
Gouraud
350
2D
  3
GouraudWithEdges
350
2E
  3
Linepattern
350
38
  3
Realistic
350
33
  3
Thicken
350
37
  0
LAYOUT
  5
1E
102
{ACAD_REACTORS
330
1A
102
}
330
1A
100
AcDbPlotSettings
  1

  2
none_device
  4

  6

 40
0.0
 41
0.0
 42
0.0
 43
0.0
 44
0.0
 45
0.0
 46
0.0
 47
0.0
 48
0.0
 49
0.0
140
0.0
141
0.0
142
1.0
143
1.0
 70
   688
 72
     0
 73
     0
 74
     5
  7

 75
    16
 76
     0
 77
     2
 78
   300
147
1.0
148
0.0
149
0.0
100
AcDbLayout
  1
Layout1
 70
     1
 71
     1
 10
0.0
 20
0.0
 11
12.0
 21
9.0
 12
0.0
 22
0.0
 32
0.0
 14
1.000000000000000E+20
 24
1.000000000000000E+20
 34
1.000000000000000E+20
 15
-1.000000000000000E+20
 25
-1.000000000000000E+20
 35
-1.000000000000000E+20
146
0.0
 13
0.0
 23
0.0
 33
0.0
 16
1.0
 26
0.0
 36
0.0
 17
0.0
 27
1.0
 37
0.0
 76
     0
330
1B
  0
LAYOUT
  5
26
102
{ACAD_REACTORS
330
1A
102
}
330
1A
100
AcDbPlotSettings
  1

  2
none_device
  4

  6

 40
0.0
 41
0.0
 42
0.0
 43
0.0
 44
0.0
 45
0.0
 46
0.0
 47
0.0
 48
0.0
 49
0.0
140
0.0
141
0.0
142
1.0
143
1.0
 70
   688
 72
     0
 73
     0
 74
     5
  7

 75
    16
 76
     0
 77
     2
 78
   300
147
1.0
148
0.0
149
0.0
100
AcDbLayout
  1
Layout2
 70
     1
 71
     2
 10
0.0
 20
0.0
 11
0.0
 21
0.0
 12
0.0
 22
0.0
 32
0.0
 14
0.0
 24
0.0
 34
0.0
 15
0.0
 25
0.0
 35
0.0
146
0.0
 13
0.0
 23
0.0
 33
0.0
 16
1.0
 26
0.0
 36
0.0
 17
0.0
 27
1.0
 37
0.0
 76
     0
330
23
  0
LAYOUT
  5
22
102
{ACAD_REACTORS
330
1A
102
}
330
1A
100
AcDbPlotSettings
  1

  2
none_device
  4

  6

 40
0.0
 41
0.0
 42
0.0
 43
0.0
 44
0.0
 45
0.0
 46
0.0
 47
0.0
 48
0.0
 49
0.0
140
0.0
141
0.0
142
1.0
143
1.0
 70
  1712
 72
     0
 73
     0
 74
     0
  7

 75
     0
 76
     0
 77
     2
 78
   300
147
1.0
148
0.0
149
0.0
100
AcDbLayout
  1
Model
 70
     1
 71
     0
 10
0.0
 20
0.0
 11
12.0
 21
9.0
 12
0.0
 22
0.0
 32
0.0
 14
-3.23337
 24
-4.72646
 34
0.0
 15
1.33256
 25
4.8271
 35
0.0
146
0.0
 13
0.0
 23
0.0
 33
0.0
 16
1.0
 26
0.0
 36
0.0
 17
0.0
 27
1.0
 37
0.0
 76
     0
330
1F
331
29
  0
MATERIAL
  5
3D
102
{ACAD_REACTORS
330
3B
102
}
330
3B
100
AcDbMaterial
  1
ByBlock
 72
     1
 94
      127
  0
MATERIAL
  5
3C
102
{ACAD_REACTORS
330
3B
102
}
330
3B
100
AcDbMaterial
  1
ByLayer
 72
     1
 94
      127
  0
MATERIAL
  5
3E
102
{ACAD_REACTORS
330
3B
102
}
330
3B
100
AcDbMaterial
  1
Global
 72
     1
 94
      127
  0
MLINESTYLE
  5
18
102
{ACAD_REACTORS
330
17
102
}
330
17
100
AcDbMlineStyle
  2
Standard
 70
     0
  3

 62
   256
 51
90.0
 52
90.0
 71
     2
 49
0.5
 62
   256
  6
BYLAYER
 49
-0.5
 62
   256
  6
BYLAYER
  0
ACDBPLACEHOLDER
  5
F
102
{ACAD_REACTORS
330
E
102
}
330
E
  0
VISUALSTYLE
  5
2F
102
{ACAD_REACTORS
330
2A
102
}
102
{ACAD_XDICTIONARY
360
5D
102
}
330
2A
100
AcDbVisualStyle
  2
2dWireframe
 70
     4
 71
     0
 72
     2
 73
     0
 90
        0
 40
-0.6
 41
-30.0
 62
     5
 63
     7
421
 16777215
 74
     1
 91
        4
 64
     7
 65
   257
 75
     1
175
     1
 42
1.0
 92
        0
 66
   257
 43
1.0
 76
     1
 77
     6
 78
     2
 67
     7
 79
     5
170
     0
171
     0
290
     0
174
     0
 93
        1
 44
0.0
173
     0
291
     0
 45
0.0
  0
VISUALSTYLE
  5
31
102
{ACAD_REACTORS
330
2A
102
}
102
{ACAD_XDICTIONARY
360
61
102
}
330
2A
100
AcDbVisualStyle
  2
3D Hidden
 70
     6
 71
     1
 72
     2
 73
     2
 90
        0
 40
-0.6
 41
-30.0
 62
     5
 63
     7
421
 16777215
 74
     2
 91
        2
 64
     7
 65
   257
 75
     2
175
     1
 42
40.0
 92
        0
 66
   257
 43
1.0
 76
     1
 77
     6
 78
     2
 67
     7
 79
     3
170
     0
171
     0
290
     0
174
     0
 93
        1
 44
0.0
173
     0
291
     0
 45
0.0
  0
VISUALSTYLE
  5
30
102
{ACAD_REACTORS
330
2A
102
}
102
{ACAD_XDICTIONARY
360
5F
102
}
330
2A
100
AcDbVisualStyle
  2
3dWireframe
 70
     5
 71
     0
 72
     2
 73
     0
 90
        0
 40
-0.6
 41
-30.0
 62
     5
 63
     7
421
 16777215
 74
     1
 91
        4
 64
     7
 65
   257
 75
     1
175
     1
 42
1.0
 92
        0
 66
   257
 43
1.0
 76
     1
 77
     6
 78
     2
 67
     7
 79
     5
170
     0
171
     0
290
     0
174
     0
 93
        1
 44
0.0
173
     0
291
     0
 45
0.0
  0
VISUALSTYLE
  5
32
102
{ACAD_REACTORS
330
2A
102
}
102
{ACAD_XDICTIONARY
360
63
102
}
330
2A
100
AcDbVisualStyle
  2
Basic
 70
     7
 71
     1
 72
     0
 73
     1
 90
        0
 40
-0.6
 41
-30.0
 62
     5
 63
     7
421
 16777215
 74
     0
 91
        4
 64
     7
 65
   257
 75
     1
175
     1
 42
1.0
 92
        8
 66
     7
 43
1.0
 76
     1
 77
     6
 78
     2
 67
     7
 79
     5
170
     0
171
     0
290
     0
174
     0
 93
        1
 44
0.0
173
     0
291
     1
 45
0.0
  0
VISUALSTYLE
  5
36
102
{ACAD_REACTORS
330
2A
102
}
102
{ACAD_XDICTIONARY
360
6B
102
}
330
2A
100
AcDbVisualStyle
  2
Brighten
 70
    12
 71
     2
 72
     2
 73
     0
 90
        0
 40
-0.6
 41
-30.0
 62
     5
 63
     7
421
 16777215
 74
     1
 91
        4
 64
     7
 65
   257
 75
     1
175
     1
 42
1.0
 92
        8
 66
     7
 43
1.0
 76
     1
 77
     6
 78
     2
 67
     7
 79
     5
170
     0
171
     0
290
     0
174
     0
 93
        1
 44
50.0
173
     0
291
     1
 45
0.0
  0
VISUALSTYLE
  5
3A
102
{ACAD_REACTORS
330
2A
102
}
102
{ACAD_XDICTIONARY
360
73
102
}
330
2A
100
AcDbVisualStyle
  2
ColorChange
 70
    16
 71
     2
 72
     2
 73
     3
 90
        0
 40
-0.6
 41
-30.0
 62
     5
 63
     8
421
  8421504
 74
     1
 91
        4
 64
     7
 65
   257
 75
     1
175
     1
 42
1.0
 92
        8
 66
     8
424
  8421504
 43
1.0
 76
     1
 77
     6
 78
     2
 67
     7
 79
     5
170
     0
171
     0
290
     0
174
     0
 93
        1
 44
0.0
173
     0
291
     1
 45
0.0
  0
VISUALSTYLE
  5
34
102
{ACAD_REACTORS
330
2A
102
}
102
{ACAD_XDICTIONARY
360
67
102
}
330
2A
100
AcDbVisualStyle
  2
Conceptual
 70
     9
 71
     3
 72
     2
 73
     0
 90
        0
 40
-0.6
 41
-30.0
 62
     5
 63
     7
421
 16777215
 74
     2
 91
        2
 64
     7
 65
   257
 75
     1
175
     1
 42
40.0
 92
        8
 66
     7
 43
1.0
 76
     1
 77
     6
 78
     2
 67
     7
 79
     3
170
     0
171
     0
290
     0
174
     0
 93
        1
 44
0.0
173
     0
291
     0
 45
0.0
  0
VISUALSTYLE
  5
35
102
{ACAD_REACTORS
330
2A
102
}
102
{ACAD_XDICTIONARY
360
69
102
}
330
2A
100
AcDbVisualStyle
  2
Dim
 70
    11
 71
     2
 72
     2
 73
     0
 90
        0
 40
-0.6
 41
-30.0
 62
     5
 63
     7
421
 16777215
 74
     1
 91
        4
 64
     7
 65
   257
 75
     1
175
     1
 42
1.0
 92
        8
 66
     7
 43
1.0
 76
     1
 77
     6
 78
     2
 67
     7
 79
     5
170
     0
171
     0
290
     0
174
     0
 93
        1
 44
-50.0
173
     0
291
     1
 45
0.0
  0
VISUALSTYLE
  5
39
102
{ACAD_REACTORS
330
2A
102
}
102
{ACAD_XDICTIONARY
360
71
102
}
330
2A
100
AcDbVisualStyle
  2
Facepattern
 70
    15
 71
     2
 72
     2
 73
     0
 90
        0
 40
-0.6
 41
-30.0
 62
     5
 63
     7
421
 16777215
 74
     1
 91
        4
 64
     7
 65
   257
 75
     1
175
     1
 42
1.0
 92
        8
 66
     7
 43
1.0
 76
     1
 77
     6
 78
     2
 67
     7
 79
     5
170
     0
171
     0
290
     0
174
     0
 93
        1
 44
0.0
173
     0
291
     1
 45
0.0
  0
VISUALSTYLE
  5
2B
102
{ACAD_REACTORS
330
2A
102
}
102
{ACAD_XDICTIONARY
360
55
102
}
330
2A
100
AcDbVisualStyle
  2
Flat
 70
     0
 71
     2
 72
     1
 73
     1
 90
        2
 40
-0.6
 41
30.0
 62
     5
 63
     7
421
 16777215
 74
     0
 91
        4
 64
     7
 65
   257
 75
     1
175
     1
 42
1.0
 92
        8
 66
     7
 43
1.0
 76
     1
 77
     6
 78
     2
 67
     7
 79
     5
170
     0
171
     0
290
     0
174
     0
 93
       13
 44
0.0
173
     0
291
     1
 45
0.0
  0
VISUALSTYLE
  5
2C
102
{ACAD_REACTORS
330
2A
102
}
102
{ACAD_XDICTIONARY
360
57
102
}
330
2A
100
AcDbVisualStyle
  2
FlatWithEdges
 70
     1
 71
     2
 72
     1
 73
     1
 90
        2
 40
-0.6
 41
30.0
 62
     5
 63
     7
421
 16777215
 74
     1
 91
        4
 64
     7
 65
   257
 75
     1
175
     1
 42
1.0
 92
        0
 66
   257
 43
1.0
 76
     1
 77
     6
 78
     2
 67
     7
 79
     5
170
     0
171
     0
290
     0
174
     0
 93
       13
 44
0.0
173
     0
291
     1
 45
0.0
  0
VISUALSTYLE
  5
2D
102
{ACAD_REACTORS
330
2A
102
}
102
{ACAD_XDICTIONARY
360
59
102
}
330
2A
100
AcDbVisualStyle
  2
Gouraud
 70
     2
 71
     2
 72
     2
 73
     1
 90
        2
 40
-0.6
 41
30.0
 62
     5
 63
     7
421
 16777215
 74
     0
 91
        4
 64
     7
 65
   257
 75
     1
175
     1
 42
1.0
 92
        0
 66
     7
 43
1.0
 76
     1
 77
     6
 78
     2
 67
     7
 79
     5
170
     0
171
     0
290
     0
174
     0
 93
       13
 44
0.0
173
     0
291
     1
 45
0.0
  0
VISUALSTYLE
  5
2E
102
{ACAD_REACTORS
330
2A
102
}
102
{ACAD_XDICTIONARY
360
5B
102
}
330
2A
100
AcDbVisualStyle
  2
GouraudWithEdges
 70
     3
 71
     2
 72
     2
 73
     1
 90
        2
 40
-0.6
 41
30.0
 62
     5
 63
     7
421
 16777215
 74
     1
 91
        4
 64
     7
 65
   257
 75
     1
175
     1
 42
1.0
 92
        0
 66
   257
 43
1.0
 76
     1
 77
     6
 78
     2
 67
     7
 79
     5
170
     0
171
     0
290
     0
174
     0
 93
       13
 44
0.0
173
     0
291
     1
 45
0.0
  0
VISUALSTYLE
  5
38
102
{ACAD_REACTORS
330
2A
102
}
102
{ACAD_XDICTIONARY
360
6F
102
}
330
2A
100
AcDbVisualStyle
  2
Linepattern
 70
    14
 71
     2
 72
     2
 73
     0
 90
        0
 40
-0.6
 41
-30.0
 62
     5
 63
     7
421
 16777215
 74
     1
 91
        4
 64
     7
 65
   257
 75
     7
175
     7
 42
1.0
 92
        8
 66
     7
 43
1.0
 76
     1
 77
     6
 78
     2
 67
     7
 79
     5
170
     0
171
     0
290
     0
174
     0
 93
        1
 44
0.0
173
     0
291
     1
 45
0.0
  0
VISUALSTYLE
  5
33
102
{ACAD_REACTORS
330
2A
102
}
102
{ACAD_XDICTIONARY
360
65
102
}
330
2A
100
AcDbVisualStyle
  2
Realistic
 70
     8
 71
     2
 72
     2
 73
     0
 90
        0
 40
-0.6
 41
-30.0
 62
     5
 63
     7
421
 16777215
 74
     1
 91
        0
 64
     7
 65
   257
 75
     1
175
     1
 42
1.0
 92
        8
 66
     8
424
  7895160
 43
1.0
 76
     1
 77
     6
 78
     2
 67
     7
 79
     5
170
     0
171
     0
290
     0
174
     0
 93
       13
 44
0.0
173
     0
291
     0
 45
0.0
  0
VISUALSTYLE
  5
37
102
{ACAD_REACTORS
330
2A
102
}
102
{ACAD_XDICTIONARY
360
6D
102
}
330
2A
100
AcDbVisualStyle
  2
Thicken
 70
    13
 71
     2
 72
     2
 73
     0
 90
        0
 40
-0.6
 41
-30.0
 62
     5
 63
     7
421
 16777215
 74
     1
 91
        4
 64
     7
 65
   257
 75
     1
175
     1
 42
1.0
 92
       12
 66
     7
 43
1.0
 76
     1
 77
     6
 78
     2
 67
     7
 79
     5
170
     0
171
     0
290
     0
174
     0
 93
        1
 44
0.0
173
     0
291
     1
 45
0.0
  0
DICTIONARY
  5
5D
330
2F
100
AcDbDictionary
280
     1
281
     1
  3
ACAD_XREC_ROUNDTRIP
360
5E
  0
DICTIONARY
  5
61
330
31
100
AcDbDictionary
280
     1
281
     1
  3
ACAD_XREC_ROUNDTRIP
360
62
  0
DICTIONARY
  5
5F
330
30
100
AcDbDictionary
280
     1
281
     1
  3
ACAD_XREC_ROUNDTRIP
360
60
  0
DICTIONARY
  5
63
330
32
100
AcDbDictionary
280
     1
281
     1
  3
ACAD_XREC_ROUNDTRIP
360
64
  0
DICTIONARY
  5
6B
330
36
100
AcDbDictionary
280
     1
281
     1
  3
ACAD_XREC_ROUNDTRIP
360
6C
  0
DICTIONARY
  5
73
330
3A
100
AcDbDictionary
280
     1
281
     1
  3
ACAD_XREC_ROUNDTRIP
360
74
  0
DICTIONARY
  5
67
330
34
100
AcDbDictionary
280
     1
281
     1
  3
ACAD_XREC_ROUNDTRIP
360
68
  0
DICTIONARY
  5
69
330
35
100
AcDbDictionary
280
     1
281
     1
  3
ACAD_XREC_ROUNDTRIP
360
6A
  0
DICTIONARY
  5
71
330
39
100
AcDbDictionary
280
     1
281
     1
  3
ACAD_XREC_ROUNDTRIP
360
72
  0
DICTIONARY
  5
55
330
2B
100
AcDbDictionary
280
     1
281
     1
  3
ACAD_XREC_ROUNDTRIP
360
56
  0
DICTIONARY
  5
57
330
2C
100
AcDbDictionary
280
     1
281
     1
  3
ACAD_XREC_ROUNDTRIP
360
58
  0
DICTIONARY
  5
59
330
2D
100
AcDbDictionary
280
     1
281
     1
  3
ACAD_XREC_ROUNDTRIP
360
5A
  0
DICTIONARY
  5
5B
330
2E
100
AcDbDictionary
280
     1
281
     1
  3
ACAD_XREC_ROUNDTRIP
360
5C
  0
DICTIONARY
  5
6F
330
38
100
AcDbDictionary
280
     1
281
     1
  3
ACAD_XREC_ROUNDTRIP
360
70
  0
DICTIONARY
  5
65
330
33
100
AcDbDictionary
280
     1
281
     1
  3
ACAD_XREC_ROUNDTRIP
360
66
  0
DICTIONARY
  5
6D
330
37
100
AcDbDictionary
280
     1
281
     1
  3
ACAD_XREC_ROUNDTRIP
360
6E
  0
XRECORD
  5
5E
102
{ACAD_REACTORS
330
5D
102
}
330
5D
100
AcDbXrecord
280
     1
102
RTVSPropertyOp0
 70
     1
102
RTVSPropertyOp1
 70
     1
102
RTVSPropertyOp2
 70
     1
102
RTVSPropertyOp3
 70
     1
102
RTVSPropertyOp4
 70
     1
102
RTVSPropertyOp5
 70
     1
102
RTVSPropertyOp6
 70
     1
102
RTVSPropertyOp7
 70
     1
102
RTVSPropertyOp8
 70
     1
102
RTVSPropertyOp9
 70
     1
102
RTVSPropertyOp10
 70
     1
102
RTVSPropertyOp11
 70
     1
102
RTVSPropertyOp12
 70
     1
102
RTVSPropertyOp13
 70
     1
102
RTVSPropertyOp14
 70
     1
102
RTVSPropertyOp15
 70
     1
102
RTVSPropertyOp16
 70
     1
102
RTVSPropertyOp17
 70
     1
102
RTVSPropertyOp18
 70
     1
102
RTVSPropertyOp19
 70
     1
102
RTVSPropertyOp20
 70
     1
102
RTVSPropertyOp21
 70
     1
102
RTVSPropertyOp22
 70
     1
102
RTVSPropertyOp23
 70
     1
102
RTVSPropertyOp24
 70
     1
102
RTVSPropertyOp25
 70
     1
102
RTVSPropertyOp26
 70
     1
102
RTVSPropertyOp27
 70
     1
102
RTVSPropertyOp28
 70
     1
102
RTVSPropertyOp29
 70
     1
102
RTVSPropertyOp30
 70
     1
102
RTVSPropertyOp31
 70
     1
102
RTVSPropertyOp32
 70
     1
  0
XRECORD
  5
62
102
{ACAD_REACTORS
330
61
102
}
330
61
100
AcDbXrecord
280
     1
102
RTVSPropertyOp0
 70
     1
102
RTVSPropertyOp1
 70
     1
102
RTVSPropertyOp2
 70
     1
102
RTVSPropertyOp3
 70
     1
102
RTVSPropertyOp4
 70
     1
102
RTVSPropertyOp5
 70
     1
102
RTVSPropertyOp6
 70
     1
102
RTVSPropertyOp7
 70
     1
102
RTVSPropertyOp8
 70
     1
102
RTVSPropertyOp9
 70
     1
102
RTVSPropertyOp10
 70
     1
102
RTVSPropertyOp11
 70
     1
102
RTVSPropertyOp12
 70
     1
102
RTVSPropertyOp13
 70
     1
102
RTVSPropertyOp14
 70
     1
102
RTVSPropertyOp15
 70
     1
102
RTVSPropertyOp16
 70
     1
102
RTVSPropertyOp17
 70
     1
102
RTVSPropertyOp18
 70
     1
102
RTVSPropertyOp19
 70
     1
102
RTVSPropertyOp20
 70
     1
102
RTVSPropertyOp21
 70
     1
102
RTVSPropertyOp22
 70
     1
102
RTVSPropertyOp23
 70
     1
102
RTVSPropertyOp24
 70
     1
102
RTVSPropertyOp25
 70
     1
102
RTVSPropertyOp26
 70
     1
102
RTVSPropertyOp27
 70
     1
102
RTVSPropertyOp28
 70
     1
102
RTVSPropertyOp29
 70
     1
102
RTVSPropertyOp30
 70
     1
102
RTVSPropertyOp31
 70
     1
102
RTVSPropertyOp32
 70
     1
  0
XRECORD
  5
60
102
{ACAD_REACTORS
330
5F
102
}
330
5F
100
AcDbXrecord
280
     1
102
RTVSPropertyOp0
 70
     1
102
RTVSPropertyOp1
 70
     1
102
RTVSPropertyOp2
 70
     1
102
RTVSPropertyOp3
 70
     1
102
RTVSPropertyOp4
 70
     1
102
RTVSPropertyOp5
 70
     1
102
RTVSPropertyOp6
 70
     1
102
RTVSPropertyOp7
 70
     1
102
RTVSPropertyOp8
 70
     1
102
RTVSPropertyOp9
 70
     1
102
RTVSPropertyOp10
 70
     1
102
RTVSPropertyOp11
 70
     1
102
RTVSPropertyOp12
 70
     1
102
RTVSPropertyOp13
 70
     1
102
RTVSPropertyOp14
 70
     1
102
RTVSPropertyOp15
 70
     1
102
RTVSPropertyOp16
 70
     1
102
RTVSPropertyOp17
 70
     1
102
RTVSPropertyOp18
 70
     1
102
RTVSPropertyOp19
 70
     1
102
RTVSPropertyOp20
 70
     1
102
RTVSPropertyOp21
 70
     1
102
RTVSPropertyOp22
 70
     1
102
RTVSPropertyOp23
 70
     1
102
RTVSPropertyOp24
 70
     1
102
RTVSPropertyOp25
 70
     1
102
RTVSPropertyOp26
 70
     1
102
RTVSPropertyOp27
 70
     1
102
RTVSPropertyOp28
 70
     1
102
RTVSPropertyOp29
 70
     1
102
RTVSPropertyOp30
 70
     1
102
RTVSPropertyOp31
 70
     1
102
RTVSPropertyOp32
 70
     1
  0
XRECORD
  5
64
102
{ACAD_REACTORS
330
63
102
}
330
63
100
AcDbXrecord
280
     1
102
RTVSPropertyOp0
 70
     1
102
RTVSPropertyOp1
 70
     1
102
RTVSPropertyOp2
 70
     1
102
RTVSPropertyOp3
 70
     1
102
RTVSPropertyOp4
 70
     1
102
RTVSPropertyOp5
 70
     1
102
RTVSPropertyOp6
 70
     1
102
RTVSPropertyOp7
 70
     1
102
RTVSPropertyOp8
 70
     1
102
RTVSPropertyOp9
 70
     1
102
RTVSPropertyOp10
 70
     1
102
RTVSPropertyOp11
 70
     1
102
RTVSPropertyOp12
 70
     1
102
RTVSPropertyOp13
 70
     1
102
RTVSPropertyOp14
 70
     1
102
RTVSPropertyOp15
 70
     1
102
RTVSPropertyOp16
 70
     1
102
RTVSPropertyOp17
 70
     1
102
RTVSPropertyOp18
 70
     1
102
RTVSPropertyOp19
 70
     1
102
RTVSPropertyOp20
 70
     1
102
RTVSPropertyOp21
 70
     1
102
RTVSPropertyOp22
 70
     1
102
RTVSPropertyOp23
 70
     1
102
RTVSPropertyOp24
 70
     1
102
RTVSPropertyOp25
 70
     1
102
RTVSPropertyOp26
 70
     1
102
RTVSPropertyOp27
 70
     1
102
RTVSPropertyOp28
 70
     1
102
RTVSPropertyOp29
 70
     1
102
RTVSPropertyOp30
 70
     1
102
RTVSPropertyOp31
 70
     1
102
RTVSPropertyOp32
 70
     1
  0
XRECORD
  5
6C
102
{ACAD_REACTORS
330
6B
102
}
330
6B
100
AcDbXrecord
280
     1
102
RTVSPropertyOp0
 70
     1
102
RTVSPropertyOp1
 70
     1
102
RTVSPropertyOp2
 70
     1
102
RTVSPropertyOp3
 70
     1
102
RTVSPropertyOp4
 70
     1
102
RTVSPropertyOp5
 70
     1
102
RTVSPropertyOp6
 70
     1
102
RTVSPropertyOp7
 70
     1
102
RTVSPropertyOp8
 70
     1
102
RTVSPropertyOp9
 70
     1
102
RTVSPropertyOp10
 70
     1
102
RTVSPropertyOp11
 70
     1
102
RTVSPropertyOp12
 70
     1
102
RTVSPropertyOp13
 70
     1
102
RTVSPropertyOp14
 70
     1
102
RTVSPropertyOp15
 70
     1
102
RTVSPropertyOp16
 70
     1
102
RTVSPropertyOp17
 70
     1
102
RTVSPropertyOp18
 70
     1
102
RTVSPropertyOp19
 70
     1
102
RTVSPropertyOp20
 70
     1
102
RTVSPropertyOp21
 70
     1
102
RTVSPropertyOp22
 70
     1
102
RTVSPropertyOp23
 70
     1
102
RTVSPropertyOp24
 70
     1
102
RTVSPropertyOp25
 70
     1
102
RTVSPropertyOp26
 70
     1
102
RTVSPropertyOp27
 70
     1
102
RTVSPropertyOp28
 70
     1
102
RTVSPropertyOp29
 70
     1
102
RTVSPropertyOp30
 70
     1
102
RTVSPropertyOp31
 70
     1
102
RTVSPropertyOp32
 70
     1
  0
XRECORD
  5
74
102
{ACAD_REACTORS
330
73
102
}
330
73
100
AcDbXrecord
280
     1
102
RTVSPropertyOp0
 70
     1
102
RTVSPropertyOp1
 70
     1
102
RTVSPropertyOp2
 70
     1
102
RTVSPropertyOp3
 70
     1
102
RTVSPropertyOp4
 70
     1
102
RTVSPropertyOp5
 70
     1
102
RTVSPropertyOp6
 70
     1
102
RTVSPropertyOp7
 70
     1
102
RTVSPropertyOp8
 70
     1
102
RTVSPropertyOp9
 70
     1
102
RTVSPropertyOp10
 70
     1
102
RTVSPropertyOp11
 70
     1
102
RTVSPropertyOp12
 70
     1
102
RTVSPropertyOp13
 70
     1
102
RTVSPropertyOp14
 70
     1
102
RTVSPropertyOp15
 70
     1
102
RTVSPropertyOp16
 70
     1
102
RTVSPropertyOp17
 70
     1
102
RTVSPropertyOp18
 70
     1
102
RTVSPropertyOp19
 70
     1
102
RTVSPropertyOp20
 70
     1
102
RTVSPropertyOp21
 70
     1
102
RTVSPropertyOp22
 70
     1
102
RTVSPropertyOp23
 70
     1
102
RTVSPropertyOp24
 70
     1
102
RTVSPropertyOp25
 70
     1
102
RTVSPropertyOp26
 70
     1
102
RTVSPropertyOp27
 70
     1
102
RTVSPropertyOp28
 70
     1
102
RTVSPropertyOp29
 70
     1
102
RTVSPropertyOp30
 70
     1
102
RTVSPropertyOp31
 70
     1
102
RTVSPropertyOp32
 70
     1
  0
XRECORD
  5
68
102
{ACAD_REACTORS
330
67
102
}
330
67
100
AcDbXrecord
280
     1
102
RTVSPropertyOp0
 70
     1
102
RTVSPropertyOp1
 70
     1
102
RTVSPropertyOp2
 70
     1
102
RTVSPropertyOp3
 70
     1
102
RTVSPropertyOp4
 70
     1
102
RTVSPropertyOp5
 70
     1
102
RTVSPropertyOp6
 70
     1
102
RTVSPropertyOp7
 70
     1
102
RTVSPropertyOp8
 70
     1
102
RTVSPropertyOp9
 70
     1
102
RTVSPropertyOp10
 70
     1
102
RTVSPropertyOp11
 70
     1
102
RTVSPropertyOp12
 70
     1
102
RTVSPropertyOp13
 70
     1
102
RTVSPropertyOp14
 70
     1
102
RTVSPropertyOp15
 70
     1
102
RTVSPropertyOp16
 70
     1
102
RTVSPropertyOp17
 70
     1
102
RTVSPropertyOp18
 70
     1
102
RTVSPropertyOp19
 70
     1
102
RTVSPropertyOp20
 70
     1
102
RTVSPropertyOp21
 70
     1
102
RTVSPropertyOp22
 70
     1
102
RTVSPropertyOp23
 70
     1
102
RTVSPropertyOp24
 70
     1
102
RTVSPropertyOp25
 70
     1
102
RTVSPropertyOp26
 70
     1
102
RTVSPropertyOp27
 70
     1
102
RTVSPropertyOp28
 70
     1
102
RTVSPropertyOp29
 70
     1
102
RTVSPropertyOp30
 70
     1
102
RTVSPropertyOp31
 70
     1
102
RTVSPropertyOp32
 70
     1
  0
XRECORD
  5
6A
102
{ACAD_REACTORS
330
69
102
}
330
69
100
AcDbXrecord
280
     1
102
RTVSPropertyOp0
 70
     1
102
RTVSPropertyOp1
 70
     1
102
RTVSPropertyOp2
 70
     1
102
RTVSPropertyOp3
 70
     1
102
RTVSPropertyOp4
 70
     1
102
RTVSPropertyOp5
 70
     1
102
RTVSPropertyOp6
 70
     1
102
RTVSPropertyOp7
 70
     1
102
RTVSPropertyOp8
 70
     1
102
RTVSPropertyOp9
 70
     1
102
RTVSPropertyOp10
 70
     1
102
RTVSPropertyOp11
 70
     1
102
RTVSPropertyOp12
 70
     1
102
RTVSPropertyOp13
 70
     1
102
RTVSPropertyOp14
 70
     1
102
RTVSPropertyOp15
 70
     1
102
RTVSPropertyOp16
 70
     1
102
RTVSPropertyOp17
 70
     1
102
RTVSPropertyOp18
 70
     1
102
RTVSPropertyOp19
 70
     1
102
RTVSPropertyOp20
 70
     1
102
RTVSPropertyOp21
 70
     1
102
RTVSPropertyOp22
 70
     1
102
RTVSPropertyOp23
 70
     1
102
RTVSPropertyOp24
 70
     1
102
RTVSPropertyOp25
 70
     1
102
RTVSPropertyOp26
 70
     1
102
RTVSPropertyOp27
 70
     1
102
RTVSPropertyOp28
 70
     1
102
RTVSPropertyOp29
 70
     1
102
RTVSPropertyOp30
 70
     1
102
RTVSPropertyOp31
 70
     1
102
RTVSPropertyOp32
 70
     1
  0
XRECORD
  5
72
102
{ACAD_REACTORS
330
71
102
}
330
71
100
AcDbXrecord
280
     1
102
RTVSPropertyOp0
 70
     1
102
RTVSPropertyOp1
 70
     1
102
RTVSPropertyOp2
 70
     1
102
RTVSPropertyOp3
 70
     1
102
RTVSPropertyOp4
 70
     1
102
RTVSPropertyOp5
 70
     1
102
RTVSPropertyOp6
 70
     1
102
RTVSPropertyOp7
 70
     1
102
RTVSPropertyOp8
 70
     1
102
RTVSPropertyOp9
 70
     1
102
RTVSPropertyOp10
 70
     1
102
RTVSPropertyOp11
 70
     1
102
RTVSPropertyOp12
 70
     1
102
RTVSPropertyOp13
 70
     1
102
RTVSPropertyOp14
 70
     1
102
RTVSPropertyOp15
 70
     1
102
RTVSPropertyOp16
 70
     1
102
RTVSPropertyOp17
 70
     1
102
RTVSPropertyOp18
 70
     1
102
RTVSPropertyOp19
 70
     1
102
RTVSPropertyOp20
 70
     1
102
RTVSPropertyOp21
 70
     1
102
RTVSPropertyOp22
 70
     1
102
RTVSPropertyOp23
 70
     1
102
RTVSPropertyOp24
 70
     1
102
RTVSPropertyOp25
 70
     1
102
RTVSPropertyOp26
 70
     1
102
RTVSPropertyOp27
 70
     1
102
RTVSPropertyOp28
 70
     1
102
RTVSPropertyOp29
 70
     1
102
RTVSPropertyOp30
 70
     1
102
RTVSPropertyOp31
 70
     1
102
RTVSPropertyOp32
 70
     1
  0
XRECORD
  5
56
102
{ACAD_REACTORS
330
55
102
}
330
55
100
AcDbXrecord
280
     1
102
RTVSPropertyOp0
 70
     1
102
RTVSPropertyOp1
 70
     1
102
RTVSPropertyOp2
 70
     1
102
RTVSPropertyOp3
 70
     1
102
RTVSPropertyOp4
 70
     1
102
RTVSPropertyOp5
 70
     1
102
RTVSPropertyOp6
 70
     1
102
RTVSPropertyOp7
 70
     1
102
RTVSPropertyOp8
 70
     1
102
RTVSPropertyOp9
 70
     1
102
RTVSPropertyOp10
 70
     1
102
RTVSPropertyOp11
 70
     1
102
RTVSPropertyOp12
 70
     1
102
RTVSPropertyOp13
 70
     1
102
RTVSPropertyOp14
 70
     1
102
RTVSPropertyOp15
 70
     1
102
RTVSPropertyOp16
 70
     1
102
RTVSPropertyOp17
 70
     1
102
RTVSPropertyOp18
 70
     1
102
RTVSPropertyOp19
 70
     1
102
RTVSPropertyOp20
 70
     1
102
RTVSPropertyOp21
 70
     1
102
RTVSPropertyOp22
 70
     1
102
RTVSPropertyOp23
 70
     1
102
RTVSPropertyOp24
 70
     1
102
RTVSPropertyOp25
 70
     1
102
RTVSPropertyOp26
 70
     1
102
RTVSPropertyOp27
 70
     1
102
RTVSPropertyOp28
 70
     1
102
RTVSPropertyOp29
 70
     1
102
RTVSPropertyOp30
 70
     1
102
RTVSPropertyOp31
 70
     1
102
RTVSPropertyOp32
 70
     1
  0
XRECORD
  5
58
102
{ACAD_REACTORS
330
57
102
}
330
57
100
AcDbXrecord
280
     1
102
RTVSPropertyOp0
 70
     1
102
RTVSPropertyOp1
 70
     1
102
RTVSPropertyOp2
 70
     1
102
RTVSPropertyOp3
 70
     1
102
RTVSPropertyOp4
 70
     1
102
RTVSPropertyOp5
 70
     1
102
RTVSPropertyOp6
 70
     1
102
RTVSPropertyOp7
 70
     1
102
RTVSPropertyOp8
 70
     1
102
RTVSPropertyOp9
 70
     1
102
RTVSPropertyOp10
 70
     1
102
RTVSPropertyOp11
 70
     1
102
RTVSPropertyOp12
 70
     1
102
RTVSPropertyOp13
 70
     1
102
RTVSPropertyOp14
 70
     1
102
RTVSPropertyOp15
 70
     1
102
RTVSPropertyOp16
 70
     1
102
RTVSPropertyOp17
 70
     1
102
RTVSPropertyOp18
 70
     1
102
RTVSPropertyOp19
 70
     1
102
RTVSPropertyOp20
 70
     1
102
RTVSPropertyOp21
 70
     1
102
RTVSPropertyOp22
 70
     1
102
RTVSPropertyOp23
 70
     1
102
RTVSPropertyOp24
 70
     1
102
RTVSPropertyOp25
 70
     1
102
RTVSPropertyOp26
 70
     1
102
RTVSPropertyOp27
 70
     1
102
RTVSPropertyOp28
 70
     1
102
RTVSPropertyOp29
 70
     1
102
RTVSPropertyOp30
 70
     1
102
RTVSPropertyOp31
 70
     1
102
RTVSPropertyOp32
 70
     1
  0
XRECORD
  5
5A
102
{ACAD_REACTORS
330
59
102
}
330
59
100
AcDbXrecord
280
     1
102
RTVSPropertyOp0
 70
     1
102
RTVSPropertyOp1
 70
     1
102
RTVSPropertyOp2
 70
     1
102
RTVSPropertyOp3
 70
     1
102
RTVSPropertyOp4
 70
     1
102
RTVSPropertyOp5
 70
     1
102
RTVSPropertyOp6
 70
     1
102
RTVSPropertyOp7
 70
     1
102
RTVSPropertyOp8
 70
     1
102
RTVSPropertyOp9
 70
     1
102
RTVSPropertyOp10
 70
     1
102
RTVSPropertyOp11
 70
     1
102
RTVSPropertyOp12
 70
     1
102
RTVSPropertyOp13
 70
     1
102
RTVSPropertyOp14
 70
     1
102
RTVSPropertyOp15
 70
     1
102
RTVSPropertyOp16
 70
     1
102
RTVSPropertyOp17
 70
     1
102
RTVSPropertyOp18
 70
     1
102
RTVSPropertyOp19
 70
     1
102
RTVSPropertyOp20
 70
     1
102
RTVSPropertyOp21
 70
     1
102
RTVSPropertyOp22
 70
     1
102
RTVSPropertyOp23
 70
     1
102
RTVSPropertyOp24
 70
     1
102
RTVSPropertyOp25
 70
     1
102
RTVSPropertyOp26
 70
     1
102
RTVSPropertyOp27
 70
     1
102
RTVSPropertyOp28
 70
     1
102
RTVSPropertyOp29
 70
     1
102
RTVSPropertyOp30
 70
     1
102
RTVSPropertyOp31
 70
     1
102
RTVSPropertyOp32
 70
     1
  0
XRECORD
  5
5C
102
{ACAD_REACTORS
330
5B
102
}
330
5B
100
AcDbXrecord
280
     1
102
RTVSPropertyOp0
 70
     1
102
RTVSPropertyOp1
 70
     1
102
RTVSPropertyOp2
 70
     1
102
RTVSPropertyOp3
 70
     1
102
RTVSPropertyOp4
 70
     1
102
RTVSPropertyOp5
 70
     1
102
RTVSPropertyOp6
 70
     1
102
RTVSPropertyOp7
 70
     1
102
RTVSPropertyOp8
 70
     1
102
RTVSPropertyOp9
 70
     1
102
RTVSPropertyOp10
 70
     1
102
RTVSPropertyOp11
 70
     1
102
RTVSPropertyOp12
 70
     1
102
RTVSPropertyOp13
 70
     1
102
RTVSPropertyOp14
 70
     1
102
RTVSPropertyOp15
 70
     1
102
RTVSPropertyOp16
 70
     1
102
RTVSPropertyOp17
 70
     1
102
RTVSPropertyOp18
 70
     1
102
RTVSPropertyOp19
 70
     1
102
RTVSPropertyOp20
 70
     1
102
RTVSPropertyOp21
 70
     1
102
RTVSPropertyOp22
 70
     1
102
RTVSPropertyOp23
 70
     1
102
RTVSPropertyOp24
 70
     1
102
RTVSPropertyOp25
 70
     1
102
RTVSPropertyOp26
 70
     1
102
RTVSPropertyOp27
 70
     1
102
RTVSPropertyOp28
 70
     1
102
RTVSPropertyOp29
 70
     1
102
RTVSPropertyOp30
 70
     1
102
RTVSPropertyOp31
 70
     1
102
RTVSPropertyOp32
 70
     1
  0
XRECORD
  5
70
102
{ACAD_REACTORS
330
6F
102
}
330
6F
100
AcDbXrecord
280
     1
102
RTVSPropertyOp0
 70
     1
102
RTVSPropertyOp1
 70
     1
102
RTVSPropertyOp2
 70
     1
102
RTVSPropertyOp3
 70
     1
102
RTVSPropertyOp4
 70
     1
102
RTVSPropertyOp5
 70
     1
102
RTVSPropertyOp6
 70
     1
102
RTVSPropertyOp7
 70
     1
102
RTVSPropertyOp8
 70
     1
102
RTVSPropertyOp9
 70
     1
102
RTVSPropertyOp10
 70
     1
102
RTVSPropertyOp11
 70
     1
102
RTVSPropertyOp12
 70
     1
102
RTVSPropertyOp13
 70
     1
102
RTVSPropertyOp14
 70
     1
102
RTVSPropertyOp15
 70
     1
102
RTVSPropertyOp16
 70
     1
102
RTVSPropertyOp17
 70
     1
102
RTVSPropertyOp18
 70
     1
102
RTVSPropertyOp19
 70
     1
102
RTVSPropertyOp20
 70
     1
102
RTVSPropertyOp21
 70
     1
102
RTVSPropertyOp22
 70
     1
102
RTVSPropertyOp23
 70
     1
102
RTVSPropertyOp24
 70
     1
102
RTVSPropertyOp25
 70
     1
102
RTVSPropertyOp26
 70
     1
102
RTVSPropertyOp27
 70
     1
102
RTVSPropertyOp28
 70
     1
102
RTVSPropertyOp29
 70
     1
102
RTVSPropertyOp30
 70
     1
102
RTVSPropertyOp31
 70
     1
102
RTVSPropertyOp32
 70
     1
  0
XRECORD
  5
66
102
{ACAD_REACTORS
330
65
102
}
330
65
100
AcDbXrecord
280
     1
102
RTVSPropertyOp0
 70
     1
102
RTVSPropertyOp1
 70
     1
102
RTVSPropertyOp2
 70
     1
102
RTVSPropertyOp3
 70
     1
102
RTVSPropertyOp4
 70
     1
102
RTVSPropertyOp5
 70
     1
102
RTVSPropertyOp6
 70
     1
102
RTVSPropertyOp7
 70
     1
102
RTVSPropertyOp8
 70
     1
102
RTVSPropertyOp9
 70
     1
102
RTVSPropertyOp10
 70
     1
102
RTVSPropertyOp11
 70
     1
102
RTVSPropertyOp12
 70
     1
102
RTVSPropertyOp13
 70
     1
102
RTVSPropertyOp14
 70
     1
102
RTVSPropertyOp15
 70
     1
102
RTVSPropertyOp16
 70
     1
102
RTVSPropertyOp17
 70
     1
102
RTVSPropertyOp18
 70
     1
102
RTVSPropertyOp19
 70
     1
102
RTVSPropertyOp20
 70
     1
102
RTVSPropertyOp21
 70
     1
102
RTVSPropertyOp22
 70
     1
102
RTVSPropertyOp23
 70
     1
102
RTVSPropertyOp24
 70
     1
102
RTVSPropertyOp25
 70
     1
102
RTVSPropertyOp26
 70
     1
102
RTVSPropertyOp27
 70
     1
102
RTVSPropertyOp28
 70
     1
102
RTVSPropertyOp29
 70
     1
102
RTVSPropertyOp30
 70
     1
102
RTVSPropertyOp31
 70
     1
102
RTVSPropertyOp32
 70
     1
  0
XRECORD
  5
6E
102
{ACAD_REACTORS
330
6D
102
}
330
6D
100
AcDbXrecord
280
     1
102
RTVSPropertyOp0
 70
     1
102
RTVSPropertyOp1
 70
     1
102
RTVSPropertyOp2
 70
     1
102
RTVSPropertyOp3
 70
     1
102
RTVSPropertyOp4
 70
     1
102
RTVSPropertyOp5
 70
     1
102
RTVSPropertyOp6
 70
     1
102
RTVSPropertyOp7
 70
     1
102
RTVSPropertyOp8
 70
     1
102
RTVSPropertyOp9
 70
     1
102
RTVSPropertyOp10
 70
     1
102
RTVSPropertyOp11
 70
     1
102
RTVSPropertyOp12
 70
     1
102
RTVSPropertyOp13
 70
     1
102
RTVSPropertyOp14
 70
     1
102
RTVSPropertyOp15
 70
     1
102
RTVSPropertyOp16
 70
     1
102
RTVSPropertyOp17
 70
     1
102
RTVSPropertyOp18
 70
     1
102
RTVSPropertyOp19
 70
     1
102
RTVSPropertyOp20
 70
     1
102
RTVSPropertyOp21
 70
     1
102
RTVSPropertyOp22
 70
     1
102
RTVSPropertyOp23
 70
     1
102
RTVSPropertyOp24
 70
     1
102
RTVSPropertyOp25
 70
     1
102
RTVSPropertyOp26
 70
     1
102
RTVSPropertyOp27
 70
     1
102
RTVSPropertyOp28
 70
     1
102
RTVSPropertyOp29
 70
     1
102
RTVSPropertyOp30
 70
     1
102
RTVSPropertyOp31
 70
     1
102
RTVSPropertyOp32
 70
     1
  0
ENDSEC
  0
EOF
