<?xml version="1.0" encoding="UTF-8"?>
<!DOCTYPE svg PUBLIC "-//W3C//DTD SVG 1.1//EN" "http://www.w3.org/Graphics/SVG/1.1/DTD/svg11.dtd">
<!-- Creator: CorelDRAW X6 -->
<svg xmlns="http://www.w3.org/2000/svg" xml:space="preserve" width="200mm" height="200mm" version="1.1" shape-rendering="geometricPrecision" text-rendering="geometricPrecision" image-rendering="optimizeQuality" fill-rule="evenodd" clip-rule="evenodd"
viewBox="0 0 20000 20000"
 xmlns:xlink="http://www.w3.org/1999/xlink">
 <g id="Layer_x0020_1">
  <metadata id="CorelCorpID_0Corel-Layer"/>
  <circle fill="none" stroke="black" stroke-width="52.92" stroke-linecap="round" stroke-linejoin="round" transform="matrix(1.6266E-014 -0.614169 0.614169 1.6266E-014 -49.6 24050.3)" r="529"/>
  <circle fill="none" stroke="black" stroke-width="52.92" stroke-linecap="round" stroke-linejoin="round" transform="matrix(1.6266E-014 -0.614169 0.614169 1.6266E-014 1450.4 24050.3)" r="529"/>
  <circle fill="none" stroke="black" stroke-width="52.92" stroke-linecap="round" stroke-linejoin="round" transform="matrix(1.6266E-014 -0.614169 0.614169 1.6266E-014 -1549.6 24050.3)" r="529"/>
  <path fill="none" fill-rule="nonzero" stroke="blue" stroke-width="52.92" stroke-linecap="round" stroke-linejoin="round" d="M-753 20757c-79,57 -185,1 -200,-92 -20,-120 147,-186 224,-97 46,54 34,147 -24,188"/>
  <path fill="none" fill-rule="nonzero" stroke="blue" stroke-width="52.92" stroke-linecap="round" stroke-linejoin="round" d="M-829 20607c-5,-18 -23,-31 -48,-25 -49,13 -32,86 19,76 23,-5 34,-31 29,-51z"/>
  <path fill="none" fill-rule="nonzero" stroke="blue" stroke-width="52.92" stroke-linecap="round" stroke-linejoin="round" d="M931 20689c-14,41 -45,77 -87,88 -92,25 -196,-77 -160,-171 29,-97 173,-115 231,-39 27,35 30,82 16,123"/>
  <path fill="none" fill-rule="nonzero" stroke="blue" stroke-width="52.92" stroke-linecap="round" stroke-linejoin="round" d="M752 20586c13,-10 32,-13 45,-3 19,13 22,42 6,58 -12,13 -34,16 -49,6 -10,-6 -16,-17 -18,-29 -2,-13 4,-24 15,-32z"/>
  <path fill="none" fill-rule="nonzero" stroke="blue" stroke-width="52.92" stroke-linecap="round" stroke-linejoin="round" d="M-67 20594c0,-440 -356,-796 -796,-796 -440,0 -796,356 -796,796 0,440 357,796 796,796 440,0 796,-356 796,-796"/>
  <path fill="none" fill-rule="nonzero" stroke="blue" stroke-width="52.92" stroke-linecap="round" stroke-linejoin="round" d="M1604 20594c0,-440 -356,-796 -796,-796 -440,0 -796,356 -796,796 0,440 356,796 796,796 440,0 796,-356 796,-796"/>
  <path fill="none" fill-rule="nonzero" stroke="blue" stroke-width="52.92" stroke-linecap="round" stroke-linejoin="round" d="M-1939 21224c15,-41 32,-90 44,-123 15,10 19,24 13,44l0 13c-45,-176 -2,-378 3,-556 60,79 92,193 151,278 -68,-319 -57,-677 -16,-999 17,-134 28,-286 73,-414 31,-86 124,-159 146,-241"/>
  <path fill="none" fill-rule="nonzero" stroke="blue" stroke-width="52.92" stroke-linecap="round" stroke-linejoin="round" d="M1586 19129c-268,19 -71,293 5,415 106,172 109,296 112,291 23,34 0,268 0,358l0 396c0,162 -9,328 3,490"/>
  <path fill="none" fill-rule="nonzero" stroke="blue" stroke-width="52.92" stroke-linecap="round" stroke-linejoin="round" d="M-1525 18936c-136,228 85,378 295,482 106,52 219,92 301,125 163,65 314,93 482,114 -40,-65 -115,-108 -138,-177 2,6 225,102 250,111 87,30 171,68 256,104 148,62 352,107 516,72 -70,-54 -128,-111 -175,-176 -27,-37 -70,-138 -70,-138 0,0 274,25 332,45 267,89 561,159 842,148 -14,-44 -34,-87 -58,-127 -28,-47 -64,-93 -83,-145 -67,-175 150,-201 272,-175 80,17 8,-254 -4,-276"/>
  <path fill="none" fill-rule="nonzero" stroke="blue" stroke-width="52.92" stroke-linecap="round" stroke-linejoin="round" d="M1552 18812c-18,107 -136,183 -224,233 -150,85 -325,135 -481,210 -333,161 -811,257 -1176,223 -236,-22 -469,-98 -681,-203 -149,-73 -380,-158 -486,-292 -62,-78 -106,-231 -29,-315 199,-218 491,62 673,149 183,88 367,151 568,177 501,63 866,-104 1284,-351 136,-80 222,-191 377,-129 79,31 190,198 173,298z"/>
  <path fill="none" fill-rule="nonzero" stroke="blue" stroke-width="52.92" stroke-linecap="round" stroke-linejoin="round" d="M-1599 22676c-19,-29 -33,-51 -37,-57 -56,-99 -101,-203 -134,-311 -68,-221 -160,-433 -160,-670 0,-178 23,-532 185,-651 134,142 127,402 298,520 31,-57 -10,-152 46,-196 183,162 262,429 465,575 28,-30 98,-184 148,-223 -46,12 -96,18 -150,18 19,48 21,24 19,-1 54,-12 101,-62 136,-103 81,-97 133,-200 229,-286 133,-120 295,-204 478,-205 178,-1 419,74 550,195 108,100 214,305 359,367 48,-80 120,-163 146,-250 74,75 135,149 185,242 14,3 -4,-13 4,4 25,-87 105,-174 155,-250 27,-41 56,-104 95,-130 53,52 108,147 123,217 75,-96 135,-215 213,-305 153,163 176,347 162,568 -10,152 -37,286 -93,428 -44,113 -109,216 -148,331 -12,34 -116,198 -106,218 -58,-108 -60,-267 -144,-364 -68,337 -186,826 -593,886 33,-141 55,-285 94,-426 -164,175 -242,530 -540,531 -8,-166 8,-376 -107,-511 -147,145 -163,381 -307,530 -194,-152 -310,-373 -524,-509 -9,176 39,347 35,521 -341,-176 -682,-583 -863,-912 -53,130 29,319 -73,424 0,1 -92,-135 -146,-216zm841 -1022c55,10 128,129 150,155 64,75 117,157 175,237 22,-44 47,-84 58,-133 131,29 231,218 330,303 24,-37 78,-190 128,-207 59,-20 175,141 221,175 59,-109 92,-256 167,-352 72,49 154,93 212,158 1,-1 1,-1 2,-2 33,-111 80,-217 135,-319l1 -3c-69,5 -140,4 -206,-13 -171,-43 -291,-182 -414,-295 6,53 13,108 10,164 -73,0 -177,-116 -206,-177 -112,59 -198,168 -338,164 21,-41 43,-84 33,-132 -160,103 -288,224 -459,276z"/>
  <path fill="none" stroke="black" stroke-width="52.92" stroke-linecap="round" stroke-linejoin="round" d="M-1898 21064c-7,-66 -5,-135 0,-205l0 205z"/>
  <polygon fill="none" stroke="black" stroke-width="52.92" stroke-linecap="round" stroke-linejoin="round" points="1454,19192 1459,19193 1458,19194 "/>
  <path fill="none" stroke="black" stroke-width="52.92" stroke-linecap="round" stroke-linejoin="round" d="M438 23350l0 -7c255,-39 334,-362 488,-527 -39,141 -61,285 -94,426 407,-60 525,-549 593,-886 85,97 86,257 144,364 -10,-21 95,-185 106,-218 40,-114 104,-218 148,-331 56,-142 83,-275 93,-428 13,-195 -3,-361 -112,-509l0 -338c22,-35 46,-69 71,-100 37,130 52,267 80,398 72,-112 125,-286 132,-421 63,43 125,124 147,199 50,-157 -3,-447 -3,-621 0,-167 4,-339 -36,-501 -45,-180 -110,-377 -234,-518 -78,-89 -252,-213 -376,-205 -21,2 -40,5 -56,9 0,-61 -20,-154 -37,-216 29,-32 52,-69 59,-111 17,-100 -94,-267 -173,-298 -24,-9 -45,-15 -66,-17 -59,-61 -107,-157 -145,-229 -50,-97 -106,-192 -154,-290 -102,-207 -186,-426 -301,-627 -105,-183 -173,-378 -233,-578 -65,-217 -100,-444 -6,-660 87,-198 384,-284 585,-187 123,60 220,424 314,145 112,-332 -216,-641 -506,-755 -371,-146 -725,-32 -1043,187 -455,313 -727,853 -933,1337 -135,317 -211,683 -240,1024 -13,148 -21,298 -34,445 -6,70 44,219 -5,277l2 5c-49,8 -96,32 -138,78 -63,69 -44,185 -1,268 -34,86 -23,167 16,239 -3,1 -6,3 -10,4 -6,-108 -176,-80 -286,-51 -382,98 -438,573 -450,901 -7,198 5,395 16,592 11,185 50,458 -16,629 49,-125 143,-223 203,-340 39,101 75,221 112,315 14,-38 30,-83 41,-116l0 179c-26,127 -32,261 -32,350 0,236 92,449 160,670 33,108 78,212 134,311 4,7 18,29 37,57 54,81 145,216 146,216 103,-105 21,-293 73,-424 171,312 486,694 809,883l-1179 0c-276,0 -500,224 -500,500l0 400c0,276 224,500 500,500l3400 0c276,0 500,-224 500,-500l0 -400c0,-276 -224,-500 -500,-500l-1213 0z"/>
  <circle fill="none" stroke="black" stroke-width="52.92" stroke-linecap="round" stroke-linejoin="round" transform="matrix(9.00886E-015 -0.340155 0.340155 9.00886E-015 -799.6 24050.3)" r="529"/>
  <circle fill="none" stroke="black" stroke-width="52.92" stroke-linecap="round" stroke-linejoin="round" transform="matrix(9.00886E-015 -0.340155 0.340155 9.00886E-015 700.4 24050.3)" r="529"/>
 </g>
</svg>
