  0
SECTION
  2
HEADER
  9
$ACADVER
  1
AC1021
  9
$ACADMAINTVER
 70
    25
  9
$DWGCODEPAGE
  3
ANSI_1252
  9
$INSBASE
 10
0.0
 20
0.0
 30
0.0
  9
$EXTMIN
 10
-12.28297
 20
-14.77679
 30
0.0
  9
$EXTMAX
 10
-7.71704
 20
-5.22323
 30
0.0
  9
$LIMMIN
 10
0.0
 20
0.0
  9
$LIMMAX
 10
12.0
 20
9.0
  9
$ORTHOMODE
 70
     0
  9
$REGENMODE
 70
     1
  9
$FILLMODE
 70
     1
  9
$QTEXTMODE
 70
     0
  9
$MIRRTEXT
 70
     1
  9
$LTSCALE
 40
1.0
  9
$ATTMODE
 70
     1
  9
$TEXTSIZE
 40
0.2
  9
$TRACEWID
 40
0.05
  9
$TEXTSTYLE
  7
Standard
  9
$CLAYER
  8
0
  9
$CELTYPE
  6
ByLayer
  9
$CECOLOR
 62
   256
  9
$CELTSCALE
 40
1.0
  9
$DISPSILH
 70
     0
  9
$DIMSCALE
 40
1.0
  9
$DIMASZ
 40
0.18
  9
$DIMEXO
 40
0.0625
  9
$DIMDLI
 40
0.38
  9
$DIMRND
 40
0.0
  9
$DIMDLE
 40
0.0
  9
$DIMEXE
 40
0.18
  9
$DIMTP
 40
0.0
  9
$DIMTM
 40
0.0
  9
$DIMTXT
 40
0.18
  9
$DIMCEN
 40
0.09
  9
$DIMTSZ
 40
0.0
  9
$DIMTOL
 70
     0
  9
$DIMLIM
 70
     0
  9
$DIMTIH
 70
     1
  9
$DIMTOH
 70
     1
  9
$DIMSE1
 70
     0
  9
$DIMSE2
 70
     0
  9
$DIMTAD
 70
     0
  9
$DIMZIN
 70
     0
  9
$DIMBLK
  1

  9
$DIMASO
 70
     1
  9
$DIMSHO
 70
     1
  9
$DIMPOST
  1

  9
$DIMAPOST
  1

  9
$DIMALT
 70
     0
  9
$DIMALTD
 70
     2
  9
$DIMALTF
 40
25.4
  9
$DIMLFAC
 40
1.0
  9
$DIMTOFL
 70
     0
  9
$DIMTVP
 40
0.0
  9
$DIMTIX
 70
     0
  9
$DIMSOXD
 70
     0
  9
$DIMSAH
 70
     0
  9
$DIMBLK1
  1

  9
$DIMBLK2
  1

  9
$DIMSTYLE
  2
Standard
  9
$DIMCLRD
 70
     0
  9
$DIMCLRE
 70
     0
  9
$DIMCLRT
 70
     0
  9
$DIMTFAC
 40
1.0
  9
$DIMGAP
 40
0.09
  9
$DIMJUST
 70
     0
  9
$DIMSD1
 70
     0
  9
$DIMSD2
 70
     0
  9
$DIMTOLJ
 70
     1
  9
$DIMTZIN
 70
     0
  9
$DIMALTZ
 70
     0
  9
$DIMALTTZ
 70
     0
  9
$DIMUPT
 70
     0
  9
$DIMDEC
 70
     4
  9
$DIMTDEC
 70
     4
  9
$DIMALTU
 70
     2
  9
$DIMALTTD
 70
     2
  9
$DIMTXSTY
  7
Standard
  9
$DIMAUNIT
 70
     0
  9
$DIMADEC
 70
     0
  9
$DIMALTRND
 40
0.0
  9
$DIMAZIN
 70
     0
  9
$DIMDSEP
 70
    46
  9
$DIMATFIT
 70
     3
  9
$DIMFRAC
 70
     0
  9
$DIMLDRBLK
  1

  9
$DIMLUNIT
 70
     2
  9
$DIMLWD
 70
    -2
  9
$DIMLWE
 70
    -2
  9
$DIMTMOVE
 70
     0
  9
$DIMFXL
 40
1.0
  9
$DIMFXLON
 70
     0
  9
$DIMJOGANG
 40
0.7853981633974483
  9
$DIMTFILL
 70
     0
  9
$DIMTFILLCLR
 70
     0
  9
$DIMARCSYM
 70
     0
  9
$DIMLTYPE
  6

  9
$DIMLTEX1
  6

  9
$DIMLTEX2
  6

  9
$LUNITS
 70
     2
  9
$LUPREC
 70
     4
  9
$SKETCHINC
 40
0.1
  9
$FILLETRAD
 40
0.5
  9
$AUNITS
 70
     0
  9
$AUPREC
 70
     0
  9
$MENU
  1
.
  9
$ELEVATION
 40
0.0
  9
$PELEVATION
 40
0.0
  9
$THICKNESS
 40
0.0
  9
$LIMCHECK
 70
     0
  9
$CHAMFERA
 40
0.5
  9
$CHAMFERB
 40
0.5
  9
$CHAMFERC
 40
1.0
  9
$CHAMFERD
 40
0.0
  9
$SKPOLY
 70
     0
  9
$TDCREATE
 40
2460555.200573565
  9
$TDUCREATE
 40
2460555.158906898
  9
$TDUPDATE
 40
2460555.200573611
  9
$TDUUPDATE
 40
2460555.158906945
  9
$TDINDWG
 40
0.0000000116
  9
$TDUSRTIMER
 40
0.0000000116
  9
$USRTIMER
 70
     1
  9
$ANGBASE
 50
0.0
  9
$ANGDIR
 70
     0
  9
$PDMODE
 70
     0
  9
$PDSIZE
 40
0.0
  9
$PLINEWID
 40
0.0
  9
$SPLFRAME
 70
     0
  9
$SPLINETYPE
 70
     6
  9
$SPLINESEGS
 70
     8
  9
$HANDSEED
  5
77
  9
$SURFTAB1
 70
     6
  9
$SURFTAB2
 70
     6
  9
$SURFTYPE
 70
     6
  9
$SURFU
 70
     6
  9
$SURFV
 70
     6
  9
$UCSBASE
  2

  9
$UCSNAME
  2

  9
$UCSORG
 10
0.0
 20
0.0
 30
0.0
  9
$UCSXDIR
 10
1.0
 20
0.0
 30
0.0
  9
$UCSYDIR
 10
0.0
 20
1.0
 30
0.0
  9
$UCSORTHOREF
  2

  9
$UCSORTHOVIEW
 70
     0
  9
$UCSORGTOP
 10
0.0
 20
0.0
 30
0.0
  9
$UCSORGBOTTOM
 10
0.0
 20
0.0
 30
0.0
  9
$UCSORGLEFT
 10
0.0
 20
0.0
 30
0.0
  9
$UCSORGRIGHT
 10
0.0
 20
0.0
 30
0.0
  9
$UCSORGFRONT
 10
0.0
 20
0.0
 30
0.0
  9
$UCSORGBACK
 10
0.0
 20
0.0
 30
0.0
  9
$PUCSBASE
  2

  9
$PUCSNAME
  2

  9
$PUCSORG
 10
0.0
 20
0.0
 30
0.0
  9
$PUCSXDIR
 10
1.0
 20
0.0
 30
0.0
  9
$PUCSYDIR
 10
0.0
 20
1.0
 30
0.0
  9
$PUCSORTHOREF
  2

  9
$PUCSORTHOVIEW
 70
     0
  9
$PUCSORGTOP
 10
0.0
 20
0.0
 30
0.0
  9
$PUCSORGBOTTOM
 10
0.0
 20
0.0
 30
0.0
  9
$PUCSORGLEFT
 10
0.0
 20
0.0
 30
0.0
  9
$PUCSORGRIGHT
 10
0.0
 20
0.0
 30
0.0
  9
$PUCSORGFRONT
 10
0.0
 20
0.0
 30
0.0
  9
$PUCSORGBACK
 10
0.0
 20
0.0
 30
0.0
  9
$USERI1
 70
     0
  9
$USERI2
 70
     0
  9
$USERI3
 70
     0
  9
$USERI4
 70
     0
  9
$USERI5
 70
     0
  9
$USERR1
 40
0.0
  9
$USERR2
 40
0.0
  9
$USERR3
 40
0.0
  9
$USERR4
 40
0.0
  9
$USERR5
 40
0.0
  9
$WORLDVIEW
 70
     1
  9
$SHADEDGE
 70
     3
  9
$SHADEDIF
 70
    70
  9
$TILEMODE
 70
     1
  9
$MAXACTVP
 70
    64
  9
$PINSBASE
 10
0.0
 20
0.0
 30
0.0
  9
$PLIMCHECK
 70
     0
  9
$PEXTMIN
 10
1.000000000000000E+20
 20
1.000000000000000E+20
 30
1.000000000000000E+20
  9
$PEXTMAX
 10
-1.000000000000000E+20
 20
-1.000000000000000E+20
 30
-1.000000000000000E+20
  9
$PLIMMIN
 10
0.0
 20
0.0
  9
$PLIMMAX
 10
12.0
 20
9.0
  9
$UNITMODE
 70
     0
  9
$VISRETAIN
 70
     1
  9
$PLINEGEN
 70
     0
  9
$PSLTSCALE
 70
     1
  9
$TREEDEPTH
 70
  3020
  9
$CMLSTYLE
  2
Standard
  9
$CMLJUST
 70
     0
  9
$CMLSCALE
 40
1.0
  9
$PROXYGRAPHICS
 70
     1
  9
$MEASUREMENT
 70
     0
  9
$CELWEIGHT
370
    -1
  9
$ENDCAPS
280
     0
  9
$JOINSTYLE
280
     0
  9
$LWDISPLAY
290
     0
  9
$INSUNITS
 70
     5
  9
$HYPERLINKBASE
  1

  9
$STYLESHEET
  1

  9
$XEDIT
290
     1
  9
$CEPSNTYPE
380
     0
  9
$PSTYLEMODE
290
     1
  9
$FINGERPRINTGUID
  2
{29742C87-027F-492B-BEBC-510E96838AB7}
  9
$VERSIONGUID
  2
{FAEB1C32-E019-11D5-929B-00C0DF256EC4}
  9
$EXTNAMES
290
     1
  9
$PSVPSCALE
 40
0.0
  9
$OLESTARTUP
290
     0
  9
$SORTENTS
280
   127
  9
$INDEXCTL
280
     0
  9
$HIDETEXT
280
     1
  9
$XCLIPFRAME
290
     0
  9
$HALOGAP
280
     0
  9
$OBSCOLOR
 70
   257
  9
$OBSLTYPE
280
     0
  9
$INTERSECTIONDISPLAY
280
     0
  9
$INTERSECTIONCOLOR
 70
   257
  9
$DIMASSOC
280
     2
  9
$PROJECTNAME
  1

  9
$CAMERADISPLAY
290
     0
  9
$LENSLENGTH
 40
50.0
  9
$CAMERAHEIGHT
 40
0.0
  9
$STEPSPERSEC
 40
2.0
  9
$STEPSIZE
 40
6.0
  9
$3DDWFPREC
 40
2.0
  9
$PSOLWIDTH
 40
0.25
  9
$PSOLHEIGHT
 40
4.0
  9
$LOFTANG1
 40
1.570796326794897
  9
$LOFTANG2
 40
1.570796326794897
  9
$LOFTMAG1
 40
0.0
  9
$LOFTMAG2
 40
0.0
  9
$LOFTPARAM
 70
     7
  9
$LOFTNORMALS
280
     1
  9
$LATITUDE
 40
37.795
  9
$LONGITUDE
 40
-122.394
  9
$NORTHDIRECTION
 40
0.0
  9
$TIMEZONE
 70
 -8000
  9
$LIGHTGLYPHDISPLAY
280
     1
  9
$TILEMODELIGHTSYNCH
280
     1
  9
$SOLIDHIST
280
     1
  9
$SHOWHIST
280
     1
  9
$DWFFRAME
280
     2
  9
$DGNFRAME
280
     2
  9
$REALWORLDSCALE
290
     1
  9
$INTERFERECOLOR
 62
   256
  9
$CSHADOW
280
     0
  9
$SHADOWPLANELOCATION
 40
0.0
  0
ENDSEC
  0
SECTION
  2
CLASSES
  0
CLASS
  1
ACDBDICTIONARYWDFLT
  2
AcDbDictionaryWithDefault
  3
ObjectDBX Classes
 90
        0
 91
        4
280
     0
281
     0
  0
CLASS
  1
VISUALSTYLE
  2
AcDbVisualStyle
  3
ObjectDBX Classes
 90
     4095
 91
        4
280
     0
281
     0
  0
CLASS
  1
MATERIAL
  2
AcDbMaterial
  3
ObjectDBX Classes
 90
     1153
 91
        4
280
     0
281
     0
  0
ENDSEC
  0
SECTION
  2
TABLES
  0
TABLE
  2
VPORT
  5
8
330
0
100
AcDbSymbolTable
 70
     1
  0
VPORT
  5
29
330
8
100
AcDbSymbolTableRecord
100
AcDbViewportTableRecord
  2
*Active
 70
     0
 10
0.0
 20
0.0
 11
1.0
 21
1.0
 12
10.42990654205607
 22
4.5
 13
0.0
 23
0.0
 14
0.5
 24
0.5
 15
0.5
 25
0.5
 16
0.0
 26
0.0
 36
1.0
 17
0.0
 27
0.0
 37
0.0
 40
9.0
 41
1.972972972850329
 42
50.0
 43
0.0
 44
0.0
 50
0.0
 51
0.0
 71
     0
 72
   100
 73
     1
 74
     3
 75
     0
 76
     0
 77
     0
 78
     0
281
     0
 65
     1
110
0.0
120
0.0
130
0.0
111
1.0
121
0.0
131
0.0
112
0.0
122
1.0
132
0.0
 79
     0
146
0.0
 60
     3
 61
     5
292
     1
282
     1
141
0.0
142
0.0
 63
   250
  0
ENDTAB
  0
TABLE
  2
LTYPE
  5
5
330
0
100
AcDbSymbolTable
 70
     1
  0
LTYPE
  5
14
330
5
100
AcDbSymbolTableRecord
100
AcDbLinetypeTableRecord
  2
ByBlock
 70
     0
  3

 72
    65
 73
     0
 40
0.0
  0
LTYPE
  5
15
330
5
100
AcDbSymbolTableRecord
100
AcDbLinetypeTableRecord
  2
ByLayer
 70
     0
  3

 72
    65
 73
     0
 40
0.0
  0
LTYPE
  5
16
330
5
100
AcDbSymbolTableRecord
100
AcDbLinetypeTableRecord
  2
Continuous
 70
     0
  3
Solid line
 72
    65
 73
     0
 40
0.0
  0
ENDTAB
  0
TABLE
  2
LAYER
  5
2
330
0
100
AcDbSymbolTable
 70
     2
  0
LAYER
  5
10
330
2
100
AcDbSymbolTableRecord
100
AcDbLayerTableRecord
  2
0
 70
     0
 62
     7
  6
Continuous
370
    -3
390
F
347
3E
  0
LAYER
  5
40
330
2
100
AcDbSymbolTableRecord
100
AcDbLayerTableRecord
  2
Layer 1
 70
     0
 62
     7
  6
Continuous
370
    -3
390
F
347
3E
  0
ENDTAB
  0
TABLE
  2
STYLE
  5
3
330
0
100
AcDbSymbolTable
 70
     1
  0
STYLE
  5
11
330
3
100
AcDbSymbolTableRecord
100
AcDbTextStyleTableRecord
  2
Standard
 70
     0
 40
0.0
 41
1.0
 50
0.0
 71
     0
 42
0.2
  3
txt
  4

  0
ENDTAB
  0
TABLE
  2
VIEW
  5
6
330
0
100
AcDbSymbolTable
 70
     0
  0
ENDTAB
  0
TABLE
  2
UCS
  5
7
330
0
100
AcDbSymbolTable
 70
     0
  0
ENDTAB
  0
TABLE
  2
APPID
  5
9
330
0
100
AcDbSymbolTable
 70
     2
  0
APPID
  5
12
330
9
100
AcDbSymbolTableRecord
100
AcDbRegAppTableRecord
  2
ACAD
 70
     0
  0
APPID
  5
3F
330
9
100
AcDbSymbolTableRecord
100
AcDbRegAppTableRecord
  2
ODA
 70
     0
  0
ENDTAB
  0
TABLE
  2
DIMSTYLE
  5
A
330
0
100
AcDbSymbolTable
 70
     1
100
AcDbDimStyleTable
  0
DIMSTYLE
105
27
330
A
100
AcDbSymbolTableRecord
100
AcDbDimStyleTableRecord
  2
Standard
 70
     0
178
     0
340
11
  0
ENDTAB
  0
TABLE
  2
BLOCK_RECORD
  5
1
330
0
100
AcDbSymbolTable
 70
     1
  0
BLOCK_RECORD
  5
1F
330
1
100
AcDbSymbolTableRecord
100
AcDbBlockTableRecord
  2
*Model_Space
340
22
 70
     0
280
     1
281
     0
  0
BLOCK_RECORD
  5
1B
330
1
100
AcDbSymbolTableRecord
100
AcDbBlockTableRecord
  2
*Paper_Space
340
1E
 70
     0
280
     1
281
     0
  0
BLOCK_RECORD
  5
23
330
1
100
AcDbSymbolTableRecord
100
AcDbBlockTableRecord
  2
*Paper_Space0
340
26
 70
     0
280
     1
281
     0
  0
ENDTAB
  0
ENDSEC
  0
SECTION
  2
BLOCKS
  0
BLOCK
  5
20
330
1F
100
AcDbEntity
  8
0
100
AcDbBlockBegin
  2
*Model_Space
 70
     0
 10
0.0
 20
0.0
 30
0.0
  3
*Model_Space
  1

  0
ENDBLK
  5
21
330
1F
100
AcDbEntity
  8
0
100
AcDbBlockEnd
  0
BLOCK
  5
1C
330
1B
100
AcDbEntity
 67
     1
  8
0
100
AcDbBlockBegin
  2
*Paper_Space
 70
     0
 10
0.0
 20
0.0
 30
0.0
  3
*Paper_Space
  1

  0
ENDBLK
  5
1D
330
1B
100
AcDbEntity
 67
     1
  8
0
100
AcDbBlockEnd
  0
BLOCK
  5
24
330
23
100
AcDbEntity
  8
0
100
AcDbBlockBegin
  2
*Paper_Space0
 70
     0
 10
0.0
 20
0.0
 30
0.0
  3
*Paper_Space0
  1

  0
ENDBLK
  5
25
330
23
100
AcDbEntity
  8
0
100
AcDbBlockEnd
  0
ENDSEC
  0
SECTION
  2
ENTITIES
  0
SPLINE
  5
41
330
1F
100
AcDbEntity
  8
Layer 1
370
    53
100
AcDbSpline
210
0.0
220
0.0
230
1.0
 70
    11
 71
     3
 72
    20
 73
    16
 74
     0
 42
0.0000000001
 43
0.0000000001
 12
1.0
 22
0.0
 32
0.0
 13
1.0
 23
0.0
 33
0.0
 40
0.0
 40
0.0
 40
0.0
 40
0.0
 40
0.2
 40
0.2
 40
0.2
 40
0.2
 40
0.4
 40
0.4
 40
0.4
 40
0.4
 40
0.6
 40
0.6
 40
0.6
 40
0.6
 40
1.0
 40
1.0
 40
1.0
 40
1.0
 10
-10.3746
 20
-14.05033
 30
0.0
 10
-10.3746
 20
-13.87084
 30
0.0
 10
-10.22909
 20
-13.72533
 30
0.0
 10
-10.0496
 20
-13.72533
 30
0.0
 10
-10.0496
 20
-13.72533
 30
0.0
 10
-9.87011
 20
-13.72533
 30
0.0
 10
-9.7246
 20
-13.87084
 30
0.0
 10
-9.7246
 20
-14.05033
 30
0.0
 10
-9.7246
 20
-14.05033
 30
0.0
 10
-9.7246
 20
-14.22982
 30
0.0
 10
-9.87011
 20
-14.37533
 30
0.0
 10
-10.0496
 20
-14.37533
 30
0.0
 10
-10.0496
 20
-14.37533
 30
0.0
 10
-10.22909
 20
-14.37533
 30
0.0
 10
-10.3746
 20
-14.22982
 30
0.0
 10
-10.3746
 20
-14.05033
 30
0.0
  0
SPLINE
  5
42
330
1F
100
AcDbEntity
  8
Layer 1
370
    53
100
AcDbSpline
210
0.0
220
0.0
230
1.0
 70
    11
 71
     3
 72
    20
 73
    16
 74
     0
 42
0.0000000001
 43
0.0000000001
 12
1.0
 22
0.0
 32
0.0
 13
1.0
 23
0.0
 33
0.0
 40
0.0
 40
0.0
 40
0.0
 40
0.0
 40
0.2
 40
0.2
 40
0.2
 40
0.2
 40
0.4
 40
0.4
 40
0.4
 40
0.4
 40
0.6
 40
0.6
 40
0.6
 40
0.6
 40
1.0
 40
1.0
 40
1.0
 40
1.0
 10
-8.8746
 20
-14.05033
 30
0.0
 10
-8.8746
 20
-13.87084
 30
0.0
 10
-8.72909
 20
-13.72533
 30
0.0
 10
-8.5496
 20
-13.72533
 30
0.0
 10
-8.5496
 20
-13.72533
 30
0.0
 10
-8.37011
 20
-13.72533
 30
0.0
 10
-8.2246
 20
-13.87084
 30
0.0
 10
-8.2246
 20
-14.05033
 30
0.0
 10
-8.2246
 20
-14.05033
 30
0.0
 10
-8.2246
 20
-14.22982
 30
0.0
 10
-8.37011
 20
-14.37533
 30
0.0
 10
-8.5496
 20
-14.37533
 30
0.0
 10
-8.5496
 20
-14.37533
 30
0.0
 10
-8.72909
 20
-14.37533
 30
0.0
 10
-8.8746
 20
-14.22982
 30
0.0
 10
-8.8746
 20
-14.05033
 30
0.0
  0
SPLINE
  5
43
330
1F
100
AcDbEntity
  8
Layer 1
370
    53
100
AcDbSpline
210
0.0
220
0.0
230
1.0
 70
    11
 71
     3
 72
    20
 73
    16
 74
     0
 42
0.0000000001
 43
0.0000000001
 12
1.0
 22
0.0
 32
0.0
 13
1.0
 23
0.0
 33
0.0
 40
0.0
 40
0.0
 40
0.0
 40
0.0
 40
0.2
 40
0.2
 40
0.2
 40
0.2
 40
0.4
 40
0.4
 40
0.4
 40
0.4
 40
0.6
 40
0.6
 40
0.6
 40
0.6
 40
1.0
 40
1.0
 40
1.0
 40
1.0
 10
-11.8746
 20
-14.05033
 30
0.0
 10
-11.8746
 20
-13.87084
 30
0.0
 10
-11.72909
 20
-13.72533
 30
0.0
 10
-11.5496
 20
-13.72533
 30
0.0
 10
-11.5496
 20
-13.72533
 30
0.0
 10
-11.37011
 20
-13.72533
 30
0.0
 10
-11.2246
 20
-13.87084
 30
0.0
 10
-11.2246
 20
-14.05033
 30
0.0
 10
-11.2246
 20
-14.05033
 30
0.0
 10
-11.2246
 20
-14.22982
 30
0.0
 10
-11.37011
 20
-14.37533
 30
0.0
 10
-11.5496
 20
-14.37533
 30
0.0
 10
-11.5496
 20
-14.37533
 30
0.0
 10
-11.72909
 20
-14.37533
 30
0.0
 10
-11.8746
 20
-14.22982
 30
0.0
 10
-11.8746
 20
-14.05033
 30
0.0
  0
SPLINE
  5
44
330
1F
100
AcDbEntity
  8
Layer 1
 62
     5
370
    53
100
AcDbSpline
210
0.0
220
0.0
230
1.0
 70
    11
 71
     3
 72
    16
 73
    12
 74
     0
 42
0.0000000001
 43
0.0000000001
 12
1.0
 22
0.0
 32
0.0
 13
1.0
 23
0.0
 33
0.0
 40
0.0
 40
0.0
 40
0.0
 40
0.0
 40
0.25
 40
0.25
 40
0.25
 40
0.25
 40
0.5
 40
0.5
 40
0.5
 40
0.5
 40
1.0
 40
1.0
 40
1.0
 40
1.0
 10
-10.75337
 20
-10.75734
 30
0.0
 10
-10.83233
 20
-10.81394
 30
0.0
 10
-10.938
 20
-10.75809
 30
0.0
 10
-10.95368
 20
-10.66572
 30
0.0
 10
-10.95368
 20
-10.66572
 30
0.0
 10
-10.97402
 20
-10.54599
 30
0.0
 10
-10.80635
 20
-10.47957
 30
0.0
 10
-10.72941
 20
-10.56888
 30
0.0
 10
-10.72941
 20
-10.56888
 30
0.0
 10
-10.68303
 20
-10.62275
 30
0.0
 10
-10.69512
 20
-10.71558
 30
0.0
 10
-10.75337
 20
-10.75734
 30
0.0
  0
SPLINE
  5
45
330
1F
100
AcDbEntity
  8
Layer 1
 62
     5
370
    53
100
AcDbSpline
210
0.0
220
0.0
230
1.0
 70
    11
 71
     3
 72
    16
 73
    12
 74
     0
 42
0.0000000001
 43
0.0000000001
 12
1.0
 22
0.0
 32
0.0
 13
1.0
 23
0.0
 33
0.0
 40
0.0
 40
0.0
 40
0.0
 40
0.0
 40
0.25
 40
0.25
 40
0.25
 40
0.25
 40
0.5
 40
0.5
 40
0.5
 40
0.5
 40
1.0
 40
1.0
 40
1.0
 40
1.0
 10
-10.82899
 20
-10.60749
 30
0.0
 10
-10.8339
 20
-10.58974
 30
0.0
 10
-10.85227
 20
-10.57632
 30
0.0
 10
-10.87656
 20
-10.58298
 30
0.0
 10
-10.87656
 20
-10.58298
 30
0.0
 10
-10.9256
 20
-10.59645
 30
0.0
 10
-10.9088
 20
-10.66861
 30
0.0
 10
-10.85783
 20
-10.65879
 30
0.0
 10
-10.85783
 20
-10.65879
 30
0.0
 10
-10.83465
 20
-10.65429
 30
0.0
 10
-10.82339
 20
-10.62771
 30
0.0
 10
-10.82899
 20
-10.60749
 30
0.0
  0
SPLINE
  5
46
330
1F
100
AcDbEntity
  8
Layer 1
 62
     5
370
    53
100
AcDbSpline
210
0.0
220
0.0
230
1.0
 70
    11
 71
     3
 72
    20
 73
    16
 74
     0
 42
0.0000000001
 43
0.0000000001
 12
1.0
 22
0.0
 32
0.0
 13
1.0
 23
0.0
 33
0.0
 40
0.0
 40
0.0
 40
0.0
 40
0.0
 40
0.2
 40
0.2
 40
0.2
 40
0.2
 40
0.4
 40
0.4
 40
0.4
 40
0.4
 40
0.6
 40
0.6
 40
0.6
 40
0.6
 40
1.0
 40
1.0
 40
1.0
 40
1.0
 10
-9.06926
 20
-10.68855
 30
0.0
 10
-9.08315
 20
-10.72976
 30
0.0
 10
-9.11437
 20
-10.76513
 30
0.0
 10
-9.15671
 20
-10.77637
 30
0.0
 10
-9.15671
 20
-10.77637
 30
0.0
 10
-9.24911
 20
-10.80093
 30
0.0
 10
-9.35244
 20
-10.69949
 30
0.0
 10
-9.31686
 20
-10.60509
 30
0.0
 10
-9.31686
 20
-10.60509
 30
0.0
 10
-9.288
 20
-10.50835
 30
0.0
 10
-9.14432
 20
-10.49022
 30
0.0
 10
-9.08564
 20
-10.56573
 30
0.0
 10
-9.08564
 20
-10.56573
 30
0.0
 10
-9.05879
 20
-10.60032
 30
0.0
 10
-9.05538
 20
-10.64736
 30
0.0
 10
-9.06926
 20
-10.68855
 30
0.0
  0
SPLINE
  5
47
330
1F
100
AcDbEntity
  8
Layer 1
 62
     5
370
    53
100
AcDbSpline
210
0.0
220
0.0
230
1.0
 70
    11
 71
     3
 72
    24
 73
    20
 74
     0
 42
0.0000000001
 43
0.0000000001
 12
1.0
 22
0.0
 32
0.0
 13
1.0
 23
0.0
 33
0.0
 40
0.0
 40
0.0
 40
0.0
 40
0.0
 40
0.1666666666666667
 40
0.1666666666666667
 40
0.1666666666666667
 40
0.1666666666666667
 40
0.3333333333333333
 40
0.3333333333333333
 40
0.3333333333333333
 40
0.3333333333333333
 40
0.5
 40
0.5
 40
0.5
 40
0.5
 40
0.6666666666666666
 40
0.6666666666666666
 40
0.6666666666666666
 40
0.6666666666666666
 40
1.0
 40
1.0
 40
1.0
 40
1.0
 10
-9.24759
 20
-10.58553
 30
0.0
 10
-9.23456
 20
-10.57575
 30
0.0
 10
-9.21604
 20
-10.57288
 30
0.0
 10
-9.20211
 20
-10.58217
 30
0.0
 10
-9.20211
 20
-10.58217
 30
0.0
 10
-9.18292
 20
-10.59495
 30
0.0
 10
-9.18036
 20
-10.624
 30
0.0
 10
-9.1961
 20
-10.64056
 30
0.0
 10
-9.1961
 20
-10.64056
 30
0.0
 10
-9.20827
 20
-10.65336
 30
0.0
 10
-9.22966
 20
-10.65612
 30
0.0
 10
-9.24467
 20
-10.64683
 30
0.0
 10
-9.24467
 20
-10.64683
 30
0.0
 10
-9.25467
 20
-10.64064
 30
0.0
 10
-9.26113
 20
-10.62953
 30
0.0
 10
-9.26258
 20
-10.61796
 30
0.0
 10
-9.26258
 20
-10.61796
 30
0.0
 10
-9.2642
 20
-10.60469
 30
0.0
 10
-9.25818
 20
-10.5935
 30
0.0
 10
-9.24759
 20
-10.58553
 30
0.0
  0
SPLINE
  5
48
330
1F
100
AcDbEntity
  8
Layer 1
 62
     5
370
    53
100
AcDbSpline
210
0.0
220
0.0
230
1.0
 70
    11
 71
     3
 72
    20
 73
    16
 74
     0
 42
0.0000000001
 43
0.0000000001
 12
1.0
 22
0.0
 32
0.0
 13
1.0
 23
0.0
 33
0.0
 40
0.0
 40
0.0
 40
0.0
 40
0.0
 40
0.2
 40
0.2
 40
0.2
 40
0.2
 40
0.4
 40
0.4
 40
0.4
 40
0.4
 40
0.6
 40
0.6
 40
0.6
 40
0.6
 40
1.0
 40
1.0
 40
1.0
 40
1.0
 10
-10.06733
 20
-10.59448
 30
0.0
 10
-10.06733
 20
-10.15474
 30
0.0
 10
-10.4238
 20
-9.79827
 30
0.0
 10
-10.86354
 20
-9.79827
 30
0.0
 10
-10.86354
 20
-9.79827
 30
0.0
 10
-11.30328
 20
-9.79827
 30
0.0
 10
-11.6598
 20
-10.15474
 30
0.0
 10
-11.6598
 20
-10.59448
 30
0.0
 10
-11.6598
 20
-10.59448
 30
0.0
 10
-11.6598
 20
-11.03422
 30
0.0
 10
-11.30328
 20
-11.3907
 30
0.0
 10
-10.86354
 20
-11.3907
 30
0.0
 10
-10.86354
 20
-11.3907
 30
0.0
 10
-10.4238
 20
-11.3907
 30
0.0
 10
-10.06733
 20
-11.03422
 30
0.0
 10
-10.06733
 20
-10.59448
 30
0.0
  0
SPLINE
  5
49
330
1F
100
AcDbEntity
  8
Layer 1
 62
     5
370
    53
100
AcDbSpline
210
0.0
220
0.0
230
1.0
 70
    11
 71
     3
 72
    20
 73
    16
 74
     0
 42
0.0000000001
 43
0.0000000001
 12
1.0
 22
0.0
 32
0.0
 13
1.0
 23
0.0
 33
0.0
 40
0.0
 40
0.0
 40
0.0
 40
0.0
 40
0.2
 40
0.2
 40
0.2
 40
0.2
 40
0.4
 40
0.4
 40
0.4
 40
0.4
 40
0.6
 40
0.6
 40
0.6
 40
0.6
 40
1.0
 40
1.0
 40
1.0
 40
1.0
 10
-8.39643
 20
-10.59448
 30
0.0
 10
-8.39643
 20
-10.15474
 30
0.0
 10
-8.75291
 20
-9.79827
 30
0.0
 10
-9.19265
 20
-9.79827
 30
0.0
 10
-9.19265
 20
-9.79827
 30
0.0
 10
-9.6324
 20
-9.79827
 30
0.0
 10
-9.98889
 20
-10.15474
 30
0.0
 10
-9.98889
 20
-10.59448
 30
0.0
 10
-9.98889
 20
-10.59448
 30
0.0
 10
-9.98889
 20
-11.03422
 30
0.0
 10
-9.6324
 20
-11.3907
 30
0.0
 10
-9.19265
 20
-11.3907
 30
0.0
 10
-9.19265
 20
-11.3907
 30
0.0
 10
-8.75291
 20
-11.3907
 30
0.0
 10
-8.39643
 20
-11.03422
 30
0.0
 10
-8.39643
 20
-10.59448
 30
0.0
  0
SPLINE
  5
4A
330
1F
100
AcDbEntity
  8
Layer 1
 62
     5
370
    53
100
AcDbSpline
210
0.0
220
0.0
230
1.0
 70
     8
 71
     3
 72
    36
 73
    32
 74
     0
 42
0.0000000001
 43
0.0000000001
 12
1.0
 22
0.0
 32
0.0
 13
1.0
 23
0.0
 33
0.0
 40
0.0
 40
0.0
 40
0.0
 40
0.0
 40
0.1111111111111111
 40
0.1111111111111111
 40
0.1111111111111111
 40
0.1111111111111111
 40
0.2222222222222222
 40
0.2222222222222222
 40
0.2222222222222222
 40
0.2222222222222222
 40
0.3333333333333333
 40
0.3333333333333333
 40
0.3333333333333333
 40
0.3333333333333333
 40
0.4444444444444444
 40
0.4444444444444444
 40
0.4444444444444444
 40
0.4444444444444444
 40
0.5555555555555556
 40
0.5555555555555556
 40
0.5555555555555556
 40
0.5555555555555556
 40
0.6666666666666666
 40
0.6666666666666666
 40
0.6666666666666666
 40
0.6666666666666666
 40
0.7777777777777778
 40
0.7777777777777778
 40
0.7777777777777778
 40
0.7777777777777778
 40
1.0
 40
1.0
 40
1.0
 40
1.0
 10
-11.93913
 20
-11.22418
 30
0.0
 10
-11.92435
 20
-11.18364
 30
0.0
 10
-11.90681
 20
-11.1343
 30
0.0
 10
-11.89544
 20
-11.10136
 30
0.0
 10
-11.89544
 20
-11.10136
 30
0.0
 10
-11.88079
 20
-11.11107
 30
0.0
 10
-11.87637
 20
-11.12559
 30
0.0
 10
-11.88226
 20
-11.14491
 30
0.0
 10
-11.88226
 20
-11.14491
 30
0.0
 10
-11.88226
 20
-11.14491
 30
0.0
 10
-11.88226
 20
-11.15814
 30
0.0
 10
-11.88226
 20
-11.15814
 30
0.0
 10
-11.88226
 20
-11.15814
 30
0.0
 10
-11.92676
 20
-10.98217
 30
0.0
 10
-11.88417
 20
-10.78063
 30
0.0
 10
-11.87963
 20
-10.60169
 30
0.0
 10
-11.87963
 20
-10.60169
 30
0.0
 10
-11.81945
 20
-10.68096
 30
0.0
 10
-11.78718
 20
-10.79479
 30
0.0
 10
-11.72814
 20
-10.87945
 30
0.0
 10
-11.72814
 20
-10.87945
 30
0.0
 10
-11.79601
 20
-10.56089
 30
0.0
 10
-11.78555
 20
-10.20231
 30
0.0
 10
-11.74387
 20
-9.88089
 30
0.0
 10
-11.74387
 20
-9.88089
 30
0.0
 10
-11.72651
 20
-9.74717
 30
0.0
 10
-11.71628
 20
-9.5948
 30
0.0
 10
-11.67093
 20
-9.46716
 30
0.0
 10
-11.67093
 20
-9.46716
 30
0.0
 10
-11.64039
 20
-9.38117
 30
0.0
 10
-11.54681
 20
-9.30828
 30
0.0
 10
-11.52446
 20
-9.22636
 30
0.0
  0
SPLINE
  5
4B
330
1F
100
AcDbEntity
  8
Layer 1
 62
     5
370
    53
100
AcDbSpline
210
0.0
220
0.0
230
1.0
 70
     8
 71
     3
 72
    24
 73
    20
 74
     0
 42
0.0000000001
 43
0.0000000001
 12
1.0
 22
0.0
 32
0.0
 13
1.0
 23
0.0
 33
0.0
 40
0.0
 40
0.0
 40
0.0
 40
0.0
 40
0.1666666666666667
 40
0.1666666666666667
 40
0.1666666666666667
 40
0.1666666666666667
 40
0.3333333333333333
 40
0.3333333333333333
 40
0.3333333333333333
 40
0.3333333333333333
 40
0.5
 40
0.5
 40
0.5
 40
0.5
 40
0.6666666666666666
 40
0.6666666666666666
 40
0.6666666666666666
 40
0.6666666666666666
 40
1.0
 40
1.0
 40
1.0
 40
1.0
 10
-8.41403
 20
-9.12888
 30
0.0
 10
-8.68238
 20
-9.14787
 30
0.0
 10
-8.48466
 20
-9.42174
 30
0.0
 10
-8.40909
 20
-9.54405
 30
0.0
 10
-8.40909
 20
-9.54405
 30
0.0
 10
-8.30276
 20
-9.71613
 30
0.0
 10
-8.29982
 20
-9.83979
 30
0.0
 10
-8.29715
 20
-9.83523
 30
0.0
 10
-8.29715
 20
-9.83523
 30
0.0
 10
-8.27432
 20
-9.86915
 30
0.0
 10
-8.29715
 20
-10.10319
 30
0.0
 10
-8.29715
 20
-10.1936
 30
0.0
 10
-8.29715
 20
-10.1936
 30
0.0
 10
-8.29715
 20
-10.1936
 30
0.0
 10
-8.29715
 20
-10.58928
 30
0.0
 10
-8.29715
 20
-10.58928
 30
0.0
 10
-8.29715
 20
-10.58928
 30
0.0
 10
-8.29715
 20
-10.75158
 30
0.0
 10
-8.30571
 20
-10.91761
 30
0.0
 10
-8.29445
 20
-11.07892
 30
0.0
  0
SPLINE
  5
4C
330
1F
100
AcDbEntity
  8
Layer 1
 62
     5
370
    53
100
AcDbSpline
210
0.0
220
0.0
230
1.0
 70
     8
 71
     3
 72
    64
 73
    60
 74
     0
 42
0.0000000001
 43
0.0000000001
 12
1.0
 22
0.0
 32
0.0
 13
1.0
 23
0.0
 33
0.0
 40
0.0
 40
0.0
 40
0.0
 40
0.0
 40
0.0625
 40
0.0625
 40
0.0625
 40
0.0625
 40
0.125
 40
0.125
 40
0.125
 40
0.125
 40
0.1875
 40
0.1875
 40
0.1875
 40
0.1875
 40
0.25
 40
0.25
 40
0.25
 40
0.25
 40
0.3125
 40
0.3125
 40
0.3125
 40
0.3125
 40
0.375
 40
0.375
 40
0.375
 40
0.375
 40
0.4375
 40
0.4375
 40
0.4375
 40
0.4375
 40
0.5
 40
0.5
 40
0.5
 40
0.5
 40
0.5625
 40
0.5625
 40
0.5625
 40
0.5625
 40
0.625
 40
0.625
 40
0.625
 40
0.625
 40
0.6875
 40
0.6875
 40
0.6875
 40
0.6875
 40
0.75
 40
0.75
 40
0.75
 40
0.75
 40
0.8125
 40
0.8125
 40
0.8125
 40
0.8125
 40
0.875
 40
0.875
 40
0.875
 40
0.875
 40
1.0
 40
1.0
 40
1.0
 40
1.0
 10
-11.52465
 20
-8.9358
 30
0.0
 10
-11.6609
 20
-9.16408
 30
0.0
 10
-11.43975
 20
-9.31412
 30
0.0
 10
-11.22964
 20
-9.41757
 30
0.0
 10
-11.22964
 20
-9.41757
 30
0.0
 10
-11.12345
 20
-9.46986
 30
0.0
 10
-11.011
 20
-9.50987
 30
0.0
 10
-10.92863
 20
-9.54259
 30
0.0
 10
-10.92863
 20
-9.54259
 30
0.0
 10
-10.76608
 20
-9.60723
 30
0.0
 10
-10.61414
 20
-9.63593
 30
0.0
 10
-10.44632
 20
-9.65633
 30
0.0
 10
-10.44632
 20
-9.65633
 30
0.0
 10
-10.48583
 20
-9.59104
 30
0.0
 10
-10.56125
 20
-9.54847
 30
0.0
 10
-10.58405
 20
-9.47978
 30
0.0
 10
-10.58405
 20
-9.47978
 30
0.0
 10
-10.58201
 20
-9.486
 30
0.0
 10
-10.35892
 20
-9.58182
 30
0.0
 10
-10.33432
 20
-9.59035
 30
0.0
 10
-10.33432
 20
-9.59035
 30
0.0
 10
-10.24724
 20
-9.62051
 30
0.0
 10
-10.16314
 20
-9.65835
 30
0.0
 10
-10.07826
 20
-9.69407
 30
0.0
 10
-10.07826
 20
-9.69407
 30
0.0
 10
-9.93014
 20
-9.75638
 30
0.0
 10
-9.72637
 20
-9.80138
 30
0.0
 10
-9.56192
 20
-9.76638
 30
0.0
 10
-9.56192
 20
-9.76638
 30
0.0
 10
-9.63183
 20
-9.71202
 30
0.0
 10
-9.68945
 20
-9.6555
 30
0.0
 10
-9.73691
 20
-9.59056
 30
0.0
 10
-9.73691
 20
-9.59056
 30
0.0
 10
-9.76402
 20
-9.55344
 30
0.0
 10
-9.80737
 20
-9.45285
 30
0.0
 10
-9.80737
 20
-9.45285
 30
0.0
 10
-9.80737
 20
-9.45285
 30
0.0
 10
-9.80737
 20
-9.45285
 30
0.0
 10
-9.53333
 20
-9.47817
 30
0.0
 10
-9.47535
 20
-9.49743
 30
0.0
 10
-9.47535
 20
-9.49743
 30
0.0
 10
-9.20868
 20
-9.58607
 30
0.0
 10
-8.91397
 20
-9.656
 30
0.0
 10
-8.63306
 20
-9.64539
 30
0.0
 10
-8.63306
 20
-9.64539
 30
0.0
 10
-8.64672
 20
-9.60162
 30
0.0
 10
-8.66744
 20
-9.55807
 30
0.0
 10
-8.69129
 20
-9.51865
 30
0.0
 10
-8.69129
 20
-9.51865
 30
0.0
 10
-8.71967
 20
-9.47168
 30
0.0
 10
-8.75491
 20
-9.42543
 30
0.0
 10
-8.77472
 20
-9.37387
 30
0.0
 10
-8.77472
 20
-9.37387
 30
0.0
 10
-8.84213
 20
-9.19856
 30
0.0
 10
-8.62466
 20
-9.17321
 30
0.0
 10
-8.50223
 20
-9.19858
 30
0.0
 10
-8.50223
 20
-9.19858
 30
0.0
 10
-8.42226
 20
-9.21517
 30
0.0
 10
-8.49422
 20
-8.94505
 30
0.0
 10
-8.50619
 20
-8.92248
 30
0.0
  0
SPLINE
  5
4D
330
1F
100
AcDbEntity
  8
Layer 1
 62
     5
370
    53
100
AcDbSpline
210
0.0
220
0.0
230
1.0
 70
    11
 71
     3
 72
    48
 73
    44
 74
     0
 42
0.0000000001
 43
0.0000000001
 12
1.0
 22
0.0
 32
0.0
 13
1.0
 23
0.0
 33
0.0
 40
0.0
 40
0.0
 40
0.0
 40
0.0
 40
0.0833333333333333
 40
0.0833333333333333
 40
0.0833333333333333
 40
0.0833333333333333
 40
0.1666666666666667
 40
0.1666666666666667
 40
0.1666666666666667
 40
0.1666666666666667
 40
0.25
 40
0.25
 40
0.25
 40
0.25
 40
0.3333333333333333
 40
0.3333333333333333
 40
0.3333333333333333
 40
0.3333333333333333
 40
0.4166666666666667
 40
0.4166666666666667
 40
0.4166666666666667
 40
0.4166666666666667
 40
0.5
 40
0.5
 40
0.5
 40
0.5
 40
0.5833333333333334
 40
0.5833333333333334
 40
0.5833333333333334
 40
0.5833333333333334
 40
0.6666666666666666
 40
0.6666666666666666
 40
0.6666666666666666
 40
0.6666666666666666
 40
0.75
 40
0.75
 40
0.75
 40
0.75
 40
0.8333333333333334
 40
0.8333333333333334
 40
0.8333333333333334
 40
0.8333333333333334
 40
1.0
 40
1.0
 40
1.0
 40
1.0
 10
-8.44754
 20
-8.81171
 30
0.0
 10
-8.46593
 20
-8.91882
 30
0.0
 10
-8.58365
 20
-8.99462
 30
0.0
 10
-8.67129
 20
-9.04422
 30
0.0
 10
-8.67129
 20
-9.04422
 30
0.0
 10
-8.82118
 20
-9.12903
 30
0.0
 10
-8.99621
 20
-9.17896
 30
0.0
 10
-9.15219
 20
-9.25425
 30
0.0
 10
-9.15219
 20
-9.25425
 30
0.0
 10
-9.48545
 20
-9.4152
 30
0.0
 10
-9.96299
 20
-9.51111
 30
0.0
 10
-10.32783
 20
-9.4773
 30
0.0
 10
-10.32783
 20
-9.4773
 30
0.0
 10
-10.5642
 20
-9.45539
 30
0.0
 10
-10.79662
 20
-9.3794
 30
0.0
 10
-11.00836
 20
-9.2747
 30
0.0
 10
-11.00836
 20
-9.2747
 30
0.0
 10
-11.15693
 20
-9.20126
 30
0.0
 10
-11.38873
 20
-9.11706
 30
0.0
 10
-11.49448
 20
-8.9829
 30
0.0
 10
-11.49448
 20
-8.9829
 30
0.0
 10
-11.55613
 20
-8.90471
 30
0.0
 10
-11.60013
 20
-8.75192
 30
0.0
 10
-11.52342
 20
-8.66805
 30
0.0
 10
-11.52342
 20
-8.66805
 30
0.0
 10
-11.32424
 20
-8.45034
 30
0.0
 10
-11.0321
 20
-8.72991
 30
0.0
 10
-10.85023
 20
-8.81711
 30
0.0
 10
-10.85023
 20
-8.81711
 30
0.0
 10
-10.66703
 20
-8.90494
 30
0.0
 10
-10.48294
 20
-8.96823
 30
0.0
 10
-10.28181
 20
-8.99373
 30
0.0
 10
-10.28181
 20
-8.99373
 30
0.0
 10
-9.78065
 20
-9.05722
 30
0.0
 10
-9.41618
 20
-8.88961
 30
0.0
 10
-8.9975
 20
-8.64255
 30
0.0
 10
-8.9975
 20
-8.64255
 30
0.0
 10
-8.86183
 20
-8.5625
 30
0.0
 10
-8.77594
 20
-8.45202
 30
0.0
 10
-8.62073
 20
-8.51347
 30
0.0
 10
-8.62073
 20
-8.51347
 30
0.0
 10
-8.54195
 20
-8.54464
 30
0.0
 10
-8.43035
 20
-8.7116
 30
0.0
 10
-8.44754
 20
-8.81171
 30
0.0
  0
SPLINE
  5
4E
330
1F
100
AcDbEntity
  8
Layer 1
 62
     5
370
    53
100
AcDbSpline
210
0.0
220
0.0
230
1.0
 70
    11
 71
     3
 72
   152
 73
   148
 74
     0
 42
0.0000000001
 43
0.0000000001
 12
1.0
 22
0.0
 32
0.0
 13
1.0
 23
0.0
 33
0.0
 40
0.0
 40
0.0
 40
0.0
 40
0.0
 40
0.0263157894736842
 40
0.0263157894736842
 40
0.0263157894736842
 40
0.0263157894736842
 40
0.0526315789473684
 40
0.0526315789473684
 40
0.0526315789473684
 40
0.0526315789473684
 40
0.0789473684210526
 40
0.0789473684210526
 40
0.0789473684210526
 40
0.0789473684210526
 40
0.1052631578947368
 40
0.1052631578947368
 40
0.1052631578947368
 40
0.1052631578947368
 40
0.131578947368421
 40
0.131578947368421
 40
0.131578947368421
 40
0.131578947368421
 40
0.1578947368421053
 40
0.1578947368421053
 40
0.1578947368421053
 40
0.1578947368421053
 40
0.1842105263157895
 40
0.1842105263157895
 40
0.1842105263157895
 40
0.1842105263157895
 40
0.2105263157894737
 40
0.2105263157894737
 40
0.2105263157894737
 40
0.2105263157894737
 40
0.2368421052631579
 40
0.2368421052631579
 40
0.2368421052631579
 40
0.2368421052631579
 40
0.2631578947368421
 40
0.2631578947368421
 40
0.2631578947368421
 40
0.2631578947368421
 40
0.2894736842105263
 40
0.2894736842105263
 40
0.2894736842105263
 40
0.2894736842105263
 40
0.3157894736842105
 40
0.3157894736842105
 40
0.3157894736842105
 40
0.3157894736842105
 40
0.3421052631578947
 40
0.3421052631578947
 40
0.3421052631578947
 40
0.3421052631578947
 40
0.3684210526315789
 40
0.3684210526315789
 40
0.3684210526315789
 40
0.3684210526315789
 40
0.3947368421052632
 40
0.3947368421052632
 40
0.3947368421052632
 40
0.3947368421052632
 40
0.4210526315789473
 40
0.4210526315789473
 40
0.4210526315789473
 40
0.4210526315789473
 40
0.4473684210526316
 40
0.4473684210526316
 40
0.4473684210526316
 40
0.4473684210526316
 40
0.4736842105263158
 40
0.4736842105263158
 40
0.4736842105263158
 40
0.4736842105263158
 40
0.5
 40
0.5
 40
0.5
 40
0.5
 40
0.5263157894736842
 40
0.5263157894736842
 40
0.5263157894736842
 40
0.5263157894736842
 40
0.5526315789473685
 40
0.5526315789473685
 40
0.5526315789473685
 40
0.5526315789473685
 40
0.5789473684210527
 40
0.5789473684210527
 40
0.5789473684210527
 40
0.5789473684210527
 40
0.6052631578947368
 40
0.6052631578947368
 40
0.6052631578947368
 40
0.6052631578947368
 40
0.631578947368421
 40
0.631578947368421
 40
0.631578947368421
 40
0.631578947368421
 40
0.6578947368421053
 40
0.6578947368421053
 40
0.6578947368421053
 40
0.6578947368421053
 40
0.6842105263157895
 40
0.6842105263157895
 40
0.6842105263157895
 40
0.6842105263157895
 40
0.7105263157894737
 40
0.7105263157894737
 40
0.7105263157894737
 40
0.7105263157894737
 40
0.7368421052631579
 40
0.7368421052631579
 40
0.7368421052631579
 40
0.7368421052631579
 40
0.7631578947368421
 40
0.7631578947368421
 40
0.7631578947368421
 40
0.7631578947368421
 40
0.7894736842105263
 40
0.7894736842105263
 40
0.7894736842105263
 40
0.7894736842105263
 40
0.8157894736842105
 40
0.8157894736842105
 40
0.8157894736842105
 40
0.8157894736842105
 40
0.8421052631578947
 40
0.8421052631578947
 40
0.8421052631578947
 40
0.8421052631578947
 40
0.868421052631579
 40
0.868421052631579
 40
0.868421052631579
 40
0.868421052631579
 40
0.8947368421052632
 40
0.8947368421052632
 40
0.8947368421052632
 40
0.8947368421052632
 40
0.9210526315789473
 40
0.9210526315789473
 40
0.9210526315789473
 40
0.9210526315789473
 40
0.9473684210526315
 40
0.9473684210526315
 40
0.9473684210526315
 40
0.9473684210526315
 40
1.0
 40
1.0
 40
1.0
 40
1.0
 10
-11.59918
 20
-12.67574
 30
0.0
 10
-11.61819
 20
-12.647
 30
0.0
 10
-11.63246
 20
-12.62511
 30
0.0
 10
-11.63623
 20
-12.6184
 30
0.0
 10
-11.63623
 20
-12.6184
 30
0.0
 10
-11.69178
 20
-12.51967
 30
0.0
 10
-11.7369
 20
-12.4156
 30
0.0
 10
-11.77023
 20
-12.30728
 30
0.0
 10
-11.77023
 20
-12.30728
 30
0.0
 10
-11.83821
 20
-12.08628
 30
0.0
 10
-11.93022
 20
-11.87395
 30
0.0
 10
-11.93012
 20
-11.63775
 30
0.0
 10
-11.93012
 20
-11.63775
 30
0.0
 10
-11.93004
 20
-11.45993
 30
0.0
 10
-11.90761
 20
-11.10544
 30
0.0
 10
-11.74501
 20
-10.98637
 30
0.0
 10
-11.74501
 20
-10.98637
 30
0.0
 10
-11.61066
 20
-11.12795
 30
0.0
 10
-11.61774
 20
-11.38862
 30
0.0
 10
-11.44725
 20
-11.50652
 30
0.0
 10
-11.44725
 20
-11.50652
 30
0.0
 10
-11.41614
 20
-11.44942
 30
0.0
 10
-11.45704
 20
-11.3541
 30
0.0
 10
-11.40126
 20
-11.31025
 30
0.0
 10
-11.40126
 20
-11.31025
 30
0.0
 10
-11.21866
 20
-11.47271
 30
0.0
 10
-11.13877
 20
-11.73912
 30
0.0
 10
-10.93612
 20
-11.88572
 30
0.0
 10
-10.93612
 20
-11.88572
 30
0.0
 10
-10.90845
 20
-11.85572
 30
0.0
 10
-10.83836
 20
-11.70136
 30
0.0
 10
-10.78767
 20
-11.66239
 30
0.0
 10
-10.78767
 20
-11.66239
 30
0.0
 10
-10.83405
 20
-11.6741
 30
0.0
 10
-10.88368
 20
-11.68076
 30
0.0
 10
-10.93793
 20
-11.68077
 30
0.0
 10
-10.93793
 20
-11.68077
 30
0.0
 10
-10.9188
 20
-11.72902
 30
0.0
 10
-10.91687
 20
-11.7044
 30
0.0
 10
-10.91891
 20
-11.67964
 30
0.0
 10
-10.91891
 20
-11.67964
 30
0.0
 10
-10.8646
 20
-11.66762
 30
0.0
 10
-10.81745
 20
-11.61743
 30
0.0
 10
-10.78305
 20
-11.57631
 30
0.0
 10
-10.78305
 20
-11.57631
 30
0.0
 10
-10.70187
 20
-11.47936
 30
0.0
 10
-10.65045
 20
-11.37655
 30
0.0
 10
-10.55382
 20
-11.28988
 30
0.0
 10
-10.55382
 20
-11.28988
 30
0.0
 10
-10.42047
 20
-11.17031
 30
0.0
 10
-10.25849
 20
-11.08609
 30
0.0
 10
-10.0756
 20
-11.08533
 30
0.0
 10
-10.0756
 20
-11.08533
 30
0.0
 10
-9.89742
 20
-11.08458
 30
0.0
 10
-9.65672
 20
-11.15981
 30
0.0
 10
-9.52607
 20
-11.28054
 30
0.0
 10
-9.52607
 20
-11.28054
 30
0.0
 10
-9.41833
 20
-11.38011
 30
0.0
 10
-9.31236
 20
-11.586
 30
0.0
 10
-9.16678
 20
-11.64726
 30
0.0
 10
-9.16678
 20
-11.64726
 30
0.0
 10
-9.11857
 20
-11.56774
 30
0.0
 10
-9.04667
 20
-11.48476
 30
0.0
 10
-9.02037
 20
-11.39712
 30
0.0
 10
-9.02037
 20
-11.39712
 30
0.0
 10
-8.94608
 20
-11.47173
 30
0.0
 10
-8.885
 20
-11.546
 30
0.0
 10
-8.83576
 20
-11.63937
 30
0.0
 10
-8.83576
 20
-11.63937
 30
0.0
 10
-8.82224
 20
-11.64204
 30
0.0
 10
-8.83979
 20
-11.62609
 30
0.0
 10
-8.83139
 20
-11.64368
 30
0.0
 10
-8.83139
 20
-11.64368
 30
0.0
 10
-8.80671
 20
-11.55621
 30
0.0
 10
-8.72659
 20
-11.46978
 30
0.0
 10
-8.67644
 20
-11.39418
 30
0.0
 10
-8.67644
 20
-11.39418
 30
0.0
 10
-8.64915
 20
-11.35309
 30
0.0
 10
-8.62081
 20
-11.28975
 30
0.0
 10
-8.58153
 20
-11.26393
 30
0.0
 10
-8.58153
 20
-11.26393
 30
0.0
 10
-8.52872
 20
-11.31547
 30
0.0
 10
-8.47384
 20
-11.41066
 30
0.0
 10
-8.45813
 20
-11.48092
 30
0.0
 10
-8.45813
 20
-11.48092
 30
0.0
 10
-8.38299
 20
-11.38513
 30
0.0
 10
-8.32313
 20
-11.26554
 30
0.0
 10
-8.24504
 20
-11.17639
 30
0.0
 10
-8.24504
 20
-11.17639
 30
0.0
 10
-8.09174
 20
-11.33931
 30
0.0
 10
-8.06918
 20
-11.52301
 30
0.0
 10
-8.0835
 20
-11.74477
 30
0.0
 10
-8.0835
 20
-11.74477
 30
0.0
 10
-8.09332
 20
-11.89708
 30
0.0
 10
-8.12078
 20
-12.03034
 30
0.0
 10
-8.17644
 20
-12.17255
 30
0.0
 10
-8.17644
 20
-12.17255
 30
0.0
 10
-8.22052
 20
-12.28514
 30
0.0
 10
-8.28504
 20
-12.38883
 30
0.0
 10
-8.32465
 20
-12.50328
 30
0.0
 10
-8.32465
 20
-12.50328
 30
0.0
 10
-8.33622
 20
-12.53678
 30
0.0
 10
-8.44074
 20
-12.70101
 30
0.0
 10
-8.4311
 20
-12.72151
 30
0.0
 10
-8.4311
 20
-12.72151
 30
0.0
 10
-8.48906
 20
-12.61399
 30
0.0
 10
-8.49095
 20
-12.4545
 30
0.0
 10
-8.57554
 20
-12.35727
 30
0.0
 10
-8.57554
 20
-12.35727
 30
0.0
 10
-8.64352
 20
-12.69394
 30
0.0
 10
-8.76119
 20
-13.18352
 30
0.0
 10
-9.16858
 20
-13.24315
 30
0.0
 10
-9.16858
 20
-13.24315
 30
0.0
 10
-9.13538
 20
-13.10185
 30
0.0
 10
-9.11362
 20
-12.95784
 30
0.0
 10
-9.07453
 20
-12.81714
 30
0.0
 10
-9.07453
 20
-12.81714
 30
0.0
 10
-9.23839
 20
-12.99232
 30
0.0
 10
-9.31694
 20
-13.34728
 30
0.0
 10
-9.61444
 20
-13.3478
 30
0.0
 10
-9.61444
 20
-13.3478
 30
0.0
 10
-9.62248
 20
-13.18144
 30
0.0
 10
-9.60646
 20
-12.97168
 30
0.0
 10
-9.72172
 20
-12.83668
 30
0.0
 10
-9.72172
 20
-12.83668
 30
0.0
 10
-9.86869
 20
-12.9817
 30
0.0
 10
-9.88435
 20
-13.21806
 30
0.0
 10
-10.02904
 20
-13.36696
 30
0.0
 10
-10.02904
 20
-13.36696
 30
0.0
 10
-10.22265
 20
-13.21488
 30
0.0
 10
-10.33951
 20
-12.99406
 30
0.0
 10
-10.55281
 20
-12.85841
 30
0.0
 10
-10.55281
 20
-12.85841
 30
0.0
 10
-10.56191
 20
-13.03446
 30
0.0
 10
-10.51351
 20
-13.20512
 30
0.0
 10
-10.51741
 20
-13.37977
 30
0.0
 10
-10.51741
 20
-13.37977
 30
0.0
 10
-10.85871
 20
-13.20414
 30
0.0
 10
-11.19969
 20
-12.79717
 30
0.0
 10
-11.38012
 20
-12.46768
 30
0.0
 10
-11.38012
 20
-12.46768
 30
0.0
 10
-11.43273
 20
-12.59811
 30
0.0
 10
-11.35077
 20
-12.78634
 30
0.0
 10
-11.45358
 20
-12.89127
 30
0.0
 10
-11.45358
 20
-12.89127
 30
0.0
 10
-11.45407
 20
-12.89177
 30
0.0
 10
-11.54556
 20
-12.75673
 30
0.0
 10
-11.59918
 20
-12.67574
 30
0.0
  0
SPLINE
  5
4F
330
1F
100
AcDbEntity
  8
Layer 1
 62
     5
370
    53
100
AcDbSpline
210
0.0
220
0.0
230
1.0
 70
    11
 71
     3
 72
    76
 73
    72
 74
     0
 42
0.0000000001
 43
0.0000000001
 12
1.0
 22
0.0
 32
0.0
 13
1.0
 23
0.0
 33
0.0
 40
0.0
 40
0.0
 40
0.0
 40
0.0
 40
0.0526315789473684
 40
0.0526315789473684
 40
0.0526315789473684
 40
0.0526315789473684
 40
0.1052631578947368
 40
0.1052631578947368
 40
0.1052631578947368
 40
0.1052631578947368
 40
0.1578947368421053
 40
0.1578947368421053
 40
0.1578947368421053
 40
0.1578947368421053
 40
0.2105263157894737
 40
0.2105263157894737
 40
0.2105263157894737
 40
0.2105263157894737
 40
0.2631578947368421
 40
0.2631578947368421
 40
0.2631578947368421
 40
0.2631578947368421
 40
0.3157894736842105
 40
0.3157894736842105
 40
0.3157894736842105
 40
0.3157894736842105
 40
0.3684210526315789
 40
0.3684210526315789
 40
0.3684210526315789
 40
0.3684210526315789
 40
0.4210526315789473
 40
0.4210526315789473
 40
0.4210526315789473
 40
0.4210526315789473
 40
0.4736842105263158
 40
0.4736842105263158
 40
0.4736842105263158
 40
0.4736842105263158
 40
0.5263157894736842
 40
0.5263157894736842
 40
0.5263157894736842
 40
0.5263157894736842
 40
0.5789473684210527
 40
0.5789473684210527
 40
0.5789473684210527
 40
0.5789473684210527
 40
0.631578947368421
 40
0.631578947368421
 40
0.631578947368421
 40
0.631578947368421
 40
0.6842105263157895
 40
0.6842105263157895
 40
0.6842105263157895
 40
0.6842105263157895
 40
0.7368421052631579
 40
0.7368421052631579
 40
0.7368421052631579
 40
0.7368421052631579
 40
0.7894736842105263
 40
0.7894736842105263
 40
0.7894736842105263
 40
0.7894736842105263
 40
0.8421052631578947
 40
0.8421052631578947
 40
0.8421052631578947
 40
0.8421052631578947
 40
0.8947368421052632
 40
0.8947368421052632
 40
0.8947368421052632
 40
0.8947368421052632
 40
1.0
 40
1.0
 40
1.0
 40
1.0
 10
-10.75794
 20
-11.65408
 30
0.0
 10
-10.70332
 20
-11.66435
 30
0.0
 10
-10.62945
 20
-11.78328
 30
0.0
 10
-10.6079
 20
-11.8088
 30
0.0
 10
-10.6079
 20
-11.8088
 30
0.0
 10
-10.54425
 20
-11.88424
 30
0.0
 10
-10.49113
 20
-11.9662
 30
0.0
 10
-10.43279
 20
-12.04546
 30
0.0
 10
-10.43279
 20
-12.04546
 30
0.0
 10
-10.41078
 20
-12.0016
 30
0.0
 10
-10.38567
 20
-11.96161
 30
0.0
 10
-10.37496
 20
-11.91276
 30
0.0
 10
-10.37496
 20
-11.91276
 30
0.0
 10
-10.24415
 20
-11.94184
 30
0.0
 10
-10.14361
 20
-12.1303
 30
0.0
 10
-10.0449
 20
-12.21529
 30
0.0
 10
-10.0449
 20
-12.21529
 30
0.0
 10
-10.02046
 20
-12.1783
 30
0.0
 10
-9.96726
 20
-12.02497
 30
0.0
 10
-9.91665
 20
-12.00791
 30
0.0
 10
-9.91665
 20
-12.00791
 30
0.0
 10
-9.85776
 20
-11.98807
 30
0.0
 10
-9.74213
 20
-12.14935
 30
0.0
 10
-9.69563
 20
-12.18264
 30
0.0
 10
-9.69563
 20
-12.18264
 30
0.0
 10
-9.63656
 20
-12.07368
 30
0.0
 10
-9.60369
 20
-11.92663
 30
0.0
 10
-9.52832
 20
-11.83101
 30
0.0
 10
-9.52832
 20
-11.83101
 30
0.0
 10
-9.45657
 20
-11.87982
 30
0.0
 10
-9.37458
 20
-11.92404
 30
0.0
 10
-9.3167
 20
-11.98949
 30
0.0
 10
-9.3167
 20
-11.98949
 30
0.0
 10
-9.31606
 20
-11.98883
 30
0.0
 10
-9.31534
 20
-11.9883
 30
0.0
 10
-9.31451
 20
-11.98785
 30
0.0
 10
-9.31451
 20
-11.98785
 30
0.0
 10
-9.28121
 20
-11.87726
 30
0.0
 10
-9.23501
 20
-11.77045
 30
0.0
 10
-9.17948
 20
-11.66921
 30
0.0
 10
-9.17948
 20
-11.66921
 30
0.0
 10
-9.17948
 20
-11.66921
 30
0.0
 10
-9.17804
 20
-11.6666
 30
0.0
 10
-9.17804
 20
-11.6666
 30
0.0
 10
-9.17804
 20
-11.6666
 30
0.0
 10
-9.2468
 20
-11.67136
 30
0.0
 10
-9.31802
 20
-11.67052
 30
0.0
 10
-9.38384
 20
-11.65386
 30
0.0
 10
-9.38384
 20
-11.65386
 30
0.0
 10
-9.55457
 20
-11.61064
 30
0.0
 10
-9.67485
 20
-11.47138
 30
0.0
 10
-9.79787
 20
-11.35837
 30
0.0
 10
-9.79787
 20
-11.35837
 30
0.0
 10
-9.79202
 20
-11.41169
 30
0.0
 10
-9.78497
 20
-11.46667
 30
0.0
 10
-9.78755
 20
-11.52258
 30
0.0
 10
-9.78755
 20
-11.52258
 30
0.0
 10
-9.86034
 20
-11.52245
 30
0.0
 10
-9.96444
 20
-11.4065
 30
0.0
 10
-9.99349
 20
-11.34547
 30
0.0
 10
-9.99349
 20
-11.34547
 30
0.0
 10
-10.10514
 20
-11.40452
 30
0.0
 10
-10.191
 20
-11.51384
 30
0.0
 10
-10.33194
 20
-11.50983
 30
0.0
 10
-10.33194
 20
-11.50983
 30
0.0
 10
-10.3107
 20
-11.46924
 30
0.0
 10
-10.28885
 20
-11.42551
 30
0.0
 10
-10.29846
 20
-11.37784
 30
0.0
 10
-10.29846
 20
-11.37784
 30
0.0
 10
-10.45838
 20
-11.48074
 30
0.0
 10
-10.58677
 20
-11.60152
 30
0.0
 10
-10.75794
 20
-11.65408
 30
0.0
  0
SPLINE
  5
50
330
1F
100
AcDbEntity
  8
Layer 1
370
    53
100
AcDbSpline
210
0.0
220
0.0
230
1.0
 70
    11
 71
     3
 72
    12
 73
     8
 74
     0
 42
0.0000000001
 43
0.0000000001
 12
1.0
 22
0.0
 32
0.0
 13
1.0
 23
0.0
 33
0.0
 40
0.0
 40
0.0
 40
0.0
 40
0.0
 40
0.3333333333333333
 40
0.3333333333333333
 40
0.3333333333333333
 40
0.3333333333333333
 40
1.0
 40
1.0
 40
1.0
 40
1.0
 10
-11.89792
 20
-11.0635
 30
0.0
 10
-11.90485
 20
-10.99736
 30
0.0
 10
-11.90274
 20
-10.92809
 30
0.0
 10
-11.89792
 20
-10.85845
 30
0.0
 10
-11.89792
 20
-10.85845
 30
0.0
 10
-11.89792
 20
-10.85845
 30
0.0
 10
-11.89792
 20
-11.0635
 30
0.0
 10
-11.89792
 20
-11.0635
 30
0.0
  0
SPLINE
  5
51
330
1F
100
AcDbEntity
  8
Layer 1
370
    53
100
AcDbSpline
210
0.0
220
0.0
230
1.0
 70
    11
 71
     3
 72
    16
 73
    12
 74
     0
 42
0.0000000001
 43
0.0000000001
 12
1.0
 22
0.0
 32
0.0
 13
1.0
 23
0.0
 33
0.0
 40
0.0
 40
0.0
 40
0.0
 40
0.0
 40
0.25
 40
0.25
 40
0.25
 40
0.25
 40
0.5
 40
0.5
 40
0.5
 40
0.5
 40
1.0
 40
1.0
 40
1.0
 40
1.0
 10
-8.54588
 20
-9.19215
 30
0.0
 10
-8.54588
 20
-9.19215
 30
0.0
 10
-8.54126
 20
-9.19262
 30
0.0
 10
-8.54126
 20
-9.19262
 30
0.0
 10
-8.54126
 20
-9.19262
 30
0.0
 10
-8.54126
 20
-9.19262
 30
0.0
 10
-8.54192
 20
-9.1941
 30
0.0
 10
-8.54192
 20
-9.1941
 30
0.0
 10
-8.54192
 20
-9.1941
 30
0.0
 10
-8.54192
 20
-9.1941
 30
0.0
 10
-8.54588
 20
-9.19215
 30
0.0
 10
-8.54588
 20
-9.19215
 30
0.0
  0
SPLINE
  5
52
330
1F
100
AcDbEntity
  8
Layer 1
370
    53
100
AcDbSpline
210
0.0
220
0.0
230
1.0
 70
    11
 71
     3
 72
   264
 73
   260
 74
     0
 42
0.0000000001
 43
0.0000000001
 12
1.0
 22
0.0
 32
0.0
 13
1.0
 23
0.0
 33
0.0
 40
0.0
 40
0.0
 40
0.0
 40
0.0
 40
0.0151515151515152
 40
0.0151515151515152
 40
0.0151515151515152
 40
0.0151515151515152
 40
0.0303030303030303
 40
0.0303030303030303
 40
0.0303030303030303
 40
0.0303030303030303
 40
0.0454545454545455
 40
0.0454545454545455
 40
0.0454545454545455
 40
0.0454545454545455
 40
0.0606060606060606
 40
0.0606060606060606
 40
0.0606060606060606
 40
0.0606060606060606
 40
0.0757575757575758
 40
0.0757575757575758
 40
0.0757575757575758
 40
0.0757575757575758
 40
0.0909090909090909
 40
0.0909090909090909
 40
0.0909090909090909
 40
0.0909090909090909
 40
0.1060606060606061
 40
0.1060606060606061
 40
0.1060606060606061
 40
0.1060606060606061
 40
0.1212121212121212
 40
0.1212121212121212
 40
0.1212121212121212
 40
0.1212121212121212
 40
0.1363636363636364
 40
0.1363636363636364
 40
0.1363636363636364
 40
0.1363636363636364
 40
0.1515151515151515
 40
0.1515151515151515
 40
0.1515151515151515
 40
0.1515151515151515
 40
0.1666666666666667
 40
0.1666666666666667
 40
0.1666666666666667
 40
0.1666666666666667
 40
0.1818181818181818
 40
0.1818181818181818
 40
0.1818181818181818
 40
0.1818181818181818
 40
0.196969696969697
 40
0.196969696969697
 40
0.196969696969697
 40
0.196969696969697
 40
0.2121212121212121
 40
0.2121212121212121
 40
0.2121212121212121
 40
0.2121212121212121
 40
0.2272727272727273
 40
0.2272727272727273
 40
0.2272727272727273
 40
0.2272727272727273
 40
0.2424242424242424
 40
0.2424242424242424
 40
0.2424242424242424
 40
0.2424242424242424
 40
0.2575757575757576
 40
0.2575757575757576
 40
0.2575757575757576
 40
0.2575757575757576
 40
0.2727272727272727
 40
0.2727272727272727
 40
0.2727272727272727
 40
0.2727272727272727
 40
0.2878787878787879
 40
0.2878787878787879
 40
0.2878787878787879
 40
0.2878787878787879
 40
0.303030303030303
 40
0.303030303030303
 40
0.303030303030303
 40
0.303030303030303
 40
0.3181818181818182
 40
0.3181818181818182
 40
0.3181818181818182
 40
0.3181818181818182
 40
0.3333333333333333
 40
0.3333333333333333
 40
0.3333333333333333
 40
0.3333333333333333
 40
0.3484848484848485
 40
0.3484848484848485
 40
0.3484848484848485
 40
0.3484848484848485
 40
0.3636363636363636
 40
0.3636363636363636
 40
0.3636363636363636
 40
0.3636363636363636
 40
0.3787878787878788
 40
0.3787878787878788
 40
0.3787878787878788
 40
0.3787878787878788
 40
0.3939393939393939
 40
0.3939393939393939
 40
0.3939393939393939
 40
0.3939393939393939
 40
0.4090909090909091
 40
0.4090909090909091
 40
0.4090909090909091
 40
0.4090909090909091
 40
0.4242424242424243
 40
0.4242424242424243
 40
0.4242424242424243
 40
0.4242424242424243
 40
0.4393939393939394
 40
0.4393939393939394
 40
0.4393939393939394
 40
0.4393939393939394
 40
0.4545454545454545
 40
0.4545454545454545
 40
0.4545454545454545
 40
0.4545454545454545
 40
0.4696969696969697
 40
0.4696969696969697
 40
0.4696969696969697
 40
0.4696969696969697
 40
0.4848484848484849
 40
0.4848484848484849
 40
0.4848484848484849
 40
0.4848484848484849
 40
0.5
 40
0.5
 40
0.5
 40
0.5
 40
0.5151515151515151
 40
0.5151515151515151
 40
0.5151515151515151
 40
0.5151515151515151
 40
0.5303030303030303
 40
0.5303030303030303
 40
0.5303030303030303
 40
0.5303030303030303
 40
0.5454545454545454
 40
0.5454545454545454
 40
0.5454545454545454
 40
0.5454545454545454
 40
0.5606060606060606
 40
0.5606060606060606
 40
0.5606060606060606
 40
0.5606060606060606
 40
0.5757575757575758
 40
0.5757575757575758
 40
0.5757575757575758
 40
0.5757575757575758
 40
0.5909090909090909
 40
0.5909090909090909
 40
0.5909090909090909
 40
0.5909090909090909
 40
0.6060606060606061
 40
0.6060606060606061
 40
0.6060606060606061
 40
0.6060606060606061
 40
0.6212121212121212
 40
0.6212121212121212
 40
0.6212121212121212
 40
0.6212121212121212
 40
0.6363636363636364
 40
0.6363636363636364
 40
0.6363636363636364
 40
0.6363636363636364
 40
0.6515151515151515
 40
0.6515151515151515
 40
0.6515151515151515
 40
0.6515151515151515
 40
0.6666666666666666
 40
0.6666666666666666
 40
0.6666666666666666
 40
0.6666666666666666
 40
0.6818181818181818
 40
0.6818181818181818
 40
0.6818181818181818
 40
0.6818181818181818
 40
0.696969696969697
 40
0.696969696969697
 40
0.696969696969697
 40
0.696969696969697
 40
0.7121212121212122
 40
0.7121212121212122
 40
0.7121212121212122
 40
0.7121212121212122
 40
0.7272727272727273
 40
0.7272727272727273
 40
0.7272727272727273
 40
0.7272727272727273
 40
0.7424242424242424
 40
0.7424242424242424
 40
0.7424242424242424
 40
0.7424242424242424
 40
0.7575757575757576
 40
0.7575757575757576
 40
0.7575757575757576
 40
0.7575757575757576
 40
0.7727272727272727
 40
0.7727272727272727
 40
0.7727272727272727
 40
0.7727272727272727
 40
0.7878787878787878
 40
0.7878787878787878
 40
0.7878787878787878
 40
0.7878787878787878
 40
0.803030303030303
 40
0.803030303030303
 40
0.803030303030303
 40
0.803030303030303
 40
0.8181818181818182
 40
0.8181818181818182
 40
0.8181818181818182
 40
0.8181818181818182
 40
0.8333333333333334
 40
0.8333333333333334
 40
0.8333333333333334
 40
0.8333333333333334
 40
0.8484848484848485
 40
0.8484848484848485
 40
0.8484848484848485
 40
0.8484848484848485
 40
0.8636363636363636
 40
0.8636363636363636
 40
0.8636363636363636
 40
0.8636363636363636
 40
0.8787878787878788
 40
0.8787878787878788
 40
0.8787878787878788
 40
0.8787878787878788
 40
0.8939393939393939
 40
0.8939393939393939
 40
0.8939393939393939
 40
0.8939393939393939
 40
0.9090909090909091
 40
0.9090909090909091
 40
0.9090909090909091
 40
0.9090909090909091
 40
0.9242424242424242
 40
0.9242424242424242
 40
0.9242424242424242
 40
0.9242424242424242
 40
0.9393939393939394
 40
0.9393939393939394
 40
0.9393939393939394
 40
0.9393939393939394
 40
0.9545454545454546
 40
0.9545454545454546
 40
0.9545454545454546
 40
0.9545454545454546
 40
0.9696969696969697
 40
0.9696969696969697
 40
0.9696969696969697
 40
0.9696969696969697
 40
1.0
 40
1.0
 40
1.0
 40
1.0
 10
-9.56211
 20
-13.35033
 30
0.0
 10
-9.56211
 20
-13.35033
 30
0.0
 10
-9.56211
 20
-13.34382
 30
0.0
 10
-9.56211
 20
-13.34382
 30
0.0
 10
-9.56211
 20
-13.34382
 30
0.0
 10
-9.307
 20
-13.30441
 30
0.0
 10
-9.22834
 20
-12.98157
 30
0.0
 10
-9.07453
 20
-12.81714
 30
0.0
 10
-9.07453
 20
-12.81714
 30
0.0
 10
-9.11362
 20
-12.95784
 30
0.0
 10
-9.13538
 20
-13.10185
 30
0.0
 10
-9.16858
 20
-13.24315
 30
0.0
 10
-9.16858
 20
-13.24315
 30
0.0
 10
-8.76119
 20
-13.18352
 30
0.0
 10
-8.64352
 20
-12.69394
 30
0.0
 10
-8.57554
 20
-12.35727
 30
0.0
 10
-8.57554
 20
-12.35727
 30
0.0
 10
-8.49095
 20
-12.4545
 30
0.0
 10
-8.48906
 20
-12.61399
 30
0.0
 10
-8.4311
 20
-12.72151
 30
0.0
 10
-8.4311
 20
-12.72151
 30
0.0
 10
-8.44074
 20
-12.70101
 30
0.0
 10
-8.33622
 20
-12.53678
 30
0.0
 10
-8.32465
 20
-12.50328
 30
0.0
 10
-8.32465
 20
-12.50328
 30
0.0
 10
-8.28504
 20
-12.38883
 30
0.0
 10
-8.22052
 20
-12.28514
 30
0.0
 10
-8.17644
 20
-12.17255
 30
0.0
 10
-8.17644
 20
-12.17255
 30
0.0
 10
-8.12078
 20
-12.03034
 30
0.0
 10
-8.09332
 20
-11.89708
 30
0.0
 10
-8.0835
 20
-11.74477
 30
0.0
 10
-8.0835
 20
-11.74477
 30
0.0
 10
-8.07089
 20
-11.54953
 30
0.0
 10
-8.0869
 20
-11.38381
 30
0.0
 10
-8.19551
 20
-11.23578
 30
0.0
 10
-8.19551
 20
-11.23578
 30
0.0
 10
-8.19551
 20
-11.23578
 30
0.0
 10
-8.19551
 20
-10.89757
 30
0.0
 10
-8.19551
 20
-10.89757
 30
0.0
 10
-8.19551
 20
-10.89757
 30
0.0
 10
-8.17312
 20
-10.86238
 30
0.0
 10
-8.14924
 20
-10.82854
 30
0.0
 10
-8.12422
 20
-10.7977
 30
0.0
 10
-8.12422
 20
-10.7977
 30
0.0
 10
-8.0872
 20
-10.92787
 30
0.0
 10
-8.07192
 20
-11.06491
 30
0.0
 10
-8.04384
 20
-11.19529
 30
0.0
 10
-8.04384
 20
-11.19529
 30
0.0
 10
-7.97177
 20
-11.0835
 30
0.0
 10
-7.91927
 20
-10.9088
 30
0.0
 10
-7.91216
 20
-10.77402
 30
0.0
 10
-7.91216
 20
-10.77402
 30
0.0
 10
-7.84871
 20
-10.81678
 30
0.0
 10
-7.78711
 20
-10.898
 30
0.0
 10
-7.76484
 20
-10.97311
 30
0.0
 10
-7.76484
 20
-10.97311
 30
0.0
 10
-7.71503
 20
-10.81628
 30
0.0
 10
-7.76799
 20
-10.5266
 30
0.0
 10
-7.76799
 20
-10.3523
 30
0.0
 10
-7.76799
 20
-10.3523
 30
0.0
 10
-7.76799
 20
-10.18534
 30
0.0
 10
-7.76435
 20
-10.01281
 30
0.0
 10
-7.80437
 20
-9.85108
 30
0.0
 10
-7.80437
 20
-9.85108
 30
0.0
 10
-7.84902
 20
-9.67087
 30
0.0
 10
-7.91455
 20
-9.47386
 30
0.0
 10
-8.03795
 20
-9.33355
 30
0.0
 10
-8.03795
 20
-9.33355
 30
0.0
 10
-8.1159
 20
-9.24489
 30
0.0
 10
-8.29
 20
-9.12014
 30
0.0
 10
-8.41403
 20
-9.12889
 30
0.0
 10
-8.41403
 20
-9.12889
 30
0.0
 10
-8.43544
 20
-9.1304
 30
0.0
 10
-8.45387
 20
-9.13354
 30
0.0
 10
-8.46965
 20
-9.1381
 30
0.0
 10
-8.46965
 20
-9.1381
 30
0.0
 10
-8.46951
 20
-9.0771
 30
0.0
 10
-8.48984
 20
-8.98381
 30
0.0
 10
-8.50619
 20
-8.92248
 30
0.0
 10
-8.50619
 20
-8.92248
 30
0.0
 10
-8.47673
 20
-8.89006
 30
0.0
 10
-8.45467
 20
-8.85324
 30
0.0
 10
-8.44754
 20
-8.81171
 30
0.0
 10
-8.44754
 20
-8.81171
 30
0.0
 10
-8.43035
 20
-8.7116
 30
0.0
 10
-8.54195
 20
-8.54464
 30
0.0
 10
-8.62073
 20
-8.51347
 30
0.0
 10
-8.62073
 20
-8.51347
 30
0.0
 10
-8.64423
 20
-8.50417
 30
0.0
 10
-8.66614
 20
-8.49883
 30
0.0
 10
-8.68688
 20
-8.4967
 30
0.0
 10
-8.68688
 20
-8.4967
 30
0.0
 10
-8.74554
 20
-8.43609
 30
0.0
 10
-8.79406
 20
-8.33941
 30
0.0
 10
-8.8316
 20
-8.26721
 30
0.0
 10
-8.8316
 20
-8.26721
 30
0.0
 10
-8.88206
 20
-8.17018
 30
0.0
 10
-8.93725
 20
-8.07486
 30
0.0
 10
-8.98541
 20
-7.97715
 30
0.0
 10
-8.98541
 20
-7.97715
 30
0.0
 10
-9.08742
 20
-7.77021
 30
0.0
 10
-9.1717
 20
-7.55122
 30
0.0
 10
-9.28684
 20
-7.35042
 30
0.0
 10
-9.28684
 20
-7.35042
 30
0.0
 10
-9.39158
 20
-7.16773
 30
0.0
 10
-9.46016
 20
-6.97225
 30
0.0
 10
-9.52024
 20
-6.77249
 30
0.0
 10
-9.52024
 20
-6.77249
 30
0.0
 10
-9.58553
 20
-6.55532
 30
0.0
 10
-9.62048
 20
-6.32812
 30
0.0
 10
-9.52607
 20
-6.11225
 30
0.0
 10
-9.52607
 20
-6.11225
 30
0.0
 10
-9.43936
 20
-5.91409
 30
0.0
 10
-9.1423
 20
-5.82795
 30
0.0
 10
-8.94104
 20
-5.92535
 30
0.0
 10
-8.94104
 20
-5.92535
 30
0.0
 10
-8.81772
 20
-5.98501
 30
0.0
 10
-8.72137
 20
-6.34942
 30
0.0
 10
-8.62677
 20
-6.07063
 30
0.0
 10
-8.62677
 20
-6.07063
 30
0.0
 10
-8.5143
 20
-5.73913
 30
0.0
 10
-8.84276
 20
-5.42986
 30
0.0
 10
-9.13323
 20
-5.31529
 30
0.0
 10
-9.13323
 20
-5.31529
 30
0.0
 10
-9.50439
 20
-5.16891
 30
0.0
 10
-9.85838
 20
-5.28328
 30
0.0
 10
-10.17624
 20
-5.50226
 30
0.0
 10
-10.17624
 20
-5.50226
 30
0.0
 10
-10.63086
 20
-5.81545
 30
0.0
 10
-10.90284
 20
-6.35477
 30
0.0
 10
-11.10877
 20
-6.83887
 30
0.0
 10
-11.10877
 20
-6.83887
 30
0.0
 10
-11.24357
 20
-7.15588
 30
0.0
 10
-11.31981
 20
-7.52191
 30
0.0
 10
-11.34868
 20
-7.86322
 30
0.0
 10
-11.34868
 20
-7.86322
 30
0.0
 10
-11.36121
 20
-8.01146
 30
0.0
 10
-11.37
 20
-8.16127
 30
0.0
 10
-11.38312
 20
-8.30834
 30
0.0
 10
-11.38312
 20
-8.30834
 30
0.0
 10
-11.38935
 20
-8.37799
 30
0.0
 10
-11.3395
 20
-8.5276
 30
0.0
 10
-11.38782
 20
-8.58505
 30
0.0
 10
-11.38782
 20
-8.58505
 30
0.0
 10
-11.38782
 20
-8.58505
 30
0.0
 10
-11.38552
 20
-8.59003
 30
0.0
 10
-11.38552
 20
-8.59003
 30
0.0
 10
-11.38552
 20
-8.59003
 30
0.0
 10
-11.43439
 20
-8.59795
 30
0.0
 10
-11.48102
 20
-8.6217
 30
0.0
 10
-11.52342
 20
-8.66805
 30
0.0
 10
-11.52342
 20
-8.66805
 30
0.0
 10
-11.58672
 20
-8.73725
 30
0.0
 10
-11.56782
 20
-8.85338
 30
0.0
 10
-11.52465
 20
-8.9358
 30
0.0
 10
-11.52465
 20
-8.9358
 30
0.0
 10
-11.55883
 20
-9.02166
 30
0.0
 10
-11.54748
 20
-9.10258
 30
0.0
 10
-11.50862
 20
-9.17476
 30
0.0
 10
-11.50862
 20
-9.17476
 30
0.0
 10
-11.51187
 20
-9.17608
 30
0.0
 10
-11.51511
 20
-9.17741
 30
0.0
 10
-11.51833
 20
-9.17878
 30
0.0
 10
-11.51833
 20
-9.17878
 30
0.0
 10
-11.52408
 20
-9.07099
 30
0.0
 10
-11.69446
 20
-9.09914
 30
0.0
 10
-11.80452
 20
-9.12733
 30
0.0
 10
-11.80452
 20
-9.12733
 30
0.0
 10
-12.1862
 20
-9.22512
 30
0.0
 10
-12.24273
 20
-9.7001
 30
0.0
 10
-12.25443
 20
-10.02811
 30
0.0
 10
-12.25443
 20
-10.02811
 30
0.0
 10
-12.26146
 20
-10.22572
 30
0.0
 10
-12.24937
 20
-10.42329
 30
0.0
 10
-12.23811
 20
-10.62054
 30
0.0
 10
-12.23811
 20
-10.62054
 30
0.0
 10
-12.22752
 20
-10.80535
 30
0.0
 10
-12.18765
 20
-11.07902
 30
0.0
 10
-12.25392
 20
-11.24959
 30
0.0
 10
-12.25392
 20
-11.24959
 30
0.0
 10
-12.20519
 20
-11.12416
 30
0.0
 10
-12.11124
 20
-11.02707
 30
0.0
 10
-12.05063
 20
-10.90919
 30
0.0
 10
-12.05063
 20
-10.90919
 30
0.0
 10
-12.01176
 20
-11.01055
 30
0.0
 10
-11.9757
 20
-11.13047
 30
0.0
 10
-11.93913
 20
-11.22418
 30
0.0
 10
-11.93913
 20
-11.22418
 30
0.0
 10
-11.92539
 20
-11.18649
 30
0.0
 10
-11.90925
 20
-11.14118
 30
0.0
 10
-11.89792
 20
-11.10853
 30
0.0
 10
-11.89792
 20
-11.10853
 30
0.0
 10
-11.89792
 20
-11.10853
 30
0.0
 10
-11.89792
 20
-11.28727
 30
0.0
 10
-11.89792
 20
-11.28727
 30
0.0
 10
-11.89792
 20
-11.28727
 30
0.0
 10
-11.92435
 20
-11.41381
 30
0.0
 10
-11.93007
 20
-11.54818
 30
0.0
 10
-11.93012
 20
-11.63775
 30
0.0
 10
-11.93012
 20
-11.63775
 30
0.0
 10
-11.93022
 20
-11.87395
 30
0.0
 10
-11.83821
 20
-12.08628
 30
0.0
 10
-11.77023
 20
-12.30728
 30
0.0
 10
-11.77023
 20
-12.30728
 30
0.0
 10
-11.7369
 20
-12.4156
 30
0.0
 10
-11.69178
 20
-12.51967
 30
0.0
 10
-11.63623
 20
-12.6184
 30
0.0
 10
-11.63623
 20
-12.6184
 30
0.0
 10
-11.63246
 20
-12.62511
 30
0.0
 10
-11.61819
 20
-12.647
 30
0.0
 10
-11.59918
 20
-12.67574
 30
0.0
 10
-11.59918
 20
-12.67574
 30
0.0
 10
-11.54556
 20
-12.75673
 30
0.0
 10
-11.45407
 20
-12.89177
 30
0.0
 10
-11.45358
 20
-12.89127
 30
0.0
 10
-11.45358
 20
-12.89127
 30
0.0
 10
-11.35077
 20
-12.78634
 30
0.0
 10
-11.43273
 20
-12.59811
 30
0.0
 10
-11.38012
 20
-12.46768
 30
0.0
 10
-11.38012
 20
-12.46768
 30
0.0
 10
-11.20913
 20
-12.77995
 30
0.0
 10
-10.89391
 20
-13.16176
 30
0.0
 10
-10.57091
 20
-13.35033
 30
0.0
 10
-10.57091
 20
-13.35033
 30
0.0
 10
-10.57091
 20
-13.35033
 30
0.0
 10
-11.7496
 20
-13.35033
 30
0.0
 10
-11.7496
 20
-13.35033
 30
0.0
 10
-11.7496
 20
-13.35033
 30
0.0
 10
-12.02574
 20
-13.35033
 30
0.0
 10
-12.2496
 20
-13.57419
 30
0.0
 10
-12.2496
 20
-13.85033
 30
0.0
 10
-12.2496
 20
-13.85033
 30
0.0
 10
-12.2496
 20
-13.85033
 30
0.0
 10
-12.2496
 20
-14.25033
 30
0.0
 10
-12.2496
 20
-14.25033
 30
0.0
 10
-12.2496
 20
-14.25033
 30
0.0
 10
-12.2496
 20
-14.52647
 30
0.0
 10
-12.02574
 20
-14.75033
 30
0.0
 10
-11.7496
 20
-14.75033
 30
0.0
 10
-11.7496
 20
-14.75033
 30
0.0
 10
-11.7496
 20
-14.75033
 30
0.0
 10
-8.3496
 20
-14.75033
 30
0.0
 10
-8.3496
 20
-14.75033
 30
0.0
 10
-8.3496
 20
-14.75033
 30
0.0
 10
-8.07346
 20
-14.75033
 30
0.0
 10
-7.8496
 20
-14.52647
 30
0.0
 10
-7.8496
 20
-14.25033
 30
0.0
 10
-7.8496
 20
-14.25033
 30
0.0
 10
-7.8496
 20
-14.25033
 30
0.0
 10
-7.8496
 20
-13.85033
 30
0.0
 10
-7.8496
 20
-13.85033
 30
0.0
 10
-7.8496
 20
-13.85033
 30
0.0
 10
-7.8496
 20
-13.57419
 30
0.0
 10
-8.07346
 20
-13.35033
 30
0.0
 10
-8.3496
 20
-13.35033
 30
0.0
 10
-8.3496
 20
-13.35033
 30
0.0
 10
-8.3496
 20
-13.35033
 30
0.0
 10
-9.56211
 20
-13.35033
 30
0.0
 10
-9.56211
 20
-13.35033
 30
0.0
  0
SPLINE
  5
53
330
1F
100
AcDbEntity
  8
Layer 1
370
    53
100
AcDbSpline
210
0.0
220
0.0
230
1.0
 70
    11
 71
     3
 72
    20
 73
    16
 74
     0
 42
0.0000000001
 43
0.0000000001
 12
1.0
 22
0.0
 32
0.0
 13
1.0
 23
0.0
 33
0.0
 40
0.0
 40
0.0
 40
0.0
 40
0.0
 40
0.2
 40
0.2
 40
0.2
 40
0.2
 40
0.4
 40
0.4
 40
0.4
 40
0.4
 40
0.6
 40
0.6
 40
0.6
 40
0.6
 40
1.0
 40
1.0
 40
1.0
 40
1.0
 10
-10.9796
 20
-14.05033
 30
0.0
 10
-10.9796
 20
-13.95092
 30
0.0
 10
-10.89901
 20
-13.87033
 30
0.0
 10
-10.7996
 20
-13.87033
 30
0.0
 10
-10.7996
 20
-13.87033
 30
0.0
 10
-10.70019
 20
-13.87033
 30
0.0
 10
-10.6196
 20
-13.95092
 30
0.0
 10
-10.6196
 20
-14.05033
 30
0.0
 10
-10.6196
 20
-14.05033
 30
0.0
 10
-10.6196
 20
-14.14974
 30
0.0
 10
-10.70019
 20
-14.23033
 30
0.0
 10
-10.7996
 20
-14.23033
 30
0.0
 10
-10.7996
 20
-14.23033
 30
0.0
 10
-10.89901
 20
-14.23033
 30
0.0
 10
-10.9796
 20
-14.14974
 30
0.0
 10
-10.9796
 20
-14.05033
 30
0.0
  0
SPLINE
  5
54
330
1F
100
AcDbEntity
  8
Layer 1
370
    53
100
AcDbSpline
210
0.0
220
0.0
230
1.0
 70
    11
 71
     3
 72
    20
 73
    16
 74
     0
 42
0.0000000001
 43
0.0000000001
 12
1.0
 22
0.0
 32
0.0
 13
1.0
 23
0.0
 33
0.0
 40
0.0
 40
0.0
 40
0.0
 40
0.0
 40
0.2
 40
0.2
 40
0.2
 40
0.2
 40
0.4
 40
0.4
 40
0.4
 40
0.4
 40
0.6
 40
0.6
 40
0.6
 40
0.6
 40
1.0
 40
1.0
 40
1.0
 40
1.0
 10
-9.4796
 20
-14.05033
 30
0.0
 10
-9.4796
 20
-13.95092
 30
0.0
 10
-9.39901
 20
-13.87033
 30
0.0
 10
-9.2996
 20
-13.87033
 30
0.0
 10
-9.2996
 20
-13.87033
 30
0.0
 10
-9.20019
 20
-13.87033
 30
0.0
 10
-9.1196
 20
-13.95092
 30
0.0
 10
-9.1196
 20
-14.05033
 30
0.0
 10
-9.1196
 20
-14.05033
 30
0.0
 10
-9.1196
 20
-14.14974
 30
0.0
 10
-9.20019
 20
-14.23033
 30
0.0
 10
-9.2996
 20
-14.23033
 30
0.0
 10
-9.2996
 20
-14.23033
 30
0.0
 10
-9.39901
 20
-14.23033
 30
0.0
 10
-9.4796
 20
-14.14974
 30
0.0
 10
-9.4796
 20
-14.05033
 30
0.0
  0
ENDSEC
  0
SECTION
  2
OBJECTS
  0
DICTIONARY
  5
C
330
0
100
AcDbDictionary
281
     1
  3
ACAD_GROUP
350
D
  3
ACAD_LAYOUT
350
1A
  3
ACAD_MATERIAL
350
3B
  3
ACAD_MLEADERSTYLE
350
76
  3
ACAD_MLINESTYLE
350
17
  3
ACAD_PLOTSETTINGS
350
19
  3
ACAD_PLOTSTYLENAME
350
E
  3
ACAD_TABLESTYLE
350
75
  3
ACAD_VISUALSTYLE
350
2A
  0
DICTIONARY
  5
D
102
{ACAD_REACTORS
330
C
102
}
330
C
100
AcDbDictionary
281
     1
  0
DICTIONARY
  5
1A
102
{ACAD_REACTORS
330
C
102
}
330
C
100
AcDbDictionary
281
     1
  3
Layout1
350
1E
  3
Layout2
350
26
  3
Model
350
22
  0
DICTIONARY
  5
3B
102
{ACAD_REACTORS
330
C
102
}
330
C
100
AcDbDictionary
281
     1
  3
ByBlock
350
3D
  3
ByLayer
350
3C
  3
Global
350
3E
  0
DICTIONARY
  5
76
102
{ACAD_REACTORS
330
C
102
}
330
C
100
AcDbDictionary
281
     1
  0
DICTIONARY
  5
17
102
{ACAD_REACTORS
330
C
102
}
330
C
100
AcDbDictionary
281
     1
  3
Standard
350
18
  0
DICTIONARY
  5
19
102
{ACAD_REACTORS
330
C
102
}
330
C
100
AcDbDictionary
281
     1
  0
ACDBDICTIONARYWDFLT
  5
E
102
{ACAD_REACTORS
330
C
102
}
330
C
100
AcDbDictionary
281
     1
  3
Normal
350
F
100
AcDbDictionaryWithDefault
340
F
  0
DICTIONARY
  5
75
102
{ACAD_REACTORS
330
C
102
}
330
C
100
AcDbDictionary
281
     1
  0
DICTIONARY
  5
2A
102
{ACAD_REACTORS
330
C
102
}
330
C
100
AcDbDictionary
281
     1
  3
2dWireframe
350
2F
  3
3D Hidden
350
31
  3
3dWireframe
350
30
  3
Basic
350
32
  3
Brighten
350
36
  3
ColorChange
350
3A
  3
Conceptual
350
34
  3
Dim
350
35
  3
Facepattern
350
39
  3
Flat
350
2B
  3
FlatWithEdges
350
2C
  3
Gouraud
350
2D
  3
GouraudWithEdges
350
2E
  3
Linepattern
350
38
  3
Realistic
350
33
  3
Thicken
350
37
  0
LAYOUT
  5
1E
102
{ACAD_REACTORS
330
1A
102
}
330
1A
100
AcDbPlotSettings
  1

  2
none_device
  4

  6

 40
0.0
 41
0.0
 42
0.0
 43
0.0
 44
0.0
 45
0.0
 46
0.0
 47
0.0
 48
0.0
 49
0.0
140
0.0
141
0.0
142
1.0
143
1.0
 70
   688
 72
     0
 73
     0
 74
     5
  7

 75
    16
 76
     0
 77
     2
 78
   300
147
1.0
148
0.0
149
0.0
100
AcDbLayout
  1
Layout1
 70
     1
 71
     1
 10
0.0
 20
0.0
 11
12.0
 21
9.0
 12
0.0
 22
0.0
 32
0.0
 14
1.000000000000000E+20
 24
1.000000000000000E+20
 34
1.000000000000000E+20
 15
-1.000000000000000E+20
 25
-1.000000000000000E+20
 35
-1.000000000000000E+20
146
0.0
 13
0.0
 23
0.0
 33
0.0
 16
1.0
 26
0.0
 36
0.0
 17
0.0
 27
1.0
 37
0.0
 76
     0
330
1B
  0
LAYOUT
  5
26
102
{ACAD_REACTORS
330
1A
102
}
330
1A
100
AcDbPlotSettings
  1

  2
none_device
  4

  6

 40
0.0
 41
0.0
 42
0.0
 43
0.0
 44
0.0
 45
0.0
 46
0.0
 47
0.0
 48
0.0
 49
0.0
140
0.0
141
0.0
142
1.0
143
1.0
 70
   688
 72
     0
 73
     0
 74
     5
  7

 75
    16
 76
     0
 77
     2
 78
   300
147
1.0
148
0.0
149
0.0
100
AcDbLayout
  1
Layout2
 70
     1
 71
     2
 10
0.0
 20
0.0
 11
0.0
 21
0.0
 12
0.0
 22
0.0
 32
0.0
 14
0.0
 24
0.0
 34
0.0
 15
0.0
 25
0.0
 35
0.0
146
0.0
 13
0.0
 23
0.0
 33
0.0
 16
1.0
 26
0.0
 36
0.0
 17
0.0
 27
1.0
 37
0.0
 76
     0
330
23
  0
LAYOUT
  5
22
102
{ACAD_REACTORS
330
1A
102
}
330
1A
100
AcDbPlotSettings
  1

  2
none_device
  4

  6

 40
0.0
 41
0.0
 42
0.0
 43
0.0
 44
0.0
 45
0.0
 46
0.0
 47
0.0
 48
0.0
 49
0.0
140
0.0
141
0.0
142
1.0
143
1.0
 70
  1712
 72
     0
 73
     0
 74
     0
  7

 75
     0
 76
     0
 77
     2
 78
   300
147
1.0
148
0.0
149
0.0
100
AcDbLayout
  1
Model
 70
     1
 71
     0
 10
0.0
 20
0.0
 11
12.0
 21
9.0
 12
0.0
 22
0.0
 32
0.0
 14
-12.28297
 24
-14.77679
 34
0.0
 15
-7.71704
 25
-5.22323
 35
0.0
146
0.0
 13
0.0
 23
0.0
 33
0.0
 16
1.0
 26
0.0
 36
0.0
 17
0.0
 27
1.0
 37
0.0
 76
     0
330
1F
331
29
  0
MATERIAL
  5
3D
102
{ACAD_REACTORS
330
3B
102
}
330
3B
100
AcDbMaterial
  1
ByBlock
 72
     1
 94
      127
  0
MATERIAL
  5
3C
102
{ACAD_REACTORS
330
3B
102
}
330
3B
100
AcDbMaterial
  1
ByLayer
 72
     1
 94
      127
  0
MATERIAL
  5
3E
102
{ACAD_REACTORS
330
3B
102
}
330
3B
100
AcDbMaterial
  1
Global
 72
     1
 94
      127
  0
MLINESTYLE
  5
18
102
{ACAD_REACTORS
330
17
102
}
330
17
100
AcDbMlineStyle
  2
Standard
 70
     0
  3

 62
   256
 51
90.0
 52
90.0
 71
     2
 49
0.5
 62
   256
  6
BYLAYER
 49
-0.5
 62
   256
  6
BYLAYER
  0
ACDBPLACEHOLDER
  5
F
102
{ACAD_REACTORS
330
E
102
}
330
E
  0
VISUALSTYLE
  5
2F
102
{ACAD_REACTORS
330
2A
102
}
102
{ACAD_XDICTIONARY
360
5D
102
}
330
2A
100
AcDbVisualStyle
  2
2dWireframe
 70
     4
 71
     0
 72
     2
 73
     0
 90
        0
 40
-0.6
 41
-30.0
 62
     5
 63
     7
421
 16777215
 74
     1
 91
        4
 64
     7
 65
   257
 75
     1
175
     1
 42
1.0
 92
        0
 66
   257
 43
1.0
 76
     1
 77
     6
 78
     2
 67
     7
 79
     5
170
     0
171
     0
290
     0
174
     0
 93
        1
 44
0.0
173
     0
291
     0
 45
0.0
  0
VISUALSTYLE
  5
31
102
{ACAD_REACTORS
330
2A
102
}
102
{ACAD_XDICTIONARY
360
61
102
}
330
2A
100
AcDbVisualStyle
  2
3D Hidden
 70
     6
 71
     1
 72
     2
 73
     2
 90
        0
 40
-0.6
 41
-30.0
 62
     5
 63
     7
421
 16777215
 74
     2
 91
        2
 64
     7
 65
   257
 75
     2
175
     1
 42
40.0
 92
        0
 66
   257
 43
1.0
 76
     1
 77
     6
 78
     2
 67
     7
 79
     3
170
     0
171
     0
290
     0
174
     0
 93
        1
 44
0.0
173
     0
291
     0
 45
0.0
  0
VISUALSTYLE
  5
30
102
{ACAD_REACTORS
330
2A
102
}
102
{ACAD_XDICTIONARY
360
5F
102
}
330
2A
100
AcDbVisualStyle
  2
3dWireframe
 70
     5
 71
     0
 72
     2
 73
     0
 90
        0
 40
-0.6
 41
-30.0
 62
     5
 63
     7
421
 16777215
 74
     1
 91
        4
 64
     7
 65
   257
 75
     1
175
     1
 42
1.0
 92
        0
 66
   257
 43
1.0
 76
     1
 77
     6
 78
     2
 67
     7
 79
     5
170
     0
171
     0
290
     0
174
     0
 93
        1
 44
0.0
173
     0
291
     0
 45
0.0
  0
VISUALSTYLE
  5
32
102
{ACAD_REACTORS
330
2A
102
}
102
{ACAD_XDICTIONARY
360
63
102
}
330
2A
100
AcDbVisualStyle
  2
Basic
 70
     7
 71
     1
 72
     0
 73
     1
 90
        0
 40
-0.6
 41
-30.0
 62
     5
 63
     7
421
 16777215
 74
     0
 91
        4
 64
     7
 65
   257
 75
     1
175
     1
 42
1.0
 92
        8
 66
     7
 43
1.0
 76
     1
 77
     6
 78
     2
 67
     7
 79
     5
170
     0
171
     0
290
     0
174
     0
 93
        1
 44
0.0
173
     0
291
     1
 45
0.0
  0
VISUALSTYLE
  5
36
102
{ACAD_REACTORS
330
2A
102
}
102
{ACAD_XDICTIONARY
360
6B
102
}
330
2A
100
AcDbVisualStyle
  2
Brighten
 70
    12
 71
     2
 72
     2
 73
     0
 90
        0
 40
-0.6
 41
-30.0
 62
     5
 63
     7
421
 16777215
 74
     1
 91
        4
 64
     7
 65
   257
 75
     1
175
     1
 42
1.0
 92
        8
 66
     7
 43
1.0
 76
     1
 77
     6
 78
     2
 67
     7
 79
     5
170
     0
171
     0
290
     0
174
     0
 93
        1
 44
50.0
173
     0
291
     1
 45
0.0
  0
VISUALSTYLE
  5
3A
102
{ACAD_REACTORS
330
2A
102
}
102
{ACAD_XDICTIONARY
360
73
102
}
330
2A
100
AcDbVisualStyle
  2
ColorChange
 70
    16
 71
     2
 72
     2
 73
     3
 90
        0
 40
-0.6
 41
-30.0
 62
     5
 63
     8
421
  8421504
 74
     1
 91
        4
 64
     7
 65
   257
 75
     1
175
     1
 42
1.0
 92
        8
 66
     8
424
  8421504
 43
1.0
 76
     1
 77
     6
 78
     2
 67
     7
 79
     5
170
     0
171
     0
290
     0
174
     0
 93
        1
 44
0.0
173
     0
291
     1
 45
0.0
  0
VISUALSTYLE
  5
34
102
{ACAD_REACTORS
330
2A
102
}
102
{ACAD_XDICTIONARY
360
67
102
}
330
2A
100
AcDbVisualStyle
  2
Conceptual
 70
     9
 71
     3
 72
     2
 73
     0
 90
        0
 40
-0.6
 41
-30.0
 62
     5
 63
     7
421
 16777215
 74
     2
 91
        2
 64
     7
 65
   257
 75
     1
175
     1
 42
40.0
 92
        8
 66
     7
 43
1.0
 76
     1
 77
     6
 78
     2
 67
     7
 79
     3
170
     0
171
     0
290
     0
174
     0
 93
        1
 44
0.0
173
     0
291
     0
 45
0.0
  0
VISUALSTYLE
  5
35
102
{ACAD_REACTORS
330
2A
102
}
102
{ACAD_XDICTIONARY
360
69
102
}
330
2A
100
AcDbVisualStyle
  2
Dim
 70
    11
 71
     2
 72
     2
 73
     0
 90
        0
 40
-0.6
 41
-30.0
 62
     5
 63
     7
421
 16777215
 74
     1
 91
        4
 64
     7
 65
   257
 75
     1
175
     1
 42
1.0
 92
        8
 66
     7
 43
1.0
 76
     1
 77
     6
 78
     2
 67
     7
 79
     5
170
     0
171
     0
290
     0
174
     0
 93
        1
 44
-50.0
173
     0
291
     1
 45
0.0
  0
VISUALSTYLE
  5
39
102
{ACAD_REACTORS
330
2A
102
}
102
{ACAD_XDICTIONARY
360
71
102
}
330
2A
100
AcDbVisualStyle
  2
Facepattern
 70
    15
 71
     2
 72
     2
 73
     0
 90
        0
 40
-0.6
 41
-30.0
 62
     5
 63
     7
421
 16777215
 74
     1
 91
        4
 64
     7
 65
   257
 75
     1
175
     1
 42
1.0
 92
        8
 66
     7
 43
1.0
 76
     1
 77
     6
 78
     2
 67
     7
 79
     5
170
     0
171
     0
290
     0
174
     0
 93
        1
 44
0.0
173
     0
291
     1
 45
0.0
  0
VISUALSTYLE
  5
2B
102
{ACAD_REACTORS
330
2A
102
}
102
{ACAD_XDICTIONARY
360
55
102
}
330
2A
100
AcDbVisualStyle
  2
Flat
 70
     0
 71
     2
 72
     1
 73
     1
 90
        2
 40
-0.6
 41
30.0
 62
     5
 63
     7
421
 16777215
 74
     0
 91
        4
 64
     7
 65
   257
 75
     1
175
     1
 42
1.0
 92
        8
 66
     7
 43
1.0
 76
     1
 77
     6
 78
     2
 67
     7
 79
     5
170
     0
171
     0
290
     0
174
     0
 93
       13
 44
0.0
173
     0
291
     1
 45
0.0
  0
VISUALSTYLE
  5
2C
102
{ACAD_REACTORS
330
2A
102
}
102
{ACAD_XDICTIONARY
360
57
102
}
330
2A
100
AcDbVisualStyle
  2
FlatWithEdges
 70
     1
 71
     2
 72
     1
 73
     1
 90
        2
 40
-0.6
 41
30.0
 62
     5
 63
     7
421
 16777215
 74
     1
 91
        4
 64
     7
 65
   257
 75
     1
175
     1
 42
1.0
 92
        0
 66
   257
 43
1.0
 76
     1
 77
     6
 78
     2
 67
     7
 79
     5
170
     0
171
     0
290
     0
174
     0
 93
       13
 44
0.0
173
     0
291
     1
 45
0.0
  0
VISUALSTYLE
  5
2D
102
{ACAD_REACTORS
330
2A
102
}
102
{ACAD_XDICTIONARY
360
59
102
}
330
2A
100
AcDbVisualStyle
  2
Gouraud
 70
     2
 71
     2
 72
     2
 73
     1
 90
        2
 40
-0.6
 41
30.0
 62
     5
 63
     7
421
 16777215
 74
     0
 91
        4
 64
     7
 65
   257
 75
     1
175
     1
 42
1.0
 92
        0
 66
     7
 43
1.0
 76
     1
 77
     6
 78
     2
 67
     7
 79
     5
170
     0
171
     0
290
     0
174
     0
 93
       13
 44
0.0
173
     0
291
     1
 45
0.0
  0
VISUALSTYLE
  5
2E
102
{ACAD_REACTORS
330
2A
102
}
102
{ACAD_XDICTIONARY
360
5B
102
}
330
2A
100
AcDbVisualStyle
  2
GouraudWithEdges
 70
     3
 71
     2
 72
     2
 73
     1
 90
        2
 40
-0.6
 41
30.0
 62
     5
 63
     7
421
 16777215
 74
     1
 91
        4
 64
     7
 65
   257
 75
     1
175
     1
 42
1.0
 92
        0
 66
   257
 43
1.0
 76
     1
 77
     6
 78
     2
 67
     7
 79
     5
170
     0
171
     0
290
     0
174
     0
 93
       13
 44
0.0
173
     0
291
     1
 45
0.0
  0
VISUALSTYLE
  5
38
102
{ACAD_REACTORS
330
2A
102
}
102
{ACAD_XDICTIONARY
360
6F
102
}
330
2A
100
AcDbVisualStyle
  2
Linepattern
 70
    14
 71
     2
 72
     2
 73
     0
 90
        0
 40
-0.6
 41
-30.0
 62
     5
 63
     7
421
 16777215
 74
     1
 91
        4
 64
     7
 65
   257
 75
     7
175
     7
 42
1.0
 92
        8
 66
     7
 43
1.0
 76
     1
 77
     6
 78
     2
 67
     7
 79
     5
170
     0
171
     0
290
     0
174
     0
 93
        1
 44
0.0
173
     0
291
     1
 45
0.0
  0
VISUALSTYLE
  5
33
102
{ACAD_REACTORS
330
2A
102
}
102
{ACAD_XDICTIONARY
360
65
102
}
330
2A
100
AcDbVisualStyle
  2
Realistic
 70
     8
 71
     2
 72
     2
 73
     0
 90
        0
 40
-0.6
 41
-30.0
 62
     5
 63
     7
421
 16777215
 74
     1
 91
        0
 64
     7
 65
   257
 75
     1
175
     1
 42
1.0
 92
        8
 66
     8
424
  7895160
 43
1.0
 76
     1
 77
     6
 78
     2
 67
     7
 79
     5
170
     0
171
     0
290
     0
174
     0
 93
       13
 44
0.0
173
     0
291
     0
 45
0.0
  0
VISUALSTYLE
  5
37
102
{ACAD_REACTORS
330
2A
102
}
102
{ACAD_XDICTIONARY
360
6D
102
}
330
2A
100
AcDbVisualStyle
  2
Thicken
 70
    13
 71
     2
 72
     2
 73
     0
 90
        0
 40
-0.6
 41
-30.0
 62
     5
 63
     7
421
 16777215
 74
     1
 91
        4
 64
     7
 65
   257
 75
     1
175
     1
 42
1.0
 92
       12
 66
     7
 43
1.0
 76
     1
 77
     6
 78
     2
 67
     7
 79
     5
170
     0
171
     0
290
     0
174
     0
 93
        1
 44
0.0
173
     0
291
     1
 45
0.0
  0
DICTIONARY
  5
5D
330
2F
100
AcDbDictionary
280
     1
281
     1
  3
ACAD_XREC_ROUNDTRIP
360
5E
  0
DICTIONARY
  5
61
330
31
100
AcDbDictionary
280
     1
281
     1
  3
ACAD_XREC_ROUNDTRIP
360
62
  0
DICTIONARY
  5
5F
330
30
100
AcDbDictionary
280
     1
281
     1
  3
ACAD_XREC_ROUNDTRIP
360
60
  0
DICTIONARY
  5
63
330
32
100
AcDbDictionary
280
     1
281
     1
  3
ACAD_XREC_ROUNDTRIP
360
64
  0
DICTIONARY
  5
6B
330
36
100
AcDbDictionary
280
     1
281
     1
  3
ACAD_XREC_ROUNDTRIP
360
6C
  0
DICTIONARY
  5
73
330
3A
100
AcDbDictionary
280
     1
281
     1
  3
ACAD_XREC_ROUNDTRIP
360
74
  0
DICTIONARY
  5
67
330
34
100
AcDbDictionary
280
     1
281
     1
  3
ACAD_XREC_ROUNDTRIP
360
68
  0
DICTIONARY
  5
69
330
35
100
AcDbDictionary
280
     1
281
     1
  3
ACAD_XREC_ROUNDTRIP
360
6A
  0
DICTIONARY
  5
71
330
39
100
AcDbDictionary
280
     1
281
     1
  3
ACAD_XREC_ROUNDTRIP
360
72
  0
DICTIONARY
  5
55
330
2B
100
AcDbDictionary
280
     1
281
     1
  3
ACAD_XREC_ROUNDTRIP
360
56
  0
DICTIONARY
  5
57
330
2C
100
AcDbDictionary
280
     1
281
     1
  3
ACAD_XREC_ROUNDTRIP
360
58
  0
DICTIONARY
  5
59
330
2D
100
AcDbDictionary
280
     1
281
     1
  3
ACAD_XREC_ROUNDTRIP
360
5A
  0
DICTIONARY
  5
5B
330
2E
100
AcDbDictionary
280
     1
281
     1
  3
ACAD_XREC_ROUNDTRIP
360
5C
  0
DICTIONARY
  5
6F
330
38
100
AcDbDictionary
280
     1
281
     1
  3
ACAD_XREC_ROUNDTRIP
360
70
  0
DICTIONARY
  5
65
330
33
100
AcDbDictionary
280
     1
281
     1
  3
ACAD_XREC_ROUNDTRIP
360
66
  0
DICTIONARY
  5
6D
330
37
100
AcDbDictionary
280
     1
281
     1
  3
ACAD_XREC_ROUNDTRIP
360
6E
  0
XRECORD
  5
5E
102
{ACAD_REACTORS
330
5D
102
}
330
5D
100
AcDbXrecord
280
     1
102
RTVSPropertyOp0
 70
     1
102
RTVSPropertyOp1
 70
     1
102
RTVSPropertyOp2
 70
     1
102
RTVSPropertyOp3
 70
     1
102
RTVSPropertyOp4
 70
     1
102
RTVSPropertyOp5
 70
     1
102
RTVSPropertyOp6
 70
     1
102
RTVSPropertyOp7
 70
     1
102
RTVSPropertyOp8
 70
     1
102
RTVSPropertyOp9
 70
     1
102
RTVSPropertyOp10
 70
     1
102
RTVSPropertyOp11
 70
     1
102
RTVSPropertyOp12
 70
     1
102
RTVSPropertyOp13
 70
     1
102
RTVSPropertyOp14
 70
     1
102
RTVSPropertyOp15
 70
     1
102
RTVSPropertyOp16
 70
     1
102
RTVSPropertyOp17
 70
     1
102
RTVSPropertyOp18
 70
     1
102
RTVSPropertyOp19
 70
     1
102
RTVSPropertyOp20
 70
     1
102
RTVSPropertyOp21
 70
     1
102
RTVSPropertyOp22
 70
     1
102
RTVSPropertyOp23
 70
     1
102
RTVSPropertyOp24
 70
     1
102
RTVSPropertyOp25
 70
     1
102
RTVSPropertyOp26
 70
     1
102
RTVSPropertyOp27
 70
     1
102
RTVSPropertyOp28
 70
     1
102
RTVSPropertyOp29
 70
     1
102
RTVSPropertyOp30
 70
     1
102
RTVSPropertyOp31
 70
     1
102
RTVSPropertyOp32
 70
     1
  0
XRECORD
  5
62
102
{ACAD_REACTORS
330
61
102
}
330
61
100
AcDbXrecord
280
     1
102
RTVSPropertyOp0
 70
     1
102
RTVSPropertyOp1
 70
     1
102
RTVSPropertyOp2
 70
     1
102
RTVSPropertyOp3
 70
     1
102
RTVSPropertyOp4
 70
     1
102
RTVSPropertyOp5
 70
     1
102
RTVSPropertyOp6
 70
     1
102
RTVSPropertyOp7
 70
     1
102
RTVSPropertyOp8
 70
     1
102
RTVSPropertyOp9
 70
     1
102
RTVSPropertyOp10
 70
     1
102
RTVSPropertyOp11
 70
     1
102
RTVSPropertyOp12
 70
     1
102
RTVSPropertyOp13
 70
     1
102
RTVSPropertyOp14
 70
     1
102
RTVSPropertyOp15
 70
     1
102
RTVSPropertyOp16
 70
     1
102
RTVSPropertyOp17
 70
     1
102
RTVSPropertyOp18
 70
     1
102
RTVSPropertyOp19
 70
     1
102
RTVSPropertyOp20
 70
     1
102
RTVSPropertyOp21
 70
     1
102
RTVSPropertyOp22
 70
     1
102
RTVSPropertyOp23
 70
     1
102
RTVSPropertyOp24
 70
     1
102
RTVSPropertyOp25
 70
     1
102
RTVSPropertyOp26
 70
     1
102
RTVSPropertyOp27
 70
     1
102
RTVSPropertyOp28
 70
     1
102
RTVSPropertyOp29
 70
     1
102
RTVSPropertyOp30
 70
     1
102
RTVSPropertyOp31
 70
     1
102
RTVSPropertyOp32
 70
     1
  0
XRECORD
  5
60
102
{ACAD_REACTORS
330
5F
102
}
330
5F
100
AcDbXrecord
280
     1
102
RTVSPropertyOp0
 70
     1
102
RTVSPropertyOp1
 70
     1
102
RTVSPropertyOp2
 70
     1
102
RTVSPropertyOp3
 70
     1
102
RTVSPropertyOp4
 70
     1
102
RTVSPropertyOp5
 70
     1
102
RTVSPropertyOp6
 70
     1
102
RTVSPropertyOp7
 70
     1
102
RTVSPropertyOp8
 70
     1
102
RTVSPropertyOp9
 70
     1
102
RTVSPropertyOp10
 70
     1
102
RTVSPropertyOp11
 70
     1
102
RTVSPropertyOp12
 70
     1
102
RTVSPropertyOp13
 70
     1
102
RTVSPropertyOp14
 70
     1
102
RTVSPropertyOp15
 70
     1
102
RTVSPropertyOp16
 70
     1
102
RTVSPropertyOp17
 70
     1
102
RTVSPropertyOp18
 70
     1
102
RTVSPropertyOp19
 70
     1
102
RTVSPropertyOp20
 70
     1
102
RTVSPropertyOp21
 70
     1
102
RTVSPropertyOp22
 70
     1
102
RTVSPropertyOp23
 70
     1
102
RTVSPropertyOp24
 70
     1
102
RTVSPropertyOp25
 70
     1
102
RTVSPropertyOp26
 70
     1
102
RTVSPropertyOp27
 70
     1
102
RTVSPropertyOp28
 70
     1
102
RTVSPropertyOp29
 70
     1
102
RTVSPropertyOp30
 70
     1
102
RTVSPropertyOp31
 70
     1
102
RTVSPropertyOp32
 70
     1
  0
XRECORD
  5
64
102
{ACAD_REACTORS
330
63
102
}
330
63
100
AcDbXrecord
280
     1
102
RTVSPropertyOp0
 70
     1
102
RTVSPropertyOp1
 70
     1
102
RTVSPropertyOp2
 70
     1
102
RTVSPropertyOp3
 70
     1
102
RTVSPropertyOp4
 70
     1
102
RTVSPropertyOp5
 70
     1
102
RTVSPropertyOp6
 70
     1
102
RTVSPropertyOp7
 70
     1
102
RTVSPropertyOp8
 70
     1
102
RTVSPropertyOp9
 70
     1
102
RTVSPropertyOp10
 70
     1
102
RTVSPropertyOp11
 70
     1
102
RTVSPropertyOp12
 70
     1
102
RTVSPropertyOp13
 70
     1
102
RTVSPropertyOp14
 70
     1
102
RTVSPropertyOp15
 70
     1
102
RTVSPropertyOp16
 70
     1
102
RTVSPropertyOp17
 70
     1
102
RTVSPropertyOp18
 70
     1
102
RTVSPropertyOp19
 70
     1
102
RTVSPropertyOp20
 70
     1
102
RTVSPropertyOp21
 70
     1
102
RTVSPropertyOp22
 70
     1
102
RTVSPropertyOp23
 70
     1
102
RTVSPropertyOp24
 70
     1
102
RTVSPropertyOp25
 70
     1
102
RTVSPropertyOp26
 70
     1
102
RTVSPropertyOp27
 70
     1
102
RTVSPropertyOp28
 70
     1
102
RTVSPropertyOp29
 70
     1
102
RTVSPropertyOp30
 70
     1
102
RTVSPropertyOp31
 70
     1
102
RTVSPropertyOp32
 70
     1
  0
XRECORD
  5
6C
102
{ACAD_REACTORS
330
6B
102
}
330
6B
100
AcDbXrecord
280
     1
102
RTVSPropertyOp0
 70
     1
102
RTVSPropertyOp1
 70
     1
102
RTVSPropertyOp2
 70
     1
102
RTVSPropertyOp3
 70
     1
102
RTVSPropertyOp4
 70
     1
102
RTVSPropertyOp5
 70
     1
102
RTVSPropertyOp6
 70
     1
102
RTVSPropertyOp7
 70
     1
102
RTVSPropertyOp8
 70
     1
102
RTVSPropertyOp9
 70
     1
102
RTVSPropertyOp10
 70
     1
102
RTVSPropertyOp11
 70
     1
102
RTVSPropertyOp12
 70
     1
102
RTVSPropertyOp13
 70
     1
102
RTVSPropertyOp14
 70
     1
102
RTVSPropertyOp15
 70
     1
102
RTVSPropertyOp16
 70
     1
102
RTVSPropertyOp17
 70
     1
102
RTVSPropertyOp18
 70
     1
102
RTVSPropertyOp19
 70
     1
102
RTVSPropertyOp20
 70
     1
102
RTVSPropertyOp21
 70
     1
102
RTVSPropertyOp22
 70
     1
102
RTVSPropertyOp23
 70
     1
102
RTVSPropertyOp24
 70
     1
102
RTVSPropertyOp25
 70
     1
102
RTVSPropertyOp26
 70
     1
102
RTVSPropertyOp27
 70
     1
102
RTVSPropertyOp28
 70
     1
102
RTVSPropertyOp29
 70
     1
102
RTVSPropertyOp30
 70
     1
102
RTVSPropertyOp31
 70
     1
102
RTVSPropertyOp32
 70
     1
  0
XRECORD
  5
74
102
{ACAD_REACTORS
330
73
102
}
330
73
100
AcDbXrecord
280
     1
102
RTVSPropertyOp0
 70
     1
102
RTVSPropertyOp1
 70
     1
102
RTVSPropertyOp2
 70
     1
102
RTVSPropertyOp3
 70
     1
102
RTVSPropertyOp4
 70
     1
102
RTVSPropertyOp5
 70
     1
102
RTVSPropertyOp6
 70
     1
102
RTVSPropertyOp7
 70
     1
102
RTVSPropertyOp8
 70
     1
102
RTVSPropertyOp9
 70
     1
102
RTVSPropertyOp10
 70
     1
102
RTVSPropertyOp11
 70
     1
102
RTVSPropertyOp12
 70
     1
102
RTVSPropertyOp13
 70
     1
102
RTVSPropertyOp14
 70
     1
102
RTVSPropertyOp15
 70
     1
102
RTVSPropertyOp16
 70
     1
102
RTVSPropertyOp17
 70
     1
102
RTVSPropertyOp18
 70
     1
102
RTVSPropertyOp19
 70
     1
102
RTVSPropertyOp20
 70
     1
102
RTVSPropertyOp21
 70
     1
102
RTVSPropertyOp22
 70
     1
102
RTVSPropertyOp23
 70
     1
102
RTVSPropertyOp24
 70
     1
102
RTVSPropertyOp25
 70
     1
102
RTVSPropertyOp26
 70
     1
102
RTVSPropertyOp27
 70
     1
102
RTVSPropertyOp28
 70
     1
102
RTVSPropertyOp29
 70
     1
102
RTVSPropertyOp30
 70
     1
102
RTVSPropertyOp31
 70
     1
102
RTVSPropertyOp32
 70
     1
  0
XRECORD
  5
68
102
{ACAD_REACTORS
330
67
102
}
330
67
100
AcDbXrecord
280
     1
102
RTVSPropertyOp0
 70
     1
102
RTVSPropertyOp1
 70
     1
102
RTVSPropertyOp2
 70
     1
102
RTVSPropertyOp3
 70
     1
102
RTVSPropertyOp4
 70
     1
102
RTVSPropertyOp5
 70
     1
102
RTVSPropertyOp6
 70
     1
102
RTVSPropertyOp7
 70
     1
102
RTVSPropertyOp8
 70
     1
102
RTVSPropertyOp9
 70
     1
102
RTVSPropertyOp10
 70
     1
102
RTVSPropertyOp11
 70
     1
102
RTVSPropertyOp12
 70
     1
102
RTVSPropertyOp13
 70
     1
102
RTVSPropertyOp14
 70
     1
102
RTVSPropertyOp15
 70
     1
102
RTVSPropertyOp16
 70
     1
102
RTVSPropertyOp17
 70
     1
102
RTVSPropertyOp18
 70
     1
102
RTVSPropertyOp19
 70
     1
102
RTVSPropertyOp20
 70
     1
102
RTVSPropertyOp21
 70
     1
102
RTVSPropertyOp22
 70
     1
102
RTVSPropertyOp23
 70
     1
102
RTVSPropertyOp24
 70
     1
102
RTVSPropertyOp25
 70
     1
102
RTVSPropertyOp26
 70
     1
102
RTVSPropertyOp27
 70
     1
102
RTVSPropertyOp28
 70
     1
102
RTVSPropertyOp29
 70
     1
102
RTVSPropertyOp30
 70
     1
102
RTVSPropertyOp31
 70
     1
102
RTVSPropertyOp32
 70
     1
  0
XRECORD
  5
6A
102
{ACAD_REACTORS
330
69
102
}
330
69
100
AcDbXrecord
280
     1
102
RTVSPropertyOp0
 70
     1
102
RTVSPropertyOp1
 70
     1
102
RTVSPropertyOp2
 70
     1
102
RTVSPropertyOp3
 70
     1
102
RTVSPropertyOp4
 70
     1
102
RTVSPropertyOp5
 70
     1
102
RTVSPropertyOp6
 70
     1
102
RTVSPropertyOp7
 70
     1
102
RTVSPropertyOp8
 70
     1
102
RTVSPropertyOp9
 70
     1
102
RTVSPropertyOp10
 70
     1
102
RTVSPropertyOp11
 70
     1
102
RTVSPropertyOp12
 70
     1
102
RTVSPropertyOp13
 70
     1
102
RTVSPropertyOp14
 70
     1
102
RTVSPropertyOp15
 70
     1
102
RTVSPropertyOp16
 70
     1
102
RTVSPropertyOp17
 70
     1
102
RTVSPropertyOp18
 70
     1
102
RTVSPropertyOp19
 70
     1
102
RTVSPropertyOp20
 70
     1
102
RTVSPropertyOp21
 70
     1
102
RTVSPropertyOp22
 70
     1
102
RTVSPropertyOp23
 70
     1
102
RTVSPropertyOp24
 70
     1
102
RTVSPropertyOp25
 70
     1
102
RTVSPropertyOp26
 70
     1
102
RTVSPropertyOp27
 70
     1
102
RTVSPropertyOp28
 70
     1
102
RTVSPropertyOp29
 70
     1
102
RTVSPropertyOp30
 70
     1
102
RTVSPropertyOp31
 70
     1
102
RTVSPropertyOp32
 70
     1
  0
XRECORD
  5
72
102
{ACAD_REACTORS
330
71
102
}
330
71
100
AcDbXrecord
280
     1
102
RTVSPropertyOp0
 70
     1
102
RTVSPropertyOp1
 70
     1
102
RTVSPropertyOp2
 70
     1
102
RTVSPropertyOp3
 70
     1
102
RTVSPropertyOp4
 70
     1
102
RTVSPropertyOp5
 70
     1
102
RTVSPropertyOp6
 70
     1
102
RTVSPropertyOp7
 70
     1
102
RTVSPropertyOp8
 70
     1
102
RTVSPropertyOp9
 70
     1
102
RTVSPropertyOp10
 70
     1
102
RTVSPropertyOp11
 70
     1
102
RTVSPropertyOp12
 70
     1
102
RTVSPropertyOp13
 70
     1
102
RTVSPropertyOp14
 70
     1
102
RTVSPropertyOp15
 70
     1
102
RTVSPropertyOp16
 70
     1
102
RTVSPropertyOp17
 70
     1
102
RTVSPropertyOp18
 70
     1
102
RTVSPropertyOp19
 70
     1
102
RTVSPropertyOp20
 70
     1
102
RTVSPropertyOp21
 70
     1
102
RTVSPropertyOp22
 70
     1
102
RTVSPropertyOp23
 70
     1
102
RTVSPropertyOp24
 70
     1
102
RTVSPropertyOp25
 70
     1
102
RTVSPropertyOp26
 70
     1
102
RTVSPropertyOp27
 70
     1
102
RTVSPropertyOp28
 70
     1
102
RTVSPropertyOp29
 70
     1
102
RTVSPropertyOp30
 70
     1
102
RTVSPropertyOp31
 70
     1
102
RTVSPropertyOp32
 70
     1
  0
XRECORD
  5
56
102
{ACAD_REACTORS
330
55
102
}
330
55
100
AcDbXrecord
280
     1
102
RTVSPropertyOp0
 70
     1
102
RTVSPropertyOp1
 70
     1
102
RTVSPropertyOp2
 70
     1
102
RTVSPropertyOp3
 70
     1
102
RTVSPropertyOp4
 70
     1
102
RTVSPropertyOp5
 70
     1
102
RTVSPropertyOp6
 70
     1
102
RTVSPropertyOp7
 70
     1
102
RTVSPropertyOp8
 70
     1
102
RTVSPropertyOp9
 70
     1
102
RTVSPropertyOp10
 70
     1
102
RTVSPropertyOp11
 70
     1
102
RTVSPropertyOp12
 70
     1
102
RTVSPropertyOp13
 70
     1
102
RTVSPropertyOp14
 70
     1
102
RTVSPropertyOp15
 70
     1
102
RTVSPropertyOp16
 70
     1
102
RTVSPropertyOp17
 70
     1
102
RTVSPropertyOp18
 70
     1
102
RTVSPropertyOp19
 70
     1
102
RTVSPropertyOp20
 70
     1
102
RTVSPropertyOp21
 70
     1
102
RTVSPropertyOp22
 70
     1
102
RTVSPropertyOp23
 70
     1
102
RTVSPropertyOp24
 70
     1
102
RTVSPropertyOp25
 70
     1
102
RTVSPropertyOp26
 70
     1
102
RTVSPropertyOp27
 70
     1
102
RTVSPropertyOp28
 70
     1
102
RTVSPropertyOp29
 70
     1
102
RTVSPropertyOp30
 70
     1
102
RTVSPropertyOp31
 70
     1
102
RTVSPropertyOp32
 70
     1
  0
XRECORD
  5
58
102
{ACAD_REACTORS
330
57
102
}
330
57
100
AcDbXrecord
280
     1
102
RTVSPropertyOp0
 70
     1
102
RTVSPropertyOp1
 70
     1
102
RTVSPropertyOp2
 70
     1
102
RTVSPropertyOp3
 70
     1
102
RTVSPropertyOp4
 70
     1
102
RTVSPropertyOp5
 70
     1
102
RTVSPropertyOp6
 70
     1
102
RTVSPropertyOp7
 70
     1
102
RTVSPropertyOp8
 70
     1
102
RTVSPropertyOp9
 70
     1
102
RTVSPropertyOp10
 70
     1
102
RTVSPropertyOp11
 70
     1
102
RTVSPropertyOp12
 70
     1
102
RTVSPropertyOp13
 70
     1
102
RTVSPropertyOp14
 70
     1
102
RTVSPropertyOp15
 70
     1
102
RTVSPropertyOp16
 70
     1
102
RTVSPropertyOp17
 70
     1
102
RTVSPropertyOp18
 70
     1
102
RTVSPropertyOp19
 70
     1
102
RTVSPropertyOp20
 70
     1
102
RTVSPropertyOp21
 70
     1
102
RTVSPropertyOp22
 70
     1
102
RTVSPropertyOp23
 70
     1
102
RTVSPropertyOp24
 70
     1
102
RTVSPropertyOp25
 70
     1
102
RTVSPropertyOp26
 70
     1
102
RTVSPropertyOp27
 70
     1
102
RTVSPropertyOp28
 70
     1
102
RTVSPropertyOp29
 70
     1
102
RTVSPropertyOp30
 70
     1
102
RTVSPropertyOp31
 70
     1
102
RTVSPropertyOp32
 70
     1
  0
XRECORD
  5
5A
102
{ACAD_REACTORS
330
59
102
}
330
59
100
AcDbXrecord
280
     1
102
RTVSPropertyOp0
 70
     1
102
RTVSPropertyOp1
 70
     1
102
RTVSPropertyOp2
 70
     1
102
RTVSPropertyOp3
 70
     1
102
RTVSPropertyOp4
 70
     1
102
RTVSPropertyOp5
 70
     1
102
RTVSPropertyOp6
 70
     1
102
RTVSPropertyOp7
 70
     1
102
RTVSPropertyOp8
 70
     1
102
RTVSPropertyOp9
 70
     1
102
RTVSPropertyOp10
 70
     1
102
RTVSPropertyOp11
 70
     1
102
RTVSPropertyOp12
 70
     1
102
RTVSPropertyOp13
 70
     1
102
RTVSPropertyOp14
 70
     1
102
RTVSPropertyOp15
 70
     1
102
RTVSPropertyOp16
 70
     1
102
RTVSPropertyOp17
 70
     1
102
RTVSPropertyOp18
 70
     1
102
RTVSPropertyOp19
 70
     1
102
RTVSPropertyOp20
 70
     1
102
RTVSPropertyOp21
 70
     1
102
RTVSPropertyOp22
 70
     1
102
RTVSPropertyOp23
 70
     1
102
RTVSPropertyOp24
 70
     1
102
RTVSPropertyOp25
 70
     1
102
RTVSPropertyOp26
 70
     1
102
RTVSPropertyOp27
 70
     1
102
RTVSPropertyOp28
 70
     1
102
RTVSPropertyOp29
 70
     1
102
RTVSPropertyOp30
 70
     1
102
RTVSPropertyOp31
 70
     1
102
RTVSPropertyOp32
 70
     1
  0
XRECORD
  5
5C
102
{ACAD_REACTORS
330
5B
102
}
330
5B
100
AcDbXrecord
280
     1
102
RTVSPropertyOp0
 70
     1
102
RTVSPropertyOp1
 70
     1
102
RTVSPropertyOp2
 70
     1
102
RTVSPropertyOp3
 70
     1
102
RTVSPropertyOp4
 70
     1
102
RTVSPropertyOp5
 70
     1
102
RTVSPropertyOp6
 70
     1
102
RTVSPropertyOp7
 70
     1
102
RTVSPropertyOp8
 70
     1
102
RTVSPropertyOp9
 70
     1
102
RTVSPropertyOp10
 70
     1
102
RTVSPropertyOp11
 70
     1
102
RTVSPropertyOp12
 70
     1
102
RTVSPropertyOp13
 70
     1
102
RTVSPropertyOp14
 70
     1
102
RTVSPropertyOp15
 70
     1
102
RTVSPropertyOp16
 70
     1
102
RTVSPropertyOp17
 70
     1
102
RTVSPropertyOp18
 70
     1
102
RTVSPropertyOp19
 70
     1
102
RTVSPropertyOp20
 70
     1
102
RTVSPropertyOp21
 70
     1
102
RTVSPropertyOp22
 70
     1
102
RTVSPropertyOp23
 70
     1
102
RTVSPropertyOp24
 70
     1
102
RTVSPropertyOp25
 70
     1
102
RTVSPropertyOp26
 70
     1
102
RTVSPropertyOp27
 70
     1
102
RTVSPropertyOp28
 70
     1
102
RTVSPropertyOp29
 70
     1
102
RTVSPropertyOp30
 70
     1
102
RTVSPropertyOp31
 70
     1
102
RTVSPropertyOp32
 70
     1
  0
XRECORD
  5
70
102
{ACAD_REACTORS
330
6F
102
}
330
6F
100
AcDbXrecord
280
     1
102
RTVSPropertyOp0
 70
     1
102
RTVSPropertyOp1
 70
     1
102
RTVSPropertyOp2
 70
     1
102
RTVSPropertyOp3
 70
     1
102
RTVSPropertyOp4
 70
     1
102
RTVSPropertyOp5
 70
     1
102
RTVSPropertyOp6
 70
     1
102
RTVSPropertyOp7
 70
     1
102
RTVSPropertyOp8
 70
     1
102
RTVSPropertyOp9
 70
     1
102
RTVSPropertyOp10
 70
     1
102
RTVSPropertyOp11
 70
     1
102
RTVSPropertyOp12
 70
     1
102
RTVSPropertyOp13
 70
     1
102
RTVSPropertyOp14
 70
     1
102
RTVSPropertyOp15
 70
     1
102
RTVSPropertyOp16
 70
     1
102
RTVSPropertyOp17
 70
     1
102
RTVSPropertyOp18
 70
     1
102
RTVSPropertyOp19
 70
     1
102
RTVSPropertyOp20
 70
     1
102
RTVSPropertyOp21
 70
     1
102
RTVSPropertyOp22
 70
     1
102
RTVSPropertyOp23
 70
     1
102
RTVSPropertyOp24
 70
     1
102
RTVSPropertyOp25
 70
     1
102
RTVSPropertyOp26
 70
     1
102
RTVSPropertyOp27
 70
     1
102
RTVSPropertyOp28
 70
     1
102
RTVSPropertyOp29
 70
     1
102
RTVSPropertyOp30
 70
     1
102
RTVSPropertyOp31
 70
     1
102
RTVSPropertyOp32
 70
     1
  0
XRECORD
  5
66
102
{ACAD_REACTORS
330
65
102
}
330
65
100
AcDbXrecord
280
     1
102
RTVSPropertyOp0
 70
     1
102
RTVSPropertyOp1
 70
     1
102
RTVSPropertyOp2
 70
     1
102
RTVSPropertyOp3
 70
     1
102
RTVSPropertyOp4
 70
     1
102
RTVSPropertyOp5
 70
     1
102
RTVSPropertyOp6
 70
     1
102
RTVSPropertyOp7
 70
     1
102
RTVSPropertyOp8
 70
     1
102
RTVSPropertyOp9
 70
     1
102
RTVSPropertyOp10
 70
     1
102
RTVSPropertyOp11
 70
     1
102
RTVSPropertyOp12
 70
     1
102
RTVSPropertyOp13
 70
     1
102
RTVSPropertyOp14
 70
     1
102
RTVSPropertyOp15
 70
     1
102
RTVSPropertyOp16
 70
     1
102
RTVSPropertyOp17
 70
     1
102
RTVSPropertyOp18
 70
     1
102
RTVSPropertyOp19
 70
     1
102
RTVSPropertyOp20
 70
     1
102
RTVSPropertyOp21
 70
     1
102
RTVSPropertyOp22
 70
     1
102
RTVSPropertyOp23
 70
     1
102
RTVSPropertyOp24
 70
     1
102
RTVSPropertyOp25
 70
     1
102
RTVSPropertyOp26
 70
     1
102
RTVSPropertyOp27
 70
     1
102
RTVSPropertyOp28
 70
     1
102
RTVSPropertyOp29
 70
     1
102
RTVSPropertyOp30
 70
     1
102
RTVSPropertyOp31
 70
     1
102
RTVSPropertyOp32
 70
     1
  0
XRECORD
  5
6E
102
{ACAD_REACTORS
330
6D
102
}
330
6D
100
AcDbXrecord
280
     1
102
RTVSPropertyOp0
 70
     1
102
RTVSPropertyOp1
 70
     1
102
RTVSPropertyOp2
 70
     1
102
RTVSPropertyOp3
 70
     1
102
RTVSPropertyOp4
 70
     1
102
RTVSPropertyOp5
 70
     1
102
RTVSPropertyOp6
 70
     1
102
RTVSPropertyOp7
 70
     1
102
RTVSPropertyOp8
 70
     1
102
RTVSPropertyOp9
 70
     1
102
RTVSPropertyOp10
 70
     1
102
RTVSPropertyOp11
 70
     1
102
RTVSPropertyOp12
 70
     1
102
RTVSPropertyOp13
 70
     1
102
RTVSPropertyOp14
 70
     1
102
RTVSPropertyOp15
 70
     1
102
RTVSPropertyOp16
 70
     1
102
RTVSPropertyOp17
 70
     1
102
RTVSPropertyOp18
 70
     1
102
RTVSPropertyOp19
 70
     1
102
RTVSPropertyOp20
 70
     1
102
RTVSPropertyOp21
 70
     1
102
RTVSPropertyOp22
 70
     1
102
RTVSPropertyOp23
 70
     1
102
RTVSPropertyOp24
 70
     1
102
RTVSPropertyOp25
 70
     1
102
RTVSPropertyOp26
 70
     1
102
RTVSPropertyOp27
 70
     1
102
RTVSPropertyOp28
 70
     1
102
RTVSPropertyOp29
 70
     1
102
RTVSPropertyOp30
 70
     1
102
RTVSPropertyOp31
 70
     1
102
RTVSPropertyOp32
 70
     1
  0
ENDSEC
  0
EOF
