  0
SECTION
  2
HEADER
  9
$ACADVER
  1
AC1021
  9
$ACADMAINTVER
 70
    25
  9
$DWGCODEPAGE
  3
ANSI_1252
  9
$INSBASE
 10
0.0
 20
0.0
 30
0.0
  9
$EXTMIN
 10
-15.8245
 20
-12.75948
 30
0.0
  9
$EXTMAX
 10
-4.1755
 20
-8.61647
 30
0.0
  9
$LIMMIN
 10
0.0
 20
0.0
  9
$LIMMAX
 10
12.0
 20
9.0
  9
$ORTHOMODE
 70
     0
  9
$REGENMODE
 70
     1
  9
$FILLMODE
 70
     1
  9
$QTEXTMODE
 70
     0
  9
$MIRRTEXT
 70
     1
  9
$LTSCALE
 40
1.0
  9
$ATTMODE
 70
     1
  9
$TEXTSIZE
 40
0.2
  9
$TRACEWID
 40
0.05
  9
$TEXTSTYLE
  7
Standard
  9
$CLAYER
  8
0
  9
$CELTYPE
  6
ByLayer
  9
$CECOLOR
 62
   256
  9
$CELTSCALE
 40
1.0
  9
$DISPSILH
 70
     0
  9
$DIMSCALE
 40
1.0
  9
$DIMASZ
 40
0.18
  9
$DIMEXO
 40
0.0625
  9
$DIMDLI
 40
0.38
  9
$DIMRND
 40
0.0
  9
$DIMDLE
 40
0.0
  9
$DIMEXE
 40
0.18
  9
$DIMTP
 40
0.0
  9
$DIMTM
 40
0.0
  9
$DIMTXT
 40
0.18
  9
$DIMCEN
 40
0.09
  9
$DIMTSZ
 40
0.0
  9
$DIMTOL
 70
     0
  9
$DIMLIM
 70
     0
  9
$DIMTIH
 70
     1
  9
$DIMTOH
 70
     1
  9
$DIMSE1
 70
     0
  9
$DIMSE2
 70
     0
  9
$DIMTAD
 70
     0
  9
$DIMZIN
 70
     0
  9
$DIMBLK
  1

  9
$DIMASO
 70
     1
  9
$DIMSHO
 70
     1
  9
$DIMPOST
  1

  9
$DIMAPOST
  1

  9
$DIMALT
 70
     0
  9
$DIMALTD
 70
     2
  9
$DIMALTF
 40
25.4
  9
$DIMLFAC
 40
1.0
  9
$DIMTOFL
 70
     0
  9
$DIMTVP
 40
0.0
  9
$DIMTIX
 70
     0
  9
$DIMSOXD
 70
     0
  9
$DIMSAH
 70
     0
  9
$DIMBLK1
  1

  9
$DIMBLK2
  1

  9
$DIMSTYLE
  2
Standard
  9
$DIMCLRD
 70
     0
  9
$DIMCLRE
 70
     0
  9
$DIMCLRT
 70
     0
  9
$DIMTFAC
 40
1.0
  9
$DIMGAP
 40
0.09
  9
$DIMJUST
 70
     0
  9
$DIMSD1
 70
     0
  9
$DIMSD2
 70
     0
  9
$DIMTOLJ
 70
     1
  9
$DIMTZIN
 70
     0
  9
$DIMALTZ
 70
     0
  9
$DIMALTTZ
 70
     0
  9
$DIMUPT
 70
     0
  9
$DIMDEC
 70
     4
  9
$DIMTDEC
 70
     4
  9
$DIMALTU
 70
     2
  9
$DIMALTTD
 70
     2
  9
$DIMTXSTY
  7
Standard
  9
$DIMAUNIT
 70
     0
  9
$DIMADEC
 70
     0
  9
$DIMALTRND
 40
0.0
  9
$DIMAZIN
 70
     0
  9
$DIMDSEP
 70
    46
  9
$DIMATFIT
 70
     3
  9
$DIMFRAC
 70
     0
  9
$DIMLDRBLK
  1

  9
$DIMLUNIT
 70
     2
  9
$DIMLWD
 70
    -2
  9
$DIMLWE
 70
    -2
  9
$DIMTMOVE
 70
     0
  9
$DIMFXL
 40
1.0
  9
$DIMFXLON
 70
     0
  9
$DIMJOGANG
 40
0.7853981633974483
  9
$DIMTFILL
 70
     0
  9
$DIMTFILLCLR
 70
     0
  9
$DIMARCSYM
 70
     0
  9
$DIMLTYPE
  6

  9
$DIMLTEX1
  6

  9
$DIMLTEX2
  6

  9
$LUNITS
 70
     2
  9
$LUPREC
 70
     4
  9
$SKETCHINC
 40
0.1
  9
$FILLETRAD
 40
0.5
  9
$AUNITS
 70
     0
  9
$AUPREC
 70
     0
  9
$MENU
  1
.
  9
$ELEVATION
 40
0.0
  9
$PELEVATION
 40
0.0
  9
$THICKNESS
 40
0.0
  9
$LIMCHECK
 70
     0
  9
$CHAMFERA
 40
0.5
  9
$CHAMFERB
 40
0.5
  9
$CHAMFERC
 40
1.0
  9
$CHAMFERD
 40
0.0
  9
$SKPOLY
 70
     0
  9
$TDCREATE
 40
2460554.862284722
  9
$TDUCREATE
 40
2460554.820618056
  9
$TDUPDATE
 40
2460554.862284734
  9
$TDUUPDATE
 40
2460554.820618067
  9
$TDINDWG
 40
0.0000000116
  9
$TDUSRTIMER
 40
0.0000000116
  9
$USRTIMER
 70
     1
  9
$ANGBASE
 50
0.0
  9
$ANGDIR
 70
     0
  9
$PDMODE
 70
     0
  9
$PDSIZE
 40
0.0
  9
$PLINEWID
 40
0.0
  9
$SPLFRAME
 70
     0
  9
$SPLINETYPE
 70
     6
  9
$SPLINESEGS
 70
     8
  9
$HANDSEED
  5
65
  9
$SURFTAB1
 70
     6
  9
$SURFTAB2
 70
     6
  9
$SURFTYPE
 70
     6
  9
$SURFU
 70
     6
  9
$SURFV
 70
     6
  9
$UCSBASE
  2

  9
$UCSNAME
  2

  9
$UCSORG
 10
0.0
 20
0.0
 30
0.0
  9
$UCSXDIR
 10
1.0
 20
0.0
 30
0.0
  9
$UCSYDIR
 10
0.0
 20
1.0
 30
0.0
  9
$UCSORTHOREF
  2

  9
$UCSORTHOVIEW
 70
     0
  9
$UCSORGTOP
 10
0.0
 20
0.0
 30
0.0
  9
$UCSORGBOTTOM
 10
0.0
 20
0.0
 30
0.0
  9
$UCSORGLEFT
 10
0.0
 20
0.0
 30
0.0
  9
$UCSORGRIGHT
 10
0.0
 20
0.0
 30
0.0
  9
$UCSORGFRONT
 10
0.0
 20
0.0
 30
0.0
  9
$UCSORGBACK
 10
0.0
 20
0.0
 30
0.0
  9
$PUCSBASE
  2

  9
$PUCSNAME
  2

  9
$PUCSORG
 10
0.0
 20
0.0
 30
0.0
  9
$PUCSXDIR
 10
1.0
 20
0.0
 30
0.0
  9
$PUCSYDIR
 10
0.0
 20
1.0
 30
0.0
  9
$PUCSORTHOREF
  2

  9
$PUCSORTHOVIEW
 70
     0
  9
$PUCSORGTOP
 10
0.0
 20
0.0
 30
0.0
  9
$PUCSORGBOTTOM
 10
0.0
 20
0.0
 30
0.0
  9
$PUCSORGLEFT
 10
0.0
 20
0.0
 30
0.0
  9
$PUCSORGRIGHT
 10
0.0
 20
0.0
 30
0.0
  9
$PUCSORGFRONT
 10
0.0
 20
0.0
 30
0.0
  9
$PUCSORGBACK
 10
0.0
 20
0.0
 30
0.0
  9
$USERI1
 70
     0
  9
$USERI2
 70
     0
  9
$USERI3
 70
     0
  9
$USERI4
 70
     0
  9
$USERI5
 70
     0
  9
$USERR1
 40
0.0
  9
$USERR2
 40
0.0
  9
$USERR3
 40
0.0
  9
$USERR4
 40
0.0
  9
$USERR5
 40
0.0
  9
$WORLDVIEW
 70
     1
  9
$SHADEDGE
 70
     3
  9
$SHADEDIF
 70
    70
  9
$TILEMODE
 70
     1
  9
$MAXACTVP
 70
    64
  9
$PINSBASE
 10
0.0
 20
0.0
 30
0.0
  9
$PLIMCHECK
 70
     0
  9
$PEXTMIN
 10
1.000000000000000E+20
 20
1.000000000000000E+20
 30
1.000000000000000E+20
  9
$PEXTMAX
 10
-1.000000000000000E+20
 20
-1.000000000000000E+20
 30
-1.000000000000000E+20
  9
$PLIMMIN
 10
0.0
 20
0.0
  9
$PLIMMAX
 10
12.0
 20
9.0
  9
$UNITMODE
 70
     0
  9
$VISRETAIN
 70
     1
  9
$PLINEGEN
 70
     0
  9
$PSLTSCALE
 70
     1
  9
$TREEDEPTH
 70
  3020
  9
$CMLSTYLE
  2
Standard
  9
$CMLJUST
 70
     0
  9
$CMLSCALE
 40
1.0
  9
$PROXYGRAPHICS
 70
     1
  9
$MEASUREMENT
 70
     0
  9
$CELWEIGHT
370
    -1
  9
$ENDCAPS
280
     0
  9
$JOINSTYLE
280
     0
  9
$LWDISPLAY
290
     0
  9
$INSUNITS
 70
     5
  9
$HYPERLINKBASE
  1

  9
$STYLESHEET
  1

  9
$XEDIT
290
     1
  9
$CEPSNTYPE
380
     0
  9
$PSTYLEMODE
290
     1
  9
$FINGERPRINTGUID
  2
{BFD4E3B3-43B6-4610-82C5-649D01705B30}
  9
$VERSIONGUID
  2
{FAEB1C32-E019-11D5-929B-00C0DF256EC4}
  9
$EXTNAMES
290
     1
  9
$PSVPSCALE
 40
0.0
  9
$OLESTARTUP
290
     0
  9
$SORTENTS
280
   127
  9
$INDEXCTL
280
     0
  9
$HIDETEXT
280
     1
  9
$XCLIPFRAME
290
     0
  9
$HALOGAP
280
     0
  9
$OBSCOLOR
 70
   257
  9
$OBSLTYPE
280
     0
  9
$INTERSECTIONDISPLAY
280
     0
  9
$INTERSECTIONCOLOR
 70
   257
  9
$DIMASSOC
280
     2
  9
$PROJECTNAME
  1

  9
$CAMERADISPLAY
290
     0
  9
$LENSLENGTH
 40
50.0
  9
$CAMERAHEIGHT
 40
0.0
  9
$STEPSPERSEC
 40
2.0
  9
$STEPSIZE
 40
6.0
  9
$3DDWFPREC
 40
2.0
  9
$PSOLWIDTH
 40
0.25
  9
$PSOLHEIGHT
 40
4.0
  9
$LOFTANG1
 40
1.570796326794897
  9
$LOFTANG2
 40
1.570796326794897
  9
$LOFTMAG1
 40
0.0
  9
$LOFTMAG2
 40
0.0
  9
$LOFTPARAM
 70
     7
  9
$LOFTNORMALS
280
     1
  9
$LATITUDE
 40
37.795
  9
$LONGITUDE
 40
-122.394
  9
$NORTHDIRECTION
 40
0.0
  9
$TIMEZONE
 70
 -8000
  9
$LIGHTGLYPHDISPLAY
280
     1
  9
$TILEMODELIGHTSYNCH
280
     1
  9
$SOLIDHIST
280
     1
  9
$SHOWHIST
280
     1
  9
$DWFFRAME
280
     2
  9
$DGNFRAME
280
     2
  9
$REALWORLDSCALE
290
     1
  9
$INTERFERECOLOR
 62
   256
  9
$CSHADOW
280
     0
  9
$SHADOWPLANELOCATION
 40
0.0
  0
ENDSEC
  0
SECTION
  2
CLASSES
  0
CLASS
  1
ACDBDICTIONARYWDFLT
  2
AcDbDictionaryWithDefault
  3
ObjectDBX Classes
 90
        0
 91
        4
280
     0
281
     0
  0
CLASS
  1
VISUALSTYLE
  2
AcDbVisualStyle
  3
ObjectDBX Classes
 90
     4095
 91
        4
280
     0
281
     0
  0
CLASS
  1
MATERIAL
  2
AcDbMaterial
  3
ObjectDBX Classes
 90
     1153
 91
        4
280
     0
281
     0
  0
ENDSEC
  0
SECTION
  2
TABLES
  0
TABLE
  2
VPORT
  5
8
330
0
100
AcDbSymbolTable
 70
     1
  0
VPORT
  5
29
330
8
100
AcDbSymbolTableRecord
100
AcDbViewportTableRecord
  2
*Active
 70
     0
 10
0.0
 20
0.0
 11
1.0
 21
1.0
 12
10.42990654205607
 22
4.5
 13
0.0
 23
0.0
 14
0.5
 24
0.5
 15
0.5
 25
0.5
 16
0.0
 26
0.0
 36
1.0
 17
0.0
 27
0.0
 37
0.0
 40
9.0
 41
1.972972972850329
 42
50.0
 43
0.0
 44
0.0
 50
0.0
 51
0.0
 71
     0
 72
   100
 73
     1
 74
     3
 75
     0
 76
     0
 77
     0
 78
     0
281
     0
 65
     1
110
0.0
120
0.0
130
0.0
111
1.0
121
0.0
131
0.0
112
0.0
122
1.0
132
0.0
 79
     0
146
0.0
 60
     3
 61
     5
292
     1
282
     1
141
0.0
142
0.0
 63
   250
  0
ENDTAB
  0
TABLE
  2
LTYPE
  5
5
330
0
100
AcDbSymbolTable
 70
     1
  0
LTYPE
  5
14
330
5
100
AcDbSymbolTableRecord
100
AcDbLinetypeTableRecord
  2
ByBlock
 70
     0
  3

 72
    65
 73
     0
 40
0.0
  0
LTYPE
  5
15
330
5
100
AcDbSymbolTableRecord
100
AcDbLinetypeTableRecord
  2
ByLayer
 70
     0
  3

 72
    65
 73
     0
 40
0.0
  0
LTYPE
  5
16
330
5
100
AcDbSymbolTableRecord
100
AcDbLinetypeTableRecord
  2
Continuous
 70
     0
  3
Solid line
 72
    65
 73
     0
 40
0.0
  0
ENDTAB
  0
TABLE
  2
LAYER
  5
2
330
0
100
AcDbSymbolTable
 70
     2
  0
LAYER
  5
10
330
2
100
AcDbSymbolTableRecord
100
AcDbLayerTableRecord
  2
0
 70
     0
 62
     7
  6
Continuous
370
    -3
390
F
347
3E
  0
LAYER
  5
40
330
2
100
AcDbSymbolTableRecord
100
AcDbLayerTableRecord
  2
Layer 1
 70
     0
 62
     7
  6
Continuous
370
    -3
390
F
347
3E
  0
ENDTAB
  0
TABLE
  2
STYLE
  5
3
330
0
100
AcDbSymbolTable
 70
     1
  0
STYLE
  5
11
330
3
100
AcDbSymbolTableRecord
100
AcDbTextStyleTableRecord
  2
Standard
 70
     0
 40
0.0
 41
1.0
 50
0.0
 71
     0
 42
0.2
  3
txt
  4

  0
ENDTAB
  0
TABLE
  2
VIEW
  5
6
330
0
100
AcDbSymbolTable
 70
     0
  0
ENDTAB
  0
TABLE
  2
UCS
  5
7
330
0
100
AcDbSymbolTable
 70
     0
  0
ENDTAB
  0
TABLE
  2
APPID
  5
9
330
0
100
AcDbSymbolTable
 70
     2
  0
APPID
  5
12
330
9
100
AcDbSymbolTableRecord
100
AcDbRegAppTableRecord
  2
ACAD
 70
     0
  0
APPID
  5
3F
330
9
100
AcDbSymbolTableRecord
100
AcDbRegAppTableRecord
  2
ODA
 70
     0
  0
ENDTAB
  0
TABLE
  2
DIMSTYLE
  5
A
330
0
100
AcDbSymbolTable
 70
     1
100
AcDbDimStyleTable
  0
DIMSTYLE
105
27
330
A
100
AcDbSymbolTableRecord
100
AcDbDimStyleTableRecord
  2
Standard
 70
     0
178
     0
340
11
  0
ENDTAB
  0
TABLE
  2
BLOCK_RECORD
  5
1
330
0
100
AcDbSymbolTable
 70
     1
  0
BLOCK_RECORD
  5
1F
330
1
100
AcDbSymbolTableRecord
100
AcDbBlockTableRecord
  2
*Model_Space
340
22
 70
     0
280
     1
281
     0
  0
BLOCK_RECORD
  5
1B
330
1
100
AcDbSymbolTableRecord
100
AcDbBlockTableRecord
  2
*Paper_Space
340
1E
 70
     0
280
     1
281
     0
  0
BLOCK_RECORD
  5
23
330
1
100
AcDbSymbolTableRecord
100
AcDbBlockTableRecord
  2
*Paper_Space0
340
26
 70
     0
280
     1
281
     0
  0
ENDTAB
  0
ENDSEC
  0
SECTION
  2
BLOCKS
  0
BLOCK
  5
20
330
1F
100
AcDbEntity
  8
0
100
AcDbBlockBegin
  2
*Model_Space
 70
     0
 10
0.0
 20
0.0
 30
0.0
  3
*Model_Space
  1

  0
ENDBLK
  5
21
330
1F
100
AcDbEntity
  8
0
100
AcDbBlockEnd
  0
BLOCK
  5
1C
330
1B
100
AcDbEntity
 67
     1
  8
0
100
AcDbBlockBegin
  2
*Paper_Space
 70
     0
 10
0.0
 20
0.0
 30
0.0
  3
*Paper_Space
  1

  0
ENDBLK
  5
1D
330
1B
100
AcDbEntity
 67
     1
  8
0
100
AcDbBlockEnd
  0
BLOCK
  5
24
330
23
100
AcDbEntity
  8
0
100
AcDbBlockBegin
  2
*Paper_Space0
 70
     0
 10
0.0
 20
0.0
 30
0.0
  3
*Paper_Space0
  1

  0
ENDBLK
  5
25
330
23
100
AcDbEntity
  8
0
100
AcDbBlockEnd
  0
ENDSEC
  0
SECTION
  2
ENTITIES
  0
SPLINE
  5
41
330
1F
100
AcDbEntity
  8
Layer 1
 62
     5
100
AcDbSpline
210
0.0
220
0.0
230
1.0
 70
    11
 71
     3
 72
   572
 73
   568
 74
     0
 42
0.0000000001
 43
0.0000000001
 12
1.0
 22
0.0
 32
0.0
 13
1.0
 23
0.0
 33
0.0
 40
0.0
 40
0.0
 40
0.0
 40
0.0
 40
0.006993006993007
 40
0.006993006993007
 40
0.006993006993007
 40
0.006993006993007
 40
0.013986013986014
 40
0.013986013986014
 40
0.013986013986014
 40
0.013986013986014
 40
0.020979020979021
 40
0.020979020979021
 40
0.020979020979021
 40
0.020979020979021
 40
0.027972027972028
 40
0.027972027972028
 40
0.027972027972028
 40
0.027972027972028
 40
0.034965034965035
 40
0.034965034965035
 40
0.034965034965035
 40
0.034965034965035
 40
0.041958041958042
 40
0.041958041958042
 40
0.041958041958042
 40
0.041958041958042
 40
0.048951048951049
 40
0.048951048951049
 40
0.048951048951049
 40
0.048951048951049
 40
0.0559440559440559
 40
0.0559440559440559
 40
0.0559440559440559
 40
0.0559440559440559
 40
0.0629370629370629
 40
0.0629370629370629
 40
0.0629370629370629
 40
0.0629370629370629
 40
0.0699300699300699
 40
0.0699300699300699
 40
0.0699300699300699
 40
0.0699300699300699
 40
0.0769230769230769
 40
0.0769230769230769
 40
0.0769230769230769
 40
0.0769230769230769
 40
0.0839160839160839
 40
0.0839160839160839
 40
0.0839160839160839
 40
0.0839160839160839
 40
0.0909090909090909
 40
0.0909090909090909
 40
0.0909090909090909
 40
0.0909090909090909
 40
0.0979020979020979
 40
0.0979020979020979
 40
0.0979020979020979
 40
0.0979020979020979
 40
0.1048951048951049
 40
0.1048951048951049
 40
0.1048951048951049
 40
0.1048951048951049
 40
0.1118881118881119
 40
0.1118881118881119
 40
0.1118881118881119
 40
0.1118881118881119
 40
0.1188811188811189
 40
0.1188811188811189
 40
0.1188811188811189
 40
0.1188811188811189
 40
0.1258741258741259
 40
0.1258741258741259
 40
0.1258741258741259
 40
0.1258741258741259
 40
0.1328671328671329
 40
0.1328671328671329
 40
0.1328671328671329
 40
0.1328671328671329
 40
0.1398601398601399
 40
0.1398601398601399
 40
0.1398601398601399
 40
0.1398601398601399
 40
0.1468531468531468
 40
0.1468531468531468
 40
0.1468531468531468
 40
0.1468531468531468
 40
0.1538461538461539
 40
0.1538461538461539
 40
0.1538461538461539
 40
0.1538461538461539
 40
0.1608391608391608
 40
0.1608391608391608
 40
0.1608391608391608
 40
0.1608391608391608
 40
0.1678321678321678
 40
0.1678321678321678
 40
0.1678321678321678
 40
0.1678321678321678
 40
0.1748251748251748
 40
0.1748251748251748
 40
0.1748251748251748
 40
0.1748251748251748
 40
0.1818181818181818
 40
0.1818181818181818
 40
0.1818181818181818
 40
0.1818181818181818
 40
0.1888111888111888
 40
0.1888111888111888
 40
0.1888111888111888
 40
0.1888111888111888
 40
0.1958041958041958
 40
0.1958041958041958
 40
0.1958041958041958
 40
0.1958041958041958
 40
0.2027972027972028
 40
0.2027972027972028
 40
0.2027972027972028
 40
0.2027972027972028
 40
0.2097902097902098
 40
0.2097902097902098
 40
0.2097902097902098
 40
0.2097902097902098
 40
0.2167832167832168
 40
0.2167832167832168
 40
0.2167832167832168
 40
0.2167832167832168
 40
0.2237762237762238
 40
0.2237762237762238
 40
0.2237762237762238
 40
0.2237762237762238
 40
0.2307692307692308
 40
0.2307692307692308
 40
0.2307692307692308
 40
0.2307692307692308
 40
0.2377622377622378
 40
0.2377622377622378
 40
0.2377622377622378
 40
0.2377622377622378
 40
0.2447552447552448
 40
0.2447552447552448
 40
0.2447552447552448
 40
0.2447552447552448
 40
0.2517482517482518
 40
0.2517482517482518
 40
0.2517482517482518
 40
0.2517482517482518
 40
0.2587412587412588
 40
0.2587412587412588
 40
0.2587412587412588
 40
0.2587412587412588
 40
0.2657342657342657
 40
0.2657342657342657
 40
0.2657342657342657
 40
0.2657342657342657
 40
0.2727272727272727
 40
0.2727272727272727
 40
0.2727272727272727
 40
0.2727272727272727
 40
0.2797202797202797
 40
0.2797202797202797
 40
0.2797202797202797
 40
0.2797202797202797
 40
0.2867132867132867
 40
0.2867132867132867
 40
0.2867132867132867
 40
0.2867132867132867
 40
0.2937062937062937
 40
0.2937062937062937
 40
0.2937062937062937
 40
0.2937062937062937
 40
0.3006993006993007
 40
0.3006993006993007
 40
0.3006993006993007
 40
0.3006993006993007
 40
0.3076923076923077
 40
0.3076923076923077
 40
0.3076923076923077
 40
0.3076923076923077
 40
0.3146853146853147
 40
0.3146853146853147
 40
0.3146853146853147
 40
0.3146853146853147
 40
0.3216783216783217
 40
0.3216783216783217
 40
0.3216783216783217
 40
0.3216783216783217
 40
0.3286713286713286
 40
0.3286713286713286
 40
0.3286713286713286
 40
0.3286713286713286
 40
0.3356643356643357
 40
0.3356643356643357
 40
0.3356643356643357
 40
0.3356643356643357
 40
0.3426573426573427
 40
0.3426573426573427
 40
0.3426573426573427
 40
0.3426573426573427
 40
0.3496503496503496
 40
0.3496503496503496
 40
0.3496503496503496
 40
0.3496503496503496
 40
0.3566433566433567
 40
0.3566433566433567
 40
0.3566433566433567
 40
0.3566433566433567
 40
0.3636363636363636
 40
0.3636363636363636
 40
0.3636363636363636
 40
0.3636363636363636
 40
0.3706293706293706
 40
0.3706293706293706
 40
0.3706293706293706
 40
0.3706293706293706
 40
0.3776223776223776
 40
0.3776223776223776
 40
0.3776223776223776
 40
0.3776223776223776
 40
0.3846153846153846
 40
0.3846153846153846
 40
0.3846153846153846
 40
0.3846153846153846
 40
0.3916083916083916
 40
0.3916083916083916
 40
0.3916083916083916
 40
0.3916083916083916
 40
0.3986013986013986
 40
0.3986013986013986
 40
0.3986013986013986
 40
0.3986013986013986
 40
0.4055944055944056
 40
0.4055944055944056
 40
0.4055944055944056
 40
0.4055944055944056
 40
0.4125874125874126
 40
0.4125874125874126
 40
0.4125874125874126
 40
0.4125874125874126
 40
0.4195804195804196
 40
0.4195804195804196
 40
0.4195804195804196
 40
0.4195804195804196
 40
0.4265734265734266
 40
0.4265734265734266
 40
0.4265734265734266
 40
0.4265734265734266
 40
0.4335664335664335
 40
0.4335664335664335
 40
0.4335664335664335
 40
0.4335664335664335
 40
0.4405594405594406
 40
0.4405594405594406
 40
0.4405594405594406
 40
0.4405594405594406
 40
0.4475524475524476
 40
0.4475524475524476
 40
0.4475524475524476
 40
0.4475524475524476
 40
0.4545454545454545
 40
0.4545454545454545
 40
0.4545454545454545
 40
0.4545454545454545
 40
0.4615384615384616
 40
0.4615384615384616
 40
0.4615384615384616
 40
0.4615384615384616
 40
0.4685314685314685
 40
0.4685314685314685
 40
0.4685314685314685
 40
0.4685314685314685
 40
0.4755244755244755
 40
0.4755244755244755
 40
0.4755244755244755
 40
0.4755244755244755
 40
0.4825174825174825
 40
0.4825174825174825
 40
0.4825174825174825
 40
0.4825174825174825
 40
0.4895104895104895
 40
0.4895104895104895
 40
0.4895104895104895
 40
0.4895104895104895
 40
0.4965034965034965
 40
0.4965034965034965
 40
0.4965034965034965
 40
0.4965034965034965
 40
0.5034965034965035
 40
0.5034965034965035
 40
0.5034965034965035
 40
0.5034965034965035
 40
0.5104895104895105
 40
0.5104895104895105
 40
0.5104895104895105
 40
0.5104895104895105
 40
0.5174825174825175
 40
0.5174825174825175
 40
0.5174825174825175
 40
0.5174825174825175
 40
0.5244755244755245
 40
0.5244755244755245
 40
0.5244755244755245
 40
0.5244755244755245
 40
0.5314685314685315
 40
0.5314685314685315
 40
0.5314685314685315
 40
0.5314685314685315
 40
0.5384615384615384
 40
0.5384615384615384
 40
0.5384615384615384
 40
0.5384615384615384
 40
0.5454545454545454
 40
0.5454545454545454
 40
0.5454545454545454
 40
0.5454545454545454
 40
0.5524475524475524
 40
0.5524475524475524
 40
0.5524475524475524
 40
0.5524475524475524
 40
0.5594405594405595
 40
0.5594405594405595
 40
0.5594405594405595
 40
0.5594405594405595
 40
0.5664335664335665
 40
0.5664335664335665
 40
0.5664335664335665
 40
0.5664335664335665
 40
0.5734265734265734
 40
0.5734265734265734
 40
0.5734265734265734
 40
0.5734265734265734
 40
0.5804195804195804
 40
0.5804195804195804
 40
0.5804195804195804
 40
0.5804195804195804
 40
0.5874125874125874
 40
0.5874125874125874
 40
0.5874125874125874
 40
0.5874125874125874
 40
0.5944055944055944
 40
0.5944055944055944
 40
0.5944055944055944
 40
0.5944055944055944
 40
0.6013986013986014
 40
0.6013986013986014
 40
0.6013986013986014
 40
0.6013986013986014
 40
0.6083916083916084
 40
0.6083916083916084
 40
0.6083916083916084
 40
0.6083916083916084
 40
0.6153846153846154
 40
0.6153846153846154
 40
0.6153846153846154
 40
0.6153846153846154
 40
0.6223776223776224
 40
0.6223776223776224
 40
0.6223776223776224
 40
0.6223776223776224
 40
0.6293706293706294
 40
0.6293706293706294
 40
0.6293706293706294
 40
0.6293706293706294
 40
0.6363636363636364
 40
0.6363636363636364
 40
0.6363636363636364
 40
0.6363636363636364
 40
0.6433566433566433
 40
0.6433566433566433
 40
0.6433566433566433
 40
0.6433566433566433
 40
0.6503496503496503
 40
0.6503496503496503
 40
0.6503496503496503
 40
0.6503496503496503
 40
0.6573426573426573
 40
0.6573426573426573
 40
0.6573426573426573
 40
0.6573426573426573
 40
0.6643356643356644
 40
0.6643356643356644
 40
0.6643356643356644
 40
0.6643356643356644
 40
0.6713286713286714
 40
0.6713286713286714
 40
0.6713286713286714
 40
0.6713286713286714
 40
0.6783216783216783
 40
0.6783216783216783
 40
0.6783216783216783
 40
0.6783216783216783
 40
0.6853146853146853
 40
0.6853146853146853
 40
0.6853146853146853
 40
0.6853146853146853
 40
0.6923076923076923
 40
0.6923076923076923
 40
0.6923076923076923
 40
0.6923076923076923
 40
0.6993006993006993
 40
0.6993006993006993
 40
0.6993006993006993
 40
0.6993006993006993
 40
0.7062937062937062
 40
0.7062937062937062
 40
0.7062937062937062
 40
0.7062937062937062
 40
0.7132867132867133
 40
0.7132867132867133
 40
0.7132867132867133
 40
0.7132867132867133
 40
0.7202797202797203
 40
0.7202797202797203
 40
0.7202797202797203
 40
0.7202797202797203
 40
0.7272727272727273
 40
0.7272727272727273
 40
0.7272727272727273
 40
0.7272727272727273
 40
0.7342657342657343
 40
0.7342657342657343
 40
0.7342657342657343
 40
0.7342657342657343
 40
0.7412587412587412
 40
0.7412587412587412
 40
0.7412587412587412
 40
0.7412587412587412
 40
0.7482517482517482
 40
0.7482517482517482
 40
0.7482517482517482
 40
0.7482517482517482
 40
0.7552447552447552
 40
0.7552447552447552
 40
0.7552447552447552
 40
0.7552447552447552
 40
0.7622377622377622
 40
0.7622377622377622
 40
0.7622377622377622
 40
0.7622377622377622
 40
0.7692307692307693
 40
0.7692307692307693
 40
0.7692307692307693
 40
0.7692307692307693
 40
0.7762237762237763
 40
0.7762237762237763
 40
0.7762237762237763
 40
0.7762237762237763
 40
0.7832167832167832
 40
0.7832167832167832
 40
0.7832167832167832
 40
0.7832167832167832
 40
0.7902097902097902
 40
0.7902097902097902
 40
0.7902097902097902
 40
0.7902097902097902
 40
0.7972027972027972
 40
0.7972027972027972
 40
0.7972027972027972
 40
0.7972027972027972
 40
0.8041958041958042
 40
0.8041958041958042
 40
0.8041958041958042
 40
0.8041958041958042
 40
0.8111888111888111
 40
0.8111888111888111
 40
0.8111888111888111
 40
0.8111888111888111
 40
0.8181818181818182
 40
0.8181818181818182
 40
0.8181818181818182
 40
0.8181818181818182
 40
0.8251748251748252
 40
0.8251748251748252
 40
0.8251748251748252
 40
0.8251748251748252
 40
0.8321678321678322
 40
0.8321678321678322
 40
0.8321678321678322
 40
0.8321678321678322
 40
0.8391608391608392
 40
0.8391608391608392
 40
0.8391608391608392
 40
0.8391608391608392
 40
0.8461538461538461
 40
0.8461538461538461
 40
0.8461538461538461
 40
0.8461538461538461
 40
0.8531468531468531
 40
0.8531468531468531
 40
0.8531468531468531
 40
0.8531468531468531
 40
0.8601398601398601
 40
0.8601398601398601
 40
0.8601398601398601
 40
0.8601398601398601
 40
0.8671328671328671
 40
0.8671328671328671
 40
0.8671328671328671
 40
0.8671328671328671
 40
0.8741258741258742
 40
0.8741258741258742
 40
0.8741258741258742
 40
0.8741258741258742
 40
0.8811188811188811
 40
0.8811188811188811
 40
0.8811188811188811
 40
0.8811188811188811
 40
0.8881118881118881
 40
0.8881118881118881
 40
0.8881118881118881
 40
0.8881118881118881
 40
0.8951048951048951
 40
0.8951048951048951
 40
0.8951048951048951
 40
0.8951048951048951
 40
0.9020979020979021
 40
0.9020979020979021
 40
0.9020979020979021
 40
0.9020979020979021
 40
0.9090909090909091
 40
0.9090909090909091
 40
0.9090909090909091
 40
0.9090909090909091
 40
0.916083916083916
 40
0.916083916083916
 40
0.916083916083916
 40
0.916083916083916
 40
0.9230769230769231
 40
0.9230769230769231
 40
0.9230769230769231
 40
0.9230769230769231
 40
0.9300699300699301
 40
0.9300699300699301
 40
0.9300699300699301
 40
0.9300699300699301
 40
0.9370629370629371
 40
0.9370629370629371
 40
0.9370629370629371
 40
0.9370629370629371
 40
0.9440559440559441
 40
0.9440559440559441
 40
0.9440559440559441
 40
0.9440559440559441
 40
0.951048951048951
 40
0.951048951048951
 40
0.951048951048951
 40
0.951048951048951
 40
0.958041958041958
 40
0.958041958041958
 40
0.958041958041958
 40
0.958041958041958
 40
0.965034965034965
 40
0.965034965034965
 40
0.965034965034965
 40
0.965034965034965
 40
0.972027972027972
 40
0.972027972027972
 40
0.972027972027972
 40
0.972027972027972
 40
0.9790209790209791
 40
0.9790209790209791
 40
0.9790209790209791
 40
0.9790209790209791
 40
0.986013986013986
 40
0.986013986013986
 40
0.986013986013986
 40
0.986013986013986
 40
1.0
 40
1.0
 40
1.0
 40
1.0
 10
-5.33973
 20
-8.66413
 30
0.0
 10
-5.37688
 20
-8.73224
 30
0.0
 10
-5.41396
 20
-8.81624
 30
0.0
 10
-5.45245
 20
-8.90347
 30
0.0
 10
-5.45245
 20
-8.90347
 30
0.0
 10
-5.51492
 20
-9.04503
 30
0.0
 10
-5.58113
 20
-9.19502
 30
0.0
 10
-5.66548
 20
-9.31544
 30
0.0
 10
-5.66548
 20
-9.31544
 30
0.0
 10
-5.68634
 20
-9.34522
 30
0.0
 10
-5.6849
 20
-9.34348
 30
0.0
 10
-5.7176
 20
-9.39045
 30
0.0
 10
-5.7176
 20
-9.39045
 30
0.0
 10
-5.78675
 20
-9.48983
 30
0.0
 10
-5.85658
 20
-9.59018
 30
0.0
 10
-5.93263
 20
-9.68848
 30
0.0
 10
-5.93263
 20
-9.68848
 30
0.0
 10
-5.97784
 20
-9.82254
 30
0.0
 10
-6.03554
 20
-9.93914
 30
0.0
 10
-6.10572
 20
-10.04848
 30
0.0
 10
-6.10572
 20
-10.04848
 30
0.0
 10
-6.15141
 20
-10.11967
 30
0.0
 10
-6.20226
 20
-10.18753
 30
0.0
 10
-6.25832
 20
-10.255
 30
0.0
 10
-6.25832
 20
-10.255
 30
0.0
 10
-6.10477
 20
-10.21093
 30
0.0
 10
-5.9403
 20
-10.10258
 30
0.0
 10
-5.78529
 20
-9.97306
 30
0.0
 10
-5.78529
 20
-9.97306
 30
0.0
 10
-5.58106
 20
-9.80241
 30
0.0
 10
-5.39444
 20
-9.59543
 30
0.0
 10
-5.26801
 20
-9.4467
 30
0.0
 10
-5.26801
 20
-9.4467
 30
0.0
 10
-5.21345
 20
-9.38255
 30
0.0
 10
-5.16334
 20
-9.30799
 30
0.0
 10
-5.11298
 20
-9.23302
 30
0.0
 10
-5.11298
 20
-9.23302
 30
0.0
 10
-5.0336
 20
-9.11486
 30
0.0
 10
-4.9535
 20
-8.99567
 30
0.0
 10
-4.85169
 20
-8.90749
 30
0.0
 10
-4.85169
 20
-8.90749
 30
0.0
 10
-4.85169
 20
-8.90749
 30
0.0
 10
-4.78645
 20
-8.98289
 30
0.0
 10
-4.78645
 20
-8.98289
 30
0.0
 10
-4.78645
 20
-8.98289
 30
0.0
 10
-4.87826
 20
-9.0624
 30
0.0
 10
-4.95455
 20
-9.17593
 30
0.0
 10
-5.03016
 20
-9.28848
 30
0.0
 10
-5.03016
 20
-9.28848
 30
0.0
 10
-5.08244
 20
-9.36629
 30
0.0
 10
-5.13445
 20
-9.44369
 30
0.0
 10
-5.19183
 20
-9.51116
 30
0.0
 10
-5.19183
 20
-9.51116
 30
0.0
 10
-5.3209
 20
-9.66301
 30
0.0
 10
-5.51164
 20
-9.87449
 30
0.0
 10
-5.72123
 20
-10.04962
 30
0.0
 10
-5.72123
 20
-10.04962
 30
0.0
 10
-5.92828
 20
-10.22262
 30
0.0
 10
-6.15481
 20
-10.36059
 30
0.0
 10
-6.36299
 20
-10.37462
 30
0.0
 10
-6.36299
 20
-10.37462
 30
0.0
 10
-6.37555
 20
-10.38845
 30
0.0
 10
-6.39075
 20
-10.40534
 30
0.0
 10
-6.4066
 20
-10.42297
 30
0.0
 10
-6.4066
 20
-10.42297
 30
0.0
 10
-6.51972
 20
-10.54872
 30
0.0
 10
-6.66432
 20
-10.70947
 30
0.0
 10
-6.82539
 20
-10.82026
 30
0.0
 10
-6.82539
 20
-10.82026
 30
0.0
 10
-6.55135
 20
-10.78323
 30
0.0
 10
-6.29075
 20
-10.71896
 30
0.0
 10
-6.01004
 20
-10.64973
 30
0.0
 10
-6.01004
 20
-10.64973
 30
0.0
 10
-6.01004
 20
-10.64973
 30
0.0
 10
-5.96669
 20
-10.63904
 30
0.0
 10
-5.96669
 20
-10.63904
 30
0.0
 10
-5.96669
 20
-10.63904
 30
0.0
 10
-5.84749
 20
-10.6032
 30
0.0
 10
-5.74252
 20
-10.50456
 30
0.0
 10
-5.64397
 20
-10.41193
 30
0.0
 10
-5.64397
 20
-10.41193
 30
0.0
 10
-5.60704
 20
-10.37723
 30
0.0
 10
-5.57095
 20
-10.3433
 30
0.0
 10
-5.53511
 20
-10.31334
 30
0.0
 10
-5.53511
 20
-10.31334
 30
0.0
 10
-5.43685
 20
-10.23115
 30
0.0
 10
-5.34201
 20
-10.14608
 30
0.0
 10
-5.2499
 20
-10.05877
 30
0.0
 10
-5.2499
 20
-10.05877
 30
0.0
 10
-5.1572
 20
-9.97091
 30
0.0
 10
-5.06697
 20
-9.88058
 30
0.0
 10
-4.97854
 20
-9.78845
 30
0.0
 10
-4.97854
 20
-9.78845
 30
0.0
 10
-4.92132
 20
-9.72884
 30
0.0
 10
-4.86334
 20
-9.66028
 30
0.0
 10
-4.80485
 20
-9.59113
 30
0.0
 10
-4.80485
 20
-9.59113
 30
0.0
 10
-4.70879
 20
-9.47755
 30
0.0
 10
-4.61126
 20
-9.36224
 30
0.0
 10
-4.5058
 20
-9.27346
 30
0.0
 10
-4.5058
 20
-9.27346
 30
0.0
 10
-4.5058
 20
-9.27346
 30
0.0
 10
-4.44174
 20
-9.34964
 30
0.0
 10
-4.44174
 20
-9.34964
 30
0.0
 10
-4.44174
 20
-9.34964
 30
0.0
 10
-4.53954
 20
-9.43196
 30
0.0
 10
-4.63482
 20
-9.54462
 30
0.0
 10
-4.72867
 20
-9.65559
 30
0.0
 10
-4.72867
 20
-9.65559
 30
0.0
 10
-4.78788
 20
-9.72559
 30
0.0
 10
-4.84656
 20
-9.79498
 30
0.0
 10
-4.90666
 20
-9.85759
 30
0.0
 10
-4.90666
 20
-9.85759
 30
0.0
 10
-4.99619
 20
-9.95086
 30
0.0
 10
-5.08747
 20
-10.04224
 30
0.0
 10
-5.18114
 20
-10.13103
 30
0.0
 10
-5.18114
 20
-10.13103
 30
0.0
 10
-5.27538
 20
-10.22035
 30
0.0
 10
-5.37183
 20
-10.30691
 30
0.0
 10
-5.47105
 20
-10.3899
 30
0.0
 10
-5.47105
 20
-10.3899
 30
0.0
 10
-5.50553
 20
-10.41872
 30
0.0
 10
-5.54017
 20
-10.45129
 30
0.0
 10
-5.57561
 20
-10.48459
 30
0.0
 10
-5.57561
 20
-10.48459
 30
0.0
 10
-5.67621
 20
-10.57915
 30
0.0
 10
-5.78299
 20
-10.6795
 30
0.0
 10
-5.91368
 20
-10.72653
 30
0.0
 10
-5.91368
 20
-10.72653
 30
0.0
 10
-5.96425
 20
-10.88065
 30
0.0
 10
-6.05468
 20
-11.0132
 30
0.0
 10
-6.17067
 20
-11.12512
 30
0.0
 10
-6.17067
 20
-11.12512
 30
0.0
 10
-6.13989
 20
-11.11673
 30
0.0
 10
-6.10971
 20
-11.108
 30
0.0
 10
-6.08098
 20
-11.09817
 30
0.0
 10
-6.08098
 20
-11.09817
 30
0.0
 10
-6.01937
 20
-11.07709
 30
0.0
 10
-5.95744
 20
-11.05475
 30
0.0
 10
-5.89522
 20
-11.03096
 30
0.0
 10
-5.89522
 20
-11.03096
 30
0.0
 10
-5.83403
 20
-11.00756
 30
0.0
 10
-5.77306
 20
-10.98286
 30
0.0
 10
-5.71246
 20
-10.95671
 30
0.0
 10
-5.71246
 20
-10.95671
 30
0.0
 10
-5.59052
 20
-10.90406
 30
0.0
 10
-5.47101
 20
-10.8458
 30
0.0
 10
-5.35563
 20
-10.78097
 30
0.0
 10
-5.35563
 20
-10.78097
 30
0.0
 10
-5.2405
 20
-10.71627
 30
0.0
 10
-5.12909
 20
-10.6448
 30
0.0
 10
-5.02295
 20
-10.56553
 30
0.0
 10
-5.02295
 20
-10.56553
 30
0.0
 10
-4.81452
 20
-10.40989
 30
0.0
 10
-4.6182
 20
-10.23983
 30
0.0
 10
-4.42234
 20
-10.07016
 30
0.0
 10
-4.42234
 20
-10.07016
 30
0.0
 10
-4.36101
 20
-10.01703
 30
0.0
 10
-4.29972
 20
-9.96393
 30
0.0
 10
-4.24034
 20
-9.9132
 30
0.0
 10
-4.24034
 20
-9.9132
 30
0.0
 10
-4.24034
 20
-9.9132
 30
0.0
 10
-4.1755
 20
-9.98898
 30
0.0
 10
-4.1755
 20
-9.98898
 30
0.0
 10
-4.1755
 20
-9.98898
 30
0.0
 10
-4.23765
 20
-10.04208
 30
0.0
 10
-4.29737
 20
-10.09382
 30
0.0
 10
-4.3571
 20
-10.14556
 30
0.0
 10
-4.3571
 20
-10.14556
 30
0.0
 10
-4.55542
 20
-10.31736
 30
0.0
 10
-4.7542
 20
-10.48955
 30
0.0
 10
-4.96319
 20
-10.64561
 30
0.0
 10
-4.96319
 20
-10.64561
 30
0.0
 10
-5.07257
 20
-10.7273
 30
0.0
 10
-5.18767
 20
-10.80112
 30
0.0
 10
-5.30681
 20
-10.86807
 30
0.0
 10
-5.30681
 20
-10.86807
 30
0.0
 10
-5.42569
 20
-10.93487
 30
0.0
 10
-5.5483
 20
-10.99467
 30
0.0
 10
-5.673
 20
-11.04851
 30
0.0
 10
-5.673
 20
-11.04851
 30
0.0
 10
-5.73446
 20
-11.07503
 30
0.0
 10
-5.79675
 20
-11.10025
 30
0.0
 10
-5.85968
 20
-11.12432
 30
0.0
 10
-5.85968
 20
-11.12432
 30
0.0
 10
-5.9216
 20
-11.148
 30
0.0
 10
-5.98479
 20
-11.17076
 30
0.0
 10
-6.04894
 20
-11.19271
 30
0.0
 10
-6.04894
 20
-11.19271
 30
0.0
 10
-6.09522
 20
-11.20854
 30
0.0
 10
-6.14454
 20
-11.22155
 30
0.0
 10
-6.19428
 20
-11.23465
 30
0.0
 10
-6.19428
 20
-11.23465
 30
0.0
 10
-6.26189
 20
-11.25247
 30
0.0
 10
-6.3304
 20
-11.27052
 30
0.0
 10
-6.39043
 20
-11.29605
 30
0.0
 10
-6.39043
 20
-11.29605
 30
0.0
 10
-6.41633
 20
-11.31243
 30
0.0
 10
-6.44279
 20
-11.32813
 30
0.0
 10
-6.46978
 20
-11.34314
 30
0.0
 10
-6.46978
 20
-11.34314
 30
0.0
 10
-6.71301
 20
-11.47844
 30
0.0
 10
-6.99811
 20
-11.55885
 30
0.0
 10
-7.2573
 20
-11.58837
 30
0.0
 10
-7.2573
 20
-11.58837
 30
0.0
 10
-7.17567
 20
-11.61137
 30
0.0
 10
-7.08887
 20
-11.63051
 30
0.0
 10
-7.00027
 20
-11.64641
 30
0.0
 10
-7.00027
 20
-11.64641
 30
0.0
 10
-6.76275
 20
-11.68903
 30
0.0
 10
-6.51241
 20
-11.70837
 30
0.0
 10
-6.31267
 20
-11.71627
 30
0.0
 10
-6.31267
 20
-11.71627
 30
0.0
 10
-6.2938
 20
-11.71255
 30
0.0
 10
-6.2758
 20
-11.70857
 30
0.0
 10
-6.25861
 20
-11.70439
 30
0.0
 10
-6.25861
 20
-11.70439
 30
0.0
 10
-6.24087
 20
-11.70008
 30
0.0
 10
-6.2211
 20
-11.69478
 30
0.0
 10
-6.19963
 20
-11.68864
 30
0.0
 10
-6.19963
 20
-11.68864
 30
0.0
 10
-6.14711
 20
-11.67364
 30
0.0
 10
-6.09648
 20
-11.65445
 30
0.0
 10
-6.04585
 20
-11.63526
 30
0.0
 10
-6.04585
 20
-11.63526
 30
0.0
 10
-6.02436
 20
-11.62712
 30
0.0
 10
-6.00292
 20
-11.61899
 30
0.0
 10
-5.97422
 20
-11.60868
 30
0.0
 10
-5.97422
 20
-11.60868
 30
0.0
 10
-5.81521
 20
-11.55154
 30
0.0
 10
-5.65814
 20
-11.48591
 30
0.0
 10
-5.50454
 20
-11.41093
 30
0.0
 10
-5.50454
 20
-11.41093
 30
0.0
 10
-5.35858
 20
-11.33969
 30
0.0
 10
-5.21721
 20
-11.26065
 30
0.0
 10
-5.08194
 20
-11.17317
 30
0.0
 10
-5.08194
 20
-11.17317
 30
0.0
 10
-5.05384
 20
-11.15499
 30
0.0
 10
-5.03679
 20
-11.14378
 30
0.0
 10
-5.01997
 20
-11.13273
 30
0.0
 10
-5.01997
 20
-11.13273
 30
0.0
 10
-4.92388
 20
-11.06956
 30
0.0
 10
-4.82935
 20
-11.00741
 30
0.0
 10
-4.72378
 20
-10.95937
 30
0.0
 10
-4.72378
 20
-10.95937
 30
0.0
 10
-4.72378
 20
-10.95937
 30
0.0
 10
-4.68238
 20
-11.05039
 30
0.0
 10
-4.68238
 20
-11.05039
 30
0.0
 10
-4.68238
 20
-11.05039
 30
0.0
 10
-4.78345
 20
-11.09638
 30
0.0
 10
-4.87363
 20
-11.15567
 30
0.0
 10
-4.96529
 20
-11.21593
 30
0.0
 10
-4.96529
 20
-11.21593
 30
0.0
 10
-4.98965
 20
-11.23194
 30
0.0
 10
-5.01401
 20
-11.24795
 30
0.0
 10
-5.02764
 20
-11.25677
 30
0.0
 10
-5.02764
 20
-11.25677
 30
0.0
 10
-5.16761
 20
-11.34729
 30
0.0
 10
-5.31245
 20
-11.42838
 30
0.0
 10
-5.46078
 20
-11.50077
 30
0.0
 10
-5.46078
 20
-11.50077
 30
0.0
 10
-5.61581
 20
-11.57644
 30
0.0
 10
-5.77637
 20
-11.64342
 30
0.0
 10
-5.94062
 20
-11.70244
 30
0.0
 10
-5.94062
 20
-11.70244
 30
0.0
 10
-5.95937
 20
-11.70917
 30
0.0
 10
-5.9851
 20
-11.71893
 30
0.0
 10
-6.01069
 20
-11.72862
 30
0.0
 10
-6.01069
 20
-11.72862
 30
0.0
 10
-6.06404
 20
-11.74884
 30
0.0
 10
-6.11737
 20
-11.76905
 30
0.0
 10
-6.17229
 20
-11.78474
 30
0.0
 10
-6.17229
 20
-11.78474
 30
0.0
 10
-6.19122
 20
-11.79015
 30
0.0
 10
-6.21211
 20
-11.79567
 30
0.0
 10
-6.23517
 20
-11.80127
 30
0.0
 10
-6.23517
 20
-11.80127
 30
0.0
 10
-6.25117
 20
-11.80516
 30
0.0
 10
-6.26679
 20
-11.80871
 30
0.0
 10
-6.28197
 20
-11.81188
 30
0.0
 10
-6.28197
 20
-11.81188
 30
0.0
 10
-6.3527
 20
-11.89163
 30
0.0
 10
-6.43862
 20
-11.95826
 30
0.0
 10
-6.53182
 20
-12.01328
 30
0.0
 10
-6.53182
 20
-12.01328
 30
0.0
 10
-6.61853
 20
-12.06448
 30
0.0
 10
-6.71174
 20
-12.10575
 30
0.0
 10
-6.80488
 20
-12.13826
 30
0.0
 10
-6.80488
 20
-12.13826
 30
0.0
 10
-6.64206
 20
-12.1758
 30
0.0
 10
-6.45057
 20
-12.18002
 30
0.0
 10
-6.2585
 20
-12.16726
 30
0.0
 10
-6.2585
 20
-12.16726
 30
0.0
 10
-6.2585
 20
-12.16726
 30
0.0
 10
-6.2585
 20
-12.16725
 30
0.0
 10
-6.2585
 20
-12.16725
 30
0.0
 10
-6.2585
 20
-12.16725
 30
0.0
 10
-5.9996
 20
-12.15002
 30
0.0
 10
-5.74057
 20
-12.10199
 30
0.0
 10
-5.54687
 20
-12.06241
 30
0.0
 10
-5.54687
 20
-12.06241
 30
0.0
 10
-5.54687
 20
-12.06241
 30
0.0
 10
-5.52695
 20
-12.16007
 30
0.0
 10
-5.52695
 20
-12.16007
 30
0.0
 10
-5.52695
 20
-12.16007
 30
0.0
 10
-5.72422
 20
-12.20038
 30
0.0
 10
-5.98803
 20
-12.24929
 30
0.0
 10
-6.25186
 20
-12.26685
 30
0.0
 10
-6.25186
 20
-12.26685
 30
0.0
 10
-6.25186
 20
-12.26685
 30
0.0
 10
-6.25205
 20
-12.26685
 30
0.0
 10
-6.25205
 20
-12.26685
 30
0.0
 10
-6.25205
 20
-12.26685
 30
0.0
 10
-6.51343
 20
-12.28424
 30
0.0
 10
-6.77576
 20
-12.2709
 30
0.0
 10
-6.97747
 20
-12.18886
 30
0.0
 10
-6.97747
 20
-12.18886
 30
0.0
 10
-7.07846
 20
-12.21265
 30
0.0
 10
-7.18539
 20
-12.22721
 30
0.0
 10
-7.29117
 20
-12.22483
 30
0.0
 10
-7.29117
 20
-12.22483
 30
0.0
 10
-7.36004
 20
-12.22328
 30
0.0
 10
-7.42838
 20
-12.21457
 30
0.0
 10
-7.49431
 20
-12.19662
 30
0.0
 10
-7.49431
 20
-12.19662
 30
0.0
 10
-7.48258
 20
-12.2088
 30
0.0
 10
-7.47079
 20
-12.22075
 30
0.0
 10
-7.45893
 20
-12.2324
 30
0.0
 10
-7.45893
 20
-12.2324
 30
0.0
 10
-7.41709
 20
-12.2735
 30
0.0
 10
-7.37319
 20
-12.31205
 30
0.0
 10
-7.32707
 20
-12.3467
 30
0.0
 10
-7.32707
 20
-12.3467
 30
0.0
 10
-7.281
 20
-12.38132
 30
0.0
 10
-7.2324
 20
-12.41238
 30
0.0
 10
-7.18107
 20
-12.43859
 30
0.0
 10
-7.18107
 20
-12.43859
 30
0.0
 10
-7.18107
 20
-12.43859
 30
0.0
 10
-7.19221
 20
-12.53156
 30
0.0
 10
-7.19221
 20
-12.53156
 30
0.0
 10
-7.19221
 20
-12.53156
 30
0.0
 10
-7.19221
 20
-12.53156
 30
0.0
 10
-7.19408
 20
-12.532
 30
0.0
 10
-7.19408
 20
-12.532
 30
0.0
 10
-7.19408
 20
-12.532
 30
0.0
 10
-7.03338
 20
-12.59876
 30
0.0
 10
-6.8355
 20
-12.66881
 30
0.0
 10
-6.67949
 20
-12.65872
 30
0.0
 10
-6.67949
 20
-12.65872
 30
0.0
 10
-6.67949
 20
-12.65872
 30
0.0
 10
-6.67323
 20
-12.75832
 30
0.0
 10
-6.67323
 20
-12.75832
 30
0.0
 10
-6.67323
 20
-12.75832
 30
0.0
 10
-6.89437
 20
-12.77261
 30
0.0
 10
-7.17226
 20
-12.65125
 30
0.0
 10
-7.35236
 20
-12.57258
 30
0.0
 10
-7.35236
 20
-12.57258
 30
0.0
 10
-7.36665
 20
-12.56634
 30
0.0
 10
-7.38016
 20
-12.56044
 30
0.0
 10
-7.39627
 20
-12.5535
 30
0.0
 10
-7.39627
 20
-12.5535
 30
0.0
 10
-7.54014
 20
-12.55644
 30
0.0
 10
-7.71347
 20
-12.54005
 30
0.0
 10
-7.86833
 20
-12.50179
 30
0.0
 10
-7.86833
 20
-12.50179
 30
0.0
 10
-8.08382
 20
-12.44856
 30
0.0
 10
-8.26715
 20
-12.35113
 30
0.0
 10
-8.30312
 20
-12.20056
 30
0.0
 10
-8.30312
 20
-12.20056
 30
0.0
 10
-8.30312
 20
-12.20056
 30
0.0
 10
-8.30331
 20
-12.20056
 30
0.0
 10
-8.30331
 20
-12.20056
 30
0.0
 10
-8.30331
 20
-12.20056
 30
0.0
 10
-8.30497
 20
-12.19357
 30
0.0
 10
-8.30644
 20
-12.1852
 30
0.0
 10
-8.30767
 20
-12.1754
 30
0.0
 10
-8.30767
 20
-12.1754
 30
0.0
 10
-8.30767
 20
-12.1754
 30
0.0
 10
-8.20885
 20
-12.1633
 30
0.0
 10
-8.20885
 20
-12.1633
 30
0.0
 10
-8.20885
 20
-12.1633
 30
0.0
 10
-8.20841
 20
-12.16682
 30
0.0
 10
-8.20746
 20
-12.1716
 30
0.0
 10
-8.20605
 20
-12.17752
 30
0.0
 10
-8.20605
 20
-12.17752
 30
0.0
 10
-8.20605
 20
-12.17752
 30
0.0
 10
-8.20623
 20
-12.17756
 30
0.0
 10
-8.20623
 20
-12.17756
 30
0.0
 10
-8.20623
 20
-12.17756
 30
0.0
 10
-8.18058
 20
-12.28477
 30
0.0
 10
-8.02707
 20
-12.35982
 30
0.0
 10
-7.84451
 20
-12.40491
 30
0.0
 10
-7.84451
 20
-12.40491
 30
0.0
 10
-7.67982
 20
-12.4456
 30
0.0
 10
-7.49408
 20
-12.46024
 30
0.0
 10
-7.35112
 20
-12.45222
 30
0.0
 10
-7.35112
 20
-12.45222
 30
0.0
 10
-7.36319
 20
-12.44383
 30
0.0
 10
-7.37509
 20
-12.4352
 30
0.0
 10
-7.38683
 20
-12.42638
 30
0.0
 10
-7.38683
 20
-12.42638
 30
0.0
 10
-7.43719
 20
-12.38854
 30
0.0
 10
-7.48441
 20
-12.34715
 30
0.0
 10
-7.52885
 20
-12.3035
 30
0.0
 10
-7.52885
 20
-12.3035
 30
0.0
 10
-7.55086
 20
-12.28188
 30
0.0
 10
-7.57202
 20
-12.25999
 30
0.0
 10
-7.59256
 20
-12.23798
 30
0.0
 10
-7.59256
 20
-12.23798
 30
0.0
 10
-7.61176
 20
-12.21739
 30
0.0
 10
-7.63218
 20
-12.19469
 30
0.0
 10
-7.6532
 20
-12.17089
 30
0.0
 10
-7.6532
 20
-12.17089
 30
0.0
 10
-7.66352
 20
-12.15922
 30
0.0
 10
-7.67068
 20
-12.15089
 30
0.0
 10
-7.67827
 20
-12.14208
 30
0.0
 10
-7.67827
 20
-12.14208
 30
0.0
 10
-7.67827
 20
-12.14208
 30
0.0
 10
-7.67846
 20
-12.14208
 30
0.0
 10
-7.67846
 20
-12.14208
 30
0.0
 10
-7.67846
 20
-12.14208
 30
0.0
 10
-7.70525
 20
-12.11096
 30
0.0
 10
-7.73515
 20
-12.07624
 30
0.0
 10
-7.75505
 20
-12.0593
 30
0.0
 10
-7.75505
 20
-12.0593
 30
0.0
 10
-7.75505
 20
-12.0593
 30
0.0
 10
-7.69059
 20
-11.98352
 30
0.0
 10
-7.69059
 20
-11.98352
 30
0.0
 10
-7.69059
 20
-11.98352
 30
0.0
 10
-7.67601
 20
-11.99593
 30
0.0
 10
-7.65705
 20
-12.01012
 30
0.0
 10
-7.63652
 20
-12.02389
 30
0.0
 10
-7.63652
 20
-12.02389
 30
0.0
 10
-7.61757
 20
-12.03659
 30
0.0
 10
-7.59801
 20
-12.04842
 30
0.0
 10
-7.58024
 20
-12.0575
 30
0.0
 10
-7.58024
 20
-12.0575
 30
0.0
 10
-7.49084
 20
-12.10318
 30
0.0
 10
-7.39104
 20
-12.12293
 30
0.0
 10
-7.28921
 20
-12.12523
 30
0.0
 10
-7.28921
 20
-12.12523
 30
0.0
 10
-7.16358
 20
-12.12805
 30
0.0
 10
-7.03463
 20
-12.10436
 30
0.0
 10
-6.91747
 20
-12.06975
 30
0.0
 10
-6.91747
 20
-12.06975
 30
0.0
 10
-6.80436
 20
-12.03633
 30
0.0
 10
-6.68814
 20
-11.98967
 30
0.0
 10
-6.5826
 20
-11.92734
 30
0.0
 10
-6.5826
 20
-11.92734
 30
0.0
 10
-6.52489
 20
-11.89328
 30
0.0
 10
-6.47046
 20
-11.85456
 30
0.0
 10
-6.42163
 20
-11.81083
 30
0.0
 10
-6.42163
 20
-11.81083
 30
0.0
 10
-6.60404
 20
-11.8006
 30
0.0
 10
-6.81515
 20
-11.78082
 30
0.0
 10
-7.01785
 20
-11.74445
 30
0.0
 10
-7.01785
 20
-11.74445
 30
0.0
 10
-7.20425
 20
-11.711
 30
0.0
 10
-7.38366
 20
-11.66352
 30
0.0
 10
-7.52781
 20
-11.59656
 30
0.0
 10
-7.52781
 20
-11.59656
 30
0.0
 10
-7.52781
 20
-11.59656
 30
0.0
 10
-7.50613
 20
-11.50145
 30
0.0
 10
-7.50613
 20
-11.50145
 30
0.0
 10
-7.50613
 20
-11.50145
 30
0.0
 10
-7.20825
 20
-11.50691
 30
0.0
 10
-6.82757
 20
-11.42813
 30
0.0
 10
-6.51822
 20
-11.25604
 30
0.0
 10
-6.51822
 20
-11.25604
 30
0.0
 10
-6.50049
 20
-11.24618
 30
0.0
 10
-6.483
 20
-11.236
 30
0.0
 10
-6.46578
 20
-11.22552
 30
0.0
 10
-6.46578
 20
-11.22552
 30
0.0
 10
-6.46578
 20
-11.22552
 30
0.0
 10
-6.4676
 20
-11.22191
 30
0.0
 10
-6.4676
 20
-11.22191
 30
0.0
 10
-6.4676
 20
-11.22191
 30
0.0
 10
-6.45749
 20
-11.21681
 30
0.0
 10
-6.44721
 20
-11.21199
 30
0.0
 10
-6.43677
 20
-11.20741
 30
0.0
 10
-6.43677
 20
-11.20741
 30
0.0
 10
-6.25771
 20
-11.09274
 30
0.0
 10
-6.11085
 20
-10.94349
 30
0.0
 10
-6.03195
 20
-10.75788
 30
0.0
 10
-6.03195
 20
-10.75788
 30
0.0
 10
-6.41042
 20
-10.85109
 30
0.0
 10
-6.75575
 20
-10.9331
 30
0.0
 10
-7.15468
 20
-10.94961
 30
0.0
 10
-7.15468
 20
-10.94961
 30
0.0
 10
-7.16107
 20
-10.95
 30
0.0
 10
-7.16747
 20
-10.95023
 30
0.0
 10
-7.17388
 20
-10.95035
 30
0.0
 10
-7.17388
 20
-10.95035
 30
0.0
 10
-7.17388
 20
-10.95035
 30
0.0
 10
-7.17638
 20
-10.95045
 30
0.0
 10
-7.17638
 20
-10.95045
 30
0.0
 10
-7.17638
 20
-10.95045
 30
0.0
 10
-7.17638
 20
-10.95045
 30
0.0
 10
-7.17638
 20
-10.95041
 30
0.0
 10
-7.17638
 20
-10.95041
 30
0.0
 10
-7.17638
 20
-10.95041
 30
0.0
 10
-7.17638
 20
-10.95041
 30
0.0
 10
-7.17794
 20
-10.95045
 30
0.0
 10
-7.17794
 20
-10.95045
 30
0.0
 10
-7.17794
 20
-10.95045
 30
0.0
 10
-7.17794
 20
-10.95045
 30
0.0
 10
-7.1799
 20
-10.85085
 30
0.0
 10
-7.1799
 20
-10.85085
 30
0.0
 10
-7.1799
 20
-10.85085
 30
0.0
 10
-7.17152
 20
-10.85055
 30
0.0
 10
-7.16316
 20
-10.85022
 30
0.0
 10
-7.15482
 20
-10.84986
 30
0.0
 10
-7.15482
 20
-10.84986
 30
0.0
 10
-6.908
 20
-10.83105
 30
0.0
 10
-6.65475
 20
-10.54952
 30
0.0
 10
-6.48082
 20
-10.35617
 30
0.0
 10
-6.48082
 20
-10.35617
 30
0.0
 10
-6.46487
 20
-10.33843
 30
0.0
 10
-6.44948
 20
-10.32133
 30
0.0
 10
-6.43205
 20
-10.30221
 30
0.0
 10
-6.43205
 20
-10.30221
 30
0.0
 10
-6.33854
 20
-10.19963
 30
0.0
 10
-6.2577
 20
-10.10053
 30
0.0
 10
-6.1897
 20
-9.99458
 30
0.0
 10
-6.1897
 20
-9.99458
 30
0.0
 10
-6.15042
 20
-9.93338
 30
0.0
 10
-6.11528
 20
-9.86965
 30
0.0
 10
-6.08428
 20
-9.80133
 30
0.0
 10
-6.08428
 20
-9.80133
 30
0.0
 10
-6.24282
 20
-9.90708
 30
0.0
 10
-6.42113
 20
-9.99837
 30
0.0
 10
-6.60646
 20
-10.06482
 30
0.0
 10
-6.60646
 20
-10.06482
 30
0.0
 10
-6.8287
 20
-10.14451
 30
0.0
 10
-7.06144
 20
-10.18869
 30
0.0
 10
-7.28299
 20
-10.17975
 30
0.0
 10
-7.28299
 20
-10.17975
 30
0.0
 10
-7.28299
 20
-10.17975
 30
0.0
 10
-7.27909
 20
-10.08015
 30
0.0
 10
-7.27909
 20
-10.08015
 30
0.0
 10
-7.27909
 20
-10.08015
 30
0.0
 10
-7.07073
 20
-10.08856
 30
0.0
 10
-6.85081
 20
-10.04664
 30
0.0
 10
-6.64006
 20
-9.97106
 30
0.0
 10
-6.64006
 20
-9.97106
 30
0.0
 10
-6.4095
 20
-9.88839
 30
0.0
 10
-6.19029
 20
-9.76561
 30
0.0
 10
-6.00911
 20
-9.62441
 30
0.0
 10
-6.00911
 20
-9.62441
 30
0.0
 10
-5.93791
 20
-9.53213
 30
0.0
 10
-5.86844
 20
-9.43229
 30
0.0
 10
-5.79964
 20
-9.33341
 30
0.0
 10
-5.79964
 20
-9.33341
 30
0.0
 10
-5.79964
 20
-9.33341
 30
0.0
 10
-5.74712
 20
-9.2584
 30
0.0
 10
-5.74712
 20
-9.2584
 30
0.0
 10
-5.74712
 20
-9.2584
 30
0.0
 10
-5.66911
 20
-9.14703
 30
0.0
 10
-5.60466
 20
-9.00103
 30
0.0
 10
-5.54385
 20
-8.86323
 30
0.0
 10
-5.54385
 20
-8.86323
 30
0.0
 10
-5.50504
 20
-8.77528
 30
0.0
 10
-5.46766
 20
-8.69058
 30
0.0
 10
-5.42723
 20
-8.61647
 30
0.0
 10
-5.42723
 20
-8.61647
 30
0.0
 10
-5.42723
 20
-8.61647
 30
0.0
 10
-5.33973
 20
-8.66413
 30
0.0
 10
-5.33973
 20
-8.66413
 30
0.0
  0
SPLINE
  5
42
330
1F
100
AcDbEntity
  8
Layer 1
 62
     5
100
AcDbSpline
210
0.0
220
0.0
230
1.0
 70
    11
 71
     3
 72
   572
 73
   568
 74
     0
 42
0.0000000001
 43
0.0000000001
 12
1.0
 22
0.0
 32
0.0
 13
1.0
 23
0.0
 33
0.0
 40
0.0
 40
0.0
 40
0.0
 40
0.0
 40
0.006993006993007
 40
0.006993006993007
 40
0.006993006993007
 40
0.006993006993007
 40
0.013986013986014
 40
0.013986013986014
 40
0.013986013986014
 40
0.013986013986014
 40
0.020979020979021
 40
0.020979020979021
 40
0.020979020979021
 40
0.020979020979021
 40
0.027972027972028
 40
0.027972027972028
 40
0.027972027972028
 40
0.027972027972028
 40
0.034965034965035
 40
0.034965034965035
 40
0.034965034965035
 40
0.034965034965035
 40
0.041958041958042
 40
0.041958041958042
 40
0.041958041958042
 40
0.041958041958042
 40
0.048951048951049
 40
0.048951048951049
 40
0.048951048951049
 40
0.048951048951049
 40
0.0559440559440559
 40
0.0559440559440559
 40
0.0559440559440559
 40
0.0559440559440559
 40
0.0629370629370629
 40
0.0629370629370629
 40
0.0629370629370629
 40
0.0629370629370629
 40
0.0699300699300699
 40
0.0699300699300699
 40
0.0699300699300699
 40
0.0699300699300699
 40
0.0769230769230769
 40
0.0769230769230769
 40
0.0769230769230769
 40
0.0769230769230769
 40
0.0839160839160839
 40
0.0839160839160839
 40
0.0839160839160839
 40
0.0839160839160839
 40
0.0909090909090909
 40
0.0909090909090909
 40
0.0909090909090909
 40
0.0909090909090909
 40
0.0979020979020979
 40
0.0979020979020979
 40
0.0979020979020979
 40
0.0979020979020979
 40
0.1048951048951049
 40
0.1048951048951049
 40
0.1048951048951049
 40
0.1048951048951049
 40
0.1118881118881119
 40
0.1118881118881119
 40
0.1118881118881119
 40
0.1118881118881119
 40
0.1188811188811189
 40
0.1188811188811189
 40
0.1188811188811189
 40
0.1188811188811189
 40
0.1258741258741259
 40
0.1258741258741259
 40
0.1258741258741259
 40
0.1258741258741259
 40
0.1328671328671329
 40
0.1328671328671329
 40
0.1328671328671329
 40
0.1328671328671329
 40
0.1398601398601399
 40
0.1398601398601399
 40
0.1398601398601399
 40
0.1398601398601399
 40
0.1468531468531468
 40
0.1468531468531468
 40
0.1468531468531468
 40
0.1468531468531468
 40
0.1538461538461539
 40
0.1538461538461539
 40
0.1538461538461539
 40
0.1538461538461539
 40
0.1608391608391608
 40
0.1608391608391608
 40
0.1608391608391608
 40
0.1608391608391608
 40
0.1678321678321678
 40
0.1678321678321678
 40
0.1678321678321678
 40
0.1678321678321678
 40
0.1748251748251748
 40
0.1748251748251748
 40
0.1748251748251748
 40
0.1748251748251748
 40
0.1818181818181818
 40
0.1818181818181818
 40
0.1818181818181818
 40
0.1818181818181818
 40
0.1888111888111888
 40
0.1888111888111888
 40
0.1888111888111888
 40
0.1888111888111888
 40
0.1958041958041958
 40
0.1958041958041958
 40
0.1958041958041958
 40
0.1958041958041958
 40
0.2027972027972028
 40
0.2027972027972028
 40
0.2027972027972028
 40
0.2027972027972028
 40
0.2097902097902098
 40
0.2097902097902098
 40
0.2097902097902098
 40
0.2097902097902098
 40
0.2167832167832168
 40
0.2167832167832168
 40
0.2167832167832168
 40
0.2167832167832168
 40
0.2237762237762238
 40
0.2237762237762238
 40
0.2237762237762238
 40
0.2237762237762238
 40
0.2307692307692308
 40
0.2307692307692308
 40
0.2307692307692308
 40
0.2307692307692308
 40
0.2377622377622378
 40
0.2377622377622378
 40
0.2377622377622378
 40
0.2377622377622378
 40
0.2447552447552448
 40
0.2447552447552448
 40
0.2447552447552448
 40
0.2447552447552448
 40
0.2517482517482518
 40
0.2517482517482518
 40
0.2517482517482518
 40
0.2517482517482518
 40
0.2587412587412588
 40
0.2587412587412588
 40
0.2587412587412588
 40
0.2587412587412588
 40
0.2657342657342657
 40
0.2657342657342657
 40
0.2657342657342657
 40
0.2657342657342657
 40
0.2727272727272727
 40
0.2727272727272727
 40
0.2727272727272727
 40
0.2727272727272727
 40
0.2797202797202797
 40
0.2797202797202797
 40
0.2797202797202797
 40
0.2797202797202797
 40
0.2867132867132867
 40
0.2867132867132867
 40
0.2867132867132867
 40
0.2867132867132867
 40
0.2937062937062937
 40
0.2937062937062937
 40
0.2937062937062937
 40
0.2937062937062937
 40
0.3006993006993007
 40
0.3006993006993007
 40
0.3006993006993007
 40
0.3006993006993007
 40
0.3076923076923077
 40
0.3076923076923077
 40
0.3076923076923077
 40
0.3076923076923077
 40
0.3146853146853147
 40
0.3146853146853147
 40
0.3146853146853147
 40
0.3146853146853147
 40
0.3216783216783217
 40
0.3216783216783217
 40
0.3216783216783217
 40
0.3216783216783217
 40
0.3286713286713286
 40
0.3286713286713286
 40
0.3286713286713286
 40
0.3286713286713286
 40
0.3356643356643357
 40
0.3356643356643357
 40
0.3356643356643357
 40
0.3356643356643357
 40
0.3426573426573427
 40
0.3426573426573427
 40
0.3426573426573427
 40
0.3426573426573427
 40
0.3496503496503496
 40
0.3496503496503496
 40
0.3496503496503496
 40
0.3496503496503496
 40
0.3566433566433567
 40
0.3566433566433567
 40
0.3566433566433567
 40
0.3566433566433567
 40
0.3636363636363636
 40
0.3636363636363636
 40
0.3636363636363636
 40
0.3636363636363636
 40
0.3706293706293706
 40
0.3706293706293706
 40
0.3706293706293706
 40
0.3706293706293706
 40
0.3776223776223776
 40
0.3776223776223776
 40
0.3776223776223776
 40
0.3776223776223776
 40
0.3846153846153846
 40
0.3846153846153846
 40
0.3846153846153846
 40
0.3846153846153846
 40
0.3916083916083916
 40
0.3916083916083916
 40
0.3916083916083916
 40
0.3916083916083916
 40
0.3986013986013986
 40
0.3986013986013986
 40
0.3986013986013986
 40
0.3986013986013986
 40
0.4055944055944056
 40
0.4055944055944056
 40
0.4055944055944056
 40
0.4055944055944056
 40
0.4125874125874126
 40
0.4125874125874126
 40
0.4125874125874126
 40
0.4125874125874126
 40
0.4195804195804196
 40
0.4195804195804196
 40
0.4195804195804196
 40
0.4195804195804196
 40
0.4265734265734266
 40
0.4265734265734266
 40
0.4265734265734266
 40
0.4265734265734266
 40
0.4335664335664335
 40
0.4335664335664335
 40
0.4335664335664335
 40
0.4335664335664335
 40
0.4405594405594406
 40
0.4405594405594406
 40
0.4405594405594406
 40
0.4405594405594406
 40
0.4475524475524476
 40
0.4475524475524476
 40
0.4475524475524476
 40
0.4475524475524476
 40
0.4545454545454545
 40
0.4545454545454545
 40
0.4545454545454545
 40
0.4545454545454545
 40
0.4615384615384616
 40
0.4615384615384616
 40
0.4615384615384616
 40
0.4615384615384616
 40
0.4685314685314685
 40
0.4685314685314685
 40
0.4685314685314685
 40
0.4685314685314685
 40
0.4755244755244755
 40
0.4755244755244755
 40
0.4755244755244755
 40
0.4755244755244755
 40
0.4825174825174825
 40
0.4825174825174825
 40
0.4825174825174825
 40
0.4825174825174825
 40
0.4895104895104895
 40
0.4895104895104895
 40
0.4895104895104895
 40
0.4895104895104895
 40
0.4965034965034965
 40
0.4965034965034965
 40
0.4965034965034965
 40
0.4965034965034965
 40
0.5034965034965035
 40
0.5034965034965035
 40
0.5034965034965035
 40
0.5034965034965035
 40
0.5104895104895105
 40
0.5104895104895105
 40
0.5104895104895105
 40
0.5104895104895105
 40
0.5174825174825175
 40
0.5174825174825175
 40
0.5174825174825175
 40
0.5174825174825175
 40
0.5244755244755245
 40
0.5244755244755245
 40
0.5244755244755245
 40
0.5244755244755245
 40
0.5314685314685315
 40
0.5314685314685315
 40
0.5314685314685315
 40
0.5314685314685315
 40
0.5384615384615384
 40
0.5384615384615384
 40
0.5384615384615384
 40
0.5384615384615384
 40
0.5454545454545454
 40
0.5454545454545454
 40
0.5454545454545454
 40
0.5454545454545454
 40
0.5524475524475524
 40
0.5524475524475524
 40
0.5524475524475524
 40
0.5524475524475524
 40
0.5594405594405595
 40
0.5594405594405595
 40
0.5594405594405595
 40
0.5594405594405595
 40
0.5664335664335665
 40
0.5664335664335665
 40
0.5664335664335665
 40
0.5664335664335665
 40
0.5734265734265734
 40
0.5734265734265734
 40
0.5734265734265734
 40
0.5734265734265734
 40
0.5804195804195804
 40
0.5804195804195804
 40
0.5804195804195804
 40
0.5804195804195804
 40
0.5874125874125874
 40
0.5874125874125874
 40
0.5874125874125874
 40
0.5874125874125874
 40
0.5944055944055944
 40
0.5944055944055944
 40
0.5944055944055944
 40
0.5944055944055944
 40
0.6013986013986014
 40
0.6013986013986014
 40
0.6013986013986014
 40
0.6013986013986014
 40
0.6083916083916084
 40
0.6083916083916084
 40
0.6083916083916084
 40
0.6083916083916084
 40
0.6153846153846154
 40
0.6153846153846154
 40
0.6153846153846154
 40
0.6153846153846154
 40
0.6223776223776224
 40
0.6223776223776224
 40
0.6223776223776224
 40
0.6223776223776224
 40
0.6293706293706294
 40
0.6293706293706294
 40
0.6293706293706294
 40
0.6293706293706294
 40
0.6363636363636364
 40
0.6363636363636364
 40
0.6363636363636364
 40
0.6363636363636364
 40
0.6433566433566433
 40
0.6433566433566433
 40
0.6433566433566433
 40
0.6433566433566433
 40
0.6503496503496503
 40
0.6503496503496503
 40
0.6503496503496503
 40
0.6503496503496503
 40
0.6573426573426573
 40
0.6573426573426573
 40
0.6573426573426573
 40
0.6573426573426573
 40
0.6643356643356644
 40
0.6643356643356644
 40
0.6643356643356644
 40
0.6643356643356644
 40
0.6713286713286714
 40
0.6713286713286714
 40
0.6713286713286714
 40
0.6713286713286714
 40
0.6783216783216783
 40
0.6783216783216783
 40
0.6783216783216783
 40
0.6783216783216783
 40
0.6853146853146853
 40
0.6853146853146853
 40
0.6853146853146853
 40
0.6853146853146853
 40
0.6923076923076923
 40
0.6923076923076923
 40
0.6923076923076923
 40
0.6923076923076923
 40
0.6993006993006993
 40
0.6993006993006993
 40
0.6993006993006993
 40
0.6993006993006993
 40
0.7062937062937062
 40
0.7062937062937062
 40
0.7062937062937062
 40
0.7062937062937062
 40
0.7132867132867133
 40
0.7132867132867133
 40
0.7132867132867133
 40
0.7132867132867133
 40
0.7202797202797203
 40
0.7202797202797203
 40
0.7202797202797203
 40
0.7202797202797203
 40
0.7272727272727273
 40
0.7272727272727273
 40
0.7272727272727273
 40
0.7272727272727273
 40
0.7342657342657343
 40
0.7342657342657343
 40
0.7342657342657343
 40
0.7342657342657343
 40
0.7412587412587412
 40
0.7412587412587412
 40
0.7412587412587412
 40
0.7412587412587412
 40
0.7482517482517482
 40
0.7482517482517482
 40
0.7482517482517482
 40
0.7482517482517482
 40
0.7552447552447552
 40
0.7552447552447552
 40
0.7552447552447552
 40
0.7552447552447552
 40
0.7622377622377622
 40
0.7622377622377622
 40
0.7622377622377622
 40
0.7622377622377622
 40
0.7692307692307693
 40
0.7692307692307693
 40
0.7692307692307693
 40
0.7692307692307693
 40
0.7762237762237763
 40
0.7762237762237763
 40
0.7762237762237763
 40
0.7762237762237763
 40
0.7832167832167832
 40
0.7832167832167832
 40
0.7832167832167832
 40
0.7832167832167832
 40
0.7902097902097902
 40
0.7902097902097902
 40
0.7902097902097902
 40
0.7902097902097902
 40
0.7972027972027972
 40
0.7972027972027972
 40
0.7972027972027972
 40
0.7972027972027972
 40
0.8041958041958042
 40
0.8041958041958042
 40
0.8041958041958042
 40
0.8041958041958042
 40
0.8111888111888111
 40
0.8111888111888111
 40
0.8111888111888111
 40
0.8111888111888111
 40
0.8181818181818182
 40
0.8181818181818182
 40
0.8181818181818182
 40
0.8181818181818182
 40
0.8251748251748252
 40
0.8251748251748252
 40
0.8251748251748252
 40
0.8251748251748252
 40
0.8321678321678322
 40
0.8321678321678322
 40
0.8321678321678322
 40
0.8321678321678322
 40
0.8391608391608392
 40
0.8391608391608392
 40
0.8391608391608392
 40
0.8391608391608392
 40
0.8461538461538461
 40
0.8461538461538461
 40
0.8461538461538461
 40
0.8461538461538461
 40
0.8531468531468531
 40
0.8531468531468531
 40
0.8531468531468531
 40
0.8531468531468531
 40
0.8601398601398601
 40
0.8601398601398601
 40
0.8601398601398601
 40
0.8601398601398601
 40
0.8671328671328671
 40
0.8671328671328671
 40
0.8671328671328671
 40
0.8671328671328671
 40
0.8741258741258742
 40
0.8741258741258742
 40
0.8741258741258742
 40
0.8741258741258742
 40
0.8811188811188811
 40
0.8811188811188811
 40
0.8811188811188811
 40
0.8811188811188811
 40
0.8881118881118881
 40
0.8881118881118881
 40
0.8881118881118881
 40
0.8881118881118881
 40
0.8951048951048951
 40
0.8951048951048951
 40
0.8951048951048951
 40
0.8951048951048951
 40
0.9020979020979021
 40
0.9020979020979021
 40
0.9020979020979021
 40
0.9020979020979021
 40
0.9090909090909091
 40
0.9090909090909091
 40
0.9090909090909091
 40
0.9090909090909091
 40
0.916083916083916
 40
0.916083916083916
 40
0.916083916083916
 40
0.916083916083916
 40
0.9230769230769231
 40
0.9230769230769231
 40
0.9230769230769231
 40
0.9230769230769231
 40
0.9300699300699301
 40
0.9300699300699301
 40
0.9300699300699301
 40
0.9300699300699301
 40
0.9370629370629371
 40
0.9370629370629371
 40
0.9370629370629371
 40
0.9370629370629371
 40
0.9440559440559441
 40
0.9440559440559441
 40
0.9440559440559441
 40
0.9440559440559441
 40
0.951048951048951
 40
0.951048951048951
 40
0.951048951048951
 40
0.951048951048951
 40
0.958041958041958
 40
0.958041958041958
 40
0.958041958041958
 40
0.958041958041958
 40
0.965034965034965
 40
0.965034965034965
 40
0.965034965034965
 40
0.965034965034965
 40
0.972027972027972
 40
0.972027972027972
 40
0.972027972027972
 40
0.972027972027972
 40
0.9790209790209791
 40
0.9790209790209791
 40
0.9790209790209791
 40
0.9790209790209791
 40
0.986013986013986
 40
0.986013986013986
 40
0.986013986013986
 40
0.986013986013986
 40
1.0
 40
1.0
 40
1.0
 40
1.0
 10
-15.75966
 20
-9.9132
 30
0.0
 10
-15.70028
 20
-9.96393
 30
0.0
 10
-15.63899
 20
-10.01703
 30
0.0
 10
-15.57766
 20
-10.07016
 30
0.0
 10
-15.57766
 20
-10.07016
 30
0.0
 10
-15.3818
 20
-10.23983
 30
0.0
 10
-15.18548
 20
-10.40989
 30
0.0
 10
-14.97705
 20
-10.56553
 30
0.0
 10
-14.97705
 20
-10.56553
 30
0.0
 10
-14.87092
 20
-10.6448
 30
0.0
 10
-14.7595
 20
-10.71627
 30
0.0
 10
-14.64437
 20
-10.78097
 30
0.0
 10
-14.64437
 20
-10.78097
 30
0.0
 10
-14.52899
 20
-10.8458
 30
0.0
 10
-14.40949
 20
-10.90406
 30
0.0
 10
-14.28754
 20
-10.95671
 30
0.0
 10
-14.28754
 20
-10.95671
 30
0.0
 10
-14.22695
 20
-10.98286
 30
0.0
 10
-14.16597
 20
-11.00756
 30
0.0
 10
-14.10478
 20
-11.03096
 30
0.0
 10
-14.10478
 20
-11.03096
 30
0.0
 10
-14.04256
 20
-11.05475
 30
0.0
 10
-13.98063
 20
-11.07709
 30
0.0
 10
-13.91902
 20
-11.09817
 30
0.0
 10
-13.91902
 20
-11.09817
 30
0.0
 10
-13.89029
 20
-11.108
 30
0.0
 10
-13.86011
 20
-11.11673
 30
0.0
 10
-13.82933
 20
-11.12512
 30
0.0
 10
-13.82933
 20
-11.12512
 30
0.0
 10
-13.94531
 20
-11.01319
 30
0.0
 10
-14.03574
 20
-10.88065
 30
0.0
 10
-14.08632
 20
-10.72653
 30
0.0
 10
-14.08632
 20
-10.72653
 30
0.0
 10
-14.21701
 20
-10.6795
 30
0.0
 10
-14.32379
 20
-10.57915
 30
0.0
 10
-14.42439
 20
-10.48459
 30
0.0
 10
-14.42439
 20
-10.48459
 30
0.0
 10
-14.45983
 20
-10.45129
 30
0.0
 10
-14.49447
 20
-10.41872
 30
0.0
 10
-14.52895
 20
-10.3899
 30
0.0
 10
-14.52895
 20
-10.3899
 30
0.0
 10
-14.62817
 20
-10.30691
 30
0.0
 10
-14.72462
 20
-10.22035
 30
0.0
 10
-14.81886
 20
-10.13103
 30
0.0
 10
-14.81886
 20
-10.13103
 30
0.0
 10
-14.91253
 20
-10.04224
 30
0.0
 10
-15.00382
 20
-9.95086
 30
0.0
 10
-15.09334
 20
-9.85759
 30
0.0
 10
-15.09334
 20
-9.85759
 30
0.0
 10
-15.15344
 20
-9.79498
 30
0.0
 10
-15.21212
 20
-9.72559
 30
0.0
 10
-15.27133
 20
-9.65559
 30
0.0
 10
-15.27133
 20
-9.65559
 30
0.0
 10
-15.36518
 20
-9.54462
 30
0.0
 10
-15.46046
 20
-9.43196
 30
0.0
 10
-15.55826
 20
-9.34964
 30
0.0
 10
-15.55826
 20
-9.34964
 30
0.0
 10
-15.55826
 20
-9.34964
 30
0.0
 10
-15.4942
 20
-9.27346
 30
0.0
 10
-15.4942
 20
-9.27346
 30
0.0
 10
-15.4942
 20
-9.27346
 30
0.0
 10
-15.38874
 20
-9.36224
 30
0.0
 10
-15.29121
 20
-9.47755
 30
0.0
 10
-15.19515
 20
-9.59113
 30
0.0
 10
-15.19515
 20
-9.59113
 30
0.0
 10
-15.13666
 20
-9.66028
 30
0.0
 10
-15.07868
 20
-9.72884
 30
0.0
 10
-15.02146
 20
-9.78845
 30
0.0
 10
-15.02146
 20
-9.78845
 30
0.0
 10
-14.93303
 20
-9.88058
 30
0.0
 10
-14.84279
 20
-9.97091
 30
0.0
 10
-14.7501
 20
-10.05877
 30
0.0
 10
-14.7501
 20
-10.05877
 30
0.0
 10
-14.65799
 20
-10.14608
 30
0.0
 10
-14.56315
 20
-10.23115
 30
0.0
 10
-14.46489
 20
-10.31334
 30
0.0
 10
-14.46489
 20
-10.31334
 30
0.0
 10
-14.42905
 20
-10.3433
 30
0.0
 10
-14.39296
 20
-10.37723
 30
0.0
 10
-14.35603
 20
-10.41193
 30
0.0
 10
-14.35603
 20
-10.41193
 30
0.0
 10
-14.25748
 20
-10.50456
 30
0.0
 10
-14.15251
 20
-10.6032
 30
0.0
 10
-14.03331
 20
-10.63904
 30
0.0
 10
-14.03331
 20
-10.63904
 30
0.0
 10
-14.03331
 20
-10.63904
 30
0.0
 10
-13.98996
 20
-10.64973
 30
0.0
 10
-13.98996
 20
-10.64973
 30
0.0
 10
-13.98996
 20
-10.64973
 30
0.0
 10
-13.70925
 20
-10.71896
 30
0.0
 10
-13.44866
 20
-10.78323
 30
0.0
 10
-13.17461
 20
-10.82026
 30
0.0
 10
-13.17461
 20
-10.82026
 30
0.0
 10
-13.33568
 20
-10.70945
 30
0.0
 10
-13.48028
 20
-10.54872
 30
0.0
 10
-13.5934
 20
-10.42297
 30
0.0
 10
-13.5934
 20
-10.42297
 30
0.0
 10
-13.60925
 20
-10.40534
 30
0.0
 10
-13.62445
 20
-10.38845
 30
0.0
 10
-13.63701
 20
-10.37462
 30
0.0
 10
-13.63701
 20
-10.37462
 30
0.0
 10
-13.84519
 20
-10.36059
 30
0.0
 10
-14.07172
 20
-10.22262
 30
0.0
 10
-14.27877
 20
-10.04962
 30
0.0
 10
-14.27877
 20
-10.04962
 30
0.0
 10
-14.48836
 20
-9.87449
 30
0.0
 10
-14.6791
 20
-9.66301
 30
0.0
 10
-14.80817
 20
-9.51116
 30
0.0
 10
-14.80817
 20
-9.51116
 30
0.0
 10
-14.86555
 20
-9.44369
 30
0.0
 10
-14.91756
 20
-9.36629
 30
0.0
 10
-14.96984
 20
-9.28848
 30
0.0
 10
-14.96984
 20
-9.28848
 30
0.0
 10
-15.04545
 20
-9.17593
 30
0.0
 10
-15.12174
 20
-9.0624
 30
0.0
 10
-15.21355
 20
-8.98289
 30
0.0
 10
-15.21355
 20
-8.98289
 30
0.0
 10
-15.21355
 20
-8.98289
 30
0.0
 10
-15.14831
 20
-8.90749
 30
0.0
 10
-15.14831
 20
-8.90749
 30
0.0
 10
-15.14831
 20
-8.90749
 30
0.0
 10
-15.0465
 20
-8.99567
 30
0.0
 10
-14.9664
 20
-9.11486
 30
0.0
 10
-14.88702
 20
-9.23302
 30
0.0
 10
-14.88702
 20
-9.23302
 30
0.0
 10
-14.83666
 20
-9.30799
 30
0.0
 10
-14.78655
 20
-9.38255
 30
0.0
 10
-14.73199
 20
-9.4467
 30
0.0
 10
-14.73199
 20
-9.4467
 30
0.0
 10
-14.60557
 20
-9.59544
 30
0.0
 10
-14.41894
 20
-9.80241
 30
0.0
 10
-14.21471
 20
-9.97306
 30
0.0
 10
-14.21471
 20
-9.97306
 30
0.0
 10
-14.05971
 20
-10.10257
 30
0.0
 10
-13.89524
 20
-10.21091
 30
0.0
 10
-13.74169
 20
-10.25499
 30
0.0
 10
-13.74169
 20
-10.25499
 30
0.0
 10
-13.79775
 20
-10.18753
 30
0.0
 10
-13.84859
 20
-10.11967
 30
0.0
 10
-13.89428
 20
-10.04848
 30
0.0
 10
-13.89428
 20
-10.04848
 30
0.0
 10
-13.96446
 20
-9.93914
 30
0.0
 10
-14.02216
 20
-9.82254
 30
0.0
 10
-14.06737
 20
-9.68848
 30
0.0
 10
-14.06737
 20
-9.68848
 30
0.0
 10
-14.14342
 20
-9.59018
 30
0.0
 10
-14.21325
 20
-9.48983
 30
0.0
 10
-14.2824
 20
-9.39045
 30
0.0
 10
-14.2824
 20
-9.39045
 30
0.0
 10
-14.3151
 20
-9.34348
 30
0.0
 10
-14.31366
 20
-9.34521
 30
0.0
 10
-14.33452
 20
-9.31544
 30
0.0
 10
-14.33452
 20
-9.31544
 30
0.0
 10
-14.41887
 20
-9.19502
 30
0.0
 10
-14.48508
 20
-9.04503
 30
0.0
 10
-14.54755
 20
-8.90347
 30
0.0
 10
-14.54755
 20
-8.90347
 30
0.0
 10
-14.58604
 20
-8.81624
 30
0.0
 10
-14.62312
 20
-8.73224
 30
0.0
 10
-14.66027
 20
-8.66413
 30
0.0
 10
-14.66027
 20
-8.66413
 30
0.0
 10
-14.66027
 20
-8.66413
 30
0.0
 10
-14.57277
 20
-8.61647
 30
0.0
 10
-14.57277
 20
-8.61647
 30
0.0
 10
-14.57277
 20
-8.61647
 30
0.0
 10
-14.53234
 20
-8.69058
 30
0.0
 10
-14.49496
 20
-8.77528
 30
0.0
 10
-14.45615
 20
-8.86323
 30
0.0
 10
-14.45615
 20
-8.86323
 30
0.0
 10
-14.39534
 20
-9.00103
 30
0.0
 10
-14.33089
 20
-9.14703
 30
0.0
 10
-14.25288
 20
-9.2584
 30
0.0
 10
-14.25288
 20
-9.2584
 30
0.0
 10
-14.25288
 20
-9.2584
 30
0.0
 10
-14.20036
 20
-9.33341
 30
0.0
 10
-14.20036
 20
-9.33341
 30
0.0
 10
-14.20036
 20
-9.33341
 30
0.0
 10
-14.13156
 20
-9.43229
 30
0.0
 10
-14.06209
 20
-9.53213
 30
0.0
 10
-13.99089
 20
-9.62441
 30
0.0
 10
-13.99089
 20
-9.62441
 30
0.0
 10
-13.80971
 20
-9.76561
 30
0.0
 10
-13.5905
 20
-9.88839
 30
0.0
 10
-13.35994
 20
-9.97106
 30
0.0
 10
-13.35994
 20
-9.97106
 30
0.0
 10
-13.14919
 20
-10.04664
 30
0.0
 10
-12.92927
 20
-10.08856
 30
0.0
 10
-12.72091
 20
-10.08015
 30
0.0
 10
-12.72091
 20
-10.08015
 30
0.0
 10
-12.72091
 20
-10.08015
 30
0.0
 10
-12.71701
 20
-10.17975
 30
0.0
 10
-12.71701
 20
-10.17975
 30
0.0
 10
-12.71701
 20
-10.17975
 30
0.0
 10
-12.93856
 20
-10.18869
 30
0.0
 10
-13.1713
 20
-10.14451
 30
0.0
 10
-13.39354
 20
-10.06482
 30
0.0
 10
-13.39354
 20
-10.06482
 30
0.0
 10
-13.57887
 20
-9.99837
 30
0.0
 10
-13.75718
 20
-9.90708
 30
0.0
 10
-13.91572
 20
-9.80133
 30
0.0
 10
-13.91572
 20
-9.80133
 30
0.0
 10
-13.88472
 20
-9.86965
 30
0.0
 10
-13.84958
 20
-9.93338
 30
0.0
 10
-13.8103
 20
-9.99458
 30
0.0
 10
-13.8103
 20
-9.99458
 30
0.0
 10
-13.74229
 20
-10.10054
 30
0.0
 10
-13.66147
 20
-10.19964
 30
0.0
 10
-13.56795
 20
-10.30221
 30
0.0
 10
-13.56795
 20
-10.30221
 30
0.0
 10
-13.55052
 20
-10.32133
 30
0.0
 10
-13.53513
 20
-10.33843
 30
0.0
 10
-13.51918
 20
-10.35617
 30
0.0
 10
-13.51918
 20
-10.35617
 30
0.0
 10
-13.34525
 20
-10.54952
 30
0.0
 10
-13.092
 20
-10.83105
 30
0.0
 10
-12.84518
 20
-10.84986
 30
0.0
 10
-12.84518
 20
-10.84986
 30
0.0
 10
-12.83684
 20
-10.85022
 30
0.0
 10
-12.82848
 20
-10.85055
 30
0.0
 10
-12.8201
 20
-10.85085
 30
0.0
 10
-12.8201
 20
-10.85085
 30
0.0
 10
-12.8201
 20
-10.85085
 30
0.0
 10
-12.82206
 20
-10.95045
 30
0.0
 10
-12.82206
 20
-10.95045
 30
0.0
 10
-12.82206
 20
-10.95045
 30
0.0
 10
-12.82206
 20
-10.95045
 30
0.0
 10
-12.82362
 20
-10.95041
 30
0.0
 10
-12.82362
 20
-10.95041
 30
0.0
 10
-12.82362
 20
-10.95041
 30
0.0
 10
-12.82362
 20
-10.95041
 30
0.0
 10
-12.82362
 20
-10.95045
 30
0.0
 10
-12.82362
 20
-10.95045
 30
0.0
 10
-12.82362
 20
-10.95045
 30
0.0
 10
-12.82362
 20
-10.95045
 30
0.0
 10
-12.82612
 20
-10.95035
 30
0.0
 10
-12.82612
 20
-10.95035
 30
0.0
 10
-12.82612
 20
-10.95035
 30
0.0
 10
-12.83253
 20
-10.95024
 30
0.0
 10
-12.83893
 20
-10.95
 30
0.0
 10
-12.84532
 20
-10.94961
 30
0.0
 10
-12.84532
 20
-10.94961
 30
0.0
 10
-13.24426
 20
-10.9331
 30
0.0
 10
-13.58958
 20
-10.8511
 30
0.0
 10
-13.96805
 20
-10.75788
 30
0.0
 10
-13.96805
 20
-10.75788
 30
0.0
 10
-13.88915
 20
-10.94349
 30
0.0
 10
-13.74228
 20
-11.09275
 30
0.0
 10
-13.56323
 20
-11.20741
 30
0.0
 10
-13.56323
 20
-11.20741
 30
0.0
 10
-13.5528
 20
-11.21199
 30
0.0
 10
-13.54251
 20
-11.21681
 30
0.0
 10
-13.5324
 20
-11.22191
 30
0.0
 10
-13.5324
 20
-11.22191
 30
0.0
 10
-13.5324
 20
-11.22191
 30
0.0
 10
-13.53422
 20
-11.22552
 30
0.0
 10
-13.53422
 20
-11.22552
 30
0.0
 10
-13.53422
 20
-11.22552
 30
0.0
 10
-13.517
 20
-11.236
 30
0.0
 10
-13.49951
 20
-11.24618
 30
0.0
 10
-13.48178
 20
-11.25604
 30
0.0
 10
-13.48178
 20
-11.25604
 30
0.0
 10
-13.17243
 20
-11.42813
 30
0.0
 10
-12.79175
 20
-11.50691
 30
0.0
 10
-12.49387
 20
-11.50145
 30
0.0
 10
-12.49387
 20
-11.50145
 30
0.0
 10
-12.49387
 20
-11.50145
 30
0.0
 10
-12.47219
 20
-11.59656
 30
0.0
 10
-12.47219
 20
-11.59656
 30
0.0
 10
-12.47219
 20
-11.59656
 30
0.0
 10
-12.61634
 20
-11.66352
 30
0.0
 10
-12.79575
 20
-11.711
 30
0.0
 10
-12.98215
 20
-11.74445
 30
0.0
 10
-12.98215
 20
-11.74445
 30
0.0
 10
-13.18485
 20
-11.78082
 30
0.0
 10
-13.39596
 20
-11.8006
 30
0.0
 10
-13.57837
 20
-11.81083
 30
0.0
 10
-13.57837
 20
-11.81083
 30
0.0
 10
-13.52954
 20
-11.85456
 30
0.0
 10
-13.47511
 20
-11.89328
 30
0.0
 10
-13.4174
 20
-11.92734
 30
0.0
 10
-13.4174
 20
-11.92734
 30
0.0
 10
-13.31186
 20
-11.98967
 30
0.0
 10
-13.19564
 20
-12.03633
 30
0.0
 10
-13.08253
 20
-12.06975
 30
0.0
 10
-13.08253
 20
-12.06975
 30
0.0
 10
-12.96537
 20
-12.10436
 30
0.0
 10
-12.83642
 20
-12.12805
 30
0.0
 10
-12.71079
 20
-12.12523
 30
0.0
 10
-12.71079
 20
-12.12523
 30
0.0
 10
-12.60896
 20
-12.12293
 30
0.0
 10
-12.50916
 20
-12.10318
 30
0.0
 10
-12.41976
 20
-12.0575
 30
0.0
 10
-12.41976
 20
-12.0575
 30
0.0
 10
-12.40199
 20
-12.04842
 30
0.0
 10
-12.38243
 20
-12.03659
 30
0.0
 10
-12.36348
 20
-12.02389
 30
0.0
 10
-12.36348
 20
-12.02389
 30
0.0
 10
-12.34295
 20
-12.01012
 30
0.0
 10
-12.32399
 20
-11.99593
 30
0.0
 10
-12.30941
 20
-11.98352
 30
0.0
 10
-12.30941
 20
-11.98352
 30
0.0
 10
-12.30941
 20
-11.98352
 30
0.0
 10
-12.24495
 20
-12.0593
 30
0.0
 10
-12.24495
 20
-12.0593
 30
0.0
 10
-12.24495
 20
-12.0593
 30
0.0
 10
-12.26485
 20
-12.07624
 30
0.0
 10
-12.29474
 20
-12.11095
 30
0.0
 10
-12.32154
 20
-12.14208
 30
0.0
 10
-12.32154
 20
-12.14208
 30
0.0
 10
-12.32154
 20
-12.14208
 30
0.0
 10
-12.32173
 20
-12.14208
 30
0.0
 10
-12.32173
 20
-12.14208
 30
0.0
 10
-12.32173
 20
-12.14208
 30
0.0
 10
-12.32932
 20
-12.15089
 30
0.0
 10
-12.33648
 20
-12.15922
 30
0.0
 10
-12.3468
 20
-12.17089
 30
0.0
 10
-12.3468
 20
-12.17089
 30
0.0
 10
-12.36781
 20
-12.19468
 30
0.0
 10
-12.38823
 20
-12.21739
 30
0.0
 10
-12.40745
 20
-12.23798
 30
0.0
 10
-12.40745
 20
-12.23798
 30
0.0
 10
-12.42798
 20
-12.25999
 30
0.0
 10
-12.44914
 20
-12.28188
 30
0.0
 10
-12.47115
 20
-12.3035
 30
0.0
 10
-12.47115
 20
-12.3035
 30
0.0
 10
-12.51559
 20
-12.34715
 30
0.0
 10
-12.56281
 20
-12.38854
 30
0.0
 10
-12.61317
 20
-12.42638
 30
0.0
 10
-12.61317
 20
-12.42638
 30
0.0
 10
-12.62491
 20
-12.43521
 30
0.0
 10
-12.63682
 20
-12.44383
 30
0.0
 10
-12.64889
 20
-12.45222
 30
0.0
 10
-12.64889
 20
-12.45222
 30
0.0
 10
-12.50592
 20
-12.46024
 30
0.0
 10
-12.32017
 20
-12.44559
 30
0.0
 10
-12.15549
 20
-12.40491
 30
0.0
 10
-12.15549
 20
-12.40491
 30
0.0
 10
-11.97293
 20
-12.35982
 30
0.0
 10
-11.81942
 20
-12.28477
 30
0.0
 10
-11.79377
 20
-12.17756
 30
0.0
 10
-11.79377
 20
-12.17756
 30
0.0
 10
-11.79377
 20
-12.17756
 30
0.0
 10
-11.79395
 20
-12.17752
 30
0.0
 10
-11.79395
 20
-12.17752
 30
0.0
 10
-11.79395
 20
-12.17752
 30
0.0
 10
-11.79254
 20
-12.1716
 30
0.0
 10
-11.79159
 20
-12.16682
 30
0.0
 10
-11.79115
 20
-12.1633
 30
0.0
 10
-11.79115
 20
-12.1633
 30
0.0
 10
-11.79115
 20
-12.1633
 30
0.0
 10
-11.69233
 20
-12.1754
 30
0.0
 10
-11.69233
 20
-12.1754
 30
0.0
 10
-11.69233
 20
-12.1754
 30
0.0
 10
-11.69356
 20
-12.1852
 30
0.0
 10
-11.69503
 20
-12.19358
 30
0.0
 10
-11.69669
 20
-12.20056
 30
0.0
 10
-11.69669
 20
-12.20056
 30
0.0
 10
-11.69669
 20
-12.20056
 30
0.0
 10
-11.69688
 20
-12.20056
 30
0.0
 10
-11.69688
 20
-12.20056
 30
0.0
 10
-11.69688
 20
-12.20056
 30
0.0
 10
-11.73285
 20
-12.35113
 30
0.0
 10
-11.91618
 20
-12.44856
 30
0.0
 10
-12.13167
 20
-12.50179
 30
0.0
 10
-12.13167
 20
-12.50179
 30
0.0
 10
-12.28653
 20
-12.54005
 30
0.0
 10
-12.45986
 20
-12.55644
 30
0.0
 10
-12.60373
 20
-12.5535
 30
0.0
 10
-12.60373
 20
-12.5535
 30
0.0
 10
-12.61984
 20
-12.56044
 30
0.0
 10
-12.63335
 20
-12.56634
 30
0.0
 10
-12.64764
 20
-12.57258
 30
0.0
 10
-12.64764
 20
-12.57258
 30
0.0
 10
-12.82774
 20
-12.65125
 30
0.0
 10
-13.10563
 20
-12.77261
 30
0.0
 10
-13.32677
 20
-12.75832
 30
0.0
 10
-13.32677
 20
-12.75832
 30
0.0
 10
-13.32677
 20
-12.75832
 30
0.0
 10
-13.32051
 20
-12.65872
 30
0.0
 10
-13.32051
 20
-12.65872
 30
0.0
 10
-13.32051
 20
-12.65872
 30
0.0
 10
-13.1645
 20
-12.66881
 30
0.0
 10
-12.96662
 20
-12.59876
 30
0.0
 10
-12.80592
 20
-12.532
 30
0.0
 10
-12.80592
 20
-12.532
 30
0.0
 10
-12.80592
 20
-12.532
 30
0.0
 10
-12.80779
 20
-12.53156
 30
0.0
 10
-12.80779
 20
-12.53156
 30
0.0
 10
-12.80779
 20
-12.53156
 30
0.0
 10
-12.80779
 20
-12.53156
 30
0.0
 10
-12.81893
 20
-12.43859
 30
0.0
 10
-12.81893
 20
-12.43859
 30
0.0
 10
-12.81893
 20
-12.43859
 30
0.0
 10
-12.76761
 20
-12.41238
 30
0.0
 10
-12.71902
 20
-12.38133
 30
0.0
 10
-12.67293
 20
-12.3467
 30
0.0
 10
-12.67293
 20
-12.3467
 30
0.0
 10
-12.62681
 20
-12.31205
 30
0.0
 10
-12.58291
 20
-12.2735
 30
0.0
 10
-12.54107
 20
-12.2324
 30
0.0
 10
-12.54107
 20
-12.2324
 30
0.0
 10
-12.52921
 20
-12.22075
 30
0.0
 10
-12.51742
 20
-12.2088
 30
0.0
 10
-12.50569
 20
-12.19662
 30
0.0
 10
-12.50569
 20
-12.19662
 30
0.0
 10
-12.57161
 20
-12.21456
 30
0.0
 10
-12.63996
 20
-12.22328
 30
0.0
 10
-12.70883
 20
-12.22483
 30
0.0
 10
-12.70883
 20
-12.22483
 30
0.0
 10
-12.81461
 20
-12.22721
 30
0.0
 10
-12.92154
 20
-12.21265
 30
0.0
 10
-13.02253
 20
-12.18886
 30
0.0
 10
-13.02253
 20
-12.18886
 30
0.0
 10
-13.22424
 20
-12.2709
 30
0.0
 10
-13.48657
 20
-12.28424
 30
0.0
 10
-13.74795
 20
-12.26685
 30
0.0
 10
-13.74795
 20
-12.26685
 30
0.0
 10
-13.74795
 20
-12.26685
 30
0.0
 10
-13.74814
 20
-12.26685
 30
0.0
 10
-13.74814
 20
-12.26685
 30
0.0
 10
-13.74814
 20
-12.26685
 30
0.0
 10
-14.01197
 20
-12.24929
 30
0.0
 10
-14.27578
 20
-12.20038
 30
0.0
 10
-14.47305
 20
-12.16007
 30
0.0
 10
-14.47305
 20
-12.16007
 30
0.0
 10
-14.47305
 20
-12.16007
 30
0.0
 10
-14.45313
 20
-12.06241
 30
0.0
 10
-14.45313
 20
-12.06241
 30
0.0
 10
-14.45313
 20
-12.06241
 30
0.0
 10
-14.25943
 20
-12.10199
 30
0.0
 10
-14.0004
 20
-12.15002
 30
0.0
 10
-13.7415
 20
-12.16725
 30
0.0
 10
-13.7415
 20
-12.16725
 30
0.0
 10
-13.7415
 20
-12.16725
 30
0.0
 10
-13.7415
 20
-12.16726
 30
0.0
 10
-13.7415
 20
-12.16726
 30
0.0
 10
-13.7415
 20
-12.16726
 30
0.0
 10
-13.54943
 20
-12.18002
 30
0.0
 10
-13.35794
 20
-12.1758
 30
0.0
 10
-13.19512
 20
-12.13826
 30
0.0
 10
-13.19512
 20
-12.13826
 30
0.0
 10
-13.28826
 20
-12.10575
 30
0.0
 10
-13.38147
 20
-12.06448
 30
0.0
 10
-13.46818
 20
-12.01328
 30
0.0
 10
-13.46818
 20
-12.01328
 30
0.0
 10
-13.56138
 20
-11.95826
 30
0.0
 10
-13.6473
 20
-11.89163
 30
0.0
 10
-13.71803
 20
-11.81188
 30
0.0
 10
-13.71803
 20
-11.81188
 30
0.0
 10
-13.73321
 20
-11.80871
 30
0.0
 10
-13.74883
 20
-11.80516
 30
0.0
 10
-13.76483
 20
-11.80127
 30
0.0
 10
-13.76483
 20
-11.80127
 30
0.0
 10
-13.78789
 20
-11.79567
 30
0.0
 10
-13.80878
 20
-11.79015
 30
0.0
 10
-13.82771
 20
-11.78474
 30
0.0
 10
-13.82771
 20
-11.78474
 30
0.0
 10
-13.88263
 20
-11.76905
 30
0.0
 10
-13.93596
 20
-11.74884
 30
0.0
 10
-13.98931
 20
-11.72862
 30
0.0
 10
-13.98931
 20
-11.72862
 30
0.0
 10
-14.0149
 20
-11.71893
 30
0.0
 10
-14.04062
 20
-11.70918
 30
0.0
 10
-14.05938
 20
-11.70244
 30
0.0
 10
-14.05938
 20
-11.70244
 30
0.0
 10
-14.22363
 20
-11.64342
 30
0.0
 10
-14.38419
 20
-11.57644
 30
0.0
 10
-14.53922
 20
-11.50077
 30
0.0
 10
-14.53922
 20
-11.50077
 30
0.0
 10
-14.68755
 20
-11.42838
 30
0.0
 10
-14.83239
 20
-11.34729
 30
0.0
 10
-14.97236
 20
-11.25677
 30
0.0
 10
-14.97236
 20
-11.25677
 30
0.0
 10
-14.98599
 20
-11.24795
 30
0.0
 10
-15.01035
 20
-11.23194
 30
0.0
 10
-15.03471
 20
-11.21593
 30
0.0
 10
-15.03471
 20
-11.21593
 30
0.0
 10
-15.12637
 20
-11.15567
 30
0.0
 10
-15.21655
 20
-11.09638
 30
0.0
 10
-15.31762
 20
-11.05039
 30
0.0
 10
-15.31762
 20
-11.05039
 30
0.0
 10
-15.31762
 20
-11.05039
 30
0.0
 10
-15.27622
 20
-10.95937
 30
0.0
 10
-15.27622
 20
-10.95937
 30
0.0
 10
-15.27622
 20
-10.95937
 30
0.0
 10
-15.17065
 20
-11.00741
 30
0.0
 10
-15.07612
 20
-11.06956
 30
0.0
 10
-14.98003
 20
-11.13273
 30
0.0
 10
-14.98003
 20
-11.13273
 30
0.0
 10
-14.96321
 20
-11.14378
 30
0.0
 10
-14.94616
 20
-11.15499
 30
0.0
 10
-14.91806
 20
-11.17317
 30
0.0
 10
-14.91806
 20
-11.17317
 30
0.0
 10
-14.78279
 20
-11.26065
 30
0.0
 10
-14.64142
 20
-11.33969
 30
0.0
 10
-14.49546
 20
-11.41093
 30
0.0
 10
-14.49546
 20
-11.41093
 30
0.0
 10
-14.34186
 20
-11.48591
 30
0.0
 10
-14.18479
 20
-11.55154
 30
0.0
 10
-14.02578
 20
-11.60868
 30
0.0
 10
-14.02578
 20
-11.60868
 30
0.0
 10
-13.99708
 20
-11.61899
 30
0.0
 10
-13.97564
 20
-11.62712
 30
0.0
 10
-13.95415
 20
-11.63526
 30
0.0
 10
-13.95415
 20
-11.63526
 30
0.0
 10
-13.90352
 20
-11.65445
 30
0.0
 10
-13.85289
 20
-11.67364
 30
0.0
 10
-13.80037
 20
-11.68864
 30
0.0
 10
-13.80037
 20
-11.68864
 30
0.0
 10
-13.77892
 20
-11.69478
 30
0.0
 10
-13.75915
 20
-11.70008
 30
0.0
 10
-13.74139
 20
-11.70439
 30
0.0
 10
-13.74139
 20
-11.70439
 30
0.0
 10
-13.7242
 20
-11.70857
 30
0.0
 10
-13.7062
 20
-11.71255
 30
0.0
 10
-13.68733
 20
-11.71627
 30
0.0
 10
-13.68733
 20
-11.71627
 30
0.0
 10
-13.48759
 20
-11.70837
 30
0.0
 10
-13.23725
 20
-11.68903
 30
0.0
 10
-12.99973
 20
-11.64641
 30
0.0
 10
-12.99973
 20
-11.64641
 30
0.0
 10
-12.91113
 20
-11.63051
 30
0.0
 10
-12.82433
 20
-11.61137
 30
0.0
 10
-12.7427
 20
-11.58837
 30
0.0
 10
-12.7427
 20
-11.58837
 30
0.0
 10
-13.00189
 20
-11.55885
 30
0.0
 10
-13.28699
 20
-11.47844
 30
0.0
 10
-13.53022
 20
-11.34314
 30
0.0
 10
-13.53022
 20
-11.34314
 30
0.0
 10
-13.55721
 20
-11.32813
 30
0.0
 10
-13.58368
 20
-11.31242
 30
0.0
 10
-13.60957
 20
-11.29605
 30
0.0
 10
-13.60957
 20
-11.29605
 30
0.0
 10
-13.6696
 20
-11.27052
 30
0.0
 10
-13.73811
 20
-11.25247
 30
0.0
 10
-13.80572
 20
-11.23465
 30
0.0
 10
-13.80572
 20
-11.23465
 30
0.0
 10
-13.85546
 20
-11.22155
 30
0.0
 10
-13.90478
 20
-11.20854
 30
0.0
 10
-13.95106
 20
-11.19271
 30
0.0
 10
-13.95106
 20
-11.19271
 30
0.0
 10
-14.01521
 20
-11.17076
 30
0.0
 10
-14.0784
 20
-11.148
 30
0.0
 10
-14.14032
 20
-11.12432
 30
0.0
 10
-14.14032
 20
-11.12432
 30
0.0
 10
-14.20325
 20
-11.10025
 30
0.0
 10
-14.26555
 20
-11.07503
 30
0.0
 10
-14.327
 20
-11.04851
 30
0.0
 10
-14.327
 20
-11.04851
 30
0.0
 10
-14.45171
 20
-10.99467
 30
0.0
 10
-14.57431
 20
-10.93487
 30
0.0
 10
-14.69319
 20
-10.86807
 30
0.0
 10
-14.69319
 20
-10.86807
 30
0.0
 10
-14.81232
 20
-10.80112
 30
0.0
 10
-14.92743
 20
-10.72731
 30
0.0
 10
-15.03681
 20
-10.64561
 30
0.0
 10
-15.03681
 20
-10.64561
 30
0.0
 10
-15.2458
 20
-10.48955
 30
0.0
 10
-15.44458
 20
-10.31736
 30
0.0
 10
-15.6429
 20
-10.14556
 30
0.0
 10
-15.6429
 20
-10.14556
 30
0.0
 10
-15.70263
 20
-10.09382
 30
0.0
 10
-15.76236
 20
-10.04207
 30
0.0
 10
-15.8245
 20
-9.98898
 30
0.0
 10
-15.8245
 20
-9.98898
 30
0.0
 10
-15.8245
 20
-9.98898
 30
0.0
 10
-15.75966
 20
-9.9132
 30
0.0
 10
-15.75966
 20
-9.9132
 30
0.0
  0
ENDSEC
  0
SECTION
  2
OBJECTS
  0
DICTIONARY
  5
C
330
0
100
AcDbDictionary
281
     1
  3
ACAD_GROUP
350
D
  3
ACAD_LAYOUT
350
1A
  3
ACAD_MATERIAL
350
3B
  3
ACAD_MLEADERSTYLE
350
64
  3
ACAD_MLINESTYLE
350
17
  3
ACAD_PLOTSETTINGS
350
19
  3
ACAD_PLOTSTYLENAME
350
E
  3
ACAD_TABLESTYLE
350
63
  3
ACAD_VISUALSTYLE
350
2A
  0
DICTIONARY
  5
D
102
{ACAD_REACTORS
330
C
102
}
330
C
100
AcDbDictionary
281
     1
  0
DICTIONARY
  5
1A
102
{ACAD_REACTORS
330
C
102
}
330
C
100
AcDbDictionary
281
     1
  3
Layout1
350
1E
  3
Layout2
350
26
  3
Model
350
22
  0
DICTIONARY
  5
3B
102
{ACAD_REACTORS
330
C
102
}
330
C
100
AcDbDictionary
281
     1
  3
ByBlock
350
3D
  3
ByLayer
350
3C
  3
Global
350
3E
  0
DICTIONARY
  5
64
102
{ACAD_REACTORS
330
C
102
}
330
C
100
AcDbDictionary
281
     1
  0
DICTIONARY
  5
17
102
{ACAD_REACTORS
330
C
102
}
330
C
100
AcDbDictionary
281
     1
  3
Standard
350
18
  0
DICTIONARY
  5
19
102
{ACAD_REACTORS
330
C
102
}
330
C
100
AcDbDictionary
281
     1
  0
ACDBDICTIONARYWDFLT
  5
E
102
{ACAD_REACTORS
330
C
102
}
330
C
100
AcDbDictionary
281
     1
  3
Normal
350
F
100
AcDbDictionaryWithDefault
340
F
  0
DICTIONARY
  5
63
102
{ACAD_REACTORS
330
C
102
}
330
C
100
AcDbDictionary
281
     1
  0
DICTIONARY
  5
2A
102
{ACAD_REACTORS
330
C
102
}
330
C
100
AcDbDictionary
281
     1
  3
2dWireframe
350
2F
  3
3D Hidden
350
31
  3
3dWireframe
350
30
  3
Basic
350
32
  3
Brighten
350
36
  3
ColorChange
350
3A
  3
Conceptual
350
34
  3
Dim
350
35
  3
Facepattern
350
39
  3
Flat
350
2B
  3
FlatWithEdges
350
2C
  3
Gouraud
350
2D
  3
GouraudWithEdges
350
2E
  3
Linepattern
350
38
  3
Realistic
350
33
  3
Thicken
350
37
  0
LAYOUT
  5
1E
102
{ACAD_REACTORS
330
1A
102
}
330
1A
100
AcDbPlotSettings
  1

  2
none_device
  4

  6

 40
0.0
 41
0.0
 42
0.0
 43
0.0
 44
0.0
 45
0.0
 46
0.0
 47
0.0
 48
0.0
 49
0.0
140
0.0
141
0.0
142
1.0
143
1.0
 70
   688
 72
     0
 73
     0
 74
     5
  7

 75
    16
 76
     0
 77
     2
 78
   300
147
1.0
148
0.0
149
0.0
100
AcDbLayout
  1
Layout1
 70
     1
 71
     1
 10
0.0
 20
0.0
 11
12.0
 21
9.0
 12
0.0
 22
0.0
 32
0.0
 14
1.000000000000000E+20
 24
1.000000000000000E+20
 34
1.000000000000000E+20
 15
-1.000000000000000E+20
 25
-1.000000000000000E+20
 35
-1.000000000000000E+20
146
0.0
 13
0.0
 23
0.0
 33
0.0
 16
1.0
 26
0.0
 36
0.0
 17
0.0
 27
1.0
 37
0.0
 76
     0
330
1B
  0
LAYOUT
  5
26
102
{ACAD_REACTORS
330
1A
102
}
330
1A
100
AcDbPlotSettings
  1

  2
none_device
  4

  6

 40
0.0
 41
0.0
 42
0.0
 43
0.0
 44
0.0
 45
0.0
 46
0.0
 47
0.0
 48
0.0
 49
0.0
140
0.0
141
0.0
142
1.0
143
1.0
 70
   688
 72
     0
 73
     0
 74
     5
  7

 75
    16
 76
     0
 77
     2
 78
   300
147
1.0
148
0.0
149
0.0
100
AcDbLayout
  1
Layout2
 70
     1
 71
     2
 10
0.0
 20
0.0
 11
0.0
 21
0.0
 12
0.0
 22
0.0
 32
0.0
 14
0.0
 24
0.0
 34
0.0
 15
0.0
 25
0.0
 35
0.0
146
0.0
 13
0.0
 23
0.0
 33
0.0
 16
1.0
 26
0.0
 36
0.0
 17
0.0
 27
1.0
 37
0.0
 76
     0
330
23
  0
LAYOUT
  5
22
102
{ACAD_REACTORS
330
1A
102
}
330
1A
100
AcDbPlotSettings
  1

  2
none_device
  4

  6

 40
0.0
 41
0.0
 42
0.0
 43
0.0
 44
0.0
 45
0.0
 46
0.0
 47
0.0
 48
0.0
 49
0.0
140
0.0
141
0.0
142
1.0
143
1.0
 70
  1712
 72
     0
 73
     0
 74
     0
  7

 75
     0
 76
     0
 77
     2
 78
   300
147
1.0
148
0.0
149
0.0
100
AcDbLayout
  1
Model
 70
     1
 71
     0
 10
0.0
 20
0.0
 11
12.0
 21
9.0
 12
0.0
 22
0.0
 32
0.0
 14
-15.8245
 24
-12.75948
 34
0.0
 15
-4.1755
 25
-8.61647
 35
0.0
146
0.0
 13
0.0
 23
0.0
 33
0.0
 16
1.0
 26
0.0
 36
0.0
 17
0.0
 27
1.0
 37
0.0
 76
     0
330
1F
331
29
  0
MATERIAL
  5
3D
102
{ACAD_REACTORS
330
3B
102
}
330
3B
100
AcDbMaterial
  1
ByBlock
 72
     1
 94
      127
  0
MATERIAL
  5
3C
102
{ACAD_REACTORS
330
3B
102
}
330
3B
100
AcDbMaterial
  1
ByLayer
 72
     1
 94
      127
  0
MATERIAL
  5
3E
102
{ACAD_REACTORS
330
3B
102
}
330
3B
100
AcDbMaterial
  1
Global
 72
     1
 94
      127
  0
MLINESTYLE
  5
18
102
{ACAD_REACTORS
330
17
102
}
330
17
100
AcDbMlineStyle
  2
Standard
 70
     0
  3

 62
   256
 51
90.0
 52
90.0
 71
     2
 49
0.5
 62
   256
  6
BYLAYER
 49
-0.5
 62
   256
  6
BYLAYER
  0
ACDBPLACEHOLDER
  5
F
102
{ACAD_REACTORS
330
E
102
}
330
E
  0
VISUALSTYLE
  5
2F
102
{ACAD_REACTORS
330
2A
102
}
102
{ACAD_XDICTIONARY
360
4B
102
}
330
2A
100
AcDbVisualStyle
  2
2dWireframe
 70
     4
 71
     0
 72
     2
 73
     0
 90
        0
 40
-0.6
 41
-30.0
 62
     5
 63
     7
421
 16777215
 74
     1
 91
        4
 64
     7
 65
   257
 75
     1
175
     1
 42
1.0
 92
        0
 66
   257
 43
1.0
 76
     1
 77
     6
 78
     2
 67
     7
 79
     5
170
     0
171
     0
290
     0
174
     0
 93
        1
 44
0.0
173
     0
291
     0
 45
0.0
  0
VISUALSTYLE
  5
31
102
{ACAD_REACTORS
330
2A
102
}
102
{ACAD_XDICTIONARY
360
4F
102
}
330
2A
100
AcDbVisualStyle
  2
3D Hidden
 70
     6
 71
     1
 72
     2
 73
     2
 90
        0
 40
-0.6
 41
-30.0
 62
     5
 63
     7
421
 16777215
 74
     2
 91
        2
 64
     7
 65
   257
 75
     2
175
     1
 42
40.0
 92
        0
 66
   257
 43
1.0
 76
     1
 77
     6
 78
     2
 67
     7
 79
     3
170
     0
171
     0
290
     0
174
     0
 93
        1
 44
0.0
173
     0
291
     0
 45
0.0
  0
VISUALSTYLE
  5
30
102
{ACAD_REACTORS
330
2A
102
}
102
{ACAD_XDICTIONARY
360
4D
102
}
330
2A
100
AcDbVisualStyle
  2
3dWireframe
 70
     5
 71
     0
 72
     2
 73
     0
 90
        0
 40
-0.6
 41
-30.0
 62
     5
 63
     7
421
 16777215
 74
     1
 91
        4
 64
     7
 65
   257
 75
     1
175
     1
 42
1.0
 92
        0
 66
   257
 43
1.0
 76
     1
 77
     6
 78
     2
 67
     7
 79
     5
170
     0
171
     0
290
     0
174
     0
 93
        1
 44
0.0
173
     0
291
     0
 45
0.0
  0
VISUALSTYLE
  5
32
102
{ACAD_REACTORS
330
2A
102
}
102
{ACAD_XDICTIONARY
360
51
102
}
330
2A
100
AcDbVisualStyle
  2
Basic
 70
     7
 71
     1
 72
     0
 73
     1
 90
        0
 40
-0.6
 41
-30.0
 62
     5
 63
     7
421
 16777215
 74
     0
 91
        4
 64
     7
 65
   257
 75
     1
175
     1
 42
1.0
 92
        8
 66
     7
 43
1.0
 76
     1
 77
     6
 78
     2
 67
     7
 79
     5
170
     0
171
     0
290
     0
174
     0
 93
        1
 44
0.0
173
     0
291
     1
 45
0.0
  0
VISUALSTYLE
  5
36
102
{ACAD_REACTORS
330
2A
102
}
102
{ACAD_XDICTIONARY
360
59
102
}
330
2A
100
AcDbVisualStyle
  2
Brighten
 70
    12
 71
     2
 72
     2
 73
     0
 90
        0
 40
-0.6
 41
-30.0
 62
     5
 63
     7
421
 16777215
 74
     1
 91
        4
 64
     7
 65
   257
 75
     1
175
     1
 42
1.0
 92
        8
 66
     7
 43
1.0
 76
     1
 77
     6
 78
     2
 67
     7
 79
     5
170
     0
171
     0
290
     0
174
     0
 93
        1
 44
50.0
173
     0
291
     1
 45
0.0
  0
VISUALSTYLE
  5
3A
102
{ACAD_REACTORS
330
2A
102
}
102
{ACAD_XDICTIONARY
360
61
102
}
330
2A
100
AcDbVisualStyle
  2
ColorChange
 70
    16
 71
     2
 72
     2
 73
     3
 90
        0
 40
-0.6
 41
-30.0
 62
     5
 63
     8
421
  8421504
 74
     1
 91
        4
 64
     7
 65
   257
 75
     1
175
     1
 42
1.0
 92
        8
 66
     8
424
  8421504
 43
1.0
 76
     1
 77
     6
 78
     2
 67
     7
 79
     5
170
     0
171
     0
290
     0
174
     0
 93
        1
 44
0.0
173
     0
291
     1
 45
0.0
  0
VISUALSTYLE
  5
34
102
{ACAD_REACTORS
330
2A
102
}
102
{ACAD_XDICTIONARY
360
55
102
}
330
2A
100
AcDbVisualStyle
  2
Conceptual
 70
     9
 71
     3
 72
     2
 73
     0
 90
        0
 40
-0.6
 41
-30.0
 62
     5
 63
     7
421
 16777215
 74
     2
 91
        2
 64
     7
 65
   257
 75
     1
175
     1
 42
40.0
 92
        8
 66
     7
 43
1.0
 76
     1
 77
     6
 78
     2
 67
     7
 79
     3
170
     0
171
     0
290
     0
174
     0
 93
        1
 44
0.0
173
     0
291
     0
 45
0.0
  0
VISUALSTYLE
  5
35
102
{ACAD_REACTORS
330
2A
102
}
102
{ACAD_XDICTIONARY
360
57
102
}
330
2A
100
AcDbVisualStyle
  2
Dim
 70
    11
 71
     2
 72
     2
 73
     0
 90
        0
 40
-0.6
 41
-30.0
 62
     5
 63
     7
421
 16777215
 74
     1
 91
        4
 64
     7
 65
   257
 75
     1
175
     1
 42
1.0
 92
        8
 66
     7
 43
1.0
 76
     1
 77
     6
 78
     2
 67
     7
 79
     5
170
     0
171
     0
290
     0
174
     0
 93
        1
 44
-50.0
173
     0
291
     1
 45
0.0
  0
VISUALSTYLE
  5
39
102
{ACAD_REACTORS
330
2A
102
}
102
{ACAD_XDICTIONARY
360
5F
102
}
330
2A
100
AcDbVisualStyle
  2
Facepattern
 70
    15
 71
     2
 72
     2
 73
     0
 90
        0
 40
-0.6
 41
-30.0
 62
     5
 63
     7
421
 16777215
 74
     1
 91
        4
 64
     7
 65
   257
 75
     1
175
     1
 42
1.0
 92
        8
 66
     7
 43
1.0
 76
     1
 77
     6
 78
     2
 67
     7
 79
     5
170
     0
171
     0
290
     0
174
     0
 93
        1
 44
0.0
173
     0
291
     1
 45
0.0
  0
VISUALSTYLE
  5
2B
102
{ACAD_REACTORS
330
2A
102
}
102
{ACAD_XDICTIONARY
360
43
102
}
330
2A
100
AcDbVisualStyle
  2
Flat
 70
     0
 71
     2
 72
     1
 73
     1
 90
        2
 40
-0.6
 41
30.0
 62
     5
 63
     7
421
 16777215
 74
     0
 91
        4
 64
     7
 65
   257
 75
     1
175
     1
 42
1.0
 92
        8
 66
     7
 43
1.0
 76
     1
 77
     6
 78
     2
 67
     7
 79
     5
170
     0
171
     0
290
     0
174
     0
 93
       13
 44
0.0
173
     0
291
     1
 45
0.0
  0
VISUALSTYLE
  5
2C
102
{ACAD_REACTORS
330
2A
102
}
102
{ACAD_XDICTIONARY
360
45
102
}
330
2A
100
AcDbVisualStyle
  2
FlatWithEdges
 70
     1
 71
     2
 72
     1
 73
     1
 90
        2
 40
-0.6
 41
30.0
 62
     5
 63
     7
421
 16777215
 74
     1
 91
        4
 64
     7
 65
   257
 75
     1
175
     1
 42
1.0
 92
        0
 66
   257
 43
1.0
 76
     1
 77
     6
 78
     2
 67
     7
 79
     5
170
     0
171
     0
290
     0
174
     0
 93
       13
 44
0.0
173
     0
291
     1
 45
0.0
  0
VISUALSTYLE
  5
2D
102
{ACAD_REACTORS
330
2A
102
}
102
{ACAD_XDICTIONARY
360
47
102
}
330
2A
100
AcDbVisualStyle
  2
Gouraud
 70
     2
 71
     2
 72
     2
 73
     1
 90
        2
 40
-0.6
 41
30.0
 62
     5
 63
     7
421
 16777215
 74
     0
 91
        4
 64
     7
 65
   257
 75
     1
175
     1
 42
1.0
 92
        0
 66
     7
 43
1.0
 76
     1
 77
     6
 78
     2
 67
     7
 79
     5
170
     0
171
     0
290
     0
174
     0
 93
       13
 44
0.0
173
     0
291
     1
 45
0.0
  0
VISUALSTYLE
  5
2E
102
{ACAD_REACTORS
330
2A
102
}
102
{ACAD_XDICTIONARY
360
49
102
}
330
2A
100
AcDbVisualStyle
  2
GouraudWithEdges
 70
     3
 71
     2
 72
     2
 73
     1
 90
        2
 40
-0.6
 41
30.0
 62
     5
 63
     7
421
 16777215
 74
     1
 91
        4
 64
     7
 65
   257
 75
     1
175
     1
 42
1.0
 92
        0
 66
   257
 43
1.0
 76
     1
 77
     6
 78
     2
 67
     7
 79
     5
170
     0
171
     0
290
     0
174
     0
 93
       13
 44
0.0
173
     0
291
     1
 45
0.0
  0
VISUALSTYLE
  5
38
102
{ACAD_REACTORS
330
2A
102
}
102
{ACAD_XDICTIONARY
360
5D
102
}
330
2A
100
AcDbVisualStyle
  2
Linepattern
 70
    14
 71
     2
 72
     2
 73
     0
 90
        0
 40
-0.6
 41
-30.0
 62
     5
 63
     7
421
 16777215
 74
     1
 91
        4
 64
     7
 65
   257
 75
     7
175
     7
 42
1.0
 92
        8
 66
     7
 43
1.0
 76
     1
 77
     6
 78
     2
 67
     7
 79
     5
170
     0
171
     0
290
     0
174
     0
 93
        1
 44
0.0
173
     0
291
     1
 45
0.0
  0
VISUALSTYLE
  5
33
102
{ACAD_REACTORS
330
2A
102
}
102
{ACAD_XDICTIONARY
360
53
102
}
330
2A
100
AcDbVisualStyle
  2
Realistic
 70
     8
 71
     2
 72
     2
 73
     0
 90
        0
 40
-0.6
 41
-30.0
 62
     5
 63
     7
421
 16777215
 74
     1
 91
        0
 64
     7
 65
   257
 75
     1
175
     1
 42
1.0
 92
        8
 66
     8
424
  7895160
 43
1.0
 76
     1
 77
     6
 78
     2
 67
     7
 79
     5
170
     0
171
     0
290
     0
174
     0
 93
       13
 44
0.0
173
     0
291
     0
 45
0.0
  0
VISUALSTYLE
  5
37
102
{ACAD_REACTORS
330
2A
102
}
102
{ACAD_XDICTIONARY
360
5B
102
}
330
2A
100
AcDbVisualStyle
  2
Thicken
 70
    13
 71
     2
 72
     2
 73
     0
 90
        0
 40
-0.6
 41
-30.0
 62
     5
 63
     7
421
 16777215
 74
     1
 91
        4
 64
     7
 65
   257
 75
     1
175
     1
 42
1.0
 92
       12
 66
     7
 43
1.0
 76
     1
 77
     6
 78
     2
 67
     7
 79
     5
170
     0
171
     0
290
     0
174
     0
 93
        1
 44
0.0
173
     0
291
     1
 45
0.0
  0
DICTIONARY
  5
4B
330
2F
100
AcDbDictionary
280
     1
281
     1
  3
ACAD_XREC_ROUNDTRIP
360
4C
  0
DICTIONARY
  5
4F
330
31
100
AcDbDictionary
280
     1
281
     1
  3
ACAD_XREC_ROUNDTRIP
360
50
  0
DICTIONARY
  5
4D
330
30
100
AcDbDictionary
280
     1
281
     1
  3
ACAD_XREC_ROUNDTRIP
360
4E
  0
DICTIONARY
  5
51
330
32
100
AcDbDictionary
280
     1
281
     1
  3
ACAD_XREC_ROUNDTRIP
360
52
  0
DICTIONARY
  5
59
330
36
100
AcDbDictionary
280
     1
281
     1
  3
ACAD_XREC_ROUNDTRIP
360
5A
  0
DICTIONARY
  5
61
330
3A
100
AcDbDictionary
280
     1
281
     1
  3
ACAD_XREC_ROUNDTRIP
360
62
  0
DICTIONARY
  5
55
330
34
100
AcDbDictionary
280
     1
281
     1
  3
ACAD_XREC_ROUNDTRIP
360
56
  0
DICTIONARY
  5
57
330
35
100
AcDbDictionary
280
     1
281
     1
  3
ACAD_XREC_ROUNDTRIP
360
58
  0
DICTIONARY
  5
5F
330
39
100
AcDbDictionary
280
     1
281
     1
  3
ACAD_XREC_ROUNDTRIP
360
60
  0
DICTIONARY
  5
43
330
2B
100
AcDbDictionary
280
     1
281
     1
  3
ACAD_XREC_ROUNDTRIP
360
44
  0
DICTIONARY
  5
45
330
2C
100
AcDbDictionary
280
     1
281
     1
  3
ACAD_XREC_ROUNDTRIP
360
46
  0
DICTIONARY
  5
47
330
2D
100
AcDbDictionary
280
     1
281
     1
  3
ACAD_XREC_ROUNDTRIP
360
48
  0
DICTIONARY
  5
49
330
2E
100
AcDbDictionary
280
     1
281
     1
  3
ACAD_XREC_ROUNDTRIP
360
4A
  0
DICTIONARY
  5
5D
330
38
100
AcDbDictionary
280
     1
281
     1
  3
ACAD_XREC_ROUNDTRIP
360
5E
  0
DICTIONARY
  5
53
330
33
100
AcDbDictionary
280
     1
281
     1
  3
ACAD_XREC_ROUNDTRIP
360
54
  0
DICTIONARY
  5
5B
330
37
100
AcDbDictionary
280
     1
281
     1
  3
ACAD_XREC_ROUNDTRIP
360
5C
  0
XRECORD
  5
4C
102
{ACAD_REACTORS
330
4B
102
}
330
4B
100
AcDbXrecord
280
     1
102
RTVSPropertyOp0
 70
     1
102
RTVSPropertyOp1
 70
     1
102
RTVSPropertyOp2
 70
     1
102
RTVSPropertyOp3
 70
     1
102
RTVSPropertyOp4
 70
     1
102
RTVSPropertyOp5
 70
     1
102
RTVSPropertyOp6
 70
     1
102
RTVSPropertyOp7
 70
     1
102
RTVSPropertyOp8
 70
     1
102
RTVSPropertyOp9
 70
     1
102
RTVSPropertyOp10
 70
     1
102
RTVSPropertyOp11
 70
     1
102
RTVSPropertyOp12
 70
     1
102
RTVSPropertyOp13
 70
     1
102
RTVSPropertyOp14
 70
     1
102
RTVSPropertyOp15
 70
     1
102
RTVSPropertyOp16
 70
     1
102
RTVSPropertyOp17
 70
     1
102
RTVSPropertyOp18
 70
     1
102
RTVSPropertyOp19
 70
     1
102
RTVSPropertyOp20
 70
     1
102
RTVSPropertyOp21
 70
     1
102
RTVSPropertyOp22
 70
     1
102
RTVSPropertyOp23
 70
     1
102
RTVSPropertyOp24
 70
     1
102
RTVSPropertyOp25
 70
     1
102
RTVSPropertyOp26
 70
     1
102
RTVSPropertyOp27
 70
     1
102
RTVSPropertyOp28
 70
     1
102
RTVSPropertyOp29
 70
     1
102
RTVSPropertyOp30
 70
     1
102
RTVSPropertyOp31
 70
     1
102
RTVSPropertyOp32
 70
     1
  0
XRECORD
  5
50
102
{ACAD_REACTORS
330
4F
102
}
330
4F
100
AcDbXrecord
280
     1
102
RTVSPropertyOp0
 70
     1
102
RTVSPropertyOp1
 70
     1
102
RTVSPropertyOp2
 70
     1
102
RTVSPropertyOp3
 70
     1
102
RTVSPropertyOp4
 70
     1
102
RTVSPropertyOp5
 70
     1
102
RTVSPropertyOp6
 70
     1
102
RTVSPropertyOp7
 70
     1
102
RTVSPropertyOp8
 70
     1
102
RTVSPropertyOp9
 70
     1
102
RTVSPropertyOp10
 70
     1
102
RTVSPropertyOp11
 70
     1
102
RTVSPropertyOp12
 70
     1
102
RTVSPropertyOp13
 70
     1
102
RTVSPropertyOp14
 70
     1
102
RTVSPropertyOp15
 70
     1
102
RTVSPropertyOp16
 70
     1
102
RTVSPropertyOp17
 70
     1
102
RTVSPropertyOp18
 70
     1
102
RTVSPropertyOp19
 70
     1
102
RTVSPropertyOp20
 70
     1
102
RTVSPropertyOp21
 70
     1
102
RTVSPropertyOp22
 70
     1
102
RTVSPropertyOp23
 70
     1
102
RTVSPropertyOp24
 70
     1
102
RTVSPropertyOp25
 70
     1
102
RTVSPropertyOp26
 70
     1
102
RTVSPropertyOp27
 70
     1
102
RTVSPropertyOp28
 70
     1
102
RTVSPropertyOp29
 70
     1
102
RTVSPropertyOp30
 70
     1
102
RTVSPropertyOp31
 70
     1
102
RTVSPropertyOp32
 70
     1
  0
XRECORD
  5
4E
102
{ACAD_REACTORS
330
4D
102
}
330
4D
100
AcDbXrecord
280
     1
102
RTVSPropertyOp0
 70
     1
102
RTVSPropertyOp1
 70
     1
102
RTVSPropertyOp2
 70
     1
102
RTVSPropertyOp3
 70
     1
102
RTVSPropertyOp4
 70
     1
102
RTVSPropertyOp5
 70
     1
102
RTVSPropertyOp6
 70
     1
102
RTVSPropertyOp7
 70
     1
102
RTVSPropertyOp8
 70
     1
102
RTVSPropertyOp9
 70
     1
102
RTVSPropertyOp10
 70
     1
102
RTVSPropertyOp11
 70
     1
102
RTVSPropertyOp12
 70
     1
102
RTVSPropertyOp13
 70
     1
102
RTVSPropertyOp14
 70
     1
102
RTVSPropertyOp15
 70
     1
102
RTVSPropertyOp16
 70
     1
102
RTVSPropertyOp17
 70
     1
102
RTVSPropertyOp18
 70
     1
102
RTVSPropertyOp19
 70
     1
102
RTVSPropertyOp20
 70
     1
102
RTVSPropertyOp21
 70
     1
102
RTVSPropertyOp22
 70
     1
102
RTVSPropertyOp23
 70
     1
102
RTVSPropertyOp24
 70
     1
102
RTVSPropertyOp25
 70
     1
102
RTVSPropertyOp26
 70
     1
102
RTVSPropertyOp27
 70
     1
102
RTVSPropertyOp28
 70
     1
102
RTVSPropertyOp29
 70
     1
102
RTVSPropertyOp30
 70
     1
102
RTVSPropertyOp31
 70
     1
102
RTVSPropertyOp32
 70
     1
  0
XRECORD
  5
52
102
{ACAD_REACTORS
330
51
102
}
330
51
100
AcDbXrecord
280
     1
102
RTVSPropertyOp0
 70
     1
102
RTVSPropertyOp1
 70
     1
102
RTVSPropertyOp2
 70
     1
102
RTVSPropertyOp3
 70
     1
102
RTVSPropertyOp4
 70
     1
102
RTVSPropertyOp5
 70
     1
102
RTVSPropertyOp6
 70
     1
102
RTVSPropertyOp7
 70
     1
102
RTVSPropertyOp8
 70
     1
102
RTVSPropertyOp9
 70
     1
102
RTVSPropertyOp10
 70
     1
102
RTVSPropertyOp11
 70
     1
102
RTVSPropertyOp12
 70
     1
102
RTVSPropertyOp13
 70
     1
102
RTVSPropertyOp14
 70
     1
102
RTVSPropertyOp15
 70
     1
102
RTVSPropertyOp16
 70
     1
102
RTVSPropertyOp17
 70
     1
102
RTVSPropertyOp18
 70
     1
102
RTVSPropertyOp19
 70
     1
102
RTVSPropertyOp20
 70
     1
102
RTVSPropertyOp21
 70
     1
102
RTVSPropertyOp22
 70
     1
102
RTVSPropertyOp23
 70
     1
102
RTVSPropertyOp24
 70
     1
102
RTVSPropertyOp25
 70
     1
102
RTVSPropertyOp26
 70
     1
102
RTVSPropertyOp27
 70
     1
102
RTVSPropertyOp28
 70
     1
102
RTVSPropertyOp29
 70
     1
102
RTVSPropertyOp30
 70
     1
102
RTVSPropertyOp31
 70
     1
102
RTVSPropertyOp32
 70
     1
  0
XRECORD
  5
5A
102
{ACAD_REACTORS
330
59
102
}
330
59
100
AcDbXrecord
280
     1
102
RTVSPropertyOp0
 70
     1
102
RTVSPropertyOp1
 70
     1
102
RTVSPropertyOp2
 70
     1
102
RTVSPropertyOp3
 70
     1
102
RTVSPropertyOp4
 70
     1
102
RTVSPropertyOp5
 70
     1
102
RTVSPropertyOp6
 70
     1
102
RTVSPropertyOp7
 70
     1
102
RTVSPropertyOp8
 70
     1
102
RTVSPropertyOp9
 70
     1
102
RTVSPropertyOp10
 70
     1
102
RTVSPropertyOp11
 70
     1
102
RTVSPropertyOp12
 70
     1
102
RTVSPropertyOp13
 70
     1
102
RTVSPropertyOp14
 70
     1
102
RTVSPropertyOp15
 70
     1
102
RTVSPropertyOp16
 70
     1
102
RTVSPropertyOp17
 70
     1
102
RTVSPropertyOp18
 70
     1
102
RTVSPropertyOp19
 70
     1
102
RTVSPropertyOp20
 70
     1
102
RTVSPropertyOp21
 70
     1
102
RTVSPropertyOp22
 70
     1
102
RTVSPropertyOp23
 70
     1
102
RTVSPropertyOp24
 70
     1
102
RTVSPropertyOp25
 70
     1
102
RTVSPropertyOp26
 70
     1
102
RTVSPropertyOp27
 70
     1
102
RTVSPropertyOp28
 70
     1
102
RTVSPropertyOp29
 70
     1
102
RTVSPropertyOp30
 70
     1
102
RTVSPropertyOp31
 70
     1
102
RTVSPropertyOp32
 70
     1
  0
XRECORD
  5
62
102
{ACAD_REACTORS
330
61
102
}
330
61
100
AcDbXrecord
280
     1
102
RTVSPropertyOp0
 70
     1
102
RTVSPropertyOp1
 70
     1
102
RTVSPropertyOp2
 70
     1
102
RTVSPropertyOp3
 70
     1
102
RTVSPropertyOp4
 70
     1
102
RTVSPropertyOp5
 70
     1
102
RTVSPropertyOp6
 70
     1
102
RTVSPropertyOp7
 70
     1
102
RTVSPropertyOp8
 70
     1
102
RTVSPropertyOp9
 70
     1
102
RTVSPropertyOp10
 70
     1
102
RTVSPropertyOp11
 70
     1
102
RTVSPropertyOp12
 70
     1
102
RTVSPropertyOp13
 70
     1
102
RTVSPropertyOp14
 70
     1
102
RTVSPropertyOp15
 70
     1
102
RTVSPropertyOp16
 70
     1
102
RTVSPropertyOp17
 70
     1
102
RTVSPropertyOp18
 70
     1
102
RTVSPropertyOp19
 70
     1
102
RTVSPropertyOp20
 70
     1
102
RTVSPropertyOp21
 70
     1
102
RTVSPropertyOp22
 70
     1
102
RTVSPropertyOp23
 70
     1
102
RTVSPropertyOp24
 70
     1
102
RTVSPropertyOp25
 70
     1
102
RTVSPropertyOp26
 70
     1
102
RTVSPropertyOp27
 70
     1
102
RTVSPropertyOp28
 70
     1
102
RTVSPropertyOp29
 70
     1
102
RTVSPropertyOp30
 70
     1
102
RTVSPropertyOp31
 70
     1
102
RTVSPropertyOp32
 70
     1
  0
XRECORD
  5
56
102
{ACAD_REACTORS
330
55
102
}
330
55
100
AcDbXrecord
280
     1
102
RTVSPropertyOp0
 70
     1
102
RTVSPropertyOp1
 70
     1
102
RTVSPropertyOp2
 70
     1
102
RTVSPropertyOp3
 70
     1
102
RTVSPropertyOp4
 70
     1
102
RTVSPropertyOp5
 70
     1
102
RTVSPropertyOp6
 70
     1
102
RTVSPropertyOp7
 70
     1
102
RTVSPropertyOp8
 70
     1
102
RTVSPropertyOp9
 70
     1
102
RTVSPropertyOp10
 70
     1
102
RTVSPropertyOp11
 70
     1
102
RTVSPropertyOp12
 70
     1
102
RTVSPropertyOp13
 70
     1
102
RTVSPropertyOp14
 70
     1
102
RTVSPropertyOp15
 70
     1
102
RTVSPropertyOp16
 70
     1
102
RTVSPropertyOp17
 70
     1
102
RTVSPropertyOp18
 70
     1
102
RTVSPropertyOp19
 70
     1
102
RTVSPropertyOp20
 70
     1
102
RTVSPropertyOp21
 70
     1
102
RTVSPropertyOp22
 70
     1
102
RTVSPropertyOp23
 70
     1
102
RTVSPropertyOp24
 70
     1
102
RTVSPropertyOp25
 70
     1
102
RTVSPropertyOp26
 70
     1
102
RTVSPropertyOp27
 70
     1
102
RTVSPropertyOp28
 70
     1
102
RTVSPropertyOp29
 70
     1
102
RTVSPropertyOp30
 70
     1
102
RTVSPropertyOp31
 70
     1
102
RTVSPropertyOp32
 70
     1
  0
XRECORD
  5
58
102
{ACAD_REACTORS
330
57
102
}
330
57
100
AcDbXrecord
280
     1
102
RTVSPropertyOp0
 70
     1
102
RTVSPropertyOp1
 70
     1
102
RTVSPropertyOp2
 70
     1
102
RTVSPropertyOp3
 70
     1
102
RTVSPropertyOp4
 70
     1
102
RTVSPropertyOp5
 70
     1
102
RTVSPropertyOp6
 70
     1
102
RTVSPropertyOp7
 70
     1
102
RTVSPropertyOp8
 70
     1
102
RTVSPropertyOp9
 70
     1
102
RTVSPropertyOp10
 70
     1
102
RTVSPropertyOp11
 70
     1
102
RTVSPropertyOp12
 70
     1
102
RTVSPropertyOp13
 70
     1
102
RTVSPropertyOp14
 70
     1
102
RTVSPropertyOp15
 70
     1
102
RTVSPropertyOp16
 70
     1
102
RTVSPropertyOp17
 70
     1
102
RTVSPropertyOp18
 70
     1
102
RTVSPropertyOp19
 70
     1
102
RTVSPropertyOp20
 70
     1
102
RTVSPropertyOp21
 70
     1
102
RTVSPropertyOp22
 70
     1
102
RTVSPropertyOp23
 70
     1
102
RTVSPropertyOp24
 70
     1
102
RTVSPropertyOp25
 70
     1
102
RTVSPropertyOp26
 70
     1
102
RTVSPropertyOp27
 70
     1
102
RTVSPropertyOp28
 70
     1
102
RTVSPropertyOp29
 70
     1
102
RTVSPropertyOp30
 70
     1
102
RTVSPropertyOp31
 70
     1
102
RTVSPropertyOp32
 70
     1
  0
XRECORD
  5
60
102
{ACAD_REACTORS
330
5F
102
}
330
5F
100
AcDbXrecord
280
     1
102
RTVSPropertyOp0
 70
     1
102
RTVSPropertyOp1
 70
     1
102
RTVSPropertyOp2
 70
     1
102
RTVSPropertyOp3
 70
     1
102
RTVSPropertyOp4
 70
     1
102
RTVSPropertyOp5
 70
     1
102
RTVSPropertyOp6
 70
     1
102
RTVSPropertyOp7
 70
     1
102
RTVSPropertyOp8
 70
     1
102
RTVSPropertyOp9
 70
     1
102
RTVSPropertyOp10
 70
     1
102
RTVSPropertyOp11
 70
     1
102
RTVSPropertyOp12
 70
     1
102
RTVSPropertyOp13
 70
     1
102
RTVSPropertyOp14
 70
     1
102
RTVSPropertyOp15
 70
     1
102
RTVSPropertyOp16
 70
     1
102
RTVSPropertyOp17
 70
     1
102
RTVSPropertyOp18
 70
     1
102
RTVSPropertyOp19
 70
     1
102
RTVSPropertyOp20
 70
     1
102
RTVSPropertyOp21
 70
     1
102
RTVSPropertyOp22
 70
     1
102
RTVSPropertyOp23
 70
     1
102
RTVSPropertyOp24
 70
     1
102
RTVSPropertyOp25
 70
     1
102
RTVSPropertyOp26
 70
     1
102
RTVSPropertyOp27
 70
     1
102
RTVSPropertyOp28
 70
     1
102
RTVSPropertyOp29
 70
     1
102
RTVSPropertyOp30
 70
     1
102
RTVSPropertyOp31
 70
     1
102
RTVSPropertyOp32
 70
     1
  0
XRECORD
  5
44
102
{ACAD_REACTORS
330
43
102
}
330
43
100
AcDbXrecord
280
     1
102
RTVSPropertyOp0
 70
     1
102
RTVSPropertyOp1
 70
     1
102
RTVSPropertyOp2
 70
     1
102
RTVSPropertyOp3
 70
     1
102
RTVSPropertyOp4
 70
     1
102
RTVSPropertyOp5
 70
     1
102
RTVSPropertyOp6
 70
     1
102
RTVSPropertyOp7
 70
     1
102
RTVSPropertyOp8
 70
     1
102
RTVSPropertyOp9
 70
     1
102
RTVSPropertyOp10
 70
     1
102
RTVSPropertyOp11
 70
     1
102
RTVSPropertyOp12
 70
     1
102
RTVSPropertyOp13
 70
     1
102
RTVSPropertyOp14
 70
     1
102
RTVSPropertyOp15
 70
     1
102
RTVSPropertyOp16
 70
     1
102
RTVSPropertyOp17
 70
     1
102
RTVSPropertyOp18
 70
     1
102
RTVSPropertyOp19
 70
     1
102
RTVSPropertyOp20
 70
     1
102
RTVSPropertyOp21
 70
     1
102
RTVSPropertyOp22
 70
     1
102
RTVSPropertyOp23
 70
     1
102
RTVSPropertyOp24
 70
     1
102
RTVSPropertyOp25
 70
     1
102
RTVSPropertyOp26
 70
     1
102
RTVSPropertyOp27
 70
     1
102
RTVSPropertyOp28
 70
     1
102
RTVSPropertyOp29
 70
     1
102
RTVSPropertyOp30
 70
     1
102
RTVSPropertyOp31
 70
     1
102
RTVSPropertyOp32
 70
     1
  0
XRECORD
  5
46
102
{ACAD_REACTORS
330
45
102
}
330
45
100
AcDbXrecord
280
     1
102
RTVSPropertyOp0
 70
     1
102
RTVSPropertyOp1
 70
     1
102
RTVSPropertyOp2
 70
     1
102
RTVSPropertyOp3
 70
     1
102
RTVSPropertyOp4
 70
     1
102
RTVSPropertyOp5
 70
     1
102
RTVSPropertyOp6
 70
     1
102
RTVSPropertyOp7
 70
     1
102
RTVSPropertyOp8
 70
     1
102
RTVSPropertyOp9
 70
     1
102
RTVSPropertyOp10
 70
     1
102
RTVSPropertyOp11
 70
     1
102
RTVSPropertyOp12
 70
     1
102
RTVSPropertyOp13
 70
     1
102
RTVSPropertyOp14
 70
     1
102
RTVSPropertyOp15
 70
     1
102
RTVSPropertyOp16
 70
     1
102
RTVSPropertyOp17
 70
     1
102
RTVSPropertyOp18
 70
     1
102
RTVSPropertyOp19
 70
     1
102
RTVSPropertyOp20
 70
     1
102
RTVSPropertyOp21
 70
     1
102
RTVSPropertyOp22
 70
     1
102
RTVSPropertyOp23
 70
     1
102
RTVSPropertyOp24
 70
     1
102
RTVSPropertyOp25
 70
     1
102
RTVSPropertyOp26
 70
     1
102
RTVSPropertyOp27
 70
     1
102
RTVSPropertyOp28
 70
     1
102
RTVSPropertyOp29
 70
     1
102
RTVSPropertyOp30
 70
     1
102
RTVSPropertyOp31
 70
     1
102
RTVSPropertyOp32
 70
     1
  0
XRECORD
  5
48
102
{ACAD_REACTORS
330
47
102
}
330
47
100
AcDbXrecord
280
     1
102
RTVSPropertyOp0
 70
     1
102
RTVSPropertyOp1
 70
     1
102
RTVSPropertyOp2
 70
     1
102
RTVSPropertyOp3
 70
     1
102
RTVSPropertyOp4
 70
     1
102
RTVSPropertyOp5
 70
     1
102
RTVSPropertyOp6
 70
     1
102
RTVSPropertyOp7
 70
     1
102
RTVSPropertyOp8
 70
     1
102
RTVSPropertyOp9
 70
     1
102
RTVSPropertyOp10
 70
     1
102
RTVSPropertyOp11
 70
     1
102
RTVSPropertyOp12
 70
     1
102
RTVSPropertyOp13
 70
     1
102
RTVSPropertyOp14
 70
     1
102
RTVSPropertyOp15
 70
     1
102
RTVSPropertyOp16
 70
     1
102
RTVSPropertyOp17
 70
     1
102
RTVSPropertyOp18
 70
     1
102
RTVSPropertyOp19
 70
     1
102
RTVSPropertyOp20
 70
     1
102
RTVSPropertyOp21
 70
     1
102
RTVSPropertyOp22
 70
     1
102
RTVSPropertyOp23
 70
     1
102
RTVSPropertyOp24
 70
     1
102
RTVSPropertyOp25
 70
     1
102
RTVSPropertyOp26
 70
     1
102
RTVSPropertyOp27
 70
     1
102
RTVSPropertyOp28
 70
     1
102
RTVSPropertyOp29
 70
     1
102
RTVSPropertyOp30
 70
     1
102
RTVSPropertyOp31
 70
     1
102
RTVSPropertyOp32
 70
     1
  0
XRECORD
  5
4A
102
{ACAD_REACTORS
330
49
102
}
330
49
100
AcDbXrecord
280
     1
102
RTVSPropertyOp0
 70
     1
102
RTVSPropertyOp1
 70
     1
102
RTVSPropertyOp2
 70
     1
102
RTVSPropertyOp3
 70
     1
102
RTVSPropertyOp4
 70
     1
102
RTVSPropertyOp5
 70
     1
102
RTVSPropertyOp6
 70
     1
102
RTVSPropertyOp7
 70
     1
102
RTVSPropertyOp8
 70
     1
102
RTVSPropertyOp9
 70
     1
102
RTVSPropertyOp10
 70
     1
102
RTVSPropertyOp11
 70
     1
102
RTVSPropertyOp12
 70
     1
102
RTVSPropertyOp13
 70
     1
102
RTVSPropertyOp14
 70
     1
102
RTVSPropertyOp15
 70
     1
102
RTVSPropertyOp16
 70
     1
102
RTVSPropertyOp17
 70
     1
102
RTVSPropertyOp18
 70
     1
102
RTVSPropertyOp19
 70
     1
102
RTVSPropertyOp20
 70
     1
102
RTVSPropertyOp21
 70
     1
102
RTVSPropertyOp22
 70
     1
102
RTVSPropertyOp23
 70
     1
102
RTVSPropertyOp24
 70
     1
102
RTVSPropertyOp25
 70
     1
102
RTVSPropertyOp26
 70
     1
102
RTVSPropertyOp27
 70
     1
102
RTVSPropertyOp28
 70
     1
102
RTVSPropertyOp29
 70
     1
102
RTVSPropertyOp30
 70
     1
102
RTVSPropertyOp31
 70
     1
102
RTVSPropertyOp32
 70
     1
  0
XRECORD
  5
5E
102
{ACAD_REACTORS
330
5D
102
}
330
5D
100
AcDbXrecord
280
     1
102
RTVSPropertyOp0
 70
     1
102
RTVSPropertyOp1
 70
     1
102
RTVSPropertyOp2
 70
     1
102
RTVSPropertyOp3
 70
     1
102
RTVSPropertyOp4
 70
     1
102
RTVSPropertyOp5
 70
     1
102
RTVSPropertyOp6
 70
     1
102
RTVSPropertyOp7
 70
     1
102
RTVSPropertyOp8
 70
     1
102
RTVSPropertyOp9
 70
     1
102
RTVSPropertyOp10
 70
     1
102
RTVSPropertyOp11
 70
     1
102
RTVSPropertyOp12
 70
     1
102
RTVSPropertyOp13
 70
     1
102
RTVSPropertyOp14
 70
     1
102
RTVSPropertyOp15
 70
     1
102
RTVSPropertyOp16
 70
     1
102
RTVSPropertyOp17
 70
     1
102
RTVSPropertyOp18
 70
     1
102
RTVSPropertyOp19
 70
     1
102
RTVSPropertyOp20
 70
     1
102
RTVSPropertyOp21
 70
     1
102
RTVSPropertyOp22
 70
     1
102
RTVSPropertyOp23
 70
     1
102
RTVSPropertyOp24
 70
     1
102
RTVSPropertyOp25
 70
     1
102
RTVSPropertyOp26
 70
     1
102
RTVSPropertyOp27
 70
     1
102
RTVSPropertyOp28
 70
     1
102
RTVSPropertyOp29
 70
     1
102
RTVSPropertyOp30
 70
     1
102
RTVSPropertyOp31
 70
     1
102
RTVSPropertyOp32
 70
     1
  0
XRECORD
  5
54
102
{ACAD_REACTORS
330
53
102
}
330
53
100
AcDbXrecord
280
     1
102
RTVSPropertyOp0
 70
     1
102
RTVSPropertyOp1
 70
     1
102
RTVSPropertyOp2
 70
     1
102
RTVSPropertyOp3
 70
     1
102
RTVSPropertyOp4
 70
     1
102
RTVSPropertyOp5
 70
     1
102
RTVSPropertyOp6
 70
     1
102
RTVSPropertyOp7
 70
     1
102
RTVSPropertyOp8
 70
     1
102
RTVSPropertyOp9
 70
     1
102
RTVSPropertyOp10
 70
     1
102
RTVSPropertyOp11
 70
     1
102
RTVSPropertyOp12
 70
     1
102
RTVSPropertyOp13
 70
     1
102
RTVSPropertyOp14
 70
     1
102
RTVSPropertyOp15
 70
     1
102
RTVSPropertyOp16
 70
     1
102
RTVSPropertyOp17
 70
     1
102
RTVSPropertyOp18
 70
     1
102
RTVSPropertyOp19
 70
     1
102
RTVSPropertyOp20
 70
     1
102
RTVSPropertyOp21
 70
     1
102
RTVSPropertyOp22
 70
     1
102
RTVSPropertyOp23
 70
     1
102
RTVSPropertyOp24
 70
     1
102
RTVSPropertyOp25
 70
     1
102
RTVSPropertyOp26
 70
     1
102
RTVSPropertyOp27
 70
     1
102
RTVSPropertyOp28
 70
     1
102
RTVSPropertyOp29
 70
     1
102
RTVSPropertyOp30
 70
     1
102
RTVSPropertyOp31
 70
     1
102
RTVSPropertyOp32
 70
     1
  0
XRECORD
  5
5C
102
{ACAD_REACTORS
330
5B
102
}
330
5B
100
AcDbXrecord
280
     1
102
RTVSPropertyOp0
 70
     1
102
RTVSPropertyOp1
 70
     1
102
RTVSPropertyOp2
 70
     1
102
RTVSPropertyOp3
 70
     1
102
RTVSPropertyOp4
 70
     1
102
RTVSPropertyOp5
 70
     1
102
RTVSPropertyOp6
 70
     1
102
RTVSPropertyOp7
 70
     1
102
RTVSPropertyOp8
 70
     1
102
RTVSPropertyOp9
 70
     1
102
RTVSPropertyOp10
 70
     1
102
RTVSPropertyOp11
 70
     1
102
RTVSPropertyOp12
 70
     1
102
RTVSPropertyOp13
 70
     1
102
RTVSPropertyOp14
 70
     1
102
RTVSPropertyOp15
 70
     1
102
RTVSPropertyOp16
 70
     1
102
RTVSPropertyOp17
 70
     1
102
RTVSPropertyOp18
 70
     1
102
RTVSPropertyOp19
 70
     1
102
RTVSPropertyOp20
 70
     1
102
RTVSPropertyOp21
 70
     1
102
RTVSPropertyOp22
 70
     1
102
RTVSPropertyOp23
 70
     1
102
RTVSPropertyOp24
 70
     1
102
RTVSPropertyOp25
 70
     1
102
RTVSPropertyOp26
 70
     1
102
RTVSPropertyOp27
 70
     1
102
RTVSPropertyOp28
 70
     1
102
RTVSPropertyOp29
 70
     1
102
RTVSPropertyOp30
 70
     1
102
RTVSPropertyOp31
 70
     1
102
RTVSPropertyOp32
 70
     1
  0
ENDSEC
  0
EOF
