  0
SECTION
  2
HEADER
  9
$ACADVER
  1
AC1021
  9
$ACADMAINTVER
 70
    25
  9
$DWGCODEPAGE
  3
ANSI_1252
  9
$INSBASE
 10
0.0
 20
0.0
 30
0.0
  9
$EXTMIN
 10
-6.77715
 20
-1.81826
 30
0.0
  9
$EXTMAX
 10
6.27715
 20
4.5322
 30
0.0
  9
$LIMMIN
 10
0.0
 20
0.0
  9
$LIMMAX
 10
12.0
 20
9.0
  9
$ORTHOMODE
 70
     0
  9
$REGENMODE
 70
     1
  9
$FILLMODE
 70
     1
  9
$QTEXTMODE
 70
     0
  9
$MIRRTEXT
 70
     1
  9
$LTSCALE
 40
1.0
  9
$ATTMODE
 70
     1
  9
$TEXTSIZE
 40
0.2
  9
$TRACEWID
 40
0.05
  9
$TEXTSTYLE
  7
Standard
  9
$CLAYER
  8
0
  9
$CELTYPE
  6
ByLayer
  9
$CECOLOR
 62
   256
  9
$CELTSCALE
 40
1.0
  9
$DISPSILH
 70
     0
  9
$DIMSCALE
 40
1.0
  9
$DIMASZ
 40
0.18
  9
$DIMEXO
 40
0.0625
  9
$DIMDLI
 40
0.38
  9
$DIMRND
 40
0.0
  9
$DIMDLE
 40
0.0
  9
$DIMEXE
 40
0.18
  9
$DIMTP
 40
0.0
  9
$DIMTM
 40
0.0
  9
$DIMTXT
 40
0.18
  9
$DIMCEN
 40
0.09
  9
$DIMTSZ
 40
0.0
  9
$DIMTOL
 70
     0
  9
$DIMLIM
 70
     0
  9
$DIMTIH
 70
     1
  9
$DIMTOH
 70
     1
  9
$DIMSE1
 70
     0
  9
$DIMSE2
 70
     0
  9
$DIMTAD
 70
     0
  9
$DIMZIN
 70
     0
  9
$DIMBLK
  1

  9
$DIMASO
 70
     1
  9
$DIMSHO
 70
     1
  9
$DIMPOST
  1

  9
$DIMAPOST
  1

  9
$DIMALT
 70
     0
  9
$DIMALTD
 70
     2
  9
$DIMALTF
 40
25.4
  9
$DIMLFAC
 40
1.0
  9
$DIMTOFL
 70
     0
  9
$DIMTVP
 40
0.0
  9
$DIMTIX
 70
     0
  9
$DIMSOXD
 70
     0
  9
$DIMSAH
 70
     0
  9
$DIMBLK1
  1

  9
$DIMBLK2
  1

  9
$DIMSTYLE
  2
Standard
  9
$DIMCLRD
 70
     0
  9
$DIMCLRE
 70
     0
  9
$DIMCLRT
 70
     0
  9
$DIMTFAC
 40
1.0
  9
$DIMGAP
 40
0.09
  9
$DIMJUST
 70
     0
  9
$DIMSD1
 70
     0
  9
$DIMSD2
 70
     0
  9
$DIMTOLJ
 70
     1
  9
$DIMTZIN
 70
     0
  9
$DIMALTZ
 70
     0
  9
$DIMALTTZ
 70
     0
  9
$DIMUPT
 70
     0
  9
$DIMDEC
 70
     4
  9
$DIMTDEC
 70
     4
  9
$DIMALTU
 70
     2
  9
$DIMALTTD
 70
     2
  9
$DIMTXSTY
  7
Standard
  9
$DIMAUNIT
 70
     0
  9
$DIMADEC
 70
     0
  9
$DIMALTRND
 40
0.0
  9
$DIMAZIN
 70
     0
  9
$DIMDSEP
 70
    46
  9
$DIMATFIT
 70
     3
  9
$DIMFRAC
 70
     0
  9
$DIMLDRBLK
  1

  9
$DIMLUNIT
 70
     2
  9
$DIMLWD
 70
    -2
  9
$DIMLWE
 70
    -2
  9
$DIMTMOVE
 70
     0
  9
$DIMFXL
 40
1.0
  9
$DIMFXLON
 70
     0
  9
$DIMJOGANG
 40
0.7853981633974483
  9
$DIMTFILL
 70
     0
  9
$DIMTFILLCLR
 70
     0
  9
$DIMARCSYM
 70
     0
  9
$DIMLTYPE
  6

  9
$DIMLTEX1
  6

  9
$DIMLTEX2
  6

  9
$LUNITS
 70
     2
  9
$LUPREC
 70
     4
  9
$SKETCHINC
 40
0.1
  9
$FILLETRAD
 40
0.5
  9
$AUNITS
 70
     0
  9
$AUPREC
 70
     0
  9
$MENU
  1
.
  9
$ELEVATION
 40
0.0
  9
$PELEVATION
 40
0.0
  9
$THICKNESS
 40
0.0
  9
$LIMCHECK
 70
     0
  9
$CHAMFERA
 40
0.5
  9
$CHAMFERB
 40
0.5
  9
$CHAMFERC
 40
1.0
  9
$CHAMFERD
 40
0.0
  9
$SKPOLY
 70
     0
  9
$TDCREATE
 40
2460554.865410718
  9
$TDUCREATE
 40
2460554.823744051
  9
$TDUPDATE
 40
2460554.865410752
  9
$TDUUPDATE
 40
2460554.823744086
  9
$TDINDWG
 40
0.0000000116
  9
$TDUSRTIMER
 40
0.0000000116
  9
$USRTIMER
 70
     1
  9
$ANGBASE
 50
0.0
  9
$ANGDIR
 70
     0
  9
$PDMODE
 70
     0
  9
$PDSIZE
 40
0.0
  9
$PLINEWID
 40
0.0
  9
$SPLFRAME
 70
     0
  9
$SPLINETYPE
 70
     6
  9
$SPLINESEGS
 70
     8
  9
$HANDSEED
  5
7B
  9
$SURFTAB1
 70
     6
  9
$SURFTAB2
 70
     6
  9
$SURFTYPE
 70
     6
  9
$SURFU
 70
     6
  9
$SURFV
 70
     6
  9
$UCSBASE
  2

  9
$UCSNAME
  2

  9
$UCSORG
 10
0.0
 20
0.0
 30
0.0
  9
$UCSXDIR
 10
1.0
 20
0.0
 30
0.0
  9
$UCSYDIR
 10
0.0
 20
1.0
 30
0.0
  9
$UCSORTHOREF
  2

  9
$UCSORTHOVIEW
 70
     0
  9
$UCSORGTOP
 10
0.0
 20
0.0
 30
0.0
  9
$UCSORGBOTTOM
 10
0.0
 20
0.0
 30
0.0
  9
$UCSORGLEFT
 10
0.0
 20
0.0
 30
0.0
  9
$UCSORGRIGHT
 10
0.0
 20
0.0
 30
0.0
  9
$UCSORGFRONT
 10
0.0
 20
0.0
 30
0.0
  9
$UCSORGBACK
 10
0.0
 20
0.0
 30
0.0
  9
$PUCSBASE
  2

  9
$PUCSNAME
  2

  9
$PUCSORG
 10
0.0
 20
0.0
 30
0.0
  9
$PUCSXDIR
 10
1.0
 20
0.0
 30
0.0
  9
$PUCSYDIR
 10
0.0
 20
1.0
 30
0.0
  9
$PUCSORTHOREF
  2

  9
$PUCSORTHOVIEW
 70
     0
  9
$PUCSORGTOP
 10
0.0
 20
0.0
 30
0.0
  9
$PUCSORGBOTTOM
 10
0.0
 20
0.0
 30
0.0
  9
$PUCSORGLEFT
 10
0.0
 20
0.0
 30
0.0
  9
$PUCSORGRIGHT
 10
0.0
 20
0.0
 30
0.0
  9
$PUCSORGFRONT
 10
0.0
 20
0.0
 30
0.0
  9
$PUCSORGBACK
 10
0.0
 20
0.0
 30
0.0
  9
$USERI1
 70
     0
  9
$USERI2
 70
     0
  9
$USERI3
 70
     0
  9
$USERI4
 70
     0
  9
$USERI5
 70
     0
  9
$USERR1
 40
0.0
  9
$USERR2
 40
0.0
  9
$USERR3
 40
0.0
  9
$USERR4
 40
0.0
  9
$USERR5
 40
0.0
  9
$WORLDVIEW
 70
     1
  9
$SHADEDGE
 70
     3
  9
$SHADEDIF
 70
    70
  9
$TILEMODE
 70
     1
  9
$MAXACTVP
 70
    64
  9
$PINSBASE
 10
0.0
 20
0.0
 30
0.0
  9
$PLIMCHECK
 70
     0
  9
$PEXTMIN
 10
1.000000000000000E+20
 20
1.000000000000000E+20
 30
1.000000000000000E+20
  9
$PEXTMAX
 10
-1.000000000000000E+20
 20
-1.000000000000000E+20
 30
-1.000000000000000E+20
  9
$PLIMMIN
 10
0.0
 20
0.0
  9
$PLIMMAX
 10
12.0
 20
9.0
  9
$UNITMODE
 70
     0
  9
$VISRETAIN
 70
     1
  9
$PLINEGEN
 70
     0
  9
$PSLTSCALE
 70
     1
  9
$TREEDEPTH
 70
  3020
  9
$CMLSTYLE
  2
Standard
  9
$CMLJUST
 70
     0
  9
$CMLSCALE
 40
1.0
  9
$PROXYGRAPHICS
 70
     1
  9
$MEASUREMENT
 70
     0
  9
$CELWEIGHT
370
    -1
  9
$ENDCAPS
280
     0
  9
$JOINSTYLE
280
     0
  9
$LWDISPLAY
290
     0
  9
$INSUNITS
 70
     5
  9
$HYPERLINKBASE
  1

  9
$STYLESHEET
  1

  9
$XEDIT
290
     1
  9
$CEPSNTYPE
380
     0
  9
$PSTYLEMODE
290
     1
  9
$FINGERPRINTGUID
  2
{080A31DB-C087-4D3E-819D-3B8CDA6BF345}
  9
$VERSIONGUID
  2
{FAEB1C32-E019-11D5-929B-00C0DF256EC4}
  9
$EXTNAMES
290
     1
  9
$PSVPSCALE
 40
0.0
  9
$OLESTARTUP
290
     0
  9
$SORTENTS
280
   127
  9
$INDEXCTL
280
     0
  9
$HIDETEXT
280
     1
  9
$XCLIPFRAME
290
     0
  9
$HALOGAP
280
     0
  9
$OBSCOLOR
 70
   257
  9
$OBSLTYPE
280
     0
  9
$INTERSECTIONDISPLAY
280
     0
  9
$INTERSECTIONCOLOR
 70
   257
  9
$DIMASSOC
280
     2
  9
$PROJECTNAME
  1

  9
$CAMERADISPLAY
290
     0
  9
$LENSLENGTH
 40
50.0
  9
$CAMERAHEIGHT
 40
0.0
  9
$STEPSPERSEC
 40
2.0
  9
$STEPSIZE
 40
6.0
  9
$3DDWFPREC
 40
2.0
  9
$PSOLWIDTH
 40
0.25
  9
$PSOLHEIGHT
 40
4.0
  9
$LOFTANG1
 40
1.570796326794897
  9
$LOFTANG2
 40
1.570796326794897
  9
$LOFTMAG1
 40
0.0
  9
$LOFTMAG2
 40
0.0
  9
$LOFTPARAM
 70
     7
  9
$LOFTNORMALS
280
     1
  9
$LATITUDE
 40
37.795
  9
$LONGITUDE
 40
-122.394
  9
$NORTHDIRECTION
 40
0.0
  9
$TIMEZONE
 70
 -8000
  9
$LIGHTGLYPHDISPLAY
280
     1
  9
$TILEMODELIGHTSYNCH
280
     1
  9
$SOLIDHIST
280
     1
  9
$SHOWHIST
280
     1
  9
$DWFFRAME
280
     2
  9
$DGNFRAME
280
     2
  9
$REALWORLDSCALE
290
     1
  9
$INTERFERECOLOR
 62
   256
  9
$CSHADOW
280
     0
  9
$SHADOWPLANELOCATION
 40
0.0
  0
ENDSEC
  0
SECTION
  2
CLASSES
  0
CLASS
  1
ACDBDICTIONARYWDFLT
  2
AcDbDictionaryWithDefault
  3
ObjectDBX Classes
 90
        0
 91
        4
280
     0
281
     0
  0
CLASS
  1
VISUALSTYLE
  2
AcDbVisualStyle
  3
ObjectDBX Classes
 90
     4095
 91
        4
280
     0
281
     0
  0
CLASS
  1
MATERIAL
  2
AcDbMaterial
  3
ObjectDBX Classes
 90
     1153
 91
        4
280
     0
281
     0
  0
ENDSEC
  0
SECTION
  2
TABLES
  0
TABLE
  2
VPORT
  5
8
330
0
100
AcDbSymbolTable
 70
     1
  0
VPORT
  5
29
330
8
100
AcDbSymbolTableRecord
100
AcDbViewportTableRecord
  2
*Active
 70
     0
 10
0.0
 20
0.0
 11
1.0
 21
1.0
 12
10.42990654205607
 22
4.5
 13
0.0
 23
0.0
 14
0.5
 24
0.5
 15
0.5
 25
0.5
 16
0.0
 26
0.0
 36
1.0
 17
0.0
 27
0.0
 37
0.0
 40
9.0
 41
1.972972972850329
 42
50.0
 43
0.0
 44
0.0
 50
0.0
 51
0.0
 71
     0
 72
   100
 73
     1
 74
     3
 75
     0
 76
     0
 77
     0
 78
     0
281
     0
 65
     1
110
0.0
120
0.0
130
0.0
111
1.0
121
0.0
131
0.0
112
0.0
122
1.0
132
0.0
 79
     0
146
0.0
 60
     3
 61
     5
292
     1
282
     1
141
0.0
142
0.0
 63
   250
  0
ENDTAB
  0
TABLE
  2
LTYPE
  5
5
330
0
100
AcDbSymbolTable
 70
     1
  0
LTYPE
  5
14
330
5
100
AcDbSymbolTableRecord
100
AcDbLinetypeTableRecord
  2
ByBlock
 70
     0
  3

 72
    65
 73
     0
 40
0.0
  0
LTYPE
  5
15
330
5
100
AcDbSymbolTableRecord
100
AcDbLinetypeTableRecord
  2
ByLayer
 70
     0
  3

 72
    65
 73
     0
 40
0.0
  0
LTYPE
  5
16
330
5
100
AcDbSymbolTableRecord
100
AcDbLinetypeTableRecord
  2
Continuous
 70
     0
  3
Solid line
 72
    65
 73
     0
 40
0.0
  0
ENDTAB
  0
TABLE
  2
LAYER
  5
2
330
0
100
AcDbSymbolTable
 70
     2
  0
LAYER
  5
10
330
2
100
AcDbSymbolTableRecord
100
AcDbLayerTableRecord
  2
0
 70
     0
 62
     7
  6
Continuous
370
    -3
390
F
347
3E
  0
LAYER
  5
40
330
2
100
AcDbSymbolTableRecord
100
AcDbLayerTableRecord
  2
Layer 1
 70
     0
 62
     7
  6
Continuous
370
    -3
390
F
347
3E
  0
ENDTAB
  0
TABLE
  2
STYLE
  5
3
330
0
100
AcDbSymbolTable
 70
     1
  0
STYLE
  5
11
330
3
100
AcDbSymbolTableRecord
100
AcDbTextStyleTableRecord
  2
Standard
 70
     0
 40
0.0
 41
1.0
 50
0.0
 71
     0
 42
0.2
  3
txt
  4

  0
ENDTAB
  0
TABLE
  2
VIEW
  5
6
330
0
100
AcDbSymbolTable
 70
     0
  0
ENDTAB
  0
TABLE
  2
UCS
  5
7
330
0
100
AcDbSymbolTable
 70
     0
  0
ENDTAB
  0
TABLE
  2
APPID
  5
9
330
0
100
AcDbSymbolTable
 70
     2
  0
APPID
  5
12
330
9
100
AcDbSymbolTableRecord
100
AcDbRegAppTableRecord
  2
ACAD
 70
     0
  0
APPID
  5
3F
330
9
100
AcDbSymbolTableRecord
100
AcDbRegAppTableRecord
  2
ODA
 70
     0
  0
ENDTAB
  0
TABLE
  2
DIMSTYLE
  5
A
330
0
100
AcDbSymbolTable
 70
     1
100
AcDbDimStyleTable
  0
DIMSTYLE
105
27
330
A
100
AcDbSymbolTableRecord
100
AcDbDimStyleTableRecord
  2
Standard
 70
     0
178
     0
340
11
  0
ENDTAB
  0
TABLE
  2
BLOCK_RECORD
  5
1
330
0
100
AcDbSymbolTable
 70
     1
  0
BLOCK_RECORD
  5
1F
330
1
100
AcDbSymbolTableRecord
100
AcDbBlockTableRecord
  2
*Model_Space
340
22
 70
     0
280
     1
281
     0
  0
BLOCK_RECORD
  5
1B
330
1
100
AcDbSymbolTableRecord
100
AcDbBlockTableRecord
  2
*Paper_Space
340
1E
 70
     0
280
     1
281
     0
  0
BLOCK_RECORD
  5
23
330
1
100
AcDbSymbolTableRecord
100
AcDbBlockTableRecord
  2
*Paper_Space0
340
26
 70
     0
280
     1
281
     0
  0
ENDTAB
  0
ENDSEC
  0
SECTION
  2
BLOCKS
  0
BLOCK
  5
20
330
1F
100
AcDbEntity
  8
0
100
AcDbBlockBegin
  2
*Model_Space
 70
     0
 10
0.0
 20
0.0
 30
0.0
  3
*Model_Space
  1

  0
ENDBLK
  5
21
330
1F
100
AcDbEntity
  8
0
100
AcDbBlockEnd
  0
BLOCK
  5
1C
330
1B
100
AcDbEntity
 67
     1
  8
0
100
AcDbBlockBegin
  2
*Paper_Space
 70
     0
 10
0.0
 20
0.0
 30
0.0
  3
*Paper_Space
  1

  0
ENDBLK
  5
1D
330
1B
100
AcDbEntity
 67
     1
  8
0
100
AcDbBlockEnd
  0
BLOCK
  5
24
330
23
100
AcDbEntity
  8
0
100
AcDbBlockBegin
  2
*Paper_Space0
 70
     0
 10
0.0
 20
0.0
 30
0.0
  3
*Paper_Space0
  1

  0
ENDBLK
  5
25
330
23
100
AcDbEntity
  8
0
100
AcDbBlockEnd
  0
ENDSEC
  0
SECTION
  2
ENTITIES
  0
SPLINE
  5
41
330
1F
100
AcDbEntity
  8
Layer 1
 62
     5
370
    53
100
AcDbSpline
210
0.0
220
0.0
230
1.0
 70
     8
 71
     3
 72
    56
 73
    52
 74
     0
 42
0.0000000001
 43
0.0000000001
 12
1.0
 22
0.0
 32
0.0
 13
1.0
 23
0.0
 33
0.0
 40
0.0
 40
0.0
 40
0.0
 40
0.0
 40
0.0714285714285714
 40
0.0714285714285714
 40
0.0714285714285714
 40
0.0714285714285714
 40
0.1428571428571428
 40
0.1428571428571428
 40
0.1428571428571428
 40
0.1428571428571428
 40
0.2142857142857143
 40
0.2142857142857143
 40
0.2142857142857143
 40
0.2142857142857143
 40
0.2857142857142857
 40
0.2857142857142857
 40
0.2857142857142857
 40
0.2857142857142857
 40
0.3571428571428572
 40
0.3571428571428572
 40
0.3571428571428572
 40
0.3571428571428572
 40
0.4285714285714285
 40
0.4285714285714285
 40
0.4285714285714285
 40
0.4285714285714285
 40
0.5
 40
0.5
 40
0.5
 40
0.5
 40
0.5714285714285714
 40
0.5714285714285714
 40
0.5714285714285714
 40
0.5714285714285714
 40
0.6428571428571429
 40
0.6428571428571429
 40
0.6428571428571429
 40
0.6428571428571429
 40
0.7142857142857143
 40
0.7142857142857143
 40
0.7142857142857143
 40
0.7142857142857143
 40
0.7857142857142857
 40
0.7857142857142857
 40
0.7857142857142857
 40
0.7857142857142857
 40
0.8571428571428571
 40
0.8571428571428571
 40
0.8571428571428571
 40
0.8571428571428571
 40
1.0
 40
1.0
 40
1.0
 40
1.0
 10
1.49174
 20
-0.80518
 30
0.0
 10
1.52892
 20
-1.10077
 30
0.0
 10
2.27009
 20
-1.18475
 30
0.0
 10
2.54627
 20
-1.11876
 30
0.0
 10
2.54627
 20
-1.11876
 30
0.0
 10
2.43827
 20
-1.06359
 30
0.0
 10
2.34241
 20
-0.98856
 30
0.0
 10
2.25611
 20
-0.90378
 30
0.0
 10
2.25611
 20
-0.90378
 30
0.0
 10
2.21371
 20
-0.86211
 30
0.0
 10
2.17346
 20
-0.81826
 30
0.0
 10
2.1341
 20
-0.77371
 30
0.0
 10
2.1341
 20
-0.77371
 30
0.0
 10
2.10183
 20
-0.7372
 30
0.0
 10
2.05886
 20
-0.68421
 30
0.0
 10
2.02718
 20
-0.65724
 30
0.0
 10
2.02718
 20
-0.65724
 30
0.0
 10
2.05886
 20
-0.68421
 30
0.0
 10
2.10614
 20
-0.71674
 30
0.0
 10
2.1471
 20
-0.73767
 30
0.0
 10
2.1471
 20
-0.73767
 30
0.0
 10
2.36042
 20
-0.84668
 30
0.0
 10
2.62466
 20
-0.81901
 30
0.0
 10
2.84659
 20
-0.75343
 30
0.0
 10
2.84659
 20
-0.75343
 30
0.0
 10
3.06381
 20
-0.68925
 30
0.0
 10
3.29238
 20
-0.5776
 30
0.0
 10
3.44154
 20
-0.40213
 30
0.0
 10
3.44154
 20
-0.40213
 30
0.0
 10
3.08689
 20
-0.38844
 30
0.0
 10
2.56994
 20
-0.33891
 30
0.0
 10
2.24309
 20
-0.18708
 30
0.0
 10
2.24309
 20
-0.18708
 30
0.0
 10
2.7929
 20
-0.19716
 30
0.0
 10
3.61789
 20
0.07275
 30
0.0
 10
3.79635
 20
0.67697
 30
0.0
 10
3.79635
 20
0.67697
 30
0.0
 10
3.37733
 20
0.57375
 30
0.0
 10
3.00614
 20
0.47882
 30
0.0
 10
2.57186
 20
0.46352
 30
0.0
 10
2.57186
 20
0.46352
 30
0.0
 10
2.87359
 20
0.46567
 30
0.0
 10
3.17068
 20
0.8264
 30
0.0
 10
3.35486
 20
1.02837
 30
0.0
 10
3.35486
 20
1.02837
 30
0.0
 10
3.54531
 20
1.23727
 30
0.0
 10
3.68468
 20
1.43297
 30
0.0
 10
3.77348
 20
1.702
 30
0.0
 10
3.77348
 20
1.702
 30
0.0
 10
3.41811
 20
1.42436
 30
0.0
 10
2.91873
 20
1.21606
 30
0.0
 10
2.46896
 20
1.23422
 30
0.0
  0
SPLINE
  5
42
330
1F
100
AcDbEntity
  8
Layer 1
 62
     5
370
    53
100
AcDbSpline
210
0.0
220
0.0
230
1.0
 70
     8
 71
     3
 72
    16
 73
    12
 74
     0
 42
0.0000000001
 43
0.0000000001
 12
1.0
 22
0.0
 32
0.0
 13
1.0
 23
0.0
 33
0.0
 40
0.0
 40
0.0
 40
0.0
 40
0.0
 40
0.25
 40
0.25
 40
0.25
 40
0.25
 40
0.5
 40
0.5
 40
0.5
 40
0.5
 40
1.0
 40
1.0
 40
1.0
 40
1.0
 10
5.27623
 20
2.05262
 30
0.0
 10
5.11159
 20
1.91402
 30
0.0
 10
4.96072
 20
1.70089
 30
0.0
 10
4.8074
 20
1.54115
 30
0.0
 10
4.8074
 20
1.54115
 30
0.0
 10
4.62943
 20
1.35574
 30
0.0
 10
4.44442
 20
1.17776
 30
0.0
 10
4.24692
 20
1.01255
 30
0.0
 10
4.24692
 20
1.01255
 30
0.0
 10
4.11163
 20
0.89944
 30
0.0
 10
3.97355
 20
0.72968
 30
0.0
 10
3.79635
 20
0.67697
 30
0.0
  0
SPLINE
  5
43
330
1F
100
AcDbEntity
  8
Layer 1
 62
     5
370
    53
100
AcDbSpline
210
0.0
220
0.0
230
1.0
 70
     8
 71
     3
 72
    12
 73
     8
 74
     0
 42
0.0000000001
 43
0.0000000001
 12
1.0
 22
0.0
 32
0.0
 13
1.0
 23
0.0
 33
0.0
 40
0.0
 40
0.0
 40
0.0
 40
0.0
 40
0.3333333333333333
 40
0.3333333333333333
 40
0.3333333333333333
 40
0.3333333333333333
 40
1.0
 40
1.0
 40
1.0
 40
1.0
 10
4.36652
 20
2.72387
 30
0.0
 10
4.26586
 20
2.53934
 30
0.0
 10
4.17581
 20
2.26584
 30
0.0
 10
4.0437
 20
2.07725
 30
0.0
 10
4.0437
 20
2.07725
 30
0.0
 10
3.95601
 20
1.95209
 30
0.0
 10
3.86862
 20
1.82305
 30
0.0
 10
3.7747
 20
1.702
 30
0.0
  0
SPLINE
  5
44
330
1F
100
AcDbEntity
  8
Layer 1
 62
     5
370
    53
100
AcDbSpline
210
0.0
220
0.0
230
1.0
 70
     8
 71
     3
 72
    12
 73
     8
 74
     0
 42
0.0000000001
 43
0.0000000001
 12
1.0
 22
0.0
 32
0.0
 13
1.0
 23
0.0
 33
0.0
 40
0.0
 40
0.0
 40
0.0
 40
0.0
 40
0.3333333333333333
 40
0.3333333333333333
 40
0.3333333333333333
 40
0.3333333333333333
 40
1.0
 40
1.0
 40
1.0
 40
1.0
 10
3.3639
 20
1.03832
 30
0.0
 10
3.76542
 20
1.0484
 30
0.0
 10
4.26457
 20
1.58464
 30
0.0
 10
4.52008
 20
1.88524
 30
0.0
 10
4.52008
 20
1.88524
 30
0.0
 10
4.66059
 20
2.05046
 30
0.0
 10
4.77001
 20
2.27961
 30
0.0
 10
4.93093
 20
2.41898
 30
0.0
  0
SPLINE
  5
45
330
1F
100
AcDbEntity
  8
Layer 1
 62
     5
370
    53
100
AcDbSpline
210
0.0
220
0.0
230
1.0
 70
     8
 71
     3
 72
    20
 73
    16
 74
     0
 42
0.0000000001
 43
0.0000000001
 12
1.0
 22
0.0
 32
0.0
 13
1.0
 23
0.0
 33
0.0
 40
0.0
 40
0.0
 40
0.0
 40
0.0
 40
0.2
 40
0.2
 40
0.2
 40
0.2
 40
0.4
 40
0.4
 40
0.4
 40
0.4
 40
0.6
 40
0.6
 40
0.6
 40
0.6
 40
1.0
 40
1.0
 40
1.0
 40
1.0
 10
5.04692
 20
0.35929
 30
0.0
 10
4.92091
 20
0.30195
 30
0.0
 10
4.81125
 20
0.22426
 30
0.0
 10
4.69521
 20
0.1492
 30
0.0
 10
4.69521
 20
0.1492
 30
0.0
 10
4.41324
 20
-0.03316
 30
0.0
 10
4.10835
 20
-0.17791
 30
0.0
 10
3.79258
 20
-0.29139
 30
0.0
 10
3.79258
 20
-0.29139
 30
0.0
 10
3.71644
 20
-0.31875
 30
0.0
 10
3.6421
 20
-0.35022
 30
0.0
 10
3.56404
 20
-0.37252
 30
0.0
 10
3.56404
 20
-0.37252
 30
0.0
 10
3.52363
 20
-0.38407
 30
0.0
 10
3.4828
 20
-0.39415
 30
0.0
 10
3.44154
 20
-0.40213
 30
0.0
  0
SPLINE
  5
46
330
1F
100
AcDbEntity
  8
Layer 1
 62
     5
370
    53
100
AcDbSpline
210
0.0
220
0.0
230
1.0
 70
     8
 71
     3
 72
     8
 73
     4
 74
     0
 42
0.0000000001
 43
0.0000000001
 12
1.0
 22
0.0
 32
0.0
 13
1.0
 23
0.0
 33
0.0
 40
0.0
 40
0.0
 40
0.0
 40
0.0
 40
1.0
 40
1.0
 40
1.0
 40
1.0
 10
4.21309
 20
-0.74707
 30
0.0
 10
3.82211
 20
-0.82697
 30
0.0
 10
3.1675
 20
-0.94092
 30
0.0
 10
2.77662
 20
-0.77226
 30
0.0
  0
SPLINE
  5
47
330
1F
100
AcDbEntity
  8
Layer 1
 62
     5
370
    53
100
AcDbSpline
210
0.0
220
0.0
230
1.0
 70
     8
 71
     3
 72
     8
 73
     4
 74
     0
 42
0.0000000001
 43
0.0000000001
 12
1.0
 22
0.0
 32
0.0
 13
1.0
 23
0.0
 33
0.0
 40
0.0
 40
0.0
 40
0.0
 40
0.0
 40
1.0
 40
1.0
 40
1.0
 40
1.0
 10
3.07364
 20
-1.34435
 30
0.0
 10
2.84156
 20
-1.35936
 30
0.0
 10
2.5334
 20
-1.21206
 30
0.0
 10
2.36365
 20
-1.1393
 30
0.0
  0
SPLINE
  5
48
330
1F
100
AcDbEntity
  8
Layer 1
 62
     5
370
    53
100
AcDbSpline
210
0.0
220
0.0
230
1.0
 70
     8
 71
     3
 72
    20
 73
    16
 74
     0
 42
0.0000000001
 43
0.0000000001
 12
1.0
 22
0.0
 32
0.0
 13
1.0
 23
0.0
 33
0.0
 40
0.0
 40
0.0
 40
0.0
 40
0.0
 40
0.2
 40
0.2
 40
0.2
 40
0.2
 40
0.4
 40
0.4
 40
0.4
 40
0.4
 40
0.6
 40
0.6
 40
0.6
 40
0.6
 40
1.0
 40
1.0
 40
1.0
 40
1.0
 10
5.54208
 20
1.41308
 30
0.0
 10
5.28347
 20
1.19213
 30
0.0
 10
5.02976
 20
0.96233
 30
0.0
 10
4.75693
 20
0.7586
 30
0.0
 10
4.75693
 20
0.7586
 30
0.0
 10
4.5414
 20
0.59762
 30
0.0
 10
4.30394
 20
0.46807
 30
0.0
 10
4.05727
 20
0.36156
 30
0.0
 10
4.05727
 20
0.36156
 30
0.0
 10
3.9352
 20
0.30888
 30
0.0
 10
3.81082
 20
0.26178
 30
0.0
 10
3.68504
 20
0.21873
 30
0.0
 10
3.68504
 20
0.21873
 30
0.0
 10
3.56353
 20
0.17716
 30
0.0
 10
3.41894
 20
0.15525
 30
0.0
 10
3.30486
 20
0.09773
 30
0.0
  0
SPLINE
  5
49
330
1F
100
AcDbEntity
  8
Layer 1
370
    53
100
AcDbSpline
210
0.0
220
0.0
230
1.0
 70
    11
 71
     3
 72
   312
 73
   308
 74
     0
 42
0.0000000001
 43
0.0000000001
 12
1.0
 22
0.0
 32
0.0
 13
1.0
 23
0.0
 33
0.0
 40
0.0
 40
0.0
 40
0.0
 40
0.0
 40
0.0128205128205128
 40
0.0128205128205128
 40
0.0128205128205128
 40
0.0128205128205128
 40
0.0256410256410256
 40
0.0256410256410256
 40
0.0256410256410256
 40
0.0256410256410256
 40
0.0384615384615385
 40
0.0384615384615385
 40
0.0384615384615385
 40
0.0384615384615385
 40
0.0512820512820513
 40
0.0512820512820513
 40
0.0512820512820513
 40
0.0512820512820513
 40
0.0641025641025641
 40
0.0641025641025641
 40
0.0641025641025641
 40
0.0641025641025641
 40
0.0769230769230769
 40
0.0769230769230769
 40
0.0769230769230769
 40
0.0769230769230769
 40
0.0897435897435897
 40
0.0897435897435897
 40
0.0897435897435897
 40
0.0897435897435897
 40
0.1025641025641026
 40
0.1025641025641026
 40
0.1025641025641026
 40
0.1025641025641026
 40
0.1153846153846154
 40
0.1153846153846154
 40
0.1153846153846154
 40
0.1153846153846154
 40
0.1282051282051282
 40
0.1282051282051282
 40
0.1282051282051282
 40
0.1282051282051282
 40
0.141025641025641
 40
0.141025641025641
 40
0.141025641025641
 40
0.141025641025641
 40
0.1538461538461539
 40
0.1538461538461539
 40
0.1538461538461539
 40
0.1538461538461539
 40
0.1666666666666667
 40
0.1666666666666667
 40
0.1666666666666667
 40
0.1666666666666667
 40
0.1794871794871795
 40
0.1794871794871795
 40
0.1794871794871795
 40
0.1794871794871795
 40
0.1923076923076923
 40
0.1923076923076923
 40
0.1923076923076923
 40
0.1923076923076923
 40
0.2051282051282051
 40
0.2051282051282051
 40
0.2051282051282051
 40
0.2051282051282051
 40
0.217948717948718
 40
0.217948717948718
 40
0.217948717948718
 40
0.217948717948718
 40
0.2307692307692308
 40
0.2307692307692308
 40
0.2307692307692308
 40
0.2307692307692308
 40
0.2435897435897436
 40
0.2435897435897436
 40
0.2435897435897436
 40
0.2435897435897436
 40
0.2564102564102564
 40
0.2564102564102564
 40
0.2564102564102564
 40
0.2564102564102564
 40
0.2692307692307692
 40
0.2692307692307692
 40
0.2692307692307692
 40
0.2692307692307692
 40
0.282051282051282
 40
0.282051282051282
 40
0.282051282051282
 40
0.282051282051282
 40
0.2948717948717949
 40
0.2948717948717949
 40
0.2948717948717949
 40
0.2948717948717949
 40
0.3076923076923077
 40
0.3076923076923077
 40
0.3076923076923077
 40
0.3076923076923077
 40
0.3205128205128205
 40
0.3205128205128205
 40
0.3205128205128205
 40
0.3205128205128205
 40
0.3333333333333333
 40
0.3333333333333333
 40
0.3333333333333333
 40
0.3333333333333333
 40
0.3461538461538461
 40
0.3461538461538461
 40
0.3461538461538461
 40
0.3461538461538461
 40
0.358974358974359
 40
0.358974358974359
 40
0.358974358974359
 40
0.358974358974359
 40
0.3717948717948718
 40
0.3717948717948718
 40
0.3717948717948718
 40
0.3717948717948718
 40
0.3846153846153846
 40
0.3846153846153846
 40
0.3846153846153846
 40
0.3846153846153846
 40
0.3974358974358974
 40
0.3974358974358974
 40
0.3974358974358974
 40
0.3974358974358974
 40
0.4102564102564102
 40
0.4102564102564102
 40
0.4102564102564102
 40
0.4102564102564102
 40
0.4230769230769231
 40
0.4230769230769231
 40
0.4230769230769231
 40
0.4230769230769231
 40
0.4358974358974359
 40
0.4358974358974359
 40
0.4358974358974359
 40
0.4358974358974359
 40
0.4487179487179487
 40
0.4487179487179487
 40
0.4487179487179487
 40
0.4487179487179487
 40
0.4615384615384616
 40
0.4615384615384616
 40
0.4615384615384616
 40
0.4615384615384616
 40
0.4743589743589743
 40
0.4743589743589743
 40
0.4743589743589743
 40
0.4743589743589743
 40
0.4871794871794872
 40
0.4871794871794872
 40
0.4871794871794872
 40
0.4871794871794872
 40
0.5
 40
0.5
 40
0.5
 40
0.5
 40
0.5128205128205128
 40
0.5128205128205128
 40
0.5128205128205128
 40
0.5128205128205128
 40
0.5256410256410257
 40
0.5256410256410257
 40
0.5256410256410257
 40
0.5256410256410257
 40
0.5384615384615384
 40
0.5384615384615384
 40
0.5384615384615384
 40
0.5384615384615384
 40
0.5512820512820513
 40
0.5512820512820513
 40
0.5512820512820513
 40
0.5512820512820513
 40
0.5641025641025641
 40
0.5641025641025641
 40
0.5641025641025641
 40
0.5641025641025641
 40
0.5769230769230769
 40
0.5769230769230769
 40
0.5769230769230769
 40
0.5769230769230769
 40
0.5897435897435898
 40
0.5897435897435898
 40
0.5897435897435898
 40
0.5897435897435898
 40
0.6025641025641025
 40
0.6025641025641025
 40
0.6025641025641025
 40
0.6025641025641025
 40
0.6153846153846154
 40
0.6153846153846154
 40
0.6153846153846154
 40
0.6153846153846154
 40
0.6282051282051282
 40
0.6282051282051282
 40
0.6282051282051282
 40
0.6282051282051282
 40
0.6410256410256411
 40
0.6410256410256411
 40
0.6410256410256411
 40
0.6410256410256411
 40
0.6538461538461539
 40
0.6538461538461539
 40
0.6538461538461539
 40
0.6538461538461539
 40
0.6666666666666666
 40
0.6666666666666666
 40
0.6666666666666666
 40
0.6666666666666666
 40
0.6794871794871795
 40
0.6794871794871795
 40
0.6794871794871795
 40
0.6794871794871795
 40
0.6923076923076923
 40
0.6923076923076923
 40
0.6923076923076923
 40
0.6923076923076923
 40
0.7051282051282052
 40
0.7051282051282052
 40
0.7051282051282052
 40
0.7051282051282052
 40
0.717948717948718
 40
0.717948717948718
 40
0.717948717948718
 40
0.717948717948718
 40
0.7307692307692307
 40
0.7307692307692307
 40
0.7307692307692307
 40
0.7307692307692307
 40
0.7435897435897436
 40
0.7435897435897436
 40
0.7435897435897436
 40
0.7435897435897436
 40
0.7564102564102564
 40
0.7564102564102564
 40
0.7564102564102564
 40
0.7564102564102564
 40
0.7692307692307693
 40
0.7692307692307693
 40
0.7692307692307693
 40
0.7692307692307693
 40
0.782051282051282
 40
0.782051282051282
 40
0.782051282051282
 40
0.782051282051282
 40
0.7948717948717948
 40
0.7948717948717948
 40
0.7948717948717948
 40
0.7948717948717948
 40
0.8076923076923077
 40
0.8076923076923077
 40
0.8076923076923077
 40
0.8076923076923077
 40
0.8205128205128205
 40
0.8205128205128205
 40
0.8205128205128205
 40
0.8205128205128205
 40
0.8333333333333334
 40
0.8333333333333334
 40
0.8333333333333334
 40
0.8333333333333334
 40
0.8461538461538461
 40
0.8461538461538461
 40
0.8461538461538461
 40
0.8461538461538461
 40
0.8589743589743589
 40
0.8589743589743589
 40
0.8589743589743589
 40
0.8589743589743589
 40
0.8717948717948718
 40
0.8717948717948718
 40
0.8717948717948718
 40
0.8717948717948718
 40
0.8846153846153846
 40
0.8846153846153846
 40
0.8846153846153846
 40
0.8846153846153846
 40
0.8974358974358975
 40
0.8974358974358975
 40
0.8974358974358975
 40
0.8974358974358975
 40
0.9102564102564102
 40
0.9102564102564102
 40
0.9102564102564102
 40
0.9102564102564102
 40
0.9230769230769231
 40
0.9230769230769231
 40
0.9230769230769231
 40
0.9230769230769231
 40
0.9358974358974359
 40
0.9358974358974359
 40
0.9358974358974359
 40
0.9358974358974359
 40
0.9487179487179487
 40
0.9487179487179487
 40
0.9487179487179487
 40
0.9487179487179487
 40
0.9615384615384616
 40
0.9615384615384616
 40
0.9615384615384616
 40
0.9615384615384616
 40
0.9743589743589743
 40
0.9743589743589743
 40
0.9743589743589743
 40
0.9743589743589743
 40
1.0
 40
1.0
 40
1.0
 40
1.0
 10
1.2
 20
-0.67548
 30
0.0
 10
1.2
 20
-0.67548
 30
0.0
 10
1.50913
 20
-0.67548
 30
0.0
 10
1.50913
 20
-0.67548
 30
0.0
 10
1.50913
 20
-0.67548
 30
0.0
 10
1.4901
 20
-0.80431
 30
0.0
 10
1.47335
 20
-0.93217
 30
0.0
 10
1.48352
 20
-1.06166
 30
0.0
 10
1.48352
 20
-1.06166
 30
0.0
 10
1.48864
 20
-1.12654
 30
0.0
 10
1.4684
 20
-1.25881
 30
0.0
 10
1.49336
 20
-1.31601
 30
0.0
 10
1.49336
 20
-1.31601
 30
0.0
 10
1.53747
 20
-1.41719
 30
0.0
 10
1.72386
 20
-1.47551
 30
0.0
 10
1.81691
 20
-1.51682
 30
0.0
 10
1.81691
 20
-1.51682
 30
0.0
 10
1.96969
 20
-1.58478
 30
0.0
 10
2.13645
 20
-1.61028
 30
0.0
 10
2.29486
 20
-1.66116
 30
0.0
 10
2.29486
 20
-1.66116
 30
0.0
 10
2.6465
 20
-1.77409
 30
0.0
 10
3.2963
 20
-1.87535
 30
0.0
 10
3.6339
 20
-1.68689
 30
0.0
 10
3.6339
 20
-1.68689
 30
0.0
 10
3.54588
 20
-1.60375
 30
0.0
 10
3.44632
 20
-1.53346
 30
0.0
 10
3.34234
 20
-1.47171
 30
0.0
 10
3.34234
 20
-1.47171
 30
0.0
 10
3.29106
 20
-1.44122
 30
0.0
 10
3.23829
 20
-1.41365
 30
0.0
 10
3.18535
 20
-1.38619
 30
0.0
 10
3.18535
 20
-1.38619
 30
0.0
 10
3.15011
 20
-1.36786
 30
0.0
 10
3.1113
 20
-1.35649
 30
0.0
 10
3.07363
 20
-1.34435
 30
0.0
 10
3.07363
 20
-1.34435
 30
0.0
 10
3.13515
 20
-1.35166
 30
0.0
 10
3.19455
 20
-1.37308
 30
0.0
 10
3.25692
 20
-1.37598
 30
0.0
 10
3.25692
 20
-1.37598
 30
0.0
 10
3.39061
 20
-1.38218
 30
0.0
 10
3.52678
 20
-1.38045
 30
0.0
 10
3.66015
 20
-1.36758
 30
0.0
 10
3.66015
 20
-1.36758
 30
0.0
 10
3.89735
 20
-1.34471
 30
0.0
 10
4.11765
 20
-1.2658
 30
0.0
 10
4.34172
 20
-1.1917
 30
0.0
 10
4.34172
 20
-1.1917
 30
0.0
 10
4.44176
 20
-1.1586
 30
0.0
 10
4.53498
 20
-1.12504
 30
0.0
 10
4.63017
 20
-1.0799
 30
0.0
 10
4.63017
 20
-1.0799
 30
0.0
 10
4.76554
 20
-1.01574
 30
0.0
 10
4.88977
 20
-0.95641
 30
0.0
 10
5.00023
 20
-0.85136
 30
0.0
 10
5.00023
 20
-0.85136
 30
0.0
 10
4.98891
 20
-0.86214
 30
0.0
 10
4.83742
 20
-0.82222
 30
0.0
 10
4.81414
 20
-0.81937
 30
0.0
 10
4.81414
 20
-0.81937
 30
0.0
 10
4.7482
 20
-0.81129
 30
0.0
 10
4.68198
 20
-0.80604
 30
0.0
 10
4.61581
 20
-0.80067
 30
0.0
 10
4.61581
 20
-0.80067
 30
0.0
 10
4.48315
 20
-0.78992
 30
0.0
 10
4.34115
 20
-0.78578
 30
0.0
 10
4.21309
 20
-0.74707
 30
0.0
 10
4.21309
 20
-0.74707
 30
0.0
 10
4.23699
 20
-0.72612
 30
0.0
 10
4.27461
 20
-0.72357
 30
0.0
 10
4.30146
 20
-0.7055
 30
0.0
 10
4.30146
 20
-0.7055
 30
0.0
 10
4.33601
 20
-0.68225
 30
0.0
 10
4.37042
 20
-0.65894
 30
0.0
 10
4.40481
 20
-0.63553
 30
0.0
 10
4.40481
 20
-0.63553
 30
0.0
 10
4.49956
 20
-0.57109
 30
0.0
 10
4.59413
 20
-0.50632
 30
0.0
 10
4.6873
 20
-0.43963
 30
0.0
 10
4.6873
 20
-0.43963
 30
0.0
 10
4.82745
 20
-0.33932
 30
0.0
 10
4.96406
 20
-0.23419
 30
0.0
 10
5.10069
 20
-0.12937
 30
0.0
 10
5.10069
 20
-0.12937
 30
0.0
 10
5.19543
 20
-0.05665
 30
0.0
 10
5.28832
 20
0.01853
 30
0.0
 10
5.37786
 20
0.09765
 30
0.0
 10
5.37786
 20
0.09765
 30
0.0
 10
5.42392
 20
0.13838
 30
0.0
 10
5.46912
 20
0.1801
 30
0.0
 10
5.51332
 20
0.22292
 30
0.0
 10
5.51332
 20
0.22292
 30
0.0
 10
5.55102
 20
0.25945
 30
0.0
 10
5.61153
 20
0.30379
 30
0.0
 10
5.63352
 20
0.35033
 30
0.0
 10
5.63352
 20
0.35033
 30
0.0
 10
5.61161
 20
0.35133
 30
0.0
 10
5.59053
 20
0.34304
 30
0.0
 10
5.56821
 20
0.34144
 30
0.0
 10
5.56821
 20
0.34144
 30
0.0
 10
5.5347
 20
0.33903
 30
0.0
 10
5.50177
 20
0.33921
 30
0.0
 10
5.46831
 20
0.34046
 30
0.0
 10
5.46831
 20
0.34046
 30
0.0
 10
5.39268
 20
0.3433
 30
0.0
 10
5.31326
 20
0.34725
 30
0.0
 10
5.2382
 20
0.35466
 30
0.0
 10
5.2382
 20
0.35466
 30
0.0
 10
5.17308
 20
0.3611
 30
0.0
 10
5.10813
 20
0.35666
 30
0.0
 10
5.04195
 20
0.35991
 30
0.0
 10
5.04195
 20
0.35991
 30
0.0
 10
5.10792
 20
0.39955
 30
0.0
 10
5.16747
 20
0.44954
 30
0.0
 10
5.23285
 20
0.49006
 30
0.0
 10
5.23285
 20
0.49006
 30
0.0
 10
5.31514
 20
0.54104
 30
0.0
 10
5.40346
 20
0.58473
 30
0.0
 10
5.4757
 20
0.6502
 30
0.0
 10
5.4757
 20
0.6502
 30
0.0
 10
5.60892
 20
0.77089
 30
0.0
 10
5.73553
 20
0.8998
 30
0.0
 10
5.85914
 20
1.02992
 30
0.0
 10
5.85914
 20
1.02992
 30
0.0
 10
6.01428
 20
1.19317
 30
0.0
 10
6.16367
 20
1.36471
 30
0.0
 10
6.25281
 20
1.57177
 30
0.0
 10
6.25281
 20
1.57177
 30
0.0
 10
6.03611
 20
1.56423
 30
0.0
 10
5.76527
 20
1.43912
 30
0.0
 10
5.54208
 20
1.41308
 30
0.0
 10
5.54208
 20
1.41308
 30
0.0
 10
5.69933
 20
1.59037
 30
0.0
 10
6.02722
 20
2.07867
 30
0.0
 10
6.02084
 20
2.42542
 30
0.0
 10
6.02084
 20
2.42542
 30
0.0
 10
6.02099
 20
2.41639
 30
0.0
 10
5.86986
 20
2.33854
 30
0.0
 10
5.85322
 20
2.32759
 30
0.0
 10
5.85322
 20
2.32759
 30
0.0
 10
5.79255
 20
2.28769
 30
0.0
 10
5.73339
 20
2.24548
 30
0.0
 10
5.67215
 20
2.20648
 30
0.0
 10
5.67215
 20
2.20648
 30
0.0
 10
5.54513
 20
2.12564
 30
0.0
 10
5.42746
 20
2.08445
 30
0.0
 10
5.28158
 20
2.05634
 30
0.0
 10
5.28158
 20
2.05634
 30
0.0
 10
5.47661
 20
2.20628
 30
0.0
 10
5.62156
 20
2.41699
 30
0.0
 10
5.70855
 20
2.64595
 30
0.0
 10
5.70855
 20
2.64595
 30
0.0
 10
5.75243
 20
2.76144
 30
0.0
 10
5.78194
 20
2.88262
 30
0.0
 10
5.79473
 20
3.00561
 30
0.0
 10
5.79473
 20
3.00561
 30
0.0
 10
5.807
 20
3.12372
 30
0.0
 10
5.78519
 20
3.23836
 30
0.0
 10
5.79021
 20
3.35494
 30
0.0
 10
5.79021
 20
3.35494
 30
0.0
 10
5.78744
 20
3.29056
 30
0.0
 10
5.70576
 20
3.20423
 30
0.0
 10
5.67047
 20
3.15322
 30
0.0
 10
5.67047
 20
3.15322
 30
0.0
 10
5.61802
 20
3.07744
 30
0.0
 10
5.56213
 20
3.00406
 30
0.0
 10
5.50302
 20
2.93334
 30
0.0
 10
5.50302
 20
2.93334
 30
0.0
 10
5.33175
 20
2.72845
 30
0.0
 10
5.13916
 20
2.55424
 30
0.0
 10
4.9155
 20
2.40883
 30
0.0
 10
4.9155
 20
2.40883
 30
0.0
 10
4.93959
 20
2.42451
 30
0.0
 10
4.94754
 20
2.48957
 30
0.0
 10
4.95726
 20
2.51507
 30
0.0
 10
4.95726
 20
2.51507
 30
0.0
 10
4.97697
 20
2.56683
 30
0.0
 10
4.99591
 20
2.61889
 30
0.0
 10
5.01405
 20
2.67121
 30
0.0
 10
5.01405
 20
2.67121
 30
0.0
 10
5.04917
 20
2.7726
 30
0.0
 10
5.08131
 20
2.87505
 30
0.0
 10
5.11035
 20
2.97835
 30
0.0
 10
5.11035
 20
2.97835
 30
0.0
 10
5.15391
 20
3.13318
 30
0.0
 10
5.19063
 20
3.28991
 30
0.0
 10
5.22029
 20
3.44794
 30
0.0
 10
5.22029
 20
3.44794
 30
0.0
 10
5.23422
 20
3.5221
 30
0.0
 10
5.24525
 20
3.59628
 30
0.0
 10
5.25556
 20
3.67093
 30
0.0
 10
5.25556
 20
3.67093
 30
0.0
 10
5.26094
 20
3.70992
 30
0.0
 10
5.2662
 20
3.74894
 30
0.0
 10
5.27119
 20
3.78802
 30
0.0
 10
5.27119
 20
3.78802
 30
0.0
 10
5.27421
 20
3.81175
 30
0.0
 10
5.27042
 20
3.88856
 30
0.0
 10
5.28551
 20
3.90552
 30
0.0
 10
5.28551
 20
3.90552
 30
0.0
 10
5.21163
 20
3.84121
 30
0.0
 10
5.16838
 20
3.75868
 30
0.0
 10
5.11748
 20
3.67696
 30
0.0
 10
5.11748
 20
3.67696
 30
0.0
 10
5.06154
 20
3.58704
 30
0.0
 10
5.00245
 20
3.4991
 30
0.0
 10
4.94036
 20
3.41334
 30
0.0
 10
4.94036
 20
3.41334
 30
0.0
 10
4.7605
 20
3.16483
 30
0.0
 10
4.53659
 20
2.95427
 30
0.0
 10
4.35487
 20
2.70819
 30
0.0
 10
4.35487
 20
2.70819
 30
0.0
 10
4.67441
 20
3.21839
 30
0.0
 10
4.87631
 20
3.94907
 30
0.0
 10
4.58462
 20
4.52015
 30
0.0
 10
4.58462
 20
4.52015
 30
0.0
 10
4.60891
 20
4.47261
 30
0.0
 10
4.5355
 20
4.35601
 30
0.0
 10
4.51812
 20
4.3138
 30
0.0
 10
4.51812
 20
4.3138
 30
0.0
 10
4.48106
 20
4.22385
 30
0.0
 10
4.44455
 20
4.1337
 30
0.0
 10
4.4085
 20
4.04335
 30
0.0
 10
4.4085
 20
4.04335
 30
0.0
 10
4.34182
 20
3.87606
 30
0.0
 10
4.27924
 20
3.70721
 30
0.0
 10
4.21366
 20
3.53953
 30
0.0
 10
4.21366
 20
3.53953
 30
0.0
 10
4.18389
 20
3.46341
 30
0.0
 10
4.1517
 20
3.38804
 30
0.0
 10
4.11969
 20
3.31278
 30
0.0
 10
4.11969
 20
3.31278
 30
0.0
 10
4.10307
 20
3.27373
 30
0.0
 10
4.08623
 20
3.23479
 30
0.0
 10
4.06912
 20
3.19596
 30
0.0
 10
4.06912
 20
3.19596
 30
0.0
 10
4.0561
 20
3.16638
 30
0.0
 10
4.017
 20
3.11144
 30
0.0
 10
4.017
 20
3.07981
 30
0.0
 10
4.017
 20
3.07981
 30
0.0
 10
3.8079
 20
2.62269
 30
0.0
 10
3.55683
 20
2.17757
 30
0.0
 10
3.21641
 20
1.80447
 30
0.0
 10
3.21641
 20
1.80447
 30
0.0
 10
2.98885
 20
1.55506
 30
0.0
 10
2.71308
 20
1.35559
 30
0.0
 10
2.41439
 20
1.20017
 30
0.0
 10
2.41439
 20
1.20017
 30
0.0
 10
2.38793
 20
1.18642
 30
0.0
 10
2.36132
 20
1.17299
 30
0.0
 10
2.33453
 20
1.15991
 30
0.0
 10
2.33453
 20
1.15991
 30
0.0
 10
2.19348
 20
1.09108
 30
0.0
 10
2.05686
 20
1.03542
 30
0.0
 10
1.90569
 20
0.99866
 30
0.0
 10
1.90569
 20
0.99866
 30
0.0
 10
1.81791
 20
0.97734
 30
0.0
 10
1.63351
 20
0.93698
 30
0.0
 10
1.59829
 20
0.83768
 30
0.0
 10
1.59829
 20
0.83768
 30
0.0
 10
1.56688
 20
0.7488
 30
0.0
 10
1.59873
 20
0.59026
 30
0.0
 10
1.5985
 20
0.49628
 30
0.0
 10
1.5985
 20
0.49628
 30
0.0
 10
1.59836
 20
0.43156
 30
0.0
 10
1.60069
 20
0.36569
 30
0.0
 10
1.603
 20
0.29953
 30
0.0
 10
1.603
 20
0.29953
 30
0.0
 10
1.603
 20
0.29953
 30
0.0
 10
1.2
 20
0.29953
 30
0.0
 10
1.2
 20
0.29953
 30
0.0
 10
1.2
 20
0.29953
 30
0.0
 10
1.2
 20
0.29953
 30
0.0
 10
1.2
 20
0.7
 30
0.0
 10
1.2
 20
0.7
 30
0.0
 10
1.2
 20
0.7
 30
0.0
 10
1.2
 20
0.97614
 30
0.0
 10
0.97614
 20
1.2
 30
0.0
 10
0.7
 20
1.2
 30
0.0
 10
0.7
 20
1.2
 30
0.0
 10
0.7
 20
1.2
 30
0.0
 10
0.3
 20
1.2
 30
0.0
 10
0.3
 20
1.2
 30
0.0
 10
0.3
 20
1.2
 30
0.0
 10
0.02386
 20
1.2
 30
0.0
 10
-0.2
 20
0.97614
 30
0.0
 10
-0.2
 20
0.7
 30
0.0
 10
-0.2
 20
0.7
 30
0.0
 10
-0.2
 20
0.7
 30
0.0
 10
-0.2
 20
-1.2
 30
0.0
 10
-0.2
 20
-1.2
 30
0.0
 10
-0.2
 20
-1.2
 30
0.0
 10
-0.2
 20
-1.47614
 30
0.0
 10
0.02386
 20
-1.7
 30
0.0
 10
0.3
 20
-1.7
 30
0.0
 10
0.3
 20
-1.7
 30
0.0
 10
0.3
 20
-1.7
 30
0.0
 10
0.7
 20
-1.7
 30
0.0
 10
0.7
 20
-1.7
 30
0.0
 10
0.7
 20
-1.7
 30
0.0
 10
0.97614
 20
-1.7
 30
0.0
 10
1.2
 20
-1.47614
 30
0.0
 10
1.2
 20
-1.2
 30
0.0
 10
1.2
 20
-1.2
 30
0.0
 10
1.2
 20
-1.2
 30
0.0
 10
1.2
 20
-0.67548
 30
0.0
 10
1.2
 20
-0.67548
 30
0.0
  0
ELLIPSE
  5
4A
330
1F
100
AcDbEntity
  8
Layer 1
370
    53
100
AcDbEllipse
 10
0.5
 20
0.5
 30
0.0
 11
0.0
 21
0.3
 31
0.0
210
0.0
220
0.0
230
1.0
 40
1.0
 41
0.0
 42
6.283185307179586
  0
ELLIPSE
  5
4B
330
1F
100
AcDbEntity
  8
Layer 1
370
    53
100
AcDbEllipse
 10
0.5
 20
-1.0
 30
0.0
 11
0.0
 21
0.3
 31
0.0
210
0.0
220
0.0
230
1.0
 40
1.0
 41
0.0
 42
6.283185307179586
  0
SPLINE
  5
4C
330
1F
100
AcDbEntity
  8
Layer 1
 62
     5
370
    53
100
AcDbSpline
210
0.0
220
0.0
230
1.0
 70
     8
 71
     3
 72
    56
 73
    52
 74
     0
 42
0.0000000001
 43
0.0000000001
 12
1.0
 22
0.0
 32
0.0
 13
1.0
 23
0.0
 33
0.0
 40
0.0
 40
0.0
 40
0.0
 40
0.0
 40
0.0714285714285714
 40
0.0714285714285714
 40
0.0714285714285714
 40
0.0714285714285714
 40
0.1428571428571428
 40
0.1428571428571428
 40
0.1428571428571428
 40
0.1428571428571428
 40
0.2142857142857143
 40
0.2142857142857143
 40
0.2142857142857143
 40
0.2142857142857143
 40
0.2857142857142857
 40
0.2857142857142857
 40
0.2857142857142857
 40
0.2857142857142857
 40
0.3571428571428572
 40
0.3571428571428572
 40
0.3571428571428572
 40
0.3571428571428572
 40
0.4285714285714285
 40
0.4285714285714285
 40
0.4285714285714285
 40
0.4285714285714285
 40
0.5
 40
0.5
 40
0.5
 40
0.5
 40
0.5714285714285714
 40
0.5714285714285714
 40
0.5714285714285714
 40
0.5714285714285714
 40
0.6428571428571429
 40
0.6428571428571429
 40
0.6428571428571429
 40
0.6428571428571429
 40
0.7142857142857143
 40
0.7142857142857143
 40
0.7142857142857143
 40
0.7142857142857143
 40
0.7857142857142857
 40
0.7857142857142857
 40
0.7857142857142857
 40
0.7857142857142857
 40
0.8571428571428571
 40
0.8571428571428571
 40
0.8571428571428571
 40
0.8571428571428571
 40
1.0
 40
1.0
 40
1.0
 40
1.0
 10
-1.99174
 20
-0.80518
 30
0.0
 10
-2.02892
 20
-1.10077
 30
0.0
 10
-2.77009
 20
-1.18475
 30
0.0
 10
-3.04627
 20
-1.11876
 30
0.0
 10
-3.04627
 20
-1.11876
 30
0.0
 10
-2.93827
 20
-1.06359
 30
0.0
 10
-2.84241
 20
-0.98856
 30
0.0
 10
-2.75611
 20
-0.90378
 30
0.0
 10
-2.75611
 20
-0.90378
 30
0.0
 10
-2.71371
 20
-0.86211
 30
0.0
 10
-2.67346
 20
-0.81826
 30
0.0
 10
-2.6341
 20
-0.77371
 30
0.0
 10
-2.6341
 20
-0.77371
 30
0.0
 10
-2.60183
 20
-0.7372
 30
0.0
 10
-2.55886
 20
-0.68421
 30
0.0
 10
-2.52718
 20
-0.65724
 30
0.0
 10
-2.52718
 20
-0.65724
 30
0.0
 10
-2.55886
 20
-0.68421
 30
0.0
 10
-2.60614
 20
-0.71674
 30
0.0
 10
-2.6471
 20
-0.73767
 30
0.0
 10
-2.6471
 20
-0.73767
 30
0.0
 10
-2.86042
 20
-0.84668
 30
0.0
 10
-3.12466
 20
-0.81901
 30
0.0
 10
-3.34659
 20
-0.75343
 30
0.0
 10
-3.34659
 20
-0.75343
 30
0.0
 10
-3.56381
 20
-0.68925
 30
0.0
 10
-3.79238
 20
-0.5776
 30
0.0
 10
-3.94154
 20
-0.40213
 30
0.0
 10
-3.94154
 20
-0.40213
 30
0.0
 10
-3.58689
 20
-0.38844
 30
0.0
 10
-3.06994
 20
-0.33891
 30
0.0
 10
-2.74309
 20
-0.18708
 30
0.0
 10
-2.74309
 20
-0.18708
 30
0.0
 10
-3.2929
 20
-0.19716
 30
0.0
 10
-4.11789
 20
0.07275
 30
0.0
 10
-4.29635
 20
0.67697
 30
0.0
 10
-4.29635
 20
0.67697
 30
0.0
 10
-3.87733
 20
0.57375
 30
0.0
 10
-3.50614
 20
0.47882
 30
0.0
 10
-3.07186
 20
0.46352
 30
0.0
 10
-3.07186
 20
0.46352
 30
0.0
 10
-3.37359
 20
0.46567
 30
0.0
 10
-3.67068
 20
0.8264
 30
0.0
 10
-3.85486
 20
1.02837
 30
0.0
 10
-3.85486
 20
1.02837
 30
0.0
 10
-4.04531
 20
1.23727
 30
0.0
 10
-4.18468
 20
1.43297
 30
0.0
 10
-4.27348
 20
1.702
 30
0.0
 10
-4.27348
 20
1.702
 30
0.0
 10
-3.91811
 20
1.42436
 30
0.0
 10
-3.41873
 20
1.21606
 30
0.0
 10
-2.96896
 20
1.23422
 30
0.0
  0
SPLINE
  5
4D
330
1F
100
AcDbEntity
  8
Layer 1
 62
     5
370
    53
100
AcDbSpline
210
0.0
220
0.0
230
1.0
 70
     8
 71
     3
 72
    16
 73
    12
 74
     0
 42
0.0000000001
 43
0.0000000001
 12
1.0
 22
0.0
 32
0.0
 13
1.0
 23
0.0
 33
0.0
 40
0.0
 40
0.0
 40
0.0
 40
0.0
 40
0.25
 40
0.25
 40
0.25
 40
0.25
 40
0.5
 40
0.5
 40
0.5
 40
0.5
 40
1.0
 40
1.0
 40
1.0
 40
1.0
 10
-5.77623
 20
2.05262
 30
0.0
 10
-5.61159
 20
1.91402
 30
0.0
 10
-5.46072
 20
1.70089
 30
0.0
 10
-5.3074
 20
1.54115
 30
0.0
 10
-5.3074
 20
1.54115
 30
0.0
 10
-5.12943
 20
1.35574
 30
0.0
 10
-4.94442
 20
1.17776
 30
0.0
 10
-4.74692
 20
1.01255
 30
0.0
 10
-4.74692
 20
1.01255
 30
0.0
 10
-4.61163
 20
0.89944
 30
0.0
 10
-4.47355
 20
0.72968
 30
0.0
 10
-4.29635
 20
0.67697
 30
0.0
  0
SPLINE
  5
4E
330
1F
100
AcDbEntity
  8
Layer 1
 62
     5
370
    53
100
AcDbSpline
210
0.0
220
0.0
230
1.0
 70
     8
 71
     3
 72
    12
 73
     8
 74
     0
 42
0.0000000001
 43
0.0000000001
 12
1.0
 22
0.0
 32
0.0
 13
1.0
 23
0.0
 33
0.0
 40
0.0
 40
0.0
 40
0.0
 40
0.0
 40
0.3333333333333333
 40
0.3333333333333333
 40
0.3333333333333333
 40
0.3333333333333333
 40
1.0
 40
1.0
 40
1.0
 40
1.0
 10
-4.86652
 20
2.72387
 30
0.0
 10
-4.76586
 20
2.53934
 30
0.0
 10
-4.67581
 20
2.26584
 30
0.0
 10
-4.5437
 20
2.07725
 30
0.0
 10
-4.5437
 20
2.07725
 30
0.0
 10
-4.45601
 20
1.95209
 30
0.0
 10
-4.36862
 20
1.82305
 30
0.0
 10
-4.2747
 20
1.702
 30
0.0
  0
SPLINE
  5
4F
330
1F
100
AcDbEntity
  8
Layer 1
 62
     5
370
    53
100
AcDbSpline
210
0.0
220
0.0
230
1.0
 70
     8
 71
     3
 72
    12
 73
     8
 74
     0
 42
0.0000000001
 43
0.0000000001
 12
1.0
 22
0.0
 32
0.0
 13
1.0
 23
0.0
 33
0.0
 40
0.0
 40
0.0
 40
0.0
 40
0.0
 40
0.3333333333333333
 40
0.3333333333333333
 40
0.3333333333333333
 40
0.3333333333333333
 40
1.0
 40
1.0
 40
1.0
 40
1.0
 10
-3.8639
 20
1.03832
 30
0.0
 10
-4.26542
 20
1.0484
 30
0.0
 10
-4.76457
 20
1.58464
 30
0.0
 10
-5.02008
 20
1.88524
 30
0.0
 10
-5.02008
 20
1.88524
 30
0.0
 10
-5.16059
 20
2.05046
 30
0.0
 10
-5.27001
 20
2.27961
 30
0.0
 10
-5.43093
 20
2.41898
 30
0.0
  0
SPLINE
  5
50
330
1F
100
AcDbEntity
  8
Layer 1
 62
     5
370
    53
100
AcDbSpline
210
0.0
220
0.0
230
1.0
 70
     8
 71
     3
 72
    20
 73
    16
 74
     0
 42
0.0000000001
 43
0.0000000001
 12
1.0
 22
0.0
 32
0.0
 13
1.0
 23
0.0
 33
0.0
 40
0.0
 40
0.0
 40
0.0
 40
0.0
 40
0.2
 40
0.2
 40
0.2
 40
0.2
 40
0.4
 40
0.4
 40
0.4
 40
0.4
 40
0.6
 40
0.6
 40
0.6
 40
0.6
 40
1.0
 40
1.0
 40
1.0
 40
1.0
 10
-5.54692
 20
0.35929
 30
0.0
 10
-5.42091
 20
0.30195
 30
0.0
 10
-5.31125
 20
0.22426
 30
0.0
 10
-5.19521
 20
0.1492
 30
0.0
 10
-5.19521
 20
0.1492
 30
0.0
 10
-4.91324
 20
-0.03316
 30
0.0
 10
-4.60835
 20
-0.17791
 30
0.0
 10
-4.29258
 20
-0.29139
 30
0.0
 10
-4.29258
 20
-0.29139
 30
0.0
 10
-4.21644
 20
-0.31875
 30
0.0
 10
-4.1421
 20
-0.35022
 30
0.0
 10
-4.06404
 20
-0.37252
 30
0.0
 10
-4.06404
 20
-0.37252
 30
0.0
 10
-4.02363
 20
-0.38407
 30
0.0
 10
-3.9828
 20
-0.39415
 30
0.0
 10
-3.94154
 20
-0.40213
 30
0.0
  0
SPLINE
  5
51
330
1F
100
AcDbEntity
  8
Layer 1
 62
     5
370
    53
100
AcDbSpline
210
0.0
220
0.0
230
1.0
 70
     8
 71
     3
 72
     8
 73
     4
 74
     0
 42
0.0000000001
 43
0.0000000001
 12
1.0
 22
0.0
 32
0.0
 13
1.0
 23
0.0
 33
0.0
 40
0.0
 40
0.0
 40
0.0
 40
0.0
 40
1.0
 40
1.0
 40
1.0
 40
1.0
 10
-4.71309
 20
-0.74707
 30
0.0
 10
-4.32211
 20
-0.82697
 30
0.0
 10
-3.6675
 20
-0.94092
 30
0.0
 10
-3.27662
 20
-0.77226
 30
0.0
  0
SPLINE
  5
52
330
1F
100
AcDbEntity
  8
Layer 1
 62
     5
370
    53
100
AcDbSpline
210
0.0
220
0.0
230
1.0
 70
     8
 71
     3
 72
     8
 73
     4
 74
     0
 42
0.0000000001
 43
0.0000000001
 12
1.0
 22
0.0
 32
0.0
 13
1.0
 23
0.0
 33
0.0
 40
0.0
 40
0.0
 40
0.0
 40
0.0
 40
1.0
 40
1.0
 40
1.0
 40
1.0
 10
-3.57364
 20
-1.34435
 30
0.0
 10
-3.34156
 20
-1.35936
 30
0.0
 10
-3.0334
 20
-1.21206
 30
0.0
 10
-2.86365
 20
-1.1393
 30
0.0
  0
SPLINE
  5
53
330
1F
100
AcDbEntity
  8
Layer 1
 62
     5
370
    53
100
AcDbSpline
210
0.0
220
0.0
230
1.0
 70
     8
 71
     3
 72
    20
 73
    16
 74
     0
 42
0.0000000001
 43
0.0000000001
 12
1.0
 22
0.0
 32
0.0
 13
1.0
 23
0.0
 33
0.0
 40
0.0
 40
0.0
 40
0.0
 40
0.0
 40
0.2
 40
0.2
 40
0.2
 40
0.2
 40
0.4
 40
0.4
 40
0.4
 40
0.4
 40
0.6
 40
0.6
 40
0.6
 40
0.6
 40
1.0
 40
1.0
 40
1.0
 40
1.0
 10
-6.04208
 20
1.41308
 30
0.0
 10
-5.78347
 20
1.19213
 30
0.0
 10
-5.52976
 20
0.96233
 30
0.0
 10
-5.25693
 20
0.7586
 30
0.0
 10
-5.25693
 20
0.7586
 30
0.0
 10
-5.0414
 20
0.59762
 30
0.0
 10
-4.80394
 20
0.46807
 30
0.0
 10
-4.55727
 20
0.36156
 30
0.0
 10
-4.55727
 20
0.36156
 30
0.0
 10
-4.4352
 20
0.30888
 30
0.0
 10
-4.31082
 20
0.26178
 30
0.0
 10
-4.18504
 20
0.21873
 30
0.0
 10
-4.18504
 20
0.21873
 30
0.0
 10
-4.06353
 20
0.17716
 30
0.0
 10
-3.91894
 20
0.15525
 30
0.0
 10
-3.80486
 20
0.09773
 30
0.0
  0
SPLINE
  5
54
330
1F
100
AcDbEntity
  8
Layer 1
370
    53
100
AcDbSpline
210
0.0
220
0.0
230
1.0
 70
    11
 71
     3
 72
   312
 73
   308
 74
     0
 42
0.0000000001
 43
0.0000000001
 12
1.0
 22
0.0
 32
0.0
 13
1.0
 23
0.0
 33
0.0
 40
0.0
 40
0.0
 40
0.0
 40
0.0
 40
0.0128205128205128
 40
0.0128205128205128
 40
0.0128205128205128
 40
0.0128205128205128
 40
0.0256410256410256
 40
0.0256410256410256
 40
0.0256410256410256
 40
0.0256410256410256
 40
0.0384615384615385
 40
0.0384615384615385
 40
0.0384615384615385
 40
0.0384615384615385
 40
0.0512820512820513
 40
0.0512820512820513
 40
0.0512820512820513
 40
0.0512820512820513
 40
0.0641025641025641
 40
0.0641025641025641
 40
0.0641025641025641
 40
0.0641025641025641
 40
0.0769230769230769
 40
0.0769230769230769
 40
0.0769230769230769
 40
0.0769230769230769
 40
0.0897435897435897
 40
0.0897435897435897
 40
0.0897435897435897
 40
0.0897435897435897
 40
0.1025641025641026
 40
0.1025641025641026
 40
0.1025641025641026
 40
0.1025641025641026
 40
0.1153846153846154
 40
0.1153846153846154
 40
0.1153846153846154
 40
0.1153846153846154
 40
0.1282051282051282
 40
0.1282051282051282
 40
0.1282051282051282
 40
0.1282051282051282
 40
0.141025641025641
 40
0.141025641025641
 40
0.141025641025641
 40
0.141025641025641
 40
0.1538461538461539
 40
0.1538461538461539
 40
0.1538461538461539
 40
0.1538461538461539
 40
0.1666666666666667
 40
0.1666666666666667
 40
0.1666666666666667
 40
0.1666666666666667
 40
0.1794871794871795
 40
0.1794871794871795
 40
0.1794871794871795
 40
0.1794871794871795
 40
0.1923076923076923
 40
0.1923076923076923
 40
0.1923076923076923
 40
0.1923076923076923
 40
0.2051282051282051
 40
0.2051282051282051
 40
0.2051282051282051
 40
0.2051282051282051
 40
0.217948717948718
 40
0.217948717948718
 40
0.217948717948718
 40
0.217948717948718
 40
0.2307692307692308
 40
0.2307692307692308
 40
0.2307692307692308
 40
0.2307692307692308
 40
0.2435897435897436
 40
0.2435897435897436
 40
0.2435897435897436
 40
0.2435897435897436
 40
0.2564102564102564
 40
0.2564102564102564
 40
0.2564102564102564
 40
0.2564102564102564
 40
0.2692307692307692
 40
0.2692307692307692
 40
0.2692307692307692
 40
0.2692307692307692
 40
0.282051282051282
 40
0.282051282051282
 40
0.282051282051282
 40
0.282051282051282
 40
0.2948717948717949
 40
0.2948717948717949
 40
0.2948717948717949
 40
0.2948717948717949
 40
0.3076923076923077
 40
0.3076923076923077
 40
0.3076923076923077
 40
0.3076923076923077
 40
0.3205128205128205
 40
0.3205128205128205
 40
0.3205128205128205
 40
0.3205128205128205
 40
0.3333333333333333
 40
0.3333333333333333
 40
0.3333333333333333
 40
0.3333333333333333
 40
0.3461538461538461
 40
0.3461538461538461
 40
0.3461538461538461
 40
0.3461538461538461
 40
0.358974358974359
 40
0.358974358974359
 40
0.358974358974359
 40
0.358974358974359
 40
0.3717948717948718
 40
0.3717948717948718
 40
0.3717948717948718
 40
0.3717948717948718
 40
0.3846153846153846
 40
0.3846153846153846
 40
0.3846153846153846
 40
0.3846153846153846
 40
0.3974358974358974
 40
0.3974358974358974
 40
0.3974358974358974
 40
0.3974358974358974
 40
0.4102564102564102
 40
0.4102564102564102
 40
0.4102564102564102
 40
0.4102564102564102
 40
0.4230769230769231
 40
0.4230769230769231
 40
0.4230769230769231
 40
0.4230769230769231
 40
0.4358974358974359
 40
0.4358974358974359
 40
0.4358974358974359
 40
0.4358974358974359
 40
0.4487179487179487
 40
0.4487179487179487
 40
0.4487179487179487
 40
0.4487179487179487
 40
0.4615384615384616
 40
0.4615384615384616
 40
0.4615384615384616
 40
0.4615384615384616
 40
0.4743589743589743
 40
0.4743589743589743
 40
0.4743589743589743
 40
0.4743589743589743
 40
0.4871794871794872
 40
0.4871794871794872
 40
0.4871794871794872
 40
0.4871794871794872
 40
0.5
 40
0.5
 40
0.5
 40
0.5
 40
0.5128205128205128
 40
0.5128205128205128
 40
0.5128205128205128
 40
0.5128205128205128
 40
0.5256410256410257
 40
0.5256410256410257
 40
0.5256410256410257
 40
0.5256410256410257
 40
0.5384615384615384
 40
0.5384615384615384
 40
0.5384615384615384
 40
0.5384615384615384
 40
0.5512820512820513
 40
0.5512820512820513
 40
0.5512820512820513
 40
0.5512820512820513
 40
0.5641025641025641
 40
0.5641025641025641
 40
0.5641025641025641
 40
0.5641025641025641
 40
0.5769230769230769
 40
0.5769230769230769
 40
0.5769230769230769
 40
0.5769230769230769
 40
0.5897435897435898
 40
0.5897435897435898
 40
0.5897435897435898
 40
0.5897435897435898
 40
0.6025641025641025
 40
0.6025641025641025
 40
0.6025641025641025
 40
0.6025641025641025
 40
0.6153846153846154
 40
0.6153846153846154
 40
0.6153846153846154
 40
0.6153846153846154
 40
0.6282051282051282
 40
0.6282051282051282
 40
0.6282051282051282
 40
0.6282051282051282
 40
0.6410256410256411
 40
0.6410256410256411
 40
0.6410256410256411
 40
0.6410256410256411
 40
0.6538461538461539
 40
0.6538461538461539
 40
0.6538461538461539
 40
0.6538461538461539
 40
0.6666666666666666
 40
0.6666666666666666
 40
0.6666666666666666
 40
0.6666666666666666
 40
0.6794871794871795
 40
0.6794871794871795
 40
0.6794871794871795
 40
0.6794871794871795
 40
0.6923076923076923
 40
0.6923076923076923
 40
0.6923076923076923
 40
0.6923076923076923
 40
0.7051282051282052
 40
0.7051282051282052
 40
0.7051282051282052
 40
0.7051282051282052
 40
0.717948717948718
 40
0.717948717948718
 40
0.717948717948718
 40
0.717948717948718
 40
0.7307692307692307
 40
0.7307692307692307
 40
0.7307692307692307
 40
0.7307692307692307
 40
0.7435897435897436
 40
0.7435897435897436
 40
0.7435897435897436
 40
0.7435897435897436
 40
0.7564102564102564
 40
0.7564102564102564
 40
0.7564102564102564
 40
0.7564102564102564
 40
0.7692307692307693
 40
0.7692307692307693
 40
0.7692307692307693
 40
0.7692307692307693
 40
0.782051282051282
 40
0.782051282051282
 40
0.782051282051282
 40
0.782051282051282
 40
0.7948717948717948
 40
0.7948717948717948
 40
0.7948717948717948
 40
0.7948717948717948
 40
0.8076923076923077
 40
0.8076923076923077
 40
0.8076923076923077
 40
0.8076923076923077
 40
0.8205128205128205
 40
0.8205128205128205
 40
0.8205128205128205
 40
0.8205128205128205
 40
0.8333333333333334
 40
0.8333333333333334
 40
0.8333333333333334
 40
0.8333333333333334
 40
0.8461538461538461
 40
0.8461538461538461
 40
0.8461538461538461
 40
0.8461538461538461
 40
0.8589743589743589
 40
0.8589743589743589
 40
0.8589743589743589
 40
0.8589743589743589
 40
0.8717948717948718
 40
0.8717948717948718
 40
0.8717948717948718
 40
0.8717948717948718
 40
0.8846153846153846
 40
0.8846153846153846
 40
0.8846153846153846
 40
0.8846153846153846
 40
0.8974358974358975
 40
0.8974358974358975
 40
0.8974358974358975
 40
0.8974358974358975
 40
0.9102564102564102
 40
0.9102564102564102
 40
0.9102564102564102
 40
0.9102564102564102
 40
0.9230769230769231
 40
0.9230769230769231
 40
0.9230769230769231
 40
0.9230769230769231
 40
0.9358974358974359
 40
0.9358974358974359
 40
0.9358974358974359
 40
0.9358974358974359
 40
0.9487179487179487
 40
0.9487179487179487
 40
0.9487179487179487
 40
0.9487179487179487
 40
0.9615384615384616
 40
0.9615384615384616
 40
0.9615384615384616
 40
0.9615384615384616
 40
0.9743589743589743
 40
0.9743589743589743
 40
0.9743589743589743
 40
0.9743589743589743
 40
1.0
 40
1.0
 40
1.0
 40
1.0
 10
-1.7
 20
-0.67548
 30
0.0
 10
-1.7
 20
-0.67548
 30
0.0
 10
-2.00913
 20
-0.67548
 30
0.0
 10
-2.00913
 20
-0.67548
 30
0.0
 10
-2.00913
 20
-0.67548
 30
0.0
 10
-1.9901
 20
-0.80431
 30
0.0
 10
-1.97335
 20
-0.93217
 30
0.0
 10
-1.98352
 20
-1.06166
 30
0.0
 10
-1.98352
 20
-1.06166
 30
0.0
 10
-1.98864
 20
-1.12654
 30
0.0
 10
-1.9684
 20
-1.25881
 30
0.0
 10
-1.99336
 20
-1.31601
 30
0.0
 10
-1.99336
 20
-1.31601
 30
0.0
 10
-2.03747
 20
-1.41719
 30
0.0
 10
-2.22386
 20
-1.47551
 30
0.0
 10
-2.31691
 20
-1.51682
 30
0.0
 10
-2.31691
 20
-1.51682
 30
0.0
 10
-2.46969
 20
-1.58478
 30
0.0
 10
-2.63645
 20
-1.61028
 30
0.0
 10
-2.79486
 20
-1.66116
 30
0.0
 10
-2.79486
 20
-1.66116
 30
0.0
 10
-3.1465
 20
-1.77409
 30
0.0
 10
-3.7963
 20
-1.87535
 30
0.0
 10
-4.1339
 20
-1.68689
 30
0.0
 10
-4.1339
 20
-1.68689
 30
0.0
 10
-4.04588
 20
-1.60375
 30
0.0
 10
-3.94632
 20
-1.53346
 30
0.0
 10
-3.84234
 20
-1.47171
 30
0.0
 10
-3.84234
 20
-1.47171
 30
0.0
 10
-3.79106
 20
-1.44122
 30
0.0
 10
-3.73829
 20
-1.41365
 30
0.0
 10
-3.68535
 20
-1.38619
 30
0.0
 10
-3.68535
 20
-1.38619
 30
0.0
 10
-3.65011
 20
-1.36786
 30
0.0
 10
-3.6113
 20
-1.35649
 30
0.0
 10
-3.57363
 20
-1.34435
 30
0.0
 10
-3.57363
 20
-1.34435
 30
0.0
 10
-3.63515
 20
-1.35166
 30
0.0
 10
-3.69455
 20
-1.37308
 30
0.0
 10
-3.75692
 20
-1.37598
 30
0.0
 10
-3.75692
 20
-1.37598
 30
0.0
 10
-3.89061
 20
-1.38218
 30
0.0
 10
-4.02678
 20
-1.38045
 30
0.0
 10
-4.16015
 20
-1.36758
 30
0.0
 10
-4.16015
 20
-1.36758
 30
0.0
 10
-4.39735
 20
-1.34471
 30
0.0
 10
-4.61765
 20
-1.2658
 30
0.0
 10
-4.84172
 20
-1.1917
 30
0.0
 10
-4.84172
 20
-1.1917
 30
0.0
 10
-4.94176
 20
-1.1586
 30
0.0
 10
-5.03498
 20
-1.12504
 30
0.0
 10
-5.13017
 20
-1.0799
 30
0.0
 10
-5.13017
 20
-1.0799
 30
0.0
 10
-5.26554
 20
-1.01574
 30
0.0
 10
-5.38977
 20
-0.95641
 30
0.0
 10
-5.50023
 20
-0.85136
 30
0.0
 10
-5.50023
 20
-0.85136
 30
0.0
 10
-5.48891
 20
-0.86214
 30
0.0
 10
-5.33742
 20
-0.82222
 30
0.0
 10
-5.31414
 20
-0.81937
 30
0.0
 10
-5.31414
 20
-0.81937
 30
0.0
 10
-5.2482
 20
-0.81129
 30
0.0
 10
-5.18198
 20
-0.80604
 30
0.0
 10
-5.11581
 20
-0.80067
 30
0.0
 10
-5.11581
 20
-0.80067
 30
0.0
 10
-4.98315
 20
-0.78992
 30
0.0
 10
-4.84115
 20
-0.78578
 30
0.0
 10
-4.71309
 20
-0.74707
 30
0.0
 10
-4.71309
 20
-0.74707
 30
0.0
 10
-4.73699
 20
-0.72612
 30
0.0
 10
-4.77461
 20
-0.72357
 30
0.0
 10
-4.80146
 20
-0.7055
 30
0.0
 10
-4.80146
 20
-0.7055
 30
0.0
 10
-4.83601
 20
-0.68225
 30
0.0
 10
-4.87042
 20
-0.65894
 30
0.0
 10
-4.90481
 20
-0.63553
 30
0.0
 10
-4.90481
 20
-0.63553
 30
0.0
 10
-4.99956
 20
-0.57109
 30
0.0
 10
-5.09413
 20
-0.50632
 30
0.0
 10
-5.1873
 20
-0.43963
 30
0.0
 10
-5.1873
 20
-0.43963
 30
0.0
 10
-5.32745
 20
-0.33932
 30
0.0
 10
-5.46406
 20
-0.23419
 30
0.0
 10
-5.60069
 20
-0.12937
 30
0.0
 10
-5.60069
 20
-0.12937
 30
0.0
 10
-5.69543
 20
-0.05665
 30
0.0
 10
-5.78832
 20
0.01853
 30
0.0
 10
-5.87786
 20
0.09765
 30
0.0
 10
-5.87786
 20
0.09765
 30
0.0
 10
-5.92392
 20
0.13838
 30
0.0
 10
-5.96912
 20
0.1801
 30
0.0
 10
-6.01332
 20
0.22292
 30
0.0
 10
-6.01332
 20
0.22292
 30
0.0
 10
-6.05102
 20
0.25945
 30
0.0
 10
-6.11153
 20
0.30379
 30
0.0
 10
-6.13352
 20
0.35033
 30
0.0
 10
-6.13352
 20
0.35033
 30
0.0
 10
-6.11161
 20
0.35133
 30
0.0
 10
-6.09053
 20
0.34304
 30
0.0
 10
-6.06821
 20
0.34144
 30
0.0
 10
-6.06821
 20
0.34144
 30
0.0
 10
-6.0347
 20
0.33903
 30
0.0
 10
-6.00177
 20
0.33921
 30
0.0
 10
-5.96831
 20
0.34046
 30
0.0
 10
-5.96831
 20
0.34046
 30
0.0
 10
-5.89268
 20
0.3433
 30
0.0
 10
-5.81326
 20
0.34725
 30
0.0
 10
-5.7382
 20
0.35466
 30
0.0
 10
-5.7382
 20
0.35466
 30
0.0
 10
-5.67308
 20
0.3611
 30
0.0
 10
-5.60813
 20
0.35666
 30
0.0
 10
-5.54195
 20
0.35991
 30
0.0
 10
-5.54195
 20
0.35991
 30
0.0
 10
-5.60792
 20
0.39955
 30
0.0
 10
-5.66747
 20
0.44954
 30
0.0
 10
-5.73285
 20
0.49006
 30
0.0
 10
-5.73285
 20
0.49006
 30
0.0
 10
-5.81514
 20
0.54104
 30
0.0
 10
-5.90346
 20
0.58473
 30
0.0
 10
-5.9757
 20
0.6502
 30
0.0
 10
-5.9757
 20
0.6502
 30
0.0
 10
-6.10892
 20
0.77089
 30
0.0
 10
-6.23553
 20
0.8998
 30
0.0
 10
-6.35914
 20
1.02992
 30
0.0
 10
-6.35914
 20
1.02992
 30
0.0
 10
-6.51428
 20
1.19317
 30
0.0
 10
-6.66367
 20
1.36471
 30
0.0
 10
-6.75281
 20
1.57177
 30
0.0
 10
-6.75281
 20
1.57177
 30
0.0
 10
-6.53611
 20
1.56423
 30
0.0
 10
-6.26527
 20
1.43912
 30
0.0
 10
-6.04208
 20
1.41308
 30
0.0
 10
-6.04208
 20
1.41308
 30
0.0
 10
-6.19933
 20
1.59037
 30
0.0
 10
-6.52722
 20
2.07867
 30
0.0
 10
-6.52084
 20
2.42542
 30
0.0
 10
-6.52084
 20
2.42542
 30
0.0
 10
-6.52099
 20
2.41639
 30
0.0
 10
-6.36986
 20
2.33854
 30
0.0
 10
-6.35322
 20
2.32759
 30
0.0
 10
-6.35322
 20
2.32759
 30
0.0
 10
-6.29255
 20
2.28769
 30
0.0
 10
-6.23339
 20
2.24548
 30
0.0
 10
-6.17215
 20
2.20648
 30
0.0
 10
-6.17215
 20
2.20648
 30
0.0
 10
-6.04513
 20
2.12564
 30
0.0
 10
-5.92746
 20
2.08445
 30
0.0
 10
-5.78158
 20
2.05634
 30
0.0
 10
-5.78158
 20
2.05634
 30
0.0
 10
-5.97661
 20
2.20628
 30
0.0
 10
-6.12156
 20
2.41699
 30
0.0
 10
-6.20855
 20
2.64595
 30
0.0
 10
-6.20855
 20
2.64595
 30
0.0
 10
-6.25243
 20
2.76144
 30
0.0
 10
-6.28194
 20
2.88262
 30
0.0
 10
-6.29473
 20
3.00561
 30
0.0
 10
-6.29473
 20
3.00561
 30
0.0
 10
-6.307
 20
3.12372
 30
0.0
 10
-6.28519
 20
3.23836
 30
0.0
 10
-6.29021
 20
3.35494
 30
0.0
 10
-6.29021
 20
3.35494
 30
0.0
 10
-6.28744
 20
3.29056
 30
0.0
 10
-6.20576
 20
3.20423
 30
0.0
 10
-6.17047
 20
3.15322
 30
0.0
 10
-6.17047
 20
3.15322
 30
0.0
 10
-6.11802
 20
3.07744
 30
0.0
 10
-6.06213
 20
3.00406
 30
0.0
 10
-6.00302
 20
2.93334
 30
0.0
 10
-6.00302
 20
2.93334
 30
0.0
 10
-5.83175
 20
2.72845
 30
0.0
 10
-5.63916
 20
2.55424
 30
0.0
 10
-5.4155
 20
2.40883
 30
0.0
 10
-5.4155
 20
2.40883
 30
0.0
 10
-5.43959
 20
2.42451
 30
0.0
 10
-5.44754
 20
2.48957
 30
0.0
 10
-5.45726
 20
2.51507
 30
0.0
 10
-5.45726
 20
2.51507
 30
0.0
 10
-5.47697
 20
2.56683
 30
0.0
 10
-5.49591
 20
2.61889
 30
0.0
 10
-5.51405
 20
2.67121
 30
0.0
 10
-5.51405
 20
2.67121
 30
0.0
 10
-5.54917
 20
2.7726
 30
0.0
 10
-5.58131
 20
2.87505
 30
0.0
 10
-5.61035
 20
2.97835
 30
0.0
 10
-5.61035
 20
2.97835
 30
0.0
 10
-5.65391
 20
3.13318
 30
0.0
 10
-5.69063
 20
3.28991
 30
0.0
 10
-5.72029
 20
3.44794
 30
0.0
 10
-5.72029
 20
3.44794
 30
0.0
 10
-5.73422
 20
3.5221
 30
0.0
 10
-5.74525
 20
3.59628
 30
0.0
 10
-5.75556
 20
3.67093
 30
0.0
 10
-5.75556
 20
3.67093
 30
0.0
 10
-5.76094
 20
3.70992
 30
0.0
 10
-5.7662
 20
3.74894
 30
0.0
 10
-5.77119
 20
3.78802
 30
0.0
 10
-5.77119
 20
3.78802
 30
0.0
 10
-5.77421
 20
3.81175
 30
0.0
 10
-5.77042
 20
3.88856
 30
0.0
 10
-5.78551
 20
3.90552
 30
0.0
 10
-5.78551
 20
3.90552
 30
0.0
 10
-5.71163
 20
3.84121
 30
0.0
 10
-5.66838
 20
3.75868
 30
0.0
 10
-5.61748
 20
3.67696
 30
0.0
 10
-5.61748
 20
3.67696
 30
0.0
 10
-5.56154
 20
3.58704
 30
0.0
 10
-5.50245
 20
3.4991
 30
0.0
 10
-5.44036
 20
3.41334
 30
0.0
 10
-5.44036
 20
3.41334
 30
0.0
 10
-5.2605
 20
3.16483
 30
0.0
 10
-5.03659
 20
2.95427
 30
0.0
 10
-4.85487
 20
2.70819
 30
0.0
 10
-4.85487
 20
2.70819
 30
0.0
 10
-5.17441
 20
3.21839
 30
0.0
 10
-5.37631
 20
3.94907
 30
0.0
 10
-5.08462
 20
4.52015
 30
0.0
 10
-5.08462
 20
4.52015
 30
0.0
 10
-5.10891
 20
4.47261
 30
0.0
 10
-5.0355
 20
4.35601
 30
0.0
 10
-5.01812
 20
4.3138
 30
0.0
 10
-5.01812
 20
4.3138
 30
0.0
 10
-4.98106
 20
4.22385
 30
0.0
 10
-4.94455
 20
4.1337
 30
0.0
 10
-4.9085
 20
4.04335
 30
0.0
 10
-4.9085
 20
4.04335
 30
0.0
 10
-4.84182
 20
3.87606
 30
0.0
 10
-4.77924
 20
3.70721
 30
0.0
 10
-4.71366
 20
3.53953
 30
0.0
 10
-4.71366
 20
3.53953
 30
0.0
 10
-4.68389
 20
3.46341
 30
0.0
 10
-4.6517
 20
3.38804
 30
0.0
 10
-4.61969
 20
3.31278
 30
0.0
 10
-4.61969
 20
3.31278
 30
0.0
 10
-4.60307
 20
3.27373
 30
0.0
 10
-4.58623
 20
3.23479
 30
0.0
 10
-4.56912
 20
3.19596
 30
0.0
 10
-4.56912
 20
3.19596
 30
0.0
 10
-4.5561
 20
3.16638
 30
0.0
 10
-4.517
 20
3.11144
 30
0.0
 10
-4.517
 20
3.07981
 30
0.0
 10
-4.517
 20
3.07981
 30
0.0
 10
-4.3079
 20
2.62269
 30
0.0
 10
-4.05683
 20
2.17757
 30
0.0
 10
-3.71641
 20
1.80447
 30
0.0
 10
-3.71641
 20
1.80447
 30
0.0
 10
-3.48885
 20
1.55506
 30
0.0
 10
-3.21308
 20
1.35559
 30
0.0
 10
-2.91439
 20
1.20017
 30
0.0
 10
-2.91439
 20
1.20017
 30
0.0
 10
-2.88793
 20
1.18642
 30
0.0
 10
-2.86132
 20
1.17299
 30
0.0
 10
-2.83453
 20
1.15991
 30
0.0
 10
-2.83453
 20
1.15991
 30
0.0
 10
-2.69348
 20
1.09108
 30
0.0
 10
-2.55686
 20
1.03542
 30
0.0
 10
-2.40569
 20
0.99866
 30
0.0
 10
-2.40569
 20
0.99866
 30
0.0
 10
-2.31791
 20
0.97734
 30
0.0
 10
-2.13351
 20
0.93698
 30
0.0
 10
-2.09829
 20
0.83768
 30
0.0
 10
-2.09829
 20
0.83768
 30
0.0
 10
-2.06688
 20
0.7488
 30
0.0
 10
-2.09873
 20
0.59026
 30
0.0
 10
-2.0985
 20
0.49628
 30
0.0
 10
-2.0985
 20
0.49628
 30
0.0
 10
-2.09836
 20
0.43156
 30
0.0
 10
-2.10069
 20
0.36569
 30
0.0
 10
-2.103
 20
0.29953
 30
0.0
 10
-2.103
 20
0.29953
 30
0.0
 10
-2.103
 20
0.29953
 30
0.0
 10
-1.7
 20
0.29953
 30
0.0
 10
-1.7
 20
0.29953
 30
0.0
 10
-1.7
 20
0.29953
 30
0.0
 10
-1.7
 20
0.29953
 30
0.0
 10
-1.7
 20
0.7
 30
0.0
 10
-1.7
 20
0.7
 30
0.0
 10
-1.7
 20
0.7
 30
0.0
 10
-1.7
 20
0.97614
 30
0.0
 10
-1.47614
 20
1.2
 30
0.0
 10
-1.2
 20
1.2
 30
0.0
 10
-1.2
 20
1.2
 30
0.0
 10
-1.2
 20
1.2
 30
0.0
 10
-0.8
 20
1.2
 30
0.0
 10
-0.8
 20
1.2
 30
0.0
 10
-0.8
 20
1.2
 30
0.0
 10
-0.52386
 20
1.2
 30
0.0
 10
-0.3
 20
0.97614
 30
0.0
 10
-0.3
 20
0.7
 30
0.0
 10
-0.3
 20
0.7
 30
0.0
 10
-0.3
 20
0.7
 30
0.0
 10
-0.3
 20
-1.2
 30
0.0
 10
-0.3
 20
-1.2
 30
0.0
 10
-0.3
 20
-1.2
 30
0.0
 10
-0.3
 20
-1.47614
 30
0.0
 10
-0.52386
 20
-1.7
 30
0.0
 10
-0.8
 20
-1.7
 30
0.0
 10
-0.8
 20
-1.7
 30
0.0
 10
-0.8
 20
-1.7
 30
0.0
 10
-1.2
 20
-1.7
 30
0.0
 10
-1.2
 20
-1.7
 30
0.0
 10
-1.2
 20
-1.7
 30
0.0
 10
-1.47614
 20
-1.7
 30
0.0
 10
-1.7
 20
-1.47614
 30
0.0
 10
-1.7
 20
-1.2
 30
0.0
 10
-1.7
 20
-1.2
 30
0.0
 10
-1.7
 20
-1.2
 30
0.0
 10
-1.7
 20
-0.67548
 30
0.0
 10
-1.7
 20
-0.67548
 30
0.0
  0
ELLIPSE
  5
55
330
1F
100
AcDbEntity
  8
Layer 1
370
    53
100
AcDbEllipse
 10
-1.0
 20
0.5
 30
0.0
 11
0.0
 21
0.3
 31
0.0
210
0.0
220
0.0
230
1.0
 40
1.0
 41
0.0
 42
6.283185307179586
  0
ELLIPSE
  5
56
330
1F
100
AcDbEntity
  8
Layer 1
370
    53
100
AcDbEllipse
 10
-1.0
 20
-1.0
 30
0.0
 11
0.0
 21
0.3
 31
0.0
210
0.0
220
0.0
230
1.0
 40
1.0
 41
0.0
 42
6.283185307179586
  0
ELLIPSE
  5
57
330
1F
100
AcDbEntity
  8
Layer 1
370
    53
100
AcDbEllipse
 10
-1.0
 20
-0.25
 30
0.0
 11
0.0
 21
0.15
 31
0.0
210
0.0
220
0.0
230
1.0
 40
1.0
 41
0.0
 42
6.283185307179586
  0
ELLIPSE
  5
58
330
1F
100
AcDbEntity
  8
Layer 1
370
    53
100
AcDbEllipse
 10
0.5
 20
-0.25
 30
0.0
 11
0.0
 21
0.15
 31
0.0
210
0.0
220
0.0
230
1.0
 40
1.0
 41
0.0
 42
6.283185307179586
  0
ENDSEC
  0
SECTION
  2
OBJECTS
  0
DICTIONARY
  5
C
330
0
100
AcDbDictionary
281
     1
  3
ACAD_GROUP
350
D
  3
ACAD_LAYOUT
350
1A
  3
ACAD_MATERIAL
350
3B
  3
ACAD_MLEADERSTYLE
350
7A
  3
ACAD_MLINESTYLE
350
17
  3
ACAD_PLOTSETTINGS
350
19
  3
ACAD_PLOTSTYLENAME
350
E
  3
ACAD_TABLESTYLE
350
79
  3
ACAD_VISUALSTYLE
350
2A
  0
DICTIONARY
  5
D
102
{ACAD_REACTORS
330
C
102
}
330
C
100
AcDbDictionary
281
     1
  0
DICTIONARY
  5
1A
102
{ACAD_REACTORS
330
C
102
}
330
C
100
AcDbDictionary
281
     1
  3
Layout1
350
1E
  3
Layout2
350
26
  3
Model
350
22
  0
DICTIONARY
  5
3B
102
{ACAD_REACTORS
330
C
102
}
330
C
100
AcDbDictionary
281
     1
  3
ByBlock
350
3D
  3
ByLayer
350
3C
  3
Global
350
3E
  0
DICTIONARY
  5
7A
102
{ACAD_REACTORS
330
C
102
}
330
C
100
AcDbDictionary
281
     1
  0
DICTIONARY
  5
17
102
{ACAD_REACTORS
330
C
102
}
330
C
100
AcDbDictionary
281
     1
  3
Standard
350
18
  0
DICTIONARY
  5
19
102
{ACAD_REACTORS
330
C
102
}
330
C
100
AcDbDictionary
281
     1
  0
ACDBDICTIONARYWDFLT
  5
E
102
{ACAD_REACTORS
330
C
102
}
330
C
100
AcDbDictionary
281
     1
  3
Normal
350
F
100
AcDbDictionaryWithDefault
340
F
  0
DICTIONARY
  5
79
102
{ACAD_REACTORS
330
C
102
}
330
C
100
AcDbDictionary
281
     1
  0
DICTIONARY
  5
2A
102
{ACAD_REACTORS
330
C
102
}
330
C
100
AcDbDictionary
281
     1
  3
2dWireframe
350
2F
  3
3D Hidden
350
31
  3
3dWireframe
350
30
  3
Basic
350
32
  3
Brighten
350
36
  3
ColorChange
350
3A
  3
Conceptual
350
34
  3
Dim
350
35
  3
Facepattern
350
39
  3
Flat
350
2B
  3
FlatWithEdges
350
2C
  3
Gouraud
350
2D
  3
GouraudWithEdges
350
2E
  3
Linepattern
350
38
  3
Realistic
350
33
  3
Thicken
350
37
  0
LAYOUT
  5
1E
102
{ACAD_REACTORS
330
1A
102
}
330
1A
100
AcDbPlotSettings
  1

  2
none_device
  4

  6

 40
0.0
 41
0.0
 42
0.0
 43
0.0
 44
0.0
 45
0.0
 46
0.0
 47
0.0
 48
0.0
 49
0.0
140
0.0
141
0.0
142
1.0
143
1.0
 70
   688
 72
     0
 73
     0
 74
     5
  7

 75
    16
 76
     0
 77
     2
 78
   300
147
1.0
148
0.0
149
0.0
100
AcDbLayout
  1
Layout1
 70
     1
 71
     1
 10
0.0
 20
0.0
 11
12.0
 21
9.0
 12
0.0
 22
0.0
 32
0.0
 14
1.000000000000000E+20
 24
1.000000000000000E+20
 34
1.000000000000000E+20
 15
-1.000000000000000E+20
 25
-1.000000000000000E+20
 35
-1.000000000000000E+20
146
0.0
 13
0.0
 23
0.0
 33
0.0
 16
1.0
 26
0.0
 36
0.0
 17
0.0
 27
1.0
 37
0.0
 76
     0
330
1B
  0
LAYOUT
  5
26
102
{ACAD_REACTORS
330
1A
102
}
330
1A
100
AcDbPlotSettings
  1

  2
none_device
  4

  6

 40
0.0
 41
0.0
 42
0.0
 43
0.0
 44
0.0
 45
0.0
 46
0.0
 47
0.0
 48
0.0
 49
0.0
140
0.0
141
0.0
142
1.0
143
1.0
 70
   688
 72
     0
 73
     0
 74
     5
  7

 75
    16
 76
     0
 77
     2
 78
   300
147
1.0
148
0.0
149
0.0
100
AcDbLayout
  1
Layout2
 70
     1
 71
     2
 10
0.0
 20
0.0
 11
0.0
 21
0.0
 12
0.0
 22
0.0
 32
0.0
 14
0.0
 24
0.0
 34
0.0
 15
0.0
 25
0.0
 35
0.0
146
0.0
 13
0.0
 23
0.0
 33
0.0
 16
1.0
 26
0.0
 36
0.0
 17
0.0
 27
1.0
 37
0.0
 76
     0
330
23
  0
LAYOUT
  5
22
102
{ACAD_REACTORS
330
1A
102
}
330
1A
100
AcDbPlotSettings
  1

  2
none_device
  4

  6

 40
0.0
 41
0.0
 42
0.0
 43
0.0
 44
0.0
 45
0.0
 46
0.0
 47
0.0
 48
0.0
 49
0.0
140
0.0
141
0.0
142
1.0
143
1.0
 70
  1712
 72
     0
 73
     0
 74
     0
  7

 75
     0
 76
     0
 77
     2
 78
   300
147
1.0
148
0.0
149
0.0
100
AcDbLayout
  1
Model
 70
     1
 71
     0
 10
0.0
 20
0.0
 11
12.0
 21
9.0
 12
0.0
 22
0.0
 32
0.0
 14
-6.77715
 24
-1.81826
 34
0.0
 15
6.27715
 25
4.5322
 35
0.0
146
0.0
 13
0.0
 23
0.0
 33
0.0
 16
1.0
 26
0.0
 36
0.0
 17
0.0
 27
1.0
 37
0.0
 76
     0
330
1F
331
29
  0
MATERIAL
  5
3D
102
{ACAD_REACTORS
330
3B
102
}
330
3B
100
AcDbMaterial
  1
ByBlock
 72
     1
 94
      127
  0
MATERIAL
  5
3C
102
{ACAD_REACTORS
330
3B
102
}
330
3B
100
AcDbMaterial
  1
ByLayer
 72
     1
 94
      127
  0
MATERIAL
  5
3E
102
{ACAD_REACTORS
330
3B
102
}
330
3B
100
AcDbMaterial
  1
Global
 72
     1
 94
      127
  0
MLINESTYLE
  5
18
102
{ACAD_REACTORS
330
17
102
}
330
17
100
AcDbMlineStyle
  2
Standard
 70
     0
  3

 62
   256
 51
90.0
 52
90.0
 71
     2
 49
0.5
 62
   256
  6
BYLAYER
 49
-0.5
 62
   256
  6
BYLAYER
  0
ACDBPLACEHOLDER
  5
F
102
{ACAD_REACTORS
330
E
102
}
330
E
  0
VISUALSTYLE
  5
2F
102
{ACAD_REACTORS
330
2A
102
}
102
{ACAD_XDICTIONARY
360
61
102
}
330
2A
100
AcDbVisualStyle
  2
2dWireframe
 70
     4
 71
     0
 72
     2
 73
     0
 90
        0
 40
-0.6
 41
-30.0
 62
     5
 63
     7
421
 16777215
 74
     1
 91
        4
 64
     7
 65
   257
 75
     1
175
     1
 42
1.0
 92
        0
 66
   257
 43
1.0
 76
     1
 77
     6
 78
     2
 67
     7
 79
     5
170
     0
171
     0
290
     0
174
     0
 93
        1
 44
0.0
173
     0
291
     0
 45
0.0
  0
VISUALSTYLE
  5
31
102
{ACAD_REACTORS
330
2A
102
}
102
{ACAD_XDICTIONARY
360
65
102
}
330
2A
100
AcDbVisualStyle
  2
3D Hidden
 70
     6
 71
     1
 72
     2
 73
     2
 90
        0
 40
-0.6
 41
-30.0
 62
     5
 63
     7
421
 16777215
 74
     2
 91
        2
 64
     7
 65
   257
 75
     2
175
     1
 42
40.0
 92
        0
 66
   257
 43
1.0
 76
     1
 77
     6
 78
     2
 67
     7
 79
     3
170
     0
171
     0
290
     0
174
     0
 93
        1
 44
0.0
173
     0
291
     0
 45
0.0
  0
VISUALSTYLE
  5
30
102
{ACAD_REACTORS
330
2A
102
}
102
{ACAD_XDICTIONARY
360
63
102
}
330
2A
100
AcDbVisualStyle
  2
3dWireframe
 70
     5
 71
     0
 72
     2
 73
     0
 90
        0
 40
-0.6
 41
-30.0
 62
     5
 63
     7
421
 16777215
 74
     1
 91
        4
 64
     7
 65
   257
 75
     1
175
     1
 42
1.0
 92
        0
 66
   257
 43
1.0
 76
     1
 77
     6
 78
     2
 67
     7
 79
     5
170
     0
171
     0
290
     0
174
     0
 93
        1
 44
0.0
173
     0
291
     0
 45
0.0
  0
VISUALSTYLE
  5
32
102
{ACAD_REACTORS
330
2A
102
}
102
{ACAD_XDICTIONARY
360
67
102
}
330
2A
100
AcDbVisualStyle
  2
Basic
 70
     7
 71
     1
 72
     0
 73
     1
 90
        0
 40
-0.6
 41
-30.0
 62
     5
 63
     7
421
 16777215
 74
     0
 91
        4
 64
     7
 65
   257
 75
     1
175
     1
 42
1.0
 92
        8
 66
     7
 43
1.0
 76
     1
 77
     6
 78
     2
 67
     7
 79
     5
170
     0
171
     0
290
     0
174
     0
 93
        1
 44
0.0
173
     0
291
     1
 45
0.0
  0
VISUALSTYLE
  5
36
102
{ACAD_REACTORS
330
2A
102
}
102
{ACAD_XDICTIONARY
360
6F
102
}
330
2A
100
AcDbVisualStyle
  2
Brighten
 70
    12
 71
     2
 72
     2
 73
     0
 90
        0
 40
-0.6
 41
-30.0
 62
     5
 63
     7
421
 16777215
 74
     1
 91
        4
 64
     7
 65
   257
 75
     1
175
     1
 42
1.0
 92
        8
 66
     7
 43
1.0
 76
     1
 77
     6
 78
     2
 67
     7
 79
     5
170
     0
171
     0
290
     0
174
     0
 93
        1
 44
50.0
173
     0
291
     1
 45
0.0
  0
VISUALSTYLE
  5
3A
102
{ACAD_REACTORS
330
2A
102
}
102
{ACAD_XDICTIONARY
360
77
102
}
330
2A
100
AcDbVisualStyle
  2
ColorChange
 70
    16
 71
     2
 72
     2
 73
     3
 90
        0
 40
-0.6
 41
-30.0
 62
     5
 63
     8
421
  8421504
 74
     1
 91
        4
 64
     7
 65
   257
 75
     1
175
     1
 42
1.0
 92
        8
 66
     8
424
  8421504
 43
1.0
 76
     1
 77
     6
 78
     2
 67
     7
 79
     5
170
     0
171
     0
290
     0
174
     0
 93
        1
 44
0.0
173
     0
291
     1
 45
0.0
  0
VISUALSTYLE
  5
34
102
{ACAD_REACTORS
330
2A
102
}
102
{ACAD_XDICTIONARY
360
6B
102
}
330
2A
100
AcDbVisualStyle
  2
Conceptual
 70
     9
 71
     3
 72
     2
 73
     0
 90
        0
 40
-0.6
 41
-30.0
 62
     5
 63
     7
421
 16777215
 74
     2
 91
        2
 64
     7
 65
   257
 75
     1
175
     1
 42
40.0
 92
        8
 66
     7
 43
1.0
 76
     1
 77
     6
 78
     2
 67
     7
 79
     3
170
     0
171
     0
290
     0
174
     0
 93
        1
 44
0.0
173
     0
291
     0
 45
0.0
  0
VISUALSTYLE
  5
35
102
{ACAD_REACTORS
330
2A
102
}
102
{ACAD_XDICTIONARY
360
6D
102
}
330
2A
100
AcDbVisualStyle
  2
Dim
 70
    11
 71
     2
 72
     2
 73
     0
 90
        0
 40
-0.6
 41
-30.0
 62
     5
 63
     7
421
 16777215
 74
     1
 91
        4
 64
     7
 65
   257
 75
     1
175
     1
 42
1.0
 92
        8
 66
     7
 43
1.0
 76
     1
 77
     6
 78
     2
 67
     7
 79
     5
170
     0
171
     0
290
     0
174
     0
 93
        1
 44
-50.0
173
     0
291
     1
 45
0.0
  0
VISUALSTYLE
  5
39
102
{ACAD_REACTORS
330
2A
102
}
102
{ACAD_XDICTIONARY
360
75
102
}
330
2A
100
AcDbVisualStyle
  2
Facepattern
 70
    15
 71
     2
 72
     2
 73
     0
 90
        0
 40
-0.6
 41
-30.0
 62
     5
 63
     7
421
 16777215
 74
     1
 91
        4
 64
     7
 65
   257
 75
     1
175
     1
 42
1.0
 92
        8
 66
     7
 43
1.0
 76
     1
 77
     6
 78
     2
 67
     7
 79
     5
170
     0
171
     0
290
     0
174
     0
 93
        1
 44
0.0
173
     0
291
     1
 45
0.0
  0
VISUALSTYLE
  5
2B
102
{ACAD_REACTORS
330
2A
102
}
102
{ACAD_XDICTIONARY
360
59
102
}
330
2A
100
AcDbVisualStyle
  2
Flat
 70
     0
 71
     2
 72
     1
 73
     1
 90
        2
 40
-0.6
 41
30.0
 62
     5
 63
     7
421
 16777215
 74
     0
 91
        4
 64
     7
 65
   257
 75
     1
175
     1
 42
1.0
 92
        8
 66
     7
 43
1.0
 76
     1
 77
     6
 78
     2
 67
     7
 79
     5
170
     0
171
     0
290
     0
174
     0
 93
       13
 44
0.0
173
     0
291
     1
 45
0.0
  0
VISUALSTYLE
  5
2C
102
{ACAD_REACTORS
330
2A
102
}
102
{ACAD_XDICTIONARY
360
5B
102
}
330
2A
100
AcDbVisualStyle
  2
FlatWithEdges
 70
     1
 71
     2
 72
     1
 73
     1
 90
        2
 40
-0.6
 41
30.0
 62
     5
 63
     7
421
 16777215
 74
     1
 91
        4
 64
     7
 65
   257
 75
     1
175
     1
 42
1.0
 92
        0
 66
   257
 43
1.0
 76
     1
 77
     6
 78
     2
 67
     7
 79
     5
170
     0
171
     0
290
     0
174
     0
 93
       13
 44
0.0
173
     0
291
     1
 45
0.0
  0
VISUALSTYLE
  5
2D
102
{ACAD_REACTORS
330
2A
102
}
102
{ACAD_XDICTIONARY
360
5D
102
}
330
2A
100
AcDbVisualStyle
  2
Gouraud
 70
     2
 71
     2
 72
     2
 73
     1
 90
        2
 40
-0.6
 41
30.0
 62
     5
 63
     7
421
 16777215
 74
     0
 91
        4
 64
     7
 65
   257
 75
     1
175
     1
 42
1.0
 92
        0
 66
     7
 43
1.0
 76
     1
 77
     6
 78
     2
 67
     7
 79
     5
170
     0
171
     0
290
     0
174
     0
 93
       13
 44
0.0
173
     0
291
     1
 45
0.0
  0
VISUALSTYLE
  5
2E
102
{ACAD_REACTORS
330
2A
102
}
102
{ACAD_XDICTIONARY
360
5F
102
}
330
2A
100
AcDbVisualStyle
  2
GouraudWithEdges
 70
     3
 71
     2
 72
     2
 73
     1
 90
        2
 40
-0.6
 41
30.0
 62
     5
 63
     7
421
 16777215
 74
     1
 91
        4
 64
     7
 65
   257
 75
     1
175
     1
 42
1.0
 92
        0
 66
   257
 43
1.0
 76
     1
 77
     6
 78
     2
 67
     7
 79
     5
170
     0
171
     0
290
     0
174
     0
 93
       13
 44
0.0
173
     0
291
     1
 45
0.0
  0
VISUALSTYLE
  5
38
102
{ACAD_REACTORS
330
2A
102
}
102
{ACAD_XDICTIONARY
360
73
102
}
330
2A
100
AcDbVisualStyle
  2
Linepattern
 70
    14
 71
     2
 72
     2
 73
     0
 90
        0
 40
-0.6
 41
-30.0
 62
     5
 63
     7
421
 16777215
 74
     1
 91
        4
 64
     7
 65
   257
 75
     7
175
     7
 42
1.0
 92
        8
 66
     7
 43
1.0
 76
     1
 77
     6
 78
     2
 67
     7
 79
     5
170
     0
171
     0
290
     0
174
     0
 93
        1
 44
0.0
173
     0
291
     1
 45
0.0
  0
VISUALSTYLE
  5
33
102
{ACAD_REACTORS
330
2A
102
}
102
{ACAD_XDICTIONARY
360
69
102
}
330
2A
100
AcDbVisualStyle
  2
Realistic
 70
     8
 71
     2
 72
     2
 73
     0
 90
        0
 40
-0.6
 41
-30.0
 62
     5
 63
     7
421
 16777215
 74
     1
 91
        0
 64
     7
 65
   257
 75
     1
175
     1
 42
1.0
 92
        8
 66
     8
424
  7895160
 43
1.0
 76
     1
 77
     6
 78
     2
 67
     7
 79
     5
170
     0
171
     0
290
     0
174
     0
 93
       13
 44
0.0
173
     0
291
     0
 45
0.0
  0
VISUALSTYLE
  5
37
102
{ACAD_REACTORS
330
2A
102
}
102
{ACAD_XDICTIONARY
360
71
102
}
330
2A
100
AcDbVisualStyle
  2
Thicken
 70
    13
 71
     2
 72
     2
 73
     0
 90
        0
 40
-0.6
 41
-30.0
 62
     5
 63
     7
421
 16777215
 74
     1
 91
        4
 64
     7
 65
   257
 75
     1
175
     1
 42
1.0
 92
       12
 66
     7
 43
1.0
 76
     1
 77
     6
 78
     2
 67
     7
 79
     5
170
     0
171
     0
290
     0
174
     0
 93
        1
 44
0.0
173
     0
291
     1
 45
0.0
  0
DICTIONARY
  5
61
330
2F
100
AcDbDictionary
280
     1
281
     1
  3
ACAD_XREC_ROUNDTRIP
360
62
  0
DICTIONARY
  5
65
330
31
100
AcDbDictionary
280
     1
281
     1
  3
ACAD_XREC_ROUNDTRIP
360
66
  0
DICTIONARY
  5
63
330
30
100
AcDbDictionary
280
     1
281
     1
  3
ACAD_XREC_ROUNDTRIP
360
64
  0
DICTIONARY
  5
67
330
32
100
AcDbDictionary
280
     1
281
     1
  3
ACAD_XREC_ROUNDTRIP
360
68
  0
DICTIONARY
  5
6F
330
36
100
AcDbDictionary
280
     1
281
     1
  3
ACAD_XREC_ROUNDTRIP
360
70
  0
DICTIONARY
  5
77
330
3A
100
AcDbDictionary
280
     1
281
     1
  3
ACAD_XREC_ROUNDTRIP
360
78
  0
DICTIONARY
  5
6B
330
34
100
AcDbDictionary
280
     1
281
     1
  3
ACAD_XREC_ROUNDTRIP
360
6C
  0
DICTIONARY
  5
6D
330
35
100
AcDbDictionary
280
     1
281
     1
  3
ACAD_XREC_ROUNDTRIP
360
6E
  0
DICTIONARY
  5
75
330
39
100
AcDbDictionary
280
     1
281
     1
  3
ACAD_XREC_ROUNDTRIP
360
76
  0
DICTIONARY
  5
59
330
2B
100
AcDbDictionary
280
     1
281
     1
  3
ACAD_XREC_ROUNDTRIP
360
5A
  0
DICTIONARY
  5
5B
330
2C
100
AcDbDictionary
280
     1
281
     1
  3
ACAD_XREC_ROUNDTRIP
360
5C
  0
DICTIONARY
  5
5D
330
2D
100
AcDbDictionary
280
     1
281
     1
  3
ACAD_XREC_ROUNDTRIP
360
5E
  0
DICTIONARY
  5
5F
330
2E
100
AcDbDictionary
280
     1
281
     1
  3
ACAD_XREC_ROUNDTRIP
360
60
  0
DICTIONARY
  5
73
330
38
100
AcDbDictionary
280
     1
281
     1
  3
ACAD_XREC_ROUNDTRIP
360
74
  0
DICTIONARY
  5
69
330
33
100
AcDbDictionary
280
     1
281
     1
  3
ACAD_XREC_ROUNDTRIP
360
6A
  0
DICTIONARY
  5
71
330
37
100
AcDbDictionary
280
     1
281
     1
  3
ACAD_XREC_ROUNDTRIP
360
72
  0
XRECORD
  5
62
102
{ACAD_REACTORS
330
61
102
}
330
61
100
AcDbXrecord
280
     1
102
RTVSPropertyOp0
 70
     1
102
RTVSPropertyOp1
 70
     1
102
RTVSPropertyOp2
 70
     1
102
RTVSPropertyOp3
 70
     1
102
RTVSPropertyOp4
 70
     1
102
RTVSPropertyOp5
 70
     1
102
RTVSPropertyOp6
 70
     1
102
RTVSPropertyOp7
 70
     1
102
RTVSPropertyOp8
 70
     1
102
RTVSPropertyOp9
 70
     1
102
RTVSPropertyOp10
 70
     1
102
RTVSPropertyOp11
 70
     1
102
RTVSPropertyOp12
 70
     1
102
RTVSPropertyOp13
 70
     1
102
RTVSPropertyOp14
 70
     1
102
RTVSPropertyOp15
 70
     1
102
RTVSPropertyOp16
 70
     1
102
RTVSPropertyOp17
 70
     1
102
RTVSPropertyOp18
 70
     1
102
RTVSPropertyOp19
 70
     1
102
RTVSPropertyOp20
 70
     1
102
RTVSPropertyOp21
 70
     1
102
RTVSPropertyOp22
 70
     1
102
RTVSPropertyOp23
 70
     1
102
RTVSPropertyOp24
 70
     1
102
RTVSPropertyOp25
 70
     1
102
RTVSPropertyOp26
 70
     1
102
RTVSPropertyOp27
 70
     1
102
RTVSPropertyOp28
 70
     1
102
RTVSPropertyOp29
 70
     1
102
RTVSPropertyOp30
 70
     1
102
RTVSPropertyOp31
 70
     1
102
RTVSPropertyOp32
 70
     1
  0
XRECORD
  5
66
102
{ACAD_REACTORS
330
65
102
}
330
65
100
AcDbXrecord
280
     1
102
RTVSPropertyOp0
 70
     1
102
RTVSPropertyOp1
 70
     1
102
RTVSPropertyOp2
 70
     1
102
RTVSPropertyOp3
 70
     1
102
RTVSPropertyOp4
 70
     1
102
RTVSPropertyOp5
 70
     1
102
RTVSPropertyOp6
 70
     1
102
RTVSPropertyOp7
 70
     1
102
RTVSPropertyOp8
 70
     1
102
RTVSPropertyOp9
 70
     1
102
RTVSPropertyOp10
 70
     1
102
RTVSPropertyOp11
 70
     1
102
RTVSPropertyOp12
 70
     1
102
RTVSPropertyOp13
 70
     1
102
RTVSPropertyOp14
 70
     1
102
RTVSPropertyOp15
 70
     1
102
RTVSPropertyOp16
 70
     1
102
RTVSPropertyOp17
 70
     1
102
RTVSPropertyOp18
 70
     1
102
RTVSPropertyOp19
 70
     1
102
RTVSPropertyOp20
 70
     1
102
RTVSPropertyOp21
 70
     1
102
RTVSPropertyOp22
 70
     1
102
RTVSPropertyOp23
 70
     1
102
RTVSPropertyOp24
 70
     1
102
RTVSPropertyOp25
 70
     1
102
RTVSPropertyOp26
 70
     1
102
RTVSPropertyOp27
 70
     1
102
RTVSPropertyOp28
 70
     1
102
RTVSPropertyOp29
 70
     1
102
RTVSPropertyOp30
 70
     1
102
RTVSPropertyOp31
 70
     1
102
RTVSPropertyOp32
 70
     1
  0
XRECORD
  5
64
102
{ACAD_REACTORS
330
63
102
}
330
63
100
AcDbXrecord
280
     1
102
RTVSPropertyOp0
 70
     1
102
RTVSPropertyOp1
 70
     1
102
RTVSPropertyOp2
 70
     1
102
RTVSPropertyOp3
 70
     1
102
RTVSPropertyOp4
 70
     1
102
RTVSPropertyOp5
 70
     1
102
RTVSPropertyOp6
 70
     1
102
RTVSPropertyOp7
 70
     1
102
RTVSPropertyOp8
 70
     1
102
RTVSPropertyOp9
 70
     1
102
RTVSPropertyOp10
 70
     1
102
RTVSPropertyOp11
 70
     1
102
RTVSPropertyOp12
 70
     1
102
RTVSPropertyOp13
 70
     1
102
RTVSPropertyOp14
 70
     1
102
RTVSPropertyOp15
 70
     1
102
RTVSPropertyOp16
 70
     1
102
RTVSPropertyOp17
 70
     1
102
RTVSPropertyOp18
 70
     1
102
RTVSPropertyOp19
 70
     1
102
RTVSPropertyOp20
 70
     1
102
RTVSPropertyOp21
 70
     1
102
RTVSPropertyOp22
 70
     1
102
RTVSPropertyOp23
 70
     1
102
RTVSPropertyOp24
 70
     1
102
RTVSPropertyOp25
 70
     1
102
RTVSPropertyOp26
 70
     1
102
RTVSPropertyOp27
 70
     1
102
RTVSPropertyOp28
 70
     1
102
RTVSPropertyOp29
 70
     1
102
RTVSPropertyOp30
 70
     1
102
RTVSPropertyOp31
 70
     1
102
RTVSPropertyOp32
 70
     1
  0
XRECORD
  5
68
102
{ACAD_REACTORS
330
67
102
}
330
67
100
AcDbXrecord
280
     1
102
RTVSPropertyOp0
 70
     1
102
RTVSPropertyOp1
 70
     1
102
RTVSPropertyOp2
 70
     1
102
RTVSPropertyOp3
 70
     1
102
RTVSPropertyOp4
 70
     1
102
RTVSPropertyOp5
 70
     1
102
RTVSPropertyOp6
 70
     1
102
RTVSPropertyOp7
 70
     1
102
RTVSPropertyOp8
 70
     1
102
RTVSPropertyOp9
 70
     1
102
RTVSPropertyOp10
 70
     1
102
RTVSPropertyOp11
 70
     1
102
RTVSPropertyOp12
 70
     1
102
RTVSPropertyOp13
 70
     1
102
RTVSPropertyOp14
 70
     1
102
RTVSPropertyOp15
 70
     1
102
RTVSPropertyOp16
 70
     1
102
RTVSPropertyOp17
 70
     1
102
RTVSPropertyOp18
 70
     1
102
RTVSPropertyOp19
 70
     1
102
RTVSPropertyOp20
 70
     1
102
RTVSPropertyOp21
 70
     1
102
RTVSPropertyOp22
 70
     1
102
RTVSPropertyOp23
 70
     1
102
RTVSPropertyOp24
 70
     1
102
RTVSPropertyOp25
 70
     1
102
RTVSPropertyOp26
 70
     1
102
RTVSPropertyOp27
 70
     1
102
RTVSPropertyOp28
 70
     1
102
RTVSPropertyOp29
 70
     1
102
RTVSPropertyOp30
 70
     1
102
RTVSPropertyOp31
 70
     1
102
RTVSPropertyOp32
 70
     1
  0
XRECORD
  5
70
102
{ACAD_REACTORS
330
6F
102
}
330
6F
100
AcDbXrecord
280
     1
102
RTVSPropertyOp0
 70
     1
102
RTVSPropertyOp1
 70
     1
102
RTVSPropertyOp2
 70
     1
102
RTVSPropertyOp3
 70
     1
102
RTVSPropertyOp4
 70
     1
102
RTVSPropertyOp5
 70
     1
102
RTVSPropertyOp6
 70
     1
102
RTVSPropertyOp7
 70
     1
102
RTVSPropertyOp8
 70
     1
102
RTVSPropertyOp9
 70
     1
102
RTVSPropertyOp10
 70
     1
102
RTVSPropertyOp11
 70
     1
102
RTVSPropertyOp12
 70
     1
102
RTVSPropertyOp13
 70
     1
102
RTVSPropertyOp14
 70
     1
102
RTVSPropertyOp15
 70
     1
102
RTVSPropertyOp16
 70
     1
102
RTVSPropertyOp17
 70
     1
102
RTVSPropertyOp18
 70
     1
102
RTVSPropertyOp19
 70
     1
102
RTVSPropertyOp20
 70
     1
102
RTVSPropertyOp21
 70
     1
102
RTVSPropertyOp22
 70
     1
102
RTVSPropertyOp23
 70
     1
102
RTVSPropertyOp24
 70
     1
102
RTVSPropertyOp25
 70
     1
102
RTVSPropertyOp26
 70
     1
102
RTVSPropertyOp27
 70
     1
102
RTVSPropertyOp28
 70
     1
102
RTVSPropertyOp29
 70
     1
102
RTVSPropertyOp30
 70
     1
102
RTVSPropertyOp31
 70
     1
102
RTVSPropertyOp32
 70
     1
  0
XRECORD
  5
78
102
{ACAD_REACTORS
330
77
102
}
330
77
100
AcDbXrecord
280
     1
102
RTVSPropertyOp0
 70
     1
102
RTVSPropertyOp1
 70
     1
102
RTVSPropertyOp2
 70
     1
102
RTVSPropertyOp3
 70
     1
102
RTVSPropertyOp4
 70
     1
102
RTVSPropertyOp5
 70
     1
102
RTVSPropertyOp6
 70
     1
102
RTVSPropertyOp7
 70
     1
102
RTVSPropertyOp8
 70
     1
102
RTVSPropertyOp9
 70
     1
102
RTVSPropertyOp10
 70
     1
102
RTVSPropertyOp11
 70
     1
102
RTVSPropertyOp12
 70
     1
102
RTVSPropertyOp13
 70
     1
102
RTVSPropertyOp14
 70
     1
102
RTVSPropertyOp15
 70
     1
102
RTVSPropertyOp16
 70
     1
102
RTVSPropertyOp17
 70
     1
102
RTVSPropertyOp18
 70
     1
102
RTVSPropertyOp19
 70
     1
102
RTVSPropertyOp20
 70
     1
102
RTVSPropertyOp21
 70
     1
102
RTVSPropertyOp22
 70
     1
102
RTVSPropertyOp23
 70
     1
102
RTVSPropertyOp24
 70
     1
102
RTVSPropertyOp25
 70
     1
102
RTVSPropertyOp26
 70
     1
102
RTVSPropertyOp27
 70
     1
102
RTVSPropertyOp28
 70
     1
102
RTVSPropertyOp29
 70
     1
102
RTVSPropertyOp30
 70
     1
102
RTVSPropertyOp31
 70
     1
102
RTVSPropertyOp32
 70
     1
  0
XRECORD
  5
6C
102
{ACAD_REACTORS
330
6B
102
}
330
6B
100
AcDbXrecord
280
     1
102
RTVSPropertyOp0
 70
     1
102
RTVSPropertyOp1
 70
     1
102
RTVSPropertyOp2
 70
     1
102
RTVSPropertyOp3
 70
     1
102
RTVSPropertyOp4
 70
     1
102
RTVSPropertyOp5
 70
     1
102
RTVSPropertyOp6
 70
     1
102
RTVSPropertyOp7
 70
     1
102
RTVSPropertyOp8
 70
     1
102
RTVSPropertyOp9
 70
     1
102
RTVSPropertyOp10
 70
     1
102
RTVSPropertyOp11
 70
     1
102
RTVSPropertyOp12
 70
     1
102
RTVSPropertyOp13
 70
     1
102
RTVSPropertyOp14
 70
     1
102
RTVSPropertyOp15
 70
     1
102
RTVSPropertyOp16
 70
     1
102
RTVSPropertyOp17
 70
     1
102
RTVSPropertyOp18
 70
     1
102
RTVSPropertyOp19
 70
     1
102
RTVSPropertyOp20
 70
     1
102
RTVSPropertyOp21
 70
     1
102
RTVSPropertyOp22
 70
     1
102
RTVSPropertyOp23
 70
     1
102
RTVSPropertyOp24
 70
     1
102
RTVSPropertyOp25
 70
     1
102
RTVSPropertyOp26
 70
     1
102
RTVSPropertyOp27
 70
     1
102
RTVSPropertyOp28
 70
     1
102
RTVSPropertyOp29
 70
     1
102
RTVSPropertyOp30
 70
     1
102
RTVSPropertyOp31
 70
     1
102
RTVSPropertyOp32
 70
     1
  0
XRECORD
  5
6E
102
{ACAD_REACTORS
330
6D
102
}
330
6D
100
AcDbXrecord
280
     1
102
RTVSPropertyOp0
 70
     1
102
RTVSPropertyOp1
 70
     1
102
RTVSPropertyOp2
 70
     1
102
RTVSPropertyOp3
 70
     1
102
RTVSPropertyOp4
 70
     1
102
RTVSPropertyOp5
 70
     1
102
RTVSPropertyOp6
 70
     1
102
RTVSPropertyOp7
 70
     1
102
RTVSPropertyOp8
 70
     1
102
RTVSPropertyOp9
 70
     1
102
RTVSPropertyOp10
 70
     1
102
RTVSPropertyOp11
 70
     1
102
RTVSPropertyOp12
 70
     1
102
RTVSPropertyOp13
 70
     1
102
RTVSPropertyOp14
 70
     1
102
RTVSPropertyOp15
 70
     1
102
RTVSPropertyOp16
 70
     1
102
RTVSPropertyOp17
 70
     1
102
RTVSPropertyOp18
 70
     1
102
RTVSPropertyOp19
 70
     1
102
RTVSPropertyOp20
 70
     1
102
RTVSPropertyOp21
 70
     1
102
RTVSPropertyOp22
 70
     1
102
RTVSPropertyOp23
 70
     1
102
RTVSPropertyOp24
 70
     1
102
RTVSPropertyOp25
 70
     1
102
RTVSPropertyOp26
 70
     1
102
RTVSPropertyOp27
 70
     1
102
RTVSPropertyOp28
 70
     1
102
RTVSPropertyOp29
 70
     1
102
RTVSPropertyOp30
 70
     1
102
RTVSPropertyOp31
 70
     1
102
RTVSPropertyOp32
 70
     1
  0
XRECORD
  5
76
102
{ACAD_REACTORS
330
75
102
}
330
75
100
AcDbXrecord
280
     1
102
RTVSPropertyOp0
 70
     1
102
RTVSPropertyOp1
 70
     1
102
RTVSPropertyOp2
 70
     1
102
RTVSPropertyOp3
 70
     1
102
RTVSPropertyOp4
 70
     1
102
RTVSPropertyOp5
 70
     1
102
RTVSPropertyOp6
 70
     1
102
RTVSPropertyOp7
 70
     1
102
RTVSPropertyOp8
 70
     1
102
RTVSPropertyOp9
 70
     1
102
RTVSPropertyOp10
 70
     1
102
RTVSPropertyOp11
 70
     1
102
RTVSPropertyOp12
 70
     1
102
RTVSPropertyOp13
 70
     1
102
RTVSPropertyOp14
 70
     1
102
RTVSPropertyOp15
 70
     1
102
RTVSPropertyOp16
 70
     1
102
RTVSPropertyOp17
 70
     1
102
RTVSPropertyOp18
 70
     1
102
RTVSPropertyOp19
 70
     1
102
RTVSPropertyOp20
 70
     1
102
RTVSPropertyOp21
 70
     1
102
RTVSPropertyOp22
 70
     1
102
RTVSPropertyOp23
 70
     1
102
RTVSPropertyOp24
 70
     1
102
RTVSPropertyOp25
 70
     1
102
RTVSPropertyOp26
 70
     1
102
RTVSPropertyOp27
 70
     1
102
RTVSPropertyOp28
 70
     1
102
RTVSPropertyOp29
 70
     1
102
RTVSPropertyOp30
 70
     1
102
RTVSPropertyOp31
 70
     1
102
RTVSPropertyOp32
 70
     1
  0
XRECORD
  5
5A
102
{ACAD_REACTORS
330
59
102
}
330
59
100
AcDbXrecord
280
     1
102
RTVSPropertyOp0
 70
     1
102
RTVSPropertyOp1
 70
     1
102
RTVSPropertyOp2
 70
     1
102
RTVSPropertyOp3
 70
     1
102
RTVSPropertyOp4
 70
     1
102
RTVSPropertyOp5
 70
     1
102
RTVSPropertyOp6
 70
     1
102
RTVSPropertyOp7
 70
     1
102
RTVSPropertyOp8
 70
     1
102
RTVSPropertyOp9
 70
     1
102
RTVSPropertyOp10
 70
     1
102
RTVSPropertyOp11
 70
     1
102
RTVSPropertyOp12
 70
     1
102
RTVSPropertyOp13
 70
     1
102
RTVSPropertyOp14
 70
     1
102
RTVSPropertyOp15
 70
     1
102
RTVSPropertyOp16
 70
     1
102
RTVSPropertyOp17
 70
     1
102
RTVSPropertyOp18
 70
     1
102
RTVSPropertyOp19
 70
     1
102
RTVSPropertyOp20
 70
     1
102
RTVSPropertyOp21
 70
     1
102
RTVSPropertyOp22
 70
     1
102
RTVSPropertyOp23
 70
     1
102
RTVSPropertyOp24
 70
     1
102
RTVSPropertyOp25
 70
     1
102
RTVSPropertyOp26
 70
     1
102
RTVSPropertyOp27
 70
     1
102
RTVSPropertyOp28
 70
     1
102
RTVSPropertyOp29
 70
     1
102
RTVSPropertyOp30
 70
     1
102
RTVSPropertyOp31
 70
     1
102
RTVSPropertyOp32
 70
     1
  0
XRECORD
  5
5C
102
{ACAD_REACTORS
330
5B
102
}
330
5B
100
AcDbXrecord
280
     1
102
RTVSPropertyOp0
 70
     1
102
RTVSPropertyOp1
 70
     1
102
RTVSPropertyOp2
 70
     1
102
RTVSPropertyOp3
 70
     1
102
RTVSPropertyOp4
 70
     1
102
RTVSPropertyOp5
 70
     1
102
RTVSPropertyOp6
 70
     1
102
RTVSPropertyOp7
 70
     1
102
RTVSPropertyOp8
 70
     1
102
RTVSPropertyOp9
 70
     1
102
RTVSPropertyOp10
 70
     1
102
RTVSPropertyOp11
 70
     1
102
RTVSPropertyOp12
 70
     1
102
RTVSPropertyOp13
 70
     1
102
RTVSPropertyOp14
 70
     1
102
RTVSPropertyOp15
 70
     1
102
RTVSPropertyOp16
 70
     1
102
RTVSPropertyOp17
 70
     1
102
RTVSPropertyOp18
 70
     1
102
RTVSPropertyOp19
 70
     1
102
RTVSPropertyOp20
 70
     1
102
RTVSPropertyOp21
 70
     1
102
RTVSPropertyOp22
 70
     1
102
RTVSPropertyOp23
 70
     1
102
RTVSPropertyOp24
 70
     1
102
RTVSPropertyOp25
 70
     1
102
RTVSPropertyOp26
 70
     1
102
RTVSPropertyOp27
 70
     1
102
RTVSPropertyOp28
 70
     1
102
RTVSPropertyOp29
 70
     1
102
RTVSPropertyOp30
 70
     1
102
RTVSPropertyOp31
 70
     1
102
RTVSPropertyOp32
 70
     1
  0
XRECORD
  5
5E
102
{ACAD_REACTORS
330
5D
102
}
330
5D
100
AcDbXrecord
280
     1
102
RTVSPropertyOp0
 70
     1
102
RTVSPropertyOp1
 70
     1
102
RTVSPropertyOp2
 70
     1
102
RTVSPropertyOp3
 70
     1
102
RTVSPropertyOp4
 70
     1
102
RTVSPropertyOp5
 70
     1
102
RTVSPropertyOp6
 70
     1
102
RTVSPropertyOp7
 70
     1
102
RTVSPropertyOp8
 70
     1
102
RTVSPropertyOp9
 70
     1
102
RTVSPropertyOp10
 70
     1
102
RTVSPropertyOp11
 70
     1
102
RTVSPropertyOp12
 70
     1
102
RTVSPropertyOp13
 70
     1
102
RTVSPropertyOp14
 70
     1
102
RTVSPropertyOp15
 70
     1
102
RTVSPropertyOp16
 70
     1
102
RTVSPropertyOp17
 70
     1
102
RTVSPropertyOp18
 70
     1
102
RTVSPropertyOp19
 70
     1
102
RTVSPropertyOp20
 70
     1
102
RTVSPropertyOp21
 70
     1
102
RTVSPropertyOp22
 70
     1
102
RTVSPropertyOp23
 70
     1
102
RTVSPropertyOp24
 70
     1
102
RTVSPropertyOp25
 70
     1
102
RTVSPropertyOp26
 70
     1
102
RTVSPropertyOp27
 70
     1
102
RTVSPropertyOp28
 70
     1
102
RTVSPropertyOp29
 70
     1
102
RTVSPropertyOp30
 70
     1
102
RTVSPropertyOp31
 70
     1
102
RTVSPropertyOp32
 70
     1
  0
XRECORD
  5
60
102
{ACAD_REACTORS
330
5F
102
}
330
5F
100
AcDbXrecord
280
     1
102
RTVSPropertyOp0
 70
     1
102
RTVSPropertyOp1
 70
     1
102
RTVSPropertyOp2
 70
     1
102
RTVSPropertyOp3
 70
     1
102
RTVSPropertyOp4
 70
     1
102
RTVSPropertyOp5
 70
     1
102
RTVSPropertyOp6
 70
     1
102
RTVSPropertyOp7
 70
     1
102
RTVSPropertyOp8
 70
     1
102
RTVSPropertyOp9
 70
     1
102
RTVSPropertyOp10
 70
     1
102
RTVSPropertyOp11
 70
     1
102
RTVSPropertyOp12
 70
     1
102
RTVSPropertyOp13
 70
     1
102
RTVSPropertyOp14
 70
     1
102
RTVSPropertyOp15
 70
     1
102
RTVSPropertyOp16
 70
     1
102
RTVSPropertyOp17
 70
     1
102
RTVSPropertyOp18
 70
     1
102
RTVSPropertyOp19
 70
     1
102
RTVSPropertyOp20
 70
     1
102
RTVSPropertyOp21
 70
     1
102
RTVSPropertyOp22
 70
     1
102
RTVSPropertyOp23
 70
     1
102
RTVSPropertyOp24
 70
     1
102
RTVSPropertyOp25
 70
     1
102
RTVSPropertyOp26
 70
     1
102
RTVSPropertyOp27
 70
     1
102
RTVSPropertyOp28
 70
     1
102
RTVSPropertyOp29
 70
     1
102
RTVSPropertyOp30
 70
     1
102
RTVSPropertyOp31
 70
     1
102
RTVSPropertyOp32
 70
     1
  0
XRECORD
  5
74
102
{ACAD_REACTORS
330
73
102
}
330
73
100
AcDbXrecord
280
     1
102
RTVSPropertyOp0
 70
     1
102
RTVSPropertyOp1
 70
     1
102
RTVSPropertyOp2
 70
     1
102
RTVSPropertyOp3
 70
     1
102
RTVSPropertyOp4
 70
     1
102
RTVSPropertyOp5
 70
     1
102
RTVSPropertyOp6
 70
     1
102
RTVSPropertyOp7
 70
     1
102
RTVSPropertyOp8
 70
     1
102
RTVSPropertyOp9
 70
     1
102
RTVSPropertyOp10
 70
     1
102
RTVSPropertyOp11
 70
     1
102
RTVSPropertyOp12
 70
     1
102
RTVSPropertyOp13
 70
     1
102
RTVSPropertyOp14
 70
     1
102
RTVSPropertyOp15
 70
     1
102
RTVSPropertyOp16
 70
     1
102
RTVSPropertyOp17
 70
     1
102
RTVSPropertyOp18
 70
     1
102
RTVSPropertyOp19
 70
     1
102
RTVSPropertyOp20
 70
     1
102
RTVSPropertyOp21
 70
     1
102
RTVSPropertyOp22
 70
     1
102
RTVSPropertyOp23
 70
     1
102
RTVSPropertyOp24
 70
     1
102
RTVSPropertyOp25
 70
     1
102
RTVSPropertyOp26
 70
     1
102
RTVSPropertyOp27
 70
     1
102
RTVSPropertyOp28
 70
     1
102
RTVSPropertyOp29
 70
     1
102
RTVSPropertyOp30
 70
     1
102
RTVSPropertyOp31
 70
     1
102
RTVSPropertyOp32
 70
     1
  0
XRECORD
  5
6A
102
{ACAD_REACTORS
330
69
102
}
330
69
100
AcDbXrecord
280
     1
102
RTVSPropertyOp0
 70
     1
102
RTVSPropertyOp1
 70
     1
102
RTVSPropertyOp2
 70
     1
102
RTVSPropertyOp3
 70
     1
102
RTVSPropertyOp4
 70
     1
102
RTVSPropertyOp5
 70
     1
102
RTVSPropertyOp6
 70
     1
102
RTVSPropertyOp7
 70
     1
102
RTVSPropertyOp8
 70
     1
102
RTVSPropertyOp9
 70
     1
102
RTVSPropertyOp10
 70
     1
102
RTVSPropertyOp11
 70
     1
102
RTVSPropertyOp12
 70
     1
102
RTVSPropertyOp13
 70
     1
102
RTVSPropertyOp14
 70
     1
102
RTVSPropertyOp15
 70
     1
102
RTVSPropertyOp16
 70
     1
102
RTVSPropertyOp17
 70
     1
102
RTVSPropertyOp18
 70
     1
102
RTVSPropertyOp19
 70
     1
102
RTVSPropertyOp20
 70
     1
102
RTVSPropertyOp21
 70
     1
102
RTVSPropertyOp22
 70
     1
102
RTVSPropertyOp23
 70
     1
102
RTVSPropertyOp24
 70
     1
102
RTVSPropertyOp25
 70
     1
102
RTVSPropertyOp26
 70
     1
102
RTVSPropertyOp27
 70
     1
102
RTVSPropertyOp28
 70
     1
102
RTVSPropertyOp29
 70
     1
102
RTVSPropertyOp30
 70
     1
102
RTVSPropertyOp31
 70
     1
102
RTVSPropertyOp32
 70
     1
  0
XRECORD
  5
72
102
{ACAD_REACTORS
330
71
102
}
330
71
100
AcDbXrecord
280
     1
102
RTVSPropertyOp0
 70
     1
102
RTVSPropertyOp1
 70
     1
102
RTVSPropertyOp2
 70
     1
102
RTVSPropertyOp3
 70
     1
102
RTVSPropertyOp4
 70
     1
102
RTVSPropertyOp5
 70
     1
102
RTVSPropertyOp6
 70
     1
102
RTVSPropertyOp7
 70
     1
102
RTVSPropertyOp8
 70
     1
102
RTVSPropertyOp9
 70
     1
102
RTVSPropertyOp10
 70
     1
102
RTVSPropertyOp11
 70
     1
102
RTVSPropertyOp12
 70
     1
102
RTVSPropertyOp13
 70
     1
102
RTVSPropertyOp14
 70
     1
102
RTVSPropertyOp15
 70
     1
102
RTVSPropertyOp16
 70
     1
102
RTVSPropertyOp17
 70
     1
102
RTVSPropertyOp18
 70
     1
102
RTVSPropertyOp19
 70
     1
102
RTVSPropertyOp20
 70
     1
102
RTVSPropertyOp21
 70
     1
102
RTVSPropertyOp22
 70
     1
102
RTVSPropertyOp23
 70
     1
102
RTVSPropertyOp24
 70
     1
102
RTVSPropertyOp25
 70
     1
102
RTVSPropertyOp26
 70
     1
102
RTVSPropertyOp27
 70
     1
102
RTVSPropertyOp28
 70
     1
102
RTVSPropertyOp29
 70
     1
102
RTVSPropertyOp30
 70
     1
102
RTVSPropertyOp31
 70
     1
102
RTVSPropertyOp32
 70
     1
  0
ENDSEC
  0
EOF
