  0
SECTION
  2
HEADER
  9
$ACADVER
  1
AC1021
  9
$ACADMAINTVER
 70
    25
  9
$DWGCODEPAGE
  3
ANSI_1252
  9
$INSBASE
 10
0.0
 20
0.0
 30
0.0
  9
$EXTMIN
 10
-16.52715
 20
-13.18243
 30
0.0
  9
$EXTMAX
 10
-3.47285
 20
-6.83197
 30
0.0
  9
$LIMMIN
 10
0.0
 20
0.0
  9
$LIMMAX
 10
12.0
 20
9.0
  9
$ORTHOMODE
 70
     0
  9
$REGENMODE
 70
     1
  9
$FILLMODE
 70
     1
  9
$QTEXTMODE
 70
     0
  9
$MIRRTEXT
 70
     1
  9
$LTSCALE
 40
1.0
  9
$ATTMODE
 70
     1
  9
$TEXTSIZE
 40
0.2
  9
$TRACEWID
 40
0.05
  9
$TEXTSTYLE
  7
Standard
  9
$CLAYER
  8
0
  9
$CELTYPE
  6
ByLayer
  9
$CECOLOR
 62
   256
  9
$CELTSCALE
 40
1.0
  9
$DISPSILH
 70
     0
  9
$DIMSCALE
 40
1.0
  9
$DIMASZ
 40
0.18
  9
$DIMEXO
 40
0.0625
  9
$DIMDLI
 40
0.38
  9
$DIMRND
 40
0.0
  9
$DIMDLE
 40
0.0
  9
$DIMEXE
 40
0.18
  9
$DIMTP
 40
0.0
  9
$DIMTM
 40
0.0
  9
$DIMTXT
 40
0.18
  9
$DIMCEN
 40
0.09
  9
$DIMTSZ
 40
0.0
  9
$DIMTOL
 70
     0
  9
$DIMLIM
 70
     0
  9
$DIMTIH
 70
     1
  9
$DIMTOH
 70
     1
  9
$DIMSE1
 70
     0
  9
$DIMSE2
 70
     0
  9
$DIMTAD
 70
     0
  9
$DIMZIN
 70
     0
  9
$DIMBLK
  1

  9
$DIMASO
 70
     1
  9
$DIMSHO
 70
     1
  9
$DIMPOST
  1

  9
$DIMAPOST
  1

  9
$DIMALT
 70
     0
  9
$DIMALTD
 70
     2
  9
$DIMALTF
 40
25.4
  9
$DIMLFAC
 40
1.0
  9
$DIMTOFL
 70
     0
  9
$DIMTVP
 40
0.0
  9
$DIMTIX
 70
     0
  9
$DIMSOXD
 70
     0
  9
$DIMSAH
 70
     0
  9
$DIMBLK1
  1

  9
$DIMBLK2
  1

  9
$DIMSTYLE
  2
Standard
  9
$DIMCLRD
 70
     0
  9
$DIMCLRE
 70
     0
  9
$DIMCLRT
 70
     0
  9
$DIMTFAC
 40
1.0
  9
$DIMGAP
 40
0.09
  9
$DIMJUST
 70
     0
  9
$DIMSD1
 70
     0
  9
$DIMSD2
 70
     0
  9
$DIMTOLJ
 70
     1
  9
$DIMTZIN
 70
     0
  9
$DIMALTZ
 70
     0
  9
$DIMALTTZ
 70
     0
  9
$DIMUPT
 70
     0
  9
$DIMDEC
 70
     4
  9
$DIMTDEC
 70
     4
  9
$DIMALTU
 70
     2
  9
$DIMALTTD
 70
     2
  9
$DIMTXSTY
  7
Standard
  9
$DIMAUNIT
 70
     0
  9
$DIMADEC
 70
     0
  9
$DIMALTRND
 40
0.0
  9
$DIMAZIN
 70
     0
  9
$DIMDSEP
 70
    46
  9
$DIMATFIT
 70
     3
  9
$DIMFRAC
 70
     0
  9
$DIMLDRBLK
  1

  9
$DIMLUNIT
 70
     2
  9
$DIMLWD
 70
    -2
  9
$DIMLWE
 70
    -2
  9
$DIMTMOVE
 70
     0
  9
$DIMFXL
 40
1.0
  9
$DIMFXLON
 70
     0
  9
$DIMJOGANG
 40
0.7853981633974483
  9
$DIMTFILL
 70
     0
  9
$DIMTFILLCLR
 70
     0
  9
$DIMARCSYM
 70
     0
  9
$DIMLTYPE
  6

  9
$DIMLTEX1
  6

  9
$DIMLTEX2
  6

  9
$LUNITS
 70
     2
  9
$LUPREC
 70
     4
  9
$SKETCHINC
 40
0.1
  9
$FILLETRAD
 40
0.5
  9
$AUNITS
 70
     0
  9
$AUPREC
 70
     0
  9
$MENU
  1
.
  9
$ELEVATION
 40
0.0
  9
$PELEVATION
 40
0.0
  9
$THICKNESS
 40
0.0
  9
$LIMCHECK
 70
     0
  9
$CHAMFERA
 40
0.5
  9
$CHAMFERB
 40
0.5
  9
$CHAMFERC
 40
1.0
  9
$CHAMFERD
 40
0.0
  9
$SKPOLY
 70
     0
  9
$TDCREATE
 40
2460554.876605347
  9
$TDUCREATE
 40
2460554.834938681
  9
$TDUPDATE
 40
2460554.876605371
  9
$TDUUPDATE
 40
2460554.834938704
  9
$TDINDWG
 40
0.0000000116
  9
$TDUSRTIMER
 40
0.0000000116
  9
$USRTIMER
 70
     1
  9
$ANGBASE
 50
0.0
  9
$ANGDIR
 70
     0
  9
$PDMODE
 70
     0
  9
$PDSIZE
 40
0.0
  9
$PLINEWID
 40
0.0
  9
$SPLFRAME
 70
     0
  9
$SPLINETYPE
 70
     6
  9
$SPLINESEGS
 70
     8
  9
$HANDSEED
  5
65
  9
$SURFTAB1
 70
     6
  9
$SURFTAB2
 70
     6
  9
$SURFTYPE
 70
     6
  9
$SURFU
 70
     6
  9
$SURFV
 70
     6
  9
$UCSBASE
  2

  9
$UCSNAME
  2

  9
$UCSORG
 10
0.0
 20
0.0
 30
0.0
  9
$UCSXDIR
 10
1.0
 20
0.0
 30
0.0
  9
$UCSYDIR
 10
0.0
 20
1.0
 30
0.0
  9
$UCSORTHOREF
  2

  9
$UCSORTHOVIEW
 70
     0
  9
$UCSORGTOP
 10
0.0
 20
0.0
 30
0.0
  9
$UCSORGBOTTOM
 10
0.0
 20
0.0
 30
0.0
  9
$UCSORGLEFT
 10
0.0
 20
0.0
 30
0.0
  9
$UCSORGRIGHT
 10
0.0
 20
0.0
 30
0.0
  9
$UCSORGFRONT
 10
0.0
 20
0.0
 30
0.0
  9
$UCSORGBACK
 10
0.0
 20
0.0
 30
0.0
  9
$PUCSBASE
  2

  9
$PUCSNAME
  2

  9
$PUCSORG
 10
0.0
 20
0.0
 30
0.0
  9
$PUCSXDIR
 10
1.0
 20
0.0
 30
0.0
  9
$PUCSYDIR
 10
0.0
 20
1.0
 30
0.0
  9
$PUCSORTHOREF
  2

  9
$PUCSORTHOVIEW
 70
     0
  9
$PUCSORGTOP
 10
0.0
 20
0.0
 30
0.0
  9
$PUCSORGBOTTOM
 10
0.0
 20
0.0
 30
0.0
  9
$PUCSORGLEFT
 10
0.0
 20
0.0
 30
0.0
  9
$PUCSORGRIGHT
 10
0.0
 20
0.0
 30
0.0
  9
$PUCSORGFRONT
 10
0.0
 20
0.0
 30
0.0
  9
$PUCSORGBACK
 10
0.0
 20
0.0
 30
0.0
  9
$USERI1
 70
     0
  9
$USERI2
 70
     0
  9
$USERI3
 70
     0
  9
$USERI4
 70
     0
  9
$USERI5
 70
     0
  9
$USERR1
 40
0.0
  9
$USERR2
 40
0.0
  9
$USERR3
 40
0.0
  9
$USERR4
 40
0.0
  9
$USERR5
 40
0.0
  9
$WORLDVIEW
 70
     1
  9
$SHADEDGE
 70
     3
  9
$SHADEDIF
 70
    70
  9
$TILEMODE
 70
     1
  9
$MAXACTVP
 70
    64
  9
$PINSBASE
 10
0.0
 20
0.0
 30
0.0
  9
$PLIMCHECK
 70
     0
  9
$PEXTMIN
 10
1.000000000000000E+20
 20
1.000000000000000E+20
 30
1.000000000000000E+20
  9
$PEXTMAX
 10
-1.000000000000000E+20
 20
-1.000000000000000E+20
 30
-1.000000000000000E+20
  9
$PLIMMIN
 10
0.0
 20
0.0
  9
$PLIMMAX
 10
12.0
 20
9.0
  9
$UNITMODE
 70
     0
  9
$VISRETAIN
 70
     1
  9
$PLINEGEN
 70
     0
  9
$PSLTSCALE
 70
     1
  9
$TREEDEPTH
 70
  3020
  9
$CMLSTYLE
  2
Standard
  9
$CMLJUST
 70
     0
  9
$CMLSCALE
 40
1.0
  9
$PROXYGRAPHICS
 70
     1
  9
$MEASUREMENT
 70
     0
  9
$CELWEIGHT
370
    -1
  9
$ENDCAPS
280
     0
  9
$JOINSTYLE
280
     0
  9
$LWDISPLAY
290
     0
  9
$INSUNITS
 70
     5
  9
$HYPERLINKBASE
  1

  9
$STYLESHEET
  1

  9
$XEDIT
290
     1
  9
$CEPSNTYPE
380
     0
  9
$PSTYLEMODE
290
     1
  9
$FINGERPRINTGUID
  2
{F05FBE26-41F0-43F4-9ED4-9AA2E7BD4B80}
  9
$VERSIONGUID
  2
{FAEB1C32-E019-11D5-929B-00C0DF256EC4}
  9
$EXTNAMES
290
     1
  9
$PSVPSCALE
 40
0.0
  9
$OLESTARTUP
290
     0
  9
$SORTENTS
280
   127
  9
$INDEXCTL
280
     0
  9
$HIDETEXT
280
     1
  9
$XCLIPFRAME
290
     0
  9
$HALOGAP
280
     0
  9
$OBSCOLOR
 70
   257
  9
$OBSLTYPE
280
     0
  9
$INTERSECTIONDISPLAY
280
     0
  9
$INTERSECTIONCOLOR
 70
   257
  9
$DIMASSOC
280
     2
  9
$PROJECTNAME
  1

  9
$CAMERADISPLAY
290
     0
  9
$LENSLENGTH
 40
50.0
  9
$CAMERAHEIGHT
 40
0.0
  9
$STEPSPERSEC
 40
2.0
  9
$STEPSIZE
 40
6.0
  9
$3DDWFPREC
 40
2.0
  9
$PSOLWIDTH
 40
0.25
  9
$PSOLHEIGHT
 40
4.0
  9
$LOFTANG1
 40
1.570796326794897
  9
$LOFTANG2
 40
1.570796326794897
  9
$LOFTMAG1
 40
0.0
  9
$LOFTMAG2
 40
0.0
  9
$LOFTPARAM
 70
     7
  9
$LOFTNORMALS
280
     1
  9
$LATITUDE
 40
37.795
  9
$LONGITUDE
 40
-122.394
  9
$NORTHDIRECTION
 40
0.0
  9
$TIMEZONE
 70
 -8000
  9
$LIGHTGLYPHDISPLAY
280
     1
  9
$TILEMODELIGHTSYNCH
280
     1
  9
$SOLIDHIST
280
     1
  9
$SHOWHIST
280
     1
  9
$DWFFRAME
280
     2
  9
$DGNFRAME
280
     2
  9
$REALWORLDSCALE
290
     1
  9
$INTERFERECOLOR
 62
   256
  9
$CSHADOW
280
     0
  9
$SHADOWPLANELOCATION
 40
0.0
  0
ENDSEC
  0
SECTION
  2
CLASSES
  0
CLASS
  1
ACDBDICTIONARYWDFLT
  2
AcDbDictionaryWithDefault
  3
ObjectDBX Classes
 90
        0
 91
        4
280
     0
281
     0
  0
CLASS
  1
VISUALSTYLE
  2
AcDbVisualStyle
  3
ObjectDBX Classes
 90
     4095
 91
        4
280
     0
281
     0
  0
CLASS
  1
MATERIAL
  2
AcDbMaterial
  3
ObjectDBX Classes
 90
     1153
 91
        4
280
     0
281
     0
  0
ENDSEC
  0
SECTION
  2
TABLES
  0
TABLE
  2
VPORT
  5
8
330
0
100
AcDbSymbolTable
 70
     1
  0
VPORT
  5
29
330
8
100
AcDbSymbolTableRecord
100
AcDbViewportTableRecord
  2
*Active
 70
     0
 10
0.0
 20
0.0
 11
1.0
 21
1.0
 12
10.42990654205607
 22
4.5
 13
0.0
 23
0.0
 14
0.5
 24
0.5
 15
0.5
 25
0.5
 16
0.0
 26
0.0
 36
1.0
 17
0.0
 27
0.0
 37
0.0
 40
9.0
 41
1.972972972850329
 42
50.0
 43
0.0
 44
0.0
 50
0.0
 51
0.0
 71
     0
 72
   100
 73
     1
 74
     3
 75
     0
 76
     0
 77
     0
 78
     0
281
     0
 65
     1
110
0.0
120
0.0
130
0.0
111
1.0
121
0.0
131
0.0
112
0.0
122
1.0
132
0.0
 79
     0
146
0.0
 60
     3
 61
     5
292
     1
282
     1
141
0.0
142
0.0
 63
   250
  0
ENDTAB
  0
TABLE
  2
LTYPE
  5
5
330
0
100
AcDbSymbolTable
 70
     1
  0
LTYPE
  5
14
330
5
100
AcDbSymbolTableRecord
100
AcDbLinetypeTableRecord
  2
ByBlock
 70
     0
  3

 72
    65
 73
     0
 40
0.0
  0
LTYPE
  5
15
330
5
100
AcDbSymbolTableRecord
100
AcDbLinetypeTableRecord
  2
ByLayer
 70
     0
  3

 72
    65
 73
     0
 40
0.0
  0
LTYPE
  5
16
330
5
100
AcDbSymbolTableRecord
100
AcDbLinetypeTableRecord
  2
Continuous
 70
     0
  3
Solid line
 72
    65
 73
     0
 40
0.0
  0
ENDTAB
  0
TABLE
  2
LAYER
  5
2
330
0
100
AcDbSymbolTable
 70
     2
  0
LAYER
  5
10
330
2
100
AcDbSymbolTableRecord
100
AcDbLayerTableRecord
  2
0
 70
     0
 62
     7
  6
Continuous
370
    -3
390
F
347
3E
  0
LAYER
  5
40
330
2
100
AcDbSymbolTableRecord
100
AcDbLayerTableRecord
  2
Layer 1
 70
     0
 62
     7
  6
Continuous
370
    -3
390
F
347
3E
  0
ENDTAB
  0
TABLE
  2
STYLE
  5
3
330
0
100
AcDbSymbolTable
 70
     1
  0
STYLE
  5
11
330
3
100
AcDbSymbolTableRecord
100
AcDbTextStyleTableRecord
  2
Standard
 70
     0
 40
0.0
 41
1.0
 50
0.0
 71
     0
 42
0.2
  3
txt
  4

  0
ENDTAB
  0
TABLE
  2
VIEW
  5
6
330
0
100
AcDbSymbolTable
 70
     0
  0
ENDTAB
  0
TABLE
  2
UCS
  5
7
330
0
100
AcDbSymbolTable
 70
     0
  0
ENDTAB
  0
TABLE
  2
APPID
  5
9
330
0
100
AcDbSymbolTable
 70
     2
  0
APPID
  5
12
330
9
100
AcDbSymbolTableRecord
100
AcDbRegAppTableRecord
  2
ACAD
 70
     0
  0
APPID
  5
3F
330
9
100
AcDbSymbolTableRecord
100
AcDbRegAppTableRecord
  2
ODA
 70
     0
  0
ENDTAB
  0
TABLE
  2
DIMSTYLE
  5
A
330
0
100
AcDbSymbolTable
 70
     1
100
AcDbDimStyleTable
  0
DIMSTYLE
105
27
330
A
100
AcDbSymbolTableRecord
100
AcDbDimStyleTableRecord
  2
Standard
 70
     0
178
     0
340
11
  0
ENDTAB
  0
TABLE
  2
BLOCK_RECORD
  5
1
330
0
100
AcDbSymbolTable
 70
     1
  0
BLOCK_RECORD
  5
1F
330
1
100
AcDbSymbolTableRecord
100
AcDbBlockTableRecord
  2
*Model_Space
340
22
 70
     0
280
     1
281
     0
  0
BLOCK_RECORD
  5
1B
330
1
100
AcDbSymbolTableRecord
100
AcDbBlockTableRecord
  2
*Paper_Space
340
1E
 70
     0
280
     1
281
     0
  0
BLOCK_RECORD
  5
23
330
1
100
AcDbSymbolTableRecord
100
AcDbBlockTableRecord
  2
*Paper_Space0
340
26
 70
     0
280
     1
281
     0
  0
ENDTAB
  0
ENDSEC
  0
SECTION
  2
BLOCKS
  0
BLOCK
  5
20
330
1F
100
AcDbEntity
  8
0
100
AcDbBlockBegin
  2
*Model_Space
 70
     0
 10
0.0
 20
0.0
 30
0.0
  3
*Model_Space
  1

  0
ENDBLK
  5
21
330
1F
100
AcDbEntity
  8
0
100
AcDbBlockEnd
  0
BLOCK
  5
1C
330
1B
100
AcDbEntity
 67
     1
  8
0
100
AcDbBlockBegin
  2
*Paper_Space
 70
     0
 10
0.0
 20
0.0
 30
0.0
  3
*Paper_Space
  1

  0
ENDBLK
  5
1D
330
1B
100
AcDbEntity
 67
     1
  8
0
100
AcDbBlockEnd
  0
BLOCK
  5
24
330
23
100
AcDbEntity
  8
0
100
AcDbBlockBegin
  2
*Paper_Space0
 70
     0
 10
0.0
 20
0.0
 30
0.0
  3
*Paper_Space0
  1

  0
ENDBLK
  5
25
330
23
100
AcDbEntity
  8
0
100
AcDbBlockEnd
  0
ENDSEC
  0
SECTION
  2
ENTITIES
  0
SPLINE
  5
41
330
1F
100
AcDbEntity
  8
Layer 1
370
    53
100
AcDbSpline
210
0.0
220
0.0
230
1.0
 70
    11
 71
     3
 72
   312
 73
   308
 74
     0
 42
0.0000000001
 43
0.0000000001
 12
1.0
 22
0.0
 32
0.0
 13
1.0
 23
0.0
 33
0.0
 40
0.0
 40
0.0
 40
0.0
 40
0.0
 40
0.0128205128205128
 40
0.0128205128205128
 40
0.0128205128205128
 40
0.0128205128205128
 40
0.0256410256410256
 40
0.0256410256410256
 40
0.0256410256410256
 40
0.0256410256410256
 40
0.0384615384615385
 40
0.0384615384615385
 40
0.0384615384615385
 40
0.0384615384615385
 40
0.0512820512820513
 40
0.0512820512820513
 40
0.0512820512820513
 40
0.0512820512820513
 40
0.0641025641025641
 40
0.0641025641025641
 40
0.0641025641025641
 40
0.0641025641025641
 40
0.0769230769230769
 40
0.0769230769230769
 40
0.0769230769230769
 40
0.0769230769230769
 40
0.0897435897435897
 40
0.0897435897435897
 40
0.0897435897435897
 40
0.0897435897435897
 40
0.1025641025641026
 40
0.1025641025641026
 40
0.1025641025641026
 40
0.1025641025641026
 40
0.1153846153846154
 40
0.1153846153846154
 40
0.1153846153846154
 40
0.1153846153846154
 40
0.1282051282051282
 40
0.1282051282051282
 40
0.1282051282051282
 40
0.1282051282051282
 40
0.141025641025641
 40
0.141025641025641
 40
0.141025641025641
 40
0.141025641025641
 40
0.1538461538461539
 40
0.1538461538461539
 40
0.1538461538461539
 40
0.1538461538461539
 40
0.1666666666666667
 40
0.1666666666666667
 40
0.1666666666666667
 40
0.1666666666666667
 40
0.1794871794871795
 40
0.1794871794871795
 40
0.1794871794871795
 40
0.1794871794871795
 40
0.1923076923076923
 40
0.1923076923076923
 40
0.1923076923076923
 40
0.1923076923076923
 40
0.2051282051282051
 40
0.2051282051282051
 40
0.2051282051282051
 40
0.2051282051282051
 40
0.217948717948718
 40
0.217948717948718
 40
0.217948717948718
 40
0.217948717948718
 40
0.2307692307692308
 40
0.2307692307692308
 40
0.2307692307692308
 40
0.2307692307692308
 40
0.2435897435897436
 40
0.2435897435897436
 40
0.2435897435897436
 40
0.2435897435897436
 40
0.2564102564102564
 40
0.2564102564102564
 40
0.2564102564102564
 40
0.2564102564102564
 40
0.2692307692307692
 40
0.2692307692307692
 40
0.2692307692307692
 40
0.2692307692307692
 40
0.282051282051282
 40
0.282051282051282
 40
0.282051282051282
 40
0.282051282051282
 40
0.2948717948717949
 40
0.2948717948717949
 40
0.2948717948717949
 40
0.2948717948717949
 40
0.3076923076923077
 40
0.3076923076923077
 40
0.3076923076923077
 40
0.3076923076923077
 40
0.3205128205128205
 40
0.3205128205128205
 40
0.3205128205128205
 40
0.3205128205128205
 40
0.3333333333333333
 40
0.3333333333333333
 40
0.3333333333333333
 40
0.3333333333333333
 40
0.3461538461538461
 40
0.3461538461538461
 40
0.3461538461538461
 40
0.3461538461538461
 40
0.358974358974359
 40
0.358974358974359
 40
0.358974358974359
 40
0.358974358974359
 40
0.3717948717948718
 40
0.3717948717948718
 40
0.3717948717948718
 40
0.3717948717948718
 40
0.3846153846153846
 40
0.3846153846153846
 40
0.3846153846153846
 40
0.3846153846153846
 40
0.3974358974358974
 40
0.3974358974358974
 40
0.3974358974358974
 40
0.3974358974358974
 40
0.4102564102564102
 40
0.4102564102564102
 40
0.4102564102564102
 40
0.4102564102564102
 40
0.4230769230769231
 40
0.4230769230769231
 40
0.4230769230769231
 40
0.4230769230769231
 40
0.4358974358974359
 40
0.4358974358974359
 40
0.4358974358974359
 40
0.4358974358974359
 40
0.4487179487179487
 40
0.4487179487179487
 40
0.4487179487179487
 40
0.4487179487179487
 40
0.4615384615384616
 40
0.4615384615384616
 40
0.4615384615384616
 40
0.4615384615384616
 40
0.4743589743589743
 40
0.4743589743589743
 40
0.4743589743589743
 40
0.4743589743589743
 40
0.4871794871794872
 40
0.4871794871794872
 40
0.4871794871794872
 40
0.4871794871794872
 40
0.5
 40
0.5
 40
0.5
 40
0.5
 40
0.5128205128205128
 40
0.5128205128205128
 40
0.5128205128205128
 40
0.5128205128205128
 40
0.5256410256410257
 40
0.5256410256410257
 40
0.5256410256410257
 40
0.5256410256410257
 40
0.5384615384615384
 40
0.5384615384615384
 40
0.5384615384615384
 40
0.5384615384615384
 40
0.5512820512820513
 40
0.5512820512820513
 40
0.5512820512820513
 40
0.5512820512820513
 40
0.5641025641025641
 40
0.5641025641025641
 40
0.5641025641025641
 40
0.5641025641025641
 40
0.5769230769230769
 40
0.5769230769230769
 40
0.5769230769230769
 40
0.5769230769230769
 40
0.5897435897435898
 40
0.5897435897435898
 40
0.5897435897435898
 40
0.5897435897435898
 40
0.6025641025641025
 40
0.6025641025641025
 40
0.6025641025641025
 40
0.6025641025641025
 40
0.6153846153846154
 40
0.6153846153846154
 40
0.6153846153846154
 40
0.6153846153846154
 40
0.6282051282051282
 40
0.6282051282051282
 40
0.6282051282051282
 40
0.6282051282051282
 40
0.6410256410256411
 40
0.6410256410256411
 40
0.6410256410256411
 40
0.6410256410256411
 40
0.6538461538461539
 40
0.6538461538461539
 40
0.6538461538461539
 40
0.6538461538461539
 40
0.6666666666666666
 40
0.6666666666666666
 40
0.6666666666666666
 40
0.6666666666666666
 40
0.6794871794871795
 40
0.6794871794871795
 40
0.6794871794871795
 40
0.6794871794871795
 40
0.6923076923076923
 40
0.6923076923076923
 40
0.6923076923076923
 40
0.6923076923076923
 40
0.7051282051282052
 40
0.7051282051282052
 40
0.7051282051282052
 40
0.7051282051282052
 40
0.717948717948718
 40
0.717948717948718
 40
0.717948717948718
 40
0.717948717948718
 40
0.7307692307692307
 40
0.7307692307692307
 40
0.7307692307692307
 40
0.7307692307692307
 40
0.7435897435897436
 40
0.7435897435897436
 40
0.7435897435897436
 40
0.7435897435897436
 40
0.7564102564102564
 40
0.7564102564102564
 40
0.7564102564102564
 40
0.7564102564102564
 40
0.7692307692307693
 40
0.7692307692307693
 40
0.7692307692307693
 40
0.7692307692307693
 40
0.782051282051282
 40
0.782051282051282
 40
0.782051282051282
 40
0.782051282051282
 40
0.7948717948717948
 40
0.7948717948717948
 40
0.7948717948717948
 40
0.7948717948717948
 40
0.8076923076923077
 40
0.8076923076923077
 40
0.8076923076923077
 40
0.8076923076923077
 40
0.8205128205128205
 40
0.8205128205128205
 40
0.8205128205128205
 40
0.8205128205128205
 40
0.8333333333333334
 40
0.8333333333333334
 40
0.8333333333333334
 40
0.8333333333333334
 40
0.8461538461538461
 40
0.8461538461538461
 40
0.8461538461538461
 40
0.8461538461538461
 40
0.8589743589743589
 40
0.8589743589743589
 40
0.8589743589743589
 40
0.8589743589743589
 40
0.8717948717948718
 40
0.8717948717948718
 40
0.8717948717948718
 40
0.8717948717948718
 40
0.8846153846153846
 40
0.8846153846153846
 40
0.8846153846153846
 40
0.8846153846153846
 40
0.8974358974358975
 40
0.8974358974358975
 40
0.8974358974358975
 40
0.8974358974358975
 40
0.9102564102564102
 40
0.9102564102564102
 40
0.9102564102564102
 40
0.9102564102564102
 40
0.9230769230769231
 40
0.9230769230769231
 40
0.9230769230769231
 40
0.9230769230769231
 40
0.9358974358974359
 40
0.9358974358974359
 40
0.9358974358974359
 40
0.9358974358974359
 40
0.9487179487179487
 40
0.9487179487179487
 40
0.9487179487179487
 40
0.9487179487179487
 40
0.9615384615384616
 40
0.9615384615384616
 40
0.9615384615384616
 40
0.9615384615384616
 40
0.9743589743589743
 40
0.9743589743589743
 40
0.9743589743589743
 40
0.9743589743589743
 40
1.0
 40
1.0
 40
1.0
 40
1.0
 10
-8.55
 20
-12.03965
 30
0.0
 10
-8.55
 20
-12.03965
 30
0.0
 10
-8.24087
 20
-12.03965
 30
0.0
 10
-8.24087
 20
-12.03965
 30
0.0
 10
-8.24087
 20
-12.03965
 30
0.0
 10
-8.2599
 20
-12.16848
 30
0.0
 10
-8.27665
 20
-12.29634
 30
0.0
 10
-8.26648
 20
-12.42583
 30
0.0
 10
-8.26648
 20
-12.42583
 30
0.0
 10
-8.26136
 20
-12.49071
 30
0.0
 10
-8.2816
 20
-12.62298
 30
0.0
 10
-8.25664
 20
-12.68018
 30
0.0
 10
-8.25664
 20
-12.68018
 30
0.0
 10
-8.21253
 20
-12.78136
 30
0.0
 10
-8.02614
 20
-12.83968
 30
0.0
 10
-7.93309
 20
-12.88099
 30
0.0
 10
-7.93309
 20
-12.88099
 30
0.0
 10
-7.78031
 20
-12.94895
 30
0.0
 10
-7.61355
 20
-12.97445
 30
0.0
 10
-7.45514
 20
-13.02533
 30
0.0
 10
-7.45514
 20
-13.02533
 30
0.0
 10
-7.1035
 20
-13.13826
 30
0.0
 10
-6.4537
 20
-13.23952
 30
0.0
 10
-6.1161
 20
-13.05106
 30
0.0
 10
-6.1161
 20
-13.05106
 30
0.0
 10
-6.20412
 20
-12.96792
 30
0.0
 10
-6.30368
 20
-12.89763
 30
0.0
 10
-6.40766
 20
-12.83588
 30
0.0
 10
-6.40766
 20
-12.83588
 30
0.0
 10
-6.45894
 20
-12.80539
 30
0.0
 10
-6.51171
 20
-12.77782
 30
0.0
 10
-6.56465
 20
-12.75036
 30
0.0
 10
-6.56465
 20
-12.75036
 30
0.0
 10
-6.59989
 20
-12.73203
 30
0.0
 10
-6.6387
 20
-12.72066
 30
0.0
 10
-6.67637
 20
-12.70852
 30
0.0
 10
-6.67637
 20
-12.70852
 30
0.0
 10
-6.61485
 20
-12.71583
 30
0.0
 10
-6.55545
 20
-12.73725
 30
0.0
 10
-6.49308
 20
-12.74015
 30
0.0
 10
-6.49308
 20
-12.74015
 30
0.0
 10
-6.35939
 20
-12.74635
 30
0.0
 10
-6.22322
 20
-12.74462
 30
0.0
 10
-6.08985
 20
-12.73175
 30
0.0
 10
-6.08985
 20
-12.73175
 30
0.0
 10
-5.85265
 20
-12.70888
 30
0.0
 10
-5.63235
 20
-12.62997
 30
0.0
 10
-5.40828
 20
-12.55587
 30
0.0
 10
-5.40828
 20
-12.55587
 30
0.0
 10
-5.30824
 20
-12.52277
 30
0.0
 10
-5.21502
 20
-12.48921
 30
0.0
 10
-5.11983
 20
-12.44407
 30
0.0
 10
-5.11983
 20
-12.44407
 30
0.0
 10
-4.98446
 20
-12.37991
 30
0.0
 10
-4.86023
 20
-12.32058
 30
0.0
 10
-4.74977
 20
-12.21553
 30
0.0
 10
-4.74977
 20
-12.21553
 30
0.0
 10
-4.76109
 20
-12.22631
 30
0.0
 10
-4.91258
 20
-12.18639
 30
0.0
 10
-4.93586
 20
-12.18354
 30
0.0
 10
-4.93586
 20
-12.18354
 30
0.0
 10
-5.0018
 20
-12.17546
 30
0.0
 10
-5.06802
 20
-12.17021
 30
0.0
 10
-5.13419
 20
-12.16484
 30
0.0
 10
-5.13419
 20
-12.16484
 30
0.0
 10
-5.26685
 20
-12.15409
 30
0.0
 10
-5.40885
 20
-12.14995
 30
0.0
 10
-5.53691
 20
-12.11124
 30
0.0
 10
-5.53691
 20
-12.11124
 30
0.0
 10
-5.51301
 20
-12.09029
 30
0.0
 10
-5.47539
 20
-12.08774
 30
0.0
 10
-5.44854
 20
-12.06967
 30
0.0
 10
-5.44854
 20
-12.06967
 30
0.0
 10
-5.41399
 20
-12.04642
 30
0.0
 10
-5.37958
 20
-12.02311
 30
0.0
 10
-5.34519
 20
-11.9997
 30
0.0
 10
-5.34519
 20
-11.9997
 30
0.0
 10
-5.25044
 20
-11.93526
 30
0.0
 10
-5.15587
 20
-11.87049
 30
0.0
 10
-5.0627
 20
-11.8038
 30
0.0
 10
-5.0627
 20
-11.8038
 30
0.0
 10
-4.92255
 20
-11.70349
 30
0.0
 10
-4.78594
 20
-11.59836
 30
0.0
 10
-4.64931
 20
-11.49354
 30
0.0
 10
-4.64931
 20
-11.49354
 30
0.0
 10
-4.55457
 20
-11.42082
 30
0.0
 10
-4.46168
 20
-11.34564
 30
0.0
 10
-4.37214
 20
-11.26652
 30
0.0
 10
-4.37214
 20
-11.26652
 30
0.0
 10
-4.32608
 20
-11.22579
 30
0.0
 10
-4.28088
 20
-11.18407
 30
0.0
 10
-4.23668
 20
-11.14125
 30
0.0
 10
-4.23668
 20
-11.14125
 30
0.0
 10
-4.19898
 20
-11.10472
 30
0.0
 10
-4.13847
 20
-11.06038
 30
0.0
 10
-4.11648
 20
-11.01384
 30
0.0
 10
-4.11648
 20
-11.01384
 30
0.0
 10
-4.13839
 20
-11.01284
 30
0.0
 10
-4.15947
 20
-11.02113
 30
0.0
 10
-4.18179
 20
-11.02273
 30
0.0
 10
-4.18179
 20
-11.02273
 30
0.0
 10
-4.2153
 20
-11.02514
 30
0.0
 10
-4.24823
 20
-11.02496
 30
0.0
 10
-4.28169
 20
-11.02371
 30
0.0
 10
-4.28169
 20
-11.02371
 30
0.0
 10
-4.35732
 20
-11.02087
 30
0.0
 10
-4.43674
 20
-11.01692
 30
0.0
 10
-4.5118
 20
-11.00951
 30
0.0
 10
-4.5118
 20
-11.00951
 30
0.0
 10
-4.57692
 20
-11.00307
 30
0.0
 10
-4.64187
 20
-11.00751
 30
0.0
 10
-4.70805
 20
-11.00426
 30
0.0
 10
-4.70805
 20
-11.00426
 30
0.0
 10
-4.64208
 20
-10.96462
 30
0.0
 10
-4.58253
 20
-10.91463
 30
0.0
 10
-4.51715
 20
-10.87411
 30
0.0
 10
-4.51715
 20
-10.87411
 30
0.0
 10
-4.43486
 20
-10.82313
 30
0.0
 10
-4.34654
 20
-10.77944
 30
0.0
 10
-4.2743
 20
-10.71397
 30
0.0
 10
-4.2743
 20
-10.71397
 30
0.0
 10
-4.14108
 20
-10.59328
 30
0.0
 10
-4.01447
 20
-10.46437
 30
0.0
 10
-3.89086
 20
-10.33425
 30
0.0
 10
-3.89086
 20
-10.33425
 30
0.0
 10
-3.73572
 20
-10.171
 30
0.0
 10
-3.58633
 20
-9.99946
 30
0.0
 10
-3.49719
 20
-9.7924
 30
0.0
 10
-3.49719
 20
-9.7924
 30
0.0
 10
-3.71389
 20
-9.79994
 30
0.0
 10
-3.98473
 20
-9.92505
 30
0.0
 10
-4.20792
 20
-9.95109
 30
0.0
 10
-4.20792
 20
-9.95109
 30
0.0
 10
-4.05067
 20
-9.7738
 30
0.0
 10
-3.72278
 20
-9.2855
 30
0.0
 10
-3.72916
 20
-8.93875
 30
0.0
 10
-3.72916
 20
-8.93875
 30
0.0
 10
-3.72901
 20
-8.94778
 30
0.0
 10
-3.88014
 20
-9.02563
 30
0.0
 10
-3.89678
 20
-9.03658
 30
0.0
 10
-3.89678
 20
-9.03658
 30
0.0
 10
-3.95745
 20
-9.07648
 30
0.0
 10
-4.01661
 20
-9.11869
 30
0.0
 10
-4.07785
 20
-9.15769
 30
0.0
 10
-4.07785
 20
-9.15769
 30
0.0
 10
-4.20487
 20
-9.23853
 30
0.0
 10
-4.32254
 20
-9.27972
 30
0.0
 10
-4.46842
 20
-9.30783
 30
0.0
 10
-4.46842
 20
-9.30783
 30
0.0
 10
-4.27339
 20
-9.15789
 30
0.0
 10
-4.12844
 20
-8.94718
 30
0.0
 10
-4.04145
 20
-8.71822
 30
0.0
 10
-4.04145
 20
-8.71822
 30
0.0
 10
-3.99757
 20
-8.60273
 30
0.0
 10
-3.96806
 20
-8.48155
 30
0.0
 10
-3.95527
 20
-8.35856
 30
0.0
 10
-3.95527
 20
-8.35856
 30
0.0
 10
-3.943
 20
-8.24045
 30
0.0
 10
-3.96481
 20
-8.12581
 30
0.0
 10
-3.95979
 20
-8.00923
 30
0.0
 10
-3.95979
 20
-8.00923
 30
0.0
 10
-3.96256
 20
-8.07361
 30
0.0
 10
-4.04424
 20
-8.15994
 30
0.0
 10
-4.07953
 20
-8.21095
 30
0.0
 10
-4.07953
 20
-8.21095
 30
0.0
 10
-4.13198
 20
-8.28673
 30
0.0
 10
-4.18787
 20
-8.36011
 30
0.0
 10
-4.24698
 20
-8.43083
 30
0.0
 10
-4.24698
 20
-8.43083
 30
0.0
 10
-4.41825
 20
-8.63572
 30
0.0
 10
-4.61084
 20
-8.80993
 30
0.0
 10
-4.8345
 20
-8.95534
 30
0.0
 10
-4.8345
 20
-8.95534
 30
0.0
 10
-4.81041
 20
-8.93966
 30
0.0
 10
-4.80246
 20
-8.8746
 30
0.0
 10
-4.79274
 20
-8.8491
 30
0.0
 10
-4.79274
 20
-8.8491
 30
0.0
 10
-4.77303
 20
-8.79734
 30
0.0
 10
-4.75409
 20
-8.74528
 30
0.0
 10
-4.73595
 20
-8.69296
 30
0.0
 10
-4.73595
 20
-8.69296
 30
0.0
 10
-4.70083
 20
-8.59157
 30
0.0
 10
-4.66869
 20
-8.48912
 30
0.0
 10
-4.63965
 20
-8.38582
 30
0.0
 10
-4.63965
 20
-8.38582
 30
0.0
 10
-4.59609
 20
-8.23099
 30
0.0
 10
-4.55937
 20
-8.07426
 30
0.0
 10
-4.52971
 20
-7.91623
 30
0.0
 10
-4.52971
 20
-7.91623
 30
0.0
 10
-4.51578
 20
-7.84207
 30
0.0
 10
-4.50475
 20
-7.76789
 30
0.0
 10
-4.49444
 20
-7.69324
 30
0.0
 10
-4.49444
 20
-7.69324
 30
0.0
 10
-4.48906
 20
-7.65425
 30
0.0
 10
-4.4838
 20
-7.61523
 30
0.0
 10
-4.47881
 20
-7.57615
 30
0.0
 10
-4.47881
 20
-7.57615
 30
0.0
 10
-4.47579
 20
-7.55242
 30
0.0
 10
-4.47958
 20
-7.47561
 30
0.0
 10
-4.46449
 20
-7.45865
 30
0.0
 10
-4.46449
 20
-7.45865
 30
0.0
 10
-4.53837
 20
-7.52296
 30
0.0
 10
-4.58162
 20
-7.60549
 30
0.0
 10
-4.63252
 20
-7.68721
 30
0.0
 10
-4.63252
 20
-7.68721
 30
0.0
 10
-4.68846
 20
-7.77713
 30
0.0
 10
-4.74755
 20
-7.86507
 30
0.0
 10
-4.80964
 20
-7.95083
 30
0.0
 10
-4.80964
 20
-7.95083
 30
0.0
 10
-4.9895
 20
-8.19934
 30
0.0
 10
-5.21341
 20
-8.4099
 30
0.0
 10
-5.39513
 20
-8.65598
 30
0.0
 10
-5.39513
 20
-8.65598
 30
0.0
 10
-5.07559
 20
-8.14578
 30
0.0
 10
-4.87369
 20
-7.4151
 30
0.0
 10
-5.16538
 20
-6.84402
 30
0.0
 10
-5.16538
 20
-6.84402
 30
0.0
 10
-5.14109
 20
-6.89156
 30
0.0
 10
-5.2145
 20
-7.00816
 30
0.0
 10
-5.23188
 20
-7.05037
 30
0.0
 10
-5.23188
 20
-7.05037
 30
0.0
 10
-5.26894
 20
-7.14032
 30
0.0
 10
-5.30545
 20
-7.23047
 30
0.0
 10
-5.3415
 20
-7.32082
 30
0.0
 10
-5.3415
 20
-7.32082
 30
0.0
 10
-5.40818
 20
-7.48811
 30
0.0
 10
-5.47076
 20
-7.65696
 30
0.0
 10
-5.53634
 20
-7.82464
 30
0.0
 10
-5.53634
 20
-7.82464
 30
0.0
 10
-5.56611
 20
-7.90076
 30
0.0
 10
-5.5983
 20
-7.97613
 30
0.0
 10
-5.63031
 20
-8.05139
 30
0.0
 10
-5.63031
 20
-8.05139
 30
0.0
 10
-5.64693
 20
-8.09044
 30
0.0
 10
-5.66377
 20
-8.12938
 30
0.0
 10
-5.68088
 20
-8.16821
 30
0.0
 10
-5.68088
 20
-8.16821
 30
0.0
 10
-5.6939
 20
-8.19779
 30
0.0
 10
-5.733
 20
-8.25273
 30
0.0
 10
-5.733
 20
-8.28436
 30
0.0
 10
-5.733
 20
-8.28436
 30
0.0
 10
-5.9421
 20
-8.74148
 30
0.0
 10
-6.19317
 20
-9.1866
 30
0.0
 10
-6.53359
 20
-9.5597
 30
0.0
 10
-6.53359
 20
-9.5597
 30
0.0
 10
-6.76115
 20
-9.80911
 30
0.0
 10
-7.03692
 20
-10.00858
 30
0.0
 10
-7.33561
 20
-10.164
 30
0.0
 10
-7.33561
 20
-10.164
 30
0.0
 10
-7.36207
 20
-10.17775
 30
0.0
 10
-7.38868
 20
-10.19118
 30
0.0
 10
-7.41547
 20
-10.20426
 30
0.0
 10
-7.41547
 20
-10.20426
 30
0.0
 10
-7.55652
 20
-10.27309
 30
0.0
 10
-7.69314
 20
-10.32875
 30
0.0
 10
-7.84431
 20
-10.36551
 30
0.0
 10
-7.84431
 20
-10.36551
 30
0.0
 10
-7.93209
 20
-10.38683
 30
0.0
 10
-8.11649
 20
-10.42719
 30
0.0
 10
-8.15171
 20
-10.52649
 30
0.0
 10
-8.15171
 20
-10.52649
 30
0.0
 10
-8.18312
 20
-10.61537
 30
0.0
 10
-8.15127
 20
-10.77391
 30
0.0
 10
-8.1515
 20
-10.86789
 30
0.0
 10
-8.1515
 20
-10.86789
 30
0.0
 10
-8.15164
 20
-10.93261
 30
0.0
 10
-8.14931
 20
-10.99848
 30
0.0
 10
-8.147
 20
-11.06464
 30
0.0
 10
-8.147
 20
-11.06464
 30
0.0
 10
-8.147
 20
-11.06464
 30
0.0
 10
-8.55
 20
-11.06464
 30
0.0
 10
-8.55
 20
-11.06464
 30
0.0
 10
-8.55
 20
-11.06464
 30
0.0
 10
-8.55
 20
-11.06464
 30
0.0
 10
-8.55
 20
-10.66417
 30
0.0
 10
-8.55
 20
-10.66417
 30
0.0
 10
-8.55
 20
-10.66417
 30
0.0
 10
-8.55
 20
-10.38803
 30
0.0
 10
-8.77386
 20
-10.16417
 30
0.0
 10
-9.05
 20
-10.16417
 30
0.0
 10
-9.05
 20
-10.16417
 30
0.0
 10
-9.05
 20
-10.16417
 30
0.0
 10
-9.45
 20
-10.16417
 30
0.0
 10
-9.45
 20
-10.16417
 30
0.0
 10
-9.45
 20
-10.16417
 30
0.0
 10
-9.72614
 20
-10.16417
 30
0.0
 10
-9.95
 20
-10.38803
 30
0.0
 10
-9.95
 20
-10.66417
 30
0.0
 10
-9.95
 20
-10.66417
 30
0.0
 10
-9.95
 20
-10.66417
 30
0.0
 10
-9.95
 20
-12.56417
 30
0.0
 10
-9.95
 20
-12.56417
 30
0.0
 10
-9.95
 20
-12.56417
 30
0.0
 10
-9.95
 20
-12.84031
 30
0.0
 10
-9.72614
 20
-13.06417
 30
0.0
 10
-9.45
 20
-13.06417
 30
0.0
 10
-9.45
 20
-13.06417
 30
0.0
 10
-9.45
 20
-13.06417
 30
0.0
 10
-9.05
 20
-13.06417
 30
0.0
 10
-9.05
 20
-13.06417
 30
0.0
 10
-9.05
 20
-13.06417
 30
0.0
 10
-8.77386
 20
-13.06417
 30
0.0
 10
-8.55
 20
-12.84031
 30
0.0
 10
-8.55
 20
-12.56417
 30
0.0
 10
-8.55
 20
-12.56417
 30
0.0
 10
-8.55
 20
-12.56417
 30
0.0
 10
-8.55
 20
-12.03965
 30
0.0
 10
-8.55
 20
-12.03965
 30
0.0
  0
SPLINE
  5
42
330
1F
100
AcDbEntity
  8
Layer 1
370
    53
100
AcDbSpline
210
0.0
220
0.0
230
1.0
 70
    11
 71
     3
 72
   312
 73
   308
 74
     0
 42
0.0000000001
 43
0.0000000001
 12
1.0
 22
0.0
 32
0.0
 13
1.0
 23
0.0
 33
0.0
 40
0.0
 40
0.0
 40
0.0
 40
0.0
 40
0.0128205128205128
 40
0.0128205128205128
 40
0.0128205128205128
 40
0.0128205128205128
 40
0.0256410256410256
 40
0.0256410256410256
 40
0.0256410256410256
 40
0.0256410256410256
 40
0.0384615384615385
 40
0.0384615384615385
 40
0.0384615384615385
 40
0.0384615384615385
 40
0.0512820512820513
 40
0.0512820512820513
 40
0.0512820512820513
 40
0.0512820512820513
 40
0.0641025641025641
 40
0.0641025641025641
 40
0.0641025641025641
 40
0.0641025641025641
 40
0.0769230769230769
 40
0.0769230769230769
 40
0.0769230769230769
 40
0.0769230769230769
 40
0.0897435897435897
 40
0.0897435897435897
 40
0.0897435897435897
 40
0.0897435897435897
 40
0.1025641025641026
 40
0.1025641025641026
 40
0.1025641025641026
 40
0.1025641025641026
 40
0.1153846153846154
 40
0.1153846153846154
 40
0.1153846153846154
 40
0.1153846153846154
 40
0.1282051282051282
 40
0.1282051282051282
 40
0.1282051282051282
 40
0.1282051282051282
 40
0.141025641025641
 40
0.141025641025641
 40
0.141025641025641
 40
0.141025641025641
 40
0.1538461538461539
 40
0.1538461538461539
 40
0.1538461538461539
 40
0.1538461538461539
 40
0.1666666666666667
 40
0.1666666666666667
 40
0.1666666666666667
 40
0.1666666666666667
 40
0.1794871794871795
 40
0.1794871794871795
 40
0.1794871794871795
 40
0.1794871794871795
 40
0.1923076923076923
 40
0.1923076923076923
 40
0.1923076923076923
 40
0.1923076923076923
 40
0.2051282051282051
 40
0.2051282051282051
 40
0.2051282051282051
 40
0.2051282051282051
 40
0.217948717948718
 40
0.217948717948718
 40
0.217948717948718
 40
0.217948717948718
 40
0.2307692307692308
 40
0.2307692307692308
 40
0.2307692307692308
 40
0.2307692307692308
 40
0.2435897435897436
 40
0.2435897435897436
 40
0.2435897435897436
 40
0.2435897435897436
 40
0.2564102564102564
 40
0.2564102564102564
 40
0.2564102564102564
 40
0.2564102564102564
 40
0.2692307692307692
 40
0.2692307692307692
 40
0.2692307692307692
 40
0.2692307692307692
 40
0.282051282051282
 40
0.282051282051282
 40
0.282051282051282
 40
0.282051282051282
 40
0.2948717948717949
 40
0.2948717948717949
 40
0.2948717948717949
 40
0.2948717948717949
 40
0.3076923076923077
 40
0.3076923076923077
 40
0.3076923076923077
 40
0.3076923076923077
 40
0.3205128205128205
 40
0.3205128205128205
 40
0.3205128205128205
 40
0.3205128205128205
 40
0.3333333333333333
 40
0.3333333333333333
 40
0.3333333333333333
 40
0.3333333333333333
 40
0.3461538461538461
 40
0.3461538461538461
 40
0.3461538461538461
 40
0.3461538461538461
 40
0.358974358974359
 40
0.358974358974359
 40
0.358974358974359
 40
0.358974358974359
 40
0.3717948717948718
 40
0.3717948717948718
 40
0.3717948717948718
 40
0.3717948717948718
 40
0.3846153846153846
 40
0.3846153846153846
 40
0.3846153846153846
 40
0.3846153846153846
 40
0.3974358974358974
 40
0.3974358974358974
 40
0.3974358974358974
 40
0.3974358974358974
 40
0.4102564102564102
 40
0.4102564102564102
 40
0.4102564102564102
 40
0.4102564102564102
 40
0.4230769230769231
 40
0.4230769230769231
 40
0.4230769230769231
 40
0.4230769230769231
 40
0.4358974358974359
 40
0.4358974358974359
 40
0.4358974358974359
 40
0.4358974358974359
 40
0.4487179487179487
 40
0.4487179487179487
 40
0.4487179487179487
 40
0.4487179487179487
 40
0.4615384615384616
 40
0.4615384615384616
 40
0.4615384615384616
 40
0.4615384615384616
 40
0.4743589743589743
 40
0.4743589743589743
 40
0.4743589743589743
 40
0.4743589743589743
 40
0.4871794871794872
 40
0.4871794871794872
 40
0.4871794871794872
 40
0.4871794871794872
 40
0.5
 40
0.5
 40
0.5
 40
0.5
 40
0.5128205128205128
 40
0.5128205128205128
 40
0.5128205128205128
 40
0.5128205128205128
 40
0.5256410256410257
 40
0.5256410256410257
 40
0.5256410256410257
 40
0.5256410256410257
 40
0.5384615384615384
 40
0.5384615384615384
 40
0.5384615384615384
 40
0.5384615384615384
 40
0.5512820512820513
 40
0.5512820512820513
 40
0.5512820512820513
 40
0.5512820512820513
 40
0.5641025641025641
 40
0.5641025641025641
 40
0.5641025641025641
 40
0.5641025641025641
 40
0.5769230769230769
 40
0.5769230769230769
 40
0.5769230769230769
 40
0.5769230769230769
 40
0.5897435897435898
 40
0.5897435897435898
 40
0.5897435897435898
 40
0.5897435897435898
 40
0.6025641025641025
 40
0.6025641025641025
 40
0.6025641025641025
 40
0.6025641025641025
 40
0.6153846153846154
 40
0.6153846153846154
 40
0.6153846153846154
 40
0.6153846153846154
 40
0.6282051282051282
 40
0.6282051282051282
 40
0.6282051282051282
 40
0.6282051282051282
 40
0.6410256410256411
 40
0.6410256410256411
 40
0.6410256410256411
 40
0.6410256410256411
 40
0.6538461538461539
 40
0.6538461538461539
 40
0.6538461538461539
 40
0.6538461538461539
 40
0.6666666666666666
 40
0.6666666666666666
 40
0.6666666666666666
 40
0.6666666666666666
 40
0.6794871794871795
 40
0.6794871794871795
 40
0.6794871794871795
 40
0.6794871794871795
 40
0.6923076923076923
 40
0.6923076923076923
 40
0.6923076923076923
 40
0.6923076923076923
 40
0.7051282051282052
 40
0.7051282051282052
 40
0.7051282051282052
 40
0.7051282051282052
 40
0.717948717948718
 40
0.717948717948718
 40
0.717948717948718
 40
0.717948717948718
 40
0.7307692307692307
 40
0.7307692307692307
 40
0.7307692307692307
 40
0.7307692307692307
 40
0.7435897435897436
 40
0.7435897435897436
 40
0.7435897435897436
 40
0.7435897435897436
 40
0.7564102564102564
 40
0.7564102564102564
 40
0.7564102564102564
 40
0.7564102564102564
 40
0.7692307692307693
 40
0.7692307692307693
 40
0.7692307692307693
 40
0.7692307692307693
 40
0.782051282051282
 40
0.782051282051282
 40
0.782051282051282
 40
0.782051282051282
 40
0.7948717948717948
 40
0.7948717948717948
 40
0.7948717948717948
 40
0.7948717948717948
 40
0.8076923076923077
 40
0.8076923076923077
 40
0.8076923076923077
 40
0.8076923076923077
 40
0.8205128205128205
 40
0.8205128205128205
 40
0.8205128205128205
 40
0.8205128205128205
 40
0.8333333333333334
 40
0.8333333333333334
 40
0.8333333333333334
 40
0.8333333333333334
 40
0.8461538461538461
 40
0.8461538461538461
 40
0.8461538461538461
 40
0.8461538461538461
 40
0.8589743589743589
 40
0.8589743589743589
 40
0.8589743589743589
 40
0.8589743589743589
 40
0.8717948717948718
 40
0.8717948717948718
 40
0.8717948717948718
 40
0.8717948717948718
 40
0.8846153846153846
 40
0.8846153846153846
 40
0.8846153846153846
 40
0.8846153846153846
 40
0.8974358974358975
 40
0.8974358974358975
 40
0.8974358974358975
 40
0.8974358974358975
 40
0.9102564102564102
 40
0.9102564102564102
 40
0.9102564102564102
 40
0.9102564102564102
 40
0.9230769230769231
 40
0.9230769230769231
 40
0.9230769230769231
 40
0.9230769230769231
 40
0.9358974358974359
 40
0.9358974358974359
 40
0.9358974358974359
 40
0.9358974358974359
 40
0.9487179487179487
 40
0.9487179487179487
 40
0.9487179487179487
 40
0.9487179487179487
 40
0.9615384615384616
 40
0.9615384615384616
 40
0.9615384615384616
 40
0.9615384615384616
 40
0.9743589743589743
 40
0.9743589743589743
 40
0.9743589743589743
 40
0.9743589743589743
 40
1.0
 40
1.0
 40
1.0
 40
1.0
 10
-11.45
 20
-12.03965
 30
0.0
 10
-11.45
 20
-12.03965
 30
0.0
 10
-11.75913
 20
-12.03965
 30
0.0
 10
-11.75913
 20
-12.03965
 30
0.0
 10
-11.75913
 20
-12.03965
 30
0.0
 10
-11.7401
 20
-12.16848
 30
0.0
 10
-11.72335
 20
-12.29634
 30
0.0
 10
-11.73352
 20
-12.42583
 30
0.0
 10
-11.73352
 20
-12.42583
 30
0.0
 10
-11.73864
 20
-12.49071
 30
0.0
 10
-11.7184
 20
-12.62298
 30
0.0
 10
-11.74336
 20
-12.68018
 30
0.0
 10
-11.74336
 20
-12.68018
 30
0.0
 10
-11.78747
 20
-12.78136
 30
0.0
 10
-11.97386
 20
-12.83968
 30
0.0
 10
-12.06691
 20
-12.88099
 30
0.0
 10
-12.06691
 20
-12.88099
 30
0.0
 10
-12.21969
 20
-12.94895
 30
0.0
 10
-12.38645
 20
-12.97445
 30
0.0
 10
-12.54486
 20
-13.02533
 30
0.0
 10
-12.54486
 20
-13.02533
 30
0.0
 10
-12.8965
 20
-13.13826
 30
0.0
 10
-13.5463
 20
-13.23952
 30
0.0
 10
-13.8839
 20
-13.05106
 30
0.0
 10
-13.8839
 20
-13.05106
 30
0.0
 10
-13.79588
 20
-12.96792
 30
0.0
 10
-13.69632
 20
-12.89763
 30
0.0
 10
-13.59234
 20
-12.83588
 30
0.0
 10
-13.59234
 20
-12.83588
 30
0.0
 10
-13.54106
 20
-12.80539
 30
0.0
 10
-13.48829
 20
-12.77782
 30
0.0
 10
-13.43535
 20
-12.75036
 30
0.0
 10
-13.43535
 20
-12.75036
 30
0.0
 10
-13.40011
 20
-12.73203
 30
0.0
 10
-13.3613
 20
-12.72066
 30
0.0
 10
-13.32363
 20
-12.70852
 30
0.0
 10
-13.32363
 20
-12.70852
 30
0.0
 10
-13.38515
 20
-12.71583
 30
0.0
 10
-13.44455
 20
-12.73725
 30
0.0
 10
-13.50692
 20
-12.74015
 30
0.0
 10
-13.50692
 20
-12.74015
 30
0.0
 10
-13.64061
 20
-12.74635
 30
0.0
 10
-13.77678
 20
-12.74462
 30
0.0
 10
-13.91015
 20
-12.73175
 30
0.0
 10
-13.91015
 20
-12.73175
 30
0.0
 10
-14.14735
 20
-12.70888
 30
0.0
 10
-14.36765
 20
-12.62997
 30
0.0
 10
-14.59172
 20
-12.55587
 30
0.0
 10
-14.59172
 20
-12.55587
 30
0.0
 10
-14.69176
 20
-12.52277
 30
0.0
 10
-14.78498
 20
-12.48921
 30
0.0
 10
-14.88017
 20
-12.44407
 30
0.0
 10
-14.88017
 20
-12.44407
 30
0.0
 10
-15.01554
 20
-12.37991
 30
0.0
 10
-15.13977
 20
-12.32058
 30
0.0
 10
-15.25023
 20
-12.21553
 30
0.0
 10
-15.25023
 20
-12.21553
 30
0.0
 10
-15.23891
 20
-12.22631
 30
0.0
 10
-15.08742
 20
-12.18639
 30
0.0
 10
-15.06414
 20
-12.18354
 30
0.0
 10
-15.06414
 20
-12.18354
 30
0.0
 10
-14.9982
 20
-12.17546
 30
0.0
 10
-14.93198
 20
-12.17021
 30
0.0
 10
-14.86581
 20
-12.16484
 30
0.0
 10
-14.86581
 20
-12.16484
 30
0.0
 10
-14.73315
 20
-12.15409
 30
0.0
 10
-14.59115
 20
-12.14995
 30
0.0
 10
-14.46309
 20
-12.11124
 30
0.0
 10
-14.46309
 20
-12.11124
 30
0.0
 10
-14.48699
 20
-12.09029
 30
0.0
 10
-14.52461
 20
-12.08774
 30
0.0
 10
-14.55146
 20
-12.06967
 30
0.0
 10
-14.55146
 20
-12.06967
 30
0.0
 10
-14.58601
 20
-12.04642
 30
0.0
 10
-14.62042
 20
-12.02311
 30
0.0
 10
-14.65481
 20
-11.9997
 30
0.0
 10
-14.65481
 20
-11.9997
 30
0.0
 10
-14.74956
 20
-11.93526
 30
0.0
 10
-14.84413
 20
-11.87049
 30
0.0
 10
-14.9373
 20
-11.8038
 30
0.0
 10
-14.9373
 20
-11.8038
 30
0.0
 10
-15.07745
 20
-11.70349
 30
0.0
 10
-15.21406
 20
-11.59836
 30
0.0
 10
-15.35069
 20
-11.49354
 30
0.0
 10
-15.35069
 20
-11.49354
 30
0.0
 10
-15.44543
 20
-11.42082
 30
0.0
 10
-15.53832
 20
-11.34564
 30
0.0
 10
-15.62786
 20
-11.26652
 30
0.0
 10
-15.62786
 20
-11.26652
 30
0.0
 10
-15.67392
 20
-11.22579
 30
0.0
 10
-15.71912
 20
-11.18407
 30
0.0
 10
-15.76332
 20
-11.14125
 30
0.0
 10
-15.76332
 20
-11.14125
 30
0.0
 10
-15.80102
 20
-11.10472
 30
0.0
 10
-15.86153
 20
-11.06038
 30
0.0
 10
-15.88352
 20
-11.01384
 30
0.0
 10
-15.88352
 20
-11.01384
 30
0.0
 10
-15.86161
 20
-11.01284
 30
0.0
 10
-15.84053
 20
-11.02113
 30
0.0
 10
-15.81821
 20
-11.02273
 30
0.0
 10
-15.81821
 20
-11.02273
 30
0.0
 10
-15.7847
 20
-11.02514
 30
0.0
 10
-15.75177
 20
-11.02496
 30
0.0
 10
-15.71831
 20
-11.02371
 30
0.0
 10
-15.71831
 20
-11.02371
 30
0.0
 10
-15.64268
 20
-11.02087
 30
0.0
 10
-15.56326
 20
-11.01692
 30
0.0
 10
-15.4882
 20
-11.00951
 30
0.0
 10
-15.4882
 20
-11.00951
 30
0.0
 10
-15.42308
 20
-11.00307
 30
0.0
 10
-15.35813
 20
-11.00751
 30
0.0
 10
-15.29195
 20
-11.00426
 30
0.0
 10
-15.29195
 20
-11.00426
 30
0.0
 10
-15.35792
 20
-10.96462
 30
0.0
 10
-15.41747
 20
-10.91463
 30
0.0
 10
-15.48285
 20
-10.87411
 30
0.0
 10
-15.48285
 20
-10.87411
 30
0.0
 10
-15.56514
 20
-10.82313
 30
0.0
 10
-15.65346
 20
-10.77944
 30
0.0
 10
-15.7257
 20
-10.71397
 30
0.0
 10
-15.7257
 20
-10.71397
 30
0.0
 10
-15.85892
 20
-10.59328
 30
0.0
 10
-15.98553
 20
-10.46437
 30
0.0
 10
-16.10914
 20
-10.33425
 30
0.0
 10
-16.10914
 20
-10.33425
 30
0.0
 10
-16.26428
 20
-10.171
 30
0.0
 10
-16.41367
 20
-9.99946
 30
0.0
 10
-16.50281
 20
-9.7924
 30
0.0
 10
-16.50281
 20
-9.7924
 30
0.0
 10
-16.28611
 20
-9.79994
 30
0.0
 10
-16.01527
 20
-9.92505
 30
0.0
 10
-15.79208
 20
-9.95109
 30
0.0
 10
-15.79208
 20
-9.95109
 30
0.0
 10
-15.94933
 20
-9.7738
 30
0.0
 10
-16.27722
 20
-9.2855
 30
0.0
 10
-16.27084
 20
-8.93875
 30
0.0
 10
-16.27084
 20
-8.93875
 30
0.0
 10
-16.27099
 20
-8.94778
 30
0.0
 10
-16.11986
 20
-9.02563
 30
0.0
 10
-16.10322
 20
-9.03658
 30
0.0
 10
-16.10322
 20
-9.03658
 30
0.0
 10
-16.04255
 20
-9.07648
 30
0.0
 10
-15.98339
 20
-9.11869
 30
0.0
 10
-15.92215
 20
-9.15769
 30
0.0
 10
-15.92215
 20
-9.15769
 30
0.0
 10
-15.79513
 20
-9.23853
 30
0.0
 10
-15.67746
 20
-9.27972
 30
0.0
 10
-15.53158
 20
-9.30783
 30
0.0
 10
-15.53158
 20
-9.30783
 30
0.0
 10
-15.72661
 20
-9.15789
 30
0.0
 10
-15.87156
 20
-8.94718
 30
0.0
 10
-15.95855
 20
-8.71822
 30
0.0
 10
-15.95855
 20
-8.71822
 30
0.0
 10
-16.00243
 20
-8.60273
 30
0.0
 10
-16.03194
 20
-8.48155
 30
0.0
 10
-16.04473
 20
-8.35856
 30
0.0
 10
-16.04473
 20
-8.35856
 30
0.0
 10
-16.057
 20
-8.24045
 30
0.0
 10
-16.03519
 20
-8.12581
 30
0.0
 10
-16.04021
 20
-8.00923
 30
0.0
 10
-16.04021
 20
-8.00923
 30
0.0
 10
-16.03744
 20
-8.07361
 30
0.0
 10
-15.95576
 20
-8.15994
 30
0.0
 10
-15.92047
 20
-8.21095
 30
0.0
 10
-15.92047
 20
-8.21095
 30
0.0
 10
-15.86802
 20
-8.28673
 30
0.0
 10
-15.81213
 20
-8.36011
 30
0.0
 10
-15.75302
 20
-8.43083
 30
0.0
 10
-15.75302
 20
-8.43083
 30
0.0
 10
-15.58175
 20
-8.63572
 30
0.0
 10
-15.38916
 20
-8.80993
 30
0.0
 10
-15.1655
 20
-8.95534
 30
0.0
 10
-15.1655
 20
-8.95534
 30
0.0
 10
-15.18959
 20
-8.93966
 30
0.0
 10
-15.19754
 20
-8.8746
 30
0.0
 10
-15.20726
 20
-8.8491
 30
0.0
 10
-15.20726
 20
-8.8491
 30
0.0
 10
-15.22697
 20
-8.79734
 30
0.0
 10
-15.24591
 20
-8.74528
 30
0.0
 10
-15.26405
 20
-8.69296
 30
0.0
 10
-15.26405
 20
-8.69296
 30
0.0
 10
-15.29917
 20
-8.59157
 30
0.0
 10
-15.33131
 20
-8.48912
 30
0.0
 10
-15.36035
 20
-8.38582
 30
0.0
 10
-15.36035
 20
-8.38582
 30
0.0
 10
-15.40391
 20
-8.23099
 30
0.0
 10
-15.44063
 20
-8.07426
 30
0.0
 10
-15.47029
 20
-7.91623
 30
0.0
 10
-15.47029
 20
-7.91623
 30
0.0
 10
-15.48422
 20
-7.84207
 30
0.0
 10
-15.49525
 20
-7.76789
 30
0.0
 10
-15.50556
 20
-7.69324
 30
0.0
 10
-15.50556
 20
-7.69324
 30
0.0
 10
-15.51094
 20
-7.65425
 30
0.0
 10
-15.5162
 20
-7.61523
 30
0.0
 10
-15.52119
 20
-7.57615
 30
0.0
 10
-15.52119
 20
-7.57615
 30
0.0
 10
-15.52421
 20
-7.55242
 30
0.0
 10
-15.52042
 20
-7.47561
 30
0.0
 10
-15.53551
 20
-7.45865
 30
0.0
 10
-15.53551
 20
-7.45865
 30
0.0
 10
-15.46163
 20
-7.52296
 30
0.0
 10
-15.41838
 20
-7.60549
 30
0.0
 10
-15.36748
 20
-7.68721
 30
0.0
 10
-15.36748
 20
-7.68721
 30
0.0
 10
-15.31154
 20
-7.77713
 30
0.0
 10
-15.25245
 20
-7.86507
 30
0.0
 10
-15.19036
 20
-7.95083
 30
0.0
 10
-15.19036
 20
-7.95083
 30
0.0
 10
-15.0105
 20
-8.19934
 30
0.0
 10
-14.78659
 20
-8.4099
 30
0.0
 10
-14.60487
 20
-8.65598
 30
0.0
 10
-14.60487
 20
-8.65598
 30
0.0
 10
-14.92441
 20
-8.14578
 30
0.0
 10
-15.12631
 20
-7.4151
 30
0.0
 10
-14.83462
 20
-6.84402
 30
0.0
 10
-14.83462
 20
-6.84402
 30
0.0
 10
-14.85891
 20
-6.89156
 30
0.0
 10
-14.7855
 20
-7.00816
 30
0.0
 10
-14.76812
 20
-7.05037
 30
0.0
 10
-14.76812
 20
-7.05037
 30
0.0
 10
-14.73106
 20
-7.14032
 30
0.0
 10
-14.69455
 20
-7.23047
 30
0.0
 10
-14.6585
 20
-7.32082
 30
0.0
 10
-14.6585
 20
-7.32082
 30
0.0
 10
-14.59182
 20
-7.48811
 30
0.0
 10
-14.52924
 20
-7.65696
 30
0.0
 10
-14.46366
 20
-7.82464
 30
0.0
 10
-14.46366
 20
-7.82464
 30
0.0
 10
-14.43389
 20
-7.90076
 30
0.0
 10
-14.4017
 20
-7.97613
 30
0.0
 10
-14.36969
 20
-8.05139
 30
0.0
 10
-14.36969
 20
-8.05139
 30
0.0
 10
-14.35307
 20
-8.09044
 30
0.0
 10
-14.33623
 20
-8.12938
 30
0.0
 10
-14.31912
 20
-8.16821
 30
0.0
 10
-14.31912
 20
-8.16821
 30
0.0
 10
-14.3061
 20
-8.19779
 30
0.0
 10
-14.267
 20
-8.25273
 30
0.0
 10
-14.267
 20
-8.28436
 30
0.0
 10
-14.267
 20
-8.28436
 30
0.0
 10
-14.0579
 20
-8.74148
 30
0.0
 10
-13.80683
 20
-9.1866
 30
0.0
 10
-13.46641
 20
-9.5597
 30
0.0
 10
-13.46641
 20
-9.5597
 30
0.0
 10
-13.23885
 20
-9.80911
 30
0.0
 10
-12.96308
 20
-10.00858
 30
0.0
 10
-12.66439
 20
-10.164
 30
0.0
 10
-12.66439
 20
-10.164
 30
0.0
 10
-12.63793
 20
-10.17775
 30
0.0
 10
-12.61132
 20
-10.19118
 30
0.0
 10
-12.58453
 20
-10.20426
 30
0.0
 10
-12.58453
 20
-10.20426
 30
0.0
 10
-12.44348
 20
-10.27309
 30
0.0
 10
-12.30686
 20
-10.32875
 30
0.0
 10
-12.15569
 20
-10.36551
 30
0.0
 10
-12.15569
 20
-10.36551
 30
0.0
 10
-12.06791
 20
-10.38683
 30
0.0
 10
-11.88351
 20
-10.42719
 30
0.0
 10
-11.84829
 20
-10.52649
 30
0.0
 10
-11.84829
 20
-10.52649
 30
0.0
 10
-11.81688
 20
-10.61537
 30
0.0
 10
-11.84873
 20
-10.77391
 30
0.0
 10
-11.8485
 20
-10.86789
 30
0.0
 10
-11.8485
 20
-10.86789
 30
0.0
 10
-11.84836
 20
-10.93261
 30
0.0
 10
-11.85069
 20
-10.99848
 30
0.0
 10
-11.853
 20
-11.06464
 30
0.0
 10
-11.853
 20
-11.06464
 30
0.0
 10
-11.853
 20
-11.06464
 30
0.0
 10
-11.45
 20
-11.06464
 30
0.0
 10
-11.45
 20
-11.06464
 30
0.0
 10
-11.45
 20
-11.06464
 30
0.0
 10
-11.45
 20
-11.06464
 30
0.0
 10
-11.45
 20
-10.66417
 30
0.0
 10
-11.45
 20
-10.66417
 30
0.0
 10
-11.45
 20
-10.66417
 30
0.0
 10
-11.45
 20
-10.38803
 30
0.0
 10
-11.22614
 20
-10.16417
 30
0.0
 10
-10.95
 20
-10.16417
 30
0.0
 10
-10.95
 20
-10.16417
 30
0.0
 10
-10.95
 20
-10.16417
 30
0.0
 10
-10.55
 20
-10.16417
 30
0.0
 10
-10.55
 20
-10.16417
 30
0.0
 10
-10.55
 20
-10.16417
 30
0.0
 10
-10.27386
 20
-10.16417
 30
0.0
 10
-10.05
 20
-10.38803
 30
0.0
 10
-10.05
 20
-10.66417
 30
0.0
 10
-10.05
 20
-10.66417
 30
0.0
 10
-10.05
 20
-10.66417
 30
0.0
 10
-10.05
 20
-12.56417
 30
0.0
 10
-10.05
 20
-12.56417
 30
0.0
 10
-10.05
 20
-12.56417
 30
0.0
 10
-10.05
 20
-12.84031
 30
0.0
 10
-10.27386
 20
-13.06417
 30
0.0
 10
-10.55
 20
-13.06417
 30
0.0
 10
-10.55
 20
-13.06417
 30
0.0
 10
-10.55
 20
-13.06417
 30
0.0
 10
-10.95
 20
-13.06417
 30
0.0
 10
-10.95
 20
-13.06417
 30
0.0
 10
-10.95
 20
-13.06417
 30
0.0
 10
-11.22614
 20
-13.06417
 30
0.0
 10
-11.45
 20
-12.84031
 30
0.0
 10
-11.45
 20
-12.56417
 30
0.0
 10
-11.45
 20
-12.56417
 30
0.0
 10
-11.45
 20
-12.56417
 30
0.0
 10
-11.45
 20
-12.03965
 30
0.0
 10
-11.45
 20
-12.03965
 30
0.0
  0
ENDSEC
  0
SECTION
  2
OBJECTS
  0
DICTIONARY
  5
C
330
0
100
AcDbDictionary
281
     1
  3
ACAD_GROUP
350
D
  3
ACAD_LAYOUT
350
1A
  3
ACAD_MATERIAL
350
3B
  3
ACAD_MLEADERSTYLE
350
64
  3
ACAD_MLINESTYLE
350
17
  3
ACAD_PLOTSETTINGS
350
19
  3
ACAD_PLOTSTYLENAME
350
E
  3
ACAD_TABLESTYLE
350
63
  3
ACAD_VISUALSTYLE
350
2A
  0
DICTIONARY
  5
D
102
{ACAD_REACTORS
330
C
102
}
330
C
100
AcDbDictionary
281
     1
  0
DICTIONARY
  5
1A
102
{ACAD_REACTORS
330
C
102
}
330
C
100
AcDbDictionary
281
     1
  3
Layout1
350
1E
  3
Layout2
350
26
  3
Model
350
22
  0
DICTIONARY
  5
3B
102
{ACAD_REACTORS
330
C
102
}
330
C
100
AcDbDictionary
281
     1
  3
ByBlock
350
3D
  3
ByLayer
350
3C
  3
Global
350
3E
  0
DICTIONARY
  5
64
102
{ACAD_REACTORS
330
C
102
}
330
C
100
AcDbDictionary
281
     1
  0
DICTIONARY
  5
17
102
{ACAD_REACTORS
330
C
102
}
330
C
100
AcDbDictionary
281
     1
  3
Standard
350
18
  0
DICTIONARY
  5
19
102
{ACAD_REACTORS
330
C
102
}
330
C
100
AcDbDictionary
281
     1
  0
ACDBDICTIONARYWDFLT
  5
E
102
{ACAD_REACTORS
330
C
102
}
330
C
100
AcDbDictionary
281
     1
  3
Normal
350
F
100
AcDbDictionaryWithDefault
340
F
  0
DICTIONARY
  5
63
102
{ACAD_REACTORS
330
C
102
}
330
C
100
AcDbDictionary
281
     1
  0
DICTIONARY
  5
2A
102
{ACAD_REACTORS
330
C
102
}
330
C
100
AcDbDictionary
281
     1
  3
2dWireframe
350
2F
  3
3D Hidden
350
31
  3
3dWireframe
350
30
  3
Basic
350
32
  3
Brighten
350
36
  3
ColorChange
350
3A
  3
Conceptual
350
34
  3
Dim
350
35
  3
Facepattern
350
39
  3
Flat
350
2B
  3
FlatWithEdges
350
2C
  3
Gouraud
350
2D
  3
GouraudWithEdges
350
2E
  3
Linepattern
350
38
  3
Realistic
350
33
  3
Thicken
350
37
  0
LAYOUT
  5
1E
102
{ACAD_REACTORS
330
1A
102
}
330
1A
100
AcDbPlotSettings
  1

  2
none_device
  4

  6

 40
0.0
 41
0.0
 42
0.0
 43
0.0
 44
0.0
 45
0.0
 46
0.0
 47
0.0
 48
0.0
 49
0.0
140
0.0
141
0.0
142
1.0
143
1.0
 70
   688
 72
     0
 73
     0
 74
     5
  7

 75
    16
 76
     0
 77
     2
 78
   300
147
1.0
148
0.0
149
0.0
100
AcDbLayout
  1
Layout1
 70
     1
 71
     1
 10
0.0
 20
0.0
 11
12.0
 21
9.0
 12
0.0
 22
0.0
 32
0.0
 14
1.000000000000000E+20
 24
1.000000000000000E+20
 34
1.000000000000000E+20
 15
-1.000000000000000E+20
 25
-1.000000000000000E+20
 35
-1.000000000000000E+20
146
0.0
 13
0.0
 23
0.0
 33
0.0
 16
1.0
 26
0.0
 36
0.0
 17
0.0
 27
1.0
 37
0.0
 76
     0
330
1B
  0
LAYOUT
  5
26
102
{ACAD_REACTORS
330
1A
102
}
330
1A
100
AcDbPlotSettings
  1

  2
none_device
  4

  6

 40
0.0
 41
0.0
 42
0.0
 43
0.0
 44
0.0
 45
0.0
 46
0.0
 47
0.0
 48
0.0
 49
0.0
140
0.0
141
0.0
142
1.0
143
1.0
 70
   688
 72
     0
 73
     0
 74
     5
  7

 75
    16
 76
     0
 77
     2
 78
   300
147
1.0
148
0.0
149
0.0
100
AcDbLayout
  1
Layout2
 70
     1
 71
     2
 10
0.0
 20
0.0
 11
0.0
 21
0.0
 12
0.0
 22
0.0
 32
0.0
 14
0.0
 24
0.0
 34
0.0
 15
0.0
 25
0.0
 35
0.0
146
0.0
 13
0.0
 23
0.0
 33
0.0
 16
1.0
 26
0.0
 36
0.0
 17
0.0
 27
1.0
 37
0.0
 76
     0
330
23
  0
LAYOUT
  5
22
102
{ACAD_REACTORS
330
1A
102
}
330
1A
100
AcDbPlotSettings
  1

  2
none_device
  4

  6

 40
0.0
 41
0.0
 42
0.0
 43
0.0
 44
0.0
 45
0.0
 46
0.0
 47
0.0
 48
0.0
 49
0.0
140
0.0
141
0.0
142
1.0
143
1.0
 70
  1712
 72
     0
 73
     0
 74
     0
  7

 75
     0
 76
     0
 77
     2
 78
   300
147
1.0
148
0.0
149
0.0
100
AcDbLayout
  1
Model
 70
     1
 71
     0
 10
0.0
 20
0.0
 11
12.0
 21
9.0
 12
0.0
 22
0.0
 32
0.0
 14
-16.52715
 24
-13.18243
 34
0.0
 15
-3.47285
 25
-6.83197
 35
0.0
146
0.0
 13
0.0
 23
0.0
 33
0.0
 16
1.0
 26
0.0
 36
0.0
 17
0.0
 27
1.0
 37
0.0
 76
     0
330
1F
331
29
  0
MATERIAL
  5
3D
102
{ACAD_REACTORS
330
3B
102
}
330
3B
100
AcDbMaterial
  1
ByBlock
 72
     1
 94
      127
  0
MATERIAL
  5
3C
102
{ACAD_REACTORS
330
3B
102
}
330
3B
100
AcDbMaterial
  1
ByLayer
 72
     1
 94
      127
  0
MATERIAL
  5
3E
102
{ACAD_REACTORS
330
3B
102
}
330
3B
100
AcDbMaterial
  1
Global
 72
     1
 94
      127
  0
MLINESTYLE
  5
18
102
{ACAD_REACTORS
330
17
102
}
330
17
100
AcDbMlineStyle
  2
Standard
 70
     0
  3

 62
   256
 51
90.0
 52
90.0
 71
     2
 49
0.5
 62
   256
  6
BYLAYER
 49
-0.5
 62
   256
  6
BYLAYER
  0
ACDBPLACEHOLDER
  5
F
102
{ACAD_REACTORS
330
E
102
}
330
E
  0
VISUALSTYLE
  5
2F
102
{ACAD_REACTORS
330
2A
102
}
102
{ACAD_XDICTIONARY
360
4B
102
}
330
2A
100
AcDbVisualStyle
  2
2dWireframe
 70
     4
 71
     0
 72
     2
 73
     0
 90
        0
 40
-0.6
 41
-30.0
 62
     5
 63
     7
421
 16777215
 74
     1
 91
        4
 64
     7
 65
   257
 75
     1
175
     1
 42
1.0
 92
        0
 66
   257
 43
1.0
 76
     1
 77
     6
 78
     2
 67
     7
 79
     5
170
     0
171
     0
290
     0
174
     0
 93
        1
 44
0.0
173
     0
291
     0
 45
0.0
  0
VISUALSTYLE
  5
31
102
{ACAD_REACTORS
330
2A
102
}
102
{ACAD_XDICTIONARY
360
4F
102
}
330
2A
100
AcDbVisualStyle
  2
3D Hidden
 70
     6
 71
     1
 72
     2
 73
     2
 90
        0
 40
-0.6
 41
-30.0
 62
     5
 63
     7
421
 16777215
 74
     2
 91
        2
 64
     7
 65
   257
 75
     2
175
     1
 42
40.0
 92
        0
 66
   257
 43
1.0
 76
     1
 77
     6
 78
     2
 67
     7
 79
     3
170
     0
171
     0
290
     0
174
     0
 93
        1
 44
0.0
173
     0
291
     0
 45
0.0
  0
VISUALSTYLE
  5
30
102
{ACAD_REACTORS
330
2A
102
}
102
{ACAD_XDICTIONARY
360
4D
102
}
330
2A
100
AcDbVisualStyle
  2
3dWireframe
 70
     5
 71
     0
 72
     2
 73
     0
 90
        0
 40
-0.6
 41
-30.0
 62
     5
 63
     7
421
 16777215
 74
     1
 91
        4
 64
     7
 65
   257
 75
     1
175
     1
 42
1.0
 92
        0
 66
   257
 43
1.0
 76
     1
 77
     6
 78
     2
 67
     7
 79
     5
170
     0
171
     0
290
     0
174
     0
 93
        1
 44
0.0
173
     0
291
     0
 45
0.0
  0
VISUALSTYLE
  5
32
102
{ACAD_REACTORS
330
2A
102
}
102
{ACAD_XDICTIONARY
360
51
102
}
330
2A
100
AcDbVisualStyle
  2
Basic
 70
     7
 71
     1
 72
     0
 73
     1
 90
        0
 40
-0.6
 41
-30.0
 62
     5
 63
     7
421
 16777215
 74
     0
 91
        4
 64
     7
 65
   257
 75
     1
175
     1
 42
1.0
 92
        8
 66
     7
 43
1.0
 76
     1
 77
     6
 78
     2
 67
     7
 79
     5
170
     0
171
     0
290
     0
174
     0
 93
        1
 44
0.0
173
     0
291
     1
 45
0.0
  0
VISUALSTYLE
  5
36
102
{ACAD_REACTORS
330
2A
102
}
102
{ACAD_XDICTIONARY
360
59
102
}
330
2A
100
AcDbVisualStyle
  2
Brighten
 70
    12
 71
     2
 72
     2
 73
     0
 90
        0
 40
-0.6
 41
-30.0
 62
     5
 63
     7
421
 16777215
 74
     1
 91
        4
 64
     7
 65
   257
 75
     1
175
     1
 42
1.0
 92
        8
 66
     7
 43
1.0
 76
     1
 77
     6
 78
     2
 67
     7
 79
     5
170
     0
171
     0
290
     0
174
     0
 93
        1
 44
50.0
173
     0
291
     1
 45
0.0
  0
VISUALSTYLE
  5
3A
102
{ACAD_REACTORS
330
2A
102
}
102
{ACAD_XDICTIONARY
360
61
102
}
330
2A
100
AcDbVisualStyle
  2
ColorChange
 70
    16
 71
     2
 72
     2
 73
     3
 90
        0
 40
-0.6
 41
-30.0
 62
     5
 63
     8
421
  8421504
 74
     1
 91
        4
 64
     7
 65
   257
 75
     1
175
     1
 42
1.0
 92
        8
 66
     8
424
  8421504
 43
1.0
 76
     1
 77
     6
 78
     2
 67
     7
 79
     5
170
     0
171
     0
290
     0
174
     0
 93
        1
 44
0.0
173
     0
291
     1
 45
0.0
  0
VISUALSTYLE
  5
34
102
{ACAD_REACTORS
330
2A
102
}
102
{ACAD_XDICTIONARY
360
55
102
}
330
2A
100
AcDbVisualStyle
  2
Conceptual
 70
     9
 71
     3
 72
     2
 73
     0
 90
        0
 40
-0.6
 41
-30.0
 62
     5
 63
     7
421
 16777215
 74
     2
 91
        2
 64
     7
 65
   257
 75
     1
175
     1
 42
40.0
 92
        8
 66
     7
 43
1.0
 76
     1
 77
     6
 78
     2
 67
     7
 79
     3
170
     0
171
     0
290
     0
174
     0
 93
        1
 44
0.0
173
     0
291
     0
 45
0.0
  0
VISUALSTYLE
  5
35
102
{ACAD_REACTORS
330
2A
102
}
102
{ACAD_XDICTIONARY
360
57
102
}
330
2A
100
AcDbVisualStyle
  2
Dim
 70
    11
 71
     2
 72
     2
 73
     0
 90
        0
 40
-0.6
 41
-30.0
 62
     5
 63
     7
421
 16777215
 74
     1
 91
        4
 64
     7
 65
   257
 75
     1
175
     1
 42
1.0
 92
        8
 66
     7
 43
1.0
 76
     1
 77
     6
 78
     2
 67
     7
 79
     5
170
     0
171
     0
290
     0
174
     0
 93
        1
 44
-50.0
173
     0
291
     1
 45
0.0
  0
VISUALSTYLE
  5
39
102
{ACAD_REACTORS
330
2A
102
}
102
{ACAD_XDICTIONARY
360
5F
102
}
330
2A
100
AcDbVisualStyle
  2
Facepattern
 70
    15
 71
     2
 72
     2
 73
     0
 90
        0
 40
-0.6
 41
-30.0
 62
     5
 63
     7
421
 16777215
 74
     1
 91
        4
 64
     7
 65
   257
 75
     1
175
     1
 42
1.0
 92
        8
 66
     7
 43
1.0
 76
     1
 77
     6
 78
     2
 67
     7
 79
     5
170
     0
171
     0
290
     0
174
     0
 93
        1
 44
0.0
173
     0
291
     1
 45
0.0
  0
VISUALSTYLE
  5
2B
102
{ACAD_REACTORS
330
2A
102
}
102
{ACAD_XDICTIONARY
360
43
102
}
330
2A
100
AcDbVisualStyle
  2
Flat
 70
     0
 71
     2
 72
     1
 73
     1
 90
        2
 40
-0.6
 41
30.0
 62
     5
 63
     7
421
 16777215
 74
     0
 91
        4
 64
     7
 65
   257
 75
     1
175
     1
 42
1.0
 92
        8
 66
     7
 43
1.0
 76
     1
 77
     6
 78
     2
 67
     7
 79
     5
170
     0
171
     0
290
     0
174
     0
 93
       13
 44
0.0
173
     0
291
     1
 45
0.0
  0
VISUALSTYLE
  5
2C
102
{ACAD_REACTORS
330
2A
102
}
102
{ACAD_XDICTIONARY
360
45
102
}
330
2A
100
AcDbVisualStyle
  2
FlatWithEdges
 70
     1
 71
     2
 72
     1
 73
     1
 90
        2
 40
-0.6
 41
30.0
 62
     5
 63
     7
421
 16777215
 74
     1
 91
        4
 64
     7
 65
   257
 75
     1
175
     1
 42
1.0
 92
        0
 66
   257
 43
1.0
 76
     1
 77
     6
 78
     2
 67
     7
 79
     5
170
     0
171
     0
290
     0
174
     0
 93
       13
 44
0.0
173
     0
291
     1
 45
0.0
  0
VISUALSTYLE
  5
2D
102
{ACAD_REACTORS
330
2A
102
}
102
{ACAD_XDICTIONARY
360
47
102
}
330
2A
100
AcDbVisualStyle
  2
Gouraud
 70
     2
 71
     2
 72
     2
 73
     1
 90
        2
 40
-0.6
 41
30.0
 62
     5
 63
     7
421
 16777215
 74
     0
 91
        4
 64
     7
 65
   257
 75
     1
175
     1
 42
1.0
 92
        0
 66
     7
 43
1.0
 76
     1
 77
     6
 78
     2
 67
     7
 79
     5
170
     0
171
     0
290
     0
174
     0
 93
       13
 44
0.0
173
     0
291
     1
 45
0.0
  0
VISUALSTYLE
  5
2E
102
{ACAD_REACTORS
330
2A
102
}
102
{ACAD_XDICTIONARY
360
49
102
}
330
2A
100
AcDbVisualStyle
  2
GouraudWithEdges
 70
     3
 71
     2
 72
     2
 73
     1
 90
        2
 40
-0.6
 41
30.0
 62
     5
 63
     7
421
 16777215
 74
     1
 91
        4
 64
     7
 65
   257
 75
     1
175
     1
 42
1.0
 92
        0
 66
   257
 43
1.0
 76
     1
 77
     6
 78
     2
 67
     7
 79
     5
170
     0
171
     0
290
     0
174
     0
 93
       13
 44
0.0
173
     0
291
     1
 45
0.0
  0
VISUALSTYLE
  5
38
102
{ACAD_REACTORS
330
2A
102
}
102
{ACAD_XDICTIONARY
360
5D
102
}
330
2A
100
AcDbVisualStyle
  2
Linepattern
 70
    14
 71
     2
 72
     2
 73
     0
 90
        0
 40
-0.6
 41
-30.0
 62
     5
 63
     7
421
 16777215
 74
     1
 91
        4
 64
     7
 65
   257
 75
     7
175
     7
 42
1.0
 92
        8
 66
     7
 43
1.0
 76
     1
 77
     6
 78
     2
 67
     7
 79
     5
170
     0
171
     0
290
     0
174
     0
 93
        1
 44
0.0
173
     0
291
     1
 45
0.0
  0
VISUALSTYLE
  5
33
102
{ACAD_REACTORS
330
2A
102
}
102
{ACAD_XDICTIONARY
360
53
102
}
330
2A
100
AcDbVisualStyle
  2
Realistic
 70
     8
 71
     2
 72
     2
 73
     0
 90
        0
 40
-0.6
 41
-30.0
 62
     5
 63
     7
421
 16777215
 74
     1
 91
        0
 64
     7
 65
   257
 75
     1
175
     1
 42
1.0
 92
        8
 66
     8
424
  7895160
 43
1.0
 76
     1
 77
     6
 78
     2
 67
     7
 79
     5
170
     0
171
     0
290
     0
174
     0
 93
       13
 44
0.0
173
     0
291
     0
 45
0.0
  0
VISUALSTYLE
  5
37
102
{ACAD_REACTORS
330
2A
102
}
102
{ACAD_XDICTIONARY
360
5B
102
}
330
2A
100
AcDbVisualStyle
  2
Thicken
 70
    13
 71
     2
 72
     2
 73
     0
 90
        0
 40
-0.6
 41
-30.0
 62
     5
 63
     7
421
 16777215
 74
     1
 91
        4
 64
     7
 65
   257
 75
     1
175
     1
 42
1.0
 92
       12
 66
     7
 43
1.0
 76
     1
 77
     6
 78
     2
 67
     7
 79
     5
170
     0
171
     0
290
     0
174
     0
 93
        1
 44
0.0
173
     0
291
     1
 45
0.0
  0
DICTIONARY
  5
4B
330
2F
100
AcDbDictionary
280
     1
281
     1
  3
ACAD_XREC_ROUNDTRIP
360
4C
  0
DICTIONARY
  5
4F
330
31
100
AcDbDictionary
280
     1
281
     1
  3
ACAD_XREC_ROUNDTRIP
360
50
  0
DICTIONARY
  5
4D
330
30
100
AcDbDictionary
280
     1
281
     1
  3
ACAD_XREC_ROUNDTRIP
360
4E
  0
DICTIONARY
  5
51
330
32
100
AcDbDictionary
280
     1
281
     1
  3
ACAD_XREC_ROUNDTRIP
360
52
  0
DICTIONARY
  5
59
330
36
100
AcDbDictionary
280
     1
281
     1
  3
ACAD_XREC_ROUNDTRIP
360
5A
  0
DICTIONARY
  5
61
330
3A
100
AcDbDictionary
280
     1
281
     1
  3
ACAD_XREC_ROUNDTRIP
360
62
  0
DICTIONARY
  5
55
330
34
100
AcDbDictionary
280
     1
281
     1
  3
ACAD_XREC_ROUNDTRIP
360
56
  0
DICTIONARY
  5
57
330
35
100
AcDbDictionary
280
     1
281
     1
  3
ACAD_XREC_ROUNDTRIP
360
58
  0
DICTIONARY
  5
5F
330
39
100
AcDbDictionary
280
     1
281
     1
  3
ACAD_XREC_ROUNDTRIP
360
60
  0
DICTIONARY
  5
43
330
2B
100
AcDbDictionary
280
     1
281
     1
  3
ACAD_XREC_ROUNDTRIP
360
44
  0
DICTIONARY
  5
45
330
2C
100
AcDbDictionary
280
     1
281
     1
  3
ACAD_XREC_ROUNDTRIP
360
46
  0
DICTIONARY
  5
47
330
2D
100
AcDbDictionary
280
     1
281
     1
  3
ACAD_XREC_ROUNDTRIP
360
48
  0
DICTIONARY
  5
49
330
2E
100
AcDbDictionary
280
     1
281
     1
  3
ACAD_XREC_ROUNDTRIP
360
4A
  0
DICTIONARY
  5
5D
330
38
100
AcDbDictionary
280
     1
281
     1
  3
ACAD_XREC_ROUNDTRIP
360
5E
  0
DICTIONARY
  5
53
330
33
100
AcDbDictionary
280
     1
281
     1
  3
ACAD_XREC_ROUNDTRIP
360
54
  0
DICTIONARY
  5
5B
330
37
100
AcDbDictionary
280
     1
281
     1
  3
ACAD_XREC_ROUNDTRIP
360
5C
  0
XRECORD
  5
4C
102
{ACAD_REACTORS
330
4B
102
}
330
4B
100
AcDbXrecord
280
     1
102
RTVSPropertyOp0
 70
     1
102
RTVSPropertyOp1
 70
     1
102
RTVSPropertyOp2
 70
     1
102
RTVSPropertyOp3
 70
     1
102
RTVSPropertyOp4
 70
     1
102
RTVSPropertyOp5
 70
     1
102
RTVSPropertyOp6
 70
     1
102
RTVSPropertyOp7
 70
     1
102
RTVSPropertyOp8
 70
     1
102
RTVSPropertyOp9
 70
     1
102
RTVSPropertyOp10
 70
     1
102
RTVSPropertyOp11
 70
     1
102
RTVSPropertyOp12
 70
     1
102
RTVSPropertyOp13
 70
     1
102
RTVSPropertyOp14
 70
     1
102
RTVSPropertyOp15
 70
     1
102
RTVSPropertyOp16
 70
     1
102
RTVSPropertyOp17
 70
     1
102
RTVSPropertyOp18
 70
     1
102
RTVSPropertyOp19
 70
     1
102
RTVSPropertyOp20
 70
     1
102
RTVSPropertyOp21
 70
     1
102
RTVSPropertyOp22
 70
     1
102
RTVSPropertyOp23
 70
     1
102
RTVSPropertyOp24
 70
     1
102
RTVSPropertyOp25
 70
     1
102
RTVSPropertyOp26
 70
     1
102
RTVSPropertyOp27
 70
     1
102
RTVSPropertyOp28
 70
     1
102
RTVSPropertyOp29
 70
     1
102
RTVSPropertyOp30
 70
     1
102
RTVSPropertyOp31
 70
     1
102
RTVSPropertyOp32
 70
     1
  0
XRECORD
  5
50
102
{ACAD_REACTORS
330
4F
102
}
330
4F
100
AcDbXrecord
280
     1
102
RTVSPropertyOp0
 70
     1
102
RTVSPropertyOp1
 70
     1
102
RTVSPropertyOp2
 70
     1
102
RTVSPropertyOp3
 70
     1
102
RTVSPropertyOp4
 70
     1
102
RTVSPropertyOp5
 70
     1
102
RTVSPropertyOp6
 70
     1
102
RTVSPropertyOp7
 70
     1
102
RTVSPropertyOp8
 70
     1
102
RTVSPropertyOp9
 70
     1
102
RTVSPropertyOp10
 70
     1
102
RTVSPropertyOp11
 70
     1
102
RTVSPropertyOp12
 70
     1
102
RTVSPropertyOp13
 70
     1
102
RTVSPropertyOp14
 70
     1
102
RTVSPropertyOp15
 70
     1
102
RTVSPropertyOp16
 70
     1
102
RTVSPropertyOp17
 70
     1
102
RTVSPropertyOp18
 70
     1
102
RTVSPropertyOp19
 70
     1
102
RTVSPropertyOp20
 70
     1
102
RTVSPropertyOp21
 70
     1
102
RTVSPropertyOp22
 70
     1
102
RTVSPropertyOp23
 70
     1
102
RTVSPropertyOp24
 70
     1
102
RTVSPropertyOp25
 70
     1
102
RTVSPropertyOp26
 70
     1
102
RTVSPropertyOp27
 70
     1
102
RTVSPropertyOp28
 70
     1
102
RTVSPropertyOp29
 70
     1
102
RTVSPropertyOp30
 70
     1
102
RTVSPropertyOp31
 70
     1
102
RTVSPropertyOp32
 70
     1
  0
XRECORD
  5
4E
102
{ACAD_REACTORS
330
4D
102
}
330
4D
100
AcDbXrecord
280
     1
102
RTVSPropertyOp0
 70
     1
102
RTVSPropertyOp1
 70
     1
102
RTVSPropertyOp2
 70
     1
102
RTVSPropertyOp3
 70
     1
102
RTVSPropertyOp4
 70
     1
102
RTVSPropertyOp5
 70
     1
102
RTVSPropertyOp6
 70
     1
102
RTVSPropertyOp7
 70
     1
102
RTVSPropertyOp8
 70
     1
102
RTVSPropertyOp9
 70
     1
102
RTVSPropertyOp10
 70
     1
102
RTVSPropertyOp11
 70
     1
102
RTVSPropertyOp12
 70
     1
102
RTVSPropertyOp13
 70
     1
102
RTVSPropertyOp14
 70
     1
102
RTVSPropertyOp15
 70
     1
102
RTVSPropertyOp16
 70
     1
102
RTVSPropertyOp17
 70
     1
102
RTVSPropertyOp18
 70
     1
102
RTVSPropertyOp19
 70
     1
102
RTVSPropertyOp20
 70
     1
102
RTVSPropertyOp21
 70
     1
102
RTVSPropertyOp22
 70
     1
102
RTVSPropertyOp23
 70
     1
102
RTVSPropertyOp24
 70
     1
102
RTVSPropertyOp25
 70
     1
102
RTVSPropertyOp26
 70
     1
102
RTVSPropertyOp27
 70
     1
102
RTVSPropertyOp28
 70
     1
102
RTVSPropertyOp29
 70
     1
102
RTVSPropertyOp30
 70
     1
102
RTVSPropertyOp31
 70
     1
102
RTVSPropertyOp32
 70
     1
  0
XRECORD
  5
52
102
{ACAD_REACTORS
330
51
102
}
330
51
100
AcDbXrecord
280
     1
102
RTVSPropertyOp0
 70
     1
102
RTVSPropertyOp1
 70
     1
102
RTVSPropertyOp2
 70
     1
102
RTVSPropertyOp3
 70
     1
102
RTVSPropertyOp4
 70
     1
102
RTVSPropertyOp5
 70
     1
102
RTVSPropertyOp6
 70
     1
102
RTVSPropertyOp7
 70
     1
102
RTVSPropertyOp8
 70
     1
102
RTVSPropertyOp9
 70
     1
102
RTVSPropertyOp10
 70
     1
102
RTVSPropertyOp11
 70
     1
102
RTVSPropertyOp12
 70
     1
102
RTVSPropertyOp13
 70
     1
102
RTVSPropertyOp14
 70
     1
102
RTVSPropertyOp15
 70
     1
102
RTVSPropertyOp16
 70
     1
102
RTVSPropertyOp17
 70
     1
102
RTVSPropertyOp18
 70
     1
102
RTVSPropertyOp19
 70
     1
102
RTVSPropertyOp20
 70
     1
102
RTVSPropertyOp21
 70
     1
102
RTVSPropertyOp22
 70
     1
102
RTVSPropertyOp23
 70
     1
102
RTVSPropertyOp24
 70
     1
102
RTVSPropertyOp25
 70
     1
102
RTVSPropertyOp26
 70
     1
102
RTVSPropertyOp27
 70
     1
102
RTVSPropertyOp28
 70
     1
102
RTVSPropertyOp29
 70
     1
102
RTVSPropertyOp30
 70
     1
102
RTVSPropertyOp31
 70
     1
102
RTVSPropertyOp32
 70
     1
  0
XRECORD
  5
5A
102
{ACAD_REACTORS
330
59
102
}
330
59
100
AcDbXrecord
280
     1
102
RTVSPropertyOp0
 70
     1
102
RTVSPropertyOp1
 70
     1
102
RTVSPropertyOp2
 70
     1
102
RTVSPropertyOp3
 70
     1
102
RTVSPropertyOp4
 70
     1
102
RTVSPropertyOp5
 70
     1
102
RTVSPropertyOp6
 70
     1
102
RTVSPropertyOp7
 70
     1
102
RTVSPropertyOp8
 70
     1
102
RTVSPropertyOp9
 70
     1
102
RTVSPropertyOp10
 70
     1
102
RTVSPropertyOp11
 70
     1
102
RTVSPropertyOp12
 70
     1
102
RTVSPropertyOp13
 70
     1
102
RTVSPropertyOp14
 70
     1
102
RTVSPropertyOp15
 70
     1
102
RTVSPropertyOp16
 70
     1
102
RTVSPropertyOp17
 70
     1
102
RTVSPropertyOp18
 70
     1
102
RTVSPropertyOp19
 70
     1
102
RTVSPropertyOp20
 70
     1
102
RTVSPropertyOp21
 70
     1
102
RTVSPropertyOp22
 70
     1
102
RTVSPropertyOp23
 70
     1
102
RTVSPropertyOp24
 70
     1
102
RTVSPropertyOp25
 70
     1
102
RTVSPropertyOp26
 70
     1
102
RTVSPropertyOp27
 70
     1
102
RTVSPropertyOp28
 70
     1
102
RTVSPropertyOp29
 70
     1
102
RTVSPropertyOp30
 70
     1
102
RTVSPropertyOp31
 70
     1
102
RTVSPropertyOp32
 70
     1
  0
XRECORD
  5
62
102
{ACAD_REACTORS
330
61
102
}
330
61
100
AcDbXrecord
280
     1
102
RTVSPropertyOp0
 70
     1
102
RTVSPropertyOp1
 70
     1
102
RTVSPropertyOp2
 70
     1
102
RTVSPropertyOp3
 70
     1
102
RTVSPropertyOp4
 70
     1
102
RTVSPropertyOp5
 70
     1
102
RTVSPropertyOp6
 70
     1
102
RTVSPropertyOp7
 70
     1
102
RTVSPropertyOp8
 70
     1
102
RTVSPropertyOp9
 70
     1
102
RTVSPropertyOp10
 70
     1
102
RTVSPropertyOp11
 70
     1
102
RTVSPropertyOp12
 70
     1
102
RTVSPropertyOp13
 70
     1
102
RTVSPropertyOp14
 70
     1
102
RTVSPropertyOp15
 70
     1
102
RTVSPropertyOp16
 70
     1
102
RTVSPropertyOp17
 70
     1
102
RTVSPropertyOp18
 70
     1
102
RTVSPropertyOp19
 70
     1
102
RTVSPropertyOp20
 70
     1
102
RTVSPropertyOp21
 70
     1
102
RTVSPropertyOp22
 70
     1
102
RTVSPropertyOp23
 70
     1
102
RTVSPropertyOp24
 70
     1
102
RTVSPropertyOp25
 70
     1
102
RTVSPropertyOp26
 70
     1
102
RTVSPropertyOp27
 70
     1
102
RTVSPropertyOp28
 70
     1
102
RTVSPropertyOp29
 70
     1
102
RTVSPropertyOp30
 70
     1
102
RTVSPropertyOp31
 70
     1
102
RTVSPropertyOp32
 70
     1
  0
XRECORD
  5
56
102
{ACAD_REACTORS
330
55
102
}
330
55
100
AcDbXrecord
280
     1
102
RTVSPropertyOp0
 70
     1
102
RTVSPropertyOp1
 70
     1
102
RTVSPropertyOp2
 70
     1
102
RTVSPropertyOp3
 70
     1
102
RTVSPropertyOp4
 70
     1
102
RTVSPropertyOp5
 70
     1
102
RTVSPropertyOp6
 70
     1
102
RTVSPropertyOp7
 70
     1
102
RTVSPropertyOp8
 70
     1
102
RTVSPropertyOp9
 70
     1
102
RTVSPropertyOp10
 70
     1
102
RTVSPropertyOp11
 70
     1
102
RTVSPropertyOp12
 70
     1
102
RTVSPropertyOp13
 70
     1
102
RTVSPropertyOp14
 70
     1
102
RTVSPropertyOp15
 70
     1
102
RTVSPropertyOp16
 70
     1
102
RTVSPropertyOp17
 70
     1
102
RTVSPropertyOp18
 70
     1
102
RTVSPropertyOp19
 70
     1
102
RTVSPropertyOp20
 70
     1
102
RTVSPropertyOp21
 70
     1
102
RTVSPropertyOp22
 70
     1
102
RTVSPropertyOp23
 70
     1
102
RTVSPropertyOp24
 70
     1
102
RTVSPropertyOp25
 70
     1
102
RTVSPropertyOp26
 70
     1
102
RTVSPropertyOp27
 70
     1
102
RTVSPropertyOp28
 70
     1
102
RTVSPropertyOp29
 70
     1
102
RTVSPropertyOp30
 70
     1
102
RTVSPropertyOp31
 70
     1
102
RTVSPropertyOp32
 70
     1
  0
XRECORD
  5
58
102
{ACAD_REACTORS
330
57
102
}
330
57
100
AcDbXrecord
280
     1
102
RTVSPropertyOp0
 70
     1
102
RTVSPropertyOp1
 70
     1
102
RTVSPropertyOp2
 70
     1
102
RTVSPropertyOp3
 70
     1
102
RTVSPropertyOp4
 70
     1
102
RTVSPropertyOp5
 70
     1
102
RTVSPropertyOp6
 70
     1
102
RTVSPropertyOp7
 70
     1
102
RTVSPropertyOp8
 70
     1
102
RTVSPropertyOp9
 70
     1
102
RTVSPropertyOp10
 70
     1
102
RTVSPropertyOp11
 70
     1
102
RTVSPropertyOp12
 70
     1
102
RTVSPropertyOp13
 70
     1
102
RTVSPropertyOp14
 70
     1
102
RTVSPropertyOp15
 70
     1
102
RTVSPropertyOp16
 70
     1
102
RTVSPropertyOp17
 70
     1
102
RTVSPropertyOp18
 70
     1
102
RTVSPropertyOp19
 70
     1
102
RTVSPropertyOp20
 70
     1
102
RTVSPropertyOp21
 70
     1
102
RTVSPropertyOp22
 70
     1
102
RTVSPropertyOp23
 70
     1
102
RTVSPropertyOp24
 70
     1
102
RTVSPropertyOp25
 70
     1
102
RTVSPropertyOp26
 70
     1
102
RTVSPropertyOp27
 70
     1
102
RTVSPropertyOp28
 70
     1
102
RTVSPropertyOp29
 70
     1
102
RTVSPropertyOp30
 70
     1
102
RTVSPropertyOp31
 70
     1
102
RTVSPropertyOp32
 70
     1
  0
XRECORD
  5
60
102
{ACAD_REACTORS
330
5F
102
}
330
5F
100
AcDbXrecord
280
     1
102
RTVSPropertyOp0
 70
     1
102
RTVSPropertyOp1
 70
     1
102
RTVSPropertyOp2
 70
     1
102
RTVSPropertyOp3
 70
     1
102
RTVSPropertyOp4
 70
     1
102
RTVSPropertyOp5
 70
     1
102
RTVSPropertyOp6
 70
     1
102
RTVSPropertyOp7
 70
     1
102
RTVSPropertyOp8
 70
     1
102
RTVSPropertyOp9
 70
     1
102
RTVSPropertyOp10
 70
     1
102
RTVSPropertyOp11
 70
     1
102
RTVSPropertyOp12
 70
     1
102
RTVSPropertyOp13
 70
     1
102
RTVSPropertyOp14
 70
     1
102
RTVSPropertyOp15
 70
     1
102
RTVSPropertyOp16
 70
     1
102
RTVSPropertyOp17
 70
     1
102
RTVSPropertyOp18
 70
     1
102
RTVSPropertyOp19
 70
     1
102
RTVSPropertyOp20
 70
     1
102
RTVSPropertyOp21
 70
     1
102
RTVSPropertyOp22
 70
     1
102
RTVSPropertyOp23
 70
     1
102
RTVSPropertyOp24
 70
     1
102
RTVSPropertyOp25
 70
     1
102
RTVSPropertyOp26
 70
     1
102
RTVSPropertyOp27
 70
     1
102
RTVSPropertyOp28
 70
     1
102
RTVSPropertyOp29
 70
     1
102
RTVSPropertyOp30
 70
     1
102
RTVSPropertyOp31
 70
     1
102
RTVSPropertyOp32
 70
     1
  0
XRECORD
  5
44
102
{ACAD_REACTORS
330
43
102
}
330
43
100
AcDbXrecord
280
     1
102
RTVSPropertyOp0
 70
     1
102
RTVSPropertyOp1
 70
     1
102
RTVSPropertyOp2
 70
     1
102
RTVSPropertyOp3
 70
     1
102
RTVSPropertyOp4
 70
     1
102
RTVSPropertyOp5
 70
     1
102
RTVSPropertyOp6
 70
     1
102
RTVSPropertyOp7
 70
     1
102
RTVSPropertyOp8
 70
     1
102
RTVSPropertyOp9
 70
     1
102
RTVSPropertyOp10
 70
     1
102
RTVSPropertyOp11
 70
     1
102
RTVSPropertyOp12
 70
     1
102
RTVSPropertyOp13
 70
     1
102
RTVSPropertyOp14
 70
     1
102
RTVSPropertyOp15
 70
     1
102
RTVSPropertyOp16
 70
     1
102
RTVSPropertyOp17
 70
     1
102
RTVSPropertyOp18
 70
     1
102
RTVSPropertyOp19
 70
     1
102
RTVSPropertyOp20
 70
     1
102
RTVSPropertyOp21
 70
     1
102
RTVSPropertyOp22
 70
     1
102
RTVSPropertyOp23
 70
     1
102
RTVSPropertyOp24
 70
     1
102
RTVSPropertyOp25
 70
     1
102
RTVSPropertyOp26
 70
     1
102
RTVSPropertyOp27
 70
     1
102
RTVSPropertyOp28
 70
     1
102
RTVSPropertyOp29
 70
     1
102
RTVSPropertyOp30
 70
     1
102
RTVSPropertyOp31
 70
     1
102
RTVSPropertyOp32
 70
     1
  0
XRECORD
  5
46
102
{ACAD_REACTORS
330
45
102
}
330
45
100
AcDbXrecord
280
     1
102
RTVSPropertyOp0
 70
     1
102
RTVSPropertyOp1
 70
     1
102
RTVSPropertyOp2
 70
     1
102
RTVSPropertyOp3
 70
     1
102
RTVSPropertyOp4
 70
     1
102
RTVSPropertyOp5
 70
     1
102
RTVSPropertyOp6
 70
     1
102
RTVSPropertyOp7
 70
     1
102
RTVSPropertyOp8
 70
     1
102
RTVSPropertyOp9
 70
     1
102
RTVSPropertyOp10
 70
     1
102
RTVSPropertyOp11
 70
     1
102
RTVSPropertyOp12
 70
     1
102
RTVSPropertyOp13
 70
     1
102
RTVSPropertyOp14
 70
     1
102
RTVSPropertyOp15
 70
     1
102
RTVSPropertyOp16
 70
     1
102
RTVSPropertyOp17
 70
     1
102
RTVSPropertyOp18
 70
     1
102
RTVSPropertyOp19
 70
     1
102
RTVSPropertyOp20
 70
     1
102
RTVSPropertyOp21
 70
     1
102
RTVSPropertyOp22
 70
     1
102
RTVSPropertyOp23
 70
     1
102
RTVSPropertyOp24
 70
     1
102
RTVSPropertyOp25
 70
     1
102
RTVSPropertyOp26
 70
     1
102
RTVSPropertyOp27
 70
     1
102
RTVSPropertyOp28
 70
     1
102
RTVSPropertyOp29
 70
     1
102
RTVSPropertyOp30
 70
     1
102
RTVSPropertyOp31
 70
     1
102
RTVSPropertyOp32
 70
     1
  0
XRECORD
  5
48
102
{ACAD_REACTORS
330
47
102
}
330
47
100
AcDbXrecord
280
     1
102
RTVSPropertyOp0
 70
     1
102
RTVSPropertyOp1
 70
     1
102
RTVSPropertyOp2
 70
     1
102
RTVSPropertyOp3
 70
     1
102
RTVSPropertyOp4
 70
     1
102
RTVSPropertyOp5
 70
     1
102
RTVSPropertyOp6
 70
     1
102
RTVSPropertyOp7
 70
     1
102
RTVSPropertyOp8
 70
     1
102
RTVSPropertyOp9
 70
     1
102
RTVSPropertyOp10
 70
     1
102
RTVSPropertyOp11
 70
     1
102
RTVSPropertyOp12
 70
     1
102
RTVSPropertyOp13
 70
     1
102
RTVSPropertyOp14
 70
     1
102
RTVSPropertyOp15
 70
     1
102
RTVSPropertyOp16
 70
     1
102
RTVSPropertyOp17
 70
     1
102
RTVSPropertyOp18
 70
     1
102
RTVSPropertyOp19
 70
     1
102
RTVSPropertyOp20
 70
     1
102
RTVSPropertyOp21
 70
     1
102
RTVSPropertyOp22
 70
     1
102
RTVSPropertyOp23
 70
     1
102
RTVSPropertyOp24
 70
     1
102
RTVSPropertyOp25
 70
     1
102
RTVSPropertyOp26
 70
     1
102
RTVSPropertyOp27
 70
     1
102
RTVSPropertyOp28
 70
     1
102
RTVSPropertyOp29
 70
     1
102
RTVSPropertyOp30
 70
     1
102
RTVSPropertyOp31
 70
     1
102
RTVSPropertyOp32
 70
     1
  0
XRECORD
  5
4A
102
{ACAD_REACTORS
330
49
102
}
330
49
100
AcDbXrecord
280
     1
102
RTVSPropertyOp0
 70
     1
102
RTVSPropertyOp1
 70
     1
102
RTVSPropertyOp2
 70
     1
102
RTVSPropertyOp3
 70
     1
102
RTVSPropertyOp4
 70
     1
102
RTVSPropertyOp5
 70
     1
102
RTVSPropertyOp6
 70
     1
102
RTVSPropertyOp7
 70
     1
102
RTVSPropertyOp8
 70
     1
102
RTVSPropertyOp9
 70
     1
102
RTVSPropertyOp10
 70
     1
102
RTVSPropertyOp11
 70
     1
102
RTVSPropertyOp12
 70
     1
102
RTVSPropertyOp13
 70
     1
102
RTVSPropertyOp14
 70
     1
102
RTVSPropertyOp15
 70
     1
102
RTVSPropertyOp16
 70
     1
102
RTVSPropertyOp17
 70
     1
102
RTVSPropertyOp18
 70
     1
102
RTVSPropertyOp19
 70
     1
102
RTVSPropertyOp20
 70
     1
102
RTVSPropertyOp21
 70
     1
102
RTVSPropertyOp22
 70
     1
102
RTVSPropertyOp23
 70
     1
102
RTVSPropertyOp24
 70
     1
102
RTVSPropertyOp25
 70
     1
102
RTVSPropertyOp26
 70
     1
102
RTVSPropertyOp27
 70
     1
102
RTVSPropertyOp28
 70
     1
102
RTVSPropertyOp29
 70
     1
102
RTVSPropertyOp30
 70
     1
102
RTVSPropertyOp31
 70
     1
102
RTVSPropertyOp32
 70
     1
  0
XRECORD
  5
5E
102
{ACAD_REACTORS
330
5D
102
}
330
5D
100
AcDbXrecord
280
     1
102
RTVSPropertyOp0
 70
     1
102
RTVSPropertyOp1
 70
     1
102
RTVSPropertyOp2
 70
     1
102
RTVSPropertyOp3
 70
     1
102
RTVSPropertyOp4
 70
     1
102
RTVSPropertyOp5
 70
     1
102
RTVSPropertyOp6
 70
     1
102
RTVSPropertyOp7
 70
     1
102
RTVSPropertyOp8
 70
     1
102
RTVSPropertyOp9
 70
     1
102
RTVSPropertyOp10
 70
     1
102
RTVSPropertyOp11
 70
     1
102
RTVSPropertyOp12
 70
     1
102
RTVSPropertyOp13
 70
     1
102
RTVSPropertyOp14
 70
     1
102
RTVSPropertyOp15
 70
     1
102
RTVSPropertyOp16
 70
     1
102
RTVSPropertyOp17
 70
     1
102
RTVSPropertyOp18
 70
     1
102
RTVSPropertyOp19
 70
     1
102
RTVSPropertyOp20
 70
     1
102
RTVSPropertyOp21
 70
     1
102
RTVSPropertyOp22
 70
     1
102
RTVSPropertyOp23
 70
     1
102
RTVSPropertyOp24
 70
     1
102
RTVSPropertyOp25
 70
     1
102
RTVSPropertyOp26
 70
     1
102
RTVSPropertyOp27
 70
     1
102
RTVSPropertyOp28
 70
     1
102
RTVSPropertyOp29
 70
     1
102
RTVSPropertyOp30
 70
     1
102
RTVSPropertyOp31
 70
     1
102
RTVSPropertyOp32
 70
     1
  0
XRECORD
  5
54
102
{ACAD_REACTORS
330
53
102
}
330
53
100
AcDbXrecord
280
     1
102
RTVSPropertyOp0
 70
     1
102
RTVSPropertyOp1
 70
     1
102
RTVSPropertyOp2
 70
     1
102
RTVSPropertyOp3
 70
     1
102
RTVSPropertyOp4
 70
     1
102
RTVSPropertyOp5
 70
     1
102
RTVSPropertyOp6
 70
     1
102
RTVSPropertyOp7
 70
     1
102
RTVSPropertyOp8
 70
     1
102
RTVSPropertyOp9
 70
     1
102
RTVSPropertyOp10
 70
     1
102
RTVSPropertyOp11
 70
     1
102
RTVSPropertyOp12
 70
     1
102
RTVSPropertyOp13
 70
     1
102
RTVSPropertyOp14
 70
     1
102
RTVSPropertyOp15
 70
     1
102
RTVSPropertyOp16
 70
     1
102
RTVSPropertyOp17
 70
     1
102
RTVSPropertyOp18
 70
     1
102
RTVSPropertyOp19
 70
     1
102
RTVSPropertyOp20
 70
     1
102
RTVSPropertyOp21
 70
     1
102
RTVSPropertyOp22
 70
     1
102
RTVSPropertyOp23
 70
     1
102
RTVSPropertyOp24
 70
     1
102
RTVSPropertyOp25
 70
     1
102
RTVSPropertyOp26
 70
     1
102
RTVSPropertyOp27
 70
     1
102
RTVSPropertyOp28
 70
     1
102
RTVSPropertyOp29
 70
     1
102
RTVSPropertyOp30
 70
     1
102
RTVSPropertyOp31
 70
     1
102
RTVSPropertyOp32
 70
     1
  0
XRECORD
  5
5C
102
{ACAD_REACTORS
330
5B
102
}
330
5B
100
AcDbXrecord
280
     1
102
RTVSPropertyOp0
 70
     1
102
RTVSPropertyOp1
 70
     1
102
RTVSPropertyOp2
 70
     1
102
RTVSPropertyOp3
 70
     1
102
RTVSPropertyOp4
 70
     1
102
RTVSPropertyOp5
 70
     1
102
RTVSPropertyOp6
 70
     1
102
RTVSPropertyOp7
 70
     1
102
RTVSPropertyOp8
 70
     1
102
RTVSPropertyOp9
 70
     1
102
RTVSPropertyOp10
 70
     1
102
RTVSPropertyOp11
 70
     1
102
RTVSPropertyOp12
 70
     1
102
RTVSPropertyOp13
 70
     1
102
RTVSPropertyOp14
 70
     1
102
RTVSPropertyOp15
 70
     1
102
RTVSPropertyOp16
 70
     1
102
RTVSPropertyOp17
 70
     1
102
RTVSPropertyOp18
 70
     1
102
RTVSPropertyOp19
 70
     1
102
RTVSPropertyOp20
 70
     1
102
RTVSPropertyOp21
 70
     1
102
RTVSPropertyOp22
 70
     1
102
RTVSPropertyOp23
 70
     1
102
RTVSPropertyOp24
 70
     1
102
RTVSPropertyOp25
 70
     1
102
RTVSPropertyOp26
 70
     1
102
RTVSPropertyOp27
 70
     1
102
RTVSPropertyOp28
 70
     1
102
RTVSPropertyOp29
 70
     1
102
RTVSPropertyOp30
 70
     1
102
RTVSPropertyOp31
 70
     1
102
RTVSPropertyOp32
 70
     1
  0
ENDSEC
  0
EOF
