  0
SECTION
  2
HEADER
  9
$ACADVER
  1
AC1021
  9
$ACADMAINTVER
 70
    25
  9
$DWGCODEPAGE
  3
ANSI_1252
  9
$INSBASE
 10
0.0
 20
0.0
 30
0.0
  9
$EXTMIN
 10
-12.03696
 20
-8.9073
 30
0.0
  9
$EXTMAX
 10
-1.36343
 20
-3.4491
 30
0.0
  9
$LIMMIN
 10
0.0
 20
0.0
  9
$LIMMAX
 10
12.0
 20
9.0
  9
$ORTHOMODE
 70
     0
  9
$REGENMODE
 70
     1
  9
$FILLMODE
 70
     1
  9
$QTEXTMODE
 70
     0
  9
$MIRRTEXT
 70
     1
  9
$LTSCALE
 40
1.0
  9
$ATTMODE
 70
     1
  9
$TEXTSIZE
 40
0.2
  9
$TRACEWID
 40
0.05
  9
$TEXTSTYLE
  7
Standard
  9
$CLAYER
  8
0
  9
$CELTYPE
  6
ByLayer
  9
$CECOLOR
 62
   256
  9
$CELTSCALE
 40
1.0
  9
$DISPSILH
 70
     0
  9
$DIMSCALE
 40
1.0
  9
$DIMASZ
 40
0.18
  9
$DIMEXO
 40
0.0625
  9
$DIMDLI
 40
0.38
  9
$DIMRND
 40
0.0
  9
$DIMDLE
 40
0.0
  9
$DIMEXE
 40
0.18
  9
$DIMTP
 40
0.0
  9
$DIMTM
 40
0.0
  9
$DIMTXT
 40
0.18
  9
$DIMCEN
 40
0.09
  9
$DIMTSZ
 40
0.0
  9
$DIMTOL
 70
     0
  9
$DIMLIM
 70
     0
  9
$DIMTIH
 70
     1
  9
$DIMTOH
 70
     1
  9
$DIMSE1
 70
     0
  9
$DIMSE2
 70
     0
  9
$DIMTAD
 70
     0
  9
$DIMZIN
 70
     0
  9
$DIMBLK
  1

  9
$DIMASO
 70
     1
  9
$DIMSHO
 70
     1
  9
$DIMPOST
  1

  9
$DIMAPOST
  1

  9
$DIMALT
 70
     0
  9
$DIMALTD
 70
     2
  9
$DIMALTF
 40
25.4
  9
$DIMLFAC
 40
1.0
  9
$DIMTOFL
 70
     0
  9
$DIMTVP
 40
0.0
  9
$DIMTIX
 70
     0
  9
$DIMSOXD
 70
     0
  9
$DIMSAH
 70
     0
  9
$DIMBLK1
  1

  9
$DIMBLK2
  1

  9
$DIMSTYLE
  2
Standard
  9
$DIMCLRD
 70
     0
  9
$DIMCLRE
 70
     0
  9
$DIMCLRT
 70
     0
  9
$DIMTFAC
 40
1.0
  9
$DIMGAP
 40
0.09
  9
$DIMJUST
 70
     0
  9
$DIMSD1
 70
     0
  9
$DIMSD2
 70
     0
  9
$DIMTOLJ
 70
     1
  9
$DIMTZIN
 70
     0
  9
$DIMALTZ
 70
     0
  9
$DIMALTTZ
 70
     0
  9
$DIMUPT
 70
     0
  9
$DIMDEC
 70
     4
  9
$DIMTDEC
 70
     4
  9
$DIMALTU
 70
     2
  9
$DIMALTTD
 70
     2
  9
$DIMTXSTY
  7
Standard
  9
$DIMAUNIT
 70
     0
  9
$DIMADEC
 70
     0
  9
$DIMALTRND
 40
0.0
  9
$DIMAZIN
 70
     0
  9
$DIMDSEP
 70
    46
  9
$DIMATFIT
 70
     3
  9
$DIMFRAC
 70
     0
  9
$DIMLDRBLK
  1

  9
$DIMLUNIT
 70
     2
  9
$DIMLWD
 70
    -2
  9
$DIMLWE
 70
    -2
  9
$DIMTMOVE
 70
     0
  9
$DIMFXL
 40
1.0
  9
$DIMFXLON
 70
     0
  9
$DIMJOGANG
 40
0.7853981633974483
  9
$DIMTFILL
 70
     0
  9
$DIMTFILLCLR
 70
     0
  9
$DIMARCSYM
 70
     0
  9
$DIMLTYPE
  6

  9
$DIMLTEX1
  6

  9
$DIMLTEX2
  6

  9
$LUNITS
 70
     2
  9
$LUPREC
 70
     4
  9
$SKETCHINC
 40
0.1
  9
$FILLETRAD
 40
0.5
  9
$AUNITS
 70
     0
  9
$AUPREC
 70
     0
  9
$MENU
  1
.
  9
$ELEVATION
 40
0.0
  9
$PELEVATION
 40
0.0
  9
$THICKNESS
 40
0.0
  9
$LIMCHECK
 70
     0
  9
$CHAMFERA
 40
0.5
  9
$CHAMFERB
 40
0.5
  9
$CHAMFERC
 40
1.0
  9
$CHAMFERD
 40
0.0
  9
$SKPOLY
 70
     0
  9
$TDCREATE
 40
2460555.14119537
  9
$TDUCREATE
 40
2460555.099528704
  9
$TDUPDATE
 40
2460555.141195394
  9
$TDUUPDATE
 40
2460555.099528727
  9
$TDINDWG
 40
0.0000000116
  9
$TDUSRTIMER
 40
0.0000000116
  9
$USRTIMER
 70
     1
  9
$ANGBASE
 50
0.0
  9
$ANGDIR
 70
     0
  9
$PDMODE
 70
     0
  9
$PDSIZE
 40
0.0
  9
$PLINEWID
 40
0.0
  9
$SPLFRAME
 70
     0
  9
$SPLINETYPE
 70
     6
  9
$SPLINESEGS
 70
     8
  9
$HANDSEED
  5
71
  9
$SURFTAB1
 70
     6
  9
$SURFTAB2
 70
     6
  9
$SURFTYPE
 70
     6
  9
$SURFU
 70
     6
  9
$SURFV
 70
     6
  9
$UCSBASE
  2

  9
$UCSNAME
  2

  9
$UCSORG
 10
0.0
 20
0.0
 30
0.0
  9
$UCSXDIR
 10
1.0
 20
0.0
 30
0.0
  9
$UCSYDIR
 10
0.0
 20
1.0
 30
0.0
  9
$UCSORTHOREF
  2

  9
$UCSORTHOVIEW
 70
     0
  9
$UCSORGTOP
 10
0.0
 20
0.0
 30
0.0
  9
$UCSORGBOTTOM
 10
0.0
 20
0.0
 30
0.0
  9
$UCSORGLEFT
 10
0.0
 20
0.0
 30
0.0
  9
$UCSORGRIGHT
 10
0.0
 20
0.0
 30
0.0
  9
$UCSORGFRONT
 10
0.0
 20
0.0
 30
0.0
  9
$UCSORGBACK
 10
0.0
 20
0.0
 30
0.0
  9
$PUCSBASE
  2

  9
$PUCSNAME
  2

  9
$PUCSORG
 10
0.0
 20
0.0
 30
0.0
  9
$PUCSXDIR
 10
1.0
 20
0.0
 30
0.0
  9
$PUCSYDIR
 10
0.0
 20
1.0
 30
0.0
  9
$PUCSORTHOREF
  2

  9
$PUCSORTHOVIEW
 70
     0
  9
$PUCSORGTOP
 10
0.0
 20
0.0
 30
0.0
  9
$PUCSORGBOTTOM
 10
0.0
 20
0.0
 30
0.0
  9
$PUCSORGLEFT
 10
0.0
 20
0.0
 30
0.0
  9
$PUCSORGRIGHT
 10
0.0
 20
0.0
 30
0.0
  9
$PUCSORGFRONT
 10
0.0
 20
0.0
 30
0.0
  9
$PUCSORGBACK
 10
0.0
 20
0.0
 30
0.0
  9
$USERI1
 70
     0
  9
$USERI2
 70
     0
  9
$USERI3
 70
     0
  9
$USERI4
 70
     0
  9
$USERI5
 70
     0
  9
$USERR1
 40
0.0
  9
$USERR2
 40
0.0
  9
$USERR3
 40
0.0
  9
$USERR4
 40
0.0
  9
$USERR5
 40
0.0
  9
$WORLDVIEW
 70
     1
  9
$SHADEDGE
 70
     3
  9
$SHADEDIF
 70
    70
  9
$TILEMODE
 70
     1
  9
$MAXACTVP
 70
    64
  9
$PINSBASE
 10
0.0
 20
0.0
 30
0.0
  9
$PLIMCHECK
 70
     0
  9
$PEXTMIN
 10
1.000000000000000E+20
 20
1.000000000000000E+20
 30
1.000000000000000E+20
  9
$PEXTMAX
 10
-1.000000000000000E+20
 20
-1.000000000000000E+20
 30
-1.000000000000000E+20
  9
$PLIMMIN
 10
0.0
 20
0.0
  9
$PLIMMAX
 10
12.0
 20
9.0
  9
$UNITMODE
 70
     0
  9
$VISRETAIN
 70
     1
  9
$PLINEGEN
 70
     0
  9
$PSLTSCALE
 70
     1
  9
$TREEDEPTH
 70
  3020
  9
$CMLSTYLE
  2
Standard
  9
$CMLJUST
 70
     0
  9
$CMLSCALE
 40
1.0
  9
$PROXYGRAPHICS
 70
     1
  9
$MEASUREMENT
 70
     0
  9
$CELWEIGHT
370
    -1
  9
$ENDCAPS
280
     0
  9
$JOINSTYLE
280
     0
  9
$LWDISPLAY
290
     0
  9
$INSUNITS
 70
     5
  9
$HYPERLINKBASE
  1

  9
$STYLESHEET
  1

  9
$XEDIT
290
     1
  9
$CEPSNTYPE
380
     0
  9
$PSTYLEMODE
290
     1
  9
$FINGERPRINTGUID
  2
{6B2260CE-DD16-4524-A21F-1447EEE9482B}
  9
$VERSIONGUID
  2
{FAEB1C32-E019-11D5-929B-00C0DF256EC4}
  9
$EXTNAMES
290
     1
  9
$PSVPSCALE
 40
0.0
  9
$OLESTARTUP
290
     0
  9
$SORTENTS
280
   127
  9
$INDEXCTL
280
     0
  9
$HIDETEXT
280
     1
  9
$XCLIPFRAME
290
     0
  9
$HALOGAP
280
     0
  9
$OBSCOLOR
 70
   257
  9
$OBSLTYPE
280
     0
  9
$INTERSECTIONDISPLAY
280
     0
  9
$INTERSECTIONCOLOR
 70
   257
  9
$DIMASSOC
280
     2
  9
$PROJECTNAME
  1

  9
$CAMERADISPLAY
290
     0
  9
$LENSLENGTH
 40
50.0
  9
$CAMERAHEIGHT
 40
0.0
  9
$STEPSPERSEC
 40
2.0
  9
$STEPSIZE
 40
6.0
  9
$3DDWFPREC
 40
2.0
  9
$PSOLWIDTH
 40
0.25
  9
$PSOLHEIGHT
 40
4.0
  9
$LOFTANG1
 40
1.570796326794897
  9
$LOFTANG2
 40
1.570796326794897
  9
$LOFTMAG1
 40
0.0
  9
$LOFTMAG2
 40
0.0
  9
$LOFTPARAM
 70
     7
  9
$LOFTNORMALS
280
     1
  9
$LATITUDE
 40
37.795
  9
$LONGITUDE
 40
-122.394
  9
$NORTHDIRECTION
 40
0.0
  9
$TIMEZONE
 70
 -8000
  9
$LIGHTGLYPHDISPLAY
280
     1
  9
$TILEMODELIGHTSYNCH
280
     1
  9
$SOLIDHIST
280
     1
  9
$SHOWHIST
280
     1
  9
$DWFFRAME
280
     2
  9
$DGNFRAME
280
     2
  9
$REALWORLDSCALE
290
     1
  9
$INTERFERECOLOR
 62
   256
  9
$CSHADOW
280
     0
  9
$SHADOWPLANELOCATION
 40
0.0
  0
ENDSEC
  0
SECTION
  2
CLASSES
  0
CLASS
  1
ACDBDICTIONARYWDFLT
  2
AcDbDictionaryWithDefault
  3
ObjectDBX Classes
 90
        0
 91
        4
280
     0
281
     0
  0
CLASS
  1
VISUALSTYLE
  2
AcDbVisualStyle
  3
ObjectDBX Classes
 90
     4095
 91
        4
280
     0
281
     0
  0
CLASS
  1
MATERIAL
  2
AcDbMaterial
  3
ObjectDBX Classes
 90
     1153
 91
        4
280
     0
281
     0
  0
ENDSEC
  0
SECTION
  2
TABLES
  0
TABLE
  2
VPORT
  5
8
330
0
100
AcDbSymbolTable
 70
     1
  0
VPORT
  5
29
330
8
100
AcDbSymbolTableRecord
100
AcDbViewportTableRecord
  2
*Active
 70
     0
 10
0.0
 20
0.0
 11
1.0
 21
1.0
 12
10.42990654205607
 22
4.5
 13
0.0
 23
0.0
 14
0.5
 24
0.5
 15
0.5
 25
0.5
 16
0.0
 26
0.0
 36
1.0
 17
0.0
 27
0.0
 37
0.0
 40
9.0
 41
1.972972972850329
 42
50.0
 43
0.0
 44
0.0
 50
0.0
 51
0.0
 71
     0
 72
   100
 73
     1
 74
     3
 75
     0
 76
     0
 77
     0
 78
     0
281
     0
 65
     1
110
0.0
120
0.0
130
0.0
111
1.0
121
0.0
131
0.0
112
0.0
122
1.0
132
0.0
 79
     0
146
0.0
 60
     3
 61
     5
292
     1
282
     1
141
0.0
142
0.0
 63
   250
  0
ENDTAB
  0
TABLE
  2
LTYPE
  5
5
330
0
100
AcDbSymbolTable
 70
     1
  0
LTYPE
  5
14
330
5
100
AcDbSymbolTableRecord
100
AcDbLinetypeTableRecord
  2
ByBlock
 70
     0
  3

 72
    65
 73
     0
 40
0.0
  0
LTYPE
  5
15
330
5
100
AcDbSymbolTableRecord
100
AcDbLinetypeTableRecord
  2
ByLayer
 70
     0
  3

 72
    65
 73
     0
 40
0.0
  0
LTYPE
  5
16
330
5
100
AcDbSymbolTableRecord
100
AcDbLinetypeTableRecord
  2
Continuous
 70
     0
  3
Solid line
 72
    65
 73
     0
 40
0.0
  0
ENDTAB
  0
TABLE
  2
LAYER
  5
2
330
0
100
AcDbSymbolTable
 70
     2
  0
LAYER
  5
10
330
2
100
AcDbSymbolTableRecord
100
AcDbLayerTableRecord
  2
0
 70
     0
 62
     7
  6
Continuous
370
    -3
390
F
347
3E
  0
LAYER
  5
40
330
2
100
AcDbSymbolTableRecord
100
AcDbLayerTableRecord
  2
Layer 1
 70
     0
 62
     7
  6
Continuous
370
    -3
390
F
347
3E
  0
ENDTAB
  0
TABLE
  2
STYLE
  5
3
330
0
100
AcDbSymbolTable
 70
     1
  0
STYLE
  5
11
330
3
100
AcDbSymbolTableRecord
100
AcDbTextStyleTableRecord
  2
Standard
 70
     0
 40
0.0
 41
1.0
 50
0.0
 71
     0
 42
0.2
  3
txt
  4

  0
ENDTAB
  0
TABLE
  2
VIEW
  5
6
330
0
100
AcDbSymbolTable
 70
     0
  0
ENDTAB
  0
TABLE
  2
UCS
  5
7
330
0
100
AcDbSymbolTable
 70
     0
  0
ENDTAB
  0
TABLE
  2
APPID
  5
9
330
0
100
AcDbSymbolTable
 70
     2
  0
APPID
  5
12
330
9
100
AcDbSymbolTableRecord
100
AcDbRegAppTableRecord
  2
ACAD
 70
     0
  0
APPID
  5
3F
330
9
100
AcDbSymbolTableRecord
100
AcDbRegAppTableRecord
  2
ODA
 70
     0
  0
ENDTAB
  0
TABLE
  2
DIMSTYLE
  5
A
330
0
100
AcDbSymbolTable
 70
     1
100
AcDbDimStyleTable
  0
DIMSTYLE
105
27
330
A
100
AcDbSymbolTableRecord
100
AcDbDimStyleTableRecord
  2
Standard
 70
     0
178
     0
340
11
  0
ENDTAB
  0
TABLE
  2
BLOCK_RECORD
  5
1
330
0
100
AcDbSymbolTable
 70
     1
  0
BLOCK_RECORD
  5
1F
330
1
100
AcDbSymbolTableRecord
100
AcDbBlockTableRecord
  2
*Model_Space
340
22
 70
     0
280
     1
281
     0
  0
BLOCK_RECORD
  5
1B
330
1
100
AcDbSymbolTableRecord
100
AcDbBlockTableRecord
  2
*Paper_Space
340
1E
 70
     0
280
     1
281
     0
  0
BLOCK_RECORD
  5
23
330
1
100
AcDbSymbolTableRecord
100
AcDbBlockTableRecord
  2
*Paper_Space0
340
26
 70
     0
280
     1
281
     0
  0
ENDTAB
  0
ENDSEC
  0
SECTION
  2
BLOCKS
  0
BLOCK
  5
20
330
1F
100
AcDbEntity
  8
0
100
AcDbBlockBegin
  2
*Model_Space
 70
     0
 10
0.0
 20
0.0
 30
0.0
  3
*Model_Space
  1

  0
ENDBLK
  5
21
330
1F
100
AcDbEntity
  8
0
100
AcDbBlockEnd
  0
BLOCK
  5
1C
330
1B
100
AcDbEntity
 67
     1
  8
0
100
AcDbBlockBegin
  2
*Paper_Space
 70
     0
 10
0.0
 20
0.0
 30
0.0
  3
*Paper_Space
  1

  0
ENDBLK
  5
1D
330
1B
100
AcDbEntity
 67
     1
  8
0
100
AcDbBlockEnd
  0
BLOCK
  5
24
330
23
100
AcDbEntity
  8
0
100
AcDbBlockBegin
  2
*Paper_Space0
 70
     0
 10
0.0
 20
0.0
 30
0.0
  3
*Paper_Space0
  1

  0
ENDBLK
  5
25
330
23
100
AcDbEntity
  8
0
100
AcDbBlockEnd
  0
ENDSEC
  0
SECTION
  2
ENTITIES
  0
SPLINE
  5
41
330
1F
100
AcDbEntity
  8
Layer 1
 62
     5
100
AcDbSpline
210
0.0
220
0.0
230
1.0
 70
    11
 71
     3
 72
   284
 73
   280
 74
     0
 42
0.0000000001
 43
0.0000000001
 12
1.0
 22
0.0
 32
0.0
 13
1.0
 23
0.0
 33
0.0
 40
0.0
 40
0.0
 40
0.0
 40
0.0
 40
0.0140845070422535
 40
0.0140845070422535
 40
0.0140845070422535
 40
0.0140845070422535
 40
0.028169014084507
 40
0.028169014084507
 40
0.028169014084507
 40
0.028169014084507
 40
0.0422535211267606
 40
0.0422535211267606
 40
0.0422535211267606
 40
0.0422535211267606
 40
0.0563380281690141
 40
0.0563380281690141
 40
0.0563380281690141
 40
0.0563380281690141
 40
0.0704225352112676
 40
0.0704225352112676
 40
0.0704225352112676
 40
0.0704225352112676
 40
0.0845070422535211
 40
0.0845070422535211
 40
0.0845070422535211
 40
0.0845070422535211
 40
0.0985915492957746
 40
0.0985915492957746
 40
0.0985915492957746
 40
0.0985915492957746
 40
0.1126760563380282
 40
0.1126760563380282
 40
0.1126760563380282
 40
0.1126760563380282
 40
0.1267605633802817
 40
0.1267605633802817
 40
0.1267605633802817
 40
0.1267605633802817
 40
0.1408450704225352
 40
0.1408450704225352
 40
0.1408450704225352
 40
0.1408450704225352
 40
0.1549295774647887
 40
0.1549295774647887
 40
0.1549295774647887
 40
0.1549295774647887
 40
0.1690140845070423
 40
0.1690140845070423
 40
0.1690140845070423
 40
0.1690140845070423
 40
0.1830985915492958
 40
0.1830985915492958
 40
0.1830985915492958
 40
0.1830985915492958
 40
0.1971830985915493
 40
0.1971830985915493
 40
0.1971830985915493
 40
0.1971830985915493
 40
0.2112676056338028
 40
0.2112676056338028
 40
0.2112676056338028
 40
0.2112676056338028
 40
0.2253521126760563
 40
0.2253521126760563
 40
0.2253521126760563
 40
0.2253521126760563
 40
0.2394366197183098
 40
0.2394366197183098
 40
0.2394366197183098
 40
0.2394366197183098
 40
0.2535211267605634
 40
0.2535211267605634
 40
0.2535211267605634
 40
0.2535211267605634
 40
0.2676056338028169
 40
0.2676056338028169
 40
0.2676056338028169
 40
0.2676056338028169
 40
0.2816901408450704
 40
0.2816901408450704
 40
0.2816901408450704
 40
0.2816901408450704
 40
0.2957746478873239
 40
0.2957746478873239
 40
0.2957746478873239
 40
0.2957746478873239
 40
0.3098591549295774
 40
0.3098591549295774
 40
0.3098591549295774
 40
0.3098591549295774
 40
0.323943661971831
 40
0.323943661971831
 40
0.323943661971831
 40
0.323943661971831
 40
0.3380281690140845
 40
0.3380281690140845
 40
0.3380281690140845
 40
0.3380281690140845
 40
0.352112676056338
 40
0.352112676056338
 40
0.352112676056338
 40
0.352112676056338
 40
0.3661971830985916
 40
0.3661971830985916
 40
0.3661971830985916
 40
0.3661971830985916
 40
0.3802816901408451
 40
0.3802816901408451
 40
0.3802816901408451
 40
0.3802816901408451
 40
0.3943661971830986
 40
0.3943661971830986
 40
0.3943661971830986
 40
0.3943661971830986
 40
0.4084507042253521
 40
0.4084507042253521
 40
0.4084507042253521
 40
0.4084507042253521
 40
0.4225352112676056
 40
0.4225352112676056
 40
0.4225352112676056
 40
0.4225352112676056
 40
0.4366197183098591
 40
0.4366197183098591
 40
0.4366197183098591
 40
0.4366197183098591
 40
0.4507042253521127
 40
0.4507042253521127
 40
0.4507042253521127
 40
0.4507042253521127
 40
0.4647887323943662
 40
0.4647887323943662
 40
0.4647887323943662
 40
0.4647887323943662
 40
0.4788732394366197
 40
0.4788732394366197
 40
0.4788732394366197
 40
0.4788732394366197
 40
0.4929577464788732
 40
0.4929577464788732
 40
0.4929577464788732
 40
0.4929577464788732
 40
0.5070422535211268
 40
0.5070422535211268
 40
0.5070422535211268
 40
0.5070422535211268
 40
0.5211267605633803
 40
0.5211267605633803
 40
0.5211267605633803
 40
0.5211267605633803
 40
0.5352112676056338
 40
0.5352112676056338
 40
0.5352112676056338
 40
0.5352112676056338
 40
0.5492957746478874
 40
0.5492957746478874
 40
0.5492957746478874
 40
0.5492957746478874
 40
0.5633802816901409
 40
0.5633802816901409
 40
0.5633802816901409
 40
0.5633802816901409
 40
0.5774647887323944
 40
0.5774647887323944
 40
0.5774647887323944
 40
0.5774647887323944
 40
0.5915492957746479
 40
0.5915492957746479
 40
0.5915492957746479
 40
0.5915492957746479
 40
0.6056338028169014
 40
0.6056338028169014
 40
0.6056338028169014
 40
0.6056338028169014
 40
0.6197183098591549
 40
0.6197183098591549
 40
0.6197183098591549
 40
0.6197183098591549
 40
0.6338028169014085
 40
0.6338028169014085
 40
0.6338028169014085
 40
0.6338028169014085
 40
0.647887323943662
 40
0.647887323943662
 40
0.647887323943662
 40
0.647887323943662
 40
0.6619718309859155
 40
0.6619718309859155
 40
0.6619718309859155
 40
0.6619718309859155
 40
0.676056338028169
 40
0.676056338028169
 40
0.676056338028169
 40
0.676056338028169
 40
0.6901408450704225
 40
0.6901408450704225
 40
0.6901408450704225
 40
0.6901408450704225
 40
0.704225352112676
 40
0.704225352112676
 40
0.704225352112676
 40
0.704225352112676
 40
0.7183098591549296
 40
0.7183098591549296
 40
0.7183098591549296
 40
0.7183098591549296
 40
0.7323943661971831
 40
0.7323943661971831
 40
0.7323943661971831
 40
0.7323943661971831
 40
0.7464788732394366
 40
0.7464788732394366
 40
0.7464788732394366
 40
0.7464788732394366
 40
0.7605633802816901
 40
0.7605633802816901
 40
0.7605633802816901
 40
0.7605633802816901
 40
0.7746478873239436
 40
0.7746478873239436
 40
0.7746478873239436
 40
0.7746478873239436
 40
0.7887323943661971
 40
0.7887323943661971
 40
0.7887323943661971
 40
0.7887323943661971
 40
0.8028169014084507
 40
0.8028169014084507
 40
0.8028169014084507
 40
0.8028169014084507
 40
0.8169014084507042
 40
0.8169014084507042
 40
0.8169014084507042
 40
0.8169014084507042
 40
0.8309859154929577
 40
0.8309859154929577
 40
0.8309859154929577
 40
0.8309859154929577
 40
0.8450704225352113
 40
0.8450704225352113
 40
0.8450704225352113
 40
0.8450704225352113
 40
0.8591549295774648
 40
0.8591549295774648
 40
0.8591549295774648
 40
0.8591549295774648
 40
0.8732394366197183
 40
0.8732394366197183
 40
0.8732394366197183
 40
0.8732394366197183
 40
0.8873239436619719
 40
0.8873239436619719
 40
0.8873239436619719
 40
0.8873239436619719
 40
0.9014084507042254
 40
0.9014084507042254
 40
0.9014084507042254
 40
0.9014084507042254
 40
0.9154929577464789
 40
0.9154929577464789
 40
0.9154929577464789
 40
0.9154929577464789
 40
0.9295774647887324
 40
0.9295774647887324
 40
0.9295774647887324
 40
0.9295774647887324
 40
0.9436619718309859
 40
0.9436619718309859
 40
0.9436619718309859
 40
0.9436619718309859
 40
0.9577464788732394
 40
0.9577464788732394
 40
0.9577464788732394
 40
0.9577464788732394
 40
0.971830985915493
 40
0.971830985915493
 40
0.971830985915493
 40
0.971830985915493
 40
1.0
 40
1.0
 40
1.0
 40
1.0
 10
-9.16151
 20
-8.13232
 30
0.0
 10
-9.15285
 20
-8.08204
 30
0.0
 10
-9.1343
 20
-8.03618
 30
0.0
 10
-9.0963
 20
-8.00948
 30
0.0
 10
-9.0963
 20
-8.00948
 30
0.0
 10
-9.0963
 20
-8.00948
 30
0.0
 10
-9.0948
 20
-8.00841
 30
0.0
 10
-9.0948
 20
-8.00841
 30
0.0
 10
-9.0948
 20
-8.00841
 30
0.0
 10
-9.07247
 20
-7.99328
 30
0.0
 10
-9.05105
 20
-7.98512
 30
0.0
 10
-9.03097
 20
-7.98254
 30
0.0
 10
-9.03097
 20
-7.98254
 30
0.0
 10
-8.99986
 20
-7.97853
 30
0.0
 10
-8.97337
 20
-7.98731
 30
0.0
 10
-8.95187
 20
-8.00461
 30
0.0
 10
-8.95187
 20
-8.00461
 30
0.0
 10
-8.93315
 20
-8.01965
 30
0.0
 10
-8.91937
 20
-8.04077
 30
0.0
 10
-8.91059
 20
-8.06462
 30
0.0
 10
-8.91059
 20
-8.06462
 30
0.0
 10
-8.90019
 20
-8.09291
 30
0.0
 10
-8.89652
 20
-8.12629
 30
0.0
 10
-8.90003
 20
-8.15749
 30
0.0
 10
-8.90003
 20
-8.15749
 30
0.0
 10
-8.90003
 20
-8.15749
 30
0.0
 10
-8.90006
 20
-8.15749
 30
0.0
 10
-8.90006
 20
-8.15749
 30
0.0
 10
-8.90006
 20
-8.15749
 30
0.0
 10
-8.90097
 20
-8.1659
 30
0.0
 10
-8.90405
 20
-8.1742
 30
0.0
 10
-8.90941
 20
-8.18151
 30
0.0
 10
-8.90941
 20
-8.18151
 30
0.0
 10
-8.94501
 20
-8.23
 30
0.0
 10
-8.99341
 20
-8.2769
 30
0.0
 10
-9.03517
 20
-8.31736
 30
0.0
 10
-9.03517
 20
-8.31736
 30
0.0
 10
-9.05059
 20
-8.33229
 30
0.0
 10
-9.06508
 20
-8.34633
 30
0.0
 10
-9.07715
 20
-8.35877
 30
0.0
 10
-9.07715
 20
-8.35877
 30
0.0
 10
-9.09115
 20
-8.37323
 30
0.0
 10
-9.10631
 20
-8.38957
 30
0.0
 10
-9.12149
 20
-8.40592
 30
0.0
 10
-9.12149
 20
-8.40592
 30
0.0
 10
-9.18871
 20
-8.47836
 30
0.0
 10
-9.25699
 20
-8.55194
 30
0.0
 10
-9.35075
 20
-8.59527
 30
0.0
 10
-9.35075
 20
-8.59527
 30
0.0
 10
-9.40083
 20
-8.61839
 30
0.0
 10
-9.45595
 20
-8.63664
 30
0.0
 10
-9.51225
 20
-8.65056
 30
0.0
 10
-9.51225
 20
-8.65056
 30
0.0
 10
-9.57451
 20
-8.66596
 30
0.0
 10
-9.63887
 20
-8.67613
 30
0.0
 10
-9.69975
 20
-8.68185
 30
0.0
 10
-9.69975
 20
-8.68185
 30
0.0
 10
-9.69975
 20
-8.68185
 30
0.0
 10
-9.69975
 20
-8.68183
 30
0.0
 10
-9.69975
 20
-8.68183
 30
0.0
 10
-9.69975
 20
-8.68183
 30
0.0
 10
-9.69975
 20
-8.68183
 30
0.0
 10
-9.69994
 20
-8.68185
 30
0.0
 10
-9.69994
 20
-8.68185
 30
0.0
 10
-9.69994
 20
-8.68185
 30
0.0
 10
-9.70041
 20
-8.68189
 30
0.0
 10
-9.85161
 20
-8.69621
 30
0.0
 10
-10.00716
 20
-8.71064
 30
0.0
 10
-10.00716
 20
-8.71064
 30
0.0
 10
-10.01027
 20
-8.71096
 30
0.0
 10
-10.01346
 20
-8.71098
 30
0.0
 10
-10.01669
 20
-8.71069
 30
0.0
 10
-10.01669
 20
-8.71069
 30
0.0
 10
-10.16707
 20
-8.69674
 30
0.0
 10
-10.37582
 20
-8.68208
 30
0.0
 10
-10.37642
 20
-8.68204
 30
0.0
 10
-10.37642
 20
-8.68204
 30
0.0
 10
-10.37642
 20
-8.68204
 30
0.0
 10
-10.37641
 20
-8.68194
 30
0.0
 10
-10.37641
 20
-8.68194
 30
0.0
 10
-10.37641
 20
-8.68194
 30
0.0
 10
-10.37641
 20
-8.68194
 30
0.0
 10
-10.37759
 20
-8.68185
 30
0.0
 10
-10.37759
 20
-8.68185
 30
0.0
 10
-10.37759
 20
-8.68185
 30
0.0
 10
-10.43847
 20
-8.67613
 30
0.0
 10
-10.50284
 20
-8.66596
 30
0.0
 10
-10.56509
 20
-8.65055
 30
0.0
 10
-10.56509
 20
-8.65055
 30
0.0
 10
-10.62137
 20
-8.63662
 30
0.0
 10
-10.6764
 20
-8.61838
 30
0.0
 10
-10.72631
 20
-8.59527
 30
0.0
 10
-10.72631
 20
-8.59527
 30
0.0
 10
-10.82038
 20
-8.55191
 30
0.0
 10
-10.88876
 20
-8.47823
 30
0.0
 10
-10.95605
 20
-8.40571
 30
0.0
 10
-10.95605
 20
-8.40571
 30
0.0
 10
-10.97109
 20
-8.3895
 30
0.0
 10
-10.98612
 20
-8.37331
 30
0.0
 10
-10.99999
 20
-8.35896
 30
0.0
 10
-10.99999
 20
-8.35896
 30
0.0
 10
-10.99999
 20
-8.35896
 30
0.0
 10
-11.00038
 20
-8.35857
 30
0.0
 10
-11.00038
 20
-8.35857
 30
0.0
 10
-11.00038
 20
-8.35857
 30
0.0
 10
-11.0127
 20
-8.34579
 30
0.0
 10
-11.02754
 20
-8.33139
 30
0.0
 10
-11.04334
 20
-8.31606
 30
0.0
 10
-11.04334
 20
-8.31606
 30
0.0
 10
-11.08199
 20
-8.27855
 30
0.0
 10
-11.12626
 20
-8.23562
 30
0.0
 10
-11.16052
 20
-8.19099
 30
0.0
 10
-11.16052
 20
-8.19099
 30
0.0
 10
-11.16586
 20
-8.18448
 30
0.0
 10
-11.16961
 20
-8.17652
 30
0.0
 10
-11.17109
 20
-8.16762
 30
0.0
 10
-11.17109
 20
-8.16762
 30
0.0
 10
-11.17666
 20
-8.13457
 30
0.0
 10
-11.17374
 20
-8.09813
 30
0.0
 10
-11.16297
 20
-8.06734
 30
0.0
 10
-11.16297
 20
-8.06734
 30
0.0
 10
-11.15463
 20
-8.0435
 30
0.0
 10
-11.14141
 20
-8.02224
 30
0.0
 10
-11.12344
 20
-8.00686
 30
0.0
 10
-11.12344
 20
-8.00686
 30
0.0
 10
-11.10254
 20
-7.98897
 30
0.0
 10
-11.07655
 20
-7.97932
 30
0.0
 10
-11.04578
 20
-7.98214
 30
0.0
 10
-11.04578
 20
-7.98214
 30
0.0
 10
-11.02455
 20
-7.98409
 30
0.0
 10
-11.0018
 20
-7.99228
 30
0.0
 10
-10.97805
 20
-8.00841
 30
0.0
 10
-10.97805
 20
-8.00841
 30
0.0
 10
-10.93899
 20
-8.03492
 30
0.0
 10
-10.92001
 20
-8.08131
 30
0.0
 10
-10.91119
 20
-8.13227
 30
0.0
 10
-10.91119
 20
-8.13227
 30
0.0
 10
-10.91119
 20
-8.13227
 30
0.0
 10
-10.91071
 20
-8.13198
 30
0.0
 10
-10.91071
 20
-8.13198
 30
0.0
 10
-10.91071
 20
-8.13198
 30
0.0
 10
-10.88454
 20
-8.11633
 30
0.0
 10
-10.85549
 20
-8.11118
 30
0.0
 10
-10.82503
 20
-8.12115
 30
0.0
 10
-10.82503
 20
-8.12115
 30
0.0
 10
-10.8069
 20
-8.12708
 30
0.0
 10
-10.78921
 20
-8.13842
 30
0.0
 10
-10.77266
 20
-8.15623
 30
0.0
 10
-10.77266
 20
-8.15623
 30
0.0
 10
-10.77157
 20
-8.15726
 30
0.0
 10
-10.77052
 20
-8.15834
 30
0.0
 10
-10.76951
 20
-8.15949
 30
0.0
 10
-10.76951
 20
-8.15949
 30
0.0
 10
-10.74883
 20
-8.18301
 30
0.0
 10
-10.73515
 20
-8.21364
 30
0.0
 10
-10.7266
 20
-8.24761
 30
0.0
 10
-10.7266
 20
-8.24761
 30
0.0
 10
-10.72417
 20
-8.24494
 30
0.0
 10
-10.72166
 20
-8.24229
 30
0.0
 10
-10.71907
 20
-8.2397
 30
0.0
 10
-10.71907
 20
-8.2397
 30
0.0
 10
-10.71907
 20
-8.2397
 30
0.0
 10
-10.71898
 20
-8.2398
 30
0.0
 10
-10.71898
 20
-8.2398
 30
0.0
 10
-10.71898
 20
-8.2398
 30
0.0
 10
-10.712
 20
-8.2328
 30
0.0
 10
-10.70466
 20
-8.22668
 30
0.0
 10
-10.69703
 20
-8.2214
 30
0.0
 10
-10.69703
 20
-8.2214
 30
0.0
 10
-10.65557
 20
-8.1927
 30
0.0
 10
-10.61006
 20
-8.19054
 30
0.0
 10
-10.56676
 20
-8.20411
 30
0.0
 10
-10.56676
 20
-8.20411
 30
0.0
 10
-10.52915
 20
-8.21591
 30
0.0
 10
-10.49362
 20
-8.24022
 30
0.0
 10
-10.4655
 20
-8.26822
 30
0.0
 10
-10.4655
 20
-8.26822
 30
0.0
 10
-10.45265
 20
-8.28102
 30
0.0
 10
-10.44114
 20
-8.29481
 30
0.0
 10
-10.43156
 20
-8.30864
 30
0.0
 10
-10.43156
 20
-8.30864
 30
0.0
 10
-10.42137
 20
-8.32337
 30
0.0
 10
-10.41379
 20
-8.33823
 30
0.0
 10
-10.40779
 20
-8.35334
 30
0.0
 10
-10.40779
 20
-8.35334
 30
0.0
 10
-10.39083
 20
-8.33412
 30
0.0
 10
-10.37053
 20
-8.31929
 30
0.0
 10
-10.34816
 20
-8.30822
 30
0.0
 10
-10.34816
 20
-8.30822
 30
0.0
 10
-10.30696
 20
-8.28785
 30
0.0
 10
-10.25909
 20
-8.28087
 30
0.0
 10
-10.21326
 20
-8.28293
 30
0.0
 10
-10.21326
 20
-8.28293
 30
0.0
 10
-10.18632
 20
-8.28412
 30
0.0
 10
-10.16011
 20
-8.29026
 30
0.0
 10
-10.13588
 20
-8.3006
 30
0.0
 10
-10.13588
 20
-8.3006
 30
0.0
 10
-10.11135
 20
-8.31108
 30
0.0
 10
-10.08864
 20
-8.3259
 30
0.0
 10
-10.06905
 20
-8.3443
 30
0.0
 10
-10.06905
 20
-8.3443
 30
0.0
 10
-10.06905
 20
-8.3443
 30
0.0
 10
-10.06906
 20
-8.34431
 30
0.0
 10
-10.06906
 20
-8.34431
 30
0.0
 10
-10.06906
 20
-8.34431
 30
0.0
 10
-10.06906
 20
-8.34431
 30
0.0
 10
-10.06885
 20
-8.3445
 30
0.0
 10
-10.06885
 20
-8.3445
 30
0.0
 10
-10.06885
 20
-8.3445
 30
0.0
 10
-10.05669
 20
-8.3561
 30
0.0
 10
-10.04581
 20
-8.36867
 30
0.0
 10
-10.03625
 20
-8.38204
 30
0.0
 10
-10.03625
 20
-8.38204
 30
0.0
 10
-10.02747
 20
-8.36978
 30
0.0
 10
-10.0176
 20
-8.3582
 30
0.0
 10
-10.00661
 20
-8.34746
 30
0.0
 10
-10.00661
 20
-8.34746
 30
0.0
 10
-10.00564
 20
-8.34637
 30
0.0
 10
-10.00461
 20
-8.34532
 30
0.0
 10
-10.00353
 20
-8.3443
 30
0.0
 10
-10.00353
 20
-8.3443
 30
0.0
 10
-9.98392
 20
-8.32588
 30
0.0
 10
-9.96125
 20
-8.31104
 30
0.0
 10
-9.93669
 20
-8.30056
 30
0.0
 10
-9.93669
 20
-8.30056
 30
0.0
 10
-9.91253
 20
-8.29024
 30
0.0
 10
-9.88636
 20
-8.28412
 30
0.0
 10
-9.85931
 20
-8.28293
 30
0.0
 10
-9.85931
 20
-8.28293
 30
0.0
 10
-9.81347
 20
-8.28087
 30
0.0
 10
-9.76571
 20
-8.28783
 30
0.0
 10
-9.7246
 20
-8.3082
 30
0.0
 10
-9.7246
 20
-8.3082
 30
0.0
 10
-9.70224
 20
-8.31928
 30
0.0
 10
-9.68196
 20
-8.33413
 30
0.0
 10
-9.66501
 20
-8.35337
 30
0.0
 10
-9.66501
 20
-8.35337
 30
0.0
 10
-9.6589
 20
-8.33803
 30
0.0
 10
-9.65117
 20
-8.32301
 30
0.0
 10
-9.64081
 20
-8.30825
 30
0.0
 10
-9.64081
 20
-8.30825
 30
0.0
 10
-9.64081
 20
-8.30825
 30
0.0
 10
-9.64076
 20
-8.30828
 30
0.0
 10
-9.64076
 20
-8.30828
 30
0.0
 10
-9.64076
 20
-8.30828
 30
0.0
 10
-9.63127
 20
-8.29453
 30
0.0
 10
-9.61981
 20
-8.28081
 30
0.0
 10
-9.60698
 20
-8.26804
 30
0.0
 10
-9.60698
 20
-8.26804
 30
0.0
 10
-9.57893
 20
-8.2401
 30
0.0
 10
-9.54344
 20
-8.21588
 30
0.0
 10
-9.50589
 20
-8.20412
 30
0.0
 10
-9.50589
 20
-8.20412
 30
0.0
 10
-9.46269
 20
-8.19058
 30
0.0
 10
-9.41724
 20
-8.1927
 30
0.0
 10
-9.37577
 20
-8.22125
 30
0.0
 10
-9.37577
 20
-8.22125
 30
0.0
 10
-9.36808
 20
-8.22654
 30
0.0
 10
-9.36063
 20
-8.23275
 30
0.0
 10
-9.35351
 20
-8.23989
 30
0.0
 10
-9.35351
 20
-8.23989
 30
0.0
 10
-9.35095
 20
-8.24246
 30
0.0
 10
-9.34847
 20
-8.24507
 30
0.0
 10
-9.34607
 20
-8.24773
 30
0.0
 10
-9.34607
 20
-8.24773
 30
0.0
 10
-9.33796
 20
-8.21542
 30
0.0
 10
-9.32521
 20
-8.18612
 30
0.0
 10
-9.30617
 20
-8.16304
 30
0.0
 10
-9.30617
 20
-8.16304
 30
0.0
 10
-9.30528
 20
-8.16182
 30
0.0
 10
-9.30433
 20
-8.16064
 30
0.0
 10
-9.30332
 20
-8.15949
 30
0.0
 10
-9.30332
 20
-8.15949
 30
0.0
 10
-9.28491
 20
-8.13855
 30
0.0
 10
-9.26487
 20
-8.12588
 30
0.0
 10
-9.24419
 20
-8.11995
 30
0.0
 10
-9.24419
 20
-8.11995
 30
0.0
 10
-9.21465
 20
-8.11147
 30
0.0
 10
-9.18668
 20
-8.11702
 30
0.0
 10
-9.16151
 20
-8.13232
 30
0.0
  0
SPLINE
  5
42
330
1F
100
AcDbEntity
  8
Layer 1
 62
     5
100
AcDbSpline
210
0.0
220
0.0
230
1.0
 70
    11
 71
     3
 72
   184
 73
   180
 74
     0
 42
0.0000000001
 43
0.0000000001
 12
1.0
 22
0.0
 32
0.0
 13
1.0
 23
0.0
 33
0.0
 40
0.0
 40
0.0
 40
0.0
 40
0.0
 40
0.0217391304347826
 40
0.0217391304347826
 40
0.0217391304347826
 40
0.0217391304347826
 40
0.0434782608695652
 40
0.0434782608695652
 40
0.0434782608695652
 40
0.0434782608695652
 40
0.0652173913043478
 40
0.0652173913043478
 40
0.0652173913043478
 40
0.0652173913043478
 40
0.0869565217391304
 40
0.0869565217391304
 40
0.0869565217391304
 40
0.0869565217391304
 40
0.108695652173913
 40
0.108695652173913
 40
0.108695652173913
 40
0.108695652173913
 40
0.1304347826086956
 40
0.1304347826086956
 40
0.1304347826086956
 40
0.1304347826086956
 40
0.1521739130434783
 40
0.1521739130434783
 40
0.1521739130434783
 40
0.1521739130434783
 40
0.1739130434782609
 40
0.1739130434782609
 40
0.1739130434782609
 40
0.1739130434782609
 40
0.1956521739130435
 40
0.1956521739130435
 40
0.1956521739130435
 40
0.1956521739130435
 40
0.2173913043478261
 40
0.2173913043478261
 40
0.2173913043478261
 40
0.2173913043478261
 40
0.2391304347826087
 40
0.2391304347826087
 40
0.2391304347826087
 40
0.2391304347826087
 40
0.2608695652173913
 40
0.2608695652173913
 40
0.2608695652173913
 40
0.2608695652173913
 40
0.2826086956521739
 40
0.2826086956521739
 40
0.2826086956521739
 40
0.2826086956521739
 40
0.3043478260869565
 40
0.3043478260869565
 40
0.3043478260869565
 40
0.3043478260869565
 40
0.3260869565217391
 40
0.3260869565217391
 40
0.3260869565217391
 40
0.3260869565217391
 40
0.3478260869565217
 40
0.3478260869565217
 40
0.3478260869565217
 40
0.3478260869565217
 40
0.3695652173913043
 40
0.3695652173913043
 40
0.3695652173913043
 40
0.3695652173913043
 40
0.391304347826087
 40
0.391304347826087
 40
0.391304347826087
 40
0.391304347826087
 40
0.4130434782608696
 40
0.4130434782608696
 40
0.4130434782608696
 40
0.4130434782608696
 40
0.4347826086956522
 40
0.4347826086956522
 40
0.4347826086956522
 40
0.4347826086956522
 40
0.4565217391304348
 40
0.4565217391304348
 40
0.4565217391304348
 40
0.4565217391304348
 40
0.4782608695652174
 40
0.4782608695652174
 40
0.4782608695652174
 40
0.4782608695652174
 40
0.5
 40
0.5
 40
0.5
 40
0.5
 40
0.5217391304347826
 40
0.5217391304347826
 40
0.5217391304347826
 40
0.5217391304347826
 40
0.5434782608695652
 40
0.5434782608695652
 40
0.5434782608695652
 40
0.5434782608695652
 40
0.5652173913043478
 40
0.5652173913043478
 40
0.5652173913043478
 40
0.5652173913043478
 40
0.5869565217391305
 40
0.5869565217391305
 40
0.5869565217391305
 40
0.5869565217391305
 40
0.6086956521739131
 40
0.6086956521739131
 40
0.6086956521739131
 40
0.6086956521739131
 40
0.6304347826086957
 40
0.6304347826086957
 40
0.6304347826086957
 40
0.6304347826086957
 40
0.6521739130434783
 40
0.6521739130434783
 40
0.6521739130434783
 40
0.6521739130434783
 40
0.6739130434782609
 40
0.6739130434782609
 40
0.6739130434782609
 40
0.6739130434782609
 40
0.6956521739130435
 40
0.6956521739130435
 40
0.6956521739130435
 40
0.6956521739130435
 40
0.717391304347826
 40
0.717391304347826
 40
0.717391304347826
 40
0.717391304347826
 40
0.7391304347826086
 40
0.7391304347826086
 40
0.7391304347826086
 40
0.7391304347826086
 40
0.7608695652173914
 40
0.7608695652173914
 40
0.7608695652173914
 40
0.7608695652173914
 40
0.782608695652174
 40
0.782608695652174
 40
0.782608695652174
 40
0.782608695652174
 40
0.8043478260869565
 40
0.8043478260869565
 40
0.8043478260869565
 40
0.8043478260869565
 40
0.8260869565217391
 40
0.8260869565217391
 40
0.8260869565217391
 40
0.8260869565217391
 40
0.8478260869565217
 40
0.8478260869565217
 40
0.8478260869565217
 40
0.8478260869565217
 40
0.8695652173913043
 40
0.8695652173913043
 40
0.8695652173913043
 40
0.8695652173913043
 40
0.8913043478260869
 40
0.8913043478260869
 40
0.8913043478260869
 40
0.8913043478260869
 40
0.9130434782608695
 40
0.9130434782608695
 40
0.9130434782608695
 40
0.9130434782608695
 40
0.9347826086956522
 40
0.9347826086956522
 40
0.9347826086956522
 40
0.9347826086956522
 40
0.9565217391304348
 40
0.9565217391304348
 40
0.9565217391304348
 40
0.9565217391304348
 40
1.0
 40
1.0
 40
1.0
 40
1.0
 10
-8.97982
 20
-7.41479
 30
0.0
 10
-8.97665
 20
-7.40837
 30
0.0
 10
-8.97229
 20
-7.40294
 30
0.0
 10
-8.96713
 20
-7.39862
 30
0.0
 10
-8.96713
 20
-7.39862
 30
0.0
 10
-8.95751
 20
-7.3831
 30
0.0
 10
-8.93969
 20
-7.37346
 30
0.0
 10
-8.92027
 20
-7.37521
 30
0.0
 10
-8.92027
 20
-7.37521
 30
0.0
 10
-8.89288
 20
-7.37768
 30
0.0
 10
-8.87268
 20
-7.40192
 30
0.0
 10
-8.87515
 20
-7.42931
 30
0.0
 10
-8.87515
 20
-7.42931
 30
0.0
 10
-8.87749
 20
-7.45463
 30
0.0
 10
-8.87593
 20
-7.493
 30
0.0
 10
-8.87424
 20
-7.53479
 30
0.0
 10
-8.87424
 20
-7.53479
 30
0.0
 10
-8.87
 20
-7.63923
 30
0.0
 10
-8.86498
 20
-7.76276
 30
0.0
 10
-8.91588
 20
-7.8269
 30
0.0
 10
-8.91588
 20
-7.8269
 30
0.0
 10
-8.97955
 20
-7.90712
 30
0.0
 10
-9.02843
 20
-7.89783
 30
0.0
 10
-9.06552
 20
-7.84919
 30
0.0
 10
-9.06552
 20
-7.84919
 30
0.0
 10
-9.07817
 20
-7.92637
 30
0.0
 10
-9.11033
 20
-7.9926
 30
0.0
 10
-9.20138
 20
-8.00748
 30
0.0
 10
-9.20138
 20
-8.00748
 30
0.0
 10
-9.2648
 20
-8.01785
 30
0.0
 10
-9.30794
 20
-7.98705
 30
0.0
 10
-9.33737
 20
-7.93927
 30
0.0
 10
-9.33737
 20
-7.93927
 30
0.0
 10
-9.35969
 20
-8.02837
 30
0.0
 10
-9.40681
 20
-8.10121
 30
0.0
 10
-9.53922
 20
-8.11956
 30
0.0
 10
-9.53922
 20
-8.11956
 30
0.0
 10
-9.5569
 20
-8.122
 30
0.0
 10
-9.57405
 20
-8.12198
 30
0.0
 10
-9.5906
 20
-8.11975
 30
0.0
 10
-9.5906
 20
-8.11975
 30
0.0
 10
-9.65135
 20
-8.1116
 30
0.0
 10
-9.70032
 20
-8.07473
 30
0.0
 10
-9.73579
 20
-8.02381
 30
0.0
 10
-9.73579
 20
-8.02381
 30
0.0
 10
-9.74376
 20
-8.01236
 30
0.0
 10
-9.75107
 20
-8.00015
 30
0.0
 10
-9.75766
 20
-7.98737
 30
0.0
 10
-9.75766
 20
-7.98737
 30
0.0
 10
-9.79353
 20
-8.05811
 30
0.0
 10
-9.84771
 20
-8.11103
 30
0.0
 10
-9.93036
 20
-8.12147
 30
0.0
 10
-9.93036
 20
-8.12147
 30
0.0
 10
-9.96604
 20
-8.12598
 30
0.0
 10
-10.0079
 20
-8.11695
 30
0.0
 10
-10.04578
 20
-8.10036
 30
0.0
 10
-10.04578
 20
-8.10036
 30
0.0
 10
-10.08487
 20
-8.08324
 30
0.0
 10
-10.1218
 20
-8.05724
 30
0.0
 10
-10.14441
 20
-8.02945
 30
0.0
 10
-10.14441
 20
-8.02945
 30
0.0
 10
-10.14643
 20
-8.02697
 30
0.0
 10
-10.14837
 20
-8.02447
 30
0.0
 10
-10.15021
 20
-8.02194
 30
0.0
 10
-10.15021
 20
-8.02194
 30
0.0
 10
-10.16808
 20
-8.04801
 30
0.0
 10
-10.19225
 20
-8.06733
 30
0.0
 10
-10.21975
 20
-8.08089
 30
0.0
 10
-10.21975
 20
-8.08089
 30
0.0
 10
-10.26264
 20
-8.10204
 30
0.0
 10
-10.31372
 20
-8.1084
 30
0.0
 10
-10.35975
 20
-8.10429
 30
0.0
 10
-10.35975
 20
-8.10429
 30
0.0
 10
-10.46198
 20
-8.09519
 30
0.0
 10
-10.52197
 20
-8.03337
 30
0.0
 10
-10.55696
 20
-7.95427
 30
0.0
 10
-10.55696
 20
-7.95427
 30
0.0
 10
-10.55964
 20
-7.94821
 30
0.0
 10
-10.56217
 20
-7.94205
 30
0.0
 10
-10.56454
 20
-7.9358
 30
0.0
 10
-10.56454
 20
-7.9358
 30
0.0
 10
-10.59723
 20
-7.98204
 30
0.0
 10
-10.65463
 20
-8.00272
 30
0.0
 10
-10.77128
 20
-7.9714
 30
0.0
 10
-10.77128
 20
-7.9714
 30
0.0
 10
-10.86447
 20
-7.94638
 30
0.0
 10
-10.90766
 20
-7.89485
 30
0.0
 10
-10.92745
 20
-7.83204
 30
0.0
 10
-10.92745
 20
-7.83204
 30
0.0
 10
-10.94708
 20
-7.84221
 30
0.0
 10
-10.97183
 20
-7.84818
 30
0.0
 10
-11.00325
 20
-7.8484
 30
0.0
 10
-11.00325
 20
-7.8484
 30
0.0
 10
-11.01398
 20
-7.84847
 30
0.0
 10
-11.02385
 20
-7.84769
 30
0.0
 10
-11.03285
 20
-7.84618
 30
0.0
 10
-11.03285
 20
-7.84618
 30
0.0
 10
-11.09214
 20
-7.8361
 30
0.0
 10
-11.12858
 20
-7.79816
 30
0.0
 10
-11.14989
 20
-7.74741
 30
0.0
 10
-11.14989
 20
-7.74741
 30
0.0
 10
-11.1676
 20
-7.70523
 30
0.0
 10
-11.17375
 20
-7.65367
 30
0.0
 10
-11.17407
 20
-7.60439
 30
0.0
 10
-11.17407
 20
-7.60439
 30
0.0
 10
-11.17436
 20
-7.56008
 30
0.0
 10
-11.17
 20
-7.51777
 30
0.0
 10
-11.16536
 20
-7.48671
 30
0.0
 10
-11.16536
 20
-7.48671
 30
0.0
 10
-11.18419
 20
-7.46593
 30
0.0
 10
-11.2012
 20
-7.44329
 30
0.0
 10
-11.21597
 20
-7.41852
 30
0.0
 10
-11.21597
 20
-7.41852
 30
0.0
 10
-11.21597
 20
-7.41852
 30
0.0
 10
-11.21611
 20
-7.41828
 30
0.0
 10
-11.21611
 20
-7.41828
 30
0.0
 10
-11.21611
 20
-7.41828
 30
0.0
 10
-11.21611
 20
-7.41828
 30
0.0
 10
-11.21617
 20
-7.41832
 30
0.0
 10
-11.21617
 20
-7.41832
 30
0.0
 10
-11.21617
 20
-7.41832
 30
0.0
 10
-11.23171
 20
-7.39216
 30
0.0
 10
-11.24364
 20
-7.36569
 30
0.0
 10
-11.25559
 20
-7.33914
 30
0.0
 10
-11.25559
 20
-7.33914
 30
0.0
 10
-11.25599
 20
-7.33826
 30
0.0
 10
-11.25636
 20
-7.33736
 30
0.0
 10
-11.2567
 20
-7.33647
 30
0.0
 10
-11.2567
 20
-7.33647
 30
0.0
 10
-11.2567
 20
-7.33647
 30
0.0
 10
-11.25787
 20
-7.33387
 30
0.0
 10
-11.25787
 20
-7.33387
 30
0.0
 10
-11.25787
 20
-7.33387
 30
0.0
 10
-11.26908
 20
-7.30874
 30
0.0
 10
-11.2578
 20
-7.27926
 30
0.0
 10
-11.23267
 20
-7.26805
 30
0.0
 10
-11.23267
 20
-7.26805
 30
0.0
 10
-11.20754
 20
-7.25684
 30
0.0
 10
-11.17806
 20
-7.26812
 30
0.0
 10
-11.16685
 20
-7.29325
 30
0.0
 10
-11.16685
 20
-7.29325
 30
0.0
 10
-11.16685
 20
-7.29325
 30
0.0
 10
-11.1658
 20
-7.29558
 30
0.0
 10
-11.1658
 20
-7.29558
 30
0.0
 10
-11.1658
 20
-7.29558
 30
0.0
 10
-11.1658
 20
-7.29558
 30
0.0
 10
-11.16457
 20
-7.29812
 30
0.0
 10
-11.16457
 20
-7.29812
 30
0.0
 10
-11.16457
 20
-7.29812
 30
0.0
 10
-11.15375
 20
-7.32216
 30
0.0
 10
-11.14295
 20
-7.34613
 30
0.0
 10
-11.13023
 20
-7.36754
 30
0.0
 10
-11.13023
 20
-7.36754
 30
0.0
 10
-11.13023
 20
-7.36754
 30
0.0
 10
-11.13029
 20
-7.36757
 30
0.0
 10
-11.13029
 20
-7.36757
 30
0.0
 10
-11.13029
 20
-7.36757
 30
0.0
 10
-11.09706
 20
-7.42317
 30
0.0
 10
-11.04757
 20
-7.46612
 30
0.0
 10
-10.99053
 20
-7.50061
 30
0.0
 10
-10.99053
 20
-7.50061
 30
0.0
 10
-10.93047
 20
-7.53693
 30
0.0
 10
-10.86225
 20
-7.56395
 30
0.0
 10
-10.79517
 20
-7.58643
 30
0.0
 10
-10.79517
 20
-7.58643
 30
0.0
 10
-10.57089
 20
-7.66157
 30
0.0
 10
-10.3363
 20
-7.70572
 30
0.0
 10
-10.10003
 20
-7.71837
 30
0.0
 10
-10.10003
 20
-7.71837
 30
0.0
 10
-9.86386
 20
-7.73103
 30
0.0
 10
-9.62578
 20
-7.71217
 30
0.0
 10
-9.39437
 20
-7.66134
 30
0.0
 10
-9.39437
 20
-7.66134
 30
0.0
 10
-9.30959
 20
-7.64275
 30
0.0
 10
-9.2219
 20
-7.61643
 30
0.0
 10
-9.14678
 20
-7.5759
 30
0.0
 10
-9.14678
 20
-7.5759
 30
0.0
 10
-9.07524
 20
-7.53729
 30
0.0
 10
-9.01485
 20
-7.48554
 30
0.0
 10
-8.97982
 20
-7.41479
 30
0.0
  0
SPLINE
  5
43
330
1F
100
AcDbEntity
  8
Layer 1
 62
     5
100
AcDbSpline
210
0.0
220
0.0
230
1.0
 70
    11
 71
     3
 72
    84
 73
    80
 74
     0
 42
0.0000000001
 43
0.0000000001
 12
1.0
 22
0.0
 32
0.0
 13
1.0
 23
0.0
 33
0.0
 40
0.0
 40
0.0
 40
0.0
 40
0.0
 40
0.0476190476190476
 40
0.0476190476190476
 40
0.0476190476190476
 40
0.0476190476190476
 40
0.0952380952380952
 40
0.0952380952380952
 40
0.0952380952380952
 40
0.0952380952380952
 40
0.1428571428571428
 40
0.1428571428571428
 40
0.1428571428571428
 40
0.1428571428571428
 40
0.1904761904761905
 40
0.1904761904761905
 40
0.1904761904761905
 40
0.1904761904761905
 40
0.2380952380952381
 40
0.2380952380952381
 40
0.2380952380952381
 40
0.2380952380952381
 40
0.2857142857142857
 40
0.2857142857142857
 40
0.2857142857142857
 40
0.2857142857142857
 40
0.3333333333333333
 40
0.3333333333333333
 40
0.3333333333333333
 40
0.3333333333333333
 40
0.3809523809523809
 40
0.3809523809523809
 40
0.3809523809523809
 40
0.3809523809523809
 40
0.4285714285714285
 40
0.4285714285714285
 40
0.4285714285714285
 40
0.4285714285714285
 40
0.4761904761904762
 40
0.4761904761904762
 40
0.4761904761904762
 40
0.4761904761904762
 40
0.5238095238095238
 40
0.5238095238095238
 40
0.5238095238095238
 40
0.5238095238095238
 40
0.5714285714285714
 40
0.5714285714285714
 40
0.5714285714285714
 40
0.5714285714285714
 40
0.6190476190476191
 40
0.6190476190476191
 40
0.6190476190476191
 40
0.6190476190476191
 40
0.6666666666666666
 40
0.6666666666666666
 40
0.6666666666666666
 40
0.6666666666666666
 40
0.7142857142857143
 40
0.7142857142857143
 40
0.7142857142857143
 40
0.7142857142857143
 40
0.7619047619047619
 40
0.7619047619047619
 40
0.7619047619047619
 40
0.7619047619047619
 40
0.8095238095238095
 40
0.8095238095238095
 40
0.8095238095238095
 40
0.8095238095238095
 40
0.8571428571428571
 40
0.8571428571428571
 40
0.8571428571428571
 40
0.8571428571428571
 40
0.9047619047619048
 40
0.9047619047619048
 40
0.9047619047619048
 40
0.9047619047619048
 40
1.0
 40
1.0
 40
1.0
 40
1.0
 10
-10.0022
 20
-7.51394
 30
0.0
 10
-10.00594
 20
-7.52998
 30
0.0
 10
-10.01152
 20
-7.54381
 30
0.0
 10
-10.02073
 20
-7.55654
 30
0.0
 10
-10.02073
 20
-7.55654
 30
0.0
 10
-10.0293
 20
-7.56839
 30
0.0
 10
-10.04035
 20
-7.57815
 30
0.0
 10
-10.05507
 20
-7.58636
 30
0.0
 10
-10.05507
 20
-7.58636
 30
0.0
 10
-10.06696
 20
-7.593
 30
0.0
 10
-10.08063
 20
-7.5983
 30
0.0
 10
-10.09699
 20
-7.60274
 30
0.0
 10
-10.09699
 20
-7.60274
 30
0.0
 10
-10.09699
 20
-7.60274
 30
0.0
 10
-10.09704
 20
-7.60256
 30
0.0
 10
-10.09704
 20
-7.60256
 30
0.0
 10
-10.09704
 20
-7.60256
 30
0.0
 10
-10.10218
 20
-7.60397
 30
0.0
 10
-10.10871
 20
-7.60483
 30
0.0
 10
-10.11611
 20
-7.6052
 30
0.0
 10
-10.11611
 20
-7.6052
 30
0.0
 10
-10.13277
 20
-7.60603
 30
0.0
 10
-10.16514
 20
-7.60546
 30
0.0
 10
-10.19298
 20
-7.6034
 30
0.0
 10
-10.19298
 20
-7.6034
 30
0.0
 10
-10.21247
 20
-7.60196
 30
0.0
 10
-10.23128
 20
-7.59866
 30
0.0
 10
-10.24705
 20
-7.593
 30
0.0
 10
-10.24705
 20
-7.593
 30
0.0
 10
-10.26804
 20
-7.59009
 30
0.0
 10
-10.28566
 20
-7.57394
 30
0.0
 10
-10.28941
 20
-7.55194
 30
0.0
 10
-10.28941
 20
-7.55194
 30
0.0
 10
-10.28941
 20
-7.55194
 30
0.0
 10
-10.28947
 20
-7.55159
 30
0.0
 10
-10.28947
 20
-7.55159
 30
0.0
 10
-10.28947
 20
-7.55159
 30
0.0
 10
-10.28947
 20
-7.55159
 30
0.0
 10
-10.28939
 20
-7.55158
 30
0.0
 10
-10.28939
 20
-7.55158
 30
0.0
 10
-10.28939
 20
-7.55158
 30
0.0
 10
-10.28973
 20
-7.5496
 30
0.0
 10
-10.28996
 20
-7.54759
 30
0.0
 10
-10.29005
 20
-7.54553
 30
0.0
 10
-10.29005
 20
-7.54553
 30
0.0
 10
-10.29462
 20
-7.45371
 30
0.0
 10
-10.27838
 20
-7.36067
 30
0.0
 10
-10.24899
 20
-7.27151
 30
0.0
 10
-10.24899
 20
-7.27151
 30
0.0
 10
-10.21537
 20
-7.16952
 30
0.0
 10
-10.16417
 20
-7.07182
 30
0.0
 10
-10.10733
 20
-6.9867
 30
0.0
 10
-10.10733
 20
-6.9867
 30
0.0
 10
-10.10733
 20
-6.9867
 30
0.0
 10
-10.10732
 20
-6.98671
 30
0.0
 10
-10.10732
 20
-6.98671
 30
0.0
 10
-10.10732
 20
-6.98671
 30
0.0
 10
-10.09819
 20
-6.97311
 30
0.0
 10
-10.08254
 20
-6.96428
 30
0.0
 10
-10.06494
 20
-6.96463
 30
0.0
 10
-10.06494
 20
-6.96463
 30
0.0
 10
-10.03744
 20
-6.96517
 30
0.0
 10
-10.01558
 20
-6.98791
 30
0.0
 10
-10.01612
 20
-7.01541
 30
0.0
 10
-10.01612
 20
-7.01541
 30
0.0
 10
-10.01751
 20
-7.07633
 30
0.0
 10
-10.01092
 20
-7.14154
 30
0.0
 10
-10.00432
 20
-7.20684
 30
0.0
 10
-10.00432
 20
-7.20684
 30
0.0
 10
-9.99529
 20
-7.29623
 30
0.0
 10
-9.98623
 20
-7.38586
 30
0.0
 10
-9.99599
 20
-7.47303
 30
0.0
 10
-9.99599
 20
-7.47303
 30
0.0
 10
-9.99758
 20
-7.48737
 30
0.0
 10
-9.99913
 20
-7.49972
 30
0.0
 10
-10.00167
 20
-7.51138
 30
0.0
 10
-10.00167
 20
-7.51138
 30
0.0
 10
-10.00167
 20
-7.51138
 30
0.0
 10
-10.0022
 20
-7.51394
 30
0.0
 10
-10.0022
 20
-7.51394
 30
0.0
  0
SPLINE
  5
44
330
1F
100
AcDbEntity
  8
Layer 1
 62
     5
100
AcDbSpline
210
0.0
220
0.0
230
1.0
 70
    11
 71
     3
 72
    92
 73
    88
 74
     0
 42
0.0000000001
 43
0.0000000001
 12
1.0
 22
0.0
 32
0.0
 13
1.0
 23
0.0
 33
0.0
 40
0.0
 40
0.0
 40
0.0
 40
0.0
 40
0.0434782608695652
 40
0.0434782608695652
 40
0.0434782608695652
 40
0.0434782608695652
 40
0.0869565217391304
 40
0.0869565217391304
 40
0.0869565217391304
 40
0.0869565217391304
 40
0.1304347826086956
 40
0.1304347826086956
 40
0.1304347826086956
 40
0.1304347826086956
 40
0.1739130434782609
 40
0.1739130434782609
 40
0.1739130434782609
 40
0.1739130434782609
 40
0.2173913043478261
 40
0.2173913043478261
 40
0.2173913043478261
 40
0.2173913043478261
 40
0.2608695652173913
 40
0.2608695652173913
 40
0.2608695652173913
 40
0.2608695652173913
 40
0.3043478260869565
 40
0.3043478260869565
 40
0.3043478260869565
 40
0.3043478260869565
 40
0.3478260869565217
 40
0.3478260869565217
 40
0.3478260869565217
 40
0.3478260869565217
 40
0.391304347826087
 40
0.391304347826087
 40
0.391304347826087
 40
0.391304347826087
 40
0.4347826086956522
 40
0.4347826086956522
 40
0.4347826086956522
 40
0.4347826086956522
 40
0.4782608695652174
 40
0.4782608695652174
 40
0.4782608695652174
 40
0.4782608695652174
 40
0.5217391304347826
 40
0.5217391304347826
 40
0.5217391304347826
 40
0.5217391304347826
 40
0.5652173913043478
 40
0.5652173913043478
 40
0.5652173913043478
 40
0.5652173913043478
 40
0.6086956521739131
 40
0.6086956521739131
 40
0.6086956521739131
 40
0.6086956521739131
 40
0.6521739130434783
 40
0.6521739130434783
 40
0.6521739130434783
 40
0.6521739130434783
 40
0.6956521739130435
 40
0.6956521739130435
 40
0.6956521739130435
 40
0.6956521739130435
 40
0.7391304347826086
 40
0.7391304347826086
 40
0.7391304347826086
 40
0.7391304347826086
 40
0.782608695652174
 40
0.782608695652174
 40
0.782608695652174
 40
0.782608695652174
 40
0.8260869565217391
 40
0.8260869565217391
 40
0.8260869565217391
 40
0.8260869565217391
 40
0.8695652173913043
 40
0.8695652173913043
 40
0.8695652173913043
 40
0.8695652173913043
 40
0.9130434782608695
 40
0.9130434782608695
 40
0.9130434782608695
 40
0.9130434782608695
 40
1.0
 40
1.0
 40
1.0
 40
1.0
 10
-9.95045
 20
-7.55654
 30
0.0
 10
-9.95959
 20
-7.5439
 30
0.0
 10
-9.96516
 20
-7.53006
 30
0.0
 10
-9.96892
 20
-7.51393
 30
0.0
 10
-9.96892
 20
-7.51393
 30
0.0
 10
-9.96892
 20
-7.51393
 30
0.0
 10
-9.96896
 20
-7.51394
 30
0.0
 10
-9.96896
 20
-7.51394
 30
0.0
 10
-9.96896
 20
-7.51394
 30
0.0
 10
-9.9718
 20
-7.50174
 30
0.0
 10
-9.97345
 20
-7.48856
 30
0.0
 10
-9.97517
 20
-7.47303
 30
0.0
 10
-9.97517
 20
-7.47303
 30
0.0
 10
-9.98493
 20
-7.38586
 30
0.0
 10
-9.97588
 20
-7.29622
 30
0.0
 10
-9.96684
 20
-7.20682
 30
0.0
 10
-9.96684
 20
-7.20682
 30
0.0
 10
-9.96025
 20
-7.14153
 30
0.0
 10
-9.95366
 20
-7.07632
 30
0.0
 10
-9.95505
 20
-7.01541
 30
0.0
 10
-9.95505
 20
-7.01541
 30
0.0
 10
-9.95559
 20
-6.98791
 30
0.0
 10
-9.93373
 20
-6.96517
 30
0.0
 10
-9.90623
 20
-6.96463
 30
0.0
 10
-9.90623
 20
-6.96463
 30
0.0
 10
-9.88863
 20
-6.96428
 30
0.0
 10
-9.87298
 20
-6.97311
 30
0.0
 10
-9.86385
 20
-6.98671
 30
0.0
 10
-9.86385
 20
-6.98671
 30
0.0
 10
-9.86385
 20
-6.98671
 30
0.0
 10
-9.86384
 20
-6.9867
 30
0.0
 10
-9.86384
 20
-6.9867
 30
0.0
 10
-9.86384
 20
-6.9867
 30
0.0
 10
-9.807
 20
-7.07182
 30
0.0
 10
-9.7558
 20
-7.16951
 30
0.0
 10
-9.72218
 20
-7.2715
 30
0.0
 10
-9.72218
 20
-7.2715
 30
0.0
 10
-9.69279
 20
-7.36066
 30
0.0
 10
-9.67655
 20
-7.4537
 30
0.0
 10
-9.68112
 20
-7.54553
 30
0.0
 10
-9.68112
 20
-7.54553
 30
0.0
 10
-9.68121
 20
-7.54759
 30
0.0
 10
-9.68144
 20
-7.5496
 30
0.0
 10
-9.68178
 20
-7.55158
 30
0.0
 10
-9.68178
 20
-7.55158
 30
0.0
 10
-9.68178
 20
-7.55158
 30
0.0
 10
-9.6817
 20
-7.55159
 30
0.0
 10
-9.6817
 20
-7.55159
 30
0.0
 10
-9.6817
 20
-7.55159
 30
0.0
 10
-9.6817
 20
-7.55159
 30
0.0
 10
-9.68176
 20
-7.55194
 30
0.0
 10
-9.68176
 20
-7.55194
 30
0.0
 10
-9.68176
 20
-7.55194
 30
0.0
 10
-9.68203
 20
-7.55353
 30
0.0
 10
-9.68237
 20
-7.55509
 30
0.0
 10
-9.68279
 20
-7.55662
 30
0.0
 10
-9.68279
 20
-7.55662
 30
0.0
 10
-9.68279
 20
-7.55662
 30
0.0
 10
-9.68274
 20
-7.55663
 30
0.0
 10
-9.68274
 20
-7.55663
 30
0.0
 10
-9.68274
 20
-7.55663
 30
0.0
 10
-9.68307
 20
-7.55783
 30
0.0
 10
-9.68345
 20
-7.55901
 30
0.0
 10
-9.68388
 20
-7.56015
 30
0.0
 10
-9.68388
 20
-7.56015
 30
0.0
 10
-9.69009
 20
-7.57784
 30
0.0
 10
-9.70574
 20
-7.59039
 30
0.0
 10
-9.72395
 20
-7.59298
 30
0.0
 10
-9.72395
 20
-7.59298
 30
0.0
 10
-9.73973
 20
-7.59864
 30
0.0
 10
-9.75855
 20
-7.60194
 30
0.0
 10
-9.77806
 20
-7.60339
 30
0.0
 10
-9.77806
 20
-7.60339
 30
0.0
 10
-9.80583
 20
-7.60545
 30
0.0
 10
-9.83816
 20
-7.60603
 30
0.0
 10
-9.85491
 20
-7.6052
 30
0.0
 10
-9.85491
 20
-7.6052
 30
0.0
 10
-9.86292
 20
-7.60481
 30
0.0
 10
-9.86958
 20
-7.60399
 30
0.0
 10
-9.87418
 20
-7.60274
 30
0.0
 10
-9.87418
 20
-7.60274
 30
0.0
 10
-9.89055
 20
-7.5983
 30
0.0
 10
-9.90422
 20
-7.593
 30
0.0
 10
-9.91609
 20
-7.58636
 30
0.0
 10
-9.91609
 20
-7.58636
 30
0.0
 10
-9.9308
 20
-7.57816
 30
0.0
 10
-9.94187
 20
-7.56841
 30
0.0
 10
-9.95045
 20
-7.55654
 30
0.0
  0
SPLINE
  5
45
330
1F
100
AcDbEntity
  8
Layer 1
 62
     5
100
AcDbSpline
210
0.0
220
0.0
230
1.0
 70
    11
 71
     3
 72
   132
 73
   128
 74
     0
 42
0.0000000001
 43
0.0000000001
 12
1.0
 22
0.0
 32
0.0
 13
1.0
 23
0.0
 33
0.0
 40
0.0
 40
0.0
 40
0.0
 40
0.0
 40
0.0303030303030303
 40
0.0303030303030303
 40
0.0303030303030303
 40
0.0303030303030303
 40
0.0606060606060606
 40
0.0606060606060606
 40
0.0606060606060606
 40
0.0606060606060606
 40
0.0909090909090909
 40
0.0909090909090909
 40
0.0909090909090909
 40
0.0909090909090909
 40
0.1212121212121212
 40
0.1212121212121212
 40
0.1212121212121212
 40
0.1212121212121212
 40
0.1515151515151515
 40
0.1515151515151515
 40
0.1515151515151515
 40
0.1515151515151515
 40
0.1818181818181818
 40
0.1818181818181818
 40
0.1818181818181818
 40
0.1818181818181818
 40
0.2121212121212121
 40
0.2121212121212121
 40
0.2121212121212121
 40
0.2121212121212121
 40
0.2424242424242424
 40
0.2424242424242424
 40
0.2424242424242424
 40
0.2424242424242424
 40
0.2727272727272727
 40
0.2727272727272727
 40
0.2727272727272727
 40
0.2727272727272727
 40
0.303030303030303
 40
0.303030303030303
 40
0.303030303030303
 40
0.303030303030303
 40
0.3333333333333333
 40
0.3333333333333333
 40
0.3333333333333333
 40
0.3333333333333333
 40
0.3636363636363636
 40
0.3636363636363636
 40
0.3636363636363636
 40
0.3636363636363636
 40
0.3939393939393939
 40
0.3939393939393939
 40
0.3939393939393939
 40
0.3939393939393939
 40
0.4242424242424243
 40
0.4242424242424243
 40
0.4242424242424243
 40
0.4242424242424243
 40
0.4545454545454545
 40
0.4545454545454545
 40
0.4545454545454545
 40
0.4545454545454545
 40
0.4848484848484849
 40
0.4848484848484849
 40
0.4848484848484849
 40
0.4848484848484849
 40
0.5151515151515151
 40
0.5151515151515151
 40
0.5151515151515151
 40
0.5151515151515151
 40
0.5454545454545454
 40
0.5454545454545454
 40
0.5454545454545454
 40
0.5454545454545454
 40
0.5757575757575758
 40
0.5757575757575758
 40
0.5757575757575758
 40
0.5757575757575758
 40
0.6060606060606061
 40
0.6060606060606061
 40
0.6060606060606061
 40
0.6060606060606061
 40
0.6363636363636364
 40
0.6363636363636364
 40
0.6363636363636364
 40
0.6363636363636364
 40
0.6666666666666666
 40
0.6666666666666666
 40
0.6666666666666666
 40
0.6666666666666666
 40
0.696969696969697
 40
0.696969696969697
 40
0.696969696969697
 40
0.696969696969697
 40
0.7272727272727273
 40
0.7272727272727273
 40
0.7272727272727273
 40
0.7272727272727273
 40
0.7575757575757576
 40
0.7575757575757576
 40
0.7575757575757576
 40
0.7575757575757576
 40
0.7878787878787878
 40
0.7878787878787878
 40
0.7878787878787878
 40
0.7878787878787878
 40
0.8181818181818182
 40
0.8181818181818182
 40
0.8181818181818182
 40
0.8181818181818182
 40
0.8484848484848485
 40
0.8484848484848485
 40
0.8484848484848485
 40
0.8484848484848485
 40
0.8787878787878788
 40
0.8787878787878788
 40
0.8787878787878788
 40
0.8787878787878788
 40
0.9090909090909091
 40
0.9090909090909091
 40
0.9090909090909091
 40
0.9090909090909091
 40
0.9393939393939394
 40
0.9393939393939394
 40
0.9393939393939394
 40
0.9393939393939394
 40
1.0
 40
1.0
 40
1.0
 40
1.0
 10
-10.54127
 20
-6.386
 30
0.0
 10
-10.49442
 20
-6.40075
 30
0.0
 10
-10.44873
 20
-6.41621
 30
0.0
 10
-10.40294
 20
-6.43171
 30
0.0
 10
-10.40294
 20
-6.43171
 30
0.0
 10
-10.28343
 20
-6.47215
 30
0.0
 10
-10.16305
 20
-6.51289
 30
0.0
 10
-10.04425
 20
-6.53465
 30
0.0
 10
-10.04425
 20
-6.53465
 30
0.0
 10
-10.01999
 20
-6.53909
 30
0.0
 10
-10.00309
 20
-6.56041
 30
0.0
 10
-10.0034
 20
-6.58428
 30
0.0
 10
-10.0034
 20
-6.58428
 30
0.0
 10
-10.00224
 20
-6.65295
 30
0.0
 10
-10.03169
 20
-6.72235
 30
0.0
 10
-10.0745
 20
-6.78629
 30
0.0
 10
-10.0745
 20
-6.78629
 30
0.0
 10
-10.13172
 20
-6.87175
 30
0.0
 10
-10.21308
 20
-6.94838
 30
0.0
 10
-10.27293
 20
-6.99786
 30
0.0
 10
-10.27293
 20
-6.99786
 30
0.0
 10
-10.33912
 20
-7.05259
 30
0.0
 10
-10.41497
 20
-7.09566
 30
0.0
 10
-10.49628
 20
-7.12174
 30
0.0
 10
-10.49628
 20
-7.12174
 30
0.0
 10
-10.57312
 20
-7.1464
 30
0.0
 10
-10.65451
 20
-7.15586
 30
0.0
 10
-10.73687
 20
-7.14571
 30
0.0
 10
-10.73687
 20
-7.14571
 30
0.0
 10
-10.79593
 20
-7.13845
 30
0.0
 10
-10.85488
 20
-7.1306
 30
0.0
 10
-10.91427
 20
-7.11689
 30
0.0
 10
-10.91427
 20
-7.11689
 30
0.0
 10
-10.97457
 20
-7.10297
 30
0.0
 10
-11.03372
 20
-7.08313
 30
0.0
 10
-11.0908
 20
-7.05207
 30
0.0
 10
-11.0908
 20
-7.05207
 30
0.0
 10
-11.13159
 20
-7.02987
 30
0.0
 10
-11.1732
 20
-7.00299
 30
0.0
 10
-11.21277
 20
-6.97407
 30
0.0
 10
-11.21277
 20
-6.97407
 30
0.0
 10
-11.25457
 20
-6.94352
 30
0.0
 10
-11.29459
 20
-6.91041
 30
0.0
 10
-11.32943
 20
-6.87787
 30
0.0
 10
-11.32943
 20
-6.87787
 30
0.0
 10
-11.38038
 20
-6.8303
 30
0.0
 10
-11.42243
 20
-6.77511
 30
0.0
 10
-11.456
 20
-6.71528
 30
0.0
 10
-11.456
 20
-6.71528
 30
0.0
 10
-11.49154
 20
-6.65197
 30
0.0
 10
-11.51772
 20
-6.58323
 30
0.0
 10
-11.53505
 20
-6.5127
 30
0.0
 10
-11.53505
 20
-6.5127
 30
0.0
 10
-11.54822
 20
-6.45915
 30
0.0
 10
-11.55292
 20
-6.40695
 30
0.0
 10
-11.55768
 20
-6.35394
 30
0.0
 10
-11.55768
 20
-6.35394
 30
0.0
 10
-11.55868
 20
-6.34273
 30
0.0
 10
-11.55967
 20
-6.33173
 30
0.0
 10
-11.56157
 20
-6.31296
 30
0.0
 10
-11.56157
 20
-6.31296
 30
0.0
 10
-11.56695
 20
-6.2596
 30
0.0
 10
-11.56098
 20
-6.21653
 30
0.0
 10
-11.55455
 20
-6.1701
 30
0.0
 10
-11.55455
 20
-6.1701
 30
0.0
 10
-11.55249
 20
-6.15525
 30
0.0
 10
-11.55037
 20
-6.13999
 30
0.0
 10
-11.54864
 20
-6.12401
 30
0.0
 10
-11.54864
 20
-6.12401
 30
0.0
 10
-11.54595
 20
-6.09867
 30
0.0
 10
-11.52472
 20
-6.07979
 30
0.0
 10
-11.49987
 20
-6.0794
 30
0.0
 10
-11.49987
 20
-6.0794
 30
0.0
 10
-11.46523
 20
-6.07778
 30
0.0
 10
-11.41973
 20
-6.09758
 30
0.0
 10
-11.38494
 20
-6.11272
 30
0.0
 10
-11.38494
 20
-6.11272
 30
0.0
 10
-11.37492
 20
-6.11708
 30
0.0
 10
-11.36578
 20
-6.12106
 30
0.0
 10
-11.36206
 20
-6.12249
 30
0.0
 10
-11.36206
 20
-6.12249
 30
0.0
 10
-11.24027
 20
-6.16935
 30
0.0
 10
-11.11397
 20
-6.21202
 30
0.0
 10
-10.98558
 20
-6.25248
 30
0.0
 10
-10.98558
 20
-6.25248
 30
0.0
 10
-10.94802
 20
-6.26432
 30
0.0
 10
-10.91088
 20
-6.27579
 30
0.0
 10
-10.87404
 20
-6.287
 30
0.0
 10
-10.87404
 20
-6.287
 30
0.0
 10
-10.88505
 20
-6.2936
 30
0.0
 10
-10.89353
 20
-6.30442
 30
0.0
 10
-10.89683
 20
-6.31787
 30
0.0
 10
-10.89683
 20
-6.31787
 30
0.0
 10
-10.90102
 20
-6.33488
 30
0.0
 10
-10.90319
 20
-6.35208
 30
0.0
 10
-10.90342
 20
-6.36905
 30
0.0
 10
-10.90342
 20
-6.36905
 30
0.0
 10
-10.90342
 20
-6.36905
 30
0.0
 10
-10.90343
 20
-6.36928
 30
0.0
 10
-10.90343
 20
-6.36928
 30
0.0
 10
-10.90343
 20
-6.36928
 30
0.0
 10
-10.90392
 20
-6.41136
 30
0.0
 10
-10.89199
 20
-6.4503
 30
0.0
 10
-10.8694
 20
-6.48153
 30
0.0
 10
-10.8694
 20
-6.48153
 30
0.0
 10
-10.84628
 20
-6.51349
 30
0.0
 10
-10.81246
 20
-6.53709
 30
0.0
 10
-10.7698
 20
-6.54763
 30
0.0
 10
-10.7698
 20
-6.54763
 30
0.0
 10
-10.75536
 20
-6.5512
 30
0.0
 10
-10.73962
 20
-6.55318
 30
0.0
 10
-10.7227
 20
-6.55342
 30
0.0
 10
-10.7227
 20
-6.55342
 30
0.0
 10
-10.7227
 20
-6.55342
 30
0.0
 10
-10.72247
 20
-6.55343
 30
0.0
 10
-10.72247
 20
-6.55343
 30
0.0
 10
-10.72247
 20
-6.55343
 30
0.0
 10
-10.67202
 20
-6.55404
 30
0.0
 10
-10.63494
 20
-6.53848
 30
0.0
 10
-10.60532
 20
-6.51183
 30
0.0
 10
-10.60532
 20
-6.51183
 30
0.0
 10
-10.57854
 20
-6.48773
 30
0.0
 10
-10.56017
 20
-6.45603
 30
0.0
 10
-10.54384
 20
-6.41991
 30
0.0
 10
-10.54384
 20
-6.41991
 30
0.0
 10
-10.53884
 20
-6.40882
 30
0.0
 10
-10.53823
 20
-6.39687
 30
0.0
 10
-10.54127
 20
-6.386
 30
0.0
  0
SPLINE
  5
46
330
1F
100
AcDbEntity
  8
Layer 1
 62
     5
100
AcDbSpline
210
0.0
220
0.0
230
1.0
 70
    11
 71
     3
 72
    52
 73
    48
 74
     0
 42
0.0000000001
 43
0.0000000001
 12
1.0
 22
0.0
 32
0.0
 13
1.0
 23
0.0
 33
0.0
 40
0.0
 40
0.0
 40
0.0
 40
0.0
 40
0.0769230769230769
 40
0.0769230769230769
 40
0.0769230769230769
 40
0.0769230769230769
 40
0.1538461538461539
 40
0.1538461538461539
 40
0.1538461538461539
 40
0.1538461538461539
 40
0.2307692307692308
 40
0.2307692307692308
 40
0.2307692307692308
 40
0.2307692307692308
 40
0.3076923076923077
 40
0.3076923076923077
 40
0.3076923076923077
 40
0.3076923076923077
 40
0.3846153846153846
 40
0.3846153846153846
 40
0.3846153846153846
 40
0.3846153846153846
 40
0.4615384615384616
 40
0.4615384615384616
 40
0.4615384615384616
 40
0.4615384615384616
 40
0.5384615384615384
 40
0.5384615384615384
 40
0.5384615384615384
 40
0.5384615384615384
 40
0.6153846153846154
 40
0.6153846153846154
 40
0.6153846153846154
 40
0.6153846153846154
 40
0.6923076923076923
 40
0.6923076923076923
 40
0.6923076923076923
 40
0.6923076923076923
 40
0.7692307692307693
 40
0.7692307692307693
 40
0.7692307692307693
 40
0.7692307692307693
 40
0.8461538461538461
 40
0.8461538461538461
 40
0.8461538461538461
 40
0.8461538461538461
 40
1.0
 40
1.0
 40
1.0
 40
1.0
 10
-10.69454
 20
-6.34051
 30
0.0
 10
-10.69454
 20
-6.34051
 30
0.0
 10
-10.62208
 20
-6.3617
 30
0.0
 10
-10.62208
 20
-6.3617
 30
0.0
 10
-10.62208
 20
-6.3617
 30
0.0
 10
-10.62738
 20
-6.36629
 30
0.0
 10
-10.63179
 20
-6.37208
 30
0.0
 10
-10.63486
 20
-6.37889
 30
0.0
 10
-10.63486
 20
-6.37889
 30
0.0
 10
-10.6461
 20
-6.40375
 30
0.0
 10
-10.65773
 20
-6.42466
 30
0.0
 10
-10.67212
 20
-6.43761
 30
0.0
 10
-10.67212
 20
-6.43761
 30
0.0
 10
-10.68369
 20
-6.44802
 30
0.0
 10
-10.69914
 20
-6.45409
 30
0.0
 10
-10.72129
 20
-6.45383
 30
0.0
 10
-10.72129
 20
-6.45383
 30
0.0
 10
-10.72129
 20
-6.45383
 30
0.0
 10
-10.72149
 20
-6.45383
 30
0.0
 10
-10.72149
 20
-6.45383
 30
0.0
 10
-10.72149
 20
-6.45383
 30
0.0
 10
-10.72149
 20
-6.45383
 30
0.0
 10
-10.72189
 20
-6.45383
 30
0.0
 10
-10.72189
 20
-6.45383
 30
0.0
 10
-10.72189
 20
-6.45383
 30
0.0
 10
-10.73028
 20
-6.45371
 30
0.0
 10
-10.73835
 20
-6.45263
 30
0.0
 10
-10.74598
 20
-6.45075
 30
0.0
 10
-10.74598
 20
-6.45075
 30
0.0
 10
-10.7477
 20
-6.45033
 30
0.0
 10
-10.74938
 20
-6.44985
 30
0.0
 10
-10.75103
 20
-6.44934
 30
0.0
 10
-10.75103
 20
-6.44934
 30
0.0
 10
-10.73541
 20
-6.44479
 30
0.0
 10
-10.72135
 20
-6.43597
 30
0.0
 10
-10.7102
 20
-6.42424
 30
0.0
 10
-10.7102
 20
-6.42424
 30
0.0
 10
-10.69946
 20
-6.41293
 30
0.0
 10
-10.69126
 20
-6.39872
 30
0.0
 10
-10.68691
 20
-6.38297
 30
0.0
 10
-10.68691
 20
-6.38297
 30
0.0
 10
-10.68691
 20
-6.38297
 30
0.0
 10
-10.68692
 20
-6.38297
 30
0.0
 10
-10.68692
 20
-6.38297
 30
0.0
 10
-10.68692
 20
-6.38297
 30
0.0
 10
-10.68276
 20
-6.36796
 30
0.0
 10
-10.68596
 20
-6.35243
 30
0.0
 10
-10.69454
 20
-6.34051
 30
0.0
  0
SPLINE
  5
47
330
1F
100
AcDbEntity
  8
Layer 1
 62
     5
100
AcDbSpline
210
0.0
220
0.0
230
1.0
 70
    11
 71
     3
 72
    80
 73
    76
 74
     0
 42
0.0000000001
 43
0.0000000001
 12
1.0
 22
0.0
 32
0.0
 13
1.0
 23
0.0
 33
0.0
 40
0.0
 40
0.0
 40
0.0
 40
0.0
 40
0.05
 40
0.05
 40
0.05
 40
0.05
 40
0.1
 40
0.1
 40
0.1
 40
0.1
 40
0.15
 40
0.15
 40
0.15
 40
0.15
 40
0.2
 40
0.2
 40
0.2
 40
0.2
 40
0.25
 40
0.25
 40
0.25
 40
0.25
 40
0.3
 40
0.3
 40
0.3
 40
0.3
 40
0.35
 40
0.35
 40
0.35
 40
0.35
 40
0.4
 40
0.4
 40
0.4
 40
0.4
 40
0.45
 40
0.45
 40
0.45
 40
0.45
 40
0.5
 40
0.5
 40
0.5
 40
0.5
 40
0.55
 40
0.55
 40
0.55
 40
0.55
 40
0.6
 40
0.6
 40
0.6
 40
0.6
 40
0.65
 40
0.65
 40
0.65
 40
0.65
 40
0.7
 40
0.7
 40
0.7
 40
0.7
 40
0.75
 40
0.75
 40
0.75
 40
0.75
 40
0.8
 40
0.8
 40
0.8
 40
0.8
 40
0.85
 40
0.85
 40
0.85
 40
0.85
 40
0.9
 40
0.9
 40
0.9
 40
0.9
 40
1.0
 40
1.0
 40
1.0
 40
1.0
 10
-8.24192
 20
-6.65201
 30
0.0
 10
-8.24192
 20
-6.67951
 30
0.0
 10
-8.26422
 20
-6.70181
 30
0.0
 10
-8.29172
 20
-6.70181
 30
0.0
 10
-8.29172
 20
-6.70181
 30
0.0
 10
-8.31922
 20
-6.70181
 30
0.0
 10
-8.34152
 20
-6.67951
 30
0.0
 10
-8.34152
 20
-6.65201
 30
0.0
 10
-8.34152
 20
-6.65201
 30
0.0
 10
-8.34155
 20
-6.38144
 30
0.0
 10
-8.31345
 20
-6.11182
 30
0.0
 10
-8.28546
 20
-5.84314
 30
0.0
 10
-8.28546
 20
-5.84314
 30
0.0
 10
-8.26933
 20
-5.6882
 30
0.0
 10
-8.2532
 20
-5.53355
 30
0.0
 10
-8.24256
 20
-5.37851
 30
0.0
 10
-8.24256
 20
-5.37851
 30
0.0
 10
-8.2407
 20
-5.3513
 30
0.0
 10
-8.23993
 20
-5.32616
 30
0.0
 10
-8.23917
 20
-5.30063
 30
0.0
 10
-8.23917
 20
-5.30063
 30
0.0
 10
-8.23653
 20
-5.21223
 30
0.0
 10
-8.23372
 20
-5.11908
 30
0.0
 10
-8.19955
 20
-5.03699
 30
0.0
 10
-8.19955
 20
-5.03699
 30
0.0
 10
-8.185
 20
-5.00206
 30
0.0
 10
-8.13846
 20
-4.94388
 30
0.0
 10
-8.09356
 20
-4.91451
 30
0.0
 10
-8.09356
 20
-4.91451
 30
0.0
 10
-8.07435
 20
-4.90194
 30
0.0
 10
-8.05393
 20
-4.89332
 30
0.0
 10
-8.03359
 20
-4.89131
 30
0.0
 10
-8.03359
 20
-4.89131
 30
0.0
 10
-8.00529
 20
-4.88851
 30
0.0
 10
-7.97983
 20
-4.89714
 30
0.0
 10
-7.96001
 20
-4.92171
 30
0.0
 10
-7.96001
 20
-4.92171
 30
0.0
 10
-7.94368
 20
-4.94194
 30
0.0
 10
-7.93354
 20
-4.97361
 30
0.0
 10
-7.93323
 20
-5.0202
 30
0.0
 10
-7.93323
 20
-5.0202
 30
0.0
 10
-7.93312
 20
-5.0477
 30
0.0
 10
-7.95533
 20
-5.07009
 30
0.0
 10
-7.98283
 20
-5.0702
 30
0.0
 10
-7.98283
 20
-5.0702
 30
0.0
 10
-8.01033
 20
-5.07031
 30
0.0
 10
-8.03272
 20
-5.0481
 30
0.0
 10
-8.03283
 20
-5.0206
 30
0.0
 10
-8.03283
 20
-5.0206
 30
0.0
 10
-8.0329
 20
-5.00954
 30
0.0
 10
-8.03342
 20
-5.00122
 30
0.0
 10
-8.03431
 20
-4.99524
 30
0.0
 10
-8.03431
 20
-4.99524
 30
0.0
 10
-8.03575
 20
-4.9961
 30
0.0
 10
-8.03728
 20
-4.99706
 30
0.0
 10
-8.03888
 20
-4.99811
 30
0.0
 10
-8.03888
 20
-4.99811
 30
0.0
 10
-8.06857
 20
-5.01753
 30
0.0
 10
-8.09852
 20
-5.05401
 30
0.0
 10
-8.10737
 20
-5.07527
 30
0.0
 10
-8.10737
 20
-5.07527
 30
0.0
 10
-8.13469
 20
-5.1409
 30
0.0
 10
-8.1372
 20
-5.22427
 30
0.0
 10
-8.13957
 20
-5.30337
 30
0.0
 10
-8.13957
 20
-5.30337
 30
0.0
 10
-8.14044
 20
-5.33241
 30
0.0
 10
-8.14131
 20
-5.36097
 30
0.0
 10
-8.14296
 20
-5.38515
 30
0.0
 10
-8.14296
 20
-5.38515
 30
0.0
 10
-8.15357
 20
-5.53981
 30
0.0
 10
-8.1699
 20
-5.69641
 30
0.0
 10
-8.18624
 20
-5.8533
 30
0.0
 10
-8.18624
 20
-5.8533
 30
0.0
 10
-8.21404
 20
-6.12016
 30
0.0
 10
-8.24194
 20
-6.38796
 30
0.0
 10
-8.24192
 20
-6.65201
 30
0.0
  0
SPLINE
  5
48
330
1F
100
AcDbEntity
  8
Layer 1
 62
     5
100
AcDbSpline
210
0.0
220
0.0
230
1.0
 70
    11
 71
     3
 72
   128
 73
   124
 74
     0
 42
0.0000000001
 43
0.0000000001
 12
1.0
 22
0.0
 32
0.0
 13
1.0
 23
0.0
 33
0.0
 40
0.0
 40
0.0
 40
0.0
 40
0.0
 40
0.03125
 40
0.03125
 40
0.03125
 40
0.03125
 40
0.0625
 40
0.0625
 40
0.0625
 40
0.0625
 40
0.09375
 40
0.09375
 40
0.09375
 40
0.09375
 40
0.125
 40
0.125
 40
0.125
 40
0.125
 40
0.15625
 40
0.15625
 40
0.15625
 40
0.15625
 40
0.1875
 40
0.1875
 40
0.1875
 40
0.1875
 40
0.21875
 40
0.21875
 40
0.21875
 40
0.21875
 40
0.25
 40
0.25
 40
0.25
 40
0.25
 40
0.28125
 40
0.28125
 40
0.28125
 40
0.28125
 40
0.3125
 40
0.3125
 40
0.3125
 40
0.3125
 40
0.34375
 40
0.34375
 40
0.34375
 40
0.34375
 40
0.375
 40
0.375
 40
0.375
 40
0.375
 40
0.40625
 40
0.40625
 40
0.40625
 40
0.40625
 40
0.4375
 40
0.4375
 40
0.4375
 40
0.4375
 40
0.46875
 40
0.46875
 40
0.46875
 40
0.46875
 40
0.5
 40
0.5
 40
0.5
 40
0.5
 40
0.53125
 40
0.53125
 40
0.53125
 40
0.53125
 40
0.5625
 40
0.5625
 40
0.5625
 40
0.5625
 40
0.59375
 40
0.59375
 40
0.59375
 40
0.59375
 40
0.625
 40
0.625
 40
0.625
 40
0.625
 40
0.65625
 40
0.65625
 40
0.65625
 40
0.65625
 40
0.6875
 40
0.6875
 40
0.6875
 40
0.6875
 40
0.71875
 40
0.71875
 40
0.71875
 40
0.71875
 40
0.75
 40
0.75
 40
0.75
 40
0.75
 40
0.78125
 40
0.78125
 40
0.78125
 40
0.78125
 40
0.8125
 40
0.8125
 40
0.8125
 40
0.8125
 40
0.84375
 40
0.84375
 40
0.84375
 40
0.84375
 40
0.875
 40
0.875
 40
0.875
 40
0.875
 40
0.90625
 40
0.90625
 40
0.90625
 40
0.90625
 40
0.9375
 40
0.9375
 40
0.9375
 40
0.9375
 40
1.0
 40
1.0
 40
1.0
 40
1.0
 10
-9.56342
 20
-6.43172
 30
0.0
 10
-9.51762
 20
-6.41622
 30
0.0
 10
-9.47192
 20
-6.40075
 30
0.0
 10
-9.42506
 20
-6.386
 30
0.0
 10
-9.42506
 20
-6.386
 30
0.0
 10
-9.4281
 20
-6.39687
 30
0.0
 10
-9.42749
 20
-6.40882
 30
0.0
 10
-9.42249
 20
-6.41991
 30
0.0
 10
-9.42249
 20
-6.41991
 30
0.0
 10
-9.40615
 20
-6.45604
 30
0.0
 10
-9.38779
 20
-6.48772
 30
0.0
 10
-9.36099
 20
-6.51182
 30
0.0
 10
-9.36099
 20
-6.51182
 30
0.0
 10
-9.33137
 20
-6.53847
 30
0.0
 10
-9.29431
 20
-6.55402
 30
0.0
 10
-9.24384
 20
-6.55343
 30
0.0
 10
-9.24384
 20
-6.55343
 30
0.0
 10
-9.24384
 20
-6.55343
 30
0.0
 10
-9.24361
 20
-6.55342
 30
0.0
 10
-9.24361
 20
-6.55342
 30
0.0
 10
-9.24361
 20
-6.55342
 30
0.0
 10
-9.22668
 20
-6.55318
 30
0.0
 10
-9.21094
 20
-6.55119
 30
0.0
 10
-9.1965
 20
-6.54762
 30
0.0
 10
-9.1965
 20
-6.54762
 30
0.0
 10
-9.15385
 20
-6.53708
 30
0.0
 10
-9.12004
 20
-6.51348
 30
0.0
 10
-9.09691
 20
-6.48153
 30
0.0
 10
-9.09691
 20
-6.48153
 30
0.0
 10
-9.07432
 20
-6.4503
 30
0.0
 10
-9.0624
 20
-6.41144
 30
0.0
 10
-9.06288
 20
-6.36949
 30
0.0
 10
-9.06288
 20
-6.36949
 30
0.0
 10
-9.06307
 20
-6.35237
 30
0.0
 10
-9.06525
 20
-6.33502
 30
0.0
 10
-9.06949
 20
-6.31787
 30
0.0
 10
-9.06949
 20
-6.31787
 30
0.0
 10
-9.07279
 20
-6.30442
 30
0.0
 10
-9.08128
 20
-6.2936
 30
0.0
 10
-9.09229
 20
-6.287
 30
0.0
 10
-9.09229
 20
-6.287
 30
0.0
 10
-9.05545
 20
-6.27579
 30
0.0
 10
-9.01829
 20
-6.26432
 30
0.0
 10
-8.98073
 20
-6.25248
 30
0.0
 10
-8.98073
 20
-6.25248
 30
0.0
 10
-8.85234
 20
-6.21202
 30
0.0
 10
-8.72604
 20
-6.16935
 30
0.0
 10
-8.60425
 20
-6.12249
 30
0.0
 10
-8.60425
 20
-6.12249
 30
0.0
 10
-8.60048
 20
-6.12104
 30
0.0
 10
-8.59147
 20
-6.11711
 30
0.0
 10
-8.58144
 20
-6.11275
 30
0.0
 10
-8.58144
 20
-6.11275
 30
0.0
 10
-8.54665
 20
-6.0976
 30
0.0
 10
-8.5011
 20
-6.07778
 30
0.0
 10
-8.46643
 20
-6.0794
 30
0.0
 10
-8.46643
 20
-6.0794
 30
0.0
 10
-8.44158
 20
-6.07979
 30
0.0
 10
-8.42034
 20
-6.09867
 30
0.0
 10
-8.41765
 20
-6.12401
 30
0.0
 10
-8.41765
 20
-6.12401
 30
0.0
 10
-8.41592
 20
-6.13998
 30
0.0
 10
-8.41381
 20
-6.1552
 30
0.0
 10
-8.41176
 20
-6.17001
 30
0.0
 10
-8.41176
 20
-6.17001
 30
0.0
 10
-8.40532
 20
-6.21649
 30
0.0
 10
-8.39937
 20
-6.25957
 30
0.0
 10
-8.40474
 20
-6.31296
 30
0.0
 10
-8.40474
 20
-6.31296
 30
0.0
 10
-8.40655
 20
-6.33095
 30
0.0
 10
-8.40762
 20
-6.34264
 30
0.0
 10
-8.40859
 20
-6.3536
 30
0.0
 10
-8.40859
 20
-6.3536
 30
0.0
 10
-8.41336
 20
-6.40673
 30
0.0
 10
-8.41807
 20
-6.45902
 30
0.0
 10
-8.43125
 20
-6.5127
 30
0.0
 10
-8.43125
 20
-6.5127
 30
0.0
 10
-8.4486
 20
-6.58322
 30
0.0
 10
-8.47478
 20
-6.65198
 30
0.0
 10
-8.51032
 20
-6.71529
 30
0.0
 10
-8.51032
 20
-6.71529
 30
0.0
 10
-8.54388
 20
-6.77511
 30
0.0
 10
-8.58593
 20
-6.8303
 30
0.0
 10
-8.63686
 20
-6.87787
 30
0.0
 10
-8.63686
 20
-6.87787
 30
0.0
 10
-8.6717
 20
-6.91041
 30
0.0
 10
-8.71172
 20
-6.94351
 30
0.0
 10
-8.75351
 20
-6.97405
 30
0.0
 10
-8.75351
 20
-6.97405
 30
0.0
 10
-8.7931
 20
-7.00298
 30
0.0
 10
-8.8347
 20
-7.02987
 30
0.0
 10
-8.8755
 20
-7.05207
 30
0.0
 10
-8.8755
 20
-7.05207
 30
0.0
 10
-8.93259
 20
-7.08313
 30
0.0
 10
-8.99175
 20
-7.10297
 30
0.0
 10
-9.05205
 20
-7.11689
 30
0.0
 10
-9.05205
 20
-7.11689
 30
0.0
 10
-9.11144
 20
-7.1306
 30
0.0
 10
-9.17039
 20
-7.13845
 30
0.0
 10
-9.22944
 20
-7.14571
 30
0.0
 10
-9.22944
 20
-7.14571
 30
0.0
 10
-9.3118
 20
-7.15585
 30
0.0
 10
-9.39319
 20
-7.14639
 30
0.0
 10
-9.47003
 20
-7.12173
 30
0.0
 10
-9.47003
 20
-7.12173
 30
0.0
 10
-9.55133
 20
-7.09564
 30
0.0
 10
-9.62718
 20
-7.05258
 30
0.0
 10
-9.69338
 20
-6.99786
 30
0.0
 10
-9.69338
 20
-6.99786
 30
0.0
 10
-9.75324
 20
-6.94837
 30
0.0
 10
-9.83461
 20
-6.87173
 30
0.0
 10
-9.89182
 20
-6.78627
 30
0.0
 10
-9.89182
 20
-6.78627
 30
0.0
 10
-9.93463
 20
-6.72233
 30
0.0
 10
-9.96408
 20
-6.65295
 30
0.0
 10
-9.96291
 20
-6.58428
 30
0.0
 10
-9.96291
 20
-6.58428
 30
0.0
 10
-9.96322
 20
-6.56041
 30
0.0
 10
-9.94632
 20
-6.53909
 30
0.0
 10
-9.92206
 20
-6.53465
 30
0.0
 10
-9.92206
 20
-6.53465
 30
0.0
 10
-9.80326
 20
-6.51289
 30
0.0
 10
-9.6829
 20
-6.47215
 30
0.0
 10
-9.56342
 20
-6.43172
 30
0.0
  0
SPLINE
  5
49
330
1F
100
AcDbEntity
  8
Layer 1
 62
     5
100
AcDbSpline
210
0.0
220
0.0
230
1.0
 70
    11
 71
     3
 72
    40
 73
    36
 74
     0
 42
0.0000000001
 43
0.0000000001
 12
1.0
 22
0.0
 32
0.0
 13
1.0
 23
0.0
 33
0.0
 40
0.0
 40
0.0
 40
0.0
 40
0.0
 40
0.1
 40
0.1
 40
0.1
 40
0.1
 40
0.2
 40
0.2
 40
0.2
 40
0.2
 40
0.3
 40
0.3
 40
0.3
 40
0.3
 40
0.4
 40
0.4
 40
0.4
 40
0.4
 40
0.5
 40
0.5
 40
0.5
 40
0.5
 40
0.6
 40
0.6
 40
0.6
 40
0.6
 40
0.7
 40
0.7
 40
0.7
 40
0.7
 40
0.8
 40
0.8
 40
0.8
 40
0.8
 40
1.0
 40
1.0
 40
1.0
 40
1.0
 10
-9.22689
 20
-6.3273
 30
0.0
 10
-9.20564
 20
-6.32103
 30
0.0
 10
-9.18434
 20
-6.3147
 30
0.0
 10
-9.16295
 20
-6.30831
 30
0.0
 10
-9.16295
 20
-6.30831
 30
0.0
 10
-9.16775
 20
-6.31835
 30
0.0
 10
-9.16923
 20
-6.33004
 30
0.0
 10
-9.16637
 20
-6.34169
 30
0.0
 10
-9.16637
 20
-6.34169
 30
0.0
 10
-9.16386
 20
-6.35184
 30
0.0
 10
-9.16258
 20
-6.36144
 30
0.0
 10
-9.16248
 20
-6.37027
 30
0.0
 10
-9.16248
 20
-6.37027
 30
0.0
 10
-9.16225
 20
-6.39061
 30
0.0
 10
-9.16761
 20
-6.40888
 30
0.0
 10
-9.17777
 20
-6.42293
 30
0.0
 10
-9.17777
 20
-6.42293
 30
0.0
 10
-9.18741
 20
-6.43624
 30
0.0
 10
-9.20184
 20
-6.44617
 30
0.0
 10
-9.22032
 20
-6.45074
 30
0.0
 10
-9.22032
 20
-6.45074
 30
0.0
 10
-9.22731
 20
-6.45246
 30
0.0
 10
-9.23466
 20
-6.45352
 30
0.0
 10
-9.24229
 20
-6.45378
 30
0.0
 10
-9.24229
 20
-6.45378
 30
0.0
 10
-9.22816
 20
-6.44453
 30
0.0
 10
-9.21843
 20
-6.43197
 30
0.0
 10
-9.2123
 20
-6.417
 30
0.0
 10
-9.2123
 20
-6.417
 30
0.0
 10
-9.20461
 20
-6.39823
 30
0.0
 10
-9.20403
 20
-6.37794
 30
0.0
 10
-9.20804
 20
-6.35752
 30
0.0
 10
-9.20804
 20
-6.35752
 30
0.0
 10
-9.21049
 20
-6.34497
 30
0.0
 10
-9.21745
 20
-6.33446
 30
0.0
 10
-9.22689
 20
-6.3273
 30
0.0
  0
SPLINE
  5
4A
330
1F
100
AcDbEntity
  8
Layer 1
 62
     5
100
AcDbSpline
210
0.0
220
0.0
230
1.0
 70
    11
 71
     3
 72
   124
 73
   120
 74
     0
 42
0.0000000001
 43
0.0000000001
 12
1.0
 22
0.0
 32
0.0
 13
1.0
 23
0.0
 33
0.0
 40
0.0
 40
0.0
 40
0.0
 40
0.0
 40
0.032258064516129
 40
0.032258064516129
 40
0.032258064516129
 40
0.032258064516129
 40
0.0645161290322581
 40
0.0645161290322581
 40
0.0645161290322581
 40
0.0645161290322581
 40
0.0967741935483871
 40
0.0967741935483871
 40
0.0967741935483871
 40
0.0967741935483871
 40
0.1290322580645161
 40
0.1290322580645161
 40
0.1290322580645161
 40
0.1290322580645161
 40
0.1612903225806452
 40
0.1612903225806452
 40
0.1612903225806452
 40
0.1612903225806452
 40
0.1935483870967742
 40
0.1935483870967742
 40
0.1935483870967742
 40
0.1935483870967742
 40
0.2258064516129032
 40
0.2258064516129032
 40
0.2258064516129032
 40
0.2258064516129032
 40
0.2580645161290323
 40
0.2580645161290323
 40
0.2580645161290323
 40
0.2580645161290323
 40
0.2903225806451613
 40
0.2903225806451613
 40
0.2903225806451613
 40
0.2903225806451613
 40
0.3225806451612903
 40
0.3225806451612903
 40
0.3225806451612903
 40
0.3225806451612903
 40
0.3548387096774194
 40
0.3548387096774194
 40
0.3548387096774194
 40
0.3548387096774194
 40
0.3870967741935484
 40
0.3870967741935484
 40
0.3870967741935484
 40
0.3870967741935484
 40
0.4193548387096774
 40
0.4193548387096774
 40
0.4193548387096774
 40
0.4193548387096774
 40
0.4516129032258064
 40
0.4516129032258064
 40
0.4516129032258064
 40
0.4516129032258064
 40
0.4838709677419355
 40
0.4838709677419355
 40
0.4838709677419355
 40
0.4838709677419355
 40
0.5161290322580645
 40
0.5161290322580645
 40
0.5161290322580645
 40
0.5161290322580645
 40
0.5483870967741935
 40
0.5483870967741935
 40
0.5483870967741935
 40
0.5483870967741935
 40
0.5806451612903226
 40
0.5806451612903226
 40
0.5806451612903226
 40
0.5806451612903226
 40
0.6129032258064516
 40
0.6129032258064516
 40
0.6129032258064516
 40
0.6129032258064516
 40
0.6451612903225806
 40
0.6451612903225806
 40
0.6451612903225806
 40
0.6451612903225806
 40
0.6774193548387096
 40
0.6774193548387096
 40
0.6774193548387096
 40
0.6774193548387096
 40
0.7096774193548387
 40
0.7096774193548387
 40
0.7096774193548387
 40
0.7096774193548387
 40
0.7419354838709677
 40
0.7419354838709677
 40
0.7419354838709677
 40
0.7419354838709677
 40
0.7741935483870968
 40
0.7741935483870968
 40
0.7741935483870968
 40
0.7741935483870968
 40
0.8064516129032258
 40
0.8064516129032258
 40
0.8064516129032258
 40
0.8064516129032258
 40
0.8387096774193549
 40
0.8387096774193549
 40
0.8387096774193549
 40
0.8387096774193549
 40
0.8709677419354839
 40
0.8709677419354839
 40
0.8709677419354839
 40
0.8709677419354839
 40
0.9032258064516129
 40
0.9032258064516129
 40
0.9032258064516129
 40
0.9032258064516129
 40
0.9354838709677419
 40
0.9354838709677419
 40
0.9354838709677419
 40
0.9354838709677419
 40
1.0
 40
1.0
 40
1.0
 40
1.0
 10
-11.62773
 20
-6.6922
 30
0.0
 10
-11.63409
 20
-6.71895
 30
0.0
 10
-11.66094
 20
-6.73548
 30
0.0
 10
-11.68769
 20
-6.72912
 30
0.0
 10
-11.68769
 20
-6.72912
 30
0.0
 10
-11.71444
 20
-6.72276
 30
0.0
 10
-11.73097
 20
-6.69591
 30
0.0
 10
-11.72461
 20
-6.66916
 30
0.0
 10
-11.72461
 20
-6.66916
 30
0.0
 10
-11.7123
 20
-6.61808
 30
0.0
 10
-11.72013
 20
-6.55793
 30
0.0
 10
-11.72798
 20
-6.49758
 30
0.0
 10
-11.72798
 20
-6.49758
 30
0.0
 10
-11.72798
 20
-6.49758
 30
0.0
 10
-11.72815
 20
-6.49606
 30
0.0
 10
-11.72815
 20
-6.49606
 30
0.0
 10
-11.72815
 20
-6.49606
 30
0.0
 10
-11.73467
 20
-6.44585
 30
0.0
 10
-11.74114
 20
-6.3955
 30
0.0
 10
-11.73788
 20
-6.34514
 30
0.0
 10
-11.73788
 20
-6.34514
 30
0.0
 10
-11.73788
 20
-6.34514
 30
0.0
 10
-11.73655
 20
-6.32471
 30
0.0
 10
-11.73655
 20
-6.32471
 30
0.0
 10
-11.73655
 20
-6.32471
 30
0.0
 10
-11.72849
 20
-6.20092
 30
0.0
 10
-11.72052
 20
-6.0785
 30
0.0
 10
-11.71941
 20
-5.95757
 30
0.0
 10
-11.71941
 20
-5.95757
 30
0.0
 10
-11.71848
 20
-5.85326
 30
0.0
 10
-11.7199
 20
-5.75323
 30
0.0
 10
-11.72681
 20
-5.65265
 30
0.0
 10
-11.72681
 20
-5.65265
 30
0.0
 10
-11.73363
 20
-5.55354
 30
0.0
 10
-11.74585
 20
-5.45527
 30
0.0
 10
-11.76651
 20
-5.35382
 30
0.0
 10
-11.76651
 20
-5.35382
 30
0.0
 10
-11.77594
 20
-5.30755
 30
0.0
 10
-11.78646
 20
-5.25707
 30
0.0
 10
-11.80097
 20
-5.20818
 30
0.0
 10
-11.80097
 20
-5.20818
 30
0.0
 10
-11.81476
 20
-5.16174
 30
0.0
 10
-11.83215
 20
-5.117
 30
0.0
 10
-11.85565
 20
-5.0797
 30
0.0
 10
-11.85565
 20
-5.0797
 30
0.0
 10
-11.86673
 20
-5.06211
 30
0.0
 10
-11.87734
 20
-5.05087
 30
0.0
 10
-11.887
 20
-5.04532
 30
0.0
 10
-11.887
 20
-5.04532
 30
0.0
 10
-11.89134
 20
-5.04283
 30
0.0
 10
-11.89503
 20
-5.04197
 30
0.0
 10
-11.89792
 20
-5.04258
 30
0.0
 10
-11.89792
 20
-5.04258
 30
0.0
 10
-11.90201
 20
-5.04345
 30
0.0
 10
-11.90676
 20
-5.04693
 30
0.0
 10
-11.91182
 20
-5.05271
 30
0.0
 10
-11.91182
 20
-5.05271
 30
0.0
 10
-11.92272
 20
-5.06518
 30
0.0
 10
-11.93209
 20
-5.08515
 30
0.0
 10
-11.93862
 20
-5.1117
 30
0.0
 10
-11.93862
 20
-5.1117
 30
0.0
 10
-11.94519
 20
-5.13845
 30
0.0
 10
-11.97222
 20
-5.1548
 30
0.0
 10
-11.99897
 20
-5.14823
 30
0.0
 10
-11.99897
 20
-5.14823
 30
0.0
 10
-12.02572
 20
-5.14166
 30
0.0
 10
-12.04207
 20
-5.11463
 30
0.0
 10
-12.0355
 20
-5.08788
 30
0.0
 10
-12.0355
 20
-5.08788
 30
0.0
 10
-12.0251
 20
-5.0456
 30
0.0
 10
-12.00802
 20
-5.01133
 30
0.0
 10
-11.98682
 20
-4.98709
 30
0.0
 10
-11.98682
 20
-4.98709
 30
0.0
 10
-11.96732
 20
-4.96479
 30
0.0
 10
-11.94412
 20
-4.95038
 30
0.0
 10
-11.91862
 20
-4.94492
 30
0.0
 10
-11.91862
 20
-4.94492
 30
0.0
 10
-11.89193
 20
-4.93921
 30
0.0
 10
-11.86431
 20
-4.94352
 30
0.0
 10
-11.8374
 20
-4.959
 30
0.0
 10
-11.8374
 20
-4.959
 30
0.0
 10
-11.81391
 20
-4.97249
 30
0.0
 10
-11.79131
 20
-4.99477
 30
0.0
 10
-11.77127
 20
-5.02658
 30
0.0
 10
-11.77127
 20
-5.02658
 30
0.0
 10
-11.74223
 20
-5.07267
 30
0.0
 10
-11.72139
 20
-5.12579
 30
0.0
 10
-11.70527
 20
-5.18006
 30
0.0
 10
-11.70527
 20
-5.18006
 30
0.0
 10
-11.68989
 20
-5.2319
 30
0.0
 10
-11.67879
 20
-5.28512
 30
0.0
 10
-11.66885
 20
-5.3339
 30
0.0
 10
-11.66885
 20
-5.3339
 30
0.0
 10
-11.64708
 20
-5.4408
 30
0.0
 10
-11.63428
 20
-5.54333
 30
0.0
 10
-11.62721
 20
-5.64601
 30
0.0
 10
-11.62721
 20
-5.64601
 30
0.0
 10
-11.62025
 20
-5.74725
 30
0.0
 10
-11.61885
 20
-5.85011
 30
0.0
 10
-11.61981
 20
-5.95835
 30
0.0
 10
-11.61981
 20
-5.95835
 30
0.0
 10
-11.62097
 20
-6.08566
 30
0.0
 10
-11.62892
 20
-6.20763
 30
0.0
 10
-11.63695
 20
-6.33097
 30
0.0
 10
-11.63695
 20
-6.33097
 30
0.0
 10
-11.63695
 20
-6.33097
 30
0.0
 10
-11.63828
 20
-6.3514
 30
0.0
 10
-11.63828
 20
-6.3514
 30
0.0
 10
-11.63828
 20
-6.3514
 30
0.0
 10
-11.64099
 20
-6.39313
 30
0.0
 10
-11.63522
 20
-6.43816
 30
0.0
 10
-11.62939
 20
-6.4831
 30
0.0
 10
-11.62939
 20
-6.4831
 30
0.0
 10
-11.62939
 20
-6.4831
 30
0.0
 10
-11.62916
 20
-6.48468
 30
0.0
 10
-11.62916
 20
-6.48468
 30
0.0
 10
-11.62916
 20
-6.48468
 30
0.0
 10
-11.62012
 20
-6.5541
 30
0.0
 10
-11.61113
 20
-6.6233
 30
0.0
 10
-11.62773
 20
-6.6922
 30
0.0
  0
SPLINE
  5
4B
330
1F
100
AcDbEntity
  8
Layer 1
 62
     5
100
AcDbSpline
210
0.0
220
0.0
230
1.0
 70
    11
 71
     3
 72
    36
 73
    32
 74
     0
 42
0.0000000001
 43
0.0000000001
 12
1.0
 22
0.0
 32
0.0
 13
1.0
 23
0.0
 33
0.0
 40
0.0
 40
0.0
 40
0.0
 40
0.0
 40
0.1111111111111111
 40
0.1111111111111111
 40
0.1111111111111111
 40
0.1111111111111111
 40
0.2222222222222222
 40
0.2222222222222222
 40
0.2222222222222222
 40
0.2222222222222222
 40
0.3333333333333333
 40
0.3333333333333333
 40
0.3333333333333333
 40
0.3333333333333333
 40
0.4444444444444444
 40
0.4444444444444444
 40
0.4444444444444444
 40
0.4444444444444444
 40
0.5555555555555556
 40
0.5555555555555556
 40
0.5555555555555556
 40
0.5555555555555556
 40
0.6666666666666666
 40
0.6666666666666666
 40
0.6666666666666666
 40
0.6666666666666666
 40
0.7777777777777778
 40
0.7777777777777778
 40
0.7777777777777778
 40
0.7777777777777778
 40
1.0
 40
1.0
 40
1.0
 40
1.0
 10
-10.16597
 20
-8.88702
 30
0.0
 10
-10.19175
 20
-8.87721
 30
0.0
 10
-10.20469
 20
-8.84835
 30
0.0
 10
-10.19488
 20
-8.82257
 30
0.0
 10
-10.19488
 20
-8.82257
 30
0.0
 10
-10.18507
 20
-8.79679
 30
0.0
 10
-10.15621
 20
-8.78385
 30
0.0
 10
-10.13043
 20
-8.79366
 30
0.0
 10
-10.13043
 20
-8.79366
 30
0.0
 10
-10.10326
 20
-8.80401
 30
0.0
 10
-10.06724
 20
-8.80797
 30
0.0
 10
-10.02946
 20
-8.80768
 30
0.0
 10
-10.02946
 20
-8.80768
 30
0.0
 10
-9.98156
 20
-8.80732
 30
0.0
 10
-9.9313
 20
-8.79993
 30
0.0
 10
-9.89144
 20
-8.78983
 30
0.0
 10
-9.89144
 20
-8.78983
 30
0.0
 10
-9.86469
 20
-8.78315
 30
0.0
 10
-9.83757
 20
-8.79941
 30
0.0
 10
-9.83089
 20
-8.82616
 30
0.0
 10
-9.83089
 20
-8.82616
 30
0.0
 10
-9.82421
 20
-8.85291
 30
0.0
 10
-9.84047
 20
-8.88003
 30
0.0
 10
-9.86722
 20
-8.88671
 30
0.0
 10
-9.86722
 20
-8.88671
 30
0.0
 10
-9.91311
 20
-8.89834
 30
0.0
 10
-9.97188
 20
-8.90685
 30
0.0
 10
-10.02906
 20
-8.90728
 30
0.0
 10
-10.02906
 20
-8.90728
 30
0.0
 10
-10.07836
 20
-8.90766
 30
0.0
 10
-10.12683
 20
-8.90193
 30
0.0
 10
-10.16597
 20
-8.88702
 30
0.0
  0
SPLINE
  5
4C
330
1F
100
AcDbEntity
  8
Layer 1
 62
     5
100
AcDbSpline
210
0.0
220
0.0
230
1.0
 70
    11
 71
     3
 72
    68
 73
    64
 74
     0
 42
0.0000000001
 43
0.0000000001
 12
1.0
 22
0.0
 32
0.0
 13
1.0
 23
0.0
 33
0.0
 40
0.0
 40
0.0
 40
0.0
 40
0.0
 40
0.0588235294117647
 40
0.0588235294117647
 40
0.0588235294117647
 40
0.0588235294117647
 40
0.1176470588235294
 40
0.1176470588235294
 40
0.1176470588235294
 40
0.1176470588235294
 40
0.1764705882352941
 40
0.1764705882352941
 40
0.1764705882352941
 40
0.1764705882352941
 40
0.2352941176470588
 40
0.2352941176470588
 40
0.2352941176470588
 40
0.2352941176470588
 40
0.2941176470588235
 40
0.2941176470588235
 40
0.2941176470588235
 40
0.2941176470588235
 40
0.3529411764705883
 40
0.3529411764705883
 40
0.3529411764705883
 40
0.3529411764705883
 40
0.4117647058823529
 40
0.4117647058823529
 40
0.4117647058823529
 40
0.4117647058823529
 40
0.4705882352941176
 40
0.4705882352941176
 40
0.4705882352941176
 40
0.4705882352941176
 40
0.5294117647058824
 40
0.5294117647058824
 40
0.5294117647058824
 40
0.5294117647058824
 40
0.5882352941176471
 40
0.5882352941176471
 40
0.5882352941176471
 40
0.5882352941176471
 40
0.6470588235294118
 40
0.6470588235294118
 40
0.6470588235294118
 40
0.6470588235294118
 40
0.7058823529411765
 40
0.7058823529411765
 40
0.7058823529411765
 40
0.7058823529411765
 40
0.7647058823529411
 40
0.7647058823529411
 40
0.7647058823529411
 40
0.7647058823529411
 40
0.8235294117647058
 40
0.8235294117647058
 40
0.8235294117647058
 40
0.8235294117647058
 40
0.8823529411764706
 40
0.8823529411764706
 40
0.8823529411764706
 40
0.8823529411764706
 40
1.0
 40
1.0
 40
1.0
 40
1.0
 10
-11.59934
 20
-4.37416
 30
0.0
 10
-11.6126
 20
-4.39832
 30
0.0
 10
-11.64295
 20
-4.40715
 30
0.0
 10
-11.66711
 20
-4.39389
 30
0.0
 10
-11.66711
 20
-4.39389
 30
0.0
 10
-11.69127
 20
-4.38063
 30
0.0
 10
-11.7001
 20
-4.35028
 30
0.0
 10
-11.68684
 20
-4.32612
 30
0.0
 10
-11.68684
 20
-4.32612
 30
0.0
 10
-11.62088
 20
-4.20618
 30
0.0
 10
-11.53667
 20
-4.09816
 30
0.0
 10
-11.4402
 20
-4.00211
 30
0.0
 10
-11.4402
 20
-4.00211
 30
0.0
 10
-11.3356
 20
-3.89796
 30
0.0
 10
-11.21679
 20
-3.80805
 30
0.0
 10
-11.09143
 20
-3.73242
 30
0.0
 10
-11.09143
 20
-3.73242
 30
0.0
 10
-11.03129
 20
-3.69613
 30
0.0
 10
-10.96893
 20
-3.66275
 30
0.0
 10
-10.90483
 20
-3.63228
 30
0.0
 10
-10.90483
 20
-3.63228
 30
0.0
 10
-10.84
 20
-3.60146
 30
0.0
 10
-10.7734
 20
-3.5737
 30
0.0
 10
-10.70554
 20
-3.54901
 30
0.0
 10
-10.70554
 20
-3.54901
 30
0.0
 10
-10.68812
 20
-3.54267
 30
0.0
 10
-10.67074
 20
-3.53594
 30
0.0
 10
-10.65231
 20
-3.5288
 30
0.0
 10
-10.65231
 20
-3.5288
 30
0.0
 10
-10.54373
 20
-3.48676
 30
0.0
 10
-10.40047
 20
-3.43129
 30
0.0
 10
-10.29219
 20
-3.45464
 30
0.0
 10
-10.29219
 20
-3.45464
 30
0.0
 10
-10.26523
 20
-3.46035
 30
0.0
 10
-10.248
 20
-3.48686
 30
0.0
 10
-10.25371
 20
-3.51382
 30
0.0
 10
-10.25371
 20
-3.51382
 30
0.0
 10
-10.25942
 20
-3.54078
 30
0.0
 10
-10.28593
 20
-3.55801
 30
0.0
 10
-10.31289
 20
-3.5523
 30
0.0
 10
-10.31289
 20
-3.5523
 30
0.0
 10
-10.39257
 20
-3.53512
 30
0.0
 10
-10.51988
 20
-3.58441
 30
0.0
 10
-10.61637
 20
-3.62176
 30
0.0
 10
-10.61637
 20
-3.62176
 30
0.0
 10
-10.63673
 20
-3.62964
 30
0.0
 10
-10.65586
 20
-3.63706
 30
0.0
 10
-10.67156
 20
-3.64277
 30
0.0
 10
-10.67156
 20
-3.64277
 30
0.0
 10
-10.73606
 20
-3.66624
 30
0.0
 10
-10.79977
 20
-3.69281
 30
0.0
 10
-10.86225
 20
-3.72252
 30
0.0
 10
-10.86225
 20
-3.72252
 30
0.0
 10
-10.92265
 20
-3.75123
 30
0.0
 10
-10.98199
 20
-3.78304
 30
0.0
 10
-11.03987
 20
-3.81796
 30
0.0
 10
-11.03987
 20
-3.81796
 30
0.0
 10
-11.15902
 20
-3.88984
 30
0.0
 10
-11.27149
 20
-3.97485
 30
0.0
 10
-11.36988
 20
-4.07281
 30
0.0
 10
-11.36988
 20
-4.07281
 30
0.0
 10
-11.4597
 20
-4.16224
 30
0.0
 10
-11.53805
 20
-4.26272
 30
0.0
 10
-11.59934
 20
-4.37416
 30
0.0
  0
SPLINE
  5
4D
330
1F
100
AcDbEntity
  8
Layer 1
 62
     5
100
AcDbSpline
210
0.0
220
0.0
230
1.0
 70
    11
 71
     3
 72
    68
 73
    64
 74
     0
 42
0.0000000001
 43
0.0000000001
 12
1.0
 22
0.0
 32
0.0
 13
1.0
 23
0.0
 33
0.0
 40
0.0
 40
0.0
 40
0.0
 40
0.0
 40
0.0588235294117647
 40
0.0588235294117647
 40
0.0588235294117647
 40
0.0588235294117647
 40
0.1176470588235294
 40
0.1176470588235294
 40
0.1176470588235294
 40
0.1176470588235294
 40
0.1764705882352941
 40
0.1764705882352941
 40
0.1764705882352941
 40
0.1764705882352941
 40
0.2352941176470588
 40
0.2352941176470588
 40
0.2352941176470588
 40
0.2352941176470588
 40
0.2941176470588235
 40
0.2941176470588235
 40
0.2941176470588235
 40
0.2941176470588235
 40
0.3529411764705883
 40
0.3529411764705883
 40
0.3529411764705883
 40
0.3529411764705883
 40
0.4117647058823529
 40
0.4117647058823529
 40
0.4117647058823529
 40
0.4117647058823529
 40
0.4705882352941176
 40
0.4705882352941176
 40
0.4705882352941176
 40
0.4705882352941176
 40
0.5294117647058824
 40
0.5294117647058824
 40
0.5294117647058824
 40
0.5294117647058824
 40
0.5882352941176471
 40
0.5882352941176471
 40
0.5882352941176471
 40
0.5882352941176471
 40
0.6470588235294118
 40
0.6470588235294118
 40
0.6470588235294118
 40
0.6470588235294118
 40
0.7058823529411765
 40
0.7058823529411765
 40
0.7058823529411765
 40
0.7058823529411765
 40
0.7647058823529411
 40
0.7647058823529411
 40
0.7647058823529411
 40
0.7647058823529411
 40
0.8235294117647058
 40
0.8235294117647058
 40
0.8235294117647058
 40
0.8235294117647058
 40
0.8823529411764706
 40
0.8823529411764706
 40
0.8823529411764706
 40
0.8823529411764706
 40
1.0
 40
1.0
 40
1.0
 40
1.0
 10
-11.5248
 20
-5.60607
 30
0.0
 10
-11.53407
 20
-5.58008
 30
0.0
 10
-11.52052
 20
-5.55147
 30
0.0
 10
-11.49453
 20
-5.5422
 30
0.0
 10
-11.49453
 20
-5.5422
 30
0.0
 10
-11.46854
 20
-5.53293
 30
0.0
 10
-11.43993
 20
-5.54648
 30
0.0
 10
-11.43066
 20
-5.57247
 30
0.0
 10
-11.43066
 20
-5.57247
 30
0.0
 10
-11.4124
 20
-5.62361
 30
0.0
 10
-11.41635
 20
-5.66667
 30
0.0
 10
-11.41987
 20
-5.70508
 30
0.0
 10
-11.41987
 20
-5.70508
 30
0.0
 10
-11.42292
 20
-5.73838
 30
0.0
 10
-11.42539
 20
-5.76535
 30
0.0
 10
-11.38593
 20
-5.78359
 30
0.0
 10
-11.38593
 20
-5.78359
 30
0.0
 10
-11.34586
 20
-5.80212
 30
0.0
 10
-11.29617
 20
-5.826
 30
0.0
 10
-11.24669
 20
-5.84976
 30
0.0
 10
-11.24669
 20
-5.84976
 30
0.0
 10
-11.14079
 20
-5.90063
 30
0.0
 10
-11.03504
 20
-5.95144
 30
0.0
 10
-10.9258
 20
-5.99369
 30
0.0
 10
-10.9258
 20
-5.99369
 30
0.0
 10
-10.80624
 20
-6.03991
 30
0.0
 10
-10.65039
 20
-6.09286
 30
0.0
 10
-10.49226
 20
-6.14655
 30
0.0
 10
-10.49226
 20
-6.14655
 30
0.0
 10
-10.33969
 20
-6.19836
 30
0.0
 10
-10.18496
 20
-6.25091
 30
0.0
 10
-10.05458
 20
-6.30045
 30
0.0
 10
-10.05458
 20
-6.30045
 30
0.0
 10
-10.0288
 20
-6.31015
 30
0.0
 10
-10.01578
 20
-6.33893
 30
0.0
 10
-10.02548
 20
-6.36471
 30
0.0
 10
-10.02548
 20
-6.36471
 30
0.0
 10
-10.03518
 20
-6.39049
 30
0.0
 10
-10.06396
 20
-6.40351
 30
0.0
 10
-10.08974
 20
-6.39381
 30
0.0
 10
-10.08974
 20
-6.39381
 30
0.0
 10
-10.21714
 20
-6.3454
 30
0.0
 10
-10.37181
 20
-6.29287
 30
0.0
 10
-10.5243
 20
-6.24109
 30
0.0
 10
-10.5243
 20
-6.24109
 30
0.0
 10
-10.68166
 20
-6.18766
 30
0.0
 10
-10.83676
 20
-6.13497
 30
0.0
 10
-10.96174
 20
-6.08665
 30
0.0
 10
-10.96174
 20
-6.08665
 30
0.0
 10
-11.07368
 20
-6.04335
 30
0.0
 10
-11.18159
 20
-5.99151
 30
0.0
 10
-11.28965
 20
-5.9396
 30
0.0
 10
-11.28965
 20
-5.9396
 30
0.0
 10
-11.33231
 20
-5.91912
 30
0.0
 10
-11.3749
 20
-5.89864
 30
0.0
 10
-11.42773
 20
-5.87421
 30
0.0
 10
-11.42773
 20
-5.87421
 30
0.0
 10
-11.53105
 20
-5.82646
 30
0.0
 10
-11.52569
 20
-5.76814
 30
0.0
 10
-11.51909
 20
-5.6961
 30
0.0
 10
-11.51909
 20
-5.6961
 30
0.0
 10
-11.51654
 20
-5.66832
 30
0.0
 10
-11.51369
 20
-5.63718
 30
0.0
 10
-11.5248
 20
-5.60607
 30
0.0
  0
SPLINE
  5
4E
330
1F
100
AcDbEntity
  8
Layer 1
 62
     5
100
AcDbSpline
210
0.0
220
0.0
230
1.0
 70
    11
 71
     3
 72
    68
 73
    64
 74
     0
 42
0.0000000001
 43
0.0000000001
 12
1.0
 22
0.0
 32
0.0
 13
1.0
 23
0.0
 33
0.0
 40
0.0
 40
0.0
 40
0.0
 40
0.0
 40
0.0588235294117647
 40
0.0588235294117647
 40
0.0588235294117647
 40
0.0588235294117647
 40
0.1176470588235294
 40
0.1176470588235294
 40
0.1176470588235294
 40
0.1176470588235294
 40
0.1764705882352941
 40
0.1764705882352941
 40
0.1764705882352941
 40
0.1764705882352941
 40
0.2352941176470588
 40
0.2352941176470588
 40
0.2352941176470588
 40
0.2352941176470588
 40
0.2941176470588235
 40
0.2941176470588235
 40
0.2941176470588235
 40
0.2941176470588235
 40
0.3529411764705883
 40
0.3529411764705883
 40
0.3529411764705883
 40
0.3529411764705883
 40
0.4117647058823529
 40
0.4117647058823529
 40
0.4117647058823529
 40
0.4117647058823529
 40
0.4705882352941176
 40
0.4705882352941176
 40
0.4705882352941176
 40
0.4705882352941176
 40
0.5294117647058824
 40
0.5294117647058824
 40
0.5294117647058824
 40
0.5294117647058824
 40
0.5882352941176471
 40
0.5882352941176471
 40
0.5882352941176471
 40
0.5882352941176471
 40
0.6470588235294118
 40
0.6470588235294118
 40
0.6470588235294118
 40
0.6470588235294118
 40
0.7058823529411765
 40
0.7058823529411765
 40
0.7058823529411765
 40
0.7058823529411765
 40
0.7647058823529411
 40
0.7647058823529411
 40
0.7647058823529411
 40
0.7647058823529411
 40
0.8235294117647058
 40
0.8235294117647058
 40
0.8235294117647058
 40
0.8235294117647058
 40
0.8823529411764706
 40
0.8823529411764706
 40
0.8823529411764706
 40
0.8823529411764706
 40
1.0
 40
1.0
 40
1.0
 40
1.0
 10
-8.50529
 20
-5.57247
 30
0.0
 10
-8.49602
 20
-5.54648
 30
0.0
 10
-8.46741
 20
-5.53293
 30
0.0
 10
-8.44142
 20
-5.5422
 30
0.0
 10
-8.44142
 20
-5.5422
 30
0.0
 10
-8.41543
 20
-5.55147
 30
0.0
 10
-8.40188
 20
-5.58008
 30
0.0
 10
-8.41115
 20
-5.60607
 30
0.0
 10
-8.41115
 20
-5.60607
 30
0.0
 10
-8.42226
 20
-5.63718
 30
0.0
 10
-8.41941
 20
-5.66832
 30
0.0
 10
-8.41686
 20
-5.69609
 30
0.0
 10
-8.41686
 20
-5.69609
 30
0.0
 10
-8.41026
 20
-5.76814
 30
0.0
 10
-8.40491
 20
-5.82646
 30
0.0
 10
-8.50822
 20
-5.87421
 30
0.0
 10
-8.50822
 20
-5.87421
 30
0.0
 10
-8.56087
 20
-5.89855
 30
0.0
 10
-8.60362
 20
-5.9191
 30
0.0
 10
-8.64631
 20
-5.93961
 30
0.0
 10
-8.64631
 20
-5.93961
 30
0.0
 10
-8.75437
 20
-5.99151
 30
0.0
 10
-8.86229
 20
-6.04336
 30
0.0
 10
-8.9742
 20
-6.08665
 30
0.0
 10
-8.9742
 20
-6.08665
 30
0.0
 10
-9.09918
 20
-6.13497
 30
0.0
 10
-9.25426
 20
-6.18765
 30
0.0
 10
-9.41161
 20
-6.24108
 30
0.0
 10
-9.41161
 20
-6.24108
 30
0.0
 10
-9.56411
 20
-6.29286
 30
0.0
 10
-9.7188
 20
-6.3454
 30
0.0
 10
-9.84621
 20
-6.39381
 30
0.0
 10
-9.84621
 20
-6.39381
 30
0.0
 10
-9.87199
 20
-6.40351
 30
0.0
 10
-9.90077
 20
-6.39049
 30
0.0
 10
-9.91047
 20
-6.36471
 30
0.0
 10
-9.91047
 20
-6.36471
 30
0.0
 10
-9.92017
 20
-6.33893
 30
0.0
 10
-9.90715
 20
-6.31015
 30
0.0
 10
-9.88137
 20
-6.30045
 30
0.0
 10
-9.88137
 20
-6.30045
 30
0.0
 10
-9.75098
 20
-6.25091
 30
0.0
 10
-9.59623
 20
-6.19835
 30
0.0
 10
-9.44365
 20
-6.14654
 30
0.0
 10
-9.44365
 20
-6.14654
 30
0.0
 10
-9.28553
 20
-6.09285
 30
0.0
 10
-9.12968
 20
-6.03991
 30
0.0
 10
-9.01014
 20
-5.99369
 30
0.0
 10
-9.01014
 20
-5.99369
 30
0.0
 10
-8.90092
 20
-5.95144
 30
0.0
 10
-8.79517
 20
-5.90063
 30
0.0
 10
-8.68927
 20
-5.84977
 30
0.0
 10
-8.68927
 20
-5.84977
 30
0.0
 10
-8.63983
 20
-5.82602
 30
0.0
 10
-8.5903
 20
-5.80221
 30
0.0
 10
-8.55002
 20
-5.78359
 30
0.0
 10
-8.55002
 20
-5.78359
 30
0.0
 10
-8.51056
 20
-5.76535
 30
0.0
 10
-8.51303
 20
-5.73838
 30
0.0
 10
-8.51608
 20
-5.70507
 30
0.0
 10
-8.51608
 20
-5.70507
 30
0.0
 10
-8.5196
 20
-5.66666
 30
0.0
 10
-8.52354
 20
-5.6236
 30
0.0
 10
-8.50529
 20
-5.57247
 30
0.0
  0
ENDSEC
  0
SECTION
  2
OBJECTS
  0
DICTIONARY
  5
C
330
0
100
AcDbDictionary
281
     1
  3
ACAD_GROUP
350
D
  3
ACAD_LAYOUT
350
1A
  3
ACAD_MATERIAL
350
3B
  3
ACAD_MLEADERSTYLE
350
70
  3
ACAD_MLINESTYLE
350
17
  3
ACAD_PLOTSETTINGS
350
19
  3
ACAD_PLOTSTYLENAME
350
E
  3
ACAD_TABLESTYLE
350
6F
  3
ACAD_VISUALSTYLE
350
2A
  0
DICTIONARY
  5
D
102
{ACAD_REACTORS
330
C
102
}
330
C
100
AcDbDictionary
281
     1
  0
DICTIONARY
  5
1A
102
{ACAD_REACTORS
330
C
102
}
330
C
100
AcDbDictionary
281
     1
  3
Layout1
350
1E
  3
Layout2
350
26
  3
Model
350
22
  0
DICTIONARY
  5
3B
102
{ACAD_REACTORS
330
C
102
}
330
C
100
AcDbDictionary
281
     1
  3
ByBlock
350
3D
  3
ByLayer
350
3C
  3
Global
350
3E
  0
DICTIONARY
  5
70
102
{ACAD_REACTORS
330
C
102
}
330
C
100
AcDbDictionary
281
     1
  0
DICTIONARY
  5
17
102
{ACAD_REACTORS
330
C
102
}
330
C
100
AcDbDictionary
281
     1
  3
Standard
350
18
  0
DICTIONARY
  5
19
102
{ACAD_REACTORS
330
C
102
}
330
C
100
AcDbDictionary
281
     1
  0
ACDBDICTIONARYWDFLT
  5
E
102
{ACAD_REACTORS
330
C
102
}
330
C
100
AcDbDictionary
281
     1
  3
Normal
350
F
100
AcDbDictionaryWithDefault
340
F
  0
DICTIONARY
  5
6F
102
{ACAD_REACTORS
330
C
102
}
330
C
100
AcDbDictionary
281
     1
  0
DICTIONARY
  5
2A
102
{ACAD_REACTORS
330
C
102
}
330
C
100
AcDbDictionary
281
     1
  3
2dWireframe
350
2F
  3
3D Hidden
350
31
  3
3dWireframe
350
30
  3
Basic
350
32
  3
Brighten
350
36
  3
ColorChange
350
3A
  3
Conceptual
350
34
  3
Dim
350
35
  3
Facepattern
350
39
  3
Flat
350
2B
  3
FlatWithEdges
350
2C
  3
Gouraud
350
2D
  3
GouraudWithEdges
350
2E
  3
Linepattern
350
38
  3
Realistic
350
33
  3
Thicken
350
37
  0
LAYOUT
  5
1E
102
{ACAD_REACTORS
330
1A
102
}
330
1A
100
AcDbPlotSettings
  1

  2
none_device
  4

  6

 40
0.0
 41
0.0
 42
0.0
 43
0.0
 44
0.0
 45
0.0
 46
0.0
 47
0.0
 48
0.0
 49
0.0
140
0.0
141
0.0
142
1.0
143
1.0
 70
   688
 72
     0
 73
     0
 74
     5
  7

 75
    16
 76
     0
 77
     2
 78
   300
147
1.0
148
0.0
149
0.0
100
AcDbLayout
  1
Layout1
 70
     1
 71
     1
 10
0.0
 20
0.0
 11
12.0
 21
9.0
 12
0.0
 22
0.0
 32
0.0
 14
1.000000000000000E+20
 24
1.000000000000000E+20
 34
1.000000000000000E+20
 15
-1.000000000000000E+20
 25
-1.000000000000000E+20
 35
-1.000000000000000E+20
146
0.0
 13
0.0
 23
0.0
 33
0.0
 16
1.0
 26
0.0
 36
0.0
 17
0.0
 27
1.0
 37
0.0
 76
     0
330
1B
  0
LAYOUT
  5
26
102
{ACAD_REACTORS
330
1A
102
}
330
1A
100
AcDbPlotSettings
  1

  2
none_device
  4

  6

 40
0.0
 41
0.0
 42
0.0
 43
0.0
 44
0.0
 45
0.0
 46
0.0
 47
0.0
 48
0.0
 49
0.0
140
0.0
141
0.0
142
1.0
143
1.0
 70
   688
 72
     0
 73
     0
 74
     5
  7

 75
    16
 76
     0
 77
     2
 78
   300
147
1.0
148
0.0
149
0.0
100
AcDbLayout
  1
Layout2
 70
     1
 71
     2
 10
0.0
 20
0.0
 11
0.0
 21
0.0
 12
0.0
 22
0.0
 32
0.0
 14
0.0
 24
0.0
 34
0.0
 15
0.0
 25
0.0
 35
0.0
146
0.0
 13
0.0
 23
0.0
 33
0.0
 16
1.0
 26
0.0
 36
0.0
 17
0.0
 27
1.0
 37
0.0
 76
     0
330
23
  0
LAYOUT
  5
22
102
{ACAD_REACTORS
330
1A
102
}
330
1A
100
AcDbPlotSettings
  1

  2
none_device
  4

  6

 40
0.0
 41
0.0
 42
0.0
 43
0.0
 44
0.0
 45
0.0
 46
0.0
 47
0.0
 48
0.0
 49
0.0
140
0.0
141
0.0
142
1.0
143
1.0
 70
  1712
 72
     0
 73
     0
 74
     0
  7

 75
     0
 76
     0
 77
     2
 78
   300
147
1.0
148
0.0
149
0.0
100
AcDbLayout
  1
Model
 70
     1
 71
     0
 10
0.0
 20
0.0
 11
12.0
 21
9.0
 12
0.0
 22
0.0
 32
0.0
 14
-12.03696
 24
-8.9073
 34
0.0
 15
-1.36343
 25
-3.4491
 35
0.0
146
0.0
 13
0.0
 23
0.0
 33
0.0
 16
1.0
 26
0.0
 36
0.0
 17
0.0
 27
1.0
 37
0.0
 76
     0
330
1F
331
29
  0
MATERIAL
  5
3D
102
{ACAD_REACTORS
330
3B
102
}
330
3B
100
AcDbMaterial
  1
ByBlock
 72
     1
 94
      127
  0
MATERIAL
  5
3C
102
{ACAD_REACTORS
330
3B
102
}
330
3B
100
AcDbMaterial
  1
ByLayer
 72
     1
 94
      127
  0
MATERIAL
  5
3E
102
{ACAD_REACTORS
330
3B
102
}
330
3B
100
AcDbMaterial
  1
Global
 72
     1
 94
      127
  0
MLINESTYLE
  5
18
102
{ACAD_REACTORS
330
17
102
}
330
17
100
AcDbMlineStyle
  2
Standard
 70
     0
  3

 62
   256
 51
90.0
 52
90.0
 71
     2
 49
0.5
 62
   256
  6
BYLAYER
 49
-0.5
 62
   256
  6
BYLAYER
  0
ACDBPLACEHOLDER
  5
F
102
{ACAD_REACTORS
330
E
102
}
330
E
  0
VISUALSTYLE
  5
2F
102
{ACAD_REACTORS
330
2A
102
}
102
{ACAD_XDICTIONARY
360
57
102
}
330
2A
100
AcDbVisualStyle
  2
2dWireframe
 70
     4
 71
     0
 72
     2
 73
     0
 90
        0
 40
-0.6
 41
-30.0
 62
     5
 63
     7
421
 16777215
 74
     1
 91
        4
 64
     7
 65
   257
 75
     1
175
     1
 42
1.0
 92
        0
 66
   257
 43
1.0
 76
     1
 77
     6
 78
     2
 67
     7
 79
     5
170
     0
171
     0
290
     0
174
     0
 93
        1
 44
0.0
173
     0
291
     0
 45
0.0
  0
VISUALSTYLE
  5
31
102
{ACAD_REACTORS
330
2A
102
}
102
{ACAD_XDICTIONARY
360
5B
102
}
330
2A
100
AcDbVisualStyle
  2
3D Hidden
 70
     6
 71
     1
 72
     2
 73
     2
 90
        0
 40
-0.6
 41
-30.0
 62
     5
 63
     7
421
 16777215
 74
     2
 91
        2
 64
     7
 65
   257
 75
     2
175
     1
 42
40.0
 92
        0
 66
   257
 43
1.0
 76
     1
 77
     6
 78
     2
 67
     7
 79
     3
170
     0
171
     0
290
     0
174
     0
 93
        1
 44
0.0
173
     0
291
     0
 45
0.0
  0
VISUALSTYLE
  5
30
102
{ACAD_REACTORS
330
2A
102
}
102
{ACAD_XDICTIONARY
360
59
102
}
330
2A
100
AcDbVisualStyle
  2
3dWireframe
 70
     5
 71
     0
 72
     2
 73
     0
 90
        0
 40
-0.6
 41
-30.0
 62
     5
 63
     7
421
 16777215
 74
     1
 91
        4
 64
     7
 65
   257
 75
     1
175
     1
 42
1.0
 92
        0
 66
   257
 43
1.0
 76
     1
 77
     6
 78
     2
 67
     7
 79
     5
170
     0
171
     0
290
     0
174
     0
 93
        1
 44
0.0
173
     0
291
     0
 45
0.0
  0
VISUALSTYLE
  5
32
102
{ACAD_REACTORS
330
2A
102
}
102
{ACAD_XDICTIONARY
360
5D
102
}
330
2A
100
AcDbVisualStyle
  2
Basic
 70
     7
 71
     1
 72
     0
 73
     1
 90
        0
 40
-0.6
 41
-30.0
 62
     5
 63
     7
421
 16777215
 74
     0
 91
        4
 64
     7
 65
   257
 75
     1
175
     1
 42
1.0
 92
        8
 66
     7
 43
1.0
 76
     1
 77
     6
 78
     2
 67
     7
 79
     5
170
     0
171
     0
290
     0
174
     0
 93
        1
 44
0.0
173
     0
291
     1
 45
0.0
  0
VISUALSTYLE
  5
36
102
{ACAD_REACTORS
330
2A
102
}
102
{ACAD_XDICTIONARY
360
65
102
}
330
2A
100
AcDbVisualStyle
  2
Brighten
 70
    12
 71
     2
 72
     2
 73
     0
 90
        0
 40
-0.6
 41
-30.0
 62
     5
 63
     7
421
 16777215
 74
     1
 91
        4
 64
     7
 65
   257
 75
     1
175
     1
 42
1.0
 92
        8
 66
     7
 43
1.0
 76
     1
 77
     6
 78
     2
 67
     7
 79
     5
170
     0
171
     0
290
     0
174
     0
 93
        1
 44
50.0
173
     0
291
     1
 45
0.0
  0
VISUALSTYLE
  5
3A
102
{ACAD_REACTORS
330
2A
102
}
102
{ACAD_XDICTIONARY
360
6D
102
}
330
2A
100
AcDbVisualStyle
  2
ColorChange
 70
    16
 71
     2
 72
     2
 73
     3
 90
        0
 40
-0.6
 41
-30.0
 62
     5
 63
     8
421
  8421504
 74
     1
 91
        4
 64
     7
 65
   257
 75
     1
175
     1
 42
1.0
 92
        8
 66
     8
424
  8421504
 43
1.0
 76
     1
 77
     6
 78
     2
 67
     7
 79
     5
170
     0
171
     0
290
     0
174
     0
 93
        1
 44
0.0
173
     0
291
     1
 45
0.0
  0
VISUALSTYLE
  5
34
102
{ACAD_REACTORS
330
2A
102
}
102
{ACAD_XDICTIONARY
360
61
102
}
330
2A
100
AcDbVisualStyle
  2
Conceptual
 70
     9
 71
     3
 72
     2
 73
     0
 90
        0
 40
-0.6
 41
-30.0
 62
     5
 63
     7
421
 16777215
 74
     2
 91
        2
 64
     7
 65
   257
 75
     1
175
     1
 42
40.0
 92
        8
 66
     7
 43
1.0
 76
     1
 77
     6
 78
     2
 67
     7
 79
     3
170
     0
171
     0
290
     0
174
     0
 93
        1
 44
0.0
173
     0
291
     0
 45
0.0
  0
VISUALSTYLE
  5
35
102
{ACAD_REACTORS
330
2A
102
}
102
{ACAD_XDICTIONARY
360
63
102
}
330
2A
100
AcDbVisualStyle
  2
Dim
 70
    11
 71
     2
 72
     2
 73
     0
 90
        0
 40
-0.6
 41
-30.0
 62
     5
 63
     7
421
 16777215
 74
     1
 91
        4
 64
     7
 65
   257
 75
     1
175
     1
 42
1.0
 92
        8
 66
     7
 43
1.0
 76
     1
 77
     6
 78
     2
 67
     7
 79
     5
170
     0
171
     0
290
     0
174
     0
 93
        1
 44
-50.0
173
     0
291
     1
 45
0.0
  0
VISUALSTYLE
  5
39
102
{ACAD_REACTORS
330
2A
102
}
102
{ACAD_XDICTIONARY
360
6B
102
}
330
2A
100
AcDbVisualStyle
  2
Facepattern
 70
    15
 71
     2
 72
     2
 73
     0
 90
        0
 40
-0.6
 41
-30.0
 62
     5
 63
     7
421
 16777215
 74
     1
 91
        4
 64
     7
 65
   257
 75
     1
175
     1
 42
1.0
 92
        8
 66
     7
 43
1.0
 76
     1
 77
     6
 78
     2
 67
     7
 79
     5
170
     0
171
     0
290
     0
174
     0
 93
        1
 44
0.0
173
     0
291
     1
 45
0.0
  0
VISUALSTYLE
  5
2B
102
{ACAD_REACTORS
330
2A
102
}
102
{ACAD_XDICTIONARY
360
4F
102
}
330
2A
100
AcDbVisualStyle
  2
Flat
 70
     0
 71
     2
 72
     1
 73
     1
 90
        2
 40
-0.6
 41
30.0
 62
     5
 63
     7
421
 16777215
 74
     0
 91
        4
 64
     7
 65
   257
 75
     1
175
     1
 42
1.0
 92
        8
 66
     7
 43
1.0
 76
     1
 77
     6
 78
     2
 67
     7
 79
     5
170
     0
171
     0
290
     0
174
     0
 93
       13
 44
0.0
173
     0
291
     1
 45
0.0
  0
VISUALSTYLE
  5
2C
102
{ACAD_REACTORS
330
2A
102
}
102
{ACAD_XDICTIONARY
360
51
102
}
330
2A
100
AcDbVisualStyle
  2
FlatWithEdges
 70
     1
 71
     2
 72
     1
 73
     1
 90
        2
 40
-0.6
 41
30.0
 62
     5
 63
     7
421
 16777215
 74
     1
 91
        4
 64
     7
 65
   257
 75
     1
175
     1
 42
1.0
 92
        0
 66
   257
 43
1.0
 76
     1
 77
     6
 78
     2
 67
     7
 79
     5
170
     0
171
     0
290
     0
174
     0
 93
       13
 44
0.0
173
     0
291
     1
 45
0.0
  0
VISUALSTYLE
  5
2D
102
{ACAD_REACTORS
330
2A
102
}
102
{ACAD_XDICTIONARY
360
53
102
}
330
2A
100
AcDbVisualStyle
  2
Gouraud
 70
     2
 71
     2
 72
     2
 73
     1
 90
        2
 40
-0.6
 41
30.0
 62
     5
 63
     7
421
 16777215
 74
     0
 91
        4
 64
     7
 65
   257
 75
     1
175
     1
 42
1.0
 92
        0
 66
     7
 43
1.0
 76
     1
 77
     6
 78
     2
 67
     7
 79
     5
170
     0
171
     0
290
     0
174
     0
 93
       13
 44
0.0
173
     0
291
     1
 45
0.0
  0
VISUALSTYLE
  5
2E
102
{ACAD_REACTORS
330
2A
102
}
102
{ACAD_XDICTIONARY
360
55
102
}
330
2A
100
AcDbVisualStyle
  2
GouraudWithEdges
 70
     3
 71
     2
 72
     2
 73
     1
 90
        2
 40
-0.6
 41
30.0
 62
     5
 63
     7
421
 16777215
 74
     1
 91
        4
 64
     7
 65
   257
 75
     1
175
     1
 42
1.0
 92
        0
 66
   257
 43
1.0
 76
     1
 77
     6
 78
     2
 67
     7
 79
     5
170
     0
171
     0
290
     0
174
     0
 93
       13
 44
0.0
173
     0
291
     1
 45
0.0
  0
VISUALSTYLE
  5
38
102
{ACAD_REACTORS
330
2A
102
}
102
{ACAD_XDICTIONARY
360
69
102
}
330
2A
100
AcDbVisualStyle
  2
Linepattern
 70
    14
 71
     2
 72
     2
 73
     0
 90
        0
 40
-0.6
 41
-30.0
 62
     5
 63
     7
421
 16777215
 74
     1
 91
        4
 64
     7
 65
   257
 75
     7
175
     7
 42
1.0
 92
        8
 66
     7
 43
1.0
 76
     1
 77
     6
 78
     2
 67
     7
 79
     5
170
     0
171
     0
290
     0
174
     0
 93
        1
 44
0.0
173
     0
291
     1
 45
0.0
  0
VISUALSTYLE
  5
33
102
{ACAD_REACTORS
330
2A
102
}
102
{ACAD_XDICTIONARY
360
5F
102
}
330
2A
100
AcDbVisualStyle
  2
Realistic
 70
     8
 71
     2
 72
     2
 73
     0
 90
        0
 40
-0.6
 41
-30.0
 62
     5
 63
     7
421
 16777215
 74
     1
 91
        0
 64
     7
 65
   257
 75
     1
175
     1
 42
1.0
 92
        8
 66
     8
424
  7895160
 43
1.0
 76
     1
 77
     6
 78
     2
 67
     7
 79
     5
170
     0
171
     0
290
     0
174
     0
 93
       13
 44
0.0
173
     0
291
     0
 45
0.0
  0
VISUALSTYLE
  5
37
102
{ACAD_REACTORS
330
2A
102
}
102
{ACAD_XDICTIONARY
360
67
102
}
330
2A
100
AcDbVisualStyle
  2
Thicken
 70
    13
 71
     2
 72
     2
 73
     0
 90
        0
 40
-0.6
 41
-30.0
 62
     5
 63
     7
421
 16777215
 74
     1
 91
        4
 64
     7
 65
   257
 75
     1
175
     1
 42
1.0
 92
       12
 66
     7
 43
1.0
 76
     1
 77
     6
 78
     2
 67
     7
 79
     5
170
     0
171
     0
290
     0
174
     0
 93
        1
 44
0.0
173
     0
291
     1
 45
0.0
  0
DICTIONARY
  5
57
330
2F
100
AcDbDictionary
280
     1
281
     1
  3
ACAD_XREC_ROUNDTRIP
360
58
  0
DICTIONARY
  5
5B
330
31
100
AcDbDictionary
280
     1
281
     1
  3
ACAD_XREC_ROUNDTRIP
360
5C
  0
DICTIONARY
  5
59
330
30
100
AcDbDictionary
280
     1
281
     1
  3
ACAD_XREC_ROUNDTRIP
360
5A
  0
DICTIONARY
  5
5D
330
32
100
AcDbDictionary
280
     1
281
     1
  3
ACAD_XREC_ROUNDTRIP
360
5E
  0
DICTIONARY
  5
65
330
36
100
AcDbDictionary
280
     1
281
     1
  3
ACAD_XREC_ROUNDTRIP
360
66
  0
DICTIONARY
  5
6D
330
3A
100
AcDbDictionary
280
     1
281
     1
  3
ACAD_XREC_ROUNDTRIP
360
6E
  0
DICTIONARY
  5
61
330
34
100
AcDbDictionary
280
     1
281
     1
  3
ACAD_XREC_ROUNDTRIP
360
62
  0
DICTIONARY
  5
63
330
35
100
AcDbDictionary
280
     1
281
     1
  3
ACAD_XREC_ROUNDTRIP
360
64
  0
DICTIONARY
  5
6B
330
39
100
AcDbDictionary
280
     1
281
     1
  3
ACAD_XREC_ROUNDTRIP
360
6C
  0
DICTIONARY
  5
4F
330
2B
100
AcDbDictionary
280
     1
281
     1
  3
ACAD_XREC_ROUNDTRIP
360
50
  0
DICTIONARY
  5
51
330
2C
100
AcDbDictionary
280
     1
281
     1
  3
ACAD_XREC_ROUNDTRIP
360
52
  0
DICTIONARY
  5
53
330
2D
100
AcDbDictionary
280
     1
281
     1
  3
ACAD_XREC_ROUNDTRIP
360
54
  0
DICTIONARY
  5
55
330
2E
100
AcDbDictionary
280
     1
281
     1
  3
ACAD_XREC_ROUNDTRIP
360
56
  0
DICTIONARY
  5
69
330
38
100
AcDbDictionary
280
     1
281
     1
  3
ACAD_XREC_ROUNDTRIP
360
6A
  0
DICTIONARY
  5
5F
330
33
100
AcDbDictionary
280
     1
281
     1
  3
ACAD_XREC_ROUNDTRIP
360
60
  0
DICTIONARY
  5
67
330
37
100
AcDbDictionary
280
     1
281
     1
  3
ACAD_XREC_ROUNDTRIP
360
68
  0
XRECORD
  5
58
102
{ACAD_REACTORS
330
57
102
}
330
57
100
AcDbXrecord
280
     1
102
RTVSPropertyOp0
 70
     1
102
RTVSPropertyOp1
 70
     1
102
RTVSPropertyOp2
 70
     1
102
RTVSPropertyOp3
 70
     1
102
RTVSPropertyOp4
 70
     1
102
RTVSPropertyOp5
 70
     1
102
RTVSPropertyOp6
 70
     1
102
RTVSPropertyOp7
 70
     1
102
RTVSPropertyOp8
 70
     1
102
RTVSPropertyOp9
 70
     1
102
RTVSPropertyOp10
 70
     1
102
RTVSPropertyOp11
 70
     1
102
RTVSPropertyOp12
 70
     1
102
RTVSPropertyOp13
 70
     1
102
RTVSPropertyOp14
 70
     1
102
RTVSPropertyOp15
 70
     1
102
RTVSPropertyOp16
 70
     1
102
RTVSPropertyOp17
 70
     1
102
RTVSPropertyOp18
 70
     1
102
RTVSPropertyOp19
 70
     1
102
RTVSPropertyOp20
 70
     1
102
RTVSPropertyOp21
 70
     1
102
RTVSPropertyOp22
 70
     1
102
RTVSPropertyOp23
 70
     1
102
RTVSPropertyOp24
 70
     1
102
RTVSPropertyOp25
 70
     1
102
RTVSPropertyOp26
 70
     1
102
RTVSPropertyOp27
 70
     1
102
RTVSPropertyOp28
 70
     1
102
RTVSPropertyOp29
 70
     1
102
RTVSPropertyOp30
 70
     1
102
RTVSPropertyOp31
 70
     1
102
RTVSPropertyOp32
 70
     1
  0
XRECORD
  5
5C
102
{ACAD_REACTORS
330
5B
102
}
330
5B
100
AcDbXrecord
280
     1
102
RTVSPropertyOp0
 70
     1
102
RTVSPropertyOp1
 70
     1
102
RTVSPropertyOp2
 70
     1
102
RTVSPropertyOp3
 70
     1
102
RTVSPropertyOp4
 70
     1
102
RTVSPropertyOp5
 70
     1
102
RTVSPropertyOp6
 70
     1
102
RTVSPropertyOp7
 70
     1
102
RTVSPropertyOp8
 70
     1
102
RTVSPropertyOp9
 70
     1
102
RTVSPropertyOp10
 70
     1
102
RTVSPropertyOp11
 70
     1
102
RTVSPropertyOp12
 70
     1
102
RTVSPropertyOp13
 70
     1
102
RTVSPropertyOp14
 70
     1
102
RTVSPropertyOp15
 70
     1
102
RTVSPropertyOp16
 70
     1
102
RTVSPropertyOp17
 70
     1
102
RTVSPropertyOp18
 70
     1
102
RTVSPropertyOp19
 70
     1
102
RTVSPropertyOp20
 70
     1
102
RTVSPropertyOp21
 70
     1
102
RTVSPropertyOp22
 70
     1
102
RTVSPropertyOp23
 70
     1
102
RTVSPropertyOp24
 70
     1
102
RTVSPropertyOp25
 70
     1
102
RTVSPropertyOp26
 70
     1
102
RTVSPropertyOp27
 70
     1
102
RTVSPropertyOp28
 70
     1
102
RTVSPropertyOp29
 70
     1
102
RTVSPropertyOp30
 70
     1
102
RTVSPropertyOp31
 70
     1
102
RTVSPropertyOp32
 70
     1
  0
XRECORD
  5
5A
102
{ACAD_REACTORS
330
59
102
}
330
59
100
AcDbXrecord
280
     1
102
RTVSPropertyOp0
 70
     1
102
RTVSPropertyOp1
 70
     1
102
RTVSPropertyOp2
 70
     1
102
RTVSPropertyOp3
 70
     1
102
RTVSPropertyOp4
 70
     1
102
RTVSPropertyOp5
 70
     1
102
RTVSPropertyOp6
 70
     1
102
RTVSPropertyOp7
 70
     1
102
RTVSPropertyOp8
 70
     1
102
RTVSPropertyOp9
 70
     1
102
RTVSPropertyOp10
 70
     1
102
RTVSPropertyOp11
 70
     1
102
RTVSPropertyOp12
 70
     1
102
RTVSPropertyOp13
 70
     1
102
RTVSPropertyOp14
 70
     1
102
RTVSPropertyOp15
 70
     1
102
RTVSPropertyOp16
 70
     1
102
RTVSPropertyOp17
 70
     1
102
RTVSPropertyOp18
 70
     1
102
RTVSPropertyOp19
 70
     1
102
RTVSPropertyOp20
 70
     1
102
RTVSPropertyOp21
 70
     1
102
RTVSPropertyOp22
 70
     1
102
RTVSPropertyOp23
 70
     1
102
RTVSPropertyOp24
 70
     1
102
RTVSPropertyOp25
 70
     1
102
RTVSPropertyOp26
 70
     1
102
RTVSPropertyOp27
 70
     1
102
RTVSPropertyOp28
 70
     1
102
RTVSPropertyOp29
 70
     1
102
RTVSPropertyOp30
 70
     1
102
RTVSPropertyOp31
 70
     1
102
RTVSPropertyOp32
 70
     1
  0
XRECORD
  5
5E
102
{ACAD_REACTORS
330
5D
102
}
330
5D
100
AcDbXrecord
280
     1
102
RTVSPropertyOp0
 70
     1
102
RTVSPropertyOp1
 70
     1
102
RTVSPropertyOp2
 70
     1
102
RTVSPropertyOp3
 70
     1
102
RTVSPropertyOp4
 70
     1
102
RTVSPropertyOp5
 70
     1
102
RTVSPropertyOp6
 70
     1
102
RTVSPropertyOp7
 70
     1
102
RTVSPropertyOp8
 70
     1
102
RTVSPropertyOp9
 70
     1
102
RTVSPropertyOp10
 70
     1
102
RTVSPropertyOp11
 70
     1
102
RTVSPropertyOp12
 70
     1
102
RTVSPropertyOp13
 70
     1
102
RTVSPropertyOp14
 70
     1
102
RTVSPropertyOp15
 70
     1
102
RTVSPropertyOp16
 70
     1
102
RTVSPropertyOp17
 70
     1
102
RTVSPropertyOp18
 70
     1
102
RTVSPropertyOp19
 70
     1
102
RTVSPropertyOp20
 70
     1
102
RTVSPropertyOp21
 70
     1
102
RTVSPropertyOp22
 70
     1
102
RTVSPropertyOp23
 70
     1
102
RTVSPropertyOp24
 70
     1
102
RTVSPropertyOp25
 70
     1
102
RTVSPropertyOp26
 70
     1
102
RTVSPropertyOp27
 70
     1
102
RTVSPropertyOp28
 70
     1
102
RTVSPropertyOp29
 70
     1
102
RTVSPropertyOp30
 70
     1
102
RTVSPropertyOp31
 70
     1
102
RTVSPropertyOp32
 70
     1
  0
XRECORD
  5
66
102
{ACAD_REACTORS
330
65
102
}
330
65
100
AcDbXrecord
280
     1
102
RTVSPropertyOp0
 70
     1
102
RTVSPropertyOp1
 70
     1
102
RTVSPropertyOp2
 70
     1
102
RTVSPropertyOp3
 70
     1
102
RTVSPropertyOp4
 70
     1
102
RTVSPropertyOp5
 70
     1
102
RTVSPropertyOp6
 70
     1
102
RTVSPropertyOp7
 70
     1
102
RTVSPropertyOp8
 70
     1
102
RTVSPropertyOp9
 70
     1
102
RTVSPropertyOp10
 70
     1
102
RTVSPropertyOp11
 70
     1
102
RTVSPropertyOp12
 70
     1
102
RTVSPropertyOp13
 70
     1
102
RTVSPropertyOp14
 70
     1
102
RTVSPropertyOp15
 70
     1
102
RTVSPropertyOp16
 70
     1
102
RTVSPropertyOp17
 70
     1
102
RTVSPropertyOp18
 70
     1
102
RTVSPropertyOp19
 70
     1
102
RTVSPropertyOp20
 70
     1
102
RTVSPropertyOp21
 70
     1
102
RTVSPropertyOp22
 70
     1
102
RTVSPropertyOp23
 70
     1
102
RTVSPropertyOp24
 70
     1
102
RTVSPropertyOp25
 70
     1
102
RTVSPropertyOp26
 70
     1
102
RTVSPropertyOp27
 70
     1
102
RTVSPropertyOp28
 70
     1
102
RTVSPropertyOp29
 70
     1
102
RTVSPropertyOp30
 70
     1
102
RTVSPropertyOp31
 70
     1
102
RTVSPropertyOp32
 70
     1
  0
XRECORD
  5
6E
102
{ACAD_REACTORS
330
6D
102
}
330
6D
100
AcDbXrecord
280
     1
102
RTVSPropertyOp0
 70
     1
102
RTVSPropertyOp1
 70
     1
102
RTVSPropertyOp2
 70
     1
102
RTVSPropertyOp3
 70
     1
102
RTVSPropertyOp4
 70
     1
102
RTVSPropertyOp5
 70
     1
102
RTVSPropertyOp6
 70
     1
102
RTVSPropertyOp7
 70
     1
102
RTVSPropertyOp8
 70
     1
102
RTVSPropertyOp9
 70
     1
102
RTVSPropertyOp10
 70
     1
102
RTVSPropertyOp11
 70
     1
102
RTVSPropertyOp12
 70
     1
102
RTVSPropertyOp13
 70
     1
102
RTVSPropertyOp14
 70
     1
102
RTVSPropertyOp15
 70
     1
102
RTVSPropertyOp16
 70
     1
102
RTVSPropertyOp17
 70
     1
102
RTVSPropertyOp18
 70
     1
102
RTVSPropertyOp19
 70
     1
102
RTVSPropertyOp20
 70
     1
102
RTVSPropertyOp21
 70
     1
102
RTVSPropertyOp22
 70
     1
102
RTVSPropertyOp23
 70
     1
102
RTVSPropertyOp24
 70
     1
102
RTVSPropertyOp25
 70
     1
102
RTVSPropertyOp26
 70
     1
102
RTVSPropertyOp27
 70
     1
102
RTVSPropertyOp28
 70
     1
102
RTVSPropertyOp29
 70
     1
102
RTVSPropertyOp30
 70
     1
102
RTVSPropertyOp31
 70
     1
102
RTVSPropertyOp32
 70
     1
  0
XRECORD
  5
62
102
{ACAD_REACTORS
330
61
102
}
330
61
100
AcDbXrecord
280
     1
102
RTVSPropertyOp0
 70
     1
102
RTVSPropertyOp1
 70
     1
102
RTVSPropertyOp2
 70
     1
102
RTVSPropertyOp3
 70
     1
102
RTVSPropertyOp4
 70
     1
102
RTVSPropertyOp5
 70
     1
102
RTVSPropertyOp6
 70
     1
102
RTVSPropertyOp7
 70
     1
102
RTVSPropertyOp8
 70
     1
102
RTVSPropertyOp9
 70
     1
102
RTVSPropertyOp10
 70
     1
102
RTVSPropertyOp11
 70
     1
102
RTVSPropertyOp12
 70
     1
102
RTVSPropertyOp13
 70
     1
102
RTVSPropertyOp14
 70
     1
102
RTVSPropertyOp15
 70
     1
102
RTVSPropertyOp16
 70
     1
102
RTVSPropertyOp17
 70
     1
102
RTVSPropertyOp18
 70
     1
102
RTVSPropertyOp19
 70
     1
102
RTVSPropertyOp20
 70
     1
102
RTVSPropertyOp21
 70
     1
102
RTVSPropertyOp22
 70
     1
102
RTVSPropertyOp23
 70
     1
102
RTVSPropertyOp24
 70
     1
102
RTVSPropertyOp25
 70
     1
102
RTVSPropertyOp26
 70
     1
102
RTVSPropertyOp27
 70
     1
102
RTVSPropertyOp28
 70
     1
102
RTVSPropertyOp29
 70
     1
102
RTVSPropertyOp30
 70
     1
102
RTVSPropertyOp31
 70
     1
102
RTVSPropertyOp32
 70
     1
  0
XRECORD
  5
64
102
{ACAD_REACTORS
330
63
102
}
330
63
100
AcDbXrecord
280
     1
102
RTVSPropertyOp0
 70
     1
102
RTVSPropertyOp1
 70
     1
102
RTVSPropertyOp2
 70
     1
102
RTVSPropertyOp3
 70
     1
102
RTVSPropertyOp4
 70
     1
102
RTVSPropertyOp5
 70
     1
102
RTVSPropertyOp6
 70
     1
102
RTVSPropertyOp7
 70
     1
102
RTVSPropertyOp8
 70
     1
102
RTVSPropertyOp9
 70
     1
102
RTVSPropertyOp10
 70
     1
102
RTVSPropertyOp11
 70
     1
102
RTVSPropertyOp12
 70
     1
102
RTVSPropertyOp13
 70
     1
102
RTVSPropertyOp14
 70
     1
102
RTVSPropertyOp15
 70
     1
102
RTVSPropertyOp16
 70
     1
102
RTVSPropertyOp17
 70
     1
102
RTVSPropertyOp18
 70
     1
102
RTVSPropertyOp19
 70
     1
102
RTVSPropertyOp20
 70
     1
102
RTVSPropertyOp21
 70
     1
102
RTVSPropertyOp22
 70
     1
102
RTVSPropertyOp23
 70
     1
102
RTVSPropertyOp24
 70
     1
102
RTVSPropertyOp25
 70
     1
102
RTVSPropertyOp26
 70
     1
102
RTVSPropertyOp27
 70
     1
102
RTVSPropertyOp28
 70
     1
102
RTVSPropertyOp29
 70
     1
102
RTVSPropertyOp30
 70
     1
102
RTVSPropertyOp31
 70
     1
102
RTVSPropertyOp32
 70
     1
  0
XRECORD
  5
6C
102
{ACAD_REACTORS
330
6B
102
}
330
6B
100
AcDbXrecord
280
     1
102
RTVSPropertyOp0
 70
     1
102
RTVSPropertyOp1
 70
     1
102
RTVSPropertyOp2
 70
     1
102
RTVSPropertyOp3
 70
     1
102
RTVSPropertyOp4
 70
     1
102
RTVSPropertyOp5
 70
     1
102
RTVSPropertyOp6
 70
     1
102
RTVSPropertyOp7
 70
     1
102
RTVSPropertyOp8
 70
     1
102
RTVSPropertyOp9
 70
     1
102
RTVSPropertyOp10
 70
     1
102
RTVSPropertyOp11
 70
     1
102
RTVSPropertyOp12
 70
     1
102
RTVSPropertyOp13
 70
     1
102
RTVSPropertyOp14
 70
     1
102
RTVSPropertyOp15
 70
     1
102
RTVSPropertyOp16
 70
     1
102
RTVSPropertyOp17
 70
     1
102
RTVSPropertyOp18
 70
     1
102
RTVSPropertyOp19
 70
     1
102
RTVSPropertyOp20
 70
     1
102
RTVSPropertyOp21
 70
     1
102
RTVSPropertyOp22
 70
     1
102
RTVSPropertyOp23
 70
     1
102
RTVSPropertyOp24
 70
     1
102
RTVSPropertyOp25
 70
     1
102
RTVSPropertyOp26
 70
     1
102
RTVSPropertyOp27
 70
     1
102
RTVSPropertyOp28
 70
     1
102
RTVSPropertyOp29
 70
     1
102
RTVSPropertyOp30
 70
     1
102
RTVSPropertyOp31
 70
     1
102
RTVSPropertyOp32
 70
     1
  0
XRECORD
  5
50
102
{ACAD_REACTORS
330
4F
102
}
330
4F
100
AcDbXrecord
280
     1
102
RTVSPropertyOp0
 70
     1
102
RTVSPropertyOp1
 70
     1
102
RTVSPropertyOp2
 70
     1
102
RTVSPropertyOp3
 70
     1
102
RTVSPropertyOp4
 70
     1
102
RTVSPropertyOp5
 70
     1
102
RTVSPropertyOp6
 70
     1
102
RTVSPropertyOp7
 70
     1
102
RTVSPropertyOp8
 70
     1
102
RTVSPropertyOp9
 70
     1
102
RTVSPropertyOp10
 70
     1
102
RTVSPropertyOp11
 70
     1
102
RTVSPropertyOp12
 70
     1
102
RTVSPropertyOp13
 70
     1
102
RTVSPropertyOp14
 70
     1
102
RTVSPropertyOp15
 70
     1
102
RTVSPropertyOp16
 70
     1
102
RTVSPropertyOp17
 70
     1
102
RTVSPropertyOp18
 70
     1
102
RTVSPropertyOp19
 70
     1
102
RTVSPropertyOp20
 70
     1
102
RTVSPropertyOp21
 70
     1
102
RTVSPropertyOp22
 70
     1
102
RTVSPropertyOp23
 70
     1
102
RTVSPropertyOp24
 70
     1
102
RTVSPropertyOp25
 70
     1
102
RTVSPropertyOp26
 70
     1
102
RTVSPropertyOp27
 70
     1
102
RTVSPropertyOp28
 70
     1
102
RTVSPropertyOp29
 70
     1
102
RTVSPropertyOp30
 70
     1
102
RTVSPropertyOp31
 70
     1
102
RTVSPropertyOp32
 70
     1
  0
XRECORD
  5
52
102
{ACAD_REACTORS
330
51
102
}
330
51
100
AcDbXrecord
280
     1
102
RTVSPropertyOp0
 70
     1
102
RTVSPropertyOp1
 70
     1
102
RTVSPropertyOp2
 70
     1
102
RTVSPropertyOp3
 70
     1
102
RTVSPropertyOp4
 70
     1
102
RTVSPropertyOp5
 70
     1
102
RTVSPropertyOp6
 70
     1
102
RTVSPropertyOp7
 70
     1
102
RTVSPropertyOp8
 70
     1
102
RTVSPropertyOp9
 70
     1
102
RTVSPropertyOp10
 70
     1
102
RTVSPropertyOp11
 70
     1
102
RTVSPropertyOp12
 70
     1
102
RTVSPropertyOp13
 70
     1
102
RTVSPropertyOp14
 70
     1
102
RTVSPropertyOp15
 70
     1
102
RTVSPropertyOp16
 70
     1
102
RTVSPropertyOp17
 70
     1
102
RTVSPropertyOp18
 70
     1
102
RTVSPropertyOp19
 70
     1
102
RTVSPropertyOp20
 70
     1
102
RTVSPropertyOp21
 70
     1
102
RTVSPropertyOp22
 70
     1
102
RTVSPropertyOp23
 70
     1
102
RTVSPropertyOp24
 70
     1
102
RTVSPropertyOp25
 70
     1
102
RTVSPropertyOp26
 70
     1
102
RTVSPropertyOp27
 70
     1
102
RTVSPropertyOp28
 70
     1
102
RTVSPropertyOp29
 70
     1
102
RTVSPropertyOp30
 70
     1
102
RTVSPropertyOp31
 70
     1
102
RTVSPropertyOp32
 70
     1
  0
XRECORD
  5
54
102
{ACAD_REACTORS
330
53
102
}
330
53
100
AcDbXrecord
280
     1
102
RTVSPropertyOp0
 70
     1
102
RTVSPropertyOp1
 70
     1
102
RTVSPropertyOp2
 70
     1
102
RTVSPropertyOp3
 70
     1
102
RTVSPropertyOp4
 70
     1
102
RTVSPropertyOp5
 70
     1
102
RTVSPropertyOp6
 70
     1
102
RTVSPropertyOp7
 70
     1
102
RTVSPropertyOp8
 70
     1
102
RTVSPropertyOp9
 70
     1
102
RTVSPropertyOp10
 70
     1
102
RTVSPropertyOp11
 70
     1
102
RTVSPropertyOp12
 70
     1
102
RTVSPropertyOp13
 70
     1
102
RTVSPropertyOp14
 70
     1
102
RTVSPropertyOp15
 70
     1
102
RTVSPropertyOp16
 70
     1
102
RTVSPropertyOp17
 70
     1
102
RTVSPropertyOp18
 70
     1
102
RTVSPropertyOp19
 70
     1
102
RTVSPropertyOp20
 70
     1
102
RTVSPropertyOp21
 70
     1
102
RTVSPropertyOp22
 70
     1
102
RTVSPropertyOp23
 70
     1
102
RTVSPropertyOp24
 70
     1
102
RTVSPropertyOp25
 70
     1
102
RTVSPropertyOp26
 70
     1
102
RTVSPropertyOp27
 70
     1
102
RTVSPropertyOp28
 70
     1
102
RTVSPropertyOp29
 70
     1
102
RTVSPropertyOp30
 70
     1
102
RTVSPropertyOp31
 70
     1
102
RTVSPropertyOp32
 70
     1
  0
XRECORD
  5
56
102
{ACAD_REACTORS
330
55
102
}
330
55
100
AcDbXrecord
280
     1
102
RTVSPropertyOp0
 70
     1
102
RTVSPropertyOp1
 70
     1
102
RTVSPropertyOp2
 70
     1
102
RTVSPropertyOp3
 70
     1
102
RTVSPropertyOp4
 70
     1
102
RTVSPropertyOp5
 70
     1
102
RTVSPropertyOp6
 70
     1
102
RTVSPropertyOp7
 70
     1
102
RTVSPropertyOp8
 70
     1
102
RTVSPropertyOp9
 70
     1
102
RTVSPropertyOp10
 70
     1
102
RTVSPropertyOp11
 70
     1
102
RTVSPropertyOp12
 70
     1
102
RTVSPropertyOp13
 70
     1
102
RTVSPropertyOp14
 70
     1
102
RTVSPropertyOp15
 70
     1
102
RTVSPropertyOp16
 70
     1
102
RTVSPropertyOp17
 70
     1
102
RTVSPropertyOp18
 70
     1
102
RTVSPropertyOp19
 70
     1
102
RTVSPropertyOp20
 70
     1
102
RTVSPropertyOp21
 70
     1
102
RTVSPropertyOp22
 70
     1
102
RTVSPropertyOp23
 70
     1
102
RTVSPropertyOp24
 70
     1
102
RTVSPropertyOp25
 70
     1
102
RTVSPropertyOp26
 70
     1
102
RTVSPropertyOp27
 70
     1
102
RTVSPropertyOp28
 70
     1
102
RTVSPropertyOp29
 70
     1
102
RTVSPropertyOp30
 70
     1
102
RTVSPropertyOp31
 70
     1
102
RTVSPropertyOp32
 70
     1
  0
XRECORD
  5
6A
102
{ACAD_REACTORS
330
69
102
}
330
69
100
AcDbXrecord
280
     1
102
RTVSPropertyOp0
 70
     1
102
RTVSPropertyOp1
 70
     1
102
RTVSPropertyOp2
 70
     1
102
RTVSPropertyOp3
 70
     1
102
RTVSPropertyOp4
 70
     1
102
RTVSPropertyOp5
 70
     1
102
RTVSPropertyOp6
 70
     1
102
RTVSPropertyOp7
 70
     1
102
RTVSPropertyOp8
 70
     1
102
RTVSPropertyOp9
 70
     1
102
RTVSPropertyOp10
 70
     1
102
RTVSPropertyOp11
 70
     1
102
RTVSPropertyOp12
 70
     1
102
RTVSPropertyOp13
 70
     1
102
RTVSPropertyOp14
 70
     1
102
RTVSPropertyOp15
 70
     1
102
RTVSPropertyOp16
 70
     1
102
RTVSPropertyOp17
 70
     1
102
RTVSPropertyOp18
 70
     1
102
RTVSPropertyOp19
 70
     1
102
RTVSPropertyOp20
 70
     1
102
RTVSPropertyOp21
 70
     1
102
RTVSPropertyOp22
 70
     1
102
RTVSPropertyOp23
 70
     1
102
RTVSPropertyOp24
 70
     1
102
RTVSPropertyOp25
 70
     1
102
RTVSPropertyOp26
 70
     1
102
RTVSPropertyOp27
 70
     1
102
RTVSPropertyOp28
 70
     1
102
RTVSPropertyOp29
 70
     1
102
RTVSPropertyOp30
 70
     1
102
RTVSPropertyOp31
 70
     1
102
RTVSPropertyOp32
 70
     1
  0
XRECORD
  5
60
102
{ACAD_REACTORS
330
5F
102
}
330
5F
100
AcDbXrecord
280
     1
102
RTVSPropertyOp0
 70
     1
102
RTVSPropertyOp1
 70
     1
102
RTVSPropertyOp2
 70
     1
102
RTVSPropertyOp3
 70
     1
102
RTVSPropertyOp4
 70
     1
102
RTVSPropertyOp5
 70
     1
102
RTVSPropertyOp6
 70
     1
102
RTVSPropertyOp7
 70
     1
102
RTVSPropertyOp8
 70
     1
102
RTVSPropertyOp9
 70
     1
102
RTVSPropertyOp10
 70
     1
102
RTVSPropertyOp11
 70
     1
102
RTVSPropertyOp12
 70
     1
102
RTVSPropertyOp13
 70
     1
102
RTVSPropertyOp14
 70
     1
102
RTVSPropertyOp15
 70
     1
102
RTVSPropertyOp16
 70
     1
102
RTVSPropertyOp17
 70
     1
102
RTVSPropertyOp18
 70
     1
102
RTVSPropertyOp19
 70
     1
102
RTVSPropertyOp20
 70
     1
102
RTVSPropertyOp21
 70
     1
102
RTVSPropertyOp22
 70
     1
102
RTVSPropertyOp23
 70
     1
102
RTVSPropertyOp24
 70
     1
102
RTVSPropertyOp25
 70
     1
102
RTVSPropertyOp26
 70
     1
102
RTVSPropertyOp27
 70
     1
102
RTVSPropertyOp28
 70
     1
102
RTVSPropertyOp29
 70
     1
102
RTVSPropertyOp30
 70
     1
102
RTVSPropertyOp31
 70
     1
102
RTVSPropertyOp32
 70
     1
  0
XRECORD
  5
68
102
{ACAD_REACTORS
330
67
102
}
330
67
100
AcDbXrecord
280
     1
102
RTVSPropertyOp0
 70
     1
102
RTVSPropertyOp1
 70
     1
102
RTVSPropertyOp2
 70
     1
102
RTVSPropertyOp3
 70
     1
102
RTVSPropertyOp4
 70
     1
102
RTVSPropertyOp5
 70
     1
102
RTVSPropertyOp6
 70
     1
102
RTVSPropertyOp7
 70
     1
102
RTVSPropertyOp8
 70
     1
102
RTVSPropertyOp9
 70
     1
102
RTVSPropertyOp10
 70
     1
102
RTVSPropertyOp11
 70
     1
102
RTVSPropertyOp12
 70
     1
102
RTVSPropertyOp13
 70
     1
102
RTVSPropertyOp14
 70
     1
102
RTVSPropertyOp15
 70
     1
102
RTVSPropertyOp16
 70
     1
102
RTVSPropertyOp17
 70
     1
102
RTVSPropertyOp18
 70
     1
102
RTVSPropertyOp19
 70
     1
102
RTVSPropertyOp20
 70
     1
102
RTVSPropertyOp21
 70
     1
102
RTVSPropertyOp22
 70
     1
102
RTVSPropertyOp23
 70
     1
102
RTVSPropertyOp24
 70
     1
102
RTVSPropertyOp25
 70
     1
102
RTVSPropertyOp26
 70
     1
102
RTVSPropertyOp27
 70
     1
102
RTVSPropertyOp28
 70
     1
102
RTVSPropertyOp29
 70
     1
102
RTVSPropertyOp30
 70
     1
102
RTVSPropertyOp31
 70
     1
102
RTVSPropertyOp32
 70
     1
  0
ENDSEC
  0
EOF
