<?xml version="1.0" encoding="UTF-8"?>
<!DOCTYPE svg PUBLIC "-//W3C//DTD SVG 1.1//EN" "http://www.w3.org/Graphics/SVG/1.1/DTD/svg11.dtd">
<!-- Creator: CorelDRAW X6 -->
<svg xmlns="http://www.w3.org/2000/svg" xml:space="preserve" width="200mm" height="200mm" version="1.1" shape-rendering="geometricPrecision" text-rendering="geometricPrecision" image-rendering="optimizeQuality" fill-rule="evenodd" clip-rule="evenodd"
viewBox="0 0 20000 20000"
 xmlns:xlink="http://www.w3.org/1999/xlink">
 <g id="Layer_x0020_1">
  <metadata id="CorelCorpID_0Corel-Layer"/>
  <g id="_874338832">
   <circle fill="none" stroke="black" stroke-width="52.92" stroke-linecap="round" stroke-linejoin="round" transform="matrix(1.50148E-014 -0.566926 0.566926 1.50148E-014 10500 12500)" r="529"/>
   <circle fill="none" stroke="black" stroke-width="52.92" stroke-linecap="round" stroke-linejoin="round" transform="matrix(1.50148E-014 -0.566926 0.566926 1.50148E-014 12000 12500)" r="529"/>
   <circle fill="none" stroke="black" stroke-width="52.92" stroke-linecap="round" stroke-linejoin="round" transform="matrix(1.50148E-014 -0.566926 0.566926 1.50148E-014 9000 12500)" r="529"/>
   <path fill="none" fill-rule="nonzero" stroke="blue" stroke-width="52.92" stroke-linecap="round" stroke-linejoin="round" d="M11433 10550c-68,46 -50,207 -49,277 0,-91 -78,-215 -149,-134 -57,66 -45,221 -30,301 -2,-7 -4,-13 -7,-20 -21,-67 -35,-147 -86,-198 -68,-68 -167,-3 -211,62 -19,28 -27,57 -34,89 -8,33 -12,72 -11,109 -8,-41 -19,-79 -35,-115 -32,-69 -106,-91 -177,-88 -42,2 -82,19 -112,48 -29,28 -49,63 -60,101 -4,14 -6,28 -7,42 -1,-15 -3,-29 -7,-42 -11,-39 -31,-74 -60,-101 -30,-29 -70,-46 -112,-48 -71,-3 -145,19 -177,88 -16,36 -26,74 -35,115 1,-38 -3,-76 -11,-109 -7,-32 -15,-62 -34,-89 -45,-65 -143,-130 -211,-62 -51,51 -66,131 -86,198 -2,7 -4,13 -7,20 15,-79 27,-235 -30,-301 -70,-79 -144,35 -149,125 2,-74 15,-224 -50,-268 -86,-58 -128,36 -116,110 46,60 115,120 157,165 80,82 154,178 259,226 100,46 223,72 332,82 0,0 207,15 361,29 154,-14 308,-29 308,-29 110,-10 232,-36 333,-82 105,-48 179,-144 259,-226 45,-46 117,-109 163,-172 8,-73 -34,-159 -117,-102"/>
   <path fill="none" fill-rule="nonzero" stroke="blue" stroke-width="52.92" stroke-linecap="round" stroke-linejoin="round" d="M11587 10588c-7,21 -20,42 -36,64 8,-73 -34,-159 -117,-102 -68,46 -50,207 -49,277 0,-91 -78,-215 -149,-134 -57,66 -45,221 -30,301 -2,-7 -4,-13 -7,-20 -21,-67 -35,-147 -86,-198 -68,-68 -167,-3 -211,62 -19,28 -27,57 -34,89 -8,33 -12,72 -11,109 -8,-41 -19,-79 -35,-115 -32,-69 -106,-91 -177,-88 -42,2 -82,19 -112,48 -29,28 -49,63 -60,101 -4,14 -6,28 -7,42 -1,-15 -3,-29 -7,-42 -11,-39 -31,-74 -60,-101 -30,-29 -70,-46 -112,-48 -71,-3 -145,19 -177,88 -16,36 -26,74 -35,115 1,-38 -3,-76 -11,-109 -7,-32 -15,-62 -34,-89 -45,-65 -143,-130 -211,-62 -51,51 -66,131 -86,198 -2,7 -4,13 -7,20 15,-79 27,-235 -30,-301 -70,-79 -144,35 -149,125 2,-74 15,-224 -50,-268 -86,-58 -128,36 -116,110 -19,-24 -34,-48 -42,-71 -31,-88 -8,-187 -16,-278 -12,-156 -31,-342 -33,-498"/>
   <path fill="none" fill-rule="nonzero" stroke="blue" stroke-width="52.92" stroke-linecap="round" stroke-linejoin="round" d="M9386 9981c-15,89 -35,319 110,318 102,-1 101,-106 110,-181 0,123 -16,265 135,306 197,53 168,-84 207,-194 5,126 35,311 196,325 69,6 151,-16 178,-88 21,-56 23,-128 23,-188 15,68 2,161 49,219 34,42 115,81 169,74 127,-16 170,-171 188,-303 -18,132 63,320 203,301 199,-28 159,-223 198,-366 5,66 28,272 138,254 140,-23 83,-258 118,-342 10,60 49,291 137,180 57,-72 22,-279 30,-371"/>
   <path fill="none" fill-rule="nonzero" stroke="blue" stroke-width="52.92" stroke-linecap="round" stroke-linejoin="round" d="M11565 9937c-80,162 -271,234 -449,273 -471,103 -970,77 -1427,-76 -140,-47 -286,-114 -362,-241 -15,-25 -27,-52 -39,-79"/>
   <path fill="none" fill-rule="nonzero" stroke="blue" stroke-width="52.92" stroke-linecap="round" stroke-linejoin="round" d="M10439 10027c10,-14 13,-32 16,-60 16,-146 -24,-305 -20,-453 -101,151 -184,344 -174,529 1,11 118,15 130,11 26,-7 40,-15 49,-27"/>
   <path fill="none" fill-rule="nonzero" stroke="blue" stroke-width="52.92" stroke-linecap="round" stroke-linejoin="round" d="M10590 10027c-10,-14 -12,-32 -16,-60 -16,-146 24,-305 20,-453 101,151 184,344 174,529 -1,11 -118,15 -130,11 -26,-7 -40,-15 -49,-27"/>
   <path fill="none" fill-rule="nonzero" stroke="blue" stroke-width="52.92" stroke-linecap="round" stroke-linejoin="round" d="M9885 8916c185,54 372,133 562,168 3,139 -154,295 -252,376 -119,98 -270,156 -426,137 -116,-14 -231,-31 -336,-88 -79,-43 -163,-106 -228,-167 -97,-91 -160,-212 -191,-341 -16,-64 -19,-127 -25,-193 -6,-64 6,-115 13,-179 29,-3 90,29 119,40 249,96 508,172 765,247"/>
   <path fill="none" fill-rule="nonzero" stroke="blue" stroke-width="52.92" stroke-linecap="round" stroke-linejoin="round" d="M9911 8937c-28,61 -60,105 -133,104 -98,-1 -149,-83 -127,-174"/>
   <path fill="none" fill-rule="nonzero" stroke="blue" stroke-width="52.92" stroke-linecap="round" stroke-linejoin="round" d="M12208 9152c0,-423 70,-849 99,-1270 7,-105 -1,-228 39,-326 25,-60 169,-206 170,-36"/>
   <path fill="none" fill-rule="nonzero" stroke="blue" stroke-width="52.92" stroke-linecap="round" stroke-linejoin="round" d="M11149 8916c-185,54 -372,133 -562,168 -3,139 154,295 252,376 119,98 270,156 426,137 116,-14 231,-31 336,-88 79,-43 163,-106 228,-167 97,-91 160,-212 191,-341 16,-64 19,-127 25,-193 6,-64 -6,-115 -13,-179 -29,-3 -90,29 -119,40 -249,96 -508,172 -765,247"/>
   <path fill="none" fill-rule="nonzero" stroke="blue" stroke-width="52.92" stroke-linecap="round" stroke-linejoin="round" d="M11123 8937c28,61 60,105 133,104 98,-1 149,-83 127,-174"/>
   <path fill="none" fill-rule="nonzero" stroke="blue" stroke-width="52.92" stroke-linecap="round" stroke-linejoin="round" d="M8824 9181c25,-104 -19,-223 -12,-332 8,-131 17,-259 18,-390 2,-213 -6,-406 -48,-614 -19,-95 -43,-207 -96,-291 -64,-102 -145,-68 -174,47"/>
   <path fill="none" fill-rule="nonzero" stroke="blue" stroke-width="52.92" stroke-linecap="round" stroke-linejoin="round" d="M9735 8939c-8,2 -16,2 -24,-1 -11,-4 -17,-15 -21,-25 -1,-3 -7,-34 -5,-33 36,10 53,19 80,28 -4,15 -16,28 -30,32z"/>
   <path fill="none" fill-rule="nonzero" stroke="blue" stroke-width="52.92" stroke-linecap="round" stroke-linejoin="round" d="M11168 8930c4,23 32,31 51,25 24,-7 29,-27 24,-50 -10,1 -39,13 -39,13l-37 12z"/>
   <path fill="none" fill-rule="nonzero" stroke="blue" stroke-width="52.92" stroke-linecap="round" stroke-linejoin="round" d="M10352 11340c73,28 190,18 269,-2"/>
   <path fill="none" fill-rule="nonzero" stroke="blue" stroke-width="52.92" stroke-linecap="round" stroke-linejoin="round" d="M8857 6850c133,-242 343,-434 577,-575 119,-72 246,-132 377,-179 104,-38 274,-117 386,-92"/>
   <path fill="none" fill-rule="nonzero" stroke="blue" stroke-width="52.92" stroke-linecap="round" stroke-linejoin="round" d="M9022 8089c38,107 -45,186 71,240 154,71 305,150 463,211 241,93 609,207 872,307"/>
   <path fill="none" fill-rule="nonzero" stroke="blue" stroke-width="52.92" stroke-linecap="round" stroke-linejoin="round" d="M12042 8089c-38,107 45,186 -71,240 -154,71 -305,150 -463,211 -241,93 -609,207 -872,307"/>
   <path fill="none" fill-rule="nonzero" stroke="black" stroke-width="52.92" stroke-linecap="round" stroke-linejoin="round" d="M10987 11800l0 -219c160,-10 319,-42 449,-138 126,-92 253,-276 335,-411 53,-88 53,-167 47,-263 -8,-129 23,-275 67,-396 60,-164 171,-332 172,-513 2,-183 -163,-212 -299,-251l-25 0c121,-90 306,-108 400,-231 126,-164 26,-428 155,-590 38,-47 90,-79 136,-119 131,-115 193,-288 234,-457 5,-20 10,-40 14,-60 98,-433 141,-964 -54,-1378 -165,-352 -496,-595 -841,-752 -362,-165 -762,-237 -1158,-246 -465,-10 -944,56 -1350,284 -687,385 -1069,1209 -1017,1994 20,307 113,632 354,824 5,4 10,8 15,11 76,58 164,112 191,203 30,102 -30,214 3,315 41,125 191,158 310,224l-8 0c-136,39 -222,68 -220,251 2,181 113,349 172,513 51,139 62,261 68,407 5,119 25,207 100,304 65,83 152,147 241,202 117,71 230,159 358,208 59,23 118,39 176,51l0 234 -1212 0c-276,0 -500,224 -500,500l0 400c0,276 224,500 500,500l3400 0c276,0 500,-224 500,-500l0 -400c0,-276 -224,-500 -500,-500l-1213 0z"/>
  </g>
  <circle fill="none" stroke="black" stroke-width="52.92" stroke-linecap="round" stroke-linejoin="round" transform="matrix(7.50738E-015 -0.283463 0.283463 7.50738E-015 9750 12500)" r="529"/>
  <circle fill="none" stroke="black" stroke-width="52.92" stroke-linecap="round" stroke-linejoin="round" transform="matrix(7.50738E-015 -0.283463 0.283463 7.50738E-015 11250 12500)" r="529"/>
 </g>
</svg>
