  0
SECTION
  2
HEADER
  9
$ACADVER
  1
AC1021
  9
$ACADMAINTVER
 70
    25
  9
$DWGCODEPAGE
  3
ANSI_1252
  9
$INSBASE
 10
0.0
 20
0.0
 30
0.0
  9
$EXTMIN
 10
-1.77913
 20
-3.22646
 30
0.0
  9
$EXTMAX
 10
2.78056
 20
4.25087
 30
0.0
  9
$LIMMIN
 10
0.0
 20
0.0
  9
$LIMMAX
 10
12.0
 20
9.0
  9
$ORTHOMODE
 70
     0
  9
$REGENMODE
 70
     1
  9
$FILLMODE
 70
     1
  9
$QTEXTMODE
 70
     0
  9
$MIRRTEXT
 70
     1
  9
$LTSCALE
 40
1.0
  9
$ATTMODE
 70
     1
  9
$TEXTSIZE
 40
0.2
  9
$TRACEWID
 40
0.05
  9
$TEXTSTYLE
  7
Standard
  9
$CLAYER
  8
0
  9
$CELTYPE
  6
ByLayer
  9
$CECOLOR
 62
   256
  9
$CELTSCALE
 40
1.0
  9
$DISPSILH
 70
     0
  9
$DIMSCALE
 40
1.0
  9
$DIMASZ
 40
0.18
  9
$DIMEXO
 40
0.0625
  9
$DIMDLI
 40
0.38
  9
$DIMRND
 40
0.0
  9
$DIMDLE
 40
0.0
  9
$DIMEXE
 40
0.18
  9
$DIMTP
 40
0.0
  9
$DIMTM
 40
0.0
  9
$DIMTXT
 40
0.18
  9
$DIMCEN
 40
0.09
  9
$DIMTSZ
 40
0.0
  9
$DIMTOL
 70
     0
  9
$DIMLIM
 70
     0
  9
$DIMTIH
 70
     1
  9
$DIMTOH
 70
     1
  9
$DIMSE1
 70
     0
  9
$DIMSE2
 70
     0
  9
$DIMTAD
 70
     0
  9
$DIMZIN
 70
     0
  9
$DIMBLK
  1

  9
$DIMASO
 70
     1
  9
$DIMSHO
 70
     1
  9
$DIMPOST
  1

  9
$DIMAPOST
  1

  9
$DIMALT
 70
     0
  9
$DIMALTD
 70
     2
  9
$DIMALTF
 40
25.4
  9
$DIMLFAC
 40
1.0
  9
$DIMTOFL
 70
     0
  9
$DIMTVP
 40
0.0
  9
$DIMTIX
 70
     0
  9
$DIMSOXD
 70
     0
  9
$DIMSAH
 70
     0
  9
$DIMBLK1
  1

  9
$DIMBLK2
  1

  9
$DIMSTYLE
  2
Standard
  9
$DIMCLRD
 70
     0
  9
$DIMCLRE
 70
     0
  9
$DIMCLRT
 70
     0
  9
$DIMTFAC
 40
1.0
  9
$DIMGAP
 40
0.09
  9
$DIMJUST
 70
     0
  9
$DIMSD1
 70
     0
  9
$DIMSD2
 70
     0
  9
$DIMTOLJ
 70
     1
  9
$DIMTZIN
 70
     0
  9
$DIMALTZ
 70
     0
  9
$DIMALTTZ
 70
     0
  9
$DIMUPT
 70
     0
  9
$DIMDEC
 70
     4
  9
$DIMTDEC
 70
     4
  9
$DIMALTU
 70
     2
  9
$DIMALTTD
 70
     2
  9
$DIMTXSTY
  7
Standard
  9
$DIMAUNIT
 70
     0
  9
$DIMADEC
 70
     0
  9
$DIMALTRND
 40
0.0
  9
$DIMAZIN
 70
     0
  9
$DIMDSEP
 70
    46
  9
$DIMATFIT
 70
     3
  9
$DIMFRAC
 70
     0
  9
$DIMLDRBLK
  1

  9
$DIMLUNIT
 70
     2
  9
$DIMLWD
 70
    -2
  9
$DIMLWE
 70
    -2
  9
$DIMTMOVE
 70
     0
  9
$DIMFXL
 40
1.0
  9
$DIMFXLON
 70
     0
  9
$DIMJOGANG
 40
0.7853981633974483
  9
$DIMTFILL
 70
     0
  9
$DIMTFILLCLR
 70
     0
  9
$DIMARCSYM
 70
     0
  9
$DIMLTYPE
  6

  9
$DIMLTEX1
  6

  9
$DIMLTEX2
  6

  9
$LUNITS
 70
     2
  9
$LUPREC
 70
     4
  9
$SKETCHINC
 40
0.1
  9
$FILLETRAD
 40
0.5
  9
$AUNITS
 70
     0
  9
$AUPREC
 70
     0
  9
$MENU
  1
.
  9
$ELEVATION
 40
0.0
  9
$PELEVATION
 40
0.0
  9
$THICKNESS
 40
0.0
  9
$LIMCHECK
 70
     0
  9
$CHAMFERA
 40
0.5
  9
$CHAMFERB
 40
0.5
  9
$CHAMFERC
 40
1.0
  9
$CHAMFERD
 40
0.0
  9
$SKPOLY
 70
     0
  9
$TDCREATE
 40
2460555.144309572
  9
$TDUCREATE
 40
2460555.102642905
  9
$TDUPDATE
 40
2460555.144309606
  9
$TDUUPDATE
 40
2460555.10264294
  9
$TDINDWG
 40
0.0000000116
  9
$TDUSRTIMER
 40
0.0000000116
  9
$USRTIMER
 70
     1
  9
$ANGBASE
 50
0.0
  9
$ANGDIR
 70
     0
  9
$PDMODE
 70
     0
  9
$PDSIZE
 40
0.0
  9
$PLINEWID
 40
0.0
  9
$SPLFRAME
 70
     0
  9
$SPLINETYPE
 70
     6
  9
$SPLINESEGS
 70
     8
  9
$HANDSEED
  5
7B
  9
$SURFTAB1
 70
     6
  9
$SURFTAB2
 70
     6
  9
$SURFTYPE
 70
     6
  9
$SURFU
 70
     6
  9
$SURFV
 70
     6
  9
$UCSBASE
  2

  9
$UCSNAME
  2

  9
$UCSORG
 10
0.0
 20
0.0
 30
0.0
  9
$UCSXDIR
 10
1.0
 20
0.0
 30
0.0
  9
$UCSYDIR
 10
0.0
 20
1.0
 30
0.0
  9
$UCSORTHOREF
  2

  9
$UCSORTHOVIEW
 70
     0
  9
$UCSORGTOP
 10
0.0
 20
0.0
 30
0.0
  9
$UCSORGBOTTOM
 10
0.0
 20
0.0
 30
0.0
  9
$UCSORGLEFT
 10
0.0
 20
0.0
 30
0.0
  9
$UCSORGRIGHT
 10
0.0
 20
0.0
 30
0.0
  9
$UCSORGFRONT
 10
0.0
 20
0.0
 30
0.0
  9
$UCSORGBACK
 10
0.0
 20
0.0
 30
0.0
  9
$PUCSBASE
  2

  9
$PUCSNAME
  2

  9
$PUCSORG
 10
0.0
 20
0.0
 30
0.0
  9
$PUCSXDIR
 10
1.0
 20
0.0
 30
0.0
  9
$PUCSYDIR
 10
0.0
 20
1.0
 30
0.0
  9
$PUCSORTHOREF
  2

  9
$PUCSORTHOVIEW
 70
     0
  9
$PUCSORGTOP
 10
0.0
 20
0.0
 30
0.0
  9
$PUCSORGBOTTOM
 10
0.0
 20
0.0
 30
0.0
  9
$PUCSORGLEFT
 10
0.0
 20
0.0
 30
0.0
  9
$PUCSORGRIGHT
 10
0.0
 20
0.0
 30
0.0
  9
$PUCSORGFRONT
 10
0.0
 20
0.0
 30
0.0
  9
$PUCSORGBACK
 10
0.0
 20
0.0
 30
0.0
  9
$USERI1
 70
     0
  9
$USERI2
 70
     0
  9
$USERI3
 70
     0
  9
$USERI4
 70
     0
  9
$USERI5
 70
     0
  9
$USERR1
 40
0.0
  9
$USERR2
 40
0.0
  9
$USERR3
 40
0.0
  9
$USERR4
 40
0.0
  9
$USERR5
 40
0.0
  9
$WORLDVIEW
 70
     1
  9
$SHADEDGE
 70
     3
  9
$SHADEDIF
 70
    70
  9
$TILEMODE
 70
     1
  9
$MAXACTVP
 70
    64
  9
$PINSBASE
 10
0.0
 20
0.0
 30
0.0
  9
$PLIMCHECK
 70
     0
  9
$PEXTMIN
 10
1.000000000000000E+20
 20
1.000000000000000E+20
 30
1.000000000000000E+20
  9
$PEXTMAX
 10
-1.000000000000000E+20
 20
-1.000000000000000E+20
 30
-1.000000000000000E+20
  9
$PLIMMIN
 10
0.0
 20
0.0
  9
$PLIMMAX
 10
12.0
 20
9.0
  9
$UNITMODE
 70
     0
  9
$VISRETAIN
 70
     1
  9
$PLINEGEN
 70
     0
  9
$PSLTSCALE
 70
     1
  9
$TREEDEPTH
 70
  3020
  9
$CMLSTYLE
  2
Standard
  9
$CMLJUST
 70
     0
  9
$CMLSCALE
 40
1.0
  9
$PROXYGRAPHICS
 70
     1
  9
$MEASUREMENT
 70
     0
  9
$CELWEIGHT
370
    -1
  9
$ENDCAPS
280
     0
  9
$JOINSTYLE
280
     0
  9
$LWDISPLAY
290
     0
  9
$INSUNITS
 70
     5
  9
$HYPERLINKBASE
  1

  9
$STYLESHEET
  1

  9
$XEDIT
290
     1
  9
$CEPSNTYPE
380
     0
  9
$PSTYLEMODE
290
     1
  9
$FINGERPRINTGUID
  2
{943F1075-5A64-41C4-A37C-9ECB900C156B}
  9
$VERSIONGUID
  2
{FAEB1C32-E019-11D5-929B-00C0DF256EC4}
  9
$EXTNAMES
290
     1
  9
$PSVPSCALE
 40
0.0
  9
$OLESTARTUP
290
     0
  9
$SORTENTS
280
   127
  9
$INDEXCTL
280
     0
  9
$HIDETEXT
280
     1
  9
$XCLIPFRAME
290
     0
  9
$HALOGAP
280
     0
  9
$OBSCOLOR
 70
   257
  9
$OBSLTYPE
280
     0
  9
$INTERSECTIONDISPLAY
280
     0
  9
$INTERSECTIONCOLOR
 70
   257
  9
$DIMASSOC
280
     2
  9
$PROJECTNAME
  1

  9
$CAMERADISPLAY
290
     0
  9
$LENSLENGTH
 40
50.0
  9
$CAMERAHEIGHT
 40
0.0
  9
$STEPSPERSEC
 40
2.0
  9
$STEPSIZE
 40
6.0
  9
$3DDWFPREC
 40
2.0
  9
$PSOLWIDTH
 40
0.25
  9
$PSOLHEIGHT
 40
4.0
  9
$LOFTANG1
 40
1.570796326794897
  9
$LOFTANG2
 40
1.570796326794897
  9
$LOFTMAG1
 40
0.0
  9
$LOFTMAG2
 40
0.0
  9
$LOFTPARAM
 70
     7
  9
$LOFTNORMALS
280
     1
  9
$LATITUDE
 40
37.795
  9
$LONGITUDE
 40
-122.394
  9
$NORTHDIRECTION
 40
0.0
  9
$TIMEZONE
 70
 -8000
  9
$LIGHTGLYPHDISPLAY
280
     1
  9
$TILEMODELIGHTSYNCH
280
     1
  9
$SOLIDHIST
280
     1
  9
$SHOWHIST
280
     1
  9
$DWFFRAME
280
     2
  9
$DGNFRAME
280
     2
  9
$REALWORLDSCALE
290
     1
  9
$INTERFERECOLOR
 62
   256
  9
$CSHADOW
280
     0
  9
$SHADOWPLANELOCATION
 40
0.0
  0
ENDSEC
  0
SECTION
  2
CLASSES
  0
CLASS
  1
ACDBDICTIONARYWDFLT
  2
AcDbDictionaryWithDefault
  3
ObjectDBX Classes
 90
        0
 91
        4
280
     0
281
     0
  0
CLASS
  1
VISUALSTYLE
  2
AcDbVisualStyle
  3
ObjectDBX Classes
 90
     4095
 91
        4
280
     0
281
     0
  0
CLASS
  1
MATERIAL
  2
AcDbMaterial
  3
ObjectDBX Classes
 90
     1153
 91
        4
280
     0
281
     0
  0
ENDSEC
  0
SECTION
  2
TABLES
  0
TABLE
  2
VPORT
  5
8
330
0
100
AcDbSymbolTable
 70
     1
  0
VPORT
  5
29
330
8
100
AcDbSymbolTableRecord
100
AcDbViewportTableRecord
  2
*Active
 70
     0
 10
0.0
 20
0.0
 11
1.0
 21
1.0
 12
10.42990654205607
 22
4.5
 13
0.0
 23
0.0
 14
0.5
 24
0.5
 15
0.5
 25
0.5
 16
0.0
 26
0.0
 36
1.0
 17
0.0
 27
0.0
 37
0.0
 40
9.0
 41
1.972972972850329
 42
50.0
 43
0.0
 44
0.0
 50
0.0
 51
0.0
 71
     0
 72
   100
 73
     1
 74
     3
 75
     0
 76
     0
 77
     0
 78
     0
281
     0
 65
     1
110
0.0
120
0.0
130
0.0
111
1.0
121
0.0
131
0.0
112
0.0
122
1.0
132
0.0
 79
     0
146
0.0
 60
     3
 61
     5
292
     1
282
     1
141
0.0
142
0.0
 63
   250
  0
ENDTAB
  0
TABLE
  2
LTYPE
  5
5
330
0
100
AcDbSymbolTable
 70
     1
  0
LTYPE
  5
14
330
5
100
AcDbSymbolTableRecord
100
AcDbLinetypeTableRecord
  2
ByBlock
 70
     0
  3

 72
    65
 73
     0
 40
0.0
  0
LTYPE
  5
15
330
5
100
AcDbSymbolTableRecord
100
AcDbLinetypeTableRecord
  2
ByLayer
 70
     0
  3

 72
    65
 73
     0
 40
0.0
  0
LTYPE
  5
16
330
5
100
AcDbSymbolTableRecord
100
AcDbLinetypeTableRecord
  2
Continuous
 70
     0
  3
Solid line
 72
    65
 73
     0
 40
0.0
  0
ENDTAB
  0
TABLE
  2
LAYER
  5
2
330
0
100
AcDbSymbolTable
 70
     2
  0
LAYER
  5
10
330
2
100
AcDbSymbolTableRecord
100
AcDbLayerTableRecord
  2
0
 70
     0
 62
     7
  6
Continuous
370
    -3
390
F
347
3E
  0
LAYER
  5
40
330
2
100
AcDbSymbolTableRecord
100
AcDbLayerTableRecord
  2
Layer 1
 70
     0
 62
     7
  6
Continuous
370
    -3
390
F
347
3E
  0
ENDTAB
  0
TABLE
  2
STYLE
  5
3
330
0
100
AcDbSymbolTable
 70
     1
  0
STYLE
  5
11
330
3
100
AcDbSymbolTableRecord
100
AcDbTextStyleTableRecord
  2
Standard
 70
     0
 40
0.0
 41
1.0
 50
0.0
 71
     0
 42
0.2
  3
txt
  4

  0
ENDTAB
  0
TABLE
  2
VIEW
  5
6
330
0
100
AcDbSymbolTable
 70
     0
  0
ENDTAB
  0
TABLE
  2
UCS
  5
7
330
0
100
AcDbSymbolTable
 70
     0
  0
ENDTAB
  0
TABLE
  2
APPID
  5
9
330
0
100
AcDbSymbolTable
 70
     2
  0
APPID
  5
12
330
9
100
AcDbSymbolTableRecord
100
AcDbRegAppTableRecord
  2
ACAD
 70
     0
  0
APPID
  5
3F
330
9
100
AcDbSymbolTableRecord
100
AcDbRegAppTableRecord
  2
ODA
 70
     0
  0
ENDTAB
  0
TABLE
  2
DIMSTYLE
  5
A
330
0
100
AcDbSymbolTable
 70
     1
100
AcDbDimStyleTable
  0
DIMSTYLE
105
27
330
A
100
AcDbSymbolTableRecord
100
AcDbDimStyleTableRecord
  2
Standard
 70
     0
178
     0
340
11
  0
ENDTAB
  0
TABLE
  2
BLOCK_RECORD
  5
1
330
0
100
AcDbSymbolTable
 70
     1
  0
BLOCK_RECORD
  5
1F
330
1
100
AcDbSymbolTableRecord
100
AcDbBlockTableRecord
  2
*Model_Space
340
22
 70
     0
280
     1
281
     0
  0
BLOCK_RECORD
  5
1B
330
1
100
AcDbSymbolTableRecord
100
AcDbBlockTableRecord
  2
*Paper_Space
340
1E
 70
     0
280
     1
281
     0
  0
BLOCK_RECORD
  5
23
330
1
100
AcDbSymbolTableRecord
100
AcDbBlockTableRecord
  2
*Paper_Space0
340
26
 70
     0
280
     1
281
     0
  0
ENDTAB
  0
ENDSEC
  0
SECTION
  2
BLOCKS
  0
BLOCK
  5
20
330
1F
100
AcDbEntity
  8
0
100
AcDbBlockBegin
  2
*Model_Space
 70
     0
 10
0.0
 20
0.0
 30
0.0
  3
*Model_Space
  1

  0
ENDBLK
  5
21
330
1F
100
AcDbEntity
  8
0
100
AcDbBlockEnd
  0
BLOCK
  5
1C
330
1B
100
AcDbEntity
 67
     1
  8
0
100
AcDbBlockBegin
  2
*Paper_Space
 70
     0
 10
0.0
 20
0.0
 30
0.0
  3
*Paper_Space
  1

  0
ENDBLK
  5
1D
330
1B
100
AcDbEntity
 67
     1
  8
0
100
AcDbBlockEnd
  0
BLOCK
  5
24
330
23
100
AcDbEntity
  8
0
100
AcDbBlockBegin
  2
*Paper_Space0
 70
     0
 10
0.0
 20
0.0
 30
0.0
  3
*Paper_Space0
  1

  0
ENDBLK
  5
25
330
23
100
AcDbEntity
  8
0
100
AcDbBlockEnd
  0
ENDSEC
  0
SECTION
  2
ENTITIES
  0
SPLINE
  5
41
330
1F
100
AcDbEntity
  8
Layer 1
370
    53
100
AcDbSpline
210
0.0
220
0.0
230
1.0
 70
    11
 71
     3
 72
    20
 73
    16
 74
     0
 42
0.0000000001
 43
0.0000000001
 12
1.0
 22
0.0
 32
0.0
 13
1.0
 23
0.0
 33
0.0
 40
0.0
 40
0.0
 40
0.0
 40
0.0
 40
0.2
 40
0.2
 40
0.2
 40
0.2
 40
0.4
 40
0.4
 40
0.4
 40
0.4
 40
0.6
 40
0.6
 40
0.6
 40
0.6
 40
1.0
 40
1.0
 40
1.0
 40
1.0
 10
0.2
 20
-2.5
 30
0.0
 10
0.2
 20
-2.33432
 30
0.0
 10
0.33432
 20
-2.2
 30
0.0
 10
0.5
 20
-2.2
 30
0.0
 10
0.5
 20
-2.2
 30
0.0
 10
0.66568
 20
-2.2
 30
0.0
 10
0.8
 20
-2.33432
 30
0.0
 10
0.8
 20
-2.5
 30
0.0
 10
0.8
 20
-2.5
 30
0.0
 10
0.8
 20
-2.66568
 30
0.0
 10
0.66568
 20
-2.8
 30
0.0
 10
0.5
 20
-2.8
 30
0.0
 10
0.5
 20
-2.8
 30
0.0
 10
0.33432
 20
-2.8
 30
0.0
 10
0.2
 20
-2.66568
 30
0.0
 10
0.2
 20
-2.5
 30
0.0
  0
SPLINE
  5
42
330
1F
100
AcDbEntity
  8
Layer 1
370
    53
100
AcDbSpline
210
0.0
220
0.0
230
1.0
 70
    11
 71
     3
 72
    20
 73
    16
 74
     0
 42
0.0000000001
 43
0.0000000001
 12
1.0
 22
0.0
 32
0.0
 13
1.0
 23
0.0
 33
0.0
 40
0.0
 40
0.0
 40
0.0
 40
0.0
 40
0.2
 40
0.2
 40
0.2
 40
0.2
 40
0.4
 40
0.4
 40
0.4
 40
0.4
 40
0.6
 40
0.6
 40
0.6
 40
0.6
 40
1.0
 40
1.0
 40
1.0
 40
1.0
 10
1.7
 20
-2.5
 30
0.0
 10
1.7
 20
-2.33432
 30
0.0
 10
1.83432
 20
-2.2
 30
0.0
 10
2.0
 20
-2.2
 30
0.0
 10
2.0
 20
-2.2
 30
0.0
 10
2.16568
 20
-2.2
 30
0.0
 10
2.3
 20
-2.33432
 30
0.0
 10
2.3
 20
-2.5
 30
0.0
 10
2.3
 20
-2.5
 30
0.0
 10
2.3
 20
-2.66568
 30
0.0
 10
2.16568
 20
-2.8
 30
0.0
 10
2.0
 20
-2.8
 30
0.0
 10
2.0
 20
-2.8
 30
0.0
 10
1.83432
 20
-2.8
 30
0.0
 10
1.7
 20
-2.66568
 30
0.0
 10
1.7
 20
-2.5
 30
0.0
  0
SPLINE
  5
43
330
1F
100
AcDbEntity
  8
Layer 1
370
    53
100
AcDbSpline
210
0.0
220
0.0
230
1.0
 70
    11
 71
     3
 72
    20
 73
    16
 74
     0
 42
0.0000000001
 43
0.0000000001
 12
1.0
 22
0.0
 32
0.0
 13
1.0
 23
0.0
 33
0.0
 40
0.0
 40
0.0
 40
0.0
 40
0.0
 40
0.2
 40
0.2
 40
0.2
 40
0.2
 40
0.4
 40
0.4
 40
0.4
 40
0.4
 40
0.6
 40
0.6
 40
0.6
 40
0.6
 40
1.0
 40
1.0
 40
1.0
 40
1.0
 10
-1.3
 20
-2.5
 30
0.0
 10
-1.3
 20
-2.33432
 30
0.0
 10
-1.16568
 20
-2.2
 30
0.0
 10
-1.0
 20
-2.2
 30
0.0
 10
-1.0
 20
-2.2
 30
0.0
 10
-0.83432
 20
-2.2
 30
0.0
 10
-0.7
 20
-2.33432
 30
0.0
 10
-0.7
 20
-2.5
 30
0.0
 10
-0.7
 20
-2.5
 30
0.0
 10
-0.7
 20
-2.66568
 30
0.0
 10
-0.83432
 20
-2.8
 30
0.0
 10
-1.0
 20
-2.8
 30
0.0
 10
-1.0
 20
-2.8
 30
0.0
 10
-1.16568
 20
-2.8
 30
0.0
 10
-1.3
 20
-2.66568
 30
0.0
 10
-1.3
 20
-2.5
 30
0.0
  0
SPLINE
  5
44
330
1F
100
AcDbEntity
  8
Layer 1
 62
     5
370
    53
100
AcDbSpline
210
0.0
220
0.0
230
1.0
 70
    11
 71
     3
 72
   148
 73
   144
 74
     0
 42
0.0000000001
 43
0.0000000001
 12
1.0
 22
0.0
 32
0.0
 13
1.0
 23
0.0
 33
0.0
 40
0.0
 40
0.0
 40
0.0
 40
0.0
 40
0.027027027027027
 40
0.027027027027027
 40
0.027027027027027
 40
0.027027027027027
 40
0.0540540540540541
 40
0.0540540540540541
 40
0.0540540540540541
 40
0.0540540540540541
 40
0.0810810810810811
 40
0.0810810810810811
 40
0.0810810810810811
 40
0.0810810810810811
 40
0.1081081081081081
 40
0.1081081081081081
 40
0.1081081081081081
 40
0.1081081081081081
 40
0.1351351351351351
 40
0.1351351351351351
 40
0.1351351351351351
 40
0.1351351351351351
 40
0.1621621621621622
 40
0.1621621621621622
 40
0.1621621621621622
 40
0.1621621621621622
 40
0.1891891891891892
 40
0.1891891891891892
 40
0.1891891891891892
 40
0.1891891891891892
 40
0.2162162162162162
 40
0.2162162162162162
 40
0.2162162162162162
 40
0.2162162162162162
 40
0.2432432432432433
 40
0.2432432432432433
 40
0.2432432432432433
 40
0.2432432432432433
 40
0.2702702702702703
 40
0.2702702702702703
 40
0.2702702702702703
 40
0.2702702702702703
 40
0.2972972972972973
 40
0.2972972972972973
 40
0.2972972972972973
 40
0.2972972972972973
 40
0.3243243243243243
 40
0.3243243243243243
 40
0.3243243243243243
 40
0.3243243243243243
 40
0.3513513513513514
 40
0.3513513513513514
 40
0.3513513513513514
 40
0.3513513513513514
 40
0.3783783783783784
 40
0.3783783783783784
 40
0.3783783783783784
 40
0.3783783783783784
 40
0.4054054054054054
 40
0.4054054054054054
 40
0.4054054054054054
 40
0.4054054054054054
 40
0.4324324324324325
 40
0.4324324324324325
 40
0.4324324324324325
 40
0.4324324324324325
 40
0.4594594594594595
 40
0.4594594594594595
 40
0.4594594594594595
 40
0.4594594594594595
 40
0.4864864864864865
 40
0.4864864864864865
 40
0.4864864864864865
 40
0.4864864864864865
 40
0.5135135135135135
 40
0.5135135135135135
 40
0.5135135135135135
 40
0.5135135135135135
 40
0.5405405405405406
 40
0.5405405405405406
 40
0.5405405405405406
 40
0.5405405405405406
 40
0.5675675675675675
 40
0.5675675675675675
 40
0.5675675675675675
 40
0.5675675675675675
 40
0.5945945945945946
 40
0.5945945945945946
 40
0.5945945945945946
 40
0.5945945945945946
 40
0.6216216216216216
 40
0.6216216216216216
 40
0.6216216216216216
 40
0.6216216216216216
 40
0.6486486486486487
 40
0.6486486486486487
 40
0.6486486486486487
 40
0.6486486486486487
 40
0.6756756756756757
 40
0.6756756756756757
 40
0.6756756756756757
 40
0.6756756756756757
 40
0.7027027027027027
 40
0.7027027027027027
 40
0.7027027027027027
 40
0.7027027027027027
 40
0.7297297297297297
 40
0.7297297297297297
 40
0.7297297297297297
 40
0.7297297297297297
 40
0.7567567567567568
 40
0.7567567567567568
 40
0.7567567567567568
 40
0.7567567567567568
 40
0.7837837837837838
 40
0.7837837837837838
 40
0.7837837837837838
 40
0.7837837837837838
 40
0.8108108108108109
 40
0.8108108108108109
 40
0.8108108108108109
 40
0.8108108108108109
 40
0.8378378378378378
 40
0.8378378378378378
 40
0.8378378378378378
 40
0.8378378378378378
 40
0.8648648648648649
 40
0.8648648648648649
 40
0.8648648648648649
 40
0.8648648648648649
 40
0.8918918918918919
 40
0.8918918918918919
 40
0.8918918918918919
 40
0.8918918918918919
 40
0.918918918918919
 40
0.918918918918919
 40
0.918918918918919
 40
0.918918918918919
 40
0.9459459459459459
 40
0.9459459459459459
 40
0.9459459459459459
 40
0.9459459459459459
 40
1.0
 40
1.0
 40
1.0
 40
1.0
 10
1.43316
 20
-0.54963
 30
0.0
 10
1.36545
 20
-0.59568
 30
0.0
 10
1.38342
 20
-0.75681
 30
0.0
 10
1.38369
 20
-0.82639
 30
0.0
 10
1.38369
 20
-0.82639
 30
0.0
 10
1.38342
 20
-0.73563
 30
0.0
 10
1.30591
 20
-0.61101
 30
0.0
 10
1.23421
 20
-0.69251
 30
0.0
 10
1.23421
 20
-0.69251
 30
0.0
 10
1.1768
 20
-0.75813
 30
0.0
 10
1.18948
 20
-0.91397
 30
0.0
 10
1.20403
 20
-0.99334
 30
0.0
 10
1.20403
 20
-0.99334
 30
0.0
 10
1.20165
 20
-0.98673
 30
0.0
 10
1.19954
 20
-0.98011
 30
0.0
 10
1.19742
 20
-0.97324
 30
0.0
 10
1.19742
 20
-0.97324
 30
0.0
 10
1.1768
 20
-0.90629
 30
0.0
 10
1.16225
 20
-0.82639
 30
0.0
 10
1.11117
 20
-0.77506
 30
0.0
 10
1.11117
 20
-0.77506
 30
0.0
 10
1.04319
 20
-0.7068
 30
0.0
 10
0.94449
 20
-0.77241
 30
0.0
 10
0.90004
 20
-0.83697
 30
0.0
 10
0.90004
 20
-0.83697
 30
0.0
 10
0.88072
 20
-0.86449
 30
0.0
 10
0.87304
 20
-0.89412
 30
0.0
 10
0.86562
 20
-0.92613
 30
0.0
 10
0.86562
 20
-0.92613
 30
0.0
 10
0.85798
 20
-0.95895
 30
0.0
 10
0.8532
 20
-0.99784
 30
0.0
 10
0.85452
 20
-1.03541
 30
0.0
 10
0.85452
 20
-1.03541
 30
0.0
 10
0.84607
 20
-0.9944
 30
0.0
 10
0.83601
 20
-0.95603
 30
0.0
 10
0.8196
 20
-0.92032
 30
0.0
 10
0.8196
 20
-0.92032
 30
0.0
 10
0.78786
 20
-0.85126
 30
0.0
 10
0.71351
 20
-0.82956
 30
0.0
 10
0.64287
 20
-0.83274
 30
0.0
 10
0.64287
 20
-0.83274
 30
0.0
 10
0.60079
 20
-0.8346
 30
0.0
 10
0.56111
 20
-0.85206
 30
0.0
 10
0.53068
 20
-0.88064
 30
0.0
 10
0.53068
 20
-0.88064
 30
0.0
 10
0.50132
 20
-0.90841
 30
0.0
 10
0.48147
 20
-0.94333
 30
0.0
 10
0.47036
 20
-0.98196
 30
0.0
 10
0.47036
 20
-0.98196
 30
0.0
 10
0.4664
 20
-0.99625
 30
0.0
 10
0.46428
 20
-1.01001
 30
0.0
 10
0.46347
 20
-1.02377
 30
0.0
 10
0.46347
 20
-1.02377
 30
0.0
 10
0.46242
 20
-1.00869
 30
0.0
 10
0.46057
 20
-0.9944
 30
0.0
 10
0.45686
 20
-0.98196
 30
0.0
 10
0.45686
 20
-0.98196
 30
0.0
 10
0.44602
 20
-0.94333
 30
0.0
 10
0.42591
 20
-0.90841
 30
0.0
 10
0.3968
 20
-0.88064
 30
0.0
 10
0.3968
 20
-0.88064
 30
0.0
 10
0.36638
 20
-0.85206
 30
0.0
 10
0.32643
 20
-0.8346
 30
0.0
 10
0.28462
 20
-0.83274
 30
0.0
 10
0.28462
 20
-0.83274
 30
0.0
 10
0.21398
 20
-0.82956
 30
0.0
 10
0.13936
 20
-0.85126
 30
0.0
 10
0.10762
 20
-0.92032
 30
0.0
 10
0.10762
 20
-0.92032
 30
0.0
 10
0.09121
 20
-0.95603
 30
0.0
 10
0.08116
 20
-0.9944
 30
0.0
 10
0.07269
 20
-1.03541
 30
0.0
 10
0.07269
 20
-1.03541
 30
0.0
 10
0.07401
 20
-0.99758
 30
0.0
 10
0.06925
 20
-0.95895
 30
0.0
 10
0.06158
 20
-0.92613
 30
0.0
 10
0.06158
 20
-0.92613
 30
0.0
 10
0.05417
 20
-0.89412
 30
0.0
 10
0.0465
 20
-0.86449
 30
0.0
 10
0.02745
 20
-0.83697
 30
0.0
 10
0.02745
 20
-0.83697
 30
0.0
 10
-0.01727
 20
-0.77241
 30
0.0
 10
-0.11568
 20
-0.7068
 30
0.0
 10
-0.18369
 20
-0.77506
 30
0.0
 10
-0.18369
 20
-0.77506
 30
0.0
 10
-0.23502
 20
-0.82639
 30
0.0
 10
-0.24957
 20
-0.90629
 30
0.0
 10
-0.26994
 20
-0.97324
 30
0.0
 10
-0.26994
 20
-0.97324
 30
0.0
 10
-0.27206
 20
-0.98011
 30
0.0
 10
-0.27418
 20
-0.98673
 30
0.0
 10
-0.27656
 20
-0.99334
 30
0.0
 10
-0.27656
 20
-0.99334
 30
0.0
 10
-0.26201
 20
-0.91397
 30
0.0
 10
-0.24931
 20
-0.75813
 30
0.0
 10
-0.30698
 20
-0.69251
 30
0.0
 10
-0.30698
 20
-0.69251
 30
0.0
 10
-0.37658
 20
-0.61366
 30
0.0
 10
-0.45118
 20
-0.72797
 30
0.0
 10
-0.45621
 20
-0.81765
 30
0.0
 10
-0.45621
 20
-0.81765
 30
0.0
 10
-0.45462
 20
-0.74384
 30
0.0
 10
-0.44086
 20
-0.59382
 30
0.0
 10
-0.50595
 20
-0.54963
 30
0.0
 10
-0.50595
 20
-0.54963
 30
0.0
 10
-0.59168
 20
-0.49143
 30
0.0
 10
-0.63427
 20
-0.58561
 30
0.0
 10
-0.62184
 20
-0.65943
 30
0.0
 10
-0.62184
 20
-0.65943
 30
0.0
 10
-0.5758
 20
-0.71976
 30
0.0
 10
-0.50728
 20
-0.77955
 30
0.0
 10
-0.46441
 20
-0.82401
 30
0.0
 10
-0.46441
 20
-0.82401
 30
0.0
 10
-0.38478
 20
-0.90629
 30
0.0
 10
-0.31043
 20
-1.00155
 30
0.0
 10
-0.20538
 20
-1.04997
 30
0.0
 10
-0.20538
 20
-1.04997
 30
0.0
 10
-0.10538
 20
-1.09627
 30
0.0
 10
0.01713
 20
-1.12193
 30
0.0
 10
0.12693
 20
-1.13225
 30
0.0
 10
0.12693
 20
-1.13225
 30
0.0
 10
0.12693
 20
-1.13225
 30
0.0
 10
0.33383
 20
-1.1468
 30
0.0
 10
0.48783
 20
-1.16109
 30
0.0
 10
0.48783
 20
-1.16109
 30
0.0
 10
0.64181
 20
-1.1468
 30
0.0
 10
0.79579
 20
-1.13225
 30
0.0
 10
0.79579
 20
-1.13225
 30
0.0
 10
0.79579
 20
-1.13225
 30
0.0
 10
0.9056
 20
-1.12193
 30
0.0
 10
1.0281
 20
-1.09627
 30
0.0
 10
1.12838
 20
-1.04997
 30
0.0
 10
1.12838
 20
-1.04997
 30
0.0
 10
1.23315
 20
-1.00155
 30
0.0
 10
1.30749
 20
-0.90629
 30
0.0
 10
1.38714
 20
-0.82401
 30
0.0
 10
1.38714
 20
-0.82401
 30
0.0
 10
1.43211
 20
-0.77771
 30
0.0
 10
1.50435
 20
-0.71474
 30
0.0
 10
1.55039
 20
-0.65203
 30
0.0
 10
1.55039
 20
-0.65203
 30
0.0
 10
1.55859
 20
-0.57927
 30
0.0
 10
1.51626
 20
-0.49329
 30
0.0
 10
1.43316
 20
-0.54963
 30
0.0
  0
SPLINE
  5
45
330
1F
100
AcDbEntity
  8
Layer 1
 62
     5
370
    53
100
AcDbSpline
210
0.0
220
0.0
230
1.0
 70
     8
 71
     3
 72
   132
 73
   128
 74
     0
 42
0.0000000001
 43
0.0000000001
 12
1.0
 22
0.0
 32
0.0
 13
1.0
 23
0.0
 33
0.0
 40
0.0
 40
0.0
 40
0.0
 40
0.0
 40
0.0303030303030303
 40
0.0303030303030303
 40
0.0303030303030303
 40
0.0303030303030303
 40
0.0606060606060606
 40
0.0606060606060606
 40
0.0606060606060606
 40
0.0606060606060606
 40
0.0909090909090909
 40
0.0909090909090909
 40
0.0909090909090909
 40
0.0909090909090909
 40
0.1212121212121212
 40
0.1212121212121212
 40
0.1212121212121212
 40
0.1212121212121212
 40
0.1515151515151515
 40
0.1515151515151515
 40
0.1515151515151515
 40
0.1515151515151515
 40
0.1818181818181818
 40
0.1818181818181818
 40
0.1818181818181818
 40
0.1818181818181818
 40
0.2121212121212121
 40
0.2121212121212121
 40
0.2121212121212121
 40
0.2121212121212121
 40
0.2424242424242424
 40
0.2424242424242424
 40
0.2424242424242424
 40
0.2424242424242424
 40
0.2727272727272727
 40
0.2727272727272727
 40
0.2727272727272727
 40
0.2727272727272727
 40
0.303030303030303
 40
0.303030303030303
 40
0.303030303030303
 40
0.303030303030303
 40
0.3333333333333333
 40
0.3333333333333333
 40
0.3333333333333333
 40
0.3333333333333333
 40
0.3636363636363636
 40
0.3636363636363636
 40
0.3636363636363636
 40
0.3636363636363636
 40
0.3939393939393939
 40
0.3939393939393939
 40
0.3939393939393939
 40
0.3939393939393939
 40
0.4242424242424243
 40
0.4242424242424243
 40
0.4242424242424243
 40
0.4242424242424243
 40
0.4545454545454545
 40
0.4545454545454545
 40
0.4545454545454545
 40
0.4545454545454545
 40
0.4848484848484849
 40
0.4848484848484849
 40
0.4848484848484849
 40
0.4848484848484849
 40
0.5151515151515151
 40
0.5151515151515151
 40
0.5151515151515151
 40
0.5151515151515151
 40
0.5454545454545454
 40
0.5454545454545454
 40
0.5454545454545454
 40
0.5454545454545454
 40
0.5757575757575758
 40
0.5757575757575758
 40
0.5757575757575758
 40
0.5757575757575758
 40
0.6060606060606061
 40
0.6060606060606061
 40
0.6060606060606061
 40
0.6060606060606061
 40
0.6363636363636364
 40
0.6363636363636364
 40
0.6363636363636364
 40
0.6363636363636364
 40
0.6666666666666666
 40
0.6666666666666666
 40
0.6666666666666666
 40
0.6666666666666666
 40
0.696969696969697
 40
0.696969696969697
 40
0.696969696969697
 40
0.696969696969697
 40
0.7272727272727273
 40
0.7272727272727273
 40
0.7272727272727273
 40
0.7272727272727273
 40
0.7575757575757576
 40
0.7575757575757576
 40
0.7575757575757576
 40
0.7575757575757576
 40
0.7878787878787878
 40
0.7878787878787878
 40
0.7878787878787878
 40
0.7878787878787878
 40
0.8181818181818182
 40
0.8181818181818182
 40
0.8181818181818182
 40
0.8181818181818182
 40
0.8484848484848485
 40
0.8484848484848485
 40
0.8484848484848485
 40
0.8484848484848485
 40
0.8787878787878788
 40
0.8787878787878788
 40
0.8787878787878788
 40
0.8787878787878788
 40
0.9090909090909091
 40
0.9090909090909091
 40
0.9090909090909091
 40
0.9090909090909091
 40
0.9393939393939394
 40
0.9393939393939394
 40
0.9393939393939394
 40
0.9393939393939394
 40
1.0
 40
1.0
 40
1.0
 40
1.0
 10
1.58661
 20
-0.58827
 30
0.0
 10
1.57923
 20
-0.60891
 30
0.0
 10
1.56626
 20
-0.6306
 30
0.0
 10
1.55037
 20
-0.65203
 30
0.0
 10
1.55037
 20
-0.65203
 30
0.0
 10
1.55859
 20
-0.57927
 30
0.0
 10
1.51626
 20
-0.49329
 30
0.0
 10
1.43316
 20
-0.54963
 30
0.0
 10
1.43316
 20
-0.54963
 30
0.0
 10
1.36545
 20
-0.59568
 30
0.0
 10
1.38342
 20
-0.75681
 30
0.0
 10
1.38369
 20
-0.82639
 30
0.0
 10
1.38369
 20
-0.82639
 30
0.0
 10
1.38342
 20
-0.73563
 30
0.0
 10
1.30591
 20
-0.61101
 30
0.0
 10
1.23421
 20
-0.69251
 30
0.0
 10
1.23421
 20
-0.69251
 30
0.0
 10
1.1768
 20
-0.75813
 30
0.0
 10
1.18948
 20
-0.91397
 30
0.0
 10
1.20403
 20
-0.99334
 30
0.0
 10
1.20403
 20
-0.99334
 30
0.0
 10
1.20165
 20
-0.98673
 30
0.0
 10
1.19954
 20
-0.98011
 30
0.0
 10
1.19742
 20
-0.97324
 30
0.0
 10
1.19742
 20
-0.97324
 30
0.0
 10
1.1768
 20
-0.90629
 30
0.0
 10
1.16223
 20
-0.82639
 30
0.0
 10
1.11117
 20
-0.77506
 30
0.0
 10
1.11117
 20
-0.77506
 30
0.0
 10
1.04316
 20
-0.7068
 30
0.0
 10
0.94449
 20
-0.77241
 30
0.0
 10
0.90004
 20
-0.83697
 30
0.0
 10
0.90004
 20
-0.83697
 30
0.0
 10
0.88072
 20
-0.86449
 30
0.0
 10
0.87304
 20
-0.89412
 30
0.0
 10
0.86562
 20
-0.92613
 30
0.0
 10
0.86562
 20
-0.92613
 30
0.0
 10
0.85795
 20
-0.95895
 30
0.0
 10
0.8532
 20
-0.99784
 30
0.0
 10
0.85452
 20
-1.03541
 30
0.0
 10
0.85452
 20
-1.03541
 30
0.0
 10
0.84607
 20
-0.9944
 30
0.0
 10
0.83601
 20
-0.95603
 30
0.0
 10
0.8196
 20
-0.92032
 30
0.0
 10
0.8196
 20
-0.92032
 30
0.0
 10
0.78786
 20
-0.85126
 30
0.0
 10
0.71351
 20
-0.82956
 30
0.0
 10
0.64287
 20
-0.83274
 30
0.0
 10
0.64287
 20
-0.83274
 30
0.0
 10
0.60079
 20
-0.8346
 30
0.0
 10
0.56111
 20
-0.85206
 30
0.0
 10
0.53068
 20
-0.88064
 30
0.0
 10
0.53068
 20
-0.88064
 30
0.0
 10
0.50132
 20
-0.90841
 30
0.0
 10
0.48147
 20
-0.94333
 30
0.0
 10
0.47036
 20
-0.98196
 30
0.0
 10
0.47036
 20
-0.98196
 30
0.0
 10
0.46638
 20
-0.99625
 30
0.0
 10
0.46428
 20
-1.01001
 30
0.0
 10
0.46347
 20
-1.02377
 30
0.0
 10
0.46347
 20
-1.02377
 30
0.0
 10
0.46242
 20
-1.00869
 30
0.0
 10
0.46057
 20
-0.9944
 30
0.0
 10
0.45686
 20
-0.98196
 30
0.0
 10
0.45686
 20
-0.98196
 30
0.0
 10
0.44601
 20
-0.94333
 30
0.0
 10
0.42591
 20
-0.90841
 30
0.0
 10
0.3968
 20
-0.88064
 30
0.0
 10
0.3968
 20
-0.88064
 30
0.0
 10
0.36638
 20
-0.85206
 30
0.0
 10
0.32642
 20
-0.8346
 30
0.0
 10
0.28462
 20
-0.83274
 30
0.0
 10
0.28462
 20
-0.83274
 30
0.0
 10
0.21397
 20
-0.82956
 30
0.0
 10
0.13936
 20
-0.85126
 30
0.0
 10
0.10762
 20
-0.92032
 30
0.0
 10
0.10762
 20
-0.92032
 30
0.0
 10
0.09121
 20
-0.95603
 30
0.0
 10
0.08116
 20
-0.9944
 30
0.0
 10
0.07269
 20
-1.03541
 30
0.0
 10
0.07269
 20
-1.03541
 30
0.0
 10
0.07401
 20
-0.99758
 30
0.0
 10
0.06925
 20
-0.95895
 30
0.0
 10
0.06158
 20
-0.92613
 30
0.0
 10
0.06158
 20
-0.92613
 30
0.0
 10
0.05417
 20
-0.89412
 30
0.0
 10
0.0465
 20
-0.86449
 30
0.0
 10
0.02745
 20
-0.83697
 30
0.0
 10
0.02745
 20
-0.83697
 30
0.0
 10
-0.01727
 20
-0.77241
 30
0.0
 10
-0.1157
 20
-0.7068
 30
0.0
 10
-0.18369
 20
-0.77506
 30
0.0
 10
-0.18369
 20
-0.77506
 30
0.0
 10
-0.23502
 20
-0.82639
 30
0.0
 10
-0.24957
 20
-0.90629
 30
0.0
 10
-0.26994
 20
-0.97324
 30
0.0
 10
-0.26994
 20
-0.97324
 30
0.0
 10
-0.27206
 20
-0.98011
 30
0.0
 10
-0.27418
 20
-0.98673
 30
0.0
 10
-0.27656
 20
-0.99334
 30
0.0
 10
-0.27656
 20
-0.99334
 30
0.0
 10
-0.26201
 20
-0.91397
 30
0.0
 10
-0.24931
 20
-0.75813
 30
0.0
 10
-0.30699
 20
-0.69251
 30
0.0
 10
-0.30699
 20
-0.69251
 30
0.0
 10
-0.37658
 20
-0.61366
 30
0.0
 10
-0.45118
 20
-0.72797
 30
0.0
 10
-0.45621
 20
-0.81765
 30
0.0
 10
-0.45621
 20
-0.81765
 30
0.0
 10
-0.45462
 20
-0.74384
 30
0.0
 10
-0.44088
 20
-0.59382
 30
0.0
 10
-0.50596
 20
-0.54963
 30
0.0
 10
-0.50596
 20
-0.54963
 30
0.0
 10
-0.59168
 20
-0.49143
 30
0.0
 10
-0.63427
 20
-0.58561
 30
0.0
 10
-0.62184
 20
-0.65943
 30
0.0
 10
-0.62184
 20
-0.65943
 30
0.0
 10
-0.64063
 20
-0.63537
 30
0.0
 10
-0.65545
 20
-0.61128
 30
0.0
 10
-0.66366
 20
-0.58827
 30
0.0
 10
-0.66366
 20
-0.58827
 30
0.0
 10
-0.69513
 20
-0.50043
 30
0.0
 10
-0.67212
 20
-0.40094
 30
0.0
 10
-0.67926
 20
-0.3102
 30
0.0
 10
-0.67926
 20
-0.3102
 30
0.0
 10
-0.69117
 20
-0.15409
 30
0.0
 10
-0.71021
 20
0.03139
 30
0.0
 10
-0.71233
 20
0.18749
 30
0.0
  0
SPLINE
  5
46
330
1F
100
AcDbEntity
  8
Layer 1
 62
     5
370
    53
100
AcDbSpline
210
0.0
220
0.0
230
1.0
 70
     8
 71
     3
 72
    68
 73
    64
 74
     0
 42
0.0000000001
 43
0.0000000001
 12
1.0
 22
0.0
 32
0.0
 13
1.0
 23
0.0
 33
0.0
 40
0.0
 40
0.0
 40
0.0
 40
0.0
 40
0.0588235294117647
 40
0.0588235294117647
 40
0.0588235294117647
 40
0.0588235294117647
 40
0.1176470588235294
 40
0.1176470588235294
 40
0.1176470588235294
 40
0.1176470588235294
 40
0.1764705882352941
 40
0.1764705882352941
 40
0.1764705882352941
 40
0.1764705882352941
 40
0.2352941176470588
 40
0.2352941176470588
 40
0.2352941176470588
 40
0.2352941176470588
 40
0.2941176470588235
 40
0.2941176470588235
 40
0.2941176470588235
 40
0.2941176470588235
 40
0.3529411764705883
 40
0.3529411764705883
 40
0.3529411764705883
 40
0.3529411764705883
 40
0.4117647058823529
 40
0.4117647058823529
 40
0.4117647058823529
 40
0.4117647058823529
 40
0.4705882352941176
 40
0.4705882352941176
 40
0.4705882352941176
 40
0.4705882352941176
 40
0.5294117647058824
 40
0.5294117647058824
 40
0.5294117647058824
 40
0.5294117647058824
 40
0.5882352941176471
 40
0.5882352941176471
 40
0.5882352941176471
 40
0.5882352941176471
 40
0.6470588235294118
 40
0.6470588235294118
 40
0.6470588235294118
 40
0.6470588235294118
 40
0.7058823529411765
 40
0.7058823529411765
 40
0.7058823529411765
 40
0.7058823529411765
 40
0.7647058823529411
 40
0.7647058823529411
 40
0.7647058823529411
 40
0.7647058823529411
 40
0.8235294117647058
 40
0.8235294117647058
 40
0.8235294117647058
 40
0.8235294117647058
 40
0.8823529411764706
 40
0.8823529411764706
 40
0.8823529411764706
 40
0.8823529411764706
 40
1.0
 40
1.0
 40
1.0
 40
1.0
 10
-0.6139
 20
0.01895
 30
0.0
 10
-0.62901
 20
-0.07005
 30
0.0
 10
-0.64866
 20
-0.29958
 30
0.0
 10
-0.50342
 20
-0.29861
 30
0.0
 10
-0.50342
 20
-0.29861
 30
0.0
 10
-0.40181
 20
-0.2979
 30
0.0
 10
-0.40248
 20
-0.19311
 30
0.0
 10
-0.39345
 20
-0.11742
 30
0.0
 10
-0.39345
 20
-0.11742
 30
0.0
 10
-0.3933
 20
-0.24069
 30
0.0
 10
-0.40978
 20
-0.38253
 30
0.0
 10
-0.25836
 20
-0.42317
 30
0.0
 10
-0.25836
 20
-0.42317
 30
0.0
 10
-0.06105
 20
-0.47616
 30
0.0
 10
-0.09084
 20
-0.33921
 30
0.0
 10
-0.05093
 20
-0.22962
 30
0.0
 10
-0.05093
 20
-0.22962
 30
0.0
 10
-0.04557
 20
-0.35589
 30
0.0
 10
-0.0156
 20
-0.54042
 30
0.0
 10
0.14458
 20
-0.55469
 30
0.0
 10
0.14458
 20
-0.55469
 30
0.0
 10
0.21403
 20
-0.56089
 30
0.0
 10
0.29584
 20
-0.53887
 30
0.0
 10
0.32238
 20
-0.46698
 30
0.0
 10
0.32238
 20
-0.46698
 30
0.0
 10
0.34325
 20
-0.41052
 30
0.0
 10
0.34555
 20
-0.3389
 30
0.0
 10
0.34505
 20
-0.27915
 30
0.0
 10
0.34505
 20
-0.27915
 30
0.0
 10
0.36009
 20
-0.34755
 30
0.0
 10
0.34716
 20
-0.4401
 30
0.0
 10
0.39429
 20
-0.49801
 30
0.0
 10
0.39429
 20
-0.49801
 30
0.0
 10
0.42868
 20
-0.54027
 30
0.0
 10
0.50928
 20
-0.57892
 30
0.0
 10
0.56342
 20
-0.57207
 30
0.0
 10
0.56342
 20
-0.57207
 30
0.0
 10
0.69033
 20
-0.55602
 30
0.0
 10
0.73338
 20
-0.40141
 30
0.0
 10
0.75114
 20
-0.26915
 30
0.0
 10
0.75114
 20
-0.26915
 30
0.0
 10
0.73338
 20
-0.40141
 30
0.0
 10
0.81384
 20
-0.58959
 30
0.0
 10
0.95397
 20
-0.57016
 30
0.0
 10
0.95397
 20
-0.57016
 30
0.0
 10
1.15266
 20
-0.54262
 30
0.0
 10
1.11249
 20
-0.34668
 30
0.0
 10
1.15215
 20
-0.20451
 30
0.0
 10
1.15215
 20
-0.20451
 30
0.0
 10
1.1576
 20
-0.2709
 30
0.0
 10
1.18013
 20
-0.47634
 30
0.0
 10
1.29064
 20
-0.45827
 30
0.0
 10
1.29064
 20
-0.45827
 30
0.0
 10
1.43068
 20
-0.43539
 30
0.0
 10
1.37402
 20
-0.20007
 30
0.0
 10
1.4082
 20
-0.11633
 30
0.0
 10
1.4082
 20
-0.11633
 30
0.0
 10
1.4181
 20
-0.17586
 30
0.0
 10
1.45686
 20
-0.40704
 30
0.0
 10
1.54509
 20
-0.29586
 30
0.0
 10
1.54509
 20
-0.29586
 30
0.0
 10
1.60233
 20
-0.22373
 30
0.0
 10
1.56672
 20
-0.01706
 30
0.0
 10
1.57527
 20
0.07517
 30
0.0
  0
SPLINE
  5
47
330
1F
100
AcDbEntity
  8
Layer 1
 62
     5
370
    53
100
AcDbSpline
210
0.0
220
0.0
230
1.0
 70
     8
 71
     3
 72
    20
 73
    16
 74
     0
 42
0.0000000001
 43
0.0000000001
 12
1.0
 22
0.0
 32
0.0
 13
1.0
 23
0.0
 33
0.0
 40
0.0
 40
0.0
 40
0.0
 40
0.0
 40
0.2
 40
0.2
 40
0.2
 40
0.2
 40
0.4
 40
0.4
 40
0.4
 40
0.4
 40
0.6
 40
0.6
 40
0.6
 40
0.6
 40
1.0
 40
1.0
 40
1.0
 40
1.0
 10
1.56494
 20
0.06313
 30
0.0
 10
1.48451
 20
-0.09931
 30
0.0
 10
1.29345
 20
-0.17129
 30
0.0
 10
1.11621
 20
-0.21018
 30
0.0
 10
1.11621
 20
-0.21018
 30
0.0
 10
0.64524
 20
-0.31363
 30
0.0
 10
0.14625
 20
-0.2869
 30
0.0
 10
-0.31096
 20
-0.13371
 30
0.0
 10
-0.31096
 20
-0.13371
 30
0.0
 10
-0.45145
 20
-0.08661
 30
0.0
 10
-0.59724
 20
-0.02021
 30
0.0
 10
-0.67317
 20
0.10706
 30
0.0
 10
-0.67317
 20
0.10706
 30
0.0
 10
-0.68825
 20
0.13245
 30
0.0
 10
-0.70016
 20
0.15944
 30
0.0
 10
-0.71233
 20
0.18643
 30
0.0
  0
SPLINE
  5
48
330
1F
100
AcDbEntity
  8
Layer 1
 62
     5
370
    53
100
AcDbSpline
210
0.0
220
0.0
230
1.0
 70
    11
 71
     3
 72
    24
 73
    20
 74
     0
 42
0.0000000001
 43
0.0000000001
 12
1.0
 22
0.0
 32
0.0
 13
1.0
 23
0.0
 33
0.0
 40
0.0
 40
0.0
 40
0.0
 40
0.0
 40
0.1666666666666667
 40
0.1666666666666667
 40
0.1666666666666667
 40
0.1666666666666667
 40
0.3333333333333333
 40
0.3333333333333333
 40
0.3333333333333333
 40
0.3333333333333333
 40
0.5
 40
0.5
 40
0.5
 40
0.5
 40
0.6666666666666666
 40
0.6666666666666666
 40
0.6666666666666666
 40
0.6666666666666666
 40
1.0
 40
1.0
 40
1.0
 40
1.0
 10
0.43887
 20
-0.02725
 30
0.0
 10
0.44872
 20
-0.01365
 30
0.0
 10
0.45137
 20
0.00495
 30
0.0
 10
0.45443
 20
0.03243
 30
0.0
 10
0.45443
 20
0.03243
 30
0.0
 10
0.47073
 20
0.17793
 30
0.0
 10
0.43072
 20
0.33789
 30
0.0
 10
0.43411
 20
0.48556
 30
0.0
 10
0.43411
 20
0.48556
 30
0.0
 10
0.33302
 20
0.33417
 30
0.0
 10
0.25059
 20
0.14116
 30
0.0
 10
0.25978
 20
-0.0432
 30
0.0
 10
0.25978
 20
-0.0432
 30
0.0
 10
0.26034
 20
-0.05429
 30
0.0
 10
0.3776
 20
-0.05787
 30
0.0
 10
0.38995
 20
-0.05451
 30
0.0
 10
0.38995
 20
-0.05451
 30
0.0
 10
0.4156
 20
-0.04755
 30
0.0
 10
0.43009
 20
-0.03939
 30
0.0
 10
0.43887
 20
-0.02725
 30
0.0
  0
SPLINE
  5
49
330
1F
100
AcDbEntity
  8
Layer 1
 62
     5
370
    53
100
AcDbSpline
210
0.0
220
0.0
230
1.0
 70
    11
 71
     3
 72
    24
 73
    20
 74
     0
 42
0.0000000001
 43
0.0000000001
 12
1.0
 22
0.0
 32
0.0
 13
1.0
 23
0.0
 33
0.0
 40
0.0
 40
0.0
 40
0.0
 40
0.0
 40
0.1666666666666667
 40
0.1666666666666667
 40
0.1666666666666667
 40
0.1666666666666667
 40
0.3333333333333333
 40
0.3333333333333333
 40
0.3333333333333333
 40
0.3333333333333333
 40
0.5
 40
0.5
 40
0.5
 40
0.5
 40
0.6666666666666666
 40
0.6666666666666666
 40
0.6666666666666666
 40
0.6666666666666666
 40
1.0
 40
1.0
 40
1.0
 40
1.0
 10
0.59001
 20
-0.02725
 30
0.0
 10
0.58017
 20
-0.01365
 30
0.0
 10
0.57753
 20
0.00495
 30
0.0
 10
0.57447
 20
0.03243
 30
0.0
 10
0.57447
 20
0.03243
 30
0.0
 10
0.55816
 20
0.17793
 30
0.0
 10
0.59817
 20
0.33789
 30
0.0
 10
0.59478
 20
0.48556
 30
0.0
 10
0.59478
 20
0.48556
 30
0.0
 10
0.69588
 20
0.33417
 30
0.0
 10
0.7783
 20
0.14116
 30
0.0
 10
0.76911
 20
-0.0432
 30
0.0
 10
0.76911
 20
-0.0432
 30
0.0
 10
0.76856
 20
-0.05429
 30
0.0
 10
0.6513
 20
-0.05787
 30
0.0
 10
0.63894
 20
-0.05451
 30
0.0
 10
0.63894
 20
-0.05451
 30
0.0
 10
0.6133
 20
-0.04755
 30
0.0
 10
0.5988
 20
-0.03939
 30
0.0
 10
0.59001
 20
-0.02725
 30
0.0
  0
SPLINE
  5
4A
330
1F
100
AcDbEntity
  8
Layer 1
 62
     5
370
    53
100
AcDbSpline
210
0.0
220
0.0
230
1.0
 70
    11
 71
     3
 72
    44
 73
    40
 74
     0
 42
0.0000000001
 43
0.0000000001
 12
1.0
 22
0.0
 32
0.0
 13
1.0
 23
0.0
 33
0.0
 40
0.0
 40
0.0
 40
0.0
 40
0.0
 40
0.0909090909090909
 40
0.0909090909090909
 40
0.0909090909090909
 40
0.0909090909090909
 40
0.1818181818181818
 40
0.1818181818181818
 40
0.1818181818181818
 40
0.1818181818181818
 40
0.2727272727272727
 40
0.2727272727272727
 40
0.2727272727272727
 40
0.2727272727272727
 40
0.3636363636363636
 40
0.3636363636363636
 40
0.3636363636363636
 40
0.3636363636363636
 40
0.4545454545454545
 40
0.4545454545454545
 40
0.4545454545454545
 40
0.4545454545454545
 40
0.5454545454545454
 40
0.5454545454545454
 40
0.5454545454545454
 40
0.5454545454545454
 40
0.6363636363636364
 40
0.6363636363636364
 40
0.6363636363636364
 40
0.6363636363636364
 40
0.7272727272727273
 40
0.7272727272727273
 40
0.7272727272727273
 40
0.7272727272727273
 40
0.8181818181818182
 40
0.8181818181818182
 40
0.8181818181818182
 40
0.8181818181818182
 40
1.0
 40
1.0
 40
1.0
 40
1.0
 10
-0.11476
 20
1.08426
 30
0.0
 10
0.07038
 20
1.03023
 30
0.0
 10
0.25735
 20
0.95102
 30
0.0
 10
0.4468
 20
0.91632
 30
0.0
 10
0.4468
 20
0.91632
 30
0.0
 10
0.45026
 20
0.77708
 30
0.0
 10
0.29316
 20
0.62154
 30
0.0
 10
0.19526
 20
0.54061
 30
0.0
 10
0.19526
 20
0.54061
 30
0.0
 10
0.07617
 20
0.44215
 30
0.0
 10
-0.07522
 20
0.38472
 30
0.0
 10
-0.23079
 20
0.40389
 30
0.0
 10
-0.23079
 20
0.40389
 30
0.0
 10
-0.34704
 20
0.4182
 30
0.0
 10
-0.462
 20
0.43457
 30
0.0
 10
-0.56694
 20
0.49167
 30
0.0
 10
-0.56694
 20
0.49167
 30
0.0
 10
-0.6462
 20
0.53481
 30
0.0
 10
-0.73024
 20
0.59776
 30
0.0
 10
-0.79542
 20
0.65864
 30
0.0
 10
-0.79542
 20
0.65864
 30
0.0
 10
-0.89256
 20
0.74934
 30
0.0
 10
-0.95508
 20
0.87104
 30
0.0
 10
-0.98658
 20
0.9992
 30
0.0
 10
-0.98658
 20
0.9992
 30
0.0
 10
-1.00236
 20
1.06334
 30
0.0
 10
-1.00533
 20
1.12667
 30
0.0
 10
-1.01193
 20
1.19191
 30
0.0
 10
-1.01193
 20
1.19191
 30
0.0
 10
-1.01841
 20
1.25608
 30
0.0
 10
-1.0059
 20
1.30714
 30
0.0
 10
-0.999
 20
1.37071
 30
0.0
 10
-0.999
 20
1.37071
 30
0.0
 10
-0.96984
 20
1.37352
 30
0.0
 10
-0.90887
 20
1.3422
 30
0.0
 10
-0.8798
 20
1.33102
 30
0.0
 10
-0.8798
 20
1.33102
 30
0.0
 10
-0.63069
 20
1.23516
 30
0.0
 10
-0.37217
 20
1.15934
 30
0.0
 10
-0.11476
 20
1.08426
 30
0.0
  0
SPLINE
  5
4B
330
1F
100
AcDbEntity
  8
Layer 1
 62
     5
370
    53
100
AcDbSpline
210
0.0
220
0.0
230
1.0
 70
     8
 71
     3
 72
    12
 73
     8
 74
     0
 42
0.0000000001
 43
0.0000000001
 12
1.0
 22
0.0
 32
0.0
 13
1.0
 23
0.0
 33
0.0
 40
0.0
 40
0.0
 40
0.0
 40
0.0
 40
0.3333333333333333
 40
0.3333333333333333
 40
0.3333333333333333
 40
0.3333333333333333
 40
1.0
 40
1.0
 40
1.0
 40
1.0
 10
-0.08932
 20
1.06309
 30
0.0
 10
-0.1169
 20
1.00209
 30
0.0
 10
-0.14922
 20
0.95799
 30
0.0
 10
-0.22185
 20
0.95886
 30
0.0
 10
-0.22185
 20
0.95886
 30
0.0
 10
-0.31956
 20
0.96
 30
0.0
 10
-0.37089
 20
1.04156
 30
0.0
 10
-0.34836
 20
1.13271
 30
0.0
  0
SPLINE
  5
4C
330
1F
100
AcDbEntity
  8
Layer 1
 62
     5
370
    53
100
AcDbSpline
210
0.0
220
0.0
230
1.0
 70
     8
 71
     3
 72
    16
 73
    12
 74
     0
 42
0.0000000001
 43
0.0000000001
 12
1.0
 22
0.0
 32
0.0
 13
1.0
 23
0.0
 33
0.0
 40
0.0
 40
0.0
 40
0.0
 40
0.0
 40
0.25
 40
0.25
 40
0.25
 40
0.25
 40
0.5
 40
0.5
 40
0.5
 40
0.5
 40
1.0
 40
1.0
 40
1.0
 40
1.0
 10
2.20831
 20
0.84798
 30
0.0
 10
2.20826
 20
1.27096
 30
0.0
 10
2.27838
 20
1.69734
 30
0.0
 10
2.30727
 20
2.11816
 30
0.0
 10
2.30727
 20
2.11816
 30
0.0
 10
2.31443
 20
2.2227
 30
0.0
 10
2.3058
 20
2.34591
 30
0.0
 10
2.34657
 20
2.44386
 30
0.0
 10
2.34657
 20
2.44386
 30
0.0
 10
2.37143
 20
2.50353
 30
0.0
 10
2.51584
 20
2.64977
 30
0.0
 10
2.517
 20
2.47959
 30
0.0
  0
SPLINE
  5
4D
330
1F
100
AcDbEntity
  8
Layer 1
 62
     5
370
    53
100
AcDbSpline
210
0.0
220
0.0
230
1.0
 70
    11
 71
     3
 72
    44
 73
    40
 74
     0
 42
0.0000000001
 43
0.0000000001
 12
1.0
 22
0.0
 32
0.0
 13
1.0
 23
0.0
 33
0.0
 40
0.0
 40
0.0
 40
0.0
 40
0.0
 40
0.0909090909090909
 40
0.0909090909090909
 40
0.0909090909090909
 40
0.0909090909090909
 40
0.1818181818181818
 40
0.1818181818181818
 40
0.1818181818181818
 40
0.1818181818181818
 40
0.2727272727272727
 40
0.2727272727272727
 40
0.2727272727272727
 40
0.2727272727272727
 40
0.3636363636363636
 40
0.3636363636363636
 40
0.3636363636363636
 40
0.3636363636363636
 40
0.4545454545454545
 40
0.4545454545454545
 40
0.4545454545454545
 40
0.4545454545454545
 40
0.5454545454545454
 40
0.5454545454545454
 40
0.5454545454545454
 40
0.5454545454545454
 40
0.6363636363636364
 40
0.6363636363636364
 40
0.6363636363636364
 40
0.6363636363636364
 40
0.7272727272727273
 40
0.7272727272727273
 40
0.7272727272727273
 40
0.7272727272727273
 40
0.8181818181818182
 40
0.8181818181818182
 40
0.8181818181818182
 40
0.8181818181818182
 40
1.0
 40
1.0
 40
1.0
 40
1.0
 10
1.1485
 20
1.08426
 30
0.0
 10
0.96335
 20
1.03023
 30
0.0
 10
0.7764
 20
0.95102
 30
0.0
 10
0.58695
 20
0.91632
 30
0.0
 10
0.58695
 20
0.91632
 30
0.0
 10
0.58348
 20
0.77709
 30
0.0
 10
0.74058
 20
0.62156
 30
0.0
 10
0.83849
 20
0.54061
 30
0.0
 10
0.83849
 20
0.54061
 30
0.0
 10
0.95758
 20
0.44217
 30
0.0
 10
1.10897
 20
0.38474
 30
0.0
 10
1.26454
 20
0.40389
 30
0.0
 10
1.26454
 20
0.40389
 30
0.0
 10
1.38079
 20
0.4182
 30
0.0
 10
1.49574
 20
0.43457
 30
0.0
 10
1.6007
 20
0.49167
 30
0.0
 10
1.6007
 20
0.49167
 30
0.0
 10
1.67994
 20
0.53481
 30
0.0
 10
1.764
 20
0.59776
 30
0.0
 10
1.82919
 20
0.65864
 30
0.0
 10
1.82919
 20
0.65864
 30
0.0
 10
1.92631
 20
0.74935
 30
0.0
 10
1.98882
 20
0.87105
 30
0.0
 10
2.02034
 20
0.9992
 30
0.0
 10
2.02034
 20
0.9992
 30
0.0
 10
2.0361
 20
1.06334
 30
0.0
 10
2.0391
 20
1.12667
 30
0.0
 10
2.04568
 20
1.19191
 30
0.0
 10
2.04568
 20
1.19191
 30
0.0
 10
2.05215
 20
1.25608
 30
0.0
 10
2.03967
 20
1.30714
 30
0.0
 10
2.03277
 20
1.37071
 30
0.0
 10
2.03277
 20
1.37071
 30
0.0
 10
2.00359
 20
1.37352
 30
0.0
 10
1.94262
 20
1.34221
 30
0.0
 10
1.91355
 20
1.33102
 30
0.0
 10
1.91355
 20
1.33102
 30
0.0
 10
1.66444
 20
1.23516
 30
0.0
 10
1.40591
 20
1.15934
 30
0.0
 10
1.1485
 20
1.08426
 30
0.0
  0
SPLINE
  5
4E
330
1F
100
AcDbEntity
  8
Layer 1
 62
     5
370
    53
100
AcDbSpline
210
0.0
220
0.0
230
1.0
 70
     8
 71
     3
 72
    12
 73
     8
 74
     0
 42
0.0000000001
 43
0.0000000001
 12
1.0
 22
0.0
 32
0.0
 13
1.0
 23
0.0
 33
0.0
 40
0.0
 40
0.0
 40
0.0
 40
0.0
 40
0.3333333333333333
 40
0.3333333333333333
 40
0.3333333333333333
 40
0.3333333333333333
 40
1.0
 40
1.0
 40
1.0
 40
1.0
 10
1.12305
 20
1.06309
 30
0.0
 10
1.15065
 20
1.0021
 30
0.0
 10
1.18297
 20
0.958
 30
0.0
 10
1.2556
 20
0.95886
 30
0.0
 10
1.2556
 20
0.95886
 30
0.0
 10
1.3533
 20
0.96
 30
0.0
 10
1.40464
 20
1.04157
 30
0.0
 10
1.3821
 20
1.13271
 30
0.0
  0
SPLINE
  5
4F
330
1F
100
AcDbEntity
  8
Layer 1
 62
     5
370
    53
100
AcDbSpline
210
0.0
220
0.0
230
1.0
 70
     8
 71
     3
 72
    24
 73
    20
 74
     0
 42
0.0000000001
 43
0.0000000001
 12
1.0
 22
0.0
 32
0.0
 13
1.0
 23
0.0
 33
0.0
 40
0.0
 40
0.0
 40
0.0
 40
0.0
 40
0.1666666666666667
 40
0.1666666666666667
 40
0.1666666666666667
 40
0.1666666666666667
 40
0.3333333333333333
 40
0.3333333333333333
 40
0.3333333333333333
 40
0.3333333333333333
 40
0.5
 40
0.5
 40
0.5
 40
0.5
 40
0.6666666666666666
 40
0.6666666666666666
 40
0.6666666666666666
 40
0.6666666666666666
 40
1.0
 40
1.0
 40
1.0
 40
1.0
 10
-1.17614
 20
0.81931
 30
0.0
 10
-1.15096
 20
0.9238
 30
0.0
 10
-1.19514
 20
1.04241
 30
0.0
 10
-1.18805
 20
1.15172
 30
0.0
 10
-1.18805
 20
1.15172
 30
0.0
 10
-1.17957
 20
1.28228
 30
0.0
 10
-1.17078
 20
1.41106
 30
0.0
 10
-1.16958
 20
1.54203
 30
0.0
 10
-1.16958
 20
1.54203
 30
0.0
 10
-1.16768
 20
1.75461
 30
0.0
 10
-1.1752
 20
1.94777
 30
0.0
 10
-1.21765
 20
2.15613
 30
0.0
 10
-1.21765
 20
2.15613
 30
0.0
 10
-1.23703
 20
2.25121
 30
0.0
 10
-1.26086
 20
2.36346
 30
0.0
 10
-1.31343
 20
2.44685
 30
0.0
 10
-1.31343
 20
2.44685
 30
0.0
 10
-1.37752
 20
2.54853
 30
0.0
 10
-1.45869
 20
2.51529
 30
0.0
 10
-1.48703
 20
2.4002
 30
0.0
  0
SPLINE
  5
50
330
1F
100
AcDbEntity
  8
Layer 1
 62
     5
370
    53
100
AcDbSpline
210
0.0
220
0.0
230
1.0
 70
    11
 71
     3
 72
    24
 73
    20
 74
     0
 42
0.0000000001
 43
0.0000000001
 12
1.0
 22
0.0
 32
0.0
 13
1.0
 23
0.0
 33
0.0
 40
0.0
 40
0.0
 40
0.0
 40
0.0
 40
0.1666666666666667
 40
0.1666666666666667
 40
0.1666666666666667
 40
0.1666666666666667
 40
0.3333333333333333
 40
0.3333333333333333
 40
0.3333333333333333
 40
0.3333333333333333
 40
0.5
 40
0.5
 40
0.5
 40
0.5
 40
0.6666666666666666
 40
0.6666666666666666
 40
0.6666666666666666
 40
0.6666666666666666
 40
1.0
 40
1.0
 40
1.0
 40
1.0
 10
-0.26515
 20
1.06101
 30
0.0
 10
-0.27277
 20
1.05885
 30
0.0
 10
-0.2811
 20
1.05909
 30
0.0
 10
-0.28938
 20
1.06248
 30
0.0
 10
-0.28938
 20
1.06248
 30
0.0
 10
-0.30024
 20
1.06695
 30
0.0
 10
-0.3065
 20
1.07725
 30
0.0
 10
-0.31044
 20
1.08782
 30
0.0
 10
-0.31044
 20
1.08782
 30
0.0
 10
-0.3114
 20
1.09038
 30
0.0
 10
-0.31698
 20
1.12145
 30
0.0
 10
-0.31527
 20
1.12097
 30
0.0
 10
-0.31527
 20
1.12097
 30
0.0
 10
-0.27912
 20
1.11095
 30
0.0
 10
-0.26217
 20
1.10234
 30
0.0
 10
-0.23493
 20
1.0928
 30
0.0
 10
-0.23493
 20
1.0928
 30
0.0
 10
-0.23919
 20
1.07737
 30
0.0
 10
-0.25094
 20
1.06503
 30
0.0
 10
-0.26515
 20
1.06101
 30
0.0
  0
SPLINE
  5
51
330
1F
100
AcDbEntity
  8
Layer 1
 62
     5
370
    53
100
AcDbSpline
210
0.0
220
0.0
230
1.0
 70
    11
 71
     3
 72
    20
 73
    16
 74
     0
 42
0.0000000001
 43
0.0000000001
 12
1.0
 22
0.0
 32
0.0
 13
1.0
 23
0.0
 33
0.0
 40
0.0
 40
0.0
 40
0.0
 40
0.0
 40
0.2
 40
0.2
 40
0.2
 40
0.2
 40
0.4
 40
0.4
 40
0.4
 40
0.4
 40
0.6
 40
0.6
 40
0.6
 40
0.6
 40
1.0
 40
1.0
 40
1.0
 40
1.0
 10
1.1677
 20
1.06998
 30
0.0
 10
1.1715
 20
1.04685
 30
0.0
 10
1.2001
 20
1.03938
 30
0.0
 10
1.21894
 20
1.04524
 30
0.0
 10
1.21894
 20
1.04524
 30
0.0
 10
1.24289
 20
1.05264
 30
0.0
 10
1.24752
 20
1.07233
 30
0.0
 10
1.24297
 20
1.0954
 30
0.0
 10
1.24297
 20
1.0954
 30
0.0
 10
1.23284
 20
1.0941
 30
0.0
 10
1.20426
 20
1.08225
 30
0.0
 10
1.20426
 20
1.08225
 30
0.0
 10
1.20426
 20
1.08225
 30
0.0
 10
1.20426
 20
1.08225
 30
0.0
 10
1.1677
 20
1.06998
 30
0.0
 10
1.1677
 20
1.06998
 30
0.0
  0
SPLINE
  5
52
330
1F
100
AcDbEntity
  8
Layer 1
 62
     5
370
    53
100
AcDbSpline
210
0.0
220
0.0
230
1.0
 70
     8
 71
     3
 72
     8
 73
     4
 74
     0
 42
0.0000000001
 43
0.0000000001
 12
1.0
 22
0.0
 32
0.0
 13
1.0
 23
0.0
 33
0.0
 40
0.0
 40
0.0
 40
0.0
 40
0.0
 40
1.0
 40
1.0
 40
1.0
 40
1.0
 10
0.35183
 20
-1.34035
 30
0.0
 10
0.42501
 20
-1.36823
 30
0.0
 10
0.54225
 20
-1.35816
 30
0.0
 10
0.6207
 20
-1.33828
 30
0.0
  0
SPLINE
  5
53
330
1F
100
AcDbEntity
  8
Layer 1
 62
     5
370
    53
100
AcDbSpline
210
0.0
220
0.0
230
1.0
 70
     8
 71
     3
 72
    16
 73
    12
 74
     0
 42
0.0000000001
 43
0.0000000001
 12
1.0
 22
0.0
 32
0.0
 13
1.0
 23
0.0
 33
0.0
 40
0.0
 40
0.0
 40
0.0
 40
0.0
 40
0.25
 40
0.25
 40
0.25
 40
0.25
 40
0.5
 40
0.5
 40
0.5
 40
0.5
 40
1.0
 40
1.0
 40
1.0
 40
1.0
 10
-1.14306
 20
3.14985
 30
0.0
 10
-1.01009
 20
3.39164
 30
0.0
 10
-0.80007
 20
3.58335
 30
0.0
 10
-0.56562
 20
3.7248
 30
0.0
 10
-0.56562
 20
3.7248
 30
0.0
 10
-0.44626
 20
3.79682
 30
0.0
 10
-0.31945
 20
3.85645
 30
0.0
 10
-0.18852
 20
3.9041
 30
0.0
 10
-0.18852
 20
3.9041
 30
0.0
 10
-0.08448
 20
3.94197
 30
0.0
 10
0.08571
 20
4.02063
 30
0.0
 10
0.19749
 20
3.99652
 30
0.0
  0
SPLINE
  5
54
330
1F
100
AcDbEntity
  8
Layer 1
 62
     5
370
    53
100
AcDbSpline
210
0.0
220
0.0
230
1.0
 70
     8
 71
     3
 72
    16
 73
    12
 74
     0
 42
0.0000000001
 43
0.0000000001
 12
1.0
 22
0.0
 32
0.0
 13
1.0
 23
0.0
 33
0.0
 40
0.0
 40
0.0
 40
0.0
 40
0.0
 40
0.25
 40
0.25
 40
0.25
 40
0.25
 40
0.5
 40
0.5
 40
0.5
 40
0.5
 40
1.0
 40
1.0
 40
1.0
 40
1.0
 10
-0.9777
 20
1.91072
 30
0.0
 10
-0.93963
 20
1.8041
 30
0.0
 10
-1.02306
 20
1.72482
 30
0.0
 10
-0.9068
 20
1.67109
 30
0.0
 10
-0.9068
 20
1.67109
 30
0.0
 10
-0.75247
 20
1.5997
 30
0.0
 10
-0.60198
 20
1.52103
 30
0.0
 10
-0.44374
 20
1.45982
 30
0.0
 10
-0.44374
 20
1.45982
 30
0.0
 10
-0.20322
 20
1.36682
 30
0.0
 10
0.16566
 20
1.25249
 30
0.0
 10
0.42787
 20
1.15286
 30
0.0
  0
SPLINE
  5
55
330
1F
100
AcDbEntity
  8
Layer 1
 62
     5
370
    53
100
AcDbSpline
210
0.0
220
0.0
230
1.0
 70
     8
 71
     3
 72
    16
 73
    12
 74
     0
 42
0.0000000001
 43
0.0000000001
 12
1.0
 22
0.0
 32
0.0
 13
1.0
 23
0.0
 33
0.0
 40
0.0
 40
0.0
 40
0.0
 40
0.0
 40
0.25
 40
0.25
 40
0.25
 40
0.25
 40
0.5
 40
0.5
 40
0.5
 40
0.5
 40
1.0
 40
1.0
 40
1.0
 40
1.0
 10
2.04181
 20
1.91072
 30
0.0
 10
2.00375
 20
1.8041
 30
0.0
 10
2.08716
 20
1.72482
 30
0.0
 10
1.97091
 20
1.67109
 30
0.0
 10
1.97091
 20
1.67109
 30
0.0
 10
1.81658
 20
1.5997
 30
0.0
 10
1.66607
 20
1.52103
 30
0.0
 10
1.50786
 20
1.45982
 30
0.0
 10
1.50786
 20
1.45982
 30
0.0
 10
1.26734
 20
1.36682
 30
0.0
 10
0.89844
 20
1.25249
 30
0.0
 10
0.63624
 20
1.15286
 30
0.0
  0
SPLINE
  5
56
330
1F
100
AcDbEntity
  8
Layer 1
370
    53
100
AcDbSpline
210
0.0
220
0.0
230
1.0
 70
    11
 71
     3
 72
   168
 73
   164
 74
     0
 42
0.0000000001
 43
0.0000000001
 12
1.0
 22
0.0
 32
0.0
 13
1.0
 23
0.0
 33
0.0
 40
0.0
 40
0.0
 40
0.0
 40
0.0
 40
0.0238095238095238
 40
0.0238095238095238
 40
0.0238095238095238
 40
0.0238095238095238
 40
0.0476190476190476
 40
0.0476190476190476
 40
0.0476190476190476
 40
0.0476190476190476
 40
0.0714285714285714
 40
0.0714285714285714
 40
0.0714285714285714
 40
0.0714285714285714
 40
0.0952380952380952
 40
0.0952380952380952
 40
0.0952380952380952
 40
0.0952380952380952
 40
0.119047619047619
 40
0.119047619047619
 40
0.119047619047619
 40
0.119047619047619
 40
0.1428571428571428
 40
0.1428571428571428
 40
0.1428571428571428
 40
0.1428571428571428
 40
0.1666666666666667
 40
0.1666666666666667
 40
0.1666666666666667
 40
0.1666666666666667
 40
0.1904761904761905
 40
0.1904761904761905
 40
0.1904761904761905
 40
0.1904761904761905
 40
0.2142857142857143
 40
0.2142857142857143
 40
0.2142857142857143
 40
0.2142857142857143
 40
0.2380952380952381
 40
0.2380952380952381
 40
0.2380952380952381
 40
0.2380952380952381
 40
0.2619047619047619
 40
0.2619047619047619
 40
0.2619047619047619
 40
0.2619047619047619
 40
0.2857142857142857
 40
0.2857142857142857
 40
0.2857142857142857
 40
0.2857142857142857
 40
0.3095238095238095
 40
0.3095238095238095
 40
0.3095238095238095
 40
0.3095238095238095
 40
0.3333333333333333
 40
0.3333333333333333
 40
0.3333333333333333
 40
0.3333333333333333
 40
0.3571428571428572
 40
0.3571428571428572
 40
0.3571428571428572
 40
0.3571428571428572
 40
0.3809523809523809
 40
0.3809523809523809
 40
0.3809523809523809
 40
0.3809523809523809
 40
0.4047619047619048
 40
0.4047619047619048
 40
0.4047619047619048
 40
0.4047619047619048
 40
0.4285714285714285
 40
0.4285714285714285
 40
0.4285714285714285
 40
0.4285714285714285
 40
0.4523809523809524
 40
0.4523809523809524
 40
0.4523809523809524
 40
0.4523809523809524
 40
0.4761904761904762
 40
0.4761904761904762
 40
0.4761904761904762
 40
0.4761904761904762
 40
0.5
 40
0.5
 40
0.5
 40
0.5
 40
0.5238095238095238
 40
0.5238095238095238
 40
0.5238095238095238
 40
0.5238095238095238
 40
0.5476190476190477
 40
0.5476190476190477
 40
0.5476190476190477
 40
0.5476190476190477
 40
0.5714285714285714
 40
0.5714285714285714
 40
0.5714285714285714
 40
0.5714285714285714
 40
0.5952380952380952
 40
0.5952380952380952
 40
0.5952380952380952
 40
0.5952380952380952
 40
0.6190476190476191
 40
0.6190476190476191
 40
0.6190476190476191
 40
0.6190476190476191
 40
0.6428571428571429
 40
0.6428571428571429
 40
0.6428571428571429
 40
0.6428571428571429
 40
0.6666666666666666
 40
0.6666666666666666
 40
0.6666666666666666
 40
0.6666666666666666
 40
0.6904761904761905
 40
0.6904761904761905
 40
0.6904761904761905
 40
0.6904761904761905
 40
0.7142857142857143
 40
0.7142857142857143
 40
0.7142857142857143
 40
0.7142857142857143
 40
0.7380952380952381
 40
0.7380952380952381
 40
0.7380952380952381
 40
0.7380952380952381
 40
0.7619047619047619
 40
0.7619047619047619
 40
0.7619047619047619
 40
0.7619047619047619
 40
0.7857142857142857
 40
0.7857142857142857
 40
0.7857142857142857
 40
0.7857142857142857
 40
0.8095238095238095
 40
0.8095238095238095
 40
0.8095238095238095
 40
0.8095238095238095
 40
0.8333333333333334
 40
0.8333333333333334
 40
0.8333333333333334
 40
0.8333333333333334
 40
0.8571428571428571
 40
0.8571428571428571
 40
0.8571428571428571
 40
0.8571428571428571
 40
0.8809523809523809
 40
0.8809523809523809
 40
0.8809523809523809
 40
0.8809523809523809
 40
0.9047619047619048
 40
0.9047619047619048
 40
0.9047619047619048
 40
0.9047619047619048
 40
0.9285714285714286
 40
0.9285714285714286
 40
0.9285714285714286
 40
0.9285714285714286
 40
0.9523809523809523
 40
0.9523809523809523
 40
0.9523809523809523
 40
0.9523809523809523
 40
1.0
 40
1.0
 40
1.0
 40
1.0
 10
0.98749
 20
-1.8
 30
0.0
 10
0.98749
 20
-1.8
 30
0.0
 10
0.98749
 20
-1.58053
 30
0.0
 10
0.98749
 20
-1.58053
 30
0.0
 10
0.98749
 20
-1.58053
 30
0.0
 10
1.14789
 20
-1.57009
 30
0.0
 10
1.30633
 20
-1.53829
 30
0.0
 10
1.4369
 20
-1.44266
 30
0.0
 10
1.4369
 20
-1.44266
 30
0.0
 10
1.56269
 20
-1.35053
 30
0.0
 10
1.68958
 20
-1.16664
 30
0.0
 10
1.77185
 20
-1.03129
 30
0.0
 10
1.77185
 20
-1.03129
 30
0.0
 10
1.8251
 20
-0.9436
 30
0.0
 10
1.8244
 20
-0.86383
 30
0.0
 10
1.81862
 20
-0.76843
 30
0.0
 10
1.81862
 20
-0.76843
 30
0.0
 10
1.81082
 20
-0.63926
 30
0.0
 10
1.84138
 20
-0.49342
 30
0.0
 10
1.88536
 20
-0.37284
 30
0.0
 10
1.88536
 20
-0.37284
 30
0.0
 10
1.9452
 20
-0.20861
 30
0.0
 10
2.05625
 20
-0.0409
 30
0.0
 10
2.05778
 20
0.14007
 30
0.0
 10
2.05778
 20
0.14007
 30
0.0
 10
2.05935
 20
0.32333
 30
0.0
 10
1.89461
 20
0.35216
 30
0.0
 10
1.75847
 20
0.3909
 30
0.0
 10
1.75847
 20
0.3909
 30
0.0
 10
1.75847
 20
0.3909
 30
0.0
 10
1.73313
 20
0.3907
 30
0.0
 10
1.73313
 20
0.3907
 30
0.0
 10
1.73313
 20
0.3907
 30
0.0
 10
1.85441
 20
0.48057
 30
0.0
 10
2.03866
 20
0.49886
 30
0.0
 10
2.13273
 20
0.62193
 30
0.0
 10
2.13273
 20
0.62193
 30
0.0
 10
2.25841
 20
0.78598
 30
0.0
 10
2.15891
 20
1.0503
 30
0.0
 10
2.28804
 20
1.21196
 30
0.0
 10
2.28804
 20
1.21196
 30
0.0
 10
2.32562
 20
1.25905
 30
0.0
 10
2.37853
 20
1.29107
 30
0.0
 10
2.42378
 20
1.33102
 30
0.0
 10
2.42378
 20
1.33102
 30
0.0
 10
2.55446
 20
1.44558
 30
0.0
 10
2.61637
 20
1.61889
 30
0.0
 10
2.6574
 20
1.78769
 30
0.0
 10
2.6574
 20
1.78769
 30
0.0
 10
2.66241
 20
1.80727
 30
0.0
 10
2.66691
 20
1.82738
 30
0.0
 10
2.6714
 20
1.84722
 30
0.0
 10
2.6714
 20
1.84722
 30
0.0
 10
2.76905
 20
2.28007
 30
0.0
 10
2.81217
 20
2.81136
 30
0.0
 10
2.61771
 20
3.2257
 30
0.0
 10
2.61771
 20
3.2257
 30
0.0
 10
2.45235
 20
3.57733
 30
0.0
 10
2.12214
 20
3.82021
 30
0.0
 10
1.7766
 20
3.97739
 30
0.0
 10
1.7766
 20
3.97739
 30
0.0
 10
1.41464
 20
4.14195
 30
0.0
 10
1.01432
 20
4.21471
 30
0.0
 10
0.61826
 20
4.22344
 30
0.0
 10
0.61826
 20
4.22344
 30
0.0
 10
0.15313
 20
4.2335
 30
0.0
 10
-0.3255
 20
4.16709
 30
0.0
 10
-0.73139
 20
3.93982
 30
0.0
 10
-0.73139
 20
3.93982
 30
0.0
 10
-1.41824
 20
3.55512
 30
0.0
 10
-1.8003
 20
2.73093
 30
0.0
 10
-1.74791
 20
1.94565
 30
0.0
 10
-1.74791
 20
1.94565
 30
0.0
 10
-1.72754
 20
1.63846
 30
0.0
 10
-1.63466
 20
1.31409
 30
0.0
 10
-1.39416
 20
1.122
 30
0.0
 10
-1.39416
 20
1.122
 30
0.0
 10
-1.38939
 20
1.11803
 30
0.0
 10
-1.38464
 20
1.11433
 30
0.0
 10
-1.37961
 20
1.11063
 30
0.0
 10
-1.37961
 20
1.11063
 30
0.0
 10
-1.30394
 20
1.05216
 30
0.0
 10
-1.21583
 20
0.99843
 30
0.0
 10
-1.1891
 20
0.90795
 30
0.0
 10
-1.1891
 20
0.90795
 30
0.0
 10
-1.15921
 20
0.80635
 30
0.0
 10
-1.21901
 20
0.69363
 30
0.0
 10
-1.18593
 20
0.59309
 30
0.0
 10
-1.18593
 20
0.59309
 30
0.0
 10
-1.14495
 20
0.46779
 30
0.0
 10
-0.99541
 20
0.4349
 30
0.0
 10
-0.87572
 20
0.36959
 30
0.0
 10
-0.87572
 20
0.36959
 30
0.0
 10
-0.87572
 20
0.36959
 30
0.0
 10
-0.88392
 20
0.36952
 30
0.0
 10
-0.88392
 20
0.36952
 30
0.0
 10
-0.88392
 20
0.36952
 30
0.0
 10
-1.02008
 20
0.33079
 30
0.0
 10
-1.10543
 20
0.30195
 30
0.0
 10
-1.10387
 20
0.1187
 30
0.0
 10
-1.10387
 20
0.1187
 30
0.0
 10
-1.10233
 20
-0.06228
 30
0.0
 10
-0.99129
 20
-0.22999
 30
0.0
 10
-0.93144
 20
-0.39422
 30
0.0
 10
-0.93144
 20
-0.39422
 30
0.0
 10
-0.88076
 20
-0.53318
 30
0.0
 10
-0.86927
 20
-0.65534
 30
0.0
 10
-0.86347
 20
-0.80092
 30
0.0
 10
-0.86347
 20
-0.80092
 30
0.0
 10
-0.85875
 20
-0.9195
 30
0.0
 10
-0.83865
 20
-1.00798
 30
0.0
 10
-0.76311
 20
-1.10529
 30
0.0
 10
-0.76311
 20
-1.10529
 30
0.0
 10
-0.69838
 20
-1.18866
 30
0.0
 10
-0.61106
 20
-1.25278
 30
0.0
 10
-0.52171
 20
-1.30698
 30
0.0
 10
-0.52171
 20
-1.30698
 30
0.0
 10
-0.40426
 20
-1.37823
 30
0.0
 10
-0.29186
 20
-1.46584
 30
0.0
 10
-0.16349
 20
-1.51513
 30
0.0
 10
-0.16349
 20
-1.51513
 30
0.0
 10
-0.10447
 20
-1.53778
 30
0.0
 10
-0.04589
 20
-1.5541
 30
0.0
 10
0.01249
 20
-1.56574
 30
0.0
 10
0.01249
 20
-1.56574
 30
0.0
 10
0.01249
 20
-1.56574
 30
0.0
 10
0.01249
 20
-1.8
 30
0.0
 10
0.01249
 20
-1.8
 30
0.0
 10
0.01249
 20
-1.8
 30
0.0
 10
0.01249
 20
-1.8
 30
0.0
 10
-1.2
 20
-1.8
 30
0.0
 10
-1.2
 20
-1.8
 30
0.0
 10
-1.2
 20
-1.8
 30
0.0
 10
-1.47614
 20
-1.8
 30
0.0
 10
-1.7
 20
-2.02386
 30
0.0
 10
-1.7
 20
-2.3
 30
0.0
 10
-1.7
 20
-2.3
 30
0.0
 10
-1.7
 20
-2.3
 30
0.0
 10
-1.7
 20
-2.7
 30
0.0
 10
-1.7
 20
-2.7
 30
0.0
 10
-1.7
 20
-2.7
 30
0.0
 10
-1.7
 20
-2.97614
 30
0.0
 10
-1.47614
 20
-3.2
 30
0.0
 10
-1.2
 20
-3.2
 30
0.0
 10
-1.2
 20
-3.2
 30
0.0
 10
-1.2
 20
-3.2
 30
0.0
 10
2.2
 20
-3.2
 30
0.0
 10
2.2
 20
-3.2
 30
0.0
 10
2.2
 20
-3.2
 30
0.0
 10
2.47614
 20
-3.2
 30
0.0
 10
2.7
 20
-2.97614
 30
0.0
 10
2.7
 20
-2.7
 30
0.0
 10
2.7
 20
-2.7
 30
0.0
 10
2.7
 20
-2.7
 30
0.0
 10
2.7
 20
-2.3
 30
0.0
 10
2.7
 20
-2.3
 30
0.0
 10
2.7
 20
-2.3
 30
0.0
 10
2.7
 20
-2.02386
 30
0.0
 10
2.47614
 20
-1.8
 30
0.0
 10
2.2
 20
-1.8
 30
0.0
 10
2.2
 20
-1.8
 30
0.0
 10
2.2
 20
-1.8
 30
0.0
 10
0.98749
 20
-1.8
 30
0.0
 10
0.98749
 20
-1.8
 30
0.0
  0
SPLINE
  5
57
330
1F
100
AcDbEntity
  8
Layer 1
370
    53
100
AcDbSpline
210
0.0
220
0.0
230
1.0
 70
    11
 71
     3
 72
    20
 73
    16
 74
     0
 42
0.0000000001
 43
0.0000000001
 12
1.0
 22
0.0
 32
0.0
 13
1.0
 23
0.0
 33
0.0
 40
0.0
 40
0.0
 40
0.0
 40
0.0
 40
0.2
 40
0.2
 40
0.2
 40
0.2
 40
0.4
 40
0.4
 40
0.4
 40
0.4
 40
0.6
 40
0.6
 40
0.6
 40
0.6
 40
1.0
 40
1.0
 40
1.0
 40
1.0
 10
-0.4
 20
-2.5
 30
0.0
 10
-0.4
 20
-2.41716
 30
0.0
 10
-0.33284
 20
-2.35
 30
0.0
 10
-0.25
 20
-2.35
 30
0.0
 10
-0.25
 20
-2.35
 30
0.0
 10
-0.16716
 20
-2.35
 30
0.0
 10
-0.1
 20
-2.41716
 30
0.0
 10
-0.1
 20
-2.5
 30
0.0
 10
-0.1
 20
-2.5
 30
0.0
 10
-0.1
 20
-2.58284
 30
0.0
 10
-0.16716
 20
-2.65
 30
0.0
 10
-0.25
 20
-2.65
 30
0.0
 10
-0.25
 20
-2.65
 30
0.0
 10
-0.33284
 20
-2.65
 30
0.0
 10
-0.4
 20
-2.58284
 30
0.0
 10
-0.4
 20
-2.5
 30
0.0
  0
SPLINE
  5
58
330
1F
100
AcDbEntity
  8
Layer 1
370
    53
100
AcDbSpline
210
0.0
220
0.0
230
1.0
 70
    11
 71
     3
 72
    20
 73
    16
 74
     0
 42
0.0000000001
 43
0.0000000001
 12
1.0
 22
0.0
 32
0.0
 13
1.0
 23
0.0
 33
0.0
 40
0.0
 40
0.0
 40
0.0
 40
0.0
 40
0.2
 40
0.2
 40
0.2
 40
0.2
 40
0.4
 40
0.4
 40
0.4
 40
0.4
 40
0.6
 40
0.6
 40
0.6
 40
0.6
 40
1.0
 40
1.0
 40
1.0
 40
1.0
 10
1.1
 20
-2.5
 30
0.0
 10
1.1
 20
-2.41716
 30
0.0
 10
1.16716
 20
-2.35
 30
0.0
 10
1.25
 20
-2.35
 30
0.0
 10
1.25
 20
-2.35
 30
0.0
 10
1.33284
 20
-2.35
 30
0.0
 10
1.4
 20
-2.41716
 30
0.0
 10
1.4
 20
-2.5
 30
0.0
 10
1.4
 20
-2.5
 30
0.0
 10
1.4
 20
-2.58284
 30
0.0
 10
1.33284
 20
-2.65
 30
0.0
 10
1.25
 20
-2.65
 30
0.0
 10
1.25
 20
-2.65
 30
0.0
 10
1.16716
 20
-2.65
 30
0.0
 10
1.1
 20
-2.58284
 30
0.0
 10
1.1
 20
-2.5
 30
0.0
  0
ENDSEC
  0
SECTION
  2
OBJECTS
  0
DICTIONARY
  5
C
330
0
100
AcDbDictionary
281
     1
  3
ACAD_GROUP
350
D
  3
ACAD_LAYOUT
350
1A
  3
ACAD_MATERIAL
350
3B
  3
ACAD_MLEADERSTYLE
350
7A
  3
ACAD_MLINESTYLE
350
17
  3
ACAD_PLOTSETTINGS
350
19
  3
ACAD_PLOTSTYLENAME
350
E
  3
ACAD_TABLESTYLE
350
79
  3
ACAD_VISUALSTYLE
350
2A
  0
DICTIONARY
  5
D
102
{ACAD_REACTORS
330
C
102
}
330
C
100
AcDbDictionary
281
     1
  0
DICTIONARY
  5
1A
102
{ACAD_REACTORS
330
C
102
}
330
C
100
AcDbDictionary
281
     1
  3
Layout1
350
1E
  3
Layout2
350
26
  3
Model
350
22
  0
DICTIONARY
  5
3B
102
{ACAD_REACTORS
330
C
102
}
330
C
100
AcDbDictionary
281
     1
  3
ByBlock
350
3D
  3
ByLayer
350
3C
  3
Global
350
3E
  0
DICTIONARY
  5
7A
102
{ACAD_REACTORS
330
C
102
}
330
C
100
AcDbDictionary
281
     1
  0
DICTIONARY
  5
17
102
{ACAD_REACTORS
330
C
102
}
330
C
100
AcDbDictionary
281
     1
  3
Standard
350
18
  0
DICTIONARY
  5
19
102
{ACAD_REACTORS
330
C
102
}
330
C
100
AcDbDictionary
281
     1
  0
ACDBDICTIONARYWDFLT
  5
E
102
{ACAD_REACTORS
330
C
102
}
330
C
100
AcDbDictionary
281
     1
  3
Normal
350
F
100
AcDbDictionaryWithDefault
340
F
  0
DICTIONARY
  5
79
102
{ACAD_REACTORS
330
C
102
}
330
C
100
AcDbDictionary
281
     1
  0
DICTIONARY
  5
2A
102
{ACAD_REACTORS
330
C
102
}
330
C
100
AcDbDictionary
281
     1
  3
2dWireframe
350
2F
  3
3D Hidden
350
31
  3
3dWireframe
350
30
  3
Basic
350
32
  3
Brighten
350
36
  3
ColorChange
350
3A
  3
Conceptual
350
34
  3
Dim
350
35
  3
Facepattern
350
39
  3
Flat
350
2B
  3
FlatWithEdges
350
2C
  3
Gouraud
350
2D
  3
GouraudWithEdges
350
2E
  3
Linepattern
350
38
  3
Realistic
350
33
  3
Thicken
350
37
  0
LAYOUT
  5
1E
102
{ACAD_REACTORS
330
1A
102
}
330
1A
100
AcDbPlotSettings
  1

  2
none_device
  4

  6

 40
0.0
 41
0.0
 42
0.0
 43
0.0
 44
0.0
 45
0.0
 46
0.0
 47
0.0
 48
0.0
 49
0.0
140
0.0
141
0.0
142
1.0
143
1.0
 70
   688
 72
     0
 73
     0
 74
     5
  7

 75
    16
 76
     0
 77
     2
 78
   300
147
1.0
148
0.0
149
0.0
100
AcDbLayout
  1
Layout1
 70
     1
 71
     1
 10
0.0
 20
0.0
 11
12.0
 21
9.0
 12
0.0
 22
0.0
 32
0.0
 14
1.000000000000000E+20
 24
1.000000000000000E+20
 34
1.000000000000000E+20
 15
-1.000000000000000E+20
 25
-1.000000000000000E+20
 35
-1.000000000000000E+20
146
0.0
 13
0.0
 23
0.0
 33
0.0
 16
1.0
 26
0.0
 36
0.0
 17
0.0
 27
1.0
 37
0.0
 76
     0
330
1B
  0
LAYOUT
  5
26
102
{ACAD_REACTORS
330
1A
102
}
330
1A
100
AcDbPlotSettings
  1

  2
none_device
  4

  6

 40
0.0
 41
0.0
 42
0.0
 43
0.0
 44
0.0
 45
0.0
 46
0.0
 47
0.0
 48
0.0
 49
0.0
140
0.0
141
0.0
142
1.0
143
1.0
 70
   688
 72
     0
 73
     0
 74
     5
  7

 75
    16
 76
     0
 77
     2
 78
   300
147
1.0
148
0.0
149
0.0
100
AcDbLayout
  1
Layout2
 70
     1
 71
     2
 10
0.0
 20
0.0
 11
0.0
 21
0.0
 12
0.0
 22
0.0
 32
0.0
 14
0.0
 24
0.0
 34
0.0
 15
0.0
 25
0.0
 35
0.0
146
0.0
 13
0.0
 23
0.0
 33
0.0
 16
1.0
 26
0.0
 36
0.0
 17
0.0
 27
1.0
 37
0.0
 76
     0
330
23
  0
LAYOUT
  5
22
102
{ACAD_REACTORS
330
1A
102
}
330
1A
100
AcDbPlotSettings
  1

  2
none_device
  4

  6

 40
0.0
 41
0.0
 42
0.0
 43
0.0
 44
0.0
 45
0.0
 46
0.0
 47
0.0
 48
0.0
 49
0.0
140
0.0
141
0.0
142
1.0
143
1.0
 70
  1712
 72
     0
 73
     0
 74
     0
  7

 75
     0
 76
     0
 77
     2
 78
   300
147
1.0
148
0.0
149
0.0
100
AcDbLayout
  1
Model
 70
     1
 71
     0
 10
0.0
 20
0.0
 11
12.0
 21
9.0
 12
0.0
 22
0.0
 32
0.0
 14
-1.77913
 24
-3.22646
 34
0.0
 15
2.78056
 25
4.25087
 35
0.0
146
0.0
 13
0.0
 23
0.0
 33
0.0
 16
1.0
 26
0.0
 36
0.0
 17
0.0
 27
1.0
 37
0.0
 76
     0
330
1F
331
29
  0
MATERIAL
  5
3D
102
{ACAD_REACTORS
330
3B
102
}
330
3B
100
AcDbMaterial
  1
ByBlock
 72
     1
 94
      127
  0
MATERIAL
  5
3C
102
{ACAD_REACTORS
330
3B
102
}
330
3B
100
AcDbMaterial
  1
ByLayer
 72
     1
 94
      127
  0
MATERIAL
  5
3E
102
{ACAD_REACTORS
330
3B
102
}
330
3B
100
AcDbMaterial
  1
Global
 72
     1
 94
      127
  0
MLINESTYLE
  5
18
102
{ACAD_REACTORS
330
17
102
}
330
17
100
AcDbMlineStyle
  2
Standard
 70
     0
  3

 62
   256
 51
90.0
 52
90.0
 71
     2
 49
0.5
 62
   256
  6
BYLAYER
 49
-0.5
 62
   256
  6
BYLAYER
  0
ACDBPLACEHOLDER
  5
F
102
{ACAD_REACTORS
330
E
102
}
330
E
  0
VISUALSTYLE
  5
2F
102
{ACAD_REACTORS
330
2A
102
}
102
{ACAD_XDICTIONARY
360
61
102
}
330
2A
100
AcDbVisualStyle
  2
2dWireframe
 70
     4
 71
     0
 72
     2
 73
     0
 90
        0
 40
-0.6
 41
-30.0
 62
     5
 63
     7
421
 16777215
 74
     1
 91
        4
 64
     7
 65
   257
 75
     1
175
     1
 42
1.0
 92
        0
 66
   257
 43
1.0
 76
     1
 77
     6
 78
     2
 67
     7
 79
     5
170
     0
171
     0
290
     0
174
     0
 93
        1
 44
0.0
173
     0
291
     0
 45
0.0
  0
VISUALSTYLE
  5
31
102
{ACAD_REACTORS
330
2A
102
}
102
{ACAD_XDICTIONARY
360
65
102
}
330
2A
100
AcDbVisualStyle
  2
3D Hidden
 70
     6
 71
     1
 72
     2
 73
     2
 90
        0
 40
-0.6
 41
-30.0
 62
     5
 63
     7
421
 16777215
 74
     2
 91
        2
 64
     7
 65
   257
 75
     2
175
     1
 42
40.0
 92
        0
 66
   257
 43
1.0
 76
     1
 77
     6
 78
     2
 67
     7
 79
     3
170
     0
171
     0
290
     0
174
     0
 93
        1
 44
0.0
173
     0
291
     0
 45
0.0
  0
VISUALSTYLE
  5
30
102
{ACAD_REACTORS
330
2A
102
}
102
{ACAD_XDICTIONARY
360
63
102
}
330
2A
100
AcDbVisualStyle
  2
3dWireframe
 70
     5
 71
     0
 72
     2
 73
     0
 90
        0
 40
-0.6
 41
-30.0
 62
     5
 63
     7
421
 16777215
 74
     1
 91
        4
 64
     7
 65
   257
 75
     1
175
     1
 42
1.0
 92
        0
 66
   257
 43
1.0
 76
     1
 77
     6
 78
     2
 67
     7
 79
     5
170
     0
171
     0
290
     0
174
     0
 93
        1
 44
0.0
173
     0
291
     0
 45
0.0
  0
VISUALSTYLE
  5
32
102
{ACAD_REACTORS
330
2A
102
}
102
{ACAD_XDICTIONARY
360
67
102
}
330
2A
100
AcDbVisualStyle
  2
Basic
 70
     7
 71
     1
 72
     0
 73
     1
 90
        0
 40
-0.6
 41
-30.0
 62
     5
 63
     7
421
 16777215
 74
     0
 91
        4
 64
     7
 65
   257
 75
     1
175
     1
 42
1.0
 92
        8
 66
     7
 43
1.0
 76
     1
 77
     6
 78
     2
 67
     7
 79
     5
170
     0
171
     0
290
     0
174
     0
 93
        1
 44
0.0
173
     0
291
     1
 45
0.0
  0
VISUALSTYLE
  5
36
102
{ACAD_REACTORS
330
2A
102
}
102
{ACAD_XDICTIONARY
360
6F
102
}
330
2A
100
AcDbVisualStyle
  2
Brighten
 70
    12
 71
     2
 72
     2
 73
     0
 90
        0
 40
-0.6
 41
-30.0
 62
     5
 63
     7
421
 16777215
 74
     1
 91
        4
 64
     7
 65
   257
 75
     1
175
     1
 42
1.0
 92
        8
 66
     7
 43
1.0
 76
     1
 77
     6
 78
     2
 67
     7
 79
     5
170
     0
171
     0
290
     0
174
     0
 93
        1
 44
50.0
173
     0
291
     1
 45
0.0
  0
VISUALSTYLE
  5
3A
102
{ACAD_REACTORS
330
2A
102
}
102
{ACAD_XDICTIONARY
360
77
102
}
330
2A
100
AcDbVisualStyle
  2
ColorChange
 70
    16
 71
     2
 72
     2
 73
     3
 90
        0
 40
-0.6
 41
-30.0
 62
     5
 63
     8
421
  8421504
 74
     1
 91
        4
 64
     7
 65
   257
 75
     1
175
     1
 42
1.0
 92
        8
 66
     8
424
  8421504
 43
1.0
 76
     1
 77
     6
 78
     2
 67
     7
 79
     5
170
     0
171
     0
290
     0
174
     0
 93
        1
 44
0.0
173
     0
291
     1
 45
0.0
  0
VISUALSTYLE
  5
34
102
{ACAD_REACTORS
330
2A
102
}
102
{ACAD_XDICTIONARY
360
6B
102
}
330
2A
100
AcDbVisualStyle
  2
Conceptual
 70
     9
 71
     3
 72
     2
 73
     0
 90
        0
 40
-0.6
 41
-30.0
 62
     5
 63
     7
421
 16777215
 74
     2
 91
        2
 64
     7
 65
   257
 75
     1
175
     1
 42
40.0
 92
        8
 66
     7
 43
1.0
 76
     1
 77
     6
 78
     2
 67
     7
 79
     3
170
     0
171
     0
290
     0
174
     0
 93
        1
 44
0.0
173
     0
291
     0
 45
0.0
  0
VISUALSTYLE
  5
35
102
{ACAD_REACTORS
330
2A
102
}
102
{ACAD_XDICTIONARY
360
6D
102
}
330
2A
100
AcDbVisualStyle
  2
Dim
 70
    11
 71
     2
 72
     2
 73
     0
 90
        0
 40
-0.6
 41
-30.0
 62
     5
 63
     7
421
 16777215
 74
     1
 91
        4
 64
     7
 65
   257
 75
     1
175
     1
 42
1.0
 92
        8
 66
     7
 43
1.0
 76
     1
 77
     6
 78
     2
 67
     7
 79
     5
170
     0
171
     0
290
     0
174
     0
 93
        1
 44
-50.0
173
     0
291
     1
 45
0.0
  0
VISUALSTYLE
  5
39
102
{ACAD_REACTORS
330
2A
102
}
102
{ACAD_XDICTIONARY
360
75
102
}
330
2A
100
AcDbVisualStyle
  2
Facepattern
 70
    15
 71
     2
 72
     2
 73
     0
 90
        0
 40
-0.6
 41
-30.0
 62
     5
 63
     7
421
 16777215
 74
     1
 91
        4
 64
     7
 65
   257
 75
     1
175
     1
 42
1.0
 92
        8
 66
     7
 43
1.0
 76
     1
 77
     6
 78
     2
 67
     7
 79
     5
170
     0
171
     0
290
     0
174
     0
 93
        1
 44
0.0
173
     0
291
     1
 45
0.0
  0
VISUALSTYLE
  5
2B
102
{ACAD_REACTORS
330
2A
102
}
102
{ACAD_XDICTIONARY
360
59
102
}
330
2A
100
AcDbVisualStyle
  2
Flat
 70
     0
 71
     2
 72
     1
 73
     1
 90
        2
 40
-0.6
 41
30.0
 62
     5
 63
     7
421
 16777215
 74
     0
 91
        4
 64
     7
 65
   257
 75
     1
175
     1
 42
1.0
 92
        8
 66
     7
 43
1.0
 76
     1
 77
     6
 78
     2
 67
     7
 79
     5
170
     0
171
     0
290
     0
174
     0
 93
       13
 44
0.0
173
     0
291
     1
 45
0.0
  0
VISUALSTYLE
  5
2C
102
{ACAD_REACTORS
330
2A
102
}
102
{ACAD_XDICTIONARY
360
5B
102
}
330
2A
100
AcDbVisualStyle
  2
FlatWithEdges
 70
     1
 71
     2
 72
     1
 73
     1
 90
        2
 40
-0.6
 41
30.0
 62
     5
 63
     7
421
 16777215
 74
     1
 91
        4
 64
     7
 65
   257
 75
     1
175
     1
 42
1.0
 92
        0
 66
   257
 43
1.0
 76
     1
 77
     6
 78
     2
 67
     7
 79
     5
170
     0
171
     0
290
     0
174
     0
 93
       13
 44
0.0
173
     0
291
     1
 45
0.0
  0
VISUALSTYLE
  5
2D
102
{ACAD_REACTORS
330
2A
102
}
102
{ACAD_XDICTIONARY
360
5D
102
}
330
2A
100
AcDbVisualStyle
  2
Gouraud
 70
     2
 71
     2
 72
     2
 73
     1
 90
        2
 40
-0.6
 41
30.0
 62
     5
 63
     7
421
 16777215
 74
     0
 91
        4
 64
     7
 65
   257
 75
     1
175
     1
 42
1.0
 92
        0
 66
     7
 43
1.0
 76
     1
 77
     6
 78
     2
 67
     7
 79
     5
170
     0
171
     0
290
     0
174
     0
 93
       13
 44
0.0
173
     0
291
     1
 45
0.0
  0
VISUALSTYLE
  5
2E
102
{ACAD_REACTORS
330
2A
102
}
102
{ACAD_XDICTIONARY
360
5F
102
}
330
2A
100
AcDbVisualStyle
  2
GouraudWithEdges
 70
     3
 71
     2
 72
     2
 73
     1
 90
        2
 40
-0.6
 41
30.0
 62
     5
 63
     7
421
 16777215
 74
     1
 91
        4
 64
     7
 65
   257
 75
     1
175
     1
 42
1.0
 92
        0
 66
   257
 43
1.0
 76
     1
 77
     6
 78
     2
 67
     7
 79
     5
170
     0
171
     0
290
     0
174
     0
 93
       13
 44
0.0
173
     0
291
     1
 45
0.0
  0
VISUALSTYLE
  5
38
102
{ACAD_REACTORS
330
2A
102
}
102
{ACAD_XDICTIONARY
360
73
102
}
330
2A
100
AcDbVisualStyle
  2
Linepattern
 70
    14
 71
     2
 72
     2
 73
     0
 90
        0
 40
-0.6
 41
-30.0
 62
     5
 63
     7
421
 16777215
 74
     1
 91
        4
 64
     7
 65
   257
 75
     7
175
     7
 42
1.0
 92
        8
 66
     7
 43
1.0
 76
     1
 77
     6
 78
     2
 67
     7
 79
     5
170
     0
171
     0
290
     0
174
     0
 93
        1
 44
0.0
173
     0
291
     1
 45
0.0
  0
VISUALSTYLE
  5
33
102
{ACAD_REACTORS
330
2A
102
}
102
{ACAD_XDICTIONARY
360
69
102
}
330
2A
100
AcDbVisualStyle
  2
Realistic
 70
     8
 71
     2
 72
     2
 73
     0
 90
        0
 40
-0.6
 41
-30.0
 62
     5
 63
     7
421
 16777215
 74
     1
 91
        0
 64
     7
 65
   257
 75
     1
175
     1
 42
1.0
 92
        8
 66
     8
424
  7895160
 43
1.0
 76
     1
 77
     6
 78
     2
 67
     7
 79
     5
170
     0
171
     0
290
     0
174
     0
 93
       13
 44
0.0
173
     0
291
     0
 45
0.0
  0
VISUALSTYLE
  5
37
102
{ACAD_REACTORS
330
2A
102
}
102
{ACAD_XDICTIONARY
360
71
102
}
330
2A
100
AcDbVisualStyle
  2
Thicken
 70
    13
 71
     2
 72
     2
 73
     0
 90
        0
 40
-0.6
 41
-30.0
 62
     5
 63
     7
421
 16777215
 74
     1
 91
        4
 64
     7
 65
   257
 75
     1
175
     1
 42
1.0
 92
       12
 66
     7
 43
1.0
 76
     1
 77
     6
 78
     2
 67
     7
 79
     5
170
     0
171
     0
290
     0
174
     0
 93
        1
 44
0.0
173
     0
291
     1
 45
0.0
  0
DICTIONARY
  5
61
330
2F
100
AcDbDictionary
280
     1
281
     1
  3
ACAD_XREC_ROUNDTRIP
360
62
  0
DICTIONARY
  5
65
330
31
100
AcDbDictionary
280
     1
281
     1
  3
ACAD_XREC_ROUNDTRIP
360
66
  0
DICTIONARY
  5
63
330
30
100
AcDbDictionary
280
     1
281
     1
  3
ACAD_XREC_ROUNDTRIP
360
64
  0
DICTIONARY
  5
67
330
32
100
AcDbDictionary
280
     1
281
     1
  3
ACAD_XREC_ROUNDTRIP
360
68
  0
DICTIONARY
  5
6F
330
36
100
AcDbDictionary
280
     1
281
     1
  3
ACAD_XREC_ROUNDTRIP
360
70
  0
DICTIONARY
  5
77
330
3A
100
AcDbDictionary
280
     1
281
     1
  3
ACAD_XREC_ROUNDTRIP
360
78
  0
DICTIONARY
  5
6B
330
34
100
AcDbDictionary
280
     1
281
     1
  3
ACAD_XREC_ROUNDTRIP
360
6C
  0
DICTIONARY
  5
6D
330
35
100
AcDbDictionary
280
     1
281
     1
  3
ACAD_XREC_ROUNDTRIP
360
6E
  0
DICTIONARY
  5
75
330
39
100
AcDbDictionary
280
     1
281
     1
  3
ACAD_XREC_ROUNDTRIP
360
76
  0
DICTIONARY
  5
59
330
2B
100
AcDbDictionary
280
     1
281
     1
  3
ACAD_XREC_ROUNDTRIP
360
5A
  0
DICTIONARY
  5
5B
330
2C
100
AcDbDictionary
280
     1
281
     1
  3
ACAD_XREC_ROUNDTRIP
360
5C
  0
DICTIONARY
  5
5D
330
2D
100
AcDbDictionary
280
     1
281
     1
  3
ACAD_XREC_ROUNDTRIP
360
5E
  0
DICTIONARY
  5
5F
330
2E
100
AcDbDictionary
280
     1
281
     1
  3
ACAD_XREC_ROUNDTRIP
360
60
  0
DICTIONARY
  5
73
330
38
100
AcDbDictionary
280
     1
281
     1
  3
ACAD_XREC_ROUNDTRIP
360
74
  0
DICTIONARY
  5
69
330
33
100
AcDbDictionary
280
     1
281
     1
  3
ACAD_XREC_ROUNDTRIP
360
6A
  0
DICTIONARY
  5
71
330
37
100
AcDbDictionary
280
     1
281
     1
  3
ACAD_XREC_ROUNDTRIP
360
72
  0
XRECORD
  5
62
102
{ACAD_REACTORS
330
61
102
}
330
61
100
AcDbXrecord
280
     1
102
RTVSPropertyOp0
 70
     1
102
RTVSPropertyOp1
 70
     1
102
RTVSPropertyOp2
 70
     1
102
RTVSPropertyOp3
 70
     1
102
RTVSPropertyOp4
 70
     1
102
RTVSPropertyOp5
 70
     1
102
RTVSPropertyOp6
 70
     1
102
RTVSPropertyOp7
 70
     1
102
RTVSPropertyOp8
 70
     1
102
RTVSPropertyOp9
 70
     1
102
RTVSPropertyOp10
 70
     1
102
RTVSPropertyOp11
 70
     1
102
RTVSPropertyOp12
 70
     1
102
RTVSPropertyOp13
 70
     1
102
RTVSPropertyOp14
 70
     1
102
RTVSPropertyOp15
 70
     1
102
RTVSPropertyOp16
 70
     1
102
RTVSPropertyOp17
 70
     1
102
RTVSPropertyOp18
 70
     1
102
RTVSPropertyOp19
 70
     1
102
RTVSPropertyOp20
 70
     1
102
RTVSPropertyOp21
 70
     1
102
RTVSPropertyOp22
 70
     1
102
RTVSPropertyOp23
 70
     1
102
RTVSPropertyOp24
 70
     1
102
RTVSPropertyOp25
 70
     1
102
RTVSPropertyOp26
 70
     1
102
RTVSPropertyOp27
 70
     1
102
RTVSPropertyOp28
 70
     1
102
RTVSPropertyOp29
 70
     1
102
RTVSPropertyOp30
 70
     1
102
RTVSPropertyOp31
 70
     1
102
RTVSPropertyOp32
 70
     1
  0
XRECORD
  5
66
102
{ACAD_REACTORS
330
65
102
}
330
65
100
AcDbXrecord
280
     1
102
RTVSPropertyOp0
 70
     1
102
RTVSPropertyOp1
 70
     1
102
RTVSPropertyOp2
 70
     1
102
RTVSPropertyOp3
 70
     1
102
RTVSPropertyOp4
 70
     1
102
RTVSPropertyOp5
 70
     1
102
RTVSPropertyOp6
 70
     1
102
RTVSPropertyOp7
 70
     1
102
RTVSPropertyOp8
 70
     1
102
RTVSPropertyOp9
 70
     1
102
RTVSPropertyOp10
 70
     1
102
RTVSPropertyOp11
 70
     1
102
RTVSPropertyOp12
 70
     1
102
RTVSPropertyOp13
 70
     1
102
RTVSPropertyOp14
 70
     1
102
RTVSPropertyOp15
 70
     1
102
RTVSPropertyOp16
 70
     1
102
RTVSPropertyOp17
 70
     1
102
RTVSPropertyOp18
 70
     1
102
RTVSPropertyOp19
 70
     1
102
RTVSPropertyOp20
 70
     1
102
RTVSPropertyOp21
 70
     1
102
RTVSPropertyOp22
 70
     1
102
RTVSPropertyOp23
 70
     1
102
RTVSPropertyOp24
 70
     1
102
RTVSPropertyOp25
 70
     1
102
RTVSPropertyOp26
 70
     1
102
RTVSPropertyOp27
 70
     1
102
RTVSPropertyOp28
 70
     1
102
RTVSPropertyOp29
 70
     1
102
RTVSPropertyOp30
 70
     1
102
RTVSPropertyOp31
 70
     1
102
RTVSPropertyOp32
 70
     1
  0
XRECORD
  5
64
102
{ACAD_REACTORS
330
63
102
}
330
63
100
AcDbXrecord
280
     1
102
RTVSPropertyOp0
 70
     1
102
RTVSPropertyOp1
 70
     1
102
RTVSPropertyOp2
 70
     1
102
RTVSPropertyOp3
 70
     1
102
RTVSPropertyOp4
 70
     1
102
RTVSPropertyOp5
 70
     1
102
RTVSPropertyOp6
 70
     1
102
RTVSPropertyOp7
 70
     1
102
RTVSPropertyOp8
 70
     1
102
RTVSPropertyOp9
 70
     1
102
RTVSPropertyOp10
 70
     1
102
RTVSPropertyOp11
 70
     1
102
RTVSPropertyOp12
 70
     1
102
RTVSPropertyOp13
 70
     1
102
RTVSPropertyOp14
 70
     1
102
RTVSPropertyOp15
 70
     1
102
RTVSPropertyOp16
 70
     1
102
RTVSPropertyOp17
 70
     1
102
RTVSPropertyOp18
 70
     1
102
RTVSPropertyOp19
 70
     1
102
RTVSPropertyOp20
 70
     1
102
RTVSPropertyOp21
 70
     1
102
RTVSPropertyOp22
 70
     1
102
RTVSPropertyOp23
 70
     1
102
RTVSPropertyOp24
 70
     1
102
RTVSPropertyOp25
 70
     1
102
RTVSPropertyOp26
 70
     1
102
RTVSPropertyOp27
 70
     1
102
RTVSPropertyOp28
 70
     1
102
RTVSPropertyOp29
 70
     1
102
RTVSPropertyOp30
 70
     1
102
RTVSPropertyOp31
 70
     1
102
RTVSPropertyOp32
 70
     1
  0
XRECORD
  5
68
102
{ACAD_REACTORS
330
67
102
}
330
67
100
AcDbXrecord
280
     1
102
RTVSPropertyOp0
 70
     1
102
RTVSPropertyOp1
 70
     1
102
RTVSPropertyOp2
 70
     1
102
RTVSPropertyOp3
 70
     1
102
RTVSPropertyOp4
 70
     1
102
RTVSPropertyOp5
 70
     1
102
RTVSPropertyOp6
 70
     1
102
RTVSPropertyOp7
 70
     1
102
RTVSPropertyOp8
 70
     1
102
RTVSPropertyOp9
 70
     1
102
RTVSPropertyOp10
 70
     1
102
RTVSPropertyOp11
 70
     1
102
RTVSPropertyOp12
 70
     1
102
RTVSPropertyOp13
 70
     1
102
RTVSPropertyOp14
 70
     1
102
RTVSPropertyOp15
 70
     1
102
RTVSPropertyOp16
 70
     1
102
RTVSPropertyOp17
 70
     1
102
RTVSPropertyOp18
 70
     1
102
RTVSPropertyOp19
 70
     1
102
RTVSPropertyOp20
 70
     1
102
RTVSPropertyOp21
 70
     1
102
RTVSPropertyOp22
 70
     1
102
RTVSPropertyOp23
 70
     1
102
RTVSPropertyOp24
 70
     1
102
RTVSPropertyOp25
 70
     1
102
RTVSPropertyOp26
 70
     1
102
RTVSPropertyOp27
 70
     1
102
RTVSPropertyOp28
 70
     1
102
RTVSPropertyOp29
 70
     1
102
RTVSPropertyOp30
 70
     1
102
RTVSPropertyOp31
 70
     1
102
RTVSPropertyOp32
 70
     1
  0
XRECORD
  5
70
102
{ACAD_REACTORS
330
6F
102
}
330
6F
100
AcDbXrecord
280
     1
102
RTVSPropertyOp0
 70
     1
102
RTVSPropertyOp1
 70
     1
102
RTVSPropertyOp2
 70
     1
102
RTVSPropertyOp3
 70
     1
102
RTVSPropertyOp4
 70
     1
102
RTVSPropertyOp5
 70
     1
102
RTVSPropertyOp6
 70
     1
102
RTVSPropertyOp7
 70
     1
102
RTVSPropertyOp8
 70
     1
102
RTVSPropertyOp9
 70
     1
102
RTVSPropertyOp10
 70
     1
102
RTVSPropertyOp11
 70
     1
102
RTVSPropertyOp12
 70
     1
102
RTVSPropertyOp13
 70
     1
102
RTVSPropertyOp14
 70
     1
102
RTVSPropertyOp15
 70
     1
102
RTVSPropertyOp16
 70
     1
102
RTVSPropertyOp17
 70
     1
102
RTVSPropertyOp18
 70
     1
102
RTVSPropertyOp19
 70
     1
102
RTVSPropertyOp20
 70
     1
102
RTVSPropertyOp21
 70
     1
102
RTVSPropertyOp22
 70
     1
102
RTVSPropertyOp23
 70
     1
102
RTVSPropertyOp24
 70
     1
102
RTVSPropertyOp25
 70
     1
102
RTVSPropertyOp26
 70
     1
102
RTVSPropertyOp27
 70
     1
102
RTVSPropertyOp28
 70
     1
102
RTVSPropertyOp29
 70
     1
102
RTVSPropertyOp30
 70
     1
102
RTVSPropertyOp31
 70
     1
102
RTVSPropertyOp32
 70
     1
  0
XRECORD
  5
78
102
{ACAD_REACTORS
330
77
102
}
330
77
100
AcDbXrecord
280
     1
102
RTVSPropertyOp0
 70
     1
102
RTVSPropertyOp1
 70
     1
102
RTVSPropertyOp2
 70
     1
102
RTVSPropertyOp3
 70
     1
102
RTVSPropertyOp4
 70
     1
102
RTVSPropertyOp5
 70
     1
102
RTVSPropertyOp6
 70
     1
102
RTVSPropertyOp7
 70
     1
102
RTVSPropertyOp8
 70
     1
102
RTVSPropertyOp9
 70
     1
102
RTVSPropertyOp10
 70
     1
102
RTVSPropertyOp11
 70
     1
102
RTVSPropertyOp12
 70
     1
102
RTVSPropertyOp13
 70
     1
102
RTVSPropertyOp14
 70
     1
102
RTVSPropertyOp15
 70
     1
102
RTVSPropertyOp16
 70
     1
102
RTVSPropertyOp17
 70
     1
102
RTVSPropertyOp18
 70
     1
102
RTVSPropertyOp19
 70
     1
102
RTVSPropertyOp20
 70
     1
102
RTVSPropertyOp21
 70
     1
102
RTVSPropertyOp22
 70
     1
102
RTVSPropertyOp23
 70
     1
102
RTVSPropertyOp24
 70
     1
102
RTVSPropertyOp25
 70
     1
102
RTVSPropertyOp26
 70
     1
102
RTVSPropertyOp27
 70
     1
102
RTVSPropertyOp28
 70
     1
102
RTVSPropertyOp29
 70
     1
102
RTVSPropertyOp30
 70
     1
102
RTVSPropertyOp31
 70
     1
102
RTVSPropertyOp32
 70
     1
  0
XRECORD
  5
6C
102
{ACAD_REACTORS
330
6B
102
}
330
6B
100
AcDbXrecord
280
     1
102
RTVSPropertyOp0
 70
     1
102
RTVSPropertyOp1
 70
     1
102
RTVSPropertyOp2
 70
     1
102
RTVSPropertyOp3
 70
     1
102
RTVSPropertyOp4
 70
     1
102
RTVSPropertyOp5
 70
     1
102
RTVSPropertyOp6
 70
     1
102
RTVSPropertyOp7
 70
     1
102
RTVSPropertyOp8
 70
     1
102
RTVSPropertyOp9
 70
     1
102
RTVSPropertyOp10
 70
     1
102
RTVSPropertyOp11
 70
     1
102
RTVSPropertyOp12
 70
     1
102
RTVSPropertyOp13
 70
     1
102
RTVSPropertyOp14
 70
     1
102
RTVSPropertyOp15
 70
     1
102
RTVSPropertyOp16
 70
     1
102
RTVSPropertyOp17
 70
     1
102
RTVSPropertyOp18
 70
     1
102
RTVSPropertyOp19
 70
     1
102
RTVSPropertyOp20
 70
     1
102
RTVSPropertyOp21
 70
     1
102
RTVSPropertyOp22
 70
     1
102
RTVSPropertyOp23
 70
     1
102
RTVSPropertyOp24
 70
     1
102
RTVSPropertyOp25
 70
     1
102
RTVSPropertyOp26
 70
     1
102
RTVSPropertyOp27
 70
     1
102
RTVSPropertyOp28
 70
     1
102
RTVSPropertyOp29
 70
     1
102
RTVSPropertyOp30
 70
     1
102
RTVSPropertyOp31
 70
     1
102
RTVSPropertyOp32
 70
     1
  0
XRECORD
  5
6E
102
{ACAD_REACTORS
330
6D
102
}
330
6D
100
AcDbXrecord
280
     1
102
RTVSPropertyOp0
 70
     1
102
RTVSPropertyOp1
 70
     1
102
RTVSPropertyOp2
 70
     1
102
RTVSPropertyOp3
 70
     1
102
RTVSPropertyOp4
 70
     1
102
RTVSPropertyOp5
 70
     1
102
RTVSPropertyOp6
 70
     1
102
RTVSPropertyOp7
 70
     1
102
RTVSPropertyOp8
 70
     1
102
RTVSPropertyOp9
 70
     1
102
RTVSPropertyOp10
 70
     1
102
RTVSPropertyOp11
 70
     1
102
RTVSPropertyOp12
 70
     1
102
RTVSPropertyOp13
 70
     1
102
RTVSPropertyOp14
 70
     1
102
RTVSPropertyOp15
 70
     1
102
RTVSPropertyOp16
 70
     1
102
RTVSPropertyOp17
 70
     1
102
RTVSPropertyOp18
 70
     1
102
RTVSPropertyOp19
 70
     1
102
RTVSPropertyOp20
 70
     1
102
RTVSPropertyOp21
 70
     1
102
RTVSPropertyOp22
 70
     1
102
RTVSPropertyOp23
 70
     1
102
RTVSPropertyOp24
 70
     1
102
RTVSPropertyOp25
 70
     1
102
RTVSPropertyOp26
 70
     1
102
RTVSPropertyOp27
 70
     1
102
RTVSPropertyOp28
 70
     1
102
RTVSPropertyOp29
 70
     1
102
RTVSPropertyOp30
 70
     1
102
RTVSPropertyOp31
 70
     1
102
RTVSPropertyOp32
 70
     1
  0
XRECORD
  5
76
102
{ACAD_REACTORS
330
75
102
}
330
75
100
AcDbXrecord
280
     1
102
RTVSPropertyOp0
 70
     1
102
RTVSPropertyOp1
 70
     1
102
RTVSPropertyOp2
 70
     1
102
RTVSPropertyOp3
 70
     1
102
RTVSPropertyOp4
 70
     1
102
RTVSPropertyOp5
 70
     1
102
RTVSPropertyOp6
 70
     1
102
RTVSPropertyOp7
 70
     1
102
RTVSPropertyOp8
 70
     1
102
RTVSPropertyOp9
 70
     1
102
RTVSPropertyOp10
 70
     1
102
RTVSPropertyOp11
 70
     1
102
RTVSPropertyOp12
 70
     1
102
RTVSPropertyOp13
 70
     1
102
RTVSPropertyOp14
 70
     1
102
RTVSPropertyOp15
 70
     1
102
RTVSPropertyOp16
 70
     1
102
RTVSPropertyOp17
 70
     1
102
RTVSPropertyOp18
 70
     1
102
RTVSPropertyOp19
 70
     1
102
RTVSPropertyOp20
 70
     1
102
RTVSPropertyOp21
 70
     1
102
RTVSPropertyOp22
 70
     1
102
RTVSPropertyOp23
 70
     1
102
RTVSPropertyOp24
 70
     1
102
RTVSPropertyOp25
 70
     1
102
RTVSPropertyOp26
 70
     1
102
RTVSPropertyOp27
 70
     1
102
RTVSPropertyOp28
 70
     1
102
RTVSPropertyOp29
 70
     1
102
RTVSPropertyOp30
 70
     1
102
RTVSPropertyOp31
 70
     1
102
RTVSPropertyOp32
 70
     1
  0
XRECORD
  5
5A
102
{ACAD_REACTORS
330
59
102
}
330
59
100
AcDbXrecord
280
     1
102
RTVSPropertyOp0
 70
     1
102
RTVSPropertyOp1
 70
     1
102
RTVSPropertyOp2
 70
     1
102
RTVSPropertyOp3
 70
     1
102
RTVSPropertyOp4
 70
     1
102
RTVSPropertyOp5
 70
     1
102
RTVSPropertyOp6
 70
     1
102
RTVSPropertyOp7
 70
     1
102
RTVSPropertyOp8
 70
     1
102
RTVSPropertyOp9
 70
     1
102
RTVSPropertyOp10
 70
     1
102
RTVSPropertyOp11
 70
     1
102
RTVSPropertyOp12
 70
     1
102
RTVSPropertyOp13
 70
     1
102
RTVSPropertyOp14
 70
     1
102
RTVSPropertyOp15
 70
     1
102
RTVSPropertyOp16
 70
     1
102
RTVSPropertyOp17
 70
     1
102
RTVSPropertyOp18
 70
     1
102
RTVSPropertyOp19
 70
     1
102
RTVSPropertyOp20
 70
     1
102
RTVSPropertyOp21
 70
     1
102
RTVSPropertyOp22
 70
     1
102
RTVSPropertyOp23
 70
     1
102
RTVSPropertyOp24
 70
     1
102
RTVSPropertyOp25
 70
     1
102
RTVSPropertyOp26
 70
     1
102
RTVSPropertyOp27
 70
     1
102
RTVSPropertyOp28
 70
     1
102
RTVSPropertyOp29
 70
     1
102
RTVSPropertyOp30
 70
     1
102
RTVSPropertyOp31
 70
     1
102
RTVSPropertyOp32
 70
     1
  0
XRECORD
  5
5C
102
{ACAD_REACTORS
330
5B
102
}
330
5B
100
AcDbXrecord
280
     1
102
RTVSPropertyOp0
 70
     1
102
RTVSPropertyOp1
 70
     1
102
RTVSPropertyOp2
 70
     1
102
RTVSPropertyOp3
 70
     1
102
RTVSPropertyOp4
 70
     1
102
RTVSPropertyOp5
 70
     1
102
RTVSPropertyOp6
 70
     1
102
RTVSPropertyOp7
 70
     1
102
RTVSPropertyOp8
 70
     1
102
RTVSPropertyOp9
 70
     1
102
RTVSPropertyOp10
 70
     1
102
RTVSPropertyOp11
 70
     1
102
RTVSPropertyOp12
 70
     1
102
RTVSPropertyOp13
 70
     1
102
RTVSPropertyOp14
 70
     1
102
RTVSPropertyOp15
 70
     1
102
RTVSPropertyOp16
 70
     1
102
RTVSPropertyOp17
 70
     1
102
RTVSPropertyOp18
 70
     1
102
RTVSPropertyOp19
 70
     1
102
RTVSPropertyOp20
 70
     1
102
RTVSPropertyOp21
 70
     1
102
RTVSPropertyOp22
 70
     1
102
RTVSPropertyOp23
 70
     1
102
RTVSPropertyOp24
 70
     1
102
RTVSPropertyOp25
 70
     1
102
RTVSPropertyOp26
 70
     1
102
RTVSPropertyOp27
 70
     1
102
RTVSPropertyOp28
 70
     1
102
RTVSPropertyOp29
 70
     1
102
RTVSPropertyOp30
 70
     1
102
RTVSPropertyOp31
 70
     1
102
RTVSPropertyOp32
 70
     1
  0
XRECORD
  5
5E
102
{ACAD_REACTORS
330
5D
102
}
330
5D
100
AcDbXrecord
280
     1
102
RTVSPropertyOp0
 70
     1
102
RTVSPropertyOp1
 70
     1
102
RTVSPropertyOp2
 70
     1
102
RTVSPropertyOp3
 70
     1
102
RTVSPropertyOp4
 70
     1
102
RTVSPropertyOp5
 70
     1
102
RTVSPropertyOp6
 70
     1
102
RTVSPropertyOp7
 70
     1
102
RTVSPropertyOp8
 70
     1
102
RTVSPropertyOp9
 70
     1
102
RTVSPropertyOp10
 70
     1
102
RTVSPropertyOp11
 70
     1
102
RTVSPropertyOp12
 70
     1
102
RTVSPropertyOp13
 70
     1
102
RTVSPropertyOp14
 70
     1
102
RTVSPropertyOp15
 70
     1
102
RTVSPropertyOp16
 70
     1
102
RTVSPropertyOp17
 70
     1
102
RTVSPropertyOp18
 70
     1
102
RTVSPropertyOp19
 70
     1
102
RTVSPropertyOp20
 70
     1
102
RTVSPropertyOp21
 70
     1
102
RTVSPropertyOp22
 70
     1
102
RTVSPropertyOp23
 70
     1
102
RTVSPropertyOp24
 70
     1
102
RTVSPropertyOp25
 70
     1
102
RTVSPropertyOp26
 70
     1
102
RTVSPropertyOp27
 70
     1
102
RTVSPropertyOp28
 70
     1
102
RTVSPropertyOp29
 70
     1
102
RTVSPropertyOp30
 70
     1
102
RTVSPropertyOp31
 70
     1
102
RTVSPropertyOp32
 70
     1
  0
XRECORD
  5
60
102
{ACAD_REACTORS
330
5F
102
}
330
5F
100
AcDbXrecord
280
     1
102
RTVSPropertyOp0
 70
     1
102
RTVSPropertyOp1
 70
     1
102
RTVSPropertyOp2
 70
     1
102
RTVSPropertyOp3
 70
     1
102
RTVSPropertyOp4
 70
     1
102
RTVSPropertyOp5
 70
     1
102
RTVSPropertyOp6
 70
     1
102
RTVSPropertyOp7
 70
     1
102
RTVSPropertyOp8
 70
     1
102
RTVSPropertyOp9
 70
     1
102
RTVSPropertyOp10
 70
     1
102
RTVSPropertyOp11
 70
     1
102
RTVSPropertyOp12
 70
     1
102
RTVSPropertyOp13
 70
     1
102
RTVSPropertyOp14
 70
     1
102
RTVSPropertyOp15
 70
     1
102
RTVSPropertyOp16
 70
     1
102
RTVSPropertyOp17
 70
     1
102
RTVSPropertyOp18
 70
     1
102
RTVSPropertyOp19
 70
     1
102
RTVSPropertyOp20
 70
     1
102
RTVSPropertyOp21
 70
     1
102
RTVSPropertyOp22
 70
     1
102
RTVSPropertyOp23
 70
     1
102
RTVSPropertyOp24
 70
     1
102
RTVSPropertyOp25
 70
     1
102
RTVSPropertyOp26
 70
     1
102
RTVSPropertyOp27
 70
     1
102
RTVSPropertyOp28
 70
     1
102
RTVSPropertyOp29
 70
     1
102
RTVSPropertyOp30
 70
     1
102
RTVSPropertyOp31
 70
     1
102
RTVSPropertyOp32
 70
     1
  0
XRECORD
  5
74
102
{ACAD_REACTORS
330
73
102
}
330
73
100
AcDbXrecord
280
     1
102
RTVSPropertyOp0
 70
     1
102
RTVSPropertyOp1
 70
     1
102
RTVSPropertyOp2
 70
     1
102
RTVSPropertyOp3
 70
     1
102
RTVSPropertyOp4
 70
     1
102
RTVSPropertyOp5
 70
     1
102
RTVSPropertyOp6
 70
     1
102
RTVSPropertyOp7
 70
     1
102
RTVSPropertyOp8
 70
     1
102
RTVSPropertyOp9
 70
     1
102
RTVSPropertyOp10
 70
     1
102
RTVSPropertyOp11
 70
     1
102
RTVSPropertyOp12
 70
     1
102
RTVSPropertyOp13
 70
     1
102
RTVSPropertyOp14
 70
     1
102
RTVSPropertyOp15
 70
     1
102
RTVSPropertyOp16
 70
     1
102
RTVSPropertyOp17
 70
     1
102
RTVSPropertyOp18
 70
     1
102
RTVSPropertyOp19
 70
     1
102
RTVSPropertyOp20
 70
     1
102
RTVSPropertyOp21
 70
     1
102
RTVSPropertyOp22
 70
     1
102
RTVSPropertyOp23
 70
     1
102
RTVSPropertyOp24
 70
     1
102
RTVSPropertyOp25
 70
     1
102
RTVSPropertyOp26
 70
     1
102
RTVSPropertyOp27
 70
     1
102
RTVSPropertyOp28
 70
     1
102
RTVSPropertyOp29
 70
     1
102
RTVSPropertyOp30
 70
     1
102
RTVSPropertyOp31
 70
     1
102
RTVSPropertyOp32
 70
     1
  0
XRECORD
  5
6A
102
{ACAD_REACTORS
330
69
102
}
330
69
100
AcDbXrecord
280
     1
102
RTVSPropertyOp0
 70
     1
102
RTVSPropertyOp1
 70
     1
102
RTVSPropertyOp2
 70
     1
102
RTVSPropertyOp3
 70
     1
102
RTVSPropertyOp4
 70
     1
102
RTVSPropertyOp5
 70
     1
102
RTVSPropertyOp6
 70
     1
102
RTVSPropertyOp7
 70
     1
102
RTVSPropertyOp8
 70
     1
102
RTVSPropertyOp9
 70
     1
102
RTVSPropertyOp10
 70
     1
102
RTVSPropertyOp11
 70
     1
102
RTVSPropertyOp12
 70
     1
102
RTVSPropertyOp13
 70
     1
102
RTVSPropertyOp14
 70
     1
102
RTVSPropertyOp15
 70
     1
102
RTVSPropertyOp16
 70
     1
102
RTVSPropertyOp17
 70
     1
102
RTVSPropertyOp18
 70
     1
102
RTVSPropertyOp19
 70
     1
102
RTVSPropertyOp20
 70
     1
102
RTVSPropertyOp21
 70
     1
102
RTVSPropertyOp22
 70
     1
102
RTVSPropertyOp23
 70
     1
102
RTVSPropertyOp24
 70
     1
102
RTVSPropertyOp25
 70
     1
102
RTVSPropertyOp26
 70
     1
102
RTVSPropertyOp27
 70
     1
102
RTVSPropertyOp28
 70
     1
102
RTVSPropertyOp29
 70
     1
102
RTVSPropertyOp30
 70
     1
102
RTVSPropertyOp31
 70
     1
102
RTVSPropertyOp32
 70
     1
  0
XRECORD
  5
72
102
{ACAD_REACTORS
330
71
102
}
330
71
100
AcDbXrecord
280
     1
102
RTVSPropertyOp0
 70
     1
102
RTVSPropertyOp1
 70
     1
102
RTVSPropertyOp2
 70
     1
102
RTVSPropertyOp3
 70
     1
102
RTVSPropertyOp4
 70
     1
102
RTVSPropertyOp5
 70
     1
102
RTVSPropertyOp6
 70
     1
102
RTVSPropertyOp7
 70
     1
102
RTVSPropertyOp8
 70
     1
102
RTVSPropertyOp9
 70
     1
102
RTVSPropertyOp10
 70
     1
102
RTVSPropertyOp11
 70
     1
102
RTVSPropertyOp12
 70
     1
102
RTVSPropertyOp13
 70
     1
102
RTVSPropertyOp14
 70
     1
102
RTVSPropertyOp15
 70
     1
102
RTVSPropertyOp16
 70
     1
102
RTVSPropertyOp17
 70
     1
102
RTVSPropertyOp18
 70
     1
102
RTVSPropertyOp19
 70
     1
102
RTVSPropertyOp20
 70
     1
102
RTVSPropertyOp21
 70
     1
102
RTVSPropertyOp22
 70
     1
102
RTVSPropertyOp23
 70
     1
102
RTVSPropertyOp24
 70
     1
102
RTVSPropertyOp25
 70
     1
102
RTVSPropertyOp26
 70
     1
102
RTVSPropertyOp27
 70
     1
102
RTVSPropertyOp28
 70
     1
102
RTVSPropertyOp29
 70
     1
102
RTVSPropertyOp30
 70
     1
102
RTVSPropertyOp31
 70
     1
102
RTVSPropertyOp32
 70
     1
  0
ENDSEC
  0
EOF
