  0
SECTION
  2
HEADER
  9
$ACADVER
  1
AC1021
  9
$ACADMAINTVER
 70
    25
  9
$DWGCODEPAGE
  3
ANSI_1252
  9
$INSBASE
 10
0.0
 20
0.0
 30
0.0
  9
$EXTMIN
 10
-12.27916
 20
-10.72645
 30
0.0
  9
$EXTMAX
 10
-7.71947
 20
-3.24912
 30
0.0
  9
$LIMMIN
 10
0.0
 20
0.0
  9
$LIMMAX
 10
12.0
 20
9.0
  9
$ORTHOMODE
 70
     0
  9
$REGENMODE
 70
     1
  9
$FILLMODE
 70
     1
  9
$QTEXTMODE
 70
     0
  9
$MIRRTEXT
 70
     1
  9
$LTSCALE
 40
1.0
  9
$ATTMODE
 70
     1
  9
$TEXTSIZE
 40
0.2
  9
$TRACEWID
 40
0.05
  9
$TEXTSTYLE
  7
Standard
  9
$CLAYER
  8
0
  9
$CELTYPE
  6
ByLayer
  9
$CECOLOR
 62
   256
  9
$CELTSCALE
 40
1.0
  9
$DISPSILH
 70
     0
  9
$DIMSCALE
 40
1.0
  9
$DIMASZ
 40
0.18
  9
$DIMEXO
 40
0.0625
  9
$DIMDLI
 40
0.38
  9
$DIMRND
 40
0.0
  9
$DIMDLE
 40
0.0
  9
$DIMEXE
 40
0.18
  9
$DIMTP
 40
0.0
  9
$DIMTM
 40
0.0
  9
$DIMTXT
 40
0.18
  9
$DIMCEN
 40
0.09
  9
$DIMTSZ
 40
0.0
  9
$DIMTOL
 70
     0
  9
$DIMLIM
 70
     0
  9
$DIMTIH
 70
     1
  9
$DIMTOH
 70
     1
  9
$DIMSE1
 70
     0
  9
$DIMSE2
 70
     0
  9
$DIMTAD
 70
     0
  9
$DIMZIN
 70
     0
  9
$DIMBLK
  1

  9
$DIMASO
 70
     1
  9
$DIMSHO
 70
     1
  9
$DIMPOST
  1

  9
$DIMAPOST
  1

  9
$DIMALT
 70
     0
  9
$DIMALTD
 70
     2
  9
$DIMALTF
 40
25.4
  9
$DIMLFAC
 40
1.0
  9
$DIMTOFL
 70
     0
  9
$DIMTVP
 40
0.0
  9
$DIMTIX
 70
     0
  9
$DIMSOXD
 70
     0
  9
$DIMSAH
 70
     0
  9
$DIMBLK1
  1

  9
$DIMBLK2
  1

  9
$DIMSTYLE
  2
Standard
  9
$DIMCLRD
 70
     0
  9
$DIMCLRE
 70
     0
  9
$DIMCLRT
 70
     0
  9
$DIMTFAC
 40
1.0
  9
$DIMGAP
 40
0.09
  9
$DIMJUST
 70
     0
  9
$DIMSD1
 70
     0
  9
$DIMSD2
 70
     0
  9
$DIMTOLJ
 70
     1
  9
$DIMTZIN
 70
     0
  9
$DIMALTZ
 70
     0
  9
$DIMALTTZ
 70
     0
  9
$DIMUPT
 70
     0
  9
$DIMDEC
 70
     4
  9
$DIMTDEC
 70
     4
  9
$DIMALTU
 70
     2
  9
$DIMALTTD
 70
     2
  9
$DIMTXSTY
  7
Standard
  9
$DIMAUNIT
 70
     0
  9
$DIMADEC
 70
     0
  9
$DIMALTRND
 40
0.0
  9
$DIMAZIN
 70
     0
  9
$DIMDSEP
 70
    46
  9
$DIMATFIT
 70
     3
  9
$DIMFRAC
 70
     0
  9
$DIMLDRBLK
  1

  9
$DIMLUNIT
 70
     2
  9
$DIMLWD
 70
    -2
  9
$DIMLWE
 70
    -2
  9
$DIMTMOVE
 70
     0
  9
$DIMFXL
 40
1.0
  9
$DIMFXLON
 70
     0
  9
$DIMJOGANG
 40
0.7853981633974483
  9
$DIMTFILL
 70
     0
  9
$DIMTFILLCLR
 70
     0
  9
$DIMARCSYM
 70
     0
  9
$DIMLTYPE
  6

  9
$DIMLTEX1
  6

  9
$DIMLTEX2
  6

  9
$LUNITS
 70
     2
  9
$LUPREC
 70
     4
  9
$SKETCHINC
 40
0.1
  9
$FILLETRAD
 40
0.5
  9
$AUNITS
 70
     0
  9
$AUPREC
 70
     0
  9
$MENU
  1
.
  9
$ELEVATION
 40
0.0
  9
$PELEVATION
 40
0.0
  9
$THICKNESS
 40
0.0
  9
$LIMCHECK
 70
     0
  9
$CHAMFERA
 40
0.5
  9
$CHAMFERB
 40
0.5
  9
$CHAMFERC
 40
1.0
  9
$CHAMFERD
 40
0.0
  9
$SKPOLY
 70
     0
  9
$TDCREATE
 40
2460555.148315035
  9
$TDUCREATE
 40
2460555.106648368
  9
$TDUPDATE
 40
2460555.148315081
  9
$TDUUPDATE
 40
2460555.106648414
  9
$TDINDWG
 40
0.0000000116
  9
$TDUSRTIMER
 40
0.0000000116
  9
$USRTIMER
 70
     1
  9
$ANGBASE
 50
0.0
  9
$ANGDIR
 70
     0
  9
$PDMODE
 70
     0
  9
$PDSIZE
 40
0.0
  9
$PLINEWID
 40
0.0
  9
$SPLFRAME
 70
     0
  9
$SPLINETYPE
 70
     6
  9
$SPLINESEGS
 70
     8
  9
$HANDSEED
  5
7B
  9
$SURFTAB1
 70
     6
  9
$SURFTAB2
 70
     6
  9
$SURFTYPE
 70
     6
  9
$SURFU
 70
     6
  9
$SURFV
 70
     6
  9
$UCSBASE
  2

  9
$UCSNAME
  2

  9
$UCSORG
 10
0.0
 20
0.0
 30
0.0
  9
$UCSXDIR
 10
1.0
 20
0.0
 30
0.0
  9
$UCSYDIR
 10
0.0
 20
1.0
 30
0.0
  9
$UCSORTHOREF
  2

  9
$UCSORTHOVIEW
 70
     0
  9
$UCSORGTOP
 10
0.0
 20
0.0
 30
0.0
  9
$UCSORGBOTTOM
 10
0.0
 20
0.0
 30
0.0
  9
$UCSORGLEFT
 10
0.0
 20
0.0
 30
0.0
  9
$UCSORGRIGHT
 10
0.0
 20
0.0
 30
0.0
  9
$UCSORGFRONT
 10
0.0
 20
0.0
 30
0.0
  9
$UCSORGBACK
 10
0.0
 20
0.0
 30
0.0
  9
$PUCSBASE
  2

  9
$PUCSNAME
  2

  9
$PUCSORG
 10
0.0
 20
0.0
 30
0.0
  9
$PUCSXDIR
 10
1.0
 20
0.0
 30
0.0
  9
$PUCSYDIR
 10
0.0
 20
1.0
 30
0.0
  9
$PUCSORTHOREF
  2

  9
$PUCSORTHOVIEW
 70
     0
  9
$PUCSORGTOP
 10
0.0
 20
0.0
 30
0.0
  9
$PUCSORGBOTTOM
 10
0.0
 20
0.0
 30
0.0
  9
$PUCSORGLEFT
 10
0.0
 20
0.0
 30
0.0
  9
$PUCSORGRIGHT
 10
0.0
 20
0.0
 30
0.0
  9
$PUCSORGFRONT
 10
0.0
 20
0.0
 30
0.0
  9
$PUCSORGBACK
 10
0.0
 20
0.0
 30
0.0
  9
$USERI1
 70
     0
  9
$USERI2
 70
     0
  9
$USERI3
 70
     0
  9
$USERI4
 70
     0
  9
$USERI5
 70
     0
  9
$USERR1
 40
0.0
  9
$USERR2
 40
0.0
  9
$USERR3
 40
0.0
  9
$USERR4
 40
0.0
  9
$USERR5
 40
0.0
  9
$WORLDVIEW
 70
     1
  9
$SHADEDGE
 70
     3
  9
$SHADEDIF
 70
    70
  9
$TILEMODE
 70
     1
  9
$MAXACTVP
 70
    64
  9
$PINSBASE
 10
0.0
 20
0.0
 30
0.0
  9
$PLIMCHECK
 70
     0
  9
$PEXTMIN
 10
1.000000000000000E+20
 20
1.000000000000000E+20
 30
1.000000000000000E+20
  9
$PEXTMAX
 10
-1.000000000000000E+20
 20
-1.000000000000000E+20
 30
-1.000000000000000E+20
  9
$PLIMMIN
 10
0.0
 20
0.0
  9
$PLIMMAX
 10
12.0
 20
9.0
  9
$UNITMODE
 70
     0
  9
$VISRETAIN
 70
     1
  9
$PLINEGEN
 70
     0
  9
$PSLTSCALE
 70
     1
  9
$TREEDEPTH
 70
  3020
  9
$CMLSTYLE
  2
Standard
  9
$CMLJUST
 70
     0
  9
$CMLSCALE
 40
1.0
  9
$PROXYGRAPHICS
 70
     1
  9
$MEASUREMENT
 70
     0
  9
$CELWEIGHT
370
    -1
  9
$ENDCAPS
280
     0
  9
$JOINSTYLE
280
     0
  9
$LWDISPLAY
290
     0
  9
$INSUNITS
 70
     5
  9
$HYPERLINKBASE
  1

  9
$STYLESHEET
  1

  9
$XEDIT
290
     1
  9
$CEPSNTYPE
380
     0
  9
$PSTYLEMODE
290
     1
  9
$FINGERPRINTGUID
  2
{3171F99F-ABD8-4A2A-A40A-DD03B0EC4F4F}
  9
$VERSIONGUID
  2
{FAEB1C32-E019-11D5-929B-00C0DF256EC4}
  9
$EXTNAMES
290
     1
  9
$PSVPSCALE
 40
0.0
  9
$OLESTARTUP
290
     0
  9
$SORTENTS
280
   127
  9
$INDEXCTL
280
     0
  9
$HIDETEXT
280
     1
  9
$XCLIPFRAME
290
     0
  9
$HALOGAP
280
     0
  9
$OBSCOLOR
 70
   257
  9
$OBSLTYPE
280
     0
  9
$INTERSECTIONDISPLAY
280
     0
  9
$INTERSECTIONCOLOR
 70
   257
  9
$DIMASSOC
280
     2
  9
$PROJECTNAME
  1

  9
$CAMERADISPLAY
290
     0
  9
$LENSLENGTH
 40
50.0
  9
$CAMERAHEIGHT
 40
0.0
  9
$STEPSPERSEC
 40
2.0
  9
$STEPSIZE
 40
6.0
  9
$3DDWFPREC
 40
2.0
  9
$PSOLWIDTH
 40
0.25
  9
$PSOLHEIGHT
 40
4.0
  9
$LOFTANG1
 40
1.570796326794897
  9
$LOFTANG2
 40
1.570796326794897
  9
$LOFTMAG1
 40
0.0
  9
$LOFTMAG2
 40
0.0
  9
$LOFTPARAM
 70
     7
  9
$LOFTNORMALS
280
     1
  9
$LATITUDE
 40
37.795
  9
$LONGITUDE
 40
-122.394
  9
$NORTHDIRECTION
 40
0.0
  9
$TIMEZONE
 70
 -8000
  9
$LIGHTGLYPHDISPLAY
280
     1
  9
$TILEMODELIGHTSYNCH
280
     1
  9
$SOLIDHIST
280
     1
  9
$SHOWHIST
280
     1
  9
$DWFFRAME
280
     2
  9
$DGNFRAME
280
     2
  9
$REALWORLDSCALE
290
     1
  9
$INTERFERECOLOR
 62
   256
  9
$CSHADOW
280
     0
  9
$SHADOWPLANELOCATION
 40
0.0
  0
ENDSEC
  0
SECTION
  2
CLASSES
  0
CLASS
  1
ACDBDICTIONARYWDFLT
  2
AcDbDictionaryWithDefault
  3
ObjectDBX Classes
 90
        0
 91
        4
280
     0
281
     0
  0
CLASS
  1
VISUALSTYLE
  2
AcDbVisualStyle
  3
ObjectDBX Classes
 90
     4095
 91
        4
280
     0
281
     0
  0
CLASS
  1
MATERIAL
  2
AcDbMaterial
  3
ObjectDBX Classes
 90
     1153
 91
        4
280
     0
281
     0
  0
ENDSEC
  0
SECTION
  2
TABLES
  0
TABLE
  2
VPORT
  5
8
330
0
100
AcDbSymbolTable
 70
     1
  0
VPORT
  5
29
330
8
100
AcDbSymbolTableRecord
100
AcDbViewportTableRecord
  2
*Active
 70
     0
 10
0.0
 20
0.0
 11
1.0
 21
1.0
 12
10.42990654205607
 22
4.5
 13
0.0
 23
0.0
 14
0.5
 24
0.5
 15
0.5
 25
0.5
 16
0.0
 26
0.0
 36
1.0
 17
0.0
 27
0.0
 37
0.0
 40
9.0
 41
1.972972972850329
 42
50.0
 43
0.0
 44
0.0
 50
0.0
 51
0.0
 71
     0
 72
   100
 73
     1
 74
     3
 75
     0
 76
     0
 77
     0
 78
     0
281
     0
 65
     1
110
0.0
120
0.0
130
0.0
111
1.0
121
0.0
131
0.0
112
0.0
122
1.0
132
0.0
 79
     0
146
0.0
 60
     3
 61
     5
292
     1
282
     1
141
0.0
142
0.0
 63
   250
  0
ENDTAB
  0
TABLE
  2
LTYPE
  5
5
330
0
100
AcDbSymbolTable
 70
     1
  0
LTYPE
  5
14
330
5
100
AcDbSymbolTableRecord
100
AcDbLinetypeTableRecord
  2
ByBlock
 70
     0
  3

 72
    65
 73
     0
 40
0.0
  0
LTYPE
  5
15
330
5
100
AcDbSymbolTableRecord
100
AcDbLinetypeTableRecord
  2
ByLayer
 70
     0
  3

 72
    65
 73
     0
 40
0.0
  0
LTYPE
  5
16
330
5
100
AcDbSymbolTableRecord
100
AcDbLinetypeTableRecord
  2
Continuous
 70
     0
  3
Solid line
 72
    65
 73
     0
 40
0.0
  0
ENDTAB
  0
TABLE
  2
LAYER
  5
2
330
0
100
AcDbSymbolTable
 70
     2
  0
LAYER
  5
10
330
2
100
AcDbSymbolTableRecord
100
AcDbLayerTableRecord
  2
0
 70
     0
 62
     7
  6
Continuous
370
    -3
390
F
347
3E
  0
LAYER
  5
40
330
2
100
AcDbSymbolTableRecord
100
AcDbLayerTableRecord
  2
Layer 1
 70
     0
 62
     7
  6
Continuous
370
    -3
390
F
347
3E
  0
ENDTAB
  0
TABLE
  2
STYLE
  5
3
330
0
100
AcDbSymbolTable
 70
     1
  0
STYLE
  5
11
330
3
100
AcDbSymbolTableRecord
100
AcDbTextStyleTableRecord
  2
Standard
 70
     0
 40
0.0
 41
1.0
 50
0.0
 71
     0
 42
0.2
  3
txt
  4

  0
ENDTAB
  0
TABLE
  2
VIEW
  5
6
330
0
100
AcDbSymbolTable
 70
     0
  0
ENDTAB
  0
TABLE
  2
UCS
  5
7
330
0
100
AcDbSymbolTable
 70
     0
  0
ENDTAB
  0
TABLE
  2
APPID
  5
9
330
0
100
AcDbSymbolTable
 70
     2
  0
APPID
  5
12
330
9
100
AcDbSymbolTableRecord
100
AcDbRegAppTableRecord
  2
ACAD
 70
     0
  0
APPID
  5
3F
330
9
100
AcDbSymbolTableRecord
100
AcDbRegAppTableRecord
  2
ODA
 70
     0
  0
ENDTAB
  0
TABLE
  2
DIMSTYLE
  5
A
330
0
100
AcDbSymbolTable
 70
     1
100
AcDbDimStyleTable
  0
DIMSTYLE
105
27
330
A
100
AcDbSymbolTableRecord
100
AcDbDimStyleTableRecord
  2
Standard
 70
     0
178
     0
340
11
  0
ENDTAB
  0
TABLE
  2
BLOCK_RECORD
  5
1
330
0
100
AcDbSymbolTable
 70
     1
  0
BLOCK_RECORD
  5
1F
330
1
100
AcDbSymbolTableRecord
100
AcDbBlockTableRecord
  2
*Model_Space
340
22
 70
     0
280
     1
281
     0
  0
BLOCK_RECORD
  5
1B
330
1
100
AcDbSymbolTableRecord
100
AcDbBlockTableRecord
  2
*Paper_Space
340
1E
 70
     0
280
     1
281
     0
  0
BLOCK_RECORD
  5
23
330
1
100
AcDbSymbolTableRecord
100
AcDbBlockTableRecord
  2
*Paper_Space0
340
26
 70
     0
280
     1
281
     0
  0
ENDTAB
  0
ENDSEC
  0
SECTION
  2
BLOCKS
  0
BLOCK
  5
20
330
1F
100
AcDbEntity
  8
0
100
AcDbBlockBegin
  2
*Model_Space
 70
     0
 10
0.0
 20
0.0
 30
0.0
  3
*Model_Space
  1

  0
ENDBLK
  5
21
330
1F
100
AcDbEntity
  8
0
100
AcDbBlockEnd
  0
BLOCK
  5
1C
330
1B
100
AcDbEntity
 67
     1
  8
0
100
AcDbBlockBegin
  2
*Paper_Space
 70
     0
 10
0.0
 20
0.0
 30
0.0
  3
*Paper_Space
  1

  0
ENDBLK
  5
1D
330
1B
100
AcDbEntity
 67
     1
  8
0
100
AcDbBlockEnd
  0
BLOCK
  5
24
330
23
100
AcDbEntity
  8
0
100
AcDbBlockBegin
  2
*Paper_Space0
 70
     0
 10
0.0
 20
0.0
 30
0.0
  3
*Paper_Space0
  1

  0
ENDBLK
  5
25
330
23
100
AcDbEntity
  8
0
100
AcDbBlockEnd
  0
ENDSEC
  0
SECTION
  2
ENTITIES
  0
SPLINE
  5
41
330
1F
100
AcDbEntity
  8
Layer 1
370
    53
100
AcDbSpline
210
0.0
220
0.0
230
1.0
 70
    11
 71
     3
 72
    20
 73
    16
 74
     0
 42
0.0000000001
 43
0.0000000001
 12
1.0
 22
0.0
 32
0.0
 13
1.0
 23
0.0
 33
0.0
 40
0.0
 40
0.0
 40
0.0
 40
0.0
 40
0.2
 40
0.2
 40
0.2
 40
0.2
 40
0.4
 40
0.4
 40
0.4
 40
0.4
 40
0.6
 40
0.6
 40
0.6
 40
0.6
 40
1.0
 40
1.0
 40
1.0
 40
1.0
 10
-10.32503
 20
-9.99999
 30
0.0
 10
-10.32503
 20
-9.8205
 30
0.0
 10
-10.17952
 20
-9.67499
 30
0.0
 10
-10.00003
 20
-9.67499
 30
0.0
 10
-10.00003
 20
-9.67499
 30
0.0
 10
-9.82054
 20
-9.67499
 30
0.0
 10
-9.67503
 20
-9.8205
 30
0.0
 10
-9.67503
 20
-9.99999
 30
0.0
 10
-9.67503
 20
-9.99999
 30
0.0
 10
-9.67503
 20
-10.17948
 30
0.0
 10
-9.82054
 20
-10.32499
 30
0.0
 10
-10.00003
 20
-10.32499
 30
0.0
 10
-10.00003
 20
-10.32499
 30
0.0
 10
-10.17952
 20
-10.32499
 30
0.0
 10
-10.32503
 20
-10.17948
 30
0.0
 10
-10.32503
 20
-9.99999
 30
0.0
  0
SPLINE
  5
42
330
1F
100
AcDbEntity
  8
Layer 1
370
    53
100
AcDbSpline
210
0.0
220
0.0
230
1.0
 70
    11
 71
     3
 72
    20
 73
    16
 74
     0
 42
0.0000000001
 43
0.0000000001
 12
1.0
 22
0.0
 32
0.0
 13
1.0
 23
0.0
 33
0.0
 40
0.0
 40
0.0
 40
0.0
 40
0.0
 40
0.2
 40
0.2
 40
0.2
 40
0.2
 40
0.4
 40
0.4
 40
0.4
 40
0.4
 40
0.6
 40
0.6
 40
0.6
 40
0.6
 40
1.0
 40
1.0
 40
1.0
 40
1.0
 10
-8.82503
 20
-9.99999
 30
0.0
 10
-8.82503
 20
-9.8205
 30
0.0
 10
-8.67952
 20
-9.67499
 30
0.0
 10
-8.50003
 20
-9.67499
 30
0.0
 10
-8.50003
 20
-9.67499
 30
0.0
 10
-8.32054
 20
-9.67499
 30
0.0
 10
-8.17503
 20
-9.8205
 30
0.0
 10
-8.17503
 20
-9.99999
 30
0.0
 10
-8.17503
 20
-9.99999
 30
0.0
 10
-8.17503
 20
-10.17948
 30
0.0
 10
-8.32054
 20
-10.32499
 30
0.0
 10
-8.50003
 20
-10.32499
 30
0.0
 10
-8.50003
 20
-10.32499
 30
0.0
 10
-8.67952
 20
-10.32499
 30
0.0
 10
-8.82503
 20
-10.17948
 30
0.0
 10
-8.82503
 20
-9.99999
 30
0.0
  0
SPLINE
  5
43
330
1F
100
AcDbEntity
  8
Layer 1
370
    53
100
AcDbSpline
210
0.0
220
0.0
230
1.0
 70
    11
 71
     3
 72
    20
 73
    16
 74
     0
 42
0.0000000001
 43
0.0000000001
 12
1.0
 22
0.0
 32
0.0
 13
1.0
 23
0.0
 33
0.0
 40
0.0
 40
0.0
 40
0.0
 40
0.0
 40
0.2
 40
0.2
 40
0.2
 40
0.2
 40
0.4
 40
0.4
 40
0.4
 40
0.4
 40
0.6
 40
0.6
 40
0.6
 40
0.6
 40
1.0
 40
1.0
 40
1.0
 40
1.0
 10
-11.82503
 20
-9.99999
 30
0.0
 10
-11.82503
 20
-9.8205
 30
0.0
 10
-11.67952
 20
-9.67499
 30
0.0
 10
-11.50003
 20
-9.67499
 30
0.0
 10
-11.50003
 20
-9.67499
 30
0.0
 10
-11.32054
 20
-9.67499
 30
0.0
 10
-11.17503
 20
-9.8205
 30
0.0
 10
-11.17503
 20
-9.99999
 30
0.0
 10
-11.17503
 20
-9.99999
 30
0.0
 10
-11.17503
 20
-10.17948
 30
0.0
 10
-11.32054
 20
-10.32499
 30
0.0
 10
-11.50003
 20
-10.32499
 30
0.0
 10
-11.50003
 20
-10.32499
 30
0.0
 10
-11.67952
 20
-10.32499
 30
0.0
 10
-11.82503
 20
-10.17948
 30
0.0
 10
-11.82503
 20
-9.99999
 30
0.0
  0
SPLINE
  5
44
330
1F
100
AcDbEntity
  8
Layer 1
 62
     5
370
    53
100
AcDbSpline
210
0.0
220
0.0
230
1.0
 70
    11
 71
     3
 72
   148
 73
   144
 74
     0
 42
0.0000000001
 43
0.0000000001
 12
1.0
 22
0.0
 32
0.0
 13
1.0
 23
0.0
 33
0.0
 40
0.0
 40
0.0
 40
0.0
 40
0.0
 40
0.027027027027027
 40
0.027027027027027
 40
0.027027027027027
 40
0.027027027027027
 40
0.0540540540540541
 40
0.0540540540540541
 40
0.0540540540540541
 40
0.0540540540540541
 40
0.0810810810810811
 40
0.0810810810810811
 40
0.0810810810810811
 40
0.0810810810810811
 40
0.1081081081081081
 40
0.1081081081081081
 40
0.1081081081081081
 40
0.1081081081081081
 40
0.1351351351351351
 40
0.1351351351351351
 40
0.1351351351351351
 40
0.1351351351351351
 40
0.1621621621621622
 40
0.1621621621621622
 40
0.1621621621621622
 40
0.1621621621621622
 40
0.1891891891891892
 40
0.1891891891891892
 40
0.1891891891891892
 40
0.1891891891891892
 40
0.2162162162162162
 40
0.2162162162162162
 40
0.2162162162162162
 40
0.2162162162162162
 40
0.2432432432432433
 40
0.2432432432432433
 40
0.2432432432432433
 40
0.2432432432432433
 40
0.2702702702702703
 40
0.2702702702702703
 40
0.2702702702702703
 40
0.2702702702702703
 40
0.2972972972972973
 40
0.2972972972972973
 40
0.2972972972972973
 40
0.2972972972972973
 40
0.3243243243243243
 40
0.3243243243243243
 40
0.3243243243243243
 40
0.3243243243243243
 40
0.3513513513513514
 40
0.3513513513513514
 40
0.3513513513513514
 40
0.3513513513513514
 40
0.3783783783783784
 40
0.3783783783783784
 40
0.3783783783783784
 40
0.3783783783783784
 40
0.4054054054054054
 40
0.4054054054054054
 40
0.4054054054054054
 40
0.4054054054054054
 40
0.4324324324324325
 40
0.4324324324324325
 40
0.4324324324324325
 40
0.4324324324324325
 40
0.4594594594594595
 40
0.4594594594594595
 40
0.4594594594594595
 40
0.4594594594594595
 40
0.4864864864864865
 40
0.4864864864864865
 40
0.4864864864864865
 40
0.4864864864864865
 40
0.5135135135135135
 40
0.5135135135135135
 40
0.5135135135135135
 40
0.5135135135135135
 40
0.5405405405405406
 40
0.5405405405405406
 40
0.5405405405405406
 40
0.5405405405405406
 40
0.5675675675675675
 40
0.5675675675675675
 40
0.5675675675675675
 40
0.5675675675675675
 40
0.5945945945945946
 40
0.5945945945945946
 40
0.5945945945945946
 40
0.5945945945945946
 40
0.6216216216216216
 40
0.6216216216216216
 40
0.6216216216216216
 40
0.6216216216216216
 40
0.6486486486486487
 40
0.6486486486486487
 40
0.6486486486486487
 40
0.6486486486486487
 40
0.6756756756756757
 40
0.6756756756756757
 40
0.6756756756756757
 40
0.6756756756756757
 40
0.7027027027027027
 40
0.7027027027027027
 40
0.7027027027027027
 40
0.7027027027027027
 40
0.7297297297297297
 40
0.7297297297297297
 40
0.7297297297297297
 40
0.7297297297297297
 40
0.7567567567567568
 40
0.7567567567567568
 40
0.7567567567567568
 40
0.7567567567567568
 40
0.7837837837837838
 40
0.7837837837837838
 40
0.7837837837837838
 40
0.7837837837837838
 40
0.8108108108108109
 40
0.8108108108108109
 40
0.8108108108108109
 40
0.8108108108108109
 40
0.8378378378378378
 40
0.8378378378378378
 40
0.8378378378378378
 40
0.8378378378378378
 40
0.8648648648648649
 40
0.8648648648648649
 40
0.8648648648648649
 40
0.8648648648648649
 40
0.8918918918918919
 40
0.8918918918918919
 40
0.8918918918918919
 40
0.8918918918918919
 40
0.918918918918919
 40
0.918918918918919
 40
0.918918918918919
 40
0.918918918918919
 40
0.9459459459459459
 40
0.9459459459459459
 40
0.9459459459459459
 40
0.9459459459459459
 40
1.0
 40
1.0
 40
1.0
 40
1.0
 10
-9.06687
 20
-8.04962
 30
0.0
 10
-9.13458
 20
-8.09567
 30
0.0
 10
-9.11661
 20
-8.2568
 30
0.0
 10
-9.11634
 20
-8.32638
 30
0.0
 10
-9.11634
 20
-8.32638
 30
0.0
 10
-9.11661
 20
-8.23562
 30
0.0
 10
-9.19412
 20
-8.111
 30
0.0
 10
-9.26582
 20
-8.1925
 30
0.0
 10
-9.26582
 20
-8.1925
 30
0.0
 10
-9.32323
 20
-8.25812
 30
0.0
 10
-9.31055
 20
-8.41396
 30
0.0
 10
-9.296
 20
-8.49333
 30
0.0
 10
-9.296
 20
-8.49333
 30
0.0
 10
-9.29838
 20
-8.48672
 30
0.0
 10
-9.30049
 20
-8.4801
 30
0.0
 10
-9.30261
 20
-8.47323
 30
0.0
 10
-9.30261
 20
-8.47323
 30
0.0
 10
-9.32323
 20
-8.40628
 30
0.0
 10
-9.33778
 20
-8.32638
 30
0.0
 10
-9.38886
 20
-8.27505
 30
0.0
 10
-9.38886
 20
-8.27505
 30
0.0
 10
-9.45684
 20
-8.20679
 30
0.0
 10
-9.55554
 20
-8.2724
 30
0.0
 10
-9.59999
 20
-8.33696
 30
0.0
 10
-9.59999
 20
-8.33696
 30
0.0
 10
-9.61931
 20
-8.36448
 30
0.0
 10
-9.62699
 20
-8.39411
 30
0.0
 10
-9.63441
 20
-8.42612
 30
0.0
 10
-9.63441
 20
-8.42612
 30
0.0
 10
-9.64205
 20
-8.45894
 30
0.0
 10
-9.64683
 20
-8.49783
 30
0.0
 10
-9.64551
 20
-8.5354
 30
0.0
 10
-9.64551
 20
-8.5354
 30
0.0
 10
-9.65396
 20
-8.49439
 30
0.0
 10
-9.66402
 20
-8.45602
 30
0.0
 10
-9.68043
 20
-8.42031
 30
0.0
 10
-9.68043
 20
-8.42031
 30
0.0
 10
-9.71217
 20
-8.35125
 30
0.0
 10
-9.78652
 20
-8.32955
 30
0.0
 10
-9.85716
 20
-8.33273
 30
0.0
 10
-9.85716
 20
-8.33273
 30
0.0
 10
-9.89924
 20
-8.33459
 30
0.0
 10
-9.93892
 20
-8.35205
 30
0.0
 10
-9.96935
 20
-8.38063
 30
0.0
 10
-9.96935
 20
-8.38063
 30
0.0
 10
-9.99871
 20
-8.4084
 30
0.0
 10
-10.01856
 20
-8.44332
 30
0.0
 10
-10.02967
 20
-8.48195
 30
0.0
 10
-10.02967
 20
-8.48195
 30
0.0
 10
-10.03363
 20
-8.49624
 30
0.0
 10
-10.03575
 20
-8.51
 30
0.0
 10
-10.03656
 20
-8.52376
 30
0.0
 10
-10.03656
 20
-8.52376
 30
0.0
 10
-10.03761
 20
-8.50868
 30
0.0
 10
-10.03946
 20
-8.49439
 30
0.0
 10
-10.04317
 20
-8.48195
 30
0.0
 10
-10.04317
 20
-8.48195
 30
0.0
 10
-10.05401
 20
-8.44332
 30
0.0
 10
-10.07412
 20
-8.4084
 30
0.0
 10
-10.10323
 20
-8.38063
 30
0.0
 10
-10.10323
 20
-8.38063
 30
0.0
 10
-10.13365
 20
-8.35205
 30
0.0
 10
-10.1736
 20
-8.33459
 30
0.0
 10
-10.21541
 20
-8.33273
 30
0.0
 10
-10.21541
 20
-8.33273
 30
0.0
 10
-10.28605
 20
-8.32955
 30
0.0
 10
-10.36067
 20
-8.35125
 30
0.0
 10
-10.39241
 20
-8.42031
 30
0.0
 10
-10.39241
 20
-8.42031
 30
0.0
 10
-10.40882
 20
-8.45602
 30
0.0
 10
-10.41887
 20
-8.49439
 30
0.0
 10
-10.42734
 20
-8.5354
 30
0.0
 10
-10.42734
 20
-8.5354
 30
0.0
 10
-10.42602
 20
-8.49757
 30
0.0
 10
-10.43078
 20
-8.45894
 30
0.0
 10
-10.43845
 20
-8.42612
 30
0.0
 10
-10.43845
 20
-8.42612
 30
0.0
 10
-10.44586
 20
-8.39411
 30
0.0
 10
-10.45353
 20
-8.36448
 30
0.0
 10
-10.47258
 20
-8.33696
 30
0.0
 10
-10.47258
 20
-8.33696
 30
0.0
 10
-10.5173
 20
-8.2724
 30
0.0
 10
-10.61571
 20
-8.20679
 30
0.0
 10
-10.68372
 20
-8.27505
 30
0.0
 10
-10.68372
 20
-8.27505
 30
0.0
 10
-10.73505
 20
-8.32638
 30
0.0
 10
-10.7496
 20
-8.40628
 30
0.0
 10
-10.76997
 20
-8.47323
 30
0.0
 10
-10.76997
 20
-8.47323
 30
0.0
 10
-10.77209
 20
-8.4801
 30
0.0
 10
-10.77421
 20
-8.48672
 30
0.0
 10
-10.77659
 20
-8.49333
 30
0.0
 10
-10.77659
 20
-8.49333
 30
0.0
 10
-10.76204
 20
-8.41396
 30
0.0
 10
-10.74934
 20
-8.25812
 30
0.0
 10
-10.80701
 20
-8.1925
 30
0.0
 10
-10.80701
 20
-8.1925
 30
0.0
 10
-10.87661
 20
-8.11365
 30
0.0
 10
-10.95121
 20
-8.22796
 30
0.0
 10
-10.95624
 20
-8.31764
 30
0.0
 10
-10.95624
 20
-8.31764
 30
0.0
 10
-10.95465
 20
-8.24383
 30
0.0
 10
-10.94089
 20
-8.09381
 30
0.0
 10
-11.00598
 20
-8.04962
 30
0.0
 10
-11.00598
 20
-8.04962
 30
0.0
 10
-11.09171
 20
-7.99142
 30
0.0
 10
-11.1343
 20
-8.0856
 30
0.0
 10
-11.12187
 20
-8.15942
 30
0.0
 10
-11.12187
 20
-8.15942
 30
0.0
 10
-11.07583
 20
-8.21975
 30
0.0
 10
-11.00731
 20
-8.27954
 30
0.0
 10
-10.96444
 20
-8.324
 30
0.0
 10
-10.96444
 20
-8.324
 30
0.0
 10
-10.88481
 20
-8.40628
 30
0.0
 10
-10.81046
 20
-8.50154
 30
0.0
 10
-10.70541
 20
-8.54996
 30
0.0
 10
-10.70541
 20
-8.54996
 30
0.0
 10
-10.60541
 20
-8.59626
 30
0.0
 10
-10.4829
 20
-8.62192
 30
0.0
 10
-10.3731
 20
-8.63224
 30
0.0
 10
-10.3731
 20
-8.63224
 30
0.0
 10
-10.3731
 20
-8.63224
 30
0.0
 10
-10.1662
 20
-8.64679
 30
0.0
 10
-10.0122
 20
-8.66108
 30
0.0
 10
-10.0122
 20
-8.66108
 30
0.0
 10
-9.85822
 20
-8.64679
 30
0.0
 10
-9.70424
 20
-8.63224
 30
0.0
 10
-9.70424
 20
-8.63224
 30
0.0
 10
-9.70424
 20
-8.63224
 30
0.0
 10
-9.59443
 20
-8.62192
 30
0.0
 10
-9.47193
 20
-8.59626
 30
0.0
 10
-9.37165
 20
-8.54996
 30
0.0
 10
-9.37165
 20
-8.54996
 30
0.0
 10
-9.26688
 20
-8.50154
 30
0.0
 10
-9.19254
 20
-8.40628
 30
0.0
 10
-9.11289
 20
-8.324
 30
0.0
 10
-9.11289
 20
-8.324
 30
0.0
 10
-9.06792
 20
-8.2777
 30
0.0
 10
-8.99568
 20
-8.21473
 30
0.0
 10
-8.94964
 20
-8.15202
 30
0.0
 10
-8.94964
 20
-8.15202
 30
0.0
 10
-8.94144
 20
-8.07926
 30
0.0
 10
-8.98377
 20
-7.99328
 30
0.0
 10
-9.06687
 20
-8.04962
 30
0.0
  0
SPLINE
  5
45
330
1F
100
AcDbEntity
  8
Layer 1
 62
     5
370
    53
100
AcDbSpline
210
0.0
220
0.0
230
1.0
 70
     8
 71
     3
 72
   132
 73
   128
 74
     0
 42
0.0000000001
 43
0.0000000001
 12
1.0
 22
0.0
 32
0.0
 13
1.0
 23
0.0
 33
0.0
 40
0.0
 40
0.0
 40
0.0
 40
0.0
 40
0.0303030303030303
 40
0.0303030303030303
 40
0.0303030303030303
 40
0.0303030303030303
 40
0.0606060606060606
 40
0.0606060606060606
 40
0.0606060606060606
 40
0.0606060606060606
 40
0.0909090909090909
 40
0.0909090909090909
 40
0.0909090909090909
 40
0.0909090909090909
 40
0.1212121212121212
 40
0.1212121212121212
 40
0.1212121212121212
 40
0.1212121212121212
 40
0.1515151515151515
 40
0.1515151515151515
 40
0.1515151515151515
 40
0.1515151515151515
 40
0.1818181818181818
 40
0.1818181818181818
 40
0.1818181818181818
 40
0.1818181818181818
 40
0.2121212121212121
 40
0.2121212121212121
 40
0.2121212121212121
 40
0.2121212121212121
 40
0.2424242424242424
 40
0.2424242424242424
 40
0.2424242424242424
 40
0.2424242424242424
 40
0.2727272727272727
 40
0.2727272727272727
 40
0.2727272727272727
 40
0.2727272727272727
 40
0.303030303030303
 40
0.303030303030303
 40
0.303030303030303
 40
0.303030303030303
 40
0.3333333333333333
 40
0.3333333333333333
 40
0.3333333333333333
 40
0.3333333333333333
 40
0.3636363636363636
 40
0.3636363636363636
 40
0.3636363636363636
 40
0.3636363636363636
 40
0.3939393939393939
 40
0.3939393939393939
 40
0.3939393939393939
 40
0.3939393939393939
 40
0.4242424242424243
 40
0.4242424242424243
 40
0.4242424242424243
 40
0.4242424242424243
 40
0.4545454545454545
 40
0.4545454545454545
 40
0.4545454545454545
 40
0.4545454545454545
 40
0.4848484848484849
 40
0.4848484848484849
 40
0.4848484848484849
 40
0.4848484848484849
 40
0.5151515151515151
 40
0.5151515151515151
 40
0.5151515151515151
 40
0.5151515151515151
 40
0.5454545454545454
 40
0.5454545454545454
 40
0.5454545454545454
 40
0.5454545454545454
 40
0.5757575757575758
 40
0.5757575757575758
 40
0.5757575757575758
 40
0.5757575757575758
 40
0.6060606060606061
 40
0.6060606060606061
 40
0.6060606060606061
 40
0.6060606060606061
 40
0.6363636363636364
 40
0.6363636363636364
 40
0.6363636363636364
 40
0.6363636363636364
 40
0.6666666666666666
 40
0.6666666666666666
 40
0.6666666666666666
 40
0.6666666666666666
 40
0.696969696969697
 40
0.696969696969697
 40
0.696969696969697
 40
0.696969696969697
 40
0.7272727272727273
 40
0.7272727272727273
 40
0.7272727272727273
 40
0.7272727272727273
 40
0.7575757575757576
 40
0.7575757575757576
 40
0.7575757575757576
 40
0.7575757575757576
 40
0.7878787878787878
 40
0.7878787878787878
 40
0.7878787878787878
 40
0.7878787878787878
 40
0.8181818181818182
 40
0.8181818181818182
 40
0.8181818181818182
 40
0.8181818181818182
 40
0.8484848484848485
 40
0.8484848484848485
 40
0.8484848484848485
 40
0.8484848484848485
 40
0.8787878787878788
 40
0.8787878787878788
 40
0.8787878787878788
 40
0.8787878787878788
 40
0.9090909090909091
 40
0.9090909090909091
 40
0.9090909090909091
 40
0.9090909090909091
 40
0.9393939393939394
 40
0.9393939393939394
 40
0.9393939393939394
 40
0.9393939393939394
 40
1.0
 40
1.0
 40
1.0
 40
1.0
 10
-8.91342
 20
-8.08826
 30
0.0
 10
-8.9208
 20
-8.1089
 30
0.0
 10
-8.93377
 20
-8.13059
 30
0.0
 10
-8.94966
 20
-8.15202
 30
0.0
 10
-8.94966
 20
-8.15202
 30
0.0
 10
-8.94144
 20
-8.07926
 30
0.0
 10
-8.98377
 20
-7.99328
 30
0.0
 10
-9.06687
 20
-8.04962
 30
0.0
 10
-9.06687
 20
-8.04962
 30
0.0
 10
-9.13458
 20
-8.09567
 30
0.0
 10
-9.11661
 20
-8.2568
 30
0.0
 10
-9.11634
 20
-8.32638
 30
0.0
 10
-9.11634
 20
-8.32638
 30
0.0
 10
-9.11661
 20
-8.23562
 30
0.0
 10
-9.19412
 20
-8.111
 30
0.0
 10
-9.26582
 20
-8.1925
 30
0.0
 10
-9.26582
 20
-8.1925
 30
0.0
 10
-9.32323
 20
-8.25812
 30
0.0
 10
-9.31055
 20
-8.41396
 30
0.0
 10
-9.296
 20
-8.49333
 30
0.0
 10
-9.296
 20
-8.49333
 30
0.0
 10
-9.29838
 20
-8.48672
 30
0.0
 10
-9.30049
 20
-8.4801
 30
0.0
 10
-9.30261
 20
-8.47323
 30
0.0
 10
-9.30261
 20
-8.47323
 30
0.0
 10
-9.32323
 20
-8.40628
 30
0.0
 10
-9.3378
 20
-8.32638
 30
0.0
 10
-9.38886
 20
-8.27505
 30
0.0
 10
-9.38886
 20
-8.27505
 30
0.0
 10
-9.45687
 20
-8.20679
 30
0.0
 10
-9.55554
 20
-8.2724
 30
0.0
 10
-9.59999
 20
-8.33696
 30
0.0
 10
-9.59999
 20
-8.33696
 30
0.0
 10
-9.61931
 20
-8.36448
 30
0.0
 10
-9.62699
 20
-8.39411
 30
0.0
 10
-9.63441
 20
-8.42612
 30
0.0
 10
-9.63441
 20
-8.42612
 30
0.0
 10
-9.64208
 20
-8.45894
 30
0.0
 10
-9.64683
 20
-8.49783
 30
0.0
 10
-9.64551
 20
-8.5354
 30
0.0
 10
-9.64551
 20
-8.5354
 30
0.0
 10
-9.65396
 20
-8.49439
 30
0.0
 10
-9.66402
 20
-8.45602
 30
0.0
 10
-9.68043
 20
-8.42031
 30
0.0
 10
-9.68043
 20
-8.42031
 30
0.0
 10
-9.71217
 20
-8.35125
 30
0.0
 10
-9.78652
 20
-8.32955
 30
0.0
 10
-9.85716
 20
-8.33273
 30
0.0
 10
-9.85716
 20
-8.33273
 30
0.0
 10
-9.89924
 20
-8.33459
 30
0.0
 10
-9.93892
 20
-8.35205
 30
0.0
 10
-9.96935
 20
-8.38063
 30
0.0
 10
-9.96935
 20
-8.38063
 30
0.0
 10
-9.99871
 20
-8.4084
 30
0.0
 10
-10.01856
 20
-8.44332
 30
0.0
 10
-10.02967
 20
-8.48195
 30
0.0
 10
-10.02967
 20
-8.48195
 30
0.0
 10
-10.03365
 20
-8.49624
 30
0.0
 10
-10.03575
 20
-8.51
 30
0.0
 10
-10.03656
 20
-8.52376
 30
0.0
 10
-10.03656
 20
-8.52376
 30
0.0
 10
-10.03761
 20
-8.50868
 30
0.0
 10
-10.03946
 20
-8.49439
 30
0.0
 10
-10.04317
 20
-8.48195
 30
0.0
 10
-10.04317
 20
-8.48195
 30
0.0
 10
-10.05402
 20
-8.44332
 30
0.0
 10
-10.07412
 20
-8.4084
 30
0.0
 10
-10.10323
 20
-8.38063
 30
0.0
 10
-10.10323
 20
-8.38063
 30
0.0
 10
-10.13365
 20
-8.35205
 30
0.0
 10
-10.17361
 20
-8.33459
 30
0.0
 10
-10.21541
 20
-8.33273
 30
0.0
 10
-10.21541
 20
-8.33273
 30
0.0
 10
-10.28606
 20
-8.32955
 30
0.0
 10
-10.36067
 20
-8.35125
 30
0.0
 10
-10.39241
 20
-8.42031
 30
0.0
 10
-10.39241
 20
-8.42031
 30
0.0
 10
-10.40882
 20
-8.45602
 30
0.0
 10
-10.41887
 20
-8.49439
 30
0.0
 10
-10.42734
 20
-8.5354
 30
0.0
 10
-10.42734
 20
-8.5354
 30
0.0
 10
-10.42602
 20
-8.49757
 30
0.0
 10
-10.43078
 20
-8.45894
 30
0.0
 10
-10.43845
 20
-8.42612
 30
0.0
 10
-10.43845
 20
-8.42612
 30
0.0
 10
-10.44586
 20
-8.39411
 30
0.0
 10
-10.45353
 20
-8.36448
 30
0.0
 10
-10.47258
 20
-8.33696
 30
0.0
 10
-10.47258
 20
-8.33696
 30
0.0
 10
-10.5173
 20
-8.2724
 30
0.0
 10
-10.61573
 20
-8.20679
 30
0.0
 10
-10.68372
 20
-8.27505
 30
0.0
 10
-10.68372
 20
-8.27505
 30
0.0
 10
-10.73505
 20
-8.32638
 30
0.0
 10
-10.7496
 20
-8.40628
 30
0.0
 10
-10.76997
 20
-8.47323
 30
0.0
 10
-10.76997
 20
-8.47323
 30
0.0
 10
-10.77209
 20
-8.4801
 30
0.0
 10
-10.77421
 20
-8.48672
 30
0.0
 10
-10.77659
 20
-8.49333
 30
0.0
 10
-10.77659
 20
-8.49333
 30
0.0
 10
-10.76204
 20
-8.41396
 30
0.0
 10
-10.74934
 20
-8.25812
 30
0.0
 10
-10.80702
 20
-8.1925
 30
0.0
 10
-10.80702
 20
-8.1925
 30
0.0
 10
-10.87661
 20
-8.11365
 30
0.0
 10
-10.95121
 20
-8.22796
 30
0.0
 10
-10.95624
 20
-8.31764
 30
0.0
 10
-10.95624
 20
-8.31764
 30
0.0
 10
-10.95465
 20
-8.24383
 30
0.0
 10
-10.94091
 20
-8.09381
 30
0.0
 10
-11.00599
 20
-8.04962
 30
0.0
 10
-11.00599
 20
-8.04962
 30
0.0
 10
-11.09171
 20
-7.99142
 30
0.0
 10
-11.1343
 20
-8.0856
 30
0.0
 10
-11.12187
 20
-8.15942
 30
0.0
 10
-11.12187
 20
-8.15942
 30
0.0
 10
-11.14066
 20
-8.13536
 30
0.0
 10
-11.15548
 20
-8.11127
 30
0.0
 10
-11.16369
 20
-8.08826
 30
0.0
 10
-11.16369
 20
-8.08826
 30
0.0
 10
-11.19516
 20
-8.00042
 30
0.0
 10
-11.17215
 20
-7.90093
 30
0.0
 10
-11.17929
 20
-7.81019
 30
0.0
 10
-11.17929
 20
-7.81019
 30
0.0
 10
-11.1912
 20
-7.65408
 30
0.0
 10
-11.21024
 20
-7.4686
 30
0.0
 10
-11.21236
 20
-7.3125
 30
0.0
  0
SPLINE
  5
46
330
1F
100
AcDbEntity
  8
Layer 1
 62
     5
370
    53
100
AcDbSpline
210
0.0
220
0.0
230
1.0
 70
     8
 71
     3
 72
    68
 73
    64
 74
     0
 42
0.0000000001
 43
0.0000000001
 12
1.0
 22
0.0
 32
0.0
 13
1.0
 23
0.0
 33
0.0
 40
0.0
 40
0.0
 40
0.0
 40
0.0
 40
0.0588235294117647
 40
0.0588235294117647
 40
0.0588235294117647
 40
0.0588235294117647
 40
0.1176470588235294
 40
0.1176470588235294
 40
0.1176470588235294
 40
0.1176470588235294
 40
0.1764705882352941
 40
0.1764705882352941
 40
0.1764705882352941
 40
0.1764705882352941
 40
0.2352941176470588
 40
0.2352941176470588
 40
0.2352941176470588
 40
0.2352941176470588
 40
0.2941176470588235
 40
0.2941176470588235
 40
0.2941176470588235
 40
0.2941176470588235
 40
0.3529411764705883
 40
0.3529411764705883
 40
0.3529411764705883
 40
0.3529411764705883
 40
0.4117647058823529
 40
0.4117647058823529
 40
0.4117647058823529
 40
0.4117647058823529
 40
0.4705882352941176
 40
0.4705882352941176
 40
0.4705882352941176
 40
0.4705882352941176
 40
0.5294117647058824
 40
0.5294117647058824
 40
0.5294117647058824
 40
0.5294117647058824
 40
0.5882352941176471
 40
0.5882352941176471
 40
0.5882352941176471
 40
0.5882352941176471
 40
0.6470588235294118
 40
0.6470588235294118
 40
0.6470588235294118
 40
0.6470588235294118
 40
0.7058823529411765
 40
0.7058823529411765
 40
0.7058823529411765
 40
0.7058823529411765
 40
0.7647058823529411
 40
0.7647058823529411
 40
0.7647058823529411
 40
0.7647058823529411
 40
0.8235294117647058
 40
0.8235294117647058
 40
0.8235294117647058
 40
0.8235294117647058
 40
0.8823529411764706
 40
0.8823529411764706
 40
0.8823529411764706
 40
0.8823529411764706
 40
1.0
 40
1.0
 40
1.0
 40
1.0
 10
-11.11393
 20
-7.48104
 30
0.0
 10
-11.12904
 20
-7.57004
 30
0.0
 10
-11.14869
 20
-7.79957
 30
0.0
 10
-11.00345
 20
-7.7986
 30
0.0
 10
-11.00345
 20
-7.7986
 30
0.0
 10
-10.90184
 20
-7.79789
 30
0.0
 10
-10.90251
 20
-7.6931
 30
0.0
 10
-10.89348
 20
-7.61741
 30
0.0
 10
-10.89348
 20
-7.61741
 30
0.0
 10
-10.89333
 20
-7.74068
 30
0.0
 10
-10.90981
 20
-7.88252
 30
0.0
 10
-10.75839
 20
-7.92316
 30
0.0
 10
-10.75839
 20
-7.92316
 30
0.0
 10
-10.56108
 20
-7.97615
 30
0.0
 10
-10.59087
 20
-7.8392
 30
0.0
 10
-10.55096
 20
-7.72961
 30
0.0
 10
-10.55096
 20
-7.72961
 30
0.0
 10
-10.5456
 20
-7.85588
 30
0.0
 10
-10.51563
 20
-8.04041
 30
0.0
 10
-10.35545
 20
-8.05468
 30
0.0
 10
-10.35545
 20
-8.05468
 30
0.0
 10
-10.286
 20
-8.06088
 30
0.0
 10
-10.20419
 20
-8.03886
 30
0.0
 10
-10.17765
 20
-7.96697
 30
0.0
 10
-10.17765
 20
-7.96697
 30
0.0
 10
-10.15678
 20
-7.91051
 30
0.0
 10
-10.15448
 20
-7.83889
 30
0.0
 10
-10.15498
 20
-7.77914
 30
0.0
 10
-10.15498
 20
-7.77914
 30
0.0
 10
-10.13994
 20
-7.84754
 30
0.0
 10
-10.15287
 20
-7.94009
 30
0.0
 10
-10.10574
 20
-7.998
 30
0.0
 10
-10.10574
 20
-7.998
 30
0.0
 10
-10.07135
 20
-8.04026
 30
0.0
 10
-9.99075
 20
-8.07891
 30
0.0
 10
-9.93661
 20
-8.07206
 30
0.0
 10
-9.93661
 20
-8.07206
 30
0.0
 10
-9.8097
 20
-8.05601
 30
0.0
 10
-9.76665
 20
-7.9014
 30
0.0
 10
-9.74889
 20
-7.76914
 30
0.0
 10
-9.74889
 20
-7.76914
 30
0.0
 10
-9.76665
 20
-7.9014
 30
0.0
 10
-9.68619
 20
-8.08958
 30
0.0
 10
-9.54606
 20
-8.07015
 30
0.0
 10
-9.54606
 20
-8.07015
 30
0.0
 10
-9.34737
 20
-8.04261
 30
0.0
 10
-9.38754
 20
-7.84667
 30
0.0
 10
-9.34788
 20
-7.7045
 30
0.0
 10
-9.34788
 20
-7.7045
 30
0.0
 10
-9.34243
 20
-7.77089
 30
0.0
 10
-9.3199
 20
-7.97633
 30
0.0
 10
-9.20939
 20
-7.95826
 30
0.0
 10
-9.20939
 20
-7.95826
 30
0.0
 10
-9.06935
 20
-7.93538
 30
0.0
 10
-9.12601
 20
-7.70006
 30
0.0
 10
-9.09183
 20
-7.61632
 30
0.0
 10
-9.09183
 20
-7.61632
 30
0.0
 10
-9.08193
 20
-7.67585
 30
0.0
 10
-9.04317
 20
-7.90703
 30
0.0
 10
-8.95494
 20
-7.79585
 30
0.0
 10
-8.95494
 20
-7.79585
 30
0.0
 10
-8.8977
 20
-7.72372
 30
0.0
 10
-8.93331
 20
-7.51705
 30
0.0
 10
-8.92476
 20
-7.42482
 30
0.0
  0
SPLINE
  5
47
330
1F
100
AcDbEntity
  8
Layer 1
 62
     5
370
    53
100
AcDbSpline
210
0.0
220
0.0
230
1.0
 70
     8
 71
     3
 72
    20
 73
    16
 74
     0
 42
0.0000000001
 43
0.0000000001
 12
1.0
 22
0.0
 32
0.0
 13
1.0
 23
0.0
 33
0.0
 40
0.0
 40
0.0
 40
0.0
 40
0.0
 40
0.2
 40
0.2
 40
0.2
 40
0.2
 40
0.4
 40
0.4
 40
0.4
 40
0.4
 40
0.6
 40
0.6
 40
0.6
 40
0.6
 40
1.0
 40
1.0
 40
1.0
 40
1.0
 10
-8.93509
 20
-7.43686
 30
0.0
 10
-9.01552
 20
-7.5993
 30
0.0
 10
-9.20658
 20
-7.67128
 30
0.0
 10
-9.38382
 20
-7.71017
 30
0.0
 10
-9.38382
 20
-7.71017
 30
0.0
 10
-9.85479
 20
-7.81362
 30
0.0
 10
-10.35378
 20
-7.78689
 30
0.0
 10
-10.81099
 20
-7.6337
 30
0.0
 10
-10.81099
 20
-7.6337
 30
0.0
 10
-10.95148
 20
-7.5866
 30
0.0
 10
-11.09727
 20
-7.5202
 30
0.0
 10
-11.1732
 20
-7.39293
 30
0.0
 10
-11.1732
 20
-7.39293
 30
0.0
 10
-11.18828
 20
-7.36754
 30
0.0
 10
-11.20019
 20
-7.34055
 30
0.0
 10
-11.21236
 20
-7.31356
 30
0.0
  0
SPLINE
  5
48
330
1F
100
AcDbEntity
  8
Layer 1
 62
     5
370
    53
100
AcDbSpline
210
0.0
220
0.0
230
1.0
 70
    11
 71
     3
 72
    24
 73
    20
 74
     0
 42
0.0000000001
 43
0.0000000001
 12
1.0
 22
0.0
 32
0.0
 13
1.0
 23
0.0
 33
0.0
 40
0.0
 40
0.0
 40
0.0
 40
0.0
 40
0.1666666666666667
 40
0.1666666666666667
 40
0.1666666666666667
 40
0.1666666666666667
 40
0.3333333333333333
 40
0.3333333333333333
 40
0.3333333333333333
 40
0.3333333333333333
 40
0.5
 40
0.5
 40
0.5
 40
0.5
 40
0.6666666666666666
 40
0.6666666666666666
 40
0.6666666666666666
 40
0.6666666666666666
 40
1.0
 40
1.0
 40
1.0
 40
1.0
 10
-10.06116
 20
-7.52724
 30
0.0
 10
-10.05131
 20
-7.51364
 30
0.0
 10
-10.04866
 20
-7.49504
 30
0.0
 10
-10.0456
 20
-7.46756
 30
0.0
 10
-10.0456
 20
-7.46756
 30
0.0
 10
-10.0293
 20
-7.32206
 30
0.0
 10
-10.06931
 20
-7.1621
 30
0.0
 10
-10.06592
 20
-7.01443
 30
0.0
 10
-10.06592
 20
-7.01443
 30
0.0
 10
-10.16701
 20
-7.16582
 30
0.0
 10
-10.24944
 20
-7.35883
 30
0.0
 10
-10.24025
 20
-7.54319
 30
0.0
 10
-10.24025
 20
-7.54319
 30
0.0
 10
-10.23969
 20
-7.55428
 30
0.0
 10
-10.12243
 20
-7.55786
 30
0.0
 10
-10.11008
 20
-7.5545
 30
0.0
 10
-10.11008
 20
-7.5545
 30
0.0
 10
-10.08443
 20
-7.54754
 30
0.0
 10
-10.06994
 20
-7.53938
 30
0.0
 10
-10.06116
 20
-7.52724
 30
0.0
  0
SPLINE
  5
49
330
1F
100
AcDbEntity
  8
Layer 1
 62
     5
370
    53
100
AcDbSpline
210
0.0
220
0.0
230
1.0
 70
    11
 71
     3
 72
    24
 73
    20
 74
     0
 42
0.0000000001
 43
0.0000000001
 12
1.0
 22
0.0
 32
0.0
 13
1.0
 23
0.0
 33
0.0
 40
0.0
 40
0.0
 40
0.0
 40
0.0
 40
0.1666666666666667
 40
0.1666666666666667
 40
0.1666666666666667
 40
0.1666666666666667
 40
0.3333333333333333
 40
0.3333333333333333
 40
0.3333333333333333
 40
0.3333333333333333
 40
0.5
 40
0.5
 40
0.5
 40
0.5
 40
0.6666666666666666
 40
0.6666666666666666
 40
0.6666666666666666
 40
0.6666666666666666
 40
1.0
 40
1.0
 40
1.0
 40
1.0
 10
-9.91002
 20
-7.52724
 30
0.0
 10
-9.91986
 20
-7.51364
 30
0.0
 10
-9.9225
 20
-7.49504
 30
0.0
 10
-9.92556
 20
-7.46756
 30
0.0
 10
-9.92556
 20
-7.46756
 30
0.0
 10
-9.94187
 20
-7.32206
 30
0.0
 10
-9.90186
 20
-7.1621
 30
0.0
 10
-9.90525
 20
-7.01443
 30
0.0
 10
-9.90525
 20
-7.01443
 30
0.0
 10
-9.80415
 20
-7.16582
 30
0.0
 10
-9.72173
 20
-7.35883
 30
0.0
 10
-9.73092
 20
-7.54319
 30
0.0
 10
-9.73092
 20
-7.54319
 30
0.0
 10
-9.73147
 20
-7.55428
 30
0.0
 10
-9.84873
 20
-7.55786
 30
0.0
 10
-9.86109
 20
-7.5545
 30
0.0
 10
-9.86109
 20
-7.5545
 30
0.0
 10
-9.88673
 20
-7.54754
 30
0.0
 10
-9.90123
 20
-7.53938
 30
0.0
 10
-9.91002
 20
-7.52724
 30
0.0
  0
SPLINE
  5
4A
330
1F
100
AcDbEntity
  8
Layer 1
 62
     5
370
    53
100
AcDbSpline
210
0.0
220
0.0
230
1.0
 70
    11
 71
     3
 72
    44
 73
    40
 74
     0
 42
0.0000000001
 43
0.0000000001
 12
1.0
 22
0.0
 32
0.0
 13
1.0
 23
0.0
 33
0.0
 40
0.0
 40
0.0
 40
0.0
 40
0.0
 40
0.0909090909090909
 40
0.0909090909090909
 40
0.0909090909090909
 40
0.0909090909090909
 40
0.1818181818181818
 40
0.1818181818181818
 40
0.1818181818181818
 40
0.1818181818181818
 40
0.2727272727272727
 40
0.2727272727272727
 40
0.2727272727272727
 40
0.2727272727272727
 40
0.3636363636363636
 40
0.3636363636363636
 40
0.3636363636363636
 40
0.3636363636363636
 40
0.4545454545454545
 40
0.4545454545454545
 40
0.4545454545454545
 40
0.4545454545454545
 40
0.5454545454545454
 40
0.5454545454545454
 40
0.5454545454545454
 40
0.5454545454545454
 40
0.6363636363636364
 40
0.6363636363636364
 40
0.6363636363636364
 40
0.6363636363636364
 40
0.7272727272727273
 40
0.7272727272727273
 40
0.7272727272727273
 40
0.7272727272727273
 40
0.8181818181818182
 40
0.8181818181818182
 40
0.8181818181818182
 40
0.8181818181818182
 40
1.0
 40
1.0
 40
1.0
 40
1.0
 10
-10.61479
 20
-6.41573
 30
0.0
 10
-10.42965
 20
-6.46976
 30
0.0
 10
-10.24268
 20
-6.54897
 30
0.0
 10
-10.05323
 20
-6.58367
 30
0.0
 10
-10.05323
 20
-6.58367
 30
0.0
 10
-10.04977
 20
-6.72291
 30
0.0
 10
-10.20687
 20
-6.87845
 30
0.0
 10
-10.30477
 20
-6.95938
 30
0.0
 10
-10.30477
 20
-6.95938
 30
0.0
 10
-10.42386
 20
-7.05784
 30
0.0
 10
-10.57525
 20
-7.11527
 30
0.0
 10
-10.73082
 20
-7.0961
 30
0.0
 10
-10.73082
 20
-7.0961
 30
0.0
 10
-10.84707
 20
-7.08179
 30
0.0
 10
-10.96203
 20
-7.06542
 30
0.0
 10
-11.06697
 20
-7.00832
 30
0.0
 10
-11.06697
 20
-7.00832
 30
0.0
 10
-11.14623
 20
-6.96518
 30
0.0
 10
-11.23027
 20
-6.90223
 30
0.0
 10
-11.29545
 20
-6.84135
 30
0.0
 10
-11.29545
 20
-6.84135
 30
0.0
 10
-11.39259
 20
-6.75065
 30
0.0
 10
-11.45511
 20
-6.62895
 30
0.0
 10
-11.48661
 20
-6.50079
 30
0.0
 10
-11.48661
 20
-6.50079
 30
0.0
 10
-11.50239
 20
-6.43665
 30
0.0
 10
-11.50536
 20
-6.37332
 30
0.0
 10
-11.51196
 20
-6.30808
 30
0.0
 10
-11.51196
 20
-6.30808
 30
0.0
 10
-11.51844
 20
-6.24391
 30
0.0
 10
-11.50593
 20
-6.19285
 30
0.0
 10
-11.49903
 20
-6.12928
 30
0.0
 10
-11.49903
 20
-6.12928
 30
0.0
 10
-11.46987
 20
-6.12647
 30
0.0
 10
-11.4089
 20
-6.15779
 30
0.0
 10
-11.37983
 20
-6.16897
 30
0.0
 10
-11.37983
 20
-6.16897
 30
0.0
 10
-11.13072
 20
-6.26483
 30
0.0
 10
-10.8722
 20
-6.34065
 30
0.0
 10
-10.61479
 20
-6.41573
 30
0.0
  0
SPLINE
  5
4B
330
1F
100
AcDbEntity
  8
Layer 1
 62
     5
370
    53
100
AcDbSpline
210
0.0
220
0.0
230
1.0
 70
     8
 71
     3
 72
    12
 73
     8
 74
     0
 42
0.0000000001
 43
0.0000000001
 12
1.0
 22
0.0
 32
0.0
 13
1.0
 23
0.0
 33
0.0
 40
0.0
 40
0.0
 40
0.0
 40
0.0
 40
0.3333333333333333
 40
0.3333333333333333
 40
0.3333333333333333
 40
0.3333333333333333
 40
1.0
 40
1.0
 40
1.0
 40
1.0
 10
-10.58935
 20
-6.4369
 30
0.0
 10
-10.61693
 20
-6.4979
 30
0.0
 10
-10.64925
 20
-6.542
 30
0.0
 10
-10.72188
 20
-6.54113
 30
0.0
 10
-10.72188
 20
-6.54113
 30
0.0
 10
-10.81959
 20
-6.53999
 30
0.0
 10
-10.87092
 20
-6.45843
 30
0.0
 10
-10.84839
 20
-6.36728
 30
0.0
  0
SPLINE
  5
4C
330
1F
100
AcDbEntity
  8
Layer 1
 62
     5
370
    53
100
AcDbSpline
210
0.0
220
0.0
230
1.0
 70
     8
 71
     3
 72
    16
 73
    12
 74
     0
 42
0.0000000001
 43
0.0000000001
 12
1.0
 22
0.0
 32
0.0
 13
1.0
 23
0.0
 33
0.0
 40
0.0
 40
0.0
 40
0.0
 40
0.0
 40
0.25
 40
0.25
 40
0.25
 40
0.25
 40
0.5
 40
0.5
 40
0.5
 40
0.5
 40
1.0
 40
1.0
 40
1.0
 40
1.0
 10
-8.29172
 20
-6.65201
 30
0.0
 10
-8.29177
 20
-6.22903
 30
0.0
 10
-8.22165
 20
-5.80265
 30
0.0
 10
-8.19276
 20
-5.38183
 30
0.0
 10
-8.19276
 20
-5.38183
 30
0.0
 10
-8.1856
 20
-5.27729
 30
0.0
 10
-8.19423
 20
-5.15408
 30
0.0
 10
-8.15346
 20
-5.05613
 30
0.0
 10
-8.15346
 20
-5.05613
 30
0.0
 10
-8.1286
 20
-4.99646
 30
0.0
 10
-7.98419
 20
-4.85022
 30
0.0
 10
-7.98303
 20
-5.0204
 30
0.0
  0
SPLINE
  5
4D
330
1F
100
AcDbEntity
  8
Layer 1
 62
     5
370
    53
100
AcDbSpline
210
0.0
220
0.0
230
1.0
 70
    11
 71
     3
 72
    44
 73
    40
 74
     0
 42
0.0000000001
 43
0.0000000001
 12
1.0
 22
0.0
 32
0.0
 13
1.0
 23
0.0
 33
0.0
 40
0.0
 40
0.0
 40
0.0
 40
0.0
 40
0.0909090909090909
 40
0.0909090909090909
 40
0.0909090909090909
 40
0.0909090909090909
 40
0.1818181818181818
 40
0.1818181818181818
 40
0.1818181818181818
 40
0.1818181818181818
 40
0.2727272727272727
 40
0.2727272727272727
 40
0.2727272727272727
 40
0.2727272727272727
 40
0.3636363636363636
 40
0.3636363636363636
 40
0.3636363636363636
 40
0.3636363636363636
 40
0.4545454545454545
 40
0.4545454545454545
 40
0.4545454545454545
 40
0.4545454545454545
 40
0.5454545454545454
 40
0.5454545454545454
 40
0.5454545454545454
 40
0.5454545454545454
 40
0.6363636363636364
 40
0.6363636363636364
 40
0.6363636363636364
 40
0.6363636363636364
 40
0.7272727272727273
 40
0.7272727272727273
 40
0.7272727272727273
 40
0.7272727272727273
 40
0.8181818181818182
 40
0.8181818181818182
 40
0.8181818181818182
 40
0.8181818181818182
 40
1.0
 40
1.0
 40
1.0
 40
1.0
 10
-9.35153
 20
-6.41573
 30
0.0
 10
-9.53668
 20
-6.46976
 30
0.0
 10
-9.72363
 20
-6.54897
 30
0.0
 10
-9.91308
 20
-6.58367
 30
0.0
 10
-9.91308
 20
-6.58367
 30
0.0
 10
-9.91655
 20
-6.7229
 30
0.0
 10
-9.75945
 20
-6.87843
 30
0.0
 10
-9.66154
 20
-6.95938
 30
0.0
 10
-9.66154
 20
-6.95938
 30
0.0
 10
-9.54245
 20
-7.05782
 30
0.0
 10
-9.39106
 20
-7.11525
 30
0.0
 10
-9.23549
 20
-7.0961
 30
0.0
 10
-9.23549
 20
-7.0961
 30
0.0
 10
-9.11924
 20
-7.08179
 30
0.0
 10
-9.00429
 20
-7.06542
 30
0.0
 10
-8.89933
 20
-7.00832
 30
0.0
 10
-8.89933
 20
-7.00832
 30
0.0
 10
-8.82009
 20
-6.96518
 30
0.0
 10
-8.73603
 20
-6.90223
 30
0.0
 10
-8.67084
 20
-6.84135
 30
0.0
 10
-8.67084
 20
-6.84135
 30
0.0
 10
-8.57372
 20
-6.75064
 30
0.0
 10
-8.51121
 20
-6.62894
 30
0.0
 10
-8.47969
 20
-6.50079
 30
0.0
 10
-8.47969
 20
-6.50079
 30
0.0
 10
-8.46393
 20
-6.43665
 30
0.0
 10
-8.46093
 20
-6.37332
 30
0.0
 10
-8.45435
 20
-6.30808
 30
0.0
 10
-8.45435
 20
-6.30808
 30
0.0
 10
-8.44788
 20
-6.24391
 30
0.0
 10
-8.46036
 20
-6.19285
 30
0.0
 10
-8.46726
 20
-6.12928
 30
0.0
 10
-8.46726
 20
-6.12928
 30
0.0
 10
-8.49644
 20
-6.12647
 30
0.0
 10
-8.55741
 20
-6.15778
 30
0.0
 10
-8.58648
 20
-6.16897
 30
0.0
 10
-8.58648
 20
-6.16897
 30
0.0
 10
-8.83559
 20
-6.26483
 30
0.0
 10
-9.09412
 20
-6.34065
 30
0.0
 10
-9.35153
 20
-6.41573
 30
0.0
  0
SPLINE
  5
4E
330
1F
100
AcDbEntity
  8
Layer 1
 62
     5
370
    53
100
AcDbSpline
210
0.0
220
0.0
230
1.0
 70
     8
 71
     3
 72
    12
 73
     8
 74
     0
 42
0.0000000001
 43
0.0000000001
 12
1.0
 22
0.0
 32
0.0
 13
1.0
 23
0.0
 33
0.0
 40
0.0
 40
0.0
 40
0.0
 40
0.0
 40
0.3333333333333333
 40
0.3333333333333333
 40
0.3333333333333333
 40
0.3333333333333333
 40
1.0
 40
1.0
 40
1.0
 40
1.0
 10
-9.37698
 20
-6.4369
 30
0.0
 10
-9.34938
 20
-6.49789
 30
0.0
 10
-9.31706
 20
-6.54199
 30
0.0
 10
-9.24443
 20
-6.54113
 30
0.0
 10
-9.24443
 20
-6.54113
 30
0.0
 10
-9.14673
 20
-6.53999
 30
0.0
 10
-9.09539
 20
-6.45842
 30
0.0
 10
-9.11793
 20
-6.36728
 30
0.0
  0
SPLINE
  5
4F
330
1F
100
AcDbEntity
  8
Layer 1
 62
     5
370
    53
100
AcDbSpline
210
0.0
220
0.0
230
1.0
 70
     8
 71
     3
 72
    24
 73
    20
 74
     0
 42
0.0000000001
 43
0.0000000001
 12
1.0
 22
0.0
 32
0.0
 13
1.0
 23
0.0
 33
0.0
 40
0.0
 40
0.0
 40
0.0
 40
0.0
 40
0.1666666666666667
 40
0.1666666666666667
 40
0.1666666666666667
 40
0.1666666666666667
 40
0.3333333333333333
 40
0.3333333333333333
 40
0.3333333333333333
 40
0.3333333333333333
 40
0.5
 40
0.5
 40
0.5
 40
0.5
 40
0.6666666666666666
 40
0.6666666666666666
 40
0.6666666666666666
 40
0.6666666666666666
 40
1.0
 40
1.0
 40
1.0
 40
1.0
 10
-11.67617
 20
-6.68068
 30
0.0
 10
-11.65099
 20
-6.57619
 30
0.0
 10
-11.69517
 20
-6.45758
 30
0.0
 10
-11.68808
 20
-6.34827
 30
0.0
 10
-11.68808
 20
-6.34827
 30
0.0
 10
-11.6796
 20
-6.21771
 30
0.0
 10
-11.67081
 20
-6.08893
 30
0.0
 10
-11.66961
 20
-5.95796
 30
0.0
 10
-11.66961
 20
-5.95796
 30
0.0
 10
-11.66771
 20
-5.74538
 30
0.0
 10
-11.67523
 20
-5.55222
 30
0.0
 10
-11.71768
 20
-5.34386
 30
0.0
 10
-11.71768
 20
-5.34386
 30
0.0
 10
-11.73706
 20
-5.24878
 30
0.0
 10
-11.76089
 20
-5.13653
 30
0.0
 10
-11.81346
 20
-5.05314
 30
0.0
 10
-11.81346
 20
-5.05314
 30
0.0
 10
-11.87755
 20
-4.95146
 30
0.0
 10
-11.95872
 20
-4.9847
 30
0.0
 10
-11.98706
 20
-5.09979
 30
0.0
  0
SPLINE
  5
50
330
1F
100
AcDbEntity
  8
Layer 1
 62
     5
370
    53
100
AcDbSpline
210
0.0
220
0.0
230
1.0
 70
    11
 71
     3
 72
    24
 73
    20
 74
     0
 42
0.0000000001
 43
0.0000000001
 12
1.0
 22
0.0
 32
0.0
 13
1.0
 23
0.0
 33
0.0
 40
0.0
 40
0.0
 40
0.0
 40
0.0
 40
0.1666666666666667
 40
0.1666666666666667
 40
0.1666666666666667
 40
0.1666666666666667
 40
0.3333333333333333
 40
0.3333333333333333
 40
0.3333333333333333
 40
0.3333333333333333
 40
0.5
 40
0.5
 40
0.5
 40
0.5
 40
0.6666666666666666
 40
0.6666666666666666
 40
0.6666666666666666
 40
0.6666666666666666
 40
1.0
 40
1.0
 40
1.0
 40
1.0
 10
-10.76518
 20
-6.43898
 30
0.0
 10
-10.7728
 20
-6.44114
 30
0.0
 10
-10.78113
 20
-6.4409
 30
0.0
 10
-10.78941
 20
-6.43751
 30
0.0
 10
-10.78941
 20
-6.43751
 30
0.0
 10
-10.80027
 20
-6.43304
 30
0.0
 10
-10.80653
 20
-6.42274
 30
0.0
 10
-10.81047
 20
-6.41217
 30
0.0
 10
-10.81047
 20
-6.41217
 30
0.0
 10
-10.81143
 20
-6.40961
 30
0.0
 10
-10.81701
 20
-6.37854
 30
0.0
 10
-10.8153
 20
-6.37902
 30
0.0
 10
-10.8153
 20
-6.37902
 30
0.0
 10
-10.77915
 20
-6.38904
 30
0.0
 10
-10.7622
 20
-6.39765
 30
0.0
 10
-10.73496
 20
-6.40719
 30
0.0
 10
-10.73496
 20
-6.40719
 30
0.0
 10
-10.73922
 20
-6.42262
 30
0.0
 10
-10.75097
 20
-6.43496
 30
0.0
 10
-10.76518
 20
-6.43898
 30
0.0
  0
SPLINE
  5
51
330
1F
100
AcDbEntity
  8
Layer 1
 62
     5
370
    53
100
AcDbSpline
210
0.0
220
0.0
230
1.0
 70
    11
 71
     3
 72
    20
 73
    16
 74
     0
 42
0.0000000001
 43
0.0000000001
 12
1.0
 22
0.0
 32
0.0
 13
1.0
 23
0.0
 33
0.0
 40
0.0
 40
0.0
 40
0.0
 40
0.0
 40
0.2
 40
0.2
 40
0.2
 40
0.2
 40
0.4
 40
0.4
 40
0.4
 40
0.4
 40
0.6
 40
0.6
 40
0.6
 40
0.6
 40
1.0
 40
1.0
 40
1.0
 40
1.0
 10
-9.33233
 20
-6.43001
 30
0.0
 10
-9.32853
 20
-6.45314
 30
0.0
 10
-9.29993
 20
-6.46061
 30
0.0
 10
-9.28109
 20
-6.45475
 30
0.0
 10
-9.28109
 20
-6.45475
 30
0.0
 10
-9.25714
 20
-6.44735
 30
0.0
 10
-9.25251
 20
-6.42766
 30
0.0
 10
-9.25706
 20
-6.40459
 30
0.0
 10
-9.25706
 20
-6.40459
 30
0.0
 10
-9.26719
 20
-6.40589
 30
0.0
 10
-9.29577
 20
-6.41774
 30
0.0
 10
-9.29577
 20
-6.41774
 30
0.0
 10
-9.29577
 20
-6.41774
 30
0.0
 10
-9.29577
 20
-6.41774
 30
0.0
 10
-9.33233
 20
-6.43001
 30
0.0
 10
-9.33233
 20
-6.43001
 30
0.0
  0
SPLINE
  5
52
330
1F
100
AcDbEntity
  8
Layer 1
 62
     5
370
    53
100
AcDbSpline
210
0.0
220
0.0
230
1.0
 70
     8
 71
     3
 72
     8
 73
     4
 74
     0
 42
0.0000000001
 43
0.0000000001
 12
1.0
 22
0.0
 32
0.0
 13
1.0
 23
0.0
 33
0.0
 40
0.0
 40
0.0
 40
0.0
 40
0.0
 40
1.0
 40
1.0
 40
1.0
 40
1.0
 10
-10.1482
 20
-8.84034
 30
0.0
 10
-10.07502
 20
-8.86822
 30
0.0
 10
-9.95778
 20
-8.85815
 30
0.0
 10
-9.87933
 20
-8.83827
 30
0.0
  0
SPLINE
  5
53
330
1F
100
AcDbEntity
  8
Layer 1
 62
     5
370
    53
100
AcDbSpline
210
0.0
220
0.0
230
1.0
 70
     8
 71
     3
 72
    16
 73
    12
 74
     0
 42
0.0000000001
 43
0.0000000001
 12
1.0
 22
0.0
 32
0.0
 13
1.0
 23
0.0
 33
0.0
 40
0.0
 40
0.0
 40
0.0
 40
0.0
 40
0.25
 40
0.25
 40
0.25
 40
0.25
 40
0.5
 40
0.5
 40
0.5
 40
0.5
 40
1.0
 40
1.0
 40
1.0
 40
1.0
 10
-11.64309
 20
-4.35014
 30
0.0
 10
-11.51012
 20
-4.10835
 30
0.0
 10
-11.3001
 20
-3.91664
 30
0.0
 10
-11.06565
 20
-3.77519
 30
0.0
 10
-11.06565
 20
-3.77519
 30
0.0
 10
-10.94629
 20
-3.70317
 30
0.0
 10
-10.81948
 20
-3.64354
 30
0.0
 10
-10.68855
 20
-3.59589
 30
0.0
 10
-10.68855
 20
-3.59589
 30
0.0
 10
-10.58451
 20
-3.55802
 30
0.0
 10
-10.41432
 20
-3.47936
 30
0.0
 10
-10.30254
 20
-3.50347
 30
0.0
  0
SPLINE
  5
54
330
1F
100
AcDbEntity
  8
Layer 1
 62
     5
370
    53
100
AcDbSpline
210
0.0
220
0.0
230
1.0
 70
     8
 71
     3
 72
    16
 73
    12
 74
     0
 42
0.0000000001
 43
0.0000000001
 12
1.0
 22
0.0
 32
0.0
 13
1.0
 23
0.0
 33
0.0
 40
0.0
 40
0.0
 40
0.0
 40
0.0
 40
0.25
 40
0.25
 40
0.25
 40
0.25
 40
0.5
 40
0.5
 40
0.5
 40
0.5
 40
1.0
 40
1.0
 40
1.0
 40
1.0
 10
-11.47773
 20
-5.58927
 30
0.0
 10
-11.43966
 20
-5.69589
 30
0.0
 10
-11.52309
 20
-5.77517
 30
0.0
 10
-11.40683
 20
-5.8289
 30
0.0
 10
-11.40683
 20
-5.8289
 30
0.0
 10
-11.2525
 20
-5.90029
 30
0.0
 10
-11.10201
 20
-5.97896
 30
0.0
 10
-10.94377
 20
-6.04017
 30
0.0
 10
-10.94377
 20
-6.04017
 30
0.0
 10
-10.70325
 20
-6.13317
 30
0.0
 10
-10.33437
 20
-6.2475
 30
0.0
 10
-10.07216
 20
-6.34713
 30
0.0
  0
SPLINE
  5
55
330
1F
100
AcDbEntity
  8
Layer 1
 62
     5
370
    53
100
AcDbSpline
210
0.0
220
0.0
230
1.0
 70
     8
 71
     3
 72
    16
 73
    12
 74
     0
 42
0.0000000001
 43
0.0000000001
 12
1.0
 22
0.0
 32
0.0
 13
1.0
 23
0.0
 33
0.0
 40
0.0
 40
0.0
 40
0.0
 40
0.0
 40
0.25
 40
0.25
 40
0.25
 40
0.25
 40
0.5
 40
0.5
 40
0.5
 40
0.5
 40
1.0
 40
1.0
 40
1.0
 40
1.0
 10
-8.45822
 20
-5.58927
 30
0.0
 10
-8.49628
 20
-5.69589
 30
0.0
 10
-8.41287
 20
-5.77517
 30
0.0
 10
-8.52912
 20
-5.8289
 30
0.0
 10
-8.52912
 20
-5.8289
 30
0.0
 10
-8.68345
 20
-5.90029
 30
0.0
 10
-8.83396
 20
-5.97896
 30
0.0
 10
-8.99217
 20
-6.04017
 30
0.0
 10
-8.99217
 20
-6.04017
 30
0.0
 10
-9.23269
 20
-6.13317
 30
0.0
 10
-9.60159
 20
-6.2475
 30
0.0
 10
-9.86379
 20
-6.34713
 30
0.0
  0
SPLINE
  5
56
330
1F
100
AcDbEntity
  8
Layer 1
370
    53
100
AcDbSpline
210
0.0
220
0.0
230
1.0
 70
    11
 71
     3
 72
   168
 73
   164
 74
     0
 42
0.0000000001
 43
0.0000000001
 12
1.0
 22
0.0
 32
0.0
 13
1.0
 23
0.0
 33
0.0
 40
0.0
 40
0.0
 40
0.0
 40
0.0
 40
0.0238095238095238
 40
0.0238095238095238
 40
0.0238095238095238
 40
0.0238095238095238
 40
0.0476190476190476
 40
0.0476190476190476
 40
0.0476190476190476
 40
0.0476190476190476
 40
0.0714285714285714
 40
0.0714285714285714
 40
0.0714285714285714
 40
0.0714285714285714
 40
0.0952380952380952
 40
0.0952380952380952
 40
0.0952380952380952
 40
0.0952380952380952
 40
0.119047619047619
 40
0.119047619047619
 40
0.119047619047619
 40
0.119047619047619
 40
0.1428571428571428
 40
0.1428571428571428
 40
0.1428571428571428
 40
0.1428571428571428
 40
0.1666666666666667
 40
0.1666666666666667
 40
0.1666666666666667
 40
0.1666666666666667
 40
0.1904761904761905
 40
0.1904761904761905
 40
0.1904761904761905
 40
0.1904761904761905
 40
0.2142857142857143
 40
0.2142857142857143
 40
0.2142857142857143
 40
0.2142857142857143
 40
0.2380952380952381
 40
0.2380952380952381
 40
0.2380952380952381
 40
0.2380952380952381
 40
0.2619047619047619
 40
0.2619047619047619
 40
0.2619047619047619
 40
0.2619047619047619
 40
0.2857142857142857
 40
0.2857142857142857
 40
0.2857142857142857
 40
0.2857142857142857
 40
0.3095238095238095
 40
0.3095238095238095
 40
0.3095238095238095
 40
0.3095238095238095
 40
0.3333333333333333
 40
0.3333333333333333
 40
0.3333333333333333
 40
0.3333333333333333
 40
0.3571428571428572
 40
0.3571428571428572
 40
0.3571428571428572
 40
0.3571428571428572
 40
0.3809523809523809
 40
0.3809523809523809
 40
0.3809523809523809
 40
0.3809523809523809
 40
0.4047619047619048
 40
0.4047619047619048
 40
0.4047619047619048
 40
0.4047619047619048
 40
0.4285714285714285
 40
0.4285714285714285
 40
0.4285714285714285
 40
0.4285714285714285
 40
0.4523809523809524
 40
0.4523809523809524
 40
0.4523809523809524
 40
0.4523809523809524
 40
0.4761904761904762
 40
0.4761904761904762
 40
0.4761904761904762
 40
0.4761904761904762
 40
0.5
 40
0.5
 40
0.5
 40
0.5
 40
0.5238095238095238
 40
0.5238095238095238
 40
0.5238095238095238
 40
0.5238095238095238
 40
0.5476190476190477
 40
0.5476190476190477
 40
0.5476190476190477
 40
0.5476190476190477
 40
0.5714285714285714
 40
0.5714285714285714
 40
0.5714285714285714
 40
0.5714285714285714
 40
0.5952380952380952
 40
0.5952380952380952
 40
0.5952380952380952
 40
0.5952380952380952
 40
0.6190476190476191
 40
0.6190476190476191
 40
0.6190476190476191
 40
0.6190476190476191
 40
0.6428571428571429
 40
0.6428571428571429
 40
0.6428571428571429
 40
0.6428571428571429
 40
0.6666666666666666
 40
0.6666666666666666
 40
0.6666666666666666
 40
0.6666666666666666
 40
0.6904761904761905
 40
0.6904761904761905
 40
0.6904761904761905
 40
0.6904761904761905
 40
0.7142857142857143
 40
0.7142857142857143
 40
0.7142857142857143
 40
0.7142857142857143
 40
0.7380952380952381
 40
0.7380952380952381
 40
0.7380952380952381
 40
0.7380952380952381
 40
0.7619047619047619
 40
0.7619047619047619
 40
0.7619047619047619
 40
0.7619047619047619
 40
0.7857142857142857
 40
0.7857142857142857
 40
0.7857142857142857
 40
0.7857142857142857
 40
0.8095238095238095
 40
0.8095238095238095
 40
0.8095238095238095
 40
0.8095238095238095
 40
0.8333333333333334
 40
0.8333333333333334
 40
0.8333333333333334
 40
0.8333333333333334
 40
0.8571428571428571
 40
0.8571428571428571
 40
0.8571428571428571
 40
0.8571428571428571
 40
0.8809523809523809
 40
0.8809523809523809
 40
0.8809523809523809
 40
0.8809523809523809
 40
0.9047619047619048
 40
0.9047619047619048
 40
0.9047619047619048
 40
0.9047619047619048
 40
0.9285714285714286
 40
0.9285714285714286
 40
0.9285714285714286
 40
0.9285714285714286
 40
0.9523809523809523
 40
0.9523809523809523
 40
0.9523809523809523
 40
0.9523809523809523
 40
1.0
 40
1.0
 40
1.0
 40
1.0
 10
-9.51254
 20
-9.29999
 30
0.0
 10
-9.51254
 20
-9.29999
 30
0.0
 10
-9.51254
 20
-9.08052
 30
0.0
 10
-9.51254
 20
-9.08052
 30
0.0
 10
-9.51254
 20
-9.08052
 30
0.0
 10
-9.35214
 20
-9.07008
 30
0.0
 10
-9.1937
 20
-9.03828
 30
0.0
 10
-9.06313
 20
-8.94265
 30
0.0
 10
-9.06313
 20
-8.94265
 30
0.0
 10
-8.93734
 20
-8.85052
 30
0.0
 10
-8.81045
 20
-8.66663
 30
0.0
 10
-8.72818
 20
-8.53128
 30
0.0
 10
-8.72818
 20
-8.53128
 30
0.0
 10
-8.67493
 20
-8.44359
 30
0.0
 10
-8.67563
 20
-8.36382
 30
0.0
 10
-8.68141
 20
-8.26842
 30
0.0
 10
-8.68141
 20
-8.26842
 30
0.0
 10
-8.68921
 20
-8.13925
 30
0.0
 10
-8.65865
 20
-7.99341
 30
0.0
 10
-8.61467
 20
-7.87283
 30
0.0
 10
-8.61467
 20
-7.87283
 30
0.0
 10
-8.55483
 20
-7.7086
 30
0.0
 10
-8.44378
 20
-7.54089
 30
0.0
 10
-8.44225
 20
-7.35992
 30
0.0
 10
-8.44225
 20
-7.35992
 30
0.0
 10
-8.44068
 20
-7.17666
 30
0.0
 10
-8.60542
 20
-7.14783
 30
0.0
 10
-8.74156
 20
-7.10909
 30
0.0
 10
-8.74156
 20
-7.10909
 30
0.0
 10
-8.74156
 20
-7.10909
 30
0.0
 10
-8.7669
 20
-7.10929
 30
0.0
 10
-8.7669
 20
-7.10929
 30
0.0
 10
-8.7669
 20
-7.10929
 30
0.0
 10
-8.64562
 20
-7.01942
 30
0.0
 10
-8.46137
 20
-7.00113
 30
0.0
 10
-8.3673
 20
-6.87806
 30
0.0
 10
-8.3673
 20
-6.87806
 30
0.0
 10
-8.24162
 20
-6.71401
 30
0.0
 10
-8.34112
 20
-6.44969
 30
0.0
 10
-8.21199
 20
-6.28803
 30
0.0
 10
-8.21199
 20
-6.28803
 30
0.0
 10
-8.17441
 20
-6.24094
 30
0.0
 10
-8.1215
 20
-6.20892
 30
0.0
 10
-8.07625
 20
-6.16897
 30
0.0
 10
-8.07625
 20
-6.16897
 30
0.0
 10
-7.94557
 20
-6.05441
 30
0.0
 10
-7.88366
 20
-5.8811
 30
0.0
 10
-7.84263
 20
-5.7123
 30
0.0
 10
-7.84263
 20
-5.7123
 30
0.0
 10
-7.83762
 20
-5.69272
 30
0.0
 10
-7.83312
 20
-5.67261
 30
0.0
 10
-7.82863
 20
-5.65277
 30
0.0
 10
-7.82863
 20
-5.65277
 30
0.0
 10
-7.73098
 20
-5.21992
 30
0.0
 10
-7.68786
 20
-4.68863
 30
0.0
 10
-7.88232
 20
-4.27429
 30
0.0
 10
-7.88232
 20
-4.27429
 30
0.0
 10
-8.04768
 20
-3.92266
 30
0.0
 10
-8.37789
 20
-3.67978
 30
0.0
 10
-8.72343
 20
-3.5226
 30
0.0
 10
-8.72343
 20
-3.5226
 30
0.0
 10
-9.08539
 20
-3.35804
 30
0.0
 10
-9.48571
 20
-3.28528
 30
0.0
 10
-9.88177
 20
-3.27655
 30
0.0
 10
-9.88177
 20
-3.27655
 30
0.0
 10
-10.3469
 20
-3.26649
 30
0.0
 10
-10.82553
 20
-3.3329
 30
0.0
 10
-11.23142
 20
-3.56017
 30
0.0
 10
-11.23142
 20
-3.56017
 30
0.0
 10
-11.91827
 20
-3.94487
 30
0.0
 10
-12.30033
 20
-4.76906
 30
0.0
 10
-12.24794
 20
-5.55434
 30
0.0
 10
-12.24794
 20
-5.55434
 30
0.0
 10
-12.22757
 20
-5.86153
 30
0.0
 10
-12.13469
 20
-6.1859
 30
0.0
 10
-11.89419
 20
-6.37799
 30
0.0
 10
-11.89419
 20
-6.37799
 30
0.0
 10
-11.88942
 20
-6.38196
 30
0.0
 10
-11.88467
 20
-6.38566
 30
0.0
 10
-11.87964
 20
-6.38936
 30
0.0
 10
-11.87964
 20
-6.38936
 30
0.0
 10
-11.80397
 20
-6.44783
 30
0.0
 10
-11.71586
 20
-6.50156
 30
0.0
 10
-11.68913
 20
-6.59204
 30
0.0
 10
-11.68913
 20
-6.59204
 30
0.0
 10
-11.65924
 20
-6.69364
 30
0.0
 10
-11.71904
 20
-6.80636
 30
0.0
 10
-11.68596
 20
-6.9069
 30
0.0
 10
-11.68596
 20
-6.9069
 30
0.0
 10
-11.64498
 20
-7.0322
 30
0.0
 10
-11.49544
 20
-7.06509
 30
0.0
 10
-11.37575
 20
-7.1304
 30
0.0
 10
-11.37575
 20
-7.1304
 30
0.0
 10
-11.37575
 20
-7.1304
 30
0.0
 10
-11.38395
 20
-7.13047
 30
0.0
 10
-11.38395
 20
-7.13047
 30
0.0
 10
-11.38395
 20
-7.13047
 30
0.0
 10
-11.52011
 20
-7.1692
 30
0.0
 10
-11.60546
 20
-7.19804
 30
0.0
 10
-11.6039
 20
-7.38129
 30
0.0
 10
-11.6039
 20
-7.38129
 30
0.0
 10
-11.60236
 20
-7.56227
 30
0.0
 10
-11.49132
 20
-7.72998
 30
0.0
 10
-11.43147
 20
-7.89421
 30
0.0
 10
-11.43147
 20
-7.89421
 30
0.0
 10
-11.38079
 20
-8.03317
 30
0.0
 10
-11.3693
 20
-8.15533
 30
0.0
 10
-11.3635
 20
-8.30091
 30
0.0
 10
-11.3635
 20
-8.30091
 30
0.0
 10
-11.35878
 20
-8.41949
 30
0.0
 10
-11.33868
 20
-8.50797
 30
0.0
 10
-11.26314
 20
-8.60528
 30
0.0
 10
-11.26314
 20
-8.60528
 30
0.0
 10
-11.19841
 20
-8.68865
 30
0.0
 10
-11.11109
 20
-8.75277
 30
0.0
 10
-11.02174
 20
-8.80697
 30
0.0
 10
-11.02174
 20
-8.80697
 30
0.0
 10
-10.90429
 20
-8.87822
 30
0.0
 10
-10.79189
 20
-8.96583
 30
0.0
 10
-10.66352
 20
-9.01512
 30
0.0
 10
-10.66352
 20
-9.01512
 30
0.0
 10
-10.6045
 20
-9.03777
 30
0.0
 10
-10.54592
 20
-9.05409
 30
0.0
 10
-10.48754
 20
-9.06573
 30
0.0
 10
-10.48754
 20
-9.06573
 30
0.0
 10
-10.48754
 20
-9.06573
 30
0.0
 10
-10.48754
 20
-9.29999
 30
0.0
 10
-10.48754
 20
-9.29999
 30
0.0
 10
-10.48754
 20
-9.29999
 30
0.0
 10
-10.48754
 20
-9.29999
 30
0.0
 10
-11.70003
 20
-9.29999
 30
0.0
 10
-11.70003
 20
-9.29999
 30
0.0
 10
-11.70003
 20
-9.29999
 30
0.0
 10
-11.97617
 20
-9.29999
 30
0.0
 10
-12.20003
 20
-9.52385
 30
0.0
 10
-12.20003
 20
-9.79999
 30
0.0
 10
-12.20003
 20
-9.79999
 30
0.0
 10
-12.20003
 20
-9.79999
 30
0.0
 10
-12.20003
 20
-10.19999
 30
0.0
 10
-12.20003
 20
-10.19999
 30
0.0
 10
-12.20003
 20
-10.19999
 30
0.0
 10
-12.20003
 20
-10.47613
 30
0.0
 10
-11.97617
 20
-10.69999
 30
0.0
 10
-11.70003
 20
-10.69999
 30
0.0
 10
-11.70003
 20
-10.69999
 30
0.0
 10
-11.70003
 20
-10.69999
 30
0.0
 10
-8.30003
 20
-10.69999
 30
0.0
 10
-8.30003
 20
-10.69999
 30
0.0
 10
-8.30003
 20
-10.69999
 30
0.0
 10
-8.02389
 20
-10.69999
 30
0.0
 10
-7.80003
 20
-10.47613
 30
0.0
 10
-7.80003
 20
-10.19999
 30
0.0
 10
-7.80003
 20
-10.19999
 30
0.0
 10
-7.80003
 20
-10.19999
 30
0.0
 10
-7.80003
 20
-9.79999
 30
0.0
 10
-7.80003
 20
-9.79999
 30
0.0
 10
-7.80003
 20
-9.79999
 30
0.0
 10
-7.80003
 20
-9.52385
 30
0.0
 10
-8.02389
 20
-9.29999
 30
0.0
 10
-8.30003
 20
-9.29999
 30
0.0
 10
-8.30003
 20
-9.29999
 30
0.0
 10
-8.30003
 20
-9.29999
 30
0.0
 10
-9.51254
 20
-9.29999
 30
0.0
 10
-9.51254
 20
-9.29999
 30
0.0
  0
SPLINE
  5
57
330
1F
100
AcDbEntity
  8
Layer 1
370
    53
100
AcDbSpline
210
0.0
220
0.0
230
1.0
 70
    11
 71
     3
 72
    20
 73
    16
 74
     0
 42
0.0000000001
 43
0.0000000001
 12
1.0
 22
0.0
 32
0.0
 13
1.0
 23
0.0
 33
0.0
 40
0.0
 40
0.0
 40
0.0
 40
0.0
 40
0.2
 40
0.2
 40
0.2
 40
0.2
 40
0.4
 40
0.4
 40
0.4
 40
0.4
 40
0.6
 40
0.6
 40
0.6
 40
0.6
 40
1.0
 40
1.0
 40
1.0
 40
1.0
 10
-10.93003
 20
-9.99999
 30
0.0
 10
-10.93003
 20
-9.90058
 30
0.0
 10
-10.84944
 20
-9.81999
 30
0.0
 10
-10.75003
 20
-9.81999
 30
0.0
 10
-10.75003
 20
-9.81999
 30
0.0
 10
-10.65062
 20
-9.81999
 30
0.0
 10
-10.57003
 20
-9.90058
 30
0.0
 10
-10.57003
 20
-9.99999
 30
0.0
 10
-10.57003
 20
-9.99999
 30
0.0
 10
-10.57003
 20
-10.0994
 30
0.0
 10
-10.65062
 20
-10.17999
 30
0.0
 10
-10.75003
 20
-10.17999
 30
0.0
 10
-10.75003
 20
-10.17999
 30
0.0
 10
-10.84944
 20
-10.17999
 30
0.0
 10
-10.93003
 20
-10.0994
 30
0.0
 10
-10.93003
 20
-9.99999
 30
0.0
  0
SPLINE
  5
58
330
1F
100
AcDbEntity
  8
Layer 1
370
    53
100
AcDbSpline
210
0.0
220
0.0
230
1.0
 70
    11
 71
     3
 72
    20
 73
    16
 74
     0
 42
0.0000000001
 43
0.0000000001
 12
1.0
 22
0.0
 32
0.0
 13
1.0
 23
0.0
 33
0.0
 40
0.0
 40
0.0
 40
0.0
 40
0.0
 40
0.2
 40
0.2
 40
0.2
 40
0.2
 40
0.4
 40
0.4
 40
0.4
 40
0.4
 40
0.6
 40
0.6
 40
0.6
 40
0.6
 40
1.0
 40
1.0
 40
1.0
 40
1.0
 10
-9.43003
 20
-9.99999
 30
0.0
 10
-9.43003
 20
-9.90058
 30
0.0
 10
-9.34944
 20
-9.81999
 30
0.0
 10
-9.25003
 20
-9.81999
 30
0.0
 10
-9.25003
 20
-9.81999
 30
0.0
 10
-9.15062
 20
-9.81999
 30
0.0
 10
-9.07003
 20
-9.90058
 30
0.0
 10
-9.07003
 20
-9.99999
 30
0.0
 10
-9.07003
 20
-9.99999
 30
0.0
 10
-9.07003
 20
-10.0994
 30
0.0
 10
-9.15062
 20
-10.17999
 30
0.0
 10
-9.25003
 20
-10.17999
 30
0.0
 10
-9.25003
 20
-10.17999
 30
0.0
 10
-9.34944
 20
-10.17999
 30
0.0
 10
-9.43003
 20
-10.0994
 30
0.0
 10
-9.43003
 20
-9.99999
 30
0.0
  0
ENDSEC
  0
SECTION
  2
OBJECTS
  0
DICTIONARY
  5
C
330
0
100
AcDbDictionary
281
     1
  3
ACAD_GROUP
350
D
  3
ACAD_LAYOUT
350
1A
  3
ACAD_MATERIAL
350
3B
  3
ACAD_MLEADERSTYLE
350
7A
  3
ACAD_MLINESTYLE
350
17
  3
ACAD_PLOTSETTINGS
350
19
  3
ACAD_PLOTSTYLENAME
350
E
  3
ACAD_TABLESTYLE
350
79
  3
ACAD_VISUALSTYLE
350
2A
  0
DICTIONARY
  5
D
102
{ACAD_REACTORS
330
C
102
}
330
C
100
AcDbDictionary
281
     1
  0
DICTIONARY
  5
1A
102
{ACAD_REACTORS
330
C
102
}
330
C
100
AcDbDictionary
281
     1
  3
Layout1
350
1E
  3
Layout2
350
26
  3
Model
350
22
  0
DICTIONARY
  5
3B
102
{ACAD_REACTORS
330
C
102
}
330
C
100
AcDbDictionary
281
     1
  3
ByBlock
350
3D
  3
ByLayer
350
3C
  3
Global
350
3E
  0
DICTIONARY
  5
7A
102
{ACAD_REACTORS
330
C
102
}
330
C
100
AcDbDictionary
281
     1
  0
DICTIONARY
  5
17
102
{ACAD_REACTORS
330
C
102
}
330
C
100
AcDbDictionary
281
     1
  3
Standard
350
18
  0
DICTIONARY
  5
19
102
{ACAD_REACTORS
330
C
102
}
330
C
100
AcDbDictionary
281
     1
  0
ACDBDICTIONARYWDFLT
  5
E
102
{ACAD_REACTORS
330
C
102
}
330
C
100
AcDbDictionary
281
     1
  3
Normal
350
F
100
AcDbDictionaryWithDefault
340
F
  0
DICTIONARY
  5
79
102
{ACAD_REACTORS
330
C
102
}
330
C
100
AcDbDictionary
281
     1
  0
DICTIONARY
  5
2A
102
{ACAD_REACTORS
330
C
102
}
330
C
100
AcDbDictionary
281
     1
  3
2dWireframe
350
2F
  3
3D Hidden
350
31
  3
3dWireframe
350
30
  3
Basic
350
32
  3
Brighten
350
36
  3
ColorChange
350
3A
  3
Conceptual
350
34
  3
Dim
350
35
  3
Facepattern
350
39
  3
Flat
350
2B
  3
FlatWithEdges
350
2C
  3
Gouraud
350
2D
  3
GouraudWithEdges
350
2E
  3
Linepattern
350
38
  3
Realistic
350
33
  3
Thicken
350
37
  0
LAYOUT
  5
1E
102
{ACAD_REACTORS
330
1A
102
}
330
1A
100
AcDbPlotSettings
  1

  2
none_device
  4

  6

 40
0.0
 41
0.0
 42
0.0
 43
0.0
 44
0.0
 45
0.0
 46
0.0
 47
0.0
 48
0.0
 49
0.0
140
0.0
141
0.0
142
1.0
143
1.0
 70
   688
 72
     0
 73
     0
 74
     5
  7

 75
    16
 76
     0
 77
     2
 78
   300
147
1.0
148
0.0
149
0.0
100
AcDbLayout
  1
Layout1
 70
     1
 71
     1
 10
0.0
 20
0.0
 11
12.0
 21
9.0
 12
0.0
 22
0.0
 32
0.0
 14
1.000000000000000E+20
 24
1.000000000000000E+20
 34
1.000000000000000E+20
 15
-1.000000000000000E+20
 25
-1.000000000000000E+20
 35
-1.000000000000000E+20
146
0.0
 13
0.0
 23
0.0
 33
0.0
 16
1.0
 26
0.0
 36
0.0
 17
0.0
 27
1.0
 37
0.0
 76
     0
330
1B
  0
LAYOUT
  5
26
102
{ACAD_REACTORS
330
1A
102
}
330
1A
100
AcDbPlotSettings
  1

  2
none_device
  4

  6

 40
0.0
 41
0.0
 42
0.0
 43
0.0
 44
0.0
 45
0.0
 46
0.0
 47
0.0
 48
0.0
 49
0.0
140
0.0
141
0.0
142
1.0
143
1.0
 70
   688
 72
     0
 73
     0
 74
     5
  7

 75
    16
 76
     0
 77
     2
 78
   300
147
1.0
148
0.0
149
0.0
100
AcDbLayout
  1
Layout2
 70
     1
 71
     2
 10
0.0
 20
0.0
 11
0.0
 21
0.0
 12
0.0
 22
0.0
 32
0.0
 14
0.0
 24
0.0
 34
0.0
 15
0.0
 25
0.0
 35
0.0
146
0.0
 13
0.0
 23
0.0
 33
0.0
 16
1.0
 26
0.0
 36
0.0
 17
0.0
 27
1.0
 37
0.0
 76
     0
330
23
  0
LAYOUT
  5
22
102
{ACAD_REACTORS
330
1A
102
}
330
1A
100
AcDbPlotSettings
  1

  2
none_device
  4

  6

 40
0.0
 41
0.0
 42
0.0
 43
0.0
 44
0.0
 45
0.0
 46
0.0
 47
0.0
 48
0.0
 49
0.0
140
0.0
141
0.0
142
1.0
143
1.0
 70
  1712
 72
     0
 73
     0
 74
     0
  7

 75
     0
 76
     0
 77
     2
 78
   300
147
1.0
148
0.0
149
0.0
100
AcDbLayout
  1
Model
 70
     1
 71
     0
 10
0.0
 20
0.0
 11
12.0
 21
9.0
 12
0.0
 22
0.0
 32
0.0
 14
-12.27916
 24
-10.72645
 34
0.0
 15
-7.71947
 25
-3.24912
 35
0.0
146
0.0
 13
0.0
 23
0.0
 33
0.0
 16
1.0
 26
0.0
 36
0.0
 17
0.0
 27
1.0
 37
0.0
 76
     0
330
1F
331
29
  0
MATERIAL
  5
3D
102
{ACAD_REACTORS
330
3B
102
}
330
3B
100
AcDbMaterial
  1
ByBlock
 72
     1
 94
      127
  0
MATERIAL
  5
3C
102
{ACAD_REACTORS
330
3B
102
}
330
3B
100
AcDbMaterial
  1
ByLayer
 72
     1
 94
      127
  0
MATERIAL
  5
3E
102
{ACAD_REACTORS
330
3B
102
}
330
3B
100
AcDbMaterial
  1
Global
 72
     1
 94
      127
  0
MLINESTYLE
  5
18
102
{ACAD_REACTORS
330
17
102
}
330
17
100
AcDbMlineStyle
  2
Standard
 70
     0
  3

 62
   256
 51
90.0
 52
90.0
 71
     2
 49
0.5
 62
   256
  6
BYLAYER
 49
-0.5
 62
   256
  6
BYLAYER
  0
ACDBPLACEHOLDER
  5
F
102
{ACAD_REACTORS
330
E
102
}
330
E
  0
VISUALSTYLE
  5
2F
102
{ACAD_REACTORS
330
2A
102
}
102
{ACAD_XDICTIONARY
360
61
102
}
330
2A
100
AcDbVisualStyle
  2
2dWireframe
 70
     4
 71
     0
 72
     2
 73
     0
 90
        0
 40
-0.6
 41
-30.0
 62
     5
 63
     7
421
 16777215
 74
     1
 91
        4
 64
     7
 65
   257
 75
     1
175
     1
 42
1.0
 92
        0
 66
   257
 43
1.0
 76
     1
 77
     6
 78
     2
 67
     7
 79
     5
170
     0
171
     0
290
     0
174
     0
 93
        1
 44
0.0
173
     0
291
     0
 45
0.0
  0
VISUALSTYLE
  5
31
102
{ACAD_REACTORS
330
2A
102
}
102
{ACAD_XDICTIONARY
360
65
102
}
330
2A
100
AcDbVisualStyle
  2
3D Hidden
 70
     6
 71
     1
 72
     2
 73
     2
 90
        0
 40
-0.6
 41
-30.0
 62
     5
 63
     7
421
 16777215
 74
     2
 91
        2
 64
     7
 65
   257
 75
     2
175
     1
 42
40.0
 92
        0
 66
   257
 43
1.0
 76
     1
 77
     6
 78
     2
 67
     7
 79
     3
170
     0
171
     0
290
     0
174
     0
 93
        1
 44
0.0
173
     0
291
     0
 45
0.0
  0
VISUALSTYLE
  5
30
102
{ACAD_REACTORS
330
2A
102
}
102
{ACAD_XDICTIONARY
360
63
102
}
330
2A
100
AcDbVisualStyle
  2
3dWireframe
 70
     5
 71
     0
 72
     2
 73
     0
 90
        0
 40
-0.6
 41
-30.0
 62
     5
 63
     7
421
 16777215
 74
     1
 91
        4
 64
     7
 65
   257
 75
     1
175
     1
 42
1.0
 92
        0
 66
   257
 43
1.0
 76
     1
 77
     6
 78
     2
 67
     7
 79
     5
170
     0
171
     0
290
     0
174
     0
 93
        1
 44
0.0
173
     0
291
     0
 45
0.0
  0
VISUALSTYLE
  5
32
102
{ACAD_REACTORS
330
2A
102
}
102
{ACAD_XDICTIONARY
360
67
102
}
330
2A
100
AcDbVisualStyle
  2
Basic
 70
     7
 71
     1
 72
     0
 73
     1
 90
        0
 40
-0.6
 41
-30.0
 62
     5
 63
     7
421
 16777215
 74
     0
 91
        4
 64
     7
 65
   257
 75
     1
175
     1
 42
1.0
 92
        8
 66
     7
 43
1.0
 76
     1
 77
     6
 78
     2
 67
     7
 79
     5
170
     0
171
     0
290
     0
174
     0
 93
        1
 44
0.0
173
     0
291
     1
 45
0.0
  0
VISUALSTYLE
  5
36
102
{ACAD_REACTORS
330
2A
102
}
102
{ACAD_XDICTIONARY
360
6F
102
}
330
2A
100
AcDbVisualStyle
  2
Brighten
 70
    12
 71
     2
 72
     2
 73
     0
 90
        0
 40
-0.6
 41
-30.0
 62
     5
 63
     7
421
 16777215
 74
     1
 91
        4
 64
     7
 65
   257
 75
     1
175
     1
 42
1.0
 92
        8
 66
     7
 43
1.0
 76
     1
 77
     6
 78
     2
 67
     7
 79
     5
170
     0
171
     0
290
     0
174
     0
 93
        1
 44
50.0
173
     0
291
     1
 45
0.0
  0
VISUALSTYLE
  5
3A
102
{ACAD_REACTORS
330
2A
102
}
102
{ACAD_XDICTIONARY
360
77
102
}
330
2A
100
AcDbVisualStyle
  2
ColorChange
 70
    16
 71
     2
 72
     2
 73
     3
 90
        0
 40
-0.6
 41
-30.0
 62
     5
 63
     8
421
  8421504
 74
     1
 91
        4
 64
     7
 65
   257
 75
     1
175
     1
 42
1.0
 92
        8
 66
     8
424
  8421504
 43
1.0
 76
     1
 77
     6
 78
     2
 67
     7
 79
     5
170
     0
171
     0
290
     0
174
     0
 93
        1
 44
0.0
173
     0
291
     1
 45
0.0
  0
VISUALSTYLE
  5
34
102
{ACAD_REACTORS
330
2A
102
}
102
{ACAD_XDICTIONARY
360
6B
102
}
330
2A
100
AcDbVisualStyle
  2
Conceptual
 70
     9
 71
     3
 72
     2
 73
     0
 90
        0
 40
-0.6
 41
-30.0
 62
     5
 63
     7
421
 16777215
 74
     2
 91
        2
 64
     7
 65
   257
 75
     1
175
     1
 42
40.0
 92
        8
 66
     7
 43
1.0
 76
     1
 77
     6
 78
     2
 67
     7
 79
     3
170
     0
171
     0
290
     0
174
     0
 93
        1
 44
0.0
173
     0
291
     0
 45
0.0
  0
VISUALSTYLE
  5
35
102
{ACAD_REACTORS
330
2A
102
}
102
{ACAD_XDICTIONARY
360
6D
102
}
330
2A
100
AcDbVisualStyle
  2
Dim
 70
    11
 71
     2
 72
     2
 73
     0
 90
        0
 40
-0.6
 41
-30.0
 62
     5
 63
     7
421
 16777215
 74
     1
 91
        4
 64
     7
 65
   257
 75
     1
175
     1
 42
1.0
 92
        8
 66
     7
 43
1.0
 76
     1
 77
     6
 78
     2
 67
     7
 79
     5
170
     0
171
     0
290
     0
174
     0
 93
        1
 44
-50.0
173
     0
291
     1
 45
0.0
  0
VISUALSTYLE
  5
39
102
{ACAD_REACTORS
330
2A
102
}
102
{ACAD_XDICTIONARY
360
75
102
}
330
2A
100
AcDbVisualStyle
  2
Facepattern
 70
    15
 71
     2
 72
     2
 73
     0
 90
        0
 40
-0.6
 41
-30.0
 62
     5
 63
     7
421
 16777215
 74
     1
 91
        4
 64
     7
 65
   257
 75
     1
175
     1
 42
1.0
 92
        8
 66
     7
 43
1.0
 76
     1
 77
     6
 78
     2
 67
     7
 79
     5
170
     0
171
     0
290
     0
174
     0
 93
        1
 44
0.0
173
     0
291
     1
 45
0.0
  0
VISUALSTYLE
  5
2B
102
{ACAD_REACTORS
330
2A
102
}
102
{ACAD_XDICTIONARY
360
59
102
}
330
2A
100
AcDbVisualStyle
  2
Flat
 70
     0
 71
     2
 72
     1
 73
     1
 90
        2
 40
-0.6
 41
30.0
 62
     5
 63
     7
421
 16777215
 74
     0
 91
        4
 64
     7
 65
   257
 75
     1
175
     1
 42
1.0
 92
        8
 66
     7
 43
1.0
 76
     1
 77
     6
 78
     2
 67
     7
 79
     5
170
     0
171
     0
290
     0
174
     0
 93
       13
 44
0.0
173
     0
291
     1
 45
0.0
  0
VISUALSTYLE
  5
2C
102
{ACAD_REACTORS
330
2A
102
}
102
{ACAD_XDICTIONARY
360
5B
102
}
330
2A
100
AcDbVisualStyle
  2
FlatWithEdges
 70
     1
 71
     2
 72
     1
 73
     1
 90
        2
 40
-0.6
 41
30.0
 62
     5
 63
     7
421
 16777215
 74
     1
 91
        4
 64
     7
 65
   257
 75
     1
175
     1
 42
1.0
 92
        0
 66
   257
 43
1.0
 76
     1
 77
     6
 78
     2
 67
     7
 79
     5
170
     0
171
     0
290
     0
174
     0
 93
       13
 44
0.0
173
     0
291
     1
 45
0.0
  0
VISUALSTYLE
  5
2D
102
{ACAD_REACTORS
330
2A
102
}
102
{ACAD_XDICTIONARY
360
5D
102
}
330
2A
100
AcDbVisualStyle
  2
Gouraud
 70
     2
 71
     2
 72
     2
 73
     1
 90
        2
 40
-0.6
 41
30.0
 62
     5
 63
     7
421
 16777215
 74
     0
 91
        4
 64
     7
 65
   257
 75
     1
175
     1
 42
1.0
 92
        0
 66
     7
 43
1.0
 76
     1
 77
     6
 78
     2
 67
     7
 79
     5
170
     0
171
     0
290
     0
174
     0
 93
       13
 44
0.0
173
     0
291
     1
 45
0.0
  0
VISUALSTYLE
  5
2E
102
{ACAD_REACTORS
330
2A
102
}
102
{ACAD_XDICTIONARY
360
5F
102
}
330
2A
100
AcDbVisualStyle
  2
GouraudWithEdges
 70
     3
 71
     2
 72
     2
 73
     1
 90
        2
 40
-0.6
 41
30.0
 62
     5
 63
     7
421
 16777215
 74
     1
 91
        4
 64
     7
 65
   257
 75
     1
175
     1
 42
1.0
 92
        0
 66
   257
 43
1.0
 76
     1
 77
     6
 78
     2
 67
     7
 79
     5
170
     0
171
     0
290
     0
174
     0
 93
       13
 44
0.0
173
     0
291
     1
 45
0.0
  0
VISUALSTYLE
  5
38
102
{ACAD_REACTORS
330
2A
102
}
102
{ACAD_XDICTIONARY
360
73
102
}
330
2A
100
AcDbVisualStyle
  2
Linepattern
 70
    14
 71
     2
 72
     2
 73
     0
 90
        0
 40
-0.6
 41
-30.0
 62
     5
 63
     7
421
 16777215
 74
     1
 91
        4
 64
     7
 65
   257
 75
     7
175
     7
 42
1.0
 92
        8
 66
     7
 43
1.0
 76
     1
 77
     6
 78
     2
 67
     7
 79
     5
170
     0
171
     0
290
     0
174
     0
 93
        1
 44
0.0
173
     0
291
     1
 45
0.0
  0
VISUALSTYLE
  5
33
102
{ACAD_REACTORS
330
2A
102
}
102
{ACAD_XDICTIONARY
360
69
102
}
330
2A
100
AcDbVisualStyle
  2
Realistic
 70
     8
 71
     2
 72
     2
 73
     0
 90
        0
 40
-0.6
 41
-30.0
 62
     5
 63
     7
421
 16777215
 74
     1
 91
        0
 64
     7
 65
   257
 75
     1
175
     1
 42
1.0
 92
        8
 66
     8
424
  7895160
 43
1.0
 76
     1
 77
     6
 78
     2
 67
     7
 79
     5
170
     0
171
     0
290
     0
174
     0
 93
       13
 44
0.0
173
     0
291
     0
 45
0.0
  0
VISUALSTYLE
  5
37
102
{ACAD_REACTORS
330
2A
102
}
102
{ACAD_XDICTIONARY
360
71
102
}
330
2A
100
AcDbVisualStyle
  2
Thicken
 70
    13
 71
     2
 72
     2
 73
     0
 90
        0
 40
-0.6
 41
-30.0
 62
     5
 63
     7
421
 16777215
 74
     1
 91
        4
 64
     7
 65
   257
 75
     1
175
     1
 42
1.0
 92
       12
 66
     7
 43
1.0
 76
     1
 77
     6
 78
     2
 67
     7
 79
     5
170
     0
171
     0
290
     0
174
     0
 93
        1
 44
0.0
173
     0
291
     1
 45
0.0
  0
DICTIONARY
  5
61
330
2F
100
AcDbDictionary
280
     1
281
     1
  3
ACAD_XREC_ROUNDTRIP
360
62
  0
DICTIONARY
  5
65
330
31
100
AcDbDictionary
280
     1
281
     1
  3
ACAD_XREC_ROUNDTRIP
360
66
  0
DICTIONARY
  5
63
330
30
100
AcDbDictionary
280
     1
281
     1
  3
ACAD_XREC_ROUNDTRIP
360
64
  0
DICTIONARY
  5
67
330
32
100
AcDbDictionary
280
     1
281
     1
  3
ACAD_XREC_ROUNDTRIP
360
68
  0
DICTIONARY
  5
6F
330
36
100
AcDbDictionary
280
     1
281
     1
  3
ACAD_XREC_ROUNDTRIP
360
70
  0
DICTIONARY
  5
77
330
3A
100
AcDbDictionary
280
     1
281
     1
  3
ACAD_XREC_ROUNDTRIP
360
78
  0
DICTIONARY
  5
6B
330
34
100
AcDbDictionary
280
     1
281
     1
  3
ACAD_XREC_ROUNDTRIP
360
6C
  0
DICTIONARY
  5
6D
330
35
100
AcDbDictionary
280
     1
281
     1
  3
ACAD_XREC_ROUNDTRIP
360
6E
  0
DICTIONARY
  5
75
330
39
100
AcDbDictionary
280
     1
281
     1
  3
ACAD_XREC_ROUNDTRIP
360
76
  0
DICTIONARY
  5
59
330
2B
100
AcDbDictionary
280
     1
281
     1
  3
ACAD_XREC_ROUNDTRIP
360
5A
  0
DICTIONARY
  5
5B
330
2C
100
AcDbDictionary
280
     1
281
     1
  3
ACAD_XREC_ROUNDTRIP
360
5C
  0
DICTIONARY
  5
5D
330
2D
100
AcDbDictionary
280
     1
281
     1
  3
ACAD_XREC_ROUNDTRIP
360
5E
  0
DICTIONARY
  5
5F
330
2E
100
AcDbDictionary
280
     1
281
     1
  3
ACAD_XREC_ROUNDTRIP
360
60
  0
DICTIONARY
  5
73
330
38
100
AcDbDictionary
280
     1
281
     1
  3
ACAD_XREC_ROUNDTRIP
360
74
  0
DICTIONARY
  5
69
330
33
100
AcDbDictionary
280
     1
281
     1
  3
ACAD_XREC_ROUNDTRIP
360
6A
  0
DICTIONARY
  5
71
330
37
100
AcDbDictionary
280
     1
281
     1
  3
ACAD_XREC_ROUNDTRIP
360
72
  0
XRECORD
  5
62
102
{ACAD_REACTORS
330
61
102
}
330
61
100
AcDbXrecord
280
     1
102
RTVSPropertyOp0
 70
     1
102
RTVSPropertyOp1
 70
     1
102
RTVSPropertyOp2
 70
     1
102
RTVSPropertyOp3
 70
     1
102
RTVSPropertyOp4
 70
     1
102
RTVSPropertyOp5
 70
     1
102
RTVSPropertyOp6
 70
     1
102
RTVSPropertyOp7
 70
     1
102
RTVSPropertyOp8
 70
     1
102
RTVSPropertyOp9
 70
     1
102
RTVSPropertyOp10
 70
     1
102
RTVSPropertyOp11
 70
     1
102
RTVSPropertyOp12
 70
     1
102
RTVSPropertyOp13
 70
     1
102
RTVSPropertyOp14
 70
     1
102
RTVSPropertyOp15
 70
     1
102
RTVSPropertyOp16
 70
     1
102
RTVSPropertyOp17
 70
     1
102
RTVSPropertyOp18
 70
     1
102
RTVSPropertyOp19
 70
     1
102
RTVSPropertyOp20
 70
     1
102
RTVSPropertyOp21
 70
     1
102
RTVSPropertyOp22
 70
     1
102
RTVSPropertyOp23
 70
     1
102
RTVSPropertyOp24
 70
     1
102
RTVSPropertyOp25
 70
     1
102
RTVSPropertyOp26
 70
     1
102
RTVSPropertyOp27
 70
     1
102
RTVSPropertyOp28
 70
     1
102
RTVSPropertyOp29
 70
     1
102
RTVSPropertyOp30
 70
     1
102
RTVSPropertyOp31
 70
     1
102
RTVSPropertyOp32
 70
     1
  0
XRECORD
  5
66
102
{ACAD_REACTORS
330
65
102
}
330
65
100
AcDbXrecord
280
     1
102
RTVSPropertyOp0
 70
     1
102
RTVSPropertyOp1
 70
     1
102
RTVSPropertyOp2
 70
     1
102
RTVSPropertyOp3
 70
     1
102
RTVSPropertyOp4
 70
     1
102
RTVSPropertyOp5
 70
     1
102
RTVSPropertyOp6
 70
     1
102
RTVSPropertyOp7
 70
     1
102
RTVSPropertyOp8
 70
     1
102
RTVSPropertyOp9
 70
     1
102
RTVSPropertyOp10
 70
     1
102
RTVSPropertyOp11
 70
     1
102
RTVSPropertyOp12
 70
     1
102
RTVSPropertyOp13
 70
     1
102
RTVSPropertyOp14
 70
     1
102
RTVSPropertyOp15
 70
     1
102
RTVSPropertyOp16
 70
     1
102
RTVSPropertyOp17
 70
     1
102
RTVSPropertyOp18
 70
     1
102
RTVSPropertyOp19
 70
     1
102
RTVSPropertyOp20
 70
     1
102
RTVSPropertyOp21
 70
     1
102
RTVSPropertyOp22
 70
     1
102
RTVSPropertyOp23
 70
     1
102
RTVSPropertyOp24
 70
     1
102
RTVSPropertyOp25
 70
     1
102
RTVSPropertyOp26
 70
     1
102
RTVSPropertyOp27
 70
     1
102
RTVSPropertyOp28
 70
     1
102
RTVSPropertyOp29
 70
     1
102
RTVSPropertyOp30
 70
     1
102
RTVSPropertyOp31
 70
     1
102
RTVSPropertyOp32
 70
     1
  0
XRECORD
  5
64
102
{ACAD_REACTORS
330
63
102
}
330
63
100
AcDbXrecord
280
     1
102
RTVSPropertyOp0
 70
     1
102
RTVSPropertyOp1
 70
     1
102
RTVSPropertyOp2
 70
     1
102
RTVSPropertyOp3
 70
     1
102
RTVSPropertyOp4
 70
     1
102
RTVSPropertyOp5
 70
     1
102
RTVSPropertyOp6
 70
     1
102
RTVSPropertyOp7
 70
     1
102
RTVSPropertyOp8
 70
     1
102
RTVSPropertyOp9
 70
     1
102
RTVSPropertyOp10
 70
     1
102
RTVSPropertyOp11
 70
     1
102
RTVSPropertyOp12
 70
     1
102
RTVSPropertyOp13
 70
     1
102
RTVSPropertyOp14
 70
     1
102
RTVSPropertyOp15
 70
     1
102
RTVSPropertyOp16
 70
     1
102
RTVSPropertyOp17
 70
     1
102
RTVSPropertyOp18
 70
     1
102
RTVSPropertyOp19
 70
     1
102
RTVSPropertyOp20
 70
     1
102
RTVSPropertyOp21
 70
     1
102
RTVSPropertyOp22
 70
     1
102
RTVSPropertyOp23
 70
     1
102
RTVSPropertyOp24
 70
     1
102
RTVSPropertyOp25
 70
     1
102
RTVSPropertyOp26
 70
     1
102
RTVSPropertyOp27
 70
     1
102
RTVSPropertyOp28
 70
     1
102
RTVSPropertyOp29
 70
     1
102
RTVSPropertyOp30
 70
     1
102
RTVSPropertyOp31
 70
     1
102
RTVSPropertyOp32
 70
     1
  0
XRECORD
  5
68
102
{ACAD_REACTORS
330
67
102
}
330
67
100
AcDbXrecord
280
     1
102
RTVSPropertyOp0
 70
     1
102
RTVSPropertyOp1
 70
     1
102
RTVSPropertyOp2
 70
     1
102
RTVSPropertyOp3
 70
     1
102
RTVSPropertyOp4
 70
     1
102
RTVSPropertyOp5
 70
     1
102
RTVSPropertyOp6
 70
     1
102
RTVSPropertyOp7
 70
     1
102
RTVSPropertyOp8
 70
     1
102
RTVSPropertyOp9
 70
     1
102
RTVSPropertyOp10
 70
     1
102
RTVSPropertyOp11
 70
     1
102
RTVSPropertyOp12
 70
     1
102
RTVSPropertyOp13
 70
     1
102
RTVSPropertyOp14
 70
     1
102
RTVSPropertyOp15
 70
     1
102
RTVSPropertyOp16
 70
     1
102
RTVSPropertyOp17
 70
     1
102
RTVSPropertyOp18
 70
     1
102
RTVSPropertyOp19
 70
     1
102
RTVSPropertyOp20
 70
     1
102
RTVSPropertyOp21
 70
     1
102
RTVSPropertyOp22
 70
     1
102
RTVSPropertyOp23
 70
     1
102
RTVSPropertyOp24
 70
     1
102
RTVSPropertyOp25
 70
     1
102
RTVSPropertyOp26
 70
     1
102
RTVSPropertyOp27
 70
     1
102
RTVSPropertyOp28
 70
     1
102
RTVSPropertyOp29
 70
     1
102
RTVSPropertyOp30
 70
     1
102
RTVSPropertyOp31
 70
     1
102
RTVSPropertyOp32
 70
     1
  0
XRECORD
  5
70
102
{ACAD_REACTORS
330
6F
102
}
330
6F
100
AcDbXrecord
280
     1
102
RTVSPropertyOp0
 70
     1
102
RTVSPropertyOp1
 70
     1
102
RTVSPropertyOp2
 70
     1
102
RTVSPropertyOp3
 70
     1
102
RTVSPropertyOp4
 70
     1
102
RTVSPropertyOp5
 70
     1
102
RTVSPropertyOp6
 70
     1
102
RTVSPropertyOp7
 70
     1
102
RTVSPropertyOp8
 70
     1
102
RTVSPropertyOp9
 70
     1
102
RTVSPropertyOp10
 70
     1
102
RTVSPropertyOp11
 70
     1
102
RTVSPropertyOp12
 70
     1
102
RTVSPropertyOp13
 70
     1
102
RTVSPropertyOp14
 70
     1
102
RTVSPropertyOp15
 70
     1
102
RTVSPropertyOp16
 70
     1
102
RTVSPropertyOp17
 70
     1
102
RTVSPropertyOp18
 70
     1
102
RTVSPropertyOp19
 70
     1
102
RTVSPropertyOp20
 70
     1
102
RTVSPropertyOp21
 70
     1
102
RTVSPropertyOp22
 70
     1
102
RTVSPropertyOp23
 70
     1
102
RTVSPropertyOp24
 70
     1
102
RTVSPropertyOp25
 70
     1
102
RTVSPropertyOp26
 70
     1
102
RTVSPropertyOp27
 70
     1
102
RTVSPropertyOp28
 70
     1
102
RTVSPropertyOp29
 70
     1
102
RTVSPropertyOp30
 70
     1
102
RTVSPropertyOp31
 70
     1
102
RTVSPropertyOp32
 70
     1
  0
XRECORD
  5
78
102
{ACAD_REACTORS
330
77
102
}
330
77
100
AcDbXrecord
280
     1
102
RTVSPropertyOp0
 70
     1
102
RTVSPropertyOp1
 70
     1
102
RTVSPropertyOp2
 70
     1
102
RTVSPropertyOp3
 70
     1
102
RTVSPropertyOp4
 70
     1
102
RTVSPropertyOp5
 70
     1
102
RTVSPropertyOp6
 70
     1
102
RTVSPropertyOp7
 70
     1
102
RTVSPropertyOp8
 70
     1
102
RTVSPropertyOp9
 70
     1
102
RTVSPropertyOp10
 70
     1
102
RTVSPropertyOp11
 70
     1
102
RTVSPropertyOp12
 70
     1
102
RTVSPropertyOp13
 70
     1
102
RTVSPropertyOp14
 70
     1
102
RTVSPropertyOp15
 70
     1
102
RTVSPropertyOp16
 70
     1
102
RTVSPropertyOp17
 70
     1
102
RTVSPropertyOp18
 70
     1
102
RTVSPropertyOp19
 70
     1
102
RTVSPropertyOp20
 70
     1
102
RTVSPropertyOp21
 70
     1
102
RTVSPropertyOp22
 70
     1
102
RTVSPropertyOp23
 70
     1
102
RTVSPropertyOp24
 70
     1
102
RTVSPropertyOp25
 70
     1
102
RTVSPropertyOp26
 70
     1
102
RTVSPropertyOp27
 70
     1
102
RTVSPropertyOp28
 70
     1
102
RTVSPropertyOp29
 70
     1
102
RTVSPropertyOp30
 70
     1
102
RTVSPropertyOp31
 70
     1
102
RTVSPropertyOp32
 70
     1
  0
XRECORD
  5
6C
102
{ACAD_REACTORS
330
6B
102
}
330
6B
100
AcDbXrecord
280
     1
102
RTVSPropertyOp0
 70
     1
102
RTVSPropertyOp1
 70
     1
102
RTVSPropertyOp2
 70
     1
102
RTVSPropertyOp3
 70
     1
102
RTVSPropertyOp4
 70
     1
102
RTVSPropertyOp5
 70
     1
102
RTVSPropertyOp6
 70
     1
102
RTVSPropertyOp7
 70
     1
102
RTVSPropertyOp8
 70
     1
102
RTVSPropertyOp9
 70
     1
102
RTVSPropertyOp10
 70
     1
102
RTVSPropertyOp11
 70
     1
102
RTVSPropertyOp12
 70
     1
102
RTVSPropertyOp13
 70
     1
102
RTVSPropertyOp14
 70
     1
102
RTVSPropertyOp15
 70
     1
102
RTVSPropertyOp16
 70
     1
102
RTVSPropertyOp17
 70
     1
102
RTVSPropertyOp18
 70
     1
102
RTVSPropertyOp19
 70
     1
102
RTVSPropertyOp20
 70
     1
102
RTVSPropertyOp21
 70
     1
102
RTVSPropertyOp22
 70
     1
102
RTVSPropertyOp23
 70
     1
102
RTVSPropertyOp24
 70
     1
102
RTVSPropertyOp25
 70
     1
102
RTVSPropertyOp26
 70
     1
102
RTVSPropertyOp27
 70
     1
102
RTVSPropertyOp28
 70
     1
102
RTVSPropertyOp29
 70
     1
102
RTVSPropertyOp30
 70
     1
102
RTVSPropertyOp31
 70
     1
102
RTVSPropertyOp32
 70
     1
  0
XRECORD
  5
6E
102
{ACAD_REACTORS
330
6D
102
}
330
6D
100
AcDbXrecord
280
     1
102
RTVSPropertyOp0
 70
     1
102
RTVSPropertyOp1
 70
     1
102
RTVSPropertyOp2
 70
     1
102
RTVSPropertyOp3
 70
     1
102
RTVSPropertyOp4
 70
     1
102
RTVSPropertyOp5
 70
     1
102
RTVSPropertyOp6
 70
     1
102
RTVSPropertyOp7
 70
     1
102
RTVSPropertyOp8
 70
     1
102
RTVSPropertyOp9
 70
     1
102
RTVSPropertyOp10
 70
     1
102
RTVSPropertyOp11
 70
     1
102
RTVSPropertyOp12
 70
     1
102
RTVSPropertyOp13
 70
     1
102
RTVSPropertyOp14
 70
     1
102
RTVSPropertyOp15
 70
     1
102
RTVSPropertyOp16
 70
     1
102
RTVSPropertyOp17
 70
     1
102
RTVSPropertyOp18
 70
     1
102
RTVSPropertyOp19
 70
     1
102
RTVSPropertyOp20
 70
     1
102
RTVSPropertyOp21
 70
     1
102
RTVSPropertyOp22
 70
     1
102
RTVSPropertyOp23
 70
     1
102
RTVSPropertyOp24
 70
     1
102
RTVSPropertyOp25
 70
     1
102
RTVSPropertyOp26
 70
     1
102
RTVSPropertyOp27
 70
     1
102
RTVSPropertyOp28
 70
     1
102
RTVSPropertyOp29
 70
     1
102
RTVSPropertyOp30
 70
     1
102
RTVSPropertyOp31
 70
     1
102
RTVSPropertyOp32
 70
     1
  0
XRECORD
  5
76
102
{ACAD_REACTORS
330
75
102
}
330
75
100
AcDbXrecord
280
     1
102
RTVSPropertyOp0
 70
     1
102
RTVSPropertyOp1
 70
     1
102
RTVSPropertyOp2
 70
     1
102
RTVSPropertyOp3
 70
     1
102
RTVSPropertyOp4
 70
     1
102
RTVSPropertyOp5
 70
     1
102
RTVSPropertyOp6
 70
     1
102
RTVSPropertyOp7
 70
     1
102
RTVSPropertyOp8
 70
     1
102
RTVSPropertyOp9
 70
     1
102
RTVSPropertyOp10
 70
     1
102
RTVSPropertyOp11
 70
     1
102
RTVSPropertyOp12
 70
     1
102
RTVSPropertyOp13
 70
     1
102
RTVSPropertyOp14
 70
     1
102
RTVSPropertyOp15
 70
     1
102
RTVSPropertyOp16
 70
     1
102
RTVSPropertyOp17
 70
     1
102
RTVSPropertyOp18
 70
     1
102
RTVSPropertyOp19
 70
     1
102
RTVSPropertyOp20
 70
     1
102
RTVSPropertyOp21
 70
     1
102
RTVSPropertyOp22
 70
     1
102
RTVSPropertyOp23
 70
     1
102
RTVSPropertyOp24
 70
     1
102
RTVSPropertyOp25
 70
     1
102
RTVSPropertyOp26
 70
     1
102
RTVSPropertyOp27
 70
     1
102
RTVSPropertyOp28
 70
     1
102
RTVSPropertyOp29
 70
     1
102
RTVSPropertyOp30
 70
     1
102
RTVSPropertyOp31
 70
     1
102
RTVSPropertyOp32
 70
     1
  0
XRECORD
  5
5A
102
{ACAD_REACTORS
330
59
102
}
330
59
100
AcDbXrecord
280
     1
102
RTVSPropertyOp0
 70
     1
102
RTVSPropertyOp1
 70
     1
102
RTVSPropertyOp2
 70
     1
102
RTVSPropertyOp3
 70
     1
102
RTVSPropertyOp4
 70
     1
102
RTVSPropertyOp5
 70
     1
102
RTVSPropertyOp6
 70
     1
102
RTVSPropertyOp7
 70
     1
102
RTVSPropertyOp8
 70
     1
102
RTVSPropertyOp9
 70
     1
102
RTVSPropertyOp10
 70
     1
102
RTVSPropertyOp11
 70
     1
102
RTVSPropertyOp12
 70
     1
102
RTVSPropertyOp13
 70
     1
102
RTVSPropertyOp14
 70
     1
102
RTVSPropertyOp15
 70
     1
102
RTVSPropertyOp16
 70
     1
102
RTVSPropertyOp17
 70
     1
102
RTVSPropertyOp18
 70
     1
102
RTVSPropertyOp19
 70
     1
102
RTVSPropertyOp20
 70
     1
102
RTVSPropertyOp21
 70
     1
102
RTVSPropertyOp22
 70
     1
102
RTVSPropertyOp23
 70
     1
102
RTVSPropertyOp24
 70
     1
102
RTVSPropertyOp25
 70
     1
102
RTVSPropertyOp26
 70
     1
102
RTVSPropertyOp27
 70
     1
102
RTVSPropertyOp28
 70
     1
102
RTVSPropertyOp29
 70
     1
102
RTVSPropertyOp30
 70
     1
102
RTVSPropertyOp31
 70
     1
102
RTVSPropertyOp32
 70
     1
  0
XRECORD
  5
5C
102
{ACAD_REACTORS
330
5B
102
}
330
5B
100
AcDbXrecord
280
     1
102
RTVSPropertyOp0
 70
     1
102
RTVSPropertyOp1
 70
     1
102
RTVSPropertyOp2
 70
     1
102
RTVSPropertyOp3
 70
     1
102
RTVSPropertyOp4
 70
     1
102
RTVSPropertyOp5
 70
     1
102
RTVSPropertyOp6
 70
     1
102
RTVSPropertyOp7
 70
     1
102
RTVSPropertyOp8
 70
     1
102
RTVSPropertyOp9
 70
     1
102
RTVSPropertyOp10
 70
     1
102
RTVSPropertyOp11
 70
     1
102
RTVSPropertyOp12
 70
     1
102
RTVSPropertyOp13
 70
     1
102
RTVSPropertyOp14
 70
     1
102
RTVSPropertyOp15
 70
     1
102
RTVSPropertyOp16
 70
     1
102
RTVSPropertyOp17
 70
     1
102
RTVSPropertyOp18
 70
     1
102
RTVSPropertyOp19
 70
     1
102
RTVSPropertyOp20
 70
     1
102
RTVSPropertyOp21
 70
     1
102
RTVSPropertyOp22
 70
     1
102
RTVSPropertyOp23
 70
     1
102
RTVSPropertyOp24
 70
     1
102
RTVSPropertyOp25
 70
     1
102
RTVSPropertyOp26
 70
     1
102
RTVSPropertyOp27
 70
     1
102
RTVSPropertyOp28
 70
     1
102
RTVSPropertyOp29
 70
     1
102
RTVSPropertyOp30
 70
     1
102
RTVSPropertyOp31
 70
     1
102
RTVSPropertyOp32
 70
     1
  0
XRECORD
  5
5E
102
{ACAD_REACTORS
330
5D
102
}
330
5D
100
AcDbXrecord
280
     1
102
RTVSPropertyOp0
 70
     1
102
RTVSPropertyOp1
 70
     1
102
RTVSPropertyOp2
 70
     1
102
RTVSPropertyOp3
 70
     1
102
RTVSPropertyOp4
 70
     1
102
RTVSPropertyOp5
 70
     1
102
RTVSPropertyOp6
 70
     1
102
RTVSPropertyOp7
 70
     1
102
RTVSPropertyOp8
 70
     1
102
RTVSPropertyOp9
 70
     1
102
RTVSPropertyOp10
 70
     1
102
RTVSPropertyOp11
 70
     1
102
RTVSPropertyOp12
 70
     1
102
RTVSPropertyOp13
 70
     1
102
RTVSPropertyOp14
 70
     1
102
RTVSPropertyOp15
 70
     1
102
RTVSPropertyOp16
 70
     1
102
RTVSPropertyOp17
 70
     1
102
RTVSPropertyOp18
 70
     1
102
RTVSPropertyOp19
 70
     1
102
RTVSPropertyOp20
 70
     1
102
RTVSPropertyOp21
 70
     1
102
RTVSPropertyOp22
 70
     1
102
RTVSPropertyOp23
 70
     1
102
RTVSPropertyOp24
 70
     1
102
RTVSPropertyOp25
 70
     1
102
RTVSPropertyOp26
 70
     1
102
RTVSPropertyOp27
 70
     1
102
RTVSPropertyOp28
 70
     1
102
RTVSPropertyOp29
 70
     1
102
RTVSPropertyOp30
 70
     1
102
RTVSPropertyOp31
 70
     1
102
RTVSPropertyOp32
 70
     1
  0
XRECORD
  5
60
102
{ACAD_REACTORS
330
5F
102
}
330
5F
100
AcDbXrecord
280
     1
102
RTVSPropertyOp0
 70
     1
102
RTVSPropertyOp1
 70
     1
102
RTVSPropertyOp2
 70
     1
102
RTVSPropertyOp3
 70
     1
102
RTVSPropertyOp4
 70
     1
102
RTVSPropertyOp5
 70
     1
102
RTVSPropertyOp6
 70
     1
102
RTVSPropertyOp7
 70
     1
102
RTVSPropertyOp8
 70
     1
102
RTVSPropertyOp9
 70
     1
102
RTVSPropertyOp10
 70
     1
102
RTVSPropertyOp11
 70
     1
102
RTVSPropertyOp12
 70
     1
102
RTVSPropertyOp13
 70
     1
102
RTVSPropertyOp14
 70
     1
102
RTVSPropertyOp15
 70
     1
102
RTVSPropertyOp16
 70
     1
102
RTVSPropertyOp17
 70
     1
102
RTVSPropertyOp18
 70
     1
102
RTVSPropertyOp19
 70
     1
102
RTVSPropertyOp20
 70
     1
102
RTVSPropertyOp21
 70
     1
102
RTVSPropertyOp22
 70
     1
102
RTVSPropertyOp23
 70
     1
102
RTVSPropertyOp24
 70
     1
102
RTVSPropertyOp25
 70
     1
102
RTVSPropertyOp26
 70
     1
102
RTVSPropertyOp27
 70
     1
102
RTVSPropertyOp28
 70
     1
102
RTVSPropertyOp29
 70
     1
102
RTVSPropertyOp30
 70
     1
102
RTVSPropertyOp31
 70
     1
102
RTVSPropertyOp32
 70
     1
  0
XRECORD
  5
74
102
{ACAD_REACTORS
330
73
102
}
330
73
100
AcDbXrecord
280
     1
102
RTVSPropertyOp0
 70
     1
102
RTVSPropertyOp1
 70
     1
102
RTVSPropertyOp2
 70
     1
102
RTVSPropertyOp3
 70
     1
102
RTVSPropertyOp4
 70
     1
102
RTVSPropertyOp5
 70
     1
102
RTVSPropertyOp6
 70
     1
102
RTVSPropertyOp7
 70
     1
102
RTVSPropertyOp8
 70
     1
102
RTVSPropertyOp9
 70
     1
102
RTVSPropertyOp10
 70
     1
102
RTVSPropertyOp11
 70
     1
102
RTVSPropertyOp12
 70
     1
102
RTVSPropertyOp13
 70
     1
102
RTVSPropertyOp14
 70
     1
102
RTVSPropertyOp15
 70
     1
102
RTVSPropertyOp16
 70
     1
102
RTVSPropertyOp17
 70
     1
102
RTVSPropertyOp18
 70
     1
102
RTVSPropertyOp19
 70
     1
102
RTVSPropertyOp20
 70
     1
102
RTVSPropertyOp21
 70
     1
102
RTVSPropertyOp22
 70
     1
102
RTVSPropertyOp23
 70
     1
102
RTVSPropertyOp24
 70
     1
102
RTVSPropertyOp25
 70
     1
102
RTVSPropertyOp26
 70
     1
102
RTVSPropertyOp27
 70
     1
102
RTVSPropertyOp28
 70
     1
102
RTVSPropertyOp29
 70
     1
102
RTVSPropertyOp30
 70
     1
102
RTVSPropertyOp31
 70
     1
102
RTVSPropertyOp32
 70
     1
  0
XRECORD
  5
6A
102
{ACAD_REACTORS
330
69
102
}
330
69
100
AcDbXrecord
280
     1
102
RTVSPropertyOp0
 70
     1
102
RTVSPropertyOp1
 70
     1
102
RTVSPropertyOp2
 70
     1
102
RTVSPropertyOp3
 70
     1
102
RTVSPropertyOp4
 70
     1
102
RTVSPropertyOp5
 70
     1
102
RTVSPropertyOp6
 70
     1
102
RTVSPropertyOp7
 70
     1
102
RTVSPropertyOp8
 70
     1
102
RTVSPropertyOp9
 70
     1
102
RTVSPropertyOp10
 70
     1
102
RTVSPropertyOp11
 70
     1
102
RTVSPropertyOp12
 70
     1
102
RTVSPropertyOp13
 70
     1
102
RTVSPropertyOp14
 70
     1
102
RTVSPropertyOp15
 70
     1
102
RTVSPropertyOp16
 70
     1
102
RTVSPropertyOp17
 70
     1
102
RTVSPropertyOp18
 70
     1
102
RTVSPropertyOp19
 70
     1
102
RTVSPropertyOp20
 70
     1
102
RTVSPropertyOp21
 70
     1
102
RTVSPropertyOp22
 70
     1
102
RTVSPropertyOp23
 70
     1
102
RTVSPropertyOp24
 70
     1
102
RTVSPropertyOp25
 70
     1
102
RTVSPropertyOp26
 70
     1
102
RTVSPropertyOp27
 70
     1
102
RTVSPropertyOp28
 70
     1
102
RTVSPropertyOp29
 70
     1
102
RTVSPropertyOp30
 70
     1
102
RTVSPropertyOp31
 70
     1
102
RTVSPropertyOp32
 70
     1
  0
XRECORD
  5
72
102
{ACAD_REACTORS
330
71
102
}
330
71
100
AcDbXrecord
280
     1
102
RTVSPropertyOp0
 70
     1
102
RTVSPropertyOp1
 70
     1
102
RTVSPropertyOp2
 70
     1
102
RTVSPropertyOp3
 70
     1
102
RTVSPropertyOp4
 70
     1
102
RTVSPropertyOp5
 70
     1
102
RTVSPropertyOp6
 70
     1
102
RTVSPropertyOp7
 70
     1
102
RTVSPropertyOp8
 70
     1
102
RTVSPropertyOp9
 70
     1
102
RTVSPropertyOp10
 70
     1
102
RTVSPropertyOp11
 70
     1
102
RTVSPropertyOp12
 70
     1
102
RTVSPropertyOp13
 70
     1
102
RTVSPropertyOp14
 70
     1
102
RTVSPropertyOp15
 70
     1
102
RTVSPropertyOp16
 70
     1
102
RTVSPropertyOp17
 70
     1
102
RTVSPropertyOp18
 70
     1
102
RTVSPropertyOp19
 70
     1
102
RTVSPropertyOp20
 70
     1
102
RTVSPropertyOp21
 70
     1
102
RTVSPropertyOp22
 70
     1
102
RTVSPropertyOp23
 70
     1
102
RTVSPropertyOp24
 70
     1
102
RTVSPropertyOp25
 70
     1
102
RTVSPropertyOp26
 70
     1
102
RTVSPropertyOp27
 70
     1
102
RTVSPropertyOp28
 70
     1
102
RTVSPropertyOp29
 70
     1
102
RTVSPropertyOp30
 70
     1
102
RTVSPropertyOp31
 70
     1
102
RTVSPropertyOp32
 70
     1
  0
ENDSEC
  0
EOF
