<?xml version="1.0" encoding="UTF-8"?>
<!DOCTYPE svg PUBLIC "-//W3C//DTD SVG 1.1//EN" "http://www.w3.org/Graphics/SVG/1.1/DTD/svg11.dtd">
<!-- Creator: CorelDRAW X6 -->
<svg xmlns="http://www.w3.org/2000/svg" xml:space="preserve" width="200mm" height="200mm" version="1.1" shape-rendering="geometricPrecision" text-rendering="geometricPrecision" image-rendering="optimizeQuality" fill-rule="evenodd" clip-rule="evenodd"
viewBox="0 0 20000 20000"
 xmlns:xlink="http://www.w3.org/1999/xlink">
 <g id="Layer_x0020_1">
  <metadata id="CorelCorpID_0Corel-Layer"/>
  <g id="_825501472">
   <circle fill="none" stroke="black" stroke-width="52.92" stroke-linecap="round" stroke-linejoin="round" transform="matrix(1.50148E-014 -0.566926 0.566926 1.50148E-014 9750 8750)" r="529"/>
   <circle fill="none" stroke="black" stroke-width="52.92" stroke-linecap="round" stroke-linejoin="round" transform="matrix(1.50148E-014 -0.566926 0.566926 1.50148E-014 11250 8750)" r="529"/>
   <line fill="none" fill-rule="nonzero" stroke="blue" stroke-width="52.92" stroke-linecap="round" stroke-linejoin="round" x1="8206" y1="9650" x2="9177" y2= "9650" />
   <line fill="none" fill-rule="nonzero" stroke="blue" stroke-width="52.92" stroke-linecap="round" stroke-linejoin="round" x1="8492" y1="12208" x2="6263" y2= "12208" />
   <line fill="none" fill-rule="nonzero" stroke="blue" stroke-width="52.92" stroke-linecap="round" stroke-linejoin="round" x1="7433" y1="10708" x2="9551" y2= "10708" />
   <line fill="none" fill-rule="nonzero" stroke="blue" stroke-width="52.92" stroke-linecap="round" stroke-linejoin="round" x1="9551" y1="11480" x2="8829" y2= "11480" />
   <path fill="none" fill-rule="nonzero" stroke="blue" stroke-width="52.92" stroke-linecap="round" stroke-linejoin="round" d="M8829 11480c-187,0 -338,151 -338,338"/>
   <polyline fill="none" fill-rule="nonzero" stroke="blue" stroke-width="52.92" stroke-linecap="round" stroke-linejoin="round" points="8492,11818 8492,12208 9551,12208 9551,11480 "/>
   <line fill="none" fill-rule="nonzero" stroke="blue" stroke-width="52.92" stroke-linecap="round" stroke-linejoin="round" x1="7433" y1="10025" x2="9551" y2= "10025" />
   <line fill="none" fill-rule="nonzero" stroke="blue" stroke-width="52.92" stroke-linecap="round" stroke-linejoin="round" x1="8367" y1="12655" x2="9501" y2= "12655" />
   <path fill="none" fill-rule="nonzero" stroke="blue" stroke-width="52.92" stroke-linecap="round" stroke-linejoin="round" d="M8684 12894c-10,10 -146,162 -146,162"/>
   <polyline fill="none" fill-rule="nonzero" stroke="blue" stroke-width="52.92" stroke-linecap="round" stroke-linejoin="round" points="8538,13056 8684,13056 8538,13324 8720,13258 8629,13598 8833,13449 8892,13694 8982,13446 9170,13645 9137,13282 9289,13369 9130,12963 9365,13029 9273,12871 "/>
   <line fill="none" fill-rule="nonzero" stroke="blue" stroke-width="52.92" stroke-linecap="round" stroke-linejoin="round" x1="10933" y1="12194" x2="13162" y2= "12194" />
   <line fill="none" fill-rule="nonzero" stroke="blue" stroke-width="52.92" stroke-linecap="round" stroke-linejoin="round" x1="11992" y1="10694" x2="9874" y2= "10694" />
   <line fill="none" fill-rule="nonzero" stroke="blue" stroke-width="52.92" stroke-linecap="round" stroke-linejoin="round" x1="9874" y1="11466" x2="10595" y2= "11466" />
   <path fill="none" fill-rule="nonzero" stroke="blue" stroke-width="52.92" stroke-linecap="round" stroke-linejoin="round" d="M10595 11466c187,0 338,151 338,338"/>
   <polyline fill="none" fill-rule="nonzero" stroke="blue" stroke-width="52.92" stroke-linecap="round" stroke-linejoin="round" points="10933,11804 10933,12194 9874,12194 9874,11466 "/>
   <line fill="none" fill-rule="nonzero" stroke="blue" stroke-width="52.92" stroke-linecap="round" stroke-linejoin="round" x1="11992" y1="10011" x2="9874" y2= "10011" />
   <line fill="none" fill-rule="nonzero" stroke="blue" stroke-width="52.92" stroke-linecap="round" stroke-linejoin="round" x1="11058" y1="12640" x2="9924" y2= "12640" />
   <path fill="none" fill-rule="nonzero" stroke="blue" stroke-width="52.92" stroke-linecap="round" stroke-linejoin="round" d="M10741 12879c10,10 146,162 146,162"/>
   <polyline fill="none" fill-rule="nonzero" stroke="blue" stroke-width="52.92" stroke-linecap="round" stroke-linejoin="round" points="10886,13041 10741,13041 10886,13309 10704,13243 10795,13584 10592,13435 10532,13680 10443,13432 10255,13630 10288,13268 10136,13355 10294,12949 10059,13015 10152,12856 "/>
   <path fill="none" stroke="black" stroke-width="52.92" stroke-linecap="round" stroke-linejoin="round" d="M11450 9450l-133 0 0 188 300 -3c207,0 375,168 375,375l0 683 420 0c414,0 750,336 750,750l0 750 0 227 -2141 0 90 433 -160 0c72,125 212,368 204,363 -10,-7 -246,-69 -246,-69l197 433 -264 -146 157 450 -336 -238 -145 460 -137 -473 -241 248 31 -473 -233 103 205 -440 -272 89 161 -307 -169 0 90 -433 -78 0 0 -227 0 -2183c0,-206 166,-373 371,-375l102 -1 0 -185 -1168 0 0 200c206,2 371,169 371,375l0 2183 0 227 -78 0 90 433 -169 0 161 307 -272 -89 205 440 -233 -103 31 473 -241 -248 -137 473 -145 -460 -336 238 157 -450 -264 146 197 -433c0,0 -236,63 -246,69 -8,5 132,-238 204,-363l-160 0 90 -433 -2141 0 0 -227 0 -750c0,-414 336,-750 750,-750l420 0 0 -683c0,-207 168,-375 375,-375l397 0 0 -200 -154 0c-276,0 -500,-224 -500,-500l0 -400c0,-276 224,-500 500,-500l3400 0c276,0 500,224 500,500l0 400c0,276 -224,500 -500,500z"/>
   <line fill="none" stroke="blue" stroke-width="52.92" stroke-linecap="round" stroke-linejoin="round" x1="10347" y1="9635" x2="11317" y2= "9638" />
   <line fill="none" stroke="blue" stroke-width="52.92" stroke-linecap="round" stroke-linejoin="round" x1="10031" y1="12854" x2="10951" y2= "12854" />
   <line fill="none" stroke="blue" stroke-width="52.92" stroke-linecap="round" stroke-linejoin="round" x1="8474" y1="12868" x2="9393" y2= "12868" />
   <circle fill="none" stroke="black" stroke-width="52.92" stroke-linecap="round" stroke-linejoin="round" transform="matrix(1.50148E-014 -0.566926 0.566926 1.50148E-014 8250 8750)" r="529"/>
  </g>
  <circle fill="none" stroke="black" stroke-width="52.92" stroke-linecap="round" stroke-linejoin="round" transform="matrix(7.50738E-015 -0.283463 0.283463 7.50738E-015 9000 8750)" r="529"/>
  <circle fill="none" stroke="black" stroke-width="52.92" stroke-linecap="round" stroke-linejoin="round" transform="matrix(7.50738E-015 -0.283463 0.283463 7.50738E-015 10500 8750)" r="529"/>
 </g>
</svg>
