<?xml version="1.0" encoding="UTF-8"?>
<!DOCTYPE svg PUBLIC "-//W3C//DTD SVG 1.1//EN" "http://www.w3.org/Graphics/SVG/1.1/DTD/svg11.dtd">
<!-- Creator: CorelDRAW X6 -->
<svg xmlns="http://www.w3.org/2000/svg" xml:space="preserve" width="200mm" height="200mm" version="1.1" shape-rendering="geometricPrecision" text-rendering="geometricPrecision" image-rendering="optimizeQuality" fill-rule="evenodd" clip-rule="evenodd"
viewBox="0 0 20000 20000"
 xmlns:xlink="http://www.w3.org/1999/xlink">
 <g id="Layer_x0020_1">
  <metadata id="CorelCorpID_0Corel-Layer"/>
  <g id="_873101936">
   <circle fill="none" stroke="black" stroke-width="52.92" stroke-linecap="round" stroke-linejoin="round" transform="matrix(1.6266E-014 -0.614169 0.614169 1.6266E-014 0.02 20000)" r="529"/>
   <circle fill="none" stroke="black" stroke-width="52.92" stroke-linecap="round" stroke-linejoin="round" transform="matrix(1.6266E-014 -0.614169 0.614169 1.6266E-014 1500.02 20000)" r="529"/>
   <line fill="none" fill-rule="nonzero" stroke="blue" stroke-width="52.92" stroke-linecap="round" stroke-linejoin="round" x1="-1544" y1="20900" x2="-573" y2= "20900" />
   <line fill="none" fill-rule="nonzero" stroke="blue" stroke-width="52.92" stroke-linecap="round" stroke-linejoin="round" x1="-1258" y1="23458" x2="-3487" y2= "23458" />
   <line fill="none" fill-rule="nonzero" stroke="blue" stroke-width="52.92" stroke-linecap="round" stroke-linejoin="round" x1="-2317" y1="21958" x2="-199" y2= "21958" />
   <line fill="none" fill-rule="nonzero" stroke="blue" stroke-width="52.92" stroke-linecap="round" stroke-linejoin="round" x1="-199" y1="22730" x2="-921" y2= "22730" />
   <path fill="none" fill-rule="nonzero" stroke="blue" stroke-width="52.92" stroke-linecap="round" stroke-linejoin="round" d="M-921 22730c-187,0 -338,151 -338,338"/>
   <polyline fill="none" fill-rule="nonzero" stroke="blue" stroke-width="52.92" stroke-linecap="round" stroke-linejoin="round" points="-1258,23068 -1258,23458 -199,23458 -199,22730 "/>
   <line fill="none" fill-rule="nonzero" stroke="blue" stroke-width="52.92" stroke-linecap="round" stroke-linejoin="round" x1="-2317" y1="21275" x2="-199" y2= "21275" />
   <line fill="none" fill-rule="nonzero" stroke="blue" stroke-width="52.92" stroke-linecap="round" stroke-linejoin="round" x1="-1383" y1="23905" x2="-249" y2= "23905" />
   <path fill="none" fill-rule="nonzero" stroke="blue" stroke-width="52.92" stroke-linecap="round" stroke-linejoin="round" d="M-1066 24144c-10,10 -146,162 -146,162"/>
   <polyline fill="none" fill-rule="nonzero" stroke="blue" stroke-width="52.92" stroke-linecap="round" stroke-linejoin="round" points="-1212,24306 -1066,24306 -1212,24574 -1030,24508 -1121,24848 -917,24699 -858,24944 -768,24696 -580,24895 -613,24532 -461,24619 -620,24213 -385,24279 -477,24121 "/>
   <line fill="none" fill-rule="nonzero" stroke="blue" stroke-width="52.92" stroke-linecap="round" stroke-linejoin="round" x1="1183" y1="23444" x2="3412" y2= "23444" />
   <line fill="none" fill-rule="nonzero" stroke="blue" stroke-width="52.92" stroke-linecap="round" stroke-linejoin="round" x1="2242" y1="21944" x2="124" y2= "21944" />
   <line fill="none" fill-rule="nonzero" stroke="blue" stroke-width="52.92" stroke-linecap="round" stroke-linejoin="round" x1="124" y1="22716" x2="845" y2= "22716" />
   <path fill="none" fill-rule="nonzero" stroke="blue" stroke-width="52.92" stroke-linecap="round" stroke-linejoin="round" d="M845 22716c187,0 338,151 338,338"/>
   <polyline fill="none" fill-rule="nonzero" stroke="blue" stroke-width="52.92" stroke-linecap="round" stroke-linejoin="round" points="1183,23054 1183,23444 124,23444 124,22716 "/>
   <line fill="none" fill-rule="nonzero" stroke="blue" stroke-width="52.92" stroke-linecap="round" stroke-linejoin="round" x1="2242" y1="21261" x2="124" y2= "21261" />
   <line fill="none" fill-rule="nonzero" stroke="blue" stroke-width="52.92" stroke-linecap="round" stroke-linejoin="round" x1="1308" y1="23890" x2="174" y2= "23890" />
   <path fill="none" fill-rule="nonzero" stroke="blue" stroke-width="52.92" stroke-linecap="round" stroke-linejoin="round" d="M991 24129c10,10 146,162 146,162"/>
   <polyline fill="none" fill-rule="nonzero" stroke="blue" stroke-width="52.92" stroke-linecap="round" stroke-linejoin="round" points="1136,24291 991,24291 1136,24559 954,24493 1045,24834 842,24685 782,24930 693,24682 505,24880 538,24518 386,24605 544,24199 309,24265 402,24106 "/>
   <path fill="none" stroke="black" stroke-width="52.92" stroke-linecap="round" stroke-linejoin="round" d="M1700 20700l-133 0 0 188 300 -3c207,0 375,168 375,375l0 683 420 0c414,0 750,336 750,750l0 750 0 227 -2141 0 90 433 -160 0c72,125 212,368 204,363 -10,-7 -246,-69 -246,-69l197 433 -264 -146 157 450 -336 -238 -145 460 -137 -473 -241 248 31 -473 -233 103 205 -440 -272 89 161 -307 -169 0 90 -433 -78 0 0 -227 0 -2183c0,-206 166,-373 371,-375l102 -1 0 -185 -1168 0 0 200c206,2 371,169 371,375l0 2183 0 227 -78 0 90 433 -169 0 161 307 -272 -89 205 440 -233 -103 31 473 -241 -248 -137 473 -145 -460 -336 238 157 -450 -264 146 197 -433c0,0 -236,63 -246,69 -8,5 132,-238 204,-363l-160 0 90 -433 -2141 0 0 -227 0 -750c0,-414 336,-750 750,-750l420 0 0 -683c0,-207 168,-375 375,-375l397 0 0 -200 -154 0c-276,0 -500,-224 -500,-500l0 -400c0,-276 224,-500 500,-500l3400 0c276,0 500,224 500,500l0 400c0,276 -224,500 -500,500z"/>
   <line fill="none" stroke="blue" stroke-width="52.92" stroke-linecap="round" stroke-linejoin="round" x1="597" y1="20885" x2="1567" y2= "20888" />
   <line fill="none" stroke="blue" stroke-width="52.92" stroke-linecap="round" stroke-linejoin="round" x1="281" y1="24104" x2="1201" y2= "24104" />
   <line fill="none" stroke="blue" stroke-width="52.92" stroke-linecap="round" stroke-linejoin="round" x1="-1276" y1="24118" x2="-357" y2= "24118" />
   <circle fill="none" stroke="black" stroke-width="52.92" stroke-linecap="round" stroke-linejoin="round" transform="matrix(1.6266E-014 -0.614169 0.614169 1.6266E-014 -1499.98 20000)" r="529"/>
  </g>
  <circle fill="none" stroke="black" stroke-width="52.92" stroke-linecap="round" stroke-linejoin="round" transform="matrix(9.00886E-015 -0.340155 0.340155 9.00886E-015 -749.98 20000)" r="529"/>
  <circle fill="none" stroke="black" stroke-width="52.92" stroke-linecap="round" stroke-linejoin="round" transform="matrix(9.00886E-015 -0.340155 0.340155 9.00886E-015 750.02 20000)" r="529"/>
 </g>
</svg>
