  0
SECTION
  2
HEADER
  9
$ACADVER
  1
AC1021
  9
$ACADMAINTVER
 70
    25
  9
$DWGCODEPAGE
  3
ANSI_1252
  9
$INSBASE
 10
0.0
 20
0.0
 30
0.0
  9
$EXTMIN
 10
-14.67812
 20
-11.17177
 30
0.0
  9
$EXTMAX
 10
-5.32184
 20
-8.76296
 30
0.0
  9
$LIMMIN
 10
0.0
 20
0.0
  9
$LIMMAX
 10
12.0
 20
9.0
  9
$ORTHOMODE
 70
     0
  9
$REGENMODE
 70
     1
  9
$FILLMODE
 70
     1
  9
$QTEXTMODE
 70
     0
  9
$MIRRTEXT
 70
     1
  9
$LTSCALE
 40
1.0
  9
$ATTMODE
 70
     1
  9
$TEXTSIZE
 40
0.2
  9
$TRACEWID
 40
0.05
  9
$TEXTSTYLE
  7
Standard
  9
$CLAYER
  8
0
  9
$CELTYPE
  6
ByLayer
  9
$CECOLOR
 62
   256
  9
$CELTSCALE
 40
1.0
  9
$DISPSILH
 70
     0
  9
$DIMSCALE
 40
1.0
  9
$DIMASZ
 40
0.18
  9
$DIMEXO
 40
0.0625
  9
$DIMDLI
 40
0.38
  9
$DIMRND
 40
0.0
  9
$DIMDLE
 40
0.0
  9
$DIMEXE
 40
0.18
  9
$DIMTP
 40
0.0
  9
$DIMTM
 40
0.0
  9
$DIMTXT
 40
0.18
  9
$DIMCEN
 40
0.09
  9
$DIMTSZ
 40
0.0
  9
$DIMTOL
 70
     0
  9
$DIMLIM
 70
     0
  9
$DIMTIH
 70
     1
  9
$DIMTOH
 70
     1
  9
$DIMSE1
 70
     0
  9
$DIMSE2
 70
     0
  9
$DIMTAD
 70
     0
  9
$DIMZIN
 70
     0
  9
$DIMBLK
  1

  9
$DIMASO
 70
     1
  9
$DIMSHO
 70
     1
  9
$DIMPOST
  1

  9
$DIMAPOST
  1

  9
$DIMALT
 70
     0
  9
$DIMALTD
 70
     2
  9
$DIMALTF
 40
25.4
  9
$DIMLFAC
 40
1.0
  9
$DIMTOFL
 70
     0
  9
$DIMTVP
 40
0.0
  9
$DIMTIX
 70
     0
  9
$DIMSOXD
 70
     0
  9
$DIMSAH
 70
     0
  9
$DIMBLK1
  1

  9
$DIMBLK2
  1

  9
$DIMSTYLE
  2
Standard
  9
$DIMCLRD
 70
     0
  9
$DIMCLRE
 70
     0
  9
$DIMCLRT
 70
     0
  9
$DIMTFAC
 40
1.0
  9
$DIMGAP
 40
0.09
  9
$DIMJUST
 70
     0
  9
$DIMSD1
 70
     0
  9
$DIMSD2
 70
     0
  9
$DIMTOLJ
 70
     1
  9
$DIMTZIN
 70
     0
  9
$DIMALTZ
 70
     0
  9
$DIMALTTZ
 70
     0
  9
$DIMUPT
 70
     0
  9
$DIMDEC
 70
     4
  9
$DIMTDEC
 70
     4
  9
$DIMALTU
 70
     2
  9
$DIMALTTD
 70
     2
  9
$DIMTXSTY
  7
Standard
  9
$DIMAUNIT
 70
     0
  9
$DIMADEC
 70
     0
  9
$DIMALTRND
 40
0.0
  9
$DIMAZIN
 70
     0
  9
$DIMDSEP
 70
    46
  9
$DIMATFIT
 70
     3
  9
$DIMFRAC
 70
     0
  9
$DIMLDRBLK
  1

  9
$DIMLUNIT
 70
     2
  9
$DIMLWD
 70
    -2
  9
$DIMLWE
 70
    -2
  9
$DIMTMOVE
 70
     0
  9
$DIMFXL
 40
1.0
  9
$DIMFXLON
 70
     0
  9
$DIMJOGANG
 40
0.7853981633974483
  9
$DIMTFILL
 70
     0
  9
$DIMTFILLCLR
 70
     0
  9
$DIMARCSYM
 70
     0
  9
$DIMLTYPE
  6

  9
$DIMLTEX1
  6

  9
$DIMLTEX2
  6

  9
$LUNITS
 70
     2
  9
$LUPREC
 70
     4
  9
$SKETCHINC
 40
0.1
  9
$FILLETRAD
 40
0.5
  9
$AUNITS
 70
     0
  9
$AUPREC
 70
     0
  9
$MENU
  1
.
  9
$ELEVATION
 40
0.0
  9
$PELEVATION
 40
0.0
  9
$THICKNESS
 40
0.0
  9
$LIMCHECK
 70
     0
  9
$CHAMFERA
 40
0.5
  9
$CHAMFERB
 40
0.5
  9
$CHAMFERC
 40
1.0
  9
$CHAMFERD
 40
0.0
  9
$SKPOLY
 70
     0
  9
$TDCREATE
 40
2460554.758170787
  9
$TDUCREATE
 40
2460554.71650412
  9
$TDUPDATE
 40
2460554.75817081
  9
$TDUUPDATE
 40
2460554.716504144
  9
$TDINDWG
 40
0.0000000116
  9
$TDUSRTIMER
 40
0.0000000116
  9
$USRTIMER
 70
     1
  9
$ANGBASE
 50
0.0
  9
$ANGDIR
 70
     0
  9
$PDMODE
 70
     0
  9
$PDSIZE
 40
0.0
  9
$PLINEWID
 40
0.0
  9
$SPLFRAME
 70
     0
  9
$SPLINETYPE
 70
     6
  9
$SPLINESEGS
 70
     8
  9
$HANDSEED
  5
69
  9
$SURFTAB1
 70
     6
  9
$SURFTAB2
 70
     6
  9
$SURFTYPE
 70
     6
  9
$SURFU
 70
     6
  9
$SURFV
 70
     6
  9
$UCSBASE
  2

  9
$UCSNAME
  2

  9
$UCSORG
 10
0.0
 20
0.0
 30
0.0
  9
$UCSXDIR
 10
1.0
 20
0.0
 30
0.0
  9
$UCSYDIR
 10
0.0
 20
1.0
 30
0.0
  9
$UCSORTHOREF
  2

  9
$UCSORTHOVIEW
 70
     0
  9
$UCSORGTOP
 10
0.0
 20
0.0
 30
0.0
  9
$UCSORGBOTTOM
 10
0.0
 20
0.0
 30
0.0
  9
$UCSORGLEFT
 10
0.0
 20
0.0
 30
0.0
  9
$UCSORGRIGHT
 10
0.0
 20
0.0
 30
0.0
  9
$UCSORGFRONT
 10
0.0
 20
0.0
 30
0.0
  9
$UCSORGBACK
 10
0.0
 20
0.0
 30
0.0
  9
$PUCSBASE
  2

  9
$PUCSNAME
  2

  9
$PUCSORG
 10
0.0
 20
0.0
 30
0.0
  9
$PUCSXDIR
 10
1.0
 20
0.0
 30
0.0
  9
$PUCSYDIR
 10
0.0
 20
1.0
 30
0.0
  9
$PUCSORTHOREF
  2

  9
$PUCSORTHOVIEW
 70
     0
  9
$PUCSORGTOP
 10
0.0
 20
0.0
 30
0.0
  9
$PUCSORGBOTTOM
 10
0.0
 20
0.0
 30
0.0
  9
$PUCSORGLEFT
 10
0.0
 20
0.0
 30
0.0
  9
$PUCSORGRIGHT
 10
0.0
 20
0.0
 30
0.0
  9
$PUCSORGFRONT
 10
0.0
 20
0.0
 30
0.0
  9
$PUCSORGBACK
 10
0.0
 20
0.0
 30
0.0
  9
$USERI1
 70
     0
  9
$USERI2
 70
     0
  9
$USERI3
 70
     0
  9
$USERI4
 70
     0
  9
$USERI5
 70
     0
  9
$USERR1
 40
0.0
  9
$USERR2
 40
0.0
  9
$USERR3
 40
0.0
  9
$USERR4
 40
0.0
  9
$USERR5
 40
0.0
  9
$WORLDVIEW
 70
     1
  9
$SHADEDGE
 70
     3
  9
$SHADEDIF
 70
    70
  9
$TILEMODE
 70
     1
  9
$MAXACTVP
 70
    64
  9
$PINSBASE
 10
0.0
 20
0.0
 30
0.0
  9
$PLIMCHECK
 70
     0
  9
$PEXTMIN
 10
1.000000000000000E+20
 20
1.000000000000000E+20
 30
1.000000000000000E+20
  9
$PEXTMAX
 10
-1.000000000000000E+20
 20
-1.000000000000000E+20
 30
-1.000000000000000E+20
  9
$PLIMMIN
 10
0.0
 20
0.0
  9
$PLIMMAX
 10
12.0
 20
9.0
  9
$UNITMODE
 70
     0
  9
$VISRETAIN
 70
     1
  9
$PLINEGEN
 70
     0
  9
$PSLTSCALE
 70
     1
  9
$TREEDEPTH
 70
  3020
  9
$CMLSTYLE
  2
Standard
  9
$CMLJUST
 70
     0
  9
$CMLSCALE
 40
1.0
  9
$PROXYGRAPHICS
 70
     1
  9
$MEASUREMENT
 70
     0
  9
$CELWEIGHT
370
    -1
  9
$ENDCAPS
280
     0
  9
$JOINSTYLE
280
     0
  9
$LWDISPLAY
290
     0
  9
$INSUNITS
 70
     5
  9
$HYPERLINKBASE
  1

  9
$STYLESHEET
  1

  9
$XEDIT
290
     1
  9
$CEPSNTYPE
380
     0
  9
$PSTYLEMODE
290
     1
  9
$FINGERPRINTGUID
  2
{7825E96E-FF59-478D-A8AC-659E34602C6F}
  9
$VERSIONGUID
  2
{FAEB1C32-E019-11D5-929B-00C0DF256EC4}
  9
$EXTNAMES
290
     1
  9
$PSVPSCALE
 40
0.0
  9
$OLESTARTUP
290
     0
  9
$SORTENTS
280
   127
  9
$INDEXCTL
280
     0
  9
$HIDETEXT
280
     1
  9
$XCLIPFRAME
290
     0
  9
$HALOGAP
280
     0
  9
$OBSCOLOR
 70
   257
  9
$OBSLTYPE
280
     0
  9
$INTERSECTIONDISPLAY
280
     0
  9
$INTERSECTIONCOLOR
 70
   257
  9
$DIMASSOC
280
     2
  9
$PROJECTNAME
  1

  9
$CAMERADISPLAY
290
     0
  9
$LENSLENGTH
 40
50.0
  9
$CAMERAHEIGHT
 40
0.0
  9
$STEPSPERSEC
 40
2.0
  9
$STEPSIZE
 40
6.0
  9
$3DDWFPREC
 40
2.0
  9
$PSOLWIDTH
 40
0.25
  9
$PSOLHEIGHT
 40
4.0
  9
$LOFTANG1
 40
1.570796326794897
  9
$LOFTANG2
 40
1.570796326794897
  9
$LOFTMAG1
 40
0.0
  9
$LOFTMAG2
 40
0.0
  9
$LOFTPARAM
 70
     7
  9
$LOFTNORMALS
280
     1
  9
$LATITUDE
 40
37.795
  9
$LONGITUDE
 40
-122.394
  9
$NORTHDIRECTION
 40
0.0
  9
$TIMEZONE
 70
 -8000
  9
$LIGHTGLYPHDISPLAY
280
     1
  9
$TILEMODELIGHTSYNCH
280
     1
  9
$SOLIDHIST
280
     1
  9
$SHOWHIST
280
     1
  9
$DWFFRAME
280
     2
  9
$DGNFRAME
280
     2
  9
$REALWORLDSCALE
290
     1
  9
$INTERFERECOLOR
 62
   256
  9
$CSHADOW
280
     0
  9
$SHADOWPLANELOCATION
 40
0.0
  0
ENDSEC
  0
SECTION
  2
CLASSES
  0
CLASS
  1
ACDBDICTIONARYWDFLT
  2
AcDbDictionaryWithDefault
  3
ObjectDBX Classes
 90
        0
 91
        4
280
     0
281
     0
  0
CLASS
  1
VISUALSTYLE
  2
AcDbVisualStyle
  3
ObjectDBX Classes
 90
     4095
 91
        4
280
     0
281
     0
  0
CLASS
  1
MATERIAL
  2
AcDbMaterial
  3
ObjectDBX Classes
 90
     1153
 91
        4
280
     0
281
     0
  0
ENDSEC
  0
SECTION
  2
TABLES
  0
TABLE
  2
VPORT
  5
8
330
0
100
AcDbSymbolTable
 70
     1
  0
VPORT
  5
29
330
8
100
AcDbSymbolTableRecord
100
AcDbViewportTableRecord
  2
*Active
 70
     0
 10
0.0
 20
0.0
 11
1.0
 21
1.0
 12
10.42990654205607
 22
4.5
 13
0.0
 23
0.0
 14
0.5
 24
0.5
 15
0.5
 25
0.5
 16
0.0
 26
0.0
 36
1.0
 17
0.0
 27
0.0
 37
0.0
 40
9.0
 41
1.972972972850329
 42
50.0
 43
0.0
 44
0.0
 50
0.0
 51
0.0
 71
     0
 72
   100
 73
     1
 74
     3
 75
     0
 76
     0
 77
     0
 78
     0
281
     0
 65
     1
110
0.0
120
0.0
130
0.0
111
1.0
121
0.0
131
0.0
112
0.0
122
1.0
132
0.0
 79
     0
146
0.0
 60
     3
 61
     5
292
     1
282
     1
141
0.0
142
0.0
 63
   250
  0
ENDTAB
  0
TABLE
  2
LTYPE
  5
5
330
0
100
AcDbSymbolTable
 70
     1
  0
LTYPE
  5
14
330
5
100
AcDbSymbolTableRecord
100
AcDbLinetypeTableRecord
  2
ByBlock
 70
     0
  3

 72
    65
 73
     0
 40
0.0
  0
LTYPE
  5
15
330
5
100
AcDbSymbolTableRecord
100
AcDbLinetypeTableRecord
  2
ByLayer
 70
     0
  3

 72
    65
 73
     0
 40
0.0
  0
LTYPE
  5
16
330
5
100
AcDbSymbolTableRecord
100
AcDbLinetypeTableRecord
  2
Continuous
 70
     0
  3
Solid line
 72
    65
 73
     0
 40
0.0
  0
ENDTAB
  0
TABLE
  2
LAYER
  5
2
330
0
100
AcDbSymbolTable
 70
     2
  0
LAYER
  5
10
330
2
100
AcDbSymbolTableRecord
100
AcDbLayerTableRecord
  2
0
 70
     0
 62
     7
  6
Continuous
370
    -3
390
F
347
3E
  0
LAYER
  5
40
330
2
100
AcDbSymbolTableRecord
100
AcDbLayerTableRecord
  2
Layer 1
 70
     0
 62
     7
  6
Continuous
370
    -3
390
F
347
3E
  0
ENDTAB
  0
TABLE
  2
STYLE
  5
3
330
0
100
AcDbSymbolTable
 70
     1
  0
STYLE
  5
11
330
3
100
AcDbSymbolTableRecord
100
AcDbTextStyleTableRecord
  2
Standard
 70
     0
 40
0.0
 41
1.0
 50
0.0
 71
     0
 42
0.2
  3
txt
  4

  0
ENDTAB
  0
TABLE
  2
VIEW
  5
6
330
0
100
AcDbSymbolTable
 70
     0
  0
ENDTAB
  0
TABLE
  2
UCS
  5
7
330
0
100
AcDbSymbolTable
 70
     0
  0
ENDTAB
  0
TABLE
  2
APPID
  5
9
330
0
100
AcDbSymbolTable
 70
     2
  0
APPID
  5
12
330
9
100
AcDbSymbolTableRecord
100
AcDbRegAppTableRecord
  2
ACAD
 70
     0
  0
APPID
  5
3F
330
9
100
AcDbSymbolTableRecord
100
AcDbRegAppTableRecord
  2
ODA
 70
     0
  0
ENDTAB
  0
TABLE
  2
DIMSTYLE
  5
A
330
0
100
AcDbSymbolTable
 70
     1
100
AcDbDimStyleTable
  0
DIMSTYLE
105
27
330
A
100
AcDbSymbolTableRecord
100
AcDbDimStyleTableRecord
  2
Standard
 70
     0
178
     0
340
11
  0
ENDTAB
  0
TABLE
  2
BLOCK_RECORD
  5
1
330
0
100
AcDbSymbolTable
 70
     1
  0
BLOCK_RECORD
  5
1F
330
1
100
AcDbSymbolTableRecord
100
AcDbBlockTableRecord
  2
*Model_Space
340
22
 70
     0
280
     1
281
     0
  0
BLOCK_RECORD
  5
1B
330
1
100
AcDbSymbolTableRecord
100
AcDbBlockTableRecord
  2
*Paper_Space
340
1E
 70
     0
280
     1
281
     0
  0
BLOCK_RECORD
  5
23
330
1
100
AcDbSymbolTableRecord
100
AcDbBlockTableRecord
  2
*Paper_Space0
340
26
 70
     0
280
     1
281
     0
  0
ENDTAB
  0
ENDSEC
  0
SECTION
  2
BLOCKS
  0
BLOCK
  5
20
330
1F
100
AcDbEntity
  8
0
100
AcDbBlockBegin
  2
*Model_Space
 70
     0
 10
0.0
 20
0.0
 30
0.0
  3
*Model_Space
  1

  0
ENDBLK
  5
21
330
1F
100
AcDbEntity
  8
0
100
AcDbBlockEnd
  0
BLOCK
  5
1C
330
1B
100
AcDbEntity
 67
     1
  8
0
100
AcDbBlockBegin
  2
*Paper_Space
 70
     0
 10
0.0
 20
0.0
 30
0.0
  3
*Paper_Space
  1

  0
ENDBLK
  5
1D
330
1B
100
AcDbEntity
 67
     1
  8
0
100
AcDbBlockEnd
  0
BLOCK
  5
24
330
23
100
AcDbEntity
  8
0
100
AcDbBlockBegin
  2
*Paper_Space0
 70
     0
 10
0.0
 20
0.0
 30
0.0
  3
*Paper_Space0
  1

  0
ENDBLK
  5
25
330
23
100
AcDbEntity
  8
0
100
AcDbBlockEnd
  0
ENDSEC
  0
SECTION
  2
ENTITIES
  0
SPLINE
  5
41
330
1F
100
AcDbEntity
  8
Layer 1
 62
     5
100
AcDbSpline
210
0.0
220
0.0
230
1.0
 70
    11
 71
     3
 72
   156
 73
   152
 74
     0
 42
0.0000000001
 43
0.0000000001
 12
1.0
 22
0.0
 32
0.0
 13
1.0
 23
0.0
 33
0.0
 40
0.0
 40
0.0
 40
0.0
 40
0.0
 40
0.0256410256410256
 40
0.0256410256410256
 40
0.0256410256410256
 40
0.0256410256410256
 40
0.0512820512820513
 40
0.0512820512820513
 40
0.0512820512820513
 40
0.0512820512820513
 40
0.0769230769230769
 40
0.0769230769230769
 40
0.0769230769230769
 40
0.0769230769230769
 40
0.1025641025641026
 40
0.1025641025641026
 40
0.1025641025641026
 40
0.1025641025641026
 40
0.1282051282051282
 40
0.1282051282051282
 40
0.1282051282051282
 40
0.1282051282051282
 40
0.1538461538461539
 40
0.1538461538461539
 40
0.1538461538461539
 40
0.1538461538461539
 40
0.1794871794871795
 40
0.1794871794871795
 40
0.1794871794871795
 40
0.1794871794871795
 40
0.2051282051282051
 40
0.2051282051282051
 40
0.2051282051282051
 40
0.2051282051282051
 40
0.2307692307692308
 40
0.2307692307692308
 40
0.2307692307692308
 40
0.2307692307692308
 40
0.2564102564102564
 40
0.2564102564102564
 40
0.2564102564102564
 40
0.2564102564102564
 40
0.282051282051282
 40
0.282051282051282
 40
0.282051282051282
 40
0.282051282051282
 40
0.3076923076923077
 40
0.3076923076923077
 40
0.3076923076923077
 40
0.3076923076923077
 40
0.3333333333333333
 40
0.3333333333333333
 40
0.3333333333333333
 40
0.3333333333333333
 40
0.358974358974359
 40
0.358974358974359
 40
0.358974358974359
 40
0.358974358974359
 40
0.3846153846153846
 40
0.3846153846153846
 40
0.3846153846153846
 40
0.3846153846153846
 40
0.4102564102564102
 40
0.4102564102564102
 40
0.4102564102564102
 40
0.4102564102564102
 40
0.4358974358974359
 40
0.4358974358974359
 40
0.4358974358974359
 40
0.4358974358974359
 40
0.4615384615384616
 40
0.4615384615384616
 40
0.4615384615384616
 40
0.4615384615384616
 40
0.4871794871794872
 40
0.4871794871794872
 40
0.4871794871794872
 40
0.4871794871794872
 40
0.5128205128205128
 40
0.5128205128205128
 40
0.5128205128205128
 40
0.5128205128205128
 40
0.5384615384615384
 40
0.5384615384615384
 40
0.5384615384615384
 40
0.5384615384615384
 40
0.5641025641025641
 40
0.5641025641025641
 40
0.5641025641025641
 40
0.5641025641025641
 40
0.5897435897435898
 40
0.5897435897435898
 40
0.5897435897435898
 40
0.5897435897435898
 40
0.6153846153846154
 40
0.6153846153846154
 40
0.6153846153846154
 40
0.6153846153846154
 40
0.6410256410256411
 40
0.6410256410256411
 40
0.6410256410256411
 40
0.6410256410256411
 40
0.6666666666666666
 40
0.6666666666666666
 40
0.6666666666666666
 40
0.6666666666666666
 40
0.6923076923076923
 40
0.6923076923076923
 40
0.6923076923076923
 40
0.6923076923076923
 40
0.717948717948718
 40
0.717948717948718
 40
0.717948717948718
 40
0.717948717948718
 40
0.7435897435897436
 40
0.7435897435897436
 40
0.7435897435897436
 40
0.7435897435897436
 40
0.7692307692307693
 40
0.7692307692307693
 40
0.7692307692307693
 40
0.7692307692307693
 40
0.7948717948717948
 40
0.7948717948717948
 40
0.7948717948717948
 40
0.7948717948717948
 40
0.8205128205128205
 40
0.8205128205128205
 40
0.8205128205128205
 40
0.8205128205128205
 40
0.8461538461538461
 40
0.8461538461538461
 40
0.8461538461538461
 40
0.8461538461538461
 40
0.8717948717948718
 40
0.8717948717948718
 40
0.8717948717948718
 40
0.8717948717948718
 40
0.8974358974358975
 40
0.8974358974358975
 40
0.8974358974358975
 40
0.8974358974358975
 40
0.9230769230769231
 40
0.9230769230769231
 40
0.9230769230769231
 40
0.9230769230769231
 40
0.9487179487179487
 40
0.9487179487179487
 40
0.9487179487179487
 40
0.9487179487179487
 40
1.0
 40
1.0
 40
1.0
 40
1.0
 10
-14.0281
 20
-10.60845
 30
0.0
 10
-14.05193
 20
-10.62225
 30
0.0
 10
-14.08246
 20
-10.61412
 30
0.0
 10
-14.09626
 20
-10.59029
 30
0.0
 10
-14.09626
 20
-10.59029
 30
0.0
 10
-14.11006
 20
-10.56646
 30
0.0
 10
-14.10193
 20
-10.53593
 30
0.0
 10
-14.0781
 20
-10.52213
 30
0.0
 10
-14.0781
 20
-10.52213
 30
0.0
 10
-14.05564
 20
-10.50904
 30
0.0
 10
-14.03445
 20
-10.49689
 30
0.0
 10
-14.01489
 20
-10.48593
 30
0.0
 10
-14.01489
 20
-10.48593
 30
0.0
 10
-13.99696
 20
-10.47588
 30
0.0
 10
-13.97563
 20
-10.46422
 30
0.0
 10
-13.9508
 20
-10.45095
 30
0.0
 10
-13.9508
 20
-10.45095
 30
0.0
 10
-13.91899
 20
-10.43393
 30
0.0
 10
-13.88807
 20
-10.41797
 30
0.0
 10
-13.85821
 20
-10.40326
 30
0.0
 10
-13.85821
 20
-10.40326
 30
0.0
 10
-13.82877
 20
-10.38876
 30
0.0
 10
-13.79733
 20
-10.37404
 30
0.0
 10
-13.76367
 20
-10.35908
 30
0.0
 10
-13.76367
 20
-10.35908
 30
0.0
 10
-13.71828
 20
-10.33891
 30
0.0
 10
-13.67286
 20
-10.31914
 30
0.0
 10
-13.63005
 20
-10.30283
 30
0.0
 10
-13.63005
 20
-10.30283
 30
0.0
 10
-13.5845
 20
-10.28546
 30
0.0
 10
-13.53729
 20
-10.26993
 30
0.0
 10
-13.48765
 20
-10.25797
 30
0.0
 10
-13.48765
 20
-10.25797
 30
0.0
 10
-13.48765
 20
-10.25797
 30
0.0
 10
-13.48766
 20
-10.25792
 30
0.0
 10
-13.48766
 20
-10.25792
 30
0.0
 10
-13.48766
 20
-10.25792
 30
0.0
 10
-13.4609
 20
-10.25147
 30
0.0
 10
-13.43136
 20
-10.24291
 30
0.0
 10
-13.40019
 20
-10.23389
 30
0.0
 10
-13.40019
 20
-10.23389
 30
0.0
 10
-13.21284
 20
-10.17964
 30
0.0
 10
-12.97265
 20
-10.1101
 30
0.0
 10
-12.85688
 20
-10.31964
 30
0.0
 10
-12.85688
 20
-10.31964
 30
0.0
 10
-12.82864
 20
-10.37079
 30
0.0
 10
-12.82168
 20
-10.42893
 30
0.0
 10
-12.82565
 20
-10.48688
 30
0.0
 10
-12.82565
 20
-10.48688
 30
0.0
 10
-12.82935
 20
-10.5407
 30
0.0
 10
-12.84254
 20
-10.5941
 30
0.0
 10
-12.85621
 20
-10.64065
 30
0.0
 10
-12.85621
 20
-10.64065
 30
0.0
 10
-12.87858
 20
-10.71669
 30
0.0
 10
-12.90992
 20
-10.78859
 30
0.0
 10
-12.94643
 20
-10.85761
 30
0.0
 10
-12.94643
 20
-10.85761
 30
0.0
 10
-12.98253
 20
-10.92587
 30
0.0
 10
-13.02354
 20
-10.9911
 30
0.0
 10
-13.06583
 20
-11.05471
 30
0.0
 10
-13.06583
 20
-11.05471
 30
0.0
 10
-13.0831
 20
-11.08066
 30
0.0
 10
-13.09366
 20
-11.0979
 30
0.0
 10
-13.10777
 20
-11.12094
 30
0.0
 10
-13.10777
 20
-11.12094
 30
0.0
 10
-13.10777
 20
-11.12094
 30
0.0
 10
-13.10786
 20
-11.12108
 30
0.0
 10
-13.10786
 20
-11.12108
 30
0.0
 10
-13.10786
 20
-11.12108
 30
0.0
 10
-13.10786
 20
-11.12108
 30
0.0
 10
-13.10777
 20
-11.12113
 30
0.0
 10
-13.10777
 20
-11.12113
 30
0.0
 10
-13.10777
 20
-11.12113
 30
0.0
 10
-13.10777
 20
-11.12113
 30
0.0
 10
-13.12425
 20
-11.14795
 30
0.0
 10
-13.12425
 20
-11.14795
 30
0.0
 10
-13.12425
 20
-11.14795
 30
0.0
 10
-13.1387
 20
-11.17146
 30
0.0
 10
-13.16949
 20
-11.17881
 30
0.0
 10
-13.193
 20
-11.16436
 30
0.0
 10
-13.193
 20
-11.16436
 30
0.0
 10
-13.21651
 20
-11.14991
 30
0.0
 10
-13.22386
 20
-11.11912
 30
0.0
 10
-13.20941
 20
-11.09561
 30
0.0
 10
-13.20941
 20
-11.09561
 30
0.0
 10
-13.20941
 20
-11.09561
 30
0.0
 10
-13.19293
 20
-11.06879
 30
0.0
 10
-13.19293
 20
-11.06879
 30
0.0
 10
-13.19293
 20
-11.06879
 30
0.0
 10
-13.19293
 20
-11.06879
 30
0.0
 10
-13.19285
 20
-11.06884
 30
0.0
 10
-13.19285
 20
-11.06884
 30
0.0
 10
-13.19285
 20
-11.06884
 30
0.0
 10
-13.17802
 20
-11.04461
 30
0.0
 10
-13.16688
 20
-11.02646
 30
0.0
 10
-13.14903
 20
-10.99963
 30
0.0
 10
-13.14903
 20
-10.99963
 30
0.0
 10
-13.10822
 20
-10.93826
 30
0.0
 10
-13.06883
 20
-10.87565
 30
0.0
 10
-13.03471
 20
-10.81113
 30
0.0
 10
-13.03471
 20
-10.81113
 30
0.0
 10
-13.001
 20
-10.74739
 30
0.0
 10
-12.97219
 20
-10.68147
 30
0.0
 10
-12.95191
 20
-10.61253
 30
0.0
 10
-12.95191
 20
-10.61253
 30
0.0
 10
-12.9399
 20
-10.57162
 30
0.0
 10
-12.92834
 20
-10.52518
 30
0.0
 10
-12.92525
 20
-10.48024
 30
0.0
 10
-12.92525
 20
-10.48024
 30
0.0
 10
-12.92245
 20
-10.43945
 30
0.0
 10
-12.92663
 20
-10.39984
 30
0.0
 10
-12.94438
 20
-10.36768
 30
0.0
 10
-12.94438
 20
-10.36768
 30
0.0
 10
-13.02155
 20
-10.228
 30
0.0
 10
-13.21869
 20
-10.28507
 30
0.0
 10
-13.37245
 20
-10.32959
 30
0.0
 10
-13.37245
 20
-10.32959
 30
0.0
 10
-13.40512
 20
-10.33904
 30
0.0
 10
-13.43611
 20
-10.34802
 30
0.0
 10
-13.46422
 20
-10.3548
 30
0.0
 10
-13.46422
 20
-10.3548
 30
0.0
 10
-13.46422
 20
-10.3548
 30
0.0
 10
-13.46423
 20
-10.35475
 30
0.0
 10
-13.46423
 20
-10.35475
 30
0.0
 10
-13.46423
 20
-10.35475
 30
0.0
 10
-13.46423
 20
-10.35475
 30
0.0
 10
-13.46442
 20
-10.3548
 30
0.0
 10
-13.46442
 20
-10.3548
 30
0.0
 10
-13.46442
 20
-10.3548
 30
0.0
 10
-13.50759
 20
-10.3652
 30
0.0
 10
-13.5511
 20
-10.37963
 30
0.0
 10
-13.59451
 20
-10.39619
 30
0.0
 10
-13.59451
 20
-10.39619
 30
0.0
 10
-13.64074
 20
-10.41381
 30
0.0
 10
-13.68272
 20
-10.43201
 30
0.0
 10
-13.72343
 20
-10.4501
 30
0.0
 10
-13.72343
 20
-10.4501
 30
0.0
 10
-13.75199
 20
-10.46279
 30
0.0
 10
-13.78228
 20
-10.47707
 30
0.0
 10
-13.81407
 20
-10.49272
 30
0.0
 10
-13.81407
 20
-10.49272
 30
0.0
 10
-13.84543
 20
-10.50817
 30
0.0
 10
-13.87535
 20
-10.52356
 30
0.0
 10
-13.90392
 20
-10.53885
 30
0.0
 10
-13.90392
 20
-10.53885
 30
0.0
 10
-13.92133
 20
-10.54816
 30
0.0
 10
-13.94211
 20
-10.55959
 30
0.0
 10
-13.96607
 20
-10.57303
 30
0.0
 10
-13.96607
 20
-10.57303
 30
0.0
 10
-13.98841
 20
-10.58554
 30
0.0
 10
-14.009
 20
-10.59732
 30
0.0
 10
-14.0281
 20
-10.60845
 30
0.0
  0
SPLINE
  5
42
330
1F
100
AcDbEntity
  8
Layer 1
 62
     5
100
AcDbSpline
210
0.0
220
0.0
230
1.0
 70
    11
 71
     3
 72
   148
 73
   144
 74
     0
 42
0.0000000001
 43
0.0000000001
 12
1.0
 22
0.0
 32
0.0
 13
1.0
 23
0.0
 33
0.0
 40
0.0
 40
0.0
 40
0.0
 40
0.0
 40
0.027027027027027
 40
0.027027027027027
 40
0.027027027027027
 40
0.027027027027027
 40
0.0540540540540541
 40
0.0540540540540541
 40
0.0540540540540541
 40
0.0540540540540541
 40
0.0810810810810811
 40
0.0810810810810811
 40
0.0810810810810811
 40
0.0810810810810811
 40
0.1081081081081081
 40
0.1081081081081081
 40
0.1081081081081081
 40
0.1081081081081081
 40
0.1351351351351351
 40
0.1351351351351351
 40
0.1351351351351351
 40
0.1351351351351351
 40
0.1621621621621622
 40
0.1621621621621622
 40
0.1621621621621622
 40
0.1621621621621622
 40
0.1891891891891892
 40
0.1891891891891892
 40
0.1891891891891892
 40
0.1891891891891892
 40
0.2162162162162162
 40
0.2162162162162162
 40
0.2162162162162162
 40
0.2162162162162162
 40
0.2432432432432433
 40
0.2432432432432433
 40
0.2432432432432433
 40
0.2432432432432433
 40
0.2702702702702703
 40
0.2702702702702703
 40
0.2702702702702703
 40
0.2702702702702703
 40
0.2972972972972973
 40
0.2972972972972973
 40
0.2972972972972973
 40
0.2972972972972973
 40
0.3243243243243243
 40
0.3243243243243243
 40
0.3243243243243243
 40
0.3243243243243243
 40
0.3513513513513514
 40
0.3513513513513514
 40
0.3513513513513514
 40
0.3513513513513514
 40
0.3783783783783784
 40
0.3783783783783784
 40
0.3783783783783784
 40
0.3783783783783784
 40
0.4054054054054054
 40
0.4054054054054054
 40
0.4054054054054054
 40
0.4054054054054054
 40
0.4324324324324325
 40
0.4324324324324325
 40
0.4324324324324325
 40
0.4324324324324325
 40
0.4594594594594595
 40
0.4594594594594595
 40
0.4594594594594595
 40
0.4594594594594595
 40
0.4864864864864865
 40
0.4864864864864865
 40
0.4864864864864865
 40
0.4864864864864865
 40
0.5135135135135135
 40
0.5135135135135135
 40
0.5135135135135135
 40
0.5135135135135135
 40
0.5405405405405406
 40
0.5405405405405406
 40
0.5405405405405406
 40
0.5405405405405406
 40
0.5675675675675675
 40
0.5675675675675675
 40
0.5675675675675675
 40
0.5675675675675675
 40
0.5945945945945946
 40
0.5945945945945946
 40
0.5945945945945946
 40
0.5945945945945946
 40
0.6216216216216216
 40
0.6216216216216216
 40
0.6216216216216216
 40
0.6216216216216216
 40
0.6486486486486487
 40
0.6486486486486487
 40
0.6486486486486487
 40
0.6486486486486487
 40
0.6756756756756757
 40
0.6756756756756757
 40
0.6756756756756757
 40
0.6756756756756757
 40
0.7027027027027027
 40
0.7027027027027027
 40
0.7027027027027027
 40
0.7027027027027027
 40
0.7297297297297297
 40
0.7297297297297297
 40
0.7297297297297297
 40
0.7297297297297297
 40
0.7567567567567568
 40
0.7567567567567568
 40
0.7567567567567568
 40
0.7567567567567568
 40
0.7837837837837838
 40
0.7837837837837838
 40
0.7837837837837838
 40
0.7837837837837838
 40
0.8108108108108109
 40
0.8108108108108109
 40
0.8108108108108109
 40
0.8108108108108109
 40
0.8378378378378378
 40
0.8378378378378378
 40
0.8378378378378378
 40
0.8378378378378378
 40
0.8648648648648649
 40
0.8648648648648649
 40
0.8648648648648649
 40
0.8648648648648649
 40
0.8918918918918919
 40
0.8918918918918919
 40
0.8918918918918919
 40
0.8918918918918919
 40
0.918918918918919
 40
0.918918918918919
 40
0.918918918918919
 40
0.918918918918919
 40
0.9459459459459459
 40
0.9459459459459459
 40
0.9459459459459459
 40
0.9459459459459459
 40
1.0
 40
1.0
 40
1.0
 40
1.0
 10
-14.52898
 20
-9.83609
 30
0.0
 10
-14.55648
 20
-9.83663
 30
0.0
 10
-14.57922
 20
-9.81477
 30
0.0
 10
-14.57976
 20
-9.78727
 30
0.0
 10
-14.57976
 20
-9.78727
 30
0.0
 10
-14.5803
 20
-9.75977
 30
0.0
 10
-14.55844
 20
-9.73703
 30
0.0
 10
-14.53094
 20
-9.73649
 30
0.0
 10
-14.53094
 20
-9.73649
 30
0.0
 10
-14.50832
 20
-9.73599
 30
0.0
 10
-14.48501
 20
-9.73099
 30
0.0
 10
-14.462
 20
-9.72607
 30
0.0
 10
-14.462
 20
-9.72607
 30
0.0
 10
-14.42672
 20
-9.71854
 30
0.0
 10
-14.39196
 20
-9.7111
 30
0.0
 10
-14.34839
 20
-9.71515
 30
0.0
 10
-14.34839
 20
-9.71515
 30
0.0
 10
-14.26939
 20
-9.72254
 30
0.0
 10
-14.19178
 20
-9.7175
 30
0.0
 10
-14.11437
 20
-9.71248
 30
0.0
 10
-14.11437
 20
-9.71248
 30
0.0
 10
-14.06122
 20
-9.70903
 30
0.0
 10
-14.00809
 20
-9.70558
 30
0.0
 10
-13.951
 20
-9.70607
 30
0.0
 10
-13.951
 20
-9.70607
 30
0.0
 10
-13.92455
 20
-9.70629
 30
0.0
 10
-13.89233
 20
-9.70504
 30
0.0
 10
-13.85797
 20
-9.7037
 30
0.0
 10
-13.85797
 20
-9.7037
 30
0.0
 10
-13.72328
 20
-9.69844
 30
0.0
 10
-13.55735
 20
-9.69196
 30
0.0
 10
-13.45597
 20
-9.76536
 30
0.0
 10
-13.45597
 20
-9.76536
 30
0.0
 10
-13.43411
 20
-9.78121
 30
0.0
 10
-13.42888
 20
-9.8115
 30
0.0
 10
-13.44388
 20
-9.83371
 30
0.0
 10
-13.44388
 20
-9.83371
 30
0.0
 10
-13.44388
 20
-9.83371
 30
0.0
 10
-13.44386
 20
-9.83372
 30
0.0
 10
-13.44386
 20
-9.83372
 30
0.0
 10
-13.44386
 20
-9.83372
 30
0.0
 10
-13.53565
 20
-9.96963
 30
0.0
 10
-13.67127
 20
-10.0559
 30
0.0
 10
-13.80125
 20
-10.13857
 30
0.0
 10
-13.80125
 20
-10.13857
 30
0.0
 10
-13.80239
 20
-10.13929
 30
0.0
 10
-13.80353
 20
-10.13995
 30
0.0
 10
-13.80471
 20
-10.14057
 30
0.0
 10
-13.80471
 20
-10.14057
 30
0.0
 10
-13.80471
 20
-10.14057
 30
0.0
 10
-13.82112
 20
-10.15102
 30
0.0
 10
-13.82112
 20
-10.15102
 30
0.0
 10
-13.82112
 20
-10.15102
 30
0.0
 10
-13.83798
 20
-10.16177
 30
0.0
 10
-13.85381
 20
-10.17215
 30
0.0
 10
-13.86957
 20
-10.1825
 30
0.0
 10
-13.86957
 20
-10.1825
 30
0.0
 10
-13.90401
 20
-10.20512
 30
0.0
 10
-13.93854
 20
-10.22778
 30
0.0
 10
-13.97486
 20
-10.24872
 30
0.0
 10
-13.97486
 20
-10.24872
 30
0.0
 10
-14.03274
 20
-10.28211
 30
0.0
 10
-14.09223
 20
-10.32104
 30
0.0
 10
-14.15173
 20
-10.35998
 30
0.0
 10
-14.15173
 20
-10.35998
 30
0.0
 10
-14.18024
 20
-10.37863
 30
0.0
 10
-14.20871
 20
-10.39726
 30
0.0
 10
-14.24563
 20
-10.42061
 30
0.0
 10
-14.24563
 20
-10.42061
 30
0.0
 10
-14.25265
 20
-10.42505
 30
0.0
 10
-14.25638
 20
-10.42792
 30
0.0
 10
-14.25962
 20
-10.43039
 30
0.0
 10
-14.25962
 20
-10.43039
 30
0.0
 10
-14.26623
 20
-10.43545
 30
0.0
 10
-14.27158
 20
-10.43956
 30
0.0
 10
-14.28808
 20
-10.44855
 30
0.0
 10
-14.28808
 20
-10.44855
 30
0.0
 10
-14.31224
 20
-10.46171
 30
0.0
 10
-14.3425
 20
-10.45279
 30
0.0
 10
-14.35566
 20
-10.42863
 30
0.0
 10
-14.35566
 20
-10.42863
 30
0.0
 10
-14.36882
 20
-10.40447
 30
0.0
 10
-14.3599
 20
-10.37421
 30
0.0
 10
-14.33574
 20
-10.36105
 30
0.0
 10
-14.33574
 20
-10.36105
 30
0.0
 10
-14.3268
 20
-10.35618
 30
0.0
 10
-14.32382
 20
-10.3539
 30
0.0
 10
-14.32016
 20
-10.35109
 30
0.0
 10
-14.32016
 20
-10.35109
 30
0.0
 10
-14.31557
 20
-10.34758
 30
0.0
 10
-14.3103
 20
-10.34354
 30
0.0
 10
-14.29875
 20
-10.33623
 30
0.0
 10
-14.29875
 20
-10.33623
 30
0.0
 10
-14.27301
 20
-10.31995
 30
0.0
 10
-14.23964
 20
-10.29812
 30
0.0
 10
-14.20641
 20
-10.27638
 30
0.0
 10
-14.20641
 20
-10.27638
 30
0.0
 10
-14.14827
 20
-10.23833
 30
0.0
 10
-14.09015
 20
-10.2003
 30
0.0
 10
-14.02446
 20
-10.1624
 30
0.0
 10
-14.02446
 20
-10.1624
 30
0.0
 10
-13.99082
 20
-10.143
 30
0.0
 10
-13.9575
 20
-10.12113
 30
0.0
 10
-13.92425
 20
-10.0993
 30
0.0
 10
-13.92425
 20
-10.0993
 30
0.0
 10
-13.90741
 20
-10.08824
 30
0.0
 10
-13.89058
 20
-10.0772
 30
0.0
 10
-13.87464
 20
-10.06704
 30
0.0
 10
-13.87464
 20
-10.06704
 30
0.0
 10
-13.87464
 20
-10.06704
 30
0.0
 10
-13.85824
 20
-10.0566
 30
0.0
 10
-13.85824
 20
-10.0566
 30
0.0
 10
-13.85824
 20
-10.0566
 30
0.0
 10
-13.85713
 20
-10.05576
 30
0.0
 10
-13.85597
 20
-10.05495
 30
0.0
 10
-13.85477
 20
-10.05419
 30
0.0
 10
-13.85477
 20
-10.05419
 30
0.0
 10
-13.74942
 20
-9.98719
 30
0.0
 10
-13.64011
 20
-9.91763
 30
0.0
 10
-13.56071
 20
-9.82289
 30
0.0
 10
-13.56071
 20
-9.82289
 30
0.0
 10
-13.64006
 20
-9.79494
 30
0.0
 10
-13.75657
 20
-9.79948
 30
0.0
 10
-13.85445
 20
-9.8033
 30
0.0
 10
-13.85445
 20
-9.8033
 30
0.0
 10
-13.88921
 20
-9.80465
 30
0.0
 10
-13.92181
 20
-9.80592
 30
0.0
 10
-13.95178
 20
-9.80567
 30
0.0
 10
-13.95178
 20
-9.80567
 30
0.0
 10
-14.00265
 20
-9.80523
 30
0.0
 10
-14.05537
 20
-9.80866
 30
0.0
 10
-14.10811
 20
-9.81208
 30
0.0
 10
-14.10811
 20
-9.81208
 30
0.0
 10
-14.18882
 20
-9.81731
 30
0.0
 10
-14.26973
 20
-9.82257
 30
0.0
 10
-14.35737
 20
-9.81437
 30
0.0
 10
-14.35737
 20
-9.81437
 30
0.0
 10
-14.38533
 20
-9.81177
 30
0.0
 10
-14.41312
 20
-9.81771
 30
0.0
 10
-14.4413
 20
-9.82373
 30
0.0
 10
-14.4413
 20
-9.82373
 30
0.0
 10
-14.46825
 20
-9.82949
 30
0.0
 10
-14.49555
 20
-9.83534
 30
0.0
 10
-14.52898
 20
-9.83609
 30
0.0
  0
SPLINE
  5
43
330
1F
100
AcDbEntity
  8
Layer 1
 62
     5
100
AcDbSpline
210
0.0
220
0.0
230
1.0
 70
    11
 71
     3
 72
   104
 73
   100
 74
     0
 42
0.0000000001
 43
0.0000000001
 12
1.0
 22
0.0
 32
0.0
 13
1.0
 23
0.0
 33
0.0
 40
0.0
 40
0.0
 40
0.0
 40
0.0
 40
0.0384615384615385
 40
0.0384615384615385
 40
0.0384615384615385
 40
0.0384615384615385
 40
0.0769230769230769
 40
0.0769230769230769
 40
0.0769230769230769
 40
0.0769230769230769
 40
0.1153846153846154
 40
0.1153846153846154
 40
0.1153846153846154
 40
0.1153846153846154
 40
0.1538461538461539
 40
0.1538461538461539
 40
0.1538461538461539
 40
0.1538461538461539
 40
0.1923076923076923
 40
0.1923076923076923
 40
0.1923076923076923
 40
0.1923076923076923
 40
0.2307692307692308
 40
0.2307692307692308
 40
0.2307692307692308
 40
0.2307692307692308
 40
0.2692307692307692
 40
0.2692307692307692
 40
0.2692307692307692
 40
0.2692307692307692
 40
0.3076923076923077
 40
0.3076923076923077
 40
0.3076923076923077
 40
0.3076923076923077
 40
0.3461538461538461
 40
0.3461538461538461
 40
0.3461538461538461
 40
0.3461538461538461
 40
0.3846153846153846
 40
0.3846153846153846
 40
0.3846153846153846
 40
0.3846153846153846
 40
0.4230769230769231
 40
0.4230769230769231
 40
0.4230769230769231
 40
0.4230769230769231
 40
0.4615384615384616
 40
0.4615384615384616
 40
0.4615384615384616
 40
0.4615384615384616
 40
0.5
 40
0.5
 40
0.5
 40
0.5
 40
0.5384615384615384
 40
0.5384615384615384
 40
0.5384615384615384
 40
0.5384615384615384
 40
0.5769230769230769
 40
0.5769230769230769
 40
0.5769230769230769
 40
0.5769230769230769
 40
0.6153846153846154
 40
0.6153846153846154
 40
0.6153846153846154
 40
0.6153846153846154
 40
0.6538461538461539
 40
0.6538461538461539
 40
0.6538461538461539
 40
0.6538461538461539
 40
0.6923076923076923
 40
0.6923076923076923
 40
0.6923076923076923
 40
0.6923076923076923
 40
0.7307692307692307
 40
0.7307692307692307
 40
0.7307692307692307
 40
0.7307692307692307
 40
0.7692307692307693
 40
0.7692307692307693
 40
0.7692307692307693
 40
0.7692307692307693
 40
0.8076923076923077
 40
0.8076923076923077
 40
0.8076923076923077
 40
0.8076923076923077
 40
0.8461538461538461
 40
0.8461538461538461
 40
0.8461538461538461
 40
0.8461538461538461
 40
0.8846153846153846
 40
0.8846153846153846
 40
0.8846153846153846
 40
0.8846153846153846
 40
0.9230769230769231
 40
0.9230769230769231
 40
0.9230769230769231
 40
0.9230769230769231
 40
1.0
 40
1.0
 40
1.0
 40
1.0
 10
-14.2389
 20
-8.8474
 30
0.0
 10
-14.25799
 20
-8.82756
 30
0.0
 10
-14.25737
 20
-8.79598
 30
0.0
 10
-14.23753
 20
-8.77689
 30
0.0
 10
-14.23753
 20
-8.77689
 30
0.0
 10
-14.21769
 20
-8.7578
 30
0.0
 10
-14.18611
 20
-8.75842
 30
0.0
 10
-14.16702
 20
-8.77826
 30
0.0
 10
-14.16702
 20
-8.77826
 30
0.0
 10
-14.15868
 20
-8.78689
 30
0.0
 10
-14.15041
 20
-8.79537
 30
0.0
 10
-14.14247
 20
-8.80329
 30
0.0
 10
-14.14247
 20
-8.80329
 30
0.0
 10
-14.14247
 20
-8.80329
 30
0.0
 10
-14.14238
 20
-8.80339
 30
0.0
 10
-14.14238
 20
-8.80339
 30
0.0
 10
-14.14238
 20
-8.80339
 30
0.0
 10
-14.14238
 20
-8.80339
 30
0.0
 10
-14.14228
 20
-8.80329
 30
0.0
 10
-14.14228
 20
-8.80329
 30
0.0
 10
-14.14228
 20
-8.80329
 30
0.0
 10
-14.13289
 20
-8.81268
 30
0.0
 10
-14.12446
 20
-8.82093
 30
0.0
 10
-14.11766
 20
-8.82724
 30
0.0
 10
-14.11766
 20
-8.82724
 30
0.0
 10
-14.07243
 20
-8.86929
 30
0.0
 10
-14.02771
 20
-8.91327
 30
0.0
 10
-13.98302
 20
-8.95723
 30
0.0
 10
-13.98302
 20
-8.95723
 30
0.0
 10
-13.92906
 20
-9.0103
 30
0.0
 10
-13.87507
 20
-9.06339
 30
0.0
 10
-13.82151
 20
-9.11187
 30
0.0
 10
-13.82151
 20
-9.11187
 30
0.0
 10
-13.75911
 20
-9.16835
 30
0.0
 10
-13.69636
 20
-9.22505
 30
0.0
 10
-13.62923
 20
-9.28306
 30
0.0
 10
-13.62923
 20
-9.28306
 30
0.0
 10
-13.56529
 20
-9.33831
 30
0.0
 10
-13.4999
 20
-9.39232
 30
0.0
 10
-13.43191
 20
-9.44362
 30
0.0
 10
-13.43191
 20
-9.44362
 30
0.0
 10
-13.40991
 20
-9.46023
 30
0.0
 10
-13.40554
 20
-9.49154
 30
0.0
 10
-13.42215
 20
-9.51354
 30
0.0
 10
-13.42215
 20
-9.51354
 30
0.0
 10
-13.43287
 20
-9.52774
 30
0.0
 10
-13.44973
 20
-9.5346
 30
0.0
 10
-13.46625
 20
-9.5332
 30
0.0
 10
-13.46625
 20
-9.5332
 30
0.0
 10
-13.67919
 20
-9.52934
 30
0.0
 10
-13.90327
 20
-9.54059
 30
0.0
 10
-14.12271
 20
-9.5516
 30
0.0
 10
-14.12271
 20
-9.5516
 30
0.0
 10
-14.29545
 20
-9.56026
 30
0.0
 10
-14.46535
 20
-9.5688
 30
0.0
 10
-14.62811
 20
-9.56971
 30
0.0
 10
-14.62811
 20
-9.56971
 30
0.0
 10
-14.65561
 20
-9.56982
 30
0.0
 10
-14.678
 20
-9.54761
 30
0.0
 10
-14.67811
 20
-9.52011
 30
0.0
 10
-14.67811
 20
-9.52011
 30
0.0
 10
-14.67822
 20
-9.49261
 30
0.0
 10
-14.65601
 20
-9.47022
 30
0.0
 10
-14.62851
 20
-9.47011
 30
0.0
 10
-14.62851
 20
-9.47011
 30
0.0
 10
-14.47058
 20
-9.46923
 30
0.0
 10
-14.3004
 20
-9.46067
 30
0.0
 10
-14.12739
 20
-9.452
 30
0.0
 10
-14.12739
 20
-9.452
 30
0.0
 10
-13.95459
 20
-9.44332
 30
0.0
 10
-13.7789
 20
-9.43452
 30
0.0
 10
-13.60624
 20
-9.43302
 30
0.0
 10
-13.60624
 20
-9.43302
 30
0.0
 10
-13.63585
 20
-9.40862
 30
0.0
 10
-13.66525
 20
-9.38371
 30
0.0
 10
-13.69447
 20
-9.35846
 30
0.0
 10
-13.69447
 20
-9.35846
 30
0.0
 10
-13.75767
 20
-9.30385
 30
0.0
 10
-13.82304
 20
-9.24478
 30
0.0
 10
-13.88831
 20
-9.18569
 30
0.0
 10
-13.88831
 20
-9.18569
 30
0.0
 10
-13.94633
 20
-9.13318
 30
0.0
 10
-13.99964
 20
-9.08074
 30
0.0
 10
-14.05294
 20
-9.02833
 30
0.0
 10
-14.05294
 20
-9.02833
 30
0.0
 10
-14.09654
 20
-8.98545
 30
0.0
 10
-14.14016
 20
-8.94254
 30
0.0
 10
-14.18562
 20
-8.90028
 30
0.0
 10
-14.18562
 20
-8.90028
 30
0.0
 10
-14.19647
 20
-8.89021
 30
0.0
 10
-14.20535
 20
-8.88162
 30
0.0
 10
-14.21298
 20
-8.87399
 30
0.0
 10
-14.21298
 20
-8.87399
 30
0.0
 10
-14.21298
 20
-8.87399
 30
0.0
 10
-14.21289
 20
-8.8739
 30
0.0
 10
-14.21289
 20
-8.8739
 30
0.0
 10
-14.21289
 20
-8.8739
 30
0.0
 10
-14.22196
 20
-8.86485
 30
0.0
 10
-14.23053
 20
-8.85606
 30
0.0
 10
-14.2389
 20
-8.8474
 30
0.0
  0
SPLINE
  5
44
330
1F
100
AcDbEntity
  8
Layer 1
 62
     5
100
AcDbSpline
210
0.0
220
0.0
230
1.0
 70
    11
 71
     3
 72
   144
 73
   140
 74
     0
 42
0.0000000001
 43
0.0000000001
 12
1.0
 22
0.0
 32
0.0
 13
1.0
 23
0.0
 33
0.0
 40
0.0
 40
0.0
 40
0.0
 40
0.0
 40
0.0277777777777778
 40
0.0277777777777778
 40
0.0277777777777778
 40
0.0277777777777778
 40
0.0555555555555556
 40
0.0555555555555556
 40
0.0555555555555556
 40
0.0555555555555556
 40
0.0833333333333333
 40
0.0833333333333333
 40
0.0833333333333333
 40
0.0833333333333333
 40
0.1111111111111111
 40
0.1111111111111111
 40
0.1111111111111111
 40
0.1111111111111111
 40
0.1388888888888889
 40
0.1388888888888889
 40
0.1388888888888889
 40
0.1388888888888889
 40
0.1666666666666667
 40
0.1666666666666667
 40
0.1666666666666667
 40
0.1666666666666667
 40
0.1944444444444444
 40
0.1944444444444444
 40
0.1944444444444444
 40
0.1944444444444444
 40
0.2222222222222222
 40
0.2222222222222222
 40
0.2222222222222222
 40
0.2222222222222222
 40
0.25
 40
0.25
 40
0.25
 40
0.25
 40
0.2777777777777778
 40
0.2777777777777778
 40
0.2777777777777778
 40
0.2777777777777778
 40
0.3055555555555556
 40
0.3055555555555556
 40
0.3055555555555556
 40
0.3055555555555556
 40
0.3333333333333333
 40
0.3333333333333333
 40
0.3333333333333333
 40
0.3333333333333333
 40
0.3611111111111111
 40
0.3611111111111111
 40
0.3611111111111111
 40
0.3611111111111111
 40
0.3888888888888889
 40
0.3888888888888889
 40
0.3888888888888889
 40
0.3888888888888889
 40
0.4166666666666667
 40
0.4166666666666667
 40
0.4166666666666667
 40
0.4166666666666667
 40
0.4444444444444444
 40
0.4444444444444444
 40
0.4444444444444444
 40
0.4444444444444444
 40
0.4722222222222222
 40
0.4722222222222222
 40
0.4722222222222222
 40
0.4722222222222222
 40
0.5
 40
0.5
 40
0.5
 40
0.5
 40
0.5277777777777778
 40
0.5277777777777778
 40
0.5277777777777778
 40
0.5277777777777778
 40
0.5555555555555556
 40
0.5555555555555556
 40
0.5555555555555556
 40
0.5555555555555556
 40
0.5833333333333334
 40
0.5833333333333334
 40
0.5833333333333334
 40
0.5833333333333334
 40
0.6111111111111112
 40
0.6111111111111112
 40
0.6111111111111112
 40
0.6111111111111112
 40
0.6388888888888888
 40
0.6388888888888888
 40
0.6388888888888888
 40
0.6388888888888888
 40
0.6666666666666666
 40
0.6666666666666666
 40
0.6666666666666666
 40
0.6666666666666666
 40
0.6944444444444444
 40
0.6944444444444444
 40
0.6944444444444444
 40
0.6944444444444444
 40
0.7222222222222222
 40
0.7222222222222222
 40
0.7222222222222222
 40
0.7222222222222222
 40
0.75
 40
0.75
 40
0.75
 40
0.75
 40
0.7777777777777778
 40
0.7777777777777778
 40
0.7777777777777778
 40
0.7777777777777778
 40
0.8055555555555556
 40
0.8055555555555556
 40
0.8055555555555556
 40
0.8055555555555556
 40
0.8333333333333334
 40
0.8333333333333334
 40
0.8333333333333334
 40
0.8333333333333334
 40
0.8611111111111112
 40
0.8611111111111112
 40
0.8611111111111112
 40
0.8611111111111112
 40
0.8888888888888888
 40
0.8888888888888888
 40
0.8888888888888888
 40
0.8888888888888888
 40
0.9166666666666666
 40
0.9166666666666666
 40
0.9166666666666666
 40
0.9166666666666666
 40
0.9444444444444444
 40
0.9444444444444444
 40
0.9444444444444444
 40
0.9444444444444444
 40
1.0
 40
1.0
 40
1.0
 40
1.0
 10
-5.92186
 20
-10.52213
 30
0.0
 10
-5.89803
 20
-10.53593
 30
0.0
 10
-5.8899
 20
-10.56646
 30
0.0
 10
-5.9037
 20
-10.59029
 30
0.0
 10
-5.9037
 20
-10.59029
 30
0.0
 10
-5.9175
 20
-10.61412
 30
0.0
 10
-5.94803
 20
-10.62225
 30
0.0
 10
-5.97186
 20
-10.60845
 30
0.0
 10
-5.97186
 20
-10.60845
 30
0.0
 10
-5.99093
 20
-10.59734
 30
0.0
 10
-6.01152
 20
-10.58556
 30
0.0
 10
-6.03389
 20
-10.57303
 30
0.0
 10
-6.03389
 20
-10.57303
 30
0.0
 10
-6.05788
 20
-10.55958
 30
0.0
 10
-6.07867
 20
-10.54814
 30
0.0
 10
-6.09605
 20
-10.53885
 30
0.0
 10
-6.09605
 20
-10.53885
 30
0.0
 10
-6.12463
 20
-10.52356
 30
0.0
 10
-6.15453
 20
-10.50817
 30
0.0
 10
-6.18589
 20
-10.49272
 30
0.0
 10
-6.18589
 20
-10.49272
 30
0.0
 10
-6.21768
 20
-10.47707
 30
0.0
 10
-6.24798
 20
-10.46279
 30
0.0
 10
-6.27654
 20
-10.4501
 30
0.0
 10
-6.27654
 20
-10.4501
 30
0.0
 10
-6.31725
 20
-10.43201
 30
0.0
 10
-6.35923
 20
-10.41381
 30
0.0
 10
-6.40546
 20
-10.39619
 30
0.0
 10
-6.40546
 20
-10.39619
 30
0.0
 10
-6.44887
 20
-10.37963
 30
0.0
 10
-6.49238
 20
-10.3652
 30
0.0
 10
-6.53554
 20
-10.3548
 30
0.0
 10
-6.53554
 20
-10.3548
 30
0.0
 10
-6.53554
 20
-10.3548
 30
0.0
 10
-6.53573
 20
-10.35475
 30
0.0
 10
-6.53573
 20
-10.35475
 30
0.0
 10
-6.53573
 20
-10.35475
 30
0.0
 10
-6.53573
 20
-10.35475
 30
0.0
 10
-6.53574
 20
-10.3548
 30
0.0
 10
-6.53574
 20
-10.3548
 30
0.0
 10
-6.53574
 20
-10.3548
 30
0.0
 10
-6.56385
 20
-10.34802
 30
0.0
 10
-6.59484
 20
-10.33904
 30
0.0
 10
-6.62753
 20
-10.32958
 30
0.0
 10
-6.62753
 20
-10.32958
 30
0.0
 10
-6.78127
 20
-10.28507
 30
0.0
 10
-6.97841
 20
-10.22799
 30
0.0
 10
-7.05558
 20
-10.36768
 30
0.0
 10
-7.05558
 20
-10.36768
 30
0.0
 10
-7.07333
 20
-10.39984
 30
0.0
 10
-7.07751
 20
-10.43945
 30
0.0
 10
-7.07471
 20
-10.48024
 30
0.0
 10
-7.07471
 20
-10.48024
 30
0.0
 10
-7.07162
 20
-10.52519
 30
0.0
 10
-7.06007
 20
-10.57163
 30
0.0
 10
-7.04805
 20
-10.61253
 30
0.0
 10
-7.04805
 20
-10.61253
 30
0.0
 10
-7.02777
 20
-10.68147
 30
0.0
 10
-6.99896
 20
-10.74739
 30
0.0
 10
-6.96525
 20
-10.81113
 30
0.0
 10
-6.96525
 20
-10.81113
 30
0.0
 10
-6.93113
 20
-10.87565
 30
0.0
 10
-6.89174
 20
-10.93826
 30
0.0
 10
-6.85093
 20
-10.99963
 30
0.0
 10
-6.85093
 20
-10.99963
 30
0.0
 10
-6.83314
 20
-11.02636
 30
0.0
 10
-6.82202
 20
-11.04452
 30
0.0
 10
-6.80723
 20
-11.06865
 30
0.0
 10
-6.80723
 20
-11.06865
 30
0.0
 10
-6.80723
 20
-11.06865
 30
0.0
 10
-6.79075
 20
-11.09561
 30
0.0
 10
-6.79075
 20
-11.09561
 30
0.0
 10
-6.79075
 20
-11.09561
 30
0.0
 10
-6.7763
 20
-11.11901
 30
0.0
 10
-6.78356
 20
-11.14971
 30
0.0
 10
-6.80696
 20
-11.16416
 30
0.0
 10
-6.80696
 20
-11.16416
 30
0.0
 10
-6.83036
 20
-11.17861
 30
0.0
 10
-6.86106
 20
-11.17135
 30
0.0
 10
-6.87551
 20
-11.14795
 30
0.0
 10
-6.87551
 20
-11.14795
 30
0.0
 10
-6.87551
 20
-11.14795
 30
0.0
 10
-6.89239
 20
-11.12061
 30
0.0
 10
-6.89239
 20
-11.12061
 30
0.0
 10
-6.89239
 20
-11.12061
 30
0.0
 10
-6.90641
 20
-11.09774
 30
0.0
 10
-6.91694
 20
-11.08054
 30
0.0
 10
-6.93413
 20
-11.05471
 30
0.0
 10
-6.93413
 20
-11.05471
 30
0.0
 10
-6.97642
 20
-10.9911
 30
0.0
 10
-7.01743
 20
-10.92587
 30
0.0
 10
-7.05353
 20
-10.85761
 30
0.0
 10
-7.05353
 20
-10.85761
 30
0.0
 10
-7.09004
 20
-10.78859
 30
0.0
 10
-7.12138
 20
-10.71669
 30
0.0
 10
-7.14375
 20
-10.64065
 30
0.0
 10
-7.14375
 20
-10.64065
 30
0.0
 10
-7.15743
 20
-10.59411
 30
0.0
 10
-7.17061
 20
-10.54071
 30
0.0
 10
-7.17431
 20
-10.48688
 30
0.0
 10
-7.17431
 20
-10.48688
 30
0.0
 10
-7.17828
 20
-10.42893
 30
0.0
 10
-7.17132
 20
-10.37079
 30
0.0
 10
-7.14308
 20
-10.31964
 30
0.0
 10
-7.14308
 20
-10.31964
 30
0.0
 10
-7.02732
 20
-10.1101
 30
0.0
 10
-6.78712
 20
-10.17964
 30
0.0
 10
-6.59979
 20
-10.23388
 30
0.0
 10
-6.59979
 20
-10.23388
 30
0.0
 10
-6.56862
 20
-10.2429
 30
0.0
 10
-6.53906
 20
-10.25147
 30
0.0
 10
-6.5123
 20
-10.25792
 30
0.0
 10
-6.5123
 20
-10.25792
 30
0.0
 10
-6.5123
 20
-10.25792
 30
0.0
 10
-6.51231
 20
-10.25797
 30
0.0
 10
-6.51231
 20
-10.25797
 30
0.0
 10
-6.51231
 20
-10.25797
 30
0.0
 10
-6.46268
 20
-10.26993
 30
0.0
 10
-6.41547
 20
-10.28546
 30
0.0
 10
-6.36992
 20
-10.30283
 30
0.0
 10
-6.36992
 20
-10.30283
 30
0.0
 10
-6.32711
 20
-10.31914
 30
0.0
 10
-6.28169
 20
-10.33891
 30
0.0
 10
-6.2363
 20
-10.35908
 30
0.0
 10
-6.2363
 20
-10.35908
 30
0.0
 10
-6.20264
 20
-10.37404
 30
0.0
 10
-6.17118
 20
-10.38877
 30
0.0
 10
-6.14175
 20
-10.40326
 30
0.0
 10
-6.14175
 20
-10.40326
 30
0.0
 10
-6.11189
 20
-10.41797
 30
0.0
 10
-6.08098
 20
-10.43393
 30
0.0
 10
-6.04917
 20
-10.45095
 30
0.0
 10
-6.04917
 20
-10.45095
 30
0.0
 10
-6.0243
 20
-10.46425
 30
0.0
 10
-6.00298
 20
-10.47589
 30
0.0
 10
-5.98507
 20
-10.48593
 30
0.0
 10
-5.98507
 20
-10.48593
 30
0.0
 10
-5.96556
 20
-10.49686
 30
0.0
 10
-5.94437
 20
-10.50901
 30
0.0
 10
-5.92186
 20
-10.52213
 30
0.0
  0
SPLINE
  5
45
330
1F
100
AcDbEntity
  8
Layer 1
 62
     5
100
AcDbSpline
210
0.0
220
0.0
230
1.0
 70
    11
 71
     3
 72
   156
 73
   152
 74
     0
 42
0.0000000001
 43
0.0000000001
 12
1.0
 22
0.0
 32
0.0
 13
1.0
 23
0.0
 33
0.0
 40
0.0
 40
0.0
 40
0.0
 40
0.0
 40
0.0256410256410256
 40
0.0256410256410256
 40
0.0256410256410256
 40
0.0256410256410256
 40
0.0512820512820513
 40
0.0512820512820513
 40
0.0512820512820513
 40
0.0512820512820513
 40
0.0769230769230769
 40
0.0769230769230769
 40
0.0769230769230769
 40
0.0769230769230769
 40
0.1025641025641026
 40
0.1025641025641026
 40
0.1025641025641026
 40
0.1025641025641026
 40
0.1282051282051282
 40
0.1282051282051282
 40
0.1282051282051282
 40
0.1282051282051282
 40
0.1538461538461539
 40
0.1538461538461539
 40
0.1538461538461539
 40
0.1538461538461539
 40
0.1794871794871795
 40
0.1794871794871795
 40
0.1794871794871795
 40
0.1794871794871795
 40
0.2051282051282051
 40
0.2051282051282051
 40
0.2051282051282051
 40
0.2051282051282051
 40
0.2307692307692308
 40
0.2307692307692308
 40
0.2307692307692308
 40
0.2307692307692308
 40
0.2564102564102564
 40
0.2564102564102564
 40
0.2564102564102564
 40
0.2564102564102564
 40
0.282051282051282
 40
0.282051282051282
 40
0.282051282051282
 40
0.282051282051282
 40
0.3076923076923077
 40
0.3076923076923077
 40
0.3076923076923077
 40
0.3076923076923077
 40
0.3333333333333333
 40
0.3333333333333333
 40
0.3333333333333333
 40
0.3333333333333333
 40
0.358974358974359
 40
0.358974358974359
 40
0.358974358974359
 40
0.358974358974359
 40
0.3846153846153846
 40
0.3846153846153846
 40
0.3846153846153846
 40
0.3846153846153846
 40
0.4102564102564102
 40
0.4102564102564102
 40
0.4102564102564102
 40
0.4102564102564102
 40
0.4358974358974359
 40
0.4358974358974359
 40
0.4358974358974359
 40
0.4358974358974359
 40
0.4615384615384616
 40
0.4615384615384616
 40
0.4615384615384616
 40
0.4615384615384616
 40
0.4871794871794872
 40
0.4871794871794872
 40
0.4871794871794872
 40
0.4871794871794872
 40
0.5128205128205128
 40
0.5128205128205128
 40
0.5128205128205128
 40
0.5128205128205128
 40
0.5384615384615384
 40
0.5384615384615384
 40
0.5384615384615384
 40
0.5384615384615384
 40
0.5641025641025641
 40
0.5641025641025641
 40
0.5641025641025641
 40
0.5641025641025641
 40
0.5897435897435898
 40
0.5897435897435898
 40
0.5897435897435898
 40
0.5897435897435898
 40
0.6153846153846154
 40
0.6153846153846154
 40
0.6153846153846154
 40
0.6153846153846154
 40
0.6410256410256411
 40
0.6410256410256411
 40
0.6410256410256411
 40
0.6410256410256411
 40
0.6666666666666666
 40
0.6666666666666666
 40
0.6666666666666666
 40
0.6666666666666666
 40
0.6923076923076923
 40
0.6923076923076923
 40
0.6923076923076923
 40
0.6923076923076923
 40
0.717948717948718
 40
0.717948717948718
 40
0.717948717948718
 40
0.717948717948718
 40
0.7435897435897436
 40
0.7435897435897436
 40
0.7435897435897436
 40
0.7435897435897436
 40
0.7692307692307693
 40
0.7692307692307693
 40
0.7692307692307693
 40
0.7692307692307693
 40
0.7948717948717948
 40
0.7948717948717948
 40
0.7948717948717948
 40
0.7948717948717948
 40
0.8205128205128205
 40
0.8205128205128205
 40
0.8205128205128205
 40
0.8205128205128205
 40
0.8461538461538461
 40
0.8461538461538461
 40
0.8461538461538461
 40
0.8461538461538461
 40
0.8717948717948718
 40
0.8717948717948718
 40
0.8717948717948718
 40
0.8717948717948718
 40
0.8974358974358975
 40
0.8974358974358975
 40
0.8974358974358975
 40
0.8974358974358975
 40
0.9230769230769231
 40
0.9230769230769231
 40
0.9230769230769231
 40
0.9230769230769231
 40
0.9487179487179487
 40
0.9487179487179487
 40
0.9487179487179487
 40
0.9487179487179487
 40
1.0
 40
1.0
 40
1.0
 40
1.0
 10
-5.46902
 20
-9.73649
 30
0.0
 10
-5.44152
 20
-9.73703
 30
0.0
 10
-5.41966
 20
-9.75977
 30
0.0
 10
-5.4202
 20
-9.78727
 30
0.0
 10
-5.4202
 20
-9.78727
 30
0.0
 10
-5.42074
 20
-9.81477
 30
0.0
 10
-5.44348
 20
-9.83663
 30
0.0
 10
-5.47098
 20
-9.83609
 30
0.0
 10
-5.47098
 20
-9.83609
 30
0.0
 10
-5.50442
 20
-9.83534
 30
0.0
 10
-5.53171
 20
-9.82949
 30
0.0
 10
-5.55866
 20
-9.82373
 30
0.0
 10
-5.55866
 20
-9.82373
 30
0.0
 10
-5.58684
 20
-9.81771
 30
0.0
 10
-5.61463
 20
-9.81177
 30
0.0
 10
-5.64259
 20
-9.81437
 30
0.0
 10
-5.64259
 20
-9.81437
 30
0.0
 10
-5.73023
 20
-9.82257
 30
0.0
 10
-5.81114
 20
-9.81731
 30
0.0
 10
-5.89184
 20
-9.81208
 30
0.0
 10
-5.89184
 20
-9.81208
 30
0.0
 10
-5.9446
 20
-9.80866
 30
0.0
 10
-5.99732
 20
-9.80523
 30
0.0
 10
-6.04819
 20
-9.80567
 30
0.0
 10
-6.04819
 20
-9.80567
 30
0.0
 10
-6.07815
 20
-9.80592
 30
0.0
 10
-6.11076
 20
-9.80465
 30
0.0
 10
-6.14552
 20
-9.8033
 30
0.0
 10
-6.14552
 20
-9.8033
 30
0.0
 10
-6.2434
 20
-9.79948
 30
0.0
 10
-6.35991
 20
-9.79494
 30
0.0
 10
-6.43926
 20
-9.82289
 30
0.0
 10
-6.43926
 20
-9.82289
 30
0.0
 10
-6.35986
 20
-9.91764
 30
0.0
 10
-6.25056
 20
-9.98717
 30
0.0
 10
-6.14522
 20
-10.05417
 30
0.0
 10
-6.14522
 20
-10.05417
 30
0.0
 10
-6.14402
 20
-10.05493
 30
0.0
 10
-6.14286
 20
-10.05574
 30
0.0
 10
-6.14175
 20
-10.05658
 30
0.0
 10
-6.14175
 20
-10.05658
 30
0.0
 10
-6.14175
 20
-10.05658
 30
0.0
 10
-6.12532
 20
-10.06704
 30
0.0
 10
-6.12532
 20
-10.06704
 30
0.0
 10
-6.12532
 20
-10.06704
 30
0.0
 10
-6.09863
 20
-10.08407
 30
0.0
 10
-6.08711
 20
-10.09162
 30
0.0
 10
-6.07579
 20
-10.09905
 30
0.0
 10
-6.07579
 20
-10.09905
 30
0.0
 10
-6.0746
 20
-10.09983
 30
0.0
 10
-6.07345
 20
-10.10065
 30
0.0
 10
-6.07235
 20
-10.10151
 30
0.0
 10
-6.07235
 20
-10.10151
 30
0.0
 10
-6.04022
 20
-10.12261
 30
0.0
 10
-6.00802
 20
-10.14366
 30
0.0
 10
-5.97551
 20
-10.1624
 30
0.0
 10
-5.97551
 20
-10.1624
 30
0.0
 10
-5.90981
 20
-10.20031
 30
0.0
 10
-5.85166
 20
-10.23836
 30
0.0
 10
-5.79352
 20
-10.2764
 30
0.0
 10
-5.79352
 20
-10.2764
 30
0.0
 10
-5.76032
 20
-10.29812
 30
0.0
 10
-5.7271
 20
-10.31986
 30
0.0
 10
-5.70121
 20
-10.33623
 30
0.0
 10
-5.70121
 20
-10.33623
 30
0.0
 10
-5.68966
 20
-10.34354
 30
0.0
 10
-5.68439
 20
-10.34758
 30
0.0
 10
-5.6798
 20
-10.35109
 30
0.0
 10
-5.6798
 20
-10.35109
 30
0.0
 10
-5.67614
 20
-10.3539
 30
0.0
 10
-5.67316
 20
-10.35618
 30
0.0
 10
-5.66422
 20
-10.36105
 30
0.0
 10
-5.66422
 20
-10.36105
 30
0.0
 10
-5.64006
 20
-10.37421
 30
0.0
 10
-5.63114
 20
-10.40447
 30
0.0
 10
-5.6443
 20
-10.42863
 30
0.0
 10
-5.6443
 20
-10.42863
 30
0.0
 10
-5.65746
 20
-10.45279
 30
0.0
 10
-5.68772
 20
-10.46171
 30
0.0
 10
-5.71188
 20
-10.44855
 30
0.0
 10
-5.71188
 20
-10.44855
 30
0.0
 10
-5.72838
 20
-10.43956
 30
0.0
 10
-5.73373
 20
-10.43545
 30
0.0
 10
-5.74034
 20
-10.43039
 30
0.0
 10
-5.74034
 20
-10.43039
 30
0.0
 10
-5.74358
 20
-10.42792
 30
0.0
 10
-5.74731
 20
-10.42505
 30
0.0
 10
-5.75433
 20
-10.42061
 30
0.0
 10
-5.75433
 20
-10.42061
 30
0.0
 10
-5.79109
 20
-10.39737
 30
0.0
 10
-5.81969
 20
-10.37866
 30
0.0
 10
-5.8482
 20
-10.36
 30
0.0
 10
-5.8482
 20
-10.36
 30
0.0
 10
-5.90772
 20
-10.32106
 30
0.0
 10
-5.96723
 20
-10.28212
 30
0.0
 10
-6.02511
 20
-10.24872
 30
0.0
 10
-6.02511
 20
-10.24872
 30
0.0
 10
-6.06027
 20
-10.22846
 30
0.0
 10
-6.09371
 20
-10.20658
 30
0.0
 10
-6.12705
 20
-10.1847
 30
0.0
 10
-6.12705
 20
-10.1847
 30
0.0
 10
-6.12821
 20
-10.18407
 30
0.0
 10
-6.12935
 20
-10.18338
 30
0.0
 10
-6.13047
 20
-10.18265
 30
0.0
 10
-6.13047
 20
-10.18265
 30
0.0
 10
-6.15172
 20
-10.16871
 30
0.0
 10
-6.17279
 20
-10.15488
 30
0.0
 10
-6.17884
 20
-10.15102
 30
0.0
 10
-6.17884
 20
-10.15102
 30
0.0
 10
-6.17884
 20
-10.15102
 30
0.0
 10
-6.19528
 20
-10.14055
 30
0.0
 10
-6.19528
 20
-10.14055
 30
0.0
 10
-6.19528
 20
-10.14055
 30
0.0
 10
-6.19645
 20
-10.13993
 30
0.0
 10
-6.1976
 20
-10.13927
 30
0.0
 10
-6.19874
 20
-10.13855
 30
0.0
 10
-6.19874
 20
-10.13855
 30
0.0
 10
-6.3287
 20
-10.05589
 30
0.0
 10
-6.46432
 20
-9.96963
 30
0.0
 10
-6.5561
 20
-9.83372
 30
0.0
 10
-6.5561
 20
-9.83372
 30
0.0
 10
-6.5561
 20
-9.83372
 30
0.0
 10
-6.55608
 20
-9.83371
 30
0.0
 10
-6.55608
 20
-9.83371
 30
0.0
 10
-6.55608
 20
-9.83371
 30
0.0
 10
-6.57108
 20
-9.8115
 30
0.0
 10
-6.56585
 20
-9.78121
 30
0.0
 10
-6.54399
 20
-9.76536
 30
0.0
 10
-6.54399
 20
-9.76536
 30
0.0
 10
-6.44262
 20
-9.69196
 30
0.0
 10
-6.27668
 20
-9.69844
 30
0.0
 10
-6.142
 20
-9.7037
 30
0.0
 10
-6.142
 20
-9.7037
 30
0.0
 10
-6.10764
 20
-9.70504
 30
0.0
 10
-6.07541
 20
-9.70629
 30
0.0
 10
-6.04897
 20
-9.70607
 30
0.0
 10
-6.04897
 20
-9.70607
 30
0.0
 10
-5.99188
 20
-9.70558
 30
0.0
 10
-5.93876
 20
-9.70903
 30
0.0
 10
-5.88558
 20
-9.71248
 30
0.0
 10
-5.88558
 20
-9.71248
 30
0.0
 10
-5.80818
 20
-9.7175
 30
0.0
 10
-5.73057
 20
-9.72254
 30
0.0
 10
-5.65157
 20
-9.71515
 30
0.0
 10
-5.65157
 20
-9.71515
 30
0.0
 10
-5.608
 20
-9.7111
 30
0.0
 10
-5.57324
 20
-9.71854
 30
0.0
 10
-5.53796
 20
-9.72607
 30
0.0
 10
-5.53796
 20
-9.72607
 30
0.0
 10
-5.51495
 20
-9.73099
 30
0.0
 10
-5.49164
 20
-9.73599
 30
0.0
 10
-5.46902
 20
-9.73649
 30
0.0
  0
SPLINE
  5
46
330
1F
100
AcDbEntity
  8
Layer 1
 62
     5
100
AcDbSpline
210
0.0
220
0.0
230
1.0
 70
    11
 71
     3
 72
    92
 73
    88
 74
     0
 42
0.0000000001
 43
0.0000000001
 12
1.0
 22
0.0
 32
0.0
 13
1.0
 23
0.0
 33
0.0
 40
0.0
 40
0.0
 40
0.0
 40
0.0
 40
0.0434782608695652
 40
0.0434782608695652
 40
0.0434782608695652
 40
0.0434782608695652
 40
0.0869565217391304
 40
0.0869565217391304
 40
0.0869565217391304
 40
0.0869565217391304
 40
0.1304347826086956
 40
0.1304347826086956
 40
0.1304347826086956
 40
0.1304347826086956
 40
0.1739130434782609
 40
0.1739130434782609
 40
0.1739130434782609
 40
0.1739130434782609
 40
0.2173913043478261
 40
0.2173913043478261
 40
0.2173913043478261
 40
0.2173913043478261
 40
0.2608695652173913
 40
0.2608695652173913
 40
0.2608695652173913
 40
0.2608695652173913
 40
0.3043478260869565
 40
0.3043478260869565
 40
0.3043478260869565
 40
0.3043478260869565
 40
0.3478260869565217
 40
0.3478260869565217
 40
0.3478260869565217
 40
0.3478260869565217
 40
0.391304347826087
 40
0.391304347826087
 40
0.391304347826087
 40
0.391304347826087
 40
0.4347826086956522
 40
0.4347826086956522
 40
0.4347826086956522
 40
0.4347826086956522
 40
0.4782608695652174
 40
0.4782608695652174
 40
0.4782608695652174
 40
0.4782608695652174
 40
0.5217391304347826
 40
0.5217391304347826
 40
0.5217391304347826
 40
0.5217391304347826
 40
0.5652173913043478
 40
0.5652173913043478
 40
0.5652173913043478
 40
0.5652173913043478
 40
0.6086956521739131
 40
0.6086956521739131
 40
0.6086956521739131
 40
0.6086956521739131
 40
0.6521739130434783
 40
0.6521739130434783
 40
0.6521739130434783
 40
0.6521739130434783
 40
0.6956521739130435
 40
0.6956521739130435
 40
0.6956521739130435
 40
0.6956521739130435
 40
0.7391304347826086
 40
0.7391304347826086
 40
0.7391304347826086
 40
0.7391304347826086
 40
0.782608695652174
 40
0.782608695652174
 40
0.782608695652174
 40
0.782608695652174
 40
0.8260869565217391
 40
0.8260869565217391
 40
0.8260869565217391
 40
0.8260869565217391
 40
0.8695652173913043
 40
0.8695652173913043
 40
0.8695652173913043
 40
0.8695652173913043
 40
0.9130434782608695
 40
0.9130434782608695
 40
0.9130434782608695
 40
0.9130434782608695
 40
1.0
 40
1.0
 40
1.0
 40
1.0
 10
-5.83294
 20
-8.77826
 30
0.0
 10
-5.81385
 20
-8.75842
 30
0.0
 10
-5.78227
 20
-8.7578
 30
0.0
 10
-5.76243
 20
-8.77689
 30
0.0
 10
-5.76243
 20
-8.77689
 30
0.0
 10
-5.74259
 20
-8.79598
 30
0.0
 10
-5.74197
 20
-8.82756
 30
0.0
 10
-5.76106
 20
-8.8474
 30
0.0
 10
-5.76106
 20
-8.8474
 30
0.0
 10
-5.76946
 20
-8.85609
 30
0.0
 10
-5.77807
 20
-8.86491
 30
0.0
 10
-5.78717
 20
-8.87399
 30
0.0
 10
-5.78717
 20
-8.87399
 30
0.0
 10
-5.79634
 20
-8.88315
 30
0.0
 10
-5.80544
 20
-8.89201
 30
0.0
 10
-5.81435
 20
-8.90028
 30
0.0
 10
-5.81435
 20
-8.90028
 30
0.0
 10
-5.85978
 20
-8.94252
 30
0.0
 10
-5.90338
 20
-8.9854
 30
0.0
 10
-5.94696
 20
-9.02826
 30
0.0
 10
-5.94696
 20
-9.02826
 30
0.0
 10
-6.00028
 20
-9.08071
 30
0.0
 10
-6.05363
 20
-9.13317
 30
0.0
 10
-6.11166
 20
-9.18569
 30
0.0
 10
-6.11166
 20
-9.18569
 30
0.0
 10
-6.17693
 20
-9.24478
 30
0.0
 10
-6.2423
 20
-9.30385
 30
0.0
 10
-6.30549
 20
-9.35846
 30
0.0
 10
-6.30549
 20
-9.35846
 30
0.0
 10
-6.33471
 20
-9.38371
 30
0.0
 10
-6.36411
 20
-9.40862
 30
0.0
 10
-6.39372
 20
-9.43302
 30
0.0
 10
-6.39372
 20
-9.43302
 30
0.0
 10
-6.22107
 20
-9.43452
 30
0.0
 10
-6.04539
 20
-9.44332
 30
0.0
 10
-5.87257
 20
-9.452
 30
0.0
 10
-5.87257
 20
-9.452
 30
0.0
 10
-5.69956
 20
-9.46067
 30
0.0
 10
-5.52939
 20
-9.46923
 30
0.0
 10
-5.37145
 20
-9.47011
 30
0.0
 10
-5.37145
 20
-9.47011
 30
0.0
 10
-5.34395
 20
-9.47022
 30
0.0
 10
-5.32174
 20
-9.49261
 30
0.0
 10
-5.32185
 20
-9.52011
 30
0.0
 10
-5.32185
 20
-9.52011
 30
0.0
 10
-5.32196
 20
-9.54761
 30
0.0
 10
-5.34435
 20
-9.56982
 30
0.0
 10
-5.37185
 20
-9.56971
 30
0.0
 10
-5.37185
 20
-9.56971
 30
0.0
 10
-5.53462
 20
-9.5688
 30
0.0
 10
-5.70451
 20
-9.56026
 30
0.0
 10
-5.87725
 20
-9.5516
 30
0.0
 10
-5.87725
 20
-9.5516
 30
0.0
 10
-6.0967
 20
-9.54059
 30
0.0
 10
-6.32079
 20
-9.52934
 30
0.0
 10
-6.53371
 20
-9.5332
 30
0.0
 10
-6.53371
 20
-9.5332
 30
0.0
 10
-6.55023
 20
-9.5346
 30
0.0
 10
-6.56709
 20
-9.52774
 30
0.0
 10
-6.57781
 20
-9.51354
 30
0.0
 10
-6.57781
 20
-9.51354
 30
0.0
 10
-6.59442
 20
-9.49154
 30
0.0
 10
-6.59005
 20
-9.46023
 30
0.0
 10
-6.56805
 20
-9.44362
 30
0.0
 10
-6.56805
 20
-9.44362
 30
0.0
 10
-6.50006
 20
-9.39232
 30
0.0
 10
-6.43467
 20
-9.33831
 30
0.0
 10
-6.37073
 20
-9.28306
 30
0.0
 10
-6.37073
 20
-9.28306
 30
0.0
 10
-6.3036
 20
-9.22505
 30
0.0
 10
-6.24086
 20
-9.16835
 30
0.0
 10
-6.17846
 20
-9.11187
 30
0.0
 10
-6.17846
 20
-9.11187
 30
0.0
 10
-6.12487
 20
-9.06337
 30
0.0
 10
-6.07087
 20
-9.01026
 30
0.0
 10
-6.01688
 20
-8.95716
 30
0.0
 10
-6.01688
 20
-8.95716
 30
0.0
 10
-5.97221
 20
-8.91323
 30
0.0
 10
-5.92751
 20
-8.86927
 30
0.0
 10
-5.88231
 20
-8.82724
 30
0.0
 10
-5.88231
 20
-8.82724
 30
0.0
 10
-5.87358
 20
-8.81913
 30
0.0
 10
-5.86536
 20
-8.81115
 30
0.0
 10
-5.85749
 20
-8.80329
 30
0.0
 10
-5.85749
 20
-8.80329
 30
0.0
 10
-5.84955
 20
-8.79537
 30
0.0
 10
-5.84128
 20
-8.78689
 30
0.0
 10
-5.83294
 20
-8.77826
 30
0.0
  0
ENDSEC
  0
SECTION
  2
OBJECTS
  0
DICTIONARY
  5
C
330
0
100
AcDbDictionary
281
     1
  3
ACAD_GROUP
350
D
  3
ACAD_LAYOUT
350
1A
  3
ACAD_MATERIAL
350
3B
  3
ACAD_MLEADERSTYLE
350
68
  3
ACAD_MLINESTYLE
350
17
  3
ACAD_PLOTSETTINGS
350
19
  3
ACAD_PLOTSTYLENAME
350
E
  3
ACAD_TABLESTYLE
350
67
  3
ACAD_VISUALSTYLE
350
2A
  0
DICTIONARY
  5
D
102
{ACAD_REACTORS
330
C
102
}
330
C
100
AcDbDictionary
281
     1
  0
DICTIONARY
  5
1A
102
{ACAD_REACTORS
330
C
102
}
330
C
100
AcDbDictionary
281
     1
  3
Layout1
350
1E
  3
Layout2
350
26
  3
Model
350
22
  0
DICTIONARY
  5
3B
102
{ACAD_REACTORS
330
C
102
}
330
C
100
AcDbDictionary
281
     1
  3
ByBlock
350
3D
  3
ByLayer
350
3C
  3
Global
350
3E
  0
DICTIONARY
  5
68
102
{ACAD_REACTORS
330
C
102
}
330
C
100
AcDbDictionary
281
     1
  0
DICTIONARY
  5
17
102
{ACAD_REACTORS
330
C
102
}
330
C
100
AcDbDictionary
281
     1
  3
Standard
350
18
  0
DICTIONARY
  5
19
102
{ACAD_REACTORS
330
C
102
}
330
C
100
AcDbDictionary
281
     1
  0
ACDBDICTIONARYWDFLT
  5
E
102
{ACAD_REACTORS
330
C
102
}
330
C
100
AcDbDictionary
281
     1
  3
Normal
350
F
100
AcDbDictionaryWithDefault
340
F
  0
DICTIONARY
  5
67
102
{ACAD_REACTORS
330
C
102
}
330
C
100
AcDbDictionary
281
     1
  0
DICTIONARY
  5
2A
102
{ACAD_REACTORS
330
C
102
}
330
C
100
AcDbDictionary
281
     1
  3
2dWireframe
350
2F
  3
3D Hidden
350
31
  3
3dWireframe
350
30
  3
Basic
350
32
  3
Brighten
350
36
  3
ColorChange
350
3A
  3
Conceptual
350
34
  3
Dim
350
35
  3
Facepattern
350
39
  3
Flat
350
2B
  3
FlatWithEdges
350
2C
  3
Gouraud
350
2D
  3
GouraudWithEdges
350
2E
  3
Linepattern
350
38
  3
Realistic
350
33
  3
Thicken
350
37
  0
LAYOUT
  5
1E
102
{ACAD_REACTORS
330
1A
102
}
330
1A
100
AcDbPlotSettings
  1

  2
none_device
  4

  6

 40
0.0
 41
0.0
 42
0.0
 43
0.0
 44
0.0
 45
0.0
 46
0.0
 47
0.0
 48
0.0
 49
0.0
140
0.0
141
0.0
142
1.0
143
1.0
 70
   688
 72
     0
 73
     0
 74
     5
  7

 75
    16
 76
     0
 77
     2
 78
   300
147
1.0
148
0.0
149
0.0
100
AcDbLayout
  1
Layout1
 70
     1
 71
     1
 10
0.0
 20
0.0
 11
12.0
 21
9.0
 12
0.0
 22
0.0
 32
0.0
 14
1.000000000000000E+20
 24
1.000000000000000E+20
 34
1.000000000000000E+20
 15
-1.000000000000000E+20
 25
-1.000000000000000E+20
 35
-1.000000000000000E+20
146
0.0
 13
0.0
 23
0.0
 33
0.0
 16
1.0
 26
0.0
 36
0.0
 17
0.0
 27
1.0
 37
0.0
 76
     0
330
1B
  0
LAYOUT
  5
26
102
{ACAD_REACTORS
330
1A
102
}
330
1A
100
AcDbPlotSettings
  1

  2
none_device
  4

  6

 40
0.0
 41
0.0
 42
0.0
 43
0.0
 44
0.0
 45
0.0
 46
0.0
 47
0.0
 48
0.0
 49
0.0
140
0.0
141
0.0
142
1.0
143
1.0
 70
   688
 72
     0
 73
     0
 74
     5
  7

 75
    16
 76
     0
 77
     2
 78
   300
147
1.0
148
0.0
149
0.0
100
AcDbLayout
  1
Layout2
 70
     1
 71
     2
 10
0.0
 20
0.0
 11
0.0
 21
0.0
 12
0.0
 22
0.0
 32
0.0
 14
0.0
 24
0.0
 34
0.0
 15
0.0
 25
0.0
 35
0.0
146
0.0
 13
0.0
 23
0.0
 33
0.0
 16
1.0
 26
0.0
 36
0.0
 17
0.0
 27
1.0
 37
0.0
 76
     0
330
23
  0
LAYOUT
  5
22
102
{ACAD_REACTORS
330
1A
102
}
330
1A
100
AcDbPlotSettings
  1

  2
none_device
  4

  6

 40
0.0
 41
0.0
 42
0.0
 43
0.0
 44
0.0
 45
0.0
 46
0.0
 47
0.0
 48
0.0
 49
0.0
140
0.0
141
0.0
142
1.0
143
1.0
 70
  1712
 72
     0
 73
     0
 74
     0
  7

 75
     0
 76
     0
 77
     2
 78
   300
147
1.0
148
0.0
149
0.0
100
AcDbLayout
  1
Model
 70
     1
 71
     0
 10
0.0
 20
0.0
 11
12.0
 21
9.0
 12
0.0
 22
0.0
 32
0.0
 14
-14.67812
 24
-11.17177
 34
0.0
 15
-5.32184
 25
-8.76296
 35
0.0
146
0.0
 13
0.0
 23
0.0
 33
0.0
 16
1.0
 26
0.0
 36
0.0
 17
0.0
 27
1.0
 37
0.0
 76
     0
330
1F
331
29
  0
MATERIAL
  5
3D
102
{ACAD_REACTORS
330
3B
102
}
330
3B
100
AcDbMaterial
  1
ByBlock
 72
     1
 94
      127
  0
MATERIAL
  5
3C
102
{ACAD_REACTORS
330
3B
102
}
330
3B
100
AcDbMaterial
  1
ByLayer
 72
     1
 94
      127
  0
MATERIAL
  5
3E
102
{ACAD_REACTORS
330
3B
102
}
330
3B
100
AcDbMaterial
  1
Global
 72
     1
 94
      127
  0
MLINESTYLE
  5
18
102
{ACAD_REACTORS
330
17
102
}
330
17
100
AcDbMlineStyle
  2
Standard
 70
     0
  3

 62
   256
 51
90.0
 52
90.0
 71
     2
 49
0.5
 62
   256
  6
BYLAYER
 49
-0.5
 62
   256
  6
BYLAYER
  0
ACDBPLACEHOLDER
  5
F
102
{ACAD_REACTORS
330
E
102
}
330
E
  0
VISUALSTYLE
  5
2F
102
{ACAD_REACTORS
330
2A
102
}
102
{ACAD_XDICTIONARY
360
4F
102
}
330
2A
100
AcDbVisualStyle
  2
2dWireframe
 70
     4
 71
     0
 72
     2
 73
     0
 90
        0
 40
-0.6
 41
-30.0
 62
     5
 63
     7
421
 16777215
 74
     1
 91
        4
 64
     7
 65
   257
 75
     1
175
     1
 42
1.0
 92
        0
 66
   257
 43
1.0
 76
     1
 77
     6
 78
     2
 67
     7
 79
     5
170
     0
171
     0
290
     0
174
     0
 93
        1
 44
0.0
173
     0
291
     0
 45
0.0
  0
VISUALSTYLE
  5
31
102
{ACAD_REACTORS
330
2A
102
}
102
{ACAD_XDICTIONARY
360
53
102
}
330
2A
100
AcDbVisualStyle
  2
3D Hidden
 70
     6
 71
     1
 72
     2
 73
     2
 90
        0
 40
-0.6
 41
-30.0
 62
     5
 63
     7
421
 16777215
 74
     2
 91
        2
 64
     7
 65
   257
 75
     2
175
     1
 42
40.0
 92
        0
 66
   257
 43
1.0
 76
     1
 77
     6
 78
     2
 67
     7
 79
     3
170
     0
171
     0
290
     0
174
     0
 93
        1
 44
0.0
173
     0
291
     0
 45
0.0
  0
VISUALSTYLE
  5
30
102
{ACAD_REACTORS
330
2A
102
}
102
{ACAD_XDICTIONARY
360
51
102
}
330
2A
100
AcDbVisualStyle
  2
3dWireframe
 70
     5
 71
     0
 72
     2
 73
     0
 90
        0
 40
-0.6
 41
-30.0
 62
     5
 63
     7
421
 16777215
 74
     1
 91
        4
 64
     7
 65
   257
 75
     1
175
     1
 42
1.0
 92
        0
 66
   257
 43
1.0
 76
     1
 77
     6
 78
     2
 67
     7
 79
     5
170
     0
171
     0
290
     0
174
     0
 93
        1
 44
0.0
173
     0
291
     0
 45
0.0
  0
VISUALSTYLE
  5
32
102
{ACAD_REACTORS
330
2A
102
}
102
{ACAD_XDICTIONARY
360
55
102
}
330
2A
100
AcDbVisualStyle
  2
Basic
 70
     7
 71
     1
 72
     0
 73
     1
 90
        0
 40
-0.6
 41
-30.0
 62
     5
 63
     7
421
 16777215
 74
     0
 91
        4
 64
     7
 65
   257
 75
     1
175
     1
 42
1.0
 92
        8
 66
     7
 43
1.0
 76
     1
 77
     6
 78
     2
 67
     7
 79
     5
170
     0
171
     0
290
     0
174
     0
 93
        1
 44
0.0
173
     0
291
     1
 45
0.0
  0
VISUALSTYLE
  5
36
102
{ACAD_REACTORS
330
2A
102
}
102
{ACAD_XDICTIONARY
360
5D
102
}
330
2A
100
AcDbVisualStyle
  2
Brighten
 70
    12
 71
     2
 72
     2
 73
     0
 90
        0
 40
-0.6
 41
-30.0
 62
     5
 63
     7
421
 16777215
 74
     1
 91
        4
 64
     7
 65
   257
 75
     1
175
     1
 42
1.0
 92
        8
 66
     7
 43
1.0
 76
     1
 77
     6
 78
     2
 67
     7
 79
     5
170
     0
171
     0
290
     0
174
     0
 93
        1
 44
50.0
173
     0
291
     1
 45
0.0
  0
VISUALSTYLE
  5
3A
102
{ACAD_REACTORS
330
2A
102
}
102
{ACAD_XDICTIONARY
360
65
102
}
330
2A
100
AcDbVisualStyle
  2
ColorChange
 70
    16
 71
     2
 72
     2
 73
     3
 90
        0
 40
-0.6
 41
-30.0
 62
     5
 63
     8
421
  8421504
 74
     1
 91
        4
 64
     7
 65
   257
 75
     1
175
     1
 42
1.0
 92
        8
 66
     8
424
  8421504
 43
1.0
 76
     1
 77
     6
 78
     2
 67
     7
 79
     5
170
     0
171
     0
290
     0
174
     0
 93
        1
 44
0.0
173
     0
291
     1
 45
0.0
  0
VISUALSTYLE
  5
34
102
{ACAD_REACTORS
330
2A
102
}
102
{ACAD_XDICTIONARY
360
59
102
}
330
2A
100
AcDbVisualStyle
  2
Conceptual
 70
     9
 71
     3
 72
     2
 73
     0
 90
        0
 40
-0.6
 41
-30.0
 62
     5
 63
     7
421
 16777215
 74
     2
 91
        2
 64
     7
 65
   257
 75
     1
175
     1
 42
40.0
 92
        8
 66
     7
 43
1.0
 76
     1
 77
     6
 78
     2
 67
     7
 79
     3
170
     0
171
     0
290
     0
174
     0
 93
        1
 44
0.0
173
     0
291
     0
 45
0.0
  0
VISUALSTYLE
  5
35
102
{ACAD_REACTORS
330
2A
102
}
102
{ACAD_XDICTIONARY
360
5B
102
}
330
2A
100
AcDbVisualStyle
  2
Dim
 70
    11
 71
     2
 72
     2
 73
     0
 90
        0
 40
-0.6
 41
-30.0
 62
     5
 63
     7
421
 16777215
 74
     1
 91
        4
 64
     7
 65
   257
 75
     1
175
     1
 42
1.0
 92
        8
 66
     7
 43
1.0
 76
     1
 77
     6
 78
     2
 67
     7
 79
     5
170
     0
171
     0
290
     0
174
     0
 93
        1
 44
-50.0
173
     0
291
     1
 45
0.0
  0
VISUALSTYLE
  5
39
102
{ACAD_REACTORS
330
2A
102
}
102
{ACAD_XDICTIONARY
360
63
102
}
330
2A
100
AcDbVisualStyle
  2
Facepattern
 70
    15
 71
     2
 72
     2
 73
     0
 90
        0
 40
-0.6
 41
-30.0
 62
     5
 63
     7
421
 16777215
 74
     1
 91
        4
 64
     7
 65
   257
 75
     1
175
     1
 42
1.0
 92
        8
 66
     7
 43
1.0
 76
     1
 77
     6
 78
     2
 67
     7
 79
     5
170
     0
171
     0
290
     0
174
     0
 93
        1
 44
0.0
173
     0
291
     1
 45
0.0
  0
VISUALSTYLE
  5
2B
102
{ACAD_REACTORS
330
2A
102
}
102
{ACAD_XDICTIONARY
360
47
102
}
330
2A
100
AcDbVisualStyle
  2
Flat
 70
     0
 71
     2
 72
     1
 73
     1
 90
        2
 40
-0.6
 41
30.0
 62
     5
 63
     7
421
 16777215
 74
     0
 91
        4
 64
     7
 65
   257
 75
     1
175
     1
 42
1.0
 92
        8
 66
     7
 43
1.0
 76
     1
 77
     6
 78
     2
 67
     7
 79
     5
170
     0
171
     0
290
     0
174
     0
 93
       13
 44
0.0
173
     0
291
     1
 45
0.0
  0
VISUALSTYLE
  5
2C
102
{ACAD_REACTORS
330
2A
102
}
102
{ACAD_XDICTIONARY
360
49
102
}
330
2A
100
AcDbVisualStyle
  2
FlatWithEdges
 70
     1
 71
     2
 72
     1
 73
     1
 90
        2
 40
-0.6
 41
30.0
 62
     5
 63
     7
421
 16777215
 74
     1
 91
        4
 64
     7
 65
   257
 75
     1
175
     1
 42
1.0
 92
        0
 66
   257
 43
1.0
 76
     1
 77
     6
 78
     2
 67
     7
 79
     5
170
     0
171
     0
290
     0
174
     0
 93
       13
 44
0.0
173
     0
291
     1
 45
0.0
  0
VISUALSTYLE
  5
2D
102
{ACAD_REACTORS
330
2A
102
}
102
{ACAD_XDICTIONARY
360
4B
102
}
330
2A
100
AcDbVisualStyle
  2
Gouraud
 70
     2
 71
     2
 72
     2
 73
     1
 90
        2
 40
-0.6
 41
30.0
 62
     5
 63
     7
421
 16777215
 74
     0
 91
        4
 64
     7
 65
   257
 75
     1
175
     1
 42
1.0
 92
        0
 66
     7
 43
1.0
 76
     1
 77
     6
 78
     2
 67
     7
 79
     5
170
     0
171
     0
290
     0
174
     0
 93
       13
 44
0.0
173
     0
291
     1
 45
0.0
  0
VISUALSTYLE
  5
2E
102
{ACAD_REACTORS
330
2A
102
}
102
{ACAD_XDICTIONARY
360
4D
102
}
330
2A
100
AcDbVisualStyle
  2
GouraudWithEdges
 70
     3
 71
     2
 72
     2
 73
     1
 90
        2
 40
-0.6
 41
30.0
 62
     5
 63
     7
421
 16777215
 74
     1
 91
        4
 64
     7
 65
   257
 75
     1
175
     1
 42
1.0
 92
        0
 66
   257
 43
1.0
 76
     1
 77
     6
 78
     2
 67
     7
 79
     5
170
     0
171
     0
290
     0
174
     0
 93
       13
 44
0.0
173
     0
291
     1
 45
0.0
  0
VISUALSTYLE
  5
38
102
{ACAD_REACTORS
330
2A
102
}
102
{ACAD_XDICTIONARY
360
61
102
}
330
2A
100
AcDbVisualStyle
  2
Linepattern
 70
    14
 71
     2
 72
     2
 73
     0
 90
        0
 40
-0.6
 41
-30.0
 62
     5
 63
     7
421
 16777215
 74
     1
 91
        4
 64
     7
 65
   257
 75
     7
175
     7
 42
1.0
 92
        8
 66
     7
 43
1.0
 76
     1
 77
     6
 78
     2
 67
     7
 79
     5
170
     0
171
     0
290
     0
174
     0
 93
        1
 44
0.0
173
     0
291
     1
 45
0.0
  0
VISUALSTYLE
  5
33
102
{ACAD_REACTORS
330
2A
102
}
102
{ACAD_XDICTIONARY
360
57
102
}
330
2A
100
AcDbVisualStyle
  2
Realistic
 70
     8
 71
     2
 72
     2
 73
     0
 90
        0
 40
-0.6
 41
-30.0
 62
     5
 63
     7
421
 16777215
 74
     1
 91
        0
 64
     7
 65
   257
 75
     1
175
     1
 42
1.0
 92
        8
 66
     8
424
  7895160
 43
1.0
 76
     1
 77
     6
 78
     2
 67
     7
 79
     5
170
     0
171
     0
290
     0
174
     0
 93
       13
 44
0.0
173
     0
291
     0
 45
0.0
  0
VISUALSTYLE
  5
37
102
{ACAD_REACTORS
330
2A
102
}
102
{ACAD_XDICTIONARY
360
5F
102
}
330
2A
100
AcDbVisualStyle
  2
Thicken
 70
    13
 71
     2
 72
     2
 73
     0
 90
        0
 40
-0.6
 41
-30.0
 62
     5
 63
     7
421
 16777215
 74
     1
 91
        4
 64
     7
 65
   257
 75
     1
175
     1
 42
1.0
 92
       12
 66
     7
 43
1.0
 76
     1
 77
     6
 78
     2
 67
     7
 79
     5
170
     0
171
     0
290
     0
174
     0
 93
        1
 44
0.0
173
     0
291
     1
 45
0.0
  0
DICTIONARY
  5
4F
330
2F
100
AcDbDictionary
280
     1
281
     1
  3
ACAD_XREC_ROUNDTRIP
360
50
  0
DICTIONARY
  5
53
330
31
100
AcDbDictionary
280
     1
281
     1
  3
ACAD_XREC_ROUNDTRIP
360
54
  0
DICTIONARY
  5
51
330
30
100
AcDbDictionary
280
     1
281
     1
  3
ACAD_XREC_ROUNDTRIP
360
52
  0
DICTIONARY
  5
55
330
32
100
AcDbDictionary
280
     1
281
     1
  3
ACAD_XREC_ROUNDTRIP
360
56
  0
DICTIONARY
  5
5D
330
36
100
AcDbDictionary
280
     1
281
     1
  3
ACAD_XREC_ROUNDTRIP
360
5E
  0
DICTIONARY
  5
65
330
3A
100
AcDbDictionary
280
     1
281
     1
  3
ACAD_XREC_ROUNDTRIP
360
66
  0
DICTIONARY
  5
59
330
34
100
AcDbDictionary
280
     1
281
     1
  3
ACAD_XREC_ROUNDTRIP
360
5A
  0
DICTIONARY
  5
5B
330
35
100
AcDbDictionary
280
     1
281
     1
  3
ACAD_XREC_ROUNDTRIP
360
5C
  0
DICTIONARY
  5
63
330
39
100
AcDbDictionary
280
     1
281
     1
  3
ACAD_XREC_ROUNDTRIP
360
64
  0
DICTIONARY
  5
47
330
2B
100
AcDbDictionary
280
     1
281
     1
  3
ACAD_XREC_ROUNDTRIP
360
48
  0
DICTIONARY
  5
49
330
2C
100
AcDbDictionary
280
     1
281
     1
  3
ACAD_XREC_ROUNDTRIP
360
4A
  0
DICTIONARY
  5
4B
330
2D
100
AcDbDictionary
280
     1
281
     1
  3
ACAD_XREC_ROUNDTRIP
360
4C
  0
DICTIONARY
  5
4D
330
2E
100
AcDbDictionary
280
     1
281
     1
  3
ACAD_XREC_ROUNDTRIP
360
4E
  0
DICTIONARY
  5
61
330
38
100
AcDbDictionary
280
     1
281
     1
  3
ACAD_XREC_ROUNDTRIP
360
62
  0
DICTIONARY
  5
57
330
33
100
AcDbDictionary
280
     1
281
     1
  3
ACAD_XREC_ROUNDTRIP
360
58
  0
DICTIONARY
  5
5F
330
37
100
AcDbDictionary
280
     1
281
     1
  3
ACAD_XREC_ROUNDTRIP
360
60
  0
XRECORD
  5
50
102
{ACAD_REACTORS
330
4F
102
}
330
4F
100
AcDbXrecord
280
     1
102
RTVSPropertyOp0
 70
     1
102
RTVSPropertyOp1
 70
     1
102
RTVSPropertyOp2
 70
     1
102
RTVSPropertyOp3
 70
     1
102
RTVSPropertyOp4
 70
     1
102
RTVSPropertyOp5
 70
     1
102
RTVSPropertyOp6
 70
     1
102
RTVSPropertyOp7
 70
     1
102
RTVSPropertyOp8
 70
     1
102
RTVSPropertyOp9
 70
     1
102
RTVSPropertyOp10
 70
     1
102
RTVSPropertyOp11
 70
     1
102
RTVSPropertyOp12
 70
     1
102
RTVSPropertyOp13
 70
     1
102
RTVSPropertyOp14
 70
     1
102
RTVSPropertyOp15
 70
     1
102
RTVSPropertyOp16
 70
     1
102
RTVSPropertyOp17
 70
     1
102
RTVSPropertyOp18
 70
     1
102
RTVSPropertyOp19
 70
     1
102
RTVSPropertyOp20
 70
     1
102
RTVSPropertyOp21
 70
     1
102
RTVSPropertyOp22
 70
     1
102
RTVSPropertyOp23
 70
     1
102
RTVSPropertyOp24
 70
     1
102
RTVSPropertyOp25
 70
     1
102
RTVSPropertyOp26
 70
     1
102
RTVSPropertyOp27
 70
     1
102
RTVSPropertyOp28
 70
     1
102
RTVSPropertyOp29
 70
     1
102
RTVSPropertyOp30
 70
     1
102
RTVSPropertyOp31
 70
     1
102
RTVSPropertyOp32
 70
     1
  0
XRECORD
  5
54
102
{ACAD_REACTORS
330
53
102
}
330
53
100
AcDbXrecord
280
     1
102
RTVSPropertyOp0
 70
     1
102
RTVSPropertyOp1
 70
     1
102
RTVSPropertyOp2
 70
     1
102
RTVSPropertyOp3
 70
     1
102
RTVSPropertyOp4
 70
     1
102
RTVSPropertyOp5
 70
     1
102
RTVSPropertyOp6
 70
     1
102
RTVSPropertyOp7
 70
     1
102
RTVSPropertyOp8
 70
     1
102
RTVSPropertyOp9
 70
     1
102
RTVSPropertyOp10
 70
     1
102
RTVSPropertyOp11
 70
     1
102
RTVSPropertyOp12
 70
     1
102
RTVSPropertyOp13
 70
     1
102
RTVSPropertyOp14
 70
     1
102
RTVSPropertyOp15
 70
     1
102
RTVSPropertyOp16
 70
     1
102
RTVSPropertyOp17
 70
     1
102
RTVSPropertyOp18
 70
     1
102
RTVSPropertyOp19
 70
     1
102
RTVSPropertyOp20
 70
     1
102
RTVSPropertyOp21
 70
     1
102
RTVSPropertyOp22
 70
     1
102
RTVSPropertyOp23
 70
     1
102
RTVSPropertyOp24
 70
     1
102
RTVSPropertyOp25
 70
     1
102
RTVSPropertyOp26
 70
     1
102
RTVSPropertyOp27
 70
     1
102
RTVSPropertyOp28
 70
     1
102
RTVSPropertyOp29
 70
     1
102
RTVSPropertyOp30
 70
     1
102
RTVSPropertyOp31
 70
     1
102
RTVSPropertyOp32
 70
     1
  0
XRECORD
  5
52
102
{ACAD_REACTORS
330
51
102
}
330
51
100
AcDbXrecord
280
     1
102
RTVSPropertyOp0
 70
     1
102
RTVSPropertyOp1
 70
     1
102
RTVSPropertyOp2
 70
     1
102
RTVSPropertyOp3
 70
     1
102
RTVSPropertyOp4
 70
     1
102
RTVSPropertyOp5
 70
     1
102
RTVSPropertyOp6
 70
     1
102
RTVSPropertyOp7
 70
     1
102
RTVSPropertyOp8
 70
     1
102
RTVSPropertyOp9
 70
     1
102
RTVSPropertyOp10
 70
     1
102
RTVSPropertyOp11
 70
     1
102
RTVSPropertyOp12
 70
     1
102
RTVSPropertyOp13
 70
     1
102
RTVSPropertyOp14
 70
     1
102
RTVSPropertyOp15
 70
     1
102
RTVSPropertyOp16
 70
     1
102
RTVSPropertyOp17
 70
     1
102
RTVSPropertyOp18
 70
     1
102
RTVSPropertyOp19
 70
     1
102
RTVSPropertyOp20
 70
     1
102
RTVSPropertyOp21
 70
     1
102
RTVSPropertyOp22
 70
     1
102
RTVSPropertyOp23
 70
     1
102
RTVSPropertyOp24
 70
     1
102
RTVSPropertyOp25
 70
     1
102
RTVSPropertyOp26
 70
     1
102
RTVSPropertyOp27
 70
     1
102
RTVSPropertyOp28
 70
     1
102
RTVSPropertyOp29
 70
     1
102
RTVSPropertyOp30
 70
     1
102
RTVSPropertyOp31
 70
     1
102
RTVSPropertyOp32
 70
     1
  0
XRECORD
  5
56
102
{ACAD_REACTORS
330
55
102
}
330
55
100
AcDbXrecord
280
     1
102
RTVSPropertyOp0
 70
     1
102
RTVSPropertyOp1
 70
     1
102
RTVSPropertyOp2
 70
     1
102
RTVSPropertyOp3
 70
     1
102
RTVSPropertyOp4
 70
     1
102
RTVSPropertyOp5
 70
     1
102
RTVSPropertyOp6
 70
     1
102
RTVSPropertyOp7
 70
     1
102
RTVSPropertyOp8
 70
     1
102
RTVSPropertyOp9
 70
     1
102
RTVSPropertyOp10
 70
     1
102
RTVSPropertyOp11
 70
     1
102
RTVSPropertyOp12
 70
     1
102
RTVSPropertyOp13
 70
     1
102
RTVSPropertyOp14
 70
     1
102
RTVSPropertyOp15
 70
     1
102
RTVSPropertyOp16
 70
     1
102
RTVSPropertyOp17
 70
     1
102
RTVSPropertyOp18
 70
     1
102
RTVSPropertyOp19
 70
     1
102
RTVSPropertyOp20
 70
     1
102
RTVSPropertyOp21
 70
     1
102
RTVSPropertyOp22
 70
     1
102
RTVSPropertyOp23
 70
     1
102
RTVSPropertyOp24
 70
     1
102
RTVSPropertyOp25
 70
     1
102
RTVSPropertyOp26
 70
     1
102
RTVSPropertyOp27
 70
     1
102
RTVSPropertyOp28
 70
     1
102
RTVSPropertyOp29
 70
     1
102
RTVSPropertyOp30
 70
     1
102
RTVSPropertyOp31
 70
     1
102
RTVSPropertyOp32
 70
     1
  0
XRECORD
  5
5E
102
{ACAD_REACTORS
330
5D
102
}
330
5D
100
AcDbXrecord
280
     1
102
RTVSPropertyOp0
 70
     1
102
RTVSPropertyOp1
 70
     1
102
RTVSPropertyOp2
 70
     1
102
RTVSPropertyOp3
 70
     1
102
RTVSPropertyOp4
 70
     1
102
RTVSPropertyOp5
 70
     1
102
RTVSPropertyOp6
 70
     1
102
RTVSPropertyOp7
 70
     1
102
RTVSPropertyOp8
 70
     1
102
RTVSPropertyOp9
 70
     1
102
RTVSPropertyOp10
 70
     1
102
RTVSPropertyOp11
 70
     1
102
RTVSPropertyOp12
 70
     1
102
RTVSPropertyOp13
 70
     1
102
RTVSPropertyOp14
 70
     1
102
RTVSPropertyOp15
 70
     1
102
RTVSPropertyOp16
 70
     1
102
RTVSPropertyOp17
 70
     1
102
RTVSPropertyOp18
 70
     1
102
RTVSPropertyOp19
 70
     1
102
RTVSPropertyOp20
 70
     1
102
RTVSPropertyOp21
 70
     1
102
RTVSPropertyOp22
 70
     1
102
RTVSPropertyOp23
 70
     1
102
RTVSPropertyOp24
 70
     1
102
RTVSPropertyOp25
 70
     1
102
RTVSPropertyOp26
 70
     1
102
RTVSPropertyOp27
 70
     1
102
RTVSPropertyOp28
 70
     1
102
RTVSPropertyOp29
 70
     1
102
RTVSPropertyOp30
 70
     1
102
RTVSPropertyOp31
 70
     1
102
RTVSPropertyOp32
 70
     1
  0
XRECORD
  5
66
102
{ACAD_REACTORS
330
65
102
}
330
65
100
AcDbXrecord
280
     1
102
RTVSPropertyOp0
 70
     1
102
RTVSPropertyOp1
 70
     1
102
RTVSPropertyOp2
 70
     1
102
RTVSPropertyOp3
 70
     1
102
RTVSPropertyOp4
 70
     1
102
RTVSPropertyOp5
 70
     1
102
RTVSPropertyOp6
 70
     1
102
RTVSPropertyOp7
 70
     1
102
RTVSPropertyOp8
 70
     1
102
RTVSPropertyOp9
 70
     1
102
RTVSPropertyOp10
 70
     1
102
RTVSPropertyOp11
 70
     1
102
RTVSPropertyOp12
 70
     1
102
RTVSPropertyOp13
 70
     1
102
RTVSPropertyOp14
 70
     1
102
RTVSPropertyOp15
 70
     1
102
RTVSPropertyOp16
 70
     1
102
RTVSPropertyOp17
 70
     1
102
RTVSPropertyOp18
 70
     1
102
RTVSPropertyOp19
 70
     1
102
RTVSPropertyOp20
 70
     1
102
RTVSPropertyOp21
 70
     1
102
RTVSPropertyOp22
 70
     1
102
RTVSPropertyOp23
 70
     1
102
RTVSPropertyOp24
 70
     1
102
RTVSPropertyOp25
 70
     1
102
RTVSPropertyOp26
 70
     1
102
RTVSPropertyOp27
 70
     1
102
RTVSPropertyOp28
 70
     1
102
RTVSPropertyOp29
 70
     1
102
RTVSPropertyOp30
 70
     1
102
RTVSPropertyOp31
 70
     1
102
RTVSPropertyOp32
 70
     1
  0
XRECORD
  5
5A
102
{ACAD_REACTORS
330
59
102
}
330
59
100
AcDbXrecord
280
     1
102
RTVSPropertyOp0
 70
     1
102
RTVSPropertyOp1
 70
     1
102
RTVSPropertyOp2
 70
     1
102
RTVSPropertyOp3
 70
     1
102
RTVSPropertyOp4
 70
     1
102
RTVSPropertyOp5
 70
     1
102
RTVSPropertyOp6
 70
     1
102
RTVSPropertyOp7
 70
     1
102
RTVSPropertyOp8
 70
     1
102
RTVSPropertyOp9
 70
     1
102
RTVSPropertyOp10
 70
     1
102
RTVSPropertyOp11
 70
     1
102
RTVSPropertyOp12
 70
     1
102
RTVSPropertyOp13
 70
     1
102
RTVSPropertyOp14
 70
     1
102
RTVSPropertyOp15
 70
     1
102
RTVSPropertyOp16
 70
     1
102
RTVSPropertyOp17
 70
     1
102
RTVSPropertyOp18
 70
     1
102
RTVSPropertyOp19
 70
     1
102
RTVSPropertyOp20
 70
     1
102
RTVSPropertyOp21
 70
     1
102
RTVSPropertyOp22
 70
     1
102
RTVSPropertyOp23
 70
     1
102
RTVSPropertyOp24
 70
     1
102
RTVSPropertyOp25
 70
     1
102
RTVSPropertyOp26
 70
     1
102
RTVSPropertyOp27
 70
     1
102
RTVSPropertyOp28
 70
     1
102
RTVSPropertyOp29
 70
     1
102
RTVSPropertyOp30
 70
     1
102
RTVSPropertyOp31
 70
     1
102
RTVSPropertyOp32
 70
     1
  0
XRECORD
  5
5C
102
{ACAD_REACTORS
330
5B
102
}
330
5B
100
AcDbXrecord
280
     1
102
RTVSPropertyOp0
 70
     1
102
RTVSPropertyOp1
 70
     1
102
RTVSPropertyOp2
 70
     1
102
RTVSPropertyOp3
 70
     1
102
RTVSPropertyOp4
 70
     1
102
RTVSPropertyOp5
 70
     1
102
RTVSPropertyOp6
 70
     1
102
RTVSPropertyOp7
 70
     1
102
RTVSPropertyOp8
 70
     1
102
RTVSPropertyOp9
 70
     1
102
RTVSPropertyOp10
 70
     1
102
RTVSPropertyOp11
 70
     1
102
RTVSPropertyOp12
 70
     1
102
RTVSPropertyOp13
 70
     1
102
RTVSPropertyOp14
 70
     1
102
RTVSPropertyOp15
 70
     1
102
RTVSPropertyOp16
 70
     1
102
RTVSPropertyOp17
 70
     1
102
RTVSPropertyOp18
 70
     1
102
RTVSPropertyOp19
 70
     1
102
RTVSPropertyOp20
 70
     1
102
RTVSPropertyOp21
 70
     1
102
RTVSPropertyOp22
 70
     1
102
RTVSPropertyOp23
 70
     1
102
RTVSPropertyOp24
 70
     1
102
RTVSPropertyOp25
 70
     1
102
RTVSPropertyOp26
 70
     1
102
RTVSPropertyOp27
 70
     1
102
RTVSPropertyOp28
 70
     1
102
RTVSPropertyOp29
 70
     1
102
RTVSPropertyOp30
 70
     1
102
RTVSPropertyOp31
 70
     1
102
RTVSPropertyOp32
 70
     1
  0
XRECORD
  5
64
102
{ACAD_REACTORS
330
63
102
}
330
63
100
AcDbXrecord
280
     1
102
RTVSPropertyOp0
 70
     1
102
RTVSPropertyOp1
 70
     1
102
RTVSPropertyOp2
 70
     1
102
RTVSPropertyOp3
 70
     1
102
RTVSPropertyOp4
 70
     1
102
RTVSPropertyOp5
 70
     1
102
RTVSPropertyOp6
 70
     1
102
RTVSPropertyOp7
 70
     1
102
RTVSPropertyOp8
 70
     1
102
RTVSPropertyOp9
 70
     1
102
RTVSPropertyOp10
 70
     1
102
RTVSPropertyOp11
 70
     1
102
RTVSPropertyOp12
 70
     1
102
RTVSPropertyOp13
 70
     1
102
RTVSPropertyOp14
 70
     1
102
RTVSPropertyOp15
 70
     1
102
RTVSPropertyOp16
 70
     1
102
RTVSPropertyOp17
 70
     1
102
RTVSPropertyOp18
 70
     1
102
RTVSPropertyOp19
 70
     1
102
RTVSPropertyOp20
 70
     1
102
RTVSPropertyOp21
 70
     1
102
RTVSPropertyOp22
 70
     1
102
RTVSPropertyOp23
 70
     1
102
RTVSPropertyOp24
 70
     1
102
RTVSPropertyOp25
 70
     1
102
RTVSPropertyOp26
 70
     1
102
RTVSPropertyOp27
 70
     1
102
RTVSPropertyOp28
 70
     1
102
RTVSPropertyOp29
 70
     1
102
RTVSPropertyOp30
 70
     1
102
RTVSPropertyOp31
 70
     1
102
RTVSPropertyOp32
 70
     1
  0
XRECORD
  5
48
102
{ACAD_REACTORS
330
47
102
}
330
47
100
AcDbXrecord
280
     1
102
RTVSPropertyOp0
 70
     1
102
RTVSPropertyOp1
 70
     1
102
RTVSPropertyOp2
 70
     1
102
RTVSPropertyOp3
 70
     1
102
RTVSPropertyOp4
 70
     1
102
RTVSPropertyOp5
 70
     1
102
RTVSPropertyOp6
 70
     1
102
RTVSPropertyOp7
 70
     1
102
RTVSPropertyOp8
 70
     1
102
RTVSPropertyOp9
 70
     1
102
RTVSPropertyOp10
 70
     1
102
RTVSPropertyOp11
 70
     1
102
RTVSPropertyOp12
 70
     1
102
RTVSPropertyOp13
 70
     1
102
RTVSPropertyOp14
 70
     1
102
RTVSPropertyOp15
 70
     1
102
RTVSPropertyOp16
 70
     1
102
RTVSPropertyOp17
 70
     1
102
RTVSPropertyOp18
 70
     1
102
RTVSPropertyOp19
 70
     1
102
RTVSPropertyOp20
 70
     1
102
RTVSPropertyOp21
 70
     1
102
RTVSPropertyOp22
 70
     1
102
RTVSPropertyOp23
 70
     1
102
RTVSPropertyOp24
 70
     1
102
RTVSPropertyOp25
 70
     1
102
RTVSPropertyOp26
 70
     1
102
RTVSPropertyOp27
 70
     1
102
RTVSPropertyOp28
 70
     1
102
RTVSPropertyOp29
 70
     1
102
RTVSPropertyOp30
 70
     1
102
RTVSPropertyOp31
 70
     1
102
RTVSPropertyOp32
 70
     1
  0
XRECORD
  5
4A
102
{ACAD_REACTORS
330
49
102
}
330
49
100
AcDbXrecord
280
     1
102
RTVSPropertyOp0
 70
     1
102
RTVSPropertyOp1
 70
     1
102
RTVSPropertyOp2
 70
     1
102
RTVSPropertyOp3
 70
     1
102
RTVSPropertyOp4
 70
     1
102
RTVSPropertyOp5
 70
     1
102
RTVSPropertyOp6
 70
     1
102
RTVSPropertyOp7
 70
     1
102
RTVSPropertyOp8
 70
     1
102
RTVSPropertyOp9
 70
     1
102
RTVSPropertyOp10
 70
     1
102
RTVSPropertyOp11
 70
     1
102
RTVSPropertyOp12
 70
     1
102
RTVSPropertyOp13
 70
     1
102
RTVSPropertyOp14
 70
     1
102
RTVSPropertyOp15
 70
     1
102
RTVSPropertyOp16
 70
     1
102
RTVSPropertyOp17
 70
     1
102
RTVSPropertyOp18
 70
     1
102
RTVSPropertyOp19
 70
     1
102
RTVSPropertyOp20
 70
     1
102
RTVSPropertyOp21
 70
     1
102
RTVSPropertyOp22
 70
     1
102
RTVSPropertyOp23
 70
     1
102
RTVSPropertyOp24
 70
     1
102
RTVSPropertyOp25
 70
     1
102
RTVSPropertyOp26
 70
     1
102
RTVSPropertyOp27
 70
     1
102
RTVSPropertyOp28
 70
     1
102
RTVSPropertyOp29
 70
     1
102
RTVSPropertyOp30
 70
     1
102
RTVSPropertyOp31
 70
     1
102
RTVSPropertyOp32
 70
     1
  0
XRECORD
  5
4C
102
{ACAD_REACTORS
330
4B
102
}
330
4B
100
AcDbXrecord
280
     1
102
RTVSPropertyOp0
 70
     1
102
RTVSPropertyOp1
 70
     1
102
RTVSPropertyOp2
 70
     1
102
RTVSPropertyOp3
 70
     1
102
RTVSPropertyOp4
 70
     1
102
RTVSPropertyOp5
 70
     1
102
RTVSPropertyOp6
 70
     1
102
RTVSPropertyOp7
 70
     1
102
RTVSPropertyOp8
 70
     1
102
RTVSPropertyOp9
 70
     1
102
RTVSPropertyOp10
 70
     1
102
RTVSPropertyOp11
 70
     1
102
RTVSPropertyOp12
 70
     1
102
RTVSPropertyOp13
 70
     1
102
RTVSPropertyOp14
 70
     1
102
RTVSPropertyOp15
 70
     1
102
RTVSPropertyOp16
 70
     1
102
RTVSPropertyOp17
 70
     1
102
RTVSPropertyOp18
 70
     1
102
RTVSPropertyOp19
 70
     1
102
RTVSPropertyOp20
 70
     1
102
RTVSPropertyOp21
 70
     1
102
RTVSPropertyOp22
 70
     1
102
RTVSPropertyOp23
 70
     1
102
RTVSPropertyOp24
 70
     1
102
RTVSPropertyOp25
 70
     1
102
RTVSPropertyOp26
 70
     1
102
RTVSPropertyOp27
 70
     1
102
RTVSPropertyOp28
 70
     1
102
RTVSPropertyOp29
 70
     1
102
RTVSPropertyOp30
 70
     1
102
RTVSPropertyOp31
 70
     1
102
RTVSPropertyOp32
 70
     1
  0
XRECORD
  5
4E
102
{ACAD_REACTORS
330
4D
102
}
330
4D
100
AcDbXrecord
280
     1
102
RTVSPropertyOp0
 70
     1
102
RTVSPropertyOp1
 70
     1
102
RTVSPropertyOp2
 70
     1
102
RTVSPropertyOp3
 70
     1
102
RTVSPropertyOp4
 70
     1
102
RTVSPropertyOp5
 70
     1
102
RTVSPropertyOp6
 70
     1
102
RTVSPropertyOp7
 70
     1
102
RTVSPropertyOp8
 70
     1
102
RTVSPropertyOp9
 70
     1
102
RTVSPropertyOp10
 70
     1
102
RTVSPropertyOp11
 70
     1
102
RTVSPropertyOp12
 70
     1
102
RTVSPropertyOp13
 70
     1
102
RTVSPropertyOp14
 70
     1
102
RTVSPropertyOp15
 70
     1
102
RTVSPropertyOp16
 70
     1
102
RTVSPropertyOp17
 70
     1
102
RTVSPropertyOp18
 70
     1
102
RTVSPropertyOp19
 70
     1
102
RTVSPropertyOp20
 70
     1
102
RTVSPropertyOp21
 70
     1
102
RTVSPropertyOp22
 70
     1
102
RTVSPropertyOp23
 70
     1
102
RTVSPropertyOp24
 70
     1
102
RTVSPropertyOp25
 70
     1
102
RTVSPropertyOp26
 70
     1
102
RTVSPropertyOp27
 70
     1
102
RTVSPropertyOp28
 70
     1
102
RTVSPropertyOp29
 70
     1
102
RTVSPropertyOp30
 70
     1
102
RTVSPropertyOp31
 70
     1
102
RTVSPropertyOp32
 70
     1
  0
XRECORD
  5
62
102
{ACAD_REACTORS
330
61
102
}
330
61
100
AcDbXrecord
280
     1
102
RTVSPropertyOp0
 70
     1
102
RTVSPropertyOp1
 70
     1
102
RTVSPropertyOp2
 70
     1
102
RTVSPropertyOp3
 70
     1
102
RTVSPropertyOp4
 70
     1
102
RTVSPropertyOp5
 70
     1
102
RTVSPropertyOp6
 70
     1
102
RTVSPropertyOp7
 70
     1
102
RTVSPropertyOp8
 70
     1
102
RTVSPropertyOp9
 70
     1
102
RTVSPropertyOp10
 70
     1
102
RTVSPropertyOp11
 70
     1
102
RTVSPropertyOp12
 70
     1
102
RTVSPropertyOp13
 70
     1
102
RTVSPropertyOp14
 70
     1
102
RTVSPropertyOp15
 70
     1
102
RTVSPropertyOp16
 70
     1
102
RTVSPropertyOp17
 70
     1
102
RTVSPropertyOp18
 70
     1
102
RTVSPropertyOp19
 70
     1
102
RTVSPropertyOp20
 70
     1
102
RTVSPropertyOp21
 70
     1
102
RTVSPropertyOp22
 70
     1
102
RTVSPropertyOp23
 70
     1
102
RTVSPropertyOp24
 70
     1
102
RTVSPropertyOp25
 70
     1
102
RTVSPropertyOp26
 70
     1
102
RTVSPropertyOp27
 70
     1
102
RTVSPropertyOp28
 70
     1
102
RTVSPropertyOp29
 70
     1
102
RTVSPropertyOp30
 70
     1
102
RTVSPropertyOp31
 70
     1
102
RTVSPropertyOp32
 70
     1
  0
XRECORD
  5
58
102
{ACAD_REACTORS
330
57
102
}
330
57
100
AcDbXrecord
280
     1
102
RTVSPropertyOp0
 70
     1
102
RTVSPropertyOp1
 70
     1
102
RTVSPropertyOp2
 70
     1
102
RTVSPropertyOp3
 70
     1
102
RTVSPropertyOp4
 70
     1
102
RTVSPropertyOp5
 70
     1
102
RTVSPropertyOp6
 70
     1
102
RTVSPropertyOp7
 70
     1
102
RTVSPropertyOp8
 70
     1
102
RTVSPropertyOp9
 70
     1
102
RTVSPropertyOp10
 70
     1
102
RTVSPropertyOp11
 70
     1
102
RTVSPropertyOp12
 70
     1
102
RTVSPropertyOp13
 70
     1
102
RTVSPropertyOp14
 70
     1
102
RTVSPropertyOp15
 70
     1
102
RTVSPropertyOp16
 70
     1
102
RTVSPropertyOp17
 70
     1
102
RTVSPropertyOp18
 70
     1
102
RTVSPropertyOp19
 70
     1
102
RTVSPropertyOp20
 70
     1
102
RTVSPropertyOp21
 70
     1
102
RTVSPropertyOp22
 70
     1
102
RTVSPropertyOp23
 70
     1
102
RTVSPropertyOp24
 70
     1
102
RTVSPropertyOp25
 70
     1
102
RTVSPropertyOp26
 70
     1
102
RTVSPropertyOp27
 70
     1
102
RTVSPropertyOp28
 70
     1
102
RTVSPropertyOp29
 70
     1
102
RTVSPropertyOp30
 70
     1
102
RTVSPropertyOp31
 70
     1
102
RTVSPropertyOp32
 70
     1
  0
XRECORD
  5
60
102
{ACAD_REACTORS
330
5F
102
}
330
5F
100
AcDbXrecord
280
     1
102
RTVSPropertyOp0
 70
     1
102
RTVSPropertyOp1
 70
     1
102
RTVSPropertyOp2
 70
     1
102
RTVSPropertyOp3
 70
     1
102
RTVSPropertyOp4
 70
     1
102
RTVSPropertyOp5
 70
     1
102
RTVSPropertyOp6
 70
     1
102
RTVSPropertyOp7
 70
     1
102
RTVSPropertyOp8
 70
     1
102
RTVSPropertyOp9
 70
     1
102
RTVSPropertyOp10
 70
     1
102
RTVSPropertyOp11
 70
     1
102
RTVSPropertyOp12
 70
     1
102
RTVSPropertyOp13
 70
     1
102
RTVSPropertyOp14
 70
     1
102
RTVSPropertyOp15
 70
     1
102
RTVSPropertyOp16
 70
     1
102
RTVSPropertyOp17
 70
     1
102
RTVSPropertyOp18
 70
     1
102
RTVSPropertyOp19
 70
     1
102
RTVSPropertyOp20
 70
     1
102
RTVSPropertyOp21
 70
     1
102
RTVSPropertyOp22
 70
     1
102
RTVSPropertyOp23
 70
     1
102
RTVSPropertyOp24
 70
     1
102
RTVSPropertyOp25
 70
     1
102
RTVSPropertyOp26
 70
     1
102
RTVSPropertyOp27
 70
     1
102
RTVSPropertyOp28
 70
     1
102
RTVSPropertyOp29
 70
     1
102
RTVSPropertyOp30
 70
     1
102
RTVSPropertyOp31
 70
     1
102
RTVSPropertyOp32
 70
     1
  0
ENDSEC
  0
EOF
