  0
SECTION
  2
HEADER
  9
$ACADVER
  1
AC1021
  9
$ACADMAINTVER
 70
    25
  9
$DWGCODEPAGE
  3
ANSI_1252
  9
$INSBASE
 10
0.0
 20
0.0
 30
0.0
  9
$EXTMIN
 10
-15.65693
 20
-12.07557
 30
0.0
  9
$EXTMAX
 10
-4.34303
 20
-7.92442
 30
0.0
  9
$LIMMIN
 10
0.0
 20
0.0
  9
$LIMMAX
 10
12.0
 20
9.0
  9
$ORTHOMODE
 70
     0
  9
$REGENMODE
 70
     1
  9
$FILLMODE
 70
     1
  9
$QTEXTMODE
 70
     0
  9
$MIRRTEXT
 70
     1
  9
$LTSCALE
 40
1.0
  9
$ATTMODE
 70
     1
  9
$TEXTSIZE
 40
0.2
  9
$TRACEWID
 40
0.05
  9
$TEXTSTYLE
  7
Standard
  9
$CLAYER
  8
0
  9
$CELTYPE
  6
ByLayer
  9
$CECOLOR
 62
   256
  9
$CELTSCALE
 40
1.0
  9
$DISPSILH
 70
     0
  9
$DIMSCALE
 40
1.0
  9
$DIMASZ
 40
0.18
  9
$DIMEXO
 40
0.0625
  9
$DIMDLI
 40
0.38
  9
$DIMRND
 40
0.0
  9
$DIMDLE
 40
0.0
  9
$DIMEXE
 40
0.18
  9
$DIMTP
 40
0.0
  9
$DIMTM
 40
0.0
  9
$DIMTXT
 40
0.18
  9
$DIMCEN
 40
0.09
  9
$DIMTSZ
 40
0.0
  9
$DIMTOL
 70
     0
  9
$DIMLIM
 70
     0
  9
$DIMTIH
 70
     1
  9
$DIMTOH
 70
     1
  9
$DIMSE1
 70
     0
  9
$DIMSE2
 70
     0
  9
$DIMTAD
 70
     0
  9
$DIMZIN
 70
     0
  9
$DIMBLK
  1

  9
$DIMASO
 70
     1
  9
$DIMSHO
 70
     1
  9
$DIMPOST
  1

  9
$DIMAPOST
  1

  9
$DIMALT
 70
     0
  9
$DIMALTD
 70
     2
  9
$DIMALTF
 40
25.4
  9
$DIMLFAC
 40
1.0
  9
$DIMTOFL
 70
     0
  9
$DIMTVP
 40
0.0
  9
$DIMTIX
 70
     0
  9
$DIMSOXD
 70
     0
  9
$DIMSAH
 70
     0
  9
$DIMBLK1
  1

  9
$DIMBLK2
  1

  9
$DIMSTYLE
  2
Standard
  9
$DIMCLRD
 70
     0
  9
$DIMCLRE
 70
     0
  9
$DIMCLRT
 70
     0
  9
$DIMTFAC
 40
1.0
  9
$DIMGAP
 40
0.09
  9
$DIMJUST
 70
     0
  9
$DIMSD1
 70
     0
  9
$DIMSD2
 70
     0
  9
$DIMTOLJ
 70
     1
  9
$DIMTZIN
 70
     0
  9
$DIMALTZ
 70
     0
  9
$DIMALTTZ
 70
     0
  9
$DIMUPT
 70
     0
  9
$DIMDEC
 70
     4
  9
$DIMTDEC
 70
     4
  9
$DIMALTU
 70
     2
  9
$DIMALTTD
 70
     2
  9
$DIMTXSTY
  7
Standard
  9
$DIMAUNIT
 70
     0
  9
$DIMADEC
 70
     0
  9
$DIMALTRND
 40
0.0
  9
$DIMAZIN
 70
     0
  9
$DIMDSEP
 70
    46
  9
$DIMATFIT
 70
     3
  9
$DIMFRAC
 70
     0
  9
$DIMLDRBLK
  1

  9
$DIMLUNIT
 70
     2
  9
$DIMLWD
 70
    -2
  9
$DIMLWE
 70
    -2
  9
$DIMTMOVE
 70
     0
  9
$DIMFXL
 40
1.0
  9
$DIMFXLON
 70
     0
  9
$DIMJOGANG
 40
0.7853981633974483
  9
$DIMTFILL
 70
     0
  9
$DIMTFILLCLR
 70
     0
  9
$DIMARCSYM
 70
     0
  9
$DIMLTYPE
  6

  9
$DIMLTEX1
  6

  9
$DIMLTEX2
  6

  9
$LUNITS
 70
     2
  9
$LUPREC
 70
     4
  9
$SKETCHINC
 40
0.1
  9
$FILLETRAD
 40
0.5
  9
$AUNITS
 70
     0
  9
$AUPREC
 70
     0
  9
$MENU
  1
.
  9
$ELEVATION
 40
0.0
  9
$PELEVATION
 40
0.0
  9
$THICKNESS
 40
0.0
  9
$LIMCHECK
 70
     0
  9
$CHAMFERA
 40
0.5
  9
$CHAMFERB
 40
0.5
  9
$CHAMFERC
 40
1.0
  9
$CHAMFERD
 40
0.0
  9
$SKPOLY
 70
     0
  9
$TDCREATE
 40
2460554.765337685
  9
$TDUCREATE
 40
2460554.723671019
  9
$TDUPDATE
 40
2460554.765337732
  9
$TDUUPDATE
 40
2460554.723671065
  9
$TDINDWG
 40
0.0000000116
  9
$TDUSRTIMER
 40
0.0000000116
  9
$USRTIMER
 70
     1
  9
$ANGBASE
 50
0.0
  9
$ANGDIR
 70
     0
  9
$PDMODE
 70
     0
  9
$PDSIZE
 40
0.0
  9
$PLINEWID
 40
0.0
  9
$SPLFRAME
 70
     0
  9
$SPLINETYPE
 70
     6
  9
$SPLINESEGS
 70
     8
  9
$HANDSEED
  5
75
  9
$SURFTAB1
 70
     6
  9
$SURFTAB2
 70
     6
  9
$SURFTYPE
 70
     6
  9
$SURFU
 70
     6
  9
$SURFV
 70
     6
  9
$UCSBASE
  2

  9
$UCSNAME
  2

  9
$UCSORG
 10
0.0
 20
0.0
 30
0.0
  9
$UCSXDIR
 10
1.0
 20
0.0
 30
0.0
  9
$UCSYDIR
 10
0.0
 20
1.0
 30
0.0
  9
$UCSORTHOREF
  2

  9
$UCSORTHOVIEW
 70
     0
  9
$UCSORGTOP
 10
0.0
 20
0.0
 30
0.0
  9
$UCSORGBOTTOM
 10
0.0
 20
0.0
 30
0.0
  9
$UCSORGLEFT
 10
0.0
 20
0.0
 30
0.0
  9
$UCSORGRIGHT
 10
0.0
 20
0.0
 30
0.0
  9
$UCSORGFRONT
 10
0.0
 20
0.0
 30
0.0
  9
$UCSORGBACK
 10
0.0
 20
0.0
 30
0.0
  9
$PUCSBASE
  2

  9
$PUCSNAME
  2

  9
$PUCSORG
 10
0.0
 20
0.0
 30
0.0
  9
$PUCSXDIR
 10
1.0
 20
0.0
 30
0.0
  9
$PUCSYDIR
 10
0.0
 20
1.0
 30
0.0
  9
$PUCSORTHOREF
  2

  9
$PUCSORTHOVIEW
 70
     0
  9
$PUCSORGTOP
 10
0.0
 20
0.0
 30
0.0
  9
$PUCSORGBOTTOM
 10
0.0
 20
0.0
 30
0.0
  9
$PUCSORGLEFT
 10
0.0
 20
0.0
 30
0.0
  9
$PUCSORGRIGHT
 10
0.0
 20
0.0
 30
0.0
  9
$PUCSORGFRONT
 10
0.0
 20
0.0
 30
0.0
  9
$PUCSORGBACK
 10
0.0
 20
0.0
 30
0.0
  9
$USERI1
 70
     0
  9
$USERI2
 70
     0
  9
$USERI3
 70
     0
  9
$USERI4
 70
     0
  9
$USERI5
 70
     0
  9
$USERR1
 40
0.0
  9
$USERR2
 40
0.0
  9
$USERR3
 40
0.0
  9
$USERR4
 40
0.0
  9
$USERR5
 40
0.0
  9
$WORLDVIEW
 70
     1
  9
$SHADEDGE
 70
     3
  9
$SHADEDIF
 70
    70
  9
$TILEMODE
 70
     1
  9
$MAXACTVP
 70
    64
  9
$PINSBASE
 10
0.0
 20
0.0
 30
0.0
  9
$PLIMCHECK
 70
     0
  9
$PEXTMIN
 10
1.000000000000000E+20
 20
1.000000000000000E+20
 30
1.000000000000000E+20
  9
$PEXTMAX
 10
-1.000000000000000E+20
 20
-1.000000000000000E+20
 30
-1.000000000000000E+20
  9
$PLIMMIN
 10
0.0
 20
0.0
  9
$PLIMMAX
 10
12.0
 20
9.0
  9
$UNITMODE
 70
     0
  9
$VISRETAIN
 70
     1
  9
$PLINEGEN
 70
     0
  9
$PSLTSCALE
 70
     1
  9
$TREEDEPTH
 70
  3020
  9
$CMLSTYLE
  2
Standard
  9
$CMLJUST
 70
     0
  9
$CMLSCALE
 40
1.0
  9
$PROXYGRAPHICS
 70
     1
  9
$MEASUREMENT
 70
     0
  9
$CELWEIGHT
370
    -1
  9
$ENDCAPS
280
     0
  9
$JOINSTYLE
280
     0
  9
$LWDISPLAY
290
     0
  9
$INSUNITS
 70
     5
  9
$HYPERLINKBASE
  1

  9
$STYLESHEET
  1

  9
$XEDIT
290
     1
  9
$CEPSNTYPE
380
     0
  9
$PSTYLEMODE
290
     1
  9
$FINGERPRINTGUID
  2
{C7D4BDE0-5A01-4149-AE66-F6004F0A0852}
  9
$VERSIONGUID
  2
{FAEB1C32-E019-11D5-929B-00C0DF256EC4}
  9
$EXTNAMES
290
     1
  9
$PSVPSCALE
 40
0.0
  9
$OLESTARTUP
290
     0
  9
$SORTENTS
280
   127
  9
$INDEXCTL
280
     0
  9
$HIDETEXT
280
     1
  9
$XCLIPFRAME
290
     0
  9
$HALOGAP
280
     0
  9
$OBSCOLOR
 70
   257
  9
$OBSLTYPE
280
     0
  9
$INTERSECTIONDISPLAY
280
     0
  9
$INTERSECTIONCOLOR
 70
   257
  9
$DIMASSOC
280
     2
  9
$PROJECTNAME
  1

  9
$CAMERADISPLAY
290
     0
  9
$LENSLENGTH
 40
50.0
  9
$CAMERAHEIGHT
 40
0.0
  9
$STEPSPERSEC
 40
2.0
  9
$STEPSIZE
 40
6.0
  9
$3DDWFPREC
 40
2.0
  9
$PSOLWIDTH
 40
0.25
  9
$PSOLHEIGHT
 40
4.0
  9
$LOFTANG1
 40
1.570796326794897
  9
$LOFTANG2
 40
1.570796326794897
  9
$LOFTMAG1
 40
0.0
  9
$LOFTMAG2
 40
0.0
  9
$LOFTPARAM
 70
     7
  9
$LOFTNORMALS
280
     1
  9
$LATITUDE
 40
37.795
  9
$LONGITUDE
 40
-122.394
  9
$NORTHDIRECTION
 40
0.0
  9
$TIMEZONE
 70
 -8000
  9
$LIGHTGLYPHDISPLAY
280
     1
  9
$TILEMODELIGHTSYNCH
280
     1
  9
$SOLIDHIST
280
     1
  9
$SHOWHIST
280
     1
  9
$DWFFRAME
280
     2
  9
$DGNFRAME
280
     2
  9
$REALWORLDSCALE
290
     1
  9
$INTERFERECOLOR
 62
   256
  9
$CSHADOW
280
     0
  9
$SHADOWPLANELOCATION
 40
0.0
  0
ENDSEC
  0
SECTION
  2
CLASSES
  0
CLASS
  1
ACDBDICTIONARYWDFLT
  2
AcDbDictionaryWithDefault
  3
ObjectDBX Classes
 90
        0
 91
        4
280
     0
281
     0
  0
CLASS
  1
VISUALSTYLE
  2
AcDbVisualStyle
  3
ObjectDBX Classes
 90
     4095
 91
        4
280
     0
281
     0
  0
CLASS
  1
MATERIAL
  2
AcDbMaterial
  3
ObjectDBX Classes
 90
     1153
 91
        4
280
     0
281
     0
  0
ENDSEC
  0
SECTION
  2
TABLES
  0
TABLE
  2
VPORT
  5
8
330
0
100
AcDbSymbolTable
 70
     1
  0
VPORT
  5
29
330
8
100
AcDbSymbolTableRecord
100
AcDbViewportTableRecord
  2
*Active
 70
     0
 10
0.0
 20
0.0
 11
1.0
 21
1.0
 12
10.42990654205607
 22
4.5
 13
0.0
 23
0.0
 14
0.5
 24
0.5
 15
0.5
 25
0.5
 16
0.0
 26
0.0
 36
1.0
 17
0.0
 27
0.0
 37
0.0
 40
9.0
 41
1.972972972850329
 42
50.0
 43
0.0
 44
0.0
 50
0.0
 51
0.0
 71
     0
 72
   100
 73
     1
 74
     3
 75
     0
 76
     0
 77
     0
 78
     0
281
     0
 65
     1
110
0.0
120
0.0
130
0.0
111
1.0
121
0.0
131
0.0
112
0.0
122
1.0
132
0.0
 79
     0
146
0.0
 60
     3
 61
     5
292
     1
282
     1
141
0.0
142
0.0
 63
   250
  0
ENDTAB
  0
TABLE
  2
LTYPE
  5
5
330
0
100
AcDbSymbolTable
 70
     1
  0
LTYPE
  5
14
330
5
100
AcDbSymbolTableRecord
100
AcDbLinetypeTableRecord
  2
ByBlock
 70
     0
  3

 72
    65
 73
     0
 40
0.0
  0
LTYPE
  5
15
330
5
100
AcDbSymbolTableRecord
100
AcDbLinetypeTableRecord
  2
ByLayer
 70
     0
  3

 72
    65
 73
     0
 40
0.0
  0
LTYPE
  5
16
330
5
100
AcDbSymbolTableRecord
100
AcDbLinetypeTableRecord
  2
Continuous
 70
     0
  3
Solid line
 72
    65
 73
     0
 40
0.0
  0
ENDTAB
  0
TABLE
  2
LAYER
  5
2
330
0
100
AcDbSymbolTable
 70
     2
  0
LAYER
  5
10
330
2
100
AcDbSymbolTableRecord
100
AcDbLayerTableRecord
  2
0
 70
     0
 62
     7
  6
Continuous
370
    -3
390
F
347
3E
  0
LAYER
  5
40
330
2
100
AcDbSymbolTableRecord
100
AcDbLayerTableRecord
  2
Layer 1
 70
     0
 62
     7
  6
Continuous
370
    -3
390
F
347
3E
  0
ENDTAB
  0
TABLE
  2
STYLE
  5
3
330
0
100
AcDbSymbolTable
 70
     1
  0
STYLE
  5
11
330
3
100
AcDbSymbolTableRecord
100
AcDbTextStyleTableRecord
  2
Standard
 70
     0
 40
0.0
 41
1.0
 50
0.0
 71
     0
 42
0.2
  3
txt
  4

  0
ENDTAB
  0
TABLE
  2
VIEW
  5
6
330
0
100
AcDbSymbolTable
 70
     0
  0
ENDTAB
  0
TABLE
  2
UCS
  5
7
330
0
100
AcDbSymbolTable
 70
     0
  0
ENDTAB
  0
TABLE
  2
APPID
  5
9
330
0
100
AcDbSymbolTable
 70
     2
  0
APPID
  5
12
330
9
100
AcDbSymbolTableRecord
100
AcDbRegAppTableRecord
  2
ACAD
 70
     0
  0
APPID
  5
3F
330
9
100
AcDbSymbolTableRecord
100
AcDbRegAppTableRecord
  2
ODA
 70
     0
  0
ENDTAB
  0
TABLE
  2
DIMSTYLE
  5
A
330
0
100
AcDbSymbolTable
 70
     1
100
AcDbDimStyleTable
  0
DIMSTYLE
105
27
330
A
100
AcDbSymbolTableRecord
100
AcDbDimStyleTableRecord
  2
Standard
 70
     0
178
     0
340
11
  0
ENDTAB
  0
TABLE
  2
BLOCK_RECORD
  5
1
330
0
100
AcDbSymbolTable
 70
     1
  0
BLOCK_RECORD
  5
1F
330
1
100
AcDbSymbolTableRecord
100
AcDbBlockTableRecord
  2
*Model_Space
340
22
 70
     0
280
     1
281
     0
  0
BLOCK_RECORD
  5
1B
330
1
100
AcDbSymbolTableRecord
100
AcDbBlockTableRecord
  2
*Paper_Space
340
1E
 70
     0
280
     1
281
     0
  0
BLOCK_RECORD
  5
23
330
1
100
AcDbSymbolTableRecord
100
AcDbBlockTableRecord
  2
*Paper_Space0
340
26
 70
     0
280
     1
281
     0
  0
ENDTAB
  0
ENDSEC
  0
SECTION
  2
BLOCKS
  0
BLOCK
  5
20
330
1F
100
AcDbEntity
  8
0
100
AcDbBlockBegin
  2
*Model_Space
 70
     0
 10
0.0
 20
0.0
 30
0.0
  3
*Model_Space
  1

  0
ENDBLK
  5
21
330
1F
100
AcDbEntity
  8
0
100
AcDbBlockEnd
  0
BLOCK
  5
1C
330
1B
100
AcDbEntity
 67
     1
  8
0
100
AcDbBlockBegin
  2
*Paper_Space
 70
     0
 10
0.0
 20
0.0
 30
0.0
  3
*Paper_Space
  1

  0
ENDBLK
  5
1D
330
1B
100
AcDbEntity
 67
     1
  8
0
100
AcDbBlockEnd
  0
BLOCK
  5
24
330
23
100
AcDbEntity
  8
0
100
AcDbBlockBegin
  2
*Paper_Space0
 70
     0
 10
0.0
 20
0.0
 30
0.0
  3
*Paper_Space0
  1

  0
ENDBLK
  5
25
330
23
100
AcDbEntity
  8
0
100
AcDbBlockEnd
  0
ENDSEC
  0
SECTION
  2
ENTITIES
  0
SPLINE
  5
41
330
1F
100
AcDbEntity
  8
Layer 1
 62
     5
370
    53
100
AcDbSpline
210
0.0
220
0.0
230
1.0
 70
     8
 71
     3
 72
    32
 73
    28
 74
     0
 42
0.0000000001
 43
0.0000000001
 12
1.0
 22
0.0
 32
0.0
 13
1.0
 23
0.0
 33
0.0
 40
0.0
 40
0.0
 40
0.0
 40
0.0
 40
0.125
 40
0.125
 40
0.125
 40
0.125
 40
0.25
 40
0.25
 40
0.25
 40
0.25
 40
0.375
 40
0.375
 40
0.375
 40
0.375
 40
0.5
 40
0.5
 40
0.5
 40
0.5
 40
0.625
 40
0.625
 40
0.625
 40
0.625
 40
0.75
 40
0.75
 40
0.75
 40
0.75
 40
1.0
 40
1.0
 40
1.0
 40
1.0
 10
-14.0531
 20
-10.56529
 30
0.0
 10
-14.01151
 20
-10.54105
 30
0.0
 10
-13.96962
 20
-10.51749
 30
0.0
 10
-13.92736
 20
-10.4949
 30
0.0
 10
-13.92736
 20
-10.4949
 30
0.0
 10
-13.86695
 20
-10.46258
 30
0.0
 10
-13.80579
 20
-10.43224
 30
0.0
 10
-13.74355
 20
-10.40459
 30
0.0
 10
-13.74355
 20
-10.40459
 30
0.0
 10
-13.65742
 20
-10.3663
 30
0.0
 10
-13.56883
 20
-10.32873
 30
0.0
 10
-13.47594
 20
-10.30636
 30
0.0
 10
-13.47594
 20
-10.30636
 30
0.0
 10
-13.30192
 20
-10.2644
 30
0.0
 10
-13.01517
 20
-10.13634
 30
0.0
 10
-12.90063
 20
-10.34366
 30
0.0
 10
-12.90063
 20
-10.34366
 30
0.0
 10
-12.85463
 20
-10.42697
 30
0.0
 10
-12.87835
 20
-10.53911
 30
0.0
 10
-12.90406
 20
-10.62659
 30
0.0
 10
-12.90406
 20
-10.62659
 30
0.0
 10
-12.94672
 20
-10.77158
 30
0.0
 10
-13.02431
 20
-10.90216
 30
0.0
 10
-13.10743
 20
-11.02717
 30
0.0
 10
-13.10743
 20
-11.02717
 30
0.0
 10
-13.13099
 20
-11.06257
 30
0.0
 10
-13.14244
 20
-11.08231
 30
0.0
 10
-13.16683
 20
-11.12178
 30
0.0
  0
SPLINE
  5
42
330
1F
100
AcDbEntity
  8
Layer 1
 62
     5
370
    53
100
AcDbSpline
210
0.0
220
0.0
230
1.0
 70
     8
 71
     3
 72
    32
 73
    28
 74
     0
 42
0.0000000001
 43
0.0000000001
 12
1.0
 22
0.0
 32
0.0
 13
1.0
 23
0.0
 33
0.0
 40
0.0
 40
0.0
 40
0.0
 40
0.0
 40
0.125
 40
0.125
 40
0.125
 40
0.125
 40
0.25
 40
0.25
 40
0.25
 40
0.25
 40
0.375
 40
0.375
 40
0.375
 40
0.375
 40
0.5
 40
0.5
 40
0.5
 40
0.5
 40
0.625
 40
0.625
 40
0.625
 40
0.625
 40
0.75
 40
0.75
 40
0.75
 40
0.75
 40
1.0
 40
1.0
 40
1.0
 40
1.0
 10
-14.52996
 20
-9.78629
 30
0.0
 10
-14.46634
 20
-9.78485
 30
0.0
 10
-14.41682
 20
-9.75881
 30
0.0
 10
-14.35288
 20
-9.76476
 30
0.0
 10
-14.35288
 20
-9.76476
 30
0.0
 10
-14.21372
 20
-9.77778
 30
0.0
 10
-14.08598
 20
-9.75471
 30
0.0
 10
-13.95139
 20
-9.75587
 30
0.0
 10
-13.95139
 20
-9.75587
 30
0.0
 10
-13.81946
 20
-9.75701
 30
0.0
 10
-13.59661
 20
-9.72518
 30
0.0
 10
-13.48527
 20
-9.80579
 30
0.0
 10
-13.48527
 20
-9.80579
 30
0.0
 10
-13.57576
 20
-9.93977
 30
0.0
 10
-13.71631
 20
-10.02513
 30
0.0
 10
-13.84788
 20
-10.10903
 30
0.0
 10
-13.84788
 20
-10.10903
 30
0.0
 10
-13.89835
 20
-10.1412
 30
0.0
 10
-13.94779
 20
-10.17566
 30
0.0
 10
-13.99966
 20
-10.20556
 30
0.0
 10
-13.99966
 20
-10.20556
 30
0.0
 10
-14.09389
 20
-10.25993
 30
0.0
 10
-14.18114
 20
-10.32085
 30
0.0
 10
-14.27219
 20
-10.37842
 30
0.0
 10
-14.27219
 20
-10.37842
 30
0.0
 10
-14.29369
 20
-10.39202
 30
0.0
 10
-14.28948
 20
-10.39258
 30
0.0
 10
-14.31191
 20
-10.4048
 30
0.0
  0
SPLINE
  5
43
330
1F
100
AcDbEntity
  8
Layer 1
 62
     5
370
    53
100
AcDbSpline
210
0.0
220
0.0
230
1.0
 70
     8
 71
     3
 72
    20
 73
    16
 74
     0
 42
0.0000000001
 43
0.0000000001
 12
1.0
 22
0.0
 32
0.0
 13
1.0
 23
0.0
 33
0.0
 40
0.0
 40
0.0
 40
0.0
 40
0.0
 40
0.2
 40
0.2
 40
0.2
 40
0.2
 40
0.4
 40
0.4
 40
0.4
 40
0.4
 40
0.6
 40
0.6
 40
0.6
 40
0.6
 40
1.0
 40
1.0
 40
1.0
 40
1.0
 10
-14.20296
 20
-8.81283
 30
0.0
 10
-14.1862
 20
-8.83016
 30
0.0
 10
-14.16929
 20
-8.84735
 30
0.0
 10
-14.15164
 20
-8.86376
 30
0.0
 10
-14.15164
 20
-8.86376
 30
0.0
 10
-14.05117
 20
-8.95716
 30
0.0
 10
-13.95664
 20
-9.05672
 30
0.0
 10
-13.85491
 20
-9.14878
 30
0.0
 10
-13.85491
 20
-9.14878
 30
0.0
 10
-13.72722
 20
-9.26435
 30
0.0
 10
-13.59875
 20
-9.38026
 30
0.0
 10
-13.46199
 20
-9.48346
 30
0.0
 10
-13.46199
 20
-9.48346
 30
0.0
 10
-13.84735
 20
-9.47618
 30
0.0
 10
-14.26288
 20
-9.51785
 30
0.0
 10
-14.62831
 20
-9.51991
 30
0.0
  0
ELLIPSE
  5
44
330
1F
100
AcDbEntity
  8
Layer 1
370
    53
100
AcDbEllipse
 10
-10.74998
 20
-9.1376
 30
0.0
 11
0.0
 21
0.3
 31
0.0
210
0.0
220
0.0
230
1.0
 40
1.0
 41
0.0
 42
6.283185307179586
  0
ELLIPSE
  5
45
330
1F
100
AcDbEntity
  8
Layer 1
370
    53
100
AcDbEllipse
 10
-10.74998
 20
-10.6376
 30
0.0
 11
0.0
 21
0.3
 31
0.0
210
0.0
220
0.0
230
1.0
 40
1.0
 41
0.0
 42
6.283185307179586
  0
SPLINE
  5
46
330
1F
100
AcDbEntity
  8
Layer 1
370
    53
100
AcDbSpline
210
0.0
220
0.0
230
1.0
 70
    11
 71
     3
 72
   224
 73
   220
 74
     0
 42
0.0000000001
 43
0.0000000001
 12
1.0
 22
0.0
 32
0.0
 13
1.0
 23
0.0
 33
0.0
 40
0.0
 40
0.0
 40
0.0
 40
0.0
 40
0.0178571428571429
 40
0.0178571428571429
 40
0.0178571428571429
 40
0.0178571428571429
 40
0.0357142857142857
 40
0.0357142857142857
 40
0.0357142857142857
 40
0.0357142857142857
 40
0.0535714285714286
 40
0.0535714285714286
 40
0.0535714285714286
 40
0.0535714285714286
 40
0.0714285714285714
 40
0.0714285714285714
 40
0.0714285714285714
 40
0.0714285714285714
 40
0.0892857142857143
 40
0.0892857142857143
 40
0.0892857142857143
 40
0.0892857142857143
 40
0.1071428571428571
 40
0.1071428571428571
 40
0.1071428571428571
 40
0.1071428571428571
 40
0.125
 40
0.125
 40
0.125
 40
0.125
 40
0.1428571428571428
 40
0.1428571428571428
 40
0.1428571428571428
 40
0.1428571428571428
 40
0.1607142857142857
 40
0.1607142857142857
 40
0.1607142857142857
 40
0.1607142857142857
 40
0.1785714285714286
 40
0.1785714285714286
 40
0.1785714285714286
 40
0.1785714285714286
 40
0.1964285714285714
 40
0.1964285714285714
 40
0.1964285714285714
 40
0.1964285714285714
 40
0.2142857142857143
 40
0.2142857142857143
 40
0.2142857142857143
 40
0.2142857142857143
 40
0.2321428571428572
 40
0.2321428571428572
 40
0.2321428571428572
 40
0.2321428571428572
 40
0.25
 40
0.25
 40
0.25
 40
0.25
 40
0.2678571428571428
 40
0.2678571428571428
 40
0.2678571428571428
 40
0.2678571428571428
 40
0.2857142857142857
 40
0.2857142857142857
 40
0.2857142857142857
 40
0.2857142857142857
 40
0.3035714285714285
 40
0.3035714285714285
 40
0.3035714285714285
 40
0.3035714285714285
 40
0.3214285714285715
 40
0.3214285714285715
 40
0.3214285714285715
 40
0.3214285714285715
 40
0.3392857142857143
 40
0.3392857142857143
 40
0.3392857142857143
 40
0.3392857142857143
 40
0.3571428571428572
 40
0.3571428571428572
 40
0.3571428571428572
 40
0.3571428571428572
 40
0.375
 40
0.375
 40
0.375
 40
0.375
 40
0.3928571428571428
 40
0.3928571428571428
 40
0.3928571428571428
 40
0.3928571428571428
 40
0.4107142857142857
 40
0.4107142857142857
 40
0.4107142857142857
 40
0.4107142857142857
 40
0.4285714285714285
 40
0.4285714285714285
 40
0.4285714285714285
 40
0.4285714285714285
 40
0.4464285714285715
 40
0.4464285714285715
 40
0.4464285714285715
 40
0.4464285714285715
 40
0.4642857142857143
 40
0.4642857142857143
 40
0.4642857142857143
 40
0.4642857142857143
 40
0.4821428571428572
 40
0.4821428571428572
 40
0.4821428571428572
 40
0.4821428571428572
 40
0.5
 40
0.5
 40
0.5
 40
0.5
 40
0.5178571428571429
 40
0.5178571428571429
 40
0.5178571428571429
 40
0.5178571428571429
 40
0.5357142857142857
 40
0.5357142857142857
 40
0.5357142857142857
 40
0.5357142857142857
 40
0.5535714285714286
 40
0.5535714285714286
 40
0.5535714285714286
 40
0.5535714285714286
 40
0.5714285714285714
 40
0.5714285714285714
 40
0.5714285714285714
 40
0.5714285714285714
 40
0.5892857142857143
 40
0.5892857142857143
 40
0.5892857142857143
 40
0.5892857142857143
 40
0.6071428571428571
 40
0.6071428571428571
 40
0.6071428571428571
 40
0.6071428571428571
 40
0.625
 40
0.625
 40
0.625
 40
0.625
 40
0.6428571428571429
 40
0.6428571428571429
 40
0.6428571428571429
 40
0.6428571428571429
 40
0.6607142857142857
 40
0.6607142857142857
 40
0.6607142857142857
 40
0.6607142857142857
 40
0.6785714285714286
 40
0.6785714285714286
 40
0.6785714285714286
 40
0.6785714285714286
 40
0.6964285714285714
 40
0.6964285714285714
 40
0.6964285714285714
 40
0.6964285714285714
 40
0.7142857142857143
 40
0.7142857142857143
 40
0.7142857142857143
 40
0.7142857142857143
 40
0.7321428571428571
 40
0.7321428571428571
 40
0.7321428571428571
 40
0.7321428571428571
 40
0.75
 40
0.75
 40
0.75
 40
0.75
 40
0.7678571428571429
 40
0.7678571428571429
 40
0.7678571428571429
 40
0.7678571428571429
 40
0.7857142857142857
 40
0.7857142857142857
 40
0.7857142857142857
 40
0.7857142857142857
 40
0.8035714285714286
 40
0.8035714285714286
 40
0.8035714285714286
 40
0.8035714285714286
 40
0.8214285714285714
 40
0.8214285714285714
 40
0.8214285714285714
 40
0.8214285714285714
 40
0.8392857142857143
 40
0.8392857142857143
 40
0.8392857142857143
 40
0.8392857142857143
 40
0.8571428571428571
 40
0.8571428571428571
 40
0.8571428571428571
 40
0.8571428571428571
 40
0.875
 40
0.875
 40
0.875
 40
0.875
 40
0.8928571428571429
 40
0.8928571428571429
 40
0.8928571428571429
 40
0.8928571428571429
 40
0.9107142857142857
 40
0.9107142857142857
 40
0.9107142857142857
 40
0.9107142857142857
 40
0.9285714285714286
 40
0.9285714285714286
 40
0.9285714285714286
 40
0.9285714285714286
 40
0.9464285714285714
 40
0.9464285714285714
 40
0.9464285714285714
 40
0.9464285714285714
 40
0.9642857142857143
 40
0.9642857142857143
 40
0.9642857142857143
 40
0.9642857142857143
 40
1.0
 40
1.0
 40
1.0
 40
1.0
 10
-11.44998
 20
-10.8376
 30
0.0
 10
-11.44998
 20
-10.8376
 30
0.0
 10
-11.44998
 20
-10.31307
 30
0.0
 10
-11.44998
 20
-10.31307
 30
0.0
 10
-11.44998
 20
-10.31307
 30
0.0
 10
-11.44998
 20
-10.31307
 30
0.0
 10
-11.85791
 20
-10.31307
 30
0.0
 10
-11.85791
 20
-10.31307
 30
0.0
 10
-11.85791
 20
-10.31307
 30
0.0
 10
-11.99131
 20
-10.31661
 30
0.0
 10
-12.11629
 20
-10.3354
 30
0.0
 10
-12.24208
 20
-10.41893
 30
0.0
 10
-12.24208
 20
-10.41893
 30
0.0
 10
-12.4666
 20
-10.56797
 30
0.0
 10
-12.63754
 20
-10.80452
 30
0.0
 10
-12.78944
 20
-11.02277
 30
0.0
 10
-12.78944
 20
-11.02277
 30
0.0
 10
-12.90812
 20
-11.1932
 30
0.0
 10
-13.01047
 20
-11.39198
 30
0.0
 10
-13.1563
 20
-11.54147
 30
0.0
 10
-13.1563
 20
-11.54147
 30
0.0
 10
-13.18012
 20
-11.56592
 30
0.0
 10
-13.24616
 20
-11.61092
 30
0.0
 10
-13.25546
 20
-11.64387
 30
0.0
 10
-13.25546
 20
-11.64387
 30
0.0
 10
-13.26352
 20
-11.67257
 30
0.0
 10
-13.23957
 20
-11.71418
 30
0.0
 10
-13.24386
 20
-11.74805
 30
0.0
 10
-13.24386
 20
-11.74805
 30
0.0
 10
-13.24913
 20
-11.78981
 30
0.0
 10
-13.27275
 20
-11.83238
 30
0.0
 10
-13.29334
 20
-11.86843
 30
0.0
 10
-13.29334
 20
-11.86843
 30
0.0
 10
-13.34075
 20
-11.95134
 30
0.0
 10
-13.43188
 20
-12.01847
 30
0.0
 10
-13.52611
 20
-12.04127
 30
0.0
 10
-13.52611
 20
-12.04127
 30
0.0
 10
-13.64523
 20
-12.07013
 30
0.0
 10
-13.76424
 20
-12.01728
 30
0.0
 10
-13.83493
 20
-11.91704
 30
0.0
 10
-13.83493
 20
-11.91704
 30
0.0
 10
-13.94705
 20
-11.758
 30
0.0
 10
-13.88067
 20
-11.52677
 30
0.0
 10
-13.73266
 20
-11.41451
 30
0.0
 10
-13.73266
 20
-11.41451
 30
0.0
 10
-13.65955
 20
-11.35906
 30
0.0
 10
-13.56764
 20
-11.33564
 30
0.0
 10
-13.4788
 20
-11.36435
 30
0.0
 10
-13.4788
 20
-11.36435
 30
0.0
 10
-13.40638
 20
-11.38779
 30
0.0
 10
-13.40215
 20
-11.40257
 30
0.0
 10
-13.33755
 20
-11.34668
 30
0.0
 10
-13.33755
 20
-11.34668
 30
0.0
 10
-13.27564
 20
-11.2931
 30
0.0
 10
-13.21342
 20
-11.19715
 30
0.0
 10
-13.16683
 20
-11.12178
 30
0.0
 10
-13.16683
 20
-11.12178
 30
0.0
 10
-13.23115
 20
-10.83609
 30
0.0
 10
-13.43793
 20
-10.62416
 30
0.0
 10
-13.73192
 20
-10.56076
 30
0.0
 10
-13.73192
 20
-10.56076
 30
0.0
 10
-13.78083
 20
-10.55024
 30
0.0
 10
-13.99753
 20
-10.54828
 30
0.0
 10
-14.05645
 20
-10.56726
 30
0.0
 10
-14.05645
 20
-10.56726
 30
0.0
 10
-14.11389
 20
-10.60073
 30
0.0
 10
-14.1741
 20
-10.63766
 30
0.0
 10
-14.23401
 20
-10.67525
 30
0.0
 10
-14.23401
 20
-10.67525
 30
0.0
 10
-14.34364
 20
-10.74406
 30
0.0
 10
-14.46391
 20
-10.80325
 30
0.0
 10
-14.56696
 20
-10.88172
 30
0.0
 10
-14.56696
 20
-10.88172
 30
0.0
 10
-14.52926
 20
-10.95614
 30
0.0
 10
-14.556
 20
-11.03882
 30
0.0
 10
-14.5976
 20
-11.10522
 30
0.0
 10
-14.5976
 20
-11.10522
 30
0.0
 10
-14.65897
 20
-11.20317
 30
0.0
 10
-14.76793
 20
-11.25191
 30
0.0
 10
-14.88066
 20
-11.25831
 30
0.0
 10
-14.88066
 20
-11.25831
 30
0.0
 10
-15.09506
 20
-11.27043
 30
0.0
 10
-15.25265
 20
-11.05763
 30
0.0
 10
-15.24927
 20
-10.85955
 30
0.0
 10
-15.24927
 20
-10.85955
 30
0.0
 10
-15.24648
 20
-10.69564
 30
0.0
 10
-15.15984
 20
-10.56737
 30
0.0
 10
-14.99791
 20
-10.52185
 30
0.0
 10
-14.99791
 20
-10.52185
 30
0.0
 10
-14.88629
 20
-10.49048
 30
0.0
 10
-14.77315
 20
-10.50833
 30
0.0
 10
-14.70835
 20
-10.60394
 30
0.0
 10
-14.70835
 20
-10.60394
 30
0.0
 10
-14.59182
 20
-10.53267
 30
0.0
 10
-14.4331
 20
-10.47081
 30
0.0
 10
-14.31191
 20
-10.4048
 30
0.0
 10
-14.31191
 20
-10.4048
 30
0.0
 10
-14.31191
 20
-10.27561
 30
0.0
 10
-14.32304
 20
-10.23042
 30
0.0
 10
-14.33459
 20
-10.146
 30
0.0
 10
-14.33459
 20
-10.146
 30
0.0
 10
-14.35343
 20
-10.00813
 30
0.0
 10
-14.41792
 20
-9.87222
 30
0.0
 10
-14.52996
 20
-9.78629
 30
0.0
 10
-14.52996
 20
-9.78629
 30
0.0
 10
-14.55887
 20
-9.78694
 30
0.0
 10
-14.6015
 20
-9.76297
 30
0.0
 10
-14.63075
 20
-9.76298
 30
0.0
 10
-14.63075
 20
-9.76298
 30
0.0
 10
-14.71346
 20
-9.76298
 30
0.0
 10
-14.79671
 20
-9.76143
 30
0.0
 10
-14.87919
 20
-9.76347
 30
0.0
 10
-14.87919
 20
-9.76347
 30
0.0
 10
-14.86981
 20
-9.88472
 30
0.0
 10
-14.982
 20
-9.96893
 30
0.0
 10
-15.08491
 20
-10.00128
 30
0.0
 10
-15.08491
 20
-10.00128
 30
0.0
 10
-15.27105
 20
-10.0598
 30
0.0
 10
-15.4544
 20
-10.00428
 30
0.0
 10
-15.57161
 20
-9.8454
 30
0.0
 10
-15.57161
 20
-9.8454
 30
0.0
 10
-15.6331
 20
-9.76202
 30
0.0
 10
-15.63827
 20
-9.63658
 30
0.0
 10
-15.62364
 20
-9.53767
 30
0.0
 10
-15.62364
 20
-9.53767
 30
0.0
 10
-15.60661
 20
-9.42269
 30
0.0
 10
-15.53755
 20
-9.34499
 30
0.0
 10
-15.44708
 20
-9.27869
 30
0.0
 10
-15.44708
 20
-9.27869
 30
0.0
 10
-15.29139
 20
-9.16454
 30
0.0
 10
-15.09336
 20
-9.2026
 30
0.0
 10
-14.95766
 20
-9.33386
 30
0.0
 10
-14.95766
 20
-9.33386
 30
0.0
 10
-14.89813
 20
-9.39143
 30
0.0
 10
-14.88316
 20
-9.44486
 30
0.0
 10
-14.87231
 20
-9.51392
 30
0.0
 10
-14.87231
 20
-9.51392
 30
0.0
 10
-14.7943
 20
-9.51875
 30
0.0
 10
-14.71264
 20
-9.52038
 30
0.0
 10
-14.63179
 20
-9.51991
 30
0.0
 10
-14.63179
 20
-9.51991
 30
0.0
 10
-14.40403
 20
-9.38949
 30
0.0
 10
-14.24662
 20
-9.11927
 30
0.0
 10
-14.19753
 20
-8.82819
 30
0.0
 10
-14.19753
 20
-8.82819
 30
0.0
 10
-14.23089
 20
-8.78396
 30
0.0
 10
-14.25842
 20
-8.75463
 30
0.0
 10
-14.28832
 20
-8.72769
 30
0.0
 10
-14.28832
 20
-8.72769
 30
0.0
 10
-14.32816
 20
-8.69177
 30
0.0
 10
-14.39958
 20
-8.66245
 30
0.0
 10
-14.42407
 20
-8.61902
 30
0.0
 10
-14.42407
 20
-8.61902
 30
0.0
 10
-14.6191
 20
-8.71428
 30
0.0
 10
-14.81198
 20
-8.59607
 30
0.0
 10
-14.87004
 20
-8.3966
 30
0.0
 10
-14.87004
 20
-8.3966
 30
0.0
 10
-14.94872
 20
-8.12548
 30
0.0
 10
-14.71958
 20
-7.93831
 30
0.0
 10
-14.46205
 20
-7.95154
 30
0.0
 10
-14.46205
 20
-7.95154
 30
0.0
 10
-14.34304
 20
-7.95765
 30
0.0
 10
-14.22941
 20
-8.03825
 30
0.0
 10
-14.17365
 20
-8.14165
 30
0.0
 10
-14.17365
 20
-8.14165
 30
0.0
 10
-14.14541
 20
-8.19398
 30
0.0
 10
-14.13052
 20
-8.25376
 30
0.0
 10
-14.13714
 20
-8.31329
 30
0.0
 10
-14.13714
 20
-8.31329
 30
0.0
 10
-14.13889
 20
-8.32889
 30
0.0
 10
-14.18848
 20
-8.48047
 30
0.0
 10
-14.20794
 20
-8.46764
 30
0.0
 10
-14.20794
 20
-8.46764
 30
0.0
 10
-14.03213
 20
-8.58349
 30
0.0
 10
-13.8607
 20
-8.72131
 30
0.0
 10
-13.70321
 20
-8.86254
 30
0.0
 10
-13.70321
 20
-8.86254
 30
0.0
 10
-13.5172
 20
-9.02933
 30
0.0
 10
-13.3337
 20
-9.18754
 30
0.0
 10
-13.13547
 20
-9.33804
 30
0.0
 10
-13.13547
 20
-9.33804
 30
0.0
 10
-13.13547
 20
-9.33804
 30
0.0
 10
-13.11878
 20
-9.33804
 30
0.0
 10
-13.11878
 20
-9.33804
 30
0.0
 10
-13.11878
 20
-9.33804
 30
0.0
 10
-13.11878
 20
-9.33804
 30
0.0
 10
-11.44998
 20
-9.33804
 30
0.0
 10
-11.44998
 20
-9.33804
 30
0.0
 10
-11.44998
 20
-9.33804
 30
0.0
 10
-11.44998
 20
-9.33804
 30
0.0
 10
-11.44998
 20
-8.9376
 30
0.0
 10
-11.44998
 20
-8.9376
 30
0.0
 10
-11.44998
 20
-8.9376
 30
0.0
 10
-11.44998
 20
-8.66146
 30
0.0
 10
-11.22612
 20
-8.4376
 30
0.0
 10
-10.94998
 20
-8.4376
 30
0.0
 10
-10.94998
 20
-8.4376
 30
0.0
 10
-10.94998
 20
-8.4376
 30
0.0
 10
-10.54998
 20
-8.4376
 30
0.0
 10
-10.54998
 20
-8.4376
 30
0.0
 10
-10.54998
 20
-8.4376
 30
0.0
 10
-10.27384
 20
-8.4376
 30
0.0
 10
-10.04998
 20
-8.66146
 30
0.0
 10
-10.04998
 20
-8.9376
 30
0.0
 10
-10.04998
 20
-8.9376
 30
0.0
 10
-10.04998
 20
-8.9376
 30
0.0
 10
-10.04998
 20
-10.8376
 30
0.0
 10
-10.04998
 20
-10.8376
 30
0.0
 10
-10.04998
 20
-10.8376
 30
0.0
 10
-10.04998
 20
-11.11374
 30
0.0
 10
-10.27384
 20
-11.3376
 30
0.0
 10
-10.54998
 20
-11.3376
 30
0.0
 10
-10.54998
 20
-11.3376
 30
0.0
 10
-10.54998
 20
-11.3376
 30
0.0
 10
-10.94998
 20
-11.3376
 30
0.0
 10
-10.94998
 20
-11.3376
 30
0.0
 10
-10.94998
 20
-11.3376
 30
0.0
 10
-11.22612
 20
-11.3376
 30
0.0
 10
-11.44998
 20
-11.11374
 30
0.0
 10
-11.44998
 20
-10.8376
 30
0.0
  0
ELLIPSE
  5
47
330
1F
100
AcDbEntity
  8
Layer 1
370
    53
100
AcDbEllipse
 10
-10.74998
 20
-9.1376
 30
0.0
 11
0.0
 21
0.3
 31
0.0
210
0.0
220
0.0
230
1.0
 40
1.0
 41
0.0
 42
6.283185307179586
  0
ELLIPSE
  5
48
330
1F
100
AcDbEntity
  8
Layer 1
370
    53
100
AcDbEllipse
 10
-10.74998
 20
-10.6376
 30
0.0
 11
0.0
 21
0.3
 31
0.0
210
0.0
220
0.0
230
1.0
 40
1.0
 41
0.0
 42
6.283185307179586
  0
SPLINE
  5
49
330
1F
100
AcDbEntity
  8
Layer 1
 62
     5
370
    53
100
AcDbSpline
210
0.0
220
0.0
230
1.0
 70
     8
 71
     3
 72
    32
 73
    28
 74
     0
 42
0.0000000001
 43
0.0000000001
 12
1.0
 22
0.0
 32
0.0
 13
1.0
 23
0.0
 33
0.0
 40
0.0
 40
0.0
 40
0.0
 40
0.0
 40
0.125
 40
0.125
 40
0.125
 40
0.125
 40
0.25
 40
0.25
 40
0.25
 40
0.25
 40
0.375
 40
0.375
 40
0.375
 40
0.375
 40
0.5
 40
0.5
 40
0.5
 40
0.5
 40
0.625
 40
0.625
 40
0.625
 40
0.625
 40
0.75
 40
0.75
 40
0.75
 40
0.75
 40
1.0
 40
1.0
 40
1.0
 40
1.0
 10
-5.94686
 20
-10.56529
 30
0.0
 10
-5.98846
 20
-10.54105
 30
0.0
 10
-6.03034
 20
-10.51749
 30
0.0
 10
-6.07261
 20
-10.4949
 30
0.0
 10
-6.07261
 20
-10.4949
 30
0.0
 10
-6.13301
 20
-10.46258
 30
0.0
 10
-6.19417
 20
-10.43224
 30
0.0
 10
-6.25642
 20
-10.40459
 30
0.0
 10
-6.25642
 20
-10.40459
 30
0.0
 10
-6.34254
 20
-10.3663
 30
0.0
 10
-6.43114
 20
-10.32873
 30
0.0
 10
-6.52402
 20
-10.30636
 30
0.0
 10
-6.52402
 20
-10.30636
 30
0.0
 10
-6.69805
 20
-10.2644
 30
0.0
 10
-6.98479
 20
-10.13634
 30
0.0
 10
-7.09933
 20
-10.34366
 30
0.0
 10
-7.09933
 20
-10.34366
 30
0.0
 10
-7.14533
 20
-10.42697
 30
0.0
 10
-7.12161
 20
-10.53911
 30
0.0
 10
-7.0959
 20
-10.62659
 30
0.0
 10
-7.0959
 20
-10.62659
 30
0.0
 10
-7.05324
 20
-10.77158
 30
0.0
 10
-6.97565
 20
-10.90216
 30
0.0
 10
-6.89253
 20
-11.02717
 30
0.0
 10
-6.89253
 20
-11.02717
 30
0.0
 10
-6.86897
 20
-11.06257
 30
0.0
 10
-6.85753
 20
-11.08231
 30
0.0
 10
-6.83313
 20
-11.12178
 30
0.0
  0
SPLINE
  5
4A
330
1F
100
AcDbEntity
  8
Layer 1
 62
     5
370
    53
100
AcDbSpline
210
0.0
220
0.0
230
1.0
 70
     8
 71
     3
 72
    32
 73
    28
 74
     0
 42
0.0000000001
 43
0.0000000001
 12
1.0
 22
0.0
 32
0.0
 13
1.0
 23
0.0
 33
0.0
 40
0.0
 40
0.0
 40
0.0
 40
0.0
 40
0.125
 40
0.125
 40
0.125
 40
0.125
 40
0.25
 40
0.25
 40
0.25
 40
0.25
 40
0.375
 40
0.375
 40
0.375
 40
0.375
 40
0.5
 40
0.5
 40
0.5
 40
0.5
 40
0.625
 40
0.625
 40
0.625
 40
0.625
 40
0.75
 40
0.75
 40
0.75
 40
0.75
 40
1.0
 40
1.0
 40
1.0
 40
1.0
 10
-5.47
 20
-9.78629
 30
0.0
 10
-5.53362
 20
-9.78485
 30
0.0
 10
-5.58314
 20
-9.75881
 30
0.0
 10
-5.64708
 20
-9.76476
 30
0.0
 10
-5.64708
 20
-9.76476
 30
0.0
 10
-5.78624
 20
-9.77778
 30
0.0
 10
-5.91398
 20
-9.75471
 30
0.0
 10
-6.04858
 20
-9.75587
 30
0.0
 10
-6.04858
 20
-9.75587
 30
0.0
 10
-6.1805
 20
-9.75701
 30
0.0
 10
-6.40336
 20
-9.72518
 30
0.0
 10
-6.51469
 20
-9.80579
 30
0.0
 10
-6.51469
 20
-9.80579
 30
0.0
 10
-6.42421
 20
-9.93977
 30
0.0
 10
-6.28365
 20
-10.02513
 30
0.0
 10
-6.15208
 20
-10.10903
 30
0.0
 10
-6.15208
 20
-10.10903
 30
0.0
 10
-6.10162
 20
-10.1412
 30
0.0
 10
-6.05217
 20
-10.17566
 30
0.0
 10
-6.00031
 20
-10.20556
 30
0.0
 10
-6.00031
 20
-10.20556
 30
0.0
 10
-5.90608
 20
-10.25993
 30
0.0
 10
-5.81882
 20
-10.32085
 30
0.0
 10
-5.72777
 20
-10.37842
 30
0.0
 10
-5.72777
 20
-10.37842
 30
0.0
 10
-5.70627
 20
-10.39202
 30
0.0
 10
-5.71048
 20
-10.39258
 30
0.0
 10
-5.68805
 20
-10.4048
 30
0.0
  0
SPLINE
  5
4B
330
1F
100
AcDbEntity
  8
Layer 1
 62
     5
370
    53
100
AcDbSpline
210
0.0
220
0.0
230
1.0
 70
     8
 71
     3
 72
    20
 73
    16
 74
     0
 42
0.0000000001
 43
0.0000000001
 12
1.0
 22
0.0
 32
0.0
 13
1.0
 23
0.0
 33
0.0
 40
0.0
 40
0.0
 40
0.0
 40
0.0
 40
0.2
 40
0.2
 40
0.2
 40
0.2
 40
0.4
 40
0.4
 40
0.4
 40
0.4
 40
0.6
 40
0.6
 40
0.6
 40
0.6
 40
1.0
 40
1.0
 40
1.0
 40
1.0
 10
-5.797
 20
-8.81283
 30
0.0
 10
-5.81376
 20
-8.83016
 30
0.0
 10
-5.83067
 20
-8.84735
 30
0.0
 10
-5.84833
 20
-8.86376
 30
0.0
 10
-5.84833
 20
-8.86376
 30
0.0
 10
-5.94879
 20
-8.95716
 30
0.0
 10
-6.04333
 20
-9.05672
 30
0.0
 10
-6.14506
 20
-9.14878
 30
0.0
 10
-6.14506
 20
-9.14878
 30
0.0
 10
-6.27274
 20
-9.26435
 30
0.0
 10
-6.40121
 20
-9.38026
 30
0.0
 10
-6.53797
 20
-9.48346
 30
0.0
 10
-6.53797
 20
-9.48346
 30
0.0
 10
-6.15262
 20
-9.47618
 30
0.0
 10
-5.73708
 20
-9.51785
 30
0.0
 10
-5.37165
 20
-9.51991
 30
0.0
  0
ELLIPSE
  5
4C
330
1F
100
AcDbEntity
  8
Layer 1
370
    53
100
AcDbEllipse
 10
-9.24998
 20
-9.1376
 30
0.0
 11
0.0
 21
0.3
 31
0.0
210
0.0
220
0.0
230
1.0
 40
1.0
 41
0.0
 42
6.283185307179586
  0
ELLIPSE
  5
4D
330
1F
100
AcDbEntity
  8
Layer 1
370
    53
100
AcDbEllipse
 10
-9.24998
 20
-10.6376
 30
0.0
 11
0.0
 21
0.3
 31
0.0
210
0.0
220
0.0
230
1.0
 40
1.0
 41
0.0
 42
6.283185307179586
  0
SPLINE
  5
4E
330
1F
100
AcDbEntity
  8
Layer 1
370
    53
100
AcDbSpline
210
0.0
220
0.0
230
1.0
 70
    11
 71
     3
 72
   224
 73
   220
 74
     0
 42
0.0000000001
 43
0.0000000001
 12
1.0
 22
0.0
 32
0.0
 13
1.0
 23
0.0
 33
0.0
 40
0.0
 40
0.0
 40
0.0
 40
0.0
 40
0.0178571428571429
 40
0.0178571428571429
 40
0.0178571428571429
 40
0.0178571428571429
 40
0.0357142857142857
 40
0.0357142857142857
 40
0.0357142857142857
 40
0.0357142857142857
 40
0.0535714285714286
 40
0.0535714285714286
 40
0.0535714285714286
 40
0.0535714285714286
 40
0.0714285714285714
 40
0.0714285714285714
 40
0.0714285714285714
 40
0.0714285714285714
 40
0.0892857142857143
 40
0.0892857142857143
 40
0.0892857142857143
 40
0.0892857142857143
 40
0.1071428571428571
 40
0.1071428571428571
 40
0.1071428571428571
 40
0.1071428571428571
 40
0.125
 40
0.125
 40
0.125
 40
0.125
 40
0.1428571428571428
 40
0.1428571428571428
 40
0.1428571428571428
 40
0.1428571428571428
 40
0.1607142857142857
 40
0.1607142857142857
 40
0.1607142857142857
 40
0.1607142857142857
 40
0.1785714285714286
 40
0.1785714285714286
 40
0.1785714285714286
 40
0.1785714285714286
 40
0.1964285714285714
 40
0.1964285714285714
 40
0.1964285714285714
 40
0.1964285714285714
 40
0.2142857142857143
 40
0.2142857142857143
 40
0.2142857142857143
 40
0.2142857142857143
 40
0.2321428571428572
 40
0.2321428571428572
 40
0.2321428571428572
 40
0.2321428571428572
 40
0.25
 40
0.25
 40
0.25
 40
0.25
 40
0.2678571428571428
 40
0.2678571428571428
 40
0.2678571428571428
 40
0.2678571428571428
 40
0.2857142857142857
 40
0.2857142857142857
 40
0.2857142857142857
 40
0.2857142857142857
 40
0.3035714285714285
 40
0.3035714285714285
 40
0.3035714285714285
 40
0.3035714285714285
 40
0.3214285714285715
 40
0.3214285714285715
 40
0.3214285714285715
 40
0.3214285714285715
 40
0.3392857142857143
 40
0.3392857142857143
 40
0.3392857142857143
 40
0.3392857142857143
 40
0.3571428571428572
 40
0.3571428571428572
 40
0.3571428571428572
 40
0.3571428571428572
 40
0.375
 40
0.375
 40
0.375
 40
0.375
 40
0.3928571428571428
 40
0.3928571428571428
 40
0.3928571428571428
 40
0.3928571428571428
 40
0.4107142857142857
 40
0.4107142857142857
 40
0.4107142857142857
 40
0.4107142857142857
 40
0.4285714285714285
 40
0.4285714285714285
 40
0.4285714285714285
 40
0.4285714285714285
 40
0.4464285714285715
 40
0.4464285714285715
 40
0.4464285714285715
 40
0.4464285714285715
 40
0.4642857142857143
 40
0.4642857142857143
 40
0.4642857142857143
 40
0.4642857142857143
 40
0.4821428571428572
 40
0.4821428571428572
 40
0.4821428571428572
 40
0.4821428571428572
 40
0.5
 40
0.5
 40
0.5
 40
0.5
 40
0.5178571428571429
 40
0.5178571428571429
 40
0.5178571428571429
 40
0.5178571428571429
 40
0.5357142857142857
 40
0.5357142857142857
 40
0.5357142857142857
 40
0.5357142857142857
 40
0.5535714285714286
 40
0.5535714285714286
 40
0.5535714285714286
 40
0.5535714285714286
 40
0.5714285714285714
 40
0.5714285714285714
 40
0.5714285714285714
 40
0.5714285714285714
 40
0.5892857142857143
 40
0.5892857142857143
 40
0.5892857142857143
 40
0.5892857142857143
 40
0.6071428571428571
 40
0.6071428571428571
 40
0.6071428571428571
 40
0.6071428571428571
 40
0.625
 40
0.625
 40
0.625
 40
0.625
 40
0.6428571428571429
 40
0.6428571428571429
 40
0.6428571428571429
 40
0.6428571428571429
 40
0.6607142857142857
 40
0.6607142857142857
 40
0.6607142857142857
 40
0.6607142857142857
 40
0.6785714285714286
 40
0.6785714285714286
 40
0.6785714285714286
 40
0.6785714285714286
 40
0.6964285714285714
 40
0.6964285714285714
 40
0.6964285714285714
 40
0.6964285714285714
 40
0.7142857142857143
 40
0.7142857142857143
 40
0.7142857142857143
 40
0.7142857142857143
 40
0.7321428571428571
 40
0.7321428571428571
 40
0.7321428571428571
 40
0.7321428571428571
 40
0.75
 40
0.75
 40
0.75
 40
0.75
 40
0.7678571428571429
 40
0.7678571428571429
 40
0.7678571428571429
 40
0.7678571428571429
 40
0.7857142857142857
 40
0.7857142857142857
 40
0.7857142857142857
 40
0.7857142857142857
 40
0.8035714285714286
 40
0.8035714285714286
 40
0.8035714285714286
 40
0.8035714285714286
 40
0.8214285714285714
 40
0.8214285714285714
 40
0.8214285714285714
 40
0.8214285714285714
 40
0.8392857142857143
 40
0.8392857142857143
 40
0.8392857142857143
 40
0.8392857142857143
 40
0.8571428571428571
 40
0.8571428571428571
 40
0.8571428571428571
 40
0.8571428571428571
 40
0.875
 40
0.875
 40
0.875
 40
0.875
 40
0.8928571428571429
 40
0.8928571428571429
 40
0.8928571428571429
 40
0.8928571428571429
 40
0.9107142857142857
 40
0.9107142857142857
 40
0.9107142857142857
 40
0.9107142857142857
 40
0.9285714285714286
 40
0.9285714285714286
 40
0.9285714285714286
 40
0.9285714285714286
 40
0.9464285714285714
 40
0.9464285714285714
 40
0.9464285714285714
 40
0.9464285714285714
 40
0.9642857142857143
 40
0.9642857142857143
 40
0.9642857142857143
 40
0.9642857142857143
 40
1.0
 40
1.0
 40
1.0
 40
1.0
 10
-9.94998
 20
-10.8376
 30
0.0
 10
-9.94998
 20
-10.8376
 30
0.0
 10
-9.94998
 20
-8.9376
 30
0.0
 10
-9.94998
 20
-8.9376
 30
0.0
 10
-9.94998
 20
-8.9376
 30
0.0
 10
-9.94998
 20
-8.66146
 30
0.0
 10
-9.72612
 20
-8.4376
 30
0.0
 10
-9.44998
 20
-8.4376
 30
0.0
 10
-9.44998
 20
-8.4376
 30
0.0
 10
-9.44998
 20
-8.4376
 30
0.0
 10
-9.04998
 20
-8.4376
 30
0.0
 10
-9.04998
 20
-8.4376
 30
0.0
 10
-9.04998
 20
-8.4376
 30
0.0
 10
-8.77384
 20
-8.4376
 30
0.0
 10
-8.54998
 20
-8.66146
 30
0.0
 10
-8.54998
 20
-8.9376
 30
0.0
 10
-8.54998
 20
-8.9376
 30
0.0
 10
-8.54998
 20
-8.9376
 30
0.0
 10
-8.54998
 20
-9.33804
 30
0.0
 10
-8.54998
 20
-9.33804
 30
0.0
 10
-8.54998
 20
-9.33804
 30
0.0
 10
-8.54998
 20
-9.33804
 30
0.0
 10
-6.88118
 20
-9.33804
 30
0.0
 10
-6.88118
 20
-9.33804
 30
0.0
 10
-6.88118
 20
-9.33804
 30
0.0
 10
-6.88118
 20
-9.33804
 30
0.0
 10
-6.86449
 20
-9.33804
 30
0.0
 10
-6.86449
 20
-9.33804
 30
0.0
 10
-6.86449
 20
-9.33804
 30
0.0
 10
-6.66626
 20
-9.18754
 30
0.0
 10
-6.48276
 20
-9.02933
 30
0.0
 10
-6.29675
 20
-8.86254
 30
0.0
 10
-6.29675
 20
-8.86254
 30
0.0
 10
-6.13927
 20
-8.72131
 30
0.0
 10
-5.96783
 20
-8.58349
 30
0.0
 10
-5.79202
 20
-8.46764
 30
0.0
 10
-5.79202
 20
-8.46764
 30
0.0
 10
-5.81148
 20
-8.48047
 30
0.0
 10
-5.86107
 20
-8.32889
 30
0.0
 10
-5.86282
 20
-8.31329
 30
0.0
 10
-5.86282
 20
-8.31329
 30
0.0
 10
-5.86944
 20
-8.25376
 30
0.0
 10
-5.85455
 20
-8.19398
 30
0.0
 10
-5.82631
 20
-8.14165
 30
0.0
 10
-5.82631
 20
-8.14165
 30
0.0
 10
-5.77055
 20
-8.03825
 30
0.0
 10
-5.65692
 20
-7.95765
 30
0.0
 10
-5.53791
 20
-7.95154
 30
0.0
 10
-5.53791
 20
-7.95154
 30
0.0
 10
-5.28038
 20
-7.93831
 30
0.0
 10
-5.05124
 20
-8.12548
 30
0.0
 10
-5.12992
 20
-8.3966
 30
0.0
 10
-5.12992
 20
-8.3966
 30
0.0
 10
-5.18798
 20
-8.59607
 30
0.0
 10
-5.38086
 20
-8.71428
 30
0.0
 10
-5.57589
 20
-8.61902
 30
0.0
 10
-5.57589
 20
-8.61902
 30
0.0
 10
-5.60038
 20
-8.66245
 30
0.0
 10
-5.6718
 20
-8.69177
 30
0.0
 10
-5.71165
 20
-8.72769
 30
0.0
 10
-5.71165
 20
-8.72769
 30
0.0
 10
-5.74154
 20
-8.75463
 30
0.0
 10
-5.76907
 20
-8.78396
 30
0.0
 10
-5.80243
 20
-8.82819
 30
0.0
 10
-5.80243
 20
-8.82819
 30
0.0
 10
-5.75335
 20
-9.11927
 30
0.0
 10
-5.59594
 20
-9.38949
 30
0.0
 10
-5.36817
 20
-9.51991
 30
0.0
 10
-5.36817
 20
-9.51991
 30
0.0
 10
-5.28732
 20
-9.52038
 30
0.0
 10
-5.20566
 20
-9.51875
 30
0.0
 10
-5.12765
 20
-9.51392
 30
0.0
 10
-5.12765
 20
-9.51392
 30
0.0
 10
-5.1168
 20
-9.44486
 30
0.0
 10
-5.10183
 20
-9.39143
 30
0.0
 10
-5.0423
 20
-9.33386
 30
0.0
 10
-5.0423
 20
-9.33386
 30
0.0
 10
-4.9066
 20
-9.2026
 30
0.0
 10
-4.70857
 20
-9.16454
 30
0.0
 10
-4.55288
 20
-9.27869
 30
0.0
 10
-4.55288
 20
-9.27869
 30
0.0
 10
-4.46241
 20
-9.34499
 30
0.0
 10
-4.39335
 20
-9.42269
 30
0.0
 10
-4.37632
 20
-9.53767
 30
0.0
 10
-4.37632
 20
-9.53767
 30
0.0
 10
-4.3617
 20
-9.63658
 30
0.0
 10
-4.36686
 20
-9.76202
 30
0.0
 10
-4.42836
 20
-9.8454
 30
0.0
 10
-4.42836
 20
-9.8454
 30
0.0
 10
-4.54556
 20
-10.00428
 30
0.0
 10
-4.72891
 20
-10.0598
 30
0.0
 10
-4.91505
 20
-10.00128
 30
0.0
 10
-4.91505
 20
-10.00128
 30
0.0
 10
-5.01796
 20
-9.96893
 30
0.0
 10
-5.13015
 20
-9.88472
 30
0.0
 10
-5.12077
 20
-9.76347
 30
0.0
 10
-5.12077
 20
-9.76347
 30
0.0
 10
-5.20325
 20
-9.76143
 30
0.0
 10
-5.2865
 20
-9.76298
 30
0.0
 10
-5.36921
 20
-9.76298
 30
0.0
 10
-5.36921
 20
-9.76298
 30
0.0
 10
-5.39846
 20
-9.76297
 30
0.0
 10
-5.44109
 20
-9.78694
 30
0.0
 10
-5.47
 20
-9.78629
 30
0.0
 10
-5.47
 20
-9.78629
 30
0.0
 10
-5.58204
 20
-9.87222
 30
0.0
 10
-5.64653
 20
-10.00813
 30
0.0
 10
-5.66537
 20
-10.146
 30
0.0
 10
-5.66537
 20
-10.146
 30
0.0
 10
-5.67692
 20
-10.23042
 30
0.0
 10
-5.68805
 20
-10.27561
 30
0.0
 10
-5.68805
 20
-10.4048
 30
0.0
 10
-5.68805
 20
-10.4048
 30
0.0
 10
-5.56687
 20
-10.47081
 30
0.0
 10
-5.40814
 20
-10.53267
 30
0.0
 10
-5.29161
 20
-10.60394
 30
0.0
 10
-5.29161
 20
-10.60394
 30
0.0
 10
-5.22681
 20
-10.50833
 30
0.0
 10
-5.11367
 20
-10.49048
 30
0.0
 10
-5.00205
 20
-10.52185
 30
0.0
 10
-5.00205
 20
-10.52185
 30
0.0
 10
-4.84012
 20
-10.56737
 30
0.0
 10
-4.75348
 20
-10.69564
 30
0.0
 10
-4.75069
 20
-10.85955
 30
0.0
 10
-4.75069
 20
-10.85955
 30
0.0
 10
-4.74731
 20
-11.05763
 30
0.0
 10
-4.9049
 20
-11.27043
 30
0.0
 10
-5.1193
 20
-11.25831
 30
0.0
 10
-5.1193
 20
-11.25831
 30
0.0
 10
-5.23203
 20
-11.25191
 30
0.0
 10
-5.34099
 20
-11.20317
 30
0.0
 10
-5.40236
 20
-11.10522
 30
0.0
 10
-5.40236
 20
-11.10522
 30
0.0
 10
-5.44396
 20
-11.03882
 30
0.0
 10
-5.4707
 20
-10.95614
 30
0.0
 10
-5.43301
 20
-10.88172
 30
0.0
 10
-5.43301
 20
-10.88172
 30
0.0
 10
-5.53605
 20
-10.80325
 30
0.0
 10
-5.65633
 20
-10.74406
 30
0.0
 10
-5.76595
 20
-10.67525
 30
0.0
 10
-5.76595
 20
-10.67525
 30
0.0
 10
-5.82586
 20
-10.63766
 30
0.0
 10
-5.88607
 20
-10.60073
 30
0.0
 10
-5.94351
 20
-10.56726
 30
0.0
 10
-5.94351
 20
-10.56726
 30
0.0
 10
-6.00243
 20
-10.54828
 30
0.0
 10
-6.21913
 20
-10.55024
 30
0.0
 10
-6.26804
 20
-10.56076
 30
0.0
 10
-6.26804
 20
-10.56076
 30
0.0
 10
-6.56203
 20
-10.62416
 30
0.0
 10
-6.76882
 20
-10.83609
 30
0.0
 10
-6.83313
 20
-11.12178
 30
0.0
 10
-6.83313
 20
-11.12178
 30
0.0
 10
-6.78654
 20
-11.19715
 30
0.0
 10
-6.72432
 20
-11.2931
 30
0.0
 10
-6.66241
 20
-11.34668
 30
0.0
 10
-6.66241
 20
-11.34668
 30
0.0
 10
-6.59782
 20
-11.40256
 30
0.0
 10
-6.59358
 20
-11.38779
 30
0.0
 10
-6.52116
 20
-11.36435
 30
0.0
 10
-6.52116
 20
-11.36435
 30
0.0
 10
-6.43232
 20
-11.33564
 30
0.0
 10
-6.34042
 20
-11.35906
 30
0.0
 10
-6.2673
 20
-11.4145
 30
0.0
 10
-6.2673
 20
-11.4145
 30
0.0
 10
-6.11929
 20
-11.52677
 30
0.0
 10
-6.05291
 20
-11.758
 30
0.0
 10
-6.16503
 20
-11.91703
 30
0.0
 10
-6.16503
 20
-11.91703
 30
0.0
 10
-6.23572
 20
-12.01728
 30
0.0
 10
-6.35473
 20
-12.07012
 30
0.0
 10
-6.47385
 20
-12.04126
 30
0.0
 10
-6.47385
 20
-12.04126
 30
0.0
 10
-6.56808
 20
-12.01847
 30
0.0
 10
-6.65921
 20
-11.95134
 30
0.0
 10
-6.70662
 20
-11.86843
 30
0.0
 10
-6.70662
 20
-11.86843
 30
0.0
 10
-6.72721
 20
-11.83238
 30
0.0
 10
-6.75083
 20
-11.7898
 30
0.0
 10
-6.7561
 20
-11.74804
 30
0.0
 10
-6.7561
 20
-11.74804
 30
0.0
 10
-6.76039
 20
-11.71417
 30
0.0
 10
-6.73644
 20
-11.67257
 30
0.0
 10
-6.7445
 20
-11.64387
 30
0.0
 10
-6.7445
 20
-11.64387
 30
0.0
 10
-6.7538
 20
-11.61092
 30
0.0
 10
-6.81985
 20
-11.56591
 30
0.0
 10
-6.84367
 20
-11.54147
 30
0.0
 10
-6.84367
 20
-11.54147
 30
0.0
 10
-6.9895
 20
-11.39198
 30
0.0
 10
-7.09184
 20
-11.1932
 30
0.0
 10
-7.21052
 20
-11.02277
 30
0.0
 10
-7.21052
 20
-11.02277
 30
0.0
 10
-7.36242
 20
-10.80452
 30
0.0
 10
-7.53337
 20
-10.56797
 30
0.0
 10
-7.75788
 20
-10.41893
 30
0.0
 10
-7.75788
 20
-10.41893
 30
0.0
 10
-7.88368
 20
-10.3354
 30
0.0
 10
-8.00865
 20
-10.31661
 30
0.0
 10
-8.14205
 20
-10.31307
 30
0.0
 10
-8.14205
 20
-10.31307
 30
0.0
 10
-8.14205
 20
-10.31307
 30
0.0
 10
-8.54998
 20
-10.31307
 30
0.0
 10
-8.54998
 20
-10.31307
 30
0.0
 10
-8.54998
 20
-10.31307
 30
0.0
 10
-8.54998
 20
-10.31307
 30
0.0
 10
-8.54998
 20
-10.8376
 30
0.0
 10
-8.54998
 20
-10.8376
 30
0.0
 10
-8.54998
 20
-10.8376
 30
0.0
 10
-8.54998
 20
-11.11374
 30
0.0
 10
-8.77384
 20
-11.3376
 30
0.0
 10
-9.04998
 20
-11.3376
 30
0.0
 10
-9.04998
 20
-11.3376
 30
0.0
 10
-9.04998
 20
-11.3376
 30
0.0
 10
-9.44998
 20
-11.3376
 30
0.0
 10
-9.44998
 20
-11.3376
 30
0.0
 10
-9.44998
 20
-11.3376
 30
0.0
 10
-9.72612
 20
-11.3376
 30
0.0
 10
-9.94998
 20
-11.11374
 30
0.0
 10
-9.94998
 20
-10.8376
 30
0.0
  0
ELLIPSE
  5
4F
330
1F
100
AcDbEntity
  8
Layer 1
370
    53
100
AcDbEllipse
 10
-9.24998
 20
-9.1376
 30
0.0
 11
0.0
 21
0.3
 31
0.0
210
0.0
220
0.0
230
1.0
 40
1.0
 41
0.0
 42
6.283185307179586
  0
ELLIPSE
  5
50
330
1F
100
AcDbEntity
  8
Layer 1
370
    53
100
AcDbEllipse
 10
-9.24998
 20
-10.6376
 30
0.0
 11
0.0
 21
0.3
 31
0.0
210
0.0
220
0.0
230
1.0
 40
1.0
 41
0.0
 42
6.283185307179586
  0
ELLIPSE
  5
51
330
1F
100
AcDbEntity
  8
Layer 1
370
    53
100
AcDbEllipse
 10
-10.74998
 20
-9.8876
 30
0.0
 11
0.0
 21
0.15
 31
0.0
210
0.0
220
0.0
230
1.0
 40
1.0
 41
0.0
 42
6.283185307179586
  0
ELLIPSE
  5
52
330
1F
100
AcDbEntity
  8
Layer 1
370
    53
100
AcDbEllipse
 10
-9.24998
 20
-9.8876
 30
0.0
 11
0.0
 21
0.15
 31
0.0
210
0.0
220
0.0
230
1.0
 40
1.0
 41
0.0
 42
6.283185307179586
  0
ENDSEC
  0
SECTION
  2
OBJECTS
  0
DICTIONARY
  5
C
330
0
100
AcDbDictionary
281
     1
  3
ACAD_GROUP
350
D
  3
ACAD_LAYOUT
350
1A
  3
ACAD_MATERIAL
350
3B
  3
ACAD_MLEADERSTYLE
350
74
  3
ACAD_MLINESTYLE
350
17
  3
ACAD_PLOTSETTINGS
350
19
  3
ACAD_PLOTSTYLENAME
350
E
  3
ACAD_TABLESTYLE
350
73
  3
ACAD_VISUALSTYLE
350
2A
  0
DICTIONARY
  5
D
102
{ACAD_REACTORS
330
C
102
}
330
C
100
AcDbDictionary
281
     1
  0
DICTIONARY
  5
1A
102
{ACAD_REACTORS
330
C
102
}
330
C
100
AcDbDictionary
281
     1
  3
Layout1
350
1E
  3
Layout2
350
26
  3
Model
350
22
  0
DICTIONARY
  5
3B
102
{ACAD_REACTORS
330
C
102
}
330
C
100
AcDbDictionary
281
     1
  3
ByBlock
350
3D
  3
ByLayer
350
3C
  3
Global
350
3E
  0
DICTIONARY
  5
74
102
{ACAD_REACTORS
330
C
102
}
330
C
100
AcDbDictionary
281
     1
  0
DICTIONARY
  5
17
102
{ACAD_REACTORS
330
C
102
}
330
C
100
AcDbDictionary
281
     1
  3
Standard
350
18
  0
DICTIONARY
  5
19
102
{ACAD_REACTORS
330
C
102
}
330
C
100
AcDbDictionary
281
     1
  0
ACDBDICTIONARYWDFLT
  5
E
102
{ACAD_REACTORS
330
C
102
}
330
C
100
AcDbDictionary
281
     1
  3
Normal
350
F
100
AcDbDictionaryWithDefault
340
F
  0
DICTIONARY
  5
73
102
{ACAD_REACTORS
330
C
102
}
330
C
100
AcDbDictionary
281
     1
  0
DICTIONARY
  5
2A
102
{ACAD_REACTORS
330
C
102
}
330
C
100
AcDbDictionary
281
     1
  3
2dWireframe
350
2F
  3
3D Hidden
350
31
  3
3dWireframe
350
30
  3
Basic
350
32
  3
Brighten
350
36
  3
ColorChange
350
3A
  3
Conceptual
350
34
  3
Dim
350
35
  3
Facepattern
350
39
  3
Flat
350
2B
  3
FlatWithEdges
350
2C
  3
Gouraud
350
2D
  3
GouraudWithEdges
350
2E
  3
Linepattern
350
38
  3
Realistic
350
33
  3
Thicken
350
37
  0
LAYOUT
  5
1E
102
{ACAD_REACTORS
330
1A
102
}
330
1A
100
AcDbPlotSettings
  1

  2
none_device
  4

  6

 40
0.0
 41
0.0
 42
0.0
 43
0.0
 44
0.0
 45
0.0
 46
0.0
 47
0.0
 48
0.0
 49
0.0
140
0.0
141
0.0
142
1.0
143
1.0
 70
   688
 72
     0
 73
     0
 74
     5
  7

 75
    16
 76
     0
 77
     2
 78
   300
147
1.0
148
0.0
149
0.0
100
AcDbLayout
  1
Layout1
 70
     1
 71
     1
 10
0.0
 20
0.0
 11
12.0
 21
9.0
 12
0.0
 22
0.0
 32
0.0
 14
1.000000000000000E+20
 24
1.000000000000000E+20
 34
1.000000000000000E+20
 15
-1.000000000000000E+20
 25
-1.000000000000000E+20
 35
-1.000000000000000E+20
146
0.0
 13
0.0
 23
0.0
 33
0.0
 16
1.0
 26
0.0
 36
0.0
 17
0.0
 27
1.0
 37
0.0
 76
     0
330
1B
  0
LAYOUT
  5
26
102
{ACAD_REACTORS
330
1A
102
}
330
1A
100
AcDbPlotSettings
  1

  2
none_device
  4

  6

 40
0.0
 41
0.0
 42
0.0
 43
0.0
 44
0.0
 45
0.0
 46
0.0
 47
0.0
 48
0.0
 49
0.0
140
0.0
141
0.0
142
1.0
143
1.0
 70
   688
 72
     0
 73
     0
 74
     5
  7

 75
    16
 76
     0
 77
     2
 78
   300
147
1.0
148
0.0
149
0.0
100
AcDbLayout
  1
Layout2
 70
     1
 71
     2
 10
0.0
 20
0.0
 11
0.0
 21
0.0
 12
0.0
 22
0.0
 32
0.0
 14
0.0
 24
0.0
 34
0.0
 15
0.0
 25
0.0
 35
0.0
146
0.0
 13
0.0
 23
0.0
 33
0.0
 16
1.0
 26
0.0
 36
0.0
 17
0.0
 27
1.0
 37
0.0
 76
     0
330
23
  0
LAYOUT
  5
22
102
{ACAD_REACTORS
330
1A
102
}
330
1A
100
AcDbPlotSettings
  1

  2
none_device
  4

  6

 40
0.0
 41
0.0
 42
0.0
 43
0.0
 44
0.0
 45
0.0
 46
0.0
 47
0.0
 48
0.0
 49
0.0
140
0.0
141
0.0
142
1.0
143
1.0
 70
  1712
 72
     0
 73
     0
 74
     0
  7

 75
     0
 76
     0
 77
     2
 78
   300
147
1.0
148
0.0
149
0.0
100
AcDbLayout
  1
Model
 70
     1
 71
     0
 10
0.0
 20
0.0
 11
12.0
 21
9.0
 12
0.0
 22
0.0
 32
0.0
 14
-15.65693
 24
-12.07557
 34
0.0
 15
-4.34303
 25
-7.92442
 35
0.0
146
0.0
 13
0.0
 23
0.0
 33
0.0
 16
1.0
 26
0.0
 36
0.0
 17
0.0
 27
1.0
 37
0.0
 76
     0
330
1F
331
29
  0
MATERIAL
  5
3D
102
{ACAD_REACTORS
330
3B
102
}
330
3B
100
AcDbMaterial
  1
ByBlock
 72
     1
 94
      127
  0
MATERIAL
  5
3C
102
{ACAD_REACTORS
330
3B
102
}
330
3B
100
AcDbMaterial
  1
ByLayer
 72
     1
 94
      127
  0
MATERIAL
  5
3E
102
{ACAD_REACTORS
330
3B
102
}
330
3B
100
AcDbMaterial
  1
Global
 72
     1
 94
      127
  0
MLINESTYLE
  5
18
102
{ACAD_REACTORS
330
17
102
}
330
17
100
AcDbMlineStyle
  2
Standard
 70
     0
  3

 62
   256
 51
90.0
 52
90.0
 71
     2
 49
0.5
 62
   256
  6
BYLAYER
 49
-0.5
 62
   256
  6
BYLAYER
  0
ACDBPLACEHOLDER
  5
F
102
{ACAD_REACTORS
330
E
102
}
330
E
  0
VISUALSTYLE
  5
2F
102
{ACAD_REACTORS
330
2A
102
}
102
{ACAD_XDICTIONARY
360
5B
102
}
330
2A
100
AcDbVisualStyle
  2
2dWireframe
 70
     4
 71
     0
 72
     2
 73
     0
 90
        0
 40
-0.6
 41
-30.0
 62
     5
 63
     7
421
 16777215
 74
     1
 91
        4
 64
     7
 65
   257
 75
     1
175
     1
 42
1.0
 92
        0
 66
   257
 43
1.0
 76
     1
 77
     6
 78
     2
 67
     7
 79
     5
170
     0
171
     0
290
     0
174
     0
 93
        1
 44
0.0
173
     0
291
     0
 45
0.0
  0
VISUALSTYLE
  5
31
102
{ACAD_REACTORS
330
2A
102
}
102
{ACAD_XDICTIONARY
360
5F
102
}
330
2A
100
AcDbVisualStyle
  2
3D Hidden
 70
     6
 71
     1
 72
     2
 73
     2
 90
        0
 40
-0.6
 41
-30.0
 62
     5
 63
     7
421
 16777215
 74
     2
 91
        2
 64
     7
 65
   257
 75
     2
175
     1
 42
40.0
 92
        0
 66
   257
 43
1.0
 76
     1
 77
     6
 78
     2
 67
     7
 79
     3
170
     0
171
     0
290
     0
174
     0
 93
        1
 44
0.0
173
     0
291
     0
 45
0.0
  0
VISUALSTYLE
  5
30
102
{ACAD_REACTORS
330
2A
102
}
102
{ACAD_XDICTIONARY
360
5D
102
}
330
2A
100
AcDbVisualStyle
  2
3dWireframe
 70
     5
 71
     0
 72
     2
 73
     0
 90
        0
 40
-0.6
 41
-30.0
 62
     5
 63
     7
421
 16777215
 74
     1
 91
        4
 64
     7
 65
   257
 75
     1
175
     1
 42
1.0
 92
        0
 66
   257
 43
1.0
 76
     1
 77
     6
 78
     2
 67
     7
 79
     5
170
     0
171
     0
290
     0
174
     0
 93
        1
 44
0.0
173
     0
291
     0
 45
0.0
  0
VISUALSTYLE
  5
32
102
{ACAD_REACTORS
330
2A
102
}
102
{ACAD_XDICTIONARY
360
61
102
}
330
2A
100
AcDbVisualStyle
  2
Basic
 70
     7
 71
     1
 72
     0
 73
     1
 90
        0
 40
-0.6
 41
-30.0
 62
     5
 63
     7
421
 16777215
 74
     0
 91
        4
 64
     7
 65
   257
 75
     1
175
     1
 42
1.0
 92
        8
 66
     7
 43
1.0
 76
     1
 77
     6
 78
     2
 67
     7
 79
     5
170
     0
171
     0
290
     0
174
     0
 93
        1
 44
0.0
173
     0
291
     1
 45
0.0
  0
VISUALSTYLE
  5
36
102
{ACAD_REACTORS
330
2A
102
}
102
{ACAD_XDICTIONARY
360
69
102
}
330
2A
100
AcDbVisualStyle
  2
Brighten
 70
    12
 71
     2
 72
     2
 73
     0
 90
        0
 40
-0.6
 41
-30.0
 62
     5
 63
     7
421
 16777215
 74
     1
 91
        4
 64
     7
 65
   257
 75
     1
175
     1
 42
1.0
 92
        8
 66
     7
 43
1.0
 76
     1
 77
     6
 78
     2
 67
     7
 79
     5
170
     0
171
     0
290
     0
174
     0
 93
        1
 44
50.0
173
     0
291
     1
 45
0.0
  0
VISUALSTYLE
  5
3A
102
{ACAD_REACTORS
330
2A
102
}
102
{ACAD_XDICTIONARY
360
71
102
}
330
2A
100
AcDbVisualStyle
  2
ColorChange
 70
    16
 71
     2
 72
     2
 73
     3
 90
        0
 40
-0.6
 41
-30.0
 62
     5
 63
     8
421
  8421504
 74
     1
 91
        4
 64
     7
 65
   257
 75
     1
175
     1
 42
1.0
 92
        8
 66
     8
424
  8421504
 43
1.0
 76
     1
 77
     6
 78
     2
 67
     7
 79
     5
170
     0
171
     0
290
     0
174
     0
 93
        1
 44
0.0
173
     0
291
     1
 45
0.0
  0
VISUALSTYLE
  5
34
102
{ACAD_REACTORS
330
2A
102
}
102
{ACAD_XDICTIONARY
360
65
102
}
330
2A
100
AcDbVisualStyle
  2
Conceptual
 70
     9
 71
     3
 72
     2
 73
     0
 90
        0
 40
-0.6
 41
-30.0
 62
     5
 63
     7
421
 16777215
 74
     2
 91
        2
 64
     7
 65
   257
 75
     1
175
     1
 42
40.0
 92
        8
 66
     7
 43
1.0
 76
     1
 77
     6
 78
     2
 67
     7
 79
     3
170
     0
171
     0
290
     0
174
     0
 93
        1
 44
0.0
173
     0
291
     0
 45
0.0
  0
VISUALSTYLE
  5
35
102
{ACAD_REACTORS
330
2A
102
}
102
{ACAD_XDICTIONARY
360
67
102
}
330
2A
100
AcDbVisualStyle
  2
Dim
 70
    11
 71
     2
 72
     2
 73
     0
 90
        0
 40
-0.6
 41
-30.0
 62
     5
 63
     7
421
 16777215
 74
     1
 91
        4
 64
     7
 65
   257
 75
     1
175
     1
 42
1.0
 92
        8
 66
     7
 43
1.0
 76
     1
 77
     6
 78
     2
 67
     7
 79
     5
170
     0
171
     0
290
     0
174
     0
 93
        1
 44
-50.0
173
     0
291
     1
 45
0.0
  0
VISUALSTYLE
  5
39
102
{ACAD_REACTORS
330
2A
102
}
102
{ACAD_XDICTIONARY
360
6F
102
}
330
2A
100
AcDbVisualStyle
  2
Facepattern
 70
    15
 71
     2
 72
     2
 73
     0
 90
        0
 40
-0.6
 41
-30.0
 62
     5
 63
     7
421
 16777215
 74
     1
 91
        4
 64
     7
 65
   257
 75
     1
175
     1
 42
1.0
 92
        8
 66
     7
 43
1.0
 76
     1
 77
     6
 78
     2
 67
     7
 79
     5
170
     0
171
     0
290
     0
174
     0
 93
        1
 44
0.0
173
     0
291
     1
 45
0.0
  0
VISUALSTYLE
  5
2B
102
{ACAD_REACTORS
330
2A
102
}
102
{ACAD_XDICTIONARY
360
53
102
}
330
2A
100
AcDbVisualStyle
  2
Flat
 70
     0
 71
     2
 72
     1
 73
     1
 90
        2
 40
-0.6
 41
30.0
 62
     5
 63
     7
421
 16777215
 74
     0
 91
        4
 64
     7
 65
   257
 75
     1
175
     1
 42
1.0
 92
        8
 66
     7
 43
1.0
 76
     1
 77
     6
 78
     2
 67
     7
 79
     5
170
     0
171
     0
290
     0
174
     0
 93
       13
 44
0.0
173
     0
291
     1
 45
0.0
  0
VISUALSTYLE
  5
2C
102
{ACAD_REACTORS
330
2A
102
}
102
{ACAD_XDICTIONARY
360
55
102
}
330
2A
100
AcDbVisualStyle
  2
FlatWithEdges
 70
     1
 71
     2
 72
     1
 73
     1
 90
        2
 40
-0.6
 41
30.0
 62
     5
 63
     7
421
 16777215
 74
     1
 91
        4
 64
     7
 65
   257
 75
     1
175
     1
 42
1.0
 92
        0
 66
   257
 43
1.0
 76
     1
 77
     6
 78
     2
 67
     7
 79
     5
170
     0
171
     0
290
     0
174
     0
 93
       13
 44
0.0
173
     0
291
     1
 45
0.0
  0
VISUALSTYLE
  5
2D
102
{ACAD_REACTORS
330
2A
102
}
102
{ACAD_XDICTIONARY
360
57
102
}
330
2A
100
AcDbVisualStyle
  2
Gouraud
 70
     2
 71
     2
 72
     2
 73
     1
 90
        2
 40
-0.6
 41
30.0
 62
     5
 63
     7
421
 16777215
 74
     0
 91
        4
 64
     7
 65
   257
 75
     1
175
     1
 42
1.0
 92
        0
 66
     7
 43
1.0
 76
     1
 77
     6
 78
     2
 67
     7
 79
     5
170
     0
171
     0
290
     0
174
     0
 93
       13
 44
0.0
173
     0
291
     1
 45
0.0
  0
VISUALSTYLE
  5
2E
102
{ACAD_REACTORS
330
2A
102
}
102
{ACAD_XDICTIONARY
360
59
102
}
330
2A
100
AcDbVisualStyle
  2
GouraudWithEdges
 70
     3
 71
     2
 72
     2
 73
     1
 90
        2
 40
-0.6
 41
30.0
 62
     5
 63
     7
421
 16777215
 74
     1
 91
        4
 64
     7
 65
   257
 75
     1
175
     1
 42
1.0
 92
        0
 66
   257
 43
1.0
 76
     1
 77
     6
 78
     2
 67
     7
 79
     5
170
     0
171
     0
290
     0
174
     0
 93
       13
 44
0.0
173
     0
291
     1
 45
0.0
  0
VISUALSTYLE
  5
38
102
{ACAD_REACTORS
330
2A
102
}
102
{ACAD_XDICTIONARY
360
6D
102
}
330
2A
100
AcDbVisualStyle
  2
Linepattern
 70
    14
 71
     2
 72
     2
 73
     0
 90
        0
 40
-0.6
 41
-30.0
 62
     5
 63
     7
421
 16777215
 74
     1
 91
        4
 64
     7
 65
   257
 75
     7
175
     7
 42
1.0
 92
        8
 66
     7
 43
1.0
 76
     1
 77
     6
 78
     2
 67
     7
 79
     5
170
     0
171
     0
290
     0
174
     0
 93
        1
 44
0.0
173
     0
291
     1
 45
0.0
  0
VISUALSTYLE
  5
33
102
{ACAD_REACTORS
330
2A
102
}
102
{ACAD_XDICTIONARY
360
63
102
}
330
2A
100
AcDbVisualStyle
  2
Realistic
 70
     8
 71
     2
 72
     2
 73
     0
 90
        0
 40
-0.6
 41
-30.0
 62
     5
 63
     7
421
 16777215
 74
     1
 91
        0
 64
     7
 65
   257
 75
     1
175
     1
 42
1.0
 92
        8
 66
     8
424
  7895160
 43
1.0
 76
     1
 77
     6
 78
     2
 67
     7
 79
     5
170
     0
171
     0
290
     0
174
     0
 93
       13
 44
0.0
173
     0
291
     0
 45
0.0
  0
VISUALSTYLE
  5
37
102
{ACAD_REACTORS
330
2A
102
}
102
{ACAD_XDICTIONARY
360
6B
102
}
330
2A
100
AcDbVisualStyle
  2
Thicken
 70
    13
 71
     2
 72
     2
 73
     0
 90
        0
 40
-0.6
 41
-30.0
 62
     5
 63
     7
421
 16777215
 74
     1
 91
        4
 64
     7
 65
   257
 75
     1
175
     1
 42
1.0
 92
       12
 66
     7
 43
1.0
 76
     1
 77
     6
 78
     2
 67
     7
 79
     5
170
     0
171
     0
290
     0
174
     0
 93
        1
 44
0.0
173
     0
291
     1
 45
0.0
  0
DICTIONARY
  5
5B
330
2F
100
AcDbDictionary
280
     1
281
     1
  3
ACAD_XREC_ROUNDTRIP
360
5C
  0
DICTIONARY
  5
5F
330
31
100
AcDbDictionary
280
     1
281
     1
  3
ACAD_XREC_ROUNDTRIP
360
60
  0
DICTIONARY
  5
5D
330
30
100
AcDbDictionary
280
     1
281
     1
  3
ACAD_XREC_ROUNDTRIP
360
5E
  0
DICTIONARY
  5
61
330
32
100
AcDbDictionary
280
     1
281
     1
  3
ACAD_XREC_ROUNDTRIP
360
62
  0
DICTIONARY
  5
69
330
36
100
AcDbDictionary
280
     1
281
     1
  3
ACAD_XREC_ROUNDTRIP
360
6A
  0
DICTIONARY
  5
71
330
3A
100
AcDbDictionary
280
     1
281
     1
  3
ACAD_XREC_ROUNDTRIP
360
72
  0
DICTIONARY
  5
65
330
34
100
AcDbDictionary
280
     1
281
     1
  3
ACAD_XREC_ROUNDTRIP
360
66
  0
DICTIONARY
  5
67
330
35
100
AcDbDictionary
280
     1
281
     1
  3
ACAD_XREC_ROUNDTRIP
360
68
  0
DICTIONARY
  5
6F
330
39
100
AcDbDictionary
280
     1
281
     1
  3
ACAD_XREC_ROUNDTRIP
360
70
  0
DICTIONARY
  5
53
330
2B
100
AcDbDictionary
280
     1
281
     1
  3
ACAD_XREC_ROUNDTRIP
360
54
  0
DICTIONARY
  5
55
330
2C
100
AcDbDictionary
280
     1
281
     1
  3
ACAD_XREC_ROUNDTRIP
360
56
  0
DICTIONARY
  5
57
330
2D
100
AcDbDictionary
280
     1
281
     1
  3
ACAD_XREC_ROUNDTRIP
360
58
  0
DICTIONARY
  5
59
330
2E
100
AcDbDictionary
280
     1
281
     1
  3
ACAD_XREC_ROUNDTRIP
360
5A
  0
DICTIONARY
  5
6D
330
38
100
AcDbDictionary
280
     1
281
     1
  3
ACAD_XREC_ROUNDTRIP
360
6E
  0
DICTIONARY
  5
63
330
33
100
AcDbDictionary
280
     1
281
     1
  3
ACAD_XREC_ROUNDTRIP
360
64
  0
DICTIONARY
  5
6B
330
37
100
AcDbDictionary
280
     1
281
     1
  3
ACAD_XREC_ROUNDTRIP
360
6C
  0
XRECORD
  5
5C
102
{ACAD_REACTORS
330
5B
102
}
330
5B
100
AcDbXrecord
280
     1
102
RTVSPropertyOp0
 70
     1
102
RTVSPropertyOp1
 70
     1
102
RTVSPropertyOp2
 70
     1
102
RTVSPropertyOp3
 70
     1
102
RTVSPropertyOp4
 70
     1
102
RTVSPropertyOp5
 70
     1
102
RTVSPropertyOp6
 70
     1
102
RTVSPropertyOp7
 70
     1
102
RTVSPropertyOp8
 70
     1
102
RTVSPropertyOp9
 70
     1
102
RTVSPropertyOp10
 70
     1
102
RTVSPropertyOp11
 70
     1
102
RTVSPropertyOp12
 70
     1
102
RTVSPropertyOp13
 70
     1
102
RTVSPropertyOp14
 70
     1
102
RTVSPropertyOp15
 70
     1
102
RTVSPropertyOp16
 70
     1
102
RTVSPropertyOp17
 70
     1
102
RTVSPropertyOp18
 70
     1
102
RTVSPropertyOp19
 70
     1
102
RTVSPropertyOp20
 70
     1
102
RTVSPropertyOp21
 70
     1
102
RTVSPropertyOp22
 70
     1
102
RTVSPropertyOp23
 70
     1
102
RTVSPropertyOp24
 70
     1
102
RTVSPropertyOp25
 70
     1
102
RTVSPropertyOp26
 70
     1
102
RTVSPropertyOp27
 70
     1
102
RTVSPropertyOp28
 70
     1
102
RTVSPropertyOp29
 70
     1
102
RTVSPropertyOp30
 70
     1
102
RTVSPropertyOp31
 70
     1
102
RTVSPropertyOp32
 70
     1
  0
XRECORD
  5
60
102
{ACAD_REACTORS
330
5F
102
}
330
5F
100
AcDbXrecord
280
     1
102
RTVSPropertyOp0
 70
     1
102
RTVSPropertyOp1
 70
     1
102
RTVSPropertyOp2
 70
     1
102
RTVSPropertyOp3
 70
     1
102
RTVSPropertyOp4
 70
     1
102
RTVSPropertyOp5
 70
     1
102
RTVSPropertyOp6
 70
     1
102
RTVSPropertyOp7
 70
     1
102
RTVSPropertyOp8
 70
     1
102
RTVSPropertyOp9
 70
     1
102
RTVSPropertyOp10
 70
     1
102
RTVSPropertyOp11
 70
     1
102
RTVSPropertyOp12
 70
     1
102
RTVSPropertyOp13
 70
     1
102
RTVSPropertyOp14
 70
     1
102
RTVSPropertyOp15
 70
     1
102
RTVSPropertyOp16
 70
     1
102
RTVSPropertyOp17
 70
     1
102
RTVSPropertyOp18
 70
     1
102
RTVSPropertyOp19
 70
     1
102
RTVSPropertyOp20
 70
     1
102
RTVSPropertyOp21
 70
     1
102
RTVSPropertyOp22
 70
     1
102
RTVSPropertyOp23
 70
     1
102
RTVSPropertyOp24
 70
     1
102
RTVSPropertyOp25
 70
     1
102
RTVSPropertyOp26
 70
     1
102
RTVSPropertyOp27
 70
     1
102
RTVSPropertyOp28
 70
     1
102
RTVSPropertyOp29
 70
     1
102
RTVSPropertyOp30
 70
     1
102
RTVSPropertyOp31
 70
     1
102
RTVSPropertyOp32
 70
     1
  0
XRECORD
  5
5E
102
{ACAD_REACTORS
330
5D
102
}
330
5D
100
AcDbXrecord
280
     1
102
RTVSPropertyOp0
 70
     1
102
RTVSPropertyOp1
 70
     1
102
RTVSPropertyOp2
 70
     1
102
RTVSPropertyOp3
 70
     1
102
RTVSPropertyOp4
 70
     1
102
RTVSPropertyOp5
 70
     1
102
RTVSPropertyOp6
 70
     1
102
RTVSPropertyOp7
 70
     1
102
RTVSPropertyOp8
 70
     1
102
RTVSPropertyOp9
 70
     1
102
RTVSPropertyOp10
 70
     1
102
RTVSPropertyOp11
 70
     1
102
RTVSPropertyOp12
 70
     1
102
RTVSPropertyOp13
 70
     1
102
RTVSPropertyOp14
 70
     1
102
RTVSPropertyOp15
 70
     1
102
RTVSPropertyOp16
 70
     1
102
RTVSPropertyOp17
 70
     1
102
RTVSPropertyOp18
 70
     1
102
RTVSPropertyOp19
 70
     1
102
RTVSPropertyOp20
 70
     1
102
RTVSPropertyOp21
 70
     1
102
RTVSPropertyOp22
 70
     1
102
RTVSPropertyOp23
 70
     1
102
RTVSPropertyOp24
 70
     1
102
RTVSPropertyOp25
 70
     1
102
RTVSPropertyOp26
 70
     1
102
RTVSPropertyOp27
 70
     1
102
RTVSPropertyOp28
 70
     1
102
RTVSPropertyOp29
 70
     1
102
RTVSPropertyOp30
 70
     1
102
RTVSPropertyOp31
 70
     1
102
RTVSPropertyOp32
 70
     1
  0
XRECORD
  5
62
102
{ACAD_REACTORS
330
61
102
}
330
61
100
AcDbXrecord
280
     1
102
RTVSPropertyOp0
 70
     1
102
RTVSPropertyOp1
 70
     1
102
RTVSPropertyOp2
 70
     1
102
RTVSPropertyOp3
 70
     1
102
RTVSPropertyOp4
 70
     1
102
RTVSPropertyOp5
 70
     1
102
RTVSPropertyOp6
 70
     1
102
RTVSPropertyOp7
 70
     1
102
RTVSPropertyOp8
 70
     1
102
RTVSPropertyOp9
 70
     1
102
RTVSPropertyOp10
 70
     1
102
RTVSPropertyOp11
 70
     1
102
RTVSPropertyOp12
 70
     1
102
RTVSPropertyOp13
 70
     1
102
RTVSPropertyOp14
 70
     1
102
RTVSPropertyOp15
 70
     1
102
RTVSPropertyOp16
 70
     1
102
RTVSPropertyOp17
 70
     1
102
RTVSPropertyOp18
 70
     1
102
RTVSPropertyOp19
 70
     1
102
RTVSPropertyOp20
 70
     1
102
RTVSPropertyOp21
 70
     1
102
RTVSPropertyOp22
 70
     1
102
RTVSPropertyOp23
 70
     1
102
RTVSPropertyOp24
 70
     1
102
RTVSPropertyOp25
 70
     1
102
RTVSPropertyOp26
 70
     1
102
RTVSPropertyOp27
 70
     1
102
RTVSPropertyOp28
 70
     1
102
RTVSPropertyOp29
 70
     1
102
RTVSPropertyOp30
 70
     1
102
RTVSPropertyOp31
 70
     1
102
RTVSPropertyOp32
 70
     1
  0
XRECORD
  5
6A
102
{ACAD_REACTORS
330
69
102
}
330
69
100
AcDbXrecord
280
     1
102
RTVSPropertyOp0
 70
     1
102
RTVSPropertyOp1
 70
     1
102
RTVSPropertyOp2
 70
     1
102
RTVSPropertyOp3
 70
     1
102
RTVSPropertyOp4
 70
     1
102
RTVSPropertyOp5
 70
     1
102
RTVSPropertyOp6
 70
     1
102
RTVSPropertyOp7
 70
     1
102
RTVSPropertyOp8
 70
     1
102
RTVSPropertyOp9
 70
     1
102
RTVSPropertyOp10
 70
     1
102
RTVSPropertyOp11
 70
     1
102
RTVSPropertyOp12
 70
     1
102
RTVSPropertyOp13
 70
     1
102
RTVSPropertyOp14
 70
     1
102
RTVSPropertyOp15
 70
     1
102
RTVSPropertyOp16
 70
     1
102
RTVSPropertyOp17
 70
     1
102
RTVSPropertyOp18
 70
     1
102
RTVSPropertyOp19
 70
     1
102
RTVSPropertyOp20
 70
     1
102
RTVSPropertyOp21
 70
     1
102
RTVSPropertyOp22
 70
     1
102
RTVSPropertyOp23
 70
     1
102
RTVSPropertyOp24
 70
     1
102
RTVSPropertyOp25
 70
     1
102
RTVSPropertyOp26
 70
     1
102
RTVSPropertyOp27
 70
     1
102
RTVSPropertyOp28
 70
     1
102
RTVSPropertyOp29
 70
     1
102
RTVSPropertyOp30
 70
     1
102
RTVSPropertyOp31
 70
     1
102
RTVSPropertyOp32
 70
     1
  0
XRECORD
  5
72
102
{ACAD_REACTORS
330
71
102
}
330
71
100
AcDbXrecord
280
     1
102
RTVSPropertyOp0
 70
     1
102
RTVSPropertyOp1
 70
     1
102
RTVSPropertyOp2
 70
     1
102
RTVSPropertyOp3
 70
     1
102
RTVSPropertyOp4
 70
     1
102
RTVSPropertyOp5
 70
     1
102
RTVSPropertyOp6
 70
     1
102
RTVSPropertyOp7
 70
     1
102
RTVSPropertyOp8
 70
     1
102
RTVSPropertyOp9
 70
     1
102
RTVSPropertyOp10
 70
     1
102
RTVSPropertyOp11
 70
     1
102
RTVSPropertyOp12
 70
     1
102
RTVSPropertyOp13
 70
     1
102
RTVSPropertyOp14
 70
     1
102
RTVSPropertyOp15
 70
     1
102
RTVSPropertyOp16
 70
     1
102
RTVSPropertyOp17
 70
     1
102
RTVSPropertyOp18
 70
     1
102
RTVSPropertyOp19
 70
     1
102
RTVSPropertyOp20
 70
     1
102
RTVSPropertyOp21
 70
     1
102
RTVSPropertyOp22
 70
     1
102
RTVSPropertyOp23
 70
     1
102
RTVSPropertyOp24
 70
     1
102
RTVSPropertyOp25
 70
     1
102
RTVSPropertyOp26
 70
     1
102
RTVSPropertyOp27
 70
     1
102
RTVSPropertyOp28
 70
     1
102
RTVSPropertyOp29
 70
     1
102
RTVSPropertyOp30
 70
     1
102
RTVSPropertyOp31
 70
     1
102
RTVSPropertyOp32
 70
     1
  0
XRECORD
  5
66
102
{ACAD_REACTORS
330
65
102
}
330
65
100
AcDbXrecord
280
     1
102
RTVSPropertyOp0
 70
     1
102
RTVSPropertyOp1
 70
     1
102
RTVSPropertyOp2
 70
     1
102
RTVSPropertyOp3
 70
     1
102
RTVSPropertyOp4
 70
     1
102
RTVSPropertyOp5
 70
     1
102
RTVSPropertyOp6
 70
     1
102
RTVSPropertyOp7
 70
     1
102
RTVSPropertyOp8
 70
     1
102
RTVSPropertyOp9
 70
     1
102
RTVSPropertyOp10
 70
     1
102
RTVSPropertyOp11
 70
     1
102
RTVSPropertyOp12
 70
     1
102
RTVSPropertyOp13
 70
     1
102
RTVSPropertyOp14
 70
     1
102
RTVSPropertyOp15
 70
     1
102
RTVSPropertyOp16
 70
     1
102
RTVSPropertyOp17
 70
     1
102
RTVSPropertyOp18
 70
     1
102
RTVSPropertyOp19
 70
     1
102
RTVSPropertyOp20
 70
     1
102
RTVSPropertyOp21
 70
     1
102
RTVSPropertyOp22
 70
     1
102
RTVSPropertyOp23
 70
     1
102
RTVSPropertyOp24
 70
     1
102
RTVSPropertyOp25
 70
     1
102
RTVSPropertyOp26
 70
     1
102
RTVSPropertyOp27
 70
     1
102
RTVSPropertyOp28
 70
     1
102
RTVSPropertyOp29
 70
     1
102
RTVSPropertyOp30
 70
     1
102
RTVSPropertyOp31
 70
     1
102
RTVSPropertyOp32
 70
     1
  0
XRECORD
  5
68
102
{ACAD_REACTORS
330
67
102
}
330
67
100
AcDbXrecord
280
     1
102
RTVSPropertyOp0
 70
     1
102
RTVSPropertyOp1
 70
     1
102
RTVSPropertyOp2
 70
     1
102
RTVSPropertyOp3
 70
     1
102
RTVSPropertyOp4
 70
     1
102
RTVSPropertyOp5
 70
     1
102
RTVSPropertyOp6
 70
     1
102
RTVSPropertyOp7
 70
     1
102
RTVSPropertyOp8
 70
     1
102
RTVSPropertyOp9
 70
     1
102
RTVSPropertyOp10
 70
     1
102
RTVSPropertyOp11
 70
     1
102
RTVSPropertyOp12
 70
     1
102
RTVSPropertyOp13
 70
     1
102
RTVSPropertyOp14
 70
     1
102
RTVSPropertyOp15
 70
     1
102
RTVSPropertyOp16
 70
     1
102
RTVSPropertyOp17
 70
     1
102
RTVSPropertyOp18
 70
     1
102
RTVSPropertyOp19
 70
     1
102
RTVSPropertyOp20
 70
     1
102
RTVSPropertyOp21
 70
     1
102
RTVSPropertyOp22
 70
     1
102
RTVSPropertyOp23
 70
     1
102
RTVSPropertyOp24
 70
     1
102
RTVSPropertyOp25
 70
     1
102
RTVSPropertyOp26
 70
     1
102
RTVSPropertyOp27
 70
     1
102
RTVSPropertyOp28
 70
     1
102
RTVSPropertyOp29
 70
     1
102
RTVSPropertyOp30
 70
     1
102
RTVSPropertyOp31
 70
     1
102
RTVSPropertyOp32
 70
     1
  0
XRECORD
  5
70
102
{ACAD_REACTORS
330
6F
102
}
330
6F
100
AcDbXrecord
280
     1
102
RTVSPropertyOp0
 70
     1
102
RTVSPropertyOp1
 70
     1
102
RTVSPropertyOp2
 70
     1
102
RTVSPropertyOp3
 70
     1
102
RTVSPropertyOp4
 70
     1
102
RTVSPropertyOp5
 70
     1
102
RTVSPropertyOp6
 70
     1
102
RTVSPropertyOp7
 70
     1
102
RTVSPropertyOp8
 70
     1
102
RTVSPropertyOp9
 70
     1
102
RTVSPropertyOp10
 70
     1
102
RTVSPropertyOp11
 70
     1
102
RTVSPropertyOp12
 70
     1
102
RTVSPropertyOp13
 70
     1
102
RTVSPropertyOp14
 70
     1
102
RTVSPropertyOp15
 70
     1
102
RTVSPropertyOp16
 70
     1
102
RTVSPropertyOp17
 70
     1
102
RTVSPropertyOp18
 70
     1
102
RTVSPropertyOp19
 70
     1
102
RTVSPropertyOp20
 70
     1
102
RTVSPropertyOp21
 70
     1
102
RTVSPropertyOp22
 70
     1
102
RTVSPropertyOp23
 70
     1
102
RTVSPropertyOp24
 70
     1
102
RTVSPropertyOp25
 70
     1
102
RTVSPropertyOp26
 70
     1
102
RTVSPropertyOp27
 70
     1
102
RTVSPropertyOp28
 70
     1
102
RTVSPropertyOp29
 70
     1
102
RTVSPropertyOp30
 70
     1
102
RTVSPropertyOp31
 70
     1
102
RTVSPropertyOp32
 70
     1
  0
XRECORD
  5
54
102
{ACAD_REACTORS
330
53
102
}
330
53
100
AcDbXrecord
280
     1
102
RTVSPropertyOp0
 70
     1
102
RTVSPropertyOp1
 70
     1
102
RTVSPropertyOp2
 70
     1
102
RTVSPropertyOp3
 70
     1
102
RTVSPropertyOp4
 70
     1
102
RTVSPropertyOp5
 70
     1
102
RTVSPropertyOp6
 70
     1
102
RTVSPropertyOp7
 70
     1
102
RTVSPropertyOp8
 70
     1
102
RTVSPropertyOp9
 70
     1
102
RTVSPropertyOp10
 70
     1
102
RTVSPropertyOp11
 70
     1
102
RTVSPropertyOp12
 70
     1
102
RTVSPropertyOp13
 70
     1
102
RTVSPropertyOp14
 70
     1
102
RTVSPropertyOp15
 70
     1
102
RTVSPropertyOp16
 70
     1
102
RTVSPropertyOp17
 70
     1
102
RTVSPropertyOp18
 70
     1
102
RTVSPropertyOp19
 70
     1
102
RTVSPropertyOp20
 70
     1
102
RTVSPropertyOp21
 70
     1
102
RTVSPropertyOp22
 70
     1
102
RTVSPropertyOp23
 70
     1
102
RTVSPropertyOp24
 70
     1
102
RTVSPropertyOp25
 70
     1
102
RTVSPropertyOp26
 70
     1
102
RTVSPropertyOp27
 70
     1
102
RTVSPropertyOp28
 70
     1
102
RTVSPropertyOp29
 70
     1
102
RTVSPropertyOp30
 70
     1
102
RTVSPropertyOp31
 70
     1
102
RTVSPropertyOp32
 70
     1
  0
XRECORD
  5
56
102
{ACAD_REACTORS
330
55
102
}
330
55
100
AcDbXrecord
280
     1
102
RTVSPropertyOp0
 70
     1
102
RTVSPropertyOp1
 70
     1
102
RTVSPropertyOp2
 70
     1
102
RTVSPropertyOp3
 70
     1
102
RTVSPropertyOp4
 70
     1
102
RTVSPropertyOp5
 70
     1
102
RTVSPropertyOp6
 70
     1
102
RTVSPropertyOp7
 70
     1
102
RTVSPropertyOp8
 70
     1
102
RTVSPropertyOp9
 70
     1
102
RTVSPropertyOp10
 70
     1
102
RTVSPropertyOp11
 70
     1
102
RTVSPropertyOp12
 70
     1
102
RTVSPropertyOp13
 70
     1
102
RTVSPropertyOp14
 70
     1
102
RTVSPropertyOp15
 70
     1
102
RTVSPropertyOp16
 70
     1
102
RTVSPropertyOp17
 70
     1
102
RTVSPropertyOp18
 70
     1
102
RTVSPropertyOp19
 70
     1
102
RTVSPropertyOp20
 70
     1
102
RTVSPropertyOp21
 70
     1
102
RTVSPropertyOp22
 70
     1
102
RTVSPropertyOp23
 70
     1
102
RTVSPropertyOp24
 70
     1
102
RTVSPropertyOp25
 70
     1
102
RTVSPropertyOp26
 70
     1
102
RTVSPropertyOp27
 70
     1
102
RTVSPropertyOp28
 70
     1
102
RTVSPropertyOp29
 70
     1
102
RTVSPropertyOp30
 70
     1
102
RTVSPropertyOp31
 70
     1
102
RTVSPropertyOp32
 70
     1
  0
XRECORD
  5
58
102
{ACAD_REACTORS
330
57
102
}
330
57
100
AcDbXrecord
280
     1
102
RTVSPropertyOp0
 70
     1
102
RTVSPropertyOp1
 70
     1
102
RTVSPropertyOp2
 70
     1
102
RTVSPropertyOp3
 70
     1
102
RTVSPropertyOp4
 70
     1
102
RTVSPropertyOp5
 70
     1
102
RTVSPropertyOp6
 70
     1
102
RTVSPropertyOp7
 70
     1
102
RTVSPropertyOp8
 70
     1
102
RTVSPropertyOp9
 70
     1
102
RTVSPropertyOp10
 70
     1
102
RTVSPropertyOp11
 70
     1
102
RTVSPropertyOp12
 70
     1
102
RTVSPropertyOp13
 70
     1
102
RTVSPropertyOp14
 70
     1
102
RTVSPropertyOp15
 70
     1
102
RTVSPropertyOp16
 70
     1
102
RTVSPropertyOp17
 70
     1
102
RTVSPropertyOp18
 70
     1
102
RTVSPropertyOp19
 70
     1
102
RTVSPropertyOp20
 70
     1
102
RTVSPropertyOp21
 70
     1
102
RTVSPropertyOp22
 70
     1
102
RTVSPropertyOp23
 70
     1
102
RTVSPropertyOp24
 70
     1
102
RTVSPropertyOp25
 70
     1
102
RTVSPropertyOp26
 70
     1
102
RTVSPropertyOp27
 70
     1
102
RTVSPropertyOp28
 70
     1
102
RTVSPropertyOp29
 70
     1
102
RTVSPropertyOp30
 70
     1
102
RTVSPropertyOp31
 70
     1
102
RTVSPropertyOp32
 70
     1
  0
XRECORD
  5
5A
102
{ACAD_REACTORS
330
59
102
}
330
59
100
AcDbXrecord
280
     1
102
RTVSPropertyOp0
 70
     1
102
RTVSPropertyOp1
 70
     1
102
RTVSPropertyOp2
 70
     1
102
RTVSPropertyOp3
 70
     1
102
RTVSPropertyOp4
 70
     1
102
RTVSPropertyOp5
 70
     1
102
RTVSPropertyOp6
 70
     1
102
RTVSPropertyOp7
 70
     1
102
RTVSPropertyOp8
 70
     1
102
RTVSPropertyOp9
 70
     1
102
RTVSPropertyOp10
 70
     1
102
RTVSPropertyOp11
 70
     1
102
RTVSPropertyOp12
 70
     1
102
RTVSPropertyOp13
 70
     1
102
RTVSPropertyOp14
 70
     1
102
RTVSPropertyOp15
 70
     1
102
RTVSPropertyOp16
 70
     1
102
RTVSPropertyOp17
 70
     1
102
RTVSPropertyOp18
 70
     1
102
RTVSPropertyOp19
 70
     1
102
RTVSPropertyOp20
 70
     1
102
RTVSPropertyOp21
 70
     1
102
RTVSPropertyOp22
 70
     1
102
RTVSPropertyOp23
 70
     1
102
RTVSPropertyOp24
 70
     1
102
RTVSPropertyOp25
 70
     1
102
RTVSPropertyOp26
 70
     1
102
RTVSPropertyOp27
 70
     1
102
RTVSPropertyOp28
 70
     1
102
RTVSPropertyOp29
 70
     1
102
RTVSPropertyOp30
 70
     1
102
RTVSPropertyOp31
 70
     1
102
RTVSPropertyOp32
 70
     1
  0
XRECORD
  5
6E
102
{ACAD_REACTORS
330
6D
102
}
330
6D
100
AcDbXrecord
280
     1
102
RTVSPropertyOp0
 70
     1
102
RTVSPropertyOp1
 70
     1
102
RTVSPropertyOp2
 70
     1
102
RTVSPropertyOp3
 70
     1
102
RTVSPropertyOp4
 70
     1
102
RTVSPropertyOp5
 70
     1
102
RTVSPropertyOp6
 70
     1
102
RTVSPropertyOp7
 70
     1
102
RTVSPropertyOp8
 70
     1
102
RTVSPropertyOp9
 70
     1
102
RTVSPropertyOp10
 70
     1
102
RTVSPropertyOp11
 70
     1
102
RTVSPropertyOp12
 70
     1
102
RTVSPropertyOp13
 70
     1
102
RTVSPropertyOp14
 70
     1
102
RTVSPropertyOp15
 70
     1
102
RTVSPropertyOp16
 70
     1
102
RTVSPropertyOp17
 70
     1
102
RTVSPropertyOp18
 70
     1
102
RTVSPropertyOp19
 70
     1
102
RTVSPropertyOp20
 70
     1
102
RTVSPropertyOp21
 70
     1
102
RTVSPropertyOp22
 70
     1
102
RTVSPropertyOp23
 70
     1
102
RTVSPropertyOp24
 70
     1
102
RTVSPropertyOp25
 70
     1
102
RTVSPropertyOp26
 70
     1
102
RTVSPropertyOp27
 70
     1
102
RTVSPropertyOp28
 70
     1
102
RTVSPropertyOp29
 70
     1
102
RTVSPropertyOp30
 70
     1
102
RTVSPropertyOp31
 70
     1
102
RTVSPropertyOp32
 70
     1
  0
XRECORD
  5
64
102
{ACAD_REACTORS
330
63
102
}
330
63
100
AcDbXrecord
280
     1
102
RTVSPropertyOp0
 70
     1
102
RTVSPropertyOp1
 70
     1
102
RTVSPropertyOp2
 70
     1
102
RTVSPropertyOp3
 70
     1
102
RTVSPropertyOp4
 70
     1
102
RTVSPropertyOp5
 70
     1
102
RTVSPropertyOp6
 70
     1
102
RTVSPropertyOp7
 70
     1
102
RTVSPropertyOp8
 70
     1
102
RTVSPropertyOp9
 70
     1
102
RTVSPropertyOp10
 70
     1
102
RTVSPropertyOp11
 70
     1
102
RTVSPropertyOp12
 70
     1
102
RTVSPropertyOp13
 70
     1
102
RTVSPropertyOp14
 70
     1
102
RTVSPropertyOp15
 70
     1
102
RTVSPropertyOp16
 70
     1
102
RTVSPropertyOp17
 70
     1
102
RTVSPropertyOp18
 70
     1
102
RTVSPropertyOp19
 70
     1
102
RTVSPropertyOp20
 70
     1
102
RTVSPropertyOp21
 70
     1
102
RTVSPropertyOp22
 70
     1
102
RTVSPropertyOp23
 70
     1
102
RTVSPropertyOp24
 70
     1
102
RTVSPropertyOp25
 70
     1
102
RTVSPropertyOp26
 70
     1
102
RTVSPropertyOp27
 70
     1
102
RTVSPropertyOp28
 70
     1
102
RTVSPropertyOp29
 70
     1
102
RTVSPropertyOp30
 70
     1
102
RTVSPropertyOp31
 70
     1
102
RTVSPropertyOp32
 70
     1
  0
XRECORD
  5
6C
102
{ACAD_REACTORS
330
6B
102
}
330
6B
100
AcDbXrecord
280
     1
102
RTVSPropertyOp0
 70
     1
102
RTVSPropertyOp1
 70
     1
102
RTVSPropertyOp2
 70
     1
102
RTVSPropertyOp3
 70
     1
102
RTVSPropertyOp4
 70
     1
102
RTVSPropertyOp5
 70
     1
102
RTVSPropertyOp6
 70
     1
102
RTVSPropertyOp7
 70
     1
102
RTVSPropertyOp8
 70
     1
102
RTVSPropertyOp9
 70
     1
102
RTVSPropertyOp10
 70
     1
102
RTVSPropertyOp11
 70
     1
102
RTVSPropertyOp12
 70
     1
102
RTVSPropertyOp13
 70
     1
102
RTVSPropertyOp14
 70
     1
102
RTVSPropertyOp15
 70
     1
102
RTVSPropertyOp16
 70
     1
102
RTVSPropertyOp17
 70
     1
102
RTVSPropertyOp18
 70
     1
102
RTVSPropertyOp19
 70
     1
102
RTVSPropertyOp20
 70
     1
102
RTVSPropertyOp21
 70
     1
102
RTVSPropertyOp22
 70
     1
102
RTVSPropertyOp23
 70
     1
102
RTVSPropertyOp24
 70
     1
102
RTVSPropertyOp25
 70
     1
102
RTVSPropertyOp26
 70
     1
102
RTVSPropertyOp27
 70
     1
102
RTVSPropertyOp28
 70
     1
102
RTVSPropertyOp29
 70
     1
102
RTVSPropertyOp30
 70
     1
102
RTVSPropertyOp31
 70
     1
102
RTVSPropertyOp32
 70
     1
  0
ENDSEC
  0
EOF
