  0
SECTION
  2
HEADER
  9
$ACADVER
  1
AC1021
  9
$ACADMAINTVER
 70
    25
  9
$DWGCODEPAGE
  3
ANSI_1252
  9
$INSBASE
 10
0.0
 20
0.0
 30
0.0
  9
$EXTMIN
 10
-15.90111
 20
-11.35106
 30
0.0
  9
$EXTMAX
 10
-4.09726
 20
-8.57616
 30
0.0
  9
$LIMMIN
 10
0.0
 20
0.0
  9
$LIMMAX
 10
12.0
 20
9.0
  9
$ORTHOMODE
 70
     0
  9
$REGENMODE
 70
     1
  9
$FILLMODE
 70
     1
  9
$QTEXTMODE
 70
     0
  9
$MIRRTEXT
 70
     1
  9
$LTSCALE
 40
1.0
  9
$ATTMODE
 70
     1
  9
$TEXTSIZE
 40
0.2
  9
$TRACEWID
 40
0.05
  9
$TEXTSTYLE
  7
Standard
  9
$CLAYER
  8
0
  9
$CELTYPE
  6
ByLayer
  9
$CECOLOR
 62
   256
  9
$CELTSCALE
 40
1.0
  9
$DISPSILH
 70
     0
  9
$DIMSCALE
 40
1.0
  9
$DIMASZ
 40
0.18
  9
$DIMEXO
 40
0.0625
  9
$DIMDLI
 40
0.38
  9
$DIMRND
 40
0.0
  9
$DIMDLE
 40
0.0
  9
$DIMEXE
 40
0.18
  9
$DIMTP
 40
0.0
  9
$DIMTM
 40
0.0
  9
$DIMTXT
 40
0.18
  9
$DIMCEN
 40
0.09
  9
$DIMTSZ
 40
0.0
  9
$DIMTOL
 70
     0
  9
$DIMLIM
 70
     0
  9
$DIMTIH
 70
     1
  9
$DIMTOH
 70
     1
  9
$DIMSE1
 70
     0
  9
$DIMSE2
 70
     0
  9
$DIMTAD
 70
     0
  9
$DIMZIN
 70
     0
  9
$DIMBLK
  1

  9
$DIMASO
 70
     1
  9
$DIMSHO
 70
     1
  9
$DIMPOST
  1

  9
$DIMAPOST
  1

  9
$DIMALT
 70
     0
  9
$DIMALTD
 70
     2
  9
$DIMALTF
 40
25.4
  9
$DIMLFAC
 40
1.0
  9
$DIMTOFL
 70
     0
  9
$DIMTVP
 40
0.0
  9
$DIMTIX
 70
     0
  9
$DIMSOXD
 70
     0
  9
$DIMSAH
 70
     0
  9
$DIMBLK1
  1

  9
$DIMBLK2
  1

  9
$DIMSTYLE
  2
Standard
  9
$DIMCLRD
 70
     0
  9
$DIMCLRE
 70
     0
  9
$DIMCLRT
 70
     0
  9
$DIMTFAC
 40
1.0
  9
$DIMGAP
 40
0.09
  9
$DIMJUST
 70
     0
  9
$DIMSD1
 70
     0
  9
$DIMSD2
 70
     0
  9
$DIMTOLJ
 70
     1
  9
$DIMTZIN
 70
     0
  9
$DIMALTZ
 70
     0
  9
$DIMALTTZ
 70
     0
  9
$DIMUPT
 70
     0
  9
$DIMDEC
 70
     4
  9
$DIMTDEC
 70
     4
  9
$DIMALTU
 70
     2
  9
$DIMALTTD
 70
     2
  9
$DIMTXSTY
  7
Standard
  9
$DIMAUNIT
 70
     0
  9
$DIMADEC
 70
     0
  9
$DIMALTRND
 40
0.0
  9
$DIMAZIN
 70
     0
  9
$DIMDSEP
 70
    46
  9
$DIMATFIT
 70
     3
  9
$DIMFRAC
 70
     0
  9
$DIMLDRBLK
  1

  9
$DIMLUNIT
 70
     2
  9
$DIMLWD
 70
    -2
  9
$DIMLWE
 70
    -2
  9
$DIMTMOVE
 70
     0
  9
$DIMFXL
 40
1.0
  9
$DIMFXLON
 70
     0
  9
$DIMJOGANG
 40
0.7853981633974483
  9
$DIMTFILL
 70
     0
  9
$DIMTFILLCLR
 70
     0
  9
$DIMARCSYM
 70
     0
  9
$DIMLTYPE
  6

  9
$DIMLTEX1
  6

  9
$DIMLTEX2
  6

  9
$LUNITS
 70
     2
  9
$LUPREC
 70
     4
  9
$SKETCHINC
 40
0.1
  9
$FILLETRAD
 40
0.5
  9
$AUNITS
 70
     0
  9
$AUPREC
 70
     0
  9
$MENU
  1
.
  9
$ELEVATION
 40
0.0
  9
$PELEVATION
 40
0.0
  9
$THICKNESS
 40
0.0
  9
$LIMCHECK
 70
     0
  9
$CHAMFERA
 40
0.5
  9
$CHAMFERB
 40
0.5
  9
$CHAMFERC
 40
1.0
  9
$CHAMFERD
 40
0.0
  9
$SKPOLY
 70
     0
  9
$TDCREATE
 40
2460554.828370151
  9
$TDUCREATE
 40
2460554.786703484
  9
$TDUPDATE
 40
2460554.828370162
  9
$TDUUPDATE
 40
2460554.786703495
  9
$TDINDWG
 40
0.0000000116
  9
$TDUSRTIMER
 40
0.0000000116
  9
$USRTIMER
 70
     1
  9
$ANGBASE
 50
0.0
  9
$ANGDIR
 70
     0
  9
$PDMODE
 70
     0
  9
$PDSIZE
 40
0.0
  9
$PLINEWID
 40
0.0
  9
$SPLFRAME
 70
     0
  9
$SPLINETYPE
 70
     6
  9
$SPLINESEGS
 70
     8
  9
$HANDSEED
  5
65
  9
$SURFTAB1
 70
     6
  9
$SURFTAB2
 70
     6
  9
$SURFTYPE
 70
     6
  9
$SURFU
 70
     6
  9
$SURFV
 70
     6
  9
$UCSBASE
  2

  9
$UCSNAME
  2

  9
$UCSORG
 10
0.0
 20
0.0
 30
0.0
  9
$UCSXDIR
 10
1.0
 20
0.0
 30
0.0
  9
$UCSYDIR
 10
0.0
 20
1.0
 30
0.0
  9
$UCSORTHOREF
  2

  9
$UCSORTHOVIEW
 70
     0
  9
$UCSORGTOP
 10
0.0
 20
0.0
 30
0.0
  9
$UCSORGBOTTOM
 10
0.0
 20
0.0
 30
0.0
  9
$UCSORGLEFT
 10
0.0
 20
0.0
 30
0.0
  9
$UCSORGRIGHT
 10
0.0
 20
0.0
 30
0.0
  9
$UCSORGFRONT
 10
0.0
 20
0.0
 30
0.0
  9
$UCSORGBACK
 10
0.0
 20
0.0
 30
0.0
  9
$PUCSBASE
  2

  9
$PUCSNAME
  2

  9
$PUCSORG
 10
0.0
 20
0.0
 30
0.0
  9
$PUCSXDIR
 10
1.0
 20
0.0
 30
0.0
  9
$PUCSYDIR
 10
0.0
 20
1.0
 30
0.0
  9
$PUCSORTHOREF
  2

  9
$PUCSORTHOVIEW
 70
     0
  9
$PUCSORGTOP
 10
0.0
 20
0.0
 30
0.0
  9
$PUCSORGBOTTOM
 10
0.0
 20
0.0
 30
0.0
  9
$PUCSORGLEFT
 10
0.0
 20
0.0
 30
0.0
  9
$PUCSORGRIGHT
 10
0.0
 20
0.0
 30
0.0
  9
$PUCSORGFRONT
 10
0.0
 20
0.0
 30
0.0
  9
$PUCSORGBACK
 10
0.0
 20
0.0
 30
0.0
  9
$USERI1
 70
     0
  9
$USERI2
 70
     0
  9
$USERI3
 70
     0
  9
$USERI4
 70
     0
  9
$USERI5
 70
     0
  9
$USERR1
 40
0.0
  9
$USERR2
 40
0.0
  9
$USERR3
 40
0.0
  9
$USERR4
 40
0.0
  9
$USERR5
 40
0.0
  9
$WORLDVIEW
 70
     1
  9
$SHADEDGE
 70
     3
  9
$SHADEDIF
 70
    70
  9
$TILEMODE
 70
     1
  9
$MAXACTVP
 70
    64
  9
$PINSBASE
 10
0.0
 20
0.0
 30
0.0
  9
$PLIMCHECK
 70
     0
  9
$PEXTMIN
 10
1.000000000000000E+20
 20
1.000000000000000E+20
 30
1.000000000000000E+20
  9
$PEXTMAX
 10
-1.000000000000000E+20
 20
-1.000000000000000E+20
 30
-1.000000000000000E+20
  9
$PLIMMIN
 10
0.0
 20
0.0
  9
$PLIMMAX
 10
12.0
 20
9.0
  9
$UNITMODE
 70
     0
  9
$VISRETAIN
 70
     1
  9
$PLINEGEN
 70
     0
  9
$PSLTSCALE
 70
     1
  9
$TREEDEPTH
 70
  3020
  9
$CMLSTYLE
  2
Standard
  9
$CMLJUST
 70
     0
  9
$CMLSCALE
 40
1.0
  9
$PROXYGRAPHICS
 70
     1
  9
$MEASUREMENT
 70
     0
  9
$CELWEIGHT
370
    -1
  9
$ENDCAPS
280
     0
  9
$JOINSTYLE
280
     0
  9
$LWDISPLAY
290
     0
  9
$INSUNITS
 70
     5
  9
$HYPERLINKBASE
  1

  9
$STYLESHEET
  1

  9
$XEDIT
290
     1
  9
$CEPSNTYPE
380
     0
  9
$PSTYLEMODE
290
     1
  9
$FINGERPRINTGUID
  2
{B239F3F7-3A66-48B6-B8CF-729A943F8914}
  9
$VERSIONGUID
  2
{FAEB1C32-E019-11D5-929B-00C0DF256EC4}
  9
$EXTNAMES
290
     1
  9
$PSVPSCALE
 40
0.0
  9
$OLESTARTUP
290
     0
  9
$SORTENTS
280
   127
  9
$INDEXCTL
280
     0
  9
$HIDETEXT
280
     1
  9
$XCLIPFRAME
290
     0
  9
$HALOGAP
280
     0
  9
$OBSCOLOR
 70
   257
  9
$OBSLTYPE
280
     0
  9
$INTERSECTIONDISPLAY
280
     0
  9
$INTERSECTIONCOLOR
 70
   257
  9
$DIMASSOC
280
     2
  9
$PROJECTNAME
  1

  9
$CAMERADISPLAY
290
     0
  9
$LENSLENGTH
 40
50.0
  9
$CAMERAHEIGHT
 40
0.0
  9
$STEPSPERSEC
 40
2.0
  9
$STEPSIZE
 40
6.0
  9
$3DDWFPREC
 40
2.0
  9
$PSOLWIDTH
 40
0.25
  9
$PSOLHEIGHT
 40
4.0
  9
$LOFTANG1
 40
1.570796326794897
  9
$LOFTANG2
 40
1.570796326794897
  9
$LOFTMAG1
 40
0.0
  9
$LOFTMAG2
 40
0.0
  9
$LOFTPARAM
 70
     7
  9
$LOFTNORMALS
280
     1
  9
$LATITUDE
 40
37.795
  9
$LONGITUDE
 40
-122.394
  9
$NORTHDIRECTION
 40
0.0
  9
$TIMEZONE
 70
 -8000
  9
$LIGHTGLYPHDISPLAY
280
     1
  9
$TILEMODELIGHTSYNCH
280
     1
  9
$SOLIDHIST
280
     1
  9
$SHOWHIST
280
     1
  9
$DWFFRAME
280
     2
  9
$DGNFRAME
280
     2
  9
$REALWORLDSCALE
290
     1
  9
$INTERFERECOLOR
 62
   256
  9
$CSHADOW
280
     0
  9
$SHADOWPLANELOCATION
 40
0.0
  0
ENDSEC
  0
SECTION
  2
CLASSES
  0
CLASS
  1
ACDBDICTIONARYWDFLT
  2
AcDbDictionaryWithDefault
  3
ObjectDBX Classes
 90
        0
 91
        4
280
     0
281
     0
  0
CLASS
  1
VISUALSTYLE
  2
AcDbVisualStyle
  3
ObjectDBX Classes
 90
     4095
 91
        4
280
     0
281
     0
  0
CLASS
  1
MATERIAL
  2
AcDbMaterial
  3
ObjectDBX Classes
 90
     1153
 91
        4
280
     0
281
     0
  0
ENDSEC
  0
SECTION
  2
TABLES
  0
TABLE
  2
VPORT
  5
8
330
0
100
AcDbSymbolTable
 70
     1
  0
VPORT
  5
29
330
8
100
AcDbSymbolTableRecord
100
AcDbViewportTableRecord
  2
*Active
 70
     0
 10
0.0
 20
0.0
 11
1.0
 21
1.0
 12
10.42990654205607
 22
4.5
 13
0.0
 23
0.0
 14
0.5
 24
0.5
 15
0.5
 25
0.5
 16
0.0
 26
0.0
 36
1.0
 17
0.0
 27
0.0
 37
0.0
 40
9.0
 41
1.972972972850329
 42
50.0
 43
0.0
 44
0.0
 50
0.0
 51
0.0
 71
     0
 72
   100
 73
     1
 74
     3
 75
     0
 76
     0
 77
     0
 78
     0
281
     0
 65
     1
110
0.0
120
0.0
130
0.0
111
1.0
121
0.0
131
0.0
112
0.0
122
1.0
132
0.0
 79
     0
146
0.0
 60
     3
 61
     5
292
     1
282
     1
141
0.0
142
0.0
 63
   250
  0
ENDTAB
  0
TABLE
  2
LTYPE
  5
5
330
0
100
AcDbSymbolTable
 70
     1
  0
LTYPE
  5
14
330
5
100
AcDbSymbolTableRecord
100
AcDbLinetypeTableRecord
  2
ByBlock
 70
     0
  3

 72
    65
 73
     0
 40
0.0
  0
LTYPE
  5
15
330
5
100
AcDbSymbolTableRecord
100
AcDbLinetypeTableRecord
  2
ByLayer
 70
     0
  3

 72
    65
 73
     0
 40
0.0
  0
LTYPE
  5
16
330
5
100
AcDbSymbolTableRecord
100
AcDbLinetypeTableRecord
  2
Continuous
 70
     0
  3
Solid line
 72
    65
 73
     0
 40
0.0
  0
ENDTAB
  0
TABLE
  2
LAYER
  5
2
330
0
100
AcDbSymbolTable
 70
     2
  0
LAYER
  5
10
330
2
100
AcDbSymbolTableRecord
100
AcDbLayerTableRecord
  2
0
 70
     0
 62
     7
  6
Continuous
370
    -3
390
F
347
3E
  0
LAYER
  5
40
330
2
100
AcDbSymbolTableRecord
100
AcDbLayerTableRecord
  2
Layer 1
 70
     0
 62
     7
  6
Continuous
370
    -3
390
F
347
3E
  0
ENDTAB
  0
TABLE
  2
STYLE
  5
3
330
0
100
AcDbSymbolTable
 70
     1
  0
STYLE
  5
11
330
3
100
AcDbSymbolTableRecord
100
AcDbTextStyleTableRecord
  2
Standard
 70
     0
 40
0.0
 41
1.0
 50
0.0
 71
     0
 42
0.2
  3
txt
  4

  0
ENDTAB
  0
TABLE
  2
VIEW
  5
6
330
0
100
AcDbSymbolTable
 70
     0
  0
ENDTAB
  0
TABLE
  2
UCS
  5
7
330
0
100
AcDbSymbolTable
 70
     0
  0
ENDTAB
  0
TABLE
  2
APPID
  5
9
330
0
100
AcDbSymbolTable
 70
     2
  0
APPID
  5
12
330
9
100
AcDbSymbolTableRecord
100
AcDbRegAppTableRecord
  2
ACAD
 70
     0
  0
APPID
  5
3F
330
9
100
AcDbSymbolTableRecord
100
AcDbRegAppTableRecord
  2
ODA
 70
     0
  0
ENDTAB
  0
TABLE
  2
DIMSTYLE
  5
A
330
0
100
AcDbSymbolTable
 70
     1
100
AcDbDimStyleTable
  0
DIMSTYLE
105
27
330
A
100
AcDbSymbolTableRecord
100
AcDbDimStyleTableRecord
  2
Standard
 70
     0
178
     0
340
11
  0
ENDTAB
  0
TABLE
  2
BLOCK_RECORD
  5
1
330
0
100
AcDbSymbolTable
 70
     1
  0
BLOCK_RECORD
  5
1F
330
1
100
AcDbSymbolTableRecord
100
AcDbBlockTableRecord
  2
*Model_Space
340
22
 70
     0
280
     1
281
     0
  0
BLOCK_RECORD
  5
1B
330
1
100
AcDbSymbolTableRecord
100
AcDbBlockTableRecord
  2
*Paper_Space
340
1E
 70
     0
280
     1
281
     0
  0
BLOCK_RECORD
  5
23
330
1
100
AcDbSymbolTableRecord
100
AcDbBlockTableRecord
  2
*Paper_Space0
340
26
 70
     0
280
     1
281
     0
  0
ENDTAB
  0
ENDSEC
  0
SECTION
  2
BLOCKS
  0
BLOCK
  5
20
330
1F
100
AcDbEntity
  8
0
100
AcDbBlockBegin
  2
*Model_Space
 70
     0
 10
0.0
 20
0.0
 30
0.0
  3
*Model_Space
  1

  0
ENDBLK
  5
21
330
1F
100
AcDbEntity
  8
0
100
AcDbBlockEnd
  0
BLOCK
  5
1C
330
1B
100
AcDbEntity
 67
     1
  8
0
100
AcDbBlockBegin
  2
*Paper_Space
 70
     0
 10
0.0
 20
0.0
 30
0.0
  3
*Paper_Space
  1

  0
ENDBLK
  5
1D
330
1B
100
AcDbEntity
 67
     1
  8
0
100
AcDbBlockEnd
  0
BLOCK
  5
24
330
23
100
AcDbEntity
  8
0
100
AcDbBlockBegin
  2
*Paper_Space0
 70
     0
 10
0.0
 20
0.0
 30
0.0
  3
*Paper_Space0
  1

  0
ENDBLK
  5
25
330
23
100
AcDbEntity
  8
0
100
AcDbBlockEnd
  0
ENDSEC
  0
SECTION
  2
ENTITIES
  0
SPLINE
  5
41
330
1F
100
AcDbEntity
  8
Layer 1
 62
     5
100
AcDbSpline
210
0.0
220
0.0
230
1.0
 70
    11
 71
     3
 72
   568
 73
   564
 74
     0
 42
0.0000000001
 43
0.0000000001
 12
1.0
 22
0.0
 32
0.0
 13
1.0
 23
0.0
 33
0.0
 40
0.0
 40
0.0
 40
0.0
 40
0.0
 40
0.0070422535211268
 40
0.0070422535211268
 40
0.0070422535211268
 40
0.0070422535211268
 40
0.0140845070422535
 40
0.0140845070422535
 40
0.0140845070422535
 40
0.0140845070422535
 40
0.0211267605633803
 40
0.0211267605633803
 40
0.0211267605633803
 40
0.0211267605633803
 40
0.028169014084507
 40
0.028169014084507
 40
0.028169014084507
 40
0.028169014084507
 40
0.0352112676056338
 40
0.0352112676056338
 40
0.0352112676056338
 40
0.0352112676056338
 40
0.0422535211267606
 40
0.0422535211267606
 40
0.0422535211267606
 40
0.0422535211267606
 40
0.0492957746478873
 40
0.0492957746478873
 40
0.0492957746478873
 40
0.0492957746478873
 40
0.0563380281690141
 40
0.0563380281690141
 40
0.0563380281690141
 40
0.0563380281690141
 40
0.0633802816901408
 40
0.0633802816901408
 40
0.0633802816901408
 40
0.0633802816901408
 40
0.0704225352112676
 40
0.0704225352112676
 40
0.0704225352112676
 40
0.0704225352112676
 40
0.0774647887323944
 40
0.0774647887323944
 40
0.0774647887323944
 40
0.0774647887323944
 40
0.0845070422535211
 40
0.0845070422535211
 40
0.0845070422535211
 40
0.0845070422535211
 40
0.0915492957746479
 40
0.0915492957746479
 40
0.0915492957746479
 40
0.0915492957746479
 40
0.0985915492957746
 40
0.0985915492957746
 40
0.0985915492957746
 40
0.0985915492957746
 40
0.1056338028169014
 40
0.1056338028169014
 40
0.1056338028169014
 40
0.1056338028169014
 40
0.1126760563380282
 40
0.1126760563380282
 40
0.1126760563380282
 40
0.1126760563380282
 40
0.1197183098591549
 40
0.1197183098591549
 40
0.1197183098591549
 40
0.1197183098591549
 40
0.1267605633802817
 40
0.1267605633802817
 40
0.1267605633802817
 40
0.1267605633802817
 40
0.1338028169014084
 40
0.1338028169014084
 40
0.1338028169014084
 40
0.1338028169014084
 40
0.1408450704225352
 40
0.1408450704225352
 40
0.1408450704225352
 40
0.1408450704225352
 40
0.147887323943662
 40
0.147887323943662
 40
0.147887323943662
 40
0.147887323943662
 40
0.1549295774647887
 40
0.1549295774647887
 40
0.1549295774647887
 40
0.1549295774647887
 40
0.1619718309859155
 40
0.1619718309859155
 40
0.1619718309859155
 40
0.1619718309859155
 40
0.1690140845070423
 40
0.1690140845070423
 40
0.1690140845070423
 40
0.1690140845070423
 40
0.176056338028169
 40
0.176056338028169
 40
0.176056338028169
 40
0.176056338028169
 40
0.1830985915492958
 40
0.1830985915492958
 40
0.1830985915492958
 40
0.1830985915492958
 40
0.1901408450704225
 40
0.1901408450704225
 40
0.1901408450704225
 40
0.1901408450704225
 40
0.1971830985915493
 40
0.1971830985915493
 40
0.1971830985915493
 40
0.1971830985915493
 40
0.2042253521126761
 40
0.2042253521126761
 40
0.2042253521126761
 40
0.2042253521126761
 40
0.2112676056338028
 40
0.2112676056338028
 40
0.2112676056338028
 40
0.2112676056338028
 40
0.2183098591549296
 40
0.2183098591549296
 40
0.2183098591549296
 40
0.2183098591549296
 40
0.2253521126760563
 40
0.2253521126760563
 40
0.2253521126760563
 40
0.2253521126760563
 40
0.2323943661971831
 40
0.2323943661971831
 40
0.2323943661971831
 40
0.2323943661971831
 40
0.2394366197183098
 40
0.2394366197183098
 40
0.2394366197183098
 40
0.2394366197183098
 40
0.2464788732394366
 40
0.2464788732394366
 40
0.2464788732394366
 40
0.2464788732394366
 40
0.2535211267605634
 40
0.2535211267605634
 40
0.2535211267605634
 40
0.2535211267605634
 40
0.2605633802816901
 40
0.2605633802816901
 40
0.2605633802816901
 40
0.2605633802816901
 40
0.2676056338028169
 40
0.2676056338028169
 40
0.2676056338028169
 40
0.2676056338028169
 40
0.2746478873239437
 40
0.2746478873239437
 40
0.2746478873239437
 40
0.2746478873239437
 40
0.2816901408450704
 40
0.2816901408450704
 40
0.2816901408450704
 40
0.2816901408450704
 40
0.2887323943661972
 40
0.2887323943661972
 40
0.2887323943661972
 40
0.2887323943661972
 40
0.2957746478873239
 40
0.2957746478873239
 40
0.2957746478873239
 40
0.2957746478873239
 40
0.3028169014084507
 40
0.3028169014084507
 40
0.3028169014084507
 40
0.3028169014084507
 40
0.3098591549295774
 40
0.3098591549295774
 40
0.3098591549295774
 40
0.3098591549295774
 40
0.3169014084507042
 40
0.3169014084507042
 40
0.3169014084507042
 40
0.3169014084507042
 40
0.323943661971831
 40
0.323943661971831
 40
0.323943661971831
 40
0.323943661971831
 40
0.3309859154929577
 40
0.3309859154929577
 40
0.3309859154929577
 40
0.3309859154929577
 40
0.3380281690140845
 40
0.3380281690140845
 40
0.3380281690140845
 40
0.3380281690140845
 40
0.3450704225352113
 40
0.3450704225352113
 40
0.3450704225352113
 40
0.3450704225352113
 40
0.352112676056338
 40
0.352112676056338
 40
0.352112676056338
 40
0.352112676056338
 40
0.3591549295774648
 40
0.3591549295774648
 40
0.3591549295774648
 40
0.3591549295774648
 40
0.3661971830985916
 40
0.3661971830985916
 40
0.3661971830985916
 40
0.3661971830985916
 40
0.3732394366197183
 40
0.3732394366197183
 40
0.3732394366197183
 40
0.3732394366197183
 40
0.3802816901408451
 40
0.3802816901408451
 40
0.3802816901408451
 40
0.3802816901408451
 40
0.3873239436619718
 40
0.3873239436619718
 40
0.3873239436619718
 40
0.3873239436619718
 40
0.3943661971830986
 40
0.3943661971830986
 40
0.3943661971830986
 40
0.3943661971830986
 40
0.4014084507042254
 40
0.4014084507042254
 40
0.4014084507042254
 40
0.4014084507042254
 40
0.4084507042253521
 40
0.4084507042253521
 40
0.4084507042253521
 40
0.4084507042253521
 40
0.4154929577464789
 40
0.4154929577464789
 40
0.4154929577464789
 40
0.4154929577464789
 40
0.4225352112676056
 40
0.4225352112676056
 40
0.4225352112676056
 40
0.4225352112676056
 40
0.4295774647887324
 40
0.4295774647887324
 40
0.4295774647887324
 40
0.4295774647887324
 40
0.4366197183098591
 40
0.4366197183098591
 40
0.4366197183098591
 40
0.4366197183098591
 40
0.4436619718309859
 40
0.4436619718309859
 40
0.4436619718309859
 40
0.4436619718309859
 40
0.4507042253521127
 40
0.4507042253521127
 40
0.4507042253521127
 40
0.4507042253521127
 40
0.4577464788732394
 40
0.4577464788732394
 40
0.4577464788732394
 40
0.4577464788732394
 40
0.4647887323943662
 40
0.4647887323943662
 40
0.4647887323943662
 40
0.4647887323943662
 40
0.4718309859154929
 40
0.4718309859154929
 40
0.4718309859154929
 40
0.4718309859154929
 40
0.4788732394366197
 40
0.4788732394366197
 40
0.4788732394366197
 40
0.4788732394366197
 40
0.4859154929577465
 40
0.4859154929577465
 40
0.4859154929577465
 40
0.4859154929577465
 40
0.4929577464788732
 40
0.4929577464788732
 40
0.4929577464788732
 40
0.4929577464788732
 40
0.5
 40
0.5
 40
0.5
 40
0.5
 40
0.5070422535211268
 40
0.5070422535211268
 40
0.5070422535211268
 40
0.5070422535211268
 40
0.5140845070422535
 40
0.5140845070422535
 40
0.5140845070422535
 40
0.5140845070422535
 40
0.5211267605633803
 40
0.5211267605633803
 40
0.5211267605633803
 40
0.5211267605633803
 40
0.528169014084507
 40
0.528169014084507
 40
0.528169014084507
 40
0.528169014084507
 40
0.5352112676056338
 40
0.5352112676056338
 40
0.5352112676056338
 40
0.5352112676056338
 40
0.5422535211267606
 40
0.5422535211267606
 40
0.5422535211267606
 40
0.5422535211267606
 40
0.5492957746478874
 40
0.5492957746478874
 40
0.5492957746478874
 40
0.5492957746478874
 40
0.5563380281690141
 40
0.5563380281690141
 40
0.5563380281690141
 40
0.5563380281690141
 40
0.5633802816901409
 40
0.5633802816901409
 40
0.5633802816901409
 40
0.5633802816901409
 40
0.5704225352112676
 40
0.5704225352112676
 40
0.5704225352112676
 40
0.5704225352112676
 40
0.5774647887323944
 40
0.5774647887323944
 40
0.5774647887323944
 40
0.5774647887323944
 40
0.5845070422535211
 40
0.5845070422535211
 40
0.5845070422535211
 40
0.5845070422535211
 40
0.5915492957746479
 40
0.5915492957746479
 40
0.5915492957746479
 40
0.5915492957746479
 40
0.5985915492957746
 40
0.5985915492957746
 40
0.5985915492957746
 40
0.5985915492957746
 40
0.6056338028169014
 40
0.6056338028169014
 40
0.6056338028169014
 40
0.6056338028169014
 40
0.6126760563380281
 40
0.6126760563380281
 40
0.6126760563380281
 40
0.6126760563380281
 40
0.6197183098591549
 40
0.6197183098591549
 40
0.6197183098591549
 40
0.6197183098591549
 40
0.6267605633802817
 40
0.6267605633802817
 40
0.6267605633802817
 40
0.6267605633802817
 40
0.6338028169014085
 40
0.6338028169014085
 40
0.6338028169014085
 40
0.6338028169014085
 40
0.6408450704225352
 40
0.6408450704225352
 40
0.6408450704225352
 40
0.6408450704225352
 40
0.647887323943662
 40
0.647887323943662
 40
0.647887323943662
 40
0.647887323943662
 40
0.6549295774647887
 40
0.6549295774647887
 40
0.6549295774647887
 40
0.6549295774647887
 40
0.6619718309859155
 40
0.6619718309859155
 40
0.6619718309859155
 40
0.6619718309859155
 40
0.6690140845070423
 40
0.6690140845070423
 40
0.6690140845070423
 40
0.6690140845070423
 40
0.676056338028169
 40
0.676056338028169
 40
0.676056338028169
 40
0.676056338028169
 40
0.6830985915492958
 40
0.6830985915492958
 40
0.6830985915492958
 40
0.6830985915492958
 40
0.6901408450704225
 40
0.6901408450704225
 40
0.6901408450704225
 40
0.6901408450704225
 40
0.6971830985915493
 40
0.6971830985915493
 40
0.6971830985915493
 40
0.6971830985915493
 40
0.704225352112676
 40
0.704225352112676
 40
0.704225352112676
 40
0.704225352112676
 40
0.7112676056338029
 40
0.7112676056338029
 40
0.7112676056338029
 40
0.7112676056338029
 40
0.7183098591549296
 40
0.7183098591549296
 40
0.7183098591549296
 40
0.7183098591549296
 40
0.7253521126760564
 40
0.7253521126760564
 40
0.7253521126760564
 40
0.7253521126760564
 40
0.7323943661971831
 40
0.7323943661971831
 40
0.7323943661971831
 40
0.7323943661971831
 40
0.7394366197183099
 40
0.7394366197183099
 40
0.7394366197183099
 40
0.7394366197183099
 40
0.7464788732394366
 40
0.7464788732394366
 40
0.7464788732394366
 40
0.7464788732394366
 40
0.7535211267605634
 40
0.7535211267605634
 40
0.7535211267605634
 40
0.7535211267605634
 40
0.7605633802816901
 40
0.7605633802816901
 40
0.7605633802816901
 40
0.7605633802816901
 40
0.7676056338028169
 40
0.7676056338028169
 40
0.7676056338028169
 40
0.7676056338028169
 40
0.7746478873239436
 40
0.7746478873239436
 40
0.7746478873239436
 40
0.7746478873239436
 40
0.7816901408450704
 40
0.7816901408450704
 40
0.7816901408450704
 40
0.7816901408450704
 40
0.7887323943661971
 40
0.7887323943661971
 40
0.7887323943661971
 40
0.7887323943661971
 40
0.795774647887324
 40
0.795774647887324
 40
0.795774647887324
 40
0.795774647887324
 40
0.8028169014084507
 40
0.8028169014084507
 40
0.8028169014084507
 40
0.8028169014084507
 40
0.8098591549295775
 40
0.8098591549295775
 40
0.8098591549295775
 40
0.8098591549295775
 40
0.8169014084507042
 40
0.8169014084507042
 40
0.8169014084507042
 40
0.8169014084507042
 40
0.823943661971831
 40
0.823943661971831
 40
0.823943661971831
 40
0.823943661971831
 40
0.8309859154929577
 40
0.8309859154929577
 40
0.8309859154929577
 40
0.8309859154929577
 40
0.8380281690140845
 40
0.8380281690140845
 40
0.8380281690140845
 40
0.8380281690140845
 40
0.8450704225352113
 40
0.8450704225352113
 40
0.8450704225352113
 40
0.8450704225352113
 40
0.852112676056338
 40
0.852112676056338
 40
0.852112676056338
 40
0.852112676056338
 40
0.8591549295774648
 40
0.8591549295774648
 40
0.8591549295774648
 40
0.8591549295774648
 40
0.8661971830985915
 40
0.8661971830985915
 40
0.8661971830985915
 40
0.8661971830985915
 40
0.8732394366197183
 40
0.8732394366197183
 40
0.8732394366197183
 40
0.8732394366197183
 40
0.8802816901408451
 40
0.8802816901408451
 40
0.8802816901408451
 40
0.8802816901408451
 40
0.8873239436619719
 40
0.8873239436619719
 40
0.8873239436619719
 40
0.8873239436619719
 40
0.8943661971830986
 40
0.8943661971830986
 40
0.8943661971830986
 40
0.8943661971830986
 40
0.9014084507042254
 40
0.9014084507042254
 40
0.9014084507042254
 40
0.9014084507042254
 40
0.9084507042253521
 40
0.9084507042253521
 40
0.9084507042253521
 40
0.9084507042253521
 40
0.9154929577464789
 40
0.9154929577464789
 40
0.9154929577464789
 40
0.9154929577464789
 40
0.9225352112676056
 40
0.9225352112676056
 40
0.9225352112676056
 40
0.9225352112676056
 40
0.9295774647887324
 40
0.9295774647887324
 40
0.9295774647887324
 40
0.9295774647887324
 40
0.9366197183098591
 40
0.9366197183098591
 40
0.9366197183098591
 40
0.9366197183098591
 40
0.9436619718309859
 40
0.9436619718309859
 40
0.9436619718309859
 40
0.9436619718309859
 40
0.9507042253521126
 40
0.9507042253521126
 40
0.9507042253521126
 40
0.9507042253521126
 40
0.9577464788732394
 40
0.9577464788732394
 40
0.9577464788732394
 40
0.9577464788732394
 40
0.9647887323943662
 40
0.9647887323943662
 40
0.9647887323943662
 40
0.9647887323943662
 40
0.971830985915493
 40
0.971830985915493
 40
0.971830985915493
 40
0.971830985915493
 40
0.9788732394366197
 40
0.9788732394366197
 40
0.9788732394366197
 40
0.9788732394366197
 40
0.9859154929577465
 40
0.9859154929577465
 40
0.9859154929577465
 40
0.9859154929577465
 40
1.0
 40
1.0
 40
1.0
 40
1.0
 10
-7.68439
 20
-9.25786
 30
0.0
 10
-7.80358
 20
-9.20015
 30
0.0
 10
-7.87183
 20
-9.31976
 30
0.0
 10
-7.86169
 20
-9.42427
 30
0.0
 10
-7.86169
 20
-9.42427
 30
0.0
 10
-7.94086
 20
-9.41826
 30
0.0
 10
-8.02823
 20
-9.49276
 30
0.0
 10
-8.09801
 20
-9.53958
 30
0.0
 10
-8.09801
 20
-9.53958
 30
0.0
 10
-8.07841
 20
-9.29574
 30
0.0
 10
-8.57724
 20
-9.51428
 30
0.0
 10
-8.7024
 20
-9.49084
 30
0.0
 10
-8.7024
 20
-9.49084
 30
0.0
 10
-8.74333
 20
-9.48317
 30
0.0
 10
-8.7879
 20
-9.48873
 30
0.0
 10
-8.81793
 20
-9.51457
 30
0.0
 10
-8.81793
 20
-9.51457
 30
0.0
 10
-8.81793
 20
-9.51457
 30
0.0
 10
-8.81792
 20
-9.51458
 30
0.0
 10
-8.81792
 20
-9.51458
 30
0.0
 10
-8.81792
 20
-9.51458
 30
0.0
 10
-8.88692
 20
-9.57372
 30
0.0
 10
-8.86451
 20
-9.71668
 30
0.0
 10
-8.87116
 20
-9.79749
 30
0.0
 10
-8.87116
 20
-9.79749
 30
0.0
 10
-8.87116
 20
-9.79749
 30
0.0
 10
-8.87642
 20
-9.86631
 30
0.0
 10
-8.87642
 20
-9.86631
 30
0.0
 10
-8.87642
 20
-9.86631
 30
0.0
 10
-8.87642
 20
-9.86631
 30
0.0
 10
-8.87631
 20
-9.86632
 30
0.0
 10
-8.87631
 20
-9.86632
 30
0.0
 10
-8.87631
 20
-9.86632
 30
0.0
 10
-8.89486
 20
-10.15784
 30
0.0
 10
-8.79248
 20
-10.00866
 30
0.0
 10
-8.43655
 20
-10.12384
 30
0.0
 10
-8.43655
 20
-10.12384
 30
0.0
 10
-8.5314
 20
-10.20601
 30
0.0
 10
-8.69754
 20
-10.18371
 30
0.0
 10
-8.81562
 20
-10.18371
 30
0.0
 10
-8.81562
 20
-10.18371
 30
0.0
 10
-8.81562
 20
-10.18371
 30
0.0
 10
-8.81562
 20
-10.1839
 30
0.0
 10
-8.81562
 20
-10.1839
 30
0.0
 10
-8.81562
 20
-10.1839
 30
0.0
 10
-8.91264
 20
-10.1839
 30
0.0
 10
-8.87534
 20
-10.43092
 30
0.0
 10
-8.8555
 20
-10.4534
 30
0.0
 10
-8.8555
 20
-10.4534
 30
0.0
 10
-8.81738
 20
-10.4966
 30
0.0
 10
-8.4423
 20
-10.52668
 30
0.0
 10
-8.35577
 20
-10.53505
 30
0.0
 10
-8.35577
 20
-10.53505
 30
0.0
 10
-8.30998
 20
-10.53948
 30
0.0
 10
-8.27438
 20
-10.53032
 30
0.0
 10
-8.22933
 20
-10.52655
 30
0.0
 10
-8.22933
 20
-10.52655
 30
0.0
 10
-8.22933
 20
-10.52655
 30
0.0
 10
-8.22934
 20
-10.52644
 30
0.0
 10
-8.22934
 20
-10.52644
 30
0.0
 10
-8.22934
 20
-10.52644
 30
0.0
 10
-8.1438
 20
-10.51953
 30
0.0
 10
-8.20327
 20
-10.20797
 30
0.0
 10
-8.23131
 20
-10.16389
 30
0.0
 10
-8.23131
 20
-10.16389
 30
0.0
 10
-8.19061
 20
-10.15441
 30
0.0
 10
-8.16466
 20
-10.12603
 30
0.0
 10
-8.15075
 20
-10.0839
 30
0.0
 10
-8.15075
 20
-10.0839
 30
0.0
 10
-8.1286
 20
-10.1209
 30
0.0
 10
-8.10218
 20
-10.16378
 30
0.0
 10
-8.07305
 20
-10.20442
 30
0.0
 10
-8.07305
 20
-10.20442
 30
0.0
 10
-8.07305
 20
-10.20442
 30
0.0
 10
-8.07296
 20
-10.20435
 30
0.0
 10
-8.07296
 20
-10.20435
 30
0.0
 10
-8.07296
 20
-10.20435
 30
0.0
 10
-8.07296
 20
-10.20435
 30
0.0
 10
-8.02514
 20
-10.22861
 30
0.0
 10
-8.02514
 20
-10.22861
 30
0.0
 10
-8.02514
 20
-10.22861
 30
0.0
 10
-8.04264
 20
-10.26925
 30
0.0
 10
-7.96464
 20
-10.49297
 30
0.0
 10
-7.83406
 20
-10.53194
 30
0.0
 10
-7.83406
 20
-10.53194
 30
0.0
 10
-7.83406
 20
-10.53194
 30
0.0
 10
-7.83404
 20
-10.53188
 30
0.0
 10
-7.83404
 20
-10.53188
 30
0.0
 10
-7.83404
 20
-10.53188
 30
0.0
 10
-7.83404
 20
-10.53188
 30
0.0
 10
-7.82001
 20
-10.53475
 30
0.0
 10
-7.82001
 20
-10.53475
 30
0.0
 10
-7.82001
 20
-10.53475
 30
0.0
 10
-7.78214
 20
-10.53874
 30
0.0
 10
-7.71933
 20
-10.52352
 30
0.0
 10
-7.70691
 20
-10.48182
 30
0.0
 10
-7.70691
 20
-10.48182
 30
0.0
 10
-7.70691
 20
-10.48182
 30
0.0
 10
-7.70696
 20
-10.48181
 30
0.0
 10
-7.70696
 20
-10.48181
 30
0.0
 10
-7.70696
 20
-10.48181
 30
0.0
 10
-7.70696
 20
-10.48181
 30
0.0
 10
-7.70457
 20
-10.4675
 30
0.0
 10
-7.70457
 20
-10.4675
 30
0.0
 10
-7.70457
 20
-10.4675
 30
0.0
 10
-7.67437
 20
-10.49569
 30
0.0
 10
-7.63604
 20
-10.51381
 30
0.0
 10
-7.59585
 20
-10.50959
 30
0.0
 10
-7.59585
 20
-10.50959
 30
0.0
 10
-7.62534
 20
-10.65463
 30
0.0
 10
-7.31024
 20
-10.74304
 30
0.0
 10
-7.1756
 20
-10.80264
 30
0.0
 10
-7.1756
 20
-10.80264
 30
0.0
 10
-7.06327
 20
-10.85236
 30
0.0
 10
-6.71559
 20
-11.05551
 30
0.0
 10
-6.57147
 20
-10.97118
 30
0.0
 10
-6.57147
 20
-10.97118
 30
0.0
 10
-6.51268
 20
-11.07666
 30
0.0
 10
-6.32613
 20
-11.04191
 30
0.0
 10
-6.05157
 20
-11.18075
 30
0.0
 10
-6.05157
 20
-11.18075
 30
0.0
 10
-6.01518
 20
-11.19915
 30
0.0
 10
-5.95358
 20
-11.2037
 30
0.0
 10
-5.91561
 20
-11.18436
 30
0.0
 10
-5.91561
 20
-11.18436
 30
0.0
 10
-5.88181
 20
-11.29231
 30
0.0
 10
-5.72423
 20
-11.28645
 30
0.0
 10
-5.6336
 20
-11.2939
 30
0.0
 10
-5.6336
 20
-11.2939
 30
0.0
 10
-5.6336
 20
-11.2939
 30
0.0
 10
-5.60169
 20
-11.29661
 30
0.0
 10
-5.60169
 20
-11.29661
 30
0.0
 10
-5.60169
 20
-11.29661
 30
0.0
 10
-5.60169
 20
-11.29661
 30
0.0
 10
-5.60167
 20
-11.29642
 30
0.0
 10
-5.60167
 20
-11.29642
 30
0.0
 10
-5.60167
 20
-11.29642
 30
0.0
 10
-5.58576
 20
-11.29783
 30
0.0
 10
-5.57381
 20
-11.29406
 30
0.0
 10
-5.56406
 20
-11.28651
 30
0.0
 10
-5.56406
 20
-11.28651
 30
0.0
 10
-5.50437
 20
-11.36455
 30
0.0
 10
-5.32395
 20
-11.35202
 30
0.0
 10
-5.23853
 20
-11.324
 30
0.0
 10
-5.23853
 20
-11.324
 30
0.0
 10
-5.23853
 20
-11.324
 30
0.0
 10
-5.23854
 20
-11.32396
 30
0.0
 10
-5.23854
 20
-11.32396
 30
0.0
 10
-5.23854
 20
-11.32396
 30
0.0
 10
-5.14875
 20
-11.2947
 30
0.0
 10
-5.25593
 20
-11.16177
 30
0.0
 10
-5.30955
 20
-11.15227
 30
0.0
 10
-5.30955
 20
-11.15227
 30
0.0
 10
-5.68369
 20
-11.08601
 30
0.0
 10
-5.44863
 20
-11.1191
 30
0.0
 10
-5.6184
 20
-11.04619
 30
0.0
 10
-5.6184
 20
-11.04619
 30
0.0
 10
-5.70495
 20
-11.00902
 30
0.0
 10
-5.79387
 20
-10.99802
 30
0.0
 10
-5.88542
 20
-11.01241
 30
0.0
 10
-5.88542
 20
-11.01241
 30
0.0
 10
-5.897
 20
-10.99373
 30
0.0
 10
-5.91306
 20
-10.97687
 30
0.0
 10
-5.93282
 20
-10.9627
 30
0.0
 10
-5.93282
 20
-10.9627
 30
0.0
 10
-5.93282
 20
-10.9627
 30
0.0
 10
-5.93286
 20
-10.96276
 30
0.0
 10
-5.93286
 20
-10.96276
 30
0.0
 10
-5.93286
 20
-10.96276
 30
0.0
 10
-5.93286
 20
-10.96276
 30
0.0
 10
-5.93536
 20
-10.96099
 30
0.0
 10
-5.93536
 20
-10.96099
 30
0.0
 10
-5.93536
 20
-10.96099
 30
0.0
 10
-5.93536
 20
-10.96099
 30
0.0
 10
-5.9354
 20
-10.96104
 30
0.0
 10
-5.9354
 20
-10.96104
 30
0.0
 10
-5.9354
 20
-10.96104
 30
0.0
 10
-6.01895
 20
-10.90136
 30
0.0
 10
-6.13776
 20
-10.89471
 30
0.0
 10
-6.22879
 20
-10.85282
 30
0.0
 10
-6.22879
 20
-10.85282
 30
0.0
 10
-6.22879
 20
-10.85282
 30
0.0
 10
-6.22883
 20
-10.8529
 30
0.0
 10
-6.22883
 20
-10.8529
 30
0.0
 10
-6.22883
 20
-10.8529
 30
0.0
 10
-6.22883
 20
-10.8529
 30
0.0
 10
-6.40192
 20
-10.74969
 30
0.0
 10
-6.40192
 20
-10.74969
 30
0.0
 10
-6.40192
 20
-10.74969
 30
0.0
 10
-6.40192
 20
-10.74969
 30
0.0
 10
-6.40202
 20
-10.74982
 30
0.0
 10
-6.40202
 20
-10.74982
 30
0.0
 10
-6.40202
 20
-10.74982
 30
0.0
 10
-6.41713
 20
-10.73852
 30
0.0
 10
-6.43114
 20
-10.73222
 30
0.0
 10
-6.4486
 20
-10.72436
 30
0.0
 10
-6.4486
 20
-10.72436
 30
0.0
 10
-6.4486
 20
-10.72436
 30
0.0
 10
-6.44863
 20
-10.72444
 30
0.0
 10
-6.44863
 20
-10.72444
 30
0.0
 10
-6.44863
 20
-10.72444
 30
0.0
 10
-6.44863
 20
-10.72444
 30
0.0
 10
-6.47351
 20
-10.71278
 30
0.0
 10
-6.47351
 20
-10.71278
 30
0.0
 10
-6.47351
 20
-10.71278
 30
0.0
 10
-6.47351
 20
-10.71278
 30
0.0
 10
-6.47353
 20
-10.71281
 30
0.0
 10
-6.47353
 20
-10.71281
 30
0.0
 10
-6.47353
 20
-10.71281
 30
0.0
 10
-6.493
 20
-10.70321
 30
0.0
 10
-6.5166
 20
-10.70787
 30
0.0
 10
-6.53109
 20
-10.72254
 30
0.0
 10
-6.53109
 20
-10.72254
 30
0.0
 10
-6.59917
 20
-10.66354
 30
0.0
 10
-6.88424
 20
-10.63958
 30
0.0
 10
-7.2342
 20
-10.4168
 30
0.0
 10
-7.2342
 20
-10.4168
 30
0.0
 10
-7.03856
 20
-10.43133
 30
0.0
 10
-6.49394
 20
-10.76314
 30
0.0
 10
-6.34215
 20
-10.61579
 30
0.0
 10
-6.34215
 20
-10.61579
 30
0.0
 10
-6.33602
 20
-10.62847
 30
0.0
 10
-6.32685
 20
-10.64055
 30
0.0
 10
-6.31633
 20
-10.65052
 30
0.0
 10
-6.31633
 20
-10.65052
 30
0.0
 10
-6.31633
 20
-10.65052
 30
0.0
 10
-6.31623
 20
-10.65042
 30
0.0
 10
-6.31623
 20
-10.65042
 30
0.0
 10
-6.31623
 20
-10.65042
 30
0.0
 10
-6.26556
 20
-10.70109
 30
0.0
 10
-5.60601
 20
-10.78068
 30
0.0
 10
-5.51428
 20
-10.76483
 30
0.0
 10
-5.51428
 20
-10.76483
 30
0.0
 10
-5.49662
 20
-10.76178
 30
0.0
 10
-5.4804
 20
-10.75623
 30
0.0
 10
-5.46761
 20
-10.74816
 30
0.0
 10
-5.46761
 20
-10.74816
 30
0.0
 10
-5.44631
 20
-10.77057
 30
0.0
 10
-5.41247
 20
-10.79003
 30
0.0
 10
-5.38552
 20
-10.78703
 30
0.0
 10
-5.38552
 20
-10.78703
 30
0.0
 10
-5.38552
 20
-10.78703
 30
0.0
 10
-5.38553
 20
-10.78697
 30
0.0
 10
-5.38553
 20
-10.78697
 30
0.0
 10
-5.38553
 20
-10.78697
 30
0.0
 10
-5.26774
 20
-10.77681
 30
0.0
 10
-5.16004
 20
-10.8002
 30
0.0
 10
-5.04648
 20
-10.83092
 30
0.0
 10
-5.04648
 20
-10.83092
 30
0.0
 10
-5.04648
 20
-10.83092
 30
0.0
 10
-5.04648
 20
-10.83091
 30
0.0
 10
-5.04648
 20
-10.83091
 30
0.0
 10
-5.04648
 20
-10.83091
 30
0.0
 10
-5.00937
 20
-10.84142
 30
0.0
 10
-4.96153
 20
-10.85102
 30
0.0
 10
-4.9278
 20
-10.8338
 30
0.0
 10
-4.9278
 20
-10.8338
 30
0.0
 10
-4.87353
 20
-10.8826
 30
0.0
 10
-4.4559
 20
-10.93026
 30
0.0
 10
-4.48766
 20
-10.80834
 30
0.0
 10
-4.48766
 20
-10.80834
 30
0.0
 10
-4.53727
 20
-10.61788
 30
0.0
 10
-4.59379
 20
-10.70263
 30
0.0
 10
-4.73408
 20
-10.65638
 30
0.0
 10
-4.73408
 20
-10.65638
 30
0.0
 10
-4.7734
 20
-10.64342
 30
0.0
 10
-4.82527
 20
-10.62692
 30
0.0
 10
-4.86852
 20
-10.63183
 30
0.0
 10
-4.86852
 20
-10.63183
 30
0.0
 10
-4.90276
 20
-10.55171
 30
0.0
 10
-5.31229
 20
-10.5353
 30
0.0
 10
-5.42709
 20
-10.51601
 30
0.0
 10
-5.42709
 20
-10.51601
 30
0.0
 10
-5.42709
 20
-10.51601
 30
0.0
 10
-5.4542
 20
-10.51806
 30
0.0
 10
-5.4542
 20
-10.51806
 30
0.0
 10
-5.4542
 20
-10.51806
 30
0.0
 10
-5.48236
 20
-10.48185
 30
0.0
 10
-5.56967
 20
-10.47376
 30
0.0
 10
-5.61602
 20
-10.48
 30
0.0
 10
-5.61602
 20
-10.48
 30
0.0
 10
-5.61602
 20
-10.48
 30
0.0
 10
-5.61602
 20
-10.48002
 30
0.0
 10
-5.61602
 20
-10.48002
 30
0.0
 10
-5.61602
 20
-10.48002
 30
0.0
 10
-5.61937
 20
-10.48047
 30
0.0
 10
-5.62274
 20
-10.48094
 30
0.0
 10
-5.62742
 20
-10.48127
 30
0.0
 10
-5.62742
 20
-10.48127
 30
0.0
 10
-5.62742
 20
-10.48127
 30
0.0
 10
-5.62742
 20
-10.48131
 30
0.0
 10
-5.62742
 20
-10.48131
 30
0.0
 10
-5.62742
 20
-10.48131
 30
0.0
 10
-5.73907
 20
-10.48762
 30
0.0
 10
-5.84434
 20
-10.44657
 30
0.0
 10
-5.94952
 20
-10.40554
 30
0.0
 10
-5.94952
 20
-10.40554
 30
0.0
 10
-5.94952
 20
-10.40554
 30
0.0
 10
-5.94955
 20
-10.40561
 30
0.0
 10
-5.94955
 20
-10.40561
 30
0.0
 10
-5.94955
 20
-10.40561
 30
0.0
 10
-6.04124
 20
-10.3655
 30
0.0
 10
-6.30948
 20
-10.21631
 30
0.0
 10
-6.34367
 20
-10.36125
 30
0.0
 10
-6.34367
 20
-10.36125
 30
0.0
 10
-6.48893
 20
-10.24809
 30
0.0
 10
-6.86554
 20
-10.35049
 30
0.0
 10
-7.16985
 20
-10.13262
 30
0.0
 10
-7.16985
 20
-10.13262
 30
0.0
 10
-6.90627
 20
-10.06886
 30
0.0
 10
-6.56358
 20
-10.21808
 30
0.0
 10
-6.29781
 20
-10.27653
 30
0.0
 10
-6.29781
 20
-10.27653
 30
0.0
 10
-6.29781
 20
-10.27653
 30
0.0
 10
-6.29778
 20
-10.27638
 30
0.0
 10
-6.29778
 20
-10.27638
 30
0.0
 10
-6.29778
 20
-10.27638
 30
0.0
 10
-6.23386
 20
-10.2904
 30
0.0
 10
-6.18783
 20
-10.27384
 30
0.0
 10
-6.15306
 20
-10.23395
 30
0.0
 10
-6.15306
 20
-10.23395
 30
0.0
 10
-6.06933
 20
-10.32077
 30
0.0
 10
-5.74873
 20
-10.17707
 30
0.0
 10
-5.27843
 20
-10.28935
 30
0.0
 10
-5.27843
 20
-10.28935
 30
0.0
 10
-5.23508
 20
-10.2997
 30
0.0
 10
-5.18969
 20
-10.27874
 30
0.0
 10
-5.18969
 20
-10.23144
 30
0.0
 10
-5.18969
 20
-10.23144
 30
0.0
 10
-5.15796
 20
-10.25179
 30
0.0
 10
-4.85274
 20
-10.24214
 30
0.0
 10
-4.64334
 20
-10.30882
 30
0.0
 10
-4.64334
 20
-10.30882
 30
0.0
 10
-4.64334
 20
-10.30882
 30
0.0
 10
-4.59218
 20
-10.31137
 30
0.0
 10
-4.59218
 20
-10.31137
 30
0.0
 10
-4.59218
 20
-10.31137
 30
0.0
 10
-4.59218
 20
-10.31137
 30
0.0
 10
-4.54656
 20
-10.29805
 30
0.0
 10
-4.54656
 20
-10.29805
 30
0.0
 10
-4.54656
 20
-10.29805
 30
0.0
 10
-4.54656
 20
-10.29805
 30
0.0
 10
-4.54657
 20
-10.29803
 30
0.0
 10
-4.54657
 20
-10.29803
 30
0.0
 10
-4.54657
 20
-10.29803
 30
0.0
 10
-4.49575
 20
-10.28154
 30
0.0
 10
-4.33488
 20
-10.30144
 30
0.0
 10
-4.27589
 20
-10.30932
 30
0.0
 10
-4.27589
 20
-10.30932
 30
0.0
 10
-4.27589
 20
-10.30932
 30
0.0
 10
-4.27589
 20
-10.30929
 30
0.0
 10
-4.27589
 20
-10.30929
 30
0.0
 10
-4.27589
 20
-10.30929
 30
0.0
 10
-4.22871
 20
-10.31674
 30
0.0
 10
-4.03034
 20
-10.2731
 30
0.0
 10
-4.12045
 20
-10.15203
 30
0.0
 10
-4.12045
 20
-10.15203
 30
0.0
 10
-4.194
 20
-10.05321
 30
0.0
 10
-4.3309
 20
-10.08782
 30
0.0
 10
-4.43188
 20
-10.02667
 30
0.0
 10
-4.43188
 20
-10.02667
 30
0.0
 10
-4.45381
 20
-10.01339
 30
0.0
 10
-4.48617
 20
-10.0121
 30
0.0
 10
-4.51502
 20
-10.0184
 30
0.0
 10
-4.51502
 20
-10.0184
 30
0.0
 10
-4.5377
 20
-9.99312
 30
0.0
 10
-4.60666
 20
-9.9866
 30
0.0
 10
-4.63725
 20
-9.99106
 30
0.0
 10
-4.63725
 20
-9.99106
 30
0.0
 10
-4.63725
 20
-9.99106
 30
0.0
 10
-4.63725
 20
-9.99109
 30
0.0
 10
-4.63725
 20
-9.99109
 30
0.0
 10
-4.63725
 20
-9.99109
 30
0.0
 10
-4.90275
 20
-10.0296
 30
0.0
 10
-5.07937
 20
-9.88728
 30
0.0
 10
-5.19302
 20
-9.95917
 30
0.0
 10
-5.19302
 20
-9.95917
 30
0.0
 10
-5.23115
 20
-9.86027
 30
0.0
 10
-5.56686
 20
-10.02175
 30
0.0
 10
-5.92303
 20
-9.89817
 30
0.0
 10
-5.92303
 20
-9.89817
 30
0.0
 10
-5.92303
 20
-9.89817
 30
0.0
 10
-5.99859
 20
-9.87836
 30
0.0
 10
-5.99859
 20
-9.87836
 30
0.0
 10
-5.99859
 20
-9.87836
 30
0.0
 10
-5.99859
 20
-9.87836
 30
0.0
 10
-5.99861
 20
-9.87852
 30
0.0
 10
-5.99861
 20
-9.87852
 30
0.0
 10
-5.99861
 20
-9.87852
 30
0.0
 10
-6.07466
 20
-9.8668
 30
0.0
 10
-6.12372
 20
-9.86923
 30
0.0
 10
-6.14527
 20
-9.92416
 30
0.0
 10
-6.14527
 20
-9.92416
 30
0.0
 10
-6.31589
 20
-9.7435
 30
0.0
 10
-6.51466
 20
-10.02629
 30
0.0
 10
-7.0245
 20
-9.88787
 30
0.0
 10
-7.0245
 20
-9.88787
 30
0.0
 10
-7.0245
 20
-9.88787
 30
0.0
 10
-7.02451
 20
-9.88792
 30
0.0
 10
-7.02451
 20
-9.88792
 30
0.0
 10
-7.02451
 20
-9.88792
 30
0.0
 10
-7.09861
 20
-9.86842
 30
0.0
 10
-7.16988
 20
-9.82554
 30
0.0
 10
-7.24347
 20
-9.80289
 30
0.0
 10
-7.24347
 20
-9.80289
 30
0.0
 10
-7.02916
 20
-9.68183
 30
0.0
 10
-6.61959
 20
-9.70843
 30
0.0
 10
-6.3952
 20
-9.76477
 30
0.0
 10
-6.3952
 20
-9.76477
 30
0.0
 10
-6.2926
 20
-9.79053
 30
0.0
 10
-6.20508
 20
-9.75795
 30
0.0
 10
-6.1499
 20
-9.67591
 30
0.0
 10
-6.1499
 20
-9.67591
 30
0.0
 10
-6.1081
 20
-9.74415
 30
0.0
 10
-5.99846
 20
-9.71035
 30
0.0
 10
-5.92723
 20
-9.69229
 30
0.0
 10
-5.92723
 20
-9.69229
 30
0.0
 10
-5.92723
 20
-9.69229
 30
0.0
 10
-5.92724
 20
-9.69224
 30
0.0
 10
-5.92724
 20
-9.69224
 30
0.0
 10
-5.92724
 20
-9.69224
 30
0.0
 10
-5.70078
 20
-9.63483
 30
0.0
 10
-5.34219
 20
-9.68602
 30
0.0
 10
-5.30828
 20
-9.66082
 30
0.0
 10
-5.30828
 20
-9.66082
 30
0.0
 10
-5.26131
 20
-9.72033
 30
0.0
 10
-5.10293
 20
-9.59224
 30
0.0
 10
-4.92375
 20
-9.62645
 30
0.0
 10
-4.92375
 20
-9.62645
 30
0.0
 10
-4.92375
 20
-9.62645
 30
0.0
 10
-4.92374
 20
-9.62641
 30
0.0
 10
-4.92374
 20
-9.62641
 30
0.0
 10
-4.92374
 20
-9.62641
 30
0.0
 10
-4.88959
 20
-9.6336
 30
0.0
 10
-4.84049
 20
-9.62766
 30
0.0
 10
-4.81
 20
-9.60744
 30
0.0
 10
-4.81
 20
-9.60744
 30
0.0
 10
-4.7528
 20
-9.67243
 30
0.0
 10
-4.29498
 20
-9.67347
 30
0.0
 10
-4.31745
 20
-9.50403
 30
0.0
 10
-4.31745
 20
-9.50403
 30
0.0
 10
-4.33165
 20
-9.39696
 30
0.0
 10
-4.75143
 20
-9.3688
 30
0.0
 10
-4.79675
 20
-9.408
 30
0.0
 10
-4.79675
 20
-9.408
 30
0.0
 10
-4.80171
 20
-9.41229
 30
0.0
 10
-4.80594
 20
-9.4169
 30
0.0
 10
-4.80955
 20
-9.42193
 30
0.0
 10
-4.80955
 20
-9.42193
 30
0.0
 10
-4.87984
 20
-9.36854
 30
0.0
 10
-5.18733
 20
-9.39514
 30
0.0
 10
-5.29075
 20
-9.39513
 30
0.0
 10
-5.29075
 20
-9.39513
 30
0.0
 10
-5.29075
 20
-9.39513
 30
0.0
 10
-5.29075
 20
-9.3952
 30
0.0
 10
-5.29075
 20
-9.3952
 30
0.0
 10
-5.29075
 20
-9.3952
 30
0.0
 10
-5.31025
 20
-9.3953
 30
0.0
 10
-5.32754
 20
-9.40667
 30
0.0
 10
-5.33563
 20
-9.42323
 30
0.0
 10
-5.33563
 20
-9.42323
 30
0.0
 10
-5.38203
 20
-9.38335
 30
0.0
 10
-5.42109
 20
-9.38004
 30
0.0
 10
-5.4775
 20
-9.38004
 30
0.0
 10
-5.4775
 20
-9.38004
 30
0.0
 10
-5.4775
 20
-9.38004
 30
0.0
 10
-5.4775
 20
-9.38013
 30
0.0
 10
-5.4775
 20
-9.38013
 30
0.0
 10
-5.4775
 20
-9.38013
 30
0.0
 10
-5.65147
 20
-9.38013
 30
0.0
 10
-5.69096
 20
-9.42316
 30
0.0
 10
-5.92443
 20
-9.39444
 30
0.0
 10
-5.92443
 20
-9.39444
 30
0.0
 10
-5.98331
 20
-9.3872
 30
0.0
 10
-6.14752
 20
-9.34672
 30
0.0
 10
-6.16557
 20
-9.4407
 30
0.0
 10
-6.16557
 20
-9.4407
 30
0.0
 10
-6.41298
 20
-9.2209
 30
0.0
 10
-6.37301
 20
-9.48417
 30
0.0
 10
-7.27022
 20
-9.45833
 30
0.0
 10
-7.27022
 20
-9.45833
 30
0.0
 10
-7.2899
 20
-9.45776
 30
0.0
 10
-7.31166
 20
-9.45437
 30
0.0
 10
-7.33366
 20
-9.45067
 30
0.0
 10
-7.33366
 20
-9.45067
 30
0.0
 10
-7.08598
 20
-9.23268
 30
0.0
 10
-7.24178
 20
-9.23936
 30
0.0
 10
-6.78531
 20
-9.23936
 30
0.0
 10
-6.78531
 20
-9.23936
 30
0.0
 10
-6.78531
 20
-9.23936
 30
0.0
 10
-6.78531
 20
-9.23925
 30
0.0
 10
-6.78531
 20
-9.23925
 30
0.0
 10
-6.78531
 20
-9.23925
 30
0.0
 10
-6.71642
 20
-9.23925
 30
0.0
 10
-6.73854
 20
-9.15171
 30
0.0
 10
-6.74288
 20
-9.1067
 30
0.0
 10
-6.74288
 20
-9.1067
 30
0.0
 10
-6.59722
 20
-9.17144
 30
0.0
 10
-6.57295
 20
-9.01058
 30
0.0
 10
-6.24244
 20
-9.01
 30
0.0
 10
-6.24244
 20
-9.01
 30
0.0
 10
-6.2003
 20
-9.00993
 30
0.0
 10
-6.10014
 20
-8.99721
 30
0.0
 10
-6.09989
 20
-8.94077
 30
0.0
 10
-6.09989
 20
-8.94077
 30
0.0
 10
-6.08201
 20
-8.94478
 30
0.0
 10
-6.06247
 20
-8.94363
 30
0.0
 10
-6.04123
 20
-8.93564
 30
0.0
 10
-6.04123
 20
-8.93564
 30
0.0
 10
-6.04123
 20
-8.93564
 30
0.0
 10
-6.04126
 20
-8.93557
 30
0.0
 10
-6.04126
 20
-8.93557
 30
0.0
 10
-6.04126
 20
-8.93557
 30
0.0
 10
-5.92633
 20
-8.89299
 30
0.0
 10
-5.83362
 20
-8.81641
 30
0.0
 10
-5.72919
 20
-8.74952
 30
0.0
 10
-5.72919
 20
-8.74952
 30
0.0
 10
-5.72919
 20
-8.74952
 30
0.0
 10
-5.72925
 20
-8.74943
 30
0.0
 10
-5.72925
 20
-8.74943
 30
0.0
 10
-5.72925
 20
-8.74943
 30
0.0
 10
-5.69962
 20
-8.73041
 30
0.0
 10
-5.69013
 20
-8.69736
 30
0.0
 10
-5.67135
 20
-8.66675
 30
0.0
 10
-5.67135
 20
-8.66675
 30
0.0
 10
-5.67135
 20
-8.66675
 30
0.0
 10
-5.6714
 20
-8.66672
 30
0.0
 10
-5.6714
 20
-8.66672
 30
0.0
 10
-5.6714
 20
-8.66672
 30
0.0
 10
-5.62445
 20
-8.59003
 30
0.0
 10
-5.77616
 20
-8.56866
 30
0.0
 10
-5.82023
 20
-8.57835
 30
0.0
 10
-5.82023
 20
-8.57835
 30
0.0
 10
-5.82023
 20
-8.57835
 30
0.0
 10
-5.82022
 20
-8.57839
 30
0.0
 10
-5.82022
 20
-8.57839
 30
0.0
 10
-5.82022
 20
-8.57839
 30
0.0
 10
-5.90822
 20
-8.59765
 30
0.0
 10
-6.18582
 20
-8.63436
 30
0.0
 10
-6.21318
 20
-8.73104
 30
0.0
 10
-6.21318
 20
-8.73104
 30
0.0
 10
-6.2945
 20
-8.68968
 30
0.0
 10
-6.52305
 20
-8.81619
 30
0.0
 10
-6.80964
 20
-8.8248
 30
0.0
 10
-6.80964
 20
-8.8248
 30
0.0
 10
-6.84593
 20
-8.82589
 30
0.0
 10
-6.8911
 20
-8.86204
 30
0.0
 10
-6.88644
 20
-8.8989
 30
0.0
 10
-6.88644
 20
-8.8989
 30
0.0
 10
-6.99833
 20
-8.87978
 30
0.0
 10
-7.17766
 20
-9.01501
 30
0.0
 10
-7.50758
 20
-9.09001
 30
0.0
 10
-7.50758
 20
-9.09001
 30
0.0
 10
-7.57466
 20
-9.10526
 30
0.0
 10
-7.64428
 20
-9.17167
 30
0.0
 10
-7.67426
 20
-9.23131
 30
0.0
 10
-7.67426
 20
-9.23131
 30
0.0
 10
-7.67426
 20
-9.23131
 30
0.0
 10
-7.67418
 20
-9.23135
 30
0.0
 10
-7.67418
 20
-9.23135
 30
0.0
 10
-7.67418
 20
-9.23135
 30
0.0
 10
-7.67418
 20
-9.23135
 30
0.0
 10
-7.68439
 20
-9.25786
 30
0.0
 10
-7.68439
 20
-9.25786
 30
0.0
  0
SPLINE
  5
42
330
1F
100
AcDbEntity
  8
Layer 1
 62
     5
100
AcDbSpline
210
0.0
220
0.0
230
1.0
 70
    11
 71
     3
 72
   568
 73
   564
 74
     0
 42
0.0000000001
 43
0.0000000001
 12
1.0
 22
0.0
 32
0.0
 13
1.0
 23
0.0
 33
0.0
 40
0.0
 40
0.0
 40
0.0
 40
0.0
 40
0.0070422535211268
 40
0.0070422535211268
 40
0.0070422535211268
 40
0.0070422535211268
 40
0.0140845070422535
 40
0.0140845070422535
 40
0.0140845070422535
 40
0.0140845070422535
 40
0.0211267605633803
 40
0.0211267605633803
 40
0.0211267605633803
 40
0.0211267605633803
 40
0.028169014084507
 40
0.028169014084507
 40
0.028169014084507
 40
0.028169014084507
 40
0.0352112676056338
 40
0.0352112676056338
 40
0.0352112676056338
 40
0.0352112676056338
 40
0.0422535211267606
 40
0.0422535211267606
 40
0.0422535211267606
 40
0.0422535211267606
 40
0.0492957746478873
 40
0.0492957746478873
 40
0.0492957746478873
 40
0.0492957746478873
 40
0.0563380281690141
 40
0.0563380281690141
 40
0.0563380281690141
 40
0.0563380281690141
 40
0.0633802816901408
 40
0.0633802816901408
 40
0.0633802816901408
 40
0.0633802816901408
 40
0.0704225352112676
 40
0.0704225352112676
 40
0.0704225352112676
 40
0.0704225352112676
 40
0.0774647887323944
 40
0.0774647887323944
 40
0.0774647887323944
 40
0.0774647887323944
 40
0.0845070422535211
 40
0.0845070422535211
 40
0.0845070422535211
 40
0.0845070422535211
 40
0.0915492957746479
 40
0.0915492957746479
 40
0.0915492957746479
 40
0.0915492957746479
 40
0.0985915492957746
 40
0.0985915492957746
 40
0.0985915492957746
 40
0.0985915492957746
 40
0.1056338028169014
 40
0.1056338028169014
 40
0.1056338028169014
 40
0.1056338028169014
 40
0.1126760563380282
 40
0.1126760563380282
 40
0.1126760563380282
 40
0.1126760563380282
 40
0.1197183098591549
 40
0.1197183098591549
 40
0.1197183098591549
 40
0.1197183098591549
 40
0.1267605633802817
 40
0.1267605633802817
 40
0.1267605633802817
 40
0.1267605633802817
 40
0.1338028169014084
 40
0.1338028169014084
 40
0.1338028169014084
 40
0.1338028169014084
 40
0.1408450704225352
 40
0.1408450704225352
 40
0.1408450704225352
 40
0.1408450704225352
 40
0.147887323943662
 40
0.147887323943662
 40
0.147887323943662
 40
0.147887323943662
 40
0.1549295774647887
 40
0.1549295774647887
 40
0.1549295774647887
 40
0.1549295774647887
 40
0.1619718309859155
 40
0.1619718309859155
 40
0.1619718309859155
 40
0.1619718309859155
 40
0.1690140845070423
 40
0.1690140845070423
 40
0.1690140845070423
 40
0.1690140845070423
 40
0.176056338028169
 40
0.176056338028169
 40
0.176056338028169
 40
0.176056338028169
 40
0.1830985915492958
 40
0.1830985915492958
 40
0.1830985915492958
 40
0.1830985915492958
 40
0.1901408450704225
 40
0.1901408450704225
 40
0.1901408450704225
 40
0.1901408450704225
 40
0.1971830985915493
 40
0.1971830985915493
 40
0.1971830985915493
 40
0.1971830985915493
 40
0.2042253521126761
 40
0.2042253521126761
 40
0.2042253521126761
 40
0.2042253521126761
 40
0.2112676056338028
 40
0.2112676056338028
 40
0.2112676056338028
 40
0.2112676056338028
 40
0.2183098591549296
 40
0.2183098591549296
 40
0.2183098591549296
 40
0.2183098591549296
 40
0.2253521126760563
 40
0.2253521126760563
 40
0.2253521126760563
 40
0.2253521126760563
 40
0.2323943661971831
 40
0.2323943661971831
 40
0.2323943661971831
 40
0.2323943661971831
 40
0.2394366197183098
 40
0.2394366197183098
 40
0.2394366197183098
 40
0.2394366197183098
 40
0.2464788732394366
 40
0.2464788732394366
 40
0.2464788732394366
 40
0.2464788732394366
 40
0.2535211267605634
 40
0.2535211267605634
 40
0.2535211267605634
 40
0.2535211267605634
 40
0.2605633802816901
 40
0.2605633802816901
 40
0.2605633802816901
 40
0.2605633802816901
 40
0.2676056338028169
 40
0.2676056338028169
 40
0.2676056338028169
 40
0.2676056338028169
 40
0.2746478873239437
 40
0.2746478873239437
 40
0.2746478873239437
 40
0.2746478873239437
 40
0.2816901408450704
 40
0.2816901408450704
 40
0.2816901408450704
 40
0.2816901408450704
 40
0.2887323943661972
 40
0.2887323943661972
 40
0.2887323943661972
 40
0.2887323943661972
 40
0.2957746478873239
 40
0.2957746478873239
 40
0.2957746478873239
 40
0.2957746478873239
 40
0.3028169014084507
 40
0.3028169014084507
 40
0.3028169014084507
 40
0.3028169014084507
 40
0.3098591549295774
 40
0.3098591549295774
 40
0.3098591549295774
 40
0.3098591549295774
 40
0.3169014084507042
 40
0.3169014084507042
 40
0.3169014084507042
 40
0.3169014084507042
 40
0.323943661971831
 40
0.323943661971831
 40
0.323943661971831
 40
0.323943661971831
 40
0.3309859154929577
 40
0.3309859154929577
 40
0.3309859154929577
 40
0.3309859154929577
 40
0.3380281690140845
 40
0.3380281690140845
 40
0.3380281690140845
 40
0.3380281690140845
 40
0.3450704225352113
 40
0.3450704225352113
 40
0.3450704225352113
 40
0.3450704225352113
 40
0.352112676056338
 40
0.352112676056338
 40
0.352112676056338
 40
0.352112676056338
 40
0.3591549295774648
 40
0.3591549295774648
 40
0.3591549295774648
 40
0.3591549295774648
 40
0.3661971830985916
 40
0.3661971830985916
 40
0.3661971830985916
 40
0.3661971830985916
 40
0.3732394366197183
 40
0.3732394366197183
 40
0.3732394366197183
 40
0.3732394366197183
 40
0.3802816901408451
 40
0.3802816901408451
 40
0.3802816901408451
 40
0.3802816901408451
 40
0.3873239436619718
 40
0.3873239436619718
 40
0.3873239436619718
 40
0.3873239436619718
 40
0.3943661971830986
 40
0.3943661971830986
 40
0.3943661971830986
 40
0.3943661971830986
 40
0.4014084507042254
 40
0.4014084507042254
 40
0.4014084507042254
 40
0.4014084507042254
 40
0.4084507042253521
 40
0.4084507042253521
 40
0.4084507042253521
 40
0.4084507042253521
 40
0.4154929577464789
 40
0.4154929577464789
 40
0.4154929577464789
 40
0.4154929577464789
 40
0.4225352112676056
 40
0.4225352112676056
 40
0.4225352112676056
 40
0.4225352112676056
 40
0.4295774647887324
 40
0.4295774647887324
 40
0.4295774647887324
 40
0.4295774647887324
 40
0.4366197183098591
 40
0.4366197183098591
 40
0.4366197183098591
 40
0.4366197183098591
 40
0.4436619718309859
 40
0.4436619718309859
 40
0.4436619718309859
 40
0.4436619718309859
 40
0.4507042253521127
 40
0.4507042253521127
 40
0.4507042253521127
 40
0.4507042253521127
 40
0.4577464788732394
 40
0.4577464788732394
 40
0.4577464788732394
 40
0.4577464788732394
 40
0.4647887323943662
 40
0.4647887323943662
 40
0.4647887323943662
 40
0.4647887323943662
 40
0.4718309859154929
 40
0.4718309859154929
 40
0.4718309859154929
 40
0.4718309859154929
 40
0.4788732394366197
 40
0.4788732394366197
 40
0.4788732394366197
 40
0.4788732394366197
 40
0.4859154929577465
 40
0.4859154929577465
 40
0.4859154929577465
 40
0.4859154929577465
 40
0.4929577464788732
 40
0.4929577464788732
 40
0.4929577464788732
 40
0.4929577464788732
 40
0.5
 40
0.5
 40
0.5
 40
0.5
 40
0.5070422535211268
 40
0.5070422535211268
 40
0.5070422535211268
 40
0.5070422535211268
 40
0.5140845070422535
 40
0.5140845070422535
 40
0.5140845070422535
 40
0.5140845070422535
 40
0.5211267605633803
 40
0.5211267605633803
 40
0.5211267605633803
 40
0.5211267605633803
 40
0.528169014084507
 40
0.528169014084507
 40
0.528169014084507
 40
0.528169014084507
 40
0.5352112676056338
 40
0.5352112676056338
 40
0.5352112676056338
 40
0.5352112676056338
 40
0.5422535211267606
 40
0.5422535211267606
 40
0.5422535211267606
 40
0.5422535211267606
 40
0.5492957746478874
 40
0.5492957746478874
 40
0.5492957746478874
 40
0.5492957746478874
 40
0.5563380281690141
 40
0.5563380281690141
 40
0.5563380281690141
 40
0.5563380281690141
 40
0.5633802816901409
 40
0.5633802816901409
 40
0.5633802816901409
 40
0.5633802816901409
 40
0.5704225352112676
 40
0.5704225352112676
 40
0.5704225352112676
 40
0.5704225352112676
 40
0.5774647887323944
 40
0.5774647887323944
 40
0.5774647887323944
 40
0.5774647887323944
 40
0.5845070422535211
 40
0.5845070422535211
 40
0.5845070422535211
 40
0.5845070422535211
 40
0.5915492957746479
 40
0.5915492957746479
 40
0.5915492957746479
 40
0.5915492957746479
 40
0.5985915492957746
 40
0.5985915492957746
 40
0.5985915492957746
 40
0.5985915492957746
 40
0.6056338028169014
 40
0.6056338028169014
 40
0.6056338028169014
 40
0.6056338028169014
 40
0.6126760563380281
 40
0.6126760563380281
 40
0.6126760563380281
 40
0.6126760563380281
 40
0.6197183098591549
 40
0.6197183098591549
 40
0.6197183098591549
 40
0.6197183098591549
 40
0.6267605633802817
 40
0.6267605633802817
 40
0.6267605633802817
 40
0.6267605633802817
 40
0.6338028169014085
 40
0.6338028169014085
 40
0.6338028169014085
 40
0.6338028169014085
 40
0.6408450704225352
 40
0.6408450704225352
 40
0.6408450704225352
 40
0.6408450704225352
 40
0.647887323943662
 40
0.647887323943662
 40
0.647887323943662
 40
0.647887323943662
 40
0.6549295774647887
 40
0.6549295774647887
 40
0.6549295774647887
 40
0.6549295774647887
 40
0.6619718309859155
 40
0.6619718309859155
 40
0.6619718309859155
 40
0.6619718309859155
 40
0.6690140845070423
 40
0.6690140845070423
 40
0.6690140845070423
 40
0.6690140845070423
 40
0.676056338028169
 40
0.676056338028169
 40
0.676056338028169
 40
0.676056338028169
 40
0.6830985915492958
 40
0.6830985915492958
 40
0.6830985915492958
 40
0.6830985915492958
 40
0.6901408450704225
 40
0.6901408450704225
 40
0.6901408450704225
 40
0.6901408450704225
 40
0.6971830985915493
 40
0.6971830985915493
 40
0.6971830985915493
 40
0.6971830985915493
 40
0.704225352112676
 40
0.704225352112676
 40
0.704225352112676
 40
0.704225352112676
 40
0.7112676056338029
 40
0.7112676056338029
 40
0.7112676056338029
 40
0.7112676056338029
 40
0.7183098591549296
 40
0.7183098591549296
 40
0.7183098591549296
 40
0.7183098591549296
 40
0.7253521126760564
 40
0.7253521126760564
 40
0.7253521126760564
 40
0.7253521126760564
 40
0.7323943661971831
 40
0.7323943661971831
 40
0.7323943661971831
 40
0.7323943661971831
 40
0.7394366197183099
 40
0.7394366197183099
 40
0.7394366197183099
 40
0.7394366197183099
 40
0.7464788732394366
 40
0.7464788732394366
 40
0.7464788732394366
 40
0.7464788732394366
 40
0.7535211267605634
 40
0.7535211267605634
 40
0.7535211267605634
 40
0.7535211267605634
 40
0.7605633802816901
 40
0.7605633802816901
 40
0.7605633802816901
 40
0.7605633802816901
 40
0.7676056338028169
 40
0.7676056338028169
 40
0.7676056338028169
 40
0.7676056338028169
 40
0.7746478873239436
 40
0.7746478873239436
 40
0.7746478873239436
 40
0.7746478873239436
 40
0.7816901408450704
 40
0.7816901408450704
 40
0.7816901408450704
 40
0.7816901408450704
 40
0.7887323943661971
 40
0.7887323943661971
 40
0.7887323943661971
 40
0.7887323943661971
 40
0.795774647887324
 40
0.795774647887324
 40
0.795774647887324
 40
0.795774647887324
 40
0.8028169014084507
 40
0.8028169014084507
 40
0.8028169014084507
 40
0.8028169014084507
 40
0.8098591549295775
 40
0.8098591549295775
 40
0.8098591549295775
 40
0.8098591549295775
 40
0.8169014084507042
 40
0.8169014084507042
 40
0.8169014084507042
 40
0.8169014084507042
 40
0.823943661971831
 40
0.823943661971831
 40
0.823943661971831
 40
0.823943661971831
 40
0.8309859154929577
 40
0.8309859154929577
 40
0.8309859154929577
 40
0.8309859154929577
 40
0.8380281690140845
 40
0.8380281690140845
 40
0.8380281690140845
 40
0.8380281690140845
 40
0.8450704225352113
 40
0.8450704225352113
 40
0.8450704225352113
 40
0.8450704225352113
 40
0.852112676056338
 40
0.852112676056338
 40
0.852112676056338
 40
0.852112676056338
 40
0.8591549295774648
 40
0.8591549295774648
 40
0.8591549295774648
 40
0.8591549295774648
 40
0.8661971830985915
 40
0.8661971830985915
 40
0.8661971830985915
 40
0.8661971830985915
 40
0.8732394366197183
 40
0.8732394366197183
 40
0.8732394366197183
 40
0.8732394366197183
 40
0.8802816901408451
 40
0.8802816901408451
 40
0.8802816901408451
 40
0.8802816901408451
 40
0.8873239436619719
 40
0.8873239436619719
 40
0.8873239436619719
 40
0.8873239436619719
 40
0.8943661971830986
 40
0.8943661971830986
 40
0.8943661971830986
 40
0.8943661971830986
 40
0.9014084507042254
 40
0.9014084507042254
 40
0.9014084507042254
 40
0.9014084507042254
 40
0.9084507042253521
 40
0.9084507042253521
 40
0.9084507042253521
 40
0.9084507042253521
 40
0.9154929577464789
 40
0.9154929577464789
 40
0.9154929577464789
 40
0.9154929577464789
 40
0.9225352112676056
 40
0.9225352112676056
 40
0.9225352112676056
 40
0.9225352112676056
 40
0.9295774647887324
 40
0.9295774647887324
 40
0.9295774647887324
 40
0.9295774647887324
 40
0.9366197183098591
 40
0.9366197183098591
 40
0.9366197183098591
 40
0.9366197183098591
 40
0.9436619718309859
 40
0.9436619718309859
 40
0.9436619718309859
 40
0.9436619718309859
 40
0.9507042253521126
 40
0.9507042253521126
 40
0.9507042253521126
 40
0.9507042253521126
 40
0.9577464788732394
 40
0.9577464788732394
 40
0.9577464788732394
 40
0.9577464788732394
 40
0.9647887323943662
 40
0.9647887323943662
 40
0.9647887323943662
 40
0.9647887323943662
 40
0.971830985915493
 40
0.971830985915493
 40
0.971830985915493
 40
0.971830985915493
 40
0.9788732394366197
 40
0.9788732394366197
 40
0.9788732394366197
 40
0.9788732394366197
 40
0.9859154929577465
 40
0.9859154929577465
 40
0.9859154929577465
 40
0.9859154929577465
 40
1.0
 40
1.0
 40
1.0
 40
1.0
 10
-12.31398
 20
-9.26332
 30
0.0
 10
-12.19479
 20
-9.20561
 30
0.0
 10
-12.12654
 20
-9.32522
 30
0.0
 10
-12.13668
 20
-9.42973
 30
0.0
 10
-12.13668
 20
-9.42973
 30
0.0
 10
-12.05751
 20
-9.42372
 30
0.0
 10
-11.97014
 20
-9.49822
 30
0.0
 10
-11.90036
 20
-9.54504
 30
0.0
 10
-11.90036
 20
-9.54504
 30
0.0
 10
-11.91996
 20
-9.3012
 30
0.0
 10
-11.42113
 20
-9.51974
 30
0.0
 10
-11.29597
 20
-9.4963
 30
0.0
 10
-11.29597
 20
-9.4963
 30
0.0
 10
-11.25504
 20
-9.48863
 30
0.0
 10
-11.21047
 20
-9.49419
 30
0.0
 10
-11.18044
 20
-9.52003
 30
0.0
 10
-11.18044
 20
-9.52003
 30
0.0
 10
-11.18044
 20
-9.52003
 30
0.0
 10
-11.18045
 20
-9.52004
 30
0.0
 10
-11.18045
 20
-9.52004
 30
0.0
 10
-11.18045
 20
-9.52004
 30
0.0
 10
-11.11145
 20
-9.57918
 30
0.0
 10
-11.13386
 20
-9.72214
 30
0.0
 10
-11.12721
 20
-9.80295
 30
0.0
 10
-11.12721
 20
-9.80295
 30
0.0
 10
-11.12721
 20
-9.80295
 30
0.0
 10
-11.12195
 20
-9.87177
 30
0.0
 10
-11.12195
 20
-9.87177
 30
0.0
 10
-11.12195
 20
-9.87177
 30
0.0
 10
-11.12195
 20
-9.87177
 30
0.0
 10
-11.12206
 20
-9.87178
 30
0.0
 10
-11.12206
 20
-9.87178
 30
0.0
 10
-11.12206
 20
-9.87178
 30
0.0
 10
-11.10351
 20
-10.1633
 30
0.0
 10
-11.20589
 20
-10.01412
 30
0.0
 10
-11.56182
 20
-10.1293
 30
0.0
 10
-11.56182
 20
-10.1293
 30
0.0
 10
-11.46697
 20
-10.21147
 30
0.0
 10
-11.30083
 20
-10.18917
 30
0.0
 10
-11.18275
 20
-10.18917
 30
0.0
 10
-11.18275
 20
-10.18917
 30
0.0
 10
-11.18275
 20
-10.18917
 30
0.0
 10
-11.18275
 20
-10.18936
 30
0.0
 10
-11.18275
 20
-10.18936
 30
0.0
 10
-11.18275
 20
-10.18936
 30
0.0
 10
-11.08573
 20
-10.18936
 30
0.0
 10
-11.12303
 20
-10.43638
 30
0.0
 10
-11.14287
 20
-10.45886
 30
0.0
 10
-11.14287
 20
-10.45886
 30
0.0
 10
-11.18099
 20
-10.50206
 30
0.0
 10
-11.55607
 20
-10.53214
 30
0.0
 10
-11.6426
 20
-10.54051
 30
0.0
 10
-11.6426
 20
-10.54051
 30
0.0
 10
-11.68839
 20
-10.54494
 30
0.0
 10
-11.72399
 20
-10.53578
 30
0.0
 10
-11.76904
 20
-10.53201
 30
0.0
 10
-11.76904
 20
-10.53201
 30
0.0
 10
-11.76904
 20
-10.53201
 30
0.0
 10
-11.76903
 20
-10.5319
 30
0.0
 10
-11.76903
 20
-10.5319
 30
0.0
 10
-11.76903
 20
-10.5319
 30
0.0
 10
-11.85457
 20
-10.52499
 30
0.0
 10
-11.7951
 20
-10.21343
 30
0.0
 10
-11.76706
 20
-10.16935
 30
0.0
 10
-11.76706
 20
-10.16935
 30
0.0
 10
-11.80776
 20
-10.15987
 30
0.0
 10
-11.83371
 20
-10.13149
 30
0.0
 10
-11.84762
 20
-10.08936
 30
0.0
 10
-11.84762
 20
-10.08936
 30
0.0
 10
-11.86977
 20
-10.12636
 30
0.0
 10
-11.89619
 20
-10.16924
 30
0.0
 10
-11.92532
 20
-10.20988
 30
0.0
 10
-11.92532
 20
-10.20988
 30
0.0
 10
-11.92532
 20
-10.20988
 30
0.0
 10
-11.92541
 20
-10.20981
 30
0.0
 10
-11.92541
 20
-10.20981
 30
0.0
 10
-11.92541
 20
-10.20981
 30
0.0
 10
-11.92541
 20
-10.20981
 30
0.0
 10
-11.97323
 20
-10.23407
 30
0.0
 10
-11.97323
 20
-10.23407
 30
0.0
 10
-11.97323
 20
-10.23407
 30
0.0
 10
-11.95573
 20
-10.27471
 30
0.0
 10
-12.03373
 20
-10.49843
 30
0.0
 10
-12.16431
 20
-10.5374
 30
0.0
 10
-12.16431
 20
-10.5374
 30
0.0
 10
-12.16431
 20
-10.5374
 30
0.0
 10
-12.16433
 20
-10.53734
 30
0.0
 10
-12.16433
 20
-10.53734
 30
0.0
 10
-12.16433
 20
-10.53734
 30
0.0
 10
-12.16433
 20
-10.53734
 30
0.0
 10
-12.17836
 20
-10.54021
 30
0.0
 10
-12.17836
 20
-10.54021
 30
0.0
 10
-12.17836
 20
-10.54021
 30
0.0
 10
-12.21623
 20
-10.5442
 30
0.0
 10
-12.27904
 20
-10.52898
 30
0.0
 10
-12.29146
 20
-10.48728
 30
0.0
 10
-12.29146
 20
-10.48728
 30
0.0
 10
-12.29146
 20
-10.48728
 30
0.0
 10
-12.29141
 20
-10.48727
 30
0.0
 10
-12.29141
 20
-10.48727
 30
0.0
 10
-12.29141
 20
-10.48727
 30
0.0
 10
-12.29141
 20
-10.48727
 30
0.0
 10
-12.2938
 20
-10.47296
 30
0.0
 10
-12.2938
 20
-10.47296
 30
0.0
 10
-12.2938
 20
-10.47296
 30
0.0
 10
-12.324
 20
-10.50115
 30
0.0
 10
-12.36233
 20
-10.51927
 30
0.0
 10
-12.40252
 20
-10.51505
 30
0.0
 10
-12.40252
 20
-10.51505
 30
0.0
 10
-12.37303
 20
-10.66009
 30
0.0
 10
-12.68813
 20
-10.7485
 30
0.0
 10
-12.82277
 20
-10.8081
 30
0.0
 10
-12.82277
 20
-10.8081
 30
0.0
 10
-12.9351
 20
-10.85782
 30
0.0
 10
-13.28278
 20
-11.06097
 30
0.0
 10
-13.4269
 20
-10.97664
 30
0.0
 10
-13.4269
 20
-10.97664
 30
0.0
 10
-13.48569
 20
-11.08212
 30
0.0
 10
-13.67224
 20
-11.04737
 30
0.0
 10
-13.9468
 20
-11.18621
 30
0.0
 10
-13.9468
 20
-11.18621
 30
0.0
 10
-13.98319
 20
-11.20461
 30
0.0
 10
-14.04479
 20
-11.20916
 30
0.0
 10
-14.08276
 20
-11.18982
 30
0.0
 10
-14.08276
 20
-11.18982
 30
0.0
 10
-14.11656
 20
-11.29777
 30
0.0
 10
-14.27414
 20
-11.29191
 30
0.0
 10
-14.36477
 20
-11.29936
 30
0.0
 10
-14.36477
 20
-11.29936
 30
0.0
 10
-14.36477
 20
-11.29936
 30
0.0
 10
-14.39668
 20
-11.30207
 30
0.0
 10
-14.39668
 20
-11.30207
 30
0.0
 10
-14.39668
 20
-11.30207
 30
0.0
 10
-14.39668
 20
-11.30207
 30
0.0
 10
-14.3967
 20
-11.30188
 30
0.0
 10
-14.3967
 20
-11.30188
 30
0.0
 10
-14.3967
 20
-11.30188
 30
0.0
 10
-14.41261
 20
-11.30329
 30
0.0
 10
-14.42456
 20
-11.29952
 30
0.0
 10
-14.43431
 20
-11.29197
 30
0.0
 10
-14.43431
 20
-11.29197
 30
0.0
 10
-14.494
 20
-11.37001
 30
0.0
 10
-14.67442
 20
-11.35748
 30
0.0
 10
-14.75984
 20
-11.32946
 30
0.0
 10
-14.75984
 20
-11.32946
 30
0.0
 10
-14.75984
 20
-11.32946
 30
0.0
 10
-14.75983
 20
-11.32942
 30
0.0
 10
-14.75983
 20
-11.32942
 30
0.0
 10
-14.75983
 20
-11.32942
 30
0.0
 10
-14.84962
 20
-11.30016
 30
0.0
 10
-14.74244
 20
-11.16723
 30
0.0
 10
-14.68882
 20
-11.15773
 30
0.0
 10
-14.68882
 20
-11.15773
 30
0.0
 10
-14.31468
 20
-11.09147
 30
0.0
 10
-14.54974
 20
-11.12456
 30
0.0
 10
-14.37997
 20
-11.05165
 30
0.0
 10
-14.37997
 20
-11.05165
 30
0.0
 10
-14.29342
 20
-11.01448
 30
0.0
 10
-14.2045
 20
-11.00348
 30
0.0
 10
-14.11295
 20
-11.01787
 30
0.0
 10
-14.11295
 20
-11.01787
 30
0.0
 10
-14.10137
 20
-10.99919
 30
0.0
 10
-14.08531
 20
-10.98233
 30
0.0
 10
-14.06555
 20
-10.96816
 30
0.0
 10
-14.06555
 20
-10.96816
 30
0.0
 10
-14.06555
 20
-10.96816
 30
0.0
 10
-14.06551
 20
-10.96822
 30
0.0
 10
-14.06551
 20
-10.96822
 30
0.0
 10
-14.06551
 20
-10.96822
 30
0.0
 10
-14.06551
 20
-10.96822
 30
0.0
 10
-14.06301
 20
-10.96645
 30
0.0
 10
-14.06301
 20
-10.96645
 30
0.0
 10
-14.06301
 20
-10.96645
 30
0.0
 10
-14.06301
 20
-10.96645
 30
0.0
 10
-14.06297
 20
-10.9665
 30
0.0
 10
-14.06297
 20
-10.9665
 30
0.0
 10
-14.06297
 20
-10.9665
 30
0.0
 10
-13.97942
 20
-10.90682
 30
0.0
 10
-13.86061
 20
-10.90017
 30
0.0
 10
-13.76958
 20
-10.85828
 30
0.0
 10
-13.76958
 20
-10.85828
 30
0.0
 10
-13.76958
 20
-10.85828
 30
0.0
 10
-13.76954
 20
-10.85836
 30
0.0
 10
-13.76954
 20
-10.85836
 30
0.0
 10
-13.76954
 20
-10.85836
 30
0.0
 10
-13.76954
 20
-10.85836
 30
0.0
 10
-13.59645
 20
-10.75515
 30
0.0
 10
-13.59645
 20
-10.75515
 30
0.0
 10
-13.59645
 20
-10.75515
 30
0.0
 10
-13.59645
 20
-10.75515
 30
0.0
 10
-13.59635
 20
-10.75528
 30
0.0
 10
-13.59635
 20
-10.75528
 30
0.0
 10
-13.59635
 20
-10.75528
 30
0.0
 10
-13.58124
 20
-10.74398
 30
0.0
 10
-13.56723
 20
-10.73768
 30
0.0
 10
-13.54977
 20
-10.72982
 30
0.0
 10
-13.54977
 20
-10.72982
 30
0.0
 10
-13.54977
 20
-10.72982
 30
0.0
 10
-13.54974
 20
-10.7299
 30
0.0
 10
-13.54974
 20
-10.7299
 30
0.0
 10
-13.54974
 20
-10.7299
 30
0.0
 10
-13.54974
 20
-10.7299
 30
0.0
 10
-13.52486
 20
-10.71824
 30
0.0
 10
-13.52486
 20
-10.71824
 30
0.0
 10
-13.52486
 20
-10.71824
 30
0.0
 10
-13.52486
 20
-10.71824
 30
0.0
 10
-13.52484
 20
-10.71827
 30
0.0
 10
-13.52484
 20
-10.71827
 30
0.0
 10
-13.52484
 20
-10.71827
 30
0.0
 10
-13.50537
 20
-10.70867
 30
0.0
 10
-13.48177
 20
-10.71333
 30
0.0
 10
-13.46728
 20
-10.728
 30
0.0
 10
-13.46728
 20
-10.728
 30
0.0
 10
-13.3992
 20
-10.669
 30
0.0
 10
-13.11413
 20
-10.64504
 30
0.0
 10
-12.76417
 20
-10.42226
 30
0.0
 10
-12.76417
 20
-10.42226
 30
0.0
 10
-12.95981
 20
-10.43679
 30
0.0
 10
-13.50443
 20
-10.7686
 30
0.0
 10
-13.65622
 20
-10.62125
 30
0.0
 10
-13.65622
 20
-10.62125
 30
0.0
 10
-13.66235
 20
-10.63393
 30
0.0
 10
-13.67152
 20
-10.64601
 30
0.0
 10
-13.68204
 20
-10.65598
 30
0.0
 10
-13.68204
 20
-10.65598
 30
0.0
 10
-13.68204
 20
-10.65598
 30
0.0
 10
-13.68214
 20
-10.65588
 30
0.0
 10
-13.68214
 20
-10.65588
 30
0.0
 10
-13.68214
 20
-10.65588
 30
0.0
 10
-13.73281
 20
-10.70655
 30
0.0
 10
-14.39236
 20
-10.78614
 30
0.0
 10
-14.48409
 20
-10.77029
 30
0.0
 10
-14.48409
 20
-10.77029
 30
0.0
 10
-14.50175
 20
-10.76724
 30
0.0
 10
-14.51797
 20
-10.76169
 30
0.0
 10
-14.53076
 20
-10.75362
 30
0.0
 10
-14.53076
 20
-10.75362
 30
0.0
 10
-14.55206
 20
-10.77603
 30
0.0
 10
-14.5859
 20
-10.79549
 30
0.0
 10
-14.61285
 20
-10.79249
 30
0.0
 10
-14.61285
 20
-10.79249
 30
0.0
 10
-14.61285
 20
-10.79249
 30
0.0
 10
-14.61284
 20
-10.79243
 30
0.0
 10
-14.61284
 20
-10.79243
 30
0.0
 10
-14.61284
 20
-10.79243
 30
0.0
 10
-14.73063
 20
-10.78227
 30
0.0
 10
-14.83833
 20
-10.80566
 30
0.0
 10
-14.95189
 20
-10.83638
 30
0.0
 10
-14.95189
 20
-10.83638
 30
0.0
 10
-14.95189
 20
-10.83638
 30
0.0
 10
-14.95189
 20
-10.83637
 30
0.0
 10
-14.95189
 20
-10.83637
 30
0.0
 10
-14.95189
 20
-10.83637
 30
0.0
 10
-14.989
 20
-10.84688
 30
0.0
 10
-15.03684
 20
-10.85648
 30
0.0
 10
-15.07057
 20
-10.83926
 30
0.0
 10
-15.07057
 20
-10.83926
 30
0.0
 10
-15.12484
 20
-10.88806
 30
0.0
 10
-15.54247
 20
-10.93572
 30
0.0
 10
-15.51071
 20
-10.8138
 30
0.0
 10
-15.51071
 20
-10.8138
 30
0.0
 10
-15.4611
 20
-10.62334
 30
0.0
 10
-15.40458
 20
-10.70809
 30
0.0
 10
-15.26429
 20
-10.66184
 30
0.0
 10
-15.26429
 20
-10.66184
 30
0.0
 10
-15.22497
 20
-10.64888
 30
0.0
 10
-15.1731
 20
-10.63238
 30
0.0
 10
-15.12985
 20
-10.63729
 30
0.0
 10
-15.12985
 20
-10.63729
 30
0.0
 10
-15.09561
 20
-10.55717
 30
0.0
 10
-14.68608
 20
-10.54076
 30
0.0
 10
-14.57128
 20
-10.52147
 30
0.0
 10
-14.57128
 20
-10.52147
 30
0.0
 10
-14.57128
 20
-10.52147
 30
0.0
 10
-14.54417
 20
-10.52352
 30
0.0
 10
-14.54417
 20
-10.52352
 30
0.0
 10
-14.54417
 20
-10.52352
 30
0.0
 10
-14.51601
 20
-10.48731
 30
0.0
 10
-14.4287
 20
-10.47922
 30
0.0
 10
-14.38235
 20
-10.48546
 30
0.0
 10
-14.38235
 20
-10.48546
 30
0.0
 10
-14.38235
 20
-10.48546
 30
0.0
 10
-14.38235
 20
-10.48548
 30
0.0
 10
-14.38235
 20
-10.48548
 30
0.0
 10
-14.38235
 20
-10.48548
 30
0.0
 10
-14.379
 20
-10.48593
 30
0.0
 10
-14.37563
 20
-10.4864
 30
0.0
 10
-14.37095
 20
-10.48673
 30
0.0
 10
-14.37095
 20
-10.48673
 30
0.0
 10
-14.37095
 20
-10.48673
 30
0.0
 10
-14.37095
 20
-10.48677
 30
0.0
 10
-14.37095
 20
-10.48677
 30
0.0
 10
-14.37095
 20
-10.48677
 30
0.0
 10
-14.2593
 20
-10.49308
 30
0.0
 10
-14.15403
 20
-10.45203
 30
0.0
 10
-14.04885
 20
-10.411
 30
0.0
 10
-14.04885
 20
-10.411
 30
0.0
 10
-14.04885
 20
-10.411
 30
0.0
 10
-14.04882
 20
-10.41107
 30
0.0
 10
-14.04882
 20
-10.41107
 30
0.0
 10
-14.04882
 20
-10.41107
 30
0.0
 10
-13.95713
 20
-10.37096
 30
0.0
 10
-13.68889
 20
-10.22177
 30
0.0
 10
-13.6547
 20
-10.36671
 30
0.0
 10
-13.6547
 20
-10.36671
 30
0.0
 10
-13.50944
 20
-10.25355
 30
0.0
 10
-13.13283
 20
-10.35595
 30
0.0
 10
-12.82852
 20
-10.13808
 30
0.0
 10
-12.82852
 20
-10.13808
 30
0.0
 10
-13.0921
 20
-10.07432
 30
0.0
 10
-13.43479
 20
-10.22354
 30
0.0
 10
-13.70056
 20
-10.28199
 30
0.0
 10
-13.70056
 20
-10.28199
 30
0.0
 10
-13.70056
 20
-10.28199
 30
0.0
 10
-13.70059
 20
-10.28184
 30
0.0
 10
-13.70059
 20
-10.28184
 30
0.0
 10
-13.70059
 20
-10.28184
 30
0.0
 10
-13.76451
 20
-10.29586
 30
0.0
 10
-13.81054
 20
-10.2793
 30
0.0
 10
-13.84531
 20
-10.23941
 30
0.0
 10
-13.84531
 20
-10.23941
 30
0.0
 10
-13.92904
 20
-10.32623
 30
0.0
 10
-14.24964
 20
-10.18253
 30
0.0
 10
-14.71994
 20
-10.29481
 30
0.0
 10
-14.71994
 20
-10.29481
 30
0.0
 10
-14.76329
 20
-10.30516
 30
0.0
 10
-14.80868
 20
-10.2842
 30
0.0
 10
-14.80868
 20
-10.2369
 30
0.0
 10
-14.80868
 20
-10.2369
 30
0.0
 10
-14.84041
 20
-10.25725
 30
0.0
 10
-15.14563
 20
-10.2476
 30
0.0
 10
-15.35503
 20
-10.31428
 30
0.0
 10
-15.35503
 20
-10.31428
 30
0.0
 10
-15.35503
 20
-10.31428
 30
0.0
 10
-15.40619
 20
-10.31683
 30
0.0
 10
-15.40619
 20
-10.31683
 30
0.0
 10
-15.40619
 20
-10.31683
 30
0.0
 10
-15.40619
 20
-10.31683
 30
0.0
 10
-15.45181
 20
-10.30351
 30
0.0
 10
-15.45181
 20
-10.30351
 30
0.0
 10
-15.45181
 20
-10.30351
 30
0.0
 10
-15.45181
 20
-10.30351
 30
0.0
 10
-15.4518
 20
-10.30349
 30
0.0
 10
-15.4518
 20
-10.30349
 30
0.0
 10
-15.4518
 20
-10.30349
 30
0.0
 10
-15.50262
 20
-10.287
 30
0.0
 10
-15.66349
 20
-10.3069
 30
0.0
 10
-15.72248
 20
-10.31478
 30
0.0
 10
-15.72248
 20
-10.31478
 30
0.0
 10
-15.72248
 20
-10.31478
 30
0.0
 10
-15.72248
 20
-10.31475
 30
0.0
 10
-15.72248
 20
-10.31475
 30
0.0
 10
-15.72248
 20
-10.31475
 30
0.0
 10
-15.76966
 20
-10.3222
 30
0.0
 10
-15.96803
 20
-10.27856
 30
0.0
 10
-15.87792
 20
-10.15749
 30
0.0
 10
-15.87792
 20
-10.15749
 30
0.0
 10
-15.80437
 20
-10.05867
 30
0.0
 10
-15.66747
 20
-10.09328
 30
0.0
 10
-15.56649
 20
-10.03213
 30
0.0
 10
-15.56649
 20
-10.03213
 30
0.0
 10
-15.54456
 20
-10.01885
 30
0.0
 10
-15.5122
 20
-10.01756
 30
0.0
 10
-15.48335
 20
-10.02386
 30
0.0
 10
-15.48335
 20
-10.02386
 30
0.0
 10
-15.46067
 20
-9.99858
 30
0.0
 10
-15.39171
 20
-9.99206
 30
0.0
 10
-15.36112
 20
-9.99652
 30
0.0
 10
-15.36112
 20
-9.99652
 30
0.0
 10
-15.36112
 20
-9.99652
 30
0.0
 10
-15.36112
 20
-9.99655
 30
0.0
 10
-15.36112
 20
-9.99655
 30
0.0
 10
-15.36112
 20
-9.99655
 30
0.0
 10
-15.09562
 20
-10.03506
 30
0.0
 10
-14.919
 20
-9.89274
 30
0.0
 10
-14.80535
 20
-9.96463
 30
0.0
 10
-14.80535
 20
-9.96463
 30
0.0
 10
-14.76722
 20
-9.86573
 30
0.0
 10
-14.43151
 20
-10.02721
 30
0.0
 10
-14.07534
 20
-9.90363
 30
0.0
 10
-14.07534
 20
-9.90363
 30
0.0
 10
-14.07534
 20
-9.90363
 30
0.0
 10
-13.99978
 20
-9.88382
 30
0.0
 10
-13.99978
 20
-9.88382
 30
0.0
 10
-13.99978
 20
-9.88382
 30
0.0
 10
-13.99978
 20
-9.88382
 30
0.0
 10
-13.99976
 20
-9.88398
 30
0.0
 10
-13.99976
 20
-9.88398
 30
0.0
 10
-13.99976
 20
-9.88398
 30
0.0
 10
-13.92371
 20
-9.87226
 30
0.0
 10
-13.87465
 20
-9.87469
 30
0.0
 10
-13.8531
 20
-9.92962
 30
0.0
 10
-13.8531
 20
-9.92962
 30
0.0
 10
-13.68248
 20
-9.74896
 30
0.0
 10
-13.48371
 20
-10.03175
 30
0.0
 10
-12.97387
 20
-9.89333
 30
0.0
 10
-12.97387
 20
-9.89333
 30
0.0
 10
-12.97387
 20
-9.89333
 30
0.0
 10
-12.97386
 20
-9.89338
 30
0.0
 10
-12.97386
 20
-9.89338
 30
0.0
 10
-12.97386
 20
-9.89338
 30
0.0
 10
-12.89976
 20
-9.87388
 30
0.0
 10
-12.82849
 20
-9.831
 30
0.0
 10
-12.7549
 20
-9.80835
 30
0.0
 10
-12.7549
 20
-9.80835
 30
0.0
 10
-12.96921
 20
-9.68729
 30
0.0
 10
-13.37878
 20
-9.71389
 30
0.0
 10
-13.60317
 20
-9.77023
 30
0.0
 10
-13.60317
 20
-9.77023
 30
0.0
 10
-13.70577
 20
-9.79599
 30
0.0
 10
-13.79329
 20
-9.76341
 30
0.0
 10
-13.84847
 20
-9.68137
 30
0.0
 10
-13.84847
 20
-9.68137
 30
0.0
 10
-13.89027
 20
-9.74961
 30
0.0
 10
-13.99991
 20
-9.71581
 30
0.0
 10
-14.07114
 20
-9.69775
 30
0.0
 10
-14.07114
 20
-9.69775
 30
0.0
 10
-14.07114
 20
-9.69775
 30
0.0
 10
-14.07113
 20
-9.6977
 30
0.0
 10
-14.07113
 20
-9.6977
 30
0.0
 10
-14.07113
 20
-9.6977
 30
0.0
 10
-14.29759
 20
-9.64029
 30
0.0
 10
-14.65618
 20
-9.69148
 30
0.0
 10
-14.69009
 20
-9.66628
 30
0.0
 10
-14.69009
 20
-9.66628
 30
0.0
 10
-14.73706
 20
-9.72579
 30
0.0
 10
-14.89544
 20
-9.5977
 30
0.0
 10
-15.07462
 20
-9.63191
 30
0.0
 10
-15.07462
 20
-9.63191
 30
0.0
 10
-15.07462
 20
-9.63191
 30
0.0
 10
-15.07463
 20
-9.63187
 30
0.0
 10
-15.07463
 20
-9.63187
 30
0.0
 10
-15.07463
 20
-9.63187
 30
0.0
 10
-15.10878
 20
-9.63906
 30
0.0
 10
-15.15788
 20
-9.63312
 30
0.0
 10
-15.18837
 20
-9.6129
 30
0.0
 10
-15.18837
 20
-9.6129
 30
0.0
 10
-15.24557
 20
-9.67789
 30
0.0
 10
-15.70339
 20
-9.67893
 30
0.0
 10
-15.68092
 20
-9.50949
 30
0.0
 10
-15.68092
 20
-9.50949
 30
0.0
 10
-15.66672
 20
-9.40242
 30
0.0
 10
-15.24694
 20
-9.37426
 30
0.0
 10
-15.20162
 20
-9.41346
 30
0.0
 10
-15.20162
 20
-9.41346
 30
0.0
 10
-15.19666
 20
-9.41775
 30
0.0
 10
-15.19243
 20
-9.42236
 30
0.0
 10
-15.18882
 20
-9.42739
 30
0.0
 10
-15.18882
 20
-9.42739
 30
0.0
 10
-15.11853
 20
-9.374
 30
0.0
 10
-14.81104
 20
-9.4006
 30
0.0
 10
-14.70762
 20
-9.40059
 30
0.0
 10
-14.70762
 20
-9.40059
 30
0.0
 10
-14.70762
 20
-9.40059
 30
0.0
 10
-14.70762
 20
-9.40066
 30
0.0
 10
-14.70762
 20
-9.40066
 30
0.0
 10
-14.70762
 20
-9.40066
 30
0.0
 10
-14.68812
 20
-9.40076
 30
0.0
 10
-14.67083
 20
-9.41213
 30
0.0
 10
-14.66274
 20
-9.42869
 30
0.0
 10
-14.66274
 20
-9.42869
 30
0.0
 10
-14.61634
 20
-9.38881
 30
0.0
 10
-14.57728
 20
-9.3855
 30
0.0
 10
-14.52087
 20
-9.3855
 30
0.0
 10
-14.52087
 20
-9.3855
 30
0.0
 10
-14.52087
 20
-9.3855
 30
0.0
 10
-14.52087
 20
-9.38559
 30
0.0
 10
-14.52087
 20
-9.38559
 30
0.0
 10
-14.52087
 20
-9.38559
 30
0.0
 10
-14.3469
 20
-9.38559
 30
0.0
 10
-14.30741
 20
-9.42862
 30
0.0
 10
-14.07394
 20
-9.3999
 30
0.0
 10
-14.07394
 20
-9.3999
 30
0.0
 10
-14.01506
 20
-9.39266
 30
0.0
 10
-13.85085
 20
-9.35218
 30
0.0
 10
-13.8328
 20
-9.44616
 30
0.0
 10
-13.8328
 20
-9.44616
 30
0.0
 10
-13.58539
 20
-9.22636
 30
0.0
 10
-13.62536
 20
-9.48963
 30
0.0
 10
-12.72815
 20
-9.46379
 30
0.0
 10
-12.72815
 20
-9.46379
 30
0.0
 10
-12.70847
 20
-9.46322
 30
0.0
 10
-12.68671
 20
-9.45983
 30
0.0
 10
-12.66471
 20
-9.45613
 30
0.0
 10
-12.66471
 20
-9.45613
 30
0.0
 10
-12.91239
 20
-9.23814
 30
0.0
 10
-12.75659
 20
-9.24482
 30
0.0
 10
-13.21306
 20
-9.24482
 30
0.0
 10
-13.21306
 20
-9.24482
 30
0.0
 10
-13.21306
 20
-9.24482
 30
0.0
 10
-13.21306
 20
-9.24471
 30
0.0
 10
-13.21306
 20
-9.24471
 30
0.0
 10
-13.21306
 20
-9.24471
 30
0.0
 10
-13.28195
 20
-9.24471
 30
0.0
 10
-13.25983
 20
-9.15717
 30
0.0
 10
-13.25549
 20
-9.11216
 30
0.0
 10
-13.25549
 20
-9.11216
 30
0.0
 10
-13.40115
 20
-9.1769
 30
0.0
 10
-13.42542
 20
-9.01604
 30
0.0
 10
-13.75593
 20
-9.01546
 30
0.0
 10
-13.75593
 20
-9.01546
 30
0.0
 10
-13.79807
 20
-9.01539
 30
0.0
 10
-13.89823
 20
-9.00267
 30
0.0
 10
-13.89848
 20
-8.94623
 30
0.0
 10
-13.89848
 20
-8.94623
 30
0.0
 10
-13.91636
 20
-8.95024
 30
0.0
 10
-13.9359
 20
-8.94909
 30
0.0
 10
-13.95714
 20
-8.9411
 30
0.0
 10
-13.95714
 20
-8.9411
 30
0.0
 10
-13.95714
 20
-8.9411
 30
0.0
 10
-13.95711
 20
-8.94103
 30
0.0
 10
-13.95711
 20
-8.94103
 30
0.0
 10
-13.95711
 20
-8.94103
 30
0.0
 10
-14.07204
 20
-8.89845
 30
0.0
 10
-14.16475
 20
-8.82187
 30
0.0
 10
-14.26918
 20
-8.75498
 30
0.0
 10
-14.26918
 20
-8.75498
 30
0.0
 10
-14.26918
 20
-8.75498
 30
0.0
 10
-14.26912
 20
-8.75489
 30
0.0
 10
-14.26912
 20
-8.75489
 30
0.0
 10
-14.26912
 20
-8.75489
 30
0.0
 10
-14.29875
 20
-8.73587
 30
0.0
 10
-14.30824
 20
-8.70282
 30
0.0
 10
-14.32702
 20
-8.67221
 30
0.0
 10
-14.32702
 20
-8.67221
 30
0.0
 10
-14.32702
 20
-8.67221
 30
0.0
 10
-14.32697
 20
-8.67218
 30
0.0
 10
-14.32697
 20
-8.67218
 30
0.0
 10
-14.32697
 20
-8.67218
 30
0.0
 10
-14.37392
 20
-8.59549
 30
0.0
 10
-14.22221
 20
-8.57412
 30
0.0
 10
-14.17814
 20
-8.58381
 30
0.0
 10
-14.17814
 20
-8.58381
 30
0.0
 10
-14.17814
 20
-8.58381
 30
0.0
 10
-14.17815
 20
-8.58385
 30
0.0
 10
-14.17815
 20
-8.58385
 30
0.0
 10
-14.17815
 20
-8.58385
 30
0.0
 10
-14.09015
 20
-8.60311
 30
0.0
 10
-13.81255
 20
-8.63982
 30
0.0
 10
-13.78519
 20
-8.7365
 30
0.0
 10
-13.78519
 20
-8.7365
 30
0.0
 10
-13.70387
 20
-8.69514
 30
0.0
 10
-13.47532
 20
-8.82165
 30
0.0
 10
-13.18873
 20
-8.83026
 30
0.0
 10
-13.18873
 20
-8.83026
 30
0.0
 10
-13.15244
 20
-8.83135
 30
0.0
 10
-13.10727
 20
-8.8675
 30
0.0
 10
-13.11193
 20
-8.90436
 30
0.0
 10
-13.11193
 20
-8.90436
 30
0.0
 10
-13.00004
 20
-8.88524
 30
0.0
 10
-12.82071
 20
-9.02047
 30
0.0
 10
-12.49079
 20
-9.09547
 30
0.0
 10
-12.49079
 20
-9.09547
 30
0.0
 10
-12.42371
 20
-9.11072
 30
0.0
 10
-12.35409
 20
-9.17713
 30
0.0
 10
-12.32411
 20
-9.23677
 30
0.0
 10
-12.32411
 20
-9.23677
 30
0.0
 10
-12.32411
 20
-9.23677
 30
0.0
 10
-12.32419
 20
-9.23681
 30
0.0
 10
-12.32419
 20
-9.23681
 30
0.0
 10
-12.32419
 20
-9.23681
 30
0.0
 10
-12.32419
 20
-9.23681
 30
0.0
 10
-12.31398
 20
-9.26332
 30
0.0
 10
-12.31398
 20
-9.26332
 30
0.0
  0
ENDSEC
  0
SECTION
  2
OBJECTS
  0
DICTIONARY
  5
C
330
0
100
AcDbDictionary
281
     1
  3
ACAD_GROUP
350
D
  3
ACAD_LAYOUT
350
1A
  3
ACAD_MATERIAL
350
3B
  3
ACAD_MLEADERSTYLE
350
64
  3
ACAD_MLINESTYLE
350
17
  3
ACAD_PLOTSETTINGS
350
19
  3
ACAD_PLOTSTYLENAME
350
E
  3
ACAD_TABLESTYLE
350
63
  3
ACAD_VISUALSTYLE
350
2A
  0
DICTIONARY
  5
D
102
{ACAD_REACTORS
330
C
102
}
330
C
100
AcDbDictionary
281
     1
  0
DICTIONARY
  5
1A
102
{ACAD_REACTORS
330
C
102
}
330
C
100
AcDbDictionary
281
     1
  3
Layout1
350
1E
  3
Layout2
350
26
  3
Model
350
22
  0
DICTIONARY
  5
3B
102
{ACAD_REACTORS
330
C
102
}
330
C
100
AcDbDictionary
281
     1
  3
ByBlock
350
3D
  3
ByLayer
350
3C
  3
Global
350
3E
  0
DICTIONARY
  5
64
102
{ACAD_REACTORS
330
C
102
}
330
C
100
AcDbDictionary
281
     1
  0
DICTIONARY
  5
17
102
{ACAD_REACTORS
330
C
102
}
330
C
100
AcDbDictionary
281
     1
  3
Standard
350
18
  0
DICTIONARY
  5
19
102
{ACAD_REACTORS
330
C
102
}
330
C
100
AcDbDictionary
281
     1
  0
ACDBDICTIONARYWDFLT
  5
E
102
{ACAD_REACTORS
330
C
102
}
330
C
100
AcDbDictionary
281
     1
  3
Normal
350
F
100
AcDbDictionaryWithDefault
340
F
  0
DICTIONARY
  5
63
102
{ACAD_REACTORS
330
C
102
}
330
C
100
AcDbDictionary
281
     1
  0
DICTIONARY
  5
2A
102
{ACAD_REACTORS
330
C
102
}
330
C
100
AcDbDictionary
281
     1
  3
2dWireframe
350
2F
  3
3D Hidden
350
31
  3
3dWireframe
350
30
  3
Basic
350
32
  3
Brighten
350
36
  3
ColorChange
350
3A
  3
Conceptual
350
34
  3
Dim
350
35
  3
Facepattern
350
39
  3
Flat
350
2B
  3
FlatWithEdges
350
2C
  3
Gouraud
350
2D
  3
GouraudWithEdges
350
2E
  3
Linepattern
350
38
  3
Realistic
350
33
  3
Thicken
350
37
  0
LAYOUT
  5
1E
102
{ACAD_REACTORS
330
1A
102
}
330
1A
100
AcDbPlotSettings
  1

  2
none_device
  4

  6

 40
0.0
 41
0.0
 42
0.0
 43
0.0
 44
0.0
 45
0.0
 46
0.0
 47
0.0
 48
0.0
 49
0.0
140
0.0
141
0.0
142
1.0
143
1.0
 70
   688
 72
     0
 73
     0
 74
     5
  7

 75
    16
 76
     0
 77
     2
 78
   300
147
1.0
148
0.0
149
0.0
100
AcDbLayout
  1
Layout1
 70
     1
 71
     1
 10
0.0
 20
0.0
 11
12.0
 21
9.0
 12
0.0
 22
0.0
 32
0.0
 14
1.000000000000000E+20
 24
1.000000000000000E+20
 34
1.000000000000000E+20
 15
-1.000000000000000E+20
 25
-1.000000000000000E+20
 35
-1.000000000000000E+20
146
0.0
 13
0.0
 23
0.0
 33
0.0
 16
1.0
 26
0.0
 36
0.0
 17
0.0
 27
1.0
 37
0.0
 76
     0
330
1B
  0
LAYOUT
  5
26
102
{ACAD_REACTORS
330
1A
102
}
330
1A
100
AcDbPlotSettings
  1

  2
none_device
  4

  6

 40
0.0
 41
0.0
 42
0.0
 43
0.0
 44
0.0
 45
0.0
 46
0.0
 47
0.0
 48
0.0
 49
0.0
140
0.0
141
0.0
142
1.0
143
1.0
 70
   688
 72
     0
 73
     0
 74
     5
  7

 75
    16
 76
     0
 77
     2
 78
   300
147
1.0
148
0.0
149
0.0
100
AcDbLayout
  1
Layout2
 70
     1
 71
     2
 10
0.0
 20
0.0
 11
0.0
 21
0.0
 12
0.0
 22
0.0
 32
0.0
 14
0.0
 24
0.0
 34
0.0
 15
0.0
 25
0.0
 35
0.0
146
0.0
 13
0.0
 23
0.0
 33
0.0
 16
1.0
 26
0.0
 36
0.0
 17
0.0
 27
1.0
 37
0.0
 76
     0
330
23
  0
LAYOUT
  5
22
102
{ACAD_REACTORS
330
1A
102
}
330
1A
100
AcDbPlotSettings
  1

  2
none_device
  4

  6

 40
0.0
 41
0.0
 42
0.0
 43
0.0
 44
0.0
 45
0.0
 46
0.0
 47
0.0
 48
0.0
 49
0.0
140
0.0
141
0.0
142
1.0
143
1.0
 70
  1712
 72
     0
 73
     0
 74
     0
  7

 75
     0
 76
     0
 77
     2
 78
   300
147
1.0
148
0.0
149
0.0
100
AcDbLayout
  1
Model
 70
     1
 71
     0
 10
0.0
 20
0.0
 11
12.0
 21
9.0
 12
0.0
 22
0.0
 32
0.0
 14
-15.90111
 24
-11.35106
 34
0.0
 15
-4.09726
 25
-8.57616
 35
0.0
146
0.0
 13
0.0
 23
0.0
 33
0.0
 16
1.0
 26
0.0
 36
0.0
 17
0.0
 27
1.0
 37
0.0
 76
     0
330
1F
331
29
  0
MATERIAL
  5
3D
102
{ACAD_REACTORS
330
3B
102
}
330
3B
100
AcDbMaterial
  1
ByBlock
 72
     1
 94
      127
  0
MATERIAL
  5
3C
102
{ACAD_REACTORS
330
3B
102
}
330
3B
100
AcDbMaterial
  1
ByLayer
 72
     1
 94
      127
  0
MATERIAL
  5
3E
102
{ACAD_REACTORS
330
3B
102
}
330
3B
100
AcDbMaterial
  1
Global
 72
     1
 94
      127
  0
MLINESTYLE
  5
18
102
{ACAD_REACTORS
330
17
102
}
330
17
100
AcDbMlineStyle
  2
Standard
 70
     0
  3

 62
   256
 51
90.0
 52
90.0
 71
     2
 49
0.5
 62
   256
  6
BYLAYER
 49
-0.5
 62
   256
  6
BYLAYER
  0
ACDBPLACEHOLDER
  5
F
102
{ACAD_REACTORS
330
E
102
}
330
E
  0
VISUALSTYLE
  5
2F
102
{ACAD_REACTORS
330
2A
102
}
102
{ACAD_XDICTIONARY
360
4B
102
}
330
2A
100
AcDbVisualStyle
  2
2dWireframe
 70
     4
 71
     0
 72
     2
 73
     0
 90
        0
 40
-0.6
 41
-30.0
 62
     5
 63
     7
421
 16777215
 74
     1
 91
        4
 64
     7
 65
   257
 75
     1
175
     1
 42
1.0
 92
        0
 66
   257
 43
1.0
 76
     1
 77
     6
 78
     2
 67
     7
 79
     5
170
     0
171
     0
290
     0
174
     0
 93
        1
 44
0.0
173
     0
291
     0
 45
0.0
  0
VISUALSTYLE
  5
31
102
{ACAD_REACTORS
330
2A
102
}
102
{ACAD_XDICTIONARY
360
4F
102
}
330
2A
100
AcDbVisualStyle
  2
3D Hidden
 70
     6
 71
     1
 72
     2
 73
     2
 90
        0
 40
-0.6
 41
-30.0
 62
     5
 63
     7
421
 16777215
 74
     2
 91
        2
 64
     7
 65
   257
 75
     2
175
     1
 42
40.0
 92
        0
 66
   257
 43
1.0
 76
     1
 77
     6
 78
     2
 67
     7
 79
     3
170
     0
171
     0
290
     0
174
     0
 93
        1
 44
0.0
173
     0
291
     0
 45
0.0
  0
VISUALSTYLE
  5
30
102
{ACAD_REACTORS
330
2A
102
}
102
{ACAD_XDICTIONARY
360
4D
102
}
330
2A
100
AcDbVisualStyle
  2
3dWireframe
 70
     5
 71
     0
 72
     2
 73
     0
 90
        0
 40
-0.6
 41
-30.0
 62
     5
 63
     7
421
 16777215
 74
     1
 91
        4
 64
     7
 65
   257
 75
     1
175
     1
 42
1.0
 92
        0
 66
   257
 43
1.0
 76
     1
 77
     6
 78
     2
 67
     7
 79
     5
170
     0
171
     0
290
     0
174
     0
 93
        1
 44
0.0
173
     0
291
     0
 45
0.0
  0
VISUALSTYLE
  5
32
102
{ACAD_REACTORS
330
2A
102
}
102
{ACAD_XDICTIONARY
360
51
102
}
330
2A
100
AcDbVisualStyle
  2
Basic
 70
     7
 71
     1
 72
     0
 73
     1
 90
        0
 40
-0.6
 41
-30.0
 62
     5
 63
     7
421
 16777215
 74
     0
 91
        4
 64
     7
 65
   257
 75
     1
175
     1
 42
1.0
 92
        8
 66
     7
 43
1.0
 76
     1
 77
     6
 78
     2
 67
     7
 79
     5
170
     0
171
     0
290
     0
174
     0
 93
        1
 44
0.0
173
     0
291
     1
 45
0.0
  0
VISUALSTYLE
  5
36
102
{ACAD_REACTORS
330
2A
102
}
102
{ACAD_XDICTIONARY
360
59
102
}
330
2A
100
AcDbVisualStyle
  2
Brighten
 70
    12
 71
     2
 72
     2
 73
     0
 90
        0
 40
-0.6
 41
-30.0
 62
     5
 63
     7
421
 16777215
 74
     1
 91
        4
 64
     7
 65
   257
 75
     1
175
     1
 42
1.0
 92
        8
 66
     7
 43
1.0
 76
     1
 77
     6
 78
     2
 67
     7
 79
     5
170
     0
171
     0
290
     0
174
     0
 93
        1
 44
50.0
173
     0
291
     1
 45
0.0
  0
VISUALSTYLE
  5
3A
102
{ACAD_REACTORS
330
2A
102
}
102
{ACAD_XDICTIONARY
360
61
102
}
330
2A
100
AcDbVisualStyle
  2
ColorChange
 70
    16
 71
     2
 72
     2
 73
     3
 90
        0
 40
-0.6
 41
-30.0
 62
     5
 63
     8
421
  8421504
 74
     1
 91
        4
 64
     7
 65
   257
 75
     1
175
     1
 42
1.0
 92
        8
 66
     8
424
  8421504
 43
1.0
 76
     1
 77
     6
 78
     2
 67
     7
 79
     5
170
     0
171
     0
290
     0
174
     0
 93
        1
 44
0.0
173
     0
291
     1
 45
0.0
  0
VISUALSTYLE
  5
34
102
{ACAD_REACTORS
330
2A
102
}
102
{ACAD_XDICTIONARY
360
55
102
}
330
2A
100
AcDbVisualStyle
  2
Conceptual
 70
     9
 71
     3
 72
     2
 73
     0
 90
        0
 40
-0.6
 41
-30.0
 62
     5
 63
     7
421
 16777215
 74
     2
 91
        2
 64
     7
 65
   257
 75
     1
175
     1
 42
40.0
 92
        8
 66
     7
 43
1.0
 76
     1
 77
     6
 78
     2
 67
     7
 79
     3
170
     0
171
     0
290
     0
174
     0
 93
        1
 44
0.0
173
     0
291
     0
 45
0.0
  0
VISUALSTYLE
  5
35
102
{ACAD_REACTORS
330
2A
102
}
102
{ACAD_XDICTIONARY
360
57
102
}
330
2A
100
AcDbVisualStyle
  2
Dim
 70
    11
 71
     2
 72
     2
 73
     0
 90
        0
 40
-0.6
 41
-30.0
 62
     5
 63
     7
421
 16777215
 74
     1
 91
        4
 64
     7
 65
   257
 75
     1
175
     1
 42
1.0
 92
        8
 66
     7
 43
1.0
 76
     1
 77
     6
 78
     2
 67
     7
 79
     5
170
     0
171
     0
290
     0
174
     0
 93
        1
 44
-50.0
173
     0
291
     1
 45
0.0
  0
VISUALSTYLE
  5
39
102
{ACAD_REACTORS
330
2A
102
}
102
{ACAD_XDICTIONARY
360
5F
102
}
330
2A
100
AcDbVisualStyle
  2
Facepattern
 70
    15
 71
     2
 72
     2
 73
     0
 90
        0
 40
-0.6
 41
-30.0
 62
     5
 63
     7
421
 16777215
 74
     1
 91
        4
 64
     7
 65
   257
 75
     1
175
     1
 42
1.0
 92
        8
 66
     7
 43
1.0
 76
     1
 77
     6
 78
     2
 67
     7
 79
     5
170
     0
171
     0
290
     0
174
     0
 93
        1
 44
0.0
173
     0
291
     1
 45
0.0
  0
VISUALSTYLE
  5
2B
102
{ACAD_REACTORS
330
2A
102
}
102
{ACAD_XDICTIONARY
360
43
102
}
330
2A
100
AcDbVisualStyle
  2
Flat
 70
     0
 71
     2
 72
     1
 73
     1
 90
        2
 40
-0.6
 41
30.0
 62
     5
 63
     7
421
 16777215
 74
     0
 91
        4
 64
     7
 65
   257
 75
     1
175
     1
 42
1.0
 92
        8
 66
     7
 43
1.0
 76
     1
 77
     6
 78
     2
 67
     7
 79
     5
170
     0
171
     0
290
     0
174
     0
 93
       13
 44
0.0
173
     0
291
     1
 45
0.0
  0
VISUALSTYLE
  5
2C
102
{ACAD_REACTORS
330
2A
102
}
102
{ACAD_XDICTIONARY
360
45
102
}
330
2A
100
AcDbVisualStyle
  2
FlatWithEdges
 70
     1
 71
     2
 72
     1
 73
     1
 90
        2
 40
-0.6
 41
30.0
 62
     5
 63
     7
421
 16777215
 74
     1
 91
        4
 64
     7
 65
   257
 75
     1
175
     1
 42
1.0
 92
        0
 66
   257
 43
1.0
 76
     1
 77
     6
 78
     2
 67
     7
 79
     5
170
     0
171
     0
290
     0
174
     0
 93
       13
 44
0.0
173
     0
291
     1
 45
0.0
  0
VISUALSTYLE
  5
2D
102
{ACAD_REACTORS
330
2A
102
}
102
{ACAD_XDICTIONARY
360
47
102
}
330
2A
100
AcDbVisualStyle
  2
Gouraud
 70
     2
 71
     2
 72
     2
 73
     1
 90
        2
 40
-0.6
 41
30.0
 62
     5
 63
     7
421
 16777215
 74
     0
 91
        4
 64
     7
 65
   257
 75
     1
175
     1
 42
1.0
 92
        0
 66
     7
 43
1.0
 76
     1
 77
     6
 78
     2
 67
     7
 79
     5
170
     0
171
     0
290
     0
174
     0
 93
       13
 44
0.0
173
     0
291
     1
 45
0.0
  0
VISUALSTYLE
  5
2E
102
{ACAD_REACTORS
330
2A
102
}
102
{ACAD_XDICTIONARY
360
49
102
}
330
2A
100
AcDbVisualStyle
  2
GouraudWithEdges
 70
     3
 71
     2
 72
     2
 73
     1
 90
        2
 40
-0.6
 41
30.0
 62
     5
 63
     7
421
 16777215
 74
     1
 91
        4
 64
     7
 65
   257
 75
     1
175
     1
 42
1.0
 92
        0
 66
   257
 43
1.0
 76
     1
 77
     6
 78
     2
 67
     7
 79
     5
170
     0
171
     0
290
     0
174
     0
 93
       13
 44
0.0
173
     0
291
     1
 45
0.0
  0
VISUALSTYLE
  5
38
102
{ACAD_REACTORS
330
2A
102
}
102
{ACAD_XDICTIONARY
360
5D
102
}
330
2A
100
AcDbVisualStyle
  2
Linepattern
 70
    14
 71
     2
 72
     2
 73
     0
 90
        0
 40
-0.6
 41
-30.0
 62
     5
 63
     7
421
 16777215
 74
     1
 91
        4
 64
     7
 65
   257
 75
     7
175
     7
 42
1.0
 92
        8
 66
     7
 43
1.0
 76
     1
 77
     6
 78
     2
 67
     7
 79
     5
170
     0
171
     0
290
     0
174
     0
 93
        1
 44
0.0
173
     0
291
     1
 45
0.0
  0
VISUALSTYLE
  5
33
102
{ACAD_REACTORS
330
2A
102
}
102
{ACAD_XDICTIONARY
360
53
102
}
330
2A
100
AcDbVisualStyle
  2
Realistic
 70
     8
 71
     2
 72
     2
 73
     0
 90
        0
 40
-0.6
 41
-30.0
 62
     5
 63
     7
421
 16777215
 74
     1
 91
        0
 64
     7
 65
   257
 75
     1
175
     1
 42
1.0
 92
        8
 66
     8
424
  7895160
 43
1.0
 76
     1
 77
     6
 78
     2
 67
     7
 79
     5
170
     0
171
     0
290
     0
174
     0
 93
       13
 44
0.0
173
     0
291
     0
 45
0.0
  0
VISUALSTYLE
  5
37
102
{ACAD_REACTORS
330
2A
102
}
102
{ACAD_XDICTIONARY
360
5B
102
}
330
2A
100
AcDbVisualStyle
  2
Thicken
 70
    13
 71
     2
 72
     2
 73
     0
 90
        0
 40
-0.6
 41
-30.0
 62
     5
 63
     7
421
 16777215
 74
     1
 91
        4
 64
     7
 65
   257
 75
     1
175
     1
 42
1.0
 92
       12
 66
     7
 43
1.0
 76
     1
 77
     6
 78
     2
 67
     7
 79
     5
170
     0
171
     0
290
     0
174
     0
 93
        1
 44
0.0
173
     0
291
     1
 45
0.0
  0
DICTIONARY
  5
4B
330
2F
100
AcDbDictionary
280
     1
281
     1
  3
ACAD_XREC_ROUNDTRIP
360
4C
  0
DICTIONARY
  5
4F
330
31
100
AcDbDictionary
280
     1
281
     1
  3
ACAD_XREC_ROUNDTRIP
360
50
  0
DICTIONARY
  5
4D
330
30
100
AcDbDictionary
280
     1
281
     1
  3
ACAD_XREC_ROUNDTRIP
360
4E
  0
DICTIONARY
  5
51
330
32
100
AcDbDictionary
280
     1
281
     1
  3
ACAD_XREC_ROUNDTRIP
360
52
  0
DICTIONARY
  5
59
330
36
100
AcDbDictionary
280
     1
281
     1
  3
ACAD_XREC_ROUNDTRIP
360
5A
  0
DICTIONARY
  5
61
330
3A
100
AcDbDictionary
280
     1
281
     1
  3
ACAD_XREC_ROUNDTRIP
360
62
  0
DICTIONARY
  5
55
330
34
100
AcDbDictionary
280
     1
281
     1
  3
ACAD_XREC_ROUNDTRIP
360
56
  0
DICTIONARY
  5
57
330
35
100
AcDbDictionary
280
     1
281
     1
  3
ACAD_XREC_ROUNDTRIP
360
58
  0
DICTIONARY
  5
5F
330
39
100
AcDbDictionary
280
     1
281
     1
  3
ACAD_XREC_ROUNDTRIP
360
60
  0
DICTIONARY
  5
43
330
2B
100
AcDbDictionary
280
     1
281
     1
  3
ACAD_XREC_ROUNDTRIP
360
44
  0
DICTIONARY
  5
45
330
2C
100
AcDbDictionary
280
     1
281
     1
  3
ACAD_XREC_ROUNDTRIP
360
46
  0
DICTIONARY
  5
47
330
2D
100
AcDbDictionary
280
     1
281
     1
  3
ACAD_XREC_ROUNDTRIP
360
48
  0
DICTIONARY
  5
49
330
2E
100
AcDbDictionary
280
     1
281
     1
  3
ACAD_XREC_ROUNDTRIP
360
4A
  0
DICTIONARY
  5
5D
330
38
100
AcDbDictionary
280
     1
281
     1
  3
ACAD_XREC_ROUNDTRIP
360
5E
  0
DICTIONARY
  5
53
330
33
100
AcDbDictionary
280
     1
281
     1
  3
ACAD_XREC_ROUNDTRIP
360
54
  0
DICTIONARY
  5
5B
330
37
100
AcDbDictionary
280
     1
281
     1
  3
ACAD_XREC_ROUNDTRIP
360
5C
  0
XRECORD
  5
4C
102
{ACAD_REACTORS
330
4B
102
}
330
4B
100
AcDbXrecord
280
     1
102
RTVSPropertyOp0
 70
     1
102
RTVSPropertyOp1
 70
     1
102
RTVSPropertyOp2
 70
     1
102
RTVSPropertyOp3
 70
     1
102
RTVSPropertyOp4
 70
     1
102
RTVSPropertyOp5
 70
     1
102
RTVSPropertyOp6
 70
     1
102
RTVSPropertyOp7
 70
     1
102
RTVSPropertyOp8
 70
     1
102
RTVSPropertyOp9
 70
     1
102
RTVSPropertyOp10
 70
     1
102
RTVSPropertyOp11
 70
     1
102
RTVSPropertyOp12
 70
     1
102
RTVSPropertyOp13
 70
     1
102
RTVSPropertyOp14
 70
     1
102
RTVSPropertyOp15
 70
     1
102
RTVSPropertyOp16
 70
     1
102
RTVSPropertyOp17
 70
     1
102
RTVSPropertyOp18
 70
     1
102
RTVSPropertyOp19
 70
     1
102
RTVSPropertyOp20
 70
     1
102
RTVSPropertyOp21
 70
     1
102
RTVSPropertyOp22
 70
     1
102
RTVSPropertyOp23
 70
     1
102
RTVSPropertyOp24
 70
     1
102
RTVSPropertyOp25
 70
     1
102
RTVSPropertyOp26
 70
     1
102
RTVSPropertyOp27
 70
     1
102
RTVSPropertyOp28
 70
     1
102
RTVSPropertyOp29
 70
     1
102
RTVSPropertyOp30
 70
     1
102
RTVSPropertyOp31
 70
     1
102
RTVSPropertyOp32
 70
     1
  0
XRECORD
  5
50
102
{ACAD_REACTORS
330
4F
102
}
330
4F
100
AcDbXrecord
280
     1
102
RTVSPropertyOp0
 70
     1
102
RTVSPropertyOp1
 70
     1
102
RTVSPropertyOp2
 70
     1
102
RTVSPropertyOp3
 70
     1
102
RTVSPropertyOp4
 70
     1
102
RTVSPropertyOp5
 70
     1
102
RTVSPropertyOp6
 70
     1
102
RTVSPropertyOp7
 70
     1
102
RTVSPropertyOp8
 70
     1
102
RTVSPropertyOp9
 70
     1
102
RTVSPropertyOp10
 70
     1
102
RTVSPropertyOp11
 70
     1
102
RTVSPropertyOp12
 70
     1
102
RTVSPropertyOp13
 70
     1
102
RTVSPropertyOp14
 70
     1
102
RTVSPropertyOp15
 70
     1
102
RTVSPropertyOp16
 70
     1
102
RTVSPropertyOp17
 70
     1
102
RTVSPropertyOp18
 70
     1
102
RTVSPropertyOp19
 70
     1
102
RTVSPropertyOp20
 70
     1
102
RTVSPropertyOp21
 70
     1
102
RTVSPropertyOp22
 70
     1
102
RTVSPropertyOp23
 70
     1
102
RTVSPropertyOp24
 70
     1
102
RTVSPropertyOp25
 70
     1
102
RTVSPropertyOp26
 70
     1
102
RTVSPropertyOp27
 70
     1
102
RTVSPropertyOp28
 70
     1
102
RTVSPropertyOp29
 70
     1
102
RTVSPropertyOp30
 70
     1
102
RTVSPropertyOp31
 70
     1
102
RTVSPropertyOp32
 70
     1
  0
XRECORD
  5
4E
102
{ACAD_REACTORS
330
4D
102
}
330
4D
100
AcDbXrecord
280
     1
102
RTVSPropertyOp0
 70
     1
102
RTVSPropertyOp1
 70
     1
102
RTVSPropertyOp2
 70
     1
102
RTVSPropertyOp3
 70
     1
102
RTVSPropertyOp4
 70
     1
102
RTVSPropertyOp5
 70
     1
102
RTVSPropertyOp6
 70
     1
102
RTVSPropertyOp7
 70
     1
102
RTVSPropertyOp8
 70
     1
102
RTVSPropertyOp9
 70
     1
102
RTVSPropertyOp10
 70
     1
102
RTVSPropertyOp11
 70
     1
102
RTVSPropertyOp12
 70
     1
102
RTVSPropertyOp13
 70
     1
102
RTVSPropertyOp14
 70
     1
102
RTVSPropertyOp15
 70
     1
102
RTVSPropertyOp16
 70
     1
102
RTVSPropertyOp17
 70
     1
102
RTVSPropertyOp18
 70
     1
102
RTVSPropertyOp19
 70
     1
102
RTVSPropertyOp20
 70
     1
102
RTVSPropertyOp21
 70
     1
102
RTVSPropertyOp22
 70
     1
102
RTVSPropertyOp23
 70
     1
102
RTVSPropertyOp24
 70
     1
102
RTVSPropertyOp25
 70
     1
102
RTVSPropertyOp26
 70
     1
102
RTVSPropertyOp27
 70
     1
102
RTVSPropertyOp28
 70
     1
102
RTVSPropertyOp29
 70
     1
102
RTVSPropertyOp30
 70
     1
102
RTVSPropertyOp31
 70
     1
102
RTVSPropertyOp32
 70
     1
  0
XRECORD
  5
52
102
{ACAD_REACTORS
330
51
102
}
330
51
100
AcDbXrecord
280
     1
102
RTVSPropertyOp0
 70
     1
102
RTVSPropertyOp1
 70
     1
102
RTVSPropertyOp2
 70
     1
102
RTVSPropertyOp3
 70
     1
102
RTVSPropertyOp4
 70
     1
102
RTVSPropertyOp5
 70
     1
102
RTVSPropertyOp6
 70
     1
102
RTVSPropertyOp7
 70
     1
102
RTVSPropertyOp8
 70
     1
102
RTVSPropertyOp9
 70
     1
102
RTVSPropertyOp10
 70
     1
102
RTVSPropertyOp11
 70
     1
102
RTVSPropertyOp12
 70
     1
102
RTVSPropertyOp13
 70
     1
102
RTVSPropertyOp14
 70
     1
102
RTVSPropertyOp15
 70
     1
102
RTVSPropertyOp16
 70
     1
102
RTVSPropertyOp17
 70
     1
102
RTVSPropertyOp18
 70
     1
102
RTVSPropertyOp19
 70
     1
102
RTVSPropertyOp20
 70
     1
102
RTVSPropertyOp21
 70
     1
102
RTVSPropertyOp22
 70
     1
102
RTVSPropertyOp23
 70
     1
102
RTVSPropertyOp24
 70
     1
102
RTVSPropertyOp25
 70
     1
102
RTVSPropertyOp26
 70
     1
102
RTVSPropertyOp27
 70
     1
102
RTVSPropertyOp28
 70
     1
102
RTVSPropertyOp29
 70
     1
102
RTVSPropertyOp30
 70
     1
102
RTVSPropertyOp31
 70
     1
102
RTVSPropertyOp32
 70
     1
  0
XRECORD
  5
5A
102
{ACAD_REACTORS
330
59
102
}
330
59
100
AcDbXrecord
280
     1
102
RTVSPropertyOp0
 70
     1
102
RTVSPropertyOp1
 70
     1
102
RTVSPropertyOp2
 70
     1
102
RTVSPropertyOp3
 70
     1
102
RTVSPropertyOp4
 70
     1
102
RTVSPropertyOp5
 70
     1
102
RTVSPropertyOp6
 70
     1
102
RTVSPropertyOp7
 70
     1
102
RTVSPropertyOp8
 70
     1
102
RTVSPropertyOp9
 70
     1
102
RTVSPropertyOp10
 70
     1
102
RTVSPropertyOp11
 70
     1
102
RTVSPropertyOp12
 70
     1
102
RTVSPropertyOp13
 70
     1
102
RTVSPropertyOp14
 70
     1
102
RTVSPropertyOp15
 70
     1
102
RTVSPropertyOp16
 70
     1
102
RTVSPropertyOp17
 70
     1
102
RTVSPropertyOp18
 70
     1
102
RTVSPropertyOp19
 70
     1
102
RTVSPropertyOp20
 70
     1
102
RTVSPropertyOp21
 70
     1
102
RTVSPropertyOp22
 70
     1
102
RTVSPropertyOp23
 70
     1
102
RTVSPropertyOp24
 70
     1
102
RTVSPropertyOp25
 70
     1
102
RTVSPropertyOp26
 70
     1
102
RTVSPropertyOp27
 70
     1
102
RTVSPropertyOp28
 70
     1
102
RTVSPropertyOp29
 70
     1
102
RTVSPropertyOp30
 70
     1
102
RTVSPropertyOp31
 70
     1
102
RTVSPropertyOp32
 70
     1
  0
XRECORD
  5
62
102
{ACAD_REACTORS
330
61
102
}
330
61
100
AcDbXrecord
280
     1
102
RTVSPropertyOp0
 70
     1
102
RTVSPropertyOp1
 70
     1
102
RTVSPropertyOp2
 70
     1
102
RTVSPropertyOp3
 70
     1
102
RTVSPropertyOp4
 70
     1
102
RTVSPropertyOp5
 70
     1
102
RTVSPropertyOp6
 70
     1
102
RTVSPropertyOp7
 70
     1
102
RTVSPropertyOp8
 70
     1
102
RTVSPropertyOp9
 70
     1
102
RTVSPropertyOp10
 70
     1
102
RTVSPropertyOp11
 70
     1
102
RTVSPropertyOp12
 70
     1
102
RTVSPropertyOp13
 70
     1
102
RTVSPropertyOp14
 70
     1
102
RTVSPropertyOp15
 70
     1
102
RTVSPropertyOp16
 70
     1
102
RTVSPropertyOp17
 70
     1
102
RTVSPropertyOp18
 70
     1
102
RTVSPropertyOp19
 70
     1
102
RTVSPropertyOp20
 70
     1
102
RTVSPropertyOp21
 70
     1
102
RTVSPropertyOp22
 70
     1
102
RTVSPropertyOp23
 70
     1
102
RTVSPropertyOp24
 70
     1
102
RTVSPropertyOp25
 70
     1
102
RTVSPropertyOp26
 70
     1
102
RTVSPropertyOp27
 70
     1
102
RTVSPropertyOp28
 70
     1
102
RTVSPropertyOp29
 70
     1
102
RTVSPropertyOp30
 70
     1
102
RTVSPropertyOp31
 70
     1
102
RTVSPropertyOp32
 70
     1
  0
XRECORD
  5
56
102
{ACAD_REACTORS
330
55
102
}
330
55
100
AcDbXrecord
280
     1
102
RTVSPropertyOp0
 70
     1
102
RTVSPropertyOp1
 70
     1
102
RTVSPropertyOp2
 70
     1
102
RTVSPropertyOp3
 70
     1
102
RTVSPropertyOp4
 70
     1
102
RTVSPropertyOp5
 70
     1
102
RTVSPropertyOp6
 70
     1
102
RTVSPropertyOp7
 70
     1
102
RTVSPropertyOp8
 70
     1
102
RTVSPropertyOp9
 70
     1
102
RTVSPropertyOp10
 70
     1
102
RTVSPropertyOp11
 70
     1
102
RTVSPropertyOp12
 70
     1
102
RTVSPropertyOp13
 70
     1
102
RTVSPropertyOp14
 70
     1
102
RTVSPropertyOp15
 70
     1
102
RTVSPropertyOp16
 70
     1
102
RTVSPropertyOp17
 70
     1
102
RTVSPropertyOp18
 70
     1
102
RTVSPropertyOp19
 70
     1
102
RTVSPropertyOp20
 70
     1
102
RTVSPropertyOp21
 70
     1
102
RTVSPropertyOp22
 70
     1
102
RTVSPropertyOp23
 70
     1
102
RTVSPropertyOp24
 70
     1
102
RTVSPropertyOp25
 70
     1
102
RTVSPropertyOp26
 70
     1
102
RTVSPropertyOp27
 70
     1
102
RTVSPropertyOp28
 70
     1
102
RTVSPropertyOp29
 70
     1
102
RTVSPropertyOp30
 70
     1
102
RTVSPropertyOp31
 70
     1
102
RTVSPropertyOp32
 70
     1
  0
XRECORD
  5
58
102
{ACAD_REACTORS
330
57
102
}
330
57
100
AcDbXrecord
280
     1
102
RTVSPropertyOp0
 70
     1
102
RTVSPropertyOp1
 70
     1
102
RTVSPropertyOp2
 70
     1
102
RTVSPropertyOp3
 70
     1
102
RTVSPropertyOp4
 70
     1
102
RTVSPropertyOp5
 70
     1
102
RTVSPropertyOp6
 70
     1
102
RTVSPropertyOp7
 70
     1
102
RTVSPropertyOp8
 70
     1
102
RTVSPropertyOp9
 70
     1
102
RTVSPropertyOp10
 70
     1
102
RTVSPropertyOp11
 70
     1
102
RTVSPropertyOp12
 70
     1
102
RTVSPropertyOp13
 70
     1
102
RTVSPropertyOp14
 70
     1
102
RTVSPropertyOp15
 70
     1
102
RTVSPropertyOp16
 70
     1
102
RTVSPropertyOp17
 70
     1
102
RTVSPropertyOp18
 70
     1
102
RTVSPropertyOp19
 70
     1
102
RTVSPropertyOp20
 70
     1
102
RTVSPropertyOp21
 70
     1
102
RTVSPropertyOp22
 70
     1
102
RTVSPropertyOp23
 70
     1
102
RTVSPropertyOp24
 70
     1
102
RTVSPropertyOp25
 70
     1
102
RTVSPropertyOp26
 70
     1
102
RTVSPropertyOp27
 70
     1
102
RTVSPropertyOp28
 70
     1
102
RTVSPropertyOp29
 70
     1
102
RTVSPropertyOp30
 70
     1
102
RTVSPropertyOp31
 70
     1
102
RTVSPropertyOp32
 70
     1
  0
XRECORD
  5
60
102
{ACAD_REACTORS
330
5F
102
}
330
5F
100
AcDbXrecord
280
     1
102
RTVSPropertyOp0
 70
     1
102
RTVSPropertyOp1
 70
     1
102
RTVSPropertyOp2
 70
     1
102
RTVSPropertyOp3
 70
     1
102
RTVSPropertyOp4
 70
     1
102
RTVSPropertyOp5
 70
     1
102
RTVSPropertyOp6
 70
     1
102
RTVSPropertyOp7
 70
     1
102
RTVSPropertyOp8
 70
     1
102
RTVSPropertyOp9
 70
     1
102
RTVSPropertyOp10
 70
     1
102
RTVSPropertyOp11
 70
     1
102
RTVSPropertyOp12
 70
     1
102
RTVSPropertyOp13
 70
     1
102
RTVSPropertyOp14
 70
     1
102
RTVSPropertyOp15
 70
     1
102
RTVSPropertyOp16
 70
     1
102
RTVSPropertyOp17
 70
     1
102
RTVSPropertyOp18
 70
     1
102
RTVSPropertyOp19
 70
     1
102
RTVSPropertyOp20
 70
     1
102
RTVSPropertyOp21
 70
     1
102
RTVSPropertyOp22
 70
     1
102
RTVSPropertyOp23
 70
     1
102
RTVSPropertyOp24
 70
     1
102
RTVSPropertyOp25
 70
     1
102
RTVSPropertyOp26
 70
     1
102
RTVSPropertyOp27
 70
     1
102
RTVSPropertyOp28
 70
     1
102
RTVSPropertyOp29
 70
     1
102
RTVSPropertyOp30
 70
     1
102
RTVSPropertyOp31
 70
     1
102
RTVSPropertyOp32
 70
     1
  0
XRECORD
  5
44
102
{ACAD_REACTORS
330
43
102
}
330
43
100
AcDbXrecord
280
     1
102
RTVSPropertyOp0
 70
     1
102
RTVSPropertyOp1
 70
     1
102
RTVSPropertyOp2
 70
     1
102
RTVSPropertyOp3
 70
     1
102
RTVSPropertyOp4
 70
     1
102
RTVSPropertyOp5
 70
     1
102
RTVSPropertyOp6
 70
     1
102
RTVSPropertyOp7
 70
     1
102
RTVSPropertyOp8
 70
     1
102
RTVSPropertyOp9
 70
     1
102
RTVSPropertyOp10
 70
     1
102
RTVSPropertyOp11
 70
     1
102
RTVSPropertyOp12
 70
     1
102
RTVSPropertyOp13
 70
     1
102
RTVSPropertyOp14
 70
     1
102
RTVSPropertyOp15
 70
     1
102
RTVSPropertyOp16
 70
     1
102
RTVSPropertyOp17
 70
     1
102
RTVSPropertyOp18
 70
     1
102
RTVSPropertyOp19
 70
     1
102
RTVSPropertyOp20
 70
     1
102
RTVSPropertyOp21
 70
     1
102
RTVSPropertyOp22
 70
     1
102
RTVSPropertyOp23
 70
     1
102
RTVSPropertyOp24
 70
     1
102
RTVSPropertyOp25
 70
     1
102
RTVSPropertyOp26
 70
     1
102
RTVSPropertyOp27
 70
     1
102
RTVSPropertyOp28
 70
     1
102
RTVSPropertyOp29
 70
     1
102
RTVSPropertyOp30
 70
     1
102
RTVSPropertyOp31
 70
     1
102
RTVSPropertyOp32
 70
     1
  0
XRECORD
  5
46
102
{ACAD_REACTORS
330
45
102
}
330
45
100
AcDbXrecord
280
     1
102
RTVSPropertyOp0
 70
     1
102
RTVSPropertyOp1
 70
     1
102
RTVSPropertyOp2
 70
     1
102
RTVSPropertyOp3
 70
     1
102
RTVSPropertyOp4
 70
     1
102
RTVSPropertyOp5
 70
     1
102
RTVSPropertyOp6
 70
     1
102
RTVSPropertyOp7
 70
     1
102
RTVSPropertyOp8
 70
     1
102
RTVSPropertyOp9
 70
     1
102
RTVSPropertyOp10
 70
     1
102
RTVSPropertyOp11
 70
     1
102
RTVSPropertyOp12
 70
     1
102
RTVSPropertyOp13
 70
     1
102
RTVSPropertyOp14
 70
     1
102
RTVSPropertyOp15
 70
     1
102
RTVSPropertyOp16
 70
     1
102
RTVSPropertyOp17
 70
     1
102
RTVSPropertyOp18
 70
     1
102
RTVSPropertyOp19
 70
     1
102
RTVSPropertyOp20
 70
     1
102
RTVSPropertyOp21
 70
     1
102
RTVSPropertyOp22
 70
     1
102
RTVSPropertyOp23
 70
     1
102
RTVSPropertyOp24
 70
     1
102
RTVSPropertyOp25
 70
     1
102
RTVSPropertyOp26
 70
     1
102
RTVSPropertyOp27
 70
     1
102
RTVSPropertyOp28
 70
     1
102
RTVSPropertyOp29
 70
     1
102
RTVSPropertyOp30
 70
     1
102
RTVSPropertyOp31
 70
     1
102
RTVSPropertyOp32
 70
     1
  0
XRECORD
  5
48
102
{ACAD_REACTORS
330
47
102
}
330
47
100
AcDbXrecord
280
     1
102
RTVSPropertyOp0
 70
     1
102
RTVSPropertyOp1
 70
     1
102
RTVSPropertyOp2
 70
     1
102
RTVSPropertyOp3
 70
     1
102
RTVSPropertyOp4
 70
     1
102
RTVSPropertyOp5
 70
     1
102
RTVSPropertyOp6
 70
     1
102
RTVSPropertyOp7
 70
     1
102
RTVSPropertyOp8
 70
     1
102
RTVSPropertyOp9
 70
     1
102
RTVSPropertyOp10
 70
     1
102
RTVSPropertyOp11
 70
     1
102
RTVSPropertyOp12
 70
     1
102
RTVSPropertyOp13
 70
     1
102
RTVSPropertyOp14
 70
     1
102
RTVSPropertyOp15
 70
     1
102
RTVSPropertyOp16
 70
     1
102
RTVSPropertyOp17
 70
     1
102
RTVSPropertyOp18
 70
     1
102
RTVSPropertyOp19
 70
     1
102
RTVSPropertyOp20
 70
     1
102
RTVSPropertyOp21
 70
     1
102
RTVSPropertyOp22
 70
     1
102
RTVSPropertyOp23
 70
     1
102
RTVSPropertyOp24
 70
     1
102
RTVSPropertyOp25
 70
     1
102
RTVSPropertyOp26
 70
     1
102
RTVSPropertyOp27
 70
     1
102
RTVSPropertyOp28
 70
     1
102
RTVSPropertyOp29
 70
     1
102
RTVSPropertyOp30
 70
     1
102
RTVSPropertyOp31
 70
     1
102
RTVSPropertyOp32
 70
     1
  0
XRECORD
  5
4A
102
{ACAD_REACTORS
330
49
102
}
330
49
100
AcDbXrecord
280
     1
102
RTVSPropertyOp0
 70
     1
102
RTVSPropertyOp1
 70
     1
102
RTVSPropertyOp2
 70
     1
102
RTVSPropertyOp3
 70
     1
102
RTVSPropertyOp4
 70
     1
102
RTVSPropertyOp5
 70
     1
102
RTVSPropertyOp6
 70
     1
102
RTVSPropertyOp7
 70
     1
102
RTVSPropertyOp8
 70
     1
102
RTVSPropertyOp9
 70
     1
102
RTVSPropertyOp10
 70
     1
102
RTVSPropertyOp11
 70
     1
102
RTVSPropertyOp12
 70
     1
102
RTVSPropertyOp13
 70
     1
102
RTVSPropertyOp14
 70
     1
102
RTVSPropertyOp15
 70
     1
102
RTVSPropertyOp16
 70
     1
102
RTVSPropertyOp17
 70
     1
102
RTVSPropertyOp18
 70
     1
102
RTVSPropertyOp19
 70
     1
102
RTVSPropertyOp20
 70
     1
102
RTVSPropertyOp21
 70
     1
102
RTVSPropertyOp22
 70
     1
102
RTVSPropertyOp23
 70
     1
102
RTVSPropertyOp24
 70
     1
102
RTVSPropertyOp25
 70
     1
102
RTVSPropertyOp26
 70
     1
102
RTVSPropertyOp27
 70
     1
102
RTVSPropertyOp28
 70
     1
102
RTVSPropertyOp29
 70
     1
102
RTVSPropertyOp30
 70
     1
102
RTVSPropertyOp31
 70
     1
102
RTVSPropertyOp32
 70
     1
  0
XRECORD
  5
5E
102
{ACAD_REACTORS
330
5D
102
}
330
5D
100
AcDbXrecord
280
     1
102
RTVSPropertyOp0
 70
     1
102
RTVSPropertyOp1
 70
     1
102
RTVSPropertyOp2
 70
     1
102
RTVSPropertyOp3
 70
     1
102
RTVSPropertyOp4
 70
     1
102
RTVSPropertyOp5
 70
     1
102
RTVSPropertyOp6
 70
     1
102
RTVSPropertyOp7
 70
     1
102
RTVSPropertyOp8
 70
     1
102
RTVSPropertyOp9
 70
     1
102
RTVSPropertyOp10
 70
     1
102
RTVSPropertyOp11
 70
     1
102
RTVSPropertyOp12
 70
     1
102
RTVSPropertyOp13
 70
     1
102
RTVSPropertyOp14
 70
     1
102
RTVSPropertyOp15
 70
     1
102
RTVSPropertyOp16
 70
     1
102
RTVSPropertyOp17
 70
     1
102
RTVSPropertyOp18
 70
     1
102
RTVSPropertyOp19
 70
     1
102
RTVSPropertyOp20
 70
     1
102
RTVSPropertyOp21
 70
     1
102
RTVSPropertyOp22
 70
     1
102
RTVSPropertyOp23
 70
     1
102
RTVSPropertyOp24
 70
     1
102
RTVSPropertyOp25
 70
     1
102
RTVSPropertyOp26
 70
     1
102
RTVSPropertyOp27
 70
     1
102
RTVSPropertyOp28
 70
     1
102
RTVSPropertyOp29
 70
     1
102
RTVSPropertyOp30
 70
     1
102
RTVSPropertyOp31
 70
     1
102
RTVSPropertyOp32
 70
     1
  0
XRECORD
  5
54
102
{ACAD_REACTORS
330
53
102
}
330
53
100
AcDbXrecord
280
     1
102
RTVSPropertyOp0
 70
     1
102
RTVSPropertyOp1
 70
     1
102
RTVSPropertyOp2
 70
     1
102
RTVSPropertyOp3
 70
     1
102
RTVSPropertyOp4
 70
     1
102
RTVSPropertyOp5
 70
     1
102
RTVSPropertyOp6
 70
     1
102
RTVSPropertyOp7
 70
     1
102
RTVSPropertyOp8
 70
     1
102
RTVSPropertyOp9
 70
     1
102
RTVSPropertyOp10
 70
     1
102
RTVSPropertyOp11
 70
     1
102
RTVSPropertyOp12
 70
     1
102
RTVSPropertyOp13
 70
     1
102
RTVSPropertyOp14
 70
     1
102
RTVSPropertyOp15
 70
     1
102
RTVSPropertyOp16
 70
     1
102
RTVSPropertyOp17
 70
     1
102
RTVSPropertyOp18
 70
     1
102
RTVSPropertyOp19
 70
     1
102
RTVSPropertyOp20
 70
     1
102
RTVSPropertyOp21
 70
     1
102
RTVSPropertyOp22
 70
     1
102
RTVSPropertyOp23
 70
     1
102
RTVSPropertyOp24
 70
     1
102
RTVSPropertyOp25
 70
     1
102
RTVSPropertyOp26
 70
     1
102
RTVSPropertyOp27
 70
     1
102
RTVSPropertyOp28
 70
     1
102
RTVSPropertyOp29
 70
     1
102
RTVSPropertyOp30
 70
     1
102
RTVSPropertyOp31
 70
     1
102
RTVSPropertyOp32
 70
     1
  0
XRECORD
  5
5C
102
{ACAD_REACTORS
330
5B
102
}
330
5B
100
AcDbXrecord
280
     1
102
RTVSPropertyOp0
 70
     1
102
RTVSPropertyOp1
 70
     1
102
RTVSPropertyOp2
 70
     1
102
RTVSPropertyOp3
 70
     1
102
RTVSPropertyOp4
 70
     1
102
RTVSPropertyOp5
 70
     1
102
RTVSPropertyOp6
 70
     1
102
RTVSPropertyOp7
 70
     1
102
RTVSPropertyOp8
 70
     1
102
RTVSPropertyOp9
 70
     1
102
RTVSPropertyOp10
 70
     1
102
RTVSPropertyOp11
 70
     1
102
RTVSPropertyOp12
 70
     1
102
RTVSPropertyOp13
 70
     1
102
RTVSPropertyOp14
 70
     1
102
RTVSPropertyOp15
 70
     1
102
RTVSPropertyOp16
 70
     1
102
RTVSPropertyOp17
 70
     1
102
RTVSPropertyOp18
 70
     1
102
RTVSPropertyOp19
 70
     1
102
RTVSPropertyOp20
 70
     1
102
RTVSPropertyOp21
 70
     1
102
RTVSPropertyOp22
 70
     1
102
RTVSPropertyOp23
 70
     1
102
RTVSPropertyOp24
 70
     1
102
RTVSPropertyOp25
 70
     1
102
RTVSPropertyOp26
 70
     1
102
RTVSPropertyOp27
 70
     1
102
RTVSPropertyOp28
 70
     1
102
RTVSPropertyOp29
 70
     1
102
RTVSPropertyOp30
 70
     1
102
RTVSPropertyOp31
 70
     1
102
RTVSPropertyOp32
 70
     1
  0
ENDSEC
  0
EOF
