  0
SECTION
  2
HEADER
  9
$ACADVER
  1
AC1021
  9
$ACADMAINTVER
 70
    25
  9
$DWGCODEPAGE
  3
ANSI_1252
  9
$INSBASE
 10
0.0
 20
0.0
 30
0.0
  9
$EXTMIN
 10
-6.23931
 20
-0.22646
 30
0.0
  9
$EXTMAX
 10
5.73931
 20
2.81091
 30
0.0
  9
$LIMMIN
 10
0.0
 20
0.0
  9
$LIMMAX
 10
12.0
 20
9.0
  9
$ORTHOMODE
 70
     0
  9
$REGENMODE
 70
     1
  9
$FILLMODE
 70
     1
  9
$QTEXTMODE
 70
     0
  9
$MIRRTEXT
 70
     1
  9
$LTSCALE
 40
1.0
  9
$ATTMODE
 70
     1
  9
$TEXTSIZE
 40
0.2
  9
$TRACEWID
 40
0.05
  9
$TEXTSTYLE
  7
Standard
  9
$CLAYER
  8
0
  9
$CELTYPE
  6
ByLayer
  9
$CECOLOR
 62
   256
  9
$CELTSCALE
 40
1.0
  9
$DISPSILH
 70
     0
  9
$DIMSCALE
 40
1.0
  9
$DIMASZ
 40
0.18
  9
$DIMEXO
 40
0.0625
  9
$DIMDLI
 40
0.38
  9
$DIMRND
 40
0.0
  9
$DIMDLE
 40
0.0
  9
$DIMEXE
 40
0.18
  9
$DIMTP
 40
0.0
  9
$DIMTM
 40
0.0
  9
$DIMTXT
 40
0.18
  9
$DIMCEN
 40
0.09
  9
$DIMTSZ
 40
0.0
  9
$DIMTOL
 70
     0
  9
$DIMLIM
 70
     0
  9
$DIMTIH
 70
     1
  9
$DIMTOH
 70
     1
  9
$DIMSE1
 70
     0
  9
$DIMSE2
 70
     0
  9
$DIMTAD
 70
     0
  9
$DIMZIN
 70
     0
  9
$DIMBLK
  1

  9
$DIMASO
 70
     1
  9
$DIMSHO
 70
     1
  9
$DIMPOST
  1

  9
$DIMAPOST
  1

  9
$DIMALT
 70
     0
  9
$DIMALTD
 70
     2
  9
$DIMALTF
 40
25.4
  9
$DIMLFAC
 40
1.0
  9
$DIMTOFL
 70
     0
  9
$DIMTVP
 40
0.0
  9
$DIMTIX
 70
     0
  9
$DIMSOXD
 70
     0
  9
$DIMSAH
 70
     0
  9
$DIMBLK1
  1

  9
$DIMBLK2
  1

  9
$DIMSTYLE
  2
Standard
  9
$DIMCLRD
 70
     0
  9
$DIMCLRE
 70
     0
  9
$DIMCLRT
 70
     0
  9
$DIMTFAC
 40
1.0
  9
$DIMGAP
 40
0.09
  9
$DIMJUST
 70
     0
  9
$DIMSD1
 70
     0
  9
$DIMSD2
 70
     0
  9
$DIMTOLJ
 70
     1
  9
$DIMTZIN
 70
     0
  9
$DIMALTZ
 70
     0
  9
$DIMALTTZ
 70
     0
  9
$DIMUPT
 70
     0
  9
$DIMDEC
 70
     4
  9
$DIMTDEC
 70
     4
  9
$DIMALTU
 70
     2
  9
$DIMALTTD
 70
     2
  9
$DIMTXSTY
  7
Standard
  9
$DIMAUNIT
 70
     0
  9
$DIMADEC
 70
     0
  9
$DIMALTRND
 40
0.0
  9
$DIMAZIN
 70
     0
  9
$DIMDSEP
 70
    46
  9
$DIMATFIT
 70
     3
  9
$DIMFRAC
 70
     0
  9
$DIMLDRBLK
  1

  9
$DIMLUNIT
 70
     2
  9
$DIMLWD
 70
    -2
  9
$DIMLWE
 70
    -2
  9
$DIMTMOVE
 70
     0
  9
$DIMFXL
 40
1.0
  9
$DIMFXLON
 70
     0
  9
$DIMJOGANG
 40
0.7853981633974483
  9
$DIMTFILL
 70
     0
  9
$DIMTFILLCLR
 70
     0
  9
$DIMARCSYM
 70
     0
  9
$DIMLTYPE
  6

  9
$DIMLTEX1
  6

  9
$DIMLTEX2
  6

  9
$LUNITS
 70
     2
  9
$LUPREC
 70
     4
  9
$SKETCHINC
 40
0.1
  9
$FILLETRAD
 40
0.5
  9
$AUNITS
 70
     0
  9
$AUPREC
 70
     0
  9
$MENU
  1
.
  9
$ELEVATION
 40
0.0
  9
$PELEVATION
 40
0.0
  9
$THICKNESS
 40
0.0
  9
$LIMCHECK
 70
     0
  9
$CHAMFERA
 40
0.5
  9
$CHAMFERB
 40
0.5
  9
$CHAMFERC
 40
1.0
  9
$CHAMFERD
 40
0.0
  9
$SKPOLY
 70
     0
  9
$TDCREATE
 40
2460554.831476239
  9
$TDUCREATE
 40
2460554.789809572
  9
$TDUPDATE
 40
2460554.83147632
  9
$TDUUPDATE
 40
2460554.789809653
  9
$TDINDWG
 40
0.0000000116
  9
$TDUSRTIMER
 40
0.0000000116
  9
$USRTIMER
 70
     1
  9
$ANGBASE
 50
0.0
  9
$ANGDIR
 70
     0
  9
$PDMODE
 70
     0
  9
$PDSIZE
 40
0.0
  9
$PLINEWID
 40
0.0
  9
$SPLFRAME
 70
     0
  9
$SPLINETYPE
 70
     6
  9
$SPLINESEGS
 70
     8
  9
$HANDSEED
  5
9F
  9
$SURFTAB1
 70
     6
  9
$SURFTAB2
 70
     6
  9
$SURFTYPE
 70
     6
  9
$SURFU
 70
     6
  9
$SURFV
 70
     6
  9
$UCSBASE
  2

  9
$UCSNAME
  2

  9
$UCSORG
 10
0.0
 20
0.0
 30
0.0
  9
$UCSXDIR
 10
1.0
 20
0.0
 30
0.0
  9
$UCSYDIR
 10
0.0
 20
1.0
 30
0.0
  9
$UCSORTHOREF
  2

  9
$UCSORTHOVIEW
 70
     0
  9
$UCSORGTOP
 10
0.0
 20
0.0
 30
0.0
  9
$UCSORGBOTTOM
 10
0.0
 20
0.0
 30
0.0
  9
$UCSORGLEFT
 10
0.0
 20
0.0
 30
0.0
  9
$UCSORGRIGHT
 10
0.0
 20
0.0
 30
0.0
  9
$UCSORGFRONT
 10
0.0
 20
0.0
 30
0.0
  9
$UCSORGBACK
 10
0.0
 20
0.0
 30
0.0
  9
$PUCSBASE
  2

  9
$PUCSNAME
  2

  9
$PUCSORG
 10
0.0
 20
0.0
 30
0.0
  9
$PUCSXDIR
 10
1.0
 20
0.0
 30
0.0
  9
$PUCSYDIR
 10
0.0
 20
1.0
 30
0.0
  9
$PUCSORTHOREF
  2

  9
$PUCSORTHOVIEW
 70
     0
  9
$PUCSORGTOP
 10
0.0
 20
0.0
 30
0.0
  9
$PUCSORGBOTTOM
 10
0.0
 20
0.0
 30
0.0
  9
$PUCSORGLEFT
 10
0.0
 20
0.0
 30
0.0
  9
$PUCSORGRIGHT
 10
0.0
 20
0.0
 30
0.0
  9
$PUCSORGFRONT
 10
0.0
 20
0.0
 30
0.0
  9
$PUCSORGBACK
 10
0.0
 20
0.0
 30
0.0
  9
$USERI1
 70
     0
  9
$USERI2
 70
     0
  9
$USERI3
 70
     0
  9
$USERI4
 70
     0
  9
$USERI5
 70
     0
  9
$USERR1
 40
0.0
  9
$USERR2
 40
0.0
  9
$USERR3
 40
0.0
  9
$USERR4
 40
0.0
  9
$USERR5
 40
0.0
  9
$WORLDVIEW
 70
     1
  9
$SHADEDGE
 70
     3
  9
$SHADEDIF
 70
    70
  9
$TILEMODE
 70
     1
  9
$MAXACTVP
 70
    64
  9
$PINSBASE
 10
0.0
 20
0.0
 30
0.0
  9
$PLIMCHECK
 70
     0
  9
$PEXTMIN
 10
1.000000000000000E+20
 20
1.000000000000000E+20
 30
1.000000000000000E+20
  9
$PEXTMAX
 10
-1.000000000000000E+20
 20
-1.000000000000000E+20
 30
-1.000000000000000E+20
  9
$PLIMMIN
 10
0.0
 20
0.0
  9
$PLIMMAX
 10
12.0
 20
9.0
  9
$UNITMODE
 70
     0
  9
$VISRETAIN
 70
     1
  9
$PLINEGEN
 70
     0
  9
$PSLTSCALE
 70
     1
  9
$TREEDEPTH
 70
  3020
  9
$CMLSTYLE
  2
Standard
  9
$CMLJUST
 70
     0
  9
$CMLSCALE
 40
1.0
  9
$PROXYGRAPHICS
 70
     1
  9
$MEASUREMENT
 70
     0
  9
$CELWEIGHT
370
    -1
  9
$ENDCAPS
280
     0
  9
$JOINSTYLE
280
     0
  9
$LWDISPLAY
290
     0
  9
$INSUNITS
 70
     5
  9
$HYPERLINKBASE
  1

  9
$STYLESHEET
  1

  9
$XEDIT
290
     1
  9
$CEPSNTYPE
380
     0
  9
$PSTYLEMODE
290
     1
  9
$FINGERPRINTGUID
  2
{D4A9206F-4427-4ED1-A8F0-B2E1B1AB197F}
  9
$VERSIONGUID
  2
{FAEB1C32-E019-11D5-929B-00C0DF256EC4}
  9
$EXTNAMES
290
     1
  9
$PSVPSCALE
 40
0.0
  9
$OLESTARTUP
290
     0
  9
$SORTENTS
280
   127
  9
$INDEXCTL
280
     0
  9
$HIDETEXT
280
     1
  9
$XCLIPFRAME
290
     0
  9
$HALOGAP
280
     0
  9
$OBSCOLOR
 70
   257
  9
$OBSLTYPE
280
     0
  9
$INTERSECTIONDISPLAY
280
     0
  9
$INTERSECTIONCOLOR
 70
   257
  9
$DIMASSOC
280
     2
  9
$PROJECTNAME
  1

  9
$CAMERADISPLAY
290
     0
  9
$LENSLENGTH
 40
50.0
  9
$CAMERAHEIGHT
 40
0.0
  9
$STEPSPERSEC
 40
2.0
  9
$STEPSIZE
 40
6.0
  9
$3DDWFPREC
 40
2.0
  9
$PSOLWIDTH
 40
0.25
  9
$PSOLHEIGHT
 40
4.0
  9
$LOFTANG1
 40
1.570796326794897
  9
$LOFTANG2
 40
1.570796326794897
  9
$LOFTMAG1
 40
0.0
  9
$LOFTMAG2
 40
0.0
  9
$LOFTPARAM
 70
     7
  9
$LOFTNORMALS
280
     1
  9
$LATITUDE
 40
37.795
  9
$LONGITUDE
 40
-122.394
  9
$NORTHDIRECTION
 40
0.0
  9
$TIMEZONE
 70
 -8000
  9
$LIGHTGLYPHDISPLAY
280
     1
  9
$TILEMODELIGHTSYNCH
280
     1
  9
$SOLIDHIST
280
     1
  9
$SHOWHIST
280
     1
  9
$DWFFRAME
280
     2
  9
$DGNFRAME
280
     2
  9
$REALWORLDSCALE
290
     1
  9
$INTERFERECOLOR
 62
   256
  9
$CSHADOW
280
     0
  9
$SHADOWPLANELOCATION
 40
0.0
  0
ENDSEC
  0
SECTION
  2
CLASSES
  0
CLASS
  1
ACDBDICTIONARYWDFLT
  2
AcDbDictionaryWithDefault
  3
ObjectDBX Classes
 90
        0
 91
        4
280
     0
281
     0
  0
CLASS
  1
VISUALSTYLE
  2
AcDbVisualStyle
  3
ObjectDBX Classes
 90
     4095
 91
        4
280
     0
281
     0
  0
CLASS
  1
MATERIAL
  2
AcDbMaterial
  3
ObjectDBX Classes
 90
     1153
 91
        4
280
     0
281
     0
  0
ENDSEC
  0
SECTION
  2
TABLES
  0
TABLE
  2
VPORT
  5
8
330
0
100
AcDbSymbolTable
 70
     1
  0
VPORT
  5
29
330
8
100
AcDbSymbolTableRecord
100
AcDbViewportTableRecord
  2
*Active
 70
     0
 10
0.0
 20
0.0
 11
1.0
 21
1.0
 12
10.42990654205607
 22
4.5
 13
0.0
 23
0.0
 14
0.5
 24
0.5
 15
0.5
 25
0.5
 16
0.0
 26
0.0
 36
1.0
 17
0.0
 27
0.0
 37
0.0
 40
9.0
 41
1.972972972850329
 42
50.0
 43
0.0
 44
0.0
 50
0.0
 51
0.0
 71
     0
 72
   100
 73
     1
 74
     3
 75
     0
 76
     0
 77
     0
 78
     0
281
     0
 65
     1
110
0.0
120
0.0
130
0.0
111
1.0
121
0.0
131
0.0
112
0.0
122
1.0
132
0.0
 79
     0
146
0.0
 60
     3
 61
     5
292
     1
282
     1
141
0.0
142
0.0
 63
   250
  0
ENDTAB
  0
TABLE
  2
LTYPE
  5
5
330
0
100
AcDbSymbolTable
 70
     1
  0
LTYPE
  5
14
330
5
100
AcDbSymbolTableRecord
100
AcDbLinetypeTableRecord
  2
ByBlock
 70
     0
  3

 72
    65
 73
     0
 40
0.0
  0
LTYPE
  5
15
330
5
100
AcDbSymbolTableRecord
100
AcDbLinetypeTableRecord
  2
ByLayer
 70
     0
  3

 72
    65
 73
     0
 40
0.0
  0
LTYPE
  5
16
330
5
100
AcDbSymbolTableRecord
100
AcDbLinetypeTableRecord
  2
Continuous
 70
     0
  3
Solid line
 72
    65
 73
     0
 40
0.0
  0
ENDTAB
  0
TABLE
  2
LAYER
  5
2
330
0
100
AcDbSymbolTable
 70
     2
  0
LAYER
  5
10
330
2
100
AcDbSymbolTableRecord
100
AcDbLayerTableRecord
  2
0
 70
     0
 62
     7
  6
Continuous
370
    -3
390
F
347
3E
  0
LAYER
  5
40
330
2
100
AcDbSymbolTableRecord
100
AcDbLayerTableRecord
  2
Layer 1
 70
     0
 62
     7
  6
Continuous
370
    -3
390
F
347
3E
  0
ENDTAB
  0
TABLE
  2
STYLE
  5
3
330
0
100
AcDbSymbolTable
 70
     1
  0
STYLE
  5
11
330
3
100
AcDbSymbolTableRecord
100
AcDbTextStyleTableRecord
  2
Standard
 70
     0
 40
0.0
 41
1.0
 50
0.0
 71
     0
 42
0.2
  3
txt
  4

  0
ENDTAB
  0
TABLE
  2
VIEW
  5
6
330
0
100
AcDbSymbolTable
 70
     0
  0
ENDTAB
  0
TABLE
  2
UCS
  5
7
330
0
100
AcDbSymbolTable
 70
     0
  0
ENDTAB
  0
TABLE
  2
APPID
  5
9
330
0
100
AcDbSymbolTable
 70
     2
  0
APPID
  5
12
330
9
100
AcDbSymbolTableRecord
100
AcDbRegAppTableRecord
  2
ACAD
 70
     0
  0
APPID
  5
3F
330
9
100
AcDbSymbolTableRecord
100
AcDbRegAppTableRecord
  2
ODA
 70
     0
  0
ENDTAB
  0
TABLE
  2
DIMSTYLE
  5
A
330
0
100
AcDbSymbolTable
 70
     1
100
AcDbDimStyleTable
  0
DIMSTYLE
105
27
330
A
100
AcDbSymbolTableRecord
100
AcDbDimStyleTableRecord
  2
Standard
 70
     0
178
     0
340
11
  0
ENDTAB
  0
TABLE
  2
BLOCK_RECORD
  5
1
330
0
100
AcDbSymbolTable
 70
     1
  0
BLOCK_RECORD
  5
1F
330
1
100
AcDbSymbolTableRecord
100
AcDbBlockTableRecord
  2
*Model_Space
340
22
 70
     0
280
     1
281
     0
  0
BLOCK_RECORD
  5
1B
330
1
100
AcDbSymbolTableRecord
100
AcDbBlockTableRecord
  2
*Paper_Space
340
1E
 70
     0
280
     1
281
     0
  0
BLOCK_RECORD
  5
23
330
1
100
AcDbSymbolTableRecord
100
AcDbBlockTableRecord
  2
*Paper_Space0
340
26
 70
     0
280
     1
281
     0
  0
ENDTAB
  0
ENDSEC
  0
SECTION
  2
BLOCKS
  0
BLOCK
  5
20
330
1F
100
AcDbEntity
  8
0
100
AcDbBlockBegin
  2
*Model_Space
 70
     0
 10
0.0
 20
0.0
 30
0.0
  3
*Model_Space
  1

  0
ENDBLK
  5
21
330
1F
100
AcDbEntity
  8
0
100
AcDbBlockEnd
  0
BLOCK
  5
1C
330
1B
100
AcDbEntity
 67
     1
  8
0
100
AcDbBlockBegin
  2
*Paper_Space
 70
     0
 10
0.0
 20
0.0
 30
0.0
  3
*Paper_Space
  1

  0
ENDBLK
  5
1D
330
1B
100
AcDbEntity
 67
     1
  8
0
100
AcDbBlockEnd
  0
BLOCK
  5
24
330
23
100
AcDbEntity
  8
0
100
AcDbBlockBegin
  2
*Paper_Space0
 70
     0
 10
0.0
 20
0.0
 30
0.0
  3
*Paper_Space0
  1

  0
ENDBLK
  5
25
330
23
100
AcDbEntity
  8
0
100
AcDbBlockEnd
  0
ENDSEC
  0
SECTION
  2
ENTITIES
  0
SPLINE
  5
41
330
1F
100
AcDbEntity
  8
Layer 1
 62
     5
370
    53
100
AcDbSpline
210
0.0
220
0.0
230
1.0
 70
    11
 71
     3
 72
    32
 73
    28
 74
     0
 42
0.0000000001
 43
0.0000000001
 12
1.0
 22
0.0
 32
0.0
 13
1.0
 23
0.0
 33
0.0
 40
0.0
 40
0.0
 40
0.0
 40
0.0
 40
0.125
 40
0.125
 40
0.125
 40
0.125
 40
0.25
 40
0.25
 40
0.25
 40
0.25
 40
0.375
 40
0.375
 40
0.375
 40
0.375
 40
0.5
 40
0.5
 40
0.5
 40
0.5
 40
0.625
 40
0.625
 40
0.625
 40
0.625
 40
0.75
 40
0.75
 40
0.75
 40
0.75
 40
1.0
 40
1.0
 40
1.0
 40
1.0
 10
-4.72008
 20
0.12082
 30
0.0
 10
-4.72008
 20
0.12082
 30
0.0
 10
-4.72008
 20
0.12082
 30
0.0
 10
-4.72008
 20
0.12082
 30
0.0
 10
-4.72008
 20
0.12082
 30
0.0
 10
-4.79484
 20
0.10831
 30
0.0
 10
-4.8626
 20
0.09726
 30
0.0
 10
-4.93023
 20
0.08529
 30
0.0
 10
-4.93023
 20
0.08529
 30
0.0
 10
-4.94002
 20
0.08356
 30
0.0
 10
-4.95267
 20
0.0801
 30
0.0
 10
-4.95772
 20
0.073
 30
0.0
 10
-4.95772
 20
0.073
 30
0.0
 10
-4.97172
 20
0.05333
 30
0.0
 10
-4.98241
 20
0.03132
 30
0.0
 10
-4.99441
 20
0.01024
 30
0.0
 10
-4.99441
 20
0.01024
 30
0.0
 10
-4.97256
 20
0.00307
 30
0.0
 10
-4.95076
 20
-0.00977
 30
0.0
 10
-4.92885
 20
-0.00998
 30
0.0
 10
-4.92885
 20
-0.00998
 30
0.0
 10
-4.88817
 20
-0.01028
 30
0.0
 10
-4.84749
 20
-0.00245
 30
0.0
 10
-4.8067
 20
0.0006
 30
0.0
 10
-4.8067
 20
0.0006
 30
0.0
 10
-4.71988
 20
0.00703
 30
0.0
 10
-4.69885
 20
0.03778
 30
0.0
 10
-4.72008
 20
0.12082
 30
0.0
  0
SPLINE
  5
42
330
1F
100
AcDbEntity
  8
Layer 1
 62
     5
370
    53
100
AcDbSpline
210
0.0
220
0.0
230
1.0
 70
    11
 71
     3
 72
    36
 73
    32
 74
     0
 42
0.0000000001
 43
0.0000000001
 12
1.0
 22
0.0
 32
0.0
 13
1.0
 23
0.0
 33
0.0
 40
0.0
 40
0.0
 40
0.0
 40
0.0
 40
0.1111111111111111
 40
0.1111111111111111
 40
0.1111111111111111
 40
0.1111111111111111
 40
0.2222222222222222
 40
0.2222222222222222
 40
0.2222222222222222
 40
0.2222222222222222
 40
0.3333333333333333
 40
0.3333333333333333
 40
0.3333333333333333
 40
0.3333333333333333
 40
0.4444444444444444
 40
0.4444444444444444
 40
0.4444444444444444
 40
0.4444444444444444
 40
0.5555555555555556
 40
0.5555555555555556
 40
0.5555555555555556
 40
0.5555555555555556
 40
0.6666666666666666
 40
0.6666666666666666
 40
0.6666666666666666
 40
0.6666666666666666
 40
0.7777777777777778
 40
0.7777777777777778
 40
0.7777777777777778
 40
0.7777777777777778
 40
1.0
 40
1.0
 40
1.0
 40
1.0
 10
-5.71247
 20
0.46594
 30
0.0
 10
-5.71247
 20
0.46594
 30
0.0
 10
-5.71247
 20
0.46594
 30
0.0
 10
-5.71247
 20
0.46594
 30
0.0
 10
-5.71247
 20
0.46594
 30
0.0
 10
-5.68543
 20
0.46155
 30
0.0
 10
-5.6592
 20
0.45313
 30
0.0
 10
-5.63325
 20
0.4539
 30
0.0
 10
-5.63325
 20
0.4539
 30
0.0
 10
-5.56224
 20
0.45604
 30
0.0
 10
-5.49115
 20
0.46013
 30
0.0
 10
-5.42049
 20
0.46759
 30
0.0
 10
-5.42049
 20
0.46759
 30
0.0
 10
-5.39535
 20
0.47023
 30
0.0
 10
-5.35065
 20
0.4847
 30
0.0
 10
-5.3506
 20
0.4939
 30
0.0
 10
-5.3506
 20
0.4939
 30
0.0
 10
-5.35049
 20
0.53054
 30
0.0
 10
-5.35965
 20
0.56968
 30
0.0
 10
-5.37639
 20
0.60221
 30
0.0
 10
-5.37639
 20
0.60221
 30
0.0
 10
-5.38092
 20
0.611
 30
0.0
 10
-5.42489
 20
0.60221
 30
0.0
 10
-5.44988
 20
0.59704
 30
0.0
 10
-5.44988
 20
0.59704
 30
0.0
 10
-5.49567
 20
0.58756
 30
0.0
 10
-5.54203
 20
0.56201
 30
0.0
 10
-5.58598
 20
0.56617
 30
0.0
 10
-5.58598
 20
0.56617
 30
0.0
 10
-5.67252
 20
0.57433
 30
0.0
 10
-5.68472
 20
0.57178
 30
0.0
 10
-5.71247
 20
0.46594
 30
0.0
  0
SPLINE
  5
43
330
1F
100
AcDbEntity
  8
Layer 1
 62
     5
370
    53
100
AcDbSpline
210
0.0
220
0.0
230
1.0
 70
    11
 71
     3
 72
    32
 73
    28
 74
     0
 42
0.0000000001
 43
0.0000000001
 12
1.0
 22
0.0
 32
0.0
 13
1.0
 23
0.0
 33
0.0
 40
0.0
 40
0.0
 40
0.0
 40
0.0
 40
0.125
 40
0.125
 40
0.125
 40
0.125
 40
0.25
 40
0.25
 40
0.25
 40
0.25
 40
0.375
 40
0.375
 40
0.375
 40
0.375
 40
0.5
 40
0.5
 40
0.5
 40
0.5
 40
0.625
 40
0.625
 40
0.625
 40
0.625
 40
0.75
 40
0.75
 40
0.75
 40
0.75
 40
1.0
 40
1.0
 40
1.0
 40
1.0
 10
-2.34834
 20
1.15094
 30
0.0
 10
-2.34834
 20
1.15094
 30
0.0
 10
-2.34834
 20
1.15094
 30
0.0
 10
-2.34834
 20
1.15094
 30
0.0
 10
-2.34834
 20
1.15094
 30
0.0
 10
-2.39558
 20
1.06138
 30
0.0
 10
-2.43849
 20
0.98395
 30
0.0
 10
-2.47715
 20
0.90444
 30
0.0
 10
-2.47715
 20
0.90444
 30
0.0
 10
-2.48958
 20
0.87889
 30
0.0
 10
-2.49678
 20
0.84721
 30
0.0
 10
-2.49372
 20
0.81974
 30
0.0
 10
-2.49372
 20
0.81974
 30
0.0
 10
-2.49273
 20
0.81096
 30
0.0
 10
-2.44804
 20
0.79688
 30
0.0
 10
-2.42857
 20
0.80269
 30
0.0
 10
-2.42857
 20
0.80269
 30
0.0
 10
-2.39833
 20
0.81173
 30
0.0
 10
-2.36193
 20
0.82946
 30
0.0
 10
-2.34708
 20
0.85468
 30
0.0
 10
-2.34708
 20
0.85468
 30
0.0
 10
-2.31676
 20
0.90617
 30
0.0
 10
-2.29906
 20
0.96514
 30
0.0
 10
-2.26899
 20
1.03846
 30
0.0
 10
-2.26899
 20
1.03846
 30
0.0
 10
-2.28485
 20
1.06097
 30
0.0
 10
-2.31514
 20
1.10389
 30
0.0
 10
-2.34834
 20
1.15094
 30
0.0
  0
SPLINE
  5
44
330
1F
100
AcDbEntity
  8
Layer 1
 62
     5
370
    53
100
AcDbSpline
210
0.0
220
0.0
230
1.0
 70
    11
 71
     3
 72
    24
 73
    20
 74
     0
 42
0.0000000001
 43
0.0000000001
 12
1.0
 22
0.0
 32
0.0
 13
1.0
 23
0.0
 33
0.0
 40
0.0
 40
0.0
 40
0.0
 40
0.0
 40
0.1666666666666667
 40
0.1666666666666667
 40
0.1666666666666667
 40
0.1666666666666667
 40
0.3333333333333333
 40
0.3333333333333333
 40
0.3333333333333333
 40
0.3333333333333333
 40
0.5
 40
0.5
 40
0.5
 40
0.5
 40
0.6666666666666666
 40
0.6666666666666666
 40
0.6666666666666666
 40
0.6666666666666666
 40
1.0
 40
1.0
 40
1.0
 40
1.0
 10
-2.1071
 20
1.28437
 30
0.0
 10
-2.1071
 20
1.28437
 30
0.0
 10
-2.1071
 20
1.28437
 30
0.0
 10
-2.1071
 20
1.28437
 30
0.0
 10
-2.1071
 20
1.28437
 30
0.0
 10
-2.10522
 20
1.39609
 30
0.0
 10
-2.13478
 20
1.40893
 30
0.0
 10
-2.22633
 20
1.36862
 30
0.0
 10
-2.22633
 20
1.36862
 30
0.0
 10
-2.35118
 20
1.31364
 30
0.0
 10
-2.37369
 20
1.22615
 30
0.0
 10
-2.28505
 20
1.1227
 30
0.0
 10
-2.28505
 20
1.1227
 30
0.0
 10
-2.2728
 20
1.10839
 30
0.0
 10
-2.22241
 20
1.10242
 30
0.0
 10
-2.21595
 20
1.11146
 30
0.0
 10
-2.21595
 20
1.11146
 30
0.0
 10
-2.17092
 20
1.1743
 30
0.0
 10
-2.13282
 20
1.2421
 30
0.0
 10
-2.1071
 20
1.28437
 30
0.0
  0
SPLINE
  5
45
330
1F
100
AcDbEntity
  8
Layer 1
 62
     5
370
    53
100
AcDbSpline
210
0.0
220
0.0
230
1.0
 70
    11
 71
     3
 72
    32
 73
    28
 74
     0
 42
0.0000000001
 43
0.0000000001
 12
1.0
 22
0.0
 32
0.0
 13
1.0
 23
0.0
 33
0.0
 40
0.0
 40
0.0
 40
0.0
 40
0.0
 40
0.125
 40
0.125
 40
0.125
 40
0.125
 40
0.25
 40
0.25
 40
0.25
 40
0.25
 40
0.375
 40
0.375
 40
0.375
 40
0.375
 40
0.5
 40
0.5
 40
0.5
 40
0.5
 40
0.625
 40
0.625
 40
0.625
 40
0.625
 40
0.75
 40
0.75
 40
0.75
 40
0.75
 40
1.0
 40
1.0
 40
1.0
 40
1.0
 10
-4.69665
 20
0.1234
 30
0.0
 10
-4.69665
 20
0.1234
 30
0.0
 10
-4.69665
 20
0.1234
 30
0.0
 10
-4.69665
 20
0.1234
 30
0.0
 10
-4.69665
 20
0.1234
 30
0.0
 10
-4.67509
 20
0.08274
 30
0.0
 10
-4.66107
 20
0.03907
 30
0.0
 10
-4.65098
 20
0.03997
 30
0.0
 10
-4.65098
 20
0.03997
 30
0.0
 10
-4.56733
 20
0.04739
 30
0.0
 10
-4.47941
 20
0.05098
 30
0.0
 10
-4.40373
 20
0.08224
 30
0.0
 10
-4.40373
 20
0.08224
 30
0.0
 10
-4.37384
 20
0.0946
 30
0.0
 10
-4.37172
 20
0.17415
 30
0.0
 10
-4.35696
 20
0.22314
 30
0.0
 10
-4.35696
 20
0.22314
 30
0.0
 10
-4.3919
 20
0.22717
 30
0.0
 10
-4.42776
 20
0.23812
 30
0.0
 10
-4.4616
 20
0.23365
 30
0.0
 10
-4.4616
 20
0.23365
 30
0.0
 10
-4.51217
 20
0.22699
 30
0.0
 10
-4.56357
 20
0.21474
 30
0.0
 10
-4.61024
 20
0.19469
 30
0.0
 10
-4.61024
 20
0.19469
 30
0.0
 10
-4.64157
 20
0.18123
 30
0.0
 10
-4.66533
 20
0.15017
 30
0.0
 10
-4.69665
 20
0.1234
 30
0.0
  0
SPLINE
  5
46
330
1F
100
AcDbEntity
  8
Layer 1
 62
     5
370
    53
100
AcDbSpline
210
0.0
220
0.0
230
1.0
 70
    11
 71
     3
 72
    36
 73
    32
 74
     0
 42
0.0000000001
 43
0.0000000001
 12
1.0
 22
0.0
 32
0.0
 13
1.0
 23
0.0
 33
0.0
 40
0.0
 40
0.0
 40
0.0
 40
0.0
 40
0.1111111111111111
 40
0.1111111111111111
 40
0.1111111111111111
 40
0.1111111111111111
 40
0.2222222222222222
 40
0.2222222222222222
 40
0.2222222222222222
 40
0.2222222222222222
 40
0.3333333333333333
 40
0.3333333333333333
 40
0.3333333333333333
 40
0.3333333333333333
 40
0.4444444444444444
 40
0.4444444444444444
 40
0.4444444444444444
 40
0.4444444444444444
 40
0.5555555555555556
 40
0.5555555555555556
 40
0.5555555555555556
 40
0.5555555555555556
 40
0.6666666666666666
 40
0.6666666666666666
 40
0.6666666666666666
 40
0.6666666666666666
 40
0.7777777777777778
 40
0.7777777777777778
 40
0.7777777777777778
 40
0.7777777777777778
 40
1.0
 40
1.0
 40
1.0
 40
1.0
 10
-5.46773
 20
1.76473
 30
0.0
 10
-5.46773
 20
1.76473
 30
0.0
 10
-5.46773
 20
1.76473
 30
0.0
 10
-5.46773
 20
1.76473
 30
0.0
 10
-5.46773
 20
1.76473
 30
0.0
 10
-5.46996
 20
1.84989
 30
0.0
 10
-5.47892
 20
1.85627
 30
0.0
 10
-5.55952
 20
1.84547
 30
0.0
 10
-5.55952
 20
1.84547
 30
0.0
 10
-5.65082
 20
1.83325
 30
0.0
 10
-5.74269
 20
1.82495
 30
0.0
 10
-5.83373
 20
1.81113
 30
0.0
 10
-5.83373
 20
1.81113
 30
0.0
 10
-5.85201
 20
1.80837
 30
0.0
 10
-5.87968
 20
1.79017
 30
0.0
 10
-5.88151
 20
1.7763
 30
0.0
 10
-5.88151
 20
1.7763
 30
0.0
 10
-5.88369
 20
1.7599
 30
0.0
 10
-5.86629
 20
1.73023
 30
0.0
 10
-5.85059
 20
1.72429
 30
0.0
 10
-5.85059
 20
1.72429
 30
0.0
 10
-5.81081
 20
1.70925
 30
0.0
 10
-5.76758
 20
1.69943
 30
0.0
 10
-5.72511
 20
1.69641
 30
0.0
 10
-5.72511
 20
1.69641
 30
0.0
 10
-5.66434
 20
1.6921
 30
0.0
 10
-5.6028
 20
1.69889
 30
0.0
 10
-5.54195
 20
1.69501
 30
0.0
 10
-5.54195
 20
1.69501
 30
0.0
 10
-5.48464
 20
1.69132
 30
0.0
 10
-5.45852
 20
1.7108
 30
0.0
 10
-5.46773
 20
1.76473
 30
0.0
  0
SPLINE
  5
47
330
1F
100
AcDbEntity
  8
Layer 1
 62
     5
370
    53
100
AcDbSpline
210
0.0
220
0.0
230
1.0
 70
    11
 71
     3
 72
    40
 73
    36
 74
     0
 42
0.0000000001
 43
0.0000000001
 12
1.0
 22
0.0
 32
0.0
 13
1.0
 23
0.0
 33
0.0
 40
0.0
 40
0.0
 40
0.0
 40
0.0
 40
0.1
 40
0.1
 40
0.1
 40
0.1
 40
0.2
 40
0.2
 40
0.2
 40
0.2
 40
0.3
 40
0.3
 40
0.3
 40
0.3
 40
0.4
 40
0.4
 40
0.4
 40
0.4
 40
0.5
 40
0.5
 40
0.5
 40
0.5
 40
0.6
 40
0.6
 40
0.6
 40
0.6
 40
0.7
 40
0.7
 40
0.7
 40
0.7
 40
0.8
 40
0.8
 40
0.8
 40
0.8
 40
1.0
 40
1.0
 40
1.0
 40
1.0
 10
-5.70681
 20
1.04032
 30
0.0
 10
-5.70681
 20
1.04032
 30
0.0
 10
-5.70681
 20
1.04032
 30
0.0
 10
-5.70681
 20
1.04032
 30
0.0
 10
-5.70681
 20
1.04032
 30
0.0
 10
-5.70337
 20
1.04953
 30
0.0
 10
-5.68717
 20
1.07521
 30
0.0
 10
-5.68559
 20
1.10174
 30
0.0
 10
-5.68559
 20
1.10174
 30
0.0
 10
-5.68358
 20
1.13456
 30
0.0
 10
-5.68326
 20
1.17701
 30
0.0
 10
-5.70174
 20
1.19863
 30
0.0
 10
-5.70174
 20
1.19863
 30
0.0
 10
-5.71803
 20
1.21773
 30
0.0
 10
-5.77065
 20
1.22967
 30
0.0
 10
-5.79071
 20
1.21753
 30
0.0
 10
-5.79071
 20
1.21753
 30
0.0
 10
-5.86849
 20
1.1704
 30
0.0
 10
-5.95183
 20
1.1597
 30
0.0
 10
-6.03878
 20
1.14918
 30
0.0
 10
-6.03878
 20
1.14918
 30
0.0
 10
-6.06483
 20
1.14603
 30
0.0
 10
-6.08607
 20
1.10293
 30
0.0
 10
-6.1095
 20
1.0781
 30
0.0
 10
-6.1095
 20
1.0781
 30
0.0
 10
-6.08175
 20
1.06074
 30
0.0
 10
-6.05569
 20
1.0388
 30
0.0
 10
-6.02563
 20
1.02759
 30
0.0
 10
-6.02563
 20
1.02759
 30
0.0
 10
-6.00576
 20
1.02014
 30
0.0
 10
-5.98015
 20
1.02816
 30
0.0
 10
-5.9571
 20
1.02919
 30
0.0
 10
-5.9571
 20
1.02919
 30
0.0
 10
-5.87702
 20
1.03276
 30
0.0
 10
-5.79692
 20
1.03632
 30
0.0
 10
-5.70681
 20
1.04032
 30
0.0
  0
SPLINE
  5
48
330
1F
100
AcDbEntity
  8
Layer 1
 62
     5
370
    53
100
AcDbSpline
210
0.0
220
0.0
230
1.0
 70
    11
 71
     3
 72
    36
 73
    32
 74
     0
 42
0.0000000001
 43
0.0000000001
 12
1.0
 22
0.0
 32
0.0
 13
1.0
 23
0.0
 33
0.0
 40
0.0
 40
0.0
 40
0.0
 40
0.0
 40
0.1111111111111111
 40
0.1111111111111111
 40
0.1111111111111111
 40
0.1111111111111111
 40
0.2222222222222222
 40
0.2222222222222222
 40
0.2222222222222222
 40
0.2222222222222222
 40
0.3333333333333333
 40
0.3333333333333333
 40
0.3333333333333333
 40
0.3333333333333333
 40
0.4444444444444444
 40
0.4444444444444444
 40
0.4444444444444444
 40
0.4444444444444444
 40
0.5555555555555556
 40
0.5555555555555556
 40
0.5555555555555556
 40
0.5555555555555556
 40
0.6666666666666666
 40
0.6666666666666666
 40
0.6666666666666666
 40
0.6666666666666666
 40
0.7777777777777778
 40
0.7777777777777778
 40
0.7777777777777778
 40
0.7777777777777778
 40
1.0
 40
1.0
 40
1.0
 40
1.0
 10
-4.95762
 20
1.84165
 30
0.0
 10
-4.95762
 20
1.84165
 30
0.0
 10
-4.95762
 20
1.84165
 30
0.0
 10
-4.95762
 20
1.84165
 30
0.0
 10
-4.95762
 20
1.84165
 30
0.0
 10
-5.08951
 20
1.84165
 30
0.0
 10
-5.20881
 20
1.84291
 30
0.0
 10
-5.32803
 20
1.84077
 30
0.0
 10
-5.32803
 20
1.84077
 30
0.0
 10
-5.35798
 20
1.84023
 30
0.0
 10
-5.40039
 20
1.83818
 30
0.0
 10
-5.41426
 20
1.81969
 30
0.0
 10
-5.41426
 20
1.81969
 30
0.0
 10
-5.43024
 20
1.79845
 30
0.0
 10
-5.43264
 20
1.75087
 30
0.0
 10
-5.41875
 20
1.72847
 30
0.0
 10
-5.41875
 20
1.72847
 30
0.0
 10
-5.40774
 20
1.71075
 30
0.0
 10
-5.36142
 20
1.70411
 30
0.0
 10
-5.334
 20
1.70935
 30
0.0
 10
-5.334
 20
1.70935
 30
0.0
 10
-5.24001
 20
1.72731
 30
0.0
 10
-5.15079
 20
1.72625
 30
0.0
 10
-5.06411
 20
1.67971
 30
0.0
 10
-5.06411
 20
1.67971
 30
0.0
 10
-5.04114
 20
1.66739
 30
0.0
 10
-5.01259
 20
1.66546
 30
0.0
 10
-4.97923
 20
1.65682
 30
0.0
 10
-4.97923
 20
1.65682
 30
0.0
 10
-4.97129
 20
1.72468
 30
0.0
 10
-4.96455
 20
1.78219
 30
0.0
 10
-4.95762
 20
1.84165
 30
0.0
  0
SPLINE
  5
49
330
1F
100
AcDbEntity
  8
Layer 1
 62
     5
370
    53
100
AcDbSpline
210
0.0
220
0.0
230
1.0
 70
    11
 71
     3
 72
    32
 73
    28
 74
     0
 42
0.0000000001
 43
0.0000000001
 12
1.0
 22
0.0
 32
0.0
 13
1.0
 23
0.0
 33
0.0
 40
0.0
 40
0.0
 40
0.0
 40
0.0
 40
0.125
 40
0.125
 40
0.125
 40
0.125
 40
0.25
 40
0.25
 40
0.25
 40
0.25
 40
0.375
 40
0.375
 40
0.375
 40
0.375
 40
0.5
 40
0.5
 40
0.5
 40
0.5
 40
0.625
 40
0.625
 40
0.625
 40
0.625
 40
0.75
 40
0.75
 40
0.75
 40
0.75
 40
1.0
 40
1.0
 40
1.0
 40
1.0
 10
-4.53444
 20
2.64601
 30
0.0
 10
-4.53444
 20
2.64601
 30
0.0
 10
-4.53444
 20
2.64601
 30
0.0
 10
-4.53444
 20
2.64601
 30
0.0
 10
-4.53444
 20
2.64601
 30
0.0
 10
-4.51364
 20
2.61209
 30
0.0
 10
-4.5073
 20
2.58889
 30
0.0
 10
-4.49223
 20
2.57925
 30
0.0
 10
-4.49223
 20
2.57925
 30
0.0
 10
-4.39485
 20
2.51685
 30
0.0
 10
-4.2992
 20
2.44985
 30
0.0
 10
-4.19535
 20
2.40029
 30
0.0
 10
-4.19535
 20
2.40029
 30
0.0
 10
-4.14345
 20
2.37549
 30
0.0
 10
-4.10928
 20
2.42911
 30
0.0
 10
-4.09094
 20
2.47789
 30
0.0
 10
-4.09094
 20
2.47789
 30
0.0
 10
-4.07341
 20
2.52455
 30
0.0
 10
-4.07417
 20
2.56708
 30
0.0
 10
-4.13148
 20
2.58271
 30
0.0
 10
-4.13148
 20
2.58271
 30
0.0
 10
-4.23337
 20
2.61054
 30
0.0
 10
-4.3357
 20
2.63702
 30
0.0
 10
-4.43888
 20
2.6596
 30
0.0
 10
-4.43888
 20
2.6596
 30
0.0
 10
-4.46345
 20
2.665
 30
0.0
 10
-4.49193
 20
2.65268
 30
0.0
 10
-4.53444
 20
2.64601
 30
0.0
  0
SPLINE
  5
4A
330
1F
100
AcDbEntity
  8
Layer 1
 62
     5
370
    53
100
AcDbSpline
210
0.0
220
0.0
230
1.0
 70
    11
 71
     3
 72
    32
 73
    28
 74
     0
 42
0.0000000001
 43
0.0000000001
 12
1.0
 22
0.0
 32
0.0
 13
1.0
 23
0.0
 33
0.0
 40
0.0
 40
0.0
 40
0.0
 40
0.0
 40
0.125
 40
0.125
 40
0.125
 40
0.125
 40
0.25
 40
0.25
 40
0.25
 40
0.25
 40
0.375
 40
0.375
 40
0.375
 40
0.375
 40
0.5
 40
0.5
 40
0.5
 40
0.5
 40
0.625
 40
0.625
 40
0.625
 40
0.625
 40
0.75
 40
0.75
 40
0.75
 40
0.75
 40
1.0
 40
1.0
 40
1.0
 40
1.0
 10
-4.81135
 20
0.72181
 30
0.0
 10
-4.81135
 20
0.72181
 30
0.0
 10
-4.81135
 20
0.72181
 30
0.0
 10
-4.81135
 20
0.72181
 30
0.0
 10
-4.81135
 20
0.72181
 30
0.0
 10
-4.96777
 20
0.70073
 30
0.0
 10
-5.10453
 20
0.67954
 30
0.0
 10
-5.24199
 20
0.66469
 30
0.0
 10
-5.24199
 20
0.66469
 30
0.0
 10
-5.34486
 20
0.65358
 30
0.0
 10
-5.34561
 20
0.65215
 30
0.0
 10
-5.3265
 20
0.5541
 30
0.0
 10
-5.3265
 20
0.5541
 30
0.0
 10
-5.3115
 20
0.47721
 30
0.0
 10
-5.26053
 20
0.49173
 30
0.0
 10
-5.21498
 20
0.5041
 30
0.0
 10
-5.21498
 20
0.5041
 30
0.0
 10
-5.09805
 20
0.53584
 30
0.0
 10
-4.98383
 20
0.57643
 30
0.0
 10
-4.85843
 20
0.54953
 30
0.0
 10
-4.85843
 20
0.54953
 30
0.0
 10
-4.84218
 20
0.54604
 30
0.0
 10
-4.80193
 20
0.58081
 30
0.0
 10
-4.7997
 20
0.60085
 30
0.0
 10
-4.7997
 20
0.60085
 30
0.0
 10
-4.79489
 20
0.64441
 30
0.0
 10
-4.80746
 20
0.68986
 30
0.0
 10
-4.81135
 20
0.72181
 30
0.0
  0
SPLINE
  5
4B
330
1F
100
AcDbEntity
  8
Layer 1
 62
     5
370
    53
100
AcDbSpline
210
0.0
220
0.0
230
1.0
 70
    11
 71
     3
 72
    36
 73
    32
 74
     0
 42
0.0000000001
 43
0.0000000001
 12
1.0
 22
0.0
 32
0.0
 13
1.0
 23
0.0
 33
0.0
 40
0.0
 40
0.0
 40
0.0
 40
0.0
 40
0.1111111111111111
 40
0.1111111111111111
 40
0.1111111111111111
 40
0.1111111111111111
 40
0.2222222222222222
 40
0.2222222222222222
 40
0.2222222222222222
 40
0.2222222222222222
 40
0.3333333333333333
 40
0.3333333333333333
 40
0.3333333333333333
 40
0.3333333333333333
 40
0.4444444444444444
 40
0.4444444444444444
 40
0.4444444444444444
 40
0.4444444444444444
 40
0.5555555555555556
 40
0.5555555555555556
 40
0.5555555555555556
 40
0.5555555555555556
 40
0.6666666666666666
 40
0.6666666666666666
 40
0.6666666666666666
 40
0.6666666666666666
 40
0.7777777777777778
 40
0.7777777777777778
 40
0.7777777777777778
 40
0.7777777777777778
 40
1.0
 40
1.0
 40
1.0
 40
1.0
 10
-2.41478
 20
1.12934
 30
0.0
 10
-2.41478
 20
1.12934
 30
0.0
 10
-2.41478
 20
1.12934
 30
0.0
 10
-2.41478
 20
1.12934
 30
0.0
 10
-2.41478
 20
1.12934
 30
0.0
 10
-2.41523
 20
1.21438
 30
0.0
 10
-2.4637
 20
1.23434
 30
0.0
 10
-2.52017
 20
1.21771
 30
0.0
 10
-2.52017
 20
1.21771
 30
0.0
 10
-2.5874
 20
1.19788
 30
0.0
 10
-2.64741
 20
1.15445
 30
0.0
 10
-2.71407
 20
1.13143
 30
0.0
 10
-2.71407
 20
1.13143
 30
0.0
 10
-2.79332
 20
1.10404
 30
0.0
 10
-2.78708
 20
1.04916
 30
0.0
 10
-2.77183
 20
0.98909
 30
0.0
 10
-2.77183
 20
0.98909
 30
0.0
 10
-2.76499
 20
0.96203
 30
0.0
 10
-2.75216
 20
0.93612
 30
0.0
 10
-2.73932
 20
0.91108
 30
0.0
 10
-2.73932
 20
0.91108
 30
0.0
 10
-2.6837
 20
0.80261
 30
0.0
 10
-2.60838
 20
0.7983
 30
0.0
 10
-2.54232
 20
0.89884
 30
0.0
 10
-2.54232
 20
0.89884
 30
0.0
 10
-2.53388
 20
0.91168
 30
0.0
 10
-2.52237
 20
0.92274
 30
0.0
 10
-2.51522
 20
0.9362
 30
0.0
 10
-2.51522
 20
0.9362
 30
0.0
 10
-2.48119
 20
1.00027
 30
0.0
 10
-2.44818
 20
1.06489
 30
0.0
 10
-2.41478
 20
1.12934
 30
0.0
  0
SPLINE
  5
4C
330
1F
100
AcDbEntity
  8
Layer 1
 62
     5
370
    53
100
AcDbSpline
210
0.0
220
0.0
230
1.0
 70
    11
 71
     3
 72
    40
 73
    36
 74
     0
 42
0.0000000001
 43
0.0000000001
 12
1.0
 22
0.0
 32
0.0
 13
1.0
 23
0.0
 33
0.0
 40
0.0
 40
0.0
 40
0.0
 40
0.0
 40
0.1
 40
0.1
 40
0.1
 40
0.1
 40
0.2
 40
0.2
 40
0.2
 40
0.2
 40
0.3
 40
0.3
 40
0.3
 40
0.3
 40
0.4
 40
0.4
 40
0.4
 40
0.4
 40
0.5
 40
0.5
 40
0.5
 40
0.5
 40
0.6
 40
0.6
 40
0.6
 40
0.6
 40
0.7
 40
0.7
 40
0.7
 40
0.7
 40
0.8
 40
0.8
 40
0.8
 40
0.8
 40
1.0
 40
1.0
 40
1.0
 40
1.0
 10
-3.75279
 20
0.52927
 30
0.0
 10
-3.75279
 20
0.52927
 30
0.0
 10
-3.75279
 20
0.52927
 30
0.0
 10
-3.75279
 20
0.52927
 30
0.0
 10
-3.75279
 20
0.52927
 30
0.0
 10
-3.78111
 20
0.51522
 30
0.0
 10
-3.80085
 20
0.50881
 30
0.0
 10
-3.81657
 20
0.49705
 30
0.0
 10
-3.81657
 20
0.49705
 30
0.0
 10
-3.93175
 20
0.41093
 30
0.0
 10
-4.05945
 20
0.35311
 30
0.0
 10
-4.19927
 20
0.32003
 30
0.0
 10
-4.19927
 20
0.32003
 30
0.0
 10
-4.22888
 20
0.31303
 30
0.0
 10
-4.25958
 20
0.30205
 30
0.0
 10
-4.2843
 20
0.28497
 30
0.0
 10
-4.2843
 20
0.28497
 30
0.0
 10
-4.33285
 20
0.25138
 30
0.0
 10
-4.35047
 20
0.19918
 30
0.0
 10
-4.31626
 20
0.15146
 30
0.0
 10
-4.31626
 20
0.15146
 30
0.0
 10
-4.30473
 20
0.13537
 30
0.0
 10
-4.24615
 20
0.13697
 30
0.0
 10
-4.21926
 20
0.15056
 30
0.0
 10
-4.21926
 20
0.15056
 30
0.0
 10
-4.07803
 20
0.22206
 30
0.0
 10
-3.93302
 20
0.27634
 30
0.0
 10
-3.77427
 20
0.29455
 30
0.0
 10
-3.77427
 20
0.29455
 30
0.0
 10
-3.75038
 20
0.29727
 30
0.0
 10
-3.71208
 20
0.33931
 30
0.0
 10
-3.71307
 20
0.36174
 30
0.0
 10
-3.71307
 20
0.36174
 30
0.0
 10
-3.71544
 20
0.41581
 30
0.0
 10
-3.73715
 20
0.46904
 30
0.0
 10
-3.75279
 20
0.52927
 30
0.0
  0
SPLINE
  5
4D
330
1F
100
AcDbEntity
  8
Layer 1
 62
     5
370
    53
100
AcDbSpline
210
0.0
220
0.0
230
1.0
 70
    11
 71
     3
 72
    44
 73
    40
 74
     0
 42
0.0000000001
 43
0.0000000001
 12
1.0
 22
0.0
 32
0.0
 13
1.0
 23
0.0
 33
0.0
 40
0.0
 40
0.0
 40
0.0
 40
0.0
 40
0.0909090909090909
 40
0.0909090909090909
 40
0.0909090909090909
 40
0.0909090909090909
 40
0.1818181818181818
 40
0.1818181818181818
 40
0.1818181818181818
 40
0.1818181818181818
 40
0.2727272727272727
 40
0.2727272727272727
 40
0.2727272727272727
 40
0.2727272727272727
 40
0.3636363636363636
 40
0.3636363636363636
 40
0.3636363636363636
 40
0.3636363636363636
 40
0.4545454545454545
 40
0.4545454545454545
 40
0.4545454545454545
 40
0.4545454545454545
 40
0.5454545454545454
 40
0.5454545454545454
 40
0.5454545454545454
 40
0.5454545454545454
 40
0.6363636363636364
 40
0.6363636363636364
 40
0.6363636363636364
 40
0.6363636363636364
 40
0.7272727272727273
 40
0.7272727272727273
 40
0.7272727272727273
 40
0.7272727272727273
 40
0.8181818181818182
 40
0.8181818181818182
 40
0.8181818181818182
 40
0.8181818181818182
 40
1.0
 40
1.0
 40
1.0
 40
1.0
 10
-4.09856
 20
2.34622
 30
0.0
 10
-4.09856
 20
2.34622
 30
0.0
 10
-4.09856
 20
2.34622
 30
0.0
 10
-4.09856
 20
2.34622
 30
0.0
 10
-4.09856
 20
2.34622
 30
0.0
 10
-4.06351
 20
2.33844
 30
0.0
 10
-4.03474
 20
2.32663
 30
0.0
 10
-4.00593
 20
2.32658
 30
0.0
 10
-4.00593
 20
2.32658
 30
0.0
 10
-3.87897
 20
2.32632
 30
0.0
 10
-3.7548
 20
2.32226
 30
0.0
 10
-3.64814
 20
2.23676
 30
0.0
 10
-3.64814
 20
2.23676
 30
0.0
 10
-3.62703
 20
2.21984
 30
0.0
 10
-3.58995
 20
2.21798
 30
0.0
 10
-3.5603
 20
2.21811
 30
0.0
 10
-3.5603
 20
2.21811
 30
0.0
 10
-3.54003
 20
2.21821
 30
0.0
 10
-3.51186
 20
2.22818
 30
0.0
 10
-3.50111
 20
2.24346
 30
0.0
 10
-3.50111
 20
2.24346
 30
0.0
 10
-3.46785
 20
2.29084
 30
0.0
 10
-3.44124
 20
2.34291
 30
0.0
 10
-3.41142
 20
2.39419
 30
0.0
 10
-3.41142
 20
2.39419
 30
0.0
 10
-3.42309
 20
2.40181
 30
0.0
 10
-3.43145
 20
2.41192
 30
0.0
 10
-3.4401
 20
2.41218
 30
0.0
 10
-3.4401
 20
2.41218
 30
0.0
 10
-3.62198
 20
2.41781
 30
0.0
 10
-3.79726
 20
2.45197
 30
0.0
 10
-3.96683
 20
2.52005
 30
0.0
 10
-3.96683
 20
2.52005
 30
0.0
 10
-3.98649
 20
2.52793
 30
0.0
 10
-4.03269
 20
2.50548
 30
0.0
 10
-4.04661
 20
2.48411
 30
0.0
 10
-4.04661
 20
2.48411
 30
0.0
 10
-4.07094
 20
2.4467
 30
0.0
 10
-4.07978
 20
2.39918
 30
0.0
 10
-4.09856
 20
2.34622
 30
0.0
  0
SPLINE
  5
4E
330
1F
100
AcDbEntity
  8
Layer 1
 62
     5
370
    53
100
AcDbSpline
210
0.0
220
0.0
230
1.0
 70
    11
 71
     3
 72
    40
 73
    36
 74
     0
 42
0.0000000001
 43
0.0000000001
 12
1.0
 22
0.0
 32
0.0
 13
1.0
 23
0.0
 33
0.0
 40
0.0
 40
0.0
 40
0.0
 40
0.0
 40
0.1
 40
0.1
 40
0.1
 40
0.1
 40
0.2
 40
0.2
 40
0.2
 40
0.2
 40
0.3
 40
0.3
 40
0.3
 40
0.3
 40
0.4
 40
0.4
 40
0.4
 40
0.4
 40
0.5
 40
0.5
 40
0.5
 40
0.5
 40
0.6
 40
0.6
 40
0.6
 40
0.6
 40
0.7
 40
0.7
 40
0.7
 40
0.7
 40
0.8
 40
0.8
 40
0.8
 40
0.8
 40
1.0
 40
1.0
 40
1.0
 40
1.0
 10
-5.68638
 20
1.03619
 30
0.0
 10
-5.68638
 20
1.03619
 30
0.0
 10
-5.68638
 20
1.03619
 30
0.0
 10
-5.68638
 20
1.03619
 30
0.0
 10
-5.68638
 20
1.03619
 30
0.0
 10
-5.66532
 20
1.02934
 30
0.0
 10
-5.65826
 20
1.02578
 30
0.0
 10
-5.65092
 20
1.025
 30
0.0
 10
-5.65092
 20
1.025
 30
0.0
 10
-5.64072
 20
1.02392
 30
0.0
 10
-5.6295
 20
1.02242
 30
0.0
 10
-5.62007
 20
1.02542
 30
0.0
 10
-5.62007
 20
1.02542
 30
0.0
 10
-5.454
 20
1.07841
 30
0.0
 10
-5.28522
 20
1.10285
 30
0.0
 10
-5.11006
 20
1.08831
 30
0.0
 10
-5.11006
 20
1.08831
 30
0.0
 10
-5.08774
 20
1.08645
 30
0.0
 10
-5.04773
 20
1.12603
 30
0.0
 10
-5.03975
 20
1.15339
 30
0.0
 10
-5.03975
 20
1.15339
 30
0.0
 10
-5.00915
 20
1.25794
 30
0.0
 10
-5.09761
 20
1.33475
 30
0.0
 10
-5.20878
 20
1.2899
 30
0.0
 10
-5.20878
 20
1.2899
 30
0.0
 10
-5.3438
 20
1.23541
 30
0.0
 10
-5.47786
 20
1.22592
 30
0.0
 10
-5.61835
 20
1.24631
 30
0.0
 10
-5.61835
 20
1.24631
 30
0.0
 10
-5.63831
 20
1.24923
 30
0.0
 10
-5.6599
 20
1.24073
 30
0.0
 10
-5.69631
 20
1.23509
 30
0.0
 10
-5.69631
 20
1.23509
 30
0.0
 10
-5.616
 20
1.1658
 30
0.0
 10
-5.63274
 20
1.10304
 30
0.0
 10
-5.68638
 20
1.03619
 30
0.0
  0
SPLINE
  5
4F
330
1F
100
AcDbEntity
  8
Layer 1
 62
     5
370
    53
100
AcDbSpline
210
0.0
220
0.0
230
1.0
 70
    11
 71
     3
 72
    52
 73
    48
 74
     0
 42
0.0000000001
 43
0.0000000001
 12
1.0
 22
0.0
 32
0.0
 13
1.0
 23
0.0
 33
0.0
 40
0.0
 40
0.0
 40
0.0
 40
0.0
 40
0.0769230769230769
 40
0.0769230769230769
 40
0.0769230769230769
 40
0.0769230769230769
 40
0.1538461538461539
 40
0.1538461538461539
 40
0.1538461538461539
 40
0.1538461538461539
 40
0.2307692307692308
 40
0.2307692307692308
 40
0.2307692307692308
 40
0.2307692307692308
 40
0.3076923076923077
 40
0.3076923076923077
 40
0.3076923076923077
 40
0.3076923076923077
 40
0.3846153846153846
 40
0.3846153846153846
 40
0.3846153846153846
 40
0.3846153846153846
 40
0.4615384615384616
 40
0.4615384615384616
 40
0.4615384615384616
 40
0.4615384615384616
 40
0.5384615384615384
 40
0.5384615384615384
 40
0.5384615384615384
 40
0.5384615384615384
 40
0.6153846153846154
 40
0.6153846153846154
 40
0.6153846153846154
 40
0.6153846153846154
 40
0.6923076923076923
 40
0.6923076923076923
 40
0.6923076923076923
 40
0.6923076923076923
 40
0.7692307692307693
 40
0.7692307692307693
 40
0.7692307692307693
 40
0.7692307692307693
 40
0.8461538461538461
 40
0.8461538461538461
 40
0.8461538461538461
 40
0.8461538461538461
 40
1.0
 40
1.0
 40
1.0
 40
1.0
 10
-4.77087
 20
1.85674
 30
0.0
 10
-4.77087
 20
1.85674
 30
0.0
 10
-4.77087
 20
1.85674
 30
0.0
 10
-4.77087
 20
1.85674
 30
0.0
 10
-4.77087
 20
1.85674
 30
0.0
 10
-4.78931
 20
1.85674
 30
0.0
 10
-4.80503
 20
1.85852
 30
0.0
 10
-4.82019
 20
1.8564
 30
0.0
 10
-4.82019
 20
1.8564
 30
0.0
 10
-4.87742
 20
1.84834
 30
0.0
 10
-4.94354
 20
1.7695
 30
0.0
 10
-4.93338
 20
1.71886
 30
0.0
 10
-4.93338
 20
1.71886
 30
0.0
 10
-4.91665
 20
1.6354
 30
0.0
 10
-4.85755
 20
1.66848
 30
0.0
 10
-4.80543
 20
1.67137
 30
0.0
 10
-4.80543
 20
1.67137
 30
0.0
 10
-4.69801
 20
1.6774
 30
0.0
 10
-4.58963
 20
1.68475
 30
0.0
 10
-4.48279
 20
1.67664
 30
0.0
 10
-4.48279
 20
1.67664
 30
0.0
 10
-4.39652
 20
1.67011
 30
0.0
 10
-4.31195
 20
1.64137
 30
0.0
 10
-4.22652
 20
1.62316
 30
0.0
 10
-4.22652
 20
1.62316
 30
0.0
 10
-4.14449
 20
1.60567
 30
0.0
 10
-4.12023
 20
1.63261
 30
0.0
 10
-4.14254
 20
1.71147
 30
0.0
 10
-4.14254
 20
1.71147
 30
0.0
 10
-4.14754
 20
1.72909
 30
0.0
 10
-4.1409
 20
1.75003
 30
0.0
 10
-4.13949
 20
1.7694
 30
0.0
 10
-4.13949
 20
1.7694
 30
0.0
 10
-4.13764
 20
1.79542
 30
0.0
 10
-4.12464
 20
1.83418
 30
0.0
 10
-4.13643
 20
1.84436
 30
0.0
 10
-4.13643
 20
1.84436
 30
0.0
 10
-4.15314
 20
1.8588
 30
0.0
 10
-4.18839
 20
1.85617
 30
0.0
 10
-4.21515
 20
1.85397
 30
0.0
 10
-4.21515
 20
1.85397
 30
0.0
 10
-4.30957
 20
1.84622
 30
0.0
 10
-4.40379
 20
1.82785
 30
0.0
 10
-4.49803
 20
1.82816
 30
0.0
 10
-4.49803
 20
1.82816
 30
0.0
 10
-4.59003
 20
1.82847
 30
0.0
 10
-4.68195
 20
1.84671
 30
0.0
 10
-4.77087
 20
1.85674
 30
0.0
  0
SPLINE
  5
50
330
1F
100
AcDbEntity
  8
Layer 1
 62
     5
370
    53
100
AcDbSpline
210
0.0
220
0.0
230
1.0
 70
    11
 71
     3
 72
    52
 73
    48
 74
     0
 42
0.0000000001
 43
0.0000000001
 12
1.0
 22
0.0
 32
0.0
 13
1.0
 23
0.0
 33
0.0
 40
0.0
 40
0.0
 40
0.0
 40
0.0
 40
0.0769230769230769
 40
0.0769230769230769
 40
0.0769230769230769
 40
0.0769230769230769
 40
0.1538461538461539
 40
0.1538461538461539
 40
0.1538461538461539
 40
0.1538461538461539
 40
0.2307692307692308
 40
0.2307692307692308
 40
0.2307692307692308
 40
0.2307692307692308
 40
0.3076923076923077
 40
0.3076923076923077
 40
0.3076923076923077
 40
0.3076923076923077
 40
0.3846153846153846
 40
0.3846153846153846
 40
0.3846153846153846
 40
0.3846153846153846
 40
0.4615384615384616
 40
0.4615384615384616
 40
0.4615384615384616
 40
0.4615384615384616
 40
0.5384615384615384
 40
0.5384615384615384
 40
0.5384615384615384
 40
0.5384615384615384
 40
0.6153846153846154
 40
0.6153846153846154
 40
0.6153846153846154
 40
0.6153846153846154
 40
0.6923076923076923
 40
0.6923076923076923
 40
0.6923076923076923
 40
0.6923076923076923
 40
0.7692307692307693
 40
0.7692307692307693
 40
0.7692307692307693
 40
0.7692307692307693
 40
0.8461538461538461
 40
0.8461538461538461
 40
0.8461538461538461
 40
0.8461538461538461
 40
1.0
 40
1.0
 40
1.0
 40
1.0
 10
-2.78137
 20
1.15466
 30
0.0
 10
-2.78137
 20
1.15466
 30
0.0
 10
-2.78137
 20
1.15466
 30
0.0
 10
-2.78137
 20
1.15466
 30
0.0
 10
-2.78137
 20
1.15466
 30
0.0
 10
-2.77887
 20
1.1536
 30
0.0
 10
-2.77602
 20
1.15117
 30
0.0
 10
-2.77422
 20
1.15177
 30
0.0
 10
-2.77422
 20
1.15177
 30
0.0
 10
-2.65137
 20
1.19357
 30
0.0
 10
-2.53916
 20
1.26985
 30
0.0
 10
-2.40232
 20
1.26649
 30
0.0
 10
-2.40232
 20
1.26649
 30
0.0
 10
-2.4006
 20
1.26646
 30
0.0
 10
-2.39896
 20
1.27021
 30
0.0
 10
-2.39705
 20
1.27192
 30
0.0
 10
-2.39705
 20
1.27192
 30
0.0
 10
-2.34147
 20
1.32214
 30
0.0
 10
-2.33903
 20
1.38349
 30
0.0
 10
-2.37965
 20
1.46172
 30
0.0
 10
-2.37965
 20
1.46172
 30
0.0
 10
-2.41732
 20
1.53427
 30
0.0
 10
-2.47048
 20
1.52329
 30
0.0
 10
-2.52982
 20
1.50082
 30
0.0
 10
-2.52982
 20
1.50082
 30
0.0
 10
-2.54316
 20
1.49575
 30
0.0
 10
-2.55711
 20
1.49236
 30
0.0
 10
-2.54967
 20
1.49461
 30
0.0
 10
-2.54967
 20
1.49461
 30
0.0
 10
-2.56533
 20
1.55595
 30
0.0
 10
-2.57733
 20
1.61194
 30
0.0
 10
-2.59422
 20
1.66641
 30
0.0
 10
-2.59422
 20
1.66641
 30
0.0
 10
-2.61189
 20
1.72348
 30
0.0
 10
-2.66193
 20
1.73535
 30
0.0
 10
-2.70501
 20
1.69553
 30
0.0
 10
-2.70501
 20
1.69553
 30
0.0
 10
-2.76612
 20
1.63907
 30
0.0
 10
-2.73369
 20
1.48782
 30
0.0
 10
-2.65257
 20
1.46182
 30
0.0
 10
-2.65257
 20
1.46182
 30
0.0
 10
-2.70564
 20
1.4458
 30
0.0
 10
-2.77658
 20
1.45485
 30
0.0
 10
-2.78059
 20
1.37529
 30
0.0
 10
-2.78059
 20
1.37529
 30
0.0
 10
-2.78422
 20
1.30398
 30
0.0
 10
-2.78137
 20
1.23235
 30
0.0
 10
-2.78137
 20
1.15466
 30
0.0
  0
SPLINE
  5
51
330
1F
100
AcDbEntity
  8
Layer 1
 62
     5
370
    53
100
AcDbSpline
210
0.0
220
0.0
230
1.0
 70
    11
 71
     3
 72
    44
 73
    40
 74
     0
 42
0.0000000001
 43
0.0000000001
 12
1.0
 22
0.0
 32
0.0
 13
1.0
 23
0.0
 33
0.0
 40
0.0
 40
0.0
 40
0.0
 40
0.0
 40
0.0909090909090909
 40
0.0909090909090909
 40
0.0909090909090909
 40
0.0909090909090909
 40
0.1818181818181818
 40
0.1818181818181818
 40
0.1818181818181818
 40
0.1818181818181818
 40
0.2727272727272727
 40
0.2727272727272727
 40
0.2727272727272727
 40
0.2727272727272727
 40
0.3636363636363636
 40
0.3636363636363636
 40
0.3636363636363636
 40
0.3636363636363636
 40
0.4545454545454545
 40
0.4545454545454545
 40
0.4545454545454545
 40
0.4545454545454545
 40
0.5454545454545454
 40
0.5454545454545454
 40
0.5454545454545454
 40
0.5454545454545454
 40
0.6363636363636364
 40
0.6363636363636364
 40
0.6363636363636364
 40
0.6363636363636364
 40
0.7272727272727273
 40
0.7272727272727273
 40
0.7272727272727273
 40
0.7272727272727273
 40
0.8181818181818182
 40
0.8181818181818182
 40
0.8181818181818182
 40
0.8181818181818182
 40
1.0
 40
1.0
 40
1.0
 40
1.0
 10
-1.43275
 20
1.05307
 30
0.0
 10
-1.43275
 20
1.05307
 30
0.0
 10
-1.43275
 20
1.05307
 30
0.0
 10
-1.43275
 20
1.05307
 30
0.0
 10
-1.43275
 20
1.05307
 30
0.0
 10
-1.47747
 20
1.05307
 30
0.0
 10
-1.51877
 20
1.05053
 30
0.0
 10
-1.55967
 20
1.05353
 30
0.0
 10
-1.55967
 20
1.05353
 30
0.0
 10
-1.65728
 20
1.06071
 30
0.0
 10
-1.75568
 20
1.04674
 30
0.0
 10
-1.84236
 20
1.1235
 30
0.0
 10
-1.84236
 20
1.1235
 30
0.0
 10
-1.90371
 20
1.17784
 30
0.0
 10
-1.99206
 20
1.11841
 30
0.0
 10
-1.99364
 20
1.0342
 30
0.0
 10
-1.99364
 20
1.0342
 30
0.0
 10
-1.99442
 20
0.99353
 30
0.0
 10
-2.00065
 20
0.95296
 30
0.0
 10
-2.0046
 20
0.91235
 30
0.0
 10
-2.0046
 20
0.91235
 30
0.0
 10
-2.0079
 20
0.87824
 30
0.0
 10
-2.01148
 20
0.84414
 30
0.0
 10
-2.01494
 20
0.81003
 30
0.0
 10
-2.01494
 20
0.81003
 30
0.0
 10
-1.97571
 20
0.80675
 30
0.0
 10
-1.93587
 20
0.7976
 30
0.0
 10
-1.89729
 20
0.80134
 30
0.0
 10
-1.89729
 20
0.80134
 30
0.0
 10
-1.79254
 20
0.81148
 30
0.0
 10
-1.68861
 20
0.83429
 30
0.0
 10
-1.58378
 20
0.83894
 30
0.0
 10
-1.58378
 20
0.83894
 30
0.0
 10
-1.40632
 20
0.84682
 30
0.0
 10
-1.40609
 20
0.84256
 30
0.0
 10
-1.42313
 20
1.02097
 30
0.0
 10
-1.42313
 20
1.02097
 30
0.0
 10
-1.42381
 20
1.02826
 30
0.0
 10
-1.42731
 20
1.03524
 30
0.0
 10
-1.43275
 20
1.05307
 30
0.0
  0
SPLINE
  5
52
330
1F
100
AcDbEntity
  8
Layer 1
 62
     5
370
    53
100
AcDbSpline
210
0.0
220
0.0
230
1.0
 70
    11
 71
     3
 72
    48
 73
    44
 74
     0
 42
0.0000000001
 43
0.0000000001
 12
1.0
 22
0.0
 32
0.0
 13
1.0
 23
0.0
 33
0.0
 40
0.0
 40
0.0
 40
0.0
 40
0.0
 40
0.0833333333333333
 40
0.0833333333333333
 40
0.0833333333333333
 40
0.0833333333333333
 40
0.1666666666666667
 40
0.1666666666666667
 40
0.1666666666666667
 40
0.1666666666666667
 40
0.25
 40
0.25
 40
0.25
 40
0.25
 40
0.3333333333333333
 40
0.3333333333333333
 40
0.3333333333333333
 40
0.3333333333333333
 40
0.4166666666666667
 40
0.4166666666666667
 40
0.4166666666666667
 40
0.4166666666666667
 40
0.5
 40
0.5
 40
0.5
 40
0.5
 40
0.5833333333333334
 40
0.5833333333333334
 40
0.5833333333333334
 40
0.5833333333333334
 40
0.6666666666666666
 40
0.6666666666666666
 40
0.6666666666666666
 40
0.6666666666666666
 40
0.75
 40
0.75
 40
0.75
 40
0.75
 40
0.8333333333333334
 40
0.8333333333333334
 40
0.8333333333333334
 40
0.8333333333333334
 40
1.0
 40
1.0
 40
1.0
 40
1.0
 10
-4.62447
 20
0.75571
 30
0.0
 10
-4.62447
 20
0.75571
 30
0.0
 10
-4.62447
 20
0.75571
 30
0.0
 10
-4.62447
 20
0.75571
 30
0.0
 10
-4.62447
 20
0.75571
 30
0.0
 10
-4.63992
 20
0.75685
 30
0.0
 10
-4.65591
 20
0.76109
 30
0.0
 10
-4.67067
 20
0.75846
 30
0.0
 10
-4.67067
 20
0.75846
 30
0.0
 10
-4.70081
 20
0.75316
 30
0.0
 10
-4.75262
 20
0.74949
 30
0.0
 10
-4.75595
 20
0.73564
 30
0.0
 10
-4.75595
 20
0.73564
 30
0.0
 10
-4.76759
 20
0.68719
 30
0.0
 10
-4.7687
 20
0.63345
 30
0.0
 10
-4.75904
 20
0.58467
 30
0.0
 10
-4.75904
 20
0.58467
 30
0.0
 10
-4.75674
 20
0.57296
 30
0.0
 10
-4.69639
 20
0.56457
 30
0.0
 10
-4.66433
 20
0.56829
 30
0.0
 10
-4.66433
 20
0.56829
 30
0.0
 10
-4.44219
 20
0.59413
 30
0.0
 10
-4.2203
 20
0.62254
 30
0.0
 10
-3.99887
 20
0.65374
 30
0.0
 10
-3.99887
 20
0.65374
 30
0.0
 10
-3.97929
 20
0.6565
 30
0.0
 10
-3.94963
 20
0.68394
 30
0.0
 10
-3.94825
 20
0.70171
 30
0.0
 10
-3.94825
 20
0.70171
 30
0.0
 10
-3.94357
 20
0.76233
 30
0.0
 10
-3.95178
 20
0.82383
 30
0.0
 10
-3.95061
 20
0.88488
 30
0.0
 10
-3.95061
 20
0.88488
 30
0.0
 10
-3.94956
 20
0.94123
 30
0.0
 10
-3.97495
 20
0.95413
 30
0.0
 10
-4.02276
 20
0.93589
 30
0.0
 10
-4.02276
 20
0.93589
 30
0.0
 10
-4.0997
 20
0.90656
 30
0.0
 10
-4.17594
 20
0.87535
 30
0.0
 10
-4.25274
 20
0.84563
 30
0.0
 10
-4.25274
 20
0.84563
 30
0.0
 10
-4.37264
 20
0.79928
 30
0.0
 10
-4.49142
 20
0.74791
 30
0.0
 10
-4.62447
 20
0.75571
 30
0.0
  0
SPLINE
  5
53
330
1F
100
AcDbEntity
  8
Layer 1
 62
     5
370
    53
100
AcDbSpline
210
0.0
220
0.0
230
1.0
 70
    11
 71
     3
 72
    52
 73
    48
 74
     0
 42
0.0000000001
 43
0.0000000001
 12
1.0
 22
0.0
 32
0.0
 13
1.0
 23
0.0
 33
0.0
 40
0.0
 40
0.0
 40
0.0
 40
0.0
 40
0.0769230769230769
 40
0.0769230769230769
 40
0.0769230769230769
 40
0.0769230769230769
 40
0.1538461538461539
 40
0.1538461538461539
 40
0.1538461538461539
 40
0.1538461538461539
 40
0.2307692307692308
 40
0.2307692307692308
 40
0.2307692307692308
 40
0.2307692307692308
 40
0.3076923076923077
 40
0.3076923076923077
 40
0.3076923076923077
 40
0.3076923076923077
 40
0.3846153846153846
 40
0.3846153846153846
 40
0.3846153846153846
 40
0.3846153846153846
 40
0.4615384615384616
 40
0.4615384615384616
 40
0.4615384615384616
 40
0.4615384615384616
 40
0.5384615384615384
 40
0.5384615384615384
 40
0.5384615384615384
 40
0.5384615384615384
 40
0.6153846153846154
 40
0.6153846153846154
 40
0.6153846153846154
 40
0.6153846153846154
 40
0.6923076923076923
 40
0.6923076923076923
 40
0.6923076923076923
 40
0.6923076923076923
 40
0.7692307692307693
 40
0.7692307692307693
 40
0.7692307692307693
 40
0.7692307692307693
 40
0.8461538461538461
 40
0.8461538461538461
 40
0.8461538461538461
 40
0.8461538461538461
 40
1.0
 40
1.0
 40
1.0
 40
1.0
 10
-3.46306
 20
2.09742
 30
0.0
 10
-3.46306
 20
2.09742
 30
0.0
 10
-3.46306
 20
2.09742
 30
0.0
 10
-3.46306
 20
2.09742
 30
0.0
 10
-3.46306
 20
2.09742
 30
0.0
 10
-3.41475
 20
2.09742
 30
0.0
 10
-3.36906
 20
2.09481
 30
0.0
 10
-3.32374
 20
2.09791
 30
0.0
 10
-3.32374
 20
2.09791
 30
0.0
 10
-3.17681
 20
2.10804
 30
0.0
 10
-3.04695
 20
2.08072
 30
0.0
 10
-2.95606
 20
1.94973
 30
0.0
 10
-2.95606
 20
1.94973
 30
0.0
 10
-2.93295
 20
1.91642
 30
0.0
 10
-2.8995
 20
1.88978
 30
0.0
 10
-2.86886
 20
1.86221
 30
0.0
 10
-2.86886
 20
1.86221
 30
0.0
 10
-2.81983
 20
1.81813
 30
0.0
 10
-2.77473
 20
1.81653
 30
0.0
 10
-2.73169
 20
1.87408
 30
0.0
 10
-2.73169
 20
1.87408
 30
0.0
 10
-2.71551
 20
1.89575
 30
0.0
 10
-2.69099
 20
1.91386
 30
0.0
 10
-2.66653
 20
1.92619
 30
0.0
 10
-2.66653
 20
1.92619
 30
0.0
 10
-2.60647
 20
1.95637
 30
0.0
 10
-2.59356
 20
2.00394
 30
0.0
 10
-2.63088
 20
2.0522
 30
0.0
 10
-2.63088
 20
2.0522
 30
0.0
 10
-2.66188
 20
2.09227
 30
0.0
 10
-2.70599
 20
2.13775
 30
0.0
 10
-2.75173
 20
2.14814
 30
0.0
 10
-2.75173
 20
2.14814
 30
0.0
 10
-2.92098
 20
2.18664
 30
0.0
 10
-3.08595
 20
2.23309
 30
0.0
 10
-3.23914
 20
2.31673
 30
0.0
 10
-3.23914
 20
2.31673
 30
0.0
 10
-3.25909
 20
2.32764
 30
0.0
 10
-3.28264
 20
2.33329
 30
0.0
 10
-3.30524
 20
2.33776
 30
0.0
 10
-3.30524
 20
2.33776
 30
0.0
 10
-3.37202
 20
2.35097
 30
0.0
 10
-3.43248
 20
2.31446
 30
0.0
 10
-3.44563
 20
2.24929
 30
0.0
 10
-3.44563
 20
2.24929
 30
0.0
 10
-3.45513
 20
2.20229
 30
0.0
 10
-3.4569
 20
2.15372
 30
0.0
 10
-3.46306
 20
2.09742
 30
0.0
  0
SPLINE
  5
54
330
1F
100
AcDbEntity
  8
Layer 1
 62
     5
370
    53
100
AcDbSpline
210
0.0
220
0.0
230
1.0
 70
    11
 71
     3
 72
    44
 73
    40
 74
     0
 42
0.0000000001
 43
0.0000000001
 12
1.0
 22
0.0
 32
0.0
 13
1.0
 23
0.0
 33
0.0
 40
0.0
 40
0.0
 40
0.0
 40
0.0
 40
0.0909090909090909
 40
0.0909090909090909
 40
0.0909090909090909
 40
0.0909090909090909
 40
0.1818181818181818
 40
0.1818181818181818
 40
0.1818181818181818
 40
0.1818181818181818
 40
0.2727272727272727
 40
0.2727272727272727
 40
0.2727272727272727
 40
0.2727272727272727
 40
0.3636363636363636
 40
0.3636363636363636
 40
0.3636363636363636
 40
0.3636363636363636
 40
0.4545454545454545
 40
0.4545454545454545
 40
0.4545454545454545
 40
0.4545454545454545
 40
0.5454545454545454
 40
0.5454545454545454
 40
0.5454545454545454
 40
0.5454545454545454
 40
0.6363636363636364
 40
0.6363636363636364
 40
0.6363636363636364
 40
0.6363636363636364
 40
0.7272727272727273
 40
0.7272727272727273
 40
0.7272727272727273
 40
0.7272727272727273
 40
0.8181818181818182
 40
0.8181818181818182
 40
0.8181818181818182
 40
0.8181818181818182
 40
1.0
 40
1.0
 40
1.0
 40
1.0
 10
-4.13116
 20
1.08745
 30
0.0
 10
-4.13116
 20
1.08745
 30
0.0
 10
-4.13116
 20
1.08745
 30
0.0
 10
-4.13116
 20
1.08745
 30
0.0
 10
-4.13116
 20
1.08745
 30
0.0
 10
-4.14093
 20
1.16039
 30
0.0
 10
-4.15998
 20
1.21404
 30
0.0
 10
-4.15214
 20
1.26339
 30
0.0
 10
-4.15214
 20
1.26339
 30
0.0
 10
-4.13688
 20
1.35973
 30
0.0
 10
-4.14438
 20
1.37416
 30
0.0
 10
-4.24236
 20
1.35901
 30
0.0
 10
-4.24236
 20
1.35901
 30
0.0
 10
-4.26511
 20
1.35553
 30
0.0
 10
-4.28758
 20
1.34866
 30
0.0
 10
-4.30952
 20
1.34134
 30
0.0
 10
-4.30952
 20
1.34134
 30
0.0
 10
-4.49425
 20
1.27977
 30
0.0
 10
-4.68072
 20
1.26127
 30
0.0
 10
-4.87257
 20
1.30814
 30
0.0
 10
-4.87257
 20
1.30814
 30
0.0
 10
-4.91513
 20
1.31853
 30
0.0
 10
-4.96237
 20
1.30963
 30
0.0
 10
-5.00868
 20
1.30963
 30
0.0
 10
-5.00868
 20
1.30963
 30
0.0
 10
-5.00868
 20
1.30963
 30
0.0
 10
-5.00868
 20
1.04831
 30
0.0
 10
-5.00868
 20
1.04831
 30
0.0
 10
-5.00868
 20
1.04831
 30
0.0
 10
-5.00085
 20
1.04756
 30
0.0
 10
-4.99044
 20
1.04392
 30
0.0
 10
-4.98146
 20
1.04606
 30
0.0
 10
-4.98146
 20
1.04606
 30
0.0
 10
-4.73528
 20
1.10513
 30
0.0
 10
-4.48854
 20
1.12066
 30
0.0
 10
-4.23858
 20
1.06722
 30
0.0
 10
-4.23858
 20
1.06722
 30
0.0
 10
-4.20353
 20
1.05976
 30
0.0
 10
-4.16233
 20
1.081
 30
0.0
 10
-4.13116
 20
1.08745
 30
0.0
  0
SPLINE
  5
55
330
1F
100
AcDbEntity
  8
Layer 1
 62
     5
370
    53
100
AcDbSpline
210
0.0
220
0.0
230
1.0
 70
    11
 71
     3
 72
    44
 73
    40
 74
     0
 42
0.0000000001
 43
0.0000000001
 12
1.0
 22
0.0
 32
0.0
 13
1.0
 23
0.0
 33
0.0
 40
0.0
 40
0.0
 40
0.0
 40
0.0
 40
0.0909090909090909
 40
0.0909090909090909
 40
0.0909090909090909
 40
0.0909090909090909
 40
0.1818181818181818
 40
0.1818181818181818
 40
0.1818181818181818
 40
0.1818181818181818
 40
0.2727272727272727
 40
0.2727272727272727
 40
0.2727272727272727
 40
0.2727272727272727
 40
0.3636363636363636
 40
0.3636363636363636
 40
0.3636363636363636
 40
0.3636363636363636
 40
0.4545454545454545
 40
0.4545454545454545
 40
0.4545454545454545
 40
0.4545454545454545
 40
0.5454545454545454
 40
0.5454545454545454
 40
0.5454545454545454
 40
0.5454545454545454
 40
0.6363636363636364
 40
0.6363636363636364
 40
0.6363636363636364
 40
0.6363636363636364
 40
0.7272727272727273
 40
0.7272727272727273
 40
0.7272727272727273
 40
0.7272727272727273
 40
0.8181818181818182
 40
0.8181818181818182
 40
0.8181818181818182
 40
0.8181818181818182
 40
1.0
 40
1.0
 40
1.0
 40
1.0
 10
-3.69913
 20
0.47302
 30
0.0
 10
-3.69913
 20
0.47302
 30
0.0
 10
-3.69913
 20
0.47302
 30
0.0
 10
-3.69913
 20
0.47302
 30
0.0
 10
-3.69913
 20
0.47302
 30
0.0
 10
-3.69701
 20
0.37701
 30
0.0
 10
-3.6594
 20
0.33763
 30
0.0
 10
-3.56838
 20
0.3467
 30
0.0
 10
-3.56838
 20
0.3467
 30
0.0
 10
-3.51844
 20
0.35169
 30
0.0
 10
-3.46764
 20
0.36662
 30
0.0
 10
-3.42132
 20
0.38656
 30
0.0
 10
-3.42132
 20
0.38656
 30
0.0
 10
-3.20191
 20
0.48103
 30
0.0
 10
-2.98329
 20
0.57736
 30
0.0
 10
-2.7662
 20
0.67702
 30
0.0
 10
-2.7662
 20
0.67702
 30
0.0
 10
-2.73726
 20
0.69029
 30
0.0
 10
-2.70099
 20
0.72546
 30
0.0
 10
-2.69995
 20
0.75176
 30
0.0
 10
-2.69995
 20
0.75176
 30
0.0
 10
-2.69874
 20
0.78305
 30
0.0
 10
-2.72508
 20
0.82396
 30
0.0
 10
-2.75168
 20
0.84589
 30
0.0
 10
-2.75168
 20
0.84589
 30
0.0
 10
-2.80044
 20
0.88609
 30
0.0
 10
-2.91801
 20
0.87186
 30
0.0
 10
-2.97369
 20
0.83662
 30
0.0
 10
-2.97369
 20
0.83662
 30
0.0
 10
-3.06034
 20
0.78181
 30
0.0
 10
-3.14614
 20
0.72218
 30
0.0
 10
-3.24
 20
0.68306
 30
0.0
 10
-3.24
 20
0.68306
 30
0.0
 10
-3.36548
 20
0.63071
 30
0.0
 10
-3.4984
 20
0.59635
 30
0.0
 10
-3.62792
 20
0.55363
 30
0.0
 10
-3.62792
 20
0.55363
 30
0.0
 10
-3.66785
 20
0.54046
 30
0.0
 10
-3.70913
 20
0.52681
 30
0.0
 10
-3.69913
 20
0.47302
 30
0.0
  0
SPLINE
  5
56
330
1F
100
AcDbEntity
  8
Layer 1
 62
     5
370
    53
100
AcDbSpline
210
0.0
220
0.0
230
1.0
 70
    11
 71
     3
 72
    52
 73
    48
 74
     0
 42
0.0000000001
 43
0.0000000001
 12
1.0
 22
0.0
 32
0.0
 13
1.0
 23
0.0
 33
0.0
 40
0.0
 40
0.0
 40
0.0
 40
0.0
 40
0.0769230769230769
 40
0.0769230769230769
 40
0.0769230769230769
 40
0.0769230769230769
 40
0.1538461538461539
 40
0.1538461538461539
 40
0.1538461538461539
 40
0.1538461538461539
 40
0.2307692307692308
 40
0.2307692307692308
 40
0.2307692307692308
 40
0.2307692307692308
 40
0.3076923076923077
 40
0.3076923076923077
 40
0.3076923076923077
 40
0.3076923076923077
 40
0.3846153846153846
 40
0.3846153846153846
 40
0.3846153846153846
 40
0.3846153846153846
 40
0.4615384615384616
 40
0.4615384615384616
 40
0.4615384615384616
 40
0.4615384615384616
 40
0.5384615384615384
 40
0.5384615384615384
 40
0.5384615384615384
 40
0.5384615384615384
 40
0.6153846153846154
 40
0.6153846153846154
 40
0.6153846153846154
 40
0.6153846153846154
 40
0.6923076923076923
 40
0.6923076923076923
 40
0.6923076923076923
 40
0.6923076923076923
 40
0.7692307692307693
 40
0.7692307692307693
 40
0.7692307692307693
 40
0.7692307692307693
 40
0.8461538461538461
 40
0.8461538461538461
 40
0.8461538461538461
 40
0.8461538461538461
 40
1.0
 40
1.0
 40
1.0
 40
1.0
 10
-2.79546
 20
0.88564
 30
0.0
 10
-2.79546
 20
0.88564
 30
0.0
 10
-2.79546
 20
0.88564
 30
0.0
 10
-2.79546
 20
0.88564
 30
0.0
 10
-2.79546
 20
0.88564
 30
0.0
 10
-2.79248
 20
0.9093
 30
0.0
 10
-2.78345
 20
0.94173
 30
0.0
 10
-2.78885
 20
0.94434
 30
0.0
 10
-2.78885
 20
0.94434
 30
0.0
 10
-2.84648
 20
0.97222
 30
0.0
 10
-2.81409
 20
1.01851
 30
0.0
 10
-2.81819
 20
1.05815
 30
0.0
 10
-2.81819
 20
1.05815
 30
0.0
 10
-2.82105
 20
1.08593
 30
0.0
 10
-2.83759
 20
1.13528
 30
0.0
 10
-2.84862
 20
1.13546
 30
0.0
 10
-2.84862
 20
1.13546
 30
0.0
 10
-2.91572
 20
1.13644
 30
0.0
 10
-2.99985
 20
1.14946
 30
0.0
 10
-3.04719
 20
1.11533
 30
0.0
 10
-3.04719
 20
1.11533
 30
0.0
 10
-3.22104
 20
0.98997
 30
0.0
 10
-3.41256
 20
0.94581
 30
0.0
 10
-3.62054
 20
0.94077
 30
0.0
 10
-3.62054
 20
0.94077
 30
0.0
 10
-3.68651
 20
0.93917
 30
0.0
 10
-3.75265
 20
0.92467
 30
0.0
 10
-3.81771
 20
0.91121
 30
0.0
 10
-3.81771
 20
0.91121
 30
0.0
 10
-3.8778
 20
0.89881
 30
0.0
 10
-3.91843
 20
0.85553
 30
0.0
 10
-3.91013
 20
0.79631
 30
0.0
 10
-3.91013
 20
0.79631
 30
0.0
 10
-3.90211
 20
0.73915
 30
0.0
 10
-3.87483
 20
0.67738
 30
0.0
 10
-3.79826
 20
0.6827
 30
0.0
 10
-3.79826
 20
0.6827
 30
0.0
 10
-3.73791
 20
0.68689
 30
0.0
 10
-3.67518
 20
0.69257
 30
0.0
 10
-3.61896
 20
0.71278
 30
0.0
 10
-3.61896
 20
0.71278
 30
0.0
 10
-3.48356
 20
0.76143
 30
0.0
 10
-3.35235
 20
0.82165
 30
0.0
 10
-3.21761
 20
0.87225
 30
0.0
 10
-3.21761
 20
0.87225
 30
0.0
 10
-3.08292
 20
0.92279
 30
0.0
 10
-2.9449
 20
0.94495
 30
0.0
 10
-2.79546
 20
0.88564
 30
0.0
  0
SPLINE
  5
57
330
1F
100
AcDbEntity
  8
Layer 1
 62
     5
370
    53
100
AcDbSpline
210
0.0
220
0.0
230
1.0
 70
    11
 71
     3
 72
    52
 73
    48
 74
     0
 42
0.0000000001
 43
0.0000000001
 12
1.0
 22
0.0
 32
0.0
 13
1.0
 23
0.0
 33
0.0
 40
0.0
 40
0.0
 40
0.0
 40
0.0
 40
0.0769230769230769
 40
0.0769230769230769
 40
0.0769230769230769
 40
0.0769230769230769
 40
0.1538461538461539
 40
0.1538461538461539
 40
0.1538461538461539
 40
0.1538461538461539
 40
0.2307692307692308
 40
0.2307692307692308
 40
0.2307692307692308
 40
0.2307692307692308
 40
0.3076923076923077
 40
0.3076923076923077
 40
0.3076923076923077
 40
0.3076923076923077
 40
0.3846153846153846
 40
0.3846153846153846
 40
0.3846153846153846
 40
0.3846153846153846
 40
0.4615384615384616
 40
0.4615384615384616
 40
0.4615384615384616
 40
0.4615384615384616
 40
0.5384615384615384
 40
0.5384615384615384
 40
0.5384615384615384
 40
0.5384615384615384
 40
0.6153846153846154
 40
0.6153846153846154
 40
0.6153846153846154
 40
0.6153846153846154
 40
0.6923076923076923
 40
0.6923076923076923
 40
0.6923076923076923
 40
0.6923076923076923
 40
0.7692307692307693
 40
0.7692307692307693
 40
0.7692307692307693
 40
0.7692307692307693
 40
0.8461538461538461
 40
0.8461538461538461
 40
0.8461538461538461
 40
0.8461538461538461
 40
1.0
 40
1.0
 40
1.0
 40
1.0
 10
-2.8203
 20
1.48324
 30
0.0
 10
-2.8203
 20
1.48324
 30
0.0
 10
-2.8203
 20
1.48324
 30
0.0
 10
-2.8203
 20
1.48324
 30
0.0
 10
-2.8203
 20
1.48324
 30
0.0
 10
-2.89713
 20
1.46164
 30
0.0
 10
-2.96244
 20
1.4464
 30
0.0
 10
-3.02555
 20
1.42464
 30
0.0
 10
-3.02555
 20
1.42464
 30
0.0
 10
-3.08835
 20
1.40299
 30
0.0
 10
-3.14707
 20
1.36795
 30
0.0
 10
-3.21078
 20
1.35067
 30
0.0
 10
-3.21078
 20
1.35067
 30
0.0
 10
-3.42089
 20
1.29362
 30
0.0
 10
-3.63128
 20
1.27664
 30
0.0
 10
-3.84014
 20
1.36186
 30
0.0
 10
-3.84014
 20
1.36186
 30
0.0
 10
-3.86993
 20
1.374
 30
0.0
 10
-3.90608
 20
1.37273
 30
0.0
 10
-3.93939
 20
1.37369
 30
0.0
 10
-3.93939
 20
1.37369
 30
0.0
 10
-4.06726
 20
1.37752
 30
0.0
 10
-4.13229
 20
1.28215
 30
0.0
 10
-4.09293
 20
1.156
 30
0.0
 10
-4.09293
 20
1.156
 30
0.0
 10
-4.0719
 20
1.08859
 30
0.0
 10
-4.03822
 20
1.04208
 30
0.0
 10
-3.96111
 20
1.05908
 30
0.0
 10
-3.96111
 20
1.05908
 30
0.0
 10
-3.85094
 20
1.0834
 30
0.0
 10
-3.73981
 20
1.10653
 30
0.0
 10
-3.63276
 20
1.14136
 30
0.0
 10
-3.63276
 20
1.14136
 30
0.0
 10
-3.43962
 20
1.20422
 30
0.0
 10
-3.24729
 20
1.2537
 30
0.0
 10
-3.04349
 20
1.19659
 30
0.0
 10
-3.04349
 20
1.19659
 30
0.0
 10
-3.01396
 20
1.18833
 30
0.0
 10
-2.98118
 20
1.17962
 30
0.0
 10
-2.95209
 20
1.18445
 30
0.0
 10
-2.95209
 20
1.18445
 30
0.0
 10
-2.90405
 20
1.19244
 30
0.0
 10
-2.83142
 20
1.16789
 30
0.0
 10
-2.82207
 20
1.24569
 30
0.0
 10
-2.82207
 20
1.24569
 30
0.0
 10
-2.81364
 20
1.31614
 30
0.0
 10
-2.8203
 20
1.38839
 30
0.0
 10
-2.8203
 20
1.48324
 30
0.0
  0
SPLINE
  5
58
330
1F
100
AcDbEntity
  8
Layer 1
 62
     5
370
    53
100
AcDbSpline
210
0.0
220
0.0
230
1.0
 70
    11
 71
     3
 72
    52
 73
    48
 74
     0
 42
0.0000000001
 43
0.0000000001
 12
1.0
 22
0.0
 32
0.0
 13
1.0
 23
0.0
 33
0.0
 40
0.0
 40
0.0
 40
0.0
 40
0.0
 40
0.0769230769230769
 40
0.0769230769230769
 40
0.0769230769230769
 40
0.0769230769230769
 40
0.1538461538461539
 40
0.1538461538461539
 40
0.1538461538461539
 40
0.1538461538461539
 40
0.2307692307692308
 40
0.2307692307692308
 40
0.2307692307692308
 40
0.2307692307692308
 40
0.3076923076923077
 40
0.3076923076923077
 40
0.3076923076923077
 40
0.3076923076923077
 40
0.3846153846153846
 40
0.3846153846153846
 40
0.3846153846153846
 40
0.3846153846153846
 40
0.4615384615384616
 40
0.4615384615384616
 40
0.4615384615384616
 40
0.4615384615384616
 40
0.5384615384615384
 40
0.5384615384615384
 40
0.5384615384615384
 40
0.5384615384615384
 40
0.6153846153846154
 40
0.6153846153846154
 40
0.6153846153846154
 40
0.6153846153846154
 40
0.6923076923076923
 40
0.6923076923076923
 40
0.6923076923076923
 40
0.6923076923076923
 40
0.7692307692307693
 40
0.7692307692307693
 40
0.7692307692307693
 40
0.7692307692307693
 40
0.8461538461538461
 40
0.8461538461538461
 40
0.8461538461538461
 40
0.8461538461538461
 40
1.0
 40
1.0
 40
1.0
 40
1.0
 10
-2.7562
 20
1.56862
 30
0.0
 10
-2.7562
 20
1.56862
 30
0.0
 10
-2.7562
 20
1.56862
 30
0.0
 10
-2.7562
 20
1.56862
 30
0.0
 10
-2.7562
 20
1.56862
 30
0.0
 10
-2.78229
 20
1.60897
 30
0.0
 10
-2.8048
 20
1.64822
 30
0.0
 10
-2.75363
 20
1.69432
 30
0.0
 10
-2.75363
 20
1.69432
 30
0.0
 10
-2.74048
 20
1.70617
 30
0.0
 10
-2.7589
 20
1.76147
 30
0.0
 10
-2.77374
 20
1.79137
 30
0.0
 10
-2.77374
 20
1.79137
 30
0.0
 10
-2.77893
 20
1.80181
 30
0.0
 10
-2.81735
 20
1.79891
 30
0.0
 10
-2.8401
 20
1.79674
 30
0.0
 10
-2.8401
 20
1.79674
 30
0.0
 10
-2.88585
 20
1.79239
 30
0.0
 10
-2.93109
 20
1.77997
 30
0.0
 10
-2.97678
 20
1.77865
 30
0.0
 10
-2.97678
 20
1.77865
 30
0.0
 10
-3.27873
 20
1.77
 30
0.0
 10
-3.57942
 20
1.77214
 30
0.0
 10
-3.86733
 20
1.88485
 30
0.0
 10
-3.86733
 20
1.88485
 30
0.0
 10
-3.9213
 20
1.90596
 30
0.0
 10
-4.0778
 20
1.81134
 30
0.0
 10
-4.09179
 20
1.75315
 30
0.0
 10
-4.09179
 20
1.75315
 30
0.0
 10
-4.09521
 20
1.73896
 30
0.0
 10
-4.09383
 20
1.72189
 30
0.0
 10
-4.08939
 20
1.70783
 30
0.0
 10
-4.08939
 20
1.70783
 30
0.0
 10
-4.05453
 20
1.59773
 30
0.0
 10
-3.97559
 20
1.54275
 30
0.0
 10
-3.86528
 20
1.57045
 30
0.0
 10
-3.86528
 20
1.57045
 30
0.0
 10
-3.63567
 20
1.62812
 30
0.0
 10
-3.40483
 20
1.6182
 30
0.0
 10
-3.17371
 20
1.59544
 30
0.0
 10
-3.17371
 20
1.59544
 30
0.0
 10
-3.11448
 20
1.58957
 30
0.0
 10
-3.05154
 20
1.57003
 30
0.0
 10
-3.00081
 20
1.53937
 30
0.0
 10
-3.00081
 20
1.53937
 30
0.0
 10
-2.8942
 20
1.47487
 30
0.0
 10
-2.8507
 20
1.47475
 30
0.0
 10
-2.7562
 20
1.56862
 30
0.0
  0
SPLINE
  5
59
330
1F
100
AcDbEntity
  8
Layer 1
 62
     5
370
    53
100
AcDbSpline
210
0.0
220
0.0
230
1.0
 70
    11
 71
     3
 72
    48
 73
    44
 74
     0
 42
0.0000000001
 43
0.0000000001
 12
1.0
 22
0.0
 32
0.0
 13
1.0
 23
0.0
 33
0.0
 40
0.0
 40
0.0
 40
0.0
 40
0.0
 40
0.0833333333333333
 40
0.0833333333333333
 40
0.0833333333333333
 40
0.0833333333333333
 40
0.1666666666666667
 40
0.1666666666666667
 40
0.1666666666666667
 40
0.1666666666666667
 40
0.25
 40
0.25
 40
0.25
 40
0.25
 40
0.3333333333333333
 40
0.3333333333333333
 40
0.3333333333333333
 40
0.3333333333333333
 40
0.4166666666666667
 40
0.4166666666666667
 40
0.4166666666666667
 40
0.4166666666666667
 40
0.5
 40
0.5
 40
0.5
 40
0.5
 40
0.5833333333333334
 40
0.5833333333333334
 40
0.5833333333333334
 40
0.5833333333333334
 40
0.6666666666666666
 40
0.6666666666666666
 40
0.6666666666666666
 40
0.6666666666666666
 40
0.75
 40
0.75
 40
0.75
 40
0.75
 40
0.8333333333333334
 40
0.8333333333333334
 40
0.8333333333333334
 40
0.8333333333333334
 40
1.0
 40
1.0
 40
1.0
 40
1.0
 10
-1.42175
 20
1.41715
 30
0.0
 10
-1.42175
 20
1.41715
 30
0.0
 10
-1.42175
 20
1.41715
 30
0.0
 10
-1.42175
 20
1.41715
 30
0.0
 10
-1.42175
 20
1.41715
 30
0.0
 10
-1.42675
 20
1.49185
 30
0.0
 10
-1.43627
 20
1.5742
 30
0.0
 10
-1.43652
 20
1.65659
 30
0.0
 10
-1.43652
 20
1.65659
 30
0.0
 10
-1.43672
 20
1.72907
 30
0.0
 10
-1.47085
 20
1.75925
 30
0.0
 10
-1.53679
 20
1.74692
 30
0.0
 10
-1.53679
 20
1.74692
 30
0.0
 10
-1.6272
 20
1.73
 30
0.0
 10
-1.70877
 20
1.75708
 30
0.0
 10
-1.79388
 20
1.77855
 30
0.0
 10
-1.79388
 20
1.77855
 30
0.0
 10
-1.87334
 20
1.79857
 30
0.0
 10
-1.95627
 20
1.80573
 30
0.0
 10
-2.03807
 20
1.81521
 30
0.0
 10
-2.03807
 20
1.81521
 30
0.0
 10
-2.0872
 20
1.8209
 30
0.0
 10
-2.10591
 20
1.79855
 30
0.0
 10
-2.10012
 20
1.74579
 30
0.0
 10
-2.10012
 20
1.74579
 30
0.0
 10
-2.08553
 20
1.61287
 30
0.0
 10
-2.0717
 20
1.47955
 30
0.0
 10
-2.06649
 20
1.34604
 30
0.0
 10
-2.06649
 20
1.34604
 30
0.0
 10
-2.05899
 20
1.15456
 30
0.0
 10
-2.03117
 20
1.13926
 30
0.0
 10
-1.84942
 20
1.20287
 30
0.0
 10
-1.84942
 20
1.20287
 30
0.0
 10
-1.7443
 20
1.23972
 30
0.0
 10
-1.63085
 20
1.25884
 30
0.0
 10
-1.51956
 20
1.27015
 30
0.0
 10
-1.51956
 20
1.27015
 30
0.0
 10
-1.42362
 20
1.27987
 30
0.0
 10
-1.42082
 20
1.27181
 30
0.0
 10
-1.42175
 20
1.37067
 30
0.0
 10
-1.42175
 20
1.37067
 30
0.0
 10
-1.42185
 20
1.38356
 30
0.0
 10
-1.42175
 20
1.39648
 30
0.0
 10
-1.42175
 20
1.41715
 30
0.0
  0
SPLINE
  5
5A
330
1F
100
AcDbEntity
  8
Layer 1
 62
     5
370
    53
100
AcDbSpline
210
0.0
220
0.0
230
1.0
 70
    11
 71
     3
 72
    64
 73
    60
 74
     0
 42
0.0000000001
 43
0.0000000001
 12
1.0
 22
0.0
 32
0.0
 13
1.0
 23
0.0
 33
0.0
 40
0.0
 40
0.0
 40
0.0
 40
0.0
 40
0.0625
 40
0.0625
 40
0.0625
 40
0.0625
 40
0.125
 40
0.125
 40
0.125
 40
0.125
 40
0.1875
 40
0.1875
 40
0.1875
 40
0.1875
 40
0.25
 40
0.25
 40
0.25
 40
0.25
 40
0.3125
 40
0.3125
 40
0.3125
 40
0.3125
 40
0.375
 40
0.375
 40
0.375
 40
0.375
 40
0.4375
 40
0.4375
 40
0.4375
 40
0.4375
 40
0.5
 40
0.5
 40
0.5
 40
0.5
 40
0.5625
 40
0.5625
 40
0.5625
 40
0.5625
 40
0.625
 40
0.625
 40
0.625
 40
0.625
 40
0.6875
 40
0.6875
 40
0.6875
 40
0.6875
 40
0.75
 40
0.75
 40
0.75
 40
0.75
 40
0.8125
 40
0.8125
 40
0.8125
 40
0.8125
 40
0.875
 40
0.875
 40
0.875
 40
0.875
 40
1.0
 40
1.0
 40
1.0
 40
1.0
 10
-2.47284
 20
1.76728
 30
0.0
 10
-2.47284
 20
1.76728
 30
0.0
 10
-2.47284
 20
1.76728
 30
0.0
 10
-2.47284
 20
1.76728
 30
0.0
 10
-2.47284
 20
1.76728
 30
0.0
 10
-2.49041
 20
1.71659
 30
0.0
 10
-2.50636
 20
1.66525
 30
0.0
 10
-2.52603
 20
1.61538
 30
0.0
 10
-2.52603
 20
1.61538
 30
0.0
 10
-2.54469
 20
1.5681
 30
0.0
 10
-2.52154
 20
1.5452
 30
0.0
 10
-2.48132
 20
1.55487
 30
0.0
 10
-2.48132
 20
1.55487
 30
0.0
 10
-2.39748
 20
1.57495
 30
0.0
 10
-2.36645
 20
1.52084
 30
0.0
 10
-2.33199
 20
1.46503
 30
0.0
 10
-2.33199
 20
1.46503
 30
0.0
 10
-2.32199
 20
1.44886
 30
0.0
 10
-2.31017
 20
1.42805
 30
0.0
 10
-2.29442
 20
1.42224
 30
0.0
 10
-2.29442
 20
1.42224
 30
0.0
 10
-2.25855
 20
1.40906
 30
0.0
 10
-2.12123
 20
1.47937
 30
0.0
 10
-2.10451
 20
1.51464
 30
0.0
 10
-2.10451
 20
1.51464
 30
0.0
 10
-2.07469
 20
1.5775
 30
0.0
 10
-2.11096
 20
1.66512
 30
0.0
 10
-2.18589
 20
1.71073
 30
0.0
 10
-2.18589
 20
1.71073
 30
0.0
 10
-2.21439
 20
1.72809
 30
0.0
 10
-2.24844
 20
1.74
 30
0.0
 10
-2.27074
 20
1.76323
 30
0.0
 10
-2.27074
 20
1.76323
 30
0.0
 10
-2.3229
 20
1.81764
 30
0.0
 10
-2.37909
 20
1.8264
 30
0.0
 10
-2.44476
 20
1.79478
 30
0.0
 10
-2.44476
 20
1.79478
 30
0.0
 10
-2.44156
 20
1.83757
 30
0.0
 10
-2.43015
 20
1.88172
 30
0.0
 10
-2.43699
 20
1.92283
 30
0.0
 10
-2.43699
 20
1.92283
 30
0.0
 10
-2.44875
 20
1.9935
 30
0.0
 10
-2.50606
 20
2.01363
 30
0.0
 10
-2.56279
 20
1.97133
 30
0.0
 10
-2.56279
 20
1.97133
 30
0.0
 10
-2.60769
 20
1.93779
 30
0.0
 10
-2.6529
 20
1.90348
 30
0.0
 10
-2.69167
 20
1.86346
 30
0.0
 10
-2.69167
 20
1.86346
 30
0.0
 10
-2.70837
 20
1.84622
 30
0.0
 10
-2.71776
 20
1.81219
 30
0.0
 10
-2.71395
 20
1.78847
 30
0.0
 10
-2.71395
 20
1.78847
 30
0.0
 10
-2.71154
 20
1.77364
 30
0.0
 10
-2.67831
 20
1.75351
 30
0.0
 10
-2.65893
 20
1.75357
 30
0.0
 10
-2.65893
 20
1.75357
 30
0.0
 10
-2.5969
 20
1.75369
 30
0.0
 10
-2.53485
 20
1.76209
 30
0.0
 10
-2.47284
 20
1.76728
 30
0.0
  0
SPLINE
  5
5B
330
1F
100
AcDbEntity
  8
Layer 1
370
    53
100
AcDbSpline
210
0.0
220
0.0
230
1.0
 70
    11
 71
     3
 72
   236
 73
   232
 74
     0
 42
0.0000000001
 43
0.0000000001
 12
1.0
 22
0.0
 32
0.0
 13
1.0
 23
0.0
 33
0.0
 40
0.0
 40
0.0
 40
0.0
 40
0.0
 40
0.0169491525423729
 40
0.0169491525423729
 40
0.0169491525423729
 40
0.0169491525423729
 40
0.0338983050847458
 40
0.0338983050847458
 40
0.0338983050847458
 40
0.0338983050847458
 40
0.0508474576271186
 40
0.0508474576271186
 40
0.0508474576271186
 40
0.0508474576271186
 40
0.0677966101694915
 40
0.0677966101694915
 40
0.0677966101694915
 40
0.0677966101694915
 40
0.0847457627118644
 40
0.0847457627118644
 40
0.0847457627118644
 40
0.0847457627118644
 40
0.1016949152542373
 40
0.1016949152542373
 40
0.1016949152542373
 40
0.1016949152542373
 40
0.1186440677966102
 40
0.1186440677966102
 40
0.1186440677966102
 40
0.1186440677966102
 40
0.1355932203389831
 40
0.1355932203389831
 40
0.1355932203389831
 40
0.1355932203389831
 40
0.1525423728813559
 40
0.1525423728813559
 40
0.1525423728813559
 40
0.1525423728813559
 40
0.1694915254237288
 40
0.1694915254237288
 40
0.1694915254237288
 40
0.1694915254237288
 40
0.1864406779661017
 40
0.1864406779661017
 40
0.1864406779661017
 40
0.1864406779661017
 40
0.2033898305084746
 40
0.2033898305084746
 40
0.2033898305084746
 40
0.2033898305084746
 40
0.2203389830508475
 40
0.2203389830508475
 40
0.2203389830508475
 40
0.2203389830508475
 40
0.2372881355932203
 40
0.2372881355932203
 40
0.2372881355932203
 40
0.2372881355932203
 40
0.2542372881355932
 40
0.2542372881355932
 40
0.2542372881355932
 40
0.2542372881355932
 40
0.2711864406779661
 40
0.2711864406779661
 40
0.2711864406779661
 40
0.2711864406779661
 40
0.288135593220339
 40
0.288135593220339
 40
0.288135593220339
 40
0.288135593220339
 40
0.3050847457627119
 40
0.3050847457627119
 40
0.3050847457627119
 40
0.3050847457627119
 40
0.3220338983050847
 40
0.3220338983050847
 40
0.3220338983050847
 40
0.3220338983050847
 40
0.3389830508474576
 40
0.3389830508474576
 40
0.3389830508474576
 40
0.3389830508474576
 40
0.3559322033898305
 40
0.3559322033898305
 40
0.3559322033898305
 40
0.3559322033898305
 40
0.3728813559322034
 40
0.3728813559322034
 40
0.3728813559322034
 40
0.3728813559322034
 40
0.3898305084745763
 40
0.3898305084745763
 40
0.3898305084745763
 40
0.3898305084745763
 40
0.4067796610169492
 40
0.4067796610169492
 40
0.4067796610169492
 40
0.4067796610169492
 40
0.423728813559322
 40
0.423728813559322
 40
0.423728813559322
 40
0.423728813559322
 40
0.4406779661016949
 40
0.4406779661016949
 40
0.4406779661016949
 40
0.4406779661016949
 40
0.4576271186440678
 40
0.4576271186440678
 40
0.4576271186440678
 40
0.4576271186440678
 40
0.4745762711864407
 40
0.4745762711864407
 40
0.4745762711864407
 40
0.4745762711864407
 40
0.4915254237288136
 40
0.4915254237288136
 40
0.4915254237288136
 40
0.4915254237288136
 40
0.5084745762711864
 40
0.5084745762711864
 40
0.5084745762711864
 40
0.5084745762711864
 40
0.5254237288135594
 40
0.5254237288135594
 40
0.5254237288135594
 40
0.5254237288135594
 40
0.5423728813559322
 40
0.5423728813559322
 40
0.5423728813559322
 40
0.5423728813559322
 40
0.559322033898305
 40
0.559322033898305
 40
0.559322033898305
 40
0.559322033898305
 40
0.576271186440678
 40
0.576271186440678
 40
0.576271186440678
 40
0.576271186440678
 40
0.5932203389830508
 40
0.5932203389830508
 40
0.5932203389830508
 40
0.5932203389830508
 40
0.6101694915254238
 40
0.6101694915254238
 40
0.6101694915254238
 40
0.6101694915254238
 40
0.6271186440677966
 40
0.6271186440677966
 40
0.6271186440677966
 40
0.6271186440677966
 40
0.6440677966101694
 40
0.6440677966101694
 40
0.6440677966101694
 40
0.6440677966101694
 40
0.6610169491525424
 40
0.6610169491525424
 40
0.6610169491525424
 40
0.6610169491525424
 40
0.6779661016949152
 40
0.6779661016949152
 40
0.6779661016949152
 40
0.6779661016949152
 40
0.6949152542372882
 40
0.6949152542372882
 40
0.6949152542372882
 40
0.6949152542372882
 40
0.711864406779661
 40
0.711864406779661
 40
0.711864406779661
 40
0.711864406779661
 40
0.7288135593220338
 40
0.7288135593220338
 40
0.7288135593220338
 40
0.7288135593220338
 40
0.7457627118644068
 40
0.7457627118644068
 40
0.7457627118644068
 40
0.7457627118644068
 40
0.7627118644067796
 40
0.7627118644067796
 40
0.7627118644067796
 40
0.7627118644067796
 40
0.7796610169491526
 40
0.7796610169491526
 40
0.7796610169491526
 40
0.7796610169491526
 40
0.7966101694915254
 40
0.7966101694915254
 40
0.7966101694915254
 40
0.7966101694915254
 40
0.8135593220338984
 40
0.8135593220338984
 40
0.8135593220338984
 40
0.8135593220338984
 40
0.8305084745762712
 40
0.8305084745762712
 40
0.8305084745762712
 40
0.8305084745762712
 40
0.847457627118644
 40
0.847457627118644
 40
0.847457627118644
 40
0.847457627118644
 40
0.864406779661017
 40
0.864406779661017
 40
0.864406779661017
 40
0.864406779661017
 40
0.8813559322033898
 40
0.8813559322033898
 40
0.8813559322033898
 40
0.8813559322033898
 40
0.8983050847457628
 40
0.8983050847457628
 40
0.8983050847457628
 40
0.8983050847457628
 40
0.9152542372881356
 40
0.9152542372881356
 40
0.9152542372881356
 40
0.9152542372881356
 40
0.9322033898305084
 40
0.9322033898305084
 40
0.9322033898305084
 40
0.9322033898305084
 40
0.9491525423728814
 40
0.9491525423728814
 40
0.9491525423728814
 40
0.9491525423728814
 40
0.9661016949152542
 40
0.9661016949152542
 40
0.9661016949152542
 40
0.9661016949152542
 40
1.0
 40
1.0
 40
1.0
 40
1.0
 10
-1.7
 20
0.3
 30
0.0
 10
-1.7
 20
0.3
 30
0.0
 10
-1.7
 20
0.62859
 30
0.0
 10
-1.7
 20
0.62859
 30
0.0
 10
-1.7
 20
0.62859
 30
0.0
 10
-1.8339
 20
0.6351
 30
0.0
 10
-1.96778
 20
0.6417
 30
0.0
 10
-2.10088
 20
0.65574
 30
0.0
 10
-2.10088
 20
0.65574
 30
0.0
 10
-2.23968
 20
0.6704
 30
0.0
 10
-2.36517
 20
0.66288
 30
0.0
 10
-2.48357
 20
0.57927
 30
0.0
 10
-2.48357
 20
0.57927
 30
0.0
 10
-2.74692
 20
0.39328
 30
0.0
 10
-3.03843
 20
0.25575
 30
0.0
 10
-3.35815
 20
0.22792
 30
0.0
 10
-3.35815
 20
0.22792
 30
0.0
 10
-3.73741
 20
0.1949
 30
0.0
 10
-4.08185
 20
0.04596
 30
0.0
 10
-4.44414
 20
-0.04129
 30
0.0
 10
-4.44414
 20
-0.04129
 30
0.0
 10
-4.52656
 20
-0.06114
 30
0.0
 10
-4.60987
 20
-0.07721
 30
0.0
 10
-4.69279
 20
-0.09501
 30
0.0
 10
-4.69279
 20
-0.09501
 30
0.0
 10
-4.69279
 20
-0.09501
 30
0.0
 10
-4.97199
 20
-0.09501
 30
0.0
 10
-4.97199
 20
-0.09501
 30
0.0
 10
-4.97199
 20
-0.09501
 30
0.0
 10
-5.01592
 20
-0.06984
 30
0.0
 10
-5.06795
 20
-0.05313
 30
0.0
 10
-5.06909
 20
0.01217
 30
0.0
 10
-5.06909
 20
0.01217
 30
0.0
 10
-5.0703
 20
0.08124
 30
0.0
 10
-5.02963
 20
0.12273
 30
0.0
 10
-4.9761
 20
0.15281
 30
0.0
 10
-4.9761
 20
0.15281
 30
0.0
 10
-4.9314
 20
0.17795
 30
0.0
 10
-4.88379
 20
0.19911
 30
0.0
 10
-4.83548
 20
0.2165
 30
0.0
 10
-4.83548
 20
0.2165
 30
0.0
 10
-4.60021
 20
0.30112
 30
0.0
 10
-4.36383
 20
0.38261
 30
0.0
 10
-4.12899
 20
0.46839
 30
0.0
 10
-4.12899
 20
0.46839
 30
0.0
 10
-4.08954
 20
0.48279
 30
0.0
 10
-4.0557
 20
0.51266
 30
0.0
 10
-4.01927
 20
0.53539
 30
0.0
 10
-4.01927
 20
0.53539
 30
0.0
 10
-4.0231
 20
0.54508
 30
0.0
 10
-4.02691
 20
0.55479
 30
0.0
 10
-4.03073
 20
0.56448
 30
0.0
 10
-4.03073
 20
0.56448
 30
0.0
 10
-4.10386
 20
0.55733
 30
0.0
 10
-4.18003
 20
0.56087
 30
0.0
 10
-4.24964
 20
0.54123
 30
0.0
 10
-4.24964
 20
0.54123
 30
0.0
 10
-4.63628
 20
0.43206
 30
0.0
 10
-5.03069
 20
0.37261
 30
0.0
 10
-5.43069
 20
0.34894
 30
0.0
 10
-5.43069
 20
0.34894
 30
0.0
 10
-5.51216
 20
0.34413
 30
0.0
 10
-5.59646
 20
0.35003
 30
0.0
 10
-5.67644
 20
0.36612
 30
0.0
 10
-5.67644
 20
0.36612
 30
0.0
 10
-5.78639
 20
0.38822
 30
0.0
 10
-5.82381
 20
0.47382
 30
0.0
 10
-5.78217
 20
0.57872
 30
0.0
 10
-5.78217
 20
0.57872
 30
0.0
 10
-5.74385
 20
0.67523
 30
0.0
 10
-5.65746
 20
0.69504
 30
0.0
 10
-5.57007
 20
0.71097
 30
0.0
 10
-5.57007
 20
0.71097
 30
0.0
 10
-5.30388
 20
0.75943
 30
0.0
 10
-5.03694
 20
0.80393
 30
0.0
 10
-4.77125
 20
0.85496
 30
0.0
 10
-4.77125
 20
0.85496
 30
0.0
 10
-4.61852
 20
0.88428
 30
0.0
 10
-4.46769
 20
0.92328
 30
0.0
 10
-4.31598
 20
0.95793
 30
0.0
 10
-4.31598
 20
0.95793
 30
0.0
 10
-4.36701
 20
0.97728
 30
0.0
 10
-4.4158
 20
0.98942
 30
0.0
 10
-4.46409
 20
0.98759
 30
0.0
 10
-4.46409
 20
0.98759
 30
0.0
 10
-4.74489
 20
0.97697
 30
0.0
 10
-5.02554
 20
0.96222
 30
0.0
 10
-5.30631
 20
0.95056
 30
0.0
 10
-5.30631
 20
0.95056
 30
0.0
 10
-5.53306
 20
0.94113
 30
0.0
 10
-5.75985
 20
0.93048
 30
0.0
 10
-5.98674
 20
0.92785
 30
0.0
 10
-5.98674
 20
0.92785
 30
0.0
 10
-6.07529
 20
0.92682
 30
0.0
 10
-6.1608
 20
0.95281
 30
0.0
 10
-6.21285
 20
1.0373
 30
0.0
 10
-6.21285
 20
1.0373
 30
0.0
 10
-6.21285
 20
1.0373
 30
0.0
 10
-6.21285
 20
1.1614
 30
0.0
 10
-6.21285
 20
1.1614
 30
0.0
 10
-6.21285
 20
1.1614
 30
0.0
 10
-6.14244
 20
1.29339
 30
0.0
 10
-6.01278
 20
1.30083
 30
0.0
 10
-5.88707
 20
1.31596
 30
0.0
 10
-5.88707
 20
1.31596
 30
0.0
 10
-5.64882
 20
1.34465
 30
0.0
 10
-5.41087
 20
1.37707
 30
0.0
 10
-5.17201
 20
1.39965
 30
0.0
 10
-5.17201
 20
1.39965
 30
0.0
 10
-4.99992
 20
1.41593
 30
0.0
 10
-4.82657
 20
1.41877
 30
0.0
 10
-4.65376
 20
1.42764
 30
0.0
 10
-4.65376
 20
1.42764
 30
0.0
 10
-4.56087
 20
1.43239
 30
0.0
 10
-4.46784
 20
1.43534
 30
0.0
 10
-4.37521
 20
1.44317
 30
0.0
 10
-4.37521
 20
1.44317
 30
0.0
 10
-4.351
 20
1.44521
 30
0.0
 10
-4.3281
 20
1.46241
 30
0.0
 10
-4.3046
 20
1.47265
 30
0.0
 10
-4.3046
 20
1.47265
 30
0.0
 10
-4.3048
 20
1.48231
 30
0.0
 10
-4.30505
 20
1.49195
 30
0.0
 10
-4.30528
 20
1.50156
 30
0.0
 10
-4.30528
 20
1.50156
 30
0.0
 10
-4.34759
 20
1.51167
 30
0.0
 10
-4.38963
 20
1.52916
 30
0.0
 10
-4.43223
 20
1.53063
 30
0.0
 10
-4.43223
 20
1.53063
 30
0.0
 10
-4.8015
 20
1.54305
 30
0.0
 10
-5.17101
 20
1.54959
 30
0.0
 10
-5.54011
 20
1.56489
 30
0.0
 10
-5.54011
 20
1.56489
 30
0.0
 10
-5.64706
 20
1.56933
 30
0.0
 10
-5.75478
 20
1.58957
 30
0.0
 10
-5.85892
 20
1.61545
 30
0.0
 10
-5.85892
 20
1.61545
 30
0.0
 10
-5.93766
 20
1.63499
 30
0.0
 10
-5.97009
 20
1.70052
 30
0.0
 10
-5.96925
 20
1.78245
 30
0.0
 10
-5.96925
 20
1.78245
 30
0.0
 10
-5.9684
 20
1.86417
 30
0.0
 10
-5.93322
 20
1.92538
 30
0.0
 10
-5.85698
 20
1.95024
 30
0.0
 10
-5.85698
 20
1.95024
 30
0.0
 10
-5.79912
 20
1.96915
 30
0.0
 10
-5.73589
 20
1.97724
 30
0.0
 10
-5.67469
 20
1.97934
 30
0.0
 10
-5.67469
 20
1.97934
 30
0.0
 10
-5.36253
 20
1.99001
 30
0.0
 10
-5.05014
 20
1.9944
 30
0.0
 10
-4.73803
 20
2.00631
 30
0.0
 10
-4.73803
 20
2.00631
 30
0.0
 10
-4.47496
 20
2.01633
 30
0.0
 10
-4.21207
 20
2.03212
 30
0.0
 10
-3.94933
 20
2.04897
 30
0.0
 10
-3.94933
 20
2.04897
 30
0.0
 10
-3.89399
 20
2.05251
 30
0.0
 10
-3.83961
 20
2.07178
 30
0.0
 10
-3.76887
 20
2.08731
 30
0.0
 10
-3.76887
 20
2.08731
 30
0.0
 10
-3.92108
 20
2.1424
 30
0.0
 10
-4.05885
 20
2.18676
 30
0.0
 10
-4.19199
 20
2.24229
 30
0.0
 10
-4.19199
 20
2.24229
 30
0.0
 10
-4.28433
 20
2.28084
 30
0.0
 10
-4.37092
 20
2.33358
 30
0.0
 10
-4.45869
 20
2.38249
 30
0.0
 10
-4.45869
 20
2.38249
 30
0.0
 10
-4.48539
 20
2.39735
 30
0.0
 10
-4.50849
 20
2.41934
 30
0.0
 10
-4.53139
 20
2.44011
 30
0.0
 10
-4.53139
 20
2.44011
 30
0.0
 10
-4.62879
 20
2.52852
 30
0.0
 10
-4.67994
 20
2.65159
 30
0.0
 10
-4.63091
 20
2.71872
 30
0.0
 10
-4.63091
 20
2.71872
 30
0.0
 10
-4.56635
 20
2.80711
 30
0.0
 10
-4.46062
 20
2.7868
 30
0.0
 10
-4.37365
 20
2.76878
 30
0.0
 10
-4.37365
 20
2.76878
 30
0.0
 10
-4.21749
 20
2.73645
 30
0.0
 10
-4.06521
 20
2.68554
 30
0.0
 10
-3.91105
 20
2.64338
 30
0.0
 10
-3.91105
 20
2.64338
 30
0.0
 10
-3.82914
 20
2.62098
 30
0.0
 10
-3.74762
 20
2.59571
 30
0.0
 10
-3.66432
 20
2.5802
 30
0.0
 10
-3.66432
 20
2.5802
 30
0.0
 10
-3.29367
 20
2.51114
 30
0.0
 10
-2.9321
 20
2.40318
 30
0.0
 10
-2.61076
 20
2.20992
 30
0.0
 10
-2.61076
 20
2.20992
 30
0.0
 10
-2.36208
 20
2.06037
 30
0.0
 10
-2.10189
 20
2.03117
 30
0.0
 10
-1.82847
 20
2.01574
 30
0.0
 10
-1.82847
 20
2.01574
 30
0.0
 10
-1.78562
 20
2.01333
 30
0.0
 10
-1.74273
 20
2.00889
 30
0.0
 10
-1.7
 20
2.00284
 30
0.0
 10
-1.7
 20
2.00284
 30
0.0
 10
-1.7
 20
2.00284
 30
0.0
 10
-1.7
 20
2.2
 30
0.0
 10
-1.7
 20
2.2
 30
0.0
 10
-1.7
 20
2.2
 30
0.0
 10
-1.7
 20
2.47614
 30
0.0
 10
-1.47614
 20
2.7
 30
0.0
 10
-1.2
 20
2.7
 30
0.0
 10
-1.2
 20
2.7
 30
0.0
 10
-1.2
 20
2.7
 30
0.0
 10
-0.8
 20
2.7
 30
0.0
 10
-0.8
 20
2.7
 30
0.0
 10
-0.8
 20
2.7
 30
0.0
 10
-0.52386
 20
2.7
 30
0.0
 10
-0.3
 20
2.47614
 30
0.0
 10
-0.3
 20
2.2
 30
0.0
 10
-0.3
 20
2.2
 30
0.0
 10
-0.3
 20
2.2
 30
0.0
 10
-0.3
 20
0.3
 30
0.0
 10
-0.3
 20
0.3
 30
0.0
 10
-0.3
 20
0.3
 30
0.0
 10
-0.3
 20
0.02386
 30
0.0
 10
-0.52386
 20
-0.2
 30
0.0
 10
-0.8
 20
-0.2
 30
0.0
 10
-0.8
 20
-0.2
 30
0.0
 10
-0.8
 20
-0.2
 30
0.0
 10
-1.2
 20
-0.2
 30
0.0
 10
-1.2
 20
-0.2
 30
0.0
 10
-1.2
 20
-0.2
 30
0.0
 10
-1.47614
 20
-0.2
 30
0.0
 10
-1.7
 20
0.02386
 30
0.0
 10
-1.7
 20
0.3
 30
0.0
  0
ELLIPSE
  5
5C
330
1F
100
AcDbEntity
  8
Layer 1
370
    53
100
AcDbEllipse
 10
-1.0
 20
2.0
 30
0.0
 11
0.0
 21
0.3
 31
0.0
210
0.0
220
0.0
230
1.0
 40
1.0
 41
0.0
 42
6.283185307179586
  0
ELLIPSE
  5
5D
330
1F
100
AcDbEntity
  8
Layer 1
370
    53
100
AcDbEllipse
 10
-1.0
 20
0.5
 30
0.0
 11
0.0
 21
0.3
 31
0.0
210
0.0
220
0.0
230
1.0
 40
1.0
 41
0.0
 42
6.283185307179586
  0
SPLINE
  5
5E
330
1F
100
AcDbEntity
  8
Layer 1
 62
     5
370
    53
100
AcDbSpline
210
0.0
220
0.0
230
1.0
 70
    11
 71
     3
 72
    32
 73
    28
 74
     0
 42
0.0000000001
 43
0.0000000001
 12
1.0
 22
0.0
 32
0.0
 13
1.0
 23
0.0
 33
0.0
 40
0.0
 40
0.0
 40
0.0
 40
0.0
 40
0.125
 40
0.125
 40
0.125
 40
0.125
 40
0.25
 40
0.25
 40
0.25
 40
0.25
 40
0.375
 40
0.375
 40
0.375
 40
0.375
 40
0.5
 40
0.5
 40
0.5
 40
0.5
 40
0.625
 40
0.625
 40
0.625
 40
0.625
 40
0.75
 40
0.75
 40
0.75
 40
0.75
 40
1.0
 40
1.0
 40
1.0
 40
1.0
 10
4.22008
 20
0.12082
 30
0.0
 10
4.22008
 20
0.12082
 30
0.0
 10
4.22008
 20
0.12082
 30
0.0
 10
4.22008
 20
0.12082
 30
0.0
 10
4.22008
 20
0.12082
 30
0.0
 10
4.29484
 20
0.10831
 30
0.0
 10
4.3626
 20
0.09726
 30
0.0
 10
4.43023
 20
0.08529
 30
0.0
 10
4.43023
 20
0.08529
 30
0.0
 10
4.44002
 20
0.08356
 30
0.0
 10
4.45267
 20
0.0801
 30
0.0
 10
4.45772
 20
0.073
 30
0.0
 10
4.45772
 20
0.073
 30
0.0
 10
4.47172
 20
0.05333
 30
0.0
 10
4.48241
 20
0.03132
 30
0.0
 10
4.49441
 20
0.01024
 30
0.0
 10
4.49441
 20
0.01024
 30
0.0
 10
4.47256
 20
0.00307
 30
0.0
 10
4.45076
 20
-0.00977
 30
0.0
 10
4.42885
 20
-0.00998
 30
0.0
 10
4.42885
 20
-0.00998
 30
0.0
 10
4.38817
 20
-0.01028
 30
0.0
 10
4.34749
 20
-0.00245
 30
0.0
 10
4.3067
 20
0.0006
 30
0.0
 10
4.3067
 20
0.0006
 30
0.0
 10
4.21988
 20
0.00703
 30
0.0
 10
4.19885
 20
0.03778
 30
0.0
 10
4.22008
 20
0.12082
 30
0.0
  0
SPLINE
  5
5F
330
1F
100
AcDbEntity
  8
Layer 1
 62
     5
370
    53
100
AcDbSpline
210
0.0
220
0.0
230
1.0
 70
    11
 71
     3
 72
    36
 73
    32
 74
     0
 42
0.0000000001
 43
0.0000000001
 12
1.0
 22
0.0
 32
0.0
 13
1.0
 23
0.0
 33
0.0
 40
0.0
 40
0.0
 40
0.0
 40
0.0
 40
0.1111111111111111
 40
0.1111111111111111
 40
0.1111111111111111
 40
0.1111111111111111
 40
0.2222222222222222
 40
0.2222222222222222
 40
0.2222222222222222
 40
0.2222222222222222
 40
0.3333333333333333
 40
0.3333333333333333
 40
0.3333333333333333
 40
0.3333333333333333
 40
0.4444444444444444
 40
0.4444444444444444
 40
0.4444444444444444
 40
0.4444444444444444
 40
0.5555555555555556
 40
0.5555555555555556
 40
0.5555555555555556
 40
0.5555555555555556
 40
0.6666666666666666
 40
0.6666666666666666
 40
0.6666666666666666
 40
0.6666666666666666
 40
0.7777777777777778
 40
0.7777777777777778
 40
0.7777777777777778
 40
0.7777777777777778
 40
1.0
 40
1.0
 40
1.0
 40
1.0
 10
5.21247
 20
0.46594
 30
0.0
 10
5.21247
 20
0.46594
 30
0.0
 10
5.21247
 20
0.46594
 30
0.0
 10
5.21247
 20
0.46594
 30
0.0
 10
5.21247
 20
0.46594
 30
0.0
 10
5.18543
 20
0.46155
 30
0.0
 10
5.1592
 20
0.45313
 30
0.0
 10
5.13325
 20
0.4539
 30
0.0
 10
5.13325
 20
0.4539
 30
0.0
 10
5.06224
 20
0.45604
 30
0.0
 10
4.99115
 20
0.46013
 30
0.0
 10
4.92049
 20
0.46759
 30
0.0
 10
4.92049
 20
0.46759
 30
0.0
 10
4.89535
 20
0.47023
 30
0.0
 10
4.85065
 20
0.4847
 30
0.0
 10
4.8506
 20
0.4939
 30
0.0
 10
4.8506
 20
0.4939
 30
0.0
 10
4.85049
 20
0.53054
 30
0.0
 10
4.85965
 20
0.56968
 30
0.0
 10
4.87639
 20
0.60221
 30
0.0
 10
4.87639
 20
0.60221
 30
0.0
 10
4.88092
 20
0.611
 30
0.0
 10
4.92489
 20
0.60221
 30
0.0
 10
4.94988
 20
0.59704
 30
0.0
 10
4.94988
 20
0.59704
 30
0.0
 10
4.99567
 20
0.58756
 30
0.0
 10
5.04203
 20
0.56201
 30
0.0
 10
5.08598
 20
0.56617
 30
0.0
 10
5.08598
 20
0.56617
 30
0.0
 10
5.17252
 20
0.57433
 30
0.0
 10
5.18472
 20
0.57178
 30
0.0
 10
5.21247
 20
0.46594
 30
0.0
  0
SPLINE
  5
60
330
1F
100
AcDbEntity
  8
Layer 1
 62
     5
370
    53
100
AcDbSpline
210
0.0
220
0.0
230
1.0
 70
    11
 71
     3
 72
    32
 73
    28
 74
     0
 42
0.0000000001
 43
0.0000000001
 12
1.0
 22
0.0
 32
0.0
 13
1.0
 23
0.0
 33
0.0
 40
0.0
 40
0.0
 40
0.0
 40
0.0
 40
0.125
 40
0.125
 40
0.125
 40
0.125
 40
0.25
 40
0.25
 40
0.25
 40
0.25
 40
0.375
 40
0.375
 40
0.375
 40
0.375
 40
0.5
 40
0.5
 40
0.5
 40
0.5
 40
0.625
 40
0.625
 40
0.625
 40
0.625
 40
0.75
 40
0.75
 40
0.75
 40
0.75
 40
1.0
 40
1.0
 40
1.0
 40
1.0
 10
1.84834
 20
1.15094
 30
0.0
 10
1.84834
 20
1.15094
 30
0.0
 10
1.84834
 20
1.15094
 30
0.0
 10
1.84834
 20
1.15094
 30
0.0
 10
1.84834
 20
1.15094
 30
0.0
 10
1.89558
 20
1.06138
 30
0.0
 10
1.93849
 20
0.98395
 30
0.0
 10
1.97715
 20
0.90444
 30
0.0
 10
1.97715
 20
0.90444
 30
0.0
 10
1.98958
 20
0.87889
 30
0.0
 10
1.99678
 20
0.84721
 30
0.0
 10
1.99372
 20
0.81974
 30
0.0
 10
1.99372
 20
0.81974
 30
0.0
 10
1.99273
 20
0.81096
 30
0.0
 10
1.94804
 20
0.79688
 30
0.0
 10
1.92857
 20
0.80269
 30
0.0
 10
1.92857
 20
0.80269
 30
0.0
 10
1.89833
 20
0.81173
 30
0.0
 10
1.86193
 20
0.82946
 30
0.0
 10
1.84708
 20
0.85468
 30
0.0
 10
1.84708
 20
0.85468
 30
0.0
 10
1.81676
 20
0.90617
 30
0.0
 10
1.79906
 20
0.96514
 30
0.0
 10
1.76899
 20
1.03846
 30
0.0
 10
1.76899
 20
1.03846
 30
0.0
 10
1.78485
 20
1.06097
 30
0.0
 10
1.81514
 20
1.10389
 30
0.0
 10
1.84834
 20
1.15094
 30
0.0
  0
SPLINE
  5
61
330
1F
100
AcDbEntity
  8
Layer 1
 62
     5
370
    53
100
AcDbSpline
210
0.0
220
0.0
230
1.0
 70
    11
 71
     3
 72
    24
 73
    20
 74
     0
 42
0.0000000001
 43
0.0000000001
 12
1.0
 22
0.0
 32
0.0
 13
1.0
 23
0.0
 33
0.0
 40
0.0
 40
0.0
 40
0.0
 40
0.0
 40
0.1666666666666667
 40
0.1666666666666667
 40
0.1666666666666667
 40
0.1666666666666667
 40
0.3333333333333333
 40
0.3333333333333333
 40
0.3333333333333333
 40
0.3333333333333333
 40
0.5
 40
0.5
 40
0.5
 40
0.5
 40
0.6666666666666666
 40
0.6666666666666666
 40
0.6666666666666666
 40
0.6666666666666666
 40
1.0
 40
1.0
 40
1.0
 40
1.0
 10
1.6071
 20
1.28437
 30
0.0
 10
1.6071
 20
1.28437
 30
0.0
 10
1.6071
 20
1.28437
 30
0.0
 10
1.6071
 20
1.28437
 30
0.0
 10
1.6071
 20
1.28437
 30
0.0
 10
1.60522
 20
1.39609
 30
0.0
 10
1.63478
 20
1.40893
 30
0.0
 10
1.72633
 20
1.36862
 30
0.0
 10
1.72633
 20
1.36862
 30
0.0
 10
1.85118
 20
1.31364
 30
0.0
 10
1.87369
 20
1.22615
 30
0.0
 10
1.78505
 20
1.1227
 30
0.0
 10
1.78505
 20
1.1227
 30
0.0
 10
1.7728
 20
1.10839
 30
0.0
 10
1.72241
 20
1.10242
 30
0.0
 10
1.71595
 20
1.11146
 30
0.0
 10
1.71595
 20
1.11146
 30
0.0
 10
1.67092
 20
1.1743
 30
0.0
 10
1.63282
 20
1.2421
 30
0.0
 10
1.6071
 20
1.28437
 30
0.0
  0
SPLINE
  5
62
330
1F
100
AcDbEntity
  8
Layer 1
 62
     5
370
    53
100
AcDbSpline
210
0.0
220
0.0
230
1.0
 70
    11
 71
     3
 72
    32
 73
    28
 74
     0
 42
0.0000000001
 43
0.0000000001
 12
1.0
 22
0.0
 32
0.0
 13
1.0
 23
0.0
 33
0.0
 40
0.0
 40
0.0
 40
0.0
 40
0.0
 40
0.125
 40
0.125
 40
0.125
 40
0.125
 40
0.25
 40
0.25
 40
0.25
 40
0.25
 40
0.375
 40
0.375
 40
0.375
 40
0.375
 40
0.5
 40
0.5
 40
0.5
 40
0.5
 40
0.625
 40
0.625
 40
0.625
 40
0.625
 40
0.75
 40
0.75
 40
0.75
 40
0.75
 40
1.0
 40
1.0
 40
1.0
 40
1.0
 10
4.19665
 20
0.1234
 30
0.0
 10
4.19665
 20
0.1234
 30
0.0
 10
4.19665
 20
0.1234
 30
0.0
 10
4.19665
 20
0.1234
 30
0.0
 10
4.19665
 20
0.1234
 30
0.0
 10
4.17509
 20
0.08274
 30
0.0
 10
4.16107
 20
0.03907
 30
0.0
 10
4.15098
 20
0.03997
 30
0.0
 10
4.15098
 20
0.03997
 30
0.0
 10
4.06733
 20
0.04739
 30
0.0
 10
3.97941
 20
0.05098
 30
0.0
 10
3.90373
 20
0.08224
 30
0.0
 10
3.90373
 20
0.08224
 30
0.0
 10
3.87384
 20
0.0946
 30
0.0
 10
3.87172
 20
0.17415
 30
0.0
 10
3.85696
 20
0.22314
 30
0.0
 10
3.85696
 20
0.22314
 30
0.0
 10
3.8919
 20
0.22717
 30
0.0
 10
3.92776
 20
0.23812
 30
0.0
 10
3.9616
 20
0.23365
 30
0.0
 10
3.9616
 20
0.23365
 30
0.0
 10
4.01217
 20
0.22699
 30
0.0
 10
4.06357
 20
0.21474
 30
0.0
 10
4.11024
 20
0.19469
 30
0.0
 10
4.11024
 20
0.19469
 30
0.0
 10
4.14157
 20
0.18123
 30
0.0
 10
4.16533
 20
0.15017
 30
0.0
 10
4.19665
 20
0.1234
 30
0.0
  0
SPLINE
  5
63
330
1F
100
AcDbEntity
  8
Layer 1
 62
     5
370
    53
100
AcDbSpline
210
0.0
220
0.0
230
1.0
 70
    11
 71
     3
 72
    36
 73
    32
 74
     0
 42
0.0000000001
 43
0.0000000001
 12
1.0
 22
0.0
 32
0.0
 13
1.0
 23
0.0
 33
0.0
 40
0.0
 40
0.0
 40
0.0
 40
0.0
 40
0.1111111111111111
 40
0.1111111111111111
 40
0.1111111111111111
 40
0.1111111111111111
 40
0.2222222222222222
 40
0.2222222222222222
 40
0.2222222222222222
 40
0.2222222222222222
 40
0.3333333333333333
 40
0.3333333333333333
 40
0.3333333333333333
 40
0.3333333333333333
 40
0.4444444444444444
 40
0.4444444444444444
 40
0.4444444444444444
 40
0.4444444444444444
 40
0.5555555555555556
 40
0.5555555555555556
 40
0.5555555555555556
 40
0.5555555555555556
 40
0.6666666666666666
 40
0.6666666666666666
 40
0.6666666666666666
 40
0.6666666666666666
 40
0.7777777777777778
 40
0.7777777777777778
 40
0.7777777777777778
 40
0.7777777777777778
 40
1.0
 40
1.0
 40
1.0
 40
1.0
 10
4.96773
 20
1.76473
 30
0.0
 10
4.96773
 20
1.76473
 30
0.0
 10
4.96773
 20
1.76473
 30
0.0
 10
4.96773
 20
1.76473
 30
0.0
 10
4.96773
 20
1.76473
 30
0.0
 10
4.96996
 20
1.84989
 30
0.0
 10
4.97892
 20
1.85627
 30
0.0
 10
5.05952
 20
1.84547
 30
0.0
 10
5.05952
 20
1.84547
 30
0.0
 10
5.15082
 20
1.83325
 30
0.0
 10
5.24269
 20
1.82495
 30
0.0
 10
5.33373
 20
1.81113
 30
0.0
 10
5.33373
 20
1.81113
 30
0.0
 10
5.35201
 20
1.80837
 30
0.0
 10
5.37968
 20
1.79017
 30
0.0
 10
5.38151
 20
1.7763
 30
0.0
 10
5.38151
 20
1.7763
 30
0.0
 10
5.38369
 20
1.7599
 30
0.0
 10
5.36629
 20
1.73023
 30
0.0
 10
5.35059
 20
1.72429
 30
0.0
 10
5.35059
 20
1.72429
 30
0.0
 10
5.31081
 20
1.70925
 30
0.0
 10
5.26758
 20
1.69943
 30
0.0
 10
5.22511
 20
1.69641
 30
0.0
 10
5.22511
 20
1.69641
 30
0.0
 10
5.16434
 20
1.6921
 30
0.0
 10
5.1028
 20
1.69889
 30
0.0
 10
5.04195
 20
1.69501
 30
0.0
 10
5.04195
 20
1.69501
 30
0.0
 10
4.98464
 20
1.69132
 30
0.0
 10
4.95852
 20
1.7108
 30
0.0
 10
4.96773
 20
1.76473
 30
0.0
  0
SPLINE
  5
64
330
1F
100
AcDbEntity
  8
Layer 1
 62
     5
370
    53
100
AcDbSpline
210
0.0
220
0.0
230
1.0
 70
    11
 71
     3
 72
    40
 73
    36
 74
     0
 42
0.0000000001
 43
0.0000000001
 12
1.0
 22
0.0
 32
0.0
 13
1.0
 23
0.0
 33
0.0
 40
0.0
 40
0.0
 40
0.0
 40
0.0
 40
0.1
 40
0.1
 40
0.1
 40
0.1
 40
0.2
 40
0.2
 40
0.2
 40
0.2
 40
0.3
 40
0.3
 40
0.3
 40
0.3
 40
0.4
 40
0.4
 40
0.4
 40
0.4
 40
0.5
 40
0.5
 40
0.5
 40
0.5
 40
0.6
 40
0.6
 40
0.6
 40
0.6
 40
0.7
 40
0.7
 40
0.7
 40
0.7
 40
0.8
 40
0.8
 40
0.8
 40
0.8
 40
1.0
 40
1.0
 40
1.0
 40
1.0
 10
5.20681
 20
1.04032
 30
0.0
 10
5.20681
 20
1.04032
 30
0.0
 10
5.20681
 20
1.04032
 30
0.0
 10
5.20681
 20
1.04032
 30
0.0
 10
5.20681
 20
1.04032
 30
0.0
 10
5.20337
 20
1.04953
 30
0.0
 10
5.18717
 20
1.07521
 30
0.0
 10
5.18559
 20
1.10174
 30
0.0
 10
5.18559
 20
1.10174
 30
0.0
 10
5.18358
 20
1.13456
 30
0.0
 10
5.18326
 20
1.17701
 30
0.0
 10
5.20174
 20
1.19863
 30
0.0
 10
5.20174
 20
1.19863
 30
0.0
 10
5.21803
 20
1.21773
 30
0.0
 10
5.27065
 20
1.22967
 30
0.0
 10
5.29071
 20
1.21753
 30
0.0
 10
5.29071
 20
1.21753
 30
0.0
 10
5.36849
 20
1.1704
 30
0.0
 10
5.45183
 20
1.1597
 30
0.0
 10
5.53878
 20
1.14918
 30
0.0
 10
5.53878
 20
1.14918
 30
0.0
 10
5.56483
 20
1.14603
 30
0.0
 10
5.58607
 20
1.10293
 30
0.0
 10
5.6095
 20
1.0781
 30
0.0
 10
5.6095
 20
1.0781
 30
0.0
 10
5.58175
 20
1.06074
 30
0.0
 10
5.55569
 20
1.0388
 30
0.0
 10
5.52563
 20
1.02759
 30
0.0
 10
5.52563
 20
1.02759
 30
0.0
 10
5.50576
 20
1.02014
 30
0.0
 10
5.48015
 20
1.02816
 30
0.0
 10
5.4571
 20
1.02919
 30
0.0
 10
5.4571
 20
1.02919
 30
0.0
 10
5.37702
 20
1.03276
 30
0.0
 10
5.29692
 20
1.03632
 30
0.0
 10
5.20681
 20
1.04032
 30
0.0
  0
SPLINE
  5
65
330
1F
100
AcDbEntity
  8
Layer 1
 62
     5
370
    53
100
AcDbSpline
210
0.0
220
0.0
230
1.0
 70
    11
 71
     3
 72
    36
 73
    32
 74
     0
 42
0.0000000001
 43
0.0000000001
 12
1.0
 22
0.0
 32
0.0
 13
1.0
 23
0.0
 33
0.0
 40
0.0
 40
0.0
 40
0.0
 40
0.0
 40
0.1111111111111111
 40
0.1111111111111111
 40
0.1111111111111111
 40
0.1111111111111111
 40
0.2222222222222222
 40
0.2222222222222222
 40
0.2222222222222222
 40
0.2222222222222222
 40
0.3333333333333333
 40
0.3333333333333333
 40
0.3333333333333333
 40
0.3333333333333333
 40
0.4444444444444444
 40
0.4444444444444444
 40
0.4444444444444444
 40
0.4444444444444444
 40
0.5555555555555556
 40
0.5555555555555556
 40
0.5555555555555556
 40
0.5555555555555556
 40
0.6666666666666666
 40
0.6666666666666666
 40
0.6666666666666666
 40
0.6666666666666666
 40
0.7777777777777778
 40
0.7777777777777778
 40
0.7777777777777778
 40
0.7777777777777778
 40
1.0
 40
1.0
 40
1.0
 40
1.0
 10
4.45762
 20
1.84165
 30
0.0
 10
4.45762
 20
1.84165
 30
0.0
 10
4.45762
 20
1.84165
 30
0.0
 10
4.45762
 20
1.84165
 30
0.0
 10
4.45762
 20
1.84165
 30
0.0
 10
4.58951
 20
1.84165
 30
0.0
 10
4.70881
 20
1.84291
 30
0.0
 10
4.82803
 20
1.84077
 30
0.0
 10
4.82803
 20
1.84077
 30
0.0
 10
4.85798
 20
1.84023
 30
0.0
 10
4.90039
 20
1.83818
 30
0.0
 10
4.91426
 20
1.81969
 30
0.0
 10
4.91426
 20
1.81969
 30
0.0
 10
4.93024
 20
1.79845
 30
0.0
 10
4.93264
 20
1.75087
 30
0.0
 10
4.91875
 20
1.72847
 30
0.0
 10
4.91875
 20
1.72847
 30
0.0
 10
4.90774
 20
1.71075
 30
0.0
 10
4.86142
 20
1.70411
 30
0.0
 10
4.834
 20
1.70935
 30
0.0
 10
4.834
 20
1.70935
 30
0.0
 10
4.74001
 20
1.72731
 30
0.0
 10
4.65079
 20
1.72625
 30
0.0
 10
4.56411
 20
1.67971
 30
0.0
 10
4.56411
 20
1.67971
 30
0.0
 10
4.54114
 20
1.66739
 30
0.0
 10
4.51259
 20
1.66546
 30
0.0
 10
4.47923
 20
1.65682
 30
0.0
 10
4.47923
 20
1.65682
 30
0.0
 10
4.47129
 20
1.72468
 30
0.0
 10
4.46455
 20
1.78219
 30
0.0
 10
4.45762
 20
1.84165
 30
0.0
  0
SPLINE
  5
66
330
1F
100
AcDbEntity
  8
Layer 1
 62
     5
370
    53
100
AcDbSpline
210
0.0
220
0.0
230
1.0
 70
    11
 71
     3
 72
    32
 73
    28
 74
     0
 42
0.0000000001
 43
0.0000000001
 12
1.0
 22
0.0
 32
0.0
 13
1.0
 23
0.0
 33
0.0
 40
0.0
 40
0.0
 40
0.0
 40
0.0
 40
0.125
 40
0.125
 40
0.125
 40
0.125
 40
0.25
 40
0.25
 40
0.25
 40
0.25
 40
0.375
 40
0.375
 40
0.375
 40
0.375
 40
0.5
 40
0.5
 40
0.5
 40
0.5
 40
0.625
 40
0.625
 40
0.625
 40
0.625
 40
0.75
 40
0.75
 40
0.75
 40
0.75
 40
1.0
 40
1.0
 40
1.0
 40
1.0
 10
4.03444
 20
2.64601
 30
0.0
 10
4.03444
 20
2.64601
 30
0.0
 10
4.03444
 20
2.64601
 30
0.0
 10
4.03444
 20
2.64601
 30
0.0
 10
4.03444
 20
2.64601
 30
0.0
 10
4.01364
 20
2.61209
 30
0.0
 10
4.0073
 20
2.58889
 30
0.0
 10
3.99223
 20
2.57925
 30
0.0
 10
3.99223
 20
2.57925
 30
0.0
 10
3.89485
 20
2.51685
 30
0.0
 10
3.7992
 20
2.44985
 30
0.0
 10
3.69535
 20
2.40029
 30
0.0
 10
3.69535
 20
2.40029
 30
0.0
 10
3.64345
 20
2.37549
 30
0.0
 10
3.60928
 20
2.42911
 30
0.0
 10
3.59094
 20
2.47789
 30
0.0
 10
3.59094
 20
2.47789
 30
0.0
 10
3.57341
 20
2.52455
 30
0.0
 10
3.57417
 20
2.56708
 30
0.0
 10
3.63148
 20
2.58271
 30
0.0
 10
3.63148
 20
2.58271
 30
0.0
 10
3.73337
 20
2.61054
 30
0.0
 10
3.8357
 20
2.63702
 30
0.0
 10
3.93888
 20
2.6596
 30
0.0
 10
3.93888
 20
2.6596
 30
0.0
 10
3.96345
 20
2.665
 30
0.0
 10
3.99193
 20
2.65268
 30
0.0
 10
4.03444
 20
2.64601
 30
0.0
  0
SPLINE
  5
67
330
1F
100
AcDbEntity
  8
Layer 1
 62
     5
370
    53
100
AcDbSpline
210
0.0
220
0.0
230
1.0
 70
    11
 71
     3
 72
    32
 73
    28
 74
     0
 42
0.0000000001
 43
0.0000000001
 12
1.0
 22
0.0
 32
0.0
 13
1.0
 23
0.0
 33
0.0
 40
0.0
 40
0.0
 40
0.0
 40
0.0
 40
0.125
 40
0.125
 40
0.125
 40
0.125
 40
0.25
 40
0.25
 40
0.25
 40
0.25
 40
0.375
 40
0.375
 40
0.375
 40
0.375
 40
0.5
 40
0.5
 40
0.5
 40
0.5
 40
0.625
 40
0.625
 40
0.625
 40
0.625
 40
0.75
 40
0.75
 40
0.75
 40
0.75
 40
1.0
 40
1.0
 40
1.0
 40
1.0
 10
4.31135
 20
0.72181
 30
0.0
 10
4.31135
 20
0.72181
 30
0.0
 10
4.31135
 20
0.72181
 30
0.0
 10
4.31135
 20
0.72181
 30
0.0
 10
4.31135
 20
0.72181
 30
0.0
 10
4.46777
 20
0.70073
 30
0.0
 10
4.60453
 20
0.67954
 30
0.0
 10
4.74199
 20
0.66469
 30
0.0
 10
4.74199
 20
0.66469
 30
0.0
 10
4.84486
 20
0.65358
 30
0.0
 10
4.84561
 20
0.65215
 30
0.0
 10
4.8265
 20
0.5541
 30
0.0
 10
4.8265
 20
0.5541
 30
0.0
 10
4.8115
 20
0.47721
 30
0.0
 10
4.76053
 20
0.49173
 30
0.0
 10
4.71498
 20
0.5041
 30
0.0
 10
4.71498
 20
0.5041
 30
0.0
 10
4.59805
 20
0.53584
 30
0.0
 10
4.48383
 20
0.57643
 30
0.0
 10
4.35843
 20
0.54953
 30
0.0
 10
4.35843
 20
0.54953
 30
0.0
 10
4.34218
 20
0.54604
 30
0.0
 10
4.30193
 20
0.58081
 30
0.0
 10
4.2997
 20
0.60085
 30
0.0
 10
4.2997
 20
0.60085
 30
0.0
 10
4.29489
 20
0.64441
 30
0.0
 10
4.30746
 20
0.68986
 30
0.0
 10
4.31135
 20
0.72181
 30
0.0
  0
SPLINE
  5
68
330
1F
100
AcDbEntity
  8
Layer 1
 62
     5
370
    53
100
AcDbSpline
210
0.0
220
0.0
230
1.0
 70
    11
 71
     3
 72
    36
 73
    32
 74
     0
 42
0.0000000001
 43
0.0000000001
 12
1.0
 22
0.0
 32
0.0
 13
1.0
 23
0.0
 33
0.0
 40
0.0
 40
0.0
 40
0.0
 40
0.0
 40
0.1111111111111111
 40
0.1111111111111111
 40
0.1111111111111111
 40
0.1111111111111111
 40
0.2222222222222222
 40
0.2222222222222222
 40
0.2222222222222222
 40
0.2222222222222222
 40
0.3333333333333333
 40
0.3333333333333333
 40
0.3333333333333333
 40
0.3333333333333333
 40
0.4444444444444444
 40
0.4444444444444444
 40
0.4444444444444444
 40
0.4444444444444444
 40
0.5555555555555556
 40
0.5555555555555556
 40
0.5555555555555556
 40
0.5555555555555556
 40
0.6666666666666666
 40
0.6666666666666666
 40
0.6666666666666666
 40
0.6666666666666666
 40
0.7777777777777778
 40
0.7777777777777778
 40
0.7777777777777778
 40
0.7777777777777778
 40
1.0
 40
1.0
 40
1.0
 40
1.0
 10
1.91478
 20
1.12934
 30
0.0
 10
1.91478
 20
1.12934
 30
0.0
 10
1.91478
 20
1.12934
 30
0.0
 10
1.91478
 20
1.12934
 30
0.0
 10
1.91478
 20
1.12934
 30
0.0
 10
1.91523
 20
1.21438
 30
0.0
 10
1.9637
 20
1.23434
 30
0.0
 10
2.02017
 20
1.21771
 30
0.0
 10
2.02017
 20
1.21771
 30
0.0
 10
2.0874
 20
1.19788
 30
0.0
 10
2.14741
 20
1.15445
 30
0.0
 10
2.21407
 20
1.13143
 30
0.0
 10
2.21407
 20
1.13143
 30
0.0
 10
2.29332
 20
1.10404
 30
0.0
 10
2.28708
 20
1.04916
 30
0.0
 10
2.27183
 20
0.98909
 30
0.0
 10
2.27183
 20
0.98909
 30
0.0
 10
2.26499
 20
0.96203
 30
0.0
 10
2.25216
 20
0.93612
 30
0.0
 10
2.23932
 20
0.91108
 30
0.0
 10
2.23932
 20
0.91108
 30
0.0
 10
2.1837
 20
0.80261
 30
0.0
 10
2.10838
 20
0.7983
 30
0.0
 10
2.04232
 20
0.89884
 30
0.0
 10
2.04232
 20
0.89884
 30
0.0
 10
2.03388
 20
0.91168
 30
0.0
 10
2.02237
 20
0.92274
 30
0.0
 10
2.01522
 20
0.9362
 30
0.0
 10
2.01522
 20
0.9362
 30
0.0
 10
1.98119
 20
1.00027
 30
0.0
 10
1.94818
 20
1.06489
 30
0.0
 10
1.91478
 20
1.12934
 30
0.0
  0
SPLINE
  5
69
330
1F
100
AcDbEntity
  8
Layer 1
 62
     5
370
    53
100
AcDbSpline
210
0.0
220
0.0
230
1.0
 70
    11
 71
     3
 72
    40
 73
    36
 74
     0
 42
0.0000000001
 43
0.0000000001
 12
1.0
 22
0.0
 32
0.0
 13
1.0
 23
0.0
 33
0.0
 40
0.0
 40
0.0
 40
0.0
 40
0.0
 40
0.1
 40
0.1
 40
0.1
 40
0.1
 40
0.2
 40
0.2
 40
0.2
 40
0.2
 40
0.3
 40
0.3
 40
0.3
 40
0.3
 40
0.4
 40
0.4
 40
0.4
 40
0.4
 40
0.5
 40
0.5
 40
0.5
 40
0.5
 40
0.6
 40
0.6
 40
0.6
 40
0.6
 40
0.7
 40
0.7
 40
0.7
 40
0.7
 40
0.8
 40
0.8
 40
0.8
 40
0.8
 40
1.0
 40
1.0
 40
1.0
 40
1.0
 10
3.25279
 20
0.52927
 30
0.0
 10
3.25279
 20
0.52927
 30
0.0
 10
3.25279
 20
0.52927
 30
0.0
 10
3.25279
 20
0.52927
 30
0.0
 10
3.25279
 20
0.52927
 30
0.0
 10
3.28111
 20
0.51522
 30
0.0
 10
3.30085
 20
0.50881
 30
0.0
 10
3.31657
 20
0.49705
 30
0.0
 10
3.31657
 20
0.49705
 30
0.0
 10
3.43175
 20
0.41093
 30
0.0
 10
3.55945
 20
0.35311
 30
0.0
 10
3.69927
 20
0.32003
 30
0.0
 10
3.69927
 20
0.32003
 30
0.0
 10
3.72888
 20
0.31303
 30
0.0
 10
3.75958
 20
0.30205
 30
0.0
 10
3.7843
 20
0.28497
 30
0.0
 10
3.7843
 20
0.28497
 30
0.0
 10
3.83285
 20
0.25138
 30
0.0
 10
3.85047
 20
0.19918
 30
0.0
 10
3.81626
 20
0.15146
 30
0.0
 10
3.81626
 20
0.15146
 30
0.0
 10
3.80473
 20
0.13537
 30
0.0
 10
3.74615
 20
0.13697
 30
0.0
 10
3.71926
 20
0.15056
 30
0.0
 10
3.71926
 20
0.15056
 30
0.0
 10
3.57803
 20
0.22206
 30
0.0
 10
3.43302
 20
0.27634
 30
0.0
 10
3.27427
 20
0.29455
 30
0.0
 10
3.27427
 20
0.29455
 30
0.0
 10
3.25038
 20
0.29727
 30
0.0
 10
3.21208
 20
0.33931
 30
0.0
 10
3.21307
 20
0.36174
 30
0.0
 10
3.21307
 20
0.36174
 30
0.0
 10
3.21544
 20
0.41581
 30
0.0
 10
3.23715
 20
0.46904
 30
0.0
 10
3.25279
 20
0.52927
 30
0.0
  0
SPLINE
  5
6A
330
1F
100
AcDbEntity
  8
Layer 1
 62
     5
370
    53
100
AcDbSpline
210
0.0
220
0.0
230
1.0
 70
    11
 71
     3
 72
    44
 73
    40
 74
     0
 42
0.0000000001
 43
0.0000000001
 12
1.0
 22
0.0
 32
0.0
 13
1.0
 23
0.0
 33
0.0
 40
0.0
 40
0.0
 40
0.0
 40
0.0
 40
0.0909090909090909
 40
0.0909090909090909
 40
0.0909090909090909
 40
0.0909090909090909
 40
0.1818181818181818
 40
0.1818181818181818
 40
0.1818181818181818
 40
0.1818181818181818
 40
0.2727272727272727
 40
0.2727272727272727
 40
0.2727272727272727
 40
0.2727272727272727
 40
0.3636363636363636
 40
0.3636363636363636
 40
0.3636363636363636
 40
0.3636363636363636
 40
0.4545454545454545
 40
0.4545454545454545
 40
0.4545454545454545
 40
0.4545454545454545
 40
0.5454545454545454
 40
0.5454545454545454
 40
0.5454545454545454
 40
0.5454545454545454
 40
0.6363636363636364
 40
0.6363636363636364
 40
0.6363636363636364
 40
0.6363636363636364
 40
0.7272727272727273
 40
0.7272727272727273
 40
0.7272727272727273
 40
0.7272727272727273
 40
0.8181818181818182
 40
0.8181818181818182
 40
0.8181818181818182
 40
0.8181818181818182
 40
1.0
 40
1.0
 40
1.0
 40
1.0
 10
3.59856
 20
2.34622
 30
0.0
 10
3.59856
 20
2.34622
 30
0.0
 10
3.59856
 20
2.34622
 30
0.0
 10
3.59856
 20
2.34622
 30
0.0
 10
3.59856
 20
2.34622
 30
0.0
 10
3.56351
 20
2.33844
 30
0.0
 10
3.53474
 20
2.32663
 30
0.0
 10
3.50593
 20
2.32658
 30
0.0
 10
3.50593
 20
2.32658
 30
0.0
 10
3.37897
 20
2.32632
 30
0.0
 10
3.2548
 20
2.32226
 30
0.0
 10
3.14814
 20
2.23676
 30
0.0
 10
3.14814
 20
2.23676
 30
0.0
 10
3.12703
 20
2.21984
 30
0.0
 10
3.08995
 20
2.21798
 30
0.0
 10
3.0603
 20
2.21811
 30
0.0
 10
3.0603
 20
2.21811
 30
0.0
 10
3.04003
 20
2.21821
 30
0.0
 10
3.01186
 20
2.22818
 30
0.0
 10
3.00111
 20
2.24346
 30
0.0
 10
3.00111
 20
2.24346
 30
0.0
 10
2.96785
 20
2.29084
 30
0.0
 10
2.94124
 20
2.34291
 30
0.0
 10
2.91142
 20
2.39419
 30
0.0
 10
2.91142
 20
2.39419
 30
0.0
 10
2.92309
 20
2.40181
 30
0.0
 10
2.93145
 20
2.41192
 30
0.0
 10
2.9401
 20
2.41218
 30
0.0
 10
2.9401
 20
2.41218
 30
0.0
 10
3.12198
 20
2.41781
 30
0.0
 10
3.29726
 20
2.45197
 30
0.0
 10
3.46683
 20
2.52005
 30
0.0
 10
3.46683
 20
2.52005
 30
0.0
 10
3.48649
 20
2.52793
 30
0.0
 10
3.53269
 20
2.50548
 30
0.0
 10
3.54661
 20
2.48411
 30
0.0
 10
3.54661
 20
2.48411
 30
0.0
 10
3.57094
 20
2.4467
 30
0.0
 10
3.57978
 20
2.39918
 30
0.0
 10
3.59856
 20
2.34622
 30
0.0
  0
SPLINE
  5
6B
330
1F
100
AcDbEntity
  8
Layer 1
 62
     5
370
    53
100
AcDbSpline
210
0.0
220
0.0
230
1.0
 70
    11
 71
     3
 72
    40
 73
    36
 74
     0
 42
0.0000000001
 43
0.0000000001
 12
1.0
 22
0.0
 32
0.0
 13
1.0
 23
0.0
 33
0.0
 40
0.0
 40
0.0
 40
0.0
 40
0.0
 40
0.1
 40
0.1
 40
0.1
 40
0.1
 40
0.2
 40
0.2
 40
0.2
 40
0.2
 40
0.3
 40
0.3
 40
0.3
 40
0.3
 40
0.4
 40
0.4
 40
0.4
 40
0.4
 40
0.5
 40
0.5
 40
0.5
 40
0.5
 40
0.6
 40
0.6
 40
0.6
 40
0.6
 40
0.7
 40
0.7
 40
0.7
 40
0.7
 40
0.8
 40
0.8
 40
0.8
 40
0.8
 40
1.0
 40
1.0
 40
1.0
 40
1.0
 10
5.18638
 20
1.03619
 30
0.0
 10
5.18638
 20
1.03619
 30
0.0
 10
5.18638
 20
1.03619
 30
0.0
 10
5.18638
 20
1.03619
 30
0.0
 10
5.18638
 20
1.03619
 30
0.0
 10
5.16532
 20
1.02934
 30
0.0
 10
5.15826
 20
1.02578
 30
0.0
 10
5.15092
 20
1.025
 30
0.0
 10
5.15092
 20
1.025
 30
0.0
 10
5.14072
 20
1.02392
 30
0.0
 10
5.1295
 20
1.02242
 30
0.0
 10
5.12007
 20
1.02542
 30
0.0
 10
5.12007
 20
1.02542
 30
0.0
 10
4.954
 20
1.07841
 30
0.0
 10
4.78522
 20
1.10285
 30
0.0
 10
4.61006
 20
1.08831
 30
0.0
 10
4.61006
 20
1.08831
 30
0.0
 10
4.58774
 20
1.08645
 30
0.0
 10
4.54773
 20
1.12603
 30
0.0
 10
4.53975
 20
1.15339
 30
0.0
 10
4.53975
 20
1.15339
 30
0.0
 10
4.50915
 20
1.25794
 30
0.0
 10
4.59761
 20
1.33475
 30
0.0
 10
4.70878
 20
1.2899
 30
0.0
 10
4.70878
 20
1.2899
 30
0.0
 10
4.8438
 20
1.23541
 30
0.0
 10
4.97786
 20
1.22592
 30
0.0
 10
5.11835
 20
1.24631
 30
0.0
 10
5.11835
 20
1.24631
 30
0.0
 10
5.13831
 20
1.24923
 30
0.0
 10
5.1599
 20
1.24073
 30
0.0
 10
5.19631
 20
1.23509
 30
0.0
 10
5.19631
 20
1.23509
 30
0.0
 10
5.116
 20
1.1658
 30
0.0
 10
5.13274
 20
1.10304
 30
0.0
 10
5.18638
 20
1.03619
 30
0.0
  0
SPLINE
  5
6C
330
1F
100
AcDbEntity
  8
Layer 1
 62
     5
370
    53
100
AcDbSpline
210
0.0
220
0.0
230
1.0
 70
    11
 71
     3
 72
    52
 73
    48
 74
     0
 42
0.0000000001
 43
0.0000000001
 12
1.0
 22
0.0
 32
0.0
 13
1.0
 23
0.0
 33
0.0
 40
0.0
 40
0.0
 40
0.0
 40
0.0
 40
0.0769230769230769
 40
0.0769230769230769
 40
0.0769230769230769
 40
0.0769230769230769
 40
0.1538461538461539
 40
0.1538461538461539
 40
0.1538461538461539
 40
0.1538461538461539
 40
0.2307692307692308
 40
0.2307692307692308
 40
0.2307692307692308
 40
0.2307692307692308
 40
0.3076923076923077
 40
0.3076923076923077
 40
0.3076923076923077
 40
0.3076923076923077
 40
0.3846153846153846
 40
0.3846153846153846
 40
0.3846153846153846
 40
0.3846153846153846
 40
0.4615384615384616
 40
0.4615384615384616
 40
0.4615384615384616
 40
0.4615384615384616
 40
0.5384615384615384
 40
0.5384615384615384
 40
0.5384615384615384
 40
0.5384615384615384
 40
0.6153846153846154
 40
0.6153846153846154
 40
0.6153846153846154
 40
0.6153846153846154
 40
0.6923076923076923
 40
0.6923076923076923
 40
0.6923076923076923
 40
0.6923076923076923
 40
0.7692307692307693
 40
0.7692307692307693
 40
0.7692307692307693
 40
0.7692307692307693
 40
0.8461538461538461
 40
0.8461538461538461
 40
0.8461538461538461
 40
0.8461538461538461
 40
1.0
 40
1.0
 40
1.0
 40
1.0
 10
4.27087
 20
1.85674
 30
0.0
 10
4.27087
 20
1.85674
 30
0.0
 10
4.27087
 20
1.85674
 30
0.0
 10
4.27087
 20
1.85674
 30
0.0
 10
4.27087
 20
1.85674
 30
0.0
 10
4.28931
 20
1.85674
 30
0.0
 10
4.30503
 20
1.85852
 30
0.0
 10
4.32019
 20
1.8564
 30
0.0
 10
4.32019
 20
1.8564
 30
0.0
 10
4.37742
 20
1.84834
 30
0.0
 10
4.44354
 20
1.7695
 30
0.0
 10
4.43338
 20
1.71886
 30
0.0
 10
4.43338
 20
1.71886
 30
0.0
 10
4.41665
 20
1.6354
 30
0.0
 10
4.35755
 20
1.66848
 30
0.0
 10
4.30543
 20
1.67137
 30
0.0
 10
4.30543
 20
1.67137
 30
0.0
 10
4.19801
 20
1.6774
 30
0.0
 10
4.08963
 20
1.68475
 30
0.0
 10
3.98279
 20
1.67664
 30
0.0
 10
3.98279
 20
1.67664
 30
0.0
 10
3.89652
 20
1.67011
 30
0.0
 10
3.81195
 20
1.64137
 30
0.0
 10
3.72652
 20
1.62316
 30
0.0
 10
3.72652
 20
1.62316
 30
0.0
 10
3.64449
 20
1.60567
 30
0.0
 10
3.62023
 20
1.63261
 30
0.0
 10
3.64254
 20
1.71147
 30
0.0
 10
3.64254
 20
1.71147
 30
0.0
 10
3.64754
 20
1.72909
 30
0.0
 10
3.6409
 20
1.75003
 30
0.0
 10
3.63949
 20
1.7694
 30
0.0
 10
3.63949
 20
1.7694
 30
0.0
 10
3.63764
 20
1.79542
 30
0.0
 10
3.62464
 20
1.83418
 30
0.0
 10
3.63643
 20
1.84436
 30
0.0
 10
3.63643
 20
1.84436
 30
0.0
 10
3.65314
 20
1.8588
 30
0.0
 10
3.68839
 20
1.85617
 30
0.0
 10
3.71515
 20
1.85397
 30
0.0
 10
3.71515
 20
1.85397
 30
0.0
 10
3.80957
 20
1.84622
 30
0.0
 10
3.90379
 20
1.82785
 30
0.0
 10
3.99803
 20
1.82816
 30
0.0
 10
3.99803
 20
1.82816
 30
0.0
 10
4.09003
 20
1.82847
 30
0.0
 10
4.18195
 20
1.84671
 30
0.0
 10
4.27087
 20
1.85674
 30
0.0
  0
SPLINE
  5
6D
330
1F
100
AcDbEntity
  8
Layer 1
 62
     5
370
    53
100
AcDbSpline
210
0.0
220
0.0
230
1.0
 70
    11
 71
     3
 72
    52
 73
    48
 74
     0
 42
0.0000000001
 43
0.0000000001
 12
1.0
 22
0.0
 32
0.0
 13
1.0
 23
0.0
 33
0.0
 40
0.0
 40
0.0
 40
0.0
 40
0.0
 40
0.0769230769230769
 40
0.0769230769230769
 40
0.0769230769230769
 40
0.0769230769230769
 40
0.1538461538461539
 40
0.1538461538461539
 40
0.1538461538461539
 40
0.1538461538461539
 40
0.2307692307692308
 40
0.2307692307692308
 40
0.2307692307692308
 40
0.2307692307692308
 40
0.3076923076923077
 40
0.3076923076923077
 40
0.3076923076923077
 40
0.3076923076923077
 40
0.3846153846153846
 40
0.3846153846153846
 40
0.3846153846153846
 40
0.3846153846153846
 40
0.4615384615384616
 40
0.4615384615384616
 40
0.4615384615384616
 40
0.4615384615384616
 40
0.5384615384615384
 40
0.5384615384615384
 40
0.5384615384615384
 40
0.5384615384615384
 40
0.6153846153846154
 40
0.6153846153846154
 40
0.6153846153846154
 40
0.6153846153846154
 40
0.6923076923076923
 40
0.6923076923076923
 40
0.6923076923076923
 40
0.6923076923076923
 40
0.7692307692307693
 40
0.7692307692307693
 40
0.7692307692307693
 40
0.7692307692307693
 40
0.8461538461538461
 40
0.8461538461538461
 40
0.8461538461538461
 40
0.8461538461538461
 40
1.0
 40
1.0
 40
1.0
 40
1.0
 10
2.28137
 20
1.15466
 30
0.0
 10
2.28137
 20
1.15466
 30
0.0
 10
2.28137
 20
1.15466
 30
0.0
 10
2.28137
 20
1.15466
 30
0.0
 10
2.28137
 20
1.15466
 30
0.0
 10
2.27887
 20
1.1536
 30
0.0
 10
2.27602
 20
1.15117
 30
0.0
 10
2.27422
 20
1.15177
 30
0.0
 10
2.27422
 20
1.15177
 30
0.0
 10
2.15137
 20
1.19357
 30
0.0
 10
2.03916
 20
1.26985
 30
0.0
 10
1.90232
 20
1.26649
 30
0.0
 10
1.90232
 20
1.26649
 30
0.0
 10
1.9006
 20
1.26646
 30
0.0
 10
1.89896
 20
1.27021
 30
0.0
 10
1.89705
 20
1.27192
 30
0.0
 10
1.89705
 20
1.27192
 30
0.0
 10
1.84147
 20
1.32214
 30
0.0
 10
1.83903
 20
1.38349
 30
0.0
 10
1.87965
 20
1.46172
 30
0.0
 10
1.87965
 20
1.46172
 30
0.0
 10
1.91732
 20
1.53427
 30
0.0
 10
1.97048
 20
1.52329
 30
0.0
 10
2.02982
 20
1.50082
 30
0.0
 10
2.02982
 20
1.50082
 30
0.0
 10
2.04316
 20
1.49575
 30
0.0
 10
2.05711
 20
1.49236
 30
0.0
 10
2.04967
 20
1.49461
 30
0.0
 10
2.04967
 20
1.49461
 30
0.0
 10
2.06533
 20
1.55595
 30
0.0
 10
2.07733
 20
1.61194
 30
0.0
 10
2.09422
 20
1.66641
 30
0.0
 10
2.09422
 20
1.66641
 30
0.0
 10
2.11189
 20
1.72348
 30
0.0
 10
2.16193
 20
1.73535
 30
0.0
 10
2.20501
 20
1.69553
 30
0.0
 10
2.20501
 20
1.69553
 30
0.0
 10
2.26612
 20
1.63907
 30
0.0
 10
2.23369
 20
1.48782
 30
0.0
 10
2.15257
 20
1.46182
 30
0.0
 10
2.15257
 20
1.46182
 30
0.0
 10
2.20564
 20
1.4458
 30
0.0
 10
2.27658
 20
1.45485
 30
0.0
 10
2.28059
 20
1.37529
 30
0.0
 10
2.28059
 20
1.37529
 30
0.0
 10
2.28422
 20
1.30398
 30
0.0
 10
2.28137
 20
1.23235
 30
0.0
 10
2.28137
 20
1.15466
 30
0.0
  0
SPLINE
  5
6E
330
1F
100
AcDbEntity
  8
Layer 1
 62
     5
370
    53
100
AcDbSpline
210
0.0
220
0.0
230
1.0
 70
    11
 71
     3
 72
    44
 73
    40
 74
     0
 42
0.0000000001
 43
0.0000000001
 12
1.0
 22
0.0
 32
0.0
 13
1.0
 23
0.0
 33
0.0
 40
0.0
 40
0.0
 40
0.0
 40
0.0
 40
0.0909090909090909
 40
0.0909090909090909
 40
0.0909090909090909
 40
0.0909090909090909
 40
0.1818181818181818
 40
0.1818181818181818
 40
0.1818181818181818
 40
0.1818181818181818
 40
0.2727272727272727
 40
0.2727272727272727
 40
0.2727272727272727
 40
0.2727272727272727
 40
0.3636363636363636
 40
0.3636363636363636
 40
0.3636363636363636
 40
0.3636363636363636
 40
0.4545454545454545
 40
0.4545454545454545
 40
0.4545454545454545
 40
0.4545454545454545
 40
0.5454545454545454
 40
0.5454545454545454
 40
0.5454545454545454
 40
0.5454545454545454
 40
0.6363636363636364
 40
0.6363636363636364
 40
0.6363636363636364
 40
0.6363636363636364
 40
0.7272727272727273
 40
0.7272727272727273
 40
0.7272727272727273
 40
0.7272727272727273
 40
0.8181818181818182
 40
0.8181818181818182
 40
0.8181818181818182
 40
0.8181818181818182
 40
1.0
 40
1.0
 40
1.0
 40
1.0
 10
0.93275
 20
1.05307
 30
0.0
 10
0.93275
 20
1.05307
 30
0.0
 10
0.93275
 20
1.05307
 30
0.0
 10
0.93275
 20
1.05307
 30
0.0
 10
0.93275
 20
1.05307
 30
0.0
 10
0.97747
 20
1.05307
 30
0.0
 10
1.01877
 20
1.05053
 30
0.0
 10
1.05967
 20
1.05353
 30
0.0
 10
1.05967
 20
1.05353
 30
0.0
 10
1.15728
 20
1.06071
 30
0.0
 10
1.25568
 20
1.04674
 30
0.0
 10
1.34236
 20
1.1235
 30
0.0
 10
1.34236
 20
1.1235
 30
0.0
 10
1.40371
 20
1.17784
 30
0.0
 10
1.49206
 20
1.11841
 30
0.0
 10
1.49364
 20
1.0342
 30
0.0
 10
1.49364
 20
1.0342
 30
0.0
 10
1.49442
 20
0.99353
 30
0.0
 10
1.50065
 20
0.95296
 30
0.0
 10
1.5046
 20
0.91235
 30
0.0
 10
1.5046
 20
0.91235
 30
0.0
 10
1.5079
 20
0.87824
 30
0.0
 10
1.51148
 20
0.84414
 30
0.0
 10
1.51494
 20
0.81003
 30
0.0
 10
1.51494
 20
0.81003
 30
0.0
 10
1.47571
 20
0.80675
 30
0.0
 10
1.43587
 20
0.7976
 30
0.0
 10
1.39729
 20
0.80134
 30
0.0
 10
1.39729
 20
0.80134
 30
0.0
 10
1.29254
 20
0.81148
 30
0.0
 10
1.18861
 20
0.83429
 30
0.0
 10
1.08378
 20
0.83894
 30
0.0
 10
1.08378
 20
0.83894
 30
0.0
 10
0.90632
 20
0.84682
 30
0.0
 10
0.90609
 20
0.84256
 30
0.0
 10
0.92313
 20
1.02097
 30
0.0
 10
0.92313
 20
1.02097
 30
0.0
 10
0.92381
 20
1.02826
 30
0.0
 10
0.92731
 20
1.03524
 30
0.0
 10
0.93275
 20
1.05307
 30
0.0
  0
SPLINE
  5
6F
330
1F
100
AcDbEntity
  8
Layer 1
 62
     5
370
    53
100
AcDbSpline
210
0.0
220
0.0
230
1.0
 70
    11
 71
     3
 72
    48
 73
    44
 74
     0
 42
0.0000000001
 43
0.0000000001
 12
1.0
 22
0.0
 32
0.0
 13
1.0
 23
0.0
 33
0.0
 40
0.0
 40
0.0
 40
0.0
 40
0.0
 40
0.0833333333333333
 40
0.0833333333333333
 40
0.0833333333333333
 40
0.0833333333333333
 40
0.1666666666666667
 40
0.1666666666666667
 40
0.1666666666666667
 40
0.1666666666666667
 40
0.25
 40
0.25
 40
0.25
 40
0.25
 40
0.3333333333333333
 40
0.3333333333333333
 40
0.3333333333333333
 40
0.3333333333333333
 40
0.4166666666666667
 40
0.4166666666666667
 40
0.4166666666666667
 40
0.4166666666666667
 40
0.5
 40
0.5
 40
0.5
 40
0.5
 40
0.5833333333333334
 40
0.5833333333333334
 40
0.5833333333333334
 40
0.5833333333333334
 40
0.6666666666666666
 40
0.6666666666666666
 40
0.6666666666666666
 40
0.6666666666666666
 40
0.75
 40
0.75
 40
0.75
 40
0.75
 40
0.8333333333333334
 40
0.8333333333333334
 40
0.8333333333333334
 40
0.8333333333333334
 40
1.0
 40
1.0
 40
1.0
 40
1.0
 10
4.12447
 20
0.75571
 30
0.0
 10
4.12447
 20
0.75571
 30
0.0
 10
4.12447
 20
0.75571
 30
0.0
 10
4.12447
 20
0.75571
 30
0.0
 10
4.12447
 20
0.75571
 30
0.0
 10
4.13992
 20
0.75685
 30
0.0
 10
4.15591
 20
0.76109
 30
0.0
 10
4.17067
 20
0.75846
 30
0.0
 10
4.17067
 20
0.75846
 30
0.0
 10
4.20081
 20
0.75316
 30
0.0
 10
4.25262
 20
0.74949
 30
0.0
 10
4.25595
 20
0.73564
 30
0.0
 10
4.25595
 20
0.73564
 30
0.0
 10
4.26759
 20
0.68719
 30
0.0
 10
4.2687
 20
0.63345
 30
0.0
 10
4.25904
 20
0.58467
 30
0.0
 10
4.25904
 20
0.58467
 30
0.0
 10
4.25674
 20
0.57296
 30
0.0
 10
4.19639
 20
0.56457
 30
0.0
 10
4.16433
 20
0.56829
 30
0.0
 10
4.16433
 20
0.56829
 30
0.0
 10
3.94219
 20
0.59413
 30
0.0
 10
3.7203
 20
0.62254
 30
0.0
 10
3.49887
 20
0.65374
 30
0.0
 10
3.49887
 20
0.65374
 30
0.0
 10
3.47929
 20
0.6565
 30
0.0
 10
3.44963
 20
0.68394
 30
0.0
 10
3.44825
 20
0.70171
 30
0.0
 10
3.44825
 20
0.70171
 30
0.0
 10
3.44357
 20
0.76233
 30
0.0
 10
3.45178
 20
0.82383
 30
0.0
 10
3.45061
 20
0.88488
 30
0.0
 10
3.45061
 20
0.88488
 30
0.0
 10
3.44956
 20
0.94123
 30
0.0
 10
3.47495
 20
0.95413
 30
0.0
 10
3.52276
 20
0.93589
 30
0.0
 10
3.52276
 20
0.93589
 30
0.0
 10
3.5997
 20
0.90656
 30
0.0
 10
3.67594
 20
0.87535
 30
0.0
 10
3.75274
 20
0.84563
 30
0.0
 10
3.75274
 20
0.84563
 30
0.0
 10
3.87264
 20
0.79928
 30
0.0
 10
3.99142
 20
0.74791
 30
0.0
 10
4.12447
 20
0.75571
 30
0.0
  0
SPLINE
  5
70
330
1F
100
AcDbEntity
  8
Layer 1
 62
     5
370
    53
100
AcDbSpline
210
0.0
220
0.0
230
1.0
 70
    11
 71
     3
 72
    52
 73
    48
 74
     0
 42
0.0000000001
 43
0.0000000001
 12
1.0
 22
0.0
 32
0.0
 13
1.0
 23
0.0
 33
0.0
 40
0.0
 40
0.0
 40
0.0
 40
0.0
 40
0.0769230769230769
 40
0.0769230769230769
 40
0.0769230769230769
 40
0.0769230769230769
 40
0.1538461538461539
 40
0.1538461538461539
 40
0.1538461538461539
 40
0.1538461538461539
 40
0.2307692307692308
 40
0.2307692307692308
 40
0.2307692307692308
 40
0.2307692307692308
 40
0.3076923076923077
 40
0.3076923076923077
 40
0.3076923076923077
 40
0.3076923076923077
 40
0.3846153846153846
 40
0.3846153846153846
 40
0.3846153846153846
 40
0.3846153846153846
 40
0.4615384615384616
 40
0.4615384615384616
 40
0.4615384615384616
 40
0.4615384615384616
 40
0.5384615384615384
 40
0.5384615384615384
 40
0.5384615384615384
 40
0.5384615384615384
 40
0.6153846153846154
 40
0.6153846153846154
 40
0.6153846153846154
 40
0.6153846153846154
 40
0.6923076923076923
 40
0.6923076923076923
 40
0.6923076923076923
 40
0.6923076923076923
 40
0.7692307692307693
 40
0.7692307692307693
 40
0.7692307692307693
 40
0.7692307692307693
 40
0.8461538461538461
 40
0.8461538461538461
 40
0.8461538461538461
 40
0.8461538461538461
 40
1.0
 40
1.0
 40
1.0
 40
1.0
 10
2.96306
 20
2.09742
 30
0.0
 10
2.96306
 20
2.09742
 30
0.0
 10
2.96306
 20
2.09742
 30
0.0
 10
2.96306
 20
2.09742
 30
0.0
 10
2.96306
 20
2.09742
 30
0.0
 10
2.91475
 20
2.09742
 30
0.0
 10
2.86906
 20
2.09481
 30
0.0
 10
2.82374
 20
2.09791
 30
0.0
 10
2.82374
 20
2.09791
 30
0.0
 10
2.67681
 20
2.10804
 30
0.0
 10
2.54695
 20
2.08072
 30
0.0
 10
2.45606
 20
1.94973
 30
0.0
 10
2.45606
 20
1.94973
 30
0.0
 10
2.43295
 20
1.91642
 30
0.0
 10
2.3995
 20
1.88978
 30
0.0
 10
2.36886
 20
1.86221
 30
0.0
 10
2.36886
 20
1.86221
 30
0.0
 10
2.31983
 20
1.81813
 30
0.0
 10
2.27473
 20
1.81653
 30
0.0
 10
2.23169
 20
1.87408
 30
0.0
 10
2.23169
 20
1.87408
 30
0.0
 10
2.21551
 20
1.89575
 30
0.0
 10
2.19099
 20
1.91386
 30
0.0
 10
2.16653
 20
1.92619
 30
0.0
 10
2.16653
 20
1.92619
 30
0.0
 10
2.10647
 20
1.95637
 30
0.0
 10
2.09356
 20
2.00394
 30
0.0
 10
2.13088
 20
2.0522
 30
0.0
 10
2.13088
 20
2.0522
 30
0.0
 10
2.16188
 20
2.09227
 30
0.0
 10
2.20599
 20
2.13775
 30
0.0
 10
2.25173
 20
2.14814
 30
0.0
 10
2.25173
 20
2.14814
 30
0.0
 10
2.42098
 20
2.18664
 30
0.0
 10
2.58595
 20
2.23309
 30
0.0
 10
2.73914
 20
2.31673
 30
0.0
 10
2.73914
 20
2.31673
 30
0.0
 10
2.75909
 20
2.32764
 30
0.0
 10
2.78264
 20
2.33329
 30
0.0
 10
2.80524
 20
2.33776
 30
0.0
 10
2.80524
 20
2.33776
 30
0.0
 10
2.87202
 20
2.35097
 30
0.0
 10
2.93248
 20
2.31446
 30
0.0
 10
2.94563
 20
2.24929
 30
0.0
 10
2.94563
 20
2.24929
 30
0.0
 10
2.95513
 20
2.20229
 30
0.0
 10
2.9569
 20
2.15372
 30
0.0
 10
2.96306
 20
2.09742
 30
0.0
  0
SPLINE
  5
71
330
1F
100
AcDbEntity
  8
Layer 1
 62
     5
370
    53
100
AcDbSpline
210
0.0
220
0.0
230
1.0
 70
    11
 71
     3
 72
    44
 73
    40
 74
     0
 42
0.0000000001
 43
0.0000000001
 12
1.0
 22
0.0
 32
0.0
 13
1.0
 23
0.0
 33
0.0
 40
0.0
 40
0.0
 40
0.0
 40
0.0
 40
0.0909090909090909
 40
0.0909090909090909
 40
0.0909090909090909
 40
0.0909090909090909
 40
0.1818181818181818
 40
0.1818181818181818
 40
0.1818181818181818
 40
0.1818181818181818
 40
0.2727272727272727
 40
0.2727272727272727
 40
0.2727272727272727
 40
0.2727272727272727
 40
0.3636363636363636
 40
0.3636363636363636
 40
0.3636363636363636
 40
0.3636363636363636
 40
0.4545454545454545
 40
0.4545454545454545
 40
0.4545454545454545
 40
0.4545454545454545
 40
0.5454545454545454
 40
0.5454545454545454
 40
0.5454545454545454
 40
0.5454545454545454
 40
0.6363636363636364
 40
0.6363636363636364
 40
0.6363636363636364
 40
0.6363636363636364
 40
0.7272727272727273
 40
0.7272727272727273
 40
0.7272727272727273
 40
0.7272727272727273
 40
0.8181818181818182
 40
0.8181818181818182
 40
0.8181818181818182
 40
0.8181818181818182
 40
1.0
 40
1.0
 40
1.0
 40
1.0
 10
3.63116
 20
1.08745
 30
0.0
 10
3.63116
 20
1.08745
 30
0.0
 10
3.63116
 20
1.08745
 30
0.0
 10
3.63116
 20
1.08745
 30
0.0
 10
3.63116
 20
1.08745
 30
0.0
 10
3.64093
 20
1.16039
 30
0.0
 10
3.65998
 20
1.21404
 30
0.0
 10
3.65214
 20
1.26339
 30
0.0
 10
3.65214
 20
1.26339
 30
0.0
 10
3.63688
 20
1.35973
 30
0.0
 10
3.64438
 20
1.37416
 30
0.0
 10
3.74236
 20
1.35901
 30
0.0
 10
3.74236
 20
1.35901
 30
0.0
 10
3.76511
 20
1.35553
 30
0.0
 10
3.78758
 20
1.34866
 30
0.0
 10
3.80952
 20
1.34134
 30
0.0
 10
3.80952
 20
1.34134
 30
0.0
 10
3.99425
 20
1.27977
 30
0.0
 10
4.18072
 20
1.26127
 30
0.0
 10
4.37257
 20
1.30814
 30
0.0
 10
4.37257
 20
1.30814
 30
0.0
 10
4.41513
 20
1.31853
 30
0.0
 10
4.46237
 20
1.30963
 30
0.0
 10
4.50868
 20
1.30963
 30
0.0
 10
4.50868
 20
1.30963
 30
0.0
 10
4.50868
 20
1.30963
 30
0.0
 10
4.50868
 20
1.04831
 30
0.0
 10
4.50868
 20
1.04831
 30
0.0
 10
4.50868
 20
1.04831
 30
0.0
 10
4.50085
 20
1.04756
 30
0.0
 10
4.49044
 20
1.04392
 30
0.0
 10
4.48146
 20
1.04606
 30
0.0
 10
4.48146
 20
1.04606
 30
0.0
 10
4.23528
 20
1.10513
 30
0.0
 10
3.98854
 20
1.12066
 30
0.0
 10
3.73858
 20
1.06722
 30
0.0
 10
3.73858
 20
1.06722
 30
0.0
 10
3.70353
 20
1.05976
 30
0.0
 10
3.66233
 20
1.081
 30
0.0
 10
3.63116
 20
1.08745
 30
0.0
  0
SPLINE
  5
72
330
1F
100
AcDbEntity
  8
Layer 1
 62
     5
370
    53
100
AcDbSpline
210
0.0
220
0.0
230
1.0
 70
    11
 71
     3
 72
    44
 73
    40
 74
     0
 42
0.0000000001
 43
0.0000000001
 12
1.0
 22
0.0
 32
0.0
 13
1.0
 23
0.0
 33
0.0
 40
0.0
 40
0.0
 40
0.0
 40
0.0
 40
0.0909090909090909
 40
0.0909090909090909
 40
0.0909090909090909
 40
0.0909090909090909
 40
0.1818181818181818
 40
0.1818181818181818
 40
0.1818181818181818
 40
0.1818181818181818
 40
0.2727272727272727
 40
0.2727272727272727
 40
0.2727272727272727
 40
0.2727272727272727
 40
0.3636363636363636
 40
0.3636363636363636
 40
0.3636363636363636
 40
0.3636363636363636
 40
0.4545454545454545
 40
0.4545454545454545
 40
0.4545454545454545
 40
0.4545454545454545
 40
0.5454545454545454
 40
0.5454545454545454
 40
0.5454545454545454
 40
0.5454545454545454
 40
0.6363636363636364
 40
0.6363636363636364
 40
0.6363636363636364
 40
0.6363636363636364
 40
0.7272727272727273
 40
0.7272727272727273
 40
0.7272727272727273
 40
0.7272727272727273
 40
0.8181818181818182
 40
0.8181818181818182
 40
0.8181818181818182
 40
0.8181818181818182
 40
1.0
 40
1.0
 40
1.0
 40
1.0
 10
3.19913
 20
0.47302
 30
0.0
 10
3.19913
 20
0.47302
 30
0.0
 10
3.19913
 20
0.47302
 30
0.0
 10
3.19913
 20
0.47302
 30
0.0
 10
3.19913
 20
0.47302
 30
0.0
 10
3.19701
 20
0.37701
 30
0.0
 10
3.1594
 20
0.33763
 30
0.0
 10
3.06838
 20
0.3467
 30
0.0
 10
3.06838
 20
0.3467
 30
0.0
 10
3.01844
 20
0.35169
 30
0.0
 10
2.96764
 20
0.36662
 30
0.0
 10
2.92132
 20
0.38656
 30
0.0
 10
2.92132
 20
0.38656
 30
0.0
 10
2.70191
 20
0.48103
 30
0.0
 10
2.48329
 20
0.57736
 30
0.0
 10
2.2662
 20
0.67702
 30
0.0
 10
2.2662
 20
0.67702
 30
0.0
 10
2.23726
 20
0.69029
 30
0.0
 10
2.20099
 20
0.72546
 30
0.0
 10
2.19995
 20
0.75176
 30
0.0
 10
2.19995
 20
0.75176
 30
0.0
 10
2.19874
 20
0.78305
 30
0.0
 10
2.22508
 20
0.82396
 30
0.0
 10
2.25168
 20
0.84589
 30
0.0
 10
2.25168
 20
0.84589
 30
0.0
 10
2.30044
 20
0.88609
 30
0.0
 10
2.41801
 20
0.87186
 30
0.0
 10
2.47369
 20
0.83662
 30
0.0
 10
2.47369
 20
0.83662
 30
0.0
 10
2.56034
 20
0.78181
 30
0.0
 10
2.64614
 20
0.72218
 30
0.0
 10
2.74
 20
0.68306
 30
0.0
 10
2.74
 20
0.68306
 30
0.0
 10
2.86548
 20
0.63071
 30
0.0
 10
2.9984
 20
0.59635
 30
0.0
 10
3.12792
 20
0.55363
 30
0.0
 10
3.12792
 20
0.55363
 30
0.0
 10
3.16785
 20
0.54046
 30
0.0
 10
3.20913
 20
0.52681
 30
0.0
 10
3.19913
 20
0.47302
 30
0.0
  0
SPLINE
  5
73
330
1F
100
AcDbEntity
  8
Layer 1
 62
     5
370
    53
100
AcDbSpline
210
0.0
220
0.0
230
1.0
 70
    11
 71
     3
 72
    52
 73
    48
 74
     0
 42
0.0000000001
 43
0.0000000001
 12
1.0
 22
0.0
 32
0.0
 13
1.0
 23
0.0
 33
0.0
 40
0.0
 40
0.0
 40
0.0
 40
0.0
 40
0.0769230769230769
 40
0.0769230769230769
 40
0.0769230769230769
 40
0.0769230769230769
 40
0.1538461538461539
 40
0.1538461538461539
 40
0.1538461538461539
 40
0.1538461538461539
 40
0.2307692307692308
 40
0.2307692307692308
 40
0.2307692307692308
 40
0.2307692307692308
 40
0.3076923076923077
 40
0.3076923076923077
 40
0.3076923076923077
 40
0.3076923076923077
 40
0.3846153846153846
 40
0.3846153846153846
 40
0.3846153846153846
 40
0.3846153846153846
 40
0.4615384615384616
 40
0.4615384615384616
 40
0.4615384615384616
 40
0.4615384615384616
 40
0.5384615384615384
 40
0.5384615384615384
 40
0.5384615384615384
 40
0.5384615384615384
 40
0.6153846153846154
 40
0.6153846153846154
 40
0.6153846153846154
 40
0.6153846153846154
 40
0.6923076923076923
 40
0.6923076923076923
 40
0.6923076923076923
 40
0.6923076923076923
 40
0.7692307692307693
 40
0.7692307692307693
 40
0.7692307692307693
 40
0.7692307692307693
 40
0.8461538461538461
 40
0.8461538461538461
 40
0.8461538461538461
 40
0.8461538461538461
 40
1.0
 40
1.0
 40
1.0
 40
1.0
 10
2.29546
 20
0.88564
 30
0.0
 10
2.29546
 20
0.88564
 30
0.0
 10
2.29546
 20
0.88564
 30
0.0
 10
2.29546
 20
0.88564
 30
0.0
 10
2.29546
 20
0.88564
 30
0.0
 10
2.29248
 20
0.9093
 30
0.0
 10
2.28345
 20
0.94173
 30
0.0
 10
2.28885
 20
0.94434
 30
0.0
 10
2.28885
 20
0.94434
 30
0.0
 10
2.34648
 20
0.97222
 30
0.0
 10
2.31409
 20
1.01851
 30
0.0
 10
2.31819
 20
1.05815
 30
0.0
 10
2.31819
 20
1.05815
 30
0.0
 10
2.32105
 20
1.08593
 30
0.0
 10
2.33759
 20
1.13528
 30
0.0
 10
2.34862
 20
1.13546
 30
0.0
 10
2.34862
 20
1.13546
 30
0.0
 10
2.41572
 20
1.13644
 30
0.0
 10
2.49985
 20
1.14946
 30
0.0
 10
2.54719
 20
1.11533
 30
0.0
 10
2.54719
 20
1.11533
 30
0.0
 10
2.72104
 20
0.98997
 30
0.0
 10
2.91256
 20
0.94581
 30
0.0
 10
3.12054
 20
0.94077
 30
0.0
 10
3.12054
 20
0.94077
 30
0.0
 10
3.18651
 20
0.93917
 30
0.0
 10
3.25265
 20
0.92467
 30
0.0
 10
3.31771
 20
0.91121
 30
0.0
 10
3.31771
 20
0.91121
 30
0.0
 10
3.3778
 20
0.89881
 30
0.0
 10
3.41843
 20
0.85553
 30
0.0
 10
3.41013
 20
0.79631
 30
0.0
 10
3.41013
 20
0.79631
 30
0.0
 10
3.40211
 20
0.73915
 30
0.0
 10
3.37483
 20
0.67738
 30
0.0
 10
3.29826
 20
0.6827
 30
0.0
 10
3.29826
 20
0.6827
 30
0.0
 10
3.23791
 20
0.68689
 30
0.0
 10
3.17518
 20
0.69257
 30
0.0
 10
3.11896
 20
0.71278
 30
0.0
 10
3.11896
 20
0.71278
 30
0.0
 10
2.98356
 20
0.76143
 30
0.0
 10
2.85235
 20
0.82165
 30
0.0
 10
2.71761
 20
0.87225
 30
0.0
 10
2.71761
 20
0.87225
 30
0.0
 10
2.58292
 20
0.92279
 30
0.0
 10
2.4449
 20
0.94495
 30
0.0
 10
2.29546
 20
0.88564
 30
0.0
  0
SPLINE
  5
74
330
1F
100
AcDbEntity
  8
Layer 1
 62
     5
370
    53
100
AcDbSpline
210
0.0
220
0.0
230
1.0
 70
    11
 71
     3
 72
    52
 73
    48
 74
     0
 42
0.0000000001
 43
0.0000000001
 12
1.0
 22
0.0
 32
0.0
 13
1.0
 23
0.0
 33
0.0
 40
0.0
 40
0.0
 40
0.0
 40
0.0
 40
0.0769230769230769
 40
0.0769230769230769
 40
0.0769230769230769
 40
0.0769230769230769
 40
0.1538461538461539
 40
0.1538461538461539
 40
0.1538461538461539
 40
0.1538461538461539
 40
0.2307692307692308
 40
0.2307692307692308
 40
0.2307692307692308
 40
0.2307692307692308
 40
0.3076923076923077
 40
0.3076923076923077
 40
0.3076923076923077
 40
0.3076923076923077
 40
0.3846153846153846
 40
0.3846153846153846
 40
0.3846153846153846
 40
0.3846153846153846
 40
0.4615384615384616
 40
0.4615384615384616
 40
0.4615384615384616
 40
0.4615384615384616
 40
0.5384615384615384
 40
0.5384615384615384
 40
0.5384615384615384
 40
0.5384615384615384
 40
0.6153846153846154
 40
0.6153846153846154
 40
0.6153846153846154
 40
0.6153846153846154
 40
0.6923076923076923
 40
0.6923076923076923
 40
0.6923076923076923
 40
0.6923076923076923
 40
0.7692307692307693
 40
0.7692307692307693
 40
0.7692307692307693
 40
0.7692307692307693
 40
0.8461538461538461
 40
0.8461538461538461
 40
0.8461538461538461
 40
0.8461538461538461
 40
1.0
 40
1.0
 40
1.0
 40
1.0
 10
2.3203
 20
1.48324
 30
0.0
 10
2.3203
 20
1.48324
 30
0.0
 10
2.3203
 20
1.48324
 30
0.0
 10
2.3203
 20
1.48324
 30
0.0
 10
2.3203
 20
1.48324
 30
0.0
 10
2.39713
 20
1.46164
 30
0.0
 10
2.46244
 20
1.4464
 30
0.0
 10
2.52555
 20
1.42464
 30
0.0
 10
2.52555
 20
1.42464
 30
0.0
 10
2.58835
 20
1.40299
 30
0.0
 10
2.64707
 20
1.36795
 30
0.0
 10
2.71078
 20
1.35067
 30
0.0
 10
2.71078
 20
1.35067
 30
0.0
 10
2.92089
 20
1.29362
 30
0.0
 10
3.13128
 20
1.27664
 30
0.0
 10
3.34014
 20
1.36186
 30
0.0
 10
3.34014
 20
1.36186
 30
0.0
 10
3.36993
 20
1.374
 30
0.0
 10
3.40608
 20
1.37273
 30
0.0
 10
3.43939
 20
1.37369
 30
0.0
 10
3.43939
 20
1.37369
 30
0.0
 10
3.56726
 20
1.37752
 30
0.0
 10
3.63229
 20
1.28215
 30
0.0
 10
3.59293
 20
1.156
 30
0.0
 10
3.59293
 20
1.156
 30
0.0
 10
3.5719
 20
1.08859
 30
0.0
 10
3.53822
 20
1.04208
 30
0.0
 10
3.46111
 20
1.05908
 30
0.0
 10
3.46111
 20
1.05908
 30
0.0
 10
3.35094
 20
1.0834
 30
0.0
 10
3.23981
 20
1.10653
 30
0.0
 10
3.13276
 20
1.14136
 30
0.0
 10
3.13276
 20
1.14136
 30
0.0
 10
2.93962
 20
1.20422
 30
0.0
 10
2.74729
 20
1.2537
 30
0.0
 10
2.54349
 20
1.19659
 30
0.0
 10
2.54349
 20
1.19659
 30
0.0
 10
2.51396
 20
1.18833
 30
0.0
 10
2.48118
 20
1.17962
 30
0.0
 10
2.45209
 20
1.18445
 30
0.0
 10
2.45209
 20
1.18445
 30
0.0
 10
2.40405
 20
1.19244
 30
0.0
 10
2.33142
 20
1.16789
 30
0.0
 10
2.32207
 20
1.24569
 30
0.0
 10
2.32207
 20
1.24569
 30
0.0
 10
2.31364
 20
1.31614
 30
0.0
 10
2.3203
 20
1.38839
 30
0.0
 10
2.3203
 20
1.48324
 30
0.0
  0
SPLINE
  5
75
330
1F
100
AcDbEntity
  8
Layer 1
 62
     5
370
    53
100
AcDbSpline
210
0.0
220
0.0
230
1.0
 70
    11
 71
     3
 72
    52
 73
    48
 74
     0
 42
0.0000000001
 43
0.0000000001
 12
1.0
 22
0.0
 32
0.0
 13
1.0
 23
0.0
 33
0.0
 40
0.0
 40
0.0
 40
0.0
 40
0.0
 40
0.0769230769230769
 40
0.0769230769230769
 40
0.0769230769230769
 40
0.0769230769230769
 40
0.1538461538461539
 40
0.1538461538461539
 40
0.1538461538461539
 40
0.1538461538461539
 40
0.2307692307692308
 40
0.2307692307692308
 40
0.2307692307692308
 40
0.2307692307692308
 40
0.3076923076923077
 40
0.3076923076923077
 40
0.3076923076923077
 40
0.3076923076923077
 40
0.3846153846153846
 40
0.3846153846153846
 40
0.3846153846153846
 40
0.3846153846153846
 40
0.4615384615384616
 40
0.4615384615384616
 40
0.4615384615384616
 40
0.4615384615384616
 40
0.5384615384615384
 40
0.5384615384615384
 40
0.5384615384615384
 40
0.5384615384615384
 40
0.6153846153846154
 40
0.6153846153846154
 40
0.6153846153846154
 40
0.6153846153846154
 40
0.6923076923076923
 40
0.6923076923076923
 40
0.6923076923076923
 40
0.6923076923076923
 40
0.7692307692307693
 40
0.7692307692307693
 40
0.7692307692307693
 40
0.7692307692307693
 40
0.8461538461538461
 40
0.8461538461538461
 40
0.8461538461538461
 40
0.8461538461538461
 40
1.0
 40
1.0
 40
1.0
 40
1.0
 10
2.2562
 20
1.56862
 30
0.0
 10
2.2562
 20
1.56862
 30
0.0
 10
2.2562
 20
1.56862
 30
0.0
 10
2.2562
 20
1.56862
 30
0.0
 10
2.2562
 20
1.56862
 30
0.0
 10
2.28229
 20
1.60897
 30
0.0
 10
2.3048
 20
1.64822
 30
0.0
 10
2.25363
 20
1.69432
 30
0.0
 10
2.25363
 20
1.69432
 30
0.0
 10
2.24048
 20
1.70617
 30
0.0
 10
2.2589
 20
1.76147
 30
0.0
 10
2.27374
 20
1.79137
 30
0.0
 10
2.27374
 20
1.79137
 30
0.0
 10
2.27893
 20
1.80181
 30
0.0
 10
2.31735
 20
1.79891
 30
0.0
 10
2.3401
 20
1.79674
 30
0.0
 10
2.3401
 20
1.79674
 30
0.0
 10
2.38585
 20
1.79239
 30
0.0
 10
2.43109
 20
1.77997
 30
0.0
 10
2.47678
 20
1.77865
 30
0.0
 10
2.47678
 20
1.77865
 30
0.0
 10
2.77873
 20
1.77
 30
0.0
 10
3.07942
 20
1.77214
 30
0.0
 10
3.36733
 20
1.88485
 30
0.0
 10
3.36733
 20
1.88485
 30
0.0
 10
3.4213
 20
1.90596
 30
0.0
 10
3.5778
 20
1.81134
 30
0.0
 10
3.59179
 20
1.75315
 30
0.0
 10
3.59179
 20
1.75315
 30
0.0
 10
3.59521
 20
1.73896
 30
0.0
 10
3.59383
 20
1.72189
 30
0.0
 10
3.58939
 20
1.70783
 30
0.0
 10
3.58939
 20
1.70783
 30
0.0
 10
3.55453
 20
1.59773
 30
0.0
 10
3.47559
 20
1.54275
 30
0.0
 10
3.36528
 20
1.57045
 30
0.0
 10
3.36528
 20
1.57045
 30
0.0
 10
3.13567
 20
1.62812
 30
0.0
 10
2.90483
 20
1.6182
 30
0.0
 10
2.67371
 20
1.59544
 30
0.0
 10
2.67371
 20
1.59544
 30
0.0
 10
2.61448
 20
1.58957
 30
0.0
 10
2.55154
 20
1.57003
 30
0.0
 10
2.50081
 20
1.53937
 30
0.0
 10
2.50081
 20
1.53937
 30
0.0
 10
2.3942
 20
1.47487
 30
0.0
 10
2.3507
 20
1.47475
 30
0.0
 10
2.2562
 20
1.56862
 30
0.0
  0
SPLINE
  5
76
330
1F
100
AcDbEntity
  8
Layer 1
 62
     5
370
    53
100
AcDbSpline
210
0.0
220
0.0
230
1.0
 70
    11
 71
     3
 72
    48
 73
    44
 74
     0
 42
0.0000000001
 43
0.0000000001
 12
1.0
 22
0.0
 32
0.0
 13
1.0
 23
0.0
 33
0.0
 40
0.0
 40
0.0
 40
0.0
 40
0.0
 40
0.0833333333333333
 40
0.0833333333333333
 40
0.0833333333333333
 40
0.0833333333333333
 40
0.1666666666666667
 40
0.1666666666666667
 40
0.1666666666666667
 40
0.1666666666666667
 40
0.25
 40
0.25
 40
0.25
 40
0.25
 40
0.3333333333333333
 40
0.3333333333333333
 40
0.3333333333333333
 40
0.3333333333333333
 40
0.4166666666666667
 40
0.4166666666666667
 40
0.4166666666666667
 40
0.4166666666666667
 40
0.5
 40
0.5
 40
0.5
 40
0.5
 40
0.5833333333333334
 40
0.5833333333333334
 40
0.5833333333333334
 40
0.5833333333333334
 40
0.6666666666666666
 40
0.6666666666666666
 40
0.6666666666666666
 40
0.6666666666666666
 40
0.75
 40
0.75
 40
0.75
 40
0.75
 40
0.8333333333333334
 40
0.8333333333333334
 40
0.8333333333333334
 40
0.8333333333333334
 40
1.0
 40
1.0
 40
1.0
 40
1.0
 10
0.92175
 20
1.41715
 30
0.0
 10
0.92175
 20
1.41715
 30
0.0
 10
0.92175
 20
1.41715
 30
0.0
 10
0.92175
 20
1.41715
 30
0.0
 10
0.92175
 20
1.41715
 30
0.0
 10
0.92675
 20
1.49185
 30
0.0
 10
0.93627
 20
1.5742
 30
0.0
 10
0.93652
 20
1.65659
 30
0.0
 10
0.93652
 20
1.65659
 30
0.0
 10
0.93672
 20
1.72907
 30
0.0
 10
0.97085
 20
1.75925
 30
0.0
 10
1.03679
 20
1.74692
 30
0.0
 10
1.03679
 20
1.74692
 30
0.0
 10
1.1272
 20
1.73
 30
0.0
 10
1.20877
 20
1.75708
 30
0.0
 10
1.29388
 20
1.77855
 30
0.0
 10
1.29388
 20
1.77855
 30
0.0
 10
1.37334
 20
1.79857
 30
0.0
 10
1.45627
 20
1.80573
 30
0.0
 10
1.53807
 20
1.81521
 30
0.0
 10
1.53807
 20
1.81521
 30
0.0
 10
1.5872
 20
1.8209
 30
0.0
 10
1.60591
 20
1.79855
 30
0.0
 10
1.60012
 20
1.74579
 30
0.0
 10
1.60012
 20
1.74579
 30
0.0
 10
1.58553
 20
1.61287
 30
0.0
 10
1.5717
 20
1.47955
 30
0.0
 10
1.56649
 20
1.34604
 30
0.0
 10
1.56649
 20
1.34604
 30
0.0
 10
1.55899
 20
1.15456
 30
0.0
 10
1.53117
 20
1.13926
 30
0.0
 10
1.34942
 20
1.20287
 30
0.0
 10
1.34942
 20
1.20287
 30
0.0
 10
1.2443
 20
1.23972
 30
0.0
 10
1.13085
 20
1.25884
 30
0.0
 10
1.01956
 20
1.27015
 30
0.0
 10
1.01956
 20
1.27015
 30
0.0
 10
0.92362
 20
1.27987
 30
0.0
 10
0.92082
 20
1.27181
 30
0.0
 10
0.92175
 20
1.37067
 30
0.0
 10
0.92175
 20
1.37067
 30
0.0
 10
0.92185
 20
1.38356
 30
0.0
 10
0.92175
 20
1.39648
 30
0.0
 10
0.92175
 20
1.41715
 30
0.0
  0
SPLINE
  5
77
330
1F
100
AcDbEntity
  8
Layer 1
 62
     5
370
    53
100
AcDbSpline
210
0.0
220
0.0
230
1.0
 70
    11
 71
     3
 72
    64
 73
    60
 74
     0
 42
0.0000000001
 43
0.0000000001
 12
1.0
 22
0.0
 32
0.0
 13
1.0
 23
0.0
 33
0.0
 40
0.0
 40
0.0
 40
0.0
 40
0.0
 40
0.0625
 40
0.0625
 40
0.0625
 40
0.0625
 40
0.125
 40
0.125
 40
0.125
 40
0.125
 40
0.1875
 40
0.1875
 40
0.1875
 40
0.1875
 40
0.25
 40
0.25
 40
0.25
 40
0.25
 40
0.3125
 40
0.3125
 40
0.3125
 40
0.3125
 40
0.375
 40
0.375
 40
0.375
 40
0.375
 40
0.4375
 40
0.4375
 40
0.4375
 40
0.4375
 40
0.5
 40
0.5
 40
0.5
 40
0.5
 40
0.5625
 40
0.5625
 40
0.5625
 40
0.5625
 40
0.625
 40
0.625
 40
0.625
 40
0.625
 40
0.6875
 40
0.6875
 40
0.6875
 40
0.6875
 40
0.75
 40
0.75
 40
0.75
 40
0.75
 40
0.8125
 40
0.8125
 40
0.8125
 40
0.8125
 40
0.875
 40
0.875
 40
0.875
 40
0.875
 40
1.0
 40
1.0
 40
1.0
 40
1.0
 10
1.97284
 20
1.76728
 30
0.0
 10
1.97284
 20
1.76728
 30
0.0
 10
1.97284
 20
1.76728
 30
0.0
 10
1.97284
 20
1.76728
 30
0.0
 10
1.97284
 20
1.76728
 30
0.0
 10
1.99041
 20
1.71659
 30
0.0
 10
2.00636
 20
1.66525
 30
0.0
 10
2.02603
 20
1.61538
 30
0.0
 10
2.02603
 20
1.61538
 30
0.0
 10
2.04469
 20
1.5681
 30
0.0
 10
2.02154
 20
1.5452
 30
0.0
 10
1.98132
 20
1.55487
 30
0.0
 10
1.98132
 20
1.55487
 30
0.0
 10
1.89748
 20
1.57495
 30
0.0
 10
1.86645
 20
1.52084
 30
0.0
 10
1.83199
 20
1.46503
 30
0.0
 10
1.83199
 20
1.46503
 30
0.0
 10
1.82199
 20
1.44886
 30
0.0
 10
1.81017
 20
1.42805
 30
0.0
 10
1.79442
 20
1.42224
 30
0.0
 10
1.79442
 20
1.42224
 30
0.0
 10
1.75855
 20
1.40906
 30
0.0
 10
1.62123
 20
1.47937
 30
0.0
 10
1.60451
 20
1.51464
 30
0.0
 10
1.60451
 20
1.51464
 30
0.0
 10
1.57469
 20
1.5775
 30
0.0
 10
1.61096
 20
1.66512
 30
0.0
 10
1.68589
 20
1.71073
 30
0.0
 10
1.68589
 20
1.71073
 30
0.0
 10
1.71439
 20
1.72809
 30
0.0
 10
1.74844
 20
1.74
 30
0.0
 10
1.77074
 20
1.76323
 30
0.0
 10
1.77074
 20
1.76323
 30
0.0
 10
1.8229
 20
1.81764
 30
0.0
 10
1.87909
 20
1.8264
 30
0.0
 10
1.94476
 20
1.79478
 30
0.0
 10
1.94476
 20
1.79478
 30
0.0
 10
1.94156
 20
1.83757
 30
0.0
 10
1.93015
 20
1.88172
 30
0.0
 10
1.93699
 20
1.92283
 30
0.0
 10
1.93699
 20
1.92283
 30
0.0
 10
1.94875
 20
1.9935
 30
0.0
 10
2.00606
 20
2.01363
 30
0.0
 10
2.06279
 20
1.97133
 30
0.0
 10
2.06279
 20
1.97133
 30
0.0
 10
2.10769
 20
1.93779
 30
0.0
 10
2.1529
 20
1.90348
 30
0.0
 10
2.19167
 20
1.86346
 30
0.0
 10
2.19167
 20
1.86346
 30
0.0
 10
2.20837
 20
1.84622
 30
0.0
 10
2.21776
 20
1.81219
 30
0.0
 10
2.21395
 20
1.78847
 30
0.0
 10
2.21395
 20
1.78847
 30
0.0
 10
2.21154
 20
1.77364
 30
0.0
 10
2.17831
 20
1.75351
 30
0.0
 10
2.15893
 20
1.75357
 30
0.0
 10
2.15893
 20
1.75357
 30
0.0
 10
2.0969
 20
1.75369
 30
0.0
 10
2.03485
 20
1.76209
 30
0.0
 10
1.97284
 20
1.76728
 30
0.0
  0
SPLINE
  5
78
330
1F
100
AcDbEntity
  8
Layer 1
370
    53
100
AcDbSpline
210
0.0
220
0.0
230
1.0
 70
    11
 71
     3
 72
   236
 73
   232
 74
     0
 42
0.0000000001
 43
0.0000000001
 12
1.0
 22
0.0
 32
0.0
 13
1.0
 23
0.0
 33
0.0
 40
0.0
 40
0.0
 40
0.0
 40
0.0
 40
0.0169491525423729
 40
0.0169491525423729
 40
0.0169491525423729
 40
0.0169491525423729
 40
0.0338983050847458
 40
0.0338983050847458
 40
0.0338983050847458
 40
0.0338983050847458
 40
0.0508474576271186
 40
0.0508474576271186
 40
0.0508474576271186
 40
0.0508474576271186
 40
0.0677966101694915
 40
0.0677966101694915
 40
0.0677966101694915
 40
0.0677966101694915
 40
0.0847457627118644
 40
0.0847457627118644
 40
0.0847457627118644
 40
0.0847457627118644
 40
0.1016949152542373
 40
0.1016949152542373
 40
0.1016949152542373
 40
0.1016949152542373
 40
0.1186440677966102
 40
0.1186440677966102
 40
0.1186440677966102
 40
0.1186440677966102
 40
0.1355932203389831
 40
0.1355932203389831
 40
0.1355932203389831
 40
0.1355932203389831
 40
0.1525423728813559
 40
0.1525423728813559
 40
0.1525423728813559
 40
0.1525423728813559
 40
0.1694915254237288
 40
0.1694915254237288
 40
0.1694915254237288
 40
0.1694915254237288
 40
0.1864406779661017
 40
0.1864406779661017
 40
0.1864406779661017
 40
0.1864406779661017
 40
0.2033898305084746
 40
0.2033898305084746
 40
0.2033898305084746
 40
0.2033898305084746
 40
0.2203389830508475
 40
0.2203389830508475
 40
0.2203389830508475
 40
0.2203389830508475
 40
0.2372881355932203
 40
0.2372881355932203
 40
0.2372881355932203
 40
0.2372881355932203
 40
0.2542372881355932
 40
0.2542372881355932
 40
0.2542372881355932
 40
0.2542372881355932
 40
0.2711864406779661
 40
0.2711864406779661
 40
0.2711864406779661
 40
0.2711864406779661
 40
0.288135593220339
 40
0.288135593220339
 40
0.288135593220339
 40
0.288135593220339
 40
0.3050847457627119
 40
0.3050847457627119
 40
0.3050847457627119
 40
0.3050847457627119
 40
0.3220338983050847
 40
0.3220338983050847
 40
0.3220338983050847
 40
0.3220338983050847
 40
0.3389830508474576
 40
0.3389830508474576
 40
0.3389830508474576
 40
0.3389830508474576
 40
0.3559322033898305
 40
0.3559322033898305
 40
0.3559322033898305
 40
0.3559322033898305
 40
0.3728813559322034
 40
0.3728813559322034
 40
0.3728813559322034
 40
0.3728813559322034
 40
0.3898305084745763
 40
0.3898305084745763
 40
0.3898305084745763
 40
0.3898305084745763
 40
0.4067796610169492
 40
0.4067796610169492
 40
0.4067796610169492
 40
0.4067796610169492
 40
0.423728813559322
 40
0.423728813559322
 40
0.423728813559322
 40
0.423728813559322
 40
0.4406779661016949
 40
0.4406779661016949
 40
0.4406779661016949
 40
0.4406779661016949
 40
0.4576271186440678
 40
0.4576271186440678
 40
0.4576271186440678
 40
0.4576271186440678
 40
0.4745762711864407
 40
0.4745762711864407
 40
0.4745762711864407
 40
0.4745762711864407
 40
0.4915254237288136
 40
0.4915254237288136
 40
0.4915254237288136
 40
0.4915254237288136
 40
0.5084745762711864
 40
0.5084745762711864
 40
0.5084745762711864
 40
0.5084745762711864
 40
0.5254237288135594
 40
0.5254237288135594
 40
0.5254237288135594
 40
0.5254237288135594
 40
0.5423728813559322
 40
0.5423728813559322
 40
0.5423728813559322
 40
0.5423728813559322
 40
0.559322033898305
 40
0.559322033898305
 40
0.559322033898305
 40
0.559322033898305
 40
0.576271186440678
 40
0.576271186440678
 40
0.576271186440678
 40
0.576271186440678
 40
0.5932203389830508
 40
0.5932203389830508
 40
0.5932203389830508
 40
0.5932203389830508
 40
0.6101694915254238
 40
0.6101694915254238
 40
0.6101694915254238
 40
0.6101694915254238
 40
0.6271186440677966
 40
0.6271186440677966
 40
0.6271186440677966
 40
0.6271186440677966
 40
0.6440677966101694
 40
0.6440677966101694
 40
0.6440677966101694
 40
0.6440677966101694
 40
0.6610169491525424
 40
0.6610169491525424
 40
0.6610169491525424
 40
0.6610169491525424
 40
0.6779661016949152
 40
0.6779661016949152
 40
0.6779661016949152
 40
0.6779661016949152
 40
0.6949152542372882
 40
0.6949152542372882
 40
0.6949152542372882
 40
0.6949152542372882
 40
0.711864406779661
 40
0.711864406779661
 40
0.711864406779661
 40
0.711864406779661
 40
0.7288135593220338
 40
0.7288135593220338
 40
0.7288135593220338
 40
0.7288135593220338
 40
0.7457627118644068
 40
0.7457627118644068
 40
0.7457627118644068
 40
0.7457627118644068
 40
0.7627118644067796
 40
0.7627118644067796
 40
0.7627118644067796
 40
0.7627118644067796
 40
0.7796610169491526
 40
0.7796610169491526
 40
0.7796610169491526
 40
0.7796610169491526
 40
0.7966101694915254
 40
0.7966101694915254
 40
0.7966101694915254
 40
0.7966101694915254
 40
0.8135593220338984
 40
0.8135593220338984
 40
0.8135593220338984
 40
0.8135593220338984
 40
0.8305084745762712
 40
0.8305084745762712
 40
0.8305084745762712
 40
0.8305084745762712
 40
0.847457627118644
 40
0.847457627118644
 40
0.847457627118644
 40
0.847457627118644
 40
0.864406779661017
 40
0.864406779661017
 40
0.864406779661017
 40
0.864406779661017
 40
0.8813559322033898
 40
0.8813559322033898
 40
0.8813559322033898
 40
0.8813559322033898
 40
0.8983050847457628
 40
0.8983050847457628
 40
0.8983050847457628
 40
0.8983050847457628
 40
0.9152542372881356
 40
0.9152542372881356
 40
0.9152542372881356
 40
0.9152542372881356
 40
0.9322033898305084
 40
0.9322033898305084
 40
0.9322033898305084
 40
0.9322033898305084
 40
0.9491525423728814
 40
0.9491525423728814
 40
0.9491525423728814
 40
0.9491525423728814
 40
0.9661016949152542
 40
0.9661016949152542
 40
0.9661016949152542
 40
0.9661016949152542
 40
1.0
 40
1.0
 40
1.0
 40
1.0
 10
1.2
 20
0.3
 30
0.0
 10
1.2
 20
0.3
 30
0.0
 10
1.2
 20
0.62859
 30
0.0
 10
1.2
 20
0.62859
 30
0.0
 10
1.2
 20
0.62859
 30
0.0
 10
1.3339
 20
0.6351
 30
0.0
 10
1.46778
 20
0.6417
 30
0.0
 10
1.60088
 20
0.65574
 30
0.0
 10
1.60088
 20
0.65574
 30
0.0
 10
1.73968
 20
0.6704
 30
0.0
 10
1.86517
 20
0.66288
 30
0.0
 10
1.98357
 20
0.57927
 30
0.0
 10
1.98357
 20
0.57927
 30
0.0
 10
2.24692
 20
0.39328
 30
0.0
 10
2.53843
 20
0.25575
 30
0.0
 10
2.85815
 20
0.22792
 30
0.0
 10
2.85815
 20
0.22792
 30
0.0
 10
3.23741
 20
0.1949
 30
0.0
 10
3.58185
 20
0.04596
 30
0.0
 10
3.94414
 20
-0.04129
 30
0.0
 10
3.94414
 20
-0.04129
 30
0.0
 10
4.02656
 20
-0.06114
 30
0.0
 10
4.10987
 20
-0.07721
 30
0.0
 10
4.19279
 20
-0.09501
 30
0.0
 10
4.19279
 20
-0.09501
 30
0.0
 10
4.19279
 20
-0.09501
 30
0.0
 10
4.47199
 20
-0.09501
 30
0.0
 10
4.47199
 20
-0.09501
 30
0.0
 10
4.47199
 20
-0.09501
 30
0.0
 10
4.51592
 20
-0.06984
 30
0.0
 10
4.56795
 20
-0.05313
 30
0.0
 10
4.56909
 20
0.01217
 30
0.0
 10
4.56909
 20
0.01217
 30
0.0
 10
4.5703
 20
0.08124
 30
0.0
 10
4.52963
 20
0.12273
 30
0.0
 10
4.4761
 20
0.15281
 30
0.0
 10
4.4761
 20
0.15281
 30
0.0
 10
4.4314
 20
0.17795
 30
0.0
 10
4.38379
 20
0.19911
 30
0.0
 10
4.33548
 20
0.2165
 30
0.0
 10
4.33548
 20
0.2165
 30
0.0
 10
4.10021
 20
0.30112
 30
0.0
 10
3.86383
 20
0.38261
 30
0.0
 10
3.62899
 20
0.46839
 30
0.0
 10
3.62899
 20
0.46839
 30
0.0
 10
3.58954
 20
0.48279
 30
0.0
 10
3.5557
 20
0.51266
 30
0.0
 10
3.51927
 20
0.53539
 30
0.0
 10
3.51927
 20
0.53539
 30
0.0
 10
3.5231
 20
0.54508
 30
0.0
 10
3.52691
 20
0.55479
 30
0.0
 10
3.53073
 20
0.56448
 30
0.0
 10
3.53073
 20
0.56448
 30
0.0
 10
3.60386
 20
0.55733
 30
0.0
 10
3.68003
 20
0.56087
 30
0.0
 10
3.74964
 20
0.54123
 30
0.0
 10
3.74964
 20
0.54123
 30
0.0
 10
4.13628
 20
0.43206
 30
0.0
 10
4.53069
 20
0.37261
 30
0.0
 10
4.93069
 20
0.34894
 30
0.0
 10
4.93069
 20
0.34894
 30
0.0
 10
5.01216
 20
0.34413
 30
0.0
 10
5.09646
 20
0.35003
 30
0.0
 10
5.17644
 20
0.36612
 30
0.0
 10
5.17644
 20
0.36612
 30
0.0
 10
5.28639
 20
0.38822
 30
0.0
 10
5.32381
 20
0.47382
 30
0.0
 10
5.28217
 20
0.57872
 30
0.0
 10
5.28217
 20
0.57872
 30
0.0
 10
5.24385
 20
0.67523
 30
0.0
 10
5.15746
 20
0.69504
 30
0.0
 10
5.07007
 20
0.71097
 30
0.0
 10
5.07007
 20
0.71097
 30
0.0
 10
4.80388
 20
0.75943
 30
0.0
 10
4.53694
 20
0.80393
 30
0.0
 10
4.27125
 20
0.85496
 30
0.0
 10
4.27125
 20
0.85496
 30
0.0
 10
4.11852
 20
0.88428
 30
0.0
 10
3.96769
 20
0.92328
 30
0.0
 10
3.81598
 20
0.95793
 30
0.0
 10
3.81598
 20
0.95793
 30
0.0
 10
3.86701
 20
0.97728
 30
0.0
 10
3.9158
 20
0.98942
 30
0.0
 10
3.96409
 20
0.98759
 30
0.0
 10
3.96409
 20
0.98759
 30
0.0
 10
4.24489
 20
0.97697
 30
0.0
 10
4.52554
 20
0.96222
 30
0.0
 10
4.80631
 20
0.95056
 30
0.0
 10
4.80631
 20
0.95056
 30
0.0
 10
5.03306
 20
0.94113
 30
0.0
 10
5.25985
 20
0.93048
 30
0.0
 10
5.48674
 20
0.92785
 30
0.0
 10
5.48674
 20
0.92785
 30
0.0
 10
5.57529
 20
0.92682
 30
0.0
 10
5.6608
 20
0.95281
 30
0.0
 10
5.71285
 20
1.0373
 30
0.0
 10
5.71285
 20
1.0373
 30
0.0
 10
5.71285
 20
1.0373
 30
0.0
 10
5.71285
 20
1.1614
 30
0.0
 10
5.71285
 20
1.1614
 30
0.0
 10
5.71285
 20
1.1614
 30
0.0
 10
5.64244
 20
1.29339
 30
0.0
 10
5.51278
 20
1.30083
 30
0.0
 10
5.38707
 20
1.31596
 30
0.0
 10
5.38707
 20
1.31596
 30
0.0
 10
5.14882
 20
1.34465
 30
0.0
 10
4.91087
 20
1.37707
 30
0.0
 10
4.67201
 20
1.39965
 30
0.0
 10
4.67201
 20
1.39965
 30
0.0
 10
4.49992
 20
1.41593
 30
0.0
 10
4.32657
 20
1.41877
 30
0.0
 10
4.15376
 20
1.42764
 30
0.0
 10
4.15376
 20
1.42764
 30
0.0
 10
4.06087
 20
1.43239
 30
0.0
 10
3.96784
 20
1.43534
 30
0.0
 10
3.87521
 20
1.44317
 30
0.0
 10
3.87521
 20
1.44317
 30
0.0
 10
3.851
 20
1.44521
 30
0.0
 10
3.8281
 20
1.46241
 30
0.0
 10
3.8046
 20
1.47265
 30
0.0
 10
3.8046
 20
1.47265
 30
0.0
 10
3.8048
 20
1.48231
 30
0.0
 10
3.80505
 20
1.49195
 30
0.0
 10
3.80528
 20
1.50156
 30
0.0
 10
3.80528
 20
1.50156
 30
0.0
 10
3.84759
 20
1.51167
 30
0.0
 10
3.88963
 20
1.52916
 30
0.0
 10
3.93223
 20
1.53063
 30
0.0
 10
3.93223
 20
1.53063
 30
0.0
 10
4.3015
 20
1.54305
 30
0.0
 10
4.67101
 20
1.54959
 30
0.0
 10
5.04011
 20
1.56489
 30
0.0
 10
5.04011
 20
1.56489
 30
0.0
 10
5.14706
 20
1.56933
 30
0.0
 10
5.25478
 20
1.58957
 30
0.0
 10
5.35892
 20
1.61545
 30
0.0
 10
5.35892
 20
1.61545
 30
0.0
 10
5.43766
 20
1.63499
 30
0.0
 10
5.47009
 20
1.70052
 30
0.0
 10
5.46925
 20
1.78245
 30
0.0
 10
5.46925
 20
1.78245
 30
0.0
 10
5.4684
 20
1.86417
 30
0.0
 10
5.43322
 20
1.92538
 30
0.0
 10
5.35698
 20
1.95024
 30
0.0
 10
5.35698
 20
1.95024
 30
0.0
 10
5.29912
 20
1.96915
 30
0.0
 10
5.23589
 20
1.97724
 30
0.0
 10
5.17469
 20
1.97934
 30
0.0
 10
5.17469
 20
1.97934
 30
0.0
 10
4.86253
 20
1.99001
 30
0.0
 10
4.55014
 20
1.9944
 30
0.0
 10
4.23803
 20
2.00631
 30
0.0
 10
4.23803
 20
2.00631
 30
0.0
 10
3.97496
 20
2.01633
 30
0.0
 10
3.71207
 20
2.03212
 30
0.0
 10
3.44933
 20
2.04897
 30
0.0
 10
3.44933
 20
2.04897
 30
0.0
 10
3.39399
 20
2.05251
 30
0.0
 10
3.33961
 20
2.07178
 30
0.0
 10
3.26887
 20
2.08731
 30
0.0
 10
3.26887
 20
2.08731
 30
0.0
 10
3.42108
 20
2.1424
 30
0.0
 10
3.55885
 20
2.18676
 30
0.0
 10
3.69199
 20
2.24229
 30
0.0
 10
3.69199
 20
2.24229
 30
0.0
 10
3.78433
 20
2.28084
 30
0.0
 10
3.87092
 20
2.33358
 30
0.0
 10
3.95869
 20
2.38249
 30
0.0
 10
3.95869
 20
2.38249
 30
0.0
 10
3.98539
 20
2.39735
 30
0.0
 10
4.00849
 20
2.41934
 30
0.0
 10
4.03139
 20
2.44011
 30
0.0
 10
4.03139
 20
2.44011
 30
0.0
 10
4.12879
 20
2.52852
 30
0.0
 10
4.17994
 20
2.65159
 30
0.0
 10
4.13091
 20
2.71872
 30
0.0
 10
4.13091
 20
2.71872
 30
0.0
 10
4.06635
 20
2.80711
 30
0.0
 10
3.96062
 20
2.7868
 30
0.0
 10
3.87365
 20
2.76878
 30
0.0
 10
3.87365
 20
2.76878
 30
0.0
 10
3.71749
 20
2.73645
 30
0.0
 10
3.56521
 20
2.68554
 30
0.0
 10
3.41105
 20
2.64338
 30
0.0
 10
3.41105
 20
2.64338
 30
0.0
 10
3.32914
 20
2.62098
 30
0.0
 10
3.24762
 20
2.59571
 30
0.0
 10
3.16432
 20
2.5802
 30
0.0
 10
3.16432
 20
2.5802
 30
0.0
 10
2.79367
 20
2.51114
 30
0.0
 10
2.4321
 20
2.40318
 30
0.0
 10
2.11076
 20
2.20992
 30
0.0
 10
2.11076
 20
2.20992
 30
0.0
 10
1.86208
 20
2.06037
 30
0.0
 10
1.60189
 20
2.03117
 30
0.0
 10
1.32847
 20
2.01574
 30
0.0
 10
1.32847
 20
2.01574
 30
0.0
 10
1.28562
 20
2.01333
 30
0.0
 10
1.24273
 20
2.00889
 30
0.0
 10
1.2
 20
2.00284
 30
0.0
 10
1.2
 20
2.00284
 30
0.0
 10
1.2
 20
2.00284
 30
0.0
 10
1.2
 20
2.2
 30
0.0
 10
1.2
 20
2.2
 30
0.0
 10
1.2
 20
2.2
 30
0.0
 10
1.2
 20
2.47614
 30
0.0
 10
0.97614
 20
2.7
 30
0.0
 10
0.7
 20
2.7
 30
0.0
 10
0.7
 20
2.7
 30
0.0
 10
0.7
 20
2.7
 30
0.0
 10
0.3
 20
2.7
 30
0.0
 10
0.3
 20
2.7
 30
0.0
 10
0.3
 20
2.7
 30
0.0
 10
0.02386
 20
2.7
 30
0.0
 10
-0.2
 20
2.47614
 30
0.0
 10
-0.2
 20
2.2
 30
0.0
 10
-0.2
 20
2.2
 30
0.0
 10
-0.2
 20
2.2
 30
0.0
 10
-0.2
 20
0.3
 30
0.0
 10
-0.2
 20
0.3
 30
0.0
 10
-0.2
 20
0.3
 30
0.0
 10
-0.2
 20
0.02386
 30
0.0
 10
0.02386
 20
-0.2
 30
0.0
 10
0.3
 20
-0.2
 30
0.0
 10
0.3
 20
-0.2
 30
0.0
 10
0.3
 20
-0.2
 30
0.0
 10
0.7
 20
-0.2
 30
0.0
 10
0.7
 20
-0.2
 30
0.0
 10
0.7
 20
-0.2
 30
0.0
 10
0.97614
 20
-0.2
 30
0.0
 10
1.2
 20
0.02386
 30
0.0
 10
1.2
 20
0.3
 30
0.0
  0
ELLIPSE
  5
79
330
1F
100
AcDbEntity
  8
Layer 1
370
    53
100
AcDbEllipse
 10
0.5
 20
2.0
 30
0.0
 11
0.0
 21
0.3
 31
0.0
210
0.0
220
0.0
230
1.0
 40
1.0
 41
0.0
 42
6.283185307179586
  0
ELLIPSE
  5
7A
330
1F
100
AcDbEntity
  8
Layer 1
370
    53
100
AcDbEllipse
 10
0.5
 20
0.5
 30
0.0
 11
0.0
 21
0.3
 31
0.0
210
0.0
220
0.0
230
1.0
 40
1.0
 41
0.0
 42
6.283185307179586
  0
ELLIPSE
  5
7B
330
1F
100
AcDbEntity
  8
Layer 1
370
    53
100
AcDbEllipse
 10
-1.0
 20
1.25
 30
0.0
 11
0.0
 21
0.15
 31
0.0
210
0.0
220
0.0
230
1.0
 40
1.0
 41
0.0
 42
6.283185307179586
  0
ELLIPSE
  5
7C
330
1F
100
AcDbEntity
  8
Layer 1
370
    53
100
AcDbEllipse
 10
0.5
 20
1.25
 30
0.0
 11
0.0
 21
0.15
 31
0.0
210
0.0
220
0.0
230
1.0
 40
1.0
 41
0.0
 42
6.283185307179586
  0
ENDSEC
  0
SECTION
  2
OBJECTS
  0
DICTIONARY
  5
C
330
0
100
AcDbDictionary
281
     1
  3
ACAD_GROUP
350
D
  3
ACAD_LAYOUT
350
1A
  3
ACAD_MATERIAL
350
3B
  3
ACAD_MLEADERSTYLE
350
9E
  3
ACAD_MLINESTYLE
350
17
  3
ACAD_PLOTSETTINGS
350
19
  3
ACAD_PLOTSTYLENAME
350
E
  3
ACAD_TABLESTYLE
350
9D
  3
ACAD_VISUALSTYLE
350
2A
  0
DICTIONARY
  5
D
102
{ACAD_REACTORS
330
C
102
}
330
C
100
AcDbDictionary
281
     1
  0
DICTIONARY
  5
1A
102
{ACAD_REACTORS
330
C
102
}
330
C
100
AcDbDictionary
281
     1
  3
Layout1
350
1E
  3
Layout2
350
26
  3
Model
350
22
  0
DICTIONARY
  5
3B
102
{ACAD_REACTORS
330
C
102
}
330
C
100
AcDbDictionary
281
     1
  3
ByBlock
350
3D
  3
ByLayer
350
3C
  3
Global
350
3E
  0
DICTIONARY
  5
9E
102
{ACAD_REACTORS
330
C
102
}
330
C
100
AcDbDictionary
281
     1
  0
DICTIONARY
  5
17
102
{ACAD_REACTORS
330
C
102
}
330
C
100
AcDbDictionary
281
     1
  3
Standard
350
18
  0
DICTIONARY
  5
19
102
{ACAD_REACTORS
330
C
102
}
330
C
100
AcDbDictionary
281
     1
  0
ACDBDICTIONARYWDFLT
  5
E
102
{ACAD_REACTORS
330
C
102
}
330
C
100
AcDbDictionary
281
     1
  3
Normal
350
F
100
AcDbDictionaryWithDefault
340
F
  0
DICTIONARY
  5
9D
102
{ACAD_REACTORS
330
C
102
}
330
C
100
AcDbDictionary
281
     1
  0
DICTIONARY
  5
2A
102
{ACAD_REACTORS
330
C
102
}
330
C
100
AcDbDictionary
281
     1
  3
2dWireframe
350
2F
  3
3D Hidden
350
31
  3
3dWireframe
350
30
  3
Basic
350
32
  3
Brighten
350
36
  3
ColorChange
350
3A
  3
Conceptual
350
34
  3
Dim
350
35
  3
Facepattern
350
39
  3
Flat
350
2B
  3
FlatWithEdges
350
2C
  3
Gouraud
350
2D
  3
GouraudWithEdges
350
2E
  3
Linepattern
350
38
  3
Realistic
350
33
  3
Thicken
350
37
  0
LAYOUT
  5
1E
102
{ACAD_REACTORS
330
1A
102
}
330
1A
100
AcDbPlotSettings
  1

  2
none_device
  4

  6

 40
0.0
 41
0.0
 42
0.0
 43
0.0
 44
0.0
 45
0.0
 46
0.0
 47
0.0
 48
0.0
 49
0.0
140
0.0
141
0.0
142
1.0
143
1.0
 70
   688
 72
     0
 73
     0
 74
     5
  7

 75
    16
 76
     0
 77
     2
 78
   300
147
1.0
148
0.0
149
0.0
100
AcDbLayout
  1
Layout1
 70
     1
 71
     1
 10
0.0
 20
0.0
 11
12.0
 21
9.0
 12
0.0
 22
0.0
 32
0.0
 14
1.000000000000000E+20
 24
1.000000000000000E+20
 34
1.000000000000000E+20
 15
-1.000000000000000E+20
 25
-1.000000000000000E+20
 35
-1.000000000000000E+20
146
0.0
 13
0.0
 23
0.0
 33
0.0
 16
1.0
 26
0.0
 36
0.0
 17
0.0
 27
1.0
 37
0.0
 76
     0
330
1B
  0
LAYOUT
  5
26
102
{ACAD_REACTORS
330
1A
102
}
330
1A
100
AcDbPlotSettings
  1

  2
none_device
  4

  6

 40
0.0
 41
0.0
 42
0.0
 43
0.0
 44
0.0
 45
0.0
 46
0.0
 47
0.0
 48
0.0
 49
0.0
140
0.0
141
0.0
142
1.0
143
1.0
 70
   688
 72
     0
 73
     0
 74
     5
  7

 75
    16
 76
     0
 77
     2
 78
   300
147
1.0
148
0.0
149
0.0
100
AcDbLayout
  1
Layout2
 70
     1
 71
     2
 10
0.0
 20
0.0
 11
0.0
 21
0.0
 12
0.0
 22
0.0
 32
0.0
 14
0.0
 24
0.0
 34
0.0
 15
0.0
 25
0.0
 35
0.0
146
0.0
 13
0.0
 23
0.0
 33
0.0
 16
1.0
 26
0.0
 36
0.0
 17
0.0
 27
1.0
 37
0.0
 76
     0
330
23
  0
LAYOUT
  5
22
102
{ACAD_REACTORS
330
1A
102
}
330
1A
100
AcDbPlotSettings
  1

  2
none_device
  4

  6

 40
0.0
 41
0.0
 42
0.0
 43
0.0
 44
0.0
 45
0.0
 46
0.0
 47
0.0
 48
0.0
 49
0.0
140
0.0
141
0.0
142
1.0
143
1.0
 70
  1712
 72
     0
 73
     0
 74
     0
  7

 75
     0
 76
     0
 77
     2
 78
   300
147
1.0
148
0.0
149
0.0
100
AcDbLayout
  1
Model
 70
     1
 71
     0
 10
0.0
 20
0.0
 11
12.0
 21
9.0
 12
0.0
 22
0.0
 32
0.0
 14
-6.23931
 24
-0.22646
 34
0.0
 15
5.73931
 25
2.81091
 35
0.0
146
0.0
 13
0.0
 23
0.0
 33
0.0
 16
1.0
 26
0.0
 36
0.0
 17
0.0
 27
1.0
 37
0.0
 76
     0
330
1F
331
29
  0
MATERIAL
  5
3D
102
{ACAD_REACTORS
330
3B
102
}
330
3B
100
AcDbMaterial
  1
ByBlock
 72
     1
 94
      127
  0
MATERIAL
  5
3C
102
{ACAD_REACTORS
330
3B
102
}
330
3B
100
AcDbMaterial
  1
ByLayer
 72
     1
 94
      127
  0
MATERIAL
  5
3E
102
{ACAD_REACTORS
330
3B
102
}
330
3B
100
AcDbMaterial
  1
Global
 72
     1
 94
      127
  0
MLINESTYLE
  5
18
102
{ACAD_REACTORS
330
17
102
}
330
17
100
AcDbMlineStyle
  2
Standard
 70
     0
  3

 62
   256
 51
90.0
 52
90.0
 71
     2
 49
0.5
 62
   256
  6
BYLAYER
 49
-0.5
 62
   256
  6
BYLAYER
  0
ACDBPLACEHOLDER
  5
F
102
{ACAD_REACTORS
330
E
102
}
330
E
  0
VISUALSTYLE
  5
2F
102
{ACAD_REACTORS
330
2A
102
}
102
{ACAD_XDICTIONARY
360
85
102
}
330
2A
100
AcDbVisualStyle
  2
2dWireframe
 70
     4
 71
     0
 72
     2
 73
     0
 90
        0
 40
-0.6
 41
-30.0
 62
     5
 63
     7
421
 16777215
 74
     1
 91
        4
 64
     7
 65
   257
 75
     1
175
     1
 42
1.0
 92
        0
 66
   257
 43
1.0
 76
     1
 77
     6
 78
     2
 67
     7
 79
     5
170
     0
171
     0
290
     0
174
     0
 93
        1
 44
0.0
173
     0
291
     0
 45
0.0
  0
VISUALSTYLE
  5
31
102
{ACAD_REACTORS
330
2A
102
}
102
{ACAD_XDICTIONARY
360
89
102
}
330
2A
100
AcDbVisualStyle
  2
3D Hidden
 70
     6
 71
     1
 72
     2
 73
     2
 90
        0
 40
-0.6
 41
-30.0
 62
     5
 63
     7
421
 16777215
 74
     2
 91
        2
 64
     7
 65
   257
 75
     2
175
     1
 42
40.0
 92
        0
 66
   257
 43
1.0
 76
     1
 77
     6
 78
     2
 67
     7
 79
     3
170
     0
171
     0
290
     0
174
     0
 93
        1
 44
0.0
173
     0
291
     0
 45
0.0
  0
VISUALSTYLE
  5
30
102
{ACAD_REACTORS
330
2A
102
}
102
{ACAD_XDICTIONARY
360
87
102
}
330
2A
100
AcDbVisualStyle
  2
3dWireframe
 70
     5
 71
     0
 72
     2
 73
     0
 90
        0
 40
-0.6
 41
-30.0
 62
     5
 63
     7
421
 16777215
 74
     1
 91
        4
 64
     7
 65
   257
 75
     1
175
     1
 42
1.0
 92
        0
 66
   257
 43
1.0
 76
     1
 77
     6
 78
     2
 67
     7
 79
     5
170
     0
171
     0
290
     0
174
     0
 93
        1
 44
0.0
173
     0
291
     0
 45
0.0
  0
VISUALSTYLE
  5
32
102
{ACAD_REACTORS
330
2A
102
}
102
{ACAD_XDICTIONARY
360
8B
102
}
330
2A
100
AcDbVisualStyle
  2
Basic
 70
     7
 71
     1
 72
     0
 73
     1
 90
        0
 40
-0.6
 41
-30.0
 62
     5
 63
     7
421
 16777215
 74
     0
 91
        4
 64
     7
 65
   257
 75
     1
175
     1
 42
1.0
 92
        8
 66
     7
 43
1.0
 76
     1
 77
     6
 78
     2
 67
     7
 79
     5
170
     0
171
     0
290
     0
174
     0
 93
        1
 44
0.0
173
     0
291
     1
 45
0.0
  0
VISUALSTYLE
  5
36
102
{ACAD_REACTORS
330
2A
102
}
102
{ACAD_XDICTIONARY
360
93
102
}
330
2A
100
AcDbVisualStyle
  2
Brighten
 70
    12
 71
     2
 72
     2
 73
     0
 90
        0
 40
-0.6
 41
-30.0
 62
     5
 63
     7
421
 16777215
 74
     1
 91
        4
 64
     7
 65
   257
 75
     1
175
     1
 42
1.0
 92
        8
 66
     7
 43
1.0
 76
     1
 77
     6
 78
     2
 67
     7
 79
     5
170
     0
171
     0
290
     0
174
     0
 93
        1
 44
50.0
173
     0
291
     1
 45
0.0
  0
VISUALSTYLE
  5
3A
102
{ACAD_REACTORS
330
2A
102
}
102
{ACAD_XDICTIONARY
360
9B
102
}
330
2A
100
AcDbVisualStyle
  2
ColorChange
 70
    16
 71
     2
 72
     2
 73
     3
 90
        0
 40
-0.6
 41
-30.0
 62
     5
 63
     8
421
  8421504
 74
     1
 91
        4
 64
     7
 65
   257
 75
     1
175
     1
 42
1.0
 92
        8
 66
     8
424
  8421504
 43
1.0
 76
     1
 77
     6
 78
     2
 67
     7
 79
     5
170
     0
171
     0
290
     0
174
     0
 93
        1
 44
0.0
173
     0
291
     1
 45
0.0
  0
VISUALSTYLE
  5
34
102
{ACAD_REACTORS
330
2A
102
}
102
{ACAD_XDICTIONARY
360
8F
102
}
330
2A
100
AcDbVisualStyle
  2
Conceptual
 70
     9
 71
     3
 72
     2
 73
     0
 90
        0
 40
-0.6
 41
-30.0
 62
     5
 63
     7
421
 16777215
 74
     2
 91
        2
 64
     7
 65
   257
 75
     1
175
     1
 42
40.0
 92
        8
 66
     7
 43
1.0
 76
     1
 77
     6
 78
     2
 67
     7
 79
     3
170
     0
171
     0
290
     0
174
     0
 93
        1
 44
0.0
173
     0
291
     0
 45
0.0
  0
VISUALSTYLE
  5
35
102
{ACAD_REACTORS
330
2A
102
}
102
{ACAD_XDICTIONARY
360
91
102
}
330
2A
100
AcDbVisualStyle
  2
Dim
 70
    11
 71
     2
 72
     2
 73
     0
 90
        0
 40
-0.6
 41
-30.0
 62
     5
 63
     7
421
 16777215
 74
     1
 91
        4
 64
     7
 65
   257
 75
     1
175
     1
 42
1.0
 92
        8
 66
     7
 43
1.0
 76
     1
 77
     6
 78
     2
 67
     7
 79
     5
170
     0
171
     0
290
     0
174
     0
 93
        1
 44
-50.0
173
     0
291
     1
 45
0.0
  0
VISUALSTYLE
  5
39
102
{ACAD_REACTORS
330
2A
102
}
102
{ACAD_XDICTIONARY
360
99
102
}
330
2A
100
AcDbVisualStyle
  2
Facepattern
 70
    15
 71
     2
 72
     2
 73
     0
 90
        0
 40
-0.6
 41
-30.0
 62
     5
 63
     7
421
 16777215
 74
     1
 91
        4
 64
     7
 65
   257
 75
     1
175
     1
 42
1.0
 92
        8
 66
     7
 43
1.0
 76
     1
 77
     6
 78
     2
 67
     7
 79
     5
170
     0
171
     0
290
     0
174
     0
 93
        1
 44
0.0
173
     0
291
     1
 45
0.0
  0
VISUALSTYLE
  5
2B
102
{ACAD_REACTORS
330
2A
102
}
102
{ACAD_XDICTIONARY
360
7D
102
}
330
2A
100
AcDbVisualStyle
  2
Flat
 70
     0
 71
     2
 72
     1
 73
     1
 90
        2
 40
-0.6
 41
30.0
 62
     5
 63
     7
421
 16777215
 74
     0
 91
        4
 64
     7
 65
   257
 75
     1
175
     1
 42
1.0
 92
        8
 66
     7
 43
1.0
 76
     1
 77
     6
 78
     2
 67
     7
 79
     5
170
     0
171
     0
290
     0
174
     0
 93
       13
 44
0.0
173
     0
291
     1
 45
0.0
  0
VISUALSTYLE
  5
2C
102
{ACAD_REACTORS
330
2A
102
}
102
{ACAD_XDICTIONARY
360
7F
102
}
330
2A
100
AcDbVisualStyle
  2
FlatWithEdges
 70
     1
 71
     2
 72
     1
 73
     1
 90
        2
 40
-0.6
 41
30.0
 62
     5
 63
     7
421
 16777215
 74
     1
 91
        4
 64
     7
 65
   257
 75
     1
175
     1
 42
1.0
 92
        0
 66
   257
 43
1.0
 76
     1
 77
     6
 78
     2
 67
     7
 79
     5
170
     0
171
     0
290
     0
174
     0
 93
       13
 44
0.0
173
     0
291
     1
 45
0.0
  0
VISUALSTYLE
  5
2D
102
{ACAD_REACTORS
330
2A
102
}
102
{ACAD_XDICTIONARY
360
81
102
}
330
2A
100
AcDbVisualStyle
  2
Gouraud
 70
     2
 71
     2
 72
     2
 73
     1
 90
        2
 40
-0.6
 41
30.0
 62
     5
 63
     7
421
 16777215
 74
     0
 91
        4
 64
     7
 65
   257
 75
     1
175
     1
 42
1.0
 92
        0
 66
     7
 43
1.0
 76
     1
 77
     6
 78
     2
 67
     7
 79
     5
170
     0
171
     0
290
     0
174
     0
 93
       13
 44
0.0
173
     0
291
     1
 45
0.0
  0
VISUALSTYLE
  5
2E
102
{ACAD_REACTORS
330
2A
102
}
102
{ACAD_XDICTIONARY
360
83
102
}
330
2A
100
AcDbVisualStyle
  2
GouraudWithEdges
 70
     3
 71
     2
 72
     2
 73
     1
 90
        2
 40
-0.6
 41
30.0
 62
     5
 63
     7
421
 16777215
 74
     1
 91
        4
 64
     7
 65
   257
 75
     1
175
     1
 42
1.0
 92
        0
 66
   257
 43
1.0
 76
     1
 77
     6
 78
     2
 67
     7
 79
     5
170
     0
171
     0
290
     0
174
     0
 93
       13
 44
0.0
173
     0
291
     1
 45
0.0
  0
VISUALSTYLE
  5
38
102
{ACAD_REACTORS
330
2A
102
}
102
{ACAD_XDICTIONARY
360
97
102
}
330
2A
100
AcDbVisualStyle
  2
Linepattern
 70
    14
 71
     2
 72
     2
 73
     0
 90
        0
 40
-0.6
 41
-30.0
 62
     5
 63
     7
421
 16777215
 74
     1
 91
        4
 64
     7
 65
   257
 75
     7
175
     7
 42
1.0
 92
        8
 66
     7
 43
1.0
 76
     1
 77
     6
 78
     2
 67
     7
 79
     5
170
     0
171
     0
290
     0
174
     0
 93
        1
 44
0.0
173
     0
291
     1
 45
0.0
  0
VISUALSTYLE
  5
33
102
{ACAD_REACTORS
330
2A
102
}
102
{ACAD_XDICTIONARY
360
8D
102
}
330
2A
100
AcDbVisualStyle
  2
Realistic
 70
     8
 71
     2
 72
     2
 73
     0
 90
        0
 40
-0.6
 41
-30.0
 62
     5
 63
     7
421
 16777215
 74
     1
 91
        0
 64
     7
 65
   257
 75
     1
175
     1
 42
1.0
 92
        8
 66
     8
424
  7895160
 43
1.0
 76
     1
 77
     6
 78
     2
 67
     7
 79
     5
170
     0
171
     0
290
     0
174
     0
 93
       13
 44
0.0
173
     0
291
     0
 45
0.0
  0
VISUALSTYLE
  5
37
102
{ACAD_REACTORS
330
2A
102
}
102
{ACAD_XDICTIONARY
360
95
102
}
330
2A
100
AcDbVisualStyle
  2
Thicken
 70
    13
 71
     2
 72
     2
 73
     0
 90
        0
 40
-0.6
 41
-30.0
 62
     5
 63
     7
421
 16777215
 74
     1
 91
        4
 64
     7
 65
   257
 75
     1
175
     1
 42
1.0
 92
       12
 66
     7
 43
1.0
 76
     1
 77
     6
 78
     2
 67
     7
 79
     5
170
     0
171
     0
290
     0
174
     0
 93
        1
 44
0.0
173
     0
291
     1
 45
0.0
  0
DICTIONARY
  5
85
330
2F
100
AcDbDictionary
280
     1
281
     1
  3
ACAD_XREC_ROUNDTRIP
360
86
  0
DICTIONARY
  5
89
330
31
100
AcDbDictionary
280
     1
281
     1
  3
ACAD_XREC_ROUNDTRIP
360
8A
  0
DICTIONARY
  5
87
330
30
100
AcDbDictionary
280
     1
281
     1
  3
ACAD_XREC_ROUNDTRIP
360
88
  0
DICTIONARY
  5
8B
330
32
100
AcDbDictionary
280
     1
281
     1
  3
ACAD_XREC_ROUNDTRIP
360
8C
  0
DICTIONARY
  5
93
330
36
100
AcDbDictionary
280
     1
281
     1
  3
ACAD_XREC_ROUNDTRIP
360
94
  0
DICTIONARY
  5
9B
330
3A
100
AcDbDictionary
280
     1
281
     1
  3
ACAD_XREC_ROUNDTRIP
360
9C
  0
DICTIONARY
  5
8F
330
34
100
AcDbDictionary
280
     1
281
     1
  3
ACAD_XREC_ROUNDTRIP
360
90
  0
DICTIONARY
  5
91
330
35
100
AcDbDictionary
280
     1
281
     1
  3
ACAD_XREC_ROUNDTRIP
360
92
  0
DICTIONARY
  5
99
330
39
100
AcDbDictionary
280
     1
281
     1
  3
ACAD_XREC_ROUNDTRIP
360
9A
  0
DICTIONARY
  5
7D
330
2B
100
AcDbDictionary
280
     1
281
     1
  3
ACAD_XREC_ROUNDTRIP
360
7E
  0
DICTIONARY
  5
7F
330
2C
100
AcDbDictionary
280
     1
281
     1
  3
ACAD_XREC_ROUNDTRIP
360
80
  0
DICTIONARY
  5
81
330
2D
100
AcDbDictionary
280
     1
281
     1
  3
ACAD_XREC_ROUNDTRIP
360
82
  0
DICTIONARY
  5
83
330
2E
100
AcDbDictionary
280
     1
281
     1
  3
ACAD_XREC_ROUNDTRIP
360
84
  0
DICTIONARY
  5
97
330
38
100
AcDbDictionary
280
     1
281
     1
  3
ACAD_XREC_ROUNDTRIP
360
98
  0
DICTIONARY
  5
8D
330
33
100
AcDbDictionary
280
     1
281
     1
  3
ACAD_XREC_ROUNDTRIP
360
8E
  0
DICTIONARY
  5
95
330
37
100
AcDbDictionary
280
     1
281
     1
  3
ACAD_XREC_ROUNDTRIP
360
96
  0
XRECORD
  5
86
102
{ACAD_REACTORS
330
85
102
}
330
85
100
AcDbXrecord
280
     1
102
RTVSPropertyOp0
 70
     1
102
RTVSPropertyOp1
 70
     1
102
RTVSPropertyOp2
 70
     1
102
RTVSPropertyOp3
 70
     1
102
RTVSPropertyOp4
 70
     1
102
RTVSPropertyOp5
 70
     1
102
RTVSPropertyOp6
 70
     1
102
RTVSPropertyOp7
 70
     1
102
RTVSPropertyOp8
 70
     1
102
RTVSPropertyOp9
 70
     1
102
RTVSPropertyOp10
 70
     1
102
RTVSPropertyOp11
 70
     1
102
RTVSPropertyOp12
 70
     1
102
RTVSPropertyOp13
 70
     1
102
RTVSPropertyOp14
 70
     1
102
RTVSPropertyOp15
 70
     1
102
RTVSPropertyOp16
 70
     1
102
RTVSPropertyOp17
 70
     1
102
RTVSPropertyOp18
 70
     1
102
RTVSPropertyOp19
 70
     1
102
RTVSPropertyOp20
 70
     1
102
RTVSPropertyOp21
 70
     1
102
RTVSPropertyOp22
 70
     1
102
RTVSPropertyOp23
 70
     1
102
RTVSPropertyOp24
 70
     1
102
RTVSPropertyOp25
 70
     1
102
RTVSPropertyOp26
 70
     1
102
RTVSPropertyOp27
 70
     1
102
RTVSPropertyOp28
 70
     1
102
RTVSPropertyOp29
 70
     1
102
RTVSPropertyOp30
 70
     1
102
RTVSPropertyOp31
 70
     1
102
RTVSPropertyOp32
 70
     1
  0
XRECORD
  5
8A
102
{ACAD_REACTORS
330
89
102
}
330
89
100
AcDbXrecord
280
     1
102
RTVSPropertyOp0
 70
     1
102
RTVSPropertyOp1
 70
     1
102
RTVSPropertyOp2
 70
     1
102
RTVSPropertyOp3
 70
     1
102
RTVSPropertyOp4
 70
     1
102
RTVSPropertyOp5
 70
     1
102
RTVSPropertyOp6
 70
     1
102
RTVSPropertyOp7
 70
     1
102
RTVSPropertyOp8
 70
     1
102
RTVSPropertyOp9
 70
     1
102
RTVSPropertyOp10
 70
     1
102
RTVSPropertyOp11
 70
     1
102
RTVSPropertyOp12
 70
     1
102
RTVSPropertyOp13
 70
     1
102
RTVSPropertyOp14
 70
     1
102
RTVSPropertyOp15
 70
     1
102
RTVSPropertyOp16
 70
     1
102
RTVSPropertyOp17
 70
     1
102
RTVSPropertyOp18
 70
     1
102
RTVSPropertyOp19
 70
     1
102
RTVSPropertyOp20
 70
     1
102
RTVSPropertyOp21
 70
     1
102
RTVSPropertyOp22
 70
     1
102
RTVSPropertyOp23
 70
     1
102
RTVSPropertyOp24
 70
     1
102
RTVSPropertyOp25
 70
     1
102
RTVSPropertyOp26
 70
     1
102
RTVSPropertyOp27
 70
     1
102
RTVSPropertyOp28
 70
     1
102
RTVSPropertyOp29
 70
     1
102
RTVSPropertyOp30
 70
     1
102
RTVSPropertyOp31
 70
     1
102
RTVSPropertyOp32
 70
     1
  0
XRECORD
  5
88
102
{ACAD_REACTORS
330
87
102
}
330
87
100
AcDbXrecord
280
     1
102
RTVSPropertyOp0
 70
     1
102
RTVSPropertyOp1
 70
     1
102
RTVSPropertyOp2
 70
     1
102
RTVSPropertyOp3
 70
     1
102
RTVSPropertyOp4
 70
     1
102
RTVSPropertyOp5
 70
     1
102
RTVSPropertyOp6
 70
     1
102
RTVSPropertyOp7
 70
     1
102
RTVSPropertyOp8
 70
     1
102
RTVSPropertyOp9
 70
     1
102
RTVSPropertyOp10
 70
     1
102
RTVSPropertyOp11
 70
     1
102
RTVSPropertyOp12
 70
     1
102
RTVSPropertyOp13
 70
     1
102
RTVSPropertyOp14
 70
     1
102
RTVSPropertyOp15
 70
     1
102
RTVSPropertyOp16
 70
     1
102
RTVSPropertyOp17
 70
     1
102
RTVSPropertyOp18
 70
     1
102
RTVSPropertyOp19
 70
     1
102
RTVSPropertyOp20
 70
     1
102
RTVSPropertyOp21
 70
     1
102
RTVSPropertyOp22
 70
     1
102
RTVSPropertyOp23
 70
     1
102
RTVSPropertyOp24
 70
     1
102
RTVSPropertyOp25
 70
     1
102
RTVSPropertyOp26
 70
     1
102
RTVSPropertyOp27
 70
     1
102
RTVSPropertyOp28
 70
     1
102
RTVSPropertyOp29
 70
     1
102
RTVSPropertyOp30
 70
     1
102
RTVSPropertyOp31
 70
     1
102
RTVSPropertyOp32
 70
     1
  0
XRECORD
  5
8C
102
{ACAD_REACTORS
330
8B
102
}
330
8B
100
AcDbXrecord
280
     1
102
RTVSPropertyOp0
 70
     1
102
RTVSPropertyOp1
 70
     1
102
RTVSPropertyOp2
 70
     1
102
RTVSPropertyOp3
 70
     1
102
RTVSPropertyOp4
 70
     1
102
RTVSPropertyOp5
 70
     1
102
RTVSPropertyOp6
 70
     1
102
RTVSPropertyOp7
 70
     1
102
RTVSPropertyOp8
 70
     1
102
RTVSPropertyOp9
 70
     1
102
RTVSPropertyOp10
 70
     1
102
RTVSPropertyOp11
 70
     1
102
RTVSPropertyOp12
 70
     1
102
RTVSPropertyOp13
 70
     1
102
RTVSPropertyOp14
 70
     1
102
RTVSPropertyOp15
 70
     1
102
RTVSPropertyOp16
 70
     1
102
RTVSPropertyOp17
 70
     1
102
RTVSPropertyOp18
 70
     1
102
RTVSPropertyOp19
 70
     1
102
RTVSPropertyOp20
 70
     1
102
RTVSPropertyOp21
 70
     1
102
RTVSPropertyOp22
 70
     1
102
RTVSPropertyOp23
 70
     1
102
RTVSPropertyOp24
 70
     1
102
RTVSPropertyOp25
 70
     1
102
RTVSPropertyOp26
 70
     1
102
RTVSPropertyOp27
 70
     1
102
RTVSPropertyOp28
 70
     1
102
RTVSPropertyOp29
 70
     1
102
RTVSPropertyOp30
 70
     1
102
RTVSPropertyOp31
 70
     1
102
RTVSPropertyOp32
 70
     1
  0
XRECORD
  5
94
102
{ACAD_REACTORS
330
93
102
}
330
93
100
AcDbXrecord
280
     1
102
RTVSPropertyOp0
 70
     1
102
RTVSPropertyOp1
 70
     1
102
RTVSPropertyOp2
 70
     1
102
RTVSPropertyOp3
 70
     1
102
RTVSPropertyOp4
 70
     1
102
RTVSPropertyOp5
 70
     1
102
RTVSPropertyOp6
 70
     1
102
RTVSPropertyOp7
 70
     1
102
RTVSPropertyOp8
 70
     1
102
RTVSPropertyOp9
 70
     1
102
RTVSPropertyOp10
 70
     1
102
RTVSPropertyOp11
 70
     1
102
RTVSPropertyOp12
 70
     1
102
RTVSPropertyOp13
 70
     1
102
RTVSPropertyOp14
 70
     1
102
RTVSPropertyOp15
 70
     1
102
RTVSPropertyOp16
 70
     1
102
RTVSPropertyOp17
 70
     1
102
RTVSPropertyOp18
 70
     1
102
RTVSPropertyOp19
 70
     1
102
RTVSPropertyOp20
 70
     1
102
RTVSPropertyOp21
 70
     1
102
RTVSPropertyOp22
 70
     1
102
RTVSPropertyOp23
 70
     1
102
RTVSPropertyOp24
 70
     1
102
RTVSPropertyOp25
 70
     1
102
RTVSPropertyOp26
 70
     1
102
RTVSPropertyOp27
 70
     1
102
RTVSPropertyOp28
 70
     1
102
RTVSPropertyOp29
 70
     1
102
RTVSPropertyOp30
 70
     1
102
RTVSPropertyOp31
 70
     1
102
RTVSPropertyOp32
 70
     1
  0
XRECORD
  5
9C
102
{ACAD_REACTORS
330
9B
102
}
330
9B
100
AcDbXrecord
280
     1
102
RTVSPropertyOp0
 70
     1
102
RTVSPropertyOp1
 70
     1
102
RTVSPropertyOp2
 70
     1
102
RTVSPropertyOp3
 70
     1
102
RTVSPropertyOp4
 70
     1
102
RTVSPropertyOp5
 70
     1
102
RTVSPropertyOp6
 70
     1
102
RTVSPropertyOp7
 70
     1
102
RTVSPropertyOp8
 70
     1
102
RTVSPropertyOp9
 70
     1
102
RTVSPropertyOp10
 70
     1
102
RTVSPropertyOp11
 70
     1
102
RTVSPropertyOp12
 70
     1
102
RTVSPropertyOp13
 70
     1
102
RTVSPropertyOp14
 70
     1
102
RTVSPropertyOp15
 70
     1
102
RTVSPropertyOp16
 70
     1
102
RTVSPropertyOp17
 70
     1
102
RTVSPropertyOp18
 70
     1
102
RTVSPropertyOp19
 70
     1
102
RTVSPropertyOp20
 70
     1
102
RTVSPropertyOp21
 70
     1
102
RTVSPropertyOp22
 70
     1
102
RTVSPropertyOp23
 70
     1
102
RTVSPropertyOp24
 70
     1
102
RTVSPropertyOp25
 70
     1
102
RTVSPropertyOp26
 70
     1
102
RTVSPropertyOp27
 70
     1
102
RTVSPropertyOp28
 70
     1
102
RTVSPropertyOp29
 70
     1
102
RTVSPropertyOp30
 70
     1
102
RTVSPropertyOp31
 70
     1
102
RTVSPropertyOp32
 70
     1
  0
XRECORD
  5
90
102
{ACAD_REACTORS
330
8F
102
}
330
8F
100
AcDbXrecord
280
     1
102
RTVSPropertyOp0
 70
     1
102
RTVSPropertyOp1
 70
     1
102
RTVSPropertyOp2
 70
     1
102
RTVSPropertyOp3
 70
     1
102
RTVSPropertyOp4
 70
     1
102
RTVSPropertyOp5
 70
     1
102
RTVSPropertyOp6
 70
     1
102
RTVSPropertyOp7
 70
     1
102
RTVSPropertyOp8
 70
     1
102
RTVSPropertyOp9
 70
     1
102
RTVSPropertyOp10
 70
     1
102
RTVSPropertyOp11
 70
     1
102
RTVSPropertyOp12
 70
     1
102
RTVSPropertyOp13
 70
     1
102
RTVSPropertyOp14
 70
     1
102
RTVSPropertyOp15
 70
     1
102
RTVSPropertyOp16
 70
     1
102
RTVSPropertyOp17
 70
     1
102
RTVSPropertyOp18
 70
     1
102
RTVSPropertyOp19
 70
     1
102
RTVSPropertyOp20
 70
     1
102
RTVSPropertyOp21
 70
     1
102
RTVSPropertyOp22
 70
     1
102
RTVSPropertyOp23
 70
     1
102
RTVSPropertyOp24
 70
     1
102
RTVSPropertyOp25
 70
     1
102
RTVSPropertyOp26
 70
     1
102
RTVSPropertyOp27
 70
     1
102
RTVSPropertyOp28
 70
     1
102
RTVSPropertyOp29
 70
     1
102
RTVSPropertyOp30
 70
     1
102
RTVSPropertyOp31
 70
     1
102
RTVSPropertyOp32
 70
     1
  0
XRECORD
  5
92
102
{ACAD_REACTORS
330
91
102
}
330
91
100
AcDbXrecord
280
     1
102
RTVSPropertyOp0
 70
     1
102
RTVSPropertyOp1
 70
     1
102
RTVSPropertyOp2
 70
     1
102
RTVSPropertyOp3
 70
     1
102
RTVSPropertyOp4
 70
     1
102
RTVSPropertyOp5
 70
     1
102
RTVSPropertyOp6
 70
     1
102
RTVSPropertyOp7
 70
     1
102
RTVSPropertyOp8
 70
     1
102
RTVSPropertyOp9
 70
     1
102
RTVSPropertyOp10
 70
     1
102
RTVSPropertyOp11
 70
     1
102
RTVSPropertyOp12
 70
     1
102
RTVSPropertyOp13
 70
     1
102
RTVSPropertyOp14
 70
     1
102
RTVSPropertyOp15
 70
     1
102
RTVSPropertyOp16
 70
     1
102
RTVSPropertyOp17
 70
     1
102
RTVSPropertyOp18
 70
     1
102
RTVSPropertyOp19
 70
     1
102
RTVSPropertyOp20
 70
     1
102
RTVSPropertyOp21
 70
     1
102
RTVSPropertyOp22
 70
     1
102
RTVSPropertyOp23
 70
     1
102
RTVSPropertyOp24
 70
     1
102
RTVSPropertyOp25
 70
     1
102
RTVSPropertyOp26
 70
     1
102
RTVSPropertyOp27
 70
     1
102
RTVSPropertyOp28
 70
     1
102
RTVSPropertyOp29
 70
     1
102
RTVSPropertyOp30
 70
     1
102
RTVSPropertyOp31
 70
     1
102
RTVSPropertyOp32
 70
     1
  0
XRECORD
  5
9A
102
{ACAD_REACTORS
330
99
102
}
330
99
100
AcDbXrecord
280
     1
102
RTVSPropertyOp0
 70
     1
102
RTVSPropertyOp1
 70
     1
102
RTVSPropertyOp2
 70
     1
102
RTVSPropertyOp3
 70
     1
102
RTVSPropertyOp4
 70
     1
102
RTVSPropertyOp5
 70
     1
102
RTVSPropertyOp6
 70
     1
102
RTVSPropertyOp7
 70
     1
102
RTVSPropertyOp8
 70
     1
102
RTVSPropertyOp9
 70
     1
102
RTVSPropertyOp10
 70
     1
102
RTVSPropertyOp11
 70
     1
102
RTVSPropertyOp12
 70
     1
102
RTVSPropertyOp13
 70
     1
102
RTVSPropertyOp14
 70
     1
102
RTVSPropertyOp15
 70
     1
102
RTVSPropertyOp16
 70
     1
102
RTVSPropertyOp17
 70
     1
102
RTVSPropertyOp18
 70
     1
102
RTVSPropertyOp19
 70
     1
102
RTVSPropertyOp20
 70
     1
102
RTVSPropertyOp21
 70
     1
102
RTVSPropertyOp22
 70
     1
102
RTVSPropertyOp23
 70
     1
102
RTVSPropertyOp24
 70
     1
102
RTVSPropertyOp25
 70
     1
102
RTVSPropertyOp26
 70
     1
102
RTVSPropertyOp27
 70
     1
102
RTVSPropertyOp28
 70
     1
102
RTVSPropertyOp29
 70
     1
102
RTVSPropertyOp30
 70
     1
102
RTVSPropertyOp31
 70
     1
102
RTVSPropertyOp32
 70
     1
  0
XRECORD
  5
7E
102
{ACAD_REACTORS
330
7D
102
}
330
7D
100
AcDbXrecord
280
     1
102
RTVSPropertyOp0
 70
     1
102
RTVSPropertyOp1
 70
     1
102
RTVSPropertyOp2
 70
     1
102
RTVSPropertyOp3
 70
     1
102
RTVSPropertyOp4
 70
     1
102
RTVSPropertyOp5
 70
     1
102
RTVSPropertyOp6
 70
     1
102
RTVSPropertyOp7
 70
     1
102
RTVSPropertyOp8
 70
     1
102
RTVSPropertyOp9
 70
     1
102
RTVSPropertyOp10
 70
     1
102
RTVSPropertyOp11
 70
     1
102
RTVSPropertyOp12
 70
     1
102
RTVSPropertyOp13
 70
     1
102
RTVSPropertyOp14
 70
     1
102
RTVSPropertyOp15
 70
     1
102
RTVSPropertyOp16
 70
     1
102
RTVSPropertyOp17
 70
     1
102
RTVSPropertyOp18
 70
     1
102
RTVSPropertyOp19
 70
     1
102
RTVSPropertyOp20
 70
     1
102
RTVSPropertyOp21
 70
     1
102
RTVSPropertyOp22
 70
     1
102
RTVSPropertyOp23
 70
     1
102
RTVSPropertyOp24
 70
     1
102
RTVSPropertyOp25
 70
     1
102
RTVSPropertyOp26
 70
     1
102
RTVSPropertyOp27
 70
     1
102
RTVSPropertyOp28
 70
     1
102
RTVSPropertyOp29
 70
     1
102
RTVSPropertyOp30
 70
     1
102
RTVSPropertyOp31
 70
     1
102
RTVSPropertyOp32
 70
     1
  0
XRECORD
  5
80
102
{ACAD_REACTORS
330
7F
102
}
330
7F
100
AcDbXrecord
280
     1
102
RTVSPropertyOp0
 70
     1
102
RTVSPropertyOp1
 70
     1
102
RTVSPropertyOp2
 70
     1
102
RTVSPropertyOp3
 70
     1
102
RTVSPropertyOp4
 70
     1
102
RTVSPropertyOp5
 70
     1
102
RTVSPropertyOp6
 70
     1
102
RTVSPropertyOp7
 70
     1
102
RTVSPropertyOp8
 70
     1
102
RTVSPropertyOp9
 70
     1
102
RTVSPropertyOp10
 70
     1
102
RTVSPropertyOp11
 70
     1
102
RTVSPropertyOp12
 70
     1
102
RTVSPropertyOp13
 70
     1
102
RTVSPropertyOp14
 70
     1
102
RTVSPropertyOp15
 70
     1
102
RTVSPropertyOp16
 70
     1
102
RTVSPropertyOp17
 70
     1
102
RTVSPropertyOp18
 70
     1
102
RTVSPropertyOp19
 70
     1
102
RTVSPropertyOp20
 70
     1
102
RTVSPropertyOp21
 70
     1
102
RTVSPropertyOp22
 70
     1
102
RTVSPropertyOp23
 70
     1
102
RTVSPropertyOp24
 70
     1
102
RTVSPropertyOp25
 70
     1
102
RTVSPropertyOp26
 70
     1
102
RTVSPropertyOp27
 70
     1
102
RTVSPropertyOp28
 70
     1
102
RTVSPropertyOp29
 70
     1
102
RTVSPropertyOp30
 70
     1
102
RTVSPropertyOp31
 70
     1
102
RTVSPropertyOp32
 70
     1
  0
XRECORD
  5
82
102
{ACAD_REACTORS
330
81
102
}
330
81
100
AcDbXrecord
280
     1
102
RTVSPropertyOp0
 70
     1
102
RTVSPropertyOp1
 70
     1
102
RTVSPropertyOp2
 70
     1
102
RTVSPropertyOp3
 70
     1
102
RTVSPropertyOp4
 70
     1
102
RTVSPropertyOp5
 70
     1
102
RTVSPropertyOp6
 70
     1
102
RTVSPropertyOp7
 70
     1
102
RTVSPropertyOp8
 70
     1
102
RTVSPropertyOp9
 70
     1
102
RTVSPropertyOp10
 70
     1
102
RTVSPropertyOp11
 70
     1
102
RTVSPropertyOp12
 70
     1
102
RTVSPropertyOp13
 70
     1
102
RTVSPropertyOp14
 70
     1
102
RTVSPropertyOp15
 70
     1
102
RTVSPropertyOp16
 70
     1
102
RTVSPropertyOp17
 70
     1
102
RTVSPropertyOp18
 70
     1
102
RTVSPropertyOp19
 70
     1
102
RTVSPropertyOp20
 70
     1
102
RTVSPropertyOp21
 70
     1
102
RTVSPropertyOp22
 70
     1
102
RTVSPropertyOp23
 70
     1
102
RTVSPropertyOp24
 70
     1
102
RTVSPropertyOp25
 70
     1
102
RTVSPropertyOp26
 70
     1
102
RTVSPropertyOp27
 70
     1
102
RTVSPropertyOp28
 70
     1
102
RTVSPropertyOp29
 70
     1
102
RTVSPropertyOp30
 70
     1
102
RTVSPropertyOp31
 70
     1
102
RTVSPropertyOp32
 70
     1
  0
XRECORD
  5
84
102
{ACAD_REACTORS
330
83
102
}
330
83
100
AcDbXrecord
280
     1
102
RTVSPropertyOp0
 70
     1
102
RTVSPropertyOp1
 70
     1
102
RTVSPropertyOp2
 70
     1
102
RTVSPropertyOp3
 70
     1
102
RTVSPropertyOp4
 70
     1
102
RTVSPropertyOp5
 70
     1
102
RTVSPropertyOp6
 70
     1
102
RTVSPropertyOp7
 70
     1
102
RTVSPropertyOp8
 70
     1
102
RTVSPropertyOp9
 70
     1
102
RTVSPropertyOp10
 70
     1
102
RTVSPropertyOp11
 70
     1
102
RTVSPropertyOp12
 70
     1
102
RTVSPropertyOp13
 70
     1
102
RTVSPropertyOp14
 70
     1
102
RTVSPropertyOp15
 70
     1
102
RTVSPropertyOp16
 70
     1
102
RTVSPropertyOp17
 70
     1
102
RTVSPropertyOp18
 70
     1
102
RTVSPropertyOp19
 70
     1
102
RTVSPropertyOp20
 70
     1
102
RTVSPropertyOp21
 70
     1
102
RTVSPropertyOp22
 70
     1
102
RTVSPropertyOp23
 70
     1
102
RTVSPropertyOp24
 70
     1
102
RTVSPropertyOp25
 70
     1
102
RTVSPropertyOp26
 70
     1
102
RTVSPropertyOp27
 70
     1
102
RTVSPropertyOp28
 70
     1
102
RTVSPropertyOp29
 70
     1
102
RTVSPropertyOp30
 70
     1
102
RTVSPropertyOp31
 70
     1
102
RTVSPropertyOp32
 70
     1
  0
XRECORD
  5
98
102
{ACAD_REACTORS
330
97
102
}
330
97
100
AcDbXrecord
280
     1
102
RTVSPropertyOp0
 70
     1
102
RTVSPropertyOp1
 70
     1
102
RTVSPropertyOp2
 70
     1
102
RTVSPropertyOp3
 70
     1
102
RTVSPropertyOp4
 70
     1
102
RTVSPropertyOp5
 70
     1
102
RTVSPropertyOp6
 70
     1
102
RTVSPropertyOp7
 70
     1
102
RTVSPropertyOp8
 70
     1
102
RTVSPropertyOp9
 70
     1
102
RTVSPropertyOp10
 70
     1
102
RTVSPropertyOp11
 70
     1
102
RTVSPropertyOp12
 70
     1
102
RTVSPropertyOp13
 70
     1
102
RTVSPropertyOp14
 70
     1
102
RTVSPropertyOp15
 70
     1
102
RTVSPropertyOp16
 70
     1
102
RTVSPropertyOp17
 70
     1
102
RTVSPropertyOp18
 70
     1
102
RTVSPropertyOp19
 70
     1
102
RTVSPropertyOp20
 70
     1
102
RTVSPropertyOp21
 70
     1
102
RTVSPropertyOp22
 70
     1
102
RTVSPropertyOp23
 70
     1
102
RTVSPropertyOp24
 70
     1
102
RTVSPropertyOp25
 70
     1
102
RTVSPropertyOp26
 70
     1
102
RTVSPropertyOp27
 70
     1
102
RTVSPropertyOp28
 70
     1
102
RTVSPropertyOp29
 70
     1
102
RTVSPropertyOp30
 70
     1
102
RTVSPropertyOp31
 70
     1
102
RTVSPropertyOp32
 70
     1
  0
XRECORD
  5
8E
102
{ACAD_REACTORS
330
8D
102
}
330
8D
100
AcDbXrecord
280
     1
102
RTVSPropertyOp0
 70
     1
102
RTVSPropertyOp1
 70
     1
102
RTVSPropertyOp2
 70
     1
102
RTVSPropertyOp3
 70
     1
102
RTVSPropertyOp4
 70
     1
102
RTVSPropertyOp5
 70
     1
102
RTVSPropertyOp6
 70
     1
102
RTVSPropertyOp7
 70
     1
102
RTVSPropertyOp8
 70
     1
102
RTVSPropertyOp9
 70
     1
102
RTVSPropertyOp10
 70
     1
102
RTVSPropertyOp11
 70
     1
102
RTVSPropertyOp12
 70
     1
102
RTVSPropertyOp13
 70
     1
102
RTVSPropertyOp14
 70
     1
102
RTVSPropertyOp15
 70
     1
102
RTVSPropertyOp16
 70
     1
102
RTVSPropertyOp17
 70
     1
102
RTVSPropertyOp18
 70
     1
102
RTVSPropertyOp19
 70
     1
102
RTVSPropertyOp20
 70
     1
102
RTVSPropertyOp21
 70
     1
102
RTVSPropertyOp22
 70
     1
102
RTVSPropertyOp23
 70
     1
102
RTVSPropertyOp24
 70
     1
102
RTVSPropertyOp25
 70
     1
102
RTVSPropertyOp26
 70
     1
102
RTVSPropertyOp27
 70
     1
102
RTVSPropertyOp28
 70
     1
102
RTVSPropertyOp29
 70
     1
102
RTVSPropertyOp30
 70
     1
102
RTVSPropertyOp31
 70
     1
102
RTVSPropertyOp32
 70
     1
  0
XRECORD
  5
96
102
{ACAD_REACTORS
330
95
102
}
330
95
100
AcDbXrecord
280
     1
102
RTVSPropertyOp0
 70
     1
102
RTVSPropertyOp1
 70
     1
102
RTVSPropertyOp2
 70
     1
102
RTVSPropertyOp3
 70
     1
102
RTVSPropertyOp4
 70
     1
102
RTVSPropertyOp5
 70
     1
102
RTVSPropertyOp6
 70
     1
102
RTVSPropertyOp7
 70
     1
102
RTVSPropertyOp8
 70
     1
102
RTVSPropertyOp9
 70
     1
102
RTVSPropertyOp10
 70
     1
102
RTVSPropertyOp11
 70
     1
102
RTVSPropertyOp12
 70
     1
102
RTVSPropertyOp13
 70
     1
102
RTVSPropertyOp14
 70
     1
102
RTVSPropertyOp15
 70
     1
102
RTVSPropertyOp16
 70
     1
102
RTVSPropertyOp17
 70
     1
102
RTVSPropertyOp18
 70
     1
102
RTVSPropertyOp19
 70
     1
102
RTVSPropertyOp20
 70
     1
102
RTVSPropertyOp21
 70
     1
102
RTVSPropertyOp22
 70
     1
102
RTVSPropertyOp23
 70
     1
102
RTVSPropertyOp24
 70
     1
102
RTVSPropertyOp25
 70
     1
102
RTVSPropertyOp26
 70
     1
102
RTVSPropertyOp27
 70
     1
102
RTVSPropertyOp28
 70
     1
102
RTVSPropertyOp29
 70
     1
102
RTVSPropertyOp30
 70
     1
102
RTVSPropertyOp31
 70
     1
102
RTVSPropertyOp32
 70
     1
  0
ENDSEC
  0
EOF
