  0
SECTION
  2
HEADER
  9
$ACADVER
  1
AC1021
  9
$ACADMAINTVER
 70
    25
  9
$DWGCODEPAGE
  3
ANSI_1252
  9
$INSBASE
 10
0.0
 20
0.0
 30
0.0
  9
$EXTMIN
 10
-15.98931
 20
-11.5187
 30
0.0
  9
$EXTMAX
 10
-4.01069
 20
-8.48133
 30
0.0
  9
$LIMMIN
 10
0.0
 20
0.0
  9
$LIMMAX
 10
12.0
 20
9.0
  9
$ORTHOMODE
 70
     0
  9
$REGENMODE
 70
     1
  9
$FILLMODE
 70
     1
  9
$QTEXTMODE
 70
     0
  9
$MIRRTEXT
 70
     1
  9
$LTSCALE
 40
1.0
  9
$ATTMODE
 70
     1
  9
$TEXTSIZE
 40
0.2
  9
$TRACEWID
 40
0.05
  9
$TEXTSTYLE
  7
Standard
  9
$CLAYER
  8
0
  9
$CELTYPE
  6
ByLayer
  9
$CECOLOR
 62
   256
  9
$CELTSCALE
 40
1.0
  9
$DISPSILH
 70
     0
  9
$DIMSCALE
 40
1.0
  9
$DIMASZ
 40
0.18
  9
$DIMEXO
 40
0.0625
  9
$DIMDLI
 40
0.38
  9
$DIMRND
 40
0.0
  9
$DIMDLE
 40
0.0
  9
$DIMEXE
 40
0.18
  9
$DIMTP
 40
0.0
  9
$DIMTM
 40
0.0
  9
$DIMTXT
 40
0.18
  9
$DIMCEN
 40
0.09
  9
$DIMTSZ
 40
0.0
  9
$DIMTOL
 70
     0
  9
$DIMLIM
 70
     0
  9
$DIMTIH
 70
     1
  9
$DIMTOH
 70
     1
  9
$DIMSE1
 70
     0
  9
$DIMSE2
 70
     0
  9
$DIMTAD
 70
     0
  9
$DIMZIN
 70
     0
  9
$DIMBLK
  1

  9
$DIMASO
 70
     1
  9
$DIMSHO
 70
     1
  9
$DIMPOST
  1

  9
$DIMAPOST
  1

  9
$DIMALT
 70
     0
  9
$DIMALTD
 70
     2
  9
$DIMALTF
 40
25.4
  9
$DIMLFAC
 40
1.0
  9
$DIMTOFL
 70
     0
  9
$DIMTVP
 40
0.0
  9
$DIMTIX
 70
     0
  9
$DIMSOXD
 70
     0
  9
$DIMSAH
 70
     0
  9
$DIMBLK1
  1

  9
$DIMBLK2
  1

  9
$DIMSTYLE
  2
Standard
  9
$DIMCLRD
 70
     0
  9
$DIMCLRE
 70
     0
  9
$DIMCLRT
 70
     0
  9
$DIMTFAC
 40
1.0
  9
$DIMGAP
 40
0.09
  9
$DIMJUST
 70
     0
  9
$DIMSD1
 70
     0
  9
$DIMSD2
 70
     0
  9
$DIMTOLJ
 70
     1
  9
$DIMTZIN
 70
     0
  9
$DIMALTZ
 70
     0
  9
$DIMALTTZ
 70
     0
  9
$DIMUPT
 70
     0
  9
$DIMDEC
 70
     4
  9
$DIMTDEC
 70
     4
  9
$DIMALTU
 70
     2
  9
$DIMALTTD
 70
     2
  9
$DIMTXSTY
  7
Standard
  9
$DIMAUNIT
 70
     0
  9
$DIMADEC
 70
     0
  9
$DIMALTRND
 40
0.0
  9
$DIMAZIN
 70
     0
  9
$DIMDSEP
 70
    46
  9
$DIMATFIT
 70
     3
  9
$DIMFRAC
 70
     0
  9
$DIMLDRBLK
  1

  9
$DIMLUNIT
 70
     2
  9
$DIMLWD
 70
    -2
  9
$DIMLWE
 70
    -2
  9
$DIMTMOVE
 70
     0
  9
$DIMFXL
 40
1.0
  9
$DIMFXLON
 70
     0
  9
$DIMJOGANG
 40
0.7853981633974483
  9
$DIMTFILL
 70
     0
  9
$DIMTFILLCLR
 70
     0
  9
$DIMARCSYM
 70
     0
  9
$DIMLTYPE
  6

  9
$DIMLTEX1
  6

  9
$DIMLTEX2
  6

  9
$LUNITS
 70
     2
  9
$LUPREC
 70
     4
  9
$SKETCHINC
 40
0.1
  9
$FILLETRAD
 40
0.5
  9
$AUNITS
 70
     0
  9
$AUPREC
 70
     0
  9
$MENU
  1
.
  9
$ELEVATION
 40
0.0
  9
$PELEVATION
 40
0.0
  9
$THICKNESS
 40
0.0
  9
$LIMCHECK
 70
     0
  9
$CHAMFERA
 40
0.5
  9
$CHAMFERB
 40
0.5
  9
$CHAMFERC
 40
1.0
  9
$CHAMFERD
 40
0.0
  9
$SKPOLY
 70
     0
  9
$TDCREATE
 40
2460554.835473507
  9
$TDUCREATE
 40
2460554.79380684
  9
$TDUPDATE
 40
2460554.835473599
  9
$TDUUPDATE
 40
2460554.793806933
  9
$TDINDWG
 40
0.0000000116
  9
$TDUSRTIMER
 40
0.0000000116
  9
$USRTIMER
 70
     1
  9
$ANGBASE
 50
0.0
  9
$ANGDIR
 70
     0
  9
$PDMODE
 70
     0
  9
$PDSIZE
 40
0.0
  9
$PLINEWID
 40
0.0
  9
$SPLFRAME
 70
     0
  9
$SPLINETYPE
 70
     6
  9
$SPLINESEGS
 70
     8
  9
$HANDSEED
  5
9F
  9
$SURFTAB1
 70
     6
  9
$SURFTAB2
 70
     6
  9
$SURFTYPE
 70
     6
  9
$SURFU
 70
     6
  9
$SURFV
 70
     6
  9
$UCSBASE
  2

  9
$UCSNAME
  2

  9
$UCSORG
 10
0.0
 20
0.0
 30
0.0
  9
$UCSXDIR
 10
1.0
 20
0.0
 30
0.0
  9
$UCSYDIR
 10
0.0
 20
1.0
 30
0.0
  9
$UCSORTHOREF
  2

  9
$UCSORTHOVIEW
 70
     0
  9
$UCSORGTOP
 10
0.0
 20
0.0
 30
0.0
  9
$UCSORGBOTTOM
 10
0.0
 20
0.0
 30
0.0
  9
$UCSORGLEFT
 10
0.0
 20
0.0
 30
0.0
  9
$UCSORGRIGHT
 10
0.0
 20
0.0
 30
0.0
  9
$UCSORGFRONT
 10
0.0
 20
0.0
 30
0.0
  9
$UCSORGBACK
 10
0.0
 20
0.0
 30
0.0
  9
$PUCSBASE
  2

  9
$PUCSNAME
  2

  9
$PUCSORG
 10
0.0
 20
0.0
 30
0.0
  9
$PUCSXDIR
 10
1.0
 20
0.0
 30
0.0
  9
$PUCSYDIR
 10
0.0
 20
1.0
 30
0.0
  9
$PUCSORTHOREF
  2

  9
$PUCSORTHOVIEW
 70
     0
  9
$PUCSORGTOP
 10
0.0
 20
0.0
 30
0.0
  9
$PUCSORGBOTTOM
 10
0.0
 20
0.0
 30
0.0
  9
$PUCSORGLEFT
 10
0.0
 20
0.0
 30
0.0
  9
$PUCSORGRIGHT
 10
0.0
 20
0.0
 30
0.0
  9
$PUCSORGFRONT
 10
0.0
 20
0.0
 30
0.0
  9
$PUCSORGBACK
 10
0.0
 20
0.0
 30
0.0
  9
$USERI1
 70
     0
  9
$USERI2
 70
     0
  9
$USERI3
 70
     0
  9
$USERI4
 70
     0
  9
$USERI5
 70
     0
  9
$USERR1
 40
0.0
  9
$USERR2
 40
0.0
  9
$USERR3
 40
0.0
  9
$USERR4
 40
0.0
  9
$USERR5
 40
0.0
  9
$WORLDVIEW
 70
     1
  9
$SHADEDGE
 70
     3
  9
$SHADEDIF
 70
    70
  9
$TILEMODE
 70
     1
  9
$MAXACTVP
 70
    64
  9
$PINSBASE
 10
0.0
 20
0.0
 30
0.0
  9
$PLIMCHECK
 70
     0
  9
$PEXTMIN
 10
1.000000000000000E+20
 20
1.000000000000000E+20
 30
1.000000000000000E+20
  9
$PEXTMAX
 10
-1.000000000000000E+20
 20
-1.000000000000000E+20
 30
-1.000000000000000E+20
  9
$PLIMMIN
 10
0.0
 20
0.0
  9
$PLIMMAX
 10
12.0
 20
9.0
  9
$UNITMODE
 70
     0
  9
$VISRETAIN
 70
     1
  9
$PLINEGEN
 70
     0
  9
$PSLTSCALE
 70
     1
  9
$TREEDEPTH
 70
  3020
  9
$CMLSTYLE
  2
Standard
  9
$CMLJUST
 70
     0
  9
$CMLSCALE
 40
1.0
  9
$PROXYGRAPHICS
 70
     1
  9
$MEASUREMENT
 70
     0
  9
$CELWEIGHT
370
    -1
  9
$ENDCAPS
280
     0
  9
$JOINSTYLE
280
     0
  9
$LWDISPLAY
290
     0
  9
$INSUNITS
 70
     5
  9
$HYPERLINKBASE
  1

  9
$STYLESHEET
  1

  9
$XEDIT
290
     1
  9
$CEPSNTYPE
380
     0
  9
$PSTYLEMODE
290
     1
  9
$FINGERPRINTGUID
  2
{11D4C023-F25B-490B-A9F1-60428031A1EA}
  9
$VERSIONGUID
  2
{FAEB1C32-E019-11D5-929B-00C0DF256EC4}
  9
$EXTNAMES
290
     1
  9
$PSVPSCALE
 40
0.0
  9
$OLESTARTUP
290
     0
  9
$SORTENTS
280
   127
  9
$INDEXCTL
280
     0
  9
$HIDETEXT
280
     1
  9
$XCLIPFRAME
290
     0
  9
$HALOGAP
280
     0
  9
$OBSCOLOR
 70
   257
  9
$OBSLTYPE
280
     0
  9
$INTERSECTIONDISPLAY
280
     0
  9
$INTERSECTIONCOLOR
 70
   257
  9
$DIMASSOC
280
     2
  9
$PROJECTNAME
  1

  9
$CAMERADISPLAY
290
     0
  9
$LENSLENGTH
 40
50.0
  9
$CAMERAHEIGHT
 40
0.0
  9
$STEPSPERSEC
 40
2.0
  9
$STEPSIZE
 40
6.0
  9
$3DDWFPREC
 40
2.0
  9
$PSOLWIDTH
 40
0.25
  9
$PSOLHEIGHT
 40
4.0
  9
$LOFTANG1
 40
1.570796326794897
  9
$LOFTANG2
 40
1.570796326794897
  9
$LOFTMAG1
 40
0.0
  9
$LOFTMAG2
 40
0.0
  9
$LOFTPARAM
 70
     7
  9
$LOFTNORMALS
280
     1
  9
$LATITUDE
 40
37.795
  9
$LONGITUDE
 40
-122.394
  9
$NORTHDIRECTION
 40
0.0
  9
$TIMEZONE
 70
 -8000
  9
$LIGHTGLYPHDISPLAY
280
     1
  9
$TILEMODELIGHTSYNCH
280
     1
  9
$SOLIDHIST
280
     1
  9
$SHOWHIST
280
     1
  9
$DWFFRAME
280
     2
  9
$DGNFRAME
280
     2
  9
$REALWORLDSCALE
290
     1
  9
$INTERFERECOLOR
 62
   256
  9
$CSHADOW
280
     0
  9
$SHADOWPLANELOCATION
 40
0.0
  0
ENDSEC
  0
SECTION
  2
CLASSES
  0
CLASS
  1
ACDBDICTIONARYWDFLT
  2
AcDbDictionaryWithDefault
  3
ObjectDBX Classes
 90
        0
 91
        4
280
     0
281
     0
  0
CLASS
  1
VISUALSTYLE
  2
AcDbVisualStyle
  3
ObjectDBX Classes
 90
     4095
 91
        4
280
     0
281
     0
  0
CLASS
  1
MATERIAL
  2
AcDbMaterial
  3
ObjectDBX Classes
 90
     1153
 91
        4
280
     0
281
     0
  0
ENDSEC
  0
SECTION
  2
TABLES
  0
TABLE
  2
VPORT
  5
8
330
0
100
AcDbSymbolTable
 70
     1
  0
VPORT
  5
29
330
8
100
AcDbSymbolTableRecord
100
AcDbViewportTableRecord
  2
*Active
 70
     0
 10
0.0
 20
0.0
 11
1.0
 21
1.0
 12
10.42990654205607
 22
4.5
 13
0.0
 23
0.0
 14
0.5
 24
0.5
 15
0.5
 25
0.5
 16
0.0
 26
0.0
 36
1.0
 17
0.0
 27
0.0
 37
0.0
 40
9.0
 41
1.972972972850329
 42
50.0
 43
0.0
 44
0.0
 50
0.0
 51
0.0
 71
     0
 72
   100
 73
     1
 74
     3
 75
     0
 76
     0
 77
     0
 78
     0
281
     0
 65
     1
110
0.0
120
0.0
130
0.0
111
1.0
121
0.0
131
0.0
112
0.0
122
1.0
132
0.0
 79
     0
146
0.0
 60
     3
 61
     5
292
     1
282
     1
141
0.0
142
0.0
 63
   250
  0
ENDTAB
  0
TABLE
  2
LTYPE
  5
5
330
0
100
AcDbSymbolTable
 70
     1
  0
LTYPE
  5
14
330
5
100
AcDbSymbolTableRecord
100
AcDbLinetypeTableRecord
  2
ByBlock
 70
     0
  3

 72
    65
 73
     0
 40
0.0
  0
LTYPE
  5
15
330
5
100
AcDbSymbolTableRecord
100
AcDbLinetypeTableRecord
  2
ByLayer
 70
     0
  3

 72
    65
 73
     0
 40
0.0
  0
LTYPE
  5
16
330
5
100
AcDbSymbolTableRecord
100
AcDbLinetypeTableRecord
  2
Continuous
 70
     0
  3
Solid line
 72
    65
 73
     0
 40
0.0
  0
ENDTAB
  0
TABLE
  2
LAYER
  5
2
330
0
100
AcDbSymbolTable
 70
     2
  0
LAYER
  5
10
330
2
100
AcDbSymbolTableRecord
100
AcDbLayerTableRecord
  2
0
 70
     0
 62
     7
  6
Continuous
370
    -3
390
F
347
3E
  0
LAYER
  5
40
330
2
100
AcDbSymbolTableRecord
100
AcDbLayerTableRecord
  2
Layer 1
 70
     0
 62
     7
  6
Continuous
370
    -3
390
F
347
3E
  0
ENDTAB
  0
TABLE
  2
STYLE
  5
3
330
0
100
AcDbSymbolTable
 70
     1
  0
STYLE
  5
11
330
3
100
AcDbSymbolTableRecord
100
AcDbTextStyleTableRecord
  2
Standard
 70
     0
 40
0.0
 41
1.0
 50
0.0
 71
     0
 42
0.2
  3
txt
  4

  0
ENDTAB
  0
TABLE
  2
VIEW
  5
6
330
0
100
AcDbSymbolTable
 70
     0
  0
ENDTAB
  0
TABLE
  2
UCS
  5
7
330
0
100
AcDbSymbolTable
 70
     0
  0
ENDTAB
  0
TABLE
  2
APPID
  5
9
330
0
100
AcDbSymbolTable
 70
     2
  0
APPID
  5
12
330
9
100
AcDbSymbolTableRecord
100
AcDbRegAppTableRecord
  2
ACAD
 70
     0
  0
APPID
  5
3F
330
9
100
AcDbSymbolTableRecord
100
AcDbRegAppTableRecord
  2
ODA
 70
     0
  0
ENDTAB
  0
TABLE
  2
DIMSTYLE
  5
A
330
0
100
AcDbSymbolTable
 70
     1
100
AcDbDimStyleTable
  0
DIMSTYLE
105
27
330
A
100
AcDbSymbolTableRecord
100
AcDbDimStyleTableRecord
  2
Standard
 70
     0
178
     0
340
11
  0
ENDTAB
  0
TABLE
  2
BLOCK_RECORD
  5
1
330
0
100
AcDbSymbolTable
 70
     1
  0
BLOCK_RECORD
  5
1F
330
1
100
AcDbSymbolTableRecord
100
AcDbBlockTableRecord
  2
*Model_Space
340
22
 70
     0
280
     1
281
     0
  0
BLOCK_RECORD
  5
1B
330
1
100
AcDbSymbolTableRecord
100
AcDbBlockTableRecord
  2
*Paper_Space
340
1E
 70
     0
280
     1
281
     0
  0
BLOCK_RECORD
  5
23
330
1
100
AcDbSymbolTableRecord
100
AcDbBlockTableRecord
  2
*Paper_Space0
340
26
 70
     0
280
     1
281
     0
  0
ENDTAB
  0
ENDSEC
  0
SECTION
  2
BLOCKS
  0
BLOCK
  5
20
330
1F
100
AcDbEntity
  8
0
100
AcDbBlockBegin
  2
*Model_Space
 70
     0
 10
0.0
 20
0.0
 30
0.0
  3
*Model_Space
  1

  0
ENDBLK
  5
21
330
1F
100
AcDbEntity
  8
0
100
AcDbBlockEnd
  0
BLOCK
  5
1C
330
1B
100
AcDbEntity
 67
     1
  8
0
100
AcDbBlockBegin
  2
*Paper_Space
 70
     0
 10
0.0
 20
0.0
 30
0.0
  3
*Paper_Space
  1

  0
ENDBLK
  5
1D
330
1B
100
AcDbEntity
 67
     1
  8
0
100
AcDbBlockEnd
  0
BLOCK
  5
24
330
23
100
AcDbEntity
  8
0
100
AcDbBlockBegin
  2
*Paper_Space0
 70
     0
 10
0.0
 20
0.0
 30
0.0
  3
*Paper_Space0
  1

  0
ENDBLK
  5
25
330
23
100
AcDbEntity
  8
0
100
AcDbBlockEnd
  0
ENDSEC
  0
SECTION
  2
ENTITIES
  0
SPLINE
  5
41
330
1F
100
AcDbEntity
  8
Layer 1
 62
     5
370
    53
100
AcDbSpline
210
0.0
220
0.0
230
1.0
 70
    11
 71
     3
 72
    32
 73
    28
 74
     0
 42
0.0000000001
 43
0.0000000001
 12
1.0
 22
0.0
 32
0.0
 13
1.0
 23
0.0
 33
0.0
 40
0.0
 40
0.0
 40
0.0
 40
0.0
 40
0.125
 40
0.125
 40
0.125
 40
0.125
 40
0.25
 40
0.25
 40
0.25
 40
0.25
 40
0.375
 40
0.375
 40
0.375
 40
0.375
 40
0.5
 40
0.5
 40
0.5
 40
0.5
 40
0.625
 40
0.625
 40
0.625
 40
0.625
 40
0.75
 40
0.75
 40
0.75
 40
0.75
 40
1.0
 40
1.0
 40
1.0
 40
1.0
 10
-14.47008
 20
-11.17142
 30
0.0
 10
-14.47008
 20
-11.17142
 30
0.0
 10
-14.47008
 20
-11.17142
 30
0.0
 10
-14.47008
 20
-11.17142
 30
0.0
 10
-14.47008
 20
-11.17142
 30
0.0
 10
-14.54484
 20
-11.18393
 30
0.0
 10
-14.6126
 20
-11.19498
 30
0.0
 10
-14.68023
 20
-11.20695
 30
0.0
 10
-14.68023
 20
-11.20695
 30
0.0
 10
-14.69002
 20
-11.20868
 30
0.0
 10
-14.70267
 20
-11.21214
 30
0.0
 10
-14.70772
 20
-11.21924
 30
0.0
 10
-14.70772
 20
-11.21924
 30
0.0
 10
-14.72172
 20
-11.23891
 30
0.0
 10
-14.73241
 20
-11.26092
 30
0.0
 10
-14.74441
 20
-11.282
 30
0.0
 10
-14.74441
 20
-11.282
 30
0.0
 10
-14.72256
 20
-11.28917
 30
0.0
 10
-14.70076
 20
-11.30201
 30
0.0
 10
-14.67885
 20
-11.30222
 30
0.0
 10
-14.67885
 20
-11.30222
 30
0.0
 10
-14.63817
 20
-11.30252
 30
0.0
 10
-14.59749
 20
-11.29469
 30
0.0
 10
-14.5567
 20
-11.29164
 30
0.0
 10
-14.5567
 20
-11.29164
 30
0.0
 10
-14.46988
 20
-11.28521
 30
0.0
 10
-14.44885
 20
-11.25446
 30
0.0
 10
-14.47008
 20
-11.17142
 30
0.0
  0
SPLINE
  5
42
330
1F
100
AcDbEntity
  8
Layer 1
 62
     5
370
    53
100
AcDbSpline
210
0.0
220
0.0
230
1.0
 70
    11
 71
     3
 72
    36
 73
    32
 74
     0
 42
0.0000000001
 43
0.0000000001
 12
1.0
 22
0.0
 32
0.0
 13
1.0
 23
0.0
 33
0.0
 40
0.0
 40
0.0
 40
0.0
 40
0.0
 40
0.1111111111111111
 40
0.1111111111111111
 40
0.1111111111111111
 40
0.1111111111111111
 40
0.2222222222222222
 40
0.2222222222222222
 40
0.2222222222222222
 40
0.2222222222222222
 40
0.3333333333333333
 40
0.3333333333333333
 40
0.3333333333333333
 40
0.3333333333333333
 40
0.4444444444444444
 40
0.4444444444444444
 40
0.4444444444444444
 40
0.4444444444444444
 40
0.5555555555555556
 40
0.5555555555555556
 40
0.5555555555555556
 40
0.5555555555555556
 40
0.6666666666666666
 40
0.6666666666666666
 40
0.6666666666666666
 40
0.6666666666666666
 40
0.7777777777777778
 40
0.7777777777777778
 40
0.7777777777777778
 40
0.7777777777777778
 40
1.0
 40
1.0
 40
1.0
 40
1.0
 10
-15.46247
 20
-10.8263
 30
0.0
 10
-15.46247
 20
-10.8263
 30
0.0
 10
-15.46247
 20
-10.8263
 30
0.0
 10
-15.46247
 20
-10.8263
 30
0.0
 10
-15.46247
 20
-10.8263
 30
0.0
 10
-15.43543
 20
-10.83069
 30
0.0
 10
-15.4092
 20
-10.83911
 30
0.0
 10
-15.38325
 20
-10.83834
 30
0.0
 10
-15.38325
 20
-10.83834
 30
0.0
 10
-15.31224
 20
-10.8362
 30
0.0
 10
-15.24115
 20
-10.83211
 30
0.0
 10
-15.17049
 20
-10.82465
 30
0.0
 10
-15.17049
 20
-10.82465
 30
0.0
 10
-15.14535
 20
-10.82201
 30
0.0
 10
-15.10065
 20
-10.80754
 30
0.0
 10
-15.1006
 20
-10.79834
 30
0.0
 10
-15.1006
 20
-10.79834
 30
0.0
 10
-15.10049
 20
-10.7617
 30
0.0
 10
-15.10965
 20
-10.72256
 30
0.0
 10
-15.12639
 20
-10.69003
 30
0.0
 10
-15.12639
 20
-10.69003
 30
0.0
 10
-15.13092
 20
-10.68124
 30
0.0
 10
-15.17489
 20
-10.69003
 30
0.0
 10
-15.19988
 20
-10.6952
 30
0.0
 10
-15.19988
 20
-10.6952
 30
0.0
 10
-15.24567
 20
-10.70468
 30
0.0
 10
-15.29203
 20
-10.73023
 30
0.0
 10
-15.33598
 20
-10.72607
 30
0.0
 10
-15.33598
 20
-10.72607
 30
0.0
 10
-15.42252
 20
-10.71791
 30
0.0
 10
-15.43472
 20
-10.72046
 30
0.0
 10
-15.46247
 20
-10.8263
 30
0.0
  0
SPLINE
  5
43
330
1F
100
AcDbEntity
  8
Layer 1
 62
     5
370
    53
100
AcDbSpline
210
0.0
220
0.0
230
1.0
 70
    11
 71
     3
 72
    32
 73
    28
 74
     0
 42
0.0000000001
 43
0.0000000001
 12
1.0
 22
0.0
 32
0.0
 13
1.0
 23
0.0
 33
0.0
 40
0.0
 40
0.0
 40
0.0
 40
0.0
 40
0.125
 40
0.125
 40
0.125
 40
0.125
 40
0.25
 40
0.25
 40
0.25
 40
0.25
 40
0.375
 40
0.375
 40
0.375
 40
0.375
 40
0.5
 40
0.5
 40
0.5
 40
0.5
 40
0.625
 40
0.625
 40
0.625
 40
0.625
 40
0.75
 40
0.75
 40
0.75
 40
0.75
 40
1.0
 40
1.0
 40
1.0
 40
1.0
 10
-12.09834
 20
-10.1413
 30
0.0
 10
-12.09834
 20
-10.1413
 30
0.0
 10
-12.09834
 20
-10.1413
 30
0.0
 10
-12.09834
 20
-10.1413
 30
0.0
 10
-12.09834
 20
-10.1413
 30
0.0
 10
-12.14558
 20
-10.23086
 30
0.0
 10
-12.18849
 20
-10.30829
 30
0.0
 10
-12.22715
 20
-10.3878
 30
0.0
 10
-12.22715
 20
-10.3878
 30
0.0
 10
-12.23958
 20
-10.41335
 30
0.0
 10
-12.24678
 20
-10.44503
 30
0.0
 10
-12.24372
 20
-10.4725
 30
0.0
 10
-12.24372
 20
-10.4725
 30
0.0
 10
-12.24273
 20
-10.48128
 30
0.0
 10
-12.19804
 20
-10.49536
 30
0.0
 10
-12.17857
 20
-10.48955
 30
0.0
 10
-12.17857
 20
-10.48955
 30
0.0
 10
-12.14833
 20
-10.48051
 30
0.0
 10
-12.11193
 20
-10.46278
 30
0.0
 10
-12.09708
 20
-10.43756
 30
0.0
 10
-12.09708
 20
-10.43756
 30
0.0
 10
-12.06676
 20
-10.38607
 30
0.0
 10
-12.04906
 20
-10.3271
 30
0.0
 10
-12.01899
 20
-10.25378
 30
0.0
 10
-12.01899
 20
-10.25378
 30
0.0
 10
-12.03485
 20
-10.23127
 30
0.0
 10
-12.06514
 20
-10.18835
 30
0.0
 10
-12.09834
 20
-10.1413
 30
0.0
  0
SPLINE
  5
44
330
1F
100
AcDbEntity
  8
Layer 1
 62
     5
370
    53
100
AcDbSpline
210
0.0
220
0.0
230
1.0
 70
    11
 71
     3
 72
    24
 73
    20
 74
     0
 42
0.0000000001
 43
0.0000000001
 12
1.0
 22
0.0
 32
0.0
 13
1.0
 23
0.0
 33
0.0
 40
0.0
 40
0.0
 40
0.0
 40
0.0
 40
0.1666666666666667
 40
0.1666666666666667
 40
0.1666666666666667
 40
0.1666666666666667
 40
0.3333333333333333
 40
0.3333333333333333
 40
0.3333333333333333
 40
0.3333333333333333
 40
0.5
 40
0.5
 40
0.5
 40
0.5
 40
0.6666666666666666
 40
0.6666666666666666
 40
0.6666666666666666
 40
0.6666666666666666
 40
1.0
 40
1.0
 40
1.0
 40
1.0
 10
-11.8571
 20
-10.00787
 30
0.0
 10
-11.8571
 20
-10.00787
 30
0.0
 10
-11.8571
 20
-10.00787
 30
0.0
 10
-11.8571
 20
-10.00787
 30
0.0
 10
-11.8571
 20
-10.00787
 30
0.0
 10
-11.85522
 20
-9.89615
 30
0.0
 10
-11.88478
 20
-9.88331
 30
0.0
 10
-11.97633
 20
-9.92362
 30
0.0
 10
-11.97633
 20
-9.92362
 30
0.0
 10
-12.10118
 20
-9.9786
 30
0.0
 10
-12.12369
 20
-10.06609
 30
0.0
 10
-12.03505
 20
-10.16954
 30
0.0
 10
-12.03505
 20
-10.16954
 30
0.0
 10
-12.0228
 20
-10.18385
 30
0.0
 10
-11.97241
 20
-10.18982
 30
0.0
 10
-11.96595
 20
-10.18078
 30
0.0
 10
-11.96595
 20
-10.18078
 30
0.0
 10
-11.92092
 20
-10.11794
 30
0.0
 10
-11.88282
 20
-10.05014
 30
0.0
 10
-11.8571
 20
-10.00787
 30
0.0
  0
SPLINE
  5
45
330
1F
100
AcDbEntity
  8
Layer 1
 62
     5
370
    53
100
AcDbSpline
210
0.0
220
0.0
230
1.0
 70
    11
 71
     3
 72
    32
 73
    28
 74
     0
 42
0.0000000001
 43
0.0000000001
 12
1.0
 22
0.0
 32
0.0
 13
1.0
 23
0.0
 33
0.0
 40
0.0
 40
0.0
 40
0.0
 40
0.0
 40
0.125
 40
0.125
 40
0.125
 40
0.125
 40
0.25
 40
0.25
 40
0.25
 40
0.25
 40
0.375
 40
0.375
 40
0.375
 40
0.375
 40
0.5
 40
0.5
 40
0.5
 40
0.5
 40
0.625
 40
0.625
 40
0.625
 40
0.625
 40
0.75
 40
0.75
 40
0.75
 40
0.75
 40
1.0
 40
1.0
 40
1.0
 40
1.0
 10
-14.44665
 20
-11.16884
 30
0.0
 10
-14.44665
 20
-11.16884
 30
0.0
 10
-14.44665
 20
-11.16884
 30
0.0
 10
-14.44665
 20
-11.16884
 30
0.0
 10
-14.44665
 20
-11.16884
 30
0.0
 10
-14.42509
 20
-11.2095
 30
0.0
 10
-14.41107
 20
-11.25317
 30
0.0
 10
-14.40098
 20
-11.25227
 30
0.0
 10
-14.40098
 20
-11.25227
 30
0.0
 10
-14.31733
 20
-11.24485
 30
0.0
 10
-14.22941
 20
-11.24126
 30
0.0
 10
-14.15373
 20
-11.21
 30
0.0
 10
-14.15373
 20
-11.21
 30
0.0
 10
-14.12384
 20
-11.19764
 30
0.0
 10
-14.12172
 20
-11.11809
 30
0.0
 10
-14.10696
 20
-11.0691
 30
0.0
 10
-14.10696
 20
-11.0691
 30
0.0
 10
-14.1419
 20
-11.06507
 30
0.0
 10
-14.17776
 20
-11.05412
 30
0.0
 10
-14.2116
 20
-11.05859
 30
0.0
 10
-14.2116
 20
-11.05859
 30
0.0
 10
-14.26217
 20
-11.06525
 30
0.0
 10
-14.31357
 20
-11.0775
 30
0.0
 10
-14.36024
 20
-11.09755
 30
0.0
 10
-14.36024
 20
-11.09755
 30
0.0
 10
-14.39157
 20
-11.11101
 30
0.0
 10
-14.41533
 20
-11.14207
 30
0.0
 10
-14.44665
 20
-11.16884
 30
0.0
  0
SPLINE
  5
46
330
1F
100
AcDbEntity
  8
Layer 1
 62
     5
370
    53
100
AcDbSpline
210
0.0
220
0.0
230
1.0
 70
    11
 71
     3
 72
    36
 73
    32
 74
     0
 42
0.0000000001
 43
0.0000000001
 12
1.0
 22
0.0
 32
0.0
 13
1.0
 23
0.0
 33
0.0
 40
0.0
 40
0.0
 40
0.0
 40
0.0
 40
0.1111111111111111
 40
0.1111111111111111
 40
0.1111111111111111
 40
0.1111111111111111
 40
0.2222222222222222
 40
0.2222222222222222
 40
0.2222222222222222
 40
0.2222222222222222
 40
0.3333333333333333
 40
0.3333333333333333
 40
0.3333333333333333
 40
0.3333333333333333
 40
0.4444444444444444
 40
0.4444444444444444
 40
0.4444444444444444
 40
0.4444444444444444
 40
0.5555555555555556
 40
0.5555555555555556
 40
0.5555555555555556
 40
0.5555555555555556
 40
0.6666666666666666
 40
0.6666666666666666
 40
0.6666666666666666
 40
0.6666666666666666
 40
0.7777777777777778
 40
0.7777777777777778
 40
0.7777777777777778
 40
0.7777777777777778
 40
1.0
 40
1.0
 40
1.0
 40
1.0
 10
-15.21773
 20
-9.52751
 30
0.0
 10
-15.21773
 20
-9.52751
 30
0.0
 10
-15.21773
 20
-9.52751
 30
0.0
 10
-15.21773
 20
-9.52751
 30
0.0
 10
-15.21773
 20
-9.52751
 30
0.0
 10
-15.21996
 20
-9.44235
 30
0.0
 10
-15.22892
 20
-9.43597
 30
0.0
 10
-15.30952
 20
-9.44677
 30
0.0
 10
-15.30952
 20
-9.44677
 30
0.0
 10
-15.40082
 20
-9.45899
 30
0.0
 10
-15.49269
 20
-9.46729
 30
0.0
 10
-15.58373
 20
-9.48111
 30
0.0
 10
-15.58373
 20
-9.48111
 30
0.0
 10
-15.60201
 20
-9.48387
 30
0.0
 10
-15.62968
 20
-9.50207
 30
0.0
 10
-15.63151
 20
-9.51594
 30
0.0
 10
-15.63151
 20
-9.51594
 30
0.0
 10
-15.63369
 20
-9.53234
 30
0.0
 10
-15.61629
 20
-9.56201
 30
0.0
 10
-15.60059
 20
-9.56795
 30
0.0
 10
-15.60059
 20
-9.56795
 30
0.0
 10
-15.56081
 20
-9.58299
 30
0.0
 10
-15.51758
 20
-9.59281
 30
0.0
 10
-15.47511
 20
-9.59583
 30
0.0
 10
-15.47511
 20
-9.59583
 30
0.0
 10
-15.41434
 20
-9.60014
 30
0.0
 10
-15.3528
 20
-9.59335
 30
0.0
 10
-15.29195
 20
-9.59723
 30
0.0
 10
-15.29195
 20
-9.59723
 30
0.0
 10
-15.23464
 20
-9.60092
 30
0.0
 10
-15.20852
 20
-9.58144
 30
0.0
 10
-15.21773
 20
-9.52751
 30
0.0
  0
SPLINE
  5
47
330
1F
100
AcDbEntity
  8
Layer 1
 62
     5
370
    53
100
AcDbSpline
210
0.0
220
0.0
230
1.0
 70
    11
 71
     3
 72
    40
 73
    36
 74
     0
 42
0.0000000001
 43
0.0000000001
 12
1.0
 22
0.0
 32
0.0
 13
1.0
 23
0.0
 33
0.0
 40
0.0
 40
0.0
 40
0.0
 40
0.0
 40
0.1
 40
0.1
 40
0.1
 40
0.1
 40
0.2
 40
0.2
 40
0.2
 40
0.2
 40
0.3
 40
0.3
 40
0.3
 40
0.3
 40
0.4
 40
0.4
 40
0.4
 40
0.4
 40
0.5
 40
0.5
 40
0.5
 40
0.5
 40
0.6
 40
0.6
 40
0.6
 40
0.6
 40
0.7
 40
0.7
 40
0.7
 40
0.7
 40
0.8
 40
0.8
 40
0.8
 40
0.8
 40
1.0
 40
1.0
 40
1.0
 40
1.0
 10
-15.45681
 20
-10.25192
 30
0.0
 10
-15.45681
 20
-10.25192
 30
0.0
 10
-15.45681
 20
-10.25192
 30
0.0
 10
-15.45681
 20
-10.25192
 30
0.0
 10
-15.45681
 20
-10.25192
 30
0.0
 10
-15.45337
 20
-10.24271
 30
0.0
 10
-15.43717
 20
-10.21703
 30
0.0
 10
-15.43559
 20
-10.1905
 30
0.0
 10
-15.43559
 20
-10.1905
 30
0.0
 10
-15.43358
 20
-10.15768
 30
0.0
 10
-15.43326
 20
-10.11523
 30
0.0
 10
-15.45174
 20
-10.09361
 30
0.0
 10
-15.45174
 20
-10.09361
 30
0.0
 10
-15.46803
 20
-10.07451
 30
0.0
 10
-15.52065
 20
-10.06257
 30
0.0
 10
-15.54071
 20
-10.07471
 30
0.0
 10
-15.54071
 20
-10.07471
 30
0.0
 10
-15.61849
 20
-10.12184
 30
0.0
 10
-15.70183
 20
-10.13254
 30
0.0
 10
-15.78878
 20
-10.14306
 30
0.0
 10
-15.78878
 20
-10.14306
 30
0.0
 10
-15.81483
 20
-10.14621
 30
0.0
 10
-15.83607
 20
-10.18931
 30
0.0
 10
-15.8595
 20
-10.21414
 30
0.0
 10
-15.8595
 20
-10.21414
 30
0.0
 10
-15.83175
 20
-10.2315
 30
0.0
 10
-15.80569
 20
-10.25344
 30
0.0
 10
-15.77563
 20
-10.26465
 30
0.0
 10
-15.77563
 20
-10.26465
 30
0.0
 10
-15.75576
 20
-10.2721
 30
0.0
 10
-15.73015
 20
-10.26408
 30
0.0
 10
-15.7071
 20
-10.26305
 30
0.0
 10
-15.7071
 20
-10.26305
 30
0.0
 10
-15.62702
 20
-10.25948
 30
0.0
 10
-15.54692
 20
-10.25592
 30
0.0
 10
-15.45681
 20
-10.25192
 30
0.0
  0
SPLINE
  5
48
330
1F
100
AcDbEntity
  8
Layer 1
 62
     5
370
    53
100
AcDbSpline
210
0.0
220
0.0
230
1.0
 70
    11
 71
     3
 72
    36
 73
    32
 74
     0
 42
0.0000000001
 43
0.0000000001
 12
1.0
 22
0.0
 32
0.0
 13
1.0
 23
0.0
 33
0.0
 40
0.0
 40
0.0
 40
0.0
 40
0.0
 40
0.1111111111111111
 40
0.1111111111111111
 40
0.1111111111111111
 40
0.1111111111111111
 40
0.2222222222222222
 40
0.2222222222222222
 40
0.2222222222222222
 40
0.2222222222222222
 40
0.3333333333333333
 40
0.3333333333333333
 40
0.3333333333333333
 40
0.3333333333333333
 40
0.4444444444444444
 40
0.4444444444444444
 40
0.4444444444444444
 40
0.4444444444444444
 40
0.5555555555555556
 40
0.5555555555555556
 40
0.5555555555555556
 40
0.5555555555555556
 40
0.6666666666666666
 40
0.6666666666666666
 40
0.6666666666666666
 40
0.6666666666666666
 40
0.7777777777777778
 40
0.7777777777777778
 40
0.7777777777777778
 40
0.7777777777777778
 40
1.0
 40
1.0
 40
1.0
 40
1.0
 10
-14.70762
 20
-9.45059
 30
0.0
 10
-14.70762
 20
-9.45059
 30
0.0
 10
-14.70762
 20
-9.45059
 30
0.0
 10
-14.70762
 20
-9.45059
 30
0.0
 10
-14.70762
 20
-9.45059
 30
0.0
 10
-14.83951
 20
-9.45059
 30
0.0
 10
-14.95881
 20
-9.44933
 30
0.0
 10
-15.07803
 20
-9.45147
 30
0.0
 10
-15.07803
 20
-9.45147
 30
0.0
 10
-15.10798
 20
-9.45201
 30
0.0
 10
-15.15039
 20
-9.45406
 30
0.0
 10
-15.16426
 20
-9.47255
 30
0.0
 10
-15.16426
 20
-9.47255
 30
0.0
 10
-15.18024
 20
-9.49379
 30
0.0
 10
-15.18264
 20
-9.54137
 30
0.0
 10
-15.16875
 20
-9.56377
 30
0.0
 10
-15.16875
 20
-9.56377
 30
0.0
 10
-15.15774
 20
-9.58149
 30
0.0
 10
-15.11142
 20
-9.58813
 30
0.0
 10
-15.084
 20
-9.58289
 30
0.0
 10
-15.084
 20
-9.58289
 30
0.0
 10
-14.99001
 20
-9.56493
 30
0.0
 10
-14.90079
 20
-9.56599
 30
0.0
 10
-14.81411
 20
-9.61253
 30
0.0
 10
-14.81411
 20
-9.61253
 30
0.0
 10
-14.79114
 20
-9.62485
 30
0.0
 10
-14.76259
 20
-9.62678
 30
0.0
 10
-14.72923
 20
-9.63542
 30
0.0
 10
-14.72923
 20
-9.63542
 30
0.0
 10
-14.72129
 20
-9.56756
 30
0.0
 10
-14.71455
 20
-9.51005
 30
0.0
 10
-14.70762
 20
-9.45059
 30
0.0
  0
SPLINE
  5
49
330
1F
100
AcDbEntity
  8
Layer 1
 62
     5
370
    53
100
AcDbSpline
210
0.0
220
0.0
230
1.0
 70
    11
 71
     3
 72
    32
 73
    28
 74
     0
 42
0.0000000001
 43
0.0000000001
 12
1.0
 22
0.0
 32
0.0
 13
1.0
 23
0.0
 33
0.0
 40
0.0
 40
0.0
 40
0.0
 40
0.0
 40
0.125
 40
0.125
 40
0.125
 40
0.125
 40
0.25
 40
0.25
 40
0.25
 40
0.25
 40
0.375
 40
0.375
 40
0.375
 40
0.375
 40
0.5
 40
0.5
 40
0.5
 40
0.5
 40
0.625
 40
0.625
 40
0.625
 40
0.625
 40
0.75
 40
0.75
 40
0.75
 40
0.75
 40
1.0
 40
1.0
 40
1.0
 40
1.0
 10
-14.28444
 20
-8.64623
 30
0.0
 10
-14.28444
 20
-8.64623
 30
0.0
 10
-14.28444
 20
-8.64623
 30
0.0
 10
-14.28444
 20
-8.64623
 30
0.0
 10
-14.28444
 20
-8.64623
 30
0.0
 10
-14.26364
 20
-8.68015
 30
0.0
 10
-14.2573
 20
-8.70335
 30
0.0
 10
-14.24223
 20
-8.71299
 30
0.0
 10
-14.24223
 20
-8.71299
 30
0.0
 10
-14.14485
 20
-8.77539
 30
0.0
 10
-14.0492
 20
-8.84239
 30
0.0
 10
-13.94535
 20
-8.89195
 30
0.0
 10
-13.94535
 20
-8.89195
 30
0.0
 10
-13.89345
 20
-8.91675
 30
0.0
 10
-13.85928
 20
-8.86313
 30
0.0
 10
-13.84094
 20
-8.81435
 30
0.0
 10
-13.84094
 20
-8.81435
 30
0.0
 10
-13.82341
 20
-8.76769
 30
0.0
 10
-13.82417
 20
-8.72516
 30
0.0
 10
-13.88148
 20
-8.70953
 30
0.0
 10
-13.88148
 20
-8.70953
 30
0.0
 10
-13.98337
 20
-8.6817
 30
0.0
 10
-14.0857
 20
-8.65522
 30
0.0
 10
-14.18888
 20
-8.63264
 30
0.0
 10
-14.18888
 20
-8.63264
 30
0.0
 10
-14.21345
 20
-8.62724
 30
0.0
 10
-14.24193
 20
-8.63956
 30
0.0
 10
-14.28444
 20
-8.64623
 30
0.0
  0
SPLINE
  5
4A
330
1F
100
AcDbEntity
  8
Layer 1
 62
     5
370
    53
100
AcDbSpline
210
0.0
220
0.0
230
1.0
 70
    11
 71
     3
 72
    32
 73
    28
 74
     0
 42
0.0000000001
 43
0.0000000001
 12
1.0
 22
0.0
 32
0.0
 13
1.0
 23
0.0
 33
0.0
 40
0.0
 40
0.0
 40
0.0
 40
0.0
 40
0.125
 40
0.125
 40
0.125
 40
0.125
 40
0.25
 40
0.25
 40
0.25
 40
0.25
 40
0.375
 40
0.375
 40
0.375
 40
0.375
 40
0.5
 40
0.5
 40
0.5
 40
0.5
 40
0.625
 40
0.625
 40
0.625
 40
0.625
 40
0.75
 40
0.75
 40
0.75
 40
0.75
 40
1.0
 40
1.0
 40
1.0
 40
1.0
 10
-14.56135
 20
-10.57043
 30
0.0
 10
-14.56135
 20
-10.57043
 30
0.0
 10
-14.56135
 20
-10.57043
 30
0.0
 10
-14.56135
 20
-10.57043
 30
0.0
 10
-14.56135
 20
-10.57043
 30
0.0
 10
-14.71777
 20
-10.59151
 30
0.0
 10
-14.85453
 20
-10.6127
 30
0.0
 10
-14.99199
 20
-10.62755
 30
0.0
 10
-14.99199
 20
-10.62755
 30
0.0
 10
-15.09486
 20
-10.63866
 30
0.0
 10
-15.09561
 20
-10.64009
 30
0.0
 10
-15.0765
 20
-10.73814
 30
0.0
 10
-15.0765
 20
-10.73814
 30
0.0
 10
-15.0615
 20
-10.81503
 30
0.0
 10
-15.01053
 20
-10.80051
 30
0.0
 10
-14.96498
 20
-10.78814
 30
0.0
 10
-14.96498
 20
-10.78814
 30
0.0
 10
-14.84805
 20
-10.7564
 30
0.0
 10
-14.73383
 20
-10.71581
 30
0.0
 10
-14.60843
 20
-10.74271
 30
0.0
 10
-14.60843
 20
-10.74271
 30
0.0
 10
-14.59218
 20
-10.7462
 30
0.0
 10
-14.55193
 20
-10.71143
 30
0.0
 10
-14.5497
 20
-10.69139
 30
0.0
 10
-14.5497
 20
-10.69139
 30
0.0
 10
-14.54489
 20
-10.64783
 30
0.0
 10
-14.55746
 20
-10.60238
 30
0.0
 10
-14.56135
 20
-10.57043
 30
0.0
  0
SPLINE
  5
4B
330
1F
100
AcDbEntity
  8
Layer 1
 62
     5
370
    53
100
AcDbSpline
210
0.0
220
0.0
230
1.0
 70
    11
 71
     3
 72
    36
 73
    32
 74
     0
 42
0.0000000001
 43
0.0000000001
 12
1.0
 22
0.0
 32
0.0
 13
1.0
 23
0.0
 33
0.0
 40
0.0
 40
0.0
 40
0.0
 40
0.0
 40
0.1111111111111111
 40
0.1111111111111111
 40
0.1111111111111111
 40
0.1111111111111111
 40
0.2222222222222222
 40
0.2222222222222222
 40
0.2222222222222222
 40
0.2222222222222222
 40
0.3333333333333333
 40
0.3333333333333333
 40
0.3333333333333333
 40
0.3333333333333333
 40
0.4444444444444444
 40
0.4444444444444444
 40
0.4444444444444444
 40
0.4444444444444444
 40
0.5555555555555556
 40
0.5555555555555556
 40
0.5555555555555556
 40
0.5555555555555556
 40
0.6666666666666666
 40
0.6666666666666666
 40
0.6666666666666666
 40
0.6666666666666666
 40
0.7777777777777778
 40
0.7777777777777778
 40
0.7777777777777778
 40
0.7777777777777778
 40
1.0
 40
1.0
 40
1.0
 40
1.0
 10
-12.16478
 20
-10.1629
 30
0.0
 10
-12.16478
 20
-10.1629
 30
0.0
 10
-12.16478
 20
-10.1629
 30
0.0
 10
-12.16478
 20
-10.1629
 30
0.0
 10
-12.16478
 20
-10.1629
 30
0.0
 10
-12.16523
 20
-10.07786
 30
0.0
 10
-12.2137
 20
-10.0579
 30
0.0
 10
-12.27017
 20
-10.07453
 30
0.0
 10
-12.27017
 20
-10.07453
 30
0.0
 10
-12.3374
 20
-10.09436
 30
0.0
 10
-12.39741
 20
-10.13779
 30
0.0
 10
-12.46407
 20
-10.16081
 30
0.0
 10
-12.46407
 20
-10.16081
 30
0.0
 10
-12.54332
 20
-10.1882
 30
0.0
 10
-12.53708
 20
-10.24308
 30
0.0
 10
-12.52183
 20
-10.30315
 30
0.0
 10
-12.52183
 20
-10.30315
 30
0.0
 10
-12.51499
 20
-10.33021
 30
0.0
 10
-12.50216
 20
-10.35612
 30
0.0
 10
-12.48932
 20
-10.38116
 30
0.0
 10
-12.48932
 20
-10.38116
 30
0.0
 10
-12.4337
 20
-10.48963
 30
0.0
 10
-12.35838
 20
-10.49394
 30
0.0
 10
-12.29232
 20
-10.3934
 30
0.0
 10
-12.29232
 20
-10.3934
 30
0.0
 10
-12.28388
 20
-10.38056
 30
0.0
 10
-12.27237
 20
-10.3695
 30
0.0
 10
-12.26522
 20
-10.35604
 30
0.0
 10
-12.26522
 20
-10.35604
 30
0.0
 10
-12.23119
 20
-10.29197
 30
0.0
 10
-12.19818
 20
-10.22735
 30
0.0
 10
-12.16478
 20
-10.1629
 30
0.0
  0
SPLINE
  5
4C
330
1F
100
AcDbEntity
  8
Layer 1
 62
     5
370
    53
100
AcDbSpline
210
0.0
220
0.0
230
1.0
 70
    11
 71
     3
 72
    40
 73
    36
 74
     0
 42
0.0000000001
 43
0.0000000001
 12
1.0
 22
0.0
 32
0.0
 13
1.0
 23
0.0
 33
0.0
 40
0.0
 40
0.0
 40
0.0
 40
0.0
 40
0.1
 40
0.1
 40
0.1
 40
0.1
 40
0.2
 40
0.2
 40
0.2
 40
0.2
 40
0.3
 40
0.3
 40
0.3
 40
0.3
 40
0.4
 40
0.4
 40
0.4
 40
0.4
 40
0.5
 40
0.5
 40
0.5
 40
0.5
 40
0.6
 40
0.6
 40
0.6
 40
0.6
 40
0.7
 40
0.7
 40
0.7
 40
0.7
 40
0.8
 40
0.8
 40
0.8
 40
0.8
 40
1.0
 40
1.0
 40
1.0
 40
1.0
 10
-13.50279
 20
-10.76297
 30
0.0
 10
-13.50279
 20
-10.76297
 30
0.0
 10
-13.50279
 20
-10.76297
 30
0.0
 10
-13.50279
 20
-10.76297
 30
0.0
 10
-13.50279
 20
-10.76297
 30
0.0
 10
-13.53111
 20
-10.77702
 30
0.0
 10
-13.55085
 20
-10.78343
 30
0.0
 10
-13.56657
 20
-10.79519
 30
0.0
 10
-13.56657
 20
-10.79519
 30
0.0
 10
-13.68175
 20
-10.88131
 30
0.0
 10
-13.80945
 20
-10.93913
 30
0.0
 10
-13.94927
 20
-10.97221
 30
0.0
 10
-13.94927
 20
-10.97221
 30
0.0
 10
-13.97888
 20
-10.97921
 30
0.0
 10
-14.00958
 20
-10.99019
 30
0.0
 10
-14.0343
 20
-11.00727
 30
0.0
 10
-14.0343
 20
-11.00727
 30
0.0
 10
-14.08285
 20
-11.04086
 30
0.0
 10
-14.10047
 20
-11.09306
 30
0.0
 10
-14.06626
 20
-11.14078
 30
0.0
 10
-14.06626
 20
-11.14078
 30
0.0
 10
-14.05473
 20
-11.15687
 30
0.0
 10
-13.99615
 20
-11.15527
 30
0.0
 10
-13.96926
 20
-11.14168
 30
0.0
 10
-13.96926
 20
-11.14168
 30
0.0
 10
-13.82803
 20
-11.07018
 30
0.0
 10
-13.68302
 20
-11.0159
 30
0.0
 10
-13.52427
 20
-10.99769
 30
0.0
 10
-13.52427
 20
-10.99769
 30
0.0
 10
-13.50038
 20
-10.99497
 30
0.0
 10
-13.46208
 20
-10.95293
 30
0.0
 10
-13.46307
 20
-10.9305
 30
0.0
 10
-13.46307
 20
-10.9305
 30
0.0
 10
-13.46544
 20
-10.87643
 30
0.0
 10
-13.48715
 20
-10.8232
 30
0.0
 10
-13.50279
 20
-10.76297
 30
0.0
  0
SPLINE
  5
4D
330
1F
100
AcDbEntity
  8
Layer 1
 62
     5
370
    53
100
AcDbSpline
210
0.0
220
0.0
230
1.0
 70
    11
 71
     3
 72
    44
 73
    40
 74
     0
 42
0.0000000001
 43
0.0000000001
 12
1.0
 22
0.0
 32
0.0
 13
1.0
 23
0.0
 33
0.0
 40
0.0
 40
0.0
 40
0.0
 40
0.0
 40
0.0909090909090909
 40
0.0909090909090909
 40
0.0909090909090909
 40
0.0909090909090909
 40
0.1818181818181818
 40
0.1818181818181818
 40
0.1818181818181818
 40
0.1818181818181818
 40
0.2727272727272727
 40
0.2727272727272727
 40
0.2727272727272727
 40
0.2727272727272727
 40
0.3636363636363636
 40
0.3636363636363636
 40
0.3636363636363636
 40
0.3636363636363636
 40
0.4545454545454545
 40
0.4545454545454545
 40
0.4545454545454545
 40
0.4545454545454545
 40
0.5454545454545454
 40
0.5454545454545454
 40
0.5454545454545454
 40
0.5454545454545454
 40
0.6363636363636364
 40
0.6363636363636364
 40
0.6363636363636364
 40
0.6363636363636364
 40
0.7272727272727273
 40
0.7272727272727273
 40
0.7272727272727273
 40
0.7272727272727273
 40
0.8181818181818182
 40
0.8181818181818182
 40
0.8181818181818182
 40
0.8181818181818182
 40
1.0
 40
1.0
 40
1.0
 40
1.0
 10
-13.84856
 20
-8.94602
 30
0.0
 10
-13.84856
 20
-8.94602
 30
0.0
 10
-13.84856
 20
-8.94602
 30
0.0
 10
-13.84856
 20
-8.94602
 30
0.0
 10
-13.84856
 20
-8.94602
 30
0.0
 10
-13.81351
 20
-8.9538
 30
0.0
 10
-13.78474
 20
-8.96561
 30
0.0
 10
-13.75593
 20
-8.96566
 30
0.0
 10
-13.75593
 20
-8.96566
 30
0.0
 10
-13.62897
 20
-8.96592
 30
0.0
 10
-13.5048
 20
-8.96998
 30
0.0
 10
-13.39814
 20
-9.05548
 30
0.0
 10
-13.39814
 20
-9.05548
 30
0.0
 10
-13.37703
 20
-9.0724
 30
0.0
 10
-13.33995
 20
-9.07426
 30
0.0
 10
-13.3103
 20
-9.07413
 30
0.0
 10
-13.3103
 20
-9.07413
 30
0.0
 10
-13.29003
 20
-9.07403
 30
0.0
 10
-13.26186
 20
-9.06406
 30
0.0
 10
-13.25111
 20
-9.04878
 30
0.0
 10
-13.25111
 20
-9.04878
 30
0.0
 10
-13.21785
 20
-9.0014
 30
0.0
 10
-13.19124
 20
-8.94933
 30
0.0
 10
-13.16142
 20
-8.89805
 30
0.0
 10
-13.16142
 20
-8.89805
 30
0.0
 10
-13.17309
 20
-8.89043
 30
0.0
 10
-13.18145
 20
-8.88032
 30
0.0
 10
-13.1901
 20
-8.88006
 30
0.0
 10
-13.1901
 20
-8.88006
 30
0.0
 10
-13.37198
 20
-8.87443
 30
0.0
 10
-13.54726
 20
-8.84027
 30
0.0
 10
-13.71683
 20
-8.77219
 30
0.0
 10
-13.71683
 20
-8.77219
 30
0.0
 10
-13.73649
 20
-8.76431
 30
0.0
 10
-13.78269
 20
-8.78676
 30
0.0
 10
-13.79661
 20
-8.80813
 30
0.0
 10
-13.79661
 20
-8.80813
 30
0.0
 10
-13.82094
 20
-8.84554
 30
0.0
 10
-13.82978
 20
-8.89306
 30
0.0
 10
-13.84856
 20
-8.94602
 30
0.0
  0
SPLINE
  5
4E
330
1F
100
AcDbEntity
  8
Layer 1
 62
     5
370
    53
100
AcDbSpline
210
0.0
220
0.0
230
1.0
 70
    11
 71
     3
 72
    40
 73
    36
 74
     0
 42
0.0000000001
 43
0.0000000001
 12
1.0
 22
0.0
 32
0.0
 13
1.0
 23
0.0
 33
0.0
 40
0.0
 40
0.0
 40
0.0
 40
0.0
 40
0.1
 40
0.1
 40
0.1
 40
0.1
 40
0.2
 40
0.2
 40
0.2
 40
0.2
 40
0.3
 40
0.3
 40
0.3
 40
0.3
 40
0.4
 40
0.4
 40
0.4
 40
0.4
 40
0.5
 40
0.5
 40
0.5
 40
0.5
 40
0.6
 40
0.6
 40
0.6
 40
0.6
 40
0.7
 40
0.7
 40
0.7
 40
0.7
 40
0.8
 40
0.8
 40
0.8
 40
0.8
 40
1.0
 40
1.0
 40
1.0
 40
1.0
 10
-15.43638
 20
-10.25605
 30
0.0
 10
-15.43638
 20
-10.25605
 30
0.0
 10
-15.43638
 20
-10.25605
 30
0.0
 10
-15.43638
 20
-10.25605
 30
0.0
 10
-15.43638
 20
-10.25605
 30
0.0
 10
-15.41532
 20
-10.2629
 30
0.0
 10
-15.40826
 20
-10.26646
 30
0.0
 10
-15.40092
 20
-10.26724
 30
0.0
 10
-15.40092
 20
-10.26724
 30
0.0
 10
-15.39072
 20
-10.26832
 30
0.0
 10
-15.3795
 20
-10.26982
 30
0.0
 10
-15.37007
 20
-10.26682
 30
0.0
 10
-15.37007
 20
-10.26682
 30
0.0
 10
-15.204
 20
-10.21383
 30
0.0
 10
-15.03522
 20
-10.18939
 30
0.0
 10
-14.86006
 20
-10.20393
 30
0.0
 10
-14.86006
 20
-10.20393
 30
0.0
 10
-14.83774
 20
-10.20579
 30
0.0
 10
-14.79773
 20
-10.16621
 30
0.0
 10
-14.78975
 20
-10.13885
 30
0.0
 10
-14.78975
 20
-10.13885
 30
0.0
 10
-14.75915
 20
-10.0343
 30
0.0
 10
-14.84761
 20
-9.95749
 30
0.0
 10
-14.95878
 20
-10.00234
 30
0.0
 10
-14.95878
 20
-10.00234
 30
0.0
 10
-15.0938
 20
-10.05683
 30
0.0
 10
-15.22786
 20
-10.06632
 30
0.0
 10
-15.36835
 20
-10.04593
 30
0.0
 10
-15.36835
 20
-10.04593
 30
0.0
 10
-15.38831
 20
-10.04301
 30
0.0
 10
-15.4099
 20
-10.05151
 30
0.0
 10
-15.44631
 20
-10.05715
 30
0.0
 10
-15.44631
 20
-10.05715
 30
0.0
 10
-15.366
 20
-10.12644
 30
0.0
 10
-15.38274
 20
-10.1892
 30
0.0
 10
-15.43638
 20
-10.25605
 30
0.0
  0
SPLINE
  5
4F
330
1F
100
AcDbEntity
  8
Layer 1
 62
     5
370
    53
100
AcDbSpline
210
0.0
220
0.0
230
1.0
 70
    11
 71
     3
 72
    52
 73
    48
 74
     0
 42
0.0000000001
 43
0.0000000001
 12
1.0
 22
0.0
 32
0.0
 13
1.0
 23
0.0
 33
0.0
 40
0.0
 40
0.0
 40
0.0
 40
0.0
 40
0.0769230769230769
 40
0.0769230769230769
 40
0.0769230769230769
 40
0.0769230769230769
 40
0.1538461538461539
 40
0.1538461538461539
 40
0.1538461538461539
 40
0.1538461538461539
 40
0.2307692307692308
 40
0.2307692307692308
 40
0.2307692307692308
 40
0.2307692307692308
 40
0.3076923076923077
 40
0.3076923076923077
 40
0.3076923076923077
 40
0.3076923076923077
 40
0.3846153846153846
 40
0.3846153846153846
 40
0.3846153846153846
 40
0.3846153846153846
 40
0.4615384615384616
 40
0.4615384615384616
 40
0.4615384615384616
 40
0.4615384615384616
 40
0.5384615384615384
 40
0.5384615384615384
 40
0.5384615384615384
 40
0.5384615384615384
 40
0.6153846153846154
 40
0.6153846153846154
 40
0.6153846153846154
 40
0.6153846153846154
 40
0.6923076923076923
 40
0.6923076923076923
 40
0.6923076923076923
 40
0.6923076923076923
 40
0.7692307692307693
 40
0.7692307692307693
 40
0.7692307692307693
 40
0.7692307692307693
 40
0.8461538461538461
 40
0.8461538461538461
 40
0.8461538461538461
 40
0.8461538461538461
 40
1.0
 40
1.0
 40
1.0
 40
1.0
 10
-14.52087
 20
-9.4355
 30
0.0
 10
-14.52087
 20
-9.4355
 30
0.0
 10
-14.52087
 20
-9.4355
 30
0.0
 10
-14.52087
 20
-9.4355
 30
0.0
 10
-14.52087
 20
-9.4355
 30
0.0
 10
-14.53931
 20
-9.4355
 30
0.0
 10
-14.55503
 20
-9.43372
 30
0.0
 10
-14.57019
 20
-9.43584
 30
0.0
 10
-14.57019
 20
-9.43584
 30
0.0
 10
-14.62742
 20
-9.4439
 30
0.0
 10
-14.69354
 20
-9.52274
 30
0.0
 10
-14.68338
 20
-9.57338
 30
0.0
 10
-14.68338
 20
-9.57338
 30
0.0
 10
-14.66665
 20
-9.65684
 30
0.0
 10
-14.60755
 20
-9.62376
 30
0.0
 10
-14.55543
 20
-9.62087
 30
0.0
 10
-14.55543
 20
-9.62087
 30
0.0
 10
-14.44801
 20
-9.61484
 30
0.0
 10
-14.33963
 20
-9.60749
 30
0.0
 10
-14.23279
 20
-9.6156
 30
0.0
 10
-14.23279
 20
-9.6156
 30
0.0
 10
-14.14652
 20
-9.62213
 30
0.0
 10
-14.06195
 20
-9.65087
 30
0.0
 10
-13.97652
 20
-9.66908
 30
0.0
 10
-13.97652
 20
-9.66908
 30
0.0
 10
-13.89449
 20
-9.68657
 30
0.0
 10
-13.87023
 20
-9.65963
 30
0.0
 10
-13.89254
 20
-9.58077
 30
0.0
 10
-13.89254
 20
-9.58077
 30
0.0
 10
-13.89754
 20
-9.56315
 30
0.0
 10
-13.8909
 20
-9.54221
 30
0.0
 10
-13.88949
 20
-9.52284
 30
0.0
 10
-13.88949
 20
-9.52284
 30
0.0
 10
-13.88764
 20
-9.49682
 30
0.0
 10
-13.87464
 20
-9.45806
 30
0.0
 10
-13.88643
 20
-9.44788
 30
0.0
 10
-13.88643
 20
-9.44788
 30
0.0
 10
-13.90314
 20
-9.43344
 30
0.0
 10
-13.93839
 20
-9.43607
 30
0.0
 10
-13.96515
 20
-9.43827
 30
0.0
 10
-13.96515
 20
-9.43827
 30
0.0
 10
-14.05957
 20
-9.44602
 30
0.0
 10
-14.15379
 20
-9.46439
 30
0.0
 10
-14.24803
 20
-9.46408
 30
0.0
 10
-14.24803
 20
-9.46408
 30
0.0
 10
-14.34003
 20
-9.46377
 30
0.0
 10
-14.43195
 20
-9.44553
 30
0.0
 10
-14.52087
 20
-9.4355
 30
0.0
  0
SPLINE
  5
50
330
1F
100
AcDbEntity
  8
Layer 1
 62
     5
370
    53
100
AcDbSpline
210
0.0
220
0.0
230
1.0
 70
    11
 71
     3
 72
    52
 73
    48
 74
     0
 42
0.0000000001
 43
0.0000000001
 12
1.0
 22
0.0
 32
0.0
 13
1.0
 23
0.0
 33
0.0
 40
0.0
 40
0.0
 40
0.0
 40
0.0
 40
0.0769230769230769
 40
0.0769230769230769
 40
0.0769230769230769
 40
0.0769230769230769
 40
0.1538461538461539
 40
0.1538461538461539
 40
0.1538461538461539
 40
0.1538461538461539
 40
0.2307692307692308
 40
0.2307692307692308
 40
0.2307692307692308
 40
0.2307692307692308
 40
0.3076923076923077
 40
0.3076923076923077
 40
0.3076923076923077
 40
0.3076923076923077
 40
0.3846153846153846
 40
0.3846153846153846
 40
0.3846153846153846
 40
0.3846153846153846
 40
0.4615384615384616
 40
0.4615384615384616
 40
0.4615384615384616
 40
0.4615384615384616
 40
0.5384615384615384
 40
0.5384615384615384
 40
0.5384615384615384
 40
0.5384615384615384
 40
0.6153846153846154
 40
0.6153846153846154
 40
0.6153846153846154
 40
0.6153846153846154
 40
0.6923076923076923
 40
0.6923076923076923
 40
0.6923076923076923
 40
0.6923076923076923
 40
0.7692307692307693
 40
0.7692307692307693
 40
0.7692307692307693
 40
0.7692307692307693
 40
0.8461538461538461
 40
0.8461538461538461
 40
0.8461538461538461
 40
0.8461538461538461
 40
1.0
 40
1.0
 40
1.0
 40
1.0
 10
-12.53137
 20
-10.13758
 30
0.0
 10
-12.53137
 20
-10.13758
 30
0.0
 10
-12.53137
 20
-10.13758
 30
0.0
 10
-12.53137
 20
-10.13758
 30
0.0
 10
-12.53137
 20
-10.13758
 30
0.0
 10
-12.52887
 20
-10.13864
 30
0.0
 10
-12.52602
 20
-10.14107
 30
0.0
 10
-12.52422
 20
-10.14047
 30
0.0
 10
-12.52422
 20
-10.14047
 30
0.0
 10
-12.40137
 20
-10.09867
 30
0.0
 10
-12.28916
 20
-10.02239
 30
0.0
 10
-12.15232
 20
-10.02575
 30
0.0
 10
-12.15232
 20
-10.02575
 30
0.0
 10
-12.1506
 20
-10.02578
 30
0.0
 10
-12.14896
 20
-10.02203
 30
0.0
 10
-12.14705
 20
-10.02032
 30
0.0
 10
-12.14705
 20
-10.02032
 30
0.0
 10
-12.09147
 20
-9.9701
 30
0.0
 10
-12.08903
 20
-9.90875
 30
0.0
 10
-12.12965
 20
-9.83052
 30
0.0
 10
-12.12965
 20
-9.83052
 30
0.0
 10
-12.16732
 20
-9.75797
 30
0.0
 10
-12.22048
 20
-9.76895
 30
0.0
 10
-12.27982
 20
-9.79142
 30
0.0
 10
-12.27982
 20
-9.79142
 30
0.0
 10
-12.29316
 20
-9.79649
 30
0.0
 10
-12.30711
 20
-9.79988
 30
0.0
 10
-12.29967
 20
-9.79763
 30
0.0
 10
-12.29967
 20
-9.79763
 30
0.0
 10
-12.31533
 20
-9.73629
 30
0.0
 10
-12.32733
 20
-9.6803
 30
0.0
 10
-12.34422
 20
-9.62583
 30
0.0
 10
-12.34422
 20
-9.62583
 30
0.0
 10
-12.36189
 20
-9.56876
 30
0.0
 10
-12.41193
 20
-9.55689
 30
0.0
 10
-12.45501
 20
-9.59671
 30
0.0
 10
-12.45501
 20
-9.59671
 30
0.0
 10
-12.51612
 20
-9.65317
 30
0.0
 10
-12.48369
 20
-9.80442
 30
0.0
 10
-12.40257
 20
-9.83042
 30
0.0
 10
-12.40257
 20
-9.83042
 30
0.0
 10
-12.45564
 20
-9.84644
 30
0.0
 10
-12.52658
 20
-9.83739
 30
0.0
 10
-12.53059
 20
-9.91695
 30
0.0
 10
-12.53059
 20
-9.91695
 30
0.0
 10
-12.53422
 20
-9.98826
 30
0.0
 10
-12.53137
 20
-10.05989
 30
0.0
 10
-12.53137
 20
-10.13758
 30
0.0
  0
SPLINE
  5
51
330
1F
100
AcDbEntity
  8
Layer 1
 62
     5
370
    53
100
AcDbSpline
210
0.0
220
0.0
230
1.0
 70
    11
 71
     3
 72
    44
 73
    40
 74
     0
 42
0.0000000001
 43
0.0000000001
 12
1.0
 22
0.0
 32
0.0
 13
1.0
 23
0.0
 33
0.0
 40
0.0
 40
0.0
 40
0.0
 40
0.0
 40
0.0909090909090909
 40
0.0909090909090909
 40
0.0909090909090909
 40
0.0909090909090909
 40
0.1818181818181818
 40
0.1818181818181818
 40
0.1818181818181818
 40
0.1818181818181818
 40
0.2727272727272727
 40
0.2727272727272727
 40
0.2727272727272727
 40
0.2727272727272727
 40
0.3636363636363636
 40
0.3636363636363636
 40
0.3636363636363636
 40
0.3636363636363636
 40
0.4545454545454545
 40
0.4545454545454545
 40
0.4545454545454545
 40
0.4545454545454545
 40
0.5454545454545454
 40
0.5454545454545454
 40
0.5454545454545454
 40
0.5454545454545454
 40
0.6363636363636364
 40
0.6363636363636364
 40
0.6363636363636364
 40
0.6363636363636364
 40
0.7272727272727273
 40
0.7272727272727273
 40
0.7272727272727273
 40
0.7272727272727273
 40
0.8181818181818182
 40
0.8181818181818182
 40
0.8181818181818182
 40
0.8181818181818182
 40
1.0
 40
1.0
 40
1.0
 40
1.0
 10
-11.18275
 20
-10.23917
 30
0.0
 10
-11.18275
 20
-10.23917
 30
0.0
 10
-11.18275
 20
-10.23917
 30
0.0
 10
-11.18275
 20
-10.23917
 30
0.0
 10
-11.18275
 20
-10.23917
 30
0.0
 10
-11.22747
 20
-10.23917
 30
0.0
 10
-11.26877
 20
-10.24171
 30
0.0
 10
-11.30967
 20
-10.23871
 30
0.0
 10
-11.30967
 20
-10.23871
 30
0.0
 10
-11.40728
 20
-10.23153
 30
0.0
 10
-11.50568
 20
-10.2455
 30
0.0
 10
-11.59236
 20
-10.16874
 30
0.0
 10
-11.59236
 20
-10.16874
 30
0.0
 10
-11.65371
 20
-10.1144
 30
0.0
 10
-11.74206
 20
-10.17383
 30
0.0
 10
-11.74364
 20
-10.25804
 30
0.0
 10
-11.74364
 20
-10.25804
 30
0.0
 10
-11.74442
 20
-10.29871
 30
0.0
 10
-11.75065
 20
-10.33928
 30
0.0
 10
-11.7546
 20
-10.37989
 30
0.0
 10
-11.7546
 20
-10.37989
 30
0.0
 10
-11.7579
 20
-10.414
 30
0.0
 10
-11.76148
 20
-10.4481
 30
0.0
 10
-11.76494
 20
-10.48221
 30
0.0
 10
-11.76494
 20
-10.48221
 30
0.0
 10
-11.72571
 20
-10.48549
 30
0.0
 10
-11.68587
 20
-10.49464
 30
0.0
 10
-11.64729
 20
-10.4909
 30
0.0
 10
-11.64729
 20
-10.4909
 30
0.0
 10
-11.54254
 20
-10.48076
 30
0.0
 10
-11.43861
 20
-10.45795
 30
0.0
 10
-11.33378
 20
-10.4533
 30
0.0
 10
-11.33378
 20
-10.4533
 30
0.0
 10
-11.15632
 20
-10.44542
 30
0.0
 10
-11.15609
 20
-10.44968
 30
0.0
 10
-11.17313
 20
-10.27127
 30
0.0
 10
-11.17313
 20
-10.27127
 30
0.0
 10
-11.17381
 20
-10.26398
 30
0.0
 10
-11.17731
 20
-10.257
 30
0.0
 10
-11.18275
 20
-10.23917
 30
0.0
  0
SPLINE
  5
52
330
1F
100
AcDbEntity
  8
Layer 1
 62
     5
370
    53
100
AcDbSpline
210
0.0
220
0.0
230
1.0
 70
    11
 71
     3
 72
    48
 73
    44
 74
     0
 42
0.0000000001
 43
0.0000000001
 12
1.0
 22
0.0
 32
0.0
 13
1.0
 23
0.0
 33
0.0
 40
0.0
 40
0.0
 40
0.0
 40
0.0
 40
0.0833333333333333
 40
0.0833333333333333
 40
0.0833333333333333
 40
0.0833333333333333
 40
0.1666666666666667
 40
0.1666666666666667
 40
0.1666666666666667
 40
0.1666666666666667
 40
0.25
 40
0.25
 40
0.25
 40
0.25
 40
0.3333333333333333
 40
0.3333333333333333
 40
0.3333333333333333
 40
0.3333333333333333
 40
0.4166666666666667
 40
0.4166666666666667
 40
0.4166666666666667
 40
0.4166666666666667
 40
0.5
 40
0.5
 40
0.5
 40
0.5
 40
0.5833333333333334
 40
0.5833333333333334
 40
0.5833333333333334
 40
0.5833333333333334
 40
0.6666666666666666
 40
0.6666666666666666
 40
0.6666666666666666
 40
0.6666666666666666
 40
0.75
 40
0.75
 40
0.75
 40
0.75
 40
0.8333333333333334
 40
0.8333333333333334
 40
0.8333333333333334
 40
0.8333333333333334
 40
1.0
 40
1.0
 40
1.0
 40
1.0
 10
-14.37447
 20
-10.53653
 30
0.0
 10
-14.37447
 20
-10.53653
 30
0.0
 10
-14.37447
 20
-10.53653
 30
0.0
 10
-14.37447
 20
-10.53653
 30
0.0
 10
-14.37447
 20
-10.53653
 30
0.0
 10
-14.38992
 20
-10.53539
 30
0.0
 10
-14.40591
 20
-10.53115
 30
0.0
 10
-14.42067
 20
-10.53378
 30
0.0
 10
-14.42067
 20
-10.53378
 30
0.0
 10
-14.45081
 20
-10.53908
 30
0.0
 10
-14.50262
 20
-10.54275
 30
0.0
 10
-14.50595
 20
-10.5566
 30
0.0
 10
-14.50595
 20
-10.5566
 30
0.0
 10
-14.51759
 20
-10.60505
 30
0.0
 10
-14.5187
 20
-10.65879
 30
0.0
 10
-14.50904
 20
-10.70757
 30
0.0
 10
-14.50904
 20
-10.70757
 30
0.0
 10
-14.50674
 20
-10.71928
 30
0.0
 10
-14.44639
 20
-10.72767
 30
0.0
 10
-14.41433
 20
-10.72395
 30
0.0
 10
-14.41433
 20
-10.72395
 30
0.0
 10
-14.19219
 20
-10.69811
 30
0.0
 10
-13.9703
 20
-10.6697
 30
0.0
 10
-13.74887
 20
-10.6385
 30
0.0
 10
-13.74887
 20
-10.6385
 30
0.0
 10
-13.72929
 20
-10.63574
 30
0.0
 10
-13.69963
 20
-10.6083
 30
0.0
 10
-13.69825
 20
-10.59053
 30
0.0
 10
-13.69825
 20
-10.59053
 30
0.0
 10
-13.69357
 20
-10.52991
 30
0.0
 10
-13.70178
 20
-10.46841
 30
0.0
 10
-13.70061
 20
-10.40736
 30
0.0
 10
-13.70061
 20
-10.40736
 30
0.0
 10
-13.69956
 20
-10.35101
 30
0.0
 10
-13.72495
 20
-10.33811
 30
0.0
 10
-13.77276
 20
-10.35635
 30
0.0
 10
-13.77276
 20
-10.35635
 30
0.0
 10
-13.8497
 20
-10.38568
 30
0.0
 10
-13.92594
 20
-10.41689
 30
0.0
 10
-14.00274
 20
-10.44661
 30
0.0
 10
-14.00274
 20
-10.44661
 30
0.0
 10
-14.12264
 20
-10.49296
 30
0.0
 10
-14.24142
 20
-10.54433
 30
0.0
 10
-14.37447
 20
-10.53653
 30
0.0
  0
SPLINE
  5
53
330
1F
100
AcDbEntity
  8
Layer 1
 62
     5
370
    53
100
AcDbSpline
210
0.0
220
0.0
230
1.0
 70
    11
 71
     3
 72
    52
 73
    48
 74
     0
 42
0.0000000001
 43
0.0000000001
 12
1.0
 22
0.0
 32
0.0
 13
1.0
 23
0.0
 33
0.0
 40
0.0
 40
0.0
 40
0.0
 40
0.0
 40
0.0769230769230769
 40
0.0769230769230769
 40
0.0769230769230769
 40
0.0769230769230769
 40
0.1538461538461539
 40
0.1538461538461539
 40
0.1538461538461539
 40
0.1538461538461539
 40
0.2307692307692308
 40
0.2307692307692308
 40
0.2307692307692308
 40
0.2307692307692308
 40
0.3076923076923077
 40
0.3076923076923077
 40
0.3076923076923077
 40
0.3076923076923077
 40
0.3846153846153846
 40
0.3846153846153846
 40
0.3846153846153846
 40
0.3846153846153846
 40
0.4615384615384616
 40
0.4615384615384616
 40
0.4615384615384616
 40
0.4615384615384616
 40
0.5384615384615384
 40
0.5384615384615384
 40
0.5384615384615384
 40
0.5384615384615384
 40
0.6153846153846154
 40
0.6153846153846154
 40
0.6153846153846154
 40
0.6153846153846154
 40
0.6923076923076923
 40
0.6923076923076923
 40
0.6923076923076923
 40
0.6923076923076923
 40
0.7692307692307693
 40
0.7692307692307693
 40
0.7692307692307693
 40
0.7692307692307693
 40
0.8461538461538461
 40
0.8461538461538461
 40
0.8461538461538461
 40
0.8461538461538461
 40
1.0
 40
1.0
 40
1.0
 40
1.0
 10
-13.21306
 20
-9.19482
 30
0.0
 10
-13.21306
 20
-9.19482
 30
0.0
 10
-13.21306
 20
-9.19482
 30
0.0
 10
-13.21306
 20
-9.19482
 30
0.0
 10
-13.21306
 20
-9.19482
 30
0.0
 10
-13.16475
 20
-9.19482
 30
0.0
 10
-13.11906
 20
-9.19743
 30
0.0
 10
-13.07374
 20
-9.19433
 30
0.0
 10
-13.07374
 20
-9.19433
 30
0.0
 10
-12.92681
 20
-9.1842
 30
0.0
 10
-12.79695
 20
-9.21152
 30
0.0
 10
-12.70606
 20
-9.34251
 30
0.0
 10
-12.70606
 20
-9.34251
 30
0.0
 10
-12.68295
 20
-9.37582
 30
0.0
 10
-12.6495
 20
-9.40246
 30
0.0
 10
-12.61886
 20
-9.43003
 30
0.0
 10
-12.61886
 20
-9.43003
 30
0.0
 10
-12.56983
 20
-9.47411
 30
0.0
 10
-12.52473
 20
-9.47571
 30
0.0
 10
-12.48169
 20
-9.41816
 30
0.0
 10
-12.48169
 20
-9.41816
 30
0.0
 10
-12.46551
 20
-9.39649
 30
0.0
 10
-12.44099
 20
-9.37838
 30
0.0
 10
-12.41653
 20
-9.36605
 30
0.0
 10
-12.41653
 20
-9.36605
 30
0.0
 10
-12.35647
 20
-9.33587
 30
0.0
 10
-12.34356
 20
-9.2883
 30
0.0
 10
-12.38088
 20
-9.24004
 30
0.0
 10
-12.38088
 20
-9.24004
 30
0.0
 10
-12.41188
 20
-9.19997
 30
0.0
 10
-12.45599
 20
-9.15449
 30
0.0
 10
-12.50173
 20
-9.1441
 30
0.0
 10
-12.50173
 20
-9.1441
 30
0.0
 10
-12.67098
 20
-9.1056
 30
0.0
 10
-12.83595
 20
-9.05915
 30
0.0
 10
-12.98914
 20
-8.97551
 30
0.0
 10
-12.98914
 20
-8.97551
 30
0.0
 10
-13.00909
 20
-8.9646
 30
0.0
 10
-13.03264
 20
-8.95895
 30
0.0
 10
-13.05524
 20
-8.95448
 30
0.0
 10
-13.05524
 20
-8.95448
 30
0.0
 10
-13.12202
 20
-8.94127
 30
0.0
 10
-13.18248
 20
-8.97778
 30
0.0
 10
-13.19563
 20
-9.04295
 30
0.0
 10
-13.19563
 20
-9.04295
 30
0.0
 10
-13.20513
 20
-9.08995
 30
0.0
 10
-13.2069
 20
-9.13852
 30
0.0
 10
-13.21306
 20
-9.19482
 30
0.0
  0
SPLINE
  5
54
330
1F
100
AcDbEntity
  8
Layer 1
 62
     5
370
    53
100
AcDbSpline
210
0.0
220
0.0
230
1.0
 70
    11
 71
     3
 72
    44
 73
    40
 74
     0
 42
0.0000000001
 43
0.0000000001
 12
1.0
 22
0.0
 32
0.0
 13
1.0
 23
0.0
 33
0.0
 40
0.0
 40
0.0
 40
0.0
 40
0.0
 40
0.0909090909090909
 40
0.0909090909090909
 40
0.0909090909090909
 40
0.0909090909090909
 40
0.1818181818181818
 40
0.1818181818181818
 40
0.1818181818181818
 40
0.1818181818181818
 40
0.2727272727272727
 40
0.2727272727272727
 40
0.2727272727272727
 40
0.2727272727272727
 40
0.3636363636363636
 40
0.3636363636363636
 40
0.3636363636363636
 40
0.3636363636363636
 40
0.4545454545454545
 40
0.4545454545454545
 40
0.4545454545454545
 40
0.4545454545454545
 40
0.5454545454545454
 40
0.5454545454545454
 40
0.5454545454545454
 40
0.5454545454545454
 40
0.6363636363636364
 40
0.6363636363636364
 40
0.6363636363636364
 40
0.6363636363636364
 40
0.7272727272727273
 40
0.7272727272727273
 40
0.7272727272727273
 40
0.7272727272727273
 40
0.8181818181818182
 40
0.8181818181818182
 40
0.8181818181818182
 40
0.8181818181818182
 40
1.0
 40
1.0
 40
1.0
 40
1.0
 10
-13.88116
 20
-10.20479
 30
0.0
 10
-13.88116
 20
-10.20479
 30
0.0
 10
-13.88116
 20
-10.20479
 30
0.0
 10
-13.88116
 20
-10.20479
 30
0.0
 10
-13.88116
 20
-10.20479
 30
0.0
 10
-13.89093
 20
-10.13185
 30
0.0
 10
-13.90998
 20
-10.0782
 30
0.0
 10
-13.90214
 20
-10.02885
 30
0.0
 10
-13.90214
 20
-10.02885
 30
0.0
 10
-13.88688
 20
-9.93251
 30
0.0
 10
-13.89438
 20
-9.91808
 30
0.0
 10
-13.99236
 20
-9.93323
 30
0.0
 10
-13.99236
 20
-9.93323
 30
0.0
 10
-14.01511
 20
-9.93671
 30
0.0
 10
-14.03758
 20
-9.94358
 30
0.0
 10
-14.05952
 20
-9.9509
 30
0.0
 10
-14.05952
 20
-9.9509
 30
0.0
 10
-14.24425
 20
-10.01247
 30
0.0
 10
-14.43072
 20
-10.03097
 30
0.0
 10
-14.62257
 20
-9.9841
 30
0.0
 10
-14.62257
 20
-9.9841
 30
0.0
 10
-14.66513
 20
-9.97371
 30
0.0
 10
-14.71237
 20
-9.98261
 30
0.0
 10
-14.75868
 20
-9.98261
 30
0.0
 10
-14.75868
 20
-9.98261
 30
0.0
 10
-14.75868
 20
-9.98261
 30
0.0
 10
-14.75868
 20
-10.24393
 30
0.0
 10
-14.75868
 20
-10.24393
 30
0.0
 10
-14.75868
 20
-10.24393
 30
0.0
 10
-14.75085
 20
-10.24468
 30
0.0
 10
-14.74044
 20
-10.24832
 30
0.0
 10
-14.73146
 20
-10.24618
 30
0.0
 10
-14.73146
 20
-10.24618
 30
0.0
 10
-14.48528
 20
-10.18711
 30
0.0
 10
-14.23854
 20
-10.17158
 30
0.0
 10
-13.98858
 20
-10.22502
 30
0.0
 10
-13.98858
 20
-10.22502
 30
0.0
 10
-13.95353
 20
-10.23248
 30
0.0
 10
-13.91233
 20
-10.21124
 30
0.0
 10
-13.88116
 20
-10.20479
 30
0.0
  0
SPLINE
  5
55
330
1F
100
AcDbEntity
  8
Layer 1
 62
     5
370
    53
100
AcDbSpline
210
0.0
220
0.0
230
1.0
 70
    11
 71
     3
 72
    44
 73
    40
 74
     0
 42
0.0000000001
 43
0.0000000001
 12
1.0
 22
0.0
 32
0.0
 13
1.0
 23
0.0
 33
0.0
 40
0.0
 40
0.0
 40
0.0
 40
0.0
 40
0.0909090909090909
 40
0.0909090909090909
 40
0.0909090909090909
 40
0.0909090909090909
 40
0.1818181818181818
 40
0.1818181818181818
 40
0.1818181818181818
 40
0.1818181818181818
 40
0.2727272727272727
 40
0.2727272727272727
 40
0.2727272727272727
 40
0.2727272727272727
 40
0.3636363636363636
 40
0.3636363636363636
 40
0.3636363636363636
 40
0.3636363636363636
 40
0.4545454545454545
 40
0.4545454545454545
 40
0.4545454545454545
 40
0.4545454545454545
 40
0.5454545454545454
 40
0.5454545454545454
 40
0.5454545454545454
 40
0.5454545454545454
 40
0.6363636363636364
 40
0.6363636363636364
 40
0.6363636363636364
 40
0.6363636363636364
 40
0.7272727272727273
 40
0.7272727272727273
 40
0.7272727272727273
 40
0.7272727272727273
 40
0.8181818181818182
 40
0.8181818181818182
 40
0.8181818181818182
 40
0.8181818181818182
 40
1.0
 40
1.0
 40
1.0
 40
1.0
 10
-13.44913
 20
-10.81922
 30
0.0
 10
-13.44913
 20
-10.81922
 30
0.0
 10
-13.44913
 20
-10.81922
 30
0.0
 10
-13.44913
 20
-10.81922
 30
0.0
 10
-13.44913
 20
-10.81922
 30
0.0
 10
-13.44701
 20
-10.91523
 30
0.0
 10
-13.4094
 20
-10.95461
 30
0.0
 10
-13.31838
 20
-10.94554
 30
0.0
 10
-13.31838
 20
-10.94554
 30
0.0
 10
-13.26844
 20
-10.94055
 30
0.0
 10
-13.21764
 20
-10.92562
 30
0.0
 10
-13.17132
 20
-10.90568
 30
0.0
 10
-13.17132
 20
-10.90568
 30
0.0
 10
-12.95191
 20
-10.81121
 30
0.0
 10
-12.73329
 20
-10.71488
 30
0.0
 10
-12.5162
 20
-10.61522
 30
0.0
 10
-12.5162
 20
-10.61522
 30
0.0
 10
-12.48726
 20
-10.60195
 30
0.0
 10
-12.45099
 20
-10.56678
 30
0.0
 10
-12.44995
 20
-10.54048
 30
0.0
 10
-12.44995
 20
-10.54048
 30
0.0
 10
-12.44874
 20
-10.50919
 30
0.0
 10
-12.47508
 20
-10.46828
 30
0.0
 10
-12.50168
 20
-10.44635
 30
0.0
 10
-12.50168
 20
-10.44635
 30
0.0
 10
-12.55044
 20
-10.40615
 30
0.0
 10
-12.66801
 20
-10.42038
 30
0.0
 10
-12.72369
 20
-10.45562
 30
0.0
 10
-12.72369
 20
-10.45562
 30
0.0
 10
-12.81034
 20
-10.51043
 30
0.0
 10
-12.89614
 20
-10.57006
 30
0.0
 10
-12.99
 20
-10.60918
 30
0.0
 10
-12.99
 20
-10.60918
 30
0.0
 10
-13.11548
 20
-10.66153
 30
0.0
 10
-13.2484
 20
-10.69589
 30
0.0
 10
-13.37792
 20
-10.73861
 30
0.0
 10
-13.37792
 20
-10.73861
 30
0.0
 10
-13.41785
 20
-10.75178
 30
0.0
 10
-13.45913
 20
-10.76543
 30
0.0
 10
-13.44913
 20
-10.81922
 30
0.0
  0
SPLINE
  5
56
330
1F
100
AcDbEntity
  8
Layer 1
 62
     5
370
    53
100
AcDbSpline
210
0.0
220
0.0
230
1.0
 70
    11
 71
     3
 72
    52
 73
    48
 74
     0
 42
0.0000000001
 43
0.0000000001
 12
1.0
 22
0.0
 32
0.0
 13
1.0
 23
0.0
 33
0.0
 40
0.0
 40
0.0
 40
0.0
 40
0.0
 40
0.0769230769230769
 40
0.0769230769230769
 40
0.0769230769230769
 40
0.0769230769230769
 40
0.1538461538461539
 40
0.1538461538461539
 40
0.1538461538461539
 40
0.1538461538461539
 40
0.2307692307692308
 40
0.2307692307692308
 40
0.2307692307692308
 40
0.2307692307692308
 40
0.3076923076923077
 40
0.3076923076923077
 40
0.3076923076923077
 40
0.3076923076923077
 40
0.3846153846153846
 40
0.3846153846153846
 40
0.3846153846153846
 40
0.3846153846153846
 40
0.4615384615384616
 40
0.4615384615384616
 40
0.4615384615384616
 40
0.4615384615384616
 40
0.5384615384615384
 40
0.5384615384615384
 40
0.5384615384615384
 40
0.5384615384615384
 40
0.6153846153846154
 40
0.6153846153846154
 40
0.6153846153846154
 40
0.6153846153846154
 40
0.6923076923076923
 40
0.6923076923076923
 40
0.6923076923076923
 40
0.6923076923076923
 40
0.7692307692307693
 40
0.7692307692307693
 40
0.7692307692307693
 40
0.7692307692307693
 40
0.8461538461538461
 40
0.8461538461538461
 40
0.8461538461538461
 40
0.8461538461538461
 40
1.0
 40
1.0
 40
1.0
 40
1.0
 10
-12.54546
 20
-10.4066
 30
0.0
 10
-12.54546
 20
-10.4066
 30
0.0
 10
-12.54546
 20
-10.4066
 30
0.0
 10
-12.54546
 20
-10.4066
 30
0.0
 10
-12.54546
 20
-10.4066
 30
0.0
 10
-12.54248
 20
-10.38294
 30
0.0
 10
-12.53345
 20
-10.35051
 30
0.0
 10
-12.53885
 20
-10.3479
 30
0.0
 10
-12.53885
 20
-10.3479
 30
0.0
 10
-12.59648
 20
-10.32002
 30
0.0
 10
-12.56409
 20
-10.27373
 30
0.0
 10
-12.56819
 20
-10.23409
 30
0.0
 10
-12.56819
 20
-10.23409
 30
0.0
 10
-12.57105
 20
-10.20631
 30
0.0
 10
-12.58759
 20
-10.15696
 30
0.0
 10
-12.59862
 20
-10.15678
 30
0.0
 10
-12.59862
 20
-10.15678
 30
0.0
 10
-12.66572
 20
-10.1558
 30
0.0
 10
-12.74985
 20
-10.14278
 30
0.0
 10
-12.79719
 20
-10.17691
 30
0.0
 10
-12.79719
 20
-10.17691
 30
0.0
 10
-12.97104
 20
-10.30227
 30
0.0
 10
-13.16256
 20
-10.34643
 30
0.0
 10
-13.37054
 20
-10.35147
 30
0.0
 10
-13.37054
 20
-10.35147
 30
0.0
 10
-13.43651
 20
-10.35307
 30
0.0
 10
-13.50265
 20
-10.36757
 30
0.0
 10
-13.56771
 20
-10.38103
 30
0.0
 10
-13.56771
 20
-10.38103
 30
0.0
 10
-13.6278
 20
-10.39343
 30
0.0
 10
-13.66843
 20
-10.43671
 30
0.0
 10
-13.66013
 20
-10.49593
 30
0.0
 10
-13.66013
 20
-10.49593
 30
0.0
 10
-13.65211
 20
-10.55309
 30
0.0
 10
-13.62483
 20
-10.61486
 30
0.0
 10
-13.54826
 20
-10.60954
 30
0.0
 10
-13.54826
 20
-10.60954
 30
0.0
 10
-13.48791
 20
-10.60535
 30
0.0
 10
-13.42518
 20
-10.59967
 30
0.0
 10
-13.36896
 20
-10.57946
 30
0.0
 10
-13.36896
 20
-10.57946
 30
0.0
 10
-13.23356
 20
-10.53081
 30
0.0
 10
-13.10235
 20
-10.47059
 30
0.0
 10
-12.96761
 20
-10.41999
 30
0.0
 10
-12.96761
 20
-10.41999
 30
0.0
 10
-12.83292
 20
-10.36945
 30
0.0
 10
-12.6949
 20
-10.34729
 30
0.0
 10
-12.54546
 20
-10.4066
 30
0.0
  0
SPLINE
  5
57
330
1F
100
AcDbEntity
  8
Layer 1
 62
     5
370
    53
100
AcDbSpline
210
0.0
220
0.0
230
1.0
 70
    11
 71
     3
 72
    52
 73
    48
 74
     0
 42
0.0000000001
 43
0.0000000001
 12
1.0
 22
0.0
 32
0.0
 13
1.0
 23
0.0
 33
0.0
 40
0.0
 40
0.0
 40
0.0
 40
0.0
 40
0.0769230769230769
 40
0.0769230769230769
 40
0.0769230769230769
 40
0.0769230769230769
 40
0.1538461538461539
 40
0.1538461538461539
 40
0.1538461538461539
 40
0.1538461538461539
 40
0.2307692307692308
 40
0.2307692307692308
 40
0.2307692307692308
 40
0.2307692307692308
 40
0.3076923076923077
 40
0.3076923076923077
 40
0.3076923076923077
 40
0.3076923076923077
 40
0.3846153846153846
 40
0.3846153846153846
 40
0.3846153846153846
 40
0.3846153846153846
 40
0.4615384615384616
 40
0.4615384615384616
 40
0.4615384615384616
 40
0.4615384615384616
 40
0.5384615384615384
 40
0.5384615384615384
 40
0.5384615384615384
 40
0.5384615384615384
 40
0.6153846153846154
 40
0.6153846153846154
 40
0.6153846153846154
 40
0.6153846153846154
 40
0.6923076923076923
 40
0.6923076923076923
 40
0.6923076923076923
 40
0.6923076923076923
 40
0.7692307692307693
 40
0.7692307692307693
 40
0.7692307692307693
 40
0.7692307692307693
 40
0.8461538461538461
 40
0.8461538461538461
 40
0.8461538461538461
 40
0.8461538461538461
 40
1.0
 40
1.0
 40
1.0
 40
1.0
 10
-12.5703
 20
-9.809
 30
0.0
 10
-12.5703
 20
-9.809
 30
0.0
 10
-12.5703
 20
-9.809
 30
0.0
 10
-12.5703
 20
-9.809
 30
0.0
 10
-12.5703
 20
-9.809
 30
0.0
 10
-12.64713
 20
-9.8306
 30
0.0
 10
-12.71244
 20
-9.84584
 30
0.0
 10
-12.77555
 20
-9.8676
 30
0.0
 10
-12.77555
 20
-9.8676
 30
0.0
 10
-12.83835
 20
-9.88925
 30
0.0
 10
-12.89707
 20
-9.92429
 30
0.0
 10
-12.96078
 20
-9.94157
 30
0.0
 10
-12.96078
 20
-9.94157
 30
0.0
 10
-13.17089
 20
-9.99862
 30
0.0
 10
-13.38128
 20
-10.0156
 30
0.0
 10
-13.59014
 20
-9.93038
 30
0.0
 10
-13.59014
 20
-9.93038
 30
0.0
 10
-13.61993
 20
-9.91824
 30
0.0
 10
-13.65608
 20
-9.91951
 30
0.0
 10
-13.68939
 20
-9.91855
 30
0.0
 10
-13.68939
 20
-9.91855
 30
0.0
 10
-13.81726
 20
-9.91472
 30
0.0
 10
-13.88229
 20
-10.01009
 30
0.0
 10
-13.84293
 20
-10.13624
 30
0.0
 10
-13.84293
 20
-10.13624
 30
0.0
 10
-13.8219
 20
-10.20365
 30
0.0
 10
-13.78822
 20
-10.25016
 30
0.0
 10
-13.71111
 20
-10.23316
 30
0.0
 10
-13.71111
 20
-10.23316
 30
0.0
 10
-13.60094
 20
-10.20884
 30
0.0
 10
-13.48981
 20
-10.18571
 30
0.0
 10
-13.38276
 20
-10.15088
 30
0.0
 10
-13.38276
 20
-10.15088
 30
0.0
 10
-13.18962
 20
-10.08802
 30
0.0
 10
-12.99729
 20
-10.03854
 30
0.0
 10
-12.79349
 20
-10.09565
 30
0.0
 10
-12.79349
 20
-10.09565
 30
0.0
 10
-12.76396
 20
-10.10391
 30
0.0
 10
-12.73118
 20
-10.11262
 30
0.0
 10
-12.70209
 20
-10.10779
 30
0.0
 10
-12.70209
 20
-10.10779
 30
0.0
 10
-12.65405
 20
-10.0998
 30
0.0
 10
-12.58142
 20
-10.12435
 30
0.0
 10
-12.57207
 20
-10.04655
 30
0.0
 10
-12.57207
 20
-10.04655
 30
0.0
 10
-12.56364
 20
-9.9761
 30
0.0
 10
-12.5703
 20
-9.90385
 30
0.0
 10
-12.5703
 20
-9.809
 30
0.0
  0
SPLINE
  5
58
330
1F
100
AcDbEntity
  8
Layer 1
 62
     5
370
    53
100
AcDbSpline
210
0.0
220
0.0
230
1.0
 70
    11
 71
     3
 72
    52
 73
    48
 74
     0
 42
0.0000000001
 43
0.0000000001
 12
1.0
 22
0.0
 32
0.0
 13
1.0
 23
0.0
 33
0.0
 40
0.0
 40
0.0
 40
0.0
 40
0.0
 40
0.0769230769230769
 40
0.0769230769230769
 40
0.0769230769230769
 40
0.0769230769230769
 40
0.1538461538461539
 40
0.1538461538461539
 40
0.1538461538461539
 40
0.1538461538461539
 40
0.2307692307692308
 40
0.2307692307692308
 40
0.2307692307692308
 40
0.2307692307692308
 40
0.3076923076923077
 40
0.3076923076923077
 40
0.3076923076923077
 40
0.3076923076923077
 40
0.3846153846153846
 40
0.3846153846153846
 40
0.3846153846153846
 40
0.3846153846153846
 40
0.4615384615384616
 40
0.4615384615384616
 40
0.4615384615384616
 40
0.4615384615384616
 40
0.5384615384615384
 40
0.5384615384615384
 40
0.5384615384615384
 40
0.5384615384615384
 40
0.6153846153846154
 40
0.6153846153846154
 40
0.6153846153846154
 40
0.6153846153846154
 40
0.6923076923076923
 40
0.6923076923076923
 40
0.6923076923076923
 40
0.6923076923076923
 40
0.7692307692307693
 40
0.7692307692307693
 40
0.7692307692307693
 40
0.7692307692307693
 40
0.8461538461538461
 40
0.8461538461538461
 40
0.8461538461538461
 40
0.8461538461538461
 40
1.0
 40
1.0
 40
1.0
 40
1.0
 10
-12.5062
 20
-9.72362
 30
0.0
 10
-12.5062
 20
-9.72362
 30
0.0
 10
-12.5062
 20
-9.72362
 30
0.0
 10
-12.5062
 20
-9.72362
 30
0.0
 10
-12.5062
 20
-9.72362
 30
0.0
 10
-12.53229
 20
-9.68327
 30
0.0
 10
-12.5548
 20
-9.64402
 30
0.0
 10
-12.50363
 20
-9.59792
 30
0.0
 10
-12.50363
 20
-9.59792
 30
0.0
 10
-12.49048
 20
-9.58607
 30
0.0
 10
-12.5089
 20
-9.53077
 30
0.0
 10
-12.52374
 20
-9.50087
 30
0.0
 10
-12.52374
 20
-9.50087
 30
0.0
 10
-12.52893
 20
-9.49043
 30
0.0
 10
-12.56735
 20
-9.49333
 30
0.0
 10
-12.5901
 20
-9.4955
 30
0.0
 10
-12.5901
 20
-9.4955
 30
0.0
 10
-12.63585
 20
-9.49985
 30
0.0
 10
-12.68109
 20
-9.51227
 30
0.0
 10
-12.72678
 20
-9.51359
 30
0.0
 10
-12.72678
 20
-9.51359
 30
0.0
 10
-13.02873
 20
-9.52224
 30
0.0
 10
-13.32942
 20
-9.5201
 30
0.0
 10
-13.61733
 20
-9.40739
 30
0.0
 10
-13.61733
 20
-9.40739
 30
0.0
 10
-13.6713
 20
-9.38628
 30
0.0
 10
-13.8278
 20
-9.4809
 30
0.0
 10
-13.84179
 20
-9.53909
 30
0.0
 10
-13.84179
 20
-9.53909
 30
0.0
 10
-13.84521
 20
-9.55328
 30
0.0
 10
-13.84383
 20
-9.57035
 30
0.0
 10
-13.83939
 20
-9.58441
 30
0.0
 10
-13.83939
 20
-9.58441
 30
0.0
 10
-13.80453
 20
-9.69451
 30
0.0
 10
-13.72559
 20
-9.74949
 30
0.0
 10
-13.61528
 20
-9.72179
 30
0.0
 10
-13.61528
 20
-9.72179
 30
0.0
 10
-13.38567
 20
-9.66412
 30
0.0
 10
-13.15483
 20
-9.67404
 30
0.0
 10
-12.92371
 20
-9.6968
 30
0.0
 10
-12.92371
 20
-9.6968
 30
0.0
 10
-12.86448
 20
-9.70267
 30
0.0
 10
-12.80154
 20
-9.72221
 30
0.0
 10
-12.75081
 20
-9.75287
 30
0.0
 10
-12.75081
 20
-9.75287
 30
0.0
 10
-12.6442
 20
-9.81737
 30
0.0
 10
-12.6007
 20
-9.81749
 30
0.0
 10
-12.5062
 20
-9.72362
 30
0.0
  0
SPLINE
  5
59
330
1F
100
AcDbEntity
  8
Layer 1
 62
     5
370
    53
100
AcDbSpline
210
0.0
220
0.0
230
1.0
 70
    11
 71
     3
 72
    48
 73
    44
 74
     0
 42
0.0000000001
 43
0.0000000001
 12
1.0
 22
0.0
 32
0.0
 13
1.0
 23
0.0
 33
0.0
 40
0.0
 40
0.0
 40
0.0
 40
0.0
 40
0.0833333333333333
 40
0.0833333333333333
 40
0.0833333333333333
 40
0.0833333333333333
 40
0.1666666666666667
 40
0.1666666666666667
 40
0.1666666666666667
 40
0.1666666666666667
 40
0.25
 40
0.25
 40
0.25
 40
0.25
 40
0.3333333333333333
 40
0.3333333333333333
 40
0.3333333333333333
 40
0.3333333333333333
 40
0.4166666666666667
 40
0.4166666666666667
 40
0.4166666666666667
 40
0.4166666666666667
 40
0.5
 40
0.5
 40
0.5
 40
0.5
 40
0.5833333333333334
 40
0.5833333333333334
 40
0.5833333333333334
 40
0.5833333333333334
 40
0.6666666666666666
 40
0.6666666666666666
 40
0.6666666666666666
 40
0.6666666666666666
 40
0.75
 40
0.75
 40
0.75
 40
0.75
 40
0.8333333333333334
 40
0.8333333333333334
 40
0.8333333333333334
 40
0.8333333333333334
 40
1.0
 40
1.0
 40
1.0
 40
1.0
 10
-11.17175
 20
-9.87509
 30
0.0
 10
-11.17175
 20
-9.87509
 30
0.0
 10
-11.17175
 20
-9.87509
 30
0.0
 10
-11.17175
 20
-9.87509
 30
0.0
 10
-11.17175
 20
-9.87509
 30
0.0
 10
-11.17675
 20
-9.80039
 30
0.0
 10
-11.18627
 20
-9.71804
 30
0.0
 10
-11.18652
 20
-9.63565
 30
0.0
 10
-11.18652
 20
-9.63565
 30
0.0
 10
-11.18672
 20
-9.56317
 30
0.0
 10
-11.22085
 20
-9.53299
 30
0.0
 10
-11.28679
 20
-9.54532
 30
0.0
 10
-11.28679
 20
-9.54532
 30
0.0
 10
-11.3772
 20
-9.56224
 30
0.0
 10
-11.45877
 20
-9.53516
 30
0.0
 10
-11.54388
 20
-9.51369
 30
0.0
 10
-11.54388
 20
-9.51369
 30
0.0
 10
-11.62334
 20
-9.49367
 30
0.0
 10
-11.70627
 20
-9.48651
 30
0.0
 10
-11.78807
 20
-9.47703
 30
0.0
 10
-11.78807
 20
-9.47703
 30
0.0
 10
-11.8372
 20
-9.47134
 30
0.0
 10
-11.85591
 20
-9.49369
 30
0.0
 10
-11.85012
 20
-9.54645
 30
0.0
 10
-11.85012
 20
-9.54645
 30
0.0
 10
-11.83553
 20
-9.67937
 30
0.0
 10
-11.8217
 20
-9.81269
 30
0.0
 10
-11.81649
 20
-9.9462
 30
0.0
 10
-11.81649
 20
-9.9462
 30
0.0
 10
-11.80899
 20
-10.13768
 30
0.0
 10
-11.78117
 20
-10.15298
 30
0.0
 10
-11.59942
 20
-10.08937
 30
0.0
 10
-11.59942
 20
-10.08937
 30
0.0
 10
-11.4943
 20
-10.05252
 30
0.0
 10
-11.38085
 20
-10.0334
 30
0.0
 10
-11.26956
 20
-10.02209
 30
0.0
 10
-11.26956
 20
-10.02209
 30
0.0
 10
-11.17362
 20
-10.01237
 30
0.0
 10
-11.17082
 20
-10.02043
 30
0.0
 10
-11.17175
 20
-9.92157
 30
0.0
 10
-11.17175
 20
-9.92157
 30
0.0
 10
-11.17185
 20
-9.90868
 30
0.0
 10
-11.17175
 20
-9.89576
 30
0.0
 10
-11.17175
 20
-9.87509
 30
0.0
  0
SPLINE
  5
5A
330
1F
100
AcDbEntity
  8
Layer 1
 62
     5
370
    53
100
AcDbSpline
210
0.0
220
0.0
230
1.0
 70
    11
 71
     3
 72
    64
 73
    60
 74
     0
 42
0.0000000001
 43
0.0000000001
 12
1.0
 22
0.0
 32
0.0
 13
1.0
 23
0.0
 33
0.0
 40
0.0
 40
0.0
 40
0.0
 40
0.0
 40
0.0625
 40
0.0625
 40
0.0625
 40
0.0625
 40
0.125
 40
0.125
 40
0.125
 40
0.125
 40
0.1875
 40
0.1875
 40
0.1875
 40
0.1875
 40
0.25
 40
0.25
 40
0.25
 40
0.25
 40
0.3125
 40
0.3125
 40
0.3125
 40
0.3125
 40
0.375
 40
0.375
 40
0.375
 40
0.375
 40
0.4375
 40
0.4375
 40
0.4375
 40
0.4375
 40
0.5
 40
0.5
 40
0.5
 40
0.5
 40
0.5625
 40
0.5625
 40
0.5625
 40
0.5625
 40
0.625
 40
0.625
 40
0.625
 40
0.625
 40
0.6875
 40
0.6875
 40
0.6875
 40
0.6875
 40
0.75
 40
0.75
 40
0.75
 40
0.75
 40
0.8125
 40
0.8125
 40
0.8125
 40
0.8125
 40
0.875
 40
0.875
 40
0.875
 40
0.875
 40
1.0
 40
1.0
 40
1.0
 40
1.0
 10
-12.22284
 20
-9.52496
 30
0.0
 10
-12.22284
 20
-9.52496
 30
0.0
 10
-12.22284
 20
-9.52496
 30
0.0
 10
-12.22284
 20
-9.52496
 30
0.0
 10
-12.22284
 20
-9.52496
 30
0.0
 10
-12.24041
 20
-9.57565
 30
0.0
 10
-12.25636
 20
-9.62699
 30
0.0
 10
-12.27603
 20
-9.67686
 30
0.0
 10
-12.27603
 20
-9.67686
 30
0.0
 10
-12.29469
 20
-9.72414
 30
0.0
 10
-12.27154
 20
-9.74704
 30
0.0
 10
-12.23132
 20
-9.73737
 30
0.0
 10
-12.23132
 20
-9.73737
 30
0.0
 10
-12.14748
 20
-9.71729
 30
0.0
 10
-12.11645
 20
-9.7714
 30
0.0
 10
-12.08199
 20
-9.82721
 30
0.0
 10
-12.08199
 20
-9.82721
 30
0.0
 10
-12.07199
 20
-9.84338
 30
0.0
 10
-12.06017
 20
-9.86419
 30
0.0
 10
-12.04442
 20
-9.87
 30
0.0
 10
-12.04442
 20
-9.87
 30
0.0
 10
-12.00855
 20
-9.88318
 30
0.0
 10
-11.87123
 20
-9.81287
 30
0.0
 10
-11.85451
 20
-9.7776
 30
0.0
 10
-11.85451
 20
-9.7776
 30
0.0
 10
-11.82469
 20
-9.71474
 30
0.0
 10
-11.86096
 20
-9.62712
 30
0.0
 10
-11.93589
 20
-9.58151
 30
0.0
 10
-11.93589
 20
-9.58151
 30
0.0
 10
-11.96439
 20
-9.56415
 30
0.0
 10
-11.99844
 20
-9.55224
 30
0.0
 10
-12.02074
 20
-9.52901
 30
0.0
 10
-12.02074
 20
-9.52901
 30
0.0
 10
-12.0729
 20
-9.4746
 30
0.0
 10
-12.12909
 20
-9.46584
 30
0.0
 10
-12.19476
 20
-9.49746
 30
0.0
 10
-12.19476
 20
-9.49746
 30
0.0
 10
-12.19156
 20
-9.45467
 30
0.0
 10
-12.18015
 20
-9.41052
 30
0.0
 10
-12.18699
 20
-9.36941
 30
0.0
 10
-12.18699
 20
-9.36941
 30
0.0
 10
-12.19875
 20
-9.29874
 30
0.0
 10
-12.25606
 20
-9.27861
 30
0.0
 10
-12.31279
 20
-9.32091
 30
0.0
 10
-12.31279
 20
-9.32091
 30
0.0
 10
-12.35769
 20
-9.35445
 30
0.0
 10
-12.4029
 20
-9.38876
 30
0.0
 10
-12.44167
 20
-9.42878
 30
0.0
 10
-12.44167
 20
-9.42878
 30
0.0
 10
-12.45837
 20
-9.44602
 30
0.0
 10
-12.46776
 20
-9.48005
 30
0.0
 10
-12.46395
 20
-9.50377
 30
0.0
 10
-12.46395
 20
-9.50377
 30
0.0
 10
-12.46154
 20
-9.5186
 30
0.0
 10
-12.42831
 20
-9.53873
 30
0.0
 10
-12.40893
 20
-9.53867
 30
0.0
 10
-12.40893
 20
-9.53867
 30
0.0
 10
-12.3469
 20
-9.53855
 30
0.0
 10
-12.28485
 20
-9.53015
 30
0.0
 10
-12.22284
 20
-9.52496
 30
0.0
  0
SPLINE
  5
5B
330
1F
100
AcDbEntity
  8
Layer 1
370
    53
100
AcDbSpline
210
0.0
220
0.0
230
1.0
 70
    11
 71
     3
 72
   236
 73
   232
 74
     0
 42
0.0000000001
 43
0.0000000001
 12
1.0
 22
0.0
 32
0.0
 13
1.0
 23
0.0
 33
0.0
 40
0.0
 40
0.0
 40
0.0
 40
0.0
 40
0.0169491525423729
 40
0.0169491525423729
 40
0.0169491525423729
 40
0.0169491525423729
 40
0.0338983050847458
 40
0.0338983050847458
 40
0.0338983050847458
 40
0.0338983050847458
 40
0.0508474576271186
 40
0.0508474576271186
 40
0.0508474576271186
 40
0.0508474576271186
 40
0.0677966101694915
 40
0.0677966101694915
 40
0.0677966101694915
 40
0.0677966101694915
 40
0.0847457627118644
 40
0.0847457627118644
 40
0.0847457627118644
 40
0.0847457627118644
 40
0.1016949152542373
 40
0.1016949152542373
 40
0.1016949152542373
 40
0.1016949152542373
 40
0.1186440677966102
 40
0.1186440677966102
 40
0.1186440677966102
 40
0.1186440677966102
 40
0.1355932203389831
 40
0.1355932203389831
 40
0.1355932203389831
 40
0.1355932203389831
 40
0.1525423728813559
 40
0.1525423728813559
 40
0.1525423728813559
 40
0.1525423728813559
 40
0.1694915254237288
 40
0.1694915254237288
 40
0.1694915254237288
 40
0.1694915254237288
 40
0.1864406779661017
 40
0.1864406779661017
 40
0.1864406779661017
 40
0.1864406779661017
 40
0.2033898305084746
 40
0.2033898305084746
 40
0.2033898305084746
 40
0.2033898305084746
 40
0.2203389830508475
 40
0.2203389830508475
 40
0.2203389830508475
 40
0.2203389830508475
 40
0.2372881355932203
 40
0.2372881355932203
 40
0.2372881355932203
 40
0.2372881355932203
 40
0.2542372881355932
 40
0.2542372881355932
 40
0.2542372881355932
 40
0.2542372881355932
 40
0.2711864406779661
 40
0.2711864406779661
 40
0.2711864406779661
 40
0.2711864406779661
 40
0.288135593220339
 40
0.288135593220339
 40
0.288135593220339
 40
0.288135593220339
 40
0.3050847457627119
 40
0.3050847457627119
 40
0.3050847457627119
 40
0.3050847457627119
 40
0.3220338983050847
 40
0.3220338983050847
 40
0.3220338983050847
 40
0.3220338983050847
 40
0.3389830508474576
 40
0.3389830508474576
 40
0.3389830508474576
 40
0.3389830508474576
 40
0.3559322033898305
 40
0.3559322033898305
 40
0.3559322033898305
 40
0.3559322033898305
 40
0.3728813559322034
 40
0.3728813559322034
 40
0.3728813559322034
 40
0.3728813559322034
 40
0.3898305084745763
 40
0.3898305084745763
 40
0.3898305084745763
 40
0.3898305084745763
 40
0.4067796610169492
 40
0.4067796610169492
 40
0.4067796610169492
 40
0.4067796610169492
 40
0.423728813559322
 40
0.423728813559322
 40
0.423728813559322
 40
0.423728813559322
 40
0.4406779661016949
 40
0.4406779661016949
 40
0.4406779661016949
 40
0.4406779661016949
 40
0.4576271186440678
 40
0.4576271186440678
 40
0.4576271186440678
 40
0.4576271186440678
 40
0.4745762711864407
 40
0.4745762711864407
 40
0.4745762711864407
 40
0.4745762711864407
 40
0.4915254237288136
 40
0.4915254237288136
 40
0.4915254237288136
 40
0.4915254237288136
 40
0.5084745762711864
 40
0.5084745762711864
 40
0.5084745762711864
 40
0.5084745762711864
 40
0.5254237288135594
 40
0.5254237288135594
 40
0.5254237288135594
 40
0.5254237288135594
 40
0.5423728813559322
 40
0.5423728813559322
 40
0.5423728813559322
 40
0.5423728813559322
 40
0.559322033898305
 40
0.559322033898305
 40
0.559322033898305
 40
0.559322033898305
 40
0.576271186440678
 40
0.576271186440678
 40
0.576271186440678
 40
0.576271186440678
 40
0.5932203389830508
 40
0.5932203389830508
 40
0.5932203389830508
 40
0.5932203389830508
 40
0.6101694915254238
 40
0.6101694915254238
 40
0.6101694915254238
 40
0.6101694915254238
 40
0.6271186440677966
 40
0.6271186440677966
 40
0.6271186440677966
 40
0.6271186440677966
 40
0.6440677966101694
 40
0.6440677966101694
 40
0.6440677966101694
 40
0.6440677966101694
 40
0.6610169491525424
 40
0.6610169491525424
 40
0.6610169491525424
 40
0.6610169491525424
 40
0.6779661016949152
 40
0.6779661016949152
 40
0.6779661016949152
 40
0.6779661016949152
 40
0.6949152542372882
 40
0.6949152542372882
 40
0.6949152542372882
 40
0.6949152542372882
 40
0.711864406779661
 40
0.711864406779661
 40
0.711864406779661
 40
0.711864406779661
 40
0.7288135593220338
 40
0.7288135593220338
 40
0.7288135593220338
 40
0.7288135593220338
 40
0.7457627118644068
 40
0.7457627118644068
 40
0.7457627118644068
 40
0.7457627118644068
 40
0.7627118644067796
 40
0.7627118644067796
 40
0.7627118644067796
 40
0.7627118644067796
 40
0.7796610169491526
 40
0.7796610169491526
 40
0.7796610169491526
 40
0.7796610169491526
 40
0.7966101694915254
 40
0.7966101694915254
 40
0.7966101694915254
 40
0.7966101694915254
 40
0.8135593220338984
 40
0.8135593220338984
 40
0.8135593220338984
 40
0.8135593220338984
 40
0.8305084745762712
 40
0.8305084745762712
 40
0.8305084745762712
 40
0.8305084745762712
 40
0.847457627118644
 40
0.847457627118644
 40
0.847457627118644
 40
0.847457627118644
 40
0.864406779661017
 40
0.864406779661017
 40
0.864406779661017
 40
0.864406779661017
 40
0.8813559322033898
 40
0.8813559322033898
 40
0.8813559322033898
 40
0.8813559322033898
 40
0.8983050847457628
 40
0.8983050847457628
 40
0.8983050847457628
 40
0.8983050847457628
 40
0.9152542372881356
 40
0.9152542372881356
 40
0.9152542372881356
 40
0.9152542372881356
 40
0.9322033898305084
 40
0.9322033898305084
 40
0.9322033898305084
 40
0.9322033898305084
 40
0.9491525423728814
 40
0.9491525423728814
 40
0.9491525423728814
 40
0.9491525423728814
 40
0.9661016949152542
 40
0.9661016949152542
 40
0.9661016949152542
 40
0.9661016949152542
 40
1.0
 40
1.0
 40
1.0
 40
1.0
 10
-11.45
 20
-10.99224
 30
0.0
 10
-11.45
 20
-10.99224
 30
0.0
 10
-11.45
 20
-10.66365
 30
0.0
 10
-11.45
 20
-10.66365
 30
0.0
 10
-11.45
 20
-10.66365
 30
0.0
 10
-11.5839
 20
-10.65714
 30
0.0
 10
-11.71778
 20
-10.65054
 30
0.0
 10
-11.85088
 20
-10.6365
 30
0.0
 10
-11.85088
 20
-10.6365
 30
0.0
 10
-11.98968
 20
-10.62184
 30
0.0
 10
-12.11517
 20
-10.62936
 30
0.0
 10
-12.23357
 20
-10.71297
 30
0.0
 10
-12.23357
 20
-10.71297
 30
0.0
 10
-12.49692
 20
-10.89896
 30
0.0
 10
-12.78843
 20
-11.03649
 30
0.0
 10
-13.10815
 20
-11.06432
 30
0.0
 10
-13.10815
 20
-11.06432
 30
0.0
 10
-13.48741
 20
-11.09734
 30
0.0
 10
-13.83185
 20
-11.24628
 30
0.0
 10
-14.19414
 20
-11.33353
 30
0.0
 10
-14.19414
 20
-11.33353
 30
0.0
 10
-14.27656
 20
-11.35338
 30
0.0
 10
-14.35987
 20
-11.36945
 30
0.0
 10
-14.44279
 20
-11.38725
 30
0.0
 10
-14.44279
 20
-11.38725
 30
0.0
 10
-14.44279
 20
-11.38725
 30
0.0
 10
-14.72199
 20
-11.38725
 30
0.0
 10
-14.72199
 20
-11.38725
 30
0.0
 10
-14.72199
 20
-11.38725
 30
0.0
 10
-14.76592
 20
-11.36208
 30
0.0
 10
-14.81795
 20
-11.34537
 30
0.0
 10
-14.81909
 20
-11.28007
 30
0.0
 10
-14.81909
 20
-11.28007
 30
0.0
 10
-14.8203
 20
-11.211
 30
0.0
 10
-14.77963
 20
-11.16951
 30
0.0
 10
-14.7261
 20
-11.13943
 30
0.0
 10
-14.7261
 20
-11.13943
 30
0.0
 10
-14.6814
 20
-11.11429
 30
0.0
 10
-14.63379
 20
-11.09313
 30
0.0
 10
-14.58548
 20
-11.07574
 30
0.0
 10
-14.58548
 20
-11.07574
 30
0.0
 10
-14.35021
 20
-10.99112
 30
0.0
 10
-14.11383
 20
-10.90963
 30
0.0
 10
-13.87899
 20
-10.82385
 30
0.0
 10
-13.87899
 20
-10.82385
 30
0.0
 10
-13.83954
 20
-10.80945
 30
0.0
 10
-13.8057
 20
-10.77958
 30
0.0
 10
-13.76927
 20
-10.75685
 30
0.0
 10
-13.76927
 20
-10.75685
 30
0.0
 10
-13.7731
 20
-10.74716
 30
0.0
 10
-13.77691
 20
-10.73745
 30
0.0
 10
-13.78073
 20
-10.72776
 30
0.0
 10
-13.78073
 20
-10.72776
 30
0.0
 10
-13.85386
 20
-10.73491
 30
0.0
 10
-13.93003
 20
-10.73137
 30
0.0
 10
-13.99964
 20
-10.75101
 30
0.0
 10
-13.99964
 20
-10.75101
 30
0.0
 10
-14.38628
 20
-10.86018
 30
0.0
 10
-14.78069
 20
-10.91963
 30
0.0
 10
-15.18069
 20
-10.9433
 30
0.0
 10
-15.18069
 20
-10.9433
 30
0.0
 10
-15.26216
 20
-10.94811
 30
0.0
 10
-15.34646
 20
-10.94221
 30
0.0
 10
-15.42644
 20
-10.92612
 30
0.0
 10
-15.42644
 20
-10.92612
 30
0.0
 10
-15.53639
 20
-10.90402
 30
0.0
 10
-15.57381
 20
-10.81842
 30
0.0
 10
-15.53217
 20
-10.71352
 30
0.0
 10
-15.53217
 20
-10.71352
 30
0.0
 10
-15.49385
 20
-10.61701
 30
0.0
 10
-15.40746
 20
-10.5972
 30
0.0
 10
-15.32007
 20
-10.58127
 30
0.0
 10
-15.32007
 20
-10.58127
 30
0.0
 10
-15.05388
 20
-10.53281
 30
0.0
 10
-14.78694
 20
-10.48831
 30
0.0
 10
-14.52125
 20
-10.43728
 30
0.0
 10
-14.52125
 20
-10.43728
 30
0.0
 10
-14.36852
 20
-10.40796
 30
0.0
 10
-14.21769
 20
-10.36896
 30
0.0
 10
-14.06598
 20
-10.33431
 30
0.0
 10
-14.06598
 20
-10.33431
 30
0.0
 10
-14.11701
 20
-10.31496
 30
0.0
 10
-14.1658
 20
-10.30282
 30
0.0
 10
-14.21409
 20
-10.30465
 30
0.0
 10
-14.21409
 20
-10.30465
 30
0.0
 10
-14.49489
 20
-10.31527
 30
0.0
 10
-14.77554
 20
-10.33002
 30
0.0
 10
-15.05631
 20
-10.34168
 30
0.0
 10
-15.05631
 20
-10.34168
 30
0.0
 10
-15.28306
 20
-10.35111
 30
0.0
 10
-15.50985
 20
-10.36176
 30
0.0
 10
-15.73674
 20
-10.36439
 30
0.0
 10
-15.73674
 20
-10.36439
 30
0.0
 10
-15.82529
 20
-10.36542
 30
0.0
 10
-15.9108
 20
-10.33943
 30
0.0
 10
-15.96285
 20
-10.25494
 30
0.0
 10
-15.96285
 20
-10.25494
 30
0.0
 10
-15.96285
 20
-10.25494
 30
0.0
 10
-15.96285
 20
-10.13084
 30
0.0
 10
-15.96285
 20
-10.13084
 30
0.0
 10
-15.96285
 20
-10.13084
 30
0.0
 10
-15.89244
 20
-9.99885
 30
0.0
 10
-15.76278
 20
-9.99141
 30
0.0
 10
-15.63707
 20
-9.97628
 30
0.0
 10
-15.63707
 20
-9.97628
 30
0.0
 10
-15.39882
 20
-9.94759
 30
0.0
 10
-15.16087
 20
-9.91517
 30
0.0
 10
-14.92201
 20
-9.89259
 30
0.0
 10
-14.92201
 20
-9.89259
 30
0.0
 10
-14.74992
 20
-9.87631
 30
0.0
 10
-14.57657
 20
-9.87347
 30
0.0
 10
-14.40376
 20
-9.8646
 30
0.0
 10
-14.40376
 20
-9.8646
 30
0.0
 10
-14.31087
 20
-9.85985
 30
0.0
 10
-14.21784
 20
-9.8569
 30
0.0
 10
-14.12521
 20
-9.84907
 30
0.0
 10
-14.12521
 20
-9.84907
 30
0.0
 10
-14.101
 20
-9.84703
 30
0.0
 10
-14.0781
 20
-9.82983
 30
0.0
 10
-14.0546
 20
-9.81959
 30
0.0
 10
-14.0546
 20
-9.81959
 30
0.0
 10
-14.0548
 20
-9.80993
 30
0.0
 10
-14.05505
 20
-9.80029
 30
0.0
 10
-14.05528
 20
-9.79068
 30
0.0
 10
-14.05528
 20
-9.79068
 30
0.0
 10
-14.09759
 20
-9.78057
 30
0.0
 10
-14.13963
 20
-9.76308
 30
0.0
 10
-14.18223
 20
-9.76161
 30
0.0
 10
-14.18223
 20
-9.76161
 30
0.0
 10
-14.5515
 20
-9.74919
 30
0.0
 10
-14.92101
 20
-9.74265
 30
0.0
 10
-15.29011
 20
-9.72735
 30
0.0
 10
-15.29011
 20
-9.72735
 30
0.0
 10
-15.39706
 20
-9.72291
 30
0.0
 10
-15.50478
 20
-9.70267
 30
0.0
 10
-15.60892
 20
-9.67679
 30
0.0
 10
-15.60892
 20
-9.67679
 30
0.0
 10
-15.68766
 20
-9.65725
 30
0.0
 10
-15.72009
 20
-9.59172
 30
0.0
 10
-15.71925
 20
-9.50979
 30
0.0
 10
-15.71925
 20
-9.50979
 30
0.0
 10
-15.7184
 20
-9.42807
 30
0.0
 10
-15.68322
 20
-9.36686
 30
0.0
 10
-15.60698
 20
-9.342
 30
0.0
 10
-15.60698
 20
-9.342
 30
0.0
 10
-15.54912
 20
-9.32309
 30
0.0
 10
-15.48589
 20
-9.315
 30
0.0
 10
-15.42469
 20
-9.3129
 30
0.0
 10
-15.42469
 20
-9.3129
 30
0.0
 10
-15.11253
 20
-9.30223
 30
0.0
 10
-14.80014
 20
-9.29784
 30
0.0
 10
-14.48803
 20
-9.28593
 30
0.0
 10
-14.48803
 20
-9.28593
 30
0.0
 10
-14.22496
 20
-9.27591
 30
0.0
 10
-13.96207
 20
-9.26012
 30
0.0
 10
-13.69933
 20
-9.24327
 30
0.0
 10
-13.69933
 20
-9.24327
 30
0.0
 10
-13.64399
 20
-9.23973
 30
0.0
 10
-13.58961
 20
-9.22046
 30
0.0
 10
-13.51887
 20
-9.20493
 30
0.0
 10
-13.51887
 20
-9.20493
 30
0.0
 10
-13.67108
 20
-9.14984
 30
0.0
 10
-13.80885
 20
-9.10548
 30
0.0
 10
-13.94199
 20
-9.04995
 30
0.0
 10
-13.94199
 20
-9.04995
 30
0.0
 10
-14.03433
 20
-9.0114
 30
0.0
 10
-14.12092
 20
-8.95866
 30
0.0
 10
-14.20869
 20
-8.90975
 30
0.0
 10
-14.20869
 20
-8.90975
 30
0.0
 10
-14.23539
 20
-8.89489
 30
0.0
 10
-14.25849
 20
-8.8729
 30
0.0
 10
-14.28139
 20
-8.85213
 30
0.0
 10
-14.28139
 20
-8.85213
 30
0.0
 10
-14.37879
 20
-8.76372
 30
0.0
 10
-14.42994
 20
-8.64065
 30
0.0
 10
-14.38091
 20
-8.57352
 30
0.0
 10
-14.38091
 20
-8.57352
 30
0.0
 10
-14.31635
 20
-8.48513
 30
0.0
 10
-14.21062
 20
-8.50544
 30
0.0
 10
-14.12365
 20
-8.52346
 30
0.0
 10
-14.12365
 20
-8.52346
 30
0.0
 10
-13.96749
 20
-8.55579
 30
0.0
 10
-13.81521
 20
-8.6067
 30
0.0
 10
-13.66105
 20
-8.64886
 30
0.0
 10
-13.66105
 20
-8.64886
 30
0.0
 10
-13.57914
 20
-8.67126
 30
0.0
 10
-13.49762
 20
-8.69653
 30
0.0
 10
-13.41432
 20
-8.71204
 30
0.0
 10
-13.41432
 20
-8.71204
 30
0.0
 10
-13.04367
 20
-8.7811
 30
0.0
 10
-12.6821
 20
-8.88906
 30
0.0
 10
-12.36076
 20
-9.08232
 30
0.0
 10
-12.36076
 20
-9.08232
 30
0.0
 10
-12.11208
 20
-9.23187
 30
0.0
 10
-11.85189
 20
-9.26107
 30
0.0
 10
-11.57847
 20
-9.2765
 30
0.0
 10
-11.57847
 20
-9.2765
 30
0.0
 10
-11.53562
 20
-9.27891
 30
0.0
 10
-11.49273
 20
-9.28335
 30
0.0
 10
-11.45
 20
-9.2894
 30
0.0
 10
-11.45
 20
-9.2894
 30
0.0
 10
-11.45
 20
-9.2894
 30
0.0
 10
-11.45
 20
-9.09224
 30
0.0
 10
-11.45
 20
-9.09224
 30
0.0
 10
-11.45
 20
-9.09224
 30
0.0
 10
-11.45
 20
-8.8161
 30
0.0
 10
-11.22614
 20
-8.59224
 30
0.0
 10
-10.95
 20
-8.59224
 30
0.0
 10
-10.95
 20
-8.59224
 30
0.0
 10
-10.95
 20
-8.59224
 30
0.0
 10
-10.55
 20
-8.59224
 30
0.0
 10
-10.55
 20
-8.59224
 30
0.0
 10
-10.55
 20
-8.59224
 30
0.0
 10
-10.27386
 20
-8.59224
 30
0.0
 10
-10.05
 20
-8.8161
 30
0.0
 10
-10.05
 20
-9.09224
 30
0.0
 10
-10.05
 20
-9.09224
 30
0.0
 10
-10.05
 20
-9.09224
 30
0.0
 10
-10.05
 20
-10.99224
 30
0.0
 10
-10.05
 20
-10.99224
 30
0.0
 10
-10.05
 20
-10.99224
 30
0.0
 10
-10.05
 20
-11.26838
 30
0.0
 10
-10.27386
 20
-11.49224
 30
0.0
 10
-10.55
 20
-11.49224
 30
0.0
 10
-10.55
 20
-11.49224
 30
0.0
 10
-10.55
 20
-11.49224
 30
0.0
 10
-10.95
 20
-11.49224
 30
0.0
 10
-10.95
 20
-11.49224
 30
0.0
 10
-10.95
 20
-11.49224
 30
0.0
 10
-11.22614
 20
-11.49224
 30
0.0
 10
-11.45
 20
-11.26838
 30
0.0
 10
-11.45
 20
-10.99224
 30
0.0
  0
ELLIPSE
  5
5C
330
1F
100
AcDbEntity
  8
Layer 1
370
    53
100
AcDbEllipse
 10
-10.75
 20
-9.29224
 30
0.0
 11
0.0
 21
0.325
 31
0.0
210
0.0
220
0.0
230
1.0
 40
1.0
 41
0.0
 42
6.283185307179586
  0
ELLIPSE
  5
5D
330
1F
100
AcDbEntity
  8
Layer 1
370
    53
100
AcDbEllipse
 10
-10.75
 20
-10.79224
 30
0.0
 11
0.0
 21
0.325
 31
0.0
210
0.0
220
0.0
230
1.0
 40
1.0
 41
0.0
 42
6.283185307179586
  0
SPLINE
  5
5E
330
1F
100
AcDbEntity
  8
Layer 1
 62
     5
370
    53
100
AcDbSpline
210
0.0
220
0.0
230
1.0
 70
    11
 71
     3
 72
    32
 73
    28
 74
     0
 42
0.0000000001
 43
0.0000000001
 12
1.0
 22
0.0
 32
0.0
 13
1.0
 23
0.0
 33
0.0
 40
0.0
 40
0.0
 40
0.0
 40
0.0
 40
0.125
 40
0.125
 40
0.125
 40
0.125
 40
0.25
 40
0.25
 40
0.25
 40
0.25
 40
0.375
 40
0.375
 40
0.375
 40
0.375
 40
0.5
 40
0.5
 40
0.5
 40
0.5
 40
0.625
 40
0.625
 40
0.625
 40
0.625
 40
0.75
 40
0.75
 40
0.75
 40
0.75
 40
1.0
 40
1.0
 40
1.0
 40
1.0
 10
-5.52992
 20
-11.17142
 30
0.0
 10
-5.52992
 20
-11.17142
 30
0.0
 10
-5.52992
 20
-11.17142
 30
0.0
 10
-5.52992
 20
-11.17142
 30
0.0
 10
-5.52992
 20
-11.17142
 30
0.0
 10
-5.45516
 20
-11.18393
 30
0.0
 10
-5.3874
 20
-11.19498
 30
0.0
 10
-5.31977
 20
-11.20695
 30
0.0
 10
-5.31977
 20
-11.20695
 30
0.0
 10
-5.30998
 20
-11.20868
 30
0.0
 10
-5.29733
 20
-11.21214
 30
0.0
 10
-5.29228
 20
-11.21924
 30
0.0
 10
-5.29228
 20
-11.21924
 30
0.0
 10
-5.27828
 20
-11.23891
 30
0.0
 10
-5.26759
 20
-11.26092
 30
0.0
 10
-5.25559
 20
-11.282
 30
0.0
 10
-5.25559
 20
-11.282
 30
0.0
 10
-5.27744
 20
-11.28917
 30
0.0
 10
-5.29924
 20
-11.30201
 30
0.0
 10
-5.32115
 20
-11.30222
 30
0.0
 10
-5.32115
 20
-11.30222
 30
0.0
 10
-5.36183
 20
-11.30252
 30
0.0
 10
-5.40251
 20
-11.29469
 30
0.0
 10
-5.4433
 20
-11.29164
 30
0.0
 10
-5.4433
 20
-11.29164
 30
0.0
 10
-5.53012
 20
-11.28521
 30
0.0
 10
-5.55115
 20
-11.25446
 30
0.0
 10
-5.52992
 20
-11.17142
 30
0.0
  0
SPLINE
  5
5F
330
1F
100
AcDbEntity
  8
Layer 1
 62
     5
370
    53
100
AcDbSpline
210
0.0
220
0.0
230
1.0
 70
    11
 71
     3
 72
    36
 73
    32
 74
     0
 42
0.0000000001
 43
0.0000000001
 12
1.0
 22
0.0
 32
0.0
 13
1.0
 23
0.0
 33
0.0
 40
0.0
 40
0.0
 40
0.0
 40
0.0
 40
0.1111111111111111
 40
0.1111111111111111
 40
0.1111111111111111
 40
0.1111111111111111
 40
0.2222222222222222
 40
0.2222222222222222
 40
0.2222222222222222
 40
0.2222222222222222
 40
0.3333333333333333
 40
0.3333333333333333
 40
0.3333333333333333
 40
0.3333333333333333
 40
0.4444444444444444
 40
0.4444444444444444
 40
0.4444444444444444
 40
0.4444444444444444
 40
0.5555555555555556
 40
0.5555555555555556
 40
0.5555555555555556
 40
0.5555555555555556
 40
0.6666666666666666
 40
0.6666666666666666
 40
0.6666666666666666
 40
0.6666666666666666
 40
0.7777777777777778
 40
0.7777777777777778
 40
0.7777777777777778
 40
0.7777777777777778
 40
1.0
 40
1.0
 40
1.0
 40
1.0
 10
-4.53753
 20
-10.8263
 30
0.0
 10
-4.53753
 20
-10.8263
 30
0.0
 10
-4.53753
 20
-10.8263
 30
0.0
 10
-4.53753
 20
-10.8263
 30
0.0
 10
-4.53753
 20
-10.8263
 30
0.0
 10
-4.56457
 20
-10.83069
 30
0.0
 10
-4.5908
 20
-10.83911
 30
0.0
 10
-4.61675
 20
-10.83834
 30
0.0
 10
-4.61675
 20
-10.83834
 30
0.0
 10
-4.68776
 20
-10.8362
 30
0.0
 10
-4.75885
 20
-10.83211
 30
0.0
 10
-4.82951
 20
-10.82465
 30
0.0
 10
-4.82951
 20
-10.82465
 30
0.0
 10
-4.85465
 20
-10.82201
 30
0.0
 10
-4.89935
 20
-10.80754
 30
0.0
 10
-4.8994
 20
-10.79834
 30
0.0
 10
-4.8994
 20
-10.79834
 30
0.0
 10
-4.89951
 20
-10.7617
 30
0.0
 10
-4.89035
 20
-10.72256
 30
0.0
 10
-4.87361
 20
-10.69003
 30
0.0
 10
-4.87361
 20
-10.69003
 30
0.0
 10
-4.86908
 20
-10.68124
 30
0.0
 10
-4.82511
 20
-10.69003
 30
0.0
 10
-4.80012
 20
-10.6952
 30
0.0
 10
-4.80012
 20
-10.6952
 30
0.0
 10
-4.75433
 20
-10.70468
 30
0.0
 10
-4.70797
 20
-10.73023
 30
0.0
 10
-4.66402
 20
-10.72607
 30
0.0
 10
-4.66402
 20
-10.72607
 30
0.0
 10
-4.57748
 20
-10.71791
 30
0.0
 10
-4.56528
 20
-10.72046
 30
0.0
 10
-4.53753
 20
-10.8263
 30
0.0
  0
SPLINE
  5
60
330
1F
100
AcDbEntity
  8
Layer 1
 62
     5
370
    53
100
AcDbSpline
210
0.0
220
0.0
230
1.0
 70
    11
 71
     3
 72
    32
 73
    28
 74
     0
 42
0.0000000001
 43
0.0000000001
 12
1.0
 22
0.0
 32
0.0
 13
1.0
 23
0.0
 33
0.0
 40
0.0
 40
0.0
 40
0.0
 40
0.0
 40
0.125
 40
0.125
 40
0.125
 40
0.125
 40
0.25
 40
0.25
 40
0.25
 40
0.25
 40
0.375
 40
0.375
 40
0.375
 40
0.375
 40
0.5
 40
0.5
 40
0.5
 40
0.5
 40
0.625
 40
0.625
 40
0.625
 40
0.625
 40
0.75
 40
0.75
 40
0.75
 40
0.75
 40
1.0
 40
1.0
 40
1.0
 40
1.0
 10
-7.90166
 20
-10.1413
 30
0.0
 10
-7.90166
 20
-10.1413
 30
0.0
 10
-7.90166
 20
-10.1413
 30
0.0
 10
-7.90166
 20
-10.1413
 30
0.0
 10
-7.90166
 20
-10.1413
 30
0.0
 10
-7.85442
 20
-10.23086
 30
0.0
 10
-7.81151
 20
-10.30829
 30
0.0
 10
-7.77285
 20
-10.3878
 30
0.0
 10
-7.77285
 20
-10.3878
 30
0.0
 10
-7.76042
 20
-10.41335
 30
0.0
 10
-7.75322
 20
-10.44503
 30
0.0
 10
-7.75628
 20
-10.4725
 30
0.0
 10
-7.75628
 20
-10.4725
 30
0.0
 10
-7.75727
 20
-10.48128
 30
0.0
 10
-7.80196
 20
-10.49536
 30
0.0
 10
-7.82143
 20
-10.48955
 30
0.0
 10
-7.82143
 20
-10.48955
 30
0.0
 10
-7.85167
 20
-10.48051
 30
0.0
 10
-7.88807
 20
-10.46278
 30
0.0
 10
-7.90292
 20
-10.43756
 30
0.0
 10
-7.90292
 20
-10.43756
 30
0.0
 10
-7.93324
 20
-10.38607
 30
0.0
 10
-7.95094
 20
-10.3271
 30
0.0
 10
-7.98101
 20
-10.25378
 30
0.0
 10
-7.98101
 20
-10.25378
 30
0.0
 10
-7.96515
 20
-10.23127
 30
0.0
 10
-7.93486
 20
-10.18835
 30
0.0
 10
-7.90166
 20
-10.1413
 30
0.0
  0
SPLINE
  5
61
330
1F
100
AcDbEntity
  8
Layer 1
 62
     5
370
    53
100
AcDbSpline
210
0.0
220
0.0
230
1.0
 70
    11
 71
     3
 72
    24
 73
    20
 74
     0
 42
0.0000000001
 43
0.0000000001
 12
1.0
 22
0.0
 32
0.0
 13
1.0
 23
0.0
 33
0.0
 40
0.0
 40
0.0
 40
0.0
 40
0.0
 40
0.1666666666666667
 40
0.1666666666666667
 40
0.1666666666666667
 40
0.1666666666666667
 40
0.3333333333333333
 40
0.3333333333333333
 40
0.3333333333333333
 40
0.3333333333333333
 40
0.5
 40
0.5
 40
0.5
 40
0.5
 40
0.6666666666666666
 40
0.6666666666666666
 40
0.6666666666666666
 40
0.6666666666666666
 40
1.0
 40
1.0
 40
1.0
 40
1.0
 10
-8.1429
 20
-10.00787
 30
0.0
 10
-8.1429
 20
-10.00787
 30
0.0
 10
-8.1429
 20
-10.00787
 30
0.0
 10
-8.1429
 20
-10.00787
 30
0.0
 10
-8.1429
 20
-10.00787
 30
0.0
 10
-8.14478
 20
-9.89615
 30
0.0
 10
-8.11522
 20
-9.88331
 30
0.0
 10
-8.02367
 20
-9.92362
 30
0.0
 10
-8.02367
 20
-9.92362
 30
0.0
 10
-7.89882
 20
-9.9786
 30
0.0
 10
-7.87631
 20
-10.06609
 30
0.0
 10
-7.96495
 20
-10.16954
 30
0.0
 10
-7.96495
 20
-10.16954
 30
0.0
 10
-7.9772
 20
-10.18385
 30
0.0
 10
-8.02759
 20
-10.18982
 30
0.0
 10
-8.03405
 20
-10.18078
 30
0.0
 10
-8.03405
 20
-10.18078
 30
0.0
 10
-8.07908
 20
-10.11794
 30
0.0
 10
-8.11718
 20
-10.05014
 30
0.0
 10
-8.1429
 20
-10.00787
 30
0.0
  0
SPLINE
  5
62
330
1F
100
AcDbEntity
  8
Layer 1
 62
     5
370
    53
100
AcDbSpline
210
0.0
220
0.0
230
1.0
 70
    11
 71
     3
 72
    32
 73
    28
 74
     0
 42
0.0000000001
 43
0.0000000001
 12
1.0
 22
0.0
 32
0.0
 13
1.0
 23
0.0
 33
0.0
 40
0.0
 40
0.0
 40
0.0
 40
0.0
 40
0.125
 40
0.125
 40
0.125
 40
0.125
 40
0.25
 40
0.25
 40
0.25
 40
0.25
 40
0.375
 40
0.375
 40
0.375
 40
0.375
 40
0.5
 40
0.5
 40
0.5
 40
0.5
 40
0.625
 40
0.625
 40
0.625
 40
0.625
 40
0.75
 40
0.75
 40
0.75
 40
0.75
 40
1.0
 40
1.0
 40
1.0
 40
1.0
 10
-5.55335
 20
-11.16884
 30
0.0
 10
-5.55335
 20
-11.16884
 30
0.0
 10
-5.55335
 20
-11.16884
 30
0.0
 10
-5.55335
 20
-11.16884
 30
0.0
 10
-5.55335
 20
-11.16884
 30
0.0
 10
-5.57491
 20
-11.2095
 30
0.0
 10
-5.58893
 20
-11.25317
 30
0.0
 10
-5.59902
 20
-11.25227
 30
0.0
 10
-5.59902
 20
-11.25227
 30
0.0
 10
-5.68267
 20
-11.24485
 30
0.0
 10
-5.77059
 20
-11.24126
 30
0.0
 10
-5.84627
 20
-11.21
 30
0.0
 10
-5.84627
 20
-11.21
 30
0.0
 10
-5.87616
 20
-11.19764
 30
0.0
 10
-5.87828
 20
-11.11809
 30
0.0
 10
-5.89304
 20
-11.0691
 30
0.0
 10
-5.89304
 20
-11.0691
 30
0.0
 10
-5.8581
 20
-11.06507
 30
0.0
 10
-5.82224
 20
-11.05412
 30
0.0
 10
-5.7884
 20
-11.05859
 30
0.0
 10
-5.7884
 20
-11.05859
 30
0.0
 10
-5.73783
 20
-11.06525
 30
0.0
 10
-5.68643
 20
-11.0775
 30
0.0
 10
-5.63976
 20
-11.09755
 30
0.0
 10
-5.63976
 20
-11.09755
 30
0.0
 10
-5.60843
 20
-11.11101
 30
0.0
 10
-5.58467
 20
-11.14207
 30
0.0
 10
-5.55335
 20
-11.16884
 30
0.0
  0
SPLINE
  5
63
330
1F
100
AcDbEntity
  8
Layer 1
 62
     5
370
    53
100
AcDbSpline
210
0.0
220
0.0
230
1.0
 70
    11
 71
     3
 72
    36
 73
    32
 74
     0
 42
0.0000000001
 43
0.0000000001
 12
1.0
 22
0.0
 32
0.0
 13
1.0
 23
0.0
 33
0.0
 40
0.0
 40
0.0
 40
0.0
 40
0.0
 40
0.1111111111111111
 40
0.1111111111111111
 40
0.1111111111111111
 40
0.1111111111111111
 40
0.2222222222222222
 40
0.2222222222222222
 40
0.2222222222222222
 40
0.2222222222222222
 40
0.3333333333333333
 40
0.3333333333333333
 40
0.3333333333333333
 40
0.3333333333333333
 40
0.4444444444444444
 40
0.4444444444444444
 40
0.4444444444444444
 40
0.4444444444444444
 40
0.5555555555555556
 40
0.5555555555555556
 40
0.5555555555555556
 40
0.5555555555555556
 40
0.6666666666666666
 40
0.6666666666666666
 40
0.6666666666666666
 40
0.6666666666666666
 40
0.7777777777777778
 40
0.7777777777777778
 40
0.7777777777777778
 40
0.7777777777777778
 40
1.0
 40
1.0
 40
1.0
 40
1.0
 10
-4.78227
 20
-9.52751
 30
0.0
 10
-4.78227
 20
-9.52751
 30
0.0
 10
-4.78227
 20
-9.52751
 30
0.0
 10
-4.78227
 20
-9.52751
 30
0.0
 10
-4.78227
 20
-9.52751
 30
0.0
 10
-4.78004
 20
-9.44235
 30
0.0
 10
-4.77108
 20
-9.43597
 30
0.0
 10
-4.69048
 20
-9.44677
 30
0.0
 10
-4.69048
 20
-9.44677
 30
0.0
 10
-4.59918
 20
-9.45899
 30
0.0
 10
-4.50731
 20
-9.46729
 30
0.0
 10
-4.41627
 20
-9.48111
 30
0.0
 10
-4.41627
 20
-9.48111
 30
0.0
 10
-4.39799
 20
-9.48387
 30
0.0
 10
-4.37032
 20
-9.50207
 30
0.0
 10
-4.36849
 20
-9.51594
 30
0.0
 10
-4.36849
 20
-9.51594
 30
0.0
 10
-4.36631
 20
-9.53234
 30
0.0
 10
-4.38371
 20
-9.56201
 30
0.0
 10
-4.39941
 20
-9.56795
 30
0.0
 10
-4.39941
 20
-9.56795
 30
0.0
 10
-4.43919
 20
-9.58299
 30
0.0
 10
-4.48242
 20
-9.59281
 30
0.0
 10
-4.52489
 20
-9.59583
 30
0.0
 10
-4.52489
 20
-9.59583
 30
0.0
 10
-4.58566
 20
-9.60014
 30
0.0
 10
-4.6472
 20
-9.59335
 30
0.0
 10
-4.70805
 20
-9.59723
 30
0.0
 10
-4.70805
 20
-9.59723
 30
0.0
 10
-4.76536
 20
-9.60092
 30
0.0
 10
-4.79148
 20
-9.58144
 30
0.0
 10
-4.78227
 20
-9.52751
 30
0.0
  0
SPLINE
  5
64
330
1F
100
AcDbEntity
  8
Layer 1
 62
     5
370
    53
100
AcDbSpline
210
0.0
220
0.0
230
1.0
 70
    11
 71
     3
 72
    40
 73
    36
 74
     0
 42
0.0000000001
 43
0.0000000001
 12
1.0
 22
0.0
 32
0.0
 13
1.0
 23
0.0
 33
0.0
 40
0.0
 40
0.0
 40
0.0
 40
0.0
 40
0.1
 40
0.1
 40
0.1
 40
0.1
 40
0.2
 40
0.2
 40
0.2
 40
0.2
 40
0.3
 40
0.3
 40
0.3
 40
0.3
 40
0.4
 40
0.4
 40
0.4
 40
0.4
 40
0.5
 40
0.5
 40
0.5
 40
0.5
 40
0.6
 40
0.6
 40
0.6
 40
0.6
 40
0.7
 40
0.7
 40
0.7
 40
0.7
 40
0.8
 40
0.8
 40
0.8
 40
0.8
 40
1.0
 40
1.0
 40
1.0
 40
1.0
 10
-4.54319
 20
-10.25192
 30
0.0
 10
-4.54319
 20
-10.25192
 30
0.0
 10
-4.54319
 20
-10.25192
 30
0.0
 10
-4.54319
 20
-10.25192
 30
0.0
 10
-4.54319
 20
-10.25192
 30
0.0
 10
-4.54663
 20
-10.24271
 30
0.0
 10
-4.56283
 20
-10.21703
 30
0.0
 10
-4.56441
 20
-10.1905
 30
0.0
 10
-4.56441
 20
-10.1905
 30
0.0
 10
-4.56642
 20
-10.15768
 30
0.0
 10
-4.56674
 20
-10.11523
 30
0.0
 10
-4.54826
 20
-10.09361
 30
0.0
 10
-4.54826
 20
-10.09361
 30
0.0
 10
-4.53197
 20
-10.07451
 30
0.0
 10
-4.47935
 20
-10.06257
 30
0.0
 10
-4.45929
 20
-10.07471
 30
0.0
 10
-4.45929
 20
-10.07471
 30
0.0
 10
-4.38151
 20
-10.12184
 30
0.0
 10
-4.29817
 20
-10.13254
 30
0.0
 10
-4.21122
 20
-10.14306
 30
0.0
 10
-4.21122
 20
-10.14306
 30
0.0
 10
-4.18517
 20
-10.14621
 30
0.0
 10
-4.16393
 20
-10.18931
 30
0.0
 10
-4.1405
 20
-10.21414
 30
0.0
 10
-4.1405
 20
-10.21414
 30
0.0
 10
-4.16825
 20
-10.2315
 30
0.0
 10
-4.19431
 20
-10.25344
 30
0.0
 10
-4.22437
 20
-10.26465
 30
0.0
 10
-4.22437
 20
-10.26465
 30
0.0
 10
-4.24424
 20
-10.2721
 30
0.0
 10
-4.26985
 20
-10.26408
 30
0.0
 10
-4.2929
 20
-10.26305
 30
0.0
 10
-4.2929
 20
-10.26305
 30
0.0
 10
-4.37298
 20
-10.25948
 30
0.0
 10
-4.45308
 20
-10.25592
 30
0.0
 10
-4.54319
 20
-10.25192
 30
0.0
  0
SPLINE
  5
65
330
1F
100
AcDbEntity
  8
Layer 1
 62
     5
370
    53
100
AcDbSpline
210
0.0
220
0.0
230
1.0
 70
    11
 71
     3
 72
    36
 73
    32
 74
     0
 42
0.0000000001
 43
0.0000000001
 12
1.0
 22
0.0
 32
0.0
 13
1.0
 23
0.0
 33
0.0
 40
0.0
 40
0.0
 40
0.0
 40
0.0
 40
0.1111111111111111
 40
0.1111111111111111
 40
0.1111111111111111
 40
0.1111111111111111
 40
0.2222222222222222
 40
0.2222222222222222
 40
0.2222222222222222
 40
0.2222222222222222
 40
0.3333333333333333
 40
0.3333333333333333
 40
0.3333333333333333
 40
0.3333333333333333
 40
0.4444444444444444
 40
0.4444444444444444
 40
0.4444444444444444
 40
0.4444444444444444
 40
0.5555555555555556
 40
0.5555555555555556
 40
0.5555555555555556
 40
0.5555555555555556
 40
0.6666666666666666
 40
0.6666666666666666
 40
0.6666666666666666
 40
0.6666666666666666
 40
0.7777777777777778
 40
0.7777777777777778
 40
0.7777777777777778
 40
0.7777777777777778
 40
1.0
 40
1.0
 40
1.0
 40
1.0
 10
-5.29238
 20
-9.45059
 30
0.0
 10
-5.29238
 20
-9.45059
 30
0.0
 10
-5.29238
 20
-9.45059
 30
0.0
 10
-5.29238
 20
-9.45059
 30
0.0
 10
-5.29238
 20
-9.45059
 30
0.0
 10
-5.16049
 20
-9.45059
 30
0.0
 10
-5.04119
 20
-9.44933
 30
0.0
 10
-4.92197
 20
-9.45147
 30
0.0
 10
-4.92197
 20
-9.45147
 30
0.0
 10
-4.89202
 20
-9.45201
 30
0.0
 10
-4.84961
 20
-9.45406
 30
0.0
 10
-4.83574
 20
-9.47255
 30
0.0
 10
-4.83574
 20
-9.47255
 30
0.0
 10
-4.81976
 20
-9.49379
 30
0.0
 10
-4.81736
 20
-9.54137
 30
0.0
 10
-4.83125
 20
-9.56377
 30
0.0
 10
-4.83125
 20
-9.56377
 30
0.0
 10
-4.84226
 20
-9.58149
 30
0.0
 10
-4.88858
 20
-9.58813
 30
0.0
 10
-4.916
 20
-9.58289
 30
0.0
 10
-4.916
 20
-9.58289
 30
0.0
 10
-5.00999
 20
-9.56493
 30
0.0
 10
-5.09921
 20
-9.56599
 30
0.0
 10
-5.18589
 20
-9.61253
 30
0.0
 10
-5.18589
 20
-9.61253
 30
0.0
 10
-5.20886
 20
-9.62485
 30
0.0
 10
-5.23741
 20
-9.62678
 30
0.0
 10
-5.27077
 20
-9.63542
 30
0.0
 10
-5.27077
 20
-9.63542
 30
0.0
 10
-5.27871
 20
-9.56756
 30
0.0
 10
-5.28545
 20
-9.51005
 30
0.0
 10
-5.29238
 20
-9.45059
 30
0.0
  0
SPLINE
  5
66
330
1F
100
AcDbEntity
  8
Layer 1
 62
     5
370
    53
100
AcDbSpline
210
0.0
220
0.0
230
1.0
 70
    11
 71
     3
 72
    32
 73
    28
 74
     0
 42
0.0000000001
 43
0.0000000001
 12
1.0
 22
0.0
 32
0.0
 13
1.0
 23
0.0
 33
0.0
 40
0.0
 40
0.0
 40
0.0
 40
0.0
 40
0.125
 40
0.125
 40
0.125
 40
0.125
 40
0.25
 40
0.25
 40
0.25
 40
0.25
 40
0.375
 40
0.375
 40
0.375
 40
0.375
 40
0.5
 40
0.5
 40
0.5
 40
0.5
 40
0.625
 40
0.625
 40
0.625
 40
0.625
 40
0.75
 40
0.75
 40
0.75
 40
0.75
 40
1.0
 40
1.0
 40
1.0
 40
1.0
 10
-5.71556
 20
-8.64623
 30
0.0
 10
-5.71556
 20
-8.64623
 30
0.0
 10
-5.71556
 20
-8.64623
 30
0.0
 10
-5.71556
 20
-8.64623
 30
0.0
 10
-5.71556
 20
-8.64623
 30
0.0
 10
-5.73636
 20
-8.68015
 30
0.0
 10
-5.7427
 20
-8.70335
 30
0.0
 10
-5.75777
 20
-8.71299
 30
0.0
 10
-5.75777
 20
-8.71299
 30
0.0
 10
-5.85515
 20
-8.77539
 30
0.0
 10
-5.9508
 20
-8.84239
 30
0.0
 10
-6.05465
 20
-8.89195
 30
0.0
 10
-6.05465
 20
-8.89195
 30
0.0
 10
-6.10655
 20
-8.91675
 30
0.0
 10
-6.14072
 20
-8.86313
 30
0.0
 10
-6.15906
 20
-8.81435
 30
0.0
 10
-6.15906
 20
-8.81435
 30
0.0
 10
-6.17659
 20
-8.76769
 30
0.0
 10
-6.17583
 20
-8.72516
 30
0.0
 10
-6.11852
 20
-8.70953
 30
0.0
 10
-6.11852
 20
-8.70953
 30
0.0
 10
-6.01663
 20
-8.6817
 30
0.0
 10
-5.9143
 20
-8.65522
 30
0.0
 10
-5.81112
 20
-8.63264
 30
0.0
 10
-5.81112
 20
-8.63264
 30
0.0
 10
-5.78655
 20
-8.62724
 30
0.0
 10
-5.75807
 20
-8.63956
 30
0.0
 10
-5.71556
 20
-8.64623
 30
0.0
  0
SPLINE
  5
67
330
1F
100
AcDbEntity
  8
Layer 1
 62
     5
370
    53
100
AcDbSpline
210
0.0
220
0.0
230
1.0
 70
    11
 71
     3
 72
    32
 73
    28
 74
     0
 42
0.0000000001
 43
0.0000000001
 12
1.0
 22
0.0
 32
0.0
 13
1.0
 23
0.0
 33
0.0
 40
0.0
 40
0.0
 40
0.0
 40
0.0
 40
0.125
 40
0.125
 40
0.125
 40
0.125
 40
0.25
 40
0.25
 40
0.25
 40
0.25
 40
0.375
 40
0.375
 40
0.375
 40
0.375
 40
0.5
 40
0.5
 40
0.5
 40
0.5
 40
0.625
 40
0.625
 40
0.625
 40
0.625
 40
0.75
 40
0.75
 40
0.75
 40
0.75
 40
1.0
 40
1.0
 40
1.0
 40
1.0
 10
-5.43865
 20
-10.57043
 30
0.0
 10
-5.43865
 20
-10.57043
 30
0.0
 10
-5.43865
 20
-10.57043
 30
0.0
 10
-5.43865
 20
-10.57043
 30
0.0
 10
-5.43865
 20
-10.57043
 30
0.0
 10
-5.28223
 20
-10.59151
 30
0.0
 10
-5.14547
 20
-10.6127
 30
0.0
 10
-5.00801
 20
-10.62755
 30
0.0
 10
-5.00801
 20
-10.62755
 30
0.0
 10
-4.90514
 20
-10.63866
 30
0.0
 10
-4.90439
 20
-10.64009
 30
0.0
 10
-4.9235
 20
-10.73814
 30
0.0
 10
-4.9235
 20
-10.73814
 30
0.0
 10
-4.9385
 20
-10.81503
 30
0.0
 10
-4.98947
 20
-10.80051
 30
0.0
 10
-5.03502
 20
-10.78814
 30
0.0
 10
-5.03502
 20
-10.78814
 30
0.0
 10
-5.15195
 20
-10.7564
 30
0.0
 10
-5.26617
 20
-10.71581
 30
0.0
 10
-5.39157
 20
-10.74271
 30
0.0
 10
-5.39157
 20
-10.74271
 30
0.0
 10
-5.40782
 20
-10.7462
 30
0.0
 10
-5.44807
 20
-10.71143
 30
0.0
 10
-5.4503
 20
-10.69139
 30
0.0
 10
-5.4503
 20
-10.69139
 30
0.0
 10
-5.45511
 20
-10.64783
 30
0.0
 10
-5.44254
 20
-10.60238
 30
0.0
 10
-5.43865
 20
-10.57043
 30
0.0
  0
SPLINE
  5
68
330
1F
100
AcDbEntity
  8
Layer 1
 62
     5
370
    53
100
AcDbSpline
210
0.0
220
0.0
230
1.0
 70
    11
 71
     3
 72
    36
 73
    32
 74
     0
 42
0.0000000001
 43
0.0000000001
 12
1.0
 22
0.0
 32
0.0
 13
1.0
 23
0.0
 33
0.0
 40
0.0
 40
0.0
 40
0.0
 40
0.0
 40
0.1111111111111111
 40
0.1111111111111111
 40
0.1111111111111111
 40
0.1111111111111111
 40
0.2222222222222222
 40
0.2222222222222222
 40
0.2222222222222222
 40
0.2222222222222222
 40
0.3333333333333333
 40
0.3333333333333333
 40
0.3333333333333333
 40
0.3333333333333333
 40
0.4444444444444444
 40
0.4444444444444444
 40
0.4444444444444444
 40
0.4444444444444444
 40
0.5555555555555556
 40
0.5555555555555556
 40
0.5555555555555556
 40
0.5555555555555556
 40
0.6666666666666666
 40
0.6666666666666666
 40
0.6666666666666666
 40
0.6666666666666666
 40
0.7777777777777778
 40
0.7777777777777778
 40
0.7777777777777778
 40
0.7777777777777778
 40
1.0
 40
1.0
 40
1.0
 40
1.0
 10
-7.83522
 20
-10.1629
 30
0.0
 10
-7.83522
 20
-10.1629
 30
0.0
 10
-7.83522
 20
-10.1629
 30
0.0
 10
-7.83522
 20
-10.1629
 30
0.0
 10
-7.83522
 20
-10.1629
 30
0.0
 10
-7.83477
 20
-10.07786
 30
0.0
 10
-7.7863
 20
-10.0579
 30
0.0
 10
-7.72983
 20
-10.07453
 30
0.0
 10
-7.72983
 20
-10.07453
 30
0.0
 10
-7.6626
 20
-10.09436
 30
0.0
 10
-7.60259
 20
-10.13779
 30
0.0
 10
-7.53593
 20
-10.16081
 30
0.0
 10
-7.53593
 20
-10.16081
 30
0.0
 10
-7.45668
 20
-10.1882
 30
0.0
 10
-7.46292
 20
-10.24308
 30
0.0
 10
-7.47817
 20
-10.30315
 30
0.0
 10
-7.47817
 20
-10.30315
 30
0.0
 10
-7.48501
 20
-10.33021
 30
0.0
 10
-7.49784
 20
-10.35612
 30
0.0
 10
-7.51068
 20
-10.38116
 30
0.0
 10
-7.51068
 20
-10.38116
 30
0.0
 10
-7.5663
 20
-10.48963
 30
0.0
 10
-7.64162
 20
-10.49394
 30
0.0
 10
-7.70768
 20
-10.3934
 30
0.0
 10
-7.70768
 20
-10.3934
 30
0.0
 10
-7.71612
 20
-10.38056
 30
0.0
 10
-7.72763
 20
-10.3695
 30
0.0
 10
-7.73478
 20
-10.35604
 30
0.0
 10
-7.73478
 20
-10.35604
 30
0.0
 10
-7.76881
 20
-10.29197
 30
0.0
 10
-7.80182
 20
-10.22735
 30
0.0
 10
-7.83522
 20
-10.1629
 30
0.0
  0
SPLINE
  5
69
330
1F
100
AcDbEntity
  8
Layer 1
 62
     5
370
    53
100
AcDbSpline
210
0.0
220
0.0
230
1.0
 70
    11
 71
     3
 72
    40
 73
    36
 74
     0
 42
0.0000000001
 43
0.0000000001
 12
1.0
 22
0.0
 32
0.0
 13
1.0
 23
0.0
 33
0.0
 40
0.0
 40
0.0
 40
0.0
 40
0.0
 40
0.1
 40
0.1
 40
0.1
 40
0.1
 40
0.2
 40
0.2
 40
0.2
 40
0.2
 40
0.3
 40
0.3
 40
0.3
 40
0.3
 40
0.4
 40
0.4
 40
0.4
 40
0.4
 40
0.5
 40
0.5
 40
0.5
 40
0.5
 40
0.6
 40
0.6
 40
0.6
 40
0.6
 40
0.7
 40
0.7
 40
0.7
 40
0.7
 40
0.8
 40
0.8
 40
0.8
 40
0.8
 40
1.0
 40
1.0
 40
1.0
 40
1.0
 10
-6.49721
 20
-10.76297
 30
0.0
 10
-6.49721
 20
-10.76297
 30
0.0
 10
-6.49721
 20
-10.76297
 30
0.0
 10
-6.49721
 20
-10.76297
 30
0.0
 10
-6.49721
 20
-10.76297
 30
0.0
 10
-6.46889
 20
-10.77702
 30
0.0
 10
-6.44915
 20
-10.78343
 30
0.0
 10
-6.43343
 20
-10.79519
 30
0.0
 10
-6.43343
 20
-10.79519
 30
0.0
 10
-6.31825
 20
-10.88131
 30
0.0
 10
-6.19055
 20
-10.93913
 30
0.0
 10
-6.05073
 20
-10.97221
 30
0.0
 10
-6.05073
 20
-10.97221
 30
0.0
 10
-6.02112
 20
-10.97921
 30
0.0
 10
-5.99042
 20
-10.99019
 30
0.0
 10
-5.9657
 20
-11.00727
 30
0.0
 10
-5.9657
 20
-11.00727
 30
0.0
 10
-5.91715
 20
-11.04086
 30
0.0
 10
-5.89953
 20
-11.09306
 30
0.0
 10
-5.93374
 20
-11.14078
 30
0.0
 10
-5.93374
 20
-11.14078
 30
0.0
 10
-5.94527
 20
-11.15687
 30
0.0
 10
-6.00385
 20
-11.15527
 30
0.0
 10
-6.03074
 20
-11.14168
 30
0.0
 10
-6.03074
 20
-11.14168
 30
0.0
 10
-6.17197
 20
-11.07018
 30
0.0
 10
-6.31698
 20
-11.0159
 30
0.0
 10
-6.47573
 20
-10.99769
 30
0.0
 10
-6.47573
 20
-10.99769
 30
0.0
 10
-6.49962
 20
-10.99497
 30
0.0
 10
-6.53792
 20
-10.95293
 30
0.0
 10
-6.53693
 20
-10.9305
 30
0.0
 10
-6.53693
 20
-10.9305
 30
0.0
 10
-6.53456
 20
-10.87643
 30
0.0
 10
-6.51285
 20
-10.8232
 30
0.0
 10
-6.49721
 20
-10.76297
 30
0.0
  0
SPLINE
  5
6A
330
1F
100
AcDbEntity
  8
Layer 1
 62
     5
370
    53
100
AcDbSpline
210
0.0
220
0.0
230
1.0
 70
    11
 71
     3
 72
    44
 73
    40
 74
     0
 42
0.0000000001
 43
0.0000000001
 12
1.0
 22
0.0
 32
0.0
 13
1.0
 23
0.0
 33
0.0
 40
0.0
 40
0.0
 40
0.0
 40
0.0
 40
0.0909090909090909
 40
0.0909090909090909
 40
0.0909090909090909
 40
0.0909090909090909
 40
0.1818181818181818
 40
0.1818181818181818
 40
0.1818181818181818
 40
0.1818181818181818
 40
0.2727272727272727
 40
0.2727272727272727
 40
0.2727272727272727
 40
0.2727272727272727
 40
0.3636363636363636
 40
0.3636363636363636
 40
0.3636363636363636
 40
0.3636363636363636
 40
0.4545454545454545
 40
0.4545454545454545
 40
0.4545454545454545
 40
0.4545454545454545
 40
0.5454545454545454
 40
0.5454545454545454
 40
0.5454545454545454
 40
0.5454545454545454
 40
0.6363636363636364
 40
0.6363636363636364
 40
0.6363636363636364
 40
0.6363636363636364
 40
0.7272727272727273
 40
0.7272727272727273
 40
0.7272727272727273
 40
0.7272727272727273
 40
0.8181818181818182
 40
0.8181818181818182
 40
0.8181818181818182
 40
0.8181818181818182
 40
1.0
 40
1.0
 40
1.0
 40
1.0
 10
-6.15144
 20
-8.94602
 30
0.0
 10
-6.15144
 20
-8.94602
 30
0.0
 10
-6.15144
 20
-8.94602
 30
0.0
 10
-6.15144
 20
-8.94602
 30
0.0
 10
-6.15144
 20
-8.94602
 30
0.0
 10
-6.18649
 20
-8.9538
 30
0.0
 10
-6.21526
 20
-8.96561
 30
0.0
 10
-6.24407
 20
-8.96566
 30
0.0
 10
-6.24407
 20
-8.96566
 30
0.0
 10
-6.37103
 20
-8.96592
 30
0.0
 10
-6.4952
 20
-8.96998
 30
0.0
 10
-6.60186
 20
-9.05548
 30
0.0
 10
-6.60186
 20
-9.05548
 30
0.0
 10
-6.62297
 20
-9.0724
 30
0.0
 10
-6.66005
 20
-9.07426
 30
0.0
 10
-6.6897
 20
-9.07413
 30
0.0
 10
-6.6897
 20
-9.07413
 30
0.0
 10
-6.70997
 20
-9.07403
 30
0.0
 10
-6.73814
 20
-9.06406
 30
0.0
 10
-6.74889
 20
-9.04878
 30
0.0
 10
-6.74889
 20
-9.04878
 30
0.0
 10
-6.78215
 20
-9.0014
 30
0.0
 10
-6.80876
 20
-8.94933
 30
0.0
 10
-6.83858
 20
-8.89805
 30
0.0
 10
-6.83858
 20
-8.89805
 30
0.0
 10
-6.82691
 20
-8.89043
 30
0.0
 10
-6.81855
 20
-8.88032
 30
0.0
 10
-6.8099
 20
-8.88006
 30
0.0
 10
-6.8099
 20
-8.88006
 30
0.0
 10
-6.62802
 20
-8.87443
 30
0.0
 10
-6.45274
 20
-8.84027
 30
0.0
 10
-6.28317
 20
-8.77219
 30
0.0
 10
-6.28317
 20
-8.77219
 30
0.0
 10
-6.26351
 20
-8.76431
 30
0.0
 10
-6.21731
 20
-8.78676
 30
0.0
 10
-6.20339
 20
-8.80813
 30
0.0
 10
-6.20339
 20
-8.80813
 30
0.0
 10
-6.17906
 20
-8.84554
 30
0.0
 10
-6.17022
 20
-8.89306
 30
0.0
 10
-6.15144
 20
-8.94602
 30
0.0
  0
SPLINE
  5
6B
330
1F
100
AcDbEntity
  8
Layer 1
 62
     5
370
    53
100
AcDbSpline
210
0.0
220
0.0
230
1.0
 70
    11
 71
     3
 72
    40
 73
    36
 74
     0
 42
0.0000000001
 43
0.0000000001
 12
1.0
 22
0.0
 32
0.0
 13
1.0
 23
0.0
 33
0.0
 40
0.0
 40
0.0
 40
0.0
 40
0.0
 40
0.1
 40
0.1
 40
0.1
 40
0.1
 40
0.2
 40
0.2
 40
0.2
 40
0.2
 40
0.3
 40
0.3
 40
0.3
 40
0.3
 40
0.4
 40
0.4
 40
0.4
 40
0.4
 40
0.5
 40
0.5
 40
0.5
 40
0.5
 40
0.6
 40
0.6
 40
0.6
 40
0.6
 40
0.7
 40
0.7
 40
0.7
 40
0.7
 40
0.8
 40
0.8
 40
0.8
 40
0.8
 40
1.0
 40
1.0
 40
1.0
 40
1.0
 10
-4.56362
 20
-10.25605
 30
0.0
 10
-4.56362
 20
-10.25605
 30
0.0
 10
-4.56362
 20
-10.25605
 30
0.0
 10
-4.56362
 20
-10.25605
 30
0.0
 10
-4.56362
 20
-10.25605
 30
0.0
 10
-4.58468
 20
-10.2629
 30
0.0
 10
-4.59174
 20
-10.26646
 30
0.0
 10
-4.59908
 20
-10.26724
 30
0.0
 10
-4.59908
 20
-10.26724
 30
0.0
 10
-4.60928
 20
-10.26832
 30
0.0
 10
-4.6205
 20
-10.26982
 30
0.0
 10
-4.62993
 20
-10.26682
 30
0.0
 10
-4.62993
 20
-10.26682
 30
0.0
 10
-4.796
 20
-10.21383
 30
0.0
 10
-4.96478
 20
-10.18939
 30
0.0
 10
-5.13994
 20
-10.20393
 30
0.0
 10
-5.13994
 20
-10.20393
 30
0.0
 10
-5.16226
 20
-10.20579
 30
0.0
 10
-5.20227
 20
-10.16621
 30
0.0
 10
-5.21025
 20
-10.13885
 30
0.0
 10
-5.21025
 20
-10.13885
 30
0.0
 10
-5.24085
 20
-10.0343
 30
0.0
 10
-5.15239
 20
-9.95749
 30
0.0
 10
-5.04122
 20
-10.00234
 30
0.0
 10
-5.04122
 20
-10.00234
 30
0.0
 10
-4.9062
 20
-10.05683
 30
0.0
 10
-4.77214
 20
-10.06632
 30
0.0
 10
-4.63165
 20
-10.04593
 30
0.0
 10
-4.63165
 20
-10.04593
 30
0.0
 10
-4.61169
 20
-10.04301
 30
0.0
 10
-4.5901
 20
-10.05151
 30
0.0
 10
-4.55369
 20
-10.05715
 30
0.0
 10
-4.55369
 20
-10.05715
 30
0.0
 10
-4.634
 20
-10.12644
 30
0.0
 10
-4.61726
 20
-10.1892
 30
0.0
 10
-4.56362
 20
-10.25605
 30
0.0
  0
SPLINE
  5
6C
330
1F
100
AcDbEntity
  8
Layer 1
 62
     5
370
    53
100
AcDbSpline
210
0.0
220
0.0
230
1.0
 70
    11
 71
     3
 72
    52
 73
    48
 74
     0
 42
0.0000000001
 43
0.0000000001
 12
1.0
 22
0.0
 32
0.0
 13
1.0
 23
0.0
 33
0.0
 40
0.0
 40
0.0
 40
0.0
 40
0.0
 40
0.0769230769230769
 40
0.0769230769230769
 40
0.0769230769230769
 40
0.0769230769230769
 40
0.1538461538461539
 40
0.1538461538461539
 40
0.1538461538461539
 40
0.1538461538461539
 40
0.2307692307692308
 40
0.2307692307692308
 40
0.2307692307692308
 40
0.2307692307692308
 40
0.3076923076923077
 40
0.3076923076923077
 40
0.3076923076923077
 40
0.3076923076923077
 40
0.3846153846153846
 40
0.3846153846153846
 40
0.3846153846153846
 40
0.3846153846153846
 40
0.4615384615384616
 40
0.4615384615384616
 40
0.4615384615384616
 40
0.4615384615384616
 40
0.5384615384615384
 40
0.5384615384615384
 40
0.5384615384615384
 40
0.5384615384615384
 40
0.6153846153846154
 40
0.6153846153846154
 40
0.6153846153846154
 40
0.6153846153846154
 40
0.6923076923076923
 40
0.6923076923076923
 40
0.6923076923076923
 40
0.6923076923076923
 40
0.7692307692307693
 40
0.7692307692307693
 40
0.7692307692307693
 40
0.7692307692307693
 40
0.8461538461538461
 40
0.8461538461538461
 40
0.8461538461538461
 40
0.8461538461538461
 40
1.0
 40
1.0
 40
1.0
 40
1.0
 10
-5.47913
 20
-9.4355
 30
0.0
 10
-5.47913
 20
-9.4355
 30
0.0
 10
-5.47913
 20
-9.4355
 30
0.0
 10
-5.47913
 20
-9.4355
 30
0.0
 10
-5.47913
 20
-9.4355
 30
0.0
 10
-5.46069
 20
-9.4355
 30
0.0
 10
-5.44497
 20
-9.43372
 30
0.0
 10
-5.42981
 20
-9.43584
 30
0.0
 10
-5.42981
 20
-9.43584
 30
0.0
 10
-5.37258
 20
-9.4439
 30
0.0
 10
-5.30646
 20
-9.52274
 30
0.0
 10
-5.31662
 20
-9.57338
 30
0.0
 10
-5.31662
 20
-9.57338
 30
0.0
 10
-5.33335
 20
-9.65684
 30
0.0
 10
-5.39245
 20
-9.62376
 30
0.0
 10
-5.44457
 20
-9.62087
 30
0.0
 10
-5.44457
 20
-9.62087
 30
0.0
 10
-5.55199
 20
-9.61484
 30
0.0
 10
-5.66037
 20
-9.60749
 30
0.0
 10
-5.76721
 20
-9.6156
 30
0.0
 10
-5.76721
 20
-9.6156
 30
0.0
 10
-5.85348
 20
-9.62213
 30
0.0
 10
-5.93805
 20
-9.65087
 30
0.0
 10
-6.02348
 20
-9.66908
 30
0.0
 10
-6.02348
 20
-9.66908
 30
0.0
 10
-6.10551
 20
-9.68657
 30
0.0
 10
-6.12977
 20
-9.65963
 30
0.0
 10
-6.10746
 20
-9.58077
 30
0.0
 10
-6.10746
 20
-9.58077
 30
0.0
 10
-6.10246
 20
-9.56315
 30
0.0
 10
-6.1091
 20
-9.54221
 30
0.0
 10
-6.11051
 20
-9.52284
 30
0.0
 10
-6.11051
 20
-9.52284
 30
0.0
 10
-6.11236
 20
-9.49682
 30
0.0
 10
-6.12536
 20
-9.45806
 30
0.0
 10
-6.11357
 20
-9.44788
 30
0.0
 10
-6.11357
 20
-9.44788
 30
0.0
 10
-6.09686
 20
-9.43344
 30
0.0
 10
-6.06161
 20
-9.43607
 30
0.0
 10
-6.03485
 20
-9.43827
 30
0.0
 10
-6.03485
 20
-9.43827
 30
0.0
 10
-5.94043
 20
-9.44602
 30
0.0
 10
-5.84621
 20
-9.46439
 30
0.0
 10
-5.75197
 20
-9.46408
 30
0.0
 10
-5.75197
 20
-9.46408
 30
0.0
 10
-5.65997
 20
-9.46377
 30
0.0
 10
-5.56805
 20
-9.44553
 30
0.0
 10
-5.47913
 20
-9.4355
 30
0.0
  0
SPLINE
  5
6D
330
1F
100
AcDbEntity
  8
Layer 1
 62
     5
370
    53
100
AcDbSpline
210
0.0
220
0.0
230
1.0
 70
    11
 71
     3
 72
    52
 73
    48
 74
     0
 42
0.0000000001
 43
0.0000000001
 12
1.0
 22
0.0
 32
0.0
 13
1.0
 23
0.0
 33
0.0
 40
0.0
 40
0.0
 40
0.0
 40
0.0
 40
0.0769230769230769
 40
0.0769230769230769
 40
0.0769230769230769
 40
0.0769230769230769
 40
0.1538461538461539
 40
0.1538461538461539
 40
0.1538461538461539
 40
0.1538461538461539
 40
0.2307692307692308
 40
0.2307692307692308
 40
0.2307692307692308
 40
0.2307692307692308
 40
0.3076923076923077
 40
0.3076923076923077
 40
0.3076923076923077
 40
0.3076923076923077
 40
0.3846153846153846
 40
0.3846153846153846
 40
0.3846153846153846
 40
0.3846153846153846
 40
0.4615384615384616
 40
0.4615384615384616
 40
0.4615384615384616
 40
0.4615384615384616
 40
0.5384615384615384
 40
0.5384615384615384
 40
0.5384615384615384
 40
0.5384615384615384
 40
0.6153846153846154
 40
0.6153846153846154
 40
0.6153846153846154
 40
0.6153846153846154
 40
0.6923076923076923
 40
0.6923076923076923
 40
0.6923076923076923
 40
0.6923076923076923
 40
0.7692307692307693
 40
0.7692307692307693
 40
0.7692307692307693
 40
0.7692307692307693
 40
0.8461538461538461
 40
0.8461538461538461
 40
0.8461538461538461
 40
0.8461538461538461
 40
1.0
 40
1.0
 40
1.0
 40
1.0
 10
-7.46863
 20
-10.13758
 30
0.0
 10
-7.46863
 20
-10.13758
 30
0.0
 10
-7.46863
 20
-10.13758
 30
0.0
 10
-7.46863
 20
-10.13758
 30
0.0
 10
-7.46863
 20
-10.13758
 30
0.0
 10
-7.47113
 20
-10.13864
 30
0.0
 10
-7.47398
 20
-10.14107
 30
0.0
 10
-7.47578
 20
-10.14047
 30
0.0
 10
-7.47578
 20
-10.14047
 30
0.0
 10
-7.59863
 20
-10.09867
 30
0.0
 10
-7.71084
 20
-10.02239
 30
0.0
 10
-7.84768
 20
-10.02575
 30
0.0
 10
-7.84768
 20
-10.02575
 30
0.0
 10
-7.8494
 20
-10.02578
 30
0.0
 10
-7.85104
 20
-10.02203
 30
0.0
 10
-7.85295
 20
-10.02032
 30
0.0
 10
-7.85295
 20
-10.02032
 30
0.0
 10
-7.90853
 20
-9.9701
 30
0.0
 10
-7.91097
 20
-9.90875
 30
0.0
 10
-7.87035
 20
-9.83052
 30
0.0
 10
-7.87035
 20
-9.83052
 30
0.0
 10
-7.83268
 20
-9.75797
 30
0.0
 10
-7.77952
 20
-9.76895
 30
0.0
 10
-7.72018
 20
-9.79142
 30
0.0
 10
-7.72018
 20
-9.79142
 30
0.0
 10
-7.70684
 20
-9.79649
 30
0.0
 10
-7.69289
 20
-9.79988
 30
0.0
 10
-7.70033
 20
-9.79763
 30
0.0
 10
-7.70033
 20
-9.79763
 30
0.0
 10
-7.68467
 20
-9.73629
 30
0.0
 10
-7.67267
 20
-9.6803
 30
0.0
 10
-7.65578
 20
-9.62583
 30
0.0
 10
-7.65578
 20
-9.62583
 30
0.0
 10
-7.63811
 20
-9.56876
 30
0.0
 10
-7.58807
 20
-9.55689
 30
0.0
 10
-7.54499
 20
-9.59671
 30
0.0
 10
-7.54499
 20
-9.59671
 30
0.0
 10
-7.48388
 20
-9.65317
 30
0.0
 10
-7.51631
 20
-9.80442
 30
0.0
 10
-7.59743
 20
-9.83042
 30
0.0
 10
-7.59743
 20
-9.83042
 30
0.0
 10
-7.54436
 20
-9.84644
 30
0.0
 10
-7.47342
 20
-9.83739
 30
0.0
 10
-7.46941
 20
-9.91695
 30
0.0
 10
-7.46941
 20
-9.91695
 30
0.0
 10
-7.46578
 20
-9.98826
 30
0.0
 10
-7.46863
 20
-10.05989
 30
0.0
 10
-7.46863
 20
-10.13758
 30
0.0
  0
SPLINE
  5
6E
330
1F
100
AcDbEntity
  8
Layer 1
 62
     5
370
    53
100
AcDbSpline
210
0.0
220
0.0
230
1.0
 70
    11
 71
     3
 72
    44
 73
    40
 74
     0
 42
0.0000000001
 43
0.0000000001
 12
1.0
 22
0.0
 32
0.0
 13
1.0
 23
0.0
 33
0.0
 40
0.0
 40
0.0
 40
0.0
 40
0.0
 40
0.0909090909090909
 40
0.0909090909090909
 40
0.0909090909090909
 40
0.0909090909090909
 40
0.1818181818181818
 40
0.1818181818181818
 40
0.1818181818181818
 40
0.1818181818181818
 40
0.2727272727272727
 40
0.2727272727272727
 40
0.2727272727272727
 40
0.2727272727272727
 40
0.3636363636363636
 40
0.3636363636363636
 40
0.3636363636363636
 40
0.3636363636363636
 40
0.4545454545454545
 40
0.4545454545454545
 40
0.4545454545454545
 40
0.4545454545454545
 40
0.5454545454545454
 40
0.5454545454545454
 40
0.5454545454545454
 40
0.5454545454545454
 40
0.6363636363636364
 40
0.6363636363636364
 40
0.6363636363636364
 40
0.6363636363636364
 40
0.7272727272727273
 40
0.7272727272727273
 40
0.7272727272727273
 40
0.7272727272727273
 40
0.8181818181818182
 40
0.8181818181818182
 40
0.8181818181818182
 40
0.8181818181818182
 40
1.0
 40
1.0
 40
1.0
 40
1.0
 10
-8.81725
 20
-10.23917
 30
0.0
 10
-8.81725
 20
-10.23917
 30
0.0
 10
-8.81725
 20
-10.23917
 30
0.0
 10
-8.81725
 20
-10.23917
 30
0.0
 10
-8.81725
 20
-10.23917
 30
0.0
 10
-8.77253
 20
-10.23917
 30
0.0
 10
-8.73123
 20
-10.24171
 30
0.0
 10
-8.69033
 20
-10.23871
 30
0.0
 10
-8.69033
 20
-10.23871
 30
0.0
 10
-8.59272
 20
-10.23153
 30
0.0
 10
-8.49432
 20
-10.2455
 30
0.0
 10
-8.40764
 20
-10.16874
 30
0.0
 10
-8.40764
 20
-10.16874
 30
0.0
 10
-8.34629
 20
-10.1144
 30
0.0
 10
-8.25794
 20
-10.17383
 30
0.0
 10
-8.25636
 20
-10.25804
 30
0.0
 10
-8.25636
 20
-10.25804
 30
0.0
 10
-8.25558
 20
-10.29871
 30
0.0
 10
-8.24935
 20
-10.33928
 30
0.0
 10
-8.2454
 20
-10.37989
 30
0.0
 10
-8.2454
 20
-10.37989
 30
0.0
 10
-8.2421
 20
-10.414
 30
0.0
 10
-8.23852
 20
-10.4481
 30
0.0
 10
-8.23506
 20
-10.48221
 30
0.0
 10
-8.23506
 20
-10.48221
 30
0.0
 10
-8.27429
 20
-10.48549
 30
0.0
 10
-8.31413
 20
-10.49464
 30
0.0
 10
-8.35271
 20
-10.4909
 30
0.0
 10
-8.35271
 20
-10.4909
 30
0.0
 10
-8.45746
 20
-10.48076
 30
0.0
 10
-8.56139
 20
-10.45795
 30
0.0
 10
-8.66622
 20
-10.4533
 30
0.0
 10
-8.66622
 20
-10.4533
 30
0.0
 10
-8.84368
 20
-10.44542
 30
0.0
 10
-8.84391
 20
-10.44968
 30
0.0
 10
-8.82687
 20
-10.27127
 30
0.0
 10
-8.82687
 20
-10.27127
 30
0.0
 10
-8.82619
 20
-10.26398
 30
0.0
 10
-8.82269
 20
-10.257
 30
0.0
 10
-8.81725
 20
-10.23917
 30
0.0
  0
SPLINE
  5
6F
330
1F
100
AcDbEntity
  8
Layer 1
 62
     5
370
    53
100
AcDbSpline
210
0.0
220
0.0
230
1.0
 70
    11
 71
     3
 72
    48
 73
    44
 74
     0
 42
0.0000000001
 43
0.0000000001
 12
1.0
 22
0.0
 32
0.0
 13
1.0
 23
0.0
 33
0.0
 40
0.0
 40
0.0
 40
0.0
 40
0.0
 40
0.0833333333333333
 40
0.0833333333333333
 40
0.0833333333333333
 40
0.0833333333333333
 40
0.1666666666666667
 40
0.1666666666666667
 40
0.1666666666666667
 40
0.1666666666666667
 40
0.25
 40
0.25
 40
0.25
 40
0.25
 40
0.3333333333333333
 40
0.3333333333333333
 40
0.3333333333333333
 40
0.3333333333333333
 40
0.4166666666666667
 40
0.4166666666666667
 40
0.4166666666666667
 40
0.4166666666666667
 40
0.5
 40
0.5
 40
0.5
 40
0.5
 40
0.5833333333333334
 40
0.5833333333333334
 40
0.5833333333333334
 40
0.5833333333333334
 40
0.6666666666666666
 40
0.6666666666666666
 40
0.6666666666666666
 40
0.6666666666666666
 40
0.75
 40
0.75
 40
0.75
 40
0.75
 40
0.8333333333333334
 40
0.8333333333333334
 40
0.8333333333333334
 40
0.8333333333333334
 40
1.0
 40
1.0
 40
1.0
 40
1.0
 10
-5.62553
 20
-10.53653
 30
0.0
 10
-5.62553
 20
-10.53653
 30
0.0
 10
-5.62553
 20
-10.53653
 30
0.0
 10
-5.62553
 20
-10.53653
 30
0.0
 10
-5.62553
 20
-10.53653
 30
0.0
 10
-5.61008
 20
-10.53539
 30
0.0
 10
-5.59409
 20
-10.53115
 30
0.0
 10
-5.57933
 20
-10.53378
 30
0.0
 10
-5.57933
 20
-10.53378
 30
0.0
 10
-5.54919
 20
-10.53908
 30
0.0
 10
-5.49738
 20
-10.54275
 30
0.0
 10
-5.49405
 20
-10.5566
 30
0.0
 10
-5.49405
 20
-10.5566
 30
0.0
 10
-5.48241
 20
-10.60505
 30
0.0
 10
-5.4813
 20
-10.65879
 30
0.0
 10
-5.49096
 20
-10.70757
 30
0.0
 10
-5.49096
 20
-10.70757
 30
0.0
 10
-5.49326
 20
-10.71928
 30
0.0
 10
-5.55361
 20
-10.72767
 30
0.0
 10
-5.58567
 20
-10.72395
 30
0.0
 10
-5.58567
 20
-10.72395
 30
0.0
 10
-5.80781
 20
-10.69811
 30
0.0
 10
-6.0297
 20
-10.6697
 30
0.0
 10
-6.25113
 20
-10.6385
 30
0.0
 10
-6.25113
 20
-10.6385
 30
0.0
 10
-6.27071
 20
-10.63574
 30
0.0
 10
-6.30037
 20
-10.6083
 30
0.0
 10
-6.30175
 20
-10.59053
 30
0.0
 10
-6.30175
 20
-10.59053
 30
0.0
 10
-6.30643
 20
-10.52991
 30
0.0
 10
-6.29822
 20
-10.46841
 30
0.0
 10
-6.29939
 20
-10.40736
 30
0.0
 10
-6.29939
 20
-10.40736
 30
0.0
 10
-6.30044
 20
-10.35101
 30
0.0
 10
-6.27505
 20
-10.33811
 30
0.0
 10
-6.22724
 20
-10.35635
 30
0.0
 10
-6.22724
 20
-10.35635
 30
0.0
 10
-6.1503
 20
-10.38568
 30
0.0
 10
-6.07406
 20
-10.41689
 30
0.0
 10
-5.99726
 20
-10.44661
 30
0.0
 10
-5.99726
 20
-10.44661
 30
0.0
 10
-5.87736
 20
-10.49296
 30
0.0
 10
-5.75858
 20
-10.54433
 30
0.0
 10
-5.62553
 20
-10.53653
 30
0.0
  0
SPLINE
  5
70
330
1F
100
AcDbEntity
  8
Layer 1
 62
     5
370
    53
100
AcDbSpline
210
0.0
220
0.0
230
1.0
 70
    11
 71
     3
 72
    52
 73
    48
 74
     0
 42
0.0000000001
 43
0.0000000001
 12
1.0
 22
0.0
 32
0.0
 13
1.0
 23
0.0
 33
0.0
 40
0.0
 40
0.0
 40
0.0
 40
0.0
 40
0.0769230769230769
 40
0.0769230769230769
 40
0.0769230769230769
 40
0.0769230769230769
 40
0.1538461538461539
 40
0.1538461538461539
 40
0.1538461538461539
 40
0.1538461538461539
 40
0.2307692307692308
 40
0.2307692307692308
 40
0.2307692307692308
 40
0.2307692307692308
 40
0.3076923076923077
 40
0.3076923076923077
 40
0.3076923076923077
 40
0.3076923076923077
 40
0.3846153846153846
 40
0.3846153846153846
 40
0.3846153846153846
 40
0.3846153846153846
 40
0.4615384615384616
 40
0.4615384615384616
 40
0.4615384615384616
 40
0.4615384615384616
 40
0.5384615384615384
 40
0.5384615384615384
 40
0.5384615384615384
 40
0.5384615384615384
 40
0.6153846153846154
 40
0.6153846153846154
 40
0.6153846153846154
 40
0.6153846153846154
 40
0.6923076923076923
 40
0.6923076923076923
 40
0.6923076923076923
 40
0.6923076923076923
 40
0.7692307692307693
 40
0.7692307692307693
 40
0.7692307692307693
 40
0.7692307692307693
 40
0.8461538461538461
 40
0.8461538461538461
 40
0.8461538461538461
 40
0.8461538461538461
 40
1.0
 40
1.0
 40
1.0
 40
1.0
 10
-6.78694
 20
-9.19482
 30
0.0
 10
-6.78694
 20
-9.19482
 30
0.0
 10
-6.78694
 20
-9.19482
 30
0.0
 10
-6.78694
 20
-9.19482
 30
0.0
 10
-6.78694
 20
-9.19482
 30
0.0
 10
-6.83525
 20
-9.19482
 30
0.0
 10
-6.88094
 20
-9.19743
 30
0.0
 10
-6.92626
 20
-9.19433
 30
0.0
 10
-6.92626
 20
-9.19433
 30
0.0
 10
-7.07319
 20
-9.1842
 30
0.0
 10
-7.20305
 20
-9.21152
 30
0.0
 10
-7.29394
 20
-9.34251
 30
0.0
 10
-7.29394
 20
-9.34251
 30
0.0
 10
-7.31705
 20
-9.37582
 30
0.0
 10
-7.3505
 20
-9.40246
 30
0.0
 10
-7.38114
 20
-9.43003
 30
0.0
 10
-7.38114
 20
-9.43003
 30
0.0
 10
-7.43017
 20
-9.47411
 30
0.0
 10
-7.47527
 20
-9.47571
 30
0.0
 10
-7.51831
 20
-9.41816
 30
0.0
 10
-7.51831
 20
-9.41816
 30
0.0
 10
-7.53449
 20
-9.39649
 30
0.0
 10
-7.55901
 20
-9.37838
 30
0.0
 10
-7.58347
 20
-9.36605
 30
0.0
 10
-7.58347
 20
-9.36605
 30
0.0
 10
-7.64353
 20
-9.33587
 30
0.0
 10
-7.65644
 20
-9.2883
 30
0.0
 10
-7.61912
 20
-9.24004
 30
0.0
 10
-7.61912
 20
-9.24004
 30
0.0
 10
-7.58812
 20
-9.19997
 30
0.0
 10
-7.54401
 20
-9.15449
 30
0.0
 10
-7.49827
 20
-9.1441
 30
0.0
 10
-7.49827
 20
-9.1441
 30
0.0
 10
-7.32902
 20
-9.1056
 30
0.0
 10
-7.16405
 20
-9.05915
 30
0.0
 10
-7.01086
 20
-8.97551
 30
0.0
 10
-7.01086
 20
-8.97551
 30
0.0
 10
-6.99091
 20
-8.9646
 30
0.0
 10
-6.96736
 20
-8.95895
 30
0.0
 10
-6.94476
 20
-8.95448
 30
0.0
 10
-6.94476
 20
-8.95448
 30
0.0
 10
-6.87798
 20
-8.94127
 30
0.0
 10
-6.81752
 20
-8.97778
 30
0.0
 10
-6.80437
 20
-9.04295
 30
0.0
 10
-6.80437
 20
-9.04295
 30
0.0
 10
-6.79487
 20
-9.08995
 30
0.0
 10
-6.7931
 20
-9.13852
 30
0.0
 10
-6.78694
 20
-9.19482
 30
0.0
  0
SPLINE
  5
71
330
1F
100
AcDbEntity
  8
Layer 1
 62
     5
370
    53
100
AcDbSpline
210
0.0
220
0.0
230
1.0
 70
    11
 71
     3
 72
    44
 73
    40
 74
     0
 42
0.0000000001
 43
0.0000000001
 12
1.0
 22
0.0
 32
0.0
 13
1.0
 23
0.0
 33
0.0
 40
0.0
 40
0.0
 40
0.0
 40
0.0
 40
0.0909090909090909
 40
0.0909090909090909
 40
0.0909090909090909
 40
0.0909090909090909
 40
0.1818181818181818
 40
0.1818181818181818
 40
0.1818181818181818
 40
0.1818181818181818
 40
0.2727272727272727
 40
0.2727272727272727
 40
0.2727272727272727
 40
0.2727272727272727
 40
0.3636363636363636
 40
0.3636363636363636
 40
0.3636363636363636
 40
0.3636363636363636
 40
0.4545454545454545
 40
0.4545454545454545
 40
0.4545454545454545
 40
0.4545454545454545
 40
0.5454545454545454
 40
0.5454545454545454
 40
0.5454545454545454
 40
0.5454545454545454
 40
0.6363636363636364
 40
0.6363636363636364
 40
0.6363636363636364
 40
0.6363636363636364
 40
0.7272727272727273
 40
0.7272727272727273
 40
0.7272727272727273
 40
0.7272727272727273
 40
0.8181818181818182
 40
0.8181818181818182
 40
0.8181818181818182
 40
0.8181818181818182
 40
1.0
 40
1.0
 40
1.0
 40
1.0
 10
-6.11884
 20
-10.20479
 30
0.0
 10
-6.11884
 20
-10.20479
 30
0.0
 10
-6.11884
 20
-10.20479
 30
0.0
 10
-6.11884
 20
-10.20479
 30
0.0
 10
-6.11884
 20
-10.20479
 30
0.0
 10
-6.10907
 20
-10.13185
 30
0.0
 10
-6.09002
 20
-10.0782
 30
0.0
 10
-6.09786
 20
-10.02885
 30
0.0
 10
-6.09786
 20
-10.02885
 30
0.0
 10
-6.11312
 20
-9.93251
 30
0.0
 10
-6.10562
 20
-9.91808
 30
0.0
 10
-6.00764
 20
-9.93323
 30
0.0
 10
-6.00764
 20
-9.93323
 30
0.0
 10
-5.98489
 20
-9.93671
 30
0.0
 10
-5.96242
 20
-9.94358
 30
0.0
 10
-5.94048
 20
-9.9509
 30
0.0
 10
-5.94048
 20
-9.9509
 30
0.0
 10
-5.75575
 20
-10.01247
 30
0.0
 10
-5.56928
 20
-10.03097
 30
0.0
 10
-5.37743
 20
-9.9841
 30
0.0
 10
-5.37743
 20
-9.9841
 30
0.0
 10
-5.33487
 20
-9.97371
 30
0.0
 10
-5.28763
 20
-9.98261
 30
0.0
 10
-5.24132
 20
-9.98261
 30
0.0
 10
-5.24132
 20
-9.98261
 30
0.0
 10
-5.24132
 20
-9.98261
 30
0.0
 10
-5.24132
 20
-10.24393
 30
0.0
 10
-5.24132
 20
-10.24393
 30
0.0
 10
-5.24132
 20
-10.24393
 30
0.0
 10
-5.24915
 20
-10.24468
 30
0.0
 10
-5.25956
 20
-10.24832
 30
0.0
 10
-5.26854
 20
-10.24618
 30
0.0
 10
-5.26854
 20
-10.24618
 30
0.0
 10
-5.51472
 20
-10.18711
 30
0.0
 10
-5.76146
 20
-10.17158
 30
0.0
 10
-6.01142
 20
-10.22502
 30
0.0
 10
-6.01142
 20
-10.22502
 30
0.0
 10
-6.04647
 20
-10.23248
 30
0.0
 10
-6.08767
 20
-10.21124
 30
0.0
 10
-6.11884
 20
-10.20479
 30
0.0
  0
SPLINE
  5
72
330
1F
100
AcDbEntity
  8
Layer 1
 62
     5
370
    53
100
AcDbSpline
210
0.0
220
0.0
230
1.0
 70
    11
 71
     3
 72
    44
 73
    40
 74
     0
 42
0.0000000001
 43
0.0000000001
 12
1.0
 22
0.0
 32
0.0
 13
1.0
 23
0.0
 33
0.0
 40
0.0
 40
0.0
 40
0.0
 40
0.0
 40
0.0909090909090909
 40
0.0909090909090909
 40
0.0909090909090909
 40
0.0909090909090909
 40
0.1818181818181818
 40
0.1818181818181818
 40
0.1818181818181818
 40
0.1818181818181818
 40
0.2727272727272727
 40
0.2727272727272727
 40
0.2727272727272727
 40
0.2727272727272727
 40
0.3636363636363636
 40
0.3636363636363636
 40
0.3636363636363636
 40
0.3636363636363636
 40
0.4545454545454545
 40
0.4545454545454545
 40
0.4545454545454545
 40
0.4545454545454545
 40
0.5454545454545454
 40
0.5454545454545454
 40
0.5454545454545454
 40
0.5454545454545454
 40
0.6363636363636364
 40
0.6363636363636364
 40
0.6363636363636364
 40
0.6363636363636364
 40
0.7272727272727273
 40
0.7272727272727273
 40
0.7272727272727273
 40
0.7272727272727273
 40
0.8181818181818182
 40
0.8181818181818182
 40
0.8181818181818182
 40
0.8181818181818182
 40
1.0
 40
1.0
 40
1.0
 40
1.0
 10
-6.55087
 20
-10.81922
 30
0.0
 10
-6.55087
 20
-10.81922
 30
0.0
 10
-6.55087
 20
-10.81922
 30
0.0
 10
-6.55087
 20
-10.81922
 30
0.0
 10
-6.55087
 20
-10.81922
 30
0.0
 10
-6.55299
 20
-10.91523
 30
0.0
 10
-6.5906
 20
-10.95461
 30
0.0
 10
-6.68162
 20
-10.94554
 30
0.0
 10
-6.68162
 20
-10.94554
 30
0.0
 10
-6.73156
 20
-10.94055
 30
0.0
 10
-6.78236
 20
-10.92562
 30
0.0
 10
-6.82868
 20
-10.90568
 30
0.0
 10
-6.82868
 20
-10.90568
 30
0.0
 10
-7.04809
 20
-10.81121
 30
0.0
 10
-7.26671
 20
-10.71488
 30
0.0
 10
-7.4838
 20
-10.61522
 30
0.0
 10
-7.4838
 20
-10.61522
 30
0.0
 10
-7.51274
 20
-10.60195
 30
0.0
 10
-7.54901
 20
-10.56678
 30
0.0
 10
-7.55005
 20
-10.54048
 30
0.0
 10
-7.55005
 20
-10.54048
 30
0.0
 10
-7.55126
 20
-10.50919
 30
0.0
 10
-7.52492
 20
-10.46828
 30
0.0
 10
-7.49832
 20
-10.44635
 30
0.0
 10
-7.49832
 20
-10.44635
 30
0.0
 10
-7.44956
 20
-10.40615
 30
0.0
 10
-7.33199
 20
-10.42038
 30
0.0
 10
-7.27631
 20
-10.45562
 30
0.0
 10
-7.27631
 20
-10.45562
 30
0.0
 10
-7.18966
 20
-10.51043
 30
0.0
 10
-7.10386
 20
-10.57006
 30
0.0
 10
-7.01
 20
-10.60918
 30
0.0
 10
-7.01
 20
-10.60918
 30
0.0
 10
-6.88452
 20
-10.66153
 30
0.0
 10
-6.7516
 20
-10.69589
 30
0.0
 10
-6.62208
 20
-10.73861
 30
0.0
 10
-6.62208
 20
-10.73861
 30
0.0
 10
-6.58215
 20
-10.75178
 30
0.0
 10
-6.54087
 20
-10.76543
 30
0.0
 10
-6.55087
 20
-10.81922
 30
0.0
  0
SPLINE
  5
73
330
1F
100
AcDbEntity
  8
Layer 1
 62
     5
370
    53
100
AcDbSpline
210
0.0
220
0.0
230
1.0
 70
    11
 71
     3
 72
    52
 73
    48
 74
     0
 42
0.0000000001
 43
0.0000000001
 12
1.0
 22
0.0
 32
0.0
 13
1.0
 23
0.0
 33
0.0
 40
0.0
 40
0.0
 40
0.0
 40
0.0
 40
0.0769230769230769
 40
0.0769230769230769
 40
0.0769230769230769
 40
0.0769230769230769
 40
0.1538461538461539
 40
0.1538461538461539
 40
0.1538461538461539
 40
0.1538461538461539
 40
0.2307692307692308
 40
0.2307692307692308
 40
0.2307692307692308
 40
0.2307692307692308
 40
0.3076923076923077
 40
0.3076923076923077
 40
0.3076923076923077
 40
0.3076923076923077
 40
0.3846153846153846
 40
0.3846153846153846
 40
0.3846153846153846
 40
0.3846153846153846
 40
0.4615384615384616
 40
0.4615384615384616
 40
0.4615384615384616
 40
0.4615384615384616
 40
0.5384615384615384
 40
0.5384615384615384
 40
0.5384615384615384
 40
0.5384615384615384
 40
0.6153846153846154
 40
0.6153846153846154
 40
0.6153846153846154
 40
0.6153846153846154
 40
0.6923076923076923
 40
0.6923076923076923
 40
0.6923076923076923
 40
0.6923076923076923
 40
0.7692307692307693
 40
0.7692307692307693
 40
0.7692307692307693
 40
0.7692307692307693
 40
0.8461538461538461
 40
0.8461538461538461
 40
0.8461538461538461
 40
0.8461538461538461
 40
1.0
 40
1.0
 40
1.0
 40
1.0
 10
-7.45454
 20
-10.4066
 30
0.0
 10
-7.45454
 20
-10.4066
 30
0.0
 10
-7.45454
 20
-10.4066
 30
0.0
 10
-7.45454
 20
-10.4066
 30
0.0
 10
-7.45454
 20
-10.4066
 30
0.0
 10
-7.45752
 20
-10.38294
 30
0.0
 10
-7.46655
 20
-10.35051
 30
0.0
 10
-7.46115
 20
-10.3479
 30
0.0
 10
-7.46115
 20
-10.3479
 30
0.0
 10
-7.40352
 20
-10.32002
 30
0.0
 10
-7.43591
 20
-10.27373
 30
0.0
 10
-7.43181
 20
-10.23409
 30
0.0
 10
-7.43181
 20
-10.23409
 30
0.0
 10
-7.42895
 20
-10.20631
 30
0.0
 10
-7.41241
 20
-10.15696
 30
0.0
 10
-7.40138
 20
-10.15678
 30
0.0
 10
-7.40138
 20
-10.15678
 30
0.0
 10
-7.33428
 20
-10.1558
 30
0.0
 10
-7.25015
 20
-10.14278
 30
0.0
 10
-7.20281
 20
-10.17691
 30
0.0
 10
-7.20281
 20
-10.17691
 30
0.0
 10
-7.02896
 20
-10.30227
 30
0.0
 10
-6.83744
 20
-10.34643
 30
0.0
 10
-6.62946
 20
-10.35147
 30
0.0
 10
-6.62946
 20
-10.35147
 30
0.0
 10
-6.56349
 20
-10.35307
 30
0.0
 10
-6.49735
 20
-10.36757
 30
0.0
 10
-6.43229
 20
-10.38103
 30
0.0
 10
-6.43229
 20
-10.38103
 30
0.0
 10
-6.3722
 20
-10.39343
 30
0.0
 10
-6.33157
 20
-10.43671
 30
0.0
 10
-6.33987
 20
-10.49593
 30
0.0
 10
-6.33987
 20
-10.49593
 30
0.0
 10
-6.34789
 20
-10.55309
 30
0.0
 10
-6.37517
 20
-10.61486
 30
0.0
 10
-6.45174
 20
-10.60954
 30
0.0
 10
-6.45174
 20
-10.60954
 30
0.0
 10
-6.51209
 20
-10.60535
 30
0.0
 10
-6.57482
 20
-10.59967
 30
0.0
 10
-6.63104
 20
-10.57946
 30
0.0
 10
-6.63104
 20
-10.57946
 30
0.0
 10
-6.76644
 20
-10.53081
 30
0.0
 10
-6.89765
 20
-10.47059
 30
0.0
 10
-7.03239
 20
-10.41999
 30
0.0
 10
-7.03239
 20
-10.41999
 30
0.0
 10
-7.16708
 20
-10.36945
 30
0.0
 10
-7.3051
 20
-10.34729
 30
0.0
 10
-7.45454
 20
-10.4066
 30
0.0
  0
SPLINE
  5
74
330
1F
100
AcDbEntity
  8
Layer 1
 62
     5
370
    53
100
AcDbSpline
210
0.0
220
0.0
230
1.0
 70
    11
 71
     3
 72
    52
 73
    48
 74
     0
 42
0.0000000001
 43
0.0000000001
 12
1.0
 22
0.0
 32
0.0
 13
1.0
 23
0.0
 33
0.0
 40
0.0
 40
0.0
 40
0.0
 40
0.0
 40
0.0769230769230769
 40
0.0769230769230769
 40
0.0769230769230769
 40
0.0769230769230769
 40
0.1538461538461539
 40
0.1538461538461539
 40
0.1538461538461539
 40
0.1538461538461539
 40
0.2307692307692308
 40
0.2307692307692308
 40
0.2307692307692308
 40
0.2307692307692308
 40
0.3076923076923077
 40
0.3076923076923077
 40
0.3076923076923077
 40
0.3076923076923077
 40
0.3846153846153846
 40
0.3846153846153846
 40
0.3846153846153846
 40
0.3846153846153846
 40
0.4615384615384616
 40
0.4615384615384616
 40
0.4615384615384616
 40
0.4615384615384616
 40
0.5384615384615384
 40
0.5384615384615384
 40
0.5384615384615384
 40
0.5384615384615384
 40
0.6153846153846154
 40
0.6153846153846154
 40
0.6153846153846154
 40
0.6153846153846154
 40
0.6923076923076923
 40
0.6923076923076923
 40
0.6923076923076923
 40
0.6923076923076923
 40
0.7692307692307693
 40
0.7692307692307693
 40
0.7692307692307693
 40
0.7692307692307693
 40
0.8461538461538461
 40
0.8461538461538461
 40
0.8461538461538461
 40
0.8461538461538461
 40
1.0
 40
1.0
 40
1.0
 40
1.0
 10
-7.4297
 20
-9.809
 30
0.0
 10
-7.4297
 20
-9.809
 30
0.0
 10
-7.4297
 20
-9.809
 30
0.0
 10
-7.4297
 20
-9.809
 30
0.0
 10
-7.4297
 20
-9.809
 30
0.0
 10
-7.35287
 20
-9.8306
 30
0.0
 10
-7.28756
 20
-9.84584
 30
0.0
 10
-7.22445
 20
-9.8676
 30
0.0
 10
-7.22445
 20
-9.8676
 30
0.0
 10
-7.16165
 20
-9.88925
 30
0.0
 10
-7.10293
 20
-9.92429
 30
0.0
 10
-7.03922
 20
-9.94157
 30
0.0
 10
-7.03922
 20
-9.94157
 30
0.0
 10
-6.82911
 20
-9.99862
 30
0.0
 10
-6.61872
 20
-10.0156
 30
0.0
 10
-6.40986
 20
-9.93038
 30
0.0
 10
-6.40986
 20
-9.93038
 30
0.0
 10
-6.38007
 20
-9.91824
 30
0.0
 10
-6.34392
 20
-9.91951
 30
0.0
 10
-6.31061
 20
-9.91855
 30
0.0
 10
-6.31061
 20
-9.91855
 30
0.0
 10
-6.18274
 20
-9.91472
 30
0.0
 10
-6.11771
 20
-10.01009
 30
0.0
 10
-6.15707
 20
-10.13624
 30
0.0
 10
-6.15707
 20
-10.13624
 30
0.0
 10
-6.1781
 20
-10.20365
 30
0.0
 10
-6.21178
 20
-10.25016
 30
0.0
 10
-6.28889
 20
-10.23316
 30
0.0
 10
-6.28889
 20
-10.23316
 30
0.0
 10
-6.39906
 20
-10.20884
 30
0.0
 10
-6.51019
 20
-10.18571
 30
0.0
 10
-6.61724
 20
-10.15088
 30
0.0
 10
-6.61724
 20
-10.15088
 30
0.0
 10
-6.81038
 20
-10.08802
 30
0.0
 10
-7.00271
 20
-10.03854
 30
0.0
 10
-7.20651
 20
-10.09565
 30
0.0
 10
-7.20651
 20
-10.09565
 30
0.0
 10
-7.23604
 20
-10.10391
 30
0.0
 10
-7.26882
 20
-10.11262
 30
0.0
 10
-7.29791
 20
-10.10779
 30
0.0
 10
-7.29791
 20
-10.10779
 30
0.0
 10
-7.34595
 20
-10.0998
 30
0.0
 10
-7.41858
 20
-10.12435
 30
0.0
 10
-7.42793
 20
-10.04655
 30
0.0
 10
-7.42793
 20
-10.04655
 30
0.0
 10
-7.43636
 20
-9.9761
 30
0.0
 10
-7.4297
 20
-9.90385
 30
0.0
 10
-7.4297
 20
-9.809
 30
0.0
  0
SPLINE
  5
75
330
1F
100
AcDbEntity
  8
Layer 1
 62
     5
370
    53
100
AcDbSpline
210
0.0
220
0.0
230
1.0
 70
    11
 71
     3
 72
    52
 73
    48
 74
     0
 42
0.0000000001
 43
0.0000000001
 12
1.0
 22
0.0
 32
0.0
 13
1.0
 23
0.0
 33
0.0
 40
0.0
 40
0.0
 40
0.0
 40
0.0
 40
0.0769230769230769
 40
0.0769230769230769
 40
0.0769230769230769
 40
0.0769230769230769
 40
0.1538461538461539
 40
0.1538461538461539
 40
0.1538461538461539
 40
0.1538461538461539
 40
0.2307692307692308
 40
0.2307692307692308
 40
0.2307692307692308
 40
0.2307692307692308
 40
0.3076923076923077
 40
0.3076923076923077
 40
0.3076923076923077
 40
0.3076923076923077
 40
0.3846153846153846
 40
0.3846153846153846
 40
0.3846153846153846
 40
0.3846153846153846
 40
0.4615384615384616
 40
0.4615384615384616
 40
0.4615384615384616
 40
0.4615384615384616
 40
0.5384615384615384
 40
0.5384615384615384
 40
0.5384615384615384
 40
0.5384615384615384
 40
0.6153846153846154
 40
0.6153846153846154
 40
0.6153846153846154
 40
0.6153846153846154
 40
0.6923076923076923
 40
0.6923076923076923
 40
0.6923076923076923
 40
0.6923076923076923
 40
0.7692307692307693
 40
0.7692307692307693
 40
0.7692307692307693
 40
0.7692307692307693
 40
0.8461538461538461
 40
0.8461538461538461
 40
0.8461538461538461
 40
0.8461538461538461
 40
1.0
 40
1.0
 40
1.0
 40
1.0
 10
-7.4938
 20
-9.72362
 30
0.0
 10
-7.4938
 20
-9.72362
 30
0.0
 10
-7.4938
 20
-9.72362
 30
0.0
 10
-7.4938
 20
-9.72362
 30
0.0
 10
-7.4938
 20
-9.72362
 30
0.0
 10
-7.46771
 20
-9.68327
 30
0.0
 10
-7.4452
 20
-9.64402
 30
0.0
 10
-7.49637
 20
-9.59792
 30
0.0
 10
-7.49637
 20
-9.59792
 30
0.0
 10
-7.50952
 20
-9.58607
 30
0.0
 10
-7.4911
 20
-9.53077
 30
0.0
 10
-7.47626
 20
-9.50087
 30
0.0
 10
-7.47626
 20
-9.50087
 30
0.0
 10
-7.47107
 20
-9.49043
 30
0.0
 10
-7.43265
 20
-9.49333
 30
0.0
 10
-7.4099
 20
-9.4955
 30
0.0
 10
-7.4099
 20
-9.4955
 30
0.0
 10
-7.36415
 20
-9.49985
 30
0.0
 10
-7.31891
 20
-9.51227
 30
0.0
 10
-7.27322
 20
-9.51359
 30
0.0
 10
-7.27322
 20
-9.51359
 30
0.0
 10
-6.97127
 20
-9.52224
 30
0.0
 10
-6.67058
 20
-9.5201
 30
0.0
 10
-6.38267
 20
-9.40739
 30
0.0
 10
-6.38267
 20
-9.40739
 30
0.0
 10
-6.3287
 20
-9.38628
 30
0.0
 10
-6.1722
 20
-9.4809
 30
0.0
 10
-6.15821
 20
-9.53909
 30
0.0
 10
-6.15821
 20
-9.53909
 30
0.0
 10
-6.15479
 20
-9.55328
 30
0.0
 10
-6.15617
 20
-9.57035
 30
0.0
 10
-6.16061
 20
-9.58441
 30
0.0
 10
-6.16061
 20
-9.58441
 30
0.0
 10
-6.19547
 20
-9.69451
 30
0.0
 10
-6.27441
 20
-9.74949
 30
0.0
 10
-6.38472
 20
-9.72179
 30
0.0
 10
-6.38472
 20
-9.72179
 30
0.0
 10
-6.61433
 20
-9.66412
 30
0.0
 10
-6.84517
 20
-9.67404
 30
0.0
 10
-7.07629
 20
-9.6968
 30
0.0
 10
-7.07629
 20
-9.6968
 30
0.0
 10
-7.13552
 20
-9.70267
 30
0.0
 10
-7.19846
 20
-9.72221
 30
0.0
 10
-7.24919
 20
-9.75287
 30
0.0
 10
-7.24919
 20
-9.75287
 30
0.0
 10
-7.3558
 20
-9.81737
 30
0.0
 10
-7.3993
 20
-9.81749
 30
0.0
 10
-7.4938
 20
-9.72362
 30
0.0
  0
SPLINE
  5
76
330
1F
100
AcDbEntity
  8
Layer 1
 62
     5
370
    53
100
AcDbSpline
210
0.0
220
0.0
230
1.0
 70
    11
 71
     3
 72
    48
 73
    44
 74
     0
 42
0.0000000001
 43
0.0000000001
 12
1.0
 22
0.0
 32
0.0
 13
1.0
 23
0.0
 33
0.0
 40
0.0
 40
0.0
 40
0.0
 40
0.0
 40
0.0833333333333333
 40
0.0833333333333333
 40
0.0833333333333333
 40
0.0833333333333333
 40
0.1666666666666667
 40
0.1666666666666667
 40
0.1666666666666667
 40
0.1666666666666667
 40
0.25
 40
0.25
 40
0.25
 40
0.25
 40
0.3333333333333333
 40
0.3333333333333333
 40
0.3333333333333333
 40
0.3333333333333333
 40
0.4166666666666667
 40
0.4166666666666667
 40
0.4166666666666667
 40
0.4166666666666667
 40
0.5
 40
0.5
 40
0.5
 40
0.5
 40
0.5833333333333334
 40
0.5833333333333334
 40
0.5833333333333334
 40
0.5833333333333334
 40
0.6666666666666666
 40
0.6666666666666666
 40
0.6666666666666666
 40
0.6666666666666666
 40
0.75
 40
0.75
 40
0.75
 40
0.75
 40
0.8333333333333334
 40
0.8333333333333334
 40
0.8333333333333334
 40
0.8333333333333334
 40
1.0
 40
1.0
 40
1.0
 40
1.0
 10
-8.82825
 20
-9.87509
 30
0.0
 10
-8.82825
 20
-9.87509
 30
0.0
 10
-8.82825
 20
-9.87509
 30
0.0
 10
-8.82825
 20
-9.87509
 30
0.0
 10
-8.82825
 20
-9.87509
 30
0.0
 10
-8.82325
 20
-9.80039
 30
0.0
 10
-8.81373
 20
-9.71804
 30
0.0
 10
-8.81348
 20
-9.63565
 30
0.0
 10
-8.81348
 20
-9.63565
 30
0.0
 10
-8.81328
 20
-9.56317
 30
0.0
 10
-8.77915
 20
-9.53299
 30
0.0
 10
-8.71321
 20
-9.54532
 30
0.0
 10
-8.71321
 20
-9.54532
 30
0.0
 10
-8.6228
 20
-9.56224
 30
0.0
 10
-8.54123
 20
-9.53516
 30
0.0
 10
-8.45612
 20
-9.51369
 30
0.0
 10
-8.45612
 20
-9.51369
 30
0.0
 10
-8.37666
 20
-9.49367
 30
0.0
 10
-8.29373
 20
-9.48651
 30
0.0
 10
-8.21193
 20
-9.47703
 30
0.0
 10
-8.21193
 20
-9.47703
 30
0.0
 10
-8.1628
 20
-9.47134
 30
0.0
 10
-8.14409
 20
-9.49369
 30
0.0
 10
-8.14988
 20
-9.54645
 30
0.0
 10
-8.14988
 20
-9.54645
 30
0.0
 10
-8.16447
 20
-9.67937
 30
0.0
 10
-8.1783
 20
-9.81269
 30
0.0
 10
-8.18351
 20
-9.9462
 30
0.0
 10
-8.18351
 20
-9.9462
 30
0.0
 10
-8.19101
 20
-10.13768
 30
0.0
 10
-8.21883
 20
-10.15298
 30
0.0
 10
-8.40058
 20
-10.08937
 30
0.0
 10
-8.40058
 20
-10.08937
 30
0.0
 10
-8.5057
 20
-10.05252
 30
0.0
 10
-8.61915
 20
-10.0334
 30
0.0
 10
-8.73044
 20
-10.02209
 30
0.0
 10
-8.73044
 20
-10.02209
 30
0.0
 10
-8.82638
 20
-10.01237
 30
0.0
 10
-8.82918
 20
-10.02043
 30
0.0
 10
-8.82825
 20
-9.92157
 30
0.0
 10
-8.82825
 20
-9.92157
 30
0.0
 10
-8.82815
 20
-9.90868
 30
0.0
 10
-8.82825
 20
-9.89576
 30
0.0
 10
-8.82825
 20
-9.87509
 30
0.0
  0
SPLINE
  5
77
330
1F
100
AcDbEntity
  8
Layer 1
 62
     5
370
    53
100
AcDbSpline
210
0.0
220
0.0
230
1.0
 70
    11
 71
     3
 72
    64
 73
    60
 74
     0
 42
0.0000000001
 43
0.0000000001
 12
1.0
 22
0.0
 32
0.0
 13
1.0
 23
0.0
 33
0.0
 40
0.0
 40
0.0
 40
0.0
 40
0.0
 40
0.0625
 40
0.0625
 40
0.0625
 40
0.0625
 40
0.125
 40
0.125
 40
0.125
 40
0.125
 40
0.1875
 40
0.1875
 40
0.1875
 40
0.1875
 40
0.25
 40
0.25
 40
0.25
 40
0.25
 40
0.3125
 40
0.3125
 40
0.3125
 40
0.3125
 40
0.375
 40
0.375
 40
0.375
 40
0.375
 40
0.4375
 40
0.4375
 40
0.4375
 40
0.4375
 40
0.5
 40
0.5
 40
0.5
 40
0.5
 40
0.5625
 40
0.5625
 40
0.5625
 40
0.5625
 40
0.625
 40
0.625
 40
0.625
 40
0.625
 40
0.6875
 40
0.6875
 40
0.6875
 40
0.6875
 40
0.75
 40
0.75
 40
0.75
 40
0.75
 40
0.8125
 40
0.8125
 40
0.8125
 40
0.8125
 40
0.875
 40
0.875
 40
0.875
 40
0.875
 40
1.0
 40
1.0
 40
1.0
 40
1.0
 10
-7.77716
 20
-9.52496
 30
0.0
 10
-7.77716
 20
-9.52496
 30
0.0
 10
-7.77716
 20
-9.52496
 30
0.0
 10
-7.77716
 20
-9.52496
 30
0.0
 10
-7.77716
 20
-9.52496
 30
0.0
 10
-7.75959
 20
-9.57565
 30
0.0
 10
-7.74364
 20
-9.62699
 30
0.0
 10
-7.72397
 20
-9.67686
 30
0.0
 10
-7.72397
 20
-9.67686
 30
0.0
 10
-7.70531
 20
-9.72414
 30
0.0
 10
-7.72846
 20
-9.74704
 30
0.0
 10
-7.76868
 20
-9.73737
 30
0.0
 10
-7.76868
 20
-9.73737
 30
0.0
 10
-7.85252
 20
-9.71729
 30
0.0
 10
-7.88355
 20
-9.7714
 30
0.0
 10
-7.91801
 20
-9.82721
 30
0.0
 10
-7.91801
 20
-9.82721
 30
0.0
 10
-7.92801
 20
-9.84338
 30
0.0
 10
-7.93983
 20
-9.86419
 30
0.0
 10
-7.95558
 20
-9.87
 30
0.0
 10
-7.95558
 20
-9.87
 30
0.0
 10
-7.99145
 20
-9.88318
 30
0.0
 10
-8.12877
 20
-9.81287
 30
0.0
 10
-8.14549
 20
-9.7776
 30
0.0
 10
-8.14549
 20
-9.7776
 30
0.0
 10
-8.17531
 20
-9.71474
 30
0.0
 10
-8.13904
 20
-9.62712
 30
0.0
 10
-8.06411
 20
-9.58151
 30
0.0
 10
-8.06411
 20
-9.58151
 30
0.0
 10
-8.03561
 20
-9.56415
 30
0.0
 10
-8.00156
 20
-9.55224
 30
0.0
 10
-7.97926
 20
-9.52901
 30
0.0
 10
-7.97926
 20
-9.52901
 30
0.0
 10
-7.9271
 20
-9.4746
 30
0.0
 10
-7.87091
 20
-9.46584
 30
0.0
 10
-7.80524
 20
-9.49746
 30
0.0
 10
-7.80524
 20
-9.49746
 30
0.0
 10
-7.80844
 20
-9.45467
 30
0.0
 10
-7.81985
 20
-9.41052
 30
0.0
 10
-7.81301
 20
-9.36941
 30
0.0
 10
-7.81301
 20
-9.36941
 30
0.0
 10
-7.80125
 20
-9.29874
 30
0.0
 10
-7.74394
 20
-9.27861
 30
0.0
 10
-7.68721
 20
-9.32091
 30
0.0
 10
-7.68721
 20
-9.32091
 30
0.0
 10
-7.64231
 20
-9.35445
 30
0.0
 10
-7.5971
 20
-9.38876
 30
0.0
 10
-7.55833
 20
-9.42878
 30
0.0
 10
-7.55833
 20
-9.42878
 30
0.0
 10
-7.54163
 20
-9.44602
 30
0.0
 10
-7.53224
 20
-9.48005
 30
0.0
 10
-7.53605
 20
-9.50377
 30
0.0
 10
-7.53605
 20
-9.50377
 30
0.0
 10
-7.53846
 20
-9.5186
 30
0.0
 10
-7.57169
 20
-9.53873
 30
0.0
 10
-7.59107
 20
-9.53867
 30
0.0
 10
-7.59107
 20
-9.53867
 30
0.0
 10
-7.6531
 20
-9.53855
 30
0.0
 10
-7.71515
 20
-9.53015
 30
0.0
 10
-7.77716
 20
-9.52496
 30
0.0
  0
SPLINE
  5
78
330
1F
100
AcDbEntity
  8
Layer 1
370
    53
100
AcDbSpline
210
0.0
220
0.0
230
1.0
 70
    11
 71
     3
 72
   236
 73
   232
 74
     0
 42
0.0000000001
 43
0.0000000001
 12
1.0
 22
0.0
 32
0.0
 13
1.0
 23
0.0
 33
0.0
 40
0.0
 40
0.0
 40
0.0
 40
0.0
 40
0.0169491525423729
 40
0.0169491525423729
 40
0.0169491525423729
 40
0.0169491525423729
 40
0.0338983050847458
 40
0.0338983050847458
 40
0.0338983050847458
 40
0.0338983050847458
 40
0.0508474576271186
 40
0.0508474576271186
 40
0.0508474576271186
 40
0.0508474576271186
 40
0.0677966101694915
 40
0.0677966101694915
 40
0.0677966101694915
 40
0.0677966101694915
 40
0.0847457627118644
 40
0.0847457627118644
 40
0.0847457627118644
 40
0.0847457627118644
 40
0.1016949152542373
 40
0.1016949152542373
 40
0.1016949152542373
 40
0.1016949152542373
 40
0.1186440677966102
 40
0.1186440677966102
 40
0.1186440677966102
 40
0.1186440677966102
 40
0.1355932203389831
 40
0.1355932203389831
 40
0.1355932203389831
 40
0.1355932203389831
 40
0.1525423728813559
 40
0.1525423728813559
 40
0.1525423728813559
 40
0.1525423728813559
 40
0.1694915254237288
 40
0.1694915254237288
 40
0.1694915254237288
 40
0.1694915254237288
 40
0.1864406779661017
 40
0.1864406779661017
 40
0.1864406779661017
 40
0.1864406779661017
 40
0.2033898305084746
 40
0.2033898305084746
 40
0.2033898305084746
 40
0.2033898305084746
 40
0.2203389830508475
 40
0.2203389830508475
 40
0.2203389830508475
 40
0.2203389830508475
 40
0.2372881355932203
 40
0.2372881355932203
 40
0.2372881355932203
 40
0.2372881355932203
 40
0.2542372881355932
 40
0.2542372881355932
 40
0.2542372881355932
 40
0.2542372881355932
 40
0.2711864406779661
 40
0.2711864406779661
 40
0.2711864406779661
 40
0.2711864406779661
 40
0.288135593220339
 40
0.288135593220339
 40
0.288135593220339
 40
0.288135593220339
 40
0.3050847457627119
 40
0.3050847457627119
 40
0.3050847457627119
 40
0.3050847457627119
 40
0.3220338983050847
 40
0.3220338983050847
 40
0.3220338983050847
 40
0.3220338983050847
 40
0.3389830508474576
 40
0.3389830508474576
 40
0.3389830508474576
 40
0.3389830508474576
 40
0.3559322033898305
 40
0.3559322033898305
 40
0.3559322033898305
 40
0.3559322033898305
 40
0.3728813559322034
 40
0.3728813559322034
 40
0.3728813559322034
 40
0.3728813559322034
 40
0.3898305084745763
 40
0.3898305084745763
 40
0.3898305084745763
 40
0.3898305084745763
 40
0.4067796610169492
 40
0.4067796610169492
 40
0.4067796610169492
 40
0.4067796610169492
 40
0.423728813559322
 40
0.423728813559322
 40
0.423728813559322
 40
0.423728813559322
 40
0.4406779661016949
 40
0.4406779661016949
 40
0.4406779661016949
 40
0.4406779661016949
 40
0.4576271186440678
 40
0.4576271186440678
 40
0.4576271186440678
 40
0.4576271186440678
 40
0.4745762711864407
 40
0.4745762711864407
 40
0.4745762711864407
 40
0.4745762711864407
 40
0.4915254237288136
 40
0.4915254237288136
 40
0.4915254237288136
 40
0.4915254237288136
 40
0.5084745762711864
 40
0.5084745762711864
 40
0.5084745762711864
 40
0.5084745762711864
 40
0.5254237288135594
 40
0.5254237288135594
 40
0.5254237288135594
 40
0.5254237288135594
 40
0.5423728813559322
 40
0.5423728813559322
 40
0.5423728813559322
 40
0.5423728813559322
 40
0.559322033898305
 40
0.559322033898305
 40
0.559322033898305
 40
0.559322033898305
 40
0.576271186440678
 40
0.576271186440678
 40
0.576271186440678
 40
0.576271186440678
 40
0.5932203389830508
 40
0.5932203389830508
 40
0.5932203389830508
 40
0.5932203389830508
 40
0.6101694915254238
 40
0.6101694915254238
 40
0.6101694915254238
 40
0.6101694915254238
 40
0.6271186440677966
 40
0.6271186440677966
 40
0.6271186440677966
 40
0.6271186440677966
 40
0.6440677966101694
 40
0.6440677966101694
 40
0.6440677966101694
 40
0.6440677966101694
 40
0.6610169491525424
 40
0.6610169491525424
 40
0.6610169491525424
 40
0.6610169491525424
 40
0.6779661016949152
 40
0.6779661016949152
 40
0.6779661016949152
 40
0.6779661016949152
 40
0.6949152542372882
 40
0.6949152542372882
 40
0.6949152542372882
 40
0.6949152542372882
 40
0.711864406779661
 40
0.711864406779661
 40
0.711864406779661
 40
0.711864406779661
 40
0.7288135593220338
 40
0.7288135593220338
 40
0.7288135593220338
 40
0.7288135593220338
 40
0.7457627118644068
 40
0.7457627118644068
 40
0.7457627118644068
 40
0.7457627118644068
 40
0.7627118644067796
 40
0.7627118644067796
 40
0.7627118644067796
 40
0.7627118644067796
 40
0.7796610169491526
 40
0.7796610169491526
 40
0.7796610169491526
 40
0.7796610169491526
 40
0.7966101694915254
 40
0.7966101694915254
 40
0.7966101694915254
 40
0.7966101694915254
 40
0.8135593220338984
 40
0.8135593220338984
 40
0.8135593220338984
 40
0.8135593220338984
 40
0.8305084745762712
 40
0.8305084745762712
 40
0.8305084745762712
 40
0.8305084745762712
 40
0.847457627118644
 40
0.847457627118644
 40
0.847457627118644
 40
0.847457627118644
 40
0.864406779661017
 40
0.864406779661017
 40
0.864406779661017
 40
0.864406779661017
 40
0.8813559322033898
 40
0.8813559322033898
 40
0.8813559322033898
 40
0.8813559322033898
 40
0.8983050847457628
 40
0.8983050847457628
 40
0.8983050847457628
 40
0.8983050847457628
 40
0.9152542372881356
 40
0.9152542372881356
 40
0.9152542372881356
 40
0.9152542372881356
 40
0.9322033898305084
 40
0.9322033898305084
 40
0.9322033898305084
 40
0.9322033898305084
 40
0.9491525423728814
 40
0.9491525423728814
 40
0.9491525423728814
 40
0.9491525423728814
 40
0.9661016949152542
 40
0.9661016949152542
 40
0.9661016949152542
 40
0.9661016949152542
 40
1.0
 40
1.0
 40
1.0
 40
1.0
 10
-8.55
 20
-10.99224
 30
0.0
 10
-8.55
 20
-10.99224
 30
0.0
 10
-8.55
 20
-10.66365
 30
0.0
 10
-8.55
 20
-10.66365
 30
0.0
 10
-8.55
 20
-10.66365
 30
0.0
 10
-8.4161
 20
-10.65714
 30
0.0
 10
-8.28222
 20
-10.65054
 30
0.0
 10
-8.14912
 20
-10.6365
 30
0.0
 10
-8.14912
 20
-10.6365
 30
0.0
 10
-8.01032
 20
-10.62184
 30
0.0
 10
-7.88483
 20
-10.62936
 30
0.0
 10
-7.76643
 20
-10.71297
 30
0.0
 10
-7.76643
 20
-10.71297
 30
0.0
 10
-7.50308
 20
-10.89896
 30
0.0
 10
-7.21157
 20
-11.03649
 30
0.0
 10
-6.89185
 20
-11.06432
 30
0.0
 10
-6.89185
 20
-11.06432
 30
0.0
 10
-6.51259
 20
-11.09734
 30
0.0
 10
-6.16815
 20
-11.24628
 30
0.0
 10
-5.80586
 20
-11.33353
 30
0.0
 10
-5.80586
 20
-11.33353
 30
0.0
 10
-5.72344
 20
-11.35338
 30
0.0
 10
-5.64013
 20
-11.36945
 30
0.0
 10
-5.55721
 20
-11.38725
 30
0.0
 10
-5.55721
 20
-11.38725
 30
0.0
 10
-5.55721
 20
-11.38725
 30
0.0
 10
-5.27801
 20
-11.38725
 30
0.0
 10
-5.27801
 20
-11.38725
 30
0.0
 10
-5.27801
 20
-11.38725
 30
0.0
 10
-5.23408
 20
-11.36208
 30
0.0
 10
-5.18205
 20
-11.34537
 30
0.0
 10
-5.18091
 20
-11.28007
 30
0.0
 10
-5.18091
 20
-11.28007
 30
0.0
 10
-5.1797
 20
-11.211
 30
0.0
 10
-5.22037
 20
-11.16951
 30
0.0
 10
-5.2739
 20
-11.13943
 30
0.0
 10
-5.2739
 20
-11.13943
 30
0.0
 10
-5.3186
 20
-11.11429
 30
0.0
 10
-5.36621
 20
-11.09313
 30
0.0
 10
-5.41452
 20
-11.07574
 30
0.0
 10
-5.41452
 20
-11.07574
 30
0.0
 10
-5.64979
 20
-10.99112
 30
0.0
 10
-5.88617
 20
-10.90963
 30
0.0
 10
-6.12101
 20
-10.82385
 30
0.0
 10
-6.12101
 20
-10.82385
 30
0.0
 10
-6.16046
 20
-10.80945
 30
0.0
 10
-6.1943
 20
-10.77958
 30
0.0
 10
-6.23073
 20
-10.75685
 30
0.0
 10
-6.23073
 20
-10.75685
 30
0.0
 10
-6.2269
 20
-10.74716
 30
0.0
 10
-6.22309
 20
-10.73745
 30
0.0
 10
-6.21927
 20
-10.72776
 30
0.0
 10
-6.21927
 20
-10.72776
 30
0.0
 10
-6.14614
 20
-10.73491
 30
0.0
 10
-6.06997
 20
-10.73137
 30
0.0
 10
-6.00036
 20
-10.75101
 30
0.0
 10
-6.00036
 20
-10.75101
 30
0.0
 10
-5.61372
 20
-10.86018
 30
0.0
 10
-5.21931
 20
-10.91963
 30
0.0
 10
-4.81931
 20
-10.9433
 30
0.0
 10
-4.81931
 20
-10.9433
 30
0.0
 10
-4.73784
 20
-10.94811
 30
0.0
 10
-4.65354
 20
-10.94221
 30
0.0
 10
-4.57356
 20
-10.92612
 30
0.0
 10
-4.57356
 20
-10.92612
 30
0.0
 10
-4.46361
 20
-10.90402
 30
0.0
 10
-4.42619
 20
-10.81842
 30
0.0
 10
-4.46783
 20
-10.71352
 30
0.0
 10
-4.46783
 20
-10.71352
 30
0.0
 10
-4.50615
 20
-10.61701
 30
0.0
 10
-4.59254
 20
-10.5972
 30
0.0
 10
-4.67993
 20
-10.58127
 30
0.0
 10
-4.67993
 20
-10.58127
 30
0.0
 10
-4.94612
 20
-10.53281
 30
0.0
 10
-5.21306
 20
-10.48831
 30
0.0
 10
-5.47875
 20
-10.43728
 30
0.0
 10
-5.47875
 20
-10.43728
 30
0.0
 10
-5.63148
 20
-10.40796
 30
0.0
 10
-5.78231
 20
-10.36896
 30
0.0
 10
-5.93402
 20
-10.33431
 30
0.0
 10
-5.93402
 20
-10.33431
 30
0.0
 10
-5.88299
 20
-10.31496
 30
0.0
 10
-5.8342
 20
-10.30282
 30
0.0
 10
-5.78591
 20
-10.30465
 30
0.0
 10
-5.78591
 20
-10.30465
 30
0.0
 10
-5.50511
 20
-10.31527
 30
0.0
 10
-5.22446
 20
-10.33002
 30
0.0
 10
-4.94369
 20
-10.34168
 30
0.0
 10
-4.94369
 20
-10.34168
 30
0.0
 10
-4.71694
 20
-10.35111
 30
0.0
 10
-4.49015
 20
-10.36176
 30
0.0
 10
-4.26326
 20
-10.36439
 30
0.0
 10
-4.26326
 20
-10.36439
 30
0.0
 10
-4.17471
 20
-10.36542
 30
0.0
 10
-4.0892
 20
-10.33943
 30
0.0
 10
-4.03715
 20
-10.25494
 30
0.0
 10
-4.03715
 20
-10.25494
 30
0.0
 10
-4.03715
 20
-10.25494
 30
0.0
 10
-4.03715
 20
-10.13084
 30
0.0
 10
-4.03715
 20
-10.13084
 30
0.0
 10
-4.03715
 20
-10.13084
 30
0.0
 10
-4.10756
 20
-9.99885
 30
0.0
 10
-4.23722
 20
-9.99141
 30
0.0
 10
-4.36293
 20
-9.97628
 30
0.0
 10
-4.36293
 20
-9.97628
 30
0.0
 10
-4.60118
 20
-9.94759
 30
0.0
 10
-4.83913
 20
-9.91517
 30
0.0
 10
-5.07799
 20
-9.89259
 30
0.0
 10
-5.07799
 20
-9.89259
 30
0.0
 10
-5.25008
 20
-9.87631
 30
0.0
 10
-5.42343
 20
-9.87347
 30
0.0
 10
-5.59624
 20
-9.8646
 30
0.0
 10
-5.59624
 20
-9.8646
 30
0.0
 10
-5.68913
 20
-9.85985
 30
0.0
 10
-5.78216
 20
-9.8569
 30
0.0
 10
-5.87479
 20
-9.84907
 30
0.0
 10
-5.87479
 20
-9.84907
 30
0.0
 10
-5.899
 20
-9.84703
 30
0.0
 10
-5.9219
 20
-9.82983
 30
0.0
 10
-5.9454
 20
-9.81959
 30
0.0
 10
-5.9454
 20
-9.81959
 30
0.0
 10
-5.9452
 20
-9.80993
 30
0.0
 10
-5.94495
 20
-9.80029
 30
0.0
 10
-5.94472
 20
-9.79068
 30
0.0
 10
-5.94472
 20
-9.79068
 30
0.0
 10
-5.90241
 20
-9.78057
 30
0.0
 10
-5.86037
 20
-9.76308
 30
0.0
 10
-5.81777
 20
-9.76161
 30
0.0
 10
-5.81777
 20
-9.76161
 30
0.0
 10
-5.4485
 20
-9.74919
 30
0.0
 10
-5.07899
 20
-9.74265
 30
0.0
 10
-4.70989
 20
-9.72735
 30
0.0
 10
-4.70989
 20
-9.72735
 30
0.0
 10
-4.60294
 20
-9.72291
 30
0.0
 10
-4.49522
 20
-9.70267
 30
0.0
 10
-4.39108
 20
-9.67679
 30
0.0
 10
-4.39108
 20
-9.67679
 30
0.0
 10
-4.31234
 20
-9.65725
 30
0.0
 10
-4.27991
 20
-9.59172
 30
0.0
 10
-4.28075
 20
-9.50979
 30
0.0
 10
-4.28075
 20
-9.50979
 30
0.0
 10
-4.2816
 20
-9.42807
 30
0.0
 10
-4.31678
 20
-9.36686
 30
0.0
 10
-4.39302
 20
-9.342
 30
0.0
 10
-4.39302
 20
-9.342
 30
0.0
 10
-4.45088
 20
-9.32309
 30
0.0
 10
-4.51411
 20
-9.315
 30
0.0
 10
-4.57531
 20
-9.3129
 30
0.0
 10
-4.57531
 20
-9.3129
 30
0.0
 10
-4.88747
 20
-9.30223
 30
0.0
 10
-5.19986
 20
-9.29784
 30
0.0
 10
-5.51197
 20
-9.28593
 30
0.0
 10
-5.51197
 20
-9.28593
 30
0.0
 10
-5.77504
 20
-9.27591
 30
0.0
 10
-6.03793
 20
-9.26012
 30
0.0
 10
-6.30067
 20
-9.24327
 30
0.0
 10
-6.30067
 20
-9.24327
 30
0.0
 10
-6.35601
 20
-9.23973
 30
0.0
 10
-6.41039
 20
-9.22046
 30
0.0
 10
-6.48113
 20
-9.20493
 30
0.0
 10
-6.48113
 20
-9.20493
 30
0.0
 10
-6.32892
 20
-9.14984
 30
0.0
 10
-6.19115
 20
-9.10548
 30
0.0
 10
-6.05801
 20
-9.04995
 30
0.0
 10
-6.05801
 20
-9.04995
 30
0.0
 10
-5.96567
 20
-9.0114
 30
0.0
 10
-5.87908
 20
-8.95866
 30
0.0
 10
-5.79131
 20
-8.90975
 30
0.0
 10
-5.79131
 20
-8.90975
 30
0.0
 10
-5.76461
 20
-8.89489
 30
0.0
 10
-5.74151
 20
-8.8729
 30
0.0
 10
-5.71861
 20
-8.85213
 30
0.0
 10
-5.71861
 20
-8.85213
 30
0.0
 10
-5.62121
 20
-8.76372
 30
0.0
 10
-5.57006
 20
-8.64065
 30
0.0
 10
-5.61909
 20
-8.57352
 30
0.0
 10
-5.61909
 20
-8.57352
 30
0.0
 10
-5.68365
 20
-8.48513
 30
0.0
 10
-5.78938
 20
-8.50544
 30
0.0
 10
-5.87635
 20
-8.52346
 30
0.0
 10
-5.87635
 20
-8.52346
 30
0.0
 10
-6.03251
 20
-8.55579
 30
0.0
 10
-6.18479
 20
-8.6067
 30
0.0
 10
-6.33895
 20
-8.64886
 30
0.0
 10
-6.33895
 20
-8.64886
 30
0.0
 10
-6.42086
 20
-8.67126
 30
0.0
 10
-6.50238
 20
-8.69653
 30
0.0
 10
-6.58568
 20
-8.71204
 30
0.0
 10
-6.58568
 20
-8.71204
 30
0.0
 10
-6.95633
 20
-8.7811
 30
0.0
 10
-7.3179
 20
-8.88906
 30
0.0
 10
-7.63924
 20
-9.08232
 30
0.0
 10
-7.63924
 20
-9.08232
 30
0.0
 10
-7.88792
 20
-9.23187
 30
0.0
 10
-8.14811
 20
-9.26107
 30
0.0
 10
-8.42153
 20
-9.2765
 30
0.0
 10
-8.42153
 20
-9.2765
 30
0.0
 10
-8.46438
 20
-9.27891
 30
0.0
 10
-8.50727
 20
-9.28335
 30
0.0
 10
-8.55
 20
-9.2894
 30
0.0
 10
-8.55
 20
-9.2894
 30
0.0
 10
-8.55
 20
-9.2894
 30
0.0
 10
-8.55
 20
-9.09224
 30
0.0
 10
-8.55
 20
-9.09224
 30
0.0
 10
-8.55
 20
-9.09224
 30
0.0
 10
-8.55
 20
-8.8161
 30
0.0
 10
-8.77386
 20
-8.59224
 30
0.0
 10
-9.05
 20
-8.59224
 30
0.0
 10
-9.05
 20
-8.59224
 30
0.0
 10
-9.05
 20
-8.59224
 30
0.0
 10
-9.45
 20
-8.59224
 30
0.0
 10
-9.45
 20
-8.59224
 30
0.0
 10
-9.45
 20
-8.59224
 30
0.0
 10
-9.72614
 20
-8.59224
 30
0.0
 10
-9.95
 20
-8.8161
 30
0.0
 10
-9.95
 20
-9.09224
 30
0.0
 10
-9.95
 20
-9.09224
 30
0.0
 10
-9.95
 20
-9.09224
 30
0.0
 10
-9.95
 20
-10.99224
 30
0.0
 10
-9.95
 20
-10.99224
 30
0.0
 10
-9.95
 20
-10.99224
 30
0.0
 10
-9.95
 20
-11.26838
 30
0.0
 10
-9.72614
 20
-11.49224
 30
0.0
 10
-9.45
 20
-11.49224
 30
0.0
 10
-9.45
 20
-11.49224
 30
0.0
 10
-9.45
 20
-11.49224
 30
0.0
 10
-9.05
 20
-11.49224
 30
0.0
 10
-9.05
 20
-11.49224
 30
0.0
 10
-9.05
 20
-11.49224
 30
0.0
 10
-8.77386
 20
-11.49224
 30
0.0
 10
-8.55
 20
-11.26838
 30
0.0
 10
-8.55
 20
-10.99224
 30
0.0
  0
ELLIPSE
  5
79
330
1F
100
AcDbEntity
  8
Layer 1
370
    53
100
AcDbEllipse
 10
-9.25
 20
-9.29224
 30
0.0
 11
0.0
 21
0.325
 31
0.0
210
0.0
220
0.0
230
1.0
 40
1.0
 41
0.0
 42
6.283185307179586
  0
ELLIPSE
  5
7A
330
1F
100
AcDbEntity
  8
Layer 1
370
    53
100
AcDbEllipse
 10
-9.25
 20
-10.79224
 30
0.0
 11
0.0
 21
0.325
 31
0.0
210
0.0
220
0.0
230
1.0
 40
1.0
 41
0.0
 42
6.283185307179586
  0
ELLIPSE
  5
7B
330
1F
100
AcDbEntity
  8
Layer 1
370
    53
100
AcDbEllipse
 10
-10.75
 20
-10.04224
 30
0.0
 11
0.0
 21
0.18
 31
0.0
210
0.0
220
0.0
230
1.0
 40
1.0
 41
0.0
 42
6.283185307179586
  0
ELLIPSE
  5
7C
330
1F
100
AcDbEntity
  8
Layer 1
370
    53
100
AcDbEllipse
 10
-9.25
 20
-10.04224
 30
0.0
 11
0.0
 21
0.18
 31
0.0
210
0.0
220
0.0
230
1.0
 40
1.0
 41
0.0
 42
6.283185307179586
  0
ENDSEC
  0
SECTION
  2
OBJECTS
  0
DICTIONARY
  5
C
330
0
100
AcDbDictionary
281
     1
  3
ACAD_GROUP
350
D
  3
ACAD_LAYOUT
350
1A
  3
ACAD_MATERIAL
350
3B
  3
ACAD_MLEADERSTYLE
350
9E
  3
ACAD_MLINESTYLE
350
17
  3
ACAD_PLOTSETTINGS
350
19
  3
ACAD_PLOTSTYLENAME
350
E
  3
ACAD_TABLESTYLE
350
9D
  3
ACAD_VISUALSTYLE
350
2A
  0
DICTIONARY
  5
D
102
{ACAD_REACTORS
330
C
102
}
330
C
100
AcDbDictionary
281
     1
  0
DICTIONARY
  5
1A
102
{ACAD_REACTORS
330
C
102
}
330
C
100
AcDbDictionary
281
     1
  3
Layout1
350
1E
  3
Layout2
350
26
  3
Model
350
22
  0
DICTIONARY
  5
3B
102
{ACAD_REACTORS
330
C
102
}
330
C
100
AcDbDictionary
281
     1
  3
ByBlock
350
3D
  3
ByLayer
350
3C
  3
Global
350
3E
  0
DICTIONARY
  5
9E
102
{ACAD_REACTORS
330
C
102
}
330
C
100
AcDbDictionary
281
     1
  0
DICTIONARY
  5
17
102
{ACAD_REACTORS
330
C
102
}
330
C
100
AcDbDictionary
281
     1
  3
Standard
350
18
  0
DICTIONARY
  5
19
102
{ACAD_REACTORS
330
C
102
}
330
C
100
AcDbDictionary
281
     1
  0
ACDBDICTIONARYWDFLT
  5
E
102
{ACAD_REACTORS
330
C
102
}
330
C
100
AcDbDictionary
281
     1
  3
Normal
350
F
100
AcDbDictionaryWithDefault
340
F
  0
DICTIONARY
  5
9D
102
{ACAD_REACTORS
330
C
102
}
330
C
100
AcDbDictionary
281
     1
  0
DICTIONARY
  5
2A
102
{ACAD_REACTORS
330
C
102
}
330
C
100
AcDbDictionary
281
     1
  3
2dWireframe
350
2F
  3
3D Hidden
350
31
  3
3dWireframe
350
30
  3
Basic
350
32
  3
Brighten
350
36
  3
ColorChange
350
3A
  3
Conceptual
350
34
  3
Dim
350
35
  3
Facepattern
350
39
  3
Flat
350
2B
  3
FlatWithEdges
350
2C
  3
Gouraud
350
2D
  3
GouraudWithEdges
350
2E
  3
Linepattern
350
38
  3
Realistic
350
33
  3
Thicken
350
37
  0
LAYOUT
  5
1E
102
{ACAD_REACTORS
330
1A
102
}
330
1A
100
AcDbPlotSettings
  1

  2
none_device
  4

  6

 40
0.0
 41
0.0
 42
0.0
 43
0.0
 44
0.0
 45
0.0
 46
0.0
 47
0.0
 48
0.0
 49
0.0
140
0.0
141
0.0
142
1.0
143
1.0
 70
   688
 72
     0
 73
     0
 74
     5
  7

 75
    16
 76
     0
 77
     2
 78
   300
147
1.0
148
0.0
149
0.0
100
AcDbLayout
  1
Layout1
 70
     1
 71
     1
 10
0.0
 20
0.0
 11
12.0
 21
9.0
 12
0.0
 22
0.0
 32
0.0
 14
1.000000000000000E+20
 24
1.000000000000000E+20
 34
1.000000000000000E+20
 15
-1.000000000000000E+20
 25
-1.000000000000000E+20
 35
-1.000000000000000E+20
146
0.0
 13
0.0
 23
0.0
 33
0.0
 16
1.0
 26
0.0
 36
0.0
 17
0.0
 27
1.0
 37
0.0
 76
     0
330
1B
  0
LAYOUT
  5
26
102
{ACAD_REACTORS
330
1A
102
}
330
1A
100
AcDbPlotSettings
  1

  2
none_device
  4

  6

 40
0.0
 41
0.0
 42
0.0
 43
0.0
 44
0.0
 45
0.0
 46
0.0
 47
0.0
 48
0.0
 49
0.0
140
0.0
141
0.0
142
1.0
143
1.0
 70
   688
 72
     0
 73
     0
 74
     5
  7

 75
    16
 76
     0
 77
     2
 78
   300
147
1.0
148
0.0
149
0.0
100
AcDbLayout
  1
Layout2
 70
     1
 71
     2
 10
0.0
 20
0.0
 11
0.0
 21
0.0
 12
0.0
 22
0.0
 32
0.0
 14
0.0
 24
0.0
 34
0.0
 15
0.0
 25
0.0
 35
0.0
146
0.0
 13
0.0
 23
0.0
 33
0.0
 16
1.0
 26
0.0
 36
0.0
 17
0.0
 27
1.0
 37
0.0
 76
     0
330
23
  0
LAYOUT
  5
22
102
{ACAD_REACTORS
330
1A
102
}
330
1A
100
AcDbPlotSettings
  1

  2
none_device
  4

  6

 40
0.0
 41
0.0
 42
0.0
 43
0.0
 44
0.0
 45
0.0
 46
0.0
 47
0.0
 48
0.0
 49
0.0
140
0.0
141
0.0
142
1.0
143
1.0
 70
  1712
 72
     0
 73
     0
 74
     0
  7

 75
     0
 76
     0
 77
     2
 78
   300
147
1.0
148
0.0
149
0.0
100
AcDbLayout
  1
Model
 70
     1
 71
     0
 10
0.0
 20
0.0
 11
12.0
 21
9.0
 12
0.0
 22
0.0
 32
0.0
 14
-15.98931
 24
-11.5187
 34
0.0
 15
-4.01069
 25
-8.48133
 35
0.0
146
0.0
 13
0.0
 23
0.0
 33
0.0
 16
1.0
 26
0.0
 36
0.0
 17
0.0
 27
1.0
 37
0.0
 76
     0
330
1F
331
29
  0
MATERIAL
  5
3D
102
{ACAD_REACTORS
330
3B
102
}
330
3B
100
AcDbMaterial
  1
ByBlock
 72
     1
 94
      127
  0
MATERIAL
  5
3C
102
{ACAD_REACTORS
330
3B
102
}
330
3B
100
AcDbMaterial
  1
ByLayer
 72
     1
 94
      127
  0
MATERIAL
  5
3E
102
{ACAD_REACTORS
330
3B
102
}
330
3B
100
AcDbMaterial
  1
Global
 72
     1
 94
      127
  0
MLINESTYLE
  5
18
102
{ACAD_REACTORS
330
17
102
}
330
17
100
AcDbMlineStyle
  2
Standard
 70
     0
  3

 62
   256
 51
90.0
 52
90.0
 71
     2
 49
0.5
 62
   256
  6
BYLAYER
 49
-0.5
 62
   256
  6
BYLAYER
  0
ACDBPLACEHOLDER
  5
F
102
{ACAD_REACTORS
330
E
102
}
330
E
  0
VISUALSTYLE
  5
2F
102
{ACAD_REACTORS
330
2A
102
}
102
{ACAD_XDICTIONARY
360
85
102
}
330
2A
100
AcDbVisualStyle
  2
2dWireframe
 70
     4
 71
     0
 72
     2
 73
     0
 90
        0
 40
-0.6
 41
-30.0
 62
     5
 63
     7
421
 16777215
 74
     1
 91
        4
 64
     7
 65
   257
 75
     1
175
     1
 42
1.0
 92
        0
 66
   257
 43
1.0
 76
     1
 77
     6
 78
     2
 67
     7
 79
     5
170
     0
171
     0
290
     0
174
     0
 93
        1
 44
0.0
173
     0
291
     0
 45
0.0
  0
VISUALSTYLE
  5
31
102
{ACAD_REACTORS
330
2A
102
}
102
{ACAD_XDICTIONARY
360
89
102
}
330
2A
100
AcDbVisualStyle
  2
3D Hidden
 70
     6
 71
     1
 72
     2
 73
     2
 90
        0
 40
-0.6
 41
-30.0
 62
     5
 63
     7
421
 16777215
 74
     2
 91
        2
 64
     7
 65
   257
 75
     2
175
     1
 42
40.0
 92
        0
 66
   257
 43
1.0
 76
     1
 77
     6
 78
     2
 67
     7
 79
     3
170
     0
171
     0
290
     0
174
     0
 93
        1
 44
0.0
173
     0
291
     0
 45
0.0
  0
VISUALSTYLE
  5
30
102
{ACAD_REACTORS
330
2A
102
}
102
{ACAD_XDICTIONARY
360
87
102
}
330
2A
100
AcDbVisualStyle
  2
3dWireframe
 70
     5
 71
     0
 72
     2
 73
     0
 90
        0
 40
-0.6
 41
-30.0
 62
     5
 63
     7
421
 16777215
 74
     1
 91
        4
 64
     7
 65
   257
 75
     1
175
     1
 42
1.0
 92
        0
 66
   257
 43
1.0
 76
     1
 77
     6
 78
     2
 67
     7
 79
     5
170
     0
171
     0
290
     0
174
     0
 93
        1
 44
0.0
173
     0
291
     0
 45
0.0
  0
VISUALSTYLE
  5
32
102
{ACAD_REACTORS
330
2A
102
}
102
{ACAD_XDICTIONARY
360
8B
102
}
330
2A
100
AcDbVisualStyle
  2
Basic
 70
     7
 71
     1
 72
     0
 73
     1
 90
        0
 40
-0.6
 41
-30.0
 62
     5
 63
     7
421
 16777215
 74
     0
 91
        4
 64
     7
 65
   257
 75
     1
175
     1
 42
1.0
 92
        8
 66
     7
 43
1.0
 76
     1
 77
     6
 78
     2
 67
     7
 79
     5
170
     0
171
     0
290
     0
174
     0
 93
        1
 44
0.0
173
     0
291
     1
 45
0.0
  0
VISUALSTYLE
  5
36
102
{ACAD_REACTORS
330
2A
102
}
102
{ACAD_XDICTIONARY
360
93
102
}
330
2A
100
AcDbVisualStyle
  2
Brighten
 70
    12
 71
     2
 72
     2
 73
     0
 90
        0
 40
-0.6
 41
-30.0
 62
     5
 63
     7
421
 16777215
 74
     1
 91
        4
 64
     7
 65
   257
 75
     1
175
     1
 42
1.0
 92
        8
 66
     7
 43
1.0
 76
     1
 77
     6
 78
     2
 67
     7
 79
     5
170
     0
171
     0
290
     0
174
     0
 93
        1
 44
50.0
173
     0
291
     1
 45
0.0
  0
VISUALSTYLE
  5
3A
102
{ACAD_REACTORS
330
2A
102
}
102
{ACAD_XDICTIONARY
360
9B
102
}
330
2A
100
AcDbVisualStyle
  2
ColorChange
 70
    16
 71
     2
 72
     2
 73
     3
 90
        0
 40
-0.6
 41
-30.0
 62
     5
 63
     8
421
  8421504
 74
     1
 91
        4
 64
     7
 65
   257
 75
     1
175
     1
 42
1.0
 92
        8
 66
     8
424
  8421504
 43
1.0
 76
     1
 77
     6
 78
     2
 67
     7
 79
     5
170
     0
171
     0
290
     0
174
     0
 93
        1
 44
0.0
173
     0
291
     1
 45
0.0
  0
VISUALSTYLE
  5
34
102
{ACAD_REACTORS
330
2A
102
}
102
{ACAD_XDICTIONARY
360
8F
102
}
330
2A
100
AcDbVisualStyle
  2
Conceptual
 70
     9
 71
     3
 72
     2
 73
     0
 90
        0
 40
-0.6
 41
-30.0
 62
     5
 63
     7
421
 16777215
 74
     2
 91
        2
 64
     7
 65
   257
 75
     1
175
     1
 42
40.0
 92
        8
 66
     7
 43
1.0
 76
     1
 77
     6
 78
     2
 67
     7
 79
     3
170
     0
171
     0
290
     0
174
     0
 93
        1
 44
0.0
173
     0
291
     0
 45
0.0
  0
VISUALSTYLE
  5
35
102
{ACAD_REACTORS
330
2A
102
}
102
{ACAD_XDICTIONARY
360
91
102
}
330
2A
100
AcDbVisualStyle
  2
Dim
 70
    11
 71
     2
 72
     2
 73
     0
 90
        0
 40
-0.6
 41
-30.0
 62
     5
 63
     7
421
 16777215
 74
     1
 91
        4
 64
     7
 65
   257
 75
     1
175
     1
 42
1.0
 92
        8
 66
     7
 43
1.0
 76
     1
 77
     6
 78
     2
 67
     7
 79
     5
170
     0
171
     0
290
     0
174
     0
 93
        1
 44
-50.0
173
     0
291
     1
 45
0.0
  0
VISUALSTYLE
  5
39
102
{ACAD_REACTORS
330
2A
102
}
102
{ACAD_XDICTIONARY
360
99
102
}
330
2A
100
AcDbVisualStyle
  2
Facepattern
 70
    15
 71
     2
 72
     2
 73
     0
 90
        0
 40
-0.6
 41
-30.0
 62
     5
 63
     7
421
 16777215
 74
     1
 91
        4
 64
     7
 65
   257
 75
     1
175
     1
 42
1.0
 92
        8
 66
     7
 43
1.0
 76
     1
 77
     6
 78
     2
 67
     7
 79
     5
170
     0
171
     0
290
     0
174
     0
 93
        1
 44
0.0
173
     0
291
     1
 45
0.0
  0
VISUALSTYLE
  5
2B
102
{ACAD_REACTORS
330
2A
102
}
102
{ACAD_XDICTIONARY
360
7D
102
}
330
2A
100
AcDbVisualStyle
  2
Flat
 70
     0
 71
     2
 72
     1
 73
     1
 90
        2
 40
-0.6
 41
30.0
 62
     5
 63
     7
421
 16777215
 74
     0
 91
        4
 64
     7
 65
   257
 75
     1
175
     1
 42
1.0
 92
        8
 66
     7
 43
1.0
 76
     1
 77
     6
 78
     2
 67
     7
 79
     5
170
     0
171
     0
290
     0
174
     0
 93
       13
 44
0.0
173
     0
291
     1
 45
0.0
  0
VISUALSTYLE
  5
2C
102
{ACAD_REACTORS
330
2A
102
}
102
{ACAD_XDICTIONARY
360
7F
102
}
330
2A
100
AcDbVisualStyle
  2
FlatWithEdges
 70
     1
 71
     2
 72
     1
 73
     1
 90
        2
 40
-0.6
 41
30.0
 62
     5
 63
     7
421
 16777215
 74
     1
 91
        4
 64
     7
 65
   257
 75
     1
175
     1
 42
1.0
 92
        0
 66
   257
 43
1.0
 76
     1
 77
     6
 78
     2
 67
     7
 79
     5
170
     0
171
     0
290
     0
174
     0
 93
       13
 44
0.0
173
     0
291
     1
 45
0.0
  0
VISUALSTYLE
  5
2D
102
{ACAD_REACTORS
330
2A
102
}
102
{ACAD_XDICTIONARY
360
81
102
}
330
2A
100
AcDbVisualStyle
  2
Gouraud
 70
     2
 71
     2
 72
     2
 73
     1
 90
        2
 40
-0.6
 41
30.0
 62
     5
 63
     7
421
 16777215
 74
     0
 91
        4
 64
     7
 65
   257
 75
     1
175
     1
 42
1.0
 92
        0
 66
     7
 43
1.0
 76
     1
 77
     6
 78
     2
 67
     7
 79
     5
170
     0
171
     0
290
     0
174
     0
 93
       13
 44
0.0
173
     0
291
     1
 45
0.0
  0
VISUALSTYLE
  5
2E
102
{ACAD_REACTORS
330
2A
102
}
102
{ACAD_XDICTIONARY
360
83
102
}
330
2A
100
AcDbVisualStyle
  2
GouraudWithEdges
 70
     3
 71
     2
 72
     2
 73
     1
 90
        2
 40
-0.6
 41
30.0
 62
     5
 63
     7
421
 16777215
 74
     1
 91
        4
 64
     7
 65
   257
 75
     1
175
     1
 42
1.0
 92
        0
 66
   257
 43
1.0
 76
     1
 77
     6
 78
     2
 67
     7
 79
     5
170
     0
171
     0
290
     0
174
     0
 93
       13
 44
0.0
173
     0
291
     1
 45
0.0
  0
VISUALSTYLE
  5
38
102
{ACAD_REACTORS
330
2A
102
}
102
{ACAD_XDICTIONARY
360
97
102
}
330
2A
100
AcDbVisualStyle
  2
Linepattern
 70
    14
 71
     2
 72
     2
 73
     0
 90
        0
 40
-0.6
 41
-30.0
 62
     5
 63
     7
421
 16777215
 74
     1
 91
        4
 64
     7
 65
   257
 75
     7
175
     7
 42
1.0
 92
        8
 66
     7
 43
1.0
 76
     1
 77
     6
 78
     2
 67
     7
 79
     5
170
     0
171
     0
290
     0
174
     0
 93
        1
 44
0.0
173
     0
291
     1
 45
0.0
  0
VISUALSTYLE
  5
33
102
{ACAD_REACTORS
330
2A
102
}
102
{ACAD_XDICTIONARY
360
8D
102
}
330
2A
100
AcDbVisualStyle
  2
Realistic
 70
     8
 71
     2
 72
     2
 73
     0
 90
        0
 40
-0.6
 41
-30.0
 62
     5
 63
     7
421
 16777215
 74
     1
 91
        0
 64
     7
 65
   257
 75
     1
175
     1
 42
1.0
 92
        8
 66
     8
424
  7895160
 43
1.0
 76
     1
 77
     6
 78
     2
 67
     7
 79
     5
170
     0
171
     0
290
     0
174
     0
 93
       13
 44
0.0
173
     0
291
     0
 45
0.0
  0
VISUALSTYLE
  5
37
102
{ACAD_REACTORS
330
2A
102
}
102
{ACAD_XDICTIONARY
360
95
102
}
330
2A
100
AcDbVisualStyle
  2
Thicken
 70
    13
 71
     2
 72
     2
 73
     0
 90
        0
 40
-0.6
 41
-30.0
 62
     5
 63
     7
421
 16777215
 74
     1
 91
        4
 64
     7
 65
   257
 75
     1
175
     1
 42
1.0
 92
       12
 66
     7
 43
1.0
 76
     1
 77
     6
 78
     2
 67
     7
 79
     5
170
     0
171
     0
290
     0
174
     0
 93
        1
 44
0.0
173
     0
291
     1
 45
0.0
  0
DICTIONARY
  5
85
330
2F
100
AcDbDictionary
280
     1
281
     1
  3
ACAD_XREC_ROUNDTRIP
360
86
  0
DICTIONARY
  5
89
330
31
100
AcDbDictionary
280
     1
281
     1
  3
ACAD_XREC_ROUNDTRIP
360
8A
  0
DICTIONARY
  5
87
330
30
100
AcDbDictionary
280
     1
281
     1
  3
ACAD_XREC_ROUNDTRIP
360
88
  0
DICTIONARY
  5
8B
330
32
100
AcDbDictionary
280
     1
281
     1
  3
ACAD_XREC_ROUNDTRIP
360
8C
  0
DICTIONARY
  5
93
330
36
100
AcDbDictionary
280
     1
281
     1
  3
ACAD_XREC_ROUNDTRIP
360
94
  0
DICTIONARY
  5
9B
330
3A
100
AcDbDictionary
280
     1
281
     1
  3
ACAD_XREC_ROUNDTRIP
360
9C
  0
DICTIONARY
  5
8F
330
34
100
AcDbDictionary
280
     1
281
     1
  3
ACAD_XREC_ROUNDTRIP
360
90
  0
DICTIONARY
  5
91
330
35
100
AcDbDictionary
280
     1
281
     1
  3
ACAD_XREC_ROUNDTRIP
360
92
  0
DICTIONARY
  5
99
330
39
100
AcDbDictionary
280
     1
281
     1
  3
ACAD_XREC_ROUNDTRIP
360
9A
  0
DICTIONARY
  5
7D
330
2B
100
AcDbDictionary
280
     1
281
     1
  3
ACAD_XREC_ROUNDTRIP
360
7E
  0
DICTIONARY
  5
7F
330
2C
100
AcDbDictionary
280
     1
281
     1
  3
ACAD_XREC_ROUNDTRIP
360
80
  0
DICTIONARY
  5
81
330
2D
100
AcDbDictionary
280
     1
281
     1
  3
ACAD_XREC_ROUNDTRIP
360
82
  0
DICTIONARY
  5
83
330
2E
100
AcDbDictionary
280
     1
281
     1
  3
ACAD_XREC_ROUNDTRIP
360
84
  0
DICTIONARY
  5
97
330
38
100
AcDbDictionary
280
     1
281
     1
  3
ACAD_XREC_ROUNDTRIP
360
98
  0
DICTIONARY
  5
8D
330
33
100
AcDbDictionary
280
     1
281
     1
  3
ACAD_XREC_ROUNDTRIP
360
8E
  0
DICTIONARY
  5
95
330
37
100
AcDbDictionary
280
     1
281
     1
  3
ACAD_XREC_ROUNDTRIP
360
96
  0
XRECORD
  5
86
102
{ACAD_REACTORS
330
85
102
}
330
85
100
AcDbXrecord
280
     1
102
RTVSPropertyOp0
 70
     1
102
RTVSPropertyOp1
 70
     1
102
RTVSPropertyOp2
 70
     1
102
RTVSPropertyOp3
 70
     1
102
RTVSPropertyOp4
 70
     1
102
RTVSPropertyOp5
 70
     1
102
RTVSPropertyOp6
 70
     1
102
RTVSPropertyOp7
 70
     1
102
RTVSPropertyOp8
 70
     1
102
RTVSPropertyOp9
 70
     1
102
RTVSPropertyOp10
 70
     1
102
RTVSPropertyOp11
 70
     1
102
RTVSPropertyOp12
 70
     1
102
RTVSPropertyOp13
 70
     1
102
RTVSPropertyOp14
 70
     1
102
RTVSPropertyOp15
 70
     1
102
RTVSPropertyOp16
 70
     1
102
RTVSPropertyOp17
 70
     1
102
RTVSPropertyOp18
 70
     1
102
RTVSPropertyOp19
 70
     1
102
RTVSPropertyOp20
 70
     1
102
RTVSPropertyOp21
 70
     1
102
RTVSPropertyOp22
 70
     1
102
RTVSPropertyOp23
 70
     1
102
RTVSPropertyOp24
 70
     1
102
RTVSPropertyOp25
 70
     1
102
RTVSPropertyOp26
 70
     1
102
RTVSPropertyOp27
 70
     1
102
RTVSPropertyOp28
 70
     1
102
RTVSPropertyOp29
 70
     1
102
RTVSPropertyOp30
 70
     1
102
RTVSPropertyOp31
 70
     1
102
RTVSPropertyOp32
 70
     1
  0
XRECORD
  5
8A
102
{ACAD_REACTORS
330
89
102
}
330
89
100
AcDbXrecord
280
     1
102
RTVSPropertyOp0
 70
     1
102
RTVSPropertyOp1
 70
     1
102
RTVSPropertyOp2
 70
     1
102
RTVSPropertyOp3
 70
     1
102
RTVSPropertyOp4
 70
     1
102
RTVSPropertyOp5
 70
     1
102
RTVSPropertyOp6
 70
     1
102
RTVSPropertyOp7
 70
     1
102
RTVSPropertyOp8
 70
     1
102
RTVSPropertyOp9
 70
     1
102
RTVSPropertyOp10
 70
     1
102
RTVSPropertyOp11
 70
     1
102
RTVSPropertyOp12
 70
     1
102
RTVSPropertyOp13
 70
     1
102
RTVSPropertyOp14
 70
     1
102
RTVSPropertyOp15
 70
     1
102
RTVSPropertyOp16
 70
     1
102
RTVSPropertyOp17
 70
     1
102
RTVSPropertyOp18
 70
     1
102
RTVSPropertyOp19
 70
     1
102
RTVSPropertyOp20
 70
     1
102
RTVSPropertyOp21
 70
     1
102
RTVSPropertyOp22
 70
     1
102
RTVSPropertyOp23
 70
     1
102
RTVSPropertyOp24
 70
     1
102
RTVSPropertyOp25
 70
     1
102
RTVSPropertyOp26
 70
     1
102
RTVSPropertyOp27
 70
     1
102
RTVSPropertyOp28
 70
     1
102
RTVSPropertyOp29
 70
     1
102
RTVSPropertyOp30
 70
     1
102
RTVSPropertyOp31
 70
     1
102
RTVSPropertyOp32
 70
     1
  0
XRECORD
  5
88
102
{ACAD_REACTORS
330
87
102
}
330
87
100
AcDbXrecord
280
     1
102
RTVSPropertyOp0
 70
     1
102
RTVSPropertyOp1
 70
     1
102
RTVSPropertyOp2
 70
     1
102
RTVSPropertyOp3
 70
     1
102
RTVSPropertyOp4
 70
     1
102
RTVSPropertyOp5
 70
     1
102
RTVSPropertyOp6
 70
     1
102
RTVSPropertyOp7
 70
     1
102
RTVSPropertyOp8
 70
     1
102
RTVSPropertyOp9
 70
     1
102
RTVSPropertyOp10
 70
     1
102
RTVSPropertyOp11
 70
     1
102
RTVSPropertyOp12
 70
     1
102
RTVSPropertyOp13
 70
     1
102
RTVSPropertyOp14
 70
     1
102
RTVSPropertyOp15
 70
     1
102
RTVSPropertyOp16
 70
     1
102
RTVSPropertyOp17
 70
     1
102
RTVSPropertyOp18
 70
     1
102
RTVSPropertyOp19
 70
     1
102
RTVSPropertyOp20
 70
     1
102
RTVSPropertyOp21
 70
     1
102
RTVSPropertyOp22
 70
     1
102
RTVSPropertyOp23
 70
     1
102
RTVSPropertyOp24
 70
     1
102
RTVSPropertyOp25
 70
     1
102
RTVSPropertyOp26
 70
     1
102
RTVSPropertyOp27
 70
     1
102
RTVSPropertyOp28
 70
     1
102
RTVSPropertyOp29
 70
     1
102
RTVSPropertyOp30
 70
     1
102
RTVSPropertyOp31
 70
     1
102
RTVSPropertyOp32
 70
     1
  0
XRECORD
  5
8C
102
{ACAD_REACTORS
330
8B
102
}
330
8B
100
AcDbXrecord
280
     1
102
RTVSPropertyOp0
 70
     1
102
RTVSPropertyOp1
 70
     1
102
RTVSPropertyOp2
 70
     1
102
RTVSPropertyOp3
 70
     1
102
RTVSPropertyOp4
 70
     1
102
RTVSPropertyOp5
 70
     1
102
RTVSPropertyOp6
 70
     1
102
RTVSPropertyOp7
 70
     1
102
RTVSPropertyOp8
 70
     1
102
RTVSPropertyOp9
 70
     1
102
RTVSPropertyOp10
 70
     1
102
RTVSPropertyOp11
 70
     1
102
RTVSPropertyOp12
 70
     1
102
RTVSPropertyOp13
 70
     1
102
RTVSPropertyOp14
 70
     1
102
RTVSPropertyOp15
 70
     1
102
RTVSPropertyOp16
 70
     1
102
RTVSPropertyOp17
 70
     1
102
RTVSPropertyOp18
 70
     1
102
RTVSPropertyOp19
 70
     1
102
RTVSPropertyOp20
 70
     1
102
RTVSPropertyOp21
 70
     1
102
RTVSPropertyOp22
 70
     1
102
RTVSPropertyOp23
 70
     1
102
RTVSPropertyOp24
 70
     1
102
RTVSPropertyOp25
 70
     1
102
RTVSPropertyOp26
 70
     1
102
RTVSPropertyOp27
 70
     1
102
RTVSPropertyOp28
 70
     1
102
RTVSPropertyOp29
 70
     1
102
RTVSPropertyOp30
 70
     1
102
RTVSPropertyOp31
 70
     1
102
RTVSPropertyOp32
 70
     1
  0
XRECORD
  5
94
102
{ACAD_REACTORS
330
93
102
}
330
93
100
AcDbXrecord
280
     1
102
RTVSPropertyOp0
 70
     1
102
RTVSPropertyOp1
 70
     1
102
RTVSPropertyOp2
 70
     1
102
RTVSPropertyOp3
 70
     1
102
RTVSPropertyOp4
 70
     1
102
RTVSPropertyOp5
 70
     1
102
RTVSPropertyOp6
 70
     1
102
RTVSPropertyOp7
 70
     1
102
RTVSPropertyOp8
 70
     1
102
RTVSPropertyOp9
 70
     1
102
RTVSPropertyOp10
 70
     1
102
RTVSPropertyOp11
 70
     1
102
RTVSPropertyOp12
 70
     1
102
RTVSPropertyOp13
 70
     1
102
RTVSPropertyOp14
 70
     1
102
RTVSPropertyOp15
 70
     1
102
RTVSPropertyOp16
 70
     1
102
RTVSPropertyOp17
 70
     1
102
RTVSPropertyOp18
 70
     1
102
RTVSPropertyOp19
 70
     1
102
RTVSPropertyOp20
 70
     1
102
RTVSPropertyOp21
 70
     1
102
RTVSPropertyOp22
 70
     1
102
RTVSPropertyOp23
 70
     1
102
RTVSPropertyOp24
 70
     1
102
RTVSPropertyOp25
 70
     1
102
RTVSPropertyOp26
 70
     1
102
RTVSPropertyOp27
 70
     1
102
RTVSPropertyOp28
 70
     1
102
RTVSPropertyOp29
 70
     1
102
RTVSPropertyOp30
 70
     1
102
RTVSPropertyOp31
 70
     1
102
RTVSPropertyOp32
 70
     1
  0
XRECORD
  5
9C
102
{ACAD_REACTORS
330
9B
102
}
330
9B
100
AcDbXrecord
280
     1
102
RTVSPropertyOp0
 70
     1
102
RTVSPropertyOp1
 70
     1
102
RTVSPropertyOp2
 70
     1
102
RTVSPropertyOp3
 70
     1
102
RTVSPropertyOp4
 70
     1
102
RTVSPropertyOp5
 70
     1
102
RTVSPropertyOp6
 70
     1
102
RTVSPropertyOp7
 70
     1
102
RTVSPropertyOp8
 70
     1
102
RTVSPropertyOp9
 70
     1
102
RTVSPropertyOp10
 70
     1
102
RTVSPropertyOp11
 70
     1
102
RTVSPropertyOp12
 70
     1
102
RTVSPropertyOp13
 70
     1
102
RTVSPropertyOp14
 70
     1
102
RTVSPropertyOp15
 70
     1
102
RTVSPropertyOp16
 70
     1
102
RTVSPropertyOp17
 70
     1
102
RTVSPropertyOp18
 70
     1
102
RTVSPropertyOp19
 70
     1
102
RTVSPropertyOp20
 70
     1
102
RTVSPropertyOp21
 70
     1
102
RTVSPropertyOp22
 70
     1
102
RTVSPropertyOp23
 70
     1
102
RTVSPropertyOp24
 70
     1
102
RTVSPropertyOp25
 70
     1
102
RTVSPropertyOp26
 70
     1
102
RTVSPropertyOp27
 70
     1
102
RTVSPropertyOp28
 70
     1
102
RTVSPropertyOp29
 70
     1
102
RTVSPropertyOp30
 70
     1
102
RTVSPropertyOp31
 70
     1
102
RTVSPropertyOp32
 70
     1
  0
XRECORD
  5
90
102
{ACAD_REACTORS
330
8F
102
}
330
8F
100
AcDbXrecord
280
     1
102
RTVSPropertyOp0
 70
     1
102
RTVSPropertyOp1
 70
     1
102
RTVSPropertyOp2
 70
     1
102
RTVSPropertyOp3
 70
     1
102
RTVSPropertyOp4
 70
     1
102
RTVSPropertyOp5
 70
     1
102
RTVSPropertyOp6
 70
     1
102
RTVSPropertyOp7
 70
     1
102
RTVSPropertyOp8
 70
     1
102
RTVSPropertyOp9
 70
     1
102
RTVSPropertyOp10
 70
     1
102
RTVSPropertyOp11
 70
     1
102
RTVSPropertyOp12
 70
     1
102
RTVSPropertyOp13
 70
     1
102
RTVSPropertyOp14
 70
     1
102
RTVSPropertyOp15
 70
     1
102
RTVSPropertyOp16
 70
     1
102
RTVSPropertyOp17
 70
     1
102
RTVSPropertyOp18
 70
     1
102
RTVSPropertyOp19
 70
     1
102
RTVSPropertyOp20
 70
     1
102
RTVSPropertyOp21
 70
     1
102
RTVSPropertyOp22
 70
     1
102
RTVSPropertyOp23
 70
     1
102
RTVSPropertyOp24
 70
     1
102
RTVSPropertyOp25
 70
     1
102
RTVSPropertyOp26
 70
     1
102
RTVSPropertyOp27
 70
     1
102
RTVSPropertyOp28
 70
     1
102
RTVSPropertyOp29
 70
     1
102
RTVSPropertyOp30
 70
     1
102
RTVSPropertyOp31
 70
     1
102
RTVSPropertyOp32
 70
     1
  0
XRECORD
  5
92
102
{ACAD_REACTORS
330
91
102
}
330
91
100
AcDbXrecord
280
     1
102
RTVSPropertyOp0
 70
     1
102
RTVSPropertyOp1
 70
     1
102
RTVSPropertyOp2
 70
     1
102
RTVSPropertyOp3
 70
     1
102
RTVSPropertyOp4
 70
     1
102
RTVSPropertyOp5
 70
     1
102
RTVSPropertyOp6
 70
     1
102
RTVSPropertyOp7
 70
     1
102
RTVSPropertyOp8
 70
     1
102
RTVSPropertyOp9
 70
     1
102
RTVSPropertyOp10
 70
     1
102
RTVSPropertyOp11
 70
     1
102
RTVSPropertyOp12
 70
     1
102
RTVSPropertyOp13
 70
     1
102
RTVSPropertyOp14
 70
     1
102
RTVSPropertyOp15
 70
     1
102
RTVSPropertyOp16
 70
     1
102
RTVSPropertyOp17
 70
     1
102
RTVSPropertyOp18
 70
     1
102
RTVSPropertyOp19
 70
     1
102
RTVSPropertyOp20
 70
     1
102
RTVSPropertyOp21
 70
     1
102
RTVSPropertyOp22
 70
     1
102
RTVSPropertyOp23
 70
     1
102
RTVSPropertyOp24
 70
     1
102
RTVSPropertyOp25
 70
     1
102
RTVSPropertyOp26
 70
     1
102
RTVSPropertyOp27
 70
     1
102
RTVSPropertyOp28
 70
     1
102
RTVSPropertyOp29
 70
     1
102
RTVSPropertyOp30
 70
     1
102
RTVSPropertyOp31
 70
     1
102
RTVSPropertyOp32
 70
     1
  0
XRECORD
  5
9A
102
{ACAD_REACTORS
330
99
102
}
330
99
100
AcDbXrecord
280
     1
102
RTVSPropertyOp0
 70
     1
102
RTVSPropertyOp1
 70
     1
102
RTVSPropertyOp2
 70
     1
102
RTVSPropertyOp3
 70
     1
102
RTVSPropertyOp4
 70
     1
102
RTVSPropertyOp5
 70
     1
102
RTVSPropertyOp6
 70
     1
102
RTVSPropertyOp7
 70
     1
102
RTVSPropertyOp8
 70
     1
102
RTVSPropertyOp9
 70
     1
102
RTVSPropertyOp10
 70
     1
102
RTVSPropertyOp11
 70
     1
102
RTVSPropertyOp12
 70
     1
102
RTVSPropertyOp13
 70
     1
102
RTVSPropertyOp14
 70
     1
102
RTVSPropertyOp15
 70
     1
102
RTVSPropertyOp16
 70
     1
102
RTVSPropertyOp17
 70
     1
102
RTVSPropertyOp18
 70
     1
102
RTVSPropertyOp19
 70
     1
102
RTVSPropertyOp20
 70
     1
102
RTVSPropertyOp21
 70
     1
102
RTVSPropertyOp22
 70
     1
102
RTVSPropertyOp23
 70
     1
102
RTVSPropertyOp24
 70
     1
102
RTVSPropertyOp25
 70
     1
102
RTVSPropertyOp26
 70
     1
102
RTVSPropertyOp27
 70
     1
102
RTVSPropertyOp28
 70
     1
102
RTVSPropertyOp29
 70
     1
102
RTVSPropertyOp30
 70
     1
102
RTVSPropertyOp31
 70
     1
102
RTVSPropertyOp32
 70
     1
  0
XRECORD
  5
7E
102
{ACAD_REACTORS
330
7D
102
}
330
7D
100
AcDbXrecord
280
     1
102
RTVSPropertyOp0
 70
     1
102
RTVSPropertyOp1
 70
     1
102
RTVSPropertyOp2
 70
     1
102
RTVSPropertyOp3
 70
     1
102
RTVSPropertyOp4
 70
     1
102
RTVSPropertyOp5
 70
     1
102
RTVSPropertyOp6
 70
     1
102
RTVSPropertyOp7
 70
     1
102
RTVSPropertyOp8
 70
     1
102
RTVSPropertyOp9
 70
     1
102
RTVSPropertyOp10
 70
     1
102
RTVSPropertyOp11
 70
     1
102
RTVSPropertyOp12
 70
     1
102
RTVSPropertyOp13
 70
     1
102
RTVSPropertyOp14
 70
     1
102
RTVSPropertyOp15
 70
     1
102
RTVSPropertyOp16
 70
     1
102
RTVSPropertyOp17
 70
     1
102
RTVSPropertyOp18
 70
     1
102
RTVSPropertyOp19
 70
     1
102
RTVSPropertyOp20
 70
     1
102
RTVSPropertyOp21
 70
     1
102
RTVSPropertyOp22
 70
     1
102
RTVSPropertyOp23
 70
     1
102
RTVSPropertyOp24
 70
     1
102
RTVSPropertyOp25
 70
     1
102
RTVSPropertyOp26
 70
     1
102
RTVSPropertyOp27
 70
     1
102
RTVSPropertyOp28
 70
     1
102
RTVSPropertyOp29
 70
     1
102
RTVSPropertyOp30
 70
     1
102
RTVSPropertyOp31
 70
     1
102
RTVSPropertyOp32
 70
     1
  0
XRECORD
  5
80
102
{ACAD_REACTORS
330
7F
102
}
330
7F
100
AcDbXrecord
280
     1
102
RTVSPropertyOp0
 70
     1
102
RTVSPropertyOp1
 70
     1
102
RTVSPropertyOp2
 70
     1
102
RTVSPropertyOp3
 70
     1
102
RTVSPropertyOp4
 70
     1
102
RTVSPropertyOp5
 70
     1
102
RTVSPropertyOp6
 70
     1
102
RTVSPropertyOp7
 70
     1
102
RTVSPropertyOp8
 70
     1
102
RTVSPropertyOp9
 70
     1
102
RTVSPropertyOp10
 70
     1
102
RTVSPropertyOp11
 70
     1
102
RTVSPropertyOp12
 70
     1
102
RTVSPropertyOp13
 70
     1
102
RTVSPropertyOp14
 70
     1
102
RTVSPropertyOp15
 70
     1
102
RTVSPropertyOp16
 70
     1
102
RTVSPropertyOp17
 70
     1
102
RTVSPropertyOp18
 70
     1
102
RTVSPropertyOp19
 70
     1
102
RTVSPropertyOp20
 70
     1
102
RTVSPropertyOp21
 70
     1
102
RTVSPropertyOp22
 70
     1
102
RTVSPropertyOp23
 70
     1
102
RTVSPropertyOp24
 70
     1
102
RTVSPropertyOp25
 70
     1
102
RTVSPropertyOp26
 70
     1
102
RTVSPropertyOp27
 70
     1
102
RTVSPropertyOp28
 70
     1
102
RTVSPropertyOp29
 70
     1
102
RTVSPropertyOp30
 70
     1
102
RTVSPropertyOp31
 70
     1
102
RTVSPropertyOp32
 70
     1
  0
XRECORD
  5
82
102
{ACAD_REACTORS
330
81
102
}
330
81
100
AcDbXrecord
280
     1
102
RTVSPropertyOp0
 70
     1
102
RTVSPropertyOp1
 70
     1
102
RTVSPropertyOp2
 70
     1
102
RTVSPropertyOp3
 70
     1
102
RTVSPropertyOp4
 70
     1
102
RTVSPropertyOp5
 70
     1
102
RTVSPropertyOp6
 70
     1
102
RTVSPropertyOp7
 70
     1
102
RTVSPropertyOp8
 70
     1
102
RTVSPropertyOp9
 70
     1
102
RTVSPropertyOp10
 70
     1
102
RTVSPropertyOp11
 70
     1
102
RTVSPropertyOp12
 70
     1
102
RTVSPropertyOp13
 70
     1
102
RTVSPropertyOp14
 70
     1
102
RTVSPropertyOp15
 70
     1
102
RTVSPropertyOp16
 70
     1
102
RTVSPropertyOp17
 70
     1
102
RTVSPropertyOp18
 70
     1
102
RTVSPropertyOp19
 70
     1
102
RTVSPropertyOp20
 70
     1
102
RTVSPropertyOp21
 70
     1
102
RTVSPropertyOp22
 70
     1
102
RTVSPropertyOp23
 70
     1
102
RTVSPropertyOp24
 70
     1
102
RTVSPropertyOp25
 70
     1
102
RTVSPropertyOp26
 70
     1
102
RTVSPropertyOp27
 70
     1
102
RTVSPropertyOp28
 70
     1
102
RTVSPropertyOp29
 70
     1
102
RTVSPropertyOp30
 70
     1
102
RTVSPropertyOp31
 70
     1
102
RTVSPropertyOp32
 70
     1
  0
XRECORD
  5
84
102
{ACAD_REACTORS
330
83
102
}
330
83
100
AcDbXrecord
280
     1
102
RTVSPropertyOp0
 70
     1
102
RTVSPropertyOp1
 70
     1
102
RTVSPropertyOp2
 70
     1
102
RTVSPropertyOp3
 70
     1
102
RTVSPropertyOp4
 70
     1
102
RTVSPropertyOp5
 70
     1
102
RTVSPropertyOp6
 70
     1
102
RTVSPropertyOp7
 70
     1
102
RTVSPropertyOp8
 70
     1
102
RTVSPropertyOp9
 70
     1
102
RTVSPropertyOp10
 70
     1
102
RTVSPropertyOp11
 70
     1
102
RTVSPropertyOp12
 70
     1
102
RTVSPropertyOp13
 70
     1
102
RTVSPropertyOp14
 70
     1
102
RTVSPropertyOp15
 70
     1
102
RTVSPropertyOp16
 70
     1
102
RTVSPropertyOp17
 70
     1
102
RTVSPropertyOp18
 70
     1
102
RTVSPropertyOp19
 70
     1
102
RTVSPropertyOp20
 70
     1
102
RTVSPropertyOp21
 70
     1
102
RTVSPropertyOp22
 70
     1
102
RTVSPropertyOp23
 70
     1
102
RTVSPropertyOp24
 70
     1
102
RTVSPropertyOp25
 70
     1
102
RTVSPropertyOp26
 70
     1
102
RTVSPropertyOp27
 70
     1
102
RTVSPropertyOp28
 70
     1
102
RTVSPropertyOp29
 70
     1
102
RTVSPropertyOp30
 70
     1
102
RTVSPropertyOp31
 70
     1
102
RTVSPropertyOp32
 70
     1
  0
XRECORD
  5
98
102
{ACAD_REACTORS
330
97
102
}
330
97
100
AcDbXrecord
280
     1
102
RTVSPropertyOp0
 70
     1
102
RTVSPropertyOp1
 70
     1
102
RTVSPropertyOp2
 70
     1
102
RTVSPropertyOp3
 70
     1
102
RTVSPropertyOp4
 70
     1
102
RTVSPropertyOp5
 70
     1
102
RTVSPropertyOp6
 70
     1
102
RTVSPropertyOp7
 70
     1
102
RTVSPropertyOp8
 70
     1
102
RTVSPropertyOp9
 70
     1
102
RTVSPropertyOp10
 70
     1
102
RTVSPropertyOp11
 70
     1
102
RTVSPropertyOp12
 70
     1
102
RTVSPropertyOp13
 70
     1
102
RTVSPropertyOp14
 70
     1
102
RTVSPropertyOp15
 70
     1
102
RTVSPropertyOp16
 70
     1
102
RTVSPropertyOp17
 70
     1
102
RTVSPropertyOp18
 70
     1
102
RTVSPropertyOp19
 70
     1
102
RTVSPropertyOp20
 70
     1
102
RTVSPropertyOp21
 70
     1
102
RTVSPropertyOp22
 70
     1
102
RTVSPropertyOp23
 70
     1
102
RTVSPropertyOp24
 70
     1
102
RTVSPropertyOp25
 70
     1
102
RTVSPropertyOp26
 70
     1
102
RTVSPropertyOp27
 70
     1
102
RTVSPropertyOp28
 70
     1
102
RTVSPropertyOp29
 70
     1
102
RTVSPropertyOp30
 70
     1
102
RTVSPropertyOp31
 70
     1
102
RTVSPropertyOp32
 70
     1
  0
XRECORD
  5
8E
102
{ACAD_REACTORS
330
8D
102
}
330
8D
100
AcDbXrecord
280
     1
102
RTVSPropertyOp0
 70
     1
102
RTVSPropertyOp1
 70
     1
102
RTVSPropertyOp2
 70
     1
102
RTVSPropertyOp3
 70
     1
102
RTVSPropertyOp4
 70
     1
102
RTVSPropertyOp5
 70
     1
102
RTVSPropertyOp6
 70
     1
102
RTVSPropertyOp7
 70
     1
102
RTVSPropertyOp8
 70
     1
102
RTVSPropertyOp9
 70
     1
102
RTVSPropertyOp10
 70
     1
102
RTVSPropertyOp11
 70
     1
102
RTVSPropertyOp12
 70
     1
102
RTVSPropertyOp13
 70
     1
102
RTVSPropertyOp14
 70
     1
102
RTVSPropertyOp15
 70
     1
102
RTVSPropertyOp16
 70
     1
102
RTVSPropertyOp17
 70
     1
102
RTVSPropertyOp18
 70
     1
102
RTVSPropertyOp19
 70
     1
102
RTVSPropertyOp20
 70
     1
102
RTVSPropertyOp21
 70
     1
102
RTVSPropertyOp22
 70
     1
102
RTVSPropertyOp23
 70
     1
102
RTVSPropertyOp24
 70
     1
102
RTVSPropertyOp25
 70
     1
102
RTVSPropertyOp26
 70
     1
102
RTVSPropertyOp27
 70
     1
102
RTVSPropertyOp28
 70
     1
102
RTVSPropertyOp29
 70
     1
102
RTVSPropertyOp30
 70
     1
102
RTVSPropertyOp31
 70
     1
102
RTVSPropertyOp32
 70
     1
  0
XRECORD
  5
96
102
{ACAD_REACTORS
330
95
102
}
330
95
100
AcDbXrecord
280
     1
102
RTVSPropertyOp0
 70
     1
102
RTVSPropertyOp1
 70
     1
102
RTVSPropertyOp2
 70
     1
102
RTVSPropertyOp3
 70
     1
102
RTVSPropertyOp4
 70
     1
102
RTVSPropertyOp5
 70
     1
102
RTVSPropertyOp6
 70
     1
102
RTVSPropertyOp7
 70
     1
102
RTVSPropertyOp8
 70
     1
102
RTVSPropertyOp9
 70
     1
102
RTVSPropertyOp10
 70
     1
102
RTVSPropertyOp11
 70
     1
102
RTVSPropertyOp12
 70
     1
102
RTVSPropertyOp13
 70
     1
102
RTVSPropertyOp14
 70
     1
102
RTVSPropertyOp15
 70
     1
102
RTVSPropertyOp16
 70
     1
102
RTVSPropertyOp17
 70
     1
102
RTVSPropertyOp18
 70
     1
102
RTVSPropertyOp19
 70
     1
102
RTVSPropertyOp20
 70
     1
102
RTVSPropertyOp21
 70
     1
102
RTVSPropertyOp22
 70
     1
102
RTVSPropertyOp23
 70
     1
102
RTVSPropertyOp24
 70
     1
102
RTVSPropertyOp25
 70
     1
102
RTVSPropertyOp26
 70
     1
102
RTVSPropertyOp27
 70
     1
102
RTVSPropertyOp28
 70
     1
102
RTVSPropertyOp29
 70
     1
102
RTVSPropertyOp30
 70
     1
102
RTVSPropertyOp31
 70
     1
102
RTVSPropertyOp32
 70
     1
  0
ENDSEC
  0
EOF
