<?xml version="1.0" encoding="UTF-8"?>
<!DOCTYPE svg PUBLIC "-//W3C//DTD SVG 1.1//EN" "http://www.w3.org/Graphics/SVG/1.1/DTD/svg11.dtd">
<!-- Creator: CorelDRAW X6 -->
<svg xmlns="http://www.w3.org/2000/svg" xml:space="preserve" width="200mm" height="200mm" version="1.1" shape-rendering="geometricPrecision" text-rendering="geometricPrecision" image-rendering="optimizeQuality" fill-rule="evenodd" clip-rule="evenodd"
viewBox="0 0 20000 20000"
 xmlns:xlink="http://www.w3.org/1999/xlink">
 <g id="Layer_x0020_1">
  <metadata id="CorelCorpID_0Corel-Layer"/>
  <g id="_870523680">
   <path fill="none" fill-rule="nonzero" stroke="blue" stroke-width="52.92" stroke-linecap="round" stroke-linejoin="round" d="M-4470 21171l0 0c-75,13 -143,24 -210,36 -10,2 -22,5 -27,12 -14,20 -25,42 -37,63 22,7 44,20 66,20 41,0 81,-8 122,-11 87,-6 108,-37 87,-120z"/>
   <path fill="none" fill-rule="nonzero" stroke="blue" stroke-width="52.92" stroke-linecap="round" stroke-linejoin="round" d="M-5462 20826l0 0c27,4 53,13 79,12 71,-2 142,-6 213,-14 25,-3 70,-17 70,-26 0,-37 -9,-76 -26,-108 -5,-9 -49,0 -73,5 -46,9 -92,35 -136,31 -87,-8 -99,-6 -126,100z"/>
   <path fill="none" fill-rule="nonzero" stroke="blue" stroke-width="52.92" stroke-linecap="round" stroke-linejoin="round" d="M-2098 20141l0 0c-47,90 -90,167 -129,247 -12,26 -20,57 -17,85 1,9 46,23 65,17 30,-9 67,-27 81,-52 30,-51 48,-110 78,-184 -16,-23 -46,-65 -79,-112z"/>
   <path fill="none" fill-rule="nonzero" stroke="blue" stroke-width="52.92" stroke-linecap="round" stroke-linejoin="round" d="M-1857 20008l0 0c2,-112 -28,-125 -119,-84 -125,55 -147,142 -59,246 12,14 63,20 69,11 45,-63 83,-131 109,-173z"/>
   <path fill="none" fill-rule="nonzero" stroke="blue" stroke-width="52.92" stroke-linecap="round" stroke-linejoin="round" d="M-4447 21169l0 0c22,41 36,84 46,83 84,-7 172,-11 247,-42 30,-12 32,-92 47,-141 -35,-4 -71,-15 -105,-11 -51,7 -102,19 -149,39 -31,13 -55,45 -86,71z"/>
   <path fill="none" fill-rule="nonzero" stroke="blue" stroke-width="52.92" stroke-linecap="round" stroke-linejoin="round" d="M-5218 19528l0 0c-2,-85 -11,-92 -92,-81 -91,12 -183,21 -274,34 -18,3 -46,21 -48,35 -2,16 15,46 31,52 40,15 83,25 125,28 61,4 122,-2 183,1 57,4 83,-16 74,-70z"/>
   <path fill="none" fill-rule="nonzero" stroke="blue" stroke-width="52.92" stroke-linecap="round" stroke-linejoin="round" d="M-5457 20252l0 0c3,-9 20,-35 21,-61 2,-33 2,-75 -16,-97 -16,-19 -69,-31 -89,-19 -78,47 -161,58 -248,68 -26,3 -47,46 -71,71 28,17 54,39 84,51 20,7 45,-1 69,-2 80,-4 160,-7 250,-11z"/>
   <path fill="none" fill-rule="nonzero" stroke="blue" stroke-width="52.92" stroke-linecap="round" stroke-linejoin="round" d="M-4708 19451l0 0c-132,0 -251,-1 -370,1 -30,1 -72,3 -86,21 -16,21 -18,69 -4,91 11,18 57,24 85,19 94,-18 183,-17 270,30 23,12 52,14 85,23 8,-68 15,-125 22,-185z"/>
   <path fill="none" fill-rule="nonzero" stroke="blue" stroke-width="52.92" stroke-linecap="round" stroke-linejoin="round" d="M-4284 18646l0 0c21,34 27,57 42,67 97,62 193,129 297,179 52,25 86,-29 104,-78 18,-47 17,-89 -41,-105 -102,-28 -204,-54 -307,-77 -25,-5 -53,7 -96,14z"/>
   <path fill="none" fill-rule="nonzero" stroke="blue" stroke-width="52.92" stroke-linecap="round" stroke-linejoin="round" d="M-4561 20570l0 0c-156,21 -293,42 -431,57 -103,11 -104,13 -85,111 15,77 66,62 112,50 117,-32 231,-72 357,-45 16,3 57,-31 59,-51 5,-44 -8,-89 -12,-121z"/>
   <path fill="none" fill-rule="nonzero" stroke="blue" stroke-width="52.92" stroke-linecap="round" stroke-linejoin="round" d="M-2165 20163l0 0c0,-85 -49,-105 -105,-88 -67,20 -127,63 -194,86 -79,27 -73,82 -58,142 7,27 20,53 33,78 56,108 131,113 197,12 8,-13 20,-24 27,-37 34,-64 67,-129 100,-193z"/>
   <path fill="none" fill-rule="nonzero" stroke="blue" stroke-width="52.92" stroke-linecap="round" stroke-linejoin="round" d="M-3503 20763l0 0c-28,14 -48,20 -64,32 -115,86 -243,144 -383,177 -30,7 -60,18 -85,35 -49,34 -66,86 -32,134 12,16 70,14 97,1 141,-72 286,-126 445,-144 24,-3 62,-45 61,-67 -2,-54 -24,-107 -40,-168z"/>
   <path fill="none" fill-rule="nonzero" stroke="blue" stroke-width="52.92" stroke-linecap="round" stroke-linejoin="round" d="M-3849 18946l0 0c35,8 64,20 93,20 127,0 251,4 358,90 21,17 58,19 88,19 20,0 48,-10 59,-25 33,-47 60,-99 90,-151 -12,-8 -20,-18 -29,-18 -182,-6 -357,-40 -527,-108 -20,-8 -66,15 -80,36 -24,37 -33,85 -52,138z"/>
   <path fill="none" fill-rule="nonzero" stroke="blue" stroke-width="52.92" stroke-linecap="round" stroke-linejoin="round" d="M-5436 20256l0 0c21,7 28,10 35,11 10,1 21,3 31,0 166,-53 335,-77 510,-63 22,2 62,-38 70,-65 31,-105 -58,-181 -169,-137 -135,54 -269,64 -410,44 -20,-3 -42,6 -78,11 80,69 64,132 10,199z"/>
   <path fill="none" fill-rule="nonzero" stroke="blue" stroke-width="52.92" stroke-linecap="round" stroke-linejoin="round" d="M-4521 19436l0 0c-18,0 -34,-2 -49,0 -57,8 -123,87 -113,138 17,83 76,50 128,47 107,-6 216,-13 323,-5 86,7 171,35 256,53 82,17 106,-9 84,-88 -5,-18 2,-39 3,-58 2,-26 15,-65 3,-75 -17,-14 -52,-12 -79,-10 -94,8 -189,26 -283,26 -92,0 -184,-19 -273,-29z"/>
   <path fill="none" fill-rule="nonzero" stroke="blue" stroke-width="52.92" stroke-linecap="round" stroke-linejoin="round" d="M-2531 20138l0 0c3,1 5,3 7,3 123,-42 235,-118 372,-115 2,0 3,-4 5,-5 56,-50 58,-112 17,-190 -38,-73 -91,-62 -150,-39 -13,5 -27,8 -20,6 -16,-61 -28,-117 -45,-172 -18,-57 -68,-69 -111,-29 -61,56 -29,208 52,234 -53,16 -124,7 -128,87 -4,71 -1,143 -1,221z"/>
   <path fill="none" fill-rule="nonzero" stroke="blue" stroke-width="52.92" stroke-linecap="round" stroke-linejoin="round" d="M-1183 20239l0 0c-45,0 -86,3 -127,0 -98,-7 -196,7 -283,-70 -61,-54 -150,5 -151,89 -1,41 -7,81 -11,122 -3,34 -7,68 -10,102 39,3 79,12 118,9 105,-10 209,-33 314,-38 177,-8 178,-4 161,-182 -1,-7 -4,-14 -10,-32z"/>
   <path fill="none" fill-rule="nonzero" stroke="blue" stroke-width="52.92" stroke-linecap="round" stroke-linejoin="round" d="M-4374 20537l0 0c-15,-1 -31,-5 -46,-3 -30,5 -82,9 -85,23 -12,48 -13,102 -3,151 2,12 63,20 95,16 222,-26 444,-54 665,-85 20,-3 49,-30 51,-48 5,-61 -4,-122 -2,-183 1,-56 -24,-69 -72,-51 -77,29 -153,61 -230,90 -120,46 -239,98 -372,90z"/>
   <path fill="none" fill-rule="nonzero" stroke="blue" stroke-width="52.92" stroke-linecap="round" stroke-linejoin="round" d="M-3213 19195l0 0c48,0 94,3 139,0 147,-10 277,17 368,148 23,33 57,60 87,88 49,44 94,46 137,-12 16,-22 41,-40 65,-52 60,-30 73,-78 36,-126 -31,-40 -75,-86 -121,-96 -169,-39 -334,-85 -487,-169 -20,-11 -44,-17 -66,-21 -67,-13 -127,23 -140,88 -10,47 -11,96 -17,152z"/>
   <path fill="none" fill-rule="nonzero" stroke="blue" stroke-width="52.92" stroke-linecap="round" stroke-linejoin="round" d="M-3881 20205l0 0c-10,-73 -29,-127 -21,-176 15,-96 8,-111 -90,-96 -23,3 -45,10 -67,18 -185,62 -371,80 -563,33 -43,-10 -90,-1 -136,-1l0 261c8,1 18,4 27,2 246,-59 493,-75 743,-21 35,7 76,-14 107,-20z"/>
   <path fill="none" fill-rule="nonzero" stroke="blue" stroke-width="52.92" stroke-linecap="round" stroke-linejoin="round" d="M-3449 20819l0 0c2,96 40,135 131,126 50,-5 101,-20 147,-40 219,-94 438,-191 655,-290 29,-13 65,-48 66,-75 1,-31 -25,-72 -52,-94 -49,-40 -166,-26 -222,9 -87,55 -172,114 -266,154 -125,52 -258,87 -388,129 -40,13 -81,27 -71,81z"/>
   <path fill="none" fill-rule="nonzero" stroke="blue" stroke-width="52.92" stroke-linecap="round" stroke-linejoin="round" d="M-2545 20407l0 0c3,-24 12,-56 7,-59 -58,-28 -25,-74 -29,-114 -3,-28 -19,-77 -30,-77 -67,-1 -151,-14 -199,20 -174,125 -365,170 -573,175 -66,2 -132,16 -197,30 -60,12 -101,56 -92,115 8,57 35,119 112,114 60,-4 123,-10 179,-30 135,-49 267,-109 401,-159 135,-51 273,-73 422,-13z"/>
   <path fill="none" fill-rule="nonzero" stroke="blue" stroke-width="52.92" stroke-linecap="round" stroke-linejoin="round" d="M-2570 19809l0 0c-77,22 -142,37 -205,59 -63,22 -122,57 -185,74 -210,57 -421,74 -629,-11 -30,-12 -66,-11 -99,-12 -128,-4 -193,92 -154,218 21,67 55,114 132,97 110,-24 221,-47 328,-82 193,-63 385,-112 589,-55 30,8 62,17 91,12 48,-8 121,17 130,-61 8,-70 2,-143 2,-238z"/>
   <path fill="none" fill-rule="nonzero" stroke="blue" stroke-width="52.92" stroke-linecap="round" stroke-linejoin="round" d="M-2506 19724l0 0c-26,-40 -49,-80 3,-126 13,-12 -5,-67 -20,-97 -5,-10 -44,-8 -66,-5 -46,4 -91,17 -137,18 -302,9 -603,7 -891,-106 -54,-21 -210,74 -224,132 -3,14 -2,31 2,45 35,110 114,165 224,137 230,-58 460,-48 692,-25 59,6 122,25 173,56 107,65 150,65 245,-29z"/>
   <path fill="none" fill-rule="nonzero" stroke="blue" stroke-width="52.92" stroke-linecap="round" stroke-linejoin="round" d="M-1172 19875l0 0c-5,-75 -15,-157 -15,-239 0,-72 -34,-103 -100,-90 -90,17 -172,-10 -257,-32 -79,-20 -162,-27 -244,-37 -49,-6 -68,17 -62,69 15,133 28,266 34,400 8,191 35,207 217,143 105,-37 219,-56 330,-67 96,-10 99,-2 98,-101 0,-13 0,-26 0,-46z"/>
   <path fill="none" fill-rule="nonzero" stroke="blue" stroke-width="52.92" stroke-linecap="round" stroke-linejoin="round" d="M-2223 19525l0 0c-18,51 -34,102 -53,152 -19,47 4,70 45,61 84,-20 115,34 149,90 10,16 22,37 38,43 36,13 173,-57 190,-92 30,-63 -6,-150 -81,-196 -29,-17 -63,-29 -85,-53 -52,-54 -108,-63 -174,-32 3,-43 15,-87 8,-128 -12,-71 -69,-91 -126,-49 -45,34 -90,68 -129,108 -17,17 -26,51 -22,75 2,15 36,35 55,35 62,0 124,-9 186,-14z"/>
   <path fill="none" stroke="black" stroke-width="52.92" stroke-linecap="round" stroke-linejoin="round" d="M-1450 20992l0 -329c-134,-7 -268,-13 -401,-27 -139,-15 -264,-7 -383,76 -263,186 -555,324 -875,351 -379,33 -724,182 -1086,269 -82,20 -166,36 -249,54l-279 0c-44,-25 -96,-42 -97,-107 -1,-69 39,-111 93,-141 45,-25 92,-46 141,-64 235,-85 472,-166 706,-252 39,-14 73,-44 110,-67 -4,-10 -8,-19 -11,-29 -73,7 -149,4 -219,23 -387,109 -781,169 -1181,192 -81,5 -166,-1 -246,-17 -110,-22 -147,-108 -106,-213 38,-97 125,-116 212,-132 266,-48 533,-93 799,-144 153,-29 304,-68 455,-103 -51,-19 -100,-31 -148,-30 -281,11 -561,25 -842,37 -227,9 -454,20 -680,23 -89,1 -174,-25 -226,-109l0 -124c70,-132 200,-139 326,-155 238,-29 476,-61 715,-84 172,-16 345,-19 518,-28 93,-5 186,-8 279,-16 24,-2 47,-19 71,-29 0,-10 0,-19 -1,-29 -42,-10 -84,-28 -127,-29 -369,-12 -739,-19 -1108,-34 -107,-4 -215,-25 -319,-51 -79,-20 -111,-85 -110,-167 1,-82 36,-143 112,-168 58,-19 121,-27 182,-29 312,-11 625,-15 937,-27 263,-10 526,-26 789,-43 55,-4 110,-23 180,-38 -152,-55 -290,-99 -423,-155 -92,-39 -179,-91 -267,-140 -27,-15 -50,-37 -73,-58 -97,-88 -149,-211 -100,-279 65,-88 170,-68 257,-50 156,32 308,83 463,125 82,22 163,48 247,63 371,69 732,177 1054,370 249,150 509,179 782,194 43,2 86,7 128,13l0 -197c0,-276 224,-500 500,-500l400 0c276,0 500,224 500,500l0 1900c0,276 -224,500 -500,500l-400 0c-276,0 -500,-224 -500,-500z"/>
   <circle fill="none" stroke="black" stroke-width="52.92" stroke-linecap="round" stroke-linejoin="round" cx="-750" cy="19292" r="325"/>
   <circle fill="none" stroke="black" stroke-width="52.92" stroke-linecap="round" stroke-linejoin="round" cx="-750" cy="20792" r="325"/>
  </g>
  <g id="_865815056">
   <path fill="none" fill-rule="nonzero" stroke="blue" stroke-width="52.92" stroke-linecap="round" stroke-linejoin="round" d="M4470 21171l0 0c75,13 143,24 210,36 10,2 22,5 27,12 14,20 25,42 37,63 -22,7 -44,20 -66,20 -41,0 -81,-8 -122,-11 -87,-6 -108,-37 -87,-120z"/>
   <path fill="none" fill-rule="nonzero" stroke="blue" stroke-width="52.92" stroke-linecap="round" stroke-linejoin="round" d="M5462 20826l0 0c-27,4 -53,13 -79,12 -71,-2 -142,-6 -213,-14 -25,-3 -70,-17 -70,-26 0,-37 9,-76 26,-108 5,-9 49,0 73,5 46,9 92,35 136,31 87,-8 99,-6 126,100z"/>
   <path fill="none" fill-rule="nonzero" stroke="blue" stroke-width="52.92" stroke-linecap="round" stroke-linejoin="round" d="M2098 20141l0 0c47,90 90,167 129,247 12,26 20,57 17,85 -1,9 -46,23 -65,17 -30,-9 -67,-27 -81,-52 -30,-51 -48,-110 -78,-184 16,-23 46,-65 79,-112z"/>
   <path fill="none" fill-rule="nonzero" stroke="blue" stroke-width="52.92" stroke-linecap="round" stroke-linejoin="round" d="M1857 20008l0 0c-2,-112 28,-125 119,-84 125,55 147,142 59,246 -12,14 -63,20 -69,11 -45,-63 -83,-131 -109,-173z"/>
   <path fill="none" fill-rule="nonzero" stroke="blue" stroke-width="52.92" stroke-linecap="round" stroke-linejoin="round" d="M4447 21169l0 0c-22,41 -36,84 -46,83 -84,-7 -172,-11 -247,-42 -30,-12 -32,-92 -47,-141 35,-4 71,-15 105,-11 51,7 102,19 149,39 31,13 55,45 86,71z"/>
   <path fill="none" fill-rule="nonzero" stroke="blue" stroke-width="52.92" stroke-linecap="round" stroke-linejoin="round" d="M5218 19528l0 0c2,-85 11,-92 92,-81 91,12 183,21 274,34 18,3 46,21 48,35 2,16 -15,46 -31,52 -40,15 -83,25 -125,28 -61,4 -122,-2 -183,1 -57,4 -83,-16 -74,-70z"/>
   <path fill="none" fill-rule="nonzero" stroke="blue" stroke-width="52.92" stroke-linecap="round" stroke-linejoin="round" d="M5457 20252l0 0c-3,-9 -20,-35 -21,-61 -2,-33 -2,-75 16,-97 16,-19 69,-31 89,-19 78,47 161,58 248,68 26,3 47,46 71,71 -28,17 -54,39 -84,51 -20,7 -45,-1 -69,-2 -80,-4 -160,-7 -250,-11z"/>
   <path fill="none" fill-rule="nonzero" stroke="blue" stroke-width="52.92" stroke-linecap="round" stroke-linejoin="round" d="M4708 19451l0 0c132,0 251,-1 370,1 30,1 72,3 86,21 16,21 18,69 4,91 -11,18 -57,24 -85,19 -94,-18 -183,-17 -270,30 -23,12 -52,14 -85,23 -8,-68 -15,-125 -22,-185z"/>
   <path fill="none" fill-rule="nonzero" stroke="blue" stroke-width="52.92" stroke-linecap="round" stroke-linejoin="round" d="M4284 18646l0 0c-21,34 -27,57 -42,67 -97,62 -193,129 -297,179 -52,25 -86,-29 -104,-78 -18,-47 -17,-89 41,-105 102,-28 204,-54 307,-77 25,-5 53,7 96,14z"/>
   <path fill="none" fill-rule="nonzero" stroke="blue" stroke-width="52.92" stroke-linecap="round" stroke-linejoin="round" d="M4561 20570l0 0c156,21 293,42 431,57 103,11 104,13 85,111 -15,77 -66,62 -112,50 -117,-32 -231,-72 -357,-45 -16,3 -57,-31 -59,-51 -5,-44 8,-89 12,-121z"/>
   <path fill="none" fill-rule="nonzero" stroke="blue" stroke-width="52.92" stroke-linecap="round" stroke-linejoin="round" d="M2165 20163l0 0c0,-85 49,-105 105,-88 67,20 127,63 194,86 79,27 73,82 58,142 -7,27 -20,53 -33,78 -56,108 -131,113 -197,12 -8,-13 -20,-24 -27,-37 -34,-64 -67,-129 -100,-193z"/>
   <path fill="none" fill-rule="nonzero" stroke="blue" stroke-width="52.92" stroke-linecap="round" stroke-linejoin="round" d="M3503 20763l0 0c28,14 48,20 64,32 115,86 243,144 383,177 30,7 60,18 85,35 49,34 66,86 32,134 -12,16 -70,14 -97,1 -141,-72 -286,-126 -445,-144 -24,-3 -62,-45 -61,-67 2,-54 24,-107 40,-168z"/>
   <path fill="none" fill-rule="nonzero" stroke="blue" stroke-width="52.92" stroke-linecap="round" stroke-linejoin="round" d="M3849 18946l0 0c-35,8 -64,20 -93,20 -127,0 -251,4 -358,90 -21,17 -58,19 -88,19 -20,0 -48,-10 -59,-25 -33,-47 -60,-99 -90,-151 12,-8 20,-18 29,-18 182,-6 357,-40 527,-108 20,-8 66,15 80,36 24,37 33,85 52,138z"/>
   <path fill="none" fill-rule="nonzero" stroke="blue" stroke-width="52.92" stroke-linecap="round" stroke-linejoin="round" d="M5436 20256l0 0c-21,7 -28,10 -35,11 -10,1 -21,3 -31,0 -166,-53 -335,-77 -510,-63 -22,2 -62,-38 -70,-65 -31,-105 58,-181 169,-137 135,54 269,64 410,44 20,-3 42,6 78,11 -80,69 -64,132 -10,199z"/>
   <path fill="none" fill-rule="nonzero" stroke="blue" stroke-width="52.92" stroke-linecap="round" stroke-linejoin="round" d="M4521 19436l0 0c18,0 34,-2 49,0 57,8 123,87 113,138 -17,83 -76,50 -128,47 -107,-6 -216,-13 -323,-5 -86,7 -171,35 -256,53 -82,17 -106,-9 -84,-88 5,-18 -2,-39 -3,-58 -2,-26 -15,-65 -3,-75 17,-14 52,-12 79,-10 94,8 189,26 283,26 92,0 184,-19 273,-29z"/>
   <path fill="none" fill-rule="nonzero" stroke="blue" stroke-width="52.92" stroke-linecap="round" stroke-linejoin="round" d="M2531 20138l0 0c-3,1 -5,3 -7,3 -123,-42 -235,-118 -372,-115 -2,0 -3,-4 -5,-5 -56,-50 -58,-112 -17,-190 38,-73 91,-62 150,-39 13,5 27,8 20,6 16,-61 28,-117 45,-172 18,-57 68,-69 111,-29 61,56 29,208 -52,234 53,16 124,7 128,87 4,71 1,143 1,221z"/>
   <path fill="none" fill-rule="nonzero" stroke="blue" stroke-width="52.92" stroke-linecap="round" stroke-linejoin="round" d="M1183 20239l0 0c45,0 86,3 127,0 98,-7 196,7 283,-70 61,-54 150,5 151,89 1,41 7,81 11,122 3,34 7,68 10,102 -39,3 -79,12 -118,9 -105,-10 -209,-33 -314,-38 -177,-8 -178,-4 -161,-182 1,-7 4,-14 10,-32z"/>
   <path fill="none" fill-rule="nonzero" stroke="blue" stroke-width="52.92" stroke-linecap="round" stroke-linejoin="round" d="M4374 20537l0 0c15,-1 31,-5 46,-3 30,5 82,9 85,23 12,48 13,102 3,151 -2,12 -63,20 -95,16 -222,-26 -444,-54 -665,-85 -20,-3 -49,-30 -51,-48 -5,-61 4,-122 2,-183 -1,-56 24,-69 72,-51 77,29 153,61 230,90 120,46 239,98 372,90z"/>
   <path fill="none" fill-rule="nonzero" stroke="blue" stroke-width="52.92" stroke-linecap="round" stroke-linejoin="round" d="M3213 19195l0 0c-48,0 -94,3 -139,0 -147,-10 -277,17 -368,148 -23,33 -57,60 -87,88 -49,44 -94,46 -137,-12 -16,-22 -41,-40 -65,-52 -60,-30 -73,-78 -36,-126 31,-40 75,-86 121,-96 169,-39 334,-85 487,-169 20,-11 44,-17 66,-21 67,-13 127,23 140,88 10,47 11,96 17,152z"/>
   <path fill="none" fill-rule="nonzero" stroke="blue" stroke-width="52.92" stroke-linecap="round" stroke-linejoin="round" d="M3881 20205l0 0c10,-73 29,-127 21,-176 -15,-96 -8,-111 90,-96 23,3 45,10 67,18 185,62 371,80 563,33 43,-10 90,-1 136,-1l0 261c-8,1 -18,4 -27,2 -246,-59 -493,-75 -743,-21 -35,7 -76,-14 -107,-20z"/>
   <path fill="none" fill-rule="nonzero" stroke="blue" stroke-width="52.92" stroke-linecap="round" stroke-linejoin="round" d="M3449 20819l0 0c-2,96 -40,135 -131,126 -50,-5 -101,-20 -147,-40 -219,-94 -438,-191 -655,-290 -29,-13 -65,-48 -66,-75 -1,-31 25,-72 52,-94 49,-40 166,-26 222,9 87,55 172,114 266,154 125,52 258,87 388,129 40,13 81,27 71,81z"/>
   <path fill="none" fill-rule="nonzero" stroke="blue" stroke-width="52.92" stroke-linecap="round" stroke-linejoin="round" d="M2545 20407l0 0c-3,-24 -12,-56 -7,-59 58,-28 25,-74 29,-114 3,-28 19,-77 30,-77 67,-1 151,-14 199,20 174,125 365,170 573,175 66,2 132,16 197,30 60,12 101,56 92,115 -8,57 -35,119 -112,114 -60,-4 -123,-10 -179,-30 -135,-49 -267,-109 -401,-159 -135,-51 -273,-73 -422,-13z"/>
   <path fill="none" fill-rule="nonzero" stroke="blue" stroke-width="52.92" stroke-linecap="round" stroke-linejoin="round" d="M2570 19809l0 0c77,22 142,37 205,59 63,22 122,57 185,74 210,57 421,74 629,-11 30,-12 66,-11 99,-12 128,-4 193,92 154,218 -21,67 -55,114 -132,97 -110,-24 -221,-47 -328,-82 -193,-63 -385,-112 -589,-55 -30,8 -62,17 -91,12 -48,-8 -121,17 -130,-61 -8,-70 -2,-143 -2,-238z"/>
   <path fill="none" fill-rule="nonzero" stroke="blue" stroke-width="52.92" stroke-linecap="round" stroke-linejoin="round" d="M2506 19724l0 0c26,-40 49,-80 -3,-126 -13,-12 5,-67 20,-97 5,-10 44,-8 66,-5 46,4 91,17 137,18 302,9 603,7 891,-106 54,-21 210,74 224,132 3,14 2,31 -2,45 -35,110 -114,165 -224,137 -230,-58 -460,-48 -692,-25 -59,6 -122,25 -173,56 -107,65 -150,65 -245,-29z"/>
   <path fill="none" fill-rule="nonzero" stroke="blue" stroke-width="52.92" stroke-linecap="round" stroke-linejoin="round" d="M1172 19875l0 0c5,-75 15,-157 15,-239 0,-72 34,-103 100,-90 90,17 172,-10 257,-32 79,-20 162,-27 244,-37 49,-6 68,17 62,69 -15,133 -28,266 -34,400 -8,191 -35,207 -217,143 -105,-37 -219,-56 -330,-67 -96,-10 -99,-2 -98,-101 0,-13 0,-26 0,-46z"/>
   <path fill="none" fill-rule="nonzero" stroke="blue" stroke-width="52.92" stroke-linecap="round" stroke-linejoin="round" d="M2223 19525l0 0c18,51 34,102 53,152 19,47 -4,70 -45,61 -84,-20 -115,34 -149,90 -10,16 -22,37 -38,43 -36,13 -173,-57 -190,-92 -30,-63 6,-150 81,-196 29,-17 63,-29 85,-53 52,-54 108,-63 174,-32 -3,-43 -15,-87 -8,-128 12,-71 69,-91 126,-49 45,34 90,68 129,108 17,17 26,51 22,75 -2,15 -36,35 -55,35 -62,0 -124,-9 -186,-14z"/>
   <path fill="none" stroke="black" stroke-width="52.92" stroke-linecap="round" stroke-linejoin="round" d="M1450 20992l0 -329c134,-7 268,-13 401,-27 139,-15 264,-7 383,76 263,186 555,324 875,351 379,33 724,182 1086,269 82,20 166,36 249,54l279 0c44,-25 96,-42 97,-107 1,-69 -39,-111 -93,-141 -45,-25 -92,-46 -141,-64 -235,-85 -472,-166 -706,-252 -39,-14 -73,-44 -110,-67 4,-10 8,-19 11,-29 73,7 149,4 219,23 387,109 781,169 1181,192 81,5 166,-1 246,-17 110,-22 147,-108 106,-213 -38,-97 -125,-116 -212,-132 -266,-48 -533,-93 -799,-144 -153,-29 -304,-68 -455,-103 51,-19 100,-31 148,-30 281,11 561,25 842,37 227,9 454,20 680,23 89,1 174,-25 226,-109l0 -124c-70,-132 -200,-139 -326,-155 -238,-29 -476,-61 -715,-84 -172,-16 -345,-19 -518,-28 -93,-5 -186,-8 -279,-16 -24,-2 -47,-19 -71,-29 0,-10 0,-19 1,-29 42,-10 84,-28 127,-29 369,-12 739,-19 1108,-34 107,-4 215,-25 319,-51 79,-20 111,-85 110,-167 -1,-82 -36,-143 -112,-168 -58,-19 -121,-27 -182,-29 -312,-11 -625,-15 -937,-27 -263,-10 -526,-26 -789,-43 -55,-4 -110,-23 -180,-38 152,-55 290,-99 423,-155 92,-39 179,-91 267,-140 27,-15 50,-37 73,-58 97,-88 149,-211 100,-279 -65,-88 -170,-68 -257,-50 -156,32 -308,83 -463,125 -82,22 -163,48 -247,63 -371,69 -732,177 -1054,370 -249,150 -509,179 -782,194 -43,2 -86,7 -128,13l0 -197c0,-276 -224,-500 -500,-500l-400 0c-276,0 -500,224 -500,500l0 1900c0,276 224,500 500,500l400 0c276,0 500,-224 500,-500z"/>
   <circle fill="none" stroke="black" stroke-width="52.92" stroke-linecap="round" stroke-linejoin="round" cx="750" cy="19292" r="325"/>
   <circle fill="none" stroke="black" stroke-width="52.92" stroke-linecap="round" stroke-linejoin="round" cx="750" cy="20792" r="325"/>
  </g>
  <circle fill="none" stroke="black" stroke-width="52.92" stroke-linecap="round" stroke-linejoin="round" cx="-750" cy="20042" r="180"/>
  <circle fill="none" stroke="black" stroke-width="52.92" stroke-linecap="round" stroke-linejoin="round" cx="750" cy="20042" r="180"/>
 </g>
</svg>
