  0
SECTION
  2
HEADER
  9
$ACADVER
  1
AC1021
  9
$ACADMAINTVER
 70
    25
  9
$DWGCODEPAGE
  3
ANSI_1252
  9
$INSBASE
 10
0.0
 20
0.0
 30
0.0
  9
$EXTMIN
 10
-13.53724
 20
-14.30071
 30
0.0
  9
$EXTMAX
 10
-6.53814
 20
-10.83471
 30
0.0
  9
$LIMMIN
 10
0.0
 20
0.0
  9
$LIMMAX
 10
12.0
 20
9.0
  9
$ORTHOMODE
 70
     0
  9
$REGENMODE
 70
     1
  9
$FILLMODE
 70
     1
  9
$QTEXTMODE
 70
     0
  9
$MIRRTEXT
 70
     1
  9
$LTSCALE
 40
1.0
  9
$ATTMODE
 70
     1
  9
$TEXTSIZE
 40
0.2
  9
$TRACEWID
 40
0.05
  9
$TEXTSTYLE
  7
Standard
  9
$CLAYER
  8
0
  9
$CELTYPE
  6
ByLayer
  9
$CECOLOR
 62
   256
  9
$CELTSCALE
 40
1.0
  9
$DISPSILH
 70
     0
  9
$DIMSCALE
 40
1.0
  9
$DIMASZ
 40
0.18
  9
$DIMEXO
 40
0.0625
  9
$DIMDLI
 40
0.38
  9
$DIMRND
 40
0.0
  9
$DIMDLE
 40
0.0
  9
$DIMEXE
 40
0.18
  9
$DIMTP
 40
0.0
  9
$DIMTM
 40
0.0
  9
$DIMTXT
 40
0.18
  9
$DIMCEN
 40
0.09
  9
$DIMTSZ
 40
0.0
  9
$DIMTOL
 70
     0
  9
$DIMLIM
 70
     0
  9
$DIMTIH
 70
     1
  9
$DIMTOH
 70
     1
  9
$DIMSE1
 70
     0
  9
$DIMSE2
 70
     0
  9
$DIMTAD
 70
     0
  9
$DIMZIN
 70
     0
  9
$DIMBLK
  1

  9
$DIMASO
 70
     1
  9
$DIMSHO
 70
     1
  9
$DIMPOST
  1

  9
$DIMAPOST
  1

  9
$DIMALT
 70
     0
  9
$DIMALTD
 70
     2
  9
$DIMALTF
 40
25.4
  9
$DIMLFAC
 40
1.0
  9
$DIMTOFL
 70
     0
  9
$DIMTVP
 40
0.0
  9
$DIMTIX
 70
     0
  9
$DIMSOXD
 70
     0
  9
$DIMSAH
 70
     0
  9
$DIMBLK1
  1

  9
$DIMBLK2
  1

  9
$DIMSTYLE
  2
Standard
  9
$DIMCLRD
 70
     0
  9
$DIMCLRE
 70
     0
  9
$DIMCLRT
 70
     0
  9
$DIMTFAC
 40
1.0
  9
$DIMGAP
 40
0.09
  9
$DIMJUST
 70
     0
  9
$DIMSD1
 70
     0
  9
$DIMSD2
 70
     0
  9
$DIMTOLJ
 70
     1
  9
$DIMTZIN
 70
     0
  9
$DIMALTZ
 70
     0
  9
$DIMALTTZ
 70
     0
  9
$DIMUPT
 70
     0
  9
$DIMDEC
 70
     4
  9
$DIMTDEC
 70
     4
  9
$DIMALTU
 70
     2
  9
$DIMALTTD
 70
     2
  9
$DIMTXSTY
  7
Standard
  9
$DIMAUNIT
 70
     0
  9
$DIMADEC
 70
     0
  9
$DIMALTRND
 40
0.0
  9
$DIMAZIN
 70
     0
  9
$DIMDSEP
 70
    46
  9
$DIMATFIT
 70
     3
  9
$DIMFRAC
 70
     0
  9
$DIMLDRBLK
  1

  9
$DIMLUNIT
 70
     2
  9
$DIMLWD
 70
    -2
  9
$DIMLWE
 70
    -2
  9
$DIMTMOVE
 70
     0
  9
$DIMFXL
 40
1.0
  9
$DIMFXLON
 70
     0
  9
$DIMJOGANG
 40
0.7853981633974483
  9
$DIMTFILL
 70
     0
  9
$DIMTFILLCLR
 70
     0
  9
$DIMARCSYM
 70
     0
  9
$DIMLTYPE
  6

  9
$DIMLTEX1
  6

  9
$DIMLTEX2
  6

  9
$LUNITS
 70
     2
  9
$LUPREC
 70
     4
  9
$SKETCHINC
 40
0.1
  9
$FILLETRAD
 40
0.5
  9
$AUNITS
 70
     0
  9
$AUPREC
 70
     0
  9
$MENU
  1
.
  9
$ELEVATION
 40
0.0
  9
$PELEVATION
 40
0.0
  9
$THICKNESS
 40
0.0
  9
$LIMCHECK
 70
     0
  9
$CHAMFERA
 40
0.5
  9
$CHAMFERB
 40
0.5
  9
$CHAMFERC
 40
1.0
  9
$CHAMFERD
 40
0.0
  9
$SKPOLY
 70
     0
  9
$TDCREATE
 40
2460554.967112604
  9
$TDUCREATE
 40
2460554.925445938
  9
$TDUPDATE
 40
2460554.967112662
  9
$TDUUPDATE
 40
2460554.925445995
  9
$TDINDWG
 40
0.0000000116
  9
$TDUSRTIMER
 40
0.0000000116
  9
$USRTIMER
 70
     1
  9
$ANGBASE
 50
0.0
  9
$ANGDIR
 70
     0
  9
$PDMODE
 70
     0
  9
$PDSIZE
 40
0.0
  9
$PLINEWID
 40
0.0
  9
$SPLFRAME
 70
     0
  9
$SPLINETYPE
 70
     6
  9
$SPLINESEGS
 70
     8
  9
$HANDSEED
  5
85
  9
$SURFTAB1
 70
     6
  9
$SURFTAB2
 70
     6
  9
$SURFTYPE
 70
     6
  9
$SURFU
 70
     6
  9
$SURFV
 70
     6
  9
$UCSBASE
  2

  9
$UCSNAME
  2

  9
$UCSORG
 10
0.0
 20
0.0
 30
0.0
  9
$UCSXDIR
 10
1.0
 20
0.0
 30
0.0
  9
$UCSYDIR
 10
0.0
 20
1.0
 30
0.0
  9
$UCSORTHOREF
  2

  9
$UCSORTHOVIEW
 70
     0
  9
$UCSORGTOP
 10
0.0
 20
0.0
 30
0.0
  9
$UCSORGBOTTOM
 10
0.0
 20
0.0
 30
0.0
  9
$UCSORGLEFT
 10
0.0
 20
0.0
 30
0.0
  9
$UCSORGRIGHT
 10
0.0
 20
0.0
 30
0.0
  9
$UCSORGFRONT
 10
0.0
 20
0.0
 30
0.0
  9
$UCSORGBACK
 10
0.0
 20
0.0
 30
0.0
  9
$PUCSBASE
  2

  9
$PUCSNAME
  2

  9
$PUCSORG
 10
0.0
 20
0.0
 30
0.0
  9
$PUCSXDIR
 10
1.0
 20
0.0
 30
0.0
  9
$PUCSYDIR
 10
0.0
 20
1.0
 30
0.0
  9
$PUCSORTHOREF
  2

  9
$PUCSORTHOVIEW
 70
     0
  9
$PUCSORGTOP
 10
0.0
 20
0.0
 30
0.0
  9
$PUCSORGBOTTOM
 10
0.0
 20
0.0
 30
0.0
  9
$PUCSORGLEFT
 10
0.0
 20
0.0
 30
0.0
  9
$PUCSORGRIGHT
 10
0.0
 20
0.0
 30
0.0
  9
$PUCSORGFRONT
 10
0.0
 20
0.0
 30
0.0
  9
$PUCSORGBACK
 10
0.0
 20
0.0
 30
0.0
  9
$USERI1
 70
     0
  9
$USERI2
 70
     0
  9
$USERI3
 70
     0
  9
$USERI4
 70
     0
  9
$USERI5
 70
     0
  9
$USERR1
 40
0.0
  9
$USERR2
 40
0.0
  9
$USERR3
 40
0.0
  9
$USERR4
 40
0.0
  9
$USERR5
 40
0.0
  9
$WORLDVIEW
 70
     1
  9
$SHADEDGE
 70
     3
  9
$SHADEDIF
 70
    70
  9
$TILEMODE
 70
     1
  9
$MAXACTVP
 70
    64
  9
$PINSBASE
 10
0.0
 20
0.0
 30
0.0
  9
$PLIMCHECK
 70
     0
  9
$PEXTMIN
 10
1.000000000000000E+20
 20
1.000000000000000E+20
 30
1.000000000000000E+20
  9
$PEXTMAX
 10
-1.000000000000000E+20
 20
-1.000000000000000E+20
 30
-1.000000000000000E+20
  9
$PLIMMIN
 10
0.0
 20
0.0
  9
$PLIMMAX
 10
12.0
 20
9.0
  9
$UNITMODE
 70
     0
  9
$VISRETAIN
 70
     1
  9
$PLINEGEN
 70
     0
  9
$PSLTSCALE
 70
     1
  9
$TREEDEPTH
 70
  3020
  9
$CMLSTYLE
  2
Standard
  9
$CMLJUST
 70
     0
  9
$CMLSCALE
 40
1.0
  9
$PROXYGRAPHICS
 70
     1
  9
$MEASUREMENT
 70
     0
  9
$CELWEIGHT
370
    -1
  9
$ENDCAPS
280
     0
  9
$JOINSTYLE
280
     0
  9
$LWDISPLAY
290
     0
  9
$INSUNITS
 70
     5
  9
$HYPERLINKBASE
  1

  9
$STYLESHEET
  1

  9
$XEDIT
290
     1
  9
$CEPSNTYPE
380
     0
  9
$PSTYLEMODE
290
     1
  9
$FINGERPRINTGUID
  2
{73755604-20AA-4666-9F3A-F593052FE534}
  9
$VERSIONGUID
  2
{FAEB1C32-E019-11D5-929B-00C0DF256EC4}
  9
$EXTNAMES
290
     1
  9
$PSVPSCALE
 40
0.0
  9
$OLESTARTUP
290
     0
  9
$SORTENTS
280
   127
  9
$INDEXCTL
280
     0
  9
$HIDETEXT
280
     1
  9
$XCLIPFRAME
290
     0
  9
$HALOGAP
280
     0
  9
$OBSCOLOR
 70
   257
  9
$OBSLTYPE
280
     0
  9
$INTERSECTIONDISPLAY
280
     0
  9
$INTERSECTIONCOLOR
 70
   257
  9
$DIMASSOC
280
     2
  9
$PROJECTNAME
  1

  9
$CAMERADISPLAY
290
     0
  9
$LENSLENGTH
 40
50.0
  9
$CAMERAHEIGHT
 40
0.0
  9
$STEPSPERSEC
 40
2.0
  9
$STEPSIZE
 40
6.0
  9
$3DDWFPREC
 40
2.0
  9
$PSOLWIDTH
 40
0.25
  9
$PSOLHEIGHT
 40
4.0
  9
$LOFTANG1
 40
1.570796326794897
  9
$LOFTANG2
 40
1.570796326794897
  9
$LOFTMAG1
 40
0.0
  9
$LOFTMAG2
 40
0.0
  9
$LOFTPARAM
 70
     7
  9
$LOFTNORMALS
280
     1
  9
$LATITUDE
 40
37.795
  9
$LONGITUDE
 40
-122.394
  9
$NORTHDIRECTION
 40
0.0
  9
$TIMEZONE
 70
 -8000
  9
$LIGHTGLYPHDISPLAY
280
     1
  9
$TILEMODELIGHTSYNCH
280
     1
  9
$SOLIDHIST
280
     1
  9
$SHOWHIST
280
     1
  9
$DWFFRAME
280
     2
  9
$DGNFRAME
280
     2
  9
$REALWORLDSCALE
290
     1
  9
$INTERFERECOLOR
 62
   256
  9
$CSHADOW
280
     0
  9
$SHADOWPLANELOCATION
 40
0.0
  0
ENDSEC
  0
SECTION
  2
CLASSES
  0
CLASS
  1
ACDBDICTIONARYWDFLT
  2
AcDbDictionaryWithDefault
  3
ObjectDBX Classes
 90
        0
 91
        4
280
     0
281
     0
  0
CLASS
  1
VISUALSTYLE
  2
AcDbVisualStyle
  3
ObjectDBX Classes
 90
     4095
 91
        4
280
     0
281
     0
  0
CLASS
  1
MATERIAL
  2
AcDbMaterial
  3
ObjectDBX Classes
 90
     1153
 91
        4
280
     0
281
     0
  0
ENDSEC
  0
SECTION
  2
TABLES
  0
TABLE
  2
VPORT
  5
8
330
0
100
AcDbSymbolTable
 70
     1
  0
VPORT
  5
29
330
8
100
AcDbSymbolTableRecord
100
AcDbViewportTableRecord
  2
*Active
 70
     0
 10
0.0
 20
0.0
 11
1.0
 21
1.0
 12
10.42990654205607
 22
4.5
 13
0.0
 23
0.0
 14
0.5
 24
0.5
 15
0.5
 25
0.5
 16
0.0
 26
0.0
 36
1.0
 17
0.0
 27
0.0
 37
0.0
 40
9.0
 41
1.972972972850329
 42
50.0
 43
0.0
 44
0.0
 50
0.0
 51
0.0
 71
     0
 72
   100
 73
     1
 74
     3
 75
     0
 76
     0
 77
     0
 78
     0
281
     0
 65
     1
110
0.0
120
0.0
130
0.0
111
1.0
121
0.0
131
0.0
112
0.0
122
1.0
132
0.0
 79
     0
146
0.0
 60
     3
 61
     5
292
     1
282
     1
141
0.0
142
0.0
 63
   250
  0
ENDTAB
  0
TABLE
  2
LTYPE
  5
5
330
0
100
AcDbSymbolTable
 70
     1
  0
LTYPE
  5
14
330
5
100
AcDbSymbolTableRecord
100
AcDbLinetypeTableRecord
  2
ByBlock
 70
     0
  3

 72
    65
 73
     0
 40
0.0
  0
LTYPE
  5
15
330
5
100
AcDbSymbolTableRecord
100
AcDbLinetypeTableRecord
  2
ByLayer
 70
     0
  3

 72
    65
 73
     0
 40
0.0
  0
LTYPE
  5
16
330
5
100
AcDbSymbolTableRecord
100
AcDbLinetypeTableRecord
  2
Continuous
 70
     0
  3
Solid line
 72
    65
 73
     0
 40
0.0
  0
ENDTAB
  0
TABLE
  2
LAYER
  5
2
330
0
100
AcDbSymbolTable
 70
     2
  0
LAYER
  5
10
330
2
100
AcDbSymbolTableRecord
100
AcDbLayerTableRecord
  2
0
 70
     0
 62
     7
  6
Continuous
370
    -3
390
F
347
3E
  0
LAYER
  5
40
330
2
100
AcDbSymbolTableRecord
100
AcDbLayerTableRecord
  2
Layer 1
 70
     0
 62
     7
  6
Continuous
370
    -3
390
F
347
3E
  0
ENDTAB
  0
TABLE
  2
STYLE
  5
3
330
0
100
AcDbSymbolTable
 70
     1
  0
STYLE
  5
11
330
3
100
AcDbSymbolTableRecord
100
AcDbTextStyleTableRecord
  2
Standard
 70
     0
 40
0.0
 41
1.0
 50
0.0
 71
     0
 42
0.2
  3
txt
  4

  0
ENDTAB
  0
TABLE
  2
VIEW
  5
6
330
0
100
AcDbSymbolTable
 70
     0
  0
ENDTAB
  0
TABLE
  2
UCS
  5
7
330
0
100
AcDbSymbolTable
 70
     0
  0
ENDTAB
  0
TABLE
  2
APPID
  5
9
330
0
100
AcDbSymbolTable
 70
     2
  0
APPID
  5
12
330
9
100
AcDbSymbolTableRecord
100
AcDbRegAppTableRecord
  2
ACAD
 70
     0
  0
APPID
  5
3F
330
9
100
AcDbSymbolTableRecord
100
AcDbRegAppTableRecord
  2
ODA
 70
     0
  0
ENDTAB
  0
TABLE
  2
DIMSTYLE
  5
A
330
0
100
AcDbSymbolTable
 70
     1
100
AcDbDimStyleTable
  0
DIMSTYLE
105
27
330
A
100
AcDbSymbolTableRecord
100
AcDbDimStyleTableRecord
  2
Standard
 70
     0
178
     0
340
11
  0
ENDTAB
  0
TABLE
  2
BLOCK_RECORD
  5
1
330
0
100
AcDbSymbolTable
 70
     1
  0
BLOCK_RECORD
  5
1F
330
1
100
AcDbSymbolTableRecord
100
AcDbBlockTableRecord
  2
*Model_Space
340
22
 70
     0
280
     1
281
     0
  0
BLOCK_RECORD
  5
1B
330
1
100
AcDbSymbolTableRecord
100
AcDbBlockTableRecord
  2
*Paper_Space
340
1E
 70
     0
280
     1
281
     0
  0
BLOCK_RECORD
  5
23
330
1
100
AcDbSymbolTableRecord
100
AcDbBlockTableRecord
  2
*Paper_Space0
340
26
 70
     0
280
     1
281
     0
  0
ENDTAB
  0
ENDSEC
  0
SECTION
  2
BLOCKS
  0
BLOCK
  5
20
330
1F
100
AcDbEntity
  8
0
100
AcDbBlockBegin
  2
*Model_Space
 70
     0
 10
0.0
 20
0.0
 30
0.0
  3
*Model_Space
  1

  0
ENDBLK
  5
21
330
1F
100
AcDbEntity
  8
0
100
AcDbBlockEnd
  0
BLOCK
  5
1C
330
1B
100
AcDbEntity
 67
     1
  8
0
100
AcDbBlockBegin
  2
*Paper_Space
 70
     0
 10
0.0
 20
0.0
 30
0.0
  3
*Paper_Space
  1

  0
ENDBLK
  5
1D
330
1B
100
AcDbEntity
 67
     1
  8
0
100
AcDbBlockEnd
  0
BLOCK
  5
24
330
23
100
AcDbEntity
  8
0
100
AcDbBlockBegin
  2
*Paper_Space0
 70
     0
 10
0.0
 20
0.0
 30
0.0
  3
*Paper_Space0
  1

  0
ENDBLK
  5
25
330
23
100
AcDbEntity
  8
0
100
AcDbBlockEnd
  0
ENDSEC
  0
SECTION
  2
ENTITIES
  0
SPLINE
  5
41
330
1F
100
AcDbEntity
  8
Layer 1
 62
     5
100
AcDbSpline
210
0.0
220
0.0
230
1.0
 70
    11
 71
     3
 72
    56
 73
    52
 74
     0
 42
0.0000000001
 43
0.0000000001
 12
1.0
 22
0.0
 32
0.0
 13
1.0
 23
0.0
 33
0.0
 40
0.0
 40
0.0
 40
0.0
 40
0.0
 40
0.0714285714285714
 40
0.0714285714285714
 40
0.0714285714285714
 40
0.0714285714285714
 40
0.1428571428571428
 40
0.1428571428571428
 40
0.1428571428571428
 40
0.1428571428571428
 40
0.2142857142857143
 40
0.2142857142857143
 40
0.2142857142857143
 40
0.2142857142857143
 40
0.2857142857142857
 40
0.2857142857142857
 40
0.2857142857142857
 40
0.2857142857142857
 40
0.3571428571428572
 40
0.3571428571428572
 40
0.3571428571428572
 40
0.3571428571428572
 40
0.4285714285714285
 40
0.4285714285714285
 40
0.4285714285714285
 40
0.4285714285714285
 40
0.5
 40
0.5
 40
0.5
 40
0.5
 40
0.5714285714285714
 40
0.5714285714285714
 40
0.5714285714285714
 40
0.5714285714285714
 40
0.6428571428571429
 40
0.6428571428571429
 40
0.6428571428571429
 40
0.6428571428571429
 40
0.7142857142857143
 40
0.7142857142857143
 40
0.7142857142857143
 40
0.7142857142857143
 40
0.7857142857142857
 40
0.7857142857142857
 40
0.7857142857142857
 40
0.7857142857142857
 40
0.8571428571428571
 40
0.8571428571428571
 40
0.8571428571428571
 40
0.8571428571428571
 40
1.0
 40
1.0
 40
1.0
 40
1.0
 10
-10.41766
 20
-14.08039
 30
0.0
 10
-10.41766
 20
-14.14123
 30
0.0
 10
-10.44233
 20
-14.19632
 30
0.0
 10
-10.48219
 20
-14.23618
 30
0.0
 10
-10.48219
 20
-14.23618
 30
0.0
 10
-10.48319
 20
-14.23718
 30
0.0
 10
-10.48423
 20
-14.23813
 30
0.0
 10
-10.48529
 20
-14.23903
 30
0.0
 10
-10.48529
 20
-14.23903
 30
0.0
 10
-10.52492
 20
-14.27721
 30
0.0
 10
-10.57875
 20
-14.30071
 30
0.0
 10
-10.63798
 20
-14.30071
 30
0.0
 10
-10.63798
 20
-14.30071
 30
0.0
 10
-10.69882
 20
-14.30071
 30
0.0
 10
-10.75391
 20
-14.27604
 30
0.0
 10
-10.79377
 20
-14.23618
 30
0.0
 10
-10.79377
 20
-14.23618
 30
0.0
 10
-10.79479
 20
-14.23516
 30
0.0
 10
-10.79576
 20
-14.2341
 30
0.0
 10
-10.79668
 20
-14.23301
 30
0.0
 10
-10.79668
 20
-14.23301
 30
0.0
 10
-10.83485
 20
-14.1933
 30
0.0
 10
-10.85831
 20
-14.13952
 30
0.0
 10
-10.85831
 20
-14.08039
 30
0.0
 10
-10.85831
 20
-14.08039
 30
0.0
 10
-10.85831
 20
-14.01974
 30
0.0
 10
-10.83361
 20
-13.96469
 30
0.0
 10
-10.79367
 20
-13.92471
 30
0.0
 10
-10.79367
 20
-13.92471
 30
0.0
 10
-10.79367
 20
-13.92471
 30
0.0
 10
-10.79377
 20
-13.92461
 30
0.0
 10
-10.79377
 20
-13.92461
 30
0.0
 10
-10.79377
 20
-13.92461
 30
0.0
 10
-10.75391
 20
-13.88475
 30
0.0
 10
-10.69882
 20
-13.86008
 30
0.0
 10
-10.63798
 20
-13.86008
 30
0.0
 10
-10.63798
 20
-13.86008
 30
0.0
 10
-10.57729
 20
-13.86008
 30
0.0
 10
-10.52226
 20
-13.88475
 30
0.0
 10
-10.48238
 20
-13.92461
 30
0.0
 10
-10.48238
 20
-13.92461
 30
0.0
 10
-10.48238
 20
-13.92461
 30
0.0
 10
-10.48229
 20
-13.92471
 30
0.0
 10
-10.48229
 20
-13.92471
 30
0.0
 10
-10.48229
 20
-13.92471
 30
0.0
 10
-10.48229
 20
-13.92471
 30
0.0
 10
-10.48219
 20
-13.92461
 30
0.0
 10
-10.48219
 20
-13.92461
 30
0.0
 10
-10.48219
 20
-13.92461
 30
0.0
 10
-10.44233
 20
-13.96447
 30
0.0
 10
-10.41766
 20
-14.01957
 30
0.0
 10
-10.41766
 20
-14.08039
 30
0.0
  0
SPLINE
  5
42
330
1F
100
AcDbEntity
  8
Layer 1
 62
     5
100
AcDbSpline
210
0.0
220
0.0
230
1.0
 70
    11
 71
     3
 72
    56
 73
    52
 74
     0
 42
0.0000000001
 43
0.0000000001
 12
1.0
 22
0.0
 32
0.0
 13
1.0
 23
0.0
 33
0.0
 40
0.0
 40
0.0
 40
0.0
 40
0.0
 40
0.0714285714285714
 40
0.0714285714285714
 40
0.0714285714285714
 40
0.0714285714285714
 40
0.1428571428571428
 40
0.1428571428571428
 40
0.1428571428571428
 40
0.1428571428571428
 40
0.2142857142857143
 40
0.2142857142857143
 40
0.2142857142857143
 40
0.2142857142857143
 40
0.2857142857142857
 40
0.2857142857142857
 40
0.2857142857142857
 40
0.2857142857142857
 40
0.3571428571428572
 40
0.3571428571428572
 40
0.3571428571428572
 40
0.3571428571428572
 40
0.4285714285714285
 40
0.4285714285714285
 40
0.4285714285714285
 40
0.4285714285714285
 40
0.5
 40
0.5
 40
0.5
 40
0.5
 40
0.5714285714285714
 40
0.5714285714285714
 40
0.5714285714285714
 40
0.5714285714285714
 40
0.6428571428571429
 40
0.6428571428571429
 40
0.6428571428571429
 40
0.6428571428571429
 40
0.7142857142857143
 40
0.7142857142857143
 40
0.7142857142857143
 40
0.7142857142857143
 40
0.7857142857142857
 40
0.7857142857142857
 40
0.7857142857142857
 40
0.7857142857142857
 40
0.8571428571428571
 40
0.8571428571428571
 40
0.8571428571428571
 40
0.8571428571428571
 40
1.0
 40
1.0
 40
1.0
 40
1.0
 10
-10.55289
 20
-14.16548
 30
0.0
 10
-10.53113
 20
-14.14372
 30
0.0
 10
-10.51766
 20
-14.11363
 30
0.0
 10
-10.51766
 20
-14.08039
 30
0.0
 10
-10.51766
 20
-14.08039
 30
0.0
 10
-10.51766
 20
-14.04716
 30
0.0
 10
-10.53113
 20
-14.01707
 30
0.0
 10
-10.55289
 20
-13.99531
 30
0.0
 10
-10.55289
 20
-13.99531
 30
0.0
 10
-10.55289
 20
-13.99531
 30
0.0
 10
-10.5528
 20
-13.99522
 30
0.0
 10
-10.5528
 20
-13.99522
 30
0.0
 10
-10.5528
 20
-13.99522
 30
0.0
 10
-10.57456
 20
-13.97351
 30
0.0
 10
-10.60468
 20
-13.96008
 30
0.0
 10
-10.63798
 20
-13.96008
 30
0.0
 10
-10.63798
 20
-13.96008
 30
0.0
 10
-10.67122
 20
-13.96008
 30
0.0
 10
-10.70131
 20
-13.97355
 30
0.0
 10
-10.72307
 20
-13.99531
 30
0.0
 10
-10.72307
 20
-13.99531
 30
0.0
 10
-10.72307
 20
-13.99531
 30
0.0
 10
-10.72317
 20
-13.99521
 30
0.0
 10
-10.72317
 20
-13.99521
 30
0.0
 10
-10.72317
 20
-13.99521
 30
0.0
 10
-10.72317
 20
-13.99521
 30
0.0
 10
-10.72326
 20
-13.99531
 30
0.0
 10
-10.72326
 20
-13.99531
 30
0.0
 10
-10.72326
 20
-13.99531
 30
0.0
 10
-10.74491
 20
-14.01695
 30
0.0
 10
-10.75831
 20
-14.04704
 30
0.0
 10
-10.75831
 20
-14.08039
 30
0.0
 10
-10.75831
 20
-14.08039
 30
0.0
 10
-10.75831
 20
-14.11265
 30
0.0
 10
-10.74578
 20
-14.14185
 30
0.0
 10
-10.72538
 20
-14.16331
 30
0.0
 10
-10.72538
 20
-14.16331
 30
0.0
 10
-10.7246
 20
-14.164
 30
0.0
 10
-10.72382
 20
-14.16473
 30
0.0
 10
-10.72307
 20
-14.16548
 30
0.0
 10
-10.72307
 20
-14.16548
 30
0.0
 10
-10.70131
 20
-14.18724
 30
0.0
 10
-10.67122
 20
-14.20071
 30
0.0
 10
-10.63798
 20
-14.20071
 30
0.0
 10
-10.63798
 20
-14.20071
 30
0.0
 10
-10.60576
 20
-14.20071
 30
0.0
 10
-10.57652
 20
-14.18815
 30
0.0
 10
-10.55495
 20
-14.16767
 30
0.0
 10
-10.55495
 20
-14.16767
 30
0.0
 10
-10.55428
 20
-14.16693
 30
0.0
 10
-10.5536
 20
-14.16619
 30
0.0
 10
-10.55289
 20
-14.16548
 30
0.0
  0
SPLINE
  5
43
330
1F
100
AcDbEntity
  8
Layer 1
 62
     5
100
AcDbSpline
210
0.0
220
0.0
230
1.0
 70
    11
 71
     3
 72
    40
 73
    36
 74
     0
 42
0.0000000001
 43
0.0000000001
 12
1.0
 22
0.0
 32
0.0
 13
1.0
 23
0.0
 33
0.0
 40
0.0
 40
0.0
 40
0.0
 40
0.0
 40
0.1
 40
0.1
 40
0.1
 40
0.1
 40
0.2
 40
0.2
 40
0.2
 40
0.2
 40
0.3
 40
0.3
 40
0.3
 40
0.3
 40
0.4
 40
0.4
 40
0.4
 40
0.4
 40
0.5
 40
0.5
 40
0.5
 40
0.5
 40
0.6
 40
0.6
 40
0.6
 40
0.6
 40
0.7
 40
0.7
 40
0.7
 40
0.7
 40
0.8
 40
0.8
 40
0.8
 40
0.8
 40
1.0
 40
1.0
 40
1.0
 40
1.0
 10
-11.22676
 20
-14.07966
 30
0.0
 10
-11.22676
 20
-14.1405
 30
0.0
 10
-11.25143
 20
-14.19559
 30
0.0
 10
-11.29129
 20
-14.23545
 30
0.0
 10
-11.29129
 20
-14.23545
 30
0.0
 10
-11.29231
 20
-14.23647
 30
0.0
 10
-11.29336
 20
-14.23743
 30
0.0
 10
-11.29443
 20
-14.23834
 30
0.0
 10
-11.29443
 20
-14.23834
 30
0.0
 10
-11.33412
 20
-14.2765
 30
0.0
 10
-11.38794
 20
-14.29998
 30
0.0
 10
-11.44706
 20
-14.29998
 30
0.0
 10
-11.44706
 20
-14.29998
 30
0.0
 10
-11.50789
 20
-14.29998
 30
0.0
 10
-11.56299
 20
-14.27532
 30
0.0
 10
-11.60287
 20
-14.23544
 30
0.0
 10
-11.60287
 20
-14.23544
 30
0.0
 10
-11.64273
 20
-14.19558
 30
0.0
 10
-11.66741
 20
-14.1405
 30
0.0
 10
-11.66741
 20
-14.07966
 30
0.0
 10
-11.66741
 20
-14.07966
 30
0.0
 10
-11.66741
 20
-14.01897
 30
0.0
 10
-11.64266
 20
-13.96387
 30
0.0
 10
-11.60267
 20
-13.92389
 30
0.0
 10
-11.60267
 20
-13.92389
 30
0.0
 10
-11.56279
 20
-13.88403
 30
0.0
 10
-11.50776
 20
-13.85936
 30
0.0
 10
-11.44706
 20
-13.85936
 30
0.0
 10
-11.44706
 20
-13.85936
 30
0.0
 10
-11.38623
 20
-13.85936
 30
0.0
 10
-11.33115
 20
-13.88403
 30
0.0
 10
-11.29129
 20
-13.92389
 30
0.0
 10
-11.29129
 20
-13.92389
 30
0.0
 10
-11.25143
 20
-13.96375
 30
0.0
 10
-11.22676
 20
-14.01883
 30
0.0
 10
-11.22676
 20
-14.07966
 30
0.0
  0
SPLINE
  5
44
330
1F
100
AcDbEntity
  8
Layer 1
 62
     5
100
AcDbSpline
210
0.0
220
0.0
230
1.0
 70
    11
 71
     3
 72
    40
 73
    36
 74
     0
 42
0.0000000001
 43
0.0000000001
 12
1.0
 22
0.0
 32
0.0
 13
1.0
 23
0.0
 33
0.0
 40
0.0
 40
0.0
 40
0.0
 40
0.0
 40
0.1
 40
0.1
 40
0.1
 40
0.1
 40
0.2
 40
0.2
 40
0.2
 40
0.2
 40
0.3
 40
0.3
 40
0.3
 40
0.3
 40
0.4
 40
0.4
 40
0.4
 40
0.4
 40
0.5
 40
0.5
 40
0.5
 40
0.5
 40
0.6
 40
0.6
 40
0.6
 40
0.6
 40
0.7
 40
0.7
 40
0.7
 40
0.7
 40
0.8
 40
0.8
 40
0.8
 40
0.8
 40
1.0
 40
1.0
 40
1.0
 40
1.0
 10
-11.36199
 20
-14.16475
 30
0.0
 10
-11.34023
 20
-14.14299
 30
0.0
 10
-11.32676
 20
-14.1129
 30
0.0
 10
-11.32676
 20
-14.07966
 30
0.0
 10
-11.32676
 20
-14.07966
 30
0.0
 10
-11.32676
 20
-14.04644
 30
0.0
 10
-11.34023
 20
-14.01635
 30
0.0
 10
-11.36199
 20
-13.99459
 30
0.0
 10
-11.36199
 20
-13.99459
 30
0.0
 10
-11.38375
 20
-13.97283
 30
0.0
 10
-11.41384
 20
-13.95936
 30
0.0
 10
-11.44706
 20
-13.95936
 30
0.0
 10
-11.44706
 20
-13.95936
 30
0.0
 10
-11.48042
 20
-13.95936
 30
0.0
 10
-11.51058
 20
-13.97283
 30
0.0
 10
-11.53235
 20
-13.99459
 30
0.0
 10
-11.53235
 20
-13.99459
 30
0.0
 10
-11.554
 20
-14.01623
 30
0.0
 10
-11.56741
 20
-14.04632
 30
0.0
 10
-11.56741
 20
-14.07966
 30
0.0
 10
-11.56741
 20
-14.07966
 30
0.0
 10
-11.56741
 20
-14.11289
 30
0.0
 10
-11.55393
 20
-14.14298
 30
0.0
 10
-11.53217
 20
-14.16474
 30
0.0
 10
-11.53217
 20
-14.16474
 30
0.0
 10
-11.5104
 20
-14.18651
 30
0.0
 10
-11.4803
 20
-14.19998
 30
0.0
 10
-11.44706
 20
-14.19998
 30
0.0
 10
-11.44706
 20
-14.19998
 30
0.0
 10
-11.41479
 20
-14.19998
 30
0.0
 10
-11.38557
 20
-14.18743
 30
0.0
 10
-11.36411
 20
-14.16701
 30
0.0
 10
-11.36411
 20
-14.16701
 30
0.0
 10
-11.36343
 20
-14.16624
 30
0.0
 10
-11.36273
 20
-14.16549
 30
0.0
 10
-11.36199
 20
-14.16475
 30
0.0
  0
SPLINE
  5
45
330
1F
100
AcDbEntity
  8
Layer 1
 62
     5
100
AcDbSpline
210
0.0
220
0.0
230
1.0
 70
    11
 71
     3
 72
    52
 73
    48
 74
     0
 42
0.0000000001
 43
0.0000000001
 12
1.0
 22
0.0
 32
0.0
 13
1.0
 23
0.0
 33
0.0
 40
0.0
 40
0.0
 40
0.0
 40
0.0
 40
0.0769230769230769
 40
0.0769230769230769
 40
0.0769230769230769
 40
0.0769230769230769
 40
0.1538461538461539
 40
0.1538461538461539
 40
0.1538461538461539
 40
0.1538461538461539
 40
0.2307692307692308
 40
0.2307692307692308
 40
0.2307692307692308
 40
0.2307692307692308
 40
0.3076923076923077
 40
0.3076923076923077
 40
0.3076923076923077
 40
0.3076923076923077
 40
0.3846153846153846
 40
0.3846153846153846
 40
0.3846153846153846
 40
0.3846153846153846
 40
0.4615384615384616
 40
0.4615384615384616
 40
0.4615384615384616
 40
0.4615384615384616
 40
0.5384615384615384
 40
0.5384615384615384
 40
0.5384615384615384
 40
0.5384615384615384
 40
0.6153846153846154
 40
0.6153846153846154
 40
0.6153846153846154
 40
0.6153846153846154
 40
0.6923076923076923
 40
0.6923076923076923
 40
0.6923076923076923
 40
0.6923076923076923
 40
0.7692307692307693
 40
0.7692307692307693
 40
0.7692307692307693
 40
0.7692307692307693
 40
0.8461538461538461
 40
0.8461538461538461
 40
0.8461538461538461
 40
0.8461538461538461
 40
1.0
 40
1.0
 40
1.0
 40
1.0
 10
-12.03025
 20
-14.08003
 30
0.0
 10
-12.03025
 20
-14.14085
 30
0.0
 10
-12.05492
 20
-14.19595
 30
0.0
 10
-12.09478
 20
-14.23581
 30
0.0
 10
-12.09478
 20
-14.23581
 30
0.0
 10
-12.0958
 20
-14.23683
 30
0.0
 10
-12.09686
 20
-14.2378
 30
0.0
 10
-12.09795
 20
-14.23872
 30
0.0
 10
-12.09795
 20
-14.23872
 30
0.0
 10
-12.13766
 20
-14.27689
 30
0.0
 10
-12.19144
 20
-14.30035
 30
0.0
 10
-12.25055
 20
-14.30035
 30
0.0
 10
-12.25055
 20
-14.30035
 30
0.0
 10
-12.31138
 20
-14.30035
 30
0.0
 10
-12.36648
 20
-14.27569
 30
0.0
 10
-12.40636
 20
-14.23581
 30
0.0
 10
-12.40636
 20
-14.23581
 30
0.0
 10
-12.44622
 20
-14.19595
 30
0.0
 10
-12.4709
 20
-14.14086
 30
0.0
 10
-12.4709
 20
-14.08003
 30
0.0
 10
-12.4709
 20
-14.08003
 30
0.0
 10
-12.4709
 20
-14.01942
 30
0.0
 10
-12.44624
 20
-13.96442
 30
0.0
 10
-12.40635
 20
-13.92445
 30
0.0
 10
-12.40635
 20
-13.92445
 30
0.0
 10
-12.40635
 20
-13.92445
 30
0.0
 10
-12.40625
 20
-13.92436
 30
0.0
 10
-12.40625
 20
-13.92436
 30
0.0
 10
-12.40625
 20
-13.92436
 30
0.0
 10
-12.40625
 20
-13.92436
 30
0.0
 10
-12.40616
 20
-13.92426
 30
0.0
 10
-12.40616
 20
-13.92426
 30
0.0
 10
-12.40616
 20
-13.92426
 30
0.0
 10
-12.40616
 20
-13.92426
 30
0.0
 10
-12.40565
 20
-13.92376
 30
0.0
 10
-12.40565
 20
-13.92376
 30
0.0
 10
-12.40565
 20
-13.92376
 30
0.0
 10
-12.36572
 20
-13.88417
 30
0.0
 10
-12.3109
 20
-13.85972
 30
0.0
 10
-12.25055
 20
-13.85972
 30
0.0
 10
-12.25055
 20
-13.85972
 30
0.0
 10
-12.18972
 20
-13.85972
 30
0.0
 10
-12.13464
 20
-13.88439
 30
0.0
 10
-12.09478
 20
-13.92425
 30
0.0
 10
-12.09478
 20
-13.92425
 30
0.0
 10
-12.05492
 20
-13.96411
 30
0.0
 10
-12.03025
 20
-14.01921
 30
0.0
 10
-12.03025
 20
-14.08003
 30
0.0
  0
SPLINE
  5
46
330
1F
100
AcDbEntity
  8
Layer 1
 62
     5
100
AcDbSpline
210
0.0
220
0.0
230
1.0
 70
    11
 71
     3
 72
    44
 73
    40
 74
     0
 42
0.0000000001
 43
0.0000000001
 12
1.0
 22
0.0
 32
0.0
 13
1.0
 23
0.0
 33
0.0
 40
0.0
 40
0.0
 40
0.0
 40
0.0
 40
0.0909090909090909
 40
0.0909090909090909
 40
0.0909090909090909
 40
0.0909090909090909
 40
0.1818181818181818
 40
0.1818181818181818
 40
0.1818181818181818
 40
0.1818181818181818
 40
0.2727272727272727
 40
0.2727272727272727
 40
0.2727272727272727
 40
0.2727272727272727
 40
0.3636363636363636
 40
0.3636363636363636
 40
0.3636363636363636
 40
0.3636363636363636
 40
0.4545454545454545
 40
0.4545454545454545
 40
0.4545454545454545
 40
0.4545454545454545
 40
0.5454545454545454
 40
0.5454545454545454
 40
0.5454545454545454
 40
0.5454545454545454
 40
0.6363636363636364
 40
0.6363636363636364
 40
0.6363636363636364
 40
0.6363636363636364
 40
0.7272727272727273
 40
0.7272727272727273
 40
0.7272727272727273
 40
0.7272727272727273
 40
0.8181818181818182
 40
0.8181818181818182
 40
0.8181818181818182
 40
0.8181818181818182
 40
1.0
 40
1.0
 40
1.0
 40
1.0
 10
-12.16548
 20
-14.16511
 30
0.0
 10
-12.14372
 20
-14.14335
 30
0.0
 10
-12.13025
 20
-14.11326
 30
0.0
 10
-12.13025
 20
-14.08003
 30
0.0
 10
-12.13025
 20
-14.08003
 30
0.0
 10
-12.13025
 20
-14.0468
 30
0.0
 10
-12.14372
 20
-14.01671
 30
0.0
 10
-12.16548
 20
-13.99495
 30
0.0
 10
-12.16548
 20
-13.99495
 30
0.0
 10
-12.18724
 20
-13.97319
 30
0.0
 10
-12.21733
 20
-13.95972
 30
0.0
 10
-12.25055
 20
-13.95972
 30
0.0
 10
-12.25055
 20
-13.95972
 30
0.0
 10
-12.28391
 20
-13.95972
 30
0.0
 10
-12.31401
 20
-13.97312
 30
0.0
 10
-12.33565
 20
-13.99477
 30
0.0
 10
-12.33565
 20
-13.99477
 30
0.0
 10
-12.33565
 20
-13.99477
 30
0.0
 10
-12.33584
 20
-13.99496
 30
0.0
 10
-12.33584
 20
-13.99496
 30
0.0
 10
-12.33584
 20
-13.99496
 30
0.0
 10
-12.35749
 20
-14.0166
 30
0.0
 10
-12.3709
 20
-14.04668
 30
0.0
 10
-12.3709
 20
-14.08003
 30
0.0
 10
-12.3709
 20
-14.08003
 30
0.0
 10
-12.3709
 20
-14.11325
 30
0.0
 10
-12.35742
 20
-14.14335
 30
0.0
 10
-12.33566
 20
-14.16511
 30
0.0
 10
-12.33566
 20
-14.16511
 30
0.0
 10
-12.31389
 20
-14.18688
 30
0.0
 10
-12.28379
 20
-14.20035
 30
0.0
 10
-12.25055
 20
-14.20035
 30
0.0
 10
-12.25055
 20
-14.20035
 30
0.0
 10
-12.2183
 20
-14.20035
 30
0.0
 10
-12.18911
 20
-14.18782
 30
0.0
 10
-12.16765
 20
-14.16742
 30
0.0
 10
-12.16765
 20
-14.16742
 30
0.0
 10
-12.16696
 20
-14.16664
 30
0.0
 10
-12.16623
 20
-14.16586
 30
0.0
 10
-12.16548
 20
-14.16511
 30
0.0
  0
SPLINE
  5
47
330
1F
100
AcDbEntity
  8
Layer 1
 62
     5
100
AcDbSpline
210
0.0
220
0.0
230
1.0
 70
    11
 71
     3
 72
   172
 73
   168
 74
     0
 42
0.0000000001
 43
0.0000000001
 12
1.0
 22
0.0
 32
0.0
 13
1.0
 23
0.0
 33
0.0
 40
0.0
 40
0.0
 40
0.0
 40
0.0
 40
0.0232558139534884
 40
0.0232558139534884
 40
0.0232558139534884
 40
0.0232558139534884
 40
0.0465116279069767
 40
0.0465116279069767
 40
0.0465116279069767
 40
0.0465116279069767
 40
0.0697674418604651
 40
0.0697674418604651
 40
0.0697674418604651
 40
0.0697674418604651
 40
0.0930232558139535
 40
0.0930232558139535
 40
0.0930232558139535
 40
0.0930232558139535
 40
0.1162790697674419
 40
0.1162790697674419
 40
0.1162790697674419
 40
0.1162790697674419
 40
0.1395348837209302
 40
0.1395348837209302
 40
0.1395348837209302
 40
0.1395348837209302
 40
0.1627906976744186
 40
0.1627906976744186
 40
0.1627906976744186
 40
0.1627906976744186
 40
0.186046511627907
 40
0.186046511627907
 40
0.186046511627907
 40
0.186046511627907
 40
0.2093023255813954
 40
0.2093023255813954
 40
0.2093023255813954
 40
0.2093023255813954
 40
0.2325581395348837
 40
0.2325581395348837
 40
0.2325581395348837
 40
0.2325581395348837
 40
0.2558139534883721
 40
0.2558139534883721
 40
0.2558139534883721
 40
0.2558139534883721
 40
0.2790697674418605
 40
0.2790697674418605
 40
0.2790697674418605
 40
0.2790697674418605
 40
0.3023255813953488
 40
0.3023255813953488
 40
0.3023255813953488
 40
0.3023255813953488
 40
0.3255813953488372
 40
0.3255813953488372
 40
0.3255813953488372
 40
0.3255813953488372
 40
0.3488372093023256
 40
0.3488372093023256
 40
0.3488372093023256
 40
0.3488372093023256
 40
0.3720930232558139
 40
0.3720930232558139
 40
0.3720930232558139
 40
0.3720930232558139
 40
0.3953488372093023
 40
0.3953488372093023
 40
0.3953488372093023
 40
0.3953488372093023
 40
0.4186046511627907
 40
0.4186046511627907
 40
0.4186046511627907
 40
0.4186046511627907
 40
0.4418604651162791
 40
0.4418604651162791
 40
0.4418604651162791
 40
0.4418604651162791
 40
0.4651162790697674
 40
0.4651162790697674
 40
0.4651162790697674
 40
0.4651162790697674
 40
0.4883720930232558
 40
0.4883720930232558
 40
0.4883720930232558
 40
0.4883720930232558
 40
0.5116279069767442
 40
0.5116279069767442
 40
0.5116279069767442
 40
0.5116279069767442
 40
0.5348837209302325
 40
0.5348837209302325
 40
0.5348837209302325
 40
0.5348837209302325
 40
0.5581395348837209
 40
0.5581395348837209
 40
0.5581395348837209
 40
0.5581395348837209
 40
0.5813953488372093
 40
0.5813953488372093
 40
0.5813953488372093
 40
0.5813953488372093
 40
0.6046511627906976
 40
0.6046511627906976
 40
0.6046511627906976
 40
0.6046511627906976
 40
0.627906976744186
 40
0.627906976744186
 40
0.627906976744186
 40
0.627906976744186
 40
0.6511627906976745
 40
0.6511627906976745
 40
0.6511627906976745
 40
0.6511627906976745
 40
0.6744186046511628
 40
0.6744186046511628
 40
0.6744186046511628
 40
0.6744186046511628
 40
0.6976744186046512
 40
0.6976744186046512
 40
0.6976744186046512
 40
0.6976744186046512
 40
0.7209302325581395
 40
0.7209302325581395
 40
0.7209302325581395
 40
0.7209302325581395
 40
0.7441860465116279
 40
0.7441860465116279
 40
0.7441860465116279
 40
0.7441860465116279
 40
0.7674418604651163
 40
0.7674418604651163
 40
0.7674418604651163
 40
0.7674418604651163
 40
0.7906976744186046
 40
0.7906976744186046
 40
0.7906976744186046
 40
0.7906976744186046
 40
0.813953488372093
 40
0.813953488372093
 40
0.813953488372093
 40
0.813953488372093
 40
0.8372093023255814
 40
0.8372093023255814
 40
0.8372093023255814
 40
0.8372093023255814
 40
0.8604651162790697
 40
0.8604651162790697
 40
0.8604651162790697
 40
0.8604651162790697
 40
0.8837209302325582
 40
0.8837209302325582
 40
0.8837209302325582
 40
0.8837209302325582
 40
0.9069767441860465
 40
0.9069767441860465
 40
0.9069767441860465
 40
0.9069767441860465
 40
0.9302325581395349
 40
0.9302325581395349
 40
0.9302325581395349
 40
0.9302325581395349
 40
0.9534883720930233
 40
0.9534883720930233
 40
0.9534883720930233
 40
0.9534883720930233
 40
1.0
 40
1.0
 40
1.0
 40
1.0
 10
-13.40371
 20
-14.0793
 30
0.0
 10
-13.40371
 20
-14.10691
 30
0.0
 10
-13.4261
 20
-14.1293
 30
0.0
 10
-13.45371
 20
-14.1293
 30
0.0
 10
-13.45371
 20
-14.1293
 30
0.0
 10
-13.48132
 20
-14.1293
 30
0.0
 10
-13.50371
 20
-14.10691
 30
0.0
 10
-13.50371
 20
-14.0793
 30
0.0
 10
-13.50371
 20
-14.0793
 30
0.0
 10
-13.50371
 20
-13.95669
 30
0.0
 10
-13.45399
 20
-13.84567
 30
0.0
 10
-13.37364
 20
-13.76532
 30
0.0
 10
-13.37364
 20
-13.76532
 30
0.0
 10
-13.29329
 20
-13.68497
 30
0.0
 10
-13.18225
 20
-13.63526
 30
0.0
 10
-13.05964
 20
-13.63526
 30
0.0
 10
-13.05964
 20
-13.63526
 30
0.0
 10
-12.93792
 20
-13.63526
 30
0.0
 10
-12.82762
 20
-13.68435
 30
0.0
 10
-12.74607
 20
-13.76386
 30
0.0
 10
-12.74607
 20
-13.76386
 30
0.0
 10
-12.70932
 20
-13.79969
 30
0.0
 10
-12.67843
 20
-13.84173
 30
0.0
 10
-12.65499
 20
-13.88825
 30
0.0
 10
-12.65499
 20
-13.88825
 30
0.0
 10
-12.63155
 20
-13.84195
 30
0.0
 10
-12.60072
 20
-13.80009
 30
0.0
 10
-12.56404
 20
-13.76441
 30
0.0
 10
-12.56404
 20
-13.76441
 30
0.0
 10
-12.4825
 20
-13.68505
 30
0.0
 10
-12.37223
 20
-13.63599
 30
0.0
 10
-12.25057
 20
-13.63599
 30
0.0
 10
-12.25057
 20
-13.63599
 30
0.0
 10
-12.12867
 20
-13.63599
 30
0.0
 10
-12.01819
 20
-13.68525
 30
0.0
 10
-11.9369
 20
-13.76495
 30
0.0
 10
-11.9369
 20
-13.76495
 30
0.0
 10
-11.90149
 20
-13.79966
 30
0.0
 10
-11.87167
 20
-13.84019
 30
0.0
 10
-11.84888
 20
-13.88496
 30
0.0
 10
-11.84888
 20
-13.88496
 30
0.0
 10
-11.8261
 20
-13.84008
 30
0.0
 10
-11.79623
 20
-13.79946
 30
0.0
 10
-11.76078
 20
-13.76467
 30
0.0
 10
-11.76078
 20
-13.76467
 30
0.0
 10
-11.6795
 20
-13.68491
 30
0.0
 10
-11.569
 20
-13.63562
 30
0.0
 10
-11.44708
 20
-13.63562
 30
0.0
 10
-11.44708
 20
-13.63562
 30
0.0
 10
-11.32536
 20
-13.63562
 30
0.0
 10
-11.21505
 20
-13.68471
 30
0.0
 10
-11.13351
 20
-13.76421
 30
0.0
 10
-11.13351
 20
-13.76421
 30
0.0
 10
-11.09675
 20
-13.80004
 30
0.0
 10
-11.06586
 20
-13.8421
 30
0.0
 10
-11.04242
 20
-13.88862
 30
0.0
 10
-11.04242
 20
-13.88862
 30
0.0
 10
-11.01899
 20
-13.84232
 30
0.0
 10
-10.98815
 20
-13.80045
 30
0.0
 10
-10.95147
 20
-13.76476
 30
0.0
 10
-10.95147
 20
-13.76476
 30
0.0
 10
-10.86992
 20
-13.68539
 30
0.0
 10
-10.75966
 20
-13.63633
 30
0.0
 10
-10.63798
 20
-13.63633
 30
0.0
 10
-10.63798
 20
-13.63633
 30
0.0
 10
-10.51537
 20
-13.63633
 30
0.0
 10
-10.40436
 20
-13.68605
 30
0.0
 10
-10.32402
 20
-13.76639
 30
0.0
 10
-10.32402
 20
-13.76639
 30
0.0
 10
-10.24367
 20
-13.84674
 30
0.0
 10
-10.19396
 20
-13.95778
 30
0.0
 10
-10.19396
 20
-14.08038
 30
0.0
 10
-10.19396
 20
-14.08038
 30
0.0
 10
-10.19396
 20
-14.10799
 30
0.0
 10
-10.21635
 20
-14.13038
 30
0.0
 10
-10.24396
 20
-14.13038
 30
0.0
 10
-10.24396
 20
-14.13038
 30
0.0
 10
-10.27157
 20
-14.13038
 30
0.0
 10
-10.29396
 20
-14.10799
 30
0.0
 10
-10.29396
 20
-14.08038
 30
0.0
 10
-10.29396
 20
-14.08038
 30
0.0
 10
-10.29396
 20
-13.98537
 30
0.0
 10
-10.33247
 20
-13.89934
 30
0.0
 10
-10.39472
 20
-13.83709
 30
0.0
 10
-10.39472
 20
-13.83709
 30
0.0
 10
-10.45696
 20
-13.77485
 30
0.0
 10
-10.54298
 20
-13.73633
 30
0.0
 10
-10.63798
 20
-13.73633
 30
0.0
 10
-10.63798
 20
-13.73633
 30
0.0
 10
-10.73269
 20
-13.73633
 30
0.0
 10
-10.81849
 20
-13.7745
 30
0.0
 10
-10.88193
 20
-13.83624
 30
0.0
 10
-10.88193
 20
-13.83624
 30
0.0
 10
-10.94649
 20
-13.89907
 30
0.0
 10
-10.9881
 20
-13.98619
 30
0.0
 10
-10.99273
 20
-14.08236
 30
0.0
 10
-10.99273
 20
-14.08236
 30
0.0
 10
-10.9939
 20
-14.10778
 30
0.0
 10
-11.01427
 20
-14.1286
 30
0.0
 10
-11.04019
 20
-14.12982
 30
0.0
 10
-11.04019
 20
-14.12982
 30
0.0
 10
-11.06769
 20
-14.13111
 30
0.0
 10
-11.09104
 20
-14.10986
 30
0.0
 10
-11.09233
 20
-14.08236
 30
0.0
 10
-11.09233
 20
-14.08236
 30
0.0
 10
-11.09698
 20
-13.98586
 30
0.0
 10
-11.13854
 20
-13.89858
 30
0.0
 10
-11.20305
 20
-13.83569
 30
0.0
 10
-11.20305
 20
-13.83569
 30
0.0
 10
-11.26651
 20
-13.77383
 30
0.0
 10
-11.35234
 20
-13.73562
 30
0.0
 10
-11.44708
 20
-13.73562
 30
0.0
 10
-11.44708
 20
-13.73562
 30
0.0
 10
-11.54192
 20
-13.73562
 30
0.0
 10
-11.62778
 20
-13.77387
 30
0.0
 10
-11.69086
 20
-13.83577
 30
0.0
 10
-11.69086
 20
-13.83577
 30
0.0
 10
-11.75484
 20
-13.89855
 30
0.0
 10
-11.79562
 20
-13.98552
 30
0.0
 10
-11.79902
 20
-14.0816
 30
0.0
 10
-11.79902
 20
-14.0816
 30
0.0
 10
-11.79991
 20
-14.10752
 30
0.0
 10
-11.82074
 20
-14.12871
 30
0.0
 10
-11.84706
 20
-14.12964
 30
0.0
 10
-11.84706
 20
-14.12964
 30
0.0
 10
-11.87456
 20
-14.13061
 30
0.0
 10
-11.89765
 20
-14.1091
 30
0.0
 10
-11.89862
 20
-14.0816
 30
0.0
 10
-11.89862
 20
-14.0816
 30
0.0
 10
-11.90202
 20
-13.98569
 30
0.0
 10
-11.94283
 20
-13.8988
 30
0.0
 10
-12.00682
 20
-13.83605
 30
0.0
 10
-12.00682
 20
-13.83605
 30
0.0
 10
-12.06989
 20
-13.77422
 30
0.0
 10
-12.15574
 20
-13.73599
 30
0.0
 10
-12.25057
 20
-13.73599
 30
0.0
 10
-12.25057
 20
-13.73599
 30
0.0
 10
-12.34527
 20
-13.73599
 30
0.0
 10
-12.43108
 20
-13.77416
 30
0.0
 10
-12.4945
 20
-13.83589
 30
0.0
 10
-12.4945
 20
-13.83589
 30
0.0
 10
-12.55906
 20
-13.89871
 30
0.0
 10
-12.60067
 20
-13.98583
 30
0.0
 10
-12.6053
 20
-14.082
 30
0.0
 10
-12.6053
 20
-14.082
 30
0.0
 10
-12.60647
 20
-14.10742
 30
0.0
 10
-12.62684
 20
-14.12824
 30
0.0
 10
-12.65276
 20
-14.12946
 30
0.0
 10
-12.65276
 20
-14.12946
 30
0.0
 10
-12.68026
 20
-14.13075
 30
0.0
 10
-12.70361
 20
-14.1095
 30
0.0
 10
-12.7049
 20
-14.082
 30
0.0
 10
-12.7049
 20
-14.082
 30
0.0
 10
-12.70954
 20
-13.9855
 30
0.0
 10
-12.75111
 20
-13.89822
 30
0.0
 10
-12.81561
 20
-13.83534
 30
0.0
 10
-12.81561
 20
-13.83534
 30
0.0
 10
-12.87907
 20
-13.77346
 30
0.0
 10
-12.96491
 20
-13.73526
 30
0.0
 10
-13.05964
 20
-13.73526
 30
0.0
 10
-13.05964
 20
-13.73526
 30
0.0
 10
-13.15466
 20
-13.73526
 30
0.0
 10
-13.24069
 20
-13.77377
 30
0.0
 10
-13.30294
 20
-13.83602
 30
0.0
 10
-13.30294
 20
-13.83602
 30
0.0
 10
-13.36519
 20
-13.89827
 30
0.0
 10
-13.40371
 20
-13.9843
 30
0.0
 10
-13.40371
 20
-14.0793
 30
0.0
  0
SPLINE
  5
48
330
1F
100
AcDbEntity
  8
Layer 1
 62
     5
100
AcDbSpline
210
0.0
220
0.0
230
1.0
 70
    11
 71
     3
 72
    56
 73
    52
 74
     0
 42
0.0000000001
 43
0.0000000001
 12
1.0
 22
0.0
 32
0.0
 13
1.0
 23
0.0
 33
0.0
 40
0.0
 40
0.0
 40
0.0
 40
0.0
 40
0.0714285714285714
 40
0.0714285714285714
 40
0.0714285714285714
 40
0.0714285714285714
 40
0.1428571428571428
 40
0.1428571428571428
 40
0.1428571428571428
 40
0.1428571428571428
 40
0.2142857142857143
 40
0.2142857142857143
 40
0.2142857142857143
 40
0.2142857142857143
 40
0.2857142857142857
 40
0.2857142857142857
 40
0.2857142857142857
 40
0.2857142857142857
 40
0.3571428571428572
 40
0.3571428571428572
 40
0.3571428571428572
 40
0.3571428571428572
 40
0.4285714285714285
 40
0.4285714285714285
 40
0.4285714285714285
 40
0.4285714285714285
 40
0.5
 40
0.5
 40
0.5
 40
0.5
 40
0.5714285714285714
 40
0.5714285714285714
 40
0.5714285714285714
 40
0.5714285714285714
 40
0.6428571428571429
 40
0.6428571428571429
 40
0.6428571428571429
 40
0.6428571428571429
 40
0.7142857142857143
 40
0.7142857142857143
 40
0.7142857142857143
 40
0.7142857142857143
 40
0.7857142857142857
 40
0.7857142857142857
 40
0.7857142857142857
 40
0.7857142857142857
 40
0.8571428571428571
 40
0.8571428571428571
 40
0.8571428571428571
 40
0.8571428571428571
 40
1.0
 40
1.0
 40
1.0
 40
1.0
 10
-12.83932
 20
-14.0793
 30
0.0
 10
-12.83932
 20
-14.14014
 30
0.0
 10
-12.86399
 20
-14.19523
 30
0.0
 10
-12.90385
 20
-14.23509
 30
0.0
 10
-12.90385
 20
-14.23509
 30
0.0
 10
-12.94371
 20
-14.27495
 30
0.0
 10
-12.9988
 20
-14.29962
 30
0.0
 10
-13.05964
 20
-14.29962
 30
0.0
 10
-13.05964
 20
-14.29962
 30
0.0
 10
-13.12024
 20
-14.29962
 30
0.0
 10
-13.17527
 20
-14.27497
 30
0.0
 10
-13.21524
 20
-14.23508
 30
0.0
 10
-13.21524
 20
-14.23508
 30
0.0
 10
-13.21524
 20
-14.23508
 30
0.0
 10
-13.21533
 20
-14.23498
 30
0.0
 10
-13.21533
 20
-14.23498
 30
0.0
 10
-13.21533
 20
-14.23498
 30
0.0
 10
-13.21533
 20
-14.23498
 30
0.0
 10
-13.21543
 20
-14.23489
 30
0.0
 10
-13.21543
 20
-14.23489
 30
0.0
 10
-13.21543
 20
-14.23489
 30
0.0
 10
-13.21543
 20
-14.23489
 30
0.0
 10
-13.21593
 20
-14.23438
 30
0.0
 10
-13.21593
 20
-14.23438
 30
0.0
 10
-13.21593
 20
-14.23438
 30
0.0
 10
-13.25552
 20
-14.19445
 30
0.0
 10
-13.27997
 20
-14.13966
 30
0.0
 10
-13.27997
 20
-14.0793
 30
0.0
 10
-13.27997
 20
-14.0793
 30
0.0
 10
-13.27997
 20
-14.01848
 30
0.0
 10
-13.25529
 20
-13.96339
 30
0.0
 10
-13.21543
 20
-13.92353
 30
0.0
 10
-13.21543
 20
-13.92353
 30
0.0
 10
-13.21443
 20
-13.92253
 30
0.0
 10
-13.21339
 20
-13.92158
 30
0.0
 10
-13.21233
 20
-13.92068
 30
0.0
 10
-13.21233
 20
-13.92068
 30
0.0
 10
-13.1727
 20
-13.8825
 30
0.0
 10
-13.11887
 20
-13.859
 30
0.0
 10
-13.05964
 20
-13.859
 30
0.0
 10
-13.05964
 20
-13.859
 30
0.0
 10
-12.99882
 20
-13.859
 30
0.0
 10
-12.94372
 20
-13.88367
 30
0.0
 10
-12.90386
 20
-13.92353
 30
0.0
 10
-12.90386
 20
-13.92353
 30
0.0
 10
-12.90284
 20
-13.92455
 30
0.0
 10
-12.90187
 20
-13.92561
 30
0.0
 10
-12.90095
 20
-13.9267
 30
0.0
 10
-12.90095
 20
-13.9267
 30
0.0
 10
-12.86278
 20
-13.96641
 30
0.0
 10
-12.83932
 20
-14.02019
 30
0.0
 10
-12.83932
 20
-14.0793
 30
0.0
  0
SPLINE
  5
49
330
1F
100
AcDbEntity
  8
Layer 1
 62
     5
100
AcDbSpline
210
0.0
220
0.0
230
1.0
 70
    11
 71
     3
 72
    48
 73
    44
 74
     0
 42
0.0000000001
 43
0.0000000001
 12
1.0
 22
0.0
 32
0.0
 13
1.0
 23
0.0
 33
0.0
 40
0.0
 40
0.0
 40
0.0
 40
0.0
 40
0.0833333333333333
 40
0.0833333333333333
 40
0.0833333333333333
 40
0.0833333333333333
 40
0.1666666666666667
 40
0.1666666666666667
 40
0.1666666666666667
 40
0.1666666666666667
 40
0.25
 40
0.25
 40
0.25
 40
0.25
 40
0.3333333333333333
 40
0.3333333333333333
 40
0.3333333333333333
 40
0.3333333333333333
 40
0.4166666666666667
 40
0.4166666666666667
 40
0.4166666666666667
 40
0.4166666666666667
 40
0.5
 40
0.5
 40
0.5
 40
0.5
 40
0.5833333333333334
 40
0.5833333333333334
 40
0.5833333333333334
 40
0.5833333333333334
 40
0.6666666666666666
 40
0.6666666666666666
 40
0.6666666666666666
 40
0.6666666666666666
 40
0.75
 40
0.75
 40
0.75
 40
0.75
 40
0.8333333333333334
 40
0.8333333333333334
 40
0.8333333333333334
 40
0.8333333333333334
 40
1.0
 40
1.0
 40
1.0
 40
1.0
 10
-12.97455
 20
-14.16439
 30
0.0
 10
-12.95279
 20
-14.14263
 30
0.0
 10
-12.93932
 20
-14.11254
 30
0.0
 10
-12.93932
 20
-14.0793
 30
0.0
 10
-12.93932
 20
-14.0793
 30
0.0
 10
-12.93932
 20
-14.04705
 30
0.0
 10
-12.95185
 20
-14.01786
 30
0.0
 10
-12.97225
 20
-13.9964
 30
0.0
 10
-12.97225
 20
-13.9964
 30
0.0
 10
-12.97303
 20
-13.99571
 30
0.0
 10
-12.97381
 20
-13.99498
 30
0.0
 10
-12.97456
 20
-13.99423
 30
0.0
 10
-12.97456
 20
-13.99423
 30
0.0
 10
-12.99632
 20
-13.97247
 30
0.0
 10
-13.02641
 20
-13.959
 30
0.0
 10
-13.05964
 20
-13.959
 30
0.0
 10
-13.05964
 20
-13.959
 30
0.0
 10
-13.09186
 20
-13.959
 30
0.0
 10
-13.1211
 20
-13.97156
 30
0.0
 10
-13.14267
 20
-13.99204
 30
0.0
 10
-13.14267
 20
-13.99204
 30
0.0
 10
-13.14334
 20
-13.99278
 30
0.0
 10
-13.14402
 20
-13.99352
 30
0.0
 10
-13.14473
 20
-13.99423
 30
0.0
 10
-13.14473
 20
-13.99423
 30
0.0
 10
-13.16649
 20
-14.01599
 30
0.0
 10
-13.17997
 20
-14.04608
 30
0.0
 10
-13.17997
 20
-14.0793
 30
0.0
 10
-13.17997
 20
-14.0793
 30
0.0
 10
-13.17997
 20
-14.11266
 30
0.0
 10
-13.16657
 20
-14.14274
 30
0.0
 10
-13.14492
 20
-14.16438
 30
0.0
 10
-13.14492
 20
-14.16438
 30
0.0
 10
-13.14492
 20
-14.16438
 30
0.0
 10
-13.14473
 20
-14.16457
 30
0.0
 10
-13.14473
 20
-14.16457
 30
0.0
 10
-13.14473
 20
-14.16457
 30
0.0
 10
-13.12309
 20
-14.18622
 30
0.0
 10
-13.09299
 20
-14.19962
 30
0.0
 10
-13.05964
 20
-14.19962
 30
0.0
 10
-13.05964
 20
-14.19962
 30
0.0
 10
-13.0264
 20
-14.19962
 30
0.0
 10
-12.99631
 20
-14.18615
 30
0.0
 10
-12.97455
 20
-14.16439
 30
0.0
  0
SPLINE
  5
4A
330
1F
100
AcDbEntity
  8
Layer 1
 62
     5
100
AcDbSpline
210
0.0
220
0.0
230
1.0
 70
    11
 71
     3
 72
    28
 73
    24
 74
     0
 42
0.0000000001
 43
0.0000000001
 12
1.0
 22
0.0
 32
0.0
 13
1.0
 23
0.0
 33
0.0
 40
0.0
 40
0.0
 40
0.0
 40
0.0
 40
0.1428571428571428
 40
0.1428571428571428
 40
0.1428571428571428
 40
0.1428571428571428
 40
0.2857142857142857
 40
0.2857142857142857
 40
0.2857142857142857
 40
0.2857142857142857
 40
0.4285714285714285
 40
0.4285714285714285
 40
0.4285714285714285
 40
0.4285714285714285
 40
0.5714285714285714
 40
0.5714285714285714
 40
0.5714285714285714
 40
0.5714285714285714
 40
0.7142857142857143
 40
0.7142857142857143
 40
0.7142857142857143
 40
0.7142857142857143
 40
1.0
 40
1.0
 40
1.0
 40
1.0
 10
-11.54393
 20
-10.94985
 30
0.0
 10
-11.57154
 20
-10.94985
 30
0.0
 10
-11.59393
 20
-10.92746
 30
0.0
 10
-11.59393
 20
-10.89985
 30
0.0
 10
-11.59393
 20
-10.89985
 30
0.0
 10
-11.59393
 20
-10.87224
 30
0.0
 10
-11.57154
 20
-10.84985
 30
0.0
 10
-11.54393
 20
-10.84985
 30
0.0
 10
-11.54393
 20
-10.84985
 30
0.0
 10
-11.54393
 20
-10.84985
 30
0.0
 10
-10.57265
 20
-10.84985
 30
0.0
 10
-10.57265
 20
-10.84985
 30
0.0
 10
-10.57265
 20
-10.84985
 30
0.0
 10
-10.54504
 20
-10.84985
 30
0.0
 10
-10.52265
 20
-10.87224
 30
0.0
 10
-10.52265
 20
-10.89985
 30
0.0
 10
-10.52265
 20
-10.89985
 30
0.0
 10
-10.52265
 20
-10.92746
 30
0.0
 10
-10.54504
 20
-10.94985
 30
0.0
 10
-10.57265
 20
-10.94985
 30
0.0
 10
-10.57265
 20
-10.94985
 30
0.0
 10
-10.57265
 20
-10.94985
 30
0.0
 10
-11.54393
 20
-10.94985
 30
0.0
 10
-11.54393
 20
-10.94985
 30
0.0
  0
SPLINE
  5
4B
330
1F
100
AcDbEntity
  8
Layer 1
 62
     5
100
AcDbSpline
210
0.0
220
0.0
230
1.0
 70
    11
 71
     3
 72
    28
 73
    24
 74
     0
 42
0.0000000001
 43
0.0000000001
 12
1.0
 22
0.0
 32
0.0
 13
1.0
 23
0.0
 33
0.0
 40
0.0
 40
0.0
 40
0.0
 40
0.0
 40
0.1428571428571428
 40
0.1428571428571428
 40
0.1428571428571428
 40
0.1428571428571428
 40
0.2857142857142857
 40
0.2857142857142857
 40
0.2857142857142857
 40
0.2857142857142857
 40
0.4285714285714285
 40
0.4285714285714285
 40
0.4285714285714285
 40
0.4285714285714285
 40
0.5714285714285714
 40
0.5714285714285714
 40
0.5714285714285714
 40
0.5714285714285714
 40
0.7142857142857143
 40
0.7142857142857143
 40
0.7142857142857143
 40
0.7142857142857143
 40
1.0
 40
1.0
 40
1.0
 40
1.0
 10
-11.25834
 20
-13.40847
 30
0.0
 10
-11.23084
 20
-13.40847
 30
0.0
 10
-11.20854
 20
-13.43077
 30
0.0
 10
-11.20854
 20
-13.45827
 30
0.0
 10
-11.20854
 20
-13.45827
 30
0.0
 10
-11.20854
 20
-13.48577
 30
0.0
 10
-11.23084
 20
-13.50807
 30
0.0
 10
-11.25834
 20
-13.50807
 30
0.0
 10
-11.25834
 20
-13.50807
 30
0.0
 10
-11.25834
 20
-13.50807
 30
0.0
 10
-13.48744
 20
-13.50805
 30
0.0
 10
-13.48744
 20
-13.50805
 30
0.0
 10
-13.48744
 20
-13.50805
 30
0.0
 10
-13.51494
 20
-13.50805
 30
0.0
 10
-13.53724
 20
-13.48575
 30
0.0
 10
-13.53724
 20
-13.45825
 30
0.0
 10
-13.53724
 20
-13.45825
 30
0.0
 10
-13.53724
 20
-13.43075
 30
0.0
 10
-13.51494
 20
-13.40845
 30
0.0
 10
-13.48744
 20
-13.40845
 30
0.0
 10
-13.48744
 20
-13.40845
 30
0.0
 10
-13.48744
 20
-13.40845
 30
0.0
 10
-11.25834
 20
-13.40847
 30
0.0
 10
-11.25834
 20
-13.40847
 30
0.0
  0
SPLINE
  5
4C
330
1F
100
AcDbEntity
  8
Layer 1
 62
     5
100
AcDbSpline
210
0.0
220
0.0
230
1.0
 70
    11
 71
     3
 72
    28
 73
    24
 74
     0
 42
0.0000000001
 43
0.0000000001
 12
1.0
 22
0.0
 32
0.0
 13
1.0
 23
0.0
 33
0.0
 40
0.0
 40
0.0
 40
0.0
 40
0.0
 40
0.1428571428571428
 40
0.1428571428571428
 40
0.1428571428571428
 40
0.1428571428571428
 40
0.2857142857142857
 40
0.2857142857142857
 40
0.2857142857142857
 40
0.2857142857142857
 40
0.4285714285714285
 40
0.4285714285714285
 40
0.4285714285714285
 40
0.4285714285714285
 40
0.5714285714285714
 40
0.5714285714285714
 40
0.5714285714285714
 40
0.5714285714285714
 40
0.7142857142857143
 40
0.7142857142857143
 40
0.7142857142857143
 40
0.7142857142857143
 40
1.0
 40
1.0
 40
1.0
 40
1.0
 10
-12.31745
 20
-12.00808
 30
0.0
 10
-12.34506
 20
-12.00808
 30
0.0
 10
-12.36745
 20
-11.98569
 30
0.0
 10
-12.36745
 20
-11.95808
 30
0.0
 10
-12.36745
 20
-11.95808
 30
0.0
 10
-12.36745
 20
-11.93047
 30
0.0
 10
-12.34506
 20
-11.90808
 30
0.0
 10
-12.31745
 20
-11.90808
 30
0.0
 10
-12.31745
 20
-11.90808
 30
0.0
 10
-12.31745
 20
-11.90808
 30
0.0
 10
-10.19921
 20
-11.90808
 30
0.0
 10
-10.19921
 20
-11.90808
 30
0.0
 10
-10.19921
 20
-11.90808
 30
0.0
 10
-10.1716
 20
-11.90808
 30
0.0
 10
-10.14921
 20
-11.93047
 30
0.0
 10
-10.14921
 20
-11.95808
 30
0.0
 10
-10.14921
 20
-11.95808
 30
0.0
 10
-10.14921
 20
-11.98569
 30
0.0
 10
-10.1716
 20
-12.00808
 30
0.0
 10
-10.19921
 20
-12.00808
 30
0.0
 10
-10.19921
 20
-12.00808
 30
0.0
 10
-10.19921
 20
-12.00808
 30
0.0
 10
-12.31745
 20
-12.00808
 30
0.0
 10
-12.31745
 20
-12.00808
 30
0.0
  0
SPLINE
  5
4D
330
1F
100
AcDbEntity
  8
Layer 1
 62
     5
100
AcDbSpline
210
0.0
220
0.0
230
1.0
 70
    11
 71
     3
 72
    28
 73
    24
 74
     0
 42
0.0000000001
 43
0.0000000001
 12
1.0
 22
0.0
 32
0.0
 13
1.0
 23
0.0
 33
0.0
 40
0.0
 40
0.0
 40
0.0
 40
0.0
 40
0.1428571428571428
 40
0.1428571428571428
 40
0.1428571428571428
 40
0.1428571428571428
 40
0.2857142857142857
 40
0.2857142857142857
 40
0.2857142857142857
 40
0.2857142857142857
 40
0.4285714285714285
 40
0.4285714285714285
 40
0.4285714285714285
 40
0.4285714285714285
 40
0.5714285714285714
 40
0.5714285714285714
 40
0.5714285714285714
 40
0.5714285714285714
 40
0.7142857142857143
 40
0.7142857142857143
 40
0.7142857142857143
 40
0.7142857142857143
 40
1.0
 40
1.0
 40
1.0
 40
1.0
 10
-10.19929
 20
-12.68042
 30
0.0
 10
-10.17168
 20
-12.68042
 30
0.0
 10
-10.14929
 20
-12.70281
 30
0.0
 10
-10.14929
 20
-12.73042
 30
0.0
 10
-10.14929
 20
-12.73042
 30
0.0
 10
-10.14929
 20
-12.75803
 30
0.0
 10
-10.17168
 20
-12.78042
 30
0.0
 10
-10.19929
 20
-12.78042
 30
0.0
 10
-10.19929
 20
-12.78042
 30
0.0
 10
-10.19929
 20
-12.78042
 30
0.0
 10
-10.92057
 20
-12.78042
 30
0.0
 10
-10.92057
 20
-12.78042
 30
0.0
 10
-10.92057
 20
-12.78042
 30
0.0
 10
-10.94818
 20
-12.78042
 30
0.0
 10
-10.97057
 20
-12.75803
 30
0.0
 10
-10.97057
 20
-12.73042
 30
0.0
 10
-10.97057
 20
-12.73042
 30
0.0
 10
-10.97057
 20
-12.70281
 30
0.0
 10
-10.94818
 20
-12.68042
 30
0.0
 10
-10.92057
 20
-12.68042
 30
0.0
 10
-10.92057
 20
-12.68042
 30
0.0
 10
-10.92057
 20
-12.68042
 30
0.0
 10
-10.19929
 20
-12.68042
 30
0.0
 10
-10.19929
 20
-12.68042
 30
0.0
  0
SPLINE
  5
4E
330
1F
100
AcDbEntity
  8
Layer 1
 62
     5
100
AcDbSpline
210
0.0
220
0.0
230
1.0
 70
    11
 71
     3
 72
    36
 73
    32
 74
     0
 42
0.0000000001
 43
0.0000000001
 12
1.0
 22
0.0
 32
0.0
 13
1.0
 23
0.0
 33
0.0
 40
0.0
 40
0.0
 40
0.0
 40
0.0
 40
0.1111111111111111
 40
0.1111111111111111
 40
0.1111111111111111
 40
0.1111111111111111
 40
0.2222222222222222
 40
0.2222222222222222
 40
0.2222222222222222
 40
0.2222222222222222
 40
0.3333333333333333
 40
0.3333333333333333
 40
0.3333333333333333
 40
0.3333333333333333
 40
0.4444444444444444
 40
0.4444444444444444
 40
0.4444444444444444
 40
0.4444444444444444
 40
0.5555555555555556
 40
0.5555555555555556
 40
0.5555555555555556
 40
0.5555555555555556
 40
0.6666666666666666
 40
0.6666666666666666
 40
0.6666666666666666
 40
0.6666666666666666
 40
0.7777777777777778
 40
0.7777777777777778
 40
0.7777777777777778
 40
0.7777777777777778
 40
1.0
 40
1.0
 40
1.0
 40
1.0
 10
-10.92057
 20
-12.68042
 30
0.0
 10
-10.89296
 20
-12.68042
 30
0.0
 10
-10.87057
 20
-12.70281
 30
0.0
 10
-10.87057
 20
-12.73042
 30
0.0
 10
-10.87057
 20
-12.73042
 30
0.0
 10
-10.87057
 20
-12.75803
 30
0.0
 10
-10.89296
 20
-12.78042
 30
0.0
 10
-10.92057
 20
-12.78042
 30
0.0
 10
-10.92057
 20
-12.78042
 30
0.0
 10
-11.00002
 20
-12.78042
 30
0.0
 10
-11.07199
 20
-12.81264
 30
0.0
 10
-11.12406
 20
-12.86471
 30
0.0
 10
-11.12406
 20
-12.86471
 30
0.0
 10
-11.17612
 20
-12.91677
 30
0.0
 10
-11.20834
 20
-12.98874
 30
0.0
 10
-11.20834
 20
-13.0682
 30
0.0
 10
-11.20834
 20
-13.0682
 30
0.0
 10
-11.20834
 20
-13.09581
 30
0.0
 10
-11.23073
 20
-13.1182
 30
0.0
 10
-11.25834
 20
-13.1182
 30
0.0
 10
-11.25834
 20
-13.1182
 30
0.0
 10
-11.28595
 20
-13.1182
 30
0.0
 10
-11.30834
 20
-13.09581
 30
0.0
 10
-11.30834
 20
-13.0682
 30
0.0
 10
-11.30834
 20
-13.0682
 30
0.0
 10
-11.30834
 20
-12.96114
 30
0.0
 10
-11.26492
 20
-12.86417
 30
0.0
 10
-11.19476
 20
-12.79401
 30
0.0
 10
-11.19476
 20
-12.79401
 30
0.0
 10
-11.12458
 20
-12.72383
 30
0.0
 10
-11.02764
 20
-12.68042
 30
0.0
 10
-10.92057
 20
-12.68042
 30
0.0
  0
SPLINE
  5
4F
330
1F
100
AcDbEntity
  8
Layer 1
 62
     5
100
AcDbSpline
210
0.0
220
0.0
230
1.0
 70
    11
 71
     3
 72
    52
 73
    48
 74
     0
 42
0.0000000001
 43
0.0000000001
 12
1.0
 22
0.0
 32
0.0
 13
1.0
 23
0.0
 33
0.0
 40
0.0
 40
0.0
 40
0.0
 40
0.0
 40
0.0769230769230769
 40
0.0769230769230769
 40
0.0769230769230769
 40
0.0769230769230769
 40
0.1538461538461539
 40
0.1538461538461539
 40
0.1538461538461539
 40
0.1538461538461539
 40
0.2307692307692308
 40
0.2307692307692308
 40
0.2307692307692308
 40
0.2307692307692308
 40
0.3076923076923077
 40
0.3076923076923077
 40
0.3076923076923077
 40
0.3076923076923077
 40
0.3846153846153846
 40
0.3846153846153846
 40
0.3846153846153846
 40
0.3846153846153846
 40
0.4615384615384616
 40
0.4615384615384616
 40
0.4615384615384616
 40
0.4615384615384616
 40
0.5384615384615384
 40
0.5384615384615384
 40
0.5384615384615384
 40
0.5384615384615384
 40
0.6153846153846154
 40
0.6153846153846154
 40
0.6153846153846154
 40
0.6153846153846154
 40
0.6923076923076923
 40
0.6923076923076923
 40
0.6923076923076923
 40
0.6923076923076923
 40
0.7692307692307693
 40
0.7692307692307693
 40
0.7692307692307693
 40
0.7692307692307693
 40
0.8461538461538461
 40
0.8461538461538461
 40
0.8461538461538461
 40
0.8461538461538461
 40
1.0
 40
1.0
 40
1.0
 40
1.0
 10
-11.30834
 20
-13.0682
 30
0.0
 10
-11.30834
 20
-13.04059
 30
0.0
 10
-11.28595
 20
-13.0182
 30
0.0
 10
-11.25834
 20
-13.0182
 30
0.0
 10
-11.25834
 20
-13.0182
 30
0.0
 10
-11.23073
 20
-13.0182
 30
0.0
 10
-11.20834
 20
-13.04059
 30
0.0
 10
-11.20834
 20
-13.0682
 30
0.0
 10
-11.20834
 20
-13.0682
 30
0.0
 10
-11.20834
 20
-13.0682
 30
0.0
 10
-11.20834
 20
-13.40828
 30
0.0
 10
-11.20834
 20
-13.40828
 30
0.0
 10
-11.20834
 20
-13.40828
 30
0.0
 10
-11.20834
 20
-13.40828
 30
0.0
 10
-10.24929
 20
-13.40828
 30
0.0
 10
-10.24929
 20
-13.40828
 30
0.0
 10
-10.24929
 20
-13.40828
 30
0.0
 10
-10.24929
 20
-13.40828
 30
0.0
 10
-10.24929
 20
-12.73042
 30
0.0
 10
-10.24929
 20
-12.73042
 30
0.0
 10
-10.24929
 20
-12.73042
 30
0.0
 10
-10.24929
 20
-12.70281
 30
0.0
 10
-10.2269
 20
-12.68042
 30
0.0
 10
-10.19929
 20
-12.68042
 30
0.0
 10
-10.19929
 20
-12.68042
 30
0.0
 10
-10.17168
 20
-12.68042
 30
0.0
 10
-10.14929
 20
-12.70281
 30
0.0
 10
-10.14929
 20
-12.73042
 30
0.0
 10
-10.14929
 20
-12.73042
 30
0.0
 10
-10.14929
 20
-12.73042
 30
0.0
 10
-10.14929
 20
-13.45828
 30
0.0
 10
-10.14929
 20
-13.45828
 30
0.0
 10
-10.14929
 20
-13.45828
 30
0.0
 10
-10.14929
 20
-13.48589
 30
0.0
 10
-10.17168
 20
-13.50828
 30
0.0
 10
-10.19929
 20
-13.50828
 30
0.0
 10
-10.19929
 20
-13.50828
 30
0.0
 10
-10.19929
 20
-13.50828
 30
0.0
 10
-11.25834
 20
-13.50828
 30
0.0
 10
-11.25834
 20
-13.50828
 30
0.0
 10
-11.25834
 20
-13.50828
 30
0.0
 10
-11.28595
 20
-13.50828
 30
0.0
 10
-11.30834
 20
-13.48589
 30
0.0
 10
-11.30834
 20
-13.45828
 30
0.0
 10
-11.30834
 20
-13.45828
 30
0.0
 10
-11.30834
 20
-13.45828
 30
0.0
 10
-11.30834
 20
-13.0682
 30
0.0
 10
-11.30834
 20
-13.0682
 30
0.0
  0
SPLINE
  5
50
330
1F
100
AcDbEntity
  8
Layer 1
 62
     5
100
AcDbSpline
210
0.0
220
0.0
230
1.0
 70
    11
 71
     3
 72
    28
 73
    24
 74
     0
 42
0.0000000001
 43
0.0000000001
 12
1.0
 22
0.0
 32
0.0
 13
1.0
 23
0.0
 33
0.0
 40
0.0
 40
0.0
 40
0.0
 40
0.0
 40
0.1428571428571428
 40
0.1428571428571428
 40
0.1428571428571428
 40
0.1428571428571428
 40
0.2857142857142857
 40
0.2857142857142857
 40
0.2857142857142857
 40
0.2857142857142857
 40
0.4285714285714285
 40
0.4285714285714285
 40
0.4285714285714285
 40
0.4285714285714285
 40
0.5714285714285714
 40
0.5714285714285714
 40
0.5714285714285714
 40
0.5714285714285714
 40
0.7142857142857143
 40
0.7142857142857143
 40
0.7142857142857143
 40
0.7142857142857143
 40
1.0
 40
1.0
 40
1.0
 40
1.0
 10
-12.31745
 20
-11.32492
 30
0.0
 10
-12.34506
 20
-11.32492
 30
0.0
 10
-12.36745
 20
-11.30253
 30
0.0
 10
-12.36745
 20
-11.27492
 30
0.0
 10
-12.36745
 20
-11.27492
 30
0.0
 10
-12.36745
 20
-11.24731
 30
0.0
 10
-12.34506
 20
-11.22492
 30
0.0
 10
-12.31745
 20
-11.22492
 30
0.0
 10
-12.31745
 20
-11.22492
 30
0.0
 10
-12.31745
 20
-11.22492
 30
0.0
 10
-10.19929
 20
-11.22492
 30
0.0
 10
-10.19929
 20
-11.22492
 30
0.0
 10
-10.19929
 20
-11.22492
 30
0.0
 10
-10.17168
 20
-11.22492
 30
0.0
 10
-10.14929
 20
-11.24731
 30
0.0
 10
-10.14929
 20
-11.27492
 30
0.0
 10
-10.14929
 20
-11.27492
 30
0.0
 10
-10.14929
 20
-11.30253
 30
0.0
 10
-10.17168
 20
-11.32492
 30
0.0
 10
-10.19929
 20
-11.32492
 30
0.0
 10
-10.19929
 20
-11.32492
 30
0.0
 10
-10.19929
 20
-11.32492
 30
0.0
 10
-12.31745
 20
-11.32492
 30
0.0
 10
-12.31745
 20
-11.32492
 30
0.0
  0
SPLINE
  5
51
330
1F
100
AcDbEntity
  8
Layer 1
 62
     5
100
AcDbSpline
210
0.0
220
0.0
230
1.0
 70
    11
 71
     3
 72
    28
 73
    24
 74
     0
 42
0.0000000001
 43
0.0000000001
 12
1.0
 22
0.0
 32
0.0
 13
1.0
 23
0.0
 33
0.0
 40
0.0
 40
0.0
 40
0.0
 40
0.0
 40
0.1428571428571428
 40
0.1428571428571428
 40
0.1428571428571428
 40
0.1428571428571428
 40
0.2857142857142857
 40
0.2857142857142857
 40
0.2857142857142857
 40
0.2857142857142857
 40
0.4285714285714285
 40
0.4285714285714285
 40
0.4285714285714285
 40
0.4285714285714285
 40
0.5714285714285714
 40
0.5714285714285714
 40
0.5714285714285714
 40
0.5714285714285714
 40
0.7142857142857143
 40
0.7142857142857143
 40
0.7142857142857143
 40
0.7142857142857143
 40
1.0
 40
1.0
 40
1.0
 40
1.0
 10
-8.81706
 20
-13.49366
 30
0.0
 10
-8.84456
 20
-13.49366
 30
0.0
 10
-8.86686
 20
-13.47136
 30
0.0
 10
-8.86686
 20
-13.44386
 30
0.0
 10
-8.86686
 20
-13.44386
 30
0.0
 10
-8.86686
 20
-13.41636
 30
0.0
 10
-8.84456
 20
-13.39406
 30
0.0
 10
-8.81706
 20
-13.39406
 30
0.0
 10
-8.81706
 20
-13.39406
 30
0.0
 10
-8.81706
 20
-13.39406
 30
0.0
 10
-6.58794
 20
-13.39403
 30
0.0
 10
-6.58794
 20
-13.39403
 30
0.0
 10
-6.58794
 20
-13.39403
 30
0.0
 10
-6.56044
 20
-13.39403
 30
0.0
 10
-6.53814
 20
-13.41633
 30
0.0
 10
-6.53814
 20
-13.44383
 30
0.0
 10
-6.53814
 20
-13.44383
 30
0.0
 10
-6.53814
 20
-13.47133
 30
0.0
 10
-6.56044
 20
-13.49363
 30
0.0
 10
-6.58794
 20
-13.49363
 30
0.0
 10
-6.58794
 20
-13.49363
 30
0.0
 10
-6.58794
 20
-13.49363
 30
0.0
 10
-8.81706
 20
-13.49366
 30
0.0
 10
-8.81706
 20
-13.49366
 30
0.0
  0
SPLINE
  5
52
330
1F
100
AcDbEntity
  8
Layer 1
 62
     5
100
AcDbSpline
210
0.0
220
0.0
230
1.0
 70
    11
 71
     3
 72
    28
 73
    24
 74
     0
 42
0.0000000001
 43
0.0000000001
 12
1.0
 22
0.0
 32
0.0
 13
1.0
 23
0.0
 33
0.0
 40
0.0
 40
0.0
 40
0.0
 40
0.0
 40
0.1428571428571428
 40
0.1428571428571428
 40
0.1428571428571428
 40
0.1428571428571428
 40
0.2857142857142857
 40
0.2857142857142857
 40
0.2857142857142857
 40
0.2857142857142857
 40
0.4285714285714285
 40
0.4285714285714285
 40
0.4285714285714285
 40
0.4285714285714285
 40
0.5714285714285714
 40
0.5714285714285714
 40
0.5714285714285714
 40
0.5714285714285714
 40
0.7142857142857143
 40
0.7142857142857143
 40
0.7142857142857143
 40
0.7142857142857143
 40
1.0
 40
1.0
 40
1.0
 40
1.0
 10
-7.75795
 20
-11.89367
 30
0.0
 10
-7.73034
 20
-11.89367
 30
0.0
 10
-7.70795
 20
-11.91606
 30
0.0
 10
-7.70795
 20
-11.94367
 30
0.0
 10
-7.70795
 20
-11.94367
 30
0.0
 10
-7.70795
 20
-11.97128
 30
0.0
 10
-7.73034
 20
-11.99367
 30
0.0
 10
-7.75795
 20
-11.99367
 30
0.0
 10
-7.75795
 20
-11.99367
 30
0.0
 10
-7.75795
 20
-11.99367
 30
0.0
 10
-9.87619
 20
-11.99367
 30
0.0
 10
-9.87619
 20
-11.99367
 30
0.0
 10
-9.87619
 20
-11.99367
 30
0.0
 10
-9.9038
 20
-11.99367
 30
0.0
 10
-9.92619
 20
-11.97128
 30
0.0
 10
-9.92619
 20
-11.94367
 30
0.0
 10
-9.92619
 20
-11.94367
 30
0.0
 10
-9.92619
 20
-11.91606
 30
0.0
 10
-9.9038
 20
-11.89367
 30
0.0
 10
-9.87619
 20
-11.89367
 30
0.0
 10
-9.87619
 20
-11.89367
 30
0.0
 10
-9.87619
 20
-11.89367
 30
0.0
 10
-7.75795
 20
-11.89367
 30
0.0
 10
-7.75795
 20
-11.89367
 30
0.0
  0
SPLINE
  5
53
330
1F
100
AcDbEntity
  8
Layer 1
 62
     5
100
AcDbSpline
210
0.0
220
0.0
230
1.0
 70
    11
 71
     3
 72
    28
 73
    24
 74
     0
 42
0.0000000001
 43
0.0000000001
 12
1.0
 22
0.0
 32
0.0
 13
1.0
 23
0.0
 33
0.0
 40
0.0
 40
0.0
 40
0.0
 40
0.0
 40
0.1428571428571428
 40
0.1428571428571428
 40
0.1428571428571428
 40
0.1428571428571428
 40
0.2857142857142857
 40
0.2857142857142857
 40
0.2857142857142857
 40
0.2857142857142857
 40
0.4285714285714285
 40
0.4285714285714285
 40
0.4285714285714285
 40
0.4285714285714285
 40
0.5714285714285714
 40
0.5714285714285714
 40
0.5714285714285714
 40
0.5714285714285714
 40
0.7142857142857143
 40
0.7142857142857143
 40
0.7142857142857143
 40
0.7142857142857143
 40
1.0
 40
1.0
 40
1.0
 40
1.0
 10
-9.8761
 20
-12.76599
 30
0.0
 10
-9.90371
 20
-12.76599
 30
0.0
 10
-9.9261
 20
-12.7436
 30
0.0
 10
-9.9261
 20
-12.71599
 30
0.0
 10
-9.9261
 20
-12.71599
 30
0.0
 10
-9.9261
 20
-12.68838
 30
0.0
 10
-9.90371
 20
-12.66599
 30
0.0
 10
-9.8761
 20
-12.66599
 30
0.0
 10
-9.8761
 20
-12.66599
 30
0.0
 10
-9.8761
 20
-12.66599
 30
0.0
 10
-9.15481
 20
-12.66599
 30
0.0
 10
-9.15481
 20
-12.66599
 30
0.0
 10
-9.15481
 20
-12.66599
 30
0.0
 10
-9.1272
 20
-12.66599
 30
0.0
 10
-9.10481
 20
-12.68838
 30
0.0
 10
-9.10481
 20
-12.71599
 30
0.0
 10
-9.10481
 20
-12.71599
 30
0.0
 10
-9.10481
 20
-12.7436
 30
0.0
 10
-9.1272
 20
-12.76599
 30
0.0
 10
-9.15481
 20
-12.76599
 30
0.0
 10
-9.15481
 20
-12.76599
 30
0.0
 10
-9.15481
 20
-12.76599
 30
0.0
 10
-9.8761
 20
-12.76599
 30
0.0
 10
-9.8761
 20
-12.76599
 30
0.0
  0
SPLINE
  5
54
330
1F
100
AcDbEntity
  8
Layer 1
 62
     5
100
AcDbSpline
210
0.0
220
0.0
230
1.0
 70
    11
 71
     3
 72
    36
 73
    32
 74
     0
 42
0.0000000001
 43
0.0000000001
 12
1.0
 22
0.0
 32
0.0
 13
1.0
 23
0.0
 33
0.0
 40
0.0
 40
0.0
 40
0.0
 40
0.0
 40
0.1111111111111111
 40
0.1111111111111111
 40
0.1111111111111111
 40
0.1111111111111111
 40
0.2222222222222222
 40
0.2222222222222222
 40
0.2222222222222222
 40
0.2222222222222222
 40
0.3333333333333333
 40
0.3333333333333333
 40
0.3333333333333333
 40
0.3333333333333333
 40
0.4444444444444444
 40
0.4444444444444444
 40
0.4444444444444444
 40
0.4444444444444444
 40
0.5555555555555556
 40
0.5555555555555556
 40
0.5555555555555556
 40
0.5555555555555556
 40
0.6666666666666666
 40
0.6666666666666666
 40
0.6666666666666666
 40
0.6666666666666666
 40
0.7777777777777778
 40
0.7777777777777778
 40
0.7777777777777778
 40
0.7777777777777778
 40
1.0
 40
1.0
 40
1.0
 40
1.0
 10
-9.15481
 20
-12.76599
 30
0.0
 10
-9.18242
 20
-12.76599
 30
0.0
 10
-9.20481
 20
-12.7436
 30
0.0
 10
-9.20481
 20
-12.71599
 30
0.0
 10
-9.20481
 20
-12.71599
 30
0.0
 10
-9.20481
 20
-12.68838
 30
0.0
 10
-9.18242
 20
-12.66599
 30
0.0
 10
-9.15481
 20
-12.66599
 30
0.0
 10
-9.15481
 20
-12.66599
 30
0.0
 10
-9.04775
 20
-12.66599
 30
0.0
 10
-8.95079
 20
-12.70941
 30
0.0
 10
-8.88063
 20
-12.77958
 30
0.0
 10
-8.88063
 20
-12.77958
 30
0.0
 10
-8.81047
 20
-12.84975
 30
0.0
 10
-8.76705
 20
-12.94672
 30
0.0
 10
-8.76705
 20
-13.05378
 30
0.0
 10
-8.76705
 20
-13.05378
 30
0.0
 10
-8.76705
 20
-13.08139
 30
0.0
 10
-8.78944
 20
-13.10378
 30
0.0
 10
-8.81705
 20
-13.10378
 30
0.0
 10
-8.81705
 20
-13.10378
 30
0.0
 10
-8.84466
 20
-13.10378
 30
0.0
 10
-8.86705
 20
-13.08139
 30
0.0
 10
-8.86705
 20
-13.05378
 30
0.0
 10
-8.86705
 20
-13.05378
 30
0.0
 10
-8.86705
 20
-12.97432
 30
0.0
 10
-8.89927
 20
-12.90235
 30
0.0
 10
-8.95133
 20
-12.85028
 30
0.0
 10
-8.95133
 20
-12.85028
 30
0.0
 10
-9.00339
 20
-12.79821
 30
0.0
 10
-9.07535
 20
-12.76599
 30
0.0
 10
-9.15481
 20
-12.76599
 30
0.0
  0
SPLINE
  5
55
330
1F
100
AcDbEntity
  8
Layer 1
 62
     5
100
AcDbSpline
210
0.0
220
0.0
230
1.0
 70
    11
 71
     3
 72
    52
 73
    48
 74
     0
 42
0.0000000001
 43
0.0000000001
 12
1.0
 22
0.0
 32
0.0
 13
1.0
 23
0.0
 33
0.0
 40
0.0
 40
0.0
 40
0.0
 40
0.0
 40
0.0769230769230769
 40
0.0769230769230769
 40
0.0769230769230769
 40
0.0769230769230769
 40
0.1538461538461539
 40
0.1538461538461539
 40
0.1538461538461539
 40
0.1538461538461539
 40
0.2307692307692308
 40
0.2307692307692308
 40
0.2307692307692308
 40
0.2307692307692308
 40
0.3076923076923077
 40
0.3076923076923077
 40
0.3076923076923077
 40
0.3076923076923077
 40
0.3846153846153846
 40
0.3846153846153846
 40
0.3846153846153846
 40
0.3846153846153846
 40
0.4615384615384616
 40
0.4615384615384616
 40
0.4615384615384616
 40
0.4615384615384616
 40
0.5384615384615384
 40
0.5384615384615384
 40
0.5384615384615384
 40
0.5384615384615384
 40
0.6153846153846154
 40
0.6153846153846154
 40
0.6153846153846154
 40
0.6153846153846154
 40
0.6923076923076923
 40
0.6923076923076923
 40
0.6923076923076923
 40
0.6923076923076923
 40
0.7692307692307693
 40
0.7692307692307693
 40
0.7692307692307693
 40
0.7692307692307693
 40
0.8461538461538461
 40
0.8461538461538461
 40
0.8461538461538461
 40
0.8461538461538461
 40
1.0
 40
1.0
 40
1.0
 40
1.0
 10
-8.86705
 20
-13.05378
 30
0.0
 10
-8.86705
 20
-13.02617
 30
0.0
 10
-8.84466
 20
-13.00378
 30
0.0
 10
-8.81705
 20
-13.00378
 30
0.0
 10
-8.81705
 20
-13.00378
 30
0.0
 10
-8.78944
 20
-13.00378
 30
0.0
 10
-8.76705
 20
-13.02617
 30
0.0
 10
-8.76705
 20
-13.05378
 30
0.0
 10
-8.76705
 20
-13.05378
 30
0.0
 10
-8.76705
 20
-13.05378
 30
0.0
 10
-8.76705
 20
-13.44386
 30
0.0
 10
-8.76705
 20
-13.44386
 30
0.0
 10
-8.76705
 20
-13.44386
 30
0.0
 10
-8.76705
 20
-13.47147
 30
0.0
 10
-8.78944
 20
-13.49386
 30
0.0
 10
-8.81705
 20
-13.49386
 30
0.0
 10
-8.81705
 20
-13.49386
 30
0.0
 10
-8.81705
 20
-13.49386
 30
0.0
 10
-9.8761
 20
-13.49386
 30
0.0
 10
-9.8761
 20
-13.49386
 30
0.0
 10
-9.8761
 20
-13.49386
 30
0.0
 10
-9.90371
 20
-13.49386
 30
0.0
 10
-9.9261
 20
-13.47147
 30
0.0
 10
-9.9261
 20
-13.44386
 30
0.0
 10
-9.9261
 20
-13.44386
 30
0.0
 10
-9.9261
 20
-13.44386
 30
0.0
 10
-9.9261
 20
-12.71599
 30
0.0
 10
-9.9261
 20
-12.71599
 30
0.0
 10
-9.9261
 20
-12.71599
 30
0.0
 10
-9.9261
 20
-12.68838
 30
0.0
 10
-9.90371
 20
-12.66599
 30
0.0
 10
-9.8761
 20
-12.66599
 30
0.0
 10
-9.8761
 20
-12.66599
 30
0.0
 10
-9.84849
 20
-12.66599
 30
0.0
 10
-9.8261
 20
-12.68838
 30
0.0
 10
-9.8261
 20
-12.71599
 30
0.0
 10
-9.8261
 20
-12.71599
 30
0.0
 10
-9.8261
 20
-12.71599
 30
0.0
 10
-9.8261
 20
-13.39386
 30
0.0
 10
-9.8261
 20
-13.39386
 30
0.0
 10
-9.8261
 20
-13.39386
 30
0.0
 10
-9.8261
 20
-13.39386
 30
0.0
 10
-8.86705
 20
-13.39386
 30
0.0
 10
-8.86705
 20
-13.39386
 30
0.0
 10
-8.86705
 20
-13.39386
 30
0.0
 10
-8.86705
 20
-13.39386
 30
0.0
 10
-8.86705
 20
-13.05378
 30
0.0
 10
-8.86705
 20
-13.05378
 30
0.0
  0
SPLINE
  5
56
330
1F
100
AcDbEntity
  8
Layer 1
 62
     5
100
AcDbSpline
210
0.0
220
0.0
230
1.0
 70
    11
 71
     3
 72
    28
 73
    24
 74
     0
 42
0.0000000001
 43
0.0000000001
 12
1.0
 22
0.0
 32
0.0
 13
1.0
 23
0.0
 33
0.0
 40
0.0
 40
0.0
 40
0.0
 40
0.0
 40
0.1428571428571428
 40
0.1428571428571428
 40
0.1428571428571428
 40
0.1428571428571428
 40
0.2857142857142857
 40
0.2857142857142857
 40
0.2857142857142857
 40
0.2857142857142857
 40
0.4285714285714285
 40
0.4285714285714285
 40
0.4285714285714285
 40
0.4285714285714285
 40
0.5714285714285714
 40
0.5714285714285714
 40
0.5714285714285714
 40
0.5714285714285714
 40
0.7142857142857143
 40
0.7142857142857143
 40
0.7142857142857143
 40
0.7142857142857143
 40
1.0
 40
1.0
 40
1.0
 40
1.0
 10
-7.75795
 20
-11.21051
 30
0.0
 10
-7.73034
 20
-11.21051
 30
0.0
 10
-7.70795
 20
-11.2329
 30
0.0
 10
-7.70795
 20
-11.26051
 30
0.0
 10
-7.70795
 20
-11.26051
 30
0.0
 10
-7.70795
 20
-11.28812
 30
0.0
 10
-7.73034
 20
-11.31051
 30
0.0
 10
-7.75795
 20
-11.31051
 30
0.0
 10
-7.75795
 20
-11.31051
 30
0.0
 10
-7.75795
 20
-11.31051
 30
0.0
 10
-9.87611
 20
-11.31051
 30
0.0
 10
-9.87611
 20
-11.31051
 30
0.0
 10
-9.87611
 20
-11.31051
 30
0.0
 10
-9.90372
 20
-11.31051
 30
0.0
 10
-9.92611
 20
-11.28812
 30
0.0
 10
-9.92611
 20
-11.26051
 30
0.0
 10
-9.92611
 20
-11.26051
 30
0.0
 10
-9.92611
 20
-11.2329
 30
0.0
 10
-9.90372
 20
-11.21051
 30
0.0
 10
-9.87611
 20
-11.21051
 30
0.0
 10
-9.87611
 20
-11.21051
 30
0.0
 10
-9.87611
 20
-11.21051
 30
0.0
 10
-7.75795
 20
-11.21051
 30
0.0
 10
-7.75795
 20
-11.21051
 30
0.0
  0
SPLINE
  5
57
330
1F
100
AcDbEntity
  8
Layer 1
 62
     5
100
AcDbSpline
210
0.0
220
0.0
230
1.0
 70
    11
 71
     3
 72
    28
 73
    24
 74
     0
 42
0.0000000001
 43
0.0000000001
 12
1.0
 22
0.0
 32
0.0
 13
1.0
 23
0.0
 33
0.0
 40
0.0
 40
0.0
 40
0.0
 40
0.0
 40
0.1428571428571428
 40
0.1428571428571428
 40
0.1428571428571428
 40
0.1428571428571428
 40
0.2857142857142857
 40
0.2857142857142857
 40
0.2857142857142857
 40
0.2857142857142857
 40
0.4285714285714285
 40
0.4285714285714285
 40
0.4285714285714285
 40
0.4285714285714285
 40
0.5714285714285714
 40
0.5714285714285714
 40
0.5714285714285714
 40
0.5714285714285714
 40
0.7142857142857143
 40
0.7142857142857143
 40
0.7142857142857143
 40
0.7142857142857143
 40
1.0
 40
1.0
 40
1.0
 40
1.0
 10
-9.40284
 20
-10.93431
 30
0.0
 10
-9.43034
 20
-10.93431
 30
0.0
 10
-9.45264
 20
-10.91201
 30
0.0
 10
-9.45264
 20
-10.88451
 30
0.0
 10
-9.45264
 20
-10.88451
 30
0.0
 10
-9.45264
 20
-10.85701
 30
0.0
 10
-9.43034
 20
-10.83471
 30
0.0
 10
-9.40284
 20
-10.83471
 30
0.0
 10
-9.40284
 20
-10.83471
 30
0.0
 10
-9.40284
 20
-10.83471
 30
0.0
 10
-8.43341
 20
-10.83836
 30
0.0
 10
-8.43341
 20
-10.83836
 30
0.0
 10
-8.43341
 20
-10.83836
 30
0.0
 10
-8.40591
 20
-10.83836
 30
0.0
 10
-8.38361
 20
-10.86066
 30
0.0
 10
-8.38361
 20
-10.88816
 30
0.0
 10
-8.38361
 20
-10.88816
 30
0.0
 10
-8.38361
 20
-10.91566
 30
0.0
 10
-8.40591
 20
-10.93796
 30
0.0
 10
-8.43341
 20
-10.93796
 30
0.0
 10
-8.43341
 20
-10.93796
 30
0.0
 10
-8.43341
 20
-10.93796
 30
0.0
 10
-9.40284
 20
-10.93431
 30
0.0
 10
-9.40284
 20
-10.93431
 30
0.0
  0
SPLINE
  5
58
330
1F
100
AcDbEntity
  8
Layer 1
 62
     5
100
AcDbSpline
210
0.0
220
0.0
230
1.0
 70
    11
 71
     3
 72
    28
 73
    24
 74
     0
 42
0.0000000001
 43
0.0000000001
 12
1.0
 22
0.0
 32
0.0
 13
1.0
 23
0.0
 33
0.0
 40
0.0
 40
0.0
 40
0.0
 40
0.0
 40
0.1428571428571428
 40
0.1428571428571428
 40
0.1428571428571428
 40
0.1428571428571428
 40
0.2857142857142857
 40
0.2857142857142857
 40
0.2857142857142857
 40
0.2857142857142857
 40
0.4285714285714285
 40
0.4285714285714285
 40
0.4285714285714285
 40
0.4285714285714285
 40
0.5714285714285714
 40
0.5714285714285714
 40
0.5714285714285714
 40
0.5714285714285714
 40
0.7142857142857143
 40
0.7142857142857143
 40
0.7142857142857143
 40
0.7142857142857143
 40
1.0
 40
1.0
 40
1.0
 40
1.0
 10
-13.4537
 20
-13.73546
 30
0.0
 10
-13.48131
 20
-13.73546
 30
0.0
 10
-13.5037
 20
-13.71307
 30
0.0
 10
-13.5037
 20
-13.68546
 30
0.0
 10
-13.5037
 20
-13.68546
 30
0.0
 10
-13.5037
 20
-13.65785
 30
0.0
 10
-13.48131
 20
-13.63546
 30
0.0
 10
-13.4537
 20
-13.63546
 30
0.0
 10
-13.4537
 20
-13.63546
 30
0.0
 10
-13.4537
 20
-13.63546
 30
0.0
 10
-10.24395
 20
-13.63546
 30
0.0
 10
-10.24395
 20
-13.63546
 30
0.0
 10
-10.24395
 20
-13.63546
 30
0.0
 10
-10.21634
 20
-13.63546
 30
0.0
 10
-10.19395
 20
-13.65785
 30
0.0
 10
-10.19395
 20
-13.68546
 30
0.0
 10
-10.19395
 20
-13.68546
 30
0.0
 10
-10.19395
 20
-13.71307
 30
0.0
 10
-10.21634
 20
-13.73546
 30
0.0
 10
-10.24395
 20
-13.73546
 30
0.0
 10
-10.24395
 20
-13.73546
 30
0.0
 10
-10.24395
 20
-13.73546
 30
0.0
 10
-13.4537
 20
-13.73546
 30
0.0
 10
-13.4537
 20
-13.73546
 30
0.0
  0
SPLINE
  5
59
330
1F
100
AcDbEntity
  8
Layer 1
 62
     5
100
AcDbSpline
210
0.0
220
0.0
230
1.0
 70
    11
 71
     3
 72
    28
 73
    24
 74
     0
 42
0.0000000001
 43
0.0000000001
 12
1.0
 22
0.0
 32
0.0
 13
1.0
 23
0.0
 33
0.0
 40
0.0
 40
0.0
 40
0.0
 40
0.0
 40
0.1428571428571428
 40
0.1428571428571428
 40
0.1428571428571428
 40
0.1428571428571428
 40
0.2857142857142857
 40
0.2857142857142857
 40
0.2857142857142857
 40
0.2857142857142857
 40
0.4285714285714285
 40
0.4285714285714285
 40
0.4285714285714285
 40
0.4285714285714285
 40
0.5714285714285714
 40
0.5714285714285714
 40
0.5714285714285714
 40
0.5714285714285714
 40
0.7142857142857143
 40
0.7142857142857143
 40
0.7142857142857143
 40
0.7142857142857143
 40
1.0
 40
1.0
 40
1.0
 40
1.0
 10
-9.8434
 20
-13.73531
 30
0.0
 10
-9.8709
 20
-13.73531
 30
0.0
 10
-9.8932
 20
-13.71301
 30
0.0
 10
-9.8932
 20
-13.68551
 30
0.0
 10
-9.8932
 20
-13.68551
 30
0.0
 10
-9.8932
 20
-13.65801
 30
0.0
 10
-9.8709
 20
-13.63571
 30
0.0
 10
-9.8434
 20
-13.63571
 30
0.0
 10
-9.8434
 20
-13.63571
 30
0.0
 10
-9.8434
 20
-13.63571
 30
0.0
 10
-6.63365
 20
-13.62857
 30
0.0
 10
-6.63365
 20
-13.62857
 30
0.0
 10
-6.63365
 20
-13.62857
 30
0.0
 10
-6.60615
 20
-13.62857
 30
0.0
 10
-6.58385
 20
-13.65087
 30
0.0
 10
-6.58385
 20
-13.67837
 30
0.0
 10
-6.58385
 20
-13.67837
 30
0.0
 10
-6.58385
 20
-13.70587
 30
0.0
 10
-6.60615
 20
-13.72817
 30
0.0
 10
-6.63365
 20
-13.72817
 30
0.0
 10
-6.63365
 20
-13.72817
 30
0.0
 10
-6.63365
 20
-13.72817
 30
0.0
 10
-9.8434
 20
-13.73531
 30
0.0
 10
-9.8434
 20
-13.73531
 30
0.0
  0
SPLINE
  5
5A
330
1F
100
AcDbEntity
  8
Layer 1
 62
     5
100
AcDbSpline
210
0.0
220
0.0
230
1.0
 70
    11
 71
     3
 72
    56
 73
    52
 74
     0
 42
0.0000000001
 43
0.0000000001
 12
1.0
 22
0.0
 32
0.0
 13
1.0
 23
0.0
 33
0.0
 40
0.0
 40
0.0
 40
0.0
 40
0.0
 40
0.0714285714285714
 40
0.0714285714285714
 40
0.0714285714285714
 40
0.0714285714285714
 40
0.1428571428571428
 40
0.1428571428571428
 40
0.1428571428571428
 40
0.1428571428571428
 40
0.2142857142857143
 40
0.2142857142857143
 40
0.2142857142857143
 40
0.2142857142857143
 40
0.2857142857142857
 40
0.2857142857142857
 40
0.2857142857142857
 40
0.2857142857142857
 40
0.3571428571428572
 40
0.3571428571428572
 40
0.3571428571428572
 40
0.3571428571428572
 40
0.4285714285714285
 40
0.4285714285714285
 40
0.4285714285714285
 40
0.4285714285714285
 40
0.5
 40
0.5
 40
0.5
 40
0.5
 40
0.5714285714285714
 40
0.5714285714285714
 40
0.5714285714285714
 40
0.5714285714285714
 40
0.6428571428571429
 40
0.6428571428571429
 40
0.6428571428571429
 40
0.6428571428571429
 40
0.7142857142857143
 40
0.7142857142857143
 40
0.7142857142857143
 40
0.7142857142857143
 40
0.7857142857142857
 40
0.7857142857142857
 40
0.7857142857142857
 40
0.7857142857142857
 40
0.8571428571428571
 40
0.8571428571428571
 40
0.8571428571428571
 40
0.8571428571428571
 40
1.0
 40
1.0
 40
1.0
 40
1.0
 10
-6.80736
 20
-14.07985
 30
0.0
 10
-6.80736
 20
-14.14069
 30
0.0
 10
-6.83203
 20
-14.19578
 30
0.0
 10
-6.87189
 20
-14.23564
 30
0.0
 10
-6.87189
 20
-14.23564
 30
0.0
 10
-6.87289
 20
-14.23664
 30
0.0
 10
-6.87393
 20
-14.23759
 30
0.0
 10
-6.87499
 20
-14.23849
 30
0.0
 10
-6.87499
 20
-14.23849
 30
0.0
 10
-6.91462
 20
-14.27667
 30
0.0
 10
-6.96845
 20
-14.30017
 30
0.0
 10
-7.02768
 20
-14.30017
 30
0.0
 10
-7.02768
 20
-14.30017
 30
0.0
 10
-7.08852
 20
-14.30017
 30
0.0
 10
-7.14361
 20
-14.2755
 30
0.0
 10
-7.18347
 20
-14.23564
 30
0.0
 10
-7.18347
 20
-14.23564
 30
0.0
 10
-7.18449
 20
-14.23462
 30
0.0
 10
-7.18546
 20
-14.23356
 30
0.0
 10
-7.18638
 20
-14.23247
 30
0.0
 10
-7.18638
 20
-14.23247
 30
0.0
 10
-7.22455
 20
-14.19276
 30
0.0
 10
-7.24801
 20
-14.13898
 30
0.0
 10
-7.24801
 20
-14.07985
 30
0.0
 10
-7.24801
 20
-14.07985
 30
0.0
 10
-7.24801
 20
-14.0192
 30
0.0
 10
-7.22331
 20
-13.96415
 30
0.0
 10
-7.18337
 20
-13.92417
 30
0.0
 10
-7.18337
 20
-13.92417
 30
0.0
 10
-7.18337
 20
-13.92417
 30
0.0
 10
-7.18347
 20
-13.92407
 30
0.0
 10
-7.18347
 20
-13.92407
 30
0.0
 10
-7.18347
 20
-13.92407
 30
0.0
 10
-7.14361
 20
-13.88421
 30
0.0
 10
-7.08852
 20
-13.85954
 30
0.0
 10
-7.02768
 20
-13.85954
 30
0.0
 10
-7.02768
 20
-13.85954
 30
0.0
 10
-6.96699
 20
-13.85954
 30
0.0
 10
-6.91196
 20
-13.88421
 30
0.0
 10
-6.87208
 20
-13.92407
 30
0.0
 10
-6.87208
 20
-13.92407
 30
0.0
 10
-6.87208
 20
-13.92407
 30
0.0
 10
-6.87199
 20
-13.92417
 30
0.0
 10
-6.87199
 20
-13.92417
 30
0.0
 10
-6.87199
 20
-13.92417
 30
0.0
 10
-6.87199
 20
-13.92417
 30
0.0
 10
-6.87189
 20
-13.92407
 30
0.0
 10
-6.87189
 20
-13.92407
 30
0.0
 10
-6.87189
 20
-13.92407
 30
0.0
 10
-6.83203
 20
-13.96393
 30
0.0
 10
-6.80736
 20
-14.01903
 30
0.0
 10
-6.80736
 20
-14.07985
 30
0.0
  0
SPLINE
  5
5B
330
1F
100
AcDbEntity
  8
Layer 1
 62
     5
100
AcDbSpline
210
0.0
220
0.0
230
1.0
 70
    11
 71
     3
 72
    56
 73
    52
 74
     0
 42
0.0000000001
 43
0.0000000001
 12
1.0
 22
0.0
 32
0.0
 13
1.0
 23
0.0
 33
0.0
 40
0.0
 40
0.0
 40
0.0
 40
0.0
 40
0.0714285714285714
 40
0.0714285714285714
 40
0.0714285714285714
 40
0.0714285714285714
 40
0.1428571428571428
 40
0.1428571428571428
 40
0.1428571428571428
 40
0.1428571428571428
 40
0.2142857142857143
 40
0.2142857142857143
 40
0.2142857142857143
 40
0.2142857142857143
 40
0.2857142857142857
 40
0.2857142857142857
 40
0.2857142857142857
 40
0.2857142857142857
 40
0.3571428571428572
 40
0.3571428571428572
 40
0.3571428571428572
 40
0.3571428571428572
 40
0.4285714285714285
 40
0.4285714285714285
 40
0.4285714285714285
 40
0.4285714285714285
 40
0.5
 40
0.5
 40
0.5
 40
0.5
 40
0.5714285714285714
 40
0.5714285714285714
 40
0.5714285714285714
 40
0.5714285714285714
 40
0.6428571428571429
 40
0.6428571428571429
 40
0.6428571428571429
 40
0.6428571428571429
 40
0.7142857142857143
 40
0.7142857142857143
 40
0.7142857142857143
 40
0.7142857142857143
 40
0.7857142857142857
 40
0.7857142857142857
 40
0.7857142857142857
 40
0.7857142857142857
 40
0.8571428571428571
 40
0.8571428571428571
 40
0.8571428571428571
 40
0.8571428571428571
 40
1.0
 40
1.0
 40
1.0
 40
1.0
 10
-6.94259
 20
-14.16494
 30
0.0
 10
-6.92083
 20
-14.14318
 30
0.0
 10
-6.90736
 20
-14.11309
 30
0.0
 10
-6.90736
 20
-14.07985
 30
0.0
 10
-6.90736
 20
-14.07985
 30
0.0
 10
-6.90736
 20
-14.04662
 30
0.0
 10
-6.92083
 20
-14.01653
 30
0.0
 10
-6.94259
 20
-13.99477
 30
0.0
 10
-6.94259
 20
-13.99477
 30
0.0
 10
-6.94259
 20
-13.99477
 30
0.0
 10
-6.9425
 20
-13.99468
 30
0.0
 10
-6.9425
 20
-13.99468
 30
0.0
 10
-6.9425
 20
-13.99468
 30
0.0
 10
-6.96426
 20
-13.97297
 30
0.0
 10
-6.99438
 20
-13.95954
 30
0.0
 10
-7.02768
 20
-13.95954
 30
0.0
 10
-7.02768
 20
-13.95954
 30
0.0
 10
-7.06092
 20
-13.95954
 30
0.0
 10
-7.09101
 20
-13.97301
 30
0.0
 10
-7.11277
 20
-13.99477
 30
0.0
 10
-7.11277
 20
-13.99477
 30
0.0
 10
-7.11277
 20
-13.99477
 30
0.0
 10
-7.11287
 20
-13.99467
 30
0.0
 10
-7.11287
 20
-13.99467
 30
0.0
 10
-7.11287
 20
-13.99467
 30
0.0
 10
-7.11287
 20
-13.99467
 30
0.0
 10
-7.11296
 20
-13.99477
 30
0.0
 10
-7.11296
 20
-13.99477
 30
0.0
 10
-7.11296
 20
-13.99477
 30
0.0
 10
-7.13461
 20
-14.01641
 30
0.0
 10
-7.14801
 20
-14.0465
 30
0.0
 10
-7.14801
 20
-14.07985
 30
0.0
 10
-7.14801
 20
-14.07985
 30
0.0
 10
-7.14801
 20
-14.11211
 30
0.0
 10
-7.13548
 20
-14.14131
 30
0.0
 10
-7.11508
 20
-14.16277
 30
0.0
 10
-7.11508
 20
-14.16277
 30
0.0
 10
-7.1143
 20
-14.16346
 30
0.0
 10
-7.11352
 20
-14.16419
 30
0.0
 10
-7.11277
 20
-14.16494
 30
0.0
 10
-7.11277
 20
-14.16494
 30
0.0
 10
-7.09101
 20
-14.1867
 30
0.0
 10
-7.06092
 20
-14.20017
 30
0.0
 10
-7.02768
 20
-14.20017
 30
0.0
 10
-7.02768
 20
-14.20017
 30
0.0
 10
-6.99546
 20
-14.20017
 30
0.0
 10
-6.96622
 20
-14.18761
 30
0.0
 10
-6.94465
 20
-14.16713
 30
0.0
 10
-6.94465
 20
-14.16713
 30
0.0
 10
-6.94398
 20
-14.16639
 30
0.0
 10
-6.9433
 20
-14.16565
 30
0.0
 10
-6.94259
 20
-14.16494
 30
0.0
  0
SPLINE
  5
5C
330
1F
100
AcDbEntity
  8
Layer 1
 62
     5
100
AcDbSpline
210
0.0
220
0.0
230
1.0
 70
    11
 71
     3
 72
    40
 73
    36
 74
     0
 42
0.0000000001
 43
0.0000000001
 12
1.0
 22
0.0
 32
0.0
 13
1.0
 23
0.0
 33
0.0
 40
0.0
 40
0.0
 40
0.0
 40
0.0
 40
0.1
 40
0.1
 40
0.1
 40
0.1
 40
0.2
 40
0.2
 40
0.2
 40
0.2
 40
0.3
 40
0.3
 40
0.3
 40
0.3
 40
0.4
 40
0.4
 40
0.4
 40
0.4
 40
0.5
 40
0.5
 40
0.5
 40
0.5
 40
0.6
 40
0.6
 40
0.6
 40
0.6
 40
0.7
 40
0.7
 40
0.7
 40
0.7
 40
0.8
 40
0.8
 40
0.8
 40
0.8
 40
1.0
 40
1.0
 40
1.0
 40
1.0
 10
-7.61646
 20
-14.07912
 30
0.0
 10
-7.61646
 20
-14.13996
 30
0.0
 10
-7.64113
 20
-14.19505
 30
0.0
 10
-7.68099
 20
-14.23491
 30
0.0
 10
-7.68099
 20
-14.23491
 30
0.0
 10
-7.68201
 20
-14.23593
 30
0.0
 10
-7.68306
 20
-14.23689
 30
0.0
 10
-7.68413
 20
-14.2378
 30
0.0
 10
-7.68413
 20
-14.2378
 30
0.0
 10
-7.72382
 20
-14.27596
 30
0.0
 10
-7.77764
 20
-14.29944
 30
0.0
 10
-7.83676
 20
-14.29944
 30
0.0
 10
-7.83676
 20
-14.29944
 30
0.0
 10
-7.89759
 20
-14.29944
 30
0.0
 10
-7.95269
 20
-14.27478
 30
0.0
 10
-7.99257
 20
-14.2349
 30
0.0
 10
-7.99257
 20
-14.2349
 30
0.0
 10
-8.03243
 20
-14.19504
 30
0.0
 10
-8.05711
 20
-14.13996
 30
0.0
 10
-8.05711
 20
-14.07912
 30
0.0
 10
-8.05711
 20
-14.07912
 30
0.0
 10
-8.05711
 20
-14.01843
 30
0.0
 10
-8.03236
 20
-13.96333
 30
0.0
 10
-7.99237
 20
-13.92335
 30
0.0
 10
-7.99237
 20
-13.92335
 30
0.0
 10
-7.95249
 20
-13.88349
 30
0.0
 10
-7.89746
 20
-13.85882
 30
0.0
 10
-7.83676
 20
-13.85882
 30
0.0
 10
-7.83676
 20
-13.85882
 30
0.0
 10
-7.77593
 20
-13.85882
 30
0.0
 10
-7.72085
 20
-13.88349
 30
0.0
 10
-7.68099
 20
-13.92335
 30
0.0
 10
-7.68099
 20
-13.92335
 30
0.0
 10
-7.64113
 20
-13.96321
 30
0.0
 10
-7.61646
 20
-14.01829
 30
0.0
 10
-7.61646
 20
-14.07912
 30
0.0
  0
SPLINE
  5
5D
330
1F
100
AcDbEntity
  8
Layer 1
 62
     5
100
AcDbSpline
210
0.0
220
0.0
230
1.0
 70
    11
 71
     3
 72
    40
 73
    36
 74
     0
 42
0.0000000001
 43
0.0000000001
 12
1.0
 22
0.0
 32
0.0
 13
1.0
 23
0.0
 33
0.0
 40
0.0
 40
0.0
 40
0.0
 40
0.0
 40
0.1
 40
0.1
 40
0.1
 40
0.1
 40
0.2
 40
0.2
 40
0.2
 40
0.2
 40
0.3
 40
0.3
 40
0.3
 40
0.3
 40
0.4
 40
0.4
 40
0.4
 40
0.4
 40
0.5
 40
0.5
 40
0.5
 40
0.5
 40
0.6
 40
0.6
 40
0.6
 40
0.6
 40
0.7
 40
0.7
 40
0.7
 40
0.7
 40
0.8
 40
0.8
 40
0.8
 40
0.8
 40
1.0
 40
1.0
 40
1.0
 40
1.0
 10
-7.75169
 20
-14.16421
 30
0.0
 10
-7.72993
 20
-14.14245
 30
0.0
 10
-7.71646
 20
-14.11236
 30
0.0
 10
-7.71646
 20
-14.07912
 30
0.0
 10
-7.71646
 20
-14.07912
 30
0.0
 10
-7.71646
 20
-14.0459
 30
0.0
 10
-7.72993
 20
-14.01581
 30
0.0
 10
-7.75169
 20
-13.99405
 30
0.0
 10
-7.75169
 20
-13.99405
 30
0.0
 10
-7.77345
 20
-13.97229
 30
0.0
 10
-7.80354
 20
-13.95882
 30
0.0
 10
-7.83676
 20
-13.95882
 30
0.0
 10
-7.83676
 20
-13.95882
 30
0.0
 10
-7.87012
 20
-13.95882
 30
0.0
 10
-7.90028
 20
-13.97229
 30
0.0
 10
-7.92205
 20
-13.99405
 30
0.0
 10
-7.92205
 20
-13.99405
 30
0.0
 10
-7.9437
 20
-14.01569
 30
0.0
 10
-7.95711
 20
-14.04578
 30
0.0
 10
-7.95711
 20
-14.07912
 30
0.0
 10
-7.95711
 20
-14.07912
 30
0.0
 10
-7.95711
 20
-14.11235
 30
0.0
 10
-7.94363
 20
-14.14244
 30
0.0
 10
-7.92187
 20
-14.1642
 30
0.0
 10
-7.92187
 20
-14.1642
 30
0.0
 10
-7.9001
 20
-14.18597
 30
0.0
 10
-7.87
 20
-14.19944
 30
0.0
 10
-7.83676
 20
-14.19944
 30
0.0
 10
-7.83676
 20
-14.19944
 30
0.0
 10
-7.80449
 20
-14.19944
 30
0.0
 10
-7.77527
 20
-14.18689
 30
0.0
 10
-7.75381
 20
-14.16647
 30
0.0
 10
-7.75381
 20
-14.16647
 30
0.0
 10
-7.75313
 20
-14.1657
 30
0.0
 10
-7.75243
 20
-14.16495
 30
0.0
 10
-7.75169
 20
-14.16421
 30
0.0
  0
SPLINE
  5
5E
330
1F
100
AcDbEntity
  8
Layer 1
 62
     5
100
AcDbSpline
210
0.0
220
0.0
230
1.0
 70
    11
 71
     3
 72
    52
 73
    48
 74
     0
 42
0.0000000001
 43
0.0000000001
 12
1.0
 22
0.0
 32
0.0
 13
1.0
 23
0.0
 33
0.0
 40
0.0
 40
0.0
 40
0.0
 40
0.0
 40
0.0769230769230769
 40
0.0769230769230769
 40
0.0769230769230769
 40
0.0769230769230769
 40
0.1538461538461539
 40
0.1538461538461539
 40
0.1538461538461539
 40
0.1538461538461539
 40
0.2307692307692308
 40
0.2307692307692308
 40
0.2307692307692308
 40
0.2307692307692308
 40
0.3076923076923077
 40
0.3076923076923077
 40
0.3076923076923077
 40
0.3076923076923077
 40
0.3846153846153846
 40
0.3846153846153846
 40
0.3846153846153846
 40
0.3846153846153846
 40
0.4615384615384616
 40
0.4615384615384616
 40
0.4615384615384616
 40
0.4615384615384616
 40
0.5384615384615384
 40
0.5384615384615384
 40
0.5384615384615384
 40
0.5384615384615384
 40
0.6153846153846154
 40
0.6153846153846154
 40
0.6153846153846154
 40
0.6153846153846154
 40
0.6923076923076923
 40
0.6923076923076923
 40
0.6923076923076923
 40
0.6923076923076923
 40
0.7692307692307693
 40
0.7692307692307693
 40
0.7692307692307693
 40
0.7692307692307693
 40
0.8461538461538461
 40
0.8461538461538461
 40
0.8461538461538461
 40
0.8461538461538461
 40
1.0
 40
1.0
 40
1.0
 40
1.0
 10
-8.41995
 20
-14.07949
 30
0.0
 10
-8.41995
 20
-14.14031
 30
0.0
 10
-8.44462
 20
-14.19541
 30
0.0
 10
-8.48448
 20
-14.23527
 30
0.0
 10
-8.48448
 20
-14.23527
 30
0.0
 10
-8.4855
 20
-14.23629
 30
0.0
 10
-8.48656
 20
-14.23726
 30
0.0
 10
-8.48765
 20
-14.23818
 30
0.0
 10
-8.48765
 20
-14.23818
 30
0.0
 10
-8.52736
 20
-14.27635
 30
0.0
 10
-8.58114
 20
-14.29981
 30
0.0
 10
-8.64025
 20
-14.29981
 30
0.0
 10
-8.64025
 20
-14.29981
 30
0.0
 10
-8.70108
 20
-14.29981
 30
0.0
 10
-8.75618
 20
-14.27515
 30
0.0
 10
-8.79606
 20
-14.23527
 30
0.0
 10
-8.79606
 20
-14.23527
 30
0.0
 10
-8.83592
 20
-14.19541
 30
0.0
 10
-8.8606
 20
-14.14032
 30
0.0
 10
-8.8606
 20
-14.07949
 30
0.0
 10
-8.8606
 20
-14.07949
 30
0.0
 10
-8.8606
 20
-14.01888
 30
0.0
 10
-8.83594
 20
-13.96388
 30
0.0
 10
-8.79605
 20
-13.92391
 30
0.0
 10
-8.79605
 20
-13.92391
 30
0.0
 10
-8.79605
 20
-13.92391
 30
0.0
 10
-8.79595
 20
-13.92382
 30
0.0
 10
-8.79595
 20
-13.92382
 30
0.0
 10
-8.79595
 20
-13.92382
 30
0.0
 10
-8.79595
 20
-13.92382
 30
0.0
 10
-8.79586
 20
-13.92372
 30
0.0
 10
-8.79586
 20
-13.92372
 30
0.0
 10
-8.79586
 20
-13.92372
 30
0.0
 10
-8.79586
 20
-13.92372
 30
0.0
 10
-8.79535
 20
-13.92322
 30
0.0
 10
-8.79535
 20
-13.92322
 30
0.0
 10
-8.79535
 20
-13.92322
 30
0.0
 10
-8.75542
 20
-13.88363
 30
0.0
 10
-8.7006
 20
-13.85918
 30
0.0
 10
-8.64025
 20
-13.85918
 30
0.0
 10
-8.64025
 20
-13.85918
 30
0.0
 10
-8.57942
 20
-13.85918
 30
0.0
 10
-8.52434
 20
-13.88385
 30
0.0
 10
-8.48448
 20
-13.92371
 30
0.0
 10
-8.48448
 20
-13.92371
 30
0.0
 10
-8.44462
 20
-13.96357
 30
0.0
 10
-8.41995
 20
-14.01867
 30
0.0
 10
-8.41995
 20
-14.07949
 30
0.0
  0
SPLINE
  5
5F
330
1F
100
AcDbEntity
  8
Layer 1
 62
     5
100
AcDbSpline
210
0.0
220
0.0
230
1.0
 70
    11
 71
     3
 72
    44
 73
    40
 74
     0
 42
0.0000000001
 43
0.0000000001
 12
1.0
 22
0.0
 32
0.0
 13
1.0
 23
0.0
 33
0.0
 40
0.0
 40
0.0
 40
0.0
 40
0.0
 40
0.0909090909090909
 40
0.0909090909090909
 40
0.0909090909090909
 40
0.0909090909090909
 40
0.1818181818181818
 40
0.1818181818181818
 40
0.1818181818181818
 40
0.1818181818181818
 40
0.2727272727272727
 40
0.2727272727272727
 40
0.2727272727272727
 40
0.2727272727272727
 40
0.3636363636363636
 40
0.3636363636363636
 40
0.3636363636363636
 40
0.3636363636363636
 40
0.4545454545454545
 40
0.4545454545454545
 40
0.4545454545454545
 40
0.4545454545454545
 40
0.5454545454545454
 40
0.5454545454545454
 40
0.5454545454545454
 40
0.5454545454545454
 40
0.6363636363636364
 40
0.6363636363636364
 40
0.6363636363636364
 40
0.6363636363636364
 40
0.7272727272727273
 40
0.7272727272727273
 40
0.7272727272727273
 40
0.7272727272727273
 40
0.8181818181818182
 40
0.8181818181818182
 40
0.8181818181818182
 40
0.8181818181818182
 40
1.0
 40
1.0
 40
1.0
 40
1.0
 10
-8.55518
 20
-14.16457
 30
0.0
 10
-8.53342
 20
-14.14281
 30
0.0
 10
-8.51995
 20
-14.11272
 30
0.0
 10
-8.51995
 20
-14.07949
 30
0.0
 10
-8.51995
 20
-14.07949
 30
0.0
 10
-8.51995
 20
-14.04626
 30
0.0
 10
-8.53342
 20
-14.01617
 30
0.0
 10
-8.55518
 20
-13.99441
 30
0.0
 10
-8.55518
 20
-13.99441
 30
0.0
 10
-8.57694
 20
-13.97265
 30
0.0
 10
-8.60703
 20
-13.95918
 30
0.0
 10
-8.64025
 20
-13.95918
 30
0.0
 10
-8.64025
 20
-13.95918
 30
0.0
 10
-8.67361
 20
-13.95918
 30
0.0
 10
-8.70371
 20
-13.97258
 30
0.0
 10
-8.72535
 20
-13.99423
 30
0.0
 10
-8.72535
 20
-13.99423
 30
0.0
 10
-8.72535
 20
-13.99423
 30
0.0
 10
-8.72554
 20
-13.99442
 30
0.0
 10
-8.72554
 20
-13.99442
 30
0.0
 10
-8.72554
 20
-13.99442
 30
0.0
 10
-8.74719
 20
-14.01606
 30
0.0
 10
-8.7606
 20
-14.04614
 30
0.0
 10
-8.7606
 20
-14.07949
 30
0.0
 10
-8.7606
 20
-14.07949
 30
0.0
 10
-8.7606
 20
-14.11271
 30
0.0
 10
-8.74712
 20
-14.14281
 30
0.0
 10
-8.72536
 20
-14.16457
 30
0.0
 10
-8.72536
 20
-14.16457
 30
0.0
 10
-8.70359
 20
-14.18634
 30
0.0
 10
-8.67349
 20
-14.19981
 30
0.0
 10
-8.64025
 20
-14.19981
 30
0.0
 10
-8.64025
 20
-14.19981
 30
0.0
 10
-8.608
 20
-14.19981
 30
0.0
 10
-8.57881
 20
-14.18728
 30
0.0
 10
-8.55735
 20
-14.16688
 30
0.0
 10
-8.55735
 20
-14.16688
 30
0.0
 10
-8.55666
 20
-14.1661
 30
0.0
 10
-8.55593
 20
-14.16532
 30
0.0
 10
-8.55518
 20
-14.16457
 30
0.0
  0
SPLINE
  5
60
330
1F
100
AcDbEntity
  8
Layer 1
 62
     5
100
AcDbSpline
210
0.0
220
0.0
230
1.0
 70
    11
 71
     3
 72
   180
 73
   176
 74
     0
 42
0.0000000001
 43
0.0000000001
 12
1.0
 22
0.0
 32
0.0
 13
1.0
 23
0.0
 33
0.0
 40
0.0
 40
0.0
 40
0.0
 40
0.0
 40
0.0222222222222222
 40
0.0222222222222222
 40
0.0222222222222222
 40
0.0222222222222222
 40
0.0444444444444444
 40
0.0444444444444444
 40
0.0444444444444444
 40
0.0444444444444444
 40
0.0666666666666667
 40
0.0666666666666667
 40
0.0666666666666667
 40
0.0666666666666667
 40
0.0888888888888889
 40
0.0888888888888889
 40
0.0888888888888889
 40
0.0888888888888889
 40
0.1111111111111111
 40
0.1111111111111111
 40
0.1111111111111111
 40
0.1111111111111111
 40
0.1333333333333333
 40
0.1333333333333333
 40
0.1333333333333333
 40
0.1333333333333333
 40
0.1555555555555556
 40
0.1555555555555556
 40
0.1555555555555556
 40
0.1555555555555556
 40
0.1777777777777778
 40
0.1777777777777778
 40
0.1777777777777778
 40
0.1777777777777778
 40
0.2
 40
0.2
 40
0.2
 40
0.2
 40
0.2222222222222222
 40
0.2222222222222222
 40
0.2222222222222222
 40
0.2222222222222222
 40
0.2444444444444444
 40
0.2444444444444444
 40
0.2444444444444444
 40
0.2444444444444444
 40
0.2666666666666667
 40
0.2666666666666667
 40
0.2666666666666667
 40
0.2666666666666667
 40
0.2888888888888889
 40
0.2888888888888889
 40
0.2888888888888889
 40
0.2888888888888889
 40
0.3111111111111111
 40
0.3111111111111111
 40
0.3111111111111111
 40
0.3111111111111111
 40
0.3333333333333333
 40
0.3333333333333333
 40
0.3333333333333333
 40
0.3333333333333333
 40
0.3555555555555556
 40
0.3555555555555556
 40
0.3555555555555556
 40
0.3555555555555556
 40
0.3777777777777778
 40
0.3777777777777778
 40
0.3777777777777778
 40
0.3777777777777778
 40
0.4
 40
0.4
 40
0.4
 40
0.4
 40
0.4222222222222222
 40
0.4222222222222222
 40
0.4222222222222222
 40
0.4222222222222222
 40
0.4444444444444444
 40
0.4444444444444444
 40
0.4444444444444444
 40
0.4444444444444444
 40
0.4666666666666667
 40
0.4666666666666667
 40
0.4666666666666667
 40
0.4666666666666667
 40
0.4888888888888889
 40
0.4888888888888889
 40
0.4888888888888889
 40
0.4888888888888889
 40
0.5111111111111111
 40
0.5111111111111111
 40
0.5111111111111111
 40
0.5111111111111111
 40
0.5333333333333333
 40
0.5333333333333333
 40
0.5333333333333333
 40
0.5333333333333333
 40
0.5555555555555556
 40
0.5555555555555556
 40
0.5555555555555556
 40
0.5555555555555556
 40
0.5777777777777777
 40
0.5777777777777777
 40
0.5777777777777777
 40
0.5777777777777777
 40
0.6
 40
0.6
 40
0.6
 40
0.6
 40
0.6222222222222222
 40
0.6222222222222222
 40
0.6222222222222222
 40
0.6222222222222222
 40
0.6444444444444445
 40
0.6444444444444445
 40
0.6444444444444445
 40
0.6444444444444445
 40
0.6666666666666666
 40
0.6666666666666666
 40
0.6666666666666666
 40
0.6666666666666666
 40
0.6888888888888889
 40
0.6888888888888889
 40
0.6888888888888889
 40
0.6888888888888889
 40
0.7111111111111111
 40
0.7111111111111111
 40
0.7111111111111111
 40
0.7111111111111111
 40
0.7333333333333333
 40
0.7333333333333333
 40
0.7333333333333333
 40
0.7333333333333333
 40
0.7555555555555555
 40
0.7555555555555555
 40
0.7555555555555555
 40
0.7555555555555555
 40
0.7777777777777778
 40
0.7777777777777778
 40
0.7777777777777778
 40
0.7777777777777778
 40
0.8
 40
0.8
 40
0.8
 40
0.8
 40
0.8222222222222222
 40
0.8222222222222222
 40
0.8222222222222222
 40
0.8222222222222222
 40
0.8444444444444444
 40
0.8444444444444444
 40
0.8444444444444444
 40
0.8444444444444444
 40
0.8666666666666667
 40
0.8666666666666667
 40
0.8666666666666667
 40
0.8666666666666667
 40
0.8888888888888888
 40
0.8888888888888888
 40
0.8888888888888888
 40
0.8888888888888888
 40
0.9111111111111111
 40
0.9111111111111111
 40
0.9111111111111111
 40
0.9111111111111111
 40
0.9333333333333333
 40
0.9333333333333333
 40
0.9333333333333333
 40
0.9333333333333333
 40
0.9555555555555556
 40
0.9555555555555556
 40
0.9555555555555556
 40
0.9555555555555556
 40
1.0
 40
1.0
 40
1.0
 40
1.0
 10
-9.79341
 20
-14.07876
 30
0.0
 10
-9.79341
 20
-14.10637
 30
0.0
 10
-9.8158
 20
-14.12876
 30
0.0
 10
-9.84341
 20
-14.12876
 30
0.0
 10
-9.84341
 20
-14.12876
 30
0.0
 10
-9.87102
 20
-14.12876
 30
0.0
 10
-9.89341
 20
-14.10637
 30
0.0
 10
-9.89341
 20
-14.07876
 30
0.0
 10
-9.89341
 20
-14.07876
 30
0.0
 10
-9.89341
 20
-13.95615
 30
0.0
 10
-9.84369
 20
-13.84513
 30
0.0
 10
-9.76334
 20
-13.76478
 30
0.0
 10
-9.76334
 20
-13.76478
 30
0.0
 10
-9.76238
 20
-13.76382
 30
0.0
 10
-9.76138
 20
-13.7629
 30
0.0
 10
-9.76037
 20
-13.76203
 30
0.0
 10
-9.76037
 20
-13.76203
 30
0.0
 10
-9.68024
 20
-13.68331
 30
0.0
 10
-9.57042
 20
-13.63472
 30
0.0
 10
-9.44934
 20
-13.63472
 30
0.0
 10
-9.44934
 20
-13.63472
 30
0.0
 10
-9.32762
 20
-13.63472
 30
0.0
 10
-9.21733
 20
-13.68381
 30
0.0
 10
-9.13578
 20
-13.76332
 30
0.0
 10
-9.13578
 20
-13.76332
 30
0.0
 10
-9.09903
 20
-13.79915
 30
0.0
 10
-9.06813
 20
-13.84119
 30
0.0
 10
-9.04469
 20
-13.88771
 30
0.0
 10
-9.04469
 20
-13.88771
 30
0.0
 10
-9.02126
 20
-13.84141
 30
0.0
 10
-8.99042
 20
-13.79956
 30
0.0
 10
-8.95374
 20
-13.76387
 30
0.0
 10
-8.95374
 20
-13.76387
 30
0.0
 10
-8.8722
 20
-13.68451
 30
0.0
 10
-8.76193
 20
-13.63545
 30
0.0
 10
-8.64027
 20
-13.63545
 30
0.0
 10
-8.64027
 20
-13.63545
 30
0.0
 10
-8.51837
 20
-13.63545
 30
0.0
 10
-8.40789
 20
-13.68471
 30
0.0
 10
-8.3266
 20
-13.76441
 30
0.0
 10
-8.3266
 20
-13.76441
 30
0.0
 10
-8.29119
 20
-13.79912
 30
0.0
 10
-8.26137
 20
-13.83965
 30
0.0
 10
-8.23858
 20
-13.88442
 30
0.0
 10
-8.23858
 20
-13.88442
 30
0.0
 10
-8.2158
 20
-13.83954
 30
0.0
 10
-8.18593
 20
-13.79892
 30
0.0
 10
-8.15048
 20
-13.76413
 30
0.0
 10
-8.15048
 20
-13.76413
 30
0.0
 10
-8.0692
 20
-13.68437
 30
0.0
 10
-7.9587
 20
-13.63508
 30
0.0
 10
-7.83678
 20
-13.63508
 30
0.0
 10
-7.83678
 20
-13.63508
 30
0.0
 10
-7.71506
 20
-13.63508
 30
0.0
 10
-7.60475
 20
-13.68417
 30
0.0
 10
-7.52321
 20
-13.76367
 30
0.0
 10
-7.52321
 20
-13.76367
 30
0.0
 10
-7.48645
 20
-13.7995
 30
0.0
 10
-7.45556
 20
-13.84156
 30
0.0
 10
-7.43212
 20
-13.88808
 30
0.0
 10
-7.43212
 20
-13.88808
 30
0.0
 10
-7.40869
 20
-13.84178
 30
0.0
 10
-7.37785
 20
-13.79991
 30
0.0
 10
-7.34117
 20
-13.76422
 30
0.0
 10
-7.34117
 20
-13.76422
 30
0.0
 10
-7.25962
 20
-13.68485
 30
0.0
 10
-7.14936
 20
-13.63579
 30
0.0
 10
-7.02768
 20
-13.63579
 30
0.0
 10
-7.02768
 20
-13.63579
 30
0.0
 10
-6.90507
 20
-13.63579
 30
0.0
 10
-6.79406
 20
-13.68551
 30
0.0
 10
-6.71372
 20
-13.76585
 30
0.0
 10
-6.71372
 20
-13.76585
 30
0.0
 10
-6.63337
 20
-13.84621
 30
0.0
 10
-6.58366
 20
-13.95725
 30
0.0
 10
-6.58366
 20
-14.07985
 30
0.0
 10
-6.58366
 20
-14.07985
 30
0.0
 10
-6.58366
 20
-14.10746
 30
0.0
 10
-6.60605
 20
-14.12985
 30
0.0
 10
-6.63366
 20
-14.12985
 30
0.0
 10
-6.63366
 20
-14.12985
 30
0.0
 10
-6.66127
 20
-14.12985
 30
0.0
 10
-6.68366
 20
-14.10746
 30
0.0
 10
-6.68366
 20
-14.07985
 30
0.0
 10
-6.68366
 20
-14.07985
 30
0.0
 10
-6.68366
 20
-13.98484
 30
0.0
 10
-6.72217
 20
-13.89881
 30
0.0
 10
-6.78442
 20
-13.83655
 30
0.0
 10
-6.78442
 20
-13.83655
 30
0.0
 10
-6.84666
 20
-13.77431
 30
0.0
 10
-6.93268
 20
-13.73579
 30
0.0
 10
-7.02768
 20
-13.73579
 30
0.0
 10
-7.02768
 20
-13.73579
 30
0.0
 10
-7.12239
 20
-13.73579
 30
0.0
 10
-7.20819
 20
-13.77396
 30
0.0
 10
-7.27163
 20
-13.8357
 30
0.0
 10
-7.27163
 20
-13.8357
 30
0.0
 10
-7.33619
 20
-13.89853
 30
0.0
 10
-7.3778
 20
-13.98565
 30
0.0
 10
-7.38243
 20
-14.08182
 30
0.0
 10
-7.38243
 20
-14.08182
 30
0.0
 10
-7.3836
 20
-14.10724
 30
0.0
 10
-7.40397
 20
-14.12806
 30
0.0
 10
-7.42989
 20
-14.12928
 30
0.0
 10
-7.42989
 20
-14.12928
 30
0.0
 10
-7.45739
 20
-14.13057
 30
0.0
 10
-7.48074
 20
-14.10932
 30
0.0
 10
-7.48203
 20
-14.08182
 30
0.0
 10
-7.48203
 20
-14.08182
 30
0.0
 10
-7.48668
 20
-13.98532
 30
0.0
 10
-7.52824
 20
-13.89804
 30
0.0
 10
-7.59275
 20
-13.83515
 30
0.0
 10
-7.59275
 20
-13.83515
 30
0.0
 10
-7.65621
 20
-13.77329
 30
0.0
 10
-7.74204
 20
-13.73508
 30
0.0
 10
-7.83678
 20
-13.73508
 30
0.0
 10
-7.83678
 20
-13.73508
 30
0.0
 10
-7.93162
 20
-13.73508
 30
0.0
 10
-8.01748
 20
-13.77333
 30
0.0
 10
-8.08056
 20
-13.83523
 30
0.0
 10
-8.08056
 20
-13.83523
 30
0.0
 10
-8.14454
 20
-13.89801
 30
0.0
 10
-8.18532
 20
-13.98498
 30
0.0
 10
-8.18872
 20
-14.08106
 30
0.0
 10
-8.18872
 20
-14.08106
 30
0.0
 10
-8.18961
 20
-14.10698
 30
0.0
 10
-8.21044
 20
-14.12817
 30
0.0
 10
-8.23676
 20
-14.1291
 30
0.0
 10
-8.23676
 20
-14.1291
 30
0.0
 10
-8.26426
 20
-14.13007
 30
0.0
 10
-8.28735
 20
-14.10856
 30
0.0
 10
-8.28832
 20
-14.08106
 30
0.0
 10
-8.28832
 20
-14.08106
 30
0.0
 10
-8.29172
 20
-13.98515
 30
0.0
 10
-8.33253
 20
-13.89826
 30
0.0
 10
-8.39652
 20
-13.83551
 30
0.0
 10
-8.39652
 20
-13.83551
 30
0.0
 10
-8.45959
 20
-13.77368
 30
0.0
 10
-8.54544
 20
-13.73545
 30
0.0
 10
-8.64027
 20
-13.73545
 30
0.0
 10
-8.64027
 20
-13.73545
 30
0.0
 10
-8.73497
 20
-13.73545
 30
0.0
 10
-8.82078
 20
-13.77362
 30
0.0
 10
-8.8842
 20
-13.83535
 30
0.0
 10
-8.8842
 20
-13.83535
 30
0.0
 10
-8.94876
 20
-13.89817
 30
0.0
 10
-8.99037
 20
-13.98529
 30
0.0
 10
-8.995
 20
-14.08146
 30
0.0
 10
-8.995
 20
-14.08146
 30
0.0
 10
-8.99617
 20
-14.10688
 30
0.0
 10
-9.01654
 20
-14.1277
 30
0.0
 10
-9.04246
 20
-14.12892
 30
0.0
 10
-9.04246
 20
-14.12892
 30
0.0
 10
-9.06996
 20
-14.13021
 30
0.0
 10
-9.09331
 20
-14.10896
 30
0.0
 10
-9.0946
 20
-14.08146
 30
0.0
 10
-9.0946
 20
-14.08146
 30
0.0
 10
-9.09924
 20
-13.98496
 30
0.0
 10
-9.14081
 20
-13.89769
 30
0.0
 10
-9.20532
 20
-13.8348
 30
0.0
 10
-9.20532
 20
-13.8348
 30
0.0
 10
-9.26878
 20
-13.77292
 30
0.0
 10
-9.35461
 20
-13.73472
 30
0.0
 10
-9.44934
 20
-13.73472
 30
0.0
 10
-9.44934
 20
-13.73472
 30
0.0
 10
-9.54324
 20
-13.73472
 30
0.0
 10
-9.62829
 20
-13.77223
 30
0.0
 10
-9.69036
 20
-13.83304
 30
0.0
 10
-9.69036
 20
-13.83304
 30
0.0
 10
-9.69109
 20
-13.83387
 30
0.0
 10
-9.69185
 20
-13.83469
 30
0.0
 10
-9.69264
 20
-13.83548
 30
0.0
 10
-9.69264
 20
-13.83548
 30
0.0
 10
-9.75489
 20
-13.89773
 30
0.0
 10
-9.79341
 20
-13.98376
 30
0.0
 10
-9.79341
 20
-14.07876
 30
0.0
  0
SPLINE
  5
61
330
1F
100
AcDbEntity
  8
Layer 1
 62
     5
100
AcDbSpline
210
0.0
220
0.0
230
1.0
 70
    11
 71
     3
 72
    56
 73
    52
 74
     0
 42
0.0000000001
 43
0.0000000001
 12
1.0
 22
0.0
 32
0.0
 13
1.0
 23
0.0
 33
0.0
 40
0.0
 40
0.0
 40
0.0
 40
0.0
 40
0.0714285714285714
 40
0.0714285714285714
 40
0.0714285714285714
 40
0.0714285714285714
 40
0.1428571428571428
 40
0.1428571428571428
 40
0.1428571428571428
 40
0.1428571428571428
 40
0.2142857142857143
 40
0.2142857142857143
 40
0.2142857142857143
 40
0.2142857142857143
 40
0.2857142857142857
 40
0.2857142857142857
 40
0.2857142857142857
 40
0.2857142857142857
 40
0.3571428571428572
 40
0.3571428571428572
 40
0.3571428571428572
 40
0.3571428571428572
 40
0.4285714285714285
 40
0.4285714285714285
 40
0.4285714285714285
 40
0.4285714285714285
 40
0.5
 40
0.5
 40
0.5
 40
0.5
 40
0.5714285714285714
 40
0.5714285714285714
 40
0.5714285714285714
 40
0.5714285714285714
 40
0.6428571428571429
 40
0.6428571428571429
 40
0.6428571428571429
 40
0.6428571428571429
 40
0.7142857142857143
 40
0.7142857142857143
 40
0.7142857142857143
 40
0.7142857142857143
 40
0.7857142857142857
 40
0.7857142857142857
 40
0.7857142857142857
 40
0.7857142857142857
 40
0.8571428571428571
 40
0.8571428571428571
 40
0.8571428571428571
 40
0.8571428571428571
 40
1.0
 40
1.0
 40
1.0
 40
1.0
 10
-9.22902
 20
-14.07876
 30
0.0
 10
-9.22902
 20
-14.1396
 30
0.0
 10
-9.25369
 20
-14.19469
 30
0.0
 10
-9.29355
 20
-14.23455
 30
0.0
 10
-9.29355
 20
-14.23455
 30
0.0
 10
-9.33341
 20
-14.27441
 30
0.0
 10
-9.3885
 20
-14.29908
 30
0.0
 10
-9.44934
 20
-14.29908
 30
0.0
 10
-9.44934
 20
-14.29908
 30
0.0
 10
-9.50994
 20
-14.29908
 30
0.0
 10
-9.56497
 20
-14.27443
 30
0.0
 10
-9.60494
 20
-14.23454
 30
0.0
 10
-9.60494
 20
-14.23454
 30
0.0
 10
-9.60494
 20
-14.23454
 30
0.0
 10
-9.60503
 20
-14.23444
 30
0.0
 10
-9.60503
 20
-14.23444
 30
0.0
 10
-9.60503
 20
-14.23444
 30
0.0
 10
-9.60503
 20
-14.23444
 30
0.0
 10
-9.60513
 20
-14.23435
 30
0.0
 10
-9.60513
 20
-14.23435
 30
0.0
 10
-9.60513
 20
-14.23435
 30
0.0
 10
-9.60513
 20
-14.23435
 30
0.0
 10
-9.60563
 20
-14.23384
 30
0.0
 10
-9.60563
 20
-14.23384
 30
0.0
 10
-9.60563
 20
-14.23384
 30
0.0
 10
-9.64522
 20
-14.19391
 30
0.0
 10
-9.66967
 20
-14.13912
 30
0.0
 10
-9.66967
 20
-14.07876
 30
0.0
 10
-9.66967
 20
-14.07876
 30
0.0
 10
-9.66967
 20
-14.01794
 30
0.0
 10
-9.64499
 20
-13.96285
 30
0.0
 10
-9.60513
 20
-13.92299
 30
0.0
 10
-9.60513
 20
-13.92299
 30
0.0
 10
-9.60413
 20
-13.92199
 30
0.0
 10
-9.60309
 20
-13.92104
 30
0.0
 10
-9.60203
 20
-13.92014
 30
0.0
 10
-9.60203
 20
-13.92014
 30
0.0
 10
-9.5624
 20
-13.88196
 30
0.0
 10
-9.50857
 20
-13.85846
 30
0.0
 10
-9.44934
 20
-13.85846
 30
0.0
 10
-9.44934
 20
-13.85846
 30
0.0
 10
-9.38852
 20
-13.85846
 30
0.0
 10
-9.33342
 20
-13.88313
 30
0.0
 10
-9.29356
 20
-13.92299
 30
0.0
 10
-9.29356
 20
-13.92299
 30
0.0
 10
-9.29254
 20
-13.92401
 30
0.0
 10
-9.29157
 20
-13.92507
 30
0.0
 10
-9.29065
 20
-13.92616
 30
0.0
 10
-9.29065
 20
-13.92616
 30
0.0
 10
-9.25248
 20
-13.96587
 30
0.0
 10
-9.22902
 20
-14.01965
 30
0.0
 10
-9.22902
 20
-14.07876
 30
0.0
  0
SPLINE
  5
62
330
1F
100
AcDbEntity
  8
Layer 1
 62
     5
100
AcDbSpline
210
0.0
220
0.0
230
1.0
 70
    11
 71
     3
 72
    48
 73
    44
 74
     0
 42
0.0000000001
 43
0.0000000001
 12
1.0
 22
0.0
 32
0.0
 13
1.0
 23
0.0
 33
0.0
 40
0.0
 40
0.0
 40
0.0
 40
0.0
 40
0.0833333333333333
 40
0.0833333333333333
 40
0.0833333333333333
 40
0.0833333333333333
 40
0.1666666666666667
 40
0.1666666666666667
 40
0.1666666666666667
 40
0.1666666666666667
 40
0.25
 40
0.25
 40
0.25
 40
0.25
 40
0.3333333333333333
 40
0.3333333333333333
 40
0.3333333333333333
 40
0.3333333333333333
 40
0.4166666666666667
 40
0.4166666666666667
 40
0.4166666666666667
 40
0.4166666666666667
 40
0.5
 40
0.5
 40
0.5
 40
0.5
 40
0.5833333333333334
 40
0.5833333333333334
 40
0.5833333333333334
 40
0.5833333333333334
 40
0.6666666666666666
 40
0.6666666666666666
 40
0.6666666666666666
 40
0.6666666666666666
 40
0.75
 40
0.75
 40
0.75
 40
0.75
 40
0.8333333333333334
 40
0.8333333333333334
 40
0.8333333333333334
 40
0.8333333333333334
 40
1.0
 40
1.0
 40
1.0
 40
1.0
 10
-9.36425
 20
-14.16385
 30
0.0
 10
-9.34249
 20
-14.14209
 30
0.0
 10
-9.32902
 20
-14.112
 30
0.0
 10
-9.32902
 20
-14.07876
 30
0.0
 10
-9.32902
 20
-14.07876
 30
0.0
 10
-9.32902
 20
-14.04651
 30
0.0
 10
-9.34155
 20
-14.01732
 30
0.0
 10
-9.36195
 20
-13.99586
 30
0.0
 10
-9.36195
 20
-13.99586
 30
0.0
 10
-9.36273
 20
-13.99517
 30
0.0
 10
-9.36351
 20
-13.99444
 30
0.0
 10
-9.36426
 20
-13.99369
 30
0.0
 10
-9.36426
 20
-13.99369
 30
0.0
 10
-9.38602
 20
-13.97193
 30
0.0
 10
-9.41611
 20
-13.95846
 30
0.0
 10
-9.44934
 20
-13.95846
 30
0.0
 10
-9.44934
 20
-13.95846
 30
0.0
 10
-9.48156
 20
-13.95846
 30
0.0
 10
-9.5108
 20
-13.97102
 30
0.0
 10
-9.53237
 20
-13.9915
 30
0.0
 10
-9.53237
 20
-13.9915
 30
0.0
 10
-9.53304
 20
-13.99224
 30
0.0
 10
-9.53372
 20
-13.99298
 30
0.0
 10
-9.53443
 20
-13.99369
 30
0.0
 10
-9.53443
 20
-13.99369
 30
0.0
 10
-9.55619
 20
-14.01545
 30
0.0
 10
-9.56967
 20
-14.04554
 30
0.0
 10
-9.56967
 20
-14.07876
 30
0.0
 10
-9.56967
 20
-14.07876
 30
0.0
 10
-9.56967
 20
-14.11212
 30
0.0
 10
-9.55627
 20
-14.1422
 30
0.0
 10
-9.53462
 20
-14.16384
 30
0.0
 10
-9.53462
 20
-14.16384
 30
0.0
 10
-9.53462
 20
-14.16384
 30
0.0
 10
-9.53443
 20
-14.16403
 30
0.0
 10
-9.53443
 20
-14.16403
 30
0.0
 10
-9.53443
 20
-14.16403
 30
0.0
 10
-9.51279
 20
-14.18568
 30
0.0
 10
-9.48269
 20
-14.19908
 30
0.0
 10
-9.44934
 20
-14.19908
 30
0.0
 10
-9.44934
 20
-14.19908
 30
0.0
 10
-9.4161
 20
-14.19908
 30
0.0
 10
-9.38601
 20
-14.18561
 30
0.0
 10
-9.36425
 20
-14.16385
 30
0.0
  0
ENDSEC
  0
SECTION
  2
OBJECTS
  0
DICTIONARY
  5
C
330
0
100
AcDbDictionary
281
     1
  3
ACAD_GROUP
350
D
  3
ACAD_LAYOUT
350
1A
  3
ACAD_MATERIAL
350
3B
  3
ACAD_MLEADERSTYLE
350
84
  3
ACAD_MLINESTYLE
350
17
  3
ACAD_PLOTSETTINGS
350
19
  3
ACAD_PLOTSTYLENAME
350
E
  3
ACAD_TABLESTYLE
350
83
  3
ACAD_VISUALSTYLE
350
2A
  0
DICTIONARY
  5
D
102
{ACAD_REACTORS
330
C
102
}
330
C
100
AcDbDictionary
281
     1
  0
DICTIONARY
  5
1A
102
{ACAD_REACTORS
330
C
102
}
330
C
100
AcDbDictionary
281
     1
  3
Layout1
350
1E
  3
Layout2
350
26
  3
Model
350
22
  0
DICTIONARY
  5
3B
102
{ACAD_REACTORS
330
C
102
}
330
C
100
AcDbDictionary
281
     1
  3
ByBlock
350
3D
  3
ByLayer
350
3C
  3
Global
350
3E
  0
DICTIONARY
  5
84
102
{ACAD_REACTORS
330
C
102
}
330
C
100
AcDbDictionary
281
     1
  0
DICTIONARY
  5
17
102
{ACAD_REACTORS
330
C
102
}
330
C
100
AcDbDictionary
281
     1
  3
Standard
350
18
  0
DICTIONARY
  5
19
102
{ACAD_REACTORS
330
C
102
}
330
C
100
AcDbDictionary
281
     1
  0
ACDBDICTIONARYWDFLT
  5
E
102
{ACAD_REACTORS
330
C
102
}
330
C
100
AcDbDictionary
281
     1
  3
Normal
350
F
100
AcDbDictionaryWithDefault
340
F
  0
DICTIONARY
  5
83
102
{ACAD_REACTORS
330
C
102
}
330
C
100
AcDbDictionary
281
     1
  0
DICTIONARY
  5
2A
102
{ACAD_REACTORS
330
C
102
}
330
C
100
AcDbDictionary
281
     1
  3
2dWireframe
350
2F
  3
3D Hidden
350
31
  3
3dWireframe
350
30
  3
Basic
350
32
  3
Brighten
350
36
  3
ColorChange
350
3A
  3
Conceptual
350
34
  3
Dim
350
35
  3
Facepattern
350
39
  3
Flat
350
2B
  3
FlatWithEdges
350
2C
  3
Gouraud
350
2D
  3
GouraudWithEdges
350
2E
  3
Linepattern
350
38
  3
Realistic
350
33
  3
Thicken
350
37
  0
LAYOUT
  5
1E
102
{ACAD_REACTORS
330
1A
102
}
330
1A
100
AcDbPlotSettings
  1

  2
none_device
  4

  6

 40
0.0
 41
0.0
 42
0.0
 43
0.0
 44
0.0
 45
0.0
 46
0.0
 47
0.0
 48
0.0
 49
0.0
140
0.0
141
0.0
142
1.0
143
1.0
 70
   688
 72
     0
 73
     0
 74
     5
  7

 75
    16
 76
     0
 77
     2
 78
   300
147
1.0
148
0.0
149
0.0
100
AcDbLayout
  1
Layout1
 70
     1
 71
     1
 10
0.0
 20
0.0
 11
12.0
 21
9.0
 12
0.0
 22
0.0
 32
0.0
 14
1.000000000000000E+20
 24
1.000000000000000E+20
 34
1.000000000000000E+20
 15
-1.000000000000000E+20
 25
-1.000000000000000E+20
 35
-1.000000000000000E+20
146
0.0
 13
0.0
 23
0.0
 33
0.0
 16
1.0
 26
0.0
 36
0.0
 17
0.0
 27
1.0
 37
0.0
 76
     0
330
1B
  0
LAYOUT
  5
26
102
{ACAD_REACTORS
330
1A
102
}
330
1A
100
AcDbPlotSettings
  1

  2
none_device
  4

  6

 40
0.0
 41
0.0
 42
0.0
 43
0.0
 44
0.0
 45
0.0
 46
0.0
 47
0.0
 48
0.0
 49
0.0
140
0.0
141
0.0
142
1.0
143
1.0
 70
   688
 72
     0
 73
     0
 74
     5
  7

 75
    16
 76
     0
 77
     2
 78
   300
147
1.0
148
0.0
149
0.0
100
AcDbLayout
  1
Layout2
 70
     1
 71
     2
 10
0.0
 20
0.0
 11
0.0
 21
0.0
 12
0.0
 22
0.0
 32
0.0
 14
0.0
 24
0.0
 34
0.0
 15
0.0
 25
0.0
 35
0.0
146
0.0
 13
0.0
 23
0.0
 33
0.0
 16
1.0
 26
0.0
 36
0.0
 17
0.0
 27
1.0
 37
0.0
 76
     0
330
23
  0
LAYOUT
  5
22
102
{ACAD_REACTORS
330
1A
102
}
330
1A
100
AcDbPlotSettings
  1

  2
none_device
  4

  6

 40
0.0
 41
0.0
 42
0.0
 43
0.0
 44
0.0
 45
0.0
 46
0.0
 47
0.0
 48
0.0
 49
0.0
140
0.0
141
0.0
142
1.0
143
1.0
 70
  1712
 72
     0
 73
     0
 74
     0
  7

 75
     0
 76
     0
 77
     2
 78
   300
147
1.0
148
0.0
149
0.0
100
AcDbLayout
  1
Model
 70
     1
 71
     0
 10
0.0
 20
0.0
 11
12.0
 21
9.0
 12
0.0
 22
0.0
 32
0.0
 14
-13.53724
 24
-14.30071
 34
0.0
 15
-6.53814
 25
-10.83471
 35
0.0
146
0.0
 13
0.0
 23
0.0
 33
0.0
 16
1.0
 26
0.0
 36
0.0
 17
0.0
 27
1.0
 37
0.0
 76
     0
330
1F
331
29
  0
MATERIAL
  5
3D
102
{ACAD_REACTORS
330
3B
102
}
330
3B
100
AcDbMaterial
  1
ByBlock
 72
     1
 94
      127
  0
MATERIAL
  5
3C
102
{ACAD_REACTORS
330
3B
102
}
330
3B
100
AcDbMaterial
  1
ByLayer
 72
     1
 94
      127
  0
MATERIAL
  5
3E
102
{ACAD_REACTORS
330
3B
102
}
330
3B
100
AcDbMaterial
  1
Global
 72
     1
 94
      127
  0
MLINESTYLE
  5
18
102
{ACAD_REACTORS
330
17
102
}
330
17
100
AcDbMlineStyle
  2
Standard
 70
     0
  3

 62
   256
 51
90.0
 52
90.0
 71
     2
 49
0.5
 62
   256
  6
BYLAYER
 49
-0.5
 62
   256
  6
BYLAYER
  0
ACDBPLACEHOLDER
  5
F
102
{ACAD_REACTORS
330
E
102
}
330
E
  0
VISUALSTYLE
  5
2F
102
{ACAD_REACTORS
330
2A
102
}
102
{ACAD_XDICTIONARY
360
6B
102
}
330
2A
100
AcDbVisualStyle
  2
2dWireframe
 70
     4
 71
     0
 72
     2
 73
     0
 90
        0
 40
-0.6
 41
-30.0
 62
     5
 63
     7
421
 16777215
 74
     1
 91
        4
 64
     7
 65
   257
 75
     1
175
     1
 42
1.0
 92
        0
 66
   257
 43
1.0
 76
     1
 77
     6
 78
     2
 67
     7
 79
     5
170
     0
171
     0
290
     0
174
     0
 93
        1
 44
0.0
173
     0
291
     0
 45
0.0
  0
VISUALSTYLE
  5
31
102
{ACAD_REACTORS
330
2A
102
}
102
{ACAD_XDICTIONARY
360
6F
102
}
330
2A
100
AcDbVisualStyle
  2
3D Hidden
 70
     6
 71
     1
 72
     2
 73
     2
 90
        0
 40
-0.6
 41
-30.0
 62
     5
 63
     7
421
 16777215
 74
     2
 91
        2
 64
     7
 65
   257
 75
     2
175
     1
 42
40.0
 92
        0
 66
   257
 43
1.0
 76
     1
 77
     6
 78
     2
 67
     7
 79
     3
170
     0
171
     0
290
     0
174
     0
 93
        1
 44
0.0
173
     0
291
     0
 45
0.0
  0
VISUALSTYLE
  5
30
102
{ACAD_REACTORS
330
2A
102
}
102
{ACAD_XDICTIONARY
360
6D
102
}
330
2A
100
AcDbVisualStyle
  2
3dWireframe
 70
     5
 71
     0
 72
     2
 73
     0
 90
        0
 40
-0.6
 41
-30.0
 62
     5
 63
     7
421
 16777215
 74
     1
 91
        4
 64
     7
 65
   257
 75
     1
175
     1
 42
1.0
 92
        0
 66
   257
 43
1.0
 76
     1
 77
     6
 78
     2
 67
     7
 79
     5
170
     0
171
     0
290
     0
174
     0
 93
        1
 44
0.0
173
     0
291
     0
 45
0.0
  0
VISUALSTYLE
  5
32
102
{ACAD_REACTORS
330
2A
102
}
102
{ACAD_XDICTIONARY
360
71
102
}
330
2A
100
AcDbVisualStyle
  2
Basic
 70
     7
 71
     1
 72
     0
 73
     1
 90
        0
 40
-0.6
 41
-30.0
 62
     5
 63
     7
421
 16777215
 74
     0
 91
        4
 64
     7
 65
   257
 75
     1
175
     1
 42
1.0
 92
        8
 66
     7
 43
1.0
 76
     1
 77
     6
 78
     2
 67
     7
 79
     5
170
     0
171
     0
290
     0
174
     0
 93
        1
 44
0.0
173
     0
291
     1
 45
0.0
  0
VISUALSTYLE
  5
36
102
{ACAD_REACTORS
330
2A
102
}
102
{ACAD_XDICTIONARY
360
79
102
}
330
2A
100
AcDbVisualStyle
  2
Brighten
 70
    12
 71
     2
 72
     2
 73
     0
 90
        0
 40
-0.6
 41
-30.0
 62
     5
 63
     7
421
 16777215
 74
     1
 91
        4
 64
     7
 65
   257
 75
     1
175
     1
 42
1.0
 92
        8
 66
     7
 43
1.0
 76
     1
 77
     6
 78
     2
 67
     7
 79
     5
170
     0
171
     0
290
     0
174
     0
 93
        1
 44
50.0
173
     0
291
     1
 45
0.0
  0
VISUALSTYLE
  5
3A
102
{ACAD_REACTORS
330
2A
102
}
102
{ACAD_XDICTIONARY
360
81
102
}
330
2A
100
AcDbVisualStyle
  2
ColorChange
 70
    16
 71
     2
 72
     2
 73
     3
 90
        0
 40
-0.6
 41
-30.0
 62
     5
 63
     8
421
  8421504
 74
     1
 91
        4
 64
     7
 65
   257
 75
     1
175
     1
 42
1.0
 92
        8
 66
     8
424
  8421504
 43
1.0
 76
     1
 77
     6
 78
     2
 67
     7
 79
     5
170
     0
171
     0
290
     0
174
     0
 93
        1
 44
0.0
173
     0
291
     1
 45
0.0
  0
VISUALSTYLE
  5
34
102
{ACAD_REACTORS
330
2A
102
}
102
{ACAD_XDICTIONARY
360
75
102
}
330
2A
100
AcDbVisualStyle
  2
Conceptual
 70
     9
 71
     3
 72
     2
 73
     0
 90
        0
 40
-0.6
 41
-30.0
 62
     5
 63
     7
421
 16777215
 74
     2
 91
        2
 64
     7
 65
   257
 75
     1
175
     1
 42
40.0
 92
        8
 66
     7
 43
1.0
 76
     1
 77
     6
 78
     2
 67
     7
 79
     3
170
     0
171
     0
290
     0
174
     0
 93
        1
 44
0.0
173
     0
291
     0
 45
0.0
  0
VISUALSTYLE
  5
35
102
{ACAD_REACTORS
330
2A
102
}
102
{ACAD_XDICTIONARY
360
77
102
}
330
2A
100
AcDbVisualStyle
  2
Dim
 70
    11
 71
     2
 72
     2
 73
     0
 90
        0
 40
-0.6
 41
-30.0
 62
     5
 63
     7
421
 16777215
 74
     1
 91
        4
 64
     7
 65
   257
 75
     1
175
     1
 42
1.0
 92
        8
 66
     7
 43
1.0
 76
     1
 77
     6
 78
     2
 67
     7
 79
     5
170
     0
171
     0
290
     0
174
     0
 93
        1
 44
-50.0
173
     0
291
     1
 45
0.0
  0
VISUALSTYLE
  5
39
102
{ACAD_REACTORS
330
2A
102
}
102
{ACAD_XDICTIONARY
360
7F
102
}
330
2A
100
AcDbVisualStyle
  2
Facepattern
 70
    15
 71
     2
 72
     2
 73
     0
 90
        0
 40
-0.6
 41
-30.0
 62
     5
 63
     7
421
 16777215
 74
     1
 91
        4
 64
     7
 65
   257
 75
     1
175
     1
 42
1.0
 92
        8
 66
     7
 43
1.0
 76
     1
 77
     6
 78
     2
 67
     7
 79
     5
170
     0
171
     0
290
     0
174
     0
 93
        1
 44
0.0
173
     0
291
     1
 45
0.0
  0
VISUALSTYLE
  5
2B
102
{ACAD_REACTORS
330
2A
102
}
102
{ACAD_XDICTIONARY
360
63
102
}
330
2A
100
AcDbVisualStyle
  2
Flat
 70
     0
 71
     2
 72
     1
 73
     1
 90
        2
 40
-0.6
 41
30.0
 62
     5
 63
     7
421
 16777215
 74
     0
 91
        4
 64
     7
 65
   257
 75
     1
175
     1
 42
1.0
 92
        8
 66
     7
 43
1.0
 76
     1
 77
     6
 78
     2
 67
     7
 79
     5
170
     0
171
     0
290
     0
174
     0
 93
       13
 44
0.0
173
     0
291
     1
 45
0.0
  0
VISUALSTYLE
  5
2C
102
{ACAD_REACTORS
330
2A
102
}
102
{ACAD_XDICTIONARY
360
65
102
}
330
2A
100
AcDbVisualStyle
  2
FlatWithEdges
 70
     1
 71
     2
 72
     1
 73
     1
 90
        2
 40
-0.6
 41
30.0
 62
     5
 63
     7
421
 16777215
 74
     1
 91
        4
 64
     7
 65
   257
 75
     1
175
     1
 42
1.0
 92
        0
 66
   257
 43
1.0
 76
     1
 77
     6
 78
     2
 67
     7
 79
     5
170
     0
171
     0
290
     0
174
     0
 93
       13
 44
0.0
173
     0
291
     1
 45
0.0
  0
VISUALSTYLE
  5
2D
102
{ACAD_REACTORS
330
2A
102
}
102
{ACAD_XDICTIONARY
360
67
102
}
330
2A
100
AcDbVisualStyle
  2
Gouraud
 70
     2
 71
     2
 72
     2
 73
     1
 90
        2
 40
-0.6
 41
30.0
 62
     5
 63
     7
421
 16777215
 74
     0
 91
        4
 64
     7
 65
   257
 75
     1
175
     1
 42
1.0
 92
        0
 66
     7
 43
1.0
 76
     1
 77
     6
 78
     2
 67
     7
 79
     5
170
     0
171
     0
290
     0
174
     0
 93
       13
 44
0.0
173
     0
291
     1
 45
0.0
  0
VISUALSTYLE
  5
2E
102
{ACAD_REACTORS
330
2A
102
}
102
{ACAD_XDICTIONARY
360
69
102
}
330
2A
100
AcDbVisualStyle
  2
GouraudWithEdges
 70
     3
 71
     2
 72
     2
 73
     1
 90
        2
 40
-0.6
 41
30.0
 62
     5
 63
     7
421
 16777215
 74
     1
 91
        4
 64
     7
 65
   257
 75
     1
175
     1
 42
1.0
 92
        0
 66
   257
 43
1.0
 76
     1
 77
     6
 78
     2
 67
     7
 79
     5
170
     0
171
     0
290
     0
174
     0
 93
       13
 44
0.0
173
     0
291
     1
 45
0.0
  0
VISUALSTYLE
  5
38
102
{ACAD_REACTORS
330
2A
102
}
102
{ACAD_XDICTIONARY
360
7D
102
}
330
2A
100
AcDbVisualStyle
  2
Linepattern
 70
    14
 71
     2
 72
     2
 73
     0
 90
        0
 40
-0.6
 41
-30.0
 62
     5
 63
     7
421
 16777215
 74
     1
 91
        4
 64
     7
 65
   257
 75
     7
175
     7
 42
1.0
 92
        8
 66
     7
 43
1.0
 76
     1
 77
     6
 78
     2
 67
     7
 79
     5
170
     0
171
     0
290
     0
174
     0
 93
        1
 44
0.0
173
     0
291
     1
 45
0.0
  0
VISUALSTYLE
  5
33
102
{ACAD_REACTORS
330
2A
102
}
102
{ACAD_XDICTIONARY
360
73
102
}
330
2A
100
AcDbVisualStyle
  2
Realistic
 70
     8
 71
     2
 72
     2
 73
     0
 90
        0
 40
-0.6
 41
-30.0
 62
     5
 63
     7
421
 16777215
 74
     1
 91
        0
 64
     7
 65
   257
 75
     1
175
     1
 42
1.0
 92
        8
 66
     8
424
  7895160
 43
1.0
 76
     1
 77
     6
 78
     2
 67
     7
 79
     5
170
     0
171
     0
290
     0
174
     0
 93
       13
 44
0.0
173
     0
291
     0
 45
0.0
  0
VISUALSTYLE
  5
37
102
{ACAD_REACTORS
330
2A
102
}
102
{ACAD_XDICTIONARY
360
7B
102
}
330
2A
100
AcDbVisualStyle
  2
Thicken
 70
    13
 71
     2
 72
     2
 73
     0
 90
        0
 40
-0.6
 41
-30.0
 62
     5
 63
     7
421
 16777215
 74
     1
 91
        4
 64
     7
 65
   257
 75
     1
175
     1
 42
1.0
 92
       12
 66
     7
 43
1.0
 76
     1
 77
     6
 78
     2
 67
     7
 79
     5
170
     0
171
     0
290
     0
174
     0
 93
        1
 44
0.0
173
     0
291
     1
 45
0.0
  0
DICTIONARY
  5
6B
330
2F
100
AcDbDictionary
280
     1
281
     1
  3
ACAD_XREC_ROUNDTRIP
360
6C
  0
DICTIONARY
  5
6F
330
31
100
AcDbDictionary
280
     1
281
     1
  3
ACAD_XREC_ROUNDTRIP
360
70
  0
DICTIONARY
  5
6D
330
30
100
AcDbDictionary
280
     1
281
     1
  3
ACAD_XREC_ROUNDTRIP
360
6E
  0
DICTIONARY
  5
71
330
32
100
AcDbDictionary
280
     1
281
     1
  3
ACAD_XREC_ROUNDTRIP
360
72
  0
DICTIONARY
  5
79
330
36
100
AcDbDictionary
280
     1
281
     1
  3
ACAD_XREC_ROUNDTRIP
360
7A
  0
DICTIONARY
  5
81
330
3A
100
AcDbDictionary
280
     1
281
     1
  3
ACAD_XREC_ROUNDTRIP
360
82
  0
DICTIONARY
  5
75
330
34
100
AcDbDictionary
280
     1
281
     1
  3
ACAD_XREC_ROUNDTRIP
360
76
  0
DICTIONARY
  5
77
330
35
100
AcDbDictionary
280
     1
281
     1
  3
ACAD_XREC_ROUNDTRIP
360
78
  0
DICTIONARY
  5
7F
330
39
100
AcDbDictionary
280
     1
281
     1
  3
ACAD_XREC_ROUNDTRIP
360
80
  0
DICTIONARY
  5
63
330
2B
100
AcDbDictionary
280
     1
281
     1
  3
ACAD_XREC_ROUNDTRIP
360
64
  0
DICTIONARY
  5
65
330
2C
100
AcDbDictionary
280
     1
281
     1
  3
ACAD_XREC_ROUNDTRIP
360
66
  0
DICTIONARY
  5
67
330
2D
100
AcDbDictionary
280
     1
281
     1
  3
ACAD_XREC_ROUNDTRIP
360
68
  0
DICTIONARY
  5
69
330
2E
100
AcDbDictionary
280
     1
281
     1
  3
ACAD_XREC_ROUNDTRIP
360
6A
  0
DICTIONARY
  5
7D
330
38
100
AcDbDictionary
280
     1
281
     1
  3
ACAD_XREC_ROUNDTRIP
360
7E
  0
DICTIONARY
  5
73
330
33
100
AcDbDictionary
280
     1
281
     1
  3
ACAD_XREC_ROUNDTRIP
360
74
  0
DICTIONARY
  5
7B
330
37
100
AcDbDictionary
280
     1
281
     1
  3
ACAD_XREC_ROUNDTRIP
360
7C
  0
XRECORD
  5
6C
102
{ACAD_REACTORS
330
6B
102
}
330
6B
100
AcDbXrecord
280
     1
102
RTVSPropertyOp0
 70
     1
102
RTVSPropertyOp1
 70
     1
102
RTVSPropertyOp2
 70
     1
102
RTVSPropertyOp3
 70
     1
102
RTVSPropertyOp4
 70
     1
102
RTVSPropertyOp5
 70
     1
102
RTVSPropertyOp6
 70
     1
102
RTVSPropertyOp7
 70
     1
102
RTVSPropertyOp8
 70
     1
102
RTVSPropertyOp9
 70
     1
102
RTVSPropertyOp10
 70
     1
102
RTVSPropertyOp11
 70
     1
102
RTVSPropertyOp12
 70
     1
102
RTVSPropertyOp13
 70
     1
102
RTVSPropertyOp14
 70
     1
102
RTVSPropertyOp15
 70
     1
102
RTVSPropertyOp16
 70
     1
102
RTVSPropertyOp17
 70
     1
102
RTVSPropertyOp18
 70
     1
102
RTVSPropertyOp19
 70
     1
102
RTVSPropertyOp20
 70
     1
102
RTVSPropertyOp21
 70
     1
102
RTVSPropertyOp22
 70
     1
102
RTVSPropertyOp23
 70
     1
102
RTVSPropertyOp24
 70
     1
102
RTVSPropertyOp25
 70
     1
102
RTVSPropertyOp26
 70
     1
102
RTVSPropertyOp27
 70
     1
102
RTVSPropertyOp28
 70
     1
102
RTVSPropertyOp29
 70
     1
102
RTVSPropertyOp30
 70
     1
102
RTVSPropertyOp31
 70
     1
102
RTVSPropertyOp32
 70
     1
  0
XRECORD
  5
70
102
{ACAD_REACTORS
330
6F
102
}
330
6F
100
AcDbXrecord
280
     1
102
RTVSPropertyOp0
 70
     1
102
RTVSPropertyOp1
 70
     1
102
RTVSPropertyOp2
 70
     1
102
RTVSPropertyOp3
 70
     1
102
RTVSPropertyOp4
 70
     1
102
RTVSPropertyOp5
 70
     1
102
RTVSPropertyOp6
 70
     1
102
RTVSPropertyOp7
 70
     1
102
RTVSPropertyOp8
 70
     1
102
RTVSPropertyOp9
 70
     1
102
RTVSPropertyOp10
 70
     1
102
RTVSPropertyOp11
 70
     1
102
RTVSPropertyOp12
 70
     1
102
RTVSPropertyOp13
 70
     1
102
RTVSPropertyOp14
 70
     1
102
RTVSPropertyOp15
 70
     1
102
RTVSPropertyOp16
 70
     1
102
RTVSPropertyOp17
 70
     1
102
RTVSPropertyOp18
 70
     1
102
RTVSPropertyOp19
 70
     1
102
RTVSPropertyOp20
 70
     1
102
RTVSPropertyOp21
 70
     1
102
RTVSPropertyOp22
 70
     1
102
RTVSPropertyOp23
 70
     1
102
RTVSPropertyOp24
 70
     1
102
RTVSPropertyOp25
 70
     1
102
RTVSPropertyOp26
 70
     1
102
RTVSPropertyOp27
 70
     1
102
RTVSPropertyOp28
 70
     1
102
RTVSPropertyOp29
 70
     1
102
RTVSPropertyOp30
 70
     1
102
RTVSPropertyOp31
 70
     1
102
RTVSPropertyOp32
 70
     1
  0
XRECORD
  5
6E
102
{ACAD_REACTORS
330
6D
102
}
330
6D
100
AcDbXrecord
280
     1
102
RTVSPropertyOp0
 70
     1
102
RTVSPropertyOp1
 70
     1
102
RTVSPropertyOp2
 70
     1
102
RTVSPropertyOp3
 70
     1
102
RTVSPropertyOp4
 70
     1
102
RTVSPropertyOp5
 70
     1
102
RTVSPropertyOp6
 70
     1
102
RTVSPropertyOp7
 70
     1
102
RTVSPropertyOp8
 70
     1
102
RTVSPropertyOp9
 70
     1
102
RTVSPropertyOp10
 70
     1
102
RTVSPropertyOp11
 70
     1
102
RTVSPropertyOp12
 70
     1
102
RTVSPropertyOp13
 70
     1
102
RTVSPropertyOp14
 70
     1
102
RTVSPropertyOp15
 70
     1
102
RTVSPropertyOp16
 70
     1
102
RTVSPropertyOp17
 70
     1
102
RTVSPropertyOp18
 70
     1
102
RTVSPropertyOp19
 70
     1
102
RTVSPropertyOp20
 70
     1
102
RTVSPropertyOp21
 70
     1
102
RTVSPropertyOp22
 70
     1
102
RTVSPropertyOp23
 70
     1
102
RTVSPropertyOp24
 70
     1
102
RTVSPropertyOp25
 70
     1
102
RTVSPropertyOp26
 70
     1
102
RTVSPropertyOp27
 70
     1
102
RTVSPropertyOp28
 70
     1
102
RTVSPropertyOp29
 70
     1
102
RTVSPropertyOp30
 70
     1
102
RTVSPropertyOp31
 70
     1
102
RTVSPropertyOp32
 70
     1
  0
XRECORD
  5
72
102
{ACAD_REACTORS
330
71
102
}
330
71
100
AcDbXrecord
280
     1
102
RTVSPropertyOp0
 70
     1
102
RTVSPropertyOp1
 70
     1
102
RTVSPropertyOp2
 70
     1
102
RTVSPropertyOp3
 70
     1
102
RTVSPropertyOp4
 70
     1
102
RTVSPropertyOp5
 70
     1
102
RTVSPropertyOp6
 70
     1
102
RTVSPropertyOp7
 70
     1
102
RTVSPropertyOp8
 70
     1
102
RTVSPropertyOp9
 70
     1
102
RTVSPropertyOp10
 70
     1
102
RTVSPropertyOp11
 70
     1
102
RTVSPropertyOp12
 70
     1
102
RTVSPropertyOp13
 70
     1
102
RTVSPropertyOp14
 70
     1
102
RTVSPropertyOp15
 70
     1
102
RTVSPropertyOp16
 70
     1
102
RTVSPropertyOp17
 70
     1
102
RTVSPropertyOp18
 70
     1
102
RTVSPropertyOp19
 70
     1
102
RTVSPropertyOp20
 70
     1
102
RTVSPropertyOp21
 70
     1
102
RTVSPropertyOp22
 70
     1
102
RTVSPropertyOp23
 70
     1
102
RTVSPropertyOp24
 70
     1
102
RTVSPropertyOp25
 70
     1
102
RTVSPropertyOp26
 70
     1
102
RTVSPropertyOp27
 70
     1
102
RTVSPropertyOp28
 70
     1
102
RTVSPropertyOp29
 70
     1
102
RTVSPropertyOp30
 70
     1
102
RTVSPropertyOp31
 70
     1
102
RTVSPropertyOp32
 70
     1
  0
XRECORD
  5
7A
102
{ACAD_REACTORS
330
79
102
}
330
79
100
AcDbXrecord
280
     1
102
RTVSPropertyOp0
 70
     1
102
RTVSPropertyOp1
 70
     1
102
RTVSPropertyOp2
 70
     1
102
RTVSPropertyOp3
 70
     1
102
RTVSPropertyOp4
 70
     1
102
RTVSPropertyOp5
 70
     1
102
RTVSPropertyOp6
 70
     1
102
RTVSPropertyOp7
 70
     1
102
RTVSPropertyOp8
 70
     1
102
RTVSPropertyOp9
 70
     1
102
RTVSPropertyOp10
 70
     1
102
RTVSPropertyOp11
 70
     1
102
RTVSPropertyOp12
 70
     1
102
RTVSPropertyOp13
 70
     1
102
RTVSPropertyOp14
 70
     1
102
RTVSPropertyOp15
 70
     1
102
RTVSPropertyOp16
 70
     1
102
RTVSPropertyOp17
 70
     1
102
RTVSPropertyOp18
 70
     1
102
RTVSPropertyOp19
 70
     1
102
RTVSPropertyOp20
 70
     1
102
RTVSPropertyOp21
 70
     1
102
RTVSPropertyOp22
 70
     1
102
RTVSPropertyOp23
 70
     1
102
RTVSPropertyOp24
 70
     1
102
RTVSPropertyOp25
 70
     1
102
RTVSPropertyOp26
 70
     1
102
RTVSPropertyOp27
 70
     1
102
RTVSPropertyOp28
 70
     1
102
RTVSPropertyOp29
 70
     1
102
RTVSPropertyOp30
 70
     1
102
RTVSPropertyOp31
 70
     1
102
RTVSPropertyOp32
 70
     1
  0
XRECORD
  5
82
102
{ACAD_REACTORS
330
81
102
}
330
81
100
AcDbXrecord
280
     1
102
RTVSPropertyOp0
 70
     1
102
RTVSPropertyOp1
 70
     1
102
RTVSPropertyOp2
 70
     1
102
RTVSPropertyOp3
 70
     1
102
RTVSPropertyOp4
 70
     1
102
RTVSPropertyOp5
 70
     1
102
RTVSPropertyOp6
 70
     1
102
RTVSPropertyOp7
 70
     1
102
RTVSPropertyOp8
 70
     1
102
RTVSPropertyOp9
 70
     1
102
RTVSPropertyOp10
 70
     1
102
RTVSPropertyOp11
 70
     1
102
RTVSPropertyOp12
 70
     1
102
RTVSPropertyOp13
 70
     1
102
RTVSPropertyOp14
 70
     1
102
RTVSPropertyOp15
 70
     1
102
RTVSPropertyOp16
 70
     1
102
RTVSPropertyOp17
 70
     1
102
RTVSPropertyOp18
 70
     1
102
RTVSPropertyOp19
 70
     1
102
RTVSPropertyOp20
 70
     1
102
RTVSPropertyOp21
 70
     1
102
RTVSPropertyOp22
 70
     1
102
RTVSPropertyOp23
 70
     1
102
RTVSPropertyOp24
 70
     1
102
RTVSPropertyOp25
 70
     1
102
RTVSPropertyOp26
 70
     1
102
RTVSPropertyOp27
 70
     1
102
RTVSPropertyOp28
 70
     1
102
RTVSPropertyOp29
 70
     1
102
RTVSPropertyOp30
 70
     1
102
RTVSPropertyOp31
 70
     1
102
RTVSPropertyOp32
 70
     1
  0
XRECORD
  5
76
102
{ACAD_REACTORS
330
75
102
}
330
75
100
AcDbXrecord
280
     1
102
RTVSPropertyOp0
 70
     1
102
RTVSPropertyOp1
 70
     1
102
RTVSPropertyOp2
 70
     1
102
RTVSPropertyOp3
 70
     1
102
RTVSPropertyOp4
 70
     1
102
RTVSPropertyOp5
 70
     1
102
RTVSPropertyOp6
 70
     1
102
RTVSPropertyOp7
 70
     1
102
RTVSPropertyOp8
 70
     1
102
RTVSPropertyOp9
 70
     1
102
RTVSPropertyOp10
 70
     1
102
RTVSPropertyOp11
 70
     1
102
RTVSPropertyOp12
 70
     1
102
RTVSPropertyOp13
 70
     1
102
RTVSPropertyOp14
 70
     1
102
RTVSPropertyOp15
 70
     1
102
RTVSPropertyOp16
 70
     1
102
RTVSPropertyOp17
 70
     1
102
RTVSPropertyOp18
 70
     1
102
RTVSPropertyOp19
 70
     1
102
RTVSPropertyOp20
 70
     1
102
RTVSPropertyOp21
 70
     1
102
RTVSPropertyOp22
 70
     1
102
RTVSPropertyOp23
 70
     1
102
RTVSPropertyOp24
 70
     1
102
RTVSPropertyOp25
 70
     1
102
RTVSPropertyOp26
 70
     1
102
RTVSPropertyOp27
 70
     1
102
RTVSPropertyOp28
 70
     1
102
RTVSPropertyOp29
 70
     1
102
RTVSPropertyOp30
 70
     1
102
RTVSPropertyOp31
 70
     1
102
RTVSPropertyOp32
 70
     1
  0
XRECORD
  5
78
102
{ACAD_REACTORS
330
77
102
}
330
77
100
AcDbXrecord
280
     1
102
RTVSPropertyOp0
 70
     1
102
RTVSPropertyOp1
 70
     1
102
RTVSPropertyOp2
 70
     1
102
RTVSPropertyOp3
 70
     1
102
RTVSPropertyOp4
 70
     1
102
RTVSPropertyOp5
 70
     1
102
RTVSPropertyOp6
 70
     1
102
RTVSPropertyOp7
 70
     1
102
RTVSPropertyOp8
 70
     1
102
RTVSPropertyOp9
 70
     1
102
RTVSPropertyOp10
 70
     1
102
RTVSPropertyOp11
 70
     1
102
RTVSPropertyOp12
 70
     1
102
RTVSPropertyOp13
 70
     1
102
RTVSPropertyOp14
 70
     1
102
RTVSPropertyOp15
 70
     1
102
RTVSPropertyOp16
 70
     1
102
RTVSPropertyOp17
 70
     1
102
RTVSPropertyOp18
 70
     1
102
RTVSPropertyOp19
 70
     1
102
RTVSPropertyOp20
 70
     1
102
RTVSPropertyOp21
 70
     1
102
RTVSPropertyOp22
 70
     1
102
RTVSPropertyOp23
 70
     1
102
RTVSPropertyOp24
 70
     1
102
RTVSPropertyOp25
 70
     1
102
RTVSPropertyOp26
 70
     1
102
RTVSPropertyOp27
 70
     1
102
RTVSPropertyOp28
 70
     1
102
RTVSPropertyOp29
 70
     1
102
RTVSPropertyOp30
 70
     1
102
RTVSPropertyOp31
 70
     1
102
RTVSPropertyOp32
 70
     1
  0
XRECORD
  5
80
102
{ACAD_REACTORS
330
7F
102
}
330
7F
100
AcDbXrecord
280
     1
102
RTVSPropertyOp0
 70
     1
102
RTVSPropertyOp1
 70
     1
102
RTVSPropertyOp2
 70
     1
102
RTVSPropertyOp3
 70
     1
102
RTVSPropertyOp4
 70
     1
102
RTVSPropertyOp5
 70
     1
102
RTVSPropertyOp6
 70
     1
102
RTVSPropertyOp7
 70
     1
102
RTVSPropertyOp8
 70
     1
102
RTVSPropertyOp9
 70
     1
102
RTVSPropertyOp10
 70
     1
102
RTVSPropertyOp11
 70
     1
102
RTVSPropertyOp12
 70
     1
102
RTVSPropertyOp13
 70
     1
102
RTVSPropertyOp14
 70
     1
102
RTVSPropertyOp15
 70
     1
102
RTVSPropertyOp16
 70
     1
102
RTVSPropertyOp17
 70
     1
102
RTVSPropertyOp18
 70
     1
102
RTVSPropertyOp19
 70
     1
102
RTVSPropertyOp20
 70
     1
102
RTVSPropertyOp21
 70
     1
102
RTVSPropertyOp22
 70
     1
102
RTVSPropertyOp23
 70
     1
102
RTVSPropertyOp24
 70
     1
102
RTVSPropertyOp25
 70
     1
102
RTVSPropertyOp26
 70
     1
102
RTVSPropertyOp27
 70
     1
102
RTVSPropertyOp28
 70
     1
102
RTVSPropertyOp29
 70
     1
102
RTVSPropertyOp30
 70
     1
102
RTVSPropertyOp31
 70
     1
102
RTVSPropertyOp32
 70
     1
  0
XRECORD
  5
64
102
{ACAD_REACTORS
330
63
102
}
330
63
100
AcDbXrecord
280
     1
102
RTVSPropertyOp0
 70
     1
102
RTVSPropertyOp1
 70
     1
102
RTVSPropertyOp2
 70
     1
102
RTVSPropertyOp3
 70
     1
102
RTVSPropertyOp4
 70
     1
102
RTVSPropertyOp5
 70
     1
102
RTVSPropertyOp6
 70
     1
102
RTVSPropertyOp7
 70
     1
102
RTVSPropertyOp8
 70
     1
102
RTVSPropertyOp9
 70
     1
102
RTVSPropertyOp10
 70
     1
102
RTVSPropertyOp11
 70
     1
102
RTVSPropertyOp12
 70
     1
102
RTVSPropertyOp13
 70
     1
102
RTVSPropertyOp14
 70
     1
102
RTVSPropertyOp15
 70
     1
102
RTVSPropertyOp16
 70
     1
102
RTVSPropertyOp17
 70
     1
102
RTVSPropertyOp18
 70
     1
102
RTVSPropertyOp19
 70
     1
102
RTVSPropertyOp20
 70
     1
102
RTVSPropertyOp21
 70
     1
102
RTVSPropertyOp22
 70
     1
102
RTVSPropertyOp23
 70
     1
102
RTVSPropertyOp24
 70
     1
102
RTVSPropertyOp25
 70
     1
102
RTVSPropertyOp26
 70
     1
102
RTVSPropertyOp27
 70
     1
102
RTVSPropertyOp28
 70
     1
102
RTVSPropertyOp29
 70
     1
102
RTVSPropertyOp30
 70
     1
102
RTVSPropertyOp31
 70
     1
102
RTVSPropertyOp32
 70
     1
  0
XRECORD
  5
66
102
{ACAD_REACTORS
330
65
102
}
330
65
100
AcDbXrecord
280
     1
102
RTVSPropertyOp0
 70
     1
102
RTVSPropertyOp1
 70
     1
102
RTVSPropertyOp2
 70
     1
102
RTVSPropertyOp3
 70
     1
102
RTVSPropertyOp4
 70
     1
102
RTVSPropertyOp5
 70
     1
102
RTVSPropertyOp6
 70
     1
102
RTVSPropertyOp7
 70
     1
102
RTVSPropertyOp8
 70
     1
102
RTVSPropertyOp9
 70
     1
102
RTVSPropertyOp10
 70
     1
102
RTVSPropertyOp11
 70
     1
102
RTVSPropertyOp12
 70
     1
102
RTVSPropertyOp13
 70
     1
102
RTVSPropertyOp14
 70
     1
102
RTVSPropertyOp15
 70
     1
102
RTVSPropertyOp16
 70
     1
102
RTVSPropertyOp17
 70
     1
102
RTVSPropertyOp18
 70
     1
102
RTVSPropertyOp19
 70
     1
102
RTVSPropertyOp20
 70
     1
102
RTVSPropertyOp21
 70
     1
102
RTVSPropertyOp22
 70
     1
102
RTVSPropertyOp23
 70
     1
102
RTVSPropertyOp24
 70
     1
102
RTVSPropertyOp25
 70
     1
102
RTVSPropertyOp26
 70
     1
102
RTVSPropertyOp27
 70
     1
102
RTVSPropertyOp28
 70
     1
102
RTVSPropertyOp29
 70
     1
102
RTVSPropertyOp30
 70
     1
102
RTVSPropertyOp31
 70
     1
102
RTVSPropertyOp32
 70
     1
  0
XRECORD
  5
68
102
{ACAD_REACTORS
330
67
102
}
330
67
100
AcDbXrecord
280
     1
102
RTVSPropertyOp0
 70
     1
102
RTVSPropertyOp1
 70
     1
102
RTVSPropertyOp2
 70
     1
102
RTVSPropertyOp3
 70
     1
102
RTVSPropertyOp4
 70
     1
102
RTVSPropertyOp5
 70
     1
102
RTVSPropertyOp6
 70
     1
102
RTVSPropertyOp7
 70
     1
102
RTVSPropertyOp8
 70
     1
102
RTVSPropertyOp9
 70
     1
102
RTVSPropertyOp10
 70
     1
102
RTVSPropertyOp11
 70
     1
102
RTVSPropertyOp12
 70
     1
102
RTVSPropertyOp13
 70
     1
102
RTVSPropertyOp14
 70
     1
102
RTVSPropertyOp15
 70
     1
102
RTVSPropertyOp16
 70
     1
102
RTVSPropertyOp17
 70
     1
102
RTVSPropertyOp18
 70
     1
102
RTVSPropertyOp19
 70
     1
102
RTVSPropertyOp20
 70
     1
102
RTVSPropertyOp21
 70
     1
102
RTVSPropertyOp22
 70
     1
102
RTVSPropertyOp23
 70
     1
102
RTVSPropertyOp24
 70
     1
102
RTVSPropertyOp25
 70
     1
102
RTVSPropertyOp26
 70
     1
102
RTVSPropertyOp27
 70
     1
102
RTVSPropertyOp28
 70
     1
102
RTVSPropertyOp29
 70
     1
102
RTVSPropertyOp30
 70
     1
102
RTVSPropertyOp31
 70
     1
102
RTVSPropertyOp32
 70
     1
  0
XRECORD
  5
6A
102
{ACAD_REACTORS
330
69
102
}
330
69
100
AcDbXrecord
280
     1
102
RTVSPropertyOp0
 70
     1
102
RTVSPropertyOp1
 70
     1
102
RTVSPropertyOp2
 70
     1
102
RTVSPropertyOp3
 70
     1
102
RTVSPropertyOp4
 70
     1
102
RTVSPropertyOp5
 70
     1
102
RTVSPropertyOp6
 70
     1
102
RTVSPropertyOp7
 70
     1
102
RTVSPropertyOp8
 70
     1
102
RTVSPropertyOp9
 70
     1
102
RTVSPropertyOp10
 70
     1
102
RTVSPropertyOp11
 70
     1
102
RTVSPropertyOp12
 70
     1
102
RTVSPropertyOp13
 70
     1
102
RTVSPropertyOp14
 70
     1
102
RTVSPropertyOp15
 70
     1
102
RTVSPropertyOp16
 70
     1
102
RTVSPropertyOp17
 70
     1
102
RTVSPropertyOp18
 70
     1
102
RTVSPropertyOp19
 70
     1
102
RTVSPropertyOp20
 70
     1
102
RTVSPropertyOp21
 70
     1
102
RTVSPropertyOp22
 70
     1
102
RTVSPropertyOp23
 70
     1
102
RTVSPropertyOp24
 70
     1
102
RTVSPropertyOp25
 70
     1
102
RTVSPropertyOp26
 70
     1
102
RTVSPropertyOp27
 70
     1
102
RTVSPropertyOp28
 70
     1
102
RTVSPropertyOp29
 70
     1
102
RTVSPropertyOp30
 70
     1
102
RTVSPropertyOp31
 70
     1
102
RTVSPropertyOp32
 70
     1
  0
XRECORD
  5
7E
102
{ACAD_REACTORS
330
7D
102
}
330
7D
100
AcDbXrecord
280
     1
102
RTVSPropertyOp0
 70
     1
102
RTVSPropertyOp1
 70
     1
102
RTVSPropertyOp2
 70
     1
102
RTVSPropertyOp3
 70
     1
102
RTVSPropertyOp4
 70
     1
102
RTVSPropertyOp5
 70
     1
102
RTVSPropertyOp6
 70
     1
102
RTVSPropertyOp7
 70
     1
102
RTVSPropertyOp8
 70
     1
102
RTVSPropertyOp9
 70
     1
102
RTVSPropertyOp10
 70
     1
102
RTVSPropertyOp11
 70
     1
102
RTVSPropertyOp12
 70
     1
102
RTVSPropertyOp13
 70
     1
102
RTVSPropertyOp14
 70
     1
102
RTVSPropertyOp15
 70
     1
102
RTVSPropertyOp16
 70
     1
102
RTVSPropertyOp17
 70
     1
102
RTVSPropertyOp18
 70
     1
102
RTVSPropertyOp19
 70
     1
102
RTVSPropertyOp20
 70
     1
102
RTVSPropertyOp21
 70
     1
102
RTVSPropertyOp22
 70
     1
102
RTVSPropertyOp23
 70
     1
102
RTVSPropertyOp24
 70
     1
102
RTVSPropertyOp25
 70
     1
102
RTVSPropertyOp26
 70
     1
102
RTVSPropertyOp27
 70
     1
102
RTVSPropertyOp28
 70
     1
102
RTVSPropertyOp29
 70
     1
102
RTVSPropertyOp30
 70
     1
102
RTVSPropertyOp31
 70
     1
102
RTVSPropertyOp32
 70
     1
  0
XRECORD
  5
74
102
{ACAD_REACTORS
330
73
102
}
330
73
100
AcDbXrecord
280
     1
102
RTVSPropertyOp0
 70
     1
102
RTVSPropertyOp1
 70
     1
102
RTVSPropertyOp2
 70
     1
102
RTVSPropertyOp3
 70
     1
102
RTVSPropertyOp4
 70
     1
102
RTVSPropertyOp5
 70
     1
102
RTVSPropertyOp6
 70
     1
102
RTVSPropertyOp7
 70
     1
102
RTVSPropertyOp8
 70
     1
102
RTVSPropertyOp9
 70
     1
102
RTVSPropertyOp10
 70
     1
102
RTVSPropertyOp11
 70
     1
102
RTVSPropertyOp12
 70
     1
102
RTVSPropertyOp13
 70
     1
102
RTVSPropertyOp14
 70
     1
102
RTVSPropertyOp15
 70
     1
102
RTVSPropertyOp16
 70
     1
102
RTVSPropertyOp17
 70
     1
102
RTVSPropertyOp18
 70
     1
102
RTVSPropertyOp19
 70
     1
102
RTVSPropertyOp20
 70
     1
102
RTVSPropertyOp21
 70
     1
102
RTVSPropertyOp22
 70
     1
102
RTVSPropertyOp23
 70
     1
102
RTVSPropertyOp24
 70
     1
102
RTVSPropertyOp25
 70
     1
102
RTVSPropertyOp26
 70
     1
102
RTVSPropertyOp27
 70
     1
102
RTVSPropertyOp28
 70
     1
102
RTVSPropertyOp29
 70
     1
102
RTVSPropertyOp30
 70
     1
102
RTVSPropertyOp31
 70
     1
102
RTVSPropertyOp32
 70
     1
  0
XRECORD
  5
7C
102
{ACAD_REACTORS
330
7B
102
}
330
7B
100
AcDbXrecord
280
     1
102
RTVSPropertyOp0
 70
     1
102
RTVSPropertyOp1
 70
     1
102
RTVSPropertyOp2
 70
     1
102
RTVSPropertyOp3
 70
     1
102
RTVSPropertyOp4
 70
     1
102
RTVSPropertyOp5
 70
     1
102
RTVSPropertyOp6
 70
     1
102
RTVSPropertyOp7
 70
     1
102
RTVSPropertyOp8
 70
     1
102
RTVSPropertyOp9
 70
     1
102
RTVSPropertyOp10
 70
     1
102
RTVSPropertyOp11
 70
     1
102
RTVSPropertyOp12
 70
     1
102
RTVSPropertyOp13
 70
     1
102
RTVSPropertyOp14
 70
     1
102
RTVSPropertyOp15
 70
     1
102
RTVSPropertyOp16
 70
     1
102
RTVSPropertyOp17
 70
     1
102
RTVSPropertyOp18
 70
     1
102
RTVSPropertyOp19
 70
     1
102
RTVSPropertyOp20
 70
     1
102
RTVSPropertyOp21
 70
     1
102
RTVSPropertyOp22
 70
     1
102
RTVSPropertyOp23
 70
     1
102
RTVSPropertyOp24
 70
     1
102
RTVSPropertyOp25
 70
     1
102
RTVSPropertyOp26
 70
     1
102
RTVSPropertyOp27
 70
     1
102
RTVSPropertyOp28
 70
     1
102
RTVSPropertyOp29
 70
     1
102
RTVSPropertyOp30
 70
     1
102
RTVSPropertyOp31
 70
     1
102
RTVSPropertyOp32
 70
     1
  0
ENDSEC
  0
EOF
