<?xml version="1.0" encoding="UTF-8"?>
<!DOCTYPE svg PUBLIC "-//W3C//DTD SVG 1.1//EN" "http://www.w3.org/Graphics/SVG/1.1/DTD/svg11.dtd">
<!-- Creator: CorelDRAW X6 -->
<svg xmlns="http://www.w3.org/2000/svg" xml:space="preserve" width="200mm" height="200mm" version="1.1" shape-rendering="geometricPrecision" text-rendering="geometricPrecision" image-rendering="optimizeQuality" fill-rule="evenodd" clip-rule="evenodd"
viewBox="0 0 20000 20000"
 xmlns:xlink="http://www.w3.org/1999/xlink">
 <g id="Layer_x0020_1">
  <metadata id="CorelCorpID_0Corel-Layer"/>
  <g id="_870498400">
   <circle fill="none" stroke="black" stroke-width="52.92" stroke-linecap="round" stroke-linejoin="round" transform="matrix(1.50148E-014 -0.566926 0.566926 1.50148E-014 9750 8750)" r="529"/>
   <circle fill="none" stroke="black" stroke-width="52.92" stroke-linecap="round" stroke-linejoin="round" transform="matrix(1.50148E-014 -0.566926 0.566926 1.50148E-014 11250 8750)" r="529"/>
   <path fill="none" fill-rule="nonzero" stroke="blue" stroke-width="52.92" stroke-linecap="round" stroke-linejoin="round" d="M9282 12830c0,94 -76,170 -170,170 -94,0 -170,-76 -170,-170 0,-94 76,-170 170,-170 94,0 170,76 170,170"/>
   <path fill="none" fill-rule="nonzero" stroke="blue" stroke-width="52.92" stroke-linecap="round" stroke-linejoin="round" d="M8473 12830c0,94 -76,170 -170,170 -94,0 -170,-76 -170,-170 0,-94 76,-170 170,-170 94,0 170,76 170,170"/>
   <path fill="none" fill-rule="nonzero" stroke="blue" stroke-width="52.92" stroke-linecap="round" stroke-linejoin="round" d="M7670 12830c0,94 -76,170 -170,170 -94,0 -170,-76 -170,-170 0,-94 76,-170 170,-170 94,0 170,76 170,170"/>
   <path fill="none" fill-rule="nonzero" stroke="blue" stroke-width="52.92" stroke-linecap="round" stroke-linejoin="round" d="M6296 12829c0,-218 176,-394 394,-394 218,0 394,176 405,394 10,-217 187,-394 405,-394 218,0 394,176 402,394 8,-218 184,-394 402,-394 218,0 394,176 405,394 10,-217 187,-394 405,-394 218,0 394,176 394,394"/>
   <path fill="none" fill-rule="nonzero" stroke="blue" stroke-width="52.92" stroke-linecap="round" stroke-linejoin="round" d="M6861 12829c0,94 -76,170 -170,170 -94,0 -170,-76 -170,-170 0,-94 76,-170 170,-170 94,0 170,76 170,170"/>
   <line fill="none" fill-rule="nonzero" stroke="blue" stroke-width="52.92" stroke-linecap="round" stroke-linejoin="round" x1="8206" y1="9650" x2="9177" y2= "9650" />
   <line fill="none" fill-rule="nonzero" stroke="blue" stroke-width="52.92" stroke-linecap="round" stroke-linejoin="round" x1="8492" y1="12208" x2="6263" y2= "12208" />
   <line fill="none" fill-rule="nonzero" stroke="blue" stroke-width="52.92" stroke-linecap="round" stroke-linejoin="round" x1="7433" y1="10708" x2="9551" y2= "10708" />
   <line fill="none" fill-rule="nonzero" stroke="blue" stroke-width="52.92" stroke-linecap="round" stroke-linejoin="round" x1="9551" y1="11480" x2="8829" y2= "11480" />
   <path fill="none" fill-rule="nonzero" stroke="blue" stroke-width="52.92" stroke-linecap="round" stroke-linejoin="round" d="M8829 11480c-187,0 -338,151 -338,338"/>
   <polyline fill="none" fill-rule="nonzero" stroke="blue" stroke-width="52.92" stroke-linecap="round" stroke-linejoin="round" points="8492,11818 8492,12208 9551,12208 9551,11480 "/>
   <line fill="none" fill-rule="nonzero" stroke="blue" stroke-width="52.92" stroke-linecap="round" stroke-linejoin="round" x1="7433" y1="10025" x2="9551" y2= "10025" />
   <line fill="none" fill-rule="nonzero" stroke="blue" stroke-width="52.92" stroke-linecap="round" stroke-linejoin="round" x1="10933" y1="12194" x2="13162" y2= "12194" />
   <line fill="none" fill-rule="nonzero" stroke="blue" stroke-width="52.92" stroke-linecap="round" stroke-linejoin="round" x1="11992" y1="10694" x2="9874" y2= "10694" />
   <line fill="none" fill-rule="nonzero" stroke="blue" stroke-width="52.92" stroke-linecap="round" stroke-linejoin="round" x1="9874" y1="11466" x2="10595" y2= "11466" />
   <path fill="none" fill-rule="nonzero" stroke="blue" stroke-width="52.92" stroke-linecap="round" stroke-linejoin="round" d="M10595 11466c187,0 338,151 338,338"/>
   <polyline fill="none" fill-rule="nonzero" stroke="blue" stroke-width="52.92" stroke-linecap="round" stroke-linejoin="round" points="10933,11804 10933,12194 9874,12194 9874,11466 "/>
   <line fill="none" fill-rule="nonzero" stroke="blue" stroke-width="52.92" stroke-linecap="round" stroke-linejoin="round" x1="11992" y1="10011" x2="9874" y2= "10011" />
   <line fill="none" stroke="blue" stroke-width="52.92" stroke-linecap="round" stroke-linejoin="round" x1="10347" y1="9635" x2="11317" y2= "9638" />
   <path fill="none" stroke="black" stroke-width="52.92" stroke-linecap="round" stroke-linejoin="round" d="M11450 9450l-133 0 0 188 300 -3c207,0 375,168 375,375l0 683 420 0c414,0 750,336 750,750l0 750 4 234 -50 0 0 401c0,218 -176,394 -394,394 -218,0 -394,-176 -405,-394 -11,217 -187,394 -405,394 -218,0 -394,-176 -402,-394 -8,218 -184,394 -402,394 -218,0 -394,-176 -405,-394 -10,217 -187,394 -405,394 -218,0 -394,-176 -394,-394l0 -393 -28 0 -5 -2425c0,-206 166,-373 371,-375l102 -1 0 -185 -1168 0 0 200c206,2 371,169 371,375l0 2183 0 227 -45 0 0 395c0,218 -176,394 -394,394 -218,0 -394,-176 -405,-394 -11,217 -187,394 -405,394 -218,0 -394,-176 -402,-394 -8,218 -184,394 -402,394 -218,0 -394,-176 -405,-394 -10,217 -187,394 -405,394 -218,0 -394,-176 -394,-394l0 -394 -35 0 1 -227 0 -750c0,-414 336,-750 750,-750l420 0 0 -683c0,-207 168,-375 375,-375l397 0 0 -200 -154 0c-276,0 -500,-224 -500,-500l0 -400c0,-276 224,-500 500,-500l3400 0c276,0 500,224 500,500l0 400c0,276 -224,500 -500,500z"/>
   <line fill="none" stroke="blue" stroke-width="52.92" stroke-linecap="round" stroke-linejoin="round" x1="6296" y1="12436" x2="9506" y2= "12436" />
   <line fill="none" stroke="blue" stroke-width="52.92" stroke-linecap="round" stroke-linejoin="round" x1="9907" y1="12436" x2="13116" y2= "12428" />
   <path fill="none" fill-rule="nonzero" stroke="blue" stroke-width="52.92" stroke-linecap="round" stroke-linejoin="round" d="M12893 12830c0,94 -76,170 -170,170 -94,0 -170,-76 -170,-170 0,-94 76,-170 170,-170 94,0 170,76 170,170"/>
   <path fill="none" fill-rule="nonzero" stroke="blue" stroke-width="52.92" stroke-linecap="round" stroke-linejoin="round" d="M12084 12829c0,94 -76,170 -170,170 -94,0 -170,-76 -170,-170 0,-94 76,-170 170,-170 94,0 170,76 170,170"/>
   <path fill="none" fill-rule="nonzero" stroke="blue" stroke-width="52.92" stroke-linecap="round" stroke-linejoin="round" d="M11280 12830c0,94 -76,170 -170,170 -94,0 -170,-76 -170,-170 0,-94 76,-170 170,-170 94,0 170,76 170,170"/>
   <path fill="none" fill-rule="nonzero" stroke="blue" stroke-width="52.92" stroke-linecap="round" stroke-linejoin="round" d="M9907 12829c0,-218 176,-394 394,-394 218,0 394,176 405,394 10,-217 187,-394 405,-394 218,0 394,176 402,394 8,-218 184,-394 402,-394 218,0 394,176 405,394 10,-217 187,-394 405,-394 218,0 394,176 394,394"/>
   <path fill="none" fill-rule="nonzero" stroke="blue" stroke-width="52.92" stroke-linecap="round" stroke-linejoin="round" d="M10471 12829c0,94 -76,170 -170,170 -94,0 -170,-76 -170,-170 0,-94 76,-170 170,-170 94,0 170,76 170,170"/>
   <circle fill="none" stroke="black" stroke-width="52.92" stroke-linecap="round" stroke-linejoin="round" transform="matrix(1.50148E-014 -0.566926 0.566926 1.50148E-014 8250 8750)" r="529"/>
  </g>
  <circle fill="none" stroke="black" stroke-width="52.92" stroke-linecap="round" stroke-linejoin="round" transform="matrix(7.50738E-015 -0.283463 0.283463 7.50738E-015 9000 8750)" r="529"/>
  <circle fill="none" stroke="black" stroke-width="52.92" stroke-linecap="round" stroke-linejoin="round" transform="matrix(7.50738E-015 -0.283463 0.283463 7.50738E-015 10500 8750)" r="529"/>
 </g>
</svg>
