<?xml version="1.0" encoding="UTF-8"?>
<!DOCTYPE svg PUBLIC "-//W3C//DTD SVG 1.1//EN" "http://www.w3.org/Graphics/SVG/1.1/DTD/svg11.dtd">
<!-- Creator: CorelDRAW X6 -->
<svg xmlns="http://www.w3.org/2000/svg" xml:space="preserve" width="200mm" height="200mm" version="1.1" shape-rendering="geometricPrecision" text-rendering="geometricPrecision" image-rendering="optimizeQuality" fill-rule="evenodd" clip-rule="evenodd"
viewBox="0 0 20000 20000"
 xmlns:xlink="http://www.w3.org/1999/xlink">
 <g id="Layer_x0020_1">
  <metadata id="CorelCorpID_0Corel-Layer"/>
  <g id="_879211840">
   <circle fill="none" stroke="black" stroke-width="52.92" stroke-linecap="round" stroke-linejoin="round" transform="matrix(1.6266E-014 -0.614169 0.614169 1.6266E-014 0.02 20000)" r="529"/>
   <circle fill="none" stroke="black" stroke-width="52.92" stroke-linecap="round" stroke-linejoin="round" transform="matrix(1.6266E-014 -0.614169 0.614169 1.6266E-014 1500.02 20000)" r="529"/>
   <path fill="none" fill-rule="nonzero" stroke="blue" stroke-width="52.92" stroke-linecap="round" stroke-linejoin="round" d="M-468 24080c0,94 -76,170 -170,170 -94,0 -170,-76 -170,-170 0,-94 76,-170 170,-170 94,0 170,76 170,170"/>
   <path fill="none" fill-rule="nonzero" stroke="blue" stroke-width="52.92" stroke-linecap="round" stroke-linejoin="round" d="M-1277 24080c0,94 -76,170 -170,170 -94,0 -170,-76 -170,-170 0,-94 76,-170 170,-170 94,0 170,76 170,170"/>
   <path fill="none" fill-rule="nonzero" stroke="blue" stroke-width="52.92" stroke-linecap="round" stroke-linejoin="round" d="M-2080 24080c0,94 -76,170 -170,170 -94,0 -170,-76 -170,-170 0,-94 76,-170 170,-170 94,0 170,76 170,170"/>
   <path fill="none" fill-rule="nonzero" stroke="blue" stroke-width="52.92" stroke-linecap="round" stroke-linejoin="round" d="M-3454 24079c0,-218 176,-394 394,-394 218,0 394,176 405,394 10,-217 187,-394 405,-394 218,0 394,176 402,394 8,-218 184,-394 402,-394 218,0 394,176 405,394 10,-217 187,-394 405,-394 218,0 394,176 394,394"/>
   <path fill="none" fill-rule="nonzero" stroke="blue" stroke-width="52.92" stroke-linecap="round" stroke-linejoin="round" d="M-2889 24079c0,94 -76,170 -170,170 -94,0 -170,-76 -170,-170 0,-94 76,-170 170,-170 94,0 170,76 170,170"/>
   <line fill="none" fill-rule="nonzero" stroke="blue" stroke-width="52.92" stroke-linecap="round" stroke-linejoin="round" x1="-1544" y1="20900" x2="-573" y2= "20900" />
   <line fill="none" fill-rule="nonzero" stroke="blue" stroke-width="52.92" stroke-linecap="round" stroke-linejoin="round" x1="-1258" y1="23458" x2="-3487" y2= "23458" />
   <line fill="none" fill-rule="nonzero" stroke="blue" stroke-width="52.92" stroke-linecap="round" stroke-linejoin="round" x1="-2317" y1="21958" x2="-199" y2= "21958" />
   <line fill="none" fill-rule="nonzero" stroke="blue" stroke-width="52.92" stroke-linecap="round" stroke-linejoin="round" x1="-199" y1="22730" x2="-921" y2= "22730" />
   <path fill="none" fill-rule="nonzero" stroke="blue" stroke-width="52.92" stroke-linecap="round" stroke-linejoin="round" d="M-921 22730c-187,0 -338,151 -338,338"/>
   <polyline fill="none" fill-rule="nonzero" stroke="blue" stroke-width="52.92" stroke-linecap="round" stroke-linejoin="round" points="-1258,23068 -1258,23458 -199,23458 -199,22730 "/>
   <line fill="none" fill-rule="nonzero" stroke="blue" stroke-width="52.92" stroke-linecap="round" stroke-linejoin="round" x1="-2317" y1="21275" x2="-199" y2= "21275" />
   <line fill="none" fill-rule="nonzero" stroke="blue" stroke-width="52.92" stroke-linecap="round" stroke-linejoin="round" x1="1183" y1="23444" x2="3412" y2= "23444" />
   <line fill="none" fill-rule="nonzero" stroke="blue" stroke-width="52.92" stroke-linecap="round" stroke-linejoin="round" x1="2242" y1="21944" x2="124" y2= "21944" />
   <line fill="none" fill-rule="nonzero" stroke="blue" stroke-width="52.92" stroke-linecap="round" stroke-linejoin="round" x1="124" y1="22716" x2="845" y2= "22716" />
   <path fill="none" fill-rule="nonzero" stroke="blue" stroke-width="52.92" stroke-linecap="round" stroke-linejoin="round" d="M845 22716c187,0 338,151 338,338"/>
   <polyline fill="none" fill-rule="nonzero" stroke="blue" stroke-width="52.92" stroke-linecap="round" stroke-linejoin="round" points="1183,23054 1183,23444 124,23444 124,22716 "/>
   <line fill="none" fill-rule="nonzero" stroke="blue" stroke-width="52.92" stroke-linecap="round" stroke-linejoin="round" x1="2242" y1="21261" x2="124" y2= "21261" />
   <line fill="none" stroke="blue" stroke-width="52.92" stroke-linecap="round" stroke-linejoin="round" x1="597" y1="20885" x2="1567" y2= "20888" />
   <path fill="none" stroke="black" stroke-width="52.92" stroke-linecap="round" stroke-linejoin="round" d="M1700 20700l-133 0 0 188 300 -3c207,0 375,168 375,375l0 683 420 0c414,0 750,336 750,750l0 750 4 234 -50 0 0 401c0,218 -176,394 -394,394 -218,0 -394,-176 -405,-394 -11,217 -187,394 -405,394 -218,0 -394,-176 -402,-394 -8,218 -184,394 -402,394 -218,0 -394,-176 -405,-394 -10,217 -187,394 -405,394 -218,0 -394,-176 -394,-394l0 -393 -28 0 -5 -2425c0,-206 166,-373 371,-375l102 -1 0 -185 -1168 0 0 200c206,2 371,169 371,375l0 2183 0 227 -45 0 0 395c0,218 -176,394 -394,394 -218,0 -394,-176 -405,-394 -11,217 -187,394 -405,394 -218,0 -394,-176 -402,-394 -8,218 -184,394 -402,394 -218,0 -394,-176 -405,-394 -10,217 -187,394 -405,394 -218,0 -394,-176 -394,-394l0 -394 -35 0 1 -227 0 -750c0,-414 336,-750 750,-750l420 0 0 -683c0,-207 168,-375 375,-375l397 0 0 -200 -154 0c-276,0 -500,-224 -500,-500l0 -400c0,-276 224,-500 500,-500l3400 0c276,0 500,224 500,500l0 400c0,276 -224,500 -500,500z"/>
   <line fill="none" stroke="blue" stroke-width="52.92" stroke-linecap="round" stroke-linejoin="round" x1="-3454" y1="23685" x2="-244" y2= "23685" />
   <line fill="none" stroke="blue" stroke-width="52.92" stroke-linecap="round" stroke-linejoin="round" x1="157" y1="23686" x2="3366" y2= "23678" />
   <path fill="none" fill-rule="nonzero" stroke="blue" stroke-width="52.92" stroke-linecap="round" stroke-linejoin="round" d="M3143 24080c0,94 -76,170 -170,170 -94,0 -170,-76 -170,-170 0,-94 76,-170 170,-170 94,0 170,76 170,170"/>
   <path fill="none" fill-rule="nonzero" stroke="blue" stroke-width="52.92" stroke-linecap="round" stroke-linejoin="round" d="M2334 24079c0,94 -76,170 -170,170 -94,0 -170,-76 -170,-170 0,-94 76,-170 170,-170 94,0 170,76 170,170"/>
   <path fill="none" fill-rule="nonzero" stroke="blue" stroke-width="52.92" stroke-linecap="round" stroke-linejoin="round" d="M1530 24079c0,94 -76,170 -170,170 -94,0 -170,-76 -170,-170 0,-94 76,-170 170,-170 94,0 170,76 170,170"/>
   <path fill="none" fill-rule="nonzero" stroke="blue" stroke-width="52.92" stroke-linecap="round" stroke-linejoin="round" d="M157 24079c0,-218 176,-394 394,-394 218,0 394,176 405,394 10,-217 187,-394 405,-394 218,0 394,176 402,394 8,-218 184,-394 402,-394 218,0 394,176 405,394 10,-217 187,-394 405,-394 218,0 394,176 394,394"/>
   <path fill="none" fill-rule="nonzero" stroke="blue" stroke-width="52.92" stroke-linecap="round" stroke-linejoin="round" d="M721 24079c0,94 -76,170 -170,170 -94,0 -170,-76 -170,-170 0,-94 76,-170 170,-170 94,0 170,76 170,170"/>
   <circle fill="none" stroke="black" stroke-width="52.92" stroke-linecap="round" stroke-linejoin="round" transform="matrix(1.6266E-014 -0.614169 0.614169 1.6266E-014 -1499.98 20000)" r="529"/>
  </g>
  <circle fill="none" stroke="black" stroke-width="52.92" stroke-linecap="round" stroke-linejoin="round" transform="matrix(9.00886E-015 -0.340155 0.340155 9.00886E-015 -749.98 20000)" r="529"/>
  <circle fill="none" stroke="black" stroke-width="52.92" stroke-linecap="round" stroke-linejoin="round" transform="matrix(9.00886E-015 -0.340155 0.340155 9.00886E-015 750.02 20000)" r="529"/>
 </g>
</svg>
