  0
SECTION
  2
HEADER
  9
$ACADVER
  1
AC1021
  9
$ACADMAINTVER
 70
    25
  9
$DWGCODEPAGE
  3
ANSI_1252
  9
$INSBASE
 10
0.0
 20
0.0
 30
0.0
  9
$EXTMIN
 10
-13.51516
 20
-14.5009
 30
0.0
  9
$EXTMAX
 10
-6.55764
 20
-9.2735
 30
0.0
  9
$LIMMIN
 10
0.0
 20
0.0
  9
$LIMMAX
 10
12.0
 20
9.0
  9
$ORTHOMODE
 70
     0
  9
$REGENMODE
 70
     1
  9
$FILLMODE
 70
     1
  9
$QTEXTMODE
 70
     0
  9
$MIRRTEXT
 70
     1
  9
$LTSCALE
 40
1.0
  9
$ATTMODE
 70
     1
  9
$TEXTSIZE
 40
0.2
  9
$TRACEWID
 40
0.05
  9
$TEXTSTYLE
  7
Standard
  9
$CLAYER
  8
0
  9
$CELTYPE
  6
ByLayer
  9
$CECOLOR
 62
   256
  9
$CELTSCALE
 40
1.0
  9
$DISPSILH
 70
     0
  9
$DIMSCALE
 40
1.0
  9
$DIMASZ
 40
0.18
  9
$DIMEXO
 40
0.0625
  9
$DIMDLI
 40
0.38
  9
$DIMRND
 40
0.0
  9
$DIMDLE
 40
0.0
  9
$DIMEXE
 40
0.18
  9
$DIMTP
 40
0.0
  9
$DIMTM
 40
0.0
  9
$DIMTXT
 40
0.18
  9
$DIMCEN
 40
0.09
  9
$DIMTSZ
 40
0.0
  9
$DIMTOL
 70
     0
  9
$DIMLIM
 70
     0
  9
$DIMTIH
 70
     1
  9
$DIMTOH
 70
     1
  9
$DIMSE1
 70
     0
  9
$DIMSE2
 70
     0
  9
$DIMTAD
 70
     0
  9
$DIMZIN
 70
     0
  9
$DIMBLK
  1

  9
$DIMASO
 70
     1
  9
$DIMSHO
 70
     1
  9
$DIMPOST
  1

  9
$DIMAPOST
  1

  9
$DIMALT
 70
     0
  9
$DIMALTD
 70
     2
  9
$DIMALTF
 40
25.4
  9
$DIMLFAC
 40
1.0
  9
$DIMTOFL
 70
     0
  9
$DIMTVP
 40
0.0
  9
$DIMTIX
 70
     0
  9
$DIMSOXD
 70
     0
  9
$DIMSAH
 70
     0
  9
$DIMBLK1
  1

  9
$DIMBLK2
  1

  9
$DIMSTYLE
  2
Standard
  9
$DIMCLRD
 70
     0
  9
$DIMCLRE
 70
     0
  9
$DIMCLRT
 70
     0
  9
$DIMTFAC
 40
1.0
  9
$DIMGAP
 40
0.09
  9
$DIMJUST
 70
     0
  9
$DIMSD1
 70
     0
  9
$DIMSD2
 70
     0
  9
$DIMTOLJ
 70
     1
  9
$DIMTZIN
 70
     0
  9
$DIMALTZ
 70
     0
  9
$DIMALTTZ
 70
     0
  9
$DIMUPT
 70
     0
  9
$DIMDEC
 70
     4
  9
$DIMTDEC
 70
     4
  9
$DIMALTU
 70
     2
  9
$DIMALTTD
 70
     2
  9
$DIMTXSTY
  7
Standard
  9
$DIMAUNIT
 70
     0
  9
$DIMADEC
 70
     0
  9
$DIMALTRND
 40
0.0
  9
$DIMAZIN
 70
     0
  9
$DIMDSEP
 70
    46
  9
$DIMATFIT
 70
     3
  9
$DIMFRAC
 70
     0
  9
$DIMLDRBLK
  1

  9
$DIMLUNIT
 70
     2
  9
$DIMLWD
 70
    -2
  9
$DIMLWE
 70
    -2
  9
$DIMTMOVE
 70
     0
  9
$DIMFXL
 40
1.0
  9
$DIMFXLON
 70
     0
  9
$DIMJOGANG
 40
0.7853981633974483
  9
$DIMTFILL
 70
     0
  9
$DIMTFILLCLR
 70
     0
  9
$DIMARCSYM
 70
     0
  9
$DIMLTYPE
  6

  9
$DIMLTEX1
  6

  9
$DIMLTEX2
  6

  9
$LUNITS
 70
     2
  9
$LUPREC
 70
     4
  9
$SKETCHINC
 40
0.1
  9
$FILLETRAD
 40
0.5
  9
$AUNITS
 70
     0
  9
$AUPREC
 70
     0
  9
$MENU
  1
.
  9
$ELEVATION
 40
0.0
  9
$PELEVATION
 40
0.0
  9
$THICKNESS
 40
0.0
  9
$LIMCHECK
 70
     0
  9
$CHAMFERA
 40
0.5
  9
$CHAMFERB
 40
0.5
  9
$CHAMFERC
 40
1.0
  9
$CHAMFERD
 40
0.0
  9
$SKPOLY
 70
     0
  9
$TDCREATE
 40
2460554.974285336
  9
$TDUCREATE
 40
2460554.932618669
  9
$TDUPDATE
 40
2460554.974285393
  9
$TDUUPDATE
 40
2460554.932618727
  9
$TDINDWG
 40
0.0000000116
  9
$TDUSRTIMER
 40
0.0000000116
  9
$USRTIMER
 70
     1
  9
$ANGBASE
 50
0.0
  9
$ANGDIR
 70
     0
  9
$PDMODE
 70
     0
  9
$PDSIZE
 40
0.0
  9
$PLINEWID
 40
0.0
  9
$SPLFRAME
 70
     0
  9
$SPLINETYPE
 70
     6
  9
$SPLINESEGS
 70
     8
  9
$HANDSEED
  5
83
  9
$SURFTAB1
 70
     6
  9
$SURFTAB2
 70
     6
  9
$SURFTYPE
 70
     6
  9
$SURFU
 70
     6
  9
$SURFV
 70
     6
  9
$UCSBASE
  2

  9
$UCSNAME
  2

  9
$UCSORG
 10
0.0
 20
0.0
 30
0.0
  9
$UCSXDIR
 10
1.0
 20
0.0
 30
0.0
  9
$UCSYDIR
 10
0.0
 20
1.0
 30
0.0
  9
$UCSORTHOREF
  2

  9
$UCSORTHOVIEW
 70
     0
  9
$UCSORGTOP
 10
0.0
 20
0.0
 30
0.0
  9
$UCSORGBOTTOM
 10
0.0
 20
0.0
 30
0.0
  9
$UCSORGLEFT
 10
0.0
 20
0.0
 30
0.0
  9
$UCSORGRIGHT
 10
0.0
 20
0.0
 30
0.0
  9
$UCSORGFRONT
 10
0.0
 20
0.0
 30
0.0
  9
$UCSORGBACK
 10
0.0
 20
0.0
 30
0.0
  9
$PUCSBASE
  2

  9
$PUCSNAME
  2

  9
$PUCSORG
 10
0.0
 20
0.0
 30
0.0
  9
$PUCSXDIR
 10
1.0
 20
0.0
 30
0.0
  9
$PUCSYDIR
 10
0.0
 20
1.0
 30
0.0
  9
$PUCSORTHOREF
  2

  9
$PUCSORTHOVIEW
 70
     0
  9
$PUCSORGTOP
 10
0.0
 20
0.0
 30
0.0
  9
$PUCSORGBOTTOM
 10
0.0
 20
0.0
 30
0.0
  9
$PUCSORGLEFT
 10
0.0
 20
0.0
 30
0.0
  9
$PUCSORGRIGHT
 10
0.0
 20
0.0
 30
0.0
  9
$PUCSORGFRONT
 10
0.0
 20
0.0
 30
0.0
  9
$PUCSORGBACK
 10
0.0
 20
0.0
 30
0.0
  9
$USERI1
 70
     0
  9
$USERI2
 70
     0
  9
$USERI3
 70
     0
  9
$USERI4
 70
     0
  9
$USERI5
 70
     0
  9
$USERR1
 40
0.0
  9
$USERR2
 40
0.0
  9
$USERR3
 40
0.0
  9
$USERR4
 40
0.0
  9
$USERR5
 40
0.0
  9
$WORLDVIEW
 70
     1
  9
$SHADEDGE
 70
     3
  9
$SHADEDIF
 70
    70
  9
$TILEMODE
 70
     1
  9
$MAXACTVP
 70
    64
  9
$PINSBASE
 10
0.0
 20
0.0
 30
0.0
  9
$PLIMCHECK
 70
     0
  9
$PEXTMIN
 10
1.000000000000000E+20
 20
1.000000000000000E+20
 30
1.000000000000000E+20
  9
$PEXTMAX
 10
-1.000000000000000E+20
 20
-1.000000000000000E+20
 30
-1.000000000000000E+20
  9
$PLIMMIN
 10
0.0
 20
0.0
  9
$PLIMMAX
 10
12.0
 20
9.0
  9
$UNITMODE
 70
     0
  9
$VISRETAIN
 70
     1
  9
$PLINEGEN
 70
     0
  9
$PSLTSCALE
 70
     1
  9
$TREEDEPTH
 70
  3020
  9
$CMLSTYLE
  2
Standard
  9
$CMLJUST
 70
     0
  9
$CMLSCALE
 40
1.0
  9
$PROXYGRAPHICS
 70
     1
  9
$MEASUREMENT
 70
     0
  9
$CELWEIGHT
370
    -1
  9
$ENDCAPS
280
     0
  9
$JOINSTYLE
280
     0
  9
$LWDISPLAY
290
     0
  9
$INSUNITS
 70
     5
  9
$HYPERLINKBASE
  1

  9
$STYLESHEET
  1

  9
$XEDIT
290
     1
  9
$CEPSNTYPE
380
     0
  9
$PSTYLEMODE
290
     1
  9
$FINGERPRINTGUID
  2
{0CDD4E29-5D2B-485F-8448-F13CA93EAAB9}
  9
$VERSIONGUID
  2
{FAEB1C32-E019-11D5-929B-00C0DF256EC4}
  9
$EXTNAMES
290
     1
  9
$PSVPSCALE
 40
0.0
  9
$OLESTARTUP
290
     0
  9
$SORTENTS
280
   127
  9
$INDEXCTL
280
     0
  9
$HIDETEXT
280
     1
  9
$XCLIPFRAME
290
     0
  9
$HALOGAP
280
     0
  9
$OBSCOLOR
 70
   257
  9
$OBSLTYPE
280
     0
  9
$INTERSECTIONDISPLAY
280
     0
  9
$INTERSECTIONCOLOR
 70
   257
  9
$DIMASSOC
280
     2
  9
$PROJECTNAME
  1

  9
$CAMERADISPLAY
290
     0
  9
$LENSLENGTH
 40
50.0
  9
$CAMERAHEIGHT
 40
0.0
  9
$STEPSPERSEC
 40
2.0
  9
$STEPSIZE
 40
6.0
  9
$3DDWFPREC
 40
2.0
  9
$PSOLWIDTH
 40
0.25
  9
$PSOLHEIGHT
 40
4.0
  9
$LOFTANG1
 40
1.570796326794897
  9
$LOFTANG2
 40
1.570796326794897
  9
$LOFTMAG1
 40
0.0
  9
$LOFTMAG2
 40
0.0
  9
$LOFTPARAM
 70
     7
  9
$LOFTNORMALS
280
     1
  9
$LATITUDE
 40
37.795
  9
$LONGITUDE
 40
-122.394
  9
$NORTHDIRECTION
 40
0.0
  9
$TIMEZONE
 70
 -8000
  9
$LIGHTGLYPHDISPLAY
280
     1
  9
$TILEMODELIGHTSYNCH
280
     1
  9
$SOLIDHIST
280
     1
  9
$SHOWHIST
280
     1
  9
$DWFFRAME
280
     2
  9
$DGNFRAME
280
     2
  9
$REALWORLDSCALE
290
     1
  9
$INTERFERECOLOR
 62
   256
  9
$CSHADOW
280
     0
  9
$SHADOWPLANELOCATION
 40
0.0
  0
ENDSEC
  0
SECTION
  2
CLASSES
  0
CLASS
  1
ACDBDICTIONARYWDFLT
  2
AcDbDictionaryWithDefault
  3
ObjectDBX Classes
 90
        0
 91
        4
280
     0
281
     0
  0
CLASS
  1
VISUALSTYLE
  2
AcDbVisualStyle
  3
ObjectDBX Classes
 90
     4095
 91
        4
280
     0
281
     0
  0
CLASS
  1
MATERIAL
  2
AcDbMaterial
  3
ObjectDBX Classes
 90
     1153
 91
        4
280
     0
281
     0
  0
ENDSEC
  0
SECTION
  2
TABLES
  0
TABLE
  2
VPORT
  5
8
330
0
100
AcDbSymbolTable
 70
     1
  0
VPORT
  5
29
330
8
100
AcDbSymbolTableRecord
100
AcDbViewportTableRecord
  2
*Active
 70
     0
 10
0.0
 20
0.0
 11
1.0
 21
1.0
 12
10.42990654205607
 22
4.5
 13
0.0
 23
0.0
 14
0.5
 24
0.5
 15
0.5
 25
0.5
 16
0.0
 26
0.0
 36
1.0
 17
0.0
 27
0.0
 37
0.0
 40
9.0
 41
1.972972972850329
 42
50.0
 43
0.0
 44
0.0
 50
0.0
 51
0.0
 71
     0
 72
   100
 73
     1
 74
     3
 75
     0
 76
     0
 77
     0
 78
     0
281
     0
 65
     1
110
0.0
120
0.0
130
0.0
111
1.0
121
0.0
131
0.0
112
0.0
122
1.0
132
0.0
 79
     0
146
0.0
 60
     3
 61
     5
292
     1
282
     1
141
0.0
142
0.0
 63
   250
  0
ENDTAB
  0
TABLE
  2
LTYPE
  5
5
330
0
100
AcDbSymbolTable
 70
     1
  0
LTYPE
  5
14
330
5
100
AcDbSymbolTableRecord
100
AcDbLinetypeTableRecord
  2
ByBlock
 70
     0
  3

 72
    65
 73
     0
 40
0.0
  0
LTYPE
  5
15
330
5
100
AcDbSymbolTableRecord
100
AcDbLinetypeTableRecord
  2
ByLayer
 70
     0
  3

 72
    65
 73
     0
 40
0.0
  0
LTYPE
  5
16
330
5
100
AcDbSymbolTableRecord
100
AcDbLinetypeTableRecord
  2
Continuous
 70
     0
  3
Solid line
 72
    65
 73
     0
 40
0.0
  0
ENDTAB
  0
TABLE
  2
LAYER
  5
2
330
0
100
AcDbSymbolTable
 70
     2
  0
LAYER
  5
10
330
2
100
AcDbSymbolTableRecord
100
AcDbLayerTableRecord
  2
0
 70
     0
 62
     7
  6
Continuous
370
    -3
390
F
347
3E
  0
LAYER
  5
40
330
2
100
AcDbSymbolTableRecord
100
AcDbLayerTableRecord
  2
Layer 1
 70
     0
 62
     7
  6
Continuous
370
    -3
390
F
347
3E
  0
ENDTAB
  0
TABLE
  2
STYLE
  5
3
330
0
100
AcDbSymbolTable
 70
     1
  0
STYLE
  5
11
330
3
100
AcDbSymbolTableRecord
100
AcDbTextStyleTableRecord
  2
Standard
 70
     0
 40
0.0
 41
1.0
 50
0.0
 71
     0
 42
0.2
  3
txt
  4

  0
ENDTAB
  0
TABLE
  2
VIEW
  5
6
330
0
100
AcDbSymbolTable
 70
     0
  0
ENDTAB
  0
TABLE
  2
UCS
  5
7
330
0
100
AcDbSymbolTable
 70
     0
  0
ENDTAB
  0
TABLE
  2
APPID
  5
9
330
0
100
AcDbSymbolTable
 70
     2
  0
APPID
  5
12
330
9
100
AcDbSymbolTableRecord
100
AcDbRegAppTableRecord
  2
ACAD
 70
     0
  0
APPID
  5
3F
330
9
100
AcDbSymbolTableRecord
100
AcDbRegAppTableRecord
  2
ODA
 70
     0
  0
ENDTAB
  0
TABLE
  2
DIMSTYLE
  5
A
330
0
100
AcDbSymbolTable
 70
     1
100
AcDbDimStyleTable
  0
DIMSTYLE
105
27
330
A
100
AcDbSymbolTableRecord
100
AcDbDimStyleTableRecord
  2
Standard
 70
     0
178
     0
340
11
  0
ENDTAB
  0
TABLE
  2
BLOCK_RECORD
  5
1
330
0
100
AcDbSymbolTable
 70
     1
  0
BLOCK_RECORD
  5
1F
330
1
100
AcDbSymbolTableRecord
100
AcDbBlockTableRecord
  2
*Model_Space
340
22
 70
     0
280
     1
281
     0
  0
BLOCK_RECORD
  5
1B
330
1
100
AcDbSymbolTableRecord
100
AcDbBlockTableRecord
  2
*Paper_Space
340
1E
 70
     0
280
     1
281
     0
  0
BLOCK_RECORD
  5
23
330
1
100
AcDbSymbolTableRecord
100
AcDbBlockTableRecord
  2
*Paper_Space0
340
26
 70
     0
280
     1
281
     0
  0
ENDTAB
  0
ENDSEC
  0
SECTION
  2
BLOCKS
  0
BLOCK
  5
20
330
1F
100
AcDbEntity
  8
0
100
AcDbBlockBegin
  2
*Model_Space
 70
     0
 10
0.0
 20
0.0
 30
0.0
  3
*Model_Space
  1

  0
ENDBLK
  5
21
330
1F
100
AcDbEntity
  8
0
100
AcDbBlockEnd
  0
BLOCK
  5
1C
330
1B
100
AcDbEntity
 67
     1
  8
0
100
AcDbBlockBegin
  2
*Paper_Space
 70
     0
 10
0.0
 20
0.0
 30
0.0
  3
*Paper_Space
  1

  0
ENDBLK
  5
1D
330
1B
100
AcDbEntity
 67
     1
  8
0
100
AcDbBlockEnd
  0
BLOCK
  5
24
330
23
100
AcDbEntity
  8
0
100
AcDbBlockBegin
  2
*Paper_Space0
 70
     0
 10
0.0
 20
0.0
 30
0.0
  3
*Paper_Space0
  1

  0
ENDBLK
  5
25
330
23
100
AcDbEntity
  8
0
100
AcDbBlockEnd
  0
ENDSEC
  0
SECTION
  2
ENTITIES
  0
SPLINE
  5
41
330
1F
100
AcDbEntity
  8
Layer 1
370
    53
100
AcDbSpline
210
0.0
220
0.0
230
1.0
 70
    11
 71
     3
 72
    20
 73
    16
 74
     0
 42
0.0000000001
 43
0.0000000001
 12
1.0
 22
0.0
 32
0.0
 13
1.0
 23
0.0
 33
0.0
 40
0.0
 40
0.0
 40
0.0
 40
0.0
 40
0.2
 40
0.2
 40
0.2
 40
0.2
 40
0.4
 40
0.4
 40
0.4
 40
0.4
 40
0.6
 40
0.6
 40
0.6
 40
0.6
 40
1.0
 40
1.0
 40
1.0
 40
1.0
 10
-10.32498
 20
-9.99996
 30
0.0
 10
-10.32498
 20
-9.82047
 30
0.0
 10
-10.17947
 20
-9.67496
 30
0.0
 10
-9.99998
 20
-9.67496
 30
0.0
 10
-9.99998
 20
-9.67496
 30
0.0
 10
-9.82049
 20
-9.67496
 30
0.0
 10
-9.67498
 20
-9.82047
 30
0.0
 10
-9.67498
 20
-9.99996
 30
0.0
 10
-9.67498
 20
-9.99996
 30
0.0
 10
-9.67498
 20
-10.17945
 30
0.0
 10
-9.82049
 20
-10.32496
 30
0.0
 10
-9.99998
 20
-10.32496
 30
0.0
 10
-9.99998
 20
-10.32496
 30
0.0
 10
-10.17947
 20
-10.32496
 30
0.0
 10
-10.32498
 20
-10.17945
 30
0.0
 10
-10.32498
 20
-9.99996
 30
0.0
  0
SPLINE
  5
42
330
1F
100
AcDbEntity
  8
Layer 1
370
    53
100
AcDbSpline
210
0.0
220
0.0
230
1.0
 70
    11
 71
     3
 72
    20
 73
    16
 74
     0
 42
0.0000000001
 43
0.0000000001
 12
1.0
 22
0.0
 32
0.0
 13
1.0
 23
0.0
 33
0.0
 40
0.0
 40
0.0
 40
0.0
 40
0.0
 40
0.2
 40
0.2
 40
0.2
 40
0.2
 40
0.4
 40
0.4
 40
0.4
 40
0.4
 40
0.6
 40
0.6
 40
0.6
 40
0.6
 40
1.0
 40
1.0
 40
1.0
 40
1.0
 10
-8.82498
 20
-9.99996
 30
0.0
 10
-8.82498
 20
-9.82047
 30
0.0
 10
-8.67947
 20
-9.67496
 30
0.0
 10
-8.49998
 20
-9.67496
 30
0.0
 10
-8.49998
 20
-9.67496
 30
0.0
 10
-8.32049
 20
-9.67496
 30
0.0
 10
-8.17498
 20
-9.82047
 30
0.0
 10
-8.17498
 20
-9.99996
 30
0.0
 10
-8.17498
 20
-9.99996
 30
0.0
 10
-8.17498
 20
-10.17945
 30
0.0
 10
-8.32049
 20
-10.32496
 30
0.0
 10
-8.49998
 20
-10.32496
 30
0.0
 10
-8.49998
 20
-10.32496
 30
0.0
 10
-8.67947
 20
-10.32496
 30
0.0
 10
-8.82498
 20
-10.17945
 30
0.0
 10
-8.82498
 20
-9.99996
 30
0.0
  0
SPLINE
  5
43
330
1F
100
AcDbEntity
  8
Layer 1
 62
     5
370
    53
100
AcDbSpline
210
0.0
220
0.0
230
1.0
 70
    11
 71
     3
 72
    20
 73
    16
 74
     0
 42
0.0000000001
 43
0.0000000001
 12
1.0
 22
0.0
 32
0.0
 13
1.0
 23
0.0
 33
0.0
 40
0.0
 40
0.0
 40
0.0
 40
0.0
 40
0.2
 40
0.2
 40
0.2
 40
0.2
 40
0.4
 40
0.4
 40
0.4
 40
0.4
 40
0.6
 40
0.6
 40
0.6
 40
0.6
 40
1.0
 40
1.0
 40
1.0
 40
1.0
 10
-10.46766
 20
-14.08039
 30
0.0
 10
-10.46766
 20
-14.17446
 30
0.0
 10
-10.54391
 20
-14.25071
 30
0.0
 10
-10.63798
 20
-14.25071
 30
0.0
 10
-10.63798
 20
-14.25071
 30
0.0
 10
-10.73206
 20
-14.25071
 30
0.0
 10
-10.80831
 20
-14.17446
 30
0.0
 10
-10.80831
 20
-14.08039
 30
0.0
 10
-10.80831
 20
-14.08039
 30
0.0
 10
-10.80831
 20
-13.98633
 30
0.0
 10
-10.73206
 20
-13.91008
 30
0.0
 10
-10.63798
 20
-13.91008
 30
0.0
 10
-10.63798
 20
-13.91008
 30
0.0
 10
-10.54391
 20
-13.91008
 30
0.0
 10
-10.46766
 20
-13.98633
 30
0.0
 10
-10.46766
 20
-14.08039
 30
0.0
  0
SPLINE
  5
44
330
1F
100
AcDbEntity
  8
Layer 1
 62
     5
370
    53
100
AcDbSpline
210
0.0
220
0.0
230
1.0
 70
    11
 71
     3
 72
    20
 73
    16
 74
     0
 42
0.0000000001
 43
0.0000000001
 12
1.0
 22
0.0
 32
0.0
 13
1.0
 23
0.0
 33
0.0
 40
0.0
 40
0.0
 40
0.0
 40
0.0
 40
0.2
 40
0.2
 40
0.2
 40
0.2
 40
0.4
 40
0.4
 40
0.4
 40
0.4
 40
0.6
 40
0.6
 40
0.6
 40
0.6
 40
1.0
 40
1.0
 40
1.0
 40
1.0
 10
-11.27676
 20
-14.07966
 30
0.0
 10
-11.27676
 20
-14.17374
 30
0.0
 10
-11.353
 20
-14.24998
 30
0.0
 10
-11.44706
 20
-14.24998
 30
0.0
 10
-11.44706
 20
-14.24998
 30
0.0
 10
-11.54113
 20
-14.24998
 30
0.0
 10
-11.61741
 20
-14.17374
 30
0.0
 10
-11.61741
 20
-14.07966
 30
0.0
 10
-11.61741
 20
-14.07966
 30
0.0
 10
-11.61741
 20
-13.98561
 30
0.0
 10
-11.54113
 20
-13.90936
 30
0.0
 10
-11.44706
 20
-13.90936
 30
0.0
 10
-11.44706
 20
-13.90936
 30
0.0
 10
-11.353
 20
-13.90936
 30
0.0
 10
-11.27676
 20
-13.98561
 30
0.0
 10
-11.27676
 20
-14.07966
 30
0.0
  0
SPLINE
  5
45
330
1F
100
AcDbEntity
  8
Layer 1
 62
     5
370
    53
100
AcDbSpline
210
0.0
220
0.0
230
1.0
 70
    11
 71
     3
 72
    20
 73
    16
 74
     0
 42
0.0000000001
 43
0.0000000001
 12
1.0
 22
0.0
 32
0.0
 13
1.0
 23
0.0
 33
0.0
 40
0.0
 40
0.0
 40
0.0
 40
0.0
 40
0.2
 40
0.2
 40
0.2
 40
0.2
 40
0.4
 40
0.4
 40
0.4
 40
0.4
 40
0.6
 40
0.6
 40
0.6
 40
0.6
 40
1.0
 40
1.0
 40
1.0
 40
1.0
 10
-12.08025
 20
-14.08003
 30
0.0
 10
-12.08025
 20
-14.1741
 30
0.0
 10
-12.1565
 20
-14.25035
 30
0.0
 10
-12.25055
 20
-14.25035
 30
0.0
 10
-12.25055
 20
-14.25035
 30
0.0
 10
-12.34462
 20
-14.25035
 30
0.0
 10
-12.4209
 20
-14.1741
 30
0.0
 10
-12.4209
 20
-14.08003
 30
0.0
 10
-12.4209
 20
-14.08003
 30
0.0
 10
-12.4209
 20
-13.98597
 30
0.0
 10
-12.34462
 20
-13.90972
 30
0.0
 10
-12.25055
 20
-13.90972
 30
0.0
 10
-12.25055
 20
-13.90972
 30
0.0
 10
-12.1565
 20
-13.90972
 30
0.0
 10
-12.08025
 20
-13.98597
 30
0.0
 10
-12.08025
 20
-14.08003
 30
0.0
  0
SPLINE
  5
46
330
1F
100
AcDbEntity
  8
Layer 1
 62
     5
370
    53
100
AcDbSpline
210
0.0
220
0.0
230
1.0
 70
     8
 71
     3
 72
    36
 73
    32
 74
     0
 42
0.0000000001
 43
0.0000000001
 12
1.0
 22
0.0
 32
0.0
 13
1.0
 23
0.0
 33
0.0
 40
0.0
 40
0.0
 40
0.0
 40
0.0
 40
0.1111111111111111
 40
0.1111111111111111
 40
0.1111111111111111
 40
0.1111111111111111
 40
0.2222222222222222
 40
0.2222222222222222
 40
0.2222222222222222
 40
0.2222222222222222
 40
0.3333333333333333
 40
0.3333333333333333
 40
0.3333333333333333
 40
0.3333333333333333
 40
0.4444444444444444
 40
0.4444444444444444
 40
0.4444444444444444
 40
0.4444444444444444
 40
0.5555555555555556
 40
0.5555555555555556
 40
0.5555555555555556
 40
0.5555555555555556
 40
0.6666666666666666
 40
0.6666666666666666
 40
0.6666666666666666
 40
0.6666666666666666
 40
0.7777777777777778
 40
0.7777777777777778
 40
0.7777777777777778
 40
0.7777777777777778
 40
1.0
 40
1.0
 40
1.0
 40
1.0
 10
-13.45371
 20
-14.0793
 30
0.0
 10
-13.45371
 20
-13.86168
 30
0.0
 10
-13.27728
 20
-13.68526
 30
0.0
 10
-13.05964
 20
-13.68526
 30
0.0
 10
-13.05964
 20
-13.68526
 30
0.0
 10
-12.84202
 20
-13.68526
 30
0.0
 10
-12.66559
 20
-13.86168
 30
0.0
 10
-12.6551
 20
-14.07966
 30
0.0
 10
-12.6551
 20
-14.07966
 30
0.0
 10
-12.64461
 20
-13.86241
 30
0.0
 10
-12.46819
 20
-13.68599
 30
0.0
 10
-12.25057
 20
-13.68599
 30
0.0
 10
-12.25057
 20
-13.68599
 30
0.0
 10
-12.03294
 20
-13.68599
 30
0.0
 10
-11.85652
 20
-13.86241
 30
0.0
 10
-11.84882
 20
-14.07984
 30
0.0
 10
-11.84882
 20
-14.07984
 30
0.0
 10
-11.84112
 20
-13.86205
 30
0.0
 10
-11.6647
 20
-13.68562
 30
0.0
 10
-11.44708
 20
-13.68562
 30
0.0
 10
-11.44708
 20
-13.68562
 30
0.0
 10
-11.22945
 20
-13.68562
 30
0.0
 10
-11.05303
 20
-13.86205
 30
0.0
 10
-11.04253
 20
-14.08002
 30
0.0
 10
-11.04253
 20
-14.08002
 30
0.0
 10
-11.03204
 20
-13.86277
 30
0.0
 10
-10.85562
 20
-13.68633
 30
0.0
 10
-10.63798
 20
-13.68633
 30
0.0
 10
-10.63798
 20
-13.68633
 30
0.0
 10
-10.42035
 20
-13.68633
 30
0.0
 10
-10.24396
 20
-13.86277
 30
0.0
 10
-10.24396
 20
-14.08038
 30
0.0
  0
SPLINE
  5
47
330
1F
100
AcDbEntity
  8
Layer 1
 62
     5
370
    53
100
AcDbSpline
210
0.0
220
0.0
230
1.0
 70
    11
 71
     3
 72
    20
 73
    16
 74
     0
 42
0.0000000001
 43
0.0000000001
 12
1.0
 22
0.0
 32
0.0
 13
1.0
 23
0.0
 33
0.0
 40
0.0
 40
0.0
 40
0.0
 40
0.0
 40
0.2
 40
0.2
 40
0.2
 40
0.2
 40
0.4
 40
0.4
 40
0.4
 40
0.4
 40
0.6
 40
0.6
 40
0.6
 40
0.6
 40
1.0
 40
1.0
 40
1.0
 40
1.0
 10
-12.88932
 20
-14.0793
 30
0.0
 10
-12.88932
 20
-14.17338
 30
0.0
 10
-12.96557
 20
-14.24962
 30
0.0
 10
-13.05964
 20
-14.24962
 30
0.0
 10
-13.05964
 20
-14.24962
 30
0.0
 10
-13.1537
 20
-14.24962
 30
0.0
 10
-13.22997
 20
-14.17338
 30
0.0
 10
-13.22997
 20
-14.0793
 30
0.0
 10
-13.22997
 20
-14.0793
 30
0.0
 10
-13.22997
 20
-13.98525
 30
0.0
 10
-13.1537
 20
-13.909
 30
0.0
 10
-13.05964
 20
-13.909
 30
0.0
 10
-13.05964
 20
-13.909
 30
0.0
 10
-12.96557
 20
-13.909
 30
0.0
 10
-12.88932
 20
-13.98525
 30
0.0
 10
-12.88932
 20
-14.0793
 30
0.0
  0
SPLINE
  5
48
330
1F
100
AcDbEntity
  8
Layer 1
 62
     5
370
    53
100
AcDbSpline
210
0.0
220
0.0
230
1.0
 70
    24
 71
     3
 72
     8
 73
     4
 74
     0
 42
0.0000000001
 43
0.0000000001
 12
1.0
 22
0.0
 32
0.0
 13
1.0
 23
0.0
 33
0.0
 40
0.0
 40
0.0
 40
0.0
 40
0.0
 40
1.0
 40
1.0
 40
1.0
 40
1.0
 10
-11.54393
 20
-10.89985
 30
0.0
 10
-11.54393
 20
-10.89985
 30
0.0
 10
-10.57265
 20
-10.89985
 30
0.0
 10
-10.57265
 20
-10.89985
 30
0.0
  0
SPLINE
  5
49
330
1F
100
AcDbEntity
  8
Layer 1
 62
     5
370
    53
100
AcDbSpline
210
0.0
220
0.0
230
1.0
 70
    24
 71
     3
 72
     8
 73
     4
 74
     0
 42
0.0000000001
 43
0.0000000001
 12
1.0
 22
0.0
 32
0.0
 13
1.0
 23
0.0
 33
0.0
 40
0.0
 40
0.0
 40
0.0
 40
0.0
 40
1.0
 40
1.0
 40
1.0
 40
1.0
 10
-11.25834
 20
-13.45827
 30
0.0
 10
-11.25834
 20
-13.45827
 30
0.0
 10
-13.48744
 20
-13.45825
 30
0.0
 10
-13.48744
 20
-13.45825
 30
0.0
  0
SPLINE
  5
4A
330
1F
100
AcDbEntity
  8
Layer 1
 62
     5
370
    53
100
AcDbSpline
210
0.0
220
0.0
230
1.0
 70
    24
 71
     3
 72
     8
 73
     4
 74
     0
 42
0.0000000001
 43
0.0000000001
 12
1.0
 22
0.0
 32
0.0
 13
1.0
 23
0.0
 33
0.0
 40
0.0
 40
0.0
 40
0.0
 40
0.0
 40
1.0
 40
1.0
 40
1.0
 40
1.0
 10
-12.31745
 20
-11.95808
 30
0.0
 10
-12.31745
 20
-11.95808
 30
0.0
 10
-10.19921
 20
-11.95808
 30
0.0
 10
-10.19921
 20
-11.95808
 30
0.0
  0
SPLINE
  5
4B
330
1F
100
AcDbEntity
  8
Layer 1
 62
     5
370
    53
100
AcDbSpline
210
0.0
220
0.0
230
1.0
 70
    24
 71
     3
 72
     8
 73
     4
 74
     0
 42
0.0000000001
 43
0.0000000001
 12
1.0
 22
0.0
 32
0.0
 13
1.0
 23
0.0
 33
0.0
 40
0.0
 40
0.0
 40
0.0
 40
0.0
 40
1.0
 40
1.0
 40
1.0
 40
1.0
 10
-10.19929
 20
-12.73042
 30
0.0
 10
-10.19929
 20
-12.73042
 30
0.0
 10
-10.92057
 20
-12.73042
 30
0.0
 10
-10.92057
 20
-12.73042
 30
0.0
  0
SPLINE
  5
4C
330
1F
100
AcDbEntity
  8
Layer 1
 62
     5
370
    53
100
AcDbSpline
210
0.0
220
0.0
230
1.0
 70
     8
 71
     3
 72
     8
 73
     4
 74
     0
 42
0.0000000001
 43
0.0000000001
 12
1.0
 22
0.0
 32
0.0
 13
1.0
 23
0.0
 33
0.0
 40
0.0
 40
0.0
 40
0.0
 40
0.0
 40
1.0
 40
1.0
 40
1.0
 40
1.0
 10
-10.92057
 20
-12.73042
 30
0.0
 10
-11.1071
 20
-12.73042
 30
0.0
 10
-11.25834
 20
-12.88165
 30
0.0
 10
-11.25834
 20
-13.0682
 30
0.0
  0
SPLINE
  5
4D
330
1F
100
AcDbEntity
  8
Layer 1
 62
     5
370
    53
100
AcDbSpline
210
0.0
220
0.0
230
1.0
 70
     8
 71
     3
 72
    16
 73
    12
 74
     0
 42
0.0000000001
 43
0.0000000001
 12
1.0
 22
0.0
 32
0.0
 13
1.0
 23
0.0
 33
0.0
 40
0.0
 40
0.0
 40
0.0
 40
0.0
 40
0.25
 40
0.25
 40
0.25
 40
0.25
 40
0.5
 40
0.5
 40
0.5
 40
0.5
 40
1.0
 40
1.0
 40
1.0
 40
1.0
 10
-11.25834
 20
-13.0682
 30
0.0
 10
-11.25834
 20
-13.0682
 30
0.0
 10
-11.25834
 20
-13.45828
 30
0.0
 10
-11.25834
 20
-13.45828
 30
0.0
 10
-11.25834
 20
-13.45828
 30
0.0
 10
-11.25834
 20
-13.45828
 30
0.0
 10
-10.19929
 20
-13.45828
 30
0.0
 10
-10.19929
 20
-13.45828
 30
0.0
 10
-10.19929
 20
-13.45828
 30
0.0
 10
-10.19929
 20
-13.45828
 30
0.0
 10
-10.19929
 20
-12.73042
 30
0.0
 10
-10.19929
 20
-12.73042
 30
0.0
  0
SPLINE
  5
4E
330
1F
100
AcDbEntity
  8
Layer 1
 62
     5
370
    53
100
AcDbSpline
210
0.0
220
0.0
230
1.0
 70
    24
 71
     3
 72
     8
 73
     4
 74
     0
 42
0.0000000001
 43
0.0000000001
 12
1.0
 22
0.0
 32
0.0
 13
1.0
 23
0.0
 33
0.0
 40
0.0
 40
0.0
 40
0.0
 40
0.0
 40
1.0
 40
1.0
 40
1.0
 40
1.0
 10
-12.31745
 20
-11.27492
 30
0.0
 10
-12.31745
 20
-11.27492
 30
0.0
 10
-10.19929
 20
-11.27492
 30
0.0
 10
-10.19929
 20
-11.27492
 30
0.0
  0
SPLINE
  5
4F
330
1F
100
AcDbEntity
  8
Layer 1
 62
     5
370
    53
100
AcDbSpline
210
0.0
220
0.0
230
1.0
 70
    24
 71
     3
 72
     8
 73
     4
 74
     0
 42
0.0000000001
 43
0.0000000001
 12
1.0
 22
0.0
 32
0.0
 13
1.0
 23
0.0
 33
0.0
 40
0.0
 40
0.0
 40
0.0
 40
0.0
 40
1.0
 40
1.0
 40
1.0
 40
1.0
 10
-8.81706
 20
-13.44386
 30
0.0
 10
-8.81706
 20
-13.44386
 30
0.0
 10
-6.58794
 20
-13.44383
 30
0.0
 10
-6.58794
 20
-13.44383
 30
0.0
  0
SPLINE
  5
50
330
1F
100
AcDbEntity
  8
Layer 1
 62
     5
370
    53
100
AcDbSpline
210
0.0
220
0.0
230
1.0
 70
    24
 71
     3
 72
     8
 73
     4
 74
     0
 42
0.0000000001
 43
0.0000000001
 12
1.0
 22
0.0
 32
0.0
 13
1.0
 23
0.0
 33
0.0
 40
0.0
 40
0.0
 40
0.0
 40
0.0
 40
1.0
 40
1.0
 40
1.0
 40
1.0
 10
-7.75795
 20
-11.94367
 30
0.0
 10
-7.75795
 20
-11.94367
 30
0.0
 10
-9.87619
 20
-11.94367
 30
0.0
 10
-9.87619
 20
-11.94367
 30
0.0
  0
SPLINE
  5
51
330
1F
100
AcDbEntity
  8
Layer 1
 62
     5
370
    53
100
AcDbSpline
210
0.0
220
0.0
230
1.0
 70
    24
 71
     3
 72
     8
 73
     4
 74
     0
 42
0.0000000001
 43
0.0000000001
 12
1.0
 22
0.0
 32
0.0
 13
1.0
 23
0.0
 33
0.0
 40
0.0
 40
0.0
 40
0.0
 40
0.0
 40
1.0
 40
1.0
 40
1.0
 40
1.0
 10
-9.8761
 20
-12.71599
 30
0.0
 10
-9.8761
 20
-12.71599
 30
0.0
 10
-9.15481
 20
-12.71599
 30
0.0
 10
-9.15481
 20
-12.71599
 30
0.0
  0
SPLINE
  5
52
330
1F
100
AcDbEntity
  8
Layer 1
 62
     5
370
    53
100
AcDbSpline
210
0.0
220
0.0
230
1.0
 70
     8
 71
     3
 72
     8
 73
     4
 74
     0
 42
0.0000000001
 43
0.0000000001
 12
1.0
 22
0.0
 32
0.0
 13
1.0
 23
0.0
 33
0.0
 40
0.0
 40
0.0
 40
0.0
 40
0.0
 40
1.0
 40
1.0
 40
1.0
 40
1.0
 10
-9.15481
 20
-12.71599
 30
0.0
 10
-8.96828
 20
-12.71599
 30
0.0
 10
-8.81705
 20
-12.86723
 30
0.0
 10
-8.81705
 20
-13.05378
 30
0.0
  0
SPLINE
  5
53
330
1F
100
AcDbEntity
  8
Layer 1
 62
     5
370
    53
100
AcDbSpline
210
0.0
220
0.0
230
1.0
 70
     8
 71
     3
 72
    16
 73
    12
 74
     0
 42
0.0000000001
 43
0.0000000001
 12
1.0
 22
0.0
 32
0.0
 13
1.0
 23
0.0
 33
0.0
 40
0.0
 40
0.0
 40
0.0
 40
0.0
 40
0.25
 40
0.25
 40
0.25
 40
0.25
 40
0.5
 40
0.5
 40
0.5
 40
0.5
 40
1.0
 40
1.0
 40
1.0
 40
1.0
 10
-8.81705
 20
-13.05378
 30
0.0
 10
-8.81705
 20
-13.05378
 30
0.0
 10
-8.81705
 20
-13.44386
 30
0.0
 10
-8.81705
 20
-13.44386
 30
0.0
 10
-8.81705
 20
-13.44386
 30
0.0
 10
-8.81705
 20
-13.44386
 30
0.0
 10
-9.8761
 20
-13.44386
 30
0.0
 10
-9.8761
 20
-13.44386
 30
0.0
 10
-9.8761
 20
-13.44386
 30
0.0
 10
-9.8761
 20
-13.44386
 30
0.0
 10
-9.8761
 20
-12.71599
 30
0.0
 10
-9.8761
 20
-12.71599
 30
0.0
  0
SPLINE
  5
54
330
1F
100
AcDbEntity
  8
Layer 1
 62
     5
370
    53
100
AcDbSpline
210
0.0
220
0.0
230
1.0
 70
    24
 71
     3
 72
     8
 73
     4
 74
     0
 42
0.0000000001
 43
0.0000000001
 12
1.0
 22
0.0
 32
0.0
 13
1.0
 23
0.0
 33
0.0
 40
0.0
 40
0.0
 40
0.0
 40
0.0
 40
1.0
 40
1.0
 40
1.0
 40
1.0
 10
-7.75795
 20
-11.26051
 30
0.0
 10
-7.75795
 20
-11.26051
 30
0.0
 10
-9.87611
 20
-11.26051
 30
0.0
 10
-9.87611
 20
-11.26051
 30
0.0
  0
SPLINE
  5
55
330
1F
100
AcDbEntity
  8
Layer 1
 62
     5
370
    53
100
AcDbSpline
210
0.0
220
0.0
230
1.0
 70
    24
 71
     3
 72
     8
 73
     4
 74
     0
 42
0.0000000001
 43
0.0000000001
 12
1.0
 22
0.0
 32
0.0
 13
1.0
 23
0.0
 33
0.0
 40
0.0
 40
0.0
 40
0.0
 40
0.0
 40
1.0
 40
1.0
 40
1.0
 40
1.0
 10
-9.40284
 20
-10.88451
 30
0.0
 10
-9.40284
 20
-10.88451
 30
0.0
 10
-8.43341
 20
-10.88816
 30
0.0
 10
-8.43341
 20
-10.88816
 30
0.0
  0
SPLINE
  5
56
330
1F
100
AcDbEntity
  8
Layer 1
370
    53
100
AcDbSpline
210
0.0
220
0.0
230
1.0
 70
    11
 71
     3
 72
   236
 73
   232
 74
     0
 42
0.0000000001
 43
0.0000000001
 12
1.0
 22
0.0
 32
0.0
 13
1.0
 23
0.0
 33
0.0
 40
0.0
 40
0.0
 40
0.0
 40
0.0
 40
0.0169491525423729
 40
0.0169491525423729
 40
0.0169491525423729
 40
0.0169491525423729
 40
0.0338983050847458
 40
0.0338983050847458
 40
0.0338983050847458
 40
0.0338983050847458
 40
0.0508474576271186
 40
0.0508474576271186
 40
0.0508474576271186
 40
0.0508474576271186
 40
0.0677966101694915
 40
0.0677966101694915
 40
0.0677966101694915
 40
0.0677966101694915
 40
0.0847457627118644
 40
0.0847457627118644
 40
0.0847457627118644
 40
0.0847457627118644
 40
0.1016949152542373
 40
0.1016949152542373
 40
0.1016949152542373
 40
0.1016949152542373
 40
0.1186440677966102
 40
0.1186440677966102
 40
0.1186440677966102
 40
0.1186440677966102
 40
0.1355932203389831
 40
0.1355932203389831
 40
0.1355932203389831
 40
0.1355932203389831
 40
0.1525423728813559
 40
0.1525423728813559
 40
0.1525423728813559
 40
0.1525423728813559
 40
0.1694915254237288
 40
0.1694915254237288
 40
0.1694915254237288
 40
0.1694915254237288
 40
0.1864406779661017
 40
0.1864406779661017
 40
0.1864406779661017
 40
0.1864406779661017
 40
0.2033898305084746
 40
0.2033898305084746
 40
0.2033898305084746
 40
0.2033898305084746
 40
0.2203389830508475
 40
0.2203389830508475
 40
0.2203389830508475
 40
0.2203389830508475
 40
0.2372881355932203
 40
0.2372881355932203
 40
0.2372881355932203
 40
0.2372881355932203
 40
0.2542372881355932
 40
0.2542372881355932
 40
0.2542372881355932
 40
0.2542372881355932
 40
0.2711864406779661
 40
0.2711864406779661
 40
0.2711864406779661
 40
0.2711864406779661
 40
0.288135593220339
 40
0.288135593220339
 40
0.288135593220339
 40
0.288135593220339
 40
0.3050847457627119
 40
0.3050847457627119
 40
0.3050847457627119
 40
0.3050847457627119
 40
0.3220338983050847
 40
0.3220338983050847
 40
0.3220338983050847
 40
0.3220338983050847
 40
0.3389830508474576
 40
0.3389830508474576
 40
0.3389830508474576
 40
0.3389830508474576
 40
0.3559322033898305
 40
0.3559322033898305
 40
0.3559322033898305
 40
0.3559322033898305
 40
0.3728813559322034
 40
0.3728813559322034
 40
0.3728813559322034
 40
0.3728813559322034
 40
0.3898305084745763
 40
0.3898305084745763
 40
0.3898305084745763
 40
0.3898305084745763
 40
0.4067796610169492
 40
0.4067796610169492
 40
0.4067796610169492
 40
0.4067796610169492
 40
0.423728813559322
 40
0.423728813559322
 40
0.423728813559322
 40
0.423728813559322
 40
0.4406779661016949
 40
0.4406779661016949
 40
0.4406779661016949
 40
0.4406779661016949
 40
0.4576271186440678
 40
0.4576271186440678
 40
0.4576271186440678
 40
0.4576271186440678
 40
0.4745762711864407
 40
0.4745762711864407
 40
0.4745762711864407
 40
0.4745762711864407
 40
0.4915254237288136
 40
0.4915254237288136
 40
0.4915254237288136
 40
0.4915254237288136
 40
0.5084745762711864
 40
0.5084745762711864
 40
0.5084745762711864
 40
0.5084745762711864
 40
0.5254237288135594
 40
0.5254237288135594
 40
0.5254237288135594
 40
0.5254237288135594
 40
0.5423728813559322
 40
0.5423728813559322
 40
0.5423728813559322
 40
0.5423728813559322
 40
0.559322033898305
 40
0.559322033898305
 40
0.559322033898305
 40
0.559322033898305
 40
0.576271186440678
 40
0.576271186440678
 40
0.576271186440678
 40
0.576271186440678
 40
0.5932203389830508
 40
0.5932203389830508
 40
0.5932203389830508
 40
0.5932203389830508
 40
0.6101694915254238
 40
0.6101694915254238
 40
0.6101694915254238
 40
0.6101694915254238
 40
0.6271186440677966
 40
0.6271186440677966
 40
0.6271186440677966
 40
0.6271186440677966
 40
0.6440677966101694
 40
0.6440677966101694
 40
0.6440677966101694
 40
0.6440677966101694
 40
0.6610169491525424
 40
0.6610169491525424
 40
0.6610169491525424
 40
0.6610169491525424
 40
0.6779661016949152
 40
0.6779661016949152
 40
0.6779661016949152
 40
0.6779661016949152
 40
0.6949152542372882
 40
0.6949152542372882
 40
0.6949152542372882
 40
0.6949152542372882
 40
0.711864406779661
 40
0.711864406779661
 40
0.711864406779661
 40
0.711864406779661
 40
0.7288135593220338
 40
0.7288135593220338
 40
0.7288135593220338
 40
0.7288135593220338
 40
0.7457627118644068
 40
0.7457627118644068
 40
0.7457627118644068
 40
0.7457627118644068
 40
0.7627118644067796
 40
0.7627118644067796
 40
0.7627118644067796
 40
0.7627118644067796
 40
0.7796610169491526
 40
0.7796610169491526
 40
0.7796610169491526
 40
0.7796610169491526
 40
0.7966101694915254
 40
0.7966101694915254
 40
0.7966101694915254
 40
0.7966101694915254
 40
0.8135593220338984
 40
0.8135593220338984
 40
0.8135593220338984
 40
0.8135593220338984
 40
0.8305084745762712
 40
0.8305084745762712
 40
0.8305084745762712
 40
0.8305084745762712
 40
0.847457627118644
 40
0.847457627118644
 40
0.847457627118644
 40
0.847457627118644
 40
0.864406779661017
 40
0.864406779661017
 40
0.864406779661017
 40
0.864406779661017
 40
0.8813559322033898
 40
0.8813559322033898
 40
0.8813559322033898
 40
0.8813559322033898
 40
0.8983050847457628
 40
0.8983050847457628
 40
0.8983050847457628
 40
0.8983050847457628
 40
0.9152542372881356
 40
0.9152542372881356
 40
0.9152542372881356
 40
0.9152542372881356
 40
0.9322033898305084
 40
0.9322033898305084
 40
0.9322033898305084
 40
0.9322033898305084
 40
0.9491525423728814
 40
0.9491525423728814
 40
0.9491525423728814
 40
0.9491525423728814
 40
0.9661016949152542
 40
0.9661016949152542
 40
0.9661016949152542
 40
0.9661016949152542
 40
1.0
 40
1.0
 40
1.0
 40
1.0
 10
-8.29998
 20
-10.69996
 30
0.0
 10
-8.29998
 20
-10.69996
 30
0.0
 10
-8.43341
 20
-10.69996
 30
0.0
 10
-8.43341
 20
-10.69996
 30
0.0
 10
-8.43341
 20
-10.69996
 30
0.0
 10
-8.43341
 20
-10.69996
 30
0.0
 10
-8.43341
 20
-10.88816
 30
0.0
 10
-8.43341
 20
-10.88816
 30
0.0
 10
-8.43341
 20
-10.88816
 30
0.0
 10
-8.43341
 20
-10.88816
 30
0.0
 10
-8.13312
 20
-10.88533
 30
0.0
 10
-8.13312
 20
-10.88533
 30
0.0
 10
-8.13312
 20
-10.88533
 30
0.0
 10
-7.92595
 20
-10.88533
 30
0.0
 10
-7.75795
 20
-11.05333
 30
0.0
 10
-7.75795
 20
-11.26051
 30
0.0
 10
-7.75795
 20
-11.26051
 30
0.0
 10
-7.75795
 20
-11.26051
 30
0.0
 10
-7.75795
 20
-11.94367
 30
0.0
 10
-7.75795
 20
-11.94367
 30
0.0
 10
-7.75795
 20
-11.94367
 30
0.0
 10
-7.75795
 20
-11.94367
 30
0.0
 10
-7.33805
 20
-11.94367
 30
0.0
 10
-7.33805
 20
-11.94367
 30
0.0
 10
-7.33805
 20
-11.94367
 30
0.0
 10
-6.92397
 20
-11.94367
 30
0.0
 10
-6.58794
 20
-12.27967
 30
0.0
 10
-6.58794
 20
-12.69375
 30
0.0
 10
-6.58794
 20
-12.69375
 30
0.0
 10
-6.58794
 20
-12.69375
 30
0.0
 10
-6.58794
 20
-13.44383
 30
0.0
 10
-6.58794
 20
-13.44383
 30
0.0
 10
-6.58794
 20
-13.44383
 30
0.0
 10
-6.58794
 20
-13.44383
 30
0.0
 10
-6.5841
 20
-13.67826
 30
0.0
 10
-6.5841
 20
-13.67826
 30
0.0
 10
-6.5841
 20
-13.67826
 30
0.0
 10
-6.5841
 20
-13.67826
 30
0.0
 10
-6.63365
 20
-13.67837
 30
0.0
 10
-6.63365
 20
-13.67837
 30
0.0
 10
-6.63365
 20
-13.67837
 30
0.0
 10
-6.63365
 20
-13.67837
 30
0.0
 10
-6.63366
 20
-14.07985
 30
0.0
 10
-6.63366
 20
-14.07985
 30
0.0
 10
-6.63366
 20
-14.07985
 30
0.0
 10
-6.63366
 20
-14.29745
 30
0.0
 10
-6.81005
 20
-14.4739
 30
0.0
 10
-7.02768
 20
-14.4739
 30
0.0
 10
-7.02768
 20
-14.4739
 30
0.0
 10
-7.24532
 20
-14.4739
 30
0.0
 10
-7.42174
 20
-14.29745
 30
0.0
 10
-7.43223
 20
-14.07948
 30
0.0
 10
-7.43223
 20
-14.07948
 30
0.0
 10
-7.44273
 20
-14.29675
 30
0.0
 10
-7.61915
 20
-14.47318
 30
0.0
 10
-7.83678
 20
-14.47318
 30
0.0
 10
-7.83678
 20
-14.47318
 30
0.0
 10
-8.0544
 20
-14.47318
 30
0.0
 10
-8.23082
 20
-14.29675
 30
0.0
 10
-8.23852
 20
-14.0793
 30
0.0
 10
-8.23852
 20
-14.0793
 30
0.0
 10
-8.24622
 20
-14.29711
 30
0.0
 10
-8.42264
 20
-14.47354
 30
0.0
 10
-8.64027
 20
-14.47354
 30
0.0
 10
-8.64027
 20
-14.47354
 30
0.0
 10
-8.85789
 20
-14.47354
 30
0.0
 10
-9.03431
 20
-14.29711
 30
0.0
 10
-9.0448
 20
-14.07912
 30
0.0
 10
-9.0448
 20
-14.07912
 30
0.0
 10
-9.05529
 20
-14.29639
 30
0.0
 10
-9.23172
 20
-14.47282
 30
0.0
 10
-9.44934
 20
-14.47282
 30
0.0
 10
-9.44934
 20
-14.47282
 30
0.0
 10
-9.66698
 20
-14.47282
 30
0.0
 10
-9.84341
 20
-14.29639
 30
0.0
 10
-9.84341
 20
-14.07876
 30
0.0
 10
-9.84341
 20
-14.07876
 30
0.0
 10
-9.84341
 20
-14.07876
 30
0.0
 10
-9.8434
 20
-13.68551
 30
0.0
 10
-9.8434
 20
-13.68551
 30
0.0
 10
-9.8434
 20
-13.68551
 30
0.0
 10
-9.8434
 20
-13.68551
 30
0.0
 10
-9.87093
 20
-13.68557
 30
0.0
 10
-9.87093
 20
-13.68557
 30
0.0
 10
-9.87093
 20
-13.68557
 30
0.0
 10
-9.87093
 20
-13.68557
 30
0.0
 10
-9.87619
 20
-11.26051
 30
0.0
 10
-9.87619
 20
-11.26051
 30
0.0
 10
-9.87619
 20
-11.26051
 30
0.0
 10
-9.87619
 20
-11.05465
 30
0.0
 10
-9.71031
 20
-10.88745
 30
0.0
 10
-9.50472
 20
-10.88533
 30
0.0
 10
-9.50472
 20
-10.88533
 30
0.0
 10
-9.50472
 20
-10.88533
 30
0.0
 10
-9.40284
 20
-10.88451
 30
0.0
 10
-9.40284
 20
-10.88451
 30
0.0
 10
-9.40284
 20
-10.88451
 30
0.0
 10
-9.40284
 20
-10.88451
 30
0.0
 10
-9.40284
 20
-10.69996
 30
0.0
 10
-9.40284
 20
-10.69996
 30
0.0
 10
-9.40284
 20
-10.69996
 30
0.0
 10
-9.40284
 20
-10.69996
 30
0.0
 10
-10.57068
 20
-10.69996
 30
0.0
 10
-10.57068
 20
-10.69996
 30
0.0
 10
-10.57068
 20
-10.69996
 30
0.0
 10
-10.57068
 20
-10.69996
 30
0.0
 10
-10.57068
 20
-10.89975
 30
0.0
 10
-10.57068
 20
-10.89975
 30
0.0
 10
-10.57068
 20
-10.89975
 30
0.0
 10
-10.3651
 20
-10.90187
 30
0.0
 10
-10.1992
 20
-11.06907
 30
0.0
 10
-10.1992
 20
-11.27492
 30
0.0
 10
-10.1992
 20
-11.27492
 30
0.0
 10
-10.1992
 20
-11.27492
 30
0.0
 10
-10.19925
 20
-13.45826
 30
0.0
 10
-10.19925
 20
-13.45826
 30
0.0
 10
-10.19925
 20
-13.45826
 30
0.0
 10
-10.19925
 20
-13.45826
 30
0.0
 10
-10.19929
 20
-13.68547
 30
0.0
 10
-10.19929
 20
-13.68547
 30
0.0
 10
-10.19929
 20
-13.68547
 30
0.0
 10
-10.19929
 20
-13.68547
 30
0.0
 10
-10.24395
 20
-13.68547
 30
0.0
 10
-10.24395
 20
-13.68547
 30
0.0
 10
-10.24395
 20
-13.68547
 30
0.0
 10
-10.24395
 20
-13.68547
 30
0.0
 10
-10.24396
 20
-14.08039
 30
0.0
 10
-10.24396
 20
-14.08039
 30
0.0
 10
-10.24396
 20
-14.08039
 30
0.0
 10
-10.24396
 20
-14.29799
 30
0.0
 10
-10.42035
 20
-14.47444
 30
0.0
 10
-10.63798
 20
-14.47444
 30
0.0
 10
-10.63798
 20
-14.47444
 30
0.0
 10
-10.85562
 20
-14.47444
 30
0.0
 10
-11.03204
 20
-14.29799
 30
0.0
 10
-11.04253
 20
-14.08002
 30
0.0
 10
-11.04253
 20
-14.08002
 30
0.0
 10
-11.05303
 20
-14.29729
 30
0.0
 10
-11.22945
 20
-14.47372
 30
0.0
 10
-11.44708
 20
-14.47372
 30
0.0
 10
-11.44708
 20
-14.47372
 30
0.0
 10
-11.6647
 20
-14.47372
 30
0.0
 10
-11.84112
 20
-14.29729
 30
0.0
 10
-11.84882
 20
-14.07984
 30
0.0
 10
-11.84882
 20
-14.07984
 30
0.0
 10
-11.85652
 20
-14.29765
 30
0.0
 10
-12.03294
 20
-14.47408
 30
0.0
 10
-12.25057
 20
-14.47408
 30
0.0
 10
-12.25057
 20
-14.47408
 30
0.0
 10
-12.46819
 20
-14.47408
 30
0.0
 10
-12.64461
 20
-14.29765
 30
0.0
 10
-12.6551
 20
-14.07966
 30
0.0
 10
-12.6551
 20
-14.07966
 30
0.0
 10
-12.66559
 20
-14.29693
 30
0.0
 10
-12.84202
 20
-14.47336
 30
0.0
 10
-13.05964
 20
-14.47336
 30
0.0
 10
-13.05964
 20
-14.47336
 30
0.0
 10
-13.27728
 20
-14.47336
 30
0.0
 10
-13.45371
 20
-14.29693
 30
0.0
 10
-13.45371
 20
-14.0793
 30
0.0
 10
-13.45371
 20
-14.0793
 30
0.0
 10
-13.45371
 20
-14.0793
 30
0.0
 10
-13.4537
 20
-13.68546
 30
0.0
 10
-13.4537
 20
-13.68546
 30
0.0
 10
-13.4537
 20
-13.68546
 30
0.0
 10
-13.4537
 20
-13.68546
 30
0.0
 10
-13.4887
 20
-13.68546
 30
0.0
 10
-13.4887
 20
-13.68546
 30
0.0
 10
-13.4887
 20
-13.68546
 30
0.0
 10
-13.4887
 20
-13.68546
 30
0.0
 10
-13.48745
 20
-13.45825
 30
0.0
 10
-13.48745
 20
-13.45825
 30
0.0
 10
-13.48745
 20
-13.45825
 30
0.0
 10
-13.48745
 20
-13.45825
 30
0.0
 10
-13.48744
 20
-12.70816
 30
0.0
 10
-13.48744
 20
-12.70816
 30
0.0
 10
-13.48744
 20
-12.70816
 30
0.0
 10
-13.48744
 20
-12.29409
 30
0.0
 10
-13.15142
 20
-11.95808
 30
0.0
 10
-12.73735
 20
-11.95808
 30
0.0
 10
-12.73735
 20
-11.95808
 30
0.0
 10
-12.73735
 20
-11.95808
 30
0.0
 10
-12.31745
 20
-11.95808
 30
0.0
 10
-12.31745
 20
-11.95808
 30
0.0
 10
-12.31745
 20
-11.95808
 30
0.0
 10
-12.31745
 20
-11.95808
 30
0.0
 10
-12.31745
 20
-11.27492
 30
0.0
 10
-12.31745
 20
-11.27492
 30
0.0
 10
-12.31745
 20
-11.27492
 30
0.0
 10
-12.31745
 20
-11.06775
 30
0.0
 10
-12.14945
 20
-10.89975
 30
0.0
 10
-11.94228
 20
-10.89975
 30
0.0
 10
-11.94228
 20
-10.89975
 30
0.0
 10
-11.94228
 20
-10.89975
 30
0.0
 10
-11.54568
 20
-10.89973
 30
0.0
 10
-11.54568
 20
-10.89973
 30
0.0
 10
-11.54568
 20
-10.89973
 30
0.0
 10
-11.54568
 20
-10.89973
 30
0.0
 10
-11.54568
 20
-10.69996
 30
0.0
 10
-11.54568
 20
-10.69996
 30
0.0
 10
-11.54568
 20
-10.69996
 30
0.0
 10
-11.54568
 20
-10.69996
 30
0.0
 10
-11.69998
 20
-10.69996
 30
0.0
 10
-11.69998
 20
-10.69996
 30
0.0
 10
-11.69998
 20
-10.69996
 30
0.0
 10
-11.97612
 20
-10.69996
 30
0.0
 10
-12.19998
 20
-10.4761
 30
0.0
 10
-12.19998
 20
-10.19996
 30
0.0
 10
-12.19998
 20
-10.19996
 30
0.0
 10
-12.19998
 20
-10.19996
 30
0.0
 10
-12.19998
 20
-9.79996
 30
0.0
 10
-12.19998
 20
-9.79996
 30
0.0
 10
-12.19998
 20
-9.79996
 30
0.0
 10
-12.19998
 20
-9.52382
 30
0.0
 10
-11.97612
 20
-9.29996
 30
0.0
 10
-11.69998
 20
-9.29996
 30
0.0
 10
-11.69998
 20
-9.29996
 30
0.0
 10
-11.69998
 20
-9.29996
 30
0.0
 10
-8.29998
 20
-9.29996
 30
0.0
 10
-8.29998
 20
-9.29996
 30
0.0
 10
-8.29998
 20
-9.29996
 30
0.0
 10
-8.02384
 20
-9.29996
 30
0.0
 10
-7.79998
 20
-9.52382
 30
0.0
 10
-7.79998
 20
-9.79996
 30
0.0
 10
-7.79998
 20
-9.79996
 30
0.0
 10
-7.79998
 20
-9.79996
 30
0.0
 10
-7.79998
 20
-10.19996
 30
0.0
 10
-7.79998
 20
-10.19996
 30
0.0
 10
-7.79998
 20
-10.19996
 30
0.0
 10
-7.79998
 20
-10.4761
 30
0.0
 10
-8.02384
 20
-10.69996
 30
0.0
 10
-8.29998
 20
-10.69996
 30
0.0
  0
SPLINE
  5
57
330
1F
100
AcDbEntity
  8
Layer 1
 62
     5
370
    53
100
AcDbSpline
210
0.0
220
0.0
230
1.0
 70
    24
 71
     3
 72
     8
 73
     4
 74
     0
 42
0.0000000001
 43
0.0000000001
 12
1.0
 22
0.0
 32
0.0
 13
1.0
 23
0.0
 33
0.0
 40
0.0
 40
0.0
 40
0.0
 40
0.0
 40
1.0
 40
1.0
 40
1.0
 40
1.0
 10
-13.4537
 20
-13.68546
 30
0.0
 10
-13.4537
 20
-13.68546
 30
0.0
 10
-10.24395
 20
-13.68546
 30
0.0
 10
-10.24395
 20
-13.68546
 30
0.0
  0
SPLINE
  5
58
330
1F
100
AcDbEntity
  8
Layer 1
 62
     5
370
    53
100
AcDbSpline
210
0.0
220
0.0
230
1.0
 70
    24
 71
     3
 72
     8
 73
     4
 74
     0
 42
0.0000000001
 43
0.0000000001
 12
1.0
 22
0.0
 32
0.0
 13
1.0
 23
0.0
 33
0.0
 40
0.0
 40
0.0
 40
0.0
 40
0.0
 40
1.0
 40
1.0
 40
1.0
 40
1.0
 10
-9.8434
 20
-13.68551
 30
0.0
 10
-9.8434
 20
-13.68551
 30
0.0
 10
-6.63365
 20
-13.67837
 30
0.0
 10
-6.63365
 20
-13.67837
 30
0.0
  0
SPLINE
  5
59
330
1F
100
AcDbEntity
  8
Layer 1
 62
     5
370
    53
100
AcDbSpline
210
0.0
220
0.0
230
1.0
 70
    11
 71
     3
 72
    20
 73
    16
 74
     0
 42
0.0000000001
 43
0.0000000001
 12
1.0
 22
0.0
 32
0.0
 13
1.0
 23
0.0
 33
0.0
 40
0.0
 40
0.0
 40
0.0
 40
0.0
 40
0.2
 40
0.2
 40
0.2
 40
0.2
 40
0.4
 40
0.4
 40
0.4
 40
0.4
 40
0.6
 40
0.6
 40
0.6
 40
0.6
 40
1.0
 40
1.0
 40
1.0
 40
1.0
 10
-6.85736
 20
-14.07985
 30
0.0
 10
-6.85736
 20
-14.17392
 30
0.0
 10
-6.93361
 20
-14.25017
 30
0.0
 10
-7.02768
 20
-14.25017
 30
0.0
 10
-7.02768
 20
-14.25017
 30
0.0
 10
-7.12176
 20
-14.25017
 30
0.0
 10
-7.19801
 20
-14.17392
 30
0.0
 10
-7.19801
 20
-14.07985
 30
0.0
 10
-7.19801
 20
-14.07985
 30
0.0
 10
-7.19801
 20
-13.98579
 30
0.0
 10
-7.12176
 20
-13.90954
 30
0.0
 10
-7.02768
 20
-13.90954
 30
0.0
 10
-7.02768
 20
-13.90954
 30
0.0
 10
-6.93361
 20
-13.90954
 30
0.0
 10
-6.85736
 20
-13.98579
 30
0.0
 10
-6.85736
 20
-14.07985
 30
0.0
  0
SPLINE
  5
5A
330
1F
100
AcDbEntity
  8
Layer 1
 62
     5
370
    53
100
AcDbSpline
210
0.0
220
0.0
230
1.0
 70
    11
 71
     3
 72
    20
 73
    16
 74
     0
 42
0.0000000001
 43
0.0000000001
 12
1.0
 22
0.0
 32
0.0
 13
1.0
 23
0.0
 33
0.0
 40
0.0
 40
0.0
 40
0.0
 40
0.0
 40
0.2
 40
0.2
 40
0.2
 40
0.2
 40
0.4
 40
0.4
 40
0.4
 40
0.4
 40
0.6
 40
0.6
 40
0.6
 40
0.6
 40
1.0
 40
1.0
 40
1.0
 40
1.0
 10
-7.66646
 20
-14.07912
 30
0.0
 10
-7.66646
 20
-14.1732
 30
0.0
 10
-7.7427
 20
-14.24944
 30
0.0
 10
-7.83676
 20
-14.24944
 30
0.0
 10
-7.83676
 20
-14.24944
 30
0.0
 10
-7.93083
 20
-14.24944
 30
0.0
 10
-8.00711
 20
-14.1732
 30
0.0
 10
-8.00711
 20
-14.07912
 30
0.0
 10
-8.00711
 20
-14.07912
 30
0.0
 10
-8.00711
 20
-13.98507
 30
0.0
 10
-7.93083
 20
-13.90882
 30
0.0
 10
-7.83676
 20
-13.90882
 30
0.0
 10
-7.83676
 20
-13.90882
 30
0.0
 10
-7.7427
 20
-13.90882
 30
0.0
 10
-7.66646
 20
-13.98507
 30
0.0
 10
-7.66646
 20
-14.07912
 30
0.0
  0
SPLINE
  5
5B
330
1F
100
AcDbEntity
  8
Layer 1
 62
     5
370
    53
100
AcDbSpline
210
0.0
220
0.0
230
1.0
 70
    11
 71
     3
 72
    20
 73
    16
 74
     0
 42
0.0000000001
 43
0.0000000001
 12
1.0
 22
0.0
 32
0.0
 13
1.0
 23
0.0
 33
0.0
 40
0.0
 40
0.0
 40
0.0
 40
0.0
 40
0.2
 40
0.2
 40
0.2
 40
0.2
 40
0.4
 40
0.4
 40
0.4
 40
0.4
 40
0.6
 40
0.6
 40
0.6
 40
0.6
 40
1.0
 40
1.0
 40
1.0
 40
1.0
 10
-8.46995
 20
-14.07949
 30
0.0
 10
-8.46995
 20
-14.17356
 30
0.0
 10
-8.5462
 20
-14.24981
 30
0.0
 10
-8.64025
 20
-14.24981
 30
0.0
 10
-8.64025
 20
-14.24981
 30
0.0
 10
-8.73432
 20
-14.24981
 30
0.0
 10
-8.8106
 20
-14.17356
 30
0.0
 10
-8.8106
 20
-14.07949
 30
0.0
 10
-8.8106
 20
-14.07949
 30
0.0
 10
-8.8106
 20
-13.98543
 30
0.0
 10
-8.73432
 20
-13.90918
 30
0.0
 10
-8.64025
 20
-13.90918
 30
0.0
 10
-8.64025
 20
-13.90918
 30
0.0
 10
-8.5462
 20
-13.90918
 30
0.0
 10
-8.46995
 20
-13.98543
 30
0.0
 10
-8.46995
 20
-14.07949
 30
0.0
  0
SPLINE
  5
5C
330
1F
100
AcDbEntity
  8
Layer 1
 62
     5
370
    53
100
AcDbSpline
210
0.0
220
0.0
230
1.0
 70
     8
 71
     3
 72
    36
 73
    32
 74
     0
 42
0.0000000001
 43
0.0000000001
 12
1.0
 22
0.0
 32
0.0
 13
1.0
 23
0.0
 33
0.0
 40
0.0
 40
0.0
 40
0.0
 40
0.0
 40
0.1111111111111111
 40
0.1111111111111111
 40
0.1111111111111111
 40
0.1111111111111111
 40
0.2222222222222222
 40
0.2222222222222222
 40
0.2222222222222222
 40
0.2222222222222222
 40
0.3333333333333333
 40
0.3333333333333333
 40
0.3333333333333333
 40
0.3333333333333333
 40
0.4444444444444444
 40
0.4444444444444444
 40
0.4444444444444444
 40
0.4444444444444444
 40
0.5555555555555556
 40
0.5555555555555556
 40
0.5555555555555556
 40
0.5555555555555556
 40
0.6666666666666666
 40
0.6666666666666666
 40
0.6666666666666666
 40
0.6666666666666666
 40
0.7777777777777778
 40
0.7777777777777778
 40
0.7777777777777778
 40
0.7777777777777778
 40
1.0
 40
1.0
 40
1.0
 40
1.0
 10
-9.84341
 20
-14.07876
 30
0.0
 10
-9.84341
 20
-13.86115
 30
0.0
 10
-9.66698
 20
-13.68472
 30
0.0
 10
-9.44934
 20
-13.68472
 30
0.0
 10
-9.44934
 20
-13.68472
 30
0.0
 10
-9.23172
 20
-13.68472
 30
0.0
 10
-9.05529
 20
-13.86115
 30
0.0
 10
-9.0448
 20
-14.07912
 30
0.0
 10
-9.0448
 20
-14.07912
 30
0.0
 10
-9.03431
 20
-13.86187
 30
0.0
 10
-8.85789
 20
-13.68545
 30
0.0
 10
-8.64027
 20
-13.68545
 30
0.0
 10
-8.64027
 20
-13.68545
 30
0.0
 10
-8.42264
 20
-13.68545
 30
0.0
 10
-8.24622
 20
-13.86187
 30
0.0
 10
-8.23852
 20
-14.0793
 30
0.0
 10
-8.23852
 20
-14.0793
 30
0.0
 10
-8.23082
 20
-13.86151
 30
0.0
 10
-8.0544
 20
-13.68508
 30
0.0
 10
-7.83678
 20
-13.68508
 30
0.0
 10
-7.83678
 20
-13.68508
 30
0.0
 10
-7.61915
 20
-13.68508
 30
0.0
 10
-7.44273
 20
-13.86151
 30
0.0
 10
-7.43223
 20
-14.07948
 30
0.0
 10
-7.43223
 20
-14.07948
 30
0.0
 10
-7.42174
 20
-13.86223
 30
0.0
 10
-7.24532
 20
-13.68579
 30
0.0
 10
-7.02768
 20
-13.68579
 30
0.0
 10
-7.02768
 20
-13.68579
 30
0.0
 10
-6.81005
 20
-13.68579
 30
0.0
 10
-6.63366
 20
-13.86223
 30
0.0
 10
-6.63366
 20
-14.07985
 30
0.0
  0
SPLINE
  5
5D
330
1F
100
AcDbEntity
  8
Layer 1
 62
     5
370
    53
100
AcDbSpline
210
0.0
220
0.0
230
1.0
 70
    11
 71
     3
 72
    20
 73
    16
 74
     0
 42
0.0000000001
 43
0.0000000001
 12
1.0
 22
0.0
 32
0.0
 13
1.0
 23
0.0
 33
0.0
 40
0.0
 40
0.0
 40
0.0
 40
0.0
 40
0.2
 40
0.2
 40
0.2
 40
0.2
 40
0.4
 40
0.4
 40
0.4
 40
0.4
 40
0.6
 40
0.6
 40
0.6
 40
0.6
 40
1.0
 40
1.0
 40
1.0
 40
1.0
 10
-9.27902
 20
-14.07876
 30
0.0
 10
-9.27902
 20
-14.17284
 30
0.0
 10
-9.35527
 20
-14.24908
 30
0.0
 10
-9.44934
 20
-14.24908
 30
0.0
 10
-9.44934
 20
-14.24908
 30
0.0
 10
-9.5434
 20
-14.24908
 30
0.0
 10
-9.61967
 20
-14.17284
 30
0.0
 10
-9.61967
 20
-14.07876
 30
0.0
 10
-9.61967
 20
-14.07876
 30
0.0
 10
-9.61967
 20
-13.98471
 30
0.0
 10
-9.5434
 20
-13.90846
 30
0.0
 10
-9.44934
 20
-13.90846
 30
0.0
 10
-9.44934
 20
-13.90846
 30
0.0
 10
-9.35527
 20
-13.90846
 30
0.0
 10
-9.27902
 20
-13.98471
 30
0.0
 10
-9.27902
 20
-14.07876
 30
0.0
  0
SPLINE
  5
5E
330
1F
100
AcDbEntity
  8
Layer 1
370
    53
100
AcDbSpline
210
0.0
220
0.0
230
1.0
 70
    11
 71
     3
 72
    20
 73
    16
 74
     0
 42
0.0000000001
 43
0.0000000001
 12
1.0
 22
0.0
 32
0.0
 13
1.0
 23
0.0
 33
0.0
 40
0.0
 40
0.0
 40
0.0
 40
0.0
 40
0.2
 40
0.2
 40
0.2
 40
0.2
 40
0.4
 40
0.4
 40
0.4
 40
0.4
 40
0.6
 40
0.6
 40
0.6
 40
0.6
 40
1.0
 40
1.0
 40
1.0
 40
1.0
 10
-11.82498
 20
-9.99996
 30
0.0
 10
-11.82498
 20
-9.82047
 30
0.0
 10
-11.67947
 20
-9.67496
 30
0.0
 10
-11.49998
 20
-9.67496
 30
0.0
 10
-11.49998
 20
-9.67496
 30
0.0
 10
-11.32049
 20
-9.67496
 30
0.0
 10
-11.17498
 20
-9.82047
 30
0.0
 10
-11.17498
 20
-9.99996
 30
0.0
 10
-11.17498
 20
-9.99996
 30
0.0
 10
-11.17498
 20
-10.17945
 30
0.0
 10
-11.32049
 20
-10.32496
 30
0.0
 10
-11.49998
 20
-10.32496
 30
0.0
 10
-11.49998
 20
-10.32496
 30
0.0
 10
-11.67947
 20
-10.32496
 30
0.0
 10
-11.82498
 20
-10.17945
 30
0.0
 10
-11.82498
 20
-9.99996
 30
0.0
  0
SPLINE
  5
5F
330
1F
100
AcDbEntity
  8
Layer 1
370
    53
100
AcDbSpline
210
0.0
220
0.0
230
1.0
 70
    11
 71
     3
 72
    20
 73
    16
 74
     0
 42
0.0000000001
 43
0.0000000001
 12
1.0
 22
0.0
 32
0.0
 13
1.0
 23
0.0
 33
0.0
 40
0.0
 40
0.0
 40
0.0
 40
0.0
 40
0.2
 40
0.2
 40
0.2
 40
0.2
 40
0.4
 40
0.4
 40
0.4
 40
0.4
 40
0.6
 40
0.6
 40
0.6
 40
0.6
 40
1.0
 40
1.0
 40
1.0
 40
1.0
 10
-10.92998
 20
-9.99996
 30
0.0
 10
-10.92998
 20
-9.90055
 30
0.0
 10
-10.84939
 20
-9.81996
 30
0.0
 10
-10.74998
 20
-9.81996
 30
0.0
 10
-10.74998
 20
-9.81996
 30
0.0
 10
-10.65057
 20
-9.81996
 30
0.0
 10
-10.56998
 20
-9.90055
 30
0.0
 10
-10.56998
 20
-9.99996
 30
0.0
 10
-10.56998
 20
-9.99996
 30
0.0
 10
-10.56998
 20
-10.09937
 30
0.0
 10
-10.65057
 20
-10.17996
 30
0.0
 10
-10.74998
 20
-10.17996
 30
0.0
 10
-10.74998
 20
-10.17996
 30
0.0
 10
-10.84939
 20
-10.17996
 30
0.0
 10
-10.92998
 20
-10.09937
 30
0.0
 10
-10.92998
 20
-9.99996
 30
0.0
  0
SPLINE
  5
60
330
1F
100
AcDbEntity
  8
Layer 1
370
    53
100
AcDbSpline
210
0.0
220
0.0
230
1.0
 70
    11
 71
     3
 72
    20
 73
    16
 74
     0
 42
0.0000000001
 43
0.0000000001
 12
1.0
 22
0.0
 32
0.0
 13
1.0
 23
0.0
 33
0.0
 40
0.0
 40
0.0
 40
0.0
 40
0.0
 40
0.2
 40
0.2
 40
0.2
 40
0.2
 40
0.4
 40
0.4
 40
0.4
 40
0.4
 40
0.6
 40
0.6
 40
0.6
 40
0.6
 40
1.0
 40
1.0
 40
1.0
 40
1.0
 10
-9.42998
 20
-9.99996
 30
0.0
 10
-9.42998
 20
-9.90055
 30
0.0
 10
-9.34939
 20
-9.81996
 30
0.0
 10
-9.24998
 20
-9.81996
 30
0.0
 10
-9.24998
 20
-9.81996
 30
0.0
 10
-9.15057
 20
-9.81996
 30
0.0
 10
-9.06998
 20
-9.90055
 30
0.0
 10
-9.06998
 20
-9.99996
 30
0.0
 10
-9.06998
 20
-9.99996
 30
0.0
 10
-9.06998
 20
-10.09937
 30
0.0
 10
-9.15057
 20
-10.17996
 30
0.0
 10
-9.24998
 20
-10.17996
 30
0.0
 10
-9.24998
 20
-10.17996
 30
0.0
 10
-9.34939
 20
-10.17996
 30
0.0
 10
-9.42998
 20
-10.09937
 30
0.0
 10
-9.42998
 20
-9.99996
 30
0.0
  0
ENDSEC
  0
SECTION
  2
OBJECTS
  0
DICTIONARY
  5
C
330
0
100
AcDbDictionary
281
     1
  3
ACAD_GROUP
350
D
  3
ACAD_LAYOUT
350
1A
  3
ACAD_MATERIAL
350
3B
  3
ACAD_MLEADERSTYLE
350
82
  3
ACAD_MLINESTYLE
350
17
  3
ACAD_PLOTSETTINGS
350
19
  3
ACAD_PLOTSTYLENAME
350
E
  3
ACAD_TABLESTYLE
350
81
  3
ACAD_VISUALSTYLE
350
2A
  0
DICTIONARY
  5
D
102
{ACAD_REACTORS
330
C
102
}
330
C
100
AcDbDictionary
281
     1
  0
DICTIONARY
  5
1A
102
{ACAD_REACTORS
330
C
102
}
330
C
100
AcDbDictionary
281
     1
  3
Layout1
350
1E
  3
Layout2
350
26
  3
Model
350
22
  0
DICTIONARY
  5
3B
102
{ACAD_REACTORS
330
C
102
}
330
C
100
AcDbDictionary
281
     1
  3
ByBlock
350
3D
  3
ByLayer
350
3C
  3
Global
350
3E
  0
DICTIONARY
  5
82
102
{ACAD_REACTORS
330
C
102
}
330
C
100
AcDbDictionary
281
     1
  0
DICTIONARY
  5
17
102
{ACAD_REACTORS
330
C
102
}
330
C
100
AcDbDictionary
281
     1
  3
Standard
350
18
  0
DICTIONARY
  5
19
102
{ACAD_REACTORS
330
C
102
}
330
C
100
AcDbDictionary
281
     1
  0
ACDBDICTIONARYWDFLT
  5
E
102
{ACAD_REACTORS
330
C
102
}
330
C
100
AcDbDictionary
281
     1
  3
Normal
350
F
100
AcDbDictionaryWithDefault
340
F
  0
DICTIONARY
  5
81
102
{ACAD_REACTORS
330
C
102
}
330
C
100
AcDbDictionary
281
     1
  0
DICTIONARY
  5
2A
102
{ACAD_REACTORS
330
C
102
}
330
C
100
AcDbDictionary
281
     1
  3
2dWireframe
350
2F
  3
3D Hidden
350
31
  3
3dWireframe
350
30
  3
Basic
350
32
  3
Brighten
350
36
  3
ColorChange
350
3A
  3
Conceptual
350
34
  3
Dim
350
35
  3
Facepattern
350
39
  3
Flat
350
2B
  3
FlatWithEdges
350
2C
  3
Gouraud
350
2D
  3
GouraudWithEdges
350
2E
  3
Linepattern
350
38
  3
Realistic
350
33
  3
Thicken
350
37
  0
LAYOUT
  5
1E
102
{ACAD_REACTORS
330
1A
102
}
330
1A
100
AcDbPlotSettings
  1

  2
none_device
  4

  6

 40
0.0
 41
0.0
 42
0.0
 43
0.0
 44
0.0
 45
0.0
 46
0.0
 47
0.0
 48
0.0
 49
0.0
140
0.0
141
0.0
142
1.0
143
1.0
 70
   688
 72
     0
 73
     0
 74
     5
  7

 75
    16
 76
     0
 77
     2
 78
   300
147
1.0
148
0.0
149
0.0
100
AcDbLayout
  1
Layout1
 70
     1
 71
     1
 10
0.0
 20
0.0
 11
12.0
 21
9.0
 12
0.0
 22
0.0
 32
0.0
 14
1.000000000000000E+20
 24
1.000000000000000E+20
 34
1.000000000000000E+20
 15
-1.000000000000000E+20
 25
-1.000000000000000E+20
 35
-1.000000000000000E+20
146
0.0
 13
0.0
 23
0.0
 33
0.0
 16
1.0
 26
0.0
 36
0.0
 17
0.0
 27
1.0
 37
0.0
 76
     0
330
1B
  0
LAYOUT
  5
26
102
{ACAD_REACTORS
330
1A
102
}
330
1A
100
AcDbPlotSettings
  1

  2
none_device
  4

  6

 40
0.0
 41
0.0
 42
0.0
 43
0.0
 44
0.0
 45
0.0
 46
0.0
 47
0.0
 48
0.0
 49
0.0
140
0.0
141
0.0
142
1.0
143
1.0
 70
   688
 72
     0
 73
     0
 74
     5
  7

 75
    16
 76
     0
 77
     2
 78
   300
147
1.0
148
0.0
149
0.0
100
AcDbLayout
  1
Layout2
 70
     1
 71
     2
 10
0.0
 20
0.0
 11
0.0
 21
0.0
 12
0.0
 22
0.0
 32
0.0
 14
0.0
 24
0.0
 34
0.0
 15
0.0
 25
0.0
 35
0.0
146
0.0
 13
0.0
 23
0.0
 33
0.0
 16
1.0
 26
0.0
 36
0.0
 17
0.0
 27
1.0
 37
0.0
 76
     0
330
23
  0
LAYOUT
  5
22
102
{ACAD_REACTORS
330
1A
102
}
330
1A
100
AcDbPlotSettings
  1

  2
none_device
  4

  6

 40
0.0
 41
0.0
 42
0.0
 43
0.0
 44
0.0
 45
0.0
 46
0.0
 47
0.0
 48
0.0
 49
0.0
140
0.0
141
0.0
142
1.0
143
1.0
 70
  1712
 72
     0
 73
     0
 74
     0
  7

 75
     0
 76
     0
 77
     2
 78
   300
147
1.0
148
0.0
149
0.0
100
AcDbLayout
  1
Model
 70
     1
 71
     0
 10
0.0
 20
0.0
 11
12.0
 21
9.0
 12
0.0
 22
0.0
 32
0.0
 14
-13.51516
 24
-14.5009
 34
0.0
 15
-6.55764
 25
-9.2735
 35
0.0
146
0.0
 13
0.0
 23
0.0
 33
0.0
 16
1.0
 26
0.0
 36
0.0
 17
0.0
 27
1.0
 37
0.0
 76
     0
330
1F
331
29
  0
MATERIAL
  5
3D
102
{ACAD_REACTORS
330
3B
102
}
330
3B
100
AcDbMaterial
  1
ByBlock
 72
     1
 94
      127
  0
MATERIAL
  5
3C
102
{ACAD_REACTORS
330
3B
102
}
330
3B
100
AcDbMaterial
  1
ByLayer
 72
     1
 94
      127
  0
MATERIAL
  5
3E
102
{ACAD_REACTORS
330
3B
102
}
330
3B
100
AcDbMaterial
  1
Global
 72
     1
 94
      127
  0
MLINESTYLE
  5
18
102
{ACAD_REACTORS
330
17
102
}
330
17
100
AcDbMlineStyle
  2
Standard
 70
     0
  3

 62
   256
 51
90.0
 52
90.0
 71
     2
 49
0.5
 62
   256
  6
BYLAYER
 49
-0.5
 62
   256
  6
BYLAYER
  0
ACDBPLACEHOLDER
  5
F
102
{ACAD_REACTORS
330
E
102
}
330
E
  0
VISUALSTYLE
  5
2F
102
{ACAD_REACTORS
330
2A
102
}
102
{ACAD_XDICTIONARY
360
69
102
}
330
2A
100
AcDbVisualStyle
  2
2dWireframe
 70
     4
 71
     0
 72
     2
 73
     0
 90
        0
 40
-0.6
 41
-30.0
 62
     5
 63
     7
421
 16777215
 74
     1
 91
        4
 64
     7
 65
   257
 75
     1
175
     1
 42
1.0
 92
        0
 66
   257
 43
1.0
 76
     1
 77
     6
 78
     2
 67
     7
 79
     5
170
     0
171
     0
290
     0
174
     0
 93
        1
 44
0.0
173
     0
291
     0
 45
0.0
  0
VISUALSTYLE
  5
31
102
{ACAD_REACTORS
330
2A
102
}
102
{ACAD_XDICTIONARY
360
6D
102
}
330
2A
100
AcDbVisualStyle
  2
3D Hidden
 70
     6
 71
     1
 72
     2
 73
     2
 90
        0
 40
-0.6
 41
-30.0
 62
     5
 63
     7
421
 16777215
 74
     2
 91
        2
 64
     7
 65
   257
 75
     2
175
     1
 42
40.0
 92
        0
 66
   257
 43
1.0
 76
     1
 77
     6
 78
     2
 67
     7
 79
     3
170
     0
171
     0
290
     0
174
     0
 93
        1
 44
0.0
173
     0
291
     0
 45
0.0
  0
VISUALSTYLE
  5
30
102
{ACAD_REACTORS
330
2A
102
}
102
{ACAD_XDICTIONARY
360
6B
102
}
330
2A
100
AcDbVisualStyle
  2
3dWireframe
 70
     5
 71
     0
 72
     2
 73
     0
 90
        0
 40
-0.6
 41
-30.0
 62
     5
 63
     7
421
 16777215
 74
     1
 91
        4
 64
     7
 65
   257
 75
     1
175
     1
 42
1.0
 92
        0
 66
   257
 43
1.0
 76
     1
 77
     6
 78
     2
 67
     7
 79
     5
170
     0
171
     0
290
     0
174
     0
 93
        1
 44
0.0
173
     0
291
     0
 45
0.0
  0
VISUALSTYLE
  5
32
102
{ACAD_REACTORS
330
2A
102
}
102
{ACAD_XDICTIONARY
360
6F
102
}
330
2A
100
AcDbVisualStyle
  2
Basic
 70
     7
 71
     1
 72
     0
 73
     1
 90
        0
 40
-0.6
 41
-30.0
 62
     5
 63
     7
421
 16777215
 74
     0
 91
        4
 64
     7
 65
   257
 75
     1
175
     1
 42
1.0
 92
        8
 66
     7
 43
1.0
 76
     1
 77
     6
 78
     2
 67
     7
 79
     5
170
     0
171
     0
290
     0
174
     0
 93
        1
 44
0.0
173
     0
291
     1
 45
0.0
  0
VISUALSTYLE
  5
36
102
{ACAD_REACTORS
330
2A
102
}
102
{ACAD_XDICTIONARY
360
77
102
}
330
2A
100
AcDbVisualStyle
  2
Brighten
 70
    12
 71
     2
 72
     2
 73
     0
 90
        0
 40
-0.6
 41
-30.0
 62
     5
 63
     7
421
 16777215
 74
     1
 91
        4
 64
     7
 65
   257
 75
     1
175
     1
 42
1.0
 92
        8
 66
     7
 43
1.0
 76
     1
 77
     6
 78
     2
 67
     7
 79
     5
170
     0
171
     0
290
     0
174
     0
 93
        1
 44
50.0
173
     0
291
     1
 45
0.0
  0
VISUALSTYLE
  5
3A
102
{ACAD_REACTORS
330
2A
102
}
102
{ACAD_XDICTIONARY
360
7F
102
}
330
2A
100
AcDbVisualStyle
  2
ColorChange
 70
    16
 71
     2
 72
     2
 73
     3
 90
        0
 40
-0.6
 41
-30.0
 62
     5
 63
     8
421
  8421504
 74
     1
 91
        4
 64
     7
 65
   257
 75
     1
175
     1
 42
1.0
 92
        8
 66
     8
424
  8421504
 43
1.0
 76
     1
 77
     6
 78
     2
 67
     7
 79
     5
170
     0
171
     0
290
     0
174
     0
 93
        1
 44
0.0
173
     0
291
     1
 45
0.0
  0
VISUALSTYLE
  5
34
102
{ACAD_REACTORS
330
2A
102
}
102
{ACAD_XDICTIONARY
360
73
102
}
330
2A
100
AcDbVisualStyle
  2
Conceptual
 70
     9
 71
     3
 72
     2
 73
     0
 90
        0
 40
-0.6
 41
-30.0
 62
     5
 63
     7
421
 16777215
 74
     2
 91
        2
 64
     7
 65
   257
 75
     1
175
     1
 42
40.0
 92
        8
 66
     7
 43
1.0
 76
     1
 77
     6
 78
     2
 67
     7
 79
     3
170
     0
171
     0
290
     0
174
     0
 93
        1
 44
0.0
173
     0
291
     0
 45
0.0
  0
VISUALSTYLE
  5
35
102
{ACAD_REACTORS
330
2A
102
}
102
{ACAD_XDICTIONARY
360
75
102
}
330
2A
100
AcDbVisualStyle
  2
Dim
 70
    11
 71
     2
 72
     2
 73
     0
 90
        0
 40
-0.6
 41
-30.0
 62
     5
 63
     7
421
 16777215
 74
     1
 91
        4
 64
     7
 65
   257
 75
     1
175
     1
 42
1.0
 92
        8
 66
     7
 43
1.0
 76
     1
 77
     6
 78
     2
 67
     7
 79
     5
170
     0
171
     0
290
     0
174
     0
 93
        1
 44
-50.0
173
     0
291
     1
 45
0.0
  0
VISUALSTYLE
  5
39
102
{ACAD_REACTORS
330
2A
102
}
102
{ACAD_XDICTIONARY
360
7D
102
}
330
2A
100
AcDbVisualStyle
  2
Facepattern
 70
    15
 71
     2
 72
     2
 73
     0
 90
        0
 40
-0.6
 41
-30.0
 62
     5
 63
     7
421
 16777215
 74
     1
 91
        4
 64
     7
 65
   257
 75
     1
175
     1
 42
1.0
 92
        8
 66
     7
 43
1.0
 76
     1
 77
     6
 78
     2
 67
     7
 79
     5
170
     0
171
     0
290
     0
174
     0
 93
        1
 44
0.0
173
     0
291
     1
 45
0.0
  0
VISUALSTYLE
  5
2B
102
{ACAD_REACTORS
330
2A
102
}
102
{ACAD_XDICTIONARY
360
61
102
}
330
2A
100
AcDbVisualStyle
  2
Flat
 70
     0
 71
     2
 72
     1
 73
     1
 90
        2
 40
-0.6
 41
30.0
 62
     5
 63
     7
421
 16777215
 74
     0
 91
        4
 64
     7
 65
   257
 75
     1
175
     1
 42
1.0
 92
        8
 66
     7
 43
1.0
 76
     1
 77
     6
 78
     2
 67
     7
 79
     5
170
     0
171
     0
290
     0
174
     0
 93
       13
 44
0.0
173
     0
291
     1
 45
0.0
  0
VISUALSTYLE
  5
2C
102
{ACAD_REACTORS
330
2A
102
}
102
{ACAD_XDICTIONARY
360
63
102
}
330
2A
100
AcDbVisualStyle
  2
FlatWithEdges
 70
     1
 71
     2
 72
     1
 73
     1
 90
        2
 40
-0.6
 41
30.0
 62
     5
 63
     7
421
 16777215
 74
     1
 91
        4
 64
     7
 65
   257
 75
     1
175
     1
 42
1.0
 92
        0
 66
   257
 43
1.0
 76
     1
 77
     6
 78
     2
 67
     7
 79
     5
170
     0
171
     0
290
     0
174
     0
 93
       13
 44
0.0
173
     0
291
     1
 45
0.0
  0
VISUALSTYLE
  5
2D
102
{ACAD_REACTORS
330
2A
102
}
102
{ACAD_XDICTIONARY
360
65
102
}
330
2A
100
AcDbVisualStyle
  2
Gouraud
 70
     2
 71
     2
 72
     2
 73
     1
 90
        2
 40
-0.6
 41
30.0
 62
     5
 63
     7
421
 16777215
 74
     0
 91
        4
 64
     7
 65
   257
 75
     1
175
     1
 42
1.0
 92
        0
 66
     7
 43
1.0
 76
     1
 77
     6
 78
     2
 67
     7
 79
     5
170
     0
171
     0
290
     0
174
     0
 93
       13
 44
0.0
173
     0
291
     1
 45
0.0
  0
VISUALSTYLE
  5
2E
102
{ACAD_REACTORS
330
2A
102
}
102
{ACAD_XDICTIONARY
360
67
102
}
330
2A
100
AcDbVisualStyle
  2
GouraudWithEdges
 70
     3
 71
     2
 72
     2
 73
     1
 90
        2
 40
-0.6
 41
30.0
 62
     5
 63
     7
421
 16777215
 74
     1
 91
        4
 64
     7
 65
   257
 75
     1
175
     1
 42
1.0
 92
        0
 66
   257
 43
1.0
 76
     1
 77
     6
 78
     2
 67
     7
 79
     5
170
     0
171
     0
290
     0
174
     0
 93
       13
 44
0.0
173
     0
291
     1
 45
0.0
  0
VISUALSTYLE
  5
38
102
{ACAD_REACTORS
330
2A
102
}
102
{ACAD_XDICTIONARY
360
7B
102
}
330
2A
100
AcDbVisualStyle
  2
Linepattern
 70
    14
 71
     2
 72
     2
 73
     0
 90
        0
 40
-0.6
 41
-30.0
 62
     5
 63
     7
421
 16777215
 74
     1
 91
        4
 64
     7
 65
   257
 75
     7
175
     7
 42
1.0
 92
        8
 66
     7
 43
1.0
 76
     1
 77
     6
 78
     2
 67
     7
 79
     5
170
     0
171
     0
290
     0
174
     0
 93
        1
 44
0.0
173
     0
291
     1
 45
0.0
  0
VISUALSTYLE
  5
33
102
{ACAD_REACTORS
330
2A
102
}
102
{ACAD_XDICTIONARY
360
71
102
}
330
2A
100
AcDbVisualStyle
  2
Realistic
 70
     8
 71
     2
 72
     2
 73
     0
 90
        0
 40
-0.6
 41
-30.0
 62
     5
 63
     7
421
 16777215
 74
     1
 91
        0
 64
     7
 65
   257
 75
     1
175
     1
 42
1.0
 92
        8
 66
     8
424
  7895160
 43
1.0
 76
     1
 77
     6
 78
     2
 67
     7
 79
     5
170
     0
171
     0
290
     0
174
     0
 93
       13
 44
0.0
173
     0
291
     0
 45
0.0
  0
VISUALSTYLE
  5
37
102
{ACAD_REACTORS
330
2A
102
}
102
{ACAD_XDICTIONARY
360
79
102
}
330
2A
100
AcDbVisualStyle
  2
Thicken
 70
    13
 71
     2
 72
     2
 73
     0
 90
        0
 40
-0.6
 41
-30.0
 62
     5
 63
     7
421
 16777215
 74
     1
 91
        4
 64
     7
 65
   257
 75
     1
175
     1
 42
1.0
 92
       12
 66
     7
 43
1.0
 76
     1
 77
     6
 78
     2
 67
     7
 79
     5
170
     0
171
     0
290
     0
174
     0
 93
        1
 44
0.0
173
     0
291
     1
 45
0.0
  0
DICTIONARY
  5
69
330
2F
100
AcDbDictionary
280
     1
281
     1
  3
ACAD_XREC_ROUNDTRIP
360
6A
  0
DICTIONARY
  5
6D
330
31
100
AcDbDictionary
280
     1
281
     1
  3
ACAD_XREC_ROUNDTRIP
360
6E
  0
DICTIONARY
  5
6B
330
30
100
AcDbDictionary
280
     1
281
     1
  3
ACAD_XREC_ROUNDTRIP
360
6C
  0
DICTIONARY
  5
6F
330
32
100
AcDbDictionary
280
     1
281
     1
  3
ACAD_XREC_ROUNDTRIP
360
70
  0
DICTIONARY
  5
77
330
36
100
AcDbDictionary
280
     1
281
     1
  3
ACAD_XREC_ROUNDTRIP
360
78
  0
DICTIONARY
  5
7F
330
3A
100
AcDbDictionary
280
     1
281
     1
  3
ACAD_XREC_ROUNDTRIP
360
80
  0
DICTIONARY
  5
73
330
34
100
AcDbDictionary
280
     1
281
     1
  3
ACAD_XREC_ROUNDTRIP
360
74
  0
DICTIONARY
  5
75
330
35
100
AcDbDictionary
280
     1
281
     1
  3
ACAD_XREC_ROUNDTRIP
360
76
  0
DICTIONARY
  5
7D
330
39
100
AcDbDictionary
280
     1
281
     1
  3
ACAD_XREC_ROUNDTRIP
360
7E
  0
DICTIONARY
  5
61
330
2B
100
AcDbDictionary
280
     1
281
     1
  3
ACAD_XREC_ROUNDTRIP
360
62
  0
DICTIONARY
  5
63
330
2C
100
AcDbDictionary
280
     1
281
     1
  3
ACAD_XREC_ROUNDTRIP
360
64
  0
DICTIONARY
  5
65
330
2D
100
AcDbDictionary
280
     1
281
     1
  3
ACAD_XREC_ROUNDTRIP
360
66
  0
DICTIONARY
  5
67
330
2E
100
AcDbDictionary
280
     1
281
     1
  3
ACAD_XREC_ROUNDTRIP
360
68
  0
DICTIONARY
  5
7B
330
38
100
AcDbDictionary
280
     1
281
     1
  3
ACAD_XREC_ROUNDTRIP
360
7C
  0
DICTIONARY
  5
71
330
33
100
AcDbDictionary
280
     1
281
     1
  3
ACAD_XREC_ROUNDTRIP
360
72
  0
DICTIONARY
  5
79
330
37
100
AcDbDictionary
280
     1
281
     1
  3
ACAD_XREC_ROUNDTRIP
360
7A
  0
XRECORD
  5
6A
102
{ACAD_REACTORS
330
69
102
}
330
69
100
AcDbXrecord
280
     1
102
RTVSPropertyOp0
 70
     1
102
RTVSPropertyOp1
 70
     1
102
RTVSPropertyOp2
 70
     1
102
RTVSPropertyOp3
 70
     1
102
RTVSPropertyOp4
 70
     1
102
RTVSPropertyOp5
 70
     1
102
RTVSPropertyOp6
 70
     1
102
RTVSPropertyOp7
 70
     1
102
RTVSPropertyOp8
 70
     1
102
RTVSPropertyOp9
 70
     1
102
RTVSPropertyOp10
 70
     1
102
RTVSPropertyOp11
 70
     1
102
RTVSPropertyOp12
 70
     1
102
RTVSPropertyOp13
 70
     1
102
RTVSPropertyOp14
 70
     1
102
RTVSPropertyOp15
 70
     1
102
RTVSPropertyOp16
 70
     1
102
RTVSPropertyOp17
 70
     1
102
RTVSPropertyOp18
 70
     1
102
RTVSPropertyOp19
 70
     1
102
RTVSPropertyOp20
 70
     1
102
RTVSPropertyOp21
 70
     1
102
RTVSPropertyOp22
 70
     1
102
RTVSPropertyOp23
 70
     1
102
RTVSPropertyOp24
 70
     1
102
RTVSPropertyOp25
 70
     1
102
RTVSPropertyOp26
 70
     1
102
RTVSPropertyOp27
 70
     1
102
RTVSPropertyOp28
 70
     1
102
RTVSPropertyOp29
 70
     1
102
RTVSPropertyOp30
 70
     1
102
RTVSPropertyOp31
 70
     1
102
RTVSPropertyOp32
 70
     1
  0
XRECORD
  5
6E
102
{ACAD_REACTORS
330
6D
102
}
330
6D
100
AcDbXrecord
280
     1
102
RTVSPropertyOp0
 70
     1
102
RTVSPropertyOp1
 70
     1
102
RTVSPropertyOp2
 70
     1
102
RTVSPropertyOp3
 70
     1
102
RTVSPropertyOp4
 70
     1
102
RTVSPropertyOp5
 70
     1
102
RTVSPropertyOp6
 70
     1
102
RTVSPropertyOp7
 70
     1
102
RTVSPropertyOp8
 70
     1
102
RTVSPropertyOp9
 70
     1
102
RTVSPropertyOp10
 70
     1
102
RTVSPropertyOp11
 70
     1
102
RTVSPropertyOp12
 70
     1
102
RTVSPropertyOp13
 70
     1
102
RTVSPropertyOp14
 70
     1
102
RTVSPropertyOp15
 70
     1
102
RTVSPropertyOp16
 70
     1
102
RTVSPropertyOp17
 70
     1
102
RTVSPropertyOp18
 70
     1
102
RTVSPropertyOp19
 70
     1
102
RTVSPropertyOp20
 70
     1
102
RTVSPropertyOp21
 70
     1
102
RTVSPropertyOp22
 70
     1
102
RTVSPropertyOp23
 70
     1
102
RTVSPropertyOp24
 70
     1
102
RTVSPropertyOp25
 70
     1
102
RTVSPropertyOp26
 70
     1
102
RTVSPropertyOp27
 70
     1
102
RTVSPropertyOp28
 70
     1
102
RTVSPropertyOp29
 70
     1
102
RTVSPropertyOp30
 70
     1
102
RTVSPropertyOp31
 70
     1
102
RTVSPropertyOp32
 70
     1
  0
XRECORD
  5
6C
102
{ACAD_REACTORS
330
6B
102
}
330
6B
100
AcDbXrecord
280
     1
102
RTVSPropertyOp0
 70
     1
102
RTVSPropertyOp1
 70
     1
102
RTVSPropertyOp2
 70
     1
102
RTVSPropertyOp3
 70
     1
102
RTVSPropertyOp4
 70
     1
102
RTVSPropertyOp5
 70
     1
102
RTVSPropertyOp6
 70
     1
102
RTVSPropertyOp7
 70
     1
102
RTVSPropertyOp8
 70
     1
102
RTVSPropertyOp9
 70
     1
102
RTVSPropertyOp10
 70
     1
102
RTVSPropertyOp11
 70
     1
102
RTVSPropertyOp12
 70
     1
102
RTVSPropertyOp13
 70
     1
102
RTVSPropertyOp14
 70
     1
102
RTVSPropertyOp15
 70
     1
102
RTVSPropertyOp16
 70
     1
102
RTVSPropertyOp17
 70
     1
102
RTVSPropertyOp18
 70
     1
102
RTVSPropertyOp19
 70
     1
102
RTVSPropertyOp20
 70
     1
102
RTVSPropertyOp21
 70
     1
102
RTVSPropertyOp22
 70
     1
102
RTVSPropertyOp23
 70
     1
102
RTVSPropertyOp24
 70
     1
102
RTVSPropertyOp25
 70
     1
102
RTVSPropertyOp26
 70
     1
102
RTVSPropertyOp27
 70
     1
102
RTVSPropertyOp28
 70
     1
102
RTVSPropertyOp29
 70
     1
102
RTVSPropertyOp30
 70
     1
102
RTVSPropertyOp31
 70
     1
102
RTVSPropertyOp32
 70
     1
  0
XRECORD
  5
70
102
{ACAD_REACTORS
330
6F
102
}
330
6F
100
AcDbXrecord
280
     1
102
RTVSPropertyOp0
 70
     1
102
RTVSPropertyOp1
 70
     1
102
RTVSPropertyOp2
 70
     1
102
RTVSPropertyOp3
 70
     1
102
RTVSPropertyOp4
 70
     1
102
RTVSPropertyOp5
 70
     1
102
RTVSPropertyOp6
 70
     1
102
RTVSPropertyOp7
 70
     1
102
RTVSPropertyOp8
 70
     1
102
RTVSPropertyOp9
 70
     1
102
RTVSPropertyOp10
 70
     1
102
RTVSPropertyOp11
 70
     1
102
RTVSPropertyOp12
 70
     1
102
RTVSPropertyOp13
 70
     1
102
RTVSPropertyOp14
 70
     1
102
RTVSPropertyOp15
 70
     1
102
RTVSPropertyOp16
 70
     1
102
RTVSPropertyOp17
 70
     1
102
RTVSPropertyOp18
 70
     1
102
RTVSPropertyOp19
 70
     1
102
RTVSPropertyOp20
 70
     1
102
RTVSPropertyOp21
 70
     1
102
RTVSPropertyOp22
 70
     1
102
RTVSPropertyOp23
 70
     1
102
RTVSPropertyOp24
 70
     1
102
RTVSPropertyOp25
 70
     1
102
RTVSPropertyOp26
 70
     1
102
RTVSPropertyOp27
 70
     1
102
RTVSPropertyOp28
 70
     1
102
RTVSPropertyOp29
 70
     1
102
RTVSPropertyOp30
 70
     1
102
RTVSPropertyOp31
 70
     1
102
RTVSPropertyOp32
 70
     1
  0
XRECORD
  5
78
102
{ACAD_REACTORS
330
77
102
}
330
77
100
AcDbXrecord
280
     1
102
RTVSPropertyOp0
 70
     1
102
RTVSPropertyOp1
 70
     1
102
RTVSPropertyOp2
 70
     1
102
RTVSPropertyOp3
 70
     1
102
RTVSPropertyOp4
 70
     1
102
RTVSPropertyOp5
 70
     1
102
RTVSPropertyOp6
 70
     1
102
RTVSPropertyOp7
 70
     1
102
RTVSPropertyOp8
 70
     1
102
RTVSPropertyOp9
 70
     1
102
RTVSPropertyOp10
 70
     1
102
RTVSPropertyOp11
 70
     1
102
RTVSPropertyOp12
 70
     1
102
RTVSPropertyOp13
 70
     1
102
RTVSPropertyOp14
 70
     1
102
RTVSPropertyOp15
 70
     1
102
RTVSPropertyOp16
 70
     1
102
RTVSPropertyOp17
 70
     1
102
RTVSPropertyOp18
 70
     1
102
RTVSPropertyOp19
 70
     1
102
RTVSPropertyOp20
 70
     1
102
RTVSPropertyOp21
 70
     1
102
RTVSPropertyOp22
 70
     1
102
RTVSPropertyOp23
 70
     1
102
RTVSPropertyOp24
 70
     1
102
RTVSPropertyOp25
 70
     1
102
RTVSPropertyOp26
 70
     1
102
RTVSPropertyOp27
 70
     1
102
RTVSPropertyOp28
 70
     1
102
RTVSPropertyOp29
 70
     1
102
RTVSPropertyOp30
 70
     1
102
RTVSPropertyOp31
 70
     1
102
RTVSPropertyOp32
 70
     1
  0
XRECORD
  5
80
102
{ACAD_REACTORS
330
7F
102
}
330
7F
100
AcDbXrecord
280
     1
102
RTVSPropertyOp0
 70
     1
102
RTVSPropertyOp1
 70
     1
102
RTVSPropertyOp2
 70
     1
102
RTVSPropertyOp3
 70
     1
102
RTVSPropertyOp4
 70
     1
102
RTVSPropertyOp5
 70
     1
102
RTVSPropertyOp6
 70
     1
102
RTVSPropertyOp7
 70
     1
102
RTVSPropertyOp8
 70
     1
102
RTVSPropertyOp9
 70
     1
102
RTVSPropertyOp10
 70
     1
102
RTVSPropertyOp11
 70
     1
102
RTVSPropertyOp12
 70
     1
102
RTVSPropertyOp13
 70
     1
102
RTVSPropertyOp14
 70
     1
102
RTVSPropertyOp15
 70
     1
102
RTVSPropertyOp16
 70
     1
102
RTVSPropertyOp17
 70
     1
102
RTVSPropertyOp18
 70
     1
102
RTVSPropertyOp19
 70
     1
102
RTVSPropertyOp20
 70
     1
102
RTVSPropertyOp21
 70
     1
102
RTVSPropertyOp22
 70
     1
102
RTVSPropertyOp23
 70
     1
102
RTVSPropertyOp24
 70
     1
102
RTVSPropertyOp25
 70
     1
102
RTVSPropertyOp26
 70
     1
102
RTVSPropertyOp27
 70
     1
102
RTVSPropertyOp28
 70
     1
102
RTVSPropertyOp29
 70
     1
102
RTVSPropertyOp30
 70
     1
102
RTVSPropertyOp31
 70
     1
102
RTVSPropertyOp32
 70
     1
  0
XRECORD
  5
74
102
{ACAD_REACTORS
330
73
102
}
330
73
100
AcDbXrecord
280
     1
102
RTVSPropertyOp0
 70
     1
102
RTVSPropertyOp1
 70
     1
102
RTVSPropertyOp2
 70
     1
102
RTVSPropertyOp3
 70
     1
102
RTVSPropertyOp4
 70
     1
102
RTVSPropertyOp5
 70
     1
102
RTVSPropertyOp6
 70
     1
102
RTVSPropertyOp7
 70
     1
102
RTVSPropertyOp8
 70
     1
102
RTVSPropertyOp9
 70
     1
102
RTVSPropertyOp10
 70
     1
102
RTVSPropertyOp11
 70
     1
102
RTVSPropertyOp12
 70
     1
102
RTVSPropertyOp13
 70
     1
102
RTVSPropertyOp14
 70
     1
102
RTVSPropertyOp15
 70
     1
102
RTVSPropertyOp16
 70
     1
102
RTVSPropertyOp17
 70
     1
102
RTVSPropertyOp18
 70
     1
102
RTVSPropertyOp19
 70
     1
102
RTVSPropertyOp20
 70
     1
102
RTVSPropertyOp21
 70
     1
102
RTVSPropertyOp22
 70
     1
102
RTVSPropertyOp23
 70
     1
102
RTVSPropertyOp24
 70
     1
102
RTVSPropertyOp25
 70
     1
102
RTVSPropertyOp26
 70
     1
102
RTVSPropertyOp27
 70
     1
102
RTVSPropertyOp28
 70
     1
102
RTVSPropertyOp29
 70
     1
102
RTVSPropertyOp30
 70
     1
102
RTVSPropertyOp31
 70
     1
102
RTVSPropertyOp32
 70
     1
  0
XRECORD
  5
76
102
{ACAD_REACTORS
330
75
102
}
330
75
100
AcDbXrecord
280
     1
102
RTVSPropertyOp0
 70
     1
102
RTVSPropertyOp1
 70
     1
102
RTVSPropertyOp2
 70
     1
102
RTVSPropertyOp3
 70
     1
102
RTVSPropertyOp4
 70
     1
102
RTVSPropertyOp5
 70
     1
102
RTVSPropertyOp6
 70
     1
102
RTVSPropertyOp7
 70
     1
102
RTVSPropertyOp8
 70
     1
102
RTVSPropertyOp9
 70
     1
102
RTVSPropertyOp10
 70
     1
102
RTVSPropertyOp11
 70
     1
102
RTVSPropertyOp12
 70
     1
102
RTVSPropertyOp13
 70
     1
102
RTVSPropertyOp14
 70
     1
102
RTVSPropertyOp15
 70
     1
102
RTVSPropertyOp16
 70
     1
102
RTVSPropertyOp17
 70
     1
102
RTVSPropertyOp18
 70
     1
102
RTVSPropertyOp19
 70
     1
102
RTVSPropertyOp20
 70
     1
102
RTVSPropertyOp21
 70
     1
102
RTVSPropertyOp22
 70
     1
102
RTVSPropertyOp23
 70
     1
102
RTVSPropertyOp24
 70
     1
102
RTVSPropertyOp25
 70
     1
102
RTVSPropertyOp26
 70
     1
102
RTVSPropertyOp27
 70
     1
102
RTVSPropertyOp28
 70
     1
102
RTVSPropertyOp29
 70
     1
102
RTVSPropertyOp30
 70
     1
102
RTVSPropertyOp31
 70
     1
102
RTVSPropertyOp32
 70
     1
  0
XRECORD
  5
7E
102
{ACAD_REACTORS
330
7D
102
}
330
7D
100
AcDbXrecord
280
     1
102
RTVSPropertyOp0
 70
     1
102
RTVSPropertyOp1
 70
     1
102
RTVSPropertyOp2
 70
     1
102
RTVSPropertyOp3
 70
     1
102
RTVSPropertyOp4
 70
     1
102
RTVSPropertyOp5
 70
     1
102
RTVSPropertyOp6
 70
     1
102
RTVSPropertyOp7
 70
     1
102
RTVSPropertyOp8
 70
     1
102
RTVSPropertyOp9
 70
     1
102
RTVSPropertyOp10
 70
     1
102
RTVSPropertyOp11
 70
     1
102
RTVSPropertyOp12
 70
     1
102
RTVSPropertyOp13
 70
     1
102
RTVSPropertyOp14
 70
     1
102
RTVSPropertyOp15
 70
     1
102
RTVSPropertyOp16
 70
     1
102
RTVSPropertyOp17
 70
     1
102
RTVSPropertyOp18
 70
     1
102
RTVSPropertyOp19
 70
     1
102
RTVSPropertyOp20
 70
     1
102
RTVSPropertyOp21
 70
     1
102
RTVSPropertyOp22
 70
     1
102
RTVSPropertyOp23
 70
     1
102
RTVSPropertyOp24
 70
     1
102
RTVSPropertyOp25
 70
     1
102
RTVSPropertyOp26
 70
     1
102
RTVSPropertyOp27
 70
     1
102
RTVSPropertyOp28
 70
     1
102
RTVSPropertyOp29
 70
     1
102
RTVSPropertyOp30
 70
     1
102
RTVSPropertyOp31
 70
     1
102
RTVSPropertyOp32
 70
     1
  0
XRECORD
  5
62
102
{ACAD_REACTORS
330
61
102
}
330
61
100
AcDbXrecord
280
     1
102
RTVSPropertyOp0
 70
     1
102
RTVSPropertyOp1
 70
     1
102
RTVSPropertyOp2
 70
     1
102
RTVSPropertyOp3
 70
     1
102
RTVSPropertyOp4
 70
     1
102
RTVSPropertyOp5
 70
     1
102
RTVSPropertyOp6
 70
     1
102
RTVSPropertyOp7
 70
     1
102
RTVSPropertyOp8
 70
     1
102
RTVSPropertyOp9
 70
     1
102
RTVSPropertyOp10
 70
     1
102
RTVSPropertyOp11
 70
     1
102
RTVSPropertyOp12
 70
     1
102
RTVSPropertyOp13
 70
     1
102
RTVSPropertyOp14
 70
     1
102
RTVSPropertyOp15
 70
     1
102
RTVSPropertyOp16
 70
     1
102
RTVSPropertyOp17
 70
     1
102
RTVSPropertyOp18
 70
     1
102
RTVSPropertyOp19
 70
     1
102
RTVSPropertyOp20
 70
     1
102
RTVSPropertyOp21
 70
     1
102
RTVSPropertyOp22
 70
     1
102
RTVSPropertyOp23
 70
     1
102
RTVSPropertyOp24
 70
     1
102
RTVSPropertyOp25
 70
     1
102
RTVSPropertyOp26
 70
     1
102
RTVSPropertyOp27
 70
     1
102
RTVSPropertyOp28
 70
     1
102
RTVSPropertyOp29
 70
     1
102
RTVSPropertyOp30
 70
     1
102
RTVSPropertyOp31
 70
     1
102
RTVSPropertyOp32
 70
     1
  0
XRECORD
  5
64
102
{ACAD_REACTORS
330
63
102
}
330
63
100
AcDbXrecord
280
     1
102
RTVSPropertyOp0
 70
     1
102
RTVSPropertyOp1
 70
     1
102
RTVSPropertyOp2
 70
     1
102
RTVSPropertyOp3
 70
     1
102
RTVSPropertyOp4
 70
     1
102
RTVSPropertyOp5
 70
     1
102
RTVSPropertyOp6
 70
     1
102
RTVSPropertyOp7
 70
     1
102
RTVSPropertyOp8
 70
     1
102
RTVSPropertyOp9
 70
     1
102
RTVSPropertyOp10
 70
     1
102
RTVSPropertyOp11
 70
     1
102
RTVSPropertyOp12
 70
     1
102
RTVSPropertyOp13
 70
     1
102
RTVSPropertyOp14
 70
     1
102
RTVSPropertyOp15
 70
     1
102
RTVSPropertyOp16
 70
     1
102
RTVSPropertyOp17
 70
     1
102
RTVSPropertyOp18
 70
     1
102
RTVSPropertyOp19
 70
     1
102
RTVSPropertyOp20
 70
     1
102
RTVSPropertyOp21
 70
     1
102
RTVSPropertyOp22
 70
     1
102
RTVSPropertyOp23
 70
     1
102
RTVSPropertyOp24
 70
     1
102
RTVSPropertyOp25
 70
     1
102
RTVSPropertyOp26
 70
     1
102
RTVSPropertyOp27
 70
     1
102
RTVSPropertyOp28
 70
     1
102
RTVSPropertyOp29
 70
     1
102
RTVSPropertyOp30
 70
     1
102
RTVSPropertyOp31
 70
     1
102
RTVSPropertyOp32
 70
     1
  0
XRECORD
  5
66
102
{ACAD_REACTORS
330
65
102
}
330
65
100
AcDbXrecord
280
     1
102
RTVSPropertyOp0
 70
     1
102
RTVSPropertyOp1
 70
     1
102
RTVSPropertyOp2
 70
     1
102
RTVSPropertyOp3
 70
     1
102
RTVSPropertyOp4
 70
     1
102
RTVSPropertyOp5
 70
     1
102
RTVSPropertyOp6
 70
     1
102
RTVSPropertyOp7
 70
     1
102
RTVSPropertyOp8
 70
     1
102
RTVSPropertyOp9
 70
     1
102
RTVSPropertyOp10
 70
     1
102
RTVSPropertyOp11
 70
     1
102
RTVSPropertyOp12
 70
     1
102
RTVSPropertyOp13
 70
     1
102
RTVSPropertyOp14
 70
     1
102
RTVSPropertyOp15
 70
     1
102
RTVSPropertyOp16
 70
     1
102
RTVSPropertyOp17
 70
     1
102
RTVSPropertyOp18
 70
     1
102
RTVSPropertyOp19
 70
     1
102
RTVSPropertyOp20
 70
     1
102
RTVSPropertyOp21
 70
     1
102
RTVSPropertyOp22
 70
     1
102
RTVSPropertyOp23
 70
     1
102
RTVSPropertyOp24
 70
     1
102
RTVSPropertyOp25
 70
     1
102
RTVSPropertyOp26
 70
     1
102
RTVSPropertyOp27
 70
     1
102
RTVSPropertyOp28
 70
     1
102
RTVSPropertyOp29
 70
     1
102
RTVSPropertyOp30
 70
     1
102
RTVSPropertyOp31
 70
     1
102
RTVSPropertyOp32
 70
     1
  0
XRECORD
  5
68
102
{ACAD_REACTORS
330
67
102
}
330
67
100
AcDbXrecord
280
     1
102
RTVSPropertyOp0
 70
     1
102
RTVSPropertyOp1
 70
     1
102
RTVSPropertyOp2
 70
     1
102
RTVSPropertyOp3
 70
     1
102
RTVSPropertyOp4
 70
     1
102
RTVSPropertyOp5
 70
     1
102
RTVSPropertyOp6
 70
     1
102
RTVSPropertyOp7
 70
     1
102
RTVSPropertyOp8
 70
     1
102
RTVSPropertyOp9
 70
     1
102
RTVSPropertyOp10
 70
     1
102
RTVSPropertyOp11
 70
     1
102
RTVSPropertyOp12
 70
     1
102
RTVSPropertyOp13
 70
     1
102
RTVSPropertyOp14
 70
     1
102
RTVSPropertyOp15
 70
     1
102
RTVSPropertyOp16
 70
     1
102
RTVSPropertyOp17
 70
     1
102
RTVSPropertyOp18
 70
     1
102
RTVSPropertyOp19
 70
     1
102
RTVSPropertyOp20
 70
     1
102
RTVSPropertyOp21
 70
     1
102
RTVSPropertyOp22
 70
     1
102
RTVSPropertyOp23
 70
     1
102
RTVSPropertyOp24
 70
     1
102
RTVSPropertyOp25
 70
     1
102
RTVSPropertyOp26
 70
     1
102
RTVSPropertyOp27
 70
     1
102
RTVSPropertyOp28
 70
     1
102
RTVSPropertyOp29
 70
     1
102
RTVSPropertyOp30
 70
     1
102
RTVSPropertyOp31
 70
     1
102
RTVSPropertyOp32
 70
     1
  0
XRECORD
  5
7C
102
{ACAD_REACTORS
330
7B
102
}
330
7B
100
AcDbXrecord
280
     1
102
RTVSPropertyOp0
 70
     1
102
RTVSPropertyOp1
 70
     1
102
RTVSPropertyOp2
 70
     1
102
RTVSPropertyOp3
 70
     1
102
RTVSPropertyOp4
 70
     1
102
RTVSPropertyOp5
 70
     1
102
RTVSPropertyOp6
 70
     1
102
RTVSPropertyOp7
 70
     1
102
RTVSPropertyOp8
 70
     1
102
RTVSPropertyOp9
 70
     1
102
RTVSPropertyOp10
 70
     1
102
RTVSPropertyOp11
 70
     1
102
RTVSPropertyOp12
 70
     1
102
RTVSPropertyOp13
 70
     1
102
RTVSPropertyOp14
 70
     1
102
RTVSPropertyOp15
 70
     1
102
RTVSPropertyOp16
 70
     1
102
RTVSPropertyOp17
 70
     1
102
RTVSPropertyOp18
 70
     1
102
RTVSPropertyOp19
 70
     1
102
RTVSPropertyOp20
 70
     1
102
RTVSPropertyOp21
 70
     1
102
RTVSPropertyOp22
 70
     1
102
RTVSPropertyOp23
 70
     1
102
RTVSPropertyOp24
 70
     1
102
RTVSPropertyOp25
 70
     1
102
RTVSPropertyOp26
 70
     1
102
RTVSPropertyOp27
 70
     1
102
RTVSPropertyOp28
 70
     1
102
RTVSPropertyOp29
 70
     1
102
RTVSPropertyOp30
 70
     1
102
RTVSPropertyOp31
 70
     1
102
RTVSPropertyOp32
 70
     1
  0
XRECORD
  5
72
102
{ACAD_REACTORS
330
71
102
}
330
71
100
AcDbXrecord
280
     1
102
RTVSPropertyOp0
 70
     1
102
RTVSPropertyOp1
 70
     1
102
RTVSPropertyOp2
 70
     1
102
RTVSPropertyOp3
 70
     1
102
RTVSPropertyOp4
 70
     1
102
RTVSPropertyOp5
 70
     1
102
RTVSPropertyOp6
 70
     1
102
RTVSPropertyOp7
 70
     1
102
RTVSPropertyOp8
 70
     1
102
RTVSPropertyOp9
 70
     1
102
RTVSPropertyOp10
 70
     1
102
RTVSPropertyOp11
 70
     1
102
RTVSPropertyOp12
 70
     1
102
RTVSPropertyOp13
 70
     1
102
RTVSPropertyOp14
 70
     1
102
RTVSPropertyOp15
 70
     1
102
RTVSPropertyOp16
 70
     1
102
RTVSPropertyOp17
 70
     1
102
RTVSPropertyOp18
 70
     1
102
RTVSPropertyOp19
 70
     1
102
RTVSPropertyOp20
 70
     1
102
RTVSPropertyOp21
 70
     1
102
RTVSPropertyOp22
 70
     1
102
RTVSPropertyOp23
 70
     1
102
RTVSPropertyOp24
 70
     1
102
RTVSPropertyOp25
 70
     1
102
RTVSPropertyOp26
 70
     1
102
RTVSPropertyOp27
 70
     1
102
RTVSPropertyOp28
 70
     1
102
RTVSPropertyOp29
 70
     1
102
RTVSPropertyOp30
 70
     1
102
RTVSPropertyOp31
 70
     1
102
RTVSPropertyOp32
 70
     1
  0
XRECORD
  5
7A
102
{ACAD_REACTORS
330
79
102
}
330
79
100
AcDbXrecord
280
     1
102
RTVSPropertyOp0
 70
     1
102
RTVSPropertyOp1
 70
     1
102
RTVSPropertyOp2
 70
     1
102
RTVSPropertyOp3
 70
     1
102
RTVSPropertyOp4
 70
     1
102
RTVSPropertyOp5
 70
     1
102
RTVSPropertyOp6
 70
     1
102
RTVSPropertyOp7
 70
     1
102
RTVSPropertyOp8
 70
     1
102
RTVSPropertyOp9
 70
     1
102
RTVSPropertyOp10
 70
     1
102
RTVSPropertyOp11
 70
     1
102
RTVSPropertyOp12
 70
     1
102
RTVSPropertyOp13
 70
     1
102
RTVSPropertyOp14
 70
     1
102
RTVSPropertyOp15
 70
     1
102
RTVSPropertyOp16
 70
     1
102
RTVSPropertyOp17
 70
     1
102
RTVSPropertyOp18
 70
     1
102
RTVSPropertyOp19
 70
     1
102
RTVSPropertyOp20
 70
     1
102
RTVSPropertyOp21
 70
     1
102
RTVSPropertyOp22
 70
     1
102
RTVSPropertyOp23
 70
     1
102
RTVSPropertyOp24
 70
     1
102
RTVSPropertyOp25
 70
     1
102
RTVSPropertyOp26
 70
     1
102
RTVSPropertyOp27
 70
     1
102
RTVSPropertyOp28
 70
     1
102
RTVSPropertyOp29
 70
     1
102
RTVSPropertyOp30
 70
     1
102
RTVSPropertyOp31
 70
     1
102
RTVSPropertyOp32
 70
     1
  0
ENDSEC
  0
EOF
