  0
SECTION
  2
HEADER
  9
$ACADVER
  1
AC1021
  9
$ACADMAINTVER
 70
    25
  9
$DWGCODEPAGE
  3
ANSI_1252
  9
$INSBASE
 10
0.0
 20
0.0
 30
0.0
  9
$EXTMIN
 10
-13.96867
 20
-12.75527
 30
0.0
  9
$EXTMAX
 10
-6.01354
 20
-11.50062
 30
0.0
  9
$LIMMIN
 10
0.0
 20
0.0
  9
$LIMMAX
 10
12.0
 20
9.0
  9
$ORTHOMODE
 70
     0
  9
$REGENMODE
 70
     1
  9
$FILLMODE
 70
     1
  9
$QTEXTMODE
 70
     0
  9
$MIRRTEXT
 70
     1
  9
$LTSCALE
 40
1.0
  9
$ATTMODE
 70
     1
  9
$TEXTSIZE
 40
0.2
  9
$TRACEWID
 40
0.05
  9
$TEXTSTYLE
  7
Standard
  9
$CLAYER
  8
0
  9
$CELTYPE
  6
ByLayer
  9
$CECOLOR
 62
   256
  9
$CELTSCALE
 40
1.0
  9
$DISPSILH
 70
     0
  9
$DIMSCALE
 40
1.0
  9
$DIMASZ
 40
0.18
  9
$DIMEXO
 40
0.0625
  9
$DIMDLI
 40
0.38
  9
$DIMRND
 40
0.0
  9
$DIMDLE
 40
0.0
  9
$DIMEXE
 40
0.18
  9
$DIMTP
 40
0.0
  9
$DIMTM
 40
0.0
  9
$DIMTXT
 40
0.18
  9
$DIMCEN
 40
0.09
  9
$DIMTSZ
 40
0.0
  9
$DIMTOL
 70
     0
  9
$DIMLIM
 70
     0
  9
$DIMTIH
 70
     1
  9
$DIMTOH
 70
     1
  9
$DIMSE1
 70
     0
  9
$DIMSE2
 70
     0
  9
$DIMTAD
 70
     0
  9
$DIMZIN
 70
     0
  9
$DIMBLK
  1

  9
$DIMASO
 70
     1
  9
$DIMSHO
 70
     1
  9
$DIMPOST
  1

  9
$DIMAPOST
  1

  9
$DIMALT
 70
     0
  9
$DIMALTD
 70
     2
  9
$DIMALTF
 40
25.4
  9
$DIMLFAC
 40
1.0
  9
$DIMTOFL
 70
     0
  9
$DIMTVP
 40
0.0
  9
$DIMTIX
 70
     0
  9
$DIMSOXD
 70
     0
  9
$DIMSAH
 70
     0
  9
$DIMBLK1
  1

  9
$DIMBLK2
  1

  9
$DIMSTYLE
  2
Standard
  9
$DIMCLRD
 70
     0
  9
$DIMCLRE
 70
     0
  9
$DIMCLRT
 70
     0
  9
$DIMTFAC
 40
1.0
  9
$DIMGAP
 40
0.09
  9
$DIMJUST
 70
     0
  9
$DIMSD1
 70
     0
  9
$DIMSD2
 70
     0
  9
$DIMTOLJ
 70
     1
  9
$DIMTZIN
 70
     0
  9
$DIMALTZ
 70
     0
  9
$DIMALTTZ
 70
     0
  9
$DIMUPT
 70
     0
  9
$DIMDEC
 70
     4
  9
$DIMTDEC
 70
     4
  9
$DIMALTU
 70
     2
  9
$DIMALTTD
 70
     2
  9
$DIMTXSTY
  7
Standard
  9
$DIMAUNIT
 70
     0
  9
$DIMADEC
 70
     0
  9
$DIMALTRND
 40
0.0
  9
$DIMAZIN
 70
     0
  9
$DIMDSEP
 70
    46
  9
$DIMATFIT
 70
     3
  9
$DIMFRAC
 70
     0
  9
$DIMLDRBLK
  1

  9
$DIMLUNIT
 70
     2
  9
$DIMLWD
 70
    -2
  9
$DIMLWE
 70
    -2
  9
$DIMTMOVE
 70
     0
  9
$DIMFXL
 40
1.0
  9
$DIMFXLON
 70
     0
  9
$DIMJOGANG
 40
0.7853981633974483
  9
$DIMTFILL
 70
     0
  9
$DIMTFILLCLR
 70
     0
  9
$DIMARCSYM
 70
     0
  9
$DIMLTYPE
  6

  9
$DIMLTEX1
  6

  9
$DIMLTEX2
  6

  9
$LUNITS
 70
     2
  9
$LUPREC
 70
     4
  9
$SKETCHINC
 40
0.1
  9
$FILLETRAD
 40
0.5
  9
$AUNITS
 70
     0
  9
$AUPREC
 70
     0
  9
$MENU
  1
.
  9
$ELEVATION
 40
0.0
  9
$PELEVATION
 40
0.0
  9
$THICKNESS
 40
0.0
  9
$LIMCHECK
 70
     0
  9
$CHAMFERA
 40
0.5
  9
$CHAMFERB
 40
0.5
  9
$CHAMFERC
 40
1.0
  9
$CHAMFERD
 40
0.0
  9
$SKPOLY
 70
     0
  9
$TDCREATE
 40
2460554.914685254
  9
$TDUCREATE
 40
2460554.873018588
  9
$TDUPDATE
 40
2460554.914685289
  9
$TDUUPDATE
 40
2460554.873018623
  9
$TDINDWG
 40
0.0000000116
  9
$TDUSRTIMER
 40
0.0000000116
  9
$USRTIMER
 70
     1
  9
$ANGBASE
 50
0.0
  9
$ANGDIR
 70
     0
  9
$PDMODE
 70
     0
  9
$PDSIZE
 40
0.0
  9
$PLINEWID
 40
0.0
  9
$SPLFRAME
 70
     0
  9
$SPLINETYPE
 70
     6
  9
$SPLINESEGS
 70
     8
  9
$HANDSEED
  5
79
  9
$SURFTAB1
 70
     6
  9
$SURFTAB2
 70
     6
  9
$SURFTYPE
 70
     6
  9
$SURFU
 70
     6
  9
$SURFV
 70
     6
  9
$UCSBASE
  2

  9
$UCSNAME
  2

  9
$UCSORG
 10
0.0
 20
0.0
 30
0.0
  9
$UCSXDIR
 10
1.0
 20
0.0
 30
0.0
  9
$UCSYDIR
 10
0.0
 20
1.0
 30
0.0
  9
$UCSORTHOREF
  2

  9
$UCSORTHOVIEW
 70
     0
  9
$UCSORGTOP
 10
0.0
 20
0.0
 30
0.0
  9
$UCSORGBOTTOM
 10
0.0
 20
0.0
 30
0.0
  9
$UCSORGLEFT
 10
0.0
 20
0.0
 30
0.0
  9
$UCSORGRIGHT
 10
0.0
 20
0.0
 30
0.0
  9
$UCSORGFRONT
 10
0.0
 20
0.0
 30
0.0
  9
$UCSORGBACK
 10
0.0
 20
0.0
 30
0.0
  9
$PUCSBASE
  2

  9
$PUCSNAME
  2

  9
$PUCSORG
 10
0.0
 20
0.0
 30
0.0
  9
$PUCSXDIR
 10
1.0
 20
0.0
 30
0.0
  9
$PUCSYDIR
 10
0.0
 20
1.0
 30
0.0
  9
$PUCSORTHOREF
  2

  9
$PUCSORTHOVIEW
 70
     0
  9
$PUCSORGTOP
 10
0.0
 20
0.0
 30
0.0
  9
$PUCSORGBOTTOM
 10
0.0
 20
0.0
 30
0.0
  9
$PUCSORGLEFT
 10
0.0
 20
0.0
 30
0.0
  9
$PUCSORGRIGHT
 10
0.0
 20
0.0
 30
0.0
  9
$PUCSORGFRONT
 10
0.0
 20
0.0
 30
0.0
  9
$PUCSORGBACK
 10
0.0
 20
0.0
 30
0.0
  9
$USERI1
 70
     0
  9
$USERI2
 70
     0
  9
$USERI3
 70
     0
  9
$USERI4
 70
     0
  9
$USERI5
 70
     0
  9
$USERR1
 40
0.0
  9
$USERR2
 40
0.0
  9
$USERR3
 40
0.0
  9
$USERR4
 40
0.0
  9
$USERR5
 40
0.0
  9
$WORLDVIEW
 70
     1
  9
$SHADEDGE
 70
     3
  9
$SHADEDIF
 70
    70
  9
$TILEMODE
 70
     1
  9
$MAXACTVP
 70
    64
  9
$PINSBASE
 10
0.0
 20
0.0
 30
0.0
  9
$PLIMCHECK
 70
     0
  9
$PEXTMIN
 10
1.000000000000000E+20
 20
1.000000000000000E+20
 30
1.000000000000000E+20
  9
$PEXTMAX
 10
-1.000000000000000E+20
 20
-1.000000000000000E+20
 30
-1.000000000000000E+20
  9
$PLIMMIN
 10
0.0
 20
0.0
  9
$PLIMMAX
 10
12.0
 20
9.0
  9
$UNITMODE
 70
     0
  9
$VISRETAIN
 70
     1
  9
$PLINEGEN
 70
     0
  9
$PSLTSCALE
 70
     1
  9
$TREEDEPTH
 70
  3020
  9
$CMLSTYLE
  2
Standard
  9
$CMLJUST
 70
     0
  9
$CMLSCALE
 40
1.0
  9
$PROXYGRAPHICS
 70
     1
  9
$MEASUREMENT
 70
     0
  9
$CELWEIGHT
370
    -1
  9
$ENDCAPS
280
     0
  9
$JOINSTYLE
280
     0
  9
$LWDISPLAY
290
     0
  9
$INSUNITS
 70
     5
  9
$HYPERLINKBASE
  1

  9
$STYLESHEET
  1

  9
$XEDIT
290
     1
  9
$CEPSNTYPE
380
     0
  9
$PSTYLEMODE
290
     1
  9
$FINGERPRINTGUID
  2
{0D7147B2-DD19-4CB3-9B3E-FBD53446B808}
  9
$VERSIONGUID
  2
{FAEB1C32-E019-11D5-929B-00C0DF256EC4}
  9
$EXTNAMES
290
     1
  9
$PSVPSCALE
 40
0.0
  9
$OLESTARTUP
290
     0
  9
$SORTENTS
280
   127
  9
$INDEXCTL
280
     0
  9
$HIDETEXT
280
     1
  9
$XCLIPFRAME
290
     0
  9
$HALOGAP
280
     0
  9
$OBSCOLOR
 70
   257
  9
$OBSLTYPE
280
     0
  9
$INTERSECTIONDISPLAY
280
     0
  9
$INTERSECTIONCOLOR
 70
   257
  9
$DIMASSOC
280
     2
  9
$PROJECTNAME
  1

  9
$CAMERADISPLAY
290
     0
  9
$LENSLENGTH
 40
50.0
  9
$CAMERAHEIGHT
 40
0.0
  9
$STEPSPERSEC
 40
2.0
  9
$STEPSIZE
 40
6.0
  9
$3DDWFPREC
 40
2.0
  9
$PSOLWIDTH
 40
0.25
  9
$PSOLHEIGHT
 40
4.0
  9
$LOFTANG1
 40
1.570796326794897
  9
$LOFTANG2
 40
1.570796326794897
  9
$LOFTMAG1
 40
0.0
  9
$LOFTMAG2
 40
0.0
  9
$LOFTPARAM
 70
     7
  9
$LOFTNORMALS
280
     1
  9
$LATITUDE
 40
37.795
  9
$LONGITUDE
 40
-122.394
  9
$NORTHDIRECTION
 40
0.0
  9
$TIMEZONE
 70
 -8000
  9
$LIGHTGLYPHDISPLAY
280
     1
  9
$TILEMODELIGHTSYNCH
280
     1
  9
$SOLIDHIST
280
     1
  9
$SHOWHIST
280
     1
  9
$DWFFRAME
280
     2
  9
$DGNFRAME
280
     2
  9
$REALWORLDSCALE
290
     1
  9
$INTERFERECOLOR
 62
   256
  9
$CSHADOW
280
     0
  9
$SHADOWPLANELOCATION
 40
0.0
  0
ENDSEC
  0
SECTION
  2
CLASSES
  0
CLASS
  1
ACDBDICTIONARYWDFLT
  2
AcDbDictionaryWithDefault
  3
ObjectDBX Classes
 90
        0
 91
        4
280
     0
281
     0
  0
CLASS
  1
VISUALSTYLE
  2
AcDbVisualStyle
  3
ObjectDBX Classes
 90
     4095
 91
        4
280
     0
281
     0
  0
CLASS
  1
MATERIAL
  2
AcDbMaterial
  3
ObjectDBX Classes
 90
     1153
 91
        4
280
     0
281
     0
  0
ENDSEC
  0
SECTION
  2
TABLES
  0
TABLE
  2
VPORT
  5
8
330
0
100
AcDbSymbolTable
 70
     1
  0
VPORT
  5
29
330
8
100
AcDbSymbolTableRecord
100
AcDbViewportTableRecord
  2
*Active
 70
     0
 10
0.0
 20
0.0
 11
1.0
 21
1.0
 12
10.42990654205607
 22
4.5
 13
0.0
 23
0.0
 14
0.5
 24
0.5
 15
0.5
 25
0.5
 16
0.0
 26
0.0
 36
1.0
 17
0.0
 27
0.0
 37
0.0
 40
9.0
 41
1.972972972850329
 42
50.0
 43
0.0
 44
0.0
 50
0.0
 51
0.0
 71
     0
 72
   100
 73
     1
 74
     3
 75
     0
 76
     0
 77
     0
 78
     0
281
     0
 65
     1
110
0.0
120
0.0
130
0.0
111
1.0
121
0.0
131
0.0
112
0.0
122
1.0
132
0.0
 79
     0
146
0.0
 60
     3
 61
     5
292
     1
282
     1
141
0.0
142
0.0
 63
   250
  0
ENDTAB
  0
TABLE
  2
LTYPE
  5
5
330
0
100
AcDbSymbolTable
 70
     1
  0
LTYPE
  5
14
330
5
100
AcDbSymbolTableRecord
100
AcDbLinetypeTableRecord
  2
ByBlock
 70
     0
  3

 72
    65
 73
     0
 40
0.0
  0
LTYPE
  5
15
330
5
100
AcDbSymbolTableRecord
100
AcDbLinetypeTableRecord
  2
ByLayer
 70
     0
  3

 72
    65
 73
     0
 40
0.0
  0
LTYPE
  5
16
330
5
100
AcDbSymbolTableRecord
100
AcDbLinetypeTableRecord
  2
Continuous
 70
     0
  3
Solid line
 72
    65
 73
     0
 40
0.0
  0
ENDTAB
  0
TABLE
  2
LAYER
  5
2
330
0
100
AcDbSymbolTable
 70
     2
  0
LAYER
  5
10
330
2
100
AcDbSymbolTableRecord
100
AcDbLayerTableRecord
  2
0
 70
     0
 62
     7
  6
Continuous
370
    -3
390
F
347
3E
  0
LAYER
  5
40
330
2
100
AcDbSymbolTableRecord
100
AcDbLayerTableRecord
  2
Layer 1
 70
     0
 62
     7
  6
Continuous
370
    -3
390
F
347
3E
  0
ENDTAB
  0
TABLE
  2
STYLE
  5
3
330
0
100
AcDbSymbolTable
 70
     1
  0
STYLE
  5
11
330
3
100
AcDbSymbolTableRecord
100
AcDbTextStyleTableRecord
  2
Standard
 70
     0
 40
0.0
 41
1.0
 50
0.0
 71
     0
 42
0.2
  3
txt
  4

  0
ENDTAB
  0
TABLE
  2
VIEW
  5
6
330
0
100
AcDbSymbolTable
 70
     0
  0
ENDTAB
  0
TABLE
  2
UCS
  5
7
330
0
100
AcDbSymbolTable
 70
     0
  0
ENDTAB
  0
TABLE
  2
APPID
  5
9
330
0
100
AcDbSymbolTable
 70
     2
  0
APPID
  5
12
330
9
100
AcDbSymbolTableRecord
100
AcDbRegAppTableRecord
  2
ACAD
 70
     0
  0
APPID
  5
3F
330
9
100
AcDbSymbolTableRecord
100
AcDbRegAppTableRecord
  2
ODA
 70
     0
  0
ENDTAB
  0
TABLE
  2
DIMSTYLE
  5
A
330
0
100
AcDbSymbolTable
 70
     1
100
AcDbDimStyleTable
  0
DIMSTYLE
105
27
330
A
100
AcDbSymbolTableRecord
100
AcDbDimStyleTableRecord
  2
Standard
 70
     0
178
     0
340
11
  0
ENDTAB
  0
TABLE
  2
BLOCK_RECORD
  5
1
330
0
100
AcDbSymbolTable
 70
     1
  0
BLOCK_RECORD
  5
1F
330
1
100
AcDbSymbolTableRecord
100
AcDbBlockTableRecord
  2
*Model_Space
340
22
 70
     0
280
     1
281
     0
  0
BLOCK_RECORD
  5
1B
330
1
100
AcDbSymbolTableRecord
100
AcDbBlockTableRecord
  2
*Paper_Space
340
1E
 70
     0
280
     1
281
     0
  0
BLOCK_RECORD
  5
23
330
1
100
AcDbSymbolTableRecord
100
AcDbBlockTableRecord
  2
*Paper_Space0
340
26
 70
     0
280
     1
281
     0
  0
ENDTAB
  0
ENDSEC
  0
SECTION
  2
BLOCKS
  0
BLOCK
  5
20
330
1F
100
AcDbEntity
  8
0
100
AcDbBlockBegin
  2
*Model_Space
 70
     0
 10
0.0
 20
0.0
 30
0.0
  3
*Model_Space
  1

  0
ENDBLK
  5
21
330
1F
100
AcDbEntity
  8
0
100
AcDbBlockEnd
  0
BLOCK
  5
1C
330
1B
100
AcDbEntity
 67
     1
  8
0
100
AcDbBlockBegin
  2
*Paper_Space
 70
     0
 10
0.0
 20
0.0
 30
0.0
  3
*Paper_Space
  1

  0
ENDBLK
  5
1D
330
1B
100
AcDbEntity
 67
     1
  8
0
100
AcDbBlockEnd
  0
BLOCK
  5
24
330
23
100
AcDbEntity
  8
0
100
AcDbBlockBegin
  2
*Paper_Space0
 70
     0
 10
0.0
 20
0.0
 30
0.0
  3
*Paper_Space0
  1

  0
ENDBLK
  5
25
330
23
100
AcDbEntity
  8
0
100
AcDbBlockEnd
  0
ENDSEC
  0
SECTION
  2
ENTITIES
  0
SPLINE
  5
41
330
1F
100
AcDbEntity
  8
Layer 1
 62
     5
100
AcDbSpline
210
0.0
220
0.0
230
1.0
 70
    11
 71
     3
 72
    60
 73
    56
 74
     0
 42
0.0000000001
 43
0.0000000001
 12
1.0
 22
0.0
 32
0.0
 13
1.0
 23
0.0
 33
0.0
 40
0.0
 40
0.0
 40
0.0
 40
0.0
 40
0.0666666666666667
 40
0.0666666666666667
 40
0.0666666666666667
 40
0.0666666666666667
 40
0.1333333333333333
 40
0.1333333333333333
 40
0.1333333333333333
 40
0.1333333333333333
 40
0.2
 40
0.2
 40
0.2
 40
0.2
 40
0.2666666666666667
 40
0.2666666666666667
 40
0.2666666666666667
 40
0.2666666666666667
 40
0.3333333333333333
 40
0.3333333333333333
 40
0.3333333333333333
 40
0.3333333333333333
 40
0.4
 40
0.4
 40
0.4
 40
0.4
 40
0.4666666666666667
 40
0.4666666666666667
 40
0.4666666666666667
 40
0.4666666666666667
 40
0.5333333333333333
 40
0.5333333333333333
 40
0.5333333333333333
 40
0.5333333333333333
 40
0.6
 40
0.6
 40
0.6
 40
0.6
 40
0.6666666666666666
 40
0.6666666666666666
 40
0.6666666666666666
 40
0.6666666666666666
 40
0.7333333333333333
 40
0.7333333333333333
 40
0.7333333333333333
 40
0.7333333333333333
 40
0.8
 40
0.8
 40
0.8
 40
0.8
 40
0.8666666666666667
 40
0.8666666666666667
 40
0.8666666666666667
 40
0.8666666666666667
 40
1.0
 40
1.0
 40
1.0
 40
1.0
 10
-6.18191
 20
-11.50189
 30
0.0
 10
-6.15506
 20
-11.49575
 30
0.0
 10
-6.12829
 20
-11.51254
 30
0.0
 10
-6.12215
 20
-11.53939
 30
0.0
 10
-6.12215
 20
-11.53939
 30
0.0
 10
-6.11867
 20
-11.55462
 30
0.0
 10
-6.12256
 20
-11.56983
 30
0.0
 10
-6.13149
 20
-11.58126
 30
0.0
 10
-6.13149
 20
-11.58126
 30
0.0
 10
-6.13149
 20
-11.58126
 30
0.0
 10
-6.12064
 20
-11.57464
 30
0.0
 10
-6.12064
 20
-11.57464
 30
0.0
 10
-6.12064
 20
-11.57464
 30
0.0
 10
-6.11412
 20
-11.56899
 30
0.0
 10
-6.10794
 20
-11.5643
 30
0.0
 10
-6.10679
 20
-11.56619
 30
0.0
 10
-6.10679
 20
-11.56619
 30
0.0
 10
-6.10016
 20
-11.57707
 30
0.0
 10
-6.0925
 20
-11.58963
 30
0.0
 10
-6.08436
 20
-11.60365
 30
0.0
 10
-6.08436
 20
-11.60365
 30
0.0
 10
-6.02697
 20
-11.70251
 30
0.0
 10
-5.95909
 20
-11.85201
 30
0.0
 10
-6.08392
 20
-11.92448
 30
0.0
 10
-6.08392
 20
-11.92448
 30
0.0
 10
-6.16143
 20
-11.96946
 30
0.0
 10
-6.22553
 20
-11.9089
 30
0.0
 10
-6.28522
 20
-11.8525
 30
0.0
 10
-6.28522
 20
-11.8525
 30
0.0
 10
-6.30678
 20
-11.83213
 30
0.0
 10
-6.32755
 20
-11.81252
 30
0.0
 10
-6.34188
 20
-11.80558
 30
0.0
 10
-6.34188
 20
-11.80558
 30
0.0
 10
-6.34188
 20
-11.80558
 30
0.0
 10
-6.34188
 20
-11.80557
 30
0.0
 10
-6.34188
 20
-11.80557
 30
0.0
 10
-6.34188
 20
-11.80557
 30
0.0
 10
-6.36373
 20
-11.79506
 30
0.0
 10
-6.3752
 20
-11.76989
 30
0.0
 10
-6.36786
 20
-11.74601
 30
0.0
 10
-6.36786
 20
-11.74601
 30
0.0
 10
-6.35918
 20
-11.71774
 30
0.0
 10
-6.32086
 20
-11.65043
 30
0.0
 10
-6.28267
 20
-11.59672
 30
0.0
 10
-6.28267
 20
-11.59672
 30
0.0
 10
-6.25238
 20
-11.55411
 30
0.0
 10
-6.21869
 20
-11.51714
 30
0.0
 10
-6.19126
 20
-11.50507
 30
0.0
 10
-6.19126
 20
-11.50507
 30
0.0
 10
-6.1902
 20
-11.5046
 30
0.0
 10
-6.18913
 20
-11.50416
 30
0.0
 10
-6.18805
 20
-11.50376
 30
0.0
 10
-6.18805
 20
-11.50376
 30
0.0
 10
-6.18597
 20
-11.50298
 30
0.0
 10
-6.18391
 20
-11.50235
 30
0.0
 10
-6.18191
 20
-11.50189
 30
0.0
  0
SPLINE
  5
42
330
1F
100
AcDbEntity
  8
Layer 1
 62
     5
100
AcDbSpline
210
0.0
220
0.0
230
1.0
 70
    11
 71
     3
 72
    16
 73
    12
 74
     0
 42
0.0000000001
 43
0.0000000001
 12
1.0
 22
0.0
 32
0.0
 13
1.0
 23
0.0
 33
0.0
 40
0.0
 40
0.0
 40
0.0
 40
0.0
 40
0.25
 40
0.25
 40
0.25
 40
0.25
 40
0.5
 40
0.5
 40
0.5
 40
0.5
 40
1.0
 40
1.0
 40
1.0
 40
1.0
 10
-6.13149
 20
-11.58126
 30
0.0
 10
-6.13203
 20
-11.58196
 30
0.0
 10
-6.1326
 20
-11.58264
 30
0.0
 10
-6.13318
 20
-11.5833
 30
0.0
 10
-6.13318
 20
-11.5833
 30
0.0
 10
-6.14417
 20
-11.597
 30
0.0
 10
-6.1319
 20
-11.5844
 30
0.0
 10
-6.12064
 20
-11.57464
 30
0.0
 10
-6.12064
 20
-11.57464
 30
0.0
 10
-6.12064
 20
-11.57464
 30
0.0
 10
-6.13149
 20
-11.58126
 30
0.0
 10
-6.13149
 20
-11.58126
 30
0.0
  0
SPLINE
  5
43
330
1F
100
AcDbEntity
  8
Layer 1
 62
     5
100
AcDbSpline
210
0.0
220
0.0
230
1.0
 70
    11
 71
     3
 72
    28
 73
    24
 74
     0
 42
0.0000000001
 43
0.0000000001
 12
1.0
 22
0.0
 32
0.0
 13
1.0
 23
0.0
 33
0.0
 40
0.0
 40
0.0
 40
0.0
 40
0.0
 40
0.1428571428571428
 40
0.1428571428571428
 40
0.1428571428571428
 40
0.1428571428571428
 40
0.2857142857142857
 40
0.2857142857142857
 40
0.2857142857142857
 40
0.2857142857142857
 40
0.4285714285714285
 40
0.4285714285714285
 40
0.4285714285714285
 40
0.4285714285714285
 40
0.5714285714285714
 40
0.5714285714285714
 40
0.5714285714285714
 40
0.5714285714285714
 40
0.7142857142857143
 40
0.7142857142857143
 40
0.7142857142857143
 40
0.7142857142857143
 40
1.0
 40
1.0
 40
1.0
 40
1.0
 10
-6.1843
 20
-11.63071
 30
0.0
 10
-6.18954
 20
-11.63792
 30
0.0
 10
-6.19534
 20
-11.64599
 30
0.0
 10
-6.20141
 20
-11.65454
 30
0.0
 10
-6.20141
 20
-11.65454
 30
0.0
 10
-6.22278
 20
-11.68458
 30
0.0
 10
-6.24369
 20
-11.71794
 30
0.0
 10
-6.25746
 20
-11.74315
 30
0.0
 10
-6.25746
 20
-11.74315
 30
0.0
 10
-6.24392
 20
-11.75429
 30
0.0
 10
-6.23051
 20
-11.76694
 30
0.0
 10
-6.21686
 20
-11.77984
 30
0.0
 10
-6.21686
 20
-11.77984
 30
0.0
 10
-6.18321
 20
-11.81164
 30
0.0
 10
-6.14705
 20
-11.84578
 30
0.0
 10
-6.13392
 20
-11.83816
 30
0.0
 10
-6.13392
 20
-11.83816
 30
0.0
 10
-6.08665
 20
-11.81072
 30
0.0
 10
-6.13389
 20
-11.71703
 30
0.0
 10
-6.17068
 20
-11.65365
 30
0.0
 10
-6.17068
 20
-11.65365
 30
0.0
 10
-6.17531
 20
-11.64567
 30
0.0
 10
-6.17992
 20
-11.63794
 30
0.0
 10
-6.1843
 20
-11.63071
 30
0.0
  0
SPLINE
  5
44
330
1F
100
AcDbEntity
  8
Layer 1
 62
     5
100
AcDbSpline
210
0.0
220
0.0
230
1.0
 70
    11
 71
     3
 72
    56
 73
    52
 74
     0
 42
0.0000000001
 43
0.0000000001
 12
1.0
 22
0.0
 32
0.0
 13
1.0
 23
0.0
 33
0.0
 40
0.0
 40
0.0
 40
0.0
 40
0.0
 40
0.0714285714285714
 40
0.0714285714285714
 40
0.0714285714285714
 40
0.0714285714285714
 40
0.1428571428571428
 40
0.1428571428571428
 40
0.1428571428571428
 40
0.1428571428571428
 40
0.2142857142857143
 40
0.2142857142857143
 40
0.2142857142857143
 40
0.2142857142857143
 40
0.2857142857142857
 40
0.2857142857142857
 40
0.2857142857142857
 40
0.2857142857142857
 40
0.3571428571428572
 40
0.3571428571428572
 40
0.3571428571428572
 40
0.3571428571428572
 40
0.4285714285714285
 40
0.4285714285714285
 40
0.4285714285714285
 40
0.4285714285714285
 40
0.5
 40
0.5
 40
0.5
 40
0.5
 40
0.5714285714285714
 40
0.5714285714285714
 40
0.5714285714285714
 40
0.5714285714285714
 40
0.6428571428571429
 40
0.6428571428571429
 40
0.6428571428571429
 40
0.6428571428571429
 40
0.7142857142857143
 40
0.7142857142857143
 40
0.7142857142857143
 40
0.7142857142857143
 40
0.7857142857142857
 40
0.7857142857142857
 40
0.7857142857142857
 40
0.7857142857142857
 40
0.8571428571428571
 40
0.8571428571428571
 40
0.8571428571428571
 40
0.8571428571428571
 40
1.0
 40
1.0
 40
1.0
 40
1.0
 10
-6.57845
 20
-12.24529
 30
0.0
 10
-6.56049
 20
-12.23668
 30
0.0
 10
-6.53832
 20
-12.23937
 30
0.0
 10
-6.52287
 20
-12.25375
 30
0.0
 10
-6.52287
 20
-12.25375
 30
0.0
 10
-6.52287
 20
-12.25375
 30
0.0
 10
-6.52241
 20
-12.25424
 30
0.0
 10
-6.52241
 20
-12.25424
 30
0.0
 10
-6.52241
 20
-12.25424
 30
0.0
 10
-6.5178
 20
-12.25863
 30
0.0
 10
-6.51398
 20
-12.26398
 30
0.0
 10
-6.51126
 20
-12.27015
 30
0.0
 10
-6.51126
 20
-12.27015
 30
0.0
 10
-6.50219
 20
-12.28415
 30
0.0
 10
-6.4894
 20
-12.30579
 30
0.0
 10
-6.47827
 20
-12.33017
 30
0.0
 10
-6.47827
 20
-12.33017
 30
0.0
 10
-6.46268
 20
-12.36437
 30
0.0
 10
-6.4471
 20
-12.4077
 30
0.0
 10
-6.44241
 20
-12.45098
 30
0.0
 10
-6.44241
 20
-12.45098
 30
0.0
 10
-6.43695
 20
-12.50116
 30
0.0
 10
-6.44557
 20
-12.55123
 30
0.0
 10
-6.48209
 20
-12.59044
 30
0.0
 10
-6.48209
 20
-12.59044
 30
0.0
 10
-6.49567
 20
-12.60502
 30
0.0
 10
-6.51291
 20
-12.61758
 30
0.0
 10
-6.53439
 20
-12.62737
 30
0.0
 10
-6.53439
 20
-12.62737
 30
0.0
 10
-6.61207
 20
-12.66281
 30
0.0
 10
-6.67017
 20
-12.62646
 30
0.0
 10
-6.71282
 20
-12.56972
 30
0.0
 10
-6.71282
 20
-12.56972
 30
0.0
 10
-6.74674
 20
-12.5246
 30
0.0
 10
-6.76838
 20
-12.46762
 30
0.0
 10
-6.78098
 20
-12.4336
 30
0.0
 10
-6.78098
 20
-12.4336
 30
0.0
 10
-6.79047
 20
-12.40771
 30
0.0
 10
-6.77718
 20
-12.37902
 30
0.0
 10
-6.75129
 20
-12.36953
 30
0.0
 10
-6.75129
 20
-12.36953
 30
0.0
 10
-6.7503
 20
-12.36917
 30
0.0
 10
-6.74932
 20
-12.36885
 30
0.0
 10
-6.74832
 20
-12.36855
 30
0.0
 10
-6.74832
 20
-12.36855
 30
0.0
 10
-6.71817
 20
-12.35944
 30
0.0
 10
-6.69718
 20
-12.33847
 30
0.0
 10
-6.67583
 20
-12.31713
 30
0.0
 10
-6.67583
 20
-12.31713
 30
0.0
 10
-6.64964
 20
-12.29096
 30
0.0
 10
-6.62295
 20
-12.2643
 30
0.0
 10
-6.57845
 20
-12.24529
 30
0.0
  0
SPLINE
  5
45
330
1F
100
AcDbEntity
  8
Layer 1
 62
     5
100
AcDbSpline
210
0.0
220
0.0
230
1.0
 70
    11
 71
     3
 72
    36
 73
    32
 74
     0
 42
0.0000000001
 43
0.0000000001
 12
1.0
 22
0.0
 32
0.0
 13
1.0
 23
0.0
 33
0.0
 40
0.0
 40
0.0
 40
0.0
 40
0.0
 40
0.1111111111111111
 40
0.1111111111111111
 40
0.1111111111111111
 40
0.1111111111111111
 40
0.2222222222222222
 40
0.2222222222222222
 40
0.2222222222222222
 40
0.2222222222222222
 40
0.3333333333333333
 40
0.3333333333333333
 40
0.3333333333333333
 40
0.3333333333333333
 40
0.4444444444444444
 40
0.4444444444444444
 40
0.4444444444444444
 40
0.4444444444444444
 40
0.5555555555555556
 40
0.5555555555555556
 40
0.5555555555555556
 40
0.5555555555555556
 40
0.6666666666666666
 40
0.6666666666666666
 40
0.6666666666666666
 40
0.6666666666666666
 40
0.7777777777777778
 40
0.7777777777777778
 40
0.7777777777777778
 40
0.7777777777777778
 40
1.0
 40
1.0
 40
1.0
 40
1.0
 10
-6.56889
 20
-12.37157
 30
0.0
 10
-6.57094
 20
-12.36707
 30
0.0
 10
-6.57288
 20
-12.36289
 30
0.0
 10
-6.5747
 20
-12.35903
 30
0.0
 10
-6.5747
 20
-12.35903
 30
0.0
 10
-6.58562
 20
-12.36796
 30
0.0
 10
-6.59561
 20
-12.37794
 30
0.0
 10
-6.60551
 20
-12.38783
 30
0.0
 10
-6.60551
 20
-12.38783
 30
0.0
 10
-6.62507
 20
-12.40738
 30
0.0
 10
-6.64442
 20
-12.42671
 30
0.0
 10
-6.67023
 20
-12.44235
 30
0.0
 10
-6.67023
 20
-12.44235
 30
0.0
 10
-6.6603
 20
-12.46546
 30
0.0
 10
-6.64787
 20
-12.49036
 30
0.0
 10
-6.63314
 20
-12.50996
 30
0.0
 10
-6.63314
 20
-12.50996
 30
0.0
 10
-6.6169
 20
-12.53156
 30
0.0
 10
-6.59718
 20
-12.54651
 30
0.0
 10
-6.57579
 20
-12.53675
 30
0.0
 10
-6.57579
 20
-12.53675
 30
0.0
 10
-6.56695
 20
-12.53272
 30
0.0
 10
-6.56016
 20
-12.52788
 30
0.0
 10
-6.55513
 20
-12.52248
 30
0.0
 10
-6.55513
 20
-12.52248
 30
0.0
 10
-6.54173
 20
-12.50809
 30
0.0
 10
-6.53902
 20
-12.48558
 30
0.0
 10
-6.54163
 20
-12.46152
 30
0.0
 10
-6.54163
 20
-12.46152
 30
0.0
 10
-6.54499
 20
-12.43056
 30
0.0
 10
-6.5569
 20
-12.39787
 30
0.0
 10
-6.56889
 20
-12.37157
 30
0.0
  0
SPLINE
  5
46
330
1F
100
AcDbEntity
  8
Layer 1
 62
     5
100
AcDbSpline
210
0.0
220
0.0
230
1.0
 70
    27
 71
     3
 72
    12
 73
     8
 74
     0
 42
0.0000000001
 43
0.0000000001
 12
1.0
 22
0.0
 32
0.0
 13
1.0
 23
0.0
 33
0.0
 40
0.0
 40
0.0
 40
0.0
 40
0.0
 40
0.3333333333333333
 40
0.3333333333333333
 40
0.3333333333333333
 40
0.3333333333333333
 40
1.0
 40
1.0
 40
1.0
 40
1.0
 10
-6.74836
 20
-12.36856
 30
0.0
 10
-6.74836
 20
-12.36856
 30
0.0
 10
-6.74832
 20
-12.36855
 30
0.0
 10
-6.74832
 20
-12.36855
 30
0.0
 10
-6.74832
 20
-12.36855
 30
0.0
 10
-6.74832
 20
-12.36855
 30
0.0
 10
-6.74836
 20
-12.36856
 30
0.0
 10
-6.74836
 20
-12.36856
 30
0.0
  0
SPLINE
  5
47
330
1F
100
AcDbEntity
  8
Layer 1
 62
     5
100
AcDbSpline
210
0.0
220
0.0
230
1.0
 70
    11
 71
     3
 72
    40
 73
    36
 74
     0
 42
0.0000000001
 43
0.0000000001
 12
1.0
 22
0.0
 32
0.0
 13
1.0
 23
0.0
 33
0.0
 40
0.0
 40
0.0
 40
0.0
 40
0.0
 40
0.1
 40
0.1
 40
0.1
 40
0.1
 40
0.2
 40
0.2
 40
0.2
 40
0.2
 40
0.3
 40
0.3
 40
0.3
 40
0.3
 40
0.4
 40
0.4
 40
0.4
 40
0.4
 40
0.5
 40
0.5
 40
0.5
 40
0.5
 40
0.6
 40
0.6
 40
0.6
 40
0.6
 40
0.7
 40
0.7
 40
0.7
 40
0.7
 40
0.8
 40
0.8
 40
0.8
 40
0.8
 40
1.0
 40
1.0
 40
1.0
 40
1.0
 10
-7.61624
 20
-12.57285
 30
0.0
 10
-7.5965
 20
-12.53604
 30
0.0
 10
-7.55779
 20
-12.48778
 30
0.0
 10
-7.52905
 20
-12.45195
 30
0.0
 10
-7.52905
 20
-12.45195
 30
0.0
 10
-7.51419
 20
-12.43343
 30
0.0
 10
-7.50264
 20
-12.41903
 30
0.0
 10
-7.50223
 20
-12.41833
 30
0.0
 10
-7.50223
 20
-12.41833
 30
0.0
 10
-7.49359
 20
-12.40341
 30
0.0
 10
-7.47839
 20
-12.39466
 30
0.0
 10
-7.46239
 20
-12.39357
 30
0.0
 10
-7.46239
 20
-12.39357
 30
0.0
 10
-7.46239
 20
-12.39357
 30
0.0
 10
-7.46239
 20
-12.39353
 30
0.0
 10
-7.46239
 20
-12.39353
 30
0.0
 10
-7.46239
 20
-12.39353
 30
0.0
 10
-7.3481
 20
-12.38572
 30
0.0
 10
-7.29889
 20
-12.45321
 30
0.0
 10
-7.2934
 20
-12.53365
 30
0.0
 10
-7.2934
 20
-12.53365
 30
0.0
 10
-7.29092
 20
-12.57001
 30
0.0
 10
-7.29891
 20
-12.60918
 30
0.0
 10
-7.31466
 20
-12.64349
 30
0.0
 10
-7.31466
 20
-12.64349
 30
0.0
 10
-7.33104
 20
-12.67917
 30
0.0
 10
-7.35615
 20
-12.71054
 30
0.0
 10
-7.38718
 20
-12.72963
 30
0.0
 10
-7.38718
 20
-12.72963
 30
0.0
 10
-7.45489
 20
-12.77129
 30
0.0
 10
-7.54273
 20
-12.76149
 30
0.0
 10
-7.62192
 20
-12.63275
 30
0.0
 10
-7.62192
 20
-12.63275
 30
0.0
 10
-7.63387
 20
-12.61331
 30
0.0
 10
-7.63091
 20
-12.58889
 30
0.0
 10
-7.61624
 20
-12.57285
 30
0.0
  0
SPLINE
  5
48
330
1F
100
AcDbEntity
  8
Layer 1
 62
     5
100
AcDbSpline
210
0.0
220
0.0
230
1.0
 70
    11
 71
     3
 72
    28
 73
    24
 74
     0
 42
0.0000000001
 43
0.0000000001
 12
1.0
 22
0.0
 32
0.0
 13
1.0
 23
0.0
 33
0.0
 40
0.0
 40
0.0
 40
0.0
 40
0.0
 40
0.1428571428571428
 40
0.1428571428571428
 40
0.1428571428571428
 40
0.1428571428571428
 40
0.2857142857142857
 40
0.2857142857142857
 40
0.2857142857142857
 40
0.2857142857142857
 40
0.4285714285714285
 40
0.4285714285714285
 40
0.4285714285714285
 40
0.4285714285714285
 40
0.5714285714285714
 40
0.5714285714285714
 40
0.5714285714285714
 40
0.5714285714285714
 40
0.7142857142857143
 40
0.7142857142857143
 40
0.7142857142857143
 40
0.7142857142857143
 40
1.0
 40
1.0
 40
1.0
 40
1.0
 10
-7.45131
 20
-12.51445
 30
0.0
 10
-7.47793
 20
-12.54764
 30
0.0
 10
-7.51827
 20
-12.57926
 30
0.0
 10
-7.52786
 20
-12.59417
 30
0.0
 10
-7.52786
 20
-12.59417
 30
0.0
 10
-7.49112
 20
-12.64808
 30
0.0
 10
-7.46022
 20
-12.6572
 30
0.0
 10
-7.43952
 20
-12.64447
 30
0.0
 10
-7.43952
 20
-12.64447
 30
0.0
 10
-7.42561
 20
-12.63591
 30
0.0
 10
-7.41369
 20
-12.62041
 30
0.0
 10
-7.40528
 20
-12.60209
 30
0.0
 10
-7.40528
 20
-12.60209
 30
0.0
 10
-7.39625
 20
-12.58241
 30
0.0
 10
-7.39163
 20
-12.56034
 30
0.0
 10
-7.393
 20
-12.54029
 30
0.0
 10
-7.393
 20
-12.54029
 30
0.0
 10
-7.39452
 20
-12.51795
 30
0.0
 10
-7.40702
 20
-12.49861
 30
0.0
 10
-7.43493
 20
-12.49395
 30
0.0
 10
-7.43493
 20
-12.49395
 30
0.0
 10
-7.43979
 20
-12.50009
 30
0.0
 10
-7.44532
 20
-12.50699
 30
0.0
 10
-7.45131
 20
-12.51445
 30
0.0
  0
SPLINE
  5
49
330
1F
100
AcDbEntity
  8
Layer 1
 62
     5
100
AcDbSpline
210
0.0
220
0.0
230
1.0
 70
    11
 71
     3
 72
    64
 73
    60
 74
     0
 42
0.0000000001
 43
0.0000000001
 12
1.0
 22
0.0
 32
0.0
 13
1.0
 23
0.0
 33
0.0
 40
0.0
 40
0.0
 40
0.0
 40
0.0
 40
0.0625
 40
0.0625
 40
0.0625
 40
0.0625
 40
0.125
 40
0.125
 40
0.125
 40
0.125
 40
0.1875
 40
0.1875
 40
0.1875
 40
0.1875
 40
0.25
 40
0.25
 40
0.25
 40
0.25
 40
0.3125
 40
0.3125
 40
0.3125
 40
0.3125
 40
0.375
 40
0.375
 40
0.375
 40
0.375
 40
0.4375
 40
0.4375
 40
0.4375
 40
0.4375
 40
0.5
 40
0.5
 40
0.5
 40
0.5
 40
0.5625
 40
0.5625
 40
0.5625
 40
0.5625
 40
0.625
 40
0.625
 40
0.625
 40
0.625
 40
0.6875
 40
0.6875
 40
0.6875
 40
0.6875
 40
0.75
 40
0.75
 40
0.75
 40
0.75
 40
0.8125
 40
0.8125
 40
0.8125
 40
0.8125
 40
0.875
 40
0.875
 40
0.875
 40
0.875
 40
1.0
 40
1.0
 40
1.0
 40
1.0
 10
-13.8972
 20
-11.92502
 30
0.0
 10
-13.8972
 20
-11.92502
 30
0.0
 10
-13.89834
 20
-11.92438
 30
0.0
 10
-13.89834
 20
-11.92438
 30
0.0
 10
-13.89834
 20
-11.92438
 30
0.0
 10
-13.89834
 20
-11.92438
 30
0.0
 10
-13.89987
 20
-11.92346
 30
0.0
 10
-13.89987
 20
-11.92346
 30
0.0
 10
-13.89987
 20
-11.92346
 30
0.0
 10
-14.02248
 20
-11.85069
 30
0.0
 10
-13.95509
 20
-11.70233
 30
0.0
 10
-13.89794
 20
-11.60388
 30
0.0
 10
-13.89794
 20
-11.60388
 30
0.0
 10
-13.88982
 20
-11.58988
 30
0.0
 10
-13.88216
 20
-11.57733
 30
0.0
 10
-13.87552
 20
-11.56645
 30
0.0
 10
-13.87552
 20
-11.56645
 30
0.0
 10
-13.87432
 20
-11.56448
 30
0.0
 10
-13.86769
 20
-11.56953
 30
0.0
 10
-13.86086
 20
-11.5754
 30
0.0
 10
-13.86086
 20
-11.5754
 30
0.0
 10
-13.86086
 20
-11.5754
 30
0.0
 10
-13.84999
 20
-11.58203
 30
0.0
 10
-13.84999
 20
-11.58203
 30
0.0
 10
-13.84999
 20
-11.58203
 30
0.0
 10
-13.86736
 20
-11.56078
 30
0.0
 10
-13.86427
 20
-11.52946
 30
0.0
 10
-13.84306
 20
-11.51202
 30
0.0
 10
-13.84306
 20
-11.51202
 30
0.0
 10
-13.83067
 20
-11.50183
 30
0.0
 10
-13.81483
 20
-11.49863
 30
0.0
 10
-13.80031
 20
-11.50194
 30
0.0
 10
-13.80031
 20
-11.50194
 30
0.0
 10
-13.80031
 20
-11.50194
 30
0.0
 10
-13.80029
 20
-11.50187
 30
0.0
 10
-13.80029
 20
-11.50187
 30
0.0
 10
-13.80029
 20
-11.50187
 30
0.0
 10
-13.77137
 20
-11.50856
 30
0.0
 10
-13.73339
 20
-11.54902
 30
0.0
 10
-13.69958
 20
-11.59654
 30
0.0
 10
-13.69958
 20
-11.59654
 30
0.0
 10
-13.66136
 20
-11.65024
 30
0.0
 10
-13.62301
 20
-11.71762
 30
0.0
 10
-13.61427
 20
-11.74593
 30
0.0
 10
-13.61427
 20
-11.74593
 30
0.0
 10
-13.60693
 20
-11.76981
 30
0.0
 10
-13.6184
 20
-11.79498
 30
0.0
 10
-13.64025
 20
-11.80549
 30
0.0
 10
-13.64025
 20
-11.80549
 30
0.0
 10
-13.64025
 20
-11.80549
 30
0.0
 10
-13.64025
 20
-11.8055
 30
0.0
 10
-13.64025
 20
-11.8055
 30
0.0
 10
-13.64025
 20
-11.8055
 30
0.0
 10
-13.65452
 20
-11.81242
 30
0.0
 10
-13.67525
 20
-11.832
 30
0.0
 10
-13.69678
 20
-11.85236
 30
0.0
 10
-13.69678
 20
-11.85236
 30
0.0
 10
-13.75626
 20
-11.90857
 30
0.0
 10
-13.82016
 20
-11.96893
 30
0.0
 10
-13.8972
 20
-11.92502
 30
0.0
  0
SPLINE
  5
4A
330
1F
100
AcDbEntity
  8
Layer 1
 62
     5
100
AcDbSpline
210
0.0
220
0.0
230
1.0
 70
    11
 71
     3
 72
    28
 73
    24
 74
     0
 42
0.0000000001
 43
0.0000000001
 12
1.0
 22
0.0
 32
0.0
 13
1.0
 23
0.0
 33
0.0
 40
0.0
 40
0.0
 40
0.0
 40
0.0
 40
0.1428571428571428
 40
0.1428571428571428
 40
0.1428571428571428
 40
0.1428571428571428
 40
0.2857142857142857
 40
0.2857142857142857
 40
0.2857142857142857
 40
0.2857142857142857
 40
0.4285714285714285
 40
0.4285714285714285
 40
0.4285714285714285
 40
0.4285714285714285
 40
0.5714285714285714
 40
0.5714285714285714
 40
0.5714285714285714
 40
0.5714285714285714
 40
0.7142857142857143
 40
0.7142857142857143
 40
0.7142857142857143
 40
0.7142857142857143
 40
1.0
 40
1.0
 40
1.0
 40
1.0
 10
-13.81162
 20
-11.65388
 30
0.0
 10
-13.84839
 20
-11.71722
 30
0.0
 10
-13.8955
 20
-11.81068
 30
0.0
 10
-13.84834
 20
-11.83806
 30
0.0
 10
-13.84834
 20
-11.83806
 30
0.0
 10
-13.83508
 20
-11.84578
 30
0.0
 10
-13.79884
 20
-11.81155
 30
0.0
 10
-13.76514
 20
-11.7797
 30
0.0
 10
-13.76514
 20
-11.7797
 30
0.0
 10
-13.75153
 20
-11.76683
 30
0.0
 10
-13.73818
 20
-11.75422
 30
0.0
 10
-13.72468
 20
-11.7431
 30
0.0
 10
-13.72468
 20
-11.7431
 30
0.0
 10
-13.73848
 20
-11.71786
 30
0.0
 10
-13.75943
 20
-11.68445
 30
0.0
 10
-13.78084
 20
-11.65436
 30
0.0
 10
-13.78084
 20
-11.65436
 30
0.0
 10
-13.78687
 20
-11.64588
 30
0.0
 10
-13.79263
 20
-11.63786
 30
0.0
 10
-13.79784
 20
-11.6307
 30
0.0
 10
-13.79784
 20
-11.6307
 30
0.0
 10
-13.80226
 20
-11.638
 30
0.0
 10
-13.80693
 20
-11.6458
 30
0.0
 10
-13.81162
 20
-11.65388
 30
0.0
  0
SPLINE
  5
4B
330
1F
100
AcDbEntity
  8
Layer 1
 62
     5
100
AcDbSpline
210
0.0
220
0.0
230
1.0
 70
    11
 71
     3
 72
    16
 73
    12
 74
     0
 42
0.0000000001
 43
0.0000000001
 12
1.0
 22
0.0
 32
0.0
 13
1.0
 23
0.0
 33
0.0
 40
0.0
 40
0.0
 40
0.0
 40
0.0
 40
0.25
 40
0.25
 40
0.25
 40
0.25
 40
0.5
 40
0.5
 40
0.5
 40
0.5
 40
1.0
 40
1.0
 40
1.0
 40
1.0
 10
-13.86086
 20
-11.5754
 30
0.0
 10
-13.8493
 20
-11.58533
 30
0.0
 10
-13.83717
 20
-11.59761
 30
0.0
 10
-13.8499
 20
-11.58214
 30
0.0
 10
-13.8499
 20
-11.58214
 30
0.0
 10
-13.8499
 20
-11.58214
 30
0.0
 10
-13.84999
 20
-11.58203
 30
0.0
 10
-13.84999
 20
-11.58203
 30
0.0
 10
-13.84999
 20
-11.58203
 30
0.0
 10
-13.84999
 20
-11.58203
 30
0.0
 10
-13.86086
 20
-11.5754
 30
0.0
 10
-13.86086
 20
-11.5754
 30
0.0
  0
SPLINE
  5
4C
330
1F
100
AcDbEntity
  8
Layer 1
 62
     5
100
AcDbSpline
210
0.0
220
0.0
230
1.0
 70
    11
 71
     3
 72
    52
 73
    48
 74
     0
 42
0.0000000001
 43
0.0000000001
 12
1.0
 22
0.0
 32
0.0
 13
1.0
 23
0.0
 33
0.0
 40
0.0
 40
0.0
 40
0.0
 40
0.0
 40
0.0769230769230769
 40
0.0769230769230769
 40
0.0769230769230769
 40
0.0769230769230769
 40
0.1538461538461539
 40
0.1538461538461539
 40
0.1538461538461539
 40
0.1538461538461539
 40
0.2307692307692308
 40
0.2307692307692308
 40
0.2307692307692308
 40
0.2307692307692308
 40
0.3076923076923077
 40
0.3076923076923077
 40
0.3076923076923077
 40
0.3076923076923077
 40
0.3846153846153846
 40
0.3846153846153846
 40
0.3846153846153846
 40
0.3846153846153846
 40
0.4615384615384616
 40
0.4615384615384616
 40
0.4615384615384616
 40
0.4615384615384616
 40
0.5384615384615384
 40
0.5384615384615384
 40
0.5384615384615384
 40
0.5384615384615384
 40
0.6153846153846154
 40
0.6153846153846154
 40
0.6153846153846154
 40
0.6153846153846154
 40
0.6923076923076923
 40
0.6923076923076923
 40
0.6923076923076923
 40
0.6923076923076923
 40
0.7692307692307693
 40
0.7692307692307693
 40
0.7692307692307693
 40
0.7692307692307693
 40
0.8461538461538461
 40
0.8461538461538461
 40
0.8461538461538461
 40
0.8461538461538461
 40
1.0
 40
1.0
 40
1.0
 40
1.0
 10
-13.44768
 20
-12.62742
 30
0.0
 10
-13.46869
 20
-12.61784
 30
0.0
 10
-13.48562
 20
-12.60566
 30
0.0
 10
-13.49904
 20
-12.59152
 30
0.0
 10
-13.49904
 20
-12.59152
 30
0.0
 10
-13.53625
 20
-12.55233
 30
0.0
 10
-13.54517
 20
-12.50212
 30
0.0
 10
-13.53986
 20
-12.45174
 30
0.0
 10
-13.53986
 20
-12.45174
 30
0.0
 10
-13.53526
 20
-12.40822
 30
0.0
 10
-13.51967
 20
-12.36468
 30
0.0
 10
-13.50403
 20
-12.33035
 30
0.0
 10
-13.50403
 20
-12.33035
 30
0.0
 10
-13.48546
 20
-12.2896
 30
0.0
 10
-13.46238
 20
-12.25662
 30
0.0
 10
-13.45977
 20
-12.25414
 30
0.0
 10
-13.45977
 20
-12.25414
 30
0.0
 10
-13.44446
 20
-12.23957
 30
0.0
 10
-13.42229
 20
-12.23666
 30
0.0
 10
-13.40423
 20
-12.2451
 30
0.0
 10
-13.40423
 20
-12.2451
 30
0.0
 10
-13.359
 20
-12.2642
 30
0.0
 10
-13.33226
 20
-12.29095
 30
0.0
 10
-13.30596
 20
-12.31725
 30
0.0
 10
-13.30596
 20
-12.31725
 30
0.0
 10
-13.2845
 20
-12.33871
 30
0.0
 10
-13.26341
 20
-12.3598
 30
0.0
 10
-13.23366
 20
-12.36882
 30
0.0
 10
-13.23366
 20
-12.36882
 30
0.0
 10
-13.20734
 20
-12.3768
 30
0.0
 10
-13.19247
 20
-12.40461
 30
0.0
 10
-13.20045
 20
-12.43093
 30
0.0
 10
-13.20045
 20
-12.43093
 30
0.0
 10
-13.20045
 20
-12.43093
 30
0.0
 10
-13.20136
 20
-12.43362
 30
0.0
 10
-13.20136
 20
-12.43362
 30
0.0
 10
-13.20136
 20
-12.43362
 30
0.0
 10
-13.20136
 20
-12.43362
 30
0.0
 10
-13.20123
 20
-12.43367
 30
0.0
 10
-13.20123
 20
-12.43367
 30
0.0
 10
-13.20123
 20
-12.43367
 30
0.0
 10
-13.21379
 20
-12.46763
 30
0.0
 10
-13.23543
 20
-12.52461
 30
0.0
 10
-13.26933
 20
-12.56975
 30
0.0
 10
-13.26933
 20
-12.56975
 30
0.0
 10
-13.31197
 20
-12.62653
 30
0.0
 10
-13.37007
 20
-12.6629
 30
0.0
 10
-13.44768
 20
-12.62742
 30
0.0
  0
SPLINE
  5
4D
330
1F
100
AcDbEntity
  8
Layer 1
 62
     5
100
AcDbSpline
210
0.0
220
0.0
230
1.0
 70
    11
 71
     3
 72
    36
 73
    32
 74
     0
 42
0.0000000001
 43
0.0000000001
 12
1.0
 22
0.0
 32
0.0
 13
1.0
 23
0.0
 33
0.0
 40
0.0
 40
0.0
 40
0.0
 40
0.0
 40
0.1111111111111111
 40
0.1111111111111111
 40
0.1111111111111111
 40
0.1111111111111111
 40
0.2222222222222222
 40
0.2222222222222222
 40
0.2222222222222222
 40
0.2222222222222222
 40
0.3333333333333333
 40
0.3333333333333333
 40
0.3333333333333333
 40
0.3333333333333333
 40
0.4444444444444444
 40
0.4444444444444444
 40
0.4444444444444444
 40
0.4444444444444444
 40
0.5555555555555556
 40
0.5555555555555556
 40
0.5555555555555556
 40
0.5555555555555556
 40
0.6666666666666666
 40
0.6666666666666666
 40
0.6666666666666666
 40
0.6666666666666666
 40
0.7777777777777778
 40
0.7777777777777778
 40
0.7777777777777778
 40
0.7777777777777778
 40
1.0
 40
1.0
 40
1.0
 40
1.0
 10
-13.42678
 20
-12.52276
 30
0.0
 10
-13.42174
 20
-12.52806
 30
0.0
 10
-13.415
 20
-12.53283
 30
0.0
 10
-13.40628
 20
-12.5368
 30
0.0
 10
-13.40628
 20
-12.5368
 30
0.0
 10
-13.38495
 20
-12.54655
 30
0.0
 10
-13.36524
 20
-12.5316
 30
0.0
 10
-13.34901
 20
-12.50999
 30
0.0
 10
-13.34901
 20
-12.50999
 30
0.0
 10
-13.33429
 20
-12.49038
 30
0.0
 10
-13.32186
 20
-12.46547
 30
0.0
 10
-13.31194
 20
-12.44237
 30
0.0
 10
-13.31194
 20
-12.44237
 30
0.0
 10
-13.33788
 20
-12.42673
 30
0.0
 10
-13.35716
 20
-12.40745
 30
0.0
 10
-13.37666
 20
-12.38795
 30
0.0
 10
-13.37666
 20
-12.38795
 30
0.0
 10
-13.38658
 20
-12.37803
 30
0.0
 10
-13.3966
 20
-12.36801
 30
0.0
 10
-13.40752
 20
-12.35906
 30
0.0
 10
-13.40752
 20
-12.35906
 30
0.0
 10
-13.40937
 20
-12.36297
 30
0.0
 10
-13.41134
 20
-12.3672
 30
0.0
 10
-13.41341
 20
-12.37175
 30
0.0
 10
-13.41341
 20
-12.37175
 30
0.0
 10
-13.42544
 20
-12.39816
 30
0.0
 10
-13.43737
 20
-12.43097
 30
0.0
 10
-13.44064
 20
-12.4619
 30
0.0
 10
-13.44064
 20
-12.4619
 30
0.0
 10
-13.44318
 20
-12.48597
 30
0.0
 10
-13.44035
 20
-12.50846
 30
0.0
 10
-13.42678
 20
-12.52276
 30
0.0
  0
SPLINE
  5
4E
330
1F
100
AcDbEntity
  8
Layer 1
 62
     5
100
AcDbSpline
210
0.0
220
0.0
230
1.0
 70
    11
 71
     3
 72
   132
 73
   128
 74
     0
 42
0.0000000001
 43
0.0000000001
 12
1.0
 22
0.0
 32
0.0
 13
1.0
 23
0.0
 33
0.0
 40
0.0
 40
0.0
 40
0.0
 40
0.0
 40
0.0303030303030303
 40
0.0303030303030303
 40
0.0303030303030303
 40
0.0303030303030303
 40
0.0606060606060606
 40
0.0606060606060606
 40
0.0606060606060606
 40
0.0606060606060606
 40
0.0909090909090909
 40
0.0909090909090909
 40
0.0909090909090909
 40
0.0909090909090909
 40
0.1212121212121212
 40
0.1212121212121212
 40
0.1212121212121212
 40
0.1212121212121212
 40
0.1515151515151515
 40
0.1515151515151515
 40
0.1515151515151515
 40
0.1515151515151515
 40
0.1818181818181818
 40
0.1818181818181818
 40
0.1818181818181818
 40
0.1818181818181818
 40
0.2121212121212121
 40
0.2121212121212121
 40
0.2121212121212121
 40
0.2121212121212121
 40
0.2424242424242424
 40
0.2424242424242424
 40
0.2424242424242424
 40
0.2424242424242424
 40
0.2727272727272727
 40
0.2727272727272727
 40
0.2727272727272727
 40
0.2727272727272727
 40
0.303030303030303
 40
0.303030303030303
 40
0.303030303030303
 40
0.303030303030303
 40
0.3333333333333333
 40
0.3333333333333333
 40
0.3333333333333333
 40
0.3333333333333333
 40
0.3636363636363636
 40
0.3636363636363636
 40
0.3636363636363636
 40
0.3636363636363636
 40
0.3939393939393939
 40
0.3939393939393939
 40
0.3939393939393939
 40
0.3939393939393939
 40
0.4242424242424243
 40
0.4242424242424243
 40
0.4242424242424243
 40
0.4242424242424243
 40
0.4545454545454545
 40
0.4545454545454545
 40
0.4545454545454545
 40
0.4545454545454545
 40
0.4848484848484849
 40
0.4848484848484849
 40
0.4848484848484849
 40
0.4848484848484849
 40
0.5151515151515151
 40
0.5151515151515151
 40
0.5151515151515151
 40
0.5151515151515151
 40
0.5454545454545454
 40
0.5454545454545454
 40
0.5454545454545454
 40
0.5454545454545454
 40
0.5757575757575758
 40
0.5757575757575758
 40
0.5757575757575758
 40
0.5757575757575758
 40
0.6060606060606061
 40
0.6060606060606061
 40
0.6060606060606061
 40
0.6060606060606061
 40
0.6363636363636364
 40
0.6363636363636364
 40
0.6363636363636364
 40
0.6363636363636364
 40
0.6666666666666666
 40
0.6666666666666666
 40
0.6666666666666666
 40
0.6666666666666666
 40
0.696969696969697
 40
0.696969696969697
 40
0.696969696969697
 40
0.696969696969697
 40
0.7272727272727273
 40
0.7272727272727273
 40
0.7272727272727273
 40
0.7272727272727273
 40
0.7575757575757576
 40
0.7575757575757576
 40
0.7575757575757576
 40
0.7575757575757576
 40
0.7878787878787878
 40
0.7878787878787878
 40
0.7878787878787878
 40
0.7878787878787878
 40
0.8181818181818182
 40
0.8181818181818182
 40
0.8181818181818182
 40
0.8181818181818182
 40
0.8484848484848485
 40
0.8484848484848485
 40
0.8484848484848485
 40
0.8484848484848485
 40
0.8787878787878788
 40
0.8787878787878788
 40
0.8787878787878788
 40
0.8787878787878788
 40
0.9090909090909091
 40
0.9090909090909091
 40
0.9090909090909091
 40
0.9090909090909091
 40
0.9393939393939394
 40
0.9393939393939394
 40
0.9393939393939394
 40
0.9393939393939394
 40
1.0
 40
1.0
 40
1.0
 40
1.0
 10
-12.51871
 20
-12.39349
 30
0.0
 10
-12.51871
 20
-12.39349
 30
0.0
 10
-12.51817
 20
-12.39354
 30
0.0
 10
-12.51817
 20
-12.39354
 30
0.0
 10
-12.51817
 20
-12.39354
 30
0.0
 10
-12.51817
 20
-12.39354
 30
0.0
 10
-12.51742
 20
-12.39362
 30
0.0
 10
-12.51742
 20
-12.39362
 30
0.0
 10
-12.51742
 20
-12.39362
 30
0.0
 10
-12.51742
 20
-12.39362
 30
0.0
 10
-12.51715
 20
-12.39366
 30
0.0
 10
-12.51715
 20
-12.39366
 30
0.0
 10
-12.51715
 20
-12.39366
 30
0.0
 10
-12.51715
 20
-12.39366
 30
0.0
 10
-12.51629
 20
-12.39377
 30
0.0
 10
-12.51629
 20
-12.39377
 30
0.0
 10
-12.51629
 20
-12.39377
 30
0.0
 10
-12.51629
 20
-12.39377
 30
0.0
 10
-12.51577
 20
-12.39384
 30
0.0
 10
-12.51577
 20
-12.39384
 30
0.0
 10
-12.51577
 20
-12.39384
 30
0.0
 10
-12.51577
 20
-12.39384
 30
0.0
 10
-12.51479
 20
-12.394
 30
0.0
 10
-12.51479
 20
-12.394
 30
0.0
 10
-12.51479
 20
-12.394
 30
0.0
 10
-12.51479
 20
-12.394
 30
0.0
 10
-12.51474
 20
-12.394
 30
0.0
 10
-12.51474
 20
-12.394
 30
0.0
 10
-12.51474
 20
-12.394
 30
0.0
 10
-12.51474
 20
-12.394
 30
0.0
 10
-12.51407
 20
-12.39412
 30
0.0
 10
-12.51407
 20
-12.39412
 30
0.0
 10
-12.51407
 20
-12.39412
 30
0.0
 10
-12.50809
 20
-12.39522
 30
0.0
 10
-12.5025
 20
-12.39738
 30
0.0
 10
-12.4975
 20
-12.40038
 30
0.0
 10
-12.4975
 20
-12.40038
 30
0.0
 10
-12.4975
 20
-12.40038
 30
0.0
 10
-12.49724
 20
-12.40054
 30
0.0
 10
-12.49724
 20
-12.40054
 30
0.0
 10
-12.49724
 20
-12.40054
 30
0.0
 10
-12.49724
 20
-12.40054
 30
0.0
 10
-12.49546
 20
-12.40167
 30
0.0
 10
-12.49546
 20
-12.40167
 30
0.0
 10
-12.49546
 20
-12.40167
 30
0.0
 10
-12.49093
 20
-12.40468
 30
0.0
 10
-12.48685
 20
-12.40848
 30
0.0
 10
-12.48343
 20
-12.41299
 30
0.0
 10
-12.48343
 20
-12.41299
 30
0.0
 10
-12.48343
 20
-12.41299
 30
0.0
 10
-12.48313
 20
-12.4134
 30
0.0
 10
-12.48313
 20
-12.4134
 30
0.0
 10
-12.48313
 20
-12.4134
 30
0.0
 10
-12.48313
 20
-12.4134
 30
0.0
 10
-12.48294
 20
-12.41364
 30
0.0
 10
-12.48294
 20
-12.41364
 30
0.0
 10
-12.48294
 20
-12.41364
 30
0.0
 10
-12.48294
 20
-12.41364
 30
0.0
 10
-12.48232
 20
-12.41451
 30
0.0
 10
-12.48232
 20
-12.41451
 30
0.0
 10
-12.48232
 20
-12.41451
 30
0.0
 10
-12.48232
 20
-12.41451
 30
0.0
 10
-12.48218
 20
-12.41471
 30
0.0
 10
-12.48218
 20
-12.41471
 30
0.0
 10
-12.48218
 20
-12.41471
 30
0.0
 10
-12.48218
 20
-12.41471
 30
0.0
 10
-12.48179
 20
-12.41528
 30
0.0
 10
-12.48179
 20
-12.41528
 30
0.0
 10
-12.48179
 20
-12.41528
 30
0.0
 10
-12.48179
 20
-12.41528
 30
0.0
 10
-12.4814
 20
-12.41587
 30
0.0
 10
-12.4814
 20
-12.41587
 30
0.0
 10
-12.4814
 20
-12.41587
 30
0.0
 10
-12.4814
 20
-12.41587
 30
0.0
 10
-12.48098
 20
-12.41652
 30
0.0
 10
-12.48098
 20
-12.41652
 30
0.0
 10
-12.48098
 20
-12.41652
 30
0.0
 10
-12.48098
 20
-12.41652
 30
0.0
 10
-12.48079
 20
-12.41683
 30
0.0
 10
-12.48079
 20
-12.41683
 30
0.0
 10
-12.48079
 20
-12.41683
 30
0.0
 10
-12.48079
 20
-12.41683
 30
0.0
 10
-12.48024
 20
-12.41773
 30
0.0
 10
-12.48024
 20
-12.41773
 30
0.0
 10
-12.48024
 20
-12.41773
 30
0.0
 10
-12.48024
 20
-12.41773
 30
0.0
 10
-12.48019
 20
-12.41781
 30
0.0
 10
-12.48019
 20
-12.41781
 30
0.0
 10
-12.48019
 20
-12.41781
 30
0.0
 10
-12.47956
 20
-12.41887
 30
0.0
 10
-12.46827
 20
-12.43293
 30
0.0
 10
-12.45373
 20
-12.45105
 30
0.0
 10
-12.45373
 20
-12.45105
 30
0.0
 10
-12.41209
 20
-12.50289
 30
0.0
 10
-12.34892
 20
-12.58164
 30
0.0
 10
-12.35336
 20
-12.61329
 30
0.0
 10
-12.35336
 20
-12.61329
 30
0.0
 10
-12.35434
 20
-12.62035
 30
0.0
 10
-12.35676
 20
-12.62687
 30
0.0
 10
-12.36027
 20
-12.63257
 30
0.0
 10
-12.36027
 20
-12.63257
 30
0.0
 10
-12.36027
 20
-12.63257
 30
0.0
 10
-12.36019
 20
-12.63262
 30
0.0
 10
-12.36019
 20
-12.63262
 30
0.0
 10
-12.36019
 20
-12.63262
 30
0.0
 10
-12.43945
 20
-12.76142
 30
0.0
 10
-12.52733
 20
-12.77121
 30
0.0
 10
-12.59504
 20
-12.72954
 30
0.0
 10
-12.59504
 20
-12.72954
 30
0.0
 10
-12.62605
 20
-12.71046
 30
0.0
 10
-12.65113
 20
-12.67914
 30
0.0
 10
-12.66751
 20
-12.64349
 30
0.0
 10
-12.66751
 20
-12.64349
 30
0.0
 10
-12.68325
 20
-12.60922
 30
0.0
 10
-12.69124
 20
-12.57008
 30
0.0
 10
-12.68878
 20
-12.53374
 30
0.0
 10
-12.68878
 20
-12.53374
 30
0.0
 10
-12.68336
 20
-12.45349
 30
0.0
 10
-12.63444
 20
-12.38607
 30
0.0
 10
-12.52076
 20
-12.39335
 30
0.0
 10
-12.52076
 20
-12.39335
 30
0.0
 10
-12.52076
 20
-12.39335
 30
0.0
 10
-12.51984
 20
-12.3934
 30
0.0
 10
-12.51984
 20
-12.3934
 30
0.0
 10
-12.51984
 20
-12.3934
 30
0.0
 10
-12.51984
 20
-12.3934
 30
0.0
 10
-12.51871
 20
-12.39349
 30
0.0
 10
-12.51871
 20
-12.39349
 30
0.0
  0
SPLINE
  5
4F
330
1F
100
AcDbEntity
  8
Layer 1
 62
     5
100
AcDbSpline
210
0.0
220
0.0
230
1.0
 70
    11
 71
     3
 72
    28
 73
    24
 74
     0
 42
0.0000000001
 43
0.0000000001
 12
1.0
 22
0.0
 32
0.0
 13
1.0
 23
0.0
 33
0.0
 40
0.0
 40
0.0
 40
0.0
 40
0.0
 40
0.1428571428571428
 40
0.1428571428571428
 40
0.1428571428571428
 40
0.1428571428571428
 40
0.2857142857142857
 40
0.2857142857142857
 40
0.2857142857142857
 40
0.2857142857142857
 40
0.4285714285714285
 40
0.4285714285714285
 40
0.4285714285714285
 40
0.4285714285714285
 40
0.5714285714285714
 40
0.5714285714285714
 40
0.5714285714285714
 40
0.5714285714285714
 40
0.7142857142857143
 40
0.7142857142857143
 40
0.7142857142857143
 40
0.7142857142857143
 40
1.0
 40
1.0
 40
1.0
 40
1.0
 10
-12.53147
 20
-12.51355
 30
0.0
 10
-12.53147
 20
-12.51355
 30
0.0
 10
-12.54725
 20
-12.49384
 30
0.0
 10
-12.54725
 20
-12.49384
 30
0.0
 10
-12.54725
 20
-12.49384
 30
0.0
 10
-12.57518
 20
-12.49854
 30
0.0
 10
-12.58767
 20
-12.51796
 30
0.0
 10
-12.58918
 20
-12.54038
 30
0.0
 10
-12.58918
 20
-12.54038
 30
0.0
 10
-12.59053
 20
-12.5604
 30
0.0
 10
-12.58592
 20
-12.58243
 30
0.0
 10
-12.57689
 20
-12.60209
 30
0.0
 10
-12.57689
 20
-12.60209
 30
0.0
 10
-12.5685
 20
-12.62036
 30
0.0
 10
-12.55659
 20
-12.63583
 30
0.0
 10
-12.5427
 20
-12.64438
 30
0.0
 10
-12.5427
 20
-12.64438
 30
0.0
 10
-12.52197
 20
-12.65714
 30
0.0
 10
-12.49101
 20
-12.64799
 30
0.0
 10
-12.45419
 20
-12.59394
 30
0.0
 10
-12.45419
 20
-12.59394
 30
0.0
 10
-12.46373
 20
-12.57897
 30
0.0
 10
-12.50471
 20
-12.54685
 30
0.0
 10
-12.53147
 20
-12.51355
 30
0.0
  0
SPLINE
  5
50
330
1F
100
AcDbEntity
  8
Layer 1
 62
     5
100
AcDbSpline
210
0.0
220
0.0
230
1.0
 70
    11
 71
     3
 72
    36
 73
    32
 74
     0
 42
0.0000000001
 43
0.0000000001
 12
1.0
 22
0.0
 32
0.0
 13
1.0
 23
0.0
 33
0.0
 40
0.0
 40
0.0
 40
0.0
 40
0.0
 40
0.1111111111111111
 40
0.1111111111111111
 40
0.1111111111111111
 40
0.1111111111111111
 40
0.2222222222222222
 40
0.2222222222222222
 40
0.2222222222222222
 40
0.2222222222222222
 40
0.3333333333333333
 40
0.3333333333333333
 40
0.3333333333333333
 40
0.3333333333333333
 40
0.4444444444444444
 40
0.4444444444444444
 40
0.4444444444444444
 40
0.4444444444444444
 40
0.5555555555555556
 40
0.5555555555555556
 40
0.5555555555555556
 40
0.5555555555555556
 40
0.6666666666666666
 40
0.6666666666666666
 40
0.6666666666666666
 40
0.6666666666666666
 40
0.7777777777777778
 40
0.7777777777777778
 40
0.7777777777777778
 40
0.7777777777777778
 40
1.0
 40
1.0
 40
1.0
 40
1.0
 10
-7.6162
 20
-12.57631
 30
0.0
 10
-7.59623
 20
-12.53914
 30
0.0
 10
-7.55709
 20
-12.49039
 30
0.0
 10
-7.52832
 20
-12.45456
 30
0.0
 10
-7.52832
 20
-12.45456
 30
0.0
 10
-7.51383
 20
-12.43652
 30
0.0
 10
-7.50261
 20
-12.42255
 30
0.0
 10
-7.50201
 20
-12.42154
 30
0.0
 10
-7.50201
 20
-12.42154
 30
0.0
 10
-7.49314
 20
-12.40653
 30
0.0
 10
-7.47764
 20
-12.39788
 30
0.0
 10
-7.46144
 20
-12.39708
 30
0.0
 10
-7.46144
 20
-12.39708
 30
0.0
 10
-7.34777
 20
-12.3898
 30
0.0
 10
-7.29885
 20
-12.45719
 30
0.0
 10
-7.29343
 20
-12.53745
 30
0.0
 10
-7.29343
 20
-12.53745
 30
0.0
 10
-7.29099
 20
-12.57379
 30
0.0
 10
-7.29896
 20
-12.61293
 30
0.0
 10
-7.3147
 20
-12.64719
 30
0.0
 10
-7.3147
 20
-12.64719
 30
0.0
 10
-7.33108
 20
-12.68285
 30
0.0
 10
-7.35617
 20
-12.71417
 30
0.0
 10
-7.38717
 20
-12.73325
 30
0.0
 10
-7.38717
 20
-12.73325
 30
0.0
 10
-7.45488
 20
-12.77493
 30
0.0
 10
-7.54275
 20
-12.76513
 30
0.0
 10
-7.62201
 20
-12.63634
 30
0.0
 10
-7.62201
 20
-12.63634
 30
0.0
 10
-7.63399
 20
-12.61685
 30
0.0
 10
-7.63098
 20
-12.59235
 30
0.0
 10
-7.6162
 20
-12.57631
 30
0.0
  0
SPLINE
  5
51
330
1F
100
AcDbEntity
  8
Layer 1
 62
     5
100
AcDbSpline
210
0.0
220
0.0
230
1.0
 70
    11
 71
     3
 72
    28
 73
    24
 74
     0
 42
0.0000000001
 43
0.0000000001
 12
1.0
 22
0.0
 32
0.0
 13
1.0
 23
0.0
 33
0.0
 40
0.0
 40
0.0
 40
0.0
 40
0.0
 40
0.1428571428571428
 40
0.1428571428571428
 40
0.1428571428571428
 40
0.1428571428571428
 40
0.2857142857142857
 40
0.2857142857142857
 40
0.2857142857142857
 40
0.2857142857142857
 40
0.4285714285714285
 40
0.4285714285714285
 40
0.4285714285714285
 40
0.4285714285714285
 40
0.5714285714285714
 40
0.5714285714285714
 40
0.5714285714285714
 40
0.5714285714285714
 40
0.7142857142857143
 40
0.7142857142857143
 40
0.7142857142857143
 40
0.7142857142857143
 40
1.0
 40
1.0
 40
1.0
 40
1.0
 10
-7.45058
 20
-12.51706
 30
0.0
 10
-7.47735
 20
-12.55039
 30
0.0
 10
-7.51847
 20
-12.58265
 30
0.0
 10
-7.52801
 20
-12.59766
 30
0.0
 10
-7.52801
 20
-12.59766
 30
0.0
 10
-7.49119
 20
-12.65172
 30
0.0
 10
-7.46024
 20
-12.66085
 30
0.0
 10
-7.43951
 20
-12.64809
 30
0.0
 10
-7.43951
 20
-12.64809
 30
0.0
 10
-7.42562
 20
-12.63955
 30
0.0
 10
-7.41371
 20
-12.62407
 30
0.0
 10
-7.40532
 20
-12.60579
 30
0.0
 10
-7.40532
 20
-12.60579
 30
0.0
 10
-7.39629
 20
-12.58613
 30
0.0
 10
-7.39169
 20
-12.5641
 30
0.0
 10
-7.39303
 20
-12.54409
 30
0.0
 10
-7.39303
 20
-12.54409
 30
0.0
 10
-7.39454
 20
-12.52167
 30
0.0
 10
-7.40704
 20
-12.50226
 30
0.0
 10
-7.43498
 20
-12.49757
 30
0.0
 10
-7.43498
 20
-12.49757
 30
0.0
 10
-7.43498
 20
-12.49757
 30
0.0
 10
-7.45058
 20
-12.51706
 30
0.0
 10
-7.45058
 20
-12.51706
 30
0.0
  0
SPLINE
  5
52
330
1F
100
AcDbEntity
  8
Layer 1
 62
     5
100
AcDbSpline
210
0.0
220
0.0
230
1.0
 70
    11
 71
     3
 72
    60
 73
    56
 74
     0
 42
0.0000000001
 43
0.0000000001
 12
1.0
 22
0.0
 32
0.0
 13
1.0
 23
0.0
 33
0.0
 40
0.0
 40
0.0
 40
0.0
 40
0.0
 40
0.0666666666666667
 40
0.0666666666666667
 40
0.0666666666666667
 40
0.0666666666666667
 40
0.1333333333333333
 40
0.1333333333333333
 40
0.1333333333333333
 40
0.1333333333333333
 40
0.2
 40
0.2
 40
0.2
 40
0.2
 40
0.2666666666666667
 40
0.2666666666666667
 40
0.2666666666666667
 40
0.2666666666666667
 40
0.3333333333333333
 40
0.3333333333333333
 40
0.3333333333333333
 40
0.3333333333333333
 40
0.4
 40
0.4
 40
0.4
 40
0.4
 40
0.4666666666666667
 40
0.4666666666666667
 40
0.4666666666666667
 40
0.4666666666666667
 40
0.5333333333333333
 40
0.5333333333333333
 40
0.5333333333333333
 40
0.5333333333333333
 40
0.6
 40
0.6
 40
0.6
 40
0.6
 40
0.6666666666666666
 40
0.6666666666666666
 40
0.6666666666666666
 40
0.6666666666666666
 40
0.7333333333333333
 40
0.7333333333333333
 40
0.7333333333333333
 40
0.7333333333333333
 40
0.8
 40
0.8
 40
0.8
 40
0.8
 40
0.8666666666666667
 40
0.8666666666666667
 40
0.8666666666666667
 40
0.8666666666666667
 40
1.0
 40
1.0
 40
1.0
 40
1.0
 10
-6.57798
 20
-12.24882
 30
0.0
 10
-6.55992
 20
-12.24038
 30
0.0
 10
-6.53775
 20
-12.24329
 30
0.0
 10
-6.52244
 20
-12.25786
 30
0.0
 10
-6.52244
 20
-12.25786
 30
0.0
 10
-6.52244
 20
-12.25786
 30
0.0
 10
-6.52206
 20
-12.25827
 30
0.0
 10
-6.52206
 20
-12.25827
 30
0.0
 10
-6.52206
 20
-12.25827
 30
0.0
 10
-6.51767
 20
-12.26253
 30
0.0
 10
-6.514
 20
-12.26768
 30
0.0
 10
-6.51135
 20
-12.27359
 30
0.0
 10
-6.51135
 20
-12.27359
 30
0.0
 10
-6.50235
 20
-12.28751
 30
0.0
 10
-6.48945
 20
-12.30934
 30
0.0
 10
-6.4782
 20
-12.33402
 30
0.0
 10
-6.4782
 20
-12.33402
 30
0.0
 10
-6.46257
 20
-12.36832
 30
0.0
 10
-6.44698
 20
-12.41177
 30
0.0
 10
-6.44237
 20
-12.45507
 30
0.0
 10
-6.44237
 20
-12.45507
 30
0.0
 10
-6.43701
 20
-12.50545
 30
0.0
 10
-6.44581
 20
-12.55565
 30
0.0
 10
-6.48275
 20
-12.59481
 30
0.0
 10
-6.48275
 20
-12.59481
 30
0.0
 10
-6.49627
 20
-12.60914
 30
0.0
 10
-6.51334
 20
-12.62149
 30
0.0
 10
-6.53453
 20
-12.63114
 30
0.0
 10
-6.53453
 20
-12.63114
 30
0.0
 10
-6.61215
 20
-12.66662
 30
0.0
 10
-6.67025
 20
-12.63023
 30
0.0
 10
-6.71287
 20
-12.57346
 30
0.0
 10
-6.71287
 20
-12.57346
 30
0.0
 10
-6.74677
 20
-12.52832
 30
0.0
 10
-6.76841
 20
-12.47133
 30
0.0
 10
-6.78095
 20
-12.43737
 30
0.0
 10
-6.78095
 20
-12.43737
 30
0.0
 10
-6.79044
 20
-12.41148
 30
0.0
 10
-6.77715
 20
-12.38279
 30
0.0
 10
-6.75126
 20
-12.3733
 30
0.0
 10
-6.75126
 20
-12.3733
 30
0.0
 10
-6.74945
 20
-12.37264
 30
0.0
 10
-6.74762
 20
-12.37209
 30
0.0
 10
-6.74579
 20
-12.37165
 30
0.0
 10
-6.74579
 20
-12.37165
 30
0.0
 10
-6.7173
 20
-12.36214
 30
0.0
 10
-6.69689
 20
-12.34179
 30
0.0
 10
-6.67617
 20
-12.32107
 30
0.0
 10
-6.67617
 20
-12.32107
 30
0.0
 10
-6.67617
 20
-12.32107
 30
0.0
 10
-6.67626
 20
-12.32097
 30
0.0
 10
-6.67626
 20
-12.32097
 30
0.0
 10
-6.67626
 20
-12.32097
 30
0.0
 10
-6.64997
 20
-12.29468
 30
0.0
 10
-6.62321
 20
-12.26792
 30
0.0
 10
-6.57798
 20
-12.24882
 30
0.0
  0
SPLINE
  5
53
330
1F
100
AcDbEntity
  8
Layer 1
 62
     5
100
AcDbSpline
210
0.0
220
0.0
230
1.0
 70
    11
 71
     3
 72
    44
 73
    40
 74
     0
 42
0.0000000001
 43
0.0000000001
 12
1.0
 22
0.0
 32
0.0
 13
1.0
 23
0.0
 33
0.0
 40
0.0
 40
0.0
 40
0.0
 40
0.0
 40
0.0909090909090909
 40
0.0909090909090909
 40
0.0909090909090909
 40
0.0909090909090909
 40
0.1818181818181818
 40
0.1818181818181818
 40
0.1818181818181818
 40
0.1818181818181818
 40
0.2727272727272727
 40
0.2727272727272727
 40
0.2727272727272727
 40
0.2727272727272727
 40
0.3636363636363636
 40
0.3636363636363636
 40
0.3636363636363636
 40
0.3636363636363636
 40
0.4545454545454545
 40
0.4545454545454545
 40
0.4545454545454545
 40
0.4545454545454545
 40
0.5454545454545454
 40
0.5454545454545454
 40
0.5454545454545454
 40
0.5454545454545454
 40
0.6363636363636364
 40
0.6363636363636364
 40
0.6363636363636364
 40
0.6363636363636364
 40
0.7272727272727273
 40
0.7272727272727273
 40
0.7272727272727273
 40
0.7272727272727273
 40
0.8181818181818182
 40
0.8181818181818182
 40
0.8181818181818182
 40
0.8181818181818182
 40
1.0
 40
1.0
 40
1.0
 40
1.0
 10
-6.56882
 20
-12.37542
 30
0.0
 10
-6.56882
 20
-12.37542
 30
0.0
 10
-6.57469
 20
-12.36277
 30
0.0
 10
-6.57469
 20
-12.36277
 30
0.0
 10
-6.57469
 20
-12.36277
 30
0.0
 10
-6.58562
 20
-12.37172
 30
0.0
 10
-6.59563
 20
-12.38174
 30
0.0
 10
-6.60556
 20
-12.39167
 30
0.0
 10
-6.60556
 20
-12.39167
 30
0.0
 10
-6.60556
 20
-12.39167
 30
0.0
 10
-6.60566
 20
-12.39157
 30
0.0
 10
-6.60566
 20
-12.39157
 30
0.0
 10
-6.60566
 20
-12.39157
 30
0.0
 10
-6.60566
 20
-12.39157
 30
0.0
 10
-6.60575
 20
-12.39167
 30
0.0
 10
-6.60575
 20
-12.39167
 30
0.0
 10
-6.60575
 20
-12.39167
 30
0.0
 10
-6.62524
 20
-12.41115
 30
0.0
 10
-6.6445
 20
-12.4304
 30
0.0
 10
-6.67027
 20
-12.44601
 30
0.0
 10
-6.67027
 20
-12.44601
 30
0.0
 10
-6.66036
 20
-12.46913
 30
0.0
 10
-6.64793
 20
-12.49408
 30
0.0
 10
-6.63319
 20
-12.5137
 30
0.0
 10
-6.63319
 20
-12.5137
 30
0.0
 10
-6.61697
 20
-12.53531
 30
0.0
 10
-6.59725
 20
-12.55026
 30
0.0
 10
-6.57593
 20
-12.54052
 30
0.0
 10
-6.57593
 20
-12.54052
 30
0.0
 10
-6.56716
 20
-12.53653
 30
0.0
 10
-6.56042
 20
-12.53175
 30
0.0
 10
-6.55541
 20
-12.52645
 30
0.0
 10
-6.55541
 20
-12.52645
 30
0.0
 10
-6.54184
 20
-12.51207
 30
0.0
 10
-6.53904
 20
-12.48961
 30
0.0
 10
-6.54159
 20
-12.46561
 30
0.0
 10
-6.54159
 20
-12.46561
 30
0.0
 10
-6.54489
 20
-12.43454
 30
0.0
 10
-6.55681
 20
-12.40178
 30
0.0
 10
-6.56882
 20
-12.37542
 30
0.0
  0
SPLINE
  5
54
330
1F
100
AcDbEntity
  8
Layer 1
 62
     5
100
AcDbSpline
210
0.0
220
0.0
230
1.0
 70
    11
 71
     3
 72
    56
 73
    52
 74
     0
 42
0.0000000001
 43
0.0000000001
 12
1.0
 22
0.0
 32
0.0
 13
1.0
 23
0.0
 33
0.0
 40
0.0
 40
0.0
 40
0.0
 40
0.0
 40
0.0714285714285714
 40
0.0714285714285714
 40
0.0714285714285714
 40
0.0714285714285714
 40
0.1428571428571428
 40
0.1428571428571428
 40
0.1428571428571428
 40
0.1428571428571428
 40
0.2142857142857143
 40
0.2142857142857143
 40
0.2142857142857143
 40
0.2142857142857143
 40
0.2857142857142857
 40
0.2857142857142857
 40
0.2857142857142857
 40
0.2857142857142857
 40
0.3571428571428572
 40
0.3571428571428572
 40
0.3571428571428572
 40
0.3571428571428572
 40
0.4285714285714285
 40
0.4285714285714285
 40
0.4285714285714285
 40
0.4285714285714285
 40
0.5
 40
0.5
 40
0.5
 40
0.5
 40
0.5714285714285714
 40
0.5714285714285714
 40
0.5714285714285714
 40
0.5714285714285714
 40
0.6428571428571429
 40
0.6428571428571429
 40
0.6428571428571429
 40
0.6428571428571429
 40
0.7142857142857143
 40
0.7142857142857143
 40
0.7142857142857143
 40
0.7142857142857143
 40
0.7857142857142857
 40
0.7857142857142857
 40
0.7857142857142857
 40
0.7857142857142857
 40
0.8571428571428571
 40
0.8571428571428571
 40
0.8571428571428571
 40
0.8571428571428571
 40
1.0
 40
1.0
 40
1.0
 40
1.0
 10
-6.08234
 20
-11.92718
 30
0.0
 10
-6.08234
 20
-11.92718
 30
0.0
 10
-6.08387
 20
-11.9281
 30
0.0
 10
-6.08387
 20
-11.9281
 30
0.0
 10
-6.08387
 20
-11.9281
 30
0.0
 10
-6.08387
 20
-11.9281
 30
0.0
 10
-6.08501
 20
-11.92874
 30
0.0
 10
-6.08501
 20
-11.92874
 30
0.0
 10
-6.08501
 20
-11.92874
 30
0.0
 10
-6.16207
 20
-11.97265
 30
0.0
 10
-6.22596
 20
-11.91227
 30
0.0
 10
-6.28545
 20
-11.85605
 30
0.0
 10
-6.28545
 20
-11.85605
 30
0.0
 10
-6.30698
 20
-11.8357
 30
0.0
 10
-6.3277
 20
-11.81612
 30
0.0
 10
-6.34195
 20
-11.8092
 30
0.0
 10
-6.34195
 20
-11.8092
 30
0.0
 10
-6.3652
 20
-11.79798
 30
0.0
 10
-6.3758
 20
-11.77104
 30
0.0
 10
-6.36717
 20
-11.74729
 30
0.0
 10
-6.36717
 20
-11.74729
 30
0.0
 10
-6.35716
 20
-11.71774
 30
0.0
 10
-6.31983
 20
-11.65251
 30
0.0
 10
-6.28262
 20
-11.60023
 30
0.0
 10
-6.28262
 20
-11.60023
 30
0.0
 10
-6.24881
 20
-11.55272
 30
0.0
 10
-6.21081
 20
-11.51226
 30
0.0
 10
-6.18191
 20
-11.50559
 30
0.0
 10
-6.18191
 20
-11.50559
 30
0.0
 10
-6.15506
 20
-11.49945
 30
0.0
 10
-6.12829
 20
-11.51624
 30
0.0
 10
-6.12215
 20
-11.54309
 30
0.0
 10
-6.12215
 20
-11.54309
 30
0.0
 10
-6.1186
 20
-11.5586
 30
0.0
 10
-6.12271
 20
-11.5741
 30
0.0
 10
-6.132
 20
-11.5856
 30
0.0
 10
-6.132
 20
-11.5856
 30
0.0
 10
-6.132
 20
-11.5856
 30
0.0
 10
-6.12124
 20
-11.57903
 30
0.0
 10
-6.12124
 20
-11.57903
 30
0.0
 10
-6.12124
 20
-11.57903
 30
0.0
 10
-6.11444
 20
-11.57319
 30
0.0
 10
-6.10787
 20
-11.56819
 30
0.0
 10
-6.10668
 20
-11.57015
 30
0.0
 10
-6.10668
 20
-11.57015
 30
0.0
 10
-6.10005
 20
-11.58102
 30
0.0
 10
-6.0924
 20
-11.59357
 30
0.0
 10
-6.08427
 20
-11.60757
 30
0.0
 10
-6.08427
 20
-11.60757
 30
0.0
 10
-6.02712
 20
-11.70602
 30
0.0
 10
-5.95972
 20
-11.8544
 30
0.0
 10
-6.08234
 20
-11.92718
 30
0.0
  0
SPLINE
  5
55
330
1F
100
AcDbEntity
  8
Layer 1
 62
     5
100
AcDbSpline
210
0.0
220
0.0
230
1.0
 70
    11
 71
     3
 72
    28
 73
    24
 74
     0
 42
0.0000000001
 43
0.0000000001
 12
1.0
 22
0.0
 32
0.0
 13
1.0
 23
0.0
 33
0.0
 40
0.0
 40
0.0
 40
0.0
 40
0.0
 40
0.1428571428571428
 40
0.1428571428571428
 40
0.1428571428571428
 40
0.1428571428571428
 40
0.2857142857142857
 40
0.2857142857142857
 40
0.2857142857142857
 40
0.2857142857142857
 40
0.4285714285714285
 40
0.4285714285714285
 40
0.4285714285714285
 40
0.4285714285714285
 40
0.5714285714285714
 40
0.5714285714285714
 40
0.5714285714285714
 40
0.5714285714285714
 40
0.7142857142857143
 40
0.7142857142857143
 40
0.7142857142857143
 40
0.7142857142857143
 40
1.0
 40
1.0
 40
1.0
 40
1.0
 10
-6.21709
 20
-11.78339
 30
0.0
 10
-6.18338
 20
-11.81525
 30
0.0
 10
-6.14713
 20
-11.8495
 30
0.0
 10
-6.13387
 20
-11.84178
 30
0.0
 10
-6.13387
 20
-11.84178
 30
0.0
 10
-6.08669
 20
-11.81439
 30
0.0
 10
-6.13382
 20
-11.72091
 30
0.0
 10
-6.17059
 20
-11.65757
 30
0.0
 10
-6.17059
 20
-11.65757
 30
0.0
 10
-6.17527
 20
-11.64951
 30
0.0
 10
-6.17993
 20
-11.6417
 30
0.0
 10
-6.18436
 20
-11.6344
 30
0.0
 10
-6.18436
 20
-11.6344
 30
0.0
 10
-6.18956
 20
-11.64156
 30
0.0
 10
-6.19533
 20
-11.64957
 30
0.0
 10
-6.20136
 20
-11.65805
 30
0.0
 10
-6.20136
 20
-11.65805
 30
0.0
 10
-6.22278
 20
-11.68814
 30
0.0
 10
-6.24374
 20
-11.72156
 30
0.0
 10
-6.25753
 20
-11.74681
 30
0.0
 10
-6.25753
 20
-11.74681
 30
0.0
 10
-6.24403
 20
-11.75792
 30
0.0
 10
-6.23069
 20
-11.77053
 30
0.0
 10
-6.21709
 20
-11.78339
 30
0.0
  0
SPLINE
  5
56
330
1F
100
AcDbEntity
  8
Layer 1
 62
     5
100
AcDbSpline
210
0.0
220
0.0
230
1.0
 70
    11
 71
     3
 72
    16
 73
    12
 74
     0
 42
0.0000000001
 43
0.0000000001
 12
1.0
 22
0.0
 32
0.0
 13
1.0
 23
0.0
 33
0.0
 40
0.0
 40
0.0
 40
0.0
 40
0.0
 40
0.25
 40
0.25
 40
0.25
 40
0.25
 40
0.5
 40
0.5
 40
0.5
 40
0.5
 40
1.0
 40
1.0
 40
1.0
 40
1.0
 10
-6.132
 20
-11.5856
 30
0.0
 10
-6.132
 20
-11.5856
 30
0.0
 10
-6.13382
 20
-11.58772
 30
0.0
 10
-6.13382
 20
-11.58772
 30
0.0
 10
-6.13382
 20
-11.58772
 30
0.0
 10
-6.14404
 20
-11.60034
 30
0.0
 10
-6.13234
 20
-11.58856
 30
0.0
 10
-6.12124
 20
-11.57903
 30
0.0
 10
-6.12124
 20
-11.57903
 30
0.0
 10
-6.12124
 20
-11.57903
 30
0.0
 10
-6.132
 20
-11.5856
 30
0.0
 10
-6.132
 20
-11.5856
 30
0.0
  0
ENDSEC
  0
SECTION
  2
OBJECTS
  0
DICTIONARY
  5
C
330
0
100
AcDbDictionary
281
     1
  3
ACAD_GROUP
350
D
  3
ACAD_LAYOUT
350
1A
  3
ACAD_MATERIAL
350
3B
  3
ACAD_MLEADERSTYLE
350
78
  3
ACAD_MLINESTYLE
350
17
  3
ACAD_PLOTSETTINGS
350
19
  3
ACAD_PLOTSTYLENAME
350
E
  3
ACAD_TABLESTYLE
350
77
  3
ACAD_VISUALSTYLE
350
2A
  0
DICTIONARY
  5
D
102
{ACAD_REACTORS
330
C
102
}
330
C
100
AcDbDictionary
281
     1
  0
DICTIONARY
  5
1A
102
{ACAD_REACTORS
330
C
102
}
330
C
100
AcDbDictionary
281
     1
  3
Layout1
350
1E
  3
Layout2
350
26
  3
Model
350
22
  0
DICTIONARY
  5
3B
102
{ACAD_REACTORS
330
C
102
}
330
C
100
AcDbDictionary
281
     1
  3
ByBlock
350
3D
  3
ByLayer
350
3C
  3
Global
350
3E
  0
DICTIONARY
  5
78
102
{ACAD_REACTORS
330
C
102
}
330
C
100
AcDbDictionary
281
     1
  0
DICTIONARY
  5
17
102
{ACAD_REACTORS
330
C
102
}
330
C
100
AcDbDictionary
281
     1
  3
Standard
350
18
  0
DICTIONARY
  5
19
102
{ACAD_REACTORS
330
C
102
}
330
C
100
AcDbDictionary
281
     1
  0
ACDBDICTIONARYWDFLT
  5
E
102
{ACAD_REACTORS
330
C
102
}
330
C
100
AcDbDictionary
281
     1
  3
Normal
350
F
100
AcDbDictionaryWithDefault
340
F
  0
DICTIONARY
  5
77
102
{ACAD_REACTORS
330
C
102
}
330
C
100
AcDbDictionary
281
     1
  0
DICTIONARY
  5
2A
102
{ACAD_REACTORS
330
C
102
}
330
C
100
AcDbDictionary
281
     1
  3
2dWireframe
350
2F
  3
3D Hidden
350
31
  3
3dWireframe
350
30
  3
Basic
350
32
  3
Brighten
350
36
  3
ColorChange
350
3A
  3
Conceptual
350
34
  3
Dim
350
35
  3
Facepattern
350
39
  3
Flat
350
2B
  3
FlatWithEdges
350
2C
  3
Gouraud
350
2D
  3
GouraudWithEdges
350
2E
  3
Linepattern
350
38
  3
Realistic
350
33
  3
Thicken
350
37
  0
LAYOUT
  5
1E
102
{ACAD_REACTORS
330
1A
102
}
330
1A
100
AcDbPlotSettings
  1

  2
none_device
  4

  6

 40
0.0
 41
0.0
 42
0.0
 43
0.0
 44
0.0
 45
0.0
 46
0.0
 47
0.0
 48
0.0
 49
0.0
140
0.0
141
0.0
142
1.0
143
1.0
 70
   688
 72
     0
 73
     0
 74
     5
  7

 75
    16
 76
     0
 77
     2
 78
   300
147
1.0
148
0.0
149
0.0
100
AcDbLayout
  1
Layout1
 70
     1
 71
     1
 10
0.0
 20
0.0
 11
12.0
 21
9.0
 12
0.0
 22
0.0
 32
0.0
 14
1.000000000000000E+20
 24
1.000000000000000E+20
 34
1.000000000000000E+20
 15
-1.000000000000000E+20
 25
-1.000000000000000E+20
 35
-1.000000000000000E+20
146
0.0
 13
0.0
 23
0.0
 33
0.0
 16
1.0
 26
0.0
 36
0.0
 17
0.0
 27
1.0
 37
0.0
 76
     0
330
1B
  0
LAYOUT
  5
26
102
{ACAD_REACTORS
330
1A
102
}
330
1A
100
AcDbPlotSettings
  1

  2
none_device
  4

  6

 40
0.0
 41
0.0
 42
0.0
 43
0.0
 44
0.0
 45
0.0
 46
0.0
 47
0.0
 48
0.0
 49
0.0
140
0.0
141
0.0
142
1.0
143
1.0
 70
   688
 72
     0
 73
     0
 74
     5
  7

 75
    16
 76
     0
 77
     2
 78
   300
147
1.0
148
0.0
149
0.0
100
AcDbLayout
  1
Layout2
 70
     1
 71
     2
 10
0.0
 20
0.0
 11
0.0
 21
0.0
 12
0.0
 22
0.0
 32
0.0
 14
0.0
 24
0.0
 34
0.0
 15
0.0
 25
0.0
 35
0.0
146
0.0
 13
0.0
 23
0.0
 33
0.0
 16
1.0
 26
0.0
 36
0.0
 17
0.0
 27
1.0
 37
0.0
 76
     0
330
23
  0
LAYOUT
  5
22
102
{ACAD_REACTORS
330
1A
102
}
330
1A
100
AcDbPlotSettings
  1

  2
none_device
  4

  6

 40
0.0
 41
0.0
 42
0.0
 43
0.0
 44
0.0
 45
0.0
 46
0.0
 47
0.0
 48
0.0
 49
0.0
140
0.0
141
0.0
142
1.0
143
1.0
 70
  1712
 72
     0
 73
     0
 74
     0
  7

 75
     0
 76
     0
 77
     2
 78
   300
147
1.0
148
0.0
149
0.0
100
AcDbLayout
  1
Model
 70
     1
 71
     0
 10
0.0
 20
0.0
 11
12.0
 21
9.0
 12
0.0
 22
0.0
 32
0.0
 14
-13.96867
 24
-12.75527
 34
0.0
 15
-6.01354
 25
-11.50062
 35
0.0
146
0.0
 13
0.0
 23
0.0
 33
0.0
 16
1.0
 26
0.0
 36
0.0
 17
0.0
 27
1.0
 37
0.0
 76
     0
330
1F
331
29
  0
MATERIAL
  5
3D
102
{ACAD_REACTORS
330
3B
102
}
330
3B
100
AcDbMaterial
  1
ByBlock
 72
     1
 94
      127
  0
MATERIAL
  5
3C
102
{ACAD_REACTORS
330
3B
102
}
330
3B
100
AcDbMaterial
  1
ByLayer
 72
     1
 94
      127
  0
MATERIAL
  5
3E
102
{ACAD_REACTORS
330
3B
102
}
330
3B
100
AcDbMaterial
  1
Global
 72
     1
 94
      127
  0
MLINESTYLE
  5
18
102
{ACAD_REACTORS
330
17
102
}
330
17
100
AcDbMlineStyle
  2
Standard
 70
     0
  3

 62
   256
 51
90.0
 52
90.0
 71
     2
 49
0.5
 62
   256
  6
BYLAYER
 49
-0.5
 62
   256
  6
BYLAYER
  0
ACDBPLACEHOLDER
  5
F
102
{ACAD_REACTORS
330
E
102
}
330
E
  0
VISUALSTYLE
  5
2F
102
{ACAD_REACTORS
330
2A
102
}
102
{ACAD_XDICTIONARY
360
5F
102
}
330
2A
100
AcDbVisualStyle
  2
2dWireframe
 70
     4
 71
     0
 72
     2
 73
     0
 90
        0
 40
-0.6
 41
-30.0
 62
     5
 63
     7
421
 16777215
 74
     1
 91
        4
 64
     7
 65
   257
 75
     1
175
     1
 42
1.0
 92
        0
 66
   257
 43
1.0
 76
     1
 77
     6
 78
     2
 67
     7
 79
     5
170
     0
171
     0
290
     0
174
     0
 93
        1
 44
0.0
173
     0
291
     0
 45
0.0
  0
VISUALSTYLE
  5
31
102
{ACAD_REACTORS
330
2A
102
}
102
{ACAD_XDICTIONARY
360
63
102
}
330
2A
100
AcDbVisualStyle
  2
3D Hidden
 70
     6
 71
     1
 72
     2
 73
     2
 90
        0
 40
-0.6
 41
-30.0
 62
     5
 63
     7
421
 16777215
 74
     2
 91
        2
 64
     7
 65
   257
 75
     2
175
     1
 42
40.0
 92
        0
 66
   257
 43
1.0
 76
     1
 77
     6
 78
     2
 67
     7
 79
     3
170
     0
171
     0
290
     0
174
     0
 93
        1
 44
0.0
173
     0
291
     0
 45
0.0
  0
VISUALSTYLE
  5
30
102
{ACAD_REACTORS
330
2A
102
}
102
{ACAD_XDICTIONARY
360
61
102
}
330
2A
100
AcDbVisualStyle
  2
3dWireframe
 70
     5
 71
     0
 72
     2
 73
     0
 90
        0
 40
-0.6
 41
-30.0
 62
     5
 63
     7
421
 16777215
 74
     1
 91
        4
 64
     7
 65
   257
 75
     1
175
     1
 42
1.0
 92
        0
 66
   257
 43
1.0
 76
     1
 77
     6
 78
     2
 67
     7
 79
     5
170
     0
171
     0
290
     0
174
     0
 93
        1
 44
0.0
173
     0
291
     0
 45
0.0
  0
VISUALSTYLE
  5
32
102
{ACAD_REACTORS
330
2A
102
}
102
{ACAD_XDICTIONARY
360
65
102
}
330
2A
100
AcDbVisualStyle
  2
Basic
 70
     7
 71
     1
 72
     0
 73
     1
 90
        0
 40
-0.6
 41
-30.0
 62
     5
 63
     7
421
 16777215
 74
     0
 91
        4
 64
     7
 65
   257
 75
     1
175
     1
 42
1.0
 92
        8
 66
     7
 43
1.0
 76
     1
 77
     6
 78
     2
 67
     7
 79
     5
170
     0
171
     0
290
     0
174
     0
 93
        1
 44
0.0
173
     0
291
     1
 45
0.0
  0
VISUALSTYLE
  5
36
102
{ACAD_REACTORS
330
2A
102
}
102
{ACAD_XDICTIONARY
360
6D
102
}
330
2A
100
AcDbVisualStyle
  2
Brighten
 70
    12
 71
     2
 72
     2
 73
     0
 90
        0
 40
-0.6
 41
-30.0
 62
     5
 63
     7
421
 16777215
 74
     1
 91
        4
 64
     7
 65
   257
 75
     1
175
     1
 42
1.0
 92
        8
 66
     7
 43
1.0
 76
     1
 77
     6
 78
     2
 67
     7
 79
     5
170
     0
171
     0
290
     0
174
     0
 93
        1
 44
50.0
173
     0
291
     1
 45
0.0
  0
VISUALSTYLE
  5
3A
102
{ACAD_REACTORS
330
2A
102
}
102
{ACAD_XDICTIONARY
360
75
102
}
330
2A
100
AcDbVisualStyle
  2
ColorChange
 70
    16
 71
     2
 72
     2
 73
     3
 90
        0
 40
-0.6
 41
-30.0
 62
     5
 63
     8
421
  8421504
 74
     1
 91
        4
 64
     7
 65
   257
 75
     1
175
     1
 42
1.0
 92
        8
 66
     8
424
  8421504
 43
1.0
 76
     1
 77
     6
 78
     2
 67
     7
 79
     5
170
     0
171
     0
290
     0
174
     0
 93
        1
 44
0.0
173
     0
291
     1
 45
0.0
  0
VISUALSTYLE
  5
34
102
{ACAD_REACTORS
330
2A
102
}
102
{ACAD_XDICTIONARY
360
69
102
}
330
2A
100
AcDbVisualStyle
  2
Conceptual
 70
     9
 71
     3
 72
     2
 73
     0
 90
        0
 40
-0.6
 41
-30.0
 62
     5
 63
     7
421
 16777215
 74
     2
 91
        2
 64
     7
 65
   257
 75
     1
175
     1
 42
40.0
 92
        8
 66
     7
 43
1.0
 76
     1
 77
     6
 78
     2
 67
     7
 79
     3
170
     0
171
     0
290
     0
174
     0
 93
        1
 44
0.0
173
     0
291
     0
 45
0.0
  0
VISUALSTYLE
  5
35
102
{ACAD_REACTORS
330
2A
102
}
102
{ACAD_XDICTIONARY
360
6B
102
}
330
2A
100
AcDbVisualStyle
  2
Dim
 70
    11
 71
     2
 72
     2
 73
     0
 90
        0
 40
-0.6
 41
-30.0
 62
     5
 63
     7
421
 16777215
 74
     1
 91
        4
 64
     7
 65
   257
 75
     1
175
     1
 42
1.0
 92
        8
 66
     7
 43
1.0
 76
     1
 77
     6
 78
     2
 67
     7
 79
     5
170
     0
171
     0
290
     0
174
     0
 93
        1
 44
-50.0
173
     0
291
     1
 45
0.0
  0
VISUALSTYLE
  5
39
102
{ACAD_REACTORS
330
2A
102
}
102
{ACAD_XDICTIONARY
360
73
102
}
330
2A
100
AcDbVisualStyle
  2
Facepattern
 70
    15
 71
     2
 72
     2
 73
     0
 90
        0
 40
-0.6
 41
-30.0
 62
     5
 63
     7
421
 16777215
 74
     1
 91
        4
 64
     7
 65
   257
 75
     1
175
     1
 42
1.0
 92
        8
 66
     7
 43
1.0
 76
     1
 77
     6
 78
     2
 67
     7
 79
     5
170
     0
171
     0
290
     0
174
     0
 93
        1
 44
0.0
173
     0
291
     1
 45
0.0
  0
VISUALSTYLE
  5
2B
102
{ACAD_REACTORS
330
2A
102
}
102
{ACAD_XDICTIONARY
360
57
102
}
330
2A
100
AcDbVisualStyle
  2
Flat
 70
     0
 71
     2
 72
     1
 73
     1
 90
        2
 40
-0.6
 41
30.0
 62
     5
 63
     7
421
 16777215
 74
     0
 91
        4
 64
     7
 65
   257
 75
     1
175
     1
 42
1.0
 92
        8
 66
     7
 43
1.0
 76
     1
 77
     6
 78
     2
 67
     7
 79
     5
170
     0
171
     0
290
     0
174
     0
 93
       13
 44
0.0
173
     0
291
     1
 45
0.0
  0
VISUALSTYLE
  5
2C
102
{ACAD_REACTORS
330
2A
102
}
102
{ACAD_XDICTIONARY
360
59
102
}
330
2A
100
AcDbVisualStyle
  2
FlatWithEdges
 70
     1
 71
     2
 72
     1
 73
     1
 90
        2
 40
-0.6
 41
30.0
 62
     5
 63
     7
421
 16777215
 74
     1
 91
        4
 64
     7
 65
   257
 75
     1
175
     1
 42
1.0
 92
        0
 66
   257
 43
1.0
 76
     1
 77
     6
 78
     2
 67
     7
 79
     5
170
     0
171
     0
290
     0
174
     0
 93
       13
 44
0.0
173
     0
291
     1
 45
0.0
  0
VISUALSTYLE
  5
2D
102
{ACAD_REACTORS
330
2A
102
}
102
{ACAD_XDICTIONARY
360
5B
102
}
330
2A
100
AcDbVisualStyle
  2
Gouraud
 70
     2
 71
     2
 72
     2
 73
     1
 90
        2
 40
-0.6
 41
30.0
 62
     5
 63
     7
421
 16777215
 74
     0
 91
        4
 64
     7
 65
   257
 75
     1
175
     1
 42
1.0
 92
        0
 66
     7
 43
1.0
 76
     1
 77
     6
 78
     2
 67
     7
 79
     5
170
     0
171
     0
290
     0
174
     0
 93
       13
 44
0.0
173
     0
291
     1
 45
0.0
  0
VISUALSTYLE
  5
2E
102
{ACAD_REACTORS
330
2A
102
}
102
{ACAD_XDICTIONARY
360
5D
102
}
330
2A
100
AcDbVisualStyle
  2
GouraudWithEdges
 70
     3
 71
     2
 72
     2
 73
     1
 90
        2
 40
-0.6
 41
30.0
 62
     5
 63
     7
421
 16777215
 74
     1
 91
        4
 64
     7
 65
   257
 75
     1
175
     1
 42
1.0
 92
        0
 66
   257
 43
1.0
 76
     1
 77
     6
 78
     2
 67
     7
 79
     5
170
     0
171
     0
290
     0
174
     0
 93
       13
 44
0.0
173
     0
291
     1
 45
0.0
  0
VISUALSTYLE
  5
38
102
{ACAD_REACTORS
330
2A
102
}
102
{ACAD_XDICTIONARY
360
71
102
}
330
2A
100
AcDbVisualStyle
  2
Linepattern
 70
    14
 71
     2
 72
     2
 73
     0
 90
        0
 40
-0.6
 41
-30.0
 62
     5
 63
     7
421
 16777215
 74
     1
 91
        4
 64
     7
 65
   257
 75
     7
175
     7
 42
1.0
 92
        8
 66
     7
 43
1.0
 76
     1
 77
     6
 78
     2
 67
     7
 79
     5
170
     0
171
     0
290
     0
174
     0
 93
        1
 44
0.0
173
     0
291
     1
 45
0.0
  0
VISUALSTYLE
  5
33
102
{ACAD_REACTORS
330
2A
102
}
102
{ACAD_XDICTIONARY
360
67
102
}
330
2A
100
AcDbVisualStyle
  2
Realistic
 70
     8
 71
     2
 72
     2
 73
     0
 90
        0
 40
-0.6
 41
-30.0
 62
     5
 63
     7
421
 16777215
 74
     1
 91
        0
 64
     7
 65
   257
 75
     1
175
     1
 42
1.0
 92
        8
 66
     8
424
  7895160
 43
1.0
 76
     1
 77
     6
 78
     2
 67
     7
 79
     5
170
     0
171
     0
290
     0
174
     0
 93
       13
 44
0.0
173
     0
291
     0
 45
0.0
  0
VISUALSTYLE
  5
37
102
{ACAD_REACTORS
330
2A
102
}
102
{ACAD_XDICTIONARY
360
6F
102
}
330
2A
100
AcDbVisualStyle
  2
Thicken
 70
    13
 71
     2
 72
     2
 73
     0
 90
        0
 40
-0.6
 41
-30.0
 62
     5
 63
     7
421
 16777215
 74
     1
 91
        4
 64
     7
 65
   257
 75
     1
175
     1
 42
1.0
 92
       12
 66
     7
 43
1.0
 76
     1
 77
     6
 78
     2
 67
     7
 79
     5
170
     0
171
     0
290
     0
174
     0
 93
        1
 44
0.0
173
     0
291
     1
 45
0.0
  0
DICTIONARY
  5
5F
330
2F
100
AcDbDictionary
280
     1
281
     1
  3
ACAD_XREC_ROUNDTRIP
360
60
  0
DICTIONARY
  5
63
330
31
100
AcDbDictionary
280
     1
281
     1
  3
ACAD_XREC_ROUNDTRIP
360
64
  0
DICTIONARY
  5
61
330
30
100
AcDbDictionary
280
     1
281
     1
  3
ACAD_XREC_ROUNDTRIP
360
62
  0
DICTIONARY
  5
65
330
32
100
AcDbDictionary
280
     1
281
     1
  3
ACAD_XREC_ROUNDTRIP
360
66
  0
DICTIONARY
  5
6D
330
36
100
AcDbDictionary
280
     1
281
     1
  3
ACAD_XREC_ROUNDTRIP
360
6E
  0
DICTIONARY
  5
75
330
3A
100
AcDbDictionary
280
     1
281
     1
  3
ACAD_XREC_ROUNDTRIP
360
76
  0
DICTIONARY
  5
69
330
34
100
AcDbDictionary
280
     1
281
     1
  3
ACAD_XREC_ROUNDTRIP
360
6A
  0
DICTIONARY
  5
6B
330
35
100
AcDbDictionary
280
     1
281
     1
  3
ACAD_XREC_ROUNDTRIP
360
6C
  0
DICTIONARY
  5
73
330
39
100
AcDbDictionary
280
     1
281
     1
  3
ACAD_XREC_ROUNDTRIP
360
74
  0
DICTIONARY
  5
57
330
2B
100
AcDbDictionary
280
     1
281
     1
  3
ACAD_XREC_ROUNDTRIP
360
58
  0
DICTIONARY
  5
59
330
2C
100
AcDbDictionary
280
     1
281
     1
  3
ACAD_XREC_ROUNDTRIP
360
5A
  0
DICTIONARY
  5
5B
330
2D
100
AcDbDictionary
280
     1
281
     1
  3
ACAD_XREC_ROUNDTRIP
360
5C
  0
DICTIONARY
  5
5D
330
2E
100
AcDbDictionary
280
     1
281
     1
  3
ACAD_XREC_ROUNDTRIP
360
5E
  0
DICTIONARY
  5
71
330
38
100
AcDbDictionary
280
     1
281
     1
  3
ACAD_XREC_ROUNDTRIP
360
72
  0
DICTIONARY
  5
67
330
33
100
AcDbDictionary
280
     1
281
     1
  3
ACAD_XREC_ROUNDTRIP
360
68
  0
DICTIONARY
  5
6F
330
37
100
AcDbDictionary
280
     1
281
     1
  3
ACAD_XREC_ROUNDTRIP
360
70
  0
XRECORD
  5
60
102
{ACAD_REACTORS
330
5F
102
}
330
5F
100
AcDbXrecord
280
     1
102
RTVSPropertyOp0
 70
     1
102
RTVSPropertyOp1
 70
     1
102
RTVSPropertyOp2
 70
     1
102
RTVSPropertyOp3
 70
     1
102
RTVSPropertyOp4
 70
     1
102
RTVSPropertyOp5
 70
     1
102
RTVSPropertyOp6
 70
     1
102
RTVSPropertyOp7
 70
     1
102
RTVSPropertyOp8
 70
     1
102
RTVSPropertyOp9
 70
     1
102
RTVSPropertyOp10
 70
     1
102
RTVSPropertyOp11
 70
     1
102
RTVSPropertyOp12
 70
     1
102
RTVSPropertyOp13
 70
     1
102
RTVSPropertyOp14
 70
     1
102
RTVSPropertyOp15
 70
     1
102
RTVSPropertyOp16
 70
     1
102
RTVSPropertyOp17
 70
     1
102
RTVSPropertyOp18
 70
     1
102
RTVSPropertyOp19
 70
     1
102
RTVSPropertyOp20
 70
     1
102
RTVSPropertyOp21
 70
     1
102
RTVSPropertyOp22
 70
     1
102
RTVSPropertyOp23
 70
     1
102
RTVSPropertyOp24
 70
     1
102
RTVSPropertyOp25
 70
     1
102
RTVSPropertyOp26
 70
     1
102
RTVSPropertyOp27
 70
     1
102
RTVSPropertyOp28
 70
     1
102
RTVSPropertyOp29
 70
     1
102
RTVSPropertyOp30
 70
     1
102
RTVSPropertyOp31
 70
     1
102
RTVSPropertyOp32
 70
     1
  0
XRECORD
  5
64
102
{ACAD_REACTORS
330
63
102
}
330
63
100
AcDbXrecord
280
     1
102
RTVSPropertyOp0
 70
     1
102
RTVSPropertyOp1
 70
     1
102
RTVSPropertyOp2
 70
     1
102
RTVSPropertyOp3
 70
     1
102
RTVSPropertyOp4
 70
     1
102
RTVSPropertyOp5
 70
     1
102
RTVSPropertyOp6
 70
     1
102
RTVSPropertyOp7
 70
     1
102
RTVSPropertyOp8
 70
     1
102
RTVSPropertyOp9
 70
     1
102
RTVSPropertyOp10
 70
     1
102
RTVSPropertyOp11
 70
     1
102
RTVSPropertyOp12
 70
     1
102
RTVSPropertyOp13
 70
     1
102
RTVSPropertyOp14
 70
     1
102
RTVSPropertyOp15
 70
     1
102
RTVSPropertyOp16
 70
     1
102
RTVSPropertyOp17
 70
     1
102
RTVSPropertyOp18
 70
     1
102
RTVSPropertyOp19
 70
     1
102
RTVSPropertyOp20
 70
     1
102
RTVSPropertyOp21
 70
     1
102
RTVSPropertyOp22
 70
     1
102
RTVSPropertyOp23
 70
     1
102
RTVSPropertyOp24
 70
     1
102
RTVSPropertyOp25
 70
     1
102
RTVSPropertyOp26
 70
     1
102
RTVSPropertyOp27
 70
     1
102
RTVSPropertyOp28
 70
     1
102
RTVSPropertyOp29
 70
     1
102
RTVSPropertyOp30
 70
     1
102
RTVSPropertyOp31
 70
     1
102
RTVSPropertyOp32
 70
     1
  0
XRECORD
  5
62
102
{ACAD_REACTORS
330
61
102
}
330
61
100
AcDbXrecord
280
     1
102
RTVSPropertyOp0
 70
     1
102
RTVSPropertyOp1
 70
     1
102
RTVSPropertyOp2
 70
     1
102
RTVSPropertyOp3
 70
     1
102
RTVSPropertyOp4
 70
     1
102
RTVSPropertyOp5
 70
     1
102
RTVSPropertyOp6
 70
     1
102
RTVSPropertyOp7
 70
     1
102
RTVSPropertyOp8
 70
     1
102
RTVSPropertyOp9
 70
     1
102
RTVSPropertyOp10
 70
     1
102
RTVSPropertyOp11
 70
     1
102
RTVSPropertyOp12
 70
     1
102
RTVSPropertyOp13
 70
     1
102
RTVSPropertyOp14
 70
     1
102
RTVSPropertyOp15
 70
     1
102
RTVSPropertyOp16
 70
     1
102
RTVSPropertyOp17
 70
     1
102
RTVSPropertyOp18
 70
     1
102
RTVSPropertyOp19
 70
     1
102
RTVSPropertyOp20
 70
     1
102
RTVSPropertyOp21
 70
     1
102
RTVSPropertyOp22
 70
     1
102
RTVSPropertyOp23
 70
     1
102
RTVSPropertyOp24
 70
     1
102
RTVSPropertyOp25
 70
     1
102
RTVSPropertyOp26
 70
     1
102
RTVSPropertyOp27
 70
     1
102
RTVSPropertyOp28
 70
     1
102
RTVSPropertyOp29
 70
     1
102
RTVSPropertyOp30
 70
     1
102
RTVSPropertyOp31
 70
     1
102
RTVSPropertyOp32
 70
     1
  0
XRECORD
  5
66
102
{ACAD_REACTORS
330
65
102
}
330
65
100
AcDbXrecord
280
     1
102
RTVSPropertyOp0
 70
     1
102
RTVSPropertyOp1
 70
     1
102
RTVSPropertyOp2
 70
     1
102
RTVSPropertyOp3
 70
     1
102
RTVSPropertyOp4
 70
     1
102
RTVSPropertyOp5
 70
     1
102
RTVSPropertyOp6
 70
     1
102
RTVSPropertyOp7
 70
     1
102
RTVSPropertyOp8
 70
     1
102
RTVSPropertyOp9
 70
     1
102
RTVSPropertyOp10
 70
     1
102
RTVSPropertyOp11
 70
     1
102
RTVSPropertyOp12
 70
     1
102
RTVSPropertyOp13
 70
     1
102
RTVSPropertyOp14
 70
     1
102
RTVSPropertyOp15
 70
     1
102
RTVSPropertyOp16
 70
     1
102
RTVSPropertyOp17
 70
     1
102
RTVSPropertyOp18
 70
     1
102
RTVSPropertyOp19
 70
     1
102
RTVSPropertyOp20
 70
     1
102
RTVSPropertyOp21
 70
     1
102
RTVSPropertyOp22
 70
     1
102
RTVSPropertyOp23
 70
     1
102
RTVSPropertyOp24
 70
     1
102
RTVSPropertyOp25
 70
     1
102
RTVSPropertyOp26
 70
     1
102
RTVSPropertyOp27
 70
     1
102
RTVSPropertyOp28
 70
     1
102
RTVSPropertyOp29
 70
     1
102
RTVSPropertyOp30
 70
     1
102
RTVSPropertyOp31
 70
     1
102
RTVSPropertyOp32
 70
     1
  0
XRECORD
  5
6E
102
{ACAD_REACTORS
330
6D
102
}
330
6D
100
AcDbXrecord
280
     1
102
RTVSPropertyOp0
 70
     1
102
RTVSPropertyOp1
 70
     1
102
RTVSPropertyOp2
 70
     1
102
RTVSPropertyOp3
 70
     1
102
RTVSPropertyOp4
 70
     1
102
RTVSPropertyOp5
 70
     1
102
RTVSPropertyOp6
 70
     1
102
RTVSPropertyOp7
 70
     1
102
RTVSPropertyOp8
 70
     1
102
RTVSPropertyOp9
 70
     1
102
RTVSPropertyOp10
 70
     1
102
RTVSPropertyOp11
 70
     1
102
RTVSPropertyOp12
 70
     1
102
RTVSPropertyOp13
 70
     1
102
RTVSPropertyOp14
 70
     1
102
RTVSPropertyOp15
 70
     1
102
RTVSPropertyOp16
 70
     1
102
RTVSPropertyOp17
 70
     1
102
RTVSPropertyOp18
 70
     1
102
RTVSPropertyOp19
 70
     1
102
RTVSPropertyOp20
 70
     1
102
RTVSPropertyOp21
 70
     1
102
RTVSPropertyOp22
 70
     1
102
RTVSPropertyOp23
 70
     1
102
RTVSPropertyOp24
 70
     1
102
RTVSPropertyOp25
 70
     1
102
RTVSPropertyOp26
 70
     1
102
RTVSPropertyOp27
 70
     1
102
RTVSPropertyOp28
 70
     1
102
RTVSPropertyOp29
 70
     1
102
RTVSPropertyOp30
 70
     1
102
RTVSPropertyOp31
 70
     1
102
RTVSPropertyOp32
 70
     1
  0
XRECORD
  5
76
102
{ACAD_REACTORS
330
75
102
}
330
75
100
AcDbXrecord
280
     1
102
RTVSPropertyOp0
 70
     1
102
RTVSPropertyOp1
 70
     1
102
RTVSPropertyOp2
 70
     1
102
RTVSPropertyOp3
 70
     1
102
RTVSPropertyOp4
 70
     1
102
RTVSPropertyOp5
 70
     1
102
RTVSPropertyOp6
 70
     1
102
RTVSPropertyOp7
 70
     1
102
RTVSPropertyOp8
 70
     1
102
RTVSPropertyOp9
 70
     1
102
RTVSPropertyOp10
 70
     1
102
RTVSPropertyOp11
 70
     1
102
RTVSPropertyOp12
 70
     1
102
RTVSPropertyOp13
 70
     1
102
RTVSPropertyOp14
 70
     1
102
RTVSPropertyOp15
 70
     1
102
RTVSPropertyOp16
 70
     1
102
RTVSPropertyOp17
 70
     1
102
RTVSPropertyOp18
 70
     1
102
RTVSPropertyOp19
 70
     1
102
RTVSPropertyOp20
 70
     1
102
RTVSPropertyOp21
 70
     1
102
RTVSPropertyOp22
 70
     1
102
RTVSPropertyOp23
 70
     1
102
RTVSPropertyOp24
 70
     1
102
RTVSPropertyOp25
 70
     1
102
RTVSPropertyOp26
 70
     1
102
RTVSPropertyOp27
 70
     1
102
RTVSPropertyOp28
 70
     1
102
RTVSPropertyOp29
 70
     1
102
RTVSPropertyOp30
 70
     1
102
RTVSPropertyOp31
 70
     1
102
RTVSPropertyOp32
 70
     1
  0
XRECORD
  5
6A
102
{ACAD_REACTORS
330
69
102
}
330
69
100
AcDbXrecord
280
     1
102
RTVSPropertyOp0
 70
     1
102
RTVSPropertyOp1
 70
     1
102
RTVSPropertyOp2
 70
     1
102
RTVSPropertyOp3
 70
     1
102
RTVSPropertyOp4
 70
     1
102
RTVSPropertyOp5
 70
     1
102
RTVSPropertyOp6
 70
     1
102
RTVSPropertyOp7
 70
     1
102
RTVSPropertyOp8
 70
     1
102
RTVSPropertyOp9
 70
     1
102
RTVSPropertyOp10
 70
     1
102
RTVSPropertyOp11
 70
     1
102
RTVSPropertyOp12
 70
     1
102
RTVSPropertyOp13
 70
     1
102
RTVSPropertyOp14
 70
     1
102
RTVSPropertyOp15
 70
     1
102
RTVSPropertyOp16
 70
     1
102
RTVSPropertyOp17
 70
     1
102
RTVSPropertyOp18
 70
     1
102
RTVSPropertyOp19
 70
     1
102
RTVSPropertyOp20
 70
     1
102
RTVSPropertyOp21
 70
     1
102
RTVSPropertyOp22
 70
     1
102
RTVSPropertyOp23
 70
     1
102
RTVSPropertyOp24
 70
     1
102
RTVSPropertyOp25
 70
     1
102
RTVSPropertyOp26
 70
     1
102
RTVSPropertyOp27
 70
     1
102
RTVSPropertyOp28
 70
     1
102
RTVSPropertyOp29
 70
     1
102
RTVSPropertyOp30
 70
     1
102
RTVSPropertyOp31
 70
     1
102
RTVSPropertyOp32
 70
     1
  0
XRECORD
  5
6C
102
{ACAD_REACTORS
330
6B
102
}
330
6B
100
AcDbXrecord
280
     1
102
RTVSPropertyOp0
 70
     1
102
RTVSPropertyOp1
 70
     1
102
RTVSPropertyOp2
 70
     1
102
RTVSPropertyOp3
 70
     1
102
RTVSPropertyOp4
 70
     1
102
RTVSPropertyOp5
 70
     1
102
RTVSPropertyOp6
 70
     1
102
RTVSPropertyOp7
 70
     1
102
RTVSPropertyOp8
 70
     1
102
RTVSPropertyOp9
 70
     1
102
RTVSPropertyOp10
 70
     1
102
RTVSPropertyOp11
 70
     1
102
RTVSPropertyOp12
 70
     1
102
RTVSPropertyOp13
 70
     1
102
RTVSPropertyOp14
 70
     1
102
RTVSPropertyOp15
 70
     1
102
RTVSPropertyOp16
 70
     1
102
RTVSPropertyOp17
 70
     1
102
RTVSPropertyOp18
 70
     1
102
RTVSPropertyOp19
 70
     1
102
RTVSPropertyOp20
 70
     1
102
RTVSPropertyOp21
 70
     1
102
RTVSPropertyOp22
 70
     1
102
RTVSPropertyOp23
 70
     1
102
RTVSPropertyOp24
 70
     1
102
RTVSPropertyOp25
 70
     1
102
RTVSPropertyOp26
 70
     1
102
RTVSPropertyOp27
 70
     1
102
RTVSPropertyOp28
 70
     1
102
RTVSPropertyOp29
 70
     1
102
RTVSPropertyOp30
 70
     1
102
RTVSPropertyOp31
 70
     1
102
RTVSPropertyOp32
 70
     1
  0
XRECORD
  5
74
102
{ACAD_REACTORS
330
73
102
}
330
73
100
AcDbXrecord
280
     1
102
RTVSPropertyOp0
 70
     1
102
RTVSPropertyOp1
 70
     1
102
RTVSPropertyOp2
 70
     1
102
RTVSPropertyOp3
 70
     1
102
RTVSPropertyOp4
 70
     1
102
RTVSPropertyOp5
 70
     1
102
RTVSPropertyOp6
 70
     1
102
RTVSPropertyOp7
 70
     1
102
RTVSPropertyOp8
 70
     1
102
RTVSPropertyOp9
 70
     1
102
RTVSPropertyOp10
 70
     1
102
RTVSPropertyOp11
 70
     1
102
RTVSPropertyOp12
 70
     1
102
RTVSPropertyOp13
 70
     1
102
RTVSPropertyOp14
 70
     1
102
RTVSPropertyOp15
 70
     1
102
RTVSPropertyOp16
 70
     1
102
RTVSPropertyOp17
 70
     1
102
RTVSPropertyOp18
 70
     1
102
RTVSPropertyOp19
 70
     1
102
RTVSPropertyOp20
 70
     1
102
RTVSPropertyOp21
 70
     1
102
RTVSPropertyOp22
 70
     1
102
RTVSPropertyOp23
 70
     1
102
RTVSPropertyOp24
 70
     1
102
RTVSPropertyOp25
 70
     1
102
RTVSPropertyOp26
 70
     1
102
RTVSPropertyOp27
 70
     1
102
RTVSPropertyOp28
 70
     1
102
RTVSPropertyOp29
 70
     1
102
RTVSPropertyOp30
 70
     1
102
RTVSPropertyOp31
 70
     1
102
RTVSPropertyOp32
 70
     1
  0
XRECORD
  5
58
102
{ACAD_REACTORS
330
57
102
}
330
57
100
AcDbXrecord
280
     1
102
RTVSPropertyOp0
 70
     1
102
RTVSPropertyOp1
 70
     1
102
RTVSPropertyOp2
 70
     1
102
RTVSPropertyOp3
 70
     1
102
RTVSPropertyOp4
 70
     1
102
RTVSPropertyOp5
 70
     1
102
RTVSPropertyOp6
 70
     1
102
RTVSPropertyOp7
 70
     1
102
RTVSPropertyOp8
 70
     1
102
RTVSPropertyOp9
 70
     1
102
RTVSPropertyOp10
 70
     1
102
RTVSPropertyOp11
 70
     1
102
RTVSPropertyOp12
 70
     1
102
RTVSPropertyOp13
 70
     1
102
RTVSPropertyOp14
 70
     1
102
RTVSPropertyOp15
 70
     1
102
RTVSPropertyOp16
 70
     1
102
RTVSPropertyOp17
 70
     1
102
RTVSPropertyOp18
 70
     1
102
RTVSPropertyOp19
 70
     1
102
RTVSPropertyOp20
 70
     1
102
RTVSPropertyOp21
 70
     1
102
RTVSPropertyOp22
 70
     1
102
RTVSPropertyOp23
 70
     1
102
RTVSPropertyOp24
 70
     1
102
RTVSPropertyOp25
 70
     1
102
RTVSPropertyOp26
 70
     1
102
RTVSPropertyOp27
 70
     1
102
RTVSPropertyOp28
 70
     1
102
RTVSPropertyOp29
 70
     1
102
RTVSPropertyOp30
 70
     1
102
RTVSPropertyOp31
 70
     1
102
RTVSPropertyOp32
 70
     1
  0
XRECORD
  5
5A
102
{ACAD_REACTORS
330
59
102
}
330
59
100
AcDbXrecord
280
     1
102
RTVSPropertyOp0
 70
     1
102
RTVSPropertyOp1
 70
     1
102
RTVSPropertyOp2
 70
     1
102
RTVSPropertyOp3
 70
     1
102
RTVSPropertyOp4
 70
     1
102
RTVSPropertyOp5
 70
     1
102
RTVSPropertyOp6
 70
     1
102
RTVSPropertyOp7
 70
     1
102
RTVSPropertyOp8
 70
     1
102
RTVSPropertyOp9
 70
     1
102
RTVSPropertyOp10
 70
     1
102
RTVSPropertyOp11
 70
     1
102
RTVSPropertyOp12
 70
     1
102
RTVSPropertyOp13
 70
     1
102
RTVSPropertyOp14
 70
     1
102
RTVSPropertyOp15
 70
     1
102
RTVSPropertyOp16
 70
     1
102
RTVSPropertyOp17
 70
     1
102
RTVSPropertyOp18
 70
     1
102
RTVSPropertyOp19
 70
     1
102
RTVSPropertyOp20
 70
     1
102
RTVSPropertyOp21
 70
     1
102
RTVSPropertyOp22
 70
     1
102
RTVSPropertyOp23
 70
     1
102
RTVSPropertyOp24
 70
     1
102
RTVSPropertyOp25
 70
     1
102
RTVSPropertyOp26
 70
     1
102
RTVSPropertyOp27
 70
     1
102
RTVSPropertyOp28
 70
     1
102
RTVSPropertyOp29
 70
     1
102
RTVSPropertyOp30
 70
     1
102
RTVSPropertyOp31
 70
     1
102
RTVSPropertyOp32
 70
     1
  0
XRECORD
  5
5C
102
{ACAD_REACTORS
330
5B
102
}
330
5B
100
AcDbXrecord
280
     1
102
RTVSPropertyOp0
 70
     1
102
RTVSPropertyOp1
 70
     1
102
RTVSPropertyOp2
 70
     1
102
RTVSPropertyOp3
 70
     1
102
RTVSPropertyOp4
 70
     1
102
RTVSPropertyOp5
 70
     1
102
RTVSPropertyOp6
 70
     1
102
RTVSPropertyOp7
 70
     1
102
RTVSPropertyOp8
 70
     1
102
RTVSPropertyOp9
 70
     1
102
RTVSPropertyOp10
 70
     1
102
RTVSPropertyOp11
 70
     1
102
RTVSPropertyOp12
 70
     1
102
RTVSPropertyOp13
 70
     1
102
RTVSPropertyOp14
 70
     1
102
RTVSPropertyOp15
 70
     1
102
RTVSPropertyOp16
 70
     1
102
RTVSPropertyOp17
 70
     1
102
RTVSPropertyOp18
 70
     1
102
RTVSPropertyOp19
 70
     1
102
RTVSPropertyOp20
 70
     1
102
RTVSPropertyOp21
 70
     1
102
RTVSPropertyOp22
 70
     1
102
RTVSPropertyOp23
 70
     1
102
RTVSPropertyOp24
 70
     1
102
RTVSPropertyOp25
 70
     1
102
RTVSPropertyOp26
 70
     1
102
RTVSPropertyOp27
 70
     1
102
RTVSPropertyOp28
 70
     1
102
RTVSPropertyOp29
 70
     1
102
RTVSPropertyOp30
 70
     1
102
RTVSPropertyOp31
 70
     1
102
RTVSPropertyOp32
 70
     1
  0
XRECORD
  5
5E
102
{ACAD_REACTORS
330
5D
102
}
330
5D
100
AcDbXrecord
280
     1
102
RTVSPropertyOp0
 70
     1
102
RTVSPropertyOp1
 70
     1
102
RTVSPropertyOp2
 70
     1
102
RTVSPropertyOp3
 70
     1
102
RTVSPropertyOp4
 70
     1
102
RTVSPropertyOp5
 70
     1
102
RTVSPropertyOp6
 70
     1
102
RTVSPropertyOp7
 70
     1
102
RTVSPropertyOp8
 70
     1
102
RTVSPropertyOp9
 70
     1
102
RTVSPropertyOp10
 70
     1
102
RTVSPropertyOp11
 70
     1
102
RTVSPropertyOp12
 70
     1
102
RTVSPropertyOp13
 70
     1
102
RTVSPropertyOp14
 70
     1
102
RTVSPropertyOp15
 70
     1
102
RTVSPropertyOp16
 70
     1
102
RTVSPropertyOp17
 70
     1
102
RTVSPropertyOp18
 70
     1
102
RTVSPropertyOp19
 70
     1
102
RTVSPropertyOp20
 70
     1
102
RTVSPropertyOp21
 70
     1
102
RTVSPropertyOp22
 70
     1
102
RTVSPropertyOp23
 70
     1
102
RTVSPropertyOp24
 70
     1
102
RTVSPropertyOp25
 70
     1
102
RTVSPropertyOp26
 70
     1
102
RTVSPropertyOp27
 70
     1
102
RTVSPropertyOp28
 70
     1
102
RTVSPropertyOp29
 70
     1
102
RTVSPropertyOp30
 70
     1
102
RTVSPropertyOp31
 70
     1
102
RTVSPropertyOp32
 70
     1
  0
XRECORD
  5
72
102
{ACAD_REACTORS
330
71
102
}
330
71
100
AcDbXrecord
280
     1
102
RTVSPropertyOp0
 70
     1
102
RTVSPropertyOp1
 70
     1
102
RTVSPropertyOp2
 70
     1
102
RTVSPropertyOp3
 70
     1
102
RTVSPropertyOp4
 70
     1
102
RTVSPropertyOp5
 70
     1
102
RTVSPropertyOp6
 70
     1
102
RTVSPropertyOp7
 70
     1
102
RTVSPropertyOp8
 70
     1
102
RTVSPropertyOp9
 70
     1
102
RTVSPropertyOp10
 70
     1
102
RTVSPropertyOp11
 70
     1
102
RTVSPropertyOp12
 70
     1
102
RTVSPropertyOp13
 70
     1
102
RTVSPropertyOp14
 70
     1
102
RTVSPropertyOp15
 70
     1
102
RTVSPropertyOp16
 70
     1
102
RTVSPropertyOp17
 70
     1
102
RTVSPropertyOp18
 70
     1
102
RTVSPropertyOp19
 70
     1
102
RTVSPropertyOp20
 70
     1
102
RTVSPropertyOp21
 70
     1
102
RTVSPropertyOp22
 70
     1
102
RTVSPropertyOp23
 70
     1
102
RTVSPropertyOp24
 70
     1
102
RTVSPropertyOp25
 70
     1
102
RTVSPropertyOp26
 70
     1
102
RTVSPropertyOp27
 70
     1
102
RTVSPropertyOp28
 70
     1
102
RTVSPropertyOp29
 70
     1
102
RTVSPropertyOp30
 70
     1
102
RTVSPropertyOp31
 70
     1
102
RTVSPropertyOp32
 70
     1
  0
XRECORD
  5
68
102
{ACAD_REACTORS
330
67
102
}
330
67
100
AcDbXrecord
280
     1
102
RTVSPropertyOp0
 70
     1
102
RTVSPropertyOp1
 70
     1
102
RTVSPropertyOp2
 70
     1
102
RTVSPropertyOp3
 70
     1
102
RTVSPropertyOp4
 70
     1
102
RTVSPropertyOp5
 70
     1
102
RTVSPropertyOp6
 70
     1
102
RTVSPropertyOp7
 70
     1
102
RTVSPropertyOp8
 70
     1
102
RTVSPropertyOp9
 70
     1
102
RTVSPropertyOp10
 70
     1
102
RTVSPropertyOp11
 70
     1
102
RTVSPropertyOp12
 70
     1
102
RTVSPropertyOp13
 70
     1
102
RTVSPropertyOp14
 70
     1
102
RTVSPropertyOp15
 70
     1
102
RTVSPropertyOp16
 70
     1
102
RTVSPropertyOp17
 70
     1
102
RTVSPropertyOp18
 70
     1
102
RTVSPropertyOp19
 70
     1
102
RTVSPropertyOp20
 70
     1
102
RTVSPropertyOp21
 70
     1
102
RTVSPropertyOp22
 70
     1
102
RTVSPropertyOp23
 70
     1
102
RTVSPropertyOp24
 70
     1
102
RTVSPropertyOp25
 70
     1
102
RTVSPropertyOp26
 70
     1
102
RTVSPropertyOp27
 70
     1
102
RTVSPropertyOp28
 70
     1
102
RTVSPropertyOp29
 70
     1
102
RTVSPropertyOp30
 70
     1
102
RTVSPropertyOp31
 70
     1
102
RTVSPropertyOp32
 70
     1
  0
XRECORD
  5
70
102
{ACAD_REACTORS
330
6F
102
}
330
6F
100
AcDbXrecord
280
     1
102
RTVSPropertyOp0
 70
     1
102
RTVSPropertyOp1
 70
     1
102
RTVSPropertyOp2
 70
     1
102
RTVSPropertyOp3
 70
     1
102
RTVSPropertyOp4
 70
     1
102
RTVSPropertyOp5
 70
     1
102
RTVSPropertyOp6
 70
     1
102
RTVSPropertyOp7
 70
     1
102
RTVSPropertyOp8
 70
     1
102
RTVSPropertyOp9
 70
     1
102
RTVSPropertyOp10
 70
     1
102
RTVSPropertyOp11
 70
     1
102
RTVSPropertyOp12
 70
     1
102
RTVSPropertyOp13
 70
     1
102
RTVSPropertyOp14
 70
     1
102
RTVSPropertyOp15
 70
     1
102
RTVSPropertyOp16
 70
     1
102
RTVSPropertyOp17
 70
     1
102
RTVSPropertyOp18
 70
     1
102
RTVSPropertyOp19
 70
     1
102
RTVSPropertyOp20
 70
     1
102
RTVSPropertyOp21
 70
     1
102
RTVSPropertyOp22
 70
     1
102
RTVSPropertyOp23
 70
     1
102
RTVSPropertyOp24
 70
     1
102
RTVSPropertyOp25
 70
     1
102
RTVSPropertyOp26
 70
     1
102
RTVSPropertyOp27
 70
     1
102
RTVSPropertyOp28
 70
     1
102
RTVSPropertyOp29
 70
     1
102
RTVSPropertyOp30
 70
     1
102
RTVSPropertyOp31
 70
     1
102
RTVSPropertyOp32
 70
     1
  0
ENDSEC
  0
EOF
