  0
SECTION
  2
HEADER
  9
$ACADVER
  1
AC1021
  9
$ACADMAINTVER
 70
    25
  9
$DWGCODEPAGE
  3
ANSI_1252
  9
$INSBASE
 10
0.0
 20
0.0
 30
0.0
  9
$EXTMIN
 10
-4.2708
 20
-1.57261
 30
0.0
  9
$EXTMAX
 10
3.78852
 20
1.97646
 30
0.0
  9
$LIMMIN
 10
0.0
 20
0.0
  9
$LIMMAX
 10
12.0
 20
9.0
  9
$ORTHOMODE
 70
     0
  9
$REGENMODE
 70
     1
  9
$FILLMODE
 70
     1
  9
$QTEXTMODE
 70
     0
  9
$MIRRTEXT
 70
     1
  9
$LTSCALE
 40
1.0
  9
$ATTMODE
 70
     1
  9
$TEXTSIZE
 40
0.2
  9
$TRACEWID
 40
0.05
  9
$TEXTSTYLE
  7
Standard
  9
$CLAYER
  8
0
  9
$CELTYPE
  6
ByLayer
  9
$CECOLOR
 62
   256
  9
$CELTSCALE
 40
1.0
  9
$DISPSILH
 70
     0
  9
$DIMSCALE
 40
1.0
  9
$DIMASZ
 40
0.18
  9
$DIMEXO
 40
0.0625
  9
$DIMDLI
 40
0.38
  9
$DIMRND
 40
0.0
  9
$DIMDLE
 40
0.0
  9
$DIMEXE
 40
0.18
  9
$DIMTP
 40
0.0
  9
$DIMTM
 40
0.0
  9
$DIMTXT
 40
0.18
  9
$DIMCEN
 40
0.09
  9
$DIMTSZ
 40
0.0
  9
$DIMTOL
 70
     0
  9
$DIMLIM
 70
     0
  9
$DIMTIH
 70
     1
  9
$DIMTOH
 70
     1
  9
$DIMSE1
 70
     0
  9
$DIMSE2
 70
     0
  9
$DIMTAD
 70
     0
  9
$DIMZIN
 70
     0
  9
$DIMBLK
  1

  9
$DIMASO
 70
     1
  9
$DIMSHO
 70
     1
  9
$DIMPOST
  1

  9
$DIMAPOST
  1

  9
$DIMALT
 70
     0
  9
$DIMALTD
 70
     2
  9
$DIMALTF
 40
25.4
  9
$DIMLFAC
 40
1.0
  9
$DIMTOFL
 70
     0
  9
$DIMTVP
 40
0.0
  9
$DIMTIX
 70
     0
  9
$DIMSOXD
 70
     0
  9
$DIMSAH
 70
     0
  9
$DIMBLK1
  1

  9
$DIMBLK2
  1

  9
$DIMSTYLE
  2
Standard
  9
$DIMCLRD
 70
     0
  9
$DIMCLRE
 70
     0
  9
$DIMCLRT
 70
     0
  9
$DIMTFAC
 40
1.0
  9
$DIMGAP
 40
0.09
  9
$DIMJUST
 70
     0
  9
$DIMSD1
 70
     0
  9
$DIMSD2
 70
     0
  9
$DIMTOLJ
 70
     1
  9
$DIMTZIN
 70
     0
  9
$DIMALTZ
 70
     0
  9
$DIMALTTZ
 70
     0
  9
$DIMUPT
 70
     0
  9
$DIMDEC
 70
     4
  9
$DIMTDEC
 70
     4
  9
$DIMALTU
 70
     2
  9
$DIMALTTD
 70
     2
  9
$DIMTXSTY
  7
Standard
  9
$DIMAUNIT
 70
     0
  9
$DIMADEC
 70
     0
  9
$DIMALTRND
 40
0.0
  9
$DIMAZIN
 70
     0
  9
$DIMDSEP
 70
    46
  9
$DIMATFIT
 70
     3
  9
$DIMFRAC
 70
     0
  9
$DIMLDRBLK
  1

  9
$DIMLUNIT
 70
     2
  9
$DIMLWD
 70
    -2
  9
$DIMLWE
 70
    -2
  9
$DIMTMOVE
 70
     0
  9
$DIMFXL
 40
1.0
  9
$DIMFXLON
 70
     0
  9
$DIMJOGANG
 40
0.7853981633974483
  9
$DIMTFILL
 70
     0
  9
$DIMTFILLCLR
 70
     0
  9
$DIMARCSYM
 70
     0
  9
$DIMLTYPE
  6

  9
$DIMLTEX1
  6

  9
$DIMLTEX2
  6

  9
$LUNITS
 70
     2
  9
$LUPREC
 70
     4
  9
$SKETCHINC
 40
0.1
  9
$FILLETRAD
 40
0.5
  9
$AUNITS
 70
     0
  9
$AUPREC
 70
     0
  9
$MENU
  1
.
  9
$ELEVATION
 40
0.0
  9
$PELEVATION
 40
0.0
  9
$THICKNESS
 40
0.0
  9
$LIMCHECK
 70
     0
  9
$CHAMFERA
 40
0.5
  9
$CHAMFERB
 40
0.5
  9
$CHAMFERC
 40
1.0
  9
$CHAMFERD
 40
0.0
  9
$SKPOLY
 70
     0
  9
$TDCREATE
 40
2460554.917828391
  9
$TDUCREATE
 40
2460554.876161724
  9
$TDUPDATE
 40
2460554.917828426
  9
$TDUUPDATE
 40
2460554.876161759
  9
$TDINDWG
 40
0.0000000116
  9
$TDUSRTIMER
 40
0.0000000116
  9
$USRTIMER
 70
     1
  9
$ANGBASE
 50
0.0
  9
$ANGDIR
 70
     0
  9
$PDMODE
 70
     0
  9
$PDSIZE
 40
0.0
  9
$PLINEWID
 40
0.0
  9
$SPLFRAME
 70
     0
  9
$SPLINETYPE
 70
     6
  9
$SPLINESEGS
 70
     8
  9
$HANDSEED
  5
72
  9
$SURFTAB1
 70
     6
  9
$SURFTAB2
 70
     6
  9
$SURFTYPE
 70
     6
  9
$SURFU
 70
     6
  9
$SURFV
 70
     6
  9
$UCSBASE
  2

  9
$UCSNAME
  2

  9
$UCSORG
 10
0.0
 20
0.0
 30
0.0
  9
$UCSXDIR
 10
1.0
 20
0.0
 30
0.0
  9
$UCSYDIR
 10
0.0
 20
1.0
 30
0.0
  9
$UCSORTHOREF
  2

  9
$UCSORTHOVIEW
 70
     0
  9
$UCSORGTOP
 10
0.0
 20
0.0
 30
0.0
  9
$UCSORGBOTTOM
 10
0.0
 20
0.0
 30
0.0
  9
$UCSORGLEFT
 10
0.0
 20
0.0
 30
0.0
  9
$UCSORGRIGHT
 10
0.0
 20
0.0
 30
0.0
  9
$UCSORGFRONT
 10
0.0
 20
0.0
 30
0.0
  9
$UCSORGBACK
 10
0.0
 20
0.0
 30
0.0
  9
$PUCSBASE
  2

  9
$PUCSNAME
  2

  9
$PUCSORG
 10
0.0
 20
0.0
 30
0.0
  9
$PUCSXDIR
 10
1.0
 20
0.0
 30
0.0
  9
$PUCSYDIR
 10
0.0
 20
1.0
 30
0.0
  9
$PUCSORTHOREF
  2

  9
$PUCSORTHOVIEW
 70
     0
  9
$PUCSORGTOP
 10
0.0
 20
0.0
 30
0.0
  9
$PUCSORGBOTTOM
 10
0.0
 20
0.0
 30
0.0
  9
$PUCSORGLEFT
 10
0.0
 20
0.0
 30
0.0
  9
$PUCSORGRIGHT
 10
0.0
 20
0.0
 30
0.0
  9
$PUCSORGFRONT
 10
0.0
 20
0.0
 30
0.0
  9
$PUCSORGBACK
 10
0.0
 20
0.0
 30
0.0
  9
$USERI1
 70
     0
  9
$USERI2
 70
     0
  9
$USERI3
 70
     0
  9
$USERI4
 70
     0
  9
$USERI5
 70
     0
  9
$USERR1
 40
0.0
  9
$USERR2
 40
0.0
  9
$USERR3
 40
0.0
  9
$USERR4
 40
0.0
  9
$USERR5
 40
0.0
  9
$WORLDVIEW
 70
     1
  9
$SHADEDGE
 70
     3
  9
$SHADEDIF
 70
    70
  9
$TILEMODE
 70
     1
  9
$MAXACTVP
 70
    64
  9
$PINSBASE
 10
0.0
 20
0.0
 30
0.0
  9
$PLIMCHECK
 70
     0
  9
$PEXTMIN
 10
1.000000000000000E+20
 20
1.000000000000000E+20
 30
1.000000000000000E+20
  9
$PEXTMAX
 10
-1.000000000000000E+20
 20
-1.000000000000000E+20
 30
-1.000000000000000E+20
  9
$PLIMMIN
 10
0.0
 20
0.0
  9
$PLIMMAX
 10
12.0
 20
9.0
  9
$UNITMODE
 70
     0
  9
$VISRETAIN
 70
     1
  9
$PLINEGEN
 70
     0
  9
$PSLTSCALE
 70
     1
  9
$TREEDEPTH
 70
  3020
  9
$CMLSTYLE
  2
Standard
  9
$CMLJUST
 70
     0
  9
$CMLSCALE
 40
1.0
  9
$PROXYGRAPHICS
 70
     1
  9
$MEASUREMENT
 70
     0
  9
$CELWEIGHT
370
    -1
  9
$ENDCAPS
280
     0
  9
$JOINSTYLE
280
     0
  9
$LWDISPLAY
290
     0
  9
$INSUNITS
 70
     5
  9
$HYPERLINKBASE
  1

  9
$STYLESHEET
  1

  9
$XEDIT
290
     1
  9
$CEPSNTYPE
380
     0
  9
$PSTYLEMODE
290
     1
  9
$FINGERPRINTGUID
  2
{83F390C0-996A-4C51-BA0E-E56D4BAF7A34}
  9
$VERSIONGUID
  2
{FAEB1C32-E019-11D5-929B-00C0DF256EC4}
  9
$EXTNAMES
290
     1
  9
$PSVPSCALE
 40
0.0
  9
$OLESTARTUP
290
     0
  9
$SORTENTS
280
   127
  9
$INDEXCTL
280
     0
  9
$HIDETEXT
280
     1
  9
$XCLIPFRAME
290
     0
  9
$HALOGAP
280
     0
  9
$OBSCOLOR
 70
   257
  9
$OBSLTYPE
280
     0
  9
$INTERSECTIONDISPLAY
280
     0
  9
$INTERSECTIONCOLOR
 70
   257
  9
$DIMASSOC
280
     2
  9
$PROJECTNAME
  1

  9
$CAMERADISPLAY
290
     0
  9
$LENSLENGTH
 40
50.0
  9
$CAMERAHEIGHT
 40
0.0
  9
$STEPSPERSEC
 40
2.0
  9
$STEPSIZE
 40
6.0
  9
$3DDWFPREC
 40
2.0
  9
$PSOLWIDTH
 40
0.25
  9
$PSOLHEIGHT
 40
4.0
  9
$LOFTANG1
 40
1.570796326794897
  9
$LOFTANG2
 40
1.570796326794897
  9
$LOFTMAG1
 40
0.0
  9
$LOFTMAG2
 40
0.0
  9
$LOFTPARAM
 70
     7
  9
$LOFTNORMALS
280
     1
  9
$LATITUDE
 40
37.795
  9
$LONGITUDE
 40
-122.394
  9
$NORTHDIRECTION
 40
0.0
  9
$TIMEZONE
 70
 -8000
  9
$LIGHTGLYPHDISPLAY
280
     1
  9
$TILEMODELIGHTSYNCH
280
     1
  9
$SOLIDHIST
280
     1
  9
$SHOWHIST
280
     1
  9
$DWFFRAME
280
     2
  9
$DGNFRAME
280
     2
  9
$REALWORLDSCALE
290
     1
  9
$INTERFERECOLOR
 62
   256
  9
$CSHADOW
280
     0
  9
$SHADOWPLANELOCATION
 40
0.0
  0
ENDSEC
  0
SECTION
  2
CLASSES
  0
CLASS
  1
ACDBDICTIONARYWDFLT
  2
AcDbDictionaryWithDefault
  3
ObjectDBX Classes
 90
        0
 91
        4
280
     0
281
     0
  0
CLASS
  1
VISUALSTYLE
  2
AcDbVisualStyle
  3
ObjectDBX Classes
 90
     4095
 91
        4
280
     0
281
     0
  0
CLASS
  1
MATERIAL
  2
AcDbMaterial
  3
ObjectDBX Classes
 90
     1153
 91
        4
280
     0
281
     0
  0
ENDSEC
  0
SECTION
  2
TABLES
  0
TABLE
  2
VPORT
  5
8
330
0
100
AcDbSymbolTable
 70
     1
  0
VPORT
  5
29
330
8
100
AcDbSymbolTableRecord
100
AcDbViewportTableRecord
  2
*Active
 70
     0
 10
0.0
 20
0.0
 11
1.0
 21
1.0
 12
10.42990654205607
 22
4.5
 13
0.0
 23
0.0
 14
0.5
 24
0.5
 15
0.5
 25
0.5
 16
0.0
 26
0.0
 36
1.0
 17
0.0
 27
0.0
 37
0.0
 40
9.0
 41
1.972972972850329
 42
50.0
 43
0.0
 44
0.0
 50
0.0
 51
0.0
 71
     0
 72
   100
 73
     1
 74
     3
 75
     0
 76
     0
 77
     0
 78
     0
281
     0
 65
     1
110
0.0
120
0.0
130
0.0
111
1.0
121
0.0
131
0.0
112
0.0
122
1.0
132
0.0
 79
     0
146
0.0
 60
     3
 61
     5
292
     1
282
     1
141
0.0
142
0.0
 63
   250
  0
ENDTAB
  0
TABLE
  2
LTYPE
  5
5
330
0
100
AcDbSymbolTable
 70
     1
  0
LTYPE
  5
14
330
5
100
AcDbSymbolTableRecord
100
AcDbLinetypeTableRecord
  2
ByBlock
 70
     0
  3

 72
    65
 73
     0
 40
0.0
  0
LTYPE
  5
15
330
5
100
AcDbSymbolTableRecord
100
AcDbLinetypeTableRecord
  2
ByLayer
 70
     0
  3

 72
    65
 73
     0
 40
0.0
  0
LTYPE
  5
16
330
5
100
AcDbSymbolTableRecord
100
AcDbLinetypeTableRecord
  2
Continuous
 70
     0
  3
Solid line
 72
    65
 73
     0
 40
0.0
  0
ENDTAB
  0
TABLE
  2
LAYER
  5
2
330
0
100
AcDbSymbolTable
 70
     2
  0
LAYER
  5
10
330
2
100
AcDbSymbolTableRecord
100
AcDbLayerTableRecord
  2
0
 70
     0
 62
     7
  6
Continuous
370
    -3
390
F
347
3E
  0
LAYER
  5
40
330
2
100
AcDbSymbolTableRecord
100
AcDbLayerTableRecord
  2
Layer 1
 70
     0
 62
     7
  6
Continuous
370
    -3
390
F
347
3E
  0
ENDTAB
  0
TABLE
  2
STYLE
  5
3
330
0
100
AcDbSymbolTable
 70
     1
  0
STYLE
  5
11
330
3
100
AcDbSymbolTableRecord
100
AcDbTextStyleTableRecord
  2
Standard
 70
     0
 40
0.0
 41
1.0
 50
0.0
 71
     0
 42
0.2
  3
txt
  4

  0
ENDTAB
  0
TABLE
  2
VIEW
  5
6
330
0
100
AcDbSymbolTable
 70
     0
  0
ENDTAB
  0
TABLE
  2
UCS
  5
7
330
0
100
AcDbSymbolTable
 70
     0
  0
ENDTAB
  0
TABLE
  2
APPID
  5
9
330
0
100
AcDbSymbolTable
 70
     2
  0
APPID
  5
12
330
9
100
AcDbSymbolTableRecord
100
AcDbRegAppTableRecord
  2
ACAD
 70
     0
  0
APPID
  5
3F
330
9
100
AcDbSymbolTableRecord
100
AcDbRegAppTableRecord
  2
ODA
 70
     0
  0
ENDTAB
  0
TABLE
  2
DIMSTYLE
  5
A
330
0
100
AcDbSymbolTable
 70
     1
100
AcDbDimStyleTable
  0
DIMSTYLE
105
27
330
A
100
AcDbSymbolTableRecord
100
AcDbDimStyleTableRecord
  2
Standard
 70
     0
178
     0
340
11
  0
ENDTAB
  0
TABLE
  2
BLOCK_RECORD
  5
1
330
0
100
AcDbSymbolTable
 70
     1
  0
BLOCK_RECORD
  5
1F
330
1
100
AcDbSymbolTableRecord
100
AcDbBlockTableRecord
  2
*Model_Space
340
22
 70
     0
280
     1
281
     0
  0
BLOCK_RECORD
  5
1B
330
1
100
AcDbSymbolTableRecord
100
AcDbBlockTableRecord
  2
*Paper_Space
340
1E
 70
     0
280
     1
281
     0
  0
BLOCK_RECORD
  5
23
330
1
100
AcDbSymbolTableRecord
100
AcDbBlockTableRecord
  2
*Paper_Space0
340
26
 70
     0
280
     1
281
     0
  0
ENDTAB
  0
ENDSEC
  0
SECTION
  2
BLOCKS
  0
BLOCK
  5
20
330
1F
100
AcDbEntity
  8
0
100
AcDbBlockBegin
  2
*Model_Space
 70
     0
 10
0.0
 20
0.0
 30
0.0
  3
*Model_Space
  1

  0
ENDBLK
  5
21
330
1F
100
AcDbEntity
  8
0
100
AcDbBlockEnd
  0
BLOCK
  5
1C
330
1B
100
AcDbEntity
 67
     1
  8
0
100
AcDbBlockBegin
  2
*Paper_Space
 70
     0
 10
0.0
 20
0.0
 30
0.0
  3
*Paper_Space
  1

  0
ENDBLK
  5
1D
330
1B
100
AcDbEntity
 67
     1
  8
0
100
AcDbBlockEnd
  0
BLOCK
  5
24
330
23
100
AcDbEntity
  8
0
100
AcDbBlockBegin
  2
*Paper_Space0
 70
     0
 10
0.0
 20
0.0
 30
0.0
  3
*Paper_Space0
  1

  0
ENDBLK
  5
25
330
23
100
AcDbEntity
  8
0
100
AcDbBlockEnd
  0
ENDSEC
  0
SECTION
  2
ENTITIES
  0
SPLINE
  5
41
330
1F
100
AcDbEntity
  8
Layer 1
370
    53
100
AcDbSpline
210
0.0
220
0.0
230
1.0
 70
    11
 71
     3
 72
    20
 73
    16
 74
     0
 42
0.0000000001
 43
0.0000000001
 12
1.0
 22
0.0
 32
0.0
 13
1.0
 23
0.0
 33
0.0
 40
0.0
 40
0.0
 40
0.0
 40
0.0
 40
0.2
 40
0.2
 40
0.2
 40
0.2
 40
0.4
 40
0.4
 40
0.4
 40
0.4
 40
0.6
 40
0.6
 40
0.6
 40
0.6
 40
1.0
 40
1.0
 40
1.0
 40
1.0
 10
-0.55
 20
1.25
 30
0.0
 10
-0.55
 20
1.41568
 30
0.0
 10
-0.41568
 20
1.55
 30
0.0
 10
-0.25
 20
1.55
 30
0.0
 10
-0.25
 20
1.55
 30
0.0
 10
-0.08432
 20
1.55
 30
0.0
 10
0.05
 20
1.41568
 30
0.0
 10
0.05
 20
1.25
 30
0.0
 10
0.05
 20
1.25
 30
0.0
 10
0.05
 20
1.08432
 30
0.0
 10
-0.08432
 20
0.95
 30
0.0
 10
-0.25
 20
0.95
 30
0.0
 10
-0.25
 20
0.95
 30
0.0
 10
-0.41568
 20
0.95
 30
0.0
 10
-0.55
 20
1.08432
 30
0.0
 10
-0.55
 20
1.25
 30
0.0
  0
SPLINE
  5
42
330
1F
100
AcDbEntity
  8
Layer 1
370
    53
100
AcDbSpline
210
0.0
220
0.0
230
1.0
 70
    11
 71
     3
 72
    20
 73
    16
 74
     0
 42
0.0000000001
 43
0.0000000001
 12
1.0
 22
0.0
 32
0.0
 13
1.0
 23
0.0
 33
0.0
 40
0.0
 40
0.0
 40
0.0
 40
0.0
 40
0.2
 40
0.2
 40
0.2
 40
0.2
 40
0.4
 40
0.4
 40
0.4
 40
0.4
 40
0.6
 40
0.6
 40
0.6
 40
0.6
 40
1.0
 40
1.0
 40
1.0
 40
1.0
 10
0.95
 20
1.25
 30
0.0
 10
0.95
 20
1.41568
 30
0.0
 10
1.08432
 20
1.55
 30
0.0
 10
1.25
 20
1.55
 30
0.0
 10
1.25
 20
1.55
 30
0.0
 10
1.41568
 20
1.55
 30
0.0
 10
1.55
 20
1.41568
 30
0.0
 10
1.55
 20
1.25
 30
0.0
 10
1.55
 20
1.25
 30
0.0
 10
1.55
 20
1.08432
 30
0.0
 10
1.41568
 20
0.95
 30
0.0
 10
1.25
 20
0.95
 30
0.0
 10
1.25
 20
0.95
 30
0.0
 10
1.08432
 20
0.95
 30
0.0
 10
0.95
 20
1.08432
 30
0.0
 10
0.95
 20
1.25
 30
0.0
  0
SPLINE
  5
43
330
1F
100
AcDbEntity
  8
Layer 1
 62
     5
370
    53
100
AcDbSpline
210
0.0
220
0.0
230
1.0
 70
    11
 71
     3
 72
    16
 73
    12
 74
     0
 42
0.0000000001
 43
0.0000000001
 12
1.0
 22
0.0
 32
0.0
 13
1.0
 23
0.0
 33
0.0
 40
0.0
 40
0.0
 40
0.0
 40
0.0
 40
0.25
 40
0.25
 40
0.25
 40
0.25
 40
0.5
 40
0.5
 40
0.5
 40
0.5
 40
1.0
 40
1.0
 40
1.0
 40
1.0
 10
3.57919
 20
-0.30051
 30
0.0
 10
3.54385
 20
-0.30868
 30
0.0
 10
3.44293
 20
-0.46779
 30
0.0
 10
3.42977
 20
-0.51065
 30
0.0
 10
3.42977
 20
-0.51065
 30
0.0
 10
3.49199
 20
-0.54076
 30
0.0
 10
3.57206
 20
-0.67136
 30
0.0
 10
3.64105
 20
-0.63131
 30
0.0
 10
3.64105
 20
-0.63131
 30
0.0
 10
3.77228
 20
-0.55512
 30
0.0
 10
3.56956
 20
-0.3124
 30
0.0
 10
3.57919
 20
-0.30051
 30
0.0
  0
SPLINE
  5
44
330
1F
100
AcDbEntity
  8
Layer 1
 62
     5
370
    53
100
AcDbSpline
210
0.0
220
0.0
230
1.0
 70
    11
 71
     3
 72
    16
 73
    12
 74
     0
 42
0.0000000001
 43
0.0000000001
 12
1.0
 22
0.0
 32
0.0
 13
1.0
 23
0.0
 33
0.0
 40
0.0
 40
0.0
 40
0.0
 40
0.0
 40
0.25
 40
0.25
 40
0.25
 40
0.25
 40
0.5
 40
0.5
 40
0.5
 40
0.5
 40
1.0
 40
1.0
 40
1.0
 40
1.0
 10
3.19312
 20
-1.04026
 30
0.0
 10
3.19792
 20
-1.04473
 30
0.0
 10
3.33807
 20
-1.26673
 30
0.0
 10
3.19488
 20
-1.33205
 30
0.0
 10
3.19488
 20
-1.33205
 30
0.0
 10
3.09581
 20
-1.37724
 30
0.0
 10
3.03925
 20
-1.2295
 30
0.0
 10
3.01587
 20
-1.1664
 30
0.0
 10
3.01587
 20
-1.1664
 30
0.0
 10
3.0961
 20
-1.14219
 30
0.0
 10
3.1155
 20
-1.07237
 30
0.0
 10
3.19312
 20
-1.04026
 30
0.0
  0
SPLINE
  5
45
330
1F
100
AcDbEntity
  8
Layer 1
 62
     5
370
    53
100
AcDbSpline
210
0.0
220
0.0
230
1.0
 70
    11
 71
     3
 72
    12
 73
     8
 74
     0
 42
0.0000000001
 43
0.0000000001
 12
1.0
 22
0.0
 32
0.0
 13
1.0
 23
0.0
 33
0.0
 40
0.0
 40
0.0
 40
0.0
 40
0.0
 40
0.3333333333333333
 40
0.3333333333333333
 40
0.3333333333333333
 40
0.3333333333333333
 40
1.0
 40
1.0
 40
1.0
 40
1.0
 10
2.17063
 20
-1.35657
 30
0.0
 10
2.16856
 20
-1.34143
 30
0.0
 10
2.28338
 20
-1.20624
 30
0.0
 10
2.2909
 20
-1.19332
 30
0.0
 10
2.2909
 20
-1.19332
 30
0.0
 10
2.53391
 20
-1.17671
 30
0.0
 10
2.34751
 20
-1.6441
 30
0.0
 10
2.17063
 20
-1.35657
 30
0.0
  0
SPLINE
  5
46
330
1F
100
AcDbEntity
  8
Layer 1
 62
     5
370
    53
100
AcDbSpline
210
0.0
220
0.0
230
1.0
 70
    11
 71
     3
 72
    16
 73
    12
 74
     0
 42
0.0000000001
 43
0.0000000001
 12
1.0
 22
0.0
 32
0.0
 13
1.0
 23
0.0
 33
0.0
 40
0.0
 40
0.0
 40
0.0
 40
0.0
 40
0.25
 40
0.25
 40
0.25
 40
0.25
 40
0.5
 40
0.5
 40
0.5
 40
0.5
 40
1.0
 40
1.0
 40
1.0
 40
1.0
 10
-4.12337
 20
-0.63121
 30
0.0
 10
-4.2546
 20
-0.55501
 30
0.0
 10
-4.05165
 20
-0.3124
 30
0.0
 10
-4.06145
 20
-0.30049
 30
0.0
 10
-4.06145
 20
-0.30049
 30
0.0
 10
-4.02599
 20
-0.3087
 30
0.0
 10
-3.92519
 20
-0.46771
 30
0.0
 10
-3.91196
 20
-0.51057
 30
0.0
 10
-3.91196
 20
-0.51057
 30
0.0
 10
-3.97414
 20
-0.54073
 30
0.0
 10
-4.0543
 20
-0.67144
 30
0.0
 10
-4.12337
 20
-0.63121
 30
0.0
  0
SPLINE
  5
47
330
1F
100
AcDbEntity
  8
Layer 1
 62
     5
370
    53
100
AcDbSpline
210
0.0
220
0.0
230
1.0
 70
    11
 71
     3
 72
    16
 73
    12
 74
     0
 42
0.0000000001
 43
0.0000000001
 12
1.0
 22
0.0
 32
0.0
 13
1.0
 23
0.0
 33
0.0
 40
0.0
 40
0.0
 40
0.0
 40
0.0
 40
0.25
 40
0.25
 40
0.25
 40
0.25
 40
0.5
 40
0.5
 40
0.5
 40
0.5
 40
1.0
 40
1.0
 40
1.0
 40
1.0
 10
-3.67701
 20
-1.3321
 30
0.0
 10
-3.82041
 20
-1.26676
 30
0.0
 10
-3.68018
 20
-1.04478
 30
0.0
 10
-3.67542
 20
-1.04026
 30
0.0
 10
-3.67542
 20
-1.04026
 30
0.0
 10
-3.59763
 20
-1.07227
 30
0.0
 10
-3.57832
 20
-1.14214
 30
0.0
 10
-3.49814
 20
-1.16647
 30
0.0
 10
-3.49814
 20
-1.16647
 30
0.0
 10
-3.52144
 20
-1.22944
 30
0.0
 10
-3.57805
 20
-1.37734
 30
0.0
 10
-3.67701
 20
-1.3321
 30
0.0
  0
SPLINE
  5
48
330
1F
100
AcDbEntity
  8
Layer 1
 62
     5
370
    53
100
AcDbSpline
210
0.0
220
0.0
230
1.0
 70
    11
 71
     3
 72
    12
 73
     8
 74
     0
 42
0.0000000001
 43
0.0000000001
 12
1.0
 22
0.0
 32
0.0
 13
1.0
 23
0.0
 33
0.0
 40
0.0
 40
0.0
 40
0.0
 40
0.0
 40
0.3333333333333333
 40
0.3333333333333333
 40
0.3333333333333333
 40
0.3333333333333333
 40
1.0
 40
1.0
 40
1.0
 40
1.0
 10
-2.77319
 20
-1.19319
 30
0.0
 10
-2.76551
 20
-1.20616
 30
0.0
 10
-2.65069
 20
-1.34137
 30
0.0
 10
-2.6528
 20
-1.35644
 30
0.0
 10
-2.6528
 20
-1.35644
 30
0.0
 10
-2.82981
 20
-1.64404
 30
0.0
 10
-3.01608
 20
-1.17679
 30
0.0
 10
-2.77319
 20
-1.19319
 30
0.0
  0
SPLINE
  5
49
330
1F
100
AcDbEntity
  8
Layer 1
 62
     5
370
    53
100
AcDbSpline
210
0.0
220
0.0
230
1.0
 70
    11
 71
     3
 72
    12
 73
     8
 74
     0
 42
0.0000000001
 43
0.0000000001
 12
1.0
 22
0.0
 32
0.0
 13
1.0
 23
0.0
 33
0.0
 40
0.0
 40
0.0
 40
0.0
 40
0.0
 40
0.3333333333333333
 40
0.3333333333333333
 40
0.3333333333333333
 40
0.3333333333333333
 40
1.0
 40
1.0
 40
1.0
 40
1.0
 10
2.17054
 20
-1.36016
 30
0.0
 10
2.16843
 20
-1.34507
 30
0.0
 10
2.28325
 20
-1.20986
 30
0.0
 10
2.29093
 20
-1.19692
 30
0.0
 10
2.29093
 20
-1.19692
 30
0.0
 10
2.53381
 20
-1.18051
 30
0.0
 10
2.34754
 20
-1.64774
 30
0.0
 10
2.17054
 20
-1.36016
 30
0.0
  0
SPLINE
  5
4A
330
1F
100
AcDbEntity
  8
Layer 1
 62
     5
370
    53
100
AcDbSpline
210
0.0
220
0.0
230
1.0
 70
    11
 71
     3
 72
    16
 73
    12
 74
     0
 42
0.0000000001
 43
0.0000000001
 12
1.0
 22
0.0
 32
0.0
 13
1.0
 23
0.0
 33
0.0
 40
0.0
 40
0.0
 40
0.0
 40
0.0
 40
0.25
 40
0.25
 40
0.25
 40
0.25
 40
0.5
 40
0.5
 40
0.5
 40
0.5
 40
1.0
 40
1.0
 40
1.0
 40
1.0
 10
3.19315
 20
-1.04398
 30
0.0
 10
3.19792
 20
-1.04848
 30
0.0
 10
3.33815
 20
-1.27045
 30
0.0
 10
3.19474
 20
-1.33582
 30
0.0
 10
3.19474
 20
-1.33582
 30
0.0
 10
3.09579
 20
-1.38106
 30
0.0
 10
3.03917
 20
-1.23314
 30
0.0
 10
3.0159
 20
-1.17017
 30
0.0
 10
3.0159
 20
-1.17017
 30
0.0
 10
3.09604
 20
-1.14583
 30
0.0
 10
3.11537
 20
-1.07599
 30
0.0
 10
3.19315
 20
-1.04398
 30
0.0
  0
SPLINE
  5
4B
330
1F
100
AcDbEntity
  8
Layer 1
 62
     5
370
    53
100
AcDbSpline
210
0.0
220
0.0
230
1.0
 70
    11
 71
     3
 72
    16
 73
    12
 74
     0
 42
0.0000000001
 43
0.0000000001
 12
1.0
 22
0.0
 32
0.0
 13
1.0
 23
0.0
 33
0.0
 40
0.0
 40
0.0
 40
0.0
 40
0.0
 40
0.25
 40
0.25
 40
0.25
 40
0.25
 40
0.5
 40
0.5
 40
0.5
 40
0.5
 40
1.0
 40
1.0
 40
1.0
 40
1.0
 10
3.6411
 20
-0.63493
 30
0.0
 10
3.57204
 20
-0.67514
 30
0.0
 10
3.49186
 20
-0.54445
 30
0.0
 10
3.4297
 20
-0.51427
 30
0.0
 10
3.4297
 20
-0.51427
 30
0.0
 10
3.44293
 20
-0.4714
 30
0.0
 10
3.54372
 20
-0.3124
 30
0.0
 10
3.57919
 20
-0.30421
 30
0.0
 10
3.57919
 20
-0.30421
 30
0.0
 10
3.5694
 20
-0.31612
 30
0.0
 10
3.77233
 20
-0.55873
 30
0.0
 10
3.6411
 20
-0.63493
 30
0.0
  0
SPLINE
  5
4C
330
1F
100
AcDbEntity
  8
Layer 1
370
    53
100
AcDbSpline
210
0.0
220
0.0
230
1.0
 70
    11
 71
     3
 72
   396
 73
   392
 74
     0
 42
0.0000000001
 43
0.0000000001
 12
1.0
 22
0.0
 32
0.0
 13
1.0
 23
0.0
 33
0.0
 40
0.0
 40
0.0
 40
0.0
 40
0.0
 40
0.0101010101010101
 40
0.0101010101010101
 40
0.0101010101010101
 40
0.0101010101010101
 40
0.0202020202020202
 40
0.0202020202020202
 40
0.0202020202020202
 40
0.0202020202020202
 40
0.0303030303030303
 40
0.0303030303030303
 40
0.0303030303030303
 40
0.0303030303030303
 40
0.0404040404040404
 40
0.0404040404040404
 40
0.0404040404040404
 40
0.0404040404040404
 40
0.0505050505050505
 40
0.0505050505050505
 40
0.0505050505050505
 40
0.0505050505050505
 40
0.0606060606060606
 40
0.0606060606060606
 40
0.0606060606060606
 40
0.0606060606060606
 40
0.0707070707070707
 40
0.0707070707070707
 40
0.0707070707070707
 40
0.0707070707070707
 40
0.0808080808080808
 40
0.0808080808080808
 40
0.0808080808080808
 40
0.0808080808080808
 40
0.0909090909090909
 40
0.0909090909090909
 40
0.0909090909090909
 40
0.0909090909090909
 40
0.101010101010101
 40
0.101010101010101
 40
0.101010101010101
 40
0.101010101010101
 40
0.1111111111111111
 40
0.1111111111111111
 40
0.1111111111111111
 40
0.1111111111111111
 40
0.1212121212121212
 40
0.1212121212121212
 40
0.1212121212121212
 40
0.1212121212121212
 40
0.1313131313131313
 40
0.1313131313131313
 40
0.1313131313131313
 40
0.1313131313131313
 40
0.1414141414141414
 40
0.1414141414141414
 40
0.1414141414141414
 40
0.1414141414141414
 40
0.1515151515151515
 40
0.1515151515151515
 40
0.1515151515151515
 40
0.1515151515151515
 40
0.1616161616161616
 40
0.1616161616161616
 40
0.1616161616161616
 40
0.1616161616161616
 40
0.1717171717171717
 40
0.1717171717171717
 40
0.1717171717171717
 40
0.1717171717171717
 40
0.1818181818181818
 40
0.1818181818181818
 40
0.1818181818181818
 40
0.1818181818181818
 40
0.1919191919191919
 40
0.1919191919191919
 40
0.1919191919191919
 40
0.1919191919191919
 40
0.202020202020202
 40
0.202020202020202
 40
0.202020202020202
 40
0.202020202020202
 40
0.2121212121212121
 40
0.2121212121212121
 40
0.2121212121212121
 40
0.2121212121212121
 40
0.2222222222222222
 40
0.2222222222222222
 40
0.2222222222222222
 40
0.2222222222222222
 40
0.2323232323232323
 40
0.2323232323232323
 40
0.2323232323232323
 40
0.2323232323232323
 40
0.2424242424242424
 40
0.2424242424242424
 40
0.2424242424242424
 40
0.2424242424242424
 40
0.2525252525252525
 40
0.2525252525252525
 40
0.2525252525252525
 40
0.2525252525252525
 40
0.2626262626262627
 40
0.2626262626262627
 40
0.2626262626262627
 40
0.2626262626262627
 40
0.2727272727272727
 40
0.2727272727272727
 40
0.2727272727272727
 40
0.2727272727272727
 40
0.2828282828282828
 40
0.2828282828282828
 40
0.2828282828282828
 40
0.2828282828282828
 40
0.2929292929292929
 40
0.2929292929292929
 40
0.2929292929292929
 40
0.2929292929292929
 40
0.303030303030303
 40
0.303030303030303
 40
0.303030303030303
 40
0.303030303030303
 40
0.3131313131313131
 40
0.3131313131313131
 40
0.3131313131313131
 40
0.3131313131313131
 40
0.3232323232323233
 40
0.3232323232323233
 40
0.3232323232323233
 40
0.3232323232323233
 40
0.3333333333333333
 40
0.3333333333333333
 40
0.3333333333333333
 40
0.3333333333333333
 40
0.3434343434343434
 40
0.3434343434343434
 40
0.3434343434343434
 40
0.3434343434343434
 40
0.3535353535353535
 40
0.3535353535353535
 40
0.3535353535353535
 40
0.3535353535353535
 40
0.3636363636363636
 40
0.3636363636363636
 40
0.3636363636363636
 40
0.3636363636363636
 40
0.3737373737373738
 40
0.3737373737373738
 40
0.3737373737373738
 40
0.3737373737373738
 40
0.3838383838383838
 40
0.3838383838383838
 40
0.3838383838383838
 40
0.3838383838383838
 40
0.3939393939393939
 40
0.3939393939393939
 40
0.3939393939393939
 40
0.3939393939393939
 40
0.404040404040404
 40
0.404040404040404
 40
0.404040404040404
 40
0.404040404040404
 40
0.4141414141414141
 40
0.4141414141414141
 40
0.4141414141414141
 40
0.4141414141414141
 40
0.4242424242424243
 40
0.4242424242424243
 40
0.4242424242424243
 40
0.4242424242424243
 40
0.4343434343434344
 40
0.4343434343434344
 40
0.4343434343434344
 40
0.4343434343434344
 40
0.4444444444444444
 40
0.4444444444444444
 40
0.4444444444444444
 40
0.4444444444444444
 40
0.4545454545454545
 40
0.4545454545454545
 40
0.4545454545454545
 40
0.4545454545454545
 40
0.4646464646464646
 40
0.4646464646464646
 40
0.4646464646464646
 40
0.4646464646464646
 40
0.4747474747474748
 40
0.4747474747474748
 40
0.4747474747474748
 40
0.4747474747474748
 40
0.4848484848484849
 40
0.4848484848484849
 40
0.4848484848484849
 40
0.4848484848484849
 40
0.494949494949495
 40
0.494949494949495
 40
0.494949494949495
 40
0.494949494949495
 40
0.5050505050505051
 40
0.5050505050505051
 40
0.5050505050505051
 40
0.5050505050505051
 40
0.5151515151515151
 40
0.5151515151515151
 40
0.5151515151515151
 40
0.5151515151515151
 40
0.5252525252525253
 40
0.5252525252525253
 40
0.5252525252525253
 40
0.5252525252525253
 40
0.5353535353535354
 40
0.5353535353535354
 40
0.5353535353535354
 40
0.5353535353535354
 40
0.5454545454545454
 40
0.5454545454545454
 40
0.5454545454545454
 40
0.5454545454545454
 40
0.5555555555555556
 40
0.5555555555555556
 40
0.5555555555555556
 40
0.5555555555555556
 40
0.5656565656565656
 40
0.5656565656565656
 40
0.5656565656565656
 40
0.5656565656565656
 40
0.5757575757575758
 40
0.5757575757575758
 40
0.5757575757575758
 40
0.5757575757575758
 40
0.5858585858585859
 40
0.5858585858585859
 40
0.5858585858585859
 40
0.5858585858585859
 40
0.5959595959595959
 40
0.5959595959595959
 40
0.5959595959595959
 40
0.5959595959595959
 40
0.6060606060606061
 40
0.6060606060606061
 40
0.6060606060606061
 40
0.6060606060606061
 40
0.6161616161616161
 40
0.6161616161616161
 40
0.6161616161616161
 40
0.6161616161616161
 40
0.6262626262626263
 40
0.6262626262626263
 40
0.6262626262626263
 40
0.6262626262626263
 40
0.6363636363636364
 40
0.6363636363636364
 40
0.6363636363636364
 40
0.6363636363636364
 40
0.6464646464646465
 40
0.6464646464646465
 40
0.6464646464646465
 40
0.6464646464646465
 40
0.6565656565656566
 40
0.6565656565656566
 40
0.6565656565656566
 40
0.6565656565656566
 40
0.6666666666666666
 40
0.6666666666666666
 40
0.6666666666666666
 40
0.6666666666666666
 40
0.6767676767676768
 40
0.6767676767676768
 40
0.6767676767676768
 40
0.6767676767676768
 40
0.6868686868686869
 40
0.6868686868686869
 40
0.6868686868686869
 40
0.6868686868686869
 40
0.696969696969697
 40
0.696969696969697
 40
0.696969696969697
 40
0.696969696969697
 40
0.7070707070707071
 40
0.7070707070707071
 40
0.7070707070707071
 40
0.7070707070707071
 40
0.7171717171717171
 40
0.7171717171717171
 40
0.7171717171717171
 40
0.7171717171717171
 40
0.7272727272727273
 40
0.7272727272727273
 40
0.7272727272727273
 40
0.7272727272727273
 40
0.7373737373737373
 40
0.7373737373737373
 40
0.7373737373737373
 40
0.7373737373737373
 40
0.7474747474747475
 40
0.7474747474747475
 40
0.7474747474747475
 40
0.7474747474747475
 40
0.7575757575757576
 40
0.7575757575757576
 40
0.7575757575757576
 40
0.7575757575757576
 40
0.7676767676767676
 40
0.7676767676767676
 40
0.7676767676767676
 40
0.7676767676767676
 40
0.7777777777777778
 40
0.7777777777777778
 40
0.7777777777777778
 40
0.7777777777777778
 40
0.7878787878787878
 40
0.7878787878787878
 40
0.7878787878787878
 40
0.7878787878787878
 40
0.797979797979798
 40
0.797979797979798
 40
0.797979797979798
 40
0.797979797979798
 40
0.8080808080808081
 40
0.8080808080808081
 40
0.8080808080808081
 40
0.8080808080808081
 40
0.8181818181818182
 40
0.8181818181818182
 40
0.8181818181818182
 40
0.8181818181818182
 40
0.8282828282828283
 40
0.8282828282828283
 40
0.8282828282828283
 40
0.8282828282828283
 40
0.8383838383838383
 40
0.8383838383838383
 40
0.8383838383838383
 40
0.8383838383838383
 40
0.8484848484848485
 40
0.8484848484848485
 40
0.8484848484848485
 40
0.8484848484848485
 40
0.8585858585858586
 40
0.8585858585858586
 40
0.8585858585858586
 40
0.8585858585858586
 40
0.8686868686868687
 40
0.8686868686868687
 40
0.8686868686868687
 40
0.8686868686868687
 40
0.8787878787878788
 40
0.8787878787878788
 40
0.8787878787878788
 40
0.8787878787878788
 40
0.8888888888888888
 40
0.8888888888888888
 40
0.8888888888888888
 40
0.8888888888888888
 40
0.898989898989899
 40
0.898989898989899
 40
0.898989898989899
 40
0.898989898989899
 40
0.9090909090909091
 40
0.9090909090909091
 40
0.9090909090909091
 40
0.9090909090909091
 40
0.9191919191919192
 40
0.9191919191919192
 40
0.9191919191919192
 40
0.9191919191919192
 40
0.9292929292929293
 40
0.9292929292929293
 40
0.9292929292929293
 40
0.9292929292929293
 40
0.9393939393939394
 40
0.9393939393939394
 40
0.9393939393939394
 40
0.9393939393939394
 40
0.9494949494949495
 40
0.9494949494949495
 40
0.9494949494949495
 40
0.9494949494949495
 40
0.9595959595959596
 40
0.9595959595959596
 40
0.9595959595959596
 40
0.9595959595959596
 40
0.9696969696969697
 40
0.9696969696969697
 40
0.9696969696969697
 40
0.9696969696969697
 40
0.9797979797979798
 40
0.9797979797979798
 40
0.9797979797979798
 40
0.9797979797979798
 40
1.0
 40
1.0
 40
1.0
 40
1.0
 10
1.31332
 20
0.55
 30
0.0
 10
1.31332
 20
0.55
 30
0.0
 10
1.31328
 20
0.19825
 30
0.0
 10
1.31328
 20
0.19825
 30
0.0
 10
1.31328
 20
0.19825
 30
0.0
 10
1.37175
 20
0.20512
 30
0.0
 10
1.43235
 20
0.20567
 30
0.0
 10
1.49162
 20
0.20168
 30
0.0
 10
1.49162
 20
0.20168
 30
0.0
 10
1.45351
 20
0.13923
 30
0.0
 10
1.45854
 20
0.03102
 30
0.0
 10
1.48051
 20
-0.04411
 30
0.0
 10
1.48051
 20
-0.04411
 30
0.0
 10
1.47601
 20
-0.00177
 30
0.0
 10
1.58265
 20
0.07787
 30
0.0
 10
1.6173
 20
0.10856
 30
0.0
 10
1.6173
 20
0.10856
 30
0.0
 10
1.71837
 20
0.19876
 30
0.0
 10
1.84087
 20
0.27814
 30
0.0
 10
1.98135
 20
0.28238
 30
0.0
 10
1.98135
 20
0.28238
 30
0.0
 10
1.9602
 20
0.1829
 30
0.0
 10
1.9504
 20
0.11252
 30
0.0
 10
1.96074
 20
0.0096
 30
0.0
 10
1.96074
 20
0.0096
 30
0.0
 10
1.96074
 20
0.00748
 30
0.0
 10
1.96099
 20
0.00536
 30
0.0
 10
1.96125
 20
0.00325
 30
0.0
 10
1.96125
 20
0.00325
 30
0.0
 10
1.96206
 20
0.00591
 30
0.0
 10
1.96311
 20
0.00828
 30
0.0
 10
1.96418
 20
0.01092
 30
0.0
 10
1.96418
 20
0.01092
 30
0.0
 10
1.99247
 20
0.08711
 30
0.0
 10
2.04168
 20
0.17892
 30
0.0
 10
2.08641
 20
0.24587
 30
0.0
 10
2.08641
 20
0.24587
 30
0.0
 10
2.1724
 20
0.37392
 30
0.0
 10
2.41818
 20
0.60572
 30
0.0
 10
2.58408
 20
0.58138
 30
0.0
 10
2.58408
 20
0.58138
 30
0.0
 10
2.5436
 20
0.49273
 30
0.0
 10
2.48962
 20
0.39193
 30
0.0
 10
2.51607
 20
0.29165
 30
0.0
 10
2.51607
 20
0.29165
 30
0.0
 10
2.5182
 20
0.28397
 30
0.0
 10
2.52057
 20
0.27605
 30
0.0
 10
2.52375
 20
0.26809
 30
0.0
 10
2.52375
 20
0.26809
 30
0.0
 10
2.53037
 20
0.27974
 30
0.0
 10
2.53778
 20
0.29191
 30
0.0
 10
2.54571
 20
0.30408
 30
0.0
 10
2.54571
 20
0.30408
 30
0.0
 10
2.66664
 20
0.48877
 30
0.0
 10
2.92911
 20
0.71948
 30
0.0
 10
3.15056
 20
0.63005
 30
0.0
 10
3.15056
 20
0.63005
 30
0.0
 10
3.06747
 20
0.56654
 30
0.0
 10
3.00054
 20
0.42606
 30
0.0
 10
3.0
 20
0.32129
 30
0.0
 10
3.0
 20
0.32129
 30
0.0
 10
3.11299
 20
0.29403
 30
0.0
 10
3.22095
 20
0.24667
 30
0.0
 10
3.31169
 20
0.18502
 30
0.0
 10
3.31169
 20
0.18502
 30
0.0
 10
3.49108
 20
0.06332
 30
0.0
 10
3.64506
 20
-0.12375
 30
0.0
 10
3.71887
 20
-0.32906
 30
0.0
 10
3.71887
 20
-0.32906
 30
0.0
 10
3.75354
 20
-0.42484
 30
0.0
 10
3.78078
 20
-0.52222
 30
0.0
 10
3.74587
 20
-0.62222
 30
0.0
 10
3.74587
 20
-0.62222
 30
0.0
 10
3.72205
 20
-0.69022
 30
0.0
 10
3.69666
 20
-0.76774
 30
0.0
 10
3.61676
 20
-0.77779
 30
0.0
 10
3.61676
 20
-0.77779
 30
0.0
 10
3.47468
 20
-0.79526
 30
0.0
 10
3.38313
 20
-0.66457
 30
0.0
 10
3.28019
 20
-0.59047
 30
0.0
 10
3.28019
 20
-0.59047
 30
0.0
 10
3.19924
 20
-0.532
 30
0.0
 10
3.11563
 20
-0.48916
 30
0.0
 10
3.0262
 20
-0.44548
 30
0.0
 10
3.0262
 20
-0.44548
 30
0.0
 10
2.9783
 20
-0.4222
 30
0.0
 10
2.79655
 20
-0.33118
 30
0.0
 10
2.76823
 20
-0.42565
 30
0.0
 10
2.76823
 20
-0.42565
 30
0.0
 10
2.75289
 20
-0.47644
 30
0.0
 10
2.82857
 20
-0.52222
 30
0.0
 10
2.86032
 20
-0.54496
 30
0.0
 10
2.86032
 20
-0.54496
 30
0.0
 10
2.92672
 20
-0.59233
 30
0.0
 10
2.99364
 20
-0.63731
 30
0.0
 10
3.05767
 20
-0.68785
 30
0.0
 10
3.05767
 20
-0.68785
 30
0.0
 10
3.10426
 20
-0.72462
 30
0.0
 10
3.14103
 20
-0.75929
 30
0.0
 10
3.17782
 20
-0.80665
 30
0.0
 10
3.17782
 20
-0.80665
 30
0.0
 10
3.22888
 20
-0.87306
 30
0.0
 10
3.28761
 20
-0.92254
 30
0.0
 10
3.3183
 20
-1.00269
 30
0.0
 10
3.3183
 20
-1.00269
 30
0.0
 10
3.35349
 20
-1.09423
 30
0.0
 10
3.35481
 20
-1.19239
 30
0.0
 10
3.31619
 20
-1.28342
 30
0.0
 10
3.31619
 20
-1.28342
 30
0.0
 10
3.27252
 20
-1.38634
 30
0.0
 10
3.16723
 20
-1.48741
 30
0.0
 10
3.0463
 20
-1.46812
 30
0.0
 10
3.0463
 20
-1.46812
 30
0.0
 10
2.94975
 20
-1.45276
 30
0.0
 10
2.8722
 20
-1.33846
 30
0.0
 10
2.80844
 20
-1.27019
 30
0.0
 10
2.80844
 20
-1.27019
 30
0.0
 10
2.72061
 20
-1.17653
 30
0.0
 10
2.65659
 20
-1.0699
 30
0.0
 10
2.53355
 20
-1.01935
 30
0.0
 10
2.53355
 20
-1.01935
 30
0.0
 10
2.49967
 20
-1.00535
 30
0.0
 10
2.30653
 20
-0.95401
 30
0.0
 10
2.30469
 20
-1.02969
 30
0.0
 10
2.30469
 20
-1.02969
 30
0.0
 10
2.30389
 20
-1.06408
 30
0.0
 10
2.36394
 20
-1.07256
 30
0.0
 10
2.38883
 20
-1.08816
 30
0.0
 10
2.38883
 20
-1.08816
 30
0.0
 10
2.46105
 20
-1.13366
 30
0.0
 10
2.57271
 20
-1.27177
 30
0.0
 10
2.55101
 20
-1.36228
 30
0.0
 10
2.55101
 20
-1.36228
 30
0.0
 10
2.51556
 20
-1.51044
 30
0.0
 10
2.31526
 20
-1.55992
 30
0.0
 10
2.18721
 20
-1.54297
 30
0.0
 10
2.18721
 20
-1.54297
 30
0.0
 10
2.00412
 20
-1.51917
 30
0.0
 10
1.8541
 20
-1.39879
 30
0.0
 10
1.67814
 20
-1.3522
 30
0.0
 10
1.67814
 20
-1.3522
 30
0.0
 10
1.50617
 20
-1.30644
 30
0.0
 10
1.36568
 20
-1.22415
 30
0.0
 10
1.1781
 20
-1.27311
 30
0.0
 10
1.1781
 20
-1.27311
 30
0.0
 10
1.0704
 20
-1.30141
 30
0.0
 10
0.97938
 20
-1.3985
 30
0.0
 10
0.87939
 20
-1.4493
 30
0.0
 10
0.87939
 20
-1.4493
 30
0.0
 10
0.66743
 20
-1.55699
 30
0.0
 10
0.31898
 20
-1.57154
 30
0.0
 10
0.14173
 20
-1.39006
 30
0.0
 10
0.14173
 20
-1.39006
 30
0.0
 10
0.10018
 20
-1.3477
 30
0.0
 10
0.05943
 20
-1.30195
 30
0.0
 10
0.0237
 20
-1.25458
 30
0.0
 10
0.0237
 20
-1.25458
 30
0.0
 10
-0.07366
 20
-1.12441
 30
0.0
 10
-0.1189
 20
-0.95905
 30
0.0
 10
-0.11679
 20
-0.79712
 30
0.0
 10
-0.11679
 20
-0.79712
 30
0.0
 10
-0.11361
 20
-0.54416
 30
0.0
 10
-0.0054
 20
-0.25392
 30
0.0
 10
0.18511
 20
-0.08248
 30
0.0
 10
0.18511
 20
-0.08248
 30
0.0
 10
0.2187
 20
-0.0523
 30
0.0
 10
0.30973
 20
-0.02029
 30
0.0
 10
0.33115
 20
0.01172
 30
0.0
 10
0.33115
 20
0.01172
 30
0.0
 10
0.35205
 20
0.04268
 30
0.0
 10
0.33856
 20
0.11384
 30
0.0
 10
0.33856
 20
0.15008
 30
0.0
 10
0.33856
 20
0.15008
 30
0.0
 10
0.33856
 20
0.15008
 30
0.0
 10
0.33856
 20
0.55
 30
0.0
 10
0.33856
 20
0.55
 30
0.0
 10
0.33856
 20
0.55
 30
0.0
 10
0.33856
 20
0.55
 30
0.0
 10
-0.82083
 20
0.55
 30
0.0
 10
-0.82083
 20
0.55
 30
0.0
 10
-0.82083
 20
0.55
 30
0.0
 10
-0.82083
 20
0.55
 30
0.0
 10
-0.82083
 20
0.1538
 30
0.0
 10
-0.82083
 20
0.1538
 30
0.0
 10
-0.82083
 20
0.1538
 30
0.0
 10
-0.82083
 20
0.11756
 30
0.0
 10
-0.83433
 20
0.04637
 30
0.0
 10
-0.81343
 20
0.01541
 30
0.0
 10
-0.81343
 20
0.01541
 30
0.0
 10
-0.792
 20
-0.0166
 30
0.0
 10
-0.70098
 20
-0.04861
 30
0.0
 10
-0.66738
 20
-0.07876
 30
0.0
 10
-0.66738
 20
-0.07876
 30
0.0
 10
-0.47689
 20
-0.25023
 30
0.0
 10
-0.36866
 20
-0.54047
 30
0.0
 10
-0.3655
 20
-0.79342
 30
0.0
 10
-0.3655
 20
-0.79342
 30
0.0
 10
-0.36339
 20
-0.95533
 30
0.0
 10
-0.40863
 20
-1.12069
 30
0.0
 10
-0.50599
 20
-1.25086
 30
0.0
 10
-0.50599
 20
-1.25086
 30
0.0
 10
-0.54169
 20
-1.29823
 30
0.0
 10
-0.58245
 20
-1.34401
 30
0.0
 10
-0.62398
 20
-1.38634
 30
0.0
 10
-0.62398
 20
-1.38634
 30
0.0
 10
-0.80126
 20
-1.56784
 30
0.0
 10
-1.14971
 20
-1.5533
 30
0.0
 10
-1.36163
 20
-1.44561
 30
0.0
 10
-1.36163
 20
-1.44561
 30
0.0
 10
-1.46165
 20
-1.39481
 30
0.0
 10
-1.55266
 20
-1.29771
 30
0.0
 10
-1.66035
 20
-1.26939
 30
0.0
 10
-1.66035
 20
-1.26939
 30
0.0
 10
-1.84795
 20
-1.22045
 30
0.0
 10
-1.98844
 20
-1.30275
 30
0.0
 10
-2.16042
 20
-1.34851
 30
0.0
 10
-2.16042
 20
-1.34851
 30
0.0
 10
-2.33637
 20
-1.39507
 30
0.0
 10
-2.48638
 20
-1.51545
 30
0.0
 10
-2.66947
 20
-1.53927
 30
0.0
 10
-2.66947
 20
-1.53927
 30
0.0
 10
-2.79753
 20
-1.5562
 30
0.0
 10
-2.99782
 20
-1.50674
 30
0.0
 10
-3.03328
 20
-1.35856
 30
0.0
 10
-3.03328
 20
-1.35856
 30
0.0
 10
-3.05497
 20
-1.26807
 30
0.0
 10
-2.94331
 20
-1.12996
 30
0.0
 10
-2.87109
 20
-1.08447
 30
0.0
 10
-2.87109
 20
-1.08447
 30
0.0
 10
-2.84622
 20
-1.06883
 30
0.0
 10
-2.78616
 20
-1.06039
 30
0.0
 10
-2.78695
 20
-1.02597
 30
0.0
 10
-2.78695
 20
-1.02597
 30
0.0
 10
-2.78881
 20
-0.95032
 30
0.0
 10
-2.98195
 20
-1.00163
 30
0.0
 10
-3.01581
 20
-1.01566
 30
0.0
 10
-3.01581
 20
-1.01566
 30
0.0
 10
-3.13884
 20
-1.0662
 30
0.0
 10
-3.20287
 20
-1.17283
 30
0.0
 10
-3.29071
 20
-1.2665
 30
0.0
 10
-3.29071
 20
-1.2665
 30
0.0
 10
-3.35448
 20
-1.33476
 30
0.0
 10
-3.43199
 20
-1.44904
 30
0.0
 10
-3.52858
 20
-1.46439
 30
0.0
 10
-3.52858
 20
-1.46439
 30
0.0
 10
-3.64949
 20
-1.48372
 30
0.0
 10
-3.75479
 20
-1.38264
 30
0.0
 10
-3.79845
 20
-1.27972
 30
0.0
 10
-3.79845
 20
-1.27972
 30
0.0
 10
-3.83707
 20
-1.1887
 30
0.0
 10
-3.83575
 20
-1.09054
 30
0.0
 10
-3.80056
 20
-0.99899
 30
0.0
 10
-3.80056
 20
-0.99899
 30
0.0
 10
-3.76987
 20
-0.91882
 30
0.0
 10
-3.71114
 20
-0.86934
 30
0.0
 10
-3.66007
 20
-0.80293
 30
0.0
 10
-3.66007
 20
-0.80293
 30
0.0
 10
-3.62329
 20
-0.75557
 30
0.0
 10
-3.58652
 20
-0.72092
 30
0.0
 10
-3.53995
 20
-0.68413
 30
0.0
 10
-3.53995
 20
-0.68413
 30
0.0
 10
-3.47592
 20
-0.63361
 30
0.0
 10
-3.40899
 20
-0.58863
 30
0.0
 10
-3.34257
 20
-0.54127
 30
0.0
 10
-3.34257
 20
-0.54127
 30
0.0
 10
-3.31081
 20
-0.5185
 30
0.0
 10
-3.23515
 20
-0.47275
 30
0.0
 10
-3.2505
 20
-0.42195
 30
0.0
 10
-3.2505
 20
-0.42195
 30
0.0
 10
-3.2788
 20
-0.32749
 30
0.0
 10
-3.46057
 20
-0.41848
 30
0.0
 10
-3.50846
 20
-0.44179
 30
0.0
 10
-3.50846
 20
-0.44179
 30
0.0
 10
-3.59789
 20
-0.48543
 30
0.0
 10
-3.6815
 20
-0.5283
 30
0.0
 10
-3.76246
 20
-0.58677
 30
0.0
 10
-3.76246
 20
-0.58677
 30
0.0
 10
-3.86539
 20
-0.66085
 30
0.0
 10
-3.95694
 20
-0.79156
 30
0.0
 10
-4.09901
 20
-0.7741
 30
0.0
 10
-4.09901
 20
-0.7741
 30
0.0
 10
-4.17892
 20
-0.76405
 30
0.0
 10
-4.20431
 20
-0.68653
 30
0.0
 10
-4.22814
 20
-0.61852
 30
0.0
 10
-4.22814
 20
-0.61852
 30
0.0
 10
-4.26306
 20
-0.5185
 30
0.0
 10
-4.23581
 20
-0.42115
 30
0.0
 10
-4.20115
 20
-0.32536
 30
0.0
 10
-4.20115
 20
-0.32536
 30
0.0
 10
-4.12733
 20
-0.12006
 30
0.0
 10
-3.97333
 20
0.06701
 30
0.0
 10
-3.79395
 20
0.18871
 30
0.0
 10
-3.79395
 20
0.18871
 30
0.0
 10
-3.70319
 20
0.25036
 30
0.0
 10
-3.59524
 20
0.29772
 30
0.0
 10
-3.48228
 20
0.32498
 30
0.0
 10
-3.48228
 20
0.32498
 30
0.0
 10
-3.4828
 20
0.42976
 30
0.0
 10
-3.54974
 20
0.57024
 30
0.0
 10
-3.63283
 20
0.63375
 30
0.0
 10
-3.63283
 20
0.63375
 30
0.0
 10
-3.41137
 20
0.72317
 30
0.0
 10
-3.1489
 20
0.49247
 30
0.0
 10
-3.02797
 20
0.30777
 30
0.0
 10
-3.02797
 20
0.30777
 30
0.0
 10
-3.02005
 20
0.29561
 30
0.0
 10
-3.01264
 20
0.28343
 30
0.0
 10
-3.00603
 20
0.27181
 30
0.0
 10
-3.00603
 20
0.27181
 30
0.0
 10
-3.00285
 20
0.27974
 30
0.0
 10
-3.00047
 20
0.28767
 30
0.0
 10
-2.99836
 20
0.29534
 30
0.0
 10
-2.99836
 20
0.29534
 30
0.0
 10
-2.9719
 20
0.39563
 30
0.0
 10
-3.02587
 20
0.49642
 30
0.0
 10
-3.06634
 20
0.58507
 30
0.0
 10
-3.06634
 20
0.58507
 30
0.0
 10
-2.90045
 20
0.60941
 30
0.0
 10
-2.65465
 20
0.37764
 30
0.0
 10
-2.56867
 20
0.24959
 30
0.0
 10
-2.56867
 20
0.24959
 30
0.0
 10
-2.52395
 20
0.18264
 30
0.0
 10
-2.47474
 20
0.09083
 30
0.0
 10
-2.44642
 20
0.01461
 30
0.0
 10
-2.44642
 20
0.01461
 30
0.0
 10
-2.44537
 20
0.01198
 30
0.0
 10
-2.44431
 20
0.0096
 30
0.0
 10
-2.44351
 20
0.00694
 30
0.0
 10
-2.44351
 20
0.00694
 30
0.0
 10
-2.44326
 20
0.00906
 30
0.0
 10
-2.44299
 20
0.01118
 30
0.0
 10
-2.44299
 20
0.0133
 30
0.0
 10
-2.44299
 20
0.0133
 30
0.0
 10
-2.43266
 20
0.11624
 30
0.0
 10
-2.44246
 20
0.18659
 30
0.0
 10
-2.46363
 20
0.2861
 30
0.0
 10
-2.46363
 20
0.2861
 30
0.0
 10
-2.32314
 20
0.28186
 30
0.0
 10
-2.20063
 20
0.20249
 30
0.0
 10
-2.09956
 20
0.11225
 30
0.0
 10
-2.09956
 20
0.11225
 30
0.0
 10
-2.0649
 20
0.08156
 30
0.0
 10
-1.95827
 20
0.00193
 30
0.0
 10
-1.96277
 20
-0.04039
 30
0.0
 10
-1.96277
 20
-0.04039
 30
0.0
 10
-1.94081
 20
0.03474
 30
0.0
 10
-1.93578
 20
0.14295
 30
0.0
 10
-1.97388
 20
0.20537
 30
0.0
 10
-1.97388
 20
0.20537
 30
0.0
 10
-1.91462
 20
0.20936
 30
0.0
 10
-1.85403
 20
0.20884
 30
0.0
 10
-1.79556
 20
0.20194
 30
0.0
 10
-1.79556
 20
0.20194
 30
0.0
 10
-1.79551
 20
0.20906
 30
0.0
 10
-1.79548
 20
0.39155
 30
0.0
 10
-1.79546
 20
0.55
 30
0.0
 10
-1.79546
 20
0.55
 30
0.0
 10
-1.79546
 20
0.55
 30
0.0
 10
-1.95
 20
0.55
 30
0.0
 10
-1.95
 20
0.55
 30
0.0
 10
-1.95
 20
0.55
 30
0.0
 10
-2.22614
 20
0.55
 30
0.0
 10
-2.45
 20
0.77386
 30
0.0
 10
-2.45
 20
1.05
 30
0.0
 10
-2.45
 20
1.05
 30
0.0
 10
-2.45
 20
1.05
 30
0.0
 10
-2.45
 20
1.45
 30
0.0
 10
-2.45
 20
1.45
 30
0.0
 10
-2.45
 20
1.45
 30
0.0
 10
-2.45
 20
1.72614
 30
0.0
 10
-2.22614
 20
1.95
 30
0.0
 10
-1.95
 20
1.95
 30
0.0
 10
-1.95
 20
1.95
 30
0.0
 10
-1.95
 20
1.95
 30
0.0
 10
1.45
 20
1.95
 30
0.0
 10
1.45
 20
1.95
 30
0.0
 10
1.45
 20
1.95
 30
0.0
 10
1.72614
 20
1.95
 30
0.0
 10
1.95
 20
1.72614
 30
0.0
 10
1.95
 20
1.45
 30
0.0
 10
1.95
 20
1.45
 30
0.0
 10
1.95
 20
1.45
 30
0.0
 10
1.95
 20
1.05
 30
0.0
 10
1.95
 20
1.05
 30
0.0
 10
1.95
 20
1.05
 30
0.0
 10
1.95
 20
0.77386
 30
0.0
 10
1.72614
 20
0.55
 30
0.0
 10
1.45
 20
0.55
 30
0.0
 10
1.45
 20
0.55
 30
0.0
 10
1.45
 20
0.55
 30
0.0
 10
1.31332
 20
0.55
 30
0.0
 10
1.31332
 20
0.55
 30
0.0
  0
SPLINE
  5
4D
330
1F
100
AcDbEntity
  8
Layer 1
370
    53
100
AcDbSpline
210
0.0
220
0.0
230
1.0
 70
    11
 71
     3
 72
    20
 73
    16
 74
     0
 42
0.0000000001
 43
0.0000000001
 12
1.0
 22
0.0
 32
0.0
 13
1.0
 23
0.0
 33
0.0
 40
0.0
 40
0.0
 40
0.0
 40
0.0
 40
0.2
 40
0.2
 40
0.2
 40
0.2
 40
0.4
 40
0.4
 40
0.4
 40
0.4
 40
0.6
 40
0.6
 40
0.6
 40
0.6
 40
1.0
 40
1.0
 40
1.0
 40
1.0
 10
-2.05
 20
1.25
 30
0.0
 10
-2.05
 20
1.41568
 30
0.0
 10
-1.91568
 20
1.55
 30
0.0
 10
-1.75
 20
1.55
 30
0.0
 10
-1.75
 20
1.55
 30
0.0
 10
-1.58432
 20
1.55
 30
0.0
 10
-1.45
 20
1.41568
 30
0.0
 10
-1.45
 20
1.25
 30
0.0
 10
-1.45
 20
1.25
 30
0.0
 10
-1.45
 20
1.08432
 30
0.0
 10
-1.58432
 20
0.95
 30
0.0
 10
-1.75
 20
0.95
 30
0.0
 10
-1.75
 20
0.95
 30
0.0
 10
-1.91568
 20
0.95
 30
0.0
 10
-2.05
 20
1.08432
 30
0.0
 10
-2.05
 20
1.25
 30
0.0
  0
SPLINE
  5
4E
330
1F
100
AcDbEntity
  8
Layer 1
370
    53
100
AcDbSpline
210
0.0
220
0.0
230
1.0
 70
    11
 71
     3
 72
    20
 73
    16
 74
     0
 42
0.0000000001
 43
0.0000000001
 12
1.0
 22
0.0
 32
0.0
 13
1.0
 23
0.0
 33
0.0
 40
0.0
 40
0.0
 40
0.0
 40
0.0
 40
0.2
 40
0.2
 40
0.2
 40
0.2
 40
0.4
 40
0.4
 40
0.4
 40
0.4
 40
0.6
 40
0.6
 40
0.6
 40
0.6
 40
1.0
 40
1.0
 40
1.0
 40
1.0
 10
-1.15
 20
1.25
 30
0.0
 10
-1.15
 20
1.33284
 30
0.0
 10
-1.08284
 20
1.4
 30
0.0
 10
-1.0
 20
1.4
 30
0.0
 10
-1.0
 20
1.4
 30
0.0
 10
-0.91716
 20
1.4
 30
0.0
 10
-0.85
 20
1.33284
 30
0.0
 10
-0.85
 20
1.25
 30
0.0
 10
-0.85
 20
1.25
 30
0.0
 10
-0.85
 20
1.16716
 30
0.0
 10
-0.91716
 20
1.1
 30
0.0
 10
-1.0
 20
1.1
 30
0.0
 10
-1.0
 20
1.1
 30
0.0
 10
-1.08284
 20
1.1
 30
0.0
 10
-1.15
 20
1.16716
 30
0.0
 10
-1.15
 20
1.25
 30
0.0
  0
SPLINE
  5
4F
330
1F
100
AcDbEntity
  8
Layer 1
370
    53
100
AcDbSpline
210
0.0
220
0.0
230
1.0
 70
    11
 71
     3
 72
    20
 73
    16
 74
     0
 42
0.0000000001
 43
0.0000000001
 12
1.0
 22
0.0
 32
0.0
 13
1.0
 23
0.0
 33
0.0
 40
0.0
 40
0.0
 40
0.0
 40
0.0
 40
0.2
 40
0.2
 40
0.2
 40
0.2
 40
0.4
 40
0.4
 40
0.4
 40
0.4
 40
0.6
 40
0.6
 40
0.6
 40
0.6
 40
1.0
 40
1.0
 40
1.0
 40
1.0
 10
0.35
 20
1.25
 30
0.0
 10
0.35
 20
1.33284
 30
0.0
 10
0.41716
 20
1.4
 30
0.0
 10
0.5
 20
1.4
 30
0.0
 10
0.5
 20
1.4
 30
0.0
 10
0.58284
 20
1.4
 30
0.0
 10
0.65
 20
1.33284
 30
0.0
 10
0.65
 20
1.25
 30
0.0
 10
0.65
 20
1.25
 30
0.0
 10
0.65
 20
1.16716
 30
0.0
 10
0.58284
 20
1.1
 30
0.0
 10
0.5
 20
1.1
 30
0.0
 10
0.5
 20
1.1
 30
0.0
 10
0.41716
 20
1.1
 30
0.0
 10
0.35
 20
1.16716
 30
0.0
 10
0.35
 20
1.25
 30
0.0
  0
ENDSEC
  0
SECTION
  2
OBJECTS
  0
DICTIONARY
  5
C
330
0
100
AcDbDictionary
281
     1
  3
ACAD_GROUP
350
D
  3
ACAD_LAYOUT
350
1A
  3
ACAD_MATERIAL
350
3B
  3
ACAD_MLEADERSTYLE
350
71
  3
ACAD_MLINESTYLE
350
17
  3
ACAD_PLOTSETTINGS
350
19
  3
ACAD_PLOTSTYLENAME
350
E
  3
ACAD_TABLESTYLE
350
70
  3
ACAD_VISUALSTYLE
350
2A
  0
DICTIONARY
  5
D
102
{ACAD_REACTORS
330
C
102
}
330
C
100
AcDbDictionary
281
     1
  0
DICTIONARY
  5
1A
102
{ACAD_REACTORS
330
C
102
}
330
C
100
AcDbDictionary
281
     1
  3
Layout1
350
1E
  3
Layout2
350
26
  3
Model
350
22
  0
DICTIONARY
  5
3B
102
{ACAD_REACTORS
330
C
102
}
330
C
100
AcDbDictionary
281
     1
  3
ByBlock
350
3D
  3
ByLayer
350
3C
  3
Global
350
3E
  0
DICTIONARY
  5
71
102
{ACAD_REACTORS
330
C
102
}
330
C
100
AcDbDictionary
281
     1
  0
DICTIONARY
  5
17
102
{ACAD_REACTORS
330
C
102
}
330
C
100
AcDbDictionary
281
     1
  3
Standard
350
18
  0
DICTIONARY
  5
19
102
{ACAD_REACTORS
330
C
102
}
330
C
100
AcDbDictionary
281
     1
  0
ACDBDICTIONARYWDFLT
  5
E
102
{ACAD_REACTORS
330
C
102
}
330
C
100
AcDbDictionary
281
     1
  3
Normal
350
F
100
AcDbDictionaryWithDefault
340
F
  0
DICTIONARY
  5
70
102
{ACAD_REACTORS
330
C
102
}
330
C
100
AcDbDictionary
281
     1
  0
DICTIONARY
  5
2A
102
{ACAD_REACTORS
330
C
102
}
330
C
100
AcDbDictionary
281
     1
  3
2dWireframe
350
2F
  3
3D Hidden
350
31
  3
3dWireframe
350
30
  3
Basic
350
32
  3
Brighten
350
36
  3
ColorChange
350
3A
  3
Conceptual
350
34
  3
Dim
350
35
  3
Facepattern
350
39
  3
Flat
350
2B
  3
FlatWithEdges
350
2C
  3
Gouraud
350
2D
  3
GouraudWithEdges
350
2E
  3
Linepattern
350
38
  3
Realistic
350
33
  3
Thicken
350
37
  0
LAYOUT
  5
1E
102
{ACAD_REACTORS
330
1A
102
}
330
1A
100
AcDbPlotSettings
  1

  2
none_device
  4

  6

 40
0.0
 41
0.0
 42
0.0
 43
0.0
 44
0.0
 45
0.0
 46
0.0
 47
0.0
 48
0.0
 49
0.0
140
0.0
141
0.0
142
1.0
143
1.0
 70
   688
 72
     0
 73
     0
 74
     5
  7

 75
    16
 76
     0
 77
     2
 78
   300
147
1.0
148
0.0
149
0.0
100
AcDbLayout
  1
Layout1
 70
     1
 71
     1
 10
0.0
 20
0.0
 11
12.0
 21
9.0
 12
0.0
 22
0.0
 32
0.0
 14
1.000000000000000E+20
 24
1.000000000000000E+20
 34
1.000000000000000E+20
 15
-1.000000000000000E+20
 25
-1.000000000000000E+20
 35
-1.000000000000000E+20
146
0.0
 13
0.0
 23
0.0
 33
0.0
 16
1.0
 26
0.0
 36
0.0
 17
0.0
 27
1.0
 37
0.0
 76
     0
330
1B
  0
LAYOUT
  5
26
102
{ACAD_REACTORS
330
1A
102
}
330
1A
100
AcDbPlotSettings
  1

  2
none_device
  4

  6

 40
0.0
 41
0.0
 42
0.0
 43
0.0
 44
0.0
 45
0.0
 46
0.0
 47
0.0
 48
0.0
 49
0.0
140
0.0
141
0.0
142
1.0
143
1.0
 70
   688
 72
     0
 73
     0
 74
     5
  7

 75
    16
 76
     0
 77
     2
 78
   300
147
1.0
148
0.0
149
0.0
100
AcDbLayout
  1
Layout2
 70
     1
 71
     2
 10
0.0
 20
0.0
 11
0.0
 21
0.0
 12
0.0
 22
0.0
 32
0.0
 14
0.0
 24
0.0
 34
0.0
 15
0.0
 25
0.0
 35
0.0
146
0.0
 13
0.0
 23
0.0
 33
0.0
 16
1.0
 26
0.0
 36
0.0
 17
0.0
 27
1.0
 37
0.0
 76
     0
330
23
  0
LAYOUT
  5
22
102
{ACAD_REACTORS
330
1A
102
}
330
1A
100
AcDbPlotSettings
  1

  2
none_device
  4

  6

 40
0.0
 41
0.0
 42
0.0
 43
0.0
 44
0.0
 45
0.0
 46
0.0
 47
0.0
 48
0.0
 49
0.0
140
0.0
141
0.0
142
1.0
143
1.0
 70
  1712
 72
     0
 73
     0
 74
     0
  7

 75
     0
 76
     0
 77
     2
 78
   300
147
1.0
148
0.0
149
0.0
100
AcDbLayout
  1
Model
 70
     1
 71
     0
 10
0.0
 20
0.0
 11
12.0
 21
9.0
 12
0.0
 22
0.0
 32
0.0
 14
-4.2708
 24
-1.57261
 34
0.0
 15
3.78852
 25
1.97646
 35
0.0
146
0.0
 13
0.0
 23
0.0
 33
0.0
 16
1.0
 26
0.0
 36
0.0
 17
0.0
 27
1.0
 37
0.0
 76
     0
330
1F
331
29
  0
MATERIAL
  5
3D
102
{ACAD_REACTORS
330
3B
102
}
330
3B
100
AcDbMaterial
  1
ByBlock
 72
     1
 94
      127
  0
MATERIAL
  5
3C
102
{ACAD_REACTORS
330
3B
102
}
330
3B
100
AcDbMaterial
  1
ByLayer
 72
     1
 94
      127
  0
MATERIAL
  5
3E
102
{ACAD_REACTORS
330
3B
102
}
330
3B
100
AcDbMaterial
  1
Global
 72
     1
 94
      127
  0
MLINESTYLE
  5
18
102
{ACAD_REACTORS
330
17
102
}
330
17
100
AcDbMlineStyle
  2
Standard
 70
     0
  3

 62
   256
 51
90.0
 52
90.0
 71
     2
 49
0.5
 62
   256
  6
BYLAYER
 49
-0.5
 62
   256
  6
BYLAYER
  0
ACDBPLACEHOLDER
  5
F
102
{ACAD_REACTORS
330
E
102
}
330
E
  0
VISUALSTYLE
  5
2F
102
{ACAD_REACTORS
330
2A
102
}
102
{ACAD_XDICTIONARY
360
58
102
}
330
2A
100
AcDbVisualStyle
  2
2dWireframe
 70
     4
 71
     0
 72
     2
 73
     0
 90
        0
 40
-0.6
 41
-30.0
 62
     5
 63
     7
421
 16777215
 74
     1
 91
        4
 64
     7
 65
   257
 75
     1
175
     1
 42
1.0
 92
        0
 66
   257
 43
1.0
 76
     1
 77
     6
 78
     2
 67
     7
 79
     5
170
     0
171
     0
290
     0
174
     0
 93
        1
 44
0.0
173
     0
291
     0
 45
0.0
  0
VISUALSTYLE
  5
31
102
{ACAD_REACTORS
330
2A
102
}
102
{ACAD_XDICTIONARY
360
5C
102
}
330
2A
100
AcDbVisualStyle
  2
3D Hidden
 70
     6
 71
     1
 72
     2
 73
     2
 90
        0
 40
-0.6
 41
-30.0
 62
     5
 63
     7
421
 16777215
 74
     2
 91
        2
 64
     7
 65
   257
 75
     2
175
     1
 42
40.0
 92
        0
 66
   257
 43
1.0
 76
     1
 77
     6
 78
     2
 67
     7
 79
     3
170
     0
171
     0
290
     0
174
     0
 93
        1
 44
0.0
173
     0
291
     0
 45
0.0
  0
VISUALSTYLE
  5
30
102
{ACAD_REACTORS
330
2A
102
}
102
{ACAD_XDICTIONARY
360
5A
102
}
330
2A
100
AcDbVisualStyle
  2
3dWireframe
 70
     5
 71
     0
 72
     2
 73
     0
 90
        0
 40
-0.6
 41
-30.0
 62
     5
 63
     7
421
 16777215
 74
     1
 91
        4
 64
     7
 65
   257
 75
     1
175
     1
 42
1.0
 92
        0
 66
   257
 43
1.0
 76
     1
 77
     6
 78
     2
 67
     7
 79
     5
170
     0
171
     0
290
     0
174
     0
 93
        1
 44
0.0
173
     0
291
     0
 45
0.0
  0
VISUALSTYLE
  5
32
102
{ACAD_REACTORS
330
2A
102
}
102
{ACAD_XDICTIONARY
360
5E
102
}
330
2A
100
AcDbVisualStyle
  2
Basic
 70
     7
 71
     1
 72
     0
 73
     1
 90
        0
 40
-0.6
 41
-30.0
 62
     5
 63
     7
421
 16777215
 74
     0
 91
        4
 64
     7
 65
   257
 75
     1
175
     1
 42
1.0
 92
        8
 66
     7
 43
1.0
 76
     1
 77
     6
 78
     2
 67
     7
 79
     5
170
     0
171
     0
290
     0
174
     0
 93
        1
 44
0.0
173
     0
291
     1
 45
0.0
  0
VISUALSTYLE
  5
36
102
{ACAD_REACTORS
330
2A
102
}
102
{ACAD_XDICTIONARY
360
66
102
}
330
2A
100
AcDbVisualStyle
  2
Brighten
 70
    12
 71
     2
 72
     2
 73
     0
 90
        0
 40
-0.6
 41
-30.0
 62
     5
 63
     7
421
 16777215
 74
     1
 91
        4
 64
     7
 65
   257
 75
     1
175
     1
 42
1.0
 92
        8
 66
     7
 43
1.0
 76
     1
 77
     6
 78
     2
 67
     7
 79
     5
170
     0
171
     0
290
     0
174
     0
 93
        1
 44
50.0
173
     0
291
     1
 45
0.0
  0
VISUALSTYLE
  5
3A
102
{ACAD_REACTORS
330
2A
102
}
102
{ACAD_XDICTIONARY
360
6E
102
}
330
2A
100
AcDbVisualStyle
  2
ColorChange
 70
    16
 71
     2
 72
     2
 73
     3
 90
        0
 40
-0.6
 41
-30.0
 62
     5
 63
     8
421
  8421504
 74
     1
 91
        4
 64
     7
 65
   257
 75
     1
175
     1
 42
1.0
 92
        8
 66
     8
424
  8421504
 43
1.0
 76
     1
 77
     6
 78
     2
 67
     7
 79
     5
170
     0
171
     0
290
     0
174
     0
 93
        1
 44
0.0
173
     0
291
     1
 45
0.0
  0
VISUALSTYLE
  5
34
102
{ACAD_REACTORS
330
2A
102
}
102
{ACAD_XDICTIONARY
360
62
102
}
330
2A
100
AcDbVisualStyle
  2
Conceptual
 70
     9
 71
     3
 72
     2
 73
     0
 90
        0
 40
-0.6
 41
-30.0
 62
     5
 63
     7
421
 16777215
 74
     2
 91
        2
 64
     7
 65
   257
 75
     1
175
     1
 42
40.0
 92
        8
 66
     7
 43
1.0
 76
     1
 77
     6
 78
     2
 67
     7
 79
     3
170
     0
171
     0
290
     0
174
     0
 93
        1
 44
0.0
173
     0
291
     0
 45
0.0
  0
VISUALSTYLE
  5
35
102
{ACAD_REACTORS
330
2A
102
}
102
{ACAD_XDICTIONARY
360
64
102
}
330
2A
100
AcDbVisualStyle
  2
Dim
 70
    11
 71
     2
 72
     2
 73
     0
 90
        0
 40
-0.6
 41
-30.0
 62
     5
 63
     7
421
 16777215
 74
     1
 91
        4
 64
     7
 65
   257
 75
     1
175
     1
 42
1.0
 92
        8
 66
     7
 43
1.0
 76
     1
 77
     6
 78
     2
 67
     7
 79
     5
170
     0
171
     0
290
     0
174
     0
 93
        1
 44
-50.0
173
     0
291
     1
 45
0.0
  0
VISUALSTYLE
  5
39
102
{ACAD_REACTORS
330
2A
102
}
102
{ACAD_XDICTIONARY
360
6C
102
}
330
2A
100
AcDbVisualStyle
  2
Facepattern
 70
    15
 71
     2
 72
     2
 73
     0
 90
        0
 40
-0.6
 41
-30.0
 62
     5
 63
     7
421
 16777215
 74
     1
 91
        4
 64
     7
 65
   257
 75
     1
175
     1
 42
1.0
 92
        8
 66
     7
 43
1.0
 76
     1
 77
     6
 78
     2
 67
     7
 79
     5
170
     0
171
     0
290
     0
174
     0
 93
        1
 44
0.0
173
     0
291
     1
 45
0.0
  0
VISUALSTYLE
  5
2B
102
{ACAD_REACTORS
330
2A
102
}
102
{ACAD_XDICTIONARY
360
50
102
}
330
2A
100
AcDbVisualStyle
  2
Flat
 70
     0
 71
     2
 72
     1
 73
     1
 90
        2
 40
-0.6
 41
30.0
 62
     5
 63
     7
421
 16777215
 74
     0
 91
        4
 64
     7
 65
   257
 75
     1
175
     1
 42
1.0
 92
        8
 66
     7
 43
1.0
 76
     1
 77
     6
 78
     2
 67
     7
 79
     5
170
     0
171
     0
290
     0
174
     0
 93
       13
 44
0.0
173
     0
291
     1
 45
0.0
  0
VISUALSTYLE
  5
2C
102
{ACAD_REACTORS
330
2A
102
}
102
{ACAD_XDICTIONARY
360
52
102
}
330
2A
100
AcDbVisualStyle
  2
FlatWithEdges
 70
     1
 71
     2
 72
     1
 73
     1
 90
        2
 40
-0.6
 41
30.0
 62
     5
 63
     7
421
 16777215
 74
     1
 91
        4
 64
     7
 65
   257
 75
     1
175
     1
 42
1.0
 92
        0
 66
   257
 43
1.0
 76
     1
 77
     6
 78
     2
 67
     7
 79
     5
170
     0
171
     0
290
     0
174
     0
 93
       13
 44
0.0
173
     0
291
     1
 45
0.0
  0
VISUALSTYLE
  5
2D
102
{ACAD_REACTORS
330
2A
102
}
102
{ACAD_XDICTIONARY
360
54
102
}
330
2A
100
AcDbVisualStyle
  2
Gouraud
 70
     2
 71
     2
 72
     2
 73
     1
 90
        2
 40
-0.6
 41
30.0
 62
     5
 63
     7
421
 16777215
 74
     0
 91
        4
 64
     7
 65
   257
 75
     1
175
     1
 42
1.0
 92
        0
 66
     7
 43
1.0
 76
     1
 77
     6
 78
     2
 67
     7
 79
     5
170
     0
171
     0
290
     0
174
     0
 93
       13
 44
0.0
173
     0
291
     1
 45
0.0
  0
VISUALSTYLE
  5
2E
102
{ACAD_REACTORS
330
2A
102
}
102
{ACAD_XDICTIONARY
360
56
102
}
330
2A
100
AcDbVisualStyle
  2
GouraudWithEdges
 70
     3
 71
     2
 72
     2
 73
     1
 90
        2
 40
-0.6
 41
30.0
 62
     5
 63
     7
421
 16777215
 74
     1
 91
        4
 64
     7
 65
   257
 75
     1
175
     1
 42
1.0
 92
        0
 66
   257
 43
1.0
 76
     1
 77
     6
 78
     2
 67
     7
 79
     5
170
     0
171
     0
290
     0
174
     0
 93
       13
 44
0.0
173
     0
291
     1
 45
0.0
  0
VISUALSTYLE
  5
38
102
{ACAD_REACTORS
330
2A
102
}
102
{ACAD_XDICTIONARY
360
6A
102
}
330
2A
100
AcDbVisualStyle
  2
Linepattern
 70
    14
 71
     2
 72
     2
 73
     0
 90
        0
 40
-0.6
 41
-30.0
 62
     5
 63
     7
421
 16777215
 74
     1
 91
        4
 64
     7
 65
   257
 75
     7
175
     7
 42
1.0
 92
        8
 66
     7
 43
1.0
 76
     1
 77
     6
 78
     2
 67
     7
 79
     5
170
     0
171
     0
290
     0
174
     0
 93
        1
 44
0.0
173
     0
291
     1
 45
0.0
  0
VISUALSTYLE
  5
33
102
{ACAD_REACTORS
330
2A
102
}
102
{ACAD_XDICTIONARY
360
60
102
}
330
2A
100
AcDbVisualStyle
  2
Realistic
 70
     8
 71
     2
 72
     2
 73
     0
 90
        0
 40
-0.6
 41
-30.0
 62
     5
 63
     7
421
 16777215
 74
     1
 91
        0
 64
     7
 65
   257
 75
     1
175
     1
 42
1.0
 92
        8
 66
     8
424
  7895160
 43
1.0
 76
     1
 77
     6
 78
     2
 67
     7
 79
     5
170
     0
171
     0
290
     0
174
     0
 93
       13
 44
0.0
173
     0
291
     0
 45
0.0
  0
VISUALSTYLE
  5
37
102
{ACAD_REACTORS
330
2A
102
}
102
{ACAD_XDICTIONARY
360
68
102
}
330
2A
100
AcDbVisualStyle
  2
Thicken
 70
    13
 71
     2
 72
     2
 73
     0
 90
        0
 40
-0.6
 41
-30.0
 62
     5
 63
     7
421
 16777215
 74
     1
 91
        4
 64
     7
 65
   257
 75
     1
175
     1
 42
1.0
 92
       12
 66
     7
 43
1.0
 76
     1
 77
     6
 78
     2
 67
     7
 79
     5
170
     0
171
     0
290
     0
174
     0
 93
        1
 44
0.0
173
     0
291
     1
 45
0.0
  0
DICTIONARY
  5
58
330
2F
100
AcDbDictionary
280
     1
281
     1
  3
ACAD_XREC_ROUNDTRIP
360
59
  0
DICTIONARY
  5
5C
330
31
100
AcDbDictionary
280
     1
281
     1
  3
ACAD_XREC_ROUNDTRIP
360
5D
  0
DICTIONARY
  5
5A
330
30
100
AcDbDictionary
280
     1
281
     1
  3
ACAD_XREC_ROUNDTRIP
360
5B
  0
DICTIONARY
  5
5E
330
32
100
AcDbDictionary
280
     1
281
     1
  3
ACAD_XREC_ROUNDTRIP
360
5F
  0
DICTIONARY
  5
66
330
36
100
AcDbDictionary
280
     1
281
     1
  3
ACAD_XREC_ROUNDTRIP
360
67
  0
DICTIONARY
  5
6E
330
3A
100
AcDbDictionary
280
     1
281
     1
  3
ACAD_XREC_ROUNDTRIP
360
6F
  0
DICTIONARY
  5
62
330
34
100
AcDbDictionary
280
     1
281
     1
  3
ACAD_XREC_ROUNDTRIP
360
63
  0
DICTIONARY
  5
64
330
35
100
AcDbDictionary
280
     1
281
     1
  3
ACAD_XREC_ROUNDTRIP
360
65
  0
DICTIONARY
  5
6C
330
39
100
AcDbDictionary
280
     1
281
     1
  3
ACAD_XREC_ROUNDTRIP
360
6D
  0
DICTIONARY
  5
50
330
2B
100
AcDbDictionary
280
     1
281
     1
  3
ACAD_XREC_ROUNDTRIP
360
51
  0
DICTIONARY
  5
52
330
2C
100
AcDbDictionary
280
     1
281
     1
  3
ACAD_XREC_ROUNDTRIP
360
53
  0
DICTIONARY
  5
54
330
2D
100
AcDbDictionary
280
     1
281
     1
  3
ACAD_XREC_ROUNDTRIP
360
55
  0
DICTIONARY
  5
56
330
2E
100
AcDbDictionary
280
     1
281
     1
  3
ACAD_XREC_ROUNDTRIP
360
57
  0
DICTIONARY
  5
6A
330
38
100
AcDbDictionary
280
     1
281
     1
  3
ACAD_XREC_ROUNDTRIP
360
6B
  0
DICTIONARY
  5
60
330
33
100
AcDbDictionary
280
     1
281
     1
  3
ACAD_XREC_ROUNDTRIP
360
61
  0
DICTIONARY
  5
68
330
37
100
AcDbDictionary
280
     1
281
     1
  3
ACAD_XREC_ROUNDTRIP
360
69
  0
XRECORD
  5
59
102
{ACAD_REACTORS
330
58
102
}
330
58
100
AcDbXrecord
280
     1
102
RTVSPropertyOp0
 70
     1
102
RTVSPropertyOp1
 70
     1
102
RTVSPropertyOp2
 70
     1
102
RTVSPropertyOp3
 70
     1
102
RTVSPropertyOp4
 70
     1
102
RTVSPropertyOp5
 70
     1
102
RTVSPropertyOp6
 70
     1
102
RTVSPropertyOp7
 70
     1
102
RTVSPropertyOp8
 70
     1
102
RTVSPropertyOp9
 70
     1
102
RTVSPropertyOp10
 70
     1
102
RTVSPropertyOp11
 70
     1
102
RTVSPropertyOp12
 70
     1
102
RTVSPropertyOp13
 70
     1
102
RTVSPropertyOp14
 70
     1
102
RTVSPropertyOp15
 70
     1
102
RTVSPropertyOp16
 70
     1
102
RTVSPropertyOp17
 70
     1
102
RTVSPropertyOp18
 70
     1
102
RTVSPropertyOp19
 70
     1
102
RTVSPropertyOp20
 70
     1
102
RTVSPropertyOp21
 70
     1
102
RTVSPropertyOp22
 70
     1
102
RTVSPropertyOp23
 70
     1
102
RTVSPropertyOp24
 70
     1
102
RTVSPropertyOp25
 70
     1
102
RTVSPropertyOp26
 70
     1
102
RTVSPropertyOp27
 70
     1
102
RTVSPropertyOp28
 70
     1
102
RTVSPropertyOp29
 70
     1
102
RTVSPropertyOp30
 70
     1
102
RTVSPropertyOp31
 70
     1
102
RTVSPropertyOp32
 70
     1
  0
XRECORD
  5
5D
102
{ACAD_REACTORS
330
5C
102
}
330
5C
100
AcDbXrecord
280
     1
102
RTVSPropertyOp0
 70
     1
102
RTVSPropertyOp1
 70
     1
102
RTVSPropertyOp2
 70
     1
102
RTVSPropertyOp3
 70
     1
102
RTVSPropertyOp4
 70
     1
102
RTVSPropertyOp5
 70
     1
102
RTVSPropertyOp6
 70
     1
102
RTVSPropertyOp7
 70
     1
102
RTVSPropertyOp8
 70
     1
102
RTVSPropertyOp9
 70
     1
102
RTVSPropertyOp10
 70
     1
102
RTVSPropertyOp11
 70
     1
102
RTVSPropertyOp12
 70
     1
102
RTVSPropertyOp13
 70
     1
102
RTVSPropertyOp14
 70
     1
102
RTVSPropertyOp15
 70
     1
102
RTVSPropertyOp16
 70
     1
102
RTVSPropertyOp17
 70
     1
102
RTVSPropertyOp18
 70
     1
102
RTVSPropertyOp19
 70
     1
102
RTVSPropertyOp20
 70
     1
102
RTVSPropertyOp21
 70
     1
102
RTVSPropertyOp22
 70
     1
102
RTVSPropertyOp23
 70
     1
102
RTVSPropertyOp24
 70
     1
102
RTVSPropertyOp25
 70
     1
102
RTVSPropertyOp26
 70
     1
102
RTVSPropertyOp27
 70
     1
102
RTVSPropertyOp28
 70
     1
102
RTVSPropertyOp29
 70
     1
102
RTVSPropertyOp30
 70
     1
102
RTVSPropertyOp31
 70
     1
102
RTVSPropertyOp32
 70
     1
  0
XRECORD
  5
5B
102
{ACAD_REACTORS
330
5A
102
}
330
5A
100
AcDbXrecord
280
     1
102
RTVSPropertyOp0
 70
     1
102
RTVSPropertyOp1
 70
     1
102
RTVSPropertyOp2
 70
     1
102
RTVSPropertyOp3
 70
     1
102
RTVSPropertyOp4
 70
     1
102
RTVSPropertyOp5
 70
     1
102
RTVSPropertyOp6
 70
     1
102
RTVSPropertyOp7
 70
     1
102
RTVSPropertyOp8
 70
     1
102
RTVSPropertyOp9
 70
     1
102
RTVSPropertyOp10
 70
     1
102
RTVSPropertyOp11
 70
     1
102
RTVSPropertyOp12
 70
     1
102
RTVSPropertyOp13
 70
     1
102
RTVSPropertyOp14
 70
     1
102
RTVSPropertyOp15
 70
     1
102
RTVSPropertyOp16
 70
     1
102
RTVSPropertyOp17
 70
     1
102
RTVSPropertyOp18
 70
     1
102
RTVSPropertyOp19
 70
     1
102
RTVSPropertyOp20
 70
     1
102
RTVSPropertyOp21
 70
     1
102
RTVSPropertyOp22
 70
     1
102
RTVSPropertyOp23
 70
     1
102
RTVSPropertyOp24
 70
     1
102
RTVSPropertyOp25
 70
     1
102
RTVSPropertyOp26
 70
     1
102
RTVSPropertyOp27
 70
     1
102
RTVSPropertyOp28
 70
     1
102
RTVSPropertyOp29
 70
     1
102
RTVSPropertyOp30
 70
     1
102
RTVSPropertyOp31
 70
     1
102
RTVSPropertyOp32
 70
     1
  0
XRECORD
  5
5F
102
{ACAD_REACTORS
330
5E
102
}
330
5E
100
AcDbXrecord
280
     1
102
RTVSPropertyOp0
 70
     1
102
RTVSPropertyOp1
 70
     1
102
RTVSPropertyOp2
 70
     1
102
RTVSPropertyOp3
 70
     1
102
RTVSPropertyOp4
 70
     1
102
RTVSPropertyOp5
 70
     1
102
RTVSPropertyOp6
 70
     1
102
RTVSPropertyOp7
 70
     1
102
RTVSPropertyOp8
 70
     1
102
RTVSPropertyOp9
 70
     1
102
RTVSPropertyOp10
 70
     1
102
RTVSPropertyOp11
 70
     1
102
RTVSPropertyOp12
 70
     1
102
RTVSPropertyOp13
 70
     1
102
RTVSPropertyOp14
 70
     1
102
RTVSPropertyOp15
 70
     1
102
RTVSPropertyOp16
 70
     1
102
RTVSPropertyOp17
 70
     1
102
RTVSPropertyOp18
 70
     1
102
RTVSPropertyOp19
 70
     1
102
RTVSPropertyOp20
 70
     1
102
RTVSPropertyOp21
 70
     1
102
RTVSPropertyOp22
 70
     1
102
RTVSPropertyOp23
 70
     1
102
RTVSPropertyOp24
 70
     1
102
RTVSPropertyOp25
 70
     1
102
RTVSPropertyOp26
 70
     1
102
RTVSPropertyOp27
 70
     1
102
RTVSPropertyOp28
 70
     1
102
RTVSPropertyOp29
 70
     1
102
RTVSPropertyOp30
 70
     1
102
RTVSPropertyOp31
 70
     1
102
RTVSPropertyOp32
 70
     1
  0
XRECORD
  5
67
102
{ACAD_REACTORS
330
66
102
}
330
66
100
AcDbXrecord
280
     1
102
RTVSPropertyOp0
 70
     1
102
RTVSPropertyOp1
 70
     1
102
RTVSPropertyOp2
 70
     1
102
RTVSPropertyOp3
 70
     1
102
RTVSPropertyOp4
 70
     1
102
RTVSPropertyOp5
 70
     1
102
RTVSPropertyOp6
 70
     1
102
RTVSPropertyOp7
 70
     1
102
RTVSPropertyOp8
 70
     1
102
RTVSPropertyOp9
 70
     1
102
RTVSPropertyOp10
 70
     1
102
RTVSPropertyOp11
 70
     1
102
RTVSPropertyOp12
 70
     1
102
RTVSPropertyOp13
 70
     1
102
RTVSPropertyOp14
 70
     1
102
RTVSPropertyOp15
 70
     1
102
RTVSPropertyOp16
 70
     1
102
RTVSPropertyOp17
 70
     1
102
RTVSPropertyOp18
 70
     1
102
RTVSPropertyOp19
 70
     1
102
RTVSPropertyOp20
 70
     1
102
RTVSPropertyOp21
 70
     1
102
RTVSPropertyOp22
 70
     1
102
RTVSPropertyOp23
 70
     1
102
RTVSPropertyOp24
 70
     1
102
RTVSPropertyOp25
 70
     1
102
RTVSPropertyOp26
 70
     1
102
RTVSPropertyOp27
 70
     1
102
RTVSPropertyOp28
 70
     1
102
RTVSPropertyOp29
 70
     1
102
RTVSPropertyOp30
 70
     1
102
RTVSPropertyOp31
 70
     1
102
RTVSPropertyOp32
 70
     1
  0
XRECORD
  5
6F
102
{ACAD_REACTORS
330
6E
102
}
330
6E
100
AcDbXrecord
280
     1
102
RTVSPropertyOp0
 70
     1
102
RTVSPropertyOp1
 70
     1
102
RTVSPropertyOp2
 70
     1
102
RTVSPropertyOp3
 70
     1
102
RTVSPropertyOp4
 70
     1
102
RTVSPropertyOp5
 70
     1
102
RTVSPropertyOp6
 70
     1
102
RTVSPropertyOp7
 70
     1
102
RTVSPropertyOp8
 70
     1
102
RTVSPropertyOp9
 70
     1
102
RTVSPropertyOp10
 70
     1
102
RTVSPropertyOp11
 70
     1
102
RTVSPropertyOp12
 70
     1
102
RTVSPropertyOp13
 70
     1
102
RTVSPropertyOp14
 70
     1
102
RTVSPropertyOp15
 70
     1
102
RTVSPropertyOp16
 70
     1
102
RTVSPropertyOp17
 70
     1
102
RTVSPropertyOp18
 70
     1
102
RTVSPropertyOp19
 70
     1
102
RTVSPropertyOp20
 70
     1
102
RTVSPropertyOp21
 70
     1
102
RTVSPropertyOp22
 70
     1
102
RTVSPropertyOp23
 70
     1
102
RTVSPropertyOp24
 70
     1
102
RTVSPropertyOp25
 70
     1
102
RTVSPropertyOp26
 70
     1
102
RTVSPropertyOp27
 70
     1
102
RTVSPropertyOp28
 70
     1
102
RTVSPropertyOp29
 70
     1
102
RTVSPropertyOp30
 70
     1
102
RTVSPropertyOp31
 70
     1
102
RTVSPropertyOp32
 70
     1
  0
XRECORD
  5
63
102
{ACAD_REACTORS
330
62
102
}
330
62
100
AcDbXrecord
280
     1
102
RTVSPropertyOp0
 70
     1
102
RTVSPropertyOp1
 70
     1
102
RTVSPropertyOp2
 70
     1
102
RTVSPropertyOp3
 70
     1
102
RTVSPropertyOp4
 70
     1
102
RTVSPropertyOp5
 70
     1
102
RTVSPropertyOp6
 70
     1
102
RTVSPropertyOp7
 70
     1
102
RTVSPropertyOp8
 70
     1
102
RTVSPropertyOp9
 70
     1
102
RTVSPropertyOp10
 70
     1
102
RTVSPropertyOp11
 70
     1
102
RTVSPropertyOp12
 70
     1
102
RTVSPropertyOp13
 70
     1
102
RTVSPropertyOp14
 70
     1
102
RTVSPropertyOp15
 70
     1
102
RTVSPropertyOp16
 70
     1
102
RTVSPropertyOp17
 70
     1
102
RTVSPropertyOp18
 70
     1
102
RTVSPropertyOp19
 70
     1
102
RTVSPropertyOp20
 70
     1
102
RTVSPropertyOp21
 70
     1
102
RTVSPropertyOp22
 70
     1
102
RTVSPropertyOp23
 70
     1
102
RTVSPropertyOp24
 70
     1
102
RTVSPropertyOp25
 70
     1
102
RTVSPropertyOp26
 70
     1
102
RTVSPropertyOp27
 70
     1
102
RTVSPropertyOp28
 70
     1
102
RTVSPropertyOp29
 70
     1
102
RTVSPropertyOp30
 70
     1
102
RTVSPropertyOp31
 70
     1
102
RTVSPropertyOp32
 70
     1
  0
XRECORD
  5
65
102
{ACAD_REACTORS
330
64
102
}
330
64
100
AcDbXrecord
280
     1
102
RTVSPropertyOp0
 70
     1
102
RTVSPropertyOp1
 70
     1
102
RTVSPropertyOp2
 70
     1
102
RTVSPropertyOp3
 70
     1
102
RTVSPropertyOp4
 70
     1
102
RTVSPropertyOp5
 70
     1
102
RTVSPropertyOp6
 70
     1
102
RTVSPropertyOp7
 70
     1
102
RTVSPropertyOp8
 70
     1
102
RTVSPropertyOp9
 70
     1
102
RTVSPropertyOp10
 70
     1
102
RTVSPropertyOp11
 70
     1
102
RTVSPropertyOp12
 70
     1
102
RTVSPropertyOp13
 70
     1
102
RTVSPropertyOp14
 70
     1
102
RTVSPropertyOp15
 70
     1
102
RTVSPropertyOp16
 70
     1
102
RTVSPropertyOp17
 70
     1
102
RTVSPropertyOp18
 70
     1
102
RTVSPropertyOp19
 70
     1
102
RTVSPropertyOp20
 70
     1
102
RTVSPropertyOp21
 70
     1
102
RTVSPropertyOp22
 70
     1
102
RTVSPropertyOp23
 70
     1
102
RTVSPropertyOp24
 70
     1
102
RTVSPropertyOp25
 70
     1
102
RTVSPropertyOp26
 70
     1
102
RTVSPropertyOp27
 70
     1
102
RTVSPropertyOp28
 70
     1
102
RTVSPropertyOp29
 70
     1
102
RTVSPropertyOp30
 70
     1
102
RTVSPropertyOp31
 70
     1
102
RTVSPropertyOp32
 70
     1
  0
XRECORD
  5
6D
102
{ACAD_REACTORS
330
6C
102
}
330
6C
100
AcDbXrecord
280
     1
102
RTVSPropertyOp0
 70
     1
102
RTVSPropertyOp1
 70
     1
102
RTVSPropertyOp2
 70
     1
102
RTVSPropertyOp3
 70
     1
102
RTVSPropertyOp4
 70
     1
102
RTVSPropertyOp5
 70
     1
102
RTVSPropertyOp6
 70
     1
102
RTVSPropertyOp7
 70
     1
102
RTVSPropertyOp8
 70
     1
102
RTVSPropertyOp9
 70
     1
102
RTVSPropertyOp10
 70
     1
102
RTVSPropertyOp11
 70
     1
102
RTVSPropertyOp12
 70
     1
102
RTVSPropertyOp13
 70
     1
102
RTVSPropertyOp14
 70
     1
102
RTVSPropertyOp15
 70
     1
102
RTVSPropertyOp16
 70
     1
102
RTVSPropertyOp17
 70
     1
102
RTVSPropertyOp18
 70
     1
102
RTVSPropertyOp19
 70
     1
102
RTVSPropertyOp20
 70
     1
102
RTVSPropertyOp21
 70
     1
102
RTVSPropertyOp22
 70
     1
102
RTVSPropertyOp23
 70
     1
102
RTVSPropertyOp24
 70
     1
102
RTVSPropertyOp25
 70
     1
102
RTVSPropertyOp26
 70
     1
102
RTVSPropertyOp27
 70
     1
102
RTVSPropertyOp28
 70
     1
102
RTVSPropertyOp29
 70
     1
102
RTVSPropertyOp30
 70
     1
102
RTVSPropertyOp31
 70
     1
102
RTVSPropertyOp32
 70
     1
  0
XRECORD
  5
51
102
{ACAD_REACTORS
330
50
102
}
330
50
100
AcDbXrecord
280
     1
102
RTVSPropertyOp0
 70
     1
102
RTVSPropertyOp1
 70
     1
102
RTVSPropertyOp2
 70
     1
102
RTVSPropertyOp3
 70
     1
102
RTVSPropertyOp4
 70
     1
102
RTVSPropertyOp5
 70
     1
102
RTVSPropertyOp6
 70
     1
102
RTVSPropertyOp7
 70
     1
102
RTVSPropertyOp8
 70
     1
102
RTVSPropertyOp9
 70
     1
102
RTVSPropertyOp10
 70
     1
102
RTVSPropertyOp11
 70
     1
102
RTVSPropertyOp12
 70
     1
102
RTVSPropertyOp13
 70
     1
102
RTVSPropertyOp14
 70
     1
102
RTVSPropertyOp15
 70
     1
102
RTVSPropertyOp16
 70
     1
102
RTVSPropertyOp17
 70
     1
102
RTVSPropertyOp18
 70
     1
102
RTVSPropertyOp19
 70
     1
102
RTVSPropertyOp20
 70
     1
102
RTVSPropertyOp21
 70
     1
102
RTVSPropertyOp22
 70
     1
102
RTVSPropertyOp23
 70
     1
102
RTVSPropertyOp24
 70
     1
102
RTVSPropertyOp25
 70
     1
102
RTVSPropertyOp26
 70
     1
102
RTVSPropertyOp27
 70
     1
102
RTVSPropertyOp28
 70
     1
102
RTVSPropertyOp29
 70
     1
102
RTVSPropertyOp30
 70
     1
102
RTVSPropertyOp31
 70
     1
102
RTVSPropertyOp32
 70
     1
  0
XRECORD
  5
53
102
{ACAD_REACTORS
330
52
102
}
330
52
100
AcDbXrecord
280
     1
102
RTVSPropertyOp0
 70
     1
102
RTVSPropertyOp1
 70
     1
102
RTVSPropertyOp2
 70
     1
102
RTVSPropertyOp3
 70
     1
102
RTVSPropertyOp4
 70
     1
102
RTVSPropertyOp5
 70
     1
102
RTVSPropertyOp6
 70
     1
102
RTVSPropertyOp7
 70
     1
102
RTVSPropertyOp8
 70
     1
102
RTVSPropertyOp9
 70
     1
102
RTVSPropertyOp10
 70
     1
102
RTVSPropertyOp11
 70
     1
102
RTVSPropertyOp12
 70
     1
102
RTVSPropertyOp13
 70
     1
102
RTVSPropertyOp14
 70
     1
102
RTVSPropertyOp15
 70
     1
102
RTVSPropertyOp16
 70
     1
102
RTVSPropertyOp17
 70
     1
102
RTVSPropertyOp18
 70
     1
102
RTVSPropertyOp19
 70
     1
102
RTVSPropertyOp20
 70
     1
102
RTVSPropertyOp21
 70
     1
102
RTVSPropertyOp22
 70
     1
102
RTVSPropertyOp23
 70
     1
102
RTVSPropertyOp24
 70
     1
102
RTVSPropertyOp25
 70
     1
102
RTVSPropertyOp26
 70
     1
102
RTVSPropertyOp27
 70
     1
102
RTVSPropertyOp28
 70
     1
102
RTVSPropertyOp29
 70
     1
102
RTVSPropertyOp30
 70
     1
102
RTVSPropertyOp31
 70
     1
102
RTVSPropertyOp32
 70
     1
  0
XRECORD
  5
55
102
{ACAD_REACTORS
330
54
102
}
330
54
100
AcDbXrecord
280
     1
102
RTVSPropertyOp0
 70
     1
102
RTVSPropertyOp1
 70
     1
102
RTVSPropertyOp2
 70
     1
102
RTVSPropertyOp3
 70
     1
102
RTVSPropertyOp4
 70
     1
102
RTVSPropertyOp5
 70
     1
102
RTVSPropertyOp6
 70
     1
102
RTVSPropertyOp7
 70
     1
102
RTVSPropertyOp8
 70
     1
102
RTVSPropertyOp9
 70
     1
102
RTVSPropertyOp10
 70
     1
102
RTVSPropertyOp11
 70
     1
102
RTVSPropertyOp12
 70
     1
102
RTVSPropertyOp13
 70
     1
102
RTVSPropertyOp14
 70
     1
102
RTVSPropertyOp15
 70
     1
102
RTVSPropertyOp16
 70
     1
102
RTVSPropertyOp17
 70
     1
102
RTVSPropertyOp18
 70
     1
102
RTVSPropertyOp19
 70
     1
102
RTVSPropertyOp20
 70
     1
102
RTVSPropertyOp21
 70
     1
102
RTVSPropertyOp22
 70
     1
102
RTVSPropertyOp23
 70
     1
102
RTVSPropertyOp24
 70
     1
102
RTVSPropertyOp25
 70
     1
102
RTVSPropertyOp26
 70
     1
102
RTVSPropertyOp27
 70
     1
102
RTVSPropertyOp28
 70
     1
102
RTVSPropertyOp29
 70
     1
102
RTVSPropertyOp30
 70
     1
102
RTVSPropertyOp31
 70
     1
102
RTVSPropertyOp32
 70
     1
  0
XRECORD
  5
57
102
{ACAD_REACTORS
330
56
102
}
330
56
100
AcDbXrecord
280
     1
102
RTVSPropertyOp0
 70
     1
102
RTVSPropertyOp1
 70
     1
102
RTVSPropertyOp2
 70
     1
102
RTVSPropertyOp3
 70
     1
102
RTVSPropertyOp4
 70
     1
102
RTVSPropertyOp5
 70
     1
102
RTVSPropertyOp6
 70
     1
102
RTVSPropertyOp7
 70
     1
102
RTVSPropertyOp8
 70
     1
102
RTVSPropertyOp9
 70
     1
102
RTVSPropertyOp10
 70
     1
102
RTVSPropertyOp11
 70
     1
102
RTVSPropertyOp12
 70
     1
102
RTVSPropertyOp13
 70
     1
102
RTVSPropertyOp14
 70
     1
102
RTVSPropertyOp15
 70
     1
102
RTVSPropertyOp16
 70
     1
102
RTVSPropertyOp17
 70
     1
102
RTVSPropertyOp18
 70
     1
102
RTVSPropertyOp19
 70
     1
102
RTVSPropertyOp20
 70
     1
102
RTVSPropertyOp21
 70
     1
102
RTVSPropertyOp22
 70
     1
102
RTVSPropertyOp23
 70
     1
102
RTVSPropertyOp24
 70
     1
102
RTVSPropertyOp25
 70
     1
102
RTVSPropertyOp26
 70
     1
102
RTVSPropertyOp27
 70
     1
102
RTVSPropertyOp28
 70
     1
102
RTVSPropertyOp29
 70
     1
102
RTVSPropertyOp30
 70
     1
102
RTVSPropertyOp31
 70
     1
102
RTVSPropertyOp32
 70
     1
  0
XRECORD
  5
6B
102
{ACAD_REACTORS
330
6A
102
}
330
6A
100
AcDbXrecord
280
     1
102
RTVSPropertyOp0
 70
     1
102
RTVSPropertyOp1
 70
     1
102
RTVSPropertyOp2
 70
     1
102
RTVSPropertyOp3
 70
     1
102
RTVSPropertyOp4
 70
     1
102
RTVSPropertyOp5
 70
     1
102
RTVSPropertyOp6
 70
     1
102
RTVSPropertyOp7
 70
     1
102
RTVSPropertyOp8
 70
     1
102
RTVSPropertyOp9
 70
     1
102
RTVSPropertyOp10
 70
     1
102
RTVSPropertyOp11
 70
     1
102
RTVSPropertyOp12
 70
     1
102
RTVSPropertyOp13
 70
     1
102
RTVSPropertyOp14
 70
     1
102
RTVSPropertyOp15
 70
     1
102
RTVSPropertyOp16
 70
     1
102
RTVSPropertyOp17
 70
     1
102
RTVSPropertyOp18
 70
     1
102
RTVSPropertyOp19
 70
     1
102
RTVSPropertyOp20
 70
     1
102
RTVSPropertyOp21
 70
     1
102
RTVSPropertyOp22
 70
     1
102
RTVSPropertyOp23
 70
     1
102
RTVSPropertyOp24
 70
     1
102
RTVSPropertyOp25
 70
     1
102
RTVSPropertyOp26
 70
     1
102
RTVSPropertyOp27
 70
     1
102
RTVSPropertyOp28
 70
     1
102
RTVSPropertyOp29
 70
     1
102
RTVSPropertyOp30
 70
     1
102
RTVSPropertyOp31
 70
     1
102
RTVSPropertyOp32
 70
     1
  0
XRECORD
  5
61
102
{ACAD_REACTORS
330
60
102
}
330
60
100
AcDbXrecord
280
     1
102
RTVSPropertyOp0
 70
     1
102
RTVSPropertyOp1
 70
     1
102
RTVSPropertyOp2
 70
     1
102
RTVSPropertyOp3
 70
     1
102
RTVSPropertyOp4
 70
     1
102
RTVSPropertyOp5
 70
     1
102
RTVSPropertyOp6
 70
     1
102
RTVSPropertyOp7
 70
     1
102
RTVSPropertyOp8
 70
     1
102
RTVSPropertyOp9
 70
     1
102
RTVSPropertyOp10
 70
     1
102
RTVSPropertyOp11
 70
     1
102
RTVSPropertyOp12
 70
     1
102
RTVSPropertyOp13
 70
     1
102
RTVSPropertyOp14
 70
     1
102
RTVSPropertyOp15
 70
     1
102
RTVSPropertyOp16
 70
     1
102
RTVSPropertyOp17
 70
     1
102
RTVSPropertyOp18
 70
     1
102
RTVSPropertyOp19
 70
     1
102
RTVSPropertyOp20
 70
     1
102
RTVSPropertyOp21
 70
     1
102
RTVSPropertyOp22
 70
     1
102
RTVSPropertyOp23
 70
     1
102
RTVSPropertyOp24
 70
     1
102
RTVSPropertyOp25
 70
     1
102
RTVSPropertyOp26
 70
     1
102
RTVSPropertyOp27
 70
     1
102
RTVSPropertyOp28
 70
     1
102
RTVSPropertyOp29
 70
     1
102
RTVSPropertyOp30
 70
     1
102
RTVSPropertyOp31
 70
     1
102
RTVSPropertyOp32
 70
     1
  0
XRECORD
  5
69
102
{ACAD_REACTORS
330
68
102
}
330
68
100
AcDbXrecord
280
     1
102
RTVSPropertyOp0
 70
     1
102
RTVSPropertyOp1
 70
     1
102
RTVSPropertyOp2
 70
     1
102
RTVSPropertyOp3
 70
     1
102
RTVSPropertyOp4
 70
     1
102
RTVSPropertyOp5
 70
     1
102
RTVSPropertyOp6
 70
     1
102
RTVSPropertyOp7
 70
     1
102
RTVSPropertyOp8
 70
     1
102
RTVSPropertyOp9
 70
     1
102
RTVSPropertyOp10
 70
     1
102
RTVSPropertyOp11
 70
     1
102
RTVSPropertyOp12
 70
     1
102
RTVSPropertyOp13
 70
     1
102
RTVSPropertyOp14
 70
     1
102
RTVSPropertyOp15
 70
     1
102
RTVSPropertyOp16
 70
     1
102
RTVSPropertyOp17
 70
     1
102
RTVSPropertyOp18
 70
     1
102
RTVSPropertyOp19
 70
     1
102
RTVSPropertyOp20
 70
     1
102
RTVSPropertyOp21
 70
     1
102
RTVSPropertyOp22
 70
     1
102
RTVSPropertyOp23
 70
     1
102
RTVSPropertyOp24
 70
     1
102
RTVSPropertyOp25
 70
     1
102
RTVSPropertyOp26
 70
     1
102
RTVSPropertyOp27
 70
     1
102
RTVSPropertyOp28
 70
     1
102
RTVSPropertyOp29
 70
     1
102
RTVSPropertyOp30
 70
     1
102
RTVSPropertyOp31
 70
     1
102
RTVSPropertyOp32
 70
     1
  0
ENDSEC
  0
EOF
