<?xml version="1.0" encoding="UTF-8"?>
<!DOCTYPE svg PUBLIC "-//W3C//DTD SVG 1.1//EN" "http://www.w3.org/Graphics/SVG/1.1/DTD/svg11.dtd">
<!-- Creator: CorelDRAW X6 -->
<svg xmlns="http://www.w3.org/2000/svg" xml:space="preserve" width="200mm" height="200mm" version="1.1" shape-rendering="geometricPrecision" text-rendering="geometricPrecision" image-rendering="optimizeQuality" fill-rule="evenodd" clip-rule="evenodd"
viewBox="0 0 20000 20000"
 xmlns:xlink="http://www.w3.org/1999/xlink">
 <g id="Layer_x0020_1">
  <metadata id="CorelCorpID_0Corel-Layer"/>
  <g id="_867697536">
   <circle fill="none" stroke="black" stroke-width="52.92" stroke-linecap="round" stroke-linejoin="round" cx="10500" cy="8000" r="300"/>
   <circle fill="none" stroke="black" stroke-width="52.92" stroke-linecap="round" stroke-linejoin="round" cx="10500" cy="9500" r="300"/>
   <path fill="none" stroke="black" stroke-width="52.92" stroke-linecap="round" stroke-linejoin="round" d="M9800 9700l0 -1900c0,-276 224,-500 500,-500l400 0c276,0 500,224 500,500l0 400 679 0 0 -227c0,-175 143,-318 318,-318l968 0c37,0 73,7 107,19l997 0c150,0 272,122 272,275 0,153 -122,275 -272,275l-786 0 0 243 786 0c150,0 272,122 272,275 0,153 -122,275 -272,275l-786 0 0 243 786 0c150,0 272,122 272,275 0,153 -122,275 -272,275l-1032 0 0 -8c-23,5 -47,8 -72,8l-710 0 0 621c0,146 -119,265 -269,265 -149,0 -269,-119 -269,-265l0 -788c-24,-45 -38,-96 -38,-150l0 -320 -679 0 0 525c0,276 -224,500 -500,500l-400 0c-276,0 -500,-224 -500,-500z"/>
   <line fill="none" fill-rule="nonzero" stroke="blue" stroke-width="52.92" stroke-linecap="round" stroke-linejoin="round" x1="11277" y1="9158" x2="11277" y2= "8225" />
   <line fill="none" fill-rule="nonzero" stroke="blue" stroke-width="52.92" stroke-linecap="round" stroke-linejoin="round" x1="11568" y1="9158" x2="11568" y2= "8225" />
   <line fill="none" fill-rule="nonzero" stroke="blue" stroke-width="52.92" stroke-linecap="round" stroke-linejoin="round" x1="12454" y1="9813" x2="12197" y2= "9813" />
   <path fill="none" fill-rule="nonzero" stroke="blue" stroke-width="52.92" stroke-linecap="round" stroke-linejoin="round" d="M12197 9813c-175,0 -318,-143 -318,-318"/>
   <path fill="none" fill-rule="nonzero" stroke="blue" stroke-width="52.92" stroke-linecap="round" stroke-linejoin="round" d="M13164 7656c175,0 318,143 318,318"/>
   <line fill="none" fill-rule="nonzero" stroke="blue" stroke-width="52.92" stroke-linecap="round" stroke-linejoin="round" x1="13482" y1="7974" x2="13482" y2= "9495" />
   <path fill="none" fill-rule="nonzero" stroke="blue" stroke-width="52.92" stroke-linecap="round" stroke-linejoin="round" d="M13482 9495c0,175 -143,318 -318,318"/>
   <polyline fill="none" fill-rule="nonzero" stroke="blue" stroke-width="52.92" stroke-linecap="round" stroke-linejoin="round" points="12538,8063 11879,8063 11879,9363 12538,9363 "/>
   <path fill="none" fill-rule="nonzero" stroke="blue" stroke-width="52.92" stroke-linecap="round" stroke-linejoin="round" d="M12538 9363c207,0 375,-168 375,-375"/>
   <line fill="none" fill-rule="nonzero" stroke="blue" stroke-width="52.92" stroke-linecap="round" stroke-linejoin="round" x1="12913" y1="8988" x2="12913" y2= "8438" />
   <path fill="none" fill-rule="nonzero" stroke="blue" stroke-width="52.92" stroke-linecap="round" stroke-linejoin="round" d="M12913 8438c0,-207 -168,-375 -375,-375"/>
  </g>
  <g id="_867673120">
   <circle fill="none" stroke="black" stroke-width="52.92" stroke-linecap="round" stroke-linejoin="round" cx="9000" cy="8000" r="300"/>
   <circle fill="none" stroke="black" stroke-width="52.92" stroke-linecap="round" stroke-linejoin="round" cx="9000" cy="9500" r="300"/>
   <path fill="none" stroke="black" stroke-width="52.92" stroke-linecap="round" stroke-linejoin="round" d="M9700 9700l0 -1900c0,-276 -224,-500 -500,-500l-400 0c-276,0 -500,224 -500,500l0 400 -679 0 0 -227c0,-175 -143,-318 -318,-318l-968 0c-37,0 -73,7 -107,19l-997 0c-150,0 -272,122 -272,275 0,153 122,275 272,275l786 0 0 243 -786 0c-150,0 -272,122 -272,275 0,153 122,275 272,275l786 0 0 243 -786 0c-150,0 -272,122 -272,275 0,153 122,275 272,275l1032 0 0 -8c23,5 47,8 72,8l710 0 0 621c0,146 119,265 269,265 149,0 269,-119 269,-265l0 -788c24,-45 38,-96 38,-150l0 -320 679 0 0 525c0,276 224,500 500,500l400 0c276,0 500,-224 500,-500z"/>
   <line fill="none" fill-rule="nonzero" stroke="blue" stroke-width="52.92" stroke-linecap="round" stroke-linejoin="round" x1="8223" y1="9158" x2="8223" y2= "8225" />
   <line fill="none" fill-rule="nonzero" stroke="blue" stroke-width="52.92" stroke-linecap="round" stroke-linejoin="round" x1="7932" y1="9158" x2="7932" y2= "8225" />
   <line fill="none" fill-rule="nonzero" stroke="blue" stroke-width="52.92" stroke-linecap="round" stroke-linejoin="round" x1="7046" y1="9813" x2="7303" y2= "9813" />
   <path fill="none" fill-rule="nonzero" stroke="blue" stroke-width="52.92" stroke-linecap="round" stroke-linejoin="round" d="M7303 9813c175,0 318,-143 318,-318"/>
   <path fill="none" fill-rule="nonzero" stroke="blue" stroke-width="52.92" stroke-linecap="round" stroke-linejoin="round" d="M6336 7656c-175,0 -318,143 -318,318"/>
   <line fill="none" fill-rule="nonzero" stroke="blue" stroke-width="52.92" stroke-linecap="round" stroke-linejoin="round" x1="6018" y1="7974" x2="6018" y2= "9495" />
   <path fill="none" fill-rule="nonzero" stroke="blue" stroke-width="52.92" stroke-linecap="round" stroke-linejoin="round" d="M6018 9495c0,175 143,318 318,318"/>
   <polyline fill="none" fill-rule="nonzero" stroke="blue" stroke-width="52.92" stroke-linecap="round" stroke-linejoin="round" points="6962,8063 7621,8063 7621,9363 6962,9363 "/>
   <path fill="none" fill-rule="nonzero" stroke="blue" stroke-width="52.92" stroke-linecap="round" stroke-linejoin="round" d="M6962 9363c-207,0 -375,-168 -375,-375"/>
   <line fill="none" fill-rule="nonzero" stroke="blue" stroke-width="52.92" stroke-linecap="round" stroke-linejoin="round" x1="6587" y1="8988" x2="6587" y2= "8438" />
   <path fill="none" fill-rule="nonzero" stroke="blue" stroke-width="52.92" stroke-linecap="round" stroke-linejoin="round" d="M6587 8438c0,-207 168,-375 375,-375"/>
  </g>
  <circle fill="none" stroke="black" stroke-width="52.92" stroke-linecap="round" stroke-linejoin="round" cx="9000" cy="8750" r="150"/>
  <circle fill="none" stroke="black" stroke-width="52.92" stroke-linecap="round" stroke-linejoin="round" cx="10500" cy="8750" r="150"/>
 </g>
</svg>
