<?xml version="1.0" encoding="UTF-8"?>
<!DOCTYPE svg PUBLIC "-//W3C//DTD SVG 1.1//EN" "http://www.w3.org/Graphics/SVG/1.1/DTD/svg11.dtd">
<!-- Creator: CorelDRAW X6 -->
<svg xmlns="http://www.w3.org/2000/svg" xml:space="preserve" width="200mm" height="200mm" version="1.1" shape-rendering="geometricPrecision" text-rendering="geometricPrecision" image-rendering="optimizeQuality" fill-rule="evenodd" clip-rule="evenodd"
viewBox="0 0 20000 20000"
 xmlns:xlink="http://www.w3.org/1999/xlink">
 <g id="Layer_x0020_1">
  <metadata id="CorelCorpID_0Corel-Layer"/>
  <g id="_872856640">
   <circle fill="none" stroke="black" stroke-width="52.92" stroke-linecap="round" stroke-linejoin="round" cx="750" cy="19000" r="325"/>
   <circle fill="none" stroke="black" stroke-width="52.92" stroke-linecap="round" stroke-linejoin="round" cx="750" cy="20500" r="325"/>
   <path fill="none" stroke="black" stroke-width="52.92" stroke-linecap="round" stroke-linejoin="round" d="M50 20700l0 -1900c0,-276 224,-500 500,-500l400 0c276,0 500,224 500,500l0 400 679 0 0 -227c0,-175 143,-318 318,-318l968 0c37,0 73,7 107,19l997 0c150,0 272,122 272,275 0,153 -122,275 -272,275l-786 0 0 243 786 0c150,0 272,122 272,275 0,153 -122,275 -272,275l-786 0 0 243 786 0c150,0 272,122 272,275 0,153 -122,275 -272,275l-1032 0 0 -8c-23,5 -47,8 -72,8l-710 0 0 621c0,146 -119,265 -269,265 -149,0 -269,-119 -269,-265l0 -788c-24,-45 -38,-96 -38,-150l0 -320 -679 0 0 525c0,276 -224,500 -500,500l-400 0c-276,0 -500,-224 -500,-500z"/>
   <line fill="none" fill-rule="nonzero" stroke="blue" stroke-width="52.92" stroke-linecap="round" stroke-linejoin="round" x1="1527" y1="20158" x2="1527" y2= "19225" />
   <line fill="none" fill-rule="nonzero" stroke="blue" stroke-width="52.92" stroke-linecap="round" stroke-linejoin="round" x1="1818" y1="20158" x2="1818" y2= "19225" />
   <line fill="none" fill-rule="nonzero" stroke="blue" stroke-width="52.92" stroke-linecap="round" stroke-linejoin="round" x1="2704" y1="20813" x2="2447" y2= "20813" />
   <path fill="none" fill-rule="nonzero" stroke="blue" stroke-width="52.92" stroke-linecap="round" stroke-linejoin="round" d="M2447 20813c-175,0 -318,-143 -318,-318"/>
   <path fill="none" fill-rule="nonzero" stroke="blue" stroke-width="52.92" stroke-linecap="round" stroke-linejoin="round" d="M3414 18657c175,0 318,143 318,318"/>
   <line fill="none" fill-rule="nonzero" stroke="blue" stroke-width="52.92" stroke-linecap="round" stroke-linejoin="round" x1="3732" y1="18974" x2="3732" y2= "20496" />
   <path fill="none" fill-rule="nonzero" stroke="blue" stroke-width="52.92" stroke-linecap="round" stroke-linejoin="round" d="M3732 20496c0,175 -143,318 -318,318"/>
   <polyline fill="none" fill-rule="nonzero" stroke="blue" stroke-width="52.92" stroke-linecap="round" stroke-linejoin="round" points="2788,19063 2129,19063 2129,20363 2788,20363 "/>
   <path fill="none" fill-rule="nonzero" stroke="blue" stroke-width="52.92" stroke-linecap="round" stroke-linejoin="round" d="M2788 20363c207,0 375,-168 375,-375"/>
   <line fill="none" fill-rule="nonzero" stroke="blue" stroke-width="52.92" stroke-linecap="round" stroke-linejoin="round" x1="3163" y1="19988" x2="3163" y2= "19438" />
   <path fill="none" fill-rule="nonzero" stroke="blue" stroke-width="52.92" stroke-linecap="round" stroke-linejoin="round" d="M3163 19438c0,-207 -168,-375 -375,-375"/>
  </g>
  <g id="_872818400">
   <circle fill="none" stroke="black" stroke-width="52.92" stroke-linecap="round" stroke-linejoin="round" cx="-750" cy="19000" r="325"/>
   <circle fill="none" stroke="black" stroke-width="52.92" stroke-linecap="round" stroke-linejoin="round" cx="-750" cy="20500" r="325"/>
   <path fill="none" stroke="black" stroke-width="52.92" stroke-linecap="round" stroke-linejoin="round" d="M-50 20700l0 -1900c0,-276 -224,-500 -500,-500l-400 0c-276,0 -500,224 -500,500l0 400 -679 0 0 -227c0,-175 -143,-318 -318,-318l-968 0c-37,0 -73,7 -107,19l-997 0c-150,0 -272,122 -272,275 0,153 122,275 272,275l786 0 0 243 -786 0c-150,0 -272,122 -272,275 0,153 122,275 272,275l786 0 0 243 -786 0c-150,0 -272,122 -272,275 0,153 122,275 272,275l1032 0 0 -8c23,5 47,8 72,8l710 0 0 621c0,146 119,265 269,265 149,0 269,-119 269,-265l0 -788c24,-45 38,-96 38,-150l0 -320 679 0 0 525c0,276 224,500 500,500l400 0c276,0 500,-224 500,-500z"/>
   <line fill="none" fill-rule="nonzero" stroke="blue" stroke-width="52.92" stroke-linecap="round" stroke-linejoin="round" x1="-1527" y1="20158" x2="-1527" y2= "19225" />
   <line fill="none" fill-rule="nonzero" stroke="blue" stroke-width="52.92" stroke-linecap="round" stroke-linejoin="round" x1="-1818" y1="20158" x2="-1818" y2= "19225" />
   <line fill="none" fill-rule="nonzero" stroke="blue" stroke-width="52.92" stroke-linecap="round" stroke-linejoin="round" x1="-2704" y1="20813" x2="-2447" y2= "20813" />
   <path fill="none" fill-rule="nonzero" stroke="blue" stroke-width="52.92" stroke-linecap="round" stroke-linejoin="round" d="M-2447 20813c175,0 318,-143 318,-318"/>
   <path fill="none" fill-rule="nonzero" stroke="blue" stroke-width="52.92" stroke-linecap="round" stroke-linejoin="round" d="M-3414 18657c-175,0 -318,143 -318,318"/>
   <line fill="none" fill-rule="nonzero" stroke="blue" stroke-width="52.92" stroke-linecap="round" stroke-linejoin="round" x1="-3732" y1="18974" x2="-3732" y2= "20496" />
   <path fill="none" fill-rule="nonzero" stroke="blue" stroke-width="52.92" stroke-linecap="round" stroke-linejoin="round" d="M-3732 20496c0,175 143,318 318,318"/>
   <polyline fill="none" fill-rule="nonzero" stroke="blue" stroke-width="52.92" stroke-linecap="round" stroke-linejoin="round" points="-2788,19063 -2129,19063 -2129,20363 -2788,20363 "/>
   <path fill="none" fill-rule="nonzero" stroke="blue" stroke-width="52.92" stroke-linecap="round" stroke-linejoin="round" d="M-2788 20363c-207,0 -375,-168 -375,-375"/>
   <line fill="none" fill-rule="nonzero" stroke="blue" stroke-width="52.92" stroke-linecap="round" stroke-linejoin="round" x1="-3163" y1="19988" x2="-3163" y2= "19438" />
   <path fill="none" fill-rule="nonzero" stroke="blue" stroke-width="52.92" stroke-linecap="round" stroke-linejoin="round" d="M-3163 19438c0,-207 168,-375 375,-375"/>
  </g>
  <circle fill="none" stroke="black" stroke-width="52.92" stroke-linecap="round" stroke-linejoin="round" cx="-750" cy="19750" r="180"/>
  <circle fill="none" stroke="black" stroke-width="52.92" stroke-linecap="round" stroke-linejoin="round" cx="750" cy="19750" r="180"/>
 </g>
</svg>
