<?xml version="1.0" encoding="UTF-8"?>
<!DOCTYPE svg PUBLIC "-//W3C//DTD SVG 1.1//EN" "http://www.w3.org/Graphics/SVG/1.1/DTD/svg11.dtd">
<!-- Creator: CorelDRAW X6 -->
<svg xmlns="http://www.w3.org/2000/svg" xml:space="preserve" width="200mm" height="200mm" version="1.1" shape-rendering="geometricPrecision" text-rendering="geometricPrecision" image-rendering="optimizeQuality" fill-rule="evenodd" clip-rule="evenodd"
viewBox="0 0 20000 20000"
 xmlns:xlink="http://www.w3.org/1999/xlink">
 <g id="Layer_x0020_1">
  <metadata id="CorelCorpID_0Corel-Layer"/>
  <g id="_825703536">
   <circle fill="none" stroke="black" stroke-width="52.92" stroke-linecap="round" stroke-linejoin="round" transform="matrix(1.50148E-014 -0.566926 0.566926 1.50148E-014 9000 9500)" r="529"/>
   <circle fill="none" stroke="black" stroke-width="52.92" stroke-linecap="round" stroke-linejoin="round" transform="matrix(1.50148E-014 -0.566926 0.566926 1.50148E-014 10500 9500)" r="529"/>
   <circle fill="none" stroke="black" stroke-width="52.92" stroke-linecap="round" stroke-linejoin="round" transform="matrix(1.50148E-014 -0.566926 0.566926 1.50148E-014 7500 9500)" r="529"/>
   <polygon fill="none" fill-rule="nonzero" stroke="blue" stroke-width="52.92" stroke-linecap="round" stroke-linejoin="round" points="11022,5278 7012,5278 7012,7766 11022,7766 "/>
   <path fill="none" fill-rule="nonzero" stroke="blue" stroke-width="52.92" stroke-linecap="round" stroke-linejoin="round" d="M8861 6508c0,-440 -356,-796 -796,-796 -440,0 -796,356 -796,796 0,440 357,796 796,796 440,0 796,-356 796,-796"/>
   <path fill="none" fill-rule="nonzero" stroke="blue" stroke-width="52.92" stroke-linecap="round" stroke-linejoin="round" d="M10717 6508c0,-440 -356,-796 -796,-796 -440,0 -796,356 -796,796 0,440 356,796 796,796 440,0 796,-356 796,-796"/>
   <path fill="none" fill-rule="nonzero" stroke="blue" stroke-width="52.92" stroke-linecap="round" stroke-linejoin="round" d="M9341 7307c0,184 -149,333 -333,333"/>
   <path fill="none" fill-rule="nonzero" stroke="blue" stroke-width="52.92" stroke-linecap="round" stroke-linejoin="round" d="M9008 7640c-184,0 -333,-149 -333,-333"/>
   <polygon fill="none" fill-rule="nonzero" stroke="blue" stroke-width="52.92" stroke-linecap="round" stroke-linejoin="round" points="6688,5685 6371,5685 6371,7766 6688,7766 "/>
   <polygon fill="none" fill-rule="nonzero" stroke="blue" stroke-width="52.92" stroke-linecap="round" stroke-linejoin="round" points="11636,5685 11319,5685 11319,7766 11636,7766 "/>
   <path fill="none" fill-rule="nonzero" stroke="blue" stroke-width="52.92" stroke-linecap="round" stroke-linejoin="round" d="M7839 5278c78,51 -120,252 -153,317 349,-50 698,-191 1038,-276 11,145 -61,284 -74,422 192,-40 411,-77 584,-176 91,-52 148,-88 245,-113 17,-4 -44,213 -50,228 175,15 375,-40 515,-150 79,-62 186,-160 237,-244 -8,11 -17,22 -25,32"/>
   <polygon fill="none" fill-rule="nonzero" stroke="blue" stroke-width="52.92" stroke-linecap="round" stroke-linejoin="round" points="9032,4328 9164,4596 9460,4639 9246,4848 9297,5143 9032,5003 8767,5143 8818,4848 8604,4639 8900,4596 "/>
   <polygon fill="none" fill-rule="nonzero" stroke="blue" stroke-width="52.92" stroke-linecap="round" stroke-linejoin="round" points="11035,8030 7012,8030 7012,8535 11035,8535 "/>
   <path fill="none" fill-rule="nonzero" stroke="blue" stroke-width="52.92" stroke-linecap="round" stroke-linejoin="round" d="M8175 6671c-79,57 -185,1 -200,-92 -20,-120 147,-186 224,-97 46,54 34,147 -24,188"/>
   <path fill="none" fill-rule="nonzero" stroke="blue" stroke-width="52.92" stroke-linecap="round" stroke-linejoin="round" d="M8099 6521c-5,-18 -23,-31 -48,-24 -49,13 -32,86 19,76 23,-4 34,-31 29,-51z"/>
   <path fill="none" fill-rule="nonzero" stroke="blue" stroke-width="52.92" stroke-linecap="round" stroke-linejoin="round" d="M10044 6602c-14,41 -45,77 -87,88 -92,25 -196,-77 -160,-171 29,-97 173,-115 231,-39 27,35 30,82 16,123"/>
   <path fill="none" fill-rule="nonzero" stroke="blue" stroke-width="52.92" stroke-linecap="round" stroke-linejoin="round" d="M9865 6499c13,-10 32,-13 45,-3 19,13 22,42 6,58 -12,13 -34,16 -49,6 -10,-6 -16,-17 -18,-29 -2,-13 4,-24 15,-32z"/>
   <path fill="none" stroke="black" stroke-width="52.92" stroke-linecap="round" stroke-linejoin="round" d="M10700 10200l-3400 0c-276,0 -500,-224 -500,-500l0 -400c0,-276 224,-500 500,-500l1213 0 0 -265 -1842 0c-166,0 -300,-134 -300,-300l0 -2766c0,-704 571,-1275 1275,-1275l2714 0c704,0 1275,571 1275,1275l0 2766c0,166 -134,300 -300,300l-1847 0 0 265 1213 0c276,0 500,224 500,500l0 400c0,276 -224,500 -500,500z"/>
  </g>
  <circle fill="none" stroke="black" stroke-width="52.92" stroke-linecap="round" stroke-linejoin="round" transform="matrix(7.50738E-015 -0.283463 0.283463 7.50738E-015 8250 9500)" r="529"/>
  <circle fill="none" stroke="black" stroke-width="52.92" stroke-linecap="round" stroke-linejoin="round" transform="matrix(7.50738E-015 -0.283463 0.283463 7.50738E-015 9750 9500)" r="529"/>
 </g>
</svg>
