  0
SECTION
  2
HEADER
  9
$ACADVER
  1
AC1021
  9
$ACADMAINTVER
 70
    25
  9
$DWGCODEPAGE
  3
ANSI_1252
  9
$INSBASE
 10
0.0
 20
0.0
 30
0.0
  9
$EXTMIN
 10
-15.06358
 20
-11.62954
 30
0.0
  9
$EXTMAX
 10
-4.93642
 20
-8.82852
 30
0.0
  9
$LIMMIN
 10
0.0
 20
0.0
  9
$LIMMAX
 10
12.0
 20
9.0
  9
$ORTHOMODE
 70
     0
  9
$REGENMODE
 70
     1
  9
$FILLMODE
 70
     1
  9
$QTEXTMODE
 70
     0
  9
$MIRRTEXT
 70
     1
  9
$LTSCALE
 40
1.0
  9
$ATTMODE
 70
     1
  9
$TEXTSIZE
 40
0.2
  9
$TRACEWID
 40
0.05
  9
$TEXTSTYLE
  7
Standard
  9
$CLAYER
  8
0
  9
$CELTYPE
  6
ByLayer
  9
$CECOLOR
 62
   256
  9
$CELTSCALE
 40
1.0
  9
$DISPSILH
 70
     0
  9
$DIMSCALE
 40
1.0
  9
$DIMASZ
 40
0.18
  9
$DIMEXO
 40
0.0625
  9
$DIMDLI
 40
0.38
  9
$DIMRND
 40
0.0
  9
$DIMDLE
 40
0.0
  9
$DIMEXE
 40
0.18
  9
$DIMTP
 40
0.0
  9
$DIMTM
 40
0.0
  9
$DIMTXT
 40
0.18
  9
$DIMCEN
 40
0.09
  9
$DIMTSZ
 40
0.0
  9
$DIMTOL
 70
     0
  9
$DIMLIM
 70
     0
  9
$DIMTIH
 70
     1
  9
$DIMTOH
 70
     1
  9
$DIMSE1
 70
     0
  9
$DIMSE2
 70
     0
  9
$DIMTAD
 70
     0
  9
$DIMZIN
 70
     0
  9
$DIMBLK
  1

  9
$DIMASO
 70
     1
  9
$DIMSHO
 70
     1
  9
$DIMPOST
  1

  9
$DIMAPOST
  1

  9
$DIMALT
 70
     0
  9
$DIMALTD
 70
     2
  9
$DIMALTF
 40
25.4
  9
$DIMLFAC
 40
1.0
  9
$DIMTOFL
 70
     0
  9
$DIMTVP
 40
0.0
  9
$DIMTIX
 70
     0
  9
$DIMSOXD
 70
     0
  9
$DIMSAH
 70
     0
  9
$DIMBLK1
  1

  9
$DIMBLK2
  1

  9
$DIMSTYLE
  2
Standard
  9
$DIMCLRD
 70
     0
  9
$DIMCLRE
 70
     0
  9
$DIMCLRT
 70
     0
  9
$DIMTFAC
 40
1.0
  9
$DIMGAP
 40
0.09
  9
$DIMJUST
 70
     0
  9
$DIMSD1
 70
     0
  9
$DIMSD2
 70
     0
  9
$DIMTOLJ
 70
     1
  9
$DIMTZIN
 70
     0
  9
$DIMALTZ
 70
     0
  9
$DIMALTTZ
 70
     0
  9
$DIMUPT
 70
     0
  9
$DIMDEC
 70
     4
  9
$DIMTDEC
 70
     4
  9
$DIMALTU
 70
     2
  9
$DIMALTTD
 70
     2
  9
$DIMTXSTY
  7
Standard
  9
$DIMAUNIT
 70
     0
  9
$DIMADEC
 70
     0
  9
$DIMALTRND
 40
0.0
  9
$DIMAZIN
 70
     0
  9
$DIMDSEP
 70
    46
  9
$DIMATFIT
 70
     3
  9
$DIMFRAC
 70
     0
  9
$DIMLDRBLK
  1

  9
$DIMLUNIT
 70
     2
  9
$DIMLWD
 70
    -2
  9
$DIMLWE
 70
    -2
  9
$DIMTMOVE
 70
     0
  9
$DIMFXL
 40
1.0
  9
$DIMFXLON
 70
     0
  9
$DIMJOGANG
 40
0.7853981633974483
  9
$DIMTFILL
 70
     0
  9
$DIMTFILLCLR
 70
     0
  9
$DIMARCSYM
 70
     0
  9
$DIMLTYPE
  6

  9
$DIMLTEX1
  6

  9
$DIMLTEX2
  6

  9
$LUNITS
 70
     2
  9
$LUPREC
 70
     4
  9
$SKETCHINC
 40
0.1
  9
$FILLETRAD
 40
0.5
  9
$AUNITS
 70
     0
  9
$AUPREC
 70
     0
  9
$MENU
  1
.
  9
$ELEVATION
 40
0.0
  9
$PELEVATION
 40
0.0
  9
$THICKNESS
 40
0.0
  9
$LIMCHECK
 70
     0
  9
$CHAMFERA
 40
0.5
  9
$CHAMFERB
 40
0.5
  9
$CHAMFERC
 40
1.0
  9
$CHAMFERD
 40
0.0
  9
$SKPOLY
 70
     0
  9
$TDCREATE
 40
2460554.775616991
  9
$TDUCREATE
 40
2460554.733950324
  9
$TDUPDATE
 40
2460554.775617025
  9
$TDUUPDATE
 40
2460554.733950359
  9
$TDINDWG
 40
0.0000000116
  9
$TDUSRTIMER
 40
0.0000000116
  9
$USRTIMER
 70
     1
  9
$ANGBASE
 50
0.0
  9
$ANGDIR
 70
     0
  9
$PDMODE
 70
     0
  9
$PDSIZE
 40
0.0
  9
$PLINEWID
 40
0.0
  9
$SPLFRAME
 70
     0
  9
$SPLINETYPE
 70
     6
  9
$SPLINESEGS
 70
     8
  9
$HANDSEED
  5
6B
  9
$SURFTAB1
 70
     6
  9
$SURFTAB2
 70
     6
  9
$SURFTYPE
 70
     6
  9
$SURFU
 70
     6
  9
$SURFV
 70
     6
  9
$UCSBASE
  2

  9
$UCSNAME
  2

  9
$UCSORG
 10
0.0
 20
0.0
 30
0.0
  9
$UCSXDIR
 10
1.0
 20
0.0
 30
0.0
  9
$UCSYDIR
 10
0.0
 20
1.0
 30
0.0
  9
$UCSORTHOREF
  2

  9
$UCSORTHOVIEW
 70
     0
  9
$UCSORGTOP
 10
0.0
 20
0.0
 30
0.0
  9
$UCSORGBOTTOM
 10
0.0
 20
0.0
 30
0.0
  9
$UCSORGLEFT
 10
0.0
 20
0.0
 30
0.0
  9
$UCSORGRIGHT
 10
0.0
 20
0.0
 30
0.0
  9
$UCSORGFRONT
 10
0.0
 20
0.0
 30
0.0
  9
$UCSORGBACK
 10
0.0
 20
0.0
 30
0.0
  9
$PUCSBASE
  2

  9
$PUCSNAME
  2

  9
$PUCSORG
 10
0.0
 20
0.0
 30
0.0
  9
$PUCSXDIR
 10
1.0
 20
0.0
 30
0.0
  9
$PUCSYDIR
 10
0.0
 20
1.0
 30
0.0
  9
$PUCSORTHOREF
  2

  9
$PUCSORTHOVIEW
 70
     0
  9
$PUCSORGTOP
 10
0.0
 20
0.0
 30
0.0
  9
$PUCSORGBOTTOM
 10
0.0
 20
0.0
 30
0.0
  9
$PUCSORGLEFT
 10
0.0
 20
0.0
 30
0.0
  9
$PUCSORGRIGHT
 10
0.0
 20
0.0
 30
0.0
  9
$PUCSORGFRONT
 10
0.0
 20
0.0
 30
0.0
  9
$PUCSORGBACK
 10
0.0
 20
0.0
 30
0.0
  9
$USERI1
 70
     0
  9
$USERI2
 70
     0
  9
$USERI3
 70
     0
  9
$USERI4
 70
     0
  9
$USERI5
 70
     0
  9
$USERR1
 40
0.0
  9
$USERR2
 40
0.0
  9
$USERR3
 40
0.0
  9
$USERR4
 40
0.0
  9
$USERR5
 40
0.0
  9
$WORLDVIEW
 70
     1
  9
$SHADEDGE
 70
     3
  9
$SHADEDIF
 70
    70
  9
$TILEMODE
 70
     1
  9
$MAXACTVP
 70
    64
  9
$PINSBASE
 10
0.0
 20
0.0
 30
0.0
  9
$PLIMCHECK
 70
     0
  9
$PEXTMIN
 10
1.000000000000000E+20
 20
1.000000000000000E+20
 30
1.000000000000000E+20
  9
$PEXTMAX
 10
-1.000000000000000E+20
 20
-1.000000000000000E+20
 30
-1.000000000000000E+20
  9
$PLIMMIN
 10
0.0
 20
0.0
  9
$PLIMMAX
 10
12.0
 20
9.0
  9
$UNITMODE
 70
     0
  9
$VISRETAIN
 70
     1
  9
$PLINEGEN
 70
     0
  9
$PSLTSCALE
 70
     1
  9
$TREEDEPTH
 70
  3020
  9
$CMLSTYLE
  2
Standard
  9
$CMLJUST
 70
     0
  9
$CMLSCALE
 40
1.0
  9
$PROXYGRAPHICS
 70
     1
  9
$MEASUREMENT
 70
     0
  9
$CELWEIGHT
370
    -1
  9
$ENDCAPS
280
     0
  9
$JOINSTYLE
280
     0
  9
$LWDISPLAY
290
     0
  9
$INSUNITS
 70
     5
  9
$HYPERLINKBASE
  1

  9
$STYLESHEET
  1

  9
$XEDIT
290
     1
  9
$CEPSNTYPE
380
     0
  9
$PSTYLEMODE
290
     1
  9
$FINGERPRINTGUID
  2
{B69776C2-0838-4B9F-BBBF-2E1844AF9C39}
  9
$VERSIONGUID
  2
{FAEB1C32-E019-11D5-929B-00C0DF256EC4}
  9
$EXTNAMES
290
     1
  9
$PSVPSCALE
 40
0.0
  9
$OLESTARTUP
290
     0
  9
$SORTENTS
280
   127
  9
$INDEXCTL
280
     0
  9
$HIDETEXT
280
     1
  9
$XCLIPFRAME
290
     0
  9
$HALOGAP
280
     0
  9
$OBSCOLOR
 70
   257
  9
$OBSLTYPE
280
     0
  9
$INTERSECTIONDISPLAY
280
     0
  9
$INTERSECTIONCOLOR
 70
   257
  9
$DIMASSOC
280
     2
  9
$PROJECTNAME
  1

  9
$CAMERADISPLAY
290
     0
  9
$LENSLENGTH
 40
50.0
  9
$CAMERAHEIGHT
 40
0.0
  9
$STEPSPERSEC
 40
2.0
  9
$STEPSIZE
 40
6.0
  9
$3DDWFPREC
 40
2.0
  9
$PSOLWIDTH
 40
0.25
  9
$PSOLHEIGHT
 40
4.0
  9
$LOFTANG1
 40
1.570796326794897
  9
$LOFTANG2
 40
1.570796326794897
  9
$LOFTMAG1
 40
0.0
  9
$LOFTMAG2
 40
0.0
  9
$LOFTPARAM
 70
     7
  9
$LOFTNORMALS
280
     1
  9
$LATITUDE
 40
37.795
  9
$LONGITUDE
 40
-122.394
  9
$NORTHDIRECTION
 40
0.0
  9
$TIMEZONE
 70
 -8000
  9
$LIGHTGLYPHDISPLAY
280
     1
  9
$TILEMODELIGHTSYNCH
280
     1
  9
$SOLIDHIST
280
     1
  9
$SHOWHIST
280
     1
  9
$DWFFRAME
280
     2
  9
$DGNFRAME
280
     2
  9
$REALWORLDSCALE
290
     1
  9
$INTERFERECOLOR
 62
   256
  9
$CSHADOW
280
     0
  9
$SHADOWPLANELOCATION
 40
0.0
  0
ENDSEC
  0
SECTION
  2
CLASSES
  0
CLASS
  1
ACDBDICTIONARYWDFLT
  2
AcDbDictionaryWithDefault
  3
ObjectDBX Classes
 90
        0
 91
        4
280
     0
281
     0
  0
CLASS
  1
VISUALSTYLE
  2
AcDbVisualStyle
  3
ObjectDBX Classes
 90
     4095
 91
        4
280
     0
281
     0
  0
CLASS
  1
MATERIAL
  2
AcDbMaterial
  3
ObjectDBX Classes
 90
     1153
 91
        4
280
     0
281
     0
  0
ENDSEC
  0
SECTION
  2
TABLES
  0
TABLE
  2
VPORT
  5
8
330
0
100
AcDbSymbolTable
 70
     1
  0
VPORT
  5
29
330
8
100
AcDbSymbolTableRecord
100
AcDbViewportTableRecord
  2
*Active
 70
     0
 10
0.0
 20
0.0
 11
1.0
 21
1.0
 12
10.42990654205607
 22
4.5
 13
0.0
 23
0.0
 14
0.5
 24
0.5
 15
0.5
 25
0.5
 16
0.0
 26
0.0
 36
1.0
 17
0.0
 27
0.0
 37
0.0
 40
9.0
 41
1.972972972850329
 42
50.0
 43
0.0
 44
0.0
 50
0.0
 51
0.0
 71
     0
 72
   100
 73
     1
 74
     3
 75
     0
 76
     0
 77
     0
 78
     0
281
     0
 65
     1
110
0.0
120
0.0
130
0.0
111
1.0
121
0.0
131
0.0
112
0.0
122
1.0
132
0.0
 79
     0
146
0.0
 60
     3
 61
     5
292
     1
282
     1
141
0.0
142
0.0
 63
   250
  0
ENDTAB
  0
TABLE
  2
LTYPE
  5
5
330
0
100
AcDbSymbolTable
 70
     1
  0
LTYPE
  5
14
330
5
100
AcDbSymbolTableRecord
100
AcDbLinetypeTableRecord
  2
ByBlock
 70
     0
  3

 72
    65
 73
     0
 40
0.0
  0
LTYPE
  5
15
330
5
100
AcDbSymbolTableRecord
100
AcDbLinetypeTableRecord
  2
ByLayer
 70
     0
  3

 72
    65
 73
     0
 40
0.0
  0
LTYPE
  5
16
330
5
100
AcDbSymbolTableRecord
100
AcDbLinetypeTableRecord
  2
Continuous
 70
     0
  3
Solid line
 72
    65
 73
     0
 40
0.0
  0
ENDTAB
  0
TABLE
  2
LAYER
  5
2
330
0
100
AcDbSymbolTable
 70
     2
  0
LAYER
  5
10
330
2
100
AcDbSymbolTableRecord
100
AcDbLayerTableRecord
  2
0
 70
     0
 62
     7
  6
Continuous
370
    -3
390
F
347
3E
  0
LAYER
  5
40
330
2
100
AcDbSymbolTableRecord
100
AcDbLayerTableRecord
  2
Layer 1
 70
     0
 62
     7
  6
Continuous
370
    -3
390
F
347
3E
  0
ENDTAB
  0
TABLE
  2
STYLE
  5
3
330
0
100
AcDbSymbolTable
 70
     1
  0
STYLE
  5
11
330
3
100
AcDbSymbolTableRecord
100
AcDbTextStyleTableRecord
  2
Standard
 70
     0
 40
0.0
 41
1.0
 50
0.0
 71
     0
 42
0.2
  3
txt
  4

  0
ENDTAB
  0
TABLE
  2
VIEW
  5
6
330
0
100
AcDbSymbolTable
 70
     0
  0
ENDTAB
  0
TABLE
  2
UCS
  5
7
330
0
100
AcDbSymbolTable
 70
     0
  0
ENDTAB
  0
TABLE
  2
APPID
  5
9
330
0
100
AcDbSymbolTable
 70
     2
  0
APPID
  5
12
330
9
100
AcDbSymbolTableRecord
100
AcDbRegAppTableRecord
  2
ACAD
 70
     0
  0
APPID
  5
3F
330
9
100
AcDbSymbolTableRecord
100
AcDbRegAppTableRecord
  2
ODA
 70
     0
  0
ENDTAB
  0
TABLE
  2
DIMSTYLE
  5
A
330
0
100
AcDbSymbolTable
 70
     1
100
AcDbDimStyleTable
  0
DIMSTYLE
105
27
330
A
100
AcDbSymbolTableRecord
100
AcDbDimStyleTableRecord
  2
Standard
 70
     0
178
     0
340
11
  0
ENDTAB
  0
TABLE
  2
BLOCK_RECORD
  5
1
330
0
100
AcDbSymbolTable
 70
     1
  0
BLOCK_RECORD
  5
1F
330
1
100
AcDbSymbolTableRecord
100
AcDbBlockTableRecord
  2
*Model_Space
340
22
 70
     0
280
     1
281
     0
  0
BLOCK_RECORD
  5
1B
330
1
100
AcDbSymbolTableRecord
100
AcDbBlockTableRecord
  2
*Paper_Space
340
1E
 70
     0
280
     1
281
     0
  0
BLOCK_RECORD
  5
23
330
1
100
AcDbSymbolTableRecord
100
AcDbBlockTableRecord
  2
*Paper_Space0
340
26
 70
     0
280
     1
281
     0
  0
ENDTAB
  0
ENDSEC
  0
SECTION
  2
BLOCKS
  0
BLOCK
  5
20
330
1F
100
AcDbEntity
  8
0
100
AcDbBlockBegin
  2
*Model_Space
 70
     0
 10
0.0
 20
0.0
 30
0.0
  3
*Model_Space
  1

  0
ENDBLK
  5
21
330
1F
100
AcDbEntity
  8
0
100
AcDbBlockEnd
  0
BLOCK
  5
1C
330
1B
100
AcDbEntity
 67
     1
  8
0
100
AcDbBlockBegin
  2
*Paper_Space
 70
     0
 10
0.0
 20
0.0
 30
0.0
  3
*Paper_Space
  1

  0
ENDBLK
  5
1D
330
1B
100
AcDbEntity
 67
     1
  8
0
100
AcDbBlockEnd
  0
BLOCK
  5
24
330
23
100
AcDbEntity
  8
0
100
AcDbBlockBegin
  2
*Paper_Space0
 70
     0
 10
0.0
 20
0.0
 30
0.0
  3
*Paper_Space0
  1

  0
ENDBLK
  5
25
330
23
100
AcDbEntity
  8
0
100
AcDbBlockEnd
  0
ENDSEC
  0
SECTION
  2
ENTITIES
  0
SPLINE
  5
41
330
1F
100
AcDbEntity
  8
Layer 1
 62
     5
100
AcDbSpline
210
0.0
220
0.0
230
1.0
 70
    11
 71
     3
 72
   104
 73
   100
 74
     0
 42
0.0000000001
 43
0.0000000001
 12
1.0
 22
0.0
 32
0.0
 13
1.0
 23
0.0
 33
0.0
 40
0.0
 40
0.0
 40
0.0
 40
0.0
 40
0.0384615384615385
 40
0.0384615384615385
 40
0.0384615384615385
 40
0.0384615384615385
 40
0.0769230769230769
 40
0.0769230769230769
 40
0.0769230769230769
 40
0.0769230769230769
 40
0.1153846153846154
 40
0.1153846153846154
 40
0.1153846153846154
 40
0.1153846153846154
 40
0.1538461538461539
 40
0.1538461538461539
 40
0.1538461538461539
 40
0.1538461538461539
 40
0.1923076923076923
 40
0.1923076923076923
 40
0.1923076923076923
 40
0.1923076923076923
 40
0.2307692307692308
 40
0.2307692307692308
 40
0.2307692307692308
 40
0.2307692307692308
 40
0.2692307692307692
 40
0.2692307692307692
 40
0.2692307692307692
 40
0.2692307692307692
 40
0.3076923076923077
 40
0.3076923076923077
 40
0.3076923076923077
 40
0.3076923076923077
 40
0.3461538461538461
 40
0.3461538461538461
 40
0.3461538461538461
 40
0.3461538461538461
 40
0.3846153846153846
 40
0.3846153846153846
 40
0.3846153846153846
 40
0.3846153846153846
 40
0.4230769230769231
 40
0.4230769230769231
 40
0.4230769230769231
 40
0.4230769230769231
 40
0.4615384615384616
 40
0.4615384615384616
 40
0.4615384615384616
 40
0.4615384615384616
 40
0.5
 40
0.5
 40
0.5
 40
0.5
 40
0.5384615384615384
 40
0.5384615384615384
 40
0.5384615384615384
 40
0.5384615384615384
 40
0.5769230769230769
 40
0.5769230769230769
 40
0.5769230769230769
 40
0.5769230769230769
 40
0.6153846153846154
 40
0.6153846153846154
 40
0.6153846153846154
 40
0.6153846153846154
 40
0.6538461538461539
 40
0.6538461538461539
 40
0.6538461538461539
 40
0.6538461538461539
 40
0.6923076923076923
 40
0.6923076923076923
 40
0.6923076923076923
 40
0.6923076923076923
 40
0.7307692307692307
 40
0.7307692307692307
 40
0.7307692307692307
 40
0.7307692307692307
 40
0.7692307692307693
 40
0.7692307692307693
 40
0.7692307692307693
 40
0.7692307692307693
 40
0.8076923076923077
 40
0.8076923076923077
 40
0.8076923076923077
 40
0.8076923076923077
 40
0.8461538461538461
 40
0.8461538461538461
 40
0.8461538461538461
 40
0.8461538461538461
 40
0.8846153846153846
 40
0.8846153846153846
 40
0.8846153846153846
 40
0.8846153846153846
 40
0.9230769230769231
 40
0.9230769230769231
 40
0.9230769230769231
 40
0.9230769230769231
 40
1.0
 40
1.0
 40
1.0
 40
1.0
 10
-5.41919
 20
-8.8291
 30
0.0
 10
-5.41919
 20
-8.8291
 30
0.0
 10
-5.40086
 20
-8.83249
 30
0.0
 10
-5.40086
 20
-8.83249
 30
0.0
 10
-5.40086
 20
-8.83249
 30
0.0
 10
-5.36359
 20
-8.83939
 30
0.0
 10
-5.32652
 20
-8.84626
 30
0.0
 10
-5.29223
 20
-8.8524
 30
0.0
 10
-5.29223
 20
-8.8524
 30
0.0
 10
-5.29223
 20
-8.8524
 30
0.0
 10
-5.29216
 20
-8.85241
 30
0.0
 10
-5.29216
 20
-8.85241
 30
0.0
 10
-5.29216
 20
-8.85241
 30
0.0
 10
-5.29216
 20
-8.85241
 30
0.0
 10
-5.29216
 20
-8.8524
 30
0.0
 10
-5.29216
 20
-8.8524
 30
0.0
 10
-5.29216
 20
-8.8524
 30
0.0
 10
-5.27232
 20
-8.8561
 30
0.0
 10
-5.25224
 20
-8.85988
 30
0.0
 10
-5.23329
 20
-8.86502
 30
0.0
 10
-5.23329
 20
-8.86502
 30
0.0
 10
-5.21331
 20
-8.87045
 30
0.0
 10
-5.19371
 20
-8.87756
 30
0.0
 10
-5.17512
 20
-8.88794
 30
0.0
 10
-5.17512
 20
-8.88794
 30
0.0
 10
-5.17512
 20
-8.88794
 30
0.0
 10
-5.17499
 20
-8.88802
 30
0.0
 10
-5.17499
 20
-8.88802
 30
0.0
 10
-5.17499
 20
-8.88802
 30
0.0
 10
-5.17499
 20
-8.88802
 30
0.0
 10
-5.17498
 20
-8.88801
 30
0.0
 10
-5.17498
 20
-8.88801
 30
0.0
 10
-5.17498
 20
-8.88801
 30
0.0
 10
-5.15496
 20
-8.89944
 30
0.0
 10
-5.13662
 20
-8.91544
 30
0.0
 10
-5.12342
 20
-8.93441
 30
0.0
 10
-5.12342
 20
-8.93441
 30
0.0
 10
-5.11112
 20
-8.95208
 30
0.0
 10
-5.10314
 20
-8.97247
 30
0.0
 10
-5.10207
 20
-8.99442
 30
0.0
 10
-5.10207
 20
-8.99442
 30
0.0
 10
-5.10207
 20
-8.99442
 30
0.0
 10
-5.10206
 20
-8.99442
 30
0.0
 10
-5.10206
 20
-8.99442
 30
0.0
 10
-5.10206
 20
-8.99442
 30
0.0
 10
-5.10139
 20
-9.00641
 30
0.0
 10
-5.10299
 20
-9.0187
 30
0.0
 10
-5.10701
 20
-9.03
 30
0.0
 10
-5.10701
 20
-9.03
 30
0.0
 10
-5.11092
 20
-9.04098
 30
0.0
 10
-5.11712
 20
-9.05116
 30
0.0
 10
-5.1257
 20
-9.0594
 30
0.0
 10
-5.1257
 20
-9.0594
 30
0.0
 10
-5.1257
 20
-9.0594
 30
0.0
 10
-5.12606
 20
-9.05973
 30
0.0
 10
-5.12606
 20
-9.05973
 30
0.0
 10
-5.12606
 20
-9.05973
 30
0.0
 10
-5.12606
 20
-9.05973
 30
0.0
 10
-5.12605
 20
-9.05974
 30
0.0
 10
-5.12605
 20
-9.05974
 30
0.0
 10
-5.12605
 20
-9.05974
 30
0.0
 10
-5.13182
 20
-9.06499
 30
0.0
 10
-5.13817
 20
-9.06914
 30
0.0
 10
-5.14475
 20
-9.07257
 30
0.0
 10
-5.14475
 20
-9.07257
 30
0.0
 10
-5.15059
 20
-9.07561
 30
0.0
 10
-5.15703
 20
-9.07824
 30
0.0
 10
-5.16353
 20
-9.08065
 30
0.0
 10
-5.16353
 20
-9.08065
 30
0.0
 10
-5.20494
 20
-9.09606
 30
0.0
 10
-5.24789
 20
-9.10464
 30
0.0
 10
-5.29134
 20
-9.1097
 30
0.0
 10
-5.29134
 20
-9.1097
 30
0.0
 10
-5.33383
 20
-9.11464
 30
0.0
 10
-5.37738
 20
-9.11626
 30
0.0
 10
-5.42046
 20
-9.11772
 30
0.0
 10
-5.42046
 20
-9.11772
 30
0.0
 10
-5.42972
 20
-9.11801
 30
0.0
 10
-5.43754
 20
-9.11108
 30
0.0
 10
-5.43849
 20
-9.10201
 30
0.0
 10
-5.43849
 20
-9.10201
 30
0.0
 10
-5.43849
 20
-9.10201
 30
0.0
 10
-5.43851
 20
-9.10201
 30
0.0
 10
-5.43851
 20
-9.10201
 30
0.0
 10
-5.43851
 20
-9.10201
 30
0.0
 10
-5.44302
 20
-9.05973
 30
0.0
 10
-5.4455
 20
-9.01693
 30
0.0
 10
-5.44594
 20
-8.9739
 30
0.0
 10
-5.44594
 20
-8.9739
 30
0.0
 10
-5.44638
 20
-8.93044
 30
0.0
 10
-5.4448
 20
-8.88729
 30
0.0
 10
-5.44121
 20
-8.84471
 30
0.0
 10
-5.44121
 20
-8.84471
 30
0.0
 10
-5.44041
 20
-8.83501
 30
0.0
 10
-5.43189
 20
-8.82779
 30
0.0
 10
-5.42219
 20
-8.82859
 30
0.0
 10
-5.42219
 20
-8.82859
 30
0.0
 10
-5.42116
 20
-8.82867
 30
0.0
 10
-5.42016
 20
-8.82885
 30
0.0
 10
-5.41919
 20
-8.8291
 30
0.0
  0
SPLINE
  5
42
330
1F
100
AcDbEntity
  8
Layer 1
 62
     5
100
AcDbSpline
210
0.0
220
0.0
230
1.0
 70
    11
 71
     3
 72
   128
 73
   124
 74
     0
 42
0.0000000001
 43
0.0000000001
 12
1.0
 22
0.0
 32
0.0
 13
1.0
 23
0.0
 33
0.0
 40
0.0
 40
0.0
 40
0.0
 40
0.0
 40
0.03125
 40
0.03125
 40
0.03125
 40
0.03125
 40
0.0625
 40
0.0625
 40
0.0625
 40
0.0625
 40
0.09375
 40
0.09375
 40
0.09375
 40
0.09375
 40
0.125
 40
0.125
 40
0.125
 40
0.125
 40
0.15625
 40
0.15625
 40
0.15625
 40
0.15625
 40
0.1875
 40
0.1875
 40
0.1875
 40
0.1875
 40
0.21875
 40
0.21875
 40
0.21875
 40
0.21875
 40
0.25
 40
0.25
 40
0.25
 40
0.25
 40
0.28125
 40
0.28125
 40
0.28125
 40
0.28125
 40
0.3125
 40
0.3125
 40
0.3125
 40
0.3125
 40
0.34375
 40
0.34375
 40
0.34375
 40
0.34375
 40
0.375
 40
0.375
 40
0.375
 40
0.375
 40
0.40625
 40
0.40625
 40
0.40625
 40
0.40625
 40
0.4375
 40
0.4375
 40
0.4375
 40
0.4375
 40
0.46875
 40
0.46875
 40
0.46875
 40
0.46875
 40
0.5
 40
0.5
 40
0.5
 40
0.5
 40
0.53125
 40
0.53125
 40
0.53125
 40
0.53125
 40
0.5625
 40
0.5625
 40
0.5625
 40
0.5625
 40
0.59375
 40
0.59375
 40
0.59375
 40
0.59375
 40
0.625
 40
0.625
 40
0.625
 40
0.625
 40
0.65625
 40
0.65625
 40
0.65625
 40
0.65625
 40
0.6875
 40
0.6875
 40
0.6875
 40
0.6875
 40
0.71875
 40
0.71875
 40
0.71875
 40
0.71875
 40
0.75
 40
0.75
 40
0.75
 40
0.75
 40
0.78125
 40
0.78125
 40
0.78125
 40
0.78125
 40
0.8125
 40
0.8125
 40
0.8125
 40
0.8125
 40
0.84375
 40
0.84375
 40
0.84375
 40
0.84375
 40
0.875
 40
0.875
 40
0.875
 40
0.875
 40
0.90625
 40
0.90625
 40
0.90625
 40
0.90625
 40
0.9375
 40
0.9375
 40
0.9375
 40
0.9375
 40
1.0
 40
1.0
 40
1.0
 40
1.0
 10
-5.35271
 20
-9.7064
 30
0.0
 10
-5.35271
 20
-9.7064
 30
0.0
 10
-5.35229
 20
-9.70606
 30
0.0
 10
-5.35229
 20
-9.70606
 30
0.0
 10
-5.35229
 20
-9.70606
 30
0.0
 10
-5.35229
 20
-9.70606
 30
0.0
 10
-5.35129
 20
-9.70531
 30
0.0
 10
-5.35129
 20
-9.70531
 30
0.0
 10
-5.35129
 20
-9.70531
 30
0.0
 10
-5.35129
 20
-9.70531
 30
0.0
 10
-5.35091
 20
-9.70505
 30
0.0
 10
-5.35091
 20
-9.70505
 30
0.0
 10
-5.35091
 20
-9.70505
 30
0.0
 10
-5.35091
 20
-9.70505
 30
0.0
 10
-5.35076
 20
-9.70496
 30
0.0
 10
-5.35076
 20
-9.70496
 30
0.0
 10
-5.35076
 20
-9.70496
 30
0.0
 10
-5.35076
 20
-9.70496
 30
0.0
 10
-5.35042
 20
-9.70475
 30
0.0
 10
-5.35042
 20
-9.70475
 30
0.0
 10
-5.35042
 20
-9.70475
 30
0.0
 10
-5.34883
 20
-9.70379
 30
0.0
 10
-5.34708
 20
-9.70308
 30
0.0
 10
-5.34522
 20
-9.70266
 30
0.0
 10
-5.34522
 20
-9.70266
 30
0.0
 10
-5.30712
 20
-9.69286
 30
0.0
 10
-5.26828
 20
-9.68606
 30
0.0
 10
-5.22925
 20
-9.6823
 30
0.0
 10
-5.22925
 20
-9.6823
 30
0.0
 10
-5.18978
 20
-9.67848
 30
0.0
 10
-5.1501
 20
-9.67772
 30
0.0
 10
-5.11074
 20
-9.68001
 30
0.0
 10
-5.11074
 20
-9.68001
 30
0.0
 10
-5.11074
 20
-9.68001
 30
0.0
 10
-5.11067
 20
-9.68001
 30
0.0
 10
-5.11067
 20
-9.68001
 30
0.0
 10
-5.11067
 20
-9.68001
 30
0.0
 10
-5.08952
 20
-9.68125
 30
0.0
 10
-5.06772
 20
-9.68365
 30
0.0
 10
-5.04673
 20
-9.68909
 30
0.0
 10
-5.04673
 20
-9.68909
 30
0.0
 10
-5.02497
 20
-9.69474
 30
0.0
 10
-5.00425
 20
-9.70368
 30
0.0
 10
-4.98624
 20
-9.71793
 30
0.0
 10
-4.98624
 20
-9.71793
 30
0.0
 10
-4.98624
 20
-9.71793
 30
0.0
 10
-4.98612
 20
-9.71803
 30
0.0
 10
-4.98612
 20
-9.71803
 30
0.0
 10
-4.98612
 20
-9.71803
 30
0.0
 10
-4.98612
 20
-9.71803
 30
0.0
 10
-4.9861
 20
-9.718
 30
0.0
 10
-4.9861
 20
-9.718
 30
0.0
 10
-4.9861
 20
-9.718
 30
0.0
 10
-4.96659
 20
-9.73373
 30
0.0
 10
-4.95237
 20
-9.75731
 30
0.0
 10
-4.94728
 20
-9.78171
 30
0.0
 10
-4.94728
 20
-9.78171
 30
0.0
 10
-4.94237
 20
-9.80527
 30
0.0
 10
-4.94574
 20
-9.82989
 30
0.0
 10
-4.96053
 20
-9.84988
 30
0.0
 10
-4.96053
 20
-9.84988
 30
0.0
 10
-4.96709
 20
-9.85876
 30
0.0
 10
-4.97531
 20
-9.86588
 30
0.0
 10
-4.98424
 20
-9.87194
 30
0.0
 10
-4.98424
 20
-9.87194
 30
0.0
 10
-4.9925
 20
-9.87753
 30
0.0
 10
-5.00119
 20
-9.8821
 30
0.0
 10
-5.00966
 20
-9.88633
 30
0.0
 10
-5.00966
 20
-9.88633
 30
0.0
 10
-5.00966
 20
-9.88633
 30
0.0
 10
-5.00974
 20
-9.88637
 30
0.0
 10
-5.00974
 20
-9.88637
 30
0.0
 10
-5.00974
 20
-9.88637
 30
0.0
 10
-5.00974
 20
-9.88637
 30
0.0
 10
-5.00973
 20
-9.8864
 30
0.0
 10
-5.00973
 20
-9.8864
 30
0.0
 10
-5.00973
 20
-9.8864
 30
0.0
 10
-5.05777
 20
-9.91015
 30
0.0
 10
-5.10818
 20
-9.92929
 30
0.0
 10
-5.16002
 20
-9.94351
 30
0.0
 10
-5.16002
 20
-9.94351
 30
0.0
 10
-5.21179
 20
-9.9577
 30
0.0
 10
-5.26479
 20
-9.96697
 30
0.0
 10
-5.31808
 20
-9.971
 30
0.0
 10
-5.31808
 20
-9.971
 30
0.0
 10
-5.31884
 20
-9.97105
 30
0.0
 10
-5.31959
 20
-9.97105
 30
0.0
 10
-5.32033
 20
-9.97102
 30
0.0
 10
-5.32033
 20
-9.97102
 30
0.0
 10
-5.32443
 20
-9.97111
 30
0.0
 10
-5.32889
 20
-9.97105
 30
0.0
 10
-5.33452
 20
-9.96732
 30
0.0
 10
-5.33452
 20
-9.96732
 30
0.0
 10
-5.33452
 20
-9.96732
 30
0.0
 10
-5.33453
 20
-9.96733
 30
0.0
 10
-5.33453
 20
-9.96733
 30
0.0
 10
-5.33453
 20
-9.96733
 30
0.0
 10
-5.33947
 20
-9.96425
 30
0.0
 10
-5.3423
 20
-9.96002
 30
0.0
 10
-5.34396
 20
-9.95529
 30
0.0
 10
-5.34396
 20
-9.95529
 30
0.0
 10
-5.34396
 20
-9.95529
 30
0.0
 10
-5.34398
 20
-9.9553
 30
0.0
 10
-5.34398
 20
-9.9553
 30
0.0
 10
-5.34398
 20
-9.9553
 30
0.0
 10
-5.34487
 20
-9.95276
 30
0.0
 10
-5.3453
 20
-9.95025
 30
0.0
 10
-5.34555
 20
-9.94791
 30
0.0
 10
-5.34555
 20
-9.94791
 30
0.0
 10
-5.35079
 20
-9.91003
 30
0.0
 10
-5.35456
 20
-9.8719
 30
0.0
 10
-5.3568
 20
-9.83372
 30
0.0
 10
-5.3568
 20
-9.83372
 30
0.0
 10
-5.3568
 20
-9.83372
 30
0.0
 10
-5.35681
 20
-9.83339
 30
0.0
 10
-5.35681
 20
-9.83339
 30
0.0
 10
-5.35681
 20
-9.83339
 30
0.0
 10
-5.359
 20
-9.79568
 30
0.0
 10
-5.35973
 20
-9.75762
 30
0.0
 10
-5.35892
 20
-9.71946
 30
0.0
 10
-5.35892
 20
-9.71946
 30
0.0
 10
-5.35882
 20
-9.71421
 30
0.0
 10
-5.35643
 20
-9.70955
 30
0.0
 10
-5.35271
 20
-9.7064
 30
0.0
  0
SPLINE
  5
43
330
1F
100
AcDbEntity
  8
Layer 1
 62
     5
100
AcDbSpline
210
0.0
220
0.0
230
1.0
 70
    11
 71
     3
 72
    96
 73
    92
 74
     0
 42
0.0000000001
 43
0.0000000001
 12
1.0
 22
0.0
 32
0.0
 13
1.0
 23
0.0
 33
0.0
 40
0.0
 40
0.0
 40
0.0
 40
0.0
 40
0.0416666666666667
 40
0.0416666666666667
 40
0.0416666666666667
 40
0.0416666666666667
 40
0.0833333333333333
 40
0.0833333333333333
 40
0.0833333333333333
 40
0.0833333333333333
 40
0.125
 40
0.125
 40
0.125
 40
0.125
 40
0.1666666666666667
 40
0.1666666666666667
 40
0.1666666666666667
 40
0.1666666666666667
 40
0.2083333333333333
 40
0.2083333333333333
 40
0.2083333333333333
 40
0.2083333333333333
 40
0.25
 40
0.25
 40
0.25
 40
0.25
 40
0.2916666666666667
 40
0.2916666666666667
 40
0.2916666666666667
 40
0.2916666666666667
 40
0.3333333333333333
 40
0.3333333333333333
 40
0.3333333333333333
 40
0.3333333333333333
 40
0.375
 40
0.375
 40
0.375
 40
0.375
 40
0.4166666666666667
 40
0.4166666666666667
 40
0.4166666666666667
 40
0.4166666666666667
 40
0.4583333333333333
 40
0.4583333333333333
 40
0.4583333333333333
 40
0.4583333333333333
 40
0.5
 40
0.5
 40
0.5
 40
0.5
 40
0.5416666666666666
 40
0.5416666666666666
 40
0.5416666666666666
 40
0.5416666666666666
 40
0.5833333333333334
 40
0.5833333333333334
 40
0.5833333333333334
 40
0.5833333333333334
 40
0.625
 40
0.625
 40
0.625
 40
0.625
 40
0.6666666666666666
 40
0.6666666666666666
 40
0.6666666666666666
 40
0.6666666666666666
 40
0.7083333333333334
 40
0.7083333333333334
 40
0.7083333333333334
 40
0.7083333333333334
 40
0.75
 40
0.75
 40
0.75
 40
0.75
 40
0.7916666666666666
 40
0.7916666666666666
 40
0.7916666666666666
 40
0.7916666666666666
 40
0.8333333333333334
 40
0.8333333333333334
 40
0.8333333333333334
 40
0.8333333333333334
 40
0.875
 40
0.875
 40
0.875
 40
0.875
 40
0.9166666666666666
 40
0.9166666666666666
 40
0.9166666666666666
 40
0.9166666666666666
 40
1.0
 40
1.0
 40
1.0
 40
1.0
 10
-6.39395
 20
-11.37055
 30
0.0
 10
-6.39395
 20
-11.37055
 30
0.0
 10
-6.3939
 20
-11.37052
 30
0.0
 10
-6.3939
 20
-11.37052
 30
0.0
 10
-6.3939
 20
-11.37052
 30
0.0
 10
-6.3939
 20
-11.37052
 30
0.0
 10
-6.39377
 20
-11.37042
 30
0.0
 10
-6.39377
 20
-11.37042
 30
0.0
 10
-6.39377
 20
-11.37042
 30
0.0
 10
-6.39377
 20
-11.37042
 30
0.0
 10
-6.39341
 20
-11.37016
 30
0.0
 10
-6.39341
 20
-11.37016
 30
0.0
 10
-6.39341
 20
-11.37016
 30
0.0
 10
-6.39341
 20
-11.37016
 30
0.0
 10
-6.39331
 20
-11.37009
 30
0.0
 10
-6.39331
 20
-11.37009
 30
0.0
 10
-6.39331
 20
-11.37009
 30
0.0
 10
-6.39331
 20
-11.37009
 30
0.0
 10
-6.39296
 20
-11.36985
 30
0.0
 10
-6.39296
 20
-11.36985
 30
0.0
 10
-6.39296
 20
-11.36985
 30
0.0
 10
-6.38984
 20
-11.36779
 30
0.0
 10
-6.38606
 20
-11.3667
 30
0.0
 10
-6.38204
 20
-11.36699
 30
0.0
 10
-6.38204
 20
-11.36699
 30
0.0
 10
-6.36761
 20
-11.36803
 30
0.0
 10
-6.34793
 20
-11.36673
 30
0.0
 10
-6.32646
 20
-11.36532
 30
0.0
 10
-6.32646
 20
-11.36532
 30
0.0
 10
-6.25472
 20
-11.36058
 30
0.0
 10
-6.1648
 20
-11.35464
 30
0.0
 10
-6.13612
 20
-11.42272
 30
0.0
 10
-6.13612
 20
-11.42272
 30
0.0
 10
-6.13612
 20
-11.42272
 30
0.0
 10
-6.13609
 20
-11.4228
 30
0.0
 10
-6.13609
 20
-11.4228
 30
0.0
 10
-6.13609
 20
-11.4228
 30
0.0
 10
-6.13609
 20
-11.4228
 30
0.0
 10
-6.13605
 20
-11.42279
 30
0.0
 10
-6.13605
 20
-11.42279
 30
0.0
 10
-6.13605
 20
-11.42279
 30
0.0
 10
-6.1278
 20
-11.44249
 30
0.0
 10
-6.12703
 20
-11.46223
 30
0.0
 10
-6.13195
 20
-11.48134
 30
0.0
 10
-6.13195
 20
-11.48134
 30
0.0
 10
-6.13912
 20
-11.50925
 30
0.0
 10
-6.15852
 20
-11.53515
 30
0.0
 10
-6.18398
 20
-11.55717
 30
0.0
 10
-6.18398
 20
-11.55717
 30
0.0
 10
-6.20839
 20
-11.5783
 30
0.0
 10
-6.23864
 20
-11.59617
 30
0.0
 10
-6.26879
 20
-11.6088
 30
0.0
 10
-6.26879
 20
-11.6088
 30
0.0
 10
-6.31094
 20
-11.62645
 30
0.0
 10
-6.35403
 20
-11.6341
 30
0.0
 10
-6.38261
 20
-11.62676
 30
0.0
 10
-6.38261
 20
-11.62676
 30
0.0
 10
-6.39085
 20
-11.62466
 30
0.0
 10
-6.39624
 20
-11.61702
 30
0.0
 10
-6.39581
 20
-11.60884
 30
0.0
 10
-6.39581
 20
-11.60884
 30
0.0
 10
-6.39581
 20
-11.60884
 30
0.0
 10
-6.39584
 20
-11.60884
 30
0.0
 10
-6.39584
 20
-11.60884
 30
0.0
 10
-6.39584
 20
-11.60884
 30
0.0
 10
-6.39584
 20
-11.60884
 30
0.0
 10
-6.3951
 20
-11.59528
 30
0.0
 10
-6.3951
 20
-11.59528
 30
0.0
 10
-6.3951
 20
-11.59528
 30
0.0
 10
-6.3951
 20
-11.59528
 30
0.0
 10
-6.3951
 20
-11.59522
 30
0.0
 10
-6.3951
 20
-11.59522
 30
0.0
 10
-6.3951
 20
-11.59522
 30
0.0
 10
-6.39193
 20
-11.53765
 30
0.0
 10
-6.38618
 20
-11.43339
 30
0.0
 10
-6.40171
 20
-11.40451
 30
0.0
 10
-6.40171
 20
-11.40451
 30
0.0
 10
-6.40224
 20
-11.40381
 30
0.0
 10
-6.40271
 20
-11.40308
 30
0.0
 10
-6.40312
 20
-11.40233
 30
0.0
 10
-6.40312
 20
-11.40233
 30
0.0
 10
-6.40584
 20
-11.39752
 30
0.0
 10
-6.40645
 20
-11.39196
 30
0.0
 10
-6.40502
 20
-11.38642
 30
0.0
 10
-6.40502
 20
-11.38642
 30
0.0
 10
-6.40404
 20
-11.38262
 30
0.0
 10
-6.40202
 20
-11.37871
 30
0.0
 10
-6.39912
 20
-11.37534
 30
0.0
 10
-6.39912
 20
-11.37534
 30
0.0
 10
-6.39765
 20
-11.37364
 30
0.0
 10
-6.39591
 20
-11.372
 30
0.0
 10
-6.39395
 20
-11.37055
 30
0.0
  0
SPLINE
  5
44
330
1F
100
AcDbEntity
  8
Layer 1
 62
     5
100
AcDbSpline
210
0.0
220
0.0
230
1.0
 70
    11
 71
     3
 72
   104
 73
   100
 74
     0
 42
0.0000000001
 43
0.0000000001
 12
1.0
 22
0.0
 32
0.0
 13
1.0
 23
0.0
 33
0.0
 40
0.0
 40
0.0
 40
0.0
 40
0.0
 40
0.0384615384615385
 40
0.0384615384615385
 40
0.0384615384615385
 40
0.0384615384615385
 40
0.0769230769230769
 40
0.0769230769230769
 40
0.0769230769230769
 40
0.0769230769230769
 40
0.1153846153846154
 40
0.1153846153846154
 40
0.1153846153846154
 40
0.1153846153846154
 40
0.1538461538461539
 40
0.1538461538461539
 40
0.1538461538461539
 40
0.1538461538461539
 40
0.1923076923076923
 40
0.1923076923076923
 40
0.1923076923076923
 40
0.1923076923076923
 40
0.2307692307692308
 40
0.2307692307692308
 40
0.2307692307692308
 40
0.2307692307692308
 40
0.2692307692307692
 40
0.2692307692307692
 40
0.2692307692307692
 40
0.2692307692307692
 40
0.3076923076923077
 40
0.3076923076923077
 40
0.3076923076923077
 40
0.3076923076923077
 40
0.3461538461538461
 40
0.3461538461538461
 40
0.3461538461538461
 40
0.3461538461538461
 40
0.3846153846153846
 40
0.3846153846153846
 40
0.3846153846153846
 40
0.3846153846153846
 40
0.4230769230769231
 40
0.4230769230769231
 40
0.4230769230769231
 40
0.4230769230769231
 40
0.4615384615384616
 40
0.4615384615384616
 40
0.4615384615384616
 40
0.4615384615384616
 40
0.5
 40
0.5
 40
0.5
 40
0.5
 40
0.5384615384615384
 40
0.5384615384615384
 40
0.5384615384615384
 40
0.5384615384615384
 40
0.5769230769230769
 40
0.5769230769230769
 40
0.5769230769230769
 40
0.5769230769230769
 40
0.6153846153846154
 40
0.6153846153846154
 40
0.6153846153846154
 40
0.6153846153846154
 40
0.6538461538461539
 40
0.6538461538461539
 40
0.6538461538461539
 40
0.6538461538461539
 40
0.6923076923076923
 40
0.6923076923076923
 40
0.6923076923076923
 40
0.6923076923076923
 40
0.7307692307692307
 40
0.7307692307692307
 40
0.7307692307692307
 40
0.7307692307692307
 40
0.7692307692307693
 40
0.7692307692307693
 40
0.7692307692307693
 40
0.7692307692307693
 40
0.8076923076923077
 40
0.8076923076923077
 40
0.8076923076923077
 40
0.8076923076923077
 40
0.8461538461538461
 40
0.8461538461538461
 40
0.8461538461538461
 40
0.8461538461538461
 40
0.8846153846153846
 40
0.8846153846153846
 40
0.8846153846153846
 40
0.8846153846153846
 40
0.9230769230769231
 40
0.9230769230769231
 40
0.9230769230769231
 40
0.9230769230769231
 40
1.0
 40
1.0
 40
1.0
 40
1.0
 10
-13.61796
 20
-11.36699
 30
0.0
 10
-13.61395
 20
-11.36671
 30
0.0
 10
-13.61015
 20
-11.3678
 30
0.0
 10
-13.60704
 20
-11.36985
 30
0.0
 10
-13.60704
 20
-11.36985
 30
0.0
 10
-13.60704
 20
-11.36985
 30
0.0
 10
-13.60669
 20
-11.37009
 30
0.0
 10
-13.60669
 20
-11.37009
 30
0.0
 10
-13.60669
 20
-11.37009
 30
0.0
 10
-13.60669
 20
-11.37009
 30
0.0
 10
-13.60659
 20
-11.37016
 30
0.0
 10
-13.60659
 20
-11.37016
 30
0.0
 10
-13.60659
 20
-11.37016
 30
0.0
 10
-13.60659
 20
-11.37016
 30
0.0
 10
-13.60642
 20
-11.37028
 30
0.0
 10
-13.60642
 20
-11.37028
 30
0.0
 10
-13.60642
 20
-11.37028
 30
0.0
 10
-13.60642
 20
-11.37028
 30
0.0
 10
-13.60638
 20
-11.37031
 30
0.0
 10
-13.60638
 20
-11.37031
 30
0.0
 10
-13.60638
 20
-11.37031
 30
0.0
 10
-13.60638
 20
-11.37031
 30
0.0
 10
-13.60613
 20
-11.37049
 30
0.0
 10
-13.60613
 20
-11.37049
 30
0.0
 10
-13.60613
 20
-11.37049
 30
0.0
 10
-13.60613
 20
-11.37049
 30
0.0
 10
-13.60607
 20
-11.37054
 30
0.0
 10
-13.60607
 20
-11.37054
 30
0.0
 10
-13.60607
 20
-11.37054
 30
0.0
 10
-13.60607
 20
-11.37054
 30
0.0
 10
-13.60574
 20
-11.37078
 30
0.0
 10
-13.60574
 20
-11.37078
 30
0.0
 10
-13.60574
 20
-11.37078
 30
0.0
 10
-13.60391
 20
-11.37216
 30
0.0
 10
-13.60227
 20
-11.37372
 30
0.0
 10
-13.60088
 20
-11.37534
 30
0.0
 10
-13.60088
 20
-11.37534
 30
0.0
 10
-13.59799
 20
-11.3787
 30
0.0
 10
-13.59596
 20
-11.38262
 30
0.0
 10
-13.59498
 20
-11.38642
 30
0.0
 10
-13.59498
 20
-11.38642
 30
0.0
 10
-13.59356
 20
-11.39193
 30
0.0
 10
-13.59416
 20
-11.39746
 30
0.0
 10
-13.59683
 20
-11.40224
 30
0.0
 10
-13.59683
 20
-11.40224
 30
0.0
 10
-13.59725
 20
-11.40303
 30
0.0
 10
-13.59774
 20
-11.40378
 30
0.0
 10
-13.59829
 20
-11.40451
 30
0.0
 10
-13.59829
 20
-11.40451
 30
0.0
 10
-13.61382
 20
-11.43339
 30
0.0
 10
-13.60807
 20
-11.53765
 30
0.0
 10
-13.6049
 20
-11.59522
 30
0.0
 10
-13.6049
 20
-11.59522
 30
0.0
 10
-13.6049
 20
-11.59522
 30
0.0
 10
-13.6049
 20
-11.59528
 30
0.0
 10
-13.6049
 20
-11.59528
 30
0.0
 10
-13.6049
 20
-11.59528
 30
0.0
 10
-13.6049
 20
-11.59528
 30
0.0
 10
-13.60416
 20
-11.60884
 30
0.0
 10
-13.60416
 20
-11.60884
 30
0.0
 10
-13.60416
 20
-11.60884
 30
0.0
 10
-13.60416
 20
-11.60884
 30
0.0
 10
-13.60419
 20
-11.60884
 30
0.0
 10
-13.60419
 20
-11.60884
 30
0.0
 10
-13.60419
 20
-11.60884
 30
0.0
 10
-13.60376
 20
-11.61702
 30
0.0
 10
-13.60915
 20
-11.62466
 30
0.0
 10
-13.61739
 20
-11.62676
 30
0.0
 10
-13.61739
 20
-11.62676
 30
0.0
 10
-13.64597
 20
-11.6341
 30
0.0
 10
-13.68906
 20
-11.62645
 30
0.0
 10
-13.73121
 20
-11.6088
 30
0.0
 10
-13.73121
 20
-11.6088
 30
0.0
 10
-13.76136
 20
-11.59617
 30
0.0
 10
-13.79161
 20
-11.5783
 30
0.0
 10
-13.81602
 20
-11.55717
 30
0.0
 10
-13.81602
 20
-11.55717
 30
0.0
 10
-13.84148
 20
-11.53515
 30
0.0
 10
-13.86088
 20
-11.50925
 30
0.0
 10
-13.86805
 20
-11.48134
 30
0.0
 10
-13.86805
 20
-11.48134
 30
0.0
 10
-13.87297
 20
-11.46223
 30
0.0
 10
-13.8722
 20
-11.44249
 30
0.0
 10
-13.86395
 20
-11.42279
 30
0.0
 10
-13.86395
 20
-11.42279
 30
0.0
 10
-13.86395
 20
-11.42279
 30
0.0
 10
-13.86391
 20
-11.4228
 30
0.0
 10
-13.86391
 20
-11.4228
 30
0.0
 10
-13.86391
 20
-11.4228
 30
0.0
 10
-13.86391
 20
-11.4228
 30
0.0
 10
-13.86388
 20
-11.42272
 30
0.0
 10
-13.86388
 20
-11.42272
 30
0.0
 10
-13.86388
 20
-11.42272
 30
0.0
 10
-13.8352
 20
-11.35464
 30
0.0
 10
-13.74528
 20
-11.36058
 30
0.0
 10
-13.67354
 20
-11.36532
 30
0.0
 10
-13.67354
 20
-11.36532
 30
0.0
 10
-13.65206
 20
-11.36673
 30
0.0
 10
-13.63239
 20
-11.36803
 30
0.0
 10
-13.61796
 20
-11.36699
 30
0.0
  0
SPLINE
  5
45
330
1F
100
AcDbEntity
  8
Layer 1
 62
     5
100
AcDbSpline
210
0.0
220
0.0
230
1.0
 70
    11
 71
     3
 72
    88
 73
    84
 74
     0
 42
0.0000000001
 43
0.0000000001
 12
1.0
 22
0.0
 32
0.0
 13
1.0
 23
0.0
 33
0.0
 40
0.0
 40
0.0
 40
0.0
 40
0.0
 40
0.0454545454545455
 40
0.0454545454545455
 40
0.0454545454545455
 40
0.0454545454545455
 40
0.0909090909090909
 40
0.0909090909090909
 40
0.0909090909090909
 40
0.0909090909090909
 40
0.1363636363636364
 40
0.1363636363636364
 40
0.1363636363636364
 40
0.1363636363636364
 40
0.1818181818181818
 40
0.1818181818181818
 40
0.1818181818181818
 40
0.1818181818181818
 40
0.2272727272727273
 40
0.2272727272727273
 40
0.2272727272727273
 40
0.2272727272727273
 40
0.2727272727272727
 40
0.2727272727272727
 40
0.2727272727272727
 40
0.2727272727272727
 40
0.3181818181818182
 40
0.3181818181818182
 40
0.3181818181818182
 40
0.3181818181818182
 40
0.3636363636363636
 40
0.3636363636363636
 40
0.3636363636363636
 40
0.3636363636363636
 40
0.4090909090909091
 40
0.4090909090909091
 40
0.4090909090909091
 40
0.4090909090909091
 40
0.4545454545454545
 40
0.4545454545454545
 40
0.4545454545454545
 40
0.4545454545454545
 40
0.5
 40
0.5
 40
0.5
 40
0.5
 40
0.5454545454545454
 40
0.5454545454545454
 40
0.5454545454545454
 40
0.5454545454545454
 40
0.5909090909090909
 40
0.5909090909090909
 40
0.5909090909090909
 40
0.5909090909090909
 40
0.6363636363636364
 40
0.6363636363636364
 40
0.6363636363636364
 40
0.6363636363636364
 40
0.6818181818181818
 40
0.6818181818181818
 40
0.6818181818181818
 40
0.6818181818181818
 40
0.7272727272727273
 40
0.7272727272727273
 40
0.7272727272727273
 40
0.7272727272727273
 40
0.7727272727272727
 40
0.7727272727272727
 40
0.7727272727272727
 40
0.7727272727272727
 40
0.8181818181818182
 40
0.8181818181818182
 40
0.8181818181818182
 40
0.8181818181818182
 40
0.8636363636363636
 40
0.8636363636363636
 40
0.8636363636363636
 40
0.8636363636363636
 40
0.9090909090909091
 40
0.9090909090909091
 40
0.9090909090909091
 40
0.9090909090909091
 40
1.0
 40
1.0
 40
1.0
 40
1.0
 10
-15.06082
 20
-10.60834
 30
0.0
 10
-15.06082
 20
-10.60834
 30
0.0
 10
-15.06108
 20
-10.60731
 30
0.0
 10
-15.06108
 20
-10.60731
 30
0.0
 10
-15.06108
 20
-10.60731
 30
0.0
 10
-15.06627
 20
-10.58794
 30
0.0
 10
-15.06306
 20
-10.5682
 30
0.0
 10
-15.05436
 20
-10.55075
 30
0.0
 10
-15.05436
 20
-10.55075
 30
0.0
 10
-15.04517
 20
-10.5323
 30
0.0
 10
-15.02961
 20
-10.5162
 30
0.0
 10
-15.01155
 20
-10.50593
 30
0.0
 10
-15.01155
 20
-10.50593
 30
0.0
 10
-14.99514
 20
-10.4966
 30
0.0
 10
-14.97749
 20
-10.49122
 30
0.0
 10
-14.9594
 20
-10.4881
 30
0.0
 10
-14.9594
 20
-10.4881
 30
0.0
 10
-14.94235
 20
-10.48515
 30
0.0
 10
-14.92472
 20
-10.48424
 30
0.0
 10
-14.90739
 20
-10.48381
 30
0.0
 10
-14.90739
 20
-10.48381
 30
0.0
 10
-14.90739
 20
-10.48381
 30
0.0
 10
-14.9073
 20
-10.48381
 30
0.0
 10
-14.9073
 20
-10.48381
 30
0.0
 10
-14.9073
 20
-10.48381
 30
0.0
 10
-14.86953
 20
-10.48274
 30
0.0
 10
-14.83186
 20
-10.48314
 30
0.0
 10
-14.79445
 20
-10.48506
 30
0.0
 10
-14.79445
 20
-10.48506
 30
0.0
 10
-14.75753
 20
-10.48696
 30
0.0
 10
-14.72059
 20
-10.49036
 30
0.0
 10
-14.68375
 20
-10.49526
 30
0.0
 10
-14.68375
 20
-10.49526
 30
0.0
 10
-14.6744
 20
-10.49611
 30
0.0
 10
-14.66732
 20
-10.50422
 30
0.0
 10
-14.6678
 20
-10.51368
 30
0.0
 10
-14.6678
 20
-10.51368
 30
0.0
 10
-14.6678
 20
-10.51368
 30
0.0
 10
-14.67729
 20
-10.68756
 30
0.0
 10
-14.67729
 20
-10.68756
 30
0.0
 10
-14.67729
 20
-10.68756
 30
0.0
 10
-14.67729
 20
-10.68756
 30
0.0
 10
-14.67733
 20
-10.68856
 30
0.0
 10
-14.67733
 20
-10.68856
 30
0.0
 10
-14.67733
 20
-10.68856
 30
0.0
 10
-14.67792
 20
-10.69718
 30
0.0
 10
-14.67878
 20
-10.70652
 30
0.0
 10
-14.68146
 20
-10.71557
 30
0.0
 10
-14.68146
 20
-10.71557
 30
0.0
 10
-14.68471
 20
-10.72652
 30
0.0
 10
-14.69044
 20
-10.73642
 30
0.0
 10
-14.70073
 20
-10.74329
 30
0.0
 10
-14.70073
 20
-10.74329
 30
0.0
 10
-14.70073
 20
-10.74329
 30
0.0
 10
-14.70074
 20
-10.74328
 30
0.0
 10
-14.70074
 20
-10.74328
 30
0.0
 10
-14.70074
 20
-10.74328
 30
0.0
 10
-14.70439
 20
-10.74573
 30
0.0
 10
-14.70895
 20
-10.74681
 30
0.0
 10
-14.71361
 20
-10.74598
 30
0.0
 10
-14.71361
 20
-10.74598
 30
0.0
 10
-14.7562
 20
-10.73824
 30
0.0
 10
-14.79829
 20
-10.72915
 30
0.0
 10
-14.83977
 20
-10.71881
 30
0.0
 10
-14.83977
 20
-10.71881
 30
0.0
 10
-14.88231
 20
-10.70822
 30
0.0
 10
-14.9242
 20
-10.69634
 30
0.0
 10
-14.96531
 20
-10.6833
 30
0.0
 10
-14.96531
 20
-10.6833
 30
0.0
 10
-14.96531
 20
-10.6833
 30
0.0
 10
-14.96529
 20
-10.68324
 30
0.0
 10
-14.96529
 20
-10.68324
 30
0.0
 10
-14.96529
 20
-10.68324
 30
0.0
 10
-14.96529
 20
-10.68324
 30
0.0
 10
-14.96531
 20
-10.68323
 30
0.0
 10
-14.96531
 20
-10.68323
 30
0.0
 10
-14.96531
 20
-10.68323
 30
0.0
 10
-14.98403
 20
-10.67729
 30
0.0
 10
-15.00393
 20
-10.66976
 30
0.0
 10
-15.02085
 20
-10.65879
 30
0.0
 10
-15.02085
 20
-10.65879
 30
0.0
 10
-15.03949
 20
-10.64669
 30
0.0
 10
-15.05447
 20
-10.63061
 30
0.0
 10
-15.06082
 20
-10.60834
 30
0.0
  0
SPLINE
  5
46
330
1F
100
AcDbEntity
  8
Layer 1
 62
     5
100
AcDbSpline
210
0.0
220
0.0
230
1.0
 70
    11
 71
     3
 72
   128
 73
   124
 74
     0
 42
0.0000000001
 43
0.0000000001
 12
1.0
 22
0.0
 32
0.0
 13
1.0
 23
0.0
 33
0.0
 40
0.0
 40
0.0
 40
0.0
 40
0.0
 40
0.03125
 40
0.03125
 40
0.03125
 40
0.03125
 40
0.0625
 40
0.0625
 40
0.0625
 40
0.0625
 40
0.09375
 40
0.09375
 40
0.09375
 40
0.09375
 40
0.125
 40
0.125
 40
0.125
 40
0.125
 40
0.15625
 40
0.15625
 40
0.15625
 40
0.15625
 40
0.1875
 40
0.1875
 40
0.1875
 40
0.1875
 40
0.21875
 40
0.21875
 40
0.21875
 40
0.21875
 40
0.25
 40
0.25
 40
0.25
 40
0.25
 40
0.28125
 40
0.28125
 40
0.28125
 40
0.28125
 40
0.3125
 40
0.3125
 40
0.3125
 40
0.3125
 40
0.34375
 40
0.34375
 40
0.34375
 40
0.34375
 40
0.375
 40
0.375
 40
0.375
 40
0.375
 40
0.40625
 40
0.40625
 40
0.40625
 40
0.40625
 40
0.4375
 40
0.4375
 40
0.4375
 40
0.4375
 40
0.46875
 40
0.46875
 40
0.46875
 40
0.46875
 40
0.5
 40
0.5
 40
0.5
 40
0.5
 40
0.53125
 40
0.53125
 40
0.53125
 40
0.53125
 40
0.5625
 40
0.5625
 40
0.5625
 40
0.5625
 40
0.59375
 40
0.59375
 40
0.59375
 40
0.59375
 40
0.625
 40
0.625
 40
0.625
 40
0.625
 40
0.65625
 40
0.65625
 40
0.65625
 40
0.65625
 40
0.6875
 40
0.6875
 40
0.6875
 40
0.6875
 40
0.71875
 40
0.71875
 40
0.71875
 40
0.71875
 40
0.75
 40
0.75
 40
0.75
 40
0.75
 40
0.78125
 40
0.78125
 40
0.78125
 40
0.78125
 40
0.8125
 40
0.8125
 40
0.8125
 40
0.8125
 40
0.84375
 40
0.84375
 40
0.84375
 40
0.84375
 40
0.875
 40
0.875
 40
0.875
 40
0.875
 40
0.90625
 40
0.90625
 40
0.90625
 40
0.90625
 40
0.9375
 40
0.9375
 40
0.9375
 40
0.9375
 40
1.0
 40
1.0
 40
1.0
 40
1.0
 10
-14.64958
 20
-9.70475
 30
0.0
 10
-14.64958
 20
-9.70475
 30
0.0
 10
-14.64924
 20
-9.70496
 30
0.0
 10
-14.64924
 20
-9.70496
 30
0.0
 10
-14.64924
 20
-9.70496
 30
0.0
 10
-14.64924
 20
-9.70496
 30
0.0
 10
-14.64909
 20
-9.70505
 30
0.0
 10
-14.64909
 20
-9.70505
 30
0.0
 10
-14.64909
 20
-9.70505
 30
0.0
 10
-14.64909
 20
-9.70505
 30
0.0
 10
-14.64871
 20
-9.70531
 30
0.0
 10
-14.64871
 20
-9.70531
 30
0.0
 10
-14.64871
 20
-9.70531
 30
0.0
 10
-14.64871
 20
-9.70531
 30
0.0
 10
-14.64771
 20
-9.70606
 30
0.0
 10
-14.64771
 20
-9.70606
 30
0.0
 10
-14.64771
 20
-9.70606
 30
0.0
 10
-14.64771
 20
-9.70606
 30
0.0
 10
-14.64729
 20
-9.7064
 30
0.0
 10
-14.64729
 20
-9.7064
 30
0.0
 10
-14.64729
 20
-9.7064
 30
0.0
 10
-14.64357
 20
-9.70955
 30
0.0
 10
-14.64119
 20
-9.71421
 30
0.0
 10
-14.64108
 20
-9.71946
 30
0.0
 10
-14.64108
 20
-9.71946
 30
0.0
 10
-14.64027
 20
-9.75762
 30
0.0
 10
-14.641
 20
-9.79568
 30
0.0
 10
-14.64319
 20
-9.83339
 30
0.0
 10
-14.64319
 20
-9.83339
 30
0.0
 10
-14.64319
 20
-9.83339
 30
0.0
 10
-14.6432
 20
-9.83372
 30
0.0
 10
-14.6432
 20
-9.83372
 30
0.0
 10
-14.6432
 20
-9.83372
 30
0.0
 10
-14.64544
 20
-9.8719
 30
0.0
 10
-14.64921
 20
-9.91003
 30
0.0
 10
-14.65445
 20
-9.94791
 30
0.0
 10
-14.65445
 20
-9.94791
 30
0.0
 10
-14.65445
 20
-9.94791
 30
0.0
 10
-14.65446
 20
-9.94791
 30
0.0
 10
-14.65446
 20
-9.94791
 30
0.0
 10
-14.65446
 20
-9.94791
 30
0.0
 10
-14.65472
 20
-9.95029
 30
0.0
 10
-14.65514
 20
-9.9528
 30
0.0
 10
-14.65595
 20
-9.95516
 30
0.0
 10
-14.65595
 20
-9.95516
 30
0.0
 10
-14.65595
 20
-9.95516
 30
0.0
 10
-14.65599
 20
-9.95515
 30
0.0
 10
-14.65599
 20
-9.95515
 30
0.0
 10
-14.65599
 20
-9.95515
 30
0.0
 10
-14.65599
 20
-9.95515
 30
0.0
 10
-14.65602
 20
-9.95523
 30
0.0
 10
-14.65602
 20
-9.95523
 30
0.0
 10
-14.65602
 20
-9.95523
 30
0.0
 10
-14.65766
 20
-9.95994
 30
0.0
 10
-14.66051
 20
-9.96417
 30
0.0
 10
-14.66533
 20
-9.96722
 30
0.0
 10
-14.66533
 20
-9.96722
 30
0.0
 10
-14.67104
 20
-9.97106
 30
0.0
 10
-14.67555
 20
-9.97111
 30
0.0
 10
-14.67967
 20
-9.97102
 30
0.0
 10
-14.67967
 20
-9.97102
 30
0.0
 10
-14.68041
 20
-9.97105
 30
0.0
 10
-14.68116
 20
-9.97105
 30
0.0
 10
-14.68192
 20
-9.971
 30
0.0
 10
-14.68192
 20
-9.971
 30
0.0
 10
-14.73521
 20
-9.96697
 30
0.0
 10
-14.78821
 20
-9.9577
 30
0.0
 10
-14.83998
 20
-9.94351
 30
0.0
 10
-14.83998
 20
-9.94351
 30
0.0
 10
-14.89149
 20
-9.92938
 30
0.0
 10
-14.94161
 20
-9.91039
 30
0.0
 10
-14.98937
 20
-9.88685
 30
0.0
 10
-14.98937
 20
-9.88685
 30
0.0
 10
-14.98937
 20
-9.88685
 30
0.0
 10
-14.99034
 20
-9.8864
 30
0.0
 10
-14.99034
 20
-9.8864
 30
0.0
 10
-14.99034
 20
-9.8864
 30
0.0
 10
-14.99861
 20
-9.88227
 30
0.0
 10
-15.00716
 20
-9.87776
 30
0.0
 10
-15.01576
 20
-9.87194
 30
0.0
 10
-15.01576
 20
-9.87194
 30
0.0
 10
-15.02469
 20
-9.86588
 30
0.0
 10
-15.03291
 20
-9.85876
 30
0.0
 10
-15.03947
 20
-9.84988
 30
0.0
 10
-15.03947
 20
-9.84988
 30
0.0
 10
-15.05426
 20
-9.82989
 30
0.0
 10
-15.05763
 20
-9.80527
 30
0.0
 10
-15.05272
 20
-9.78171
 30
0.0
 10
-15.05272
 20
-9.78171
 30
0.0
 10
-15.04763
 20
-9.75731
 30
0.0
 10
-15.03341
 20
-9.73373
 30
0.0
 10
-15.0139
 20
-9.718
 30
0.0
 10
-15.0139
 20
-9.718
 30
0.0
 10
-15.0139
 20
-9.718
 30
0.0
 10
-15.01388
 20
-9.71803
 30
0.0
 10
-15.01388
 20
-9.71803
 30
0.0
 10
-15.01388
 20
-9.71803
 30
0.0
 10
-15.01388
 20
-9.71803
 30
0.0
 10
-15.01376
 20
-9.71793
 30
0.0
 10
-15.01376
 20
-9.71793
 30
0.0
 10
-15.01376
 20
-9.71793
 30
0.0
 10
-14.99575
 20
-9.70368
 30
0.0
 10
-14.97503
 20
-9.69474
 30
0.0
 10
-14.95327
 20
-9.68909
 30
0.0
 10
-14.95327
 20
-9.68909
 30
0.0
 10
-14.93228
 20
-9.68365
 30
0.0
 10
-14.91049
 20
-9.68125
 30
0.0
 10
-14.88933
 20
-9.68001
 30
0.0
 10
-14.88933
 20
-9.68001
 30
0.0
 10
-14.88933
 20
-9.68001
 30
0.0
 10
-14.88926
 20
-9.68001
 30
0.0
 10
-14.88926
 20
-9.68001
 30
0.0
 10
-14.88926
 20
-9.68001
 30
0.0
 10
-14.8499
 20
-9.67772
 30
0.0
 10
-14.81022
 20
-9.67848
 30
0.0
 10
-14.77075
 20
-9.6823
 30
0.0
 10
-14.77075
 20
-9.6823
 30
0.0
 10
-14.73172
 20
-9.68606
 30
0.0
 10
-14.69288
 20
-9.69286
 30
0.0
 10
-14.65478
 20
-9.70266
 30
0.0
 10
-14.65478
 20
-9.70266
 30
0.0
 10
-14.65292
 20
-9.70308
 30
0.0
 10
-14.65117
 20
-9.70379
 30
0.0
 10
-14.64958
 20
-9.70475
 30
0.0
  0
SPLINE
  5
47
330
1F
100
AcDbEntity
  8
Layer 1
 62
     5
100
AcDbSpline
210
0.0
220
0.0
230
1.0
 70
    11
 71
     3
 72
   100
 73
    96
 74
     0
 42
0.0000000001
 43
0.0000000001
 12
1.0
 22
0.0
 32
0.0
 13
1.0
 23
0.0
 33
0.0
 40
0.0
 40
0.0
 40
0.0
 40
0.0
 40
0.04
 40
0.04
 40
0.04
 40
0.04
 40
0.08
 40
0.08
 40
0.08
 40
0.08
 40
0.12
 40
0.12
 40
0.12
 40
0.12
 40
0.16
 40
0.16
 40
0.16
 40
0.16
 40
0.2
 40
0.2
 40
0.2
 40
0.2
 40
0.24
 40
0.24
 40
0.24
 40
0.24
 40
0.28
 40
0.28
 40
0.28
 40
0.28
 40
0.32
 40
0.32
 40
0.32
 40
0.32
 40
0.36
 40
0.36
 40
0.36
 40
0.36
 40
0.4
 40
0.4
 40
0.4
 40
0.4
 40
0.44
 40
0.44
 40
0.44
 40
0.44
 40
0.48
 40
0.48
 40
0.48
 40
0.48
 40
0.52
 40
0.52
 40
0.52
 40
0.52
 40
0.56
 40
0.56
 40
0.56
 40
0.56
 40
0.6
 40
0.6
 40
0.6
 40
0.6
 40
0.64
 40
0.64
 40
0.64
 40
0.64
 40
0.68
 40
0.68
 40
0.68
 40
0.68
 40
0.72
 40
0.72
 40
0.72
 40
0.72
 40
0.76
 40
0.76
 40
0.76
 40
0.76
 40
0.8
 40
0.8
 40
0.8
 40
0.8
 40
0.84
 40
0.84
 40
0.84
 40
0.84
 40
0.88
 40
0.88
 40
0.88
 40
0.88
 40
0.92
 40
0.92
 40
0.92
 40
0.92
 40
1.0
 40
1.0
 40
1.0
 40
1.0
 10
-14.58081
 20
-8.8291
 30
0.0
 10
-14.57984
 20
-8.82885
 30
0.0
 10
-14.57884
 20
-8.82867
 30
0.0
 10
-14.57781
 20
-8.82859
 30
0.0
 10
-14.57781
 20
-8.82859
 30
0.0
 10
-14.56811
 20
-8.82779
 30
0.0
 10
-14.55959
 20
-8.83501
 30
0.0
 10
-14.55879
 20
-8.84471
 30
0.0
 10
-14.55879
 20
-8.84471
 30
0.0
 10
-14.5552
 20
-8.88729
 30
0.0
 10
-14.55362
 20
-8.93044
 30
0.0
 10
-14.55406
 20
-8.9739
 30
0.0
 10
-14.55406
 20
-8.9739
 30
0.0
 10
-14.5545
 20
-9.01693
 30
0.0
 10
-14.55698
 20
-9.05973
 30
0.0
 10
-14.56149
 20
-9.10201
 30
0.0
 10
-14.56149
 20
-9.10201
 30
0.0
 10
-14.56149
 20
-9.10201
 30
0.0
 10
-14.56151
 20
-9.10201
 30
0.0
 10
-14.56151
 20
-9.10201
 30
0.0
 10
-14.56151
 20
-9.10201
 30
0.0
 10
-14.56246
 20
-9.11108
 30
0.0
 10
-14.57028
 20
-9.11801
 30
0.0
 10
-14.57954
 20
-9.11772
 30
0.0
 10
-14.57954
 20
-9.11772
 30
0.0
 10
-14.62262
 20
-9.11626
 30
0.0
 10
-14.66617
 20
-9.11464
 30
0.0
 10
-14.70866
 20
-9.1097
 30
0.0
 10
-14.70866
 20
-9.1097
 30
0.0
 10
-14.75211
 20
-9.10464
 30
0.0
 10
-14.79507
 20
-9.09606
 30
0.0
 10
-14.83647
 20
-9.08065
 30
0.0
 10
-14.83647
 20
-9.08065
 30
0.0
 10
-14.84297
 20
-9.07824
 30
0.0
 10
-14.84941
 20
-9.07561
 30
0.0
 10
-14.85525
 20
-9.07257
 30
0.0
 10
-14.85525
 20
-9.07257
 30
0.0
 10
-14.86184
 20
-9.06914
 30
0.0
 10
-14.8682
 20
-9.06499
 30
0.0
 10
-14.87395
 20
-9.05974
 30
0.0
 10
-14.87395
 20
-9.05974
 30
0.0
 10
-14.87395
 20
-9.05974
 30
0.0
 10
-14.87394
 20
-9.05973
 30
0.0
 10
-14.87394
 20
-9.05973
 30
0.0
 10
-14.87394
 20
-9.05973
 30
0.0
 10
-14.87394
 20
-9.05973
 30
0.0
 10
-14.8743
 20
-9.0594
 30
0.0
 10
-14.8743
 20
-9.0594
 30
0.0
 10
-14.8743
 20
-9.0594
 30
0.0
 10
-14.88288
 20
-9.05116
 30
0.0
 10
-14.88908
 20
-9.04098
 30
0.0
 10
-14.89299
 20
-9.03
 30
0.0
 10
-14.89299
 20
-9.03
 30
0.0
 10
-14.89701
 20
-9.0187
 30
0.0
 10
-14.89861
 20
-9.00641
 30
0.0
 10
-14.89794
 20
-8.99442
 30
0.0
 10
-14.89794
 20
-8.99442
 30
0.0
 10
-14.89794
 20
-8.99442
 30
0.0
 10
-14.89793
 20
-8.99442
 30
0.0
 10
-14.89793
 20
-8.99442
 30
0.0
 10
-14.89793
 20
-8.99442
 30
0.0
 10
-14.89686
 20
-8.97247
 30
0.0
 10
-14.88888
 20
-8.95208
 30
0.0
 10
-14.87658
 20
-8.93441
 30
0.0
 10
-14.87658
 20
-8.93441
 30
0.0
 10
-14.86338
 20
-8.91544
 30
0.0
 10
-14.84504
 20
-8.89944
 30
0.0
 10
-14.82502
 20
-8.88801
 30
0.0
 10
-14.82502
 20
-8.88801
 30
0.0
 10
-14.82502
 20
-8.88801
 30
0.0
 10
-14.82501
 20
-8.88802
 30
0.0
 10
-14.82501
 20
-8.88802
 30
0.0
 10
-14.82501
 20
-8.88802
 30
0.0
 10
-14.82501
 20
-8.88802
 30
0.0
 10
-14.82488
 20
-8.88794
 30
0.0
 10
-14.82488
 20
-8.88794
 30
0.0
 10
-14.82488
 20
-8.88794
 30
0.0
 10
-14.80631
 20
-8.87757
 30
0.0
 10
-14.78669
 20
-8.87045
 30
0.0
 10
-14.76672
 20
-8.86502
 30
0.0
 10
-14.76672
 20
-8.86502
 30
0.0
 10
-14.74775
 20
-8.85987
 30
0.0
 10
-14.72768
 20
-8.8561
 30
0.0
 10
-14.70784
 20
-8.8524
 30
0.0
 10
-14.70784
 20
-8.8524
 30
0.0
 10
-14.70784
 20
-8.8524
 30
0.0
 10
-14.70784
 20
-8.85241
 30
0.0
 10
-14.70784
 20
-8.85241
 30
0.0
 10
-14.70784
 20
-8.85241
 30
0.0
 10
-14.70784
 20
-8.85241
 30
0.0
 10
-14.70777
 20
-8.8524
 30
0.0
 10
-14.70777
 20
-8.8524
 30
0.0
 10
-14.70777
 20
-8.8524
 30
0.0
 10
-14.66542
 20
-8.84482
 30
0.0
 10
-14.62312
 20
-8.83692
 30
0.0
 10
-14.58081
 20
-8.8291
 30
0.0
  0
SPLINE
  5
48
330
1F
100
AcDbEntity
  8
Layer 1
 62
     5
100
AcDbSpline
210
0.0
220
0.0
230
1.0
 70
    11
 71
     3
 72
    92
 73
    88
 74
     0
 42
0.0000000001
 43
0.0000000001
 12
1.0
 22
0.0
 32
0.0
 13
1.0
 23
0.0
 33
0.0
 40
0.0
 40
0.0
 40
0.0
 40
0.0
 40
0.0434782608695652
 40
0.0434782608695652
 40
0.0434782608695652
 40
0.0434782608695652
 40
0.0869565217391304
 40
0.0869565217391304
 40
0.0869565217391304
 40
0.0869565217391304
 40
0.1304347826086956
 40
0.1304347826086956
 40
0.1304347826086956
 40
0.1304347826086956
 40
0.1739130434782609
 40
0.1739130434782609
 40
0.1739130434782609
 40
0.1739130434782609
 40
0.2173913043478261
 40
0.2173913043478261
 40
0.2173913043478261
 40
0.2173913043478261
 40
0.2608695652173913
 40
0.2608695652173913
 40
0.2608695652173913
 40
0.2608695652173913
 40
0.3043478260869565
 40
0.3043478260869565
 40
0.3043478260869565
 40
0.3043478260869565
 40
0.3478260869565217
 40
0.3478260869565217
 40
0.3478260869565217
 40
0.3478260869565217
 40
0.391304347826087
 40
0.391304347826087
 40
0.391304347826087
 40
0.391304347826087
 40
0.4347826086956522
 40
0.4347826086956522
 40
0.4347826086956522
 40
0.4347826086956522
 40
0.4782608695652174
 40
0.4782608695652174
 40
0.4782608695652174
 40
0.4782608695652174
 40
0.5217391304347826
 40
0.5217391304347826
 40
0.5217391304347826
 40
0.5217391304347826
 40
0.5652173913043478
 40
0.5652173913043478
 40
0.5652173913043478
 40
0.5652173913043478
 40
0.6086956521739131
 40
0.6086956521739131
 40
0.6086956521739131
 40
0.6086956521739131
 40
0.6521739130434783
 40
0.6521739130434783
 40
0.6521739130434783
 40
0.6521739130434783
 40
0.6956521739130435
 40
0.6956521739130435
 40
0.6956521739130435
 40
0.6956521739130435
 40
0.7391304347826086
 40
0.7391304347826086
 40
0.7391304347826086
 40
0.7391304347826086
 40
0.782608695652174
 40
0.782608695652174
 40
0.782608695652174
 40
0.782608695652174
 40
0.8260869565217391
 40
0.8260869565217391
 40
0.8260869565217391
 40
0.8260869565217391
 40
0.8695652173913043
 40
0.8695652173913043
 40
0.8695652173913043
 40
0.8695652173913043
 40
0.9130434782608695
 40
0.9130434782608695
 40
0.9130434782608695
 40
0.9130434782608695
 40
1.0
 40
1.0
 40
1.0
 40
1.0
 10
-4.93892
 20
-10.60731
 30
0.0
 10
-4.93892
 20
-10.60731
 30
0.0
 10
-4.93918
 20
-10.60834
 30
0.0
 10
-4.93918
 20
-10.60834
 30
0.0
 10
-4.93918
 20
-10.60834
 30
0.0
 10
-4.94554
 20
-10.63061
 30
0.0
 10
-4.96051
 20
-10.64669
 30
0.0
 10
-4.97916
 20
-10.65879
 30
0.0
 10
-4.97916
 20
-10.65879
 30
0.0
 10
-4.99607
 20
-10.66976
 30
0.0
 10
-5.01598
 20
-10.67729
 30
0.0
 10
-5.03469
 20
-10.68323
 30
0.0
 10
-5.03469
 20
-10.68323
 30
0.0
 10
-5.03469
 20
-10.68323
 30
0.0
 10
-5.03471
 20
-10.68324
 30
0.0
 10
-5.03471
 20
-10.68324
 30
0.0
 10
-5.03471
 20
-10.68324
 30
0.0
 10
-5.03471
 20
-10.68324
 30
0.0
 10
-5.03469
 20
-10.6833
 30
0.0
 10
-5.03469
 20
-10.6833
 30
0.0
 10
-5.03469
 20
-10.6833
 30
0.0
 10
-5.0758
 20
-10.69634
 30
0.0
 10
-5.1177
 20
-10.70822
 30
0.0
 10
-5.16023
 20
-10.71881
 30
0.0
 10
-5.16023
 20
-10.71881
 30
0.0
 10
-5.20171
 20
-10.72915
 30
0.0
 10
-5.2438
 20
-10.73824
 30
0.0
 10
-5.28639
 20
-10.74598
 30
0.0
 10
-5.28639
 20
-10.74598
 30
0.0
 10
-5.29104
 20
-10.74681
 30
0.0
 10
-5.29559
 20
-10.74573
 30
0.0
 10
-5.29923
 20
-10.7433
 30
0.0
 10
-5.29923
 20
-10.7433
 30
0.0
 10
-5.29923
 20
-10.7433
 30
0.0
 10
-5.29927
 20
-10.74336
 30
0.0
 10
-5.29927
 20
-10.74336
 30
0.0
 10
-5.29927
 20
-10.74336
 30
0.0
 10
-5.30954
 20
-10.73651
 30
0.0
 10
-5.31525
 20
-10.72662
 30
0.0
 10
-5.31852
 20
-10.71563
 30
0.0
 10
-5.31852
 20
-10.71563
 30
0.0
 10
-5.31852
 20
-10.71563
 30
0.0
 10
-5.31854
 20
-10.71564
 30
0.0
 10
-5.31854
 20
-10.71564
 30
0.0
 10
-5.31854
 20
-10.71564
 30
0.0
 10
-5.32123
 20
-10.70661
 30
0.0
 10
-5.32207
 20
-10.69724
 30
0.0
 10
-5.32267
 20
-10.68856
 30
0.0
 10
-5.32267
 20
-10.68856
 30
0.0
 10
-5.32267
 20
-10.68856
 30
0.0
 10
-5.32271
 20
-10.68756
 30
0.0
 10
-5.32271
 20
-10.68756
 30
0.0
 10
-5.32271
 20
-10.68756
 30
0.0
 10
-5.32271
 20
-10.68756
 30
0.0
 10
-5.3322
 20
-10.51368
 30
0.0
 10
-5.3322
 20
-10.51368
 30
0.0
 10
-5.3322
 20
-10.51368
 30
0.0
 10
-5.33268
 20
-10.50422
 30
0.0
 10
-5.3256
 20
-10.49611
 30
0.0
 10
-5.31625
 20
-10.49526
 30
0.0
 10
-5.31625
 20
-10.49526
 30
0.0
 10
-5.27941
 20
-10.49036
 30
0.0
 10
-5.24247
 20
-10.48696
 30
0.0
 10
-5.20555
 20
-10.48506
 30
0.0
 10
-5.20555
 20
-10.48506
 30
0.0
 10
-5.16814
 20
-10.48314
 30
0.0
 10
-5.13047
 20
-10.48274
 30
0.0
 10
-5.0927
 20
-10.48381
 30
0.0
 10
-5.0927
 20
-10.48381
 30
0.0
 10
-5.0927
 20
-10.48381
 30
0.0
 10
-5.09261
 20
-10.48381
 30
0.0
 10
-5.09261
 20
-10.48381
 30
0.0
 10
-5.09261
 20
-10.48381
 30
0.0
 10
-5.07528
 20
-10.48424
 30
0.0
 10
-5.05766
 20
-10.48515
 30
0.0
 10
-5.04061
 20
-10.4881
 30
0.0
 10
-5.04061
 20
-10.4881
 30
0.0
 10
-5.02251
 20
-10.49122
 30
0.0
 10
-5.00486
 20
-10.4966
 30
0.0
 10
-4.98845
 20
-10.50593
 30
0.0
 10
-4.98845
 20
-10.50593
 30
0.0
 10
-4.97039
 20
-10.5162
 30
0.0
 10
-4.95483
 20
-10.5323
 30
0.0
 10
-4.94564
 20
-10.55075
 30
0.0
 10
-4.94564
 20
-10.55075
 30
0.0
 10
-4.93694
 20
-10.5682
 30
0.0
 10
-4.93373
 20
-10.58794
 30
0.0
 10
-4.93892
 20
-10.60731
 30
0.0
  0
ENDSEC
  0
SECTION
  2
OBJECTS
  0
DICTIONARY
  5
C
330
0
100
AcDbDictionary
281
     1
  3
ACAD_GROUP
350
D
  3
ACAD_LAYOUT
350
1A
  3
ACAD_MATERIAL
350
3B
  3
ACAD_MLEADERSTYLE
350
6A
  3
ACAD_MLINESTYLE
350
17
  3
ACAD_PLOTSETTINGS
350
19
  3
ACAD_PLOTSTYLENAME
350
E
  3
ACAD_TABLESTYLE
350
69
  3
ACAD_VISUALSTYLE
350
2A
  0
DICTIONARY
  5
D
102
{ACAD_REACTORS
330
C
102
}
330
C
100
AcDbDictionary
281
     1
  0
DICTIONARY
  5
1A
102
{ACAD_REACTORS
330
C
102
}
330
C
100
AcDbDictionary
281
     1
  3
Layout1
350
1E
  3
Layout2
350
26
  3
Model
350
22
  0
DICTIONARY
  5
3B
102
{ACAD_REACTORS
330
C
102
}
330
C
100
AcDbDictionary
281
     1
  3
ByBlock
350
3D
  3
ByLayer
350
3C
  3
Global
350
3E
  0
DICTIONARY
  5
6A
102
{ACAD_REACTORS
330
C
102
}
330
C
100
AcDbDictionary
281
     1
  0
DICTIONARY
  5
17
102
{ACAD_REACTORS
330
C
102
}
330
C
100
AcDbDictionary
281
     1
  3
Standard
350
18
  0
DICTIONARY
  5
19
102
{ACAD_REACTORS
330
C
102
}
330
C
100
AcDbDictionary
281
     1
  0
ACDBDICTIONARYWDFLT
  5
E
102
{ACAD_REACTORS
330
C
102
}
330
C
100
AcDbDictionary
281
     1
  3
Normal
350
F
100
AcDbDictionaryWithDefault
340
F
  0
DICTIONARY
  5
69
102
{ACAD_REACTORS
330
C
102
}
330
C
100
AcDbDictionary
281
     1
  0
DICTIONARY
  5
2A
102
{ACAD_REACTORS
330
C
102
}
330
C
100
AcDbDictionary
281
     1
  3
2dWireframe
350
2F
  3
3D Hidden
350
31
  3
3dWireframe
350
30
  3
Basic
350
32
  3
Brighten
350
36
  3
ColorChange
350
3A
  3
Conceptual
350
34
  3
Dim
350
35
  3
Facepattern
350
39
  3
Flat
350
2B
  3
FlatWithEdges
350
2C
  3
Gouraud
350
2D
  3
GouraudWithEdges
350
2E
  3
Linepattern
350
38
  3
Realistic
350
33
  3
Thicken
350
37
  0
LAYOUT
  5
1E
102
{ACAD_REACTORS
330
1A
102
}
330
1A
100
AcDbPlotSettings
  1

  2
none_device
  4

  6

 40
0.0
 41
0.0
 42
0.0
 43
0.0
 44
0.0
 45
0.0
 46
0.0
 47
0.0
 48
0.0
 49
0.0
140
0.0
141
0.0
142
1.0
143
1.0
 70
   688
 72
     0
 73
     0
 74
     5
  7

 75
    16
 76
     0
 77
     2
 78
   300
147
1.0
148
0.0
149
0.0
100
AcDbLayout
  1
Layout1
 70
     1
 71
     1
 10
0.0
 20
0.0
 11
12.0
 21
9.0
 12
0.0
 22
0.0
 32
0.0
 14
1.000000000000000E+20
 24
1.000000000000000E+20
 34
1.000000000000000E+20
 15
-1.000000000000000E+20
 25
-1.000000000000000E+20
 35
-1.000000000000000E+20
146
0.0
 13
0.0
 23
0.0
 33
0.0
 16
1.0
 26
0.0
 36
0.0
 17
0.0
 27
1.0
 37
0.0
 76
     0
330
1B
  0
LAYOUT
  5
26
102
{ACAD_REACTORS
330
1A
102
}
330
1A
100
AcDbPlotSettings
  1

  2
none_device
  4

  6

 40
0.0
 41
0.0
 42
0.0
 43
0.0
 44
0.0
 45
0.0
 46
0.0
 47
0.0
 48
0.0
 49
0.0
140
0.0
141
0.0
142
1.0
143
1.0
 70
   688
 72
     0
 73
     0
 74
     5
  7

 75
    16
 76
     0
 77
     2
 78
   300
147
1.0
148
0.0
149
0.0
100
AcDbLayout
  1
Layout2
 70
     1
 71
     2
 10
0.0
 20
0.0
 11
0.0
 21
0.0
 12
0.0
 22
0.0
 32
0.0
 14
0.0
 24
0.0
 34
0.0
 15
0.0
 25
0.0
 35
0.0
146
0.0
 13
0.0
 23
0.0
 33
0.0
 16
1.0
 26
0.0
 36
0.0
 17
0.0
 27
1.0
 37
0.0
 76
     0
330
23
  0
LAYOUT
  5
22
102
{ACAD_REACTORS
330
1A
102
}
330
1A
100
AcDbPlotSettings
  1

  2
none_device
  4

  6

 40
0.0
 41
0.0
 42
0.0
 43
0.0
 44
0.0
 45
0.0
 46
0.0
 47
0.0
 48
0.0
 49
0.0
140
0.0
141
0.0
142
1.0
143
1.0
 70
  1712
 72
     0
 73
     0
 74
     0
  7

 75
     0
 76
     0
 77
     2
 78
   300
147
1.0
148
0.0
149
0.0
100
AcDbLayout
  1
Model
 70
     1
 71
     0
 10
0.0
 20
0.0
 11
12.0
 21
9.0
 12
0.0
 22
0.0
 32
0.0
 14
-15.06358
 24
-11.62954
 34
0.0
 15
-4.93642
 25
-8.82852
 35
0.0
146
0.0
 13
0.0
 23
0.0
 33
0.0
 16
1.0
 26
0.0
 36
0.0
 17
0.0
 27
1.0
 37
0.0
 76
     0
330
1F
331
29
  0
MATERIAL
  5
3D
102
{ACAD_REACTORS
330
3B
102
}
330
3B
100
AcDbMaterial
  1
ByBlock
 72
     1
 94
      127
  0
MATERIAL
  5
3C
102
{ACAD_REACTORS
330
3B
102
}
330
3B
100
AcDbMaterial
  1
ByLayer
 72
     1
 94
      127
  0
MATERIAL
  5
3E
102
{ACAD_REACTORS
330
3B
102
}
330
3B
100
AcDbMaterial
  1
Global
 72
     1
 94
      127
  0
MLINESTYLE
  5
18
102
{ACAD_REACTORS
330
17
102
}
330
17
100
AcDbMlineStyle
  2
Standard
 70
     0
  3

 62
   256
 51
90.0
 52
90.0
 71
     2
 49
0.5
 62
   256
  6
BYLAYER
 49
-0.5
 62
   256
  6
BYLAYER
  0
ACDBPLACEHOLDER
  5
F
102
{ACAD_REACTORS
330
E
102
}
330
E
  0
VISUALSTYLE
  5
2F
102
{ACAD_REACTORS
330
2A
102
}
102
{ACAD_XDICTIONARY
360
51
102
}
330
2A
100
AcDbVisualStyle
  2
2dWireframe
 70
     4
 71
     0
 72
     2
 73
     0
 90
        0
 40
-0.6
 41
-30.0
 62
     5
 63
     7
421
 16777215
 74
     1
 91
        4
 64
     7
 65
   257
 75
     1
175
     1
 42
1.0
 92
        0
 66
   257
 43
1.0
 76
     1
 77
     6
 78
     2
 67
     7
 79
     5
170
     0
171
     0
290
     0
174
     0
 93
        1
 44
0.0
173
     0
291
     0
 45
0.0
  0
VISUALSTYLE
  5
31
102
{ACAD_REACTORS
330
2A
102
}
102
{ACAD_XDICTIONARY
360
55
102
}
330
2A
100
AcDbVisualStyle
  2
3D Hidden
 70
     6
 71
     1
 72
     2
 73
     2
 90
        0
 40
-0.6
 41
-30.0
 62
     5
 63
     7
421
 16777215
 74
     2
 91
        2
 64
     7
 65
   257
 75
     2
175
     1
 42
40.0
 92
        0
 66
   257
 43
1.0
 76
     1
 77
     6
 78
     2
 67
     7
 79
     3
170
     0
171
     0
290
     0
174
     0
 93
        1
 44
0.0
173
     0
291
     0
 45
0.0
  0
VISUALSTYLE
  5
30
102
{ACAD_REACTORS
330
2A
102
}
102
{ACAD_XDICTIONARY
360
53
102
}
330
2A
100
AcDbVisualStyle
  2
3dWireframe
 70
     5
 71
     0
 72
     2
 73
     0
 90
        0
 40
-0.6
 41
-30.0
 62
     5
 63
     7
421
 16777215
 74
     1
 91
        4
 64
     7
 65
   257
 75
     1
175
     1
 42
1.0
 92
        0
 66
   257
 43
1.0
 76
     1
 77
     6
 78
     2
 67
     7
 79
     5
170
     0
171
     0
290
     0
174
     0
 93
        1
 44
0.0
173
     0
291
     0
 45
0.0
  0
VISUALSTYLE
  5
32
102
{ACAD_REACTORS
330
2A
102
}
102
{ACAD_XDICTIONARY
360
57
102
}
330
2A
100
AcDbVisualStyle
  2
Basic
 70
     7
 71
     1
 72
     0
 73
     1
 90
        0
 40
-0.6
 41
-30.0
 62
     5
 63
     7
421
 16777215
 74
     0
 91
        4
 64
     7
 65
   257
 75
     1
175
     1
 42
1.0
 92
        8
 66
     7
 43
1.0
 76
     1
 77
     6
 78
     2
 67
     7
 79
     5
170
     0
171
     0
290
     0
174
     0
 93
        1
 44
0.0
173
     0
291
     1
 45
0.0
  0
VISUALSTYLE
  5
36
102
{ACAD_REACTORS
330
2A
102
}
102
{ACAD_XDICTIONARY
360
5F
102
}
330
2A
100
AcDbVisualStyle
  2
Brighten
 70
    12
 71
     2
 72
     2
 73
     0
 90
        0
 40
-0.6
 41
-30.0
 62
     5
 63
     7
421
 16777215
 74
     1
 91
        4
 64
     7
 65
   257
 75
     1
175
     1
 42
1.0
 92
        8
 66
     7
 43
1.0
 76
     1
 77
     6
 78
     2
 67
     7
 79
     5
170
     0
171
     0
290
     0
174
     0
 93
        1
 44
50.0
173
     0
291
     1
 45
0.0
  0
VISUALSTYLE
  5
3A
102
{ACAD_REACTORS
330
2A
102
}
102
{ACAD_XDICTIONARY
360
67
102
}
330
2A
100
AcDbVisualStyle
  2
ColorChange
 70
    16
 71
     2
 72
     2
 73
     3
 90
        0
 40
-0.6
 41
-30.0
 62
     5
 63
     8
421
  8421504
 74
     1
 91
        4
 64
     7
 65
   257
 75
     1
175
     1
 42
1.0
 92
        8
 66
     8
424
  8421504
 43
1.0
 76
     1
 77
     6
 78
     2
 67
     7
 79
     5
170
     0
171
     0
290
     0
174
     0
 93
        1
 44
0.0
173
     0
291
     1
 45
0.0
  0
VISUALSTYLE
  5
34
102
{ACAD_REACTORS
330
2A
102
}
102
{ACAD_XDICTIONARY
360
5B
102
}
330
2A
100
AcDbVisualStyle
  2
Conceptual
 70
     9
 71
     3
 72
     2
 73
     0
 90
        0
 40
-0.6
 41
-30.0
 62
     5
 63
     7
421
 16777215
 74
     2
 91
        2
 64
     7
 65
   257
 75
     1
175
     1
 42
40.0
 92
        8
 66
     7
 43
1.0
 76
     1
 77
     6
 78
     2
 67
     7
 79
     3
170
     0
171
     0
290
     0
174
     0
 93
        1
 44
0.0
173
     0
291
     0
 45
0.0
  0
VISUALSTYLE
  5
35
102
{ACAD_REACTORS
330
2A
102
}
102
{ACAD_XDICTIONARY
360
5D
102
}
330
2A
100
AcDbVisualStyle
  2
Dim
 70
    11
 71
     2
 72
     2
 73
     0
 90
        0
 40
-0.6
 41
-30.0
 62
     5
 63
     7
421
 16777215
 74
     1
 91
        4
 64
     7
 65
   257
 75
     1
175
     1
 42
1.0
 92
        8
 66
     7
 43
1.0
 76
     1
 77
     6
 78
     2
 67
     7
 79
     5
170
     0
171
     0
290
     0
174
     0
 93
        1
 44
-50.0
173
     0
291
     1
 45
0.0
  0
VISUALSTYLE
  5
39
102
{ACAD_REACTORS
330
2A
102
}
102
{ACAD_XDICTIONARY
360
65
102
}
330
2A
100
AcDbVisualStyle
  2
Facepattern
 70
    15
 71
     2
 72
     2
 73
     0
 90
        0
 40
-0.6
 41
-30.0
 62
     5
 63
     7
421
 16777215
 74
     1
 91
        4
 64
     7
 65
   257
 75
     1
175
     1
 42
1.0
 92
        8
 66
     7
 43
1.0
 76
     1
 77
     6
 78
     2
 67
     7
 79
     5
170
     0
171
     0
290
     0
174
     0
 93
        1
 44
0.0
173
     0
291
     1
 45
0.0
  0
VISUALSTYLE
  5
2B
102
{ACAD_REACTORS
330
2A
102
}
102
{ACAD_XDICTIONARY
360
49
102
}
330
2A
100
AcDbVisualStyle
  2
Flat
 70
     0
 71
     2
 72
     1
 73
     1
 90
        2
 40
-0.6
 41
30.0
 62
     5
 63
     7
421
 16777215
 74
     0
 91
        4
 64
     7
 65
   257
 75
     1
175
     1
 42
1.0
 92
        8
 66
     7
 43
1.0
 76
     1
 77
     6
 78
     2
 67
     7
 79
     5
170
     0
171
     0
290
     0
174
     0
 93
       13
 44
0.0
173
     0
291
     1
 45
0.0
  0
VISUALSTYLE
  5
2C
102
{ACAD_REACTORS
330
2A
102
}
102
{ACAD_XDICTIONARY
360
4B
102
}
330
2A
100
AcDbVisualStyle
  2
FlatWithEdges
 70
     1
 71
     2
 72
     1
 73
     1
 90
        2
 40
-0.6
 41
30.0
 62
     5
 63
     7
421
 16777215
 74
     1
 91
        4
 64
     7
 65
   257
 75
     1
175
     1
 42
1.0
 92
        0
 66
   257
 43
1.0
 76
     1
 77
     6
 78
     2
 67
     7
 79
     5
170
     0
171
     0
290
     0
174
     0
 93
       13
 44
0.0
173
     0
291
     1
 45
0.0
  0
VISUALSTYLE
  5
2D
102
{ACAD_REACTORS
330
2A
102
}
102
{ACAD_XDICTIONARY
360
4D
102
}
330
2A
100
AcDbVisualStyle
  2
Gouraud
 70
     2
 71
     2
 72
     2
 73
     1
 90
        2
 40
-0.6
 41
30.0
 62
     5
 63
     7
421
 16777215
 74
     0
 91
        4
 64
     7
 65
   257
 75
     1
175
     1
 42
1.0
 92
        0
 66
     7
 43
1.0
 76
     1
 77
     6
 78
     2
 67
     7
 79
     5
170
     0
171
     0
290
     0
174
     0
 93
       13
 44
0.0
173
     0
291
     1
 45
0.0
  0
VISUALSTYLE
  5
2E
102
{ACAD_REACTORS
330
2A
102
}
102
{ACAD_XDICTIONARY
360
4F
102
}
330
2A
100
AcDbVisualStyle
  2
GouraudWithEdges
 70
     3
 71
     2
 72
     2
 73
     1
 90
        2
 40
-0.6
 41
30.0
 62
     5
 63
     7
421
 16777215
 74
     1
 91
        4
 64
     7
 65
   257
 75
     1
175
     1
 42
1.0
 92
        0
 66
   257
 43
1.0
 76
     1
 77
     6
 78
     2
 67
     7
 79
     5
170
     0
171
     0
290
     0
174
     0
 93
       13
 44
0.0
173
     0
291
     1
 45
0.0
  0
VISUALSTYLE
  5
38
102
{ACAD_REACTORS
330
2A
102
}
102
{ACAD_XDICTIONARY
360
63
102
}
330
2A
100
AcDbVisualStyle
  2
Linepattern
 70
    14
 71
     2
 72
     2
 73
     0
 90
        0
 40
-0.6
 41
-30.0
 62
     5
 63
     7
421
 16777215
 74
     1
 91
        4
 64
     7
 65
   257
 75
     7
175
     7
 42
1.0
 92
        8
 66
     7
 43
1.0
 76
     1
 77
     6
 78
     2
 67
     7
 79
     5
170
     0
171
     0
290
     0
174
     0
 93
        1
 44
0.0
173
     0
291
     1
 45
0.0
  0
VISUALSTYLE
  5
33
102
{ACAD_REACTORS
330
2A
102
}
102
{ACAD_XDICTIONARY
360
59
102
}
330
2A
100
AcDbVisualStyle
  2
Realistic
 70
     8
 71
     2
 72
     2
 73
     0
 90
        0
 40
-0.6
 41
-30.0
 62
     5
 63
     7
421
 16777215
 74
     1
 91
        0
 64
     7
 65
   257
 75
     1
175
     1
 42
1.0
 92
        8
 66
     8
424
  7895160
 43
1.0
 76
     1
 77
     6
 78
     2
 67
     7
 79
     5
170
     0
171
     0
290
     0
174
     0
 93
       13
 44
0.0
173
     0
291
     0
 45
0.0
  0
VISUALSTYLE
  5
37
102
{ACAD_REACTORS
330
2A
102
}
102
{ACAD_XDICTIONARY
360
61
102
}
330
2A
100
AcDbVisualStyle
  2
Thicken
 70
    13
 71
     2
 72
     2
 73
     0
 90
        0
 40
-0.6
 41
-30.0
 62
     5
 63
     7
421
 16777215
 74
     1
 91
        4
 64
     7
 65
   257
 75
     1
175
     1
 42
1.0
 92
       12
 66
     7
 43
1.0
 76
     1
 77
     6
 78
     2
 67
     7
 79
     5
170
     0
171
     0
290
     0
174
     0
 93
        1
 44
0.0
173
     0
291
     1
 45
0.0
  0
DICTIONARY
  5
51
330
2F
100
AcDbDictionary
280
     1
281
     1
  3
ACAD_XREC_ROUNDTRIP
360
52
  0
DICTIONARY
  5
55
330
31
100
AcDbDictionary
280
     1
281
     1
  3
ACAD_XREC_ROUNDTRIP
360
56
  0
DICTIONARY
  5
53
330
30
100
AcDbDictionary
280
     1
281
     1
  3
ACAD_XREC_ROUNDTRIP
360
54
  0
DICTIONARY
  5
57
330
32
100
AcDbDictionary
280
     1
281
     1
  3
ACAD_XREC_ROUNDTRIP
360
58
  0
DICTIONARY
  5
5F
330
36
100
AcDbDictionary
280
     1
281
     1
  3
ACAD_XREC_ROUNDTRIP
360
60
  0
DICTIONARY
  5
67
330
3A
100
AcDbDictionary
280
     1
281
     1
  3
ACAD_XREC_ROUNDTRIP
360
68
  0
DICTIONARY
  5
5B
330
34
100
AcDbDictionary
280
     1
281
     1
  3
ACAD_XREC_ROUNDTRIP
360
5C
  0
DICTIONARY
  5
5D
330
35
100
AcDbDictionary
280
     1
281
     1
  3
ACAD_XREC_ROUNDTRIP
360
5E
  0
DICTIONARY
  5
65
330
39
100
AcDbDictionary
280
     1
281
     1
  3
ACAD_XREC_ROUNDTRIP
360
66
  0
DICTIONARY
  5
49
330
2B
100
AcDbDictionary
280
     1
281
     1
  3
ACAD_XREC_ROUNDTRIP
360
4A
  0
DICTIONARY
  5
4B
330
2C
100
AcDbDictionary
280
     1
281
     1
  3
ACAD_XREC_ROUNDTRIP
360
4C
  0
DICTIONARY
  5
4D
330
2D
100
AcDbDictionary
280
     1
281
     1
  3
ACAD_XREC_ROUNDTRIP
360
4E
  0
DICTIONARY
  5
4F
330
2E
100
AcDbDictionary
280
     1
281
     1
  3
ACAD_XREC_ROUNDTRIP
360
50
  0
DICTIONARY
  5
63
330
38
100
AcDbDictionary
280
     1
281
     1
  3
ACAD_XREC_ROUNDTRIP
360
64
  0
DICTIONARY
  5
59
330
33
100
AcDbDictionary
280
     1
281
     1
  3
ACAD_XREC_ROUNDTRIP
360
5A
  0
DICTIONARY
  5
61
330
37
100
AcDbDictionary
280
     1
281
     1
  3
ACAD_XREC_ROUNDTRIP
360
62
  0
XRECORD
  5
52
102
{ACAD_REACTORS
330
51
102
}
330
51
100
AcDbXrecord
280
     1
102
RTVSPropertyOp0
 70
     1
102
RTVSPropertyOp1
 70
     1
102
RTVSPropertyOp2
 70
     1
102
RTVSPropertyOp3
 70
     1
102
RTVSPropertyOp4
 70
     1
102
RTVSPropertyOp5
 70
     1
102
RTVSPropertyOp6
 70
     1
102
RTVSPropertyOp7
 70
     1
102
RTVSPropertyOp8
 70
     1
102
RTVSPropertyOp9
 70
     1
102
RTVSPropertyOp10
 70
     1
102
RTVSPropertyOp11
 70
     1
102
RTVSPropertyOp12
 70
     1
102
RTVSPropertyOp13
 70
     1
102
RTVSPropertyOp14
 70
     1
102
RTVSPropertyOp15
 70
     1
102
RTVSPropertyOp16
 70
     1
102
RTVSPropertyOp17
 70
     1
102
RTVSPropertyOp18
 70
     1
102
RTVSPropertyOp19
 70
     1
102
RTVSPropertyOp20
 70
     1
102
RTVSPropertyOp21
 70
     1
102
RTVSPropertyOp22
 70
     1
102
RTVSPropertyOp23
 70
     1
102
RTVSPropertyOp24
 70
     1
102
RTVSPropertyOp25
 70
     1
102
RTVSPropertyOp26
 70
     1
102
RTVSPropertyOp27
 70
     1
102
RTVSPropertyOp28
 70
     1
102
RTVSPropertyOp29
 70
     1
102
RTVSPropertyOp30
 70
     1
102
RTVSPropertyOp31
 70
     1
102
RTVSPropertyOp32
 70
     1
  0
XRECORD
  5
56
102
{ACAD_REACTORS
330
55
102
}
330
55
100
AcDbXrecord
280
     1
102
RTVSPropertyOp0
 70
     1
102
RTVSPropertyOp1
 70
     1
102
RTVSPropertyOp2
 70
     1
102
RTVSPropertyOp3
 70
     1
102
RTVSPropertyOp4
 70
     1
102
RTVSPropertyOp5
 70
     1
102
RTVSPropertyOp6
 70
     1
102
RTVSPropertyOp7
 70
     1
102
RTVSPropertyOp8
 70
     1
102
RTVSPropertyOp9
 70
     1
102
RTVSPropertyOp10
 70
     1
102
RTVSPropertyOp11
 70
     1
102
RTVSPropertyOp12
 70
     1
102
RTVSPropertyOp13
 70
     1
102
RTVSPropertyOp14
 70
     1
102
RTVSPropertyOp15
 70
     1
102
RTVSPropertyOp16
 70
     1
102
RTVSPropertyOp17
 70
     1
102
RTVSPropertyOp18
 70
     1
102
RTVSPropertyOp19
 70
     1
102
RTVSPropertyOp20
 70
     1
102
RTVSPropertyOp21
 70
     1
102
RTVSPropertyOp22
 70
     1
102
RTVSPropertyOp23
 70
     1
102
RTVSPropertyOp24
 70
     1
102
RTVSPropertyOp25
 70
     1
102
RTVSPropertyOp26
 70
     1
102
RTVSPropertyOp27
 70
     1
102
RTVSPropertyOp28
 70
     1
102
RTVSPropertyOp29
 70
     1
102
RTVSPropertyOp30
 70
     1
102
RTVSPropertyOp31
 70
     1
102
RTVSPropertyOp32
 70
     1
  0
XRECORD
  5
54
102
{ACAD_REACTORS
330
53
102
}
330
53
100
AcDbXrecord
280
     1
102
RTVSPropertyOp0
 70
     1
102
RTVSPropertyOp1
 70
     1
102
RTVSPropertyOp2
 70
     1
102
RTVSPropertyOp3
 70
     1
102
RTVSPropertyOp4
 70
     1
102
RTVSPropertyOp5
 70
     1
102
RTVSPropertyOp6
 70
     1
102
RTVSPropertyOp7
 70
     1
102
RTVSPropertyOp8
 70
     1
102
RTVSPropertyOp9
 70
     1
102
RTVSPropertyOp10
 70
     1
102
RTVSPropertyOp11
 70
     1
102
RTVSPropertyOp12
 70
     1
102
RTVSPropertyOp13
 70
     1
102
RTVSPropertyOp14
 70
     1
102
RTVSPropertyOp15
 70
     1
102
RTVSPropertyOp16
 70
     1
102
RTVSPropertyOp17
 70
     1
102
RTVSPropertyOp18
 70
     1
102
RTVSPropertyOp19
 70
     1
102
RTVSPropertyOp20
 70
     1
102
RTVSPropertyOp21
 70
     1
102
RTVSPropertyOp22
 70
     1
102
RTVSPropertyOp23
 70
     1
102
RTVSPropertyOp24
 70
     1
102
RTVSPropertyOp25
 70
     1
102
RTVSPropertyOp26
 70
     1
102
RTVSPropertyOp27
 70
     1
102
RTVSPropertyOp28
 70
     1
102
RTVSPropertyOp29
 70
     1
102
RTVSPropertyOp30
 70
     1
102
RTVSPropertyOp31
 70
     1
102
RTVSPropertyOp32
 70
     1
  0
XRECORD
  5
58
102
{ACAD_REACTORS
330
57
102
}
330
57
100
AcDbXrecord
280
     1
102
RTVSPropertyOp0
 70
     1
102
RTVSPropertyOp1
 70
     1
102
RTVSPropertyOp2
 70
     1
102
RTVSPropertyOp3
 70
     1
102
RTVSPropertyOp4
 70
     1
102
RTVSPropertyOp5
 70
     1
102
RTVSPropertyOp6
 70
     1
102
RTVSPropertyOp7
 70
     1
102
RTVSPropertyOp8
 70
     1
102
RTVSPropertyOp9
 70
     1
102
RTVSPropertyOp10
 70
     1
102
RTVSPropertyOp11
 70
     1
102
RTVSPropertyOp12
 70
     1
102
RTVSPropertyOp13
 70
     1
102
RTVSPropertyOp14
 70
     1
102
RTVSPropertyOp15
 70
     1
102
RTVSPropertyOp16
 70
     1
102
RTVSPropertyOp17
 70
     1
102
RTVSPropertyOp18
 70
     1
102
RTVSPropertyOp19
 70
     1
102
RTVSPropertyOp20
 70
     1
102
RTVSPropertyOp21
 70
     1
102
RTVSPropertyOp22
 70
     1
102
RTVSPropertyOp23
 70
     1
102
RTVSPropertyOp24
 70
     1
102
RTVSPropertyOp25
 70
     1
102
RTVSPropertyOp26
 70
     1
102
RTVSPropertyOp27
 70
     1
102
RTVSPropertyOp28
 70
     1
102
RTVSPropertyOp29
 70
     1
102
RTVSPropertyOp30
 70
     1
102
RTVSPropertyOp31
 70
     1
102
RTVSPropertyOp32
 70
     1
  0
XRECORD
  5
60
102
{ACAD_REACTORS
330
5F
102
}
330
5F
100
AcDbXrecord
280
     1
102
RTVSPropertyOp0
 70
     1
102
RTVSPropertyOp1
 70
     1
102
RTVSPropertyOp2
 70
     1
102
RTVSPropertyOp3
 70
     1
102
RTVSPropertyOp4
 70
     1
102
RTVSPropertyOp5
 70
     1
102
RTVSPropertyOp6
 70
     1
102
RTVSPropertyOp7
 70
     1
102
RTVSPropertyOp8
 70
     1
102
RTVSPropertyOp9
 70
     1
102
RTVSPropertyOp10
 70
     1
102
RTVSPropertyOp11
 70
     1
102
RTVSPropertyOp12
 70
     1
102
RTVSPropertyOp13
 70
     1
102
RTVSPropertyOp14
 70
     1
102
RTVSPropertyOp15
 70
     1
102
RTVSPropertyOp16
 70
     1
102
RTVSPropertyOp17
 70
     1
102
RTVSPropertyOp18
 70
     1
102
RTVSPropertyOp19
 70
     1
102
RTVSPropertyOp20
 70
     1
102
RTVSPropertyOp21
 70
     1
102
RTVSPropertyOp22
 70
     1
102
RTVSPropertyOp23
 70
     1
102
RTVSPropertyOp24
 70
     1
102
RTVSPropertyOp25
 70
     1
102
RTVSPropertyOp26
 70
     1
102
RTVSPropertyOp27
 70
     1
102
RTVSPropertyOp28
 70
     1
102
RTVSPropertyOp29
 70
     1
102
RTVSPropertyOp30
 70
     1
102
RTVSPropertyOp31
 70
     1
102
RTVSPropertyOp32
 70
     1
  0
XRECORD
  5
68
102
{ACAD_REACTORS
330
67
102
}
330
67
100
AcDbXrecord
280
     1
102
RTVSPropertyOp0
 70
     1
102
RTVSPropertyOp1
 70
     1
102
RTVSPropertyOp2
 70
     1
102
RTVSPropertyOp3
 70
     1
102
RTVSPropertyOp4
 70
     1
102
RTVSPropertyOp5
 70
     1
102
RTVSPropertyOp6
 70
     1
102
RTVSPropertyOp7
 70
     1
102
RTVSPropertyOp8
 70
     1
102
RTVSPropertyOp9
 70
     1
102
RTVSPropertyOp10
 70
     1
102
RTVSPropertyOp11
 70
     1
102
RTVSPropertyOp12
 70
     1
102
RTVSPropertyOp13
 70
     1
102
RTVSPropertyOp14
 70
     1
102
RTVSPropertyOp15
 70
     1
102
RTVSPropertyOp16
 70
     1
102
RTVSPropertyOp17
 70
     1
102
RTVSPropertyOp18
 70
     1
102
RTVSPropertyOp19
 70
     1
102
RTVSPropertyOp20
 70
     1
102
RTVSPropertyOp21
 70
     1
102
RTVSPropertyOp22
 70
     1
102
RTVSPropertyOp23
 70
     1
102
RTVSPropertyOp24
 70
     1
102
RTVSPropertyOp25
 70
     1
102
RTVSPropertyOp26
 70
     1
102
RTVSPropertyOp27
 70
     1
102
RTVSPropertyOp28
 70
     1
102
RTVSPropertyOp29
 70
     1
102
RTVSPropertyOp30
 70
     1
102
RTVSPropertyOp31
 70
     1
102
RTVSPropertyOp32
 70
     1
  0
XRECORD
  5
5C
102
{ACAD_REACTORS
330
5B
102
}
330
5B
100
AcDbXrecord
280
     1
102
RTVSPropertyOp0
 70
     1
102
RTVSPropertyOp1
 70
     1
102
RTVSPropertyOp2
 70
     1
102
RTVSPropertyOp3
 70
     1
102
RTVSPropertyOp4
 70
     1
102
RTVSPropertyOp5
 70
     1
102
RTVSPropertyOp6
 70
     1
102
RTVSPropertyOp7
 70
     1
102
RTVSPropertyOp8
 70
     1
102
RTVSPropertyOp9
 70
     1
102
RTVSPropertyOp10
 70
     1
102
RTVSPropertyOp11
 70
     1
102
RTVSPropertyOp12
 70
     1
102
RTVSPropertyOp13
 70
     1
102
RTVSPropertyOp14
 70
     1
102
RTVSPropertyOp15
 70
     1
102
RTVSPropertyOp16
 70
     1
102
RTVSPropertyOp17
 70
     1
102
RTVSPropertyOp18
 70
     1
102
RTVSPropertyOp19
 70
     1
102
RTVSPropertyOp20
 70
     1
102
RTVSPropertyOp21
 70
     1
102
RTVSPropertyOp22
 70
     1
102
RTVSPropertyOp23
 70
     1
102
RTVSPropertyOp24
 70
     1
102
RTVSPropertyOp25
 70
     1
102
RTVSPropertyOp26
 70
     1
102
RTVSPropertyOp27
 70
     1
102
RTVSPropertyOp28
 70
     1
102
RTVSPropertyOp29
 70
     1
102
RTVSPropertyOp30
 70
     1
102
RTVSPropertyOp31
 70
     1
102
RTVSPropertyOp32
 70
     1
  0
XRECORD
  5
5E
102
{ACAD_REACTORS
330
5D
102
}
330
5D
100
AcDbXrecord
280
     1
102
RTVSPropertyOp0
 70
     1
102
RTVSPropertyOp1
 70
     1
102
RTVSPropertyOp2
 70
     1
102
RTVSPropertyOp3
 70
     1
102
RTVSPropertyOp4
 70
     1
102
RTVSPropertyOp5
 70
     1
102
RTVSPropertyOp6
 70
     1
102
RTVSPropertyOp7
 70
     1
102
RTVSPropertyOp8
 70
     1
102
RTVSPropertyOp9
 70
     1
102
RTVSPropertyOp10
 70
     1
102
RTVSPropertyOp11
 70
     1
102
RTVSPropertyOp12
 70
     1
102
RTVSPropertyOp13
 70
     1
102
RTVSPropertyOp14
 70
     1
102
RTVSPropertyOp15
 70
     1
102
RTVSPropertyOp16
 70
     1
102
RTVSPropertyOp17
 70
     1
102
RTVSPropertyOp18
 70
     1
102
RTVSPropertyOp19
 70
     1
102
RTVSPropertyOp20
 70
     1
102
RTVSPropertyOp21
 70
     1
102
RTVSPropertyOp22
 70
     1
102
RTVSPropertyOp23
 70
     1
102
RTVSPropertyOp24
 70
     1
102
RTVSPropertyOp25
 70
     1
102
RTVSPropertyOp26
 70
     1
102
RTVSPropertyOp27
 70
     1
102
RTVSPropertyOp28
 70
     1
102
RTVSPropertyOp29
 70
     1
102
RTVSPropertyOp30
 70
     1
102
RTVSPropertyOp31
 70
     1
102
RTVSPropertyOp32
 70
     1
  0
XRECORD
  5
66
102
{ACAD_REACTORS
330
65
102
}
330
65
100
AcDbXrecord
280
     1
102
RTVSPropertyOp0
 70
     1
102
RTVSPropertyOp1
 70
     1
102
RTVSPropertyOp2
 70
     1
102
RTVSPropertyOp3
 70
     1
102
RTVSPropertyOp4
 70
     1
102
RTVSPropertyOp5
 70
     1
102
RTVSPropertyOp6
 70
     1
102
RTVSPropertyOp7
 70
     1
102
RTVSPropertyOp8
 70
     1
102
RTVSPropertyOp9
 70
     1
102
RTVSPropertyOp10
 70
     1
102
RTVSPropertyOp11
 70
     1
102
RTVSPropertyOp12
 70
     1
102
RTVSPropertyOp13
 70
     1
102
RTVSPropertyOp14
 70
     1
102
RTVSPropertyOp15
 70
     1
102
RTVSPropertyOp16
 70
     1
102
RTVSPropertyOp17
 70
     1
102
RTVSPropertyOp18
 70
     1
102
RTVSPropertyOp19
 70
     1
102
RTVSPropertyOp20
 70
     1
102
RTVSPropertyOp21
 70
     1
102
RTVSPropertyOp22
 70
     1
102
RTVSPropertyOp23
 70
     1
102
RTVSPropertyOp24
 70
     1
102
RTVSPropertyOp25
 70
     1
102
RTVSPropertyOp26
 70
     1
102
RTVSPropertyOp27
 70
     1
102
RTVSPropertyOp28
 70
     1
102
RTVSPropertyOp29
 70
     1
102
RTVSPropertyOp30
 70
     1
102
RTVSPropertyOp31
 70
     1
102
RTVSPropertyOp32
 70
     1
  0
XRECORD
  5
4A
102
{ACAD_REACTORS
330
49
102
}
330
49
100
AcDbXrecord
280
     1
102
RTVSPropertyOp0
 70
     1
102
RTVSPropertyOp1
 70
     1
102
RTVSPropertyOp2
 70
     1
102
RTVSPropertyOp3
 70
     1
102
RTVSPropertyOp4
 70
     1
102
RTVSPropertyOp5
 70
     1
102
RTVSPropertyOp6
 70
     1
102
RTVSPropertyOp7
 70
     1
102
RTVSPropertyOp8
 70
     1
102
RTVSPropertyOp9
 70
     1
102
RTVSPropertyOp10
 70
     1
102
RTVSPropertyOp11
 70
     1
102
RTVSPropertyOp12
 70
     1
102
RTVSPropertyOp13
 70
     1
102
RTVSPropertyOp14
 70
     1
102
RTVSPropertyOp15
 70
     1
102
RTVSPropertyOp16
 70
     1
102
RTVSPropertyOp17
 70
     1
102
RTVSPropertyOp18
 70
     1
102
RTVSPropertyOp19
 70
     1
102
RTVSPropertyOp20
 70
     1
102
RTVSPropertyOp21
 70
     1
102
RTVSPropertyOp22
 70
     1
102
RTVSPropertyOp23
 70
     1
102
RTVSPropertyOp24
 70
     1
102
RTVSPropertyOp25
 70
     1
102
RTVSPropertyOp26
 70
     1
102
RTVSPropertyOp27
 70
     1
102
RTVSPropertyOp28
 70
     1
102
RTVSPropertyOp29
 70
     1
102
RTVSPropertyOp30
 70
     1
102
RTVSPropertyOp31
 70
     1
102
RTVSPropertyOp32
 70
     1
  0
XRECORD
  5
4C
102
{ACAD_REACTORS
330
4B
102
}
330
4B
100
AcDbXrecord
280
     1
102
RTVSPropertyOp0
 70
     1
102
RTVSPropertyOp1
 70
     1
102
RTVSPropertyOp2
 70
     1
102
RTVSPropertyOp3
 70
     1
102
RTVSPropertyOp4
 70
     1
102
RTVSPropertyOp5
 70
     1
102
RTVSPropertyOp6
 70
     1
102
RTVSPropertyOp7
 70
     1
102
RTVSPropertyOp8
 70
     1
102
RTVSPropertyOp9
 70
     1
102
RTVSPropertyOp10
 70
     1
102
RTVSPropertyOp11
 70
     1
102
RTVSPropertyOp12
 70
     1
102
RTVSPropertyOp13
 70
     1
102
RTVSPropertyOp14
 70
     1
102
RTVSPropertyOp15
 70
     1
102
RTVSPropertyOp16
 70
     1
102
RTVSPropertyOp17
 70
     1
102
RTVSPropertyOp18
 70
     1
102
RTVSPropertyOp19
 70
     1
102
RTVSPropertyOp20
 70
     1
102
RTVSPropertyOp21
 70
     1
102
RTVSPropertyOp22
 70
     1
102
RTVSPropertyOp23
 70
     1
102
RTVSPropertyOp24
 70
     1
102
RTVSPropertyOp25
 70
     1
102
RTVSPropertyOp26
 70
     1
102
RTVSPropertyOp27
 70
     1
102
RTVSPropertyOp28
 70
     1
102
RTVSPropertyOp29
 70
     1
102
RTVSPropertyOp30
 70
     1
102
RTVSPropertyOp31
 70
     1
102
RTVSPropertyOp32
 70
     1
  0
XRECORD
  5
4E
102
{ACAD_REACTORS
330
4D
102
}
330
4D
100
AcDbXrecord
280
     1
102
RTVSPropertyOp0
 70
     1
102
RTVSPropertyOp1
 70
     1
102
RTVSPropertyOp2
 70
     1
102
RTVSPropertyOp3
 70
     1
102
RTVSPropertyOp4
 70
     1
102
RTVSPropertyOp5
 70
     1
102
RTVSPropertyOp6
 70
     1
102
RTVSPropertyOp7
 70
     1
102
RTVSPropertyOp8
 70
     1
102
RTVSPropertyOp9
 70
     1
102
RTVSPropertyOp10
 70
     1
102
RTVSPropertyOp11
 70
     1
102
RTVSPropertyOp12
 70
     1
102
RTVSPropertyOp13
 70
     1
102
RTVSPropertyOp14
 70
     1
102
RTVSPropertyOp15
 70
     1
102
RTVSPropertyOp16
 70
     1
102
RTVSPropertyOp17
 70
     1
102
RTVSPropertyOp18
 70
     1
102
RTVSPropertyOp19
 70
     1
102
RTVSPropertyOp20
 70
     1
102
RTVSPropertyOp21
 70
     1
102
RTVSPropertyOp22
 70
     1
102
RTVSPropertyOp23
 70
     1
102
RTVSPropertyOp24
 70
     1
102
RTVSPropertyOp25
 70
     1
102
RTVSPropertyOp26
 70
     1
102
RTVSPropertyOp27
 70
     1
102
RTVSPropertyOp28
 70
     1
102
RTVSPropertyOp29
 70
     1
102
RTVSPropertyOp30
 70
     1
102
RTVSPropertyOp31
 70
     1
102
RTVSPropertyOp32
 70
     1
  0
XRECORD
  5
50
102
{ACAD_REACTORS
330
4F
102
}
330
4F
100
AcDbXrecord
280
     1
102
RTVSPropertyOp0
 70
     1
102
RTVSPropertyOp1
 70
     1
102
RTVSPropertyOp2
 70
     1
102
RTVSPropertyOp3
 70
     1
102
RTVSPropertyOp4
 70
     1
102
RTVSPropertyOp5
 70
     1
102
RTVSPropertyOp6
 70
     1
102
RTVSPropertyOp7
 70
     1
102
RTVSPropertyOp8
 70
     1
102
RTVSPropertyOp9
 70
     1
102
RTVSPropertyOp10
 70
     1
102
RTVSPropertyOp11
 70
     1
102
RTVSPropertyOp12
 70
     1
102
RTVSPropertyOp13
 70
     1
102
RTVSPropertyOp14
 70
     1
102
RTVSPropertyOp15
 70
     1
102
RTVSPropertyOp16
 70
     1
102
RTVSPropertyOp17
 70
     1
102
RTVSPropertyOp18
 70
     1
102
RTVSPropertyOp19
 70
     1
102
RTVSPropertyOp20
 70
     1
102
RTVSPropertyOp21
 70
     1
102
RTVSPropertyOp22
 70
     1
102
RTVSPropertyOp23
 70
     1
102
RTVSPropertyOp24
 70
     1
102
RTVSPropertyOp25
 70
     1
102
RTVSPropertyOp26
 70
     1
102
RTVSPropertyOp27
 70
     1
102
RTVSPropertyOp28
 70
     1
102
RTVSPropertyOp29
 70
     1
102
RTVSPropertyOp30
 70
     1
102
RTVSPropertyOp31
 70
     1
102
RTVSPropertyOp32
 70
     1
  0
XRECORD
  5
64
102
{ACAD_REACTORS
330
63
102
}
330
63
100
AcDbXrecord
280
     1
102
RTVSPropertyOp0
 70
     1
102
RTVSPropertyOp1
 70
     1
102
RTVSPropertyOp2
 70
     1
102
RTVSPropertyOp3
 70
     1
102
RTVSPropertyOp4
 70
     1
102
RTVSPropertyOp5
 70
     1
102
RTVSPropertyOp6
 70
     1
102
RTVSPropertyOp7
 70
     1
102
RTVSPropertyOp8
 70
     1
102
RTVSPropertyOp9
 70
     1
102
RTVSPropertyOp10
 70
     1
102
RTVSPropertyOp11
 70
     1
102
RTVSPropertyOp12
 70
     1
102
RTVSPropertyOp13
 70
     1
102
RTVSPropertyOp14
 70
     1
102
RTVSPropertyOp15
 70
     1
102
RTVSPropertyOp16
 70
     1
102
RTVSPropertyOp17
 70
     1
102
RTVSPropertyOp18
 70
     1
102
RTVSPropertyOp19
 70
     1
102
RTVSPropertyOp20
 70
     1
102
RTVSPropertyOp21
 70
     1
102
RTVSPropertyOp22
 70
     1
102
RTVSPropertyOp23
 70
     1
102
RTVSPropertyOp24
 70
     1
102
RTVSPropertyOp25
 70
     1
102
RTVSPropertyOp26
 70
     1
102
RTVSPropertyOp27
 70
     1
102
RTVSPropertyOp28
 70
     1
102
RTVSPropertyOp29
 70
     1
102
RTVSPropertyOp30
 70
     1
102
RTVSPropertyOp31
 70
     1
102
RTVSPropertyOp32
 70
     1
  0
XRECORD
  5
5A
102
{ACAD_REACTORS
330
59
102
}
330
59
100
AcDbXrecord
280
     1
102
RTVSPropertyOp0
 70
     1
102
RTVSPropertyOp1
 70
     1
102
RTVSPropertyOp2
 70
     1
102
RTVSPropertyOp3
 70
     1
102
RTVSPropertyOp4
 70
     1
102
RTVSPropertyOp5
 70
     1
102
RTVSPropertyOp6
 70
     1
102
RTVSPropertyOp7
 70
     1
102
RTVSPropertyOp8
 70
     1
102
RTVSPropertyOp9
 70
     1
102
RTVSPropertyOp10
 70
     1
102
RTVSPropertyOp11
 70
     1
102
RTVSPropertyOp12
 70
     1
102
RTVSPropertyOp13
 70
     1
102
RTVSPropertyOp14
 70
     1
102
RTVSPropertyOp15
 70
     1
102
RTVSPropertyOp16
 70
     1
102
RTVSPropertyOp17
 70
     1
102
RTVSPropertyOp18
 70
     1
102
RTVSPropertyOp19
 70
     1
102
RTVSPropertyOp20
 70
     1
102
RTVSPropertyOp21
 70
     1
102
RTVSPropertyOp22
 70
     1
102
RTVSPropertyOp23
 70
     1
102
RTVSPropertyOp24
 70
     1
102
RTVSPropertyOp25
 70
     1
102
RTVSPropertyOp26
 70
     1
102
RTVSPropertyOp27
 70
     1
102
RTVSPropertyOp28
 70
     1
102
RTVSPropertyOp29
 70
     1
102
RTVSPropertyOp30
 70
     1
102
RTVSPropertyOp31
 70
     1
102
RTVSPropertyOp32
 70
     1
  0
XRECORD
  5
62
102
{ACAD_REACTORS
330
61
102
}
330
61
100
AcDbXrecord
280
     1
102
RTVSPropertyOp0
 70
     1
102
RTVSPropertyOp1
 70
     1
102
RTVSPropertyOp2
 70
     1
102
RTVSPropertyOp3
 70
     1
102
RTVSPropertyOp4
 70
     1
102
RTVSPropertyOp5
 70
     1
102
RTVSPropertyOp6
 70
     1
102
RTVSPropertyOp7
 70
     1
102
RTVSPropertyOp8
 70
     1
102
RTVSPropertyOp9
 70
     1
102
RTVSPropertyOp10
 70
     1
102
RTVSPropertyOp11
 70
     1
102
RTVSPropertyOp12
 70
     1
102
RTVSPropertyOp13
 70
     1
102
RTVSPropertyOp14
 70
     1
102
RTVSPropertyOp15
 70
     1
102
RTVSPropertyOp16
 70
     1
102
RTVSPropertyOp17
 70
     1
102
RTVSPropertyOp18
 70
     1
102
RTVSPropertyOp19
 70
     1
102
RTVSPropertyOp20
 70
     1
102
RTVSPropertyOp21
 70
     1
102
RTVSPropertyOp22
 70
     1
102
RTVSPropertyOp23
 70
     1
102
RTVSPropertyOp24
 70
     1
102
RTVSPropertyOp25
 70
     1
102
RTVSPropertyOp26
 70
     1
102
RTVSPropertyOp27
 70
     1
102
RTVSPropertyOp28
 70
     1
102
RTVSPropertyOp29
 70
     1
102
RTVSPropertyOp30
 70
     1
102
RTVSPropertyOp31
 70
     1
102
RTVSPropertyOp32
 70
     1
  0
ENDSEC
  0
EOF
