  0
SECTION
  2
HEADER
  9
$ACADVER
  1
AC1021
  9
$ACADMAINTVER
 70
    25
  9
$DWGCODEPAGE
  3
ANSI_1252
  9
$INSBASE
 10
0.0
 20
0.0
 30
0.0
  9
$EXTMIN
 10
-5.44445
 20
-1.27238
 30
0.0
  9
$EXTMAX
 10
4.94445
 20
2.31817
 30
0.0
  9
$LIMMIN
 10
0.0
 20
0.0
  9
$LIMMAX
 10
12.0
 20
9.0
  9
$ORTHOMODE
 70
     0
  9
$REGENMODE
 70
     1
  9
$FILLMODE
 70
     1
  9
$QTEXTMODE
 70
     0
  9
$MIRRTEXT
 70
     1
  9
$LTSCALE
 40
1.0
  9
$ATTMODE
 70
     1
  9
$TEXTSIZE
 40
0.2
  9
$TRACEWID
 40
0.05
  9
$TEXTSTYLE
  7
Standard
  9
$CLAYER
  8
0
  9
$CELTYPE
  6
ByLayer
  9
$CECOLOR
 62
   256
  9
$CELTSCALE
 40
1.0
  9
$DISPSILH
 70
     0
  9
$DIMSCALE
 40
1.0
  9
$DIMASZ
 40
0.18
  9
$DIMEXO
 40
0.0625
  9
$DIMDLI
 40
0.38
  9
$DIMRND
 40
0.0
  9
$DIMDLE
 40
0.0
  9
$DIMEXE
 40
0.18
  9
$DIMTP
 40
0.0
  9
$DIMTM
 40
0.0
  9
$DIMTXT
 40
0.18
  9
$DIMCEN
 40
0.09
  9
$DIMTSZ
 40
0.0
  9
$DIMTOL
 70
     0
  9
$DIMLIM
 70
     0
  9
$DIMTIH
 70
     1
  9
$DIMTOH
 70
     1
  9
$DIMSE1
 70
     0
  9
$DIMSE2
 70
     0
  9
$DIMTAD
 70
     0
  9
$DIMZIN
 70
     0
  9
$DIMBLK
  1

  9
$DIMASO
 70
     1
  9
$DIMSHO
 70
     1
  9
$DIMPOST
  1

  9
$DIMAPOST
  1

  9
$DIMALT
 70
     0
  9
$DIMALTD
 70
     2
  9
$DIMALTF
 40
25.4
  9
$DIMLFAC
 40
1.0
  9
$DIMTOFL
 70
     0
  9
$DIMTVP
 40
0.0
  9
$DIMTIX
 70
     0
  9
$DIMSOXD
 70
     0
  9
$DIMSAH
 70
     0
  9
$DIMBLK1
  1

  9
$DIMBLK2
  1

  9
$DIMSTYLE
  2
Standard
  9
$DIMCLRD
 70
     0
  9
$DIMCLRE
 70
     0
  9
$DIMCLRT
 70
     0
  9
$DIMTFAC
 40
1.0
  9
$DIMGAP
 40
0.09
  9
$DIMJUST
 70
     0
  9
$DIMSD1
 70
     0
  9
$DIMSD2
 70
     0
  9
$DIMTOLJ
 70
     1
  9
$DIMTZIN
 70
     0
  9
$DIMALTZ
 70
     0
  9
$DIMALTTZ
 70
     0
  9
$DIMUPT
 70
     0
  9
$DIMDEC
 70
     4
  9
$DIMTDEC
 70
     4
  9
$DIMALTU
 70
     2
  9
$DIMALTTD
 70
     2
  9
$DIMTXSTY
  7
Standard
  9
$DIMAUNIT
 70
     0
  9
$DIMADEC
 70
     0
  9
$DIMALTRND
 40
0.0
  9
$DIMAZIN
 70
     0
  9
$DIMDSEP
 70
    46
  9
$DIMATFIT
 70
     3
  9
$DIMFRAC
 70
     0
  9
$DIMLDRBLK
  1

  9
$DIMLUNIT
 70
     2
  9
$DIMLWD
 70
    -2
  9
$DIMLWE
 70
    -2
  9
$DIMTMOVE
 70
     0
  9
$DIMFXL
 40
1.0
  9
$DIMFXLON
 70
     0
  9
$DIMJOGANG
 40
0.7853981633974483
  9
$DIMTFILL
 70
     0
  9
$DIMTFILLCLR
 70
     0
  9
$DIMARCSYM
 70
     0
  9
$DIMLTYPE
  6

  9
$DIMLTEX1
  6

  9
$DIMLTEX2
  6

  9
$LUNITS
 70
     2
  9
$LUPREC
 70
     4
  9
$SKETCHINC
 40
0.1
  9
$FILLETRAD
 40
0.5
  9
$AUNITS
 70
     0
  9
$AUPREC
 70
     0
  9
$MENU
  1
.
  9
$ELEVATION
 40
0.0
  9
$PELEVATION
 40
0.0
  9
$THICKNESS
 40
0.0
  9
$LIMCHECK
 70
     0
  9
$CHAMFERA
 40
0.5
  9
$CHAMFERB
 40
0.5
  9
$CHAMFERC
 40
1.0
  9
$CHAMFERD
 40
0.0
  9
$SKPOLY
 70
     0
  9
$TDCREATE
 40
2460554.779376875
  9
$TDUCREATE
 40
2460554.737710208
  9
$TDUPDATE
 40
2460554.77937691
  9
$TDUUPDATE
 40
2460554.737710243
  9
$TDINDWG
 40
0.0000000116
  9
$TDUSRTIMER
 40
0.0000000116
  9
$USRTIMER
 70
     1
  9
$ANGBASE
 50
0.0
  9
$ANGDIR
 70
     0
  9
$PDMODE
 70
     0
  9
$PDSIZE
 40
0.0
  9
$PLINEWID
 40
0.0
  9
$SPLFRAME
 70
     0
  9
$SPLINETYPE
 70
     6
  9
$SPLINESEGS
 70
     8
  9
$HANDSEED
  5
73
  9
$SURFTAB1
 70
     6
  9
$SURFTAB2
 70
     6
  9
$SURFTYPE
 70
     6
  9
$SURFU
 70
     6
  9
$SURFV
 70
     6
  9
$UCSBASE
  2

  9
$UCSNAME
  2

  9
$UCSORG
 10
0.0
 20
0.0
 30
0.0
  9
$UCSXDIR
 10
1.0
 20
0.0
 30
0.0
  9
$UCSYDIR
 10
0.0
 20
1.0
 30
0.0
  9
$UCSORTHOREF
  2

  9
$UCSORTHOVIEW
 70
     0
  9
$UCSORGTOP
 10
0.0
 20
0.0
 30
0.0
  9
$UCSORGBOTTOM
 10
0.0
 20
0.0
 30
0.0
  9
$UCSORGLEFT
 10
0.0
 20
0.0
 30
0.0
  9
$UCSORGRIGHT
 10
0.0
 20
0.0
 30
0.0
  9
$UCSORGFRONT
 10
0.0
 20
0.0
 30
0.0
  9
$UCSORGBACK
 10
0.0
 20
0.0
 30
0.0
  9
$PUCSBASE
  2

  9
$PUCSNAME
  2

  9
$PUCSORG
 10
0.0
 20
0.0
 30
0.0
  9
$PUCSXDIR
 10
1.0
 20
0.0
 30
0.0
  9
$PUCSYDIR
 10
0.0
 20
1.0
 30
0.0
  9
$PUCSORTHOREF
  2

  9
$PUCSORTHOVIEW
 70
     0
  9
$PUCSORGTOP
 10
0.0
 20
0.0
 30
0.0
  9
$PUCSORGBOTTOM
 10
0.0
 20
0.0
 30
0.0
  9
$PUCSORGLEFT
 10
0.0
 20
0.0
 30
0.0
  9
$PUCSORGRIGHT
 10
0.0
 20
0.0
 30
0.0
  9
$PUCSORGFRONT
 10
0.0
 20
0.0
 30
0.0
  9
$PUCSORGBACK
 10
0.0
 20
0.0
 30
0.0
  9
$USERI1
 70
     0
  9
$USERI2
 70
     0
  9
$USERI3
 70
     0
  9
$USERI4
 70
     0
  9
$USERI5
 70
     0
  9
$USERR1
 40
0.0
  9
$USERR2
 40
0.0
  9
$USERR3
 40
0.0
  9
$USERR4
 40
0.0
  9
$USERR5
 40
0.0
  9
$WORLDVIEW
 70
     1
  9
$SHADEDGE
 70
     3
  9
$SHADEDIF
 70
    70
  9
$TILEMODE
 70
     1
  9
$MAXACTVP
 70
    64
  9
$PINSBASE
 10
0.0
 20
0.0
 30
0.0
  9
$PLIMCHECK
 70
     0
  9
$PEXTMIN
 10
1.000000000000000E+20
 20
1.000000000000000E+20
 30
1.000000000000000E+20
  9
$PEXTMAX
 10
-1.000000000000000E+20
 20
-1.000000000000000E+20
 30
-1.000000000000000E+20
  9
$PLIMMIN
 10
0.0
 20
0.0
  9
$PLIMMAX
 10
12.0
 20
9.0
  9
$UNITMODE
 70
     0
  9
$VISRETAIN
 70
     1
  9
$PLINEGEN
 70
     0
  9
$PSLTSCALE
 70
     1
  9
$TREEDEPTH
 70
  3020
  9
$CMLSTYLE
  2
Standard
  9
$CMLJUST
 70
     0
  9
$CMLSCALE
 40
1.0
  9
$PROXYGRAPHICS
 70
     1
  9
$MEASUREMENT
 70
     0
  9
$CELWEIGHT
370
    -1
  9
$ENDCAPS
280
     0
  9
$JOINSTYLE
280
     0
  9
$LWDISPLAY
290
     0
  9
$INSUNITS
 70
     5
  9
$HYPERLINKBASE
  1

  9
$STYLESHEET
  1

  9
$XEDIT
290
     1
  9
$CEPSNTYPE
380
     0
  9
$PSTYLEMODE
290
     1
  9
$FINGERPRINTGUID
  2
{52164E24-1AFE-405D-B7D1-603F0F32795D}
  9
$VERSIONGUID
  2
{FAEB1C32-E019-11D5-929B-00C0DF256EC4}
  9
$EXTNAMES
290
     1
  9
$PSVPSCALE
 40
0.0
  9
$OLESTARTUP
290
     0
  9
$SORTENTS
280
   127
  9
$INDEXCTL
280
     0
  9
$HIDETEXT
280
     1
  9
$XCLIPFRAME
290
     0
  9
$HALOGAP
280
     0
  9
$OBSCOLOR
 70
   257
  9
$OBSLTYPE
280
     0
  9
$INTERSECTIONDISPLAY
280
     0
  9
$INTERSECTIONCOLOR
 70
   257
  9
$DIMASSOC
280
     2
  9
$PROJECTNAME
  1

  9
$CAMERADISPLAY
290
     0
  9
$LENSLENGTH
 40
50.0
  9
$CAMERAHEIGHT
 40
0.0
  9
$STEPSPERSEC
 40
2.0
  9
$STEPSIZE
 40
6.0
  9
$3DDWFPREC
 40
2.0
  9
$PSOLWIDTH
 40
0.25
  9
$PSOLHEIGHT
 40
4.0
  9
$LOFTANG1
 40
1.570796326794897
  9
$LOFTANG2
 40
1.570796326794897
  9
$LOFTMAG1
 40
0.0
  9
$LOFTMAG2
 40
0.0
  9
$LOFTPARAM
 70
     7
  9
$LOFTNORMALS
280
     1
  9
$LATITUDE
 40
37.795
  9
$LONGITUDE
 40
-122.394
  9
$NORTHDIRECTION
 40
0.0
  9
$TIMEZONE
 70
 -8000
  9
$LIGHTGLYPHDISPLAY
280
     1
  9
$TILEMODELIGHTSYNCH
280
     1
  9
$SOLIDHIST
280
     1
  9
$SHOWHIST
280
     1
  9
$DWFFRAME
280
     2
  9
$DGNFRAME
280
     2
  9
$REALWORLDSCALE
290
     1
  9
$INTERFERECOLOR
 62
   256
  9
$CSHADOW
280
     0
  9
$SHADOWPLANELOCATION
 40
0.0
  0
ENDSEC
  0
SECTION
  2
CLASSES
  0
CLASS
  1
ACDBDICTIONARYWDFLT
  2
AcDbDictionaryWithDefault
  3
ObjectDBX Classes
 90
        0
 91
        4
280
     0
281
     0
  0
CLASS
  1
VISUALSTYLE
  2
AcDbVisualStyle
  3
ObjectDBX Classes
 90
     4095
 91
        4
280
     0
281
     0
  0
CLASS
  1
MATERIAL
  2
AcDbMaterial
  3
ObjectDBX Classes
 90
     1153
 91
        4
280
     0
281
     0
  0
ENDSEC
  0
SECTION
  2
TABLES
  0
TABLE
  2
VPORT
  5
8
330
0
100
AcDbSymbolTable
 70
     1
  0
VPORT
  5
29
330
8
100
AcDbSymbolTableRecord
100
AcDbViewportTableRecord
  2
*Active
 70
     0
 10
0.0
 20
0.0
 11
1.0
 21
1.0
 12
10.42990654205607
 22
4.5
 13
0.0
 23
0.0
 14
0.5
 24
0.5
 15
0.5
 25
0.5
 16
0.0
 26
0.0
 36
1.0
 17
0.0
 27
0.0
 37
0.0
 40
9.0
 41
1.972972972850329
 42
50.0
 43
0.0
 44
0.0
 50
0.0
 51
0.0
 71
     0
 72
   100
 73
     1
 74
     3
 75
     0
 76
     0
 77
     0
 78
     0
281
     0
 65
     1
110
0.0
120
0.0
130
0.0
111
1.0
121
0.0
131
0.0
112
0.0
122
1.0
132
0.0
 79
     0
146
0.0
 60
     3
 61
     5
292
     1
282
     1
141
0.0
142
0.0
 63
   250
  0
ENDTAB
  0
TABLE
  2
LTYPE
  5
5
330
0
100
AcDbSymbolTable
 70
     1
  0
LTYPE
  5
14
330
5
100
AcDbSymbolTableRecord
100
AcDbLinetypeTableRecord
  2
ByBlock
 70
     0
  3

 72
    65
 73
     0
 40
0.0
  0
LTYPE
  5
15
330
5
100
AcDbSymbolTableRecord
100
AcDbLinetypeTableRecord
  2
ByLayer
 70
     0
  3

 72
    65
 73
     0
 40
0.0
  0
LTYPE
  5
16
330
5
100
AcDbSymbolTableRecord
100
AcDbLinetypeTableRecord
  2
Continuous
 70
     0
  3
Solid line
 72
    65
 73
     0
 40
0.0
  0
ENDTAB
  0
TABLE
  2
LAYER
  5
2
330
0
100
AcDbSymbolTable
 70
     2
  0
LAYER
  5
10
330
2
100
AcDbSymbolTableRecord
100
AcDbLayerTableRecord
  2
0
 70
     0
 62
     7
  6
Continuous
370
    -3
390
F
347
3E
  0
LAYER
  5
40
330
2
100
AcDbSymbolTableRecord
100
AcDbLayerTableRecord
  2
Layer 1
 70
     0
 62
     7
  6
Continuous
370
    -3
390
F
347
3E
  0
ENDTAB
  0
TABLE
  2
STYLE
  5
3
330
0
100
AcDbSymbolTable
 70
     1
  0
STYLE
  5
11
330
3
100
AcDbSymbolTableRecord
100
AcDbTextStyleTableRecord
  2
Standard
 70
     0
 40
0.0
 41
1.0
 50
0.0
 71
     0
 42
0.2
  3
txt
  4

  0
ENDTAB
  0
TABLE
  2
VIEW
  5
6
330
0
100
AcDbSymbolTable
 70
     0
  0
ENDTAB
  0
TABLE
  2
UCS
  5
7
330
0
100
AcDbSymbolTable
 70
     0
  0
ENDTAB
  0
TABLE
  2
APPID
  5
9
330
0
100
AcDbSymbolTable
 70
     2
  0
APPID
  5
12
330
9
100
AcDbSymbolTableRecord
100
AcDbRegAppTableRecord
  2
ACAD
 70
     0
  0
APPID
  5
3F
330
9
100
AcDbSymbolTableRecord
100
AcDbRegAppTableRecord
  2
ODA
 70
     0
  0
ENDTAB
  0
TABLE
  2
DIMSTYLE
  5
A
330
0
100
AcDbSymbolTable
 70
     1
100
AcDbDimStyleTable
  0
DIMSTYLE
105
27
330
A
100
AcDbSymbolTableRecord
100
AcDbDimStyleTableRecord
  2
Standard
 70
     0
178
     0
340
11
  0
ENDTAB
  0
TABLE
  2
BLOCK_RECORD
  5
1
330
0
100
AcDbSymbolTable
 70
     1
  0
BLOCK_RECORD
  5
1F
330
1
100
AcDbSymbolTableRecord
100
AcDbBlockTableRecord
  2
*Model_Space
340
22
 70
     0
280
     1
281
     0
  0
BLOCK_RECORD
  5
1B
330
1
100
AcDbSymbolTableRecord
100
AcDbBlockTableRecord
  2
*Paper_Space
340
1E
 70
     0
280
     1
281
     0
  0
BLOCK_RECORD
  5
23
330
1
100
AcDbSymbolTableRecord
100
AcDbBlockTableRecord
  2
*Paper_Space0
340
26
 70
     0
280
     1
281
     0
  0
ENDTAB
  0
ENDSEC
  0
SECTION
  2
BLOCKS
  0
BLOCK
  5
20
330
1F
100
AcDbEntity
  8
0
100
AcDbBlockBegin
  2
*Model_Space
 70
     0
 10
0.0
 20
0.0
 30
0.0
  3
*Model_Space
  1

  0
ENDBLK
  5
21
330
1F
100
AcDbEntity
  8
0
100
AcDbBlockEnd
  0
BLOCK
  5
1C
330
1B
100
AcDbEntity
 67
     1
  8
0
100
AcDbBlockBegin
  2
*Paper_Space
 70
     0
 10
0.0
 20
0.0
 30
0.0
  3
*Paper_Space
  1

  0
ENDBLK
  5
1D
330
1B
100
AcDbEntity
 67
     1
  8
0
100
AcDbBlockEnd
  0
BLOCK
  5
24
330
23
100
AcDbEntity
  8
0
100
AcDbBlockBegin
  2
*Paper_Space0
 70
     0
 10
0.0
 20
0.0
 30
0.0
  3
*Paper_Space0
  1

  0
ENDBLK
  5
25
330
23
100
AcDbEntity
  8
0
100
AcDbBlockEnd
  0
ENDSEC
  0
SECTION
  2
ENTITIES
  0
SPLINE
  5
41
330
1F
100
AcDbEntity
  8
Layer 1
 62
     5
370
    53
100
AcDbSpline
210
0.0
220
0.0
230
1.0
 70
    11
 71
     3
 72
    36
 73
    32
 74
     0
 42
0.0000000001
 43
0.0000000001
 12
1.0
 22
0.0
 32
0.0
 13
1.0
 23
0.0
 33
0.0
 40
0.0
 40
0.0
 40
0.0
 40
0.0
 40
0.1111111111111111
 40
0.1111111111111111
 40
0.1111111111111111
 40
0.1111111111111111
 40
0.2222222222222222
 40
0.2222222222222222
 40
0.2222222222222222
 40
0.2222222222222222
 40
0.3333333333333333
 40
0.3333333333333333
 40
0.3333333333333333
 40
0.3333333333333333
 40
0.4444444444444444
 40
0.4444444444444444
 40
0.4444444444444444
 40
0.4444444444444444
 40
0.5555555555555556
 40
0.5555555555555556
 40
0.5555555555555556
 40
0.5555555555555556
 40
0.6666666666666666
 40
0.6666666666666666
 40
0.6666666666666666
 40
0.6666666666666666
 40
0.7777777777777778
 40
0.7777777777777778
 40
0.7777777777777778
 40
0.7777777777777778
 40
1.0
 40
1.0
 40
1.0
 40
1.0
 10
-4.90865
 20
0.80308
 30
0.0
 10
-4.98353
 20
0.82238
 30
0.0
 10
-5.0613
 20
0.82979
 30
0.0
 10
-5.1383
 20
0.8253
 30
0.0
 10
-5.1383
 20
0.8253
 30
0.0
 10
-5.17879
 20
0.82292
 30
0.0
 10
-5.22111
 20
0.81631
 30
0.0
 10
-5.25287
 20
0.79117
 30
0.0
 10
-5.25287
 20
0.79117
 30
0.0
 10
-5.28436
 20
0.76577
 30
0.0
 10
-5.29943
 20
0.71603
 30
0.0
 10
-5.27534
 20
0.68347
 30
0.0
 10
-5.27534
 20
0.68347
 30
0.0
 10
-5.26478
 20
0.66918
 30
0.0
 10
-5.24837
 20
0.6602
 30
0.0
 10
-5.23248
 20
0.65226
 30
0.0
 10
-5.23248
 20
0.65226
 30
0.0
 10
-5.1383
 20
0.6057
 30
0.0
 10
-5.03539
 20
0.57738
 30
0.0
 10
-4.93061
 20
0.56945
 30
0.0
 10
-4.93061
 20
0.56945
 30
0.0
 10
-4.92875
 20
0.56945
 30
0.0
 10
-4.92663
 20
0.56916
 30
0.0
 10
-4.92477
 20
0.5705
 30
0.0
 10
-4.92477
 20
0.5705
 30
0.0
 10
-4.92266
 20
0.57182
 30
0.0
 10
-4.92214
 20
0.57472
 30
0.0
 10
-4.92188
 20
0.57738
 30
0.0
 10
-4.92188
 20
0.57738
 30
0.0
 10
-4.91154
 20
0.652
 30
0.0
 10
-4.90705
 20
0.72766
 30
0.0
 10
-4.90865
 20
0.80308
 30
0.0
  0
SPLINE
  5
42
330
1F
100
AcDbEntity
  8
Layer 1
 62
     5
370
    53
100
AcDbSpline
210
0.0
220
0.0
230
1.0
 70
    11
 71
     3
 72
    32
 73
    28
 74
     0
 42
0.0000000001
 43
0.0000000001
 12
1.0
 22
0.0
 32
0.0
 13
1.0
 23
0.0
 33
0.0
 40
0.0
 40
0.0
 40
0.0
 40
0.0
 40
0.125
 40
0.125
 40
0.125
 40
0.125
 40
0.25
 40
0.25
 40
0.25
 40
0.25
 40
0.375
 40
0.375
 40
0.375
 40
0.375
 40
0.5
 40
0.5
 40
0.5
 40
0.5
 40
0.625
 40
0.625
 40
0.625
 40
0.625
 40
0.75
 40
0.75
 40
0.75
 40
0.75
 40
1.0
 40
1.0
 40
1.0
 40
1.0
 10
-4.82636
 20
1.67672
 30
0.0
 10
-4.86922
 20
1.66879
 30
0.0
 10
-4.91183
 20
1.66085
 30
0.0
 10
-4.95467
 20
1.65318
 30
0.0
 10
-4.95467
 20
1.65318
 30
0.0
 10
-4.99304
 20
1.64602
 30
0.0
 10
-5.03221
 20
1.63863
 30
0.0
 10
-5.06634
 20
1.61957
 30
0.0
 10
-5.06634
 20
1.61957
 30
0.0
 10
-5.10019
 20
1.60026
 30
0.0
 10
-5.12851
 20
1.56639
 30
0.0
 10
-5.13037
 20
1.5275
 30
0.0
 10
-5.13037
 20
1.5275
 30
0.0
 10
-5.13143
 20
1.50872
 30
0.0
 10
-5.12561
 20
1.48913
 30
0.0
 10
-5.1121
 20
1.47616
 30
0.0
 10
-5.1121
 20
1.47616
 30
0.0
 10
-5.10311
 20
1.46797
 30
0.0
 10
-5.09174
 20
1.46294
 30
0.0
 10
-5.08034
 20
1.4587
 30
0.0
 10
-5.08034
 20
1.4587
 30
0.0
 10
-5.00071
 20
1.42906
 30
0.0
 10
-4.91395
 20
1.42562
 30
0.0
 10
-4.82899
 20
1.42273
 30
0.0
 10
-4.82899
 20
1.42273
 30
0.0
 10
-4.82
 20
1.50686
 30
0.0
 10
-4.81922
 20
1.59205
 30
0.0
 10
-4.82636
 20
1.67672
 30
0.0
  0
SPLINE
  5
43
330
1F
100
AcDbEntity
  8
Layer 1
 62
     5
370
    53
100
AcDbSpline
210
0.0
220
0.0
230
1.0
 70
    11
 71
     3
 72
    20
 73
    16
 74
     0
 42
0.0000000001
 43
0.0000000001
 12
1.0
 22
0.0
 32
0.0
 13
1.0
 23
0.0
 33
0.0
 40
0.0
 40
0.0
 40
0.0
 40
0.0
 40
0.2
 40
0.2
 40
0.2
 40
0.2
 40
0.4
 40
0.4
 40
0.4
 40
0.4
 40
0.6
 40
0.6
 40
0.6
 40
0.6
 40
1.0
 40
1.0
 40
1.0
 40
1.0
 10
-3.86672
 20
-0.86168
 30
0.0
 10
-3.92889
 20
-0.8662
 30
0.0
 10
-4.06593
 20
-0.83127
 30
0.0
 10
-4.09769
 20
-0.90666
 30
0.0
 10
-4.09769
 20
-0.90666
 30
0.0
 10
-4.1395
 20
-1.00642
 30
0.0
 10
-3.94475
 20
-1.10564
 30
0.0
 10
-3.87173
 20
-1.08686
 30
0.0
 10
-3.87173
 20
-1.08686
 30
0.0
 10
-3.87465
 20
-1.03128
 30
0.0
 10
-3.88339
 20
-0.90588
 30
0.0
 10
-3.86274
 20
-0.87147
 30
0.0
 10
-3.86274
 20
-0.87147
 30
0.0
 10
-3.86063
 20
-0.86964
 30
0.0
 10
-3.86222
 20
-0.86486
 30
0.0
 10
-3.86672
 20
-0.86168
 30
0.0
  0
SPLINE
  5
44
330
1F
100
AcDbEntity
  8
Layer 1
 62
     5
370
    53
100
AcDbSpline
210
0.0
220
0.0
230
1.0
 70
    11
 71
     3
 72
    32
 73
    28
 74
     0
 42
0.0000000001
 43
0.0000000001
 12
1.0
 22
0.0
 32
0.0
 13
1.0
 23
0.0
 33
0.0
 40
0.0
 40
0.0
 40
0.0
 40
0.0
 40
0.125
 40
0.125
 40
0.125
 40
0.125
 40
0.25
 40
0.25
 40
0.25
 40
0.25
 40
0.375
 40
0.375
 40
0.375
 40
0.375
 40
0.5
 40
0.5
 40
0.5
 40
0.5
 40
0.625
 40
0.625
 40
0.625
 40
0.625
 40
0.75
 40
0.75
 40
0.75
 40
0.75
 40
1.0
 40
1.0
 40
1.0
 40
1.0
 10
-5.29387
 20
-0.08064
 30
0.0
 10
-5.28382
 20
-0.11583
 30
0.0
 10
-5.24493
 20
-0.1325
 30
0.0
 10
-5.21
 20
-0.14361
 30
0.0
 10
-5.21
 20
-0.14361
 30
0.0
 10
-5.12825
 20
-0.16955
 30
0.0
 10
-5.04489
 20
-0.19045
 30
0.0
 10
-4.96051
 20
-0.2058
 30
0.0
 10
-4.96051
 20
-0.2058
 30
0.0
 10
-4.9478
 20
-0.19732
 30
0.0
 10
-4.94596
 20
-0.17985
 30
0.0
 10
-4.9449
 20
-0.16451
 30
0.0
 10
-4.9449
 20
-0.16451
 30
0.0
 10
-4.94172
 20
-0.1063
 30
0.0
 10
-4.93854
 20
-0.04809
 30
0.0
 10
-4.93537
 20
0.0101
 30
0.0
 10
-4.93537
 20
0.0101
 30
0.0
 10
-5.00864
 20
0.0199
 30
0.0
 10
-5.08274
 20
0.02362
 30
0.0
 10
-5.15682
 20
0.0215
 30
0.0
 10
-5.15682
 20
0.0215
 30
0.0
 10
-5.1899
 20
0.02069
 30
0.0
 10
-5.22403
 20
0.01806
 30
0.0
 10
-5.25287
 20
0.00165
 30
0.0
 10
-5.25287
 20
0.00165
 30
0.0
 10
-5.2817
 20
-0.01475
 30
0.0
 10
-5.30286
 20
-0.04888
 30
0.0
 10
-5.29387
 20
-0.08064
 30
0.0
  0
SPLINE
  5
45
330
1F
100
AcDbEntity
  8
Layer 1
370
    53
100
AcDbSpline
210
0.0
220
0.0
230
1.0
 70
    11
 71
     3
 72
   272
 73
   268
 74
     0
 42
0.0000000001
 43
0.0000000001
 12
1.0
 22
0.0
 32
0.0
 13
1.0
 23
0.0
 33
0.0
 40
0.0
 40
0.0
 40
0.0
 40
0.0
 40
0.0147058823529412
 40
0.0147058823529412
 40
0.0147058823529412
 40
0.0147058823529412
 40
0.0294117647058824
 40
0.0294117647058824
 40
0.0294117647058824
 40
0.0294117647058824
 40
0.0441176470588235
 40
0.0441176470588235
 40
0.0441176470588235
 40
0.0441176470588235
 40
0.0588235294117647
 40
0.0588235294117647
 40
0.0588235294117647
 40
0.0588235294117647
 40
0.0735294117647059
 40
0.0735294117647059
 40
0.0735294117647059
 40
0.0735294117647059
 40
0.0882352941176471
 40
0.0882352941176471
 40
0.0882352941176471
 40
0.0882352941176471
 40
0.1029411764705882
 40
0.1029411764705882
 40
0.1029411764705882
 40
0.1029411764705882
 40
0.1176470588235294
 40
0.1176470588235294
 40
0.1176470588235294
 40
0.1176470588235294
 40
0.1323529411764706
 40
0.1323529411764706
 40
0.1323529411764706
 40
0.1323529411764706
 40
0.1470588235294118
 40
0.1470588235294118
 40
0.1470588235294118
 40
0.1470588235294118
 40
0.1617647058823529
 40
0.1617647058823529
 40
0.1617647058823529
 40
0.1617647058823529
 40
0.1764705882352941
 40
0.1764705882352941
 40
0.1764705882352941
 40
0.1764705882352941
 40
0.1911764705882353
 40
0.1911764705882353
 40
0.1911764705882353
 40
0.1911764705882353
 40
0.2058823529411765
 40
0.2058823529411765
 40
0.2058823529411765
 40
0.2058823529411765
 40
0.2205882352941176
 40
0.2205882352941176
 40
0.2205882352941176
 40
0.2205882352941176
 40
0.2352941176470588
 40
0.2352941176470588
 40
0.2352941176470588
 40
0.2352941176470588
 40
0.25
 40
0.25
 40
0.25
 40
0.25
 40
0.2647058823529412
 40
0.2647058823529412
 40
0.2647058823529412
 40
0.2647058823529412
 40
0.2794117647058824
 40
0.2794117647058824
 40
0.2794117647058824
 40
0.2794117647058824
 40
0.2941176470588235
 40
0.2941176470588235
 40
0.2941176470588235
 40
0.2941176470588235
 40
0.3088235294117647
 40
0.3088235294117647
 40
0.3088235294117647
 40
0.3088235294117647
 40
0.3235294117647059
 40
0.3235294117647059
 40
0.3235294117647059
 40
0.3235294117647059
 40
0.3382352941176471
 40
0.3382352941176471
 40
0.3382352941176471
 40
0.3382352941176471
 40
0.3529411764705883
 40
0.3529411764705883
 40
0.3529411764705883
 40
0.3529411764705883
 40
0.3676470588235294
 40
0.3676470588235294
 40
0.3676470588235294
 40
0.3676470588235294
 40
0.3823529411764706
 40
0.3823529411764706
 40
0.3823529411764706
 40
0.3823529411764706
 40
0.3970588235294117
 40
0.3970588235294117
 40
0.3970588235294117
 40
0.3970588235294117
 40
0.4117647058823529
 40
0.4117647058823529
 40
0.4117647058823529
 40
0.4117647058823529
 40
0.4264705882352941
 40
0.4264705882352941
 40
0.4264705882352941
 40
0.4264705882352941
 40
0.4411764705882353
 40
0.4411764705882353
 40
0.4411764705882353
 40
0.4411764705882353
 40
0.4558823529411765
 40
0.4558823529411765
 40
0.4558823529411765
 40
0.4558823529411765
 40
0.4705882352941176
 40
0.4705882352941176
 40
0.4705882352941176
 40
0.4705882352941176
 40
0.4852941176470588
 40
0.4852941176470588
 40
0.4852941176470588
 40
0.4852941176470588
 40
0.5
 40
0.5
 40
0.5
 40
0.5
 40
0.5147058823529411
 40
0.5147058823529411
 40
0.5147058823529411
 40
0.5147058823529411
 40
0.5294117647058824
 40
0.5294117647058824
 40
0.5294117647058824
 40
0.5294117647058824
 40
0.5441176470588235
 40
0.5441176470588235
 40
0.5441176470588235
 40
0.5441176470588235
 40
0.5588235294117647
 40
0.5588235294117647
 40
0.5588235294117647
 40
0.5588235294117647
 40
0.5735294117647058
 40
0.5735294117647058
 40
0.5735294117647058
 40
0.5735294117647058
 40
0.5882352941176471
 40
0.5882352941176471
 40
0.5882352941176471
 40
0.5882352941176471
 40
0.6029411764705882
 40
0.6029411764705882
 40
0.6029411764705882
 40
0.6029411764705882
 40
0.6176470588235294
 40
0.6176470588235294
 40
0.6176470588235294
 40
0.6176470588235294
 40
0.6323529411764706
 40
0.6323529411764706
 40
0.6323529411764706
 40
0.6323529411764706
 40
0.6470588235294118
 40
0.6470588235294118
 40
0.6470588235294118
 40
0.6470588235294118
 40
0.6617647058823529
 40
0.6617647058823529
 40
0.6617647058823529
 40
0.6617647058823529
 40
0.6764705882352942
 40
0.6764705882352942
 40
0.6764705882352942
 40
0.6764705882352942
 40
0.6911764705882353
 40
0.6911764705882353
 40
0.6911764705882353
 40
0.6911764705882353
 40
0.7058823529411765
 40
0.7058823529411765
 40
0.7058823529411765
 40
0.7058823529411765
 40
0.7205882352941176
 40
0.7205882352941176
 40
0.7205882352941176
 40
0.7205882352941176
 40
0.7352941176470589
 40
0.7352941176470589
 40
0.7352941176470589
 40
0.7352941176470589
 40
0.75
 40
0.75
 40
0.75
 40
0.75
 40
0.7647058823529411
 40
0.7647058823529411
 40
0.7647058823529411
 40
0.7647058823529411
 40
0.7794117647058824
 40
0.7794117647058824
 40
0.7794117647058824
 40
0.7794117647058824
 40
0.7941176470588235
 40
0.7941176470588235
 40
0.7941176470588235
 40
0.7941176470588235
 40
0.8088235294117647
 40
0.8088235294117647
 40
0.8088235294117647
 40
0.8088235294117647
 40
0.8235294117647058
 40
0.8235294117647058
 40
0.8235294117647058
 40
0.8235294117647058
 40
0.8382352941176471
 40
0.8382352941176471
 40
0.8382352941176471
 40
0.8382352941176471
 40
0.8529411764705882
 40
0.8529411764705882
 40
0.8529411764705882
 40
0.8529411764705882
 40
0.8676470588235294
 40
0.8676470588235294
 40
0.8676470588235294
 40
0.8676470588235294
 40
0.8823529411764706
 40
0.8823529411764706
 40
0.8823529411764706
 40
0.8823529411764706
 40
0.8970588235294118
 40
0.8970588235294118
 40
0.8970588235294118
 40
0.8970588235294118
 40
0.9117647058823529
 40
0.9117647058823529
 40
0.9117647058823529
 40
0.9117647058823529
 40
0.9264705882352942
 40
0.9264705882352942
 40
0.9264705882352942
 40
0.9264705882352942
 40
0.9411764705882353
 40
0.9411764705882353
 40
0.9411764705882353
 40
0.9411764705882353
 40
0.9558823529411765
 40
0.9558823529411765
 40
0.9558823529411765
 40
0.9558823529411765
 40
0.9705882352941176
 40
0.9705882352941176
 40
0.9705882352941176
 40
0.9705882352941176
 40
1.0
 40
1.0
 40
1.0
 40
1.0
 10
-1.7
 20
-0.45
 30
0.0
 10
-1.7
 20
-0.45
 30
0.0
 10
-1.7
 20
0.07453
 30
0.0
 10
-1.7
 20
0.07453
 30
0.0
 10
-1.7
 20
0.07453
 30
0.0
 10
-1.7
 20
0.07453
 30
0.0
 10
-2.34107
 20
0.07453
 30
0.0
 10
-2.34107
 20
0.07453
 30
0.0
 10
-2.34107
 20
0.07453
 30
0.0
 10
-2.29747
 20
-0.0247
 30
0.0
 10
-2.30433
 20
-0.18283
 30
0.0
 10
-2.28372
 20
-0.28621
 30
0.0
 10
-2.28372
 20
-0.28621
 30
0.0
 10
-2.25778
 20
-0.41586
 30
0.0
 10
-2.20858
 20
-0.56033
 30
0.0
 10
-2.19851
 20
-0.68969
 30
0.0
 10
-2.19851
 20
-0.68969
 30
0.0
 10
-2.31255
 20
-0.64869
 30
0.0
 10
-2.43692
 20
-0.62171
 30
0.0
 10
-2.55254
 20
-0.58733
 30
0.0
 10
-2.55254
 20
-0.58733
 30
0.0
 10
-2.65122
 20
-0.72437
 30
0.0
 10
-2.5692
 20
-0.96195
 30
0.0
 10
-2.53401
 20
-1.10615
 30
0.0
 10
-2.53401
 20
-1.10615
 30
0.0
 10
-2.71075
 20
-1.0858
 30
0.0
 10
-2.87611
 20
-1.01621
 30
0.0
 10
-3.04228
 20
-0.97784
 30
0.0
 10
-3.04228
 20
-0.97784
 30
0.0
 10
-3.05391
 20
-0.97518
 30
0.0
 10
-3.05602
 20
-0.99794
 30
0.0
 10
-3.06794
 20
-0.99557
 30
0.0
 10
-3.06794
 20
-0.99557
 30
0.0
 10
-3.0645
 20
-1.00404
 30
0.0
 10
-3.07111
 20
-0.98709
 30
0.0
 10
-3.06794
 20
-0.99557
 30
0.0
 10
-3.06794
 20
-0.99557
 30
0.0
 10
-3.23886
 20
-1.11303
 30
0.0
 10
-3.42936
 20
-1.19693
 30
0.0
 10
-3.62805
 20
-1.23237
 30
0.0
 10
-3.62805
 20
-1.23237
 30
0.0
 10
-3.7257
 20
-1.24985
 30
0.0
 10
-3.82887
 20
-1.25459
 30
0.0
 10
-3.92228
 20
-1.22098
 30
0.0
 10
-3.92228
 20
-1.22098
 30
0.0
 10
-3.97571
 20
-1.20142
 30
0.0
 10
-4.02414
 20
-1.16993
 30
0.0
 10
-4.07149
 20
-1.13846
 30
0.0
 10
-4.07149
 20
-1.13846
 30
0.0
 10
-4.1456
 20
-1.08897
 30
0.0
 10
-4.22681
 20
-1.02415
 30
0.0
 10
-4.22735
 20
-0.93524
 30
0.0
 10
-4.22735
 20
-0.93524
 30
0.0
 10
-4.22761
 20
-0.85612
 30
0.0
 10
-4.15989
 20
-0.79052
 30
0.0
 10
-4.08552
 20
-0.76406
 30
0.0
 10
-4.08552
 20
-0.76406
 30
0.0
 10
-4.01118
 20
-0.7376
 30
0.0
 10
-3.93021
 20
-0.74052
 30
0.0
 10
-3.85138
 20
-0.73654
 30
0.0
 10
-3.85138
 20
-0.73654
 30
0.0
 10
-3.7749
 20
-0.73284
 30
0.0
 10
-3.6987
 20
-0.72277
 30
0.0
 10
-3.62356
 20
-0.70745
 30
0.0
 10
-3.62356
 20
-0.70745
 30
0.0
 10
-3.55054
 20
-0.69261
 30
0.0
 10
-3.4738
 20
-0.67065
 30
0.0
 10
-3.42381
 20
-0.6151
 30
0.0
 10
-3.42381
 20
-0.6151
 30
0.0
 10
-3.37936
 20
-0.56562
 30
0.0
 10
-3.38094
 20
-0.491
 30
0.0
 10
-3.40502
 20
-0.43253
 30
0.0
 10
-3.40502
 20
-0.43253
 30
0.0
 10
-3.4066
 20
-0.42935
 30
0.0
 10
-3.4082
 20
-0.42566
 30
0.0
 10
-3.41138
 20
-0.42408
 30
0.0
 10
-3.41138
 20
-0.42408
 30
0.0
 10
-3.41456
 20
-0.42222
 30
0.0
 10
-3.41877
 20
-0.42273
 30
0.0
 10
-3.42249
 20
-0.42353
 30
0.0
 10
-3.42249
 20
-0.42353
 30
0.0
 10
-3.47698
 20
-0.43385
 30
0.0
 10
-3.5315
 20
-0.44708
 30
0.0
 10
-3.58705
 20
-0.4508
 30
0.0
 10
-3.58705
 20
-0.4508
 30
0.0
 10
-3.65744
 20
-0.45555
 30
0.0
 10
-3.72782
 20
-0.45899
 30
0.0
 10
-3.79846
 20
-0.46059
 30
0.0
 10
-3.79846
 20
-0.46059
 30
0.0
 10
-3.93975
 20
-0.46403
 30
0.0
 10
-4.08102
 20
-0.46136
 30
0.0
 10
-4.22179
 20
-0.45237
 30
0.0
 10
-4.22179
 20
-0.45237
 30
0.0
 10
-4.43529
 20
-0.43914
 30
0.0
 10
-4.64751
 20
-0.41162
 30
0.0
 10
-4.85731
 20
-0.37062
 30
0.0
 10
-4.85731
 20
-0.37062
 30
0.0
 10
-4.92795
 20
-0.35659
 30
0.0
 10
-4.9986
 20
-0.34098
 30
0.0
 10
-5.06872
 20
-0.32406
 30
0.0
 10
-5.06872
 20
-0.32406
 30
0.0
 10
-5.15946
 20
-0.30184
 30
0.0
 10
-5.25367
 20
-0.27484
 30
0.0
 10
-5.32139
 20
-0.21055
 30
0.0
 10
-5.32139
 20
-0.21055
 30
0.0
 10
-5.38914
 20
-0.14627
 30
0.0
 10
-5.41981
 20
-0.03328
 30
0.0
 10
-5.36451
 20
0.04212
 30
0.0
 10
-5.36451
 20
0.04212
 30
0.0
 10
-5.31953
 20
0.10325
 30
0.0
 10
-5.23672
 20
0.12018
 30
0.0
 10
-5.16132
 20
0.12865
 30
0.0
 10
-5.16132
 20
0.12865
 30
0.0
 10
-5.06368
 20
0.13976
 30
0.0
 10
-4.96581
 20
0.14452
 30
0.0
 10
-4.86765
 20
0.14638
 30
0.0
 10
-4.86765
 20
0.14638
 30
0.0
 10
-4.58505
 20
0.15167
 30
0.0
 10
-4.30091
 20
0.13183
 30
0.0
 10
-4.01992
 20
0.16436
 30
0.0
 10
-4.01992
 20
0.16436
 30
0.0
 10
-3.99741
 20
0.16674
 30
0.0
 10
-3.97333
 20
0.17046
 30
0.0
 10
-3.95561
 20
0.18475
 30
0.0
 10
-3.95561
 20
0.18475
 30
0.0
 10
-3.91726
 20
0.21622
 30
0.0
 10
-3.93207
 20
0.28317
 30
0.0
 10
-3.9715
 20
0.31332
 30
0.0
 10
-3.9715
 20
0.31332
 30
0.0
 10
-4.01091
 20
0.3435
 30
0.0
 10
-4.06382
 20
0.34745
 30
0.0
 10
-4.11358
 20
0.35089
 30
0.0
 10
-4.11358
 20
0.35089
 30
0.0
 10
-4.43953
 20
0.37285
 30
0.0
 10
-4.76391
 20
0.42049
 30
0.0
 10
-5.08275
 20
0.49297
 30
0.0
 10
-5.08275
 20
0.49297
 30
0.0
 10
-5.20181
 20
0.51997
 30
0.0
 10
-5.3325
 20
0.55992
 30
0.0
 10
-5.39258
 20
0.66601
 30
0.0
 10
-5.39258
 20
0.66601
 30
0.0
 10
-5.41875
 20
0.71205
 30
0.0
 10
-5.42777
 20
0.77052
 30
0.0
 10
-5.40501
 20
0.81843
 30
0.0
 10
-5.40501
 20
0.81843
 30
0.0
 10
-5.38146
 20
0.86736
 30
0.0
 10
-5.33013
 20
0.897
 30
0.0
 10
-5.27907
 20
0.91578
 30
0.0
 10
-5.27907
 20
0.91578
 30
0.0
 10
-5.15603
 20
0.96129
 30
0.0
 10
-5.02188
 20
0.96234
 30
0.0
 10
-4.89093
 20
0.96579
 30
0.0
 10
-4.89093
 20
0.96579
 30
0.0
 10
-4.56681
 20
0.97452
 30
0.0
 10
-4.24296
 20
1.00098
 30
0.0
 10
-3.92176
 20
1.04516
 30
0.0
 10
-3.92176
 20
1.04516
 30
0.0
 10
-3.88311
 20
1.05045
 30
0.0
 10
-3.83311
 20
1.06606
 30
0.0
 10
-3.83892
 20
1.11528
 30
0.0
 10
-3.83892
 20
1.11528
 30
0.0
 10
-3.84688
 20
1.18486
 30
0.0
 10
-3.93233
 20
1.20763
 30
0.0
 10
-3.99003
 20
1.21634
 30
0.0
 10
-3.99003
 20
1.21634
 30
0.0
 10
-4.05007
 20
1.22535
 30
0.0
 10
-4.11147
 20
1.22375
 30
0.0
 10
-4.17151
 20
1.23117
 30
0.0
 10
-4.17151
 20
1.23117
 30
0.0
 10
-4.32814
 20
1.25021
 30
0.0
 10
-4.48477
 20
1.27059
 30
0.0
 10
-4.64115
 20
1.29228
 30
0.0
 10
-4.64115
 20
1.29228
 30
0.0
 10
-4.73006
 20
1.30444
 30
0.0
 10
-4.81894
 20
1.31847
 30
0.0
 10
-4.90785
 20
1.33013
 30
0.0
 10
-4.90785
 20
1.33013
 30
0.0
 10
-4.98219
 20
1.33992
 30
0.0
 10
-5.05973
 20
1.34493
 30
0.0
 10
-5.12639
 20
1.38276
 30
0.0
 10
-5.12639
 20
1.38276
 30
0.0
 10
-5.20551
 20
1.42774
 30
0.0
 10
-5.26452
 20
1.52221
 30
0.0
 10
-5.23832
 20
1.60951
 30
0.0
 10
-5.23832
 20
1.60951
 30
0.0
 10
-5.21106
 20
1.70025
 30
0.0
 10
-5.10892
 20
1.74446
 30
0.0
 10
-5.01606
 20
1.7643
 30
0.0
 10
-5.01606
 20
1.7643
 30
0.0
 10
-4.85943
 20
1.79815
 30
0.0
 10
-4.68402
 20
1.80531
 30
0.0
 10
-4.52394
 20
1.8127
 30
0.0
 10
-4.52394
 20
1.8127
 30
0.0
 10
-4.38106
 20
1.81932
 30
0.0
 10
-4.2382
 20
1.82304
 30
0.0
 10
-4.09532
 20
1.82409
 30
0.0
 10
-4.09532
 20
1.82409
 30
0.0
 10
-4.01726
 20
1.82461
 30
0.0
 10
-3.93975
 20
1.82066
 30
0.0
 10
-3.86326
 20
1.82461
 30
0.0
 10
-3.86326
 20
1.82461
 30
0.0
 10
-3.85507
 20
1.89287
 30
0.0
 10
-3.77306
 20
1.97358
 30
0.0
 10
-3.73893
 20
2.01723
 30
0.0
 10
-3.73893
 20
2.01723
 30
0.0
 10
-3.62038
 20
2.1691
 30
0.0
 10
-3.48334
 20
2.29953
 30
0.0
 10
-3.27591
 20
2.29134
 30
0.0
 10
-3.27591
 20
2.29134
 30
0.0
 10
-3.35079
 20
2.15878
 30
0.0
 10
-3.35952
 20
2.02066
 30
0.0
 10
-3.39629
 20
1.87806
 30
0.0
 10
-3.39629
 20
1.87806
 30
0.0
 10
-3.18305
 20
2.02384
 30
0.0
 10
-2.93513
 20
2.13339
 30
0.0
 10
-2.66631
 20
2.11327
 30
0.0
 10
-2.66631
 20
2.11327
 30
0.0
 10
-2.72424
 20
1.95426
 30
0.0
 10
-2.83697
 20
1.75265
 30
0.0
 10
-2.77134
 20
1.57512
 30
0.0
 10
-2.77134
 20
1.57512
 30
0.0
 10
-2.61339
 20
1.65848
 30
0.0
 10
-2.38056
 20
1.78678
 30
0.0
 10
-2.20011
 20
1.77991
 30
0.0
 10
-2.20011
 20
1.77991
 30
0.0
 10
-2.28106
 20
1.6021
 30
0.0
 10
-2.44485
 20
1.24465
 30
0.0
 10
-2.37658
 20
1.04965
 30
0.0
 10
-2.37658
 20
1.04965
 30
0.0
 10
-2.37658
 20
1.04965
 30
0.0
 10
-2.37657
 20
1.04953
 30
0.0
 10
-2.37657
 20
1.04953
 30
0.0
 10
-2.37657
 20
1.04953
 30
0.0
 10
-2.37657
 20
1.04953
 30
0.0
 10
-1.7
 20
1.04953
 30
0.0
 10
-1.7
 20
1.04953
 30
0.0
 10
-1.7
 20
1.04953
 30
0.0
 10
-1.7
 20
1.04953
 30
0.0
 10
-1.7
 20
1.45
 30
0.0
 10
-1.7
 20
1.45
 30
0.0
 10
-1.7
 20
1.45
 30
0.0
 10
-1.7
 20
1.72614
 30
0.0
 10
-1.47614
 20
1.95
 30
0.0
 10
-1.2
 20
1.95
 30
0.0
 10
-1.2
 20
1.95
 30
0.0
 10
-1.2
 20
1.95
 30
0.0
 10
-0.8
 20
1.95
 30
0.0
 10
-0.8
 20
1.95
 30
0.0
 10
-0.8
 20
1.95
 30
0.0
 10
-0.52386
 20
1.95
 30
0.0
 10
-0.3
 20
1.72614
 30
0.0
 10
-0.3
 20
1.45
 30
0.0
 10
-0.3
 20
1.45
 30
0.0
 10
-0.3
 20
1.45
 30
0.0
 10
-0.3
 20
-0.45
 30
0.0
 10
-0.3
 20
-0.45
 30
0.0
 10
-0.3
 20
-0.45
 30
0.0
 10
-0.3
 20
-0.72614
 30
0.0
 10
-0.52386
 20
-0.95
 30
0.0
 10
-0.8
 20
-0.95
 30
0.0
 10
-0.8
 20
-0.95
 30
0.0
 10
-0.8
 20
-0.95
 30
0.0
 10
-1.2
 20
-0.95
 30
0.0
 10
-1.2
 20
-0.95
 30
0.0
 10
-1.2
 20
-0.95
 30
0.0
 10
-1.47614
 20
-0.95
 30
0.0
 10
-1.7
 20
-0.72614
 30
0.0
 10
-1.7
 20
-0.45
 30
0.0
  0
ELLIPSE
  5
46
330
1F
100
AcDbEntity
  8
Layer 1
370
    53
100
AcDbEllipse
 10
-1.0
 20
1.25
 30
0.0
 11
0.0
 21
0.3
 31
0.0
210
0.0
220
0.0
230
1.0
 40
1.0
 41
0.0
 42
6.283185307179586
  0
ELLIPSE
  5
47
330
1F
100
AcDbEntity
  8
Layer 1
370
    53
100
AcDbEllipse
 10
-1.0
 20
-0.25
 30
0.0
 11
0.0
 21
0.3
 31
0.0
210
0.0
220
0.0
230
1.0
 40
1.0
 41
0.0
 42
6.283185307179586
  0
SPLINE
  5
48
330
1F
100
AcDbEntity
  8
Layer 1
 62
     5
370
    53
100
AcDbSpline
210
0.0
220
0.0
230
1.0
 70
    11
 71
     3
 72
    36
 73
    32
 74
     0
 42
0.0000000001
 43
0.0000000001
 12
1.0
 22
0.0
 32
0.0
 13
1.0
 23
0.0
 33
0.0
 40
0.0
 40
0.0
 40
0.0
 40
0.0
 40
0.1111111111111111
 40
0.1111111111111111
 40
0.1111111111111111
 40
0.1111111111111111
 40
0.2222222222222222
 40
0.2222222222222222
 40
0.2222222222222222
 40
0.2222222222222222
 40
0.3333333333333333
 40
0.3333333333333333
 40
0.3333333333333333
 40
0.3333333333333333
 40
0.4444444444444444
 40
0.4444444444444444
 40
0.4444444444444444
 40
0.4444444444444444
 40
0.5555555555555556
 40
0.5555555555555556
 40
0.5555555555555556
 40
0.5555555555555556
 40
0.6666666666666666
 40
0.6666666666666666
 40
0.6666666666666666
 40
0.6666666666666666
 40
0.7777777777777778
 40
0.7777777777777778
 40
0.7777777777777778
 40
0.7777777777777778
 40
1.0
 40
1.0
 40
1.0
 40
1.0
 10
4.40865
 20
0.80308
 30
0.0
 10
4.48353
 20
0.82238
 30
0.0
 10
4.5613
 20
0.82979
 30
0.0
 10
4.6383
 20
0.8253
 30
0.0
 10
4.6383
 20
0.8253
 30
0.0
 10
4.67879
 20
0.82292
 30
0.0
 10
4.72111
 20
0.81631
 30
0.0
 10
4.75287
 20
0.79117
 30
0.0
 10
4.75287
 20
0.79117
 30
0.0
 10
4.78436
 20
0.76577
 30
0.0
 10
4.79943
 20
0.71603
 30
0.0
 10
4.77534
 20
0.68347
 30
0.0
 10
4.77534
 20
0.68347
 30
0.0
 10
4.76478
 20
0.66918
 30
0.0
 10
4.74837
 20
0.6602
 30
0.0
 10
4.73248
 20
0.65226
 30
0.0
 10
4.73248
 20
0.65226
 30
0.0
 10
4.6383
 20
0.6057
 30
0.0
 10
4.53539
 20
0.57738
 30
0.0
 10
4.43061
 20
0.56945
 30
0.0
 10
4.43061
 20
0.56945
 30
0.0
 10
4.42875
 20
0.56945
 30
0.0
 10
4.42663
 20
0.56916
 30
0.0
 10
4.42477
 20
0.5705
 30
0.0
 10
4.42477
 20
0.5705
 30
0.0
 10
4.42266
 20
0.57182
 30
0.0
 10
4.42214
 20
0.57472
 30
0.0
 10
4.42188
 20
0.57738
 30
0.0
 10
4.42188
 20
0.57738
 30
0.0
 10
4.41154
 20
0.652
 30
0.0
 10
4.40705
 20
0.72766
 30
0.0
 10
4.40865
 20
0.80308
 30
0.0
  0
SPLINE
  5
49
330
1F
100
AcDbEntity
  8
Layer 1
 62
     5
370
    53
100
AcDbSpline
210
0.0
220
0.0
230
1.0
 70
    11
 71
     3
 72
    32
 73
    28
 74
     0
 42
0.0000000001
 43
0.0000000001
 12
1.0
 22
0.0
 32
0.0
 13
1.0
 23
0.0
 33
0.0
 40
0.0
 40
0.0
 40
0.0
 40
0.0
 40
0.125
 40
0.125
 40
0.125
 40
0.125
 40
0.25
 40
0.25
 40
0.25
 40
0.25
 40
0.375
 40
0.375
 40
0.375
 40
0.375
 40
0.5
 40
0.5
 40
0.5
 40
0.5
 40
0.625
 40
0.625
 40
0.625
 40
0.625
 40
0.75
 40
0.75
 40
0.75
 40
0.75
 40
1.0
 40
1.0
 40
1.0
 40
1.0
 10
4.32636
 20
1.67672
 30
0.0
 10
4.36922
 20
1.66879
 30
0.0
 10
4.41183
 20
1.66085
 30
0.0
 10
4.45467
 20
1.65318
 30
0.0
 10
4.45467
 20
1.65318
 30
0.0
 10
4.49304
 20
1.64602
 30
0.0
 10
4.53221
 20
1.63863
 30
0.0
 10
4.56634
 20
1.61957
 30
0.0
 10
4.56634
 20
1.61957
 30
0.0
 10
4.60019
 20
1.60026
 30
0.0
 10
4.62851
 20
1.56639
 30
0.0
 10
4.63037
 20
1.5275
 30
0.0
 10
4.63037
 20
1.5275
 30
0.0
 10
4.63143
 20
1.50872
 30
0.0
 10
4.62561
 20
1.48913
 30
0.0
 10
4.6121
 20
1.47616
 30
0.0
 10
4.6121
 20
1.47616
 30
0.0
 10
4.60311
 20
1.46797
 30
0.0
 10
4.59174
 20
1.46294
 30
0.0
 10
4.58034
 20
1.4587
 30
0.0
 10
4.58034
 20
1.4587
 30
0.0
 10
4.50071
 20
1.42906
 30
0.0
 10
4.41395
 20
1.42562
 30
0.0
 10
4.32899
 20
1.42273
 30
0.0
 10
4.32899
 20
1.42273
 30
0.0
 10
4.32
 20
1.50686
 30
0.0
 10
4.31922
 20
1.59205
 30
0.0
 10
4.32636
 20
1.67672
 30
0.0
  0
SPLINE
  5
4A
330
1F
100
AcDbEntity
  8
Layer 1
 62
     5
370
    53
100
AcDbSpline
210
0.0
220
0.0
230
1.0
 70
    11
 71
     3
 72
    20
 73
    16
 74
     0
 42
0.0000000001
 43
0.0000000001
 12
1.0
 22
0.0
 32
0.0
 13
1.0
 23
0.0
 33
0.0
 40
0.0
 40
0.0
 40
0.0
 40
0.0
 40
0.2
 40
0.2
 40
0.2
 40
0.2
 40
0.4
 40
0.4
 40
0.4
 40
0.4
 40
0.6
 40
0.6
 40
0.6
 40
0.6
 40
1.0
 40
1.0
 40
1.0
 40
1.0
 10
3.36672
 20
-0.86168
 30
0.0
 10
3.42889
 20
-0.8662
 30
0.0
 10
3.56593
 20
-0.83127
 30
0.0
 10
3.59769
 20
-0.90666
 30
0.0
 10
3.59769
 20
-0.90666
 30
0.0
 10
3.6395
 20
-1.00642
 30
0.0
 10
3.44475
 20
-1.10564
 30
0.0
 10
3.37173
 20
-1.08686
 30
0.0
 10
3.37173
 20
-1.08686
 30
0.0
 10
3.37465
 20
-1.03128
 30
0.0
 10
3.38339
 20
-0.90588
 30
0.0
 10
3.36274
 20
-0.87147
 30
0.0
 10
3.36274
 20
-0.87147
 30
0.0
 10
3.36063
 20
-0.86964
 30
0.0
 10
3.36222
 20
-0.86486
 30
0.0
 10
3.36672
 20
-0.86168
 30
0.0
  0
SPLINE
  5
4B
330
1F
100
AcDbEntity
  8
Layer 1
 62
     5
370
    53
100
AcDbSpline
210
0.0
220
0.0
230
1.0
 70
    11
 71
     3
 72
    32
 73
    28
 74
     0
 42
0.0000000001
 43
0.0000000001
 12
1.0
 22
0.0
 32
0.0
 13
1.0
 23
0.0
 33
0.0
 40
0.0
 40
0.0
 40
0.0
 40
0.0
 40
0.125
 40
0.125
 40
0.125
 40
0.125
 40
0.25
 40
0.25
 40
0.25
 40
0.25
 40
0.375
 40
0.375
 40
0.375
 40
0.375
 40
0.5
 40
0.5
 40
0.5
 40
0.5
 40
0.625
 40
0.625
 40
0.625
 40
0.625
 40
0.75
 40
0.75
 40
0.75
 40
0.75
 40
1.0
 40
1.0
 40
1.0
 40
1.0
 10
4.79387
 20
-0.08064
 30
0.0
 10
4.78382
 20
-0.11583
 30
0.0
 10
4.74493
 20
-0.1325
 30
0.0
 10
4.71
 20
-0.14361
 30
0.0
 10
4.71
 20
-0.14361
 30
0.0
 10
4.62825
 20
-0.16955
 30
0.0
 10
4.54489
 20
-0.19045
 30
0.0
 10
4.46051
 20
-0.2058
 30
0.0
 10
4.46051
 20
-0.2058
 30
0.0
 10
4.4478
 20
-0.19732
 30
0.0
 10
4.44596
 20
-0.17985
 30
0.0
 10
4.4449
 20
-0.16451
 30
0.0
 10
4.4449
 20
-0.16451
 30
0.0
 10
4.44172
 20
-0.1063
 30
0.0
 10
4.43854
 20
-0.04809
 30
0.0
 10
4.43537
 20
0.0101
 30
0.0
 10
4.43537
 20
0.0101
 30
0.0
 10
4.50864
 20
0.0199
 30
0.0
 10
4.58274
 20
0.02362
 30
0.0
 10
4.65682
 20
0.0215
 30
0.0
 10
4.65682
 20
0.0215
 30
0.0
 10
4.6899
 20
0.02069
 30
0.0
 10
4.72403
 20
0.01806
 30
0.0
 10
4.75287
 20
0.00165
 30
0.0
 10
4.75287
 20
0.00165
 30
0.0
 10
4.7817
 20
-0.01475
 30
0.0
 10
4.80286
 20
-0.04888
 30
0.0
 10
4.79387
 20
-0.08064
 30
0.0
  0
SPLINE
  5
4C
330
1F
100
AcDbEntity
  8
Layer 1
370
    53
100
AcDbSpline
210
0.0
220
0.0
230
1.0
 70
    11
 71
     3
 72
   272
 73
   268
 74
     0
 42
0.0000000001
 43
0.0000000001
 12
1.0
 22
0.0
 32
0.0
 13
1.0
 23
0.0
 33
0.0
 40
0.0
 40
0.0
 40
0.0
 40
0.0
 40
0.0147058823529412
 40
0.0147058823529412
 40
0.0147058823529412
 40
0.0147058823529412
 40
0.0294117647058824
 40
0.0294117647058824
 40
0.0294117647058824
 40
0.0294117647058824
 40
0.0441176470588235
 40
0.0441176470588235
 40
0.0441176470588235
 40
0.0441176470588235
 40
0.0588235294117647
 40
0.0588235294117647
 40
0.0588235294117647
 40
0.0588235294117647
 40
0.0735294117647059
 40
0.0735294117647059
 40
0.0735294117647059
 40
0.0735294117647059
 40
0.0882352941176471
 40
0.0882352941176471
 40
0.0882352941176471
 40
0.0882352941176471
 40
0.1029411764705882
 40
0.1029411764705882
 40
0.1029411764705882
 40
0.1029411764705882
 40
0.1176470588235294
 40
0.1176470588235294
 40
0.1176470588235294
 40
0.1176470588235294
 40
0.1323529411764706
 40
0.1323529411764706
 40
0.1323529411764706
 40
0.1323529411764706
 40
0.1470588235294118
 40
0.1470588235294118
 40
0.1470588235294118
 40
0.1470588235294118
 40
0.1617647058823529
 40
0.1617647058823529
 40
0.1617647058823529
 40
0.1617647058823529
 40
0.1764705882352941
 40
0.1764705882352941
 40
0.1764705882352941
 40
0.1764705882352941
 40
0.1911764705882353
 40
0.1911764705882353
 40
0.1911764705882353
 40
0.1911764705882353
 40
0.2058823529411765
 40
0.2058823529411765
 40
0.2058823529411765
 40
0.2058823529411765
 40
0.2205882352941176
 40
0.2205882352941176
 40
0.2205882352941176
 40
0.2205882352941176
 40
0.2352941176470588
 40
0.2352941176470588
 40
0.2352941176470588
 40
0.2352941176470588
 40
0.25
 40
0.25
 40
0.25
 40
0.25
 40
0.2647058823529412
 40
0.2647058823529412
 40
0.2647058823529412
 40
0.2647058823529412
 40
0.2794117647058824
 40
0.2794117647058824
 40
0.2794117647058824
 40
0.2794117647058824
 40
0.2941176470588235
 40
0.2941176470588235
 40
0.2941176470588235
 40
0.2941176470588235
 40
0.3088235294117647
 40
0.3088235294117647
 40
0.3088235294117647
 40
0.3088235294117647
 40
0.3235294117647059
 40
0.3235294117647059
 40
0.3235294117647059
 40
0.3235294117647059
 40
0.3382352941176471
 40
0.3382352941176471
 40
0.3382352941176471
 40
0.3382352941176471
 40
0.3529411764705883
 40
0.3529411764705883
 40
0.3529411764705883
 40
0.3529411764705883
 40
0.3676470588235294
 40
0.3676470588235294
 40
0.3676470588235294
 40
0.3676470588235294
 40
0.3823529411764706
 40
0.3823529411764706
 40
0.3823529411764706
 40
0.3823529411764706
 40
0.3970588235294117
 40
0.3970588235294117
 40
0.3970588235294117
 40
0.3970588235294117
 40
0.4117647058823529
 40
0.4117647058823529
 40
0.4117647058823529
 40
0.4117647058823529
 40
0.4264705882352941
 40
0.4264705882352941
 40
0.4264705882352941
 40
0.4264705882352941
 40
0.4411764705882353
 40
0.4411764705882353
 40
0.4411764705882353
 40
0.4411764705882353
 40
0.4558823529411765
 40
0.4558823529411765
 40
0.4558823529411765
 40
0.4558823529411765
 40
0.4705882352941176
 40
0.4705882352941176
 40
0.4705882352941176
 40
0.4705882352941176
 40
0.4852941176470588
 40
0.4852941176470588
 40
0.4852941176470588
 40
0.4852941176470588
 40
0.5
 40
0.5
 40
0.5
 40
0.5
 40
0.5147058823529411
 40
0.5147058823529411
 40
0.5147058823529411
 40
0.5147058823529411
 40
0.5294117647058824
 40
0.5294117647058824
 40
0.5294117647058824
 40
0.5294117647058824
 40
0.5441176470588235
 40
0.5441176470588235
 40
0.5441176470588235
 40
0.5441176470588235
 40
0.5588235294117647
 40
0.5588235294117647
 40
0.5588235294117647
 40
0.5588235294117647
 40
0.5735294117647058
 40
0.5735294117647058
 40
0.5735294117647058
 40
0.5735294117647058
 40
0.5882352941176471
 40
0.5882352941176471
 40
0.5882352941176471
 40
0.5882352941176471
 40
0.6029411764705882
 40
0.6029411764705882
 40
0.6029411764705882
 40
0.6029411764705882
 40
0.6176470588235294
 40
0.6176470588235294
 40
0.6176470588235294
 40
0.6176470588235294
 40
0.6323529411764706
 40
0.6323529411764706
 40
0.6323529411764706
 40
0.6323529411764706
 40
0.6470588235294118
 40
0.6470588235294118
 40
0.6470588235294118
 40
0.6470588235294118
 40
0.6617647058823529
 40
0.6617647058823529
 40
0.6617647058823529
 40
0.6617647058823529
 40
0.6764705882352942
 40
0.6764705882352942
 40
0.6764705882352942
 40
0.6764705882352942
 40
0.6911764705882353
 40
0.6911764705882353
 40
0.6911764705882353
 40
0.6911764705882353
 40
0.7058823529411765
 40
0.7058823529411765
 40
0.7058823529411765
 40
0.7058823529411765
 40
0.7205882352941176
 40
0.7205882352941176
 40
0.7205882352941176
 40
0.7205882352941176
 40
0.7352941176470589
 40
0.7352941176470589
 40
0.7352941176470589
 40
0.7352941176470589
 40
0.75
 40
0.75
 40
0.75
 40
0.75
 40
0.7647058823529411
 40
0.7647058823529411
 40
0.7647058823529411
 40
0.7647058823529411
 40
0.7794117647058824
 40
0.7794117647058824
 40
0.7794117647058824
 40
0.7794117647058824
 40
0.7941176470588235
 40
0.7941176470588235
 40
0.7941176470588235
 40
0.7941176470588235
 40
0.8088235294117647
 40
0.8088235294117647
 40
0.8088235294117647
 40
0.8088235294117647
 40
0.8235294117647058
 40
0.8235294117647058
 40
0.8235294117647058
 40
0.8235294117647058
 40
0.8382352941176471
 40
0.8382352941176471
 40
0.8382352941176471
 40
0.8382352941176471
 40
0.8529411764705882
 40
0.8529411764705882
 40
0.8529411764705882
 40
0.8529411764705882
 40
0.8676470588235294
 40
0.8676470588235294
 40
0.8676470588235294
 40
0.8676470588235294
 40
0.8823529411764706
 40
0.8823529411764706
 40
0.8823529411764706
 40
0.8823529411764706
 40
0.8970588235294118
 40
0.8970588235294118
 40
0.8970588235294118
 40
0.8970588235294118
 40
0.9117647058823529
 40
0.9117647058823529
 40
0.9117647058823529
 40
0.9117647058823529
 40
0.9264705882352942
 40
0.9264705882352942
 40
0.9264705882352942
 40
0.9264705882352942
 40
0.9411764705882353
 40
0.9411764705882353
 40
0.9411764705882353
 40
0.9411764705882353
 40
0.9558823529411765
 40
0.9558823529411765
 40
0.9558823529411765
 40
0.9558823529411765
 40
0.9705882352941176
 40
0.9705882352941176
 40
0.9705882352941176
 40
0.9705882352941176
 40
1.0
 40
1.0
 40
1.0
 40
1.0
 10
1.2
 20
0.07453
 30
0.0
 10
1.2
 20
0.07453
 30
0.0
 10
1.84107
 20
0.07453
 30
0.0
 10
1.84107
 20
0.07453
 30
0.0
 10
1.84107
 20
0.07453
 30
0.0
 10
1.79747
 20
-0.0247
 30
0.0
 10
1.80433
 20
-0.18283
 30
0.0
 10
1.78372
 20
-0.28621
 30
0.0
 10
1.78372
 20
-0.28621
 30
0.0
 10
1.75778
 20
-0.41586
 30
0.0
 10
1.70858
 20
-0.56033
 30
0.0
 10
1.69851
 20
-0.68969
 30
0.0
 10
1.69851
 20
-0.68969
 30
0.0
 10
1.81255
 20
-0.64869
 30
0.0
 10
1.93692
 20
-0.62171
 30
0.0
 10
2.05254
 20
-0.58733
 30
0.0
 10
2.05254
 20
-0.58733
 30
0.0
 10
2.15121
 20
-0.72437
 30
0.0
 10
2.0692
 20
-0.96195
 30
0.0
 10
2.03401
 20
-1.10615
 30
0.0
 10
2.03401
 20
-1.10615
 30
0.0
 10
2.21075
 20
-1.0858
 30
0.0
 10
2.37611
 20
-1.01621
 30
0.0
 10
2.54228
 20
-0.97784
 30
0.0
 10
2.54228
 20
-0.97784
 30
0.0
 10
2.5539
 20
-0.97518
 30
0.0
 10
2.55602
 20
-0.99794
 30
0.0
 10
2.56794
 20
-0.99557
 30
0.0
 10
2.56794
 20
-0.99557
 30
0.0
 10
2.56449
 20
-1.00404
 30
0.0
 10
2.57111
 20
-0.98709
 30
0.0
 10
2.56794
 20
-0.99557
 30
0.0
 10
2.56794
 20
-0.99557
 30
0.0
 10
2.73885
 20
-1.11303
 30
0.0
 10
2.92936
 20
-1.19693
 30
0.0
 10
3.12805
 20
-1.23237
 30
0.0
 10
3.12805
 20
-1.23237
 30
0.0
 10
3.2257
 20
-1.24985
 30
0.0
 10
3.32887
 20
-1.25459
 30
0.0
 10
3.42228
 20
-1.22098
 30
0.0
 10
3.42228
 20
-1.22098
 30
0.0
 10
3.47571
 20
-1.20142
 30
0.0
 10
3.52413
 20
-1.16993
 30
0.0
 10
3.57149
 20
-1.13846
 30
0.0
 10
3.57149
 20
-1.13846
 30
0.0
 10
3.6456
 20
-1.08897
 30
0.0
 10
3.72681
 20
-1.02415
 30
0.0
 10
3.72735
 20
-0.93524
 30
0.0
 10
3.72735
 20
-0.93524
 30
0.0
 10
3.72761
 20
-0.85612
 30
0.0
 10
3.65988
 20
-0.79052
 30
0.0
 10
3.58552
 20
-0.76406
 30
0.0
 10
3.58552
 20
-0.76406
 30
0.0
 10
3.51118
 20
-0.7376
 30
0.0
 10
3.43021
 20
-0.74052
 30
0.0
 10
3.35138
 20
-0.73654
 30
0.0
 10
3.35138
 20
-0.73654
 30
0.0
 10
3.27489
 20
-0.73284
 30
0.0
 10
3.1987
 20
-0.72277
 30
0.0
 10
3.12356
 20
-0.70745
 30
0.0
 10
3.12356
 20
-0.70745
 30
0.0
 10
3.05054
 20
-0.69261
 30
0.0
 10
2.9738
 20
-0.67065
 30
0.0
 10
2.9238
 20
-0.6151
 30
0.0
 10
2.9238
 20
-0.6151
 30
0.0
 10
2.87936
 20
-0.56562
 30
0.0
 10
2.88094
 20
-0.491
 30
0.0
 10
2.90502
 20
-0.43253
 30
0.0
 10
2.90502
 20
-0.43253
 30
0.0
 10
2.9066
 20
-0.42935
 30
0.0
 10
2.9082
 20
-0.42566
 30
0.0
 10
2.91138
 20
-0.42408
 30
0.0
 10
2.91138
 20
-0.42408
 30
0.0
 10
2.91456
 20
-0.42222
 30
0.0
 10
2.91876
 20
-0.42273
 30
0.0
 10
2.92248
 20
-0.42353
 30
0.0
 10
2.92248
 20
-0.42353
 30
0.0
 10
2.97698
 20
-0.43385
 30
0.0
 10
3.0315
 20
-0.44708
 30
0.0
 10
3.08705
 20
-0.4508
 30
0.0
 10
3.08705
 20
-0.4508
 30
0.0
 10
3.15744
 20
-0.45555
 30
0.0
 10
3.22782
 20
-0.45899
 30
0.0
 10
3.29846
 20
-0.46059
 30
0.0
 10
3.29846
 20
-0.46059
 30
0.0
 10
3.43974
 20
-0.46403
 30
0.0
 10
3.58102
 20
-0.46136
 30
0.0
 10
3.72179
 20
-0.45237
 30
0.0
 10
3.72179
 20
-0.45237
 30
0.0
 10
3.93529
 20
-0.43914
 30
0.0
 10
4.1475
 20
-0.41162
 30
0.0
 10
4.35731
 20
-0.37062
 30
0.0
 10
4.35731
 20
-0.37062
 30
0.0
 10
4.42795
 20
-0.35659
 30
0.0
 10
4.49859
 20
-0.34098
 30
0.0
 10
4.56872
 20
-0.32406
 30
0.0
 10
4.56872
 20
-0.32406
 30
0.0
 10
4.65946
 20
-0.30184
 30
0.0
 10
4.75367
 20
-0.27484
 30
0.0
 10
4.82139
 20
-0.21055
 30
0.0
 10
4.82139
 20
-0.21055
 30
0.0
 10
4.88913
 20
-0.14627
 30
0.0
 10
4.91981
 20
-0.03328
 30
0.0
 10
4.86451
 20
0.04212
 30
0.0
 10
4.86451
 20
0.04212
 30
0.0
 10
4.81953
 20
0.10325
 30
0.0
 10
4.73672
 20
0.12018
 30
0.0
 10
4.66132
 20
0.12865
 30
0.0
 10
4.66132
 20
0.12865
 30
0.0
 10
4.56368
 20
0.13976
 30
0.0
 10
4.4658
 20
0.14452
 30
0.0
 10
4.36764
 20
0.14638
 30
0.0
 10
4.36764
 20
0.14638
 30
0.0
 10
4.08505
 20
0.15167
 30
0.0
 10
3.80091
 20
0.13183
 30
0.0
 10
3.51992
 20
0.16436
 30
0.0
 10
3.51992
 20
0.16436
 30
0.0
 10
3.49741
 20
0.16674
 30
0.0
 10
3.47333
 20
0.17046
 30
0.0
 10
3.45561
 20
0.18475
 30
0.0
 10
3.45561
 20
0.18475
 30
0.0
 10
3.41726
 20
0.21622
 30
0.0
 10
3.43207
 20
0.28317
 30
0.0
 10
3.4715
 20
0.31332
 30
0.0
 10
3.4715
 20
0.31332
 30
0.0
 10
3.5109
 20
0.3435
 30
0.0
 10
3.56382
 20
0.34745
 30
0.0
 10
3.61358
 20
0.35089
 30
0.0
 10
3.61358
 20
0.35089
 30
0.0
 10
3.93953
 20
0.37285
 30
0.0
 10
4.2639
 20
0.42049
 30
0.0
 10
4.58274
 20
0.49297
 30
0.0
 10
4.58274
 20
0.49297
 30
0.0
 10
4.70181
 20
0.51997
 30
0.0
 10
4.8325
 20
0.55992
 30
0.0
 10
4.89258
 20
0.66601
 30
0.0
 10
4.89258
 20
0.66601
 30
0.0
 10
4.91874
 20
0.71205
 30
0.0
 10
4.92777
 20
0.77052
 30
0.0
 10
4.905
 20
0.81843
 30
0.0
 10
4.905
 20
0.81843
 30
0.0
 10
4.88146
 20
0.86736
 30
0.0
 10
4.83012
 20
0.897
 30
0.0
 10
4.77906
 20
0.91578
 30
0.0
 10
4.77906
 20
0.91578
 30
0.0
 10
4.65603
 20
0.96129
 30
0.0
 10
4.52187
 20
0.96234
 30
0.0
 10
4.39092
 20
0.96579
 30
0.0
 10
4.39092
 20
0.96579
 30
0.0
 10
4.06681
 20
0.97452
 30
0.0
 10
3.74295
 20
1.00098
 30
0.0
 10
3.42176
 20
1.04516
 30
0.0
 10
3.42176
 20
1.04516
 30
0.0
 10
3.3831
 20
1.05045
 30
0.0
 10
3.33311
 20
1.06606
 30
0.0
 10
3.33892
 20
1.11528
 30
0.0
 10
3.33892
 20
1.11528
 30
0.0
 10
3.34688
 20
1.18486
 30
0.0
 10
3.43233
 20
1.20763
 30
0.0
 10
3.49002
 20
1.21634
 30
0.0
 10
3.49002
 20
1.21634
 30
0.0
 10
3.55007
 20
1.22535
 30
0.0
 10
3.61146
 20
1.22375
 30
0.0
 10
3.67151
 20
1.23117
 30
0.0
 10
3.67151
 20
1.23117
 30
0.0
 10
3.82814
 20
1.25021
 30
0.0
 10
3.98477
 20
1.27059
 30
0.0
 10
4.14114
 20
1.29228
 30
0.0
 10
4.14114
 20
1.29228
 30
0.0
 10
4.23006
 20
1.30444
 30
0.0
 10
4.31894
 20
1.31847
 30
0.0
 10
4.40784
 20
1.33013
 30
0.0
 10
4.40784
 20
1.33013
 30
0.0
 10
4.48218
 20
1.33992
 30
0.0
 10
4.55973
 20
1.34493
 30
0.0
 10
4.62639
 20
1.38276
 30
0.0
 10
4.62639
 20
1.38276
 30
0.0
 10
4.7055
 20
1.42774
 30
0.0
 10
4.76452
 20
1.52221
 30
0.0
 10
4.73832
 20
1.60951
 30
0.0
 10
4.73832
 20
1.60951
 30
0.0
 10
4.71106
 20
1.70025
 30
0.0
 10
4.60892
 20
1.74446
 30
0.0
 10
4.51606
 20
1.7643
 30
0.0
 10
4.51606
 20
1.7643
 30
0.0
 10
4.35943
 20
1.79815
 30
0.0
 10
4.18401
 20
1.80531
 30
0.0
 10
4.02394
 20
1.8127
 30
0.0
 10
4.02394
 20
1.8127
 30
0.0
 10
3.88106
 20
1.81932
 30
0.0
 10
3.7382
 20
1.82304
 30
0.0
 10
3.59532
 20
1.82409
 30
0.0
 10
3.59532
 20
1.82409
 30
0.0
 10
3.51726
 20
1.82461
 30
0.0
 10
3.43974
 20
1.82066
 30
0.0
 10
3.36326
 20
1.82461
 30
0.0
 10
3.36326
 20
1.82461
 30
0.0
 10
3.35507
 20
1.89287
 30
0.0
 10
3.27306
 20
1.97358
 30
0.0
 10
3.23893
 20
2.01723
 30
0.0
 10
3.23893
 20
2.01723
 30
0.0
 10
3.12038
 20
2.1691
 30
0.0
 10
2.98334
 20
2.29953
 30
0.0
 10
2.7759
 20
2.29134
 30
0.0
 10
2.7759
 20
2.29134
 30
0.0
 10
2.85078
 20
2.15878
 30
0.0
 10
2.85952
 20
2.02066
 30
0.0
 10
2.89629
 20
1.87806
 30
0.0
 10
2.89629
 20
1.87806
 30
0.0
 10
2.68305
 20
2.02384
 30
0.0
 10
2.43513
 20
2.13339
 30
0.0
 10
2.1663
 20
2.11327
 30
0.0
 10
2.1663
 20
2.11327
 30
0.0
 10
2.22423
 20
1.95426
 30
0.0
 10
2.33697
 20
1.75265
 30
0.0
 10
2.27133
 20
1.57512
 30
0.0
 10
2.27133
 20
1.57512
 30
0.0
 10
2.11339
 20
1.65848
 30
0.0
 10
1.88056
 20
1.78678
 30
0.0
 10
1.7001
 20
1.77991
 30
0.0
 10
1.7001
 20
1.77991
 30
0.0
 10
1.78106
 20
1.6021
 30
0.0
 10
1.94484
 20
1.24465
 30
0.0
 10
1.87658
 20
1.04965
 30
0.0
 10
1.87658
 20
1.04965
 30
0.0
 10
1.87658
 20
1.04965
 30
0.0
 10
1.87657
 20
1.04953
 30
0.0
 10
1.87657
 20
1.04953
 30
0.0
 10
1.87657
 20
1.04953
 30
0.0
 10
1.87657
 20
1.04953
 30
0.0
 10
1.2
 20
1.04953
 30
0.0
 10
1.2
 20
1.04953
 30
0.0
 10
1.2
 20
1.04953
 30
0.0
 10
1.2
 20
1.04953
 30
0.0
 10
1.2
 20
1.45
 30
0.0
 10
1.2
 20
1.45
 30
0.0
 10
1.2
 20
1.45
 30
0.0
 10
1.2
 20
1.72614
 30
0.0
 10
0.97614
 20
1.95
 30
0.0
 10
0.7
 20
1.95
 30
0.0
 10
0.7
 20
1.95
 30
0.0
 10
0.7
 20
1.95
 30
0.0
 10
0.3
 20
1.95
 30
0.0
 10
0.3
 20
1.95
 30
0.0
 10
0.3
 20
1.95
 30
0.0
 10
0.02386
 20
1.95
 30
0.0
 10
-0.2
 20
1.72614
 30
0.0
 10
-0.2
 20
1.45
 30
0.0
 10
-0.2
 20
1.45
 30
0.0
 10
-0.2
 20
1.45
 30
0.0
 10
-0.2
 20
-0.45
 30
0.0
 10
-0.2
 20
-0.45
 30
0.0
 10
-0.2
 20
-0.45
 30
0.0
 10
-0.2
 20
-0.72614
 30
0.0
 10
0.02386
 20
-0.95
 30
0.0
 10
0.3
 20
-0.95
 30
0.0
 10
0.3
 20
-0.95
 30
0.0
 10
0.3
 20
-0.95
 30
0.0
 10
0.7
 20
-0.95
 30
0.0
 10
0.7
 20
-0.95
 30
0.0
 10
0.7
 20
-0.95
 30
0.0
 10
0.97614
 20
-0.95
 30
0.0
 10
1.2
 20
-0.72614
 30
0.0
 10
1.2
 20
-0.45
 30
0.0
 10
1.2
 20
-0.45
 30
0.0
 10
1.2
 20
-0.45
 30
0.0
 10
1.2
 20
0.07453
 30
0.0
 10
1.2
 20
0.07453
 30
0.0
  0
ELLIPSE
  5
4D
330
1F
100
AcDbEntity
  8
Layer 1
370
    53
100
AcDbEllipse
 10
0.5
 20
1.25
 30
0.0
 11
0.0
 21
0.3
 31
0.0
210
0.0
220
0.0
230
1.0
 40
1.0
 41
0.0
 42
6.283185307179586
  0
ELLIPSE
  5
4E
330
1F
100
AcDbEntity
  8
Layer 1
370
    53
100
AcDbEllipse
 10
0.5
 20
-0.25
 30
0.0
 11
0.0
 21
0.3
 31
0.0
210
0.0
220
0.0
230
1.0
 40
1.0
 41
0.0
 42
6.283185307179586
  0
ELLIPSE
  5
4F
330
1F
100
AcDbEntity
  8
Layer 1
370
    53
100
AcDbEllipse
 10
-1.0
 20
0.5
 30
0.0
 11
0.0
 21
0.15
 31
0.0
210
0.0
220
0.0
230
1.0
 40
1.0
 41
0.0
 42
6.283185307179586
  0
ELLIPSE
  5
50
330
1F
100
AcDbEntity
  8
Layer 1
370
    53
100
AcDbEllipse
 10
0.5
 20
0.5
 30
0.0
 11
0.0
 21
0.15
 31
0.0
210
0.0
220
0.0
230
1.0
 40
1.0
 41
0.0
 42
6.283185307179586
  0
ENDSEC
  0
SECTION
  2
OBJECTS
  0
DICTIONARY
  5
C
330
0
100
AcDbDictionary
281
     1
  3
ACAD_GROUP
350
D
  3
ACAD_LAYOUT
350
1A
  3
ACAD_MATERIAL
350
3B
  3
ACAD_MLEADERSTYLE
350
72
  3
ACAD_MLINESTYLE
350
17
  3
ACAD_PLOTSETTINGS
350
19
  3
ACAD_PLOTSTYLENAME
350
E
  3
ACAD_TABLESTYLE
350
71
  3
ACAD_VISUALSTYLE
350
2A
  0
DICTIONARY
  5
D
102
{ACAD_REACTORS
330
C
102
}
330
C
100
AcDbDictionary
281
     1
  0
DICTIONARY
  5
1A
102
{ACAD_REACTORS
330
C
102
}
330
C
100
AcDbDictionary
281
     1
  3
Layout1
350
1E
  3
Layout2
350
26
  3
Model
350
22
  0
DICTIONARY
  5
3B
102
{ACAD_REACTORS
330
C
102
}
330
C
100
AcDbDictionary
281
     1
  3
ByBlock
350
3D
  3
ByLayer
350
3C
  3
Global
350
3E
  0
DICTIONARY
  5
72
102
{ACAD_REACTORS
330
C
102
}
330
C
100
AcDbDictionary
281
     1
  0
DICTIONARY
  5
17
102
{ACAD_REACTORS
330
C
102
}
330
C
100
AcDbDictionary
281
     1
  3
Standard
350
18
  0
DICTIONARY
  5
19
102
{ACAD_REACTORS
330
C
102
}
330
C
100
AcDbDictionary
281
     1
  0
ACDBDICTIONARYWDFLT
  5
E
102
{ACAD_REACTORS
330
C
102
}
330
C
100
AcDbDictionary
281
     1
  3
Normal
350
F
100
AcDbDictionaryWithDefault
340
F
  0
DICTIONARY
  5
71
102
{ACAD_REACTORS
330
C
102
}
330
C
100
AcDbDictionary
281
     1
  0
DICTIONARY
  5
2A
102
{ACAD_REACTORS
330
C
102
}
330
C
100
AcDbDictionary
281
     1
  3
2dWireframe
350
2F
  3
3D Hidden
350
31
  3
3dWireframe
350
30
  3
Basic
350
32
  3
Brighten
350
36
  3
ColorChange
350
3A
  3
Conceptual
350
34
  3
Dim
350
35
  3
Facepattern
350
39
  3
Flat
350
2B
  3
FlatWithEdges
350
2C
  3
Gouraud
350
2D
  3
GouraudWithEdges
350
2E
  3
Linepattern
350
38
  3
Realistic
350
33
  3
Thicken
350
37
  0
LAYOUT
  5
1E
102
{ACAD_REACTORS
330
1A
102
}
330
1A
100
AcDbPlotSettings
  1

  2
none_device
  4

  6

 40
0.0
 41
0.0
 42
0.0
 43
0.0
 44
0.0
 45
0.0
 46
0.0
 47
0.0
 48
0.0
 49
0.0
140
0.0
141
0.0
142
1.0
143
1.0
 70
   688
 72
     0
 73
     0
 74
     5
  7

 75
    16
 76
     0
 77
     2
 78
   300
147
1.0
148
0.0
149
0.0
100
AcDbLayout
  1
Layout1
 70
     1
 71
     1
 10
0.0
 20
0.0
 11
12.0
 21
9.0
 12
0.0
 22
0.0
 32
0.0
 14
1.000000000000000E+20
 24
1.000000000000000E+20
 34
1.000000000000000E+20
 15
-1.000000000000000E+20
 25
-1.000000000000000E+20
 35
-1.000000000000000E+20
146
0.0
 13
0.0
 23
0.0
 33
0.0
 16
1.0
 26
0.0
 36
0.0
 17
0.0
 27
1.0
 37
0.0
 76
     0
330
1B
  0
LAYOUT
  5
26
102
{ACAD_REACTORS
330
1A
102
}
330
1A
100
AcDbPlotSettings
  1

  2
none_device
  4

  6

 40
0.0
 41
0.0
 42
0.0
 43
0.0
 44
0.0
 45
0.0
 46
0.0
 47
0.0
 48
0.0
 49
0.0
140
0.0
141
0.0
142
1.0
143
1.0
 70
   688
 72
     0
 73
     0
 74
     5
  7

 75
    16
 76
     0
 77
     2
 78
   300
147
1.0
148
0.0
149
0.0
100
AcDbLayout
  1
Layout2
 70
     1
 71
     2
 10
0.0
 20
0.0
 11
0.0
 21
0.0
 12
0.0
 22
0.0
 32
0.0
 14
0.0
 24
0.0
 34
0.0
 15
0.0
 25
0.0
 35
0.0
146
0.0
 13
0.0
 23
0.0
 33
0.0
 16
1.0
 26
0.0
 36
0.0
 17
0.0
 27
1.0
 37
0.0
 76
     0
330
23
  0
LAYOUT
  5
22
102
{ACAD_REACTORS
330
1A
102
}
330
1A
100
AcDbPlotSettings
  1

  2
none_device
  4

  6

 40
0.0
 41
0.0
 42
0.0
 43
0.0
 44
0.0
 45
0.0
 46
0.0
 47
0.0
 48
0.0
 49
0.0
140
0.0
141
0.0
142
1.0
143
1.0
 70
  1712
 72
     0
 73
     0
 74
     0
  7

 75
     0
 76
     0
 77
     2
 78
   300
147
1.0
148
0.0
149
0.0
100
AcDbLayout
  1
Model
 70
     1
 71
     0
 10
0.0
 20
0.0
 11
12.0
 21
9.0
 12
0.0
 22
0.0
 32
0.0
 14
-5.44445
 24
-1.27238
 34
0.0
 15
4.94445
 25
2.31817
 35
0.0
146
0.0
 13
0.0
 23
0.0
 33
0.0
 16
1.0
 26
0.0
 36
0.0
 17
0.0
 27
1.0
 37
0.0
 76
     0
330
1F
331
29
  0
MATERIAL
  5
3D
102
{ACAD_REACTORS
330
3B
102
}
330
3B
100
AcDbMaterial
  1
ByBlock
 72
     1
 94
      127
  0
MATERIAL
  5
3C
102
{ACAD_REACTORS
330
3B
102
}
330
3B
100
AcDbMaterial
  1
ByLayer
 72
     1
 94
      127
  0
MATERIAL
  5
3E
102
{ACAD_REACTORS
330
3B
102
}
330
3B
100
AcDbMaterial
  1
Global
 72
     1
 94
      127
  0
MLINESTYLE
  5
18
102
{ACAD_REACTORS
330
17
102
}
330
17
100
AcDbMlineStyle
  2
Standard
 70
     0
  3

 62
   256
 51
90.0
 52
90.0
 71
     2
 49
0.5
 62
   256
  6
BYLAYER
 49
-0.5
 62
   256
  6
BYLAYER
  0
ACDBPLACEHOLDER
  5
F
102
{ACAD_REACTORS
330
E
102
}
330
E
  0
VISUALSTYLE
  5
2F
102
{ACAD_REACTORS
330
2A
102
}
102
{ACAD_XDICTIONARY
360
59
102
}
330
2A
100
AcDbVisualStyle
  2
2dWireframe
 70
     4
 71
     0
 72
     2
 73
     0
 90
        0
 40
-0.6
 41
-30.0
 62
     5
 63
     7
421
 16777215
 74
     1
 91
        4
 64
     7
 65
   257
 75
     1
175
     1
 42
1.0
 92
        0
 66
   257
 43
1.0
 76
     1
 77
     6
 78
     2
 67
     7
 79
     5
170
     0
171
     0
290
     0
174
     0
 93
        1
 44
0.0
173
     0
291
     0
 45
0.0
  0
VISUALSTYLE
  5
31
102
{ACAD_REACTORS
330
2A
102
}
102
{ACAD_XDICTIONARY
360
5D
102
}
330
2A
100
AcDbVisualStyle
  2
3D Hidden
 70
     6
 71
     1
 72
     2
 73
     2
 90
        0
 40
-0.6
 41
-30.0
 62
     5
 63
     7
421
 16777215
 74
     2
 91
        2
 64
     7
 65
   257
 75
     2
175
     1
 42
40.0
 92
        0
 66
   257
 43
1.0
 76
     1
 77
     6
 78
     2
 67
     7
 79
     3
170
     0
171
     0
290
     0
174
     0
 93
        1
 44
0.0
173
     0
291
     0
 45
0.0
  0
VISUALSTYLE
  5
30
102
{ACAD_REACTORS
330
2A
102
}
102
{ACAD_XDICTIONARY
360
5B
102
}
330
2A
100
AcDbVisualStyle
  2
3dWireframe
 70
     5
 71
     0
 72
     2
 73
     0
 90
        0
 40
-0.6
 41
-30.0
 62
     5
 63
     7
421
 16777215
 74
     1
 91
        4
 64
     7
 65
   257
 75
     1
175
     1
 42
1.0
 92
        0
 66
   257
 43
1.0
 76
     1
 77
     6
 78
     2
 67
     7
 79
     5
170
     0
171
     0
290
     0
174
     0
 93
        1
 44
0.0
173
     0
291
     0
 45
0.0
  0
VISUALSTYLE
  5
32
102
{ACAD_REACTORS
330
2A
102
}
102
{ACAD_XDICTIONARY
360
5F
102
}
330
2A
100
AcDbVisualStyle
  2
Basic
 70
     7
 71
     1
 72
     0
 73
     1
 90
        0
 40
-0.6
 41
-30.0
 62
     5
 63
     7
421
 16777215
 74
     0
 91
        4
 64
     7
 65
   257
 75
     1
175
     1
 42
1.0
 92
        8
 66
     7
 43
1.0
 76
     1
 77
     6
 78
     2
 67
     7
 79
     5
170
     0
171
     0
290
     0
174
     0
 93
        1
 44
0.0
173
     0
291
     1
 45
0.0
  0
VISUALSTYLE
  5
36
102
{ACAD_REACTORS
330
2A
102
}
102
{ACAD_XDICTIONARY
360
67
102
}
330
2A
100
AcDbVisualStyle
  2
Brighten
 70
    12
 71
     2
 72
     2
 73
     0
 90
        0
 40
-0.6
 41
-30.0
 62
     5
 63
     7
421
 16777215
 74
     1
 91
        4
 64
     7
 65
   257
 75
     1
175
     1
 42
1.0
 92
        8
 66
     7
 43
1.0
 76
     1
 77
     6
 78
     2
 67
     7
 79
     5
170
     0
171
     0
290
     0
174
     0
 93
        1
 44
50.0
173
     0
291
     1
 45
0.0
  0
VISUALSTYLE
  5
3A
102
{ACAD_REACTORS
330
2A
102
}
102
{ACAD_XDICTIONARY
360
6F
102
}
330
2A
100
AcDbVisualStyle
  2
ColorChange
 70
    16
 71
     2
 72
     2
 73
     3
 90
        0
 40
-0.6
 41
-30.0
 62
     5
 63
     8
421
  8421504
 74
     1
 91
        4
 64
     7
 65
   257
 75
     1
175
     1
 42
1.0
 92
        8
 66
     8
424
  8421504
 43
1.0
 76
     1
 77
     6
 78
     2
 67
     7
 79
     5
170
     0
171
     0
290
     0
174
     0
 93
        1
 44
0.0
173
     0
291
     1
 45
0.0
  0
VISUALSTYLE
  5
34
102
{ACAD_REACTORS
330
2A
102
}
102
{ACAD_XDICTIONARY
360
63
102
}
330
2A
100
AcDbVisualStyle
  2
Conceptual
 70
     9
 71
     3
 72
     2
 73
     0
 90
        0
 40
-0.6
 41
-30.0
 62
     5
 63
     7
421
 16777215
 74
     2
 91
        2
 64
     7
 65
   257
 75
     1
175
     1
 42
40.0
 92
        8
 66
     7
 43
1.0
 76
     1
 77
     6
 78
     2
 67
     7
 79
     3
170
     0
171
     0
290
     0
174
     0
 93
        1
 44
0.0
173
     0
291
     0
 45
0.0
  0
VISUALSTYLE
  5
35
102
{ACAD_REACTORS
330
2A
102
}
102
{ACAD_XDICTIONARY
360
65
102
}
330
2A
100
AcDbVisualStyle
  2
Dim
 70
    11
 71
     2
 72
     2
 73
     0
 90
        0
 40
-0.6
 41
-30.0
 62
     5
 63
     7
421
 16777215
 74
     1
 91
        4
 64
     7
 65
   257
 75
     1
175
     1
 42
1.0
 92
        8
 66
     7
 43
1.0
 76
     1
 77
     6
 78
     2
 67
     7
 79
     5
170
     0
171
     0
290
     0
174
     0
 93
        1
 44
-50.0
173
     0
291
     1
 45
0.0
  0
VISUALSTYLE
  5
39
102
{ACAD_REACTORS
330
2A
102
}
102
{ACAD_XDICTIONARY
360
6D
102
}
330
2A
100
AcDbVisualStyle
  2
Facepattern
 70
    15
 71
     2
 72
     2
 73
     0
 90
        0
 40
-0.6
 41
-30.0
 62
     5
 63
     7
421
 16777215
 74
     1
 91
        4
 64
     7
 65
   257
 75
     1
175
     1
 42
1.0
 92
        8
 66
     7
 43
1.0
 76
     1
 77
     6
 78
     2
 67
     7
 79
     5
170
     0
171
     0
290
     0
174
     0
 93
        1
 44
0.0
173
     0
291
     1
 45
0.0
  0
VISUALSTYLE
  5
2B
102
{ACAD_REACTORS
330
2A
102
}
102
{ACAD_XDICTIONARY
360
51
102
}
330
2A
100
AcDbVisualStyle
  2
Flat
 70
     0
 71
     2
 72
     1
 73
     1
 90
        2
 40
-0.6
 41
30.0
 62
     5
 63
     7
421
 16777215
 74
     0
 91
        4
 64
     7
 65
   257
 75
     1
175
     1
 42
1.0
 92
        8
 66
     7
 43
1.0
 76
     1
 77
     6
 78
     2
 67
     7
 79
     5
170
     0
171
     0
290
     0
174
     0
 93
       13
 44
0.0
173
     0
291
     1
 45
0.0
  0
VISUALSTYLE
  5
2C
102
{ACAD_REACTORS
330
2A
102
}
102
{ACAD_XDICTIONARY
360
53
102
}
330
2A
100
AcDbVisualStyle
  2
FlatWithEdges
 70
     1
 71
     2
 72
     1
 73
     1
 90
        2
 40
-0.6
 41
30.0
 62
     5
 63
     7
421
 16777215
 74
     1
 91
        4
 64
     7
 65
   257
 75
     1
175
     1
 42
1.0
 92
        0
 66
   257
 43
1.0
 76
     1
 77
     6
 78
     2
 67
     7
 79
     5
170
     0
171
     0
290
     0
174
     0
 93
       13
 44
0.0
173
     0
291
     1
 45
0.0
  0
VISUALSTYLE
  5
2D
102
{ACAD_REACTORS
330
2A
102
}
102
{ACAD_XDICTIONARY
360
55
102
}
330
2A
100
AcDbVisualStyle
  2
Gouraud
 70
     2
 71
     2
 72
     2
 73
     1
 90
        2
 40
-0.6
 41
30.0
 62
     5
 63
     7
421
 16777215
 74
     0
 91
        4
 64
     7
 65
   257
 75
     1
175
     1
 42
1.0
 92
        0
 66
     7
 43
1.0
 76
     1
 77
     6
 78
     2
 67
     7
 79
     5
170
     0
171
     0
290
     0
174
     0
 93
       13
 44
0.0
173
     0
291
     1
 45
0.0
  0
VISUALSTYLE
  5
2E
102
{ACAD_REACTORS
330
2A
102
}
102
{ACAD_XDICTIONARY
360
57
102
}
330
2A
100
AcDbVisualStyle
  2
GouraudWithEdges
 70
     3
 71
     2
 72
     2
 73
     1
 90
        2
 40
-0.6
 41
30.0
 62
     5
 63
     7
421
 16777215
 74
     1
 91
        4
 64
     7
 65
   257
 75
     1
175
     1
 42
1.0
 92
        0
 66
   257
 43
1.0
 76
     1
 77
     6
 78
     2
 67
     7
 79
     5
170
     0
171
     0
290
     0
174
     0
 93
       13
 44
0.0
173
     0
291
     1
 45
0.0
  0
VISUALSTYLE
  5
38
102
{ACAD_REACTORS
330
2A
102
}
102
{ACAD_XDICTIONARY
360
6B
102
}
330
2A
100
AcDbVisualStyle
  2
Linepattern
 70
    14
 71
     2
 72
     2
 73
     0
 90
        0
 40
-0.6
 41
-30.0
 62
     5
 63
     7
421
 16777215
 74
     1
 91
        4
 64
     7
 65
   257
 75
     7
175
     7
 42
1.0
 92
        8
 66
     7
 43
1.0
 76
     1
 77
     6
 78
     2
 67
     7
 79
     5
170
     0
171
     0
290
     0
174
     0
 93
        1
 44
0.0
173
     0
291
     1
 45
0.0
  0
VISUALSTYLE
  5
33
102
{ACAD_REACTORS
330
2A
102
}
102
{ACAD_XDICTIONARY
360
61
102
}
330
2A
100
AcDbVisualStyle
  2
Realistic
 70
     8
 71
     2
 72
     2
 73
     0
 90
        0
 40
-0.6
 41
-30.0
 62
     5
 63
     7
421
 16777215
 74
     1
 91
        0
 64
     7
 65
   257
 75
     1
175
     1
 42
1.0
 92
        8
 66
     8
424
  7895160
 43
1.0
 76
     1
 77
     6
 78
     2
 67
     7
 79
     5
170
     0
171
     0
290
     0
174
     0
 93
       13
 44
0.0
173
     0
291
     0
 45
0.0
  0
VISUALSTYLE
  5
37
102
{ACAD_REACTORS
330
2A
102
}
102
{ACAD_XDICTIONARY
360
69
102
}
330
2A
100
AcDbVisualStyle
  2
Thicken
 70
    13
 71
     2
 72
     2
 73
     0
 90
        0
 40
-0.6
 41
-30.0
 62
     5
 63
     7
421
 16777215
 74
     1
 91
        4
 64
     7
 65
   257
 75
     1
175
     1
 42
1.0
 92
       12
 66
     7
 43
1.0
 76
     1
 77
     6
 78
     2
 67
     7
 79
     5
170
     0
171
     0
290
     0
174
     0
 93
        1
 44
0.0
173
     0
291
     1
 45
0.0
  0
DICTIONARY
  5
59
330
2F
100
AcDbDictionary
280
     1
281
     1
  3
ACAD_XREC_ROUNDTRIP
360
5A
  0
DICTIONARY
  5
5D
330
31
100
AcDbDictionary
280
     1
281
     1
  3
ACAD_XREC_ROUNDTRIP
360
5E
  0
DICTIONARY
  5
5B
330
30
100
AcDbDictionary
280
     1
281
     1
  3
ACAD_XREC_ROUNDTRIP
360
5C
  0
DICTIONARY
  5
5F
330
32
100
AcDbDictionary
280
     1
281
     1
  3
ACAD_XREC_ROUNDTRIP
360
60
  0
DICTIONARY
  5
67
330
36
100
AcDbDictionary
280
     1
281
     1
  3
ACAD_XREC_ROUNDTRIP
360
68
  0
DICTIONARY
  5
6F
330
3A
100
AcDbDictionary
280
     1
281
     1
  3
ACAD_XREC_ROUNDTRIP
360
70
  0
DICTIONARY
  5
63
330
34
100
AcDbDictionary
280
     1
281
     1
  3
ACAD_XREC_ROUNDTRIP
360
64
  0
DICTIONARY
  5
65
330
35
100
AcDbDictionary
280
     1
281
     1
  3
ACAD_XREC_ROUNDTRIP
360
66
  0
DICTIONARY
  5
6D
330
39
100
AcDbDictionary
280
     1
281
     1
  3
ACAD_XREC_ROUNDTRIP
360
6E
  0
DICTIONARY
  5
51
330
2B
100
AcDbDictionary
280
     1
281
     1
  3
ACAD_XREC_ROUNDTRIP
360
52
  0
DICTIONARY
  5
53
330
2C
100
AcDbDictionary
280
     1
281
     1
  3
ACAD_XREC_ROUNDTRIP
360
54
  0
DICTIONARY
  5
55
330
2D
100
AcDbDictionary
280
     1
281
     1
  3
ACAD_XREC_ROUNDTRIP
360
56
  0
DICTIONARY
  5
57
330
2E
100
AcDbDictionary
280
     1
281
     1
  3
ACAD_XREC_ROUNDTRIP
360
58
  0
DICTIONARY
  5
6B
330
38
100
AcDbDictionary
280
     1
281
     1
  3
ACAD_XREC_ROUNDTRIP
360
6C
  0
DICTIONARY
  5
61
330
33
100
AcDbDictionary
280
     1
281
     1
  3
ACAD_XREC_ROUNDTRIP
360
62
  0
DICTIONARY
  5
69
330
37
100
AcDbDictionary
280
     1
281
     1
  3
ACAD_XREC_ROUNDTRIP
360
6A
  0
XRECORD
  5
5A
102
{ACAD_REACTORS
330
59
102
}
330
59
100
AcDbXrecord
280
     1
102
RTVSPropertyOp0
 70
     1
102
RTVSPropertyOp1
 70
     1
102
RTVSPropertyOp2
 70
     1
102
RTVSPropertyOp3
 70
     1
102
RTVSPropertyOp4
 70
     1
102
RTVSPropertyOp5
 70
     1
102
RTVSPropertyOp6
 70
     1
102
RTVSPropertyOp7
 70
     1
102
RTVSPropertyOp8
 70
     1
102
RTVSPropertyOp9
 70
     1
102
RTVSPropertyOp10
 70
     1
102
RTVSPropertyOp11
 70
     1
102
RTVSPropertyOp12
 70
     1
102
RTVSPropertyOp13
 70
     1
102
RTVSPropertyOp14
 70
     1
102
RTVSPropertyOp15
 70
     1
102
RTVSPropertyOp16
 70
     1
102
RTVSPropertyOp17
 70
     1
102
RTVSPropertyOp18
 70
     1
102
RTVSPropertyOp19
 70
     1
102
RTVSPropertyOp20
 70
     1
102
RTVSPropertyOp21
 70
     1
102
RTVSPropertyOp22
 70
     1
102
RTVSPropertyOp23
 70
     1
102
RTVSPropertyOp24
 70
     1
102
RTVSPropertyOp25
 70
     1
102
RTVSPropertyOp26
 70
     1
102
RTVSPropertyOp27
 70
     1
102
RTVSPropertyOp28
 70
     1
102
RTVSPropertyOp29
 70
     1
102
RTVSPropertyOp30
 70
     1
102
RTVSPropertyOp31
 70
     1
102
RTVSPropertyOp32
 70
     1
  0
XRECORD
  5
5E
102
{ACAD_REACTORS
330
5D
102
}
330
5D
100
AcDbXrecord
280
     1
102
RTVSPropertyOp0
 70
     1
102
RTVSPropertyOp1
 70
     1
102
RTVSPropertyOp2
 70
     1
102
RTVSPropertyOp3
 70
     1
102
RTVSPropertyOp4
 70
     1
102
RTVSPropertyOp5
 70
     1
102
RTVSPropertyOp6
 70
     1
102
RTVSPropertyOp7
 70
     1
102
RTVSPropertyOp8
 70
     1
102
RTVSPropertyOp9
 70
     1
102
RTVSPropertyOp10
 70
     1
102
RTVSPropertyOp11
 70
     1
102
RTVSPropertyOp12
 70
     1
102
RTVSPropertyOp13
 70
     1
102
RTVSPropertyOp14
 70
     1
102
RTVSPropertyOp15
 70
     1
102
RTVSPropertyOp16
 70
     1
102
RTVSPropertyOp17
 70
     1
102
RTVSPropertyOp18
 70
     1
102
RTVSPropertyOp19
 70
     1
102
RTVSPropertyOp20
 70
     1
102
RTVSPropertyOp21
 70
     1
102
RTVSPropertyOp22
 70
     1
102
RTVSPropertyOp23
 70
     1
102
RTVSPropertyOp24
 70
     1
102
RTVSPropertyOp25
 70
     1
102
RTVSPropertyOp26
 70
     1
102
RTVSPropertyOp27
 70
     1
102
RTVSPropertyOp28
 70
     1
102
RTVSPropertyOp29
 70
     1
102
RTVSPropertyOp30
 70
     1
102
RTVSPropertyOp31
 70
     1
102
RTVSPropertyOp32
 70
     1
  0
XRECORD
  5
5C
102
{ACAD_REACTORS
330
5B
102
}
330
5B
100
AcDbXrecord
280
     1
102
RTVSPropertyOp0
 70
     1
102
RTVSPropertyOp1
 70
     1
102
RTVSPropertyOp2
 70
     1
102
RTVSPropertyOp3
 70
     1
102
RTVSPropertyOp4
 70
     1
102
RTVSPropertyOp5
 70
     1
102
RTVSPropertyOp6
 70
     1
102
RTVSPropertyOp7
 70
     1
102
RTVSPropertyOp8
 70
     1
102
RTVSPropertyOp9
 70
     1
102
RTVSPropertyOp10
 70
     1
102
RTVSPropertyOp11
 70
     1
102
RTVSPropertyOp12
 70
     1
102
RTVSPropertyOp13
 70
     1
102
RTVSPropertyOp14
 70
     1
102
RTVSPropertyOp15
 70
     1
102
RTVSPropertyOp16
 70
     1
102
RTVSPropertyOp17
 70
     1
102
RTVSPropertyOp18
 70
     1
102
RTVSPropertyOp19
 70
     1
102
RTVSPropertyOp20
 70
     1
102
RTVSPropertyOp21
 70
     1
102
RTVSPropertyOp22
 70
     1
102
RTVSPropertyOp23
 70
     1
102
RTVSPropertyOp24
 70
     1
102
RTVSPropertyOp25
 70
     1
102
RTVSPropertyOp26
 70
     1
102
RTVSPropertyOp27
 70
     1
102
RTVSPropertyOp28
 70
     1
102
RTVSPropertyOp29
 70
     1
102
RTVSPropertyOp30
 70
     1
102
RTVSPropertyOp31
 70
     1
102
RTVSPropertyOp32
 70
     1
  0
XRECORD
  5
60
102
{ACAD_REACTORS
330
5F
102
}
330
5F
100
AcDbXrecord
280
     1
102
RTVSPropertyOp0
 70
     1
102
RTVSPropertyOp1
 70
     1
102
RTVSPropertyOp2
 70
     1
102
RTVSPropertyOp3
 70
     1
102
RTVSPropertyOp4
 70
     1
102
RTVSPropertyOp5
 70
     1
102
RTVSPropertyOp6
 70
     1
102
RTVSPropertyOp7
 70
     1
102
RTVSPropertyOp8
 70
     1
102
RTVSPropertyOp9
 70
     1
102
RTVSPropertyOp10
 70
     1
102
RTVSPropertyOp11
 70
     1
102
RTVSPropertyOp12
 70
     1
102
RTVSPropertyOp13
 70
     1
102
RTVSPropertyOp14
 70
     1
102
RTVSPropertyOp15
 70
     1
102
RTVSPropertyOp16
 70
     1
102
RTVSPropertyOp17
 70
     1
102
RTVSPropertyOp18
 70
     1
102
RTVSPropertyOp19
 70
     1
102
RTVSPropertyOp20
 70
     1
102
RTVSPropertyOp21
 70
     1
102
RTVSPropertyOp22
 70
     1
102
RTVSPropertyOp23
 70
     1
102
RTVSPropertyOp24
 70
     1
102
RTVSPropertyOp25
 70
     1
102
RTVSPropertyOp26
 70
     1
102
RTVSPropertyOp27
 70
     1
102
RTVSPropertyOp28
 70
     1
102
RTVSPropertyOp29
 70
     1
102
RTVSPropertyOp30
 70
     1
102
RTVSPropertyOp31
 70
     1
102
RTVSPropertyOp32
 70
     1
  0
XRECORD
  5
68
102
{ACAD_REACTORS
330
67
102
}
330
67
100
AcDbXrecord
280
     1
102
RTVSPropertyOp0
 70
     1
102
RTVSPropertyOp1
 70
     1
102
RTVSPropertyOp2
 70
     1
102
RTVSPropertyOp3
 70
     1
102
RTVSPropertyOp4
 70
     1
102
RTVSPropertyOp5
 70
     1
102
RTVSPropertyOp6
 70
     1
102
RTVSPropertyOp7
 70
     1
102
RTVSPropertyOp8
 70
     1
102
RTVSPropertyOp9
 70
     1
102
RTVSPropertyOp10
 70
     1
102
RTVSPropertyOp11
 70
     1
102
RTVSPropertyOp12
 70
     1
102
RTVSPropertyOp13
 70
     1
102
RTVSPropertyOp14
 70
     1
102
RTVSPropertyOp15
 70
     1
102
RTVSPropertyOp16
 70
     1
102
RTVSPropertyOp17
 70
     1
102
RTVSPropertyOp18
 70
     1
102
RTVSPropertyOp19
 70
     1
102
RTVSPropertyOp20
 70
     1
102
RTVSPropertyOp21
 70
     1
102
RTVSPropertyOp22
 70
     1
102
RTVSPropertyOp23
 70
     1
102
RTVSPropertyOp24
 70
     1
102
RTVSPropertyOp25
 70
     1
102
RTVSPropertyOp26
 70
     1
102
RTVSPropertyOp27
 70
     1
102
RTVSPropertyOp28
 70
     1
102
RTVSPropertyOp29
 70
     1
102
RTVSPropertyOp30
 70
     1
102
RTVSPropertyOp31
 70
     1
102
RTVSPropertyOp32
 70
     1
  0
XRECORD
  5
70
102
{ACAD_REACTORS
330
6F
102
}
330
6F
100
AcDbXrecord
280
     1
102
RTVSPropertyOp0
 70
     1
102
RTVSPropertyOp1
 70
     1
102
RTVSPropertyOp2
 70
     1
102
RTVSPropertyOp3
 70
     1
102
RTVSPropertyOp4
 70
     1
102
RTVSPropertyOp5
 70
     1
102
RTVSPropertyOp6
 70
     1
102
RTVSPropertyOp7
 70
     1
102
RTVSPropertyOp8
 70
     1
102
RTVSPropertyOp9
 70
     1
102
RTVSPropertyOp10
 70
     1
102
RTVSPropertyOp11
 70
     1
102
RTVSPropertyOp12
 70
     1
102
RTVSPropertyOp13
 70
     1
102
RTVSPropertyOp14
 70
     1
102
RTVSPropertyOp15
 70
     1
102
RTVSPropertyOp16
 70
     1
102
RTVSPropertyOp17
 70
     1
102
RTVSPropertyOp18
 70
     1
102
RTVSPropertyOp19
 70
     1
102
RTVSPropertyOp20
 70
     1
102
RTVSPropertyOp21
 70
     1
102
RTVSPropertyOp22
 70
     1
102
RTVSPropertyOp23
 70
     1
102
RTVSPropertyOp24
 70
     1
102
RTVSPropertyOp25
 70
     1
102
RTVSPropertyOp26
 70
     1
102
RTVSPropertyOp27
 70
     1
102
RTVSPropertyOp28
 70
     1
102
RTVSPropertyOp29
 70
     1
102
RTVSPropertyOp30
 70
     1
102
RTVSPropertyOp31
 70
     1
102
RTVSPropertyOp32
 70
     1
  0
XRECORD
  5
64
102
{ACAD_REACTORS
330
63
102
}
330
63
100
AcDbXrecord
280
     1
102
RTVSPropertyOp0
 70
     1
102
RTVSPropertyOp1
 70
     1
102
RTVSPropertyOp2
 70
     1
102
RTVSPropertyOp3
 70
     1
102
RTVSPropertyOp4
 70
     1
102
RTVSPropertyOp5
 70
     1
102
RTVSPropertyOp6
 70
     1
102
RTVSPropertyOp7
 70
     1
102
RTVSPropertyOp8
 70
     1
102
RTVSPropertyOp9
 70
     1
102
RTVSPropertyOp10
 70
     1
102
RTVSPropertyOp11
 70
     1
102
RTVSPropertyOp12
 70
     1
102
RTVSPropertyOp13
 70
     1
102
RTVSPropertyOp14
 70
     1
102
RTVSPropertyOp15
 70
     1
102
RTVSPropertyOp16
 70
     1
102
RTVSPropertyOp17
 70
     1
102
RTVSPropertyOp18
 70
     1
102
RTVSPropertyOp19
 70
     1
102
RTVSPropertyOp20
 70
     1
102
RTVSPropertyOp21
 70
     1
102
RTVSPropertyOp22
 70
     1
102
RTVSPropertyOp23
 70
     1
102
RTVSPropertyOp24
 70
     1
102
RTVSPropertyOp25
 70
     1
102
RTVSPropertyOp26
 70
     1
102
RTVSPropertyOp27
 70
     1
102
RTVSPropertyOp28
 70
     1
102
RTVSPropertyOp29
 70
     1
102
RTVSPropertyOp30
 70
     1
102
RTVSPropertyOp31
 70
     1
102
RTVSPropertyOp32
 70
     1
  0
XRECORD
  5
66
102
{ACAD_REACTORS
330
65
102
}
330
65
100
AcDbXrecord
280
     1
102
RTVSPropertyOp0
 70
     1
102
RTVSPropertyOp1
 70
     1
102
RTVSPropertyOp2
 70
     1
102
RTVSPropertyOp3
 70
     1
102
RTVSPropertyOp4
 70
     1
102
RTVSPropertyOp5
 70
     1
102
RTVSPropertyOp6
 70
     1
102
RTVSPropertyOp7
 70
     1
102
RTVSPropertyOp8
 70
     1
102
RTVSPropertyOp9
 70
     1
102
RTVSPropertyOp10
 70
     1
102
RTVSPropertyOp11
 70
     1
102
RTVSPropertyOp12
 70
     1
102
RTVSPropertyOp13
 70
     1
102
RTVSPropertyOp14
 70
     1
102
RTVSPropertyOp15
 70
     1
102
RTVSPropertyOp16
 70
     1
102
RTVSPropertyOp17
 70
     1
102
RTVSPropertyOp18
 70
     1
102
RTVSPropertyOp19
 70
     1
102
RTVSPropertyOp20
 70
     1
102
RTVSPropertyOp21
 70
     1
102
RTVSPropertyOp22
 70
     1
102
RTVSPropertyOp23
 70
     1
102
RTVSPropertyOp24
 70
     1
102
RTVSPropertyOp25
 70
     1
102
RTVSPropertyOp26
 70
     1
102
RTVSPropertyOp27
 70
     1
102
RTVSPropertyOp28
 70
     1
102
RTVSPropertyOp29
 70
     1
102
RTVSPropertyOp30
 70
     1
102
RTVSPropertyOp31
 70
     1
102
RTVSPropertyOp32
 70
     1
  0
XRECORD
  5
6E
102
{ACAD_REACTORS
330
6D
102
}
330
6D
100
AcDbXrecord
280
     1
102
RTVSPropertyOp0
 70
     1
102
RTVSPropertyOp1
 70
     1
102
RTVSPropertyOp2
 70
     1
102
RTVSPropertyOp3
 70
     1
102
RTVSPropertyOp4
 70
     1
102
RTVSPropertyOp5
 70
     1
102
RTVSPropertyOp6
 70
     1
102
RTVSPropertyOp7
 70
     1
102
RTVSPropertyOp8
 70
     1
102
RTVSPropertyOp9
 70
     1
102
RTVSPropertyOp10
 70
     1
102
RTVSPropertyOp11
 70
     1
102
RTVSPropertyOp12
 70
     1
102
RTVSPropertyOp13
 70
     1
102
RTVSPropertyOp14
 70
     1
102
RTVSPropertyOp15
 70
     1
102
RTVSPropertyOp16
 70
     1
102
RTVSPropertyOp17
 70
     1
102
RTVSPropertyOp18
 70
     1
102
RTVSPropertyOp19
 70
     1
102
RTVSPropertyOp20
 70
     1
102
RTVSPropertyOp21
 70
     1
102
RTVSPropertyOp22
 70
     1
102
RTVSPropertyOp23
 70
     1
102
RTVSPropertyOp24
 70
     1
102
RTVSPropertyOp25
 70
     1
102
RTVSPropertyOp26
 70
     1
102
RTVSPropertyOp27
 70
     1
102
RTVSPropertyOp28
 70
     1
102
RTVSPropertyOp29
 70
     1
102
RTVSPropertyOp30
 70
     1
102
RTVSPropertyOp31
 70
     1
102
RTVSPropertyOp32
 70
     1
  0
XRECORD
  5
52
102
{ACAD_REACTORS
330
51
102
}
330
51
100
AcDbXrecord
280
     1
102
RTVSPropertyOp0
 70
     1
102
RTVSPropertyOp1
 70
     1
102
RTVSPropertyOp2
 70
     1
102
RTVSPropertyOp3
 70
     1
102
RTVSPropertyOp4
 70
     1
102
RTVSPropertyOp5
 70
     1
102
RTVSPropertyOp6
 70
     1
102
RTVSPropertyOp7
 70
     1
102
RTVSPropertyOp8
 70
     1
102
RTVSPropertyOp9
 70
     1
102
RTVSPropertyOp10
 70
     1
102
RTVSPropertyOp11
 70
     1
102
RTVSPropertyOp12
 70
     1
102
RTVSPropertyOp13
 70
     1
102
RTVSPropertyOp14
 70
     1
102
RTVSPropertyOp15
 70
     1
102
RTVSPropertyOp16
 70
     1
102
RTVSPropertyOp17
 70
     1
102
RTVSPropertyOp18
 70
     1
102
RTVSPropertyOp19
 70
     1
102
RTVSPropertyOp20
 70
     1
102
RTVSPropertyOp21
 70
     1
102
RTVSPropertyOp22
 70
     1
102
RTVSPropertyOp23
 70
     1
102
RTVSPropertyOp24
 70
     1
102
RTVSPropertyOp25
 70
     1
102
RTVSPropertyOp26
 70
     1
102
RTVSPropertyOp27
 70
     1
102
RTVSPropertyOp28
 70
     1
102
RTVSPropertyOp29
 70
     1
102
RTVSPropertyOp30
 70
     1
102
RTVSPropertyOp31
 70
     1
102
RTVSPropertyOp32
 70
     1
  0
XRECORD
  5
54
102
{ACAD_REACTORS
330
53
102
}
330
53
100
AcDbXrecord
280
     1
102
RTVSPropertyOp0
 70
     1
102
RTVSPropertyOp1
 70
     1
102
RTVSPropertyOp2
 70
     1
102
RTVSPropertyOp3
 70
     1
102
RTVSPropertyOp4
 70
     1
102
RTVSPropertyOp5
 70
     1
102
RTVSPropertyOp6
 70
     1
102
RTVSPropertyOp7
 70
     1
102
RTVSPropertyOp8
 70
     1
102
RTVSPropertyOp9
 70
     1
102
RTVSPropertyOp10
 70
     1
102
RTVSPropertyOp11
 70
     1
102
RTVSPropertyOp12
 70
     1
102
RTVSPropertyOp13
 70
     1
102
RTVSPropertyOp14
 70
     1
102
RTVSPropertyOp15
 70
     1
102
RTVSPropertyOp16
 70
     1
102
RTVSPropertyOp17
 70
     1
102
RTVSPropertyOp18
 70
     1
102
RTVSPropertyOp19
 70
     1
102
RTVSPropertyOp20
 70
     1
102
RTVSPropertyOp21
 70
     1
102
RTVSPropertyOp22
 70
     1
102
RTVSPropertyOp23
 70
     1
102
RTVSPropertyOp24
 70
     1
102
RTVSPropertyOp25
 70
     1
102
RTVSPropertyOp26
 70
     1
102
RTVSPropertyOp27
 70
     1
102
RTVSPropertyOp28
 70
     1
102
RTVSPropertyOp29
 70
     1
102
RTVSPropertyOp30
 70
     1
102
RTVSPropertyOp31
 70
     1
102
RTVSPropertyOp32
 70
     1
  0
XRECORD
  5
56
102
{ACAD_REACTORS
330
55
102
}
330
55
100
AcDbXrecord
280
     1
102
RTVSPropertyOp0
 70
     1
102
RTVSPropertyOp1
 70
     1
102
RTVSPropertyOp2
 70
     1
102
RTVSPropertyOp3
 70
     1
102
RTVSPropertyOp4
 70
     1
102
RTVSPropertyOp5
 70
     1
102
RTVSPropertyOp6
 70
     1
102
RTVSPropertyOp7
 70
     1
102
RTVSPropertyOp8
 70
     1
102
RTVSPropertyOp9
 70
     1
102
RTVSPropertyOp10
 70
     1
102
RTVSPropertyOp11
 70
     1
102
RTVSPropertyOp12
 70
     1
102
RTVSPropertyOp13
 70
     1
102
RTVSPropertyOp14
 70
     1
102
RTVSPropertyOp15
 70
     1
102
RTVSPropertyOp16
 70
     1
102
RTVSPropertyOp17
 70
     1
102
RTVSPropertyOp18
 70
     1
102
RTVSPropertyOp19
 70
     1
102
RTVSPropertyOp20
 70
     1
102
RTVSPropertyOp21
 70
     1
102
RTVSPropertyOp22
 70
     1
102
RTVSPropertyOp23
 70
     1
102
RTVSPropertyOp24
 70
     1
102
RTVSPropertyOp25
 70
     1
102
RTVSPropertyOp26
 70
     1
102
RTVSPropertyOp27
 70
     1
102
RTVSPropertyOp28
 70
     1
102
RTVSPropertyOp29
 70
     1
102
RTVSPropertyOp30
 70
     1
102
RTVSPropertyOp31
 70
     1
102
RTVSPropertyOp32
 70
     1
  0
XRECORD
  5
58
102
{ACAD_REACTORS
330
57
102
}
330
57
100
AcDbXrecord
280
     1
102
RTVSPropertyOp0
 70
     1
102
RTVSPropertyOp1
 70
     1
102
RTVSPropertyOp2
 70
     1
102
RTVSPropertyOp3
 70
     1
102
RTVSPropertyOp4
 70
     1
102
RTVSPropertyOp5
 70
     1
102
RTVSPropertyOp6
 70
     1
102
RTVSPropertyOp7
 70
     1
102
RTVSPropertyOp8
 70
     1
102
RTVSPropertyOp9
 70
     1
102
RTVSPropertyOp10
 70
     1
102
RTVSPropertyOp11
 70
     1
102
RTVSPropertyOp12
 70
     1
102
RTVSPropertyOp13
 70
     1
102
RTVSPropertyOp14
 70
     1
102
RTVSPropertyOp15
 70
     1
102
RTVSPropertyOp16
 70
     1
102
RTVSPropertyOp17
 70
     1
102
RTVSPropertyOp18
 70
     1
102
RTVSPropertyOp19
 70
     1
102
RTVSPropertyOp20
 70
     1
102
RTVSPropertyOp21
 70
     1
102
RTVSPropertyOp22
 70
     1
102
RTVSPropertyOp23
 70
     1
102
RTVSPropertyOp24
 70
     1
102
RTVSPropertyOp25
 70
     1
102
RTVSPropertyOp26
 70
     1
102
RTVSPropertyOp27
 70
     1
102
RTVSPropertyOp28
 70
     1
102
RTVSPropertyOp29
 70
     1
102
RTVSPropertyOp30
 70
     1
102
RTVSPropertyOp31
 70
     1
102
RTVSPropertyOp32
 70
     1
  0
XRECORD
  5
6C
102
{ACAD_REACTORS
330
6B
102
}
330
6B
100
AcDbXrecord
280
     1
102
RTVSPropertyOp0
 70
     1
102
RTVSPropertyOp1
 70
     1
102
RTVSPropertyOp2
 70
     1
102
RTVSPropertyOp3
 70
     1
102
RTVSPropertyOp4
 70
     1
102
RTVSPropertyOp5
 70
     1
102
RTVSPropertyOp6
 70
     1
102
RTVSPropertyOp7
 70
     1
102
RTVSPropertyOp8
 70
     1
102
RTVSPropertyOp9
 70
     1
102
RTVSPropertyOp10
 70
     1
102
RTVSPropertyOp11
 70
     1
102
RTVSPropertyOp12
 70
     1
102
RTVSPropertyOp13
 70
     1
102
RTVSPropertyOp14
 70
     1
102
RTVSPropertyOp15
 70
     1
102
RTVSPropertyOp16
 70
     1
102
RTVSPropertyOp17
 70
     1
102
RTVSPropertyOp18
 70
     1
102
RTVSPropertyOp19
 70
     1
102
RTVSPropertyOp20
 70
     1
102
RTVSPropertyOp21
 70
     1
102
RTVSPropertyOp22
 70
     1
102
RTVSPropertyOp23
 70
     1
102
RTVSPropertyOp24
 70
     1
102
RTVSPropertyOp25
 70
     1
102
RTVSPropertyOp26
 70
     1
102
RTVSPropertyOp27
 70
     1
102
RTVSPropertyOp28
 70
     1
102
RTVSPropertyOp29
 70
     1
102
RTVSPropertyOp30
 70
     1
102
RTVSPropertyOp31
 70
     1
102
RTVSPropertyOp32
 70
     1
  0
XRECORD
  5
62
102
{ACAD_REACTORS
330
61
102
}
330
61
100
AcDbXrecord
280
     1
102
RTVSPropertyOp0
 70
     1
102
RTVSPropertyOp1
 70
     1
102
RTVSPropertyOp2
 70
     1
102
RTVSPropertyOp3
 70
     1
102
RTVSPropertyOp4
 70
     1
102
RTVSPropertyOp5
 70
     1
102
RTVSPropertyOp6
 70
     1
102
RTVSPropertyOp7
 70
     1
102
RTVSPropertyOp8
 70
     1
102
RTVSPropertyOp9
 70
     1
102
RTVSPropertyOp10
 70
     1
102
RTVSPropertyOp11
 70
     1
102
RTVSPropertyOp12
 70
     1
102
RTVSPropertyOp13
 70
     1
102
RTVSPropertyOp14
 70
     1
102
RTVSPropertyOp15
 70
     1
102
RTVSPropertyOp16
 70
     1
102
RTVSPropertyOp17
 70
     1
102
RTVSPropertyOp18
 70
     1
102
RTVSPropertyOp19
 70
     1
102
RTVSPropertyOp20
 70
     1
102
RTVSPropertyOp21
 70
     1
102
RTVSPropertyOp22
 70
     1
102
RTVSPropertyOp23
 70
     1
102
RTVSPropertyOp24
 70
     1
102
RTVSPropertyOp25
 70
     1
102
RTVSPropertyOp26
 70
     1
102
RTVSPropertyOp27
 70
     1
102
RTVSPropertyOp28
 70
     1
102
RTVSPropertyOp29
 70
     1
102
RTVSPropertyOp30
 70
     1
102
RTVSPropertyOp31
 70
     1
102
RTVSPropertyOp32
 70
     1
  0
XRECORD
  5
6A
102
{ACAD_REACTORS
330
69
102
}
330
69
100
AcDbXrecord
280
     1
102
RTVSPropertyOp0
 70
     1
102
RTVSPropertyOp1
 70
     1
102
RTVSPropertyOp2
 70
     1
102
RTVSPropertyOp3
 70
     1
102
RTVSPropertyOp4
 70
     1
102
RTVSPropertyOp5
 70
     1
102
RTVSPropertyOp6
 70
     1
102
RTVSPropertyOp7
 70
     1
102
RTVSPropertyOp8
 70
     1
102
RTVSPropertyOp9
 70
     1
102
RTVSPropertyOp10
 70
     1
102
RTVSPropertyOp11
 70
     1
102
RTVSPropertyOp12
 70
     1
102
RTVSPropertyOp13
 70
     1
102
RTVSPropertyOp14
 70
     1
102
RTVSPropertyOp15
 70
     1
102
RTVSPropertyOp16
 70
     1
102
RTVSPropertyOp17
 70
     1
102
RTVSPropertyOp18
 70
     1
102
RTVSPropertyOp19
 70
     1
102
RTVSPropertyOp20
 70
     1
102
RTVSPropertyOp21
 70
     1
102
RTVSPropertyOp22
 70
     1
102
RTVSPropertyOp23
 70
     1
102
RTVSPropertyOp24
 70
     1
102
RTVSPropertyOp25
 70
     1
102
RTVSPropertyOp26
 70
     1
102
RTVSPropertyOp27
 70
     1
102
RTVSPropertyOp28
 70
     1
102
RTVSPropertyOp29
 70
     1
102
RTVSPropertyOp30
 70
     1
102
RTVSPropertyOp31
 70
     1
102
RTVSPropertyOp32
 70
     1
  0
ENDSEC
  0
EOF
