<?xml version="1.0" encoding="UTF-8"?>
<!DOCTYPE svg PUBLIC "-//W3C//DTD SVG 1.1//EN" "http://www.w3.org/Graphics/SVG/1.1/DTD/svg11.dtd">
<!-- Creator: CorelDRAW X6 -->
<svg xmlns="http://www.w3.org/2000/svg" xml:space="preserve" width="200mm" height="200mm" version="1.1" shape-rendering="geometricPrecision" text-rendering="geometricPrecision" image-rendering="optimizeQuality" fill-rule="evenodd" clip-rule="evenodd"
viewBox="0 0 20000 20000"
 xmlns:xlink="http://www.w3.org/1999/xlink">
 <g id="Layer_x0020_1">
  <metadata id="CorelCorpID_0Corel-Layer"/>
  <g id="_879196768">
   <circle fill="none" stroke="black" stroke-width="52.92" stroke-linecap="round" stroke-linejoin="round" transform="matrix(1.50148E-014 -0.566926 0.566926 1.50148E-014 9000 9500)" r="529"/>
   <circle fill="none" stroke="black" stroke-width="52.92" stroke-linecap="round" stroke-linejoin="round" transform="matrix(1.50148E-014 -0.566926 0.566926 1.50148E-014 10500 9500)" r="529"/>
   <circle fill="none" stroke="black" stroke-width="52.92" stroke-linecap="round" stroke-linejoin="round" transform="matrix(1.50148E-014 -0.566926 0.566926 1.50148E-014 7500 9500)" r="529"/>
   <g>
    <line fill="none" fill-rule="nonzero" stroke="blue" stroke-width="52.92" stroke-linecap="round" stroke-linejoin="round" x1="7697" y1="7945" x2="10211" y2= "7945" />
    <path fill="none" fill-rule="nonzero" stroke="blue" stroke-width="52.92" stroke-linecap="round" stroke-linejoin="round" d="M7878 7944c-14,-156 130,-308 287,-301 43,2 86,14 119,42 61,51 72,161 74,240"/>
    <path fill="none" fill-rule="nonzero" stroke="blue" stroke-width="52.92" stroke-linecap="round" stroke-linejoin="round" d="M8386 7931c10,-151 150,-282 302,-282 152,0 292,130 303,281 31,-145 141,-281 287,-304 147,-23 309,170 291,317 18,-85 59,-234 130,-284 71,-50 175,-58 242,-3 32,26 52,63 68,101 21,50 34,104 39,158"/>
    <path fill="none" fill-rule="nonzero" stroke="blue" stroke-width="52.92" stroke-linecap="round" stroke-linejoin="round" d="M7958 6540c8,67 71,122 138,122 67,0 129,-56 137,-122"/>
    <path fill="none" fill-rule="nonzero" stroke="blue" stroke-width="52.92" stroke-linecap="round" stroke-linejoin="round" d="M8022 6542c-217,0 -435,-3 -652,-11 19,110 56,218 114,314 53,87 124,164 211,218 173,92 375,146 568,111 63,-13 125,-32 184,-59 111,-75 158,-107 237,-215 79,-108 129,-242 115,-376 -41,2 -83,4 -124,5 -123,5 -246,8 -369,10 -95,2 -190,3 -285,3"/>
    <path fill="none" fill-rule="nonzero" stroke="blue" stroke-width="52.92" stroke-linecap="round" stroke-linejoin="round" d="M10670 6056c0,145 -119,265 -265,265"/>
    <line fill="none" fill-rule="nonzero" stroke="blue" stroke-width="52.92" stroke-linecap="round" stroke-linejoin="round" x1="10405" y1="6321" x2="7549" y2= "6321" />
    <path fill="none" fill-rule="nonzero" stroke="blue" stroke-width="52.92" stroke-linecap="round" stroke-linejoin="round" d="M7549 6321c-145,0 -265,-119 -265,-265"/>
    <line fill="none" fill-rule="nonzero" stroke="blue" stroke-width="52.92" stroke-linecap="round" stroke-linejoin="round" x1="7537" y1="5814" x2="10410" y2= "5814" />
    <line fill="none" fill-rule="nonzero" stroke="blue" stroke-width="52.92" stroke-linecap="round" stroke-linejoin="round" x1="8587" y1="5476" x2="9564" y2= "5476" />
    <path fill="none" fill-rule="nonzero" stroke="blue" stroke-width="52.92" stroke-linecap="round" stroke-linejoin="round" d="M9978 6540c-8,67 -71,122 -138,122 -67,0 -129,-56 -137,-122"/>
    <path fill="none" fill-rule="nonzero" stroke="blue" stroke-width="52.92" stroke-linecap="round" stroke-linejoin="round" d="M9914 6542c217,0 435,-3 652,-11 -19,110 -56,218 -114,314 -53,87 -124,164 -211,218 -173,92 -375,146 -568,111 -63,-13 -125,-32 -184,-59 -111,-75 -158,-107 -237,-215 -79,-108 -129,-242 -115,-376 41,2 83,4 124,5 123,5 246,8 369,10 95,2 190,3 285,3"/>
   </g>
   <path fill="none" stroke="black" stroke-width="52.92" stroke-linecap="round" stroke-linejoin="round" d="M9488 8800l0 -255 527 0 711 0c47,0 92,-13 130,-35 283,178 564,359 843,542 -76,-640 -295,-1264 -632,-1809 240,148 491,272 749,371 -148,-578 -435,-1124 -825,-1576 -8,-10 -17,-20 -26,-30 9,2 17,3 26,5 380,76 747,260 1046,526 -214,-605 -444,-1232 -906,-1678 -390,-375 -932,-589 -1451,-570 80,-139 160,-278 239,-416 -263,46 -508,162 -705,332 -37,-129 -104,-252 -195,-356 -70,113 -146,223 -226,330 -251,-135 -532,-213 -812,-226 161,118 325,232 492,341 -356,9 -709,72 -1044,185 -155,55 -272,142 -397,245 -468,385 -921,974 -1006,1592 211,-119 592,-216 820,-291 -426,520 -813,1210 -784,1909 212,-140 581,-278 790,-415 -250,472 -481,1046 -352,1584 128,-96 247,-204 361,-316 54,-54 108,-108 163,-162 16,-16 117,-122 106,-143 33,64 125,63 185,60 396,-23 800,-2 1197,0l0 255 -1213 0c-276,0 -500,224 -500,500l0 400c0,276 224,500 500,500l3400 0c276,0 500,-224 500,-500l0 -400c0,-276 -224,-500 -500,-500l-1213 0z"/>
  </g>
  <circle fill="none" stroke="black" stroke-width="52.92" stroke-linecap="round" stroke-linejoin="round" transform="matrix(7.50738E-015 -0.283463 0.283463 7.50738E-015 8250 9500)" r="529"/>
  <circle fill="none" stroke="black" stroke-width="52.92" stroke-linecap="round" stroke-linejoin="round" transform="matrix(7.50738E-015 -0.283463 0.283463 7.50738E-015 9750 9500)" r="529"/>
 </g>
</svg>
