  0
SECTION
  2
HEADER
  9
$ACADVER
  1
AC1021
  9
$ACADMAINTVER
 70
    25
  9
$DWGCODEPAGE
  3
ANSI_1252
  9
$INSBASE
 10
0.0
 20
0.0
 30
0.0
  9
$EXTMIN
 10
-2.16828
 20
-4.9109
 30
0.0
  9
$EXTMAX
 10
1.22646
 20
6.04249
 30
0.0
  9
$LIMMIN
 10
0.0
 20
0.0
  9
$LIMMAX
 10
12.0
 20
9.0
  9
$ORTHOMODE
 70
     0
  9
$REGENMODE
 70
     1
  9
$FILLMODE
 70
     1
  9
$QTEXTMODE
 70
     0
  9
$MIRRTEXT
 70
     1
  9
$LTSCALE
 40
1.0
  9
$ATTMODE
 70
     1
  9
$TEXTSIZE
 40
0.2
  9
$TRACEWID
 40
0.05
  9
$TEXTSTYLE
  7
Standard
  9
$CLAYER
  8
0
  9
$CELTYPE
  6
ByLayer
  9
$CECOLOR
 62
   256
  9
$CELTSCALE
 40
1.0
  9
$DISPSILH
 70
     0
  9
$DIMSCALE
 40
1.0
  9
$DIMASZ
 40
0.18
  9
$DIMEXO
 40
0.0625
  9
$DIMDLI
 40
0.38
  9
$DIMRND
 40
0.0
  9
$DIMDLE
 40
0.0
  9
$DIMEXE
 40
0.18
  9
$DIMTP
 40
0.0
  9
$DIMTM
 40
0.0
  9
$DIMTXT
 40
0.18
  9
$DIMCEN
 40
0.09
  9
$DIMTSZ
 40
0.0
  9
$DIMTOL
 70
     0
  9
$DIMLIM
 70
     0
  9
$DIMTIH
 70
     1
  9
$DIMTOH
 70
     1
  9
$DIMSE1
 70
     0
  9
$DIMSE2
 70
     0
  9
$DIMTAD
 70
     0
  9
$DIMZIN
 70
     0
  9
$DIMBLK
  1

  9
$DIMASO
 70
     1
  9
$DIMSHO
 70
     1
  9
$DIMPOST
  1

  9
$DIMAPOST
  1

  9
$DIMALT
 70
     0
  9
$DIMALTD
 70
     2
  9
$DIMALTF
 40
25.4
  9
$DIMLFAC
 40
1.0
  9
$DIMTOFL
 70
     0
  9
$DIMTVP
 40
0.0
  9
$DIMTIX
 70
     0
  9
$DIMSOXD
 70
     0
  9
$DIMSAH
 70
     0
  9
$DIMBLK1
  1

  9
$DIMBLK2
  1

  9
$DIMSTYLE
  2
Standard
  9
$DIMCLRD
 70
     0
  9
$DIMCLRE
 70
     0
  9
$DIMCLRT
 70
     0
  9
$DIMTFAC
 40
1.0
  9
$DIMGAP
 40
0.09
  9
$DIMJUST
 70
     0
  9
$DIMSD1
 70
     0
  9
$DIMSD2
 70
     0
  9
$DIMTOLJ
 70
     1
  9
$DIMTZIN
 70
     0
  9
$DIMALTZ
 70
     0
  9
$DIMALTTZ
 70
     0
  9
$DIMUPT
 70
     0
  9
$DIMDEC
 70
     4
  9
$DIMTDEC
 70
     4
  9
$DIMALTU
 70
     2
  9
$DIMALTTD
 70
     2
  9
$DIMTXSTY
  7
Standard
  9
$DIMAUNIT
 70
     0
  9
$DIMADEC
 70
     0
  9
$DIMALTRND
 40
0.0
  9
$DIMAZIN
 70
     0
  9
$DIMDSEP
 70
    46
  9
$DIMATFIT
 70
     3
  9
$DIMFRAC
 70
     0
  9
$DIMLDRBLK
  1

  9
$DIMLUNIT
 70
     2
  9
$DIMLWD
 70
    -2
  9
$DIMLWE
 70
    -2
  9
$DIMTMOVE
 70
     0
  9
$DIMFXL
 40
1.0
  9
$DIMFXLON
 70
     0
  9
$DIMJOGANG
 40
0.7853981633974483
  9
$DIMTFILL
 70
     0
  9
$DIMTFILLCLR
 70
     0
  9
$DIMARCSYM
 70
     0
  9
$DIMLTYPE
  6

  9
$DIMLTEX1
  6

  9
$DIMLTEX2
  6

  9
$LUNITS
 70
     2
  9
$LUPREC
 70
     4
  9
$SKETCHINC
 40
0.1
  9
$FILLETRAD
 40
0.5
  9
$AUNITS
 70
     0
  9
$AUPREC
 70
     0
  9
$MENU
  1
.
  9
$ELEVATION
 40
0.0
  9
$PELEVATION
 40
0.0
  9
$THICKNESS
 40
0.0
  9
$LIMCHECK
 70
     0
  9
$CHAMFERA
 40
0.5
  9
$CHAMFERB
 40
0.5
  9
$CHAMFERC
 40
1.0
  9
$CHAMFERD
 40
0.0
  9
$SKPOLY
 70
     0
  9
$TDCREATE
 40
2460554.72379169
  9
$TDUCREATE
 40
2460554.682125023
  9
$TDUPDATE
 40
2460554.723791759
  9
$TDUUPDATE
 40
2460554.682125092
  9
$TDINDWG
 40
0.0000000116
  9
$TDUSRTIMER
 40
0.0000000116
  9
$USRTIMER
 70
     1
  9
$ANGBASE
 50
0.0
  9
$ANGDIR
 70
     0
  9
$PDMODE
 70
     0
  9
$PDSIZE
 40
0.0
  9
$PLINEWID
 40
0.0
  9
$SPLFRAME
 70
     0
  9
$SPLINETYPE
 70
     6
  9
$SPLINESEGS
 70
     8
  9
$HANDSEED
  5
8D
  9
$SURFTAB1
 70
     6
  9
$SURFTAB2
 70
     6
  9
$SURFTYPE
 70
     6
  9
$SURFU
 70
     6
  9
$SURFV
 70
     6
  9
$UCSBASE
  2

  9
$UCSNAME
  2

  9
$UCSORG
 10
0.0
 20
0.0
 30
0.0
  9
$UCSXDIR
 10
1.0
 20
0.0
 30
0.0
  9
$UCSYDIR
 10
0.0
 20
1.0
 30
0.0
  9
$UCSORTHOREF
  2

  9
$UCSORTHOVIEW
 70
     0
  9
$UCSORGTOP
 10
0.0
 20
0.0
 30
0.0
  9
$UCSORGBOTTOM
 10
0.0
 20
0.0
 30
0.0
  9
$UCSORGLEFT
 10
0.0
 20
0.0
 30
0.0
  9
$UCSORGRIGHT
 10
0.0
 20
0.0
 30
0.0
  9
$UCSORGFRONT
 10
0.0
 20
0.0
 30
0.0
  9
$UCSORGBACK
 10
0.0
 20
0.0
 30
0.0
  9
$PUCSBASE
  2

  9
$PUCSNAME
  2

  9
$PUCSORG
 10
0.0
 20
0.0
 30
0.0
  9
$PUCSXDIR
 10
1.0
 20
0.0
 30
0.0
  9
$PUCSYDIR
 10
0.0
 20
1.0
 30
0.0
  9
$PUCSORTHOREF
  2

  9
$PUCSORTHOVIEW
 70
     0
  9
$PUCSORGTOP
 10
0.0
 20
0.0
 30
0.0
  9
$PUCSORGBOTTOM
 10
0.0
 20
0.0
 30
0.0
  9
$PUCSORGLEFT
 10
0.0
 20
0.0
 30
0.0
  9
$PUCSORGRIGHT
 10
0.0
 20
0.0
 30
0.0
  9
$PUCSORGFRONT
 10
0.0
 20
0.0
 30
0.0
  9
$PUCSORGBACK
 10
0.0
 20
0.0
 30
0.0
  9
$USERI1
 70
     0
  9
$USERI2
 70
     0
  9
$USERI3
 70
     0
  9
$USERI4
 70
     0
  9
$USERI5
 70
     0
  9
$USERR1
 40
0.0
  9
$USERR2
 40
0.0
  9
$USERR3
 40
0.0
  9
$USERR4
 40
0.0
  9
$USERR5
 40
0.0
  9
$WORLDVIEW
 70
     1
  9
$SHADEDGE
 70
     3
  9
$SHADEDIF
 70
    70
  9
$TILEMODE
 70
     1
  9
$MAXACTVP
 70
    64
  9
$PINSBASE
 10
0.0
 20
0.0
 30
0.0
  9
$PLIMCHECK
 70
     0
  9
$PEXTMIN
 10
1.000000000000000E+20
 20
1.000000000000000E+20
 30
1.000000000000000E+20
  9
$PEXTMAX
 10
-1.000000000000000E+20
 20
-1.000000000000000E+20
 30
-1.000000000000000E+20
  9
$PLIMMIN
 10
0.0
 20
0.0
  9
$PLIMMAX
 10
12.0
 20
9.0
  9
$UNITMODE
 70
     0
  9
$VISRETAIN
 70
     1
  9
$PLINEGEN
 70
     0
  9
$PSLTSCALE
 70
     1
  9
$TREEDEPTH
 70
  3020
  9
$CMLSTYLE
  2
Standard
  9
$CMLJUST
 70
     0
  9
$CMLSCALE
 40
1.0
  9
$PROXYGRAPHICS
 70
     1
  9
$MEASUREMENT
 70
     0
  9
$CELWEIGHT
370
    -1
  9
$ENDCAPS
280
     0
  9
$JOINSTYLE
280
     0
  9
$LWDISPLAY
290
     0
  9
$INSUNITS
 70
     5
  9
$HYPERLINKBASE
  1

  9
$STYLESHEET
  1

  9
$XEDIT
290
     1
  9
$CEPSNTYPE
380
     0
  9
$PSTYLEMODE
290
     1
  9
$FINGERPRINTGUID
  2
{62387B33-7BC0-4CA5-AF54-F1254FE728C5}
  9
$VERSIONGUID
  2
{FAEB1C32-E019-11D5-929B-00C0DF256EC4}
  9
$EXTNAMES
290
     1
  9
$PSVPSCALE
 40
0.0
  9
$OLESTARTUP
290
     0
  9
$SORTENTS
280
   127
  9
$INDEXCTL
280
     0
  9
$HIDETEXT
280
     1
  9
$XCLIPFRAME
290
     0
  9
$HALOGAP
280
     0
  9
$OBSCOLOR
 70
   257
  9
$OBSLTYPE
280
     0
  9
$INTERSECTIONDISPLAY
280
     0
  9
$INTERSECTIONCOLOR
 70
   257
  9
$DIMASSOC
280
     2
  9
$PROJECTNAME
  1

  9
$CAMERADISPLAY
290
     0
  9
$LENSLENGTH
 40
50.0
  9
$CAMERAHEIGHT
 40
0.0
  9
$STEPSPERSEC
 40
2.0
  9
$STEPSIZE
 40
6.0
  9
$3DDWFPREC
 40
2.0
  9
$PSOLWIDTH
 40
0.25
  9
$PSOLHEIGHT
 40
4.0
  9
$LOFTANG1
 40
1.570796326794897
  9
$LOFTANG2
 40
1.570796326794897
  9
$LOFTMAG1
 40
0.0
  9
$LOFTMAG2
 40
0.0
  9
$LOFTPARAM
 70
     7
  9
$LOFTNORMALS
280
     1
  9
$LATITUDE
 40
37.795
  9
$LONGITUDE
 40
-122.394
  9
$NORTHDIRECTION
 40
0.0
  9
$TIMEZONE
 70
 -8000
  9
$LIGHTGLYPHDISPLAY
280
     1
  9
$TILEMODELIGHTSYNCH
280
     1
  9
$SOLIDHIST
280
     1
  9
$SHOWHIST
280
     1
  9
$DWFFRAME
280
     2
  9
$DGNFRAME
280
     2
  9
$REALWORLDSCALE
290
     1
  9
$INTERFERECOLOR
 62
   256
  9
$CSHADOW
280
     0
  9
$SHADOWPLANELOCATION
 40
0.0
  0
ENDSEC
  0
SECTION
  2
CLASSES
  0
CLASS
  1
ACDBDICTIONARYWDFLT
  2
AcDbDictionaryWithDefault
  3
ObjectDBX Classes
 90
        0
 91
        4
280
     0
281
     0
  0
CLASS
  1
VISUALSTYLE
  2
AcDbVisualStyle
  3
ObjectDBX Classes
 90
     4095
 91
        4
280
     0
281
     0
  0
CLASS
  1
MATERIAL
  2
AcDbMaterial
  3
ObjectDBX Classes
 90
     1153
 91
        4
280
     0
281
     0
  0
ENDSEC
  0
SECTION
  2
TABLES
  0
TABLE
  2
VPORT
  5
8
330
0
100
AcDbSymbolTable
 70
     1
  0
VPORT
  5
29
330
8
100
AcDbSymbolTableRecord
100
AcDbViewportTableRecord
  2
*Active
 70
     0
 10
0.0
 20
0.0
 11
1.0
 21
1.0
 12
10.42990654205607
 22
4.5
 13
0.0
 23
0.0
 14
0.5
 24
0.5
 15
0.5
 25
0.5
 16
0.0
 26
0.0
 36
1.0
 17
0.0
 27
0.0
 37
0.0
 40
9.0
 41
1.972972972850329
 42
50.0
 43
0.0
 44
0.0
 50
0.0
 51
0.0
 71
     0
 72
   100
 73
     1
 74
     3
 75
     0
 76
     0
 77
     0
 78
     0
281
     0
 65
     1
110
0.0
120
0.0
130
0.0
111
1.0
121
0.0
131
0.0
112
0.0
122
1.0
132
0.0
 79
     0
146
0.0
 60
     3
 61
     5
292
     1
282
     1
141
0.0
142
0.0
 63
   250
  0
ENDTAB
  0
TABLE
  2
LTYPE
  5
5
330
0
100
AcDbSymbolTable
 70
     1
  0
LTYPE
  5
14
330
5
100
AcDbSymbolTableRecord
100
AcDbLinetypeTableRecord
  2
ByBlock
 70
     0
  3

 72
    65
 73
     0
 40
0.0
  0
LTYPE
  5
15
330
5
100
AcDbSymbolTableRecord
100
AcDbLinetypeTableRecord
  2
ByLayer
 70
     0
  3

 72
    65
 73
     0
 40
0.0
  0
LTYPE
  5
16
330
5
100
AcDbSymbolTableRecord
100
AcDbLinetypeTableRecord
  2
Continuous
 70
     0
  3
Solid line
 72
    65
 73
     0
 40
0.0
  0
ENDTAB
  0
TABLE
  2
LAYER
  5
2
330
0
100
AcDbSymbolTable
 70
     2
  0
LAYER
  5
10
330
2
100
AcDbSymbolTableRecord
100
AcDbLayerTableRecord
  2
0
 70
     0
 62
     7
  6
Continuous
370
    -3
390
F
347
3E
  0
LAYER
  5
40
330
2
100
AcDbSymbolTableRecord
100
AcDbLayerTableRecord
  2
Layer 1
 70
     0
 62
     7
  6
Continuous
370
    -3
390
F
347
3E
  0
ENDTAB
  0
TABLE
  2
STYLE
  5
3
330
0
100
AcDbSymbolTable
 70
     1
  0
STYLE
  5
11
330
3
100
AcDbSymbolTableRecord
100
AcDbTextStyleTableRecord
  2
Standard
 70
     0
 40
0.0
 41
1.0
 50
0.0
 71
     0
 42
0.2
  3
txt
  4

  0
ENDTAB
  0
TABLE
  2
VIEW
  5
6
330
0
100
AcDbSymbolTable
 70
     0
  0
ENDTAB
  0
TABLE
  2
UCS
  5
7
330
0
100
AcDbSymbolTable
 70
     0
  0
ENDTAB
  0
TABLE
  2
APPID
  5
9
330
0
100
AcDbSymbolTable
 70
     2
  0
APPID
  5
12
330
9
100
AcDbSymbolTableRecord
100
AcDbRegAppTableRecord
  2
ACAD
 70
     0
  0
APPID
  5
3F
330
9
100
AcDbSymbolTableRecord
100
AcDbRegAppTableRecord
  2
ODA
 70
     0
  0
ENDTAB
  0
TABLE
  2
DIMSTYLE
  5
A
330
0
100
AcDbSymbolTable
 70
     1
100
AcDbDimStyleTable
  0
DIMSTYLE
105
27
330
A
100
AcDbSymbolTableRecord
100
AcDbDimStyleTableRecord
  2
Standard
 70
     0
178
     0
340
11
  0
ENDTAB
  0
TABLE
  2
BLOCK_RECORD
  5
1
330
0
100
AcDbSymbolTable
 70
     1
  0
BLOCK_RECORD
  5
1F
330
1
100
AcDbSymbolTableRecord
100
AcDbBlockTableRecord
  2
*Model_Space
340
22
 70
     0
280
     1
281
     0
  0
BLOCK_RECORD
  5
1B
330
1
100
AcDbSymbolTableRecord
100
AcDbBlockTableRecord
  2
*Paper_Space
340
1E
 70
     0
280
     1
281
     0
  0
BLOCK_RECORD
  5
23
330
1
100
AcDbSymbolTableRecord
100
AcDbBlockTableRecord
  2
*Paper_Space0
340
26
 70
     0
280
     1
281
     0
  0
ENDTAB
  0
ENDSEC
  0
SECTION
  2
BLOCKS
  0
BLOCK
  5
20
330
1F
100
AcDbEntity
  8
0
100
AcDbBlockBegin
  2
*Model_Space
 70
     0
 10
0.0
 20
0.0
 30
0.0
  3
*Model_Space
  1

  0
ENDBLK
  5
21
330
1F
100
AcDbEntity
  8
0
100
AcDbBlockEnd
  0
BLOCK
  5
1C
330
1B
100
AcDbEntity
 67
     1
  8
0
100
AcDbBlockBegin
  2
*Paper_Space
 70
     0
 10
0.0
 20
0.0
 30
0.0
  3
*Paper_Space
  1

  0
ENDBLK
  5
1D
330
1B
100
AcDbEntity
 67
     1
  8
0
100
AcDbBlockEnd
  0
BLOCK
  5
24
330
23
100
AcDbEntity
  8
0
100
AcDbBlockBegin
  2
*Paper_Space0
 70
     0
 10
0.0
 20
0.0
 30
0.0
  3
*Paper_Space0
  1

  0
ENDBLK
  5
25
330
23
100
AcDbEntity
  8
0
100
AcDbBlockEnd
  0
ENDSEC
  0
SECTION
  2
ENTITIES
  0
SPLINE
  5
41
330
1F
100
AcDbEntity
  8
Layer 1
 62
     5
370
    53
100
AcDbSpline
210
0.0
220
0.0
230
1.0
 70
    24
 71
     3
 72
     8
 73
     4
 74
     0
 42
0.0000000001
 43
0.0000000001
 12
1.0
 22
0.0
 32
0.0
 13
1.0
 23
0.0
 33
0.0
 40
0.0
 40
0.0
 40
0.0
 40
0.0
 40
1.0
 40
1.0
 40
1.0
 40
1.0
 10
-1.7999
 20
3.66024
 30
0.0
 10
-1.7999
 20
3.66024
 30
0.0
 10
-0.87837
 20
3.66024
 30
0.0
 10
-0.87837
 20
3.66024
 30
0.0
  0
SPLINE
  5
42
330
1F
100
AcDbEntity
  8
Layer 1
 62
     5
370
    53
100
AcDbSpline
210
0.0
220
0.0
230
1.0
 70
    24
 71
     3
 72
     8
 73
     4
 74
     0
 42
0.0000000001
 43
0.0000000001
 12
1.0
 22
0.0
 32
0.0
 13
1.0
 23
0.0
 33
0.0
 40
0.0
 40
0.0
 40
0.0
 40
0.0
 40
1.0
 40
1.0
 40
1.0
 40
1.0
 10
-0.87837
 20
3.10061
 30
0.0
 10
-0.87837
 20
3.10061
 30
0.0
 10
-1.7999
 20
3.10061
 30
0.0
 10
-1.7999
 20
3.10061
 30
0.0
  0
SPLINE
  5
43
330
1F
100
AcDbEntity
  8
Layer 1
 62
     5
370
    53
100
AcDbSpline
210
0.0
220
0.0
230
1.0
 70
    24
 71
     3
 72
     8
 73
     4
 74
     0
 42
0.0000000001
 43
0.0000000001
 12
1.0
 22
0.0
 32
0.0
 13
1.0
 23
0.0
 33
0.0
 40
0.0
 40
0.0
 40
0.0
 40
0.0
 40
1.0
 40
1.0
 40
1.0
 40
1.0
 10
-1.7999
 20
3.38261
 30
0.0
 10
-1.7999
 20
3.38261
 30
0.0
 10
-0.87837
 20
3.38261
 30
0.0
 10
-0.87837
 20
3.38261
 30
0.0
  0
SPLINE
  5
44
330
1F
100
AcDbEntity
  8
Layer 1
 62
     5
370
    53
100
AcDbSpline
210
0.0
220
0.0
230
1.0
 70
    24
 71
     3
 72
     8
 73
     4
 74
     0
 42
0.0000000001
 43
0.0000000001
 12
1.0
 22
0.0
 32
0.0
 13
1.0
 23
0.0
 33
0.0
 40
0.0
 40
0.0
 40
0.0
 40
0.0
 40
1.0
 40
1.0
 40
1.0
 40
1.0
 10
-0.80895
 20
2.1888
 30
0.0
 10
-0.80895
 20
2.1888
 30
0.0
 10
-1.86933
 20
2.1888
 30
0.0
 10
-1.86933
 20
2.1888
 30
0.0
  0
SPLINE
  5
45
330
1F
100
AcDbEntity
  8
Layer 1
 62
     5
370
    53
100
AcDbSpline
210
0.0
220
0.0
230
1.0
 70
    24
 71
     3
 72
     8
 73
     4
 74
     0
 42
0.0000000001
 43
0.0000000001
 12
1.0
 22
0.0
 32
0.0
 13
1.0
 23
0.0
 33
0.0
 40
0.0
 40
0.0
 40
0.0
 40
0.0
 40
1.0
 40
1.0
 40
1.0
 40
1.0
 10
-1.86933
 20
2.33192
 30
0.0
 10
-1.86933
 20
2.33192
 30
0.0
 10
-0.80895
 20
2.33192
 30
0.0
 10
-0.80895
 20
2.33192
 30
0.0
  0
SPLINE
  5
46
330
1F
100
AcDbEntity
  8
Layer 1
 62
     5
370
    53
100
AcDbSpline
210
0.0
220
0.0
230
1.0
 70
    24
 71
     3
 72
     8
 73
     4
 74
     0
 42
0.0000000001
 43
0.0000000001
 12
1.0
 22
0.0
 32
0.0
 13
1.0
 23
0.0
 33
0.0
 40
0.0
 40
0.0
 40
0.0
 40
0.0
 40
1.0
 40
1.0
 40
1.0
 40
1.0
 10
-0.80895
 20
1.50683
 30
0.0
 10
-0.80895
 20
1.50683
 30
0.0
 10
-1.86933
 20
1.50683
 30
0.0
 10
-1.86933
 20
1.50683
 30
0.0
  0
SPLINE
  5
47
330
1F
100
AcDbEntity
  8
Layer 1
 62
     5
370
    53
100
AcDbSpline
210
0.0
220
0.0
230
1.0
 70
    24
 71
     3
 72
     8
 73
     4
 74
     0
 42
0.0000000001
 43
0.0000000001
 12
1.0
 22
0.0
 32
0.0
 13
1.0
 23
0.0
 33
0.0
 40
0.0
 40
0.0
 40
0.0
 40
0.0
 40
1.0
 40
1.0
 40
1.0
 40
1.0
 10
-1.86933
 20
1.64998
 30
0.0
 10
-1.86933
 20
1.64998
 30
0.0
 10
-0.80895
 20
1.64998
 30
0.0
 10
-0.80895
 20
1.64998
 30
0.0
  0
SPLINE
  5
48
330
1F
100
AcDbEntity
  8
Layer 1
 62
     5
370
    53
100
AcDbSpline
210
0.0
220
0.0
230
1.0
 70
    11
 71
     3
 72
    20
 73
    16
 74
     0
 42
0.0000000001
 43
0.0000000001
 12
1.0
 22
0.0
 32
0.0
 13
1.0
 23
0.0
 33
0.0
 40
0.0
 40
0.0
 40
0.0
 40
0.0
 40
0.2
 40
0.2
 40
0.2
 40
0.2
 40
0.4
 40
0.4
 40
0.4
 40
0.4
 40
0.6
 40
0.6
 40
0.6
 40
0.6
 40
1.0
 40
1.0
 40
1.0
 40
1.0
 10
-1.61491
 20
3.53139
 30
0.0
 10
-1.61491
 20
3.56091
 30
0.0
 10
-1.66426
 20
3.58487
 30
0.0
 10
-1.72511
 20
3.58487
 30
0.0
 10
-1.72511
 20
3.58487
 30
0.0
 10
-1.78599
 20
3.58487
 30
0.0
 10
-1.83531
 20
3.56091
 30
0.0
 10
-1.83531
 20
3.53139
 30
0.0
 10
-1.83531
 20
3.53139
 30
0.0
 10
-1.83531
 20
3.50187
 30
0.0
 10
-1.78599
 20
3.47793
 30
0.0
 10
-1.72511
 20
3.47793
 30
0.0
 10
-1.72511
 20
3.47793
 30
0.0
 10
-1.66426
 20
3.47793
 30
0.0
 10
-1.61491
 20
3.50187
 30
0.0
 10
-1.61491
 20
3.53139
 30
0.0
  0
SPLINE
  5
49
330
1F
100
AcDbEntity
  8
Layer 1
 62
     5
370
    53
100
AcDbSpline
210
0.0
220
0.0
230
1.0
 70
    11
 71
     3
 72
    20
 73
    16
 74
     0
 42
0.0000000001
 43
0.0000000001
 12
1.0
 22
0.0
 32
0.0
 13
1.0
 23
0.0
 33
0.0
 40
0.0
 40
0.0
 40
0.0
 40
0.0
 40
0.2
 40
0.2
 40
0.2
 40
0.2
 40
0.4
 40
0.4
 40
0.4
 40
0.4
 40
0.6
 40
0.6
 40
0.6
 40
0.6
 40
1.0
 40
1.0
 40
1.0
 40
1.0
 10
-1.58397
 20
3.26075
 30
0.0
 10
-1.58397
 20
3.29
 30
0.0
 10
-1.6432
 20
3.31367
 30
0.0
 10
-1.71626
 20
3.31367
 30
0.0
 10
-1.71626
 20
3.31367
 30
0.0
 10
-1.7893
 20
3.31367
 30
0.0
 10
-1.84855
 20
3.29
 30
0.0
 10
-1.84855
 20
3.26075
 30
0.0
 10
-1.84855
 20
3.26075
 30
0.0
 10
-1.84855
 20
3.23153
 30
0.0
 10
-1.7893
 20
3.20784
 30
0.0
 10
-1.71626
 20
3.20784
 30
0.0
 10
-1.71626
 20
3.20784
 30
0.0
 10
-1.6432
 20
3.20784
 30
0.0
 10
-1.58397
 20
3.23153
 30
0.0
 10
-1.58397
 20
3.26075
 30
0.0
  0
SPLINE
  5
4A
330
1F
100
AcDbEntity
  8
Layer 1
 62
     5
370
    53
100
AcDbSpline
210
0.0
220
0.0
230
1.0
 70
    11
 71
     3
 72
    28
 73
    24
 74
     0
 42
0.0000000001
 43
0.0000000001
 12
1.0
 22
0.0
 32
0.0
 13
1.0
 23
0.0
 33
0.0
 40
0.0
 40
0.0
 40
0.0
 40
0.0
 40
0.1428571428571428
 40
0.1428571428571428
 40
0.1428571428571428
 40
0.1428571428571428
 40
0.2857142857142857
 40
0.2857142857142857
 40
0.2857142857142857
 40
0.2857142857142857
 40
0.4285714285714285
 40
0.4285714285714285
 40
0.4285714285714285
 40
0.4285714285714285
 40
0.5714285714285714
 40
0.5714285714285714
 40
0.5714285714285714
 40
0.5714285714285714
 40
0.7142857142857143
 40
0.7142857142857143
 40
0.7142857142857143
 40
0.7142857142857143
 40
1.0
 40
1.0
 40
1.0
 40
1.0
 10
-1.58479
 20
3.0125
 30
0.0
 10
-1.62527
 20
3.0125
 30
0.0
 10
-1.65837
 20
2.97938
 30
0.0
 10
-1.65837
 20
2.93891
 30
0.0
 10
-1.65837
 20
2.93891
 30
0.0
 10
-1.65837
 20
2.93891
 30
0.0
 10
-1.65837
 20
2.5009
 30
0.0
 10
-1.65837
 20
2.5009
 30
0.0
 10
-1.65837
 20
2.5009
 30
0.0
 10
-1.65837
 20
2.46042
 30
0.0
 10
-1.62527
 20
2.42731
 30
0.0
 10
-1.58479
 20
2.42731
 30
0.0
 10
-1.58479
 20
2.42731
 30
0.0
 10
-1.54431
 20
2.42731
 30
0.0
 10
-1.51121
 20
2.46042
 30
0.0
 10
-1.51121
 20
2.5009
 30
0.0
 10
-1.51121
 20
2.5009
 30
0.0
 10
-1.51121
 20
2.5009
 30
0.0
 10
-1.51121
 20
2.93891
 30
0.0
 10
-1.51121
 20
2.93891
 30
0.0
 10
-1.51121
 20
2.93891
 30
0.0
 10
-1.51121
 20
2.97938
 30
0.0
 10
-1.54431
 20
3.0125
 30
0.0
 10
-1.58479
 20
3.0125
 30
0.0
  0
SPLINE
  5
4B
330
1F
100
AcDbEntity
  8
Layer 1
 62
     5
370
    53
100
AcDbSpline
210
0.0
220
0.0
230
1.0
 70
    11
 71
     3
 72
    28
 73
    24
 74
     0
 42
0.0000000001
 43
0.0000000001
 12
1.0
 22
0.0
 32
0.0
 13
1.0
 23
0.0
 33
0.0
 40
0.0
 40
0.0
 40
0.0
 40
0.0
 40
0.1428571428571428
 40
0.1428571428571428
 40
0.1428571428571428
 40
0.1428571428571428
 40
0.2857142857142857
 40
0.2857142857142857
 40
0.2857142857142857
 40
0.2857142857142857
 40
0.4285714285714285
 40
0.4285714285714285
 40
0.4285714285714285
 40
0.4285714285714285
 40
0.5714285714285714
 40
0.5714285714285714
 40
0.5714285714285714
 40
0.5714285714285714
 40
0.7142857142857143
 40
0.7142857142857143
 40
0.7142857142857143
 40
0.7142857142857143
 40
1.0
 40
1.0
 40
1.0
 40
1.0
 10
-1.58479
 20
2.14289
 30
0.0
 10
-1.62527
 20
2.14289
 30
0.0
 10
-1.65837
 20
2.10976
 30
0.0
 10
-1.65837
 20
2.0693
 30
0.0
 10
-1.65837
 20
2.0693
 30
0.0
 10
-1.65837
 20
2.0693
 30
0.0
 10
-1.65837
 20
1.77991
 30
0.0
 10
-1.65837
 20
1.77991
 30
0.0
 10
-1.65837
 20
1.77991
 30
0.0
 10
-1.65837
 20
1.73945
 30
0.0
 10
-1.62527
 20
1.70632
 30
0.0
 10
-1.58479
 20
1.70632
 30
0.0
 10
-1.58479
 20
1.70632
 30
0.0
 10
-1.54431
 20
1.70632
 30
0.0
 10
-1.51121
 20
1.73945
 30
0.0
 10
-1.51121
 20
1.77991
 30
0.0
 10
-1.51121
 20
1.77991
 30
0.0
 10
-1.51121
 20
1.77991
 30
0.0
 10
-1.51121
 20
2.0693
 30
0.0
 10
-1.51121
 20
2.0693
 30
0.0
 10
-1.51121
 20
2.0693
 30
0.0
 10
-1.51121
 20
2.10976
 30
0.0
 10
-1.54431
 20
2.14289
 30
0.0
 10
-1.58479
 20
2.14289
 30
0.0
  0
SPLINE
  5
4C
330
1F
100
AcDbEntity
  8
Layer 1
 62
     5
370
    53
100
AcDbSpline
210
0.0
220
0.0
230
1.0
 70
    11
 71
     3
 72
    28
 73
    24
 74
     0
 42
0.0000000001
 43
0.0000000001
 12
1.0
 22
0.0
 32
0.0
 13
1.0
 23
0.0
 33
0.0
 40
0.0
 40
0.0
 40
0.0
 40
0.0
 40
0.1428571428571428
 40
0.1428571428571428
 40
0.1428571428571428
 40
0.1428571428571428
 40
0.2857142857142857
 40
0.2857142857142857
 40
0.2857142857142857
 40
0.2857142857142857
 40
0.4285714285714285
 40
0.4285714285714285
 40
0.4285714285714285
 40
0.4285714285714285
 40
0.5714285714285714
 40
0.5714285714285714
 40
0.5714285714285714
 40
0.5714285714285714
 40
0.7142857142857143
 40
0.7142857142857143
 40
0.7142857142857143
 40
0.7142857142857143
 40
1.0
 40
1.0
 40
1.0
 40
1.0
 10
-1.60133
 20
1.44175
 30
0.0
 10
-1.63271
 20
1.44175
 30
0.0
 10
-1.65837
 20
1.41609
 30
0.0
 10
-1.65837
 20
1.38469
 30
0.0
 10
-1.65837
 20
1.38469
 30
0.0
 10
-1.65837
 20
1.38469
 30
0.0
 10
-1.65837
 20
1.28713
 30
0.0
 10
-1.65837
 20
1.28713
 30
0.0
 10
-1.65837
 20
1.28713
 30
0.0
 10
-1.65837
 20
1.25574
 30
0.0
 10
-1.63271
 20
1.23007
 30
0.0
 10
-1.60133
 20
1.23007
 30
0.0
 10
-1.60133
 20
1.23007
 30
0.0
 10
-1.56995
 20
1.23007
 30
0.0
 10
-1.54428
 20
1.25574
 30
0.0
 10
-1.54428
 20
1.28713
 30
0.0
 10
-1.54428
 20
1.28713
 30
0.0
 10
-1.54428
 20
1.28713
 30
0.0
 10
-1.54428
 20
1.38469
 30
0.0
 10
-1.54428
 20
1.38469
 30
0.0
 10
-1.54428
 20
1.38469
 30
0.0
 10
-1.54428
 20
1.41609
 30
0.0
 10
-1.56995
 20
1.44175
 30
0.0
 10
-1.60133
 20
1.44175
 30
0.0
  0
SPLINE
  5
4D
330
1F
100
AcDbEntity
  8
Layer 1
 62
     5
370
    53
100
AcDbSpline
210
0.0
220
0.0
230
1.0
 70
     8
 71
     3
 72
    20
 73
    16
 74
     0
 42
0.0000000001
 43
0.0000000001
 12
1.0
 22
0.0
 32
0.0
 13
1.0
 23
0.0
 33
0.0
 40
0.0
 40
0.0
 40
0.0
 40
0.0
 40
0.2
 40
0.2
 40
0.2
 40
0.2
 40
0.4
 40
0.4
 40
0.4
 40
0.4
 40
0.6
 40
0.6
 40
0.6
 40
0.6
 40
1.0
 40
1.0
 40
1.0
 40
1.0
 10
-0.64135
 20
4.79103
 30
0.0
 10
-0.64226
 20
4.66421
 30
0.0
 10
-0.67337
 20
4.5675
 30
0.0
 10
-0.78506
 20
4.53579
 30
0.0
 10
-0.78506
 20
4.53579
 30
0.0
 10
-0.84849
 20
4.26912
 30
0.0
 10
-0.82473
 20
4.10112
 30
0.0
 10
-0.8626
 20
4.01417
 30
0.0
 10
-0.8626
 20
4.01417
 30
0.0
 10
-1.02608
 20
3.72538
 30
0.0
 10
-1.50926
 20
3.69075
 30
0.0
 10
-1.7208
 20
3.9409
 30
0.0
 10
-1.7208
 20
3.9409
 30
0.0
 10
-1.73873
 20
3.9621
 30
0.0
 10
-1.75471
 20
3.98534
 30
0.0
 10
-1.76838
 20
4.01065
 30
0.0
  0
SPLINE
  5
4E
330
1F
100
AcDbEntity
  8
Layer 1
 62
     5
370
    53
100
AcDbSpline
210
0.0
220
0.0
230
1.0
 70
    11
 71
     3
 72
    12
 73
     8
 74
     0
 42
0.0000000001
 43
0.0000000001
 12
1.0
 22
0.0
 32
0.0
 13
1.0
 23
0.0
 33
0.0
 40
0.0
 40
0.0
 40
0.0
 40
0.0
 40
0.3333333333333333
 40
0.3333333333333333
 40
0.3333333333333333
 40
0.3333333333333333
 40
1.0
 40
1.0
 40
1.0
 40
1.0
 10
-1.63383
 20
4.34934
 30
0.0
 10
-1.63383
 20
4.34934
 30
0.0
 10
-1.63383
 20
4.34934
 30
0.0
 10
-1.63383
 20
4.34934
 30
0.0
 10
-1.63383
 20
4.34934
 30
0.0
 10
-1.68384
 20
4.51647
 30
0.0
 10
-1.98444
 20
4.67217
 30
0.0
 10
-1.63383
 20
4.34934
 30
0.0
  0
SPLINE
  5
4F
330
1F
100
AcDbEntity
  8
Layer 1
 62
     5
370
    53
100
AcDbSpline
210
0.0
220
0.0
230
1.0
 70
    11
 71
     3
 72
    16
 73
    12
 74
     0
 42
0.0000000001
 43
0.0000000001
 12
1.0
 22
0.0
 32
0.0
 13
1.0
 23
0.0
 33
0.0
 40
0.0
 40
0.0
 40
0.0
 40
0.0
 40
0.25
 40
0.25
 40
0.25
 40
0.25
 40
0.5
 40
0.5
 40
0.5
 40
0.5
 40
1.0
 40
1.0
 40
1.0
 40
1.0
 10
-0.99041
 20
4.35396
 30
0.0
 10
-0.99041
 20
4.35396
 30
0.0
 10
-0.99041
 20
4.35396
 30
0.0
 10
-0.99041
 20
4.35396
 30
0.0
 10
-0.99041
 20
4.35396
 30
0.0
 10
-0.94941
 20
4.45753
 30
0.0
 10
-0.89385
 20
4.53161
 30
0.0
 10
-0.78506
 20
4.53579
 30
0.0
 10
-0.78506
 20
4.53579
 30
0.0
 10
-0.78506
 20
4.53579
 30
0.0
 10
-0.99041
 20
4.35396
 30
0.0
 10
-0.99041
 20
4.35396
 30
0.0
  0
SPLINE
  5
50
330
1F
100
AcDbEntity
  8
Layer 1
 62
     5
370
    53
100
AcDbSpline
210
0.0
220
0.0
230
1.0
 70
     8
 71
     3
 72
    12
 73
     8
 74
     0
 42
0.0000000001
 43
0.0000000001
 12
1.0
 22
0.0
 32
0.0
 13
1.0
 23
0.0
 33
0.0
 40
0.0
 40
0.0
 40
0.0
 40
0.0
 40
0.3333333333333333
 40
0.3333333333333333
 40
0.3333333333333333
 40
0.3333333333333333
 40
1.0
 40
1.0
 40
1.0
 40
1.0
 10
-1.97983
 20
5.47327
 30
0.0
 10
-2.02326
 20
5.37279
 30
0.0
 10
-2.00244
 20
5.30853
 30
0.0
 10
-1.96152
 20
5.20154
 30
0.0
 10
-1.96152
 20
5.20154
 30
0.0
 10
-1.93595
 20
5.13516
 30
0.0
 10
-1.96697
 20
5.0022
 30
0.0
 10
-1.97983
 20
4.92347
 30
0.0
  0
SPLINE
  5
51
330
1F
100
AcDbEntity
  8
Layer 1
 62
     5
370
    53
100
AcDbSpline
210
0.0
220
0.0
230
1.0
 70
     8
 71
     3
 72
    12
 73
     8
 74
     0
 42
0.0000000001
 43
0.0000000001
 12
1.0
 22
0.0
 32
0.0
 13
1.0
 23
0.0
 33
0.0
 40
0.0
 40
0.0
 40
0.0
 40
0.0
 40
0.3333333333333333
 40
0.3333333333333333
 40
0.3333333333333333
 40
0.3333333333333333
 40
1.0
 40
1.0
 40
1.0
 40
1.0
 10
-0.64056
 20
5.47327
 30
0.0
 10
-0.61024
 20
5.40964
 30
0.0
 10
-0.61586
 20
5.34608
 30
0.0
 10
-0.65784
 20
5.2167
 30
0.0
 10
-0.65784
 20
5.2167
 30
0.0
 10
-0.68643
 20
5.14152
 30
0.0
 10
-0.65759
 20
5.02685
 30
0.0
 10
-0.65114
 20
4.95166
 30
0.0
  0
SPLINE
  5
52
330
1F
100
AcDbEntity
  8
Layer 1
 62
     5
370
    53
100
AcDbSpline
210
0.0
220
0.0
230
1.0
 70
     8
 71
     3
 72
     8
 73
     4
 74
     0
 42
0.0000000001
 43
0.0000000001
 12
1.0
 22
0.0
 32
0.0
 13
1.0
 23
0.0
 33
0.0
 40
0.0
 40
0.0
 40
0.0
 40
0.0
 40
1.0
 40
1.0
 40
1.0
 40
1.0
 10
-1.63383
 20
4.34934
 30
0.0
 10
-1.65983
 20
4.43621
 30
0.0
 10
-1.76344
 20
4.52305
 30
0.0
 10
-1.85288
 20
4.55103
 30
0.0
  0
SPLINE
  5
53
330
1F
100
AcDbEntity
  8
Layer 1
 62
     5
370
    53
100
AcDbSpline
210
0.0
220
0.0
230
1.0
 70
     8
 71
     3
 72
     8
 73
     4
 74
     0
 42
0.0000000001
 43
0.0000000001
 12
1.0
 22
0.0
 32
0.0
 13
1.0
 23
0.0
 33
0.0
 40
0.0
 40
0.0
 40
0.0
 40
0.0
 40
1.0
 40
1.0
 40
1.0
 40
1.0
 10
-0.99041
 20
4.35396
 30
0.0
 10
-0.94941
 20
4.45753
 30
0.0
 10
-0.89385
 20
4.53161
 30
0.0
 10
-0.78506
 20
4.53579
 30
0.0
  0
SPLINE
  5
54
330
1F
100
AcDbEntity
  8
Layer 1
 62
     5
370
    53
100
AcDbSpline
210
0.0
220
0.0
230
1.0
 70
     8
 71
     3
 72
    16
 73
    12
 74
     0
 42
0.0000000001
 43
0.0000000001
 12
1.0
 22
0.0
 32
0.0
 13
1.0
 23
0.0
 33
0.0
 40
0.0
 40
0.0
 40
0.0
 40
0.0
 40
0.25
 40
0.25
 40
0.25
 40
0.25
 40
0.5
 40
0.5
 40
0.5
 40
0.5
 40
1.0
 40
1.0
 40
1.0
 40
1.0
 10
-1.76838
 20
4.51675
 30
0.0
 10
-1.71653
 20
4.39851
 30
0.0
 10
-1.68881
 20
4.27064
 30
0.0
 10
-1.66968
 20
4.13931
 30
0.0
 10
-1.66968
 20
4.13931
 30
0.0
 10
-1.55092
 20
3.98895
 30
0.0
 10
-1.14147
 20
3.94459
 30
0.0
 10
-0.96657
 20
4.14669
 30
0.0
 10
-0.96657
 20
4.14669
 30
0.0
 10
-0.95472
 20
4.2723
 30
0.0
 10
-0.91071
 20
4.39433
 30
0.0
 10
-0.87036
 20
4.51675
 30
0.0
  0
SPLINE
  5
55
330
1F
100
AcDbEntity
  8
Layer 1
 62
     5
370
    53
100
AcDbSpline
210
0.0
220
0.0
230
1.0
 70
     8
 71
     3
 72
     8
 73
     4
 74
     0
 42
0.0000000001
 43
0.0000000001
 12
1.0
 22
0.0
 32
0.0
 13
1.0
 23
0.0
 33
0.0
 40
0.0
 40
0.0
 40
0.0
 40
0.0
 40
1.0
 40
1.0
 40
1.0
 40
1.0
 10
-0.99041
 20
4.35396
 30
0.0
 10
-1.00449
 20
4.25224
 30
0.0
 10
-1.61541
 20
4.25875
 30
0.0
 10
-1.63383
 20
4.34934
 30
0.0
  0
SPLINE
  5
56
330
1F
100
AcDbEntity
  8
Layer 1
 62
     5
370
    53
100
AcDbSpline
210
0.0
220
0.0
230
1.0
 70
    24
 71
     3
 72
     8
 73
     4
 74
     0
 42
0.0000000001
 43
0.0000000001
 12
1.0
 22
0.0
 32
0.0
 13
1.0
 23
0.0
 33
0.0
 40
0.0
 40
0.0
 40
0.0
 40
0.0
 40
1.0
 40
1.0
 40
1.0
 40
1.0
 10
-1.61172
 20
4.09243
 30
0.0
 10
-1.61172
 20
4.09243
 30
0.0
 10
-1.61172
 20
4.3194
 30
0.0
 10
-1.61172
 20
4.3194
 30
0.0
  0
SPLINE
  5
57
330
1F
100
AcDbEntity
  8
Layer 1
 62
     5
370
    53
100
AcDbSpline
210
0.0
220
0.0
230
1.0
 70
    24
 71
     3
 72
     8
 73
     4
 74
     0
 42
0.0000000001
 43
0.0000000001
 12
1.0
 22
0.0
 32
0.0
 13
1.0
 23
0.0
 33
0.0
 40
0.0
 40
0.0
 40
0.0
 40
0.0
 40
1.0
 40
1.0
 40
1.0
 40
1.0
 10
-1.5414
 20
4.05047
 30
0.0
 10
-1.5414
 20
4.05047
 30
0.0
 10
-1.53893
 20
4.29966
 30
0.0
 10
-1.53893
 20
4.29966
 30
0.0
  0
SPLINE
  5
58
330
1F
100
AcDbEntity
  8
Layer 1
 62
     5
370
    53
100
AcDbSpline
210
0.0
220
0.0
230
1.0
 70
    24
 71
     3
 72
     8
 73
     4
 74
     0
 42
0.0000000001
 43
0.0000000001
 12
1.0
 22
0.0
 32
0.0
 13
1.0
 23
0.0
 33
0.0
 40
0.0
 40
0.0
 40
0.0
 40
0.0
 40
1.0
 40
1.0
 40
1.0
 40
1.0
 10
-1.46616
 20
4.03321
 30
0.0
 10
-1.46616
 20
4.03321
 30
0.0
 10
-1.46492
 20
4.28733
 30
0.0
 10
-1.46492
 20
4.28733
 30
0.0
  0
SPLINE
  5
59
330
1F
100
AcDbEntity
  8
Layer 1
 62
     5
370
    53
100
AcDbSpline
210
0.0
220
0.0
230
1.0
 70
     8
 71
     3
 72
     8
 73
     4
 74
     0
 42
0.0000000001
 43
0.0000000001
 12
1.0
 22
0.0
 32
0.0
 13
1.0
 23
0.0
 33
0.0
 40
0.0
 40
0.0
 40
0.0
 40
0.0
 40
1.0
 40
1.0
 40
1.0
 40
1.0
 10
-1.39215
 20
4.01965
 30
0.0
 10
-1.39215
 20
4.02458
 30
0.0
 10
-1.39092
 20
4.28115
 30
0.0
 10
-1.39092
 20
4.28115
 30
0.0
  0
SPLINE
  5
5A
330
1F
100
AcDbEntity
  8
Layer 1
 62
     5
370
    53
100
AcDbSpline
210
0.0
220
0.0
230
1.0
 70
    24
 71
     3
 72
     8
 73
     4
 74
     0
 42
0.0000000001
 43
0.0000000001
 12
1.0
 22
0.0
 32
0.0
 13
1.0
 23
0.0
 33
0.0
 40
0.0
 40
0.0
 40
0.0
 40
0.0
 40
1.0
 40
1.0
 40
1.0
 40
1.0
 10
-1.31566
 20
4.01102
 30
0.0
 10
-1.31566
 20
4.01102
 30
0.0
 10
-1.31691
 20
4.27867
 30
0.0
 10
-1.31691
 20
4.27867
 30
0.0
  0
SPLINE
  5
5B
330
1F
100
AcDbEntity
  8
Layer 1
 62
     5
370
    53
100
AcDbSpline
210
0.0
220
0.0
230
1.0
 70
    24
 71
     3
 72
     8
 73
     4
 74
     0
 42
0.0000000001
 43
0.0000000001
 12
1.0
 22
0.0
 32
0.0
 13
1.0
 23
0.0
 33
0.0
 40
0.0
 40
0.0
 40
0.0
 40
0.0
 40
1.0
 40
1.0
 40
1.0
 40
1.0
 10
-1.23918
 20
4.02089
 30
0.0
 10
-1.23918
 20
4.02089
 30
0.0
 10
-1.24042
 20
4.27992
 30
0.0
 10
-1.24042
 20
4.27992
 30
0.0
  0
SPLINE
  5
5C
330
1F
100
AcDbEntity
  8
Layer 1
 62
     5
370
    53
100
AcDbSpline
210
0.0
220
0.0
230
1.0
 70
    24
 71
     3
 72
     8
 73
     4
 74
     0
 42
0.0000000001
 43
0.0000000001
 12
1.0
 22
0.0
 32
0.0
 13
1.0
 23
0.0
 33
0.0
 40
0.0
 40
0.0
 40
0.0
 40
0.0
 40
1.0
 40
1.0
 40
1.0
 40
1.0
 10
-1.16888
 20
4.03197
 30
0.0
 10
-1.16888
 20
4.03197
 30
0.0
 10
-1.17134
 20
4.28733
 30
0.0
 10
-1.17134
 20
4.28733
 30
0.0
  0
SPLINE
  5
5D
330
1F
100
AcDbEntity
  8
Layer 1
 62
     5
370
    53
100
AcDbSpline
210
0.0
220
0.0
230
1.0
 70
    24
 71
     3
 72
     8
 73
     4
 74
     0
 42
0.0000000001
 43
0.0000000001
 12
1.0
 22
0.0
 32
0.0
 13
1.0
 23
0.0
 33
0.0
 40
0.0
 40
0.0
 40
0.0
 40
0.0
 40
1.0
 40
1.0
 40
1.0
 40
1.0
 10
-1.0887
 20
4.06158
 30
0.0
 10
-1.0887
 20
4.06158
 30
0.0
 10
-1.09239
 20
4.2972
 30
0.0
 10
-1.09239
 20
4.2972
 30
0.0
  0
SPLINE
  5
5E
330
1F
100
AcDbEntity
  8
Layer 1
 62
     5
370
    53
100
AcDbSpline
210
0.0
220
0.0
230
1.0
 70
    24
 71
     3
 72
     8
 73
     4
 74
     0
 42
0.0000000001
 43
0.0000000001
 12
1.0
 22
0.0
 32
0.0
 13
1.0
 23
0.0
 33
0.0
 40
0.0
 40
0.0
 40
0.0
 40
0.0
 40
1.0
 40
1.0
 40
1.0
 40
1.0
 10
-1.01838
 20
4.10228
 30
0.0
 10
-1.01838
 20
4.10228
 30
0.0
 10
-1.02085
 20
4.32063
 30
0.0
 10
-1.02085
 20
4.32063
 30
0.0
  0
SPLINE
  5
5F
330
1F
100
AcDbEntity
  8
Layer 1
 62
     5
370
    53
100
AcDbSpline
210
0.0
220
0.0
230
1.0
 70
     8
 71
     3
 72
     8
 73
     4
 74
     0
 42
0.0000000001
 43
0.0000000001
 12
1.0
 22
0.0
 32
0.0
 13
1.0
 23
0.0
 33
0.0
 40
0.0
 40
0.0
 40
0.0
 40
0.0
 40
1.0
 40
1.0
 40
1.0
 40
1.0
 10
-1.02332
 20
4.20961
 30
0.0
 10
-1.22457
 20
4.12194
 30
0.0
 10
-1.40347
 20
4.11571
 30
0.0
 10
-1.61048
 20
4.20961
 30
0.0
  0
SPLINE
  5
60
330
1F
100
AcDbEntity
  8
Layer 1
 62
     5
370
    53
100
AcDbSpline
210
0.0
220
0.0
230
1.0
 70
    11
 71
     3
 72
    24
 73
    20
 74
     0
 42
0.0000000001
 43
0.0000000001
 12
1.0
 22
0.0
 32
0.0
 13
1.0
 23
0.0
 33
0.0
 40
0.0
 40
0.0
 40
0.0
 40
0.0
 40
0.1666666666666667
 40
0.1666666666666667
 40
0.1666666666666667
 40
0.1666666666666667
 40
0.3333333333333333
 40
0.3333333333333333
 40
0.3333333333333333
 40
0.3333333333333333
 40
0.5
 40
0.5
 40
0.5
 40
0.5
 40
0.6666666666666666
 40
0.6666666666666666
 40
0.6666666666666666
 40
0.6666666666666666
 40
1.0
 40
1.0
 40
1.0
 40
1.0
 10
-1.29642
 20
4.79687
 30
0.0
 10
-1.29642
 20
4.79687
 30
0.0
 10
-1.29642
 20
4.79687
 30
0.0
 10
-1.29642
 20
4.79687
 30
0.0
 10
-1.29642
 20
4.79687
 30
0.0
 10
-1.29642
 20
4.79687
 30
0.0
 10
-1.29642
 20
4.50575
 30
0.0
 10
-1.29642
 20
4.50575
 30
0.0
 10
-1.29642
 20
4.50575
 30
0.0
 10
-1.25337
 20
4.44027
 30
0.0
 10
-1.23831
 20
4.43531
 30
0.0
 10
-1.21378
 20
4.43668
 30
0.0
 10
-1.21378
 20
4.43668
 30
0.0
 10
-1.18147
 20
4.43655
 30
0.0
 10
-1.15969
 20
4.48487
 30
0.0
 10
-1.16567
 20
4.54029
 30
0.0
 10
-1.16567
 20
4.54029
 30
0.0
 10
-1.18149
 20
4.71594
 30
0.0
 10
-1.23479
 20
4.75211
 30
0.0
 10
-1.29642
 20
4.79687
 30
0.0
  0
SPLINE
  5
61
330
1F
100
AcDbEntity
  8
Layer 1
 62
     5
370
    53
100
AcDbSpline
210
0.0
220
0.0
230
1.0
 70
    11
 71
     3
 72
    24
 73
    20
 74
     0
 42
0.0000000001
 43
0.0000000001
 12
1.0
 22
0.0
 32
0.0
 13
1.0
 23
0.0
 33
0.0
 40
0.0
 40
0.0
 40
0.0
 40
0.0
 40
0.1666666666666667
 40
0.1666666666666667
 40
0.1666666666666667
 40
0.1666666666666667
 40
0.3333333333333333
 40
0.3333333333333333
 40
0.3333333333333333
 40
0.3333333333333333
 40
0.5
 40
0.5
 40
0.5
 40
0.5
 40
0.6666666666666666
 40
0.6666666666666666
 40
0.6666666666666666
 40
0.6666666666666666
 40
1.0
 40
1.0
 40
1.0
 40
1.0
 10
-1.34034
 20
4.798
 30
0.0
 10
-1.34034
 20
4.798
 30
0.0
 10
-1.34034
 20
4.798
 30
0.0
 10
-1.34034
 20
4.798
 30
0.0
 10
-1.34034
 20
4.798
 30
0.0
 10
-1.34034
 20
4.798
 30
0.0
 10
-1.34034
 20
4.50689
 30
0.0
 10
-1.34034
 20
4.50689
 30
0.0
 10
-1.34034
 20
4.50689
 30
0.0
 10
-1.3834
 20
4.44141
 30
0.0
 10
-1.39846
 20
4.43648
 30
0.0
 10
-1.42298
 20
4.43782
 30
0.0
 10
-1.42298
 20
4.43782
 30
0.0
 10
-1.45528
 20
4.43771
 30
0.0
 10
-1.47708
 20
4.48601
 30
0.0
 10
-1.47109
 20
4.54143
 30
0.0
 10
-1.47109
 20
4.54143
 30
0.0
 10
-1.45525
 20
4.7171
 30
0.0
 10
-1.40196
 20
4.75328
 30
0.0
 10
-1.34034
 20
4.798
 30
0.0
  0
SPLINE
  5
62
330
1F
100
AcDbEntity
  8
Layer 1
 62
     5
370
    53
100
AcDbSpline
210
0.0
220
0.0
230
1.0
 70
    11
 71
     3
 72
    32
 73
    28
 74
     0
 42
0.0000000001
 43
0.0000000001
 12
1.0
 22
0.0
 32
0.0
 13
1.0
 23
0.0
 33
0.0
 40
0.0
 40
0.0
 40
0.0
 40
0.0
 40
0.125
 40
0.125
 40
0.125
 40
0.125
 40
0.25
 40
0.25
 40
0.25
 40
0.25
 40
0.375
 40
0.375
 40
0.375
 40
0.375
 40
0.5
 40
0.5
 40
0.5
 40
0.5
 40
0.625
 40
0.625
 40
0.625
 40
0.625
 40
0.75
 40
0.75
 40
0.75
 40
0.75
 40
1.0
 40
1.0
 40
1.0
 40
1.0
 10
-0.78207
 20
5.03711
 30
0.0
 10
-0.78207
 20
5.03711
 30
0.0
 10
-0.78207
 20
5.03711
 30
0.0
 10
-0.78207
 20
5.03711
 30
0.0
 10
-0.78207
 20
5.03711
 30
0.0
 10
-0.76803
 20
4.98548
 30
0.0
 10
-0.77765
 20
4.91949
 30
0.0
 10
-0.79625
 20
4.86133
 30
0.0
 10
-0.79625
 20
4.86133
 30
0.0
 10
-0.81954
 20
4.78841
 30
0.0
 10
-0.87247
 20
4.74514
 30
0.0
 10
-0.96155
 20
4.73798
 30
0.0
 10
-0.96155
 20
4.73798
 30
0.0
 10
-1.06443
 20
4.7354
 30
0.0
 10
-1.12995
 20
4.79503
 30
0.0
 10
-1.17372
 20
4.89094
 30
0.0
 10
-1.17372
 20
4.89094
 30
0.0
 10
-1.18583
 20
4.91988
 30
0.0
 10
-1.19341
 20
4.96828
 30
0.0
 10
-1.18113
 20
5.02171
 30
0.0
 10
-1.18113
 20
5.02171
 30
0.0
 10
-1.17389
 20
5.0489
 30
0.0
 10
-1.13973
 20
5.08922
 30
0.0
 10
-1.10649
 20
5.10989
 30
0.0
 10
-1.10649
 20
5.10989
 30
0.0
 10
-1.04569
 20
5.14638
 30
0.0
 10
-0.80562
 20
5.12571
 30
0.0
 10
-0.78207
 20
5.03711
 30
0.0
  0
SPLINE
  5
63
330
1F
100
AcDbEntity
  8
Layer 1
 62
     5
370
    53
100
AcDbSpline
210
0.0
220
0.0
230
1.0
 70
    11
 71
     3
 72
    28
 73
    24
 74
     0
 42
0.0000000001
 43
0.0000000001
 12
1.0
 22
0.0
 32
0.0
 13
1.0
 23
0.0
 33
0.0
 40
0.0
 40
0.0
 40
0.0
 40
0.0
 40
0.1428571428571428
 40
0.1428571428571428
 40
0.1428571428571428
 40
0.1428571428571428
 40
0.2857142857142857
 40
0.2857142857142857
 40
0.2857142857142857
 40
0.2857142857142857
 40
0.4285714285714285
 40
0.4285714285714285
 40
0.4285714285714285
 40
0.4285714285714285
 40
0.5714285714285714
 40
0.5714285714285714
 40
0.5714285714285714
 40
0.5714285714285714
 40
0.7142857142857143
 40
0.7142857142857143
 40
0.7142857142857143
 40
0.7142857142857143
 40
1.0
 40
1.0
 40
1.0
 40
1.0
 10
-1.84424
 20
5.03052
 30
0.0
 10
-1.85828
 20
4.97889
 30
0.0
 10
-1.84866
 20
4.91291
 30
0.0
 10
-1.83005
 20
4.85474
 30
0.0
 10
-1.83005
 20
4.85474
 30
0.0
 10
-1.80676
 20
4.78183
 30
0.0
 10
-1.75383
 20
4.73855
 30
0.0
 10
-1.66475
 20
4.73139
 30
0.0
 10
-1.66475
 20
4.73139
 30
0.0
 10
-1.56188
 20
4.72881
 30
0.0
 10
-1.49635
 20
4.78844
 30
0.0
 10
-1.45259
 20
4.88435
 30
0.0
 10
-1.45259
 20
4.88435
 30
0.0
 10
-1.44048
 20
4.9133
 30
0.0
 10
-1.43289
 20
4.96169
 30
0.0
 10
-1.44519
 20
5.01512
 30
0.0
 10
-1.44519
 20
5.01512
 30
0.0
 10
-1.45241
 20
5.0423
 30
0.0
 10
-1.48657
 20
5.08263
 30
0.0
 10
-1.51981
 20
5.10331
 30
0.0
 10
-1.51981
 20
5.10331
 30
0.0
 10
-1.58061
 20
5.13979
 30
0.0
 10
-1.82068
 20
5.11912
 30
0.0
 10
-1.84424
 20
5.03052
 30
0.0
  0
SPLINE
  5
64
330
1F
100
AcDbEntity
  8
Layer 1
 62
     5
370
    53
100
AcDbSpline
210
0.0
220
0.0
230
1.0
 70
    24
 71
     3
 72
     8
 73
     4
 74
     0
 42
0.0000000001
 43
0.0000000001
 12
1.0
 22
0.0
 32
0.0
 13
1.0
 23
0.0
 33
0.0
 40
0.0
 40
0.0
 40
0.0
 40
0.0
 40
1.0
 40
1.0
 40
1.0
 40
1.0
 10
-0.99566
 20
1.13456
 30
0.0
 10
-0.99566
 20
1.13456
 30
0.0
 10
-1.65836
 20
1.13456
 30
0.0
 10
-1.65836
 20
1.13456
 30
0.0
  0
ELLIPSE
  5
65
330
1F
100
AcDbEntity
  8
Layer 1
370
    53
100
AcDbEllipse
 10
0.5
 20
5.0
 30
0.0
 11
0.0
 21
0.3
 31
0.0
210
0.0
220
0.0
230
1.0
 40
1.0
 41
0.0
 42
6.283185307179586
  0
ELLIPSE
  5
66
330
1F
100
AcDbEntity
  8
Layer 1
370
    53
100
AcDbEllipse
 10
0.5
 20
3.5
 30
0.0
 11
0.0
 21
0.3
 31
0.0
210
0.0
220
0.0
230
1.0
 40
1.0
 41
0.0
 42
6.283185307179586
  0
SPLINE
  5
67
330
1F
100
AcDbEntity
  8
Layer 1
370
    53
100
AcDbSpline
210
0.0
220
0.0
230
1.0
 70
    11
 71
     3
 72
   268
 73
   264
 74
     0
 42
0.0000000001
 43
0.0000000001
 12
1.0
 22
0.0
 32
0.0
 13
1.0
 23
0.0
 33
0.0
 40
0.0
 40
0.0
 40
0.0
 40
0.0
 40
0.0149253731343284
 40
0.0149253731343284
 40
0.0149253731343284
 40
0.0149253731343284
 40
0.0298507462686567
 40
0.0298507462686567
 40
0.0298507462686567
 40
0.0298507462686567
 40
0.0447761194029851
 40
0.0447761194029851
 40
0.0447761194029851
 40
0.0447761194029851
 40
0.0597014925373134
 40
0.0597014925373134
 40
0.0597014925373134
 40
0.0597014925373134
 40
0.0746268656716418
 40
0.0746268656716418
 40
0.0746268656716418
 40
0.0746268656716418
 40
0.0895522388059701
 40
0.0895522388059701
 40
0.0895522388059701
 40
0.0895522388059701
 40
0.1044776119402985
 40
0.1044776119402985
 40
0.1044776119402985
 40
0.1044776119402985
 40
0.1194029850746269
 40
0.1194029850746269
 40
0.1194029850746269
 40
0.1194029850746269
 40
0.1343283582089552
 40
0.1343283582089552
 40
0.1343283582089552
 40
0.1343283582089552
 40
0.1492537313432836
 40
0.1492537313432836
 40
0.1492537313432836
 40
0.1492537313432836
 40
0.1641791044776119
 40
0.1641791044776119
 40
0.1641791044776119
 40
0.1641791044776119
 40
0.1791044776119403
 40
0.1791044776119403
 40
0.1791044776119403
 40
0.1791044776119403
 40
0.1940298507462687
 40
0.1940298507462687
 40
0.1940298507462687
 40
0.1940298507462687
 40
0.208955223880597
 40
0.208955223880597
 40
0.208955223880597
 40
0.208955223880597
 40
0.2238805970149254
 40
0.2238805970149254
 40
0.2238805970149254
 40
0.2238805970149254
 40
0.2388059701492537
 40
0.2388059701492537
 40
0.2388059701492537
 40
0.2388059701492537
 40
0.2537313432835821
 40
0.2537313432835821
 40
0.2537313432835821
 40
0.2537313432835821
 40
0.2686567164179104
 40
0.2686567164179104
 40
0.2686567164179104
 40
0.2686567164179104
 40
0.2835820895522388
 40
0.2835820895522388
 40
0.2835820895522388
 40
0.2835820895522388
 40
0.2985074626865671
 40
0.2985074626865671
 40
0.2985074626865671
 40
0.2985074626865671
 40
0.3134328358208955
 40
0.3134328358208955
 40
0.3134328358208955
 40
0.3134328358208955
 40
0.3283582089552239
 40
0.3283582089552239
 40
0.3283582089552239
 40
0.3283582089552239
 40
0.3432835820895522
 40
0.3432835820895522
 40
0.3432835820895522
 40
0.3432835820895522
 40
0.3582089552238806
 40
0.3582089552238806
 40
0.3582089552238806
 40
0.3582089552238806
 40
0.373134328358209
 40
0.373134328358209
 40
0.373134328358209
 40
0.373134328358209
 40
0.3880597014925373
 40
0.3880597014925373
 40
0.3880597014925373
 40
0.3880597014925373
 40
0.4029850746268657
 40
0.4029850746268657
 40
0.4029850746268657
 40
0.4029850746268657
 40
0.417910447761194
 40
0.417910447761194
 40
0.417910447761194
 40
0.417910447761194
 40
0.4328358208955224
 40
0.4328358208955224
 40
0.4328358208955224
 40
0.4328358208955224
 40
0.4477611940298508
 40
0.4477611940298508
 40
0.4477611940298508
 40
0.4477611940298508
 40
0.4626865671641791
 40
0.4626865671641791
 40
0.4626865671641791
 40
0.4626865671641791
 40
0.4776119402985075
 40
0.4776119402985075
 40
0.4776119402985075
 40
0.4776119402985075
 40
0.4925373134328358
 40
0.4925373134328358
 40
0.4925373134328358
 40
0.4925373134328358
 40
0.5074626865671642
 40
0.5074626865671642
 40
0.5074626865671642
 40
0.5074626865671642
 40
0.5223880597014925
 40
0.5223880597014925
 40
0.5223880597014925
 40
0.5223880597014925
 40
0.5373134328358209
 40
0.5373134328358209
 40
0.5373134328358209
 40
0.5373134328358209
 40
0.5522388059701493
 40
0.5522388059701493
 40
0.5522388059701493
 40
0.5522388059701493
 40
0.5671641791044776
 40
0.5671641791044776
 40
0.5671641791044776
 40
0.5671641791044776
 40
0.582089552238806
 40
0.582089552238806
 40
0.582089552238806
 40
0.582089552238806
 40
0.5970149253731343
 40
0.5970149253731343
 40
0.5970149253731343
 40
0.5970149253731343
 40
0.6119402985074627
 40
0.6119402985074627
 40
0.6119402985074627
 40
0.6119402985074627
 40
0.6268656716417911
 40
0.6268656716417911
 40
0.6268656716417911
 40
0.6268656716417911
 40
0.6417910447761194
 40
0.6417910447761194
 40
0.6417910447761194
 40
0.6417910447761194
 40
0.6567164179104478
 40
0.6567164179104478
 40
0.6567164179104478
 40
0.6567164179104478
 40
0.6716417910447762
 40
0.6716417910447762
 40
0.6716417910447762
 40
0.6716417910447762
 40
0.6865671641791045
 40
0.6865671641791045
 40
0.6865671641791045
 40
0.6865671641791045
 40
0.7014925373134329
 40
0.7014925373134329
 40
0.7014925373134329
 40
0.7014925373134329
 40
0.7164179104477612
 40
0.7164179104477612
 40
0.7164179104477612
 40
0.7164179104477612
 40
0.7313432835820896
 40
0.7313432835820896
 40
0.7313432835820896
 40
0.7313432835820896
 40
0.746268656716418
 40
0.746268656716418
 40
0.746268656716418
 40
0.746268656716418
 40
0.7611940298507462
 40
0.7611940298507462
 40
0.7611940298507462
 40
0.7611940298507462
 40
0.7761194029850746
 40
0.7761194029850746
 40
0.7761194029850746
 40
0.7761194029850746
 40
0.7910447761194029
 40
0.7910447761194029
 40
0.7910447761194029
 40
0.7910447761194029
 40
0.8059701492537313
 40
0.8059701492537313
 40
0.8059701492537313
 40
0.8059701492537313
 40
0.8208955223880597
 40
0.8208955223880597
 40
0.8208955223880597
 40
0.8208955223880597
 40
0.835820895522388
 40
0.835820895522388
 40
0.835820895522388
 40
0.835820895522388
 40
0.8507462686567164
 40
0.8507462686567164
 40
0.8507462686567164
 40
0.8507462686567164
 40
0.8656716417910447
 40
0.8656716417910447
 40
0.8656716417910447
 40
0.8656716417910447
 40
0.8805970149253731
 40
0.8805970149253731
 40
0.8805970149253731
 40
0.8805970149253731
 40
0.8955223880597015
 40
0.8955223880597015
 40
0.8955223880597015
 40
0.8955223880597015
 40
0.9104477611940298
 40
0.9104477611940298
 40
0.9104477611940298
 40
0.9104477611940298
 40
0.9253731343283582
 40
0.9253731343283582
 40
0.9253731343283582
 40
0.9253731343283582
 40
0.9402985074626866
 40
0.9402985074626866
 40
0.9402985074626866
 40
0.9402985074626866
 40
0.9552238805970149
 40
0.9552238805970149
 40
0.9552238805970149
 40
0.9552238805970149
 40
0.9701492537313433
 40
0.9701492537313433
 40
0.9701492537313433
 40
0.9701492537313433
 40
1.0
 40
1.0
 40
1.0
 40
1.0
 10
-0.2
 20
3.3
 30
0.0
 10
-0.2
 20
3.3
 30
0.0
 10
-0.2
 20
3.82452
 30
0.0
 10
-0.2
 20
3.82452
 30
0.0
 10
-0.2
 20
3.82452
 30
0.0
 10
-0.2
 20
3.82452
 30
0.0
 10
-0.88984
 20
3.82452
 30
0.0
 10
-0.88984
 20
3.82452
 30
0.0
 10
-0.88984
 20
3.82452
 30
0.0
 10
-0.88984
 20
3.82452
 30
0.0
 10
-0.90022
 20
3.66024
 30
0.0
 10
-0.90022
 20
3.66024
 30
0.0
 10
-0.90022
 20
3.66024
 30
0.0
 10
-0.90022
 20
3.66024
 30
0.0
 10
-0.87837
 20
3.66024
 30
0.0
 10
-0.87837
 20
3.66024
 30
0.0
 10
-0.87837
 20
3.66024
 30
0.0
 10
-0.80084
 20
3.66024
 30
0.0
 10
-0.73738
 20
3.59681
 30
0.0
 10
-0.73738
 20
3.51924
 30
0.0
 10
-0.73738
 20
3.51924
 30
0.0
 10
-0.73738
 20
3.45012
 30
0.0
 10
-0.7878
 20
3.3922
 30
0.0
 10
-0.85366
 20
3.38042
 30
0.0
 10
-0.85366
 20
3.38042
 30
0.0
 10
-0.7878
 20
3.36865
 30
0.0
 10
-0.73738
 20
3.31073
 30
0.0
 10
-0.73738
 20
3.24161
 30
0.0
 10
-0.73738
 20
3.24161
 30
0.0
 10
-0.73738
 20
3.16405
 30
0.0
 10
-0.80084
 20
3.10061
 30
0.0
 10
-0.87837
 20
3.10061
 30
0.0
 10
-0.87837
 20
3.10061
 30
0.0
 10
-0.87837
 20
3.10061
 30
0.0
 10
-0.90022
 20
3.10061
 30
0.0
 10
-0.90022
 20
3.10061
 30
0.0
 10
-0.90022
 20
3.10061
 30
0.0
 10
-0.90022
 20
3.10061
 30
0.0
 10
-0.90022
 20
2.33192
 30
0.0
 10
-0.90022
 20
2.33192
 30
0.0
 10
-0.90022
 20
2.33192
 30
0.0
 10
-0.90022
 20
2.33192
 30
0.0
 10
-0.80895
 20
2.33192
 30
0.0
 10
-0.80895
 20
2.33192
 30
0.0
 10
-0.80895
 20
2.33192
 30
0.0
 10
-0.76959
 20
2.33192
 30
0.0
 10
-0.73739
 20
2.29973
 30
0.0
 10
-0.73739
 20
2.26038
 30
0.0
 10
-0.73739
 20
2.26038
 30
0.0
 10
-0.73739
 20
2.221
 30
0.0
 10
-0.76959
 20
2.18881
 30
0.0
 10
-0.80895
 20
2.18881
 30
0.0
 10
-0.80895
 20
2.18881
 30
0.0
 10
-0.80895
 20
2.18881
 30
0.0
 10
-0.90022
 20
2.18881
 30
0.0
 10
-0.90022
 20
2.18881
 30
0.0
 10
-0.90022
 20
2.18881
 30
0.0
 10
-0.90022
 20
2.18881
 30
0.0
 10
-0.90022
 20
1.64998
 30
0.0
 10
-0.90022
 20
1.64998
 30
0.0
 10
-0.90022
 20
1.64998
 30
0.0
 10
-0.90022
 20
1.64998
 30
0.0
 10
-0.80895
 20
1.64998
 30
0.0
 10
-0.80895
 20
1.64998
 30
0.0
 10
-0.80895
 20
1.64998
 30
0.0
 10
-0.76959
 20
1.64998
 30
0.0
 10
-0.73739
 20
1.61778
 30
0.0
 10
-0.73739
 20
1.57841
 30
0.0
 10
-0.73739
 20
1.57841
 30
0.0
 10
-0.73739
 20
1.53903
 30
0.0
 10
-0.76959
 20
1.50683
 30
0.0
 10
-0.80895
 20
1.50683
 30
0.0
 10
-0.80895
 20
1.50683
 30
0.0
 10
-0.80895
 20
1.50683
 30
0.0
 10
-0.90022
 20
1.50683
 30
0.0
 10
-0.90022
 20
1.50683
 30
0.0
 10
-0.90022
 20
1.50683
 30
0.0
 10
-0.90022
 20
1.50683
 30
0.0
 10
-0.90022
 20
1.13456
 30
0.0
 10
-0.90022
 20
1.13456
 30
0.0
 10
-0.90022
 20
1.13456
 30
0.0
 10
-0.90022
 20
1.13456
 30
0.0
 10
-0.99566
 20
1.13456
 30
0.0
 10
-0.99566
 20
1.13456
 30
0.0
 10
-0.99566
 20
1.13456
 30
0.0
 10
-0.99566
 20
1.13456
 30
0.0
 10
-0.99566
 20
-4.03856
 30
0.0
 10
-0.99566
 20
-4.03856
 30
0.0
 10
-0.99566
 20
-4.03856
 30
0.0
 10
-0.99566
 20
-4.03856
 30
0.0
 10
-0.95688
 20
-4.03856
 30
0.0
 10
-0.95688
 20
-4.03856
 30
0.0
 10
-0.95688
 20
-4.03856
 30
0.0
 10
-0.92672
 20
-4.03856
 30
0.0
 10
-0.89794
 20
-4.05812
 30
0.0
 10
-0.89278
 20
-4.08262
 30
0.0
 10
-0.89278
 20
-4.08262
 30
0.0
 10
-0.89278
 20
-4.08262
 30
0.0
 10
-0.74194
 20
-4.80017
 30
0.0
 10
-0.74194
 20
-4.80017
 30
0.0
 10
-0.74194
 20
-4.80017
 30
0.0
 10
-0.7323
 20
-4.84588
 30
0.0
 10
-0.75921
 20
-4.88444
 30
0.0
 10
-0.80202
 20
-4.88444
 30
0.0
 10
-0.80202
 20
-4.88444
 30
0.0
 10
-0.80202
 20
-4.88444
 30
0.0
 10
-1.85099
 20
-4.88444
 30
0.0
 10
-1.85099
 20
-4.88444
 30
0.0
 10
-1.85099
 20
-4.88444
 30
0.0
 10
-1.89378
 20
-4.88444
 30
0.0
 10
-1.92068
 20
-4.84588
 30
0.0
 10
-1.91108
 20
-4.80017
 30
0.0
 10
-1.91108
 20
-4.80017
 30
0.0
 10
-1.91108
 20
-4.80017
 30
0.0
 10
-1.76021
 20
-4.08262
 30
0.0
 10
-1.76021
 20
-4.08262
 30
0.0
 10
-1.76021
 20
-4.08262
 30
0.0
 10
-1.75508
 20
-4.05812
 30
0.0
 10
-1.72627
 20
-4.03856
 30
0.0
 10
-1.69613
 20
-4.03856
 30
0.0
 10
-1.69613
 20
-4.03856
 30
0.0
 10
-1.69613
 20
-4.03856
 30
0.0
 10
-1.65836
 20
-4.03856
 30
0.0
 10
-1.65836
 20
-4.03856
 30
0.0
 10
-1.65836
 20
-4.03856
 30
0.0
 10
-1.65836
 20
-4.03856
 30
0.0
 10
-1.65836
 20
1.13456
 30
0.0
 10
-1.65836
 20
1.13456
 30
0.0
 10
-1.65836
 20
1.13456
 30
0.0
 10
-1.65836
 20
1.13456
 30
0.0
 10
-1.74505
 20
1.13456
 30
0.0
 10
-1.74505
 20
1.13456
 30
0.0
 10
-1.74505
 20
1.13456
 30
0.0
 10
-1.74505
 20
1.13456
 30
0.0
 10
-1.74505
 20
1.50683
 30
0.0
 10
-1.74505
 20
1.50683
 30
0.0
 10
-1.74505
 20
1.50683
 30
0.0
 10
-1.74505
 20
1.50683
 30
0.0
 10
-1.86933
 20
1.50683
 30
0.0
 10
-1.86933
 20
1.50683
 30
0.0
 10
-1.86933
 20
1.50683
 30
0.0
 10
-1.9087
 20
1.50683
 30
0.0
 10
-1.9409
 20
1.53903
 30
0.0
 10
-1.9409
 20
1.57841
 30
0.0
 10
-1.9409
 20
1.57841
 30
0.0
 10
-1.9409
 20
1.61778
 30
0.0
 10
-1.9087
 20
1.64998
 30
0.0
 10
-1.86933
 20
1.64998
 30
0.0
 10
-1.86933
 20
1.64998
 30
0.0
 10
-1.86933
 20
1.64998
 30
0.0
 10
-1.74505
 20
1.64998
 30
0.0
 10
-1.74505
 20
1.64998
 30
0.0
 10
-1.74505
 20
1.64998
 30
0.0
 10
-1.74505
 20
1.64998
 30
0.0
 10
-1.74505
 20
2.18881
 30
0.0
 10
-1.74505
 20
2.18881
 30
0.0
 10
-1.74505
 20
2.18881
 30
0.0
 10
-1.74505
 20
2.18881
 30
0.0
 10
-1.86933
 20
2.18881
 30
0.0
 10
-1.86933
 20
2.18881
 30
0.0
 10
-1.86933
 20
2.18881
 30
0.0
 10
-1.9087
 20
2.18881
 30
0.0
 10
-1.9409
 20
2.221
 30
0.0
 10
-1.9409
 20
2.26038
 30
0.0
 10
-1.9409
 20
2.26038
 30
0.0
 10
-1.9409
 20
2.29973
 30
0.0
 10
-1.9087
 20
2.33192
 30
0.0
 10
-1.86933
 20
2.33192
 30
0.0
 10
-1.86933
 20
2.33192
 30
0.0
 10
-1.86933
 20
2.33192
 30
0.0
 10
-1.74505
 20
2.33192
 30
0.0
 10
-1.74505
 20
2.33192
 30
0.0
 10
-1.74505
 20
2.33192
 30
0.0
 10
-1.74505
 20
2.33192
 30
0.0
 10
-1.74505
 20
3.10061
 30
0.0
 10
-1.74505
 20
3.10061
 30
0.0
 10
-1.74505
 20
3.10061
 30
0.0
 10
-1.74505
 20
3.10061
 30
0.0
 10
-1.7999
 20
3.10061
 30
0.0
 10
-1.7999
 20
3.10061
 30
0.0
 10
-1.7999
 20
3.10061
 30
0.0
 10
-1.87745
 20
3.10061
 30
0.0
 10
-1.9409
 20
3.16405
 30
0.0
 10
-1.9409
 20
3.24161
 30
0.0
 10
-1.9409
 20
3.24161
 30
0.0
 10
-1.9409
 20
3.31073
 30
0.0
 10
-1.89049
 20
3.36865
 30
0.0
 10
-1.82462
 20
3.38042
 30
0.0
 10
-1.82462
 20
3.38042
 30
0.0
 10
-1.89049
 20
3.3922
 30
0.0
 10
-1.9409
 20
3.45012
 30
0.0
 10
-1.9409
 20
3.51924
 30
0.0
 10
-1.9409
 20
3.51924
 30
0.0
 10
-1.9409
 20
3.59681
 30
0.0
 10
-1.87745
 20
3.66024
 30
0.0
 10
-1.7999
 20
3.66024
 30
0.0
 10
-1.7999
 20
3.66024
 30
0.0
 10
-1.7999
 20
3.66024
 30
0.0
 10
-1.74505
 20
3.66024
 30
0.0
 10
-1.74505
 20
3.66024
 30
0.0
 10
-1.74505
 20
3.66024
 30
0.0
 10
-1.74505
 20
3.66024
 30
0.0
 10
-1.74505
 20
3.97273
 30
0.0
 10
-1.74505
 20
3.97273
 30
0.0
 10
-1.74505
 20
3.97273
 30
0.0
 10
-1.7534
 20
3.98483
 30
0.0
 10
-1.76124
 20
3.99743
 30
0.0
 10
-1.76838
 20
4.01066
 30
0.0
 10
-1.76838
 20
4.01066
 30
0.0
 10
-1.80872
 20
4.11233
 30
0.0
 10
-1.7745
 20
4.27876
 30
0.0
 10
-1.85288
 20
4.55104
 30
0.0
 10
-1.85288
 20
4.55104
 30
0.0
 10
-1.96125
 20
4.59269
 30
0.0
 10
-1.99349
 20
4.72227
 30
0.0
 10
-1.97983
 20
4.92347
 30
0.0
 10
-1.97983
 20
4.92347
 30
0.0
 10
-2.2989
 20
5.36096
 30
0.0
 10
-2.18095
 20
6.00602
 30
0.0
 10
-1.32782
 20
6.01603
 30
0.0
 10
-1.32782
 20
6.01603
 30
0.0
 10
-0.47381
 20
6.01748
 30
0.0
 10
-0.32606
 20
5.3314
 30
0.0
 10
-0.65114
 20
4.95167
 30
0.0
 10
-0.65114
 20
4.95167
 30
0.0
 10
-0.6456
 20
4.89812
 30
0.0
 10
-0.64149
 20
4.84682
 30
0.0
 10
-0.64134
 20
4.79953
 30
0.0
 10
-0.64134
 20
4.79953
 30
0.0
 10
-0.64134
 20
4.79953
 30
0.0
 10
-0.2
 20
4.79953
 30
0.0
 10
-0.2
 20
4.79953
 30
0.0
 10
-0.2
 20
4.79953
 30
0.0
 10
-0.2
 20
4.79953
 30
0.0
 10
-0.2
 20
5.2
 30
0.0
 10
-0.2
 20
5.2
 30
0.0
 10
-0.2
 20
5.2
 30
0.0
 10
-0.2
 20
5.47614
 30
0.0
 10
0.02386
 20
5.7
 30
0.0
 10
0.3
 20
5.7
 30
0.0
 10
0.3
 20
5.7
 30
0.0
 10
0.3
 20
5.7
 30
0.0
 10
0.7
 20
5.7
 30
0.0
 10
0.7
 20
5.7
 30
0.0
 10
0.7
 20
5.7
 30
0.0
 10
0.97614
 20
5.7
 30
0.0
 10
1.2
 20
5.47614
 30
0.0
 10
1.2
 20
5.2
 30
0.0
 10
1.2
 20
5.2
 30
0.0
 10
1.2
 20
5.2
 30
0.0
 10
1.2
 20
3.3
 30
0.0
 10
1.2
 20
3.3
 30
0.0
 10
1.2
 20
3.3
 30
0.0
 10
1.2
 20
3.02386
 30
0.0
 10
0.97614
 20
2.8
 30
0.0
 10
0.7
 20
2.8
 30
0.0
 10
0.7
 20
2.8
 30
0.0
 10
0.7
 20
2.8
 30
0.0
 10
0.3
 20
2.8
 30
0.0
 10
0.3
 20
2.8
 30
0.0
 10
0.3
 20
2.8
 30
0.0
 10
0.02386
 20
2.8
 30
0.0
 10
-0.2
 20
3.02386
 30
0.0
 10
-0.2
 20
3.3
 30
0.0
  0
ELLIPSE
  5
68
330
1F
100
AcDbEntity
  8
Layer 1
370
    53
100
AcDbEllipse
 10
0.5
 20
5.0
 30
0.0
 11
0.0
 21
0.3
 31
0.0
210
0.0
220
0.0
230
1.0
 40
1.0
 41
0.0
 42
6.283185307179586
  0
ELLIPSE
  5
69
330
1F
100
AcDbEntity
  8
Layer 1
370
    53
100
AcDbEllipse
 10
0.5
 20
3.5
 30
0.0
 11
0.0
 21
0.3
 31
0.0
210
0.0
220
0.0
230
1.0
 40
1.0
 41
0.0
 42
6.283185307179586
  0
ELLIPSE
  5
6A
330
1F
100
AcDbEntity
  8
Layer 1
370
    53
100
AcDbEllipse
 10
0.5
 20
4.25
 30
0.0
 11
0.0
 21
0.15
 31
0.0
210
0.0
220
0.0
230
1.0
 40
1.0
 41
0.0
 42
6.283185307179586
  0
ENDSEC
  0
SECTION
  2
OBJECTS
  0
DICTIONARY
  5
C
330
0
100
AcDbDictionary
281
     1
  3
ACAD_GROUP
350
D
  3
ACAD_LAYOUT
350
1A
  3
ACAD_MATERIAL
350
3B
  3
ACAD_MLEADERSTYLE
350
8C
  3
ACAD_MLINESTYLE
350
17
  3
ACAD_PLOTSETTINGS
350
19
  3
ACAD_PLOTSTYLENAME
350
E
  3
ACAD_TABLESTYLE
350
8B
  3
ACAD_VISUALSTYLE
350
2A
  0
DICTIONARY
  5
D
102
{ACAD_REACTORS
330
C
102
}
330
C
100
AcDbDictionary
281
     1
  0
DICTIONARY
  5
1A
102
{ACAD_REACTORS
330
C
102
}
330
C
100
AcDbDictionary
281
     1
  3
Layout1
350
1E
  3
Layout2
350
26
  3
Model
350
22
  0
DICTIONARY
  5
3B
102
{ACAD_REACTORS
330
C
102
}
330
C
100
AcDbDictionary
281
     1
  3
ByBlock
350
3D
  3
ByLayer
350
3C
  3
Global
350
3E
  0
DICTIONARY
  5
8C
102
{ACAD_REACTORS
330
C
102
}
330
C
100
AcDbDictionary
281
     1
  0
DICTIONARY
  5
17
102
{ACAD_REACTORS
330
C
102
}
330
C
100
AcDbDictionary
281
     1
  3
Standard
350
18
  0
DICTIONARY
  5
19
102
{ACAD_REACTORS
330
C
102
}
330
C
100
AcDbDictionary
281
     1
  0
ACDBDICTIONARYWDFLT
  5
E
102
{ACAD_REACTORS
330
C
102
}
330
C
100
AcDbDictionary
281
     1
  3
Normal
350
F
100
AcDbDictionaryWithDefault
340
F
  0
DICTIONARY
  5
8B
102
{ACAD_REACTORS
330
C
102
}
330
C
100
AcDbDictionary
281
     1
  0
DICTIONARY
  5
2A
102
{ACAD_REACTORS
330
C
102
}
330
C
100
AcDbDictionary
281
     1
  3
2dWireframe
350
2F
  3
3D Hidden
350
31
  3
3dWireframe
350
30
  3
Basic
350
32
  3
Brighten
350
36
  3
ColorChange
350
3A
  3
Conceptual
350
34
  3
Dim
350
35
  3
Facepattern
350
39
  3
Flat
350
2B
  3
FlatWithEdges
350
2C
  3
Gouraud
350
2D
  3
GouraudWithEdges
350
2E
  3
Linepattern
350
38
  3
Realistic
350
33
  3
Thicken
350
37
  0
LAYOUT
  5
1E
102
{ACAD_REACTORS
330
1A
102
}
330
1A
100
AcDbPlotSettings
  1

  2
none_device
  4

  6

 40
0.0
 41
0.0
 42
0.0
 43
0.0
 44
0.0
 45
0.0
 46
0.0
 47
0.0
 48
0.0
 49
0.0
140
0.0
141
0.0
142
1.0
143
1.0
 70
   688
 72
     0
 73
     0
 74
     5
  7

 75
    16
 76
     0
 77
     2
 78
   300
147
1.0
148
0.0
149
0.0
100
AcDbLayout
  1
Layout1
 70
     1
 71
     1
 10
0.0
 20
0.0
 11
12.0
 21
9.0
 12
0.0
 22
0.0
 32
0.0
 14
1.000000000000000E+20
 24
1.000000000000000E+20
 34
1.000000000000000E+20
 15
-1.000000000000000E+20
 25
-1.000000000000000E+20
 35
-1.000000000000000E+20
146
0.0
 13
0.0
 23
0.0
 33
0.0
 16
1.0
 26
0.0
 36
0.0
 17
0.0
 27
1.0
 37
0.0
 76
     0
330
1B
  0
LAYOUT
  5
26
102
{ACAD_REACTORS
330
1A
102
}
330
1A
100
AcDbPlotSettings
  1

  2
none_device
  4

  6

 40
0.0
 41
0.0
 42
0.0
 43
0.0
 44
0.0
 45
0.0
 46
0.0
 47
0.0
 48
0.0
 49
0.0
140
0.0
141
0.0
142
1.0
143
1.0
 70
   688
 72
     0
 73
     0
 74
     5
  7

 75
    16
 76
     0
 77
     2
 78
   300
147
1.0
148
0.0
149
0.0
100
AcDbLayout
  1
Layout2
 70
     1
 71
     2
 10
0.0
 20
0.0
 11
0.0
 21
0.0
 12
0.0
 22
0.0
 32
0.0
 14
0.0
 24
0.0
 34
0.0
 15
0.0
 25
0.0
 35
0.0
146
0.0
 13
0.0
 23
0.0
 33
0.0
 16
1.0
 26
0.0
 36
0.0
 17
0.0
 27
1.0
 37
0.0
 76
     0
330
23
  0
LAYOUT
  5
22
102
{ACAD_REACTORS
330
1A
102
}
330
1A
100
AcDbPlotSettings
  1

  2
none_device
  4

  6

 40
0.0
 41
0.0
 42
0.0
 43
0.0
 44
0.0
 45
0.0
 46
0.0
 47
0.0
 48
0.0
 49
0.0
140
0.0
141
0.0
142
1.0
143
1.0
 70
  1712
 72
     0
 73
     0
 74
     0
  7

 75
     0
 76
     0
 77
     2
 78
   300
147
1.0
148
0.0
149
0.0
100
AcDbLayout
  1
Model
 70
     1
 71
     0
 10
0.0
 20
0.0
 11
12.0
 21
9.0
 12
0.0
 22
0.0
 32
0.0
 14
-2.16828
 24
-4.9109
 34
0.0
 15
1.22646
 25
6.04249
 35
0.0
146
0.0
 13
0.0
 23
0.0
 33
0.0
 16
1.0
 26
0.0
 36
0.0
 17
0.0
 27
1.0
 37
0.0
 76
     0
330
1F
331
29
  0
MATERIAL
  5
3D
102
{ACAD_REACTORS
330
3B
102
}
330
3B
100
AcDbMaterial
  1
ByBlock
 72
     1
 94
      127
  0
MATERIAL
  5
3C
102
{ACAD_REACTORS
330
3B
102
}
330
3B
100
AcDbMaterial
  1
ByLayer
 72
     1
 94
      127
  0
MATERIAL
  5
3E
102
{ACAD_REACTORS
330
3B
102
}
330
3B
100
AcDbMaterial
  1
Global
 72
     1
 94
      127
  0
MLINESTYLE
  5
18
102
{ACAD_REACTORS
330
17
102
}
330
17
100
AcDbMlineStyle
  2
Standard
 70
     0
  3

 62
   256
 51
90.0
 52
90.0
 71
     2
 49
0.5
 62
   256
  6
BYLAYER
 49
-0.5
 62
   256
  6
BYLAYER
  0
ACDBPLACEHOLDER
  5
F
102
{ACAD_REACTORS
330
E
102
}
330
E
  0
VISUALSTYLE
  5
2F
102
{ACAD_REACTORS
330
2A
102
}
102
{ACAD_XDICTIONARY
360
73
102
}
330
2A
100
AcDbVisualStyle
  2
2dWireframe
 70
     4
 71
     0
 72
     2
 73
     0
 90
        0
 40
-0.6
 41
-30.0
 62
     5
 63
     7
421
 16777215
 74
     1
 91
        4
 64
     7
 65
   257
 75
     1
175
     1
 42
1.0
 92
        0
 66
   257
 43
1.0
 76
     1
 77
     6
 78
     2
 67
     7
 79
     5
170
     0
171
     0
290
     0
174
     0
 93
        1
 44
0.0
173
     0
291
     0
 45
0.0
  0
VISUALSTYLE
  5
31
102
{ACAD_REACTORS
330
2A
102
}
102
{ACAD_XDICTIONARY
360
77
102
}
330
2A
100
AcDbVisualStyle
  2
3D Hidden
 70
     6
 71
     1
 72
     2
 73
     2
 90
        0
 40
-0.6
 41
-30.0
 62
     5
 63
     7
421
 16777215
 74
     2
 91
        2
 64
     7
 65
   257
 75
     2
175
     1
 42
40.0
 92
        0
 66
   257
 43
1.0
 76
     1
 77
     6
 78
     2
 67
     7
 79
     3
170
     0
171
     0
290
     0
174
     0
 93
        1
 44
0.0
173
     0
291
     0
 45
0.0
  0
VISUALSTYLE
  5
30
102
{ACAD_REACTORS
330
2A
102
}
102
{ACAD_XDICTIONARY
360
75
102
}
330
2A
100
AcDbVisualStyle
  2
3dWireframe
 70
     5
 71
     0
 72
     2
 73
     0
 90
        0
 40
-0.6
 41
-30.0
 62
     5
 63
     7
421
 16777215
 74
     1
 91
        4
 64
     7
 65
   257
 75
     1
175
     1
 42
1.0
 92
        0
 66
   257
 43
1.0
 76
     1
 77
     6
 78
     2
 67
     7
 79
     5
170
     0
171
     0
290
     0
174
     0
 93
        1
 44
0.0
173
     0
291
     0
 45
0.0
  0
VISUALSTYLE
  5
32
102
{ACAD_REACTORS
330
2A
102
}
102
{ACAD_XDICTIONARY
360
79
102
}
330
2A
100
AcDbVisualStyle
  2
Basic
 70
     7
 71
     1
 72
     0
 73
     1
 90
        0
 40
-0.6
 41
-30.0
 62
     5
 63
     7
421
 16777215
 74
     0
 91
        4
 64
     7
 65
   257
 75
     1
175
     1
 42
1.0
 92
        8
 66
     7
 43
1.0
 76
     1
 77
     6
 78
     2
 67
     7
 79
     5
170
     0
171
     0
290
     0
174
     0
 93
        1
 44
0.0
173
     0
291
     1
 45
0.0
  0
VISUALSTYLE
  5
36
102
{ACAD_REACTORS
330
2A
102
}
102
{ACAD_XDICTIONARY
360
81
102
}
330
2A
100
AcDbVisualStyle
  2
Brighten
 70
    12
 71
     2
 72
     2
 73
     0
 90
        0
 40
-0.6
 41
-30.0
 62
     5
 63
     7
421
 16777215
 74
     1
 91
        4
 64
     7
 65
   257
 75
     1
175
     1
 42
1.0
 92
        8
 66
     7
 43
1.0
 76
     1
 77
     6
 78
     2
 67
     7
 79
     5
170
     0
171
     0
290
     0
174
     0
 93
        1
 44
50.0
173
     0
291
     1
 45
0.0
  0
VISUALSTYLE
  5
3A
102
{ACAD_REACTORS
330
2A
102
}
102
{ACAD_XDICTIONARY
360
89
102
}
330
2A
100
AcDbVisualStyle
  2
ColorChange
 70
    16
 71
     2
 72
     2
 73
     3
 90
        0
 40
-0.6
 41
-30.0
 62
     5
 63
     8
421
  8421504
 74
     1
 91
        4
 64
     7
 65
   257
 75
     1
175
     1
 42
1.0
 92
        8
 66
     8
424
  8421504
 43
1.0
 76
     1
 77
     6
 78
     2
 67
     7
 79
     5
170
     0
171
     0
290
     0
174
     0
 93
        1
 44
0.0
173
     0
291
     1
 45
0.0
  0
VISUALSTYLE
  5
34
102
{ACAD_REACTORS
330
2A
102
}
102
{ACAD_XDICTIONARY
360
7D
102
}
330
2A
100
AcDbVisualStyle
  2
Conceptual
 70
     9
 71
     3
 72
     2
 73
     0
 90
        0
 40
-0.6
 41
-30.0
 62
     5
 63
     7
421
 16777215
 74
     2
 91
        2
 64
     7
 65
   257
 75
     1
175
     1
 42
40.0
 92
        8
 66
     7
 43
1.0
 76
     1
 77
     6
 78
     2
 67
     7
 79
     3
170
     0
171
     0
290
     0
174
     0
 93
        1
 44
0.0
173
     0
291
     0
 45
0.0
  0
VISUALSTYLE
  5
35
102
{ACAD_REACTORS
330
2A
102
}
102
{ACAD_XDICTIONARY
360
7F
102
}
330
2A
100
AcDbVisualStyle
  2
Dim
 70
    11
 71
     2
 72
     2
 73
     0
 90
        0
 40
-0.6
 41
-30.0
 62
     5
 63
     7
421
 16777215
 74
     1
 91
        4
 64
     7
 65
   257
 75
     1
175
     1
 42
1.0
 92
        8
 66
     7
 43
1.0
 76
     1
 77
     6
 78
     2
 67
     7
 79
     5
170
     0
171
     0
290
     0
174
     0
 93
        1
 44
-50.0
173
     0
291
     1
 45
0.0
  0
VISUALSTYLE
  5
39
102
{ACAD_REACTORS
330
2A
102
}
102
{ACAD_XDICTIONARY
360
87
102
}
330
2A
100
AcDbVisualStyle
  2
Facepattern
 70
    15
 71
     2
 72
     2
 73
     0
 90
        0
 40
-0.6
 41
-30.0
 62
     5
 63
     7
421
 16777215
 74
     1
 91
        4
 64
     7
 65
   257
 75
     1
175
     1
 42
1.0
 92
        8
 66
     7
 43
1.0
 76
     1
 77
     6
 78
     2
 67
     7
 79
     5
170
     0
171
     0
290
     0
174
     0
 93
        1
 44
0.0
173
     0
291
     1
 45
0.0
  0
VISUALSTYLE
  5
2B
102
{ACAD_REACTORS
330
2A
102
}
102
{ACAD_XDICTIONARY
360
6B
102
}
330
2A
100
AcDbVisualStyle
  2
Flat
 70
     0
 71
     2
 72
     1
 73
     1
 90
        2
 40
-0.6
 41
30.0
 62
     5
 63
     7
421
 16777215
 74
     0
 91
        4
 64
     7
 65
   257
 75
     1
175
     1
 42
1.0
 92
        8
 66
     7
 43
1.0
 76
     1
 77
     6
 78
     2
 67
     7
 79
     5
170
     0
171
     0
290
     0
174
     0
 93
       13
 44
0.0
173
     0
291
     1
 45
0.0
  0
VISUALSTYLE
  5
2C
102
{ACAD_REACTORS
330
2A
102
}
102
{ACAD_XDICTIONARY
360
6D
102
}
330
2A
100
AcDbVisualStyle
  2
FlatWithEdges
 70
     1
 71
     2
 72
     1
 73
     1
 90
        2
 40
-0.6
 41
30.0
 62
     5
 63
     7
421
 16777215
 74
     1
 91
        4
 64
     7
 65
   257
 75
     1
175
     1
 42
1.0
 92
        0
 66
   257
 43
1.0
 76
     1
 77
     6
 78
     2
 67
     7
 79
     5
170
     0
171
     0
290
     0
174
     0
 93
       13
 44
0.0
173
     0
291
     1
 45
0.0
  0
VISUALSTYLE
  5
2D
102
{ACAD_REACTORS
330
2A
102
}
102
{ACAD_XDICTIONARY
360
6F
102
}
330
2A
100
AcDbVisualStyle
  2
Gouraud
 70
     2
 71
     2
 72
     2
 73
     1
 90
        2
 40
-0.6
 41
30.0
 62
     5
 63
     7
421
 16777215
 74
     0
 91
        4
 64
     7
 65
   257
 75
     1
175
     1
 42
1.0
 92
        0
 66
     7
 43
1.0
 76
     1
 77
     6
 78
     2
 67
     7
 79
     5
170
     0
171
     0
290
     0
174
     0
 93
       13
 44
0.0
173
     0
291
     1
 45
0.0
  0
VISUALSTYLE
  5
2E
102
{ACAD_REACTORS
330
2A
102
}
102
{ACAD_XDICTIONARY
360
71
102
}
330
2A
100
AcDbVisualStyle
  2
GouraudWithEdges
 70
     3
 71
     2
 72
     2
 73
     1
 90
        2
 40
-0.6
 41
30.0
 62
     5
 63
     7
421
 16777215
 74
     1
 91
        4
 64
     7
 65
   257
 75
     1
175
     1
 42
1.0
 92
        0
 66
   257
 43
1.0
 76
     1
 77
     6
 78
     2
 67
     7
 79
     5
170
     0
171
     0
290
     0
174
     0
 93
       13
 44
0.0
173
     0
291
     1
 45
0.0
  0
VISUALSTYLE
  5
38
102
{ACAD_REACTORS
330
2A
102
}
102
{ACAD_XDICTIONARY
360
85
102
}
330
2A
100
AcDbVisualStyle
  2
Linepattern
 70
    14
 71
     2
 72
     2
 73
     0
 90
        0
 40
-0.6
 41
-30.0
 62
     5
 63
     7
421
 16777215
 74
     1
 91
        4
 64
     7
 65
   257
 75
     7
175
     7
 42
1.0
 92
        8
 66
     7
 43
1.0
 76
     1
 77
     6
 78
     2
 67
     7
 79
     5
170
     0
171
     0
290
     0
174
     0
 93
        1
 44
0.0
173
     0
291
     1
 45
0.0
  0
VISUALSTYLE
  5
33
102
{ACAD_REACTORS
330
2A
102
}
102
{ACAD_XDICTIONARY
360
7B
102
}
330
2A
100
AcDbVisualStyle
  2
Realistic
 70
     8
 71
     2
 72
     2
 73
     0
 90
        0
 40
-0.6
 41
-30.0
 62
     5
 63
     7
421
 16777215
 74
     1
 91
        0
 64
     7
 65
   257
 75
     1
175
     1
 42
1.0
 92
        8
 66
     8
424
  7895160
 43
1.0
 76
     1
 77
     6
 78
     2
 67
     7
 79
     5
170
     0
171
     0
290
     0
174
     0
 93
       13
 44
0.0
173
     0
291
     0
 45
0.0
  0
VISUALSTYLE
  5
37
102
{ACAD_REACTORS
330
2A
102
}
102
{ACAD_XDICTIONARY
360
83
102
}
330
2A
100
AcDbVisualStyle
  2
Thicken
 70
    13
 71
     2
 72
     2
 73
     0
 90
        0
 40
-0.6
 41
-30.0
 62
     5
 63
     7
421
 16777215
 74
     1
 91
        4
 64
     7
 65
   257
 75
     1
175
     1
 42
1.0
 92
       12
 66
     7
 43
1.0
 76
     1
 77
     6
 78
     2
 67
     7
 79
     5
170
     0
171
     0
290
     0
174
     0
 93
        1
 44
0.0
173
     0
291
     1
 45
0.0
  0
DICTIONARY
  5
73
330
2F
100
AcDbDictionary
280
     1
281
     1
  3
ACAD_XREC_ROUNDTRIP
360
74
  0
DICTIONARY
  5
77
330
31
100
AcDbDictionary
280
     1
281
     1
  3
ACAD_XREC_ROUNDTRIP
360
78
  0
DICTIONARY
  5
75
330
30
100
AcDbDictionary
280
     1
281
     1
  3
ACAD_XREC_ROUNDTRIP
360
76
  0
DICTIONARY
  5
79
330
32
100
AcDbDictionary
280
     1
281
     1
  3
ACAD_XREC_ROUNDTRIP
360
7A
  0
DICTIONARY
  5
81
330
36
100
AcDbDictionary
280
     1
281
     1
  3
ACAD_XREC_ROUNDTRIP
360
82
  0
DICTIONARY
  5
89
330
3A
100
AcDbDictionary
280
     1
281
     1
  3
ACAD_XREC_ROUNDTRIP
360
8A
  0
DICTIONARY
  5
7D
330
34
100
AcDbDictionary
280
     1
281
     1
  3
ACAD_XREC_ROUNDTRIP
360
7E
  0
DICTIONARY
  5
7F
330
35
100
AcDbDictionary
280
     1
281
     1
  3
ACAD_XREC_ROUNDTRIP
360
80
  0
DICTIONARY
  5
87
330
39
100
AcDbDictionary
280
     1
281
     1
  3
ACAD_XREC_ROUNDTRIP
360
88
  0
DICTIONARY
  5
6B
330
2B
100
AcDbDictionary
280
     1
281
     1
  3
ACAD_XREC_ROUNDTRIP
360
6C
  0
DICTIONARY
  5
6D
330
2C
100
AcDbDictionary
280
     1
281
     1
  3
ACAD_XREC_ROUNDTRIP
360
6E
  0
DICTIONARY
  5
6F
330
2D
100
AcDbDictionary
280
     1
281
     1
  3
ACAD_XREC_ROUNDTRIP
360
70
  0
DICTIONARY
  5
71
330
2E
100
AcDbDictionary
280
     1
281
     1
  3
ACAD_XREC_ROUNDTRIP
360
72
  0
DICTIONARY
  5
85
330
38
100
AcDbDictionary
280
     1
281
     1
  3
ACAD_XREC_ROUNDTRIP
360
86
  0
DICTIONARY
  5
7B
330
33
100
AcDbDictionary
280
     1
281
     1
  3
ACAD_XREC_ROUNDTRIP
360
7C
  0
DICTIONARY
  5
83
330
37
100
AcDbDictionary
280
     1
281
     1
  3
ACAD_XREC_ROUNDTRIP
360
84
  0
XRECORD
  5
74
102
{ACAD_REACTORS
330
73
102
}
330
73
100
AcDbXrecord
280
     1
102
RTVSPropertyOp0
 70
     1
102
RTVSPropertyOp1
 70
     1
102
RTVSPropertyOp2
 70
     1
102
RTVSPropertyOp3
 70
     1
102
RTVSPropertyOp4
 70
     1
102
RTVSPropertyOp5
 70
     1
102
RTVSPropertyOp6
 70
     1
102
RTVSPropertyOp7
 70
     1
102
RTVSPropertyOp8
 70
     1
102
RTVSPropertyOp9
 70
     1
102
RTVSPropertyOp10
 70
     1
102
RTVSPropertyOp11
 70
     1
102
RTVSPropertyOp12
 70
     1
102
RTVSPropertyOp13
 70
     1
102
RTVSPropertyOp14
 70
     1
102
RTVSPropertyOp15
 70
     1
102
RTVSPropertyOp16
 70
     1
102
RTVSPropertyOp17
 70
     1
102
RTVSPropertyOp18
 70
     1
102
RTVSPropertyOp19
 70
     1
102
RTVSPropertyOp20
 70
     1
102
RTVSPropertyOp21
 70
     1
102
RTVSPropertyOp22
 70
     1
102
RTVSPropertyOp23
 70
     1
102
RTVSPropertyOp24
 70
     1
102
RTVSPropertyOp25
 70
     1
102
RTVSPropertyOp26
 70
     1
102
RTVSPropertyOp27
 70
     1
102
RTVSPropertyOp28
 70
     1
102
RTVSPropertyOp29
 70
     1
102
RTVSPropertyOp30
 70
     1
102
RTVSPropertyOp31
 70
     1
102
RTVSPropertyOp32
 70
     1
  0
XRECORD
  5
78
102
{ACAD_REACTORS
330
77
102
}
330
77
100
AcDbXrecord
280
     1
102
RTVSPropertyOp0
 70
     1
102
RTVSPropertyOp1
 70
     1
102
RTVSPropertyOp2
 70
     1
102
RTVSPropertyOp3
 70
     1
102
RTVSPropertyOp4
 70
     1
102
RTVSPropertyOp5
 70
     1
102
RTVSPropertyOp6
 70
     1
102
RTVSPropertyOp7
 70
     1
102
RTVSPropertyOp8
 70
     1
102
RTVSPropertyOp9
 70
     1
102
RTVSPropertyOp10
 70
     1
102
RTVSPropertyOp11
 70
     1
102
RTVSPropertyOp12
 70
     1
102
RTVSPropertyOp13
 70
     1
102
RTVSPropertyOp14
 70
     1
102
RTVSPropertyOp15
 70
     1
102
RTVSPropertyOp16
 70
     1
102
RTVSPropertyOp17
 70
     1
102
RTVSPropertyOp18
 70
     1
102
RTVSPropertyOp19
 70
     1
102
RTVSPropertyOp20
 70
     1
102
RTVSPropertyOp21
 70
     1
102
RTVSPropertyOp22
 70
     1
102
RTVSPropertyOp23
 70
     1
102
RTVSPropertyOp24
 70
     1
102
RTVSPropertyOp25
 70
     1
102
RTVSPropertyOp26
 70
     1
102
RTVSPropertyOp27
 70
     1
102
RTVSPropertyOp28
 70
     1
102
RTVSPropertyOp29
 70
     1
102
RTVSPropertyOp30
 70
     1
102
RTVSPropertyOp31
 70
     1
102
RTVSPropertyOp32
 70
     1
  0
XRECORD
  5
76
102
{ACAD_REACTORS
330
75
102
}
330
75
100
AcDbXrecord
280
     1
102
RTVSPropertyOp0
 70
     1
102
RTVSPropertyOp1
 70
     1
102
RTVSPropertyOp2
 70
     1
102
RTVSPropertyOp3
 70
     1
102
RTVSPropertyOp4
 70
     1
102
RTVSPropertyOp5
 70
     1
102
RTVSPropertyOp6
 70
     1
102
RTVSPropertyOp7
 70
     1
102
RTVSPropertyOp8
 70
     1
102
RTVSPropertyOp9
 70
     1
102
RTVSPropertyOp10
 70
     1
102
RTVSPropertyOp11
 70
     1
102
RTVSPropertyOp12
 70
     1
102
RTVSPropertyOp13
 70
     1
102
RTVSPropertyOp14
 70
     1
102
RTVSPropertyOp15
 70
     1
102
RTVSPropertyOp16
 70
     1
102
RTVSPropertyOp17
 70
     1
102
RTVSPropertyOp18
 70
     1
102
RTVSPropertyOp19
 70
     1
102
RTVSPropertyOp20
 70
     1
102
RTVSPropertyOp21
 70
     1
102
RTVSPropertyOp22
 70
     1
102
RTVSPropertyOp23
 70
     1
102
RTVSPropertyOp24
 70
     1
102
RTVSPropertyOp25
 70
     1
102
RTVSPropertyOp26
 70
     1
102
RTVSPropertyOp27
 70
     1
102
RTVSPropertyOp28
 70
     1
102
RTVSPropertyOp29
 70
     1
102
RTVSPropertyOp30
 70
     1
102
RTVSPropertyOp31
 70
     1
102
RTVSPropertyOp32
 70
     1
  0
XRECORD
  5
7A
102
{ACAD_REACTORS
330
79
102
}
330
79
100
AcDbXrecord
280
     1
102
RTVSPropertyOp0
 70
     1
102
RTVSPropertyOp1
 70
     1
102
RTVSPropertyOp2
 70
     1
102
RTVSPropertyOp3
 70
     1
102
RTVSPropertyOp4
 70
     1
102
RTVSPropertyOp5
 70
     1
102
RTVSPropertyOp6
 70
     1
102
RTVSPropertyOp7
 70
     1
102
RTVSPropertyOp8
 70
     1
102
RTVSPropertyOp9
 70
     1
102
RTVSPropertyOp10
 70
     1
102
RTVSPropertyOp11
 70
     1
102
RTVSPropertyOp12
 70
     1
102
RTVSPropertyOp13
 70
     1
102
RTVSPropertyOp14
 70
     1
102
RTVSPropertyOp15
 70
     1
102
RTVSPropertyOp16
 70
     1
102
RTVSPropertyOp17
 70
     1
102
RTVSPropertyOp18
 70
     1
102
RTVSPropertyOp19
 70
     1
102
RTVSPropertyOp20
 70
     1
102
RTVSPropertyOp21
 70
     1
102
RTVSPropertyOp22
 70
     1
102
RTVSPropertyOp23
 70
     1
102
RTVSPropertyOp24
 70
     1
102
RTVSPropertyOp25
 70
     1
102
RTVSPropertyOp26
 70
     1
102
RTVSPropertyOp27
 70
     1
102
RTVSPropertyOp28
 70
     1
102
RTVSPropertyOp29
 70
     1
102
RTVSPropertyOp30
 70
     1
102
RTVSPropertyOp31
 70
     1
102
RTVSPropertyOp32
 70
     1
  0
XRECORD
  5
82
102
{ACAD_REACTORS
330
81
102
}
330
81
100
AcDbXrecord
280
     1
102
RTVSPropertyOp0
 70
     1
102
RTVSPropertyOp1
 70
     1
102
RTVSPropertyOp2
 70
     1
102
RTVSPropertyOp3
 70
     1
102
RTVSPropertyOp4
 70
     1
102
RTVSPropertyOp5
 70
     1
102
RTVSPropertyOp6
 70
     1
102
RTVSPropertyOp7
 70
     1
102
RTVSPropertyOp8
 70
     1
102
RTVSPropertyOp9
 70
     1
102
RTVSPropertyOp10
 70
     1
102
RTVSPropertyOp11
 70
     1
102
RTVSPropertyOp12
 70
     1
102
RTVSPropertyOp13
 70
     1
102
RTVSPropertyOp14
 70
     1
102
RTVSPropertyOp15
 70
     1
102
RTVSPropertyOp16
 70
     1
102
RTVSPropertyOp17
 70
     1
102
RTVSPropertyOp18
 70
     1
102
RTVSPropertyOp19
 70
     1
102
RTVSPropertyOp20
 70
     1
102
RTVSPropertyOp21
 70
     1
102
RTVSPropertyOp22
 70
     1
102
RTVSPropertyOp23
 70
     1
102
RTVSPropertyOp24
 70
     1
102
RTVSPropertyOp25
 70
     1
102
RTVSPropertyOp26
 70
     1
102
RTVSPropertyOp27
 70
     1
102
RTVSPropertyOp28
 70
     1
102
RTVSPropertyOp29
 70
     1
102
RTVSPropertyOp30
 70
     1
102
RTVSPropertyOp31
 70
     1
102
RTVSPropertyOp32
 70
     1
  0
XRECORD
  5
8A
102
{ACAD_REACTORS
330
89
102
}
330
89
100
AcDbXrecord
280
     1
102
RTVSPropertyOp0
 70
     1
102
RTVSPropertyOp1
 70
     1
102
RTVSPropertyOp2
 70
     1
102
RTVSPropertyOp3
 70
     1
102
RTVSPropertyOp4
 70
     1
102
RTVSPropertyOp5
 70
     1
102
RTVSPropertyOp6
 70
     1
102
RTVSPropertyOp7
 70
     1
102
RTVSPropertyOp8
 70
     1
102
RTVSPropertyOp9
 70
     1
102
RTVSPropertyOp10
 70
     1
102
RTVSPropertyOp11
 70
     1
102
RTVSPropertyOp12
 70
     1
102
RTVSPropertyOp13
 70
     1
102
RTVSPropertyOp14
 70
     1
102
RTVSPropertyOp15
 70
     1
102
RTVSPropertyOp16
 70
     1
102
RTVSPropertyOp17
 70
     1
102
RTVSPropertyOp18
 70
     1
102
RTVSPropertyOp19
 70
     1
102
RTVSPropertyOp20
 70
     1
102
RTVSPropertyOp21
 70
     1
102
RTVSPropertyOp22
 70
     1
102
RTVSPropertyOp23
 70
     1
102
RTVSPropertyOp24
 70
     1
102
RTVSPropertyOp25
 70
     1
102
RTVSPropertyOp26
 70
     1
102
RTVSPropertyOp27
 70
     1
102
RTVSPropertyOp28
 70
     1
102
RTVSPropertyOp29
 70
     1
102
RTVSPropertyOp30
 70
     1
102
RTVSPropertyOp31
 70
     1
102
RTVSPropertyOp32
 70
     1
  0
XRECORD
  5
7E
102
{ACAD_REACTORS
330
7D
102
}
330
7D
100
AcDbXrecord
280
     1
102
RTVSPropertyOp0
 70
     1
102
RTVSPropertyOp1
 70
     1
102
RTVSPropertyOp2
 70
     1
102
RTVSPropertyOp3
 70
     1
102
RTVSPropertyOp4
 70
     1
102
RTVSPropertyOp5
 70
     1
102
RTVSPropertyOp6
 70
     1
102
RTVSPropertyOp7
 70
     1
102
RTVSPropertyOp8
 70
     1
102
RTVSPropertyOp9
 70
     1
102
RTVSPropertyOp10
 70
     1
102
RTVSPropertyOp11
 70
     1
102
RTVSPropertyOp12
 70
     1
102
RTVSPropertyOp13
 70
     1
102
RTVSPropertyOp14
 70
     1
102
RTVSPropertyOp15
 70
     1
102
RTVSPropertyOp16
 70
     1
102
RTVSPropertyOp17
 70
     1
102
RTVSPropertyOp18
 70
     1
102
RTVSPropertyOp19
 70
     1
102
RTVSPropertyOp20
 70
     1
102
RTVSPropertyOp21
 70
     1
102
RTVSPropertyOp22
 70
     1
102
RTVSPropertyOp23
 70
     1
102
RTVSPropertyOp24
 70
     1
102
RTVSPropertyOp25
 70
     1
102
RTVSPropertyOp26
 70
     1
102
RTVSPropertyOp27
 70
     1
102
RTVSPropertyOp28
 70
     1
102
RTVSPropertyOp29
 70
     1
102
RTVSPropertyOp30
 70
     1
102
RTVSPropertyOp31
 70
     1
102
RTVSPropertyOp32
 70
     1
  0
XRECORD
  5
80
102
{ACAD_REACTORS
330
7F
102
}
330
7F
100
AcDbXrecord
280
     1
102
RTVSPropertyOp0
 70
     1
102
RTVSPropertyOp1
 70
     1
102
RTVSPropertyOp2
 70
     1
102
RTVSPropertyOp3
 70
     1
102
RTVSPropertyOp4
 70
     1
102
RTVSPropertyOp5
 70
     1
102
RTVSPropertyOp6
 70
     1
102
RTVSPropertyOp7
 70
     1
102
RTVSPropertyOp8
 70
     1
102
RTVSPropertyOp9
 70
     1
102
RTVSPropertyOp10
 70
     1
102
RTVSPropertyOp11
 70
     1
102
RTVSPropertyOp12
 70
     1
102
RTVSPropertyOp13
 70
     1
102
RTVSPropertyOp14
 70
     1
102
RTVSPropertyOp15
 70
     1
102
RTVSPropertyOp16
 70
     1
102
RTVSPropertyOp17
 70
     1
102
RTVSPropertyOp18
 70
     1
102
RTVSPropertyOp19
 70
     1
102
RTVSPropertyOp20
 70
     1
102
RTVSPropertyOp21
 70
     1
102
RTVSPropertyOp22
 70
     1
102
RTVSPropertyOp23
 70
     1
102
RTVSPropertyOp24
 70
     1
102
RTVSPropertyOp25
 70
     1
102
RTVSPropertyOp26
 70
     1
102
RTVSPropertyOp27
 70
     1
102
RTVSPropertyOp28
 70
     1
102
RTVSPropertyOp29
 70
     1
102
RTVSPropertyOp30
 70
     1
102
RTVSPropertyOp31
 70
     1
102
RTVSPropertyOp32
 70
     1
  0
XRECORD
  5
88
102
{ACAD_REACTORS
330
87
102
}
330
87
100
AcDbXrecord
280
     1
102
RTVSPropertyOp0
 70
     1
102
RTVSPropertyOp1
 70
     1
102
RTVSPropertyOp2
 70
     1
102
RTVSPropertyOp3
 70
     1
102
RTVSPropertyOp4
 70
     1
102
RTVSPropertyOp5
 70
     1
102
RTVSPropertyOp6
 70
     1
102
RTVSPropertyOp7
 70
     1
102
RTVSPropertyOp8
 70
     1
102
RTVSPropertyOp9
 70
     1
102
RTVSPropertyOp10
 70
     1
102
RTVSPropertyOp11
 70
     1
102
RTVSPropertyOp12
 70
     1
102
RTVSPropertyOp13
 70
     1
102
RTVSPropertyOp14
 70
     1
102
RTVSPropertyOp15
 70
     1
102
RTVSPropertyOp16
 70
     1
102
RTVSPropertyOp17
 70
     1
102
RTVSPropertyOp18
 70
     1
102
RTVSPropertyOp19
 70
     1
102
RTVSPropertyOp20
 70
     1
102
RTVSPropertyOp21
 70
     1
102
RTVSPropertyOp22
 70
     1
102
RTVSPropertyOp23
 70
     1
102
RTVSPropertyOp24
 70
     1
102
RTVSPropertyOp25
 70
     1
102
RTVSPropertyOp26
 70
     1
102
RTVSPropertyOp27
 70
     1
102
RTVSPropertyOp28
 70
     1
102
RTVSPropertyOp29
 70
     1
102
RTVSPropertyOp30
 70
     1
102
RTVSPropertyOp31
 70
     1
102
RTVSPropertyOp32
 70
     1
  0
XRECORD
  5
6C
102
{ACAD_REACTORS
330
6B
102
}
330
6B
100
AcDbXrecord
280
     1
102
RTVSPropertyOp0
 70
     1
102
RTVSPropertyOp1
 70
     1
102
RTVSPropertyOp2
 70
     1
102
RTVSPropertyOp3
 70
     1
102
RTVSPropertyOp4
 70
     1
102
RTVSPropertyOp5
 70
     1
102
RTVSPropertyOp6
 70
     1
102
RTVSPropertyOp7
 70
     1
102
RTVSPropertyOp8
 70
     1
102
RTVSPropertyOp9
 70
     1
102
RTVSPropertyOp10
 70
     1
102
RTVSPropertyOp11
 70
     1
102
RTVSPropertyOp12
 70
     1
102
RTVSPropertyOp13
 70
     1
102
RTVSPropertyOp14
 70
     1
102
RTVSPropertyOp15
 70
     1
102
RTVSPropertyOp16
 70
     1
102
RTVSPropertyOp17
 70
     1
102
RTVSPropertyOp18
 70
     1
102
RTVSPropertyOp19
 70
     1
102
RTVSPropertyOp20
 70
     1
102
RTVSPropertyOp21
 70
     1
102
RTVSPropertyOp22
 70
     1
102
RTVSPropertyOp23
 70
     1
102
RTVSPropertyOp24
 70
     1
102
RTVSPropertyOp25
 70
     1
102
RTVSPropertyOp26
 70
     1
102
RTVSPropertyOp27
 70
     1
102
RTVSPropertyOp28
 70
     1
102
RTVSPropertyOp29
 70
     1
102
RTVSPropertyOp30
 70
     1
102
RTVSPropertyOp31
 70
     1
102
RTVSPropertyOp32
 70
     1
  0
XRECORD
  5
6E
102
{ACAD_REACTORS
330
6D
102
}
330
6D
100
AcDbXrecord
280
     1
102
RTVSPropertyOp0
 70
     1
102
RTVSPropertyOp1
 70
     1
102
RTVSPropertyOp2
 70
     1
102
RTVSPropertyOp3
 70
     1
102
RTVSPropertyOp4
 70
     1
102
RTVSPropertyOp5
 70
     1
102
RTVSPropertyOp6
 70
     1
102
RTVSPropertyOp7
 70
     1
102
RTVSPropertyOp8
 70
     1
102
RTVSPropertyOp9
 70
     1
102
RTVSPropertyOp10
 70
     1
102
RTVSPropertyOp11
 70
     1
102
RTVSPropertyOp12
 70
     1
102
RTVSPropertyOp13
 70
     1
102
RTVSPropertyOp14
 70
     1
102
RTVSPropertyOp15
 70
     1
102
RTVSPropertyOp16
 70
     1
102
RTVSPropertyOp17
 70
     1
102
RTVSPropertyOp18
 70
     1
102
RTVSPropertyOp19
 70
     1
102
RTVSPropertyOp20
 70
     1
102
RTVSPropertyOp21
 70
     1
102
RTVSPropertyOp22
 70
     1
102
RTVSPropertyOp23
 70
     1
102
RTVSPropertyOp24
 70
     1
102
RTVSPropertyOp25
 70
     1
102
RTVSPropertyOp26
 70
     1
102
RTVSPropertyOp27
 70
     1
102
RTVSPropertyOp28
 70
     1
102
RTVSPropertyOp29
 70
     1
102
RTVSPropertyOp30
 70
     1
102
RTVSPropertyOp31
 70
     1
102
RTVSPropertyOp32
 70
     1
  0
XRECORD
  5
70
102
{ACAD_REACTORS
330
6F
102
}
330
6F
100
AcDbXrecord
280
     1
102
RTVSPropertyOp0
 70
     1
102
RTVSPropertyOp1
 70
     1
102
RTVSPropertyOp2
 70
     1
102
RTVSPropertyOp3
 70
     1
102
RTVSPropertyOp4
 70
     1
102
RTVSPropertyOp5
 70
     1
102
RTVSPropertyOp6
 70
     1
102
RTVSPropertyOp7
 70
     1
102
RTVSPropertyOp8
 70
     1
102
RTVSPropertyOp9
 70
     1
102
RTVSPropertyOp10
 70
     1
102
RTVSPropertyOp11
 70
     1
102
RTVSPropertyOp12
 70
     1
102
RTVSPropertyOp13
 70
     1
102
RTVSPropertyOp14
 70
     1
102
RTVSPropertyOp15
 70
     1
102
RTVSPropertyOp16
 70
     1
102
RTVSPropertyOp17
 70
     1
102
RTVSPropertyOp18
 70
     1
102
RTVSPropertyOp19
 70
     1
102
RTVSPropertyOp20
 70
     1
102
RTVSPropertyOp21
 70
     1
102
RTVSPropertyOp22
 70
     1
102
RTVSPropertyOp23
 70
     1
102
RTVSPropertyOp24
 70
     1
102
RTVSPropertyOp25
 70
     1
102
RTVSPropertyOp26
 70
     1
102
RTVSPropertyOp27
 70
     1
102
RTVSPropertyOp28
 70
     1
102
RTVSPropertyOp29
 70
     1
102
RTVSPropertyOp30
 70
     1
102
RTVSPropertyOp31
 70
     1
102
RTVSPropertyOp32
 70
     1
  0
XRECORD
  5
72
102
{ACAD_REACTORS
330
71
102
}
330
71
100
AcDbXrecord
280
     1
102
RTVSPropertyOp0
 70
     1
102
RTVSPropertyOp1
 70
     1
102
RTVSPropertyOp2
 70
     1
102
RTVSPropertyOp3
 70
     1
102
RTVSPropertyOp4
 70
     1
102
RTVSPropertyOp5
 70
     1
102
RTVSPropertyOp6
 70
     1
102
RTVSPropertyOp7
 70
     1
102
RTVSPropertyOp8
 70
     1
102
RTVSPropertyOp9
 70
     1
102
RTVSPropertyOp10
 70
     1
102
RTVSPropertyOp11
 70
     1
102
RTVSPropertyOp12
 70
     1
102
RTVSPropertyOp13
 70
     1
102
RTVSPropertyOp14
 70
     1
102
RTVSPropertyOp15
 70
     1
102
RTVSPropertyOp16
 70
     1
102
RTVSPropertyOp17
 70
     1
102
RTVSPropertyOp18
 70
     1
102
RTVSPropertyOp19
 70
     1
102
RTVSPropertyOp20
 70
     1
102
RTVSPropertyOp21
 70
     1
102
RTVSPropertyOp22
 70
     1
102
RTVSPropertyOp23
 70
     1
102
RTVSPropertyOp24
 70
     1
102
RTVSPropertyOp25
 70
     1
102
RTVSPropertyOp26
 70
     1
102
RTVSPropertyOp27
 70
     1
102
RTVSPropertyOp28
 70
     1
102
RTVSPropertyOp29
 70
     1
102
RTVSPropertyOp30
 70
     1
102
RTVSPropertyOp31
 70
     1
102
RTVSPropertyOp32
 70
     1
  0
XRECORD
  5
86
102
{ACAD_REACTORS
330
85
102
}
330
85
100
AcDbXrecord
280
     1
102
RTVSPropertyOp0
 70
     1
102
RTVSPropertyOp1
 70
     1
102
RTVSPropertyOp2
 70
     1
102
RTVSPropertyOp3
 70
     1
102
RTVSPropertyOp4
 70
     1
102
RTVSPropertyOp5
 70
     1
102
RTVSPropertyOp6
 70
     1
102
RTVSPropertyOp7
 70
     1
102
RTVSPropertyOp8
 70
     1
102
RTVSPropertyOp9
 70
     1
102
RTVSPropertyOp10
 70
     1
102
RTVSPropertyOp11
 70
     1
102
RTVSPropertyOp12
 70
     1
102
RTVSPropertyOp13
 70
     1
102
RTVSPropertyOp14
 70
     1
102
RTVSPropertyOp15
 70
     1
102
RTVSPropertyOp16
 70
     1
102
RTVSPropertyOp17
 70
     1
102
RTVSPropertyOp18
 70
     1
102
RTVSPropertyOp19
 70
     1
102
RTVSPropertyOp20
 70
     1
102
RTVSPropertyOp21
 70
     1
102
RTVSPropertyOp22
 70
     1
102
RTVSPropertyOp23
 70
     1
102
RTVSPropertyOp24
 70
     1
102
RTVSPropertyOp25
 70
     1
102
RTVSPropertyOp26
 70
     1
102
RTVSPropertyOp27
 70
     1
102
RTVSPropertyOp28
 70
     1
102
RTVSPropertyOp29
 70
     1
102
RTVSPropertyOp30
 70
     1
102
RTVSPropertyOp31
 70
     1
102
RTVSPropertyOp32
 70
     1
  0
XRECORD
  5
7C
102
{ACAD_REACTORS
330
7B
102
}
330
7B
100
AcDbXrecord
280
     1
102
RTVSPropertyOp0
 70
     1
102
RTVSPropertyOp1
 70
     1
102
RTVSPropertyOp2
 70
     1
102
RTVSPropertyOp3
 70
     1
102
RTVSPropertyOp4
 70
     1
102
RTVSPropertyOp5
 70
     1
102
RTVSPropertyOp6
 70
     1
102
RTVSPropertyOp7
 70
     1
102
RTVSPropertyOp8
 70
     1
102
RTVSPropertyOp9
 70
     1
102
RTVSPropertyOp10
 70
     1
102
RTVSPropertyOp11
 70
     1
102
RTVSPropertyOp12
 70
     1
102
RTVSPropertyOp13
 70
     1
102
RTVSPropertyOp14
 70
     1
102
RTVSPropertyOp15
 70
     1
102
RTVSPropertyOp16
 70
     1
102
RTVSPropertyOp17
 70
     1
102
RTVSPropertyOp18
 70
     1
102
RTVSPropertyOp19
 70
     1
102
RTVSPropertyOp20
 70
     1
102
RTVSPropertyOp21
 70
     1
102
RTVSPropertyOp22
 70
     1
102
RTVSPropertyOp23
 70
     1
102
RTVSPropertyOp24
 70
     1
102
RTVSPropertyOp25
 70
     1
102
RTVSPropertyOp26
 70
     1
102
RTVSPropertyOp27
 70
     1
102
RTVSPropertyOp28
 70
     1
102
RTVSPropertyOp29
 70
     1
102
RTVSPropertyOp30
 70
     1
102
RTVSPropertyOp31
 70
     1
102
RTVSPropertyOp32
 70
     1
  0
XRECORD
  5
84
102
{ACAD_REACTORS
330
83
102
}
330
83
100
AcDbXrecord
280
     1
102
RTVSPropertyOp0
 70
     1
102
RTVSPropertyOp1
 70
     1
102
RTVSPropertyOp2
 70
     1
102
RTVSPropertyOp3
 70
     1
102
RTVSPropertyOp4
 70
     1
102
RTVSPropertyOp5
 70
     1
102
RTVSPropertyOp6
 70
     1
102
RTVSPropertyOp7
 70
     1
102
RTVSPropertyOp8
 70
     1
102
RTVSPropertyOp9
 70
     1
102
RTVSPropertyOp10
 70
     1
102
RTVSPropertyOp11
 70
     1
102
RTVSPropertyOp12
 70
     1
102
RTVSPropertyOp13
 70
     1
102
RTVSPropertyOp14
 70
     1
102
RTVSPropertyOp15
 70
     1
102
RTVSPropertyOp16
 70
     1
102
RTVSPropertyOp17
 70
     1
102
RTVSPropertyOp18
 70
     1
102
RTVSPropertyOp19
 70
     1
102
RTVSPropertyOp20
 70
     1
102
RTVSPropertyOp21
 70
     1
102
RTVSPropertyOp22
 70
     1
102
RTVSPropertyOp23
 70
     1
102
RTVSPropertyOp24
 70
     1
102
RTVSPropertyOp25
 70
     1
102
RTVSPropertyOp26
 70
     1
102
RTVSPropertyOp27
 70
     1
102
RTVSPropertyOp28
 70
     1
102
RTVSPropertyOp29
 70
     1
102
RTVSPropertyOp30
 70
     1
102
RTVSPropertyOp31
 70
     1
102
RTVSPropertyOp32
 70
     1
  0
ENDSEC
  0
EOF
