<?xml version="1.0" encoding="UTF-8"?>
<!DOCTYPE svg PUBLIC "-//W3C//DTD SVG 1.1//EN" "http://www.w3.org/Graphics/SVG/1.1/DTD/svg11.dtd">
<!-- Creator: CorelDRAW X6 -->
<svg xmlns="http://www.w3.org/2000/svg" xml:space="preserve" width="200mm" height="200mm" version="1.1" shape-rendering="geometricPrecision" text-rendering="geometricPrecision" image-rendering="optimizeQuality" fill-rule="evenodd" clip-rule="evenodd"
viewBox="0 0 20000 20000"
 xmlns:xlink="http://www.w3.org/1999/xlink">
 <g id="Layer_x0020_1">
  <metadata id="CorelCorpID_0Corel-Layer"/>
  <g id="_827116880">
   <line fill="none" fill-rule="nonzero" stroke="blue" stroke-width="52.92" stroke-linecap="round" stroke-linejoin="round" x1="8200" y1="6340" x2="9122" y2= "6340" />
   <line fill="none" fill-rule="nonzero" stroke="blue" stroke-width="52.92" stroke-linecap="round" stroke-linejoin="round" x1="9122" y1="6899" x2="8200" y2= "6899" />
   <line fill="none" fill-rule="nonzero" stroke="blue" stroke-width="52.92" stroke-linecap="round" stroke-linejoin="round" x1="8200" y1="6617" x2="9122" y2= "6617" />
   <line fill="none" fill-rule="nonzero" stroke="blue" stroke-width="52.92" stroke-linecap="round" stroke-linejoin="round" x1="9191" y1="7811" x2="8131" y2= "7811" />
   <line fill="none" fill-rule="nonzero" stroke="blue" stroke-width="52.92" stroke-linecap="round" stroke-linejoin="round" x1="8131" y1="7668" x2="9191" y2= "7668" />
   <line fill="none" fill-rule="nonzero" stroke="blue" stroke-width="52.92" stroke-linecap="round" stroke-linejoin="round" x1="9191" y1="8493" x2="8131" y2= "8493" />
   <line fill="none" fill-rule="nonzero" stroke="blue" stroke-width="52.92" stroke-linecap="round" stroke-linejoin="round" x1="8131" y1="8350" x2="9191" y2= "8350" />
   <path fill="none" fill-rule="nonzero" stroke="blue" stroke-width="52.92" stroke-linecap="round" stroke-linejoin="round" d="M8385 6469c0,-30 -49,-53 -110,-53 -61,0 -110,24 -110,53 0,30 49,53 110,53 61,0 110,-24 110,-53"/>
   <path fill="none" fill-rule="nonzero" stroke="blue" stroke-width="52.92" stroke-linecap="round" stroke-linejoin="round" d="M8416 6739c0,-29 -59,-53 -132,-53 -73,0 -132,24 -132,53 0,29 59,53 132,53 73,0 132,-24 132,-53"/>
   <path fill="none" fill-rule="nonzero" stroke="blue" stroke-width="52.92" stroke-linecap="round" stroke-linejoin="round" d="M8415 6988c-40,0 -74,33 -74,74l0 438c0,40 33,74 74,74 40,0 74,-33 74,-74l0 -438c0,-40 -33,-74 -74,-74z"/>
   <path fill="none" fill-rule="nonzero" stroke="blue" stroke-width="52.92" stroke-linecap="round" stroke-linejoin="round" d="M8415 7857c-40,0 -74,33 -74,74l0 289c0,40 33,74 74,74 40,0 74,-33 74,-74l0 -289c0,-40 -33,-74 -74,-74z"/>
   <path fill="none" fill-rule="nonzero" stroke="blue" stroke-width="52.92" stroke-linecap="round" stroke-linejoin="round" d="M8399 8558c-31,0 -57,26 -57,57l0 98c0,31 26,57 57,57 31,0 57,-26 57,-57l0 -98c0,-31 -26,-57 -57,-57z"/>
   <path fill="none" fill-rule="nonzero" stroke="blue" stroke-width="52.92" stroke-linecap="round" stroke-linejoin="round" d="M9359 5209c-1,127 -32,224 -144,255 -63,267 -40,435 -78,522 -163,289 -647,323 -858,73 -18,-21 -34,-44 -48,-70m135 -339l0 0c-50,-167 -351,-323 0,0zm643 -5l0 0c41,-104 97,-178 205,-182l-205 182z"/>
   <path fill="none" fill-rule="nonzero" stroke="blue" stroke-width="52.92" stroke-linecap="round" stroke-linejoin="round" d="M8020 4527c-43,100 -23,165 18,272 26,66 -5,199 -18,278"/>
   <path fill="none" fill-rule="nonzero" stroke="blue" stroke-width="52.92" stroke-linecap="round" stroke-linejoin="round" d="M9359 4527c30,64 25,127 -17,257 -29,75 0,190 7,265"/>
   <path fill="none" fill-rule="nonzero" stroke="blue" stroke-width="52.92" stroke-linecap="round" stroke-linejoin="round" d="M8366 5651c-26,-87 -130,-174 -219,-202"/>
   <path fill="none" fill-rule="nonzero" stroke="blue" stroke-width="52.92" stroke-linecap="round" stroke-linejoin="round" d="M9010 5646c41,-104 97,-178 205,-182"/>
   <path fill="none" fill-rule="nonzero" stroke="blue" stroke-width="52.92" stroke-linecap="round" stroke-linejoin="round" d="M8232 5483c52,118 80,246 99,377 119,150 528,195 703,-7 12,-126 56,-248 96,-370"/>
   <path fill="none" fill-rule="nonzero" stroke="blue" stroke-width="52.92" stroke-linecap="round" stroke-linejoin="round" d="M9010 5646c-14,102 -625,95 -643,5"/>
   <line fill="none" fill-rule="nonzero" stroke="blue" stroke-width="52.92" stroke-linecap="round" stroke-linejoin="round" x1="8388" y1="5908" x2="8388" y2= "5681" />
   <line fill="none" fill-rule="nonzero" stroke="blue" stroke-width="52.92" stroke-linecap="round" stroke-linejoin="round" x1="8459" y1="5950" x2="8461" y2= "5700" />
   <line fill="none" fill-rule="nonzero" stroke="blue" stroke-width="52.92" stroke-linecap="round" stroke-linejoin="round" x1="8534" y1="5967" x2="8535" y2= "5713" />
   <path fill="none" fill-rule="nonzero" stroke="blue" stroke-width="52.92" stroke-linecap="round" stroke-linejoin="round" d="M8608 5980c0,-5 1,-262 1,-262"/>
   <line fill="none" fill-rule="nonzero" stroke="blue" stroke-width="52.92" stroke-linecap="round" stroke-linejoin="round" x1="8684" y1="5989" x2="8683" y2= "5721" />
   <line fill="none" fill-rule="nonzero" stroke="blue" stroke-width="52.92" stroke-linecap="round" stroke-linejoin="round" x1="8761" y1="5979" x2="8760" y2= "5720" />
   <line fill="none" fill-rule="nonzero" stroke="blue" stroke-width="52.92" stroke-linecap="round" stroke-linejoin="round" x1="8831" y1="5968" x2="8829" y2= "5713" />
   <line fill="none" fill-rule="nonzero" stroke="blue" stroke-width="52.92" stroke-linecap="round" stroke-linejoin="round" x1="8911" y1="5938" x2="8908" y2= "5703" />
   <line fill="none" fill-rule="nonzero" stroke="blue" stroke-width="52.92" stroke-linecap="round" stroke-linejoin="round" x1="8982" y1="5898" x2="8979" y2= "5679" />
   <path fill="none" fill-rule="nonzero" stroke="blue" stroke-width="52.92" stroke-linecap="round" stroke-linejoin="round" d="M8977 5790c-201,88 -380,94 -587,0"/>
   <path fill="none" fill-rule="nonzero" stroke="blue" stroke-width="52.92" stroke-linecap="round" stroke-linejoin="round" d="M8704 5203l0 0 0 291c43,65 58,70 83,69 32,0 54,-48 48,-104 -16,-176 -69,-212 -131,-257z"/>
   <path fill="none" fill-rule="nonzero" stroke="blue" stroke-width="52.92" stroke-linecap="round" stroke-linejoin="round" d="M8660 5202l0 0 0 291c-43,65 -58,70 -83,69 -32,0 -54,-48 -48,-104 16,-176 69,-212 131,-257z"/>
   <path fill="none" fill-rule="nonzero" stroke="blue" stroke-width="52.92" stroke-linecap="round" stroke-linejoin="round" d="M9218 4963l0 0c14,52 4,118 -14,176 -23,73 -76,116 -165,123 -103,3 -168,-57 -212,-153 -12,-29 -20,-77 -7,-131 7,-27 41,-68 75,-88 61,-36 301,-16 324,73z"/>
   <path fill="none" fill-rule="nonzero" stroke="blue" stroke-width="52.92" stroke-linecap="round" stroke-linejoin="round" d="M8156 4969c-14,52 -4,118 14,176 23,73 76,116 165,123 103,3 168,-57 212,-153 12,-29 20,-77 7,-131 -7,-27 -41,-68 -75,-88 -61,-36 -301,-16 -324,73z"/>
   <line fill="none" stroke="blue" stroke-width="52.92" stroke-linecap="round" stroke-linejoin="round" x1="9004" y1="8865" x2="8342" y2= "8865" />
   <circle fill="none" stroke="black" stroke-width="52.92" stroke-linecap="round" stroke-linejoin="round" cx="10500" cy="5000" r="300"/>
   <circle fill="none" stroke="black" stroke-width="52.92" stroke-linecap="round" stroke-linejoin="round" cx="10500" cy="6500" r="300"/>
   <path fill="none" stroke="black" stroke-width="52.92" stroke-linecap="round" stroke-linejoin="round" d="M9800 6700l0 -525 -690 0 -10 164 22 0c78,0 141,63 141,141 0,69 -50,127 -116,139 66,12 116,70 116,139 0,78 -63,141 -141,141l-22 0 0 769 91 0c39,0 72,32 72,72 0,39 -32,72 -72,72l-91 0 0 539 91 0c39,0 72,32 72,72 0,39 -32,72 -72,72l-91 0 0 372 -95 0 0 5173 39 0c30,0 59,20 64,44l151 718c10,46 -17,84 -60,84l-1049 0c-43,0 -70,-39 -60,-84l151 -718c5,-25 34,-44 64,-44l38 0 0 -5173 -87 0 0 -372 -124 0c-39,0 -72,-32 -72,-72 0,-39 32,-72 72,-72l124 0 0 -539 -124 0c-39,0 -72,-32 -72,-72 0,-39 32,-72 72,-72l124 0 0 -769 -55 0c-78,0 -141,-63 -141,-141 0,-69 50,-127 116,-139 -66,-12 -116,-70 -116,-139 0,-78 63,-141 141,-141l55 0 0 -312c-8,-12 -16,-25 -23,-38 -40,-102 -6,-268 -84,-540 -108,-42 -141,-171 -127,-372 -319,-437 -201,-1083 652,-1093 854,-1 1002,685 677,1064 6,54 10,105 10,152l441 0 0 -400c0,-276 224,-500 500,-500l400 0c276,0 500,224 500,500l0 1900c0,276 -224,500 -500,500l-400 0c-276,0 -500,-224 -500,-500z"/>
   <circle fill="none" stroke="black" stroke-width="52.92" stroke-linecap="round" stroke-linejoin="round" cx="10500" cy="5000" r="300"/>
   <circle fill="none" stroke="black" stroke-width="52.92" stroke-linecap="round" stroke-linejoin="round" cx="10500" cy="6500" r="300"/>
  </g>
  <circle fill="none" stroke="black" stroke-width="52.92" stroke-linecap="round" stroke-linejoin="round" cx="10500" cy="5750" r="150"/>
 </g>
</svg>
