  0
SECTION
  2
HEADER
  9
$ACADVER
  1
AC1021
  9
$ACADMAINTVER
 70
    25
  9
$DWGCODEPAGE
  3
ANSI_1252
  9
$INSBASE
 10
0.0
 20
0.0
 30
0.0
  9
$EXTMIN
 10
-12.16256
 20
-14.28216
 30
0.0
  9
$EXTMAX
 10
-1.11424
 20
-10.61661
 30
0.0
  9
$LIMMIN
 10
0.0
 20
0.0
  9
$LIMMAX
 10
12.0
 20
9.0
  9
$ORTHOMODE
 70
     0
  9
$REGENMODE
 70
     1
  9
$FILLMODE
 70
     1
  9
$QTEXTMODE
 70
     0
  9
$MIRRTEXT
 70
     1
  9
$LTSCALE
 40
1.0
  9
$ATTMODE
 70
     1
  9
$TEXTSIZE
 40
0.2
  9
$TRACEWID
 40
0.05
  9
$TEXTSTYLE
  7
Standard
  9
$CLAYER
  8
0
  9
$CELTYPE
  6
ByLayer
  9
$CECOLOR
 62
   256
  9
$CELTSCALE
 40
1.0
  9
$DISPSILH
 70
     0
  9
$DIMSCALE
 40
1.0
  9
$DIMASZ
 40
0.18
  9
$DIMEXO
 40
0.0625
  9
$DIMDLI
 40
0.38
  9
$DIMRND
 40
0.0
  9
$DIMDLE
 40
0.0
  9
$DIMEXE
 40
0.18
  9
$DIMTP
 40
0.0
  9
$DIMTM
 40
0.0
  9
$DIMTXT
 40
0.18
  9
$DIMCEN
 40
0.09
  9
$DIMTSZ
 40
0.0
  9
$DIMTOL
 70
     0
  9
$DIMLIM
 70
     0
  9
$DIMTIH
 70
     1
  9
$DIMTOH
 70
     1
  9
$DIMSE1
 70
     0
  9
$DIMSE2
 70
     0
  9
$DIMTAD
 70
     0
  9
$DIMZIN
 70
     0
  9
$DIMBLK
  1

  9
$DIMASO
 70
     1
  9
$DIMSHO
 70
     1
  9
$DIMPOST
  1

  9
$DIMAPOST
  1

  9
$DIMALT
 70
     0
  9
$DIMALTD
 70
     2
  9
$DIMALTF
 40
25.4
  9
$DIMLFAC
 40
1.0
  9
$DIMTOFL
 70
     0
  9
$DIMTVP
 40
0.0
  9
$DIMTIX
 70
     0
  9
$DIMSOXD
 70
     0
  9
$DIMSAH
 70
     0
  9
$DIMBLK1
  1

  9
$DIMBLK2
  1

  9
$DIMSTYLE
  2
Standard
  9
$DIMCLRD
 70
     0
  9
$DIMCLRE
 70
     0
  9
$DIMCLRT
 70
     0
  9
$DIMTFAC
 40
1.0
  9
$DIMGAP
 40
0.09
  9
$DIMJUST
 70
     0
  9
$DIMSD1
 70
     0
  9
$DIMSD2
 70
     0
  9
$DIMTOLJ
 70
     1
  9
$DIMTZIN
 70
     0
  9
$DIMALTZ
 70
     0
  9
$DIMALTTZ
 70
     0
  9
$DIMUPT
 70
     0
  9
$DIMDEC
 70
     4
  9
$DIMTDEC
 70
     4
  9
$DIMALTU
 70
     2
  9
$DIMALTTD
 70
     2
  9
$DIMTXSTY
  7
Standard
  9
$DIMAUNIT
 70
     0
  9
$DIMADEC
 70
     0
  9
$DIMALTRND
 40
0.0
  9
$DIMAZIN
 70
     0
  9
$DIMDSEP
 70
    46
  9
$DIMATFIT
 70
     3
  9
$DIMFRAC
 70
     0
  9
$DIMLDRBLK
  1

  9
$DIMLUNIT
 70
     2
  9
$DIMLWD
 70
    -2
  9
$DIMLWE
 70
    -2
  9
$DIMTMOVE
 70
     0
  9
$DIMFXL
 40
1.0
  9
$DIMFXLON
 70
     0
  9
$DIMJOGANG
 40
0.7853981633974483
  9
$DIMTFILL
 70
     0
  9
$DIMTFILLCLR
 70
     0
  9
$DIMARCSYM
 70
     0
  9
$DIMLTYPE
  6

  9
$DIMLTEX1
  6

  9
$DIMLTEX2
  6

  9
$LUNITS
 70
     2
  9
$LUPREC
 70
     4
  9
$SKETCHINC
 40
0.1
  9
$FILLETRAD
 40
0.5
  9
$AUNITS
 70
     0
  9
$AUPREC
 70
     0
  9
$MENU
  1
.
  9
$ELEVATION
 40
0.0
  9
$PELEVATION
 40
0.0
  9
$THICKNESS
 40
0.0
  9
$LIMCHECK
 70
     0
  9
$CHAMFERA
 40
0.5
  9
$CHAMFERB
 40
0.5
  9
$CHAMFERC
 40
1.0
  9
$CHAMFERD
 40
0.0
  9
$SKPOLY
 70
     0
  9
$TDCREATE
 40
2460555.002069248
  9
$TDUCREATE
 40
2460554.960402581
  9
$TDUPDATE
 40
2460555.002069271
  9
$TDUUPDATE
 40
2460554.960402604
  9
$TDINDWG
 40
0.0000000116
  9
$TDUSRTIMER
 40
0.0000000116
  9
$USRTIMER
 70
     1
  9
$ANGBASE
 50
0.0
  9
$ANGDIR
 70
     0
  9
$PDMODE
 70
     0
  9
$PDSIZE
 40
0.0
  9
$PLINEWID
 40
0.0
  9
$SPLFRAME
 70
     0
  9
$SPLINETYPE
 70
     6
  9
$SPLINESEGS
 70
     8
  9
$HANDSEED
  5
6C
  9
$SURFTAB1
 70
     6
  9
$SURFTAB2
 70
     6
  9
$SURFTYPE
 70
     6
  9
$SURFU
 70
     6
  9
$SURFV
 70
     6
  9
$UCSBASE
  2

  9
$UCSNAME
  2

  9
$UCSORG
 10
0.0
 20
0.0
 30
0.0
  9
$UCSXDIR
 10
1.0
 20
0.0
 30
0.0
  9
$UCSYDIR
 10
0.0
 20
1.0
 30
0.0
  9
$UCSORTHOREF
  2

  9
$UCSORTHOVIEW
 70
     0
  9
$UCSORGTOP
 10
0.0
 20
0.0
 30
0.0
  9
$UCSORGBOTTOM
 10
0.0
 20
0.0
 30
0.0
  9
$UCSORGLEFT
 10
0.0
 20
0.0
 30
0.0
  9
$UCSORGRIGHT
 10
0.0
 20
0.0
 30
0.0
  9
$UCSORGFRONT
 10
0.0
 20
0.0
 30
0.0
  9
$UCSORGBACK
 10
0.0
 20
0.0
 30
0.0
  9
$PUCSBASE
  2

  9
$PUCSNAME
  2

  9
$PUCSORG
 10
0.0
 20
0.0
 30
0.0
  9
$PUCSXDIR
 10
1.0
 20
0.0
 30
0.0
  9
$PUCSYDIR
 10
0.0
 20
1.0
 30
0.0
  9
$PUCSORTHOREF
  2

  9
$PUCSORTHOVIEW
 70
     0
  9
$PUCSORGTOP
 10
0.0
 20
0.0
 30
0.0
  9
$PUCSORGBOTTOM
 10
0.0
 20
0.0
 30
0.0
  9
$PUCSORGLEFT
 10
0.0
 20
0.0
 30
0.0
  9
$PUCSORGRIGHT
 10
0.0
 20
0.0
 30
0.0
  9
$PUCSORGFRONT
 10
0.0
 20
0.0
 30
0.0
  9
$PUCSORGBACK
 10
0.0
 20
0.0
 30
0.0
  9
$USERI1
 70
     0
  9
$USERI2
 70
     0
  9
$USERI3
 70
     0
  9
$USERI4
 70
     0
  9
$USERI5
 70
     0
  9
$USERR1
 40
0.0
  9
$USERR2
 40
0.0
  9
$USERR3
 40
0.0
  9
$USERR4
 40
0.0
  9
$USERR5
 40
0.0
  9
$WORLDVIEW
 70
     1
  9
$SHADEDGE
 70
     3
  9
$SHADEDIF
 70
    70
  9
$TILEMODE
 70
     1
  9
$MAXACTVP
 70
    64
  9
$PINSBASE
 10
0.0
 20
0.0
 30
0.0
  9
$PLIMCHECK
 70
     0
  9
$PEXTMIN
 10
1.000000000000000E+20
 20
1.000000000000000E+20
 30
1.000000000000000E+20
  9
$PEXTMAX
 10
-1.000000000000000E+20
 20
-1.000000000000000E+20
 30
-1.000000000000000E+20
  9
$PLIMMIN
 10
0.0
 20
0.0
  9
$PLIMMAX
 10
12.0
 20
9.0
  9
$UNITMODE
 70
     0
  9
$VISRETAIN
 70
     1
  9
$PLINEGEN
 70
     0
  9
$PSLTSCALE
 70
     1
  9
$TREEDEPTH
 70
  3020
  9
$CMLSTYLE
  2
Standard
  9
$CMLJUST
 70
     0
  9
$CMLSCALE
 40
1.0
  9
$PROXYGRAPHICS
 70
     1
  9
$MEASUREMENT
 70
     0
  9
$CELWEIGHT
370
    -1
  9
$ENDCAPS
280
     0
  9
$JOINSTYLE
280
     0
  9
$LWDISPLAY
290
     0
  9
$INSUNITS
 70
     5
  9
$HYPERLINKBASE
  1

  9
$STYLESHEET
  1

  9
$XEDIT
290
     1
  9
$CEPSNTYPE
380
     0
  9
$PSTYLEMODE
290
     1
  9
$FINGERPRINTGUID
  2
{85FE6E46-CE00-45C1-9ED2-0EA4509F0B27}
  9
$VERSIONGUID
  2
{FAEB1C32-E019-11D5-929B-00C0DF256EC4}
  9
$EXTNAMES
290
     1
  9
$PSVPSCALE
 40
0.0
  9
$OLESTARTUP
290
     0
  9
$SORTENTS
280
   127
  9
$INDEXCTL
280
     0
  9
$HIDETEXT
280
     1
  9
$XCLIPFRAME
290
     0
  9
$HALOGAP
280
     0
  9
$OBSCOLOR
 70
   257
  9
$OBSLTYPE
280
     0
  9
$INTERSECTIONDISPLAY
280
     0
  9
$INTERSECTIONCOLOR
 70
   257
  9
$DIMASSOC
280
     2
  9
$PROJECTNAME
  1

  9
$CAMERADISPLAY
290
     0
  9
$LENSLENGTH
 40
50.0
  9
$CAMERAHEIGHT
 40
0.0
  9
$STEPSPERSEC
 40
2.0
  9
$STEPSIZE
 40
6.0
  9
$3DDWFPREC
 40
2.0
  9
$PSOLWIDTH
 40
0.25
  9
$PSOLHEIGHT
 40
4.0
  9
$LOFTANG1
 40
1.570796326794897
  9
$LOFTANG2
 40
1.570796326794897
  9
$LOFTMAG1
 40
0.0
  9
$LOFTMAG2
 40
0.0
  9
$LOFTPARAM
 70
     7
  9
$LOFTNORMALS
280
     1
  9
$LATITUDE
 40
37.795
  9
$LONGITUDE
 40
-122.394
  9
$NORTHDIRECTION
 40
0.0
  9
$TIMEZONE
 70
 -8000
  9
$LIGHTGLYPHDISPLAY
280
     1
  9
$TILEMODELIGHTSYNCH
280
     1
  9
$SOLIDHIST
280
     1
  9
$SHOWHIST
280
     1
  9
$DWFFRAME
280
     2
  9
$DGNFRAME
280
     2
  9
$REALWORLDSCALE
290
     1
  9
$INTERFERECOLOR
 62
   256
  9
$CSHADOW
280
     0
  9
$SHADOWPLANELOCATION
 40
0.0
  0
ENDSEC
  0
SECTION
  2
CLASSES
  0
CLASS
  1
ACDBDICTIONARYWDFLT
  2
AcDbDictionaryWithDefault
  3
ObjectDBX Classes
 90
        0
 91
        4
280
     0
281
     0
  0
CLASS
  1
VISUALSTYLE
  2
AcDbVisualStyle
  3
ObjectDBX Classes
 90
     4095
 91
        4
280
     0
281
     0
  0
CLASS
  1
MATERIAL
  2
AcDbMaterial
  3
ObjectDBX Classes
 90
     1153
 91
        4
280
     0
281
     0
  0
ENDSEC
  0
SECTION
  2
TABLES
  0
TABLE
  2
VPORT
  5
8
330
0
100
AcDbSymbolTable
 70
     1
  0
VPORT
  5
29
330
8
100
AcDbSymbolTableRecord
100
AcDbViewportTableRecord
  2
*Active
 70
     0
 10
0.0
 20
0.0
 11
1.0
 21
1.0
 12
10.42990654205607
 22
4.5
 13
0.0
 23
0.0
 14
0.5
 24
0.5
 15
0.5
 25
0.5
 16
0.0
 26
0.0
 36
1.0
 17
0.0
 27
0.0
 37
0.0
 40
9.0
 41
1.972972972850329
 42
50.0
 43
0.0
 44
0.0
 50
0.0
 51
0.0
 71
     0
 72
   100
 73
     1
 74
     3
 75
     0
 76
     0
 77
     0
 78
     0
281
     0
 65
     1
110
0.0
120
0.0
130
0.0
111
1.0
121
0.0
131
0.0
112
0.0
122
1.0
132
0.0
 79
     0
146
0.0
 60
     3
 61
     5
292
     1
282
     1
141
0.0
142
0.0
 63
   250
  0
ENDTAB
  0
TABLE
  2
LTYPE
  5
5
330
0
100
AcDbSymbolTable
 70
     1
  0
LTYPE
  5
14
330
5
100
AcDbSymbolTableRecord
100
AcDbLinetypeTableRecord
  2
ByBlock
 70
     0
  3

 72
    65
 73
     0
 40
0.0
  0
LTYPE
  5
15
330
5
100
AcDbSymbolTableRecord
100
AcDbLinetypeTableRecord
  2
ByLayer
 70
     0
  3

 72
    65
 73
     0
 40
0.0
  0
LTYPE
  5
16
330
5
100
AcDbSymbolTableRecord
100
AcDbLinetypeTableRecord
  2
Continuous
 70
     0
  3
Solid line
 72
    65
 73
     0
 40
0.0
  0
ENDTAB
  0
TABLE
  2
LAYER
  5
2
330
0
100
AcDbSymbolTable
 70
     2
  0
LAYER
  5
10
330
2
100
AcDbSymbolTableRecord
100
AcDbLayerTableRecord
  2
0
 70
     0
 62
     7
  6
Continuous
370
    -3
390
F
347
3E
  0
LAYER
  5
40
330
2
100
AcDbSymbolTableRecord
100
AcDbLayerTableRecord
  2
Layer 1
 70
     0
 62
     7
  6
Continuous
370
    -3
390
F
347
3E
  0
ENDTAB
  0
TABLE
  2
STYLE
  5
3
330
0
100
AcDbSymbolTable
 70
     1
  0
STYLE
  5
11
330
3
100
AcDbSymbolTableRecord
100
AcDbTextStyleTableRecord
  2
Standard
 70
     0
 40
0.0
 41
1.0
 50
0.0
 71
     0
 42
0.2
  3
txt
  4

  0
ENDTAB
  0
TABLE
  2
VIEW
  5
6
330
0
100
AcDbSymbolTable
 70
     0
  0
ENDTAB
  0
TABLE
  2
UCS
  5
7
330
0
100
AcDbSymbolTable
 70
     0
  0
ENDTAB
  0
TABLE
  2
APPID
  5
9
330
0
100
AcDbSymbolTable
 70
     2
  0
APPID
  5
12
330
9
100
AcDbSymbolTableRecord
100
AcDbRegAppTableRecord
  2
ACAD
 70
     0
  0
APPID
  5
3F
330
9
100
AcDbSymbolTableRecord
100
AcDbRegAppTableRecord
  2
ODA
 70
     0
  0
ENDTAB
  0
TABLE
  2
DIMSTYLE
  5
A
330
0
100
AcDbSymbolTable
 70
     1
100
AcDbDimStyleTable
  0
DIMSTYLE
105
27
330
A
100
AcDbSymbolTableRecord
100
AcDbDimStyleTableRecord
  2
Standard
 70
     0
178
     0
340
11
  0
ENDTAB
  0
TABLE
  2
BLOCK_RECORD
  5
1
330
0
100
AcDbSymbolTable
 70
     1
  0
BLOCK_RECORD
  5
1F
330
1
100
AcDbSymbolTableRecord
100
AcDbBlockTableRecord
  2
*Model_Space
340
22
 70
     0
280
     1
281
     0
  0
BLOCK_RECORD
  5
1B
330
1
100
AcDbSymbolTableRecord
100
AcDbBlockTableRecord
  2
*Paper_Space
340
1E
 70
     0
280
     1
281
     0
  0
BLOCK_RECORD
  5
23
330
1
100
AcDbSymbolTableRecord
100
AcDbBlockTableRecord
  2
*Paper_Space0
340
26
 70
     0
280
     1
281
     0
  0
ENDTAB
  0
ENDSEC
  0
SECTION
  2
BLOCKS
  0
BLOCK
  5
20
330
1F
100
AcDbEntity
  8
0
100
AcDbBlockBegin
  2
*Model_Space
 70
     0
 10
0.0
 20
0.0
 30
0.0
  3
*Model_Space
  1

  0
ENDBLK
  5
21
330
1F
100
AcDbEntity
  8
0
100
AcDbBlockEnd
  0
BLOCK
  5
1C
330
1B
100
AcDbEntity
 67
     1
  8
0
100
AcDbBlockBegin
  2
*Paper_Space
 70
     0
 10
0.0
 20
0.0
 30
0.0
  3
*Paper_Space
  1

  0
ENDBLK
  5
1D
330
1B
100
AcDbEntity
 67
     1
  8
0
100
AcDbBlockEnd
  0
BLOCK
  5
24
330
23
100
AcDbEntity
  8
0
100
AcDbBlockBegin
  2
*Paper_Space0
 70
     0
 10
0.0
 20
0.0
 30
0.0
  3
*Paper_Space0
  1

  0
ENDBLK
  5
25
330
23
100
AcDbEntity
  8
0
100
AcDbBlockEnd
  0
ENDSEC
  0
SECTION
  2
ENTITIES
  0
SPLINE
  5
41
330
1F
100
AcDbEntity
  8
Layer 1
 62
     5
100
AcDbSpline
210
0.0
220
0.0
230
1.0
 70
    11
 71
     3
 72
   176
 73
   172
 74
     0
 42
0.0000000001
 43
0.0000000001
 12
1.0
 22
0.0
 32
0.0
 13
1.0
 23
0.0
 33
0.0
 40
0.0
 40
0.0
 40
0.0
 40
0.0
 40
0.0227272727272727
 40
0.0227272727272727
 40
0.0227272727272727
 40
0.0227272727272727
 40
0.0454545454545455
 40
0.0454545454545455
 40
0.0454545454545455
 40
0.0454545454545455
 40
0.0681818181818182
 40
0.0681818181818182
 40
0.0681818181818182
 40
0.0681818181818182
 40
0.0909090909090909
 40
0.0909090909090909
 40
0.0909090909090909
 40
0.0909090909090909
 40
0.1136363636363636
 40
0.1136363636363636
 40
0.1136363636363636
 40
0.1136363636363636
 40
0.1363636363636364
 40
0.1363636363636364
 40
0.1363636363636364
 40
0.1363636363636364
 40
0.1590909090909091
 40
0.1590909090909091
 40
0.1590909090909091
 40
0.1590909090909091
 40
0.1818181818181818
 40
0.1818181818181818
 40
0.1818181818181818
 40
0.1818181818181818
 40
0.2045454545454546
 40
0.2045454545454546
 40
0.2045454545454546
 40
0.2045454545454546
 40
0.2272727272727273
 40
0.2272727272727273
 40
0.2272727272727273
 40
0.2272727272727273
 40
0.25
 40
0.25
 40
0.25
 40
0.25
 40
0.2727272727272727
 40
0.2727272727272727
 40
0.2727272727272727
 40
0.2727272727272727
 40
0.2954545454545455
 40
0.2954545454545455
 40
0.2954545454545455
 40
0.2954545454545455
 40
0.3181818181818182
 40
0.3181818181818182
 40
0.3181818181818182
 40
0.3181818181818182
 40
0.3409090909090909
 40
0.3409090909090909
 40
0.3409090909090909
 40
0.3409090909090909
 40
0.3636363636363636
 40
0.3636363636363636
 40
0.3636363636363636
 40
0.3636363636363636
 40
0.3863636363636364
 40
0.3863636363636364
 40
0.3863636363636364
 40
0.3863636363636364
 40
0.4090909090909091
 40
0.4090909090909091
 40
0.4090909090909091
 40
0.4090909090909091
 40
0.4318181818181818
 40
0.4318181818181818
 40
0.4318181818181818
 40
0.4318181818181818
 40
0.4545454545454545
 40
0.4545454545454545
 40
0.4545454545454545
 40
0.4545454545454545
 40
0.4772727272727273
 40
0.4772727272727273
 40
0.4772727272727273
 40
0.4772727272727273
 40
0.5
 40
0.5
 40
0.5
 40
0.5
 40
0.5227272727272727
 40
0.5227272727272727
 40
0.5227272727272727
 40
0.5227272727272727
 40
0.5454545454545454
 40
0.5454545454545454
 40
0.5454545454545454
 40
0.5454545454545454
 40
0.5681818181818182
 40
0.5681818181818182
 40
0.5681818181818182
 40
0.5681818181818182
 40
0.5909090909090909
 40
0.5909090909090909
 40
0.5909090909090909
 40
0.5909090909090909
 40
0.6136363636363636
 40
0.6136363636363636
 40
0.6136363636363636
 40
0.6136363636363636
 40
0.6363636363636364
 40
0.6363636363636364
 40
0.6363636363636364
 40
0.6363636363636364
 40
0.6590909090909091
 40
0.6590909090909091
 40
0.6590909090909091
 40
0.6590909090909091
 40
0.6818181818181818
 40
0.6818181818181818
 40
0.6818181818181818
 40
0.6818181818181818
 40
0.7045454545454546
 40
0.7045454545454546
 40
0.7045454545454546
 40
0.7045454545454546
 40
0.7272727272727273
 40
0.7272727272727273
 40
0.7272727272727273
 40
0.7272727272727273
 40
0.75
 40
0.75
 40
0.75
 40
0.75
 40
0.7727272727272727
 40
0.7727272727272727
 40
0.7727272727272727
 40
0.7727272727272727
 40
0.7954545454545454
 40
0.7954545454545454
 40
0.7954545454545454
 40
0.7954545454545454
 40
0.8181818181818182
 40
0.8181818181818182
 40
0.8181818181818182
 40
0.8181818181818182
 40
0.8409090909090909
 40
0.8409090909090909
 40
0.8409090909090909
 40
0.8409090909090909
 40
0.8636363636363636
 40
0.8636363636363636
 40
0.8636363636363636
 40
0.8636363636363636
 40
0.8863636363636364
 40
0.8863636363636364
 40
0.8863636363636364
 40
0.8863636363636364
 40
0.9090909090909091
 40
0.9090909090909091
 40
0.9090909090909091
 40
0.9090909090909091
 40
0.9318181818181818
 40
0.9318181818181818
 40
0.9318181818181818
 40
0.9318181818181818
 40
0.9545454545454546
 40
0.9545454545454546
 40
0.9545454545454546
 40
0.9545454545454546
 40
1.0
 40
1.0
 40
1.0
 40
1.0
 10
-12.15605
 20
-13.081
 30
0.0
 10
-12.16964
 20
-13.05706
 30
0.0
 10
-12.16124
 20
-13.02662
 30
0.0
 10
-12.1373
 20
-13.01303
 30
0.0
 10
-12.1373
 20
-13.01303
 30
0.0
 10
-12.11336
 20
-12.99944
 30
0.0
 10
-12.08292
 20
-13.00784
 30
0.0
 10
-12.06933
 20
-13.03178
 30
0.0
 10
-12.06933
 20
-13.03178
 30
0.0
 10
-11.95979
 20
-13.2241
 30
0.0
 10
-11.79885
 20
-13.38862
 30
0.0
 10
-11.61056
 20
-13.51103
 30
0.0
 10
-11.61056
 20
-13.51103
 30
0.0
 10
-11.42079
 20
-13.63441
 30
0.0
 10
-11.20353
 20
-13.71483
 30
0.0
 10
-10.98345
 20
-13.73764
 30
0.0
 10
-10.98345
 20
-13.73764
 30
0.0
 10
-10.68251
 20
-13.7688
 30
0.0
 10
-10.39806
 20
-13.64592
 30
0.0
 10
-10.12096
 20
-13.52623
 30
0.0
 10
-10.12096
 20
-13.52623
 30
0.0
 10
-10.05477
 20
-13.49764
 30
0.0
 10
-9.98898
 20
-13.46921
 30
0.0
 10
-9.91548
 20
-13.44004
 30
0.0
 10
-9.91548
 20
-13.44004
 30
0.0
 10
-9.86867
 20
-13.42146
 30
0.0
 10
-9.80722
 20
-13.39663
 30
0.0
 10
-9.74594
 20
-13.37186
 30
0.0
 10
-9.74594
 20
-13.37186
 30
0.0
 10
-9.34019
 20
-13.20787
 30
0.0
 10
-8.95447
 20
-13.05198
 30
0.0
 10
-8.49659
 20
-13.02245
 30
0.0
 10
-8.49659
 20
-13.02245
 30
0.0
 10
-8.27052
 20
-13.00787
 30
0.0
 10
-8.05341
 20
-13.03571
 30
0.0
 10
-7.84076
 20
-13.08672
 30
0.0
 10
-7.84076
 20
-13.08672
 30
0.0
 10
-7.62986
 20
-13.13731
 30
0.0
 10
-7.42439
 20
-13.21044
 30
0.0
 10
-7.21892
 20
-13.28736
 30
0.0
 10
-7.21892
 20
-13.28736
 30
0.0
 10
-7.00973
 20
-13.36568
 30
0.0
 10
-6.8073
 20
-13.46119
 30
0.0
 10
-6.60498
 20
-13.55664
 30
0.0
 10
-6.60498
 20
-13.55664
 30
0.0
 10
-6.07636
 20
-13.80602
 30
0.0
 10
-5.54825
 20
-14.05516
 30
0.0
 10
-4.94902
 20
-13.97226
 30
0.0
 10
-4.94902
 20
-13.97226
 30
0.0
 10
-4.77551
 20
-13.94826
 30
0.0
 10
-4.60723
 20
-13.88912
 30
0.0
 10
-4.4386
 20
-13.82985
 30
0.0
 10
-4.4386
 20
-13.82985
 30
0.0
 10
-4.30996
 20
-13.78464
 30
0.0
 10
-4.18106
 20
-13.73933
 30
0.0
 10
-4.04759
 20
-13.70838
 30
0.0
 10
-4.04759
 20
-13.70838
 30
0.0
 10
-3.88105
 20
-13.6698
 30
0.0
 10
-3.71934
 20
-13.65935
 30
0.0
 10
-3.55925
 20
-13.67154
 30
0.0
 10
-3.55925
 20
-13.67154
 30
0.0
 10
-3.39997
 20
-13.68366
 30
0.0
 10
-3.24225
 20
-13.71824
 30
0.0
 10
-3.08287
 20
-13.76976
 30
0.0
 10
-3.08287
 20
-13.76976
 30
0.0
 10
-3.00351
 20
-13.79542
 30
0.0
 10
-2.92537
 20
-13.82149
 30
0.0
 10
-2.84746
 20
-13.84747
 30
0.0
 10
-2.84746
 20
-13.84747
 30
0.0
 10
-2.55697
 20
-13.94437
 30
0.0
 10
-2.2693
 20
-14.04033
 30
0.0
 10
-1.96752
 20
-14.0989
 30
0.0
 10
-1.96752
 20
-14.0989
 30
0.0
 10
-1.96752
 20
-14.0989
 30
0.0
 10
-1.9335
 20
-14.10553
 30
0.0
 10
-1.9335
 20
-14.10553
 30
0.0
 10
-1.9335
 20
-14.10553
 30
0.0
 10
-1.9335
 20
-14.10553
 30
0.0
 10
-1.93332
 20
-14.10557
 30
0.0
 10
-1.93332
 20
-14.10557
 30
0.0
 10
-1.93332
 20
-14.10557
 30
0.0
 10
-1.93332
 20
-14.10557
 30
0.0
 10
-1.93331
 20
-14.10553
 30
0.0
 10
-1.93331
 20
-14.10553
 30
0.0
 10
-1.93331
 20
-14.10553
 30
0.0
 10
-1.70842
 20
-14.1494
 30
0.0
 10
-1.40965
 20
-14.20768
 30
0.0
 10
-1.17168
 20
-14.17076
 30
0.0
 10
-1.17168
 20
-14.17076
 30
0.0
 10
-1.1445
 20
-14.16656
 30
0.0
 10
-1.11904
 20
-14.18518
 30
0.0
 10
-1.11484
 20
-14.21236
 30
0.0
 10
-1.11484
 20
-14.21236
 30
0.0
 10
-1.11064
 20
-14.23954
 30
0.0
 10
-1.12926
 20
-14.265
 30
0.0
 10
-1.15644
 20
-14.2692
 30
0.0
 10
-1.15644
 20
-14.2692
 30
0.0
 10
-1.41242
 20
-14.30891
 30
0.0
 10
-1.72054
 20
-14.24881
 30
0.0
 10
-1.95245
 20
-14.20357
 30
0.0
 10
-1.95245
 20
-14.20357
 30
0.0
 10
-1.95245
 20
-14.20357
 30
0.0
 10
-1.95244
 20
-14.20353
 30
0.0
 10
-1.95244
 20
-14.20353
 30
0.0
 10
-1.95244
 20
-14.20353
 30
0.0
 10
-1.95244
 20
-14.20353
 30
0.0
 10
-1.98628
 20
-14.19694
 30
0.0
 10
-1.98628
 20
-14.19694
 30
0.0
 10
-1.98628
 20
-14.19694
 30
0.0
 10
-2.29377
 20
-14.13726
 30
0.0
 10
-2.58501
 20
-14.04011
 30
0.0
 10
-2.8791
 20
-13.94201
 30
0.0
 10
-2.8791
 20
-13.94201
 30
0.0
 10
-2.95708
 20
-13.916
 30
0.0
 10
-3.0353
 20
-13.88991
 30
0.0
 10
-3.11333
 20
-13.86468
 30
0.0
 10
-3.11333
 20
-13.86468
 30
0.0
 10
-3.26519
 20
-13.81559
 30
0.0
 10
-3.41529
 20
-13.78265
 30
0.0
 10
-3.56667
 20
-13.77114
 30
0.0
 10
-3.56667
 20
-13.77114
 30
0.0
 10
-3.71724
 20
-13.75968
 30
0.0
 10
-3.86913
 20
-13.76945
 30
0.0
 10
-4.02533
 20
-13.80564
 30
0.0
 10
-4.02533
 20
-13.80564
 30
0.0
 10
-4.15385
 20
-13.83544
 30
0.0
 10
-4.27994
 20
-13.87977
 30
0.0
 10
-4.40578
 20
-13.92399
 30
0.0
 10
-4.40578
 20
-13.92399
 30
0.0
 10
-4.57918
 20
-13.98493
 30
0.0
 10
-4.75222
 20
-14.04575
 30
0.0
 10
-4.93534
 20
-14.07108
 30
0.0
 10
-4.93534
 20
-14.07108
 30
0.0
 10
-5.56401
 20
-14.15805
 30
0.0
 10
-6.10552
 20
-13.90259
 30
0.0
 10
-6.64756
 20
-13.64688
 30
0.0
 10
-6.64756
 20
-13.64688
 30
0.0
 10
-6.84889
 20
-13.55189
 30
0.0
 10
-7.05034
 20
-13.45685
 30
0.0
 10
-7.25368
 20
-13.38072
 30
0.0
 10
-7.25368
 20
-13.38072
 30
0.0
 10
-7.45632
 20
-13.30486
 30
0.0
 10
-7.6586
 20
-13.23282
 30
0.0
 10
-7.8638
 20
-13.1836
 30
0.0
 10
-7.8638
 20
-13.1836
 30
0.0
 10
-8.06724
 20
-13.1348
 30
0.0
 10
-8.27472
 20
-13.10814
 30
0.0
 10
-8.49033
 20
-13.12205
 30
0.0
 10
-8.49033
 20
-13.12205
 30
0.0
 10
-8.93218
 20
-13.15055
 30
0.0
 10
-9.31069
 20
-13.30352
 30
0.0
 10
-9.70884
 20
-13.46444
 30
0.0
 10
-9.70884
 20
-13.46444
 30
0.0
 10
-9.75976
 20
-13.48502
 30
0.0
 10
-9.81135
 20
-13.50587
 30
0.0
 10
-9.87876
 20
-13.53262
 30
0.0
 10
-9.87876
 20
-13.53262
 30
0.0
 10
-9.94075
 20
-13.55722
 30
0.0
 10
-10.01091
 20
-13.58754
 30
0.0
 10
-10.0815
 20
-13.61803
 30
0.0
 10
-10.0815
 20
-13.61803
 30
0.0
 10
-10.37017
 20
-13.74273
 30
0.0
 10
-10.66649
 20
-13.87073
 30
0.0
 10
-10.99361
 20
-13.83686
 30
0.0
 10
-10.99361
 20
-13.83686
 30
0.0
 10
-11.22958
 20
-13.8124
 30
0.0
 10
-11.46212
 20
-13.72644
 30
0.0
 10
-11.66486
 20
-13.59463
 30
0.0
 10
-11.66486
 20
-13.59463
 30
0.0
 10
-11.86616
 20
-13.46376
 30
0.0
 10
-12.03846
 20
-13.28744
 30
0.0
 10
-12.15605
 20
-13.081
 30
0.0
  0
SPLINE
  5
42
330
1F
100
AcDbEntity
  8
Layer 1
 62
     5
100
AcDbSpline
210
0.0
220
0.0
230
1.0
 70
    11
 71
     3
 72
    72
 73
    68
 74
     0
 42
0.0000000001
 43
0.0000000001
 12
1.0
 22
0.0
 32
0.0
 13
1.0
 23
0.0
 33
0.0
 40
0.0
 40
0.0
 40
0.0
 40
0.0
 40
0.0555555555555556
 40
0.0555555555555556
 40
0.0555555555555556
 40
0.0555555555555556
 40
0.1111111111111111
 40
0.1111111111111111
 40
0.1111111111111111
 40
0.1111111111111111
 40
0.1666666666666667
 40
0.1666666666666667
 40
0.1666666666666667
 40
0.1666666666666667
 40
0.2222222222222222
 40
0.2222222222222222
 40
0.2222222222222222
 40
0.2222222222222222
 40
0.2777777777777778
 40
0.2777777777777778
 40
0.2777777777777778
 40
0.2777777777777778
 40
0.3333333333333333
 40
0.3333333333333333
 40
0.3333333333333333
 40
0.3333333333333333
 40
0.3888888888888889
 40
0.3888888888888889
 40
0.3888888888888889
 40
0.3888888888888889
 40
0.4444444444444444
 40
0.4444444444444444
 40
0.4444444444444444
 40
0.4444444444444444
 40
0.5
 40
0.5
 40
0.5
 40
0.5
 40
0.5555555555555556
 40
0.5555555555555556
 40
0.5555555555555556
 40
0.5555555555555556
 40
0.6111111111111112
 40
0.6111111111111112
 40
0.6111111111111112
 40
0.6111111111111112
 40
0.6666666666666666
 40
0.6666666666666666
 40
0.6666666666666666
 40
0.6666666666666666
 40
0.7222222222222222
 40
0.7222222222222222
 40
0.7222222222222222
 40
0.7222222222222222
 40
0.7777777777777778
 40
0.7777777777777778
 40
0.7777777777777778
 40
0.7777777777777778
 40
0.8333333333333334
 40
0.8333333333333334
 40
0.8333333333333334
 40
0.8333333333333334
 40
0.8888888888888888
 40
0.8888888888888888
 40
0.8888888888888888
 40
0.8888888888888888
 40
1.0
 40
1.0
 40
1.0
 40
1.0
 10
-11.06759
 20
-13.40853
 30
0.0
 10
-11.08762
 20
-13.37461
 30
0.0
 10
-11.10372
 20
-13.33715
 30
0.0
 10
-11.11493
 20
-13.29694
 30
0.0
 10
-11.11493
 20
-13.29694
 30
0.0
 10
-11.12063
 20
-13.27967
 30
0.0
 10
-11.11664
 20
-13.25989
 30
0.0
 10
-11.10294
 20
-13.24612
 30
0.0
 10
-11.10294
 20
-13.24612
 30
0.0
 10
-11.09483
 20
-13.23795
 30
0.0
 10
-11.1124
 20
-13.24539
 30
0.0
 10
-11.11399
 20
-13.2346
 30
0.0
 10
-11.11399
 20
-13.2346
 30
0.0
 10
-11.11525
 20
-13.22603
 30
0.0
 10
-11.11662
 20
-13.21682
 30
0.0
 10
-11.11782
 20
-13.20346
 30
0.0
 10
-11.11782
 20
-13.20346
 30
0.0
 10
-11.12509
 20
-13.12323
 30
0.0
 10
-11.1098
 20
-13.03071
 30
0.0
 10
-10.91881
 20
-13.01339
 30
0.0
 10
-10.91881
 20
-13.01339
 30
0.0
 10
-10.83384
 20
-13.00569
 30
0.0
 10
-10.77697
 20
-13.03803
 30
0.0
 10
-10.72034
 20
-13.07023
 30
0.0
 10
-10.72034
 20
-13.07023
 30
0.0
 10
-10.67276
 20
-13.09729
 30
0.0
 10
-10.62534
 20
-13.12425
 30
0.0
 10
-10.56168
 20
-13.11073
 30
0.0
 10
-10.56168
 20
-13.11073
 30
0.0
 10
-10.5313
 20
-13.10428
 30
0.0
 10
-10.49615
 20
-13.0889
 30
0.0
 10
-10.46069
 20
-13.07339
 30
0.0
 10
-10.46069
 20
-13.07339
 30
0.0
 10
-10.33218
 20
-13.01717
 30
0.0
 10
-10.20019
 20
-12.95943
 30
0.0
 10
-10.11416
 20
-13.14961
 30
0.0
 10
-10.11416
 20
-13.14961
 30
0.0
 10
-10.05963
 20
-13.27012
 30
0.0
 10
-10.08316
 20
-13.31729
 30
0.0
 10
-10.14205
 20
-13.34394
 30
0.0
 10
-10.14205
 20
-13.34394
 30
0.0
 10
-10.16193
 20
-13.35292
 30
0.0
 10
-10.18371
 20
-13.35654
 30
0.0
 10
-10.20757
 20
-13.36048
 30
0.0
 10
-10.20757
 20
-13.36048
 30
0.0
 10
-10.22699
 20
-13.36369
 30
0.0
 10
-10.24832
 20
-13.36722
 30
0.0
 10
-10.26699
 20
-13.37461
 30
0.0
 10
-10.26699
 20
-13.37461
 30
0.0
 10
-10.32541
 20
-13.39773
 30
0.0
 10
-10.37512
 20
-13.43934
 30
0.0
 10
-10.42291
 20
-13.47934
 30
0.0
 10
-10.42291
 20
-13.47934
 30
0.0
 10
-10.45868
 20
-13.50929
 30
0.0
 10
-10.49354
 20
-13.53846
 30
0.0
 10
-10.53271
 20
-13.56157
 30
0.0
 10
-10.53271
 20
-13.56157
 30
0.0
 10
-10.56411
 20
-13.58012
 30
0.0
 10
-10.59649
 20
-13.59366
 30
0.0
 10
-10.62919
 20
-13.60259
 30
0.0
 10
-10.62919
 20
-13.60259
 30
0.0
 10
-10.71681
 20
-13.62652
 30
0.0
 10
-10.80426
 20
-13.61622
 30
0.0
 10
-10.88116
 20
-13.58041
 30
0.0
 10
-10.88116
 20
-13.58041
 30
0.0
 10
-10.95688
 20
-13.54514
 30
0.0
 10
-11.02243
 20
-13.48499
 30
0.0
 10
-11.06759
 20
-13.40853
 30
0.0
  0
SPLINE
  5
43
330
1F
100
AcDbEntity
  8
Layer 1
 62
     5
100
AcDbSpline
210
0.0
220
0.0
230
1.0
 70
    11
 71
     3
 72
   100
 73
    96
 74
     0
 42
0.0000000001
 43
0.0000000001
 12
1.0
 22
0.0
 32
0.0
 13
1.0
 23
0.0
 33
0.0
 40
0.0
 40
0.0
 40
0.0
 40
0.0
 40
0.04
 40
0.04
 40
0.04
 40
0.04
 40
0.08
 40
0.08
 40
0.08
 40
0.08
 40
0.12
 40
0.12
 40
0.12
 40
0.12
 40
0.16
 40
0.16
 40
0.16
 40
0.16
 40
0.2
 40
0.2
 40
0.2
 40
0.2
 40
0.24
 40
0.24
 40
0.24
 40
0.24
 40
0.28
 40
0.28
 40
0.28
 40
0.28
 40
0.32
 40
0.32
 40
0.32
 40
0.32
 40
0.36
 40
0.36
 40
0.36
 40
0.36
 40
0.4
 40
0.4
 40
0.4
 40
0.4
 40
0.44
 40
0.44
 40
0.44
 40
0.44
 40
0.48
 40
0.48
 40
0.48
 40
0.48
 40
0.52
 40
0.52
 40
0.52
 40
0.52
 40
0.56
 40
0.56
 40
0.56
 40
0.56
 40
0.6
 40
0.6
 40
0.6
 40
0.6
 40
0.64
 40
0.64
 40
0.64
 40
0.64
 40
0.68
 40
0.68
 40
0.68
 40
0.68
 40
0.72
 40
0.72
 40
0.72
 40
0.72
 40
0.76
 40
0.76
 40
0.76
 40
0.76
 40
0.8
 40
0.8
 40
0.8
 40
0.8
 40
0.84
 40
0.84
 40
0.84
 40
0.84
 40
0.88
 40
0.88
 40
0.88
 40
0.88
 40
0.92
 40
0.92
 40
0.92
 40
0.92
 40
1.0
 40
1.0
 40
1.0
 40
1.0
 10
-11.73525
 20
-12.93381
 30
0.0
 10
-11.76253
 20
-12.93769
 30
0.0
 10
-11.78781
 20
-12.91871
 30
0.0
 10
-11.79169
 20
-12.89143
 30
0.0
 10
-11.79169
 20
-12.89143
 30
0.0
 10
-11.79224
 20
-12.88757
 30
0.0
 10
-11.79232
 20
-12.88375
 30
0.0
 10
-11.792
 20
-12.88002
 30
0.0
 10
-11.792
 20
-12.88002
 30
0.0
 10
-11.79173
 20
-12.86806
 30
0.0
 10
-11.79261
 20
-12.85372
 30
0.0
 10
-11.79349
 20
-12.83963
 30
0.0
 10
-11.79349
 20
-12.83963
 30
0.0
 10
-11.79349
 20
-12.83963
 30
0.0
 10
-11.79353
 20
-12.83914
 30
0.0
 10
-11.79353
 20
-12.83914
 30
0.0
 10
-11.79353
 20
-12.83914
 30
0.0
 10
-11.79591
 20
-12.80122
 30
0.0
 10
-11.79818
 20
-12.7649
 30
0.0
 10
-11.78214
 20
-12.73399
 30
0.0
 10
-11.78214
 20
-12.73399
 30
0.0
 10
-11.75329
 20
-12.67836
 30
0.0
 10
-11.69068
 20
-12.66264
 30
0.0
 10
-11.54096
 20
-12.74033
 30
0.0
 10
-11.54096
 20
-12.74033
 30
0.0
 10
-11.4788
 20
-12.7726
 30
0.0
 10
-11.47864
 20
-12.77255
 30
0.0
 10
-11.47324
 20
-12.77028
 30
0.0
 10
-11.47324
 20
-12.77028
 30
0.0
 10
-11.45679
 20
-12.76338
 30
0.0
 10
-11.43162
 20
-12.75281
 30
0.0
 10
-11.37891
 20
-12.74472
 30
0.0
 10
-11.37891
 20
-12.74472
 30
0.0
 10
-11.34112
 20
-12.73892
 30
0.0
 10
-11.29348
 20
-12.73922
 30
0.0
 10
-11.25219
 20
-12.75184
 30
0.0
 10
-11.25219
 20
-12.75184
 30
0.0
 10
-11.214
 20
-12.7635
 30
0.0
 10
-11.18078
 20
-12.78539
 30
0.0
 10
-11.16204
 20
-12.82174
 30
0.0
 10
-11.16204
 20
-12.82174
 30
0.0
 10
-11.11288
 20
-12.91705
 30
0.0
 10
-11.15747
 20
-12.95548
 30
0.0
 10
-11.20666
 20
-12.99788
 30
0.0
 10
-11.20666
 20
-12.99788
 30
0.0
 10
-11.21811
 20
-13.00775
 30
0.0
 10
-11.23004
 20
-13.01804
 30
0.0
 10
-11.23749
 20
-13.02873
 30
0.0
 10
-11.23749
 20
-13.02873
 30
0.0
 10
-11.23749
 20
-13.02873
 30
0.0
 10
-11.23763
 20
-13.02864
 30
0.0
 10
-11.23763
 20
-13.02864
 30
0.0
 10
-11.23763
 20
-13.02864
 30
0.0
 10
-11.23763
 20
-13.02864
 30
0.0
 10
-11.23769
 20
-13.02873
 30
0.0
 10
-11.23769
 20
-13.02873
 30
0.0
 10
-11.23769
 20
-13.02873
 30
0.0
 10
-11.25184
 20
-13.04903
 30
0.0
 10
-11.26331
 20
-13.05985
 30
0.0
 10
-11.274
 20
-13.06995
 30
0.0
 10
-11.274
 20
-13.06995
 30
0.0
 10
-11.28318
 20
-13.07861
 30
0.0
 10
-11.29143
 20
-13.08641
 30
0.0
 10
-11.30001
 20
-13.10591
 30
0.0
 10
-11.30001
 20
-13.10591
 30
0.0
 10
-11.30001
 20
-13.10591
 30
0.0
 10
-11.30008
 20
-13.10588
 30
0.0
 10
-11.30008
 20
-13.10588
 30
0.0
 10
-11.30008
 20
-13.10588
 30
0.0
 10
-11.30166
 20
-13.1099
 30
0.0
 10
-11.30037
 20
-13.12204
 30
0.0
 10
-11.29905
 20
-13.13442
 30
0.0
 10
-11.29905
 20
-13.13442
 30
0.0
 10
-11.29522
 20
-13.17015
 30
0.0
 10
-11.29127
 20
-13.20695
 30
0.0
 10
-11.32273
 20
-13.24448
 30
0.0
 10
-11.32273
 20
-13.24448
 30
0.0
 10
-11.37068
 20
-13.30169
 30
0.0
 10
-11.42534
 20
-13.30998
 30
0.0
 10
-11.48044
 20
-13.29386
 30
0.0
 10
-11.48044
 20
-13.29386
 30
0.0
 10
-11.48204
 20
-13.29352
 30
0.0
 10
-11.48365
 20
-13.2931
 30
0.0
 10
-11.48524
 20
-13.2926
 30
0.0
 10
-11.48524
 20
-13.2926
 30
0.0
 10
-11.53111
 20
-13.27805
 30
0.0
 10
-11.57412
 20
-13.2456
 30
0.0
 10
-11.61189
 20
-13.21455
 30
0.0
 10
-11.61189
 20
-13.21455
 30
0.0
 10
-11.66509
 20
-13.17082
 30
0.0
 10
-11.71267
 20
-13.0615
 30
0.0
 10
-11.74656
 20
-12.98362
 30
0.0
 10
-11.74656
 20
-12.98362
 30
0.0
 10
-11.75785
 20
-12.95767
 30
0.0
 10
-11.70421
 20
-12.92938
 30
0.0
 10
-11.73525
 20
-12.93381
 30
0.0
  0
SPLINE
  5
44
330
1F
100
AcDbEntity
  8
Layer 1
 62
     5
100
AcDbSpline
210
0.0
220
0.0
230
1.0
 70
    11
 71
     3
 72
    88
 73
    84
 74
     0
 42
0.0000000001
 43
0.0000000001
 12
1.0
 22
0.0
 32
0.0
 13
1.0
 23
0.0
 33
0.0
 40
0.0
 40
0.0
 40
0.0
 40
0.0
 40
0.0454545454545455
 40
0.0454545454545455
 40
0.0454545454545455
 40
0.0454545454545455
 40
0.0909090909090909
 40
0.0909090909090909
 40
0.0909090909090909
 40
0.0909090909090909
 40
0.1363636363636364
 40
0.1363636363636364
 40
0.1363636363636364
 40
0.1363636363636364
 40
0.1818181818181818
 40
0.1818181818181818
 40
0.1818181818181818
 40
0.1818181818181818
 40
0.2272727272727273
 40
0.2272727272727273
 40
0.2272727272727273
 40
0.2272727272727273
 40
0.2727272727272727
 40
0.2727272727272727
 40
0.2727272727272727
 40
0.2727272727272727
 40
0.3181818181818182
 40
0.3181818181818182
 40
0.3181818181818182
 40
0.3181818181818182
 40
0.3636363636363636
 40
0.3636363636363636
 40
0.3636363636363636
 40
0.3636363636363636
 40
0.4090909090909091
 40
0.4090909090909091
 40
0.4090909090909091
 40
0.4090909090909091
 40
0.4545454545454545
 40
0.4545454545454545
 40
0.4545454545454545
 40
0.4545454545454545
 40
0.5
 40
0.5
 40
0.5
 40
0.5
 40
0.5454545454545454
 40
0.5454545454545454
 40
0.5454545454545454
 40
0.5454545454545454
 40
0.5909090909090909
 40
0.5909090909090909
 40
0.5909090909090909
 40
0.5909090909090909
 40
0.6363636363636364
 40
0.6363636363636364
 40
0.6363636363636364
 40
0.6363636363636364
 40
0.6818181818181818
 40
0.6818181818181818
 40
0.6818181818181818
 40
0.6818181818181818
 40
0.7272727272727273
 40
0.7272727272727273
 40
0.7272727272727273
 40
0.7272727272727273
 40
0.7727272727272727
 40
0.7727272727272727
 40
0.7727272727272727
 40
0.7727272727272727
 40
0.8181818181818182
 40
0.8181818181818182
 40
0.8181818181818182
 40
0.8181818181818182
 40
0.8636363636363636
 40
0.8636363636363636
 40
0.8636363636363636
 40
0.8636363636363636
 40
0.9090909090909091
 40
0.9090909090909091
 40
0.9090909090909091
 40
0.9090909090909091
 40
1.0
 40
1.0
 40
1.0
 40
1.0
 10
-11.10182
 20
-12.16763
 30
0.0
 10
-11.10182
 20
-12.16763
 30
0.0
 10
-11.10128
 20
-12.16609
 30
0.0
 10
-11.10128
 20
-12.16609
 30
0.0
 10
-11.10128
 20
-12.16609
 30
0.0
 10
-11.10167
 20
-12.16586
 30
0.0
 10
-11.10187
 20
-12.16542
 30
0.0
 10
-11.10182
 20
-12.16475
 30
0.0
 10
-11.10182
 20
-12.16475
 30
0.0
 10
-11.1003
 20
-12.14256
 30
0.0
 10
-11.09761
 20
-12.10394
 30
0.0
 10
-11.07982
 20
-12.06804
 30
0.0
 10
-11.07982
 20
-12.06804
 30
0.0
 10
-11.04763
 20
-12.00309
 30
0.0
 10
-10.97889
 20
-11.9551
 30
0.0
 10
-10.82562
 20
-12.03107
 30
0.0
 10
-10.82562
 20
-12.03107
 30
0.0
 10
-10.743
 20
-12.07202
 30
0.0
 10
-10.71562
 20
-12.13462
 30
0.0
 10
-10.68783
 20
-12.19817
 30
0.0
 10
-10.68783
 20
-12.19817
 30
0.0
 10
-10.66715
 20
-12.24546
 30
0.0
 10
-10.64612
 20
-12.2935
 30
0.0
 10
-10.59361
 20
-12.32157
 30
0.0
 10
-10.59361
 20
-12.32157
 30
0.0
 10
-10.57825
 20
-12.32978
 30
0.0
 10
-10.55477
 20
-12.33352
 30
0.0
 10
-10.53174
 20
-12.33717
 30
0.0
 10
-10.53174
 20
-12.33717
 30
0.0
 10
-10.47102
 20
-12.34681
 30
0.0
 10
-10.41228
 20
-12.35617
 30
0.0
 10
-10.38566
 20
-12.42773
 30
0.0
 10
-10.38566
 20
-12.42773
 30
0.0
 10
-10.38566
 20
-12.42773
 30
0.0
 10
-10.38454
 20
-12.43062
 30
0.0
 10
-10.38454
 20
-12.43062
 30
0.0
 10
-10.38454
 20
-12.43062
 30
0.0
 10
-10.38359
 20
-12.43332
 30
0.0
 10
-10.38288
 20
-12.43551
 30
0.0
 10
-10.38238
 20
-12.43726
 30
0.0
 10
-10.38238
 20
-12.43726
 30
0.0
 10
-10.36672
 20
-12.49224
 30
0.0
 10
-10.39387
 20
-12.55908
 30
0.0
 10
-10.43551
 20
-12.61461
 30
0.0
 10
-10.43551
 20
-12.61461
 30
0.0
 10
-10.47429
 20
-12.66633
 30
0.0
 10
-10.52794
 20
-12.71108
 30
0.0
 10
-10.56932
 20
-12.7256
 30
0.0
 10
-10.56932
 20
-12.7256
 30
0.0
 10
-10.57299
 20
-12.72688
 30
0.0
 10
-10.57526
 20
-12.72764
 30
0.0
 10
-10.57653
 20
-12.728
 30
0.0
 10
-10.57653
 20
-12.728
 30
0.0
 10
-10.64768
 20
-12.74825
 30
0.0
 10
-10.69254
 20
-12.72471
 30
0.0
 10
-10.73867
 20
-12.70051
 30
0.0
 10
-10.73867
 20
-12.70051
 30
0.0
 10
-10.75939
 20
-12.68964
 30
0.0
 10
-10.78054
 20
-12.67854
 30
0.0
 10
-10.80231
 20
-12.67604
 30
0.0
 10
-10.80231
 20
-12.67604
 30
0.0
 10
-10.80231
 20
-12.67604
 30
0.0
 10
-10.80328
 20
-12.67595
 30
0.0
 10
-10.80328
 20
-12.67595
 30
0.0
 10
-10.80328
 20
-12.67595
 30
0.0
 10
-10.83757
 20
-12.67231
 30
0.0
 10
-10.87228
 20
-12.68446
 30
0.0
 10
-10.90683
 20
-12.69657
 30
0.0
 10
-10.90683
 20
-12.69657
 30
0.0
 10
-10.94967
 20
-12.71158
 30
0.0
 10
-10.99242
 20
-12.72655
 30
0.0
 10
-11.04465
 20
-12.72279
 30
0.0
 10
-11.04465
 20
-12.72279
 30
0.0
 10
-11.19892
 20
-12.71172
 30
0.0
 10
-11.24239
 20
-12.63275
 30
0.0
 10
-11.23496
 20
-12.5293
 30
0.0
 10
-11.23496
 20
-12.5293
 30
0.0
 10
-11.22902
 20
-12.44652
 30
0.0
 10
-11.18408
 20
-12.35091
 30
0.0
 10
-11.14556
 20
-12.26893
 30
0.0
 10
-11.14556
 20
-12.26893
 30
0.0
 10
-11.12749
 20
-12.23048
 30
0.0
 10
-11.11095
 20
-12.19532
 30
0.0
 10
-11.10182
 20
-12.16763
 30
0.0
  0
SPLINE
  5
45
330
1F
100
AcDbEntity
  8
Layer 1
 62
     5
100
AcDbSpline
210
0.0
220
0.0
230
1.0
 70
    11
 71
     3
 72
    56
 73
    52
 74
     0
 42
0.0000000001
 43
0.0000000001
 12
1.0
 22
0.0
 32
0.0
 13
1.0
 23
0.0
 33
0.0
 40
0.0
 40
0.0
 40
0.0
 40
0.0
 40
0.0714285714285714
 40
0.0714285714285714
 40
0.0714285714285714
 40
0.0714285714285714
 40
0.1428571428571428
 40
0.1428571428571428
 40
0.1428571428571428
 40
0.1428571428571428
 40
0.2142857142857143
 40
0.2142857142857143
 40
0.2142857142857143
 40
0.2142857142857143
 40
0.2857142857142857
 40
0.2857142857142857
 40
0.2857142857142857
 40
0.2857142857142857
 40
0.3571428571428572
 40
0.3571428571428572
 40
0.3571428571428572
 40
0.3571428571428572
 40
0.4285714285714285
 40
0.4285714285714285
 40
0.4285714285714285
 40
0.4285714285714285
 40
0.5
 40
0.5
 40
0.5
 40
0.5
 40
0.5714285714285714
 40
0.5714285714285714
 40
0.5714285714285714
 40
0.5714285714285714
 40
0.6428571428571429
 40
0.6428571428571429
 40
0.6428571428571429
 40
0.6428571428571429
 40
0.7142857142857143
 40
0.7142857142857143
 40
0.7142857142857143
 40
0.7142857142857143
 40
0.7857142857142857
 40
0.7857142857142857
 40
0.7857142857142857
 40
0.7857142857142857
 40
0.8571428571428571
 40
0.8571428571428571
 40
0.8571428571428571
 40
0.8571428571428571
 40
1.0
 40
1.0
 40
1.0
 40
1.0
 10
-11.75293
 20
-11.62115
 30
0.0
 10
-11.76719
 20
-11.6052
 30
0.0
 10
-11.7693
 20
-11.58261
 30
0.0
 10
-11.75987
 20
-11.56472
 30
0.0
 10
-11.75987
 20
-11.56472
 30
0.0
 10
-11.76166
 20
-11.51207
 30
0.0
 10
-11.73361
 20
-11.48619
 30
0.0
 10
-11.69153
 20
-11.46833
 30
0.0
 10
-11.69153
 20
-11.46833
 30
0.0
 10
-11.69153
 20
-11.46833
 30
0.0
 10
-11.68877
 20
-11.4671
 30
0.0
 10
-11.68877
 20
-11.4671
 30
0.0
 10
-11.68877
 20
-11.4671
 30
0.0
 10
-11.67287
 20
-11.46058
 30
0.0
 10
-11.65744
 20
-11.45667
 30
0.0
 10
-11.64117
 20
-11.45256
 30
0.0
 10
-11.64117
 20
-11.45256
 30
0.0
 10
-11.62424
 20
-11.44828
 30
0.0
 10
-11.60609
 20
-11.44368
 30
0.0
 10
-11.5912
 20
-11.4368
 30
0.0
 10
-11.5912
 20
-11.4368
 30
0.0
 10
-11.58469
 20
-11.4338
 30
0.0
 10
-11.57407
 20
-11.42648
 30
0.0
 10
-11.56233
 20
-11.41839
 30
0.0
 10
-11.56233
 20
-11.41839
 30
0.0
 10
-11.49829
 20
-11.37426
 30
0.0
 10
-11.41352
 20
-11.31589
 30
0.0
 10
-11.34617
 20
-11.41752
 30
0.0
 10
-11.34617
 20
-11.41752
 30
0.0
 10
-11.32326
 20
-11.45206
 30
0.0
 10
-11.32749
 20
-11.51904
 30
0.0
 10
-11.34426
 20
-11.58379
 30
0.0
 10
-11.34426
 20
-11.58379
 30
0.0
 10
-11.36253
 20
-11.65441
 30
0.0
 10
-11.39711
 20
-11.72908
 30
0.0
 10
-11.4259
 20
-11.75242
 30
0.0
 10
-11.4259
 20
-11.75242
 30
0.0
 10
-11.53882
 20
-11.84391
 30
0.0
 10
-11.62492
 20
-11.77035
 30
0.0
 10
-11.69451
 20
-11.69044
 30
0.0
 10
-11.69451
 20
-11.69044
 30
0.0
 10
-11.71215
 20
-11.68859
 30
0.0
 10
-11.72824
 20
-11.67737
 30
0.0
 10
-11.73545
 20
-11.65982
 30
0.0
 10
-11.73545
 20
-11.65982
 30
0.0
 10
-11.74013
 20
-11.64839
 30
0.0
 10
-11.7441
 20
-11.63764
 30
0.0
 10
-11.74737
 20
-11.62753
 30
0.0
 10
-11.74737
 20
-11.62753
 30
0.0
 10
-11.74949
 20
-11.62505
 30
0.0
 10
-11.75136
 20
-11.62289
 30
0.0
 10
-11.75293
 20
-11.62115
 30
0.0
  0
SPLINE
  5
46
330
1F
100
AcDbEntity
  8
Layer 1
 62
     5
100
AcDbSpline
210
0.0
220
0.0
230
1.0
 70
    11
 71
     3
 72
    64
 73
    60
 74
     0
 42
0.0000000001
 43
0.0000000001
 12
1.0
 22
0.0
 32
0.0
 13
1.0
 23
0.0
 33
0.0
 40
0.0
 40
0.0
 40
0.0
 40
0.0
 40
0.0625
 40
0.0625
 40
0.0625
 40
0.0625
 40
0.125
 40
0.125
 40
0.125
 40
0.125
 40
0.1875
 40
0.1875
 40
0.1875
 40
0.1875
 40
0.25
 40
0.25
 40
0.25
 40
0.25
 40
0.3125
 40
0.3125
 40
0.3125
 40
0.3125
 40
0.375
 40
0.375
 40
0.375
 40
0.375
 40
0.4375
 40
0.4375
 40
0.4375
 40
0.4375
 40
0.5
 40
0.5
 40
0.5
 40
0.5
 40
0.5625
 40
0.5625
 40
0.5625
 40
0.5625
 40
0.625
 40
0.625
 40
0.625
 40
0.625
 40
0.6875
 40
0.6875
 40
0.6875
 40
0.6875
 40
0.75
 40
0.75
 40
0.75
 40
0.75
 40
0.8125
 40
0.8125
 40
0.8125
 40
0.8125
 40
0.875
 40
0.875
 40
0.875
 40
0.875
 40
1.0
 40
1.0
 40
1.0
 40
1.0
 10
-11.00333
 20
-11.81518
 30
0.0
 10
-11.02911
 20
-11.84561
 30
0.0
 10
-11.0626
 20
-11.86555
 30
0.0
 10
-11.10014
 20
-11.86967
 30
0.0
 10
-11.10014
 20
-11.86967
 30
0.0
 10
-11.13444
 20
-11.87344
 30
0.0
 10
-11.17042
 20
-11.86379
 30
0.0
 10
-11.20482
 20
-11.83669
 30
0.0
 10
-11.20482
 20
-11.83669
 30
0.0
 10
-11.20482
 20
-11.83669
 30
0.0
 10
-11.20492
 20
-11.83681
 30
0.0
 10
-11.20492
 20
-11.83681
 30
0.0
 10
-11.20492
 20
-11.83681
 30
0.0
 10
-11.27922
 20
-11.77821
 30
0.0
 10
-11.27105
 20
-11.65568
 30
0.0
 10
-11.26517
 20
-11.56748
 30
0.0
 10
-11.26517
 20
-11.56748
 30
0.0
 10
-11.264
 20
-11.5499
 30
0.0
 10
-11.26292
 20
-11.53381
 30
0.0
 10
-11.26272
 20
-11.5241
 30
0.0
 10
-11.26272
 20
-11.5241
 30
0.0
 10
-11.2623
 20
-11.50247
 30
0.0
 10
-11.24814
 20
-11.48434
 30
0.0
 10
-11.22873
 20
-11.47784
 30
0.0
 10
-11.22873
 20
-11.47784
 30
0.0
 10
-11.22873
 20
-11.47784
 30
0.0
 10
-11.22874
 20
-11.47781
 30
0.0
 10
-11.22874
 20
-11.47781
 30
0.0
 10
-11.22874
 20
-11.47781
 30
0.0
 10
-11.18598
 20
-11.4634
 30
0.0
 10
-11.14084
 20
-11.46752
 30
0.0
 10
-11.09982
 20
-11.48452
 30
0.0
 10
-11.09982
 20
-11.48452
 30
0.0
 10
-11.09982
 20
-11.48452
 30
0.0
 10
-11.09702
 20
-11.48578
 30
0.0
 10
-11.09702
 20
-11.48578
 30
0.0
 10
-11.09702
 20
-11.48578
 30
0.0
 10
-11.06783
 20
-11.49838
 30
0.0
 10
-11.04077
 20
-11.51752
 30
0.0
 10
-11.01851
 20
-11.54092
 30
0.0
 10
-11.01851
 20
-11.54092
 30
0.0
 10
-10.99533
 20
-11.56526
 30
0.0
 10
-10.97689
 20
-11.59466
 30
0.0
 10
-10.96614
 20
-11.62655
 30
0.0
 10
-10.96614
 20
-11.62655
 30
0.0
 10
-10.95199
 20
-11.66851
 30
0.0
 10
-10.95108
 20
-11.71448
 30
0.0
 10
-10.96962
 20
-11.7592
 30
0.0
 10
-10.96962
 20
-11.7592
 30
0.0
 10
-10.97001
 20
-11.76014
 30
0.0
 10
-10.97042
 20
-11.76105
 30
0.0
 10
-10.97086
 20
-11.76195
 30
0.0
 10
-10.97086
 20
-11.76195
 30
0.0
 10
-10.9749
 20
-11.77137
 30
0.0
 10
-10.97947
 20
-11.78028
 30
0.0
 10
-10.98445
 20
-11.7886
 30
0.0
 10
-10.98445
 20
-11.7886
 30
0.0
 10
-10.99027
 20
-11.79832
 30
0.0
 10
-10.99661
 20
-11.80724
 30
0.0
 10
-11.00333
 20
-11.81518
 30
0.0
  0
SPLINE
  5
47
330
1F
100
AcDbEntity
  8
Layer 1
 62
     5
100
AcDbSpline
210
0.0
220
0.0
230
1.0
 70
    11
 71
     3
 72
   128
 73
   124
 74
     0
 42
0.0000000001
 43
0.0000000001
 12
1.0
 22
0.0
 32
0.0
 13
1.0
 23
0.0
 33
0.0
 40
0.0
 40
0.0
 40
0.0
 40
0.0
 40
0.03125
 40
0.03125
 40
0.03125
 40
0.03125
 40
0.0625
 40
0.0625
 40
0.0625
 40
0.0625
 40
0.09375
 40
0.09375
 40
0.09375
 40
0.09375
 40
0.125
 40
0.125
 40
0.125
 40
0.125
 40
0.15625
 40
0.15625
 40
0.15625
 40
0.15625
 40
0.1875
 40
0.1875
 40
0.1875
 40
0.1875
 40
0.21875
 40
0.21875
 40
0.21875
 40
0.21875
 40
0.25
 40
0.25
 40
0.25
 40
0.25
 40
0.28125
 40
0.28125
 40
0.28125
 40
0.28125
 40
0.3125
 40
0.3125
 40
0.3125
 40
0.3125
 40
0.34375
 40
0.34375
 40
0.34375
 40
0.34375
 40
0.375
 40
0.375
 40
0.375
 40
0.375
 40
0.40625
 40
0.40625
 40
0.40625
 40
0.40625
 40
0.4375
 40
0.4375
 40
0.4375
 40
0.4375
 40
0.46875
 40
0.46875
 40
0.46875
 40
0.46875
 40
0.5
 40
0.5
 40
0.5
 40
0.5
 40
0.53125
 40
0.53125
 40
0.53125
 40
0.53125
 40
0.5625
 40
0.5625
 40
0.5625
 40
0.5625
 40
0.59375
 40
0.59375
 40
0.59375
 40
0.59375
 40
0.625
 40
0.625
 40
0.625
 40
0.625
 40
0.65625
 40
0.65625
 40
0.65625
 40
0.65625
 40
0.6875
 40
0.6875
 40
0.6875
 40
0.6875
 40
0.71875
 40
0.71875
 40
0.71875
 40
0.71875
 40
0.75
 40
0.75
 40
0.75
 40
0.75
 40
0.78125
 40
0.78125
 40
0.78125
 40
0.78125
 40
0.8125
 40
0.8125
 40
0.8125
 40
0.8125
 40
0.84375
 40
0.84375
 40
0.84375
 40
0.84375
 40
0.875
 40
0.875
 40
0.875
 40
0.875
 40
0.90625
 40
0.90625
 40
0.90625
 40
0.90625
 40
0.9375
 40
0.9375
 40
0.9375
 40
0.9375
 40
1.0
 40
1.0
 40
1.0
 40
1.0
 10
-11.05286
 20
-11.02946
 30
0.0
 10
-11.04942
 20
-11.05168
 30
0.0
 10
-11.04791
 20
-11.07365
 30
0.0
 10
-11.05443
 20
-11.09849
 30
0.0
 10
-11.05443
 20
-11.09849
 30
0.0
 10
-11.05466
 20
-11.09938
 30
0.0
 10
-11.05493
 20
-11.10026
 30
0.0
 10
-11.05521
 20
-11.10113
 30
0.0
 10
-11.05521
 20
-11.10113
 30
0.0
 10
-11.06202
 20
-11.1251
 30
0.0
 10
-11.07587
 20
-11.14914
 30
0.0
 10
-11.10166
 20
-11.17418
 30
0.0
 10
-11.10166
 20
-11.17418
 30
0.0
 10
-11.10166
 20
-11.17418
 30
0.0
 10
-11.10206
 20
-11.17456
 30
0.0
 10
-11.10206
 20
-11.17456
 30
0.0
 10
-11.10206
 20
-11.17456
 30
0.0
 10
-11.10206
 20
-11.17456
 30
0.0
 10
-11.10205
 20
-11.17457
 30
0.0
 10
-11.10205
 20
-11.17457
 30
0.0
 10
-11.10205
 20
-11.17457
 30
0.0
 10
-11.10205
 20
-11.17457
 30
0.0
 10
-11.10486
 20
-11.17724
 30
0.0
 10
-11.10486
 20
-11.17724
 30
0.0
 10
-11.10486
 20
-11.17724
 30
0.0
 10
-11.10486
 20
-11.17724
 30
0.0
 10
-11.10527
 20
-11.17762
 30
0.0
 10
-11.10527
 20
-11.17762
 30
0.0
 10
-11.10527
 20
-11.17762
 30
0.0
 10
-11.10527
 20
-11.17762
 30
0.0
 10
-11.10526
 20
-11.17763
 30
0.0
 10
-11.10526
 20
-11.17763
 30
0.0
 10
-11.10526
 20
-11.17763
 30
0.0
 10
-11.14907
 20
-11.21833
 30
0.0
 10
-11.19894
 20
-11.23226
 30
0.0
 10
-11.24615
 20
-11.22778
 30
0.0
 10
-11.24615
 20
-11.22778
 30
0.0
 10
-11.29222
 20
-11.22342
 30
0.0
 10
-11.33492
 20
-11.20104
 30
0.0
 10
-11.36616
 20
-11.1689
 30
0.0
 10
-11.36616
 20
-11.1689
 30
0.0
 10
-11.36616
 20
-11.1689
 30
0.0
 10
-11.36654
 20
-11.1685
 30
0.0
 10
-11.36654
 20
-11.1685
 30
0.0
 10
-11.36654
 20
-11.1685
 30
0.0
 10
-11.36654
 20
-11.1685
 30
0.0
 10
-11.36655
 20
-11.16851
 30
0.0
 10
-11.36655
 20
-11.16851
 30
0.0
 10
-11.36655
 20
-11.16851
 30
0.0
 10
-11.36655
 20
-11.16851
 30
0.0
 10
-11.3689
 20
-11.16603
 30
0.0
 10
-11.3689
 20
-11.16603
 30
0.0
 10
-11.3689
 20
-11.16603
 30
0.0
 10
-11.3689
 20
-11.16603
 30
0.0
 10
-11.36928
 20
-11.16562
 30
0.0
 10
-11.36928
 20
-11.16562
 30
0.0
 10
-11.36928
 20
-11.16562
 30
0.0
 10
-11.36928
 20
-11.16562
 30
0.0
 10
-11.36929
 20
-11.16563
 30
0.0
 10
-11.36929
 20
-11.16563
 30
0.0
 10
-11.36929
 20
-11.16563
 30
0.0
 10
-11.36929
 20
-11.16563
 30
0.0
 10
-11.36978
 20
-11.16509
 30
0.0
 10
-11.36978
 20
-11.16509
 30
0.0
 10
-11.36978
 20
-11.16509
 30
0.0
 10
-11.39045
 20
-11.14227
 30
0.0
 10
-11.38847
 20
-11.11095
 30
0.0
 10
-11.38647
 20
-11.07895
 30
0.0
 10
-11.38647
 20
-11.07895
 30
0.0
 10
-11.38563
 20
-11.06565
 30
0.0
 10
-11.38214
 20
-11.05704
 30
0.0
 10
-11.38345
 20
-11.05456
 30
0.0
 10
-11.38345
 20
-11.05456
 30
0.0
 10
-11.3836
 20
-11.05426
 30
0.0
 10
-11.39402
 20
-11.04829
 30
0.0
 10
-11.40424
 20
-11.04244
 30
0.0
 10
-11.40424
 20
-11.04244
 30
0.0
 10
-11.42886
 20
-11.02834
 30
0.0
 10
-11.45313
 20
-11.01447
 30
0.0
 10
-11.46505
 20
-10.98449
 30
0.0
 10
-11.46505
 20
-10.98449
 30
0.0
 10
-11.4691
 20
-10.97427
 30
0.0
 10
-11.47238
 20
-10.96404
 30
0.0
 10
-11.47485
 20
-10.95391
 30
0.0
 10
-11.47485
 20
-10.95391
 30
0.0
 10
-11.48799
 20
-10.89988
 30
0.0
 10
-11.48052
 20
-10.84453
 30
0.0
 10
-11.45268
 20
-10.79594
 30
0.0
 10
-11.45268
 20
-10.79594
 30
0.0
 10
-11.42591
 20
-10.74924
 30
0.0
 10
-11.38037
 20
-10.70927
 30
0.0
 10
-11.3165
 20
-10.68388
 30
0.0
 10
-11.3165
 20
-10.68388
 30
0.0
 10
-11.30517
 20
-10.67938
 30
0.0
 10
-11.29332
 20
-10.67535
 30
0.0
 10
-11.281
 20
-10.67185
 30
0.0
 10
-11.281
 20
-10.67185
 30
0.0
 10
-11.25748
 20
-10.64879
 30
0.0
 10
-11.23087
 20
-10.63053
 30
0.0
 10
-11.19712
 20
-10.6218
 30
0.0
 10
-11.19712
 20
-10.6218
 30
0.0
 10
-11.15883
 20
-10.6119
 30
0.0
 10
-11.11463
 20
-10.61531
 30
0.0
 10
-11.0605
 20
-10.6396
 30
0.0
 10
-11.0605
 20
-10.6396
 30
0.0
 10
-10.95076
 20
-10.68888
 30
0.0
 10
-10.94201
 20
-10.74344
 30
0.0
 10
-10.97038
 20
-10.80664
 30
0.0
 10
-10.97038
 20
-10.80664
 30
0.0
 10
-10.98036
 20
-10.82887
 30
0.0
 10
-10.99464
 20
-10.8485
 30
0.0
 10
-11.00992
 20
-10.86952
 30
0.0
 10
-11.00992
 20
-10.86952
 30
0.0
 10
-11.03064
 20
-10.89803
 30
0.0
 10
-11.05379
 20
-10.92987
 30
0.0
 10
-11.05873
 20
-10.96078
 30
0.0
 10
-11.05873
 20
-10.96078
 30
0.0
 10
-11.06157
 20
-10.97853
 30
0.0
 10
-11.0583
 20
-10.99711
 30
0.0
 10
-11.05523
 20
-11.0145
 30
0.0
 10
-11.05523
 20
-11.0145
 30
0.0
 10
-11.05523
 20
-11.0145
 30
0.0
 10
-11.05286
 20
-11.02946
 30
0.0
 10
-11.05286
 20
-11.02946
 30
0.0
  0
SPLINE
  5
48
330
1F
100
AcDbEntity
  8
Layer 1
 62
     5
100
AcDbSpline
210
0.0
220
0.0
230
1.0
 70
    11
 71
     3
 72
   100
 73
    96
 74
     0
 42
0.0000000001
 43
0.0000000001
 12
1.0
 22
0.0
 32
0.0
 13
1.0
 23
0.0
 33
0.0
 40
0.0
 40
0.0
 40
0.0
 40
0.0
 40
0.04
 40
0.04
 40
0.04
 40
0.04
 40
0.08
 40
0.08
 40
0.08
 40
0.08
 40
0.12
 40
0.12
 40
0.12
 40
0.12
 40
0.16
 40
0.16
 40
0.16
 40
0.16
 40
0.2
 40
0.2
 40
0.2
 40
0.2
 40
0.24
 40
0.24
 40
0.24
 40
0.24
 40
0.28
 40
0.28
 40
0.28
 40
0.28
 40
0.32
 40
0.32
 40
0.32
 40
0.32
 40
0.36
 40
0.36
 40
0.36
 40
0.36
 40
0.4
 40
0.4
 40
0.4
 40
0.4
 40
0.44
 40
0.44
 40
0.44
 40
0.44
 40
0.48
 40
0.48
 40
0.48
 40
0.48
 40
0.52
 40
0.52
 40
0.52
 40
0.52
 40
0.56
 40
0.56
 40
0.56
 40
0.56
 40
0.6
 40
0.6
 40
0.6
 40
0.6
 40
0.64
 40
0.64
 40
0.64
 40
0.64
 40
0.68
 40
0.68
 40
0.68
 40
0.68
 40
0.72
 40
0.72
 40
0.72
 40
0.72
 40
0.76
 40
0.76
 40
0.76
 40
0.76
 40
0.8
 40
0.8
 40
0.8
 40
0.8
 40
0.84
 40
0.84
 40
0.84
 40
0.84
 40
0.88
 40
0.88
 40
0.88
 40
0.88
 40
0.92
 40
0.92
 40
0.92
 40
0.92
 40
1.0
 40
1.0
 40
1.0
 40
1.0
 10
-10.77404
 20
-11.35298
 30
0.0
 10
-10.82174
 20
-11.25719
 30
0.0
 10
-10.85795
 20
-11.18438
 30
0.0
 10
-10.74153
 20
-11.07171
 30
0.0
 10
-10.74153
 20
-11.07171
 30
0.0
 10
-10.75942
 20
-11.03279
 30
0.0
 10
-10.77142
 20
-10.98133
 30
0.0
 10
-10.72481
 20
-10.92902
 30
0.0
 10
-10.72481
 20
-10.92902
 30
0.0
 10
-10.72338
 20
-10.92741
 30
0.0
 10
-10.72148
 20
-10.92546
 30
0.0
 10
-10.719
 20
-10.92307
 30
0.0
 10
-10.719
 20
-10.92307
 30
0.0
 10
-10.719
 20
-10.92307
 30
0.0
 10
-10.71899
 20
-10.92308
 30
0.0
 10
-10.71899
 20
-10.92308
 30
0.0
 10
-10.71899
 20
-10.92308
 30
0.0
 10
-10.68659
 20
-10.89188
 30
0.0
 10
-10.63683
 20
-10.88231
 30
0.0
 10
-10.58947
 20
-10.88687
 30
0.0
 10
-10.58947
 20
-10.88687
 30
0.0
 10
-10.54496
 20
-10.89115
 30
0.0
 10
-10.49982
 20
-10.90839
 30
0.0
 10
-10.47382
 20
-10.93157
 30
0.0
 10
-10.47382
 20
-10.93157
 30
0.0
 10
-10.47382
 20
-10.93157
 30
0.0
 10
-10.47383
 20
-10.93158
 30
0.0
 10
-10.47383
 20
-10.93158
 30
0.0
 10
-10.47383
 20
-10.93158
 30
0.0
 10
-10.47383
 20
-10.93158
 30
0.0
 10
-10.47362
 20
-10.93176
 30
0.0
 10
-10.47362
 20
-10.93176
 30
0.0
 10
-10.47362
 20
-10.93176
 30
0.0
 10
-10.47209
 20
-10.93313
 30
0.0
 10
-10.47018
 20
-10.935
 30
0.0
 10
-10.46787
 20
-10.93737
 30
0.0
 10
-10.46787
 20
-10.93737
 30
0.0
 10
-10.41763
 20
-10.98928
 30
0.0
 10
-10.42214
 20
-11.04363
 30
0.0
 10
-10.42668
 20
-11.0982
 30
0.0
 10
-10.42668
 20
-11.0982
 30
0.0
 10
-10.42868
 20
-11.12236
 30
0.0
 10
-10.4307
 20
-11.14662
 30
0.0
 10
-10.42511
 20
-11.16348
 30
0.0
 10
-10.42511
 20
-11.16348
 30
0.0
 10
-10.41388
 20
-11.19734
 30
0.0
 10
-10.40692
 20
-11.19681
 30
0.0
 10
-10.39866
 20
-11.19618
 30
0.0
 10
-10.39866
 20
-11.19618
 30
0.0
 10
-10.3617
 20
-11.19334
 30
0.0
 10
-10.31966
 20
-11.19013
 30
0.0
 10
-10.26928
 20
-11.25225
 30
0.0
 10
-10.26928
 20
-11.25225
 30
0.0
 10
-10.20742
 20
-11.32848
 30
0.0
 10
-10.25276
 20
-11.39193
 30
0.0
 10
-10.29731
 20
-11.45422
 30
0.0
 10
-10.29731
 20
-11.45422
 30
0.0
 10
-10.30935
 20
-11.47105
 30
0.0
 10
-10.32132
 20
-11.48779
 30
0.0
 10
-10.32807
 20
-11.50214
 30
0.0
 10
-10.32807
 20
-11.50214
 30
0.0
 10
-10.3643
 20
-11.57908
 30
0.0
 10
-10.3591
 20
-11.59816
 30
0.0
 10
-10.3422
 20
-11.66016
 30
0.0
 10
-10.3422
 20
-11.66016
 30
0.0
 10
-10.33761
 20
-11.67699
 30
0.0
 10
-10.3325
 20
-11.69572
 30
0.0
 10
-10.33124
 20
-11.70068
 30
0.0
 10
-10.33124
 20
-11.70068
 30
0.0
 10
-10.30299
 20
-11.81155
 30
0.0
 10
-10.32836
 20
-11.8854
 30
0.0
 10
-10.37908
 20
-11.92858
 30
0.0
 10
-10.37908
 20
-11.92858
 30
0.0
 10
-10.40901
 20
-11.95406
 30
0.0
 10
-10.44663
 20
-11.96739
 30
0.0
 10
-10.48668
 20
-11.97041
 30
0.0
 10
-10.48668
 20
-11.97041
 30
0.0
 10
-10.52382
 20
-11.97319
 30
0.0
 10
-10.56345
 20
-11.96718
 30
0.0
 10
-10.60059
 20
-11.9539
 30
0.0
 10
-10.60059
 20
-11.9539
 30
0.0
 10
-10.68973
 20
-11.92202
 30
0.0
 10
-10.76776
 20
-11.84706
 30
0.0
 10
-10.77076
 20
-11.74905
 30
0.0
 10
-10.77076
 20
-11.74905
 30
0.0
 10
-10.77255
 20
-11.69013
 30
0.0
 10
-10.75962
 20
-11.64441
 30
0.0
 10
-10.74699
 20
-11.59979
 30
0.0
 10
-10.74699
 20
-11.59979
 30
0.0
 10
-10.73139
 20
-11.5447
 30
0.0
 10
-10.71636
 20
-11.49158
 30
0.0
 10
-10.74355
 20
-11.4197
 30
0.0
 10
-10.74355
 20
-11.4197
 30
0.0
 10
-10.75217
 20
-11.39689
 30
0.0
 10
-10.76348
 20
-11.37419
 30
0.0
 10
-10.77404
 20
-11.35298
 30
0.0
  0
SPLINE
  5
49
330
1F
100
AcDbEntity
  8
Layer 1
 62
     5
100
AcDbSpline
210
0.0
220
0.0
230
1.0
 70
    11
 71
     3
 72
   104
 73
   100
 74
     0
 42
0.0000000001
 43
0.0000000001
 12
1.0
 22
0.0
 32
0.0
 13
1.0
 23
0.0
 33
0.0
 40
0.0
 40
0.0
 40
0.0
 40
0.0
 40
0.0384615384615385
 40
0.0384615384615385
 40
0.0384615384615385
 40
0.0384615384615385
 40
0.0769230769230769
 40
0.0769230769230769
 40
0.0769230769230769
 40
0.0769230769230769
 40
0.1153846153846154
 40
0.1153846153846154
 40
0.1153846153846154
 40
0.1153846153846154
 40
0.1538461538461539
 40
0.1538461538461539
 40
0.1538461538461539
 40
0.1538461538461539
 40
0.1923076923076923
 40
0.1923076923076923
 40
0.1923076923076923
 40
0.1923076923076923
 40
0.2307692307692308
 40
0.2307692307692308
 40
0.2307692307692308
 40
0.2307692307692308
 40
0.2692307692307692
 40
0.2692307692307692
 40
0.2692307692307692
 40
0.2692307692307692
 40
0.3076923076923077
 40
0.3076923076923077
 40
0.3076923076923077
 40
0.3076923076923077
 40
0.3461538461538461
 40
0.3461538461538461
 40
0.3461538461538461
 40
0.3461538461538461
 40
0.3846153846153846
 40
0.3846153846153846
 40
0.3846153846153846
 40
0.3846153846153846
 40
0.4230769230769231
 40
0.4230769230769231
 40
0.4230769230769231
 40
0.4230769230769231
 40
0.4615384615384616
 40
0.4615384615384616
 40
0.4615384615384616
 40
0.4615384615384616
 40
0.5
 40
0.5
 40
0.5
 40
0.5
 40
0.5384615384615384
 40
0.5384615384615384
 40
0.5384615384615384
 40
0.5384615384615384
 40
0.5769230769230769
 40
0.5769230769230769
 40
0.5769230769230769
 40
0.5769230769230769
 40
0.6153846153846154
 40
0.6153846153846154
 40
0.6153846153846154
 40
0.6153846153846154
 40
0.6538461538461539
 40
0.6538461538461539
 40
0.6538461538461539
 40
0.6538461538461539
 40
0.6923076923076923
 40
0.6923076923076923
 40
0.6923076923076923
 40
0.6923076923076923
 40
0.7307692307692307
 40
0.7307692307692307
 40
0.7307692307692307
 40
0.7307692307692307
 40
0.7692307692307693
 40
0.7692307692307693
 40
0.7692307692307693
 40
0.7692307692307693
 40
0.8076923076923077
 40
0.8076923076923077
 40
0.8076923076923077
 40
0.8076923076923077
 40
0.8461538461538461
 40
0.8461538461538461
 40
0.8461538461538461
 40
0.8461538461538461
 40
0.8846153846153846
 40
0.8846153846153846
 40
0.8846153846153846
 40
0.8846153846153846
 40
0.9230769230769231
 40
0.9230769230769231
 40
0.9230769230769231
 40
0.9230769230769231
 40
1.0
 40
1.0
 40
1.0
 40
1.0
 10
-11.82483
 20
-12.13431
 30
0.0
 10
-11.81757
 20
-12.1163
 30
0.0
 10
-11.81049
 20
-12.09877
 30
0.0
 10
-11.80474
 20
-12.08262
 30
0.0
 10
-11.80474
 20
-12.08262
 30
0.0
 10
-11.80394
 20
-12.07772
 30
0.0
 10
-11.80239
 20
-12.07286
 30
0.0
 10
-11.80004
 20
-12.0682
 30
0.0
 10
-11.80004
 20
-12.0682
 30
0.0
 10
-11.79489
 20
-12.05798
 30
0.0
 10
-11.8056
 20
-12.03896
 30
0.0
 10
-11.8161
 20
-12.02032
 30
0.0
 10
-11.8161
 20
-12.02032
 30
0.0
 10
-11.84692
 20
-11.96558
 30
0.0
 10
-11.87705
 20
-11.91208
 30
0.0
 10
-11.80151
 20
-11.84454
 30
0.0
 10
-11.80151
 20
-11.84454
 30
0.0
 10
-11.73168
 20
-11.78213
 30
0.0
 10
-11.67357
 20
-11.81514
 30
0.0
 10
-11.61786
 20
-11.84828
 30
0.0
 10
-11.61786
 20
-11.84828
 30
0.0
 10
-11.61691
 20
-11.84877
 30
0.0
 10
-11.61598
 20
-11.84928
 30
0.0
 10
-11.61506
 20
-11.84983
 30
0.0
 10
-11.61506
 20
-11.84983
 30
0.0
 10
-11.5998
 20
-11.85892
 30
0.0
 10
-11.58478
 20
-11.86786
 30
0.0
 10
-11.57382
 20
-11.87077
 30
0.0
 10
-11.57382
 20
-11.87077
 30
0.0
 10
-11.57382
 20
-11.87077
 30
0.0
 10
-11.56413
 20
-11.87333
 30
0.0
 10
-11.56413
 20
-11.87333
 30
0.0
 10
-11.56413
 20
-11.87333
 30
0.0
 10
-11.52876
 20
-11.88266
 30
0.0
 10
-11.48832
 20
-11.89335
 30
0.0
 10
-11.45145
 20
-11.91083
 30
0.0
 10
-11.45145
 20
-11.91083
 30
0.0
 10
-11.36303
 20
-11.95275
 30
0.0
 10
-11.30155
 20
-12.02321
 30
0.0
 10
-11.36873
 20
-12.16487
 30
0.0
 10
-11.36873
 20
-12.16487
 30
0.0
 10
-11.39024
 20
-12.21025
 30
0.0
 10
-11.42667
 20
-12.2364
 30
0.0
 10
-11.46304
 20
-12.26251
 30
0.0
 10
-11.46304
 20
-12.26251
 30
0.0
 10
-11.48911
 20
-12.28122
 30
0.0
 10
-11.51521
 20
-12.29996
 30
0.0
 10
-11.52562
 20
-12.32258
 30
0.0
 10
-11.52562
 20
-12.32258
 30
0.0
 10
-11.53019
 20
-12.33251
 30
0.0
 10
-11.52842
 20
-12.34874
 30
0.0
 10
-11.52669
 20
-12.36447
 30
0.0
 10
-11.52669
 20
-12.36447
 30
0.0
 10
-11.52669
 20
-12.36447
 30
0.0
 10
-11.52671
 20
-12.36447
 30
0.0
 10
-11.52671
 20
-12.36447
 30
0.0
 10
-11.52671
 20
-12.36447
 30
0.0
 10
-11.52671
 20
-12.36447
 30
0.0
 10
-11.52669
 20
-12.36467
 30
0.0
 10
-11.52669
 20
-12.36467
 30
0.0
 10
-11.52669
 20
-12.36467
 30
0.0
 10
-11.5214
 20
-12.41292
 30
0.0
 10
-11.51635
 20
-12.45904
 30
0.0
 10
-11.5786
 20
-12.50132
 30
0.0
 10
-11.5786
 20
-12.50132
 30
0.0
 10
-11.57959
 20
-12.50208
 30
0.0
 10
-11.58063
 20
-12.5028
 30
0.0
 10
-11.58169
 20
-12.5035
 30
0.0
 10
-11.58169
 20
-12.5035
 30
0.0
 10
-11.59967
 20
-12.51525
 30
0.0
 10
-11.61852
 20
-12.52256
 30
0.0
 10
-11.63768
 20
-12.52612
 30
0.0
 10
-11.63768
 20
-12.52612
 30
0.0
 10
-11.63768
 20
-12.52612
 30
0.0
 10
-11.63976
 20
-12.52652
 30
0.0
 10
-11.63976
 20
-12.52652
 30
0.0
 10
-11.63976
 20
-12.52652
 30
0.0
 10
-11.68237
 20
-12.53379
 30
0.0
 10
-11.72405
 20
-12.52199
 30
0.0
 10
-11.76011
 20
-12.50003
 30
0.0
 10
-11.76011
 20
-12.50003
 30
0.0
 10
-11.79315
 20
-12.47991
 30
0.0
 10
-11.82179
 20
-12.45081
 30
0.0
 10
-11.84142
 20
-12.42076
 30
0.0
 10
-11.84142
 20
-12.42076
 30
0.0
 10
-11.84142
 20
-12.42076
 30
0.0
 10
-11.84133
 20
-12.4207
 30
0.0
 10
-11.84133
 20
-12.4207
 30
0.0
 10
-11.84133
 20
-12.4207
 30
0.0
 10
-11.84133
 20
-12.4207
 30
0.0
 10
-11.84142
 20
-12.42057
 30
0.0
 10
-11.84142
 20
-12.42057
 30
0.0
 10
-11.84142
 20
-12.42057
 30
0.0
 10
-11.8565
 20
-12.39747
 30
0.0
 10
-11.8669
 20
-12.37299
 30
0.0
 10
-11.87076
 20
-12.35033
 30
0.0
 10
-11.87076
 20
-12.35033
 30
0.0
 10
-11.88304
 20
-12.27858
 30
0.0
 10
-11.85274
 20
-12.20349
 30
0.0
 10
-11.82483
 20
-12.13431
 30
0.0
  0
ENDSEC
  0
SECTION
  2
OBJECTS
  0
DICTIONARY
  5
C
330
0
100
AcDbDictionary
281
     1
  3
ACAD_GROUP
350
D
  3
ACAD_LAYOUT
350
1A
  3
ACAD_MATERIAL
350
3B
  3
ACAD_MLEADERSTYLE
350
6B
  3
ACAD_MLINESTYLE
350
17
  3
ACAD_PLOTSETTINGS
350
19
  3
ACAD_PLOTSTYLENAME
350
E
  3
ACAD_TABLESTYLE
350
6A
  3
ACAD_VISUALSTYLE
350
2A
  0
DICTIONARY
  5
D
102
{ACAD_REACTORS
330
C
102
}
330
C
100
AcDbDictionary
281
     1
  0
DICTIONARY
  5
1A
102
{ACAD_REACTORS
330
C
102
}
330
C
100
AcDbDictionary
281
     1
  3
Layout1
350
1E
  3
Layout2
350
26
  3
Model
350
22
  0
DICTIONARY
  5
3B
102
{ACAD_REACTORS
330
C
102
}
330
C
100
AcDbDictionary
281
     1
  3
ByBlock
350
3D
  3
ByLayer
350
3C
  3
Global
350
3E
  0
DICTIONARY
  5
6B
102
{ACAD_REACTORS
330
C
102
}
330
C
100
AcDbDictionary
281
     1
  0
DICTIONARY
  5
17
102
{ACAD_REACTORS
330
C
102
}
330
C
100
AcDbDictionary
281
     1
  3
Standard
350
18
  0
DICTIONARY
  5
19
102
{ACAD_REACTORS
330
C
102
}
330
C
100
AcDbDictionary
281
     1
  0
ACDBDICTIONARYWDFLT
  5
E
102
{ACAD_REACTORS
330
C
102
}
330
C
100
AcDbDictionary
281
     1
  3
Normal
350
F
100
AcDbDictionaryWithDefault
340
F
  0
DICTIONARY
  5
6A
102
{ACAD_REACTORS
330
C
102
}
330
C
100
AcDbDictionary
281
     1
  0
DICTIONARY
  5
2A
102
{ACAD_REACTORS
330
C
102
}
330
C
100
AcDbDictionary
281
     1
  3
2dWireframe
350
2F
  3
3D Hidden
350
31
  3
3dWireframe
350
30
  3
Basic
350
32
  3
Brighten
350
36
  3
ColorChange
350
3A
  3
Conceptual
350
34
  3
Dim
350
35
  3
Facepattern
350
39
  3
Flat
350
2B
  3
FlatWithEdges
350
2C
  3
Gouraud
350
2D
  3
GouraudWithEdges
350
2E
  3
Linepattern
350
38
  3
Realistic
350
33
  3
Thicken
350
37
  0
LAYOUT
  5
1E
102
{ACAD_REACTORS
330
1A
102
}
330
1A
100
AcDbPlotSettings
  1

  2
none_device
  4

  6

 40
0.0
 41
0.0
 42
0.0
 43
0.0
 44
0.0
 45
0.0
 46
0.0
 47
0.0
 48
0.0
 49
0.0
140
0.0
141
0.0
142
1.0
143
1.0
 70
   688
 72
     0
 73
     0
 74
     5
  7

 75
    16
 76
     0
 77
     2
 78
   300
147
1.0
148
0.0
149
0.0
100
AcDbLayout
  1
Layout1
 70
     1
 71
     1
 10
0.0
 20
0.0
 11
12.0
 21
9.0
 12
0.0
 22
0.0
 32
0.0
 14
1.000000000000000E+20
 24
1.000000000000000E+20
 34
1.000000000000000E+20
 15
-1.000000000000000E+20
 25
-1.000000000000000E+20
 35
-1.000000000000000E+20
146
0.0
 13
0.0
 23
0.0
 33
0.0
 16
1.0
 26
0.0
 36
0.0
 17
0.0
 27
1.0
 37
0.0
 76
     0
330
1B
  0
LAYOUT
  5
26
102
{ACAD_REACTORS
330
1A
102
}
330
1A
100
AcDbPlotSettings
  1

  2
none_device
  4

  6

 40
0.0
 41
0.0
 42
0.0
 43
0.0
 44
0.0
 45
0.0
 46
0.0
 47
0.0
 48
0.0
 49
0.0
140
0.0
141
0.0
142
1.0
143
1.0
 70
   688
 72
     0
 73
     0
 74
     5
  7

 75
    16
 76
     0
 77
     2
 78
   300
147
1.0
148
0.0
149
0.0
100
AcDbLayout
  1
Layout2
 70
     1
 71
     2
 10
0.0
 20
0.0
 11
0.0
 21
0.0
 12
0.0
 22
0.0
 32
0.0
 14
0.0
 24
0.0
 34
0.0
 15
0.0
 25
0.0
 35
0.0
146
0.0
 13
0.0
 23
0.0
 33
0.0
 16
1.0
 26
0.0
 36
0.0
 17
0.0
 27
1.0
 37
0.0
 76
     0
330
23
  0
LAYOUT
  5
22
102
{ACAD_REACTORS
330
1A
102
}
330
1A
100
AcDbPlotSettings
  1

  2
none_device
  4

  6

 40
0.0
 41
0.0
 42
0.0
 43
0.0
 44
0.0
 45
0.0
 46
0.0
 47
0.0
 48
0.0
 49
0.0
140
0.0
141
0.0
142
1.0
143
1.0
 70
  1712
 72
     0
 73
     0
 74
     0
  7

 75
     0
 76
     0
 77
     2
 78
   300
147
1.0
148
0.0
149
0.0
100
AcDbLayout
  1
Model
 70
     1
 71
     0
 10
0.0
 20
0.0
 11
12.0
 21
9.0
 12
0.0
 22
0.0
 32
0.0
 14
-12.16256
 24
-14.28216
 34
0.0
 15
-1.11424
 25
-10.61661
 35
0.0
146
0.0
 13
0.0
 23
0.0
 33
0.0
 16
1.0
 26
0.0
 36
0.0
 17
0.0
 27
1.0
 37
0.0
 76
     0
330
1F
331
29
  0
MATERIAL
  5
3D
102
{ACAD_REACTORS
330
3B
102
}
330
3B
100
AcDbMaterial
  1
ByBlock
 72
     1
 94
      127
  0
MATERIAL
  5
3C
102
{ACAD_REACTORS
330
3B
102
}
330
3B
100
AcDbMaterial
  1
ByLayer
 72
     1
 94
      127
  0
MATERIAL
  5
3E
102
{ACAD_REACTORS
330
3B
102
}
330
3B
100
AcDbMaterial
  1
Global
 72
     1
 94
      127
  0
MLINESTYLE
  5
18
102
{ACAD_REACTORS
330
17
102
}
330
17
100
AcDbMlineStyle
  2
Standard
 70
     0
  3

 62
   256
 51
90.0
 52
90.0
 71
     2
 49
0.5
 62
   256
  6
BYLAYER
 49
-0.5
 62
   256
  6
BYLAYER
  0
ACDBPLACEHOLDER
  5
F
102
{ACAD_REACTORS
330
E
102
}
330
E
  0
VISUALSTYLE
  5
2F
102
{ACAD_REACTORS
330
2A
102
}
102
{ACAD_XDICTIONARY
360
52
102
}
330
2A
100
AcDbVisualStyle
  2
2dWireframe
 70
     4
 71
     0
 72
     2
 73
     0
 90
        0
 40
-0.6
 41
-30.0
 62
     5
 63
     7
421
 16777215
 74
     1
 91
        4
 64
     7
 65
   257
 75
     1
175
     1
 42
1.0
 92
        0
 66
   257
 43
1.0
 76
     1
 77
     6
 78
     2
 67
     7
 79
     5
170
     0
171
     0
290
     0
174
     0
 93
        1
 44
0.0
173
     0
291
     0
 45
0.0
  0
VISUALSTYLE
  5
31
102
{ACAD_REACTORS
330
2A
102
}
102
{ACAD_XDICTIONARY
360
56
102
}
330
2A
100
AcDbVisualStyle
  2
3D Hidden
 70
     6
 71
     1
 72
     2
 73
     2
 90
        0
 40
-0.6
 41
-30.0
 62
     5
 63
     7
421
 16777215
 74
     2
 91
        2
 64
     7
 65
   257
 75
     2
175
     1
 42
40.0
 92
        0
 66
   257
 43
1.0
 76
     1
 77
     6
 78
     2
 67
     7
 79
     3
170
     0
171
     0
290
     0
174
     0
 93
        1
 44
0.0
173
     0
291
     0
 45
0.0
  0
VISUALSTYLE
  5
30
102
{ACAD_REACTORS
330
2A
102
}
102
{ACAD_XDICTIONARY
360
54
102
}
330
2A
100
AcDbVisualStyle
  2
3dWireframe
 70
     5
 71
     0
 72
     2
 73
     0
 90
        0
 40
-0.6
 41
-30.0
 62
     5
 63
     7
421
 16777215
 74
     1
 91
        4
 64
     7
 65
   257
 75
     1
175
     1
 42
1.0
 92
        0
 66
   257
 43
1.0
 76
     1
 77
     6
 78
     2
 67
     7
 79
     5
170
     0
171
     0
290
     0
174
     0
 93
        1
 44
0.0
173
     0
291
     0
 45
0.0
  0
VISUALSTYLE
  5
32
102
{ACAD_REACTORS
330
2A
102
}
102
{ACAD_XDICTIONARY
360
58
102
}
330
2A
100
AcDbVisualStyle
  2
Basic
 70
     7
 71
     1
 72
     0
 73
     1
 90
        0
 40
-0.6
 41
-30.0
 62
     5
 63
     7
421
 16777215
 74
     0
 91
        4
 64
     7
 65
   257
 75
     1
175
     1
 42
1.0
 92
        8
 66
     7
 43
1.0
 76
     1
 77
     6
 78
     2
 67
     7
 79
     5
170
     0
171
     0
290
     0
174
     0
 93
        1
 44
0.0
173
     0
291
     1
 45
0.0
  0
VISUALSTYLE
  5
36
102
{ACAD_REACTORS
330
2A
102
}
102
{ACAD_XDICTIONARY
360
60
102
}
330
2A
100
AcDbVisualStyle
  2
Brighten
 70
    12
 71
     2
 72
     2
 73
     0
 90
        0
 40
-0.6
 41
-30.0
 62
     5
 63
     7
421
 16777215
 74
     1
 91
        4
 64
     7
 65
   257
 75
     1
175
     1
 42
1.0
 92
        8
 66
     7
 43
1.0
 76
     1
 77
     6
 78
     2
 67
     7
 79
     5
170
     0
171
     0
290
     0
174
     0
 93
        1
 44
50.0
173
     0
291
     1
 45
0.0
  0
VISUALSTYLE
  5
3A
102
{ACAD_REACTORS
330
2A
102
}
102
{ACAD_XDICTIONARY
360
68
102
}
330
2A
100
AcDbVisualStyle
  2
ColorChange
 70
    16
 71
     2
 72
     2
 73
     3
 90
        0
 40
-0.6
 41
-30.0
 62
     5
 63
     8
421
  8421504
 74
     1
 91
        4
 64
     7
 65
   257
 75
     1
175
     1
 42
1.0
 92
        8
 66
     8
424
  8421504
 43
1.0
 76
     1
 77
     6
 78
     2
 67
     7
 79
     5
170
     0
171
     0
290
     0
174
     0
 93
        1
 44
0.0
173
     0
291
     1
 45
0.0
  0
VISUALSTYLE
  5
34
102
{ACAD_REACTORS
330
2A
102
}
102
{ACAD_XDICTIONARY
360
5C
102
}
330
2A
100
AcDbVisualStyle
  2
Conceptual
 70
     9
 71
     3
 72
     2
 73
     0
 90
        0
 40
-0.6
 41
-30.0
 62
     5
 63
     7
421
 16777215
 74
     2
 91
        2
 64
     7
 65
   257
 75
     1
175
     1
 42
40.0
 92
        8
 66
     7
 43
1.0
 76
     1
 77
     6
 78
     2
 67
     7
 79
     3
170
     0
171
     0
290
     0
174
     0
 93
        1
 44
0.0
173
     0
291
     0
 45
0.0
  0
VISUALSTYLE
  5
35
102
{ACAD_REACTORS
330
2A
102
}
102
{ACAD_XDICTIONARY
360
5E
102
}
330
2A
100
AcDbVisualStyle
  2
Dim
 70
    11
 71
     2
 72
     2
 73
     0
 90
        0
 40
-0.6
 41
-30.0
 62
     5
 63
     7
421
 16777215
 74
     1
 91
        4
 64
     7
 65
   257
 75
     1
175
     1
 42
1.0
 92
        8
 66
     7
 43
1.0
 76
     1
 77
     6
 78
     2
 67
     7
 79
     5
170
     0
171
     0
290
     0
174
     0
 93
        1
 44
-50.0
173
     0
291
     1
 45
0.0
  0
VISUALSTYLE
  5
39
102
{ACAD_REACTORS
330
2A
102
}
102
{ACAD_XDICTIONARY
360
66
102
}
330
2A
100
AcDbVisualStyle
  2
Facepattern
 70
    15
 71
     2
 72
     2
 73
     0
 90
        0
 40
-0.6
 41
-30.0
 62
     5
 63
     7
421
 16777215
 74
     1
 91
        4
 64
     7
 65
   257
 75
     1
175
     1
 42
1.0
 92
        8
 66
     7
 43
1.0
 76
     1
 77
     6
 78
     2
 67
     7
 79
     5
170
     0
171
     0
290
     0
174
     0
 93
        1
 44
0.0
173
     0
291
     1
 45
0.0
  0
VISUALSTYLE
  5
2B
102
{ACAD_REACTORS
330
2A
102
}
102
{ACAD_XDICTIONARY
360
4A
102
}
330
2A
100
AcDbVisualStyle
  2
Flat
 70
     0
 71
     2
 72
     1
 73
     1
 90
        2
 40
-0.6
 41
30.0
 62
     5
 63
     7
421
 16777215
 74
     0
 91
        4
 64
     7
 65
   257
 75
     1
175
     1
 42
1.0
 92
        8
 66
     7
 43
1.0
 76
     1
 77
     6
 78
     2
 67
     7
 79
     5
170
     0
171
     0
290
     0
174
     0
 93
       13
 44
0.0
173
     0
291
     1
 45
0.0
  0
VISUALSTYLE
  5
2C
102
{ACAD_REACTORS
330
2A
102
}
102
{ACAD_XDICTIONARY
360
4C
102
}
330
2A
100
AcDbVisualStyle
  2
FlatWithEdges
 70
     1
 71
     2
 72
     1
 73
     1
 90
        2
 40
-0.6
 41
30.0
 62
     5
 63
     7
421
 16777215
 74
     1
 91
        4
 64
     7
 65
   257
 75
     1
175
     1
 42
1.0
 92
        0
 66
   257
 43
1.0
 76
     1
 77
     6
 78
     2
 67
     7
 79
     5
170
     0
171
     0
290
     0
174
     0
 93
       13
 44
0.0
173
     0
291
     1
 45
0.0
  0
VISUALSTYLE
  5
2D
102
{ACAD_REACTORS
330
2A
102
}
102
{ACAD_XDICTIONARY
360
4E
102
}
330
2A
100
AcDbVisualStyle
  2
Gouraud
 70
     2
 71
     2
 72
     2
 73
     1
 90
        2
 40
-0.6
 41
30.0
 62
     5
 63
     7
421
 16777215
 74
     0
 91
        4
 64
     7
 65
   257
 75
     1
175
     1
 42
1.0
 92
        0
 66
     7
 43
1.0
 76
     1
 77
     6
 78
     2
 67
     7
 79
     5
170
     0
171
     0
290
     0
174
     0
 93
       13
 44
0.0
173
     0
291
     1
 45
0.0
  0
VISUALSTYLE
  5
2E
102
{ACAD_REACTORS
330
2A
102
}
102
{ACAD_XDICTIONARY
360
50
102
}
330
2A
100
AcDbVisualStyle
  2
GouraudWithEdges
 70
     3
 71
     2
 72
     2
 73
     1
 90
        2
 40
-0.6
 41
30.0
 62
     5
 63
     7
421
 16777215
 74
     1
 91
        4
 64
     7
 65
   257
 75
     1
175
     1
 42
1.0
 92
        0
 66
   257
 43
1.0
 76
     1
 77
     6
 78
     2
 67
     7
 79
     5
170
     0
171
     0
290
     0
174
     0
 93
       13
 44
0.0
173
     0
291
     1
 45
0.0
  0
VISUALSTYLE
  5
38
102
{ACAD_REACTORS
330
2A
102
}
102
{ACAD_XDICTIONARY
360
64
102
}
330
2A
100
AcDbVisualStyle
  2
Linepattern
 70
    14
 71
     2
 72
     2
 73
     0
 90
        0
 40
-0.6
 41
-30.0
 62
     5
 63
     7
421
 16777215
 74
     1
 91
        4
 64
     7
 65
   257
 75
     7
175
     7
 42
1.0
 92
        8
 66
     7
 43
1.0
 76
     1
 77
     6
 78
     2
 67
     7
 79
     5
170
     0
171
     0
290
     0
174
     0
 93
        1
 44
0.0
173
     0
291
     1
 45
0.0
  0
VISUALSTYLE
  5
33
102
{ACAD_REACTORS
330
2A
102
}
102
{ACAD_XDICTIONARY
360
5A
102
}
330
2A
100
AcDbVisualStyle
  2
Realistic
 70
     8
 71
     2
 72
     2
 73
     0
 90
        0
 40
-0.6
 41
-30.0
 62
     5
 63
     7
421
 16777215
 74
     1
 91
        0
 64
     7
 65
   257
 75
     1
175
     1
 42
1.0
 92
        8
 66
     8
424
  7895160
 43
1.0
 76
     1
 77
     6
 78
     2
 67
     7
 79
     5
170
     0
171
     0
290
     0
174
     0
 93
       13
 44
0.0
173
     0
291
     0
 45
0.0
  0
VISUALSTYLE
  5
37
102
{ACAD_REACTORS
330
2A
102
}
102
{ACAD_XDICTIONARY
360
62
102
}
330
2A
100
AcDbVisualStyle
  2
Thicken
 70
    13
 71
     2
 72
     2
 73
     0
 90
        0
 40
-0.6
 41
-30.0
 62
     5
 63
     7
421
 16777215
 74
     1
 91
        4
 64
     7
 65
   257
 75
     1
175
     1
 42
1.0
 92
       12
 66
     7
 43
1.0
 76
     1
 77
     6
 78
     2
 67
     7
 79
     5
170
     0
171
     0
290
     0
174
     0
 93
        1
 44
0.0
173
     0
291
     1
 45
0.0
  0
DICTIONARY
  5
52
330
2F
100
AcDbDictionary
280
     1
281
     1
  3
ACAD_XREC_ROUNDTRIP
360
53
  0
DICTIONARY
  5
56
330
31
100
AcDbDictionary
280
     1
281
     1
  3
ACAD_XREC_ROUNDTRIP
360
57
  0
DICTIONARY
  5
54
330
30
100
AcDbDictionary
280
     1
281
     1
  3
ACAD_XREC_ROUNDTRIP
360
55
  0
DICTIONARY
  5
58
330
32
100
AcDbDictionary
280
     1
281
     1
  3
ACAD_XREC_ROUNDTRIP
360
59
  0
DICTIONARY
  5
60
330
36
100
AcDbDictionary
280
     1
281
     1
  3
ACAD_XREC_ROUNDTRIP
360
61
  0
DICTIONARY
  5
68
330
3A
100
AcDbDictionary
280
     1
281
     1
  3
ACAD_XREC_ROUNDTRIP
360
69
  0
DICTIONARY
  5
5C
330
34
100
AcDbDictionary
280
     1
281
     1
  3
ACAD_XREC_ROUNDTRIP
360
5D
  0
DICTIONARY
  5
5E
330
35
100
AcDbDictionary
280
     1
281
     1
  3
ACAD_XREC_ROUNDTRIP
360
5F
  0
DICTIONARY
  5
66
330
39
100
AcDbDictionary
280
     1
281
     1
  3
ACAD_XREC_ROUNDTRIP
360
67
  0
DICTIONARY
  5
4A
330
2B
100
AcDbDictionary
280
     1
281
     1
  3
ACAD_XREC_ROUNDTRIP
360
4B
  0
DICTIONARY
  5
4C
330
2C
100
AcDbDictionary
280
     1
281
     1
  3
ACAD_XREC_ROUNDTRIP
360
4D
  0
DICTIONARY
  5
4E
330
2D
100
AcDbDictionary
280
     1
281
     1
  3
ACAD_XREC_ROUNDTRIP
360
4F
  0
DICTIONARY
  5
50
330
2E
100
AcDbDictionary
280
     1
281
     1
  3
ACAD_XREC_ROUNDTRIP
360
51
  0
DICTIONARY
  5
64
330
38
100
AcDbDictionary
280
     1
281
     1
  3
ACAD_XREC_ROUNDTRIP
360
65
  0
DICTIONARY
  5
5A
330
33
100
AcDbDictionary
280
     1
281
     1
  3
ACAD_XREC_ROUNDTRIP
360
5B
  0
DICTIONARY
  5
62
330
37
100
AcDbDictionary
280
     1
281
     1
  3
ACAD_XREC_ROUNDTRIP
360
63
  0
XRECORD
  5
53
102
{ACAD_REACTORS
330
52
102
}
330
52
100
AcDbXrecord
280
     1
102
RTVSPropertyOp0
 70
     1
102
RTVSPropertyOp1
 70
     1
102
RTVSPropertyOp2
 70
     1
102
RTVSPropertyOp3
 70
     1
102
RTVSPropertyOp4
 70
     1
102
RTVSPropertyOp5
 70
     1
102
RTVSPropertyOp6
 70
     1
102
RTVSPropertyOp7
 70
     1
102
RTVSPropertyOp8
 70
     1
102
RTVSPropertyOp9
 70
     1
102
RTVSPropertyOp10
 70
     1
102
RTVSPropertyOp11
 70
     1
102
RTVSPropertyOp12
 70
     1
102
RTVSPropertyOp13
 70
     1
102
RTVSPropertyOp14
 70
     1
102
RTVSPropertyOp15
 70
     1
102
RTVSPropertyOp16
 70
     1
102
RTVSPropertyOp17
 70
     1
102
RTVSPropertyOp18
 70
     1
102
RTVSPropertyOp19
 70
     1
102
RTVSPropertyOp20
 70
     1
102
RTVSPropertyOp21
 70
     1
102
RTVSPropertyOp22
 70
     1
102
RTVSPropertyOp23
 70
     1
102
RTVSPropertyOp24
 70
     1
102
RTVSPropertyOp25
 70
     1
102
RTVSPropertyOp26
 70
     1
102
RTVSPropertyOp27
 70
     1
102
RTVSPropertyOp28
 70
     1
102
RTVSPropertyOp29
 70
     1
102
RTVSPropertyOp30
 70
     1
102
RTVSPropertyOp31
 70
     1
102
RTVSPropertyOp32
 70
     1
  0
XRECORD
  5
57
102
{ACAD_REACTORS
330
56
102
}
330
56
100
AcDbXrecord
280
     1
102
RTVSPropertyOp0
 70
     1
102
RTVSPropertyOp1
 70
     1
102
RTVSPropertyOp2
 70
     1
102
RTVSPropertyOp3
 70
     1
102
RTVSPropertyOp4
 70
     1
102
RTVSPropertyOp5
 70
     1
102
RTVSPropertyOp6
 70
     1
102
RTVSPropertyOp7
 70
     1
102
RTVSPropertyOp8
 70
     1
102
RTVSPropertyOp9
 70
     1
102
RTVSPropertyOp10
 70
     1
102
RTVSPropertyOp11
 70
     1
102
RTVSPropertyOp12
 70
     1
102
RTVSPropertyOp13
 70
     1
102
RTVSPropertyOp14
 70
     1
102
RTVSPropertyOp15
 70
     1
102
RTVSPropertyOp16
 70
     1
102
RTVSPropertyOp17
 70
     1
102
RTVSPropertyOp18
 70
     1
102
RTVSPropertyOp19
 70
     1
102
RTVSPropertyOp20
 70
     1
102
RTVSPropertyOp21
 70
     1
102
RTVSPropertyOp22
 70
     1
102
RTVSPropertyOp23
 70
     1
102
RTVSPropertyOp24
 70
     1
102
RTVSPropertyOp25
 70
     1
102
RTVSPropertyOp26
 70
     1
102
RTVSPropertyOp27
 70
     1
102
RTVSPropertyOp28
 70
     1
102
RTVSPropertyOp29
 70
     1
102
RTVSPropertyOp30
 70
     1
102
RTVSPropertyOp31
 70
     1
102
RTVSPropertyOp32
 70
     1
  0
XRECORD
  5
55
102
{ACAD_REACTORS
330
54
102
}
330
54
100
AcDbXrecord
280
     1
102
RTVSPropertyOp0
 70
     1
102
RTVSPropertyOp1
 70
     1
102
RTVSPropertyOp2
 70
     1
102
RTVSPropertyOp3
 70
     1
102
RTVSPropertyOp4
 70
     1
102
RTVSPropertyOp5
 70
     1
102
RTVSPropertyOp6
 70
     1
102
RTVSPropertyOp7
 70
     1
102
RTVSPropertyOp8
 70
     1
102
RTVSPropertyOp9
 70
     1
102
RTVSPropertyOp10
 70
     1
102
RTVSPropertyOp11
 70
     1
102
RTVSPropertyOp12
 70
     1
102
RTVSPropertyOp13
 70
     1
102
RTVSPropertyOp14
 70
     1
102
RTVSPropertyOp15
 70
     1
102
RTVSPropertyOp16
 70
     1
102
RTVSPropertyOp17
 70
     1
102
RTVSPropertyOp18
 70
     1
102
RTVSPropertyOp19
 70
     1
102
RTVSPropertyOp20
 70
     1
102
RTVSPropertyOp21
 70
     1
102
RTVSPropertyOp22
 70
     1
102
RTVSPropertyOp23
 70
     1
102
RTVSPropertyOp24
 70
     1
102
RTVSPropertyOp25
 70
     1
102
RTVSPropertyOp26
 70
     1
102
RTVSPropertyOp27
 70
     1
102
RTVSPropertyOp28
 70
     1
102
RTVSPropertyOp29
 70
     1
102
RTVSPropertyOp30
 70
     1
102
RTVSPropertyOp31
 70
     1
102
RTVSPropertyOp32
 70
     1
  0
XRECORD
  5
59
102
{ACAD_REACTORS
330
58
102
}
330
58
100
AcDbXrecord
280
     1
102
RTVSPropertyOp0
 70
     1
102
RTVSPropertyOp1
 70
     1
102
RTVSPropertyOp2
 70
     1
102
RTVSPropertyOp3
 70
     1
102
RTVSPropertyOp4
 70
     1
102
RTVSPropertyOp5
 70
     1
102
RTVSPropertyOp6
 70
     1
102
RTVSPropertyOp7
 70
     1
102
RTVSPropertyOp8
 70
     1
102
RTVSPropertyOp9
 70
     1
102
RTVSPropertyOp10
 70
     1
102
RTVSPropertyOp11
 70
     1
102
RTVSPropertyOp12
 70
     1
102
RTVSPropertyOp13
 70
     1
102
RTVSPropertyOp14
 70
     1
102
RTVSPropertyOp15
 70
     1
102
RTVSPropertyOp16
 70
     1
102
RTVSPropertyOp17
 70
     1
102
RTVSPropertyOp18
 70
     1
102
RTVSPropertyOp19
 70
     1
102
RTVSPropertyOp20
 70
     1
102
RTVSPropertyOp21
 70
     1
102
RTVSPropertyOp22
 70
     1
102
RTVSPropertyOp23
 70
     1
102
RTVSPropertyOp24
 70
     1
102
RTVSPropertyOp25
 70
     1
102
RTVSPropertyOp26
 70
     1
102
RTVSPropertyOp27
 70
     1
102
RTVSPropertyOp28
 70
     1
102
RTVSPropertyOp29
 70
     1
102
RTVSPropertyOp30
 70
     1
102
RTVSPropertyOp31
 70
     1
102
RTVSPropertyOp32
 70
     1
  0
XRECORD
  5
61
102
{ACAD_REACTORS
330
60
102
}
330
60
100
AcDbXrecord
280
     1
102
RTVSPropertyOp0
 70
     1
102
RTVSPropertyOp1
 70
     1
102
RTVSPropertyOp2
 70
     1
102
RTVSPropertyOp3
 70
     1
102
RTVSPropertyOp4
 70
     1
102
RTVSPropertyOp5
 70
     1
102
RTVSPropertyOp6
 70
     1
102
RTVSPropertyOp7
 70
     1
102
RTVSPropertyOp8
 70
     1
102
RTVSPropertyOp9
 70
     1
102
RTVSPropertyOp10
 70
     1
102
RTVSPropertyOp11
 70
     1
102
RTVSPropertyOp12
 70
     1
102
RTVSPropertyOp13
 70
     1
102
RTVSPropertyOp14
 70
     1
102
RTVSPropertyOp15
 70
     1
102
RTVSPropertyOp16
 70
     1
102
RTVSPropertyOp17
 70
     1
102
RTVSPropertyOp18
 70
     1
102
RTVSPropertyOp19
 70
     1
102
RTVSPropertyOp20
 70
     1
102
RTVSPropertyOp21
 70
     1
102
RTVSPropertyOp22
 70
     1
102
RTVSPropertyOp23
 70
     1
102
RTVSPropertyOp24
 70
     1
102
RTVSPropertyOp25
 70
     1
102
RTVSPropertyOp26
 70
     1
102
RTVSPropertyOp27
 70
     1
102
RTVSPropertyOp28
 70
     1
102
RTVSPropertyOp29
 70
     1
102
RTVSPropertyOp30
 70
     1
102
RTVSPropertyOp31
 70
     1
102
RTVSPropertyOp32
 70
     1
  0
XRECORD
  5
69
102
{ACAD_REACTORS
330
68
102
}
330
68
100
AcDbXrecord
280
     1
102
RTVSPropertyOp0
 70
     1
102
RTVSPropertyOp1
 70
     1
102
RTVSPropertyOp2
 70
     1
102
RTVSPropertyOp3
 70
     1
102
RTVSPropertyOp4
 70
     1
102
RTVSPropertyOp5
 70
     1
102
RTVSPropertyOp6
 70
     1
102
RTVSPropertyOp7
 70
     1
102
RTVSPropertyOp8
 70
     1
102
RTVSPropertyOp9
 70
     1
102
RTVSPropertyOp10
 70
     1
102
RTVSPropertyOp11
 70
     1
102
RTVSPropertyOp12
 70
     1
102
RTVSPropertyOp13
 70
     1
102
RTVSPropertyOp14
 70
     1
102
RTVSPropertyOp15
 70
     1
102
RTVSPropertyOp16
 70
     1
102
RTVSPropertyOp17
 70
     1
102
RTVSPropertyOp18
 70
     1
102
RTVSPropertyOp19
 70
     1
102
RTVSPropertyOp20
 70
     1
102
RTVSPropertyOp21
 70
     1
102
RTVSPropertyOp22
 70
     1
102
RTVSPropertyOp23
 70
     1
102
RTVSPropertyOp24
 70
     1
102
RTVSPropertyOp25
 70
     1
102
RTVSPropertyOp26
 70
     1
102
RTVSPropertyOp27
 70
     1
102
RTVSPropertyOp28
 70
     1
102
RTVSPropertyOp29
 70
     1
102
RTVSPropertyOp30
 70
     1
102
RTVSPropertyOp31
 70
     1
102
RTVSPropertyOp32
 70
     1
  0
XRECORD
  5
5D
102
{ACAD_REACTORS
330
5C
102
}
330
5C
100
AcDbXrecord
280
     1
102
RTVSPropertyOp0
 70
     1
102
RTVSPropertyOp1
 70
     1
102
RTVSPropertyOp2
 70
     1
102
RTVSPropertyOp3
 70
     1
102
RTVSPropertyOp4
 70
     1
102
RTVSPropertyOp5
 70
     1
102
RTVSPropertyOp6
 70
     1
102
RTVSPropertyOp7
 70
     1
102
RTVSPropertyOp8
 70
     1
102
RTVSPropertyOp9
 70
     1
102
RTVSPropertyOp10
 70
     1
102
RTVSPropertyOp11
 70
     1
102
RTVSPropertyOp12
 70
     1
102
RTVSPropertyOp13
 70
     1
102
RTVSPropertyOp14
 70
     1
102
RTVSPropertyOp15
 70
     1
102
RTVSPropertyOp16
 70
     1
102
RTVSPropertyOp17
 70
     1
102
RTVSPropertyOp18
 70
     1
102
RTVSPropertyOp19
 70
     1
102
RTVSPropertyOp20
 70
     1
102
RTVSPropertyOp21
 70
     1
102
RTVSPropertyOp22
 70
     1
102
RTVSPropertyOp23
 70
     1
102
RTVSPropertyOp24
 70
     1
102
RTVSPropertyOp25
 70
     1
102
RTVSPropertyOp26
 70
     1
102
RTVSPropertyOp27
 70
     1
102
RTVSPropertyOp28
 70
     1
102
RTVSPropertyOp29
 70
     1
102
RTVSPropertyOp30
 70
     1
102
RTVSPropertyOp31
 70
     1
102
RTVSPropertyOp32
 70
     1
  0
XRECORD
  5
5F
102
{ACAD_REACTORS
330
5E
102
}
330
5E
100
AcDbXrecord
280
     1
102
RTVSPropertyOp0
 70
     1
102
RTVSPropertyOp1
 70
     1
102
RTVSPropertyOp2
 70
     1
102
RTVSPropertyOp3
 70
     1
102
RTVSPropertyOp4
 70
     1
102
RTVSPropertyOp5
 70
     1
102
RTVSPropertyOp6
 70
     1
102
RTVSPropertyOp7
 70
     1
102
RTVSPropertyOp8
 70
     1
102
RTVSPropertyOp9
 70
     1
102
RTVSPropertyOp10
 70
     1
102
RTVSPropertyOp11
 70
     1
102
RTVSPropertyOp12
 70
     1
102
RTVSPropertyOp13
 70
     1
102
RTVSPropertyOp14
 70
     1
102
RTVSPropertyOp15
 70
     1
102
RTVSPropertyOp16
 70
     1
102
RTVSPropertyOp17
 70
     1
102
RTVSPropertyOp18
 70
     1
102
RTVSPropertyOp19
 70
     1
102
RTVSPropertyOp20
 70
     1
102
RTVSPropertyOp21
 70
     1
102
RTVSPropertyOp22
 70
     1
102
RTVSPropertyOp23
 70
     1
102
RTVSPropertyOp24
 70
     1
102
RTVSPropertyOp25
 70
     1
102
RTVSPropertyOp26
 70
     1
102
RTVSPropertyOp27
 70
     1
102
RTVSPropertyOp28
 70
     1
102
RTVSPropertyOp29
 70
     1
102
RTVSPropertyOp30
 70
     1
102
RTVSPropertyOp31
 70
     1
102
RTVSPropertyOp32
 70
     1
  0
XRECORD
  5
67
102
{ACAD_REACTORS
330
66
102
}
330
66
100
AcDbXrecord
280
     1
102
RTVSPropertyOp0
 70
     1
102
RTVSPropertyOp1
 70
     1
102
RTVSPropertyOp2
 70
     1
102
RTVSPropertyOp3
 70
     1
102
RTVSPropertyOp4
 70
     1
102
RTVSPropertyOp5
 70
     1
102
RTVSPropertyOp6
 70
     1
102
RTVSPropertyOp7
 70
     1
102
RTVSPropertyOp8
 70
     1
102
RTVSPropertyOp9
 70
     1
102
RTVSPropertyOp10
 70
     1
102
RTVSPropertyOp11
 70
     1
102
RTVSPropertyOp12
 70
     1
102
RTVSPropertyOp13
 70
     1
102
RTVSPropertyOp14
 70
     1
102
RTVSPropertyOp15
 70
     1
102
RTVSPropertyOp16
 70
     1
102
RTVSPropertyOp17
 70
     1
102
RTVSPropertyOp18
 70
     1
102
RTVSPropertyOp19
 70
     1
102
RTVSPropertyOp20
 70
     1
102
RTVSPropertyOp21
 70
     1
102
RTVSPropertyOp22
 70
     1
102
RTVSPropertyOp23
 70
     1
102
RTVSPropertyOp24
 70
     1
102
RTVSPropertyOp25
 70
     1
102
RTVSPropertyOp26
 70
     1
102
RTVSPropertyOp27
 70
     1
102
RTVSPropertyOp28
 70
     1
102
RTVSPropertyOp29
 70
     1
102
RTVSPropertyOp30
 70
     1
102
RTVSPropertyOp31
 70
     1
102
RTVSPropertyOp32
 70
     1
  0
XRECORD
  5
4B
102
{ACAD_REACTORS
330
4A
102
}
330
4A
100
AcDbXrecord
280
     1
102
RTVSPropertyOp0
 70
     1
102
RTVSPropertyOp1
 70
     1
102
RTVSPropertyOp2
 70
     1
102
RTVSPropertyOp3
 70
     1
102
RTVSPropertyOp4
 70
     1
102
RTVSPropertyOp5
 70
     1
102
RTVSPropertyOp6
 70
     1
102
RTVSPropertyOp7
 70
     1
102
RTVSPropertyOp8
 70
     1
102
RTVSPropertyOp9
 70
     1
102
RTVSPropertyOp10
 70
     1
102
RTVSPropertyOp11
 70
     1
102
RTVSPropertyOp12
 70
     1
102
RTVSPropertyOp13
 70
     1
102
RTVSPropertyOp14
 70
     1
102
RTVSPropertyOp15
 70
     1
102
RTVSPropertyOp16
 70
     1
102
RTVSPropertyOp17
 70
     1
102
RTVSPropertyOp18
 70
     1
102
RTVSPropertyOp19
 70
     1
102
RTVSPropertyOp20
 70
     1
102
RTVSPropertyOp21
 70
     1
102
RTVSPropertyOp22
 70
     1
102
RTVSPropertyOp23
 70
     1
102
RTVSPropertyOp24
 70
     1
102
RTVSPropertyOp25
 70
     1
102
RTVSPropertyOp26
 70
     1
102
RTVSPropertyOp27
 70
     1
102
RTVSPropertyOp28
 70
     1
102
RTVSPropertyOp29
 70
     1
102
RTVSPropertyOp30
 70
     1
102
RTVSPropertyOp31
 70
     1
102
RTVSPropertyOp32
 70
     1
  0
XRECORD
  5
4D
102
{ACAD_REACTORS
330
4C
102
}
330
4C
100
AcDbXrecord
280
     1
102
RTVSPropertyOp0
 70
     1
102
RTVSPropertyOp1
 70
     1
102
RTVSPropertyOp2
 70
     1
102
RTVSPropertyOp3
 70
     1
102
RTVSPropertyOp4
 70
     1
102
RTVSPropertyOp5
 70
     1
102
RTVSPropertyOp6
 70
     1
102
RTVSPropertyOp7
 70
     1
102
RTVSPropertyOp8
 70
     1
102
RTVSPropertyOp9
 70
     1
102
RTVSPropertyOp10
 70
     1
102
RTVSPropertyOp11
 70
     1
102
RTVSPropertyOp12
 70
     1
102
RTVSPropertyOp13
 70
     1
102
RTVSPropertyOp14
 70
     1
102
RTVSPropertyOp15
 70
     1
102
RTVSPropertyOp16
 70
     1
102
RTVSPropertyOp17
 70
     1
102
RTVSPropertyOp18
 70
     1
102
RTVSPropertyOp19
 70
     1
102
RTVSPropertyOp20
 70
     1
102
RTVSPropertyOp21
 70
     1
102
RTVSPropertyOp22
 70
     1
102
RTVSPropertyOp23
 70
     1
102
RTVSPropertyOp24
 70
     1
102
RTVSPropertyOp25
 70
     1
102
RTVSPropertyOp26
 70
     1
102
RTVSPropertyOp27
 70
     1
102
RTVSPropertyOp28
 70
     1
102
RTVSPropertyOp29
 70
     1
102
RTVSPropertyOp30
 70
     1
102
RTVSPropertyOp31
 70
     1
102
RTVSPropertyOp32
 70
     1
  0
XRECORD
  5
4F
102
{ACAD_REACTORS
330
4E
102
}
330
4E
100
AcDbXrecord
280
     1
102
RTVSPropertyOp0
 70
     1
102
RTVSPropertyOp1
 70
     1
102
RTVSPropertyOp2
 70
     1
102
RTVSPropertyOp3
 70
     1
102
RTVSPropertyOp4
 70
     1
102
RTVSPropertyOp5
 70
     1
102
RTVSPropertyOp6
 70
     1
102
RTVSPropertyOp7
 70
     1
102
RTVSPropertyOp8
 70
     1
102
RTVSPropertyOp9
 70
     1
102
RTVSPropertyOp10
 70
     1
102
RTVSPropertyOp11
 70
     1
102
RTVSPropertyOp12
 70
     1
102
RTVSPropertyOp13
 70
     1
102
RTVSPropertyOp14
 70
     1
102
RTVSPropertyOp15
 70
     1
102
RTVSPropertyOp16
 70
     1
102
RTVSPropertyOp17
 70
     1
102
RTVSPropertyOp18
 70
     1
102
RTVSPropertyOp19
 70
     1
102
RTVSPropertyOp20
 70
     1
102
RTVSPropertyOp21
 70
     1
102
RTVSPropertyOp22
 70
     1
102
RTVSPropertyOp23
 70
     1
102
RTVSPropertyOp24
 70
     1
102
RTVSPropertyOp25
 70
     1
102
RTVSPropertyOp26
 70
     1
102
RTVSPropertyOp27
 70
     1
102
RTVSPropertyOp28
 70
     1
102
RTVSPropertyOp29
 70
     1
102
RTVSPropertyOp30
 70
     1
102
RTVSPropertyOp31
 70
     1
102
RTVSPropertyOp32
 70
     1
  0
XRECORD
  5
51
102
{ACAD_REACTORS
330
50
102
}
330
50
100
AcDbXrecord
280
     1
102
RTVSPropertyOp0
 70
     1
102
RTVSPropertyOp1
 70
     1
102
RTVSPropertyOp2
 70
     1
102
RTVSPropertyOp3
 70
     1
102
RTVSPropertyOp4
 70
     1
102
RTVSPropertyOp5
 70
     1
102
RTVSPropertyOp6
 70
     1
102
RTVSPropertyOp7
 70
     1
102
RTVSPropertyOp8
 70
     1
102
RTVSPropertyOp9
 70
     1
102
RTVSPropertyOp10
 70
     1
102
RTVSPropertyOp11
 70
     1
102
RTVSPropertyOp12
 70
     1
102
RTVSPropertyOp13
 70
     1
102
RTVSPropertyOp14
 70
     1
102
RTVSPropertyOp15
 70
     1
102
RTVSPropertyOp16
 70
     1
102
RTVSPropertyOp17
 70
     1
102
RTVSPropertyOp18
 70
     1
102
RTVSPropertyOp19
 70
     1
102
RTVSPropertyOp20
 70
     1
102
RTVSPropertyOp21
 70
     1
102
RTVSPropertyOp22
 70
     1
102
RTVSPropertyOp23
 70
     1
102
RTVSPropertyOp24
 70
     1
102
RTVSPropertyOp25
 70
     1
102
RTVSPropertyOp26
 70
     1
102
RTVSPropertyOp27
 70
     1
102
RTVSPropertyOp28
 70
     1
102
RTVSPropertyOp29
 70
     1
102
RTVSPropertyOp30
 70
     1
102
RTVSPropertyOp31
 70
     1
102
RTVSPropertyOp32
 70
     1
  0
XRECORD
  5
65
102
{ACAD_REACTORS
330
64
102
}
330
64
100
AcDbXrecord
280
     1
102
RTVSPropertyOp0
 70
     1
102
RTVSPropertyOp1
 70
     1
102
RTVSPropertyOp2
 70
     1
102
RTVSPropertyOp3
 70
     1
102
RTVSPropertyOp4
 70
     1
102
RTVSPropertyOp5
 70
     1
102
RTVSPropertyOp6
 70
     1
102
RTVSPropertyOp7
 70
     1
102
RTVSPropertyOp8
 70
     1
102
RTVSPropertyOp9
 70
     1
102
RTVSPropertyOp10
 70
     1
102
RTVSPropertyOp11
 70
     1
102
RTVSPropertyOp12
 70
     1
102
RTVSPropertyOp13
 70
     1
102
RTVSPropertyOp14
 70
     1
102
RTVSPropertyOp15
 70
     1
102
RTVSPropertyOp16
 70
     1
102
RTVSPropertyOp17
 70
     1
102
RTVSPropertyOp18
 70
     1
102
RTVSPropertyOp19
 70
     1
102
RTVSPropertyOp20
 70
     1
102
RTVSPropertyOp21
 70
     1
102
RTVSPropertyOp22
 70
     1
102
RTVSPropertyOp23
 70
     1
102
RTVSPropertyOp24
 70
     1
102
RTVSPropertyOp25
 70
     1
102
RTVSPropertyOp26
 70
     1
102
RTVSPropertyOp27
 70
     1
102
RTVSPropertyOp28
 70
     1
102
RTVSPropertyOp29
 70
     1
102
RTVSPropertyOp30
 70
     1
102
RTVSPropertyOp31
 70
     1
102
RTVSPropertyOp32
 70
     1
  0
XRECORD
  5
5B
102
{ACAD_REACTORS
330
5A
102
}
330
5A
100
AcDbXrecord
280
     1
102
RTVSPropertyOp0
 70
     1
102
RTVSPropertyOp1
 70
     1
102
RTVSPropertyOp2
 70
     1
102
RTVSPropertyOp3
 70
     1
102
RTVSPropertyOp4
 70
     1
102
RTVSPropertyOp5
 70
     1
102
RTVSPropertyOp6
 70
     1
102
RTVSPropertyOp7
 70
     1
102
RTVSPropertyOp8
 70
     1
102
RTVSPropertyOp9
 70
     1
102
RTVSPropertyOp10
 70
     1
102
RTVSPropertyOp11
 70
     1
102
RTVSPropertyOp12
 70
     1
102
RTVSPropertyOp13
 70
     1
102
RTVSPropertyOp14
 70
     1
102
RTVSPropertyOp15
 70
     1
102
RTVSPropertyOp16
 70
     1
102
RTVSPropertyOp17
 70
     1
102
RTVSPropertyOp18
 70
     1
102
RTVSPropertyOp19
 70
     1
102
RTVSPropertyOp20
 70
     1
102
RTVSPropertyOp21
 70
     1
102
RTVSPropertyOp22
 70
     1
102
RTVSPropertyOp23
 70
     1
102
RTVSPropertyOp24
 70
     1
102
RTVSPropertyOp25
 70
     1
102
RTVSPropertyOp26
 70
     1
102
RTVSPropertyOp27
 70
     1
102
RTVSPropertyOp28
 70
     1
102
RTVSPropertyOp29
 70
     1
102
RTVSPropertyOp30
 70
     1
102
RTVSPropertyOp31
 70
     1
102
RTVSPropertyOp32
 70
     1
  0
XRECORD
  5
63
102
{ACAD_REACTORS
330
62
102
}
330
62
100
AcDbXrecord
280
     1
102
RTVSPropertyOp0
 70
     1
102
RTVSPropertyOp1
 70
     1
102
RTVSPropertyOp2
 70
     1
102
RTVSPropertyOp3
 70
     1
102
RTVSPropertyOp4
 70
     1
102
RTVSPropertyOp5
 70
     1
102
RTVSPropertyOp6
 70
     1
102
RTVSPropertyOp7
 70
     1
102
RTVSPropertyOp8
 70
     1
102
RTVSPropertyOp9
 70
     1
102
RTVSPropertyOp10
 70
     1
102
RTVSPropertyOp11
 70
     1
102
RTVSPropertyOp12
 70
     1
102
RTVSPropertyOp13
 70
     1
102
RTVSPropertyOp14
 70
     1
102
RTVSPropertyOp15
 70
     1
102
RTVSPropertyOp16
 70
     1
102
RTVSPropertyOp17
 70
     1
102
RTVSPropertyOp18
 70
     1
102
RTVSPropertyOp19
 70
     1
102
RTVSPropertyOp20
 70
     1
102
RTVSPropertyOp21
 70
     1
102
RTVSPropertyOp22
 70
     1
102
RTVSPropertyOp23
 70
     1
102
RTVSPropertyOp24
 70
     1
102
RTVSPropertyOp25
 70
     1
102
RTVSPropertyOp26
 70
     1
102
RTVSPropertyOp27
 70
     1
102
RTVSPropertyOp28
 70
     1
102
RTVSPropertyOp29
 70
     1
102
RTVSPropertyOp30
 70
     1
102
RTVSPropertyOp31
 70
     1
102
RTVSPropertyOp32
 70
     1
  0
ENDSEC
  0
EOF
