<?xml version="1.0" encoding="UTF-8"?>
<!DOCTYPE svg PUBLIC "-//W3C//DTD SVG 1.1//EN" "http://www.w3.org/Graphics/SVG/1.1/DTD/svg11.dtd">
<!-- Creator: CorelDRAW X6 -->
<svg xmlns="http://www.w3.org/2000/svg" xml:space="preserve" width="200mm" height="200mm" version="1.1" shape-rendering="geometricPrecision" text-rendering="geometricPrecision" image-rendering="optimizeQuality" fill-rule="evenodd" clip-rule="evenodd"
viewBox="0 0 20000 20000"
 xmlns:xlink="http://www.w3.org/1999/xlink">
 <g id="Layer_x0020_1">
  <metadata id="CorelCorpID_0Corel-Layer"/>
  <circle fill="none" stroke="black" stroke-width="52.92" stroke-linecap="round" stroke-linejoin="round" cx="9000" cy="8000" r="300"/>
  <circle fill="none" stroke="black" stroke-width="52.92" stroke-linecap="round" stroke-linejoin="round" cx="9000" cy="9500" r="300"/>
  <path fill="none" fill-rule="nonzero" stroke="blue" stroke-width="52.92" stroke-linecap="round" stroke-linejoin="round" d="M14483 8058c71,149 36,313 -76,365 -112,52 -287,-86 -356,-235"/>
  <path fill="none" fill-rule="nonzero" stroke="blue" stroke-width="52.92" stroke-linecap="round" stroke-linejoin="round" d="M10752 8188c-69,150 -256,314 -368,262 -112,-52 -148,-217 -79,-367"/>
  <line fill="none" fill-rule="nonzero" stroke="blue" stroke-width="52.92" stroke-linecap="round" stroke-linejoin="round" x1="10173" y1="9175" x2="9901" y2= "8468" />
  <path fill="none" fill-rule="nonzero" stroke="blue" stroke-width="52.92" stroke-linecap="round" stroke-linejoin="round" d="M9901 8468c-59,-154 28,-280 193,-280"/>
  <line fill="none" fill-rule="nonzero" stroke="blue" stroke-width="52.92" stroke-linecap="round" stroke-linejoin="round" x1="9984" y1="8683" x2="14755" y2= "8683" />
  <line fill="none" fill-rule="nonzero" stroke="blue" stroke-width="52.92" stroke-linecap="round" stroke-linejoin="round" x1="10403" y1="8683" x2="11302" y2= "10939" />
  <line fill="none" fill-rule="nonzero" stroke="blue" stroke-width="52.92" stroke-linecap="round" stroke-linejoin="round" x1="12374" y1="10950" x2="12374" y2= "8683" />
  <line fill="none" fill-rule="nonzero" stroke="blue" stroke-width="52.92" stroke-linecap="round" stroke-linejoin="round" x1="13445" y1="10950" x2="14318" y2= "8683" />
  <line fill="none" fill-rule="nonzero" stroke="blue" stroke-width="52.92" stroke-linecap="round" stroke-linejoin="round" x1="11629" y1="10939" x2="10994" y2= "8683" />
  <line fill="none" fill-rule="nonzero" stroke="blue" stroke-width="52.92" stroke-linecap="round" stroke-linejoin="round" x1="13066" y1="10950" x2="13833" y2= "8683" />
  <line fill="none" fill-rule="nonzero" stroke="blue" stroke-width="52.92" stroke-linecap="round" stroke-linejoin="round" x1="12740" y1="10950" x2="13066" y2= "8683" />
  <line fill="none" fill-rule="nonzero" stroke="blue" stroke-width="52.92" stroke-linecap="round" stroke-linejoin="round" x1="12017" y1="10939" x2="11734" y2= "8683" />
  <path fill="none" stroke="black" stroke-width="52.92" stroke-linecap="round" stroke-linejoin="round" d="M14051 8188l-604 -1312c-69,-150 -260,-272 -425,-272l-1241 2c-165,0 -356,123 -425,273l-603 1309 3299 0z"/>
  <path fill="none" stroke="black" stroke-width="52.92" stroke-linecap="round" stroke-linejoin="round" d="M9700 9175l473 0 573 1494c59,154 242,280 407,280l2443 0c165,0 348,-126 407,-280l844 -2202c59,-154 -28,-280 -193,-280l-135 0c-4,-42 -15,-87 -36,-130l-774 -1634c-71,-149 -263,-269 -428,-267l-1803 25c-165,2 -356,127 -425,277l-748 1624c-16,35 -26,70 -31,105l-180 0c-31,0 -59,4 -84,13l-310 0 0 -400c0,-276 -224,-500 -500,-500l-400 0c-276,0 -500,224 -500,500l0 1900c0,276 224,500 500,500l400 0c276,0 500,-224 500,-500l0 -525z"/>
  <circle fill="none" stroke="black" stroke-width="52.92" stroke-linecap="round" stroke-linejoin="round" cx="9000" cy="8750" r="150"/>
 </g>
</svg>
