<?xml version="1.0" encoding="UTF-8"?>
<!DOCTYPE svg PUBLIC "-//W3C//DTD SVG 1.1//EN" "http://www.w3.org/Graphics/SVG/1.1/DTD/svg11.dtd">
<!-- Creator: CorelDRAW X6 -->
<svg xmlns="http://www.w3.org/2000/svg" xml:space="preserve" width="200mm" height="200mm" version="1.1" shape-rendering="geometricPrecision" text-rendering="geometricPrecision" image-rendering="optimizeQuality" fill-rule="evenodd" clip-rule="evenodd"
viewBox="0 0 20000 20000"
 xmlns:xlink="http://www.w3.org/1999/xlink">
 <g id="Layer_x0020_1">
  <metadata id="CorelCorpID_0Corel-Layer"/>
  <g id="_879167488">
   <path fill="none" fill-rule="nonzero" stroke="blue" stroke-width="52.92" stroke-linecap="round" stroke-linejoin="round" d="M-2136 20406c163,-340 153,-649 0,-931"/>
   <line fill="none" fill-rule="nonzero" stroke="blue" stroke-width="52.92" stroke-linecap="round" stroke-linejoin="round" x1="-1527" y1="20408" x2="-1527" y2= "19475" />
   <line fill="none" fill-rule="nonzero" stroke="blue" stroke-width="52.92" stroke-linecap="round" stroke-linejoin="round" x1="-1818" y1="20408" x2="-1818" y2= "19475" />
   <path fill="none" fill-rule="nonzero" stroke="blue" stroke-width="52.92" stroke-linecap="round" stroke-linejoin="round" d="M-2468 19881c0,66 53,119 119,119 66,0 119,-53 119,-119 0,-66 -53,-119 -119,-119 -66,0 -119,53 -119,119"/>
   <line fill="none" fill-rule="nonzero" stroke="blue" stroke-width="52.92" stroke-linecap="round" stroke-linejoin="round" x1="-4320" y1="19563" x2="-4320" y2= "18813" />
   <line fill="none" fill-rule="nonzero" stroke="blue" stroke-width="52.92" stroke-linecap="round" stroke-linejoin="round" x1="-4320" y1="20313" x2="-4320" y2= "21063" />
   <path fill="none" stroke="black" stroke-width="52.92" stroke-linecap="round" stroke-linejoin="round" d="M-1450 20950l0 -525 -690 0 0 -15c-179,385 -569,652 -1021,652l-1500 0 0 -750 1683 0c352,-122 319,-671 -26,-750l-1656 0 0 -750 1500 0c452,0 842,267 1021,652l0 -14 690 0 0 -400c0,-276 224,-500 500,-500l400 0c276,0 500,224 500,500l0 1900c0,276 -224,500 -500,500l-400 0c-276,0 -500,-224 -500,-500z"/>
   <circle fill="none" stroke="black" stroke-width="52.92" stroke-linecap="round" stroke-linejoin="round" cx="-750" cy="19250" r="325"/>
   <circle fill="none" stroke="black" stroke-width="52.92" stroke-linecap="round" stroke-linejoin="round" cx="-750" cy="20750" r="325"/>
  </g>
  <g id="_879217888">
   <path fill="none" fill-rule="nonzero" stroke="blue" stroke-width="52.92" stroke-linecap="round" stroke-linejoin="round" d="M2136 20406c-163,-340 -153,-649 0,-931"/>
   <line fill="none" fill-rule="nonzero" stroke="blue" stroke-width="52.92" stroke-linecap="round" stroke-linejoin="round" x1="1527" y1="20408" x2="1527" y2= "19475" />
   <line fill="none" fill-rule="nonzero" stroke="blue" stroke-width="52.92" stroke-linecap="round" stroke-linejoin="round" x1="1818" y1="20408" x2="1818" y2= "19475" />
   <path fill="none" fill-rule="nonzero" stroke="blue" stroke-width="52.92" stroke-linecap="round" stroke-linejoin="round" d="M2468 19881c0,66 -53,119 -119,119 -66,0 -119,-53 -119,-119 0,-66 53,-119 119,-119 66,0 119,53 119,119"/>
   <line fill="none" fill-rule="nonzero" stroke="blue" stroke-width="52.92" stroke-linecap="round" stroke-linejoin="round" x1="4320" y1="19563" x2="4320" y2= "18813" />
   <line fill="none" fill-rule="nonzero" stroke="blue" stroke-width="52.92" stroke-linecap="round" stroke-linejoin="round" x1="4320" y1="20313" x2="4320" y2= "21063" />
   <path fill="none" stroke="black" stroke-width="52.92" stroke-linecap="round" stroke-linejoin="round" d="M1450 20950l0 -525 690 0 0 -15c179,385 569,652 1021,652l1500 0 0 -750 -1683 0c-352,-122 -319,-671 26,-750l1656 0 0 -750 -1500 0c-452,0 -842,267 -1021,652l0 -14 -690 0 0 -400c0,-276 -224,-500 -500,-500l-400 0c-276,0 -500,224 -500,500l0 1900c0,276 224,500 500,500l400 0c276,0 500,-224 500,-500z"/>
   <circle fill="none" stroke="black" stroke-width="52.92" stroke-linecap="round" stroke-linejoin="round" cx="750" cy="19250" r="325"/>
   <circle fill="none" stroke="black" stroke-width="52.92" stroke-linecap="round" stroke-linejoin="round" cx="750" cy="20750" r="325"/>
  </g>
  <circle fill="none" stroke="black" stroke-width="52.92" stroke-linecap="round" stroke-linejoin="round" cx="-750" cy="20000" r="180"/>
  <circle fill="none" stroke="black" stroke-width="52.92" stroke-linecap="round" stroke-linejoin="round" cx="750" cy="20000" r="180"/>
 </g>
</svg>
