<?xml version="1.0" encoding="UTF-8"?>
<!DOCTYPE svg PUBLIC "-//W3C//DTD SVG 1.1//EN" "http://www.w3.org/Graphics/SVG/1.1/DTD/svg11.dtd">
<!-- Creator: CorelDRAW X6 -->
<svg xmlns="http://www.w3.org/2000/svg" xml:space="preserve" width="200mm" height="200mm" version="1.1" shape-rendering="geometricPrecision" text-rendering="geometricPrecision" image-rendering="optimizeQuality" fill-rule="evenodd" clip-rule="evenodd"
viewBox="0 0 20000 20000"
 xmlns:xlink="http://www.w3.org/1999/xlink">
 <g id="Layer_x0020_1">
  <metadata id="CorelCorpID_0Corel-Layer"/>
  <circle fill="none" stroke="black" stroke-width="52.92" stroke-linecap="round" stroke-linejoin="round" transform="matrix(1.6266E-014 -0.614169 0.614169 1.6266E-014 -0.03 20000)" r="529"/>
  <circle fill="none" stroke="black" stroke-width="52.92" stroke-linecap="round" stroke-linejoin="round" transform="matrix(1.6266E-014 -0.614169 0.614169 1.6266E-014 1499.97 20000)" r="529"/>
  <circle fill="none" stroke="black" stroke-width="52.92" stroke-linecap="round" stroke-linejoin="round" transform="matrix(1.6266E-014 -0.614169 0.614169 1.6266E-014 -1500.03 20000)" r="529"/>
  <path fill="none" fill-rule="nonzero" stroke="blue" stroke-width="52.92" stroke-linecap="round" stroke-linejoin="round" d="M-968 17578c-79,57 -185,1 -200,-92 -20,-120 147,-186 224,-97 46,54 34,147 -24,188"/>
  <path fill="none" fill-rule="nonzero" stroke="blue" stroke-width="52.92" stroke-linecap="round" stroke-linejoin="round" d="M-1044 17428c-5,-18 -23,-31 -48,-25 -49,13 -32,86 19,76 23,-4 34,-31 29,-51z"/>
  <path fill="none" fill-rule="nonzero" stroke="blue" stroke-width="52.92" stroke-linecap="round" stroke-linejoin="round" d="M1166 17509c-14,41 -45,77 -87,88 -92,25 -196,-77 -160,-171 29,-97 173,-115 231,-39 27,35 30,82 16,123"/>
  <path fill="none" fill-rule="nonzero" stroke="blue" stroke-width="52.92" stroke-linecap="round" stroke-linejoin="round" d="M987 17406c13,-10 32,-13 45,-3 19,13 22,42 6,58 -12,13 -34,16 -49,6 -10,-6 -16,-17 -18,-29 -2,-13 4,-24 15,-32z"/>
  <path fill="none" fill-rule="nonzero" stroke="blue" stroke-width="52.92" stroke-linecap="round" stroke-linejoin="round" d="M-282 17415c0,-440 -356,-796 -796,-796 -440,0 -796,356 -796,796 0,440 357,796 796,796 440,0 796,-356 796,-796"/>
  <path fill="none" fill-rule="nonzero" stroke="blue" stroke-width="52.92" stroke-linecap="round" stroke-linejoin="round" d="M1838 17415c0,-440 -356,-796 -796,-796 -440,0 -796,356 -796,796 0,440 357,796 796,796 440,0 796,-356 796,-796"/>
  <path fill="none" fill-rule="nonzero" stroke="blue" stroke-width="52.92" stroke-linecap="round" stroke-linejoin="round" d="M304 18213c0,184 -149,333 -333,333"/>
  <path fill="none" fill-rule="nonzero" stroke="blue" stroke-width="52.92" stroke-linecap="round" stroke-linejoin="round" d="M-29 18547c-184,0 -333,-149 -333,-333"/>
  <path fill="none" fill-rule="nonzero" stroke="blue" stroke-width="52.92" stroke-linecap="round" stroke-linejoin="round" d="M273 15025c-164,11 -336,46 -465,154 -81,68 -163,140 -222,228 -55,82 -106,163 -147,253 -74,165 -83,326 -8,490 66,143 174,262 326,313 104,35 229,44 335,10 45,-14 88,-30 129,-55 72,-43 115,-99 151,-174 25,-53 47,-120 44,-179 -3,-57 -21,-113 -58,-157 -39,-47 -89,-77 -73,-147 16,-69 76,-126 126,-172 -102,6 -191,27 -290,51 30,-105 121,-191 190,-272 -99,-27 -209,13 -292,64 7,-57 43,-119 69,-170 25,-50 62,-97 101,-137 28,-29 96,-66 106,-104 -8,0 -15,1 -23,1"/>
  <path fill="none" stroke="black" stroke-width="52.92" stroke-linecap="round" stroke-linejoin="round" d="M1700 20700l-3400 0c-276,0 -500,-224 -500,-500l0 -400c0,-276 224,-500 500,-500l1213 0 0 -347 -1854 0c-132,0 -241,-108 -241,-241l0 -2521c0,-132 108,-241 241,-241l1722 0c-6,-96 16,-192 59,-289 41,-91 92,-171 147,-253 59,-88 141,-160 222,-228 129,-109 301,-144 465,-154 8,-1 15,-1 23,-1 -10,38 -78,75 -106,104 -39,40 -76,87 -101,137 -26,51 -62,112 -69,170 83,-51 194,-91 292,-64 -69,80 -159,167 -190,272 100,-24 188,-45 290,-51 -50,46 -110,103 -126,172 -16,70 34,100 73,147 10,13 19,26 27,41l1908 0c132,0 241,108 241,241l0 2521c0,132 -108,241 -241,241l-1807 0 0 347 1213 0c276,0 500,224 500,500l0 400c0,276 -224,500 -500,500z"/>
  <circle fill="none" stroke="black" stroke-width="52.92" stroke-linecap="round" stroke-linejoin="round" transform="matrix(9.00886E-015 -0.340155 0.340155 9.00886E-015 -750.03 20000)" r="529"/>
  <circle fill="none" stroke="black" stroke-width="52.92" stroke-linecap="round" stroke-linejoin="round" transform="matrix(9.00886E-015 -0.340155 0.340155 9.00886E-015 749.97 20000)" r="529"/>
 </g>
</svg>
