  0
SECTION
  2
HEADER
  9
$ACADVER
  1
AC1021
  9
$ACADMAINTVER
 70
    25
  9
$DWGCODEPAGE
  3
ANSI_1252
  9
$INSBASE
 10
0.0
 20
0.0
 30
0.0
  9
$EXTMIN
 10
-11.77576
 20
-9.29282
 30
0.0
  9
$EXTMAX
 10
12.73219
 20
-2.60756
 30
0.0
  9
$LIMMIN
 10
0.0
 20
0.0
  9
$LIMMAX
 10
12.0
 20
9.0
  9
$ORTHOMODE
 70
     0
  9
$REGENMODE
 70
     1
  9
$FILLMODE
 70
     1
  9
$QTEXTMODE
 70
     0
  9
$MIRRTEXT
 70
     1
  9
$LTSCALE
 40
1.0
  9
$ATTMODE
 70
     1
  9
$TEXTSIZE
 40
0.2
  9
$TRACEWID
 40
0.05
  9
$TEXTSTYLE
  7
Standard
  9
$CLAYER
  8
0
  9
$CELTYPE
  6
ByLayer
  9
$CECOLOR
 62
   256
  9
$CELTSCALE
 40
1.0
  9
$DISPSILH
 70
     0
  9
$DIMSCALE
 40
1.0
  9
$DIMASZ
 40
0.18
  9
$DIMEXO
 40
0.0625
  9
$DIMDLI
 40
0.38
  9
$DIMRND
 40
0.0
  9
$DIMDLE
 40
0.0
  9
$DIMEXE
 40
0.18
  9
$DIMTP
 40
0.0
  9
$DIMTM
 40
0.0
  9
$DIMTXT
 40
0.18
  9
$DIMCEN
 40
0.09
  9
$DIMTSZ
 40
0.0
  9
$DIMTOL
 70
     0
  9
$DIMLIM
 70
     0
  9
$DIMTIH
 70
     1
  9
$DIMTOH
 70
     1
  9
$DIMSE1
 70
     0
  9
$DIMSE2
 70
     0
  9
$DIMTAD
 70
     0
  9
$DIMZIN
 70
     0
  9
$DIMBLK
  1

  9
$DIMASO
 70
     1
  9
$DIMSHO
 70
     1
  9
$DIMPOST
  1

  9
$DIMAPOST
  1

  9
$DIMALT
 70
     0
  9
$DIMALTD
 70
     2
  9
$DIMALTF
 40
25.4
  9
$DIMLFAC
 40
1.0
  9
$DIMTOFL
 70
     0
  9
$DIMTVP
 40
0.0
  9
$DIMTIX
 70
     0
  9
$DIMSOXD
 70
     0
  9
$DIMSAH
 70
     0
  9
$DIMBLK1
  1

  9
$DIMBLK2
  1

  9
$DIMSTYLE
  2
Standard
  9
$DIMCLRD
 70
     0
  9
$DIMCLRE
 70
     0
  9
$DIMCLRT
 70
     0
  9
$DIMTFAC
 40
1.0
  9
$DIMGAP
 40
0.09
  9
$DIMJUST
 70
     0
  9
$DIMSD1
 70
     0
  9
$DIMSD2
 70
     0
  9
$DIMTOLJ
 70
     1
  9
$DIMTZIN
 70
     0
  9
$DIMALTZ
 70
     0
  9
$DIMALTTZ
 70
     0
  9
$DIMUPT
 70
     0
  9
$DIMDEC
 70
     4
  9
$DIMTDEC
 70
     4
  9
$DIMALTU
 70
     2
  9
$DIMALTTD
 70
     2
  9
$DIMTXSTY
  7
Standard
  9
$DIMAUNIT
 70
     0
  9
$DIMADEC
 70
     0
  9
$DIMALTRND
 40
0.0
  9
$DIMAZIN
 70
     0
  9
$DIMDSEP
 70
    46
  9
$DIMATFIT
 70
     3
  9
$DIMFRAC
 70
     0
  9
$DIMLDRBLK
  1

  9
$DIMLUNIT
 70
     2
  9
$DIMLWD
 70
    -2
  9
$DIMLWE
 70
    -2
  9
$DIMTMOVE
 70
     0
  9
$DIMFXL
 40
1.0
  9
$DIMFXLON
 70
     0
  9
$DIMJOGANG
 40
0.7853981633974483
  9
$DIMTFILL
 70
     0
  9
$DIMTFILLCLR
 70
     0
  9
$DIMARCSYM
 70
     0
  9
$DIMLTYPE
  6

  9
$DIMLTEX1
  6

  9
$DIMLTEX2
  6

  9
$LUNITS
 70
     2
  9
$LUPREC
 70
     4
  9
$SKETCHINC
 40
0.1
  9
$FILLETRAD
 40
0.5
  9
$AUNITS
 70
     0
  9
$AUPREC
 70
     0
  9
$MENU
  1
.
  9
$ELEVATION
 40
0.0
  9
$PELEVATION
 40
0.0
  9
$THICKNESS
 40
0.0
  9
$LIMCHECK
 70
     0
  9
$CHAMFERA
 40
0.5
  9
$CHAMFERB
 40
0.5
  9
$CHAMFERC
 40
1.0
  9
$CHAMFERD
 40
0.0
  9
$SKPOLY
 70
     0
  9
$TDCREATE
 40
2460555.17598096
  9
$TDUCREATE
 40
2460555.134314294
  9
$TDUPDATE
 40
2460555.175980984
  9
$TDUUPDATE
 40
2460555.134314317
  9
$TDINDWG
 40
0.0000000116
  9
$TDUSRTIMER
 40
0.0000000116
  9
$USRTIMER
 70
     1
  9
$ANGBASE
 50
0.0
  9
$ANGDIR
 70
     0
  9
$PDMODE
 70
     0
  9
$PDSIZE
 40
0.0
  9
$PLINEWID
 40
0.0
  9
$SPLFRAME
 70
     0
  9
$SPLINETYPE
 70
     6
  9
$SPLINESEGS
 70
     8
  9
$HANDSEED
  5
74
  9
$SURFTAB1
 70
     6
  9
$SURFTAB2
 70
     6
  9
$SURFTYPE
 70
     6
  9
$SURFU
 70
     6
  9
$SURFV
 70
     6
  9
$UCSBASE
  2

  9
$UCSNAME
  2

  9
$UCSORG
 10
0.0
 20
0.0
 30
0.0
  9
$UCSXDIR
 10
1.0
 20
0.0
 30
0.0
  9
$UCSYDIR
 10
0.0
 20
1.0
 30
0.0
  9
$UCSORTHOREF
  2

  9
$UCSORTHOVIEW
 70
     0
  9
$UCSORGTOP
 10
0.0
 20
0.0
 30
0.0
  9
$UCSORGBOTTOM
 10
0.0
 20
0.0
 30
0.0
  9
$UCSORGLEFT
 10
0.0
 20
0.0
 30
0.0
  9
$UCSORGRIGHT
 10
0.0
 20
0.0
 30
0.0
  9
$UCSORGFRONT
 10
0.0
 20
0.0
 30
0.0
  9
$UCSORGBACK
 10
0.0
 20
0.0
 30
0.0
  9
$PUCSBASE
  2

  9
$PUCSNAME
  2

  9
$PUCSORG
 10
0.0
 20
0.0
 30
0.0
  9
$PUCSXDIR
 10
1.0
 20
0.0
 30
0.0
  9
$PUCSYDIR
 10
0.0
 20
1.0
 30
0.0
  9
$PUCSORTHOREF
  2

  9
$PUCSORTHOVIEW
 70
     0
  9
$PUCSORGTOP
 10
0.0
 20
0.0
 30
0.0
  9
$PUCSORGBOTTOM
 10
0.0
 20
0.0
 30
0.0
  9
$PUCSORGLEFT
 10
0.0
 20
0.0
 30
0.0
  9
$PUCSORGRIGHT
 10
0.0
 20
0.0
 30
0.0
  9
$PUCSORGFRONT
 10
0.0
 20
0.0
 30
0.0
  9
$PUCSORGBACK
 10
0.0
 20
0.0
 30
0.0
  9
$USERI1
 70
     0
  9
$USERI2
 70
     0
  9
$USERI3
 70
     0
  9
$USERI4
 70
     0
  9
$USERI5
 70
     0
  9
$USERR1
 40
0.0
  9
$USERR2
 40
0.0
  9
$USERR3
 40
0.0
  9
$USERR4
 40
0.0
  9
$USERR5
 40
0.0
  9
$WORLDVIEW
 70
     1
  9
$SHADEDGE
 70
     3
  9
$SHADEDIF
 70
    70
  9
$TILEMODE
 70
     1
  9
$MAXACTVP
 70
    64
  9
$PINSBASE
 10
0.0
 20
0.0
 30
0.0
  9
$PLIMCHECK
 70
     0
  9
$PEXTMIN
 10
1.000000000000000E+20
 20
1.000000000000000E+20
 30
1.000000000000000E+20
  9
$PEXTMAX
 10
-1.000000000000000E+20
 20
-1.000000000000000E+20
 30
-1.000000000000000E+20
  9
$PLIMMIN
 10
0.0
 20
0.0
  9
$PLIMMAX
 10
12.0
 20
9.0
  9
$UNITMODE
 70
     0
  9
$VISRETAIN
 70
     1
  9
$PLINEGEN
 70
     0
  9
$PSLTSCALE
 70
     1
  9
$TREEDEPTH
 70
  3020
  9
$CMLSTYLE
  2
Standard
  9
$CMLJUST
 70
     0
  9
$CMLSCALE
 40
1.0
  9
$PROXYGRAPHICS
 70
     1
  9
$MEASUREMENT
 70
     0
  9
$CELWEIGHT
370
    -1
  9
$ENDCAPS
280
     0
  9
$JOINSTYLE
280
     0
  9
$LWDISPLAY
290
     0
  9
$INSUNITS
 70
     5
  9
$HYPERLINKBASE
  1

  9
$STYLESHEET
  1

  9
$XEDIT
290
     1
  9
$CEPSNTYPE
380
     0
  9
$PSTYLEMODE
290
     1
  9
$FINGERPRINTGUID
  2
{4B67E532-483D-41C2-A181-71FECA32A5D7}
  9
$VERSIONGUID
  2
{FAEB1C32-E019-11D5-929B-00C0DF256EC4}
  9
$EXTNAMES
290
     1
  9
$PSVPSCALE
 40
0.0
  9
$OLESTARTUP
290
     0
  9
$SORTENTS
280
   127
  9
$INDEXCTL
280
     0
  9
$HIDETEXT
280
     1
  9
$XCLIPFRAME
290
     0
  9
$HALOGAP
280
     0
  9
$OBSCOLOR
 70
   257
  9
$OBSLTYPE
280
     0
  9
$INTERSECTIONDISPLAY
280
     0
  9
$INTERSECTIONCOLOR
 70
   257
  9
$DIMASSOC
280
     2
  9
$PROJECTNAME
  1

  9
$CAMERADISPLAY
290
     0
  9
$LENSLENGTH
 40
50.0
  9
$CAMERAHEIGHT
 40
0.0
  9
$STEPSPERSEC
 40
2.0
  9
$STEPSIZE
 40
6.0
  9
$3DDWFPREC
 40
2.0
  9
$PSOLWIDTH
 40
0.25
  9
$PSOLHEIGHT
 40
4.0
  9
$LOFTANG1
 40
1.570796326794897
  9
$LOFTANG2
 40
1.570796326794897
  9
$LOFTMAG1
 40
0.0
  9
$LOFTMAG2
 40
0.0
  9
$LOFTPARAM
 70
     7
  9
$LOFTNORMALS
280
     1
  9
$LATITUDE
 40
37.795
  9
$LONGITUDE
 40
-122.394
  9
$NORTHDIRECTION
 40
0.0
  9
$TIMEZONE
 70
 -8000
  9
$LIGHTGLYPHDISPLAY
280
     1
  9
$TILEMODELIGHTSYNCH
280
     1
  9
$SOLIDHIST
280
     1
  9
$SHOWHIST
280
     1
  9
$DWFFRAME
280
     2
  9
$DGNFRAME
280
     2
  9
$REALWORLDSCALE
290
     1
  9
$INTERFERECOLOR
 62
   256
  9
$CSHADOW
280
     0
  9
$SHADOWPLANELOCATION
 40
0.0
  0
ENDSEC
  0
SECTION
  2
CLASSES
  0
CLASS
  1
ACDBDICTIONARYWDFLT
  2
AcDbDictionaryWithDefault
  3
ObjectDBX Classes
 90
        0
 91
        4
280
     0
281
     0
  0
CLASS
  1
VISUALSTYLE
  2
AcDbVisualStyle
  3
ObjectDBX Classes
 90
     4095
 91
        4
280
     0
281
     0
  0
CLASS
  1
MATERIAL
  2
AcDbMaterial
  3
ObjectDBX Classes
 90
     1153
 91
        4
280
     0
281
     0
  0
ENDSEC
  0
SECTION
  2
TABLES
  0
TABLE
  2
VPORT
  5
8
330
0
100
AcDbSymbolTable
 70
     1
  0
VPORT
  5
29
330
8
100
AcDbSymbolTableRecord
100
AcDbViewportTableRecord
  2
*Active
 70
     0
 10
0.0
 20
0.0
 11
1.0
 21
1.0
 12
10.42990654205607
 22
4.5
 13
0.0
 23
0.0
 14
0.5
 24
0.5
 15
0.5
 25
0.5
 16
0.0
 26
0.0
 36
1.0
 17
0.0
 27
0.0
 37
0.0
 40
9.0
 41
1.972972972850329
 42
50.0
 43
0.0
 44
0.0
 50
0.0
 51
0.0
 71
     0
 72
   100
 73
     1
 74
     3
 75
     0
 76
     0
 77
     0
 78
     0
281
     0
 65
     1
110
0.0
120
0.0
130
0.0
111
1.0
121
0.0
131
0.0
112
0.0
122
1.0
132
0.0
 79
     0
146
0.0
 60
     3
 61
     5
292
     1
282
     1
141
0.0
142
0.0
 63
   250
  0
ENDTAB
  0
TABLE
  2
LTYPE
  5
5
330
0
100
AcDbSymbolTable
 70
     1
  0
LTYPE
  5
14
330
5
100
AcDbSymbolTableRecord
100
AcDbLinetypeTableRecord
  2
ByBlock
 70
     0
  3

 72
    65
 73
     0
 40
0.0
  0
LTYPE
  5
15
330
5
100
AcDbSymbolTableRecord
100
AcDbLinetypeTableRecord
  2
ByLayer
 70
     0
  3

 72
    65
 73
     0
 40
0.0
  0
LTYPE
  5
16
330
5
100
AcDbSymbolTableRecord
100
AcDbLinetypeTableRecord
  2
Continuous
 70
     0
  3
Solid line
 72
    65
 73
     0
 40
0.0
  0
ENDTAB
  0
TABLE
  2
LAYER
  5
2
330
0
100
AcDbSymbolTable
 70
     2
  0
LAYER
  5
10
330
2
100
AcDbSymbolTableRecord
100
AcDbLayerTableRecord
  2
0
 70
     0
 62
     7
  6
Continuous
370
    -3
390
F
347
3E
  0
LAYER
  5
40
330
2
100
AcDbSymbolTableRecord
100
AcDbLayerTableRecord
  2
Layer 1
 70
     0
 62
     7
  6
Continuous
370
    -3
390
F
347
3E
  0
ENDTAB
  0
TABLE
  2
STYLE
  5
3
330
0
100
AcDbSymbolTable
 70
     1
  0
STYLE
  5
11
330
3
100
AcDbSymbolTableRecord
100
AcDbTextStyleTableRecord
  2
Standard
 70
     0
 40
0.0
 41
1.0
 50
0.0
 71
     0
 42
0.2
  3
txt
  4

  0
ENDTAB
  0
TABLE
  2
VIEW
  5
6
330
0
100
AcDbSymbolTable
 70
     0
  0
ENDTAB
  0
TABLE
  2
UCS
  5
7
330
0
100
AcDbSymbolTable
 70
     0
  0
ENDTAB
  0
TABLE
  2
APPID
  5
9
330
0
100
AcDbSymbolTable
 70
     2
  0
APPID
  5
12
330
9
100
AcDbSymbolTableRecord
100
AcDbRegAppTableRecord
  2
ACAD
 70
     0
  0
APPID
  5
3F
330
9
100
AcDbSymbolTableRecord
100
AcDbRegAppTableRecord
  2
ODA
 70
     0
  0
ENDTAB
  0
TABLE
  2
DIMSTYLE
  5
A
330
0
100
AcDbSymbolTable
 70
     1
100
AcDbDimStyleTable
  0
DIMSTYLE
105
27
330
A
100
AcDbSymbolTableRecord
100
AcDbDimStyleTableRecord
  2
Standard
 70
     0
178
     0
340
11
  0
ENDTAB
  0
TABLE
  2
BLOCK_RECORD
  5
1
330
0
100
AcDbSymbolTable
 70
     1
  0
BLOCK_RECORD
  5
1F
330
1
100
AcDbSymbolTableRecord
100
AcDbBlockTableRecord
  2
*Model_Space
340
22
 70
     0
280
     1
281
     0
  0
BLOCK_RECORD
  5
1B
330
1
100
AcDbSymbolTableRecord
100
AcDbBlockTableRecord
  2
*Paper_Space
340
1E
 70
     0
280
     1
281
     0
  0
BLOCK_RECORD
  5
23
330
1
100
AcDbSymbolTableRecord
100
AcDbBlockTableRecord
  2
*Paper_Space0
340
26
 70
     0
280
     1
281
     0
  0
ENDTAB
  0
ENDSEC
  0
SECTION
  2
BLOCKS
  0
BLOCK
  5
20
330
1F
100
AcDbEntity
  8
0
100
AcDbBlockBegin
  2
*Model_Space
 70
     0
 10
0.0
 20
0.0
 30
0.0
  3
*Model_Space
  1

  0
ENDBLK
  5
21
330
1F
100
AcDbEntity
  8
0
100
AcDbBlockEnd
  0
BLOCK
  5
1C
330
1B
100
AcDbEntity
 67
     1
  8
0
100
AcDbBlockBegin
  2
*Paper_Space
 70
     0
 10
0.0
 20
0.0
 30
0.0
  3
*Paper_Space
  1

  0
ENDBLK
  5
1D
330
1B
100
AcDbEntity
 67
     1
  8
0
100
AcDbBlockEnd
  0
BLOCK
  5
24
330
23
100
AcDbEntity
  8
0
100
AcDbBlockBegin
  2
*Paper_Space0
 70
     0
 10
0.0
 20
0.0
 30
0.0
  3
*Paper_Space0
  1

  0
ENDBLK
  5
25
330
23
100
AcDbEntity
  8
0
100
AcDbBlockEnd
  0
ENDSEC
  0
SECTION
  2
ENTITIES
  0
SPLINE
  5
41
330
1F
100
AcDbEntity
  8
Layer 1
 62
     5
100
AcDbSpline
210
0.0
220
0.0
230
1.0
 70
    11
 71
     3
 72
    96
 73
    92
 74
     0
 42
0.0000000001
 43
0.0000000001
 12
1.0
 22
0.0
 32
0.0
 13
1.0
 23
0.0
 33
0.0
 40
0.0
 40
0.0
 40
0.0
 40
0.0
 40
0.0416666666666667
 40
0.0416666666666667
 40
0.0416666666666667
 40
0.0416666666666667
 40
0.0833333333333333
 40
0.0833333333333333
 40
0.0833333333333333
 40
0.0833333333333333
 40
0.125
 40
0.125
 40
0.125
 40
0.125
 40
0.1666666666666667
 40
0.1666666666666667
 40
0.1666666666666667
 40
0.1666666666666667
 40
0.2083333333333333
 40
0.2083333333333333
 40
0.2083333333333333
 40
0.2083333333333333
 40
0.25
 40
0.25
 40
0.25
 40
0.25
 40
0.2916666666666667
 40
0.2916666666666667
 40
0.2916666666666667
 40
0.2916666666666667
 40
0.3333333333333333
 40
0.3333333333333333
 40
0.3333333333333333
 40
0.3333333333333333
 40
0.375
 40
0.375
 40
0.375
 40
0.375
 40
0.4166666666666667
 40
0.4166666666666667
 40
0.4166666666666667
 40
0.4166666666666667
 40
0.4583333333333333
 40
0.4583333333333333
 40
0.4583333333333333
 40
0.4583333333333333
 40
0.5
 40
0.5
 40
0.5
 40
0.5
 40
0.5416666666666666
 40
0.5416666666666666
 40
0.5416666666666666
 40
0.5416666666666666
 40
0.5833333333333334
 40
0.5833333333333334
 40
0.5833333333333334
 40
0.5833333333333334
 40
0.625
 40
0.625
 40
0.625
 40
0.625
 40
0.6666666666666666
 40
0.6666666666666666
 40
0.6666666666666666
 40
0.6666666666666666
 40
0.7083333333333334
 40
0.7083333333333334
 40
0.7083333333333334
 40
0.7083333333333334
 40
0.75
 40
0.75
 40
0.75
 40
0.75
 40
0.7916666666666666
 40
0.7916666666666666
 40
0.7916666666666666
 40
0.7916666666666666
 40
0.8333333333333334
 40
0.8333333333333334
 40
0.8333333333333334
 40
0.8333333333333334
 40
0.875
 40
0.875
 40
0.875
 40
0.875
 40
0.9166666666666666
 40
0.9166666666666666
 40
0.9166666666666666
 40
0.9166666666666666
 40
1.0
 40
1.0
 40
1.0
 40
1.0
 10
-11.0808
 20
-6.77907
 30
0.0
 10
-11.0808
 20
-6.77907
 30
0.0
 10
-11.08033
 20
-6.77908
 30
0.0
 10
-11.08033
 20
-6.77908
 30
0.0
 10
-11.08033
 20
-6.77908
 30
0.0
 10
-11.08033
 20
-6.77908
 30
0.0
 10
-11.07575
 20
-6.59812
 30
0.0
 10
-11.07575
 20
-6.59812
 30
0.0
 10
-11.07575
 20
-6.59812
 30
0.0
 10
-11.07511
 20
-6.57062
 30
0.0
 10
-11.05228
 20
-6.54885
 30
0.0
 10
-11.02478
 20
-6.54949
 30
0.0
 10
-11.02478
 20
-6.54949
 30
0.0
 10
-10.99728
 20
-6.55013
 30
0.0
 10
-10.97551
 20
-6.57296
 30
0.0
 10
-10.97615
 20
-6.60046
 30
0.0
 10
-10.97615
 20
-6.60046
 30
0.0
 10
-10.97615
 20
-6.60046
 30
0.0
 10
-10.98086
 20
-6.78665
 30
0.0
 10
-10.98086
 20
-6.78665
 30
0.0
 10
-10.98086
 20
-6.78665
 30
0.0
 10
-10.84879
 20
-6.80683
 30
0.0
 10
-10.72985
 20
-6.86639
 30
0.0
 10
-10.63663
 20
-6.95281
 30
0.0
 10
-10.63663
 20
-6.95281
 30
0.0
 10
-10.63517
 20
-6.95114
 30
0.0
 10
-10.63358
 20
-6.94956
 30
0.0
 10
-10.63186
 20
-6.94806
 30
0.0
 10
-10.63186
 20
-6.94806
 30
0.0
 10
-10.63186
 20
-6.94806
 30
0.0
 10
-10.45683
 20
-6.79583
 30
0.0
 10
-10.45683
 20
-6.79583
 30
0.0
 10
-10.45683
 20
-6.79583
 30
0.0
 10
-10.43601
 20
-6.77771
 30
0.0
 10
-10.40444
 20
-6.7799
 30
0.0
 10
-10.38632
 20
-6.80072
 30
0.0
 10
-10.38632
 20
-6.80072
 30
0.0
 10
-10.3682
 20
-6.82154
 30
0.0
 10
-10.37039
 20
-6.85311
 30
0.0
 10
-10.39121
 20
-6.87123
 30
0.0
 10
-10.39121
 20
-6.87123
 30
0.0
 10
-10.39121
 20
-6.87123
 30
0.0
 10
-10.56624
 20
-7.02346
 30
0.0
 10
-10.56624
 20
-7.02346
 30
0.0
 10
-10.56624
 20
-7.02346
 30
0.0
 10
-10.56718
 20
-7.02427
 30
0.0
 10
-10.56813
 20
-7.02505
 30
0.0
 10
-10.56911
 20
-7.02578
 30
0.0
 10
-10.56911
 20
-7.02578
 30
0.0
 10
-10.48247
 20
-7.13513
 30
0.0
 10
-10.4308
 20
-7.27291
 30
0.0
 10
-10.4308
 20
-7.42267
 30
0.0
 10
-10.4308
 20
-7.42267
 30
0.0
 10
-10.4308
 20
-7.77812
 30
0.0
 10
-10.72182
 20
-8.06627
 30
0.0
 10
-11.0808
 20
-8.06627
 30
0.0
 10
-11.0808
 20
-8.06627
 30
0.0
 10
-11.43978
 20
-8.06627
 30
0.0
 10
-11.7308
 20
-7.77812
 30
0.0
 10
-11.7308
 20
-7.42267
 30
0.0
 10
-11.7308
 20
-7.42267
 30
0.0
 10
-11.7308
 20
-7.20912
 30
0.0
 10
-11.62572
 20
-7.01988
 30
0.0
 10
-11.464
 20
-6.90282
 30
0.0
 10
-11.464
 20
-6.90282
 30
0.0
 10
-11.46619
 20
-6.90137
 30
0.0
 10
-11.46831
 20
-6.89972
 30
0.0
 10
-11.47031
 20
-6.89788
 30
0.0
 10
-11.47031
 20
-6.89788
 30
0.0
 10
-11.47031
 20
-6.89788
 30
0.0
 10
-11.60888
 20
-6.77023
 30
0.0
 10
-11.60888
 20
-6.77023
 30
0.0
 10
-11.60888
 20
-6.77023
 30
0.0
 10
-11.62915
 20
-6.75157
 30
0.0
 10
-11.63047
 20
-6.71999
 30
0.0
 10
-11.61181
 20
-6.69972
 30
0.0
 10
-11.61181
 20
-6.69972
 30
0.0
 10
-11.59315
 20
-6.67945
 30
0.0
 10
-11.56157
 20
-6.67813
 30
0.0
 10
-11.5413
 20
-6.69679
 30
0.0
 10
-11.5413
 20
-6.69679
 30
0.0
 10
-11.5413
 20
-6.69679
 30
0.0
 10
-11.40273
 20
-6.82444
 30
0.0
 10
-11.40273
 20
-6.82444
 30
0.0
 10
-11.40273
 20
-6.82444
 30
0.0
 10
-11.39372
 20
-6.83274
 30
0.0
 10
-11.38845
 20
-6.84359
 30
0.0
 10
-11.38702
 20
-6.85487
 30
0.0
 10
-11.38702
 20
-6.85487
 30
0.0
 10
-11.29577
 20
-6.80652
 30
0.0
 10
-11.19153
 20
-6.77907
 30
0.0
 10
-11.0808
 20
-6.77907
 30
0.0
  0
SPLINE
  5
42
330
1F
100
AcDbEntity
  8
Layer 1
 62
     5
100
AcDbSpline
210
0.0
220
0.0
230
1.0
 70
    11
 71
     3
 72
    20
 73
    16
 74
     0
 42
0.0000000001
 43
0.0000000001
 12
1.0
 22
0.0
 32
0.0
 13
1.0
 23
0.0
 33
0.0
 40
0.0
 40
0.0
 40
0.0
 40
0.0
 40
0.2
 40
0.2
 40
0.2
 40
0.2
 40
0.4
 40
0.4
 40
0.4
 40
0.4
 40
0.6
 40
0.6
 40
0.6
 40
0.6
 40
1.0
 40
1.0
 40
1.0
 40
1.0
 10
-11.052
 20
-7.34215
 30
0.0
 10
-10.98347
 20
-7.34215
 30
0.0
 10
-10.92792
 20
-7.39597
 30
0.0
 10
-10.92792
 20
-7.46235
 30
0.0
 10
-10.92792
 20
-7.46235
 30
0.0
 10
-10.92792
 20
-7.52873
 30
0.0
 10
-10.98347
 20
-7.58255
 30
0.0
 10
-11.052
 20
-7.58255
 30
0.0
 10
-11.052
 20
-7.58255
 30
0.0
 10
-11.12053
 20
-7.58255
 30
0.0
 10
-11.17608
 20
-7.52873
 30
0.0
 10
-11.17608
 20
-7.46235
 30
0.0
 10
-11.17608
 20
-7.46235
 30
0.0
 10
-11.17608
 20
-7.39597
 30
0.0
 10
-11.12053
 20
-7.34215
 30
0.0
 10
-11.052
 20
-7.34215
 30
0.0
  0
SPLINE
  5
43
330
1F
100
AcDbEntity
  8
Layer 1
 62
     5
100
AcDbSpline
210
0.0
220
0.0
230
1.0
 70
    11
 71
     3
 72
    84
 73
    80
 74
     0
 42
0.0000000001
 43
0.0000000001
 12
1.0
 22
0.0
 32
0.0
 13
1.0
 23
0.0
 33
0.0
 40
0.0
 40
0.0
 40
0.0
 40
0.0
 40
0.0476190476190476
 40
0.0476190476190476
 40
0.0476190476190476
 40
0.0476190476190476
 40
0.0952380952380952
 40
0.0952380952380952
 40
0.0952380952380952
 40
0.0952380952380952
 40
0.1428571428571428
 40
0.1428571428571428
 40
0.1428571428571428
 40
0.1428571428571428
 40
0.1904761904761905
 40
0.1904761904761905
 40
0.1904761904761905
 40
0.1904761904761905
 40
0.2380952380952381
 40
0.2380952380952381
 40
0.2380952380952381
 40
0.2380952380952381
 40
0.2857142857142857
 40
0.2857142857142857
 40
0.2857142857142857
 40
0.2857142857142857
 40
0.3333333333333333
 40
0.3333333333333333
 40
0.3333333333333333
 40
0.3333333333333333
 40
0.3809523809523809
 40
0.3809523809523809
 40
0.3809523809523809
 40
0.3809523809523809
 40
0.4285714285714285
 40
0.4285714285714285
 40
0.4285714285714285
 40
0.4285714285714285
 40
0.4761904761904762
 40
0.4761904761904762
 40
0.4761904761904762
 40
0.4761904761904762
 40
0.5238095238095238
 40
0.5238095238095238
 40
0.5238095238095238
 40
0.5238095238095238
 40
0.5714285714285714
 40
0.5714285714285714
 40
0.5714285714285714
 40
0.5714285714285714
 40
0.6190476190476191
 40
0.6190476190476191
 40
0.6190476190476191
 40
0.6190476190476191
 40
0.6666666666666666
 40
0.6666666666666666
 40
0.6666666666666666
 40
0.6666666666666666
 40
0.7142857142857143
 40
0.7142857142857143
 40
0.7142857142857143
 40
0.7142857142857143
 40
0.7619047619047619
 40
0.7619047619047619
 40
0.7619047619047619
 40
0.7619047619047619
 40
0.8095238095238095
 40
0.8095238095238095
 40
0.8095238095238095
 40
0.8095238095238095
 40
0.8571428571428571
 40
0.8571428571428571
 40
0.8571428571428571
 40
0.8571428571428571
 40
0.9047619047619048
 40
0.9047619047619048
 40
0.9047619047619048
 40
0.9047619047619048
 40
1.0
 40
1.0
 40
1.0
 40
1.0
 10
-8.98034
 20
-6.77955
 30
0.0
 10
-9.09221
 20
-6.78375
 30
0.0
 10
-9.19683
 20
-6.81597
 30
0.0
 10
-9.28729
 20
-6.86928
 30
0.0
 10
-9.28729
 20
-6.86928
 30
0.0
 10
-9.28467
 20
-6.85326
 30
0.0
 10
-9.28989
 20
-6.83626
 30
0.0
 10
-9.30273
 20
-6.82444
 30
0.0
 10
-9.30273
 20
-6.82444
 30
0.0
 10
-9.30273
 20
-6.82444
 30
0.0
 10
-9.4413
 20
-6.69679
 30
0.0
 10
-9.4413
 20
-6.69679
 30
0.0
 10
-9.4413
 20
-6.69679
 30
0.0
 10
-9.46157
 20
-6.67813
 30
0.0
 10
-9.49315
 20
-6.67945
 30
0.0
 10
-9.51181
 20
-6.69972
 30
0.0
 10
-9.51181
 20
-6.69972
 30
0.0
 10
-9.53047
 20
-6.71999
 30
0.0
 10
-9.52915
 20
-6.75157
 30
0.0
 10
-9.50888
 20
-6.77023
 30
0.0
 10
-9.50888
 20
-6.77023
 30
0.0
 10
-9.50888
 20
-6.77023
 30
0.0
 10
-9.37031
 20
-6.89788
 30
0.0
 10
-9.37031
 20
-6.89788
 30
0.0
 10
-9.37031
 20
-6.89788
 30
0.0
 10
-9.36375
 20
-6.90392
 30
0.0
 10
-9.35601
 20
-6.90786
 30
0.0
 10
-9.34791
 20
-6.90975
 30
0.0
 10
-9.34791
 20
-6.90975
 30
0.0
 10
-9.50429
 20
-7.02728
 30
0.0
 10
-9.60531
 20
-7.21328
 30
0.0
 10
-9.60531
 20
-7.42267
 30
0.0
 10
-9.60531
 20
-7.42267
 30
0.0
 10
-9.60531
 20
-7.77812
 30
0.0
 10
-9.31429
 20
-8.06626
 30
0.0
 10
-8.95531
 20
-8.06626
 30
0.0
 10
-8.95531
 20
-8.06626
 30
0.0
 10
-8.59633
 20
-8.06626
 30
0.0
 10
-8.30531
 20
-7.77812
 30
0.0
 10
-8.30531
 20
-7.42267
 30
0.0
 10
-8.30531
 20
-7.42267
 30
0.0
 10
-8.30531
 20
-7.26697
 30
0.0
 10
-8.36117
 20
-7.12421
 30
0.0
 10
-8.45411
 20
-7.01291
 30
0.0
 10
-8.45411
 20
-7.01291
 30
0.0
 10
-8.45411
 20
-7.01291
 30
0.0
 10
-8.29121
 20
-6.87123
 30
0.0
 10
-8.29121
 20
-6.87123
 30
0.0
 10
-8.29121
 20
-6.87123
 30
0.0
 10
-8.27039
 20
-6.85311
 30
0.0
 10
-8.2682
 20
-6.82154
 30
0.0
 10
-8.28632
 20
-6.80072
 30
0.0
 10
-8.28632
 20
-6.80072
 30
0.0
 10
-8.30444
 20
-6.7799
 30
0.0
 10
-8.33601
 20
-6.77771
 30
0.0
 10
-8.35683
 20
-6.79583
 30
0.0
 10
-8.35683
 20
-6.79583
 30
0.0
 10
-8.35683
 20
-6.79583
 30
0.0
 10
-8.524
 20
-6.94122
 30
0.0
 10
-8.524
 20
-6.94122
 30
0.0
 10
-8.524
 20
-6.94122
 30
0.0
 10
-8.62128
 20
-6.85574
 30
0.0
 10
-8.74464
 20
-6.7987
 30
0.0
 10
-8.88078
 20
-6.78331
 30
0.0
 10
-8.88078
 20
-6.78331
 30
0.0
 10
-8.88078
 20
-6.78331
 30
0.0
 10
-8.87615
 20
-6.60046
 30
0.0
 10
-8.87615
 20
-6.60046
 30
0.0
 10
-8.87615
 20
-6.60046
 30
0.0
 10
-8.87551
 20
-6.57296
 30
0.0
 10
-8.89728
 20
-6.55013
 30
0.0
 10
-8.92478
 20
-6.54949
 30
0.0
 10
-8.92478
 20
-6.54949
 30
0.0
 10
-8.95228
 20
-6.54885
 30
0.0
 10
-8.97511
 20
-6.57062
 30
0.0
 10
-8.97575
 20
-6.59812
 30
0.0
 10
-8.97575
 20
-6.59812
 30
0.0
 10
-8.97575
 20
-6.59812
 30
0.0
 10
-8.98034
 20
-6.77955
 30
0.0
 10
-8.98034
 20
-6.77955
 30
0.0
  0
SPLINE
  5
44
330
1F
100
AcDbEntity
  8
Layer 1
 62
     5
100
AcDbSpline
210
0.0
220
0.0
230
1.0
 70
    11
 71
     3
 72
    20
 73
    16
 74
     0
 42
0.0000000001
 43
0.0000000001
 12
1.0
 22
0.0
 32
0.0
 13
1.0
 23
0.0
 33
0.0
 40
0.0
 40
0.0
 40
0.0
 40
0.0
 40
0.2
 40
0.2
 40
0.2
 40
0.2
 40
0.4
 40
0.4
 40
0.4
 40
0.4
 40
0.6
 40
0.6
 40
0.6
 40
0.6
 40
1.0
 40
1.0
 40
1.0
 40
1.0
 10
-8.95732
 20
-7.33887
 30
0.0
 10
-8.88879
 20
-7.33887
 30
0.0
 10
-8.83324
 20
-7.39269
 30
0.0
 10
-8.83324
 20
-7.45906
 30
0.0
 10
-8.83324
 20
-7.45906
 30
0.0
 10
-8.83324
 20
-7.52544
 30
0.0
 10
-8.88879
 20
-7.57926
 30
0.0
 10
-8.95732
 20
-7.57926
 30
0.0
 10
-8.95732
 20
-7.57926
 30
0.0
 10
-9.02585
 20
-7.57926
 30
0.0
 10
-9.0814
 20
-7.52544
 30
0.0
 10
-9.0814
 20
-7.45906
 30
0.0
 10
-9.0814
 20
-7.45906
 30
0.0
 10
-9.0814
 20
-7.39269
 30
0.0
 10
-9.02585
 20
-7.33887
 30
0.0
 10
-8.95732
 20
-7.33887
 30
0.0
  0
SPLINE
  5
45
330
1F
100
AcDbEntity
  8
Layer 1
 62
     5
100
AcDbSpline
210
0.0
220
0.0
230
1.0
 70
    11
 71
     3
 72
   356
 73
   352
 74
     0
 42
0.0000000001
 43
0.0000000001
 12
1.0
 22
0.0
 32
0.0
 13
1.0
 23
0.0
 33
0.0
 40
0.0
 40
0.0
 40
0.0
 40
0.0
 40
0.0112359550561798
 40
0.0112359550561798
 40
0.0112359550561798
 40
0.0112359550561798
 40
0.0224719101123595
 40
0.0224719101123595
 40
0.0224719101123595
 40
0.0224719101123595
 40
0.0337078651685393
 40
0.0337078651685393
 40
0.0337078651685393
 40
0.0337078651685393
 40
0.0449438202247191
 40
0.0449438202247191
 40
0.0449438202247191
 40
0.0449438202247191
 40
0.0561797752808989
 40
0.0561797752808989
 40
0.0561797752808989
 40
0.0561797752808989
 40
0.0674157303370786
 40
0.0674157303370786
 40
0.0674157303370786
 40
0.0674157303370786
 40
0.0786516853932584
 40
0.0786516853932584
 40
0.0786516853932584
 40
0.0786516853932584
 40
0.0898876404494382
 40
0.0898876404494382
 40
0.0898876404494382
 40
0.0898876404494382
 40
0.101123595505618
 40
0.101123595505618
 40
0.101123595505618
 40
0.101123595505618
 40
0.1123595505617977
 40
0.1123595505617977
 40
0.1123595505617977
 40
0.1123595505617977
 40
0.1235955056179775
 40
0.1235955056179775
 40
0.1235955056179775
 40
0.1235955056179775
 40
0.1348314606741573
 40
0.1348314606741573
 40
0.1348314606741573
 40
0.1348314606741573
 40
0.1460674157303371
 40
0.1460674157303371
 40
0.1460674157303371
 40
0.1460674157303371
 40
0.1573033707865168
 40
0.1573033707865168
 40
0.1573033707865168
 40
0.1573033707865168
 40
0.1685393258426966
 40
0.1685393258426966
 40
0.1685393258426966
 40
0.1685393258426966
 40
0.1797752808988764
 40
0.1797752808988764
 40
0.1797752808988764
 40
0.1797752808988764
 40
0.1910112359550562
 40
0.1910112359550562
 40
0.1910112359550562
 40
0.1910112359550562
 40
0.2022471910112359
 40
0.2022471910112359
 40
0.2022471910112359
 40
0.2022471910112359
 40
0.2134831460674157
 40
0.2134831460674157
 40
0.2134831460674157
 40
0.2134831460674157
 40
0.2247191011235955
 40
0.2247191011235955
 40
0.2247191011235955
 40
0.2247191011235955
 40
0.2359550561797753
 40
0.2359550561797753
 40
0.2359550561797753
 40
0.2359550561797753
 40
0.247191011235955
 40
0.247191011235955
 40
0.247191011235955
 40
0.247191011235955
 40
0.2584269662921349
 40
0.2584269662921349
 40
0.2584269662921349
 40
0.2584269662921349
 40
0.2696629213483146
 40
0.2696629213483146
 40
0.2696629213483146
 40
0.2696629213483146
 40
0.2808988764044944
 40
0.2808988764044944
 40
0.2808988764044944
 40
0.2808988764044944
 40
0.2921348314606741
 40
0.2921348314606741
 40
0.2921348314606741
 40
0.2921348314606741
 40
0.303370786516854
 40
0.303370786516854
 40
0.303370786516854
 40
0.303370786516854
 40
0.3146067415730337
 40
0.3146067415730337
 40
0.3146067415730337
 40
0.3146067415730337
 40
0.3258426966292135
 40
0.3258426966292135
 40
0.3258426966292135
 40
0.3258426966292135
 40
0.3370786516853932
 40
0.3370786516853932
 40
0.3370786516853932
 40
0.3370786516853932
 40
0.3483146067415731
 40
0.3483146067415731
 40
0.3483146067415731
 40
0.3483146067415731
 40
0.3595505617977528
 40
0.3595505617977528
 40
0.3595505617977528
 40
0.3595505617977528
 40
0.3707865168539326
 40
0.3707865168539326
 40
0.3707865168539326
 40
0.3707865168539326
 40
0.3820224719101123
 40
0.3820224719101123
 40
0.3820224719101123
 40
0.3820224719101123
 40
0.3932584269662922
 40
0.3932584269662922
 40
0.3932584269662922
 40
0.3932584269662922
 40
0.4044943820224719
 40
0.4044943820224719
 40
0.4044943820224719
 40
0.4044943820224719
 40
0.4157303370786517
 40
0.4157303370786517
 40
0.4157303370786517
 40
0.4157303370786517
 40
0.4269662921348314
 40
0.4269662921348314
 40
0.4269662921348314
 40
0.4269662921348314
 40
0.4382022471910113
 40
0.4382022471910113
 40
0.4382022471910113
 40
0.4382022471910113
 40
0.449438202247191
 40
0.449438202247191
 40
0.449438202247191
 40
0.449438202247191
 40
0.4606741573033708
 40
0.4606741573033708
 40
0.4606741573033708
 40
0.4606741573033708
 40
0.4719101123595505
 40
0.4719101123595505
 40
0.4719101123595505
 40
0.4719101123595505
 40
0.4831460674157304
 40
0.4831460674157304
 40
0.4831460674157304
 40
0.4831460674157304
 40
0.4943820224719101
 40
0.4943820224719101
 40
0.4943820224719101
 40
0.4943820224719101
 40
0.5056179775280899
 40
0.5056179775280899
 40
0.5056179775280899
 40
0.5056179775280899
 40
0.5168539325842697
 40
0.5168539325842697
 40
0.5168539325842697
 40
0.5168539325842697
 40
0.5280898876404494
 40
0.5280898876404494
 40
0.5280898876404494
 40
0.5280898876404494
 40
0.5393258426966292
 40
0.5393258426966292
 40
0.5393258426966292
 40
0.5393258426966292
 40
0.550561797752809
 40
0.550561797752809
 40
0.550561797752809
 40
0.550561797752809
 40
0.5617977528089888
 40
0.5617977528089888
 40
0.5617977528089888
 40
0.5617977528089888
 40
0.5730337078651685
 40
0.5730337078651685
 40
0.5730337078651685
 40
0.5730337078651685
 40
0.5842696629213483
 40
0.5842696629213483
 40
0.5842696629213483
 40
0.5842696629213483
 40
0.5955056179775281
 40
0.5955056179775281
 40
0.5955056179775281
 40
0.5955056179775281
 40
0.6067415730337079
 40
0.6067415730337079
 40
0.6067415730337079
 40
0.6067415730337079
 40
0.6179775280898876
 40
0.6179775280898876
 40
0.6179775280898876
 40
0.6179775280898876
 40
0.6292134831460674
 40
0.6292134831460674
 40
0.6292134831460674
 40
0.6292134831460674
 40
0.6404494382022472
 40
0.6404494382022472
 40
0.6404494382022472
 40
0.6404494382022472
 40
0.651685393258427
 40
0.651685393258427
 40
0.651685393258427
 40
0.651685393258427
 40
0.6629213483146067
 40
0.6629213483146067
 40
0.6629213483146067
 40
0.6629213483146067
 40
0.6741573033707865
 40
0.6741573033707865
 40
0.6741573033707865
 40
0.6741573033707865
 40
0.6853932584269663
 40
0.6853932584269663
 40
0.6853932584269663
 40
0.6853932584269663
 40
0.6966292134831461
 40
0.6966292134831461
 40
0.6966292134831461
 40
0.6966292134831461
 40
0.7078651685393258
 40
0.7078651685393258
 40
0.7078651685393258
 40
0.7078651685393258
 40
0.7191011235955056
 40
0.7191011235955056
 40
0.7191011235955056
 40
0.7191011235955056
 40
0.7303370786516854
 40
0.7303370786516854
 40
0.7303370786516854
 40
0.7303370786516854
 40
0.7415730337078652
 40
0.7415730337078652
 40
0.7415730337078652
 40
0.7415730337078652
 40
0.7528089887640449
 40
0.7528089887640449
 40
0.7528089887640449
 40
0.7528089887640449
 40
0.7640449438202247
 40
0.7640449438202247
 40
0.7640449438202247
 40
0.7640449438202247
 40
0.7752808988764045
 40
0.7752808988764045
 40
0.7752808988764045
 40
0.7752808988764045
 40
0.7865168539325843
 40
0.7865168539325843
 40
0.7865168539325843
 40
0.7865168539325843
 40
0.797752808988764
 40
0.797752808988764
 40
0.797752808988764
 40
0.797752808988764
 40
0.8089887640449438
 40
0.8089887640449438
 40
0.8089887640449438
 40
0.8089887640449438
 40
0.8202247191011236
 40
0.8202247191011236
 40
0.8202247191011236
 40
0.8202247191011236
 40
0.8314606741573034
 40
0.8314606741573034
 40
0.8314606741573034
 40
0.8314606741573034
 40
0.8426966292134831
 40
0.8426966292134831
 40
0.8426966292134831
 40
0.8426966292134831
 40
0.8539325842696629
 40
0.8539325842696629
 40
0.8539325842696629
 40
0.8539325842696629
 40
0.8651685393258427
 40
0.8651685393258427
 40
0.8651685393258427
 40
0.8651685393258427
 40
0.8764044943820225
 40
0.8764044943820225
 40
0.8764044943820225
 40
0.8764044943820225
 40
0.8876404494382022
 40
0.8876404494382022
 40
0.8876404494382022
 40
0.8876404494382022
 40
0.898876404494382
 40
0.898876404494382
 40
0.898876404494382
 40
0.898876404494382
 40
0.9101123595505618
 40
0.9101123595505618
 40
0.9101123595505618
 40
0.9101123595505618
 40
0.9213483146067416
 40
0.9213483146067416
 40
0.9213483146067416
 40
0.9213483146067416
 40
0.9325842696629213
 40
0.9325842696629213
 40
0.9325842696629213
 40
0.9325842696629213
 40
0.9438202247191011
 40
0.9438202247191011
 40
0.9438202247191011
 40
0.9438202247191011
 40
0.9550561797752809
 40
0.9550561797752809
 40
0.9550561797752809
 40
0.9550561797752809
 40
0.9662921348314607
 40
0.9662921348314607
 40
0.9662921348314607
 40
0.9662921348314607
 40
0.9775280898876404
 40
0.9775280898876404
 40
0.9775280898876404
 40
0.9775280898876404
 40
1.0
 40
1.0
 40
1.0
 40
1.0
 10
-11.43767
 20
-6.41605
 30
0.0
 10
-11.39687
 20
-6.36073
 30
0.0
 10
-11.34262
 20
-6.3171
 30
0.0
 10
-11.288
 20
-6.27317
 30
0.0
 10
-11.288
 20
-6.27317
 30
0.0
 10
-11.24007
 20
-6.23463
 30
0.0
 10
-11.19177
 20
-6.19578
 30
0.0
 10
-11.15702
 20
-6.15107
 30
0.0
 10
-11.15702
 20
-6.15107
 30
0.0
 10
-11.12629
 20
-6.11153
 30
0.0
 10
-11.09665
 20
-6.07104
 30
0.0
 10
-11.07031
 20
-6.03033
 30
0.0
 10
-11.07031
 20
-6.03033
 30
0.0
 10
-11.04376
 20
-5.9893
 30
0.0
 10
-11.01973
 20
-5.94713
 30
0.0
 10
-11.00007
 20
-5.90412
 30
0.0
 10
-11.00007
 20
-5.90412
 30
0.0
 10
-10.99675
 20
-5.89685
 30
0.0
 10
-10.9945
 20
-5.89232
 30
0.0
 10
-10.99212
 20
-5.88749
 30
0.0
 10
-10.99212
 20
-5.88749
 30
0.0
 10
-10.98294
 20
-5.86889
 30
0.0
 10
-10.96625
 20
-5.846
 30
0.0
 10
-10.96829
 20
-5.8447
 30
0.0
 10
-10.96829
 20
-5.8447
 30
0.0
 10
-10.97548
 20
-5.84012
 30
0.0
 10
-11.03478
 20
-5.86819
 30
0.0
 10
-11.0659
 20
-5.88293
 30
0.0
 10
-11.0659
 20
-5.88293
 30
0.0
 10
-11.07069
 20
-5.8852
 30
0.0
 10
-11.07488
 20
-5.88719
 30
0.0
 10
-11.08168
 20
-5.89023
 30
0.0
 10
-11.08168
 20
-5.89023
 30
0.0
 10
-11.15984
 20
-5.92523
 30
0.0
 10
-11.23286
 20
-5.97284
 30
0.0
 10
-11.30568
 20
-6.02032
 30
0.0
 10
-11.30568
 20
-6.02032
 30
0.0
 10
-11.33343
 20
-6.03841
 30
0.0
 10
-11.36123
 20
-6.05654
 30
0.0
 10
-11.38484
 20
-6.07129
 30
0.0
 10
-11.38484
 20
-6.07129
 30
0.0
 10
-11.4045
 20
-6.08355
 30
0.0
 10
-11.5584
 20
-6.15489
 30
0.0
 10
-11.64592
 20
-6.19332
 30
0.0
 10
-11.64592
 20
-6.19332
 30
0.0
 10
-11.66159
 20
-6.2002
 30
0.0
 10
-11.6767
 20
-6.20665
 30
0.0
 10
-11.69002
 20
-6.2121
 30
0.0
 10
-11.69002
 20
-6.2121
 30
0.0
 10
-11.73042
 20
-6.22862
 30
0.0
 10
-11.75953
 20
-6.22341
 30
0.0
 10
-11.77244
 20
-6.18973
 30
0.0
 10
-11.77244
 20
-6.18973
 30
0.0
 10
-11.77344
 20
-6.18709
 30
0.0
 10
-11.77421
 20
-6.18441
 30
0.0
 10
-11.77475
 20
-6.18172
 30
0.0
 10
-11.77475
 20
-6.18172
 30
0.0
 10
-11.77475
 20
-6.18172
 30
0.0
 10
-11.77478
 20
-6.18173
 30
0.0
 10
-11.77478
 20
-6.18173
 30
0.0
 10
-11.77478
 20
-6.18173
 30
0.0
 10
-11.77478
 20
-6.18173
 30
0.0
 10
-11.77479
 20
-6.18168
 30
0.0
 10
-11.77479
 20
-6.18168
 30
0.0
 10
-11.77479
 20
-6.18168
 30
0.0
 10
-11.77589
 20
-6.17613
 30
0.0
 10
-11.77603
 20
-6.17062
 30
0.0
 10
-11.77533
 20
-6.16531
 30
0.0
 10
-11.77533
 20
-6.16531
 30
0.0
 10
-11.764
 20
-6.00936
 30
0.0
 10
-11.72485
 20
-5.85779
 30
0.0
 10
-11.66338
 20
-5.71349
 30
0.0
 10
-11.66338
 20
-5.71349
 30
0.0
 10
-11.61648
 20
-5.60339
 30
0.0
 10
-11.55664
 20
-5.4976
 30
0.0
 10
-11.48631
 20
-5.39735
 30
0.0
 10
-11.48631
 20
-5.39735
 30
0.0
 10
-11.48631
 20
-5.39735
 30
0.0
 10
-11.49713
 20
-5.40055
 30
0.0
 10
-11.49713
 20
-5.40055
 30
0.0
 10
-11.49713
 20
-5.40055
 30
0.0
 10
-11.54806
 20
-5.41559
 30
0.0
 10
-11.60023
 20
-5.431
 30
0.0
 10
-11.64679
 20
-5.4587
 30
0.0
 10
-11.64679
 20
-5.4587
 30
0.0
 10
-11.67052
 20
-5.47272
 30
0.0
 10
-11.70113
 20
-5.46485
 30
0.0
 10
-11.71515
 20
-5.44112
 30
0.0
 10
-11.71515
 20
-5.44112
 30
0.0
 10
-11.72337
 20
-5.4272
 30
0.0
 10
-11.72406
 20
-5.41091
 30
0.0
 10
-11.71843
 20
-5.39699
 30
0.0
 10
-11.71843
 20
-5.39699
 30
0.0
 10
-11.71843
 20
-5.39699
 30
0.0
 10
-11.71847
 20
-5.39698
 30
0.0
 10
-11.71847
 20
-5.39698
 30
0.0
 10
-11.71847
 20
-5.39698
 30
0.0
 10
-11.64742
 20
-5.22137
 30
0.0
 10
-11.51496
 20
-5.06981
 30
0.0
 10
-11.35522
 20
-4.94327
 30
0.0
 10
-11.35522
 20
-4.94327
 30
0.0
 10
-11.16002
 20
-4.78864
 30
0.0
 10
-10.9237
 20
-4.6713
 30
0.0
 10
-10.71045
 20
-4.59356
 30
0.0
 10
-10.71045
 20
-4.59356
 30
0.0
 10
-10.66946
 20
-4.57862
 30
0.0
 10
-10.62766
 20
-4.56429
 30
0.0
 10
-10.58568
 20
-4.5512
 30
0.0
 10
-10.58568
 20
-4.5512
 30
0.0
 10
-10.5436
 20
-4.53808
 30
0.0
 10
-10.49975
 20
-4.52571
 30
0.0
 10
-10.45427
 20
-4.51457
 30
0.0
 10
-10.45427
 20
-4.51457
 30
0.0
 10
-10.42752
 20
-4.5081
 30
0.0
 10
-10.40058
 20
-4.52454
 30
0.0
 10
-10.39411
 20
-4.55129
 30
0.0
 10
-10.39411
 20
-4.55129
 30
0.0
 10
-10.39255
 20
-4.55775
 30
0.0
 10
-10.39233
 20
-4.56422
 30
0.0
 10
-10.39326
 20
-4.57041
 30
0.0
 10
-10.39326
 20
-4.57041
 30
0.0
 10
-10.39326
 20
-4.57041
 30
0.0
 10
-10.39314
 20
-4.57043
 30
0.0
 10
-10.39314
 20
-4.57043
 30
0.0
 10
-10.39314
 20
-4.57043
 30
0.0
 10
-10.40548
 20
-4.65196
 30
0.0
 10
-10.41418
 20
-4.70856
 30
0.0
 10
-10.42413
 20
-4.77349
 30
0.0
 10
-10.42413
 20
-4.77349
 30
0.0
 10
-10.42413
 20
-4.77349
 30
0.0
 10
-10.42527
 20
-4.78091
 30
0.0
 10
-10.42527
 20
-4.78091
 30
0.0
 10
-10.42527
 20
-4.78091
 30
0.0
 10
-10.42527
 20
-4.78091
 30
0.0
 10
-10.40962
 20
-4.71398
 30
0.0
 10
-10.40962
 20
-4.71398
 30
0.0
 10
-10.40962
 20
-4.71398
 30
0.0
 10
-10.30728
 20
-4.77108
 30
0.0
 10
-10.23417
 20
-4.81654
 30
0.0
 10
-10.19558
 20
-4.84313
 30
0.0
 10
-10.19558
 20
-4.84313
 30
0.0
 10
-10.13017
 20
-4.88822
 30
0.0
 10
-10.11759
 20
-4.89862
 30
0.0
 10
-10.05526
 20
-4.94597
 30
0.0
 10
-10.05526
 20
-4.94597
 30
0.0
 10
-9.93711
 20
-5.03578
 30
0.0
 10
-9.82675
 20
-5.13064
 30
0.0
 10
-9.71736
 20
-5.22593
 30
0.0
 10
-9.71736
 20
-5.22593
 30
0.0
 10
-9.72317
 20
-5.19099
 30
0.0
 10
-9.72873
 20
-5.15719
 30
0.0
 10
-9.73255
 20
-5.13293
 30
0.0
 10
-9.73255
 20
-5.13293
 30
0.0
 10
-9.73863
 20
-5.09435
 30
0.0
 10
-9.74236
 20
-5.06955
 30
0.0
 10
-9.74566
 20
-5.04726
 30
0.0
 10
-9.74566
 20
-5.04726
 30
0.0
 10
-9.79476
 20
-4.99442
 30
0.0
 10
-9.83709
 20
-4.93887
 30
0.0
 10
-9.88333
 20
-4.88955
 30
0.0
 10
-9.88333
 20
-4.88955
 30
0.0
 10
-10.05952
 20
-4.70152
 30
0.0
 10
-10.23961
 20
-4.53128
 30
0.0
 10
-10.40857
 20
-4.33725
 30
0.0
 10
-10.40857
 20
-4.33725
 30
0.0
 10
-10.40857
 20
-4.33725
 30
0.0
 10
-10.33658
 20
-3.91398
 30
0.0
 10
-10.33658
 20
-3.91398
 30
0.0
 10
-10.33658
 20
-3.91398
 30
0.0
 10
-10.26212
 20
-3.97108
 30
0.0
 10
-10.20893
 20
-4.01654
 30
0.0
 10
-10.18085
 20
-4.04313
 30
0.0
 10
-10.18085
 20
-4.04313
 30
0.0
 10
-10.13326
 20
-4.08822
 30
0.0
 10
-10.12411
 20
-4.09862
 30
0.0
 10
-10.07876
 20
-4.14597
 30
0.0
 10
-10.07876
 20
-4.14597
 30
0.0
 10
-9.98012
 20
-4.24903
 30
0.0
 10
-9.88893
 20
-4.35876
 30
0.0
 10
-9.79772
 20
-4.46813
 30
0.0
 10
-9.79772
 20
-4.46813
 30
0.0
 10
-9.79772
 20
-4.46813
 30
0.0
 10
-9.7894
 20
-4.5203
 30
0.0
 10
-9.7894
 20
-4.5203
 30
0.0
 10
-9.7894
 20
-4.5203
 30
0.0
 10
-9.78715
 20
-4.51965
 30
0.0
 10
-9.78484
 20
-4.51914
 30
0.0
 10
-9.78246
 20
-4.5188
 30
0.0
 10
-9.78246
 20
-4.5188
 30
0.0
 10
-9.77478
 20
-4.51771
 30
0.0
 10
-9.76727
 20
-4.51843
 30
0.0
 10
-9.76034
 20
-4.52063
 30
0.0
 10
-9.76034
 20
-4.52063
 30
0.0
 10
-9.65575
 20
-4.54594
 30
0.0
 10
-9.55276
 20
-4.57791
 30
0.0
 10
-9.45296
 20
-4.61762
 30
0.0
 10
-9.45296
 20
-4.61762
 30
0.0
 10
-9.35754
 20
-4.65558
 30
0.0
 10
-9.26507
 20
-4.70053
 30
0.0
 10
-9.17693
 20
-4.75339
 30
0.0
 10
-9.17693
 20
-4.75339
 30
0.0
 10
-9.05156
 20
-4.82853
 30
0.0
 10
-8.9203
 20
-4.92554
 30
0.0
 10
-8.80881
 20
-5.03892
 30
0.0
 10
-8.80881
 20
-5.03892
 30
0.0
 10
-8.7142
 20
-5.13513
 30
0.0
 10
-8.6335
 20
-5.24344
 30
0.0
 10
-8.58193
 20
-5.36074
 30
0.0
 10
-8.58193
 20
-5.36074
 30
0.0
 10
-8.58193
 20
-5.36074
 30
0.0
 10
-8.58186
 20
-5.36071
 30
0.0
 10
-8.58186
 20
-5.36071
 30
0.0
 10
-8.58186
 20
-5.36071
 30
0.0
 10
-8.55383
 20
-5.42448
 30
0.0
 10
-8.53336
 20
-5.49113
 30
0.0
 10
-8.52009
 20
-5.55909
 30
0.0
 10
-8.52009
 20
-5.55909
 30
0.0
 10
-8.50651
 20
-5.62861
 30
0.0
 10
-8.50046
 20
-5.70006
 30
0.0
 10
-8.50151
 20
-5.77169
 30
0.0
 10
-8.50151
 20
-5.77169
 30
0.0
 10
-8.50203
 20
-5.8075
 30
0.0
 10
-8.50423
 20
-5.84258
 30
0.0
 10
-8.50798
 20
-5.87675
 30
0.0
 10
-8.50798
 20
-5.87675
 30
0.0
 10
-8.51181
 20
-5.9117
 30
0.0
 10
-8.51742
 20
-5.94706
 30
0.0
 10
-8.52463
 20
-5.98259
 30
0.0
 10
-8.52463
 20
-5.98259
 30
0.0
 10
-8.52745
 20
-5.99651
 30
0.0
 10
-8.53649
 20
-6.02189
 30
0.0
 10
-8.54707
 20
-6.0516
 30
0.0
 10
-8.54707
 20
-6.0516
 30
0.0
 10
-8.56305
 20
-6.09651
 30
0.0
 10
-8.59566
 20
-6.13481
 30
0.0
 10
-8.58963
 20
-6.14451
 30
0.0
 10
-8.58963
 20
-6.14451
 30
0.0
 10
-8.58963
 20
-6.14451
 30
0.0
 10
-8.67439
 20
-6.19725
 30
0.0
 10
-8.67439
 20
-6.19725
 30
0.0
 10
-8.67439
 20
-6.19725
 30
0.0
 10
-8.72241
 20
-6.12
 30
0.0
 10
-8.7714
 20
-6.0397
 30
0.0
 10
-8.81834
 20
-5.95688
 30
0.0
 10
-8.81834
 20
-5.95688
 30
0.0
 10
-8.85172
 20
-5.89799
 30
0.0
 10
-8.88367
 20
-5.83844
 30
0.0
 10
-8.91285
 20
-5.77874
 30
0.0
 10
-8.91285
 20
-5.77874
 30
0.0
 10
-8.98333
 20
-5.86131
 30
0.0
 10
-9.06011
 20
-5.94771
 30
0.0
 10
-9.14879
 20
-6.01425
 30
0.0
 10
-9.14879
 20
-6.01425
 30
0.0
 10
-9.19902
 20
-6.05194
 30
0.0
 10
-9.25138
 20
-6.08585
 30
0.0
 10
-9.30506
 20
-6.11688
 30
0.0
 10
-9.30506
 20
-6.11688
 30
0.0
 10
-9.35887
 20
-6.14798
 30
0.0
 10
-9.41423
 20
-6.17642
 30
0.0
 10
-9.47025
 20
-6.20302
 30
0.0
 10
-9.47025
 20
-6.20302
 30
0.0
 10
-9.48224
 20
-6.2087
 30
0.0
 10
-9.49875
 20
-6.21731
 30
0.0
 10
-9.51598
 20
-6.22629
 30
0.0
 10
-9.51598
 20
-6.22629
 30
0.0
 10
-9.58541
 20
-6.26248
 30
0.0
 10
-9.66615
 20
-6.30454
 30
0.0
 10
-9.74539
 20
-6.29847
 30
0.0
 10
-9.74539
 20
-6.29847
 30
0.0
 10
-9.77289
 20
-6.29643
 30
0.0
 10
-9.79352
 20
-6.27246
 30
0.0
 10
-9.79148
 20
-6.24496
 30
0.0
 10
-9.79148
 20
-6.24496
 30
0.0
 10
-9.79105
 20
-6.2392
 30
0.0
 10
-9.78966
 20
-6.23374
 30
0.0
 10
-9.78748
 20
-6.22872
 30
0.0
 10
-9.78748
 20
-6.22872
 30
0.0
 10
-9.77378
 20
-6.19153
 30
0.0
 10
-9.75654
 20
-6.15638
 30
0.0
 10
-9.73935
 20
-6.1213
 30
0.0
 10
-9.73935
 20
-6.1213
 30
0.0
 10
-9.71407
 20
-6.06974
 30
0.0
 10
-9.68883
 20
-6.01828
 30
0.0
 10
-9.67849
 20
-5.96334
 30
0.0
 10
-9.67849
 20
-5.96334
 30
0.0
 10
-9.67624
 20
-5.95142
 30
0.0
 10
-9.67252
 20
-5.93492
 30
0.0
 10
-9.66819
 20
-5.9157
 30
0.0
 10
-9.66819
 20
-5.9157
 30
0.0
 10
-9.66134
 20
-5.88526
 30
0.0
 10
-9.65265
 20
-5.84667
 30
0.0
 10
-9.64554
 20
-5.80808
 30
0.0
 10
-9.64554
 20
-5.80808
 30
0.0
 10
-9.66126
 20
-5.79486
 30
0.0
 10
-9.67664
 20
-5.78161
 30
0.0
 10
-9.6919
 20
-5.76847
 30
0.0
 10
-9.6919
 20
-5.76847
 30
0.0
 10
-9.70415
 20
-5.78308
 30
0.0
 10
-9.71632
 20
-5.79773
 30
0.0
 10
-9.72849
 20
-5.81238
 30
0.0
 10
-9.72849
 20
-5.81238
 30
0.0
 10
-9.8142
 20
-5.91552
 30
0.0
 10
-9.89996
 20
-6.01875
 30
0.0
 10
-10.01074
 20
-6.10704
 30
0.0
 10
-10.01074
 20
-6.10704
 30
0.0
 10
-10.08642
 20
-6.16737
 30
0.0
 10
-10.15878
 20
-6.2228
 30
0.0
 10
-10.23502
 20
-6.27281
 30
0.0
 10
-10.23502
 20
-6.27281
 30
0.0
 10
-10.3119
 20
-6.32324
 30
0.0
 10
-10.39321
 20
-6.36843
 30
0.0
 10
-10.48656
 20
-6.40802
 30
0.0
 10
-10.48656
 20
-6.40802
 30
0.0
 10
-10.62511
 20
-6.46677
 30
0.0
 10
-10.77984
 20
-6.52102
 30
0.0
 10
-10.93863
 20
-6.54563
 30
0.0
 10
-10.93863
 20
-6.54563
 30
0.0
 10
-11.10062
 20
-6.57074
 30
0.0
 10
-11.26639
 20
-6.56501
 30
0.0
 10
-11.42324
 20
-6.50239
 30
0.0
 10
-11.42324
 20
-6.50239
 30
0.0
 10
-11.4488
 20
-6.49226
 30
0.0
 10
-11.4613
 20
-6.4633
 30
0.0
 10
-11.45117
 20
-6.43774
 30
0.0
 10
-11.45117
 20
-6.43774
 30
0.0
 10
-11.44975
 20
-6.43416
 30
0.0
 10
-11.44796
 20
-6.43084
 30
0.0
 10
-11.44587
 20
-6.4278
 30
0.0
 10
-11.44587
 20
-6.4278
 30
0.0
 10
-11.44587
 20
-6.4278
 30
0.0
 10
-11.4459
 20
-6.42778
 30
0.0
 10
-11.4459
 20
-6.42778
 30
0.0
 10
-11.4459
 20
-6.42778
 30
0.0
 10
-11.4459
 20
-6.42778
 30
0.0
 10
-11.44224
 20
-6.42247
 30
0.0
 10
-11.44224
 20
-6.42247
 30
0.0
 10
-11.44224
 20
-6.42247
 30
0.0
 10
-11.44224
 20
-6.42247
 30
0.0
 10
-11.44063
 20
-6.42027
 30
0.0
 10
-11.44063
 20
-6.42027
 30
0.0
 10
-11.44063
 20
-6.42027
 30
0.0
 10
-11.44063
 20
-6.42027
 30
0.0
 10
-11.43787
 20
-6.41644
 30
0.0
 10
-11.43787
 20
-6.41644
 30
0.0
 10
-11.43787
 20
-6.41644
 30
0.0
 10
-11.43787
 20
-6.41644
 30
0.0
 10
-11.43761
 20
-6.41609
 30
0.0
 10
-11.43761
 20
-6.41609
 30
0.0
 10
-11.43761
 20
-6.41609
 30
0.0
 10
-11.43761
 20
-6.41609
 30
0.0
 10
-11.43767
 20
-6.41605
 30
0.0
 10
-11.43767
 20
-6.41605
 30
0.0
  0
SPLINE
  5
46
330
1F
100
AcDbEntity
  8
Layer 1
 62
     5
100
AcDbSpline
210
0.0
220
0.0
230
1.0
 70
    11
 71
     3
 72
    32
 73
    28
 74
     0
 42
0.0000000001
 43
0.0000000001
 12
1.0
 22
0.0
 32
0.0
 13
1.0
 23
0.0
 33
0.0
 40
0.0
 40
0.0
 40
0.0
 40
0.0
 40
0.125
 40
0.125
 40
0.125
 40
0.125
 40
0.25
 40
0.25
 40
0.25
 40
0.25
 40
0.375
 40
0.375
 40
0.375
 40
0.375
 40
0.5
 40
0.5
 40
0.5
 40
0.5
 40
0.625
 40
0.625
 40
0.625
 40
0.625
 40
0.75
 40
0.75
 40
0.75
 40
0.75
 40
1.0
 40
1.0
 40
1.0
 40
1.0
 10
-10.48277
 20
-5.15864
 30
0.0
 10
-10.48771
 20
-5.19144
 30
0.0
 10
-10.49236
 20
-5.22251
 30
0.0
 10
-10.49661
 20
-5.2512
 30
0.0
 10
-10.49661
 20
-5.2512
 30
0.0
 10
-10.50499
 20
-5.30765
 30
0.0
 10
-10.51456
 20
-5.39019
 30
0.0
 10
-10.51745
 20
-5.41567
 30
0.0
 10
-10.51745
 20
-5.41567
 30
0.0
 10
-10.51289
 20
-5.43382
 30
0.0
 10
-10.50004
 20
-5.47901
 30
0.0
 10
-10.47972
 20
-5.50253
 30
0.0
 10
-10.47972
 20
-5.50253
 30
0.0
 10
-10.44858
 20
-5.53855
 30
0.0
 10
-10.4119
 20
-5.5695
 30
0.0
 10
-10.37165
 20
-5.59487
 30
0.0
 10
-10.37165
 20
-5.59487
 30
0.0
 10
-10.28603
 20
-5.64883
 30
0.0
 10
-10.18462
 20
-5.67753
 30
0.0
 10
-10.08587
 20
-5.67645
 30
0.0
 10
-10.08587
 20
-5.67645
 30
0.0
 10
-10.01156
 20
-5.67564
 30
0.0
 10
-9.93891
 20
-5.65778
 30
0.0
 10
-9.87613
 20
-5.62096
 30
0.0
 10
-9.87613
 20
-5.62096
 30
0.0
 10
-10.08043
 20
-5.46612
 30
0.0
 10
-10.28673
 20
-5.32024
 30
0.0
 10
-10.48277
 20
-5.15864
 30
0.0
  0
SPLINE
  5
47
330
1F
100
AcDbEntity
  8
Layer 1
 62
     5
100
AcDbSpline
210
0.0
220
0.0
230
1.0
 70
    11
 71
     3
 72
    28
 73
    24
 74
     0
 42
0.0000000001
 43
0.0000000001
 12
1.0
 22
0.0
 32
0.0
 13
1.0
 23
0.0
 33
0.0
 40
0.0
 40
0.0
 40
0.0
 40
0.0
 40
0.1428571428571428
 40
0.1428571428571428
 40
0.1428571428571428
 40
0.1428571428571428
 40
0.2857142857142857
 40
0.2857142857142857
 40
0.2857142857142857
 40
0.2857142857142857
 40
0.4285714285714285
 40
0.4285714285714285
 40
0.4285714285714285
 40
0.4285714285714285
 40
0.5714285714285714
 40
0.5714285714285714
 40
0.5714285714285714
 40
0.5714285714285714
 40
0.7142857142857143
 40
0.7142857142857143
 40
0.7142857142857143
 40
0.7142857142857143
 40
1.0
 40
1.0
 40
1.0
 40
1.0
 10
-9.90278
 20
-3.52453
 30
0.0
 10
-9.90278
 20
-3.52453
 30
0.0
 10
-9.84245
 20
-3.99662
 30
0.0
 10
-9.84245
 20
-3.99662
 30
0.0
 10
-9.84245
 20
-3.99662
 30
0.0
 10
-9.89485
 20
-3.95661
 30
0.0
 10
-10.00794
 20
-3.83943
 30
0.0
 10
-10.03058
 20
-3.81657
 30
0.0
 10
-10.03058
 20
-3.81657
 30
0.0
 10
-10.09127
 20
-3.75524
 30
0.0
 10
-10.22863
 20
-3.59811
 30
0.0
 10
-10.28821
 20
-3.54683
 30
0.0
 10
-10.28821
 20
-3.54683
 30
0.0
 10
-10.28821
 20
-3.54683
 30
0.0
 10
-10.25186
 20
-3.20287
 30
0.0
 10
-10.25186
 20
-3.20287
 30
0.0
 10
-10.25186
 20
-3.20287
 30
0.0
 10
-10.17762
 20
-3.27759
 30
0.0
 10
-10.13558
 20
-3.29666
 30
0.0
 10
-10.06533
 20
-3.37191
 30
0.0
 10
-10.06533
 20
-3.37191
 30
0.0
 10
-10.02789
 20
-3.41205
 30
0.0
 10
-9.94735
 20
-3.49356
 30
0.0
 10
-9.90278
 20
-3.52453
 30
0.0
  0
SPLINE
  5
48
330
1F
100
AcDbEntity
  8
Layer 1
 62
     5
100
AcDbSpline
210
0.0
220
0.0
230
1.0
 70
    11
 71
     3
 72
    24
 73
    20
 74
     0
 42
0.0000000001
 43
0.0000000001
 12
1.0
 22
0.0
 32
0.0
 13
1.0
 23
0.0
 33
0.0
 40
0.0
 40
0.0
 40
0.0
 40
0.0
 40
0.1666666666666667
 40
0.1666666666666667
 40
0.1666666666666667
 40
0.1666666666666667
 40
0.3333333333333333
 40
0.3333333333333333
 40
0.3333333333333333
 40
0.3333333333333333
 40
0.5
 40
0.5
 40
0.5
 40
0.5
 40
0.6666666666666666
 40
0.6666666666666666
 40
0.6666666666666666
 40
0.6666666666666666
 40
1.0
 40
1.0
 40
1.0
 40
1.0
 10
-10.00127
 20
-2.78925
 30
0.0
 10
-10.00127
 20
-2.78925
 30
0.0
 10
-9.94908
 20
-3.16118
 30
0.0
 10
-9.94908
 20
-3.16118
 30
0.0
 10
-9.94908
 20
-3.16118
 30
0.0
 10
-10.04665
 20
-3.08042
 30
0.0
 10
-10.12682
 20
-2.98953
 30
0.0
 10
-10.23294
 20
-2.91789
 30
0.0
 10
-10.23294
 20
-2.91789
 30
0.0
 10
-10.23294
 20
-2.91789
 30
0.0
 10
-10.20555
 20
-2.60756
 30
0.0
 10
-10.20555
 20
-2.60756
 30
0.0
 10
-10.20555
 20
-2.60756
 30
0.0
 10
-10.1531
 20
-2.63973
 30
0.0
 10
-10.12811
 20
-2.67669
 30
0.0
 10
-10.09101
 20
-2.71212
 30
0.0
 10
-10.09101
 20
-2.71212
 30
0.0
 10
-10.07543
 20
-2.72697
 30
0.0
 10
-10.03973
 20
-2.75088
 30
0.0
 10
-10.00127
 20
-2.78925
 30
0.0
  0
SPLINE
  5
49
330
1F
100
AcDbEntity
  8
Layer 1
 62
     5
100
AcDbSpline
210
0.0
220
0.0
230
1.0
 70
    11
 71
     3
 72
    68
 73
    64
 74
     0
 42
0.0000000001
 43
0.0000000001
 12
1.0
 22
0.0
 32
0.0
 13
1.0
 23
0.0
 33
0.0
 40
0.0
 40
0.0
 40
0.0
 40
0.0
 40
0.0588235294117647
 40
0.0588235294117647
 40
0.0588235294117647
 40
0.0588235294117647
 40
0.1176470588235294
 40
0.1176470588235294
 40
0.1176470588235294
 40
0.1176470588235294
 40
0.1764705882352941
 40
0.1764705882352941
 40
0.1764705882352941
 40
0.1764705882352941
 40
0.2352941176470588
 40
0.2352941176470588
 40
0.2352941176470588
 40
0.2352941176470588
 40
0.2941176470588235
 40
0.2941176470588235
 40
0.2941176470588235
 40
0.2941176470588235
 40
0.3529411764705883
 40
0.3529411764705883
 40
0.3529411764705883
 40
0.3529411764705883
 40
0.4117647058823529
 40
0.4117647058823529
 40
0.4117647058823529
 40
0.4117647058823529
 40
0.4705882352941176
 40
0.4705882352941176
 40
0.4705882352941176
 40
0.4705882352941176
 40
0.5294117647058824
 40
0.5294117647058824
 40
0.5294117647058824
 40
0.5294117647058824
 40
0.5882352941176471
 40
0.5882352941176471
 40
0.5882352941176471
 40
0.5882352941176471
 40
0.6470588235294118
 40
0.6470588235294118
 40
0.6470588235294118
 40
0.6470588235294118
 40
0.7058823529411765
 40
0.7058823529411765
 40
0.7058823529411765
 40
0.7058823529411765
 40
0.7647058823529411
 40
0.7647058823529411
 40
0.7647058823529411
 40
0.7647058823529411
 40
0.8235294117647058
 40
0.8235294117647058
 40
0.8235294117647058
 40
0.8235294117647058
 40
0.8823529411764706
 40
0.8823529411764706
 40
0.8823529411764706
 40
0.8823529411764706
 40
1.0
 40
1.0
 40
1.0
 40
1.0
 10
-9.5123
 20
-9.04343
 30
0.0
 10
-9.48933
 20
-9.02823
 30
0.0
 10
-9.45836
 20
-9.03452
 30
0.0
 10
-9.44316
 20
-9.05749
 30
0.0
 10
-9.44316
 20
-9.05749
 30
0.0
 10
-9.42796
 20
-9.08046
 30
0.0
 10
-9.43425
 20
-9.11143
 30
0.0
 10
-9.45722
 20
-9.12663
 30
0.0
 10
-9.45722
 20
-9.12663
 30
0.0
 10
-9.52095
 20
-9.16902
 30
0.0
 10
-9.59163
 20
-9.20323
 30
0.0
 10
-9.66445
 20
-9.2295
 30
0.0
 10
-9.66445
 20
-9.2295
 30
0.0
 10
-9.7427
 20
-9.25773
 30
0.0
 10
-9.82333
 20
-9.27668
 30
0.0
 10
-9.90034
 20
-9.28673
 30
0.0
 10
-9.90034
 20
-9.28673
 30
0.0
 10
-9.97324
 20
-9.29624
 30
0.0
 10
-10.04251
 20
-9.29407
 30
0.0
 10
-10.1107
 20
-9.28391
 30
0.0
 10
-10.1107
 20
-9.28391
 30
0.0
 10
-10.17765
 20
-9.27394
 30
0.0
 10
-10.24383
 20
-9.25621
 30
0.0
 10
-10.31163
 20
-9.23434
 30
0.0
 10
-10.31163
 20
-9.23434
 30
0.0
 10
-10.31163
 20
-9.23434
 30
0.0
 10
-10.32488
 20
-9.23007
 30
0.0
 10
-10.32488
 20
-9.23007
 30
0.0
 10
-10.32488
 20
-9.23007
 30
0.0
 10
-10.40418
 20
-9.20452
 30
0.0
 10
-10.48041
 20
-9.17995
 30
0.0
 10
-10.55489
 20
-9.13535
 30
0.0
 10
-10.55489
 20
-9.13535
 30
0.0
 10
-10.57851
 20
-9.12122
 30
0.0
 10
-10.5862
 20
-9.09061
 30
0.0
 10
-10.57207
 20
-9.06699
 30
0.0
 10
-10.57207
 20
-9.06699
 30
0.0
 10
-10.55794
 20
-9.04337
 30
0.0
 10
-10.52733
 20
-9.03568
 30
0.0
 10
-10.50371
 20
-9.04981
 30
0.0
 10
-10.50371
 20
-9.04981
 30
0.0
 10
-10.439
 20
-9.08856
 30
0.0
 10
-10.36813
 20
-9.1114
 30
0.0
 10
-10.29442
 20
-9.13515
 30
0.0
 10
-10.29442
 20
-9.13515
 30
0.0
 10
-10.29442
 20
-9.13515
 30
0.0
 10
-10.28117
 20
-9.13942
 30
0.0
 10
-10.28117
 20
-9.13942
 30
0.0
 10
-10.28117
 20
-9.13942
 30
0.0
 10
-10.21861
 20
-9.1596
 30
0.0
 10
-10.15765
 20
-9.17595
 30
0.0
 10
-10.09624
 20
-9.18509
 30
0.0
 10
-10.09624
 20
-9.18509
 30
0.0
 10
-10.03609
 20
-9.19405
 30
0.0
 10
-9.97572
 20
-9.19606
 30
0.0
 10
-9.91324
 20
-9.18791
 30
0.0
 10
-9.91324
 20
-9.18791
 30
0.0
 10
-9.84287
 20
-9.17873
 30
0.0
 10
-9.76931
 20
-9.16145
 30
0.0
 10
-9.69805
 20
-9.13574
 30
0.0
 10
-9.69805
 20
-9.13574
 30
0.0
 10
-9.63299
 20
-9.11227
 30
0.0
 10
-9.56965
 20
-9.08158
 30
0.0
 10
-9.5123
 20
-9.04343
 30
0.0
  0
SPLINE
  5
4A
330
1F
100
AcDbEntity
  8
Layer 1
 62
     5
100
AcDbSpline
210
0.0
220
0.0
230
1.0
 70
    11
 71
     3
 72
    68
 73
    64
 74
     0
 42
0.0000000001
 43
0.0000000001
 12
1.0
 22
0.0
 32
0.0
 13
1.0
 23
0.0
 33
0.0
 40
0.0
 40
0.0
 40
0.0
 40
0.0
 40
0.0588235294117647
 40
0.0588235294117647
 40
0.0588235294117647
 40
0.0588235294117647
 40
0.1176470588235294
 40
0.1176470588235294
 40
0.1176470588235294
 40
0.1176470588235294
 40
0.1764705882352941
 40
0.1764705882352941
 40
0.1764705882352941
 40
0.1764705882352941
 40
0.2352941176470588
 40
0.2352941176470588
 40
0.2352941176470588
 40
0.2352941176470588
 40
0.2941176470588235
 40
0.2941176470588235
 40
0.2941176470588235
 40
0.2941176470588235
 40
0.3529411764705883
 40
0.3529411764705883
 40
0.3529411764705883
 40
0.3529411764705883
 40
0.4117647058823529
 40
0.4117647058823529
 40
0.4117647058823529
 40
0.4117647058823529
 40
0.4705882352941176
 40
0.4705882352941176
 40
0.4705882352941176
 40
0.4705882352941176
 40
0.5294117647058824
 40
0.5294117647058824
 40
0.5294117647058824
 40
0.5294117647058824
 40
0.5882352941176471
 40
0.5882352941176471
 40
0.5882352941176471
 40
0.5882352941176471
 40
0.6470588235294118
 40
0.6470588235294118
 40
0.6470588235294118
 40
0.6470588235294118
 40
0.7058823529411765
 40
0.7058823529411765
 40
0.7058823529411765
 40
0.7058823529411765
 40
0.7647058823529411
 40
0.7647058823529411
 40
0.7647058823529411
 40
0.7647058823529411
 40
0.8235294117647058
 40
0.8235294117647058
 40
0.8235294117647058
 40
0.8235294117647058
 40
0.8823529411764706
 40
0.8823529411764706
 40
0.8823529411764706
 40
0.8823529411764706
 40
1.0
 40
1.0
 40
1.0
 40
1.0
 10
-10.01404
 20
-9.1397
 30
0.0
 10
-10.11914
 20
-9.13919
 30
0.0
 10
-10.21426
 20
-9.0964
 30
0.0
 10
-10.28323
 20
-9.02743
 30
0.0
 10
-10.28323
 20
-9.02743
 30
0.0
 10
-10.35261
 20
-8.95805
 30
0.0
 10
-10.39552
 20
-8.86221
 30
0.0
 10
-10.39552
 20
-8.75635
 30
0.0
 10
-10.39552
 20
-8.75635
 30
0.0
 10
-10.39552
 20
-8.72874
 30
0.0
 10
-10.37313
 20
-8.70635
 30
0.0
 10
-10.34552
 20
-8.70635
 30
0.0
 10
-10.34552
 20
-8.70635
 30
0.0
 10
-10.31791
 20
-8.70635
 30
0.0
 10
-10.29552
 20
-8.72874
 30
0.0
 10
-10.29552
 20
-8.75635
 30
0.0
 10
-10.29552
 20
-8.75635
 30
0.0
 10
-10.29552
 20
-8.8346
 30
0.0
 10
-10.2638
 20
-8.90546
 30
0.0
 10
-10.21253
 20
-8.95673
 30
0.0
 10
-10.21253
 20
-8.95673
 30
0.0
 10
-10.16139
 20
-9.00787
 30
0.0
 10
-10.09077
 20
-9.03956
 30
0.0
 10
-10.01275
 20
-9.03972
 30
0.0
 10
-10.01275
 20
-9.03972
 30
0.0
 10
-10.01275
 20
-9.03972
 30
0.0
 10
-10.01216
 20
-9.03972
 30
0.0
 10
-10.01216
 20
-9.03972
 30
0.0
 10
-10.01216
 20
-9.03972
 30
0.0
 10
-9.93414
 20
-9.03956
 30
0.0
 10
-9.8635
 20
-9.00787
 30
0.0
 10
-9.81236
 20
-8.95673
 30
0.0
 10
-9.81236
 20
-8.95673
 30
0.0
 10
-9.76109
 20
-8.90546
 30
0.0
 10
-9.72936
 20
-8.8346
 30
0.0
 10
-9.72936
 20
-8.75635
 30
0.0
 10
-9.72936
 20
-8.75635
 30
0.0
 10
-9.72936
 20
-8.72874
 30
0.0
 10
-9.70697
 20
-8.70635
 30
0.0
 10
-9.67936
 20
-8.70635
 30
0.0
 10
-9.67936
 20
-8.70635
 30
0.0
 10
-9.65175
 20
-8.70635
 30
0.0
 10
-9.62936
 20
-8.72874
 30
0.0
 10
-9.62936
 20
-8.75635
 30
0.0
 10
-9.62936
 20
-8.75635
 30
0.0
 10
-9.62936
 20
-8.86221
 30
0.0
 10
-9.67229
 20
-8.95806
 30
0.0
 10
-9.74166
 20
-9.02743
 30
0.0
 10
-9.74166
 20
-9.02743
 30
0.0
 10
-9.81063
 20
-9.0964
 30
0.0
 10
-9.90576
 20
-9.13919
 30
0.0
 10
-10.01087
 20
-9.1397
 30
0.0
 10
-10.01087
 20
-9.1397
 30
0.0
 10
-10.01087
 20
-9.1397
 30
0.0
 10
-10.01216
 20
-9.13972
 30
0.0
 10
-10.01216
 20
-9.13972
 30
0.0
 10
-10.01216
 20
-9.13972
 30
0.0
 10
-10.01216
 20
-9.13972
 30
0.0
 10
-10.01275
 20
-9.13972
 30
0.0
 10
-10.01275
 20
-9.13972
 30
0.0
 10
-10.01275
 20
-9.13972
 30
0.0
 10
-10.01275
 20
-9.13972
 30
0.0
 10
-10.01404
 20
-9.1397
 30
0.0
 10
-10.01404
 20
-9.1397
 30
0.0
  0
SPLINE
  5
4B
330
1F
100
AcDbEntity
  8
Layer 1
 62
     5
100
AcDbSpline
210
0.0
220
0.0
230
1.0
 70
    11
 71
     3
 72
    60
 73
    56
 74
     0
 42
0.0000000001
 43
0.0000000001
 12
1.0
 22
0.0
 32
0.0
 13
1.0
 23
0.0
 33
0.0
 40
0.0
 40
0.0
 40
0.0
 40
0.0
 40
0.0666666666666667
 40
0.0666666666666667
 40
0.0666666666666667
 40
0.0666666666666667
 40
0.1333333333333333
 40
0.1333333333333333
 40
0.1333333333333333
 40
0.1333333333333333
 40
0.2
 40
0.2
 40
0.2
 40
0.2
 40
0.2666666666666667
 40
0.2666666666666667
 40
0.2666666666666667
 40
0.2666666666666667
 40
0.3333333333333333
 40
0.3333333333333333
 40
0.3333333333333333
 40
0.3333333333333333
 40
0.4
 40
0.4
 40
0.4
 40
0.4
 40
0.4666666666666667
 40
0.4666666666666667
 40
0.4666666666666667
 40
0.4666666666666667
 40
0.5333333333333333
 40
0.5333333333333333
 40
0.5333333333333333
 40
0.5333333333333333
 40
0.6
 40
0.6
 40
0.6
 40
0.6
 40
0.6666666666666666
 40
0.6666666666666666
 40
0.6666666666666666
 40
0.6666666666666666
 40
0.7333333333333333
 40
0.7333333333333333
 40
0.7333333333333333
 40
0.7333333333333333
 40
0.8
 40
0.8
 40
0.8
 40
0.8
 40
0.8666666666666667
 40
0.8666666666666667
 40
0.8666666666666667
 40
0.8666666666666667
 40
1.0
 40
1.0
 40
1.0
 40
1.0
 10
-9.67864
 20
-8.23669
 30
0.0
 10
-9.65773
 20
-8.25453
 30
0.0
 10
-9.6406
 20
-8.28391
 30
0.0
 10
-9.63055
 20
-8.3162
 30
0.0
 10
-9.63055
 20
-8.3162
 30
0.0
 10
-9.62285
 20
-8.34092
 30
0.0
 10
-9.6187
 20
-8.36867
 30
0.0
 10
-9.61974
 20
-8.39491
 30
0.0
 10
-9.61974
 20
-8.39491
 30
0.0
 10
-9.62094
 20
-8.42476
 30
0.0
 10
-9.62901
 20
-8.45343
 30
0.0
 10
-9.64612
 20
-8.47593
 30
0.0
 10
-9.64612
 20
-8.47593
 30
0.0
 10
-9.64612
 20
-8.47593
 30
0.0
 10
-9.64621
 20
-8.47605
 30
0.0
 10
-9.64621
 20
-8.47605
 30
0.0
 10
-9.64621
 20
-8.47605
 30
0.0
 10
-9.64621
 20
-8.47605
 30
0.0
 10
-9.64612
 20
-8.47612
 30
0.0
 10
-9.64612
 20
-8.47612
 30
0.0
 10
-9.64612
 20
-8.47612
 30
0.0
 10
-9.65899
 20
-8.49302
 30
0.0
 10
-9.67622
 20
-8.50587
 30
0.0
 10
-9.69847
 20
-8.5128
 30
0.0
 10
-9.69847
 20
-8.5128
 30
0.0
 10
-9.71353
 20
-8.51749
 30
0.0
 10
-9.7278
 20
-8.51904
 30
0.0
 10
-9.7412
 20
-8.51803
 30
0.0
 10
-9.7412
 20
-8.51803
 30
0.0
 10
-9.77021
 20
-8.51581
 30
0.0
 10
-9.7933
 20
-8.50231
 30
0.0
 10
-9.81111
 20
-8.48241
 30
0.0
 10
-9.81111
 20
-8.48241
 30
0.0
 10
-9.82588
 20
-8.46589
 30
0.0
 10
-9.83631
 20
-8.44533
 30
0.0
 10
-9.84289
 20
-8.42419
 30
0.0
 10
-9.84289
 20
-8.42419
 30
0.0
 10
-9.85093
 20
-8.39842
 30
0.0
 10
-9.85375
 20
-8.37043
 30
0.0
 10
-9.85202
 20
-8.34796
 30
0.0
 10
-9.85202
 20
-8.34796
 30
0.0
 10
-9.85079
 20
-8.33208
 30
0.0
 10
-9.84876
 20
-8.31353
 30
0.0
 10
-9.84263
 20
-8.29428
 30
0.0
 10
-9.84263
 20
-8.29428
 30
0.0
 10
-9.83506
 20
-8.27044
 30
0.0
 10
-9.82184
 20
-8.24833
 30
0.0
 10
-9.79836
 20
-8.23305
 30
0.0
 10
-9.79836
 20
-8.23305
 30
0.0
 10
-9.74784
 20
-8.2002
 30
0.0
 10
-9.71152
 20
-8.21366
 30
0.0
 10
-9.69135
 20
-8.22796
 30
0.0
 10
-9.69135
 20
-8.22796
 30
0.0
 10
-9.68673
 20
-8.23017
 30
0.0
 10
-9.68243
 20
-8.23311
 30
0.0
 10
-9.67864
 20
-8.23669
 30
0.0
  0
SPLINE
  5
4C
330
1F
100
AcDbEntity
  8
Layer 1
 62
     5
100
AcDbSpline
210
0.0
220
0.0
230
1.0
 70
    11
 71
     3
 72
    60
 73
    56
 74
     0
 42
0.0000000001
 43
0.0000000001
 12
1.0
 22
0.0
 32
0.0
 13
1.0
 23
0.0
 33
0.0
 40
0.0
 40
0.0
 40
0.0
 40
0.0
 40
0.0666666666666667
 40
0.0666666666666667
 40
0.0666666666666667
 40
0.0666666666666667
 40
0.1333333333333333
 40
0.1333333333333333
 40
0.1333333333333333
 40
0.1333333333333333
 40
0.2
 40
0.2
 40
0.2
 40
0.2
 40
0.2666666666666667
 40
0.2666666666666667
 40
0.2666666666666667
 40
0.2666666666666667
 40
0.3333333333333333
 40
0.3333333333333333
 40
0.3333333333333333
 40
0.3333333333333333
 40
0.4
 40
0.4
 40
0.4
 40
0.4
 40
0.4666666666666667
 40
0.4666666666666667
 40
0.4666666666666667
 40
0.4666666666666667
 40
0.5333333333333333
 40
0.5333333333333333
 40
0.5333333333333333
 40
0.5333333333333333
 40
0.6
 40
0.6
 40
0.6
 40
0.6
 40
0.6666666666666666
 40
0.6666666666666666
 40
0.6666666666666666
 40
0.6666666666666666
 40
0.7333333333333333
 40
0.7333333333333333
 40
0.7333333333333333
 40
0.7333333333333333
 40
0.8
 40
0.8
 40
0.8
 40
0.8
 40
0.8666666666666667
 40
0.8666666666666667
 40
0.8666666666666667
 40
0.8666666666666667
 40
1.0
 40
1.0
 40
1.0
 40
1.0
 10
-9.72587
 20
-8.34588
 30
0.0
 10
-9.72853
 20
-8.33731
 30
0.0
 10
-9.73157
 20
-8.32971
 30
0.0
 10
-9.73468
 20
-8.32381
 30
0.0
 10
-9.73468
 20
-8.32381
 30
0.0
 10
-9.74021
 20
-8.32114
 30
0.0
 10
-9.74273
 20
-8.31698
 30
0.0
 10
-9.74735
 20
-8.31158
 30
0.0
 10
-9.74735
 20
-8.31158
 30
0.0
 10
-9.74735
 20
-8.31158
 30
0.0
 10
-9.7471
 20
-8.31197
 30
0.0
 10
-9.7471
 20
-8.31197
 30
0.0
 10
-9.7471
 20
-8.31197
 30
0.0
 10
-9.74554
 20
-8.31387
 30
0.0
 10
-9.74362
 20
-8.31636
 30
0.0
 10
-9.74406
 20
-8.31665
 30
0.0
 10
-9.74406
 20
-8.31665
 30
0.0
 10
-9.74519
 20
-8.31738
 30
0.0
 10
-9.74647
 20
-8.32044
 30
0.0
 10
-9.74771
 20
-8.32436
 30
0.0
 10
-9.74771
 20
-8.32436
 30
0.0
 10
-9.75041
 20
-8.33284
 30
0.0
 10
-9.7516
 20
-8.34473
 30
0.0
 10
-9.75242
 20
-8.35538
 30
0.0
 10
-9.75242
 20
-8.35538
 30
0.0
 10
-9.75328
 20
-8.36666
 30
0.0
 10
-9.75178
 20
-8.38101
 30
0.0
 10
-9.74757
 20
-8.39451
 30
0.0
 10
-9.74757
 20
-8.39451
 30
0.0
 10
-9.7448
 20
-8.40341
 30
0.0
 10
-9.7412
 20
-8.41119
 30
0.0
 10
-9.73689
 20
-8.41601
 30
0.0
 10
-9.73689
 20
-8.41601
 30
0.0
 10
-9.73561
 20
-8.41744
 30
0.0
 10
-9.73449
 20
-8.41838
 30
0.0
 10
-9.73378
 20
-8.41843
 30
0.0
 10
-9.73378
 20
-8.41843
 30
0.0
 10
-9.73246
 20
-8.41853
 30
0.0
 10
-9.73059
 20
-8.41824
 30
0.0
 10
-9.72815
 20
-8.41748
 30
0.0
 10
-9.72815
 20
-8.41748
 30
0.0
 10
-9.72698
 20
-8.41712
 30
0.0
 10
-9.72607
 20
-8.41643
 30
0.0
 10
-9.72542
 20
-8.41558
 30
0.0
 10
-9.72542
 20
-8.41558
 30
0.0
 10
-9.72542
 20
-8.41558
 30
0.0
 10
-9.72533
 20
-8.41565
 30
0.0
 10
-9.72533
 20
-8.41565
 30
0.0
 10
-9.72533
 20
-8.41565
 30
0.0
 10
-9.72164
 20
-8.41068
 30
0.0
 10
-9.71977
 20
-8.40172
 30
0.0
 10
-9.71934
 20
-8.39101
 30
0.0
 10
-9.71934
 20
-8.39101
 30
0.0
 10
-9.71877
 20
-8.3766
 30
0.0
 10
-9.72128
 20
-8.36064
 30
0.0
 10
-9.72587
 20
-8.34588
 30
0.0
  0
SPLINE
  5
4D
330
1F
100
AcDbEntity
  8
Layer 1
 62
     5
100
AcDbSpline
210
0.0
220
0.0
230
1.0
 70
    11
 71
     3
 72
    20
 73
    16
 74
     0
 42
0.0000000001
 43
0.0000000001
 12
1.0
 22
0.0
 32
0.0
 13
1.0
 23
0.0
 33
0.0
 40
0.0
 40
0.0
 40
0.0
 40
0.0
 40
0.2
 40
0.2
 40
0.2
 40
0.2
 40
0.4
 40
0.4
 40
0.4
 40
0.4
 40
0.6
 40
0.6
 40
0.6
 40
0.6
 40
1.0
 40
1.0
 40
1.0
 40
1.0
 10
-9.74884
 20
-8.3099
 30
0.0
 10
-9.74884
 20
-8.3099
 30
0.0
 10
-9.7471
 20
-8.31197
 30
0.0
 10
-9.7471
 20
-8.31197
 30
0.0
 10
-9.7471
 20
-8.31197
 30
0.0
 10
-9.7471
 20
-8.31197
 30
0.0
 10
-9.74735
 20
-8.31158
 30
0.0
 10
-9.74735
 20
-8.31158
 30
0.0
 10
-9.74735
 20
-8.31158
 30
0.0
 10
-9.74735
 20
-8.31158
 30
0.0
 10
-9.74851
 20
-8.31026
 30
0.0
 10
-9.74851
 20
-8.31026
 30
0.0
 10
-9.74851
 20
-8.31026
 30
0.0
 10
-9.74851
 20
-8.31026
 30
0.0
 10
-9.74884
 20
-8.3099
 30
0.0
 10
-9.74884
 20
-8.3099
 30
0.0
  0
SPLINE
  5
4E
330
1F
100
AcDbEntity
  8
Layer 1
 62
     5
100
AcDbSpline
210
0.0
220
0.0
230
1.0
 70
    11
 71
     3
 72
    64
 73
    60
 74
     0
 42
0.0000000001
 43
0.0000000001
 12
1.0
 22
0.0
 32
0.0
 13
1.0
 23
0.0
 33
0.0
 40
0.0
 40
0.0
 40
0.0
 40
0.0
 40
0.0625
 40
0.0625
 40
0.0625
 40
0.0625
 40
0.125
 40
0.125
 40
0.125
 40
0.125
 40
0.1875
 40
0.1875
 40
0.1875
 40
0.1875
 40
0.25
 40
0.25
 40
0.25
 40
0.25
 40
0.3125
 40
0.3125
 40
0.3125
 40
0.3125
 40
0.375
 40
0.375
 40
0.375
 40
0.375
 40
0.4375
 40
0.4375
 40
0.4375
 40
0.4375
 40
0.5
 40
0.5
 40
0.5
 40
0.5
 40
0.5625
 40
0.5625
 40
0.5625
 40
0.5625
 40
0.625
 40
0.625
 40
0.625
 40
0.625
 40
0.6875
 40
0.6875
 40
0.6875
 40
0.6875
 40
0.75
 40
0.75
 40
0.75
 40
0.75
 40
0.8125
 40
0.8125
 40
0.8125
 40
0.8125
 40
0.875
 40
0.875
 40
0.875
 40
0.875
 40
1.0
 40
1.0
 40
1.0
 40
1.0
 10
-10.31781
 20
-8.32096
 30
0.0
 10
-10.32149
 20
-8.32717
 30
0.0
 10
-10.32509
 20
-8.33586
 30
0.0
 10
-10.32821
 20
-8.34589
 30
0.0
 10
-10.32821
 20
-8.34589
 30
0.0
 10
-10.3328
 20
-8.36065
 30
0.0
 10
-10.33531
 20
-8.37661
 30
0.0
 10
-10.33473
 20
-8.39101
 30
0.0
 10
-10.33473
 20
-8.39101
 30
0.0
 10
-10.33431
 20
-8.40168
 30
0.0
 10
-10.33242
 20
-8.41063
 30
0.0
 10
-10.32865
 20
-8.41558
 30
0.0
 10
-10.32865
 20
-8.41558
 30
0.0
 10
-10.32865
 20
-8.41558
 30
0.0
 10
-10.32803
 20
-8.41641
 30
0.0
 10
-10.32803
 20
-8.41641
 30
0.0
 10
-10.32803
 20
-8.41641
 30
0.0
 10
-10.32751
 20
-8.41684
 30
0.0
 10
-10.32681
 20
-8.41721
 30
0.0
 10
-10.32593
 20
-8.41748
 30
0.0
 10
-10.32593
 20
-8.41748
 30
0.0
 10
-10.32348
 20
-8.41824
 30
0.0
 10
-10.32161
 20
-8.41853
 30
0.0
 10
-10.32028
 20
-8.41843
 30
0.0
 10
-10.32028
 20
-8.41843
 30
0.0
 10
-10.31958
 20
-8.41838
 30
0.0
 10
-10.31846
 20
-8.41743
 30
0.0
 10
-10.31718
 20
-8.416
 30
0.0
 10
-10.31718
 20
-8.416
 30
0.0
 10
-10.31287
 20
-8.41118
 30
0.0
 10
-10.30927
 20
-8.4034
 30
0.0
 10
-10.3065
 20
-8.39451
 30
0.0
 10
-10.3065
 20
-8.39451
 30
0.0
 10
-10.30229
 20
-8.38102
 30
0.0
 10
-10.3008
 20
-8.36666
 30
0.0
 10
-10.30166
 20
-8.35538
 30
0.0
 10
-10.30166
 20
-8.35538
 30
0.0
 10
-10.30248
 20
-8.34473
 30
0.0
 10
-10.30367
 20
-8.33283
 30
0.0
 10
-10.30636
 20
-8.32436
 30
0.0
 10
-10.30636
 20
-8.32436
 30
0.0
 10
-10.3076
 20
-8.32044
 30
0.0
 10
-10.30888
 20
-8.31738
 30
0.0
 10
-10.31001
 20
-8.31665
 30
0.0
 10
-10.31001
 20
-8.31665
 30
0.0
 10
-10.31045
 20
-8.31636
 30
0.0
 10
-10.30852
 20
-8.31384
 30
0.0
 10
-10.30695
 20
-8.31193
 30
0.0
 10
-10.30695
 20
-8.31193
 30
0.0
 10
-10.30695
 20
-8.31193
 30
0.0
 10
-10.30653
 20
-8.31129
 30
0.0
 10
-10.30653
 20
-8.31129
 30
0.0
 10
-10.30653
 20
-8.31129
 30
0.0
 10
-10.30653
 20
-8.31129
 30
0.0
 10
-10.30811
 20
-8.31286
 30
0.0
 10
-10.30811
 20
-8.31286
 30
0.0
 10
-10.30811
 20
-8.31286
 30
0.0
 10
-10.3112
 20
-8.31606
 30
0.0
 10
-10.31432
 20
-8.31877
 30
0.0
 10
-10.31781
 20
-8.32096
 30
0.0
  0
SPLINE
  5
4F
330
1F
100
AcDbEntity
  8
Layer 1
 62
     5
100
AcDbSpline
210
0.0
220
0.0
230
1.0
 70
    11
 71
     3
 72
    56
 73
    52
 74
     0
 42
0.0000000001
 43
0.0000000001
 12
1.0
 22
0.0
 32
0.0
 13
1.0
 23
0.0
 33
0.0
 40
0.0
 40
0.0
 40
0.0
 40
0.0
 40
0.0714285714285714
 40
0.0714285714285714
 40
0.0714285714285714
 40
0.0714285714285714
 40
0.1428571428571428
 40
0.1428571428571428
 40
0.1428571428571428
 40
0.1428571428571428
 40
0.2142857142857143
 40
0.2142857142857143
 40
0.2142857142857143
 40
0.2142857142857143
 40
0.2857142857142857
 40
0.2857142857142857
 40
0.2857142857142857
 40
0.2857142857142857
 40
0.3571428571428572
 40
0.3571428571428572
 40
0.3571428571428572
 40
0.3571428571428572
 40
0.4285714285714285
 40
0.4285714285714285
 40
0.4285714285714285
 40
0.4285714285714285
 40
0.5
 40
0.5
 40
0.5
 40
0.5
 40
0.5714285714285714
 40
0.5714285714285714
 40
0.5714285714285714
 40
0.5714285714285714
 40
0.6428571428571429
 40
0.6428571428571429
 40
0.6428571428571429
 40
0.6428571428571429
 40
0.7142857142857143
 40
0.7142857142857143
 40
0.7142857142857143
 40
0.7142857142857143
 40
0.7857142857142857
 40
0.7857142857142857
 40
0.7857142857142857
 40
0.7857142857142857
 40
0.8571428571428571
 40
0.8571428571428571
 40
0.8571428571428571
 40
0.8571428571428571
 40
1.0
 40
1.0
 40
1.0
 40
1.0
 10
-10.42353
 20
-8.31621
 30
0.0
 10
-10.41366
 20
-8.2845
 30
0.0
 10
-10.39696
 20
-8.2556
 30
0.0
 10
-10.37657
 20
-8.23767
 30
0.0
 10
-10.37657
 20
-8.23767
 30
0.0
 10
-10.37242
 20
-8.23351
 30
0.0
 10
-10.36761
 20
-8.23017
 30
0.0
 10
-10.36239
 20
-8.22772
 30
0.0
 10
-10.36239
 20
-8.22772
 30
0.0
 10
-10.34214
 20
-8.2135
 30
0.0
 10
-10.30595
 20
-8.20038
 30
0.0
 10
-10.25571
 20
-8.23305
 30
0.0
 10
-10.25571
 20
-8.23305
 30
0.0
 10
-10.23224
 20
-8.24832
 30
0.0
 10
-10.21902
 20
-8.27043
 30
0.0
 10
-10.21144
 20
-8.29428
 30
0.0
 10
-10.21144
 20
-8.29428
 30
0.0
 10
-10.20532
 20
-8.31355
 30
0.0
 10
-10.20329
 20
-8.33209
 30
0.0
 10
-10.20206
 20
-8.34796
 30
0.0
 10
-10.20206
 20
-8.34796
 30
0.0
 10
-10.20033
 20
-8.37042
 30
0.0
 10
-10.20314
 20
-8.39843
 30
0.0
 10
-10.21118
 20
-8.42419
 30
0.0
 10
-10.21118
 20
-8.42419
 30
0.0
 10
-10.21776
 20
-8.44533
 30
0.0
 10
-10.22819
 20
-8.46589
 30
0.0
 10
-10.24296
 20
-8.4824
 30
0.0
 10
-10.24296
 20
-8.4824
 30
0.0
 10
-10.26074
 20
-8.50231
 30
0.0
 10
-10.28385
 20
-8.51579
 30
0.0
 10
-10.31286
 20
-8.51803
 30
0.0
 10
-10.31286
 20
-8.51803
 30
0.0
 10
-10.32628
 20
-8.51904
 30
0.0
 10
-10.34054
 20
-8.51749
 30
0.0
 10
-10.35561
 20
-8.5128
 30
0.0
 10
-10.35561
 20
-8.5128
 30
0.0
 10
-10.37613
 20
-8.50641
 30
0.0
 10
-10.39245
 20
-8.49482
 30
0.0
 10
-10.40507
 20
-8.47956
 30
0.0
 10
-10.40507
 20
-8.47956
 30
0.0
 10
-10.40607
 20
-8.47847
 30
0.0
 10
-10.40703
 20
-8.47732
 30
0.0
 10
-10.40795
 20
-8.47612
 30
0.0
 10
-10.40795
 20
-8.47612
 30
0.0
 10
-10.42506
 20
-8.45364
 30
0.0
 10
-10.43314
 20
-8.42489
 30
0.0
 10
-10.43433
 20
-8.39491
 30
0.0
 10
-10.43433
 20
-8.39491
 30
0.0
 10
-10.43538
 20
-8.36868
 30
0.0
 10
-10.43123
 20
-8.34094
 30
0.0
 10
-10.42353
 20
-8.31621
 30
0.0
  0
SPLINE
  5
50
330
1F
100
AcDbEntity
  8
Layer 1
 62
     5
100
AcDbSpline
210
0.0
220
0.0
230
1.0
 70
    11
 71
     3
 72
    16
 73
    12
 74
     0
 42
0.0000000001
 43
0.0000000001
 12
1.0
 22
0.0
 32
0.0
 13
1.0
 23
0.0
 33
0.0
 40
0.0
 40
0.0
 40
0.0
 40
0.0
 40
0.25
 40
0.25
 40
0.25
 40
0.25
 40
0.5
 40
0.5
 40
0.5
 40
0.5
 40
1.0
 40
1.0
 40
1.0
 40
1.0
 10
-10.30695
 20
-8.31193
 30
0.0
 10
-10.30695
 20
-8.31193
 30
0.0
 10
-10.30524
 20
-8.3099
 30
0.0
 10
-10.30524
 20
-8.3099
 30
0.0
 10
-10.30524
 20
-8.3099
 30
0.0
 10
-10.30524
 20
-8.3099
 30
0.0
 10
-10.30653
 20
-8.31129
 30
0.0
 10
-10.30653
 20
-8.31129
 30
0.0
 10
-10.30653
 20
-8.31129
 30
0.0
 10
-10.30653
 20
-8.31129
 30
0.0
 10
-10.30695
 20
-8.31193
 30
0.0
 10
-10.30695
 20
-8.31193
 30
0.0
  0
SPLINE
  5
51
330
1F
100
AcDbEntity
  8
Layer 1
 62
     5
100
AcDbSpline
210
0.0
220
0.0
230
1.0
 70
    11
 71
     3
 72
   152
 73
   148
 74
     0
 42
0.0000000001
 43
0.0000000001
 12
1.0
 22
0.0
 32
0.0
 13
1.0
 23
0.0
 33
0.0
 40
0.0
 40
0.0
 40
0.0
 40
0.0
 40
0.0263157894736842
 40
0.0263157894736842
 40
0.0263157894736842
 40
0.0263157894736842
 40
0.0526315789473684
 40
0.0526315789473684
 40
0.0526315789473684
 40
0.0526315789473684
 40
0.0789473684210526
 40
0.0789473684210526
 40
0.0789473684210526
 40
0.0789473684210526
 40
0.1052631578947368
 40
0.1052631578947368
 40
0.1052631578947368
 40
0.1052631578947368
 40
0.131578947368421
 40
0.131578947368421
 40
0.131578947368421
 40
0.131578947368421
 40
0.1578947368421053
 40
0.1578947368421053
 40
0.1578947368421053
 40
0.1578947368421053
 40
0.1842105263157895
 40
0.1842105263157895
 40
0.1842105263157895
 40
0.1842105263157895
 40
0.2105263157894737
 40
0.2105263157894737
 40
0.2105263157894737
 40
0.2105263157894737
 40
0.2368421052631579
 40
0.2368421052631579
 40
0.2368421052631579
 40
0.2368421052631579
 40
0.2631578947368421
 40
0.2631578947368421
 40
0.2631578947368421
 40
0.2631578947368421
 40
0.2894736842105263
 40
0.2894736842105263
 40
0.2894736842105263
 40
0.2894736842105263
 40
0.3157894736842105
 40
0.3157894736842105
 40
0.3157894736842105
 40
0.3157894736842105
 40
0.3421052631578947
 40
0.3421052631578947
 40
0.3421052631578947
 40
0.3421052631578947
 40
0.3684210526315789
 40
0.3684210526315789
 40
0.3684210526315789
 40
0.3684210526315789
 40
0.3947368421052632
 40
0.3947368421052632
 40
0.3947368421052632
 40
0.3947368421052632
 40
0.4210526315789473
 40
0.4210526315789473
 40
0.4210526315789473
 40
0.4210526315789473
 40
0.4473684210526316
 40
0.4473684210526316
 40
0.4473684210526316
 40
0.4473684210526316
 40
0.4736842105263158
 40
0.4736842105263158
 40
0.4736842105263158
 40
0.4736842105263158
 40
0.5
 40
0.5
 40
0.5
 40
0.5
 40
0.5263157894736842
 40
0.5263157894736842
 40
0.5263157894736842
 40
0.5263157894736842
 40
0.5526315789473685
 40
0.5526315789473685
 40
0.5526315789473685
 40
0.5526315789473685
 40
0.5789473684210527
 40
0.5789473684210527
 40
0.5789473684210527
 40
0.5789473684210527
 40
0.6052631578947368
 40
0.6052631578947368
 40
0.6052631578947368
 40
0.6052631578947368
 40
0.631578947368421
 40
0.631578947368421
 40
0.631578947368421
 40
0.631578947368421
 40
0.6578947368421053
 40
0.6578947368421053
 40
0.6578947368421053
 40
0.6578947368421053
 40
0.6842105263157895
 40
0.6842105263157895
 40
0.6842105263157895
 40
0.6842105263157895
 40
0.7105263157894737
 40
0.7105263157894737
 40
0.7105263157894737
 40
0.7105263157894737
 40
0.7368421052631579
 40
0.7368421052631579
 40
0.7368421052631579
 40
0.7368421052631579
 40
0.7631578947368421
 40
0.7631578947368421
 40
0.7631578947368421
 40
0.7631578947368421
 40
0.7894736842105263
 40
0.7894736842105263
 40
0.7894736842105263
 40
0.7894736842105263
 40
0.8157894736842105
 40
0.8157894736842105
 40
0.8157894736842105
 40
0.8157894736842105
 40
0.8421052631578947
 40
0.8421052631578947
 40
0.8421052631578947
 40
0.8421052631578947
 40
0.868421052631579
 40
0.868421052631579
 40
0.868421052631579
 40
0.868421052631579
 40
0.8947368421052632
 40
0.8947368421052632
 40
0.8947368421052632
 40
0.8947368421052632
 40
0.9210526315789473
 40
0.9210526315789473
 40
0.9210526315789473
 40
0.9210526315789473
 40
0.9473684210526315
 40
0.9473684210526315
 40
0.9473684210526315
 40
0.9473684210526315
 40
1.0
 40
1.0
 40
1.0
 40
1.0
 10
-10.79543
 20
-8.29833
 30
0.0
 10
-10.80718
 20
-8.32324
 30
0.0
 10
-10.83693
 20
-8.33391
 30
0.0
 10
-10.86184
 20
-8.32216
 30
0.0
 10
-10.86184
 20
-8.32216
 30
0.0
 10
-10.88675
 20
-8.31041
 30
0.0
 10
-10.89742
 20
-8.28066
 30
0.0
 10
-10.88567
 20
-8.25575
 30
0.0
 10
-10.88567
 20
-8.25575
 30
0.0
 10
-10.85763
 20
-8.19619
 30
0.0
 10
-10.80929
 20
-8.12935
 30
0.0
 10
-10.75334
 20
-8.07137
 30
0.0
 10
-10.75334
 20
-8.07137
 30
0.0
 10
-10.70001
 20
-8.01609
 30
0.0
 10
-10.63889
 20
-7.96795
 30
0.0
 10
-10.58067
 20
-7.94055
 30
0.0
 10
-10.58067
 20
-7.94055
 30
0.0
 10
-10.57958
 20
-7.94004
 30
0.0
 10
-10.57849
 20
-7.93955
 30
0.0
 10
-10.57738
 20
-7.93913
 30
0.0
 10
-10.57738
 20
-7.93913
 30
0.0
 10
-10.46004
 20
-7.8855
 30
0.0
 10
-10.3439
 20
-7.92254
 30
0.0
 10
-10.23512
 20
-7.95725
 30
0.0
 10
-10.23512
 20
-7.95725
 30
0.0
 10
-10.22178
 20
-7.9615
 30
0.0
 10
-10.20857
 20
-7.96573
 30
0.0
 10
-10.19407
 20
-7.97012
 30
0.0
 10
-10.19407
 20
-7.97012
 30
0.0
 10
-10.14084
 20
-7.98626
 30
0.0
 10
-10.08729
 20
-7.99538
 30
0.0
 10
-10.03481
 20
-7.99402
 30
0.0
 10
-10.03481
 20
-7.99402
 30
0.0
 10
-9.98401
 20
-7.99271
 30
0.0
 10
-9.93371
 20
-7.98136
 30
0.0
 10
-9.88509
 20
-7.95669
 30
0.0
 10
-9.88509
 20
-7.95669
 30
0.0
 10
-9.84716
 20
-7.93744
 30
0.0
 10
-9.80549
 20
-7.92017
 30
0.0
 10
-9.76253
 20
-7.9087
 30
0.0
 10
-9.76253
 20
-7.9087
 30
0.0
 10
-9.76253
 20
-7.9087
 30
0.0
 10
-9.76032
 20
-7.90816
 30
0.0
 10
-9.76032
 20
-7.90816
 30
0.0
 10
-9.76032
 20
-7.90816
 30
0.0
 10
-9.72321
 20
-7.89843
 30
0.0
 10
-9.68482
 20
-7.89298
 30
0.0
 10
-9.64647
 20
-7.8941
 30
0.0
 10
-9.64647
 20
-7.8941
 30
0.0
 10
-9.6288
 20
-7.89461
 30
0.0
 10
-9.61063
 20
-7.8968
 30
0.0
 10
-9.59275
 20
-7.90003
 30
0.0
 10
-9.59275
 20
-7.90003
 30
0.0
 10
-9.57205
 20
-7.90377
 30
0.0
 10
-9.55221
 20
-7.90874
 30
0.0
 10
-9.53417
 20
-7.91406
 30
0.0
 10
-9.53417
 20
-7.91406
 30
0.0
 10
-9.49453
 20
-7.92576
 30
0.0
 10
-9.45621
 20
-7.94094
 30
0.0
 10
-9.42054
 20
-7.96028
 30
0.0
 10
-9.42054
 20
-7.96028
 30
0.0
 10
-9.38702
 20
-7.97846
 30
0.0
 10
-9.35526
 20
-8.0006
 30
0.0
 10
-9.32621
 20
-8.02728
 30
0.0
 10
-9.32621
 20
-8.02728
 30
0.0
 10
-9.28896
 20
-8.0615
 30
0.0
 10
-9.25442
 20
-8.10272
 30
0.0
 10
-9.22365
 20
-8.14683
 30
0.0
 10
-9.22365
 20
-8.14683
 30
0.0
 10
-9.18964
 20
-8.19561
 30
0.0
 10
-9.16045
 20
-8.24757
 30
0.0
 10
-9.13741
 20
-8.29731
 30
0.0
 10
-9.13741
 20
-8.29731
 30
0.0
 10
-9.12864
 20
-8.31632
 30
0.0
 10
-9.13286
 20
-8.33801
 30
0.0
 10
-9.14636
 20
-8.35239
 30
0.0
 10
-9.14636
 20
-8.35239
 30
0.0
 10
-9.16022
 20
-8.37177
 30
0.0
 10
-9.18641
 20
-8.37897
 30
0.0
 10
-9.20859
 20
-8.36826
 30
0.0
 10
-9.20859
 20
-8.36826
 30
0.0
 10
-9.22719
 20
-8.35928
 30
0.0
 10
-9.2377
 20
-8.34027
 30
0.0
 10
-9.23674
 20
-8.32085
 30
0.0
 10
-9.23674
 20
-8.32085
 30
0.0
 10
-9.25612
 20
-8.28132
 30
0.0
 10
-9.27925
 20
-8.24121
 30
0.0
 10
-9.30529
 20
-8.20387
 30
0.0
 10
-9.30529
 20
-8.20387
 30
0.0
 10
-9.33183
 20
-8.16582
 30
0.0
 10
-9.36163
 20
-8.13026
 30
0.0
 10
-9.39379
 20
-8.10072
 30
0.0
 10
-9.39379
 20
-8.10072
 30
0.0
 10
-9.41613
 20
-8.0802
 30
0.0
 10
-9.44123
 20
-8.06281
 30
0.0
 10
-9.4682
 20
-8.04818
 30
0.0
 10
-9.4682
 20
-8.04818
 30
0.0
 10
-9.49815
 20
-8.03194
 30
0.0
 10
-9.52985
 20
-8.01933
 30
0.0
 10
-9.56229
 20
-8.00976
 30
0.0
 10
-9.56229
 20
-8.00976
 30
0.0
 10
-9.57805
 20
-8.00511
 30
0.0
 10
-9.59453
 20
-8.00092
 30
0.0
 10
-9.61033
 20
-7.99807
 30
0.0
 10
-9.61033
 20
-7.99807
 30
0.0
 10
-9.62359
 20
-7.99567
 30
0.0
 10
-9.63679
 20
-7.99406
 30
0.0
 10
-9.64921
 20
-7.9937
 30
0.0
 10
-9.64921
 20
-7.9937
 30
0.0
 10
-9.67705
 20
-7.99289
 30
0.0
 10
-9.70605
 20
-7.99712
 30
0.0
 10
-9.73482
 20
-8.00462
 30
0.0
 10
-9.73482
 20
-8.00462
 30
0.0
 10
-9.73482
 20
-8.00462
 30
0.0
 10
-9.73675
 20
-8.00518
 30
0.0
 10
-9.73675
 20
-8.00518
 30
0.0
 10
-9.73675
 20
-8.00518
 30
0.0
 10
-9.77277
 20
-8.0148
 30
0.0
 10
-9.80798
 20
-8.02942
 30
0.0
 10
-9.84017
 20
-8.04575
 30
0.0
 10
-9.84017
 20
-8.04575
 30
0.0
 10
-9.90251
 20
-8.07738
 30
0.0
 10
-9.96713
 20
-8.09194
 30
0.0
 10
-10.03247
 20
-8.09362
 30
0.0
 10
-10.03247
 20
-8.09362
 30
0.0
 10
-10.09613
 20
-8.09527
 30
0.0
 10
-10.16008
 20
-8.08451
 30
0.0
 10
-10.22297
 20
-8.06544
 30
0.0
 10
-10.22297
 20
-8.06544
 30
0.0
 10
-10.23589
 20
-8.06152
 30
0.0
 10
-10.25052
 20
-8.05685
 30
0.0
 10
-10.2652
 20
-8.05217
 30
0.0
 10
-10.2652
 20
-8.05217
 30
0.0
 10
-10.35613
 20
-8.02316
 30
0.0
 10
-10.45319
 20
-7.9922
 30
0.0
 10
-10.53596
 20
-8.02972
 30
0.0
 10
-10.53596
 20
-8.02972
 30
0.0
 10
-10.53596
 20
-8.02972
 30
0.0
 10
-10.53809
 20
-8.03079
 30
0.0
 10
-10.53809
 20
-8.03079
 30
0.0
 10
-10.53809
 20
-8.03079
 30
0.0
 10
-10.5851
 20
-8.05292
 30
0.0
 10
-10.63599
 20
-8.09339
 30
0.0
 10
-10.68146
 20
-8.14051
 30
0.0
 10
-10.68146
 20
-8.14051
 30
0.0
 10
-10.73021
 20
-8.19103
 30
0.0
 10
-10.77186
 20
-8.24827
 30
0.0
 10
-10.79543
 20
-8.29833
 30
0.0
  0
ENDSEC
  0
SECTION
  2
OBJECTS
  0
DICTIONARY
  5
C
330
0
100
AcDbDictionary
281
     1
  3
ACAD_GROUP
350
D
  3
ACAD_LAYOUT
350
1A
  3
ACAD_MATERIAL
350
3B
  3
ACAD_MLEADERSTYLE
350
73
  3
ACAD_MLINESTYLE
350
17
  3
ACAD_PLOTSETTINGS
350
19
  3
ACAD_PLOTSTYLENAME
350
E
  3
ACAD_TABLESTYLE
350
72
  3
ACAD_VISUALSTYLE
350
2A
  0
DICTIONARY
  5
D
102
{ACAD_REACTORS
330
C
102
}
330
C
100
AcDbDictionary
281
     1
  0
DICTIONARY
  5
1A
102
{ACAD_REACTORS
330
C
102
}
330
C
100
AcDbDictionary
281
     1
  3
Layout1
350
1E
  3
Layout2
350
26
  3
Model
350
22
  0
DICTIONARY
  5
3B
102
{ACAD_REACTORS
330
C
102
}
330
C
100
AcDbDictionary
281
     1
  3
ByBlock
350
3D
  3
ByLayer
350
3C
  3
Global
350
3E
  0
DICTIONARY
  5
73
102
{ACAD_REACTORS
330
C
102
}
330
C
100
AcDbDictionary
281
     1
  0
DICTIONARY
  5
17
102
{ACAD_REACTORS
330
C
102
}
330
C
100
AcDbDictionary
281
     1
  3
Standard
350
18
  0
DICTIONARY
  5
19
102
{ACAD_REACTORS
330
C
102
}
330
C
100
AcDbDictionary
281
     1
  0
ACDBDICTIONARYWDFLT
  5
E
102
{ACAD_REACTORS
330
C
102
}
330
C
100
AcDbDictionary
281
     1
  3
Normal
350
F
100
AcDbDictionaryWithDefault
340
F
  0
DICTIONARY
  5
72
102
{ACAD_REACTORS
330
C
102
}
330
C
100
AcDbDictionary
281
     1
  0
DICTIONARY
  5
2A
102
{ACAD_REACTORS
330
C
102
}
330
C
100
AcDbDictionary
281
     1
  3
2dWireframe
350
2F
  3
3D Hidden
350
31
  3
3dWireframe
350
30
  3
Basic
350
32
  3
Brighten
350
36
  3
ColorChange
350
3A
  3
Conceptual
350
34
  3
Dim
350
35
  3
Facepattern
350
39
  3
Flat
350
2B
  3
FlatWithEdges
350
2C
  3
Gouraud
350
2D
  3
GouraudWithEdges
350
2E
  3
Linepattern
350
38
  3
Realistic
350
33
  3
Thicken
350
37
  0
LAYOUT
  5
1E
102
{ACAD_REACTORS
330
1A
102
}
330
1A
100
AcDbPlotSettings
  1

  2
none_device
  4

  6

 40
0.0
 41
0.0
 42
0.0
 43
0.0
 44
0.0
 45
0.0
 46
0.0
 47
0.0
 48
0.0
 49
0.0
140
0.0
141
0.0
142
1.0
143
1.0
 70
   688
 72
     0
 73
     0
 74
     5
  7

 75
    16
 76
     0
 77
     2
 78
   300
147
1.0
148
0.0
149
0.0
100
AcDbLayout
  1
Layout1
 70
     1
 71
     1
 10
0.0
 20
0.0
 11
12.0
 21
9.0
 12
0.0
 22
0.0
 32
0.0
 14
1.000000000000000E+20
 24
1.000000000000000E+20
 34
1.000000000000000E+20
 15
-1.000000000000000E+20
 25
-1.000000000000000E+20
 35
-1.000000000000000E+20
146
0.0
 13
0.0
 23
0.0
 33
0.0
 16
1.0
 26
0.0
 36
0.0
 17
0.0
 27
1.0
 37
0.0
 76
     0
330
1B
  0
LAYOUT
  5
26
102
{ACAD_REACTORS
330
1A
102
}
330
1A
100
AcDbPlotSettings
  1

  2
none_device
  4

  6

 40
0.0
 41
0.0
 42
0.0
 43
0.0
 44
0.0
 45
0.0
 46
0.0
 47
0.0
 48
0.0
 49
0.0
140
0.0
141
0.0
142
1.0
143
1.0
 70
   688
 72
     0
 73
     0
 74
     5
  7

 75
    16
 76
     0
 77
     2
 78
   300
147
1.0
148
0.0
149
0.0
100
AcDbLayout
  1
Layout2
 70
     1
 71
     2
 10
0.0
 20
0.0
 11
0.0
 21
0.0
 12
0.0
 22
0.0
 32
0.0
 14
0.0
 24
0.0
 34
0.0
 15
0.0
 25
0.0
 35
0.0
146
0.0
 13
0.0
 23
0.0
 33
0.0
 16
1.0
 26
0.0
 36
0.0
 17
0.0
 27
1.0
 37
0.0
 76
     0
330
23
  0
LAYOUT
  5
22
102
{ACAD_REACTORS
330
1A
102
}
330
1A
100
AcDbPlotSettings
  1

  2
none_device
  4

  6

 40
0.0
 41
0.0
 42
0.0
 43
0.0
 44
0.0
 45
0.0
 46
0.0
 47
0.0
 48
0.0
 49
0.0
140
0.0
141
0.0
142
1.0
143
1.0
 70
  1712
 72
     0
 73
     0
 74
     0
  7

 75
     0
 76
     0
 77
     2
 78
   300
147
1.0
148
0.0
149
0.0
100
AcDbLayout
  1
Model
 70
     1
 71
     0
 10
0.0
 20
0.0
 11
12.0
 21
9.0
 12
0.0
 22
0.0
 32
0.0
 14
-11.77576
 24
-9.29282
 34
0.0
 15
12.73219
 25
-2.60756
 35
0.0
146
0.0
 13
0.0
 23
0.0
 33
0.0
 16
1.0
 26
0.0
 36
0.0
 17
0.0
 27
1.0
 37
0.0
 76
     0
330
1F
331
29
  0
MATERIAL
  5
3D
102
{ACAD_REACTORS
330
3B
102
}
330
3B
100
AcDbMaterial
  1
ByBlock
 72
     1
 94
      127
  0
MATERIAL
  5
3C
102
{ACAD_REACTORS
330
3B
102
}
330
3B
100
AcDbMaterial
  1
ByLayer
 72
     1
 94
      127
  0
MATERIAL
  5
3E
102
{ACAD_REACTORS
330
3B
102
}
330
3B
100
AcDbMaterial
  1
Global
 72
     1
 94
      127
  0
MLINESTYLE
  5
18
102
{ACAD_REACTORS
330
17
102
}
330
17
100
AcDbMlineStyle
  2
Standard
 70
     0
  3

 62
   256
 51
90.0
 52
90.0
 71
     2
 49
0.5
 62
   256
  6
BYLAYER
 49
-0.5
 62
   256
  6
BYLAYER
  0
ACDBPLACEHOLDER
  5
F
102
{ACAD_REACTORS
330
E
102
}
330
E
  0
VISUALSTYLE
  5
2F
102
{ACAD_REACTORS
330
2A
102
}
102
{ACAD_XDICTIONARY
360
5A
102
}
330
2A
100
AcDbVisualStyle
  2
2dWireframe
 70
     4
 71
     0
 72
     2
 73
     0
 90
        0
 40
-0.6
 41
-30.0
 62
     5
 63
     7
421
 16777215
 74
     1
 91
        4
 64
     7
 65
   257
 75
     1
175
     1
 42
1.0
 92
        0
 66
   257
 43
1.0
 76
     1
 77
     6
 78
     2
 67
     7
 79
     5
170
     0
171
     0
290
     0
174
     0
 93
        1
 44
0.0
173
     0
291
     0
 45
0.0
  0
VISUALSTYLE
  5
31
102
{ACAD_REACTORS
330
2A
102
}
102
{ACAD_XDICTIONARY
360
5E
102
}
330
2A
100
AcDbVisualStyle
  2
3D Hidden
 70
     6
 71
     1
 72
     2
 73
     2
 90
        0
 40
-0.6
 41
-30.0
 62
     5
 63
     7
421
 16777215
 74
     2
 91
        2
 64
     7
 65
   257
 75
     2
175
     1
 42
40.0
 92
        0
 66
   257
 43
1.0
 76
     1
 77
     6
 78
     2
 67
     7
 79
     3
170
     0
171
     0
290
     0
174
     0
 93
        1
 44
0.0
173
     0
291
     0
 45
0.0
  0
VISUALSTYLE
  5
30
102
{ACAD_REACTORS
330
2A
102
}
102
{ACAD_XDICTIONARY
360
5C
102
}
330
2A
100
AcDbVisualStyle
  2
3dWireframe
 70
     5
 71
     0
 72
     2
 73
     0
 90
        0
 40
-0.6
 41
-30.0
 62
     5
 63
     7
421
 16777215
 74
     1
 91
        4
 64
     7
 65
   257
 75
     1
175
     1
 42
1.0
 92
        0
 66
   257
 43
1.0
 76
     1
 77
     6
 78
     2
 67
     7
 79
     5
170
     0
171
     0
290
     0
174
     0
 93
        1
 44
0.0
173
     0
291
     0
 45
0.0
  0
VISUALSTYLE
  5
32
102
{ACAD_REACTORS
330
2A
102
}
102
{ACAD_XDICTIONARY
360
60
102
}
330
2A
100
AcDbVisualStyle
  2
Basic
 70
     7
 71
     1
 72
     0
 73
     1
 90
        0
 40
-0.6
 41
-30.0
 62
     5
 63
     7
421
 16777215
 74
     0
 91
        4
 64
     7
 65
   257
 75
     1
175
     1
 42
1.0
 92
        8
 66
     7
 43
1.0
 76
     1
 77
     6
 78
     2
 67
     7
 79
     5
170
     0
171
     0
290
     0
174
     0
 93
        1
 44
0.0
173
     0
291
     1
 45
0.0
  0
VISUALSTYLE
  5
36
102
{ACAD_REACTORS
330
2A
102
}
102
{ACAD_XDICTIONARY
360
68
102
}
330
2A
100
AcDbVisualStyle
  2
Brighten
 70
    12
 71
     2
 72
     2
 73
     0
 90
        0
 40
-0.6
 41
-30.0
 62
     5
 63
     7
421
 16777215
 74
     1
 91
        4
 64
     7
 65
   257
 75
     1
175
     1
 42
1.0
 92
        8
 66
     7
 43
1.0
 76
     1
 77
     6
 78
     2
 67
     7
 79
     5
170
     0
171
     0
290
     0
174
     0
 93
        1
 44
50.0
173
     0
291
     1
 45
0.0
  0
VISUALSTYLE
  5
3A
102
{ACAD_REACTORS
330
2A
102
}
102
{ACAD_XDICTIONARY
360
70
102
}
330
2A
100
AcDbVisualStyle
  2
ColorChange
 70
    16
 71
     2
 72
     2
 73
     3
 90
        0
 40
-0.6
 41
-30.0
 62
     5
 63
     8
421
  8421504
 74
     1
 91
        4
 64
     7
 65
   257
 75
     1
175
     1
 42
1.0
 92
        8
 66
     8
424
  8421504
 43
1.0
 76
     1
 77
     6
 78
     2
 67
     7
 79
     5
170
     0
171
     0
290
     0
174
     0
 93
        1
 44
0.0
173
     0
291
     1
 45
0.0
  0
VISUALSTYLE
  5
34
102
{ACAD_REACTORS
330
2A
102
}
102
{ACAD_XDICTIONARY
360
64
102
}
330
2A
100
AcDbVisualStyle
  2
Conceptual
 70
     9
 71
     3
 72
     2
 73
     0
 90
        0
 40
-0.6
 41
-30.0
 62
     5
 63
     7
421
 16777215
 74
     2
 91
        2
 64
     7
 65
   257
 75
     1
175
     1
 42
40.0
 92
        8
 66
     7
 43
1.0
 76
     1
 77
     6
 78
     2
 67
     7
 79
     3
170
     0
171
     0
290
     0
174
     0
 93
        1
 44
0.0
173
     0
291
     0
 45
0.0
  0
VISUALSTYLE
  5
35
102
{ACAD_REACTORS
330
2A
102
}
102
{ACAD_XDICTIONARY
360
66
102
}
330
2A
100
AcDbVisualStyle
  2
Dim
 70
    11
 71
     2
 72
     2
 73
     0
 90
        0
 40
-0.6
 41
-30.0
 62
     5
 63
     7
421
 16777215
 74
     1
 91
        4
 64
     7
 65
   257
 75
     1
175
     1
 42
1.0
 92
        8
 66
     7
 43
1.0
 76
     1
 77
     6
 78
     2
 67
     7
 79
     5
170
     0
171
     0
290
     0
174
     0
 93
        1
 44
-50.0
173
     0
291
     1
 45
0.0
  0
VISUALSTYLE
  5
39
102
{ACAD_REACTORS
330
2A
102
}
102
{ACAD_XDICTIONARY
360
6E
102
}
330
2A
100
AcDbVisualStyle
  2
Facepattern
 70
    15
 71
     2
 72
     2
 73
     0
 90
        0
 40
-0.6
 41
-30.0
 62
     5
 63
     7
421
 16777215
 74
     1
 91
        4
 64
     7
 65
   257
 75
     1
175
     1
 42
1.0
 92
        8
 66
     7
 43
1.0
 76
     1
 77
     6
 78
     2
 67
     7
 79
     5
170
     0
171
     0
290
     0
174
     0
 93
        1
 44
0.0
173
     0
291
     1
 45
0.0
  0
VISUALSTYLE
  5
2B
102
{ACAD_REACTORS
330
2A
102
}
102
{ACAD_XDICTIONARY
360
52
102
}
330
2A
100
AcDbVisualStyle
  2
Flat
 70
     0
 71
     2
 72
     1
 73
     1
 90
        2
 40
-0.6
 41
30.0
 62
     5
 63
     7
421
 16777215
 74
     0
 91
        4
 64
     7
 65
   257
 75
     1
175
     1
 42
1.0
 92
        8
 66
     7
 43
1.0
 76
     1
 77
     6
 78
     2
 67
     7
 79
     5
170
     0
171
     0
290
     0
174
     0
 93
       13
 44
0.0
173
     0
291
     1
 45
0.0
  0
VISUALSTYLE
  5
2C
102
{ACAD_REACTORS
330
2A
102
}
102
{ACAD_XDICTIONARY
360
54
102
}
330
2A
100
AcDbVisualStyle
  2
FlatWithEdges
 70
     1
 71
     2
 72
     1
 73
     1
 90
        2
 40
-0.6
 41
30.0
 62
     5
 63
     7
421
 16777215
 74
     1
 91
        4
 64
     7
 65
   257
 75
     1
175
     1
 42
1.0
 92
        0
 66
   257
 43
1.0
 76
     1
 77
     6
 78
     2
 67
     7
 79
     5
170
     0
171
     0
290
     0
174
     0
 93
       13
 44
0.0
173
     0
291
     1
 45
0.0
  0
VISUALSTYLE
  5
2D
102
{ACAD_REACTORS
330
2A
102
}
102
{ACAD_XDICTIONARY
360
56
102
}
330
2A
100
AcDbVisualStyle
  2
Gouraud
 70
     2
 71
     2
 72
     2
 73
     1
 90
        2
 40
-0.6
 41
30.0
 62
     5
 63
     7
421
 16777215
 74
     0
 91
        4
 64
     7
 65
   257
 75
     1
175
     1
 42
1.0
 92
        0
 66
     7
 43
1.0
 76
     1
 77
     6
 78
     2
 67
     7
 79
     5
170
     0
171
     0
290
     0
174
     0
 93
       13
 44
0.0
173
     0
291
     1
 45
0.0
  0
VISUALSTYLE
  5
2E
102
{ACAD_REACTORS
330
2A
102
}
102
{ACAD_XDICTIONARY
360
58
102
}
330
2A
100
AcDbVisualStyle
  2
GouraudWithEdges
 70
     3
 71
     2
 72
     2
 73
     1
 90
        2
 40
-0.6
 41
30.0
 62
     5
 63
     7
421
 16777215
 74
     1
 91
        4
 64
     7
 65
   257
 75
     1
175
     1
 42
1.0
 92
        0
 66
   257
 43
1.0
 76
     1
 77
     6
 78
     2
 67
     7
 79
     5
170
     0
171
     0
290
     0
174
     0
 93
       13
 44
0.0
173
     0
291
     1
 45
0.0
  0
VISUALSTYLE
  5
38
102
{ACAD_REACTORS
330
2A
102
}
102
{ACAD_XDICTIONARY
360
6C
102
}
330
2A
100
AcDbVisualStyle
  2
Linepattern
 70
    14
 71
     2
 72
     2
 73
     0
 90
        0
 40
-0.6
 41
-30.0
 62
     5
 63
     7
421
 16777215
 74
     1
 91
        4
 64
     7
 65
   257
 75
     7
175
     7
 42
1.0
 92
        8
 66
     7
 43
1.0
 76
     1
 77
     6
 78
     2
 67
     7
 79
     5
170
     0
171
     0
290
     0
174
     0
 93
        1
 44
0.0
173
     0
291
     1
 45
0.0
  0
VISUALSTYLE
  5
33
102
{ACAD_REACTORS
330
2A
102
}
102
{ACAD_XDICTIONARY
360
62
102
}
330
2A
100
AcDbVisualStyle
  2
Realistic
 70
     8
 71
     2
 72
     2
 73
     0
 90
        0
 40
-0.6
 41
-30.0
 62
     5
 63
     7
421
 16777215
 74
     1
 91
        0
 64
     7
 65
   257
 75
     1
175
     1
 42
1.0
 92
        8
 66
     8
424
  7895160
 43
1.0
 76
     1
 77
     6
 78
     2
 67
     7
 79
     5
170
     0
171
     0
290
     0
174
     0
 93
       13
 44
0.0
173
     0
291
     0
 45
0.0
  0
VISUALSTYLE
  5
37
102
{ACAD_REACTORS
330
2A
102
}
102
{ACAD_XDICTIONARY
360
6A
102
}
330
2A
100
AcDbVisualStyle
  2
Thicken
 70
    13
 71
     2
 72
     2
 73
     0
 90
        0
 40
-0.6
 41
-30.0
 62
     5
 63
     7
421
 16777215
 74
     1
 91
        4
 64
     7
 65
   257
 75
     1
175
     1
 42
1.0
 92
       12
 66
     7
 43
1.0
 76
     1
 77
     6
 78
     2
 67
     7
 79
     5
170
     0
171
     0
290
     0
174
     0
 93
        1
 44
0.0
173
     0
291
     1
 45
0.0
  0
DICTIONARY
  5
5A
330
2F
100
AcDbDictionary
280
     1
281
     1
  3
ACAD_XREC_ROUNDTRIP
360
5B
  0
DICTIONARY
  5
5E
330
31
100
AcDbDictionary
280
     1
281
     1
  3
ACAD_XREC_ROUNDTRIP
360
5F
  0
DICTIONARY
  5
5C
330
30
100
AcDbDictionary
280
     1
281
     1
  3
ACAD_XREC_ROUNDTRIP
360
5D
  0
DICTIONARY
  5
60
330
32
100
AcDbDictionary
280
     1
281
     1
  3
ACAD_XREC_ROUNDTRIP
360
61
  0
DICTIONARY
  5
68
330
36
100
AcDbDictionary
280
     1
281
     1
  3
ACAD_XREC_ROUNDTRIP
360
69
  0
DICTIONARY
  5
70
330
3A
100
AcDbDictionary
280
     1
281
     1
  3
ACAD_XREC_ROUNDTRIP
360
71
  0
DICTIONARY
  5
64
330
34
100
AcDbDictionary
280
     1
281
     1
  3
ACAD_XREC_ROUNDTRIP
360
65
  0
DICTIONARY
  5
66
330
35
100
AcDbDictionary
280
     1
281
     1
  3
ACAD_XREC_ROUNDTRIP
360
67
  0
DICTIONARY
  5
6E
330
39
100
AcDbDictionary
280
     1
281
     1
  3
ACAD_XREC_ROUNDTRIP
360
6F
  0
DICTIONARY
  5
52
330
2B
100
AcDbDictionary
280
     1
281
     1
  3
ACAD_XREC_ROUNDTRIP
360
53
  0
DICTIONARY
  5
54
330
2C
100
AcDbDictionary
280
     1
281
     1
  3
ACAD_XREC_ROUNDTRIP
360
55
  0
DICTIONARY
  5
56
330
2D
100
AcDbDictionary
280
     1
281
     1
  3
ACAD_XREC_ROUNDTRIP
360
57
  0
DICTIONARY
  5
58
330
2E
100
AcDbDictionary
280
     1
281
     1
  3
ACAD_XREC_ROUNDTRIP
360
59
  0
DICTIONARY
  5
6C
330
38
100
AcDbDictionary
280
     1
281
     1
  3
ACAD_XREC_ROUNDTRIP
360
6D
  0
DICTIONARY
  5
62
330
33
100
AcDbDictionary
280
     1
281
     1
  3
ACAD_XREC_ROUNDTRIP
360
63
  0
DICTIONARY
  5
6A
330
37
100
AcDbDictionary
280
     1
281
     1
  3
ACAD_XREC_ROUNDTRIP
360
6B
  0
XRECORD
  5
5B
102
{ACAD_REACTORS
330
5A
102
}
330
5A
100
AcDbXrecord
280
     1
102
RTVSPropertyOp0
 70
     1
102
RTVSPropertyOp1
 70
     1
102
RTVSPropertyOp2
 70
     1
102
RTVSPropertyOp3
 70
     1
102
RTVSPropertyOp4
 70
     1
102
RTVSPropertyOp5
 70
     1
102
RTVSPropertyOp6
 70
     1
102
RTVSPropertyOp7
 70
     1
102
RTVSPropertyOp8
 70
     1
102
RTVSPropertyOp9
 70
     1
102
RTVSPropertyOp10
 70
     1
102
RTVSPropertyOp11
 70
     1
102
RTVSPropertyOp12
 70
     1
102
RTVSPropertyOp13
 70
     1
102
RTVSPropertyOp14
 70
     1
102
RTVSPropertyOp15
 70
     1
102
RTVSPropertyOp16
 70
     1
102
RTVSPropertyOp17
 70
     1
102
RTVSPropertyOp18
 70
     1
102
RTVSPropertyOp19
 70
     1
102
RTVSPropertyOp20
 70
     1
102
RTVSPropertyOp21
 70
     1
102
RTVSPropertyOp22
 70
     1
102
RTVSPropertyOp23
 70
     1
102
RTVSPropertyOp24
 70
     1
102
RTVSPropertyOp25
 70
     1
102
RTVSPropertyOp26
 70
     1
102
RTVSPropertyOp27
 70
     1
102
RTVSPropertyOp28
 70
     1
102
RTVSPropertyOp29
 70
     1
102
RTVSPropertyOp30
 70
     1
102
RTVSPropertyOp31
 70
     1
102
RTVSPropertyOp32
 70
     1
  0
XRECORD
  5
5F
102
{ACAD_REACTORS
330
5E
102
}
330
5E
100
AcDbXrecord
280
     1
102
RTVSPropertyOp0
 70
     1
102
RTVSPropertyOp1
 70
     1
102
RTVSPropertyOp2
 70
     1
102
RTVSPropertyOp3
 70
     1
102
RTVSPropertyOp4
 70
     1
102
RTVSPropertyOp5
 70
     1
102
RTVSPropertyOp6
 70
     1
102
RTVSPropertyOp7
 70
     1
102
RTVSPropertyOp8
 70
     1
102
RTVSPropertyOp9
 70
     1
102
RTVSPropertyOp10
 70
     1
102
RTVSPropertyOp11
 70
     1
102
RTVSPropertyOp12
 70
     1
102
RTVSPropertyOp13
 70
     1
102
RTVSPropertyOp14
 70
     1
102
RTVSPropertyOp15
 70
     1
102
RTVSPropertyOp16
 70
     1
102
RTVSPropertyOp17
 70
     1
102
RTVSPropertyOp18
 70
     1
102
RTVSPropertyOp19
 70
     1
102
RTVSPropertyOp20
 70
     1
102
RTVSPropertyOp21
 70
     1
102
RTVSPropertyOp22
 70
     1
102
RTVSPropertyOp23
 70
     1
102
RTVSPropertyOp24
 70
     1
102
RTVSPropertyOp25
 70
     1
102
RTVSPropertyOp26
 70
     1
102
RTVSPropertyOp27
 70
     1
102
RTVSPropertyOp28
 70
     1
102
RTVSPropertyOp29
 70
     1
102
RTVSPropertyOp30
 70
     1
102
RTVSPropertyOp31
 70
     1
102
RTVSPropertyOp32
 70
     1
  0
XRECORD
  5
5D
102
{ACAD_REACTORS
330
5C
102
}
330
5C
100
AcDbXrecord
280
     1
102
RTVSPropertyOp0
 70
     1
102
RTVSPropertyOp1
 70
     1
102
RTVSPropertyOp2
 70
     1
102
RTVSPropertyOp3
 70
     1
102
RTVSPropertyOp4
 70
     1
102
RTVSPropertyOp5
 70
     1
102
RTVSPropertyOp6
 70
     1
102
RTVSPropertyOp7
 70
     1
102
RTVSPropertyOp8
 70
     1
102
RTVSPropertyOp9
 70
     1
102
RTVSPropertyOp10
 70
     1
102
RTVSPropertyOp11
 70
     1
102
RTVSPropertyOp12
 70
     1
102
RTVSPropertyOp13
 70
     1
102
RTVSPropertyOp14
 70
     1
102
RTVSPropertyOp15
 70
     1
102
RTVSPropertyOp16
 70
     1
102
RTVSPropertyOp17
 70
     1
102
RTVSPropertyOp18
 70
     1
102
RTVSPropertyOp19
 70
     1
102
RTVSPropertyOp20
 70
     1
102
RTVSPropertyOp21
 70
     1
102
RTVSPropertyOp22
 70
     1
102
RTVSPropertyOp23
 70
     1
102
RTVSPropertyOp24
 70
     1
102
RTVSPropertyOp25
 70
     1
102
RTVSPropertyOp26
 70
     1
102
RTVSPropertyOp27
 70
     1
102
RTVSPropertyOp28
 70
     1
102
RTVSPropertyOp29
 70
     1
102
RTVSPropertyOp30
 70
     1
102
RTVSPropertyOp31
 70
     1
102
RTVSPropertyOp32
 70
     1
  0
XRECORD
  5
61
102
{ACAD_REACTORS
330
60
102
}
330
60
100
AcDbXrecord
280
     1
102
RTVSPropertyOp0
 70
     1
102
RTVSPropertyOp1
 70
     1
102
RTVSPropertyOp2
 70
     1
102
RTVSPropertyOp3
 70
     1
102
RTVSPropertyOp4
 70
     1
102
RTVSPropertyOp5
 70
     1
102
RTVSPropertyOp6
 70
     1
102
RTVSPropertyOp7
 70
     1
102
RTVSPropertyOp8
 70
     1
102
RTVSPropertyOp9
 70
     1
102
RTVSPropertyOp10
 70
     1
102
RTVSPropertyOp11
 70
     1
102
RTVSPropertyOp12
 70
     1
102
RTVSPropertyOp13
 70
     1
102
RTVSPropertyOp14
 70
     1
102
RTVSPropertyOp15
 70
     1
102
RTVSPropertyOp16
 70
     1
102
RTVSPropertyOp17
 70
     1
102
RTVSPropertyOp18
 70
     1
102
RTVSPropertyOp19
 70
     1
102
RTVSPropertyOp20
 70
     1
102
RTVSPropertyOp21
 70
     1
102
RTVSPropertyOp22
 70
     1
102
RTVSPropertyOp23
 70
     1
102
RTVSPropertyOp24
 70
     1
102
RTVSPropertyOp25
 70
     1
102
RTVSPropertyOp26
 70
     1
102
RTVSPropertyOp27
 70
     1
102
RTVSPropertyOp28
 70
     1
102
RTVSPropertyOp29
 70
     1
102
RTVSPropertyOp30
 70
     1
102
RTVSPropertyOp31
 70
     1
102
RTVSPropertyOp32
 70
     1
  0
XRECORD
  5
69
102
{ACAD_REACTORS
330
68
102
}
330
68
100
AcDbXrecord
280
     1
102
RTVSPropertyOp0
 70
     1
102
RTVSPropertyOp1
 70
     1
102
RTVSPropertyOp2
 70
     1
102
RTVSPropertyOp3
 70
     1
102
RTVSPropertyOp4
 70
     1
102
RTVSPropertyOp5
 70
     1
102
RTVSPropertyOp6
 70
     1
102
RTVSPropertyOp7
 70
     1
102
RTVSPropertyOp8
 70
     1
102
RTVSPropertyOp9
 70
     1
102
RTVSPropertyOp10
 70
     1
102
RTVSPropertyOp11
 70
     1
102
RTVSPropertyOp12
 70
     1
102
RTVSPropertyOp13
 70
     1
102
RTVSPropertyOp14
 70
     1
102
RTVSPropertyOp15
 70
     1
102
RTVSPropertyOp16
 70
     1
102
RTVSPropertyOp17
 70
     1
102
RTVSPropertyOp18
 70
     1
102
RTVSPropertyOp19
 70
     1
102
RTVSPropertyOp20
 70
     1
102
RTVSPropertyOp21
 70
     1
102
RTVSPropertyOp22
 70
     1
102
RTVSPropertyOp23
 70
     1
102
RTVSPropertyOp24
 70
     1
102
RTVSPropertyOp25
 70
     1
102
RTVSPropertyOp26
 70
     1
102
RTVSPropertyOp27
 70
     1
102
RTVSPropertyOp28
 70
     1
102
RTVSPropertyOp29
 70
     1
102
RTVSPropertyOp30
 70
     1
102
RTVSPropertyOp31
 70
     1
102
RTVSPropertyOp32
 70
     1
  0
XRECORD
  5
71
102
{ACAD_REACTORS
330
70
102
}
330
70
100
AcDbXrecord
280
     1
102
RTVSPropertyOp0
 70
     1
102
RTVSPropertyOp1
 70
     1
102
RTVSPropertyOp2
 70
     1
102
RTVSPropertyOp3
 70
     1
102
RTVSPropertyOp4
 70
     1
102
RTVSPropertyOp5
 70
     1
102
RTVSPropertyOp6
 70
     1
102
RTVSPropertyOp7
 70
     1
102
RTVSPropertyOp8
 70
     1
102
RTVSPropertyOp9
 70
     1
102
RTVSPropertyOp10
 70
     1
102
RTVSPropertyOp11
 70
     1
102
RTVSPropertyOp12
 70
     1
102
RTVSPropertyOp13
 70
     1
102
RTVSPropertyOp14
 70
     1
102
RTVSPropertyOp15
 70
     1
102
RTVSPropertyOp16
 70
     1
102
RTVSPropertyOp17
 70
     1
102
RTVSPropertyOp18
 70
     1
102
RTVSPropertyOp19
 70
     1
102
RTVSPropertyOp20
 70
     1
102
RTVSPropertyOp21
 70
     1
102
RTVSPropertyOp22
 70
     1
102
RTVSPropertyOp23
 70
     1
102
RTVSPropertyOp24
 70
     1
102
RTVSPropertyOp25
 70
     1
102
RTVSPropertyOp26
 70
     1
102
RTVSPropertyOp27
 70
     1
102
RTVSPropertyOp28
 70
     1
102
RTVSPropertyOp29
 70
     1
102
RTVSPropertyOp30
 70
     1
102
RTVSPropertyOp31
 70
     1
102
RTVSPropertyOp32
 70
     1
  0
XRECORD
  5
65
102
{ACAD_REACTORS
330
64
102
}
330
64
100
AcDbXrecord
280
     1
102
RTVSPropertyOp0
 70
     1
102
RTVSPropertyOp1
 70
     1
102
RTVSPropertyOp2
 70
     1
102
RTVSPropertyOp3
 70
     1
102
RTVSPropertyOp4
 70
     1
102
RTVSPropertyOp5
 70
     1
102
RTVSPropertyOp6
 70
     1
102
RTVSPropertyOp7
 70
     1
102
RTVSPropertyOp8
 70
     1
102
RTVSPropertyOp9
 70
     1
102
RTVSPropertyOp10
 70
     1
102
RTVSPropertyOp11
 70
     1
102
RTVSPropertyOp12
 70
     1
102
RTVSPropertyOp13
 70
     1
102
RTVSPropertyOp14
 70
     1
102
RTVSPropertyOp15
 70
     1
102
RTVSPropertyOp16
 70
     1
102
RTVSPropertyOp17
 70
     1
102
RTVSPropertyOp18
 70
     1
102
RTVSPropertyOp19
 70
     1
102
RTVSPropertyOp20
 70
     1
102
RTVSPropertyOp21
 70
     1
102
RTVSPropertyOp22
 70
     1
102
RTVSPropertyOp23
 70
     1
102
RTVSPropertyOp24
 70
     1
102
RTVSPropertyOp25
 70
     1
102
RTVSPropertyOp26
 70
     1
102
RTVSPropertyOp27
 70
     1
102
RTVSPropertyOp28
 70
     1
102
RTVSPropertyOp29
 70
     1
102
RTVSPropertyOp30
 70
     1
102
RTVSPropertyOp31
 70
     1
102
RTVSPropertyOp32
 70
     1
  0
XRECORD
  5
67
102
{ACAD_REACTORS
330
66
102
}
330
66
100
AcDbXrecord
280
     1
102
RTVSPropertyOp0
 70
     1
102
RTVSPropertyOp1
 70
     1
102
RTVSPropertyOp2
 70
     1
102
RTVSPropertyOp3
 70
     1
102
RTVSPropertyOp4
 70
     1
102
RTVSPropertyOp5
 70
     1
102
RTVSPropertyOp6
 70
     1
102
RTVSPropertyOp7
 70
     1
102
RTVSPropertyOp8
 70
     1
102
RTVSPropertyOp9
 70
     1
102
RTVSPropertyOp10
 70
     1
102
RTVSPropertyOp11
 70
     1
102
RTVSPropertyOp12
 70
     1
102
RTVSPropertyOp13
 70
     1
102
RTVSPropertyOp14
 70
     1
102
RTVSPropertyOp15
 70
     1
102
RTVSPropertyOp16
 70
     1
102
RTVSPropertyOp17
 70
     1
102
RTVSPropertyOp18
 70
     1
102
RTVSPropertyOp19
 70
     1
102
RTVSPropertyOp20
 70
     1
102
RTVSPropertyOp21
 70
     1
102
RTVSPropertyOp22
 70
     1
102
RTVSPropertyOp23
 70
     1
102
RTVSPropertyOp24
 70
     1
102
RTVSPropertyOp25
 70
     1
102
RTVSPropertyOp26
 70
     1
102
RTVSPropertyOp27
 70
     1
102
RTVSPropertyOp28
 70
     1
102
RTVSPropertyOp29
 70
     1
102
RTVSPropertyOp30
 70
     1
102
RTVSPropertyOp31
 70
     1
102
RTVSPropertyOp32
 70
     1
  0
XRECORD
  5
6F
102
{ACAD_REACTORS
330
6E
102
}
330
6E
100
AcDbXrecord
280
     1
102
RTVSPropertyOp0
 70
     1
102
RTVSPropertyOp1
 70
     1
102
RTVSPropertyOp2
 70
     1
102
RTVSPropertyOp3
 70
     1
102
RTVSPropertyOp4
 70
     1
102
RTVSPropertyOp5
 70
     1
102
RTVSPropertyOp6
 70
     1
102
RTVSPropertyOp7
 70
     1
102
RTVSPropertyOp8
 70
     1
102
RTVSPropertyOp9
 70
     1
102
RTVSPropertyOp10
 70
     1
102
RTVSPropertyOp11
 70
     1
102
RTVSPropertyOp12
 70
     1
102
RTVSPropertyOp13
 70
     1
102
RTVSPropertyOp14
 70
     1
102
RTVSPropertyOp15
 70
     1
102
RTVSPropertyOp16
 70
     1
102
RTVSPropertyOp17
 70
     1
102
RTVSPropertyOp18
 70
     1
102
RTVSPropertyOp19
 70
     1
102
RTVSPropertyOp20
 70
     1
102
RTVSPropertyOp21
 70
     1
102
RTVSPropertyOp22
 70
     1
102
RTVSPropertyOp23
 70
     1
102
RTVSPropertyOp24
 70
     1
102
RTVSPropertyOp25
 70
     1
102
RTVSPropertyOp26
 70
     1
102
RTVSPropertyOp27
 70
     1
102
RTVSPropertyOp28
 70
     1
102
RTVSPropertyOp29
 70
     1
102
RTVSPropertyOp30
 70
     1
102
RTVSPropertyOp31
 70
     1
102
RTVSPropertyOp32
 70
     1
  0
XRECORD
  5
53
102
{ACAD_REACTORS
330
52
102
}
330
52
100
AcDbXrecord
280
     1
102
RTVSPropertyOp0
 70
     1
102
RTVSPropertyOp1
 70
     1
102
RTVSPropertyOp2
 70
     1
102
RTVSPropertyOp3
 70
     1
102
RTVSPropertyOp4
 70
     1
102
RTVSPropertyOp5
 70
     1
102
RTVSPropertyOp6
 70
     1
102
RTVSPropertyOp7
 70
     1
102
RTVSPropertyOp8
 70
     1
102
RTVSPropertyOp9
 70
     1
102
RTVSPropertyOp10
 70
     1
102
RTVSPropertyOp11
 70
     1
102
RTVSPropertyOp12
 70
     1
102
RTVSPropertyOp13
 70
     1
102
RTVSPropertyOp14
 70
     1
102
RTVSPropertyOp15
 70
     1
102
RTVSPropertyOp16
 70
     1
102
RTVSPropertyOp17
 70
     1
102
RTVSPropertyOp18
 70
     1
102
RTVSPropertyOp19
 70
     1
102
RTVSPropertyOp20
 70
     1
102
RTVSPropertyOp21
 70
     1
102
RTVSPropertyOp22
 70
     1
102
RTVSPropertyOp23
 70
     1
102
RTVSPropertyOp24
 70
     1
102
RTVSPropertyOp25
 70
     1
102
RTVSPropertyOp26
 70
     1
102
RTVSPropertyOp27
 70
     1
102
RTVSPropertyOp28
 70
     1
102
RTVSPropertyOp29
 70
     1
102
RTVSPropertyOp30
 70
     1
102
RTVSPropertyOp31
 70
     1
102
RTVSPropertyOp32
 70
     1
  0
XRECORD
  5
55
102
{ACAD_REACTORS
330
54
102
}
330
54
100
AcDbXrecord
280
     1
102
RTVSPropertyOp0
 70
     1
102
RTVSPropertyOp1
 70
     1
102
RTVSPropertyOp2
 70
     1
102
RTVSPropertyOp3
 70
     1
102
RTVSPropertyOp4
 70
     1
102
RTVSPropertyOp5
 70
     1
102
RTVSPropertyOp6
 70
     1
102
RTVSPropertyOp7
 70
     1
102
RTVSPropertyOp8
 70
     1
102
RTVSPropertyOp9
 70
     1
102
RTVSPropertyOp10
 70
     1
102
RTVSPropertyOp11
 70
     1
102
RTVSPropertyOp12
 70
     1
102
RTVSPropertyOp13
 70
     1
102
RTVSPropertyOp14
 70
     1
102
RTVSPropertyOp15
 70
     1
102
RTVSPropertyOp16
 70
     1
102
RTVSPropertyOp17
 70
     1
102
RTVSPropertyOp18
 70
     1
102
RTVSPropertyOp19
 70
     1
102
RTVSPropertyOp20
 70
     1
102
RTVSPropertyOp21
 70
     1
102
RTVSPropertyOp22
 70
     1
102
RTVSPropertyOp23
 70
     1
102
RTVSPropertyOp24
 70
     1
102
RTVSPropertyOp25
 70
     1
102
RTVSPropertyOp26
 70
     1
102
RTVSPropertyOp27
 70
     1
102
RTVSPropertyOp28
 70
     1
102
RTVSPropertyOp29
 70
     1
102
RTVSPropertyOp30
 70
     1
102
RTVSPropertyOp31
 70
     1
102
RTVSPropertyOp32
 70
     1
  0
XRECORD
  5
57
102
{ACAD_REACTORS
330
56
102
}
330
56
100
AcDbXrecord
280
     1
102
RTVSPropertyOp0
 70
     1
102
RTVSPropertyOp1
 70
     1
102
RTVSPropertyOp2
 70
     1
102
RTVSPropertyOp3
 70
     1
102
RTVSPropertyOp4
 70
     1
102
RTVSPropertyOp5
 70
     1
102
RTVSPropertyOp6
 70
     1
102
RTVSPropertyOp7
 70
     1
102
RTVSPropertyOp8
 70
     1
102
RTVSPropertyOp9
 70
     1
102
RTVSPropertyOp10
 70
     1
102
RTVSPropertyOp11
 70
     1
102
RTVSPropertyOp12
 70
     1
102
RTVSPropertyOp13
 70
     1
102
RTVSPropertyOp14
 70
     1
102
RTVSPropertyOp15
 70
     1
102
RTVSPropertyOp16
 70
     1
102
RTVSPropertyOp17
 70
     1
102
RTVSPropertyOp18
 70
     1
102
RTVSPropertyOp19
 70
     1
102
RTVSPropertyOp20
 70
     1
102
RTVSPropertyOp21
 70
     1
102
RTVSPropertyOp22
 70
     1
102
RTVSPropertyOp23
 70
     1
102
RTVSPropertyOp24
 70
     1
102
RTVSPropertyOp25
 70
     1
102
RTVSPropertyOp26
 70
     1
102
RTVSPropertyOp27
 70
     1
102
RTVSPropertyOp28
 70
     1
102
RTVSPropertyOp29
 70
     1
102
RTVSPropertyOp30
 70
     1
102
RTVSPropertyOp31
 70
     1
102
RTVSPropertyOp32
 70
     1
  0
XRECORD
  5
59
102
{ACAD_REACTORS
330
58
102
}
330
58
100
AcDbXrecord
280
     1
102
RTVSPropertyOp0
 70
     1
102
RTVSPropertyOp1
 70
     1
102
RTVSPropertyOp2
 70
     1
102
RTVSPropertyOp3
 70
     1
102
RTVSPropertyOp4
 70
     1
102
RTVSPropertyOp5
 70
     1
102
RTVSPropertyOp6
 70
     1
102
RTVSPropertyOp7
 70
     1
102
RTVSPropertyOp8
 70
     1
102
RTVSPropertyOp9
 70
     1
102
RTVSPropertyOp10
 70
     1
102
RTVSPropertyOp11
 70
     1
102
RTVSPropertyOp12
 70
     1
102
RTVSPropertyOp13
 70
     1
102
RTVSPropertyOp14
 70
     1
102
RTVSPropertyOp15
 70
     1
102
RTVSPropertyOp16
 70
     1
102
RTVSPropertyOp17
 70
     1
102
RTVSPropertyOp18
 70
     1
102
RTVSPropertyOp19
 70
     1
102
RTVSPropertyOp20
 70
     1
102
RTVSPropertyOp21
 70
     1
102
RTVSPropertyOp22
 70
     1
102
RTVSPropertyOp23
 70
     1
102
RTVSPropertyOp24
 70
     1
102
RTVSPropertyOp25
 70
     1
102
RTVSPropertyOp26
 70
     1
102
RTVSPropertyOp27
 70
     1
102
RTVSPropertyOp28
 70
     1
102
RTVSPropertyOp29
 70
     1
102
RTVSPropertyOp30
 70
     1
102
RTVSPropertyOp31
 70
     1
102
RTVSPropertyOp32
 70
     1
  0
XRECORD
  5
6D
102
{ACAD_REACTORS
330
6C
102
}
330
6C
100
AcDbXrecord
280
     1
102
RTVSPropertyOp0
 70
     1
102
RTVSPropertyOp1
 70
     1
102
RTVSPropertyOp2
 70
     1
102
RTVSPropertyOp3
 70
     1
102
RTVSPropertyOp4
 70
     1
102
RTVSPropertyOp5
 70
     1
102
RTVSPropertyOp6
 70
     1
102
RTVSPropertyOp7
 70
     1
102
RTVSPropertyOp8
 70
     1
102
RTVSPropertyOp9
 70
     1
102
RTVSPropertyOp10
 70
     1
102
RTVSPropertyOp11
 70
     1
102
RTVSPropertyOp12
 70
     1
102
RTVSPropertyOp13
 70
     1
102
RTVSPropertyOp14
 70
     1
102
RTVSPropertyOp15
 70
     1
102
RTVSPropertyOp16
 70
     1
102
RTVSPropertyOp17
 70
     1
102
RTVSPropertyOp18
 70
     1
102
RTVSPropertyOp19
 70
     1
102
RTVSPropertyOp20
 70
     1
102
RTVSPropertyOp21
 70
     1
102
RTVSPropertyOp22
 70
     1
102
RTVSPropertyOp23
 70
     1
102
RTVSPropertyOp24
 70
     1
102
RTVSPropertyOp25
 70
     1
102
RTVSPropertyOp26
 70
     1
102
RTVSPropertyOp27
 70
     1
102
RTVSPropertyOp28
 70
     1
102
RTVSPropertyOp29
 70
     1
102
RTVSPropertyOp30
 70
     1
102
RTVSPropertyOp31
 70
     1
102
RTVSPropertyOp32
 70
     1
  0
XRECORD
  5
63
102
{ACAD_REACTORS
330
62
102
}
330
62
100
AcDbXrecord
280
     1
102
RTVSPropertyOp0
 70
     1
102
RTVSPropertyOp1
 70
     1
102
RTVSPropertyOp2
 70
     1
102
RTVSPropertyOp3
 70
     1
102
RTVSPropertyOp4
 70
     1
102
RTVSPropertyOp5
 70
     1
102
RTVSPropertyOp6
 70
     1
102
RTVSPropertyOp7
 70
     1
102
RTVSPropertyOp8
 70
     1
102
RTVSPropertyOp9
 70
     1
102
RTVSPropertyOp10
 70
     1
102
RTVSPropertyOp11
 70
     1
102
RTVSPropertyOp12
 70
     1
102
RTVSPropertyOp13
 70
     1
102
RTVSPropertyOp14
 70
     1
102
RTVSPropertyOp15
 70
     1
102
RTVSPropertyOp16
 70
     1
102
RTVSPropertyOp17
 70
     1
102
RTVSPropertyOp18
 70
     1
102
RTVSPropertyOp19
 70
     1
102
RTVSPropertyOp20
 70
     1
102
RTVSPropertyOp21
 70
     1
102
RTVSPropertyOp22
 70
     1
102
RTVSPropertyOp23
 70
     1
102
RTVSPropertyOp24
 70
     1
102
RTVSPropertyOp25
 70
     1
102
RTVSPropertyOp26
 70
     1
102
RTVSPropertyOp27
 70
     1
102
RTVSPropertyOp28
 70
     1
102
RTVSPropertyOp29
 70
     1
102
RTVSPropertyOp30
 70
     1
102
RTVSPropertyOp31
 70
     1
102
RTVSPropertyOp32
 70
     1
  0
XRECORD
  5
6B
102
{ACAD_REACTORS
330
6A
102
}
330
6A
100
AcDbXrecord
280
     1
102
RTVSPropertyOp0
 70
     1
102
RTVSPropertyOp1
 70
     1
102
RTVSPropertyOp2
 70
     1
102
RTVSPropertyOp3
 70
     1
102
RTVSPropertyOp4
 70
     1
102
RTVSPropertyOp5
 70
     1
102
RTVSPropertyOp6
 70
     1
102
RTVSPropertyOp7
 70
     1
102
RTVSPropertyOp8
 70
     1
102
RTVSPropertyOp9
 70
     1
102
RTVSPropertyOp10
 70
     1
102
RTVSPropertyOp11
 70
     1
102
RTVSPropertyOp12
 70
     1
102
RTVSPropertyOp13
 70
     1
102
RTVSPropertyOp14
 70
     1
102
RTVSPropertyOp15
 70
     1
102
RTVSPropertyOp16
 70
     1
102
RTVSPropertyOp17
 70
     1
102
RTVSPropertyOp18
 70
     1
102
RTVSPropertyOp19
 70
     1
102
RTVSPropertyOp20
 70
     1
102
RTVSPropertyOp21
 70
     1
102
RTVSPropertyOp22
 70
     1
102
RTVSPropertyOp23
 70
     1
102
RTVSPropertyOp24
 70
     1
102
RTVSPropertyOp25
 70
     1
102
RTVSPropertyOp26
 70
     1
102
RTVSPropertyOp27
 70
     1
102
RTVSPropertyOp28
 70
     1
102
RTVSPropertyOp29
 70
     1
102
RTVSPropertyOp30
 70
     1
102
RTVSPropertyOp31
 70
     1
102
RTVSPropertyOp32
 70
     1
  0
ENDSEC
  0
EOF
