  0
SECTION
  2
HEADER
  9
$ACADVER
  1
AC1021
  9
$ACADMAINTVER
 70
    25
  9
$DWGCODEPAGE
  3
ANSI_1252
  9
$INSBASE
 10
0.0
 20
0.0
 30
0.0
  9
$EXTMIN
 10
-3.33093
 20
-0.22646
 30
0.0
  9
$EXTMAX
 10
1.23743
 20
8.62596
 30
0.0
  9
$LIMMIN
 10
0.0
 20
0.0
  9
$LIMMAX
 10
12.0
 20
9.0
  9
$ORTHOMODE
 70
     0
  9
$REGENMODE
 70
     1
  9
$FILLMODE
 70
     1
  9
$QTEXTMODE
 70
     0
  9
$MIRRTEXT
 70
     1
  9
$LTSCALE
 40
1.0
  9
$ATTMODE
 70
     1
  9
$TEXTSIZE
 40
0.2
  9
$TRACEWID
 40
0.05
  9
$TEXTSTYLE
  7
Standard
  9
$CLAYER
  8
0
  9
$CELTYPE
  6
ByLayer
  9
$CECOLOR
 62
   256
  9
$CELTSCALE
 40
1.0
  9
$DISPSILH
 70
     0
  9
$DIMSCALE
 40
1.0
  9
$DIMASZ
 40
0.18
  9
$DIMEXO
 40
0.0625
  9
$DIMDLI
 40
0.38
  9
$DIMRND
 40
0.0
  9
$DIMDLE
 40
0.0
  9
$DIMEXE
 40
0.18
  9
$DIMTP
 40
0.0
  9
$DIMTM
 40
0.0
  9
$DIMTXT
 40
0.18
  9
$DIMCEN
 40
0.09
  9
$DIMTSZ
 40
0.0
  9
$DIMTOL
 70
     0
  9
$DIMLIM
 70
     0
  9
$DIMTIH
 70
     1
  9
$DIMTOH
 70
     1
  9
$DIMSE1
 70
     0
  9
$DIMSE2
 70
     0
  9
$DIMTAD
 70
     0
  9
$DIMZIN
 70
     0
  9
$DIMBLK
  1

  9
$DIMASO
 70
     1
  9
$DIMSHO
 70
     1
  9
$DIMPOST
  1

  9
$DIMAPOST
  1

  9
$DIMALT
 70
     0
  9
$DIMALTD
 70
     2
  9
$DIMALTF
 40
25.4
  9
$DIMLFAC
 40
1.0
  9
$DIMTOFL
 70
     0
  9
$DIMTVP
 40
0.0
  9
$DIMTIX
 70
     0
  9
$DIMSOXD
 70
     0
  9
$DIMSAH
 70
     0
  9
$DIMBLK1
  1

  9
$DIMBLK2
  1

  9
$DIMSTYLE
  2
Standard
  9
$DIMCLRD
 70
     0
  9
$DIMCLRE
 70
     0
  9
$DIMCLRT
 70
     0
  9
$DIMTFAC
 40
1.0
  9
$DIMGAP
 40
0.09
  9
$DIMJUST
 70
     0
  9
$DIMSD1
 70
     0
  9
$DIMSD2
 70
     0
  9
$DIMTOLJ
 70
     1
  9
$DIMTZIN
 70
     0
  9
$DIMALTZ
 70
     0
  9
$DIMALTTZ
 70
     0
  9
$DIMUPT
 70
     0
  9
$DIMDEC
 70
     4
  9
$DIMTDEC
 70
     4
  9
$DIMALTU
 70
     2
  9
$DIMALTTD
 70
     2
  9
$DIMTXSTY
  7
Standard
  9
$DIMAUNIT
 70
     0
  9
$DIMADEC
 70
     0
  9
$DIMALTRND
 40
0.0
  9
$DIMAZIN
 70
     0
  9
$DIMDSEP
 70
    46
  9
$DIMATFIT
 70
     3
  9
$DIMFRAC
 70
     0
  9
$DIMLDRBLK
  1

  9
$DIMLUNIT
 70
     2
  9
$DIMLWD
 70
    -2
  9
$DIMLWE
 70
    -2
  9
$DIMTMOVE
 70
     0
  9
$DIMFXL
 40
1.0
  9
$DIMFXLON
 70
     0
  9
$DIMJOGANG
 40
0.7853981633974483
  9
$DIMTFILL
 70
     0
  9
$DIMTFILLCLR
 70
     0
  9
$DIMARCSYM
 70
     0
  9
$DIMLTYPE
  6

  9
$DIMLTEX1
  6

  9
$DIMLTEX2
  6

  9
$LUNITS
 70
     2
  9
$LUPREC
 70
     4
  9
$SKETCHINC
 40
0.1
  9
$FILLETRAD
 40
0.5
  9
$AUNITS
 70
     0
  9
$AUPREC
 70
     0
  9
$MENU
  1
.
  9
$ELEVATION
 40
0.0
  9
$PELEVATION
 40
0.0
  9
$THICKNESS
 40
0.0
  9
$LIMCHECK
 70
     0
  9
$CHAMFERA
 40
0.5
  9
$CHAMFERB
 40
0.5
  9
$CHAMFERC
 40
1.0
  9
$CHAMFERD
 40
0.0
  9
$SKPOLY
 70
     0
  9
$TDCREATE
 40
2460555.179097685
  9
$TDUCREATE
 40
2460555.137431019
  9
$TDUPDATE
 40
2460555.179097743
  9
$TDUUPDATE
 40
2460555.137431076
  9
$TDINDWG
 40
0.0000000116
  9
$TDUSRTIMER
 40
0.0000000116
  9
$USRTIMER
 70
     1
  9
$ANGBASE
 50
0.0
  9
$ANGDIR
 70
     0
  9
$PDMODE
 70
     0
  9
$PDSIZE
 40
0.0
  9
$PLINEWID
 40
0.0
  9
$SPLFRAME
 70
     0
  9
$SPLINETYPE
 70
     6
  9
$SPLINESEGS
 70
     8
  9
$HANDSEED
  5
89
  9
$SURFTAB1
 70
     6
  9
$SURFTAB2
 70
     6
  9
$SURFTYPE
 70
     6
  9
$SURFU
 70
     6
  9
$SURFV
 70
     6
  9
$UCSBASE
  2

  9
$UCSNAME
  2

  9
$UCSORG
 10
0.0
 20
0.0
 30
0.0
  9
$UCSXDIR
 10
1.0
 20
0.0
 30
0.0
  9
$UCSYDIR
 10
0.0
 20
1.0
 30
0.0
  9
$UCSORTHOREF
  2

  9
$UCSORTHOVIEW
 70
     0
  9
$UCSORGTOP
 10
0.0
 20
0.0
 30
0.0
  9
$UCSORGBOTTOM
 10
0.0
 20
0.0
 30
0.0
  9
$UCSORGLEFT
 10
0.0
 20
0.0
 30
0.0
  9
$UCSORGRIGHT
 10
0.0
 20
0.0
 30
0.0
  9
$UCSORGFRONT
 10
0.0
 20
0.0
 30
0.0
  9
$UCSORGBACK
 10
0.0
 20
0.0
 30
0.0
  9
$PUCSBASE
  2

  9
$PUCSNAME
  2

  9
$PUCSORG
 10
0.0
 20
0.0
 30
0.0
  9
$PUCSXDIR
 10
1.0
 20
0.0
 30
0.0
  9
$PUCSYDIR
 10
0.0
 20
1.0
 30
0.0
  9
$PUCSORTHOREF
  2

  9
$PUCSORTHOVIEW
 70
     0
  9
$PUCSORGTOP
 10
0.0
 20
0.0
 30
0.0
  9
$PUCSORGBOTTOM
 10
0.0
 20
0.0
 30
0.0
  9
$PUCSORGLEFT
 10
0.0
 20
0.0
 30
0.0
  9
$PUCSORGRIGHT
 10
0.0
 20
0.0
 30
0.0
  9
$PUCSORGFRONT
 10
0.0
 20
0.0
 30
0.0
  9
$PUCSORGBACK
 10
0.0
 20
0.0
 30
0.0
  9
$USERI1
 70
     0
  9
$USERI2
 70
     0
  9
$USERI3
 70
     0
  9
$USERI4
 70
     0
  9
$USERI5
 70
     0
  9
$USERR1
 40
0.0
  9
$USERR2
 40
0.0
  9
$USERR3
 40
0.0
  9
$USERR4
 40
0.0
  9
$USERR5
 40
0.0
  9
$WORLDVIEW
 70
     1
  9
$SHADEDGE
 70
     3
  9
$SHADEDIF
 70
    70
  9
$TILEMODE
 70
     1
  9
$MAXACTVP
 70
    64
  9
$PINSBASE
 10
0.0
 20
0.0
 30
0.0
  9
$PLIMCHECK
 70
     0
  9
$PEXTMIN
 10
1.000000000000000E+20
 20
1.000000000000000E+20
 30
1.000000000000000E+20
  9
$PEXTMAX
 10
-1.000000000000000E+20
 20
-1.000000000000000E+20
 30
-1.000000000000000E+20
  9
$PLIMMIN
 10
0.0
 20
0.0
  9
$PLIMMAX
 10
12.0
 20
9.0
  9
$UNITMODE
 70
     0
  9
$VISRETAIN
 70
     1
  9
$PLINEGEN
 70
     0
  9
$PSLTSCALE
 70
     1
  9
$TREEDEPTH
 70
  3020
  9
$CMLSTYLE
  2
Standard
  9
$CMLJUST
 70
     0
  9
$CMLSCALE
 40
1.0
  9
$PROXYGRAPHICS
 70
     1
  9
$MEASUREMENT
 70
     0
  9
$CELWEIGHT
370
    -1
  9
$ENDCAPS
280
     0
  9
$JOINSTYLE
280
     0
  9
$LWDISPLAY
290
     0
  9
$INSUNITS
 70
     5
  9
$HYPERLINKBASE
  1

  9
$STYLESHEET
  1

  9
$XEDIT
290
     1
  9
$CEPSNTYPE
380
     0
  9
$PSTYLEMODE
290
     1
  9
$FINGERPRINTGUID
  2
{66BC4E0C-DA24-44F9-A68A-8F1D8C63F1EB}
  9
$VERSIONGUID
  2
{FAEB1C32-E019-11D5-929B-00C0DF256EC4}
  9
$EXTNAMES
290
     1
  9
$PSVPSCALE
 40
0.0
  9
$OLESTARTUP
290
     0
  9
$SORTENTS
280
   127
  9
$INDEXCTL
280
     0
  9
$HIDETEXT
280
     1
  9
$XCLIPFRAME
290
     0
  9
$HALOGAP
280
     0
  9
$OBSCOLOR
 70
   257
  9
$OBSLTYPE
280
     0
  9
$INTERSECTIONDISPLAY
280
     0
  9
$INTERSECTIONCOLOR
 70
   257
  9
$DIMASSOC
280
     2
  9
$PROJECTNAME
  1

  9
$CAMERADISPLAY
290
     0
  9
$LENSLENGTH
 40
50.0
  9
$CAMERAHEIGHT
 40
0.0
  9
$STEPSPERSEC
 40
2.0
  9
$STEPSIZE
 40
6.0
  9
$3DDWFPREC
 40
2.0
  9
$PSOLWIDTH
 40
0.25
  9
$PSOLHEIGHT
 40
4.0
  9
$LOFTANG1
 40
1.570796326794897
  9
$LOFTANG2
 40
1.570796326794897
  9
$LOFTMAG1
 40
0.0
  9
$LOFTMAG2
 40
0.0
  9
$LOFTPARAM
 70
     7
  9
$LOFTNORMALS
280
     1
  9
$LATITUDE
 40
37.795
  9
$LONGITUDE
 40
-122.394
  9
$NORTHDIRECTION
 40
0.0
  9
$TIMEZONE
 70
 -8000
  9
$LIGHTGLYPHDISPLAY
280
     1
  9
$TILEMODELIGHTSYNCH
280
     1
  9
$SOLIDHIST
280
     1
  9
$SHOWHIST
280
     1
  9
$DWFFRAME
280
     2
  9
$DGNFRAME
280
     2
  9
$REALWORLDSCALE
290
     1
  9
$INTERFERECOLOR
 62
   256
  9
$CSHADOW
280
     0
  9
$SHADOWPLANELOCATION
 40
0.0
  0
ENDSEC
  0
SECTION
  2
CLASSES
  0
CLASS
  1
ACDBDICTIONARYWDFLT
  2
AcDbDictionaryWithDefault
  3
ObjectDBX Classes
 90
        0
 91
        4
280
     0
281
     0
  0
CLASS
  1
VISUALSTYLE
  2
AcDbVisualStyle
  3
ObjectDBX Classes
 90
     4095
 91
        4
280
     0
281
     0
  0
CLASS
  1
MATERIAL
  2
AcDbMaterial
  3
ObjectDBX Classes
 90
     1153
 91
        4
280
     0
281
     0
  0
ENDSEC
  0
SECTION
  2
TABLES
  0
TABLE
  2
VPORT
  5
8
330
0
100
AcDbSymbolTable
 70
     1
  0
VPORT
  5
29
330
8
100
AcDbSymbolTableRecord
100
AcDbViewportTableRecord
  2
*Active
 70
     0
 10
0.0
 20
0.0
 11
1.0
 21
1.0
 12
10.42990654205607
 22
4.5
 13
0.0
 23
0.0
 14
0.5
 24
0.5
 15
0.5
 25
0.5
 16
0.0
 26
0.0
 36
1.0
 17
0.0
 27
0.0
 37
0.0
 40
9.0
 41
1.972972972850329
 42
50.0
 43
0.0
 44
0.0
 50
0.0
 51
0.0
 71
     0
 72
   100
 73
     1
 74
     3
 75
     0
 76
     0
 77
     0
 78
     0
281
     0
 65
     1
110
0.0
120
0.0
130
0.0
111
1.0
121
0.0
131
0.0
112
0.0
122
1.0
132
0.0
 79
     0
146
0.0
 60
     3
 61
     5
292
     1
282
     1
141
0.0
142
0.0
 63
   250
  0
ENDTAB
  0
TABLE
  2
LTYPE
  5
5
330
0
100
AcDbSymbolTable
 70
     1
  0
LTYPE
  5
14
330
5
100
AcDbSymbolTableRecord
100
AcDbLinetypeTableRecord
  2
ByBlock
 70
     0
  3

 72
    65
 73
     0
 40
0.0
  0
LTYPE
  5
15
330
5
100
AcDbSymbolTableRecord
100
AcDbLinetypeTableRecord
  2
ByLayer
 70
     0
  3

 72
    65
 73
     0
 40
0.0
  0
LTYPE
  5
16
330
5
100
AcDbSymbolTableRecord
100
AcDbLinetypeTableRecord
  2
Continuous
 70
     0
  3
Solid line
 72
    65
 73
     0
 40
0.0
  0
ENDTAB
  0
TABLE
  2
LAYER
  5
2
330
0
100
AcDbSymbolTable
 70
     2
  0
LAYER
  5
10
330
2
100
AcDbSymbolTableRecord
100
AcDbLayerTableRecord
  2
0
 70
     0
 62
     7
  6
Continuous
370
    -3
390
F
347
3E
  0
LAYER
  5
40
330
2
100
AcDbSymbolTableRecord
100
AcDbLayerTableRecord
  2
Layer 1
 70
     0
 62
     7
  6
Continuous
370
    -3
390
F
347
3E
  0
ENDTAB
  0
TABLE
  2
STYLE
  5
3
330
0
100
AcDbSymbolTable
 70
     1
  0
STYLE
  5
11
330
3
100
AcDbSymbolTableRecord
100
AcDbTextStyleTableRecord
  2
Standard
 70
     0
 40
0.0
 41
1.0
 50
0.0
 71
     0
 42
0.2
  3
txt
  4

  0
ENDTAB
  0
TABLE
  2
VIEW
  5
6
330
0
100
AcDbSymbolTable
 70
     0
  0
ENDTAB
  0
TABLE
  2
UCS
  5
7
330
0
100
AcDbSymbolTable
 70
     0
  0
ENDTAB
  0
TABLE
  2
APPID
  5
9
330
0
100
AcDbSymbolTable
 70
     2
  0
APPID
  5
12
330
9
100
AcDbSymbolTableRecord
100
AcDbRegAppTableRecord
  2
ACAD
 70
     0
  0
APPID
  5
3F
330
9
100
AcDbSymbolTableRecord
100
AcDbRegAppTableRecord
  2
ODA
 70
     0
  0
ENDTAB
  0
TABLE
  2
DIMSTYLE
  5
A
330
0
100
AcDbSymbolTable
 70
     1
100
AcDbDimStyleTable
  0
DIMSTYLE
105
27
330
A
100
AcDbSymbolTableRecord
100
AcDbDimStyleTableRecord
  2
Standard
 70
     0
178
     0
340
11
  0
ENDTAB
  0
TABLE
  2
BLOCK_RECORD
  5
1
330
0
100
AcDbSymbolTable
 70
     1
  0
BLOCK_RECORD
  5
1F
330
1
100
AcDbSymbolTableRecord
100
AcDbBlockTableRecord
  2
*Model_Space
340
22
 70
     0
280
     1
281
     0
  0
BLOCK_RECORD
  5
1B
330
1
100
AcDbSymbolTableRecord
100
AcDbBlockTableRecord
  2
*Paper_Space
340
1E
 70
     0
280
     1
281
     0
  0
BLOCK_RECORD
  5
23
330
1
100
AcDbSymbolTableRecord
100
AcDbBlockTableRecord
  2
*Paper_Space0
340
26
 70
     0
280
     1
281
     0
  0
ENDTAB
  0
ENDSEC
  0
SECTION
  2
BLOCKS
  0
BLOCK
  5
20
330
1F
100
AcDbEntity
  8
0
100
AcDbBlockBegin
  2
*Model_Space
 70
     0
 10
0.0
 20
0.0
 30
0.0
  3
*Model_Space
  1

  0
ENDBLK
  5
21
330
1F
100
AcDbEntity
  8
0
100
AcDbBlockEnd
  0
BLOCK
  5
1C
330
1B
100
AcDbEntity
 67
     1
  8
0
100
AcDbBlockBegin
  2
*Paper_Space
 70
     0
 10
0.0
 20
0.0
 30
0.0
  3
*Paper_Space
  1

  0
ENDBLK
  5
1D
330
1B
100
AcDbEntity
 67
     1
  8
0
100
AcDbBlockEnd
  0
BLOCK
  5
24
330
23
100
AcDbEntity
  8
0
100
AcDbBlockBegin
  2
*Paper_Space0
 70
     0
 10
0.0
 20
0.0
 30
0.0
  3
*Paper_Space0
  1

  0
ENDBLK
  5
25
330
23
100
AcDbEntity
  8
0
100
AcDbBlockEnd
  0
ENDSEC
  0
SECTION
  2
ENTITIES
  0
SPLINE
  5
41
330
1F
100
AcDbEntity
  8
Layer 1
370
    53
100
AcDbSpline
210
0.0
220
0.0
230
1.0
 70
    11
 71
     3
 72
    20
 73
    16
 74
     0
 42
0.0000000001
 43
0.0000000001
 12
1.0
 22
0.0
 32
0.0
 13
1.0
 23
0.0
 33
0.0
 40
0.0
 40
0.0
 40
0.0
 40
0.0
 40
0.2
 40
0.2
 40
0.2
 40
0.2
 40
0.4
 40
0.4
 40
0.4
 40
0.4
 40
0.6
 40
0.6
 40
0.6
 40
0.6
 40
1.0
 40
1.0
 40
1.0
 40
1.0
 10
-1.3
 20
0.5
 30
0.0
 10
-1.3
 20
0.66568
 30
0.0
 10
-1.16568
 20
0.8
 30
0.0
 10
-1.0
 20
0.8
 30
0.0
 10
-1.0
 20
0.8
 30
0.0
 10
-0.83432
 20
0.8
 30
0.0
 10
-0.7
 20
0.66568
 30
0.0
 10
-0.7
 20
0.5
 30
0.0
 10
-0.7
 20
0.5
 30
0.0
 10
-0.7
 20
0.33432
 30
0.0
 10
-0.83432
 20
0.2
 30
0.0
 10
-1.0
 20
0.2
 30
0.0
 10
-1.0
 20
0.2
 30
0.0
 10
-1.16568
 20
0.2
 30
0.0
 10
-1.3
 20
0.33432
 30
0.0
 10
-1.3
 20
0.5
 30
0.0
  0
SPLINE
  5
42
330
1F
100
AcDbEntity
  8
Layer 1
370
    53
100
AcDbSpline
210
0.0
220
0.0
230
1.0
 70
    11
 71
     3
 72
    20
 73
    16
 74
     0
 42
0.0000000001
 43
0.0000000001
 12
1.0
 22
0.0
 32
0.0
 13
1.0
 23
0.0
 33
0.0
 40
0.0
 40
0.0
 40
0.0
 40
0.0
 40
0.2
 40
0.2
 40
0.2
 40
0.2
 40
0.4
 40
0.4
 40
0.4
 40
0.4
 40
0.6
 40
0.6
 40
0.6
 40
0.6
 40
1.0
 40
1.0
 40
1.0
 40
1.0
 10
0.2
 20
0.5
 30
0.0
 10
0.2
 20
0.66568
 30
0.0
 10
0.33432
 20
0.8
 30
0.0
 10
0.5
 20
0.8
 30
0.0
 10
0.5
 20
0.8
 30
0.0
 10
0.66568
 20
0.8
 30
0.0
 10
0.8
 20
0.66568
 30
0.0
 10
0.8
 20
0.5
 30
0.0
 10
0.8
 20
0.5
 30
0.0
 10
0.8
 20
0.33432
 30
0.0
 10
0.66568
 20
0.2
 30
0.0
 10
0.5
 20
0.2
 30
0.0
 10
0.5
 20
0.2
 30
0.0
 10
0.33432
 20
0.2
 30
0.0
 10
0.2
 20
0.33432
 30
0.0
 10
0.2
 20
0.5
 30
0.0
  0
SPLINE
  5
43
330
1F
100
AcDbEntity
  8
Layer 1
370
    53
100
AcDbSpline
210
0.0
220
0.0
230
1.0
 70
    11
 71
     3
 72
    20
 73
    16
 74
     0
 42
0.0000000001
 43
0.0000000001
 12
1.0
 22
0.0
 32
0.0
 13
1.0
 23
0.0
 33
0.0
 40
0.0
 40
0.0
 40
0.0
 40
0.0
 40
0.2
 40
0.2
 40
0.2
 40
0.2
 40
0.4
 40
0.4
 40
0.4
 40
0.4
 40
0.6
 40
0.6
 40
0.6
 40
0.6
 40
1.0
 40
1.0
 40
1.0
 40
1.0
 10
-2.8
 20
0.5
 30
0.0
 10
-2.8
 20
0.66568
 30
0.0
 10
-2.66568
 20
0.8
 30
0.0
 10
-2.5
 20
0.8
 30
0.0
 10
-2.5
 20
0.8
 30
0.0
 10
-2.33432
 20
0.8
 30
0.0
 10
-2.2
 20
0.66568
 30
0.0
 10
-2.2
 20
0.5
 30
0.0
 10
-2.2
 20
0.5
 30
0.0
 10
-2.2
 20
0.33432
 30
0.0
 10
-2.33432
 20
0.2
 30
0.0
 10
-2.5
 20
0.2
 30
0.0
 10
-2.5
 20
0.2
 30
0.0
 10
-2.66568
 20
0.2
 30
0.0
 10
-2.8
 20
0.33432
 30
0.0
 10
-2.8
 20
0.5
 30
0.0
  0
SPLINE
  5
44
330
1F
100
AcDbEntity
  8
Layer 1
 62
     5
370
    53
100
AcDbSpline
210
0.0
220
0.0
230
1.0
 70
     8
 71
     3
 72
    16
 73
    12
 74
     0
 42
0.0000000001
 43
0.0000000001
 12
1.0
 22
0.0
 32
0.0
 13
1.0
 23
0.0
 33
0.0
 40
0.0
 40
0.0
 40
0.0
 40
0.0
 40
0.25
 40
0.25
 40
0.25
 40
0.25
 40
0.5
 40
0.5
 40
0.5
 40
0.5
 40
1.0
 40
1.0
 40
1.0
 40
1.0
 10
-0.23127
 20
2.84012
 30
0.0
 10
-0.30132
 20
2.64922
 30
0.0
 10
-0.1649
 20
2.47344
 30
0.0
 10
-0.17301
 20
2.26734
 30
0.0
 10
-0.17301
 20
2.26734
 30
0.0
 10
-0.17313
 20
2.26417
 30
0.0
 10
-0.17327
 20
2.26101
 30
0.0
 10
-0.1734
 20
2.25783
 30
0.0
 10
-0.1734
 20
2.25783
 30
0.0
 10
-0.16849
 20
2.23398
 30
0.0
 10
-0.16695
 20
2.08176
 30
0.0
 10
-0.16518
 20
2.05586
 30
0.0
  0
SPLINE
  5
45
330
1F
100
AcDbEntity
  8
Layer 1
 62
     5
370
    53
100
AcDbSpline
210
0.0
220
0.0
230
1.0
 70
     8
 71
     3
 72
    12
 73
     8
 74
     0
 42
0.0000000001
 43
0.0000000001
 12
1.0
 22
0.0
 32
0.0
 13
1.0
 23
0.0
 33
0.0
 40
0.0
 40
0.0
 40
0.0
 40
0.0
 40
0.3333333333333333
 40
0.3333333333333333
 40
0.3333333333333333
 40
0.3333333333333333
 40
1.0
 40
1.0
 40
1.0
 40
1.0
 10
-1.89384
 20
1.95578
 30
0.0
 10
-1.9053
 20
2.12326
 30
0.0
 10
-1.85676
 20
2.27505
 30
0.0
 10
-1.83278
 20
2.43444
 30
0.0
 10
-1.83278
 20
2.43444
 30
0.0
 10
-1.80933
 20
2.59034
 30
0.0
 10
-1.87669
 20
2.72919
 30
0.0
 10
-1.95107
 20
2.84694
 30
0.0
  0
SPLINE
  5
46
330
1F
100
AcDbEntity
  8
Layer 1
370
    53
100
AcDbSpline
210
0.0
220
0.0
230
1.0
 70
    11
 71
     3
 72
   292
 73
   288
 74
     0
 42
0.0000000001
 43
0.0000000001
 12
1.0
 22
0.0
 32
0.0
 13
1.0
 23
0.0
 33
0.0
 40
0.0
 40
0.0
 40
0.0
 40
0.0
 40
0.0136986301369863
 40
0.0136986301369863
 40
0.0136986301369863
 40
0.0136986301369863
 40
0.0273972602739726
 40
0.0273972602739726
 40
0.0273972602739726
 40
0.0273972602739726
 40
0.0410958904109589
 40
0.0410958904109589
 40
0.0410958904109589
 40
0.0410958904109589
 40
0.0547945205479452
 40
0.0547945205479452
 40
0.0547945205479452
 40
0.0547945205479452
 40
0.0684931506849315
 40
0.0684931506849315
 40
0.0684931506849315
 40
0.0684931506849315
 40
0.0821917808219178
 40
0.0821917808219178
 40
0.0821917808219178
 40
0.0821917808219178
 40
0.0958904109589041
 40
0.0958904109589041
 40
0.0958904109589041
 40
0.0958904109589041
 40
0.1095890410958904
 40
0.1095890410958904
 40
0.1095890410958904
 40
0.1095890410958904
 40
0.1232876712328767
 40
0.1232876712328767
 40
0.1232876712328767
 40
0.1232876712328767
 40
0.136986301369863
 40
0.136986301369863
 40
0.136986301369863
 40
0.136986301369863
 40
0.1506849315068493
 40
0.1506849315068493
 40
0.1506849315068493
 40
0.1506849315068493
 40
0.1643835616438356
 40
0.1643835616438356
 40
0.1643835616438356
 40
0.1643835616438356
 40
0.1780821917808219
 40
0.1780821917808219
 40
0.1780821917808219
 40
0.1780821917808219
 40
0.1917808219178082
 40
0.1917808219178082
 40
0.1917808219178082
 40
0.1917808219178082
 40
0.2054794520547945
 40
0.2054794520547945
 40
0.2054794520547945
 40
0.2054794520547945
 40
0.2191780821917808
 40
0.2191780821917808
 40
0.2191780821917808
 40
0.2191780821917808
 40
0.2328767123287671
 40
0.2328767123287671
 40
0.2328767123287671
 40
0.2328767123287671
 40
0.2465753424657534
 40
0.2465753424657534
 40
0.2465753424657534
 40
0.2465753424657534
 40
0.2602739726027397
 40
0.2602739726027397
 40
0.2602739726027397
 40
0.2602739726027397
 40
0.273972602739726
 40
0.273972602739726
 40
0.273972602739726
 40
0.273972602739726
 40
0.2876712328767123
 40
0.2876712328767123
 40
0.2876712328767123
 40
0.2876712328767123
 40
0.3013698630136986
 40
0.3013698630136986
 40
0.3013698630136986
 40
0.3013698630136986
 40
0.3150684931506849
 40
0.3150684931506849
 40
0.3150684931506849
 40
0.3150684931506849
 40
0.3287671232876712
 40
0.3287671232876712
 40
0.3287671232876712
 40
0.3287671232876712
 40
0.3424657534246575
 40
0.3424657534246575
 40
0.3424657534246575
 40
0.3424657534246575
 40
0.3561643835616438
 40
0.3561643835616438
 40
0.3561643835616438
 40
0.3561643835616438
 40
0.3698630136986301
 40
0.3698630136986301
 40
0.3698630136986301
 40
0.3698630136986301
 40
0.3835616438356164
 40
0.3835616438356164
 40
0.3835616438356164
 40
0.3835616438356164
 40
0.3972602739726027
 40
0.3972602739726027
 40
0.3972602739726027
 40
0.3972602739726027
 40
0.410958904109589
 40
0.410958904109589
 40
0.410958904109589
 40
0.410958904109589
 40
0.4246575342465753
 40
0.4246575342465753
 40
0.4246575342465753
 40
0.4246575342465753
 40
0.4383561643835616
 40
0.4383561643835616
 40
0.4383561643835616
 40
0.4383561643835616
 40
0.4520547945205479
 40
0.4520547945205479
 40
0.4520547945205479
 40
0.4520547945205479
 40
0.4657534246575342
 40
0.4657534246575342
 40
0.4657534246575342
 40
0.4657534246575342
 40
0.4794520547945205
 40
0.4794520547945205
 40
0.4794520547945205
 40
0.4794520547945205
 40
0.4931506849315068
 40
0.4931506849315068
 40
0.4931506849315068
 40
0.4931506849315068
 40
0.5068493150684932
 40
0.5068493150684932
 40
0.5068493150684932
 40
0.5068493150684932
 40
0.5205479452054794
 40
0.5205479452054794
 40
0.5205479452054794
 40
0.5205479452054794
 40
0.5342465753424658
 40
0.5342465753424658
 40
0.5342465753424658
 40
0.5342465753424658
 40
0.547945205479452
 40
0.547945205479452
 40
0.547945205479452
 40
0.547945205479452
 40
0.5616438356164384
 40
0.5616438356164384
 40
0.5616438356164384
 40
0.5616438356164384
 40
0.5753424657534246
 40
0.5753424657534246
 40
0.5753424657534246
 40
0.5753424657534246
 40
0.589041095890411
 40
0.589041095890411
 40
0.589041095890411
 40
0.589041095890411
 40
0.6027397260273972
 40
0.6027397260273972
 40
0.6027397260273972
 40
0.6027397260273972
 40
0.6164383561643836
 40
0.6164383561643836
 40
0.6164383561643836
 40
0.6164383561643836
 40
0.6301369863013698
 40
0.6301369863013698
 40
0.6301369863013698
 40
0.6301369863013698
 40
0.6438356164383562
 40
0.6438356164383562
 40
0.6438356164383562
 40
0.6438356164383562
 40
0.6575342465753424
 40
0.6575342465753424
 40
0.6575342465753424
 40
0.6575342465753424
 40
0.6712328767123288
 40
0.6712328767123288
 40
0.6712328767123288
 40
0.6712328767123288
 40
0.684931506849315
 40
0.684931506849315
 40
0.684931506849315
 40
0.684931506849315
 40
0.6986301369863014
 40
0.6986301369863014
 40
0.6986301369863014
 40
0.6986301369863014
 40
0.7123287671232876
 40
0.7123287671232876
 40
0.7123287671232876
 40
0.7123287671232876
 40
0.726027397260274
 40
0.726027397260274
 40
0.726027397260274
 40
0.726027397260274
 40
0.7397260273972602
 40
0.7397260273972602
 40
0.7397260273972602
 40
0.7397260273972602
 40
0.7534246575342466
 40
0.7534246575342466
 40
0.7534246575342466
 40
0.7534246575342466
 40
0.7671232876712328
 40
0.7671232876712328
 40
0.7671232876712328
 40
0.7671232876712328
 40
0.7808219178082192
 40
0.7808219178082192
 40
0.7808219178082192
 40
0.7808219178082192
 40
0.7945205479452054
 40
0.7945205479452054
 40
0.7945205479452054
 40
0.7945205479452054
 40
0.8082191780821918
 40
0.8082191780821918
 40
0.8082191780821918
 40
0.8082191780821918
 40
0.821917808219178
 40
0.821917808219178
 40
0.821917808219178
 40
0.821917808219178
 40
0.8356164383561644
 40
0.8356164383561644
 40
0.8356164383561644
 40
0.8356164383561644
 40
0.8493150684931506
 40
0.8493150684931506
 40
0.8493150684931506
 40
0.8493150684931506
 40
0.863013698630137
 40
0.863013698630137
 40
0.863013698630137
 40
0.863013698630137
 40
0.8767123287671232
 40
0.8767123287671232
 40
0.8767123287671232
 40
0.8767123287671232
 40
0.8904109589041096
 40
0.8904109589041096
 40
0.8904109589041096
 40
0.8904109589041096
 40
0.9041095890410958
 40
0.9041095890410958
 40
0.9041095890410958
 40
0.9041095890410958
 40
0.9178082191780822
 40
0.9178082191780822
 40
0.9178082191780822
 40
0.9178082191780822
 40
0.9315068493150684
 40
0.9315068493150684
 40
0.9315068493150684
 40
0.9315068493150684
 40
0.9452054794520548
 40
0.9452054794520548
 40
0.9452054794520548
 40
0.9452054794520548
 40
0.958904109589041
 40
0.958904109589041
 40
0.958904109589041
 40
0.958904109589041
 40
0.9726027397260274
 40
0.9726027397260274
 40
0.9726027397260274
 40
0.9726027397260274
 40
1.0
 40
1.0
 40
1.0
 40
1.0
 10
0.7
 20
-0.2
 30
0.0
 10
0.7
 20
-0.2
 30
0.0
 10
-2.7
 20
-0.2
 30
0.0
 10
-2.7
 20
-0.2
 30
0.0
 10
-2.7
 20
-0.2
 30
0.0
 10
-2.97614
 20
-0.2
 30
0.0
 10
-3.2
 20
0.02386
 30
0.0
 10
-3.2
 20
0.3
 30
0.0
 10
-3.2
 20
0.3
 30
0.0
 10
-3.2
 20
0.3
 30
0.0
 10
-3.2
 20
0.7
 30
0.0
 10
-3.2
 20
0.7
 30
0.0
 10
-3.2
 20
0.7
 30
0.0
 10
-3.2
 20
0.97614
 30
0.0
 10
-2.97614
 20
1.2
 30
0.0
 10
-2.7
 20
1.2
 30
0.0
 10
-2.7
 20
1.2
 30
0.0
 10
-2.7
 20
1.2
 30
0.0
 10
-1.4875
 20
1.2
 30
0.0
 10
-1.4875
 20
1.2
 30
0.0
 10
-1.4875
 20
1.2
 30
0.0
 10
-1.4875
 20
1.2
 30
0.0
 10
-1.4875
 20
1.3846
 30
0.0
 10
-1.4875
 20
1.3846
 30
0.0
 10
-1.4875
 20
1.3846
 30
0.0
 10
-1.50157
 20
1.39158
 30
0.0
 10
-1.51549
 20
1.39913
 30
0.0
 10
-1.52925
 20
1.40737
 30
0.0
 10
-1.52925
 20
1.40737
 30
0.0
 10
-1.73306
 20
1.52943
 30
0.0
 10
-1.89406
 20
1.79308
 30
0.0
 10
-1.91111
 20
2.04161
 30
0.0
 10
-1.91111
 20
2.04161
 30
0.0
 10
-1.99166
 20
2.1096
 30
0.0
 10
-2.04723
 20
2.14157
 30
0.0
 10
-2.148
 20
2.08117
 30
0.0
 10
-2.148
 20
2.08117
 30
0.0
 10
-2.37935
 20
1.9425
 30
0.0
 10
-2.2094
 20
1.65595
 30
0.0
 10
-2.02361
 20
1.57814
 30
0.0
 10
-2.02361
 20
1.57814
 30
0.0
 10
-2.30161
 20
1.3417
 30
0.0
 10
-2.70957
 20
1.54941
 30
0.0
 10
-2.70056
 20
1.90255
 30
0.0
 10
-2.70056
 20
1.90255
 30
0.0
 10
-2.69629
 20
2.07161
 30
0.0
 10
-2.62947
 20
2.21829
 30
0.0
 10
-2.56464
 20
2.3704
 30
0.0
 10
-2.56464
 20
2.3704
 30
0.0
 10
-2.5202
 20
2.47471
 30
0.0
 10
-2.44411
 20
2.63851
 30
0.0
 10
-2.52775
 20
2.74205
 30
0.0
 10
-2.52775
 20
2.74205
 30
0.0
 10
-2.56146
 20
2.78382
 30
0.0
 10
-2.62497
 20
2.79739
 30
0.0
 10
-2.67394
 20
2.77618
 30
0.0
 10
-2.67394
 20
2.77618
 30
0.0
 10
-2.78081
 20
2.72985
 30
0.0
 10
-2.77548
 20
2.56445
 30
0.0
 10
-2.75846
 20
2.47203
 30
0.0
 10
-2.75846
 20
2.47203
 30
0.0
 10
-2.95055
 20
2.56207
 30
0.0
 10
-3.07771
 20
2.88863
 30
0.0
 10
-3.04808
 20
3.09053
 30
0.0
 10
-3.04808
 20
3.09053
 30
0.0
 10
-3.01637
 20
3.30643
 30
0.0
 10
-2.88374
 20
3.53158
 30
0.0
 10
-2.78251
 20
3.72207
 30
0.0
 10
-2.78251
 20
3.72207
 30
0.0
 10
-2.83504
 20
3.78516
 30
0.0
 10
-2.94219
 20
3.75005
 30
0.0
 10
-2.99524
 20
3.70836
 30
0.0
 10
-2.99524
 20
3.70836
 30
0.0
 10
-3.11076
 20
3.61752
 30
0.0
 10
-3.09947
 20
3.43734
 30
0.0
 10
-3.102
 20
3.30648
 30
0.0
 10
-3.102
 20
3.30648
 30
0.0
 10
-3.2531
 20
3.39813
 30
0.0
 10
-3.30494
 20
3.64269
 30
0.0
 10
-3.30447
 20
3.8048
 30
0.0
 10
-3.30447
 20
3.8048
 30
0.0
 10
-3.30401
 20
3.97643
 30
0.0
 10
-3.26062
 20
4.1405
 30
0.0
 10
-3.19776
 20
4.29996
 30
0.0
 10
-3.19776
 20
4.29996
 30
0.0
 10
-3.07904
 20
4.60102
 30
0.0
 10
-2.84336
 20
4.95661
 30
0.0
 10
-2.52441
 20
5.08984
 30
0.0
 10
-2.52441
 20
5.08984
 30
0.0
 10
-2.52441
 20
5.08984
 30
0.0
 10
-2.56265
 20
5.13154
 30
0.0
 10
-2.56265
 20
5.13154
 30
0.0
 10
-2.56265
 20
5.13154
 30
0.0
 10
-2.59979
 20
5.11951
 30
0.0
 10
-2.63681
 20
5.10523
 30
0.0
 10
-2.67213
 20
5.08422
 30
0.0
 10
-2.67213
 20
5.08422
 30
0.0
 10
-2.657
 20
5.1216
 30
0.0
 10
-2.63885
 20
5.15786
 30
0.0
 10
-2.61816
 20
5.19301
 30
0.0
 10
-2.61816
 20
5.19301
 30
0.0
 10
-2.68031
 20
5.26315
 30
0.0
 10
-2.73772
 20
5.33413
 30
0.0
 10
-2.77082
 20
5.39953
 30
0.0
 10
-2.77082
 20
5.39953
 30
0.0
 10
-2.83553
 20
5.52739
 30
0.0
 10
-2.92196
 20
5.71788
 30
0.0
 10
-2.89987
 20
5.86519
 30
0.0
 10
-2.89987
 20
5.86519
 30
0.0
 10
-2.88276
 20
5.97913
 30
0.0
 10
-2.82088
 20
5.90671
 30
0.0
 10
-2.75236
 20
5.87051
 30
0.0
 10
-2.75236
 20
5.87051
 30
0.0
 10
-2.68295
 20
5.83389
 30
0.0
 10
-2.60826
 20
5.80876
 30
0.0
 10
-2.53772
 20
5.7746
 30
0.0
 10
-2.53772
 20
5.7746
 30
0.0
 10
-2.42132
 20
5.71826
 30
0.0
 10
-2.30396
 20
5.6676
 30
0.0
 10
-2.18488
 20
5.61744
 30
0.0
 10
-2.18488
 20
5.61744
 30
0.0
 10
-2.02691
 20
5.72005
 30
0.0
 10
-1.85363
 20
5.8011
 30
0.0
 10
-1.6934
 20
5.85951
 30
0.0
 10
-1.6934
 20
5.85951
 30
0.0
 10
-1.61402
 20
5.88844
 30
0.0
 10
-1.52942
 20
5.91564
 30
0.0
 10
-1.4425
 20
5.93694
 30
0.0
 10
-1.4425
 20
5.93694
 30
0.0
 10
-1.38395
 20
6.32197
 30
0.0
 10
-1.32746
 20
6.70735
 30
0.0
 10
-1.28394
 20
7.09441
 30
0.0
 10
-1.28394
 20
7.09441
 30
0.0
 10
-1.28038
 20
7.12597
 30
0.0
 10
-1.27715
 20
7.15756
 30
0.0
 10
-1.27508
 20
7.18926
 30
0.0
 10
-1.27508
 20
7.18926
 30
0.0
 10
-1.26795
 20
7.2984
 30
0.0
 10
-1.26038
 20
7.40794
 30
0.0
 10
-1.24281
 20
7.51565
 30
0.0
 10
-1.24281
 20
7.51565
 30
0.0
 10
-1.2156
 20
7.68257
 30
0.0
 10
-1.20488
 20
7.85543
 30
0.0
 10
-1.19633
 20
8.02413
 30
0.0
 10
-1.19633
 20
8.02413
 30
0.0
 10
-1.18806
 20
8.18668
 30
0.0
 10
-1.1793
 20
8.35176
 30
0.0
 10
-1.15711
 20
8.51255
 30
0.0
 10
-1.15711
 20
8.51255
 30
0.0
 10
-1.15628
 20
8.51842
 30
0.0
 10
-1.15566
 20
8.52684
 30
0.0
 10
-1.15463
 20
8.53617
 30
0.0
 10
-1.15463
 20
8.53617
 30
0.0
 10
-1.14881
 20
8.58883
 30
0.0
 10
-1.12083
 20
8.62981
 30
0.0
 10
-1.08628
 20
8.56981
 30
0.0
 10
-1.08628
 20
8.56981
 30
0.0
 10
-1.06677
 20
8.53596
 30
0.0
 10
-1.06585
 20
8.49021
 30
0.0
 10
-1.06096
 20
8.45239
 30
0.0
 10
-1.06096
 20
8.45239
 30
0.0
 10
-1.0544
 20
8.40168
 30
0.0
 10
-1.04773
 20
8.34949
 30
0.0
 10
-1.04675
 20
8.29807
 30
0.0
 10
-1.04675
 20
8.29807
 30
0.0
 10
-1.03766
 20
7.82249
 30
0.0
 10
-0.94482
 20
7.34102
 30
0.0
 10
-0.88387
 20
6.86929
 30
0.0
 10
-0.88387
 20
6.86929
 30
0.0
 10
-0.84376
 20
6.56008
 30
0.0
 10
-0.82123
 20
6.24198
 30
0.0
 10
-0.77537
 20
5.93174
 30
0.0
 10
-0.77537
 20
5.93174
 30
0.0
 10
-0.57464
 20
5.88349
 30
0.0
 10
-0.37989
 20
5.81018
 30
0.0
 10
-0.20246
 20
5.70379
 30
0.0
 10
-0.20246
 20
5.70379
 30
0.0
 10
-0.14498
 20
5.66934
 30
0.0
 10
-0.08625
 20
5.63018
 30
0.0
 10
-0.02889
 20
5.5869
 30
0.0
 10
-0.02889
 20
5.5869
 30
0.0
 10
-0.00353
 20
5.59648
 30
0.0
 10
0.02184
 20
5.6066
 30
0.0
 10
0.04729
 20
5.61733
 30
0.0
 10
0.04729
 20
5.61733
 30
0.0
 10
0.16645
 20
5.66752
 30
0.0
 10
0.28387
 20
5.71821
 30
0.0
 10
0.40037
 20
5.77459
 30
0.0
 10
0.40037
 20
5.77459
 30
0.0
 10
0.47091
 20
5.80875
 30
0.0
 10
0.54561
 20
5.83389
 30
0.0
 10
0.61501
 20
5.8705
 30
0.0
 10
0.61501
 20
5.8705
 30
0.0
 10
0.68353
 20
5.9067
 30
0.0
 10
0.74542
 20
5.97911
 30
0.0
 10
0.76252
 20
5.86519
 30
0.0
 10
0.76252
 20
5.86519
 30
0.0
 10
0.78461
 20
5.71786
 30
0.0
 10
0.69818
 20
5.52739
 30
0.0
 10
0.63349
 20
5.39953
 30
0.0
 10
0.63349
 20
5.39953
 30
0.0
 10
0.58598
 20
5.30568
 30
0.0
 10
0.48843
 20
5.20033
 30
0.0
 10
0.39865
 20
5.10247
 30
0.0
 10
0.39865
 20
5.10247
 30
0.0
 10
0.73398
 20
4.98046
 30
0.0
 10
0.98157
 20
4.61108
 30
0.0
 10
1.10425
 20
4.29996
 30
0.0
 10
1.10425
 20
4.29996
 30
0.0
 10
1.16712
 20
4.1405
 30
0.0
 10
1.21051
 20
3.97643
 30
0.0
 10
1.21097
 20
3.8048
 30
0.0
 10
1.21097
 20
3.8048
 30
0.0
 10
1.21143
 20
3.64269
 30
0.0
 10
1.1596
 20
3.39813
 30
0.0
 10
1.0085
 20
3.30648
 30
0.0
 10
1.0085
 20
3.30648
 30
0.0
 10
1.00597
 20
3.43734
 30
0.0
 10
1.01726
 20
3.61752
 30
0.0
 10
0.90174
 20
3.70836
 30
0.0
 10
0.90174
 20
3.70836
 30
0.0
 10
0.84869
 20
3.75005
 30
0.0
 10
0.74154
 20
3.78516
 30
0.0
 10
0.68901
 20
3.72207
 30
0.0
 10
0.68901
 20
3.72207
 30
0.0
 10
0.79024
 20
3.53158
 30
0.0
 10
0.92287
 20
3.30643
 30
0.0
 10
0.95458
 20
3.09053
 30
0.0
 10
0.95458
 20
3.09053
 30
0.0
 10
0.98421
 20
2.88863
 30
0.0
 10
0.85703
 20
2.56207
 30
0.0
 10
0.66496
 20
2.47203
 30
0.0
 10
0.66496
 20
2.47203
 30
0.0
 10
0.68198
 20
2.56445
 30
0.0
 10
0.68731
 20
2.72985
 30
0.0
 10
0.58044
 20
2.77618
 30
0.0
 10
0.58044
 20
2.77618
 30
0.0
 10
0.53147
 20
2.79739
 30
0.0
 10
0.46796
 20
2.78382
 30
0.0
 10
0.43424
 20
2.74205
 30
0.0
 10
0.43424
 20
2.74205
 30
0.0
 10
0.35061
 20
2.63851
 30
0.0
 10
0.4267
 20
2.47471
 30
0.0
 10
0.47114
 20
2.3704
 30
0.0
 10
0.47114
 20
2.3704
 30
0.0
 10
0.53597
 20
2.21829
 30
0.0
 10
0.60279
 20
2.07161
 30
0.0
 10
0.60705
 20
1.90255
 30
0.0
 10
0.60705
 20
1.90255
 30
0.0
 10
0.61607
 20
1.54941
 30
0.0
 10
0.20811
 20
1.3417
 30
0.0
 10
-0.06989
 20
1.57814
 30
0.0
 10
-0.06989
 20
1.57814
 30
0.0
 10
0.11589
 20
1.65595
 30
0.0
 10
0.28585
 20
1.9425
 30
0.0
 10
0.0545
 20
2.08117
 30
0.0
 10
0.0545
 20
2.08117
 30
0.0
 10
-0.03893
 20
2.13717
 30
0.0
 10
-0.09352
 20
2.11376
 30
0.0
 10
-0.16517
 20
2.05586
 30
0.0
 10
-0.16517
 20
2.05586
 30
0.0
 10
-0.17669
 20
1.92005
 30
0.0
 10
-0.21608
 20
1.77808
 30
0.0
 10
-0.25985
 20
1.67405
 30
0.0
 10
-0.25985
 20
1.67405
 30
0.0
 10
-0.30947
 20
1.55614
 30
0.0
 10
-0.40196
 20
1.46446
 30
0.0
 10
-0.51251
 20
1.39727
 30
0.0
 10
-0.51251
 20
1.39727
 30
0.0
 10
-0.51251
 20
1.39727
 30
0.0
 10
-0.51251
 20
1.2
 30
0.0
 10
-0.51251
 20
1.2
 30
0.0
 10
-0.51251
 20
1.2
 30
0.0
 10
-0.51251
 20
1.2
 30
0.0
 10
0.7
 20
1.2
 30
0.0
 10
0.7
 20
1.2
 30
0.0
 10
0.7
 20
1.2
 30
0.0
 10
0.97614
 20
1.2
 30
0.0
 10
1.2
 20
0.97614
 30
0.0
 10
1.2
 20
0.7
 30
0.0
 10
1.2
 20
0.7
 30
0.0
 10
1.2
 20
0.7
 30
0.0
 10
1.2
 20
0.3
 30
0.0
 10
1.2
 20
0.3
 30
0.0
 10
1.2
 20
0.3
 30
0.0
 10
1.2
 20
0.02386
 30
0.0
 10
0.97614
 20
-0.2
 30
0.0
 10
0.7
 20
-0.2
 30
0.0
  0
SPLINE
  5
47
330
1F
100
AcDbEntity
  8
Layer 1
 62
     5
370
    53
100
AcDbSpline
210
0.0
220
0.0
230
1.0
 70
     8
 71
     3
 72
     8
 73
     4
 74
     0
 42
0.0000000001
 43
0.0000000001
 12
1.0
 22
0.0
 32
0.0
 13
1.0
 23
0.0
 33
0.0
 40
0.0
 40
0.0
 40
0.0
 40
0.0
 40
1.0
 40
1.0
 40
1.0
 40
1.0
 10
-1.23439
 20
3.46425
 30
0.0
 10
-1.23439
 20
3.75189
 30
0.0
 10
-1.42899
 20
3.99403
 30
0.0
 10
-1.6937
 20
4.06633
 30
0.0
  0
SPLINE
  5
48
330
1F
100
AcDbEntity
  8
Layer 1
 62
     5
370
    53
100
AcDbSpline
210
0.0
220
0.0
230
1.0
 70
     8
 71
     3
 72
    16
 73
    12
 74
     0
 42
0.0000000001
 43
0.0000000001
 12
1.0
 22
0.0
 32
0.0
 13
1.0
 23
0.0
 33
0.0
 40
0.0
 40
0.0
 40
0.0
 40
0.0
 40
0.25
 40
0.25
 40
0.25
 40
0.25
 40
0.5
 40
0.5
 40
0.5
 40
0.5
 40
1.0
 40
1.0
 40
1.0
 40
1.0
 10
-2.18925
 20
3.99358
 30
0.0
 10
-2.36544
 20
3.88326
 30
0.0
 10
-2.48263
 20
3.68745
 30
0.0
 10
-2.48263
 20
3.46425
 30
0.0
 10
-2.48263
 20
3.46425
 30
0.0
 10
-2.48263
 20
3.11955
 30
0.0
 10
-2.2032
 20
2.84012
 30
0.0
 10
-1.85851
 20
2.84012
 30
0.0
 10
-1.85851
 20
2.84012
 30
0.0
 10
-1.51383
 20
2.84012
 30
0.0
 10
-1.23439
 20
3.11955
 30
0.0
 10
-1.23439
 20
3.46425
 30
0.0
  0
SPLINE
  5
49
330
1F
100
AcDbEntity
  8
Layer 1
 62
     5
370
    53
100
AcDbSpline
210
0.0
220
0.0
230
1.0
 70
    11
 71
     3
 72
    16
 73
    12
 74
     0
 42
0.0000000001
 43
0.0000000001
 12
1.0
 22
0.0
 32
0.0
 13
1.0
 23
0.0
 33
0.0
 40
0.0
 40
0.0
 40
0.0
 40
0.0
 40
0.25
 40
0.25
 40
0.25
 40
0.25
 40
0.5
 40
0.5
 40
0.5
 40
0.5
 40
1.0
 40
1.0
 40
1.0
 40
1.0
 10
-1.77213
 20
3.33658
 30
0.0
 10
-1.83405
 20
3.29222
 30
0.0
 10
-1.91685
 20
3.336
 30
0.0
 10
-1.92918
 20
3.40839
 30
0.0
 10
-1.92918
 20
3.40839
 30
0.0
 10
-1.9451
 20
3.50227
 30
0.0
 10
-1.81368
 20
3.55431
 30
0.0
 10
-1.75338
 20
3.4843
 30
0.0
 10
-1.75338
 20
3.4843
 30
0.0
 10
-1.71702
 20
3.44211
 30
0.0
 10
-1.7265
 20
3.36932
 30
0.0
 10
-1.77213
 20
3.33658
 30
0.0
  0
SPLINE
  5
4A
330
1F
100
AcDbEntity
  8
Layer 1
 62
     5
370
    53
100
AcDbSpline
210
0.0
220
0.0
230
1.0
 70
    11
 71
     3
 72
    16
 73
    12
 74
     0
 42
0.0000000001
 43
0.0000000001
 12
1.0
 22
0.0
 32
0.0
 13
1.0
 23
0.0
 33
0.0
 40
0.0
 40
0.0
 40
0.0
 40
0.0
 40
0.25
 40
0.25
 40
0.25
 40
0.25
 40
0.5
 40
0.5
 40
0.5
 40
0.5
 40
1.0
 40
1.0
 40
1.0
 40
1.0
 10
-1.83141
 20
3.45405
 30
0.0
 10
-1.83528
 20
3.46797
 30
0.0
 10
-1.84968
 20
3.47847
 30
0.0
 10
-1.86872
 20
3.47325
 30
0.0
 10
-1.86872
 20
3.47325
 30
0.0
 10
-1.90716
 20
3.4627
 30
0.0
 10
-1.89399
 20
3.40614
 30
0.0
 10
-1.85402
 20
3.41384
 30
0.0
 10
-1.85402
 20
3.41384
 30
0.0
 10
-1.83582
 20
3.41736
 30
0.0
 10
-1.82701
 20
3.43821
 30
0.0
 10
-1.83141
 20
3.45405
 30
0.0
  0
SPLINE
  5
4B
330
1F
100
AcDbEntity
  8
Layer 1
 62
     5
370
    53
100
AcDbSpline
210
0.0
220
0.0
230
1.0
 70
    24
 71
     3
 72
     8
 73
     4
 74
     0
 42
0.0000000001
 43
0.0000000001
 12
1.0
 22
0.0
 32
0.0
 13
1.0
 23
0.0
 33
0.0
 40
0.0
 40
0.0
 40
0.0
 40
0.0
 40
1.0
 40
1.0
 40
1.0
 40
1.0
 10
-1.45339
 20
3.93879
 30
0.0
 10
-1.45339
 20
3.93879
 30
0.0
 10
-1.3293
 20
4.06644
 30
0.0
 10
-1.3293
 20
4.06644
 30
0.0
  0
SPLINE
  5
4C
330
1F
100
AcDbEntity
  8
Layer 1
 62
     5
370
    53
100
AcDbSpline
210
0.0
220
0.0
230
1.0
 70
    24
 71
     3
 72
     8
 73
     4
 74
     0
 42
0.0000000001
 43
0.0000000001
 12
1.0
 22
0.0
 32
0.0
 13
1.0
 23
0.0
 33
0.0
 40
0.0
 40
0.0
 40
0.0
 40
0.0
 40
1.0
 40
1.0
 40
1.0
 40
1.0
 10
-2.33391
 20
3.8684
 30
0.0
 10
-2.33391
 20
3.8684
 30
0.0
 10
-2.45566
 20
3.98024
 30
0.0
 10
-2.45566
 20
3.98024
 30
0.0
  0
SPLINE
  5
4D
330
1F
100
AcDbEntity
  8
Layer 1
 62
     5
370
    53
100
AcDbSpline
210
0.0
220
0.0
230
1.0
 70
    11
 71
     3
 72
   108
 73
   104
 74
     0
 42
0.0000000001
 43
0.0000000001
 12
1.0
 22
0.0
 32
0.0
 13
1.0
 23
0.0
 33
0.0
 40
0.0
 40
0.0
 40
0.0
 40
0.0
 40
0.037037037037037
 40
0.037037037037037
 40
0.037037037037037
 40
0.037037037037037
 40
0.0740740740740741
 40
0.0740740740740741
 40
0.0740740740740741
 40
0.0740740740740741
 40
0.1111111111111111
 40
0.1111111111111111
 40
0.1111111111111111
 40
0.1111111111111111
 40
0.1481481481481481
 40
0.1481481481481481
 40
0.1481481481481481
 40
0.1481481481481481
 40
0.1851851851851852
 40
0.1851851851851852
 40
0.1851851851851852
 40
0.1851851851851852
 40
0.2222222222222222
 40
0.2222222222222222
 40
0.2222222222222222
 40
0.2222222222222222
 40
0.2592592592592592
 40
0.2592592592592592
 40
0.2592592592592592
 40
0.2592592592592592
 40
0.2962962962962963
 40
0.2962962962962963
 40
0.2962962962962963
 40
0.2962962962962963
 40
0.3333333333333333
 40
0.3333333333333333
 40
0.3333333333333333
 40
0.3333333333333333
 40
0.3703703703703703
 40
0.3703703703703703
 40
0.3703703703703703
 40
0.3703703703703703
 40
0.4074074074074074
 40
0.4074074074074074
 40
0.4074074074074074
 40
0.4074074074074074
 40
0.4444444444444444
 40
0.4444444444444444
 40
0.4444444444444444
 40
0.4444444444444444
 40
0.4814814814814815
 40
0.4814814814814815
 40
0.4814814814814815
 40
0.4814814814814815
 40
0.5185185185185185
 40
0.5185185185185185
 40
0.5185185185185185
 40
0.5185185185185185
 40
0.5555555555555556
 40
0.5555555555555556
 40
0.5555555555555556
 40
0.5555555555555556
 40
0.5925925925925926
 40
0.5925925925925926
 40
0.5925925925925926
 40
0.5925925925925926
 40
0.6296296296296297
 40
0.6296296296296297
 40
0.6296296296296297
 40
0.6296296296296297
 40
0.6666666666666666
 40
0.6666666666666666
 40
0.6666666666666666
 40
0.6666666666666666
 40
0.7037037037037037
 40
0.7037037037037037
 40
0.7037037037037037
 40
0.7037037037037037
 40
0.7407407407407407
 40
0.7407407407407407
 40
0.7407407407407407
 40
0.7407407407407407
 40
0.7777777777777778
 40
0.7777777777777778
 40
0.7777777777777778
 40
0.7777777777777778
 40
0.8148148148148148
 40
0.8148148148148148
 40
0.8148148148148148
 40
0.8148148148148148
 40
0.8518518518518519
 40
0.8518518518518519
 40
0.8518518518518519
 40
0.8518518518518519
 40
0.8888888888888888
 40
0.8888888888888888
 40
0.8888888888888888
 40
0.8888888888888888
 40
0.9259259259259259
 40
0.9259259259259259
 40
0.9259259259259259
 40
0.9259259259259259
 40
1.0
 40
1.0
 40
1.0
 40
1.0
 10
-2.39739
 20
4.05441
 30
0.0
 10
-2.32482
 20
4.1528
 30
0.0
 10
-2.19506
 20
4.21847
 30
0.0
 10
-2.11752
 20
4.31822
 30
0.0
 10
-2.11752
 20
4.31822
 30
0.0
 10
-2.05548
 20
4.39804
 30
0.0
 10
-1.99633
 20
4.48411
 30
0.0
 10
-1.95471
 20
4.57513
 30
0.0
 10
-1.95471
 20
4.57513
 30
0.0
 10
-1.93858
 20
4.61037
 30
0.0
 10
-1.90035
 20
4.67099
 30
0.0
 10
-1.94148
 20
4.69724
 30
0.0
 10
-1.94148
 20
4.69724
 30
0.0
 10
-1.97641
 20
4.71954
 30
0.0
 10
-2.07046
 20
4.66932
 30
0.0
 10
-2.10194
 20
4.65523
 30
0.0
 10
-2.10194
 20
4.65523
 30
0.0
 10
-2.21242
 20
4.60575
 30
0.0
 10
-2.30967
 20
4.53445
 30
0.0
 10
-2.41116
 20
4.47104
 30
0.0
 10
-2.41116
 20
4.47104
 30
0.0
 10
-2.43711
 20
4.45486
 30
0.0
 10
-2.72606
 20
4.32296
 30
0.0
 10
-2.72572
 20
4.32804
 30
0.0
 10
-2.72572
 20
4.32804
 30
0.0
 10
-2.70384
 20
4.63971
 30
0.0
 10
-2.56632
 20
4.93401
 30
0.0
 10
-2.36008
 20
5.18635
 30
0.0
 10
-2.36008
 20
5.18635
 30
0.0
 10
-2.36008
 20
5.18635
 30
0.0
 10
-2.34197
 20
5.20852
 30
0.0
 10
-2.31668
 20
5.23948
 30
0.0
 10
-2.31668
 20
5.23948
 30
0.0
 10
-2.41406
 20
5.14936
 30
0.0
 10
-2.55276
 20
5.15524
 30
0.0
 10
-2.67213
 20
5.08422
 30
0.0
 10
-2.67213
 20
5.08422
 30
0.0
 10
-2.52054
 20
5.45887
 30
0.0
 10
-2.07075
 20
5.72194
 30
0.0
 10
-1.69341
 20
5.85951
 30
0.0
 10
-1.69341
 20
5.85951
 30
0.0
 10
-1.46887
 20
5.94136
 30
0.0
 10
-1.20258
 20
6.00933
 30
0.0
 10
-0.96009
 20
5.96908
 30
0.0
 10
-0.96009
 20
5.96908
 30
0.0
 10
-0.69486
 20
5.92506
 30
0.0
 10
-0.43392
 20
5.84257
 30
0.0
 10
-0.20247
 20
5.70379
 30
0.0
 10
-0.20247
 20
5.70379
 30
0.0
 10
0.02191
 20
5.5693
 30
0.0
 10
0.2652
 20
5.36332
 30
0.0
 10
0.37249
 20
5.11912
 30
0.0
 10
0.37249
 20
5.11912
 30
0.0
 10
0.42636
 20
4.99657
 30
0.0
 10
0.4507
 20
4.86247
 30
0.0
 10
0.44874
 20
4.72885
 30
0.0
 10
0.44874
 20
4.72885
 30
0.0
 10
0.44775
 20
4.66112
 30
0.0
 10
0.44008
 20
4.59352
 30
0.0
 10
0.42659
 20
4.52713
 30
0.0
 10
0.42659
 20
4.52713
 30
0.0
 10
0.42091
 20
4.49913
 30
0.0
 10
0.35789
 20
4.3454
 30
0.0
 10
0.36804
 20
4.32907
 30
0.0
 10
0.36804
 20
4.32907
 30
0.0
 10
0.27177
 20
4.48396
 30
0.0
 10
0.1726
 20
4.64932
 30
0.0
 10
0.0994
 20
4.81255
 30
0.0
 10
0.0994
 20
4.81255
 30
0.0
 10
0.01683
 20
4.71592
 30
0.0
 10
-0.07353
 20
4.60439
 30
0.0
 10
-0.17862
 20
4.52554
 30
0.0
 10
-0.17862
 20
4.52554
 30
0.0
 10
-0.27501
 20
4.45321
 30
0.0
 10
-0.38165
 20
4.39421
 30
0.0
 10
-0.49149
 20
4.34205
 30
0.0
 10
-0.49149
 20
4.34205
 30
0.0
 10
-0.56329
 20
4.30799
 30
0.0
 10
-0.65954
 20
4.24498
 30
0.0
 10
-0.74163
 20
4.25128
 30
0.0
 10
-0.74163
 20
4.25128
 30
0.0
 10
-0.70758
 20
4.34528
 30
0.0
 10
-0.64828
 20
4.42733
 30
0.0
 10
-0.62942
 20
4.52743
 30
0.0
 10
-0.62942
 20
4.52743
 30
0.0
 10
-0.61523
 20
4.60255
 30
0.0
 10
-0.54709
 20
4.83985
 30
0.0
 10
-0.61399
 20
4.89437
 30
0.0
 10
-0.61399
 20
4.89437
 30
0.0
 10
-0.7599
 20
4.74269
 30
0.0
 10
-0.87157
 20
4.5676
 30
0.0
 10
-1.04174
 20
4.43197
 30
0.0
 10
-1.04174
 20
4.43197
 30
0.0
 10
-1.19064
 20
4.31327
 30
0.0
 10
-1.32633
 20
4.21398
 30
0.0
 10
-1.50585
 20
4.13783
 30
0.0
 10
-1.50585
 20
4.13783
 30
0.0
 10
-1.77678
 20
4.02293
 30
0.0
 10
-2.10953
 20
3.92595
 30
0.0
 10
-2.40483
 20
4.04385
 30
0.0
 10
-2.40483
 20
4.04385
 30
0.0
 10
-2.40243
 20
4.04742
 30
0.0
 10
-2.39995
 20
4.05093
 30
0.0
 10
-2.39739
 20
4.05441
 30
0.0
  0
SPLINE
  5
4E
330
1F
100
AcDbEntity
  8
Layer 1
 62
     5
370
    53
100
AcDbSpline
210
0.0
220
0.0
230
1.0
 70
    11
 71
     3
 72
    20
 73
    16
 74
     0
 42
0.0000000001
 43
0.0000000001
 12
1.0
 22
0.0
 32
0.0
 13
1.0
 23
0.0
 33
0.0
 40
0.0
 40
0.0
 40
0.0
 40
0.0
 40
0.2
 40
0.2
 40
0.2
 40
0.2
 40
0.4
 40
0.4
 40
0.4
 40
0.4
 40
0.6
 40
0.6
 40
0.6
 40
0.6
 40
1.0
 40
1.0
 40
1.0
 40
1.0
 10
0.39285
 20
3.46425
 30
0.0
 10
0.39285
 20
3.80895
 30
0.0
 10
0.11341
 20
4.08837
 30
0.0
 10
-0.23127
 20
4.08837
 30
0.0
 10
-0.23127
 20
4.08837
 30
0.0
 10
-0.57598
 20
4.08837
 30
0.0
 10
-0.85542
 20
3.80895
 30
0.0
 10
-0.85542
 20
3.46425
 30
0.0
 10
-0.85542
 20
3.46425
 30
0.0
 10
-0.85542
 20
3.11955
 30
0.0
 10
-0.57598
 20
2.84012
 30
0.0
 10
-0.23127
 20
2.84012
 30
0.0
 10
-0.23127
 20
2.84012
 30
0.0
 10
0.11341
 20
2.84012
 30
0.0
 10
0.39285
 20
3.11955
 30
0.0
 10
0.39285
 20
3.46425
 30
0.0
  0
SPLINE
  5
4F
330
1F
100
AcDbEntity
  8
Layer 1
 62
     5
370
    53
100
AcDbSpline
210
0.0
220
0.0
230
1.0
 70
    11
 71
     3
 72
    20
 73
    16
 74
     0
 42
0.0000000001
 43
0.0000000001
 12
1.0
 22
0.0
 32
0.0
 13
1.0
 23
0.0
 33
0.0
 40
0.0
 40
0.0
 40
0.0
 40
0.0
 40
0.2
 40
0.2
 40
0.2
 40
0.2
 40
0.4
 40
0.4
 40
0.4
 40
0.4
 40
0.6
 40
0.6
 40
0.6
 40
0.6
 40
1.0
 40
1.0
 40
1.0
 40
1.0
 10
-0.13456
 20
3.39051
 30
0.0
 10
-0.14547
 20
3.3582
 30
0.0
 10
-0.16991
 20
3.33048
 30
0.0
 10
-0.20311
 20
3.32166
 30
0.0
 10
-0.20311
 20
3.32166
 30
0.0
 10
-0.27554
 20
3.30243
 30
0.0
 10
-0.35654
 20
3.38193
 30
0.0
 10
-0.32866
 20
3.45593
 30
0.0
 10
-0.32866
 20
3.45593
 30
0.0
 10
-0.306
 20
3.53177
 30
0.0
 10
-0.19337
 20
3.54597
 30
0.0
 10
-0.1474
 20
3.48678
 30
0.0
 10
-0.1474
 20
3.48678
 30
0.0
 10
-0.12632
 20
3.45966
 30
0.0
 10
-0.12366
 20
3.42281
 30
0.0
 10
-0.13456
 20
3.39051
 30
0.0
  0
SPLINE
  5
50
330
1F
100
AcDbEntity
  8
Layer 1
 62
     5
370
    53
100
AcDbSpline
210
0.0
220
0.0
230
1.0
 70
    11
 71
     3
 72
    24
 73
    20
 74
     0
 42
0.0000000001
 43
0.0000000001
 12
1.0
 22
0.0
 32
0.0
 13
1.0
 23
0.0
 33
0.0
 40
0.0
 40
0.0
 40
0.0
 40
0.0
 40
0.1666666666666667
 40
0.1666666666666667
 40
0.1666666666666667
 40
0.1666666666666667
 40
0.3333333333333333
 40
0.3333333333333333
 40
0.3333333333333333
 40
0.3333333333333333
 40
0.5
 40
0.5
 40
0.5
 40
0.5
 40
0.6666666666666666
 40
0.6666666666666666
 40
0.6666666666666666
 40
0.6666666666666666
 40
1.0
 40
1.0
 40
1.0
 40
1.0
 10
-0.27435
 20
3.47127
 30
0.0
 10
-0.26412
 20
3.47892
 30
0.0
 10
-0.24962
 20
3.48119
 30
0.0
 10
-0.23866
 20
3.4739
 30
0.0
 10
-0.23866
 20
3.4739
 30
0.0
 10
-0.22365
 20
3.46388
 30
0.0
 10
-0.22164
 20
3.4411
 30
0.0
 10
-0.23399
 20
3.42813
 30
0.0
 10
-0.23399
 20
3.42813
 30
0.0
 10
-0.24352
 20
3.41808
 30
0.0
 10
-0.26029
 20
3.41593
 30
0.0
 10
-0.27204
 20
3.42321
 30
0.0
 10
-0.27204
 20
3.42321
 30
0.0
 10
-0.2799
 20
3.42805
 30
0.0
 10
-0.28494
 20
3.43676
 30
0.0
 10
-0.28608
 20
3.44583
 30
0.0
 10
-0.28608
 20
3.44583
 30
0.0
 10
-0.28734
 20
3.45625
 30
0.0
 10
-0.28261
 20
3.46501
 30
0.0
 10
-0.27435
 20
3.47127
 30
0.0
  0
SPLINE
  5
51
330
1F
100
AcDbEntity
  8
Layer 1
 62
     5
370
    53
100
AcDbSpline
210
0.0
220
0.0
230
1.0
 70
    24
 71
     3
 72
     8
 73
     4
 74
     0
 42
0.0000000001
 43
0.0000000001
 12
1.0
 22
0.0
 32
0.0
 13
1.0
 23
0.0
 33
0.0
 40
0.0
 40
0.0
 40
0.0
 40
0.0
 40
1.0
 40
1.0
 40
1.0
 40
1.0
 10
-0.63647
 20
3.93879
 30
0.0
 10
-0.63647
 20
3.93879
 30
0.0
 10
-0.77504
 20
4.06644
 30
0.0
 10
-0.77504
 20
4.06644
 30
0.0
  0
SPLINE
  5
52
330
1F
100
AcDbEntity
  8
Layer 1
 62
     5
370
    53
100
AcDbSpline
210
0.0
220
0.0
230
1.0
 70
    24
 71
     3
 72
     8
 73
     4
 74
     0
 42
0.0000000001
 43
0.0000000001
 12
1.0
 22
0.0
 32
0.0
 13
1.0
 23
0.0
 33
0.0
 40
0.0
 40
0.0
 40
0.0
 40
0.0
 40
1.0
 40
1.0
 40
1.0
 40
1.0
 10
-0.23127
 20
4.08836
 30
0.0
 10
-0.23127
 20
4.08836
 30
0.0
 10
-0.2259
 20
4.30066
 30
0.0
 10
-0.2259
 20
4.30066
 30
0.0
  0
SPLINE
  5
53
330
1F
100
AcDbEntity
  8
Layer 1
 62
     5
370
    53
100
AcDbSpline
210
0.0
220
0.0
230
1.0
 70
    24
 71
     3
 72
     8
 73
     4
 74
     0
 42
0.0000000001
 43
0.0000000001
 12
1.0
 22
0.0
 32
0.0
 13
1.0
 23
0.0
 33
0.0
 40
0.0
 40
0.0
 40
0.0
 40
0.0
 40
1.0
 40
1.0
 40
1.0
 40
1.0
 10
0.201
 20
3.91419
 30
0.0
 10
0.201
 20
3.91419
 30
0.0
 10
0.37603
 20
4.06642
 30
0.0
 10
0.37603
 20
4.06642
 30
0.0
  0
SPLINE
  5
54
330
1F
100
AcDbEntity
  8
Layer 1
 62
     5
370
    53
100
AcDbSpline
210
0.0
220
0.0
230
1.0
 70
     8
 71
     3
 72
    36
 73
    32
 74
     0
 42
0.0000000001
 43
0.0000000001
 12
1.0
 22
0.0
 32
0.0
 13
1.0
 23
0.0
 33
0.0
 40
0.0
 40
0.0
 40
0.0
 40
0.0
 40
0.1111111111111111
 40
0.1111111111111111
 40
0.1111111111111111
 40
0.1111111111111111
 40
0.2222222222222222
 40
0.2222222222222222
 40
0.2222222222222222
 40
0.2222222222222222
 40
0.3333333333333333
 40
0.3333333333333333
 40
0.3333333333333333
 40
0.3333333333333333
 40
0.4444444444444444
 40
0.4444444444444444
 40
0.4444444444444444
 40
0.4444444444444444
 40
0.5555555555555556
 40
0.5555555555555556
 40
0.5555555555555556
 40
0.5555555555555556
 40
0.6666666666666666
 40
0.6666666666666666
 40
0.6666666666666666
 40
0.6666666666666666
 40
0.7777777777777778
 40
0.7777777777777778
 40
0.7777777777777778
 40
0.7777777777777778
 40
1.0
 40
1.0
 40
1.0
 40
1.0
 10
-1.8405
 20
2.32291
 30
0.0
 10
-1.79033
 20
2.42948
 30
0.0
 10
-1.6677
 20
2.56326
 30
0.0
 10
-1.55933
 20
2.61428
 30
0.0
 10
-1.55933
 20
2.61428
 30
0.0
 10
-1.44445
 20
2.66833
 30
0.0
 10
-1.32079
 20
2.61625
 30
0.0
 10
-1.20847
 20
2.58217
 30
0.0
 10
-1.20847
 20
2.58217
 30
0.0
 10
-1.09233
 20
2.54696
 30
0.0
 10
-0.97356
 20
2.54241
 30
0.0
 10
-0.86258
 20
2.59873
 30
0.0
 10
-0.86258
 20
2.59873
 30
0.0
 10
-0.79767
 20
2.63168
 30
0.0
 10
-0.72132
 20
2.65821
 30
0.0
 10
-0.64779
 20
2.65605
 30
0.0
 10
-0.64779
 20
2.65605
 30
0.0
 10
-0.6151
 20
2.6551
 30
0.0
 10
-0.57952
 20
2.64729
 30
0.0
 10
-0.54818
 20
2.63804
 30
0.0
 10
-0.54818
 20
2.63804
 30
0.0
 10
-0.47888
 20
2.61759
 30
0.0
 10
-0.41351
 20
2.58517
 30
0.0
 10
-0.35995
 20
2.53595
 30
0.0
 10
-0.35995
 20
2.53595
 30
0.0
 10
-0.28641
 20
2.4684
 30
0.0
 10
-0.2244
 20
2.37181
 30
0.0
 10
-0.18267
 20
2.28174
 30
0.0
 10
-0.18267
 20
2.28174
 30
0.0
 10
-0.18448
 20
2.28039
 30
0.0
 10
-0.18585
 20
2.27868
 30
0.0
 10
-0.18686
 20
2.27661
 30
0.0
  0
SPLINE
  5
55
330
1F
100
AcDbEntity
  8
Layer 1
 62
     5
370
    53
100
AcDbSpline
210
0.0
220
0.0
230
1.0
 70
     8
 71
     3
 72
     8
 73
     4
 74
     0
 42
0.0000000001
 43
0.0000000001
 12
1.0
 22
0.0
 32
0.0
 13
1.0
 23
0.0
 33
0.0
 40
0.0
 40
0.0
 40
0.0
 40
0.0
 40
1.0
 40
1.0
 40
1.0
 40
1.0
 10
-0.76776
 20
4.90027
 30
0.0
 10
-1.00515
 20
5.17314
 30
0.0
 10
-1.25602
 20
5.35168
 30
0.0
 10
-1.48267
 20
5.63071
 30
0.0
  0
SPLINE
  5
56
330
1F
100
AcDbEntity
  8
Layer 1
 62
     5
370
    53
100
AcDbSpline
210
0.0
220
0.0
230
1.0
 70
     8
 71
     3
 72
    12
 73
     8
 74
     0
 42
0.0000000001
 43
0.0000000001
 12
1.0
 22
0.0
 32
0.0
 13
1.0
 23
0.0
 33
0.0
 40
0.0
 40
0.0
 40
0.0
 40
0.0
 40
0.3333333333333333
 40
0.3333333333333333
 40
0.3333333333333333
 40
0.3333333333333333
 40
1.0
 40
1.0
 40
1.0
 40
1.0
 10
-1.40852
 20
6.1627
 30
0.0
 10
-1.23956
 20
5.96867
 30
0.0
 10
-1.05947
 20
5.79843
 30
0.0
 10
-0.88328
 20
5.6104
 30
0.0
 10
-0.88328
 20
5.6104
 30
0.0
 10
-0.82269
 20
5.54577
 30
0.0
 10
-0.76881
 20
5.47046
 30
0.0
 10
-0.69763
 20
5.40454
 30
0.0
  0
SPLINE
  5
57
330
1F
100
AcDbEntity
  8
Layer 1
 62
     5
370
    53
100
AcDbSpline
210
0.0
220
0.0
230
1.0
 70
     8
 71
     3
 72
    16
 73
    12
 74
     0
 42
0.0000000001
 43
0.0000000001
 12
1.0
 22
0.0
 32
0.0
 13
1.0
 23
0.0
 33
0.0
 40
0.0
 40
0.0
 40
0.0
 40
0.0
 40
0.25
 40
0.25
 40
0.25
 40
0.25
 40
0.5
 40
0.5
 40
0.5
 40
0.5
 40
1.0
 40
1.0
 40
1.0
 40
1.0
 10
-1.33653
 20
6.58597
 30
0.0
 10
-1.26207
 20
6.52887
 30
0.0
 10
-1.20888
 20
6.48341
 30
0.0
 10
-1.1808
 20
6.45682
 30
0.0
 10
-1.1808
 20
6.45682
 30
0.0
 10
-1.13321
 20
6.41173
 30
0.0
 10
-1.12406
 20
6.40133
 30
0.0
 10
-1.07871
 20
6.35398
 30
0.0
 10
-1.07871
 20
6.35398
 30
0.0
 10
-0.98007
 20
6.25092
 30
0.0
 10
-0.88888
 20
6.14119
 30
0.0
 10
-0.79767
 20
6.03182
 30
0.0
  0
SPLINE
  5
58
330
1F
100
AcDbEntity
  8
Layer 1
 62
     5
370
    53
100
AcDbSpline
210
0.0
220
0.0
230
1.0
 70
     8
 71
     3
 72
    12
 73
     8
 74
     0
 42
0.0000000001
 43
0.0000000001
 12
1.0
 22
0.0
 32
0.0
 13
1.0
 23
0.0
 33
0.0
 40
0.0
 40
0.0
 40
0.0
 40
0.0
 40
0.3333333333333333
 40
0.3333333333333333
 40
0.3333333333333333
 40
0.3333333333333333
 40
1.0
 40
1.0
 40
1.0
 40
1.0
 10
-1.28816
 20
6.95312
 30
0.0
 10
-1.22858
 20
6.90184
 30
0.0
 10
-1.09122
 20
6.74471
 30
0.0
 10
-1.03053
 20
6.68338
 30
0.0
 10
-1.03053
 20
6.68338
 30
0.0
 10
-1.00789
 20
6.66052
 30
0.0
 10
-0.8948
 20
6.54334
 30
0.0
 10
-0.8424
 20
6.50333
 30
0.0
  0
SPLINE
  5
59
330
1F
100
AcDbEntity
  8
Layer 1
 62
     5
370
    53
100
AcDbSpline
210
0.0
220
0.0
230
1.0
 70
     8
 71
     3
 72
    12
 73
     8
 74
     0
 42
0.0000000001
 43
0.0000000001
 12
1.0
 22
0.0
 32
0.0
 13
1.0
 23
0.0
 33
0.0
 40
0.0
 40
0.0
 40
0.0
 40
0.0
 40
0.3333333333333333
 40
0.3333333333333333
 40
0.3333333333333333
 40
0.3333333333333333
 40
1.0
 40
1.0
 40
1.0
 40
1.0
 10
-1.25181
 20
7.29708
 30
0.0
 10
-1.17757
 20
7.22236
 30
0.0
 10
-1.13553
 20
7.20329
 30
0.0
 10
-1.06528
 20
7.12804
 30
0.0
 10
-1.06528
 20
7.12804
 30
0.0
 10
-1.02784
 20
7.0879
 30
0.0
 10
-0.9473
 20
7.00639
 30
0.0
 10
-0.90273
 20
6.97542
 30
0.0
  0
SPLINE
  5
5A
330
1F
100
AcDbEntity
  8
Layer 1
 62
     5
370
    53
100
AcDbSpline
210
0.0
220
0.0
230
1.0
 70
     8
 71
     3
 72
     8
 73
     4
 74
     0
 42
0.0000000001
 43
0.0000000001
 12
1.0
 22
0.0
 32
0.0
 13
1.0
 23
0.0
 33
0.0
 40
0.0
 40
0.0
 40
0.0
 40
0.0
 40
1.0
 40
1.0
 40
1.0
 40
1.0
 10
-1.23289
 20
7.58206
 30
0.0
 10
-1.12677
 20
7.51042
 30
0.0
 10
-1.0466
 20
7.41953
 30
0.0
 10
-0.94903
 20
7.33877
 30
0.0
  0
SPLINE
  5
5B
330
1F
100
AcDbEntity
  8
Layer 1
 62
     5
370
    53
100
AcDbSpline
210
0.0
220
0.0
230
1.0
 70
     8
 71
     3
 72
    12
 73
     8
 74
     0
 42
0.0000000001
 43
0.0000000001
 12
1.0
 22
0.0
 32
0.0
 13
1.0
 23
0.0
 33
0.0
 40
0.0
 40
0.0
 40
0.0
 40
0.0
 40
0.3333333333333333
 40
0.3333333333333333
 40
0.3333333333333333
 40
0.3333333333333333
 40
1.0
 40
1.0
 40
1.0
 40
1.0
 10
-1.2055
 20
7.89239
 30
0.0
 10
-1.15305
 20
7.86022
 30
0.0
 10
-1.12806
 20
7.82326
 30
0.0
 10
-1.09096
 20
7.78783
 30
0.0
 10
-1.09096
 20
7.78783
 30
0.0
 10
-1.07538
 20
7.77298
 30
0.0
 10
-1.03968
 20
7.74907
 30
0.0
 10
-1.00122
 20
7.7107
 30
0.0
  0
SPLINE
  5
5C
330
1F
100
AcDbEntity
  8
Layer 1
 62
     5
370
    53
100
AcDbSpline
210
0.0
220
0.0
230
1.0
 70
     8
 71
     3
 72
     8
 73
     4
 74
     0
 42
0.0000000001
 43
0.0000000001
 12
1.0
 22
0.0
 32
0.0
 13
1.0
 23
0.0
 33
0.0
 40
0.0
 40
0.0
 40
0.0
 40
0.0
 40
1.0
 40
1.0
 40
1.0
 40
1.0
 10
-1.17243
 20
8.22973
 30
0.0
 10
-1.12897
 20
8.19616
 30
0.0
 10
-1.09096
 20
8.1279
 30
0.0
 10
-1.03608
 20
8.06477
 30
0.0
  0
SPLINE
  5
5D
330
1F
100
AcDbEntity
  8
Layer 1
 62
     5
370
    53
100
AcDbSpline
210
0.0
220
0.0
230
1.0
 70
    11
 71
     3
 72
    20
 73
    16
 74
     0
 42
0.0000000001
 43
0.0000000001
 12
1.0
 22
0.0
 32
0.0
 13
1.0
 23
0.0
 33
0.0
 40
0.0
 40
0.0
 40
0.0
 40
0.0
 40
0.2
 40
0.2
 40
0.2
 40
0.2
 40
0.4
 40
0.4
 40
0.4
 40
0.4
 40
0.6
 40
0.6
 40
0.6
 40
0.6
 40
1.0
 40
1.0
 40
1.0
 40
1.0
 10
-1.3411
 20
2.227
 30
0.0
 10
-1.38503
 20
2.19358
 30
0.0
 10
-1.41183
 20
2.05695
 30
0.0
 10
-1.34072
 20
2.03481
 30
0.0
 10
-1.34072
 20
2.03481
 30
0.0
 10
-1.27351
 20
2.01387
 30
0.0
 10
-1.24803
 20
2.09918
 30
0.0
 10
-1.25181
 20
2.14828
 30
0.0
 10
-1.25181
 20
2.14828
 30
0.0
 10
-1.25387
 20
2.17482
 30
0.0
 10
-1.25819
 20
2.20908
 30
0.0
 10
-1.28281
 20
2.2251
 30
0.0
 10
-1.28281
 20
2.2251
 30
0.0
 10
-1.33144
 20
2.25672
 30
0.0
 10
-1.34947
 20
2.20859
 30
0.0
 10
-1.3411
 20
2.227
 30
0.0
  0
SPLINE
  5
5E
330
1F
100
AcDbEntity
  8
Layer 1
 62
     5
370
    53
100
AcDbSpline
210
0.0
220
0.0
230
1.0
 70
    11
 71
     3
 72
    20
 73
    16
 74
     0
 42
0.0000000001
 43
0.0000000001
 12
1.0
 22
0.0
 32
0.0
 13
1.0
 23
0.0
 33
0.0
 40
0.0
 40
0.0
 40
0.0
 40
0.0
 40
0.2
 40
0.2
 40
0.2
 40
0.2
 40
0.4
 40
0.4
 40
0.4
 40
0.4
 40
0.6
 40
0.6
 40
0.6
 40
0.6
 40
1.0
 40
1.0
 40
1.0
 40
1.0
 10
-0.71287
 20
2.227
 30
0.0
 10
-0.66894
 20
2.19358
 30
0.0
 10
-0.64215
 20
2.05695
 30
0.0
 10
-0.71326
 20
2.03481
 30
0.0
 10
-0.71326
 20
2.03481
 30
0.0
 10
-0.78046
 20
2.01387
 30
0.0
 10
-0.80594
 20
2.09918
 30
0.0
 10
-0.80217
 20
2.14828
 30
0.0
 10
-0.80217
 20
2.14828
 30
0.0
 10
-0.8001
 20
2.17482
 30
0.0
 10
-0.79578
 20
2.20908
 30
0.0
 10
-0.77116
 20
2.2251
 30
0.0
 10
-0.77116
 20
2.2251
 30
0.0
 10
-0.72254
 20
2.25672
 30
0.0
 10
-0.7045
 20
2.20859
 30
0.0
 10
-0.71287
 20
2.227
 30
0.0
  0
SPLINE
  5
5F
330
1F
100
AcDbEntity
  8
Layer 1
 62
     5
370
    53
100
AcDbSpline
210
0.0
220
0.0
230
1.0
 70
     8
 71
     3
 72
     8
 73
     4
 74
     0
 42
0.0000000001
 43
0.0000000001
 12
1.0
 22
0.0
 32
0.0
 13
1.0
 23
0.0
 33
0.0
 40
0.0
 40
0.0
 40
0.0
 40
0.0
 40
1.0
 40
1.0
 40
1.0
 40
1.0
 10
-0.67931
 20
1.7436
 30
0.0
 10
-0.67931
 20
1.55949
 30
0.0
 10
-0.82857
 20
1.41023
 30
0.0
 10
-1.0127
 20
1.41023
 30
0.0
  0
SPLINE
  5
60
330
1F
100
AcDbEntity
  8
Layer 1
 62
     5
370
    53
100
AcDbSpline
210
0.0
220
0.0
230
1.0
 70
     8
 71
     3
 72
     8
 73
     4
 74
     0
 42
0.0000000001
 43
0.0000000001
 12
1.0
 22
0.0
 32
0.0
 13
1.0
 23
0.0
 33
0.0
 40
0.0
 40
0.0
 40
0.0
 40
0.0
 40
1.0
 40
1.0
 40
1.0
 40
1.0
 10
-1.01211
 20
1.41023
 30
0.0
 10
-1.19622
 20
1.41023
 30
0.0
 10
-1.34547
 20
1.55949
 30
0.0
 10
-1.34547
 20
1.7436
 30
0.0
  0
SPLINE
  5
61
330
1F
100
AcDbEntity
  8
Layer 1
 62
     5
370
    53
100
AcDbSpline
210
0.0
220
0.0
230
1.0
 70
     8
 71
     3
 72
    40
 73
    36
 74
     0
 42
0.0000000001
 43
0.0000000001
 12
1.0
 22
0.0
 32
0.0
 13
1.0
 23
0.0
 33
0.0
 40
0.0
 40
0.0
 40
0.0
 40
0.0
 40
0.1
 40
0.1
 40
0.1
 40
0.1
 40
0.2
 40
0.2
 40
0.2
 40
0.2
 40
0.3
 40
0.3
 40
0.3
 40
0.3
 40
0.4
 40
0.4
 40
0.4
 40
0.4
 40
0.5
 40
0.5
 40
0.5
 40
0.5
 40
0.6
 40
0.6
 40
0.6
 40
0.6
 40
0.7
 40
0.7
 40
0.7
 40
0.7
 40
0.8
 40
0.8
 40
0.8
 40
0.8
 40
1.0
 40
1.0
 40
1.0
 40
1.0
 10
-1.4425
 20
5.93694
 30
0.0
 10
-1.461
 20
5.81481
 30
0.0
 10
-1.47126
 20
5.74867
 30
0.0
 10
-1.48993
 20
5.62657
 30
0.0
 10
-1.48993
 20
5.62657
 30
0.0
 10
-1.50882
 20
5.50307
 30
0.0
 10
-1.52763
 20
5.37956
 30
0.0
 10
-1.54597
 20
5.25598
 30
0.0
 10
-1.54597
 20
5.25598
 30
0.0
 10
-1.55589
 20
5.18919
 30
0.0
 10
-1.56789
 20
5.08118
 30
0.0
 10
-1.56789
 20
5.08118
 30
0.0
 10
-1.56789
 20
5.08118
 30
0.0
 10
-1.56789
 20
5.08118
 30
0.0
 10
-1.55171
 20
5.00455
 30
0.0
 10
-1.51737
 20
4.9648
 30
0.0
 10
-1.51737
 20
4.9648
 30
0.0
 10
-1.31079
 20
4.72585
 30
0.0
 10
-0.8871
 20
4.69122
 30
0.0
 10
-0.70871
 20
4.97426
 30
0.0
 10
-0.70871
 20
4.97426
 30
0.0
 10
-0.67915
 20
5.02121
 30
0.0
 10
-0.64164
 20
5.12498
 30
0.0
 10
-0.64164
 20
5.12498
 30
0.0
 10
-0.64164
 20
5.12498
 30
0.0
 10
-0.64164
 20
5.12498
 30
0.0
 10
-0.67119
 20
5.29781
 30
0.0
 10
-0.68328
 20
5.37464
 30
0.0
 10
-0.68328
 20
5.37464
 30
0.0
 10
-0.70011
 20
5.48143
 30
0.0
 10
-0.71319
 20
5.58625
 30
0.0
 10
-0.73437
 20
5.69269
 30
0.0
 10
-0.73437
 20
5.69269
 30
0.0
 10
-0.75138
 20
5.77823
 30
0.0
 10
-0.7628
 20
5.84467
 30
0.0
 10
-0.77538
 20
5.93174
 30
0.0
  0
SPLINE
  5
62
330
1F
100
AcDbEntity
  8
Layer 1
 62
     5
370
    53
100
AcDbSpline
210
0.0
220
0.0
230
1.0
 70
     8
 71
     3
 72
    12
 73
     8
 74
     0
 42
0.0000000001
 43
0.0000000001
 12
1.0
 22
0.0
 32
0.0
 13
1.0
 23
0.0
 33
0.0
 40
0.0
 40
0.0
 40
0.0
 40
0.0
 40
0.3333333333333333
 40
0.3333333333333333
 40
0.3333333333333333
 40
0.3333333333333333
 40
1.0
 40
1.0
 40
1.0
 40
1.0
 10
0.36804
 20
4.32907
 30
0.0
 10
0.39895
 20
4.16923
 30
0.0
 10
0.43694
 20
3.97659
 30
0.0
 10
0.40863
 20
3.80916
 30
0.0
 10
0.40863
 20
3.80916
 30
0.0
 10
0.39857
 20
3.74961
 30
0.0
 10
0.38718
 20
3.69669
 30
0.0
 10
0.36904
 20
3.63558
 30
0.0
  0
SPLINE
  5
63
330
1F
100
AcDbEntity
  8
Layer 1
 62
     5
370
    53
100
AcDbSpline
210
0.0
220
0.0
230
1.0
 70
     8
 71
     3
 72
    16
 73
    12
 74
     0
 42
0.0000000001
 43
0.0000000001
 12
1.0
 22
0.0
 32
0.0
 13
1.0
 23
0.0
 33
0.0
 40
0.0
 40
0.0
 40
0.0
 40
0.0
 40
0.25
 40
0.25
 40
0.25
 40
0.25
 40
0.5
 40
0.5
 40
0.5
 40
0.5
 40
1.0
 40
1.0
 40
1.0
 40
1.0
 10
-0.48471
 20
1.41492
 30
0.0
 10
-0.61092
 20
1.33097
 30
0.0
 10
-0.76506
 20
1.28112
 30
0.0
 10
-0.90674
 20
1.26263
 30
0.0
 10
-0.90674
 20
1.26263
 30
0.0
 10
-1.04213
 20
1.24495
 30
0.0
 10
-1.16597
 20
1.27101
 30
0.0
 10
-1.29635
 20
1.31307
 30
0.0
 10
-1.29635
 20
1.31307
 30
0.0
 10
-1.37764
 20
1.33933
 30
0.0
 10
-1.45564
 20
1.36329
 30
0.0
 10
-1.52925
 20
1.40737
 30
0.0
  0
SPLINE
  5
64
330
1F
100
AcDbEntity
  8
Layer 1
 62
     5
370
    53
100
AcDbSpline
210
0.0
220
0.0
230
1.0
 70
     8
 71
     3
 72
    12
 73
     8
 74
     0
 42
0.0000000001
 43
0.0000000001
 12
1.0
 22
0.0
 32
0.0
 13
1.0
 23
0.0
 33
0.0
 40
0.0
 40
0.0
 40
0.0
 40
0.0
 40
0.3333333333333333
 40
0.3333333333333333
 40
0.3333333333333333
 40
0.3333333333333333
 40
1.0
 40
1.0
 40
1.0
 40
1.0
 10
-2.46773
 20
3.60426
 30
0.0
 10
-2.53425
 20
3.78256
 30
0.0
 10
-2.52651
 20
4.02258
 30
0.0
 10
-2.51881
 20
4.19926
 30
0.0
 10
-2.51881
 20
4.19926
 30
0.0
 10
-2.51652
 20
4.27604
 30
0.0
 10
-2.51736
 20
4.3468
 30
0.0
 10
-2.51539
 20
4.4205
 30
0.0
  0
SPLINE
  5
65
330
1F
100
AcDbEntity
  8
Layer 1
370
    53
100
AcDbSpline
210
0.0
220
0.0
230
1.0
 70
    11
 71
     3
 72
    20
 73
    16
 74
     0
 42
0.0000000001
 43
0.0000000001
 12
1.0
 22
0.0
 32
0.0
 13
1.0
 23
0.0
 33
0.0
 40
0.0
 40
0.0
 40
0.0
 40
0.0
 40
0.2
 40
0.2
 40
0.2
 40
0.2
 40
0.4
 40
0.4
 40
0.4
 40
0.4
 40
0.6
 40
0.6
 40
0.6
 40
0.6
 40
1.0
 40
1.0
 40
1.0
 40
1.0
 10
-1.9
 20
0.5
 30
0.0
 10
-1.9
 20
0.58284
 30
0.0
 10
-1.83284
 20
0.65
 30
0.0
 10
-1.75
 20
0.65
 30
0.0
 10
-1.75
 20
0.65
 30
0.0
 10
-1.66716
 20
0.65
 30
0.0
 10
-1.6
 20
0.58284
 30
0.0
 10
-1.6
 20
0.5
 30
0.0
 10
-1.6
 20
0.5
 30
0.0
 10
-1.6
 20
0.41716
 30
0.0
 10
-1.66716
 20
0.35
 30
0.0
 10
-1.75
 20
0.35
 30
0.0
 10
-1.75
 20
0.35
 30
0.0
 10
-1.83284
 20
0.35
 30
0.0
 10
-1.9
 20
0.41716
 30
0.0
 10
-1.9
 20
0.5
 30
0.0
  0
SPLINE
  5
66
330
1F
100
AcDbEntity
  8
Layer 1
370
    53
100
AcDbSpline
210
0.0
220
0.0
230
1.0
 70
    11
 71
     3
 72
    20
 73
    16
 74
     0
 42
0.0000000001
 43
0.0000000001
 12
1.0
 22
0.0
 32
0.0
 13
1.0
 23
0.0
 33
0.0
 40
0.0
 40
0.0
 40
0.0
 40
0.0
 40
0.2
 40
0.2
 40
0.2
 40
0.2
 40
0.4
 40
0.4
 40
0.4
 40
0.4
 40
0.6
 40
0.6
 40
0.6
 40
0.6
 40
1.0
 40
1.0
 40
1.0
 40
1.0
 10
-0.4
 20
0.5
 30
0.0
 10
-0.4
 20
0.58284
 30
0.0
 10
-0.33284
 20
0.65
 30
0.0
 10
-0.25
 20
0.65
 30
0.0
 10
-0.25
 20
0.65
 30
0.0
 10
-0.16716
 20
0.65
 30
0.0
 10
-0.1
 20
0.58284
 30
0.0
 10
-0.1
 20
0.5
 30
0.0
 10
-0.1
 20
0.5
 30
0.0
 10
-0.1
 20
0.41716
 30
0.0
 10
-0.16716
 20
0.35
 30
0.0
 10
-0.25
 20
0.35
 30
0.0
 10
-0.25
 20
0.35
 30
0.0
 10
-0.33284
 20
0.35
 30
0.0
 10
-0.4
 20
0.41716
 30
0.0
 10
-0.4
 20
0.5
 30
0.0
  0
ENDSEC
  0
SECTION
  2
OBJECTS
  0
DICTIONARY
  5
C
330
0
100
AcDbDictionary
281
     1
  3
ACAD_GROUP
350
D
  3
ACAD_LAYOUT
350
1A
  3
ACAD_MATERIAL
350
3B
  3
ACAD_MLEADERSTYLE
350
88
  3
ACAD_MLINESTYLE
350
17
  3
ACAD_PLOTSETTINGS
350
19
  3
ACAD_PLOTSTYLENAME
350
E
  3
ACAD_TABLESTYLE
350
87
  3
ACAD_VISUALSTYLE
350
2A
  0
DICTIONARY
  5
D
102
{ACAD_REACTORS
330
C
102
}
330
C
100
AcDbDictionary
281
     1
  0
DICTIONARY
  5
1A
102
{ACAD_REACTORS
330
C
102
}
330
C
100
AcDbDictionary
281
     1
  3
Layout1
350
1E
  3
Layout2
350
26
  3
Model
350
22
  0
DICTIONARY
  5
3B
102
{ACAD_REACTORS
330
C
102
}
330
C
100
AcDbDictionary
281
     1
  3
ByBlock
350
3D
  3
ByLayer
350
3C
  3
Global
350
3E
  0
DICTIONARY
  5
88
102
{ACAD_REACTORS
330
C
102
}
330
C
100
AcDbDictionary
281
     1
  0
DICTIONARY
  5
17
102
{ACAD_REACTORS
330
C
102
}
330
C
100
AcDbDictionary
281
     1
  3
Standard
350
18
  0
DICTIONARY
  5
19
102
{ACAD_REACTORS
330
C
102
}
330
C
100
AcDbDictionary
281
     1
  0
ACDBDICTIONARYWDFLT
  5
E
102
{ACAD_REACTORS
330
C
102
}
330
C
100
AcDbDictionary
281
     1
  3
Normal
350
F
100
AcDbDictionaryWithDefault
340
F
  0
DICTIONARY
  5
87
102
{ACAD_REACTORS
330
C
102
}
330
C
100
AcDbDictionary
281
     1
  0
DICTIONARY
  5
2A
102
{ACAD_REACTORS
330
C
102
}
330
C
100
AcDbDictionary
281
     1
  3
2dWireframe
350
2F
  3
3D Hidden
350
31
  3
3dWireframe
350
30
  3
Basic
350
32
  3
Brighten
350
36
  3
ColorChange
350
3A
  3
Conceptual
350
34
  3
Dim
350
35
  3
Facepattern
350
39
  3
Flat
350
2B
  3
FlatWithEdges
350
2C
  3
Gouraud
350
2D
  3
GouraudWithEdges
350
2E
  3
Linepattern
350
38
  3
Realistic
350
33
  3
Thicken
350
37
  0
LAYOUT
  5
1E
102
{ACAD_REACTORS
330
1A
102
}
330
1A
100
AcDbPlotSettings
  1

  2
none_device
  4

  6

 40
0.0
 41
0.0
 42
0.0
 43
0.0
 44
0.0
 45
0.0
 46
0.0
 47
0.0
 48
0.0
 49
0.0
140
0.0
141
0.0
142
1.0
143
1.0
 70
   688
 72
     0
 73
     0
 74
     5
  7

 75
    16
 76
     0
 77
     2
 78
   300
147
1.0
148
0.0
149
0.0
100
AcDbLayout
  1
Layout1
 70
     1
 71
     1
 10
0.0
 20
0.0
 11
12.0
 21
9.0
 12
0.0
 22
0.0
 32
0.0
 14
1.000000000000000E+20
 24
1.000000000000000E+20
 34
1.000000000000000E+20
 15
-1.000000000000000E+20
 25
-1.000000000000000E+20
 35
-1.000000000000000E+20
146
0.0
 13
0.0
 23
0.0
 33
0.0
 16
1.0
 26
0.0
 36
0.0
 17
0.0
 27
1.0
 37
0.0
 76
     0
330
1B
  0
LAYOUT
  5
26
102
{ACAD_REACTORS
330
1A
102
}
330
1A
100
AcDbPlotSettings
  1

  2
none_device
  4

  6

 40
0.0
 41
0.0
 42
0.0
 43
0.0
 44
0.0
 45
0.0
 46
0.0
 47
0.0
 48
0.0
 49
0.0
140
0.0
141
0.0
142
1.0
143
1.0
 70
   688
 72
     0
 73
     0
 74
     5
  7

 75
    16
 76
     0
 77
     2
 78
   300
147
1.0
148
0.0
149
0.0
100
AcDbLayout
  1
Layout2
 70
     1
 71
     2
 10
0.0
 20
0.0
 11
0.0
 21
0.0
 12
0.0
 22
0.0
 32
0.0
 14
0.0
 24
0.0
 34
0.0
 15
0.0
 25
0.0
 35
0.0
146
0.0
 13
0.0
 23
0.0
 33
0.0
 16
1.0
 26
0.0
 36
0.0
 17
0.0
 27
1.0
 37
0.0
 76
     0
330
23
  0
LAYOUT
  5
22
102
{ACAD_REACTORS
330
1A
102
}
330
1A
100
AcDbPlotSettings
  1

  2
none_device
  4

  6

 40
0.0
 41
0.0
 42
0.0
 43
0.0
 44
0.0
 45
0.0
 46
0.0
 47
0.0
 48
0.0
 49
0.0
140
0.0
141
0.0
142
1.0
143
1.0
 70
  1712
 72
     0
 73
     0
 74
     0
  7

 75
     0
 76
     0
 77
     2
 78
   300
147
1.0
148
0.0
149
0.0
100
AcDbLayout
  1
Model
 70
     1
 71
     0
 10
0.0
 20
0.0
 11
12.0
 21
9.0
 12
0.0
 22
0.0
 32
0.0
 14
-3.33093
 24
-0.22646
 34
0.0
 15
1.23743
 25
8.62596
 35
0.0
146
0.0
 13
0.0
 23
0.0
 33
0.0
 16
1.0
 26
0.0
 36
0.0
 17
0.0
 27
1.0
 37
0.0
 76
     0
330
1F
331
29
  0
MATERIAL
  5
3D
102
{ACAD_REACTORS
330
3B
102
}
330
3B
100
AcDbMaterial
  1
ByBlock
 72
     1
 94
      127
  0
MATERIAL
  5
3C
102
{ACAD_REACTORS
330
3B
102
}
330
3B
100
AcDbMaterial
  1
ByLayer
 72
     1
 94
      127
  0
MATERIAL
  5
3E
102
{ACAD_REACTORS
330
3B
102
}
330
3B
100
AcDbMaterial
  1
Global
 72
     1
 94
      127
  0
MLINESTYLE
  5
18
102
{ACAD_REACTORS
330
17
102
}
330
17
100
AcDbMlineStyle
  2
Standard
 70
     0
  3

 62
   256
 51
90.0
 52
90.0
 71
     2
 49
0.5
 62
   256
  6
BYLAYER
 49
-0.5
 62
   256
  6
BYLAYER
  0
ACDBPLACEHOLDER
  5
F
102
{ACAD_REACTORS
330
E
102
}
330
E
  0
VISUALSTYLE
  5
2F
102
{ACAD_REACTORS
330
2A
102
}
102
{ACAD_XDICTIONARY
360
6F
102
}
330
2A
100
AcDbVisualStyle
  2
2dWireframe
 70
     4
 71
     0
 72
     2
 73
     0
 90
        0
 40
-0.6
 41
-30.0
 62
     5
 63
     7
421
 16777215
 74
     1
 91
        4
 64
     7
 65
   257
 75
     1
175
     1
 42
1.0
 92
        0
 66
   257
 43
1.0
 76
     1
 77
     6
 78
     2
 67
     7
 79
     5
170
     0
171
     0
290
     0
174
     0
 93
        1
 44
0.0
173
     0
291
     0
 45
0.0
  0
VISUALSTYLE
  5
31
102
{ACAD_REACTORS
330
2A
102
}
102
{ACAD_XDICTIONARY
360
73
102
}
330
2A
100
AcDbVisualStyle
  2
3D Hidden
 70
     6
 71
     1
 72
     2
 73
     2
 90
        0
 40
-0.6
 41
-30.0
 62
     5
 63
     7
421
 16777215
 74
     2
 91
        2
 64
     7
 65
   257
 75
     2
175
     1
 42
40.0
 92
        0
 66
   257
 43
1.0
 76
     1
 77
     6
 78
     2
 67
     7
 79
     3
170
     0
171
     0
290
     0
174
     0
 93
        1
 44
0.0
173
     0
291
     0
 45
0.0
  0
VISUALSTYLE
  5
30
102
{ACAD_REACTORS
330
2A
102
}
102
{ACAD_XDICTIONARY
360
71
102
}
330
2A
100
AcDbVisualStyle
  2
3dWireframe
 70
     5
 71
     0
 72
     2
 73
     0
 90
        0
 40
-0.6
 41
-30.0
 62
     5
 63
     7
421
 16777215
 74
     1
 91
        4
 64
     7
 65
   257
 75
     1
175
     1
 42
1.0
 92
        0
 66
   257
 43
1.0
 76
     1
 77
     6
 78
     2
 67
     7
 79
     5
170
     0
171
     0
290
     0
174
     0
 93
        1
 44
0.0
173
     0
291
     0
 45
0.0
  0
VISUALSTYLE
  5
32
102
{ACAD_REACTORS
330
2A
102
}
102
{ACAD_XDICTIONARY
360
75
102
}
330
2A
100
AcDbVisualStyle
  2
Basic
 70
     7
 71
     1
 72
     0
 73
     1
 90
        0
 40
-0.6
 41
-30.0
 62
     5
 63
     7
421
 16777215
 74
     0
 91
        4
 64
     7
 65
   257
 75
     1
175
     1
 42
1.0
 92
        8
 66
     7
 43
1.0
 76
     1
 77
     6
 78
     2
 67
     7
 79
     5
170
     0
171
     0
290
     0
174
     0
 93
        1
 44
0.0
173
     0
291
     1
 45
0.0
  0
VISUALSTYLE
  5
36
102
{ACAD_REACTORS
330
2A
102
}
102
{ACAD_XDICTIONARY
360
7D
102
}
330
2A
100
AcDbVisualStyle
  2
Brighten
 70
    12
 71
     2
 72
     2
 73
     0
 90
        0
 40
-0.6
 41
-30.0
 62
     5
 63
     7
421
 16777215
 74
     1
 91
        4
 64
     7
 65
   257
 75
     1
175
     1
 42
1.0
 92
        8
 66
     7
 43
1.0
 76
     1
 77
     6
 78
     2
 67
     7
 79
     5
170
     0
171
     0
290
     0
174
     0
 93
        1
 44
50.0
173
     0
291
     1
 45
0.0
  0
VISUALSTYLE
  5
3A
102
{ACAD_REACTORS
330
2A
102
}
102
{ACAD_XDICTIONARY
360
85
102
}
330
2A
100
AcDbVisualStyle
  2
ColorChange
 70
    16
 71
     2
 72
     2
 73
     3
 90
        0
 40
-0.6
 41
-30.0
 62
     5
 63
     8
421
  8421504
 74
     1
 91
        4
 64
     7
 65
   257
 75
     1
175
     1
 42
1.0
 92
        8
 66
     8
424
  8421504
 43
1.0
 76
     1
 77
     6
 78
     2
 67
     7
 79
     5
170
     0
171
     0
290
     0
174
     0
 93
        1
 44
0.0
173
     0
291
     1
 45
0.0
  0
VISUALSTYLE
  5
34
102
{ACAD_REACTORS
330
2A
102
}
102
{ACAD_XDICTIONARY
360
79
102
}
330
2A
100
AcDbVisualStyle
  2
Conceptual
 70
     9
 71
     3
 72
     2
 73
     0
 90
        0
 40
-0.6
 41
-30.0
 62
     5
 63
     7
421
 16777215
 74
     2
 91
        2
 64
     7
 65
   257
 75
     1
175
     1
 42
40.0
 92
        8
 66
     7
 43
1.0
 76
     1
 77
     6
 78
     2
 67
     7
 79
     3
170
     0
171
     0
290
     0
174
     0
 93
        1
 44
0.0
173
     0
291
     0
 45
0.0
  0
VISUALSTYLE
  5
35
102
{ACAD_REACTORS
330
2A
102
}
102
{ACAD_XDICTIONARY
360
7B
102
}
330
2A
100
AcDbVisualStyle
  2
Dim
 70
    11
 71
     2
 72
     2
 73
     0
 90
        0
 40
-0.6
 41
-30.0
 62
     5
 63
     7
421
 16777215
 74
     1
 91
        4
 64
     7
 65
   257
 75
     1
175
     1
 42
1.0
 92
        8
 66
     7
 43
1.0
 76
     1
 77
     6
 78
     2
 67
     7
 79
     5
170
     0
171
     0
290
     0
174
     0
 93
        1
 44
-50.0
173
     0
291
     1
 45
0.0
  0
VISUALSTYLE
  5
39
102
{ACAD_REACTORS
330
2A
102
}
102
{ACAD_XDICTIONARY
360
83
102
}
330
2A
100
AcDbVisualStyle
  2
Facepattern
 70
    15
 71
     2
 72
     2
 73
     0
 90
        0
 40
-0.6
 41
-30.0
 62
     5
 63
     7
421
 16777215
 74
     1
 91
        4
 64
     7
 65
   257
 75
     1
175
     1
 42
1.0
 92
        8
 66
     7
 43
1.0
 76
     1
 77
     6
 78
     2
 67
     7
 79
     5
170
     0
171
     0
290
     0
174
     0
 93
        1
 44
0.0
173
     0
291
     1
 45
0.0
  0
VISUALSTYLE
  5
2B
102
{ACAD_REACTORS
330
2A
102
}
102
{ACAD_XDICTIONARY
360
67
102
}
330
2A
100
AcDbVisualStyle
  2
Flat
 70
     0
 71
     2
 72
     1
 73
     1
 90
        2
 40
-0.6
 41
30.0
 62
     5
 63
     7
421
 16777215
 74
     0
 91
        4
 64
     7
 65
   257
 75
     1
175
     1
 42
1.0
 92
        8
 66
     7
 43
1.0
 76
     1
 77
     6
 78
     2
 67
     7
 79
     5
170
     0
171
     0
290
     0
174
     0
 93
       13
 44
0.0
173
     0
291
     1
 45
0.0
  0
VISUALSTYLE
  5
2C
102
{ACAD_REACTORS
330
2A
102
}
102
{ACAD_XDICTIONARY
360
69
102
}
330
2A
100
AcDbVisualStyle
  2
FlatWithEdges
 70
     1
 71
     2
 72
     1
 73
     1
 90
        2
 40
-0.6
 41
30.0
 62
     5
 63
     7
421
 16777215
 74
     1
 91
        4
 64
     7
 65
   257
 75
     1
175
     1
 42
1.0
 92
        0
 66
   257
 43
1.0
 76
     1
 77
     6
 78
     2
 67
     7
 79
     5
170
     0
171
     0
290
     0
174
     0
 93
       13
 44
0.0
173
     0
291
     1
 45
0.0
  0
VISUALSTYLE
  5
2D
102
{ACAD_REACTORS
330
2A
102
}
102
{ACAD_XDICTIONARY
360
6B
102
}
330
2A
100
AcDbVisualStyle
  2
Gouraud
 70
     2
 71
     2
 72
     2
 73
     1
 90
        2
 40
-0.6
 41
30.0
 62
     5
 63
     7
421
 16777215
 74
     0
 91
        4
 64
     7
 65
   257
 75
     1
175
     1
 42
1.0
 92
        0
 66
     7
 43
1.0
 76
     1
 77
     6
 78
     2
 67
     7
 79
     5
170
     0
171
     0
290
     0
174
     0
 93
       13
 44
0.0
173
     0
291
     1
 45
0.0
  0
VISUALSTYLE
  5
2E
102
{ACAD_REACTORS
330
2A
102
}
102
{ACAD_XDICTIONARY
360
6D
102
}
330
2A
100
AcDbVisualStyle
  2
GouraudWithEdges
 70
     3
 71
     2
 72
     2
 73
     1
 90
        2
 40
-0.6
 41
30.0
 62
     5
 63
     7
421
 16777215
 74
     1
 91
        4
 64
     7
 65
   257
 75
     1
175
     1
 42
1.0
 92
        0
 66
   257
 43
1.0
 76
     1
 77
     6
 78
     2
 67
     7
 79
     5
170
     0
171
     0
290
     0
174
     0
 93
       13
 44
0.0
173
     0
291
     1
 45
0.0
  0
VISUALSTYLE
  5
38
102
{ACAD_REACTORS
330
2A
102
}
102
{ACAD_XDICTIONARY
360
81
102
}
330
2A
100
AcDbVisualStyle
  2
Linepattern
 70
    14
 71
     2
 72
     2
 73
     0
 90
        0
 40
-0.6
 41
-30.0
 62
     5
 63
     7
421
 16777215
 74
     1
 91
        4
 64
     7
 65
   257
 75
     7
175
     7
 42
1.0
 92
        8
 66
     7
 43
1.0
 76
     1
 77
     6
 78
     2
 67
     7
 79
     5
170
     0
171
     0
290
     0
174
     0
 93
        1
 44
0.0
173
     0
291
     1
 45
0.0
  0
VISUALSTYLE
  5
33
102
{ACAD_REACTORS
330
2A
102
}
102
{ACAD_XDICTIONARY
360
77
102
}
330
2A
100
AcDbVisualStyle
  2
Realistic
 70
     8
 71
     2
 72
     2
 73
     0
 90
        0
 40
-0.6
 41
-30.0
 62
     5
 63
     7
421
 16777215
 74
     1
 91
        0
 64
     7
 65
   257
 75
     1
175
     1
 42
1.0
 92
        8
 66
     8
424
  7895160
 43
1.0
 76
     1
 77
     6
 78
     2
 67
     7
 79
     5
170
     0
171
     0
290
     0
174
     0
 93
       13
 44
0.0
173
     0
291
     0
 45
0.0
  0
VISUALSTYLE
  5
37
102
{ACAD_REACTORS
330
2A
102
}
102
{ACAD_XDICTIONARY
360
7F
102
}
330
2A
100
AcDbVisualStyle
  2
Thicken
 70
    13
 71
     2
 72
     2
 73
     0
 90
        0
 40
-0.6
 41
-30.0
 62
     5
 63
     7
421
 16777215
 74
     1
 91
        4
 64
     7
 65
   257
 75
     1
175
     1
 42
1.0
 92
       12
 66
     7
 43
1.0
 76
     1
 77
     6
 78
     2
 67
     7
 79
     5
170
     0
171
     0
290
     0
174
     0
 93
        1
 44
0.0
173
     0
291
     1
 45
0.0
  0
DICTIONARY
  5
6F
330
2F
100
AcDbDictionary
280
     1
281
     1
  3
ACAD_XREC_ROUNDTRIP
360
70
  0
DICTIONARY
  5
73
330
31
100
AcDbDictionary
280
     1
281
     1
  3
ACAD_XREC_ROUNDTRIP
360
74
  0
DICTIONARY
  5
71
330
30
100
AcDbDictionary
280
     1
281
     1
  3
ACAD_XREC_ROUNDTRIP
360
72
  0
DICTIONARY
  5
75
330
32
100
AcDbDictionary
280
     1
281
     1
  3
ACAD_XREC_ROUNDTRIP
360
76
  0
DICTIONARY
  5
7D
330
36
100
AcDbDictionary
280
     1
281
     1
  3
ACAD_XREC_ROUNDTRIP
360
7E
  0
DICTIONARY
  5
85
330
3A
100
AcDbDictionary
280
     1
281
     1
  3
ACAD_XREC_ROUNDTRIP
360
86
  0
DICTIONARY
  5
79
330
34
100
AcDbDictionary
280
     1
281
     1
  3
ACAD_XREC_ROUNDTRIP
360
7A
  0
DICTIONARY
  5
7B
330
35
100
AcDbDictionary
280
     1
281
     1
  3
ACAD_XREC_ROUNDTRIP
360
7C
  0
DICTIONARY
  5
83
330
39
100
AcDbDictionary
280
     1
281
     1
  3
ACAD_XREC_ROUNDTRIP
360
84
  0
DICTIONARY
  5
67
330
2B
100
AcDbDictionary
280
     1
281
     1
  3
ACAD_XREC_ROUNDTRIP
360
68
  0
DICTIONARY
  5
69
330
2C
100
AcDbDictionary
280
     1
281
     1
  3
ACAD_XREC_ROUNDTRIP
360
6A
  0
DICTIONARY
  5
6B
330
2D
100
AcDbDictionary
280
     1
281
     1
  3
ACAD_XREC_ROUNDTRIP
360
6C
  0
DICTIONARY
  5
6D
330
2E
100
AcDbDictionary
280
     1
281
     1
  3
ACAD_XREC_ROUNDTRIP
360
6E
  0
DICTIONARY
  5
81
330
38
100
AcDbDictionary
280
     1
281
     1
  3
ACAD_XREC_ROUNDTRIP
360
82
  0
DICTIONARY
  5
77
330
33
100
AcDbDictionary
280
     1
281
     1
  3
ACAD_XREC_ROUNDTRIP
360
78
  0
DICTIONARY
  5
7F
330
37
100
AcDbDictionary
280
     1
281
     1
  3
ACAD_XREC_ROUNDTRIP
360
80
  0
XRECORD
  5
70
102
{ACAD_REACTORS
330
6F
102
}
330
6F
100
AcDbXrecord
280
     1
102
RTVSPropertyOp0
 70
     1
102
RTVSPropertyOp1
 70
     1
102
RTVSPropertyOp2
 70
     1
102
RTVSPropertyOp3
 70
     1
102
RTVSPropertyOp4
 70
     1
102
RTVSPropertyOp5
 70
     1
102
RTVSPropertyOp6
 70
     1
102
RTVSPropertyOp7
 70
     1
102
RTVSPropertyOp8
 70
     1
102
RTVSPropertyOp9
 70
     1
102
RTVSPropertyOp10
 70
     1
102
RTVSPropertyOp11
 70
     1
102
RTVSPropertyOp12
 70
     1
102
RTVSPropertyOp13
 70
     1
102
RTVSPropertyOp14
 70
     1
102
RTVSPropertyOp15
 70
     1
102
RTVSPropertyOp16
 70
     1
102
RTVSPropertyOp17
 70
     1
102
RTVSPropertyOp18
 70
     1
102
RTVSPropertyOp19
 70
     1
102
RTVSPropertyOp20
 70
     1
102
RTVSPropertyOp21
 70
     1
102
RTVSPropertyOp22
 70
     1
102
RTVSPropertyOp23
 70
     1
102
RTVSPropertyOp24
 70
     1
102
RTVSPropertyOp25
 70
     1
102
RTVSPropertyOp26
 70
     1
102
RTVSPropertyOp27
 70
     1
102
RTVSPropertyOp28
 70
     1
102
RTVSPropertyOp29
 70
     1
102
RTVSPropertyOp30
 70
     1
102
RTVSPropertyOp31
 70
     1
102
RTVSPropertyOp32
 70
     1
  0
XRECORD
  5
74
102
{ACAD_REACTORS
330
73
102
}
330
73
100
AcDbXrecord
280
     1
102
RTVSPropertyOp0
 70
     1
102
RTVSPropertyOp1
 70
     1
102
RTVSPropertyOp2
 70
     1
102
RTVSPropertyOp3
 70
     1
102
RTVSPropertyOp4
 70
     1
102
RTVSPropertyOp5
 70
     1
102
RTVSPropertyOp6
 70
     1
102
RTVSPropertyOp7
 70
     1
102
RTVSPropertyOp8
 70
     1
102
RTVSPropertyOp9
 70
     1
102
RTVSPropertyOp10
 70
     1
102
RTVSPropertyOp11
 70
     1
102
RTVSPropertyOp12
 70
     1
102
RTVSPropertyOp13
 70
     1
102
RTVSPropertyOp14
 70
     1
102
RTVSPropertyOp15
 70
     1
102
RTVSPropertyOp16
 70
     1
102
RTVSPropertyOp17
 70
     1
102
RTVSPropertyOp18
 70
     1
102
RTVSPropertyOp19
 70
     1
102
RTVSPropertyOp20
 70
     1
102
RTVSPropertyOp21
 70
     1
102
RTVSPropertyOp22
 70
     1
102
RTVSPropertyOp23
 70
     1
102
RTVSPropertyOp24
 70
     1
102
RTVSPropertyOp25
 70
     1
102
RTVSPropertyOp26
 70
     1
102
RTVSPropertyOp27
 70
     1
102
RTVSPropertyOp28
 70
     1
102
RTVSPropertyOp29
 70
     1
102
RTVSPropertyOp30
 70
     1
102
RTVSPropertyOp31
 70
     1
102
RTVSPropertyOp32
 70
     1
  0
XRECORD
  5
72
102
{ACAD_REACTORS
330
71
102
}
330
71
100
AcDbXrecord
280
     1
102
RTVSPropertyOp0
 70
     1
102
RTVSPropertyOp1
 70
     1
102
RTVSPropertyOp2
 70
     1
102
RTVSPropertyOp3
 70
     1
102
RTVSPropertyOp4
 70
     1
102
RTVSPropertyOp5
 70
     1
102
RTVSPropertyOp6
 70
     1
102
RTVSPropertyOp7
 70
     1
102
RTVSPropertyOp8
 70
     1
102
RTVSPropertyOp9
 70
     1
102
RTVSPropertyOp10
 70
     1
102
RTVSPropertyOp11
 70
     1
102
RTVSPropertyOp12
 70
     1
102
RTVSPropertyOp13
 70
     1
102
RTVSPropertyOp14
 70
     1
102
RTVSPropertyOp15
 70
     1
102
RTVSPropertyOp16
 70
     1
102
RTVSPropertyOp17
 70
     1
102
RTVSPropertyOp18
 70
     1
102
RTVSPropertyOp19
 70
     1
102
RTVSPropertyOp20
 70
     1
102
RTVSPropertyOp21
 70
     1
102
RTVSPropertyOp22
 70
     1
102
RTVSPropertyOp23
 70
     1
102
RTVSPropertyOp24
 70
     1
102
RTVSPropertyOp25
 70
     1
102
RTVSPropertyOp26
 70
     1
102
RTVSPropertyOp27
 70
     1
102
RTVSPropertyOp28
 70
     1
102
RTVSPropertyOp29
 70
     1
102
RTVSPropertyOp30
 70
     1
102
RTVSPropertyOp31
 70
     1
102
RTVSPropertyOp32
 70
     1
  0
XRECORD
  5
76
102
{ACAD_REACTORS
330
75
102
}
330
75
100
AcDbXrecord
280
     1
102
RTVSPropertyOp0
 70
     1
102
RTVSPropertyOp1
 70
     1
102
RTVSPropertyOp2
 70
     1
102
RTVSPropertyOp3
 70
     1
102
RTVSPropertyOp4
 70
     1
102
RTVSPropertyOp5
 70
     1
102
RTVSPropertyOp6
 70
     1
102
RTVSPropertyOp7
 70
     1
102
RTVSPropertyOp8
 70
     1
102
RTVSPropertyOp9
 70
     1
102
RTVSPropertyOp10
 70
     1
102
RTVSPropertyOp11
 70
     1
102
RTVSPropertyOp12
 70
     1
102
RTVSPropertyOp13
 70
     1
102
RTVSPropertyOp14
 70
     1
102
RTVSPropertyOp15
 70
     1
102
RTVSPropertyOp16
 70
     1
102
RTVSPropertyOp17
 70
     1
102
RTVSPropertyOp18
 70
     1
102
RTVSPropertyOp19
 70
     1
102
RTVSPropertyOp20
 70
     1
102
RTVSPropertyOp21
 70
     1
102
RTVSPropertyOp22
 70
     1
102
RTVSPropertyOp23
 70
     1
102
RTVSPropertyOp24
 70
     1
102
RTVSPropertyOp25
 70
     1
102
RTVSPropertyOp26
 70
     1
102
RTVSPropertyOp27
 70
     1
102
RTVSPropertyOp28
 70
     1
102
RTVSPropertyOp29
 70
     1
102
RTVSPropertyOp30
 70
     1
102
RTVSPropertyOp31
 70
     1
102
RTVSPropertyOp32
 70
     1
  0
XRECORD
  5
7E
102
{ACAD_REACTORS
330
7D
102
}
330
7D
100
AcDbXrecord
280
     1
102
RTVSPropertyOp0
 70
     1
102
RTVSPropertyOp1
 70
     1
102
RTVSPropertyOp2
 70
     1
102
RTVSPropertyOp3
 70
     1
102
RTVSPropertyOp4
 70
     1
102
RTVSPropertyOp5
 70
     1
102
RTVSPropertyOp6
 70
     1
102
RTVSPropertyOp7
 70
     1
102
RTVSPropertyOp8
 70
     1
102
RTVSPropertyOp9
 70
     1
102
RTVSPropertyOp10
 70
     1
102
RTVSPropertyOp11
 70
     1
102
RTVSPropertyOp12
 70
     1
102
RTVSPropertyOp13
 70
     1
102
RTVSPropertyOp14
 70
     1
102
RTVSPropertyOp15
 70
     1
102
RTVSPropertyOp16
 70
     1
102
RTVSPropertyOp17
 70
     1
102
RTVSPropertyOp18
 70
     1
102
RTVSPropertyOp19
 70
     1
102
RTVSPropertyOp20
 70
     1
102
RTVSPropertyOp21
 70
     1
102
RTVSPropertyOp22
 70
     1
102
RTVSPropertyOp23
 70
     1
102
RTVSPropertyOp24
 70
     1
102
RTVSPropertyOp25
 70
     1
102
RTVSPropertyOp26
 70
     1
102
RTVSPropertyOp27
 70
     1
102
RTVSPropertyOp28
 70
     1
102
RTVSPropertyOp29
 70
     1
102
RTVSPropertyOp30
 70
     1
102
RTVSPropertyOp31
 70
     1
102
RTVSPropertyOp32
 70
     1
  0
XRECORD
  5
86
102
{ACAD_REACTORS
330
85
102
}
330
85
100
AcDbXrecord
280
     1
102
RTVSPropertyOp0
 70
     1
102
RTVSPropertyOp1
 70
     1
102
RTVSPropertyOp2
 70
     1
102
RTVSPropertyOp3
 70
     1
102
RTVSPropertyOp4
 70
     1
102
RTVSPropertyOp5
 70
     1
102
RTVSPropertyOp6
 70
     1
102
RTVSPropertyOp7
 70
     1
102
RTVSPropertyOp8
 70
     1
102
RTVSPropertyOp9
 70
     1
102
RTVSPropertyOp10
 70
     1
102
RTVSPropertyOp11
 70
     1
102
RTVSPropertyOp12
 70
     1
102
RTVSPropertyOp13
 70
     1
102
RTVSPropertyOp14
 70
     1
102
RTVSPropertyOp15
 70
     1
102
RTVSPropertyOp16
 70
     1
102
RTVSPropertyOp17
 70
     1
102
RTVSPropertyOp18
 70
     1
102
RTVSPropertyOp19
 70
     1
102
RTVSPropertyOp20
 70
     1
102
RTVSPropertyOp21
 70
     1
102
RTVSPropertyOp22
 70
     1
102
RTVSPropertyOp23
 70
     1
102
RTVSPropertyOp24
 70
     1
102
RTVSPropertyOp25
 70
     1
102
RTVSPropertyOp26
 70
     1
102
RTVSPropertyOp27
 70
     1
102
RTVSPropertyOp28
 70
     1
102
RTVSPropertyOp29
 70
     1
102
RTVSPropertyOp30
 70
     1
102
RTVSPropertyOp31
 70
     1
102
RTVSPropertyOp32
 70
     1
  0
XRECORD
  5
7A
102
{ACAD_REACTORS
330
79
102
}
330
79
100
AcDbXrecord
280
     1
102
RTVSPropertyOp0
 70
     1
102
RTVSPropertyOp1
 70
     1
102
RTVSPropertyOp2
 70
     1
102
RTVSPropertyOp3
 70
     1
102
RTVSPropertyOp4
 70
     1
102
RTVSPropertyOp5
 70
     1
102
RTVSPropertyOp6
 70
     1
102
RTVSPropertyOp7
 70
     1
102
RTVSPropertyOp8
 70
     1
102
RTVSPropertyOp9
 70
     1
102
RTVSPropertyOp10
 70
     1
102
RTVSPropertyOp11
 70
     1
102
RTVSPropertyOp12
 70
     1
102
RTVSPropertyOp13
 70
     1
102
RTVSPropertyOp14
 70
     1
102
RTVSPropertyOp15
 70
     1
102
RTVSPropertyOp16
 70
     1
102
RTVSPropertyOp17
 70
     1
102
RTVSPropertyOp18
 70
     1
102
RTVSPropertyOp19
 70
     1
102
RTVSPropertyOp20
 70
     1
102
RTVSPropertyOp21
 70
     1
102
RTVSPropertyOp22
 70
     1
102
RTVSPropertyOp23
 70
     1
102
RTVSPropertyOp24
 70
     1
102
RTVSPropertyOp25
 70
     1
102
RTVSPropertyOp26
 70
     1
102
RTVSPropertyOp27
 70
     1
102
RTVSPropertyOp28
 70
     1
102
RTVSPropertyOp29
 70
     1
102
RTVSPropertyOp30
 70
     1
102
RTVSPropertyOp31
 70
     1
102
RTVSPropertyOp32
 70
     1
  0
XRECORD
  5
7C
102
{ACAD_REACTORS
330
7B
102
}
330
7B
100
AcDbXrecord
280
     1
102
RTVSPropertyOp0
 70
     1
102
RTVSPropertyOp1
 70
     1
102
RTVSPropertyOp2
 70
     1
102
RTVSPropertyOp3
 70
     1
102
RTVSPropertyOp4
 70
     1
102
RTVSPropertyOp5
 70
     1
102
RTVSPropertyOp6
 70
     1
102
RTVSPropertyOp7
 70
     1
102
RTVSPropertyOp8
 70
     1
102
RTVSPropertyOp9
 70
     1
102
RTVSPropertyOp10
 70
     1
102
RTVSPropertyOp11
 70
     1
102
RTVSPropertyOp12
 70
     1
102
RTVSPropertyOp13
 70
     1
102
RTVSPropertyOp14
 70
     1
102
RTVSPropertyOp15
 70
     1
102
RTVSPropertyOp16
 70
     1
102
RTVSPropertyOp17
 70
     1
102
RTVSPropertyOp18
 70
     1
102
RTVSPropertyOp19
 70
     1
102
RTVSPropertyOp20
 70
     1
102
RTVSPropertyOp21
 70
     1
102
RTVSPropertyOp22
 70
     1
102
RTVSPropertyOp23
 70
     1
102
RTVSPropertyOp24
 70
     1
102
RTVSPropertyOp25
 70
     1
102
RTVSPropertyOp26
 70
     1
102
RTVSPropertyOp27
 70
     1
102
RTVSPropertyOp28
 70
     1
102
RTVSPropertyOp29
 70
     1
102
RTVSPropertyOp30
 70
     1
102
RTVSPropertyOp31
 70
     1
102
RTVSPropertyOp32
 70
     1
  0
XRECORD
  5
84
102
{ACAD_REACTORS
330
83
102
}
330
83
100
AcDbXrecord
280
     1
102
RTVSPropertyOp0
 70
     1
102
RTVSPropertyOp1
 70
     1
102
RTVSPropertyOp2
 70
     1
102
RTVSPropertyOp3
 70
     1
102
RTVSPropertyOp4
 70
     1
102
RTVSPropertyOp5
 70
     1
102
RTVSPropertyOp6
 70
     1
102
RTVSPropertyOp7
 70
     1
102
RTVSPropertyOp8
 70
     1
102
RTVSPropertyOp9
 70
     1
102
RTVSPropertyOp10
 70
     1
102
RTVSPropertyOp11
 70
     1
102
RTVSPropertyOp12
 70
     1
102
RTVSPropertyOp13
 70
     1
102
RTVSPropertyOp14
 70
     1
102
RTVSPropertyOp15
 70
     1
102
RTVSPropertyOp16
 70
     1
102
RTVSPropertyOp17
 70
     1
102
RTVSPropertyOp18
 70
     1
102
RTVSPropertyOp19
 70
     1
102
RTVSPropertyOp20
 70
     1
102
RTVSPropertyOp21
 70
     1
102
RTVSPropertyOp22
 70
     1
102
RTVSPropertyOp23
 70
     1
102
RTVSPropertyOp24
 70
     1
102
RTVSPropertyOp25
 70
     1
102
RTVSPropertyOp26
 70
     1
102
RTVSPropertyOp27
 70
     1
102
RTVSPropertyOp28
 70
     1
102
RTVSPropertyOp29
 70
     1
102
RTVSPropertyOp30
 70
     1
102
RTVSPropertyOp31
 70
     1
102
RTVSPropertyOp32
 70
     1
  0
XRECORD
  5
68
102
{ACAD_REACTORS
330
67
102
}
330
67
100
AcDbXrecord
280
     1
102
RTVSPropertyOp0
 70
     1
102
RTVSPropertyOp1
 70
     1
102
RTVSPropertyOp2
 70
     1
102
RTVSPropertyOp3
 70
     1
102
RTVSPropertyOp4
 70
     1
102
RTVSPropertyOp5
 70
     1
102
RTVSPropertyOp6
 70
     1
102
RTVSPropertyOp7
 70
     1
102
RTVSPropertyOp8
 70
     1
102
RTVSPropertyOp9
 70
     1
102
RTVSPropertyOp10
 70
     1
102
RTVSPropertyOp11
 70
     1
102
RTVSPropertyOp12
 70
     1
102
RTVSPropertyOp13
 70
     1
102
RTVSPropertyOp14
 70
     1
102
RTVSPropertyOp15
 70
     1
102
RTVSPropertyOp16
 70
     1
102
RTVSPropertyOp17
 70
     1
102
RTVSPropertyOp18
 70
     1
102
RTVSPropertyOp19
 70
     1
102
RTVSPropertyOp20
 70
     1
102
RTVSPropertyOp21
 70
     1
102
RTVSPropertyOp22
 70
     1
102
RTVSPropertyOp23
 70
     1
102
RTVSPropertyOp24
 70
     1
102
RTVSPropertyOp25
 70
     1
102
RTVSPropertyOp26
 70
     1
102
RTVSPropertyOp27
 70
     1
102
RTVSPropertyOp28
 70
     1
102
RTVSPropertyOp29
 70
     1
102
RTVSPropertyOp30
 70
     1
102
RTVSPropertyOp31
 70
     1
102
RTVSPropertyOp32
 70
     1
  0
XRECORD
  5
6A
102
{ACAD_REACTORS
330
69
102
}
330
69
100
AcDbXrecord
280
     1
102
RTVSPropertyOp0
 70
     1
102
RTVSPropertyOp1
 70
     1
102
RTVSPropertyOp2
 70
     1
102
RTVSPropertyOp3
 70
     1
102
RTVSPropertyOp4
 70
     1
102
RTVSPropertyOp5
 70
     1
102
RTVSPropertyOp6
 70
     1
102
RTVSPropertyOp7
 70
     1
102
RTVSPropertyOp8
 70
     1
102
RTVSPropertyOp9
 70
     1
102
RTVSPropertyOp10
 70
     1
102
RTVSPropertyOp11
 70
     1
102
RTVSPropertyOp12
 70
     1
102
RTVSPropertyOp13
 70
     1
102
RTVSPropertyOp14
 70
     1
102
RTVSPropertyOp15
 70
     1
102
RTVSPropertyOp16
 70
     1
102
RTVSPropertyOp17
 70
     1
102
RTVSPropertyOp18
 70
     1
102
RTVSPropertyOp19
 70
     1
102
RTVSPropertyOp20
 70
     1
102
RTVSPropertyOp21
 70
     1
102
RTVSPropertyOp22
 70
     1
102
RTVSPropertyOp23
 70
     1
102
RTVSPropertyOp24
 70
     1
102
RTVSPropertyOp25
 70
     1
102
RTVSPropertyOp26
 70
     1
102
RTVSPropertyOp27
 70
     1
102
RTVSPropertyOp28
 70
     1
102
RTVSPropertyOp29
 70
     1
102
RTVSPropertyOp30
 70
     1
102
RTVSPropertyOp31
 70
     1
102
RTVSPropertyOp32
 70
     1
  0
XRECORD
  5
6C
102
{ACAD_REACTORS
330
6B
102
}
330
6B
100
AcDbXrecord
280
     1
102
RTVSPropertyOp0
 70
     1
102
RTVSPropertyOp1
 70
     1
102
RTVSPropertyOp2
 70
     1
102
RTVSPropertyOp3
 70
     1
102
RTVSPropertyOp4
 70
     1
102
RTVSPropertyOp5
 70
     1
102
RTVSPropertyOp6
 70
     1
102
RTVSPropertyOp7
 70
     1
102
RTVSPropertyOp8
 70
     1
102
RTVSPropertyOp9
 70
     1
102
RTVSPropertyOp10
 70
     1
102
RTVSPropertyOp11
 70
     1
102
RTVSPropertyOp12
 70
     1
102
RTVSPropertyOp13
 70
     1
102
RTVSPropertyOp14
 70
     1
102
RTVSPropertyOp15
 70
     1
102
RTVSPropertyOp16
 70
     1
102
RTVSPropertyOp17
 70
     1
102
RTVSPropertyOp18
 70
     1
102
RTVSPropertyOp19
 70
     1
102
RTVSPropertyOp20
 70
     1
102
RTVSPropertyOp21
 70
     1
102
RTVSPropertyOp22
 70
     1
102
RTVSPropertyOp23
 70
     1
102
RTVSPropertyOp24
 70
     1
102
RTVSPropertyOp25
 70
     1
102
RTVSPropertyOp26
 70
     1
102
RTVSPropertyOp27
 70
     1
102
RTVSPropertyOp28
 70
     1
102
RTVSPropertyOp29
 70
     1
102
RTVSPropertyOp30
 70
     1
102
RTVSPropertyOp31
 70
     1
102
RTVSPropertyOp32
 70
     1
  0
XRECORD
  5
6E
102
{ACAD_REACTORS
330
6D
102
}
330
6D
100
AcDbXrecord
280
     1
102
RTVSPropertyOp0
 70
     1
102
RTVSPropertyOp1
 70
     1
102
RTVSPropertyOp2
 70
     1
102
RTVSPropertyOp3
 70
     1
102
RTVSPropertyOp4
 70
     1
102
RTVSPropertyOp5
 70
     1
102
RTVSPropertyOp6
 70
     1
102
RTVSPropertyOp7
 70
     1
102
RTVSPropertyOp8
 70
     1
102
RTVSPropertyOp9
 70
     1
102
RTVSPropertyOp10
 70
     1
102
RTVSPropertyOp11
 70
     1
102
RTVSPropertyOp12
 70
     1
102
RTVSPropertyOp13
 70
     1
102
RTVSPropertyOp14
 70
     1
102
RTVSPropertyOp15
 70
     1
102
RTVSPropertyOp16
 70
     1
102
RTVSPropertyOp17
 70
     1
102
RTVSPropertyOp18
 70
     1
102
RTVSPropertyOp19
 70
     1
102
RTVSPropertyOp20
 70
     1
102
RTVSPropertyOp21
 70
     1
102
RTVSPropertyOp22
 70
     1
102
RTVSPropertyOp23
 70
     1
102
RTVSPropertyOp24
 70
     1
102
RTVSPropertyOp25
 70
     1
102
RTVSPropertyOp26
 70
     1
102
RTVSPropertyOp27
 70
     1
102
RTVSPropertyOp28
 70
     1
102
RTVSPropertyOp29
 70
     1
102
RTVSPropertyOp30
 70
     1
102
RTVSPropertyOp31
 70
     1
102
RTVSPropertyOp32
 70
     1
  0
XRECORD
  5
82
102
{ACAD_REACTORS
330
81
102
}
330
81
100
AcDbXrecord
280
     1
102
RTVSPropertyOp0
 70
     1
102
RTVSPropertyOp1
 70
     1
102
RTVSPropertyOp2
 70
     1
102
RTVSPropertyOp3
 70
     1
102
RTVSPropertyOp4
 70
     1
102
RTVSPropertyOp5
 70
     1
102
RTVSPropertyOp6
 70
     1
102
RTVSPropertyOp7
 70
     1
102
RTVSPropertyOp8
 70
     1
102
RTVSPropertyOp9
 70
     1
102
RTVSPropertyOp10
 70
     1
102
RTVSPropertyOp11
 70
     1
102
RTVSPropertyOp12
 70
     1
102
RTVSPropertyOp13
 70
     1
102
RTVSPropertyOp14
 70
     1
102
RTVSPropertyOp15
 70
     1
102
RTVSPropertyOp16
 70
     1
102
RTVSPropertyOp17
 70
     1
102
RTVSPropertyOp18
 70
     1
102
RTVSPropertyOp19
 70
     1
102
RTVSPropertyOp20
 70
     1
102
RTVSPropertyOp21
 70
     1
102
RTVSPropertyOp22
 70
     1
102
RTVSPropertyOp23
 70
     1
102
RTVSPropertyOp24
 70
     1
102
RTVSPropertyOp25
 70
     1
102
RTVSPropertyOp26
 70
     1
102
RTVSPropertyOp27
 70
     1
102
RTVSPropertyOp28
 70
     1
102
RTVSPropertyOp29
 70
     1
102
RTVSPropertyOp30
 70
     1
102
RTVSPropertyOp31
 70
     1
102
RTVSPropertyOp32
 70
     1
  0
XRECORD
  5
78
102
{ACAD_REACTORS
330
77
102
}
330
77
100
AcDbXrecord
280
     1
102
RTVSPropertyOp0
 70
     1
102
RTVSPropertyOp1
 70
     1
102
RTVSPropertyOp2
 70
     1
102
RTVSPropertyOp3
 70
     1
102
RTVSPropertyOp4
 70
     1
102
RTVSPropertyOp5
 70
     1
102
RTVSPropertyOp6
 70
     1
102
RTVSPropertyOp7
 70
     1
102
RTVSPropertyOp8
 70
     1
102
RTVSPropertyOp9
 70
     1
102
RTVSPropertyOp10
 70
     1
102
RTVSPropertyOp11
 70
     1
102
RTVSPropertyOp12
 70
     1
102
RTVSPropertyOp13
 70
     1
102
RTVSPropertyOp14
 70
     1
102
RTVSPropertyOp15
 70
     1
102
RTVSPropertyOp16
 70
     1
102
RTVSPropertyOp17
 70
     1
102
RTVSPropertyOp18
 70
     1
102
RTVSPropertyOp19
 70
     1
102
RTVSPropertyOp20
 70
     1
102
RTVSPropertyOp21
 70
     1
102
RTVSPropertyOp22
 70
     1
102
RTVSPropertyOp23
 70
     1
102
RTVSPropertyOp24
 70
     1
102
RTVSPropertyOp25
 70
     1
102
RTVSPropertyOp26
 70
     1
102
RTVSPropertyOp27
 70
     1
102
RTVSPropertyOp28
 70
     1
102
RTVSPropertyOp29
 70
     1
102
RTVSPropertyOp30
 70
     1
102
RTVSPropertyOp31
 70
     1
102
RTVSPropertyOp32
 70
     1
  0
XRECORD
  5
80
102
{ACAD_REACTORS
330
7F
102
}
330
7F
100
AcDbXrecord
280
     1
102
RTVSPropertyOp0
 70
     1
102
RTVSPropertyOp1
 70
     1
102
RTVSPropertyOp2
 70
     1
102
RTVSPropertyOp3
 70
     1
102
RTVSPropertyOp4
 70
     1
102
RTVSPropertyOp5
 70
     1
102
RTVSPropertyOp6
 70
     1
102
RTVSPropertyOp7
 70
     1
102
RTVSPropertyOp8
 70
     1
102
RTVSPropertyOp9
 70
     1
102
RTVSPropertyOp10
 70
     1
102
RTVSPropertyOp11
 70
     1
102
RTVSPropertyOp12
 70
     1
102
RTVSPropertyOp13
 70
     1
102
RTVSPropertyOp14
 70
     1
102
RTVSPropertyOp15
 70
     1
102
RTVSPropertyOp16
 70
     1
102
RTVSPropertyOp17
 70
     1
102
RTVSPropertyOp18
 70
     1
102
RTVSPropertyOp19
 70
     1
102
RTVSPropertyOp20
 70
     1
102
RTVSPropertyOp21
 70
     1
102
RTVSPropertyOp22
 70
     1
102
RTVSPropertyOp23
 70
     1
102
RTVSPropertyOp24
 70
     1
102
RTVSPropertyOp25
 70
     1
102
RTVSPropertyOp26
 70
     1
102
RTVSPropertyOp27
 70
     1
102
RTVSPropertyOp28
 70
     1
102
RTVSPropertyOp29
 70
     1
102
RTVSPropertyOp30
 70
     1
102
RTVSPropertyOp31
 70
     1
102
RTVSPropertyOp32
 70
     1
  0
ENDSEC
  0
EOF
