<?xml version="1.0" encoding="UTF-8"?>
<!DOCTYPE svg PUBLIC "-//W3C//DTD SVG 1.1//EN" "http://www.w3.org/Graphics/SVG/1.1/DTD/svg11.dtd">
<!-- Creator: CorelDRAW X6 -->
<svg xmlns="http://www.w3.org/2000/svg" xml:space="preserve" width="200mm" height="200mm" version="1.1" shape-rendering="geometricPrecision" text-rendering="geometricPrecision" image-rendering="optimizeQuality" fill-rule="evenodd" clip-rule="evenodd"
viewBox="0 0 20000 20000"
 xmlns:xlink="http://www.w3.org/1999/xlink">
 <g id="Layer_x0020_1">
  <metadata id="CorelCorpID_0Corel-Layer"/>
  <g id="_865337920">
   <circle fill="none" stroke="black" stroke-width="52.92" stroke-linecap="round" stroke-linejoin="round" transform="matrix(1.6266E-014 -0.614169 0.614169 1.6266E-014 -0.05 20000)" r="529"/>
   <circle fill="none" stroke="black" stroke-width="52.92" stroke-linecap="round" stroke-linejoin="round" transform="matrix(1.6266E-014 -0.614169 0.614169 1.6266E-014 1499.95 20000)" r="529"/>
   <circle fill="none" stroke="black" stroke-width="52.92" stroke-linecap="round" stroke-linejoin="round" transform="matrix(1.6266E-014 -0.614169 0.614169 1.6266E-014 -1500.05 19999.9)" r="529"/>
   <path fill="none" fill-rule="nonzero" stroke="blue" stroke-width="52.92" stroke-linecap="round" stroke-linejoin="round" d="M769 17660c-70,191 66,367 58,573 0,3 0,6 0,10 5,24 6,176 8,202"/>
   <path fill="none" fill-rule="nonzero" stroke="blue" stroke-width="52.92" stroke-linecap="round" stroke-linejoin="round" d="M-894 18544c-11,-167 37,-319 61,-479 23,-156 -44,-295 -118,-413"/>
   <path fill="none" stroke="black" stroke-width="52.92" stroke-linecap="round" stroke-linejoin="round" d="M1700 20700l-3400 0c-276,0 -500,-224 -500,-500l0 -400c0,-276 224,-500 500,-500l1213 0 0 -185c-14,-7 -28,-15 -42,-23 -204,-122 -365,-386 -382,-634 -81,-68 -136,-100 -237,-40 -231,139 -61,425 124,503 -278,236 -686,29 -677,-324 4,-169 71,-316 136,-468 44,-104 121,-268 37,-372 -34,-42 -97,-55 -146,-34 -107,46 -102,212 -85,304 -192,-90 -319,-417 -290,-619 32,-216 164,-441 266,-632 -53,-63 -160,-28 -213,14 -116,91 -104,271 -107,402 -151,-92 -203,-336 -202,-498 0,-172 44,-336 107,-495 119,-301 354,-657 673,-790l-38 -42c-37,12 -74,26 -109,47 15,-37 33,-74 54,-109 -62,-70 -120,-141 -153,-207 -65,-128 -151,-318 -129,-466 17,-114 79,-42 148,-5 69,37 144,62 215,96 116,56 234,107 353,157 158,-103 331,-184 491,-242 79,-29 164,-56 251,-77 59,-385 115,-770 159,-1157 4,-32 7,-63 9,-95 7,-109 15,-219 32,-326 27,-167 38,-340 46,-508 8,-163 17,-328 39,-488 1,-6 1,-14 2,-24 6,-53 34,-94 68,-34 20,34 20,80 25,117 7,51 13,103 14,154 9,476 102,957 163,1429 40,309 63,627 109,938 201,48 395,122 573,228 57,34 116,74 174,117 25,-10 51,-20 76,-30 119,-50 237,-101 353,-157 71,-34 145,-59 215,-96 69,-36 130,-109 148,5 22,147 -64,338 -129,466 -48,94 -145,199 -235,297 335,122 583,491 706,803 63,159 106,324 107,495 0,162 -51,407 -202,498 -3,-131 9,-311 -107,-402 -53,-42 -160,-77 -213,-14 101,190 234,416 266,632 30,202 -98,528 -290,619 17,-92 22,-258 -85,-304 -49,-21 -112,-8 -146,34 -84,104 -8,267 37,372 65,152 132,299 136,468 9,353 -399,561 -677,324 186,-78 356,-364 124,-503 -93,-56 -148,-33 -220,25 -12,136 -51,278 -95,382 -50,118 -142,210 -253,277l0 197 1213 0c276,0 500,224 500,500l0 400c0,276 -224,500 -500,500z"/>
   <path fill="none" fill-rule="nonzero" stroke="blue" stroke-width="52.92" stroke-linecap="round" stroke-linejoin="round" d="M-234 17036c0,-288 -195,-530 -459,-602m-496 73c-176,110 -293,306 -293,529 0,345 279,624 624,624 345,0 624,-279 624,-624"/>
   <path fill="none" fill-rule="nonzero" stroke="blue" stroke-width="52.92" stroke-linecap="round" stroke-linejoin="round" d="M-772 17163c-62,44 -145,1 -157,-72 -16,-94 116,-146 176,-76 36,42 27,115 -19,148"/>
   <path fill="none" fill-rule="nonzero" stroke="blue" stroke-width="52.92" stroke-linecap="round" stroke-linejoin="round" d="M-831 17046c-4,-14 -18,-24 -37,-19 -38,11 -25,67 15,59 18,-4 27,-24 23,-40z"/>
   <line fill="none" fill-rule="nonzero" stroke="blue" stroke-width="52.92" stroke-linecap="round" stroke-linejoin="round" x1="-453" y1="16561" x2="-329" y2= "16434" />
   <line fill="none" fill-rule="nonzero" stroke="blue" stroke-width="52.92" stroke-linecap="round" stroke-linejoin="round" x1="-1334" y1="16632" x2="-1456" y2= "16520" />
   <path fill="none" fill-rule="nonzero" stroke="blue" stroke-width="52.92" stroke-linecap="round" stroke-linejoin="round" d="M-1397 16446c73,-98 202,-164 280,-264 62,-80 121,-166 163,-257 16,-35 54,-96 13,-122 -35,-22 -129,28 -160,42 -110,49 -208,121 -309,184 -26,16 -315,148 -315,143 22,-312 159,-606 366,-858 0,0 18,-22 43,-53 -97,90 -236,84 -355,155 152,-375 601,-638 979,-775 225,-82 491,-150 733,-110 265,44 526,127 758,265 224,134 468,340 575,585 54,123 78,257 76,390 -1,68 -9,135 -22,202 -6,28 -69,182 -59,198 -96,-155 -195,-320 -269,-483 -83,97 -173,208 -278,287 -96,72 -203,131 -313,183 -72,34 -168,97 -250,91 34,-94 93,-176 112,-276 14,-75 82,-312 15,-367 -146,152 -258,327 -428,462 -149,119 -285,218 -464,294 -271,115 -604,212 -899,94 2,-4 5,-7 7,-11z"/>
   <path fill="none" fill-rule="nonzero" stroke="blue" stroke-width="52.92" stroke-linecap="round" stroke-linejoin="round" d="M1393 17036c0,-345 -279,-624 -624,-624 -345,0 -624,279 -624,624 0,345 279,624 624,624 345,0 624,-279 624,-624"/>
   <path fill="none" fill-rule="nonzero" stroke="blue" stroke-width="52.92" stroke-linecap="round" stroke-linejoin="round" d="M865 17109c-11,32 -35,60 -69,69 -72,19 -153,-60 -126,-134 23,-76 135,-90 181,-31 21,27 24,64 13,96"/>
   <path fill="none" fill-rule="nonzero" stroke="blue" stroke-width="52.92" stroke-linecap="round" stroke-linejoin="round" d="M726 17029c10,-8 25,-10 36,-3 15,10 17,33 5,46 -10,10 -26,12 -38,5 -8,-5 -13,-14 -14,-23 -1,-10 3,-19 12,-25z"/>
   <line fill="none" fill-rule="nonzero" stroke="blue" stroke-width="52.92" stroke-linecap="round" stroke-linejoin="round" x1="363" y1="16561" x2="225" y2= "16434" />
   <line fill="none" fill-rule="nonzero" stroke="blue" stroke-width="52.92" stroke-linecap="round" stroke-linejoin="round" x1="769" y1="16412" x2="774" y2= "16199" />
   <line fill="none" fill-rule="nonzero" stroke="blue" stroke-width="52.92" stroke-linecap="round" stroke-linejoin="round" x1="1201" y1="16586" x2="1376" y2= "16434" />
   <path fill="none" fill-rule="nonzero" stroke="blue" stroke-width="52.92" stroke-linecap="round" stroke-linejoin="round" d="M-841 18177c50,-107 173,-240 281,-291 115,-54 239,-2 351,32 116,35 235,40 346,-17 65,-33 141,-59 215,-57 33,1 68,9 100,18 69,20 135,53 188,102 74,68 136,164 177,254 -2,1 -3,3 -4,5"/>
   <path fill="none" fill-rule="nonzero" stroke="blue" stroke-width="52.92" stroke-linecap="round" stroke-linejoin="round" d="M232 15600c-237,-273 -488,-451 -715,-730"/>
   <path fill="none" fill-rule="nonzero" stroke="blue" stroke-width="52.92" stroke-linecap="round" stroke-linejoin="round" d="M-409 14337c169,194 349,364 525,552 61,65 114,140 186,206"/>
   <path fill="none" fill-rule="nonzero" stroke="blue" stroke-width="52.92" stroke-linecap="round" stroke-linejoin="round" d="M-337 13914c74,57 128,103 156,129 48,45 57,55 102,103 99,103 190,213 281,322"/>
   <path fill="none" fill-rule="nonzero" stroke="blue" stroke-width="52.92" stroke-linecap="round" stroke-linejoin="round" d="M-288 13547c60,51 197,208 258,270 23,23 136,140 188,180"/>
   <path fill="none" fill-rule="nonzero" stroke="blue" stroke-width="52.92" stroke-linecap="round" stroke-linejoin="round" d="M-252 13203c74,75 116,94 187,169 37,40 118,122 163,153"/>
   <path fill="none" fill-rule="nonzero" stroke="blue" stroke-width="52.92" stroke-linecap="round" stroke-linejoin="round" d="M-233 12918c106,72 186,163 284,243"/>
   <path fill="none" fill-rule="nonzero" stroke="blue" stroke-width="52.92" stroke-linecap="round" stroke-linejoin="round" d="M-206 12608c52,32 77,69 115,105 16,15 51,39 90,77"/>
   <path fill="none" fill-rule="nonzero" stroke="blue" stroke-width="52.92" stroke-linecap="round" stroke-linejoin="round" d="M-172 12270c43,34 81,102 136,165"/>
   <path fill="none" fill-rule="nonzero" stroke="blue" stroke-width="52.92" stroke-linecap="round" stroke-linejoin="round" d="M-341 18273c-44,33 -71,170 0,192 67,21 93,-64 89,-113 -2,-27 -6,-61 -31,-77 -49,-32 -67,17 -58,-2"/>
   <path fill="none" fill-rule="nonzero" stroke="blue" stroke-width="52.92" stroke-linecap="round" stroke-linejoin="round" d="M287 18273c44,33 71,170 0,192 -67,21 -93,-64 -89,-113 2,-27 6,-61 31,-77 49,-32 67,17 58,-2"/>
   <path fill="none" fill-rule="nonzero" stroke="blue" stroke-width="52.92" stroke-linecap="round" stroke-linejoin="round" d="M321 18756c0,184 -149,333 -333,333"/>
   <path fill="none" fill-rule="nonzero" stroke="blue" stroke-width="52.92" stroke-linecap="round" stroke-linejoin="round" d="M-12 19090c-184,0 -333,-149 -333,-333"/>
   <path fill="none" fill-rule="nonzero" stroke="blue" stroke-width="52.92" stroke-linecap="round" stroke-linejoin="round" d="M-443 14563c-19,122 -29,188 -47,310 -19,124 -38,247 -56,371 -10,67 -22,175 -22,175 0,0 16,77 51,116 207,239 630,274 809,-9 30,-47 67,-151 67,-151 0,0 -30,-173 -42,-250 -17,-107 -30,-212 -51,-318 -17,-86 -28,-152 -41,-239"/>
   <path fill="none" fill-rule="nonzero" stroke="blue" stroke-width="52.92" stroke-linecap="round" stroke-linejoin="round" d="M1368 16171c31,160 69,352 41,520 -10,60 -21,112 -40,174m-854 2221c-126,84 -280,134 -422,152 -135,18 -259,-8 -390,-50 -81,-26 -159,-50 -233,-94m-938 -2197c-67,-178 -59,-418 -51,-595 2,-77 1,-148 3,-221"/>
  </g>
  <circle fill="none" stroke="black" stroke-width="52.92" stroke-linecap="round" stroke-linejoin="round" transform="matrix(9.00886E-015 -0.340155 0.340155 9.00886E-015 -750.05 19999.9)" r="529"/>
  <circle fill="none" stroke="black" stroke-width="52.92" stroke-linecap="round" stroke-linejoin="round" transform="matrix(9.00886E-015 -0.340155 0.340155 9.00886E-015 749.95 19999.9)" r="529"/>
 </g>
</svg>
