  0
SECTION
  2
HEADER
  9
$ACADVER
  1
AC1021
  9
$ACADMAINTVER
 70
    25
  9
$DWGCODEPAGE
  3
ANSI_1252
  9
$INSBASE
 10
0.0
 20
0.0
 30
0.0
  9
$EXTMIN
 10
-12.33098
 20
-10.72641
 30
0.0
  9
$EXTMAX
 10
-7.76262
 20
-1.87399
 30
0.0
  9
$LIMMIN
 10
0.0
 20
0.0
  9
$LIMMAX
 10
12.0
 20
9.0
  9
$ORTHOMODE
 70
     0
  9
$REGENMODE
 70
     1
  9
$FILLMODE
 70
     1
  9
$QTEXTMODE
 70
     0
  9
$MIRRTEXT
 70
     1
  9
$LTSCALE
 40
1.0
  9
$ATTMODE
 70
     1
  9
$TEXTSIZE
 40
0.2
  9
$TRACEWID
 40
0.05
  9
$TEXTSTYLE
  7
Standard
  9
$CLAYER
  8
0
  9
$CELTYPE
  6
ByLayer
  9
$CECOLOR
 62
   256
  9
$CELTSCALE
 40
1.0
  9
$DISPSILH
 70
     0
  9
$DIMSCALE
 40
1.0
  9
$DIMASZ
 40
0.18
  9
$DIMEXO
 40
0.0625
  9
$DIMDLI
 40
0.38
  9
$DIMRND
 40
0.0
  9
$DIMDLE
 40
0.0
  9
$DIMEXE
 40
0.18
  9
$DIMTP
 40
0.0
  9
$DIMTM
 40
0.0
  9
$DIMTXT
 40
0.18
  9
$DIMCEN
 40
0.09
  9
$DIMTSZ
 40
0.0
  9
$DIMTOL
 70
     0
  9
$DIMLIM
 70
     0
  9
$DIMTIH
 70
     1
  9
$DIMTOH
 70
     1
  9
$DIMSE1
 70
     0
  9
$DIMSE2
 70
     0
  9
$DIMTAD
 70
     0
  9
$DIMZIN
 70
     0
  9
$DIMBLK
  1

  9
$DIMASO
 70
     1
  9
$DIMSHO
 70
     1
  9
$DIMPOST
  1

  9
$DIMAPOST
  1

  9
$DIMALT
 70
     0
  9
$DIMALTD
 70
     2
  9
$DIMALTF
 40
25.4
  9
$DIMLFAC
 40
1.0
  9
$DIMTOFL
 70
     0
  9
$DIMTVP
 40
0.0
  9
$DIMTIX
 70
     0
  9
$DIMSOXD
 70
     0
  9
$DIMSAH
 70
     0
  9
$DIMBLK1
  1

  9
$DIMBLK2
  1

  9
$DIMSTYLE
  2
Standard
  9
$DIMCLRD
 70
     0
  9
$DIMCLRE
 70
     0
  9
$DIMCLRT
 70
     0
  9
$DIMTFAC
 40
1.0
  9
$DIMGAP
 40
0.09
  9
$DIMJUST
 70
     0
  9
$DIMSD1
 70
     0
  9
$DIMSD2
 70
     0
  9
$DIMTOLJ
 70
     1
  9
$DIMTZIN
 70
     0
  9
$DIMALTZ
 70
     0
  9
$DIMALTTZ
 70
     0
  9
$DIMUPT
 70
     0
  9
$DIMDEC
 70
     4
  9
$DIMTDEC
 70
     4
  9
$DIMALTU
 70
     2
  9
$DIMALTTD
 70
     2
  9
$DIMTXSTY
  7
Standard
  9
$DIMAUNIT
 70
     0
  9
$DIMADEC
 70
     0
  9
$DIMALTRND
 40
0.0
  9
$DIMAZIN
 70
     0
  9
$DIMDSEP
 70
    46
  9
$DIMATFIT
 70
     3
  9
$DIMFRAC
 70
     0
  9
$DIMLDRBLK
  1

  9
$DIMLUNIT
 70
     2
  9
$DIMLWD
 70
    -2
  9
$DIMLWE
 70
    -2
  9
$DIMTMOVE
 70
     0
  9
$DIMFXL
 40
1.0
  9
$DIMFXLON
 70
     0
  9
$DIMJOGANG
 40
0.7853981633974483
  9
$DIMTFILL
 70
     0
  9
$DIMTFILLCLR
 70
     0
  9
$DIMARCSYM
 70
     0
  9
$DIMLTYPE
  6

  9
$DIMLTEX1
  6

  9
$DIMLTEX2
  6

  9
$LUNITS
 70
     2
  9
$LUPREC
 70
     4
  9
$SKETCHINC
 40
0.1
  9
$FILLETRAD
 40
0.5
  9
$AUNITS
 70
     0
  9
$AUPREC
 70
     0
  9
$MENU
  1
.
  9
$ELEVATION
 40
0.0
  9
$PELEVATION
 40
0.0
  9
$THICKNESS
 40
0.0
  9
$LIMCHECK
 70
     0
  9
$CHAMFERA
 40
0.5
  9
$CHAMFERB
 40
0.5
  9
$CHAMFERC
 40
1.0
  9
$CHAMFERD
 40
0.0
  9
$SKPOLY
 70
     0
  9
$TDCREATE
 40
2460555.18312316
  9
$TDUCREATE
 40
2460555.141456493
  9
$TDUPDATE
 40
2460555.183123217
  9
$TDUUPDATE
 40
2460555.141456551
  9
$TDINDWG
 40
0.0000000116
  9
$TDUSRTIMER
 40
0.0000000116
  9
$USRTIMER
 70
     1
  9
$ANGBASE
 50
0.0
  9
$ANGDIR
 70
     0
  9
$PDMODE
 70
     0
  9
$PDSIZE
 40
0.0
  9
$PLINEWID
 40
0.0
  9
$SPLFRAME
 70
     0
  9
$SPLINETYPE
 70
     6
  9
$SPLINESEGS
 70
     8
  9
$HANDSEED
  5
89
  9
$SURFTAB1
 70
     6
  9
$SURFTAB2
 70
     6
  9
$SURFTYPE
 70
     6
  9
$SURFU
 70
     6
  9
$SURFV
 70
     6
  9
$UCSBASE
  2

  9
$UCSNAME
  2

  9
$UCSORG
 10
0.0
 20
0.0
 30
0.0
  9
$UCSXDIR
 10
1.0
 20
0.0
 30
0.0
  9
$UCSYDIR
 10
0.0
 20
1.0
 30
0.0
  9
$UCSORTHOREF
  2

  9
$UCSORTHOVIEW
 70
     0
  9
$UCSORGTOP
 10
0.0
 20
0.0
 30
0.0
  9
$UCSORGBOTTOM
 10
0.0
 20
0.0
 30
0.0
  9
$UCSORGLEFT
 10
0.0
 20
0.0
 30
0.0
  9
$UCSORGRIGHT
 10
0.0
 20
0.0
 30
0.0
  9
$UCSORGFRONT
 10
0.0
 20
0.0
 30
0.0
  9
$UCSORGBACK
 10
0.0
 20
0.0
 30
0.0
  9
$PUCSBASE
  2

  9
$PUCSNAME
  2

  9
$PUCSORG
 10
0.0
 20
0.0
 30
0.0
  9
$PUCSXDIR
 10
1.0
 20
0.0
 30
0.0
  9
$PUCSYDIR
 10
0.0
 20
1.0
 30
0.0
  9
$PUCSORTHOREF
  2

  9
$PUCSORTHOVIEW
 70
     0
  9
$PUCSORGTOP
 10
0.0
 20
0.0
 30
0.0
  9
$PUCSORGBOTTOM
 10
0.0
 20
0.0
 30
0.0
  9
$PUCSORGLEFT
 10
0.0
 20
0.0
 30
0.0
  9
$PUCSORGRIGHT
 10
0.0
 20
0.0
 30
0.0
  9
$PUCSORGFRONT
 10
0.0
 20
0.0
 30
0.0
  9
$PUCSORGBACK
 10
0.0
 20
0.0
 30
0.0
  9
$USERI1
 70
     0
  9
$USERI2
 70
     0
  9
$USERI3
 70
     0
  9
$USERI4
 70
     0
  9
$USERI5
 70
     0
  9
$USERR1
 40
0.0
  9
$USERR2
 40
0.0
  9
$USERR3
 40
0.0
  9
$USERR4
 40
0.0
  9
$USERR5
 40
0.0
  9
$WORLDVIEW
 70
     1
  9
$SHADEDGE
 70
     3
  9
$SHADEDIF
 70
    70
  9
$TILEMODE
 70
     1
  9
$MAXACTVP
 70
    64
  9
$PINSBASE
 10
0.0
 20
0.0
 30
0.0
  9
$PLIMCHECK
 70
     0
  9
$PEXTMIN
 10
1.000000000000000E+20
 20
1.000000000000000E+20
 30
1.000000000000000E+20
  9
$PEXTMAX
 10
-1.000000000000000E+20
 20
-1.000000000000000E+20
 30
-1.000000000000000E+20
  9
$PLIMMIN
 10
0.0
 20
0.0
  9
$PLIMMAX
 10
12.0
 20
9.0
  9
$UNITMODE
 70
     0
  9
$VISRETAIN
 70
     1
  9
$PLINEGEN
 70
     0
  9
$PSLTSCALE
 70
     1
  9
$TREEDEPTH
 70
  3020
  9
$CMLSTYLE
  2
Standard
  9
$CMLJUST
 70
     0
  9
$CMLSCALE
 40
1.0
  9
$PROXYGRAPHICS
 70
     1
  9
$MEASUREMENT
 70
     0
  9
$CELWEIGHT
370
    -1
  9
$ENDCAPS
280
     0
  9
$JOINSTYLE
280
     0
  9
$LWDISPLAY
290
     0
  9
$INSUNITS
 70
     5
  9
$HYPERLINKBASE
  1

  9
$STYLESHEET
  1

  9
$XEDIT
290
     1
  9
$CEPSNTYPE
380
     0
  9
$PSTYLEMODE
290
     1
  9
$FINGERPRINTGUID
  2
{3E1DAC67-8EF7-4728-A736-971D9990B80B}
  9
$VERSIONGUID
  2
{FAEB1C32-E019-11D5-929B-00C0DF256EC4}
  9
$EXTNAMES
290
     1
  9
$PSVPSCALE
 40
0.0
  9
$OLESTARTUP
290
     0
  9
$SORTENTS
280
   127
  9
$INDEXCTL
280
     0
  9
$HIDETEXT
280
     1
  9
$XCLIPFRAME
290
     0
  9
$HALOGAP
280
     0
  9
$OBSCOLOR
 70
   257
  9
$OBSLTYPE
280
     0
  9
$INTERSECTIONDISPLAY
280
     0
  9
$INTERSECTIONCOLOR
 70
   257
  9
$DIMASSOC
280
     2
  9
$PROJECTNAME
  1

  9
$CAMERADISPLAY
290
     0
  9
$LENSLENGTH
 40
50.0
  9
$CAMERAHEIGHT
 40
0.0
  9
$STEPSPERSEC
 40
2.0
  9
$STEPSIZE
 40
6.0
  9
$3DDWFPREC
 40
2.0
  9
$PSOLWIDTH
 40
0.25
  9
$PSOLHEIGHT
 40
4.0
  9
$LOFTANG1
 40
1.570796326794897
  9
$LOFTANG2
 40
1.570796326794897
  9
$LOFTMAG1
 40
0.0
  9
$LOFTMAG2
 40
0.0
  9
$LOFTPARAM
 70
     7
  9
$LOFTNORMALS
280
     1
  9
$LATITUDE
 40
37.795
  9
$LONGITUDE
 40
-122.394
  9
$NORTHDIRECTION
 40
0.0
  9
$TIMEZONE
 70
 -8000
  9
$LIGHTGLYPHDISPLAY
280
     1
  9
$TILEMODELIGHTSYNCH
280
     1
  9
$SOLIDHIST
280
     1
  9
$SHOWHIST
280
     1
  9
$DWFFRAME
280
     2
  9
$DGNFRAME
280
     2
  9
$REALWORLDSCALE
290
     1
  9
$INTERFERECOLOR
 62
   256
  9
$CSHADOW
280
     0
  9
$SHADOWPLANELOCATION
 40
0.0
  0
ENDSEC
  0
SECTION
  2
CLASSES
  0
CLASS
  1
ACDBDICTIONARYWDFLT
  2
AcDbDictionaryWithDefault
  3
ObjectDBX Classes
 90
        0
 91
        4
280
     0
281
     0
  0
CLASS
  1
VISUALSTYLE
  2
AcDbVisualStyle
  3
ObjectDBX Classes
 90
     4095
 91
        4
280
     0
281
     0
  0
CLASS
  1
MATERIAL
  2
AcDbMaterial
  3
ObjectDBX Classes
 90
     1153
 91
        4
280
     0
281
     0
  0
ENDSEC
  0
SECTION
  2
TABLES
  0
TABLE
  2
VPORT
  5
8
330
0
100
AcDbSymbolTable
 70
     1
  0
VPORT
  5
29
330
8
100
AcDbSymbolTableRecord
100
AcDbViewportTableRecord
  2
*Active
 70
     0
 10
0.0
 20
0.0
 11
1.0
 21
1.0
 12
10.42990654205607
 22
4.5
 13
0.0
 23
0.0
 14
0.5
 24
0.5
 15
0.5
 25
0.5
 16
0.0
 26
0.0
 36
1.0
 17
0.0
 27
0.0
 37
0.0
 40
9.0
 41
1.972972972850329
 42
50.0
 43
0.0
 44
0.0
 50
0.0
 51
0.0
 71
     0
 72
   100
 73
     1
 74
     3
 75
     0
 76
     0
 77
     0
 78
     0
281
     0
 65
     1
110
0.0
120
0.0
130
0.0
111
1.0
121
0.0
131
0.0
112
0.0
122
1.0
132
0.0
 79
     0
146
0.0
 60
     3
 61
     5
292
     1
282
     1
141
0.0
142
0.0
 63
   250
  0
ENDTAB
  0
TABLE
  2
LTYPE
  5
5
330
0
100
AcDbSymbolTable
 70
     1
  0
LTYPE
  5
14
330
5
100
AcDbSymbolTableRecord
100
AcDbLinetypeTableRecord
  2
ByBlock
 70
     0
  3

 72
    65
 73
     0
 40
0.0
  0
LTYPE
  5
15
330
5
100
AcDbSymbolTableRecord
100
AcDbLinetypeTableRecord
  2
ByLayer
 70
     0
  3

 72
    65
 73
     0
 40
0.0
  0
LTYPE
  5
16
330
5
100
AcDbSymbolTableRecord
100
AcDbLinetypeTableRecord
  2
Continuous
 70
     0
  3
Solid line
 72
    65
 73
     0
 40
0.0
  0
ENDTAB
  0
TABLE
  2
LAYER
  5
2
330
0
100
AcDbSymbolTable
 70
     2
  0
LAYER
  5
10
330
2
100
AcDbSymbolTableRecord
100
AcDbLayerTableRecord
  2
0
 70
     0
 62
     7
  6
Continuous
370
    -3
390
F
347
3E
  0
LAYER
  5
40
330
2
100
AcDbSymbolTableRecord
100
AcDbLayerTableRecord
  2
Layer 1
 70
     0
 62
     7
  6
Continuous
370
    -3
390
F
347
3E
  0
ENDTAB
  0
TABLE
  2
STYLE
  5
3
330
0
100
AcDbSymbolTable
 70
     1
  0
STYLE
  5
11
330
3
100
AcDbSymbolTableRecord
100
AcDbTextStyleTableRecord
  2
Standard
 70
     0
 40
0.0
 41
1.0
 50
0.0
 71
     0
 42
0.2
  3
txt
  4

  0
ENDTAB
  0
TABLE
  2
VIEW
  5
6
330
0
100
AcDbSymbolTable
 70
     0
  0
ENDTAB
  0
TABLE
  2
UCS
  5
7
330
0
100
AcDbSymbolTable
 70
     0
  0
ENDTAB
  0
TABLE
  2
APPID
  5
9
330
0
100
AcDbSymbolTable
 70
     2
  0
APPID
  5
12
330
9
100
AcDbSymbolTableRecord
100
AcDbRegAppTableRecord
  2
ACAD
 70
     0
  0
APPID
  5
3F
330
9
100
AcDbSymbolTableRecord
100
AcDbRegAppTableRecord
  2
ODA
 70
     0
  0
ENDTAB
  0
TABLE
  2
DIMSTYLE
  5
A
330
0
100
AcDbSymbolTable
 70
     1
100
AcDbDimStyleTable
  0
DIMSTYLE
105
27
330
A
100
AcDbSymbolTableRecord
100
AcDbDimStyleTableRecord
  2
Standard
 70
     0
178
     0
340
11
  0
ENDTAB
  0
TABLE
  2
BLOCK_RECORD
  5
1
330
0
100
AcDbSymbolTable
 70
     1
  0
BLOCK_RECORD
  5
1F
330
1
100
AcDbSymbolTableRecord
100
AcDbBlockTableRecord
  2
*Model_Space
340
22
 70
     0
280
     1
281
     0
  0
BLOCK_RECORD
  5
1B
330
1
100
AcDbSymbolTableRecord
100
AcDbBlockTableRecord
  2
*Paper_Space
340
1E
 70
     0
280
     1
281
     0
  0
BLOCK_RECORD
  5
23
330
1
100
AcDbSymbolTableRecord
100
AcDbBlockTableRecord
  2
*Paper_Space0
340
26
 70
     0
280
     1
281
     0
  0
ENDTAB
  0
ENDSEC
  0
SECTION
  2
BLOCKS
  0
BLOCK
  5
20
330
1F
100
AcDbEntity
  8
0
100
AcDbBlockBegin
  2
*Model_Space
 70
     0
 10
0.0
 20
0.0
 30
0.0
  3
*Model_Space
  1

  0
ENDBLK
  5
21
330
1F
100
AcDbEntity
  8
0
100
AcDbBlockEnd
  0
BLOCK
  5
1C
330
1B
100
AcDbEntity
 67
     1
  8
0
100
AcDbBlockBegin
  2
*Paper_Space
 70
     0
 10
0.0
 20
0.0
 30
0.0
  3
*Paper_Space
  1

  0
ENDBLK
  5
1D
330
1B
100
AcDbEntity
 67
     1
  8
0
100
AcDbBlockEnd
  0
BLOCK
  5
24
330
23
100
AcDbEntity
  8
0
100
AcDbBlockBegin
  2
*Paper_Space0
 70
     0
 10
0.0
 20
0.0
 30
0.0
  3
*Paper_Space0
  1

  0
ENDBLK
  5
25
330
23
100
AcDbEntity
  8
0
100
AcDbBlockEnd
  0
ENDSEC
  0
SECTION
  2
ENTITIES
  0
SPLINE
  5
41
330
1F
100
AcDbEntity
  8
Layer 1
370
    53
100
AcDbSpline
210
0.0
220
0.0
230
1.0
 70
    11
 71
     3
 72
    20
 73
    16
 74
     0
 42
0.0000000001
 43
0.0000000001
 12
1.0
 22
0.0
 32
0.0
 13
1.0
 23
0.0
 33
0.0
 40
0.0
 40
0.0
 40
0.0
 40
0.0
 40
0.2
 40
0.2
 40
0.2
 40
0.2
 40
0.4
 40
0.4
 40
0.4
 40
0.4
 40
0.6
 40
0.6
 40
0.6
 40
0.6
 40
1.0
 40
1.0
 40
1.0
 40
1.0
 10
-10.32505
 20
-9.99995
 30
0.0
 10
-10.32505
 20
-9.82046
 30
0.0
 10
-10.17954
 20
-9.67495
 30
0.0
 10
-10.00005
 20
-9.67495
 30
0.0
 10
-10.00005
 20
-9.67495
 30
0.0
 10
-9.82056
 20
-9.67495
 30
0.0
 10
-9.67505
 20
-9.82046
 30
0.0
 10
-9.67505
 20
-9.99995
 30
0.0
 10
-9.67505
 20
-9.99995
 30
0.0
 10
-9.67505
 20
-10.17944
 30
0.0
 10
-9.82056
 20
-10.32495
 30
0.0
 10
-10.00005
 20
-10.32495
 30
0.0
 10
-10.00005
 20
-10.32495
 30
0.0
 10
-10.17954
 20
-10.32495
 30
0.0
 10
-10.32505
 20
-10.17944
 30
0.0
 10
-10.32505
 20
-9.99995
 30
0.0
  0
SPLINE
  5
42
330
1F
100
AcDbEntity
  8
Layer 1
370
    53
100
AcDbSpline
210
0.0
220
0.0
230
1.0
 70
    11
 71
     3
 72
    20
 73
    16
 74
     0
 42
0.0000000001
 43
0.0000000001
 12
1.0
 22
0.0
 32
0.0
 13
1.0
 23
0.0
 33
0.0
 40
0.0
 40
0.0
 40
0.0
 40
0.0
 40
0.2
 40
0.2
 40
0.2
 40
0.2
 40
0.4
 40
0.4
 40
0.4
 40
0.4
 40
0.6
 40
0.6
 40
0.6
 40
0.6
 40
1.0
 40
1.0
 40
1.0
 40
1.0
 10
-8.82505
 20
-9.99995
 30
0.0
 10
-8.82505
 20
-9.82046
 30
0.0
 10
-8.67954
 20
-9.67495
 30
0.0
 10
-8.50005
 20
-9.67495
 30
0.0
 10
-8.50005
 20
-9.67495
 30
0.0
 10
-8.32056
 20
-9.67495
 30
0.0
 10
-8.17505
 20
-9.82046
 30
0.0
 10
-8.17505
 20
-9.99995
 30
0.0
 10
-8.17505
 20
-9.99995
 30
0.0
 10
-8.17505
 20
-10.17944
 30
0.0
 10
-8.32056
 20
-10.32495
 30
0.0
 10
-8.50005
 20
-10.32495
 30
0.0
 10
-8.50005
 20
-10.32495
 30
0.0
 10
-8.67954
 20
-10.32495
 30
0.0
 10
-8.82505
 20
-10.17944
 30
0.0
 10
-8.82505
 20
-9.99995
 30
0.0
  0
SPLINE
  5
43
330
1F
100
AcDbEntity
  8
Layer 1
370
    53
100
AcDbSpline
210
0.0
220
0.0
230
1.0
 70
    11
 71
     3
 72
    20
 73
    16
 74
     0
 42
0.0000000001
 43
0.0000000001
 12
1.0
 22
0.0
 32
0.0
 13
1.0
 23
0.0
 33
0.0
 40
0.0
 40
0.0
 40
0.0
 40
0.0
 40
0.2
 40
0.2
 40
0.2
 40
0.2
 40
0.4
 40
0.4
 40
0.4
 40
0.4
 40
0.6
 40
0.6
 40
0.6
 40
0.6
 40
1.0
 40
1.0
 40
1.0
 40
1.0
 10
-11.82505
 20
-9.99995
 30
0.0
 10
-11.82505
 20
-9.82046
 30
0.0
 10
-11.67954
 20
-9.67495
 30
0.0
 10
-11.50005
 20
-9.67495
 30
0.0
 10
-11.50005
 20
-9.67495
 30
0.0
 10
-11.32056
 20
-9.67495
 30
0.0
 10
-11.17505
 20
-9.82046
 30
0.0
 10
-11.17505
 20
-9.99995
 30
0.0
 10
-11.17505
 20
-9.99995
 30
0.0
 10
-11.17505
 20
-10.17944
 30
0.0
 10
-11.32056
 20
-10.32495
 30
0.0
 10
-11.50005
 20
-10.32495
 30
0.0
 10
-11.50005
 20
-10.32495
 30
0.0
 10
-11.67954
 20
-10.32495
 30
0.0
 10
-11.82505
 20
-10.17944
 30
0.0
 10
-11.82505
 20
-9.99995
 30
0.0
  0
SPLINE
  5
44
330
1F
100
AcDbEntity
  8
Layer 1
 62
     5
370
    53
100
AcDbSpline
210
0.0
220
0.0
230
1.0
 70
     8
 71
     3
 72
    16
 73
    12
 74
     0
 42
0.0000000001
 43
0.0000000001
 12
1.0
 22
0.0
 32
0.0
 13
1.0
 23
0.0
 33
0.0
 40
0.0
 40
0.0
 40
0.0
 40
0.0
 40
0.25
 40
0.25
 40
0.25
 40
0.25
 40
0.5
 40
0.5
 40
0.5
 40
0.5
 40
1.0
 40
1.0
 40
1.0
 40
1.0
 10
-9.23132
 20
-7.65983
 30
0.0
 10
-9.30137
 20
-7.85073
 30
0.0
 10
-9.16495
 20
-8.02651
 30
0.0
 10
-9.17306
 20
-8.23261
 30
0.0
 10
-9.17306
 20
-8.23261
 30
0.0
 10
-9.17318
 20
-8.23578
 30
0.0
 10
-9.17332
 20
-8.23894
 30
0.0
 10
-9.17345
 20
-8.24212
 30
0.0
 10
-9.17345
 20
-8.24212
 30
0.0
 10
-9.16854
 20
-8.26597
 30
0.0
 10
-9.167
 20
-8.41819
 30
0.0
 10
-9.16523
 20
-8.44409
 30
0.0
  0
SPLINE
  5
45
330
1F
100
AcDbEntity
  8
Layer 1
 62
     5
370
    53
100
AcDbSpline
210
0.0
220
0.0
230
1.0
 70
     8
 71
     3
 72
    12
 73
     8
 74
     0
 42
0.0000000001
 43
0.0000000001
 12
1.0
 22
0.0
 32
0.0
 13
1.0
 23
0.0
 33
0.0
 40
0.0
 40
0.0
 40
0.0
 40
0.0
 40
0.3333333333333333
 40
0.3333333333333333
 40
0.3333333333333333
 40
0.3333333333333333
 40
1.0
 40
1.0
 40
1.0
 40
1.0
 10
-10.89389
 20
-8.54417
 30
0.0
 10
-10.90535
 20
-8.37669
 30
0.0
 10
-10.85681
 20
-8.2249
 30
0.0
 10
-10.83283
 20
-8.06551
 30
0.0
 10
-10.83283
 20
-8.06551
 30
0.0
 10
-10.80938
 20
-7.90961
 30
0.0
 10
-10.87674
 20
-7.77076
 30
0.0
 10
-10.95112
 20
-7.65301
 30
0.0
  0
SPLINE
  5
46
330
1F
100
AcDbEntity
  8
Layer 1
370
    53
100
AcDbSpline
210
0.0
220
0.0
230
1.0
 70
    11
 71
     3
 72
   292
 73
   288
 74
     0
 42
0.0000000001
 43
0.0000000001
 12
1.0
 22
0.0
 32
0.0
 13
1.0
 23
0.0
 33
0.0
 40
0.0
 40
0.0
 40
0.0
 40
0.0
 40
0.0136986301369863
 40
0.0136986301369863
 40
0.0136986301369863
 40
0.0136986301369863
 40
0.0273972602739726
 40
0.0273972602739726
 40
0.0273972602739726
 40
0.0273972602739726
 40
0.0410958904109589
 40
0.0410958904109589
 40
0.0410958904109589
 40
0.0410958904109589
 40
0.0547945205479452
 40
0.0547945205479452
 40
0.0547945205479452
 40
0.0547945205479452
 40
0.0684931506849315
 40
0.0684931506849315
 40
0.0684931506849315
 40
0.0684931506849315
 40
0.0821917808219178
 40
0.0821917808219178
 40
0.0821917808219178
 40
0.0821917808219178
 40
0.0958904109589041
 40
0.0958904109589041
 40
0.0958904109589041
 40
0.0958904109589041
 40
0.1095890410958904
 40
0.1095890410958904
 40
0.1095890410958904
 40
0.1095890410958904
 40
0.1232876712328767
 40
0.1232876712328767
 40
0.1232876712328767
 40
0.1232876712328767
 40
0.136986301369863
 40
0.136986301369863
 40
0.136986301369863
 40
0.136986301369863
 40
0.1506849315068493
 40
0.1506849315068493
 40
0.1506849315068493
 40
0.1506849315068493
 40
0.1643835616438356
 40
0.1643835616438356
 40
0.1643835616438356
 40
0.1643835616438356
 40
0.1780821917808219
 40
0.1780821917808219
 40
0.1780821917808219
 40
0.1780821917808219
 40
0.1917808219178082
 40
0.1917808219178082
 40
0.1917808219178082
 40
0.1917808219178082
 40
0.2054794520547945
 40
0.2054794520547945
 40
0.2054794520547945
 40
0.2054794520547945
 40
0.2191780821917808
 40
0.2191780821917808
 40
0.2191780821917808
 40
0.2191780821917808
 40
0.2328767123287671
 40
0.2328767123287671
 40
0.2328767123287671
 40
0.2328767123287671
 40
0.2465753424657534
 40
0.2465753424657534
 40
0.2465753424657534
 40
0.2465753424657534
 40
0.2602739726027397
 40
0.2602739726027397
 40
0.2602739726027397
 40
0.2602739726027397
 40
0.273972602739726
 40
0.273972602739726
 40
0.273972602739726
 40
0.273972602739726
 40
0.2876712328767123
 40
0.2876712328767123
 40
0.2876712328767123
 40
0.2876712328767123
 40
0.3013698630136986
 40
0.3013698630136986
 40
0.3013698630136986
 40
0.3013698630136986
 40
0.3150684931506849
 40
0.3150684931506849
 40
0.3150684931506849
 40
0.3150684931506849
 40
0.3287671232876712
 40
0.3287671232876712
 40
0.3287671232876712
 40
0.3287671232876712
 40
0.3424657534246575
 40
0.3424657534246575
 40
0.3424657534246575
 40
0.3424657534246575
 40
0.3561643835616438
 40
0.3561643835616438
 40
0.3561643835616438
 40
0.3561643835616438
 40
0.3698630136986301
 40
0.3698630136986301
 40
0.3698630136986301
 40
0.3698630136986301
 40
0.3835616438356164
 40
0.3835616438356164
 40
0.3835616438356164
 40
0.3835616438356164
 40
0.3972602739726027
 40
0.3972602739726027
 40
0.3972602739726027
 40
0.3972602739726027
 40
0.410958904109589
 40
0.410958904109589
 40
0.410958904109589
 40
0.410958904109589
 40
0.4246575342465753
 40
0.4246575342465753
 40
0.4246575342465753
 40
0.4246575342465753
 40
0.4383561643835616
 40
0.4383561643835616
 40
0.4383561643835616
 40
0.4383561643835616
 40
0.4520547945205479
 40
0.4520547945205479
 40
0.4520547945205479
 40
0.4520547945205479
 40
0.4657534246575342
 40
0.4657534246575342
 40
0.4657534246575342
 40
0.4657534246575342
 40
0.4794520547945205
 40
0.4794520547945205
 40
0.4794520547945205
 40
0.4794520547945205
 40
0.4931506849315068
 40
0.4931506849315068
 40
0.4931506849315068
 40
0.4931506849315068
 40
0.5068493150684932
 40
0.5068493150684932
 40
0.5068493150684932
 40
0.5068493150684932
 40
0.5205479452054794
 40
0.5205479452054794
 40
0.5205479452054794
 40
0.5205479452054794
 40
0.5342465753424658
 40
0.5342465753424658
 40
0.5342465753424658
 40
0.5342465753424658
 40
0.547945205479452
 40
0.547945205479452
 40
0.547945205479452
 40
0.547945205479452
 40
0.5616438356164384
 40
0.5616438356164384
 40
0.5616438356164384
 40
0.5616438356164384
 40
0.5753424657534246
 40
0.5753424657534246
 40
0.5753424657534246
 40
0.5753424657534246
 40
0.589041095890411
 40
0.589041095890411
 40
0.589041095890411
 40
0.589041095890411
 40
0.6027397260273972
 40
0.6027397260273972
 40
0.6027397260273972
 40
0.6027397260273972
 40
0.6164383561643836
 40
0.6164383561643836
 40
0.6164383561643836
 40
0.6164383561643836
 40
0.6301369863013698
 40
0.6301369863013698
 40
0.6301369863013698
 40
0.6301369863013698
 40
0.6438356164383562
 40
0.6438356164383562
 40
0.6438356164383562
 40
0.6438356164383562
 40
0.6575342465753424
 40
0.6575342465753424
 40
0.6575342465753424
 40
0.6575342465753424
 40
0.6712328767123288
 40
0.6712328767123288
 40
0.6712328767123288
 40
0.6712328767123288
 40
0.684931506849315
 40
0.684931506849315
 40
0.684931506849315
 40
0.684931506849315
 40
0.6986301369863014
 40
0.6986301369863014
 40
0.6986301369863014
 40
0.6986301369863014
 40
0.7123287671232876
 40
0.7123287671232876
 40
0.7123287671232876
 40
0.7123287671232876
 40
0.726027397260274
 40
0.726027397260274
 40
0.726027397260274
 40
0.726027397260274
 40
0.7397260273972602
 40
0.7397260273972602
 40
0.7397260273972602
 40
0.7397260273972602
 40
0.7534246575342466
 40
0.7534246575342466
 40
0.7534246575342466
 40
0.7534246575342466
 40
0.7671232876712328
 40
0.7671232876712328
 40
0.7671232876712328
 40
0.7671232876712328
 40
0.7808219178082192
 40
0.7808219178082192
 40
0.7808219178082192
 40
0.7808219178082192
 40
0.7945205479452054
 40
0.7945205479452054
 40
0.7945205479452054
 40
0.7945205479452054
 40
0.8082191780821918
 40
0.8082191780821918
 40
0.8082191780821918
 40
0.8082191780821918
 40
0.821917808219178
 40
0.821917808219178
 40
0.821917808219178
 40
0.821917808219178
 40
0.8356164383561644
 40
0.8356164383561644
 40
0.8356164383561644
 40
0.8356164383561644
 40
0.8493150684931506
 40
0.8493150684931506
 40
0.8493150684931506
 40
0.8493150684931506
 40
0.863013698630137
 40
0.863013698630137
 40
0.863013698630137
 40
0.863013698630137
 40
0.8767123287671232
 40
0.8767123287671232
 40
0.8767123287671232
 40
0.8767123287671232
 40
0.8904109589041096
 40
0.8904109589041096
 40
0.8904109589041096
 40
0.8904109589041096
 40
0.9041095890410958
 40
0.9041095890410958
 40
0.9041095890410958
 40
0.9041095890410958
 40
0.9178082191780822
 40
0.9178082191780822
 40
0.9178082191780822
 40
0.9178082191780822
 40
0.9315068493150684
 40
0.9315068493150684
 40
0.9315068493150684
 40
0.9315068493150684
 40
0.9452054794520548
 40
0.9452054794520548
 40
0.9452054794520548
 40
0.9452054794520548
 40
0.958904109589041
 40
0.958904109589041
 40
0.958904109589041
 40
0.958904109589041
 40
0.9726027397260274
 40
0.9726027397260274
 40
0.9726027397260274
 40
0.9726027397260274
 40
1.0
 40
1.0
 40
1.0
 40
1.0
 10
-8.30005
 20
-10.69995
 30
0.0
 10
-8.30005
 20
-10.69995
 30
0.0
 10
-11.70005
 20
-10.69995
 30
0.0
 10
-11.70005
 20
-10.69995
 30
0.0
 10
-11.70005
 20
-10.69995
 30
0.0
 10
-11.97619
 20
-10.69995
 30
0.0
 10
-12.20005
 20
-10.47609
 30
0.0
 10
-12.20005
 20
-10.19995
 30
0.0
 10
-12.20005
 20
-10.19995
 30
0.0
 10
-12.20005
 20
-10.19995
 30
0.0
 10
-12.20005
 20
-9.79995
 30
0.0
 10
-12.20005
 20
-9.79995
 30
0.0
 10
-12.20005
 20
-9.79995
 30
0.0
 10
-12.20005
 20
-9.52381
 30
0.0
 10
-11.97619
 20
-9.29995
 30
0.0
 10
-11.70005
 20
-9.29995
 30
0.0
 10
-11.70005
 20
-9.29995
 30
0.0
 10
-11.70005
 20
-9.29995
 30
0.0
 10
-10.48755
 20
-9.29995
 30
0.0
 10
-10.48755
 20
-9.29995
 30
0.0
 10
-10.48755
 20
-9.29995
 30
0.0
 10
-10.48755
 20
-9.29995
 30
0.0
 10
-10.48755
 20
-9.11535
 30
0.0
 10
-10.48755
 20
-9.11535
 30
0.0
 10
-10.48755
 20
-9.11535
 30
0.0
 10
-10.50162
 20
-9.10837
 30
0.0
 10
-10.51554
 20
-9.10082
 30
0.0
 10
-10.5293
 20
-9.09258
 30
0.0
 10
-10.5293
 20
-9.09258
 30
0.0
 10
-10.73311
 20
-8.97052
 30
0.0
 10
-10.89411
 20
-8.70687
 30
0.0
 10
-10.91116
 20
-8.45834
 30
0.0
 10
-10.91116
 20
-8.45834
 30
0.0
 10
-10.99171
 20
-8.39035
 30
0.0
 10
-11.04728
 20
-8.35838
 30
0.0
 10
-11.14805
 20
-8.41878
 30
0.0
 10
-11.14805
 20
-8.41878
 30
0.0
 10
-11.3794
 20
-8.55745
 30
0.0
 10
-11.20945
 20
-8.844
 30
0.0
 10
-11.02366
 20
-8.92181
 30
0.0
 10
-11.02366
 20
-8.92181
 30
0.0
 10
-11.30166
 20
-9.15825
 30
0.0
 10
-11.70962
 20
-8.95054
 30
0.0
 10
-11.70061
 20
-8.5974
 30
0.0
 10
-11.70061
 20
-8.5974
 30
0.0
 10
-11.69634
 20
-8.42834
 30
0.0
 10
-11.62952
 20
-8.28166
 30
0.0
 10
-11.56469
 20
-8.12955
 30
0.0
 10
-11.56469
 20
-8.12955
 30
0.0
 10
-11.52025
 20
-8.02524
 30
0.0
 10
-11.44416
 20
-7.86144
 30
0.0
 10
-11.5278
 20
-7.7579
 30
0.0
 10
-11.5278
 20
-7.7579
 30
0.0
 10
-11.56151
 20
-7.71613
 30
0.0
 10
-11.62502
 20
-7.70256
 30
0.0
 10
-11.67399
 20
-7.72377
 30
0.0
 10
-11.67399
 20
-7.72377
 30
0.0
 10
-11.78086
 20
-7.7701
 30
0.0
 10
-11.77553
 20
-7.9355
 30
0.0
 10
-11.75851
 20
-8.02792
 30
0.0
 10
-11.75851
 20
-8.02792
 30
0.0
 10
-11.9506
 20
-7.93788
 30
0.0
 10
-12.07776
 20
-7.61132
 30
0.0
 10
-12.04813
 20
-7.40942
 30
0.0
 10
-12.04813
 20
-7.40942
 30
0.0
 10
-12.01642
 20
-7.19352
 30
0.0
 10
-11.88379
 20
-6.96837
 30
0.0
 10
-11.78256
 20
-6.77788
 30
0.0
 10
-11.78256
 20
-6.77788
 30
0.0
 10
-11.83509
 20
-6.71479
 30
0.0
 10
-11.94224
 20
-6.7499
 30
0.0
 10
-11.99529
 20
-6.79159
 30
0.0
 10
-11.99529
 20
-6.79159
 30
0.0
 10
-12.11081
 20
-6.88243
 30
0.0
 10
-12.09952
 20
-7.06261
 30
0.0
 10
-12.10205
 20
-7.19347
 30
0.0
 10
-12.10205
 20
-7.19347
 30
0.0
 10
-12.25315
 20
-7.10182
 30
0.0
 10
-12.30499
 20
-6.85726
 30
0.0
 10
-12.30452
 20
-6.69515
 30
0.0
 10
-12.30452
 20
-6.69515
 30
0.0
 10
-12.30406
 20
-6.52352
 30
0.0
 10
-12.26067
 20
-6.35945
 30
0.0
 10
-12.19781
 20
-6.19999
 30
0.0
 10
-12.19781
 20
-6.19999
 30
0.0
 10
-12.07909
 20
-5.89893
 30
0.0
 10
-11.84341
 20
-5.54334
 30
0.0
 10
-11.52446
 20
-5.41011
 30
0.0
 10
-11.52446
 20
-5.41011
 30
0.0
 10
-11.52446
 20
-5.41011
 30
0.0
 10
-11.5627
 20
-5.36841
 30
0.0
 10
-11.5627
 20
-5.36841
 30
0.0
 10
-11.5627
 20
-5.36841
 30
0.0
 10
-11.59984
 20
-5.38044
 30
0.0
 10
-11.63686
 20
-5.39472
 30
0.0
 10
-11.67218
 20
-5.41573
 30
0.0
 10
-11.67218
 20
-5.41573
 30
0.0
 10
-11.65705
 20
-5.37835
 30
0.0
 10
-11.6389
 20
-5.34209
 30
0.0
 10
-11.61821
 20
-5.30694
 30
0.0
 10
-11.61821
 20
-5.30694
 30
0.0
 10
-11.68036
 20
-5.2368
 30
0.0
 10
-11.73777
 20
-5.16582
 30
0.0
 10
-11.77087
 20
-5.10042
 30
0.0
 10
-11.77087
 20
-5.10042
 30
0.0
 10
-11.83558
 20
-4.97256
 30
0.0
 10
-11.92201
 20
-4.78207
 30
0.0
 10
-11.89992
 20
-4.63476
 30
0.0
 10
-11.89992
 20
-4.63476
 30
0.0
 10
-11.88281
 20
-4.52082
 30
0.0
 10
-11.82093
 20
-4.59324
 30
0.0
 10
-11.75241
 20
-4.62944
 30
0.0
 10
-11.75241
 20
-4.62944
 30
0.0
 10
-11.683
 20
-4.66606
 30
0.0
 10
-11.60831
 20
-4.69119
 30
0.0
 10
-11.53777
 20
-4.72535
 30
0.0
 10
-11.53777
 20
-4.72535
 30
0.0
 10
-11.42137
 20
-4.78169
 30
0.0
 10
-11.30401
 20
-4.83235
 30
0.0
 10
-11.18493
 20
-4.88251
 30
0.0
 10
-11.18493
 20
-4.88251
 30
0.0
 10
-11.02696
 20
-4.7799
 30
0.0
 10
-10.85368
 20
-4.69885
 30
0.0
 10
-10.69345
 20
-4.64044
 30
0.0
 10
-10.69345
 20
-4.64044
 30
0.0
 10
-10.61407
 20
-4.61151
 30
0.0
 10
-10.52947
 20
-4.58431
 30
0.0
 10
-10.44255
 20
-4.56301
 30
0.0
 10
-10.44255
 20
-4.56301
 30
0.0
 10
-10.384
 20
-4.17798
 30
0.0
 10
-10.32751
 20
-3.7926
 30
0.0
 10
-10.28399
 20
-3.40554
 30
0.0
 10
-10.28399
 20
-3.40554
 30
0.0
 10
-10.28043
 20
-3.37398
 30
0.0
 10
-10.2772
 20
-3.34239
 30
0.0
 10
-10.27513
 20
-3.31069
 30
0.0
 10
-10.27513
 20
-3.31069
 30
0.0
 10
-10.268
 20
-3.20155
 30
0.0
 10
-10.26043
 20
-3.09201
 30
0.0
 10
-10.24286
 20
-2.9843
 30
0.0
 10
-10.24286
 20
-2.9843
 30
0.0
 10
-10.21565
 20
-2.81738
 30
0.0
 10
-10.20493
 20
-2.64452
 30
0.0
 10
-10.19638
 20
-2.47582
 30
0.0
 10
-10.19638
 20
-2.47582
 30
0.0
 10
-10.18811
 20
-2.31327
 30
0.0
 10
-10.17935
 20
-2.14819
 30
0.0
 10
-10.15716
 20
-1.9874
 30
0.0
 10
-10.15716
 20
-1.9874
 30
0.0
 10
-10.15633
 20
-1.98153
 30
0.0
 10
-10.15571
 20
-1.97311
 30
0.0
 10
-10.15468
 20
-1.96378
 30
0.0
 10
-10.15468
 20
-1.96378
 30
0.0
 10
-10.14886
 20
-1.91112
 30
0.0
 10
-10.12088
 20
-1.87014
 30
0.0
 10
-10.08633
 20
-1.93014
 30
0.0
 10
-10.08633
 20
-1.93014
 30
0.0
 10
-10.06682
 20
-1.96399
 30
0.0
 10
-10.0659
 20
-2.00974
 30
0.0
 10
-10.06101
 20
-2.04756
 30
0.0
 10
-10.06101
 20
-2.04756
 30
0.0
 10
-10.05445
 20
-2.09827
 30
0.0
 10
-10.04778
 20
-2.15046
 30
0.0
 10
-10.0468
 20
-2.20188
 30
0.0
 10
-10.0468
 20
-2.20188
 30
0.0
 10
-10.03771
 20
-2.67746
 30
0.0
 10
-9.94487
 20
-3.15893
 30
0.0
 10
-9.88392
 20
-3.63066
 30
0.0
 10
-9.88392
 20
-3.63066
 30
0.0
 10
-9.84381
 20
-3.93987
 30
0.0
 10
-9.82128
 20
-4.25797
 30
0.0
 10
-9.77542
 20
-4.56821
 30
0.0
 10
-9.77542
 20
-4.56821
 30
0.0
 10
-9.57469
 20
-4.61646
 30
0.0
 10
-9.37994
 20
-4.68977
 30
0.0
 10
-9.20251
 20
-4.79616
 30
0.0
 10
-9.20251
 20
-4.79616
 30
0.0
 10
-9.14503
 20
-4.83061
 30
0.0
 10
-9.0863
 20
-4.86977
 30
0.0
 10
-9.02894
 20
-4.91305
 30
0.0
 10
-9.02894
 20
-4.91305
 30
0.0
 10
-9.00358
 20
-4.90347
 30
0.0
 10
-8.97821
 20
-4.89335
 30
0.0
 10
-8.95276
 20
-4.88262
 30
0.0
 10
-8.95276
 20
-4.88262
 30
0.0
 10
-8.8336
 20
-4.83243
 30
0.0
 10
-8.71618
 20
-4.78174
 30
0.0
 10
-8.59968
 20
-4.72536
 30
0.0
 10
-8.59968
 20
-4.72536
 30
0.0
 10
-8.52914
 20
-4.6912
 30
0.0
 10
-8.45444
 20
-4.66606
 30
0.0
 10
-8.38504
 20
-4.62945
 30
0.0
 10
-8.38504
 20
-4.62945
 30
0.0
 10
-8.31652
 20
-4.59325
 30
0.0
 10
-8.25463
 20
-4.52084
 30
0.0
 10
-8.23753
 20
-4.63476
 30
0.0
 10
-8.23753
 20
-4.63476
 30
0.0
 10
-8.21544
 20
-4.78209
 30
0.0
 10
-8.30187
 20
-4.97256
 30
0.0
 10
-8.36656
 20
-5.10042
 30
0.0
 10
-8.36656
 20
-5.10042
 30
0.0
 10
-8.41407
 20
-5.19427
 30
0.0
 10
-8.51162
 20
-5.29962
 30
0.0
 10
-8.6014
 20
-5.39748
 30
0.0
 10
-8.6014
 20
-5.39748
 30
0.0
 10
-8.26607
 20
-5.51949
 30
0.0
 10
-8.01848
 20
-5.88887
 30
0.0
 10
-7.8958
 20
-6.19999
 30
0.0
 10
-7.8958
 20
-6.19999
 30
0.0
 10
-7.83293
 20
-6.35945
 30
0.0
 10
-7.78954
 20
-6.52352
 30
0.0
 10
-7.78908
 20
-6.69515
 30
0.0
 10
-7.78908
 20
-6.69515
 30
0.0
 10
-7.78862
 20
-6.85726
 30
0.0
 10
-7.84045
 20
-7.10182
 30
0.0
 10
-7.99155
 20
-7.19347
 30
0.0
 10
-7.99155
 20
-7.19347
 30
0.0
 10
-7.99408
 20
-7.06261
 30
0.0
 10
-7.98279
 20
-6.88243
 30
0.0
 10
-8.09831
 20
-6.79159
 30
0.0
 10
-8.09831
 20
-6.79159
 30
0.0
 10
-8.15136
 20
-6.7499
 30
0.0
 10
-8.25851
 20
-6.71479
 30
0.0
 10
-8.31104
 20
-6.77788
 30
0.0
 10
-8.31104
 20
-6.77788
 30
0.0
 10
-8.20981
 20
-6.96837
 30
0.0
 10
-8.07718
 20
-7.19352
 30
0.0
 10
-8.04547
 20
-7.40942
 30
0.0
 10
-8.04547
 20
-7.40942
 30
0.0
 10
-8.01584
 20
-7.61132
 30
0.0
 10
-8.14302
 20
-7.93788
 30
0.0
 10
-8.33509
 20
-8.02792
 30
0.0
 10
-8.33509
 20
-8.02792
 30
0.0
 10
-8.31807
 20
-7.9355
 30
0.0
 10
-8.31274
 20
-7.7701
 30
0.0
 10
-8.41961
 20
-7.72377
 30
0.0
 10
-8.41961
 20
-7.72377
 30
0.0
 10
-8.46858
 20
-7.70256
 30
0.0
 10
-8.53209
 20
-7.71613
 30
0.0
 10
-8.56581
 20
-7.7579
 30
0.0
 10
-8.56581
 20
-7.7579
 30
0.0
 10
-8.64944
 20
-7.86144
 30
0.0
 10
-8.57335
 20
-8.02524
 30
0.0
 10
-8.52891
 20
-8.12955
 30
0.0
 10
-8.52891
 20
-8.12955
 30
0.0
 10
-8.46408
 20
-8.28166
 30
0.0
 10
-8.39726
 20
-8.42834
 30
0.0
 10
-8.393
 20
-8.5974
 30
0.0
 10
-8.393
 20
-8.5974
 30
0.0
 10
-8.38398
 20
-8.95054
 30
0.0
 10
-8.79194
 20
-9.15825
 30
0.0
 10
-9.06994
 20
-8.92181
 30
0.0
 10
-9.06994
 20
-8.92181
 30
0.0
 10
-8.88416
 20
-8.844
 30
0.0
 10
-8.7142
 20
-8.55745
 30
0.0
 10
-8.94555
 20
-8.41878
 30
0.0
 10
-8.94555
 20
-8.41878
 30
0.0
 10
-9.03898
 20
-8.36278
 30
0.0
 10
-9.09357
 20
-8.38619
 30
0.0
 10
-9.16522
 20
-8.44409
 30
0.0
 10
-9.16522
 20
-8.44409
 30
0.0
 10
-9.17674
 20
-8.5799
 30
0.0
 10
-9.21613
 20
-8.72187
 30
0.0
 10
-9.2599
 20
-8.8259
 30
0.0
 10
-9.2599
 20
-8.8259
 30
0.0
 10
-9.30952
 20
-8.94381
 30
0.0
 10
-9.40201
 20
-9.03549
 30
0.0
 10
-9.51256
 20
-9.10268
 30
0.0
 10
-9.51256
 20
-9.10268
 30
0.0
 10
-9.51256
 20
-9.10268
 30
0.0
 10
-9.51256
 20
-9.29995
 30
0.0
 10
-9.51256
 20
-9.29995
 30
0.0
 10
-9.51256
 20
-9.29995
 30
0.0
 10
-9.51256
 20
-9.29995
 30
0.0
 10
-8.30005
 20
-9.29995
 30
0.0
 10
-8.30005
 20
-9.29995
 30
0.0
 10
-8.30005
 20
-9.29995
 30
0.0
 10
-8.02391
 20
-9.29995
 30
0.0
 10
-7.80005
 20
-9.52381
 30
0.0
 10
-7.80005
 20
-9.79995
 30
0.0
 10
-7.80005
 20
-9.79995
 30
0.0
 10
-7.80005
 20
-9.79995
 30
0.0
 10
-7.80005
 20
-10.19995
 30
0.0
 10
-7.80005
 20
-10.19995
 30
0.0
 10
-7.80005
 20
-10.19995
 30
0.0
 10
-7.80005
 20
-10.47609
 30
0.0
 10
-8.02391
 20
-10.69995
 30
0.0
 10
-8.30005
 20
-10.69995
 30
0.0
  0
SPLINE
  5
47
330
1F
100
AcDbEntity
  8
Layer 1
 62
     5
370
    53
100
AcDbSpline
210
0.0
220
0.0
230
1.0
 70
     8
 71
     3
 72
     8
 73
     4
 74
     0
 42
0.0000000001
 43
0.0000000001
 12
1.0
 22
0.0
 32
0.0
 13
1.0
 23
0.0
 33
0.0
 40
0.0
 40
0.0
 40
0.0
 40
0.0
 40
1.0
 40
1.0
 40
1.0
 40
1.0
 10
-10.23444
 20
-7.0357
 30
0.0
 10
-10.23444
 20
-6.74806
 30
0.0
 10
-10.42904
 20
-6.50592
 30
0.0
 10
-10.69375
 20
-6.43362
 30
0.0
  0
SPLINE
  5
48
330
1F
100
AcDbEntity
  8
Layer 1
 62
     5
370
    53
100
AcDbSpline
210
0.0
220
0.0
230
1.0
 70
     8
 71
     3
 72
    16
 73
    12
 74
     0
 42
0.0000000001
 43
0.0000000001
 12
1.0
 22
0.0
 32
0.0
 13
1.0
 23
0.0
 33
0.0
 40
0.0
 40
0.0
 40
0.0
 40
0.0
 40
0.25
 40
0.25
 40
0.25
 40
0.25
 40
0.5
 40
0.5
 40
0.5
 40
0.5
 40
1.0
 40
1.0
 40
1.0
 40
1.0
 10
-11.1893
 20
-6.50637
 30
0.0
 10
-11.36549
 20
-6.61669
 30
0.0
 10
-11.48268
 20
-6.8125
 30
0.0
 10
-11.48268
 20
-7.0357
 30
0.0
 10
-11.48268
 20
-7.0357
 30
0.0
 10
-11.48268
 20
-7.3804
 30
0.0
 10
-11.20325
 20
-7.65983
 30
0.0
 10
-10.85856
 20
-7.65983
 30
0.0
 10
-10.85856
 20
-7.65983
 30
0.0
 10
-10.51388
 20
-7.65983
 30
0.0
 10
-10.23444
 20
-7.3804
 30
0.0
 10
-10.23444
 20
-7.0357
 30
0.0
  0
SPLINE
  5
49
330
1F
100
AcDbEntity
  8
Layer 1
 62
     5
370
    53
100
AcDbSpline
210
0.0
220
0.0
230
1.0
 70
    11
 71
     3
 72
    16
 73
    12
 74
     0
 42
0.0000000001
 43
0.0000000001
 12
1.0
 22
0.0
 32
0.0
 13
1.0
 23
0.0
 33
0.0
 40
0.0
 40
0.0
 40
0.0
 40
0.0
 40
0.25
 40
0.25
 40
0.25
 40
0.25
 40
0.5
 40
0.5
 40
0.5
 40
0.5
 40
1.0
 40
1.0
 40
1.0
 40
1.0
 10
-10.77218
 20
-7.16337
 30
0.0
 10
-10.8341
 20
-7.20773
 30
0.0
 10
-10.9169
 20
-7.16395
 30
0.0
 10
-10.92923
 20
-7.09156
 30
0.0
 10
-10.92923
 20
-7.09156
 30
0.0
 10
-10.94515
 20
-6.99768
 30
0.0
 10
-10.81373
 20
-6.94564
 30
0.0
 10
-10.75343
 20
-7.01565
 30
0.0
 10
-10.75343
 20
-7.01565
 30
0.0
 10
-10.71707
 20
-7.05784
 30
0.0
 10
-10.72655
 20
-7.13063
 30
0.0
 10
-10.77218
 20
-7.16337
 30
0.0
  0
SPLINE
  5
4A
330
1F
100
AcDbEntity
  8
Layer 1
 62
     5
370
    53
100
AcDbSpline
210
0.0
220
0.0
230
1.0
 70
    11
 71
     3
 72
    16
 73
    12
 74
     0
 42
0.0000000001
 43
0.0000000001
 12
1.0
 22
0.0
 32
0.0
 13
1.0
 23
0.0
 33
0.0
 40
0.0
 40
0.0
 40
0.0
 40
0.0
 40
0.25
 40
0.25
 40
0.25
 40
0.25
 40
0.5
 40
0.5
 40
0.5
 40
0.5
 40
1.0
 40
1.0
 40
1.0
 40
1.0
 10
-10.83146
 20
-7.0459
 30
0.0
 10
-10.83533
 20
-7.03198
 30
0.0
 10
-10.84973
 20
-7.02148
 30
0.0
 10
-10.86877
 20
-7.0267
 30
0.0
 10
-10.86877
 20
-7.0267
 30
0.0
 10
-10.90721
 20
-7.03725
 30
0.0
 10
-10.89404
 20
-7.09381
 30
0.0
 10
-10.85407
 20
-7.08611
 30
0.0
 10
-10.85407
 20
-7.08611
 30
0.0
 10
-10.83587
 20
-7.08259
 30
0.0
 10
-10.82706
 20
-7.06174
 30
0.0
 10
-10.83146
 20
-7.0459
 30
0.0
  0
SPLINE
  5
4B
330
1F
100
AcDbEntity
  8
Layer 1
 62
     5
370
    53
100
AcDbSpline
210
0.0
220
0.0
230
1.0
 70
    24
 71
     3
 72
     8
 73
     4
 74
     0
 42
0.0000000001
 43
0.0000000001
 12
1.0
 22
0.0
 32
0.0
 13
1.0
 23
0.0
 33
0.0
 40
0.0
 40
0.0
 40
0.0
 40
0.0
 40
1.0
 40
1.0
 40
1.0
 40
1.0
 10
-10.45344
 20
-6.56116
 30
0.0
 10
-10.45344
 20
-6.56116
 30
0.0
 10
-10.32935
 20
-6.43351
 30
0.0
 10
-10.32935
 20
-6.43351
 30
0.0
  0
SPLINE
  5
4C
330
1F
100
AcDbEntity
  8
Layer 1
 62
     5
370
    53
100
AcDbSpline
210
0.0
220
0.0
230
1.0
 70
    24
 71
     3
 72
     8
 73
     4
 74
     0
 42
0.0000000001
 43
0.0000000001
 12
1.0
 22
0.0
 32
0.0
 13
1.0
 23
0.0
 33
0.0
 40
0.0
 40
0.0
 40
0.0
 40
0.0
 40
1.0
 40
1.0
 40
1.0
 40
1.0
 10
-11.33396
 20
-6.63155
 30
0.0
 10
-11.33396
 20
-6.63155
 30
0.0
 10
-11.45571
 20
-6.51971
 30
0.0
 10
-11.45571
 20
-6.51971
 30
0.0
  0
SPLINE
  5
4D
330
1F
100
AcDbEntity
  8
Layer 1
 62
     5
370
    53
100
AcDbSpline
210
0.0
220
0.0
230
1.0
 70
    11
 71
     3
 72
   108
 73
   104
 74
     0
 42
0.0000000001
 43
0.0000000001
 12
1.0
 22
0.0
 32
0.0
 13
1.0
 23
0.0
 33
0.0
 40
0.0
 40
0.0
 40
0.0
 40
0.0
 40
0.037037037037037
 40
0.037037037037037
 40
0.037037037037037
 40
0.037037037037037
 40
0.0740740740740741
 40
0.0740740740740741
 40
0.0740740740740741
 40
0.0740740740740741
 40
0.1111111111111111
 40
0.1111111111111111
 40
0.1111111111111111
 40
0.1111111111111111
 40
0.1481481481481481
 40
0.1481481481481481
 40
0.1481481481481481
 40
0.1481481481481481
 40
0.1851851851851852
 40
0.1851851851851852
 40
0.1851851851851852
 40
0.1851851851851852
 40
0.2222222222222222
 40
0.2222222222222222
 40
0.2222222222222222
 40
0.2222222222222222
 40
0.2592592592592592
 40
0.2592592592592592
 40
0.2592592592592592
 40
0.2592592592592592
 40
0.2962962962962963
 40
0.2962962962962963
 40
0.2962962962962963
 40
0.2962962962962963
 40
0.3333333333333333
 40
0.3333333333333333
 40
0.3333333333333333
 40
0.3333333333333333
 40
0.3703703703703703
 40
0.3703703703703703
 40
0.3703703703703703
 40
0.3703703703703703
 40
0.4074074074074074
 40
0.4074074074074074
 40
0.4074074074074074
 40
0.4074074074074074
 40
0.4444444444444444
 40
0.4444444444444444
 40
0.4444444444444444
 40
0.4444444444444444
 40
0.4814814814814815
 40
0.4814814814814815
 40
0.4814814814814815
 40
0.4814814814814815
 40
0.5185185185185185
 40
0.5185185185185185
 40
0.5185185185185185
 40
0.5185185185185185
 40
0.5555555555555556
 40
0.5555555555555556
 40
0.5555555555555556
 40
0.5555555555555556
 40
0.5925925925925926
 40
0.5925925925925926
 40
0.5925925925925926
 40
0.5925925925925926
 40
0.6296296296296297
 40
0.6296296296296297
 40
0.6296296296296297
 40
0.6296296296296297
 40
0.6666666666666666
 40
0.6666666666666666
 40
0.6666666666666666
 40
0.6666666666666666
 40
0.7037037037037037
 40
0.7037037037037037
 40
0.7037037037037037
 40
0.7037037037037037
 40
0.7407407407407407
 40
0.7407407407407407
 40
0.7407407407407407
 40
0.7407407407407407
 40
0.7777777777777778
 40
0.7777777777777778
 40
0.7777777777777778
 40
0.7777777777777778
 40
0.8148148148148148
 40
0.8148148148148148
 40
0.8148148148148148
 40
0.8148148148148148
 40
0.8518518518518519
 40
0.8518518518518519
 40
0.8518518518518519
 40
0.8518518518518519
 40
0.8888888888888888
 40
0.8888888888888888
 40
0.8888888888888888
 40
0.8888888888888888
 40
0.9259259259259259
 40
0.9259259259259259
 40
0.9259259259259259
 40
0.9259259259259259
 40
1.0
 40
1.0
 40
1.0
 40
1.0
 10
-11.39744
 20
-6.44554
 30
0.0
 10
-11.32487
 20
-6.34715
 30
0.0
 10
-11.19511
 20
-6.28148
 30
0.0
 10
-11.11757
 20
-6.18173
 30
0.0
 10
-11.11757
 20
-6.18173
 30
0.0
 10
-11.05553
 20
-6.10191
 30
0.0
 10
-10.99638
 20
-6.01584
 30
0.0
 10
-10.95476
 20
-5.92482
 30
0.0
 10
-10.95476
 20
-5.92482
 30
0.0
 10
-10.93863
 20
-5.88958
 30
0.0
 10
-10.9004
 20
-5.82896
 30
0.0
 10
-10.94153
 20
-5.80271
 30
0.0
 10
-10.94153
 20
-5.80271
 30
0.0
 10
-10.97646
 20
-5.78041
 30
0.0
 10
-11.07051
 20
-5.83063
 30
0.0
 10
-11.10199
 20
-5.84472
 30
0.0
 10
-11.10199
 20
-5.84472
 30
0.0
 10
-11.21247
 20
-5.8942
 30
0.0
 10
-11.30972
 20
-5.9655
 30
0.0
 10
-11.41121
 20
-6.02891
 30
0.0
 10
-11.41121
 20
-6.02891
 30
0.0
 10
-11.43716
 20
-6.04509
 30
0.0
 10
-11.72611
 20
-6.17699
 30
0.0
 10
-11.72577
 20
-6.17191
 30
0.0
 10
-11.72577
 20
-6.17191
 30
0.0
 10
-11.70389
 20
-5.86024
 30
0.0
 10
-11.56637
 20
-5.56594
 30
0.0
 10
-11.36013
 20
-5.3136
 30
0.0
 10
-11.36013
 20
-5.3136
 30
0.0
 10
-11.36013
 20
-5.3136
 30
0.0
 10
-11.34202
 20
-5.29143
 30
0.0
 10
-11.31673
 20
-5.26047
 30
0.0
 10
-11.31673
 20
-5.26047
 30
0.0
 10
-11.41411
 20
-5.35059
 30
0.0
 10
-11.55281
 20
-5.34471
 30
0.0
 10
-11.67218
 20
-5.41573
 30
0.0
 10
-11.67218
 20
-5.41573
 30
0.0
 10
-11.52059
 20
-5.04108
 30
0.0
 10
-11.0708
 20
-4.77801
 30
0.0
 10
-10.69346
 20
-4.64044
 30
0.0
 10
-10.69346
 20
-4.64044
 30
0.0
 10
-10.46892
 20
-4.55859
 30
0.0
 10
-10.20263
 20
-4.49062
 30
0.0
 10
-9.96014
 20
-4.53087
 30
0.0
 10
-9.96014
 20
-4.53087
 30
0.0
 10
-9.69491
 20
-4.57489
 30
0.0
 10
-9.43397
 20
-4.65738
 30
0.0
 10
-9.20252
 20
-4.79616
 30
0.0
 10
-9.20252
 20
-4.79616
 30
0.0
 10
-8.97814
 20
-4.93065
 30
0.0
 10
-8.73485
 20
-5.13663
 30
0.0
 10
-8.62756
 20
-5.38083
 30
0.0
 10
-8.62756
 20
-5.38083
 30
0.0
 10
-8.57369
 20
-5.50338
 30
0.0
 10
-8.54935
 20
-5.63748
 30
0.0
 10
-8.55131
 20
-5.7711
 30
0.0
 10
-8.55131
 20
-5.7711
 30
0.0
 10
-8.5523
 20
-5.83883
 30
0.0
 10
-8.55997
 20
-5.90643
 30
0.0
 10
-8.57346
 20
-5.97282
 30
0.0
 10
-8.57346
 20
-5.97282
 30
0.0
 10
-8.57914
 20
-6.00082
 30
0.0
 10
-8.64216
 20
-6.15455
 30
0.0
 10
-8.63201
 20
-6.17088
 30
0.0
 10
-8.63201
 20
-6.17088
 30
0.0
 10
-8.72828
 20
-6.01599
 30
0.0
 10
-8.82745
 20
-5.85063
 30
0.0
 10
-8.90065
 20
-5.6874
 30
0.0
 10
-8.90065
 20
-5.6874
 30
0.0
 10
-8.98322
 20
-5.78403
 30
0.0
 10
-9.07358
 20
-5.89556
 30
0.0
 10
-9.17867
 20
-5.97441
 30
0.0
 10
-9.17867
 20
-5.97441
 30
0.0
 10
-9.27506
 20
-6.04674
 30
0.0
 10
-9.3817
 20
-6.10574
 30
0.0
 10
-9.49154
 20
-6.1579
 30
0.0
 10
-9.49154
 20
-6.1579
 30
0.0
 10
-9.56334
 20
-6.19196
 30
0.0
 10
-9.65959
 20
-6.25497
 30
0.0
 10
-9.74168
 20
-6.24867
 30
0.0
 10
-9.74168
 20
-6.24867
 30
0.0
 10
-9.70763
 20
-6.15467
 30
0.0
 10
-9.64833
 20
-6.07262
 30
0.0
 10
-9.62947
 20
-5.97252
 30
0.0
 10
-9.62947
 20
-5.97252
 30
0.0
 10
-9.61528
 20
-5.8974
 30
0.0
 10
-9.54714
 20
-5.6601
 30
0.0
 10
-9.61404
 20
-5.60558
 30
0.0
 10
-9.61404
 20
-5.60558
 30
0.0
 10
-9.75995
 20
-5.75726
 30
0.0
 10
-9.87162
 20
-5.93235
 30
0.0
 10
-10.04179
 20
-6.06798
 30
0.0
 10
-10.04179
 20
-6.06798
 30
0.0
 10
-10.19069
 20
-6.18668
 30
0.0
 10
-10.32638
 20
-6.28597
 30
0.0
 10
-10.5059
 20
-6.36212
 30
0.0
 10
-10.5059
 20
-6.36212
 30
0.0
 10
-10.77683
 20
-6.47702
 30
0.0
 10
-11.10958
 20
-6.574
 30
0.0
 10
-11.40488
 20
-6.4561
 30
0.0
 10
-11.40488
 20
-6.4561
 30
0.0
 10
-11.40248
 20
-6.45253
 30
0.0
 10
-11.4
 20
-6.44902
 30
0.0
 10
-11.39744
 20
-6.44554
 30
0.0
  0
SPLINE
  5
4E
330
1F
100
AcDbEntity
  8
Layer 1
 62
     5
370
    53
100
AcDbSpline
210
0.0
220
0.0
230
1.0
 70
    11
 71
     3
 72
    20
 73
    16
 74
     0
 42
0.0000000001
 43
0.0000000001
 12
1.0
 22
0.0
 32
0.0
 13
1.0
 23
0.0
 33
0.0
 40
0.0
 40
0.0
 40
0.0
 40
0.0
 40
0.2
 40
0.2
 40
0.2
 40
0.2
 40
0.4
 40
0.4
 40
0.4
 40
0.4
 40
0.6
 40
0.6
 40
0.6
 40
0.6
 40
1.0
 40
1.0
 40
1.0
 40
1.0
 10
-8.6072
 20
-7.0357
 30
0.0
 10
-8.6072
 20
-6.691
 30
0.0
 10
-8.88664
 20
-6.41158
 30
0.0
 10
-9.23132
 20
-6.41158
 30
0.0
 10
-9.23132
 20
-6.41158
 30
0.0
 10
-9.57603
 20
-6.41158
 30
0.0
 10
-9.85547
 20
-6.691
 30
0.0
 10
-9.85547
 20
-7.0357
 30
0.0
 10
-9.85547
 20
-7.0357
 30
0.0
 10
-9.85547
 20
-7.3804
 30
0.0
 10
-9.57603
 20
-7.65983
 30
0.0
 10
-9.23132
 20
-7.65983
 30
0.0
 10
-9.23132
 20
-7.65983
 30
0.0
 10
-8.88664
 20
-7.65983
 30
0.0
 10
-8.6072
 20
-7.3804
 30
0.0
 10
-8.6072
 20
-7.0357
 30
0.0
  0
SPLINE
  5
4F
330
1F
100
AcDbEntity
  8
Layer 1
 62
     5
370
    53
100
AcDbSpline
210
0.0
220
0.0
230
1.0
 70
    11
 71
     3
 72
    20
 73
    16
 74
     0
 42
0.0000000001
 43
0.0000000001
 12
1.0
 22
0.0
 32
0.0
 13
1.0
 23
0.0
 33
0.0
 40
0.0
 40
0.0
 40
0.0
 40
0.0
 40
0.2
 40
0.2
 40
0.2
 40
0.2
 40
0.4
 40
0.4
 40
0.4
 40
0.4
 40
0.6
 40
0.6
 40
0.6
 40
0.6
 40
1.0
 40
1.0
 40
1.0
 40
1.0
 10
-9.13461
 20
-7.10944
 30
0.0
 10
-9.14552
 20
-7.14175
 30
0.0
 10
-9.16996
 20
-7.16947
 30
0.0
 10
-9.20316
 20
-7.17829
 30
0.0
 10
-9.20316
 20
-7.17829
 30
0.0
 10
-9.27559
 20
-7.19752
 30
0.0
 10
-9.35659
 20
-7.11802
 30
0.0
 10
-9.32871
 20
-7.04402
 30
0.0
 10
-9.32871
 20
-7.04402
 30
0.0
 10
-9.30605
 20
-6.96818
 30
0.0
 10
-9.19342
 20
-6.95398
 30
0.0
 10
-9.14745
 20
-7.01317
 30
0.0
 10
-9.14745
 20
-7.01317
 30
0.0
 10
-9.12637
 20
-7.04029
 30
0.0
 10
-9.12371
 20
-7.07714
 30
0.0
 10
-9.13461
 20
-7.10944
 30
0.0
  0
SPLINE
  5
50
330
1F
100
AcDbEntity
  8
Layer 1
 62
     5
370
    53
100
AcDbSpline
210
0.0
220
0.0
230
1.0
 70
    11
 71
     3
 72
    24
 73
    20
 74
     0
 42
0.0000000001
 43
0.0000000001
 12
1.0
 22
0.0
 32
0.0
 13
1.0
 23
0.0
 33
0.0
 40
0.0
 40
0.0
 40
0.0
 40
0.0
 40
0.1666666666666667
 40
0.1666666666666667
 40
0.1666666666666667
 40
0.1666666666666667
 40
0.3333333333333333
 40
0.3333333333333333
 40
0.3333333333333333
 40
0.3333333333333333
 40
0.5
 40
0.5
 40
0.5
 40
0.5
 40
0.6666666666666666
 40
0.6666666666666666
 40
0.6666666666666666
 40
0.6666666666666666
 40
1.0
 40
1.0
 40
1.0
 40
1.0
 10
-9.2744
 20
-7.02868
 30
0.0
 10
-9.26417
 20
-7.02103
 30
0.0
 10
-9.24967
 20
-7.01876
 30
0.0
 10
-9.23871
 20
-7.02605
 30
0.0
 10
-9.23871
 20
-7.02605
 30
0.0
 10
-9.2237
 20
-7.03607
 30
0.0
 10
-9.22169
 20
-7.05885
 30
0.0
 10
-9.23404
 20
-7.07182
 30
0.0
 10
-9.23404
 20
-7.07182
 30
0.0
 10
-9.24357
 20
-7.08187
 30
0.0
 10
-9.26034
 20
-7.08402
 30
0.0
 10
-9.27209
 20
-7.07674
 30
0.0
 10
-9.27209
 20
-7.07674
 30
0.0
 10
-9.27995
 20
-7.0719
 30
0.0
 10
-9.28499
 20
-7.06319
 30
0.0
 10
-9.28613
 20
-7.05412
 30
0.0
 10
-9.28613
 20
-7.05412
 30
0.0
 10
-9.28739
 20
-7.0437
 30
0.0
 10
-9.28266
 20
-7.03494
 30
0.0
 10
-9.2744
 20
-7.02868
 30
0.0
  0
SPLINE
  5
51
330
1F
100
AcDbEntity
  8
Layer 1
 62
     5
370
    53
100
AcDbSpline
210
0.0
220
0.0
230
1.0
 70
    24
 71
     3
 72
     8
 73
     4
 74
     0
 42
0.0000000001
 43
0.0000000001
 12
1.0
 22
0.0
 32
0.0
 13
1.0
 23
0.0
 33
0.0
 40
0.0
 40
0.0
 40
0.0
 40
0.0
 40
1.0
 40
1.0
 40
1.0
 40
1.0
 10
-9.63652
 20
-6.56116
 30
0.0
 10
-9.63652
 20
-6.56116
 30
0.0
 10
-9.77509
 20
-6.43351
 30
0.0
 10
-9.77509
 20
-6.43351
 30
0.0
  0
SPLINE
  5
52
330
1F
100
AcDbEntity
  8
Layer 1
 62
     5
370
    53
100
AcDbSpline
210
0.0
220
0.0
230
1.0
 70
    24
 71
     3
 72
     8
 73
     4
 74
     0
 42
0.0000000001
 43
0.0000000001
 12
1.0
 22
0.0
 32
0.0
 13
1.0
 23
0.0
 33
0.0
 40
0.0
 40
0.0
 40
0.0
 40
0.0
 40
1.0
 40
1.0
 40
1.0
 40
1.0
 10
-9.23132
 20
-6.41159
 30
0.0
 10
-9.23132
 20
-6.41159
 30
0.0
 10
-9.22595
 20
-6.19929
 30
0.0
 10
-9.22595
 20
-6.19929
 30
0.0
  0
SPLINE
  5
53
330
1F
100
AcDbEntity
  8
Layer 1
 62
     5
370
    53
100
AcDbSpline
210
0.0
220
0.0
230
1.0
 70
    24
 71
     3
 72
     8
 73
     4
 74
     0
 42
0.0000000001
 43
0.0000000001
 12
1.0
 22
0.0
 32
0.0
 13
1.0
 23
0.0
 33
0.0
 40
0.0
 40
0.0
 40
0.0
 40
0.0
 40
1.0
 40
1.0
 40
1.0
 40
1.0
 10
-8.79905
 20
-6.58576
 30
0.0
 10
-8.79905
 20
-6.58576
 30
0.0
 10
-8.62402
 20
-6.43353
 30
0.0
 10
-8.62402
 20
-6.43353
 30
0.0
  0
SPLINE
  5
54
330
1F
100
AcDbEntity
  8
Layer 1
 62
     5
370
    53
100
AcDbSpline
210
0.0
220
0.0
230
1.0
 70
     8
 71
     3
 72
    36
 73
    32
 74
     0
 42
0.0000000001
 43
0.0000000001
 12
1.0
 22
0.0
 32
0.0
 13
1.0
 23
0.0
 33
0.0
 40
0.0
 40
0.0
 40
0.0
 40
0.0
 40
0.1111111111111111
 40
0.1111111111111111
 40
0.1111111111111111
 40
0.1111111111111111
 40
0.2222222222222222
 40
0.2222222222222222
 40
0.2222222222222222
 40
0.2222222222222222
 40
0.3333333333333333
 40
0.3333333333333333
 40
0.3333333333333333
 40
0.3333333333333333
 40
0.4444444444444444
 40
0.4444444444444444
 40
0.4444444444444444
 40
0.4444444444444444
 40
0.5555555555555556
 40
0.5555555555555556
 40
0.5555555555555556
 40
0.5555555555555556
 40
0.6666666666666666
 40
0.6666666666666666
 40
0.6666666666666666
 40
0.6666666666666666
 40
0.7777777777777778
 40
0.7777777777777778
 40
0.7777777777777778
 40
0.7777777777777778
 40
1.0
 40
1.0
 40
1.0
 40
1.0
 10
-10.84055
 20
-8.17704
 30
0.0
 10
-10.79038
 20
-8.07047
 30
0.0
 10
-10.66775
 20
-7.93669
 30
0.0
 10
-10.55938
 20
-7.88567
 30
0.0
 10
-10.55938
 20
-7.88567
 30
0.0
 10
-10.4445
 20
-7.83162
 30
0.0
 10
-10.32084
 20
-7.8837
 30
0.0
 10
-10.20852
 20
-7.91778
 30
0.0
 10
-10.20852
 20
-7.91778
 30
0.0
 10
-10.09238
 20
-7.95299
 30
0.0
 10
-9.97361
 20
-7.95754
 30
0.0
 10
-9.86263
 20
-7.90122
 30
0.0
 10
-9.86263
 20
-7.90122
 30
0.0
 10
-9.79772
 20
-7.86827
 30
0.0
 10
-9.72137
 20
-7.84174
 30
0.0
 10
-9.64784
 20
-7.8439
 30
0.0
 10
-9.64784
 20
-7.8439
 30
0.0
 10
-9.61515
 20
-7.84485
 30
0.0
 10
-9.57957
 20
-7.85266
 30
0.0
 10
-9.54823
 20
-7.86191
 30
0.0
 10
-9.54823
 20
-7.86191
 30
0.0
 10
-9.47893
 20
-7.88236
 30
0.0
 10
-9.41356
 20
-7.91478
 30
0.0
 10
-9.36
 20
-7.964
 30
0.0
 10
-9.36
 20
-7.964
 30
0.0
 10
-9.28646
 20
-8.03155
 30
0.0
 10
-9.22445
 20
-8.12814
 30
0.0
 10
-9.18272
 20
-8.21821
 30
0.0
 10
-9.18272
 20
-8.21821
 30
0.0
 10
-9.18453
 20
-8.21956
 30
0.0
 10
-9.1859
 20
-8.22127
 30
0.0
 10
-9.18691
 20
-8.22334
 30
0.0
  0
SPLINE
  5
55
330
1F
100
AcDbEntity
  8
Layer 1
 62
     5
370
    53
100
AcDbSpline
210
0.0
220
0.0
230
1.0
 70
     8
 71
     3
 72
     8
 73
     4
 74
     0
 42
0.0000000001
 43
0.0000000001
 12
1.0
 22
0.0
 32
0.0
 13
1.0
 23
0.0
 33
0.0
 40
0.0
 40
0.0
 40
0.0
 40
0.0
 40
1.0
 40
1.0
 40
1.0
 40
1.0
 10
-9.76781
 20
-5.59968
 30
0.0
 10
-10.0052
 20
-5.32681
 30
0.0
 10
-10.25607
 20
-5.14827
 30
0.0
 10
-10.48272
 20
-4.86924
 30
0.0
  0
SPLINE
  5
56
330
1F
100
AcDbEntity
  8
Layer 1
 62
     5
370
    53
100
AcDbSpline
210
0.0
220
0.0
230
1.0
 70
     8
 71
     3
 72
    12
 73
     8
 74
     0
 42
0.0000000001
 43
0.0000000001
 12
1.0
 22
0.0
 32
0.0
 13
1.0
 23
0.0
 33
0.0
 40
0.0
 40
0.0
 40
0.0
 40
0.0
 40
0.3333333333333333
 40
0.3333333333333333
 40
0.3333333333333333
 40
0.3333333333333333
 40
1.0
 40
1.0
 40
1.0
 40
1.0
 10
-10.40857
 20
-4.33725
 30
0.0
 10
-10.23961
 20
-4.53128
 30
0.0
 10
-10.05952
 20
-4.70152
 30
0.0
 10
-9.88333
 20
-4.88955
 30
0.0
 10
-9.88333
 20
-4.88955
 30
0.0
 10
-9.82274
 20
-4.95418
 30
0.0
 10
-9.76886
 20
-5.02949
 30
0.0
 10
-9.69768
 20
-5.09541
 30
0.0
  0
SPLINE
  5
57
330
1F
100
AcDbEntity
  8
Layer 1
 62
     5
370
    53
100
AcDbSpline
210
0.0
220
0.0
230
1.0
 70
     8
 71
     3
 72
    16
 73
    12
 74
     0
 42
0.0000000001
 43
0.0000000001
 12
1.0
 22
0.0
 32
0.0
 13
1.0
 23
0.0
 33
0.0
 40
0.0
 40
0.0
 40
0.0
 40
0.0
 40
0.25
 40
0.25
 40
0.25
 40
0.25
 40
0.5
 40
0.5
 40
0.5
 40
0.5
 40
1.0
 40
1.0
 40
1.0
 40
1.0
 10
-10.33658
 20
-3.91398
 30
0.0
 10
-10.26212
 20
-3.97108
 30
0.0
 10
-10.20893
 20
-4.01654
 30
0.0
 10
-10.18085
 20
-4.04313
 30
0.0
 10
-10.18085
 20
-4.04313
 30
0.0
 10
-10.13326
 20
-4.08822
 30
0.0
 10
-10.12411
 20
-4.09862
 30
0.0
 10
-10.07876
 20
-4.14597
 30
0.0
 10
-10.07876
 20
-4.14597
 30
0.0
 10
-9.98012
 20
-4.24903
 30
0.0
 10
-9.88893
 20
-4.35876
 30
0.0
 10
-9.79772
 20
-4.46813
 30
0.0
  0
SPLINE
  5
58
330
1F
100
AcDbEntity
  8
Layer 1
 62
     5
370
    53
100
AcDbSpline
210
0.0
220
0.0
230
1.0
 70
     8
 71
     3
 72
    12
 73
     8
 74
     0
 42
0.0000000001
 43
0.0000000001
 12
1.0
 22
0.0
 32
0.0
 13
1.0
 23
0.0
 33
0.0
 40
0.0
 40
0.0
 40
0.0
 40
0.0
 40
0.3333333333333333
 40
0.3333333333333333
 40
0.3333333333333333
 40
0.3333333333333333
 40
1.0
 40
1.0
 40
1.0
 40
1.0
 10
-10.28821
 20
-3.54683
 30
0.0
 10
-10.22863
 20
-3.59811
 30
0.0
 10
-10.09127
 20
-3.75524
 30
0.0
 10
-10.03058
 20
-3.81657
 30
0.0
 10
-10.03058
 20
-3.81657
 30
0.0
 10
-10.00794
 20
-3.83943
 30
0.0
 10
-9.89485
 20
-3.95661
 30
0.0
 10
-9.84245
 20
-3.99662
 30
0.0
  0
SPLINE
  5
59
330
1F
100
AcDbEntity
  8
Layer 1
 62
     5
370
    53
100
AcDbSpline
210
0.0
220
0.0
230
1.0
 70
     8
 71
     3
 72
    12
 73
     8
 74
     0
 42
0.0000000001
 43
0.0000000001
 12
1.0
 22
0.0
 32
0.0
 13
1.0
 23
0.0
 33
0.0
 40
0.0
 40
0.0
 40
0.0
 40
0.0
 40
0.3333333333333333
 40
0.3333333333333333
 40
0.3333333333333333
 40
0.3333333333333333
 40
1.0
 40
1.0
 40
1.0
 40
1.0
 10
-10.25186
 20
-3.20287
 30
0.0
 10
-10.17762
 20
-3.27759
 30
0.0
 10
-10.13558
 20
-3.29666
 30
0.0
 10
-10.06533
 20
-3.37191
 30
0.0
 10
-10.06533
 20
-3.37191
 30
0.0
 10
-10.02789
 20
-3.41205
 30
0.0
 10
-9.94735
 20
-3.49356
 30
0.0
 10
-9.90278
 20
-3.52453
 30
0.0
  0
SPLINE
  5
5A
330
1F
100
AcDbEntity
  8
Layer 1
 62
     5
370
    53
100
AcDbSpline
210
0.0
220
0.0
230
1.0
 70
     8
 71
     3
 72
     8
 73
     4
 74
     0
 42
0.0000000001
 43
0.0000000001
 12
1.0
 22
0.0
 32
0.0
 13
1.0
 23
0.0
 33
0.0
 40
0.0
 40
0.0
 40
0.0
 40
0.0
 40
1.0
 40
1.0
 40
1.0
 40
1.0
 10
-10.23294
 20
-2.91789
 30
0.0
 10
-10.12682
 20
-2.98953
 30
0.0
 10
-10.04665
 20
-3.08042
 30
0.0
 10
-9.94908
 20
-3.16118
 30
0.0
  0
SPLINE
  5
5B
330
1F
100
AcDbEntity
  8
Layer 1
 62
     5
370
    53
100
AcDbSpline
210
0.0
220
0.0
230
1.0
 70
     8
 71
     3
 72
    12
 73
     8
 74
     0
 42
0.0000000001
 43
0.0000000001
 12
1.0
 22
0.0
 32
0.0
 13
1.0
 23
0.0
 33
0.0
 40
0.0
 40
0.0
 40
0.0
 40
0.0
 40
0.3333333333333333
 40
0.3333333333333333
 40
0.3333333333333333
 40
0.3333333333333333
 40
1.0
 40
1.0
 40
1.0
 40
1.0
 10
-10.20555
 20
-2.60756
 30
0.0
 10
-10.1531
 20
-2.63973
 30
0.0
 10
-10.12811
 20
-2.67669
 30
0.0
 10
-10.09101
 20
-2.71212
 30
0.0
 10
-10.09101
 20
-2.71212
 30
0.0
 10
-10.07543
 20
-2.72697
 30
0.0
 10
-10.03973
 20
-2.75088
 30
0.0
 10
-10.00127
 20
-2.78925
 30
0.0
  0
SPLINE
  5
5C
330
1F
100
AcDbEntity
  8
Layer 1
 62
     5
370
    53
100
AcDbSpline
210
0.0
220
0.0
230
1.0
 70
     8
 71
     3
 72
     8
 73
     4
 74
     0
 42
0.0000000001
 43
0.0000000001
 12
1.0
 22
0.0
 32
0.0
 13
1.0
 23
0.0
 33
0.0
 40
0.0
 40
0.0
 40
0.0
 40
0.0
 40
1.0
 40
1.0
 40
1.0
 40
1.0
 10
-10.17248
 20
-2.27022
 30
0.0
 10
-10.12902
 20
-2.30379
 30
0.0
 10
-10.09101
 20
-2.37205
 30
0.0
 10
-10.03613
 20
-2.43518
 30
0.0
  0
SPLINE
  5
5D
330
1F
100
AcDbEntity
  8
Layer 1
 62
     5
370
    53
100
AcDbSpline
210
0.0
220
0.0
230
1.0
 70
    11
 71
     3
 72
    20
 73
    16
 74
     0
 42
0.0000000001
 43
0.0000000001
 12
1.0
 22
0.0
 32
0.0
 13
1.0
 23
0.0
 33
0.0
 40
0.0
 40
0.0
 40
0.0
 40
0.0
 40
0.2
 40
0.2
 40
0.2
 40
0.2
 40
0.4
 40
0.4
 40
0.4
 40
0.4
 40
0.6
 40
0.6
 40
0.6
 40
0.6
 40
1.0
 40
1.0
 40
1.0
 40
1.0
 10
-10.34115
 20
-8.27295
 30
0.0
 10
-10.38508
 20
-8.30637
 30
0.0
 10
-10.41188
 20
-8.443
 30
0.0
 10
-10.34077
 20
-8.46514
 30
0.0
 10
-10.34077
 20
-8.46514
 30
0.0
 10
-10.27356
 20
-8.48608
 30
0.0
 10
-10.24808
 20
-8.40077
 30
0.0
 10
-10.25186
 20
-8.35167
 30
0.0
 10
-10.25186
 20
-8.35167
 30
0.0
 10
-10.25392
 20
-8.32513
 30
0.0
 10
-10.25824
 20
-8.29087
 30
0.0
 10
-10.28286
 20
-8.27485
 30
0.0
 10
-10.28286
 20
-8.27485
 30
0.0
 10
-10.33149
 20
-8.24323
 30
0.0
 10
-10.34952
 20
-8.29136
 30
0.0
 10
-10.34115
 20
-8.27295
 30
0.0
  0
SPLINE
  5
5E
330
1F
100
AcDbEntity
  8
Layer 1
 62
     5
370
    53
100
AcDbSpline
210
0.0
220
0.0
230
1.0
 70
    11
 71
     3
 72
    20
 73
    16
 74
     0
 42
0.0000000001
 43
0.0000000001
 12
1.0
 22
0.0
 32
0.0
 13
1.0
 23
0.0
 33
0.0
 40
0.0
 40
0.0
 40
0.0
 40
0.0
 40
0.2
 40
0.2
 40
0.2
 40
0.2
 40
0.4
 40
0.4
 40
0.4
 40
0.4
 40
0.6
 40
0.6
 40
0.6
 40
0.6
 40
1.0
 40
1.0
 40
1.0
 40
1.0
 10
-9.71292
 20
-8.27295
 30
0.0
 10
-9.66899
 20
-8.30637
 30
0.0
 10
-9.6422
 20
-8.443
 30
0.0
 10
-9.71331
 20
-8.46514
 30
0.0
 10
-9.71331
 20
-8.46514
 30
0.0
 10
-9.78051
 20
-8.48608
 30
0.0
 10
-9.80599
 20
-8.40077
 30
0.0
 10
-9.80222
 20
-8.35167
 30
0.0
 10
-9.80222
 20
-8.35167
 30
0.0
 10
-9.80015
 20
-8.32513
 30
0.0
 10
-9.79583
 20
-8.29087
 30
0.0
 10
-9.77121
 20
-8.27485
 30
0.0
 10
-9.77121
 20
-8.27485
 30
0.0
 10
-9.72259
 20
-8.24323
 30
0.0
 10
-9.70455
 20
-8.29136
 30
0.0
 10
-9.71292
 20
-8.27295
 30
0.0
  0
SPLINE
  5
5F
330
1F
100
AcDbEntity
  8
Layer 1
 62
     5
370
    53
100
AcDbSpline
210
0.0
220
0.0
230
1.0
 70
     8
 71
     3
 72
     8
 73
     4
 74
     0
 42
0.0000000001
 43
0.0000000001
 12
1.0
 22
0.0
 32
0.0
 13
1.0
 23
0.0
 33
0.0
 40
0.0
 40
0.0
 40
0.0
 40
0.0
 40
1.0
 40
1.0
 40
1.0
 40
1.0
 10
-9.67936
 20
-8.75635
 30
0.0
 10
-9.67936
 20
-8.94046
 30
0.0
 10
-9.82862
 20
-9.08972
 30
0.0
 10
-10.01275
 20
-9.08972
 30
0.0
  0
SPLINE
  5
60
330
1F
100
AcDbEntity
  8
Layer 1
 62
     5
370
    53
100
AcDbSpline
210
0.0
220
0.0
230
1.0
 70
     8
 71
     3
 72
     8
 73
     4
 74
     0
 42
0.0000000001
 43
0.0000000001
 12
1.0
 22
0.0
 32
0.0
 13
1.0
 23
0.0
 33
0.0
 40
0.0
 40
0.0
 40
0.0
 40
0.0
 40
1.0
 40
1.0
 40
1.0
 40
1.0
 10
-10.01216
 20
-9.08972
 30
0.0
 10
-10.19627
 20
-9.08972
 30
0.0
 10
-10.34552
 20
-8.94046
 30
0.0
 10
-10.34552
 20
-8.75635
 30
0.0
  0
SPLINE
  5
61
330
1F
100
AcDbEntity
  8
Layer 1
 62
     5
370
    53
100
AcDbSpline
210
0.0
220
0.0
230
1.0
 70
     8
 71
     3
 72
    40
 73
    36
 74
     0
 42
0.0000000001
 43
0.0000000001
 12
1.0
 22
0.0
 32
0.0
 13
1.0
 23
0.0
 33
0.0
 40
0.0
 40
0.0
 40
0.0
 40
0.0
 40
0.1
 40
0.1
 40
0.1
 40
0.1
 40
0.2
 40
0.2
 40
0.2
 40
0.2
 40
0.3
 40
0.3
 40
0.3
 40
0.3
 40
0.4
 40
0.4
 40
0.4
 40
0.4
 40
0.5
 40
0.5
 40
0.5
 40
0.5
 40
0.6
 40
0.6
 40
0.6
 40
0.6
 40
0.7
 40
0.7
 40
0.7
 40
0.7
 40
0.8
 40
0.8
 40
0.8
 40
0.8
 40
1.0
 40
1.0
 40
1.0
 40
1.0
 10
-10.44255
 20
-4.56301
 30
0.0
 10
-10.46105
 20
-4.68514
 30
0.0
 10
-10.47131
 20
-4.75128
 30
0.0
 10
-10.48998
 20
-4.87338
 30
0.0
 10
-10.48998
 20
-4.87338
 30
0.0
 10
-10.50887
 20
-4.99688
 30
0.0
 10
-10.52768
 20
-5.12039
 30
0.0
 10
-10.54602
 20
-5.24397
 30
0.0
 10
-10.54602
 20
-5.24397
 30
0.0
 10
-10.55594
 20
-5.31076
 30
0.0
 10
-10.56794
 20
-5.41877
 30
0.0
 10
-10.56794
 20
-5.41877
 30
0.0
 10
-10.56794
 20
-5.41877
 30
0.0
 10
-10.56794
 20
-5.41877
 30
0.0
 10
-10.55176
 20
-5.4954
 30
0.0
 10
-10.51742
 20
-5.53515
 30
0.0
 10
-10.51742
 20
-5.53515
 30
0.0
 10
-10.31084
 20
-5.7741
 30
0.0
 10
-9.88715
 20
-5.80873
 30
0.0
 10
-9.70876
 20
-5.52569
 30
0.0
 10
-9.70876
 20
-5.52569
 30
0.0
 10
-9.6792
 20
-5.47874
 30
0.0
 10
-9.64169
 20
-5.37497
 30
0.0
 10
-9.64169
 20
-5.37497
 30
0.0
 10
-9.64169
 20
-5.37497
 30
0.0
 10
-9.64169
 20
-5.37497
 30
0.0
 10
-9.67124
 20
-5.20214
 30
0.0
 10
-9.68333
 20
-5.12531
 30
0.0
 10
-9.68333
 20
-5.12531
 30
0.0
 10
-9.70016
 20
-5.01852
 30
0.0
 10
-9.71324
 20
-4.9137
 30
0.0
 10
-9.73442
 20
-4.80726
 30
0.0
 10
-9.73442
 20
-4.80726
 30
0.0
 10
-9.75143
 20
-4.72172
 30
0.0
 10
-9.76285
 20
-4.65528
 30
0.0
 10
-9.77543
 20
-4.56821
 30
0.0
  0
SPLINE
  5
62
330
1F
100
AcDbEntity
  8
Layer 1
 62
     5
370
    53
100
AcDbSpline
210
0.0
220
0.0
230
1.0
 70
     8
 71
     3
 72
    12
 73
     8
 74
     0
 42
0.0000000001
 43
0.0000000001
 12
1.0
 22
0.0
 32
0.0
 13
1.0
 23
0.0
 33
0.0
 40
0.0
 40
0.0
 40
0.0
 40
0.0
 40
0.3333333333333333
 40
0.3333333333333333
 40
0.3333333333333333
 40
0.3333333333333333
 40
1.0
 40
1.0
 40
1.0
 40
1.0
 10
-8.63201
 20
-6.17088
 30
0.0
 10
-8.6011
 20
-6.33072
 30
0.0
 10
-8.56311
 20
-6.52336
 30
0.0
 10
-8.59142
 20
-6.69079
 30
0.0
 10
-8.59142
 20
-6.69079
 30
0.0
 10
-8.60148
 20
-6.75034
 30
0.0
 10
-8.61287
 20
-6.80326
 30
0.0
 10
-8.63101
 20
-6.86437
 30
0.0
  0
SPLINE
  5
63
330
1F
100
AcDbEntity
  8
Layer 1
 62
     5
370
    53
100
AcDbSpline
210
0.0
220
0.0
230
1.0
 70
     8
 71
     3
 72
    16
 73
    12
 74
     0
 42
0.0000000001
 43
0.0000000001
 12
1.0
 22
0.0
 32
0.0
 13
1.0
 23
0.0
 33
0.0
 40
0.0
 40
0.0
 40
0.0
 40
0.0
 40
0.25
 40
0.25
 40
0.25
 40
0.25
 40
0.5
 40
0.5
 40
0.5
 40
0.5
 40
1.0
 40
1.0
 40
1.0
 40
1.0
 10
-9.48476
 20
-9.08503
 30
0.0
 10
-9.61097
 20
-9.16898
 30
0.0
 10
-9.76511
 20
-9.21883
 30
0.0
 10
-9.90679
 20
-9.23732
 30
0.0
 10
-9.90679
 20
-9.23732
 30
0.0
 10
-10.04218
 20
-9.255
 30
0.0
 10
-10.16602
 20
-9.22894
 30
0.0
 10
-10.2964
 20
-9.18688
 30
0.0
 10
-10.2964
 20
-9.18688
 30
0.0
 10
-10.37769
 20
-9.16062
 30
0.0
 10
-10.45569
 20
-9.13666
 30
0.0
 10
-10.5293
 20
-9.09258
 30
0.0
  0
SPLINE
  5
64
330
1F
100
AcDbEntity
  8
Layer 1
 62
     5
370
    53
100
AcDbSpline
210
0.0
220
0.0
230
1.0
 70
     8
 71
     3
 72
    12
 73
     8
 74
     0
 42
0.0000000001
 43
0.0000000001
 12
1.0
 22
0.0
 32
0.0
 13
1.0
 23
0.0
 33
0.0
 40
0.0
 40
0.0
 40
0.0
 40
0.0
 40
0.3333333333333333
 40
0.3333333333333333
 40
0.3333333333333333
 40
0.3333333333333333
 40
1.0
 40
1.0
 40
1.0
 40
1.0
 10
-11.46778
 20
-6.89569
 30
0.0
 10
-11.5343
 20
-6.71739
 30
0.0
 10
-11.52656
 20
-6.47737
 30
0.0
 10
-11.51886
 20
-6.30069
 30
0.0
 10
-11.51886
 20
-6.30069
 30
0.0
 10
-11.51657
 20
-6.22391
 30
0.0
 10
-11.51741
 20
-6.15315
 30
0.0
 10
-11.51544
 20
-6.07945
 30
0.0
  0
SPLINE
  5
65
330
1F
100
AcDbEntity
  8
Layer 1
370
    53
100
AcDbSpline
210
0.0
220
0.0
230
1.0
 70
    11
 71
     3
 72
    20
 73
    16
 74
     0
 42
0.0000000001
 43
0.0000000001
 12
1.0
 22
0.0
 32
0.0
 13
1.0
 23
0.0
 33
0.0
 40
0.0
 40
0.0
 40
0.0
 40
0.0
 40
0.2
 40
0.2
 40
0.2
 40
0.2
 40
0.4
 40
0.4
 40
0.4
 40
0.4
 40
0.6
 40
0.6
 40
0.6
 40
0.6
 40
1.0
 40
1.0
 40
1.0
 40
1.0
 10
-10.93005
 20
-9.99995
 30
0.0
 10
-10.93005
 20
-9.90054
 30
0.0
 10
-10.84946
 20
-9.81995
 30
0.0
 10
-10.75005
 20
-9.81995
 30
0.0
 10
-10.75005
 20
-9.81995
 30
0.0
 10
-10.65064
 20
-9.81995
 30
0.0
 10
-10.57005
 20
-9.90054
 30
0.0
 10
-10.57005
 20
-9.99995
 30
0.0
 10
-10.57005
 20
-9.99995
 30
0.0
 10
-10.57005
 20
-10.09936
 30
0.0
 10
-10.65064
 20
-10.17995
 30
0.0
 10
-10.75005
 20
-10.17995
 30
0.0
 10
-10.75005
 20
-10.17995
 30
0.0
 10
-10.84946
 20
-10.17995
 30
0.0
 10
-10.93005
 20
-10.09936
 30
0.0
 10
-10.93005
 20
-9.99995
 30
0.0
  0
SPLINE
  5
66
330
1F
100
AcDbEntity
  8
Layer 1
370
    53
100
AcDbSpline
210
0.0
220
0.0
230
1.0
 70
    11
 71
     3
 72
    20
 73
    16
 74
     0
 42
0.0000000001
 43
0.0000000001
 12
1.0
 22
0.0
 32
0.0
 13
1.0
 23
0.0
 33
0.0
 40
0.0
 40
0.0
 40
0.0
 40
0.0
 40
0.2
 40
0.2
 40
0.2
 40
0.2
 40
0.4
 40
0.4
 40
0.4
 40
0.4
 40
0.6
 40
0.6
 40
0.6
 40
0.6
 40
1.0
 40
1.0
 40
1.0
 40
1.0
 10
-9.43005
 20
-9.99995
 30
0.0
 10
-9.43005
 20
-9.90054
 30
0.0
 10
-9.34946
 20
-9.81995
 30
0.0
 10
-9.25005
 20
-9.81995
 30
0.0
 10
-9.25005
 20
-9.81995
 30
0.0
 10
-9.15064
 20
-9.81995
 30
0.0
 10
-9.07005
 20
-9.90054
 30
0.0
 10
-9.07005
 20
-9.99995
 30
0.0
 10
-9.07005
 20
-9.99995
 30
0.0
 10
-9.07005
 20
-10.09936
 30
0.0
 10
-9.15064
 20
-10.17995
 30
0.0
 10
-9.25005
 20
-10.17995
 30
0.0
 10
-9.25005
 20
-10.17995
 30
0.0
 10
-9.34946
 20
-10.17995
 30
0.0
 10
-9.43005
 20
-10.09936
 30
0.0
 10
-9.43005
 20
-9.99995
 30
0.0
  0
ENDSEC
  0
SECTION
  2
OBJECTS
  0
DICTIONARY
  5
C
330
0
100
AcDbDictionary
281
     1
  3
ACAD_GROUP
350
D
  3
ACAD_LAYOUT
350
1A
  3
ACAD_MATERIAL
350
3B
  3
ACAD_MLEADERSTYLE
350
88
  3
ACAD_MLINESTYLE
350
17
  3
ACAD_PLOTSETTINGS
350
19
  3
ACAD_PLOTSTYLENAME
350
E
  3
ACAD_TABLESTYLE
350
87
  3
ACAD_VISUALSTYLE
350
2A
  0
DICTIONARY
  5
D
102
{ACAD_REACTORS
330
C
102
}
330
C
100
AcDbDictionary
281
     1
  0
DICTIONARY
  5
1A
102
{ACAD_REACTORS
330
C
102
}
330
C
100
AcDbDictionary
281
     1
  3
Layout1
350
1E
  3
Layout2
350
26
  3
Model
350
22
  0
DICTIONARY
  5
3B
102
{ACAD_REACTORS
330
C
102
}
330
C
100
AcDbDictionary
281
     1
  3
ByBlock
350
3D
  3
ByLayer
350
3C
  3
Global
350
3E
  0
DICTIONARY
  5
88
102
{ACAD_REACTORS
330
C
102
}
330
C
100
AcDbDictionary
281
     1
  0
DICTIONARY
  5
17
102
{ACAD_REACTORS
330
C
102
}
330
C
100
AcDbDictionary
281
     1
  3
Standard
350
18
  0
DICTIONARY
  5
19
102
{ACAD_REACTORS
330
C
102
}
330
C
100
AcDbDictionary
281
     1
  0
ACDBDICTIONARYWDFLT
  5
E
102
{ACAD_REACTORS
330
C
102
}
330
C
100
AcDbDictionary
281
     1
  3
Normal
350
F
100
AcDbDictionaryWithDefault
340
F
  0
DICTIONARY
  5
87
102
{ACAD_REACTORS
330
C
102
}
330
C
100
AcDbDictionary
281
     1
  0
DICTIONARY
  5
2A
102
{ACAD_REACTORS
330
C
102
}
330
C
100
AcDbDictionary
281
     1
  3
2dWireframe
350
2F
  3
3D Hidden
350
31
  3
3dWireframe
350
30
  3
Basic
350
32
  3
Brighten
350
36
  3
ColorChange
350
3A
  3
Conceptual
350
34
  3
Dim
350
35
  3
Facepattern
350
39
  3
Flat
350
2B
  3
FlatWithEdges
350
2C
  3
Gouraud
350
2D
  3
GouraudWithEdges
350
2E
  3
Linepattern
350
38
  3
Realistic
350
33
  3
Thicken
350
37
  0
LAYOUT
  5
1E
102
{ACAD_REACTORS
330
1A
102
}
330
1A
100
AcDbPlotSettings
  1

  2
none_device
  4

  6

 40
0.0
 41
0.0
 42
0.0
 43
0.0
 44
0.0
 45
0.0
 46
0.0
 47
0.0
 48
0.0
 49
0.0
140
0.0
141
0.0
142
1.0
143
1.0
 70
   688
 72
     0
 73
     0
 74
     5
  7

 75
    16
 76
     0
 77
     2
 78
   300
147
1.0
148
0.0
149
0.0
100
AcDbLayout
  1
Layout1
 70
     1
 71
     1
 10
0.0
 20
0.0
 11
12.0
 21
9.0
 12
0.0
 22
0.0
 32
0.0
 14
1.000000000000000E+20
 24
1.000000000000000E+20
 34
1.000000000000000E+20
 15
-1.000000000000000E+20
 25
-1.000000000000000E+20
 35
-1.000000000000000E+20
146
0.0
 13
0.0
 23
0.0
 33
0.0
 16
1.0
 26
0.0
 36
0.0
 17
0.0
 27
1.0
 37
0.0
 76
     0
330
1B
  0
LAYOUT
  5
26
102
{ACAD_REACTORS
330
1A
102
}
330
1A
100
AcDbPlotSettings
  1

  2
none_device
  4

  6

 40
0.0
 41
0.0
 42
0.0
 43
0.0
 44
0.0
 45
0.0
 46
0.0
 47
0.0
 48
0.0
 49
0.0
140
0.0
141
0.0
142
1.0
143
1.0
 70
   688
 72
     0
 73
     0
 74
     5
  7

 75
    16
 76
     0
 77
     2
 78
   300
147
1.0
148
0.0
149
0.0
100
AcDbLayout
  1
Layout2
 70
     1
 71
     2
 10
0.0
 20
0.0
 11
0.0
 21
0.0
 12
0.0
 22
0.0
 32
0.0
 14
0.0
 24
0.0
 34
0.0
 15
0.0
 25
0.0
 35
0.0
146
0.0
 13
0.0
 23
0.0
 33
0.0
 16
1.0
 26
0.0
 36
0.0
 17
0.0
 27
1.0
 37
0.0
 76
     0
330
23
  0
LAYOUT
  5
22
102
{ACAD_REACTORS
330
1A
102
}
330
1A
100
AcDbPlotSettings
  1

  2
none_device
  4

  6

 40
0.0
 41
0.0
 42
0.0
 43
0.0
 44
0.0
 45
0.0
 46
0.0
 47
0.0
 48
0.0
 49
0.0
140
0.0
141
0.0
142
1.0
143
1.0
 70
  1712
 72
     0
 73
     0
 74
     0
  7

 75
     0
 76
     0
 77
     2
 78
   300
147
1.0
148
0.0
149
0.0
100
AcDbLayout
  1
Model
 70
     1
 71
     0
 10
0.0
 20
0.0
 11
12.0
 21
9.0
 12
0.0
 22
0.0
 32
0.0
 14
-12.33098
 24
-10.72641
 34
0.0
 15
-7.76262
 25
-1.87399
 35
0.0
146
0.0
 13
0.0
 23
0.0
 33
0.0
 16
1.0
 26
0.0
 36
0.0
 17
0.0
 27
1.0
 37
0.0
 76
     0
330
1F
331
29
  0
MATERIAL
  5
3D
102
{ACAD_REACTORS
330
3B
102
}
330
3B
100
AcDbMaterial
  1
ByBlock
 72
     1
 94
      127
  0
MATERIAL
  5
3C
102
{ACAD_REACTORS
330
3B
102
}
330
3B
100
AcDbMaterial
  1
ByLayer
 72
     1
 94
      127
  0
MATERIAL
  5
3E
102
{ACAD_REACTORS
330
3B
102
}
330
3B
100
AcDbMaterial
  1
Global
 72
     1
 94
      127
  0
MLINESTYLE
  5
18
102
{ACAD_REACTORS
330
17
102
}
330
17
100
AcDbMlineStyle
  2
Standard
 70
     0
  3

 62
   256
 51
90.0
 52
90.0
 71
     2
 49
0.5
 62
   256
  6
BYLAYER
 49
-0.5
 62
   256
  6
BYLAYER
  0
ACDBPLACEHOLDER
  5
F
102
{ACAD_REACTORS
330
E
102
}
330
E
  0
VISUALSTYLE
  5
2F
102
{ACAD_REACTORS
330
2A
102
}
102
{ACAD_XDICTIONARY
360
6F
102
}
330
2A
100
AcDbVisualStyle
  2
2dWireframe
 70
     4
 71
     0
 72
     2
 73
     0
 90
        0
 40
-0.6
 41
-30.0
 62
     5
 63
     7
421
 16777215
 74
     1
 91
        4
 64
     7
 65
   257
 75
     1
175
     1
 42
1.0
 92
        0
 66
   257
 43
1.0
 76
     1
 77
     6
 78
     2
 67
     7
 79
     5
170
     0
171
     0
290
     0
174
     0
 93
        1
 44
0.0
173
     0
291
     0
 45
0.0
  0
VISUALSTYLE
  5
31
102
{ACAD_REACTORS
330
2A
102
}
102
{ACAD_XDICTIONARY
360
73
102
}
330
2A
100
AcDbVisualStyle
  2
3D Hidden
 70
     6
 71
     1
 72
     2
 73
     2
 90
        0
 40
-0.6
 41
-30.0
 62
     5
 63
     7
421
 16777215
 74
     2
 91
        2
 64
     7
 65
   257
 75
     2
175
     1
 42
40.0
 92
        0
 66
   257
 43
1.0
 76
     1
 77
     6
 78
     2
 67
     7
 79
     3
170
     0
171
     0
290
     0
174
     0
 93
        1
 44
0.0
173
     0
291
     0
 45
0.0
  0
VISUALSTYLE
  5
30
102
{ACAD_REACTORS
330
2A
102
}
102
{ACAD_XDICTIONARY
360
71
102
}
330
2A
100
AcDbVisualStyle
  2
3dWireframe
 70
     5
 71
     0
 72
     2
 73
     0
 90
        0
 40
-0.6
 41
-30.0
 62
     5
 63
     7
421
 16777215
 74
     1
 91
        4
 64
     7
 65
   257
 75
     1
175
     1
 42
1.0
 92
        0
 66
   257
 43
1.0
 76
     1
 77
     6
 78
     2
 67
     7
 79
     5
170
     0
171
     0
290
     0
174
     0
 93
        1
 44
0.0
173
     0
291
     0
 45
0.0
  0
VISUALSTYLE
  5
32
102
{ACAD_REACTORS
330
2A
102
}
102
{ACAD_XDICTIONARY
360
75
102
}
330
2A
100
AcDbVisualStyle
  2
Basic
 70
     7
 71
     1
 72
     0
 73
     1
 90
        0
 40
-0.6
 41
-30.0
 62
     5
 63
     7
421
 16777215
 74
     0
 91
        4
 64
     7
 65
   257
 75
     1
175
     1
 42
1.0
 92
        8
 66
     7
 43
1.0
 76
     1
 77
     6
 78
     2
 67
     7
 79
     5
170
     0
171
     0
290
     0
174
     0
 93
        1
 44
0.0
173
     0
291
     1
 45
0.0
  0
VISUALSTYLE
  5
36
102
{ACAD_REACTORS
330
2A
102
}
102
{ACAD_XDICTIONARY
360
7D
102
}
330
2A
100
AcDbVisualStyle
  2
Brighten
 70
    12
 71
     2
 72
     2
 73
     0
 90
        0
 40
-0.6
 41
-30.0
 62
     5
 63
     7
421
 16777215
 74
     1
 91
        4
 64
     7
 65
   257
 75
     1
175
     1
 42
1.0
 92
        8
 66
     7
 43
1.0
 76
     1
 77
     6
 78
     2
 67
     7
 79
     5
170
     0
171
     0
290
     0
174
     0
 93
        1
 44
50.0
173
     0
291
     1
 45
0.0
  0
VISUALSTYLE
  5
3A
102
{ACAD_REACTORS
330
2A
102
}
102
{ACAD_XDICTIONARY
360
85
102
}
330
2A
100
AcDbVisualStyle
  2
ColorChange
 70
    16
 71
     2
 72
     2
 73
     3
 90
        0
 40
-0.6
 41
-30.0
 62
     5
 63
     8
421
  8421504
 74
     1
 91
        4
 64
     7
 65
   257
 75
     1
175
     1
 42
1.0
 92
        8
 66
     8
424
  8421504
 43
1.0
 76
     1
 77
     6
 78
     2
 67
     7
 79
     5
170
     0
171
     0
290
     0
174
     0
 93
        1
 44
0.0
173
     0
291
     1
 45
0.0
  0
VISUALSTYLE
  5
34
102
{ACAD_REACTORS
330
2A
102
}
102
{ACAD_XDICTIONARY
360
79
102
}
330
2A
100
AcDbVisualStyle
  2
Conceptual
 70
     9
 71
     3
 72
     2
 73
     0
 90
        0
 40
-0.6
 41
-30.0
 62
     5
 63
     7
421
 16777215
 74
     2
 91
        2
 64
     7
 65
   257
 75
     1
175
     1
 42
40.0
 92
        8
 66
     7
 43
1.0
 76
     1
 77
     6
 78
     2
 67
     7
 79
     3
170
     0
171
     0
290
     0
174
     0
 93
        1
 44
0.0
173
     0
291
     0
 45
0.0
  0
VISUALSTYLE
  5
35
102
{ACAD_REACTORS
330
2A
102
}
102
{ACAD_XDICTIONARY
360
7B
102
}
330
2A
100
AcDbVisualStyle
  2
Dim
 70
    11
 71
     2
 72
     2
 73
     0
 90
        0
 40
-0.6
 41
-30.0
 62
     5
 63
     7
421
 16777215
 74
     1
 91
        4
 64
     7
 65
   257
 75
     1
175
     1
 42
1.0
 92
        8
 66
     7
 43
1.0
 76
     1
 77
     6
 78
     2
 67
     7
 79
     5
170
     0
171
     0
290
     0
174
     0
 93
        1
 44
-50.0
173
     0
291
     1
 45
0.0
  0
VISUALSTYLE
  5
39
102
{ACAD_REACTORS
330
2A
102
}
102
{ACAD_XDICTIONARY
360
83
102
}
330
2A
100
AcDbVisualStyle
  2
Facepattern
 70
    15
 71
     2
 72
     2
 73
     0
 90
        0
 40
-0.6
 41
-30.0
 62
     5
 63
     7
421
 16777215
 74
     1
 91
        4
 64
     7
 65
   257
 75
     1
175
     1
 42
1.0
 92
        8
 66
     7
 43
1.0
 76
     1
 77
     6
 78
     2
 67
     7
 79
     5
170
     0
171
     0
290
     0
174
     0
 93
        1
 44
0.0
173
     0
291
     1
 45
0.0
  0
VISUALSTYLE
  5
2B
102
{ACAD_REACTORS
330
2A
102
}
102
{ACAD_XDICTIONARY
360
67
102
}
330
2A
100
AcDbVisualStyle
  2
Flat
 70
     0
 71
     2
 72
     1
 73
     1
 90
        2
 40
-0.6
 41
30.0
 62
     5
 63
     7
421
 16777215
 74
     0
 91
        4
 64
     7
 65
   257
 75
     1
175
     1
 42
1.0
 92
        8
 66
     7
 43
1.0
 76
     1
 77
     6
 78
     2
 67
     7
 79
     5
170
     0
171
     0
290
     0
174
     0
 93
       13
 44
0.0
173
     0
291
     1
 45
0.0
  0
VISUALSTYLE
  5
2C
102
{ACAD_REACTORS
330
2A
102
}
102
{ACAD_XDICTIONARY
360
69
102
}
330
2A
100
AcDbVisualStyle
  2
FlatWithEdges
 70
     1
 71
     2
 72
     1
 73
     1
 90
        2
 40
-0.6
 41
30.0
 62
     5
 63
     7
421
 16777215
 74
     1
 91
        4
 64
     7
 65
   257
 75
     1
175
     1
 42
1.0
 92
        0
 66
   257
 43
1.0
 76
     1
 77
     6
 78
     2
 67
     7
 79
     5
170
     0
171
     0
290
     0
174
     0
 93
       13
 44
0.0
173
     0
291
     1
 45
0.0
  0
VISUALSTYLE
  5
2D
102
{ACAD_REACTORS
330
2A
102
}
102
{ACAD_XDICTIONARY
360
6B
102
}
330
2A
100
AcDbVisualStyle
  2
Gouraud
 70
     2
 71
     2
 72
     2
 73
     1
 90
        2
 40
-0.6
 41
30.0
 62
     5
 63
     7
421
 16777215
 74
     0
 91
        4
 64
     7
 65
   257
 75
     1
175
     1
 42
1.0
 92
        0
 66
     7
 43
1.0
 76
     1
 77
     6
 78
     2
 67
     7
 79
     5
170
     0
171
     0
290
     0
174
     0
 93
       13
 44
0.0
173
     0
291
     1
 45
0.0
  0
VISUALSTYLE
  5
2E
102
{ACAD_REACTORS
330
2A
102
}
102
{ACAD_XDICTIONARY
360
6D
102
}
330
2A
100
AcDbVisualStyle
  2
GouraudWithEdges
 70
     3
 71
     2
 72
     2
 73
     1
 90
        2
 40
-0.6
 41
30.0
 62
     5
 63
     7
421
 16777215
 74
     1
 91
        4
 64
     7
 65
   257
 75
     1
175
     1
 42
1.0
 92
        0
 66
   257
 43
1.0
 76
     1
 77
     6
 78
     2
 67
     7
 79
     5
170
     0
171
     0
290
     0
174
     0
 93
       13
 44
0.0
173
     0
291
     1
 45
0.0
  0
VISUALSTYLE
  5
38
102
{ACAD_REACTORS
330
2A
102
}
102
{ACAD_XDICTIONARY
360
81
102
}
330
2A
100
AcDbVisualStyle
  2
Linepattern
 70
    14
 71
     2
 72
     2
 73
     0
 90
        0
 40
-0.6
 41
-30.0
 62
     5
 63
     7
421
 16777215
 74
     1
 91
        4
 64
     7
 65
   257
 75
     7
175
     7
 42
1.0
 92
        8
 66
     7
 43
1.0
 76
     1
 77
     6
 78
     2
 67
     7
 79
     5
170
     0
171
     0
290
     0
174
     0
 93
        1
 44
0.0
173
     0
291
     1
 45
0.0
  0
VISUALSTYLE
  5
33
102
{ACAD_REACTORS
330
2A
102
}
102
{ACAD_XDICTIONARY
360
77
102
}
330
2A
100
AcDbVisualStyle
  2
Realistic
 70
     8
 71
     2
 72
     2
 73
     0
 90
        0
 40
-0.6
 41
-30.0
 62
     5
 63
     7
421
 16777215
 74
     1
 91
        0
 64
     7
 65
   257
 75
     1
175
     1
 42
1.0
 92
        8
 66
     8
424
  7895160
 43
1.0
 76
     1
 77
     6
 78
     2
 67
     7
 79
     5
170
     0
171
     0
290
     0
174
     0
 93
       13
 44
0.0
173
     0
291
     0
 45
0.0
  0
VISUALSTYLE
  5
37
102
{ACAD_REACTORS
330
2A
102
}
102
{ACAD_XDICTIONARY
360
7F
102
}
330
2A
100
AcDbVisualStyle
  2
Thicken
 70
    13
 71
     2
 72
     2
 73
     0
 90
        0
 40
-0.6
 41
-30.0
 62
     5
 63
     7
421
 16777215
 74
     1
 91
        4
 64
     7
 65
   257
 75
     1
175
     1
 42
1.0
 92
       12
 66
     7
 43
1.0
 76
     1
 77
     6
 78
     2
 67
     7
 79
     5
170
     0
171
     0
290
     0
174
     0
 93
        1
 44
0.0
173
     0
291
     1
 45
0.0
  0
DICTIONARY
  5
6F
330
2F
100
AcDbDictionary
280
     1
281
     1
  3
ACAD_XREC_ROUNDTRIP
360
70
  0
DICTIONARY
  5
73
330
31
100
AcDbDictionary
280
     1
281
     1
  3
ACAD_XREC_ROUNDTRIP
360
74
  0
DICTIONARY
  5
71
330
30
100
AcDbDictionary
280
     1
281
     1
  3
ACAD_XREC_ROUNDTRIP
360
72
  0
DICTIONARY
  5
75
330
32
100
AcDbDictionary
280
     1
281
     1
  3
ACAD_XREC_ROUNDTRIP
360
76
  0
DICTIONARY
  5
7D
330
36
100
AcDbDictionary
280
     1
281
     1
  3
ACAD_XREC_ROUNDTRIP
360
7E
  0
DICTIONARY
  5
85
330
3A
100
AcDbDictionary
280
     1
281
     1
  3
ACAD_XREC_ROUNDTRIP
360
86
  0
DICTIONARY
  5
79
330
34
100
AcDbDictionary
280
     1
281
     1
  3
ACAD_XREC_ROUNDTRIP
360
7A
  0
DICTIONARY
  5
7B
330
35
100
AcDbDictionary
280
     1
281
     1
  3
ACAD_XREC_ROUNDTRIP
360
7C
  0
DICTIONARY
  5
83
330
39
100
AcDbDictionary
280
     1
281
     1
  3
ACAD_XREC_ROUNDTRIP
360
84
  0
DICTIONARY
  5
67
330
2B
100
AcDbDictionary
280
     1
281
     1
  3
ACAD_XREC_ROUNDTRIP
360
68
  0
DICTIONARY
  5
69
330
2C
100
AcDbDictionary
280
     1
281
     1
  3
ACAD_XREC_ROUNDTRIP
360
6A
  0
DICTIONARY
  5
6B
330
2D
100
AcDbDictionary
280
     1
281
     1
  3
ACAD_XREC_ROUNDTRIP
360
6C
  0
DICTIONARY
  5
6D
330
2E
100
AcDbDictionary
280
     1
281
     1
  3
ACAD_XREC_ROUNDTRIP
360
6E
  0
DICTIONARY
  5
81
330
38
100
AcDbDictionary
280
     1
281
     1
  3
ACAD_XREC_ROUNDTRIP
360
82
  0
DICTIONARY
  5
77
330
33
100
AcDbDictionary
280
     1
281
     1
  3
ACAD_XREC_ROUNDTRIP
360
78
  0
DICTIONARY
  5
7F
330
37
100
AcDbDictionary
280
     1
281
     1
  3
ACAD_XREC_ROUNDTRIP
360
80
  0
XRECORD
  5
70
102
{ACAD_REACTORS
330
6F
102
}
330
6F
100
AcDbXrecord
280
     1
102
RTVSPropertyOp0
 70
     1
102
RTVSPropertyOp1
 70
     1
102
RTVSPropertyOp2
 70
     1
102
RTVSPropertyOp3
 70
     1
102
RTVSPropertyOp4
 70
     1
102
RTVSPropertyOp5
 70
     1
102
RTVSPropertyOp6
 70
     1
102
RTVSPropertyOp7
 70
     1
102
RTVSPropertyOp8
 70
     1
102
RTVSPropertyOp9
 70
     1
102
RTVSPropertyOp10
 70
     1
102
RTVSPropertyOp11
 70
     1
102
RTVSPropertyOp12
 70
     1
102
RTVSPropertyOp13
 70
     1
102
RTVSPropertyOp14
 70
     1
102
RTVSPropertyOp15
 70
     1
102
RTVSPropertyOp16
 70
     1
102
RTVSPropertyOp17
 70
     1
102
RTVSPropertyOp18
 70
     1
102
RTVSPropertyOp19
 70
     1
102
RTVSPropertyOp20
 70
     1
102
RTVSPropertyOp21
 70
     1
102
RTVSPropertyOp22
 70
     1
102
RTVSPropertyOp23
 70
     1
102
RTVSPropertyOp24
 70
     1
102
RTVSPropertyOp25
 70
     1
102
RTVSPropertyOp26
 70
     1
102
RTVSPropertyOp27
 70
     1
102
RTVSPropertyOp28
 70
     1
102
RTVSPropertyOp29
 70
     1
102
RTVSPropertyOp30
 70
     1
102
RTVSPropertyOp31
 70
     1
102
RTVSPropertyOp32
 70
     1
  0
XRECORD
  5
74
102
{ACAD_REACTORS
330
73
102
}
330
73
100
AcDbXrecord
280
     1
102
RTVSPropertyOp0
 70
     1
102
RTVSPropertyOp1
 70
     1
102
RTVSPropertyOp2
 70
     1
102
RTVSPropertyOp3
 70
     1
102
RTVSPropertyOp4
 70
     1
102
RTVSPropertyOp5
 70
     1
102
RTVSPropertyOp6
 70
     1
102
RTVSPropertyOp7
 70
     1
102
RTVSPropertyOp8
 70
     1
102
RTVSPropertyOp9
 70
     1
102
RTVSPropertyOp10
 70
     1
102
RTVSPropertyOp11
 70
     1
102
RTVSPropertyOp12
 70
     1
102
RTVSPropertyOp13
 70
     1
102
RTVSPropertyOp14
 70
     1
102
RTVSPropertyOp15
 70
     1
102
RTVSPropertyOp16
 70
     1
102
RTVSPropertyOp17
 70
     1
102
RTVSPropertyOp18
 70
     1
102
RTVSPropertyOp19
 70
     1
102
RTVSPropertyOp20
 70
     1
102
RTVSPropertyOp21
 70
     1
102
RTVSPropertyOp22
 70
     1
102
RTVSPropertyOp23
 70
     1
102
RTVSPropertyOp24
 70
     1
102
RTVSPropertyOp25
 70
     1
102
RTVSPropertyOp26
 70
     1
102
RTVSPropertyOp27
 70
     1
102
RTVSPropertyOp28
 70
     1
102
RTVSPropertyOp29
 70
     1
102
RTVSPropertyOp30
 70
     1
102
RTVSPropertyOp31
 70
     1
102
RTVSPropertyOp32
 70
     1
  0
XRECORD
  5
72
102
{ACAD_REACTORS
330
71
102
}
330
71
100
AcDbXrecord
280
     1
102
RTVSPropertyOp0
 70
     1
102
RTVSPropertyOp1
 70
     1
102
RTVSPropertyOp2
 70
     1
102
RTVSPropertyOp3
 70
     1
102
RTVSPropertyOp4
 70
     1
102
RTVSPropertyOp5
 70
     1
102
RTVSPropertyOp6
 70
     1
102
RTVSPropertyOp7
 70
     1
102
RTVSPropertyOp8
 70
     1
102
RTVSPropertyOp9
 70
     1
102
RTVSPropertyOp10
 70
     1
102
RTVSPropertyOp11
 70
     1
102
RTVSPropertyOp12
 70
     1
102
RTVSPropertyOp13
 70
     1
102
RTVSPropertyOp14
 70
     1
102
RTVSPropertyOp15
 70
     1
102
RTVSPropertyOp16
 70
     1
102
RTVSPropertyOp17
 70
     1
102
RTVSPropertyOp18
 70
     1
102
RTVSPropertyOp19
 70
     1
102
RTVSPropertyOp20
 70
     1
102
RTVSPropertyOp21
 70
     1
102
RTVSPropertyOp22
 70
     1
102
RTVSPropertyOp23
 70
     1
102
RTVSPropertyOp24
 70
     1
102
RTVSPropertyOp25
 70
     1
102
RTVSPropertyOp26
 70
     1
102
RTVSPropertyOp27
 70
     1
102
RTVSPropertyOp28
 70
     1
102
RTVSPropertyOp29
 70
     1
102
RTVSPropertyOp30
 70
     1
102
RTVSPropertyOp31
 70
     1
102
RTVSPropertyOp32
 70
     1
  0
XRECORD
  5
76
102
{ACAD_REACTORS
330
75
102
}
330
75
100
AcDbXrecord
280
     1
102
RTVSPropertyOp0
 70
     1
102
RTVSPropertyOp1
 70
     1
102
RTVSPropertyOp2
 70
     1
102
RTVSPropertyOp3
 70
     1
102
RTVSPropertyOp4
 70
     1
102
RTVSPropertyOp5
 70
     1
102
RTVSPropertyOp6
 70
     1
102
RTVSPropertyOp7
 70
     1
102
RTVSPropertyOp8
 70
     1
102
RTVSPropertyOp9
 70
     1
102
RTVSPropertyOp10
 70
     1
102
RTVSPropertyOp11
 70
     1
102
RTVSPropertyOp12
 70
     1
102
RTVSPropertyOp13
 70
     1
102
RTVSPropertyOp14
 70
     1
102
RTVSPropertyOp15
 70
     1
102
RTVSPropertyOp16
 70
     1
102
RTVSPropertyOp17
 70
     1
102
RTVSPropertyOp18
 70
     1
102
RTVSPropertyOp19
 70
     1
102
RTVSPropertyOp20
 70
     1
102
RTVSPropertyOp21
 70
     1
102
RTVSPropertyOp22
 70
     1
102
RTVSPropertyOp23
 70
     1
102
RTVSPropertyOp24
 70
     1
102
RTVSPropertyOp25
 70
     1
102
RTVSPropertyOp26
 70
     1
102
RTVSPropertyOp27
 70
     1
102
RTVSPropertyOp28
 70
     1
102
RTVSPropertyOp29
 70
     1
102
RTVSPropertyOp30
 70
     1
102
RTVSPropertyOp31
 70
     1
102
RTVSPropertyOp32
 70
     1
  0
XRECORD
  5
7E
102
{ACAD_REACTORS
330
7D
102
}
330
7D
100
AcDbXrecord
280
     1
102
RTVSPropertyOp0
 70
     1
102
RTVSPropertyOp1
 70
     1
102
RTVSPropertyOp2
 70
     1
102
RTVSPropertyOp3
 70
     1
102
RTVSPropertyOp4
 70
     1
102
RTVSPropertyOp5
 70
     1
102
RTVSPropertyOp6
 70
     1
102
RTVSPropertyOp7
 70
     1
102
RTVSPropertyOp8
 70
     1
102
RTVSPropertyOp9
 70
     1
102
RTVSPropertyOp10
 70
     1
102
RTVSPropertyOp11
 70
     1
102
RTVSPropertyOp12
 70
     1
102
RTVSPropertyOp13
 70
     1
102
RTVSPropertyOp14
 70
     1
102
RTVSPropertyOp15
 70
     1
102
RTVSPropertyOp16
 70
     1
102
RTVSPropertyOp17
 70
     1
102
RTVSPropertyOp18
 70
     1
102
RTVSPropertyOp19
 70
     1
102
RTVSPropertyOp20
 70
     1
102
RTVSPropertyOp21
 70
     1
102
RTVSPropertyOp22
 70
     1
102
RTVSPropertyOp23
 70
     1
102
RTVSPropertyOp24
 70
     1
102
RTVSPropertyOp25
 70
     1
102
RTVSPropertyOp26
 70
     1
102
RTVSPropertyOp27
 70
     1
102
RTVSPropertyOp28
 70
     1
102
RTVSPropertyOp29
 70
     1
102
RTVSPropertyOp30
 70
     1
102
RTVSPropertyOp31
 70
     1
102
RTVSPropertyOp32
 70
     1
  0
XRECORD
  5
86
102
{ACAD_REACTORS
330
85
102
}
330
85
100
AcDbXrecord
280
     1
102
RTVSPropertyOp0
 70
     1
102
RTVSPropertyOp1
 70
     1
102
RTVSPropertyOp2
 70
     1
102
RTVSPropertyOp3
 70
     1
102
RTVSPropertyOp4
 70
     1
102
RTVSPropertyOp5
 70
     1
102
RTVSPropertyOp6
 70
     1
102
RTVSPropertyOp7
 70
     1
102
RTVSPropertyOp8
 70
     1
102
RTVSPropertyOp9
 70
     1
102
RTVSPropertyOp10
 70
     1
102
RTVSPropertyOp11
 70
     1
102
RTVSPropertyOp12
 70
     1
102
RTVSPropertyOp13
 70
     1
102
RTVSPropertyOp14
 70
     1
102
RTVSPropertyOp15
 70
     1
102
RTVSPropertyOp16
 70
     1
102
RTVSPropertyOp17
 70
     1
102
RTVSPropertyOp18
 70
     1
102
RTVSPropertyOp19
 70
     1
102
RTVSPropertyOp20
 70
     1
102
RTVSPropertyOp21
 70
     1
102
RTVSPropertyOp22
 70
     1
102
RTVSPropertyOp23
 70
     1
102
RTVSPropertyOp24
 70
     1
102
RTVSPropertyOp25
 70
     1
102
RTVSPropertyOp26
 70
     1
102
RTVSPropertyOp27
 70
     1
102
RTVSPropertyOp28
 70
     1
102
RTVSPropertyOp29
 70
     1
102
RTVSPropertyOp30
 70
     1
102
RTVSPropertyOp31
 70
     1
102
RTVSPropertyOp32
 70
     1
  0
XRECORD
  5
7A
102
{ACAD_REACTORS
330
79
102
}
330
79
100
AcDbXrecord
280
     1
102
RTVSPropertyOp0
 70
     1
102
RTVSPropertyOp1
 70
     1
102
RTVSPropertyOp2
 70
     1
102
RTVSPropertyOp3
 70
     1
102
RTVSPropertyOp4
 70
     1
102
RTVSPropertyOp5
 70
     1
102
RTVSPropertyOp6
 70
     1
102
RTVSPropertyOp7
 70
     1
102
RTVSPropertyOp8
 70
     1
102
RTVSPropertyOp9
 70
     1
102
RTVSPropertyOp10
 70
     1
102
RTVSPropertyOp11
 70
     1
102
RTVSPropertyOp12
 70
     1
102
RTVSPropertyOp13
 70
     1
102
RTVSPropertyOp14
 70
     1
102
RTVSPropertyOp15
 70
     1
102
RTVSPropertyOp16
 70
     1
102
RTVSPropertyOp17
 70
     1
102
RTVSPropertyOp18
 70
     1
102
RTVSPropertyOp19
 70
     1
102
RTVSPropertyOp20
 70
     1
102
RTVSPropertyOp21
 70
     1
102
RTVSPropertyOp22
 70
     1
102
RTVSPropertyOp23
 70
     1
102
RTVSPropertyOp24
 70
     1
102
RTVSPropertyOp25
 70
     1
102
RTVSPropertyOp26
 70
     1
102
RTVSPropertyOp27
 70
     1
102
RTVSPropertyOp28
 70
     1
102
RTVSPropertyOp29
 70
     1
102
RTVSPropertyOp30
 70
     1
102
RTVSPropertyOp31
 70
     1
102
RTVSPropertyOp32
 70
     1
  0
XRECORD
  5
7C
102
{ACAD_REACTORS
330
7B
102
}
330
7B
100
AcDbXrecord
280
     1
102
RTVSPropertyOp0
 70
     1
102
RTVSPropertyOp1
 70
     1
102
RTVSPropertyOp2
 70
     1
102
RTVSPropertyOp3
 70
     1
102
RTVSPropertyOp4
 70
     1
102
RTVSPropertyOp5
 70
     1
102
RTVSPropertyOp6
 70
     1
102
RTVSPropertyOp7
 70
     1
102
RTVSPropertyOp8
 70
     1
102
RTVSPropertyOp9
 70
     1
102
RTVSPropertyOp10
 70
     1
102
RTVSPropertyOp11
 70
     1
102
RTVSPropertyOp12
 70
     1
102
RTVSPropertyOp13
 70
     1
102
RTVSPropertyOp14
 70
     1
102
RTVSPropertyOp15
 70
     1
102
RTVSPropertyOp16
 70
     1
102
RTVSPropertyOp17
 70
     1
102
RTVSPropertyOp18
 70
     1
102
RTVSPropertyOp19
 70
     1
102
RTVSPropertyOp20
 70
     1
102
RTVSPropertyOp21
 70
     1
102
RTVSPropertyOp22
 70
     1
102
RTVSPropertyOp23
 70
     1
102
RTVSPropertyOp24
 70
     1
102
RTVSPropertyOp25
 70
     1
102
RTVSPropertyOp26
 70
     1
102
RTVSPropertyOp27
 70
     1
102
RTVSPropertyOp28
 70
     1
102
RTVSPropertyOp29
 70
     1
102
RTVSPropertyOp30
 70
     1
102
RTVSPropertyOp31
 70
     1
102
RTVSPropertyOp32
 70
     1
  0
XRECORD
  5
84
102
{ACAD_REACTORS
330
83
102
}
330
83
100
AcDbXrecord
280
     1
102
RTVSPropertyOp0
 70
     1
102
RTVSPropertyOp1
 70
     1
102
RTVSPropertyOp2
 70
     1
102
RTVSPropertyOp3
 70
     1
102
RTVSPropertyOp4
 70
     1
102
RTVSPropertyOp5
 70
     1
102
RTVSPropertyOp6
 70
     1
102
RTVSPropertyOp7
 70
     1
102
RTVSPropertyOp8
 70
     1
102
RTVSPropertyOp9
 70
     1
102
RTVSPropertyOp10
 70
     1
102
RTVSPropertyOp11
 70
     1
102
RTVSPropertyOp12
 70
     1
102
RTVSPropertyOp13
 70
     1
102
RTVSPropertyOp14
 70
     1
102
RTVSPropertyOp15
 70
     1
102
RTVSPropertyOp16
 70
     1
102
RTVSPropertyOp17
 70
     1
102
RTVSPropertyOp18
 70
     1
102
RTVSPropertyOp19
 70
     1
102
RTVSPropertyOp20
 70
     1
102
RTVSPropertyOp21
 70
     1
102
RTVSPropertyOp22
 70
     1
102
RTVSPropertyOp23
 70
     1
102
RTVSPropertyOp24
 70
     1
102
RTVSPropertyOp25
 70
     1
102
RTVSPropertyOp26
 70
     1
102
RTVSPropertyOp27
 70
     1
102
RTVSPropertyOp28
 70
     1
102
RTVSPropertyOp29
 70
     1
102
RTVSPropertyOp30
 70
     1
102
RTVSPropertyOp31
 70
     1
102
RTVSPropertyOp32
 70
     1
  0
XRECORD
  5
68
102
{ACAD_REACTORS
330
67
102
}
330
67
100
AcDbXrecord
280
     1
102
RTVSPropertyOp0
 70
     1
102
RTVSPropertyOp1
 70
     1
102
RTVSPropertyOp2
 70
     1
102
RTVSPropertyOp3
 70
     1
102
RTVSPropertyOp4
 70
     1
102
RTVSPropertyOp5
 70
     1
102
RTVSPropertyOp6
 70
     1
102
RTVSPropertyOp7
 70
     1
102
RTVSPropertyOp8
 70
     1
102
RTVSPropertyOp9
 70
     1
102
RTVSPropertyOp10
 70
     1
102
RTVSPropertyOp11
 70
     1
102
RTVSPropertyOp12
 70
     1
102
RTVSPropertyOp13
 70
     1
102
RTVSPropertyOp14
 70
     1
102
RTVSPropertyOp15
 70
     1
102
RTVSPropertyOp16
 70
     1
102
RTVSPropertyOp17
 70
     1
102
RTVSPropertyOp18
 70
     1
102
RTVSPropertyOp19
 70
     1
102
RTVSPropertyOp20
 70
     1
102
RTVSPropertyOp21
 70
     1
102
RTVSPropertyOp22
 70
     1
102
RTVSPropertyOp23
 70
     1
102
RTVSPropertyOp24
 70
     1
102
RTVSPropertyOp25
 70
     1
102
RTVSPropertyOp26
 70
     1
102
RTVSPropertyOp27
 70
     1
102
RTVSPropertyOp28
 70
     1
102
RTVSPropertyOp29
 70
     1
102
RTVSPropertyOp30
 70
     1
102
RTVSPropertyOp31
 70
     1
102
RTVSPropertyOp32
 70
     1
  0
XRECORD
  5
6A
102
{ACAD_REACTORS
330
69
102
}
330
69
100
AcDbXrecord
280
     1
102
RTVSPropertyOp0
 70
     1
102
RTVSPropertyOp1
 70
     1
102
RTVSPropertyOp2
 70
     1
102
RTVSPropertyOp3
 70
     1
102
RTVSPropertyOp4
 70
     1
102
RTVSPropertyOp5
 70
     1
102
RTVSPropertyOp6
 70
     1
102
RTVSPropertyOp7
 70
     1
102
RTVSPropertyOp8
 70
     1
102
RTVSPropertyOp9
 70
     1
102
RTVSPropertyOp10
 70
     1
102
RTVSPropertyOp11
 70
     1
102
RTVSPropertyOp12
 70
     1
102
RTVSPropertyOp13
 70
     1
102
RTVSPropertyOp14
 70
     1
102
RTVSPropertyOp15
 70
     1
102
RTVSPropertyOp16
 70
     1
102
RTVSPropertyOp17
 70
     1
102
RTVSPropertyOp18
 70
     1
102
RTVSPropertyOp19
 70
     1
102
RTVSPropertyOp20
 70
     1
102
RTVSPropertyOp21
 70
     1
102
RTVSPropertyOp22
 70
     1
102
RTVSPropertyOp23
 70
     1
102
RTVSPropertyOp24
 70
     1
102
RTVSPropertyOp25
 70
     1
102
RTVSPropertyOp26
 70
     1
102
RTVSPropertyOp27
 70
     1
102
RTVSPropertyOp28
 70
     1
102
RTVSPropertyOp29
 70
     1
102
RTVSPropertyOp30
 70
     1
102
RTVSPropertyOp31
 70
     1
102
RTVSPropertyOp32
 70
     1
  0
XRECORD
  5
6C
102
{ACAD_REACTORS
330
6B
102
}
330
6B
100
AcDbXrecord
280
     1
102
RTVSPropertyOp0
 70
     1
102
RTVSPropertyOp1
 70
     1
102
RTVSPropertyOp2
 70
     1
102
RTVSPropertyOp3
 70
     1
102
RTVSPropertyOp4
 70
     1
102
RTVSPropertyOp5
 70
     1
102
RTVSPropertyOp6
 70
     1
102
RTVSPropertyOp7
 70
     1
102
RTVSPropertyOp8
 70
     1
102
RTVSPropertyOp9
 70
     1
102
RTVSPropertyOp10
 70
     1
102
RTVSPropertyOp11
 70
     1
102
RTVSPropertyOp12
 70
     1
102
RTVSPropertyOp13
 70
     1
102
RTVSPropertyOp14
 70
     1
102
RTVSPropertyOp15
 70
     1
102
RTVSPropertyOp16
 70
     1
102
RTVSPropertyOp17
 70
     1
102
RTVSPropertyOp18
 70
     1
102
RTVSPropertyOp19
 70
     1
102
RTVSPropertyOp20
 70
     1
102
RTVSPropertyOp21
 70
     1
102
RTVSPropertyOp22
 70
     1
102
RTVSPropertyOp23
 70
     1
102
RTVSPropertyOp24
 70
     1
102
RTVSPropertyOp25
 70
     1
102
RTVSPropertyOp26
 70
     1
102
RTVSPropertyOp27
 70
     1
102
RTVSPropertyOp28
 70
     1
102
RTVSPropertyOp29
 70
     1
102
RTVSPropertyOp30
 70
     1
102
RTVSPropertyOp31
 70
     1
102
RTVSPropertyOp32
 70
     1
  0
XRECORD
  5
6E
102
{ACAD_REACTORS
330
6D
102
}
330
6D
100
AcDbXrecord
280
     1
102
RTVSPropertyOp0
 70
     1
102
RTVSPropertyOp1
 70
     1
102
RTVSPropertyOp2
 70
     1
102
RTVSPropertyOp3
 70
     1
102
RTVSPropertyOp4
 70
     1
102
RTVSPropertyOp5
 70
     1
102
RTVSPropertyOp6
 70
     1
102
RTVSPropertyOp7
 70
     1
102
RTVSPropertyOp8
 70
     1
102
RTVSPropertyOp9
 70
     1
102
RTVSPropertyOp10
 70
     1
102
RTVSPropertyOp11
 70
     1
102
RTVSPropertyOp12
 70
     1
102
RTVSPropertyOp13
 70
     1
102
RTVSPropertyOp14
 70
     1
102
RTVSPropertyOp15
 70
     1
102
RTVSPropertyOp16
 70
     1
102
RTVSPropertyOp17
 70
     1
102
RTVSPropertyOp18
 70
     1
102
RTVSPropertyOp19
 70
     1
102
RTVSPropertyOp20
 70
     1
102
RTVSPropertyOp21
 70
     1
102
RTVSPropertyOp22
 70
     1
102
RTVSPropertyOp23
 70
     1
102
RTVSPropertyOp24
 70
     1
102
RTVSPropertyOp25
 70
     1
102
RTVSPropertyOp26
 70
     1
102
RTVSPropertyOp27
 70
     1
102
RTVSPropertyOp28
 70
     1
102
RTVSPropertyOp29
 70
     1
102
RTVSPropertyOp30
 70
     1
102
RTVSPropertyOp31
 70
     1
102
RTVSPropertyOp32
 70
     1
  0
XRECORD
  5
82
102
{ACAD_REACTORS
330
81
102
}
330
81
100
AcDbXrecord
280
     1
102
RTVSPropertyOp0
 70
     1
102
RTVSPropertyOp1
 70
     1
102
RTVSPropertyOp2
 70
     1
102
RTVSPropertyOp3
 70
     1
102
RTVSPropertyOp4
 70
     1
102
RTVSPropertyOp5
 70
     1
102
RTVSPropertyOp6
 70
     1
102
RTVSPropertyOp7
 70
     1
102
RTVSPropertyOp8
 70
     1
102
RTVSPropertyOp9
 70
     1
102
RTVSPropertyOp10
 70
     1
102
RTVSPropertyOp11
 70
     1
102
RTVSPropertyOp12
 70
     1
102
RTVSPropertyOp13
 70
     1
102
RTVSPropertyOp14
 70
     1
102
RTVSPropertyOp15
 70
     1
102
RTVSPropertyOp16
 70
     1
102
RTVSPropertyOp17
 70
     1
102
RTVSPropertyOp18
 70
     1
102
RTVSPropertyOp19
 70
     1
102
RTVSPropertyOp20
 70
     1
102
RTVSPropertyOp21
 70
     1
102
RTVSPropertyOp22
 70
     1
102
RTVSPropertyOp23
 70
     1
102
RTVSPropertyOp24
 70
     1
102
RTVSPropertyOp25
 70
     1
102
RTVSPropertyOp26
 70
     1
102
RTVSPropertyOp27
 70
     1
102
RTVSPropertyOp28
 70
     1
102
RTVSPropertyOp29
 70
     1
102
RTVSPropertyOp30
 70
     1
102
RTVSPropertyOp31
 70
     1
102
RTVSPropertyOp32
 70
     1
  0
XRECORD
  5
78
102
{ACAD_REACTORS
330
77
102
}
330
77
100
AcDbXrecord
280
     1
102
RTVSPropertyOp0
 70
     1
102
RTVSPropertyOp1
 70
     1
102
RTVSPropertyOp2
 70
     1
102
RTVSPropertyOp3
 70
     1
102
RTVSPropertyOp4
 70
     1
102
RTVSPropertyOp5
 70
     1
102
RTVSPropertyOp6
 70
     1
102
RTVSPropertyOp7
 70
     1
102
RTVSPropertyOp8
 70
     1
102
RTVSPropertyOp9
 70
     1
102
RTVSPropertyOp10
 70
     1
102
RTVSPropertyOp11
 70
     1
102
RTVSPropertyOp12
 70
     1
102
RTVSPropertyOp13
 70
     1
102
RTVSPropertyOp14
 70
     1
102
RTVSPropertyOp15
 70
     1
102
RTVSPropertyOp16
 70
     1
102
RTVSPropertyOp17
 70
     1
102
RTVSPropertyOp18
 70
     1
102
RTVSPropertyOp19
 70
     1
102
RTVSPropertyOp20
 70
     1
102
RTVSPropertyOp21
 70
     1
102
RTVSPropertyOp22
 70
     1
102
RTVSPropertyOp23
 70
     1
102
RTVSPropertyOp24
 70
     1
102
RTVSPropertyOp25
 70
     1
102
RTVSPropertyOp26
 70
     1
102
RTVSPropertyOp27
 70
     1
102
RTVSPropertyOp28
 70
     1
102
RTVSPropertyOp29
 70
     1
102
RTVSPropertyOp30
 70
     1
102
RTVSPropertyOp31
 70
     1
102
RTVSPropertyOp32
 70
     1
  0
XRECORD
  5
80
102
{ACAD_REACTORS
330
7F
102
}
330
7F
100
AcDbXrecord
280
     1
102
RTVSPropertyOp0
 70
     1
102
RTVSPropertyOp1
 70
     1
102
RTVSPropertyOp2
 70
     1
102
RTVSPropertyOp3
 70
     1
102
RTVSPropertyOp4
 70
     1
102
RTVSPropertyOp5
 70
     1
102
RTVSPropertyOp6
 70
     1
102
RTVSPropertyOp7
 70
     1
102
RTVSPropertyOp8
 70
     1
102
RTVSPropertyOp9
 70
     1
102
RTVSPropertyOp10
 70
     1
102
RTVSPropertyOp11
 70
     1
102
RTVSPropertyOp12
 70
     1
102
RTVSPropertyOp13
 70
     1
102
RTVSPropertyOp14
 70
     1
102
RTVSPropertyOp15
 70
     1
102
RTVSPropertyOp16
 70
     1
102
RTVSPropertyOp17
 70
     1
102
RTVSPropertyOp18
 70
     1
102
RTVSPropertyOp19
 70
     1
102
RTVSPropertyOp20
 70
     1
102
RTVSPropertyOp21
 70
     1
102
RTVSPropertyOp22
 70
     1
102
RTVSPropertyOp23
 70
     1
102
RTVSPropertyOp24
 70
     1
102
RTVSPropertyOp25
 70
     1
102
RTVSPropertyOp26
 70
     1
102
RTVSPropertyOp27
 70
     1
102
RTVSPropertyOp28
 70
     1
102
RTVSPropertyOp29
 70
     1
102
RTVSPropertyOp30
 70
     1
102
RTVSPropertyOp31
 70
     1
102
RTVSPropertyOp32
 70
     1
  0
ENDSEC
  0
EOF
