  0
SECTION
  2
HEADER
  9
$ACADVER
  1
AC1021
  9
$ACADMAINTVER
 70
    25
  9
$DWGCODEPAGE
  3
ANSI_1252
  9
$INSBASE
 10
0.0
 20
0.0
 30
0.0
  9
$EXTMIN
 10
-17.2193
 20
-12.57589
 30
0.0
  9
$EXTMAX
 10
-2.78071
 20
-7.2341
 30
0.0
  9
$LIMMIN
 10
0.0
 20
0.0
  9
$LIMMAX
 10
12.0
 20
9.0
  9
$ORTHOMODE
 70
     0
  9
$REGENMODE
 70
     1
  9
$FILLMODE
 70
     1
  9
$QTEXTMODE
 70
     0
  9
$MIRRTEXT
 70
     1
  9
$LTSCALE
 40
1.0
  9
$ATTMODE
 70
     1
  9
$TEXTSIZE
 40
0.2
  9
$TRACEWID
 40
0.05
  9
$TEXTSTYLE
  7
Standard
  9
$CLAYER
  8
0
  9
$CELTYPE
  6
ByLayer
  9
$CECOLOR
 62
   256
  9
$CELTSCALE
 40
1.0
  9
$DISPSILH
 70
     0
  9
$DIMSCALE
 40
1.0
  9
$DIMASZ
 40
0.18
  9
$DIMEXO
 40
0.0625
  9
$DIMDLI
 40
0.38
  9
$DIMRND
 40
0.0
  9
$DIMDLE
 40
0.0
  9
$DIMEXE
 40
0.18
  9
$DIMTP
 40
0.0
  9
$DIMTM
 40
0.0
  9
$DIMTXT
 40
0.18
  9
$DIMCEN
 40
0.09
  9
$DIMTSZ
 40
0.0
  9
$DIMTOL
 70
     0
  9
$DIMLIM
 70
     0
  9
$DIMTIH
 70
     1
  9
$DIMTOH
 70
     1
  9
$DIMSE1
 70
     0
  9
$DIMSE2
 70
     0
  9
$DIMTAD
 70
     0
  9
$DIMZIN
 70
     0
  9
$DIMBLK
  1

  9
$DIMASO
 70
     1
  9
$DIMSHO
 70
     1
  9
$DIMPOST
  1

  9
$DIMAPOST
  1

  9
$DIMALT
 70
     0
  9
$DIMALTD
 70
     2
  9
$DIMALTF
 40
25.4
  9
$DIMLFAC
 40
1.0
  9
$DIMTOFL
 70
     0
  9
$DIMTVP
 40
0.0
  9
$DIMTIX
 70
     0
  9
$DIMSOXD
 70
     0
  9
$DIMSAH
 70
     0
  9
$DIMBLK1
  1

  9
$DIMBLK2
  1

  9
$DIMSTYLE
  2
Standard
  9
$DIMCLRD
 70
     0
  9
$DIMCLRE
 70
     0
  9
$DIMCLRT
 70
     0
  9
$DIMTFAC
 40
1.0
  9
$DIMGAP
 40
0.09
  9
$DIMJUST
 70
     0
  9
$DIMSD1
 70
     0
  9
$DIMSD2
 70
     0
  9
$DIMTOLJ
 70
     1
  9
$DIMTZIN
 70
     0
  9
$DIMALTZ
 70
     0
  9
$DIMALTTZ
 70
     0
  9
$DIMUPT
 70
     0
  9
$DIMDEC
 70
     4
  9
$DIMTDEC
 70
     4
  9
$DIMALTU
 70
     2
  9
$DIMALTTD
 70
     2
  9
$DIMTXSTY
  7
Standard
  9
$DIMAUNIT
 70
     0
  9
$DIMADEC
 70
     0
  9
$DIMALTRND
 40
0.0
  9
$DIMAZIN
 70
     0
  9
$DIMDSEP
 70
    46
  9
$DIMATFIT
 70
     3
  9
$DIMFRAC
 70
     0
  9
$DIMLDRBLK
  1

  9
$DIMLUNIT
 70
     2
  9
$DIMLWD
 70
    -2
  9
$DIMLWE
 70
    -2
  9
$DIMTMOVE
 70
     0
  9
$DIMFXL
 40
1.0
  9
$DIMFXLON
 70
     0
  9
$DIMJOGANG
 40
0.7853981633974483
  9
$DIMTFILL
 70
     0
  9
$DIMTFILLCLR
 70
     0
  9
$DIMARCSYM
 70
     0
  9
$DIMLTYPE
  6

  9
$DIMLTEX1
  6

  9
$DIMLTEX2
  6

  9
$LUNITS
 70
     2
  9
$LUPREC
 70
     4
  9
$SKETCHINC
 40
0.1
  9
$FILLETRAD
 40
0.5
  9
$AUNITS
 70
     0
  9
$AUPREC
 70
     0
  9
$MENU
  1
.
  9
$ELEVATION
 40
0.0
  9
$PELEVATION
 40
0.0
  9
$THICKNESS
 40
0.0
  9
$LIMCHECK
 70
     0
  9
$CHAMFERA
 40
0.5
  9
$CHAMFERB
 40
0.5
  9
$CHAMFERC
 40
1.0
  9
$CHAMFERD
 40
0.0
  9
$SKPOLY
 70
     0
  9
$TDCREATE
 40
2460554.845753866
  9
$TDUCREATE
 40
2460554.804087199
  9
$TDUPDATE
 40
2460554.845753924
  9
$TDUUPDATE
 40
2460554.804087257
  9
$TDINDWG
 40
0.0000000116
  9
$TDUSRTIMER
 40
0.0000000116
  9
$USRTIMER
 70
     1
  9
$ANGBASE
 50
0.0
  9
$ANGDIR
 70
     0
  9
$PDMODE
 70
     0
  9
$PDSIZE
 40
0.0
  9
$PLINEWID
 40
0.0
  9
$SPLFRAME
 70
     0
  9
$SPLINETYPE
 70
     6
  9
$SPLINESEGS
 70
     8
  9
$HANDSEED
  5
8B
  9
$SURFTAB1
 70
     6
  9
$SURFTAB2
 70
     6
  9
$SURFTYPE
 70
     6
  9
$SURFU
 70
     6
  9
$SURFV
 70
     6
  9
$UCSBASE
  2

  9
$UCSNAME
  2

  9
$UCSORG
 10
0.0
 20
0.0
 30
0.0
  9
$UCSXDIR
 10
1.0
 20
0.0
 30
0.0
  9
$UCSYDIR
 10
0.0
 20
1.0
 30
0.0
  9
$UCSORTHOREF
  2

  9
$UCSORTHOVIEW
 70
     0
  9
$UCSORGTOP
 10
0.0
 20
0.0
 30
0.0
  9
$UCSORGBOTTOM
 10
0.0
 20
0.0
 30
0.0
  9
$UCSORGLEFT
 10
0.0
 20
0.0
 30
0.0
  9
$UCSORGRIGHT
 10
0.0
 20
0.0
 30
0.0
  9
$UCSORGFRONT
 10
0.0
 20
0.0
 30
0.0
  9
$UCSORGBACK
 10
0.0
 20
0.0
 30
0.0
  9
$PUCSBASE
  2

  9
$PUCSNAME
  2

  9
$PUCSORG
 10
0.0
 20
0.0
 30
0.0
  9
$PUCSXDIR
 10
1.0
 20
0.0
 30
0.0
  9
$PUCSYDIR
 10
0.0
 20
1.0
 30
0.0
  9
$PUCSORTHOREF
  2

  9
$PUCSORTHOVIEW
 70
     0
  9
$PUCSORGTOP
 10
0.0
 20
0.0
 30
0.0
  9
$PUCSORGBOTTOM
 10
0.0
 20
0.0
 30
0.0
  9
$PUCSORGLEFT
 10
0.0
 20
0.0
 30
0.0
  9
$PUCSORGRIGHT
 10
0.0
 20
0.0
 30
0.0
  9
$PUCSORGFRONT
 10
0.0
 20
0.0
 30
0.0
  9
$PUCSORGBACK
 10
0.0
 20
0.0
 30
0.0
  9
$USERI1
 70
     0
  9
$USERI2
 70
     0
  9
$USERI3
 70
     0
  9
$USERI4
 70
     0
  9
$USERI5
 70
     0
  9
$USERR1
 40
0.0
  9
$USERR2
 40
0.0
  9
$USERR3
 40
0.0
  9
$USERR4
 40
0.0
  9
$USERR5
 40
0.0
  9
$WORLDVIEW
 70
     1
  9
$SHADEDGE
 70
     3
  9
$SHADEDIF
 70
    70
  9
$TILEMODE
 70
     1
  9
$MAXACTVP
 70
    64
  9
$PINSBASE
 10
0.0
 20
0.0
 30
0.0
  9
$PLIMCHECK
 70
     0
  9
$PEXTMIN
 10
1.000000000000000E+20
 20
1.000000000000000E+20
 30
1.000000000000000E+20
  9
$PEXTMAX
 10
-1.000000000000000E+20
 20
-1.000000000000000E+20
 30
-1.000000000000000E+20
  9
$PLIMMIN
 10
0.0
 20
0.0
  9
$PLIMMAX
 10
12.0
 20
9.0
  9
$UNITMODE
 70
     0
  9
$VISRETAIN
 70
     1
  9
$PLINEGEN
 70
     0
  9
$PSLTSCALE
 70
     1
  9
$TREEDEPTH
 70
  3020
  9
$CMLSTYLE
  2
Standard
  9
$CMLJUST
 70
     0
  9
$CMLSCALE
 40
1.0
  9
$PROXYGRAPHICS
 70
     1
  9
$MEASUREMENT
 70
     0
  9
$CELWEIGHT
370
    -1
  9
$ENDCAPS
280
     0
  9
$JOINSTYLE
280
     0
  9
$LWDISPLAY
290
     0
  9
$INSUNITS
 70
     5
  9
$HYPERLINKBASE
  1

  9
$STYLESHEET
  1

  9
$XEDIT
290
     1
  9
$CEPSNTYPE
380
     0
  9
$PSTYLEMODE
290
     1
  9
$FINGERPRINTGUID
  2
{3E60D047-A968-4BD3-9D0C-6A7EEC9D310C}
  9
$VERSIONGUID
  2
{FAEB1C32-E019-11D5-929B-00C0DF256EC4}
  9
$EXTNAMES
290
     1
  9
$PSVPSCALE
 40
0.0
  9
$OLESTARTUP
290
     0
  9
$SORTENTS
280
   127
  9
$INDEXCTL
280
     0
  9
$HIDETEXT
280
     1
  9
$XCLIPFRAME
290
     0
  9
$HALOGAP
280
     0
  9
$OBSCOLOR
 70
   257
  9
$OBSLTYPE
280
     0
  9
$INTERSECTIONDISPLAY
280
     0
  9
$INTERSECTIONCOLOR
 70
   257
  9
$DIMASSOC
280
     2
  9
$PROJECTNAME
  1

  9
$CAMERADISPLAY
290
     0
  9
$LENSLENGTH
 40
50.0
  9
$CAMERAHEIGHT
 40
0.0
  9
$STEPSPERSEC
 40
2.0
  9
$STEPSIZE
 40
6.0
  9
$3DDWFPREC
 40
2.0
  9
$PSOLWIDTH
 40
0.25
  9
$PSOLHEIGHT
 40
4.0
  9
$LOFTANG1
 40
1.570796326794897
  9
$LOFTANG2
 40
1.570796326794897
  9
$LOFTMAG1
 40
0.0
  9
$LOFTMAG2
 40
0.0
  9
$LOFTPARAM
 70
     7
  9
$LOFTNORMALS
280
     1
  9
$LATITUDE
 40
37.795
  9
$LONGITUDE
 40
-122.394
  9
$NORTHDIRECTION
 40
0.0
  9
$TIMEZONE
 70
 -8000
  9
$LIGHTGLYPHDISPLAY
280
     1
  9
$TILEMODELIGHTSYNCH
280
     1
  9
$SOLIDHIST
280
     1
  9
$SHOWHIST
280
     1
  9
$DWFFRAME
280
     2
  9
$DGNFRAME
280
     2
  9
$REALWORLDSCALE
290
     1
  9
$INTERFERECOLOR
 62
   256
  9
$CSHADOW
280
     0
  9
$SHADOWPLANELOCATION
 40
0.0
  0
ENDSEC
  0
SECTION
  2
CLASSES
  0
CLASS
  1
ACDBDICTIONARYWDFLT
  2
AcDbDictionaryWithDefault
  3
ObjectDBX Classes
 90
        0
 91
        4
280
     0
281
     0
  0
CLASS
  1
VISUALSTYLE
  2
AcDbVisualStyle
  3
ObjectDBX Classes
 90
     4095
 91
        4
280
     0
281
     0
  0
CLASS
  1
MATERIAL
  2
AcDbMaterial
  3
ObjectDBX Classes
 90
     1153
 91
        4
280
     0
281
     0
  0
ENDSEC
  0
SECTION
  2
TABLES
  0
TABLE
  2
VPORT
  5
8
330
0
100
AcDbSymbolTable
 70
     1
  0
VPORT
  5
29
330
8
100
AcDbSymbolTableRecord
100
AcDbViewportTableRecord
  2
*Active
 70
     0
 10
0.0
 20
0.0
 11
1.0
 21
1.0
 12
10.42990654205607
 22
4.5
 13
0.0
 23
0.0
 14
0.5
 24
0.5
 15
0.5
 25
0.5
 16
0.0
 26
0.0
 36
1.0
 17
0.0
 27
0.0
 37
0.0
 40
9.0
 41
1.972972972850329
 42
50.0
 43
0.0
 44
0.0
 50
0.0
 51
0.0
 71
     0
 72
   100
 73
     1
 74
     3
 75
     0
 76
     0
 77
     0
 78
     0
281
     0
 65
     1
110
0.0
120
0.0
130
0.0
111
1.0
121
0.0
131
0.0
112
0.0
122
1.0
132
0.0
 79
     0
146
0.0
 60
     3
 61
     5
292
     1
282
     1
141
0.0
142
0.0
 63
   250
  0
ENDTAB
  0
TABLE
  2
LTYPE
  5
5
330
0
100
AcDbSymbolTable
 70
     1
  0
LTYPE
  5
14
330
5
100
AcDbSymbolTableRecord
100
AcDbLinetypeTableRecord
  2
ByBlock
 70
     0
  3

 72
    65
 73
     0
 40
0.0
  0
LTYPE
  5
15
330
5
100
AcDbSymbolTableRecord
100
AcDbLinetypeTableRecord
  2
ByLayer
 70
     0
  3

 72
    65
 73
     0
 40
0.0
  0
LTYPE
  5
16
330
5
100
AcDbSymbolTableRecord
100
AcDbLinetypeTableRecord
  2
Continuous
 70
     0
  3
Solid line
 72
    65
 73
     0
 40
0.0
  0
ENDTAB
  0
TABLE
  2
LAYER
  5
2
330
0
100
AcDbSymbolTable
 70
     2
  0
LAYER
  5
10
330
2
100
AcDbSymbolTableRecord
100
AcDbLayerTableRecord
  2
0
 70
     0
 62
     7
  6
Continuous
370
    -3
390
F
347
3E
  0
LAYER
  5
40
330
2
100
AcDbSymbolTableRecord
100
AcDbLayerTableRecord
  2
Layer 1
 70
     0
 62
     7
  6
Continuous
370
    -3
390
F
347
3E
  0
ENDTAB
  0
TABLE
  2
STYLE
  5
3
330
0
100
AcDbSymbolTable
 70
     1
  0
STYLE
  5
11
330
3
100
AcDbSymbolTableRecord
100
AcDbTextStyleTableRecord
  2
Standard
 70
     0
 40
0.0
 41
1.0
 50
0.0
 71
     0
 42
0.2
  3
txt
  4

  0
ENDTAB
  0
TABLE
  2
VIEW
  5
6
330
0
100
AcDbSymbolTable
 70
     0
  0
ENDTAB
  0
TABLE
  2
UCS
  5
7
330
0
100
AcDbSymbolTable
 70
     0
  0
ENDTAB
  0
TABLE
  2
APPID
  5
9
330
0
100
AcDbSymbolTable
 70
     2
  0
APPID
  5
12
330
9
100
AcDbSymbolTableRecord
100
AcDbRegAppTableRecord
  2
ACAD
 70
     0
  0
APPID
  5
3F
330
9
100
AcDbSymbolTableRecord
100
AcDbRegAppTableRecord
  2
ODA
 70
     0
  0
ENDTAB
  0
TABLE
  2
DIMSTYLE
  5
A
330
0
100
AcDbSymbolTable
 70
     1
100
AcDbDimStyleTable
  0
DIMSTYLE
105
27
330
A
100
AcDbSymbolTableRecord
100
AcDbDimStyleTableRecord
  2
Standard
 70
     0
178
     0
340
11
  0
ENDTAB
  0
TABLE
  2
BLOCK_RECORD
  5
1
330
0
100
AcDbSymbolTable
 70
     1
  0
BLOCK_RECORD
  5
1F
330
1
100
AcDbSymbolTableRecord
100
AcDbBlockTableRecord
  2
*Model_Space
340
22
 70
     0
280
     1
281
     0
  0
BLOCK_RECORD
  5
1B
330
1
100
AcDbSymbolTableRecord
100
AcDbBlockTableRecord
  2
*Paper_Space
340
1E
 70
     0
280
     1
281
     0
  0
BLOCK_RECORD
  5
23
330
1
100
AcDbSymbolTableRecord
100
AcDbBlockTableRecord
  2
*Paper_Space0
340
26
 70
     0
280
     1
281
     0
  0
ENDTAB
  0
ENDSEC
  0
SECTION
  2
BLOCKS
  0
BLOCK
  5
20
330
1F
100
AcDbEntity
  8
0
100
AcDbBlockBegin
  2
*Model_Space
 70
     0
 10
0.0
 20
0.0
 30
0.0
  3
*Model_Space
  1

  0
ENDBLK
  5
21
330
1F
100
AcDbEntity
  8
0
100
AcDbBlockEnd
  0
BLOCK
  5
1C
330
1B
100
AcDbEntity
 67
     1
  8
0
100
AcDbBlockBegin
  2
*Paper_Space
 70
     0
 10
0.0
 20
0.0
 30
0.0
  3
*Paper_Space
  1

  0
ENDBLK
  5
1D
330
1B
100
AcDbEntity
 67
     1
  8
0
100
AcDbBlockEnd
  0
BLOCK
  5
24
330
23
100
AcDbEntity
  8
0
100
AcDbBlockBegin
  2
*Paper_Space0
 70
     0
 10
0.0
 20
0.0
 30
0.0
  3
*Paper_Space0
  1

  0
ENDBLK
  5
25
330
23
100
AcDbEntity
  8
0
100
AcDbBlockEnd
  0
ENDSEC
  0
SECTION
  2
ENTITIES
  0
SPLINE
  5
41
330
1F
100
AcDbEntity
  8
Layer 1
 62
     5
100
AcDbSpline
210
0.0
220
0.0
230
1.0
 70
    11
 71
     3
 72
    36
 73
    32
 74
     0
 42
0.0000000001
 43
0.0000000001
 12
1.0
 22
0.0
 32
0.0
 13
1.0
 23
0.0
 33
0.0
 40
0.0
 40
0.0
 40
0.0
 40
0.0
 40
0.1111111111111111
 40
0.1111111111111111
 40
0.1111111111111111
 40
0.1111111111111111
 40
0.2222222222222222
 40
0.2222222222222222
 40
0.2222222222222222
 40
0.2222222222222222
 40
0.3333333333333333
 40
0.3333333333333333
 40
0.3333333333333333
 40
0.3333333333333333
 40
0.4444444444444444
 40
0.4444444444444444
 40
0.4444444444444444
 40
0.4444444444444444
 40
0.5555555555555556
 40
0.5555555555555556
 40
0.5555555555555556
 40
0.5555555555555556
 40
0.6666666666666666
 40
0.6666666666666666
 40
0.6666666666666666
 40
0.6666666666666666
 40
0.7777777777777778
 40
0.7777777777777778
 40
0.7777777777777778
 40
0.7777777777777778
 40
1.0
 40
1.0
 40
1.0
 40
1.0
 10
-16.41347
 20
-10.86102
 30
0.0
 10
-16.43946
 20
-10.87018
 30
0.0
 10
-16.46798
 20
-10.85654
 30
0.0
 10
-16.47714
 20
-10.83055
 30
0.0
 10
-16.47714
 20
-10.83055
 30
0.0
 10
-16.4863
 20
-10.80456
 30
0.0
 10
-16.47266
 20
-10.77604
 30
0.0
 10
-16.44667
 20
-10.76688
 30
0.0
 10
-16.44667
 20
-10.76688
 30
0.0
 10
-16.22514
 20
-10.68791
 30
0.0
 10
-16.05585
 20
-10.59674
 30
0.0
 10
-15.91586
 20
-10.52135
 30
0.0
 10
-15.91586
 20
-10.52135
 30
0.0
 10
-15.75264
 20
-10.43345
 30
0.0
 10
-15.62742
 20
-10.36601
 30
0.0
 10
-15.49792
 20
-10.35847
 30
0.0
 10
-15.49792
 20
-10.35847
 30
0.0
 10
-15.47042
 20
-10.35697
 30
0.0
 10
-15.44689
 20
-10.37804
 30
0.0
 10
-15.44539
 20
-10.40554
 30
0.0
 10
-15.44539
 20
-10.40554
 30
0.0
 10
-15.44389
 20
-10.43304
 30
0.0
 10
-15.46496
 20
-10.45657
 30
0.0
 10
-15.49246
 20
-10.45807
 30
0.0
 10
-15.49246
 20
-10.45807
 30
0.0
 10
-15.59945
 20
-10.4643
 30
0.0
 10
-15.7163
 20
-10.52723
 30
0.0
 10
-15.8686
 20
-10.60925
 30
0.0
 10
-15.8686
 20
-10.60925
 30
0.0
 10
-16.01165
 20
-10.68629
 30
0.0
 10
-16.18463
 20
-10.77945
 30
0.0
 10
-16.41347
 20
-10.86102
 30
0.0
  0
SPLINE
  5
42
330
1F
100
AcDbEntity
  8
Layer 1
 62
     5
100
AcDbSpline
210
0.0
220
0.0
230
1.0
 70
    11
 71
     3
 72
    80
 73
    76
 74
     0
 42
0.0000000001
 43
0.0000000001
 12
1.0
 22
0.0
 32
0.0
 13
1.0
 23
0.0
 33
0.0
 40
0.0
 40
0.0
 40
0.0
 40
0.0
 40
0.05
 40
0.05
 40
0.05
 40
0.05
 40
0.1
 40
0.1
 40
0.1
 40
0.1
 40
0.15
 40
0.15
 40
0.15
 40
0.15
 40
0.2
 40
0.2
 40
0.2
 40
0.2
 40
0.25
 40
0.25
 40
0.25
 40
0.25
 40
0.3
 40
0.3
 40
0.3
 40
0.3
 40
0.35
 40
0.35
 40
0.35
 40
0.35
 40
0.4
 40
0.4
 40
0.4
 40
0.4
 40
0.45
 40
0.45
 40
0.45
 40
0.45
 40
0.5
 40
0.5
 40
0.5
 40
0.5
 40
0.55
 40
0.55
 40
0.55
 40
0.55
 40
0.6
 40
0.6
 40
0.6
 40
0.6
 40
0.65
 40
0.65
 40
0.65
 40
0.65
 40
0.7
 40
0.7
 40
0.7
 40
0.7
 40
0.75
 40
0.75
 40
0.75
 40
0.75
 40
0.8
 40
0.8
 40
0.8
 40
0.8
 40
0.85
 40
0.85
 40
0.85
 40
0.85
 40
0.9
 40
0.9
 40
0.9
 40
0.9
 40
1.0
 40
1.0
 40
1.0
 40
1.0
 10
-13.15378
 20
-11.61475
 30
0.0
 10
-13.14062
 20
-11.63902
 30
0.0
 10
-13.14963
 20
-11.66937
 30
0.0
 10
-13.1739
 20
-11.68253
 30
0.0
 10
-13.1739
 20
-11.68253
 30
0.0
 10
-13.19817
 20
-11.69569
 30
0.0
 10
-13.22852
 20
-11.68668
 30
0.0
 10
-13.24168
 20
-11.66241
 30
0.0
 10
-13.24168
 20
-11.66241
 30
0.0
 10
-13.32008
 20
-11.51786
 30
0.0
 10
-13.33741
 20
-11.43162
 30
0.0
 10
-13.36452
 20
-11.29665
 30
0.0
 10
-13.36452
 20
-11.29665
 30
0.0
 10
-13.36452
 20
-11.29665
 30
0.0
 10
-13.36453
 20
-11.29661
 30
0.0
 10
-13.36453
 20
-11.29661
 30
0.0
 10
-13.36453
 20
-11.29661
 30
0.0
 10
-13.36453
 20
-11.29661
 30
0.0
 10
-13.36471
 20
-11.29665
 30
0.0
 10
-13.36471
 20
-11.29665
 30
0.0
 10
-13.36471
 20
-11.29665
 30
0.0
 10
-13.37074
 20
-11.26656
 30
0.0
 10
-13.37723
 20
-11.2343
 30
0.0
 10
-13.38327
 20
-11.20617
 30
0.0
 10
-13.38327
 20
-11.20617
 30
0.0
 10
-13.40671
 20
-11.09698
 30
0.0
 10
-13.4596
 20
-10.95503
 30
0.0
 10
-13.53878
 20
-10.81739
 30
0.0
 10
-13.53878
 20
-10.81739
 30
0.0
 10
-13.60355
 20
-10.70482
 30
0.0
 10
-13.68573
 20
-10.59544
 30
0.0
 10
-13.78346
 20
-10.50985
 30
0.0
 10
-13.78346
 20
-10.50985
 30
0.0
 10
-13.78346
 20
-10.50985
 30
0.0
 10
-13.79261
 20
-10.50186
 30
0.0
 10
-13.79261
 20
-10.50186
 30
0.0
 10
-13.79261
 20
-10.50186
 30
0.0
 10
-13.83745
 20
-10.46276
 30
0.0
 10
-13.89851
 20
-10.40951
 30
0.0
 10
-13.92576
 20
-10.35577
 30
0.0
 10
-13.92576
 20
-10.35577
 30
0.0
 10
-13.93816
 20
-10.33118
 30
0.0
 10
-13.92828
 20
-10.30118
 30
0.0
 10
-13.90369
 20
-10.28878
 30
0.0
 10
-13.90369
 20
-10.28878
 30
0.0
 10
-13.8791
 20
-10.27638
 30
0.0
 10
-13.8491
 20
-10.28626
 30
0.0
 10
-13.8367
 20
-10.31085
 30
0.0
 10
-13.8367
 20
-10.31085
 30
0.0
 10
-13.81822
 20
-10.3473
 30
0.0
 10
-13.76561
 20
-10.39318
 30
0.0
 10
-13.72699
 20
-10.42686
 30
0.0
 10
-13.72699
 20
-10.42686
 30
0.0
 10
-13.72699
 20
-10.42686
 30
0.0
 10
-13.71784
 20
-10.43485
 30
0.0
 10
-13.71784
 20
-10.43485
 30
0.0
 10
-13.71784
 20
-10.43485
 30
0.0
 10
-13.61133
 20
-10.52813
 30
0.0
 10
-13.52228
 20
-10.64644
 30
0.0
 10
-13.45246
 20
-10.76779
 30
0.0
 10
-13.45246
 20
-10.76779
 30
0.0
 10
-13.36764
 20
-10.91525
 30
0.0
 10
-13.31087
 20
-11.06782
 30
0.0
 10
-13.28561
 20
-11.18547
 30
0.0
 10
-13.28561
 20
-11.18547
 30
0.0
 10
-13.27741
 20
-11.22366
 30
0.0
 10
-13.27181
 20
-11.25148
 30
0.0
 10
-13.26667
 20
-11.27711
 30
0.0
 10
-13.26667
 20
-11.27711
 30
0.0
 10
-13.26667
 20
-11.27711
 30
0.0
 10
-13.26685
 20
-11.27715
 30
0.0
 10
-13.26685
 20
-11.27715
 30
0.0
 10
-13.26685
 20
-11.27715
 30
0.0
 10
-13.24172
 20
-11.40228
 30
0.0
 10
-13.22564
 20
-11.48225
 30
0.0
 10
-13.15378
 20
-11.61475
 30
0.0
  0
SPLINE
  5
43
330
1F
100
AcDbEntity
  8
Layer 1
 62
     5
100
AcDbSpline
210
0.0
220
0.0
230
1.0
 70
    11
 71
     3
 72
    28
 73
    24
 74
     0
 42
0.0000000001
 43
0.0000000001
 12
1.0
 22
0.0
 32
0.0
 13
1.0
 23
0.0
 33
0.0
 40
0.0
 40
0.0
 40
0.0
 40
0.0
 40
0.1428571428571428
 40
0.1428571428571428
 40
0.1428571428571428
 40
0.1428571428571428
 40
0.2857142857142857
 40
0.2857142857142857
 40
0.2857142857142857
 40
0.2857142857142857
 40
0.4285714285714285
 40
0.4285714285714285
 40
0.4285714285714285
 40
0.4285714285714285
 40
0.5714285714285714
 40
0.5714285714285714
 40
0.5714285714285714
 40
0.5714285714285714
 40
0.7142857142857143
 40
0.7142857142857143
 40
0.7142857142857143
 40
0.7142857142857143
 40
1.0
 40
1.0
 40
1.0
 40
1.0
 10
-12.49971
 20
-12.52307
 30
0.0
 10
-12.4981
 20
-12.55057
 30
0.0
 10
-12.51908
 20
-12.57419
 30
0.0
 10
-12.54658
 20
-12.5758
 30
0.0
 10
-12.54658
 20
-12.5758
 30
0.0
 10
-12.57408
 20
-12.57741
 30
0.0
 10
-12.5977
 20
-12.55643
 30
0.0
 10
-12.59931
 20
-12.52893
 30
0.0
 10
-12.59931
 20
-12.52893
 30
0.0
 10
-12.59942
 20
-12.52701
 30
0.0
 10
-12.63346
 20
-11.8578
 30
0.0
 10
-13.14499
 20
-11.45063
 30
0.0
 10
-13.14499
 20
-11.45063
 30
0.0
 10
-13.16656
 20
-11.43349
 30
0.0
 10
-13.17014
 20
-11.40209
 30
0.0
 10
-13.153
 20
-11.38052
 30
0.0
 10
-13.153
 20
-11.38052
 30
0.0
 10
-13.13586
 20
-11.35895
 30
0.0
 10
-13.10446
 20
-11.35537
 30
0.0
 10
-13.08289
 20
-11.37251
 30
0.0
 10
-13.08289
 20
-11.37251
 30
0.0
 10
-12.53609
 20
-11.80775
 30
0.0
 10
-12.49983
 20
-12.52102
 30
0.0
 10
-12.49971
 20
-12.52307
 30
0.0
  0
SPLINE
  5
44
330
1F
100
AcDbEntity
  8
Layer 1
 62
     5
100
AcDbSpline
210
0.0
220
0.0
230
1.0
 70
    11
 71
     3
 72
    28
 73
    24
 74
     0
 42
0.0000000001
 43
0.0000000001
 12
1.0
 22
0.0
 32
0.0
 13
1.0
 23
0.0
 33
0.0
 40
0.0
 40
0.0
 40
0.0
 40
0.0
 40
0.1428571428571428
 40
0.1428571428571428
 40
0.1428571428571428
 40
0.1428571428571428
 40
0.2857142857142857
 40
0.2857142857142857
 40
0.2857142857142857
 40
0.2857142857142857
 40
0.4285714285714285
 40
0.4285714285714285
 40
0.4285714285714285
 40
0.4285714285714285
 40
0.5714285714285714
 40
0.5714285714285714
 40
0.5714285714285714
 40
0.5714285714285714
 40
0.7142857142857143
 40
0.7142857142857143
 40
0.7142857142857143
 40
0.7142857142857143
 40
1.0
 40
1.0
 40
1.0
 40
1.0
 10
-13.63857
 20
-12.04611
 30
0.0
 10
-13.61279
 20
-12.05592
 30
0.0
 10
-13.59985
 20
-12.08478
 30
0.0
 10
-13.60966
 20
-12.11056
 30
0.0
 10
-13.60966
 20
-12.11056
 30
0.0
 10
-13.61947
 20
-12.13634
 30
0.0
 10
-13.64833
 20
-12.14928
 30
0.0
 10
-13.67411
 20
-12.13947
 30
0.0
 10
-13.67411
 20
-12.13947
 30
0.0
 10
-13.67802
 20
-12.13798
 30
0.0
 10
-15.04248
 20
-11.62477
 30
0.0
 10
-15.04248
 20
-10.84595
 30
0.0
 10
-15.04248
 20
-10.84595
 30
0.0
 10
-15.04248
 20
-10.81834
 30
0.0
 10
-15.02009
 20
-10.79595
 30
0.0
 10
-14.99248
 20
-10.79595
 30
0.0
 10
-14.99248
 20
-10.79595
 30
0.0
 10
-14.96487
 20
-10.79595
 30
0.0
 10
-14.94248
 20
-10.81834
 30
0.0
 10
-14.94248
 20
-10.84595
 30
0.0
 10
-14.94248
 20
-10.84595
 30
0.0
 10
-14.94248
 20
-11.55537
 30
0.0
 10
-13.64229
 20
-12.04469
 30
0.0
 10
-13.63857
 20
-12.04611
 30
0.0
  0
SPLINE
  5
45
330
1F
100
AcDbEntity
  8
Layer 1
 62
     5
100
AcDbSpline
210
0.0
220
0.0
230
1.0
 70
    11
 71
     3
 72
    52
 73
    48
 74
     0
 42
0.0000000001
 43
0.0000000001
 12
1.0
 22
0.0
 32
0.0
 13
1.0
 23
0.0
 33
0.0
 40
0.0
 40
0.0
 40
0.0
 40
0.0
 40
0.0769230769230769
 40
0.0769230769230769
 40
0.0769230769230769
 40
0.0769230769230769
 40
0.1538461538461539
 40
0.1538461538461539
 40
0.1538461538461539
 40
0.1538461538461539
 40
0.2307692307692308
 40
0.2307692307692308
 40
0.2307692307692308
 40
0.2307692307692308
 40
0.3076923076923077
 40
0.3076923076923077
 40
0.3076923076923077
 40
0.3076923076923077
 40
0.3846153846153846
 40
0.3846153846153846
 40
0.3846153846153846
 40
0.3846153846153846
 40
0.4615384615384616
 40
0.4615384615384616
 40
0.4615384615384616
 40
0.4615384615384616
 40
0.5384615384615384
 40
0.5384615384615384
 40
0.5384615384615384
 40
0.5384615384615384
 40
0.6153846153846154
 40
0.6153846153846154
 40
0.6153846153846154
 40
0.6153846153846154
 40
0.6923076923076923
 40
0.6923076923076923
 40
0.6923076923076923
 40
0.6923076923076923
 40
0.7692307692307693
 40
0.7692307692307693
 40
0.7692307692307693
 40
0.7692307692307693
 40
0.8461538461538461
 40
0.8461538461538461
 40
0.8461538461538461
 40
0.8461538461538461
 40
1.0
 40
1.0
 40
1.0
 40
1.0
 10
-15.25713
 20
-11.84383
 30
0.0
 10
-15.23653
 20
-11.86206
 30
0.0
 10
-15.23461
 20
-11.89354
 30
0.0
 10
-15.25284
 20
-11.91414
 30
0.0
 10
-15.25284
 20
-11.91414
 30
0.0
 10
-15.27107
 20
-11.93474
 30
0.0
 10
-15.30255
 20
-11.93666
 30
0.0
 10
-15.32315
 20
-11.91843
 30
0.0
 10
-15.32315
 20
-11.91843
 30
0.0
 10
-15.33891
 20
-11.90447
 30
0.0
 10
-15.35342
 20
-11.88944
 30
0.0
 10
-15.36864
 20
-11.87367
 30
0.0
 10
-15.36864
 20
-11.87367
 30
0.0
 10
-15.41331
 20
-11.8274
 30
0.0
 10
-15.46546
 20
-11.77339
 30
0.0
 10
-15.52905
 20
-11.77217
 30
0.0
 10
-15.52905
 20
-11.77217
 30
0.0
 10
-15.63231
 20
-11.7702
 30
0.0
 10
-15.71956
 20
-11.77507
 30
0.0
 10
-15.79906
 20
-11.77951
 30
0.0
 10
-15.79906
 20
-11.77951
 30
0.0
 10
-15.98448
 20
-11.78987
 30
0.0
 10
-16.12944
 20
-11.79796
 30
0.0
 10
-16.35846
 20
-11.71653
 30
0.0
 10
-16.35846
 20
-11.71653
 30
0.0
 10
-16.38445
 20
-11.70737
 30
0.0
 10
-16.39809
 20
-11.67885
 30
0.0
 10
-16.38893
 20
-11.65286
 30
0.0
 10
-16.38893
 20
-11.65286
 30
0.0
 10
-16.37977
 20
-11.62687
 30
0.0
 10
-16.35125
 20
-11.61323
 30
0.0
 10
-16.32526
 20
-11.62239
 30
0.0
 10
-16.32526
 20
-11.62239
 30
0.0
 10
-16.11476
 20
-11.69724
 30
0.0
 10
-15.97862
 20
-11.68964
 30
0.0
 10
-15.80452
 20
-11.67991
 30
0.0
 10
-15.80452
 20
-11.67991
 30
0.0
 10
-15.72416
 20
-11.67542
 30
0.0
 10
-15.63597
 20
-11.6705
 30
0.0
 10
-15.52749
 20
-11.67257
 30
0.0
 10
-15.52749
 20
-11.67257
 30
0.0
 10
-15.42221
 20
-11.6746
 30
0.0
 10
-15.35464
 20
-11.74458
 30
0.0
 10
-15.29676
 20
-11.80453
 30
0.0
 10
-15.29676
 20
-11.80453
 30
0.0
 10
-15.28245
 20
-11.81935
 30
0.0
 10
-15.26881
 20
-11.83348
 30
0.0
 10
-15.25713
 20
-11.84383
 30
0.0
  0
SPLINE
  5
46
330
1F
100
AcDbEntity
  8
Layer 1
 62
     5
100
AcDbSpline
210
0.0
220
0.0
230
1.0
 70
    11
 71
     3
 72
    36
 73
    32
 74
     0
 42
0.0000000001
 43
0.0000000001
 12
1.0
 22
0.0
 32
0.0
 13
1.0
 23
0.0
 33
0.0
 40
0.0
 40
0.0
 40
0.0
 40
0.0
 40
0.1111111111111111
 40
0.1111111111111111
 40
0.1111111111111111
 40
0.1111111111111111
 40
0.2222222222222222
 40
0.2222222222222222
 40
0.2222222222222222
 40
0.2222222222222222
 40
0.3333333333333333
 40
0.3333333333333333
 40
0.3333333333333333
 40
0.3333333333333333
 40
0.4444444444444444
 40
0.4444444444444444
 40
0.4444444444444444
 40
0.4444444444444444
 40
0.5555555555555556
 40
0.5555555555555556
 40
0.5555555555555556
 40
0.5555555555555556
 40
0.6666666666666666
 40
0.6666666666666666
 40
0.6666666666666666
 40
0.6666666666666666
 40
0.7777777777777778
 40
0.7777777777777778
 40
0.7777777777777778
 40
0.7777777777777778
 40
1.0
 40
1.0
 40
1.0
 40
1.0
 10
-16.85793
 20
-10.99945
 30
0.0
 10
-16.83129
 20
-11.00667
 30
0.0
 10
-16.81556
 20
-11.03414
 30
0.0
 10
-16.82278
 20
-11.06078
 30
0.0
 10
-16.82278
 20
-11.06078
 30
0.0
 10
-16.83
 20
-11.08742
 30
0.0
 10
-16.85747
 20
-11.10315
 30
0.0
 10
-16.88411
 20
-11.09593
 30
0.0
 10
-16.88411
 20
-11.09593
 30
0.0
 10
-16.98996
 20
-11.06713
 30
0.0
 10
-17.07601
 20
-11.01903
 30
0.0
 10
-17.13506
 20
-10.94472
 30
0.0
 10
-17.13506
 20
-10.94472
 30
0.0
 10
-17.19439
 20
-10.87008
 30
0.0
 10
-17.22476
 20
-10.77124
 30
0.0
 10
-17.21848
 20
-10.64186
 30
0.0
 10
-17.21848
 20
-10.64186
 30
0.0
 10
-17.21719
 20
-10.61436
 30
0.0
 10
-17.19384
 20
-10.59311
 30
0.0
 10
-17.16634
 20
-10.5944
 30
0.0
 10
-17.16634
 20
-10.5944
 30
0.0
 10
-17.13884
 20
-10.59569
 30
0.0
 10
-17.11759
 20
-10.61904
 30
0.0
 10
-17.11888
 20
-10.64654
 30
0.0
 10
-17.11888
 20
-10.64654
 30
0.0
 10
-17.12389
 20
-10.74993
 30
0.0
 10
-17.10132
 20
-10.82679
 30
0.0
 10
-17.05694
 20
-10.88262
 30
0.0
 10
-17.05694
 20
-10.88262
 30
0.0
 10
-17.01231
 20
-10.93878
 30
0.0
 10
-16.94385
 20
-10.97608
 30
0.0
 10
-16.85793
 20
-10.99945
 30
0.0
  0
SPLINE
  5
47
330
1F
100
AcDbEntity
  8
Layer 1
 62
     5
100
AcDbSpline
210
0.0
220
0.0
230
1.0
 70
    11
 71
     3
 72
    44
 73
    40
 74
     0
 42
0.0000000001
 43
0.0000000001
 12
1.0
 22
0.0
 32
0.0
 13
1.0
 23
0.0
 33
0.0
 40
0.0
 40
0.0
 40
0.0
 40
0.0
 40
0.0909090909090909
 40
0.0909090909090909
 40
0.0909090909090909
 40
0.0909090909090909
 40
0.1818181818181818
 40
0.1818181818181818
 40
0.1818181818181818
 40
0.1818181818181818
 40
0.2727272727272727
 40
0.2727272727272727
 40
0.2727272727272727
 40
0.2727272727272727
 40
0.3636363636363636
 40
0.3636363636363636
 40
0.3636363636363636
 40
0.3636363636363636
 40
0.4545454545454545
 40
0.4545454545454545
 40
0.4545454545454545
 40
0.4545454545454545
 40
0.5454545454545454
 40
0.5454545454545454
 40
0.5454545454545454
 40
0.5454545454545454
 40
0.6363636363636364
 40
0.6363636363636364
 40
0.6363636363636364
 40
0.6363636363636364
 40
0.7272727272727273
 40
0.7272727272727273
 40
0.7272727272727273
 40
0.7272727272727273
 40
0.8181818181818182
 40
0.8181818181818182
 40
0.8181818181818182
 40
0.8181818181818182
 40
1.0
 40
1.0
 40
1.0
 40
1.0
 10
-13.80885
 20
-7.86172
 30
0.0
 10
-13.79915
 20
-7.83594
 30
0.0
 10
-13.77037
 20
-7.82292
 30
0.0
 10
-13.74459
 20
-7.83262
 30
0.0
 10
-13.74459
 20
-7.83262
 30
0.0
 10
-13.71881
 20
-7.84232
 30
0.0
 10
-13.70579
 20
-7.8711
 30
0.0
 10
-13.71549
 20
-7.89688
 30
0.0
 10
-13.71549
 20
-7.89688
 30
0.0
 10
-13.74909
 20
-7.98583
 30
0.0
 10
-13.83549
 20
-8.04749
 30
0.0
 10
-13.93734
 20
-8.0861
 30
0.0
 10
-13.93734
 20
-8.0861
 30
0.0
 10
-14.04684
 20
-8.1276
 30
0.0
 10
-14.17686
 20
-8.14304
 30
0.0
 10
-14.27363
 20
-8.13672
 30
0.0
 10
-14.27363
 20
-8.13672
 30
0.0
 10
-14.28814
 20
-8.14818
 30
0.0
 10
-14.30849
 20
-8.15108
 30
0.0
 10
-14.32625
 20
-8.14251
 30
0.0
 10
-14.32625
 20
-8.14251
 30
0.0
 10
-14.34922
 20
-8.13142
 30
0.0
 10
-14.35984
 20
-8.10502
 30
0.0
 10
-14.35178
 20
-8.08148
 30
0.0
 10
-14.35178
 20
-8.08148
 30
0.0
 10
-14.35171
 20
-8.08007
 30
0.0
 10
-14.35158
 20
-8.07866
 30
0.0
 10
-14.35139
 20
-8.07724
 30
0.0
 10
-14.35139
 20
-8.07724
 30
0.0
 10
-14.34773
 20
-8.04996
 30
0.0
 10
-14.32262
 20
-8.03081
 30
0.0
 10
-14.29534
 20
-8.03447
 30
0.0
 10
-14.29534
 20
-8.03447
 30
0.0
 10
-14.21038
 20
-8.04588
 30
0.0
 10
-14.08062
 20
-8.03371
 30
0.0
 10
-13.9725
 20
-7.99274
 30
0.0
 10
-13.9725
 20
-7.99274
 30
0.0
 10
-13.89518
 20
-7.96344
 30
0.0
 10
-13.8309
 20
-7.92009
 30
0.0
 10
-13.80885
 20
-7.86172
 30
0.0
  0
SPLINE
  5
48
330
1F
100
AcDbEntity
  8
Layer 1
 62
     5
100
AcDbSpline
210
0.0
220
0.0
230
1.0
 70
    11
 71
     3
 72
    68
 73
    64
 74
     0
 42
0.0000000001
 43
0.0000000001
 12
1.0
 22
0.0
 32
0.0
 13
1.0
 23
0.0
 33
0.0
 40
0.0
 40
0.0
 40
0.0
 40
0.0
 40
0.0588235294117647
 40
0.0588235294117647
 40
0.0588235294117647
 40
0.0588235294117647
 40
0.1176470588235294
 40
0.1176470588235294
 40
0.1176470588235294
 40
0.1176470588235294
 40
0.1764705882352941
 40
0.1764705882352941
 40
0.1764705882352941
 40
0.1764705882352941
 40
0.2352941176470588
 40
0.2352941176470588
 40
0.2352941176470588
 40
0.2352941176470588
 40
0.2941176470588235
 40
0.2941176470588235
 40
0.2941176470588235
 40
0.2941176470588235
 40
0.3529411764705883
 40
0.3529411764705883
 40
0.3529411764705883
 40
0.3529411764705883
 40
0.4117647058823529
 40
0.4117647058823529
 40
0.4117647058823529
 40
0.4117647058823529
 40
0.4705882352941176
 40
0.4705882352941176
 40
0.4705882352941176
 40
0.4705882352941176
 40
0.5294117647058824
 40
0.5294117647058824
 40
0.5294117647058824
 40
0.5294117647058824
 40
0.5882352941176471
 40
0.5882352941176471
 40
0.5882352941176471
 40
0.5882352941176471
 40
0.6470588235294118
 40
0.6470588235294118
 40
0.6470588235294118
 40
0.6470588235294118
 40
0.7058823529411765
 40
0.7058823529411765
 40
0.7058823529411765
 40
0.7058823529411765
 40
0.7647058823529411
 40
0.7647058823529411
 40
0.7647058823529411
 40
0.7647058823529411
 40
0.8235294117647058
 40
0.8235294117647058
 40
0.8235294117647058
 40
0.8235294117647058
 40
0.8823529411764706
 40
0.8823529411764706
 40
0.8823529411764706
 40
0.8823529411764706
 40
1.0
 40
1.0
 40
1.0
 40
1.0
 10
-13.52875
 20
-8.05682
 30
0.0
 10
-13.51355
 20
-8.07979
 30
0.0
 10
-13.51984
 20
-8.11076
 30
0.0
 10
-13.54281
 20
-8.12596
 30
0.0
 10
-13.54281
 20
-8.12596
 30
0.0
 10
-13.56578
 20
-8.14116
 30
0.0
 10
-13.59675
 20
-8.13487
 30
0.0
 10
-13.61195
 20
-8.1119
 30
0.0
 10
-13.61195
 20
-8.1119
 30
0.0
 10
-13.64203
 20
-8.06641
 30
0.0
 10
-13.62892
 20
-8.03006
 30
0.0
 10
-13.61617
 20
-7.99469
 30
0.0
 10
-13.61617
 20
-7.99469
 30
0.0
 10
-13.61247
 20
-7.98441
 30
0.0
 10
-13.60883
 20
-7.9743
 30
0.0
 10
-13.60932
 20
-7.97159
 30
0.0
 10
-13.60932
 20
-7.97159
 30
0.0
 10
-13.61062
 20
-7.96437
 30
0.0
 10
-13.62386
 20
-7.95216
 30
0.0
 10
-13.63743
 20
-7.93965
 30
0.0
 10
-13.63743
 20
-7.93965
 30
0.0
 10
-13.64889
 20
-7.92909
 30
0.0
 10
-13.66049
 20
-7.91838
 30
0.0
 10
-13.67141
 20
-7.90483
 30
0.0
 10
-13.67141
 20
-7.90483
 30
0.0
 10
-13.7031
 20
-7.8655
 30
0.0
 10
-13.72755
 20
-7.82107
 30
0.0
 10
-13.74463
 20
-7.77398
 30
0.0
 10
-13.74463
 20
-7.77398
 30
0.0
 10
-13.76209
 20
-7.72583
 30
0.0
 10
-13.77186
 20
-7.67473
 30
0.0
 10
-13.77378
 20
-7.6233
 30
0.0
 10
-13.77378
 20
-7.6233
 30
0.0
 10
-13.77475
 20
-7.5958
 30
0.0
 10
-13.75324
 20
-7.57271
 30
0.0
 10
-13.72574
 20
-7.57174
 30
0.0
 10
-13.72574
 20
-7.57174
 30
0.0
 10
-13.69824
 20
-7.57077
 30
0.0
 10
-13.67515
 20
-7.59228
 30
0.0
 10
-13.67418
 20
-7.61978
 30
0.0
 10
-13.67418
 20
-7.61978
 30
0.0
 10
-13.67265
 20
-7.6607
 30
0.0
 10
-13.66484
 20
-7.70148
 30
0.0
 10
-13.65087
 20
-7.74
 30
0.0
 10
-13.65087
 20
-7.74
 30
0.0
 10
-13.63748
 20
-7.77691
 30
0.0
 10
-13.61838
 20
-7.81166
 30
0.0
 10
-13.59367
 20
-7.84233
 30
0.0
 10
-13.59367
 20
-7.84233
 30
0.0
 10
-13.58768
 20
-7.84977
 30
0.0
 10
-13.5787
 20
-7.85805
 30
0.0
 10
-13.56985
 20
-7.86621
 30
0.0
 10
-13.56985
 20
-7.86621
 30
0.0
 10
-13.54391
 20
-7.89013
 30
0.0
 10
-13.51861
 20
-7.91347
 30
0.0
 10
-13.51128
 20
-7.95401
 30
0.0
 10
-13.51128
 20
-7.95401
 30
0.0
 10
-13.50606
 20
-7.98293
 30
0.0
 10
-13.51416
 20
-8.0054
 30
0.0
 10
-13.52241
 20
-8.02829
 30
0.0
 10
-13.52241
 20
-8.02829
 30
0.0
 10
-13.52679
 20
-8.04045
 30
0.0
 10
-13.5313
 20
-8.05296
 30
0.0
 10
-13.52875
 20
-8.05682
 30
0.0
  0
SPLINE
  5
49
330
1F
100
AcDbEntity
  8
Layer 1
 62
     5
100
AcDbSpline
210
0.0
220
0.0
230
1.0
 70
    11
 71
     3
 72
    84
 73
    80
 74
     0
 42
0.0000000001
 43
0.0000000001
 12
1.0
 22
0.0
 32
0.0
 13
1.0
 23
0.0
 33
0.0
 40
0.0
 40
0.0
 40
0.0
 40
0.0
 40
0.0476190476190476
 40
0.0476190476190476
 40
0.0476190476190476
 40
0.0476190476190476
 40
0.0952380952380952
 40
0.0952380952380952
 40
0.0952380952380952
 40
0.0952380952380952
 40
0.1428571428571428
 40
0.1428571428571428
 40
0.1428571428571428
 40
0.1428571428571428
 40
0.1904761904761905
 40
0.1904761904761905
 40
0.1904761904761905
 40
0.1904761904761905
 40
0.2380952380952381
 40
0.2380952380952381
 40
0.2380952380952381
 40
0.2380952380952381
 40
0.2857142857142857
 40
0.2857142857142857
 40
0.2857142857142857
 40
0.2857142857142857
 40
0.3333333333333333
 40
0.3333333333333333
 40
0.3333333333333333
 40
0.3333333333333333
 40
0.3809523809523809
 40
0.3809523809523809
 40
0.3809523809523809
 40
0.3809523809523809
 40
0.4285714285714285
 40
0.4285714285714285
 40
0.4285714285714285
 40
0.4285714285714285
 40
0.4761904761904762
 40
0.4761904761904762
 40
0.4761904761904762
 40
0.4761904761904762
 40
0.5238095238095238
 40
0.5238095238095238
 40
0.5238095238095238
 40
0.5238095238095238
 40
0.5714285714285714
 40
0.5714285714285714
 40
0.5714285714285714
 40
0.5714285714285714
 40
0.6190476190476191
 40
0.6190476190476191
 40
0.6190476190476191
 40
0.6190476190476191
 40
0.6666666666666666
 40
0.6666666666666666
 40
0.6666666666666666
 40
0.6666666666666666
 40
0.7142857142857143
 40
0.7142857142857143
 40
0.7142857142857143
 40
0.7142857142857143
 40
0.7619047619047619
 40
0.7619047619047619
 40
0.7619047619047619
 40
0.7619047619047619
 40
0.8095238095238095
 40
0.8095238095238095
 40
0.8095238095238095
 40
0.8095238095238095
 40
0.8571428571428571
 40
0.8571428571428571
 40
0.8571428571428571
 40
0.8571428571428571
 40
0.9047619047619048
 40
0.9047619047619048
 40
0.9047619047619048
 40
0.9047619047619048
 40
1.0
 40
1.0
 40
1.0
 40
1.0
 10
-13.30556
 20
-7.88001
 30
0.0
 10
-13.29499
 20
-7.85456
 30
0.0
 10
-13.26578
 20
-7.84249
 30
0.0
 10
-13.24033
 20
-7.85306
 30
0.0
 10
-13.24033
 20
-7.85306
 30
0.0
 10
-13.21488
 20
-7.86363
 30
0.0
 10
-13.20281
 20
-7.89284
 30
0.0
 10
-13.21338
 20
-7.91829
 30
0.0
 10
-13.21338
 20
-7.91829
 30
0.0
 10
-13.21665
 20
-7.92615
 30
0.0
 10
-13.22194
 20
-7.93994
 30
0.0
 10
-13.22821
 20
-7.9563
 30
0.0
 10
-13.22821
 20
-7.9563
 30
0.0
 10
-13.26931
 20
-8.06349
 30
0.0
 10
-13.34965
 20
-8.27305
 30
0.0
 10
-13.45702
 20
-8.28626
 30
0.0
 10
-13.45702
 20
-8.28626
 30
0.0
 10
-13.49279
 20
-8.29065
 30
0.0
 10
-13.53183
 20
-8.28391
 30
0.0
 10
-13.5679
 20
-8.27057
 30
0.0
 10
-13.5679
 20
-8.27057
 30
0.0
 10
-13.6065
 20
-8.2563
 30
0.0
 10
-13.64296
 20
-8.23389
 30
0.0
 10
-13.66863
 20
-8.20946
 30
0.0
 10
-13.66863
 20
-8.20946
 30
0.0
 10
-13.70371
 20
-8.17605
 30
0.0
 10
-13.74667
 20
-8.09214
 30
0.0
 10
-13.76088
 20
-8.01844
 30
0.0
 10
-13.76088
 20
-8.01844
 30
0.0
 10
-13.76689
 20
-7.98725
 30
0.0
 10
-13.76825
 20
-7.95652
 30
0.0
 10
-13.76263
 20
-7.92976
 30
0.0
 10
-13.76263
 20
-7.92976
 30
0.0
 10
-13.75539
 20
-7.89517
 30
0.0
 10
-13.73747
 20
-7.8673
 30
0.0
 10
-13.70529
 20
-7.85134
 30
0.0
 10
-13.70529
 20
-7.85134
 30
0.0
 10
-13.6813
 20
-7.83946
 30
0.0
 10
-13.651
 20
-7.83589
 30
0.0
 10
-13.61331
 20
-7.8437
 30
0.0
 10
-13.61331
 20
-7.8437
 30
0.0
 10
-13.58635
 20
-7.8492
 30
0.0
 10
-13.56894
 20
-7.87553
 30
0.0
 10
-13.57444
 20
-7.90249
 30
0.0
 10
-13.57444
 20
-7.90249
 30
0.0
 10
-13.57994
 20
-7.92945
 30
0.0
 10
-13.60627
 20
-7.94686
 30
0.0
 10
-13.63323
 20
-7.94136
 30
0.0
 10
-13.63323
 20
-7.94136
 30
0.0
 10
-13.64753
 20
-7.9384
 30
0.0
 10
-13.65646
 20
-7.93848
 30
0.0
 10
-13.66115
 20
-7.9408
 30
0.0
 10
-13.66115
 20
-7.9408
 30
0.0
 10
-13.66261
 20
-7.94152
 30
0.0
 10
-13.6639
 20
-7.94498
 30
0.0
 10
-13.66497
 20
-7.95008
 30
0.0
 10
-13.66497
 20
-7.95008
 30
0.0
 10
-13.66769
 20
-7.96303
 30
0.0
 10
-13.66654
 20
-7.98048
 30
0.0
 10
-13.66284
 20
-7.99968
 30
0.0
 10
-13.66284
 20
-7.99968
 30
0.0
 10
-13.65216
 20
-8.05508
 30
0.0
 10
-13.62295
 20
-8.11523
 30
0.0
 10
-13.59987
 20
-8.1372
 30
0.0
 10
-13.59987
 20
-8.1372
 30
0.0
 10
-13.58366
 20
-8.15263
 30
0.0
 10
-13.55965
 20
-8.16715
 30
0.0
 10
-13.53352
 20
-8.17681
 30
0.0
 10
-13.53352
 20
-8.17681
 30
0.0
 10
-13.5112
 20
-8.18506
 30
0.0
 10
-13.48831
 20
-8.1894
 30
0.0
 10
-13.46912
 20
-8.18704
 30
0.0
 10
-13.46912
 20
-8.18704
 30
0.0
 10
-13.42142
 20
-8.18118
 30
0.0
 10
-13.35536
 20
-8.00889
 30
0.0
 10
-13.32157
 20
-7.92076
 30
0.0
 10
-13.32157
 20
-7.92076
 30
0.0
 10
-13.31555
 20
-7.90505
 30
0.0
 10
-13.31044
 20
-7.89174
 30
0.0
 10
-13.30556
 20
-7.88001
 30
0.0
  0
SPLINE
  5
4A
330
1F
100
AcDbEntity
  8
Layer 1
 62
     5
100
AcDbSpline
210
0.0
220
0.0
230
1.0
 70
    11
 71
     3
 72
   132
 73
   128
 74
     0
 42
0.0000000001
 43
0.0000000001
 12
1.0
 22
0.0
 32
0.0
 13
1.0
 23
0.0
 33
0.0
 40
0.0
 40
0.0
 40
0.0
 40
0.0
 40
0.0303030303030303
 40
0.0303030303030303
 40
0.0303030303030303
 40
0.0303030303030303
 40
0.0606060606060606
 40
0.0606060606060606
 40
0.0606060606060606
 40
0.0606060606060606
 40
0.0909090909090909
 40
0.0909090909090909
 40
0.0909090909090909
 40
0.0909090909090909
 40
0.1212121212121212
 40
0.1212121212121212
 40
0.1212121212121212
 40
0.1212121212121212
 40
0.1515151515151515
 40
0.1515151515151515
 40
0.1515151515151515
 40
0.1515151515151515
 40
0.1818181818181818
 40
0.1818181818181818
 40
0.1818181818181818
 40
0.1818181818181818
 40
0.2121212121212121
 40
0.2121212121212121
 40
0.2121212121212121
 40
0.2121212121212121
 40
0.2424242424242424
 40
0.2424242424242424
 40
0.2424242424242424
 40
0.2424242424242424
 40
0.2727272727272727
 40
0.2727272727272727
 40
0.2727272727272727
 40
0.2727272727272727
 40
0.303030303030303
 40
0.303030303030303
 40
0.303030303030303
 40
0.303030303030303
 40
0.3333333333333333
 40
0.3333333333333333
 40
0.3333333333333333
 40
0.3333333333333333
 40
0.3636363636363636
 40
0.3636363636363636
 40
0.3636363636363636
 40
0.3636363636363636
 40
0.3939393939393939
 40
0.3939393939393939
 40
0.3939393939393939
 40
0.3939393939393939
 40
0.4242424242424243
 40
0.4242424242424243
 40
0.4242424242424243
 40
0.4242424242424243
 40
0.4545454545454545
 40
0.4545454545454545
 40
0.4545454545454545
 40
0.4545454545454545
 40
0.4848484848484849
 40
0.4848484848484849
 40
0.4848484848484849
 40
0.4848484848484849
 40
0.5151515151515151
 40
0.5151515151515151
 40
0.5151515151515151
 40
0.5151515151515151
 40
0.5454545454545454
 40
0.5454545454545454
 40
0.5454545454545454
 40
0.5454545454545454
 40
0.5757575757575758
 40
0.5757575757575758
 40
0.5757575757575758
 40
0.5757575757575758
 40
0.6060606060606061
 40
0.6060606060606061
 40
0.6060606060606061
 40
0.6060606060606061
 40
0.6363636363636364
 40
0.6363636363636364
 40
0.6363636363636364
 40
0.6363636363636364
 40
0.6666666666666666
 40
0.6666666666666666
 40
0.6666666666666666
 40
0.6666666666666666
 40
0.696969696969697
 40
0.696969696969697
 40
0.696969696969697
 40
0.696969696969697
 40
0.7272727272727273
 40
0.7272727272727273
 40
0.7272727272727273
 40
0.7272727272727273
 40
0.7575757575757576
 40
0.7575757575757576
 40
0.7575757575757576
 40
0.7575757575757576
 40
0.7878787878787878
 40
0.7878787878787878
 40
0.7878787878787878
 40
0.7878787878787878
 40
0.8181818181818182
 40
0.8181818181818182
 40
0.8181818181818182
 40
0.8181818181818182
 40
0.8484848484848485
 40
0.8484848484848485
 40
0.8484848484848485
 40
0.8484848484848485
 40
0.8787878787878788
 40
0.8787878787878788
 40
0.8787878787878788
 40
0.8787878787878788
 40
0.9090909090909091
 40
0.9090909090909091
 40
0.9090909090909091
 40
0.9090909090909091
 40
0.9393939393939394
 40
0.9393939393939394
 40
0.9393939393939394
 40
0.9393939393939394
 40
1.0
 40
1.0
 40
1.0
 40
1.0
 10
-13.01412
 20
-8.11357
 30
0.0
 10
-13.00799
 20
-8.13044
 30
0.0
 10
-13.01119
 20
-8.15006
 30
0.0
 10
-13.02411
 20
-8.16425
 30
0.0
 10
-13.02411
 20
-8.16425
 30
0.0
 10
-13.03288
 20
-8.17389
 30
0.0
 10
-13.04456
 20
-8.1793
 30
0.0
 10
-13.0566
 20
-8.18037
 30
0.0
 10
-13.0566
 20
-8.18037
 30
0.0
 10
-13.0566
 20
-8.18037
 30
0.0
 10
-13.05717
 20
-8.18122
 30
0.0
 10
-13.05717
 20
-8.18122
 30
0.0
 10
-13.05717
 20
-8.18122
 30
0.0
 10
-13.0531
 20
-8.1844
 30
0.0
 10
-13.05077
 20
-8.18689
 30
0.0
 10
-13.05165
 20
-8.18787
 30
0.0
 10
-13.05165
 20
-8.18787
 30
0.0
 10
-13.06778
 20
-8.20556
 30
0.0
 10
-13.08327
 20
-8.22255
 30
0.0
 10
-13.1059
 20
-8.22488
 30
0.0
 10
-13.1059
 20
-8.22488
 30
0.0
 10
-13.1059
 20
-8.22488
 30
0.0
 10
-13.1059
 20
-8.22492
 30
0.0
 10
-13.1059
 20
-8.22492
 30
0.0
 10
-13.1059
 20
-8.22492
 30
0.0
 10
-13.1391
 20
-8.22835
 30
0.0
 10
-13.1586
 20
-8.21433
 30
0.0
 10
-13.16211
 20
-8.17856
 30
0.0
 10
-13.16211
 20
-8.17856
 30
0.0
 10
-13.16332
 20
-8.16619
 30
0.0
 10
-13.15991
 20
-8.15443
 30
0.0
 10
-13.15327
 20
-8.14501
 30
0.0
 10
-13.15327
 20
-8.14501
 30
0.0
 10
-13.15327
 20
-8.14501
 30
0.0
 10
-13.15332
 20
-8.14497
 30
0.0
 10
-13.15332
 20
-8.14497
 30
0.0
 10
-13.15332
 20
-8.14497
 30
0.0
 10
-13.13177
 20
-8.11431
 30
0.0
 10
-13.08659
 20
-8.04552
 30
0.0
 10
-13.05526
 20
-7.98216
 30
0.0
 10
-13.05526
 20
-7.98216
 30
0.0
 10
-13.03749
 20
-7.94622
 30
0.0
 10
-13.02453
 20
-7.91375
 30
0.0
 10
-13.02478
 20
-7.89618
 30
0.0
 10
-13.02478
 20
-7.89618
 30
0.0
 10
-13.02571
 20
-7.83311
 30
0.0
 10
-13.08176
 20
-7.73386
 30
0.0
 10
-13.12019
 20
-7.66582
 30
0.0
 10
-13.12019
 20
-7.66582
 30
0.0
 10
-13.12019
 20
-7.66582
 30
0.0
 10
-13.12023
 20
-7.66574
 30
0.0
 10
-13.12023
 20
-7.66574
 30
0.0
 10
-13.12023
 20
-7.66574
 30
0.0
 10
-13.12023
 20
-7.66574
 30
0.0
 10
-13.12038
 20
-7.66582
 30
0.0
 10
-13.12038
 20
-7.66582
 30
0.0
 10
-13.12038
 20
-7.66582
 30
0.0
 10
-13.12038
 20
-7.66582
 30
0.0
 10
-13.13088
 20
-7.64717
 30
0.0
 10
-13.13088
 20
-7.64717
 30
0.0
 10
-13.13088
 20
-7.64717
 30
0.0
 10
-13.13134
 20
-7.64635
 30
0.0
 10
-13.13178
 20
-7.64553
 30
0.0
 10
-13.13218
 20
-7.64469
 30
0.0
 10
-13.13218
 20
-7.64469
 30
0.0
 10
-13.14454
 20
-7.6232
 30
0.0
 10
-13.16186
 20
-7.601
 30
0.0
 10
-13.17907
 20
-7.57897
 30
0.0
 10
-13.17907
 20
-7.57897
 30
0.0
 10
-13.20324
 20
-7.548
 30
0.0
 10
-13.22728
 20
-7.51722
 30
0.0
 10
-13.24373
 20
-7.48219
 30
0.0
 10
-13.24373
 20
-7.48219
 30
0.0
 10
-13.25619
 20
-7.45566
 30
0.0
 10
-13.26117
 20
-7.43049
 30
0.0
 10
-13.26603
 20
-7.40594
 30
0.0
 10
-13.26603
 20
-7.40594
 30
0.0
 10
-13.27252
 20
-7.37311
 30
0.0
 10
-13.27869
 20
-7.34196
 30
0.0
 10
-13.31321
 20
-7.33184
 30
0.0
 10
-13.31321
 20
-7.33184
 30
0.0
 10
-13.33963
 20
-7.32408
 30
0.0
 10
-13.35476
 20
-7.29635
 30
0.0
 10
-13.347
 20
-7.26993
 30
0.0
 10
-13.347
 20
-7.26993
 30
0.0
 10
-13.33924
 20
-7.24351
 30
0.0
 10
-13.31151
 20
-7.22838
 30
0.0
 10
-13.28509
 20
-7.23614
 30
0.0
 10
-13.28509
 20
-7.23614
 30
0.0
 10
-13.19243
 20
-7.26332
 30
0.0
 10
-13.18052
 20
-7.32343
 30
0.0
 10
-13.16799
 20
-7.3868
 30
0.0
 10
-13.16799
 20
-7.3868
 30
0.0
 10
-13.16422
 20
-7.40586
 30
0.0
 10
-13.16034
 20
-7.42541
 30
0.0
 10
-13.15349
 20
-7.44001
 30
0.0
 10
-13.15349
 20
-7.44001
 30
0.0
 10
-13.14191
 20
-7.46468
 30
0.0
 10
-13.12128
 20
-7.49109
 30
0.0
 10
-13.10055
 20
-7.51765
 30
0.0
 10
-13.10055
 20
-7.51765
 30
0.0
 10
-13.08103
 20
-7.54265
 30
0.0
 10
-13.06139
 20
-7.56779
 30
0.0
 10
-13.04553
 20
-7.59546
 30
0.0
 10
-13.04553
 20
-7.59546
 30
0.0
 10
-13.04492
 20
-7.5964
 30
0.0
 10
-13.04433
 20
-7.59736
 30
0.0
 10
-13.04378
 20
-7.59835
 30
0.0
 10
-13.04378
 20
-7.59835
 30
0.0
 10
-13.04378
 20
-7.59835
 30
0.0
 10
-13.03328
 20
-7.617
 30
0.0
 10
-13.03328
 20
-7.617
 30
0.0
 10
-13.03328
 20
-7.617
 30
0.0
 10
-13.03328
 20
-7.617
 30
0.0
 10
-13.03342
 20
-7.61708
 30
0.0
 10
-13.03342
 20
-7.61708
 30
0.0
 10
-13.03342
 20
-7.61708
 30
0.0
 10
-12.98991
 20
-7.69413
 30
0.0
 10
-12.92648
 20
-7.80646
 30
0.0
 10
-12.92518
 20
-7.895
 30
0.0
 10
-12.92518
 20
-7.895
 30
0.0
 10
-12.92466
 20
-7.93051
 30
0.0
 10
-12.94198
 20
-7.97812
 30
0.0
 10
-12.9658
 20
-8.0263
 30
0.0
 10
-12.9658
 20
-8.0263
 30
0.0
 10
-12.98034
 20
-8.0557
 30
0.0
 10
-12.99746
 20
-8.08596
 30
0.0
 10
-13.01412
 20
-8.11357
 30
0.0
  0
SPLINE
  5
4B
330
1F
100
AcDbEntity
  8
Layer 1
 62
     5
100
AcDbSpline
210
0.0
220
0.0
230
1.0
 70
    11
 71
     3
 72
    80
 73
    76
 74
     0
 42
0.0000000001
 43
0.0000000001
 12
1.0
 22
0.0
 32
0.0
 13
1.0
 23
0.0
 33
0.0
 40
0.0
 40
0.0
 40
0.0
 40
0.0
 40
0.05
 40
0.05
 40
0.05
 40
0.05
 40
0.1
 40
0.1
 40
0.1
 40
0.1
 40
0.15
 40
0.15
 40
0.15
 40
0.15
 40
0.2
 40
0.2
 40
0.2
 40
0.2
 40
0.25
 40
0.25
 40
0.25
 40
0.25
 40
0.3
 40
0.3
 40
0.3
 40
0.3
 40
0.35
 40
0.35
 40
0.35
 40
0.35
 40
0.4
 40
0.4
 40
0.4
 40
0.4
 40
0.45
 40
0.45
 40
0.45
 40
0.45
 40
0.5
 40
0.5
 40
0.5
 40
0.5
 40
0.55
 40
0.55
 40
0.55
 40
0.55
 40
0.6
 40
0.6
 40
0.6
 40
0.6
 40
0.65
 40
0.65
 40
0.65
 40
0.65
 40
0.7
 40
0.7
 40
0.7
 40
0.7
 40
0.75
 40
0.75
 40
0.75
 40
0.75
 40
0.8
 40
0.8
 40
0.8
 40
0.8
 40
0.85
 40
0.85
 40
0.85
 40
0.85
 40
0.9
 40
0.9
 40
0.9
 40
0.9
 40
1.0
 40
1.0
 40
1.0
 40
1.0
 10
-12.80192
 20
-8.08891
 30
0.0
 10
-12.78617
 20
-8.11145
 30
0.0
 10
-12.79168
 20
-8.1425
 30
0.0
 10
-12.81422
 20
-8.15825
 30
0.0
 10
-12.81422
 20
-8.15825
 30
0.0
 10
-12.83676
 20
-8.174
 30
0.0
 10
-12.86781
 20
-8.16849
 30
0.0
 10
-12.88356
 20
-8.14595
 30
0.0
 10
-12.88356
 20
-8.14595
 30
0.0
 10
-12.91215
 20
-8.10497
 30
0.0
 10
-12.88019
 20
-8.04945
 30
0.0
 10
-12.84771
 20
-7.99307
 30
0.0
 10
-12.84771
 20
-7.99307
 30
0.0
 10
-12.83139
 20
-7.96476
 30
0.0
 10
-12.81487
 20
-7.93609
 30
0.0
 10
-12.81202
 20
-7.92226
 30
0.0
 10
-12.81202
 20
-7.92226
 30
0.0
 10
-12.80378
 20
-7.88241
 30
0.0
 10
-12.83583
 20
-7.83105
 30
0.0
 10
-12.86508
 20
-7.78418
 30
0.0
 10
-12.86508
 20
-7.78418
 30
0.0
 10
-12.87628
 20
-7.76622
 30
0.0
 10
-12.88717
 20
-7.74878
 30
0.0
 10
-12.89673
 20
-7.73064
 30
0.0
 10
-12.89673
 20
-7.73064
 30
0.0
 10
-12.91263
 20
-7.70047
 30
0.0
 10
-12.95428
 20
-7.63702
 30
0.0
 10
-12.99683
 20
-7.57221
 30
0.0
 10
-12.99683
 20
-7.57221
 30
0.0
 10
-12.99683
 20
-7.57221
 30
0.0
 10
-12.99689
 20
-7.57212
 30
0.0
 10
-12.99689
 20
-7.57212
 30
0.0
 10
-12.99689
 20
-7.57212
 30
0.0
 10
-12.99689
 20
-7.57212
 30
0.0
 10
-12.99703
 20
-7.57221
 30
0.0
 10
-12.99703
 20
-7.57221
 30
0.0
 10
-12.99703
 20
-7.57221
 30
0.0
 10
-13.02856
 20
-7.52418
 30
0.0
 10
-13.06062
 20
-7.47535
 30
0.0
 10
-13.08526
 20
-7.4352
 30
0.0
 10
-13.08526
 20
-7.4352
 30
0.0
 10
-13.0996
 20
-7.41169
 30
0.0
 10
-13.09217
 20
-7.38098
 30
0.0
 10
-13.06866
 20
-7.36664
 30
0.0
 10
-13.06866
 20
-7.36664
 30
0.0
 10
-13.04515
 20
-7.3523
 30
0.0
 10
-13.01444
 20
-7.35973
 30
0.0
 10
-13.0001
 20
-7.38324
 30
0.0
 10
-13.0001
 20
-7.38324
 30
0.0
 10
-12.97869
 20
-7.41812
 30
0.0
 10
-12.9458
 20
-7.46822
 30
0.0
 10
-12.91343
 20
-7.51753
 30
0.0
 10
-12.91343
 20
-7.51753
 30
0.0
 10
-12.91343
 20
-7.51753
 30
0.0
 10
-12.91357
 20
-7.51762
 30
0.0
 10
-12.91357
 20
-7.51762
 30
0.0
 10
-12.91357
 20
-7.51762
 30
0.0
 10
-12.8691
 20
-7.58536
 30
0.0
 10
-12.82557
 20
-7.65165
 30
0.0
 10
-12.80845
 20
-7.68416
 30
0.0
 10
-12.80845
 20
-7.68416
 30
0.0
 10
-12.801
 20
-7.6983
 30
0.0
 10
-12.7908
 20
-7.71464
 30
0.0
 10
-12.78032
 20
-7.73144
 30
0.0
 10
-12.78032
 20
-7.73144
 30
0.0
 10
-12.74105
 20
-7.79436
 30
0.0
 10
-12.69803
 20
-7.86328
 30
0.0
 10
-12.71436
 20
-7.94218
 30
0.0
 10
-12.71436
 20
-7.94218
 30
0.0
 10
-12.72043
 20
-7.97159
 30
0.0
 10
-12.74104
 20
-8.00737
 30
0.0
 10
-12.76139
 20
-8.04267
 30
0.0
 10
-12.76139
 20
-8.04267
 30
0.0
 10
-12.77797
 20
-8.07146
 30
0.0
 10
-12.80951
 20
-8.07802
 30
0.0
 10
-12.80192
 20
-8.08891
 30
0.0
  0
SPLINE
  5
4C
330
1F
100
AcDbEntity
  8
Layer 1
 62
     5
100
AcDbSpline
210
0.0
220
0.0
230
1.0
 70
    11
 71
     3
 72
   116
 73
   112
 74
     0
 42
0.0000000001
 43
0.0000000001
 12
1.0
 22
0.0
 32
0.0
 13
1.0
 23
0.0
 33
0.0
 40
0.0
 40
0.0
 40
0.0
 40
0.0
 40
0.0344827586206897
 40
0.0344827586206897
 40
0.0344827586206897
 40
0.0344827586206897
 40
0.0689655172413793
 40
0.0689655172413793
 40
0.0689655172413793
 40
0.0689655172413793
 40
0.103448275862069
 40
0.103448275862069
 40
0.103448275862069
 40
0.103448275862069
 40
0.1379310344827586
 40
0.1379310344827586
 40
0.1379310344827586
 40
0.1379310344827586
 40
0.1724137931034483
 40
0.1724137931034483
 40
0.1724137931034483
 40
0.1724137931034483
 40
0.2068965517241379
 40
0.2068965517241379
 40
0.2068965517241379
 40
0.2068965517241379
 40
0.2413793103448276
 40
0.2413793103448276
 40
0.2413793103448276
 40
0.2413793103448276
 40
0.2758620689655172
 40
0.2758620689655172
 40
0.2758620689655172
 40
0.2758620689655172
 40
0.3103448275862069
 40
0.3103448275862069
 40
0.3103448275862069
 40
0.3103448275862069
 40
0.3448275862068966
 40
0.3448275862068966
 40
0.3448275862068966
 40
0.3448275862068966
 40
0.3793103448275862
 40
0.3793103448275862
 40
0.3793103448275862
 40
0.3793103448275862
 40
0.4137931034482759
 40
0.4137931034482759
 40
0.4137931034482759
 40
0.4137931034482759
 40
0.4482758620689655
 40
0.4482758620689655
 40
0.4482758620689655
 40
0.4482758620689655
 40
0.4827586206896552
 40
0.4827586206896552
 40
0.4827586206896552
 40
0.4827586206896552
 40
0.5172413793103449
 40
0.5172413793103449
 40
0.5172413793103449
 40
0.5172413793103449
 40
0.5517241379310345
 40
0.5517241379310345
 40
0.5517241379310345
 40
0.5517241379310345
 40
0.5862068965517241
 40
0.5862068965517241
 40
0.5862068965517241
 40
0.5862068965517241
 40
0.6206896551724138
 40
0.6206896551724138
 40
0.6206896551724138
 40
0.6206896551724138
 40
0.6551724137931034
 40
0.6551724137931034
 40
0.6551724137931034
 40
0.6551724137931034
 40
0.6896551724137931
 40
0.6896551724137931
 40
0.6896551724137931
 40
0.6896551724137931
 40
0.7241379310344828
 40
0.7241379310344828
 40
0.7241379310344828
 40
0.7241379310344828
 40
0.7586206896551724
 40
0.7586206896551724
 40
0.7586206896551724
 40
0.7586206896551724
 40
0.7931034482758621
 40
0.7931034482758621
 40
0.7931034482758621
 40
0.7931034482758621
 40
0.8275862068965517
 40
0.8275862068965517
 40
0.8275862068965517
 40
0.8275862068965517
 40
0.8620689655172413
 40
0.8620689655172413
 40
0.8620689655172413
 40
0.8620689655172413
 40
0.896551724137931
 40
0.896551724137931
 40
0.896551724137931
 40
0.896551724137931
 40
0.9310344827586207
 40
0.9310344827586207
 40
0.9310344827586207
 40
0.9310344827586207
 40
1.0
 40
1.0
 40
1.0
 40
1.0
 10
-13.20947
 20
-7.89915
 30
0.0
 10
-13.20947
 20
-7.92676
 30
0.0
 10
-13.23186
 20
-7.94915
 30
0.0
 10
-13.25947
 20
-7.94915
 30
0.0
 10
-13.25947
 20
-7.94915
 30
0.0
 10
-13.28708
 20
-7.94915
 30
0.0
 10
-13.30947
 20
-7.92676
 30
0.0
 10
-13.30947
 20
-7.89915
 30
0.0
 10
-13.30947
 20
-7.89915
 30
0.0
 10
-13.30947
 20
-7.89339
 30
0.0
 10
-13.30812
 20
-7.88725
 30
0.0
 10
-13.3061
 20
-7.87772
 30
0.0
 10
-13.3061
 20
-7.87772
 30
0.0
 10
-13.30209
 20
-7.85887
 30
0.0
 10
-13.29325
 20
-7.81726
 30
0.0
 10
-13.29445
 20
-7.81215
 30
0.0
 10
-13.29445
 20
-7.81215
 30
0.0
 10
-13.29731
 20
-7.79997
 30
0.0
 10
-13.31422
 20
-7.78171
 30
0.0
 10
-13.33025
 20
-7.76441
 30
0.0
 10
-13.33025
 20
-7.76441
 30
0.0
 10
-13.34343
 20
-7.75016
 30
0.0
 10
-13.35625
 20
-7.73631
 30
0.0
 10
-13.36587
 20
-7.72187
 30
0.0
 10
-13.36587
 20
-7.72187
 30
0.0
 10
-13.38042
 20
-7.70004
 30
0.0
 10
-13.39377
 20
-7.68074
 30
0.0
 10
-13.40713
 20
-7.66145
 30
0.0
 10
-13.40713
 20
-7.66145
 30
0.0
 10
-13.43618
 20
-7.61947
 30
0.0
 10
-13.46549
 20
-7.57714
 30
0.0
 10
-13.49075
 20
-7.53446
 30
0.0
 10
-13.49075
 20
-7.53446
 30
0.0
 10
-13.5
 20
-7.51882
 30
0.0
 10
-13.51063
 20
-7.48557
 30
0.0
 10
-13.52258
 20
-7.44821
 30
0.0
 10
-13.52258
 20
-7.44821
 30
0.0
 10
-13.52258
 20
-7.44821
 30
0.0
 10
-13.52326
 20
-7.44588
 30
0.0
 10
-13.52326
 20
-7.44588
 30
0.0
 10
-13.52326
 20
-7.44588
 30
0.0
 10
-13.53498
 20
-7.40921
 30
0.0
 10
-13.54812
 20
-7.36828
 30
0.0
 10
-13.55621
 20
-7.34997
 30
0.0
 10
-13.55621
 20
-7.34997
 30
0.0
 10
-13.56202
 20
-7.34759
 30
0.0
 10
-13.56748
 20
-7.34406
 30
0.0
 10
-13.57223
 20
-7.33939
 30
0.0
 10
-13.57223
 20
-7.33939
 30
0.0
 10
-13.59186
 20
-7.32009
 30
0.0
 10
-13.59212
 20
-7.28851
 30
0.0
 10
-13.57282
 20
-7.26888
 30
0.0
 10
-13.57282
 20
-7.26888
 30
0.0
 10
-13.54521
 20
-7.24093
 30
0.0
 10
-13.51806
 20
-7.24358
 30
0.0
 10
-13.49163
 20
-7.26948
 30
0.0
 10
-13.49163
 20
-7.26948
 30
0.0
 10
-13.49163
 20
-7.26948
 30
0.0
 10
-13.49138
 20
-7.26972
 30
0.0
 10
-13.49138
 20
-7.26972
 30
0.0
 10
-13.49138
 20
-7.26972
 30
0.0
 10
-13.49138
 20
-7.26972
 30
0.0
 10
-13.49127
 20
-7.26984
 30
0.0
 10
-13.49127
 20
-7.26984
 30
0.0
 10
-13.49127
 20
-7.26984
 30
0.0
 10
-13.49127
 20
-7.26984
 30
0.0
 10
-13.49118
 20
-7.26992
 30
0.0
 10
-13.49118
 20
-7.26992
 30
0.0
 10
-13.49118
 20
-7.26992
 30
0.0
 10
-13.46768
 20
-7.29341
 30
0.0
 10
-13.44653
 20
-7.35888
 30
0.0
 10
-13.42837
 20
-7.41572
 30
0.0
 10
-13.42837
 20
-7.41572
 30
0.0
 10
-13.42837
 20
-7.41572
 30
0.0
 10
-13.42766
 20
-7.41775
 30
0.0
 10
-13.42766
 20
-7.41775
 30
0.0
 10
-13.42766
 20
-7.41775
 30
0.0
 10
-13.41761
 20
-7.44918
 30
0.0
 10
-13.40864
 20
-7.4772
 30
0.0
 10
-13.40481
 20
-7.48368
 30
0.0
 10
-13.40481
 20
-7.48368
 30
0.0
 10
-13.38047
 20
-7.5248
 30
0.0
 10
-13.35266
 20
-7.56497
 30
0.0
 10
-13.32509
 20
-7.60481
 30
0.0
 10
-13.32509
 20
-7.60481
 30
0.0
 10
-13.31013
 20
-7.62642
 30
0.0
 10
-13.29524
 20
-7.64793
 30
0.0
 10
-13.28267
 20
-7.66679
 30
0.0
 10
-13.28267
 20
-7.66679
 30
0.0
 10
-13.27667
 20
-7.6758
 30
0.0
 10
-13.26707
 20
-7.68617
 30
0.0
 10
-13.25721
 20
-7.69683
 30
0.0
 10
-13.25721
 20
-7.69683
 30
0.0
 10
-13.23228
 20
-7.72375
 30
0.0
 10
-13.20598
 20
-7.75216
 30
0.0
 10
-13.19719
 20
-7.78949
 30
0.0
 10
-13.19719
 20
-7.78949
 30
0.0
 10
-13.19092
 20
-7.81602
 30
0.0
 10
-13.20298
 20
-7.87273
 30
0.0
 10
-13.20844
 20
-7.89842
 30
0.0
 10
-13.20844
 20
-7.89842
 30
0.0
 10
-13.20875
 20
-7.89988
 30
0.0
 10
-13.20899
 20
-7.89898
 30
0.0
 10
-13.20918
 20
-7.89826
 30
0.0
 10
-13.20918
 20
-7.89826
 30
0.0
 10
-13.20918
 20
-7.89826
 30
0.0
 10
-13.20946
 20
-7.8982
 30
0.0
 10
-13.20946
 20
-7.8982
 30
0.0
 10
-13.20946
 20
-7.8982
 30
0.0
 10
-13.20946
 20
-7.8982
 30
0.0
 10
-13.20947
 20
-7.89915
 30
0.0
 10
-13.20947
 20
-7.89915
 30
0.0
  0
SPLINE
  5
4D
330
1F
100
AcDbEntity
  8
Layer 1
 62
     5
100
AcDbSpline
210
0.0
220
0.0
230
1.0
 70
    11
 71
     3
 72
    12
 73
     8
 74
     0
 42
0.0000000001
 43
0.0000000001
 12
1.0
 22
0.0
 32
0.0
 13
1.0
 23
0.0
 33
0.0
 40
0.0
 40
0.0
 40
0.0
 40
0.0
 40
0.3333333333333333
 40
0.3333333333333333
 40
0.3333333333333333
 40
0.3333333333333333
 40
1.0
 40
1.0
 40
1.0
 40
1.0
 10
-13.20918
 20
-7.89826
 30
0.0
 10
-13.20933
 20
-7.89768
 30
0.0
 10
-13.20943
 20
-7.89722
 30
0.0
 10
-13.20946
 20
-7.8982
 30
0.0
 10
-13.20946
 20
-7.8982
 30
0.0
 10
-13.20946
 20
-7.8982
 30
0.0
 10
-13.20918
 20
-7.89826
 30
0.0
 10
-13.20918
 20
-7.89826
 30
0.0
  0
SPLINE
  5
4E
330
1F
100
AcDbEntity
  8
Layer 1
 62
     5
100
AcDbSpline
210
0.0
220
0.0
230
1.0
 70
    11
 71
     3
 72
    52
 73
    48
 74
     0
 42
0.0000000001
 43
0.0000000001
 12
1.0
 22
0.0
 32
0.0
 13
1.0
 23
0.0
 33
0.0
 40
0.0
 40
0.0
 40
0.0
 40
0.0
 40
0.0769230769230769
 40
0.0769230769230769
 40
0.0769230769230769
 40
0.0769230769230769
 40
0.1538461538461539
 40
0.1538461538461539
 40
0.1538461538461539
 40
0.1538461538461539
 40
0.2307692307692308
 40
0.2307692307692308
 40
0.2307692307692308
 40
0.2307692307692308
 40
0.3076923076923077
 40
0.3076923076923077
 40
0.3076923076923077
 40
0.3076923076923077
 40
0.3846153846153846
 40
0.3846153846153846
 40
0.3846153846153846
 40
0.3846153846153846
 40
0.4615384615384616
 40
0.4615384615384616
 40
0.4615384615384616
 40
0.4615384615384616
 40
0.5384615384615384
 40
0.5384615384615384
 40
0.5384615384615384
 40
0.5384615384615384
 40
0.6153846153846154
 40
0.6153846153846154
 40
0.6153846153846154
 40
0.6153846153846154
 40
0.6923076923076923
 40
0.6923076923076923
 40
0.6923076923076923
 40
0.6923076923076923
 40
0.7692307692307693
 40
0.7692307692307693
 40
0.7692307692307693
 40
0.7692307692307693
 40
0.8461538461538461
 40
0.8461538461538461
 40
0.8461538461538461
 40
0.8461538461538461
 40
1.0
 40
1.0
 40
1.0
 40
1.0
 10
-13.16046
 20
-8.49536
 30
0.0
 10
-13.15
 20
-8.52081
 30
0.0
 10
-13.16215
 20
-8.54994
 30
0.0
 10
-13.1876
 20
-8.5604
 30
0.0
 10
-13.1876
 20
-8.5604
 30
0.0
 10
-13.21305
 20
-8.57086
 30
0.0
 10
-13.24218
 20
-8.55871
 30
0.0
 10
-13.25264
 20
-8.53326
 30
0.0
 10
-13.25264
 20
-8.53326
 30
0.0
 10
-13.27898
 20
-8.4696
 30
0.0
 10
-13.2954
 20
-8.38751
 30
0.0
 10
-13.28142
 20
-8.31502
 30
0.0
 10
-13.28142
 20
-8.31502
 30
0.0
 10
-13.26932
 20
-8.25233
 30
0.0
 10
-13.23587
 20
-8.19687
 30
0.0
 10
-13.16978
 20
-8.16384
 30
0.0
 10
-13.16978
 20
-8.16384
 30
0.0
 10
-13.13947
 20
-8.14867
 30
0.0
 10
-13.07404
 20
-8.13882
 30
0.0
 10
-13.01202
 20
-8.14656
 30
0.0
 10
-13.01202
 20
-8.14656
 30
0.0
 10
-12.96365
 20
-8.1526
 30
0.0
 10
-12.91461
 20
-8.1689
 30
0.0
 10
-12.87969
 20
-8.20072
 30
0.0
 10
-12.87969
 20
-8.20072
 30
0.0
 10
-12.85931
 20
-8.21927
 30
0.0
 10
-12.85782
 20
-8.25084
 30
0.0
 10
-12.87637
 20
-8.27122
 30
0.0
 10
-12.87637
 20
-8.27122
 30
0.0
 10
-12.89492
 20
-8.2916
 30
0.0
 10
-12.92649
 20
-8.29309
 30
0.0
 10
-12.94687
 20
-8.27454
 30
0.0
 10
-12.94687
 20
-8.27454
 30
0.0
 10
-12.96459
 20
-8.25838
 30
0.0
 10
-12.99381
 20
-8.24957
 30
0.0
 10
-13.02412
 20
-8.24578
 30
0.0
 10
-13.02412
 20
-8.24578
 30
0.0
 10
-13.06785
 20
-8.24033
 30
0.0
 10
-13.10906
 20
-8.2448
 30
0.0
 10
-13.12524
 20
-8.2529
 30
0.0
 10
-13.12524
 20
-8.2529
 30
0.0
 10
-13.15931
 20
-8.26993
 30
0.0
 10
-13.17681
 20
-8.29972
 30
0.0
 10
-13.18338
 20
-8.33378
 30
0.0
 10
-13.18338
 20
-8.33378
 30
0.0
 10
-13.19336
 20
-8.38554
 30
0.0
 10
-13.18056
 20
-8.44678
 30
0.0
 10
-13.16046
 20
-8.49536
 30
0.0
  0
SPLINE
  5
4F
330
1F
100
AcDbEntity
  8
Layer 1
 62
     5
100
AcDbSpline
210
0.0
220
0.0
230
1.0
 70
    11
 71
     3
 72
    44
 73
    40
 74
     0
 42
0.0000000001
 43
0.0000000001
 12
1.0
 22
0.0
 32
0.0
 13
1.0
 23
0.0
 33
0.0
 40
0.0
 40
0.0
 40
0.0
 40
0.0
 40
0.0909090909090909
 40
0.0909090909090909
 40
0.0909090909090909
 40
0.0909090909090909
 40
0.1818181818181818
 40
0.1818181818181818
 40
0.1818181818181818
 40
0.1818181818181818
 40
0.2727272727272727
 40
0.2727272727272727
 40
0.2727272727272727
 40
0.2727272727272727
 40
0.3636363636363636
 40
0.3636363636363636
 40
0.3636363636363636
 40
0.3636363636363636
 40
0.4545454545454545
 40
0.4545454545454545
 40
0.4545454545454545
 40
0.4545454545454545
 40
0.5454545454545454
 40
0.5454545454545454
 40
0.5454545454545454
 40
0.5454545454545454
 40
0.6363636363636364
 40
0.6363636363636364
 40
0.6363636363636364
 40
0.6363636363636364
 40
0.7272727272727273
 40
0.7272727272727273
 40
0.7272727272727273
 40
0.7272727272727273
 40
0.8181818181818182
 40
0.8181818181818182
 40
0.8181818181818182
 40
0.8181818181818182
 40
1.0
 40
1.0
 40
1.0
 40
1.0
 10
-13.21822
 20
-8.21977
 30
0.0
 10
-13.19072
 20
-8.22063
 30
0.0
 10
-13.16912
 20
-8.24363
 30
0.0
 10
-13.16998
 20
-8.27113
 30
0.0
 10
-13.16998
 20
-8.27113
 30
0.0
 10
-13.17084
 20
-8.29863
 30
0.0
 10
-13.19384
 20
-8.32023
 30
0.0
 10
-13.22134
 20
-8.31937
 30
0.0
 10
-13.22134
 20
-8.31937
 30
0.0
 10
-13.26292
 20
-8.31796
 30
0.0
 10
-13.29915
 20
-8.31187
 30
0.0
 10
-13.33371
 20
-8.29905
 30
0.0
 10
-13.33371
 20
-8.29905
 30
0.0
 10
-13.33521
 20
-8.29849
 30
0.0
 10
-13.33667
 20
-8.29787
 30
0.0
 10
-13.33809
 20
-8.29719
 30
0.0
 10
-13.33809
 20
-8.29719
 30
0.0
 10
-13.37158
 20
-8.28419
 30
0.0
 10
-13.40289
 20
-8.26532
 30
0.0
 10
-13.43528
 20
-8.23881
 30
0.0
 10
-13.43528
 20
-8.23881
 30
0.0
 10
-13.45663
 20
-8.22134
 30
0.0
 10
-13.45978
 20
-8.18985
 30
0.0
 10
-13.44231
 20
-8.1685
 30
0.0
 10
-13.44231
 20
-8.1685
 30
0.0
 10
-13.42484
 20
-8.14715
 30
0.0
 10
-13.39335
 20
-8.144
 30
0.0
 10
-13.372
 20
-8.16147
 30
0.0
 10
-13.372
 20
-8.16147
 30
0.0
 10
-13.34771
 20
-8.18135
 30
0.0
 10
-13.32531
 20
-8.19513
 30
0.0
 10
-13.30257
 20
-8.2041
 30
0.0
 10
-13.30257
 20
-8.2041
 30
0.0
 10
-13.30136
 20
-8.20445
 30
0.0
 10
-13.30015
 20
-8.20485
 30
0.0
 10
-13.29895
 20
-8.20529
 30
0.0
 10
-13.29895
 20
-8.20529
 30
0.0
 10
-13.27437
 20
-8.2144
 30
0.0
 10
-13.24832
 20
-8.21875
 30
0.0
 10
-13.21822
 20
-8.21977
 30
0.0
  0
SPLINE
  5
50
330
1F
100
AcDbEntity
  8
Layer 1
 62
     5
100
AcDbSpline
210
0.0
220
0.0
230
1.0
 70
    11
 71
     3
 72
    52
 73
    48
 74
     0
 42
0.0000000001
 43
0.0000000001
 12
1.0
 22
0.0
 32
0.0
 13
1.0
 23
0.0
 33
0.0
 40
0.0
 40
0.0
 40
0.0
 40
0.0
 40
0.0769230769230769
 40
0.0769230769230769
 40
0.0769230769230769
 40
0.0769230769230769
 40
0.1538461538461539
 40
0.1538461538461539
 40
0.1538461538461539
 40
0.1538461538461539
 40
0.2307692307692308
 40
0.2307692307692308
 40
0.2307692307692308
 40
0.2307692307692308
 40
0.3076923076923077
 40
0.3076923076923077
 40
0.3076923076923077
 40
0.3076923076923077
 40
0.3846153846153846
 40
0.3846153846153846
 40
0.3846153846153846
 40
0.3846153846153846
 40
0.4615384615384616
 40
0.4615384615384616
 40
0.4615384615384616
 40
0.4615384615384616
 40
0.5384615384615384
 40
0.5384615384615384
 40
0.5384615384615384
 40
0.5384615384615384
 40
0.6153846153846154
 40
0.6153846153846154
 40
0.6153846153846154
 40
0.6153846153846154
 40
0.6923076923076923
 40
0.6923076923076923
 40
0.6923076923076923
 40
0.6923076923076923
 40
0.7692307692307693
 40
0.7692307692307693
 40
0.7692307692307693
 40
0.7692307692307693
 40
0.8461538461538461
 40
0.8461538461538461
 40
0.8461538461538461
 40
0.8461538461538461
 40
1.0
 40
1.0
 40
1.0
 40
1.0
 10
-13.69479
 20
-7.7813
 30
0.0
 10
-13.67354
 20
-7.76372
 30
0.0
 10
-13.64205
 20
-7.76669
 30
0.0
 10
-13.62447
 20
-7.78794
 30
0.0
 10
-13.62447
 20
-7.78794
 30
0.0
 10
-13.60689
 20
-7.80919
 30
0.0
 10
-13.60986
 20
-7.84068
 30
0.0
 10
-13.63111
 20
-7.85826
 30
0.0
 10
-13.63111
 20
-7.85826
 30
0.0
 10
-13.64358
 20
-7.86859
 30
0.0
 10
-13.65675
 20
-7.87665
 30
0.0
 10
-13.67035
 20
-7.88264
 30
0.0
 10
-13.67035
 20
-7.88264
 30
0.0
 10
-13.72263
 20
-7.90568
 30
0.0
 10
-13.77781
 20
-7.89745
 30
0.0
 10
-13.8284
 20
-7.87243
 30
0.0
 10
-13.8284
 20
-7.87243
 30
0.0
 10
-13.87335
 20
-7.85019
 30
0.0
 10
-13.91484
 20
-7.8142
 30
0.0
 10
-13.94591
 20
-7.77666
 30
0.0
 10
-13.94591
 20
-7.77666
 30
0.0
 10
-13.96639
 20
-7.75194
 30
0.0
 10
-13.98288
 20
-7.72589
 30
0.0
 10
-13.99339
 20
-7.70205
 30
0.0
 10
-13.99339
 20
-7.70205
 30
0.0
 10
-14.0045
 20
-7.67682
 30
0.0
 10
-13.99304
 20
-7.64734
 30
0.0
 10
-13.96781
 20
-7.63623
 30
0.0
 10
-13.96781
 20
-7.63623
 30
0.0
 10
-13.94258
 20
-7.62512
 30
0.0
 10
-13.9131
 20
-7.63658
 30
0.0
 10
-13.90199
 20
-7.66181
 30
0.0
 10
-13.90199
 20
-7.66181
 30
0.0
 10
-13.89513
 20
-7.67737
 30
0.0
 10
-13.88366
 20
-7.69522
 30
0.0
 10
-13.86895
 20
-7.71298
 30
0.0
 10
-13.86895
 20
-7.71298
 30
0.0
 10
-13.84576
 20
-7.741
 30
0.0
 10
-13.8157
 20
-7.76741
 30
0.0
 10
-13.78426
 20
-7.78297
 30
0.0
 10
-13.78426
 20
-7.78297
 30
0.0
 10
-13.75846
 20
-7.79573
 30
0.0
 10
-13.73225
 20
-7.80079
 30
0.0
 10
-13.71059
 20
-7.79124
 30
0.0
 10
-13.71059
 20
-7.79124
 30
0.0
 10
-13.70531
 20
-7.78892
 30
0.0
 10
-13.70002
 20
-7.78563
 30
0.0
 10
-13.69479
 20
-7.7813
 30
0.0
  0
SPLINE
  5
51
330
1F
100
AcDbEntity
  8
Layer 1
 62
     5
100
AcDbSpline
210
0.0
220
0.0
230
1.0
 70
    11
 71
     3
 72
    64
 73
    60
 74
     0
 42
0.0000000001
 43
0.0000000001
 12
1.0
 22
0.0
 32
0.0
 13
1.0
 23
0.0
 33
0.0
 40
0.0
 40
0.0
 40
0.0
 40
0.0
 40
0.0625
 40
0.0625
 40
0.0625
 40
0.0625
 40
0.125
 40
0.125
 40
0.125
 40
0.125
 40
0.1875
 40
0.1875
 40
0.1875
 40
0.1875
 40
0.25
 40
0.25
 40
0.25
 40
0.25
 40
0.3125
 40
0.3125
 40
0.3125
 40
0.3125
 40
0.375
 40
0.375
 40
0.375
 40
0.375
 40
0.4375
 40
0.4375
 40
0.4375
 40
0.4375
 40
0.5
 40
0.5
 40
0.5
 40
0.5
 40
0.5625
 40
0.5625
 40
0.5625
 40
0.5625
 40
0.625
 40
0.625
 40
0.625
 40
0.625
 40
0.6875
 40
0.6875
 40
0.6875
 40
0.6875
 40
0.75
 40
0.75
 40
0.75
 40
0.75
 40
0.8125
 40
0.8125
 40
0.8125
 40
0.8125
 40
0.875
 40
0.875
 40
0.875
 40
0.875
 40
1.0
 40
1.0
 40
1.0
 40
1.0
 10
-12.91387
 20
-8.40111
 30
0.0
 10
-12.9387
 20
-8.43471
 30
0.0
 10
-12.96319
 20
-8.45971
 30
0.0
 10
-12.99461
 20
-8.47689
 30
0.0
 10
-12.99461
 20
-8.47689
 30
0.0
 10
-13.02764
 20
-8.49495
 30
0.0
 10
-13.06535
 20
-8.50282
 30
0.0
 10
-13.11503
 20
-8.50095
 30
0.0
 10
-13.11503
 20
-8.50095
 30
0.0
 10
-13.14253
 20
-8.49998
 30
0.0
 10
-13.16404
 20
-8.47689
 30
0.0
 10
-13.16307
 20
-8.44939
 30
0.0
 10
-13.16307
 20
-8.44939
 30
0.0
 10
-13.16281
 20
-8.44195
 30
0.0
 10
-13.16092
 20
-8.43494
 30
0.0
 10
-13.15777
 20
-8.4287
 30
0.0
 10
-13.15777
 20
-8.4287
 30
0.0
 10
-13.15777
 20
-8.4287
 30
0.0
 10
-13.1578
 20
-8.42869
 30
0.0
 10
-13.1578
 20
-8.42869
 30
0.0
 10
-13.1578
 20
-8.42869
 30
0.0
 10
-13.14652
 20
-8.40648
 30
0.0
 10
-13.13666
 20
-8.38384
 30
0.0
 10
-13.12761
 20
-8.36071
 30
0.0
 10
-13.12761
 20
-8.36071
 30
0.0
 10
-13.11812
 20
-8.33646
 30
0.0
 10
-13.1098
 20
-8.31266
 30
0.0
 10
-13.10178
 20
-8.28864
 30
0.0
 10
-13.10178
 20
-8.28864
 30
0.0
 10
-13.10178
 20
-8.28864
 30
0.0
 10
-13.10148
 20
-8.28776
 30
0.0
 10
-13.10148
 20
-8.28776
 30
0.0
 10
-13.10148
 20
-8.28776
 30
0.0
 10
-13.10088
 20
-8.28556
 30
0.0
 10
-13.09983
 20
-8.28106
 30
0.0
 10
-13.09873
 20
-8.27635
 30
0.0
 10
-13.09873
 20
-8.27635
 30
0.0
 10
-13.0902
 20
-8.23978
 30
0.0
 10
-13.08028
 20
-8.19725
 30
0.0
 10
-13.02525
 20
-8.19045
 30
0.0
 10
-13.02525
 20
-8.19045
 30
0.0
 10
-13.00499
 20
-8.18795
 30
0.0
 10
-12.98652
 20
-8.19183
 30
0.0
 10
-12.97
 20
-8.20035
 30
0.0
 10
-12.97
 20
-8.20035
 30
0.0
 10
-12.94667
 20
-8.21238
 30
0.0
 10
-12.92938
 20
-8.23305
 30
0.0
 10
-12.91762
 20
-8.25669
 30
0.0
 10
-12.91762
 20
-8.25669
 30
0.0
 10
-12.90757
 20
-8.27689
 30
0.0
 10
-12.90123
 20
-8.29994
 30
0.0
 10
-12.89865
 20
-8.32087
 30
0.0
 10
-12.89865
 20
-8.32087
 30
0.0
 10
-12.89537
 20
-8.34757
 30
0.0
 10
-12.89838
 20
-8.37388
 30
0.0
 10
-12.90754
 20
-8.39163
 30
0.0
 10
-12.90754
 20
-8.39163
 30
0.0
 10
-12.90932
 20
-8.39509
 30
0.0
 10
-12.91146
 20
-8.39827
 30
0.0
 10
-12.91387
 20
-8.40111
 30
0.0
  0
SPLINE
  5
52
330
1F
100
AcDbEntity
  8
Layer 1
 62
     5
100
AcDbSpline
210
0.0
220
0.0
230
1.0
 70
    11
 71
     3
 72
    28
 73
    24
 74
     0
 42
0.0000000001
 43
0.0000000001
 12
1.0
 22
0.0
 32
0.0
 13
1.0
 23
0.0
 33
0.0
 40
0.0
 40
0.0
 40
0.0
 40
0.0
 40
0.1428571428571428
 40
0.1428571428571428
 40
0.1428571428571428
 40
0.1428571428571428
 40
0.2857142857142857
 40
0.2857142857142857
 40
0.2857142857142857
 40
0.2857142857142857
 40
0.4285714285714285
 40
0.4285714285714285
 40
0.4285714285714285
 40
0.4285714285714285
 40
0.5714285714285714
 40
0.5714285714285714
 40
0.5714285714285714
 40
0.5714285714285714
 40
0.7142857142857143
 40
0.7142857142857143
 40
0.7142857142857143
 40
0.7142857142857143
 40
1.0
 40
1.0
 40
1.0
 40
1.0
 10
-13.02806
 20
-8.37975
 30
0.0
 10
-13.01741
 20
-8.37109
 30
0.0
 10
-13.00715
 20
-8.35954
 30
0.0
 10
-12.99631
 20
-8.34516
 30
0.0
 10
-12.99631
 20
-8.34516
 30
0.0
 10
-12.99653
 20
-8.34349
 30
0.0
 10
-12.99711
 20
-8.33916
 30
0.0
 10
-12.99787
 20
-8.33297
 30
0.0
 10
-12.99787
 20
-8.33297
 30
0.0
 10
-12.99886
 20
-8.32497
 30
0.0
 10
-13.00086
 20
-8.3165
 30
0.0
 10
-13.00384
 20
-8.30868
 30
0.0
 10
-13.00384
 20
-8.30868
 30
0.0
 10
-13.00457
 20
-8.31143
 30
0.0
 10
-13.00539
 20
-8.31434
 30
0.0
 10
-13.00642
 20
-8.31756
 30
0.0
 10
-13.00642
 20
-8.31756
 30
0.0
 10
-13.00666
 20
-8.31847
 30
0.0
 10
-13.00694
 20
-8.31938
 30
0.0
 10
-13.00724
 20
-8.32028
 30
0.0
 10
-13.00724
 20
-8.32028
 30
0.0
 10
-13.01405
 20
-8.34067
 30
0.0
 10
-13.02091
 20
-8.36054
 30
0.0
 10
-13.02806
 20
-8.37975
 30
0.0
  0
SPLINE
  5
53
330
1F
100
AcDbEntity
  8
Layer 1
 62
     5
100
AcDbSpline
210
0.0
220
0.0
230
1.0
 70
    11
 71
     3
 72
    36
 73
    32
 74
     0
 42
0.0000000001
 43
0.0000000001
 12
1.0
 22
0.0
 32
0.0
 13
1.0
 23
0.0
 33
0.0
 40
0.0
 40
0.0
 40
0.0
 40
0.0
 40
0.1111111111111111
 40
0.1111111111111111
 40
0.1111111111111111
 40
0.1111111111111111
 40
0.2222222222222222
 40
0.2222222222222222
 40
0.2222222222222222
 40
0.2222222222222222
 40
0.3333333333333333
 40
0.3333333333333333
 40
0.3333333333333333
 40
0.3333333333333333
 40
0.4444444444444444
 40
0.4444444444444444
 40
0.4444444444444444
 40
0.4444444444444444
 40
0.5555555555555556
 40
0.5555555555555556
 40
0.5555555555555556
 40
0.5555555555555556
 40
0.6666666666666666
 40
0.6666666666666666
 40
0.6666666666666666
 40
0.6666666666666666
 40
0.7777777777777778
 40
0.7777777777777778
 40
0.7777777777777778
 40
0.7777777777777778
 40
1.0
 40
1.0
 40
1.0
 40
1.0
 10
-14.5917
 20
-8.17104
 30
0.0
 10
-14.57563
 20
-8.14872
 30
0.0
 10
-14.54449
 20
-8.14364
 30
0.0
 10
-14.52217
 20
-8.15971
 30
0.0
 10
-14.52217
 20
-8.15971
 30
0.0
 10
-14.49985
 20
-8.17578
 30
0.0
 10
-14.49477
 20
-8.20692
 30
0.0
 10
-14.51084
 20
-8.22924
 30
0.0
 10
-14.51084
 20
-8.22924
 30
0.0
 10
-14.60755
 20
-8.36317
 30
0.0
 10
-14.71087
 20
-8.49595
 30
0.0
 10
-14.82059
 20
-8.62758
 30
0.0
 10
-14.82059
 20
-8.62758
 30
0.0
 10
-14.92977
 20
-8.75857
 30
0.0
 10
-15.04566
 20
-8.88876
 30
0.0
 10
-15.16802
 20
-9.01812
 30
0.0
 10
-15.16802
 20
-9.01812
 30
0.0
 10
-15.18689
 20
-9.03807
 30
0.0
 10
-15.21838
 20
-9.03894
 30
0.0
 10
-15.23833
 20
-9.02007
 30
0.0
 10
-15.23833
 20
-9.02007
 30
0.0
 10
-15.25828
 20
-9.0012
 30
0.0
 10
-15.25915
 20
-8.96971
 30
0.0
 10
-15.24028
 20
-8.94976
 30
0.0
 10
-15.24028
 20
-8.94976
 30
0.0
 10
-15.12015
 20
-8.82276
 30
0.0
 10
-15.0057
 20
-8.69414
 30
0.0
 10
-14.89715
 20
-8.5639
 30
0.0
 10
-14.89715
 20
-8.5639
 30
0.0
 10
-14.78913
 20
-8.43431
 30
0.0
 10
-14.68724
 20
-8.30336
 30
0.0
 10
-14.5917
 20
-8.17104
 30
0.0
  0
SPLINE
  5
54
330
1F
100
AcDbEntity
  8
Layer 1
 62
     5
100
AcDbSpline
210
0.0
220
0.0
230
1.0
 70
    11
 71
     3
 72
    36
 73
    32
 74
     0
 42
0.0000000001
 43
0.0000000001
 12
1.0
 22
0.0
 32
0.0
 13
1.0
 23
0.0
 33
0.0
 40
0.0
 40
0.0
 40
0.0
 40
0.0
 40
0.1111111111111111
 40
0.1111111111111111
 40
0.1111111111111111
 40
0.1111111111111111
 40
0.2222222222222222
 40
0.2222222222222222
 40
0.2222222222222222
 40
0.2222222222222222
 40
0.3333333333333333
 40
0.3333333333333333
 40
0.3333333333333333
 40
0.3333333333333333
 40
0.4444444444444444
 40
0.4444444444444444
 40
0.4444444444444444
 40
0.4444444444444444
 40
0.5555555555555556
 40
0.5555555555555556
 40
0.5555555555555556
 40
0.5555555555555556
 40
0.6666666666666666
 40
0.6666666666666666
 40
0.6666666666666666
 40
0.6666666666666666
 40
0.7777777777777778
 40
0.7777777777777778
 40
0.7777777777777778
 40
0.7777777777777778
 40
1.0
 40
1.0
 40
1.0
 40
1.0
 10
-15.27775
 20
-10.10031
 30
0.0
 10
-15.27861
 20
-10.12781
 30
0.0
 10
-15.30161
 20
-10.14941
 30
0.0
 10
-15.32911
 20
-10.14855
 30
0.0
 10
-15.32911
 20
-10.14855
 30
0.0
 10
-15.35661
 20
-10.14769
 30
0.0
 10
-15.37821
 20
-10.12469
 30
0.0
 10
-15.37735
 20
-10.09719
 30
0.0
 10
-15.37735
 20
-10.09719
 30
0.0
 10
-15.37592
 20
-10.05345
 30
0.0
 10
-15.37567
 20
-10.01095
 30
0.0
 10
-15.37698
 20
-9.97019
 30
0.0
 10
-15.37698
 20
-9.97019
 30
0.0
 10
-15.37829
 20
-9.92976
 30
0.0
 10
-15.38114
 20
-9.89104
 30
0.0
 10
-15.38585
 20
-9.85451
 30
0.0
 10
-15.38585
 20
-9.85451
 30
0.0
 10
-15.3893
 20
-9.82723
 30
0.0
 10
-15.36997
 20
-9.8023
 30
0.0
 10
-15.34269
 20
-9.79885
 30
0.0
 10
-15.34269
 20
-9.79885
 30
0.0
 10
-15.31541
 20
-9.7954
 30
0.0
 10
-15.29048
 20
-9.81473
 30
0.0
 10
-15.28703
 20
-9.84201
 30
0.0
 10
-15.28703
 20
-9.84201
 30
0.0
 10
-15.28188
 20
-9.88193
 30
0.0
 10
-15.27878
 20
-9.92376
 30
0.0
 10
-15.27738
 20
-9.96707
 30
0.0
 10
-15.27738
 20
-9.96707
 30
0.0
 10
-15.276
 20
-10.01003
 30
0.0
 10
-15.27625
 20
-10.0546
 30
0.0
 10
-15.27775
 20
-10.10031
 30
0.0
  0
SPLINE
  5
55
330
1F
100
AcDbEntity
  8
Layer 1
 62
     5
100
AcDbSpline
210
0.0
220
0.0
230
1.0
 70
    11
 71
     3
 72
    36
 73
    32
 74
     0
 42
0.0000000001
 43
0.0000000001
 12
1.0
 22
0.0
 32
0.0
 13
1.0
 23
0.0
 33
0.0
 40
0.0
 40
0.0
 40
0.0
 40
0.0
 40
0.1111111111111111
 40
0.1111111111111111
 40
0.1111111111111111
 40
0.1111111111111111
 40
0.2222222222222222
 40
0.2222222222222222
 40
0.2222222222222222
 40
0.2222222222222222
 40
0.3333333333333333
 40
0.3333333333333333
 40
0.3333333333333333
 40
0.3333333333333333
 40
0.4444444444444444
 40
0.4444444444444444
 40
0.4444444444444444
 40
0.4444444444444444
 40
0.5555555555555556
 40
0.5555555555555556
 40
0.5555555555555556
 40
0.5555555555555556
 40
0.6666666666666666
 40
0.6666666666666666
 40
0.6666666666666666
 40
0.6666666666666666
 40
0.7777777777777778
 40
0.7777777777777778
 40
0.7777777777777778
 40
0.7777777777777778
 40
1.0
 40
1.0
 40
1.0
 40
1.0
 10
-3.55333
 20
-10.76688
 30
0.0
 10
-3.52734
 20
-10.77604
 30
0.0
 10
-3.5137
 20
-10.80456
 30
0.0
 10
-3.52286
 20
-10.83055
 30
0.0
 10
-3.52286
 20
-10.83055
 30
0.0
 10
-3.53202
 20
-10.85654
 30
0.0
 10
-3.56054
 20
-10.87018
 30
0.0
 10
-3.58653
 20
-10.86102
 30
0.0
 10
-3.58653
 20
-10.86102
 30
0.0
 10
-3.81537
 20
-10.77945
 30
0.0
 10
-3.98835
 20
-10.68629
 30
0.0
 10
-4.1314
 20
-10.60925
 30
0.0
 10
-4.1314
 20
-10.60925
 30
0.0
 10
-4.2837
 20
-10.52723
 30
0.0
 10
-4.40055
 20
-10.4643
 30
0.0
 10
-4.50754
 20
-10.45807
 30
0.0
 10
-4.50754
 20
-10.45807
 30
0.0
 10
-4.53504
 20
-10.45657
 30
0.0
 10
-4.55611
 20
-10.43304
 30
0.0
 10
-4.55461
 20
-10.40554
 30
0.0
 10
-4.55461
 20
-10.40554
 30
0.0
 10
-4.55311
 20
-10.37804
 30
0.0
 10
-4.52958
 20
-10.35697
 30
0.0
 10
-4.50208
 20
-10.35847
 30
0.0
 10
-4.50208
 20
-10.35847
 30
0.0
 10
-4.37258
 20
-10.36601
 30
0.0
 10
-4.24736
 20
-10.43345
 30
0.0
 10
-4.08414
 20
-10.52135
 30
0.0
 10
-4.08414
 20
-10.52135
 30
0.0
 10
-3.94415
 20
-10.59674
 30
0.0
 10
-3.77486
 20
-10.68791
 30
0.0
 10
-3.55333
 20
-10.76688
 30
0.0
  0
SPLINE
  5
56
330
1F
100
AcDbEntity
  8
Layer 1
 62
     5
100
AcDbSpline
210
0.0
220
0.0
230
1.0
 70
    11
 71
     3
 72
    80
 73
    76
 74
     0
 42
0.0000000001
 43
0.0000000001
 12
1.0
 22
0.0
 32
0.0
 13
1.0
 23
0.0
 33
0.0
 40
0.0
 40
0.0
 40
0.0
 40
0.0
 40
0.05
 40
0.05
 40
0.05
 40
0.05
 40
0.1
 40
0.1
 40
0.1
 40
0.1
 40
0.15
 40
0.15
 40
0.15
 40
0.15
 40
0.2
 40
0.2
 40
0.2
 40
0.2
 40
0.25
 40
0.25
 40
0.25
 40
0.25
 40
0.3
 40
0.3
 40
0.3
 40
0.3
 40
0.35
 40
0.35
 40
0.35
 40
0.35
 40
0.4
 40
0.4
 40
0.4
 40
0.4
 40
0.45
 40
0.45
 40
0.45
 40
0.45
 40
0.5
 40
0.5
 40
0.5
 40
0.5
 40
0.55
 40
0.55
 40
0.55
 40
0.55
 40
0.6
 40
0.6
 40
0.6
 40
0.6
 40
0.65
 40
0.65
 40
0.65
 40
0.65
 40
0.7
 40
0.7
 40
0.7
 40
0.7
 40
0.75
 40
0.75
 40
0.75
 40
0.75
 40
0.8
 40
0.8
 40
0.8
 40
0.8
 40
0.85
 40
0.85
 40
0.85
 40
0.85
 40
0.9
 40
0.9
 40
0.9
 40
0.9
 40
1.0
 40
1.0
 40
1.0
 40
1.0
 10
-6.75832
 20
-11.66241
 30
0.0
 10
-6.77148
 20
-11.68668
 30
0.0
 10
-6.80183
 20
-11.69569
 30
0.0
 10
-6.8261
 20
-11.68253
 30
0.0
 10
-6.8261
 20
-11.68253
 30
0.0
 10
-6.85037
 20
-11.66937
 30
0.0
 10
-6.85938
 20
-11.63902
 30
0.0
 10
-6.84622
 20
-11.61475
 30
0.0
 10
-6.84622
 20
-11.61475
 30
0.0
 10
-6.77436
 20
-11.48225
 30
0.0
 10
-6.75828
 20
-11.40228
 30
0.0
 10
-6.73315
 20
-11.27715
 30
0.0
 10
-6.73315
 20
-11.27715
 30
0.0
 10
-6.73315
 20
-11.27715
 30
0.0
 10
-6.73333
 20
-11.27711
 30
0.0
 10
-6.73333
 20
-11.27711
 30
0.0
 10
-6.73333
 20
-11.27711
 30
0.0
 10
-6.72819
 20
-11.25148
 30
0.0
 10
-6.72259
 20
-11.22366
 30
0.0
 10
-6.71439
 20
-11.18547
 30
0.0
 10
-6.71439
 20
-11.18547
 30
0.0
 10
-6.68913
 20
-11.06782
 30
0.0
 10
-6.63236
 20
-10.91525
 30
0.0
 10
-6.54754
 20
-10.76779
 30
0.0
 10
-6.54754
 20
-10.76779
 30
0.0
 10
-6.47772
 20
-10.64644
 30
0.0
 10
-6.38867
 20
-10.52813
 30
0.0
 10
-6.28216
 20
-10.43485
 30
0.0
 10
-6.28216
 20
-10.43485
 30
0.0
 10
-6.28216
 20
-10.43485
 30
0.0
 10
-6.27301
 20
-10.42686
 30
0.0
 10
-6.27301
 20
-10.42686
 30
0.0
 10
-6.27301
 20
-10.42686
 30
0.0
 10
-6.23439
 20
-10.39318
 30
0.0
 10
-6.18178
 20
-10.3473
 30
0.0
 10
-6.1633
 20
-10.31085
 30
0.0
 10
-6.1633
 20
-10.31085
 30
0.0
 10
-6.1509
 20
-10.28626
 30
0.0
 10
-6.1209
 20
-10.27638
 30
0.0
 10
-6.09631
 20
-10.28878
 30
0.0
 10
-6.09631
 20
-10.28878
 30
0.0
 10
-6.07172
 20
-10.30118
 30
0.0
 10
-6.06184
 20
-10.33118
 30
0.0
 10
-6.07424
 20
-10.35577
 30
0.0
 10
-6.07424
 20
-10.35577
 30
0.0
 10
-6.10149
 20
-10.40951
 30
0.0
 10
-6.16255
 20
-10.46276
 30
0.0
 10
-6.20739
 20
-10.50186
 30
0.0
 10
-6.20739
 20
-10.50186
 30
0.0
 10
-6.20739
 20
-10.50186
 30
0.0
 10
-6.21654
 20
-10.50985
 30
0.0
 10
-6.21654
 20
-10.50985
 30
0.0
 10
-6.21654
 20
-10.50985
 30
0.0
 10
-6.31427
 20
-10.59544
 30
0.0
 10
-6.39645
 20
-10.70482
 30
0.0
 10
-6.46122
 20
-10.81739
 30
0.0
 10
-6.46122
 20
-10.81739
 30
0.0
 10
-6.5404
 20
-10.95503
 30
0.0
 10
-6.59329
 20
-11.09698
 30
0.0
 10
-6.61673
 20
-11.20617
 30
0.0
 10
-6.61673
 20
-11.20617
 30
0.0
 10
-6.62277
 20
-11.2343
 30
0.0
 10
-6.62926
 20
-11.26656
 30
0.0
 10
-6.63529
 20
-11.29665
 30
0.0
 10
-6.63529
 20
-11.29665
 30
0.0
 10
-6.63529
 20
-11.29665
 30
0.0
 10
-6.63547
 20
-11.29661
 30
0.0
 10
-6.63547
 20
-11.29661
 30
0.0
 10
-6.63547
 20
-11.29661
 30
0.0
 10
-6.63547
 20
-11.29661
 30
0.0
 10
-6.63548
 20
-11.29665
 30
0.0
 10
-6.63548
 20
-11.29665
 30
0.0
 10
-6.63548
 20
-11.29665
 30
0.0
 10
-6.66259
 20
-11.43162
 30
0.0
 10
-6.67992
 20
-11.51786
 30
0.0
 10
-6.75832
 20
-11.66241
 30
0.0
  0
SPLINE
  5
57
330
1F
100
AcDbEntity
  8
Layer 1
 62
     5
100
AcDbSpline
210
0.0
220
0.0
230
1.0
 70
    11
 71
     3
 72
    28
 73
    24
 74
     0
 42
0.0000000001
 43
0.0000000001
 12
1.0
 22
0.0
 32
0.0
 13
1.0
 23
0.0
 33
0.0
 40
0.0
 40
0.0
 40
0.0
 40
0.0
 40
0.1428571428571428
 40
0.1428571428571428
 40
0.1428571428571428
 40
0.1428571428571428
 40
0.2857142857142857
 40
0.2857142857142857
 40
0.2857142857142857
 40
0.2857142857142857
 40
0.4285714285714285
 40
0.4285714285714285
 40
0.4285714285714285
 40
0.4285714285714285
 40
0.5714285714285714
 40
0.5714285714285714
 40
0.5714285714285714
 40
0.5714285714285714
 40
0.7142857142857143
 40
0.7142857142857143
 40
0.7142857142857143
 40
0.7142857142857143
 40
1.0
 40
1.0
 40
1.0
 40
1.0
 10
-7.40069
 20
-12.52893
 30
0.0
 10
-7.4023
 20
-12.55643
 30
0.0
 10
-7.42592
 20
-12.57741
 30
0.0
 10
-7.45342
 20
-12.5758
 30
0.0
 10
-7.45342
 20
-12.5758
 30
0.0
 10
-7.48092
 20
-12.57419
 30
0.0
 10
-7.5019
 20
-12.55057
 30
0.0
 10
-7.50029
 20
-12.52307
 30
0.0
 10
-7.50029
 20
-12.52307
 30
0.0
 10
-7.50017
 20
-12.52102
 30
0.0
 10
-7.46391
 20
-11.80775
 30
0.0
 10
-6.91711
 20
-11.37251
 30
0.0
 10
-6.91711
 20
-11.37251
 30
0.0
 10
-6.89554
 20
-11.35537
 30
0.0
 10
-6.86414
 20
-11.35895
 30
0.0
 10
-6.847
 20
-11.38052
 30
0.0
 10
-6.847
 20
-11.38052
 30
0.0
 10
-6.82986
 20
-11.40209
 30
0.0
 10
-6.83344
 20
-11.43349
 30
0.0
 10
-6.85501
 20
-11.45063
 30
0.0
 10
-6.85501
 20
-11.45063
 30
0.0
 10
-7.36654
 20
-11.8578
 30
0.0
 10
-7.40058
 20
-12.52701
 30
0.0
 10
-7.40069
 20
-12.52893
 30
0.0
  0
SPLINE
  5
58
330
1F
100
AcDbEntity
  8
Layer 1
 62
     5
100
AcDbSpline
210
0.0
220
0.0
230
1.0
 70
    11
 71
     3
 72
    28
 73
    24
 74
     0
 42
0.0000000001
 43
0.0000000001
 12
1.0
 22
0.0
 32
0.0
 13
1.0
 23
0.0
 33
0.0
 40
0.0
 40
0.0
 40
0.0
 40
0.0
 40
0.1428571428571428
 40
0.1428571428571428
 40
0.1428571428571428
 40
0.1428571428571428
 40
0.2857142857142857
 40
0.2857142857142857
 40
0.2857142857142857
 40
0.2857142857142857
 40
0.4285714285714285
 40
0.4285714285714285
 40
0.4285714285714285
 40
0.4285714285714285
 40
0.5714285714285714
 40
0.5714285714285714
 40
0.5714285714285714
 40
0.5714285714285714
 40
0.7142857142857143
 40
0.7142857142857143
 40
0.7142857142857143
 40
0.7142857142857143
 40
1.0
 40
1.0
 40
1.0
 40
1.0
 10
-6.32589
 20
-12.13947
 30
0.0
 10
-6.35167
 20
-12.14928
 30
0.0
 10
-6.38053
 20
-12.13634
 30
0.0
 10
-6.39034
 20
-12.11056
 30
0.0
 10
-6.39034
 20
-12.11056
 30
0.0
 10
-6.40015
 20
-12.08478
 30
0.0
 10
-6.38721
 20
-12.05592
 30
0.0
 10
-6.36143
 20
-12.04611
 30
0.0
 10
-6.36143
 20
-12.04611
 30
0.0
 10
-6.35771
 20
-12.04469
 30
0.0
 10
-5.05752
 20
-11.55537
 30
0.0
 10
-5.05752
 20
-10.84595
 30
0.0
 10
-5.05752
 20
-10.84595
 30
0.0
 10
-5.05752
 20
-10.81834
 30
0.0
 10
-5.03513
 20
-10.79595
 30
0.0
 10
-5.00752
 20
-10.79595
 30
0.0
 10
-5.00752
 20
-10.79595
 30
0.0
 10
-4.97991
 20
-10.79595
 30
0.0
 10
-4.95752
 20
-10.81834
 30
0.0
 10
-4.95752
 20
-10.84595
 30
0.0
 10
-4.95752
 20
-10.84595
 30
0.0
 10
-4.95752
 20
-11.62477
 30
0.0
 10
-6.32198
 20
-12.13798
 30
0.0
 10
-6.32589
 20
-12.13947
 30
0.0
  0
SPLINE
  5
59
330
1F
100
AcDbEntity
  8
Layer 1
 62
     5
100
AcDbSpline
210
0.0
220
0.0
230
1.0
 70
    11
 71
     3
 72
    52
 73
    48
 74
     0
 42
0.0000000001
 43
0.0000000001
 12
1.0
 22
0.0
 32
0.0
 13
1.0
 23
0.0
 33
0.0
 40
0.0
 40
0.0
 40
0.0
 40
0.0
 40
0.0769230769230769
 40
0.0769230769230769
 40
0.0769230769230769
 40
0.0769230769230769
 40
0.1538461538461539
 40
0.1538461538461539
 40
0.1538461538461539
 40
0.1538461538461539
 40
0.2307692307692308
 40
0.2307692307692308
 40
0.2307692307692308
 40
0.2307692307692308
 40
0.3076923076923077
 40
0.3076923076923077
 40
0.3076923076923077
 40
0.3076923076923077
 40
0.3846153846153846
 40
0.3846153846153846
 40
0.3846153846153846
 40
0.3846153846153846
 40
0.4615384615384616
 40
0.4615384615384616
 40
0.4615384615384616
 40
0.4615384615384616
 40
0.5384615384615384
 40
0.5384615384615384
 40
0.5384615384615384
 40
0.5384615384615384
 40
0.6153846153846154
 40
0.6153846153846154
 40
0.6153846153846154
 40
0.6153846153846154
 40
0.6923076923076923
 40
0.6923076923076923
 40
0.6923076923076923
 40
0.6923076923076923
 40
0.7692307692307693
 40
0.7692307692307693
 40
0.7692307692307693
 40
0.7692307692307693
 40
0.8461538461538461
 40
0.8461538461538461
 40
0.8461538461538461
 40
0.8461538461538461
 40
1.0
 40
1.0
 40
1.0
 40
1.0
 10
-4.67685
 20
-11.91843
 30
0.0
 10
-4.69745
 20
-11.93666
 30
0.0
 10
-4.72893
 20
-11.93474
 30
0.0
 10
-4.74716
 20
-11.91414
 30
0.0
 10
-4.74716
 20
-11.91414
 30
0.0
 10
-4.76539
 20
-11.89354
 30
0.0
 10
-4.76347
 20
-11.86206
 30
0.0
 10
-4.74287
 20
-11.84383
 30
0.0
 10
-4.74287
 20
-11.84383
 30
0.0
 10
-4.73119
 20
-11.83348
 30
0.0
 10
-4.71755
 20
-11.81935
 30
0.0
 10
-4.70324
 20
-11.80453
 30
0.0
 10
-4.70324
 20
-11.80453
 30
0.0
 10
-4.64536
 20
-11.74458
 30
0.0
 10
-4.57779
 20
-11.6746
 30
0.0
 10
-4.47251
 20
-11.67257
 30
0.0
 10
-4.47251
 20
-11.67257
 30
0.0
 10
-4.36403
 20
-11.6705
 30
0.0
 10
-4.27584
 20
-11.67542
 30
0.0
 10
-4.19548
 20
-11.67991
 30
0.0
 10
-4.19548
 20
-11.67991
 30
0.0
 10
-4.02138
 20
-11.68964
 30
0.0
 10
-3.88524
 20
-11.69724
 30
0.0
 10
-3.67474
 20
-11.62239
 30
0.0
 10
-3.67474
 20
-11.62239
 30
0.0
 10
-3.64875
 20
-11.61323
 30
0.0
 10
-3.62023
 20
-11.62687
 30
0.0
 10
-3.61107
 20
-11.65286
 30
0.0
 10
-3.61107
 20
-11.65286
 30
0.0
 10
-3.60191
 20
-11.67885
 30
0.0
 10
-3.61555
 20
-11.70737
 30
0.0
 10
-3.64154
 20
-11.71653
 30
0.0
 10
-3.64154
 20
-11.71653
 30
0.0
 10
-3.87056
 20
-11.79796
 30
0.0
 10
-4.01552
 20
-11.78987
 30
0.0
 10
-4.20094
 20
-11.77951
 30
0.0
 10
-4.20094
 20
-11.77951
 30
0.0
 10
-4.28044
 20
-11.77507
 30
0.0
 10
-4.36769
 20
-11.7702
 30
0.0
 10
-4.47095
 20
-11.77217
 30
0.0
 10
-4.47095
 20
-11.77217
 30
0.0
 10
-4.53454
 20
-11.77339
 30
0.0
 10
-4.58669
 20
-11.8274
 30
0.0
 10
-4.63136
 20
-11.87367
 30
0.0
 10
-4.63136
 20
-11.87367
 30
0.0
 10
-4.64658
 20
-11.88944
 30
0.0
 10
-4.66109
 20
-11.90447
 30
0.0
 10
-4.67685
 20
-11.91843
 30
0.0
  0
SPLINE
  5
5A
330
1F
100
AcDbEntity
  8
Layer 1
 62
     5
100
AcDbSpline
210
0.0
220
0.0
230
1.0
 70
    11
 71
     3
 72
    36
 73
    32
 74
     0
 42
0.0000000001
 43
0.0000000001
 12
1.0
 22
0.0
 32
0.0
 13
1.0
 23
0.0
 33
0.0
 40
0.0
 40
0.0
 40
0.0
 40
0.0
 40
0.1111111111111111
 40
0.1111111111111111
 40
0.1111111111111111
 40
0.1111111111111111
 40
0.2222222222222222
 40
0.2222222222222222
 40
0.2222222222222222
 40
0.2222222222222222
 40
0.3333333333333333
 40
0.3333333333333333
 40
0.3333333333333333
 40
0.3333333333333333
 40
0.4444444444444444
 40
0.4444444444444444
 40
0.4444444444444444
 40
0.4444444444444444
 40
0.5555555555555556
 40
0.5555555555555556
 40
0.5555555555555556
 40
0.5555555555555556
 40
0.6666666666666666
 40
0.6666666666666666
 40
0.6666666666666666
 40
0.6666666666666666
 40
0.7777777777777778
 40
0.7777777777777778
 40
0.7777777777777778
 40
0.7777777777777778
 40
1.0
 40
1.0
 40
1.0
 40
1.0
 10
-3.11589
 20
-11.09593
 30
0.0
 10
-3.14253
 20
-11.10315
 30
0.0
 10
-3.17
 20
-11.08742
 30
0.0
 10
-3.17722
 20
-11.06078
 30
0.0
 10
-3.17722
 20
-11.06078
 30
0.0
 10
-3.18444
 20
-11.03414
 30
0.0
 10
-3.16871
 20
-11.00667
 30
0.0
 10
-3.14207
 20
-10.99945
 30
0.0
 10
-3.14207
 20
-10.99945
 30
0.0
 10
-3.05615
 20
-10.97608
 30
0.0
 10
-2.98769
 20
-10.93878
 30
0.0
 10
-2.94306
 20
-10.88262
 30
0.0
 10
-2.94306
 20
-10.88262
 30
0.0
 10
-2.89869
 20
-10.82679
 30
0.0
 10
-2.87611
 20
-10.74993
 30
0.0
 10
-2.88112
 20
-10.64654
 30
0.0
 10
-2.88112
 20
-10.64654
 30
0.0
 10
-2.88241
 20
-10.61904
 30
0.0
 10
-2.86116
 20
-10.59569
 30
0.0
 10
-2.83366
 20
-10.5944
 30
0.0
 10
-2.83366
 20
-10.5944
 30
0.0
 10
-2.80616
 20
-10.59311
 30
0.0
 10
-2.78281
 20
-10.61436
 30
0.0
 10
-2.78152
 20
-10.64186
 30
0.0
 10
-2.78152
 20
-10.64186
 30
0.0
 10
-2.77526
 20
-10.77124
 30
0.0
 10
-2.80563
 20
-10.87009
 30
0.0
 10
-2.86494
 20
-10.94472
 30
0.0
 10
-2.86494
 20
-10.94472
 30
0.0
 10
-2.92399
 20
-11.01903
 30
0.0
 10
-3.01004
 20
-11.06713
 30
0.0
 10
-3.11589
 20
-11.09593
 30
0.0
  0
SPLINE
  5
5B
330
1F
100
AcDbEntity
  8
Layer 1
 62
     5
100
AcDbSpline
210
0.0
220
0.0
230
1.0
 70
    11
 71
     3
 72
    44
 73
    40
 74
     0
 42
0.0000000001
 43
0.0000000001
 12
1.0
 22
0.0
 32
0.0
 13
1.0
 23
0.0
 33
0.0
 40
0.0
 40
0.0
 40
0.0
 40
0.0
 40
0.0909090909090909
 40
0.0909090909090909
 40
0.0909090909090909
 40
0.0909090909090909
 40
0.1818181818181818
 40
0.1818181818181818
 40
0.1818181818181818
 40
0.1818181818181818
 40
0.2727272727272727
 40
0.2727272727272727
 40
0.2727272727272727
 40
0.2727272727272727
 40
0.3636363636363636
 40
0.3636363636363636
 40
0.3636363636363636
 40
0.3636363636363636
 40
0.4545454545454545
 40
0.4545454545454545
 40
0.4545454545454545
 40
0.4545454545454545
 40
0.5454545454545454
 40
0.5454545454545454
 40
0.5454545454545454
 40
0.5454545454545454
 40
0.6363636363636364
 40
0.6363636363636364
 40
0.6363636363636364
 40
0.6363636363636364
 40
0.7272727272727273
 40
0.7272727272727273
 40
0.7272727272727273
 40
0.7272727272727273
 40
0.8181818181818182
 40
0.8181818181818182
 40
0.8181818181818182
 40
0.8181818181818182
 40
1.0
 40
1.0
 40
1.0
 40
1.0
 10
-6.28451
 20
-7.89688
 30
0.0
 10
-6.29421
 20
-7.8711
 30
0.0
 10
-6.28119
 20
-7.84232
 30
0.0
 10
-6.25541
 20
-7.83262
 30
0.0
 10
-6.25541
 20
-7.83262
 30
0.0
 10
-6.22963
 20
-7.82292
 30
0.0
 10
-6.20085
 20
-7.83594
 30
0.0
 10
-6.19115
 20
-7.86172
 30
0.0
 10
-6.19115
 20
-7.86172
 30
0.0
 10
-6.1691
 20
-7.92009
 30
0.0
 10
-6.10482
 20
-7.96344
 30
0.0
 10
-6.0275
 20
-7.99274
 30
0.0
 10
-6.0275
 20
-7.99274
 30
0.0
 10
-5.91938
 20
-8.03371
 30
0.0
 10
-5.78962
 20
-8.04588
 30
0.0
 10
-5.70466
 20
-8.03447
 30
0.0
 10
-5.70466
 20
-8.03447
 30
0.0
 10
-5.67738
 20
-8.03081
 30
0.0
 10
-5.65227
 20
-8.04996
 30
0.0
 10
-5.64861
 20
-8.07724
 30
0.0
 10
-5.64861
 20
-8.07724
 30
0.0
 10
-5.64842
 20
-8.07866
 30
0.0
 10
-5.64829
 20
-8.08007
 30
0.0
 10
-5.64822
 20
-8.08148
 30
0.0
 10
-5.64822
 20
-8.08148
 30
0.0
 10
-5.64016
 20
-8.10502
 30
0.0
 10
-5.65078
 20
-8.13142
 30
0.0
 10
-5.67375
 20
-8.14251
 30
0.0
 10
-5.67375
 20
-8.14251
 30
0.0
 10
-5.69151
 20
-8.15108
 30
0.0
 10
-5.71186
 20
-8.14818
 30
0.0
 10
-5.72637
 20
-8.13672
 30
0.0
 10
-5.72637
 20
-8.13672
 30
0.0
 10
-5.82314
 20
-8.14304
 30
0.0
 10
-5.95316
 20
-8.1276
 30
0.0
 10
-6.06266
 20
-8.0861
 30
0.0
 10
-6.06266
 20
-8.0861
 30
0.0
 10
-6.16451
 20
-8.04749
 30
0.0
 10
-6.25091
 20
-7.98583
 30
0.0
 10
-6.28451
 20
-7.89688
 30
0.0
  0
SPLINE
  5
5C
330
1F
100
AcDbEntity
  8
Layer 1
 62
     5
100
AcDbSpline
210
0.0
220
0.0
230
1.0
 70
    11
 71
     3
 72
    68
 73
    64
 74
     0
 42
0.0000000001
 43
0.0000000001
 12
1.0
 22
0.0
 32
0.0
 13
1.0
 23
0.0
 33
0.0
 40
0.0
 40
0.0
 40
0.0
 40
0.0
 40
0.0588235294117647
 40
0.0588235294117647
 40
0.0588235294117647
 40
0.0588235294117647
 40
0.1176470588235294
 40
0.1176470588235294
 40
0.1176470588235294
 40
0.1176470588235294
 40
0.1764705882352941
 40
0.1764705882352941
 40
0.1764705882352941
 40
0.1764705882352941
 40
0.2352941176470588
 40
0.2352941176470588
 40
0.2352941176470588
 40
0.2352941176470588
 40
0.2941176470588235
 40
0.2941176470588235
 40
0.2941176470588235
 40
0.2941176470588235
 40
0.3529411764705883
 40
0.3529411764705883
 40
0.3529411764705883
 40
0.3529411764705883
 40
0.4117647058823529
 40
0.4117647058823529
 40
0.4117647058823529
 40
0.4117647058823529
 40
0.4705882352941176
 40
0.4705882352941176
 40
0.4705882352941176
 40
0.4705882352941176
 40
0.5294117647058824
 40
0.5294117647058824
 40
0.5294117647058824
 40
0.5294117647058824
 40
0.5882352941176471
 40
0.5882352941176471
 40
0.5882352941176471
 40
0.5882352941176471
 40
0.6470588235294118
 40
0.6470588235294118
 40
0.6470588235294118
 40
0.6470588235294118
 40
0.7058823529411765
 40
0.7058823529411765
 40
0.7058823529411765
 40
0.7058823529411765
 40
0.7647058823529411
 40
0.7647058823529411
 40
0.7647058823529411
 40
0.7647058823529411
 40
0.8235294117647058
 40
0.8235294117647058
 40
0.8235294117647058
 40
0.8235294117647058
 40
0.8823529411764706
 40
0.8823529411764706
 40
0.8823529411764706
 40
0.8823529411764706
 40
1.0
 40
1.0
 40
1.0
 40
1.0
 10
-6.38805
 20
-8.1119
 30
0.0
 10
-6.40325
 20
-8.13487
 30
0.0
 10
-6.43422
 20
-8.14116
 30
0.0
 10
-6.45719
 20
-8.12596
 30
0.0
 10
-6.45719
 20
-8.12596
 30
0.0
 10
-6.48016
 20
-8.11076
 30
0.0
 10
-6.48645
 20
-8.07979
 30
0.0
 10
-6.47125
 20
-8.05682
 30
0.0
 10
-6.47125
 20
-8.05682
 30
0.0
 10
-6.4687
 20
-8.05295
 30
0.0
 10
-6.47321
 20
-8.04045
 30
0.0
 10
-6.47759
 20
-8.02829
 30
0.0
 10
-6.47759
 20
-8.02829
 30
0.0
 10
-6.48584
 20
-8.0054
 30
0.0
 10
-6.49394
 20
-7.98293
 30
0.0
 10
-6.48872
 20
-7.95401
 30
0.0
 10
-6.48872
 20
-7.95401
 30
0.0
 10
-6.4814
 20
-7.91348
 30
0.0
 10
-6.45609
 20
-7.89013
 30
0.0
 10
-6.43015
 20
-7.86621
 30
0.0
 10
-6.43015
 20
-7.86621
 30
0.0
 10
-6.4213
 20
-7.85805
 30
0.0
 10
-6.41232
 20
-7.84977
 30
0.0
 10
-6.40633
 20
-7.84233
 30
0.0
 10
-6.40633
 20
-7.84233
 30
0.0
 10
-6.38162
 20
-7.81166
 30
0.0
 10
-6.36252
 20
-7.77691
 30
0.0
 10
-6.34913
 20
-7.74
 30
0.0
 10
-6.34913
 20
-7.74
 30
0.0
 10
-6.33516
 20
-7.70148
 30
0.0
 10
-6.32735
 20
-7.6607
 30
0.0
 10
-6.32582
 20
-7.61978
 30
0.0
 10
-6.32582
 20
-7.61978
 30
0.0
 10
-6.32485
 20
-7.59228
 30
0.0
 10
-6.30176
 20
-7.57077
 30
0.0
 10
-6.27426
 20
-7.57174
 30
0.0
 10
-6.27426
 20
-7.57174
 30
0.0
 10
-6.24676
 20
-7.57271
 30
0.0
 10
-6.22525
 20
-7.5958
 30
0.0
 10
-6.22622
 20
-7.6233
 30
0.0
 10
-6.22622
 20
-7.6233
 30
0.0
 10
-6.22814
 20
-7.67473
 30
0.0
 10
-6.23791
 20
-7.72583
 30
0.0
 10
-6.25537
 20
-7.77398
 30
0.0
 10
-6.25537
 20
-7.77398
 30
0.0
 10
-6.27245
 20
-7.82107
 30
0.0
 10
-6.2969
 20
-7.8655
 30
0.0
 10
-6.32859
 20
-7.90483
 30
0.0
 10
-6.32859
 20
-7.90483
 30
0.0
 10
-6.33951
 20
-7.91838
 30
0.0
 10
-6.35112
 20
-7.92909
 30
0.0
 10
-6.36257
 20
-7.93965
 30
0.0
 10
-6.36257
 20
-7.93965
 30
0.0
 10
-6.37614
 20
-7.95216
 30
0.0
 10
-6.38938
 20
-7.96437
 30
0.0
 10
-6.39068
 20
-7.97159
 30
0.0
 10
-6.39068
 20
-7.97159
 30
0.0
 10
-6.39117
 20
-7.9743
 30
0.0
 10
-6.38753
 20
-7.98441
 30
0.0
 10
-6.38383
 20
-7.99469
 30
0.0
 10
-6.38383
 20
-7.99469
 30
0.0
 10
-6.37108
 20
-8.03006
 30
0.0
 10
-6.35798
 20
-8.06642
 30
0.0
 10
-6.38805
 20
-8.1119
 30
0.0
  0
SPLINE
  5
5D
330
1F
100
AcDbEntity
  8
Layer 1
 62
     5
100
AcDbSpline
210
0.0
220
0.0
230
1.0
 70
    11
 71
     3
 72
    84
 73
    80
 74
     0
 42
0.0000000001
 43
0.0000000001
 12
1.0
 22
0.0
 32
0.0
 13
1.0
 23
0.0
 33
0.0
 40
0.0
 40
0.0
 40
0.0
 40
0.0
 40
0.0476190476190476
 40
0.0476190476190476
 40
0.0476190476190476
 40
0.0476190476190476
 40
0.0952380952380952
 40
0.0952380952380952
 40
0.0952380952380952
 40
0.0952380952380952
 40
0.1428571428571428
 40
0.1428571428571428
 40
0.1428571428571428
 40
0.1428571428571428
 40
0.1904761904761905
 40
0.1904761904761905
 40
0.1904761904761905
 40
0.1904761904761905
 40
0.2380952380952381
 40
0.2380952380952381
 40
0.2380952380952381
 40
0.2380952380952381
 40
0.2857142857142857
 40
0.2857142857142857
 40
0.2857142857142857
 40
0.2857142857142857
 40
0.3333333333333333
 40
0.3333333333333333
 40
0.3333333333333333
 40
0.3333333333333333
 40
0.3809523809523809
 40
0.3809523809523809
 40
0.3809523809523809
 40
0.3809523809523809
 40
0.4285714285714285
 40
0.4285714285714285
 40
0.4285714285714285
 40
0.4285714285714285
 40
0.4761904761904762
 40
0.4761904761904762
 40
0.4761904761904762
 40
0.4761904761904762
 40
0.5238095238095238
 40
0.5238095238095238
 40
0.5238095238095238
 40
0.5238095238095238
 40
0.5714285714285714
 40
0.5714285714285714
 40
0.5714285714285714
 40
0.5714285714285714
 40
0.6190476190476191
 40
0.6190476190476191
 40
0.6190476190476191
 40
0.6190476190476191
 40
0.6666666666666666
 40
0.6666666666666666
 40
0.6666666666666666
 40
0.6666666666666666
 40
0.7142857142857143
 40
0.7142857142857143
 40
0.7142857142857143
 40
0.7142857142857143
 40
0.7619047619047619
 40
0.7619047619047619
 40
0.7619047619047619
 40
0.7619047619047619
 40
0.8095238095238095
 40
0.8095238095238095
 40
0.8095238095238095
 40
0.8095238095238095
 40
0.8571428571428571
 40
0.8571428571428571
 40
0.8571428571428571
 40
0.8571428571428571
 40
0.9047619047619048
 40
0.9047619047619048
 40
0.9047619047619048
 40
0.9047619047619048
 40
1.0
 40
1.0
 40
1.0
 40
1.0
 10
-6.78662
 20
-7.91829
 30
0.0
 10
-6.79719
 20
-7.89284
 30
0.0
 10
-6.78512
 20
-7.86363
 30
0.0
 10
-6.75967
 20
-7.85306
 30
0.0
 10
-6.75967
 20
-7.85306
 30
0.0
 10
-6.73422
 20
-7.84249
 30
0.0
 10
-6.70501
 20
-7.85456
 30
0.0
 10
-6.69444
 20
-7.88001
 30
0.0
 10
-6.69444
 20
-7.88001
 30
0.0
 10
-6.68956
 20
-7.89174
 30
0.0
 10
-6.68445
 20
-7.90505
 30
0.0
 10
-6.67843
 20
-7.92076
 30
0.0
 10
-6.67843
 20
-7.92076
 30
0.0
 10
-6.64464
 20
-8.00889
 30
0.0
 10
-6.57858
 20
-8.18118
 30
0.0
 10
-6.53088
 20
-8.18704
 30
0.0
 10
-6.53088
 20
-8.18704
 30
0.0
 10
-6.51169
 20
-8.1894
 30
0.0
 10
-6.4888
 20
-8.18506
 30
0.0
 10
-6.46648
 20
-8.17681
 30
0.0
 10
-6.46648
 20
-8.17681
 30
0.0
 10
-6.44035
 20
-8.16715
 30
0.0
 10
-6.41634
 20
-8.15263
 30
0.0
 10
-6.40013
 20
-8.1372
 30
0.0
 10
-6.40013
 20
-8.1372
 30
0.0
 10
-6.37705
 20
-8.11523
 30
0.0
 10
-6.34784
 20
-8.05508
 30
0.0
 10
-6.33716
 20
-7.99968
 30
0.0
 10
-6.33716
 20
-7.99968
 30
0.0
 10
-6.33346
 20
-7.98048
 30
0.0
 10
-6.33231
 20
-7.96303
 30
0.0
 10
-6.33503
 20
-7.95008
 30
0.0
 10
-6.33503
 20
-7.95008
 30
0.0
 10
-6.3361
 20
-7.94498
 30
0.0
 10
-6.33739
 20
-7.94152
 30
0.0
 10
-6.33885
 20
-7.9408
 30
0.0
 10
-6.33885
 20
-7.9408
 30
0.0
 10
-6.34353
 20
-7.93848
 30
0.0
 10
-6.35247
 20
-7.9384
 30
0.0
 10
-6.36677
 20
-7.94136
 30
0.0
 10
-6.36677
 20
-7.94136
 30
0.0
 10
-6.39373
 20
-7.94686
 30
0.0
 10
-6.42006
 20
-7.92945
 30
0.0
 10
-6.42556
 20
-7.90249
 30
0.0
 10
-6.42556
 20
-7.90249
 30
0.0
 10
-6.43106
 20
-7.87553
 30
0.0
 10
-6.41365
 20
-7.8492
 30
0.0
 10
-6.38669
 20
-7.8437
 30
0.0
 10
-6.38669
 20
-7.8437
 30
0.0
 10
-6.34901
 20
-7.83589
 30
0.0
 10
-6.3187
 20
-7.83946
 30
0.0
 10
-6.29471
 20
-7.85134
 30
0.0
 10
-6.29471
 20
-7.85134
 30
0.0
 10
-6.26254
 20
-7.8673
 30
0.0
 10
-6.24461
 20
-7.89517
 30
0.0
 10
-6.23737
 20
-7.92976
 30
0.0
 10
-6.23737
 20
-7.92976
 30
0.0
 10
-6.23176
 20
-7.95651
 30
0.0
 10
-6.23311
 20
-7.98725
 30
0.0
 10
-6.23912
 20
-8.01844
 30
0.0
 10
-6.23912
 20
-8.01844
 30
0.0
 10
-6.25333
 20
-8.09214
 30
0.0
 10
-6.29629
 20
-8.17605
 30
0.0
 10
-6.33137
 20
-8.20946
 30
0.0
 10
-6.33137
 20
-8.20946
 30
0.0
 10
-6.35704
 20
-8.23389
 30
0.0
 10
-6.39351
 20
-8.2563
 30
0.0
 10
-6.4321
 20
-8.27057
 30
0.0
 10
-6.4321
 20
-8.27057
 30
0.0
 10
-6.46817
 20
-8.28391
 30
0.0
 10
-6.50721
 20
-8.29065
 30
0.0
 10
-6.54298
 20
-8.28626
 30
0.0
 10
-6.54298
 20
-8.28626
 30
0.0
 10
-6.65035
 20
-8.27305
 30
0.0
 10
-6.73069
 20
-8.06349
 30
0.0
 10
-6.77179
 20
-7.9563
 30
0.0
 10
-6.77179
 20
-7.9563
 30
0.0
 10
-6.77806
 20
-7.93994
 30
0.0
 10
-6.78335
 20
-7.92615
 30
0.0
 10
-6.78662
 20
-7.91829
 30
0.0
  0
SPLINE
  5
5E
330
1F
100
AcDbEntity
  8
Layer 1
 62
     5
100
AcDbSpline
210
0.0
220
0.0
230
1.0
 70
    11
 71
     3
 72
   132
 73
   128
 74
     0
 42
0.0000000001
 43
0.0000000001
 12
1.0
 22
0.0
 32
0.0
 13
1.0
 23
0.0
 33
0.0
 40
0.0
 40
0.0
 40
0.0
 40
0.0
 40
0.0303030303030303
 40
0.0303030303030303
 40
0.0303030303030303
 40
0.0303030303030303
 40
0.0606060606060606
 40
0.0606060606060606
 40
0.0606060606060606
 40
0.0606060606060606
 40
0.0909090909090909
 40
0.0909090909090909
 40
0.0909090909090909
 40
0.0909090909090909
 40
0.1212121212121212
 40
0.1212121212121212
 40
0.1212121212121212
 40
0.1212121212121212
 40
0.1515151515151515
 40
0.1515151515151515
 40
0.1515151515151515
 40
0.1515151515151515
 40
0.1818181818181818
 40
0.1818181818181818
 40
0.1818181818181818
 40
0.1818181818181818
 40
0.2121212121212121
 40
0.2121212121212121
 40
0.2121212121212121
 40
0.2121212121212121
 40
0.2424242424242424
 40
0.2424242424242424
 40
0.2424242424242424
 40
0.2424242424242424
 40
0.2727272727272727
 40
0.2727272727272727
 40
0.2727272727272727
 40
0.2727272727272727
 40
0.303030303030303
 40
0.303030303030303
 40
0.303030303030303
 40
0.303030303030303
 40
0.3333333333333333
 40
0.3333333333333333
 40
0.3333333333333333
 40
0.3333333333333333
 40
0.3636363636363636
 40
0.3636363636363636
 40
0.3636363636363636
 40
0.3636363636363636
 40
0.3939393939393939
 40
0.3939393939393939
 40
0.3939393939393939
 40
0.3939393939393939
 40
0.4242424242424243
 40
0.4242424242424243
 40
0.4242424242424243
 40
0.4242424242424243
 40
0.4545454545454545
 40
0.4545454545454545
 40
0.4545454545454545
 40
0.4545454545454545
 40
0.4848484848484849
 40
0.4848484848484849
 40
0.4848484848484849
 40
0.4848484848484849
 40
0.5151515151515151
 40
0.5151515151515151
 40
0.5151515151515151
 40
0.5151515151515151
 40
0.5454545454545454
 40
0.5454545454545454
 40
0.5454545454545454
 40
0.5454545454545454
 40
0.5757575757575758
 40
0.5757575757575758
 40
0.5757575757575758
 40
0.5757575757575758
 40
0.6060606060606061
 40
0.6060606060606061
 40
0.6060606060606061
 40
0.6060606060606061
 40
0.6363636363636364
 40
0.6363636363636364
 40
0.6363636363636364
 40
0.6363636363636364
 40
0.6666666666666666
 40
0.6666666666666666
 40
0.6666666666666666
 40
0.6666666666666666
 40
0.696969696969697
 40
0.696969696969697
 40
0.696969696969697
 40
0.696969696969697
 40
0.7272727272727273
 40
0.7272727272727273
 40
0.7272727272727273
 40
0.7272727272727273
 40
0.7575757575757576
 40
0.7575757575757576
 40
0.7575757575757576
 40
0.7575757575757576
 40
0.7878787878787878
 40
0.7878787878787878
 40
0.7878787878787878
 40
0.7878787878787878
 40
0.8181818181818182
 40
0.8181818181818182
 40
0.8181818181818182
 40
0.8181818181818182
 40
0.8484848484848485
 40
0.8484848484848485
 40
0.8484848484848485
 40
0.8484848484848485
 40
0.8787878787878788
 40
0.8787878787878788
 40
0.8787878787878788
 40
0.8787878787878788
 40
0.9090909090909091
 40
0.9090909090909091
 40
0.9090909090909091
 40
0.9090909090909091
 40
0.9393939393939394
 40
0.9393939393939394
 40
0.9393939393939394
 40
0.9393939393939394
 40
1.0
 40
1.0
 40
1.0
 40
1.0
 10
-6.9434
 20
-8.18037
 30
0.0
 10
-6.95543
 20
-8.1793
 30
0.0
 10
-6.96712
 20
-8.17388
 30
0.0
 10
-6.97589
 20
-8.16425
 30
0.0
 10
-6.97589
 20
-8.16425
 30
0.0
 10
-6.98881
 20
-8.15006
 30
0.0
 10
-6.99201
 20
-8.13044
 30
0.0
 10
-6.98588
 20
-8.11357
 30
0.0
 10
-6.98588
 20
-8.11357
 30
0.0
 10
-7.00254
 20
-8.08596
 30
0.0
 10
-7.01966
 20
-8.0557
 30
0.0
 10
-7.0342
 20
-8.0263
 30
0.0
 10
-7.0342
 20
-8.0263
 30
0.0
 10
-7.05802
 20
-7.97812
 30
0.0
 10
-7.07534
 20
-7.93051
 30
0.0
 10
-7.07482
 20
-7.895
 30
0.0
 10
-7.07482
 20
-7.895
 30
0.0
 10
-7.07352
 20
-7.80646
 30
0.0
 10
-7.01009
 20
-7.69413
 30
0.0
 10
-6.96658
 20
-7.61708
 30
0.0
 10
-6.96658
 20
-7.61708
 30
0.0
 10
-6.96658
 20
-7.61708
 30
0.0
 10
-6.96672
 20
-7.617
 30
0.0
 10
-6.96672
 20
-7.617
 30
0.0
 10
-6.96672
 20
-7.617
 30
0.0
 10
-6.96672
 20
-7.617
 30
0.0
 10
-6.95622
 20
-7.59835
 30
0.0
 10
-6.95622
 20
-7.59835
 30
0.0
 10
-6.95622
 20
-7.59835
 30
0.0
 10
-6.95567
 20
-7.59736
 30
0.0
 10
-6.95508
 20
-7.5964
 30
0.0
 10
-6.95447
 20
-7.59546
 30
0.0
 10
-6.95447
 20
-7.59546
 30
0.0
 10
-6.93861
 20
-7.56779
 30
0.0
 10
-6.91897
 20
-7.54265
 30
0.0
 10
-6.89945
 20
-7.51765
 30
0.0
 10
-6.89945
 20
-7.51765
 30
0.0
 10
-6.87872
 20
-7.49109
 30
0.0
 10
-6.85809
 20
-7.46467
 30
0.0
 10
-6.84651
 20
-7.44001
 30
0.0
 10
-6.84651
 20
-7.44001
 30
0.0
 10
-6.83966
 20
-7.42541
 30
0.0
 10
-6.83578
 20
-7.40586
 30
0.0
 10
-6.83201
 20
-7.3868
 30
0.0
 10
-6.83201
 20
-7.3868
 30
0.0
 10
-6.81948
 20
-7.32343
 30
0.0
 10
-6.80758
 20
-7.26333
 30
0.0
 10
-6.71491
 20
-7.23614
 30
0.0
 10
-6.71491
 20
-7.23614
 30
0.0
 10
-6.68849
 20
-7.22838
 30
0.0
 10
-6.66076
 20
-7.24351
 30
0.0
 10
-6.653
 20
-7.26993
 30
0.0
 10
-6.653
 20
-7.26993
 30
0.0
 10
-6.64524
 20
-7.29635
 30
0.0
 10
-6.66037
 20
-7.32408
 30
0.0
 10
-6.68679
 20
-7.33184
 30
0.0
 10
-6.68679
 20
-7.33184
 30
0.0
 10
-6.7213
 20
-7.34196
 30
0.0
 10
-6.72748
 20
-7.37311
 30
0.0
 10
-6.73397
 20
-7.40594
 30
0.0
 10
-6.73397
 20
-7.40594
 30
0.0
 10
-6.73883
 20
-7.43049
 30
0.0
 10
-6.74381
 20
-7.45566
 30
0.0
 10
-6.75627
 20
-7.48219
 30
0.0
 10
-6.75627
 20
-7.48219
 30
0.0
 10
-6.77272
 20
-7.51722
 30
0.0
 10
-6.79676
 20
-7.548
 30
0.0
 10
-6.82093
 20
-7.57897
 30
0.0
 10
-6.82093
 20
-7.57897
 30
0.0
 10
-6.83813
 20
-7.60099
 30
0.0
 10
-6.85545
 20
-7.62315
 30
0.0
 10
-6.8678
 20
-7.64464
 30
0.0
 10
-6.8678
 20
-7.64464
 30
0.0
 10
-6.8678
 20
-7.64464
 30
0.0
 10
-6.86912
 20
-7.64717
 30
0.0
 10
-6.86912
 20
-7.64717
 30
0.0
 10
-6.86912
 20
-7.64717
 30
0.0
 10
-6.86912
 20
-7.64717
 30
0.0
 10
-6.87962
 20
-7.66582
 30
0.0
 10
-6.87962
 20
-7.66582
 30
0.0
 10
-6.87962
 20
-7.66582
 30
0.0
 10
-6.87962
 20
-7.66582
 30
0.0
 10
-6.87977
 20
-7.66574
 30
0.0
 10
-6.87977
 20
-7.66574
 30
0.0
 10
-6.87977
 20
-7.66574
 30
0.0
 10
-6.87977
 20
-7.66574
 30
0.0
 10
-6.87981
 20
-7.66582
 30
0.0
 10
-6.87981
 20
-7.66582
 30
0.0
 10
-6.87981
 20
-7.66582
 30
0.0
 10
-6.91824
 20
-7.73386
 30
0.0
 10
-6.97429
 20
-7.83311
 30
0.0
 10
-6.97522
 20
-7.89618
 30
0.0
 10
-6.97522
 20
-7.89618
 30
0.0
 10
-6.97547
 20
-7.91375
 30
0.0
 10
-6.96251
 20
-7.94622
 30
0.0
 10
-6.94474
 20
-7.98216
 30
0.0
 10
-6.94474
 20
-7.98216
 30
0.0
 10
-6.91341
 20
-8.04552
 30
0.0
 10
-6.86823
 20
-8.11431
 30
0.0
 10
-6.84668
 20
-8.14497
 30
0.0
 10
-6.84668
 20
-8.14497
 30
0.0
 10
-6.84668
 20
-8.14497
 30
0.0
 10
-6.84673
 20
-8.14501
 30
0.0
 10
-6.84673
 20
-8.14501
 30
0.0
 10
-6.84673
 20
-8.14501
 30
0.0
 10
-6.84009
 20
-8.15443
 30
0.0
 10
-6.83668
 20
-8.16619
 30
0.0
 10
-6.83789
 20
-8.17856
 30
0.0
 10
-6.83789
 20
-8.17856
 30
0.0
 10
-6.84141
 20
-8.21435
 30
0.0
 10
-6.86114
 20
-8.22833
 30
0.0
 10
-6.8941
 20
-8.22492
 30
0.0
 10
-6.8941
 20
-8.22492
 30
0.0
 10
-6.8941
 20
-8.22492
 30
0.0
 10
-6.8941
 20
-8.22488
 30
0.0
 10
-6.8941
 20
-8.22488
 30
0.0
 10
-6.8941
 20
-8.22488
 30
0.0
 10
-6.91678
 20
-8.22255
 30
0.0
 10
-6.93222
 20
-8.20556
 30
0.0
 10
-6.94835
 20
-8.18787
 30
0.0
 10
-6.94835
 20
-8.18787
 30
0.0
 10
-6.94923
 20
-8.18689
 30
0.0
 10
-6.94691
 20
-8.1844
 30
0.0
 10
-6.94283
 20
-8.18122
 30
0.0
 10
-6.94283
 20
-8.18122
 30
0.0
 10
-6.94283
 20
-8.18122
 30
0.0
 10
-6.9434
 20
-8.18037
 30
0.0
 10
-6.9434
 20
-8.18037
 30
0.0
  0
SPLINE
  5
5F
330
1F
100
AcDbEntity
  8
Layer 1
 62
     5
100
AcDbSpline
210
0.0
220
0.0
230
1.0
 70
    11
 71
     3
 72
    80
 73
    76
 74
     0
 42
0.0000000001
 43
0.0000000001
 12
1.0
 22
0.0
 32
0.0
 13
1.0
 23
0.0
 33
0.0
 40
0.0
 40
0.0
 40
0.0
 40
0.0
 40
0.05
 40
0.05
 40
0.05
 40
0.05
 40
0.1
 40
0.1
 40
0.1
 40
0.1
 40
0.15
 40
0.15
 40
0.15
 40
0.15
 40
0.2
 40
0.2
 40
0.2
 40
0.2
 40
0.25
 40
0.25
 40
0.25
 40
0.25
 40
0.3
 40
0.3
 40
0.3
 40
0.3
 40
0.35
 40
0.35
 40
0.35
 40
0.35
 40
0.4
 40
0.4
 40
0.4
 40
0.4
 40
0.45
 40
0.45
 40
0.45
 40
0.45
 40
0.5
 40
0.5
 40
0.5
 40
0.5
 40
0.55
 40
0.55
 40
0.55
 40
0.55
 40
0.6
 40
0.6
 40
0.6
 40
0.6
 40
0.65
 40
0.65
 40
0.65
 40
0.65
 40
0.7
 40
0.7
 40
0.7
 40
0.7
 40
0.75
 40
0.75
 40
0.75
 40
0.75
 40
0.8
 40
0.8
 40
0.8
 40
0.8
 40
0.85
 40
0.85
 40
0.85
 40
0.85
 40
0.9
 40
0.9
 40
0.9
 40
0.9
 40
1.0
 40
1.0
 40
1.0
 40
1.0
 10
-7.11644
 20
-8.14595
 30
0.0
 10
-7.13219
 20
-8.16849
 30
0.0
 10
-7.16324
 20
-8.174
 30
0.0
 10
-7.18578
 20
-8.15825
 30
0.0
 10
-7.18578
 20
-8.15825
 30
0.0
 10
-7.20832
 20
-8.1425
 30
0.0
 10
-7.21383
 20
-8.11145
 30
0.0
 10
-7.19808
 20
-8.08891
 30
0.0
 10
-7.19808
 20
-8.08891
 30
0.0
 10
-7.19049
 20
-8.07803
 30
0.0
 10
-7.22203
 20
-8.07146
 30
0.0
 10
-7.23861
 20
-8.04267
 30
0.0
 10
-7.23861
 20
-8.04267
 30
0.0
 10
-7.25896
 20
-8.00737
 30
0.0
 10
-7.27957
 20
-7.97159
 30
0.0
 10
-7.28564
 20
-7.94218
 30
0.0
 10
-7.28564
 20
-7.94218
 30
0.0
 10
-7.30197
 20
-7.86328
 30
0.0
 10
-7.25895
 20
-7.79436
 30
0.0
 10
-7.21968
 20
-7.73144
 30
0.0
 10
-7.21968
 20
-7.73144
 30
0.0
 10
-7.2092
 20
-7.71464
 30
0.0
 10
-7.199
 20
-7.6983
 30
0.0
 10
-7.19155
 20
-7.68416
 30
0.0
 10
-7.19155
 20
-7.68416
 30
0.0
 10
-7.17443
 20
-7.65165
 30
0.0
 10
-7.1309
 20
-7.58536
 30
0.0
 10
-7.08643
 20
-7.51762
 30
0.0
 10
-7.08643
 20
-7.51762
 30
0.0
 10
-7.08643
 20
-7.51762
 30
0.0
 10
-7.08657
 20
-7.51753
 30
0.0
 10
-7.08657
 20
-7.51753
 30
0.0
 10
-7.08657
 20
-7.51753
 30
0.0
 10
-7.0542
 20
-7.46822
 30
0.0
 10
-7.02131
 20
-7.41812
 30
0.0
 10
-6.9999
 20
-7.38324
 30
0.0
 10
-6.9999
 20
-7.38324
 30
0.0
 10
-6.98556
 20
-7.35973
 30
0.0
 10
-6.95485
 20
-7.3523
 30
0.0
 10
-6.93134
 20
-7.36664
 30
0.0
 10
-6.93134
 20
-7.36664
 30
0.0
 10
-6.90783
 20
-7.38098
 30
0.0
 10
-6.9004
 20
-7.41169
 30
0.0
 10
-6.91474
 20
-7.4352
 30
0.0
 10
-6.91474
 20
-7.4352
 30
0.0
 10
-6.93938
 20
-7.47535
 30
0.0
 10
-6.97144
 20
-7.52418
 30
0.0
 10
-7.00297
 20
-7.57221
 30
0.0
 10
-7.00297
 20
-7.57221
 30
0.0
 10
-7.00297
 20
-7.57221
 30
0.0
 10
-7.00311
 20
-7.57212
 30
0.0
 10
-7.00311
 20
-7.57212
 30
0.0
 10
-7.00311
 20
-7.57212
 30
0.0
 10
-7.00311
 20
-7.57212
 30
0.0
 10
-7.00317
 20
-7.57221
 30
0.0
 10
-7.00317
 20
-7.57221
 30
0.0
 10
-7.00317
 20
-7.57221
 30
0.0
 10
-7.04572
 20
-7.63702
 30
0.0
 10
-7.08737
 20
-7.70047
 30
0.0
 10
-7.10327
 20
-7.73064
 30
0.0
 10
-7.10327
 20
-7.73064
 30
0.0
 10
-7.11283
 20
-7.74878
 30
0.0
 10
-7.12372
 20
-7.76622
 30
0.0
 10
-7.13492
 20
-7.78418
 30
0.0
 10
-7.13492
 20
-7.78418
 30
0.0
 10
-7.16417
 20
-7.83105
 30
0.0
 10
-7.19622
 20
-7.88241
 30
0.0
 10
-7.18798
 20
-7.92226
 30
0.0
 10
-7.18798
 20
-7.92226
 30
0.0
 10
-7.18513
 20
-7.93609
 30
0.0
 10
-7.16861
 20
-7.96476
 30
0.0
 10
-7.15229
 20
-7.99307
 30
0.0
 10
-7.15229
 20
-7.99307
 30
0.0
 10
-7.11981
 20
-8.04945
 30
0.0
 10
-7.08786
 20
-8.10498
 30
0.0
 10
-7.11644
 20
-8.14595
 30
0.0
  0
SPLINE
  5
60
330
1F
100
AcDbEntity
  8
Layer 1
 62
     5
100
AcDbSpline
210
0.0
220
0.0
230
1.0
 70
    11
 71
     3
 72
   116
 73
   112
 74
     0
 42
0.0000000001
 43
0.0000000001
 12
1.0
 22
0.0
 32
0.0
 13
1.0
 23
0.0
 33
0.0
 40
0.0
 40
0.0
 40
0.0
 40
0.0
 40
0.0344827586206897
 40
0.0344827586206897
 40
0.0344827586206897
 40
0.0344827586206897
 40
0.0689655172413793
 40
0.0689655172413793
 40
0.0689655172413793
 40
0.0689655172413793
 40
0.103448275862069
 40
0.103448275862069
 40
0.103448275862069
 40
0.103448275862069
 40
0.1379310344827586
 40
0.1379310344827586
 40
0.1379310344827586
 40
0.1379310344827586
 40
0.1724137931034483
 40
0.1724137931034483
 40
0.1724137931034483
 40
0.1724137931034483
 40
0.2068965517241379
 40
0.2068965517241379
 40
0.2068965517241379
 40
0.2068965517241379
 40
0.2413793103448276
 40
0.2413793103448276
 40
0.2413793103448276
 40
0.2413793103448276
 40
0.2758620689655172
 40
0.2758620689655172
 40
0.2758620689655172
 40
0.2758620689655172
 40
0.3103448275862069
 40
0.3103448275862069
 40
0.3103448275862069
 40
0.3103448275862069
 40
0.3448275862068966
 40
0.3448275862068966
 40
0.3448275862068966
 40
0.3448275862068966
 40
0.3793103448275862
 40
0.3793103448275862
 40
0.3793103448275862
 40
0.3793103448275862
 40
0.4137931034482759
 40
0.4137931034482759
 40
0.4137931034482759
 40
0.4137931034482759
 40
0.4482758620689655
 40
0.4482758620689655
 40
0.4482758620689655
 40
0.4482758620689655
 40
0.4827586206896552
 40
0.4827586206896552
 40
0.4827586206896552
 40
0.4827586206896552
 40
0.5172413793103449
 40
0.5172413793103449
 40
0.5172413793103449
 40
0.5172413793103449
 40
0.5517241379310345
 40
0.5517241379310345
 40
0.5517241379310345
 40
0.5517241379310345
 40
0.5862068965517241
 40
0.5862068965517241
 40
0.5862068965517241
 40
0.5862068965517241
 40
0.6206896551724138
 40
0.6206896551724138
 40
0.6206896551724138
 40
0.6206896551724138
 40
0.6551724137931034
 40
0.6551724137931034
 40
0.6551724137931034
 40
0.6551724137931034
 40
0.6896551724137931
 40
0.6896551724137931
 40
0.6896551724137931
 40
0.6896551724137931
 40
0.7241379310344828
 40
0.7241379310344828
 40
0.7241379310344828
 40
0.7241379310344828
 40
0.7586206896551724
 40
0.7586206896551724
 40
0.7586206896551724
 40
0.7586206896551724
 40
0.7931034482758621
 40
0.7931034482758621
 40
0.7931034482758621
 40
0.7931034482758621
 40
0.8275862068965517
 40
0.8275862068965517
 40
0.8275862068965517
 40
0.8275862068965517
 40
0.8620689655172413
 40
0.8620689655172413
 40
0.8620689655172413
 40
0.8620689655172413
 40
0.896551724137931
 40
0.896551724137931
 40
0.896551724137931
 40
0.896551724137931
 40
0.9310344827586207
 40
0.9310344827586207
 40
0.9310344827586207
 40
0.9310344827586207
 40
1.0
 40
1.0
 40
1.0
 40
1.0
 10
-6.69053
 20
-7.89915
 30
0.0
 10
-6.69053
 20
-7.92676
 30
0.0
 10
-6.71292
 20
-7.94915
 30
0.0
 10
-6.74053
 20
-7.94915
 30
0.0
 10
-6.74053
 20
-7.94915
 30
0.0
 10
-6.76814
 20
-7.94915
 30
0.0
 10
-6.79053
 20
-7.92676
 30
0.0
 10
-6.79053
 20
-7.89915
 30
0.0
 10
-6.79053
 20
-7.89915
 30
0.0
 10
-6.79053
 20
-7.89915
 30
0.0
 10
-6.79054
 20
-7.8982
 30
0.0
 10
-6.79054
 20
-7.8982
 30
0.0
 10
-6.79054
 20
-7.8982
 30
0.0
 10
-6.79054
 20
-7.8982
 30
0.0
 10
-6.79082
 20
-7.89826
 30
0.0
 10
-6.79082
 20
-7.89826
 30
0.0
 10
-6.79082
 20
-7.89826
 30
0.0
 10
-6.79101
 20
-7.89898
 30
0.0
 10
-6.79126
 20
-7.89988
 30
0.0
 10
-6.79156
 20
-7.89842
 30
0.0
 10
-6.79156
 20
-7.89842
 30
0.0
 10
-6.79702
 20
-7.87273
 30
0.0
 10
-6.80908
 20
-7.81603
 30
0.0
 10
-6.80281
 20
-7.78949
 30
0.0
 10
-6.80281
 20
-7.78949
 30
0.0
 10
-6.79403
 20
-7.75217
 30
0.0
 10
-6.76772
 20
-7.72375
 30
0.0
 10
-6.74279
 20
-7.69683
 30
0.0
 10
-6.74279
 20
-7.69683
 30
0.0
 10
-6.73293
 20
-7.68617
 30
0.0
 10
-6.72333
 20
-7.6758
 30
0.0
 10
-6.71733
 20
-7.66679
 30
0.0
 10
-6.71733
 20
-7.66679
 30
0.0
 10
-6.70476
 20
-7.64793
 30
0.0
 10
-6.68987
 20
-7.62642
 30
0.0
 10
-6.67491
 20
-7.60481
 30
0.0
 10
-6.67491
 20
-7.60481
 30
0.0
 10
-6.64734
 20
-7.56497
 30
0.0
 10
-6.61953
 20
-7.5248
 30
0.0
 10
-6.59519
 20
-7.48368
 30
0.0
 10
-6.59519
 20
-7.48368
 30
0.0
 10
-6.59136
 20
-7.4772
 30
0.0
 10
-6.58239
 20
-7.44918
 30
0.0
 10
-6.57234
 20
-7.41775
 30
0.0
 10
-6.57234
 20
-7.41775
 30
0.0
 10
-6.57234
 20
-7.41775
 30
0.0
 10
-6.57163
 20
-7.41572
 30
0.0
 10
-6.57163
 20
-7.41572
 30
0.0
 10
-6.57163
 20
-7.41572
 30
0.0
 10
-6.55347
 20
-7.35888
 30
0.0
 10
-6.53232
 20
-7.29341
 30
0.0
 10
-6.50882
 20
-7.26992
 30
0.0
 10
-6.50882
 20
-7.26992
 30
0.0
 10
-6.50882
 20
-7.26992
 30
0.0
 10
-6.50873
 20
-7.26984
 30
0.0
 10
-6.50873
 20
-7.26984
 30
0.0
 10
-6.50873
 20
-7.26984
 30
0.0
 10
-6.50873
 20
-7.26984
 30
0.0
 10
-6.50862
 20
-7.26972
 30
0.0
 10
-6.50862
 20
-7.26972
 30
0.0
 10
-6.50862
 20
-7.26972
 30
0.0
 10
-6.50862
 20
-7.26972
 30
0.0
 10
-6.50837
 20
-7.26948
 30
0.0
 10
-6.50837
 20
-7.26948
 30
0.0
 10
-6.50837
 20
-7.26948
 30
0.0
 10
-6.48195
 20
-7.24359
 30
0.0
 10
-6.45482
 20
-7.2409
 30
0.0
 10
-6.42718
 20
-7.26888
 30
0.0
 10
-6.42718
 20
-7.26888
 30
0.0
 10
-6.40788
 20
-7.28851
 30
0.0
 10
-6.40814
 20
-7.32009
 30
0.0
 10
-6.42777
 20
-7.33939
 30
0.0
 10
-6.42777
 20
-7.33939
 30
0.0
 10
-6.43252
 20
-7.34406
 30
0.0
 10
-6.43798
 20
-7.34759
 30
0.0
 10
-6.44379
 20
-7.34997
 30
0.0
 10
-6.44379
 20
-7.34997
 30
0.0
 10
-6.45188
 20
-7.36828
 30
0.0
 10
-6.46502
 20
-7.40921
 30
0.0
 10
-6.47674
 20
-7.44588
 30
0.0
 10
-6.47674
 20
-7.44588
 30
0.0
 10
-6.47674
 20
-7.44588
 30
0.0
 10
-6.47742
 20
-7.44821
 30
0.0
 10
-6.47742
 20
-7.44821
 30
0.0
 10
-6.47742
 20
-7.44821
 30
0.0
 10
-6.48937
 20
-7.48557
 30
0.0
 10
-6.5
 20
-7.51882
 30
0.0
 10
-6.50925
 20
-7.53446
 30
0.0
 10
-6.50925
 20
-7.53446
 30
0.0
 10
-6.53451
 20
-7.57714
 30
0.0
 10
-6.56382
 20
-7.61947
 30
0.0
 10
-6.59287
 20
-7.66145
 30
0.0
 10
-6.59287
 20
-7.66145
 30
0.0
 10
-6.60623
 20
-7.68074
 30
0.0
 10
-6.61958
 20
-7.70004
 30
0.0
 10
-6.63413
 20
-7.72187
 30
0.0
 10
-6.63413
 20
-7.72187
 30
0.0
 10
-6.64375
 20
-7.73631
 30
0.0
 10
-6.65657
 20
-7.75016
 30
0.0
 10
-6.66975
 20
-7.76441
 30
0.0
 10
-6.66975
 20
-7.76441
 30
0.0
 10
-6.68578
 20
-7.78171
 30
0.0
 10
-6.70269
 20
-7.79997
 30
0.0
 10
-6.70555
 20
-7.81215
 30
0.0
 10
-6.70555
 20
-7.81215
 30
0.0
 10
-6.70675
 20
-7.81726
 30
0.0
 10
-6.69791
 20
-7.85887
 30
0.0
 10
-6.6939
 20
-7.87772
 30
0.0
 10
-6.6939
 20
-7.87772
 30
0.0
 10
-6.69188
 20
-7.88725
 30
0.0
 10
-6.69053
 20
-7.89339
 30
0.0
 10
-6.69053
 20
-7.89915
 30
0.0
  0
SPLINE
  5
61
330
1F
100
AcDbEntity
  8
Layer 1
 62
     5
100
AcDbSpline
210
0.0
220
0.0
230
1.0
 70
    11
 71
     3
 72
    12
 73
     8
 74
     0
 42
0.0000000001
 43
0.0000000001
 12
1.0
 22
0.0
 32
0.0
 13
1.0
 23
0.0
 33
0.0
 40
0.0
 40
0.0
 40
0.0
 40
0.0
 40
0.3333333333333333
 40
0.3333333333333333
 40
0.3333333333333333
 40
0.3333333333333333
 40
1.0
 40
1.0
 40
1.0
 40
1.0
 10
-6.79054
 20
-7.8982
 30
0.0
 10
-6.79057
 20
-7.89722
 30
0.0
 10
-6.79068
 20
-7.89768
 30
0.0
 10
-6.79082
 20
-7.89826
 30
0.0
 10
-6.79082
 20
-7.89826
 30
0.0
 10
-6.79082
 20
-7.89826
 30
0.0
 10
-6.79054
 20
-7.8982
 30
0.0
 10
-6.79054
 20
-7.8982
 30
0.0
  0
SPLINE
  5
62
330
1F
100
AcDbEntity
  8
Layer 1
 62
     5
100
AcDbSpline
210
0.0
220
0.0
230
1.0
 70
    11
 71
     3
 72
    52
 73
    48
 74
     0
 42
0.0000000001
 43
0.0000000001
 12
1.0
 22
0.0
 32
0.0
 13
1.0
 23
0.0
 33
0.0
 40
0.0
 40
0.0
 40
0.0
 40
0.0
 40
0.0769230769230769
 40
0.0769230769230769
 40
0.0769230769230769
 40
0.0769230769230769
 40
0.1538461538461539
 40
0.1538461538461539
 40
0.1538461538461539
 40
0.1538461538461539
 40
0.2307692307692308
 40
0.2307692307692308
 40
0.2307692307692308
 40
0.2307692307692308
 40
0.3076923076923077
 40
0.3076923076923077
 40
0.3076923076923077
 40
0.3076923076923077
 40
0.3846153846153846
 40
0.3846153846153846
 40
0.3846153846153846
 40
0.3846153846153846
 40
0.4615384615384616
 40
0.4615384615384616
 40
0.4615384615384616
 40
0.4615384615384616
 40
0.5384615384615384
 40
0.5384615384615384
 40
0.5384615384615384
 40
0.5384615384615384
 40
0.6153846153846154
 40
0.6153846153846154
 40
0.6153846153846154
 40
0.6153846153846154
 40
0.6923076923076923
 40
0.6923076923076923
 40
0.6923076923076923
 40
0.6923076923076923
 40
0.7692307692307693
 40
0.7692307692307693
 40
0.7692307692307693
 40
0.7692307692307693
 40
0.8461538461538461
 40
0.8461538461538461
 40
0.8461538461538461
 40
0.8461538461538461
 40
1.0
 40
1.0
 40
1.0
 40
1.0
 10
-6.74736
 20
-8.53326
 30
0.0
 10
-6.75782
 20
-8.55871
 30
0.0
 10
-6.78695
 20
-8.57086
 30
0.0
 10
-6.8124
 20
-8.5604
 30
0.0
 10
-6.8124
 20
-8.5604
 30
0.0
 10
-6.83785
 20
-8.54994
 30
0.0
 10
-6.85
 20
-8.52081
 30
0.0
 10
-6.83954
 20
-8.49536
 30
0.0
 10
-6.83954
 20
-8.49536
 30
0.0
 10
-6.81944
 20
-8.44678
 30
0.0
 10
-6.80664
 20
-8.38554
 30
0.0
 10
-6.81662
 20
-8.33378
 30
0.0
 10
-6.81662
 20
-8.33378
 30
0.0
 10
-6.82319
 20
-8.29972
 30
0.0
 10
-6.84069
 20
-8.26993
 30
0.0
 10
-6.87476
 20
-8.2529
 30
0.0
 10
-6.87476
 20
-8.2529
 30
0.0
 10
-6.89094
 20
-8.2448
 30
0.0
 10
-6.93215
 20
-8.24033
 30
0.0
 10
-6.97588
 20
-8.24578
 30
0.0
 10
-6.97588
 20
-8.24578
 30
0.0
 10
-7.00619
 20
-8.24957
 30
0.0
 10
-7.03541
 20
-8.25838
 30
0.0
 10
-7.05313
 20
-8.27454
 30
0.0
 10
-7.05313
 20
-8.27454
 30
0.0
 10
-7.07351
 20
-8.29309
 30
0.0
 10
-7.10508
 20
-8.2916
 30
0.0
 10
-7.12363
 20
-8.27122
 30
0.0
 10
-7.12363
 20
-8.27122
 30
0.0
 10
-7.14218
 20
-8.25084
 30
0.0
 10
-7.14069
 20
-8.21927
 30
0.0
 10
-7.12031
 20
-8.20072
 30
0.0
 10
-7.12031
 20
-8.20072
 30
0.0
 10
-7.08539
 20
-8.1689
 30
0.0
 10
-7.03635
 20
-8.1526
 30
0.0
 10
-6.98798
 20
-8.14656
 30
0.0
 10
-6.98798
 20
-8.14656
 30
0.0
 10
-6.92596
 20
-8.13882
 30
0.0
 10
-6.86053
 20
-8.14867
 30
0.0
 10
-6.83022
 20
-8.16384
 30
0.0
 10
-6.83022
 20
-8.16384
 30
0.0
 10
-6.76413
 20
-8.19687
 30
0.0
 10
-6.73068
 20
-8.25233
 30
0.0
 10
-6.71858
 20
-8.31502
 30
0.0
 10
-6.71858
 20
-8.31502
 30
0.0
 10
-6.7046
 20
-8.38751
 30
0.0
 10
-6.72102
 20
-8.4696
 30
0.0
 10
-6.74736
 20
-8.53326
 30
0.0
  0
SPLINE
  5
63
330
1F
100
AcDbEntity
  8
Layer 1
 62
     5
100
AcDbSpline
210
0.0
220
0.0
230
1.0
 70
    11
 71
     3
 72
    44
 73
    40
 74
     0
 42
0.0000000001
 43
0.0000000001
 12
1.0
 22
0.0
 32
0.0
 13
1.0
 23
0.0
 33
0.0
 40
0.0
 40
0.0
 40
0.0
 40
0.0
 40
0.0909090909090909
 40
0.0909090909090909
 40
0.0909090909090909
 40
0.0909090909090909
 40
0.1818181818181818
 40
0.1818181818181818
 40
0.1818181818181818
 40
0.1818181818181818
 40
0.2727272727272727
 40
0.2727272727272727
 40
0.2727272727272727
 40
0.2727272727272727
 40
0.3636363636363636
 40
0.3636363636363636
 40
0.3636363636363636
 40
0.3636363636363636
 40
0.4545454545454545
 40
0.4545454545454545
 40
0.4545454545454545
 40
0.4545454545454545
 40
0.5454545454545454
 40
0.5454545454545454
 40
0.5454545454545454
 40
0.5454545454545454
 40
0.6363636363636364
 40
0.6363636363636364
 40
0.6363636363636364
 40
0.6363636363636364
 40
0.7272727272727273
 40
0.7272727272727273
 40
0.7272727272727273
 40
0.7272727272727273
 40
0.8181818181818182
 40
0.8181818181818182
 40
0.8181818181818182
 40
0.8181818181818182
 40
1.0
 40
1.0
 40
1.0
 40
1.0
 10
-6.77866
 20
-8.31937
 30
0.0
 10
-6.80616
 20
-8.32023
 30
0.0
 10
-6.82916
 20
-8.29863
 30
0.0
 10
-6.83002
 20
-8.27113
 30
0.0
 10
-6.83002
 20
-8.27113
 30
0.0
 10
-6.83088
 20
-8.24363
 30
0.0
 10
-6.80928
 20
-8.22063
 30
0.0
 10
-6.78178
 20
-8.21977
 30
0.0
 10
-6.78178
 20
-8.21977
 30
0.0
 10
-6.75168
 20
-8.21875
 30
0.0
 10
-6.72563
 20
-8.2144
 30
0.0
 10
-6.70105
 20
-8.20529
 30
0.0
 10
-6.70105
 20
-8.20529
 30
0.0
 10
-6.69985
 20
-8.20485
 30
0.0
 10
-6.69864
 20
-8.20445
 30
0.0
 10
-6.69743
 20
-8.2041
 30
0.0
 10
-6.69743
 20
-8.2041
 30
0.0
 10
-6.67469
 20
-8.19513
 30
0.0
 10
-6.65229
 20
-8.18135
 30
0.0
 10
-6.628
 20
-8.16147
 30
0.0
 10
-6.628
 20
-8.16147
 30
0.0
 10
-6.60665
 20
-8.144
 30
0.0
 10
-6.57516
 20
-8.14715
 30
0.0
 10
-6.55769
 20
-8.1685
 30
0.0
 10
-6.55769
 20
-8.1685
 30
0.0
 10
-6.54022
 20
-8.18985
 30
0.0
 10
-6.54337
 20
-8.22134
 30
0.0
 10
-6.56472
 20
-8.23881
 30
0.0
 10
-6.56472
 20
-8.23881
 30
0.0
 10
-6.59711
 20
-8.26532
 30
0.0
 10
-6.62842
 20
-8.28419
 30
0.0
 10
-6.66191
 20
-8.29719
 30
0.0
 10
-6.66191
 20
-8.29719
 30
0.0
 10
-6.66333
 20
-8.29787
 30
0.0
 10
-6.66479
 20
-8.29849
 30
0.0
 10
-6.66629
 20
-8.29905
 30
0.0
 10
-6.66629
 20
-8.29905
 30
0.0
 10
-6.70085
 20
-8.31187
 30
0.0
 10
-6.73708
 20
-8.31796
 30
0.0
 10
-6.77866
 20
-8.31937
 30
0.0
  0
SPLINE
  5
64
330
1F
100
AcDbEntity
  8
Layer 1
 62
     5
100
AcDbSpline
210
0.0
220
0.0
230
1.0
 70
    11
 71
     3
 72
    52
 73
    48
 74
     0
 42
0.0000000001
 43
0.0000000001
 12
1.0
 22
0.0
 32
0.0
 13
1.0
 23
0.0
 33
0.0
 40
0.0
 40
0.0
 40
0.0
 40
0.0
 40
0.0769230769230769
 40
0.0769230769230769
 40
0.0769230769230769
 40
0.0769230769230769
 40
0.1538461538461539
 40
0.1538461538461539
 40
0.1538461538461539
 40
0.1538461538461539
 40
0.2307692307692308
 40
0.2307692307692308
 40
0.2307692307692308
 40
0.2307692307692308
 40
0.3076923076923077
 40
0.3076923076923077
 40
0.3076923076923077
 40
0.3076923076923077
 40
0.3846153846153846
 40
0.3846153846153846
 40
0.3846153846153846
 40
0.3846153846153846
 40
0.4615384615384616
 40
0.4615384615384616
 40
0.4615384615384616
 40
0.4615384615384616
 40
0.5384615384615384
 40
0.5384615384615384
 40
0.5384615384615384
 40
0.5384615384615384
 40
0.6153846153846154
 40
0.6153846153846154
 40
0.6153846153846154
 40
0.6153846153846154
 40
0.6923076923076923
 40
0.6923076923076923
 40
0.6923076923076923
 40
0.6923076923076923
 40
0.7692307692307693
 40
0.7692307692307693
 40
0.7692307692307693
 40
0.7692307692307693
 40
0.8461538461538461
 40
0.8461538461538461
 40
0.8461538461538461
 40
0.8461538461538461
 40
1.0
 40
1.0
 40
1.0
 40
1.0
 10
-6.36889
 20
-7.85826
 30
0.0
 10
-6.39014
 20
-7.84068
 30
0.0
 10
-6.39311
 20
-7.80919
 30
0.0
 10
-6.37553
 20
-7.78794
 30
0.0
 10
-6.37553
 20
-7.78794
 30
0.0
 10
-6.35795
 20
-7.76669
 30
0.0
 10
-6.32646
 20
-7.76372
 30
0.0
 10
-6.30521
 20
-7.7813
 30
0.0
 10
-6.30521
 20
-7.7813
 30
0.0
 10
-6.29998
 20
-7.78563
 30
0.0
 10
-6.29468
 20
-7.78892
 30
0.0
 10
-6.28941
 20
-7.79124
 30
0.0
 10
-6.28941
 20
-7.79124
 30
0.0
 10
-6.26775
 20
-7.80079
 30
0.0
 10
-6.24154
 20
-7.79573
 30
0.0
 10
-6.21574
 20
-7.78297
 30
0.0
 10
-6.21574
 20
-7.78297
 30
0.0
 10
-6.18429
 20
-7.76741
 30
0.0
 10
-6.15424
 20
-7.741
 30
0.0
 10
-6.13105
 20
-7.71298
 30
0.0
 10
-6.13105
 20
-7.71298
 30
0.0
 10
-6.11634
 20
-7.69522
 30
0.0
 10
-6.10487
 20
-7.67737
 30
0.0
 10
-6.09801
 20
-7.66181
 30
0.0
 10
-6.09801
 20
-7.66181
 30
0.0
 10
-6.0869
 20
-7.63658
 30
0.0
 10
-6.05742
 20
-7.62512
 30
0.0
 10
-6.03219
 20
-7.63623
 30
0.0
 10
-6.03219
 20
-7.63623
 30
0.0
 10
-6.00696
 20
-7.64734
 30
0.0
 10
-5.9955
 20
-7.67682
 30
0.0
 10
-6.00661
 20
-7.70205
 30
0.0
 10
-6.00661
 20
-7.70205
 30
0.0
 10
-6.01712
 20
-7.7259
 30
0.0
 10
-6.03361
 20
-7.75194
 30
0.0
 10
-6.05409
 20
-7.77666
 30
0.0
 10
-6.05409
 20
-7.77666
 30
0.0
 10
-6.08516
 20
-7.8142
 30
0.0
 10
-6.12666
 20
-7.85019
 30
0.0
 10
-6.1716
 20
-7.87243
 30
0.0
 10
-6.1716
 20
-7.87243
 30
0.0
 10
-6.22219
 20
-7.89745
 30
0.0
 10
-6.27738
 20
-7.90568
 30
0.0
 10
-6.32965
 20
-7.88264
 30
0.0
 10
-6.32965
 20
-7.88264
 30
0.0
 10
-6.34326
 20
-7.87665
 30
0.0
 10
-6.35642
 20
-7.86859
 30
0.0
 10
-6.36889
 20
-7.85826
 30
0.0
  0
SPLINE
  5
65
330
1F
100
AcDbEntity
  8
Layer 1
 62
     5
100
AcDbSpline
210
0.0
220
0.0
230
1.0
 70
    11
 71
     3
 72
    28
 73
    24
 74
     0
 42
0.0000000001
 43
0.0000000001
 12
1.0
 22
0.0
 32
0.0
 13
1.0
 23
0.0
 33
0.0
 40
0.0
 40
0.0
 40
0.0
 40
0.0
 40
0.1428571428571428
 40
0.1428571428571428
 40
0.1428571428571428
 40
0.1428571428571428
 40
0.2857142857142857
 40
0.2857142857142857
 40
0.2857142857142857
 40
0.2857142857142857
 40
0.4285714285714285
 40
0.4285714285714285
 40
0.4285714285714285
 40
0.4285714285714285
 40
0.5714285714285714
 40
0.5714285714285714
 40
0.5714285714285714
 40
0.5714285714285714
 40
0.7142857142857143
 40
0.7142857142857143
 40
0.7142857142857143
 40
0.7142857142857143
 40
1.0
 40
1.0
 40
1.0
 40
1.0
 10
-7.00369
 20
-8.34516
 30
0.0
 10
-6.99285
 20
-8.35953
 30
0.0
 10
-6.98259
 20
-8.37109
 30
0.0
 10
-6.97194
 20
-8.37975
 30
0.0
 10
-6.97194
 20
-8.37975
 30
0.0
 10
-6.97909
 20
-8.36054
 30
0.0
 10
-6.98595
 20
-8.34066
 30
0.0
 10
-6.99276
 20
-8.32028
 30
0.0
 10
-6.99276
 20
-8.32028
 30
0.0
 10
-6.99276
 20
-8.32028
 30
0.0
 10
-6.99358
 20
-8.31756
 30
0.0
 10
-6.99358
 20
-8.31756
 30
0.0
 10
-6.99358
 20
-8.31756
 30
0.0
 10
-6.99461
 20
-8.31434
 30
0.0
 10
-6.99543
 20
-8.31143
 30
0.0
 10
-6.99616
 20
-8.30868
 30
0.0
 10
-6.99616
 20
-8.30868
 30
0.0
 10
-6.99914
 20
-8.3165
 30
0.0
 10
-7.00114
 20
-8.32497
 30
0.0
 10
-7.00213
 20
-8.33297
 30
0.0
 10
-7.00213
 20
-8.33297
 30
0.0
 10
-7.00289
 20
-8.33917
 30
0.0
 10
-7.00347
 20
-8.34349
 30
0.0
 10
-7.00369
 20
-8.34516
 30
0.0
  0
SPLINE
  5
66
330
1F
100
AcDbEntity
  8
Layer 1
 62
     5
100
AcDbSpline
210
0.0
220
0.0
230
1.0
 70
    11
 71
     3
 72
    64
 73
    60
 74
     0
 42
0.0000000001
 43
0.0000000001
 12
1.0
 22
0.0
 32
0.0
 13
1.0
 23
0.0
 33
0.0
 40
0.0
 40
0.0
 40
0.0
 40
0.0
 40
0.0625
 40
0.0625
 40
0.0625
 40
0.0625
 40
0.125
 40
0.125
 40
0.125
 40
0.125
 40
0.1875
 40
0.1875
 40
0.1875
 40
0.1875
 40
0.25
 40
0.25
 40
0.25
 40
0.25
 40
0.3125
 40
0.3125
 40
0.3125
 40
0.3125
 40
0.375
 40
0.375
 40
0.375
 40
0.375
 40
0.4375
 40
0.4375
 40
0.4375
 40
0.4375
 40
0.5
 40
0.5
 40
0.5
 40
0.5
 40
0.5625
 40
0.5625
 40
0.5625
 40
0.5625
 40
0.625
 40
0.625
 40
0.625
 40
0.625
 40
0.6875
 40
0.6875
 40
0.6875
 40
0.6875
 40
0.75
 40
0.75
 40
0.75
 40
0.75
 40
0.8125
 40
0.8125
 40
0.8125
 40
0.8125
 40
0.875
 40
0.875
 40
0.875
 40
0.875
 40
1.0
 40
1.0
 40
1.0
 40
1.0
 10
-7.00539
 20
-8.47689
 30
0.0
 10
-7.03682
 20
-8.4597
 30
0.0
 10
-7.0613
 20
-8.43471
 30
0.0
 10
-7.08613
 20
-8.40111
 30
0.0
 10
-7.08613
 20
-8.40111
 30
0.0
 10
-7.08854
 20
-8.39827
 30
0.0
 10
-7.09068
 20
-8.39509
 30
0.0
 10
-7.09246
 20
-8.39163
 30
0.0
 10
-7.09246
 20
-8.39163
 30
0.0
 10
-7.10162
 20
-8.37388
 30
0.0
 10
-7.10463
 20
-8.34757
 30
0.0
 10
-7.10135
 20
-8.32087
 30
0.0
 10
-7.10135
 20
-8.32087
 30
0.0
 10
-7.09877
 20
-8.29994
 30
0.0
 10
-7.09243
 20
-8.27689
 30
0.0
 10
-7.08238
 20
-8.25669
 30
0.0
 10
-7.08238
 20
-8.25669
 30
0.0
 10
-7.07062
 20
-8.23305
 30
0.0
 10
-7.05333
 20
-8.21238
 30
0.0
 10
-7.03
 20
-8.20035
 30
0.0
 10
-7.03
 20
-8.20035
 30
0.0
 10
-7.01348
 20
-8.19183
 30
0.0
 10
-6.99502
 20
-8.18794
 30
0.0
 10
-6.97475
 20
-8.19045
 30
0.0
 10
-6.97475
 20
-8.19045
 30
0.0
 10
-6.91973
 20
-8.19725
 30
0.0
 10
-6.9098
 20
-8.23978
 30
0.0
 10
-6.90127
 20
-8.27635
 30
0.0
 10
-6.90127
 20
-8.27635
 30
0.0
 10
-6.90017
 20
-8.28106
 30
0.0
 10
-6.89912
 20
-8.28556
 30
0.0
 10
-6.89852
 20
-8.28776
 30
0.0
 10
-6.89852
 20
-8.28776
 30
0.0
 10
-6.89852
 20
-8.28776
 30
0.0
 10
-6.89822
 20
-8.28864
 30
0.0
 10
-6.89822
 20
-8.28864
 30
0.0
 10
-6.89822
 20
-8.28864
 30
0.0
 10
-6.8902
 20
-8.31266
 30
0.0
 10
-6.88189
 20
-8.33646
 30
0.0
 10
-6.87239
 20
-8.36071
 30
0.0
 10
-6.87239
 20
-8.36071
 30
0.0
 10
-6.86335
 20
-8.38384
 30
0.0
 10
-6.85348
 20
-8.40648
 30
0.0
 10
-6.8422
 20
-8.42869
 30
0.0
 10
-6.8422
 20
-8.42869
 30
0.0
 10
-6.8422
 20
-8.42869
 30
0.0
 10
-6.84223
 20
-8.4287
 30
0.0
 10
-6.84223
 20
-8.4287
 30
0.0
 10
-6.84223
 20
-8.4287
 30
0.0
 10
-6.83908
 20
-8.43494
 30
0.0
 10
-6.83719
 20
-8.44195
 30
0.0
 10
-6.83693
 20
-8.44939
 30
0.0
 10
-6.83693
 20
-8.44939
 30
0.0
 10
-6.83596
 20
-8.47689
 30
0.0
 10
-6.85747
 20
-8.49998
 30
0.0
 10
-6.88497
 20
-8.50095
 30
0.0
 10
-6.88497
 20
-8.50095
 30
0.0
 10
-6.93466
 20
-8.50282
 30
0.0
 10
-6.97237
 20
-8.49494
 30
0.0
 10
-7.00539
 20
-8.47689
 30
0.0
  0
SPLINE
  5
67
330
1F
100
AcDbEntity
  8
Layer 1
 62
     5
100
AcDbSpline
210
0.0
220
0.0
230
1.0
 70
    11
 71
     3
 72
    36
 73
    32
 74
     0
 42
0.0000000001
 43
0.0000000001
 12
1.0
 22
0.0
 32
0.0
 13
1.0
 23
0.0
 33
0.0
 40
0.0
 40
0.0
 40
0.0
 40
0.0
 40
0.1111111111111111
 40
0.1111111111111111
 40
0.1111111111111111
 40
0.1111111111111111
 40
0.2222222222222222
 40
0.2222222222222222
 40
0.2222222222222222
 40
0.2222222222222222
 40
0.3333333333333333
 40
0.3333333333333333
 40
0.3333333333333333
 40
0.3333333333333333
 40
0.4444444444444444
 40
0.4444444444444444
 40
0.4444444444444444
 40
0.4444444444444444
 40
0.5555555555555556
 40
0.5555555555555556
 40
0.5555555555555556
 40
0.5555555555555556
 40
0.6666666666666666
 40
0.6666666666666666
 40
0.6666666666666666
 40
0.6666666666666666
 40
0.7777777777777778
 40
0.7777777777777778
 40
0.7777777777777778
 40
0.7777777777777778
 40
1.0
 40
1.0
 40
1.0
 40
1.0
 10
-5.48916
 20
-8.22924
 30
0.0
 10
-5.50523
 20
-8.20692
 30
0.0
 10
-5.50015
 20
-8.17578
 30
0.0
 10
-5.47783
 20
-8.15971
 30
0.0
 10
-5.47783
 20
-8.15971
 30
0.0
 10
-5.45551
 20
-8.14364
 30
0.0
 10
-5.42437
 20
-8.14872
 30
0.0
 10
-5.4083
 20
-8.17104
 30
0.0
 10
-5.4083
 20
-8.17104
 30
0.0
 10
-5.31276
 20
-8.30336
 30
0.0
 10
-5.21087
 20
-8.43431
 30
0.0
 10
-5.10285
 20
-8.5639
 30
0.0
 10
-5.10285
 20
-8.5639
 30
0.0
 10
-4.9943
 20
-8.69414
 30
0.0
 10
-4.87986
 20
-8.82276
 30
0.0
 10
-4.75972
 20
-8.94976
 30
0.0
 10
-4.75972
 20
-8.94976
 30
0.0
 10
-4.74085
 20
-8.96971
 30
0.0
 10
-4.74172
 20
-9.0012
 30
0.0
 10
-4.76167
 20
-9.02007
 30
0.0
 10
-4.76167
 20
-9.02007
 30
0.0
 10
-4.78162
 20
-9.03894
 30
0.0
 10
-4.81311
 20
-9.03807
 30
0.0
 10
-4.83198
 20
-9.01812
 30
0.0
 10
-4.83198
 20
-9.01812
 30
0.0
 10
-4.95434
 20
-8.88876
 30
0.0
 10
-5.07023
 20
-8.75858
 30
0.0
 10
-5.17941
 20
-8.62758
 30
0.0
 10
-5.17941
 20
-8.62758
 30
0.0
 10
-5.28913
 20
-8.49595
 30
0.0
 10
-5.39245
 20
-8.36317
 30
0.0
 10
-5.48916
 20
-8.22924
 30
0.0
  0
SPLINE
  5
68
330
1F
100
AcDbEntity
  8
Layer 1
 62
     5
100
AcDbSpline
210
0.0
220
0.0
230
1.0
 70
    11
 71
     3
 72
    36
 73
    32
 74
     0
 42
0.0000000001
 43
0.0000000001
 12
1.0
 22
0.0
 32
0.0
 13
1.0
 23
0.0
 33
0.0
 40
0.0
 40
0.0
 40
0.0
 40
0.0
 40
0.1111111111111111
 40
0.1111111111111111
 40
0.1111111111111111
 40
0.1111111111111111
 40
0.2222222222222222
 40
0.2222222222222222
 40
0.2222222222222222
 40
0.2222222222222222
 40
0.3333333333333333
 40
0.3333333333333333
 40
0.3333333333333333
 40
0.3333333333333333
 40
0.4444444444444444
 40
0.4444444444444444
 40
0.4444444444444444
 40
0.4444444444444444
 40
0.5555555555555556
 40
0.5555555555555556
 40
0.5555555555555556
 40
0.5555555555555556
 40
0.6666666666666666
 40
0.6666666666666666
 40
0.6666666666666666
 40
0.6666666666666666
 40
0.7777777777777778
 40
0.7777777777777778
 40
0.7777777777777778
 40
0.7777777777777778
 40
1.0
 40
1.0
 40
1.0
 40
1.0
 10
-4.62265
 20
-10.09719
 30
0.0
 10
-4.62179
 20
-10.12469
 30
0.0
 10
-4.64339
 20
-10.14769
 30
0.0
 10
-4.67089
 20
-10.14855
 30
0.0
 10
-4.67089
 20
-10.14855
 30
0.0
 10
-4.69839
 20
-10.14941
 30
0.0
 10
-4.72139
 20
-10.12781
 30
0.0
 10
-4.72225
 20
-10.10031
 30
0.0
 10
-4.72225
 20
-10.10031
 30
0.0
 10
-4.72375
 20
-10.0546
 30
0.0
 10
-4.724
 20
-10.01003
 30
0.0
 10
-4.72262
 20
-9.96707
 30
0.0
 10
-4.72262
 20
-9.96707
 30
0.0
 10
-4.72122
 20
-9.92376
 30
0.0
 10
-4.71813
 20
-9.88194
 30
0.0
 10
-4.71297
 20
-9.84201
 30
0.0
 10
-4.71297
 20
-9.84201
 30
0.0
 10
-4.70952
 20
-9.81473
 30
0.0
 10
-4.68459
 20
-9.7954
 30
0.0
 10
-4.65731
 20
-9.79885
 30
0.0
 10
-4.65731
 20
-9.79885
 30
0.0
 10
-4.63003
 20
-9.8023
 30
0.0
 10
-4.6107
 20
-9.82723
 30
0.0
 10
-4.61415
 20
-9.85451
 30
0.0
 10
-4.61415
 20
-9.85451
 30
0.0
 10
-4.61887
 20
-9.89104
 30
0.0
 10
-4.62171
 20
-9.92976
 30
0.0
 10
-4.62302
 20
-9.97019
 30
0.0
 10
-4.62302
 20
-9.97019
 30
0.0
 10
-4.62433
 20
-10.01095
 30
0.0
 10
-4.62408
 20
-10.05345
 30
0.0
 10
-4.62265
 20
-10.09719
 30
0.0
  0
ENDSEC
  0
SECTION
  2
OBJECTS
  0
DICTIONARY
  5
C
330
0
100
AcDbDictionary
281
     1
  3
ACAD_GROUP
350
D
  3
ACAD_LAYOUT
350
1A
  3
ACAD_MATERIAL
350
3B
  3
ACAD_MLEADERSTYLE
350
8A
  3
ACAD_MLINESTYLE
350
17
  3
ACAD_PLOTSETTINGS
350
19
  3
ACAD_PLOTSTYLENAME
350
E
  3
ACAD_TABLESTYLE
350
89
  3
ACAD_VISUALSTYLE
350
2A
  0
DICTIONARY
  5
D
102
{ACAD_REACTORS
330
C
102
}
330
C
100
AcDbDictionary
281
     1
  0
DICTIONARY
  5
1A
102
{ACAD_REACTORS
330
C
102
}
330
C
100
AcDbDictionary
281
     1
  3
Layout1
350
1E
  3
Layout2
350
26
  3
Model
350
22
  0
DICTIONARY
  5
3B
102
{ACAD_REACTORS
330
C
102
}
330
C
100
AcDbDictionary
281
     1
  3
ByBlock
350
3D
  3
ByLayer
350
3C
  3
Global
350
3E
  0
DICTIONARY
  5
8A
102
{ACAD_REACTORS
330
C
102
}
330
C
100
AcDbDictionary
281
     1
  0
DICTIONARY
  5
17
102
{ACAD_REACTORS
330
C
102
}
330
C
100
AcDbDictionary
281
     1
  3
Standard
350
18
  0
DICTIONARY
  5
19
102
{ACAD_REACTORS
330
C
102
}
330
C
100
AcDbDictionary
281
     1
  0
ACDBDICTIONARYWDFLT
  5
E
102
{ACAD_REACTORS
330
C
102
}
330
C
100
AcDbDictionary
281
     1
  3
Normal
350
F
100
AcDbDictionaryWithDefault
340
F
  0
DICTIONARY
  5
89
102
{ACAD_REACTORS
330
C
102
}
330
C
100
AcDbDictionary
281
     1
  0
DICTIONARY
  5
2A
102
{ACAD_REACTORS
330
C
102
}
330
C
100
AcDbDictionary
281
     1
  3
2dWireframe
350
2F
  3
3D Hidden
350
31
  3
3dWireframe
350
30
  3
Basic
350
32
  3
Brighten
350
36
  3
ColorChange
350
3A
  3
Conceptual
350
34
  3
Dim
350
35
  3
Facepattern
350
39
  3
Flat
350
2B
  3
FlatWithEdges
350
2C
  3
Gouraud
350
2D
  3
GouraudWithEdges
350
2E
  3
Linepattern
350
38
  3
Realistic
350
33
  3
Thicken
350
37
  0
LAYOUT
  5
1E
102
{ACAD_REACTORS
330
1A
102
}
330
1A
100
AcDbPlotSettings
  1

  2
none_device
  4

  6

 40
0.0
 41
0.0
 42
0.0
 43
0.0
 44
0.0
 45
0.0
 46
0.0
 47
0.0
 48
0.0
 49
0.0
140
0.0
141
0.0
142
1.0
143
1.0
 70
   688
 72
     0
 73
     0
 74
     5
  7

 75
    16
 76
     0
 77
     2
 78
   300
147
1.0
148
0.0
149
0.0
100
AcDbLayout
  1
Layout1
 70
     1
 71
     1
 10
0.0
 20
0.0
 11
12.0
 21
9.0
 12
0.0
 22
0.0
 32
0.0
 14
1.000000000000000E+20
 24
1.000000000000000E+20
 34
1.000000000000000E+20
 15
-1.000000000000000E+20
 25
-1.000000000000000E+20
 35
-1.000000000000000E+20
146
0.0
 13
0.0
 23
0.0
 33
0.0
 16
1.0
 26
0.0
 36
0.0
 17
0.0
 27
1.0
 37
0.0
 76
     0
330
1B
  0
LAYOUT
  5
26
102
{ACAD_REACTORS
330
1A
102
}
330
1A
100
AcDbPlotSettings
  1

  2
none_device
  4

  6

 40
0.0
 41
0.0
 42
0.0
 43
0.0
 44
0.0
 45
0.0
 46
0.0
 47
0.0
 48
0.0
 49
0.0
140
0.0
141
0.0
142
1.0
143
1.0
 70
   688
 72
     0
 73
     0
 74
     5
  7

 75
    16
 76
     0
 77
     2
 78
   300
147
1.0
148
0.0
149
0.0
100
AcDbLayout
  1
Layout2
 70
     1
 71
     2
 10
0.0
 20
0.0
 11
0.0
 21
0.0
 12
0.0
 22
0.0
 32
0.0
 14
0.0
 24
0.0
 34
0.0
 15
0.0
 25
0.0
 35
0.0
146
0.0
 13
0.0
 23
0.0
 33
0.0
 16
1.0
 26
0.0
 36
0.0
 17
0.0
 27
1.0
 37
0.0
 76
     0
330
23
  0
LAYOUT
  5
22
102
{ACAD_REACTORS
330
1A
102
}
330
1A
100
AcDbPlotSettings
  1

  2
none_device
  4

  6

 40
0.0
 41
0.0
 42
0.0
 43
0.0
 44
0.0
 45
0.0
 46
0.0
 47
0.0
 48
0.0
 49
0.0
140
0.0
141
0.0
142
1.0
143
1.0
 70
  1712
 72
     0
 73
     0
 74
     0
  7

 75
     0
 76
     0
 77
     2
 78
   300
147
1.0
148
0.0
149
0.0
100
AcDbLayout
  1
Model
 70
     1
 71
     0
 10
0.0
 20
0.0
 11
12.0
 21
9.0
 12
0.0
 22
0.0
 32
0.0
 14
-17.2193
 24
-12.57589
 34
0.0
 15
-2.78071
 25
-7.2341
 35
0.0
146
0.0
 13
0.0
 23
0.0
 33
0.0
 16
1.0
 26
0.0
 36
0.0
 17
0.0
 27
1.0
 37
0.0
 76
     0
330
1F
331
29
  0
MATERIAL
  5
3D
102
{ACAD_REACTORS
330
3B
102
}
330
3B
100
AcDbMaterial
  1
ByBlock
 72
     1
 94
      127
  0
MATERIAL
  5
3C
102
{ACAD_REACTORS
330
3B
102
}
330
3B
100
AcDbMaterial
  1
ByLayer
 72
     1
 94
      127
  0
MATERIAL
  5
3E
102
{ACAD_REACTORS
330
3B
102
}
330
3B
100
AcDbMaterial
  1
Global
 72
     1
 94
      127
  0
MLINESTYLE
  5
18
102
{ACAD_REACTORS
330
17
102
}
330
17
100
AcDbMlineStyle
  2
Standard
 70
     0
  3

 62
   256
 51
90.0
 52
90.0
 71
     2
 49
0.5
 62
   256
  6
BYLAYER
 49
-0.5
 62
   256
  6
BYLAYER
  0
ACDBPLACEHOLDER
  5
F
102
{ACAD_REACTORS
330
E
102
}
330
E
  0
VISUALSTYLE
  5
2F
102
{ACAD_REACTORS
330
2A
102
}
102
{ACAD_XDICTIONARY
360
71
102
}
330
2A
100
AcDbVisualStyle
  2
2dWireframe
 70
     4
 71
     0
 72
     2
 73
     0
 90
        0
 40
-0.6
 41
-30.0
 62
     5
 63
     7
421
 16777215
 74
     1
 91
        4
 64
     7
 65
   257
 75
     1
175
     1
 42
1.0
 92
        0
 66
   257
 43
1.0
 76
     1
 77
     6
 78
     2
 67
     7
 79
     5
170
     0
171
     0
290
     0
174
     0
 93
        1
 44
0.0
173
     0
291
     0
 45
0.0
  0
VISUALSTYLE
  5
31
102
{ACAD_REACTORS
330
2A
102
}
102
{ACAD_XDICTIONARY
360
75
102
}
330
2A
100
AcDbVisualStyle
  2
3D Hidden
 70
     6
 71
     1
 72
     2
 73
     2
 90
        0
 40
-0.6
 41
-30.0
 62
     5
 63
     7
421
 16777215
 74
     2
 91
        2
 64
     7
 65
   257
 75
     2
175
     1
 42
40.0
 92
        0
 66
   257
 43
1.0
 76
     1
 77
     6
 78
     2
 67
     7
 79
     3
170
     0
171
     0
290
     0
174
     0
 93
        1
 44
0.0
173
     0
291
     0
 45
0.0
  0
VISUALSTYLE
  5
30
102
{ACAD_REACTORS
330
2A
102
}
102
{ACAD_XDICTIONARY
360
73
102
}
330
2A
100
AcDbVisualStyle
  2
3dWireframe
 70
     5
 71
     0
 72
     2
 73
     0
 90
        0
 40
-0.6
 41
-30.0
 62
     5
 63
     7
421
 16777215
 74
     1
 91
        4
 64
     7
 65
   257
 75
     1
175
     1
 42
1.0
 92
        0
 66
   257
 43
1.0
 76
     1
 77
     6
 78
     2
 67
     7
 79
     5
170
     0
171
     0
290
     0
174
     0
 93
        1
 44
0.0
173
     0
291
     0
 45
0.0
  0
VISUALSTYLE
  5
32
102
{ACAD_REACTORS
330
2A
102
}
102
{ACAD_XDICTIONARY
360
77
102
}
330
2A
100
AcDbVisualStyle
  2
Basic
 70
     7
 71
     1
 72
     0
 73
     1
 90
        0
 40
-0.6
 41
-30.0
 62
     5
 63
     7
421
 16777215
 74
     0
 91
        4
 64
     7
 65
   257
 75
     1
175
     1
 42
1.0
 92
        8
 66
     7
 43
1.0
 76
     1
 77
     6
 78
     2
 67
     7
 79
     5
170
     0
171
     0
290
     0
174
     0
 93
        1
 44
0.0
173
     0
291
     1
 45
0.0
  0
VISUALSTYLE
  5
36
102
{ACAD_REACTORS
330
2A
102
}
102
{ACAD_XDICTIONARY
360
7F
102
}
330
2A
100
AcDbVisualStyle
  2
Brighten
 70
    12
 71
     2
 72
     2
 73
     0
 90
        0
 40
-0.6
 41
-30.0
 62
     5
 63
     7
421
 16777215
 74
     1
 91
        4
 64
     7
 65
   257
 75
     1
175
     1
 42
1.0
 92
        8
 66
     7
 43
1.0
 76
     1
 77
     6
 78
     2
 67
     7
 79
     5
170
     0
171
     0
290
     0
174
     0
 93
        1
 44
50.0
173
     0
291
     1
 45
0.0
  0
VISUALSTYLE
  5
3A
102
{ACAD_REACTORS
330
2A
102
}
102
{ACAD_XDICTIONARY
360
87
102
}
330
2A
100
AcDbVisualStyle
  2
ColorChange
 70
    16
 71
     2
 72
     2
 73
     3
 90
        0
 40
-0.6
 41
-30.0
 62
     5
 63
     8
421
  8421504
 74
     1
 91
        4
 64
     7
 65
   257
 75
     1
175
     1
 42
1.0
 92
        8
 66
     8
424
  8421504
 43
1.0
 76
     1
 77
     6
 78
     2
 67
     7
 79
     5
170
     0
171
     0
290
     0
174
     0
 93
        1
 44
0.0
173
     0
291
     1
 45
0.0
  0
VISUALSTYLE
  5
34
102
{ACAD_REACTORS
330
2A
102
}
102
{ACAD_XDICTIONARY
360
7B
102
}
330
2A
100
AcDbVisualStyle
  2
Conceptual
 70
     9
 71
     3
 72
     2
 73
     0
 90
        0
 40
-0.6
 41
-30.0
 62
     5
 63
     7
421
 16777215
 74
     2
 91
        2
 64
     7
 65
   257
 75
     1
175
     1
 42
40.0
 92
        8
 66
     7
 43
1.0
 76
     1
 77
     6
 78
     2
 67
     7
 79
     3
170
     0
171
     0
290
     0
174
     0
 93
        1
 44
0.0
173
     0
291
     0
 45
0.0
  0
VISUALSTYLE
  5
35
102
{ACAD_REACTORS
330
2A
102
}
102
{ACAD_XDICTIONARY
360
7D
102
}
330
2A
100
AcDbVisualStyle
  2
Dim
 70
    11
 71
     2
 72
     2
 73
     0
 90
        0
 40
-0.6
 41
-30.0
 62
     5
 63
     7
421
 16777215
 74
     1
 91
        4
 64
     7
 65
   257
 75
     1
175
     1
 42
1.0
 92
        8
 66
     7
 43
1.0
 76
     1
 77
     6
 78
     2
 67
     7
 79
     5
170
     0
171
     0
290
     0
174
     0
 93
        1
 44
-50.0
173
     0
291
     1
 45
0.0
  0
VISUALSTYLE
  5
39
102
{ACAD_REACTORS
330
2A
102
}
102
{ACAD_XDICTIONARY
360
85
102
}
330
2A
100
AcDbVisualStyle
  2
Facepattern
 70
    15
 71
     2
 72
     2
 73
     0
 90
        0
 40
-0.6
 41
-30.0
 62
     5
 63
     7
421
 16777215
 74
     1
 91
        4
 64
     7
 65
   257
 75
     1
175
     1
 42
1.0
 92
        8
 66
     7
 43
1.0
 76
     1
 77
     6
 78
     2
 67
     7
 79
     5
170
     0
171
     0
290
     0
174
     0
 93
        1
 44
0.0
173
     0
291
     1
 45
0.0
  0
VISUALSTYLE
  5
2B
102
{ACAD_REACTORS
330
2A
102
}
102
{ACAD_XDICTIONARY
360
69
102
}
330
2A
100
AcDbVisualStyle
  2
Flat
 70
     0
 71
     2
 72
     1
 73
     1
 90
        2
 40
-0.6
 41
30.0
 62
     5
 63
     7
421
 16777215
 74
     0
 91
        4
 64
     7
 65
   257
 75
     1
175
     1
 42
1.0
 92
        8
 66
     7
 43
1.0
 76
     1
 77
     6
 78
     2
 67
     7
 79
     5
170
     0
171
     0
290
     0
174
     0
 93
       13
 44
0.0
173
     0
291
     1
 45
0.0
  0
VISUALSTYLE
  5
2C
102
{ACAD_REACTORS
330
2A
102
}
102
{ACAD_XDICTIONARY
360
6B
102
}
330
2A
100
AcDbVisualStyle
  2
FlatWithEdges
 70
     1
 71
     2
 72
     1
 73
     1
 90
        2
 40
-0.6
 41
30.0
 62
     5
 63
     7
421
 16777215
 74
     1
 91
        4
 64
     7
 65
   257
 75
     1
175
     1
 42
1.0
 92
        0
 66
   257
 43
1.0
 76
     1
 77
     6
 78
     2
 67
     7
 79
     5
170
     0
171
     0
290
     0
174
     0
 93
       13
 44
0.0
173
     0
291
     1
 45
0.0
  0
VISUALSTYLE
  5
2D
102
{ACAD_REACTORS
330
2A
102
}
102
{ACAD_XDICTIONARY
360
6D
102
}
330
2A
100
AcDbVisualStyle
  2
Gouraud
 70
     2
 71
     2
 72
     2
 73
     1
 90
        2
 40
-0.6
 41
30.0
 62
     5
 63
     7
421
 16777215
 74
     0
 91
        4
 64
     7
 65
   257
 75
     1
175
     1
 42
1.0
 92
        0
 66
     7
 43
1.0
 76
     1
 77
     6
 78
     2
 67
     7
 79
     5
170
     0
171
     0
290
     0
174
     0
 93
       13
 44
0.0
173
     0
291
     1
 45
0.0
  0
VISUALSTYLE
  5
2E
102
{ACAD_REACTORS
330
2A
102
}
102
{ACAD_XDICTIONARY
360
6F
102
}
330
2A
100
AcDbVisualStyle
  2
GouraudWithEdges
 70
     3
 71
     2
 72
     2
 73
     1
 90
        2
 40
-0.6
 41
30.0
 62
     5
 63
     7
421
 16777215
 74
     1
 91
        4
 64
     7
 65
   257
 75
     1
175
     1
 42
1.0
 92
        0
 66
   257
 43
1.0
 76
     1
 77
     6
 78
     2
 67
     7
 79
     5
170
     0
171
     0
290
     0
174
     0
 93
       13
 44
0.0
173
     0
291
     1
 45
0.0
  0
VISUALSTYLE
  5
38
102
{ACAD_REACTORS
330
2A
102
}
102
{ACAD_XDICTIONARY
360
83
102
}
330
2A
100
AcDbVisualStyle
  2
Linepattern
 70
    14
 71
     2
 72
     2
 73
     0
 90
        0
 40
-0.6
 41
-30.0
 62
     5
 63
     7
421
 16777215
 74
     1
 91
        4
 64
     7
 65
   257
 75
     7
175
     7
 42
1.0
 92
        8
 66
     7
 43
1.0
 76
     1
 77
     6
 78
     2
 67
     7
 79
     5
170
     0
171
     0
290
     0
174
     0
 93
        1
 44
0.0
173
     0
291
     1
 45
0.0
  0
VISUALSTYLE
  5
33
102
{ACAD_REACTORS
330
2A
102
}
102
{ACAD_XDICTIONARY
360
79
102
}
330
2A
100
AcDbVisualStyle
  2
Realistic
 70
     8
 71
     2
 72
     2
 73
     0
 90
        0
 40
-0.6
 41
-30.0
 62
     5
 63
     7
421
 16777215
 74
     1
 91
        0
 64
     7
 65
   257
 75
     1
175
     1
 42
1.0
 92
        8
 66
     8
424
  7895160
 43
1.0
 76
     1
 77
     6
 78
     2
 67
     7
 79
     5
170
     0
171
     0
290
     0
174
     0
 93
       13
 44
0.0
173
     0
291
     0
 45
0.0
  0
VISUALSTYLE
  5
37
102
{ACAD_REACTORS
330
2A
102
}
102
{ACAD_XDICTIONARY
360
81
102
}
330
2A
100
AcDbVisualStyle
  2
Thicken
 70
    13
 71
     2
 72
     2
 73
     0
 90
        0
 40
-0.6
 41
-30.0
 62
     5
 63
     7
421
 16777215
 74
     1
 91
        4
 64
     7
 65
   257
 75
     1
175
     1
 42
1.0
 92
       12
 66
     7
 43
1.0
 76
     1
 77
     6
 78
     2
 67
     7
 79
     5
170
     0
171
     0
290
     0
174
     0
 93
        1
 44
0.0
173
     0
291
     1
 45
0.0
  0
DICTIONARY
  5
71
330
2F
100
AcDbDictionary
280
     1
281
     1
  3
ACAD_XREC_ROUNDTRIP
360
72
  0
DICTIONARY
  5
75
330
31
100
AcDbDictionary
280
     1
281
     1
  3
ACAD_XREC_ROUNDTRIP
360
76
  0
DICTIONARY
  5
73
330
30
100
AcDbDictionary
280
     1
281
     1
  3
ACAD_XREC_ROUNDTRIP
360
74
  0
DICTIONARY
  5
77
330
32
100
AcDbDictionary
280
     1
281
     1
  3
ACAD_XREC_ROUNDTRIP
360
78
  0
DICTIONARY
  5
7F
330
36
100
AcDbDictionary
280
     1
281
     1
  3
ACAD_XREC_ROUNDTRIP
360
80
  0
DICTIONARY
  5
87
330
3A
100
AcDbDictionary
280
     1
281
     1
  3
ACAD_XREC_ROUNDTRIP
360
88
  0
DICTIONARY
  5
7B
330
34
100
AcDbDictionary
280
     1
281
     1
  3
ACAD_XREC_ROUNDTRIP
360
7C
  0
DICTIONARY
  5
7D
330
35
100
AcDbDictionary
280
     1
281
     1
  3
ACAD_XREC_ROUNDTRIP
360
7E
  0
DICTIONARY
  5
85
330
39
100
AcDbDictionary
280
     1
281
     1
  3
ACAD_XREC_ROUNDTRIP
360
86
  0
DICTIONARY
  5
69
330
2B
100
AcDbDictionary
280
     1
281
     1
  3
ACAD_XREC_ROUNDTRIP
360
6A
  0
DICTIONARY
  5
6B
330
2C
100
AcDbDictionary
280
     1
281
     1
  3
ACAD_XREC_ROUNDTRIP
360
6C
  0
DICTIONARY
  5
6D
330
2D
100
AcDbDictionary
280
     1
281
     1
  3
ACAD_XREC_ROUNDTRIP
360
6E
  0
DICTIONARY
  5
6F
330
2E
100
AcDbDictionary
280
     1
281
     1
  3
ACAD_XREC_ROUNDTRIP
360
70
  0
DICTIONARY
  5
83
330
38
100
AcDbDictionary
280
     1
281
     1
  3
ACAD_XREC_ROUNDTRIP
360
84
  0
DICTIONARY
  5
79
330
33
100
AcDbDictionary
280
     1
281
     1
  3
ACAD_XREC_ROUNDTRIP
360
7A
  0
DICTIONARY
  5
81
330
37
100
AcDbDictionary
280
     1
281
     1
  3
ACAD_XREC_ROUNDTRIP
360
82
  0
XRECORD
  5
72
102
{ACAD_REACTORS
330
71
102
}
330
71
100
AcDbXrecord
280
     1
102
RTVSPropertyOp0
 70
     1
102
RTVSPropertyOp1
 70
     1
102
RTVSPropertyOp2
 70
     1
102
RTVSPropertyOp3
 70
     1
102
RTVSPropertyOp4
 70
     1
102
RTVSPropertyOp5
 70
     1
102
RTVSPropertyOp6
 70
     1
102
RTVSPropertyOp7
 70
     1
102
RTVSPropertyOp8
 70
     1
102
RTVSPropertyOp9
 70
     1
102
RTVSPropertyOp10
 70
     1
102
RTVSPropertyOp11
 70
     1
102
RTVSPropertyOp12
 70
     1
102
RTVSPropertyOp13
 70
     1
102
RTVSPropertyOp14
 70
     1
102
RTVSPropertyOp15
 70
     1
102
RTVSPropertyOp16
 70
     1
102
RTVSPropertyOp17
 70
     1
102
RTVSPropertyOp18
 70
     1
102
RTVSPropertyOp19
 70
     1
102
RTVSPropertyOp20
 70
     1
102
RTVSPropertyOp21
 70
     1
102
RTVSPropertyOp22
 70
     1
102
RTVSPropertyOp23
 70
     1
102
RTVSPropertyOp24
 70
     1
102
RTVSPropertyOp25
 70
     1
102
RTVSPropertyOp26
 70
     1
102
RTVSPropertyOp27
 70
     1
102
RTVSPropertyOp28
 70
     1
102
RTVSPropertyOp29
 70
     1
102
RTVSPropertyOp30
 70
     1
102
RTVSPropertyOp31
 70
     1
102
RTVSPropertyOp32
 70
     1
  0
XRECORD
  5
76
102
{ACAD_REACTORS
330
75
102
}
330
75
100
AcDbXrecord
280
     1
102
RTVSPropertyOp0
 70
     1
102
RTVSPropertyOp1
 70
     1
102
RTVSPropertyOp2
 70
     1
102
RTVSPropertyOp3
 70
     1
102
RTVSPropertyOp4
 70
     1
102
RTVSPropertyOp5
 70
     1
102
RTVSPropertyOp6
 70
     1
102
RTVSPropertyOp7
 70
     1
102
RTVSPropertyOp8
 70
     1
102
RTVSPropertyOp9
 70
     1
102
RTVSPropertyOp10
 70
     1
102
RTVSPropertyOp11
 70
     1
102
RTVSPropertyOp12
 70
     1
102
RTVSPropertyOp13
 70
     1
102
RTVSPropertyOp14
 70
     1
102
RTVSPropertyOp15
 70
     1
102
RTVSPropertyOp16
 70
     1
102
RTVSPropertyOp17
 70
     1
102
RTVSPropertyOp18
 70
     1
102
RTVSPropertyOp19
 70
     1
102
RTVSPropertyOp20
 70
     1
102
RTVSPropertyOp21
 70
     1
102
RTVSPropertyOp22
 70
     1
102
RTVSPropertyOp23
 70
     1
102
RTVSPropertyOp24
 70
     1
102
RTVSPropertyOp25
 70
     1
102
RTVSPropertyOp26
 70
     1
102
RTVSPropertyOp27
 70
     1
102
RTVSPropertyOp28
 70
     1
102
RTVSPropertyOp29
 70
     1
102
RTVSPropertyOp30
 70
     1
102
RTVSPropertyOp31
 70
     1
102
RTVSPropertyOp32
 70
     1
  0
XRECORD
  5
74
102
{ACAD_REACTORS
330
73
102
}
330
73
100
AcDbXrecord
280
     1
102
RTVSPropertyOp0
 70
     1
102
RTVSPropertyOp1
 70
     1
102
RTVSPropertyOp2
 70
     1
102
RTVSPropertyOp3
 70
     1
102
RTVSPropertyOp4
 70
     1
102
RTVSPropertyOp5
 70
     1
102
RTVSPropertyOp6
 70
     1
102
RTVSPropertyOp7
 70
     1
102
RTVSPropertyOp8
 70
     1
102
RTVSPropertyOp9
 70
     1
102
RTVSPropertyOp10
 70
     1
102
RTVSPropertyOp11
 70
     1
102
RTVSPropertyOp12
 70
     1
102
RTVSPropertyOp13
 70
     1
102
RTVSPropertyOp14
 70
     1
102
RTVSPropertyOp15
 70
     1
102
RTVSPropertyOp16
 70
     1
102
RTVSPropertyOp17
 70
     1
102
RTVSPropertyOp18
 70
     1
102
RTVSPropertyOp19
 70
     1
102
RTVSPropertyOp20
 70
     1
102
RTVSPropertyOp21
 70
     1
102
RTVSPropertyOp22
 70
     1
102
RTVSPropertyOp23
 70
     1
102
RTVSPropertyOp24
 70
     1
102
RTVSPropertyOp25
 70
     1
102
RTVSPropertyOp26
 70
     1
102
RTVSPropertyOp27
 70
     1
102
RTVSPropertyOp28
 70
     1
102
RTVSPropertyOp29
 70
     1
102
RTVSPropertyOp30
 70
     1
102
RTVSPropertyOp31
 70
     1
102
RTVSPropertyOp32
 70
     1
  0
XRECORD
  5
78
102
{ACAD_REACTORS
330
77
102
}
330
77
100
AcDbXrecord
280
     1
102
RTVSPropertyOp0
 70
     1
102
RTVSPropertyOp1
 70
     1
102
RTVSPropertyOp2
 70
     1
102
RTVSPropertyOp3
 70
     1
102
RTVSPropertyOp4
 70
     1
102
RTVSPropertyOp5
 70
     1
102
RTVSPropertyOp6
 70
     1
102
RTVSPropertyOp7
 70
     1
102
RTVSPropertyOp8
 70
     1
102
RTVSPropertyOp9
 70
     1
102
RTVSPropertyOp10
 70
     1
102
RTVSPropertyOp11
 70
     1
102
RTVSPropertyOp12
 70
     1
102
RTVSPropertyOp13
 70
     1
102
RTVSPropertyOp14
 70
     1
102
RTVSPropertyOp15
 70
     1
102
RTVSPropertyOp16
 70
     1
102
RTVSPropertyOp17
 70
     1
102
RTVSPropertyOp18
 70
     1
102
RTVSPropertyOp19
 70
     1
102
RTVSPropertyOp20
 70
     1
102
RTVSPropertyOp21
 70
     1
102
RTVSPropertyOp22
 70
     1
102
RTVSPropertyOp23
 70
     1
102
RTVSPropertyOp24
 70
     1
102
RTVSPropertyOp25
 70
     1
102
RTVSPropertyOp26
 70
     1
102
RTVSPropertyOp27
 70
     1
102
RTVSPropertyOp28
 70
     1
102
RTVSPropertyOp29
 70
     1
102
RTVSPropertyOp30
 70
     1
102
RTVSPropertyOp31
 70
     1
102
RTVSPropertyOp32
 70
     1
  0
XRECORD
  5
80
102
{ACAD_REACTORS
330
7F
102
}
330
7F
100
AcDbXrecord
280
     1
102
RTVSPropertyOp0
 70
     1
102
RTVSPropertyOp1
 70
     1
102
RTVSPropertyOp2
 70
     1
102
RTVSPropertyOp3
 70
     1
102
RTVSPropertyOp4
 70
     1
102
RTVSPropertyOp5
 70
     1
102
RTVSPropertyOp6
 70
     1
102
RTVSPropertyOp7
 70
     1
102
RTVSPropertyOp8
 70
     1
102
RTVSPropertyOp9
 70
     1
102
RTVSPropertyOp10
 70
     1
102
RTVSPropertyOp11
 70
     1
102
RTVSPropertyOp12
 70
     1
102
RTVSPropertyOp13
 70
     1
102
RTVSPropertyOp14
 70
     1
102
RTVSPropertyOp15
 70
     1
102
RTVSPropertyOp16
 70
     1
102
RTVSPropertyOp17
 70
     1
102
RTVSPropertyOp18
 70
     1
102
RTVSPropertyOp19
 70
     1
102
RTVSPropertyOp20
 70
     1
102
RTVSPropertyOp21
 70
     1
102
RTVSPropertyOp22
 70
     1
102
RTVSPropertyOp23
 70
     1
102
RTVSPropertyOp24
 70
     1
102
RTVSPropertyOp25
 70
     1
102
RTVSPropertyOp26
 70
     1
102
RTVSPropertyOp27
 70
     1
102
RTVSPropertyOp28
 70
     1
102
RTVSPropertyOp29
 70
     1
102
RTVSPropertyOp30
 70
     1
102
RTVSPropertyOp31
 70
     1
102
RTVSPropertyOp32
 70
     1
  0
XRECORD
  5
88
102
{ACAD_REACTORS
330
87
102
}
330
87
100
AcDbXrecord
280
     1
102
RTVSPropertyOp0
 70
     1
102
RTVSPropertyOp1
 70
     1
102
RTVSPropertyOp2
 70
     1
102
RTVSPropertyOp3
 70
     1
102
RTVSPropertyOp4
 70
     1
102
RTVSPropertyOp5
 70
     1
102
RTVSPropertyOp6
 70
     1
102
RTVSPropertyOp7
 70
     1
102
RTVSPropertyOp8
 70
     1
102
RTVSPropertyOp9
 70
     1
102
RTVSPropertyOp10
 70
     1
102
RTVSPropertyOp11
 70
     1
102
RTVSPropertyOp12
 70
     1
102
RTVSPropertyOp13
 70
     1
102
RTVSPropertyOp14
 70
     1
102
RTVSPropertyOp15
 70
     1
102
RTVSPropertyOp16
 70
     1
102
RTVSPropertyOp17
 70
     1
102
RTVSPropertyOp18
 70
     1
102
RTVSPropertyOp19
 70
     1
102
RTVSPropertyOp20
 70
     1
102
RTVSPropertyOp21
 70
     1
102
RTVSPropertyOp22
 70
     1
102
RTVSPropertyOp23
 70
     1
102
RTVSPropertyOp24
 70
     1
102
RTVSPropertyOp25
 70
     1
102
RTVSPropertyOp26
 70
     1
102
RTVSPropertyOp27
 70
     1
102
RTVSPropertyOp28
 70
     1
102
RTVSPropertyOp29
 70
     1
102
RTVSPropertyOp30
 70
     1
102
RTVSPropertyOp31
 70
     1
102
RTVSPropertyOp32
 70
     1
  0
XRECORD
  5
7C
102
{ACAD_REACTORS
330
7B
102
}
330
7B
100
AcDbXrecord
280
     1
102
RTVSPropertyOp0
 70
     1
102
RTVSPropertyOp1
 70
     1
102
RTVSPropertyOp2
 70
     1
102
RTVSPropertyOp3
 70
     1
102
RTVSPropertyOp4
 70
     1
102
RTVSPropertyOp5
 70
     1
102
RTVSPropertyOp6
 70
     1
102
RTVSPropertyOp7
 70
     1
102
RTVSPropertyOp8
 70
     1
102
RTVSPropertyOp9
 70
     1
102
RTVSPropertyOp10
 70
     1
102
RTVSPropertyOp11
 70
     1
102
RTVSPropertyOp12
 70
     1
102
RTVSPropertyOp13
 70
     1
102
RTVSPropertyOp14
 70
     1
102
RTVSPropertyOp15
 70
     1
102
RTVSPropertyOp16
 70
     1
102
RTVSPropertyOp17
 70
     1
102
RTVSPropertyOp18
 70
     1
102
RTVSPropertyOp19
 70
     1
102
RTVSPropertyOp20
 70
     1
102
RTVSPropertyOp21
 70
     1
102
RTVSPropertyOp22
 70
     1
102
RTVSPropertyOp23
 70
     1
102
RTVSPropertyOp24
 70
     1
102
RTVSPropertyOp25
 70
     1
102
RTVSPropertyOp26
 70
     1
102
RTVSPropertyOp27
 70
     1
102
RTVSPropertyOp28
 70
     1
102
RTVSPropertyOp29
 70
     1
102
RTVSPropertyOp30
 70
     1
102
RTVSPropertyOp31
 70
     1
102
RTVSPropertyOp32
 70
     1
  0
XRECORD
  5
7E
102
{ACAD_REACTORS
330
7D
102
}
330
7D
100
AcDbXrecord
280
     1
102
RTVSPropertyOp0
 70
     1
102
RTVSPropertyOp1
 70
     1
102
RTVSPropertyOp2
 70
     1
102
RTVSPropertyOp3
 70
     1
102
RTVSPropertyOp4
 70
     1
102
RTVSPropertyOp5
 70
     1
102
RTVSPropertyOp6
 70
     1
102
RTVSPropertyOp7
 70
     1
102
RTVSPropertyOp8
 70
     1
102
RTVSPropertyOp9
 70
     1
102
RTVSPropertyOp10
 70
     1
102
RTVSPropertyOp11
 70
     1
102
RTVSPropertyOp12
 70
     1
102
RTVSPropertyOp13
 70
     1
102
RTVSPropertyOp14
 70
     1
102
RTVSPropertyOp15
 70
     1
102
RTVSPropertyOp16
 70
     1
102
RTVSPropertyOp17
 70
     1
102
RTVSPropertyOp18
 70
     1
102
RTVSPropertyOp19
 70
     1
102
RTVSPropertyOp20
 70
     1
102
RTVSPropertyOp21
 70
     1
102
RTVSPropertyOp22
 70
     1
102
RTVSPropertyOp23
 70
     1
102
RTVSPropertyOp24
 70
     1
102
RTVSPropertyOp25
 70
     1
102
RTVSPropertyOp26
 70
     1
102
RTVSPropertyOp27
 70
     1
102
RTVSPropertyOp28
 70
     1
102
RTVSPropertyOp29
 70
     1
102
RTVSPropertyOp30
 70
     1
102
RTVSPropertyOp31
 70
     1
102
RTVSPropertyOp32
 70
     1
  0
XRECORD
  5
86
102
{ACAD_REACTORS
330
85
102
}
330
85
100
AcDbXrecord
280
     1
102
RTVSPropertyOp0
 70
     1
102
RTVSPropertyOp1
 70
     1
102
RTVSPropertyOp2
 70
     1
102
RTVSPropertyOp3
 70
     1
102
RTVSPropertyOp4
 70
     1
102
RTVSPropertyOp5
 70
     1
102
RTVSPropertyOp6
 70
     1
102
RTVSPropertyOp7
 70
     1
102
RTVSPropertyOp8
 70
     1
102
RTVSPropertyOp9
 70
     1
102
RTVSPropertyOp10
 70
     1
102
RTVSPropertyOp11
 70
     1
102
RTVSPropertyOp12
 70
     1
102
RTVSPropertyOp13
 70
     1
102
RTVSPropertyOp14
 70
     1
102
RTVSPropertyOp15
 70
     1
102
RTVSPropertyOp16
 70
     1
102
RTVSPropertyOp17
 70
     1
102
RTVSPropertyOp18
 70
     1
102
RTVSPropertyOp19
 70
     1
102
RTVSPropertyOp20
 70
     1
102
RTVSPropertyOp21
 70
     1
102
RTVSPropertyOp22
 70
     1
102
RTVSPropertyOp23
 70
     1
102
RTVSPropertyOp24
 70
     1
102
RTVSPropertyOp25
 70
     1
102
RTVSPropertyOp26
 70
     1
102
RTVSPropertyOp27
 70
     1
102
RTVSPropertyOp28
 70
     1
102
RTVSPropertyOp29
 70
     1
102
RTVSPropertyOp30
 70
     1
102
RTVSPropertyOp31
 70
     1
102
RTVSPropertyOp32
 70
     1
  0
XRECORD
  5
6A
102
{ACAD_REACTORS
330
69
102
}
330
69
100
AcDbXrecord
280
     1
102
RTVSPropertyOp0
 70
     1
102
RTVSPropertyOp1
 70
     1
102
RTVSPropertyOp2
 70
     1
102
RTVSPropertyOp3
 70
     1
102
RTVSPropertyOp4
 70
     1
102
RTVSPropertyOp5
 70
     1
102
RTVSPropertyOp6
 70
     1
102
RTVSPropertyOp7
 70
     1
102
RTVSPropertyOp8
 70
     1
102
RTVSPropertyOp9
 70
     1
102
RTVSPropertyOp10
 70
     1
102
RTVSPropertyOp11
 70
     1
102
RTVSPropertyOp12
 70
     1
102
RTVSPropertyOp13
 70
     1
102
RTVSPropertyOp14
 70
     1
102
RTVSPropertyOp15
 70
     1
102
RTVSPropertyOp16
 70
     1
102
RTVSPropertyOp17
 70
     1
102
RTVSPropertyOp18
 70
     1
102
RTVSPropertyOp19
 70
     1
102
RTVSPropertyOp20
 70
     1
102
RTVSPropertyOp21
 70
     1
102
RTVSPropertyOp22
 70
     1
102
RTVSPropertyOp23
 70
     1
102
RTVSPropertyOp24
 70
     1
102
RTVSPropertyOp25
 70
     1
102
RTVSPropertyOp26
 70
     1
102
RTVSPropertyOp27
 70
     1
102
RTVSPropertyOp28
 70
     1
102
RTVSPropertyOp29
 70
     1
102
RTVSPropertyOp30
 70
     1
102
RTVSPropertyOp31
 70
     1
102
RTVSPropertyOp32
 70
     1
  0
XRECORD
  5
6C
102
{ACAD_REACTORS
330
6B
102
}
330
6B
100
AcDbXrecord
280
     1
102
RTVSPropertyOp0
 70
     1
102
RTVSPropertyOp1
 70
     1
102
RTVSPropertyOp2
 70
     1
102
RTVSPropertyOp3
 70
     1
102
RTVSPropertyOp4
 70
     1
102
RTVSPropertyOp5
 70
     1
102
RTVSPropertyOp6
 70
     1
102
RTVSPropertyOp7
 70
     1
102
RTVSPropertyOp8
 70
     1
102
RTVSPropertyOp9
 70
     1
102
RTVSPropertyOp10
 70
     1
102
RTVSPropertyOp11
 70
     1
102
RTVSPropertyOp12
 70
     1
102
RTVSPropertyOp13
 70
     1
102
RTVSPropertyOp14
 70
     1
102
RTVSPropertyOp15
 70
     1
102
RTVSPropertyOp16
 70
     1
102
RTVSPropertyOp17
 70
     1
102
RTVSPropertyOp18
 70
     1
102
RTVSPropertyOp19
 70
     1
102
RTVSPropertyOp20
 70
     1
102
RTVSPropertyOp21
 70
     1
102
RTVSPropertyOp22
 70
     1
102
RTVSPropertyOp23
 70
     1
102
RTVSPropertyOp24
 70
     1
102
RTVSPropertyOp25
 70
     1
102
RTVSPropertyOp26
 70
     1
102
RTVSPropertyOp27
 70
     1
102
RTVSPropertyOp28
 70
     1
102
RTVSPropertyOp29
 70
     1
102
RTVSPropertyOp30
 70
     1
102
RTVSPropertyOp31
 70
     1
102
RTVSPropertyOp32
 70
     1
  0
XRECORD
  5
6E
102
{ACAD_REACTORS
330
6D
102
}
330
6D
100
AcDbXrecord
280
     1
102
RTVSPropertyOp0
 70
     1
102
RTVSPropertyOp1
 70
     1
102
RTVSPropertyOp2
 70
     1
102
RTVSPropertyOp3
 70
     1
102
RTVSPropertyOp4
 70
     1
102
RTVSPropertyOp5
 70
     1
102
RTVSPropertyOp6
 70
     1
102
RTVSPropertyOp7
 70
     1
102
RTVSPropertyOp8
 70
     1
102
RTVSPropertyOp9
 70
     1
102
RTVSPropertyOp10
 70
     1
102
RTVSPropertyOp11
 70
     1
102
RTVSPropertyOp12
 70
     1
102
RTVSPropertyOp13
 70
     1
102
RTVSPropertyOp14
 70
     1
102
RTVSPropertyOp15
 70
     1
102
RTVSPropertyOp16
 70
     1
102
RTVSPropertyOp17
 70
     1
102
RTVSPropertyOp18
 70
     1
102
RTVSPropertyOp19
 70
     1
102
RTVSPropertyOp20
 70
     1
102
RTVSPropertyOp21
 70
     1
102
RTVSPropertyOp22
 70
     1
102
RTVSPropertyOp23
 70
     1
102
RTVSPropertyOp24
 70
     1
102
RTVSPropertyOp25
 70
     1
102
RTVSPropertyOp26
 70
     1
102
RTVSPropertyOp27
 70
     1
102
RTVSPropertyOp28
 70
     1
102
RTVSPropertyOp29
 70
     1
102
RTVSPropertyOp30
 70
     1
102
RTVSPropertyOp31
 70
     1
102
RTVSPropertyOp32
 70
     1
  0
XRECORD
  5
70
102
{ACAD_REACTORS
330
6F
102
}
330
6F
100
AcDbXrecord
280
     1
102
RTVSPropertyOp0
 70
     1
102
RTVSPropertyOp1
 70
     1
102
RTVSPropertyOp2
 70
     1
102
RTVSPropertyOp3
 70
     1
102
RTVSPropertyOp4
 70
     1
102
RTVSPropertyOp5
 70
     1
102
RTVSPropertyOp6
 70
     1
102
RTVSPropertyOp7
 70
     1
102
RTVSPropertyOp8
 70
     1
102
RTVSPropertyOp9
 70
     1
102
RTVSPropertyOp10
 70
     1
102
RTVSPropertyOp11
 70
     1
102
RTVSPropertyOp12
 70
     1
102
RTVSPropertyOp13
 70
     1
102
RTVSPropertyOp14
 70
     1
102
RTVSPropertyOp15
 70
     1
102
RTVSPropertyOp16
 70
     1
102
RTVSPropertyOp17
 70
     1
102
RTVSPropertyOp18
 70
     1
102
RTVSPropertyOp19
 70
     1
102
RTVSPropertyOp20
 70
     1
102
RTVSPropertyOp21
 70
     1
102
RTVSPropertyOp22
 70
     1
102
RTVSPropertyOp23
 70
     1
102
RTVSPropertyOp24
 70
     1
102
RTVSPropertyOp25
 70
     1
102
RTVSPropertyOp26
 70
     1
102
RTVSPropertyOp27
 70
     1
102
RTVSPropertyOp28
 70
     1
102
RTVSPropertyOp29
 70
     1
102
RTVSPropertyOp30
 70
     1
102
RTVSPropertyOp31
 70
     1
102
RTVSPropertyOp32
 70
     1
  0
XRECORD
  5
84
102
{ACAD_REACTORS
330
83
102
}
330
83
100
AcDbXrecord
280
     1
102
RTVSPropertyOp0
 70
     1
102
RTVSPropertyOp1
 70
     1
102
RTVSPropertyOp2
 70
     1
102
RTVSPropertyOp3
 70
     1
102
RTVSPropertyOp4
 70
     1
102
RTVSPropertyOp5
 70
     1
102
RTVSPropertyOp6
 70
     1
102
RTVSPropertyOp7
 70
     1
102
RTVSPropertyOp8
 70
     1
102
RTVSPropertyOp9
 70
     1
102
RTVSPropertyOp10
 70
     1
102
RTVSPropertyOp11
 70
     1
102
RTVSPropertyOp12
 70
     1
102
RTVSPropertyOp13
 70
     1
102
RTVSPropertyOp14
 70
     1
102
RTVSPropertyOp15
 70
     1
102
RTVSPropertyOp16
 70
     1
102
RTVSPropertyOp17
 70
     1
102
RTVSPropertyOp18
 70
     1
102
RTVSPropertyOp19
 70
     1
102
RTVSPropertyOp20
 70
     1
102
RTVSPropertyOp21
 70
     1
102
RTVSPropertyOp22
 70
     1
102
RTVSPropertyOp23
 70
     1
102
RTVSPropertyOp24
 70
     1
102
RTVSPropertyOp25
 70
     1
102
RTVSPropertyOp26
 70
     1
102
RTVSPropertyOp27
 70
     1
102
RTVSPropertyOp28
 70
     1
102
RTVSPropertyOp29
 70
     1
102
RTVSPropertyOp30
 70
     1
102
RTVSPropertyOp31
 70
     1
102
RTVSPropertyOp32
 70
     1
  0
XRECORD
  5
7A
102
{ACAD_REACTORS
330
79
102
}
330
79
100
AcDbXrecord
280
     1
102
RTVSPropertyOp0
 70
     1
102
RTVSPropertyOp1
 70
     1
102
RTVSPropertyOp2
 70
     1
102
RTVSPropertyOp3
 70
     1
102
RTVSPropertyOp4
 70
     1
102
RTVSPropertyOp5
 70
     1
102
RTVSPropertyOp6
 70
     1
102
RTVSPropertyOp7
 70
     1
102
RTVSPropertyOp8
 70
     1
102
RTVSPropertyOp9
 70
     1
102
RTVSPropertyOp10
 70
     1
102
RTVSPropertyOp11
 70
     1
102
RTVSPropertyOp12
 70
     1
102
RTVSPropertyOp13
 70
     1
102
RTVSPropertyOp14
 70
     1
102
RTVSPropertyOp15
 70
     1
102
RTVSPropertyOp16
 70
     1
102
RTVSPropertyOp17
 70
     1
102
RTVSPropertyOp18
 70
     1
102
RTVSPropertyOp19
 70
     1
102
RTVSPropertyOp20
 70
     1
102
RTVSPropertyOp21
 70
     1
102
RTVSPropertyOp22
 70
     1
102
RTVSPropertyOp23
 70
     1
102
RTVSPropertyOp24
 70
     1
102
RTVSPropertyOp25
 70
     1
102
RTVSPropertyOp26
 70
     1
102
RTVSPropertyOp27
 70
     1
102
RTVSPropertyOp28
 70
     1
102
RTVSPropertyOp29
 70
     1
102
RTVSPropertyOp30
 70
     1
102
RTVSPropertyOp31
 70
     1
102
RTVSPropertyOp32
 70
     1
  0
XRECORD
  5
82
102
{ACAD_REACTORS
330
81
102
}
330
81
100
AcDbXrecord
280
     1
102
RTVSPropertyOp0
 70
     1
102
RTVSPropertyOp1
 70
     1
102
RTVSPropertyOp2
 70
     1
102
RTVSPropertyOp3
 70
     1
102
RTVSPropertyOp4
 70
     1
102
RTVSPropertyOp5
 70
     1
102
RTVSPropertyOp6
 70
     1
102
RTVSPropertyOp7
 70
     1
102
RTVSPropertyOp8
 70
     1
102
RTVSPropertyOp9
 70
     1
102
RTVSPropertyOp10
 70
     1
102
RTVSPropertyOp11
 70
     1
102
RTVSPropertyOp12
 70
     1
102
RTVSPropertyOp13
 70
     1
102
RTVSPropertyOp14
 70
     1
102
RTVSPropertyOp15
 70
     1
102
RTVSPropertyOp16
 70
     1
102
RTVSPropertyOp17
 70
     1
102
RTVSPropertyOp18
 70
     1
102
RTVSPropertyOp19
 70
     1
102
RTVSPropertyOp20
 70
     1
102
RTVSPropertyOp21
 70
     1
102
RTVSPropertyOp22
 70
     1
102
RTVSPropertyOp23
 70
     1
102
RTVSPropertyOp24
 70
     1
102
RTVSPropertyOp25
 70
     1
102
RTVSPropertyOp26
 70
     1
102
RTVSPropertyOp27
 70
     1
102
RTVSPropertyOp28
 70
     1
102
RTVSPropertyOp29
 70
     1
102
RTVSPropertyOp30
 70
     1
102
RTVSPropertyOp31
 70
     1
102
RTVSPropertyOp32
 70
     1
  0
ENDSEC
  0
EOF
