<?xml version="1.0" encoding="UTF-8"?>
<!DOCTYPE svg PUBLIC "-//W3C//DTD SVG 1.1//EN" "http://www.w3.org/Graphics/SVG/1.1/DTD/svg11.dtd">
<!-- Creator: CorelDRAW X6 -->
<svg xmlns="http://www.w3.org/2000/svg" xml:space="preserve" width="200mm" height="200mm" version="1.1" shape-rendering="geometricPrecision" text-rendering="geometricPrecision" image-rendering="optimizeQuality" fill-rule="evenodd" clip-rule="evenodd"
viewBox="0 0 20000 20000"
 xmlns:xlink="http://www.w3.org/1999/xlink">
 <g id="Layer_x0020_1">
  <metadata id="CorelCorpID_0Corel-Layer"/>
  <g id="_874352752">
   <circle fill="none" stroke="black" stroke-width="52.92" stroke-linecap="round" stroke-linejoin="round" cx="9000" cy="8000" r="300"/>
   <circle fill="none" stroke="black" stroke-width="52.92" stroke-linecap="round" stroke-linejoin="round" cx="9000" cy="9500" r="300"/>
   <path fill="none" fill-rule="nonzero" stroke="blue" stroke-width="52.92" stroke-linecap="round" stroke-linejoin="round" d="M3320 8143c476,-170 711,-393 935,-406"/>
   <path fill="none" fill-rule="nonzero" stroke="blue" stroke-width="52.92" stroke-linecap="round" stroke-linejoin="round" d="M6552 8968c-91,-168 -96,-255 -137,-443 -44,-207 -190,-525 -416,-723 -42,-37 -106,-91 -131,-139"/>
   <path fill="none" fill-rule="nonzero" stroke="blue" stroke-width="52.92" stroke-linecap="round" stroke-linejoin="round" d="M7200 9855c0,0 -35,-693 -564,-1114"/>
   <path fill="none" fill-rule="nonzero" stroke="blue" stroke-width="52.92" stroke-linecap="round" stroke-linejoin="round" d="M6094 9422c0,0 -1336,-503 -1336,-1247"/>
   <path fill="none" fill-rule="nonzero" stroke="blue" stroke-width="52.92" stroke-linecap="round" stroke-linejoin="round" d="M4460 9210c-61,-54 -129,-157 -238,-159 -344,-7 -496,60 -814,-53"/>
   <path fill="none" fill-rule="nonzero" stroke="blue" stroke-width="52.92" stroke-linecap="round" stroke-linejoin="round" d="M2879 8377c-192,-52 -309,-171 -298,-403"/>
   <path fill="none" fill-rule="nonzero" stroke="blue" stroke-width="52.92" stroke-linecap="round" stroke-linejoin="round" d="M5988 5208c-64,169 -377,226 -540,205 7,5 1,7 -3,14"/>
   <path fill="none" fill-rule="nonzero" stroke="blue" stroke-width="52.92" stroke-linecap="round" stroke-linejoin="round" d="M6180 5414c-28,-42 17,-83 10,-122 -7,-36 -47,-58 -72,-89 -57,-71 -88,-161 -91,-252"/>
   <path fill="none" fill-rule="nonzero" stroke="blue" stroke-width="52.92" stroke-linecap="round" stroke-linejoin="round" d="M6491 5228c-29,69 -113,326 -204,338 -58,7 -131,-25 -171,-63 -61,-59 -154,-315 11,-281"/>
   <path fill="none" fill-rule="nonzero" stroke="blue" stroke-width="52.92" stroke-linecap="round" stroke-linejoin="round" d="M6689 5460c-7,-6 -50,55 -51,43 36,-52 139,-210 138,-278 -1,-83 -72,-201 -112,-273 -31,-56 -85,-106 -111,-162 -31,-66 -8,-150 -101,-177"/>
   <path fill="none" fill-rule="nonzero" stroke="blue" stroke-width="52.92" stroke-linecap="round" stroke-linejoin="round" d="M6907 5447c-18,-26 69,-135 80,-185 16,-78 -54,-158 -89,-225 -29,-54 -136,-210 -190,-298"/>
   <path fill="none" fill-rule="nonzero" stroke="blue" stroke-width="52.92" stroke-linecap="round" stroke-linejoin="round" d="M6491 5228c0,-3 18,-78 14,-98 -9,-39 -57,-74 -78,-106 -41,-61 -86,-122 -124,-185 -19,-32 -65,-230 -89,-205"/>
   <path fill="none" fill-rule="nonzero" stroke="blue" stroke-width="52.92" stroke-linecap="round" stroke-linejoin="round" d="M6543 5843c-41,-100 -55,-249 59,-306 41,-20 173,-27 234,29"/>
   <path fill="none" fill-rule="nonzero" stroke="blue" stroke-width="52.92" stroke-linecap="round" stroke-linejoin="round" d="M6530 5599c-72,-2 -124,-21 -184,-69"/>
   <path fill="none" fill-rule="nonzero" stroke="blue" stroke-width="52.92" stroke-linecap="round" stroke-linejoin="round" d="M6087 5149c-101,83 -246,-50 -285,-138"/>
   <path fill="none" fill-rule="nonzero" stroke="blue" stroke-width="52.92" stroke-linecap="round" stroke-linejoin="round" d="M6798 5698c-43,59 -81,85 -161,82 24,-48 42,-96 59,-147 7,-22 9,-61 35,-64 60,-7 83,99 67,129"/>
   <path fill="none" fill-rule="nonzero" stroke="blue" stroke-width="52.92" stroke-linecap="round" stroke-linejoin="round" d="M5199 5529c-192,266 -410,527 -653,784"/>
   <path fill="none" fill-rule="nonzero" stroke="blue" stroke-width="52.92" stroke-linecap="round" stroke-linejoin="round" d="M4422 7428c3,-89 1,-174 -9,-250"/>
   <path fill="none" stroke="black" stroke-width="52.92" stroke-linecap="round" stroke-linejoin="round" d="M8300 9175l-165 0c-128,412 -371,785 -613,868 -503,172 -701,-279 -701,-279 0,0 -119,-118 -238,-105 -119,13 -622,148 -807,110 0,0 -595,112 -1019,-6 -417,-116 -1079,-464 -1326,-544 -258,-42 -448,-129 -566,-196 -372,-209 -616,-534 -635,-754 -3,-30 -9,-105 26,-185 43,-97 155,-125 159,-172 7,-73 -13,-120 60,-251 45,-82 159,-161 179,-225 145,-481 866,-1131 1138,-1376 391,-353 586,-440 966,-860 137,-151 150,-182 238,-251 248,-195 466,-204 1098,-423 80,-28 145,-51 185,-66 -48,-14 96,32 146,40 80,12 92,-11 146,0 66,14 108,61 146,106 205,243 308,368 344,569 18,98 5,134 0,146 -48,120 -209,118 -225,212 -11,63 60,84 53,172 -5,58 -41,116 -93,146 -12,7 -57,31 -159,13 -132,-23 -159,-81 -251,-106 -137,-37 -161,69 -331,66 -94,-1 -105,-34 -476,-185 -86,-35 -144,-9 -159,0 -143,89 -192,185 -503,516 -268,285 -307,610 -318,635 -94,223 -139,776 -351,944 147,-4 149,61 321,15 324,-86 168,-291 691,-320 299,-16 510,213 723,291 283,103 1225,-703 2099,388 23,28 42,59 59,93l158 0 0 -400c0,-276 224,-500 500,-500l400 0c276,0 500,224 500,500l0 1900c0,276 -224,500 -500,500l-400 0c-276,0 -500,-224 -500,-500l0 -525z"/>
  </g>
  <g id="_872893296">
   <circle fill="none" stroke="black" stroke-width="52.92" stroke-linecap="round" stroke-linejoin="round" cx="10500" cy="8000" r="300"/>
   <circle fill="none" stroke="black" stroke-width="52.92" stroke-linecap="round" stroke-linejoin="round" cx="10500" cy="9500" r="300"/>
   <path fill="none" fill-rule="nonzero" stroke="blue" stroke-width="52.92" stroke-linecap="round" stroke-linejoin="round" d="M16180 8143c-476,-170 -711,-393 -935,-406"/>
   <path fill="none" fill-rule="nonzero" stroke="blue" stroke-width="52.92" stroke-linecap="round" stroke-linejoin="round" d="M12948 8968c91,-168 96,-255 137,-443 44,-207 190,-525 416,-723 42,-37 106,-91 131,-139"/>
   <path fill="none" fill-rule="nonzero" stroke="blue" stroke-width="52.92" stroke-linecap="round" stroke-linejoin="round" d="M12300 9855c0,0 35,-693 564,-1114"/>
   <path fill="none" fill-rule="nonzero" stroke="blue" stroke-width="52.92" stroke-linecap="round" stroke-linejoin="round" d="M13406 9422c0,0 1336,-503 1336,-1247"/>
   <path fill="none" fill-rule="nonzero" stroke="blue" stroke-width="52.92" stroke-linecap="round" stroke-linejoin="round" d="M15040 9210c61,-54 129,-157 238,-159 344,-7 496,60 814,-53"/>
   <path fill="none" fill-rule="nonzero" stroke="blue" stroke-width="52.92" stroke-linecap="round" stroke-linejoin="round" d="M16621 8377c192,-52 309,-171 298,-403"/>
   <path fill="none" fill-rule="nonzero" stroke="blue" stroke-width="52.92" stroke-linecap="round" stroke-linejoin="round" d="M13512 5208c64,169 377,226 540,205 -7,5 -1,7 3,14"/>
   <path fill="none" fill-rule="nonzero" stroke="blue" stroke-width="52.92" stroke-linecap="round" stroke-linejoin="round" d="M13320 5414c28,-42 -17,-83 -10,-122 7,-36 47,-58 72,-89 57,-71 88,-161 91,-252"/>
   <path fill="none" fill-rule="nonzero" stroke="blue" stroke-width="52.92" stroke-linecap="round" stroke-linejoin="round" d="M13009 5228c29,69 113,326 204,338 58,7 131,-25 171,-63 61,-59 154,-315 -11,-281"/>
   <path fill="none" fill-rule="nonzero" stroke="blue" stroke-width="52.92" stroke-linecap="round" stroke-linejoin="round" d="M12811 5460c7,-6 50,55 51,43 -36,-52 -139,-210 -138,-278 1,-83 72,-201 112,-273 31,-56 85,-106 111,-162 31,-66 8,-150 101,-177"/>
   <path fill="none" fill-rule="nonzero" stroke="blue" stroke-width="52.92" stroke-linecap="round" stroke-linejoin="round" d="M12593 5447c18,-26 -69,-135 -80,-185 -16,-78 54,-158 89,-225 29,-54 136,-210 190,-298"/>
   <path fill="none" fill-rule="nonzero" stroke="blue" stroke-width="52.92" stroke-linecap="round" stroke-linejoin="round" d="M13009 5228c0,-3 -18,-78 -14,-98 9,-39 57,-74 78,-106 41,-61 86,-122 124,-185 19,-32 65,-230 89,-205"/>
   <path fill="none" fill-rule="nonzero" stroke="blue" stroke-width="52.92" stroke-linecap="round" stroke-linejoin="round" d="M12957 5843c41,-100 55,-249 -59,-306 -41,-20 -173,-27 -234,29"/>
   <path fill="none" fill-rule="nonzero" stroke="blue" stroke-width="52.92" stroke-linecap="round" stroke-linejoin="round" d="M12970 5599c72,-2 124,-21 184,-69"/>
   <path fill="none" fill-rule="nonzero" stroke="blue" stroke-width="52.92" stroke-linecap="round" stroke-linejoin="round" d="M13413 5149c101,83 246,-50 285,-138"/>
   <path fill="none" fill-rule="nonzero" stroke="blue" stroke-width="52.92" stroke-linecap="round" stroke-linejoin="round" d="M12702 5698c43,59 81,85 161,82 -24,-48 -42,-96 -59,-147 -7,-22 -9,-61 -35,-64 -60,-7 -83,99 -67,129"/>
   <path fill="none" fill-rule="nonzero" stroke="blue" stroke-width="52.92" stroke-linecap="round" stroke-linejoin="round" d="M14301 5529c192,266 410,527 653,784"/>
   <path fill="none" fill-rule="nonzero" stroke="blue" stroke-width="52.92" stroke-linecap="round" stroke-linejoin="round" d="M15078 7428c-3,-89 -1,-174 9,-250"/>
   <path fill="none" stroke="black" stroke-width="52.92" stroke-linecap="round" stroke-linejoin="round" d="M11200 9175l165 0c128,412 371,785 613,868 503,172 701,-279 701,-279 0,0 119,-118 238,-105 119,13 622,148 807,110 0,0 595,112 1019,-6 417,-116 1079,-464 1326,-544 258,-42 448,-129 566,-196 372,-209 616,-534 635,-754 3,-30 9,-105 -26,-185 -43,-97 -155,-125 -159,-172 -7,-73 13,-120 -60,-251 -45,-82 -159,-161 -179,-225 -145,-481 -866,-1131 -1138,-1376 -391,-353 -586,-440 -966,-860 -137,-151 -150,-182 -238,-251 -248,-195 -466,-204 -1098,-423 -80,-28 -145,-51 -185,-66 48,-14 -96,32 -146,40 -80,12 -92,-11 -146,0 -66,14 -108,61 -146,106 -205,243 -308,368 -344,569 -18,98 -5,134 0,146 48,120 209,118 225,212 11,63 -60,84 -53,172 5,58 41,116 93,146 12,7 57,31 159,13 132,-23 159,-81 251,-106 137,-37 161,69 331,66 94,-1 105,-34 476,-185 86,-35 144,-9 159,0 143,89 192,185 503,516 268,285 307,610 318,635 94,223 139,776 351,944 -147,-4 -149,61 -321,15 -324,-86 -168,-291 -691,-320 -299,-16 -510,213 -723,291 -283,103 -1225,-703 -2099,388 -23,28 -42,59 -59,93l-158 0 0 -400c0,-276 -224,-500 -500,-500l-400 0c-276,0 -500,224 -500,500l0 1900c0,276 224,500 500,500l400 0c276,0 500,-224 500,-500l0 -525z"/>
  </g>
  <circle fill="none" stroke="black" stroke-width="52.92" stroke-linecap="round" stroke-linejoin="round" cx="9000" cy="8750" r="150"/>
  <circle fill="none" stroke="black" stroke-width="52.92" stroke-linecap="round" stroke-linejoin="round" cx="10500" cy="8750" r="150"/>
 </g>
</svg>
