  0
SECTION
  2
HEADER
  9
$ACADVER
  1
AC1021
  9
$ACADMAINTVER
 70
    25
  9
$DWGCODEPAGE
  3
ANSI_1252
  9
$INSBASE
 10
0.0
 20
0.0
 30
0.0
  9
$EXTMIN
 10
-7.79792
 20
-0.22646
 30
0.0
  9
$EXTMAX
 10
7.29792
 20
5.56788
 30
0.0
  9
$LIMMIN
 10
0.0
 20
0.0
  9
$LIMMAX
 10
12.0
 20
9.0
  9
$ORTHOMODE
 70
     0
  9
$REGENMODE
 70
     1
  9
$FILLMODE
 70
     1
  9
$QTEXTMODE
 70
     0
  9
$MIRRTEXT
 70
     1
  9
$LTSCALE
 40
1.0
  9
$ATTMODE
 70
     1
  9
$TEXTSIZE
 40
0.2
  9
$TRACEWID
 40
0.05
  9
$TEXTSTYLE
  7
Standard
  9
$CLAYER
  8
0
  9
$CELTYPE
  6
ByLayer
  9
$CECOLOR
 62
   256
  9
$CELTSCALE
 40
1.0
  9
$DISPSILH
 70
     0
  9
$DIMSCALE
 40
1.0
  9
$DIMASZ
 40
0.18
  9
$DIMEXO
 40
0.0625
  9
$DIMDLI
 40
0.38
  9
$DIMRND
 40
0.0
  9
$DIMDLE
 40
0.0
  9
$DIMEXE
 40
0.18
  9
$DIMTP
 40
0.0
  9
$DIMTM
 40
0.0
  9
$DIMTXT
 40
0.18
  9
$DIMCEN
 40
0.09
  9
$DIMTSZ
 40
0.0
  9
$DIMTOL
 70
     0
  9
$DIMLIM
 70
     0
  9
$DIMTIH
 70
     1
  9
$DIMTOH
 70
     1
  9
$DIMSE1
 70
     0
  9
$DIMSE2
 70
     0
  9
$DIMTAD
 70
     0
  9
$DIMZIN
 70
     0
  9
$DIMBLK
  1

  9
$DIMASO
 70
     1
  9
$DIMSHO
 70
     1
  9
$DIMPOST
  1

  9
$DIMAPOST
  1

  9
$DIMALT
 70
     0
  9
$DIMALTD
 70
     2
  9
$DIMALTF
 40
25.4
  9
$DIMLFAC
 40
1.0
  9
$DIMTOFL
 70
     0
  9
$DIMTVP
 40
0.0
  9
$DIMTIX
 70
     0
  9
$DIMSOXD
 70
     0
  9
$DIMSAH
 70
     0
  9
$DIMBLK1
  1

  9
$DIMBLK2
  1

  9
$DIMSTYLE
  2
Standard
  9
$DIMCLRD
 70
     0
  9
$DIMCLRE
 70
     0
  9
$DIMCLRT
 70
     0
  9
$DIMTFAC
 40
1.0
  9
$DIMGAP
 40
0.09
  9
$DIMJUST
 70
     0
  9
$DIMSD1
 70
     0
  9
$DIMSD2
 70
     0
  9
$DIMTOLJ
 70
     1
  9
$DIMTZIN
 70
     0
  9
$DIMALTZ
 70
     0
  9
$DIMALTTZ
 70
     0
  9
$DIMUPT
 70
     0
  9
$DIMDEC
 70
     4
  9
$DIMTDEC
 70
     4
  9
$DIMALTU
 70
     2
  9
$DIMALTTD
 70
     2
  9
$DIMTXSTY
  7
Standard
  9
$DIMAUNIT
 70
     0
  9
$DIMADEC
 70
     0
  9
$DIMALTRND
 40
0.0
  9
$DIMAZIN
 70
     0
  9
$DIMDSEP
 70
    46
  9
$DIMATFIT
 70
     3
  9
$DIMFRAC
 70
     0
  9
$DIMLDRBLK
  1

  9
$DIMLUNIT
 70
     2
  9
$DIMLWD
 70
    -2
  9
$DIMLWE
 70
    -2
  9
$DIMTMOVE
 70
     0
  9
$DIMFXL
 40
1.0
  9
$DIMFXLON
 70
     0
  9
$DIMJOGANG
 40
0.7853981633974483
  9
$DIMTFILL
 70
     0
  9
$DIMTFILLCLR
 70
     0
  9
$DIMARCSYM
 70
     0
  9
$DIMLTYPE
  6

  9
$DIMLTEX1
  6

  9
$DIMLTEX2
  6

  9
$LUNITS
 70
     2
  9
$LUPREC
 70
     4
  9
$SKETCHINC
 40
0.1
  9
$FILLETRAD
 40
0.5
  9
$AUNITS
 70
     0
  9
$AUPREC
 70
     0
  9
$MENU
  1
.
  9
$ELEVATION
 40
0.0
  9
$PELEVATION
 40
0.0
  9
$THICKNESS
 40
0.0
  9
$LIMCHECK
 70
     0
  9
$CHAMFERA
 40
0.5
  9
$CHAMFERB
 40
0.5
  9
$CHAMFERC
 40
1.0
  9
$CHAMFERD
 40
0.0
  9
$SKPOLY
 70
     0
  9
$TDCREATE
 40
2460554.848897095
  9
$TDUCREATE
 40
2460554.807230428
  9
$TDUPDATE
 40
2460554.848897164
  9
$TDUUPDATE
 40
2460554.807230498
  9
$TDINDWG
 40
0.0000000116
  9
$TDUSRTIMER
 40
0.0000000116
  9
$USRTIMER
 70
     1
  9
$ANGBASE
 50
0.0
  9
$ANGDIR
 70
     0
  9
$PDMODE
 70
     0
  9
$PDSIZE
 40
0.0
  9
$PLINEWID
 40
0.0
  9
$SPLFRAME
 70
     0
  9
$SPLINETYPE
 70
     6
  9
$SPLINESEGS
 70
     8
  9
$HANDSEED
  5
8F
  9
$SURFTAB1
 70
     6
  9
$SURFTAB2
 70
     6
  9
$SURFTYPE
 70
     6
  9
$SURFU
 70
     6
  9
$SURFV
 70
     6
  9
$UCSBASE
  2

  9
$UCSNAME
  2

  9
$UCSORG
 10
0.0
 20
0.0
 30
0.0
  9
$UCSXDIR
 10
1.0
 20
0.0
 30
0.0
  9
$UCSYDIR
 10
0.0
 20
1.0
 30
0.0
  9
$UCSORTHOREF
  2

  9
$UCSORTHOVIEW
 70
     0
  9
$UCSORGTOP
 10
0.0
 20
0.0
 30
0.0
  9
$UCSORGBOTTOM
 10
0.0
 20
0.0
 30
0.0
  9
$UCSORGLEFT
 10
0.0
 20
0.0
 30
0.0
  9
$UCSORGRIGHT
 10
0.0
 20
0.0
 30
0.0
  9
$UCSORGFRONT
 10
0.0
 20
0.0
 30
0.0
  9
$UCSORGBACK
 10
0.0
 20
0.0
 30
0.0
  9
$PUCSBASE
  2

  9
$PUCSNAME
  2

  9
$PUCSORG
 10
0.0
 20
0.0
 30
0.0
  9
$PUCSXDIR
 10
1.0
 20
0.0
 30
0.0
  9
$PUCSYDIR
 10
0.0
 20
1.0
 30
0.0
  9
$PUCSORTHOREF
  2

  9
$PUCSORTHOVIEW
 70
     0
  9
$PUCSORGTOP
 10
0.0
 20
0.0
 30
0.0
  9
$PUCSORGBOTTOM
 10
0.0
 20
0.0
 30
0.0
  9
$PUCSORGLEFT
 10
0.0
 20
0.0
 30
0.0
  9
$PUCSORGRIGHT
 10
0.0
 20
0.0
 30
0.0
  9
$PUCSORGFRONT
 10
0.0
 20
0.0
 30
0.0
  9
$PUCSORGBACK
 10
0.0
 20
0.0
 30
0.0
  9
$USERI1
 70
     0
  9
$USERI2
 70
     0
  9
$USERI3
 70
     0
  9
$USERI4
 70
     0
  9
$USERI5
 70
     0
  9
$USERR1
 40
0.0
  9
$USERR2
 40
0.0
  9
$USERR3
 40
0.0
  9
$USERR4
 40
0.0
  9
$USERR5
 40
0.0
  9
$WORLDVIEW
 70
     1
  9
$SHADEDGE
 70
     3
  9
$SHADEDIF
 70
    70
  9
$TILEMODE
 70
     1
  9
$MAXACTVP
 70
    64
  9
$PINSBASE
 10
0.0
 20
0.0
 30
0.0
  9
$PLIMCHECK
 70
     0
  9
$PEXTMIN
 10
1.000000000000000E+20
 20
1.000000000000000E+20
 30
1.000000000000000E+20
  9
$PEXTMAX
 10
-1.000000000000000E+20
 20
-1.000000000000000E+20
 30
-1.000000000000000E+20
  9
$PLIMMIN
 10
0.0
 20
0.0
  9
$PLIMMAX
 10
12.0
 20
9.0
  9
$UNITMODE
 70
     0
  9
$VISRETAIN
 70
     1
  9
$PLINEGEN
 70
     0
  9
$PSLTSCALE
 70
     1
  9
$TREEDEPTH
 70
  3020
  9
$CMLSTYLE
  2
Standard
  9
$CMLJUST
 70
     0
  9
$CMLSCALE
 40
1.0
  9
$PROXYGRAPHICS
 70
     1
  9
$MEASUREMENT
 70
     0
  9
$CELWEIGHT
370
    -1
  9
$ENDCAPS
280
     0
  9
$JOINSTYLE
280
     0
  9
$LWDISPLAY
290
     0
  9
$INSUNITS
 70
     5
  9
$HYPERLINKBASE
  1

  9
$STYLESHEET
  1

  9
$XEDIT
290
     1
  9
$CEPSNTYPE
380
     0
  9
$PSTYLEMODE
290
     1
  9
$FINGERPRINTGUID
  2
{43A55273-AFD1-4343-B01A-D8332E99471E}
  9
$VERSIONGUID
  2
{FAEB1C32-E019-11D5-929B-00C0DF256EC4}
  9
$EXTNAMES
290
     1
  9
$PSVPSCALE
 40
0.0
  9
$OLESTARTUP
290
     0
  9
$SORTENTS
280
   127
  9
$INDEXCTL
280
     0
  9
$HIDETEXT
280
     1
  9
$XCLIPFRAME
290
     0
  9
$HALOGAP
280
     0
  9
$OBSCOLOR
 70
   257
  9
$OBSLTYPE
280
     0
  9
$INTERSECTIONDISPLAY
280
     0
  9
$INTERSECTIONCOLOR
 70
   257
  9
$DIMASSOC
280
     2
  9
$PROJECTNAME
  1

  9
$CAMERADISPLAY
290
     0
  9
$LENSLENGTH
 40
50.0
  9
$CAMERAHEIGHT
 40
0.0
  9
$STEPSPERSEC
 40
2.0
  9
$STEPSIZE
 40
6.0
  9
$3DDWFPREC
 40
2.0
  9
$PSOLWIDTH
 40
0.25
  9
$PSOLHEIGHT
 40
4.0
  9
$LOFTANG1
 40
1.570796326794897
  9
$LOFTANG2
 40
1.570796326794897
  9
$LOFTMAG1
 40
0.0
  9
$LOFTMAG2
 40
0.0
  9
$LOFTPARAM
 70
     7
  9
$LOFTNORMALS
280
     1
  9
$LATITUDE
 40
37.795
  9
$LONGITUDE
 40
-122.394
  9
$NORTHDIRECTION
 40
0.0
  9
$TIMEZONE
 70
 -8000
  9
$LIGHTGLYPHDISPLAY
280
     1
  9
$TILEMODELIGHTSYNCH
280
     1
  9
$SOLIDHIST
280
     1
  9
$SHOWHIST
280
     1
  9
$DWFFRAME
280
     2
  9
$DGNFRAME
280
     2
  9
$REALWORLDSCALE
290
     1
  9
$INTERFERECOLOR
 62
   256
  9
$CSHADOW
280
     0
  9
$SHADOWPLANELOCATION
 40
0.0
  0
ENDSEC
  0
SECTION
  2
CLASSES
  0
CLASS
  1
ACDBDICTIONARYWDFLT
  2
AcDbDictionaryWithDefault
  3
ObjectDBX Classes
 90
        0
 91
        4
280
     0
281
     0
  0
CLASS
  1
VISUALSTYLE
  2
AcDbVisualStyle
  3
ObjectDBX Classes
 90
     4095
 91
        4
280
     0
281
     0
  0
CLASS
  1
MATERIAL
  2
AcDbMaterial
  3
ObjectDBX Classes
 90
     1153
 91
        4
280
     0
281
     0
  0
ENDSEC
  0
SECTION
  2
TABLES
  0
TABLE
  2
VPORT
  5
8
330
0
100
AcDbSymbolTable
 70
     1
  0
VPORT
  5
29
330
8
100
AcDbSymbolTableRecord
100
AcDbViewportTableRecord
  2
*Active
 70
     0
 10
0.0
 20
0.0
 11
1.0
 21
1.0
 12
10.42990654205607
 22
4.5
 13
0.0
 23
0.0
 14
0.5
 24
0.5
 15
0.5
 25
0.5
 16
0.0
 26
0.0
 36
1.0
 17
0.0
 27
0.0
 37
0.0
 40
9.0
 41
1.972972972850329
 42
50.0
 43
0.0
 44
0.0
 50
0.0
 51
0.0
 71
     0
 72
   100
 73
     1
 74
     3
 75
     0
 76
     0
 77
     0
 78
     0
281
     0
 65
     1
110
0.0
120
0.0
130
0.0
111
1.0
121
0.0
131
0.0
112
0.0
122
1.0
132
0.0
 79
     0
146
0.0
 60
     3
 61
     5
292
     1
282
     1
141
0.0
142
0.0
 63
   250
  0
ENDTAB
  0
TABLE
  2
LTYPE
  5
5
330
0
100
AcDbSymbolTable
 70
     1
  0
LTYPE
  5
14
330
5
100
AcDbSymbolTableRecord
100
AcDbLinetypeTableRecord
  2
ByBlock
 70
     0
  3

 72
    65
 73
     0
 40
0.0
  0
LTYPE
  5
15
330
5
100
AcDbSymbolTableRecord
100
AcDbLinetypeTableRecord
  2
ByLayer
 70
     0
  3

 72
    65
 73
     0
 40
0.0
  0
LTYPE
  5
16
330
5
100
AcDbSymbolTableRecord
100
AcDbLinetypeTableRecord
  2
Continuous
 70
     0
  3
Solid line
 72
    65
 73
     0
 40
0.0
  0
ENDTAB
  0
TABLE
  2
LAYER
  5
2
330
0
100
AcDbSymbolTable
 70
     2
  0
LAYER
  5
10
330
2
100
AcDbSymbolTableRecord
100
AcDbLayerTableRecord
  2
0
 70
     0
 62
     7
  6
Continuous
370
    -3
390
F
347
3E
  0
LAYER
  5
40
330
2
100
AcDbSymbolTableRecord
100
AcDbLayerTableRecord
  2
Layer 1
 70
     0
 62
     7
  6
Continuous
370
    -3
390
F
347
3E
  0
ENDTAB
  0
TABLE
  2
STYLE
  5
3
330
0
100
AcDbSymbolTable
 70
     1
  0
STYLE
  5
11
330
3
100
AcDbSymbolTableRecord
100
AcDbTextStyleTableRecord
  2
Standard
 70
     0
 40
0.0
 41
1.0
 50
0.0
 71
     0
 42
0.2
  3
txt
  4

  0
ENDTAB
  0
TABLE
  2
VIEW
  5
6
330
0
100
AcDbSymbolTable
 70
     0
  0
ENDTAB
  0
TABLE
  2
UCS
  5
7
330
0
100
AcDbSymbolTable
 70
     0
  0
ENDTAB
  0
TABLE
  2
APPID
  5
9
330
0
100
AcDbSymbolTable
 70
     2
  0
APPID
  5
12
330
9
100
AcDbSymbolTableRecord
100
AcDbRegAppTableRecord
  2
ACAD
 70
     0
  0
APPID
  5
3F
330
9
100
AcDbSymbolTableRecord
100
AcDbRegAppTableRecord
  2
ODA
 70
     0
  0
ENDTAB
  0
TABLE
  2
DIMSTYLE
  5
A
330
0
100
AcDbSymbolTable
 70
     1
100
AcDbDimStyleTable
  0
DIMSTYLE
105
27
330
A
100
AcDbSymbolTableRecord
100
AcDbDimStyleTableRecord
  2
Standard
 70
     0
178
     0
340
11
  0
ENDTAB
  0
TABLE
  2
BLOCK_RECORD
  5
1
330
0
100
AcDbSymbolTable
 70
     1
  0
BLOCK_RECORD
  5
1F
330
1
100
AcDbSymbolTableRecord
100
AcDbBlockTableRecord
  2
*Model_Space
340
22
 70
     0
280
     1
281
     0
  0
BLOCK_RECORD
  5
1B
330
1
100
AcDbSymbolTableRecord
100
AcDbBlockTableRecord
  2
*Paper_Space
340
1E
 70
     0
280
     1
281
     0
  0
BLOCK_RECORD
  5
23
330
1
100
AcDbSymbolTableRecord
100
AcDbBlockTableRecord
  2
*Paper_Space0
340
26
 70
     0
280
     1
281
     0
  0
ENDTAB
  0
ENDSEC
  0
SECTION
  2
BLOCKS
  0
BLOCK
  5
20
330
1F
100
AcDbEntity
  8
0
100
AcDbBlockBegin
  2
*Model_Space
 70
     0
 10
0.0
 20
0.0
 30
0.0
  3
*Model_Space
  1

  0
ENDBLK
  5
21
330
1F
100
AcDbEntity
  8
0
100
AcDbBlockEnd
  0
BLOCK
  5
1C
330
1B
100
AcDbEntity
 67
     1
  8
0
100
AcDbBlockBegin
  2
*Paper_Space
 70
     0
 10
0.0
 20
0.0
 30
0.0
  3
*Paper_Space
  1

  0
ENDBLK
  5
1D
330
1B
100
AcDbEntity
 67
     1
  8
0
100
AcDbBlockEnd
  0
BLOCK
  5
24
330
23
100
AcDbEntity
  8
0
100
AcDbBlockBegin
  2
*Paper_Space0
 70
     0
 10
0.0
 20
0.0
 30
0.0
  3
*Paper_Space0
  1

  0
ENDBLK
  5
25
330
23
100
AcDbEntity
  8
0
100
AcDbBlockEnd
  0
ENDSEC
  0
SECTION
  2
ENTITIES
  0
ELLIPSE
  5
41
330
1F
100
AcDbEntity
  8
Layer 1
370
    53
100
AcDbEllipse
 10
-1.0
 20
2.0
 30
0.0
 11
0.0
 21
0.3
 31
0.0
210
0.0
220
0.0
230
1.0
 40
1.0
 41
0.0
 42
6.283185307179586
  0
ELLIPSE
  5
42
330
1F
100
AcDbEntity
  8
Layer 1
370
    53
100
AcDbEllipse
 10
-1.0
 20
0.5
 30
0.0
 11
0.0
 21
0.3
 31
0.0
210
0.0
220
0.0
230
1.0
 40
1.0
 41
0.0
 42
6.283185307179586
  0
SPLINE
  5
43
330
1F
100
AcDbEntity
  8
Layer 1
 62
     5
370
    53
100
AcDbSpline
210
0.0
220
0.0
230
1.0
 70
     8
 71
     3
 72
     8
 73
     4
 74
     0
 42
0.0000000001
 43
0.0000000001
 12
1.0
 22
0.0
 32
0.0
 13
1.0
 23
0.0
 33
0.0
 40
0.0
 40
0.0
 40
0.0
 40
0.0
 40
1.0
 40
1.0
 40
1.0
 40
1.0
 10
-6.68007
 20
1.85687
 30
0.0
 10
-6.20382
 20
2.02665
 30
0.0
 10
-5.96952
 20
2.24948
 30
0.0
 10
-5.74519
 20
2.26255
 30
0.0
  0
SPLINE
  5
44
330
1F
100
AcDbEntity
  8
Layer 1
 62
     5
370
    53
100
AcDbSpline
210
0.0
220
0.0
230
1.0
 70
     8
 71
     3
 72
    16
 73
    12
 74
     0
 42
0.0000000001
 43
0.0000000001
 12
1.0
 22
0.0
 32
0.0
 13
1.0
 23
0.0
 33
0.0
 40
0.0
 40
0.0
 40
0.0
 40
0.0
 40
0.25
 40
0.25
 40
0.25
 40
0.25
 40
0.5
 40
0.5
 40
0.5
 40
0.5
 40
1.0
 40
1.0
 40
1.0
 40
1.0
 10
-3.44773
 20
1.03224
 30
0.0
 10
-3.53897
 20
1.20045
 30
0.0
 10
-3.54403
 20
1.28692
 30
0.0
 10
-3.58444
 20
1.475
 30
0.0
 10
-3.58444
 20
1.475
 30
0.0
 10
-3.62878
 20
1.6815
 30
0.0
 10
-3.77404
 20
2.00001
 30
0.0
 10
-4.00065
 20
2.19847
 30
0.0
 10
-4.00065
 20
2.19847
 30
0.0
 10
-4.04279
 20
2.23537
 30
0.0
 10
-4.10664
 20
2.28901
 30
0.0
 10
-4.13123
 20
2.33751
 30
0.0
  0
SPLINE
  5
45
330
1F
100
AcDbEntity
  8
Layer 1
 62
     5
370
    53
100
AcDbSpline
210
0.0
220
0.0
230
1.0
 70
     8
 71
     3
 72
     8
 73
     4
 74
     0
 42
0.0000000001
 43
0.0000000001
 12
1.0
 22
0.0
 32
0.0
 13
1.0
 23
0.0
 33
0.0
 40
0.0
 40
0.0
 40
0.0
 40
0.0
 40
1.0
 40
1.0
 40
1.0
 40
1.0
 10
-2.79951
 20
0.14482
 30
0.0
 10
-2.79951
 20
0.14482
 30
0.0
 10
-2.83477
 20
0.83804
 30
0.0
 10
-3.36394
 20
1.25925
 30
0.0
  0
SPLINE
  5
46
330
1F
100
AcDbEntity
  8
Layer 1
 62
     5
370
    53
100
AcDbSpline
210
0.0
220
0.0
230
1.0
 70
     8
 71
     3
 72
     8
 73
     4
 74
     0
 42
0.0000000001
 43
0.0000000001
 12
1.0
 22
0.0
 32
0.0
 13
1.0
 23
0.0
 33
0.0
 40
0.0
 40
0.0
 40
0.0
 40
0.0
 40
1.0
 40
1.0
 40
1.0
 40
1.0
 10
-3.90634
 20
0.57803
 30
0.0
 10
-3.90634
 20
0.57803
 30
0.0
 10
-5.24248
 20
1.08074
 30
0.0
 10
-5.24248
 20
1.82487
 30
0.0
  0
SPLINE
  5
47
330
1F
100
AcDbEntity
  8
Layer 1
 62
     5
370
    53
100
AcDbSpline
210
0.0
220
0.0
230
1.0
 70
     8
 71
     3
 72
    12
 73
     8
 74
     0
 42
0.0000000001
 43
0.0000000001
 12
1.0
 22
0.0
 32
0.0
 13
1.0
 23
0.0
 33
0.0
 40
0.0
 40
0.0
 40
0.0
 40
0.0
 40
0.3333333333333333
 40
0.3333333333333333
 40
0.3333333333333333
 40
0.3333333333333333
 40
1.0
 40
1.0
 40
1.0
 40
1.0
 10
-5.54014
 20
0.78969
 30
0.0
 10
-5.60156
 20
0.84414
 30
0.0
 10
-5.66951
 20
0.94635
 30
0.0
 10
-5.77827
 20
0.94845
 30
0.0
 10
-5.77827
 20
0.94845
 30
0.0
 10
-6.12223
 20
0.95506
 30
0.0
 10
-6.27436
 20
0.88845
 30
0.0
 10
-6.59186
 20
1.00136
 30
0.0
  0
SPLINE
  5
48
330
1F
100
AcDbEntity
  8
Layer 1
 62
     5
370
    53
100
AcDbSpline
210
0.0
220
0.0
230
1.0
 70
     8
 71
     3
 72
     8
 73
     4
 74
     0
 42
0.0000000001
 43
0.0000000001
 12
1.0
 22
0.0
 32
0.0
 13
1.0
 23
0.0
 33
0.0
 40
0.0
 40
0.0
 40
0.0
 40
0.0
 40
1.0
 40
1.0
 40
1.0
 40
1.0
 10
-7.12102
 20
1.62313
 30
0.0
 10
-7.3128
 20
1.67532
 30
0.0
 10
-7.42997
 20
1.79382
 30
0.0
 10
-7.41868
 20
2.02662
 30
0.0
  0
SPLINE
  5
49
330
1F
100
AcDbEntity
  8
Layer 1
 62
     5
370
    53
100
AcDbSpline
210
0.0
220
0.0
230
1.0
 70
     8
 71
     3
 72
    12
 73
     8
 74
     0
 42
0.0000000001
 43
0.0000000001
 12
1.0
 22
0.0
 32
0.0
 13
1.0
 23
0.0
 33
0.0
 40
0.0
 40
0.0
 40
0.0
 40
0.0
 40
0.3333333333333333
 40
0.3333333333333333
 40
0.3333333333333333
 40
0.3333333333333333
 40
1.0
 40
1.0
 40
1.0
 40
1.0
 10
-4.01217
 20
4.79152
 30
0.0
 10
-4.07596
 20
4.62268
 30
0.0
 10
-4.38918
 20
4.56507
 30
0.0
 10
-4.55198
 20
4.58694
 30
0.0
 10
-4.55198
 20
4.58694
 30
0.0
 10
-4.54534
 20
4.58152
 30
0.0
 10
-4.55128
 20
4.58004
 30
0.0
 10
-4.55457
 20
4.57323
 30
0.0
  0
SPLINE
  5
4A
330
1F
100
AcDbEntity
  8
Layer 1
 62
     5
370
    53
100
AcDbSpline
210
0.0
220
0.0
230
1.0
 70
     8
 71
     3
 72
    16
 73
    12
 74
     0
 42
0.0000000001
 43
0.0000000001
 12
1.0
 22
0.0
 32
0.0
 13
1.0
 23
0.0
 33
0.0
 40
0.0
 40
0.0
 40
0.0
 40
0.0
 40
0.25
 40
0.25
 40
0.25
 40
0.25
 40
0.5
 40
0.5
 40
0.5
 40
0.5
 40
1.0
 40
1.0
 40
1.0
 40
1.0
 10
-3.82035
 20
4.58646
 30
0.0
 10
-3.84805
 20
4.62835
 30
0.0
 10
-3.80335
 20
4.66951
 30
0.0
 10
-3.8103
 20
4.70802
 30
0.0
 10
-3.8103
 20
4.70802
 30
0.0
 10
-3.81684
 20
4.74419
 30
0.0
 10
-3.85763
 20
4.76631
 30
0.0
 10
-3.88254
 20
4.79724
 30
0.0
 10
-3.88254
 20
4.79724
 30
0.0
 10
-3.93985
 20
4.86838
 30
0.0
 10
-3.97057
 20
4.95834
 30
0.0
 10
-3.97398
 20
5.04928
 30
0.0
  0
SPLINE
  5
4B
330
1F
100
AcDbEntity
  8
Layer 1
 62
     5
370
    53
100
AcDbSpline
210
0.0
220
0.0
230
1.0
 70
     8
 71
     3
 72
    16
 73
    12
 74
     0
 42
0.0000000001
 43
0.0000000001
 12
1.0
 22
0.0
 32
0.0
 13
1.0
 23
0.0
 33
0.0
 40
0.0
 40
0.0
 40
0.0
 40
0.0
 40
0.25
 40
0.25
 40
0.25
 40
0.25
 40
0.5
 40
0.5
 40
0.5
 40
0.5
 40
1.0
 40
1.0
 40
1.0
 40
1.0
 10
-3.50947
 20
4.77167
 30
0.0
 10
-3.5384
 20
4.70227
 30
0.0
 10
-3.62279
 20
4.44528
 30
0.0
 10
-3.71307
 20
4.43417
 30
0.0
 10
-3.71307
 20
4.43417
 30
0.0
 10
-3.77105
 20
4.42705
 30
0.0
 10
-3.8444
 20
4.45957
 30
0.0
 10
-3.88425
 20
4.49749
 30
0.0
 10
-3.88425
 20
4.49749
 30
0.0
 10
-3.94574
 20
4.55604
 30
0.0
 10
-4.0384
 20
4.81252
 30
0.0
 10
-3.87327
 20
4.77829
 30
0.0
  0
SPLINE
  5
4C
330
1F
100
AcDbEntity
  8
Layer 1
 62
     5
370
    53
100
AcDbSpline
210
0.0
220
0.0
230
1.0
 70
     8
 71
     3
 72
    24
 73
    20
 74
     0
 42
0.0000000001
 43
0.0000000001
 12
1.0
 22
0.0
 32
0.0
 13
1.0
 23
0.0
 33
0.0
 40
0.0
 40
0.0
 40
0.0
 40
0.0
 40
0.1666666666666667
 40
0.1666666666666667
 40
0.1666666666666667
 40
0.1666666666666667
 40
0.3333333333333333
 40
0.3333333333333333
 40
0.3333333333333333
 40
0.3333333333333333
 40
0.5
 40
0.5
 40
0.5
 40
0.5
 40
0.6666666666666666
 40
0.6666666666666666
 40
0.6666666666666666
 40
0.6666666666666666
 40
1.0
 40
1.0
 40
1.0
 40
1.0
 10
-3.31102
 20
4.54016
 30
0.0
 10
-3.31764
 20
4.54619
 30
0.0
 10
-3.3613
 20
4.48481
 30
0.0
 10
-3.3625
 20
4.49714
 30
0.0
 10
-3.3625
 20
4.49714
 30
0.0
 10
-3.32601
 20
4.54906
 30
0.0
 10
-3.22398
 20
4.70683
 30
0.0
 10
-3.22498
 20
4.77523
 30
0.0
 10
-3.22498
 20
4.77523
 30
0.0
 10
-3.2262
 20
4.85785
 30
0.0
 10
-3.29702
 20
4.97604
 30
0.0
 10
-3.33733
 20
5.04806
 30
0.0
 10
-3.33733
 20
5.04806
 30
0.0
 10
-3.36849
 20
5.10376
 30
0.0
 10
-3.4227
 20
5.15455
 30
0.0
 10
-3.44861
 20
5.20972
 30
0.0
 10
-3.44861
 20
5.20972
 30
0.0
 10
-3.47957
 20
5.27563
 30
0.0
 10
-3.4567
 20
5.35971
 30
0.0
 10
-3.54915
 20
5.38683
 30
0.0
  0
SPLINE
  5
4D
330
1F
100
AcDbEntity
  8
Layer 1
 62
     5
370
    53
100
AcDbSpline
210
0.0
220
0.0
230
1.0
 70
     8
 71
     3
 72
    16
 73
    12
 74
     0
 42
0.0000000001
 43
0.0000000001
 12
1.0
 22
0.0
 32
0.0
 13
1.0
 23
0.0
 33
0.0
 40
0.0
 40
0.0
 40
0.0
 40
0.0
 40
0.25
 40
0.25
 40
0.25
 40
0.25
 40
0.5
 40
0.5
 40
0.5
 40
0.5
 40
1.0
 40
1.0
 40
1.0
 40
1.0
 10
-3.09274
 20
4.55339
 30
0.0
 10
-3.11109
 20
4.57969
 30
0.0
 10
-3.02365
 20
4.68799
 30
0.0
 10
-3.01319
 20
4.7386
 30
0.0
 10
-3.01319
 20
4.7386
 30
0.0
 10
-2.99701
 20
4.81678
 30
0.0
 10
-3.06719
 20
4.89626
 30
0.0
 10
-3.10259
 20
4.96342
 30
0.0
 10
-3.10259
 20
4.96342
 30
0.0
 10
-3.13124
 20
5.01779
 30
0.0
 10
-3.23829
 20
5.17297
 30
0.0
 10
-3.29268
 20
5.2616
 30
0.0
  0
SPLINE
  5
4E
330
1F
100
AcDbEntity
  8
Layer 1
 62
     5
370
    53
100
AcDbSpline
210
0.0
220
0.0
230
1.0
 70
     8
 71
     3
 72
    20
 73
    16
 74
     0
 42
0.0000000001
 43
0.0000000001
 12
1.0
 22
0.0
 32
0.0
 13
1.0
 23
0.0
 33
0.0
 40
0.0
 40
0.0
 40
0.0
 40
0.0
 40
0.2
 40
0.2
 40
0.2
 40
0.2
 40
0.4
 40
0.4
 40
0.4
 40
0.4
 40
0.6
 40
0.6
 40
0.6
 40
0.6
 40
1.0
 40
1.0
 40
1.0
 40
1.0
 10
-3.50947
 20
4.77167
 30
0.0
 10
-3.50947
 20
4.775
 30
0.0
 10
-3.49104
 20
4.84975
 30
0.0
 10
-3.49582
 20
4.87
 30
0.0
 10
-3.49582
 20
4.87
 30
0.0
 10
-3.50494
 20
4.9087
 30
0.0
 10
-3.55256
 20
4.94389
 30
0.0
 10
-3.57427
 20
4.97649
 30
0.0
 10
-3.57427
 20
4.97649
 30
0.0
 10
-3.61496
 20
5.03755
 30
0.0
 10
-3.66056
 20
5.09888
 30
0.0
 10
-3.69778
 20
5.16175
 30
0.0
 10
-3.69778
 20
5.16175
 30
0.0
 10
-3.71681
 20
5.19392
 30
0.0
 10
-3.76324
 20
5.39127
 30
0.0
 10
-3.78727
 20
5.36698
 30
0.0
  0
SPLINE
  5
4F
330
1F
100
AcDbEntity
  8
Layer 1
 62
     5
370
    53
100
AcDbSpline
210
0.0
220
0.0
230
1.0
 70
     8
 71
     3
 72
    12
 73
     8
 74
     0
 42
0.0000000001
 43
0.0000000001
 12
1.0
 22
0.0
 32
0.0
 13
1.0
 23
0.0
 33
0.0
 40
0.0
 40
0.0
 40
0.0
 40
0.0
 40
0.3333333333333333
 40
0.3333333333333333
 40
0.3333333333333333
 40
0.3333333333333333
 40
1.0
 40
1.0
 40
1.0
 40
1.0
 10
-3.45655
 20
4.15651
 30
0.0
 10
-3.49786
 20
4.25635
 30
0.0
 10
-3.51192
 20
4.40526
 30
0.0
 10
-3.39751
 20
4.46245
 30
0.0
 10
-3.39751
 20
4.46245
 30
0.0
 10
-3.35694
 20
4.48275
 30
0.0
 10
-3.22498
 20
4.48944
 30
0.0
 10
-3.16328
 20
4.43319
 30
0.0
  0
SPLINE
  5
50
330
1F
100
AcDbEntity
  8
Layer 1
 62
     5
370
    53
100
AcDbSpline
210
0.0
220
0.0
230
1.0
 70
     8
 71
     3
 72
     8
 73
     4
 74
     0
 42
0.0000000001
 43
0.0000000001
 12
1.0
 22
0.0
 32
0.0
 13
1.0
 23
0.0
 33
0.0
 40
0.0
 40
0.0
 40
0.0
 40
0.0
 40
1.0
 40
1.0
 40
1.0
 40
1.0
 10
-3.46978
 20
4.40125
 30
0.0
 10
-3.54148
 20
4.40369
 30
0.0
 10
-3.59426
 20
4.42208
 30
0.0
 10
-3.65364
 20
4.47068
 30
0.0
  0
SPLINE
  5
51
330
1F
100
AcDbEntity
  8
Layer 1
 62
     5
370
    53
100
AcDbSpline
210
0.0
220
0.0
230
1.0
 70
     8
 71
     3
 72
     8
 73
     4
 74
     0
 42
0.0000000001
 43
0.0000000001
 12
1.0
 22
0.0
 32
0.0
 13
1.0
 23
0.0
 33
0.0
 40
0.0
 40
0.0
 40
0.0
 40
0.0
 40
1.0
 40
1.0
 40
1.0
 40
1.0
 10
-3.91295
 20
4.85104
 30
0.0
 10
-4.01367
 20
4.76767
 30
0.0
 10
-4.15878
 20
4.9006
 30
0.0
 10
-4.19769
 20
4.98889
 30
0.0
  0
SPLINE
  5
52
330
1F
100
AcDbEntity
  8
Layer 1
 62
     5
370
    53
100
AcDbSpline
210
0.0
220
0.0
230
1.0
 70
    11
 71
     3
 72
    20
 73
    16
 74
     0
 42
0.0000000001
 43
0.0000000001
 12
1.0
 22
0.0
 32
0.0
 13
1.0
 23
0.0
 33
0.0
 40
0.0
 40
0.0
 40
0.0
 40
0.0
 40
0.2
 40
0.2
 40
0.2
 40
0.2
 40
0.4
 40
0.4
 40
0.4
 40
0.4
 40
0.6
 40
0.6
 40
0.6
 40
0.6
 40
1.0
 40
1.0
 40
1.0
 40
1.0
 10
-3.20188
 20
4.30204
 30
0.0
 10
-3.2447
 20
4.24328
 30
0.0
 10
-3.28276
 20
4.21663
 30
0.0
 10
-3.36327
 20
4.21967
 30
0.0
 10
-3.36327
 20
4.21967
 30
0.0
 10
-3.33901
 20
4.26741
 30
0.0
 10
-3.32141
 20
4.31577
 30
0.0
 10
-3.30451
 20
4.36636
 30
0.0
 10
-3.30451
 20
4.36636
 30
0.0
 10
-3.29728
 20
4.38802
 30
0.0
 10
-3.29552
 20
4.4275
 30
0.0
 10
-3.2692
 20
4.43076
 30
0.0
 10
-3.2692
 20
4.43076
 30
0.0
 10
-3.2093
 20
4.43816
 30
0.0
 10
-3.18651
 20
4.33183
 30
0.0
 10
-3.20188
 20
4.30204
 30
0.0
  0
SPLINE
  5
53
330
1F
100
AcDbEntity
  8
Layer 1
 62
     5
370
    53
100
AcDbSpline
210
0.0
220
0.0
230
1.0
 70
     8
 71
     3
 72
     8
 73
     4
 74
     0
 42
0.0000000001
 43
0.0000000001
 12
1.0
 22
0.0
 32
0.0
 13
1.0
 23
0.0
 33
0.0
 40
0.0
 40
0.0
 40
0.0
 40
0.0
 40
1.0
 40
1.0
 40
1.0
 40
1.0
 10
-4.80127
 20
4.47068
 30
0.0
 10
-4.99353
 20
4.20443
 30
0.0
 10
-5.21164
 20
3.94326
 30
0.0
 10
-5.45415
 20
3.68688
 30
0.0
  0
SPLINE
  5
54
330
1F
100
AcDbEntity
  8
Layer 1
 62
     5
370
    53
100
AcDbSpline
210
0.0
220
0.0
230
1.0
 70
     8
 71
     3
 72
     8
 73
     4
 74
     0
 42
0.0000000001
 43
0.0000000001
 12
1.0
 22
0.0
 32
0.0
 13
1.0
 23
0.0
 33
0.0
 40
0.0
 40
0.0
 40
0.0
 40
0.0
 40
1.0
 40
1.0
 40
1.0
 40
1.0
 10
-5.57755
 20
2.57207
 30
0.0
 10
-5.57461
 20
2.66154
 30
0.0
 10
-5.57655
 20
2.74609
 30
0.0
 10
-5.58644
 20
2.82256
 30
0.0
  0
SPLINE
  5
55
330
1F
100
AcDbEntity
  8
Layer 1
370
    53
100
AcDbSpline
210
0.0
220
0.0
230
1.0
 70
    11
 71
     3
 72
   200
 73
   196
 74
     0
 42
0.0000000001
 43
0.0000000001
 12
1.0
 22
0.0
 32
0.0
 13
1.0
 23
0.0
 33
0.0
 40
0.0
 40
0.0
 40
0.0
 40
0.0
 40
0.02
 40
0.02
 40
0.02
 40
0.02
 40
0.04
 40
0.04
 40
0.04
 40
0.04
 40
0.06
 40
0.06
 40
0.06
 40
0.06
 40
0.08
 40
0.08
 40
0.08
 40
0.08
 40
0.1
 40
0.1
 40
0.1
 40
0.1
 40
0.12
 40
0.12
 40
0.12
 40
0.12
 40
0.14
 40
0.14
 40
0.14
 40
0.14
 40
0.16
 40
0.16
 40
0.16
 40
0.16
 40
0.18
 40
0.18
 40
0.18
 40
0.18
 40
0.2
 40
0.2
 40
0.2
 40
0.2
 40
0.22
 40
0.22
 40
0.22
 40
0.22
 40
0.24
 40
0.24
 40
0.24
 40
0.24
 40
0.26
 40
0.26
 40
0.26
 40
0.26
 40
0.28
 40
0.28
 40
0.28
 40
0.28
 40
0.3
 40
0.3
 40
0.3
 40
0.3
 40
0.32
 40
0.32
 40
0.32
 40
0.32
 40
0.34
 40
0.34
 40
0.34
 40
0.34
 40
0.36
 40
0.36
 40
0.36
 40
0.36
 40
0.38
 40
0.38
 40
0.38
 40
0.38
 40
0.4
 40
0.4
 40
0.4
 40
0.4
 40
0.42
 40
0.42
 40
0.42
 40
0.42
 40
0.44
 40
0.44
 40
0.44
 40
0.44
 40
0.46
 40
0.46
 40
0.46
 40
0.46
 40
0.48
 40
0.48
 40
0.48
 40
0.48
 40
0.5
 40
0.5
 40
0.5
 40
0.5
 40
0.52
 40
0.52
 40
0.52
 40
0.52
 40
0.54
 40
0.54
 40
0.54
 40
0.54
 40
0.56
 40
0.56
 40
0.56
 40
0.56
 40
0.58
 40
0.58
 40
0.58
 40
0.58
 40
0.6
 40
0.6
 40
0.6
 40
0.6
 40
0.62
 40
0.62
 40
0.62
 40
0.62
 40
0.64
 40
0.64
 40
0.64
 40
0.64
 40
0.66
 40
0.66
 40
0.66
 40
0.66
 40
0.68
 40
0.68
 40
0.68
 40
0.68
 40
0.7
 40
0.7
 40
0.7
 40
0.7
 40
0.72
 40
0.72
 40
0.72
 40
0.72
 40
0.74
 40
0.74
 40
0.74
 40
0.74
 40
0.76
 40
0.76
 40
0.76
 40
0.76
 40
0.78
 40
0.78
 40
0.78
 40
0.78
 40
0.8
 40
0.8
 40
0.8
 40
0.8
 40
0.82
 40
0.82
 40
0.82
 40
0.82
 40
0.84
 40
0.84
 40
0.84
 40
0.84
 40
0.86
 40
0.86
 40
0.86
 40
0.86
 40
0.88
 40
0.88
 40
0.88
 40
0.88
 40
0.9
 40
0.9
 40
0.9
 40
0.9
 40
0.92
 40
0.92
 40
0.92
 40
0.92
 40
0.94
 40
0.94
 40
0.94
 40
0.94
 40
0.96
 40
0.96
 40
0.96
 40
0.96
 40
1.0
 40
1.0
 40
1.0
 40
1.0
 10
-1.7
 20
0.82452
 30
0.0
 10
-1.7
 20
0.82452
 30
0.0
 10
-1.86469
 20
0.82452
 30
0.0
 10
-1.86469
 20
0.82452
 30
0.0
 10
-1.86469
 20
0.82452
 30
0.0
 10
-1.99254
 20
0.41299
 30
0.0
 10
-2.23529
 20
0.03917
 30
0.0
 10
-2.47758
 20
-0.04371
 30
0.0
 10
-2.47758
 20
-0.04371
 30
0.0
 10
-2.9803
 20
-0.2157
 30
0.0
 10
-3.17873
 20
0.23541
 30
0.0
 10
-3.17873
 20
0.23541
 30
0.0
 10
-3.17873
 20
0.23541
 30
0.0
 10
-3.17873
 20
0.23541
 30
0.0
 10
-3.29779
 20
0.35316
 30
0.0
 10
-3.41686
 20
0.33993
 30
0.0
 10
-3.41686
 20
0.33993
 30
0.0
 10
-3.53592
 20
0.3267
 30
0.0
 10
-4.03864
 20
0.19146
 30
0.0
 10
-4.22384
 20
0.2298
 30
0.0
 10
-4.22384
 20
0.2298
 30
0.0
 10
-4.22384
 20
0.2298
 30
0.0
 10
-4.81915
 20
0.11769
 30
0.0
 10
-5.24248
 20
0.23541
 30
0.0
 10
-5.24248
 20
0.23541
 30
0.0
 10
-5.65977
 20
0.35145
 30
0.0
 10
-6.32123
 20
0.69921
 30
0.0
 10
-6.56812
 20
0.77931
 30
0.0
 10
-6.56812
 20
0.77931
 30
0.0
 10
-6.82629
 20
0.82106
 30
0.0
 10
-7.01602
 20
0.90852
 30
0.0
 10
-7.13425
 20
0.97491
 30
0.0
 10
-7.13425
 20
0.97491
 30
0.0
 10
-7.50615
 20
1.1837
 30
0.0
 10
-7.75009
 20
1.50927
 30
0.0
 10
-7.76926
 20
1.72896
 30
0.0
 10
-7.76926
 20
1.72896
 30
0.0
 10
-7.77184
 20
1.75853
 30
0.0
 10
-7.7784
 20
1.83363
 30
0.0
 10
-7.7428
 20
1.91418
 30
0.0
 10
-7.7428
 20
1.91418
 30
0.0
 10
-7.70006
 20
2.01086
 30
0.0
 10
-7.58829
 20
2.03954
 30
0.0
 10
-7.58404
 20
2.08615
 30
0.0
 10
-7.58404
 20
2.08615
 30
0.0
 10
-7.57743
 20
2.15892
 30
0.0
 10
-7.59727
 20
2.20566
 30
0.0
 10
-7.52452
 20
2.33751
 30
0.0
 10
-7.52452
 20
2.33751
 30
0.0
 10
-7.47917
 20
2.41972
 30
0.0
 10
-7.36512
 20
2.49882
 30
0.0
 10
-7.34592
 20
2.5624
 30
0.0
 10
-7.34592
 20
2.5624
 30
0.0
 10
-7.20079
 20
3.04331
 30
0.0
 10
-6.48003
 20
3.69315
 30
0.0
 10
-6.20821
 20
3.93825
 30
0.0
 10
-6.20821
 20
3.93825
 30
0.0
 10
-5.81689
 20
4.29106
 30
0.0
 10
-5.62256
 20
4.37869
 30
0.0
 10
-5.24248
 20
4.79814
 30
0.0
 10
-5.24248
 20
4.79814
 30
0.0
 10
-5.10536
 20
4.94945
 30
0.0
 10
-5.0926
 20
4.98007
 30
0.0
 10
-5.00436
 20
5.04949
 30
0.0
 10
-5.00436
 20
5.04949
 30
0.0
 10
-4.75621
 20
5.24475
 30
0.0
 10
-4.53834
 20
5.25361
 30
0.0
 10
-3.90634
 20
5.47283
 30
0.0
 10
-3.90634
 20
5.47283
 30
0.0
 10
-3.82593
 20
5.50071
 30
0.0
 10
-3.76095
 20
5.52431
 30
0.0
 10
-3.72113
 20
5.53897
 30
0.0
 10
-3.72113
 20
5.53897
 30
0.0
 10
-3.76935
 20
5.55326
 30
0.0
 10
-3.62535
 20
5.50651
 30
0.0
 10
-3.57561
 20
5.49928
 30
0.0
 10
-3.57561
 20
5.49928
 30
0.0
 10
-3.49556
 20
5.48767
 30
0.0
 10
-3.48362
 20
5.51055
 30
0.0
 10
-3.43009
 20
5.49928
 30
0.0
 10
-3.43009
 20
5.49928
 30
0.0
 10
-3.3642
 20
5.48542
 30
0.0
 10
-3.32227
 20
5.43814
 30
0.0
 10
-3.28456
 20
5.39345
 30
0.0
 10
-3.28456
 20
5.39345
 30
0.0
 10
-3.07967
 20
5.15064
 30
0.0
 10
-2.97652
 20
5.02516
 30
0.0
 10
-2.94061
 20
4.8246
 30
0.0
 10
-2.94061
 20
4.8246
 30
0.0
 10
-2.92306
 20
4.72657
 30
0.0
 10
-2.93588
 20
4.69082
 30
0.0
 10
-2.94061
 20
4.67908
 30
0.0
 10
-2.94061
 20
4.67908
 30
0.0
 10
-2.98893
 20
4.55885
 30
0.0
 10
-3.14944
 20
4.56075
 30
0.0
 10
-3.1655
 20
4.46741
 30
0.0
 10
-3.1655
 20
4.46741
 30
0.0
 10
-3.17644
 20
4.40394
 30
0.0
 10
-3.10564
 20
4.38327
 30
0.0
 10
-3.11259
 20
4.29544
 30
0.0
 10
-3.11259
 20
4.29544
 30
0.0
 10
-3.11716
 20
4.23739
 30
0.0
 10
-3.15339
 20
4.17943
 30
0.0
 10
-3.20519
 20
4.14991
 30
0.0
 10
-3.20519
 20
4.14991
 30
0.0
 10
-3.21674
 20
4.14332
 30
0.0
 10
-3.26219
 20
4.11927
 30
0.0
 10
-3.36394
 20
4.13668
 30
0.0
 10
-3.36394
 20
4.13668
 30
0.0
 10
-3.49624
 20
4.1593
 30
0.0
 10
-3.523
 20
4.21765
 30
0.0
 10
-3.6153
 20
4.24252
 30
0.0
 10
-3.6153
 20
4.24252
 30
0.0
 10
-3.75185
 20
4.2793
 30
0.0
 10
-3.77593
 20
4.17385
 30
0.0
 10
-3.94603
 20
4.17637
 30
0.0
 10
-3.94603
 20
4.17637
 30
0.0
 10
-4.03956
 20
4.17774
 30
0.0
 10
-4.05054
 20
4.2099
 30
0.0
 10
-4.42228
 20
4.36158
 30
0.0
 10
-4.42228
 20
4.36158
 30
0.0
 10
-4.50788
 20
4.3965
 30
0.0
 10
-4.56674
 20
4.37044
 30
0.0
 10
-4.58103
 20
4.36158
 30
0.0
 10
-4.58103
 20
4.36158
 30
0.0
 10
-4.72427
 20
4.27273
 30
0.0
 10
-4.77285
 20
4.17637
 30
0.0
 10
-5.08373
 20
3.84564
 30
0.0
 10
-5.08373
 20
3.84564
 30
0.0
 10
-5.35126
 20
3.56102
 30
0.0
 10
-5.3908
 20
3.23532
 30
0.0
 10
-5.40124
 20
3.21064
 30
0.0
 10
-5.40124
 20
3.21064
 30
0.0
 10
-5.49544
 20
2.98725
 30
0.0
 10
-5.54014
 20
2.4345
 30
0.0
 10
-5.75181
 20
2.26695
 30
0.0
 10
-5.75181
 20
2.26695
 30
0.0
 10
-5.605
 20
2.27072
 30
0.0
 10
-5.60257
 20
2.20571
 30
0.0
 10
-5.43074
 20
2.25149
 30
0.0
 10
-5.43074
 20
2.25149
 30
0.0
 10
-5.10663
 20
2.33787
 30
0.0
 10
-5.26233
 20
2.54259
 30
0.0
 10
-4.73977
 20
2.57124
 30
0.0
 10
-4.73977
 20
2.57124
 30
0.0
 10
-4.4406
 20
2.58762
 30
0.0
 10
-4.23025
 20
2.35779
 30
0.0
 10
-4.01656
 20
2.2802
 30
0.0
 10
-4.01656
 20
2.2802
 30
0.0
 10
-3.73327
 20
2.17731
 30
0.0
 10
-2.7916
 20
2.98326
 30
0.0
 10
-1.91757
 20
1.89213
 30
0.0
 10
-1.91757
 20
1.89213
 30
0.0
 10
-1.89489
 20
1.86382
 30
0.0
 10
-1.87523
 20
1.83276
 30
0.0
 10
-1.85818
 20
1.79953
 30
0.0
 10
-1.85818
 20
1.79953
 30
0.0
 10
-1.85818
 20
1.79953
 30
0.0
 10
-1.7
 20
1.79953
 30
0.0
 10
-1.7
 20
1.79953
 30
0.0
 10
-1.7
 20
1.79953
 30
0.0
 10
-1.7
 20
1.79953
 30
0.0
 10
-1.7
 20
2.2
 30
0.0
 10
-1.7
 20
2.2
 30
0.0
 10
-1.7
 20
2.2
 30
0.0
 10
-1.7
 20
2.47614
 30
0.0
 10
-1.47614
 20
2.7
 30
0.0
 10
-1.2
 20
2.7
 30
0.0
 10
-1.2
 20
2.7
 30
0.0
 10
-1.2
 20
2.7
 30
0.0
 10
-0.8
 20
2.7
 30
0.0
 10
-0.8
 20
2.7
 30
0.0
 10
-0.8
 20
2.7
 30
0.0
 10
-0.52386
 20
2.7
 30
0.0
 10
-0.3
 20
2.47614
 30
0.0
 10
-0.3
 20
2.2
 30
0.0
 10
-0.3
 20
2.2
 30
0.0
 10
-0.3
 20
2.2
 30
0.0
 10
-0.3
 20
0.3
 30
0.0
 10
-0.3
 20
0.3
 30
0.0
 10
-0.3
 20
0.3
 30
0.0
 10
-0.3
 20
0.02386
 30
0.0
 10
-0.52386
 20
-0.2
 30
0.0
 10
-0.8
 20
-0.2
 30
0.0
 10
-0.8
 20
-0.2
 30
0.0
 10
-0.8
 20
-0.2
 30
0.0
 10
-1.2
 20
-0.2
 30
0.0
 10
-1.2
 20
-0.2
 30
0.0
 10
-1.2
 20
-0.2
 30
0.0
 10
-1.47614
 20
-0.2
 30
0.0
 10
-1.7
 20
0.02386
 30
0.0
 10
-1.7
 20
0.3
 30
0.0
 10
-1.7
 20
0.3
 30
0.0
 10
-1.7
 20
0.3
 30
0.0
 10
-1.7
 20
0.82452
 30
0.0
 10
-1.7
 20
0.82452
 30
0.0
  0
ELLIPSE
  5
56
330
1F
100
AcDbEntity
  8
Layer 1
370
    53
100
AcDbEllipse
 10
0.5
 20
2.0
 30
0.0
 11
0.0
 21
0.3
 31
0.0
210
0.0
220
0.0
230
1.0
 40
1.0
 41
0.0
 42
6.283185307179586
  0
ELLIPSE
  5
57
330
1F
100
AcDbEntity
  8
Layer 1
370
    53
100
AcDbEllipse
 10
0.5
 20
0.5
 30
0.0
 11
0.0
 21
0.3
 31
0.0
210
0.0
220
0.0
230
1.0
 40
1.0
 41
0.0
 42
6.283185307179586
  0
SPLINE
  5
58
330
1F
100
AcDbEntity
  8
Layer 1
 62
     5
370
    53
100
AcDbSpline
210
0.0
220
0.0
230
1.0
 70
     8
 71
     3
 72
     8
 73
     4
 74
     0
 42
0.0000000001
 43
0.0000000001
 12
1.0
 22
0.0
 32
0.0
 13
1.0
 23
0.0
 33
0.0
 40
0.0
 40
0.0
 40
0.0
 40
0.0
 40
1.0
 40
1.0
 40
1.0
 40
1.0
 10
6.18007
 20
1.85687
 30
0.0
 10
5.70382
 20
2.02665
 30
0.0
 10
5.46952
 20
2.24948
 30
0.0
 10
5.24519
 20
2.26255
 30
0.0
  0
SPLINE
  5
59
330
1F
100
AcDbEntity
  8
Layer 1
 62
     5
370
    53
100
AcDbSpline
210
0.0
220
0.0
230
1.0
 70
     8
 71
     3
 72
    16
 73
    12
 74
     0
 42
0.0000000001
 43
0.0000000001
 12
1.0
 22
0.0
 32
0.0
 13
1.0
 23
0.0
 33
0.0
 40
0.0
 40
0.0
 40
0.0
 40
0.0
 40
0.25
 40
0.25
 40
0.25
 40
0.25
 40
0.5
 40
0.5
 40
0.5
 40
0.5
 40
1.0
 40
1.0
 40
1.0
 40
1.0
 10
2.94773
 20
1.03224
 30
0.0
 10
3.03897
 20
1.20045
 30
0.0
 10
3.04403
 20
1.28692
 30
0.0
 10
3.08444
 20
1.475
 30
0.0
 10
3.08444
 20
1.475
 30
0.0
 10
3.12878
 20
1.6815
 30
0.0
 10
3.27404
 20
2.00001
 30
0.0
 10
3.50065
 20
2.19847
 30
0.0
 10
3.50065
 20
2.19847
 30
0.0
 10
3.54279
 20
2.23537
 30
0.0
 10
3.60664
 20
2.28901
 30
0.0
 10
3.63123
 20
2.33751
 30
0.0
  0
SPLINE
  5
5A
330
1F
100
AcDbEntity
  8
Layer 1
 62
     5
370
    53
100
AcDbSpline
210
0.0
220
0.0
230
1.0
 70
     8
 71
     3
 72
     8
 73
     4
 74
     0
 42
0.0000000001
 43
0.0000000001
 12
1.0
 22
0.0
 32
0.0
 13
1.0
 23
0.0
 33
0.0
 40
0.0
 40
0.0
 40
0.0
 40
0.0
 40
1.0
 40
1.0
 40
1.0
 40
1.0
 10
2.29951
 20
0.14482
 30
0.0
 10
2.29951
 20
0.14482
 30
0.0
 10
2.33477
 20
0.83804
 30
0.0
 10
2.86394
 20
1.25925
 30
0.0
  0
SPLINE
  5
5B
330
1F
100
AcDbEntity
  8
Layer 1
 62
     5
370
    53
100
AcDbSpline
210
0.0
220
0.0
230
1.0
 70
     8
 71
     3
 72
     8
 73
     4
 74
     0
 42
0.0000000001
 43
0.0000000001
 12
1.0
 22
0.0
 32
0.0
 13
1.0
 23
0.0
 33
0.0
 40
0.0
 40
0.0
 40
0.0
 40
0.0
 40
1.0
 40
1.0
 40
1.0
 40
1.0
 10
3.40634
 20
0.57803
 30
0.0
 10
3.40634
 20
0.57803
 30
0.0
 10
4.74248
 20
1.08074
 30
0.0
 10
4.74248
 20
1.82487
 30
0.0
  0
SPLINE
  5
5C
330
1F
100
AcDbEntity
  8
Layer 1
 62
     5
370
    53
100
AcDbSpline
210
0.0
220
0.0
230
1.0
 70
     8
 71
     3
 72
    12
 73
     8
 74
     0
 42
0.0000000001
 43
0.0000000001
 12
1.0
 22
0.0
 32
0.0
 13
1.0
 23
0.0
 33
0.0
 40
0.0
 40
0.0
 40
0.0
 40
0.0
 40
0.3333333333333333
 40
0.3333333333333333
 40
0.3333333333333333
 40
0.3333333333333333
 40
1.0
 40
1.0
 40
1.0
 40
1.0
 10
5.04014
 20
0.78969
 30
0.0
 10
5.10156
 20
0.84414
 30
0.0
 10
5.16951
 20
0.94635
 30
0.0
 10
5.27827
 20
0.94845
 30
0.0
 10
5.27827
 20
0.94845
 30
0.0
 10
5.62223
 20
0.95506
 30
0.0
 10
5.77436
 20
0.88845
 30
0.0
 10
6.09186
 20
1.00136
 30
0.0
  0
SPLINE
  5
5D
330
1F
100
AcDbEntity
  8
Layer 1
 62
     5
370
    53
100
AcDbSpline
210
0.0
220
0.0
230
1.0
 70
     8
 71
     3
 72
     8
 73
     4
 74
     0
 42
0.0000000001
 43
0.0000000001
 12
1.0
 22
0.0
 32
0.0
 13
1.0
 23
0.0
 33
0.0
 40
0.0
 40
0.0
 40
0.0
 40
0.0
 40
1.0
 40
1.0
 40
1.0
 40
1.0
 10
6.62102
 20
1.62313
 30
0.0
 10
6.8128
 20
1.67532
 30
0.0
 10
6.92997
 20
1.79382
 30
0.0
 10
6.91868
 20
2.02662
 30
0.0
  0
SPLINE
  5
5E
330
1F
100
AcDbEntity
  8
Layer 1
 62
     5
370
    53
100
AcDbSpline
210
0.0
220
0.0
230
1.0
 70
     8
 71
     3
 72
    12
 73
     8
 74
     0
 42
0.0000000001
 43
0.0000000001
 12
1.0
 22
0.0
 32
0.0
 13
1.0
 23
0.0
 33
0.0
 40
0.0
 40
0.0
 40
0.0
 40
0.0
 40
0.3333333333333333
 40
0.3333333333333333
 40
0.3333333333333333
 40
0.3333333333333333
 40
1.0
 40
1.0
 40
1.0
 40
1.0
 10
3.51217
 20
4.79152
 30
0.0
 10
3.57596
 20
4.62268
 30
0.0
 10
3.88918
 20
4.56507
 30
0.0
 10
4.05198
 20
4.58694
 30
0.0
 10
4.05198
 20
4.58694
 30
0.0
 10
4.04534
 20
4.58152
 30
0.0
 10
4.05128
 20
4.58004
 30
0.0
 10
4.05457
 20
4.57323
 30
0.0
  0
SPLINE
  5
5F
330
1F
100
AcDbEntity
  8
Layer 1
 62
     5
370
    53
100
AcDbSpline
210
0.0
220
0.0
230
1.0
 70
     8
 71
     3
 72
    16
 73
    12
 74
     0
 42
0.0000000001
 43
0.0000000001
 12
1.0
 22
0.0
 32
0.0
 13
1.0
 23
0.0
 33
0.0
 40
0.0
 40
0.0
 40
0.0
 40
0.0
 40
0.25
 40
0.25
 40
0.25
 40
0.25
 40
0.5
 40
0.5
 40
0.5
 40
0.5
 40
1.0
 40
1.0
 40
1.0
 40
1.0
 10
3.32035
 20
4.58646
 30
0.0
 10
3.34805
 20
4.62835
 30
0.0
 10
3.30335
 20
4.66951
 30
0.0
 10
3.3103
 20
4.70802
 30
0.0
 10
3.3103
 20
4.70802
 30
0.0
 10
3.31684
 20
4.74419
 30
0.0
 10
3.35763
 20
4.76631
 30
0.0
 10
3.38254
 20
4.79724
 30
0.0
 10
3.38254
 20
4.79724
 30
0.0
 10
3.43985
 20
4.86838
 30
0.0
 10
3.47057
 20
4.95834
 30
0.0
 10
3.47398
 20
5.04928
 30
0.0
  0
SPLINE
  5
60
330
1F
100
AcDbEntity
  8
Layer 1
 62
     5
370
    53
100
AcDbSpline
210
0.0
220
0.0
230
1.0
 70
     8
 71
     3
 72
    16
 73
    12
 74
     0
 42
0.0000000001
 43
0.0000000001
 12
1.0
 22
0.0
 32
0.0
 13
1.0
 23
0.0
 33
0.0
 40
0.0
 40
0.0
 40
0.0
 40
0.0
 40
0.25
 40
0.25
 40
0.25
 40
0.25
 40
0.5
 40
0.5
 40
0.5
 40
0.5
 40
1.0
 40
1.0
 40
1.0
 40
1.0
 10
3.00947
 20
4.77167
 30
0.0
 10
3.0384
 20
4.70227
 30
0.0
 10
3.12279
 20
4.44528
 30
0.0
 10
3.21307
 20
4.43417
 30
0.0
 10
3.21307
 20
4.43417
 30
0.0
 10
3.27105
 20
4.42705
 30
0.0
 10
3.3444
 20
4.45957
 30
0.0
 10
3.38425
 20
4.49749
 30
0.0
 10
3.38425
 20
4.49749
 30
0.0
 10
3.44574
 20
4.55604
 30
0.0
 10
3.5384
 20
4.81252
 30
0.0
 10
3.37327
 20
4.77829
 30
0.0
  0
SPLINE
  5
61
330
1F
100
AcDbEntity
  8
Layer 1
 62
     5
370
    53
100
AcDbSpline
210
0.0
220
0.0
230
1.0
 70
     8
 71
     3
 72
    24
 73
    20
 74
     0
 42
0.0000000001
 43
0.0000000001
 12
1.0
 22
0.0
 32
0.0
 13
1.0
 23
0.0
 33
0.0
 40
0.0
 40
0.0
 40
0.0
 40
0.0
 40
0.1666666666666667
 40
0.1666666666666667
 40
0.1666666666666667
 40
0.1666666666666667
 40
0.3333333333333333
 40
0.3333333333333333
 40
0.3333333333333333
 40
0.3333333333333333
 40
0.5
 40
0.5
 40
0.5
 40
0.5
 40
0.6666666666666666
 40
0.6666666666666666
 40
0.6666666666666666
 40
0.6666666666666666
 40
1.0
 40
1.0
 40
1.0
 40
1.0
 10
2.81102
 20
4.54016
 30
0.0
 10
2.81764
 20
4.54619
 30
0.0
 10
2.8613
 20
4.48481
 30
0.0
 10
2.8625
 20
4.49714
 30
0.0
 10
2.8625
 20
4.49714
 30
0.0
 10
2.82601
 20
4.54906
 30
0.0
 10
2.72398
 20
4.70683
 30
0.0
 10
2.72498
 20
4.77523
 30
0.0
 10
2.72498
 20
4.77523
 30
0.0
 10
2.7262
 20
4.85785
 30
0.0
 10
2.79702
 20
4.97604
 30
0.0
 10
2.83733
 20
5.04806
 30
0.0
 10
2.83733
 20
5.04806
 30
0.0
 10
2.86849
 20
5.10376
 30
0.0
 10
2.9227
 20
5.15455
 30
0.0
 10
2.94861
 20
5.20972
 30
0.0
 10
2.94861
 20
5.20972
 30
0.0
 10
2.97957
 20
5.27563
 30
0.0
 10
2.9567
 20
5.35971
 30
0.0
 10
3.04915
 20
5.38683
 30
0.0
  0
SPLINE
  5
62
330
1F
100
AcDbEntity
  8
Layer 1
 62
     5
370
    53
100
AcDbSpline
210
0.0
220
0.0
230
1.0
 70
     8
 71
     3
 72
    16
 73
    12
 74
     0
 42
0.0000000001
 43
0.0000000001
 12
1.0
 22
0.0
 32
0.0
 13
1.0
 23
0.0
 33
0.0
 40
0.0
 40
0.0
 40
0.0
 40
0.0
 40
0.25
 40
0.25
 40
0.25
 40
0.25
 40
0.5
 40
0.5
 40
0.5
 40
0.5
 40
1.0
 40
1.0
 40
1.0
 40
1.0
 10
2.59274
 20
4.55339
 30
0.0
 10
2.61109
 20
4.57969
 30
0.0
 10
2.52365
 20
4.68799
 30
0.0
 10
2.51319
 20
4.7386
 30
0.0
 10
2.51319
 20
4.7386
 30
0.0
 10
2.49701
 20
4.81678
 30
0.0
 10
2.56719
 20
4.89626
 30
0.0
 10
2.60259
 20
4.96342
 30
0.0
 10
2.60259
 20
4.96342
 30
0.0
 10
2.63124
 20
5.01779
 30
0.0
 10
2.73829
 20
5.17297
 30
0.0
 10
2.79268
 20
5.2616
 30
0.0
  0
SPLINE
  5
63
330
1F
100
AcDbEntity
  8
Layer 1
 62
     5
370
    53
100
AcDbSpline
210
0.0
220
0.0
230
1.0
 70
     8
 71
     3
 72
    20
 73
    16
 74
     0
 42
0.0000000001
 43
0.0000000001
 12
1.0
 22
0.0
 32
0.0
 13
1.0
 23
0.0
 33
0.0
 40
0.0
 40
0.0
 40
0.0
 40
0.0
 40
0.2
 40
0.2
 40
0.2
 40
0.2
 40
0.4
 40
0.4
 40
0.4
 40
0.4
 40
0.6
 40
0.6
 40
0.6
 40
0.6
 40
1.0
 40
1.0
 40
1.0
 40
1.0
 10
3.00947
 20
4.77167
 30
0.0
 10
3.00947
 20
4.775
 30
0.0
 10
2.99104
 20
4.84975
 30
0.0
 10
2.99582
 20
4.87
 30
0.0
 10
2.99582
 20
4.87
 30
0.0
 10
3.00494
 20
4.9087
 30
0.0
 10
3.05256
 20
4.94389
 30
0.0
 10
3.07427
 20
4.97649
 30
0.0
 10
3.07427
 20
4.97649
 30
0.0
 10
3.11496
 20
5.03755
 30
0.0
 10
3.16056
 20
5.09888
 30
0.0
 10
3.19778
 20
5.16175
 30
0.0
 10
3.19778
 20
5.16175
 30
0.0
 10
3.21681
 20
5.19392
 30
0.0
 10
3.26324
 20
5.39127
 30
0.0
 10
3.28727
 20
5.36698
 30
0.0
  0
SPLINE
  5
64
330
1F
100
AcDbEntity
  8
Layer 1
 62
     5
370
    53
100
AcDbSpline
210
0.0
220
0.0
230
1.0
 70
     8
 71
     3
 72
    12
 73
     8
 74
     0
 42
0.0000000001
 43
0.0000000001
 12
1.0
 22
0.0
 32
0.0
 13
1.0
 23
0.0
 33
0.0
 40
0.0
 40
0.0
 40
0.0
 40
0.0
 40
0.3333333333333333
 40
0.3333333333333333
 40
0.3333333333333333
 40
0.3333333333333333
 40
1.0
 40
1.0
 40
1.0
 40
1.0
 10
2.95655
 20
4.15651
 30
0.0
 10
2.99786
 20
4.25635
 30
0.0
 10
3.01192
 20
4.40526
 30
0.0
 10
2.89751
 20
4.46245
 30
0.0
 10
2.89751
 20
4.46245
 30
0.0
 10
2.85694
 20
4.48275
 30
0.0
 10
2.72498
 20
4.48944
 30
0.0
 10
2.66328
 20
4.43319
 30
0.0
  0
SPLINE
  5
65
330
1F
100
AcDbEntity
  8
Layer 1
 62
     5
370
    53
100
AcDbSpline
210
0.0
220
0.0
230
1.0
 70
     8
 71
     3
 72
     8
 73
     4
 74
     0
 42
0.0000000001
 43
0.0000000001
 12
1.0
 22
0.0
 32
0.0
 13
1.0
 23
0.0
 33
0.0
 40
0.0
 40
0.0
 40
0.0
 40
0.0
 40
1.0
 40
1.0
 40
1.0
 40
1.0
 10
2.96978
 20
4.40125
 30
0.0
 10
3.04148
 20
4.40369
 30
0.0
 10
3.09426
 20
4.42208
 30
0.0
 10
3.15364
 20
4.47068
 30
0.0
  0
SPLINE
  5
66
330
1F
100
AcDbEntity
  8
Layer 1
 62
     5
370
    53
100
AcDbSpline
210
0.0
220
0.0
230
1.0
 70
     8
 71
     3
 72
     8
 73
     4
 74
     0
 42
0.0000000001
 43
0.0000000001
 12
1.0
 22
0.0
 32
0.0
 13
1.0
 23
0.0
 33
0.0
 40
0.0
 40
0.0
 40
0.0
 40
0.0
 40
1.0
 40
1.0
 40
1.0
 40
1.0
 10
3.41295
 20
4.85104
 30
0.0
 10
3.51367
 20
4.76767
 30
0.0
 10
3.65878
 20
4.9006
 30
0.0
 10
3.69769
 20
4.98889
 30
0.0
  0
SPLINE
  5
67
330
1F
100
AcDbEntity
  8
Layer 1
 62
     5
370
    53
100
AcDbSpline
210
0.0
220
0.0
230
1.0
 70
    11
 71
     3
 72
    20
 73
    16
 74
     0
 42
0.0000000001
 43
0.0000000001
 12
1.0
 22
0.0
 32
0.0
 13
1.0
 23
0.0
 33
0.0
 40
0.0
 40
0.0
 40
0.0
 40
0.0
 40
0.2
 40
0.2
 40
0.2
 40
0.2
 40
0.4
 40
0.4
 40
0.4
 40
0.4
 40
0.6
 40
0.6
 40
0.6
 40
0.6
 40
1.0
 40
1.0
 40
1.0
 40
1.0
 10
2.70188
 20
4.30204
 30
0.0
 10
2.7447
 20
4.24328
 30
0.0
 10
2.78276
 20
4.21663
 30
0.0
 10
2.86327
 20
4.21967
 30
0.0
 10
2.86327
 20
4.21967
 30
0.0
 10
2.83901
 20
4.26741
 30
0.0
 10
2.82141
 20
4.31577
 30
0.0
 10
2.80451
 20
4.36636
 30
0.0
 10
2.80451
 20
4.36636
 30
0.0
 10
2.79728
 20
4.38802
 30
0.0
 10
2.79552
 20
4.4275
 30
0.0
 10
2.7692
 20
4.43076
 30
0.0
 10
2.7692
 20
4.43076
 30
0.0
 10
2.7093
 20
4.43816
 30
0.0
 10
2.68651
 20
4.33183
 30
0.0
 10
2.70188
 20
4.30204
 30
0.0
  0
SPLINE
  5
68
330
1F
100
AcDbEntity
  8
Layer 1
 62
     5
370
    53
100
AcDbSpline
210
0.0
220
0.0
230
1.0
 70
     8
 71
     3
 72
     8
 73
     4
 74
     0
 42
0.0000000001
 43
0.0000000001
 12
1.0
 22
0.0
 32
0.0
 13
1.0
 23
0.0
 33
0.0
 40
0.0
 40
0.0
 40
0.0
 40
0.0
 40
1.0
 40
1.0
 40
1.0
 40
1.0
 10
4.30127
 20
4.47068
 30
0.0
 10
4.49353
 20
4.20443
 30
0.0
 10
4.71164
 20
3.94326
 30
0.0
 10
4.95415
 20
3.68688
 30
0.0
  0
SPLINE
  5
69
330
1F
100
AcDbEntity
  8
Layer 1
 62
     5
370
    53
100
AcDbSpline
210
0.0
220
0.0
230
1.0
 70
     8
 71
     3
 72
     8
 73
     4
 74
     0
 42
0.0000000001
 43
0.0000000001
 12
1.0
 22
0.0
 32
0.0
 13
1.0
 23
0.0
 33
0.0
 40
0.0
 40
0.0
 40
0.0
 40
0.0
 40
1.0
 40
1.0
 40
1.0
 40
1.0
 10
5.07755
 20
2.57207
 30
0.0
 10
5.07461
 20
2.66154
 30
0.0
 10
5.07655
 20
2.74609
 30
0.0
 10
5.08644
 20
2.82256
 30
0.0
  0
SPLINE
  5
6A
330
1F
100
AcDbEntity
  8
Layer 1
370
    53
100
AcDbSpline
210
0.0
220
0.0
230
1.0
 70
    11
 71
     3
 72
   200
 73
   196
 74
     0
 42
0.0000000001
 43
0.0000000001
 12
1.0
 22
0.0
 32
0.0
 13
1.0
 23
0.0
 33
0.0
 40
0.0
 40
0.0
 40
0.0
 40
0.0
 40
0.02
 40
0.02
 40
0.02
 40
0.02
 40
0.04
 40
0.04
 40
0.04
 40
0.04
 40
0.06
 40
0.06
 40
0.06
 40
0.06
 40
0.08
 40
0.08
 40
0.08
 40
0.08
 40
0.1
 40
0.1
 40
0.1
 40
0.1
 40
0.12
 40
0.12
 40
0.12
 40
0.12
 40
0.14
 40
0.14
 40
0.14
 40
0.14
 40
0.16
 40
0.16
 40
0.16
 40
0.16
 40
0.18
 40
0.18
 40
0.18
 40
0.18
 40
0.2
 40
0.2
 40
0.2
 40
0.2
 40
0.22
 40
0.22
 40
0.22
 40
0.22
 40
0.24
 40
0.24
 40
0.24
 40
0.24
 40
0.26
 40
0.26
 40
0.26
 40
0.26
 40
0.28
 40
0.28
 40
0.28
 40
0.28
 40
0.3
 40
0.3
 40
0.3
 40
0.3
 40
0.32
 40
0.32
 40
0.32
 40
0.32
 40
0.34
 40
0.34
 40
0.34
 40
0.34
 40
0.36
 40
0.36
 40
0.36
 40
0.36
 40
0.38
 40
0.38
 40
0.38
 40
0.38
 40
0.4
 40
0.4
 40
0.4
 40
0.4
 40
0.42
 40
0.42
 40
0.42
 40
0.42
 40
0.44
 40
0.44
 40
0.44
 40
0.44
 40
0.46
 40
0.46
 40
0.46
 40
0.46
 40
0.48
 40
0.48
 40
0.48
 40
0.48
 40
0.5
 40
0.5
 40
0.5
 40
0.5
 40
0.52
 40
0.52
 40
0.52
 40
0.52
 40
0.54
 40
0.54
 40
0.54
 40
0.54
 40
0.56
 40
0.56
 40
0.56
 40
0.56
 40
0.58
 40
0.58
 40
0.58
 40
0.58
 40
0.6
 40
0.6
 40
0.6
 40
0.6
 40
0.62
 40
0.62
 40
0.62
 40
0.62
 40
0.64
 40
0.64
 40
0.64
 40
0.64
 40
0.66
 40
0.66
 40
0.66
 40
0.66
 40
0.68
 40
0.68
 40
0.68
 40
0.68
 40
0.7
 40
0.7
 40
0.7
 40
0.7
 40
0.72
 40
0.72
 40
0.72
 40
0.72
 40
0.74
 40
0.74
 40
0.74
 40
0.74
 40
0.76
 40
0.76
 40
0.76
 40
0.76
 40
0.78
 40
0.78
 40
0.78
 40
0.78
 40
0.8
 40
0.8
 40
0.8
 40
0.8
 40
0.82
 40
0.82
 40
0.82
 40
0.82
 40
0.84
 40
0.84
 40
0.84
 40
0.84
 40
0.86
 40
0.86
 40
0.86
 40
0.86
 40
0.88
 40
0.88
 40
0.88
 40
0.88
 40
0.9
 40
0.9
 40
0.9
 40
0.9
 40
0.92
 40
0.92
 40
0.92
 40
0.92
 40
0.94
 40
0.94
 40
0.94
 40
0.94
 40
0.96
 40
0.96
 40
0.96
 40
0.96
 40
1.0
 40
1.0
 40
1.0
 40
1.0
 10
1.2
 20
0.82452
 30
0.0
 10
1.2
 20
0.82452
 30
0.0
 10
1.36469
 20
0.82452
 30
0.0
 10
1.36469
 20
0.82452
 30
0.0
 10
1.36469
 20
0.82452
 30
0.0
 10
1.49254
 20
0.41299
 30
0.0
 10
1.73529
 20
0.03917
 30
0.0
 10
1.97758
 20
-0.04371
 30
0.0
 10
1.97758
 20
-0.04371
 30
0.0
 10
2.4803
 20
-0.2157
 30
0.0
 10
2.67873
 20
0.23541
 30
0.0
 10
2.67873
 20
0.23541
 30
0.0
 10
2.67873
 20
0.23541
 30
0.0
 10
2.67873
 20
0.23541
 30
0.0
 10
2.79779
 20
0.35316
 30
0.0
 10
2.91686
 20
0.33993
 30
0.0
 10
2.91686
 20
0.33993
 30
0.0
 10
3.03592
 20
0.3267
 30
0.0
 10
3.53864
 20
0.19146
 30
0.0
 10
3.72384
 20
0.2298
 30
0.0
 10
3.72384
 20
0.2298
 30
0.0
 10
3.72384
 20
0.2298
 30
0.0
 10
4.31915
 20
0.11769
 30
0.0
 10
4.74248
 20
0.23541
 30
0.0
 10
4.74248
 20
0.23541
 30
0.0
 10
5.15977
 20
0.35145
 30
0.0
 10
5.82123
 20
0.69921
 30
0.0
 10
6.06812
 20
0.77931
 30
0.0
 10
6.06812
 20
0.77931
 30
0.0
 10
6.32629
 20
0.82106
 30
0.0
 10
6.51602
 20
0.90852
 30
0.0
 10
6.63425
 20
0.97491
 30
0.0
 10
6.63425
 20
0.97491
 30
0.0
 10
7.00615
 20
1.1837
 30
0.0
 10
7.25009
 20
1.50927
 30
0.0
 10
7.26926
 20
1.72896
 30
0.0
 10
7.26926
 20
1.72896
 30
0.0
 10
7.27184
 20
1.75853
 30
0.0
 10
7.2784
 20
1.83363
 30
0.0
 10
7.2428
 20
1.91418
 30
0.0
 10
7.2428
 20
1.91418
 30
0.0
 10
7.20006
 20
2.01086
 30
0.0
 10
7.08829
 20
2.03954
 30
0.0
 10
7.08404
 20
2.08615
 30
0.0
 10
7.08404
 20
2.08615
 30
0.0
 10
7.07743
 20
2.15892
 30
0.0
 10
7.09727
 20
2.20566
 30
0.0
 10
7.02452
 20
2.33751
 30
0.0
 10
7.02452
 20
2.33751
 30
0.0
 10
6.97917
 20
2.41972
 30
0.0
 10
6.86512
 20
2.49882
 30
0.0
 10
6.84592
 20
2.5624
 30
0.0
 10
6.84592
 20
2.5624
 30
0.0
 10
6.70079
 20
3.04331
 30
0.0
 10
5.98003
 20
3.69315
 30
0.0
 10
5.70821
 20
3.93825
 30
0.0
 10
5.70821
 20
3.93825
 30
0.0
 10
5.31689
 20
4.29106
 30
0.0
 10
5.12256
 20
4.37869
 30
0.0
 10
4.74248
 20
4.79814
 30
0.0
 10
4.74248
 20
4.79814
 30
0.0
 10
4.60536
 20
4.94945
 30
0.0
 10
4.5926
 20
4.98007
 30
0.0
 10
4.50436
 20
5.04949
 30
0.0
 10
4.50436
 20
5.04949
 30
0.0
 10
4.25621
 20
5.24475
 30
0.0
 10
4.03834
 20
5.25361
 30
0.0
 10
3.40634
 20
5.47283
 30
0.0
 10
3.40634
 20
5.47283
 30
0.0
 10
3.32593
 20
5.50071
 30
0.0
 10
3.26095
 20
5.52431
 30
0.0
 10
3.22113
 20
5.53897
 30
0.0
 10
3.22113
 20
5.53897
 30
0.0
 10
3.26935
 20
5.55326
 30
0.0
 10
3.12535
 20
5.50651
 30
0.0
 10
3.07561
 20
5.49928
 30
0.0
 10
3.07561
 20
5.49928
 30
0.0
 10
2.99556
 20
5.48767
 30
0.0
 10
2.98362
 20
5.51055
 30
0.0
 10
2.93009
 20
5.49928
 30
0.0
 10
2.93009
 20
5.49928
 30
0.0
 10
2.8642
 20
5.48542
 30
0.0
 10
2.82227
 20
5.43814
 30
0.0
 10
2.78456
 20
5.39345
 30
0.0
 10
2.78456
 20
5.39345
 30
0.0
 10
2.57967
 20
5.15064
 30
0.0
 10
2.47652
 20
5.02516
 30
0.0
 10
2.44061
 20
4.8246
 30
0.0
 10
2.44061
 20
4.8246
 30
0.0
 10
2.42306
 20
4.72657
 30
0.0
 10
2.43588
 20
4.69082
 30
0.0
 10
2.44061
 20
4.67908
 30
0.0
 10
2.44061
 20
4.67908
 30
0.0
 10
2.48893
 20
4.55885
 30
0.0
 10
2.64944
 20
4.56075
 30
0.0
 10
2.6655
 20
4.46741
 30
0.0
 10
2.6655
 20
4.46741
 30
0.0
 10
2.67644
 20
4.40394
 30
0.0
 10
2.60564
 20
4.38327
 30
0.0
 10
2.61259
 20
4.29544
 30
0.0
 10
2.61259
 20
4.29544
 30
0.0
 10
2.61716
 20
4.23739
 30
0.0
 10
2.65339
 20
4.17943
 30
0.0
 10
2.70519
 20
4.14991
 30
0.0
 10
2.70519
 20
4.14991
 30
0.0
 10
2.71674
 20
4.14332
 30
0.0
 10
2.76219
 20
4.11927
 30
0.0
 10
2.86394
 20
4.13668
 30
0.0
 10
2.86394
 20
4.13668
 30
0.0
 10
2.99624
 20
4.1593
 30
0.0
 10
3.023
 20
4.21765
 30
0.0
 10
3.1153
 20
4.24252
 30
0.0
 10
3.1153
 20
4.24252
 30
0.0
 10
3.25185
 20
4.2793
 30
0.0
 10
3.27593
 20
4.17385
 30
0.0
 10
3.44603
 20
4.17637
 30
0.0
 10
3.44603
 20
4.17637
 30
0.0
 10
3.53956
 20
4.17774
 30
0.0
 10
3.55054
 20
4.2099
 30
0.0
 10
3.92228
 20
4.36158
 30
0.0
 10
3.92228
 20
4.36158
 30
0.0
 10
4.00788
 20
4.3965
 30
0.0
 10
4.06674
 20
4.37044
 30
0.0
 10
4.08103
 20
4.36158
 30
0.0
 10
4.08103
 20
4.36158
 30
0.0
 10
4.22427
 20
4.27273
 30
0.0
 10
4.27285
 20
4.17637
 30
0.0
 10
4.58373
 20
3.84564
 30
0.0
 10
4.58373
 20
3.84564
 30
0.0
 10
4.85126
 20
3.56102
 30
0.0
 10
4.8908
 20
3.23532
 30
0.0
 10
4.90124
 20
3.21064
 30
0.0
 10
4.90124
 20
3.21064
 30
0.0
 10
4.99544
 20
2.98725
 30
0.0
 10
5.04014
 20
2.4345
 30
0.0
 10
5.25181
 20
2.26695
 30
0.0
 10
5.25181
 20
2.26695
 30
0.0
 10
5.105
 20
2.27072
 30
0.0
 10
5.10257
 20
2.20571
 30
0.0
 10
4.93074
 20
2.25149
 30
0.0
 10
4.93074
 20
2.25149
 30
0.0
 10
4.60663
 20
2.33787
 30
0.0
 10
4.76233
 20
2.54259
 30
0.0
 10
4.23977
 20
2.57124
 30
0.0
 10
4.23977
 20
2.57124
 30
0.0
 10
3.9406
 20
2.58762
 30
0.0
 10
3.73025
 20
2.35779
 30
0.0
 10
3.51656
 20
2.2802
 30
0.0
 10
3.51656
 20
2.2802
 30
0.0
 10
3.23327
 20
2.17731
 30
0.0
 10
2.2916
 20
2.98326
 30
0.0
 10
1.41757
 20
1.89213
 30
0.0
 10
1.41757
 20
1.89213
 30
0.0
 10
1.39489
 20
1.86382
 30
0.0
 10
1.37523
 20
1.83276
 30
0.0
 10
1.35818
 20
1.79953
 30
0.0
 10
1.35818
 20
1.79953
 30
0.0
 10
1.35818
 20
1.79953
 30
0.0
 10
1.2
 20
1.79953
 30
0.0
 10
1.2
 20
1.79953
 30
0.0
 10
1.2
 20
1.79953
 30
0.0
 10
1.2
 20
1.79953
 30
0.0
 10
1.2
 20
2.2
 30
0.0
 10
1.2
 20
2.2
 30
0.0
 10
1.2
 20
2.2
 30
0.0
 10
1.2
 20
2.47614
 30
0.0
 10
0.97614
 20
2.7
 30
0.0
 10
0.7
 20
2.7
 30
0.0
 10
0.7
 20
2.7
 30
0.0
 10
0.7
 20
2.7
 30
0.0
 10
0.3
 20
2.7
 30
0.0
 10
0.3
 20
2.7
 30
0.0
 10
0.3
 20
2.7
 30
0.0
 10
0.02386
 20
2.7
 30
0.0
 10
-0.2
 20
2.47614
 30
0.0
 10
-0.2
 20
2.2
 30
0.0
 10
-0.2
 20
2.2
 30
0.0
 10
-0.2
 20
2.2
 30
0.0
 10
-0.2
 20
0.3
 30
0.0
 10
-0.2
 20
0.3
 30
0.0
 10
-0.2
 20
0.3
 30
0.0
 10
-0.2
 20
0.02386
 30
0.0
 10
0.02386
 20
-0.2
 30
0.0
 10
0.3
 20
-0.2
 30
0.0
 10
0.3
 20
-0.2
 30
0.0
 10
0.3
 20
-0.2
 30
0.0
 10
0.7
 20
-0.2
 30
0.0
 10
0.7
 20
-0.2
 30
0.0
 10
0.7
 20
-0.2
 30
0.0
 10
0.97614
 20
-0.2
 30
0.0
 10
1.2
 20
0.02386
 30
0.0
 10
1.2
 20
0.3
 30
0.0
 10
1.2
 20
0.3
 30
0.0
 10
1.2
 20
0.3
 30
0.0
 10
1.2
 20
0.82452
 30
0.0
 10
1.2
 20
0.82452
 30
0.0
  0
ELLIPSE
  5
6B
330
1F
100
AcDbEntity
  8
Layer 1
370
    53
100
AcDbEllipse
 10
-1.0
 20
1.25
 30
0.0
 11
0.0
 21
0.15
 31
0.0
210
0.0
220
0.0
230
1.0
 40
1.0
 41
0.0
 42
6.283185307179586
  0
ELLIPSE
  5
6C
330
1F
100
AcDbEntity
  8
Layer 1
370
    53
100
AcDbEllipse
 10
0.5
 20
1.25
 30
0.0
 11
0.0
 21
0.15
 31
0.0
210
0.0
220
0.0
230
1.0
 40
1.0
 41
0.0
 42
6.283185307179586
  0
ENDSEC
  0
SECTION
  2
OBJECTS
  0
DICTIONARY
  5
C
330
0
100
AcDbDictionary
281
     1
  3
ACAD_GROUP
350
D
  3
ACAD_LAYOUT
350
1A
  3
ACAD_MATERIAL
350
3B
  3
ACAD_MLEADERSTYLE
350
8E
  3
ACAD_MLINESTYLE
350
17
  3
ACAD_PLOTSETTINGS
350
19
  3
ACAD_PLOTSTYLENAME
350
E
  3
ACAD_TABLESTYLE
350
8D
  3
ACAD_VISUALSTYLE
350
2A
  0
DICTIONARY
  5
D
102
{ACAD_REACTORS
330
C
102
}
330
C
100
AcDbDictionary
281
     1
  0
DICTIONARY
  5
1A
102
{ACAD_REACTORS
330
C
102
}
330
C
100
AcDbDictionary
281
     1
  3
Layout1
350
1E
  3
Layout2
350
26
  3
Model
350
22
  0
DICTIONARY
  5
3B
102
{ACAD_REACTORS
330
C
102
}
330
C
100
AcDbDictionary
281
     1
  3
ByBlock
350
3D
  3
ByLayer
350
3C
  3
Global
350
3E
  0
DICTIONARY
  5
8E
102
{ACAD_REACTORS
330
C
102
}
330
C
100
AcDbDictionary
281
     1
  0
DICTIONARY
  5
17
102
{ACAD_REACTORS
330
C
102
}
330
C
100
AcDbDictionary
281
     1
  3
Standard
350
18
  0
DICTIONARY
  5
19
102
{ACAD_REACTORS
330
C
102
}
330
C
100
AcDbDictionary
281
     1
  0
ACDBDICTIONARYWDFLT
  5
E
102
{ACAD_REACTORS
330
C
102
}
330
C
100
AcDbDictionary
281
     1
  3
Normal
350
F
100
AcDbDictionaryWithDefault
340
F
  0
DICTIONARY
  5
8D
102
{ACAD_REACTORS
330
C
102
}
330
C
100
AcDbDictionary
281
     1
  0
DICTIONARY
  5
2A
102
{ACAD_REACTORS
330
C
102
}
330
C
100
AcDbDictionary
281
     1
  3
2dWireframe
350
2F
  3
3D Hidden
350
31
  3
3dWireframe
350
30
  3
Basic
350
32
  3
Brighten
350
36
  3
ColorChange
350
3A
  3
Conceptual
350
34
  3
Dim
350
35
  3
Facepattern
350
39
  3
Flat
350
2B
  3
FlatWithEdges
350
2C
  3
Gouraud
350
2D
  3
GouraudWithEdges
350
2E
  3
Linepattern
350
38
  3
Realistic
350
33
  3
Thicken
350
37
  0
LAYOUT
  5
1E
102
{ACAD_REACTORS
330
1A
102
}
330
1A
100
AcDbPlotSettings
  1

  2
none_device
  4

  6

 40
0.0
 41
0.0
 42
0.0
 43
0.0
 44
0.0
 45
0.0
 46
0.0
 47
0.0
 48
0.0
 49
0.0
140
0.0
141
0.0
142
1.0
143
1.0
 70
   688
 72
     0
 73
     0
 74
     5
  7

 75
    16
 76
     0
 77
     2
 78
   300
147
1.0
148
0.0
149
0.0
100
AcDbLayout
  1
Layout1
 70
     1
 71
     1
 10
0.0
 20
0.0
 11
12.0
 21
9.0
 12
0.0
 22
0.0
 32
0.0
 14
1.000000000000000E+20
 24
1.000000000000000E+20
 34
1.000000000000000E+20
 15
-1.000000000000000E+20
 25
-1.000000000000000E+20
 35
-1.000000000000000E+20
146
0.0
 13
0.0
 23
0.0
 33
0.0
 16
1.0
 26
0.0
 36
0.0
 17
0.0
 27
1.0
 37
0.0
 76
     0
330
1B
  0
LAYOUT
  5
26
102
{ACAD_REACTORS
330
1A
102
}
330
1A
100
AcDbPlotSettings
  1

  2
none_device
  4

  6

 40
0.0
 41
0.0
 42
0.0
 43
0.0
 44
0.0
 45
0.0
 46
0.0
 47
0.0
 48
0.0
 49
0.0
140
0.0
141
0.0
142
1.0
143
1.0
 70
   688
 72
     0
 73
     0
 74
     5
  7

 75
    16
 76
     0
 77
     2
 78
   300
147
1.0
148
0.0
149
0.0
100
AcDbLayout
  1
Layout2
 70
     1
 71
     2
 10
0.0
 20
0.0
 11
0.0
 21
0.0
 12
0.0
 22
0.0
 32
0.0
 14
0.0
 24
0.0
 34
0.0
 15
0.0
 25
0.0
 35
0.0
146
0.0
 13
0.0
 23
0.0
 33
0.0
 16
1.0
 26
0.0
 36
0.0
 17
0.0
 27
1.0
 37
0.0
 76
     0
330
23
  0
LAYOUT
  5
22
102
{ACAD_REACTORS
330
1A
102
}
330
1A
100
AcDbPlotSettings
  1

  2
none_device
  4

  6

 40
0.0
 41
0.0
 42
0.0
 43
0.0
 44
0.0
 45
0.0
 46
0.0
 47
0.0
 48
0.0
 49
0.0
140
0.0
141
0.0
142
1.0
143
1.0
 70
  1712
 72
     0
 73
     0
 74
     0
  7

 75
     0
 76
     0
 77
     2
 78
   300
147
1.0
148
0.0
149
0.0
100
AcDbLayout
  1
Model
 70
     1
 71
     0
 10
0.0
 20
0.0
 11
12.0
 21
9.0
 12
0.0
 22
0.0
 32
0.0
 14
-7.79792
 24
-0.22646
 34
0.0
 15
7.29792
 25
5.56788
 35
0.0
146
0.0
 13
0.0
 23
0.0
 33
0.0
 16
1.0
 26
0.0
 36
0.0
 17
0.0
 27
1.0
 37
0.0
 76
     0
330
1F
331
29
  0
MATERIAL
  5
3D
102
{ACAD_REACTORS
330
3B
102
}
330
3B
100
AcDbMaterial
  1
ByBlock
 72
     1
 94
      127
  0
MATERIAL
  5
3C
102
{ACAD_REACTORS
330
3B
102
}
330
3B
100
AcDbMaterial
  1
ByLayer
 72
     1
 94
      127
  0
MATERIAL
  5
3E
102
{ACAD_REACTORS
330
3B
102
}
330
3B
100
AcDbMaterial
  1
Global
 72
     1
 94
      127
  0
MLINESTYLE
  5
18
102
{ACAD_REACTORS
330
17
102
}
330
17
100
AcDbMlineStyle
  2
Standard
 70
     0
  3

 62
   256
 51
90.0
 52
90.0
 71
     2
 49
0.5
 62
   256
  6
BYLAYER
 49
-0.5
 62
   256
  6
BYLAYER
  0
ACDBPLACEHOLDER
  5
F
102
{ACAD_REACTORS
330
E
102
}
330
E
  0
VISUALSTYLE
  5
2F
102
{ACAD_REACTORS
330
2A
102
}
102
{ACAD_XDICTIONARY
360
75
102
}
330
2A
100
AcDbVisualStyle
  2
2dWireframe
 70
     4
 71
     0
 72
     2
 73
     0
 90
        0
 40
-0.6
 41
-30.0
 62
     5
 63
     7
421
 16777215
 74
     1
 91
        4
 64
     7
 65
   257
 75
     1
175
     1
 42
1.0
 92
        0
 66
   257
 43
1.0
 76
     1
 77
     6
 78
     2
 67
     7
 79
     5
170
     0
171
     0
290
     0
174
     0
 93
        1
 44
0.0
173
     0
291
     0
 45
0.0
  0
VISUALSTYLE
  5
31
102
{ACAD_REACTORS
330
2A
102
}
102
{ACAD_XDICTIONARY
360
79
102
}
330
2A
100
AcDbVisualStyle
  2
3D Hidden
 70
     6
 71
     1
 72
     2
 73
     2
 90
        0
 40
-0.6
 41
-30.0
 62
     5
 63
     7
421
 16777215
 74
     2
 91
        2
 64
     7
 65
   257
 75
     2
175
     1
 42
40.0
 92
        0
 66
   257
 43
1.0
 76
     1
 77
     6
 78
     2
 67
     7
 79
     3
170
     0
171
     0
290
     0
174
     0
 93
        1
 44
0.0
173
     0
291
     0
 45
0.0
  0
VISUALSTYLE
  5
30
102
{ACAD_REACTORS
330
2A
102
}
102
{ACAD_XDICTIONARY
360
77
102
}
330
2A
100
AcDbVisualStyle
  2
3dWireframe
 70
     5
 71
     0
 72
     2
 73
     0
 90
        0
 40
-0.6
 41
-30.0
 62
     5
 63
     7
421
 16777215
 74
     1
 91
        4
 64
     7
 65
   257
 75
     1
175
     1
 42
1.0
 92
        0
 66
   257
 43
1.0
 76
     1
 77
     6
 78
     2
 67
     7
 79
     5
170
     0
171
     0
290
     0
174
     0
 93
        1
 44
0.0
173
     0
291
     0
 45
0.0
  0
VISUALSTYLE
  5
32
102
{ACAD_REACTORS
330
2A
102
}
102
{ACAD_XDICTIONARY
360
7B
102
}
330
2A
100
AcDbVisualStyle
  2
Basic
 70
     7
 71
     1
 72
     0
 73
     1
 90
        0
 40
-0.6
 41
-30.0
 62
     5
 63
     7
421
 16777215
 74
     0
 91
        4
 64
     7
 65
   257
 75
     1
175
     1
 42
1.0
 92
        8
 66
     7
 43
1.0
 76
     1
 77
     6
 78
     2
 67
     7
 79
     5
170
     0
171
     0
290
     0
174
     0
 93
        1
 44
0.0
173
     0
291
     1
 45
0.0
  0
VISUALSTYLE
  5
36
102
{ACAD_REACTORS
330
2A
102
}
102
{ACAD_XDICTIONARY
360
83
102
}
330
2A
100
AcDbVisualStyle
  2
Brighten
 70
    12
 71
     2
 72
     2
 73
     0
 90
        0
 40
-0.6
 41
-30.0
 62
     5
 63
     7
421
 16777215
 74
     1
 91
        4
 64
     7
 65
   257
 75
     1
175
     1
 42
1.0
 92
        8
 66
     7
 43
1.0
 76
     1
 77
     6
 78
     2
 67
     7
 79
     5
170
     0
171
     0
290
     0
174
     0
 93
        1
 44
50.0
173
     0
291
     1
 45
0.0
  0
VISUALSTYLE
  5
3A
102
{ACAD_REACTORS
330
2A
102
}
102
{ACAD_XDICTIONARY
360
8B
102
}
330
2A
100
AcDbVisualStyle
  2
ColorChange
 70
    16
 71
     2
 72
     2
 73
     3
 90
        0
 40
-0.6
 41
-30.0
 62
     5
 63
     8
421
  8421504
 74
     1
 91
        4
 64
     7
 65
   257
 75
     1
175
     1
 42
1.0
 92
        8
 66
     8
424
  8421504
 43
1.0
 76
     1
 77
     6
 78
     2
 67
     7
 79
     5
170
     0
171
     0
290
     0
174
     0
 93
        1
 44
0.0
173
     0
291
     1
 45
0.0
  0
VISUALSTYLE
  5
34
102
{ACAD_REACTORS
330
2A
102
}
102
{ACAD_XDICTIONARY
360
7F
102
}
330
2A
100
AcDbVisualStyle
  2
Conceptual
 70
     9
 71
     3
 72
     2
 73
     0
 90
        0
 40
-0.6
 41
-30.0
 62
     5
 63
     7
421
 16777215
 74
     2
 91
        2
 64
     7
 65
   257
 75
     1
175
     1
 42
40.0
 92
        8
 66
     7
 43
1.0
 76
     1
 77
     6
 78
     2
 67
     7
 79
     3
170
     0
171
     0
290
     0
174
     0
 93
        1
 44
0.0
173
     0
291
     0
 45
0.0
  0
VISUALSTYLE
  5
35
102
{ACAD_REACTORS
330
2A
102
}
102
{ACAD_XDICTIONARY
360
81
102
}
330
2A
100
AcDbVisualStyle
  2
Dim
 70
    11
 71
     2
 72
     2
 73
     0
 90
        0
 40
-0.6
 41
-30.0
 62
     5
 63
     7
421
 16777215
 74
     1
 91
        4
 64
     7
 65
   257
 75
     1
175
     1
 42
1.0
 92
        8
 66
     7
 43
1.0
 76
     1
 77
     6
 78
     2
 67
     7
 79
     5
170
     0
171
     0
290
     0
174
     0
 93
        1
 44
-50.0
173
     0
291
     1
 45
0.0
  0
VISUALSTYLE
  5
39
102
{ACAD_REACTORS
330
2A
102
}
102
{ACAD_XDICTIONARY
360
89
102
}
330
2A
100
AcDbVisualStyle
  2
Facepattern
 70
    15
 71
     2
 72
     2
 73
     0
 90
        0
 40
-0.6
 41
-30.0
 62
     5
 63
     7
421
 16777215
 74
     1
 91
        4
 64
     7
 65
   257
 75
     1
175
     1
 42
1.0
 92
        8
 66
     7
 43
1.0
 76
     1
 77
     6
 78
     2
 67
     7
 79
     5
170
     0
171
     0
290
     0
174
     0
 93
        1
 44
0.0
173
     0
291
     1
 45
0.0
  0
VISUALSTYLE
  5
2B
102
{ACAD_REACTORS
330
2A
102
}
102
{ACAD_XDICTIONARY
360
6D
102
}
330
2A
100
AcDbVisualStyle
  2
Flat
 70
     0
 71
     2
 72
     1
 73
     1
 90
        2
 40
-0.6
 41
30.0
 62
     5
 63
     7
421
 16777215
 74
     0
 91
        4
 64
     7
 65
   257
 75
     1
175
     1
 42
1.0
 92
        8
 66
     7
 43
1.0
 76
     1
 77
     6
 78
     2
 67
     7
 79
     5
170
     0
171
     0
290
     0
174
     0
 93
       13
 44
0.0
173
     0
291
     1
 45
0.0
  0
VISUALSTYLE
  5
2C
102
{ACAD_REACTORS
330
2A
102
}
102
{ACAD_XDICTIONARY
360
6F
102
}
330
2A
100
AcDbVisualStyle
  2
FlatWithEdges
 70
     1
 71
     2
 72
     1
 73
     1
 90
        2
 40
-0.6
 41
30.0
 62
     5
 63
     7
421
 16777215
 74
     1
 91
        4
 64
     7
 65
   257
 75
     1
175
     1
 42
1.0
 92
        0
 66
   257
 43
1.0
 76
     1
 77
     6
 78
     2
 67
     7
 79
     5
170
     0
171
     0
290
     0
174
     0
 93
       13
 44
0.0
173
     0
291
     1
 45
0.0
  0
VISUALSTYLE
  5
2D
102
{ACAD_REACTORS
330
2A
102
}
102
{ACAD_XDICTIONARY
360
71
102
}
330
2A
100
AcDbVisualStyle
  2
Gouraud
 70
     2
 71
     2
 72
     2
 73
     1
 90
        2
 40
-0.6
 41
30.0
 62
     5
 63
     7
421
 16777215
 74
     0
 91
        4
 64
     7
 65
   257
 75
     1
175
     1
 42
1.0
 92
        0
 66
     7
 43
1.0
 76
     1
 77
     6
 78
     2
 67
     7
 79
     5
170
     0
171
     0
290
     0
174
     0
 93
       13
 44
0.0
173
     0
291
     1
 45
0.0
  0
VISUALSTYLE
  5
2E
102
{ACAD_REACTORS
330
2A
102
}
102
{ACAD_XDICTIONARY
360
73
102
}
330
2A
100
AcDbVisualStyle
  2
GouraudWithEdges
 70
     3
 71
     2
 72
     2
 73
     1
 90
        2
 40
-0.6
 41
30.0
 62
     5
 63
     7
421
 16777215
 74
     1
 91
        4
 64
     7
 65
   257
 75
     1
175
     1
 42
1.0
 92
        0
 66
   257
 43
1.0
 76
     1
 77
     6
 78
     2
 67
     7
 79
     5
170
     0
171
     0
290
     0
174
     0
 93
       13
 44
0.0
173
     0
291
     1
 45
0.0
  0
VISUALSTYLE
  5
38
102
{ACAD_REACTORS
330
2A
102
}
102
{ACAD_XDICTIONARY
360
87
102
}
330
2A
100
AcDbVisualStyle
  2
Linepattern
 70
    14
 71
     2
 72
     2
 73
     0
 90
        0
 40
-0.6
 41
-30.0
 62
     5
 63
     7
421
 16777215
 74
     1
 91
        4
 64
     7
 65
   257
 75
     7
175
     7
 42
1.0
 92
        8
 66
     7
 43
1.0
 76
     1
 77
     6
 78
     2
 67
     7
 79
     5
170
     0
171
     0
290
     0
174
     0
 93
        1
 44
0.0
173
     0
291
     1
 45
0.0
  0
VISUALSTYLE
  5
33
102
{ACAD_REACTORS
330
2A
102
}
102
{ACAD_XDICTIONARY
360
7D
102
}
330
2A
100
AcDbVisualStyle
  2
Realistic
 70
     8
 71
     2
 72
     2
 73
     0
 90
        0
 40
-0.6
 41
-30.0
 62
     5
 63
     7
421
 16777215
 74
     1
 91
        0
 64
     7
 65
   257
 75
     1
175
     1
 42
1.0
 92
        8
 66
     8
424
  7895160
 43
1.0
 76
     1
 77
     6
 78
     2
 67
     7
 79
     5
170
     0
171
     0
290
     0
174
     0
 93
       13
 44
0.0
173
     0
291
     0
 45
0.0
  0
VISUALSTYLE
  5
37
102
{ACAD_REACTORS
330
2A
102
}
102
{ACAD_XDICTIONARY
360
85
102
}
330
2A
100
AcDbVisualStyle
  2
Thicken
 70
    13
 71
     2
 72
     2
 73
     0
 90
        0
 40
-0.6
 41
-30.0
 62
     5
 63
     7
421
 16777215
 74
     1
 91
        4
 64
     7
 65
   257
 75
     1
175
     1
 42
1.0
 92
       12
 66
     7
 43
1.0
 76
     1
 77
     6
 78
     2
 67
     7
 79
     5
170
     0
171
     0
290
     0
174
     0
 93
        1
 44
0.0
173
     0
291
     1
 45
0.0
  0
DICTIONARY
  5
75
330
2F
100
AcDbDictionary
280
     1
281
     1
  3
ACAD_XREC_ROUNDTRIP
360
76
  0
DICTIONARY
  5
79
330
31
100
AcDbDictionary
280
     1
281
     1
  3
ACAD_XREC_ROUNDTRIP
360
7A
  0
DICTIONARY
  5
77
330
30
100
AcDbDictionary
280
     1
281
     1
  3
ACAD_XREC_ROUNDTRIP
360
78
  0
DICTIONARY
  5
7B
330
32
100
AcDbDictionary
280
     1
281
     1
  3
ACAD_XREC_ROUNDTRIP
360
7C
  0
DICTIONARY
  5
83
330
36
100
AcDbDictionary
280
     1
281
     1
  3
ACAD_XREC_ROUNDTRIP
360
84
  0
DICTIONARY
  5
8B
330
3A
100
AcDbDictionary
280
     1
281
     1
  3
ACAD_XREC_ROUNDTRIP
360
8C
  0
DICTIONARY
  5
7F
330
34
100
AcDbDictionary
280
     1
281
     1
  3
ACAD_XREC_ROUNDTRIP
360
80
  0
DICTIONARY
  5
81
330
35
100
AcDbDictionary
280
     1
281
     1
  3
ACAD_XREC_ROUNDTRIP
360
82
  0
DICTIONARY
  5
89
330
39
100
AcDbDictionary
280
     1
281
     1
  3
ACAD_XREC_ROUNDTRIP
360
8A
  0
DICTIONARY
  5
6D
330
2B
100
AcDbDictionary
280
     1
281
     1
  3
ACAD_XREC_ROUNDTRIP
360
6E
  0
DICTIONARY
  5
6F
330
2C
100
AcDbDictionary
280
     1
281
     1
  3
ACAD_XREC_ROUNDTRIP
360
70
  0
DICTIONARY
  5
71
330
2D
100
AcDbDictionary
280
     1
281
     1
  3
ACAD_XREC_ROUNDTRIP
360
72
  0
DICTIONARY
  5
73
330
2E
100
AcDbDictionary
280
     1
281
     1
  3
ACAD_XREC_ROUNDTRIP
360
74
  0
DICTIONARY
  5
87
330
38
100
AcDbDictionary
280
     1
281
     1
  3
ACAD_XREC_ROUNDTRIP
360
88
  0
DICTIONARY
  5
7D
330
33
100
AcDbDictionary
280
     1
281
     1
  3
ACAD_XREC_ROUNDTRIP
360
7E
  0
DICTIONARY
  5
85
330
37
100
AcDbDictionary
280
     1
281
     1
  3
ACAD_XREC_ROUNDTRIP
360
86
  0
XRECORD
  5
76
102
{ACAD_REACTORS
330
75
102
}
330
75
100
AcDbXrecord
280
     1
102
RTVSPropertyOp0
 70
     1
102
RTVSPropertyOp1
 70
     1
102
RTVSPropertyOp2
 70
     1
102
RTVSPropertyOp3
 70
     1
102
RTVSPropertyOp4
 70
     1
102
RTVSPropertyOp5
 70
     1
102
RTVSPropertyOp6
 70
     1
102
RTVSPropertyOp7
 70
     1
102
RTVSPropertyOp8
 70
     1
102
RTVSPropertyOp9
 70
     1
102
RTVSPropertyOp10
 70
     1
102
RTVSPropertyOp11
 70
     1
102
RTVSPropertyOp12
 70
     1
102
RTVSPropertyOp13
 70
     1
102
RTVSPropertyOp14
 70
     1
102
RTVSPropertyOp15
 70
     1
102
RTVSPropertyOp16
 70
     1
102
RTVSPropertyOp17
 70
     1
102
RTVSPropertyOp18
 70
     1
102
RTVSPropertyOp19
 70
     1
102
RTVSPropertyOp20
 70
     1
102
RTVSPropertyOp21
 70
     1
102
RTVSPropertyOp22
 70
     1
102
RTVSPropertyOp23
 70
     1
102
RTVSPropertyOp24
 70
     1
102
RTVSPropertyOp25
 70
     1
102
RTVSPropertyOp26
 70
     1
102
RTVSPropertyOp27
 70
     1
102
RTVSPropertyOp28
 70
     1
102
RTVSPropertyOp29
 70
     1
102
RTVSPropertyOp30
 70
     1
102
RTVSPropertyOp31
 70
     1
102
RTVSPropertyOp32
 70
     1
  0
XRECORD
  5
7A
102
{ACAD_REACTORS
330
79
102
}
330
79
100
AcDbXrecord
280
     1
102
RTVSPropertyOp0
 70
     1
102
RTVSPropertyOp1
 70
     1
102
RTVSPropertyOp2
 70
     1
102
RTVSPropertyOp3
 70
     1
102
RTVSPropertyOp4
 70
     1
102
RTVSPropertyOp5
 70
     1
102
RTVSPropertyOp6
 70
     1
102
RTVSPropertyOp7
 70
     1
102
RTVSPropertyOp8
 70
     1
102
RTVSPropertyOp9
 70
     1
102
RTVSPropertyOp10
 70
     1
102
RTVSPropertyOp11
 70
     1
102
RTVSPropertyOp12
 70
     1
102
RTVSPropertyOp13
 70
     1
102
RTVSPropertyOp14
 70
     1
102
RTVSPropertyOp15
 70
     1
102
RTVSPropertyOp16
 70
     1
102
RTVSPropertyOp17
 70
     1
102
RTVSPropertyOp18
 70
     1
102
RTVSPropertyOp19
 70
     1
102
RTVSPropertyOp20
 70
     1
102
RTVSPropertyOp21
 70
     1
102
RTVSPropertyOp22
 70
     1
102
RTVSPropertyOp23
 70
     1
102
RTVSPropertyOp24
 70
     1
102
RTVSPropertyOp25
 70
     1
102
RTVSPropertyOp26
 70
     1
102
RTVSPropertyOp27
 70
     1
102
RTVSPropertyOp28
 70
     1
102
RTVSPropertyOp29
 70
     1
102
RTVSPropertyOp30
 70
     1
102
RTVSPropertyOp31
 70
     1
102
RTVSPropertyOp32
 70
     1
  0
XRECORD
  5
78
102
{ACAD_REACTORS
330
77
102
}
330
77
100
AcDbXrecord
280
     1
102
RTVSPropertyOp0
 70
     1
102
RTVSPropertyOp1
 70
     1
102
RTVSPropertyOp2
 70
     1
102
RTVSPropertyOp3
 70
     1
102
RTVSPropertyOp4
 70
     1
102
RTVSPropertyOp5
 70
     1
102
RTVSPropertyOp6
 70
     1
102
RTVSPropertyOp7
 70
     1
102
RTVSPropertyOp8
 70
     1
102
RTVSPropertyOp9
 70
     1
102
RTVSPropertyOp10
 70
     1
102
RTVSPropertyOp11
 70
     1
102
RTVSPropertyOp12
 70
     1
102
RTVSPropertyOp13
 70
     1
102
RTVSPropertyOp14
 70
     1
102
RTVSPropertyOp15
 70
     1
102
RTVSPropertyOp16
 70
     1
102
RTVSPropertyOp17
 70
     1
102
RTVSPropertyOp18
 70
     1
102
RTVSPropertyOp19
 70
     1
102
RTVSPropertyOp20
 70
     1
102
RTVSPropertyOp21
 70
     1
102
RTVSPropertyOp22
 70
     1
102
RTVSPropertyOp23
 70
     1
102
RTVSPropertyOp24
 70
     1
102
RTVSPropertyOp25
 70
     1
102
RTVSPropertyOp26
 70
     1
102
RTVSPropertyOp27
 70
     1
102
RTVSPropertyOp28
 70
     1
102
RTVSPropertyOp29
 70
     1
102
RTVSPropertyOp30
 70
     1
102
RTVSPropertyOp31
 70
     1
102
RTVSPropertyOp32
 70
     1
  0
XRECORD
  5
7C
102
{ACAD_REACTORS
330
7B
102
}
330
7B
100
AcDbXrecord
280
     1
102
RTVSPropertyOp0
 70
     1
102
RTVSPropertyOp1
 70
     1
102
RTVSPropertyOp2
 70
     1
102
RTVSPropertyOp3
 70
     1
102
RTVSPropertyOp4
 70
     1
102
RTVSPropertyOp5
 70
     1
102
RTVSPropertyOp6
 70
     1
102
RTVSPropertyOp7
 70
     1
102
RTVSPropertyOp8
 70
     1
102
RTVSPropertyOp9
 70
     1
102
RTVSPropertyOp10
 70
     1
102
RTVSPropertyOp11
 70
     1
102
RTVSPropertyOp12
 70
     1
102
RTVSPropertyOp13
 70
     1
102
RTVSPropertyOp14
 70
     1
102
RTVSPropertyOp15
 70
     1
102
RTVSPropertyOp16
 70
     1
102
RTVSPropertyOp17
 70
     1
102
RTVSPropertyOp18
 70
     1
102
RTVSPropertyOp19
 70
     1
102
RTVSPropertyOp20
 70
     1
102
RTVSPropertyOp21
 70
     1
102
RTVSPropertyOp22
 70
     1
102
RTVSPropertyOp23
 70
     1
102
RTVSPropertyOp24
 70
     1
102
RTVSPropertyOp25
 70
     1
102
RTVSPropertyOp26
 70
     1
102
RTVSPropertyOp27
 70
     1
102
RTVSPropertyOp28
 70
     1
102
RTVSPropertyOp29
 70
     1
102
RTVSPropertyOp30
 70
     1
102
RTVSPropertyOp31
 70
     1
102
RTVSPropertyOp32
 70
     1
  0
XRECORD
  5
84
102
{ACAD_REACTORS
330
83
102
}
330
83
100
AcDbXrecord
280
     1
102
RTVSPropertyOp0
 70
     1
102
RTVSPropertyOp1
 70
     1
102
RTVSPropertyOp2
 70
     1
102
RTVSPropertyOp3
 70
     1
102
RTVSPropertyOp4
 70
     1
102
RTVSPropertyOp5
 70
     1
102
RTVSPropertyOp6
 70
     1
102
RTVSPropertyOp7
 70
     1
102
RTVSPropertyOp8
 70
     1
102
RTVSPropertyOp9
 70
     1
102
RTVSPropertyOp10
 70
     1
102
RTVSPropertyOp11
 70
     1
102
RTVSPropertyOp12
 70
     1
102
RTVSPropertyOp13
 70
     1
102
RTVSPropertyOp14
 70
     1
102
RTVSPropertyOp15
 70
     1
102
RTVSPropertyOp16
 70
     1
102
RTVSPropertyOp17
 70
     1
102
RTVSPropertyOp18
 70
     1
102
RTVSPropertyOp19
 70
     1
102
RTVSPropertyOp20
 70
     1
102
RTVSPropertyOp21
 70
     1
102
RTVSPropertyOp22
 70
     1
102
RTVSPropertyOp23
 70
     1
102
RTVSPropertyOp24
 70
     1
102
RTVSPropertyOp25
 70
     1
102
RTVSPropertyOp26
 70
     1
102
RTVSPropertyOp27
 70
     1
102
RTVSPropertyOp28
 70
     1
102
RTVSPropertyOp29
 70
     1
102
RTVSPropertyOp30
 70
     1
102
RTVSPropertyOp31
 70
     1
102
RTVSPropertyOp32
 70
     1
  0
XRECORD
  5
8C
102
{ACAD_REACTORS
330
8B
102
}
330
8B
100
AcDbXrecord
280
     1
102
RTVSPropertyOp0
 70
     1
102
RTVSPropertyOp1
 70
     1
102
RTVSPropertyOp2
 70
     1
102
RTVSPropertyOp3
 70
     1
102
RTVSPropertyOp4
 70
     1
102
RTVSPropertyOp5
 70
     1
102
RTVSPropertyOp6
 70
     1
102
RTVSPropertyOp7
 70
     1
102
RTVSPropertyOp8
 70
     1
102
RTVSPropertyOp9
 70
     1
102
RTVSPropertyOp10
 70
     1
102
RTVSPropertyOp11
 70
     1
102
RTVSPropertyOp12
 70
     1
102
RTVSPropertyOp13
 70
     1
102
RTVSPropertyOp14
 70
     1
102
RTVSPropertyOp15
 70
     1
102
RTVSPropertyOp16
 70
     1
102
RTVSPropertyOp17
 70
     1
102
RTVSPropertyOp18
 70
     1
102
RTVSPropertyOp19
 70
     1
102
RTVSPropertyOp20
 70
     1
102
RTVSPropertyOp21
 70
     1
102
RTVSPropertyOp22
 70
     1
102
RTVSPropertyOp23
 70
     1
102
RTVSPropertyOp24
 70
     1
102
RTVSPropertyOp25
 70
     1
102
RTVSPropertyOp26
 70
     1
102
RTVSPropertyOp27
 70
     1
102
RTVSPropertyOp28
 70
     1
102
RTVSPropertyOp29
 70
     1
102
RTVSPropertyOp30
 70
     1
102
RTVSPropertyOp31
 70
     1
102
RTVSPropertyOp32
 70
     1
  0
XRECORD
  5
80
102
{ACAD_REACTORS
330
7F
102
}
330
7F
100
AcDbXrecord
280
     1
102
RTVSPropertyOp0
 70
     1
102
RTVSPropertyOp1
 70
     1
102
RTVSPropertyOp2
 70
     1
102
RTVSPropertyOp3
 70
     1
102
RTVSPropertyOp4
 70
     1
102
RTVSPropertyOp5
 70
     1
102
RTVSPropertyOp6
 70
     1
102
RTVSPropertyOp7
 70
     1
102
RTVSPropertyOp8
 70
     1
102
RTVSPropertyOp9
 70
     1
102
RTVSPropertyOp10
 70
     1
102
RTVSPropertyOp11
 70
     1
102
RTVSPropertyOp12
 70
     1
102
RTVSPropertyOp13
 70
     1
102
RTVSPropertyOp14
 70
     1
102
RTVSPropertyOp15
 70
     1
102
RTVSPropertyOp16
 70
     1
102
RTVSPropertyOp17
 70
     1
102
RTVSPropertyOp18
 70
     1
102
RTVSPropertyOp19
 70
     1
102
RTVSPropertyOp20
 70
     1
102
RTVSPropertyOp21
 70
     1
102
RTVSPropertyOp22
 70
     1
102
RTVSPropertyOp23
 70
     1
102
RTVSPropertyOp24
 70
     1
102
RTVSPropertyOp25
 70
     1
102
RTVSPropertyOp26
 70
     1
102
RTVSPropertyOp27
 70
     1
102
RTVSPropertyOp28
 70
     1
102
RTVSPropertyOp29
 70
     1
102
RTVSPropertyOp30
 70
     1
102
RTVSPropertyOp31
 70
     1
102
RTVSPropertyOp32
 70
     1
  0
XRECORD
  5
82
102
{ACAD_REACTORS
330
81
102
}
330
81
100
AcDbXrecord
280
     1
102
RTVSPropertyOp0
 70
     1
102
RTVSPropertyOp1
 70
     1
102
RTVSPropertyOp2
 70
     1
102
RTVSPropertyOp3
 70
     1
102
RTVSPropertyOp4
 70
     1
102
RTVSPropertyOp5
 70
     1
102
RTVSPropertyOp6
 70
     1
102
RTVSPropertyOp7
 70
     1
102
RTVSPropertyOp8
 70
     1
102
RTVSPropertyOp9
 70
     1
102
RTVSPropertyOp10
 70
     1
102
RTVSPropertyOp11
 70
     1
102
RTVSPropertyOp12
 70
     1
102
RTVSPropertyOp13
 70
     1
102
RTVSPropertyOp14
 70
     1
102
RTVSPropertyOp15
 70
     1
102
RTVSPropertyOp16
 70
     1
102
RTVSPropertyOp17
 70
     1
102
RTVSPropertyOp18
 70
     1
102
RTVSPropertyOp19
 70
     1
102
RTVSPropertyOp20
 70
     1
102
RTVSPropertyOp21
 70
     1
102
RTVSPropertyOp22
 70
     1
102
RTVSPropertyOp23
 70
     1
102
RTVSPropertyOp24
 70
     1
102
RTVSPropertyOp25
 70
     1
102
RTVSPropertyOp26
 70
     1
102
RTVSPropertyOp27
 70
     1
102
RTVSPropertyOp28
 70
     1
102
RTVSPropertyOp29
 70
     1
102
RTVSPropertyOp30
 70
     1
102
RTVSPropertyOp31
 70
     1
102
RTVSPropertyOp32
 70
     1
  0
XRECORD
  5
8A
102
{ACAD_REACTORS
330
89
102
}
330
89
100
AcDbXrecord
280
     1
102
RTVSPropertyOp0
 70
     1
102
RTVSPropertyOp1
 70
     1
102
RTVSPropertyOp2
 70
     1
102
RTVSPropertyOp3
 70
     1
102
RTVSPropertyOp4
 70
     1
102
RTVSPropertyOp5
 70
     1
102
RTVSPropertyOp6
 70
     1
102
RTVSPropertyOp7
 70
     1
102
RTVSPropertyOp8
 70
     1
102
RTVSPropertyOp9
 70
     1
102
RTVSPropertyOp10
 70
     1
102
RTVSPropertyOp11
 70
     1
102
RTVSPropertyOp12
 70
     1
102
RTVSPropertyOp13
 70
     1
102
RTVSPropertyOp14
 70
     1
102
RTVSPropertyOp15
 70
     1
102
RTVSPropertyOp16
 70
     1
102
RTVSPropertyOp17
 70
     1
102
RTVSPropertyOp18
 70
     1
102
RTVSPropertyOp19
 70
     1
102
RTVSPropertyOp20
 70
     1
102
RTVSPropertyOp21
 70
     1
102
RTVSPropertyOp22
 70
     1
102
RTVSPropertyOp23
 70
     1
102
RTVSPropertyOp24
 70
     1
102
RTVSPropertyOp25
 70
     1
102
RTVSPropertyOp26
 70
     1
102
RTVSPropertyOp27
 70
     1
102
RTVSPropertyOp28
 70
     1
102
RTVSPropertyOp29
 70
     1
102
RTVSPropertyOp30
 70
     1
102
RTVSPropertyOp31
 70
     1
102
RTVSPropertyOp32
 70
     1
  0
XRECORD
  5
6E
102
{ACAD_REACTORS
330
6D
102
}
330
6D
100
AcDbXrecord
280
     1
102
RTVSPropertyOp0
 70
     1
102
RTVSPropertyOp1
 70
     1
102
RTVSPropertyOp2
 70
     1
102
RTVSPropertyOp3
 70
     1
102
RTVSPropertyOp4
 70
     1
102
RTVSPropertyOp5
 70
     1
102
RTVSPropertyOp6
 70
     1
102
RTVSPropertyOp7
 70
     1
102
RTVSPropertyOp8
 70
     1
102
RTVSPropertyOp9
 70
     1
102
RTVSPropertyOp10
 70
     1
102
RTVSPropertyOp11
 70
     1
102
RTVSPropertyOp12
 70
     1
102
RTVSPropertyOp13
 70
     1
102
RTVSPropertyOp14
 70
     1
102
RTVSPropertyOp15
 70
     1
102
RTVSPropertyOp16
 70
     1
102
RTVSPropertyOp17
 70
     1
102
RTVSPropertyOp18
 70
     1
102
RTVSPropertyOp19
 70
     1
102
RTVSPropertyOp20
 70
     1
102
RTVSPropertyOp21
 70
     1
102
RTVSPropertyOp22
 70
     1
102
RTVSPropertyOp23
 70
     1
102
RTVSPropertyOp24
 70
     1
102
RTVSPropertyOp25
 70
     1
102
RTVSPropertyOp26
 70
     1
102
RTVSPropertyOp27
 70
     1
102
RTVSPropertyOp28
 70
     1
102
RTVSPropertyOp29
 70
     1
102
RTVSPropertyOp30
 70
     1
102
RTVSPropertyOp31
 70
     1
102
RTVSPropertyOp32
 70
     1
  0
XRECORD
  5
70
102
{ACAD_REACTORS
330
6F
102
}
330
6F
100
AcDbXrecord
280
     1
102
RTVSPropertyOp0
 70
     1
102
RTVSPropertyOp1
 70
     1
102
RTVSPropertyOp2
 70
     1
102
RTVSPropertyOp3
 70
     1
102
RTVSPropertyOp4
 70
     1
102
RTVSPropertyOp5
 70
     1
102
RTVSPropertyOp6
 70
     1
102
RTVSPropertyOp7
 70
     1
102
RTVSPropertyOp8
 70
     1
102
RTVSPropertyOp9
 70
     1
102
RTVSPropertyOp10
 70
     1
102
RTVSPropertyOp11
 70
     1
102
RTVSPropertyOp12
 70
     1
102
RTVSPropertyOp13
 70
     1
102
RTVSPropertyOp14
 70
     1
102
RTVSPropertyOp15
 70
     1
102
RTVSPropertyOp16
 70
     1
102
RTVSPropertyOp17
 70
     1
102
RTVSPropertyOp18
 70
     1
102
RTVSPropertyOp19
 70
     1
102
RTVSPropertyOp20
 70
     1
102
RTVSPropertyOp21
 70
     1
102
RTVSPropertyOp22
 70
     1
102
RTVSPropertyOp23
 70
     1
102
RTVSPropertyOp24
 70
     1
102
RTVSPropertyOp25
 70
     1
102
RTVSPropertyOp26
 70
     1
102
RTVSPropertyOp27
 70
     1
102
RTVSPropertyOp28
 70
     1
102
RTVSPropertyOp29
 70
     1
102
RTVSPropertyOp30
 70
     1
102
RTVSPropertyOp31
 70
     1
102
RTVSPropertyOp32
 70
     1
  0
XRECORD
  5
72
102
{ACAD_REACTORS
330
71
102
}
330
71
100
AcDbXrecord
280
     1
102
RTVSPropertyOp0
 70
     1
102
RTVSPropertyOp1
 70
     1
102
RTVSPropertyOp2
 70
     1
102
RTVSPropertyOp3
 70
     1
102
RTVSPropertyOp4
 70
     1
102
RTVSPropertyOp5
 70
     1
102
RTVSPropertyOp6
 70
     1
102
RTVSPropertyOp7
 70
     1
102
RTVSPropertyOp8
 70
     1
102
RTVSPropertyOp9
 70
     1
102
RTVSPropertyOp10
 70
     1
102
RTVSPropertyOp11
 70
     1
102
RTVSPropertyOp12
 70
     1
102
RTVSPropertyOp13
 70
     1
102
RTVSPropertyOp14
 70
     1
102
RTVSPropertyOp15
 70
     1
102
RTVSPropertyOp16
 70
     1
102
RTVSPropertyOp17
 70
     1
102
RTVSPropertyOp18
 70
     1
102
RTVSPropertyOp19
 70
     1
102
RTVSPropertyOp20
 70
     1
102
RTVSPropertyOp21
 70
     1
102
RTVSPropertyOp22
 70
     1
102
RTVSPropertyOp23
 70
     1
102
RTVSPropertyOp24
 70
     1
102
RTVSPropertyOp25
 70
     1
102
RTVSPropertyOp26
 70
     1
102
RTVSPropertyOp27
 70
     1
102
RTVSPropertyOp28
 70
     1
102
RTVSPropertyOp29
 70
     1
102
RTVSPropertyOp30
 70
     1
102
RTVSPropertyOp31
 70
     1
102
RTVSPropertyOp32
 70
     1
  0
XRECORD
  5
74
102
{ACAD_REACTORS
330
73
102
}
330
73
100
AcDbXrecord
280
     1
102
RTVSPropertyOp0
 70
     1
102
RTVSPropertyOp1
 70
     1
102
RTVSPropertyOp2
 70
     1
102
RTVSPropertyOp3
 70
     1
102
RTVSPropertyOp4
 70
     1
102
RTVSPropertyOp5
 70
     1
102
RTVSPropertyOp6
 70
     1
102
RTVSPropertyOp7
 70
     1
102
RTVSPropertyOp8
 70
     1
102
RTVSPropertyOp9
 70
     1
102
RTVSPropertyOp10
 70
     1
102
RTVSPropertyOp11
 70
     1
102
RTVSPropertyOp12
 70
     1
102
RTVSPropertyOp13
 70
     1
102
RTVSPropertyOp14
 70
     1
102
RTVSPropertyOp15
 70
     1
102
RTVSPropertyOp16
 70
     1
102
RTVSPropertyOp17
 70
     1
102
RTVSPropertyOp18
 70
     1
102
RTVSPropertyOp19
 70
     1
102
RTVSPropertyOp20
 70
     1
102
RTVSPropertyOp21
 70
     1
102
RTVSPropertyOp22
 70
     1
102
RTVSPropertyOp23
 70
     1
102
RTVSPropertyOp24
 70
     1
102
RTVSPropertyOp25
 70
     1
102
RTVSPropertyOp26
 70
     1
102
RTVSPropertyOp27
 70
     1
102
RTVSPropertyOp28
 70
     1
102
RTVSPropertyOp29
 70
     1
102
RTVSPropertyOp30
 70
     1
102
RTVSPropertyOp31
 70
     1
102
RTVSPropertyOp32
 70
     1
  0
XRECORD
  5
88
102
{ACAD_REACTORS
330
87
102
}
330
87
100
AcDbXrecord
280
     1
102
RTVSPropertyOp0
 70
     1
102
RTVSPropertyOp1
 70
     1
102
RTVSPropertyOp2
 70
     1
102
RTVSPropertyOp3
 70
     1
102
RTVSPropertyOp4
 70
     1
102
RTVSPropertyOp5
 70
     1
102
RTVSPropertyOp6
 70
     1
102
RTVSPropertyOp7
 70
     1
102
RTVSPropertyOp8
 70
     1
102
RTVSPropertyOp9
 70
     1
102
RTVSPropertyOp10
 70
     1
102
RTVSPropertyOp11
 70
     1
102
RTVSPropertyOp12
 70
     1
102
RTVSPropertyOp13
 70
     1
102
RTVSPropertyOp14
 70
     1
102
RTVSPropertyOp15
 70
     1
102
RTVSPropertyOp16
 70
     1
102
RTVSPropertyOp17
 70
     1
102
RTVSPropertyOp18
 70
     1
102
RTVSPropertyOp19
 70
     1
102
RTVSPropertyOp20
 70
     1
102
RTVSPropertyOp21
 70
     1
102
RTVSPropertyOp22
 70
     1
102
RTVSPropertyOp23
 70
     1
102
RTVSPropertyOp24
 70
     1
102
RTVSPropertyOp25
 70
     1
102
RTVSPropertyOp26
 70
     1
102
RTVSPropertyOp27
 70
     1
102
RTVSPropertyOp28
 70
     1
102
RTVSPropertyOp29
 70
     1
102
RTVSPropertyOp30
 70
     1
102
RTVSPropertyOp31
 70
     1
102
RTVSPropertyOp32
 70
     1
  0
XRECORD
  5
7E
102
{ACAD_REACTORS
330
7D
102
}
330
7D
100
AcDbXrecord
280
     1
102
RTVSPropertyOp0
 70
     1
102
RTVSPropertyOp1
 70
     1
102
RTVSPropertyOp2
 70
     1
102
RTVSPropertyOp3
 70
     1
102
RTVSPropertyOp4
 70
     1
102
RTVSPropertyOp5
 70
     1
102
RTVSPropertyOp6
 70
     1
102
RTVSPropertyOp7
 70
     1
102
RTVSPropertyOp8
 70
     1
102
RTVSPropertyOp9
 70
     1
102
RTVSPropertyOp10
 70
     1
102
RTVSPropertyOp11
 70
     1
102
RTVSPropertyOp12
 70
     1
102
RTVSPropertyOp13
 70
     1
102
RTVSPropertyOp14
 70
     1
102
RTVSPropertyOp15
 70
     1
102
RTVSPropertyOp16
 70
     1
102
RTVSPropertyOp17
 70
     1
102
RTVSPropertyOp18
 70
     1
102
RTVSPropertyOp19
 70
     1
102
RTVSPropertyOp20
 70
     1
102
RTVSPropertyOp21
 70
     1
102
RTVSPropertyOp22
 70
     1
102
RTVSPropertyOp23
 70
     1
102
RTVSPropertyOp24
 70
     1
102
RTVSPropertyOp25
 70
     1
102
RTVSPropertyOp26
 70
     1
102
RTVSPropertyOp27
 70
     1
102
RTVSPropertyOp28
 70
     1
102
RTVSPropertyOp29
 70
     1
102
RTVSPropertyOp30
 70
     1
102
RTVSPropertyOp31
 70
     1
102
RTVSPropertyOp32
 70
     1
  0
XRECORD
  5
86
102
{ACAD_REACTORS
330
85
102
}
330
85
100
AcDbXrecord
280
     1
102
RTVSPropertyOp0
 70
     1
102
RTVSPropertyOp1
 70
     1
102
RTVSPropertyOp2
 70
     1
102
RTVSPropertyOp3
 70
     1
102
RTVSPropertyOp4
 70
     1
102
RTVSPropertyOp5
 70
     1
102
RTVSPropertyOp6
 70
     1
102
RTVSPropertyOp7
 70
     1
102
RTVSPropertyOp8
 70
     1
102
RTVSPropertyOp9
 70
     1
102
RTVSPropertyOp10
 70
     1
102
RTVSPropertyOp11
 70
     1
102
RTVSPropertyOp12
 70
     1
102
RTVSPropertyOp13
 70
     1
102
RTVSPropertyOp14
 70
     1
102
RTVSPropertyOp15
 70
     1
102
RTVSPropertyOp16
 70
     1
102
RTVSPropertyOp17
 70
     1
102
RTVSPropertyOp18
 70
     1
102
RTVSPropertyOp19
 70
     1
102
RTVSPropertyOp20
 70
     1
102
RTVSPropertyOp21
 70
     1
102
RTVSPropertyOp22
 70
     1
102
RTVSPropertyOp23
 70
     1
102
RTVSPropertyOp24
 70
     1
102
RTVSPropertyOp25
 70
     1
102
RTVSPropertyOp26
 70
     1
102
RTVSPropertyOp27
 70
     1
102
RTVSPropertyOp28
 70
     1
102
RTVSPropertyOp29
 70
     1
102
RTVSPropertyOp30
 70
     1
102
RTVSPropertyOp31
 70
     1
102
RTVSPropertyOp32
 70
     1
  0
ENDSEC
  0
EOF
