<?xml version="1.0" encoding="UTF-8"?>
<!DOCTYPE svg PUBLIC "-//W3C//DTD SVG 1.1//EN" "http://www.w3.org/Graphics/SVG/1.1/DTD/svg11.dtd">
<!-- Creator: CorelDRAW X6 -->
<svg xmlns="http://www.w3.org/2000/svg" xml:space="preserve" width="200mm" height="200mm" version="1.1" shape-rendering="geometricPrecision" text-rendering="geometricPrecision" image-rendering="optimizeQuality" fill-rule="evenodd" clip-rule="evenodd"
viewBox="0 0 20000 20000"
 xmlns:xlink="http://www.w3.org/1999/xlink">
 <g id="Layer_x0020_1">
  <metadata id="CorelCorpID_0Corel-Layer"/>
  <g id="_870503456">
   <circle fill="none" stroke="black" stroke-width="52.92" stroke-linecap="round" stroke-linejoin="round" transform="matrix(1.6266E-014 -0.614169 0.614169 1.6266E-014 -0.03 20000)" r="529"/>
   <circle fill="none" stroke="black" stroke-width="52.92" stroke-linecap="round" stroke-linejoin="round" transform="matrix(1.6266E-014 -0.614169 0.614169 1.6266E-014 1499.97 20000)" r="529"/>
   <circle fill="none" stroke="black" stroke-width="52.92" stroke-linecap="round" stroke-linejoin="round" transform="matrix(1.6266E-014 -0.614169 0.614169 1.6266E-014 -1500.03 20000)" r="529"/>
   <path fill="none" fill-rule="nonzero" stroke="blue" stroke-width="52.92" stroke-linecap="round" stroke-linejoin="round" d="M-730 17578c-79,57 -185,1 -200,-92 -20,-120 147,-186 224,-97 46,54 34,147 -24,188"/>
   <path fill="none" fill-rule="nonzero" stroke="blue" stroke-width="52.92" stroke-linecap="round" stroke-linejoin="round" d="M-806 17428c-5,-18 -23,-31 -48,-25 -49,13 -32,86 19,76 23,-4 34,-31 29,-51z"/>
   <path fill="none" fill-rule="nonzero" stroke="blue" stroke-width="52.92" stroke-linecap="round" stroke-linejoin="round" d="M954 17509c-14,41 -45,77 -87,88 -92,25 -196,-77 -160,-171 29,-97 173,-115 231,-39 27,35 30,82 16,123"/>
   <path fill="none" fill-rule="nonzero" stroke="blue" stroke-width="52.92" stroke-linecap="round" stroke-linejoin="round" d="M776 17406c13,-10 32,-13 45,-3 19,13 22,42 6,58 -12,13 -34,16 -49,6 -10,-6 -16,-17 -18,-29 -2,-13 4,-24 15,-32z"/>
   <path fill="none" fill-rule="nonzero" stroke="blue" stroke-width="52.92" stroke-linecap="round" stroke-linejoin="round" d="M-44 17415c0,-440 -356,-796 -796,-796 -440,0 -796,356 -796,796 0,440 357,796 796,796 440,0 796,-356 796,-796"/>
   <path fill="none" fill-rule="nonzero" stroke="blue" stroke-width="52.92" stroke-linecap="round" stroke-linejoin="round" d="M1627 17415c0,-440 -356,-796 -796,-796 -440,0 -796,356 -796,796 0,440 357,796 796,796 440,0 796,-356 796,-796"/>
   <path fill="none" fill-rule="nonzero" stroke="blue" stroke-width="52.92" stroke-linecap="round" stroke-linejoin="round" d="M304 18399c0,184 -149,333 -333,333"/>
   <path fill="none" fill-rule="nonzero" stroke="blue" stroke-width="52.92" stroke-linecap="round" stroke-linejoin="round" d="M-29 18732c-184,0 -333,-149 -333,-333"/>
   <path fill="none" fill-rule="nonzero" stroke="blue" stroke-width="52.92" stroke-linecap="round" stroke-linejoin="round" d="M-1859 17979c-44,-176 -2,-378 3,-556 60,79 92,193 151,278 -68,-319 -57,-677 -16,-999 17,-134 28,-286 73,-414 31,-86 124,-159 147,-241 44,-163 -156,-131 -280,-99 -382,98 -438,573 -450,901 -7,198 5,395 16,592 11,185 50,459 -16,629 49,-125 143,-223 203,-340 39,101 75,221 111,315 15,-41 32,-90 44,-123 15,10 19,24 13,44l0 13z"/>
   <path fill="none" fill-rule="nonzero" stroke="blue" stroke-width="52.92" stroke-linecap="round" stroke-linejoin="round" d="M1726 16603c23,34 0,268 0,358l0 396c0,162 -9,328 3,490 44,-94 103,-198 170,-281 37,130 52,267 80,398 72,-112 125,-286 132,-421 63,43 125,124 147,199 50,-157 -3,-447 -3,-621 0,-167 4,-339 -36,-501 -45,-180 -110,-377 -234,-518 -78,-89 -252,-213 -376,-205 -268,19 -71,293 5,415 106,172 109,296 112,291z"/>
   <path fill="none" fill-rule="nonzero" stroke="blue" stroke-width="52.92" stroke-linecap="round" stroke-linejoin="round" d="M286 16411c-27,-37 -98,-199 -98,-199 0,0 302,87 360,106 267,89 561,159 842,148 -14,-44 -34,-87 -58,-127 -28,-47 -64,-93 -83,-145 -67,-175 150,-201 272,-175 80,17 -11,-314 -23,-337 -51,-96 -128,-159 -211,-226 -245,-197 -516,-263 -818,-322 -154,-30 -301,-19 -457,-15 -239,6 -473,52 -702,122 -194,59 -373,150 -547,254 -75,45 -154,96 -208,165 -194,247 14,467 238,578 106,52 219,92 301,125 163,65 314,93 482,114 -40,-65 -115,-108 -138,-177 2,6 225,102 250,111 87,30 171,68 256,104 148,62 352,107 516,72 -70,-54 -128,-111 -175,-176z"/>
   <path fill="none" fill-rule="nonzero" stroke="blue" stroke-width="52.92" stroke-linecap="round" stroke-linejoin="round" d="M1561 15894c-1043,126 -2082,124 -3119,0"/>
   <path fill="none" fill-rule="nonzero" stroke="blue" stroke-width="52.92" stroke-linecap="round" stroke-linejoin="round" d="M1976 14054c0,-55 -428,-100 -956,-100 -528,0 -956,45 -956,100 0,55 428,100 956,100 528,0 956,-45 956,-100z"/>
   <path fill="none" fill-rule="nonzero" stroke="blue" stroke-width="52.92" stroke-linecap="round" stroke-linejoin="round" d="M-140 14054c0,-55 -428,-100 -956,-100 -528,0 -956,45 -956,100 0,55 428,100 956,100 528,0 956,-45 956,-100z"/>
   <path fill="none" fill-rule="nonzero" stroke="blue" stroke-width="52.92" stroke-linecap="round" stroke-linejoin="round" d="M-814 15284c108,-401 308,-806 630,-1159"/>
   <path fill="none" fill-rule="nonzero" stroke="blue" stroke-width="52.92" stroke-linecap="round" stroke-linejoin="round" d="M151 14125c369,333 594,697 706,1103"/>
   <path fill="none" fill-rule="nonzero" stroke="blue" stroke-width="52.92" stroke-linecap="round" stroke-linejoin="round" d="M-127 14099c-73,108 -194,624 87,624 280,0 160,-516 87,-624 -27,-40 -60,-58 -87,-58 -26,0 -59,18 -87,58"/>
   <path fill="none" stroke="black" stroke-width="52.92" stroke-linecap="round" stroke-linejoin="round" d="M-1875 17884l0 -205c-5,70 -7,139 0,205z"/>
   <path fill="none" stroke="black" stroke-width="52.92" stroke-linecap="round" stroke-linejoin="round" d="M1700 20700l-3400 0c-276,0 -500,-224 -500,-500l0 -400c0,-276 224,-500 500,-500l1213 0 0 -347 -781 0c-334,0 -607,-273 -607,-607l0 -417c-11,33 -27,78 -41,116 -37,-94 -73,-214 -111,-315 -61,118 -155,215 -203,340 66,-171 26,-444 16,-629 -11,-197 -23,-395 -16,-592 12,-328 68,-803 450,-901 108,-28 276,-56 286,47l8 -3c-16,-30 -26,-61 -31,-93l-39 -5c-2,-39 -4,-78 -4,-117 0,-813 523,-1493 1223,-1662 -175,24 -449,39 -758,39 -528,0 -956,-45 -956,-100 0,-55 428,-100 956,-100 401,0 745,26 887,62 7,-93 85,-167 180,-167 94,0 171,71 180,163 151,-34 484,-58 870,-58 528,0 956,45 956,100 0,55 -428,100 -956,100 -238,0 -455,-9 -622,-24 671,191 1167,856 1167,1647 0,39 -1,79 -4,117l-13 2c1,4 1,8 1,11 17,-5 36,-9 59,-10 124,-9 298,116 376,205 123,140 189,337 234,518 40,162 36,334 36,501 0,174 53,464 3,621 -22,-75 -84,-156 -147,-199 -7,135 -60,309 -132,421 -28,-130 -43,-267 -80,-398 -25,31 -49,65 -71,100l0 681c0,334 -273,607 -607,607l-733 0 0 347 1213 0c276,0 500,224 500,500l0 400c0,276 -224,500 -500,500z"/>
  </g>
  <circle fill="none" stroke="black" stroke-width="52.92" stroke-linecap="round" stroke-linejoin="round" transform="matrix(9.00886E-015 -0.340155 0.340155 9.00886E-015 -750.03 20000)" r="529"/>
  <circle fill="none" stroke="black" stroke-width="52.92" stroke-linecap="round" stroke-linejoin="round" transform="matrix(9.00886E-015 -0.340155 0.340155 9.00886E-015 749.97 20000)" r="529"/>
 </g>
</svg>
