  0
SECTION
  2
HEADER
  9
$ACADVER
  1
AC1021
  9
$ACADMAINTVER
 70
    25
  9
$DWGCODEPAGE
  3
ANSI_1252
  9
$INSBASE
 10
0.0
 20
0.0
 30
0.0
  9
$EXTMIN
 10
-12.25987
 20
-10.7265
 30
0.0
  9
$EXTMAX
 10
-7.69393
 20
-3.8233
 30
0.0
  9
$LIMMIN
 10
0.0
 20
0.0
  9
$LIMMAX
 10
12.0
 20
9.0
  9
$ORTHOMODE
 70
     0
  9
$REGENMODE
 70
     1
  9
$FILLMODE
 70
     1
  9
$QTEXTMODE
 70
     0
  9
$MIRRTEXT
 70
     1
  9
$LTSCALE
 40
1.0
  9
$ATTMODE
 70
     1
  9
$TEXTSIZE
 40
0.2
  9
$TRACEWID
 40
0.05
  9
$TEXTSTYLE
  7
Standard
  9
$CLAYER
  8
0
  9
$CELTYPE
  6
ByLayer
  9
$CECOLOR
 62
   256
  9
$CELTSCALE
 40
1.0
  9
$DISPSILH
 70
     0
  9
$DIMSCALE
 40
1.0
  9
$DIMASZ
 40
0.18
  9
$DIMEXO
 40
0.0625
  9
$DIMDLI
 40
0.38
  9
$DIMRND
 40
0.0
  9
$DIMDLE
 40
0.0
  9
$DIMEXE
 40
0.18
  9
$DIMTP
 40
0.0
  9
$DIMTM
 40
0.0
  9
$DIMTXT
 40
0.18
  9
$DIMCEN
 40
0.09
  9
$DIMTSZ
 40
0.0
  9
$DIMTOL
 70
     0
  9
$DIMLIM
 70
     0
  9
$DIMTIH
 70
     1
  9
$DIMTOH
 70
     1
  9
$DIMSE1
 70
     0
  9
$DIMSE2
 70
     0
  9
$DIMTAD
 70
     0
  9
$DIMZIN
 70
     0
  9
$DIMBLK
  1

  9
$DIMASO
 70
     1
  9
$DIMSHO
 70
     1
  9
$DIMPOST
  1

  9
$DIMAPOST
  1

  9
$DIMALT
 70
     0
  9
$DIMALTD
 70
     2
  9
$DIMALTF
 40
25.4
  9
$DIMLFAC
 40
1.0
  9
$DIMTOFL
 70
     0
  9
$DIMTVP
 40
0.0
  9
$DIMTIX
 70
     0
  9
$DIMSOXD
 70
     0
  9
$DIMSAH
 70
     0
  9
$DIMBLK1
  1

  9
$DIMBLK2
  1

  9
$DIMSTYLE
  2
Standard
  9
$DIMCLRD
 70
     0
  9
$DIMCLRE
 70
     0
  9
$DIMCLRT
 70
     0
  9
$DIMTFAC
 40
1.0
  9
$DIMGAP
 40
0.09
  9
$DIMJUST
 70
     0
  9
$DIMSD1
 70
     0
  9
$DIMSD2
 70
     0
  9
$DIMTOLJ
 70
     1
  9
$DIMTZIN
 70
     0
  9
$DIMALTZ
 70
     0
  9
$DIMALTTZ
 70
     0
  9
$DIMUPT
 70
     0
  9
$DIMDEC
 70
     4
  9
$DIMTDEC
 70
     4
  9
$DIMALTU
 70
     2
  9
$DIMALTTD
 70
     2
  9
$DIMTXSTY
  7
Standard
  9
$DIMAUNIT
 70
     0
  9
$DIMADEC
 70
     0
  9
$DIMALTRND
 40
0.0
  9
$DIMAZIN
 70
     0
  9
$DIMDSEP
 70
    46
  9
$DIMATFIT
 70
     3
  9
$DIMFRAC
 70
     0
  9
$DIMLDRBLK
  1

  9
$DIMLUNIT
 70
     2
  9
$DIMLWD
 70
    -2
  9
$DIMLWE
 70
    -2
  9
$DIMTMOVE
 70
     0
  9
$DIMFXL
 40
1.0
  9
$DIMFXLON
 70
     0
  9
$DIMJOGANG
 40
0.7853981633974483
  9
$DIMTFILL
 70
     0
  9
$DIMTFILLCLR
 70
     0
  9
$DIMARCSYM
 70
     0
  9
$DIMLTYPE
  6

  9
$DIMLTEX1
  6

  9
$DIMLTEX2
  6

  9
$LUNITS
 70
     2
  9
$LUPREC
 70
     4
  9
$SKETCHINC
 40
0.1
  9
$FILLETRAD
 40
0.5
  9
$AUNITS
 70
     0
  9
$AUPREC
 70
     0
  9
$MENU
  1
.
  9
$ELEVATION
 40
0.0
  9
$PELEVATION
 40
0.0
  9
$THICKNESS
 40
0.0
  9
$LIMCHECK
 70
     0
  9
$CHAMFERA
 40
0.5
  9
$CHAMFERB
 40
0.5
  9
$CHAMFERC
 40
1.0
  9
$CHAMFERD
 40
0.0
  9
$SKPOLY
 70
     0
  9
$TDCREATE
 40
2460555.113509294
  9
$TDUCREATE
 40
2460555.071842627
  9
$TDUPDATE
 40
2460555.11350934
  9
$TDUUPDATE
 40
2460555.071842674
  9
$TDINDWG
 40
0.0000000116
  9
$TDUSRTIMER
 40
0.0000000116
  9
$USRTIMER
 70
     1
  9
$ANGBASE
 50
0.0
  9
$ANGDIR
 70
     0
  9
$PDMODE
 70
     0
  9
$PDSIZE
 40
0.0
  9
$PLINEWID
 40
0.0
  9
$SPLFRAME
 70
     0
  9
$SPLINETYPE
 70
     6
  9
$SPLINESEGS
 70
     8
  9
$HANDSEED
  5
7B
  9
$SURFTAB1
 70
     6
  9
$SURFTAB2
 70
     6
  9
$SURFTYPE
 70
     6
  9
$SURFU
 70
     6
  9
$SURFV
 70
     6
  9
$UCSBASE
  2

  9
$UCSNAME
  2

  9
$UCSORG
 10
0.0
 20
0.0
 30
0.0
  9
$UCSXDIR
 10
1.0
 20
0.0
 30
0.0
  9
$UCSYDIR
 10
0.0
 20
1.0
 30
0.0
  9
$UCSORTHOREF
  2

  9
$UCSORTHOVIEW
 70
     0
  9
$UCSORGTOP
 10
0.0
 20
0.0
 30
0.0
  9
$UCSORGBOTTOM
 10
0.0
 20
0.0
 30
0.0
  9
$UCSORGLEFT
 10
0.0
 20
0.0
 30
0.0
  9
$UCSORGRIGHT
 10
0.0
 20
0.0
 30
0.0
  9
$UCSORGFRONT
 10
0.0
 20
0.0
 30
0.0
  9
$UCSORGBACK
 10
0.0
 20
0.0
 30
0.0
  9
$PUCSBASE
  2

  9
$PUCSNAME
  2

  9
$PUCSORG
 10
0.0
 20
0.0
 30
0.0
  9
$PUCSXDIR
 10
1.0
 20
0.0
 30
0.0
  9
$PUCSYDIR
 10
0.0
 20
1.0
 30
0.0
  9
$PUCSORTHOREF
  2

  9
$PUCSORTHOVIEW
 70
     0
  9
$PUCSORGTOP
 10
0.0
 20
0.0
 30
0.0
  9
$PUCSORGBOTTOM
 10
0.0
 20
0.0
 30
0.0
  9
$PUCSORGLEFT
 10
0.0
 20
0.0
 30
0.0
  9
$PUCSORGRIGHT
 10
0.0
 20
0.0
 30
0.0
  9
$PUCSORGFRONT
 10
0.0
 20
0.0
 30
0.0
  9
$PUCSORGBACK
 10
0.0
 20
0.0
 30
0.0
  9
$USERI1
 70
     0
  9
$USERI2
 70
     0
  9
$USERI3
 70
     0
  9
$USERI4
 70
     0
  9
$USERI5
 70
     0
  9
$USERR1
 40
0.0
  9
$USERR2
 40
0.0
  9
$USERR3
 40
0.0
  9
$USERR4
 40
0.0
  9
$USERR5
 40
0.0
  9
$WORLDVIEW
 70
     1
  9
$SHADEDGE
 70
     3
  9
$SHADEDIF
 70
    70
  9
$TILEMODE
 70
     1
  9
$MAXACTVP
 70
    64
  9
$PINSBASE
 10
0.0
 20
0.0
 30
0.0
  9
$PLIMCHECK
 70
     0
  9
$PEXTMIN
 10
1.000000000000000E+20
 20
1.000000000000000E+20
 30
1.000000000000000E+20
  9
$PEXTMAX
 10
-1.000000000000000E+20
 20
-1.000000000000000E+20
 30
-1.000000000000000E+20
  9
$PLIMMIN
 10
0.0
 20
0.0
  9
$PLIMMAX
 10
12.0
 20
9.0
  9
$UNITMODE
 70
     0
  9
$VISRETAIN
 70
     1
  9
$PLINEGEN
 70
     0
  9
$PSLTSCALE
 70
     1
  9
$TREEDEPTH
 70
  3020
  9
$CMLSTYLE
  2
Standard
  9
$CMLJUST
 70
     0
  9
$CMLSCALE
 40
1.0
  9
$PROXYGRAPHICS
 70
     1
  9
$MEASUREMENT
 70
     0
  9
$CELWEIGHT
370
    -1
  9
$ENDCAPS
280
     0
  9
$JOINSTYLE
280
     0
  9
$LWDISPLAY
290
     0
  9
$INSUNITS
 70
     5
  9
$HYPERLINKBASE
  1

  9
$STYLESHEET
  1

  9
$XEDIT
290
     1
  9
$CEPSNTYPE
380
     0
  9
$PSTYLEMODE
290
     1
  9
$FINGERPRINTGUID
  2
{B45EFC1C-7391-4A07-A2D2-BF1AB2A71EB9}
  9
$VERSIONGUID
  2
{FAEB1C32-E019-11D5-929B-00C0DF256EC4}
  9
$EXTNAMES
290
     1
  9
$PSVPSCALE
 40
0.0
  9
$OLESTARTUP
290
     0
  9
$SORTENTS
280
   127
  9
$INDEXCTL
280
     0
  9
$HIDETEXT
280
     1
  9
$XCLIPFRAME
290
     0
  9
$HALOGAP
280
     0
  9
$OBSCOLOR
 70
   257
  9
$OBSLTYPE
280
     0
  9
$INTERSECTIONDISPLAY
280
     0
  9
$INTERSECTIONCOLOR
 70
   257
  9
$DIMASSOC
280
     2
  9
$PROJECTNAME
  1

  9
$CAMERADISPLAY
290
     0
  9
$LENSLENGTH
 40
50.0
  9
$CAMERAHEIGHT
 40
0.0
  9
$STEPSPERSEC
 40
2.0
  9
$STEPSIZE
 40
6.0
  9
$3DDWFPREC
 40
2.0
  9
$PSOLWIDTH
 40
0.25
  9
$PSOLHEIGHT
 40
4.0
  9
$LOFTANG1
 40
1.570796326794897
  9
$LOFTANG2
 40
1.570796326794897
  9
$LOFTMAG1
 40
0.0
  9
$LOFTMAG2
 40
0.0
  9
$LOFTPARAM
 70
     7
  9
$LOFTNORMALS
280
     1
  9
$LATITUDE
 40
37.795
  9
$LONGITUDE
 40
-122.394
  9
$NORTHDIRECTION
 40
0.0
  9
$TIMEZONE
 70
 -8000
  9
$LIGHTGLYPHDISPLAY
280
     1
  9
$TILEMODELIGHTSYNCH
280
     1
  9
$SOLIDHIST
280
     1
  9
$SHOWHIST
280
     1
  9
$DWFFRAME
280
     2
  9
$DGNFRAME
280
     2
  9
$REALWORLDSCALE
290
     1
  9
$INTERFERECOLOR
 62
   256
  9
$CSHADOW
280
     0
  9
$SHADOWPLANELOCATION
 40
0.0
  0
ENDSEC
  0
SECTION
  2
CLASSES
  0
CLASS
  1
ACDBDICTIONARYWDFLT
  2
AcDbDictionaryWithDefault
  3
ObjectDBX Classes
 90
        0
 91
        4
280
     0
281
     0
  0
CLASS
  1
VISUALSTYLE
  2
AcDbVisualStyle
  3
ObjectDBX Classes
 90
     4095
 91
        4
280
     0
281
     0
  0
CLASS
  1
MATERIAL
  2
AcDbMaterial
  3
ObjectDBX Classes
 90
     1153
 91
        4
280
     0
281
     0
  0
ENDSEC
  0
SECTION
  2
TABLES
  0
TABLE
  2
VPORT
  5
8
330
0
100
AcDbSymbolTable
 70
     1
  0
VPORT
  5
29
330
8
100
AcDbSymbolTableRecord
100
AcDbViewportTableRecord
  2
*Active
 70
     0
 10
0.0
 20
0.0
 11
1.0
 21
1.0
 12
10.42990654205607
 22
4.5
 13
0.0
 23
0.0
 14
0.5
 24
0.5
 15
0.5
 25
0.5
 16
0.0
 26
0.0
 36
1.0
 17
0.0
 27
0.0
 37
0.0
 40
9.0
 41
1.972972972850329
 42
50.0
 43
0.0
 44
0.0
 50
0.0
 51
0.0
 71
     0
 72
   100
 73
     1
 74
     3
 75
     0
 76
     0
 77
     0
 78
     0
281
     0
 65
     1
110
0.0
120
0.0
130
0.0
111
1.0
121
0.0
131
0.0
112
0.0
122
1.0
132
0.0
 79
     0
146
0.0
 60
     3
 61
     5
292
     1
282
     1
141
0.0
142
0.0
 63
   250
  0
ENDTAB
  0
TABLE
  2
LTYPE
  5
5
330
0
100
AcDbSymbolTable
 70
     1
  0
LTYPE
  5
14
330
5
100
AcDbSymbolTableRecord
100
AcDbLinetypeTableRecord
  2
ByBlock
 70
     0
  3

 72
    65
 73
     0
 40
0.0
  0
LTYPE
  5
15
330
5
100
AcDbSymbolTableRecord
100
AcDbLinetypeTableRecord
  2
ByLayer
 70
     0
  3

 72
    65
 73
     0
 40
0.0
  0
LTYPE
  5
16
330
5
100
AcDbSymbolTableRecord
100
AcDbLinetypeTableRecord
  2
Continuous
 70
     0
  3
Solid line
 72
    65
 73
     0
 40
0.0
  0
ENDTAB
  0
TABLE
  2
LAYER
  5
2
330
0
100
AcDbSymbolTable
 70
     2
  0
LAYER
  5
10
330
2
100
AcDbSymbolTableRecord
100
AcDbLayerTableRecord
  2
0
 70
     0
 62
     7
  6
Continuous
370
    -3
390
F
347
3E
  0
LAYER
  5
40
330
2
100
AcDbSymbolTableRecord
100
AcDbLayerTableRecord
  2
Layer 1
 70
     0
 62
     7
  6
Continuous
370
    -3
390
F
347
3E
  0
ENDTAB
  0
TABLE
  2
STYLE
  5
3
330
0
100
AcDbSymbolTable
 70
     1
  0
STYLE
  5
11
330
3
100
AcDbSymbolTableRecord
100
AcDbTextStyleTableRecord
  2
Standard
 70
     0
 40
0.0
 41
1.0
 50
0.0
 71
     0
 42
0.2
  3
txt
  4

  0
ENDTAB
  0
TABLE
  2
VIEW
  5
6
330
0
100
AcDbSymbolTable
 70
     0
  0
ENDTAB
  0
TABLE
  2
UCS
  5
7
330
0
100
AcDbSymbolTable
 70
     0
  0
ENDTAB
  0
TABLE
  2
APPID
  5
9
330
0
100
AcDbSymbolTable
 70
     2
  0
APPID
  5
12
330
9
100
AcDbSymbolTableRecord
100
AcDbRegAppTableRecord
  2
ACAD
 70
     0
  0
APPID
  5
3F
330
9
100
AcDbSymbolTableRecord
100
AcDbRegAppTableRecord
  2
ODA
 70
     0
  0
ENDTAB
  0
TABLE
  2
DIMSTYLE
  5
A
330
0
100
AcDbSymbolTable
 70
     1
100
AcDbDimStyleTable
  0
DIMSTYLE
105
27
330
A
100
AcDbSymbolTableRecord
100
AcDbDimStyleTableRecord
  2
Standard
 70
     0
178
     0
340
11
  0
ENDTAB
  0
TABLE
  2
BLOCK_RECORD
  5
1
330
0
100
AcDbSymbolTable
 70
     1
  0
BLOCK_RECORD
  5
1F
330
1
100
AcDbSymbolTableRecord
100
AcDbBlockTableRecord
  2
*Model_Space
340
22
 70
     0
280
     1
281
     0
  0
BLOCK_RECORD
  5
1B
330
1
100
AcDbSymbolTableRecord
100
AcDbBlockTableRecord
  2
*Paper_Space
340
1E
 70
     0
280
     1
281
     0
  0
BLOCK_RECORD
  5
23
330
1
100
AcDbSymbolTableRecord
100
AcDbBlockTableRecord
  2
*Paper_Space0
340
26
 70
     0
280
     1
281
     0
  0
ENDTAB
  0
ENDSEC
  0
SECTION
  2
BLOCKS
  0
BLOCK
  5
20
330
1F
100
AcDbEntity
  8
0
100
AcDbBlockBegin
  2
*Model_Space
 70
     0
 10
0.0
 20
0.0
 30
0.0
  3
*Model_Space
  1

  0
ENDBLK
  5
21
330
1F
100
AcDbEntity
  8
0
100
AcDbBlockEnd
  0
BLOCK
  5
1C
330
1B
100
AcDbEntity
 67
     1
  8
0
100
AcDbBlockBegin
  2
*Paper_Space
 70
     0
 10
0.0
 20
0.0
 30
0.0
  3
*Paper_Space
  1

  0
ENDBLK
  5
1D
330
1B
100
AcDbEntity
 67
     1
  8
0
100
AcDbBlockEnd
  0
BLOCK
  5
24
330
23
100
AcDbEntity
  8
0
100
AcDbBlockBegin
  2
*Paper_Space0
 70
     0
 10
0.0
 20
0.0
 30
0.0
  3
*Paper_Space0
  1

  0
ENDBLK
  5
25
330
23
100
AcDbEntity
  8
0
100
AcDbBlockEnd
  0
ENDSEC
  0
SECTION
  2
ENTITIES
  0
SPLINE
  5
41
330
1F
100
AcDbEntity
  8
Layer 1
370
    53
100
AcDbSpline
210
0.0
220
0.0
230
1.0
 70
    11
 71
     3
 72
    20
 73
    16
 74
     0
 42
0.0000000001
 43
0.0000000001
 12
1.0
 22
0.0
 32
0.0
 13
1.0
 23
0.0
 33
0.0
 40
0.0
 40
0.0
 40
0.0
 40
0.0
 40
0.2
 40
0.2
 40
0.2
 40
0.2
 40
0.4
 40
0.4
 40
0.4
 40
0.4
 40
0.6
 40
0.6
 40
0.6
 40
0.6
 40
1.0
 40
1.0
 40
1.0
 40
1.0
 10
-10.32503
 20
-10.00004
 30
0.0
 10
-10.32503
 20
-9.82055
 30
0.0
 10
-10.17952
 20
-9.67504
 30
0.0
 10
-10.00003
 20
-9.67504
 30
0.0
 10
-10.00003
 20
-9.67504
 30
0.0
 10
-9.82054
 20
-9.67504
 30
0.0
 10
-9.67503
 20
-9.82055
 30
0.0
 10
-9.67503
 20
-10.00004
 30
0.0
 10
-9.67503
 20
-10.00004
 30
0.0
 10
-9.67503
 20
-10.17953
 30
0.0
 10
-9.82054
 20
-10.32504
 30
0.0
 10
-10.00003
 20
-10.32504
 30
0.0
 10
-10.00003
 20
-10.32504
 30
0.0
 10
-10.17952
 20
-10.32504
 30
0.0
 10
-10.32503
 20
-10.17953
 30
0.0
 10
-10.32503
 20
-10.00004
 30
0.0
  0
SPLINE
  5
42
330
1F
100
AcDbEntity
  8
Layer 1
370
    53
100
AcDbSpline
210
0.0
220
0.0
230
1.0
 70
    11
 71
     3
 72
    20
 73
    16
 74
     0
 42
0.0000000001
 43
0.0000000001
 12
1.0
 22
0.0
 32
0.0
 13
1.0
 23
0.0
 33
0.0
 40
0.0
 40
0.0
 40
0.0
 40
0.0
 40
0.2
 40
0.2
 40
0.2
 40
0.2
 40
0.4
 40
0.4
 40
0.4
 40
0.4
 40
0.6
 40
0.6
 40
0.6
 40
0.6
 40
1.0
 40
1.0
 40
1.0
 40
1.0
 10
-8.82503
 20
-10.00004
 30
0.0
 10
-8.82503
 20
-9.82055
 30
0.0
 10
-8.67952
 20
-9.67504
 30
0.0
 10
-8.50003
 20
-9.67504
 30
0.0
 10
-8.50003
 20
-9.67504
 30
0.0
 10
-8.32054
 20
-9.67504
 30
0.0
 10
-8.17503
 20
-9.82055
 30
0.0
 10
-8.17503
 20
-10.00004
 30
0.0
 10
-8.17503
 20
-10.00004
 30
0.0
 10
-8.17503
 20
-10.17953
 30
0.0
 10
-8.32054
 20
-10.32504
 30
0.0
 10
-8.50003
 20
-10.32504
 30
0.0
 10
-8.50003
 20
-10.32504
 30
0.0
 10
-8.67952
 20
-10.32504
 30
0.0
 10
-8.82503
 20
-10.17953
 30
0.0
 10
-8.82503
 20
-10.00004
 30
0.0
  0
SPLINE
  5
43
330
1F
100
AcDbEntity
  8
Layer 1
370
    53
100
AcDbSpline
210
0.0
220
0.0
230
1.0
 70
    11
 71
     3
 72
    20
 73
    16
 74
     0
 42
0.0000000001
 43
0.0000000001
 12
1.0
 22
0.0
 32
0.0
 13
1.0
 23
0.0
 33
0.0
 40
0.0
 40
0.0
 40
0.0
 40
0.0
 40
0.2
 40
0.2
 40
0.2
 40
0.2
 40
0.4
 40
0.4
 40
0.4
 40
0.4
 40
0.6
 40
0.6
 40
0.6
 40
0.6
 40
1.0
 40
1.0
 40
1.0
 40
1.0
 10
-11.82503
 20
-10.00004
 30
0.0
 10
-11.82503
 20
-9.82055
 30
0.0
 10
-11.67952
 20
-9.67504
 30
0.0
 10
-11.50003
 20
-9.67504
 30
0.0
 10
-11.50003
 20
-9.67504
 30
0.0
 10
-11.32054
 20
-9.67504
 30
0.0
 10
-11.17503
 20
-9.82055
 30
0.0
 10
-11.17503
 20
-10.00004
 30
0.0
 10
-11.17503
 20
-10.00004
 30
0.0
 10
-11.17503
 20
-10.17953
 30
0.0
 10
-11.32054
 20
-10.32504
 30
0.0
 10
-11.50003
 20
-10.32504
 30
0.0
 10
-11.50003
 20
-10.32504
 30
0.0
 10
-11.67952
 20
-10.32504
 30
0.0
 10
-11.82503
 20
-10.17953
 30
0.0
 10
-11.82503
 20
-10.00004
 30
0.0
  0
SPLINE
  5
44
330
1F
100
AcDbEntity
  8
Layer 1
 62
     5
370
    53
100
AcDbSpline
210
0.0
220
0.0
230
1.0
 70
    11
 71
     3
 72
    16
 73
    12
 74
     0
 42
0.0000000001
 43
0.0000000001
 12
1.0
 22
0.0
 32
0.0
 13
1.0
 23
0.0
 33
0.0
 40
0.0
 40
0.0
 40
0.0
 40
0.0
 40
0.25
 40
0.25
 40
0.25
 40
0.25
 40
0.5
 40
0.5
 40
0.5
 40
0.5
 40
1.0
 40
1.0
 40
1.0
 40
1.0
 10
-10.73025
 20
-7.57789
 30
0.0
 10
-10.80923
 20
-7.63448
 30
0.0
 10
-10.9149
 20
-7.57864
 30
0.0
 10
-10.93058
 20
-7.48627
 30
0.0
 10
-10.93058
 20
-7.48627
 30
0.0
 10
-10.95093
 20
-7.36655
 30
0.0
 10
-10.78327
 20
-7.30013
 30
0.0
 10
-10.70631
 20
-7.38942
 30
0.0
 10
-10.70631
 20
-7.38942
 30
0.0
 10
-10.65993
 20
-7.44329
 30
0.0
 10
-10.67202
 20
-7.53614
 30
0.0
 10
-10.73025
 20
-7.57789
 30
0.0
  0
SPLINE
  5
45
330
1F
100
AcDbEntity
  8
Layer 1
 62
     5
370
    53
100
AcDbSpline
210
0.0
220
0.0
230
1.0
 70
    11
 71
     3
 72
    16
 73
    12
 74
     0
 42
0.0000000001
 43
0.0000000001
 12
1.0
 22
0.0
 32
0.0
 13
1.0
 23
0.0
 33
0.0
 40
0.0
 40
0.0
 40
0.0
 40
0.0
 40
0.25
 40
0.25
 40
0.25
 40
0.25
 40
0.5
 40
0.5
 40
0.5
 40
0.5
 40
1.0
 40
1.0
 40
1.0
 40
1.0
 10
-10.80588
 20
-7.42804
 30
0.0
 10
-10.8108
 20
-7.41029
 30
0.0
 10
-10.82916
 20
-7.39687
 30
0.0
 10
-10.85345
 20
-7.40354
 30
0.0
 10
-10.85345
 20
-7.40354
 30
0.0
 10
-10.90251
 20
-7.41701
 30
0.0
 10
-10.88571
 20
-7.48916
 30
0.0
 10
-10.83472
 20
-7.47934
 30
0.0
 10
-10.83472
 20
-7.47934
 30
0.0
 10
-10.81154
 20
-7.47485
 30
0.0
 10
-10.80027
 20
-7.44826
 30
0.0
 10
-10.80588
 20
-7.42804
 30
0.0
  0
SPLINE
  5
46
330
1F
100
AcDbEntity
  8
Layer 1
 62
     5
370
    53
100
AcDbSpline
210
0.0
220
0.0
230
1.0
 70
    11
 71
     3
 72
    20
 73
    16
 74
     0
 42
0.0000000001
 43
0.0000000001
 12
1.0
 22
0.0
 32
0.0
 13
1.0
 23
0.0
 33
0.0
 40
0.0
 40
0.0
 40
0.0
 40
0.0
 40
0.2
 40
0.2
 40
0.2
 40
0.2
 40
0.4
 40
0.4
 40
0.4
 40
0.4
 40
0.6
 40
0.6
 40
0.6
 40
0.6
 40
1.0
 40
1.0
 40
1.0
 40
1.0
 10
-9.04616
 20
-7.50911
 30
0.0
 10
-9.06005
 20
-7.5503
 30
0.0
 10
-9.09127
 20
-7.58568
 30
0.0
 10
-9.13361
 20
-7.59692
 30
0.0
 10
-9.13361
 20
-7.59692
 30
0.0
 10
-9.226
 20
-7.62148
 30
0.0
 10
-9.32934
 20
-7.52003
 30
0.0
 10
-9.29376
 20
-7.42564
 30
0.0
 10
-9.29376
 20
-7.42564
 30
0.0
 10
-9.26489
 20
-7.3289
 30
0.0
 10
-9.1212
 20
-7.31077
 30
0.0
 10
-9.06254
 20
-7.38629
 30
0.0
 10
-9.06254
 20
-7.38629
 30
0.0
 10
-9.03569
 20
-7.42087
 30
0.0
 10
-9.03227
 20
-7.46791
 30
0.0
 10
-9.04616
 20
-7.50911
 30
0.0
  0
SPLINE
  5
47
330
1F
100
AcDbEntity
  8
Layer 1
 62
     5
370
    53
100
AcDbSpline
210
0.0
220
0.0
230
1.0
 70
    11
 71
     3
 72
    24
 73
    20
 74
     0
 42
0.0000000001
 43
0.0000000001
 12
1.0
 22
0.0
 32
0.0
 13
1.0
 23
0.0
 33
0.0
 40
0.0
 40
0.0
 40
0.0
 40
0.0
 40
0.1666666666666667
 40
0.1666666666666667
 40
0.1666666666666667
 40
0.1666666666666667
 40
0.3333333333333333
 40
0.3333333333333333
 40
0.3333333333333333
 40
0.3333333333333333
 40
0.5
 40
0.5
 40
0.5
 40
0.5
 40
0.6666666666666666
 40
0.6666666666666666
 40
0.6666666666666666
 40
0.6666666666666666
 40
1.0
 40
1.0
 40
1.0
 40
1.0
 10
-9.22449
 20
-7.40608
 30
0.0
 10
-9.21146
 20
-7.39628
 30
0.0
 10
-9.19295
 20
-7.39343
 30
0.0
 10
-9.179
 20
-7.40272
 30
0.0
 10
-9.179
 20
-7.40272
 30
0.0
 10
-9.15983
 20
-7.4155
 30
0.0
 10
-9.15726
 20
-7.44455
 30
0.0
 10
-9.173
 20
-7.46111
 30
0.0
 10
-9.173
 20
-7.46111
 30
0.0
 10
-9.18518
 20
-7.47392
 30
0.0
 10
-9.20654
 20
-7.47667
 30
0.0
 10
-9.22158
 20
-7.46739
 30
0.0
 10
-9.22158
 20
-7.46739
 30
0.0
 10
-9.23158
 20
-7.46119
 30
0.0
 10
-9.23803
 20
-7.45008
 30
0.0
 10
-9.23946
 20
-7.43852
 30
0.0
 10
-9.23946
 20
-7.43852
 30
0.0
 10
-9.2411
 20
-7.42523
 30
0.0
 10
-9.23507
 20
-7.41405
 30
0.0
 10
-9.22449
 20
-7.40608
 30
0.0
  0
SPLINE
  5
48
330
1F
100
AcDbEntity
  8
Layer 1
 62
     5
370
    53
100
AcDbSpline
210
0.0
220
0.0
230
1.0
 70
    11
 71
     3
 72
    20
 73
    16
 74
     0
 42
0.0000000001
 43
0.0000000001
 12
1.0
 22
0.0
 32
0.0
 13
1.0
 23
0.0
 33
0.0
 40
0.0
 40
0.0
 40
0.0
 40
0.0
 40
0.2
 40
0.2
 40
0.2
 40
0.2
 40
0.4
 40
0.4
 40
0.4
 40
0.4
 40
0.6
 40
0.6
 40
0.6
 40
0.6
 40
1.0
 40
1.0
 40
1.0
 40
1.0
 10
-10.04424
 20
-7.41503
 30
0.0
 10
-10.04424
 20
-6.9753
 30
0.0
 10
-10.40071
 20
-6.61883
 30
0.0
 10
-10.84044
 20
-6.61883
 30
0.0
 10
-10.84044
 20
-6.61883
 30
0.0
 10
-11.28018
 20
-6.61883
 30
0.0
 10
-11.63668
 20
-6.9753
 30
0.0
 10
-11.63668
 20
-7.41503
 30
0.0
 10
-11.63668
 20
-7.41503
 30
0.0
 10
-11.63668
 20
-7.85477
 30
0.0
 10
-11.28018
 20
-8.21125
 30
0.0
 10
-10.84044
 20
-8.21125
 30
0.0
 10
-10.84044
 20
-8.21125
 30
0.0
 10
-10.40071
 20
-8.21125
 30
0.0
 10
-10.04424
 20
-7.85477
 30
0.0
 10
-10.04424
 20
-7.41503
 30
0.0
  0
SPLINE
  5
49
330
1F
100
AcDbEntity
  8
Layer 1
 62
     5
370
    53
100
AcDbSpline
210
0.0
220
0.0
230
1.0
 70
    11
 71
     3
 72
    20
 73
    16
 74
     0
 42
0.0000000001
 43
0.0000000001
 12
1.0
 22
0.0
 32
0.0
 13
1.0
 23
0.0
 33
0.0
 40
0.0
 40
0.0
 40
0.0
 40
0.0
 40
0.2
 40
0.2
 40
0.2
 40
0.2
 40
0.4
 40
0.4
 40
0.4
 40
0.4
 40
0.6
 40
0.6
 40
0.6
 40
0.6
 40
1.0
 40
1.0
 40
1.0
 40
1.0
 10
-8.37333
 20
-7.41503
 30
0.0
 10
-8.37333
 20
-6.9753
 30
0.0
 10
-8.72981
 20
-6.61883
 30
0.0
 10
-9.16955
 20
-6.61883
 30
0.0
 10
-9.16955
 20
-6.61883
 30
0.0
 10
-9.60929
 20
-6.61883
 30
0.0
 10
-9.96579
 20
-6.9753
 30
0.0
 10
-9.96579
 20
-7.41503
 30
0.0
 10
-9.96579
 20
-7.41503
 30
0.0
 10
-9.96579
 20
-7.85477
 30
0.0
 10
-9.60929
 20
-8.21125
 30
0.0
 10
-9.16955
 20
-8.21125
 30
0.0
 10
-9.16955
 20
-8.21125
 30
0.0
 10
-8.72981
 20
-8.21125
 30
0.0
 10
-8.37333
 20
-7.85477
 30
0.0
 10
-8.37333
 20
-7.41503
 30
0.0
  0
SPLINE
  5
4A
330
1F
100
AcDbEntity
  8
Layer 1
 62
     5
370
    53
100
AcDbSpline
210
0.0
220
0.0
230
1.0
 70
     8
 71
     3
 72
     8
 73
     4
 74
     0
 42
0.0000000001
 43
0.0000000001
 12
1.0
 22
0.0
 32
0.0
 13
1.0
 23
0.0
 33
0.0
 40
0.0
 40
0.0
 40
0.0
 40
0.0
 40
1.0
 40
1.0
 40
1.0
 40
1.0
 10
-9.69604
 20
-8.39867
 30
0.0
 10
-9.69604
 20
-8.5828
 30
0.0
 10
-9.8453
 20
-8.73206
 30
0.0
 10
-10.02942
 20
-8.73206
 30
0.0
  0
SPLINE
  5
4B
330
1F
100
AcDbEntity
  8
Layer 1
 62
     5
370
    53
100
AcDbSpline
210
0.0
220
0.0
230
1.0
 70
     8
 71
     3
 72
     8
 73
     4
 74
     0
 42
0.0000000001
 43
0.0000000001
 12
1.0
 22
0.0
 32
0.0
 13
1.0
 23
0.0
 33
0.0
 40
0.0
 40
0.0
 40
0.0
 40
0.0
 40
1.0
 40
1.0
 40
1.0
 40
1.0
 10
-10.02884
 20
-8.73206
 30
0.0
 10
-10.21296
 20
-8.73206
 30
0.0
 10
-10.36221
 20
-8.5828
 30
0.0
 10
-10.36221
 20
-8.39867
 30
0.0
  0
SPLINE
  5
4C
330
1F
100
AcDbEntity
  8
Layer 1
 62
     5
370
    53
100
AcDbSpline
210
0.0
220
0.0
230
1.0
 70
    11
 71
     3
 72
    60
 73
    56
 74
     0
 42
0.0000000001
 43
0.0000000001
 12
1.0
 22
0.0
 32
0.0
 13
1.0
 23
0.0
 33
0.0
 40
0.0
 40
0.0
 40
0.0
 40
0.0
 40
0.0666666666666667
 40
0.0666666666666667
 40
0.0666666666666667
 40
0.0666666666666667
 40
0.1333333333333333
 40
0.1333333333333333
 40
0.1333333333333333
 40
0.1333333333333333
 40
0.2
 40
0.2
 40
0.2
 40
0.2
 40
0.2666666666666667
 40
0.2666666666666667
 40
0.2666666666666667
 40
0.2666666666666667
 40
0.3333333333333333
 40
0.3333333333333333
 40
0.3333333333333333
 40
0.3333333333333333
 40
0.4
 40
0.4
 40
0.4
 40
0.4
 40
0.4666666666666667
 40
0.4666666666666667
 40
0.4666666666666667
 40
0.4666666666666667
 40
0.5333333333333333
 40
0.5333333333333333
 40
0.5333333333333333
 40
0.5333333333333333
 40
0.6
 40
0.6
 40
0.6
 40
0.6
 40
0.6666666666666666
 40
0.6666666666666666
 40
0.6666666666666666
 40
0.6666666666666666
 40
0.7333333333333333
 40
0.7333333333333333
 40
0.7333333333333333
 40
0.7333333333333333
 40
0.8
 40
0.8
 40
0.8
 40
0.8
 40
0.8666666666666667
 40
0.8666666666666667
 40
0.8666666666666667
 40
0.8666666666666667
 40
1.0
 40
1.0
 40
1.0
 40
1.0
 10
-11.85916
 20
-7.97869
 30
0.0
 10
-11.90364
 20
-7.80272
 30
0.0
 10
-11.86107
 20
-7.60118
 30
0.0
 10
-11.85651
 20
-7.42225
 30
0.0
 10
-11.85651
 20
-7.42225
 30
0.0
 10
-11.79635
 20
-7.50151
 30
0.0
 10
-11.76408
 20
-7.61534
 30
0.0
 10
-11.70504
 20
-7.70001
 30
0.0
 10
-11.70504
 20
-7.70001
 30
0.0
 10
-11.77291
 20
-7.38145
 30
0.0
 10
-11.76246
 20
-7.02286
 30
0.0
 10
-11.72076
 20
-6.70145
 30
0.0
 10
-11.72076
 20
-6.70145
 30
0.0
 10
-11.7034
 20
-6.56772
 30
0.0
 10
-11.69316
 20
-6.41535
 30
0.0
 10
-11.64785
 20
-6.28771
 30
0.0
 10
-11.64785
 20
-6.28771
 30
0.0
 10
-11.61728
 20
-6.20172
 30
0.0
 10
-11.52369
 20
-6.12883
 30
0.0
 10
-11.50134
 20
-6.04691
 30
0.0
 10
-11.50134
 20
-6.04691
 30
0.0
 10
-11.45699
 20
-5.88441
 30
0.0
 10
-11.65747
 20
-5.91613
 30
0.0
 10
-11.7814
 20
-5.94789
 30
0.0
 10
-11.7814
 20
-5.94789
 30
0.0
 10
-12.16308
 20
-6.04567
 30
0.0
 10
-12.21963
 20
-6.52065
 30
0.0
 10
-12.23133
 20
-6.84866
 30
0.0
 10
-12.23133
 20
-6.84866
 30
0.0
 10
-12.23836
 20
-7.04628
 30
0.0
 10
-12.22627
 20
-7.24384
 30
0.0
 10
-12.21501
 20
-7.44109
 30
0.0
 10
-12.21501
 20
-7.44109
 30
0.0
 10
-12.20442
 20
-7.6259
 30
0.0
 10
-12.16455
 20
-7.89959
 30
0.0
 10
-12.23083
 20
-8.07013
 30
0.0
 10
-12.23083
 20
-8.07013
 30
0.0
 10
-12.18209
 20
-7.94471
 30
0.0
 10
-12.08813
 20
-7.84761
 30
0.0
 10
-12.02751
 20
-7.72974
 30
0.0
 10
-12.02751
 20
-7.72974
 30
0.0
 10
-11.98865
 20
-7.8311
 30
0.0
 10
-11.9526
 20
-7.95102
 30
0.0
 10
-11.91602
 20
-8.04473
 30
0.0
 10
-11.91602
 20
-8.04473
 30
0.0
 10
-11.90125
 20
-8.0042
 30
0.0
 10
-11.88372
 20
-7.95485
 30
0.0
 10
-11.87234
 20
-7.92191
 30
0.0
 10
-11.87234
 20
-7.92191
 30
0.0
 10
-11.85768
 20
-7.93163
 30
0.0
 10
-11.85326
 20
-7.94615
 30
0.0
 10
-11.85916
 20
-7.96546
 30
0.0
 10
-11.85916
 20
-7.96546
 30
0.0
 10
-11.85916
 20
-7.96546
 30
0.0
 10
-11.85916
 20
-7.97869
 30
0.0
 10
-11.85916
 20
-7.97869
 30
0.0
  0
SPLINE
  5
4D
330
1F
100
AcDbEntity
  8
Layer 1
 62
     5
370
    53
100
AcDbSpline
210
0.0
220
0.0
230
1.0
 70
    11
 71
     3
 72
    56
 73
    52
 74
     0
 42
0.0000000001
 43
0.0000000001
 12
1.0
 22
0.0
 32
0.0
 13
1.0
 23
0.0
 33
0.0
 40
0.0
 40
0.0
 40
0.0
 40
0.0
 40
0.0714285714285714
 40
0.0714285714285714
 40
0.0714285714285714
 40
0.0714285714285714
 40
0.1428571428571428
 40
0.1428571428571428
 40
0.1428571428571428
 40
0.1428571428571428
 40
0.2142857142857143
 40
0.2142857142857143
 40
0.2142857142857143
 40
0.2142857142857143
 40
0.2857142857142857
 40
0.2857142857142857
 40
0.2857142857142857
 40
0.2857142857142857
 40
0.3571428571428572
 40
0.3571428571428572
 40
0.3571428571428572
 40
0.3571428571428572
 40
0.4285714285714285
 40
0.4285714285714285
 40
0.4285714285714285
 40
0.4285714285714285
 40
0.5
 40
0.5
 40
0.5
 40
0.5
 40
0.5714285714285714
 40
0.5714285714285714
 40
0.5714285714285714
 40
0.5714285714285714
 40
0.6428571428571429
 40
0.6428571428571429
 40
0.6428571428571429
 40
0.6428571428571429
 40
0.7142857142857143
 40
0.7142857142857143
 40
0.7142857142857143
 40
0.7142857142857143
 40
0.7857142857142857
 40
0.7857142857142857
 40
0.7857142857142857
 40
0.7857142857142857
 40
0.8571428571428571
 40
0.8571428571428571
 40
0.8571428571428571
 40
0.8571428571428571
 40
1.0
 40
1.0
 40
1.0
 40
1.0
 10
-8.27405
 20
-6.60286
 30
0.0
 10
-8.25123
 20
-6.63678
 30
0.0
 10
-8.27405
 20
-6.87083
 30
0.0
 10
-8.27405
 20
-6.96123
 30
0.0
 10
-8.27405
 20
-6.96123
 30
0.0
 10
-8.27405
 20
-6.96123
 30
0.0
 10
-8.27405
 20
-7.35692
 30
0.0
 10
-8.27405
 20
-7.35692
 30
0.0
 10
-8.27405
 20
-7.35692
 30
0.0
 10
-8.27405
 20
-7.51922
 30
0.0
 10
-8.28261
 20
-7.68524
 30
0.0
 10
-8.27133
 20
-7.84653
 30
0.0
 10
-8.27133
 20
-7.84653
 30
0.0
 10
-8.22725
 20
-7.75271
 30
0.0
 10
-8.16833
 20
-7.64818
 30
0.0
 10
-8.10112
 20
-7.56533
 30
0.0
 10
-8.10112
 20
-7.56533
 30
0.0
 10
-8.06408
 20
-7.6955
 30
0.0
 10
-8.04881
 20
-7.83254
 30
0.0
 10
-8.02074
 20
-7.96292
 30
0.0
 10
-8.02074
 20
-7.96292
 30
0.0
 10
-7.94867
 20
-7.85114
 30
0.0
 10
-7.89617
 20
-7.67644
 30
0.0
 10
-7.88906
 20
-7.54165
 30
0.0
 10
-7.88906
 20
-7.54165
 30
0.0
 10
-7.82561
 20
-7.58438
 30
0.0
 10
-7.76402
 20
-7.66564
 30
0.0
 10
-7.74174
 20
-7.74074
 30
0.0
 10
-7.74174
 20
-7.74074
 30
0.0
 10
-7.69192
 20
-7.58391
 30
0.0
 10
-7.74489
 20
-7.29423
 30
0.0
 10
-7.74489
 20
-7.11993
 30
0.0
 10
-7.74489
 20
-7.11993
 30
0.0
 10
-7.74489
 20
-6.95298
 30
0.0
 10
-7.74123
 20
-6.78045
 30
0.0
 10
-7.78127
 20
-6.61871
 30
0.0
 10
-7.78127
 20
-6.61871
 30
0.0
 10
-7.82591
 20
-6.43851
 30
0.0
 10
-7.89145
 20
-6.2415
 30
0.0
 10
-8.01482
 20
-6.10119
 30
0.0
 10
-8.01482
 20
-6.10119
 30
0.0
 10
-8.09279
 20
-6.01252
 30
0.0
 10
-8.26688
 20
-5.88777
 30
0.0
 10
-8.39093
 20
-5.89653
 30
0.0
 10
-8.39093
 20
-5.89653
 30
0.0
 10
-8.65927
 20
-5.9155
 30
0.0
 10
-8.46156
 20
-6.18937
 30
0.0
 10
-8.38598
 20
-6.31169
 30
0.0
 10
-8.38598
 20
-6.31169
 30
0.0
 10
-8.27966
 20
-6.48377
 30
0.0
 10
-8.27671
 20
-6.60743
 30
0.0
 10
-8.27405
 20
-6.60286
 30
0.0
  0
SPLINE
  5
4E
330
1F
100
AcDbEntity
  8
Layer 1
 62
     5
370
    53
100
AcDbSpline
210
0.0
220
0.0
230
1.0
 70
    11
 71
     3
 72
    88
 73
    84
 74
     0
 42
0.0000000001
 43
0.0000000001
 12
1.0
 22
0.0
 32
0.0
 13
1.0
 23
0.0
 33
0.0
 40
0.0
 40
0.0
 40
0.0
 40
0.0
 40
0.0454545454545455
 40
0.0454545454545455
 40
0.0454545454545455
 40
0.0454545454545455
 40
0.0909090909090909
 40
0.0909090909090909
 40
0.0909090909090909
 40
0.0909090909090909
 40
0.1363636363636364
 40
0.1363636363636364
 40
0.1363636363636364
 40
0.1363636363636364
 40
0.1818181818181818
 40
0.1818181818181818
 40
0.1818181818181818
 40
0.1818181818181818
 40
0.2272727272727273
 40
0.2272727272727273
 40
0.2272727272727273
 40
0.2272727272727273
 40
0.2727272727272727
 40
0.2727272727272727
 40
0.2727272727272727
 40
0.2727272727272727
 40
0.3181818181818182
 40
0.3181818181818182
 40
0.3181818181818182
 40
0.3181818181818182
 40
0.3636363636363636
 40
0.3636363636363636
 40
0.3636363636363636
 40
0.3636363636363636
 40
0.4090909090909091
 40
0.4090909090909091
 40
0.4090909090909091
 40
0.4090909090909091
 40
0.4545454545454545
 40
0.4545454545454545
 40
0.4545454545454545
 40
0.4545454545454545
 40
0.5
 40
0.5
 40
0.5
 40
0.5
 40
0.5454545454545454
 40
0.5454545454545454
 40
0.5454545454545454
 40
0.5454545454545454
 40
0.5909090909090909
 40
0.5909090909090909
 40
0.5909090909090909
 40
0.5909090909090909
 40
0.6363636363636364
 40
0.6363636363636364
 40
0.6363636363636364
 40
0.6363636363636364
 40
0.6818181818181818
 40
0.6818181818181818
 40
0.6818181818181818
 40
0.6818181818181818
 40
0.7272727272727273
 40
0.7272727272727273
 40
0.7272727272727273
 40
0.7272727272727273
 40
0.7727272727272727
 40
0.7727272727272727
 40
0.7727272727272727
 40
0.7727272727272727
 40
0.8181818181818182
 40
0.8181818181818182
 40
0.8181818181818182
 40
0.8181818181818182
 40
0.8636363636363636
 40
0.8636363636363636
 40
0.8636363636363636
 40
0.8636363636363636
 40
0.9090909090909091
 40
0.9090909090909091
 40
0.9090909090909091
 40
0.9090909090909091
 40
1.0
 40
1.0
 40
1.0
 40
1.0
 10
-9.71381
 20
-6.41112
 30
0.0
 10
-9.7409
 20
-6.37402
 30
0.0
 10
-9.81192
 20
-6.21201
 30
0.0
 10
-9.81192
 20
-6.21201
 30
0.0
 10
-9.81192
 20
-6.21201
 30
0.0
 10
-9.81192
 20
-6.21201
 30
0.0
 10
-9.51025
 20
-6.29872
 30
0.0
 10
-9.45224
 20
-6.31798
 30
0.0
 10
-9.45224
 20
-6.31798
 30
0.0
 10
-9.18558
 20
-6.40662
 30
0.0
 10
-8.89085
 20
-6.47655
 30
0.0
 10
-8.60994
 20
-6.46593
 30
0.0
 10
-8.60994
 20
-6.46593
 30
0.0
 10
-8.62362
 20
-6.42217
 30
0.0
 10
-8.64434
 20
-6.37863
 30
0.0
 10
-8.66818
 20
-6.33921
 30
0.0
 10
-8.66818
 20
-6.33921
 30
0.0
 10
-8.69657
 20
-6.29223
 30
0.0
 10
-8.73181
 20
-6.246
 30
0.0
 10
-8.75162
 20
-6.19442
 30
0.0
 10
-8.75162
 20
-6.19442
 30
0.0
 10
-8.81905
 20
-6.01911
 30
0.0
 10
-8.60156
 20
-5.99379
 30
0.0
 10
-8.47913
 20
-6.01914
 30
0.0
 10
-8.47913
 20
-6.01914
 30
0.0
 10
-8.39915
 20
-6.03573
 30
0.0
 10
-8.49001
 20
-5.70481
 30
0.0
 10
-8.50198
 20
-5.68224
 30
0.0
 10
-8.50198
 20
-5.68224
 30
0.0
 10
-8.55278
 20
-5.58651
 30
0.0
 10
-8.62988
 20
-5.52284
 30
0.0
 10
-8.71274
 20
-5.45607
 30
0.0
 10
-8.71274
 20
-5.45607
 30
0.0
 10
-8.95803
 20
-5.25859
 30
0.0
 10
-9.22891
 20
-5.19276
 30
0.0
 10
-9.53051
 20
-5.13442
 30
0.0
 10
-9.53051
 20
-5.13442
 30
0.0
 10
-9.68465
 20
-5.1046
 30
0.0
 10
-9.83171
 20
-5.11566
 30
0.0
 10
-9.98772
 20
-5.11971
 30
0.0
 10
-9.98772
 20
-5.11971
 30
0.0
 10
-10.2265
 20
-5.12593
 30
0.0
 10
-10.46073
 20
-5.17184
 30
0.0
 10
-10.68965
 20
-5.24154
 30
0.0
 10
-10.68965
 20
-5.24154
 30
0.0
 10
-10.88386
 20
-5.30068
 30
0.0
 10
-11.06301
 20
-5.39202
 30
0.0
 10
-11.23689
 20
-5.49542
 30
0.0
 10
-11.23689
 20
-5.49542
 30
0.0
 10
-11.31171
 20
-5.53993
 30
0.0
 10
-11.39074
 20
-5.59143
 30
0.0
 10
-11.44502
 20
-5.66049
 30
0.0
 10
-11.44502
 20
-5.66049
 30
0.0
 10
-11.63916
 20
-5.90772
 30
0.0
 10
-11.43068
 20
-6.12777
 30
0.0
 10
-11.20654
 20
-6.23813
 30
0.0
 10
-11.20654
 20
-6.23813
 30
0.0
 10
-11.10033
 20
-6.29041
 30
0.0
 10
-10.98789
 20
-6.33042
 30
0.0
 10
-10.90553
 20
-6.36317
 30
0.0
 10
-10.90553
 20
-6.36317
 30
0.0
 10
-10.74297
 20
-6.42778
 30
0.0
 10
-10.59104
 20
-6.45648
 30
0.0
 10
-10.42324
 20
-6.47688
 30
0.0
 10
-10.42324
 20
-6.47688
 30
0.0
 10
-10.46275
 20
-6.41159
 30
0.0
 10
-10.53812
 20
-6.36903
 30
0.0
 10
-10.56096
 20
-6.30033
 30
0.0
 10
-10.56096
 20
-6.30033
 30
0.0
 10
-10.55889
 20
-6.30655
 30
0.0
 10
-10.33582
 20
-6.40238
 30
0.0
 10
-10.31122
 20
-6.41091
 30
0.0
 10
-10.31122
 20
-6.41091
 30
0.0
 10
-10.22415
 20
-6.44106
 30
0.0
 10
-10.14
 20
-6.4789
 30
0.0
 10
-10.05515
 20
-6.51462
 30
0.0
 10
-10.05515
 20
-6.51462
 30
0.0
 10
-9.90704
 20
-6.57693
 30
0.0
 10
-9.70326
 20
-6.62194
 30
0.0
 10
-9.53882
 20
-6.58693
 30
0.0
 10
-9.53882
 20
-6.58693
 30
0.0
 10
-9.60872
 20
-6.53258
 30
0.0
 10
-9.66635
 20
-6.47604
 30
0.0
 10
-9.71381
 20
-6.41112
 30
0.0
  0
SPLINE
  5
4F
330
1F
100
AcDbEntity
  8
Layer 1
 62
     5
370
    53
100
AcDbSpline
210
0.0
220
0.0
230
1.0
 70
     8
 71
     3
 72
     8
 73
     4
 74
     0
 42
0.0000000001
 43
0.0000000001
 12
1.0
 22
0.0
 32
0.0
 13
1.0
 23
0.0
 33
0.0
 40
0.0
 40
0.0
 40
0.0
 40
0.0
 40
1.0
 40
1.0
 40
1.0
 40
1.0
 10
-8.43896
 20
-5.89392
 30
0.0
 10
-9.48146
 20
-6.02028
 30
0.0
 10
-10.52112
 20
-6.01766
 30
0.0
 10
-11.55813
 20
-5.89392
 30
0.0
  0
SPLINE
  5
50
330
1F
100
AcDbEntity
  8
Layer 1
 62
     5
370
    53
100
AcDbSpline
210
0.0
220
0.0
230
1.0
 70
    11
 71
     3
 72
    20
 73
    16
 74
     0
 42
0.0000000001
 43
0.0000000001
 12
1.0
 22
0.0
 32
0.0
 13
1.0
 23
0.0
 33
0.0
 40
0.0
 40
0.0
 40
0.0
 40
0.0
 40
0.2
 40
0.2
 40
0.2
 40
0.2
 40
0.4
 40
0.4
 40
0.4
 40
0.4
 40
0.6
 40
0.6
 40
0.6
 40
0.6
 40
1.0
 40
1.0
 40
1.0
 40
1.0
 10
-8.02373
 20
-4.05387
 30
0.0
 10
-8.02373
 20
-3.99883
 30
0.0
 10
-8.45168
 20
-3.95425
 30
0.0
 10
-8.97961
 20
-3.95425
 30
0.0
 10
-8.97961
 20
-3.95425
 30
0.0
 10
-9.50753
 20
-3.95425
 30
0.0
 10
-9.93552
 20
-3.99883
 30
0.0
 10
-9.93552
 20
-4.05387
 30
0.0
 10
-9.93552
 20
-4.05387
 30
0.0
 10
-9.93552
 20
-4.1089
 30
0.0
 10
-9.50753
 20
-4.15349
 30
0.0
 10
-8.97961
 20
-4.15349
 30
0.0
 10
-8.97961
 20
-4.15349
 30
0.0
 10
-8.45168
 20
-4.15349
 30
0.0
 10
-8.02373
 20
-4.1089
 30
0.0
 10
-8.02373
 20
-4.05387
 30
0.0
  0
SPLINE
  5
51
330
1F
100
AcDbEntity
  8
Layer 1
 62
     5
370
    53
100
AcDbSpline
210
0.0
220
0.0
230
1.0
 70
    11
 71
     3
 72
    20
 73
    16
 74
     0
 42
0.0000000001
 43
0.0000000001
 12
1.0
 22
0.0
 32
0.0
 13
1.0
 23
0.0
 33
0.0
 40
0.0
 40
0.0
 40
0.0
 40
0.0
 40
0.2
 40
0.2
 40
0.2
 40
0.2
 40
0.4
 40
0.4
 40
0.4
 40
0.4
 40
0.6
 40
0.6
 40
0.6
 40
0.6
 40
1.0
 40
1.0
 40
1.0
 40
1.0
 10
-10.14039
 20
-4.05387
 30
0.0
 10
-10.14039
 20
-3.99883
 30
0.0
 10
-10.56835
 20
-3.95425
 30
0.0
 10
-11.09628
 20
-3.95425
 30
0.0
 10
-11.09628
 20
-3.95425
 30
0.0
 10
-11.6242
 20
-3.95425
 30
0.0
 10
-12.05219
 20
-3.99883
 30
0.0
 10
-12.05219
 20
-4.05387
 30
0.0
 10
-12.05219
 20
-4.05387
 30
0.0
 10
-12.05219
 20
-4.1089
 30
0.0
 10
-11.6242
 20
-4.15349
 30
0.0
 10
-11.09628
 20
-4.15349
 30
0.0
 10
-11.09628
 20
-4.15349
 30
0.0
 10
-10.56835
 20
-4.15349
 30
0.0
 10
-10.14039
 20
-4.1089
 30
0.0
 10
-10.14039
 20
-4.05387
 30
0.0
  0
SPLINE
  5
52
330
1F
100
AcDbEntity
  8
Layer 1
 62
     5
370
    53
100
AcDbSpline
210
0.0
220
0.0
230
1.0
 70
     8
 71
     3
 72
     8
 73
     4
 74
     0
 42
0.0000000001
 43
0.0000000001
 12
1.0
 22
0.0
 32
0.0
 13
1.0
 23
0.0
 33
0.0
 40
0.0
 40
0.0
 40
0.0
 40
0.0
 40
1.0
 40
1.0
 40
1.0
 40
1.0
 10
-10.8136
 20
-5.28421
 30
0.0
 10
-10.70538
 20
-4.8831
 30
0.0
 10
-10.50603
 20
-4.47805
 30
0.0
 10
-10.18313
 20
-4.12544
 30
0.0
  0
SPLINE
  5
53
330
1F
100
AcDbEntity
  8
Layer 1
 62
     5
370
    53
100
AcDbSpline
210
0.0
220
0.0
230
1.0
 70
     8
 71
     3
 72
     8
 73
     4
 74
     0
 42
0.0000000001
 43
0.0000000001
 12
1.0
 22
0.0
 32
0.0
 13
1.0
 23
0.0
 33
0.0
 40
0.0
 40
0.0
 40
0.0
 40
0.0
 40
1.0
 40
1.0
 40
1.0
 40
1.0
 10
-9.84865
 20
-4.12542
 30
0.0
 10
-9.48006
 20
-4.45849
 30
0.0
 10
-9.25471
 20
-4.8225
 30
0.0
 10
-9.14297
 20
-5.22857
 30
0.0
  0
SPLINE
  5
54
330
1F
100
AcDbEntity
  8
Layer 1
 62
     5
370
    53
100
AcDbSpline
210
0.0
220
0.0
230
1.0
 70
    11
 71
     3
 72
    20
 73
    16
 74
     0
 42
0.0000000001
 43
0.0000000001
 12
1.0
 22
0.0
 32
0.0
 13
1.0
 23
0.0
 33
0.0
 40
0.0
 40
0.0
 40
0.0
 40
0.0
 40
0.2
 40
0.2
 40
0.2
 40
0.2
 40
0.4
 40
0.4
 40
0.4
 40
0.4
 40
0.6
 40
0.6
 40
0.6
 40
0.6
 40
1.0
 40
1.0
 40
1.0
 40
1.0
 10
-10.12701
 20
-4.09879
 30
0.0
 10
-10.20019
 20
-4.20717
 30
0.0
 10
-10.32095
 20
-4.72275
 30
0.0
 10
-10.04049
 20
-4.72275
 30
0.0
 10
-10.04049
 20
-4.72275
 30
0.0
 10
-9.76
 20
-4.72275
 30
0.0
 10
-9.88078
 20
-4.20717
 30
0.0
 10
-9.95394
 20
-4.09879
 30
0.0
 10
-9.95394
 20
-4.09879
 30
0.0
 10
-9.98114
 20
-4.05852
 30
0.0
 10
-10.01434
 20
-4.04069
 30
0.0
 10
-10.04049
 20
-4.04069
 30
0.0
 10
-10.04049
 20
-4.04069
 30
0.0
 10
-10.0666
 20
-4.04069
 30
0.0
 10
-10.0998
 20
-4.05852
 30
0.0
 10
-10.12701
 20
-4.09879
 30
0.0
  0
SPLINE
  5
55
330
1F
100
AcDbEntity
  8
Layer 1
370
    53
100
AcDbSpline
210
0.0
220
0.0
230
1.0
 70
    11
 71
     3
 72
    12
 73
     8
 74
     0
 42
0.0000000001
 43
0.0000000001
 12
1.0
 22
0.0
 32
0.0
 13
1.0
 23
0.0
 33
0.0
 40
0.0
 40
0.0
 40
0.0
 40
0.0
 40
0.3333333333333333
 40
0.3333333333333333
 40
0.3333333333333333
 40
0.3333333333333333
 40
1.0
 40
1.0
 40
1.0
 40
1.0
 10
-11.87481
 20
-7.88413
 30
0.0
 10
-11.87481
 20
-7.88413
 30
0.0
 10
-11.87481
 20
-7.67894
 30
0.0
 10
-11.87481
 20
-7.67894
 30
0.0
 10
-11.87481
 20
-7.67894
 30
0.0
 10
-11.87962
 20
-7.74863
 30
0.0
 10
-11.88174
 20
-7.81796
 30
0.0
 10
-11.87481
 20
-7.88413
 30
0.0
  0
SPLINE
  5
56
330
1F
100
AcDbEntity
  8
Layer 1
370
    53
100
AcDbSpline
210
0.0
220
0.0
230
1.0
 70
    11
 71
     3
 72
   212
 73
   208
 74
     0
 42
0.0000000001
 43
0.0000000001
 12
1.0
 22
0.0
 32
0.0
 13
1.0
 23
0.0
 33
0.0
 40
0.0
 40
0.0
 40
0.0
 40
0.0
 40
0.0188679245283019
 40
0.0188679245283019
 40
0.0188679245283019
 40
0.0188679245283019
 40
0.0377358490566038
 40
0.0377358490566038
 40
0.0377358490566038
 40
0.0377358490566038
 40
0.0566037735849057
 40
0.0566037735849057
 40
0.0566037735849057
 40
0.0566037735849057
 40
0.0754716981132075
 40
0.0754716981132075
 40
0.0754716981132075
 40
0.0754716981132075
 40
0.0943396226415094
 40
0.0943396226415094
 40
0.0943396226415094
 40
0.0943396226415094
 40
0.1132075471698113
 40
0.1132075471698113
 40
0.1132075471698113
 40
0.1132075471698113
 40
0.1320754716981132
 40
0.1320754716981132
 40
0.1320754716981132
 40
0.1320754716981132
 40
0.1509433962264151
 40
0.1509433962264151
 40
0.1509433962264151
 40
0.1509433962264151
 40
0.169811320754717
 40
0.169811320754717
 40
0.169811320754717
 40
0.169811320754717
 40
0.1886792452830189
 40
0.1886792452830189
 40
0.1886792452830189
 40
0.1886792452830189
 40
0.2075471698113208
 40
0.2075471698113208
 40
0.2075471698113208
 40
0.2075471698113208
 40
0.2264150943396226
 40
0.2264150943396226
 40
0.2264150943396226
 40
0.2264150943396226
 40
0.2452830188679245
 40
0.2452830188679245
 40
0.2452830188679245
 40
0.2452830188679245
 40
0.2641509433962264
 40
0.2641509433962264
 40
0.2641509433962264
 40
0.2641509433962264
 40
0.2830188679245283
 40
0.2830188679245283
 40
0.2830188679245283
 40
0.2830188679245283
 40
0.3018867924528302
 40
0.3018867924528302
 40
0.3018867924528302
 40
0.3018867924528302
 40
0.3207547169811321
 40
0.3207547169811321
 40
0.3207547169811321
 40
0.3207547169811321
 40
0.3396226415094339
 40
0.3396226415094339
 40
0.3396226415094339
 40
0.3396226415094339
 40
0.3584905660377358
 40
0.3584905660377358
 40
0.3584905660377358
 40
0.3584905660377358
 40
0.3773584905660378
 40
0.3773584905660378
 40
0.3773584905660378
 40
0.3773584905660378
 40
0.3962264150943396
 40
0.3962264150943396
 40
0.3962264150943396
 40
0.3962264150943396
 40
0.4150943396226415
 40
0.4150943396226415
 40
0.4150943396226415
 40
0.4150943396226415
 40
0.4339622641509434
 40
0.4339622641509434
 40
0.4339622641509434
 40
0.4339622641509434
 40
0.4528301886792453
 40
0.4528301886792453
 40
0.4528301886792453
 40
0.4528301886792453
 40
0.4716981132075472
 40
0.4716981132075472
 40
0.4716981132075472
 40
0.4716981132075472
 40
0.4905660377358491
 40
0.4905660377358491
 40
0.4905660377358491
 40
0.4905660377358491
 40
0.5094339622641509
 40
0.5094339622641509
 40
0.5094339622641509
 40
0.5094339622641509
 40
0.5283018867924528
 40
0.5283018867924528
 40
0.5283018867924528
 40
0.5283018867924528
 40
0.5471698113207547
 40
0.5471698113207547
 40
0.5471698113207547
 40
0.5471698113207547
 40
0.5660377358490566
 40
0.5660377358490566
 40
0.5660377358490566
 40
0.5660377358490566
 40
0.5849056603773585
 40
0.5849056603773585
 40
0.5849056603773585
 40
0.5849056603773585
 40
0.6037735849056604
 40
0.6037735849056604
 40
0.6037735849056604
 40
0.6037735849056604
 40
0.6226415094339622
 40
0.6226415094339622
 40
0.6226415094339622
 40
0.6226415094339622
 40
0.6415094339622641
 40
0.6415094339622641
 40
0.6415094339622641
 40
0.6415094339622641
 40
0.660377358490566
 40
0.660377358490566
 40
0.660377358490566
 40
0.660377358490566
 40
0.6792452830188679
 40
0.6792452830188679
 40
0.6792452830188679
 40
0.6792452830188679
 40
0.6981132075471698
 40
0.6981132075471698
 40
0.6981132075471698
 40
0.6981132075471698
 40
0.7169811320754716
 40
0.7169811320754716
 40
0.7169811320754716
 40
0.7169811320754716
 40
0.7358490566037735
 40
0.7358490566037735
 40
0.7358490566037735
 40
0.7358490566037735
 40
0.7547169811320755
 40
0.7547169811320755
 40
0.7547169811320755
 40
0.7547169811320755
 40
0.7735849056603774
 40
0.7735849056603774
 40
0.7735849056603774
 40
0.7735849056603774
 40
0.7924528301886793
 40
0.7924528301886793
 40
0.7924528301886793
 40
0.7924528301886793
 40
0.8113207547169812
 40
0.8113207547169812
 40
0.8113207547169812
 40
0.8113207547169812
 40
0.8301886792452831
 40
0.8301886792452831
 40
0.8301886792452831
 40
0.8301886792452831
 40
0.8490566037735849
 40
0.8490566037735849
 40
0.8490566037735849
 40
0.8490566037735849
 40
0.8679245283018868
 40
0.8679245283018868
 40
0.8679245283018868
 40
0.8679245283018868
 40
0.8867924528301887
 40
0.8867924528301887
 40
0.8867924528301887
 40
0.8867924528301887
 40
0.9056603773584906
 40
0.9056603773584906
 40
0.9056603773584906
 40
0.9056603773584906
 40
0.9245283018867925
 40
0.9245283018867925
 40
0.9245283018867925
 40
0.9245283018867925
 40
0.9433962264150944
 40
0.9433962264150944
 40
0.9433962264150944
 40
0.9433962264150944
 40
0.9622641509433962
 40
0.9622641509433962
 40
0.9622641509433962
 40
0.9622641509433962
 40
1.0
 40
1.0
 40
1.0
 40
1.0
 10
-8.30003
 20
-10.70004
 30
0.0
 10
-8.30003
 20
-10.70004
 30
0.0
 10
-11.70003
 20
-10.70004
 30
0.0
 10
-11.70003
 20
-10.70004
 30
0.0
 10
-11.70003
 20
-10.70004
 30
0.0
 10
-11.97617
 20
-10.70004
 30
0.0
 10
-12.20003
 20
-10.47618
 30
0.0
 10
-12.20003
 20
-10.20004
 30
0.0
 10
-12.20003
 20
-10.20004
 30
0.0
 10
-12.20003
 20
-10.20004
 30
0.0
 10
-12.20003
 20
-9.80004
 30
0.0
 10
-12.20003
 20
-9.80004
 30
0.0
 10
-12.20003
 20
-9.80004
 30
0.0
 10
-12.20003
 20
-9.5239
 30
0.0
 10
-11.97617
 20
-9.30004
 30
0.0
 10
-11.70003
 20
-9.30004
 30
0.0
 10
-11.70003
 20
-9.30004
 30
0.0
 10
-11.70003
 20
-9.30004
 30
0.0
 10
-10.48753
 20
-9.30004
 30
0.0
 10
-10.48753
 20
-9.30004
 30
0.0
 10
-10.48753
 20
-9.30004
 30
0.0
 10
-10.48753
 20
-9.30004
 30
0.0
 10
-10.48753
 20
-8.95305
 30
0.0
 10
-10.48753
 20
-8.95305
 30
0.0
 10
-10.48753
 20
-8.95305
 30
0.0
 10
-10.48753
 20
-8.95305
 30
0.0
 10
-11.26803
 20
-8.95305
 30
0.0
 10
-11.26803
 20
-8.95305
 30
0.0
 10
-11.26803
 20
-8.95305
 30
0.0
 10
-11.60175
 20
-8.95305
 30
0.0
 10
-11.87481
 20
-8.67999
 30
0.0
 10
-11.87481
 20
-8.34628
 30
0.0
 10
-11.87481
 20
-8.34628
 30
0.0
 10
-11.87481
 20
-8.34628
 30
0.0
 10
-11.87481
 20
-7.92903
 30
0.0
 10
-11.87481
 20
-7.92903
 30
0.0
 10
-11.87481
 20
-7.92903
 30
0.0
 10
-11.88615
 20
-7.96169
 30
0.0
 10
-11.90228
 20
-8.00702
 30
0.0
 10
-11.91602
 20
-8.04473
 30
0.0
 10
-11.91602
 20
-8.04473
 30
0.0
 10
-11.9526
 20
-7.95102
 30
0.0
 10
-11.98865
 20
-7.8311
 30
0.0
 10
-12.02751
 20
-7.72974
 30
0.0
 10
-12.02751
 20
-7.72974
 30
0.0
 10
-12.08813
 20
-7.84761
 30
0.0
 10
-12.18209
 20
-7.94471
 30
0.0
 10
-12.23083
 20
-8.07013
 30
0.0
 10
-12.23083
 20
-8.07013
 30
0.0
 10
-12.16455
 20
-7.89959
 30
0.0
 10
-12.20442
 20
-7.6259
 30
0.0
 10
-12.21501
 20
-7.44109
 30
0.0
 10
-12.21501
 20
-7.44109
 30
0.0
 10
-12.22627
 20
-7.24384
 30
0.0
 10
-12.23836
 20
-7.04628
 30
0.0
 10
-12.23133
 20
-6.84866
 30
0.0
 10
-12.23133
 20
-6.84866
 30
0.0
 10
-12.21963
 20
-6.52065
 30
0.0
 10
-12.16308
 20
-6.04567
 30
0.0
 10
-11.7814
 20
-5.94789
 30
0.0
 10
-11.7814
 20
-5.94789
 30
0.0
 10
-11.67291
 20
-5.92009
 30
0.0
 10
-11.50576
 20
-5.89233
 30
0.0
 10
-11.49555
 20
-5.99485
 30
0.0
 10
-11.49555
 20
-5.99485
 30
0.0
 10
-11.49555
 20
-5.99485
 30
0.0
 10
-11.4875
 20
-5.99163
 30
0.0
 10
-11.4875
 20
-5.99163
 30
0.0
 10
-11.4875
 20
-5.99163
 30
0.0
 10
-11.50302
 20
-5.96198
 30
0.0
 10
-11.51384
 20
-5.93086
 30
0.0
 10
-11.5188
 20
-5.89856
 30
0.0
 10
-11.5188
 20
-5.89856
 30
0.0
 10
-11.5188
 20
-5.89856
 30
0.0
 10
-11.55813
 20
-5.89392
 30
0.0
 10
-11.55813
 20
-5.89392
 30
0.0
 10
-11.55813
 20
-5.89392
 30
0.0
 10
-11.56051
 20
-5.8553
 30
0.0
 10
-11.56183
 20
-5.81613
 30
0.0
 10
-11.56183
 20
-5.77671
 30
0.0
 10
-11.56183
 20
-5.77671
 30
0.0
 10
-11.56183
 20
-4.96355
 30
0.0
 10
-11.03847
 20
-4.28367
 30
0.0
 10
-10.33861
 20
-4.11461
 30
0.0
 10
-10.33861
 20
-4.11461
 30
0.0
 10
-10.51338
 20
-4.13825
 30
0.0
 10
-10.78773
 20
-4.15349
 30
0.0
 10
-11.09628
 20
-4.15349
 30
0.0
 10
-11.09628
 20
-4.15349
 30
0.0
 10
-11.6242
 20
-4.15349
 30
0.0
 10
-12.05219
 20
-4.1089
 30
0.0
 10
-12.05219
 20
-4.05387
 30
0.0
 10
-12.05219
 20
-4.05387
 30
0.0
 10
-12.05219
 20
-3.99883
 30
0.0
 10
-11.6242
 20
-3.95425
 30
0.0
 10
-11.09628
 20
-3.95425
 30
0.0
 10
-11.09628
 20
-3.95425
 30
0.0
 10
-10.69492
 20
-3.95425
 30
0.0
 10
-10.35139
 20
-3.98003
 30
0.0
 10
-10.20972
 20
-4.01656
 30
0.0
 10
-10.20972
 20
-4.01656
 30
0.0
 10
-10.20258
 20
-3.92325
 30
0.0
 10
-10.12459
 20
-3.84976
 30
0.0
 10
-10.02945
 20
-3.84976
 30
0.0
 10
-10.02945
 20
-3.84976
 30
0.0
 10
-9.93567
 20
-3.84976
 30
0.0
 10
-9.85859
 20
-3.92114
 30
0.0
 10
-9.84954
 20
-4.01252
 30
0.0
 10
-9.84954
 20
-4.01252
 30
0.0
 10
-9.69884
 20
-3.97813
 30
0.0
 10
-9.36601
 20
-3.95425
 30
0.0
 10
-8.97961
 20
-3.95425
 30
0.0
 10
-8.97961
 20
-3.95425
 30
0.0
 10
-8.45168
 20
-3.95425
 30
0.0
 10
-8.02373
 20
-3.99883
 30
0.0
 10
-8.02373
 20
-4.05387
 30
0.0
 10
-8.02373
 20
-4.05387
 30
0.0
 10
-8.02373
 20
-4.1089
 30
0.0
 10
-8.45168
 20
-4.15349
 30
0.0
 10
-8.97961
 20
-4.15349
 30
0.0
 10
-8.97961
 20
-4.15349
 30
0.0
 10
-9.21733
 20
-4.15349
 30
0.0
 10
-9.43477
 20
-4.14444
 30
0.0
 10
-9.602
 20
-4.12948
 30
0.0
 10
-9.602
 20
-4.12948
 30
0.0
 10
-8.93071
 20
-4.32068
 30
0.0
 10
-8.43525
 20
-4.98567
 30
0.0
 10
-8.43525
 20
-5.77671
 30
0.0
 10
-8.43525
 20
-5.77671
 30
0.0
 10
-8.43525
 20
-5.81613
 30
0.0
 10
-8.43656
 20
-5.8553
 30
0.0
 10
-8.43896
 20
-5.89392
 30
0.0
 10
-8.43896
 20
-5.89392
 30
0.0
 10
-8.43896
 20
-5.89392
 30
0.0
 10
-8.45147
 20
-5.89543
 30
0.0
 10
-8.45147
 20
-5.89543
 30
0.0
 10
-8.45147
 20
-5.89543
 30
0.0
 10
-8.45095
 20
-5.89926
 30
0.0
 10
-8.45048
 20
-5.90304
 30
0.0
 10
-8.45003
 20
-5.90679
 30
0.0
 10
-8.45003
 20
-5.90679
 30
0.0
 10
-8.4335
 20
-5.90166
 30
0.0
 10
-8.41394
 20
-5.89816
 30
0.0
 10
-8.39093
 20
-5.89653
 30
0.0
 10
-8.39093
 20
-5.89653
 30
0.0
 10
-8.26688
 20
-5.88777
 30
0.0
 10
-8.09279
 20
-6.01252
 30
0.0
 10
-8.01482
 20
-6.10119
 30
0.0
 10
-8.01482
 20
-6.10119
 30
0.0
 10
-7.89145
 20
-6.2415
 30
0.0
 10
-7.82591
 20
-6.43851
 30
0.0
 10
-7.78127
 20
-6.61871
 30
0.0
 10
-7.78127
 20
-6.61871
 30
0.0
 10
-7.74123
 20
-6.78045
 30
0.0
 10
-7.74489
 20
-6.95298
 30
0.0
 10
-7.74489
 20
-7.11993
 30
0.0
 10
-7.74489
 20
-7.11993
 30
0.0
 10
-7.74489
 20
-7.29423
 30
0.0
 10
-7.69192
 20
-7.58391
 30
0.0
 10
-7.74174
 20
-7.74074
 30
0.0
 10
-7.74174
 20
-7.74074
 30
0.0
 10
-7.76402
 20
-7.66564
 30
0.0
 10
-7.82561
 20
-7.58438
 30
0.0
 10
-7.88906
 20
-7.54165
 30
0.0
 10
-7.88906
 20
-7.54165
 30
0.0
 10
-7.89617
 20
-7.67644
 30
0.0
 10
-7.94867
 20
-7.85114
 30
0.0
 10
-8.02074
 20
-7.96292
 30
0.0
 10
-8.02074
 20
-7.96292
 30
0.0
 10
-8.04881
 20
-7.83254
 30
0.0
 10
-8.06408
 20
-7.6955
 30
0.0
 10
-8.10112
 20
-7.56533
 30
0.0
 10
-8.10112
 20
-7.56533
 30
0.0
 10
-8.12615
 20
-7.59617
 30
0.0
 10
-8.15002
 20
-7.63003
 30
0.0
 10
-8.17241
 20
-7.66522
 30
0.0
 10
-8.17241
 20
-7.66522
 30
0.0
 10
-8.17241
 20
-7.66522
 30
0.0
 10
-8.17241
 20
-8.34628
 30
0.0
 10
-8.17241
 20
-8.34628
 30
0.0
 10
-8.17241
 20
-8.34628
 30
0.0
 10
-8.17241
 20
-8.67999
 30
0.0
 10
-8.44545
 20
-8.95305
 30
0.0
 10
-8.77918
 20
-8.95305
 30
0.0
 10
-8.77918
 20
-8.95305
 30
0.0
 10
-8.77918
 20
-8.95305
 30
0.0
 10
-9.51254
 20
-8.95305
 30
0.0
 10
-9.51254
 20
-8.95305
 30
0.0
 10
-9.51254
 20
-8.95305
 30
0.0
 10
-9.51254
 20
-8.95305
 30
0.0
 10
-9.51254
 20
-9.30004
 30
0.0
 10
-9.51254
 20
-9.30004
 30
0.0
 10
-9.51254
 20
-9.30004
 30
0.0
 10
-9.51254
 20
-9.30004
 30
0.0
 10
-8.30003
 20
-9.30004
 30
0.0
 10
-8.30003
 20
-9.30004
 30
0.0
 10
-8.30003
 20
-9.30004
 30
0.0
 10
-8.02389
 20
-9.30004
 30
0.0
 10
-7.80003
 20
-9.5239
 30
0.0
 10
-7.80003
 20
-9.80004
 30
0.0
 10
-7.80003
 20
-9.80004
 30
0.0
 10
-7.80003
 20
-9.80004
 30
0.0
 10
-7.80003
 20
-10.20004
 30
0.0
 10
-7.80003
 20
-10.20004
 30
0.0
 10
-7.80003
 20
-10.20004
 30
0.0
 10
-7.80003
 20
-10.47618
 30
0.0
 10
-8.02389
 20
-10.70004
 30
0.0
 10
-8.30003
 20
-10.70004
 30
0.0
  0
SPLINE
  5
57
330
1F
100
AcDbEntity
  8
Layer 1
370
    53
100
AcDbSpline
210
0.0
220
0.0
230
1.0
 70
    11
 71
     3
 72
    20
 73
    16
 74
     0
 42
0.0000000001
 43
0.0000000001
 12
1.0
 22
0.0
 32
0.0
 13
1.0
 23
0.0
 33
0.0
 40
0.0
 40
0.0
 40
0.0
 40
0.0
 40
0.2
 40
0.2
 40
0.2
 40
0.2
 40
0.4
 40
0.4
 40
0.4
 40
0.4
 40
0.6
 40
0.6
 40
0.6
 40
0.6
 40
1.0
 40
1.0
 40
1.0
 40
1.0
 10
-10.93003
 20
-10.00004
 30
0.0
 10
-10.93003
 20
-9.90063
 30
0.0
 10
-10.84944
 20
-9.82004
 30
0.0
 10
-10.75003
 20
-9.82004
 30
0.0
 10
-10.75003
 20
-9.82004
 30
0.0
 10
-10.65062
 20
-9.82004
 30
0.0
 10
-10.57003
 20
-9.90063
 30
0.0
 10
-10.57003
 20
-10.00004
 30
0.0
 10
-10.57003
 20
-10.00004
 30
0.0
 10
-10.57003
 20
-10.09945
 30
0.0
 10
-10.65062
 20
-10.18004
 30
0.0
 10
-10.75003
 20
-10.18004
 30
0.0
 10
-10.75003
 20
-10.18004
 30
0.0
 10
-10.84944
 20
-10.18004
 30
0.0
 10
-10.93003
 20
-10.09945
 30
0.0
 10
-10.93003
 20
-10.00004
 30
0.0
  0
SPLINE
  5
58
330
1F
100
AcDbEntity
  8
Layer 1
370
    53
100
AcDbSpline
210
0.0
220
0.0
230
1.0
 70
    11
 71
     3
 72
    20
 73
    16
 74
     0
 42
0.0000000001
 43
0.0000000001
 12
1.0
 22
0.0
 32
0.0
 13
1.0
 23
0.0
 33
0.0
 40
0.0
 40
0.0
 40
0.0
 40
0.0
 40
0.2
 40
0.2
 40
0.2
 40
0.2
 40
0.4
 40
0.4
 40
0.4
 40
0.4
 40
0.6
 40
0.6
 40
0.6
 40
0.6
 40
1.0
 40
1.0
 40
1.0
 40
1.0
 10
-9.43003
 20
-10.00004
 30
0.0
 10
-9.43003
 20
-9.90063
 30
0.0
 10
-9.34944
 20
-9.82004
 30
0.0
 10
-9.25003
 20
-9.82004
 30
0.0
 10
-9.25003
 20
-9.82004
 30
0.0
 10
-9.15062
 20
-9.82004
 30
0.0
 10
-9.07003
 20
-9.90063
 30
0.0
 10
-9.07003
 20
-10.00004
 30
0.0
 10
-9.07003
 20
-10.00004
 30
0.0
 10
-9.07003
 20
-10.09945
 30
0.0
 10
-9.15062
 20
-10.18004
 30
0.0
 10
-9.25003
 20
-10.18004
 30
0.0
 10
-9.25003
 20
-10.18004
 30
0.0
 10
-9.34944
 20
-10.18004
 30
0.0
 10
-9.43003
 20
-10.09945
 30
0.0
 10
-9.43003
 20
-10.00004
 30
0.0
  0
ENDSEC
  0
SECTION
  2
OBJECTS
  0
DICTIONARY
  5
C
330
0
100
AcDbDictionary
281
     1
  3
ACAD_GROUP
350
D
  3
ACAD_LAYOUT
350
1A
  3
ACAD_MATERIAL
350
3B
  3
ACAD_MLEADERSTYLE
350
7A
  3
ACAD_MLINESTYLE
350
17
  3
ACAD_PLOTSETTINGS
350
19
  3
ACAD_PLOTSTYLENAME
350
E
  3
ACAD_TABLESTYLE
350
79
  3
ACAD_VISUALSTYLE
350
2A
  0
DICTIONARY
  5
D
102
{ACAD_REACTORS
330
C
102
}
330
C
100
AcDbDictionary
281
     1
  0
DICTIONARY
  5
1A
102
{ACAD_REACTORS
330
C
102
}
330
C
100
AcDbDictionary
281
     1
  3
Layout1
350
1E
  3
Layout2
350
26
  3
Model
350
22
  0
DICTIONARY
  5
3B
102
{ACAD_REACTORS
330
C
102
}
330
C
100
AcDbDictionary
281
     1
  3
ByBlock
350
3D
  3
ByLayer
350
3C
  3
Global
350
3E
  0
DICTIONARY
  5
7A
102
{ACAD_REACTORS
330
C
102
}
330
C
100
AcDbDictionary
281
     1
  0
DICTIONARY
  5
17
102
{ACAD_REACTORS
330
C
102
}
330
C
100
AcDbDictionary
281
     1
  3
Standard
350
18
  0
DICTIONARY
  5
19
102
{ACAD_REACTORS
330
C
102
}
330
C
100
AcDbDictionary
281
     1
  0
ACDBDICTIONARYWDFLT
  5
E
102
{ACAD_REACTORS
330
C
102
}
330
C
100
AcDbDictionary
281
     1
  3
Normal
350
F
100
AcDbDictionaryWithDefault
340
F
  0
DICTIONARY
  5
79
102
{ACAD_REACTORS
330
C
102
}
330
C
100
AcDbDictionary
281
     1
  0
DICTIONARY
  5
2A
102
{ACAD_REACTORS
330
C
102
}
330
C
100
AcDbDictionary
281
     1
  3
2dWireframe
350
2F
  3
3D Hidden
350
31
  3
3dWireframe
350
30
  3
Basic
350
32
  3
Brighten
350
36
  3
ColorChange
350
3A
  3
Conceptual
350
34
  3
Dim
350
35
  3
Facepattern
350
39
  3
Flat
350
2B
  3
FlatWithEdges
350
2C
  3
Gouraud
350
2D
  3
GouraudWithEdges
350
2E
  3
Linepattern
350
38
  3
Realistic
350
33
  3
Thicken
350
37
  0
LAYOUT
  5
1E
102
{ACAD_REACTORS
330
1A
102
}
330
1A
100
AcDbPlotSettings
  1

  2
none_device
  4

  6

 40
0.0
 41
0.0
 42
0.0
 43
0.0
 44
0.0
 45
0.0
 46
0.0
 47
0.0
 48
0.0
 49
0.0
140
0.0
141
0.0
142
1.0
143
1.0
 70
   688
 72
     0
 73
     0
 74
     5
  7

 75
    16
 76
     0
 77
     2
 78
   300
147
1.0
148
0.0
149
0.0
100
AcDbLayout
  1
Layout1
 70
     1
 71
     1
 10
0.0
 20
0.0
 11
12.0
 21
9.0
 12
0.0
 22
0.0
 32
0.0
 14
1.000000000000000E+20
 24
1.000000000000000E+20
 34
1.000000000000000E+20
 15
-1.000000000000000E+20
 25
-1.000000000000000E+20
 35
-1.000000000000000E+20
146
0.0
 13
0.0
 23
0.0
 33
0.0
 16
1.0
 26
0.0
 36
0.0
 17
0.0
 27
1.0
 37
0.0
 76
     0
330
1B
  0
LAYOUT
  5
26
102
{ACAD_REACTORS
330
1A
102
}
330
1A
100
AcDbPlotSettings
  1

  2
none_device
  4

  6

 40
0.0
 41
0.0
 42
0.0
 43
0.0
 44
0.0
 45
0.0
 46
0.0
 47
0.0
 48
0.0
 49
0.0
140
0.0
141
0.0
142
1.0
143
1.0
 70
   688
 72
     0
 73
     0
 74
     5
  7

 75
    16
 76
     0
 77
     2
 78
   300
147
1.0
148
0.0
149
0.0
100
AcDbLayout
  1
Layout2
 70
     1
 71
     2
 10
0.0
 20
0.0
 11
0.0
 21
0.0
 12
0.0
 22
0.0
 32
0.0
 14
0.0
 24
0.0
 34
0.0
 15
0.0
 25
0.0
 35
0.0
146
0.0
 13
0.0
 23
0.0
 33
0.0
 16
1.0
 26
0.0
 36
0.0
 17
0.0
 27
1.0
 37
0.0
 76
     0
330
23
  0
LAYOUT
  5
22
102
{ACAD_REACTORS
330
1A
102
}
330
1A
100
AcDbPlotSettings
  1

  2
none_device
  4

  6

 40
0.0
 41
0.0
 42
0.0
 43
0.0
 44
0.0
 45
0.0
 46
0.0
 47
0.0
 48
0.0
 49
0.0
140
0.0
141
0.0
142
1.0
143
1.0
 70
  1712
 72
     0
 73
     0
 74
     0
  7

 75
     0
 76
     0
 77
     2
 78
   300
147
1.0
148
0.0
149
0.0
100
AcDbLayout
  1
Model
 70
     1
 71
     0
 10
0.0
 20
0.0
 11
12.0
 21
9.0
 12
0.0
 22
0.0
 32
0.0
 14
-12.25987
 24
-10.7265
 34
0.0
 15
-7.69393
 25
-3.8233
 35
0.0
146
0.0
 13
0.0
 23
0.0
 33
0.0
 16
1.0
 26
0.0
 36
0.0
 17
0.0
 27
1.0
 37
0.0
 76
     0
330
1F
331
29
  0
MATERIAL
  5
3D
102
{ACAD_REACTORS
330
3B
102
}
330
3B
100
AcDbMaterial
  1
ByBlock
 72
     1
 94
      127
  0
MATERIAL
  5
3C
102
{ACAD_REACTORS
330
3B
102
}
330
3B
100
AcDbMaterial
  1
ByLayer
 72
     1
 94
      127
  0
MATERIAL
  5
3E
102
{ACAD_REACTORS
330
3B
102
}
330
3B
100
AcDbMaterial
  1
Global
 72
     1
 94
      127
  0
MLINESTYLE
  5
18
102
{ACAD_REACTORS
330
17
102
}
330
17
100
AcDbMlineStyle
  2
Standard
 70
     0
  3

 62
   256
 51
90.0
 52
90.0
 71
     2
 49
0.5
 62
   256
  6
BYLAYER
 49
-0.5
 62
   256
  6
BYLAYER
  0
ACDBPLACEHOLDER
  5
F
102
{ACAD_REACTORS
330
E
102
}
330
E
  0
VISUALSTYLE
  5
2F
102
{ACAD_REACTORS
330
2A
102
}
102
{ACAD_XDICTIONARY
360
61
102
}
330
2A
100
AcDbVisualStyle
  2
2dWireframe
 70
     4
 71
     0
 72
     2
 73
     0
 90
        0
 40
-0.6
 41
-30.0
 62
     5
 63
     7
421
 16777215
 74
     1
 91
        4
 64
     7
 65
   257
 75
     1
175
     1
 42
1.0
 92
        0
 66
   257
 43
1.0
 76
     1
 77
     6
 78
     2
 67
     7
 79
     5
170
     0
171
     0
290
     0
174
     0
 93
        1
 44
0.0
173
     0
291
     0
 45
0.0
  0
VISUALSTYLE
  5
31
102
{ACAD_REACTORS
330
2A
102
}
102
{ACAD_XDICTIONARY
360
65
102
}
330
2A
100
AcDbVisualStyle
  2
3D Hidden
 70
     6
 71
     1
 72
     2
 73
     2
 90
        0
 40
-0.6
 41
-30.0
 62
     5
 63
     7
421
 16777215
 74
     2
 91
        2
 64
     7
 65
   257
 75
     2
175
     1
 42
40.0
 92
        0
 66
   257
 43
1.0
 76
     1
 77
     6
 78
     2
 67
     7
 79
     3
170
     0
171
     0
290
     0
174
     0
 93
        1
 44
0.0
173
     0
291
     0
 45
0.0
  0
VISUALSTYLE
  5
30
102
{ACAD_REACTORS
330
2A
102
}
102
{ACAD_XDICTIONARY
360
63
102
}
330
2A
100
AcDbVisualStyle
  2
3dWireframe
 70
     5
 71
     0
 72
     2
 73
     0
 90
        0
 40
-0.6
 41
-30.0
 62
     5
 63
     7
421
 16777215
 74
     1
 91
        4
 64
     7
 65
   257
 75
     1
175
     1
 42
1.0
 92
        0
 66
   257
 43
1.0
 76
     1
 77
     6
 78
     2
 67
     7
 79
     5
170
     0
171
     0
290
     0
174
     0
 93
        1
 44
0.0
173
     0
291
     0
 45
0.0
  0
VISUALSTYLE
  5
32
102
{ACAD_REACTORS
330
2A
102
}
102
{ACAD_XDICTIONARY
360
67
102
}
330
2A
100
AcDbVisualStyle
  2
Basic
 70
     7
 71
     1
 72
     0
 73
     1
 90
        0
 40
-0.6
 41
-30.0
 62
     5
 63
     7
421
 16777215
 74
     0
 91
        4
 64
     7
 65
   257
 75
     1
175
     1
 42
1.0
 92
        8
 66
     7
 43
1.0
 76
     1
 77
     6
 78
     2
 67
     7
 79
     5
170
     0
171
     0
290
     0
174
     0
 93
        1
 44
0.0
173
     0
291
     1
 45
0.0
  0
VISUALSTYLE
  5
36
102
{ACAD_REACTORS
330
2A
102
}
102
{ACAD_XDICTIONARY
360
6F
102
}
330
2A
100
AcDbVisualStyle
  2
Brighten
 70
    12
 71
     2
 72
     2
 73
     0
 90
        0
 40
-0.6
 41
-30.0
 62
     5
 63
     7
421
 16777215
 74
     1
 91
        4
 64
     7
 65
   257
 75
     1
175
     1
 42
1.0
 92
        8
 66
     7
 43
1.0
 76
     1
 77
     6
 78
     2
 67
     7
 79
     5
170
     0
171
     0
290
     0
174
     0
 93
        1
 44
50.0
173
     0
291
     1
 45
0.0
  0
VISUALSTYLE
  5
3A
102
{ACAD_REACTORS
330
2A
102
}
102
{ACAD_XDICTIONARY
360
77
102
}
330
2A
100
AcDbVisualStyle
  2
ColorChange
 70
    16
 71
     2
 72
     2
 73
     3
 90
        0
 40
-0.6
 41
-30.0
 62
     5
 63
     8
421
  8421504
 74
     1
 91
        4
 64
     7
 65
   257
 75
     1
175
     1
 42
1.0
 92
        8
 66
     8
424
  8421504
 43
1.0
 76
     1
 77
     6
 78
     2
 67
     7
 79
     5
170
     0
171
     0
290
     0
174
     0
 93
        1
 44
0.0
173
     0
291
     1
 45
0.0
  0
VISUALSTYLE
  5
34
102
{ACAD_REACTORS
330
2A
102
}
102
{ACAD_XDICTIONARY
360
6B
102
}
330
2A
100
AcDbVisualStyle
  2
Conceptual
 70
     9
 71
     3
 72
     2
 73
     0
 90
        0
 40
-0.6
 41
-30.0
 62
     5
 63
     7
421
 16777215
 74
     2
 91
        2
 64
     7
 65
   257
 75
     1
175
     1
 42
40.0
 92
        8
 66
     7
 43
1.0
 76
     1
 77
     6
 78
     2
 67
     7
 79
     3
170
     0
171
     0
290
     0
174
     0
 93
        1
 44
0.0
173
     0
291
     0
 45
0.0
  0
VISUALSTYLE
  5
35
102
{ACAD_REACTORS
330
2A
102
}
102
{ACAD_XDICTIONARY
360
6D
102
}
330
2A
100
AcDbVisualStyle
  2
Dim
 70
    11
 71
     2
 72
     2
 73
     0
 90
        0
 40
-0.6
 41
-30.0
 62
     5
 63
     7
421
 16777215
 74
     1
 91
        4
 64
     7
 65
   257
 75
     1
175
     1
 42
1.0
 92
        8
 66
     7
 43
1.0
 76
     1
 77
     6
 78
     2
 67
     7
 79
     5
170
     0
171
     0
290
     0
174
     0
 93
        1
 44
-50.0
173
     0
291
     1
 45
0.0
  0
VISUALSTYLE
  5
39
102
{ACAD_REACTORS
330
2A
102
}
102
{ACAD_XDICTIONARY
360
75
102
}
330
2A
100
AcDbVisualStyle
  2
Facepattern
 70
    15
 71
     2
 72
     2
 73
     0
 90
        0
 40
-0.6
 41
-30.0
 62
     5
 63
     7
421
 16777215
 74
     1
 91
        4
 64
     7
 65
   257
 75
     1
175
     1
 42
1.0
 92
        8
 66
     7
 43
1.0
 76
     1
 77
     6
 78
     2
 67
     7
 79
     5
170
     0
171
     0
290
     0
174
     0
 93
        1
 44
0.0
173
     0
291
     1
 45
0.0
  0
VISUALSTYLE
  5
2B
102
{ACAD_REACTORS
330
2A
102
}
102
{ACAD_XDICTIONARY
360
59
102
}
330
2A
100
AcDbVisualStyle
  2
Flat
 70
     0
 71
     2
 72
     1
 73
     1
 90
        2
 40
-0.6
 41
30.0
 62
     5
 63
     7
421
 16777215
 74
     0
 91
        4
 64
     7
 65
   257
 75
     1
175
     1
 42
1.0
 92
        8
 66
     7
 43
1.0
 76
     1
 77
     6
 78
     2
 67
     7
 79
     5
170
     0
171
     0
290
     0
174
     0
 93
       13
 44
0.0
173
     0
291
     1
 45
0.0
  0
VISUALSTYLE
  5
2C
102
{ACAD_REACTORS
330
2A
102
}
102
{ACAD_XDICTIONARY
360
5B
102
}
330
2A
100
AcDbVisualStyle
  2
FlatWithEdges
 70
     1
 71
     2
 72
     1
 73
     1
 90
        2
 40
-0.6
 41
30.0
 62
     5
 63
     7
421
 16777215
 74
     1
 91
        4
 64
     7
 65
   257
 75
     1
175
     1
 42
1.0
 92
        0
 66
   257
 43
1.0
 76
     1
 77
     6
 78
     2
 67
     7
 79
     5
170
     0
171
     0
290
     0
174
     0
 93
       13
 44
0.0
173
     0
291
     1
 45
0.0
  0
VISUALSTYLE
  5
2D
102
{ACAD_REACTORS
330
2A
102
}
102
{ACAD_XDICTIONARY
360
5D
102
}
330
2A
100
AcDbVisualStyle
  2
Gouraud
 70
     2
 71
     2
 72
     2
 73
     1
 90
        2
 40
-0.6
 41
30.0
 62
     5
 63
     7
421
 16777215
 74
     0
 91
        4
 64
     7
 65
   257
 75
     1
175
     1
 42
1.0
 92
        0
 66
     7
 43
1.0
 76
     1
 77
     6
 78
     2
 67
     7
 79
     5
170
     0
171
     0
290
     0
174
     0
 93
       13
 44
0.0
173
     0
291
     1
 45
0.0
  0
VISUALSTYLE
  5
2E
102
{ACAD_REACTORS
330
2A
102
}
102
{ACAD_XDICTIONARY
360
5F
102
}
330
2A
100
AcDbVisualStyle
  2
GouraudWithEdges
 70
     3
 71
     2
 72
     2
 73
     1
 90
        2
 40
-0.6
 41
30.0
 62
     5
 63
     7
421
 16777215
 74
     1
 91
        4
 64
     7
 65
   257
 75
     1
175
     1
 42
1.0
 92
        0
 66
   257
 43
1.0
 76
     1
 77
     6
 78
     2
 67
     7
 79
     5
170
     0
171
     0
290
     0
174
     0
 93
       13
 44
0.0
173
     0
291
     1
 45
0.0
  0
VISUALSTYLE
  5
38
102
{ACAD_REACTORS
330
2A
102
}
102
{ACAD_XDICTIONARY
360
73
102
}
330
2A
100
AcDbVisualStyle
  2
Linepattern
 70
    14
 71
     2
 72
     2
 73
     0
 90
        0
 40
-0.6
 41
-30.0
 62
     5
 63
     7
421
 16777215
 74
     1
 91
        4
 64
     7
 65
   257
 75
     7
175
     7
 42
1.0
 92
        8
 66
     7
 43
1.0
 76
     1
 77
     6
 78
     2
 67
     7
 79
     5
170
     0
171
     0
290
     0
174
     0
 93
        1
 44
0.0
173
     0
291
     1
 45
0.0
  0
VISUALSTYLE
  5
33
102
{ACAD_REACTORS
330
2A
102
}
102
{ACAD_XDICTIONARY
360
69
102
}
330
2A
100
AcDbVisualStyle
  2
Realistic
 70
     8
 71
     2
 72
     2
 73
     0
 90
        0
 40
-0.6
 41
-30.0
 62
     5
 63
     7
421
 16777215
 74
     1
 91
        0
 64
     7
 65
   257
 75
     1
175
     1
 42
1.0
 92
        8
 66
     8
424
  7895160
 43
1.0
 76
     1
 77
     6
 78
     2
 67
     7
 79
     5
170
     0
171
     0
290
     0
174
     0
 93
       13
 44
0.0
173
     0
291
     0
 45
0.0
  0
VISUALSTYLE
  5
37
102
{ACAD_REACTORS
330
2A
102
}
102
{ACAD_XDICTIONARY
360
71
102
}
330
2A
100
AcDbVisualStyle
  2
Thicken
 70
    13
 71
     2
 72
     2
 73
     0
 90
        0
 40
-0.6
 41
-30.0
 62
     5
 63
     7
421
 16777215
 74
     1
 91
        4
 64
     7
 65
   257
 75
     1
175
     1
 42
1.0
 92
       12
 66
     7
 43
1.0
 76
     1
 77
     6
 78
     2
 67
     7
 79
     5
170
     0
171
     0
290
     0
174
     0
 93
        1
 44
0.0
173
     0
291
     1
 45
0.0
  0
DICTIONARY
  5
61
330
2F
100
AcDbDictionary
280
     1
281
     1
  3
ACAD_XREC_ROUNDTRIP
360
62
  0
DICTIONARY
  5
65
330
31
100
AcDbDictionary
280
     1
281
     1
  3
ACAD_XREC_ROUNDTRIP
360
66
  0
DICTIONARY
  5
63
330
30
100
AcDbDictionary
280
     1
281
     1
  3
ACAD_XREC_ROUNDTRIP
360
64
  0
DICTIONARY
  5
67
330
32
100
AcDbDictionary
280
     1
281
     1
  3
ACAD_XREC_ROUNDTRIP
360
68
  0
DICTIONARY
  5
6F
330
36
100
AcDbDictionary
280
     1
281
     1
  3
ACAD_XREC_ROUNDTRIP
360
70
  0
DICTIONARY
  5
77
330
3A
100
AcDbDictionary
280
     1
281
     1
  3
ACAD_XREC_ROUNDTRIP
360
78
  0
DICTIONARY
  5
6B
330
34
100
AcDbDictionary
280
     1
281
     1
  3
ACAD_XREC_ROUNDTRIP
360
6C
  0
DICTIONARY
  5
6D
330
35
100
AcDbDictionary
280
     1
281
     1
  3
ACAD_XREC_ROUNDTRIP
360
6E
  0
DICTIONARY
  5
75
330
39
100
AcDbDictionary
280
     1
281
     1
  3
ACAD_XREC_ROUNDTRIP
360
76
  0
DICTIONARY
  5
59
330
2B
100
AcDbDictionary
280
     1
281
     1
  3
ACAD_XREC_ROUNDTRIP
360
5A
  0
DICTIONARY
  5
5B
330
2C
100
AcDbDictionary
280
     1
281
     1
  3
ACAD_XREC_ROUNDTRIP
360
5C
  0
DICTIONARY
  5
5D
330
2D
100
AcDbDictionary
280
     1
281
     1
  3
ACAD_XREC_ROUNDTRIP
360
5E
  0
DICTIONARY
  5
5F
330
2E
100
AcDbDictionary
280
     1
281
     1
  3
ACAD_XREC_ROUNDTRIP
360
60
  0
DICTIONARY
  5
73
330
38
100
AcDbDictionary
280
     1
281
     1
  3
ACAD_XREC_ROUNDTRIP
360
74
  0
DICTIONARY
  5
69
330
33
100
AcDbDictionary
280
     1
281
     1
  3
ACAD_XREC_ROUNDTRIP
360
6A
  0
DICTIONARY
  5
71
330
37
100
AcDbDictionary
280
     1
281
     1
  3
ACAD_XREC_ROUNDTRIP
360
72
  0
XRECORD
  5
62
102
{ACAD_REACTORS
330
61
102
}
330
61
100
AcDbXrecord
280
     1
102
RTVSPropertyOp0
 70
     1
102
RTVSPropertyOp1
 70
     1
102
RTVSPropertyOp2
 70
     1
102
RTVSPropertyOp3
 70
     1
102
RTVSPropertyOp4
 70
     1
102
RTVSPropertyOp5
 70
     1
102
RTVSPropertyOp6
 70
     1
102
RTVSPropertyOp7
 70
     1
102
RTVSPropertyOp8
 70
     1
102
RTVSPropertyOp9
 70
     1
102
RTVSPropertyOp10
 70
     1
102
RTVSPropertyOp11
 70
     1
102
RTVSPropertyOp12
 70
     1
102
RTVSPropertyOp13
 70
     1
102
RTVSPropertyOp14
 70
     1
102
RTVSPropertyOp15
 70
     1
102
RTVSPropertyOp16
 70
     1
102
RTVSPropertyOp17
 70
     1
102
RTVSPropertyOp18
 70
     1
102
RTVSPropertyOp19
 70
     1
102
RTVSPropertyOp20
 70
     1
102
RTVSPropertyOp21
 70
     1
102
RTVSPropertyOp22
 70
     1
102
RTVSPropertyOp23
 70
     1
102
RTVSPropertyOp24
 70
     1
102
RTVSPropertyOp25
 70
     1
102
RTVSPropertyOp26
 70
     1
102
RTVSPropertyOp27
 70
     1
102
RTVSPropertyOp28
 70
     1
102
RTVSPropertyOp29
 70
     1
102
RTVSPropertyOp30
 70
     1
102
RTVSPropertyOp31
 70
     1
102
RTVSPropertyOp32
 70
     1
  0
XRECORD
  5
66
102
{ACAD_REACTORS
330
65
102
}
330
65
100
AcDbXrecord
280
     1
102
RTVSPropertyOp0
 70
     1
102
RTVSPropertyOp1
 70
     1
102
RTVSPropertyOp2
 70
     1
102
RTVSPropertyOp3
 70
     1
102
RTVSPropertyOp4
 70
     1
102
RTVSPropertyOp5
 70
     1
102
RTVSPropertyOp6
 70
     1
102
RTVSPropertyOp7
 70
     1
102
RTVSPropertyOp8
 70
     1
102
RTVSPropertyOp9
 70
     1
102
RTVSPropertyOp10
 70
     1
102
RTVSPropertyOp11
 70
     1
102
RTVSPropertyOp12
 70
     1
102
RTVSPropertyOp13
 70
     1
102
RTVSPropertyOp14
 70
     1
102
RTVSPropertyOp15
 70
     1
102
RTVSPropertyOp16
 70
     1
102
RTVSPropertyOp17
 70
     1
102
RTVSPropertyOp18
 70
     1
102
RTVSPropertyOp19
 70
     1
102
RTVSPropertyOp20
 70
     1
102
RTVSPropertyOp21
 70
     1
102
RTVSPropertyOp22
 70
     1
102
RTVSPropertyOp23
 70
     1
102
RTVSPropertyOp24
 70
     1
102
RTVSPropertyOp25
 70
     1
102
RTVSPropertyOp26
 70
     1
102
RTVSPropertyOp27
 70
     1
102
RTVSPropertyOp28
 70
     1
102
RTVSPropertyOp29
 70
     1
102
RTVSPropertyOp30
 70
     1
102
RTVSPropertyOp31
 70
     1
102
RTVSPropertyOp32
 70
     1
  0
XRECORD
  5
64
102
{ACAD_REACTORS
330
63
102
}
330
63
100
AcDbXrecord
280
     1
102
RTVSPropertyOp0
 70
     1
102
RTVSPropertyOp1
 70
     1
102
RTVSPropertyOp2
 70
     1
102
RTVSPropertyOp3
 70
     1
102
RTVSPropertyOp4
 70
     1
102
RTVSPropertyOp5
 70
     1
102
RTVSPropertyOp6
 70
     1
102
RTVSPropertyOp7
 70
     1
102
RTVSPropertyOp8
 70
     1
102
RTVSPropertyOp9
 70
     1
102
RTVSPropertyOp10
 70
     1
102
RTVSPropertyOp11
 70
     1
102
RTVSPropertyOp12
 70
     1
102
RTVSPropertyOp13
 70
     1
102
RTVSPropertyOp14
 70
     1
102
RTVSPropertyOp15
 70
     1
102
RTVSPropertyOp16
 70
     1
102
RTVSPropertyOp17
 70
     1
102
RTVSPropertyOp18
 70
     1
102
RTVSPropertyOp19
 70
     1
102
RTVSPropertyOp20
 70
     1
102
RTVSPropertyOp21
 70
     1
102
RTVSPropertyOp22
 70
     1
102
RTVSPropertyOp23
 70
     1
102
RTVSPropertyOp24
 70
     1
102
RTVSPropertyOp25
 70
     1
102
RTVSPropertyOp26
 70
     1
102
RTVSPropertyOp27
 70
     1
102
RTVSPropertyOp28
 70
     1
102
RTVSPropertyOp29
 70
     1
102
RTVSPropertyOp30
 70
     1
102
RTVSPropertyOp31
 70
     1
102
RTVSPropertyOp32
 70
     1
  0
XRECORD
  5
68
102
{ACAD_REACTORS
330
67
102
}
330
67
100
AcDbXrecord
280
     1
102
RTVSPropertyOp0
 70
     1
102
RTVSPropertyOp1
 70
     1
102
RTVSPropertyOp2
 70
     1
102
RTVSPropertyOp3
 70
     1
102
RTVSPropertyOp4
 70
     1
102
RTVSPropertyOp5
 70
     1
102
RTVSPropertyOp6
 70
     1
102
RTVSPropertyOp7
 70
     1
102
RTVSPropertyOp8
 70
     1
102
RTVSPropertyOp9
 70
     1
102
RTVSPropertyOp10
 70
     1
102
RTVSPropertyOp11
 70
     1
102
RTVSPropertyOp12
 70
     1
102
RTVSPropertyOp13
 70
     1
102
RTVSPropertyOp14
 70
     1
102
RTVSPropertyOp15
 70
     1
102
RTVSPropertyOp16
 70
     1
102
RTVSPropertyOp17
 70
     1
102
RTVSPropertyOp18
 70
     1
102
RTVSPropertyOp19
 70
     1
102
RTVSPropertyOp20
 70
     1
102
RTVSPropertyOp21
 70
     1
102
RTVSPropertyOp22
 70
     1
102
RTVSPropertyOp23
 70
     1
102
RTVSPropertyOp24
 70
     1
102
RTVSPropertyOp25
 70
     1
102
RTVSPropertyOp26
 70
     1
102
RTVSPropertyOp27
 70
     1
102
RTVSPropertyOp28
 70
     1
102
RTVSPropertyOp29
 70
     1
102
RTVSPropertyOp30
 70
     1
102
RTVSPropertyOp31
 70
     1
102
RTVSPropertyOp32
 70
     1
  0
XRECORD
  5
70
102
{ACAD_REACTORS
330
6F
102
}
330
6F
100
AcDbXrecord
280
     1
102
RTVSPropertyOp0
 70
     1
102
RTVSPropertyOp1
 70
     1
102
RTVSPropertyOp2
 70
     1
102
RTVSPropertyOp3
 70
     1
102
RTVSPropertyOp4
 70
     1
102
RTVSPropertyOp5
 70
     1
102
RTVSPropertyOp6
 70
     1
102
RTVSPropertyOp7
 70
     1
102
RTVSPropertyOp8
 70
     1
102
RTVSPropertyOp9
 70
     1
102
RTVSPropertyOp10
 70
     1
102
RTVSPropertyOp11
 70
     1
102
RTVSPropertyOp12
 70
     1
102
RTVSPropertyOp13
 70
     1
102
RTVSPropertyOp14
 70
     1
102
RTVSPropertyOp15
 70
     1
102
RTVSPropertyOp16
 70
     1
102
RTVSPropertyOp17
 70
     1
102
RTVSPropertyOp18
 70
     1
102
RTVSPropertyOp19
 70
     1
102
RTVSPropertyOp20
 70
     1
102
RTVSPropertyOp21
 70
     1
102
RTVSPropertyOp22
 70
     1
102
RTVSPropertyOp23
 70
     1
102
RTVSPropertyOp24
 70
     1
102
RTVSPropertyOp25
 70
     1
102
RTVSPropertyOp26
 70
     1
102
RTVSPropertyOp27
 70
     1
102
RTVSPropertyOp28
 70
     1
102
RTVSPropertyOp29
 70
     1
102
RTVSPropertyOp30
 70
     1
102
RTVSPropertyOp31
 70
     1
102
RTVSPropertyOp32
 70
     1
  0
XRECORD
  5
78
102
{ACAD_REACTORS
330
77
102
}
330
77
100
AcDbXrecord
280
     1
102
RTVSPropertyOp0
 70
     1
102
RTVSPropertyOp1
 70
     1
102
RTVSPropertyOp2
 70
     1
102
RTVSPropertyOp3
 70
     1
102
RTVSPropertyOp4
 70
     1
102
RTVSPropertyOp5
 70
     1
102
RTVSPropertyOp6
 70
     1
102
RTVSPropertyOp7
 70
     1
102
RTVSPropertyOp8
 70
     1
102
RTVSPropertyOp9
 70
     1
102
RTVSPropertyOp10
 70
     1
102
RTVSPropertyOp11
 70
     1
102
RTVSPropertyOp12
 70
     1
102
RTVSPropertyOp13
 70
     1
102
RTVSPropertyOp14
 70
     1
102
RTVSPropertyOp15
 70
     1
102
RTVSPropertyOp16
 70
     1
102
RTVSPropertyOp17
 70
     1
102
RTVSPropertyOp18
 70
     1
102
RTVSPropertyOp19
 70
     1
102
RTVSPropertyOp20
 70
     1
102
RTVSPropertyOp21
 70
     1
102
RTVSPropertyOp22
 70
     1
102
RTVSPropertyOp23
 70
     1
102
RTVSPropertyOp24
 70
     1
102
RTVSPropertyOp25
 70
     1
102
RTVSPropertyOp26
 70
     1
102
RTVSPropertyOp27
 70
     1
102
RTVSPropertyOp28
 70
     1
102
RTVSPropertyOp29
 70
     1
102
RTVSPropertyOp30
 70
     1
102
RTVSPropertyOp31
 70
     1
102
RTVSPropertyOp32
 70
     1
  0
XRECORD
  5
6C
102
{ACAD_REACTORS
330
6B
102
}
330
6B
100
AcDbXrecord
280
     1
102
RTVSPropertyOp0
 70
     1
102
RTVSPropertyOp1
 70
     1
102
RTVSPropertyOp2
 70
     1
102
RTVSPropertyOp3
 70
     1
102
RTVSPropertyOp4
 70
     1
102
RTVSPropertyOp5
 70
     1
102
RTVSPropertyOp6
 70
     1
102
RTVSPropertyOp7
 70
     1
102
RTVSPropertyOp8
 70
     1
102
RTVSPropertyOp9
 70
     1
102
RTVSPropertyOp10
 70
     1
102
RTVSPropertyOp11
 70
     1
102
RTVSPropertyOp12
 70
     1
102
RTVSPropertyOp13
 70
     1
102
RTVSPropertyOp14
 70
     1
102
RTVSPropertyOp15
 70
     1
102
RTVSPropertyOp16
 70
     1
102
RTVSPropertyOp17
 70
     1
102
RTVSPropertyOp18
 70
     1
102
RTVSPropertyOp19
 70
     1
102
RTVSPropertyOp20
 70
     1
102
RTVSPropertyOp21
 70
     1
102
RTVSPropertyOp22
 70
     1
102
RTVSPropertyOp23
 70
     1
102
RTVSPropertyOp24
 70
     1
102
RTVSPropertyOp25
 70
     1
102
RTVSPropertyOp26
 70
     1
102
RTVSPropertyOp27
 70
     1
102
RTVSPropertyOp28
 70
     1
102
RTVSPropertyOp29
 70
     1
102
RTVSPropertyOp30
 70
     1
102
RTVSPropertyOp31
 70
     1
102
RTVSPropertyOp32
 70
     1
  0
XRECORD
  5
6E
102
{ACAD_REACTORS
330
6D
102
}
330
6D
100
AcDbXrecord
280
     1
102
RTVSPropertyOp0
 70
     1
102
RTVSPropertyOp1
 70
     1
102
RTVSPropertyOp2
 70
     1
102
RTVSPropertyOp3
 70
     1
102
RTVSPropertyOp4
 70
     1
102
RTVSPropertyOp5
 70
     1
102
RTVSPropertyOp6
 70
     1
102
RTVSPropertyOp7
 70
     1
102
RTVSPropertyOp8
 70
     1
102
RTVSPropertyOp9
 70
     1
102
RTVSPropertyOp10
 70
     1
102
RTVSPropertyOp11
 70
     1
102
RTVSPropertyOp12
 70
     1
102
RTVSPropertyOp13
 70
     1
102
RTVSPropertyOp14
 70
     1
102
RTVSPropertyOp15
 70
     1
102
RTVSPropertyOp16
 70
     1
102
RTVSPropertyOp17
 70
     1
102
RTVSPropertyOp18
 70
     1
102
RTVSPropertyOp19
 70
     1
102
RTVSPropertyOp20
 70
     1
102
RTVSPropertyOp21
 70
     1
102
RTVSPropertyOp22
 70
     1
102
RTVSPropertyOp23
 70
     1
102
RTVSPropertyOp24
 70
     1
102
RTVSPropertyOp25
 70
     1
102
RTVSPropertyOp26
 70
     1
102
RTVSPropertyOp27
 70
     1
102
RTVSPropertyOp28
 70
     1
102
RTVSPropertyOp29
 70
     1
102
RTVSPropertyOp30
 70
     1
102
RTVSPropertyOp31
 70
     1
102
RTVSPropertyOp32
 70
     1
  0
XRECORD
  5
76
102
{ACAD_REACTORS
330
75
102
}
330
75
100
AcDbXrecord
280
     1
102
RTVSPropertyOp0
 70
     1
102
RTVSPropertyOp1
 70
     1
102
RTVSPropertyOp2
 70
     1
102
RTVSPropertyOp3
 70
     1
102
RTVSPropertyOp4
 70
     1
102
RTVSPropertyOp5
 70
     1
102
RTVSPropertyOp6
 70
     1
102
RTVSPropertyOp7
 70
     1
102
RTVSPropertyOp8
 70
     1
102
RTVSPropertyOp9
 70
     1
102
RTVSPropertyOp10
 70
     1
102
RTVSPropertyOp11
 70
     1
102
RTVSPropertyOp12
 70
     1
102
RTVSPropertyOp13
 70
     1
102
RTVSPropertyOp14
 70
     1
102
RTVSPropertyOp15
 70
     1
102
RTVSPropertyOp16
 70
     1
102
RTVSPropertyOp17
 70
     1
102
RTVSPropertyOp18
 70
     1
102
RTVSPropertyOp19
 70
     1
102
RTVSPropertyOp20
 70
     1
102
RTVSPropertyOp21
 70
     1
102
RTVSPropertyOp22
 70
     1
102
RTVSPropertyOp23
 70
     1
102
RTVSPropertyOp24
 70
     1
102
RTVSPropertyOp25
 70
     1
102
RTVSPropertyOp26
 70
     1
102
RTVSPropertyOp27
 70
     1
102
RTVSPropertyOp28
 70
     1
102
RTVSPropertyOp29
 70
     1
102
RTVSPropertyOp30
 70
     1
102
RTVSPropertyOp31
 70
     1
102
RTVSPropertyOp32
 70
     1
  0
XRECORD
  5
5A
102
{ACAD_REACTORS
330
59
102
}
330
59
100
AcDbXrecord
280
     1
102
RTVSPropertyOp0
 70
     1
102
RTVSPropertyOp1
 70
     1
102
RTVSPropertyOp2
 70
     1
102
RTVSPropertyOp3
 70
     1
102
RTVSPropertyOp4
 70
     1
102
RTVSPropertyOp5
 70
     1
102
RTVSPropertyOp6
 70
     1
102
RTVSPropertyOp7
 70
     1
102
RTVSPropertyOp8
 70
     1
102
RTVSPropertyOp9
 70
     1
102
RTVSPropertyOp10
 70
     1
102
RTVSPropertyOp11
 70
     1
102
RTVSPropertyOp12
 70
     1
102
RTVSPropertyOp13
 70
     1
102
RTVSPropertyOp14
 70
     1
102
RTVSPropertyOp15
 70
     1
102
RTVSPropertyOp16
 70
     1
102
RTVSPropertyOp17
 70
     1
102
RTVSPropertyOp18
 70
     1
102
RTVSPropertyOp19
 70
     1
102
RTVSPropertyOp20
 70
     1
102
RTVSPropertyOp21
 70
     1
102
RTVSPropertyOp22
 70
     1
102
RTVSPropertyOp23
 70
     1
102
RTVSPropertyOp24
 70
     1
102
RTVSPropertyOp25
 70
     1
102
RTVSPropertyOp26
 70
     1
102
RTVSPropertyOp27
 70
     1
102
RTVSPropertyOp28
 70
     1
102
RTVSPropertyOp29
 70
     1
102
RTVSPropertyOp30
 70
     1
102
RTVSPropertyOp31
 70
     1
102
RTVSPropertyOp32
 70
     1
  0
XRECORD
  5
5C
102
{ACAD_REACTORS
330
5B
102
}
330
5B
100
AcDbXrecord
280
     1
102
RTVSPropertyOp0
 70
     1
102
RTVSPropertyOp1
 70
     1
102
RTVSPropertyOp2
 70
     1
102
RTVSPropertyOp3
 70
     1
102
RTVSPropertyOp4
 70
     1
102
RTVSPropertyOp5
 70
     1
102
RTVSPropertyOp6
 70
     1
102
RTVSPropertyOp7
 70
     1
102
RTVSPropertyOp8
 70
     1
102
RTVSPropertyOp9
 70
     1
102
RTVSPropertyOp10
 70
     1
102
RTVSPropertyOp11
 70
     1
102
RTVSPropertyOp12
 70
     1
102
RTVSPropertyOp13
 70
     1
102
RTVSPropertyOp14
 70
     1
102
RTVSPropertyOp15
 70
     1
102
RTVSPropertyOp16
 70
     1
102
RTVSPropertyOp17
 70
     1
102
RTVSPropertyOp18
 70
     1
102
RTVSPropertyOp19
 70
     1
102
RTVSPropertyOp20
 70
     1
102
RTVSPropertyOp21
 70
     1
102
RTVSPropertyOp22
 70
     1
102
RTVSPropertyOp23
 70
     1
102
RTVSPropertyOp24
 70
     1
102
RTVSPropertyOp25
 70
     1
102
RTVSPropertyOp26
 70
     1
102
RTVSPropertyOp27
 70
     1
102
RTVSPropertyOp28
 70
     1
102
RTVSPropertyOp29
 70
     1
102
RTVSPropertyOp30
 70
     1
102
RTVSPropertyOp31
 70
     1
102
RTVSPropertyOp32
 70
     1
  0
XRECORD
  5
5E
102
{ACAD_REACTORS
330
5D
102
}
330
5D
100
AcDbXrecord
280
     1
102
RTVSPropertyOp0
 70
     1
102
RTVSPropertyOp1
 70
     1
102
RTVSPropertyOp2
 70
     1
102
RTVSPropertyOp3
 70
     1
102
RTVSPropertyOp4
 70
     1
102
RTVSPropertyOp5
 70
     1
102
RTVSPropertyOp6
 70
     1
102
RTVSPropertyOp7
 70
     1
102
RTVSPropertyOp8
 70
     1
102
RTVSPropertyOp9
 70
     1
102
RTVSPropertyOp10
 70
     1
102
RTVSPropertyOp11
 70
     1
102
RTVSPropertyOp12
 70
     1
102
RTVSPropertyOp13
 70
     1
102
RTVSPropertyOp14
 70
     1
102
RTVSPropertyOp15
 70
     1
102
RTVSPropertyOp16
 70
     1
102
RTVSPropertyOp17
 70
     1
102
RTVSPropertyOp18
 70
     1
102
RTVSPropertyOp19
 70
     1
102
RTVSPropertyOp20
 70
     1
102
RTVSPropertyOp21
 70
     1
102
RTVSPropertyOp22
 70
     1
102
RTVSPropertyOp23
 70
     1
102
RTVSPropertyOp24
 70
     1
102
RTVSPropertyOp25
 70
     1
102
RTVSPropertyOp26
 70
     1
102
RTVSPropertyOp27
 70
     1
102
RTVSPropertyOp28
 70
     1
102
RTVSPropertyOp29
 70
     1
102
RTVSPropertyOp30
 70
     1
102
RTVSPropertyOp31
 70
     1
102
RTVSPropertyOp32
 70
     1
  0
XRECORD
  5
60
102
{ACAD_REACTORS
330
5F
102
}
330
5F
100
AcDbXrecord
280
     1
102
RTVSPropertyOp0
 70
     1
102
RTVSPropertyOp1
 70
     1
102
RTVSPropertyOp2
 70
     1
102
RTVSPropertyOp3
 70
     1
102
RTVSPropertyOp4
 70
     1
102
RTVSPropertyOp5
 70
     1
102
RTVSPropertyOp6
 70
     1
102
RTVSPropertyOp7
 70
     1
102
RTVSPropertyOp8
 70
     1
102
RTVSPropertyOp9
 70
     1
102
RTVSPropertyOp10
 70
     1
102
RTVSPropertyOp11
 70
     1
102
RTVSPropertyOp12
 70
     1
102
RTVSPropertyOp13
 70
     1
102
RTVSPropertyOp14
 70
     1
102
RTVSPropertyOp15
 70
     1
102
RTVSPropertyOp16
 70
     1
102
RTVSPropertyOp17
 70
     1
102
RTVSPropertyOp18
 70
     1
102
RTVSPropertyOp19
 70
     1
102
RTVSPropertyOp20
 70
     1
102
RTVSPropertyOp21
 70
     1
102
RTVSPropertyOp22
 70
     1
102
RTVSPropertyOp23
 70
     1
102
RTVSPropertyOp24
 70
     1
102
RTVSPropertyOp25
 70
     1
102
RTVSPropertyOp26
 70
     1
102
RTVSPropertyOp27
 70
     1
102
RTVSPropertyOp28
 70
     1
102
RTVSPropertyOp29
 70
     1
102
RTVSPropertyOp30
 70
     1
102
RTVSPropertyOp31
 70
     1
102
RTVSPropertyOp32
 70
     1
  0
XRECORD
  5
74
102
{ACAD_REACTORS
330
73
102
}
330
73
100
AcDbXrecord
280
     1
102
RTVSPropertyOp0
 70
     1
102
RTVSPropertyOp1
 70
     1
102
RTVSPropertyOp2
 70
     1
102
RTVSPropertyOp3
 70
     1
102
RTVSPropertyOp4
 70
     1
102
RTVSPropertyOp5
 70
     1
102
RTVSPropertyOp6
 70
     1
102
RTVSPropertyOp7
 70
     1
102
RTVSPropertyOp8
 70
     1
102
RTVSPropertyOp9
 70
     1
102
RTVSPropertyOp10
 70
     1
102
RTVSPropertyOp11
 70
     1
102
RTVSPropertyOp12
 70
     1
102
RTVSPropertyOp13
 70
     1
102
RTVSPropertyOp14
 70
     1
102
RTVSPropertyOp15
 70
     1
102
RTVSPropertyOp16
 70
     1
102
RTVSPropertyOp17
 70
     1
102
RTVSPropertyOp18
 70
     1
102
RTVSPropertyOp19
 70
     1
102
RTVSPropertyOp20
 70
     1
102
RTVSPropertyOp21
 70
     1
102
RTVSPropertyOp22
 70
     1
102
RTVSPropertyOp23
 70
     1
102
RTVSPropertyOp24
 70
     1
102
RTVSPropertyOp25
 70
     1
102
RTVSPropertyOp26
 70
     1
102
RTVSPropertyOp27
 70
     1
102
RTVSPropertyOp28
 70
     1
102
RTVSPropertyOp29
 70
     1
102
RTVSPropertyOp30
 70
     1
102
RTVSPropertyOp31
 70
     1
102
RTVSPropertyOp32
 70
     1
  0
XRECORD
  5
6A
102
{ACAD_REACTORS
330
69
102
}
330
69
100
AcDbXrecord
280
     1
102
RTVSPropertyOp0
 70
     1
102
RTVSPropertyOp1
 70
     1
102
RTVSPropertyOp2
 70
     1
102
RTVSPropertyOp3
 70
     1
102
RTVSPropertyOp4
 70
     1
102
RTVSPropertyOp5
 70
     1
102
RTVSPropertyOp6
 70
     1
102
RTVSPropertyOp7
 70
     1
102
RTVSPropertyOp8
 70
     1
102
RTVSPropertyOp9
 70
     1
102
RTVSPropertyOp10
 70
     1
102
RTVSPropertyOp11
 70
     1
102
RTVSPropertyOp12
 70
     1
102
RTVSPropertyOp13
 70
     1
102
RTVSPropertyOp14
 70
     1
102
RTVSPropertyOp15
 70
     1
102
RTVSPropertyOp16
 70
     1
102
RTVSPropertyOp17
 70
     1
102
RTVSPropertyOp18
 70
     1
102
RTVSPropertyOp19
 70
     1
102
RTVSPropertyOp20
 70
     1
102
RTVSPropertyOp21
 70
     1
102
RTVSPropertyOp22
 70
     1
102
RTVSPropertyOp23
 70
     1
102
RTVSPropertyOp24
 70
     1
102
RTVSPropertyOp25
 70
     1
102
RTVSPropertyOp26
 70
     1
102
RTVSPropertyOp27
 70
     1
102
RTVSPropertyOp28
 70
     1
102
RTVSPropertyOp29
 70
     1
102
RTVSPropertyOp30
 70
     1
102
RTVSPropertyOp31
 70
     1
102
RTVSPropertyOp32
 70
     1
  0
XRECORD
  5
72
102
{ACAD_REACTORS
330
71
102
}
330
71
100
AcDbXrecord
280
     1
102
RTVSPropertyOp0
 70
     1
102
RTVSPropertyOp1
 70
     1
102
RTVSPropertyOp2
 70
     1
102
RTVSPropertyOp3
 70
     1
102
RTVSPropertyOp4
 70
     1
102
RTVSPropertyOp5
 70
     1
102
RTVSPropertyOp6
 70
     1
102
RTVSPropertyOp7
 70
     1
102
RTVSPropertyOp8
 70
     1
102
RTVSPropertyOp9
 70
     1
102
RTVSPropertyOp10
 70
     1
102
RTVSPropertyOp11
 70
     1
102
RTVSPropertyOp12
 70
     1
102
RTVSPropertyOp13
 70
     1
102
RTVSPropertyOp14
 70
     1
102
RTVSPropertyOp15
 70
     1
102
RTVSPropertyOp16
 70
     1
102
RTVSPropertyOp17
 70
     1
102
RTVSPropertyOp18
 70
     1
102
RTVSPropertyOp19
 70
     1
102
RTVSPropertyOp20
 70
     1
102
RTVSPropertyOp21
 70
     1
102
RTVSPropertyOp22
 70
     1
102
RTVSPropertyOp23
 70
     1
102
RTVSPropertyOp24
 70
     1
102
RTVSPropertyOp25
 70
     1
102
RTVSPropertyOp26
 70
     1
102
RTVSPropertyOp27
 70
     1
102
RTVSPropertyOp28
 70
     1
102
RTVSPropertyOp29
 70
     1
102
RTVSPropertyOp30
 70
     1
102
RTVSPropertyOp31
 70
     1
102
RTVSPropertyOp32
 70
     1
  0
ENDSEC
  0
EOF
